v -0.006703 -0.476196 11.338308
v -0.003914 -0.776223 11.380404
v 0.000000 0.000000 15.858798
v -0.458466 0.219384 0.334173
v -0.194905 0.035408 1.071421
v -0.365433 0.039756 1.197401
v 0.570047 -0.073140 0.196859
v 0.239345 -0.128927 -0.456147
v 0.382077 -0.174314 -0.553493
v 0.352730 -0.219818 1.105190
v 0.200732 -0.153798 0.967962
v 0.570047 -0.073140 0.196859
v 0.093367 0.450543 1.097038
v 0.188217 0.349336 0.907013
v 0.180471 0.738216 0.263990
v 0.119057 0.444326 3.590444
v 0.130704 0.487793 -1.200000
v -0.130704 0.487793 -1.200000
v -0.119059 0.444326 3.590444
v -0.357089 0.357089 -1.200000
v -0.325268 0.325269 3.590444
v -0.487793 0.130704 -1.200000
v -0.444324 0.119057 3.590444
v -0.487793 -0.130704 -1.200000
v -0.444326 -0.119057 3.590444
v -0.357089 -0.357089 -1.200000
v -0.325268 -0.325269 3.590444
v -0.130704 -0.487793 -1.200000
v -0.119055 -0.444326 3.590444
v 0.130704 -0.487793 -1.200000
v 0.119056 -0.444326 3.590444
v 0.357089 -0.357089 -1.200000
v 0.325269 -0.325269 3.590444
v 0.487793 -0.130704 -1.200000
v 0.444323 -0.119057 3.590444
v 0.487793 0.130704 -1.200000
v 0.444326 0.119057 3.590444
v 0.357089 0.357089 -1.200000
v 0.325269 0.325269 3.590444
v 0.130704 0.487793 -1.200000
v 0.119057 0.444326 3.590444
v -0.325268 -0.325269 3.590444
v -0.119055 -0.444326 3.590444
v -0.296916 -0.274870 8.137725
v -0.444326 -0.119057 3.590444
v -0.404046 -0.092475 8.122708
v -0.444324 0.119057 3.590444
v -0.325268 0.325269 3.590444
v -0.299123 0.091305 8.109060
v -0.119059 0.444326 3.590444
v 0.119057 0.444326 3.590444
v 0.325269 0.325269 3.590444
v -0.087070 0.092690 8.110433
v 0.444326 0.119057 3.590444
v 0.020059 -0.089704 8.125452
v 0.444323 -0.119057 3.590444
v -0.084864 -0.273485 8.139097
v 0.325269 -0.325269 3.590444
v -0.296916 -0.274870 8.137725
v 0.119056 -0.444326 3.590444
v -0.119055 -0.444326 3.590444
v 0.256686 -0.621857 11.373014
v -0.006703 -0.476196 11.338308
v 0.000000 0.000000 15.858798
v -0.003914 -0.776223 11.380404
v -0.003914 -0.776223 11.380404
v -0.404046 -0.092475 8.122708
v -0.296916 -0.274870 8.137725
v -0.006703 -0.476196 11.338308
v -0.299123 0.091305 8.109060
v -0.087070 0.092690 8.110433
v 0.256686 -0.621857 11.373014
v 0.020059 -0.089704 8.125452
v -0.084864 -0.273485 8.139097
v -0.003914 -0.776223 11.380404
v -0.296916 -0.274870 8.137725
v 0.056102 -0.214558 -0.378143
v -0.102880 -0.268659 -0.382800
v -0.029828 -0.540211 0.317891
v 0.159614 -0.471260 0.317891
v -0.124636 -0.187742 1.006312
v 0.174742 -0.292768 -0.489453
v 0.064806 -0.118791 1.006312
v 0.313966 -0.600620 0.330970
v 0.212154 -0.228907 1.124163
v 0.134399 -0.425078 -0.605420
v 0.174742 -0.292768 -0.489453
v 0.313966 -0.600620 0.330970
v 0.278877 -0.798932 0.344049
v 0.170060 -0.407974 1.242014
v 0.212154 -0.228907 1.124163
v 0.089435 -0.867883 0.344049
v -0.024583 -0.479179 -0.610078
v -0.019382 -0.476926 1.242014
v -0.064918 -0.738523 0.330970
v -0.143223 -0.400969 -0.498768
v -0.166730 -0.366810 1.124163
v -0.029828 -0.540211 0.317891
v -0.102880 -0.268659 -0.382800
v -0.124636 -0.187742 1.006312
v -0.365433 0.039756 1.197401
v -0.658199 0.246757 0.334186
v -0.458466 0.219384 0.334173
v -0.361727 0.085428 -0.504011
v -0.210192 0.073245 -0.414323
v -0.334894 0.378671 0.334173
v -0.107959 0.206531 -0.411604
v -0.194905 0.035408 1.071421
v -0.157262 0.351999 -0.498573
v -0.072964 0.195937 1.069636
v -0.411054 0.565332 0.334186
v -0.121551 0.360815 1.193830
v -0.411030 0.230895 -0.590980
v -0.361727 0.085428 -0.504011
v -0.658199 0.246757 0.334186
v -0.734360 0.433418 0.334199
v -0.414020 0.204634 1.321596
v -0.365433 0.039756 1.197401
v -0.292079 0.365164 1.319811
v -0.610787 0.592705 0.334199
v -0.308797 0.364181 -0.588261
v -0.411054 0.565332 0.334186
v -0.121551 0.360815 1.193830
v -0.157262 0.351999 -0.498573
v 0.382077 -0.174314 -0.553493
v 0.760631 -0.126429 0.251825
v 0.570047 -0.073140 0.196859
v 0.352730 -0.219818 1.105190
v 0.760631 -0.126429 0.251825
v 0.382077 -0.174314 -0.553493
v 0.479040 -0.058075 -0.648337
v 0.899038 0.015013 0.306791
v 0.433272 0.103551 -0.645835
v 0.455211 -0.090415 1.243197
v 0.352730 -0.219818 1.105190
v 0.405694 0.105008 1.243977
v 0.846860 0.209744 0.306791
v 0.656275 0.263033 0.251825
v 0.290540 0.148938 -0.548489
v 0.253696 0.171028 1.106749
v -0.283646 -0.371466 -0.540146
v -0.155932 -0.362546 -0.384741
v -0.400559 -0.656067 0.191367
v -0.594254 -0.707209 0.223611
v -0.272895 -0.377094 1.028765
v -0.116578 -0.363330 0.847962
v -0.415448 -0.234541 1.028765
v -0.736807 -0.564656 0.223611
v -0.402440 -0.252672 -0.540146
v -0.685665 -0.370961 0.191367
v -0.401684 -0.078224 0.847962
v -0.393520 -0.124958 -0.384740
v -0.099314 0.433586 -0.581576
v -0.184467 0.357700 -0.420893
v -0.222729 0.738216 0.263990
v -0.121929 0.911881 0.289632
v -0.108140 0.455315 1.100855
v -0.214797 0.358880 0.914647
v 0.093367 0.450543 1.097038
v 0.079671 0.911881 0.289632
v 0.068682 0.433014 -0.580644
v 0.180471 0.738216 0.263990
v 0.151526 0.356556 -0.419028
v 0.180471 0.738216 0.263990
v 0.079671 0.564550 0.238349
v 0.151526 0.356556 -0.419028
v 0.188217 0.349336 0.907013
v 0.066374 0.280669 -0.258344
v 0.081560 0.252901 0.720806
v -0.101622 0.281241 -0.259276
v -0.119947 0.257673 0.724622
v -0.121929 0.564550 0.238349
v -0.184467 0.357700 -0.420893
v -0.214797 0.358880 0.914647
v -0.222729 0.738216 0.263990
v -0.685665 -0.370961 0.191367
v -0.491970 -0.319820 0.159122
v -0.393520 -0.124958 -0.384740
v -0.401684 -0.078224 0.847962
v -0.265807 -0.116039 -0.229337
v -0.245367 -0.064460 0.667158
v -0.147013 -0.234833 -0.229337
v -0.102814 -0.207012 0.667158
v -0.349417 -0.462372 0.159122
v -0.155932 -0.362546 -0.384741
v -0.116578 -0.363330 0.847962
v -0.400559 -0.656067 0.191367
v 0.570047 -0.073140 0.196859
v 0.517869 0.121591 0.196859
v 0.239345 -0.128927 -0.456147
v 0.200732 -0.153798 0.967962
v 0.193576 0.032699 -0.453645
v 0.151215 0.041625 0.968742
v 0.290540 0.148938 -0.548489
v 0.253696 0.171028 1.106749
v 0.656275 0.263033 0.251825
vn -0.523126 0.845770 0.104935
vn -0.438925 -0.897074 0.051033
vn -0.017924 0.137510 0.990338
vn 0.298916 -0.953827 -0.029377
vn 0.286450 -0.900757 -0.326471
vn -0.678390 -0.732872 0.051830
vn -0.640180 -0.767942 0.020866
vn -0.592550 -0.718467 0.364267
vn 0.299951 -0.951326 -0.070773
vn 0.331494 -0.941730 0.057057
vn -0.602670 -0.711457 -0.361412
vn -0.640180 -0.767942 0.020866
vn 0.429046 0.786474 0.444273
vn 0.989860 0.127670 0.062267
vn 0.985703 0.162446 -0.044739
vn 0.263703 0.963080 0.054190
vn 0.258810 0.965883 0.009393
vn -0.258806 0.965884 0.009393
vn -0.254094 0.966459 0.037321
vn -0.707074 0.707077 0.009393
vn -0.705038 0.708726 0.025087
vn -0.965883 0.258809 0.009394
vn -0.964905 0.262161 0.015162
vn -0.965884 -0.258806 0.009393
vn -0.965795 -0.259121 0.009827
vn -0.707077 -0.707074 0.009393
vn -0.706864 -0.707267 0.010818
vn -0.258810 -0.965883 0.009393
vn -0.255043 -0.966766 0.017788
vn 0.258806 -0.965884 0.009393
vn 0.264760 -0.963685 0.034841
vn 0.707074 -0.707077 0.009393
vn 0.707003 -0.705720 0.045883
vn 0.965883 -0.258809 0.009394
vn 0.965097 -0.257047 0.050138
vn 0.965884 0.258805 0.009394
vn 0.964001 0.260061 0.055418
vn 0.707077 0.707074 0.009393
vn 0.704841 0.706805 0.060211
vn 0.258810 0.965883 0.009393
vn 0.263703 0.963080 0.054190
vn -0.706864 -0.707267 0.010818
vn -0.255043 -0.966766 0.017788
vn -0.515922 -0.855963 -0.033941
vn -0.965795 -0.259121 0.009827
vn -0.997701 0.018343 0.065237
vn -0.964905 0.262161 0.015162
vn -0.705038 0.708726 0.025087
vn -0.501040 0.857445 0.117247
vn -0.254094 0.966459 0.037321
vn 0.263703 0.963080 0.054190
vn 0.704841 0.706805 0.060211
vn 0.461423 0.880947 0.104981
vn 0.964001 0.260061 0.055418
vn 0.999213 0.031060 0.024678
vn 0.965097 -0.257047 0.050138
vn 0.494465 -0.866881 -0.063416
vn 0.707003 -0.705720 0.045883
vn -0.515922 -0.855963 -0.033941
vn 0.264760 -0.963685 0.034841
vn -0.255043 -0.966766 0.017788
vn 0.997803 -0.065413 0.010480
vn -0.523126 0.845770 0.104935
vn -0.017924 0.137510 0.990338
vn -0.438925 -0.897074 0.051033
vn -0.438925 -0.897074 0.051033
vn -0.997701 0.018343 0.065237
vn -0.515922 -0.855963 -0.033941
vn -0.523126 0.845770 0.104935
vn -0.501040 0.857445 0.117247
vn 0.461423 0.880947 0.104981
vn 0.997803 -0.065413 0.010480
vn 0.999213 0.031060 0.024678
vn 0.494465 -0.866881 -0.063416
vn -0.438925 -0.897074 0.051033
vn -0.515922 -0.855963 -0.033941
vn 0.242135 0.921097 0.304879
vn -0.780197 0.551553 0.295096
vn -0.823775 0.565833 -0.035047
vn 0.255092 0.965359 -0.054859
vn -0.756073 0.534459 -0.377766
vn 0.965669 0.251154 -0.066374
vn 0.269043 0.871823 -0.409318
vn 0.975780 0.215867 -0.035413
vn 0.962731 0.270174 -0.012452
vn 0.682502 -0.635351 -0.361276
vn 0.965669 0.251154 -0.066374
vn 0.975780 0.215867 -0.035413
vn 0.727176 -0.686420 0.006515
vn 0.727557 -0.590005 0.350080
vn 0.962731 0.270174 -0.012452
vn -0.126568 -0.991847 0.014834
vn -0.139706 -0.920337 -0.365326
vn -0.168105 -0.908292 0.383075
vn -0.889078 -0.457632 -0.010600
vn -0.903297 -0.420805 -0.083526
vn -0.926746 -0.372374 0.049785
vn -0.823775 0.565833 -0.035047
vn -0.780197 0.551553 0.295096
vn -0.756073 0.534459 -0.377766
vn -0.678390 -0.732872 0.051830
vn -0.700245 -0.713656 -0.018759
vn 0.298916 -0.953827 -0.029377
vn -0.639012 -0.765424 -0.076083
vn 0.308376 -0.909161 0.279875
vn 0.997617 -0.064340 -0.024929
vn 0.950732 -0.062318 0.303685
vn 0.286450 -0.900757 -0.326471
vn 0.570096 0.820939 -0.032392
vn 0.939101 -0.031242 -0.342217
vn 0.514736 0.857258 -0.012487
vn 0.518350 0.854834 0.023930
vn -0.924963 0.127227 -0.358130
vn -0.639012 -0.765424 -0.076083
vn -0.700245 -0.713656 -0.018759
vn -0.983553 0.180404 -0.008872
vn -0.927672 0.152952 0.340631
vn -0.678390 -0.732872 0.051830
vn -0.392273 0.859374 0.328022
vn -0.427479 0.904001 -0.006679
vn -0.355158 0.871600 -0.337901
vn 0.514736 0.857258 -0.012487
vn 0.518350 0.854834 0.023930
vn 0.570096 0.820939 -0.032392
vn 0.299951 -0.951326 -0.070773
vn 0.399694 -0.914521 -0.062425
vn -0.640180 -0.767942 0.020866
vn 0.331494 -0.941730 0.057057
vn 0.399694 -0.914521 -0.062425
vn 0.299951 -0.951326 -0.070773
vn 0.893792 -0.220169 -0.390720
vn 0.977986 -0.207171 0.024976
vn 0.643382 0.671443 -0.367728
vn 0.887456 -0.235436 0.396221
vn 0.331494 -0.941730 0.057057
vn 0.671406 0.632204 0.386693
vn 0.748610 0.662552 0.024664
vn -0.109365 0.992540 -0.053891
vn -0.231535 0.972632 -0.019435
vn -0.135369 0.989959 0.040689
vn -0.237539 -0.840311 -0.487292
vn 0.659402 -0.747342 -0.081668
vn 0.573300 -0.817486 -0.055179
vn -0.320735 -0.947169 -0.000415
vn -0.242426 -0.856390 0.455879
vn 0.631492 -0.772839 0.062762
vn -0.859633 -0.242615 0.449633
vn -0.946429 -0.322904 -0.002416
vn -0.840900 -0.237566 -0.486260
vn -0.818357 0.571465 -0.060986
vn -0.782097 0.621026 0.051493
vn -0.749159 0.657584 -0.079654
vn -0.377434 0.802776 -0.461621
vn -0.983158 0.134203 -0.124058
vn -0.986494 0.159366 -0.037831
vn -0.445821 0.895031 0.012803
vn -0.373720 0.804843 0.461044
vn -0.979941 0.170168 0.103726
vn 0.429046 0.786474 0.444273
vn 0.441515 0.897195 0.010317
vn 0.388421 0.800685 -0.456105
vn 0.985703 0.162446 -0.044739
vn 0.985185 0.131655 -0.109896
vn 0.985703 0.162446 -0.044739
vn 0.592853 -0.805180 -0.014473
vn 0.985185 0.131655 -0.109896
vn 0.989860 0.127670 0.062267
vn 0.555890 -0.728021 0.401213
vn 0.549546 -0.700799 -0.454841
vn -0.561976 -0.728101 0.392495
vn -0.596514 -0.677602 -0.430147
vn -0.598051 -0.801404 -0.009364
vn -0.983158 0.134203 -0.124058
vn -0.979941 0.170168 0.103726
vn -0.986494 0.159366 -0.037831
vn -0.818357 0.571465 -0.060986
vn 0.117968 0.992534 0.030969
vn -0.749159 0.657584 -0.079654
vn -0.782097 0.621026 0.051493
vn 0.066976 0.866990 0.493804
vn 0.059891 0.879910 -0.471350
vn 0.867447 0.069451 0.492658
vn 0.882414 0.072627 -0.464834
vn 0.992650 0.115679 0.035557
vn 0.659402 -0.747342 -0.081668
vn 0.631492 -0.772839 0.062762
vn 0.573300 -0.817486 -0.055179
vn -0.640180 -0.767942 0.020866
vn -0.942927 0.331479 0.031787
vn -0.592550 -0.718467 0.364267
vn -0.602670 -0.711457 -0.361412
vn -0.868973 0.302138 0.391917
vn -0.857643 0.356685 -0.370439
vn -0.231535 0.972632 -0.019435
vn -0.135369 0.989959 0.040689
vn -0.109365 0.992540 -0.053891
vt 0.431685 0.819337
vt 0.428495 0.748104
vt 0.006566 0.785940
vt 0.342151 0.716976
vt 0.249995 0.700630
vt 0.234248 0.699230
vt 0.347414 0.872854
vt 0.429040 0.905235
vt 0.441208 0.875983
vt 0.233873 0.899768
vt 0.251026 0.938904
vt 0.347414 0.872854
vt 0.234892 0.818118
vt 0.258645 0.863896
vt 0.339023 0.875137
vt 0.480126 0.954570
vt 0.971448 0.954570
vt 0.971448 0.920741
vt 0.480126 0.920741
vt 0.971448 0.886912
vt 0.480126 0.886912
vt 0.971448 0.853083
vt 0.480126 0.853083
vt 0.971448 0.819254
vt 0.480126 0.819254
vt 0.971448 0.785425
vt 0.480126 0.785425
vt 0.971448 0.751596
vt 0.480126 0.751596
vt 0.971448 0.717767
vt 0.480126 0.717767
vt 0.971448 0.683938
vt 0.480126 0.683938
vt 0.971448 0.650109
vt 0.480126 0.650109
vt 0.971448 0.616280
vt 0.480126 0.616280
vt 0.971448 0.582451
vt 0.480126 0.582451
vt 0.971448 0.548622
vt 0.480126 0.548622
vt 0.972860 0.575738
vt 0.973063 0.542093
vt 0.481328 0.542234
vt 0.972657 0.609384
vt 0.481310 0.592961
vt 0.972968 0.645621
vt 0.973279 0.681858
vt 0.480632 0.721911
vt 0.975124 0.707347
vt 0.976969 0.732836
vt 0.978814 0.758325
vt 0.480015 0.820811
vt 0.979327 0.795042
vt 0.480238 0.867984
vt 0.979195 0.851570
vt 0.481271 0.909445
vt 0.975753 0.891987
vt 0.482182 0.951419
vt 0.974835 0.921633
vt 0.973917 0.951278
vt 0.431631 0.788115
vt 0.431685 0.819337
vt 0.006566 0.785940
vt 0.428495 0.748104
vt 0.146359 0.710401
vt 0.432900 0.737984
vt 0.427742 0.708946
vt 0.152875 0.764699
vt 0.434943 0.769421
vt 0.431829 0.795258
vt 0.145421 0.819868
vt 0.426671 0.817353
vt 0.424628 0.841538
vt 0.146359 0.869981
vt 0.427742 0.868525
vt 0.217143 0.786183
vt 0.217725 0.859237
vt 0.130139 0.875020
vt 0.130139 0.759868
vt 0.044086 0.892889
vt 0.231057 0.723403
vt 0.044086 0.787773
vt 0.128504 0.694540
vt 0.029355 0.692816
vt 0.245553 0.750537
vt 0.231057 0.723403
vt 0.128504 0.694540
vt 0.126869 0.734210
vt 0.014624 0.736952
vt 0.029355 0.692816
vt 0.126869 0.808348
vt 0.246135 0.802498
vt 0.014624 0.801052
vt 0.128504 0.873347
vt 0.232221 0.847031
vt 0.029355 0.859737
vt 0.130139 0.875020
vt 0.217725 0.859237
vt 0.044086 0.892889
vt 0.234248 0.699230
vt 0.342149 0.698735
vt 0.342151 0.716976
vt 0.446924 0.715546
vt 0.435713 0.720619
vt 0.342151 0.834530
vt 0.435373 0.815970
vt 0.249995 0.700630
vt 0.446244 0.843342
vt 0.250218 0.827529
vt 0.342149 0.875901
vt 0.234694 0.857110
vt 0.457795 0.756792
vt 0.446924 0.715546
vt 0.342149 0.698735
vt 0.342148 0.755243
vt 0.218723 0.749146
vt 0.234248 0.699230
vt 0.218946 0.811237
vt 0.342148 0.828275
vt 0.457455 0.807543
vt 0.342149 0.875901
vt 0.234694 0.857110
vt 0.446244 0.843342
vt 0.441208 0.875983
vt 0.340543 0.880048
vt 0.347414 0.872854
vt 0.233873 0.899768
vt 0.340543 0.880048
vt 0.441208 0.875983
vt 0.453064 0.815599
vt 0.333673 0.815087
vt 0.452751 0.747776
vt 0.216622 0.830453
vt 0.233873 0.899768
vt 0.216524 0.744145
vt 0.333673 0.736770
vt 0.340543 0.687572
vt 0.440583 0.697268
vt 0.233678 0.670628
vt 0.427638 0.751544
vt 0.408213 0.713915
vt 0.336199 0.699277
vt 0.332169 0.744767
vt 0.231524 0.753570
vt 0.254125 0.713531
vt 0.231524 0.812191
vt 0.332169 0.815583
vt 0.427638 0.810677
vt 0.336199 0.867818
vt 0.254125 0.855510
vt 0.408213 0.852389
vt 0.444718 0.747781
vt 0.424633 0.707011
vt 0.339023 0.692055
vt 0.335817 0.752109
vt 0.234415 0.747996
vt 0.257691 0.698824
vt 0.234892 0.818084
vt 0.335817 0.827715
vt 0.444602 0.808722
vt 0.339023 0.875063
vt 0.424400 0.846549
vt 0.339023 0.875063
vt 0.342228 0.827363
vt 0.424400 0.846549
vt 0.258645 0.863862
vt 0.404314 0.804474
vt 0.281921 0.813841
vt 0.404431 0.715813
vt 0.281444 0.701122
vt 0.342228 0.706694
vt 0.424633 0.707011
vt 0.257691 0.698824
vt 0.339023 0.692055
vt 0.336199 0.867818
vt 0.340230 0.845247
vt 0.408213 0.852389
vt 0.254125 0.855510
vt 0.388787 0.837266
vt 0.276725 0.846885
vt 0.388787 0.747441
vt 0.276725 0.745779
vt 0.340230 0.737575
vt 0.408213 0.713915
vt 0.254125 0.713531
vt 0.336199 0.699277
vt 0.347414 0.872854
vt 0.347414 0.741879
vt 0.429040 0.905235
vt 0.251026 0.938904
vt 0.428727 0.768897
vt 0.250929 0.740547
vt 0.440583 0.697268
vt 0.233678 0.670628
vt 0.340543 0.687572
f 1/1/1 2/2/2 3/3/3
f 4/4/4 5/5/5 6/6/6
f 7/7/7 8/8/8 9/9/9
f 10/10/10 11/11/11 12/12/12
f 13/13/13 14/14/14 15/15/15
f 16/16/16 17/17/17 18/18/18
f 16/16/16 18/18/18 19/19/19
f 19/19/19 18/18/18 20/20/20
f 19/19/19 20/20/20 21/21/21
f 21/21/21 20/20/20 22/22/22
f 21/21/21 22/22/22 23/23/23
f 23/23/23 22/22/22 24/24/24
f 23/23/23 24/24/24 25/25/25
f 25/25/25 24/24/24 26/26/26
f 25/25/25 26/26/26 27/27/27
f 27/27/27 26/26/26 28/28/28
f 27/27/27 28/28/28 29/29/29
f 29/29/29 28/28/28 30/30/30
f 29/29/29 30/30/30 31/31/31
f 31/31/31 30/30/30 32/32/32
f 31/31/31 32/32/32 33/33/33
f 33/33/33 32/32/32 34/34/34
f 33/33/33 34/34/34 35/35/35
f 35/35/35 34/34/34 36/36/36
f 35/35/35 36/36/36 37/37/37
f 37/37/37 36/36/36 38/38/38
f 37/37/37 38/38/38 39/39/39
f 39/39/39 38/38/38 40/40/40
f 39/39/39 40/40/40 41/41/41
f 42/42/42 43/43/43 44/44/44
f 42/42/42 44/44/44 45/45/45
f 45/45/45 44/44/44 46/46/46
f 47/47/47 45/45/45 46/46/46
f 47/47/47 46/46/46 48/48/48
f 48/48/48 46/46/46 49/49/49
f 49/49/49 50/50/50 48/48/48
f 50/50/50 49/49/49 51/51/51
f 51/51/51 49/49/49 52/52/52
f 52/52/52 49/49/49 53/53/53
f 53/53/53 54/54/54 52/52/52
f 55/55/55 54/54/54 53/53/53
f 55/55/55 56/56/56 54/54/54
f 57/57/57 56/56/56 55/55/55
f 57/57/57 58/58/58 56/56/56
f 59/59/59 58/58/58 57/57/57
f 59/59/59 60/60/60 58/58/58
f 59/59/59 61/61/61 60/60/60
f 62/62/62 63/63/63 64/64/64
f 65/65/65 62/62/62 64/64/64
f 66/66/66 67/67/67 68/68/68
f 69/69/69 67/67/67 66/66/66
f 69/69/69 70/70/70 67/67/67
f 69/69/69 71/71/71 70/70/70
f 72/72/72 71/71/71 69/69/69
f 72/72/72 73/73/73 71/71/71
f 72/72/72 74/74/74 73/73/73
f 75/75/75 74/74/74 72/72/72
f 75/75/75 76/76/76 74/74/74
f 77/77/77 78/78/78 79/79/79
f 79/79/79 80/80/80 77/77/77
f 80/80/80 79/79/79 81/81/81
f 82/82/82 77/77/77 80/80/80
f 81/81/81 83/83/83 80/80/80
f 80/80/80 84/84/84 82/82/82
f 80/80/80 83/83/83 85/85/85
f 84/84/84 80/80/80 85/85/85
f 86/86/86 87/87/87 88/88/88
f 88/88/88 89/89/89 86/86/86
f 89/89/89 88/88/88 90/90/90
f 88/88/88 91/91/91 90/90/90
f 89/89/89 92/92/92 86/86/86
f 92/92/92 89/89/89 90/90/90
f 92/92/92 93/93/93 86/86/86
f 90/90/90 94/94/94 92/92/92
f 93/93/93 92/92/92 95/95/95
f 95/95/95 92/92/92 94/94/94
f 95/95/95 96/96/96 93/93/93
f 94/94/94 97/97/97 95/95/95
f 96/96/96 95/95/95 98/98/98
f 98/98/98 95/95/95 97/97/97
f 98/98/98 99/99/99 96/96/96
f 97/97/97 100/100/100 98/98/98
f 101/101/101 102/102/102 103/103/103
f 103/103/103 102/102/102 104/104/104
f 104/104/104 105/105/105 103/103/103
f 106/106/106 103/103/103 105/105/105
f 105/105/105 107/107/107 106/106/106
f 103/103/103 106/106/106 108/108/108
f 106/106/106 107/107/107 109/109/109
f 110/110/110 108/108/108 106/106/106
f 109/109/109 111/111/111 106/106/106
f 112/112/112 110/110/110 106/106/106
f 106/106/106 111/111/111 112/112/112
f 113/113/113 114/114/114 115/115/115
f 115/115/115 116/116/116 113/113/113
f 117/117/117 116/116/116 115/115/115
f 115/115/115 118/118/118 117/117/117
f 117/117/117 119/119/119 116/116/116
f 116/116/116 120/120/120 113/113/113
f 120/120/120 116/116/116 119/119/119
f 121/121/121 113/113/113 120/120/120
f 122/122/122 120/120/120 119/119/119
f 121/121/121 120/120/120 122/122/122
f 119/119/119 123/123/123 122/122/122
f 122/122/122 124/124/124 121/121/121
f 125/125/125 126/126/126 127/127/127
f 127/127/127 126/126/126 128/128/128
f 129/129/129 130/130/130 131/131/131
f 131/131/131 132/132/132 129/129/129
f 132/132/132 131/131/131 133/133/133
f 129/129/129 132/132/132 134/134/134
f 134/134/134 135/135/135 129/129/129
f 136/136/136 134/134/134 132/132/132
f 137/137/137 132/132/132 133/133/133
f 132/132/132 137/137/137 136/136/136
f 138/138/138 137/137/137 133/133/133
f 136/136/136 137/137/137 138/138/138
f 133/133/133 139/139/139 138/138/138
f 138/138/138 140/140/140 136/136/136
f 141/141/141 142/142/142 143/143/143
f 143/143/143 144/144/144 141/141/141
f 144/144/144 143/143/143 145/145/145
f 143/143/143 146/146/146 145/145/145
f 145/145/145 147/147/147 144/144/144
f 144/144/144 148/148/148 141/141/141
f 148/148/148 144/144/144 147/147/147
f 148/148/148 149/149/149 141/141/141
f 150/150/150 148/148/148 147/147/147
f 148/148/148 150/150/150 149/149/149
f 147/147/147 151/151/151 150/150/150
f 150/150/150 152/152/152 149/149/149
f 153/153/153 154/154/154 155/155/155
f 155/155/155 156/156/156 153/153/153
f 156/156/156 155/155/155 157/157/157
f 155/155/155 158/158/158 157/157/157
f 157/157/157 159/159/159 156/156/156
f 156/156/156 160/160/160 153/153/153
f 160/160/160 156/156/156 159/159/159
f 160/160/160 161/161/161 153/153/153
f 162/162/162 160/160/160 159/159/159
f 160/160/160 162/162/162 161/161/161
f 162/162/162 163/163/163 161/161/161
f 164/164/164 165/165/165 166/166/166
f 165/165/165 164/164/164 167/167/167
f 165/165/165 168/168/168 166/166/166
f 167/167/167 169/169/169 165/165/165
f 170/170/170 168/168/168 165/165/165
f 169/169/169 171/171/171 165/165/165
f 165/165/165 172/172/172 170/170/170
f 172/172/172 165/165/165 171/171/171
f 173/173/173 170/170/170 172/172/172
f 172/172/172 171/171/171 174/174/174
f 172/172/172 175/175/175 173/173/173
f 175/175/175 172/172/172 174/174/174
f 176/176/176 177/177/177 178/178/178
f 177/177/177 176/176/176 179/179/179
f 177/177/177 180/180/180 178/178/178
f 179/179/179 181/181/181 177/177/177
f 182/182/182 180/180/180 177/177/177
f 181/181/181 183/183/183 177/177/177
f 177/177/177 184/184/184 182/182/182
f 184/184/184 177/177/177 183/183/183
f 185/185/185 182/182/182 184/184/184
f 184/184/184 183/183/183 186/186/186
f 184/184/184 187/187/187 185/185/185
f 187/187/187 184/184/184 186/186/186
f 188/188/188 189/189/189 190/190/190
f 189/189/189 188/188/188 191/191/191
f 189/189/189 192/192/192 190/190/190
f 191/191/191 193/193/193 189/189/189
f 194/194/194 192/192/192 189/189/189
f 189/189/189 193/193/193 195/195/195
f 189/189/189 196/196/196 194/194/194
f 195/195/195 196/196/196 189/189/189
