v -4.699799 1.643579 5.900259
v -1.376039 1.559657 9.555232
v -2.901102 6.759293 10.174377
v -3.078611 4.412344 4.422791
v -1.032992 1.773464 7.806169
v 3.116171 2.886887 5.771413
v 2.969772 3.261139 7.951049
v 1.220040 -5.174964 8.524588
v -2.703677 0.194600 10.535939
v 2.897371 1.415251 8.389373
v -3.081961 -3.423962 6.946091
v -2.035732 -0.482446 11.595828
v 1.870466 3.794205 10.704484
v 3.021525 -4.173247 7.085217
v -2.308609 -1.605970 9.297148
v 2.247051 -5.617723 5.025053
v -1.291025 -2.042886 8.007665
v -4.886053 -3.710434 4.492129
v -1.973030 1.520978 10.478294
v 3.928129 -1.040411 9.089360
v -0.661918 -3.570690 9.846197
v 2.366980 2.501354 6.797886
v 4.600461 -4.953179 13.048789
v -2.031166 -1.186349 11.049670
v 4.718409 -3.234920 5.032746
v 0.606526 -2.496790 7.939172
v -1.615189 -6.166848 5.201585
v -2.499271 1.393869 7.344736
v 6.499382 -0.134945 8.209412
v 0.630952 -1.936510 12.051834
v -3.024640 -1.701457 5.925742
v 2.845651 4.308834 8.704988
v 0.770578 -1.963338 10.988192
v -3.346385 -2.260033 8.295278
v 0.377870 4.519016 7.980046
v 1.698496 -0.526137 10.135541
v 2.875627 -3.944574 12.249704
v -2.521155 -0.975785 4.617840
v 0.213829 2.901726 9.788875
v 4.317889 -2.557529 11.224220
v -2.227130 -1.579720 7.874390
v 1.092065 2.108594 9.758981
v 2.324247 6.264232 5.896898
v 1.155882 2.041857 8.152923
v 2.108536 -0.177107 3.857366
v -4.212564 0.127180 3.765226
v -0.734085 0.508856 8.875938
v 2.402033 5.473058 5.373702
v 0.005936 -2.613728 12.975736
v 1.467955 2.695712 13.087624
v 1.178100 -0.141233 15.914341
v -2.901102 6.759293 10.174377
v 3.302743 4.091804 10.756315
v -1.376039 1.559657 9.555232
v 1.504047 -1.023910 6.482198
v -4.699799 1.643579 5.900259
v -5.047472 -1.459433 6.824883
v -3.078611 4.412344 4.422791
v -1.032992 1.773464 7.806169
v 1.147311 -2.984891 8.173505
v 3.116171 2.886887 5.771413
v 1.220040 -5.174964 8.524588
v -2.703677 0.194600 10.535939
v -7.393373 -3.399273 8.365520
v -5.643642 5.036830 7.791983
v 2.969772 3.261139 7.951049
v -1.542513 5.476342 13.166716
v -2.035732 -0.482446 11.595828
v 2.897371 1.415251 8.389373
v -7.521844 0.637130 11.723434
v -3.081961 -3.423962 6.946091
v 0.447976 4.690088 8.062160
v 5.179305 -3.476263 8.574039
v -1.485154 -2.446647 9.096707
v -6.965070 0.188507 4.764646
v -2.233740 -7.977844 5.276525
v -1.485154 -2.446647 9.096707
v -6.965070 0.188507 4.764646
v 5.179305 -3.476263 8.574039
v -2.511135 -5.818722 6.336113
v -2.170070 -0.737257 8.108110
v -4.354516 0.268457 3.855830
v 0.640522 3.166540 7.255997
v 0.640522 3.166540 7.255997
v 2.483904 -2.920639 9.736280
v -2.170070 -0.737257 8.108110
v -2.511135 -5.818722 6.336113
v -6.303886 3.917123 7.834150
v -2.308609 -1.605970 9.297148
v 1.870466 3.794205 10.704484
v -5.152826 -4.050330 4.214883
v 3.021525 -4.173247 7.085217
v -6.803468 -1.068438 10.960217
v -1.585080 -0.541607 10.894830
v -2.616695 3.772617 9.190537
v -2.301250 -5.524603 9.421651
v 1.885523 -0.683547 7.651971
v -2.301250 -5.524603 9.421651
v -1.585080 -0.541607 10.894830
v -2.616695 3.772617 9.190537
v -5.671827 1.297836 5.428868
v 2.306322 3.911079 8.652643
v -0.545675 -1.829458 9.223837
v 5.249101 -4.393812 8.101977
v 5.249101 -4.393812 8.101977
v -0.545675 -1.829458 9.223837
v -2.729048 -7.007056 4.878203
v -5.671827 1.297836 5.428868
v 3.770767 0.882676 7.894717
v 2.247051 -5.617723 5.025053
v -1.291025 -2.042886 8.007665
v -3.362337 2.789966 7.361793
v -4.886053 -3.710434 4.492129
v 3.928129 -1.040411 9.089360
v -0.661918 -3.570690 9.846197
v 0.960225 -6.365808 6.300419
v -4.940934 -3.804420 7.689354
v -1.973030 1.520978 10.478294
v 4.600461 -4.953179 13.048789
v -2.031166 -1.186349 11.049670
v -4.381499 -8.672501 11.822602
v -6.614979 -1.217968 5.571701
v 2.366980 2.501354 6.797886
v -1.211009 -7.629635 10.060599
v -0.509898 -2.384429 10.068615
v -4.408791 -2.440978 7.279475
v 4.433541 -4.260807 9.855518
v 1.235758 0.927849 7.074392
v 4.433541 -4.260807 9.855518
v -0.509898 -2.384429 10.068615
v -4.408791 -2.440978 7.279475
v 1.928623 2.919339 7.250604
v 4.718409 -3.234920 5.032746
v 0.606526 -2.496790 7.939172
v -4.404975 -0.012590 7.419442
v -1.615189 -6.166848 5.201585
v -2.995926 -0.627528 10.585465
v 1.307837 1.453941 5.281019
v 2.430064 -1.486906 9.306493
v 0.788473 -6.477056 11.360579
v 5.092235 -4.395585 6.056131
v 2.430064 -1.486906 9.306493
v 0.788473 -6.477056 11.360579
v 1.307837 1.453941 5.281019
v 2.834908 -7.795582 8.081784
v 0.161506 -2.338894 9.902011
v -3.925458 -3.902425 6.177067
v 6.340509 -0.920690 9.691408
v -0.419857 2.972467 7.786692
v 6.340509 -0.920690 9.691408
v 0.161506 -2.338894 9.902011
v -3.925458 -3.902425 6.177067
v 6.499382 -0.134945 8.209412
v 0.630952 -1.936510 12.051834
v 4.775240 -7.859021 12.495740
v -4.223413 -6.330208 11.631063
v -2.499271 1.393869 7.344736
v 2.845651 4.308834 8.704988
v 0.770578 -1.963338 10.988192
v 7.649110 -2.012813 12.230125
v 1.778821 -8.023104 9.450880
v -3.024640 -1.701457 5.925742
v 0.950680 5.713569 7.199576
v 2.669280 -0.125145 10.578132
v 8.230324 0.776226 7.743621
v 3.368277 -6.234369 9.177807
v 3.368277 -6.234369 9.177807
v -3.911367 -1.297027 8.633760
v 2.669280 -0.125145 10.578132
v 0.950680 5.713569 7.199576
v 3.552886 -6.065331 7.972808
v 1.698496 -0.526137 10.135541
v -3.346385 -2.260033 8.295278
v 7.277140 0.713720 7.657576
v 0.377870 4.519016 7.980046
v 7.330258 2.318929 7.993482
v 0.454486 -1.324608 8.916755
v 3.257966 -5.944616 4.313189
v -5.597279 -2.006287 5.268706
v -5.597279 -2.006287 5.268706
v -1.524987 6.257258 8.949000
v 0.454486 -1.324608 8.916755
v 7.330258 2.318929 7.993482
v -3.216085 -3.129973 9.910325
v -2.295699 3.251958 4.597548
v 1.749584 0.919805 8.331366
v 4.760277 -4.891764 9.175815
v 5.680662 1.490169 3.863037
v 1.749584 0.919805 8.331366
v 4.760277 -4.891764 9.175815
v -2.295699 3.251958 4.597548
v 7.279008 4.614258 12.465281
v 0.213829 2.901726 9.788875
v 2.875627 -3.944574 12.249704
v 1.882226 7.583046 4.833417
v -2.521155 -0.975785 4.617840
v 6.572405 3.889763 8.701214
v 1.092065 2.108594 9.758981
v 4.317889 -2.557529 11.224220
v 0.027387 4.867571 5.351384
v -2.227130 -1.579720 7.874390
v -2.846146 5.049555 10.279989
v 2.324247 6.264232 5.896898
v 1.155882 2.041857 8.152923
v -3.061857 -1.391784 8.240456
v 2.108536 -0.177107 3.857366
v 2.402033 5.473058 5.373702
v 5.846181 -0.338964 10.526839
v -0.734085 0.508856 8.875938
v -0.768415 -5.684842 8.918365
v -4.212564 0.127180 3.765226
v 3.518907 -3.670539 17.221468
v 1.178100 -0.141233 15.914341
v 0.005936 -2.613728 12.975736
v 4.980926 1.638902 17.333355
v 1.467955 2.695712 13.087624
v -4.297298 -1.925653 17.127516
v 0.566478 -0.918438 16.899471
v -0.823464 2.547603 14.380417
v 0.425437 -5.882684 16.656181
v 3.899271 -1.409429 13.909081
v 0.816635 4.598924 18.373501
v 0.618274 -1.009684 15.548134
v 4.484400 1.355677 12.104334
v -5.378106 0.012709 17.121878
v -1.710342 -3.230536 10.852711
v -2.689086 -1.831179 14.870955
v 1.105598 1.641471 12.801588
v -2.887304 3.701358 10.555668
v 3.713348 -3.251257 12.756212
v 3.515129 2.281281 8.440928
v 2.389475 -4.864041 9.748738
v 0.248811 0.209150 11.238725
v -3.610502 -1.197461 8.102824
v 5.839612 1.243155 10.776610
v -0.160366 4.909736 9.130696
v 5.540709 2.899666 10.509287
v 0.417821 0.187454 11.946042
v 2.416994 -3.786502 8.866730
v -1.217989 5.884161 11.213928
v -4.341703 -0.802008 9.571370
v 3.588724 5.852751 5.842423
v 1.444534 0.117782 10.832053
v 6.884518 -3.387041 7.778569
v -5.463687 3.190709 8.547881
v -2.167892 -6.049084 10.484028
v 2.098014 -6.735904 14.018570
v -1.256529 -0.166866 11.609875
v -3.963863 -4.362649 6.662137
v 5.799222 2.166874 13.840806
v -0.262656 4.540130 6.484373
v 4.094179 3.447780 10.809042
v 0.404937 -1.551242 10.931036
v 4.995130 -4.144929 8.957126
v -3.415093 2.981685 9.066753
v -2.514141 -4.611024 7.214839
v 1.317224 3.367673 7.897021
v -0.418461 -0.145351 11.436666
v 2.081833 -3.217833 8.754665
v -4.563523 3.062088 10.793379
v -3.798913 -3.523418 11.651024
v -6.710252 -0.412289 13.118625
v 0.617147 0.382438 10.527622
v -2.055313 6.077563 7.284477
v -0.501727 -7.347686 10.357399
v 4.153213 -0.857833 4.523253
v 3.387441 1.879594 12.126555
v -0.391024 -1.173633 14.074339
v 1.477476 -4.386364 11.129937
v -2.720726 3.495739 13.671469
v -4.630691 -2.770219 12.674850
v 4.318996 -1.909034 9.670600
v -0.700516 -0.564954 13.949116
v -3.251552 -5.448665 11.336163
v 1.348628 5.549716 12.020492
v -6.221920 2.010084 13.686056
v 3.460184 4.379959 10.305223
v -0.730244 0.041177 10.468239
v 3.047239 -2.795733 7.717458
v -3.976713 5.055949 9.617493
v -4.389658 -2.119742 7.029727
v 5.536870 -1.379970 8.313929
v -1.480363 -0.037688 11.144124
v -3.442466 -4.368860 6.058994
v 1.964142 6.810422 11.684558
v -7.015195 3.821532 9.429624
v -0.208140 7.369169 9.807202
v 0.647524 0.890452 12.910433
v 5.060600 0.066685 8.135452
v -6.481353 2.021407 13.396265
v -1.212613 -5.281077 11.724515
v 3.516829 6.248013 13.702971
v 0.510149 1.451661 13.300702
v 3.827383 0.422067 9.509995
v -3.444930 5.367126 14.411300
v -3.134375 -0.458821 10.218321
v 0.150489 6.831642 5.747924
v 5.207411 -0.455747 7.098090
v -0.895678 0.535307 8.828394
v -7.070167 1.790617 5.583787
v -2.013244 -5.496772 6.933953
v -5.589645 4.620270 13.641914
v 0.832148 0.938368 16.180464
v 3.910942 7.175469 14.808670
v -2.922137 -4.610211 12.135878
v 6.578450 -2.055011 13.302633
v -4.440405 6.107827 11.262687
v 1.483730 3.551647 11.821100
v 2.751652 7.339958 7.524127
v -2.410504 -1.557489 12.641422
v 4.781552 -0.325356 8.902862
v 6.734125 3.780624 10.485066
v 3.520397 -3.196966 6.437572
v 0.429684 1.307596 9.398372
v -0.416080 8.082680 8.745925
v -3.629809 1.105090 4.698432
v 7.666610 1.233367 13.540833
v 0.910389 0.404288 13.774674
v 2.079802 -4.152500 9.782035
v 1.650517 7.171952 13.973509
v -3.936291 1.786084 10.214710
v -3.465436 3.075205 13.319965
v 1.982851 2.466628 13.695727
v 1.995181 5.593735 9.822273
v 0.082236 -2.571152 14.792927
v 5.542852 -0.052622 11.295236
v 5.377328 6.162098 15.215273
v 1.824815 -0.852892 14.686115
v 7.444910 -2.423571 10.572227
v -4.199362 4.226045 14.530746
v -2.131779 -4.359624 9.887700
v 6.317974 6.255533 11.506575
v 2.617643 -0.581038 13.213993
v 7.129116 -3.249505 8.262540
v -3.266135 4.773459 13.452636
v -2.454992 -4.731578 10.208601
v 5.489168 -3.539948 10.229773
v 1.712031 1.758341 12.350224
v -2.953558 -2.273698 11.706571
v 6.388431 4.696407 8.308689
v -2.054295 5.962656 9.785489
v 4.903207 -2.493324 7.701394
v -1.911294 -1.261659 4.682153
v 0.517544 1.429969 8.692249
v 5.455610 4.706315 9.391615
v -1.358891 5.937979 6.372374
v 4.372734 -6.824018 13.612452
v -0.080115 -0.933843 16.233120
v -4.786522 -3.576925 11.623446
v 7.079313 2.235705 15.939004
v -2.079943 5.482799 13.950000
v -4.452913 3.072209 13.477154
v 2.283609 -0.022995 15.379144
v 4.708498 4.386194 10.608734
v -2.496264 -5.997465 15.571774
v 6.665147 -4.683478 12.703354
v 6.046771 5.296948 9.856282
v 1.920320 -0.370611 12.434955
v 7.852942 -3.626309 12.414240
v -2.567215 2.851276 7.407047
v -0.761045 -6.071983 9.965005
v 0.343881 -6.717300 11.450153
v 1.451863 -1.155840 12.925673
v -2.887908 -0.194267 10.023676
v 6.795350 -3.391743 12.041075
v 3.563561 3.131290 10.614596
v 2.253161 -5.062733 16.144453
v 0.840299 -0.448399 13.985953
v -3.016510 -2.932725 12.610924
v 6.057116 -0.622365 13.148137
v 0.787445 1.507641 9.614606
v -2.747347 2.490527 12.282194
v 3.394752 -1.039486 9.750793
v 4.877406 5.108889 7.211392
v -2.018509 -6.192882 8.894349
v 5.606243 -3.574519 3.823547
v 5.127301 -4.357741 4.817122
v -2.847976 -3.916085 6.887455
v 1.447997 -0.021151 8.001164
v 5.503534 3.728985 4.541320
v -2.471744 4.170643 6.611654
v 5.190861 -5.788114 12.379425
v -0.509390 -3.057873 12.888761
v -2.215960 -7.673143 9.924641
v 3.375608 1.869652 11.976187
v -4.031213 -0.015379 9.521400
v 4.841820 1.977152 12.997398
v 1.570588 -2.921434 13.706548
v 5.002380 -4.951666 10.102238
v -2.455986 1.431732 13.898000
v -2.295427 -5.497087 11.002841
v 2.390825 -5.929688 11.803694
v 0.332305 -2.035705 15.187684
v -3.947226 -3.029563 12.734245
v 5.378901 -0.083058 13.934272
v -0.959150 2.817068 14.864822
v 0.497591 -6.734466 4.543419
v -5.174135 -0.994147 6.719589
v 0.643737 -1.171488 8.095478
v 6.386370 -1.029131 4.841694
v 0.714643 4.711188 7.017865
v -2.225590 3.117270 6.515035
v 5.170109 -0.797994 5.057331
v 0.716130 -2.441133 8.853333
v -5.738115 -4.211815 8.379424
v 1.657584 -8.127080 6.921720
v -5.772007 0.229863 5.463983
v 0.171468 3.161291 3.086699
v -0.469798 0.240677 7.141673
v -2.119169 -4.966052 8.189409
v 3.824308 -2.034623 5.812125
v -2.527104 -7.811733 15.177777
v -2.137943 -0.460250 14.703677
v -5.842538 -1.424355 9.225392
v 4.586510 -2.349076 17.077406
v 1.271075 4.038301 11.125023
v -5.021985 3.728336 12.542937
v -0.982401 -0.179609 16.143391
v 3.170548 3.937290 14.603567
v -4.926302 -4.553748 13.002357
v 3.266230 -4.344793 15.062987
v 0.122608 3.654001 11.517082
v -1.409508 -2.628879 11.712179
v 2.557565 -3.003511 7.413549
v -7.096443 0.304939 12.666904
v -4.661485 -6.352571 8.563371
v -5.920505 -3.734165 7.971086
v -3.119286 2.576865 5.659704
v -0.857688 -1.079411 8.603665
v 0.623080 -6.609465 8.050651
v 3.424298 -0.298434 5.739268
v 5.089507 3.947913 14.990408
v -1.257905 -0.064471 16.210974
v 2.241538 -5.022136 12.943127
v -3.887564 6.888725 14.593384
v -6.735533 -2.081323 12.546103
v 1.563230 -2.599793 9.478056
v -2.602811 -0.456398 12.018251
v -5.013159 -4.052631 9.880836
v 0.210449 3.804352 10.490435
v -6.365941 2.351514 10.893215
v 0.752233 -2.930375 10.836634
v -1.925636 1.713580 12.997716
v -6.224533 -1.150731 12.140877
v 2.333324 4.004251 9.832012
v -4.643442 5.783895 11.136254
v -2.379185 -4.065786 13.072226
v -2.012022 1.204712 13.556138
v -6.688354 1.049316 12.456470
v 2.570483 -0.117460 11.232428
v -1.738685 4.997642 10.616671
v 4.968362 3.620854 4.447855
v 2.232004 -4.329678 6.676561
v -0.206750 1.177065 8.250031
v -3.038482 6.534554 5.011353
v -5.774840 -1.415978 7.240058
v 6.819741 3.004827 6.384132
v 1.838181 -3.573105 6.820722
v 0.695494 2.006945 8.408330
v 0.364528 7.833876 5.486534
v -4.617033 1.255945 5.923123
v 3.354879 -4.214014 16.104071
v -0.796809 1.931765 16.457043
v -5.798287 -2.344611 15.061815
v 5.425600 4.281708 13.156875
v -3.727568 6.151112 12.114621
v 4.407630 3.043945 12.757897
v -2.299639 1.421460 11.824695
v 0.056487 -2.634508 7.606143
v -2.448675 8.324514 12.728260
v -6.799819 2.646062 7.576506
v -0.068997 -7.698129 16.128103
v -0.544069 -1.209791 14.265498
v -4.825530 -3.386348 10.455471
v 6.098108 -2.047707 15.251850
v 1.341575 2.264073 9.579217
vn -0.728664 0.254810 -0.635705
vn -0.646908 0.733334 -0.209121
vn -0.394261 0.918694 0.023667
vn -0.397286 0.569360 -0.719717
vn -0.343862 0.590319 -0.730262
vn 0.519899 0.481618 -0.705514
vn 0.610657 0.670539 -0.421279
vn 0.221116 -0.937887 -0.267350
vn -0.978486 0.070320 0.193958
vn 0.803838 0.392613 -0.446878
vn -0.557585 -0.619493 -0.552565
vn -0.773655 -0.183418 0.606478
vn 0.436157 0.884745 0.164297
vn 0.510390 -0.705044 -0.492356
vn -0.796419 -0.554014 -0.242455
vn 0.286873 -0.717139 -0.635150
vn -0.412188 -0.652265 -0.636123
vn -0.592661 -0.449949 -0.668056
vn -0.777821 0.599531 0.188566
vn 0.943256 -0.249923 -0.218646
vn -0.182026 -0.982383 -0.042301
vn 0.503328 0.531994 -0.680913
vn 0.620395 -0.667886 0.411143
vn -0.788611 -0.460495 0.407476
vn 0.622836 -0.426873 -0.655633
vn 0.184124 -0.758018 -0.625705
vn -0.202538 -0.772854 -0.601394
vn -0.640219 0.357076 -0.680159
vn 0.963900 -0.020009 -0.265510
vn 0.218175 -0.669823 0.709745
vn -0.565139 -0.317823 -0.761319
vn 0.534531 0.809384 -0.243257
vn 0.330865 -0.842952 0.424217
vn -0.763478 -0.515631 -0.388879
vn 0.076115 0.910308 -0.406873
vn 0.952466 -0.295019 0.075982
vn 0.534954 -0.733955 0.418491
vn -0.418628 -0.161989 -0.893594
vn 0.073310 0.994680 -0.072367
vn 0.835826 -0.495197 0.237012
vn -0.643621 -0.456535 -0.614271
vn 0.457627 0.883394 -0.100960
vn 0.296383 0.798899 -0.523371
vn 0.387057 0.683813 -0.618536
vn 0.324520 -0.027322 -0.945484
vn -0.559717 0.016928 -0.828511
vn -0.511344 0.354416 -0.782890
vn 0.317809 0.724080 -0.612132
vn 0.001480 -0.659916 0.751338
vn 0.337144 0.619090 0.709268
vn 0.195284 -0.023325 0.980469
vn -0.394324 0.918665 0.023746
vn 0.621704 0.770203 0.142377
vn -0.646952 0.733293 -0.209127
vn 0.379826 -0.258477 -0.888213
vn -0.728740 0.254835 -0.635607
vn -0.822197 -0.237657 -0.517215
vn -0.397293 0.569371 -0.719705
vn -0.343842 0.590314 -0.730275
vn 0.311545 -0.810526 -0.495971
vn 0.519881 0.481618 -0.705527
vn 0.221191 -0.937853 -0.267407
vn -0.978473 0.070367 0.194007
vn -0.890796 -0.409513 -0.196930
vn -0.716154 0.639206 -0.280248
vn 0.610613 0.670550 -0.421324
vn -0.236958 0.841038 0.486319
vn -0.773674 -0.183414 0.606455
vn 0.803843 0.392571 -0.446906
vn -0.971440 0.082240 0.222578
vn -0.557548 -0.619556 -0.552530
vn 0.088019 0.920641 -0.380359
vn 0.809404 -0.543318 -0.222869
vn -0.494837 -0.815178 -0.301032
vn -0.799182 0.021734 -0.600695
vn -0.234244 -0.836524 -0.495336
vn -0.494869 -0.815202 -0.300915
vn -0.799153 0.021608 -0.600739
vn 0.809457 -0.543236 -0.222875
vn -0.343042 -0.794855 -0.500527
vn -0.730208 -0.248011 -0.636621
vn -0.577813 0.035585 -0.815393
vn 0.151062 0.747015 -0.647417
vn 0.151112 0.747016 -0.647404
vn 0.646258 -0.760024 -0.068659
vn -0.730167 -0.248092 -0.636637
vn -0.343077 -0.794879 -0.500465
vn -0.815328 0.506711 -0.280151
vn -0.796441 -0.553984 -0.242451
vn 0.436243 0.884710 0.164258
vn -0.589401 -0.463325 -0.661767
vn 0.510456 -0.705001 -0.492350
vn -0.978447 -0.153564 0.138054
vn -0.834629 -0.285182 0.471238
vn -0.561193 0.809262 -0.173663
vn -0.382675 -0.918858 -0.096229
vn 0.610573 -0.221295 -0.760413
vn -0.382690 -0.918856 -0.096184
vn -0.834655 -0.285192 0.471186
vn -0.561278 0.809223 -0.173568
vn -0.766544 0.175450 -0.617761
vn 0.486925 0.825807 -0.284513
vn -0.264818 -0.887692 -0.376662
vn 0.738987 -0.618475 -0.267184
vn 0.739024 -0.618436 -0.267172
vn -0.264728 -0.887740 -0.376613
vn -0.300008 -0.770092 -0.562987
vn -0.766522 0.175467 -0.617782
vn 0.855414 0.200257 -0.477665
vn 0.286811 -0.717212 -0.635096
vn -0.412154 -0.652272 -0.636136
vn -0.658762 0.546646 -0.516924
vn -0.592609 -0.450063 -0.668025
vn 0.943279 -0.249842 -0.218641
vn -0.182164 -0.982358 -0.042307
vn 0.129331 -0.857356 -0.498211
vn -0.742990 -0.572087 -0.347393
vn -0.777807 0.599540 0.188597
vn 0.620361 -0.667948 0.411093
vn -0.788518 -0.460587 0.407552
vn -0.443188 -0.877265 0.184363
vn -0.821421 -0.151314 -0.549884
vn 0.503379 0.531885 -0.680961
vn -0.156752 -0.987607 0.007830
vn -0.209039 -0.977504 0.028071
vn -0.769834 -0.426192 -0.475096
vn 0.720849 -0.692693 -0.023522
vn 0.373466 0.280426 -0.884243
vn 0.720796 -0.692749 -0.023490
vn -0.209054 -0.977498 0.028177
vn -0.769842 -0.426229 -0.475050
vn 0.433448 0.656004 -0.617884
vn 0.622803 -0.426942 -0.655619
vn 0.184170 -0.758019 -0.625690
vn -0.862830 -0.002395 -0.505489
vn -0.202472 -0.772899 -0.601359
vn -0.961351 -0.201317 0.187819
vn 0.255993 0.284636 -0.923824
vn 0.828778 -0.507122 -0.236545
vn 0.118245 -0.971768 0.204169
vn 0.653020 -0.563669 -0.505808
vn 0.828802 -0.507081 -0.236550
vn 0.118315 -0.971765 0.204144
vn 0.256001 0.284697 -0.923802
vn 0.332992 -0.915611 -0.225328
vn 0.068868 -0.996754 -0.041688
vn -0.583559 -0.580075 -0.568306
vn 0.988469 -0.143564 -0.048142
vn -0.112542 0.796968 -0.593445
vn 0.988470 -0.143578 -0.048083
vn 0.068835 -0.996753 -0.041789
vn -0.583567 -0.580107 -0.568266
vn 0.963888 -0.019983 -0.265557
vn 0.218195 -0.669802 0.709758
vn 0.501111 -0.824798 0.261907
vn -0.542635 -0.813404 0.209572
vn -0.640161 0.357110 -0.680196
vn 0.534509 0.809392 -0.243280
vn 0.330811 -0.842928 0.424307
vn 0.930788 -0.244955 0.271351
vn 0.215996 -0.974114 -0.066684
vn -0.565154 -0.317866 -0.761290
vn 0.147747 0.888085 -0.435288
vn 0.976320 -0.045761 0.211436
vn 0.960459 0.090498 -0.263305
vn 0.472101 -0.873986 -0.115190
vn 0.472196 -0.873931 -0.115221
vn -0.900944 -0.298738 -0.314731
vn 0.976289 -0.045793 0.211573
vn 0.147689 0.888096 -0.435286
vn 0.485686 -0.829029 -0.277164
vn 0.952429 -0.295123 0.076033
vn -0.763497 -0.515572 -0.388920
vn 0.947770 0.092909 -0.305124
vn 0.075999 0.910307 -0.406898
vn 0.922530 0.291843 -0.252520
vn 0.256693 -0.748142 -0.611875
vn 0.368116 -0.671838 -0.642747
vn -0.736605 -0.264026 -0.622659
vn -0.736639 -0.264036 -0.622614
vn -0.233683 0.958885 -0.161033
vn 0.256631 -0.748180 -0.611855
vn 0.922525 0.291902 -0.252469
vn -0.716443 -0.697359 -0.019967
vn -0.342094 0.484645 -0.805041
vn 0.676300 0.355601 -0.645109
vn 0.692387 -0.711502 -0.119854
vn 0.668787 0.175321 -0.722486
vn 0.676378 0.355601 -0.645028
vn 0.692327 -0.711567 -0.119813
vn -0.342089 0.484582 -0.805081
vn 0.812066 0.514683 0.275046
vn 0.073323 0.994686 -0.072277
vn 0.534932 -0.733966 0.418498
vn 0.200990 0.809557 -0.551561
vn -0.418571 -0.162019 -0.893615
vn 0.848426 0.502054 -0.167675
vn 0.457530 0.883449 -0.100918
vn 0.835861 -0.495154 0.236978
vn 0.004000 0.723113 -0.690718
vn -0.643626 -0.456553 -0.614251
vn -0.490444 0.870135 0.048265
vn 0.296435 0.798948 -0.523267
vn 0.387050 0.683805 -0.618549
vn -0.806641 -0.366660 -0.463562
vn 0.324542 -0.027231 -0.945479
vn 0.317824 0.724150 -0.612041
vn 0.994304 -0.057667 0.089634
vn -0.511254 0.354392 -0.782960
vn -0.131616 -0.973838 -0.185246
vn -0.559772 0.016931 -0.828474
vn 0.398388 -0.415590 0.817663
vn 0.195296 -0.023444 0.980464
vn 0.001518 -0.659948 0.751310
vn 0.552463 0.181813 0.813467
vn 0.337189 0.619160 0.709186
vn -0.503057 -0.225442 0.834332
vn 0.081117 -0.131512 0.987990
vn -0.160397 0.496233 0.853244
vn 0.047862 -0.661494 0.748421
vn 0.684275 -0.247340 0.685996
vn 0.085197 0.479645 0.873317
vn 0.108917 -0.177966 0.977990
vn 0.873165 0.264018 0.409729
vn -0.602617 0.001396 0.798029
vn -0.455729 -0.860640 0.227179
vn -0.459136 -0.312565 0.831563
vn 0.322313 0.478582 0.816746
vn -0.610787 0.783028 0.117499
vn 0.656892 -0.575127 0.487568
vn 0.786176 0.510222 -0.348714
vn 0.440441 -0.896585 -0.046327
vn 0.194292 0.163361 0.967245
vn -0.849378 -0.281656 -0.446349
vn 0.969908 0.206482 0.129007
vn -0.032196 0.984168 -0.174290
vn 0.883125 0.462058 0.081195
vn 0.208960 0.093775 0.973418
vn 0.521725 -0.817310 -0.244556
vn -0.198675 0.959842 0.198069
vn -0.978753 -0.180866 -0.096594
vn 0.447109 0.729207 -0.518026
vn 0.864392 0.070470 0.497856
vn 0.861874 -0.424075 -0.278090
vn -0.841610 0.491565 -0.223732
vn -0.336437 -0.938709 0.075066
vn 0.258356 -0.829648 0.494911
vn -0.613262 -0.081428 0.785671
vn -0.585195 -0.644037 -0.492711
vn 0.795992 0.297373 0.527225
vn -0.045625 0.789889 -0.611550
vn 0.756285 0.636945 0.149446
vn 0.218403 -0.836738 0.502164
vn 0.759796 -0.630515 -0.158622
vn -0.737798 0.644206 -0.201627
vn -0.422988 -0.775628 -0.468489
vn 0.314887 0.805042 -0.502747
vn -0.278388 -0.096703 0.955588
vn 0.516629 -0.798494 -0.309035
vn -0.821865 0.551479 0.142860
vn -0.698607 -0.647881 0.303644
vn -0.905477 -0.055595 0.420737
vn 0.687618 0.426093 0.587899
vn -0.294998 0.872363 -0.389820
vn -0.068084 -0.996503 0.048436
vn 0.599568 -0.123838 -0.790685
vn 0.766515 0.425361 0.481168
vn -0.091811 -0.275613 0.956874
vn 0.310119 -0.920659 0.237095
vn -0.472873 0.607645 0.638090
vn -0.768901 -0.459980 0.444084
vn 0.912402 -0.403335 -0.069600
vn -0.172904 -0.139454 0.975016
vn -0.501459 -0.840283 0.206065
vn 0.222673 0.916070 0.333515
vn -0.828931 0.267795 0.491080
vn 0.619018 0.783482 0.054527
vn -0.840874 0.047426 0.539150
vn 0.645113 -0.591861 -0.483249
vn -0.617115 0.784626 -0.059420
vn -0.769009 -0.371265 -0.520372
vn 0.930513 -0.231977 -0.283428
vn -0.791065 -0.020089 0.611402
vn -0.504961 -0.640896 -0.578158
vn 0.269570 0.934809 0.231221
vn -0.875894 0.477220 -0.071209
vn -0.028153 0.999263 -0.026113
vn 0.208131 0.286129 0.935314
vn 0.938275 0.012322 -0.345670
vn -0.853764 0.266299 0.447405
vn -0.213257 -0.928721 0.303314
vn 0.435829 0.774255 0.458892
vn 0.140136 0.398583 0.906363
vn 0.986030 0.108713 -0.126202
vn -0.444279 0.692073 0.568904
vn -0.987110 -0.144504 0.068790
vn 0.018681 0.848823 -0.528347
vn 0.870976 -0.076241 -0.485374
vn -0.570917 0.341201 -0.746751
vn -0.829233 0.209953 -0.517969
vn -0.304624 -0.831868 -0.463897
vn -0.688825 0.569336 0.448750
vn 0.131932 0.148795 0.980028
vn 0.412478 0.756761 0.507123
vn -0.498553 -0.786554 0.364387
vn 0.860797 -0.268902 0.432111
vn -0.580021 0.797717 0.164996
vn 0.348362 0.834106 0.427682
vn 0.334803 0.892854 -0.301196
vn -0.617991 -0.399359 0.677199
vn 0.972542 -0.066078 -0.223148
vn 0.870251 0.488593 0.062764
vn 0.592456 -0.538058 -0.599575
vn 0.285999 0.870521 -0.400497
vn -0.050851 0.986892 -0.153160
vn -0.556740 0.169461 -0.813218
vn 0.898317 0.144502 0.414904
vn 0.233267 0.103575 0.966881
vn 0.447392 -0.893111 -0.046826
vn 0.197275 0.857535 0.475095
vn -0.909544 0.412635 0.049623
vn -0.608010 0.539566 0.582402
vn 0.407511 0.506929 0.759577
vn 0.335786 0.941461 -0.029971
vn 0.015103 -0.472705 0.881091
vn 0.973731 -0.009263 0.227513
vn 0.554442 0.635250 0.537635
vn 0.357768 -0.167228 0.918715
vn 0.948364 -0.308692 0.072902
vn -0.561103 0.564598 0.605304
vn -0.439202 -0.898090 -0.023165
vn 0.700608 0.693699 0.167123
vn 0.625393 -0.138837 0.767859
vn 0.888326 -0.404971 -0.216507
vn -0.484936 0.708588 0.512581
vn -0.460192 -0.886958 0.039104
vn 0.839917 -0.541572 0.035208
vn 0.503863 0.517453 0.691639
vn -0.720501 -0.554592 0.416302
vn 0.787973 0.579297 -0.208598
vn -0.325604 0.944896 -0.033965
vn 0.822465 -0.418169 -0.385598
vn -0.330052 -0.217926 -0.918463
vn 0.257987 0.712967 -0.652013
vn 0.754472 0.650917 -0.084132
vn -0.191794 0.837502 -0.511670
vn 0.492810 -0.769034 0.407094
vn -0.012736 -0.148136 0.988885
vn -0.772997 -0.577696 0.262187
vn 0.744650 0.235208 0.624639
vn -0.294185 0.775487 0.558637
vn -0.692434 0.477729 0.540658
vn 0.390747 -0.003926 0.920490
vn 0.728417 0.678637 0.094133
vn -0.291691 -0.700807 0.650988
vn 0.776567 -0.545677 0.314930
vn 0.752061 0.658850 -0.017877
vn 0.614846 -0.118649 0.779671
vn 0.874444 -0.403821 0.268843
vn -0.554341 0.615741 -0.559973
vn -0.124301 -0.992228 -0.005669
vn 0.049983 -0.976253 0.210789
vn 0.419061 -0.333644 0.844434
vn -0.997709 -0.067155 0.008229
vn 0.864099 -0.431226 0.259572
vn 0.744959 0.654614 0.128516
vn 0.272247 -0.611856 0.742640
vn 0.204997 -0.109461 0.972623
vn -0.609252 -0.592266 0.527288
vn 0.883660 -0.090747 0.459249
vn 0.451473 0.864470 -0.221050
vn -0.630980 0.571970 0.524132
vn 0.953837 -0.292049 -0.070021
vn 0.642274 0.672807 -0.367173
vn -0.305448 -0.937385 -0.167366
vn 0.617803 -0.393901 -0.680561
vn 0.603654 -0.513142 -0.610153
vn -0.494810 -0.680258 -0.540752
vn 0.586660 -0.008579 -0.809788
vn 0.639810 0.433519 -0.634590
vn -0.417933 0.705078 -0.572885
vn 0.638420 -0.711858 0.292708
vn -0.120241 -0.721678 0.681706
vn -0.277411 -0.960705 -0.009401
vn 0.778605 0.431214 0.455882
vn -0.993022 -0.003794 -0.117868
vn 0.803245 0.328014 0.497195
vn 0.315736 -0.587317 0.745231
vn 0.710595 -0.703452 0.014494
vn -0.509093 0.296790 0.807923
vn -0.379993 -0.909981 0.165953
vn 0.359894 -0.892619 0.271492
vn 0.059494 -0.364636 0.929247
vn -0.695259 -0.533567 0.481581
vn 0.807088 -0.012436 0.590300
vn -0.168188 0.493950 0.853068
vn 0.057260 -0.775722 -0.628472
vn -0.833637 -0.160163 -0.528580
vn 0.276653 -0.503516 -0.818495
vn 0.771872 -0.124425 -0.623483
vn 0.127107 0.838081 -0.530531
vn -0.429827 0.601921 -0.673008
vn 0.718406 -0.110839 -0.686737
vn 0.256560 -0.874810 -0.410955
vn -0.786048 -0.576940 -0.221965
vn 0.187320 -0.918600 -0.347973
vn -0.785865 0.031264 -0.617607
vn 0.022497 0.415772 -0.909190
vn -0.161629 0.082823 -0.983370
vn -0.372152 -0.872010 -0.317965
vn 0.634698 -0.337679 -0.695077
vn -0.260332 -0.804775 0.533445
vn -0.412188 -0.088765 0.906765
vn -0.963573 -0.234958 -0.127757
vn 0.523881 -0.268323 0.808425
vn 0.290159 0.921890 0.256761
vn -0.743804 0.552187 0.376623
vn -0.157856 -0.028819 0.987041
vn 0.463758 0.575853 0.673292
vn -0.670299 -0.619568 0.408455
vn 0.439701 -0.584930 0.681557
vn 0.030935 0.923100 0.383315
vn -0.409823 -0.764361 0.497792
vn 0.542169 -0.636755 -0.548267
vn -0.935311 0.040239 0.351530
vn -0.581956 -0.793190 -0.179380
vn -0.812363 -0.512416 -0.278382
vn -0.525628 0.434281 -0.731516
vn -0.437089 -0.550059 -0.711610
vn 0.090077 -0.955255 -0.281734
vn 0.625484 -0.054551 -0.778328
vn 0.624639 0.484551 0.612403
vn -0.198494 -0.010227 0.980049
vn 0.359374 -0.805137 0.471811
vn -0.424964 0.753172 0.502133
vn -0.898632 -0.277711 0.339613
vn 0.507873 -0.844589 -0.169514
vn -0.782775 -0.137340 0.606960
vn -0.777505 -0.628606 -0.018442
vn 0.054704 0.990299 0.127733
vn -0.930031 0.343523 0.130516
vn 0.239646 -0.933547 0.266569
vn -0.487134 0.433415 0.758190
vn -0.931482 -0.172248 0.320424
vn 0.503088 0.863477 -0.036179
vn -0.618767 0.770836 0.151459
vn -0.423041 -0.722928 0.546270
vn -0.472379 0.282805 0.834793
vn -0.928675 0.145783 0.341043
vn 0.900960 -0.041207 0.431941
vn -0.326387 0.938120 0.115766
vn 0.599799 0.437052 -0.670243
vn 0.378449 -0.734241 -0.563620
vn -0.097544 0.555481 -0.825788
vn -0.346655 0.745554 -0.569192
vn -0.880933 -0.216033 -0.421054
vn 0.823315 0.362737 -0.436549
vn 0.358745 -0.697318 -0.620523
vn 0.262004 0.756144 -0.599667
vn 0.040190 0.865793 -0.498786
vn -0.734462 0.199809 -0.648569
vn 0.412135 -0.517673 0.749773
vn -0.117406 0.284645 0.951416
vn -0.720662 -0.291402 0.629071
vn 0.714071 0.563453 0.415479
vn -0.497202 0.820503 0.282072
vn 0.731539 0.505269 0.457771
vn -0.705025 0.435796 0.559483
vn 0.015944 -0.740023 -0.672393
vn -0.269129 0.915183 0.300016
vn -0.884422 0.344172 -0.315188
vn -0.007014 -0.782308 0.622853
vn -0.121881 -0.270876 0.954867
vn -0.816108 -0.572733 0.077096
vn 0.734312 -0.246528 0.632463
vn 0.503381 0.849519 -0.157876
vt 0.500000 0.000000
vt 0.250000 0.479880
vt 0.500000 1.000000
vt 0.500000 0.000000
vt 0.750000 0.479880
vt 1.000000 0.000000
vt 1.000000 1.000000
vt 0.500000 1.000000
vt 0.750000 0.479880
vt 0.000000 1.000000
vt 0.000000 0.000000
vt 0.250000 0.479880
vt 0.000000 1.000000
vt 0.000000 0.000000
vt 0.250000 0.479880
vt 0.000000 1.000000
vt 0.250000 0.479880
vt 0.000000 0.000000
vt 0.500000 1.000000
vt 0.000000 1.000000
vt 0.250000 0.479880
vt 0.500000 0.000000
vt 0.500000 1.000000
vt 0.250000 0.479880
vt 0.500000 0.000000
vt 0.750000 0.479880
vt 1.000000 0.000000
vt 0.500000 0.000000
vt 0.500000 1.000000
vt 0.250000 0.479880
vt 0.500000 0.000000
vt 0.500000 1.000000
vt 0.250000 0.479880
vt 0.500000 0.000000
vt 1.000000 0.000000
vt 0.750000 0.479880
vt 0.000000 1.000000
vt 0.000000 0.000000
vt 0.250000 0.479880
vt 0.500000 1.000000
vt 0.500000 0.000000
vt 0.750000 0.479880
vt 0.000000 0.000000
vt 0.250000 0.479880
vt 0.500000 0.000000
vt 0.500000 0.000000
vt 0.250000 0.479880
vt 0.500000 1.000000
vt 0.500000 0.000000
vt 1.000000 0.000000
vt 0.750000 0.479880
vt 0.500000 1.000000
vt 0.000000 1.000000
vt 0.250000 0.479880
vt 0.000000 0.000000
vt 0.500000 0.000000
vt 0.500000 1.000000
vt 0.500000 0.000000
vt 0.750000 0.479880
vt 1.000000 1.000000
vt 1.000000 0.000000
vt 0.500000 1.000000
vt 0.750000 0.479880
vt 0.500000 0.000000
vt 1.000000 0.000000
vt 1.000000 1.000000
vt 0.500000 1.000000
vt 0.250000 0.479880
vt 0.000000 1.000000
vt 0.500000 0.000000
vt 0.000000 0.000000
vt 0.000000 1.000000
vt 0.000000 0.000000
vt 0.250000 0.479880
vt 0.500000 1.000000
vt 0.500000 0.000000
vt 0.250000 0.479880
vt 0.500000 1.000000
vt 0.000000 0.000000
vt 0.000000 1.000000
vt 0.250000 0.479880
vt 0.000000 0.000000
vt 0.500000 0.000000
vt 0.500000 0.000000
vt 0.500000 1.000000
vt 0.250000 0.479880
vt 0.000000 1.000000
vt 0.500000 1.000000
vt 0.250000 0.479880
vt 0.000000 1.000000
vt 0.500000 0.000000
vt 0.000000 0.000000
vt 0.000000 1.000000
vt 0.250000 0.479880
vt 0.000000 0.000000
vt 0.500000 1.000000
vt 0.500000 0.000000
vt 0.500000 1.000000
vt 0.250000 0.479880
vt 0.000000 0.000000
vt 0.000000 1.000000
vt 0.000000 0.000000
vt 0.250000 0.479880
vt 0.500000 0.000000
vt 0.500000 0.000000
vt 0.250000 0.479880
vt 0.500000 1.000000
vt 0.000000 1.000000
vt 0.500000 1.000000
vt 0.000000 1.000000
vt 0.250000 0.479880
vt 0.500000 0.000000
vt 0.000000 0.000000
vt 0.000000 1.000000
vt 0.250000 0.479880
vt 0.000000 0.000000
vt 0.500000 0.000000
vt 0.500000 1.000000
vt 0.500000 1.000000
vt 0.250000 0.479880
vt 0.000000 1.000000
vt 0.000000 0.000000
vt 0.500000 0.000000
vt 0.000000 1.000000
vt 0.250000 0.479880
vt 0.000000 0.000000
vt 0.500000 1.000000
vt 0.500000 0.000000
vt 0.500000 1.000000
vt 0.250000 0.479880
vt 0.000000 0.000000
vt 0.500000 1.000000
vt 0.500000 0.000000
vt 0.750000 0.479880
vt 1.000000 1.000000
vt 1.000000 0.000000
vt 0.000000 1.000000
vt 0.000000 0.000000
vt 0.250000 0.479880
vt 0.500000 1.000000
vt 0.500000 0.000000
vt 0.250000 0.479880
vt 0.500000 1.000000
vt 0.000000 0.000000
vt 0.500000 1.000000
vt 0.750000 0.479880
vt 0.500000 0.000000
vt 1.000000 1.000000
vt 1.000000 0.000000
vt 1.000000 1.000000
vt 0.750000 0.479880
vt 0.500000 0.000000
vt 0.500000 1.000000
vt 0.250000 0.479880
vt 0.000000 1.000000
vt 0.000000 0.000000
vt 0.500000 0.000000
vt 0.500000 1.000000
vt 0.250000 0.479880
vt 0.000000 1.000000
vt 0.000000 0.000000
vt 0.500000 0.000000
vt 0.000000 1.000000
vt 0.250000 0.479880
vt 0.000000 0.000000
vt 0.500000 0.000000
vt 0.500000 0.000000
vt 0.500000 1.000000
vt 0.250000 0.479880
vt 0.000000 1.000000
vt 0.500000 1.000000
vt 0.750000 0.479880
vt 0.500000 0.000000
vt 1.000000 1.000000
vt 1.000000 0.000000
vt 0.500000 1.000000
vt 0.750000 0.479880
vt 0.500000 0.000000
vt 1.000000 0.000000
vt 1.000000 0.000000
vt 1.000000 1.000000
vt 0.750000 0.479880
vt 0.500000 1.000000
vt 0.000000 1.000000
vt 0.000000 0.000000
vt 0.250000 0.479880
vt 0.500000 1.000000
vt 0.500000 0.000000
vt 0.250000 0.479880
vt 0.500000 1.000000
vt 0.000000 0.000000
vt 0.500000 1.000000
vt 0.250000 0.479880
vt 0.000000 1.000000
vt 0.500000 0.000000
vt 0.000000 0.000000
vt 1.000000 1.000000
vt 0.750000 0.479880
vt 0.500000 1.000000
vt 1.000000 0.000000
vt 0.500000 0.000000
vt 0.000000 1.000000
vt 0.000000 0.000000
vt 0.250000 0.479880
vt 0.500000 1.000000
vt 0.500000 0.000000
vt 0.500000 1.000000
vt 0.000000 1.000000
vt 0.250000 0.479880
vt 0.000000 0.000000
vt 0.500000 0.000000
vt 0.500000 1.000000
vt 0.750000 0.479880
vt 0.500000 0.000000
vt 1.000000 1.000000
vt 1.000000 0.000000
vt 0.000000 1.000000
vt 0.250000 0.479880
vt 0.000000 0.000000
vt 0.500000 1.000000
vt 0.500000 0.000000
vt 0.000000 1.000000
vt 0.250000 0.479880
vt 0.000000 0.000000
vt 0.500000 1.000000
vt 0.500000 0.000000
vt 0.500000 1.000000
vt 0.750000 0.479880
vt 0.500000 0.000000
vt 1.000000 1.000000
vt 1.000000 0.000000
vt 0.000000 1.000000
vt 0.250000 0.479880
vt 0.000000 0.000000
vt 0.500000 1.000000
vt 0.500000 0.000000
vt 0.500000 1.000000
vt 0.750000 0.479880
vt 0.500000 0.000000
vt 1.000000 1.000000
vt 1.000000 0.000000
vt 0.000000 1.000000
vt 0.250000 0.479880
vt 0.000000 0.000000
vt 0.500000 1.000000
vt 0.500000 0.000000
vt 0.000000 1.000000
vt 0.250000 0.479880
vt 0.000000 0.000000
vt 0.500000 1.000000
vt 0.500000 0.000000
vt 0.500000 1.000000
vt 0.750000 0.479880
vt 0.500000 0.000000
vt 1.000000 1.000000
vt 1.000000 0.000000
vt 0.000000 1.000000
vt 0.250000 0.479880
vt 0.000000 0.000000
vt 0.500000 1.000000
vt 0.500000 0.000000
vt 0.000000 1.000000
vt 0.250000 0.479880
vt 0.000000 0.000000
vt 0.500000 1.000000
vt 0.500000 0.000000
vt 0.000000 1.000000
vt 0.250000 0.479880
vt 0.000000 0.000000
vt 0.500000 1.000000
vt 0.500000 0.000000
vt 0.000000 1.000000
vt 0.250000 0.479880
vt 0.000000 0.000000
vt 0.500000 1.000000
vt 0.500000 0.000000
vt 0.500000 1.000000
vt 0.750000 0.479880
vt 0.500000 0.000000
vt 1.000000 1.000000
vt 1.000000 0.000000
vt 0.500000 1.000000
vt 0.750000 0.479880
vt 0.500000 0.000000
vt 1.000000 1.000000
vt 1.000000 0.000000
vt 0.500000 1.000000
vt 0.750000 0.479880
vt 0.500000 0.000000
vt 1.000000 1.000000
vt 1.000000 0.000000
vt 0.000000 1.000000
vt 0.250000 0.479880
vt 0.000000 0.000000
vt 0.500000 1.000000
vt 0.500000 0.000000
vt 0.000000 1.000000
vt 0.000000 0.000000
vt 0.250000 0.479880
vt 0.500000 1.000000
vt 0.500000 0.000000
vt 0.000000 1.000000
vt 0.250000 0.479880
vt 0.000000 0.000000
vt 0.500000 1.000000
vt 0.500000 0.000000
vt 0.500000 1.000000
vt 0.750000 0.479880
vt 0.500000 0.000000
vt 1.000000 1.000000
vt 1.000000 0.000000
vt 0.000000 1.000000
vt 0.000000 0.000000
vt 0.250000 0.479880
vt 0.500000 1.000000
vt 0.500000 0.000000
vt 0.000000 1.000000
vt 0.250000 0.479880
vt 0.000000 0.000000
vt 0.500000 1.000000
vt 0.500000 0.000000
vt 0.000000 1.000000
vt 0.250000 0.479880
vt 0.000000 0.000000
vt 0.500000 1.000000
vt 0.500000 0.000000
vt 0.000000 1.000000
vt 0.250000 0.479880
vt 0.000000 0.000000
vt 0.500000 1.000000
vt 0.500000 0.000000
vt 0.000000 1.000000
vt 0.250000 0.479880
vt 0.000000 0.000000
vt 0.500000 1.000000
vt 0.500000 0.000000
vt 0.000000 1.000000
vt 0.250000 0.479880
vt 0.000000 0.000000
vt 0.500000 1.000000
vt 0.500000 0.000000
vt 0.500000 1.000000
vt 0.500000 0.000000
vt 0.750000 0.479880
vt 1.000000 1.000000
vt 1.000000 0.000000
vt 0.500000 1.000000
vt 0.750000 0.479880
vt 0.500000 0.000000
vt 1.000000 1.000000
vt 1.000000 0.000000
vt 0.000000 1.000000
vt 0.250000 0.479880
vt 0.000000 0.000000
vt 0.500000 1.000000
vt 0.500000 0.000000
vt 0.500000 1.000000
vt 0.750000 0.479880
vt 0.500000 0.000000
vt 1.000000 1.000000
vt 1.000000 0.000000
vt 0.500000 1.000000
vt 0.750000 0.479880
vt 0.500000 0.000000
vt 1.000000 1.000000
vt 1.000000 0.000000
vt 0.500000 1.000000
vt 0.750000 0.479880
vt 0.500000 0.000000
vt 1.000000 1.000000
vt 1.000000 0.000000
vt 0.500000 1.000000
vt 0.750000 0.479880
vt 0.500000 0.000000
vt 1.000000 1.000000
vt 1.000000 0.000000
vt 0.000000 1.000000
vt 0.000000 0.000000
vt 0.250000 0.479880
vt 0.500000 1.000000
vt 0.500000 0.000000
vt 0.000000 1.000000
vt 0.250000 0.479880
vt 0.000000 0.000000
vt 0.500000 1.000000
vt 0.500000 0.000000
vt 0.500000 1.000000
vt 0.750000 0.479880
vt 0.500000 0.000000
vt 1.000000 1.000000
vt 1.000000 0.000000
vt 0.500000 1.000000
vt 0.750000 0.479880
vt 0.500000 0.000000
vt 1.000000 1.000000
vt 1.000000 0.000000
vt 0.000000 1.000000
vt 0.000000 0.000000
vt 0.250000 0.479880
vt 0.500000 1.000000
vt 0.500000 0.000000
vt 0.000000 1.000000
vt 0.000000 0.000000
vt 0.250000 0.479880
vt 0.500000 1.000000
vt 0.500000 0.000000
vt 0.000000 1.000000
vt 0.000000 0.000000
vt 0.250000 0.479880
vt 0.500000 1.000000
vt 0.500000 0.000000
vt 0.500000 1.000000
vt 0.750000 0.479880
vt 0.500000 0.000000
vt 1.000000 1.000000
vt 1.000000 0.000000
vt 0.000000 1.000000
vt 0.250000 0.479880
vt 0.000000 0.000000
vt 0.500000 1.000000
vt 0.500000 0.000000
vt 0.000000 1.000000
vt 0.250000 0.479880
vt 0.000000 0.000000
vt 0.500000 1.000000
vt 0.500000 0.000000
vt 0.000000 1.000000
vt 0.000000 0.000000
vt 0.250000 0.479880
vt 0.500000 1.000000
vt 0.500000 0.000000
vt 0.000000 1.000000
vt 0.250000 0.479880
vt 0.000000 0.000000
vt 0.500000 1.000000
vt 0.500000 0.000000
vt 0.000000 1.000000
vt 0.250000 0.479880
vt 0.000000 0.000000
vt 0.500000 1.000000
vt 0.500000 0.000000
vt 0.000000 1.000000
vt 0.250000 0.479880
vt 0.000000 0.000000
vt 0.500000 1.000000
vt 0.500000 0.000000
vt 0.000000 1.000000
vt 0.250000 0.479880
vt 0.000000 0.000000
vt 0.500000 1.000000
vt 0.500000 0.000000
vt 0.000000 1.000000
vt 0.000000 0.000000
vt 0.250000 0.479880
vt 0.500000 1.000000
vt 0.500000 0.000000
vt 0.000000 1.000000
vt 0.000000 0.000000
vt 0.250000 0.479880
vt 0.500000 1.000000
vt 0.500000 0.000000
vt 0.500000 1.000000
vt 0.750000 0.479880
vt 0.500000 0.000000
vt 1.000000 1.000000
vt 1.000000 0.000000
vt 0.500000 1.000000
vt 0.750000 0.479880
vt 0.500000 0.000000
vt 1.000000 1.000000
vt 1.000000 0.000000
vt 0.000000 1.000000
vt 0.250000 0.479880
vt 0.000000 0.000000
vt 0.500000 1.000000
vt 0.500000 0.000000
f 1/1/1 2/2/2 3/3/3
f 4/4/4 5/5/5 6/6/6
f 7/7/7 8/8/8 9/9/9
f 10/10/10 11/11/11 12/12/12
f 13/13/13 14/14/14 15/15/15
f 16/16/16 17/17/17 18/18/18
f 19/19/19 20/20/20 21/21/21
f 22/22/22 23/23/23 24/24/24
f 25/25/25 26/26/26 27/27/27
f 28/28/28 29/29/29 30/30/30
f 31/31/31 32/32/32 33/33/33
f 34/34/34 35/35/35 36/36/36
f 37/37/37 38/38/38 39/39/39
f 40/40/40 41/41/41 42/42/42
f 43/43/43 44/44/44 45/45/45
f 46/46/46 47/47/47 48/48/48
f 49/49/49 50/50/50 51/51/51
f 52/52/52 53/53/53 54/54/54
f 53/53/53 55/55/55 54/54/54
f 55/55/55 56/56/56 54/54/54
f 57/57/57 58/58/58 59/59/59
f 60/60/60 57/57/57 59/59/59
f 61/61/61 60/60/60 59/59/59
f 62/62/62 63/63/63 64/64/64
f 64/64/64 63/63/63 65/65/65
f 65/65/65 63/63/63 66/66/66
f 67/67/67 68/68/68 69/69/69
f 70/70/70 68/68/68 67/67/67
f 71/71/71 68/68/68 70/70/70
f 72/72/72 73/73/73 74/74/74
f 75/75/75 72/72/72 74/74/74
f 76/76/76 77/77/77 78/78/78
f 79/79/79 77/77/77 76/76/76
f 80/80/80 81/81/81 82/82/82
f 82/82/82 81/81/81 83/83/83
f 84/84/84 85/85/85 86/86/86
f 85/85/85 87/87/87 86/86/86
f 88/88/88 89/89/89 90/90/90
f 91/91/91 89/89/89 88/88/88
f 92/92/92 89/89/89 91/91/91
f 93/93/93 94/94/94 95/95/95
f 96/96/96 94/94/94 93/93/93
f 97/97/97 98/98/98 99/99/99
f 100/100/100 97/97/97 99/99/99
f 101/101/101 102/102/102 103/103/103
f 102/102/102 104/104/104 103/103/103
f 105/105/105 106/106/106 107/107/107
f 107/107/107 106/106/106 108/108/108
f 109/109/109 110/110/110 111/111/111
f 112/112/112 109/109/109 111/111/111
f 113/113/113 112/112/112 111/111/111
f 114/114/114 115/115/115 116/116/116
f 116/116/116 115/115/115 117/117/117
f 117/117/117 115/115/115 118/118/118
f 119/119/119 120/120/120 121/121/121
f 121/121/121 120/120/120 122/122/122
f 122/122/122 120/120/120 123/123/123
f 124/124/124 125/125/125 126/126/126
f 127/127/127 125/125/125 124/124/124
f 128/128/128 129/129/129 130/130/130
f 131/131/131 128/128/128 130/130/130
f 132/132/132 133/133/133 134/134/134
f 135/135/135 132/132/132 134/134/134
f 136/136/136 135/135/135 134/134/134
f 137/137/137 138/138/138 139/139/139
f 140/140/140 137/137/137 139/139/139
f 141/141/141 142/142/142 143/143/143
f 144/144/144 142/142/142 141/141/141
f 145/145/145 146/146/146 147/147/147
f 148/148/148 146/146/146 145/145/145
f 149/149/149 150/150/150 151/151/151
f 152/152/152 149/149/149 151/151/151
f 153/153/153 154/154/154 155/155/155
f 155/155/155 154/154/154 156/156/156
f 156/156/156 154/154/154 157/157/157
f 158/158/158 159/159/159 160/160/160
f 160/160/160 159/159/159 161/161/161
f 161/161/161 159/159/159 162/162/162
f 163/163/163 164/164/164 165/165/165
f 165/165/165 164/164/164 166/166/166
f 167/167/167 168/168/168 169/169/169
f 168/168/168 170/170/170 169/169/169
f 171/171/171 172/172/172 173/173/173
f 174/174/174 172/172/172 171/171/171
f 175/175/175 172/172/172 174/174/174
f 176/176/176 177/177/177 178/178/178
f 178/178/178 177/177/177 179/179/179
f 180/180/180 181/181/181 182/182/182
f 181/181/181 183/183/183 182/182/182
f 184/184/184 185/185/185 186/186/186
f 187/187/187 184/184/184 186/186/186
f 188/188/188 189/189/189 190/190/190
f 191/191/191 189/189/189 188/188/188
f 192/192/192 193/193/193 194/194/194
f 195/195/195 193/193/193 192/192/192
f 196/196/196 193/193/193 195/195/195
f 197/197/197 198/198/198 199/199/199
f 200/200/200 198/198/198 197/197/197
f 201/201/201 198/198/198 200/200/200
f 202/202/202 203/203/203 204/204/204
f 205/205/205 202/202/202 204/204/204
f 206/206/206 205/205/205 204/204/204
f 207/207/207 208/208/208 209/209/209
f 208/208/208 210/210/210 209/209/209
f 210/210/210 211/211/211 209/209/209
f 212/212/212 213/213/213 214/214/214
f 215/215/215 213/213/213 212/212/212
f 216/216/216 213/213/213 215/215/215
f 217/217/217 218/218/218 219/219/219
f 220/220/220 218/218/218 217/217/217
f 219/219/219 218/218/218 221/221/221
f 221/221/221 218/218/218 220/220/220
f 222/222/222 223/223/223 224/224/224
f 225/225/225 223/223/223 222/222/222
f 224/224/224 223/223/223 226/226/226
f 226/226/226 223/223/223 225/225/225
f 227/227/227 228/228/228 229/229/229
f 230/230/230 228/228/228 227/227/227
f 229/229/229 228/228/228 231/231/231
f 231/231/231 228/228/228 230/230/230
f 232/232/232 233/233/233 234/234/234
f 235/235/235 233/233/233 232/232/232
f 234/234/234 233/233/233 236/236/236
f 236/236/236 233/233/233 235/235/235
f 237/237/237 238/238/238 239/239/239
f 240/240/240 238/238/238 237/237/237
f 239/239/239 238/238/238 241/241/241
f 241/241/241 238/238/238 240/240/240
f 242/242/242 243/243/243 244/244/244
f 245/245/245 243/243/243 242/242/242
f 244/244/244 243/243/243 246/246/246
f 246/246/246 243/243/243 245/245/245
f 247/247/247 248/248/248 249/249/249
f 250/250/250 248/248/248 247/247/247
f 249/249/249 248/248/248 251/251/251
f 251/251/251 248/248/248 250/250/250
f 252/252/252 253/253/253 254/254/254
f 255/255/255 253/253/253 252/252/252
f 254/254/254 253/253/253 256/256/256
f 256/256/256 253/253/253 255/255/255
f 257/257/257 258/258/258 259/259/259
f 260/260/260 258/258/258 257/257/257
f 259/259/259 258/258/258 261/261/261
f 261/261/261 258/258/258 260/260/260
f 262/262/262 263/263/263 264/264/264
f 265/265/265 263/263/263 262/262/262
f 264/264/264 263/263/263 266/266/266
f 266/266/266 263/263/263 265/265/265
f 267/267/267 268/268/268 269/269/269
f 270/270/270 268/268/268 267/267/267
f 269/269/269 268/268/268 271/271/271
f 271/271/271 268/268/268 270/270/270
f 272/272/272 273/273/273 274/274/274
f 275/275/275 273/273/273 272/272/272
f 274/274/274 273/273/273 276/276/276
f 276/276/276 273/273/273 275/275/275
f 277/277/277 278/278/278 279/279/279
f 280/280/280 278/278/278 277/277/277
f 279/279/279 278/278/278 281/281/281
f 281/281/281 278/278/278 280/280/280
f 282/282/282 283/283/283 284/284/284
f 285/285/285 283/283/283 282/282/282
f 284/284/284 283/283/283 286/286/286
f 286/286/286 283/283/283 285/285/285
f 287/287/287 288/288/288 289/289/289
f 290/290/290 288/288/288 287/287/287
f 289/289/289 288/288/288 291/291/291
f 291/291/291 288/288/288 290/290/290
f 292/292/292 293/293/293 294/294/294
f 295/295/295 293/293/293 292/292/292
f 294/294/294 293/293/293 296/296/296
f 296/296/296 293/293/293 295/295/295
f 297/297/297 298/298/298 299/299/299
f 300/300/300 297/297/297 299/299/299
f 298/298/298 301/301/301 299/299/299
f 301/301/301 300/300/300 299/299/299
f 302/302/302 303/303/303 304/304/304
f 305/305/305 303/303/303 302/302/302
f 304/304/304 303/303/303 306/306/306
f 306/306/306 303/303/303 305/305/305
f 307/307/307 308/308/308 309/309/309
f 310/310/310 308/308/308 307/307/307
f 309/309/309 308/308/308 311/311/311
f 311/311/311 308/308/308 310/310/310
f 312/312/312 313/313/313 314/314/314
f 315/315/315 312/312/312 314/314/314
f 313/313/313 316/316/316 314/314/314
f 316/316/316 315/315/315 314/314/314
f 317/317/317 318/318/318 319/319/319
f 320/320/320 318/318/318 317/317/317
f 319/319/319 318/318/318 321/321/321
f 321/321/321 318/318/318 320/320/320
f 322/322/322 323/323/323 324/324/324
f 325/325/325 323/323/323 322/322/322
f 324/324/324 323/323/323 326/326/326
f 326/326/326 323/323/323 325/325/325
f 327/327/327 328/328/328 329/329/329
f 330/330/330 328/328/328 327/327/327
f 329/329/329 328/328/328 331/331/331
f 331/331/331 328/328/328 330/330/330
f 332/332/332 333/333/333 334/334/334
f 335/335/335 333/333/333 332/332/332
f 334/334/334 333/333/333 336/336/336
f 336/336/336 333/333/333 335/335/335
f 337/337/337 338/338/338 339/339/339
f 340/340/340 338/338/338 337/337/337
f 339/339/339 338/338/338 341/341/341
f 341/341/341 338/338/338 340/340/340
f 342/342/342 343/343/343 344/344/344
f 345/345/345 342/342/342 344/344/344
f 343/343/343 346/346/346 344/344/344
f 346/346/346 345/345/345 344/344/344
f 347/347/347 348/348/348 349/349/349
f 350/350/350 348/348/348 347/347/347
f 349/349/349 348/348/348 351/351/351
f 351/351/351 348/348/348 350/350/350
f 352/352/352 353/353/353 354/354/354
f 355/355/355 353/353/353 352/352/352
f 354/354/354 353/353/353 356/356/356
f 356/356/356 353/353/353 355/355/355
f 357/357/357 358/358/358 359/359/359
f 360/360/360 358/358/358 357/357/357
f 359/359/359 358/358/358 361/361/361
f 361/361/361 358/358/358 360/360/360
f 362/362/362 363/363/363 364/364/364
f 365/365/365 363/363/363 362/362/362
f 364/364/364 363/363/363 366/366/366
f 366/366/366 363/363/363 365/365/365
f 367/367/367 368/368/368 369/369/369
f 370/370/370 368/368/368 367/367/367
f 369/369/369 368/368/368 371/371/371
f 371/371/371 368/368/368 370/370/370
f 372/372/372 373/373/373 374/374/374
f 375/375/375 373/373/373 372/372/372
f 374/374/374 373/373/373 376/376/376
f 376/376/376 373/373/373 375/375/375
f 377/377/377 378/378/378 379/379/379
f 380/380/380 377/377/377 379/379/379
f 378/378/378 381/381/381 379/379/379
f 381/381/381 380/380/380 379/379/379
f 382/382/382 383/383/383 384/384/384
f 385/385/385 383/383/383 382/382/382
f 384/384/384 383/383/383 386/386/386
f 386/386/386 383/383/383 385/385/385
f 387/387/387 388/388/388 389/389/389
f 390/390/390 388/388/388 387/387/387
f 389/389/389 388/388/388 391/391/391
f 391/391/391 388/388/388 390/390/390
f 392/392/392 393/393/393 394/394/394
f 395/395/395 393/393/393 392/392/392
f 394/394/394 393/393/393 396/396/396
f 396/396/396 393/393/393 395/395/395
f 397/397/397 398/398/398 399/399/399
f 400/400/400 397/397/397 399/399/399
f 398/398/398 401/401/401 399/399/399
f 401/401/401 400/400/400 399/399/399
f 402/402/402 403/403/403 404/404/404
f 405/405/405 402/402/402 404/404/404
f 403/403/403 406/406/406 404/404/404
f 406/406/406 405/405/405 404/404/404
f 407/407/407 408/408/408 409/409/409
f 410/410/410 407/407/407 409/409/409
f 408/408/408 411/411/411 409/409/409
f 411/411/411 410/410/410 409/409/409
f 412/412/412 413/413/413 414/414/414
f 415/415/415 413/413/413 412/412/412
f 414/414/414 413/413/413 416/416/416
f 416/416/416 413/413/413 415/415/415
f 417/417/417 418/418/418 419/419/419
f 420/420/420 418/418/418 417/417/417
f 419/419/419 418/418/418 421/421/421
f 421/421/421 418/418/418 420/420/420
f 422/422/422 423/423/423 424/424/424
f 425/425/425 423/423/423 422/422/422
f 424/424/424 423/423/423 426/426/426
f 426/426/426 423/423/423 425/425/425
f 427/427/427 428/428/428 429/429/429
f 430/430/430 427/427/427 429/429/429
f 428/428/428 431/431/431 429/429/429
f 431/431/431 430/430/430 429/429/429
f 432/432/432 433/433/433 434/434/434
f 435/435/435 433/433/433 432/432/432
f 434/434/434 433/433/433 436/436/436
f 436/436/436 433/433/433 435/435/435
f 437/437/437 438/438/438 439/439/439
f 440/440/440 438/438/438 437/437/437
f 439/439/439 438/438/438 441/441/441
f 441/441/441 438/438/438 440/440/440
f 442/442/442 443/443/443 444/444/444
f 445/445/445 443/443/443 442/442/442
f 444/444/444 443/443/443 446/446/446
f 446/446/446 443/443/443 445/445/445
f 447/447/447 448/448/448 449/449/449
f 450/450/450 448/448/448 447/447/447
f 449/449/449 448/448/448 451/451/451
f 451/451/451 448/448/448 450/450/450
f 452/452/452 453/453/453 454/454/454
f 455/455/455 452/452/452 454/454/454
f 453/453/453 456/456/456 454/454/454
f 456/456/456 455/455/455 454/454/454
f 457/457/457 458/458/458 459/459/459
f 460/460/460 457/457/457 459/459/459
f 458/458/458 461/461/461 459/459/459
f 461/461/461 460/460/460 459/459/459
f 462/462/462 463/463/463 464/464/464
f 465/465/465 463/463/463 462/462/462
f 464/464/464 463/463/463 466/466/466
f 466/466/466 463/463/463 465/465/465
f 467/467/467 468/468/468 469/469/469
f 470/470/470 468/468/468 467/467/467
f 469/469/469 468/468/468 471/471/471
f 471/471/471 468/468/468 470/470/470
f 472/472/472 473/473/473 474/474/474
f 475/475/475 473/473/473 472/472/472
f 474/474/474 473/473/473 476/476/476
f 476/476/476 473/473/473 475/475/475
