v 0.100000 -0.100000 2.305000
v 0.100000 -0.100000 -0.005000
v 0.100000 0.100000 -0.005000
v 0.100000 0.100000 2.305000
v 0.100000 0.100000 2.305000
v 0.100000 0.100000 -0.005000
v -0.100000 0.100000 -0.005000
v -0.100000 0.100000 2.305000
v -0.100000 0.100000 2.305000
v -0.100000 0.100000 -0.005000
v -0.100000 -0.100000 -0.005000
v -0.100000 -0.100000 2.305000
v -0.100000 -0.100000 2.305000
v -0.100000 -0.100000 -0.005000
v 0.100000 -0.100000 -0.005000
v 0.100000 -0.100000 2.305000
v -0.100000 -0.100000 2.305000
v 0.100000 -0.100000 2.305000
v 0.100000 0.100000 2.305000
v -0.100000 0.100000 2.305000
vn 1.000000 0.000000 0.000000
vn 1.000000 0.000000 0.000000
vn 1.000000 0.000000 0.000000
vn 1.000000 0.000000 0.000000
vn 0.000000 1.000000 0.000000
vn 0.000000 1.000000 0.000000
vn 0.000000 1.000000 0.000000
vn 0.000000 1.000000 0.000000
vn -1.000000 0.000000 0.000000
vn -1.000000 0.000000 0.000000
vn -1.000000 0.000000 0.000000
vn -1.000000 0.000000 0.000000
vn 0.000000 -1.000000 0.000000
vn 0.000000 -1.000000 0.000000
vn 0.000000 -1.000000 0.000000
vn 0.000000 -1.000000 0.000000
vn 0.000000 0.000000 1.000000
vn 0.000000 0.000000 1.000000
vn 0.000000 0.000000 1.000000
vn 0.000000 0.000000 1.000000
vt 0.169461 0.540632
vt 0.169461 0.482980
vt 0.164151 0.482980
vt 0.164151 0.540632
vt 0.185393 0.540632
vt 0.185393 0.482980
vt 0.180082 0.482980
vt 0.180082 0.540632
vt 0.133615 0.535141
vt 0.133615 0.592792
vt 0.138925 0.592792
vt 0.138925 0.535141
vt 0.101087 0.592792
vt 0.101087 0.535141
vt 0.095777 0.535141
vt 0.095777 0.592792
vt 0.043335 0.546122
vt 0.038024 0.546122
vt 0.038024 0.551613
vt 0.043335 0.551613
f 1/1/1 2/2/2 3/3/3
f 1/1/1 3/3/3 4/4/4
f 5/5/5 6/6/6 7/7/7
f 5/5/5 7/7/7 8/8/8
f 9/9/9 10/10/10 11/11/11
f 9/9/9 11/11/11 12/12/12
f 13/13/13 14/14/14 15/15/15
f 13/13/13 15/15/15 16/16/16
f 17/17/17 18/18/18 19/19/19
f 17/17/17 19/19/19 20/20/20
