v 0.040773 -0.105785 0.089312
v 0.040773 -0.105785 -0.137847
v 0.040773 0.105785 -0.127213
v 0.040773 0.105785 0.089312
v 0.040773 0.105785 0.089312
v 0.040773 0.105785 -0.127213
v -0.040773 0.105785 -0.127213
v -0.040773 0.105785 0.089312
v -0.040773 0.105785 0.089312
v -0.040773 0.105785 -0.127213
v -0.040773 -0.105785 -0.137847
v -0.040773 -0.105785 0.089312
v -0.040773 -0.105785 0.089312
v -0.040773 -0.105785 -0.137847
v 0.040773 -0.105785 -0.137847
v 0.040773 -0.105785 0.089312
v 0.040773 -0.105785 -0.137847
v -0.040773 -0.105785 -0.137847
v -0.040773 0.105785 -0.127213
v 0.040773 0.105785 -0.127213
v -0.040773 -0.105785 0.089312
v 0.040773 -0.105785 0.089312
v 0.040773 0.105785 0.089312
v -0.040773 0.105785 0.089312
vn 1.000000 0.000000 0.000000
vn 1.000000 0.000000 0.000000
vn 1.000000 0.000000 0.000000
vn 1.000000 0.000000 0.000000
vn 0.000000 1.000000 0.000000
vn 0.000000 1.000000 0.000000
vn 0.000000 1.000000 0.000000
vn 0.000000 1.000000 0.000000
vn -1.000000 0.000000 0.000000
vn -1.000000 0.000000 0.000000
vn -1.000000 0.000000 0.000000
vn -1.000000 0.000000 0.000000
vn 0.000000 -1.000000 0.000000
vn 0.000000 -1.000000 0.000000
vn 0.000000 -1.000000 0.000000
vn 0.000000 -1.000000 0.000000
vn 0.000000 0.050199 -0.998739
vn 0.000000 0.050199 -0.998739
vn 0.000000 0.050199 -0.998739
vn 0.000000 0.050199 -0.998739
vn 0.000000 0.000000 1.000000
vn 0.000000 0.000000 1.000000
vn 0.000000 0.000000 1.000000
vn 0.000000 0.000000 1.000000
vt 0.481200 0.493785
vt 0.481201 0.012836
vt 0.033257 0.035350
vt 0.033257 0.493784
vt 0.948057 0.560483
vt 0.489623 0.560483
vt 0.489623 0.733137
vt 0.948057 0.733137
vt 0.948057 0.493785
vt 0.948057 0.035350
vt 0.500114 0.012836
vt 0.500114 0.493784
vt 0.970572 0.754608
vt 0.489623 0.754608
vt 0.489623 0.927262
vt 0.970572 0.927261
vt 0.033257 0.974137
vt 0.205911 0.974137
vt 0.205911 0.525628
vt 0.033257 0.525628
vt 0.226182 0.974137
vt 0.398836 0.974137
vt 0.398835 0.526193
vt 0.226182 0.526193
f 1/1/1 2/2/2 3/3/3
f 1/1/1 3/3/3 4/4/4
f 5/5/5 6/6/6 7/7/7
f 5/5/5 7/7/7 8/8/8
f 9/9/9 10/10/10 11/11/11
f 9/9/9 11/11/11 12/12/12
f 13/13/13 14/14/14 15/15/15
f 13/13/13 15/15/15 16/16/16
f 17/17/17 18/18/18 19/19/19
f 17/17/17 19/19/19 20/20/20
f 21/21/21 22/22/22 23/23/23
f 21/21/21 23/23/23 24/24/24
