v -1.250001 0.500000 2.475000
v -1.250001 0.500000 2.600000
v 1.375000 0.500000 2.600000
v -1.250001 0.500000 1.775000
v 1.250000 0.500000 1.775000
v -1.250001 0.500000 1.650000
v -1.250001 0.500000 0.950000
v 1.250000 0.500000 0.950000
v -1.250001 0.500000 0.825000
v -1.250001 0.500000 0.825000
v 1.250000 0.500000 0.825000
v 1.250001 -0.250000 0.825000
v -1.250001 0.500000 0.825000
v 1.250001 -0.250000 0.825000
v -1.249999 -0.250000 0.825000
v -1.380001 0.500000 2.600000
v -1.380001 0.500000 0.125000
v -1.380000 0.500000 0.000000
v -1.250001 0.500000 1.650000
v 1.250000 0.500000 1.650000
v 1.250001 -0.250000 1.650000
v -1.250001 0.500000 1.650000
v 1.250001 -0.250000 1.650000
v -1.249999 -0.250000 1.650000
v -1.250001 0.500000 2.475000
v 1.250000 0.500000 2.475000
v 1.250001 -0.250000 2.475000
v -1.250001 0.500000 2.475000
v 1.250001 -0.250000 2.475000
v -1.249999 -0.250000 2.475000
v 1.375000 -0.375000 0.000000
v 1.374999 0.500000 0.000000
v 1.375000 0.500000 2.600000
v 1.375001 -0.375000 2.600000
v -1.250001 0.500000 0.125000
v -1.250001 0.500000 0.825000
v -1.249999 -0.250000 0.825000
v -1.249999 -0.250000 0.125000
v 1.250000 0.500000 0.125000
v 1.375000 0.500000 2.600000
v 1.374999 0.500000 0.000000
v -1.380000 0.500000 0.000000
v -1.380001 0.500000 0.125000
v -1.250001 0.500000 0.125000
v -1.249999 -0.250000 0.125000
v 1.250001 -0.250000 0.125000
v 1.250000 0.500000 0.125000
v 1.250001 -0.250000 0.125000
v 1.250001 -0.250000 0.825000
v 1.250000 0.500000 0.825000
v 1.250000 0.500000 0.125000
v -1.249999 -0.250000 0.125000
v -1.249999 -0.250000 0.825000
v 1.250001 -0.250000 0.825000
v 1.250001 -0.250000 0.125000
v -1.250001 0.500000 0.950000
v -1.249999 -0.250000 0.950000
v 1.250001 -0.250000 0.950000
v 1.250000 0.500000 0.950000
v -1.250001 0.500000 0.950000
v -1.250001 0.500000 1.650000
v -1.249999 -0.250000 1.650000
v -1.249999 -0.250000 0.950000
v 1.250001 -0.250000 0.950000
v 1.250001 -0.250000 1.650000
v 1.250000 0.500000 1.650000
v 1.250000 0.500000 0.950000
v -1.249999 -0.250000 0.950000
v -1.249999 -0.250000 1.650000
v 1.250001 -0.250000 1.650000
v 1.250001 -0.250000 0.950000
v -1.250001 0.500000 2.600000
v -1.380001 0.500000 2.600000
v -1.379999 -0.375000 2.600000
v 1.375001 -0.375000 2.600000
v 1.375000 0.500000 2.600000
v -1.250001 0.500000 2.600000
v -1.380000 0.500000 0.000000
v -1.380000 -0.375000 0.000000
v -1.379999 -0.375000 2.600000
v -1.380001 0.500000 2.600000
v -1.250001 0.500000 1.775000
v -1.249999 -0.250000 1.775000
v 1.250001 -0.250000 1.775000
v 1.250000 0.500000 1.775000
v -1.380001 0.500000 2.600000
v -1.250001 0.500000 2.600000
v -1.250001 0.500000 2.475000
v -1.250001 0.500000 1.775000
v -1.250001 0.500000 1.650000
v -1.250001 0.500000 0.950000
v -1.250001 0.500000 0.825000
v -1.380001 0.500000 0.125000
v -1.250001 0.500000 0.125000
v 1.250000 0.500000 0.125000
v 1.250000 0.500000 2.475000
v 1.375000 0.500000 2.600000
v 1.250000 0.500000 0.825000
v 1.250000 0.500000 0.950000
v 1.250000 0.500000 1.775000
v 1.250000 0.500000 1.650000
v -1.250001 0.500000 1.775000
v -1.250001 0.500000 2.475000
v -1.249999 -0.250000 2.475000
v -1.249999 -0.250000 1.775000
v 1.250001 -0.250000 1.775000
v 1.250001 -0.250000 2.475000
v 1.250000 0.500000 2.475000
v 1.250000 0.500000 1.775000
v -1.249999 -0.250000 1.775000
v -1.249999 -0.250000 2.475000
v 1.250001 -0.250000 2.475000
v 1.250001 -0.250000 1.775000
v 1.375001 -0.375000 2.600000
v -1.379999 -0.375000 2.600000
v -1.380000 -0.375000 0.000000
v 1.375000 -0.375000 0.000000
v 1.375000 -0.375000 0.000000
v -1.380000 -0.375000 0.000000
v -1.380000 0.500000 0.000000
v 1.374999 0.500000 0.000000
vn 0.000000 1.000000 0.000000
vn 0.000000 1.000000 0.000000
vn 0.000000 1.000000 0.000000
vn 0.000000 1.000000 0.000000
vn 0.000000 1.000000 0.000000
vn 0.000000 1.000000 0.000000
vn 0.000000 1.000000 0.000000
vn 0.000000 1.000000 0.000000
vn 0.000000 1.000000 0.000000
vn 0.000000 0.000000 -1.000000
vn 0.000000 0.000000 -1.000000
vn 0.000000 0.000000 -1.000000
vn 0.000000 0.000000 -1.000000
vn 0.000000 0.000000 -1.000000
vn 0.000000 0.000000 -1.000000
vn 0.000000 1.000000 0.000000
vn 0.000000 1.000000 0.000000
vn 0.000000 1.000000 0.000000
vn 0.000000 0.000000 -1.000000
vn 0.000000 0.000000 -1.000000
vn 0.000000 0.000000 -1.000000
vn 0.000000 0.000000 -1.000000
vn 0.000000 0.000000 -1.000000
vn 0.000000 0.000000 -1.000000
vn 0.000000 0.000000 -1.000000
vn 0.000000 0.000000 -1.000000
vn 0.000000 0.000000 -1.000000
vn 0.000000 0.000000 -1.000000
vn 0.000000 0.000000 -1.000000
vn 0.000000 0.000000 -1.000000
vn 1.000000 0.000000 0.000000
vn 1.000000 0.000000 0.000000
vn 1.000000 0.000000 0.000000
vn 1.000000 0.000000 0.000000
vn 1.000000 0.000000 0.000000
vn 1.000000 0.000000 0.000000
vn 1.000000 0.000000 0.000000
vn 1.000000 0.000000 0.000000
vn 0.000000 1.000000 0.000000
vn 0.000000 1.000000 0.000000
vn 0.000000 1.000000 0.000000
vn 0.000000 1.000000 0.000000
vn 0.000000 1.000000 0.000000
vn 0.000000 0.000000 1.000000
vn 0.000000 0.000000 1.000000
vn 0.000000 0.000000 1.000000
vn 0.000000 0.000000 1.000000
vn -1.000000 0.000000 0.000000
vn -1.000000 0.000000 0.000000
vn -1.000000 0.000000 0.000000
vn -1.000000 0.000000 0.000000
vn 0.000000 1.000000 0.000000
vn 0.000000 1.000000 0.000000
vn 0.000000 1.000000 0.000000
vn 0.000000 1.000000 0.000000
vn 0.000000 0.000000 1.000000
vn 0.000000 0.000000 1.000000
vn 0.000000 0.000000 1.000000
vn 0.000000 0.000000 1.000000
vn 1.000000 0.000000 0.000000
vn 1.000000 0.000000 0.000000
vn 1.000000 0.000000 0.000000
vn 1.000000 0.000000 0.000000
vn -1.000000 0.000000 0.000000
vn -1.000000 0.000000 0.000000
vn -1.000000 0.000000 0.000000
vn -1.000000 0.000000 0.000000
vn 0.000000 1.000000 0.000000
vn 0.000000 1.000000 0.000000
vn 0.000000 1.000000 0.000000
vn 0.000000 1.000000 0.000000
vn 0.000000 0.000000 1.000000
vn 0.000000 0.000000 1.000000
vn 0.000000 0.000000 1.000000
vn 0.000000 0.000000 1.000000
vn 0.000000 0.000000 1.000000
vn 0.000000 0.000000 1.000000
vn -1.000000 0.000000 0.000000
vn -1.000000 0.000000 0.000000
vn -1.000000 0.000000 0.000000
vn -1.000000 0.000000 0.000000
vn 0.000000 0.000000 1.000000
vn 0.000000 0.000000 1.000000
vn 0.000000 0.000000 1.000000
vn 0.000000 0.000000 1.000000
vn 0.000000 1.000000 0.000000
vn 0.000000 1.000000 0.000000
vn 0.000000 1.000000 0.000000
vn 0.000000 1.000000 0.000000
vn 0.000000 1.000000 0.000000
vn 0.000000 1.000000 0.000000
vn 0.000000 1.000000 0.000000
vn 0.000000 1.000000 0.000000
vn 0.000000 1.000000 0.000000
vn 0.000000 1.000000 0.000000
vn 0.000000 1.000000 0.000000
vn 0.000000 1.000000 0.000000
vn 0.000000 1.000000 0.000000
vn 0.000000 1.000000 0.000000
vn 0.000000 1.000000 0.000000
vn 0.000000 1.000000 0.000000
vn 1.000000 0.000000 0.000000
vn 1.000000 0.000000 0.000000
vn 1.000000 0.000000 0.000000
vn 1.000000 0.000000 0.000000
vn -1.000000 0.000000 0.000000
vn -1.000000 0.000000 0.000000
vn -1.000000 0.000000 0.000000
vn -1.000000 0.000000 0.000000
vn 0.000000 1.000000 0.000000
vn 0.000000 1.000000 0.000000
vn 0.000000 1.000000 0.000000
vn 0.000000 1.000000 0.000000
vn 0.000000 -1.000000 0.000000
vn 0.000000 -1.000000 0.000000
vn 0.000000 -1.000000 0.000000
vn 0.000000 -1.000000 0.000000
vn 0.000000 0.000000 -1.000000
vn 0.000000 0.000000 -1.000000
vn 0.000000 0.000000 -1.000000
vn 0.000000 0.000000 -1.000000
vt 0.279950 0.597083
vt 0.302870 0.580063
vt 0.279950 0.605593
vt 0.302870 0.580063
vt 0.279950 0.601338
vt 0.279950 0.597083
vt 0.302870 0.580063
vt 0.279950 0.601338
vt 0.279950 0.597083
vt 0.696965 0.447542
vt 0.742919 0.486348
vt 0.754266 0.486348
vt 0.696965 0.447542
vt 0.754266 0.486348
vt 0.754266 0.490603
vt 0.257030 0.537173
vt 0.257030 0.537173
vt 0.257030 0.571213
vt 0.696965 0.447542
vt 0.696965 0.447542
vt 0.754266 0.486348
vt 0.696965 0.447542
vt 0.754266 0.486348
vt 0.754266 0.490603
vt 0.696965 0.447542
vt 0.696965 0.447542
vt 0.754266 0.486348
vt 0.696965 0.447542
vt 0.754266 0.486348
vt 0.754266 0.490603
vt 0.302870 0.537173
vt 0.302870 0.571213
vt 0.325563 0.571213
vt 0.325563 0.537173
vt 0.742919 0.490603
vt 0.742919 0.490603
vt 0.754266 0.490603
vt 0.754266 0.490603
vt 0.279950 0.601338
vt 0.279950 0.605593
vt 0.302643 0.605593
vt 0.302643 0.588573
vt 0.279950 0.588573
vt 0.742919 0.490603
vt 0.754266 0.490603
vt 0.754266 0.486348
vt 0.742919 0.486348
vt 0.754266 0.486348
vt 0.754266 0.486348
vt 0.742919 0.486348
vt 0.742919 0.486348
vt 0.754266 0.490603
vt 0.754266 0.490603
vt 0.754266 0.486348
vt 0.754266 0.486348
vt 0.742919 0.490603
vt 0.754266 0.490603
vt 0.754266 0.486348
vt 0.696965 0.447542
vt 0.742919 0.490603
vt 0.742919 0.490603
vt 0.754266 0.490603
vt 0.754266 0.490603
vt 0.754266 0.486348
vt 0.754266 0.486348
vt 0.696965 0.447542
vt 0.696965 0.447542
vt 0.754266 0.490603
vt 0.754266 0.490603
vt 0.754266 0.486348
vt 0.754266 0.486348
vt 0.302870 0.580063
vt 0.302870 0.588573
vt 0.325563 0.588573
vt 0.325563 0.571553
vt 0.302870 0.571553
vt 0.302870 0.580063
vt 0.257030 0.571213
vt 0.279723 0.571213
vt 0.279723 0.537173
vt 0.257030 0.537173
vt 0.742919 0.490603
vt 0.754266 0.490603
vt 0.754266 0.486348
vt 0.696965 0.447542
vt 0.279950 0.588573
vt 0.279950 0.597083
vt 0.279950 0.597083
vt 0.279950 0.597083
vt 0.279950 0.597083
vt 0.279950 0.597083
vt 0.279950 0.597083
vt 0.279950 0.588573
vt 0.279950 0.597083
vt 0.279950 0.601338
vt 0.279950 0.601338
vt 0.279950 0.605593
vt 0.279950 0.601338
vt 0.279950 0.601338
vt 0.279950 0.601338
vt 0.279950 0.601338
vt 0.742919 0.490603
vt 0.742919 0.490603
vt 0.754266 0.490603
vt 0.754266 0.490603
vt 0.754266 0.486348
vt 0.754266 0.486348
vt 0.696965 0.447542
vt 0.696965 0.447542
vt 0.754266 0.490603
vt 0.754266 0.490603
vt 0.754266 0.486348
vt 0.754266 0.486348
vt 0.302643 0.537173
vt 0.291297 0.537173
vt 0.291297 0.571213
vt 0.302643 0.571213
vt 0.279723 0.605593
vt 0.279723 0.588573
vt 0.257030 0.588573
vt 0.257030 0.605593
f 1/1/1 2/2/2 3/3/3
f 4/4/4 5/5/5 6/6/6
f 7/7/7 8/8/8 9/9/9
f 10/10/10 11/11/11 12/12/12
f 13/13/13 14/14/14 15/15/15
f 16/16/16 17/17/17 18/18/18
f 19/19/19 20/20/20 21/21/21
f 22/22/22 23/23/23 24/24/24
f 25/25/25 26/26/26 27/27/27
f 28/28/28 29/29/29 30/30/30
f 31/31/31 32/32/32 33/33/33
f 31/31/31 33/33/33 34/34/34
f 35/35/35 36/36/36 37/37/37
f 35/35/35 37/37/37 38/38/38
f 39/39/39 40/40/40 41/41/41
f 41/41/41 42/42/42 39/39/39
f 39/39/39 42/42/42 43/43/43
f 44/44/44 45/45/45 46/46/46
f 44/44/44 46/46/46 47/47/47
f 48/48/48 49/49/49 50/50/50
f 48/48/48 50/50/50 51/51/51
f 52/52/52 53/53/53 54/54/54
f 52/52/52 54/54/54 55/55/55
f 56/56/56 57/57/57 58/58/58
f 56/56/56 58/58/58 59/59/59
f 60/60/60 61/61/61 62/62/62
f 60/60/60 62/62/62 63/63/63
f 64/64/64 65/65/65 66/66/66
f 64/64/64 66/66/66 67/67/67
f 68/68/68 69/69/69 70/70/70
f 68/68/68 70/70/70 71/71/71
f 72/72/72 73/73/73 74/74/74
f 75/75/75 76/76/76 72/72/72
f 74/74/74 75/75/75 77/77/77
f 78/78/78 79/79/79 80/80/80
f 80/80/80 81/81/81 78/78/78
f 82/82/82 83/83/83 84/84/84
f 82/82/82 84/84/84 85/85/85
f 86/86/86 87/87/87 88/88/88
f 86/86/86 88/88/88 89/89/89
f 86/86/86 89/89/89 90/90/90
f 86/86/86 90/90/90 91/91/91
f 86/86/86 91/91/91 92/92/92
f 93/93/93 86/86/86 92/92/92
f 92/92/92 94/94/94 93/93/93
f 93/93/93 94/94/94 95/95/95
f 96/96/96 88/88/88 97/97/97
f 95/95/95 98/98/98 97/97/97
f 98/98/98 92/92/92 99/99/99
f 98/98/98 99/99/99 97/97/97
f 100/100/100 96/96/96 97/97/97
f 101/101/101 90/90/90 100/100/100
f 99/99/99 101/101/101 97/97/97
f 101/101/101 100/100/100 97/97/97
f 102/102/102 103/103/103 104/104/104
f 102/102/102 104/104/104 105/105/105
f 106/106/106 107/107/107 108/108/108
f 106/106/106 108/108/108 109/109/109
f 110/110/110 111/111/111 112/112/112
f 110/110/110 112/112/112 113/113/113
f 114/114/114 115/115/115 116/116/116
f 114/114/114 116/116/116 117/117/117
f 118/118/118 119/119/119 120/120/120
f 118/118/118 120/120/120 121/121/121
