v -2.125000 -0.125000 4.380529
v -2.125000 -0.125000 0.134062
v -1.875000 -0.125000 0.134062
v -1.875000 -0.125000 4.134062
v 1.875000 -0.125003 4.134062
v 2.125000 -0.125003 4.380529
v 2.125000 -0.125003 0.134062
v 1.875000 -0.125003 0.134062
v -2.104907 0.100000 1.214215
v -2.104907 0.100000 1.014215
v -2.304907 0.100000 1.014215
v -2.304907 0.100000 1.214215
v -2.304907 0.100000 1.214215
v -2.304907 0.100000 1.014215
v -2.304907 -0.100000 1.014215
v -2.304907 -0.100000 1.214215
v -2.304907 -0.100000 1.214215
v -2.304907 -0.100000 1.014215
v -2.104907 -0.100000 1.014215
v -2.104907 -0.100000 1.214215
v -2.104907 -0.100000 1.014215
v -2.304907 -0.100000 1.014215
v -2.304907 0.100000 1.014215
v -2.104907 0.100000 1.014215
v -2.304907 -0.100000 1.214215
v -2.104907 -0.100000 1.214215
v -2.104907 0.100000 1.214215
v -2.304907 0.100000 1.214215
v -1.978578 -0.231205 1.594522
v -1.978578 -0.231205 0.905478
v -1.978578 0.231205 0.905478
v -1.978578 0.231205 1.594522
v -1.978578 0.231205 1.594522
v -1.978578 0.231205 0.905478
v -2.228578 0.231205 0.905478
v -2.228578 0.231205 1.594522
v -2.228578 0.231205 1.594522
v -2.228578 0.231205 0.905478
v -2.228578 -0.231205 0.905478
v -2.228578 -0.231205 1.594522
v -2.228578 -0.231205 1.594522
v -2.228578 -0.231205 0.905478
v -1.978578 -0.231205 0.905478
v -1.978578 -0.231205 1.594522
v -1.978578 -0.231205 0.905478
v -2.228578 -0.231205 0.905478
v -2.228578 0.231205 0.905478
v -1.978578 0.231205 0.905478
v -2.228578 -0.231205 1.594522
v -1.978578 -0.231205 1.594522
v -1.978578 0.231205 1.594522
v -2.228578 0.231205 1.594522
v -2.104907 0.100000 1.513328
v -2.104907 0.100000 1.313328
v -2.304907 0.100000 1.313328
v -2.304907 0.100000 1.513328
v -2.304907 0.100000 1.513328
v -2.304907 0.100000 1.313328
v -2.304907 -0.100000 1.313328
v -2.304907 -0.100000 1.513328
v -2.304907 -0.100000 1.513328
v -2.304907 -0.100000 1.313328
v -2.104907 -0.100000 1.313328
v -2.104907 -0.100000 1.513328
v -2.104907 -0.100000 1.313328
v -2.304907 -0.100000 1.313328
v -2.304907 0.100000 1.313328
v -2.104907 0.100000 1.313328
v -2.304907 -0.100000 1.513328
v -2.104907 -0.100000 1.513328
v -2.104907 0.100000 1.513328
v -2.304907 0.100000 1.513328
v 2.125000 0.124997 4.380529
v 2.125000 0.124997 0.134062
v 1.875000 0.124997 0.134062
v 1.875000 0.124997 4.134062
v -1.875000 0.125000 4.134062
v -2.125000 0.125000 4.380529
v -2.125000 0.125000 0.134062
v -1.875000 0.125000 0.134062
v 2.124998 -1.884883 -0.115938
v 2.124998 -1.884883 0.134062
v -2.125001 -1.884880 0.134062
v -2.125001 -1.884880 -0.115938
v -1.875000 -0.125000 4.134062
v -1.875000 0.125000 4.134062
v 1.875000 0.124997 4.134062
v 1.875000 -0.125003 4.134062
v -2.125000 0.125000 4.380529
v -2.125000 0.125000 0.134062
v -2.125000 -0.125000 4.380529
v -2.125000 -0.125000 0.134062
v -2.124999 1.884880 -0.115938
v -2.124999 1.884880 0.134062
v -2.125001 -1.884880 0.134062
v -2.125001 -1.884880 -0.115938
v -1.875000 0.125000 4.134062
v -1.875000 -0.125000 4.134062
v -1.875000 -0.125000 0.134062
v -1.875000 0.125000 0.134062
v -1.874998 1.658379 -0.115938
v -1.874998 1.658379 0.134062
v -1.875001 -1.658380 -0.115938
v -1.875001 -1.658380 0.134062
v 2.125000 0.124997 4.380529
v 2.125000 -0.125003 4.380529
v 2.125000 -0.125003 0.134062
v 2.125000 0.124997 0.134062
v 2.125002 1.884877 -0.115938
v 2.125002 1.884877 0.134062
v 2.124998 -1.884883 -0.115938
v 2.124998 -1.884883 0.134062
v 1.875002 1.658377 -0.115938
v 1.874998 -1.658382 -0.115938
v 1.874998 -1.658382 0.134062
v 1.875000 -0.125003 0.134062
v 1.875000 0.124997 0.134062
v 1.875002 1.658377 0.134062
v 1.875000 -0.125003 4.134062
v 1.875000 0.124997 4.134062
v -2.125000 0.125000 4.380529
v -2.125000 -0.125000 4.380529
v 2.125000 -0.125003 4.380529
v 2.125000 0.124997 4.380529
v 2.125002 1.884877 0.134062
v 2.125002 1.884877 -0.115938
v -2.124999 1.884880 -0.115938
v -2.124999 1.884880 0.134062
v -2.124999 1.884880 0.134062
v -2.125000 0.125000 0.134062
v -1.875000 0.125000 0.134062
v -1.874998 1.658379 0.134062
v 2.125002 1.884877 0.134062
v 1.875002 1.658377 0.134062
v 2.125000 0.124997 0.134062
v 1.875000 0.124997 0.134062
v 1.874998 -1.658382 -0.115938
v -1.875001 -1.658380 -0.115938
v -1.875001 -1.658380 0.134062
v 1.874998 -1.658382 0.134062
v -1.875000 -0.125000 0.134062
v -2.125000 -0.125000 0.134062
v -1.875001 -1.658380 0.134062
v -2.125001 -1.884880 0.134062
v 2.124998 -1.884883 0.134062
v 1.874998 -1.658382 0.134062
v 1.875000 -0.125003 0.134062
v 2.125000 -0.125003 0.134062
v 1.875002 1.658377 0.134062
v -1.874998 1.658379 0.134062
v -1.874998 1.658379 -0.115938
v 1.875002 1.658377 -0.115938
vn 0.000000 -1.000000 0.000000
vn 0.000000 -1.000000 0.000000
vn 0.000000 -1.000000 0.000000
vn 0.000000 -1.000000 0.000000
vn 0.000000 -1.000000 0.000000
vn 0.000000 -1.000000 0.000000
vn 0.000000 -1.000000 0.000000
vn 0.000000 -1.000000 0.000000
vn 0.000000 1.000000 0.000000
vn 0.000000 1.000000 0.000000
vn 0.000000 1.000000 0.000000
vn 0.000000 1.000000 0.000000
vn -1.000000 0.000000 0.000000
vn -1.000000 0.000000 0.000000
vn -1.000000 0.000000 0.000000
vn -1.000000 0.000000 0.000000
vn 0.000000 -1.000000 0.000000
vn 0.000000 -1.000000 0.000000
vn 0.000000 -1.000000 0.000000
vn 0.000000 -1.000000 0.000000
vn 0.000000 0.000000 -1.000000
vn 0.000000 0.000000 -1.000000
vn 0.000000 0.000000 -1.000000
vn 0.000000 0.000000 -1.000000
vn 0.000000 0.000000 1.000000
vn 0.000000 0.000000 1.000000
vn 0.000000 0.000000 1.000000
vn 0.000000 0.000000 1.000000
vn 1.000000 0.000000 0.000000
vn 1.000000 0.000000 0.000000
vn 1.000000 0.000000 0.000000
vn 1.000000 0.000000 0.000000
vn 0.000000 1.000000 0.000000
vn 0.000000 1.000000 0.000000
vn 0.000000 1.000000 0.000000
vn 0.000000 1.000000 0.000000
vn -1.000000 0.000000 0.000000
vn -1.000000 0.000000 0.000000
vn -1.000000 0.000000 0.000000
vn -1.000000 0.000000 0.000000
vn 0.000000 -1.000000 0.000000
vn 0.000000 -1.000000 0.000000
vn 0.000000 -1.000000 0.000000
vn 0.000000 -1.000000 0.000000
vn 0.000000 0.000000 -1.000000
vn 0.000000 0.000000 -1.000000
vn 0.000000 0.000000 -1.000000
vn 0.000000 0.000000 -1.000000
vn 0.000000 0.000000 1.000000
vn 0.000000 0.000000 1.000000
vn 0.000000 0.000000 1.000000
vn 0.000000 0.000000 1.000000
vn 0.000000 1.000000 0.000000
vn 0.000000 1.000000 0.000000
vn 0.000000 1.000000 0.000000
vn 0.000000 1.000000 0.000000
vn -1.000000 0.000000 0.000000
vn -1.000000 0.000000 0.000000
vn -1.000000 0.000000 0.000000
vn -1.000000 0.000000 0.000000
vn 0.000000 -1.000000 0.000000
vn 0.000000 -1.000000 0.000000
vn 0.000000 -1.000000 0.000000
vn 0.000000 -1.000000 0.000000
vn 0.000000 0.000000 -1.000000
vn 0.000000 0.000000 -1.000000
vn 0.000000 0.000000 -1.000000
vn 0.000000 0.000000 -1.000000
vn 0.000000 0.000000 1.000000
vn 0.000000 0.000000 1.000000
vn 0.000000 0.000000 1.000000
vn 0.000000 0.000000 1.000000
vn 0.000000 1.000000 0.000000
vn 0.000000 1.000000 0.000000
vn 0.000000 1.000000 0.000000
vn 0.000000 1.000000 0.000000
vn 0.000000 1.000000 0.000000
vn 0.000000 1.000000 0.000000
vn 0.000000 1.000000 0.000000
vn 0.000000 1.000000 0.000000
vn 0.000000 -1.000000 0.000000
vn 0.000000 -1.000000 0.000000
vn 0.000000 -1.000000 0.000000
vn 0.000000 -1.000000 0.000000
vn 0.000000 0.000000 -1.000000
vn 0.000000 0.000000 -1.000000
vn 0.000000 0.000000 -1.000000
vn 0.000000 0.000000 -1.000000
vn -1.000000 0.000000 0.000000
vn -1.000000 0.000000 0.000000
vn -1.000000 0.000000 0.000000
vn -1.000000 0.000000 0.000000
vn -1.000000 0.000000 0.000000
vn -1.000000 0.000000 0.000000
vn -1.000000 0.000000 0.000000
vn -1.000000 0.000000 0.000000
vn 1.000000 0.000000 0.000000
vn 1.000000 0.000000 0.000000
vn 1.000000 0.000000 0.000000
vn 1.000000 0.000000 0.000000
vn 1.000000 0.000000 0.000000
vn 1.000000 0.000000 0.000000
vn 1.000000 0.000000 0.000000
vn 1.000000 0.000000 0.000000
vn 1.000000 0.000000 0.000000
vn 1.000000 0.000000 0.000000
vn 1.000000 0.000000 0.000000
vn 1.000000 0.000000 0.000000
vn 1.000000 0.000000 0.000000
vn 1.000000 0.000000 0.000000
vn 1.000000 0.000000 0.000000
vn 1.000000 0.000000 0.000000
vn -1.000000 0.000000 0.000000
vn -1.000000 0.000000 0.000000
vn -1.000000 0.000000 0.000000
vn -1.000000 0.000000 0.000000
vn -1.000000 0.000000 0.000000
vn -1.000000 0.000000 0.000000
vn -1.000000 0.000000 0.000000
vn -1.000000 0.000000 0.000000
vn 0.000000 0.000000 1.000000
vn 0.000000 0.000000 1.000000
vn 0.000000 0.000000 1.000000
vn 0.000000 0.000000 1.000000
vn 0.000000 1.000000 0.000000
vn 0.000000 1.000000 0.000000
vn 0.000000 1.000000 0.000000
vn 0.000000 1.000000 0.000000
vn 0.000000 0.000000 1.000000
vn 0.000000 0.000000 1.000000
vn 0.000000 0.000000 1.000000
vn 0.000000 0.000000 1.000000
vn 0.000000 0.000000 1.000000
vn 0.000000 0.000000 1.000000
vn 0.000000 0.000000 1.000000
vn 0.000000 0.000000 1.000000
vn 0.000000 1.000000 0.000000
vn 0.000000 1.000000 0.000000
vn 0.000000 1.000000 0.000000
vn 0.000000 1.000000 0.000000
vn 0.000000 0.000000 1.000000
vn 0.000000 0.000000 1.000000
vn 0.000000 0.000000 1.000000
vn 0.000000 0.000000 1.000000
vn 0.000000 0.000000 1.000000
vn 0.000000 0.000000 1.000000
vn 0.000000 0.000000 1.000000
vn 0.000000 0.000000 1.000000
vn 0.000000 -1.000000 0.000000
vn 0.000000 -1.000000 0.000000
vn 0.000000 -1.000000 0.000000
vn 0.000000 -1.000000 0.000000
vt 0.059459 0.510008
vt 0.101258 0.510008
vt 0.101258 0.507262
vt 0.062209 0.507262
vt 0.062209 0.466079
vt 0.059459 0.463334
vt 0.101258 0.463334
vt 0.101258 0.466079
vt 0.849355 0.080642
vt 0.849355 0.082839
vt 0.851586 0.082839
vt 0.851586 0.080642
vt 0.844892 0.082839
vt 0.847123 0.082839
vt 0.847123 0.080642
vt 0.844892 0.080642
vt 0.853817 0.082839
vt 0.853817 0.080642
vt 0.851586 0.080642
vt 0.851586 0.082839
vt 0.860511 0.082839
vt 0.862743 0.082839
vt 0.862743 0.080642
vt 0.860511 0.080642
vt 0.858280 0.080642
vt 0.856049 0.080642
vt 0.856049 0.082839
vt 0.858280 0.082839
vt 0.868146 0.768990
vt 0.868146 0.761423
vt 0.862987 0.761423
vt 0.862987 0.768990
vt 0.862987 0.768990
vt 0.862987 0.776557
vt 0.865776 0.776557
vt 0.865776 0.768990
vt 0.874254 0.768990
vt 0.874254 0.761423
vt 0.869095 0.761423
vt 0.869095 0.768990
vt 0.869095 0.768990
vt 0.869095 0.776557
vt 0.871884 0.776557
vt 0.871884 0.768990
vt 0.866306 0.774068
vt 0.869095 0.774068
vt 0.869095 0.768990
vt 0.866306 0.768990
vt 0.803063 0.773845
vt 0.800273 0.773845
vt 0.800273 0.778923
vt 0.803063 0.778923
vt 0.609100 0.236287
vt 0.609100 0.238483
vt 0.611331 0.238483
vt 0.611331 0.236287
vt 0.595712 0.236287
vt 0.593481 0.236287
vt 0.593481 0.238483
vt 0.595712 0.238483
vt 0.600175 0.238483
vt 0.602406 0.238483
vt 0.602406 0.236287
vt 0.600175 0.236287
vt 0.580772 0.292724
vt 0.583003 0.292724
vt 0.583003 0.290528
vt 0.580772 0.290528
vt 0.606869 0.236287
vt 0.604637 0.236287
vt 0.604637 0.238483
vt 0.606869 0.238483
vt 0.017661 0.510008
vt 0.059459 0.510008
vt 0.059459 0.507262
vt 0.020410 0.507262
vt 0.020410 0.466079
vt 0.017661 0.463334
vt 0.059459 0.463334
vt 0.059459 0.466079
vt 0.148894 0.463334
vt 0.146105 0.463334
vt 0.146105 0.510008
vt 0.148894 0.510008
vt 0.081883 0.553897
vt 0.079094 0.553897
vt 0.079094 0.595080
vt 0.081883 0.595080
vt 0.123681 0.507223
vt 0.123681 0.466079
vt 0.120892 0.507223
vt 0.120892 0.466079
vt 0.143316 0.463334
vt 0.143316 0.466079
vt 0.101258 0.466079
vt 0.101258 0.463334
vt 0.121414 0.510008
vt 0.118625 0.510008
vt 0.118625 0.548445
vt 0.121414 0.548445
vt 0.138522 0.551190
vt 0.138522 0.548445
vt 0.101517 0.551190
vt 0.101517 0.548445
vt 0.081883 0.510008
vt 0.079094 0.510008
vt 0.079094 0.551152
vt 0.081883 0.551152
vt 0.101517 0.553897
vt 0.101517 0.551152
vt 0.059459 0.553897
vt 0.059459 0.551152
vt 0.059459 0.510008
vt 0.022455 0.510008
vt 0.022455 0.512753
vt 0.039562 0.512753
vt 0.042351 0.512753
vt 0.059459 0.512753
vt 0.039562 0.551190
vt 0.042351 0.551190
vt 0.146105 0.463334
vt 0.143316 0.463334
vt 0.143316 0.510008
vt 0.146105 0.510008
vt 0.101517 0.553897
vt 0.098728 0.553897
vt 0.098728 0.600571
vt 0.101517 0.600571
vt 0.039824 0.597864
vt 0.059459 0.597864
vt 0.059459 0.595119
vt 0.042351 0.595119
vt 0.039824 0.551190
vt 0.042351 0.553936
vt 0.059459 0.551190
vt 0.059459 0.553936
vt 0.093150 0.553897
vt 0.093150 0.595080
vt 0.095939 0.595080
vt 0.095939 0.553897
vt 0.079094 0.556643
vt 0.079094 0.553897
vt 0.061986 0.556643
vt 0.059459 0.553897
vt 0.059459 0.600571
vt 0.061986 0.597825
vt 0.079094 0.597825
vt 0.079094 0.600571
vt 0.095939 0.553897
vt 0.095939 0.595080
vt 0.098728 0.595080
vt 0.098728 0.553897
f 1/1/1 2/2/2 3/3/3
f 3/3/3 4/4/4 1/1/1
f 4/4/4 5/5/5 1/1/1
f 6/6/6 1/1/1 5/5/5
f 7/7/7 6/6/6 5/5/5
f 5/5/5 8/8/8 7/7/7
f 9/9/9 10/10/10 11/11/11
f 9/9/9 11/11/11 12/12/12
f 13/13/13 14/14/14 15/15/15
f 13/13/13 15/15/15 16/16/16
f 17/17/17 18/18/18 19/19/19
f 17/17/17 19/19/19 20/20/20
f 21/21/21 22/22/22 23/23/23
f 21/21/21 23/23/23 24/24/24
f 25/25/25 26/26/26 27/27/27
f 25/25/25 27/27/27 28/28/28
f 29/29/29 30/30/30 31/31/31
f 29/29/29 31/31/31 32/32/32
f 33/33/33 34/34/34 35/35/35
f 33/33/33 35/35/35 36/36/36
f 37/37/37 38/38/38 39/39/39
f 37/37/37 39/39/39 40/40/40
f 41/41/41 42/42/42 43/43/43
f 41/41/41 43/43/43 44/44/44
f 45/45/45 46/46/46 47/47/47
f 45/45/45 47/47/47 48/48/48
f 49/49/49 50/50/50 51/51/51
f 49/49/49 51/51/51 52/52/52
f 53/53/53 54/54/54 55/55/55
f 53/53/53 55/55/55 56/56/56
f 57/57/57 58/58/58 59/59/59
f 57/57/57 59/59/59 60/60/60
f 61/61/61 62/62/62 63/63/63
f 61/61/61 63/63/63 64/64/64
f 65/65/65 66/66/66 67/67/67
f 65/65/65 67/67/67 68/68/68
f 69/69/69 70/70/70 71/71/71
f 69/69/69 71/71/71 72/72/72
f 73/73/73 74/74/74 75/75/75
f 75/75/75 76/76/76 73/73/73
f 76/76/76 77/77/77 73/73/73
f 78/78/78 73/73/73 77/77/77
f 79/79/79 78/78/78 77/77/77
f 77/77/77 80/80/80 79/79/79
f 81/81/81 82/82/82 83/83/83
f 81/81/81 83/83/83 84/84/84
f 85/85/85 86/86/86 87/87/87
f 85/85/85 87/87/87 88/88/88
f 89/89/89 90/90/90 91/91/91
f 92/92/92 91/91/91 90/90/90
f 92/92/92 90/90/90 93/93/93
f 90/90/90 94/94/94 93/93/93
f 95/95/95 92/92/92 93/93/93
f 93/93/93 96/96/96 95/95/95
f 97/97/97 98/98/98 99/99/99
f 100/100/100 97/97/97 99/99/99
f 101/101/101 100/100/100 99/99/99
f 101/101/101 102/102/102 100/100/100
f 103/103/103 101/101/101 99/99/99
f 99/99/99 104/104/104 103/103/103
f 105/105/105 106/106/106 107/107/107
f 108/108/108 105/105/105 107/107/107
f 109/109/109 108/108/108 107/107/107
f 109/109/109 110/110/110 108/108/108
f 111/111/111 109/109/109 107/107/107
f 107/107/107 112/112/112 111/111/111
f 113/113/113 114/114/114 115/115/115
f 115/115/115 116/116/116 113/113/113
f 116/116/116 117/117/117 113/113/113
f 117/117/117 118/118/118 113/113/113
f 116/116/116 119/119/119 117/117/117
f 120/120/120 117/117/117 119/119/119
f 121/121/121 122/122/122 123/123/123
f 121/121/121 123/123/123 124/124/124
f 125/125/125 126/126/126 127/127/127
f 125/125/125 127/127/127 128/128/128
f 129/129/129 130/130/130 131/131/131
f 131/131/131 132/132/132 129/129/129
f 132/132/132 133/133/133 129/129/129
f 132/132/132 134/134/134 133/133/133
f 134/134/134 135/135/135 133/133/133
f 135/135/135 134/134/134 136/136/136
f 137/137/137 138/138/138 139/139/139
f 137/137/137 139/139/139 140/140/140
f 141/141/141 142/142/142 143/143/143
f 143/143/143 142/142/142 144/144/144
f 144/144/144 145/145/145 143/143/143
f 145/145/145 146/146/146 143/143/143
f 145/145/145 147/147/147 146/146/146
f 145/145/145 148/148/148 147/147/147
f 149/149/149 150/150/150 151/151/151
f 149/149/149 151/151/151 152/152/152
