v -0.563031 -0.397943 0.100000
v -0.563031 -0.397943 2.400000
v 0.563031 -0.397943 2.400000
v -0.563031 -0.397943 0.100000
v 0.563031 -0.397943 2.400000
v 0.563031 -0.397942 0.100000
v 0.598681 0.197942 1.900000
v 0.598681 0.197942 1.800000
v -0.598681 0.197942 1.800000
v -0.598681 0.197942 1.900000
v 0.598681 -0.395298 1.800000
v -0.598681 -0.395298 1.800000
v -0.598681 0.197942 1.800000
v 0.598681 0.197942 1.800000
v -0.598681 -0.395298 1.900000
v 0.598681 -0.395298 1.900000
v 0.598681 0.197942 1.900000
v -0.598681 0.197942 1.900000
v -0.663031 -0.497943 0.000000
v 0.663031 -0.497942 0.000000
v 0.663031 -0.497942 2.500000
v -0.663031 -0.497943 2.500000
v -0.663031 0.297942 0.000000
v 0.663031 0.297943 0.000000
v 0.663031 -0.497942 0.000000
v -0.663031 -0.497943 0.000000
v -0.663031 0.297942 2.500000
v -0.663031 -0.497943 2.500000
v 0.663031 -0.497942 2.500000
v 0.663031 0.297942 2.500000
v -0.663031 0.297942 0.000000
v -0.663031 -0.497943 0.000000
v -0.663031 -0.497943 2.500000
v -0.663031 0.297942 2.500000
v 0.663031 0.297943 0.000000
v 0.563031 0.297943 0.100000
v 0.563031 0.297942 2.400000
v 0.663031 0.297942 2.500000
v 0.663031 -0.497942 0.000000
v 0.663031 0.297943 0.000000
v 0.663031 0.297942 2.500000
v 0.663031 -0.497942 2.500000
v 0.563031 0.297943 0.100000
v 0.563031 -0.397942 0.100000
v 0.563031 -0.397943 2.400000
v 0.563031 0.297942 2.400000
v -0.663031 0.297942 2.500000
v -0.563031 0.297942 2.400000
v -0.563031 0.297942 0.100000
v -0.663031 0.297942 0.000000
v 0.663031 0.297942 2.500000
v 0.563031 0.297942 2.400000
v -0.563031 0.297942 2.400000
v -0.663031 0.297942 2.500000
v -0.663031 0.297942 0.000000
v -0.563031 0.297942 0.100000
v 0.563031 0.297943 0.100000
v 0.663031 0.297943 0.000000
v -0.563031 0.297942 2.400000
v -0.563031 -0.397943 2.400000
v -0.563031 -0.397943 0.100000
v -0.563031 0.297942 0.100000
v 0.563031 0.297942 2.400000
v 0.563031 -0.397943 2.400000
v -0.563031 -0.397943 2.400000
v -0.563031 0.297942 2.400000
v -0.563031 0.297942 0.100000
v -0.563031 -0.397943 0.100000
v 0.563031 -0.397942 0.100000
v 0.563031 0.297943 0.100000
v 0.598681 0.197942 0.700000
v 0.598681 0.197942 0.600000
v -0.598681 0.197942 0.600000
v -0.598681 0.197942 0.700000
v 0.598681 -0.395298 0.600000
v -0.598681 -0.395298 0.600000
v -0.598681 0.197942 0.600000
v 0.598681 0.197942 0.600000
v -0.598681 -0.395298 0.700000
v 0.598681 -0.395298 0.700000
v 0.598681 0.197942 0.700000
v -0.598681 0.197942 0.700000
v 0.598681 0.197942 1.300000
v 0.598681 0.197942 1.200000
v -0.598681 0.197942 1.200000
v -0.598681 0.197942 1.300000
v 0.598681 -0.395298 1.200000
v -0.598681 -0.395298 1.200000
v -0.598681 0.197942 1.200000
v 0.598681 0.197942 1.200000
v -0.598681 -0.395298 1.300000
v 0.598681 -0.395298 1.300000
v 0.598681 0.197942 1.300000
v -0.598681 0.197942 1.300000
vn 0.000000 1.000000 0.000000
vn 0.000000 1.000000 0.000000
vn 0.000000 1.000000 0.000000
vn 0.000000 1.000000 0.000000
vn 0.000000 1.000000 0.000000
vn 0.000000 1.000000 0.000000
vn 0.000000 1.000000 0.000000
vn 0.000000 1.000000 0.000000
vn 0.000000 1.000000 0.000000
vn 0.000000 1.000000 0.000000
vn 0.000000 0.000000 -1.000000
vn 0.000000 0.000000 -1.000000
vn 0.000000 0.000000 -1.000000
vn 0.000000 0.000000 -1.000000
vn 0.000000 0.000000 1.000000
vn 0.000000 0.000000 1.000000
vn 0.000000 0.000000 1.000000
vn 0.000000 0.000000 1.000000
vn 0.000000 -1.000000 0.000000
vn 0.000000 -1.000000 0.000000
vn 0.000000 -1.000000 0.000000
vn 0.000000 -1.000000 0.000000
vn 0.000000 0.000000 -1.000000
vn 0.000000 0.000000 -1.000000
vn 0.000000 0.000000 -1.000000
vn 0.000000 0.000000 -1.000000
vn 0.000000 0.000000 1.000000
vn 0.000000 0.000000 1.000000
vn 0.000000 0.000000 1.000000
vn 0.000000 0.000000 1.000000
vn -1.000000 0.000000 0.000000
vn -1.000000 0.000000 0.000000
vn -1.000000 0.000000 0.000000
vn -1.000000 0.000000 0.000000
vn 0.000000 1.000000 0.000000
vn 0.000000 1.000000 0.000000
vn 0.000000 1.000000 0.000000
vn 0.000000 1.000000 0.000000
vn 1.000000 0.000000 0.000000
vn 1.000000 0.000000 0.000000
vn 1.000000 0.000000 0.000000
vn 1.000000 0.000000 0.000000
vn -1.000000 0.000000 0.000000
vn -1.000000 0.000000 0.000000
vn -1.000000 0.000000 0.000000
vn -1.000000 0.000000 0.000000
vn 0.000000 1.000000 0.000000
vn 0.000000 1.000000 0.000000
vn 0.000000 1.000000 0.000000
vn 0.000000 1.000000 0.000000
vn 0.000000 1.000000 0.000000
vn 0.000000 1.000000 0.000000
vn 0.000000 1.000000 0.000000
vn 0.000000 1.000000 0.000000
vn 0.000000 1.000000 0.000000
vn 0.000000 1.000000 0.000000
vn 0.000000 1.000000 0.000000
vn 0.000000 1.000000 0.000000
vn 1.000000 0.000000 0.000000
vn 1.000000 0.000000 0.000000
vn 1.000000 0.000000 0.000000
vn 1.000000 0.000000 0.000000
vn 0.000000 0.000000 -1.000000
vn 0.000000 0.000000 -1.000000
vn 0.000000 0.000000 -1.000000
vn 0.000000 0.000000 -1.000000
vn 0.000000 0.000000 1.000000
vn 0.000000 0.000000 1.000000
vn 0.000000 0.000000 1.000000
vn 0.000000 0.000000 1.000000
vn 0.000000 1.000000 0.000000
vn 0.000000 1.000000 0.000000
vn 0.000000 1.000000 0.000000
vn 0.000000 1.000000 0.000000
vn 0.000000 0.000000 -1.000000
vn 0.000000 0.000000 -1.000000
vn 0.000000 0.000000 -1.000000
vn 0.000000 0.000000 -1.000000
vn 0.000000 0.000000 1.000000
vn 0.000000 0.000000 1.000000
vn 0.000000 0.000000 1.000000
vn 0.000000 0.000000 1.000000
vn 0.000000 1.000000 0.000000
vn 0.000000 1.000000 0.000000
vn 0.000000 1.000000 0.000000
vn 0.000000 1.000000 0.000000
vn 0.000000 0.000000 -1.000000
vn 0.000000 0.000000 -1.000000
vn 0.000000 0.000000 -1.000000
vn 0.000000 0.000000 -1.000000
vn 0.000000 0.000000 1.000000
vn 0.000000 0.000000 1.000000
vn 0.000000 0.000000 1.000000
vn 0.000000 0.000000 1.000000
vt 0.359770 0.347333
vt 0.310249 0.297812
vt 0.346251 0.248291
vt 0.359770 0.347333
vt 0.346251 0.248291
vt 0.287766 0.330646
vt 0.206303 0.275651
vt 0.206303 0.302264
vt 0.232916 0.302264
vt 0.232916 0.275651
vt 0.206303 0.275651
vt 0.206303 0.302264
vt 0.232916 0.302264
vt 0.232916 0.275651
vt 0.206303 0.275651
vt 0.206303 0.302264
vt 0.232916 0.302264
vt 0.232916 0.275651
vt 0.313802 0.638170
vt 0.277800 0.638170
vt 0.277800 0.687690
vt 0.313802 0.687690
vt 0.262076 0.687690
vt 0.262076 0.720524
vt 0.268836 0.720524
vt 0.268836 0.687690
vt 0.284559 0.687690
vt 0.277800 0.687690
vt 0.277800 0.720524
vt 0.284559 0.720524
vt 0.334080 0.737211
vt 0.340840 0.737211
vt 0.340840 0.687690
vt 0.334080 0.687690
vt 0.320561 0.687690
vt 0.320561 0.687690
vt 0.320561 0.638170
vt 0.320561 0.638170
vt 0.313802 0.687690
vt 0.320561 0.687690
vt 0.320561 0.638170
vt 0.313802 0.638170
vt 0.346251 0.297812
vt 0.346251 0.297812
vt 0.346251 0.248291
vt 0.346251 0.248291
vt 0.334080 0.687690
vt 0.334080 0.687690
vt 0.334080 0.737211
vt 0.334080 0.737211
vt 0.284559 0.720524
vt 0.284559 0.720524
vt 0.284559 0.687690
vt 0.284559 0.687690
vt 0.262076 0.687690
vt 0.262076 0.687690
vt 0.262076 0.720524
vt 0.262076 0.720524
vt 0.359770 0.297812
vt 0.359770 0.297812
vt 0.359770 0.347333
vt 0.359770 0.347333
vt 0.310249 0.330646
vt 0.310249 0.330646
vt 0.310249 0.297812
vt 0.310249 0.297812
vt 0.287766 0.297812
vt 0.287766 0.297812
vt 0.287766 0.330646
vt 0.287766 0.330646
vt 0.206303 0.275651
vt 0.206303 0.302264
vt 0.232916 0.302264
vt 0.232916 0.275651
vt 0.206303 0.275651
vt 0.206303 0.302264
vt 0.232916 0.302264
vt 0.232916 0.275651
vt 0.206303 0.275651
vt 0.206303 0.302264
vt 0.232916 0.302264
vt 0.232916 0.275651
vt 0.206303 0.275651
vt 0.206303 0.302264
vt 0.232916 0.302264
vt 0.232916 0.275651
vt 0.206303 0.275651
vt 0.206303 0.302264
vt 0.232916 0.302264
vt 0.232916 0.275651
vt 0.206303 0.275651
vt 0.206303 0.302264
vt 0.232916 0.302264
vt 0.232916 0.275651
f 1/1/1 2/2/2 3/3/3
f 4/4/4 5/5/5 6/6/6
f 7/7/7 8/8/8 9/9/9
f 7/7/7 9/9/9 10/10/10
f 11/11/11 12/12/12 13/13/13
f 11/11/11 13/13/13 14/14/14
f 15/15/15 16/16/16 17/17/17
f 15/15/15 17/17/17 18/18/18
f 19/19/19 20/20/20 21/21/21
f 19/19/19 21/21/21 22/22/22
f 23/23/23 24/24/24 25/25/25
f 23/23/23 25/25/25 26/26/26
f 27/27/27 28/28/28 29/29/29
f 27/27/27 29/29/29 30/30/30
f 31/31/31 32/32/32 33/33/33
f 31/31/31 33/33/33 34/34/34
f 35/35/35 36/36/36 37/37/37
f 35/35/35 37/37/37 38/38/38
f 39/39/39 40/40/40 41/41/41
f 39/39/39 41/41/41 42/42/42
f 43/43/43 44/44/44 45/45/45
f 43/43/43 45/45/45 46/46/46
f 47/47/47 48/48/48 49/49/49
f 47/47/47 49/49/49 50/50/50
f 51/51/51 52/52/52 53/53/53
f 51/51/51 53/53/53 54/54/54
f 55/55/55 56/56/56 57/57/57
f 55/55/55 57/57/57 58/58/58
f 59/59/59 60/60/60 61/61/61
f 59/59/59 61/61/61 62/62/62
f 63/63/63 64/64/64 65/65/65
f 63/63/63 65/65/65 66/66/66
f 67/67/67 68/68/68 69/69/69
f 67/67/67 69/69/69 70/70/70
f 71/71/71 72/72/72 73/73/73
f 71/71/71 73/73/73 74/74/74
f 75/75/75 76/76/76 77/77/77
f 75/75/75 77/77/77 78/78/78
f 79/79/79 80/80/80 81/81/81
f 79/79/79 81/81/81 82/82/82
f 83/83/83 84/84/84 85/85/85
f 83/83/83 85/85/85 86/86/86
f 87/87/87 88/88/88 89/89/89
f 87/87/87 89/89/89 90/90/90
f 91/91/91 92/92/92 93/93/93
f 91/91/91 93/93/93 94/94/94
