v 0.109551 0.290127 0.043372
v 0.109551 0.290127 -0.043372
v 0.109551 0.503607 -0.043372
v 0.109551 0.503607 0.043372
v 0.109551 0.503607 0.043372
v 0.109551 0.503607 -0.043372
v -0.175836 0.492638 -0.036071
v -0.175836 0.492638 0.036071
v -0.306084 0.532684 -0.000000
v -0.175836 0.301096 0.036071
v 0.109551 0.290127 -0.043372
v 0.109551 0.290127 0.043372
v -0.175836 0.301096 -0.036071
v -0.306084 0.261051 -0.000000
v 0.109551 0.290127 -0.043372
v -0.175836 0.492638 -0.036071
v 0.109551 0.503607 -0.043372
v -0.175836 0.301096 -0.036071
v -0.306084 0.532684 -0.000000
v -0.306084 0.261051 -0.000000
v -0.175836 0.301096 0.036071
v 0.109551 0.290127 0.043372
v 0.109551 0.503607 0.043372
v -0.175836 0.492638 0.036071
v -0.306084 0.261051 -0.000000
v -0.306084 0.532684 -0.000000
v 0.028692 -0.271844 0.031586
v 0.021849 -0.546534 0.031586
v 0.021849 -0.546534 -0.031587
v 0.028692 -0.271844 -0.031587
v 0.042590 0.535301 -0.031587
v 0.042590 0.535301 0.031587
v -0.042590 0.535301 -0.031586
v -0.042590 0.535301 0.031587
v 0.042590 0.535301 0.031587
v 0.042590 0.535301 -0.031587
v -0.056023 -0.263570 -0.031587
v -0.042590 0.535301 0.031587
v -0.042590 0.535301 -0.031586
v -0.056023 -0.263570 0.031587
v -0.082422 -0.531456 0.031587
v -0.082422 -0.531456 -0.031587
v -0.056023 -0.263570 0.031587
v 0.042590 0.535301 0.031587
v -0.042590 0.535301 0.031587
v 0.028692 -0.271844 0.031586
v 0.021849 -0.546534 0.031586
v -0.082422 -0.531456 0.031587
v -0.042590 0.535301 -0.031586
v 0.042590 0.535301 -0.031587
v 0.028692 -0.271844 -0.031587
v -0.056023 -0.263570 -0.031587
v -0.082422 -0.531456 -0.031587
v 0.021849 -0.546534 -0.031587
v -0.082422 -0.531456 -0.031587
v 0.021849 -0.546534 -0.031587
v 0.021849 -0.546534 0.031586
v -0.082422 -0.531456 0.031587
vn 1.000000 0.000000 0.000000
vn 1.000000 0.000000 0.000000
vn 1.000000 0.000000 0.000000
vn 1.000000 0.000000 0.000000
vn -0.038406 0.999262 0.000000
vn -0.038406 0.999262 0.000000
vn 0.129567 0.991571 0.000000
vn 0.129567 0.991571 0.000000
vn 0.293876 0.955844 0.000000
vn 0.129567 -0.991571 0.000000
vn -0.038406 -0.999262 0.000000
vn -0.038406 -0.999262 0.000000
vn 0.129567 -0.991571 0.000000
vn 0.293876 -0.955844 0.000000
vn -0.025577 0.000000 -0.999673
vn -0.147335 0.000000 -0.989087
vn -0.025577 0.000000 -0.999673
vn -0.147335 0.000000 -0.989087
vn -0.266891 0.000000 -0.963727
vn -0.266891 0.000000 -0.963727
vn -0.147335 0.000000 0.989087
vn -0.025577 0.000000 0.999673
vn -0.025577 0.000000 0.999673
vn -0.147335 0.000000 0.989087
vn -0.266891 0.000000 0.963727
vn -0.266891 0.000000 0.963727
vn 0.999778 -0.021059 0.000000
vn 0.999690 -0.024902 0.000000
vn 0.999690 -0.024902 0.000000
vn 0.999778 -0.021059 0.000000
vn 0.999852 -0.017217 0.000000
vn 0.999852 -0.017217 0.000000
vn 0.000000 1.000000 0.000000
vn 0.000000 1.000000 0.000000
vn 0.000000 1.000000 0.000000
vn 0.000000 1.000000 0.000000
vn -0.998346 0.057489 0.000000
vn -0.999859 0.016813 0.000000
vn -0.999859 0.016813 0.000000
vn -0.998346 0.057489 0.000000
vn -0.995180 0.098070 0.000000
vn -0.995180 0.098070 0.000000
vn 0.000000 0.000000 1.000000
vn 0.000000 0.000000 1.000000
vn 0.000000 0.000000 1.000000
vn 0.000000 0.000000 1.000000
vn 0.000000 0.000000 1.000000
vn 0.000000 0.000000 1.000000
vn 0.000000 0.000000 -1.000000
vn 0.000000 0.000000 -1.000000
vn 0.000000 0.000000 -1.000000
vn 0.000000 0.000000 -1.000000
vn 0.000000 0.000000 -1.000000
vn 0.000000 0.000000 -1.000000
vn -0.143119 -0.989705 0.000000
vn -0.143119 -0.989705 0.000000
vn -0.143119 -0.989705 0.000000
vn -0.143119 -0.989705 0.000000
vt 0.136697 0.652375
vt 0.059370 0.652375
vt 0.059370 0.842678
vt 0.136697 0.842678
vt 0.163116 0.903393
vt 0.163116 0.980720
vt 0.417708 0.974211
vt 0.417708 0.909902
vt 0.539180 0.942057
vt 0.828567 0.607555
vt 0.573975 0.536736
vt 0.573975 0.614064
vt 0.828567 0.543245
vt 0.950039 0.575400
vt 0.572877 0.842678
vt 0.827364 0.662152
vt 0.572877 0.652375
vt 0.827364 0.832900
vt 0.947843 0.626455
vt 0.947843 0.868598
vt 0.417603 0.662152
vt 0.163116 0.652375
vt 0.163116 0.842678
vt 0.417603 0.832900
vt 0.538082 0.626455
vt 0.538082 0.868598
vt 0.262807 0.114210
vt 0.018321 0.110265
vt 0.017397 0.166491
vt 0.262307 0.170610
vt 0.982602 0.170672
vt 0.982603 0.114290
vt 0.905243 0.332843
vt 0.905243 0.389158
vt 0.981175 0.389158
vt 0.981175 0.332843
vt 0.267327 0.246649
vt 0.981456 0.302024
vt 0.981377 0.245689
vt 0.268961 0.303020
vt 0.029864 0.315725
vt 0.026882 0.259613
vt 0.269220 0.038641
vt 0.982603 0.114290
vt 0.981299 0.038386
vt 0.262807 0.114210
vt 0.018321 0.110265
vt 0.030882 0.017397
vt 0.981377 0.245689
vt 0.982602 0.170672
vt 0.262307 0.170610
vt 0.267327 0.246649
vt 0.026882 0.259613
vt 0.017397 0.166491
vt 0.122335 0.359946
vt 0.028418 0.359946
vt 0.028417 0.416260
vt 0.122335 0.416261
f 1/1/1 2/2/2 3/3/3
f 1/1/1 3/3/3 4/4/4
f 5/5/5 6/6/6 7/7/7
f 5/5/5 7/7/7 8/8/8
f 7/7/7 9/9/9 8/8/8
f 10/10/10 11/11/11 12/12/12
f 10/10/10 13/13/13 11/11/11
f 10/10/10 14/14/14 13/13/13
f 15/15/15 16/16/16 17/17/17
f 15/15/15 18/18/18 16/16/16
f 18/18/18 19/19/19 16/16/16
f 18/18/18 20/20/20 19/19/19
f 21/21/21 22/22/22 23/23/23
f 21/21/21 23/23/23 24/24/24
f 24/24/24 25/25/25 21/21/21
f 24/24/24 26/26/26 25/25/25
f 27/27/27 28/28/28 29/29/29
f 27/27/27 29/29/29 30/30/30
f 27/27/27 30/30/30 31/31/31
f 27/27/27 31/31/31 32/32/32
f 33/33/33 34/34/34 35/35/35
f 33/33/33 35/35/35 36/36/36
f 37/37/37 38/38/38 39/39/39
f 37/37/37 40/40/40 38/38/38
f 37/37/37 41/41/41 40/40/40
f 37/37/37 42/42/42 41/41/41
f 43/43/43 44/44/44 45/45/45
f 43/43/43 46/46/46 44/44/44
f 43/43/43 47/47/47 46/46/46
f 43/43/43 48/48/48 47/47/47
f 49/49/49 50/50/50 51/51/51
f 49/49/49 51/51/51 52/52/52
f 51/51/51 53/53/53 52/52/52
f 51/51/51 54/54/54 53/53/53
f 55/55/55 56/56/56 57/57/57
f 55/55/55 57/57/57 58/58/58
