v -1.000000 0.610363 0.000000
v 1.000000 0.610363 0.000000
v 1.000000 -0.610363 0.000000
v -1.000000 -0.610363 0.000000
v -1.000000 0.610363 1.250000
v -0.999999 -0.610363 1.250000
v 1.000000 -0.610363 1.250000
v 1.000000 0.610363 1.250000
v -1.000000 0.610363 0.000000
v -1.000000 -0.610363 0.000000
v -0.999999 -0.610363 1.250000
v -1.000000 0.610363 1.250000
v -1.000000 -0.610363 0.000000
v 1.000000 -0.610363 0.000000
v 1.000000 -0.610363 1.250000
v -0.999999 -0.610363 1.250000
v 1.000000 -0.610363 0.000000
v 1.000000 0.610363 0.000000
v 1.000000 0.610363 1.250000
v 1.000000 -0.610363 1.250000
v -1.000000 0.610363 1.250000
v 1.000000 0.610363 1.250000
v 1.000000 0.610363 0.000000
v -1.000000 0.610363 0.000000
vn 0.000000 0.000000 -1.000000
vn 0.000000 0.000000 -1.000000
vn 0.000000 0.000000 -1.000000
vn 0.000000 0.000000 -1.000000
vn 0.000000 0.000000 1.000000
vn 0.000000 0.000000 1.000000
vn 0.000000 0.000000 1.000000
vn 0.000000 0.000000 1.000000
vn -1.000000 0.000000 0.000000
vn -1.000000 0.000000 0.000000
vn -1.000000 0.000000 0.000000
vn -1.000000 0.000000 0.000000
vn 0.000000 -1.000000 0.000000
vn 0.000000 -1.000000 0.000000
vn 0.000000 -1.000000 0.000000
vn 0.000000 -1.000000 0.000000
vn 1.000000 0.000000 0.000000
vn 1.000000 0.000000 0.000000
vn 1.000000 0.000000 0.000000
vn 1.000000 0.000000 0.000000
vn 0.000000 1.000000 0.000000
vn 0.000000 1.000000 0.000000
vn 0.000000 1.000000 0.000000
vn 0.000000 1.000000 0.000000
vt 0.001650 0.502475
vt 0.001650 0.997525
vt 0.331683 0.997525
vt 0.331683 0.502475
vt 0.668317 0.997525
vt 0.998350 0.997525
vt 0.998350 0.502475
vt 0.668317 0.502475
vt 0.001650 0.497525
vt 0.331683 0.497525
vt 0.331683 0.002475
vt 0.001650 0.002475
vt 0.334984 0.497525
vt 0.665016 0.497525
vt 0.665016 0.002475
vt 0.334984 0.002475
vt 0.668317 0.002475
vt 0.668317 0.497525
vt 0.998350 0.497525
vt 0.998350 0.002475
vt 0.334984 0.502475
vt 0.334984 0.997525
vt 0.665016 0.997525
vt 0.665016 0.502475
f 1/1/1 2/2/2 3/3/3
f 1/1/1 3/3/3 4/4/4
f 5/5/5 6/6/6 7/7/7
f 5/5/5 7/7/7 8/8/8
f 9/9/9 10/10/10 11/11/11
f 9/9/9 11/11/11 12/12/12
f 13/13/13 14/14/14 15/15/15
f 13/13/13 15/15/15 16/16/16
f 17/17/17 18/18/18 19/19/19
f 17/17/17 19/19/19 20/20/20
f 21/21/21 22/22/22 23/23/23
f 21/21/21 23/23/23 24/24/24
