v -4.018352 0.000000 15.487182
v -1.241706 3.821644 15.487195
v 0.000000 0.000000 16.000000
v -5.788805 4.205807 14.310867
v 3.250895 2.361886 15.487193
v -1.241706 -3.821644 15.487195
v 3.250895 -2.361886 15.487193
v -8.411676 0.000000 13.610427
v -5.788805 -4.205807 14.310867
v -2.599289 7.999924 13.610471
v 2.211156 6.805112 14.310879
v 7.155358 0.000000 14.310865
v 6.805163 4.944182 13.610467
v 2.211157 -6.805112 14.310879
v -2.599289 -7.999924 13.610471
v 6.805163 -4.944182 13.610467
v -10.211097 4.205826 11.577761
v -7.155346 8.411651 11.577785
v 0.844633 11.010959 11.577798
v 5.788859 9.404455 11.577796
v -3.725144 11.465010 10.520308
v 10.733066 2.599313 11.577774
v 10.733066 -2.599313 11.577774
v 9.752747 7.085702 10.520302
v 4.205901 12.944186 8.411802
v -0.474228 13.826947 8.036831
v 8.511054 10.907398 8.036827
v -7.743543 11.465033 8.036827
v -4.422208 13.610388 7.155518
v -11.011030 7.999950 8.411779
v 13.003668 4.723804 8.036810
v 11.577717 8.411605 7.155512
v 13.610366 0.000000 8.411775
v 2.211176 15.216882 4.422353
v -2.483442 15.286753 4.018425
v -6.976109 13.827006 4.018433
v 7.155441 13.610380 4.422356
v 10.994537 10.907445 4.018431
v 13.771162 7.085721 4.018414
v 15.155412 2.599322 4.422334
v -10.733129 11.011026 4.422359
v 0.000000 15.999999 0.000000
v 4.944263 15.216907 -0.000008
v 9.404570 12.944267 -0.000000
v 12.944295 9.404532 -0.000000
v -4.944275 15.216903 -0.000000
v 15.216926 4.944202 0.000000
v -9.404570 12.944268 -0.000000
v -13.788867 6.805151 4.422339
v -12.944308 9.404513 0.000000
v -13.296810 3.821654 8.036778
v -12.055067 0.000000 10.520236
v -10.211097 -4.205825 11.577761
v -7.155347 -8.411651 11.577786
v -7.155449 13.610374 -4.422363
v -10.994536 10.907445 -4.018430
v -2.211185 15.216879 -4.422360
v 2.483442 15.286753 -4.018425
v 6.976109 13.827006 -4.018433
v 10.733104 11.011051 -4.422357
v 13.788850 6.805183 -4.422341
v -4.205901 12.944187 -8.411802
v 0.474228 13.826947 -8.036831
v 4.422208 13.610388 -7.155518
v 7.743543 11.465033 -8.036827
v 3.725144 11.465010 -10.520308
v 11.011030 7.999951 -8.411779
v -8.511054 10.907399 -8.036827
v -0.844626 11.010981 -11.577775
v 7.155369 8.411633 -11.577785
v -5.788856 9.404468 -11.577785
v 2.599289 7.999924 -13.610471
v -2.211149 6.805141 -14.310865
v 13.296810 3.821655 -8.036778
v 10.211116 4.205805 -11.577751
v 5.788819 4.205801 -14.310863
v 1.241706 3.821643 -15.487195
v 15.306012 2.361894 -4.018391
v 15.999999 -0.000006 0.000010
v 15.155407 -2.599326 4.422345
v 13.003668 -4.723804 8.036810
v 9.752747 -7.085702 10.520302
v 5.788859 -9.404455 11.577796
v 0.844633 -11.010959 11.577798
v -3.725144 -11.465010 10.520308
v 15.306012 -2.361894 -4.018391
v 15.216926 -4.944202 -0.000000
v 13.771162 -7.085721 4.018414
v 11.577717 -8.411605 7.155512
v 8.511054 -10.907399 8.036827
v 4.205901 -12.944187 8.411802
v 10.994536 -10.907445 4.018430
v 12.944295 -9.404532 0.000000
v 7.155452 -13.610374 4.422349
v -0.474228 -13.826947 8.036831
v 13.788851 -6.805183 -4.422341
v 9.404570 -12.944268 0.000000
v 2.211188 -15.216882 4.422348
v 10.733105 -11.011051 -4.422357
v 4.944275 -15.216903 -0.000013
v 6.976109 -13.827006 -4.018433
v -4.422208 -13.610388 7.155518
v -2.483442 -15.286753 4.018425
v 0.000000 -15.999999 -0.000000
v -7.743543 -11.465033 8.036827
v -6.976109 -13.827006 4.018433
v -11.011030 -7.999951 8.411779
v 2.483442 -15.286753 -4.018425
v -4.944275 -15.216903 0.000000
v -10.733126 -11.011036 4.422338
v -13.296810 -3.821655 8.036778
v -2.211185 -15.216879 -4.422360
v -9.404570 -12.944267 0.000000
v -13.788866 -6.805171 4.422311
v -14.310820 0.000000 7.155450
v -15.306012 -2.361894 4.018391
v -15.306012 2.361894 4.018391
v -12.944299 -9.404528 -0.000030
v -7.155450 -13.610373 -4.422363
v -15.216926 -4.944202 -0.000000
v -15.216926 4.944202 0.000000
v -16.000000 0.000000 0.000000
v -10.994537 -10.907445 -4.018431
v -13.771162 7.085721 -4.018414
v -13.771162 -7.085721 -4.018414
v -15.155412 -2.599321 -4.422337
v -15.155412 2.599321 -4.422337
v -11.577717 8.411605 -7.155512
v -13.003668 4.723804 -8.036810
v -9.752747 7.085702 -10.520302
v -13.610366 0.000000 -8.411775
v -13.003668 -4.723804 -8.036810
v -6.805163 4.944182 -13.610467
v -10.733072 2.599309 -11.577770
v -3.250895 2.361886 -15.487193
v -10.733081 -2.599324 -11.577761
v -7.155375 -0.000012 -14.310856
v -11.577717 -8.411605 -7.155512
v -9.752747 -7.085702 -10.520302
v -8.511054 -10.907398 -8.036827
v -6.805163 -4.944182 -13.610467
v -3.250895 -2.361886 -15.487193
v -4.205901 -12.944186 -8.411802
v -5.788879 -9.404467 -11.577775
v 0.474228 -13.826947 -8.036831
v -2.211179 -6.805130 -14.310866
v -0.844646 -11.010965 -11.577788
v 0.000000 0.000000 -16.000000
v 4.422208 -13.610388 -7.155518
v 1.241706 -3.821643 -15.487195
v 4.018352 0.000000 -15.487182
v 3.725144 -11.465010 -10.520308
v 7.743543 -11.465033 -8.036827
v 2.599289 -7.999924 -13.610471
v 8.411676 0.000000 -13.610427
v 5.788821 -4.205830 -14.310854
v 7.155368 -8.411658 -11.577767
v 11.011030 -7.999950 -8.411779
v 10.211113 -4.205819 -11.577748
v 12.055067 0.000000 -10.520236
v 13.296810 -3.821654 -8.036778
v 14.310820 0.000000 -7.155450
v -4.018352 0.000000 15.487182
v 0.000000 0.000000 16.000000
v -1.241706 3.821644 15.487195
v -5.788805 4.205807 14.310867
v 3.250895 2.361886 15.487193
v -1.241706 -3.821644 15.487195
v 3.250895 -2.361886 15.487193
v -8.411676 0.000000 13.610427
v -5.788805 -4.205807 14.310867
v -2.599289 7.999924 13.610471
v 2.211156 6.805112 14.310879
v 7.155358 0.000000 14.310865
v 6.805163 4.944182 13.610467
v 2.211157 -6.805112 14.310879
v -2.599289 -7.999924 13.610471
v 6.805163 -4.944182 13.610467
v -10.211097 4.205826 11.577761
v -7.155346 8.411651 11.577785
v 0.844633 11.010959 11.577798
v 5.788859 9.404455 11.577796
v -3.725144 11.465010 10.520308
v 10.733066 2.599313 11.577774
v 10.733066 -2.599313 11.577774
v 9.752747 7.085702 10.520302
v 5.788859 -9.404455 11.577796
v 9.752747 -7.085702 10.520302
v 0.844633 -11.010959 11.577798
v 4.205901 12.944186 8.411802
v -0.474228 13.826947 8.036831
v 8.511054 10.907398 8.036827
v 13.003668 4.723804 8.036810
v 13.610366 0.000000 8.411775
v 11.577717 8.411605 7.155512
v 13.003668 -4.723804 8.036810
v 7.155441 13.610380 4.422356
v 10.994537 10.907445 4.018431
v 13.771162 7.085721 4.018414
v 15.155412 2.599322 4.422334
v 15.155407 -2.599326 4.422345
v 2.211176 15.216882 4.422353
v 11.577717 -8.411605 7.155512
v 13.771162 -7.085721 4.018414
v 8.511054 -10.907399 8.036827
v 10.994536 -10.907445 4.018430
v 4.205901 -12.944187 8.411802
v 7.155452 -13.610374 4.422349
v 15.216926 -4.944202 -0.000000
v 12.944295 -9.404532 0.000000
v 9.404570 -12.944268 0.000000
v 15.999999 -0.000006 0.000010
v 15.216926 4.944202 0.000000
v 12.944295 9.404532 -0.000000
v 9.404570 12.944267 -0.000000
v 4.944263 15.216907 -0.000008
v 13.788851 -6.805183 -4.422341
v 15.306012 -2.361894 -4.018391
v 15.306012 2.361894 -4.018391
v 13.788850 6.805183 -4.422341
v 10.733104 11.011051 -4.422357
v 6.976109 13.827006 -4.018433
v 10.733105 -11.011051 -4.422357
v 14.310820 0.000000 -7.155450
v 13.296810 3.821655 -8.036778
v 11.011030 7.999951 -8.411779
v 13.296810 -3.821654 -8.036778
v 12.055067 0.000000 -10.520236
v 11.011030 -7.999950 -8.411779
v 7.743543 11.465033 -8.036827
v 10.211116 4.205805 -11.577751
v 10.211113 -4.205819 -11.577748
v 7.155369 8.411633 -11.577785
v 8.411676 0.000000 -13.610427
v 5.788819 4.205801 -14.310863
v 7.743543 -11.465033 -8.036827
v 7.155368 -8.411658 -11.577767
v 5.788821 -4.205830 -14.310854
v 4.018352 0.000000 -15.487182
v 6.976109 -13.827006 -4.018433
v 4.944275 -15.216903 -0.000013
v 2.211188 -15.216882 4.422348
v -0.474228 -13.826947 8.036831
v -3.725144 -11.465010 10.520308
v -7.155347 -8.411651 11.577786
v -10.211097 -4.205825 11.577761
v -12.055067 0.000000 10.520236
v 2.483442 -15.286753 -4.018425
v 0.000000 -15.999999 -0.000000
v -2.483442 -15.286753 4.018425
v -4.422208 -13.610388 7.155518
v -7.743543 -11.465033 8.036827
v -11.011030 -7.999951 8.411779
v -6.976109 -13.827006 4.018433
v -4.944275 -15.216903 0.000000
v -10.733126 -11.011036 4.422338
v -13.296810 -3.821655 8.036778
v -2.211185 -15.216879 -4.422360
v -9.404570 -12.944267 0.000000
v -13.788866 -6.805171 4.422311
v -7.155450 -13.610373 -4.422363
v -12.944299 -9.404528 -0.000030
v -10.994537 -10.907445 -4.018431
v -14.310820 0.000000 7.155450
v -15.306012 -2.361894 4.018391
v -15.216926 -4.944202 -0.000000
v -13.296810 3.821654 8.036778
v -15.306012 2.361894 4.018391
v -11.011030 7.999950 8.411779
v -13.771162 -7.085721 -4.018414
v -16.000000 0.000000 0.000000
v -13.788867 6.805151 4.422339
v -7.743543 11.465033 8.036827
v -15.155412 -2.599321 -4.422337
v -15.216926 4.944202 0.000000
v -10.733129 11.011026 4.422359
v -4.422208 13.610388 7.155518
v -6.976109 13.827006 4.018433
v -2.483442 15.286753 4.018425
v -12.944308 9.404513 0.000000
v -15.155412 2.599321 -4.422337
v -9.404570 12.944268 -0.000000
v 0.000000 15.999999 0.000000
v -4.944275 15.216903 -0.000000
v -13.771162 7.085721 -4.018414
v 2.483442 15.286753 -4.018425
v -10.994536 10.907445 -4.018430
v -7.155449 13.610374 -4.422363
v -2.211185 15.216879 -4.422360
v 4.422208 13.610388 -7.155518
v 0.474228 13.826947 -8.036831
v 3.725144 11.465010 -10.520308
v -4.205901 12.944187 -8.411802
v -8.511054 10.907399 -8.036827
v -0.844626 11.010981 -11.577775
v 2.599289 7.999924 -13.610471
v -5.788856 9.404468 -11.577785
v -11.577717 8.411605 -7.155512
v -2.211149 6.805141 -14.310865
v 1.241706 3.821643 -15.487195
v -9.752747 7.085702 -10.520302
v -13.003668 4.723804 -8.036810
v -6.805163 4.944182 -13.610467
v -3.250895 2.361886 -15.487193
v 0.000000 0.000000 -16.000000
v -13.610366 0.000000 -8.411775
v -10.733072 2.599309 -11.577770
v 1.241706 -3.821643 -15.487195
v -7.155375 -0.000012 -14.310856
v -3.250895 -2.361886 -15.487193
v -13.003668 -4.723804 -8.036810
v -10.733081 -2.599324 -11.577761
v 2.599289 -7.999924 -13.610471
v -6.805163 -4.944182 -13.610467
v -2.211179 -6.805130 -14.310866
v -11.577717 -8.411605 -7.155512
v -9.752747 -7.085702 -10.520302
v -8.511054 -10.907398 -8.036827
v -5.788879 -9.404467 -11.577775
v -4.205901 -12.944186 -8.411802
v -0.844646 -11.010965 -11.577788
v 0.474228 -13.826947 -8.036831
v 3.725144 -11.465010 -10.520308
v 4.422208 -13.610388 -7.155518
vn 0.253775 0.000000 -0.967263
vn 0.078420 -0.241353 -0.967264
vn 0.000000 0.000000 -1.000000
vn 0.368295 -0.267582 -0.890370
vn -0.205308 -0.149164 -0.967264
vn 0.078420 0.241353 -0.967264
vn -0.205308 0.149164 -0.967264
vn 0.525729 0.000000 -0.850652
vn 0.368295 0.267582 -0.890370
vn 0.162456 -0.499995 -0.850654
vn -0.140678 -0.432954 -0.890371
vn -0.455237 0.000000 -0.890370
vn -0.425323 -0.309012 -0.850654
vn -0.140678 0.432954 -0.890371
vn 0.162456 0.499995 -0.850654
vn -0.425323 0.309012 -0.850654
vn 0.631659 -0.267582 -0.727603
vn 0.449678 -0.518055 -0.727605
vn -0.059296 -0.683428 -0.727605
vn -0.353744 -0.587755 -0.727605
vn 0.232269 -0.714862 -0.659563
vn -0.668304 -0.154799 -0.727604
vn -0.668304 0.154799 -0.727604
vn -0.608100 -0.441805 -0.659563
vn -0.262868 -0.809012 -0.525737
vn 0.026960 -0.864028 -0.502721
vn -0.529681 -0.683162 -0.502721
vn 0.486047 -0.714863 -0.502721
vn 0.276389 -0.850649 -0.447219
vn 0.688189 -0.499998 -0.525736
vn -0.813409 -0.292641 -0.502720
vn -0.723607 -0.525726 -0.447219
vn -0.850648 0.000000 -0.525735
vn -0.146239 -0.951017 -0.272363
vn 0.153850 -0.956221 -0.248942
vn 0.437582 -0.864031 -0.248943
vn -0.440688 -0.855343 -0.272363
vn -0.686524 -0.683164 -0.248943
vn -0.861878 -0.441807 -0.248942
vn -0.949661 -0.154799 -0.272362
vn 0.677302 -0.683433 -0.272363
vn 0.000000 -1.000000 0.000000
vn -0.309004 -0.951018 -0.008995
vn -0.587786 -0.809017 0.000000
vn -0.808986 -0.587759 0.008995
vn 0.309005 -0.951018 0.008995
vn -0.951057 -0.309014 0.000000
vn 0.587786 -0.809016 0.000000
vn 0.859283 -0.432957 -0.272362
vn 0.808986 -0.587759 -0.008995
vn 0.830074 -0.241354 -0.502718
vn 0.751652 0.000000 -0.659560
vn 0.631659 0.267582 -0.727603
vn 0.449678 0.518055 -0.727605
vn 0.440689 -0.855343 0.272363
vn 0.686524 -0.683164 0.248942
vn 0.146239 -0.951017 0.272363
vn -0.153850 -0.956221 0.248942
vn -0.437581 -0.864031 0.248943
vn -0.677301 -0.683434 0.272363
vn -0.859282 -0.432958 0.272362
vn 0.262868 -0.809012 0.525737
vn -0.026960 -0.864028 0.502721
vn -0.276389 -0.850649 0.447219
vn -0.486047 -0.714863 0.502721
vn -0.232270 -0.714862 0.659563
vn -0.688189 -0.499998 0.525736
vn 0.529681 -0.683161 0.502721
vn 0.059296 -0.683429 0.727605
vn -0.449678 -0.518054 0.727605
vn 0.353744 -0.587756 0.727605
vn -0.162457 -0.499996 0.850654
vn 0.140678 -0.432955 0.890370
vn -0.830074 -0.241354 0.502718
vn -0.631660 -0.267582 0.727603
vn -0.368295 -0.267581 0.890370
vn -0.078420 -0.241353 0.967264
vn -0.956963 -0.149165 0.248940
vn -0.999960 0.000000 -0.008996
vn -0.949661 0.154800 -0.272362
vn -0.813409 0.292641 -0.502720
vn -0.608100 0.441805 -0.659563
vn -0.353744 0.587755 -0.727605
vn -0.059296 0.683428 -0.727605
vn 0.232269 0.714862 -0.659563
vn -0.956963 0.149165 0.248940
vn -0.951057 0.309014 0.000000
vn -0.861878 0.441807 -0.248942
vn -0.723607 0.525726 -0.447219
vn -0.529681 0.683162 -0.502721
vn -0.262869 0.809012 -0.525737
vn -0.686524 0.683164 -0.248942
vn -0.808986 0.587760 0.008995
vn -0.440689 0.855343 -0.272363
vn 0.026960 0.864028 -0.502721
vn -0.859282 0.432958 0.272362
vn -0.587786 0.809017 0.000000
vn -0.146239 0.951017 -0.272363
vn -0.677301 0.683434 0.272363
vn -0.309005 0.951018 -0.008995
vn -0.437581 0.864031 0.248943
vn 0.276389 0.850649 -0.447219
vn 0.153850 0.956221 -0.248942
vn 0.000000 1.000000 0.000000
vn 0.486047 0.714863 -0.502721
vn 0.437582 0.864031 -0.248943
vn 0.688189 0.499998 -0.525735
vn -0.153850 0.956221 0.248942
vn 0.309005 0.951018 0.008995
vn 0.677302 0.683433 -0.272362
vn 0.830074 0.241354 -0.502718
vn 0.146239 0.951017 0.272363
vn 0.587786 0.809016 0.000000
vn 0.859283 0.432958 -0.272361
vn 0.894426 0.000000 -0.447216
vn 0.956963 0.149165 -0.248940
vn 0.956963 -0.149165 -0.248940
vn 0.808986 0.587759 -0.008994
vn 0.440689 0.855343 0.272363
vn 0.951057 0.309014 0.000000
vn 0.951058 -0.309014 0.000000
vn 0.999960 0.000000 0.008995
vn 0.686524 0.683164 0.248943
vn 0.861878 -0.441807 0.248942
vn 0.861878 0.441807 0.248942
vn 0.949661 0.154800 0.272362
vn 0.949661 -0.154800 0.272362
vn 0.723607 -0.525726 0.447219
vn 0.813409 -0.292641 0.502720
vn 0.608099 -0.441806 0.659563
vn 0.850648 0.000000 0.525735
vn 0.813409 0.292641 0.502719
vn 0.425323 -0.309012 0.850654
vn 0.668304 -0.154799 0.727604
vn 0.205308 -0.149164 0.967263
vn 0.668304 0.154799 0.727604
vn 0.455238 0.000000 0.890370
vn 0.723607 0.525726 0.447219
vn 0.608100 0.441806 0.659563
vn 0.529681 0.683162 0.502721
vn 0.425323 0.309012 0.850653
vn 0.205308 0.149164 0.967263
vn 0.262869 0.809012 0.525737
vn 0.353744 0.587755 0.727605
vn -0.026960 0.864028 0.502721
vn 0.140679 0.432955 0.890370
vn 0.059297 0.683429 0.727605
vn 0.000000 0.000000 1.000000
vn -0.276389 0.850649 0.447220
vn -0.078420 0.241353 0.967264
vn -0.253775 0.000000 0.967263
vn -0.232269 0.714862 0.659563
vn -0.486047 0.714864 0.502721
vn -0.162456 0.499996 0.850654
vn -0.525729 0.000000 0.850652
vn -0.368295 0.267582 0.890370
vn -0.449678 0.518055 0.727604
vn -0.688189 0.499998 0.525735
vn -0.631660 0.267582 0.727603
vn -0.751652 0.000000 0.659560
vn -0.830074 0.241354 0.502718
vn -0.894426 0.000000 0.447216
vn -0.253775 0.000000 0.967263
vn 0.000000 0.000000 1.000000
vn -0.078420 0.241353 0.967264
vn -0.368295 0.267582 0.890370
vn 0.205308 0.149164 0.967264
vn -0.078420 -0.241353 0.967264
vn 0.205308 -0.149164 0.967264
vn -0.525729 0.000000 0.850652
vn -0.368295 -0.267582 0.890370
vn -0.162456 0.499995 0.850654
vn 0.140678 0.432954 0.890371
vn 0.455237 0.000000 0.890370
vn 0.425323 0.309012 0.850654
vn 0.140678 -0.432954 0.890371
vn -0.162456 -0.499995 0.850654
vn 0.425323 -0.309012 0.850654
vn -0.631659 0.267582 0.727603
vn -0.449678 0.518055 0.727605
vn 0.059296 0.683428 0.727605
vn 0.353744 0.587755 0.727605
vn -0.232269 0.714862 0.659563
vn 0.668304 0.154799 0.727604
vn 0.668304 -0.154799 0.727604
vn 0.608100 0.441805 0.659563
vn 0.353744 -0.587755 0.727605
vn 0.608100 -0.441805 0.659563
vn 0.059296 -0.683428 0.727605
vn 0.262868 0.809012 0.525737
vn -0.026960 0.864028 0.502721
vn 0.529681 0.683162 0.502721
vn 0.813409 0.292641 0.502720
vn 0.850648 0.000000 0.525735
vn 0.723607 0.525726 0.447219
vn 0.813409 -0.292641 0.502720
vn 0.440688 0.855343 0.272363
vn 0.686524 0.683164 0.248943
vn 0.861878 0.441807 0.248942
vn 0.949661 0.154799 0.272362
vn 0.949661 -0.154800 0.272362
vn 0.146239 0.951017 0.272363
vn 0.723607 -0.525726 0.447219
vn 0.861878 -0.441807 0.248942
vn 0.529681 -0.683162 0.502721
vn 0.686524 -0.683164 0.248942
vn 0.262869 -0.809012 0.525737
vn 0.440689 -0.855343 0.272363
vn 0.951057 -0.309014 0.000000
vn 0.808986 -0.587760 -0.008995
vn 0.587786 -0.809017 0.000000
vn 0.999960 0.000000 0.008996
vn 0.951057 0.309014 0.000000
vn 0.808986 0.587759 -0.008995
vn 0.587786 0.809017 0.000000
vn 0.309004 0.951018 0.008995
vn 0.859282 -0.432958 -0.272362
vn 0.956963 -0.149165 -0.248940
vn 0.956963 0.149165 -0.248940
vn 0.859282 0.432958 -0.272362
vn 0.677301 0.683434 -0.272363
vn 0.437581 0.864031 -0.248943
vn 0.677301 -0.683434 -0.272363
vn 0.894426 0.000000 -0.447216
vn 0.830074 0.241354 -0.502718
vn 0.688189 0.499998 -0.525736
vn 0.830074 -0.241354 -0.502718
vn 0.751652 0.000000 -0.659560
vn 0.688189 -0.499998 -0.525735
vn 0.486047 0.714863 -0.502721
vn 0.631660 0.267582 -0.727603
vn 0.631660 -0.267582 -0.727603
vn 0.449678 0.518054 -0.727605
vn 0.525729 0.000000 -0.850652
vn 0.368295 0.267581 -0.890370
vn 0.486047 -0.714864 -0.502721
vn 0.449678 -0.518055 -0.727604
vn 0.368295 -0.267582 -0.890370
vn 0.253775 0.000000 -0.967263
vn 0.437581 -0.864031 -0.248943
vn 0.309005 -0.951018 0.008995
vn 0.146239 -0.951017 0.272363
vn -0.026960 -0.864028 0.502721
vn -0.232269 -0.714862 0.659563
vn -0.449678 -0.518055 0.727605
vn -0.631659 -0.267582 0.727603
vn -0.751652 0.000000 0.659560
vn 0.153850 -0.956221 -0.248942
vn 0.000000 -1.000000 0.000000
vn -0.153850 -0.956221 0.248942
vn -0.276389 -0.850649 0.447219
vn -0.486047 -0.714863 0.502721
vn -0.688189 -0.499998 0.525735
vn -0.437582 -0.864031 0.248943
vn -0.309005 -0.951018 -0.008995
vn -0.677302 -0.683433 0.272362
vn -0.830074 -0.241354 0.502718
vn -0.146239 -0.951017 -0.272363
vn -0.587786 -0.809016 0.000000
vn -0.859283 -0.432958 0.272361
vn -0.440689 -0.855343 -0.272363
vn -0.808986 -0.587759 0.008994
vn -0.686524 -0.683164 -0.248943
vn -0.894426 0.000000 0.447216
vn -0.956963 -0.149165 0.248940
vn -0.951057 -0.309014 0.000000
vn -0.830074 0.241354 0.502718
vn -0.956963 0.149165 0.248940
vn -0.688189 0.499998 0.525736
vn -0.861878 -0.441807 -0.248942
vn -0.999960 0.000000 -0.008995
vn -0.859283 0.432957 0.272362
vn -0.486047 0.714863 0.502721
vn -0.949661 -0.154800 -0.272362
vn -0.951058 0.309014 0.000000
vn -0.677302 0.683433 0.272363
vn -0.276389 0.850649 0.447219
vn -0.437582 0.864031 0.248943
vn -0.153850 0.956221 0.248942
vn -0.808986 0.587759 0.008995
vn -0.949661 0.154800 -0.272362
vn -0.587786 0.809016 0.000000
vn 0.000000 1.000000 0.000000
vn -0.309005 0.951018 -0.008995
vn -0.861878 0.441807 -0.248942
vn 0.153850 0.956221 -0.248942
vn -0.686524 0.683164 -0.248942
vn -0.440689 0.855343 -0.272363
vn -0.146239 0.951017 -0.272363
vn 0.276389 0.850649 -0.447219
vn 0.026960 0.864028 -0.502721
vn 0.232270 0.714862 -0.659563
vn -0.262868 0.809012 -0.525737
vn -0.529681 0.683161 -0.502721
vn -0.059296 0.683429 -0.727605
vn 0.162457 0.499996 -0.850654
vn -0.353744 0.587756 -0.727605
vn -0.723607 0.525726 -0.447219
vn -0.140678 0.432955 -0.890370
vn 0.078420 0.241353 -0.967264
vn -0.608099 0.441806 -0.659563
vn -0.813409 0.292641 -0.502720
vn -0.425323 0.309012 -0.850654
vn -0.205308 0.149164 -0.967263
vn 0.000000 0.000000 -1.000000
vn -0.850648 0.000000 -0.525735
vn -0.668304 0.154799 -0.727604
vn 0.078420 -0.241353 -0.967264
vn -0.455238 0.000000 -0.890370
vn -0.205308 -0.149164 -0.967263
vn -0.813409 -0.292641 -0.502719
vn -0.668304 -0.154799 -0.727604
vn 0.162456 -0.499996 -0.850654
vn -0.425323 -0.309012 -0.850653
vn -0.140679 -0.432955 -0.890370
vn -0.723607 -0.525726 -0.447219
vn -0.608100 -0.441806 -0.659563
vn -0.529681 -0.683162 -0.502721
vn -0.353744 -0.587755 -0.727605
vn -0.262869 -0.809012 -0.525737
vn -0.059297 -0.683429 -0.727605
vn 0.026960 -0.864028 -0.502721
vn 0.232269 -0.714862 -0.659563
vn 0.276389 -0.850649 -0.447220
vt 0.000000 0.000000
vt 0.000000 0.000000
vt 0.000000 0.000000
vt 0.000000 0.000000
vt 0.000000 0.000000
vt 0.000000 0.000000
vt 0.000000 0.000000
vt 0.000000 0.000000
vt 0.000000 0.000000
vt 0.000000 0.000000
vt 0.000000 0.000000
vt 0.000000 0.000000
vt 0.000000 0.000000
vt 0.000000 0.000000
vt 0.000000 0.000000
vt 0.000000 0.000000
vt 0.000000 0.000000
vt 0.000000 0.000000
vt 0.000000 0.000000
vt 0.000000 0.000000
vt 0.000000 0.000000
vt 0.000000 0.000000
vt 0.000000 0.000000
vt 0.000000 0.000000
vt 0.000000 0.000000
vt 0.000000 0.000000
vt 0.000000 0.000000
vt 0.000000 0.000000
vt 0.000000 0.000000
vt 0.000000 0.000000
vt 0.000000 0.000000
vt 0.000000 0.000000
vt 0.000000 0.000000
vt 0.000000 0.000000
vt 0.000000 0.000000
vt 0.000000 0.000000
vt 0.000000 0.000000
vt 0.000000 0.000000
vt 0.000000 0.000000
vt 0.000000 0.000000
vt 0.000000 0.000000
vt 0.000000 0.000000
vt 0.000000 0.000000
vt 0.000000 0.000000
vt 0.000000 0.000000
vt 0.000000 0.000000
vt 0.000000 0.000000
vt 0.000000 0.000000
vt 0.000000 0.000000
vt 0.000000 0.000000
vt 0.000000 0.000000
vt 0.000000 0.000000
vt 0.000000 0.000000
vt 0.000000 0.000000
vt 0.000000 0.000000
vt 0.000000 0.000000
vt 0.000000 0.000000
vt 0.000000 0.000000
vt 0.000000 0.000000
vt 0.000000 0.000000
vt 0.000000 0.000000
vt 0.000000 0.000000
vt 0.000000 0.000000
vt 0.000000 0.000000
vt 0.000000 0.000000
vt 0.000000 0.000000
vt 0.000000 0.000000
vt 0.000000 0.000000
vt 0.000000 0.000000
vt 0.000000 0.000000
vt 0.000000 0.000000
vt 0.000000 0.000000
vt 0.000000 0.000000
vt 0.000000 0.000000
vt 0.000000 0.000000
vt 0.000000 0.000000
vt 0.000000 0.000000
vt 0.000000 0.000000
vt 0.000000 0.000000
vt 0.000000 0.000000
vt 0.000000 0.000000
vt 0.000000 0.000000
vt 0.000000 0.000000
vt 0.000000 0.000000
vt 0.000000 0.000000
vt 0.000000 0.000000
vt 0.000000 0.000000
vt 0.000000 0.000000
vt 0.000000 0.000000
vt 0.000000 0.000000
vt 0.000000 0.000000
vt 0.000000 0.000000
vt 0.000000 0.000000
vt 0.000000 0.000000
vt 0.000000 0.000000
vt 0.000000 0.000000
vt 0.000000 0.000000
vt 0.000000 0.000000
vt 0.000000 0.000000
vt 0.000000 0.000000
vt 0.000000 0.000000
vt 0.000000 0.000000
vt 0.000000 0.000000
vt 0.000000 0.000000
vt 0.000000 0.000000
vt 0.000000 0.000000
vt 0.000000 0.000000
vt 0.000000 0.000000
vt 0.000000 0.000000
vt 0.000000 0.000000
vt 0.000000 0.000000
vt 0.000000 0.000000
vt 0.000000 0.000000
vt 0.000000 0.000000
vt 0.000000 0.000000
vt 0.000000 0.000000
vt 0.000000 0.000000
vt 0.000000 0.000000
vt 0.000000 0.000000
vt 0.000000 0.000000
vt 0.000000 0.000000
vt 0.000000 0.000000
vt 0.000000 0.000000
vt 0.000000 0.000000
vt 0.000000 0.000000
vt 0.000000 0.000000
vt 0.000000 0.000000
vt 0.000000 0.000000
vt 0.000000 0.000000
vt 0.000000 0.000000
vt 0.000000 0.000000
vt 0.000000 0.000000
vt 0.000000 0.000000
vt 0.000000 0.000000
vt 0.000000 0.000000
vt 0.000000 0.000000
vt 0.000000 0.000000
vt 0.000000 0.000000
vt 0.000000 0.000000
vt 0.000000 0.000000
vt 0.000000 0.000000
vt 0.000000 0.000000
vt 0.000000 0.000000
vt 0.000000 0.000000
vt 0.000000 0.000000
vt 0.000000 0.000000
vt 0.000000 0.000000
vt 0.000000 0.000000
vt 0.000000 0.000000
vt 0.000000 0.000000
vt 0.000000 0.000000
vt 0.000000 0.000000
vt 0.000000 0.000000
vt 0.000000 0.000000
vt 0.000000 0.000000
vt 0.000000 0.000000
vt 0.000000 0.000000
vt 0.000000 0.000000
vt 0.000000 0.000000
vt 0.000000 0.000000
vt 0.000000 0.000000
vt 0.000000 0.000000
vt 0.000000 0.000000
vt 0.000000 0.000000
vt 0.000000 0.000000
vt 0.000000 0.000000
vt 0.000000 0.000000
vt 0.000000 0.000000
vt 0.000000 0.000000
vt 0.000000 0.000000
vt 0.000000 0.000000
vt 0.000000 0.000000
vt 0.000000 0.000000
vt 0.000000 0.000000
vt 0.000000 0.000000
vt 0.000000 0.000000
vt 0.000000 0.000000
vt 0.000000 0.000000
vt 0.000000 0.000000
vt 0.000000 0.000000
vt 0.000000 0.000000
vt 0.000000 0.000000
vt 0.000000 0.000000
vt 0.000000 0.000000
vt 0.000000 0.000000
vt 0.000000 0.000000
vt 0.000000 0.000000
vt 0.000000 0.000000
vt 0.000000 0.000000
vt 0.000000 0.000000
vt 0.000000 0.000000
vt 0.000000 0.000000
vt 0.000000 0.000000
vt 0.000000 0.000000
vt 0.000000 0.000000
vt 0.000000 0.000000
vt 0.000000 0.000000
vt 0.000000 0.000000
vt 0.000000 0.000000
vt 0.000000 0.000000
vt 0.000000 0.000000
vt 0.000000 0.000000
vt 0.000000 0.000000
vt 0.000000 0.000000
vt 0.000000 0.000000
vt 0.000000 0.000000
vt 0.000000 0.000000
vt 0.000000 0.000000
vt 0.000000 0.000000
vt 0.000000 0.000000
vt 0.000000 0.000000
vt 0.000000 0.000000
vt 0.000000 0.000000
vt 0.000000 0.000000
vt 0.000000 0.000000
vt 0.000000 0.000000
vt 0.000000 0.000000
vt 0.000000 0.000000
vt 0.000000 0.000000
vt 0.000000 0.000000
vt 0.000000 0.000000
vt 0.000000 0.000000
vt 0.000000 0.000000
vt 0.000000 0.000000
vt 0.000000 0.000000
vt 0.000000 0.000000
vt 0.000000 0.000000
vt 0.000000 0.000000
vt 0.000000 0.000000
vt 0.000000 0.000000
vt 0.000000 0.000000
vt 0.000000 0.000000
vt 0.000000 0.000000
vt 0.000000 0.000000
vt 0.000000 0.000000
vt 0.000000 0.000000
vt 0.000000 0.000000
vt 0.000000 0.000000
vt 0.000000 0.000000
vt 0.000000 0.000000
vt 0.000000 0.000000
vt 0.000000 0.000000
vt 0.000000 0.000000
vt 0.000000 0.000000
vt 0.000000 0.000000
vt 0.000000 0.000000
vt 0.000000 0.000000
vt 0.000000 0.000000
vt 0.000000 0.000000
vt 0.000000 0.000000
vt 0.000000 0.000000
vt 0.000000 0.000000
vt 0.000000 0.000000
vt 0.000000 0.000000
vt 0.000000 0.000000
vt 0.000000 0.000000
vt 0.000000 0.000000
vt 0.000000 0.000000
vt 0.000000 0.000000
vt 0.000000 0.000000
vt 0.000000 0.000000
vt 0.000000 0.000000
vt 0.000000 0.000000
vt 0.000000 0.000000
vt 0.000000 0.000000
vt 0.000000 0.000000
vt 0.000000 0.000000
vt 0.000000 0.000000
vt 0.000000 0.000000
vt 0.000000 0.000000
vt 0.000000 0.000000
vt 0.000000 0.000000
vt 0.000000 0.000000
vt 0.000000 0.000000
vt 0.000000 0.000000
vt 0.000000 0.000000
vt 0.000000 0.000000
vt 0.000000 0.000000
vt 0.000000 0.000000
vt 0.000000 0.000000
vt 0.000000 0.000000
vt 0.000000 0.000000
vt 0.000000 0.000000
vt 0.000000 0.000000
vt 0.000000 0.000000
vt 0.000000 0.000000
vt 0.000000 0.000000
vt 0.000000 0.000000
vt 0.000000 0.000000
vt 0.000000 0.000000
vt 0.000000 0.000000
vt 0.000000 0.000000
vt 0.000000 0.000000
vt 0.000000 0.000000
vt 0.000000 0.000000
vt 0.000000 0.000000
vt 0.000000 0.000000
vt 0.000000 0.000000
vt 0.000000 0.000000
vt 0.000000 0.000000
vt 0.000000 0.000000
vt 0.000000 0.000000
vt 0.000000 0.000000
vt 0.000000 0.000000
vt 0.000000 0.000000
vt 0.000000 0.000000
vt 0.000000 0.000000
vt 0.000000 0.000000
vt 0.000000 0.000000
vt 0.000000 0.000000
vt 0.000000 0.000000
vt 0.000000 0.000000
vt 0.000000 0.000000
vt 0.000000 0.000000
vt 0.000000 0.000000
vt 0.000000 0.000000
vt 0.000000 0.000000
vt 0.000000 0.000000
vt 0.000000 0.000000
vt 0.000000 0.000000
vt 0.000000 0.000000
vt 0.000000 0.000000
vt 0.000000 0.000000
vt 0.000000 0.000000
f 1/1/1 2/2/2 3/3/3
f 1/1/1 4/4/4 2/2/2
f 2/2/2 5/5/5 3/3/3
f 6/6/6 1/1/1 3/3/3
f 5/5/5 7/7/7 3/3/3
f 7/7/7 6/6/6 3/3/3
f 8/8/8 4/4/4 1/1/1
f 6/6/6 9/9/9 1/1/1
f 9/9/9 8/8/8 1/1/1
f 4/4/4 10/10/10 2/2/2
f 2/2/2 11/11/11 5/5/5
f 10/10/10 11/11/11 2/2/2
f 5/5/5 12/12/12 7/7/7
f 11/11/11 13/13/13 5/5/5
f 13/13/13 12/12/12 5/5/5
f 7/7/7 14/14/14 6/6/6
f 15/15/15 9/9/9 6/6/6
f 14/14/14 15/15/15 6/6/6
f 12/12/12 16/16/16 7/7/7
f 16/16/16 14/14/14 7/7/7
f 8/8/8 17/17/17 4/4/4
f 4/4/4 18/18/18 10/10/10
f 17/17/17 18/18/18 4/4/4
f 10/10/10 19/19/19 11/11/11
f 11/11/11 20/20/20 13/13/13
f 19/19/19 20/20/20 11/11/11
f 18/18/18 21/21/21 10/10/10
f 21/21/21 19/19/19 10/10/10
f 13/13/13 22/22/22 12/12/12
f 12/12/12 23/23/23 16/16/16
f 22/22/22 23/23/23 12/12/12
f 20/20/20 24/24/24 13/13/13
f 24/24/24 22/22/22 13/13/13
f 19/19/19 25/25/25 20/20/20
f 21/21/21 26/26/26 19/19/19
f 26/26/26 25/25/25 19/19/19
f 20/20/20 27/27/27 24/24/24
f 25/25/25 27/27/27 20/20/20
f 18/18/18 28/28/28 21/21/21
f 29/29/29 26/26/26 21/21/21
f 28/28/28 29/29/29 21/21/21
f 30/30/30 28/28/28 18/18/18
f 17/17/17 30/30/30 18/18/18
f 24/24/24 31/31/31 22/22/22
f 27/27/27 32/32/32 24/24/24
f 32/32/32 31/31/31 24/24/24
f 31/31/31 33/33/33 22/22/22
f 22/22/22 33/33/33 23/23/23
f 34/34/34 25/25/25 26/26/26
f 35/35/35 26/26/26 29/29/29
f 35/35/35 34/34/34 26/26/26
f 36/36/36 29/29/29 28/28/28
f 36/36/36 35/35/35 29/29/29
f 37/37/37 27/27/27 25/25/25
f 34/34/34 37/37/37 25/25/25
f 38/38/38 32/32/32 27/27/27
f 37/37/37 38/38/38 27/27/27
f 39/39/39 31/31/31 32/32/32
f 38/38/38 39/39/39 32/32/32
f 40/40/40 33/33/33 31/31/31
f 39/39/39 40/40/40 31/31/31
f 41/41/41 36/36/36 28/28/28
f 41/41/41 28/28/28 30/30/30
f 42/42/42 34/34/34 35/35/35
f 43/43/43 37/37/37 34/34/34
f 42/42/42 43/43/43 34/34/34
f 44/44/44 38/38/38 37/37/37
f 43/43/43 44/44/44 37/37/37
f 38/38/38 45/45/45 39/39/39
f 44/44/44 45/45/45 38/38/38
f 36/36/36 46/46/46 35/35/35
f 46/46/46 42/42/42 35/35/35
f 47/47/47 40/40/40 39/39/39
f 45/45/45 47/47/47 39/39/39
f 48/48/48 36/36/36 41/41/41
f 48/48/48 46/46/46 36/36/36
f 49/49/49 41/41/41 30/30/30
f 50/50/50 48/48/48 41/41/41
f 50/50/50 41/41/41 49/49/49
f 49/49/49 30/30/30 51/51/51
f 51/51/51 30/30/30 17/17/17
f 52/52/52 51/51/51 17/17/17
f 52/52/52 17/17/17 8/8/8
f 53/53/53 52/52/52 8/8/8
f 9/9/9 53/53/53 8/8/8
f 54/54/54 53/53/53 9/9/9
f 15/15/15 54/54/54 9/9/9
f 48/48/48 55/55/55 46/46/46
f 56/56/56 48/48/48 50/50/50
f 56/56/56 55/55/55 48/48/48
f 55/55/55 57/57/57 46/46/46
f 46/46/46 57/57/57 42/42/42
f 57/57/57 58/58/58 42/42/42
f 58/58/58 43/43/43 42/42/42
f 58/58/58 59/59/59 43/43/43
f 59/59/59 44/44/44 43/43/43
f 59/59/59 60/60/60 44/44/44
f 44/44/44 60/60/60 45/45/45
f 60/60/60 61/61/61 45/45/45
f 45/45/45 61/61/61 47/47/47
f 55/55/55 62/62/62 57/57/57
f 57/57/57 63/63/63 58/58/58
f 62/62/62 63/63/63 57/57/57
f 64/64/64 59/59/59 58/58/58
f 63/63/63 64/64/64 58/58/58
f 59/59/59 65/65/65 60/60/60
f 64/64/64 65/65/65 59/59/59
f 66/66/66 64/64/64 63/63/63
f 66/66/66 65/65/65 64/64/64
f 65/65/65 67/67/67 60/60/60
f 60/60/60 67/67/67 61/61/61
f 68/68/68 62/62/62 55/55/55
f 56/56/56 68/68/68 55/55/55
f 69/69/69 63/63/63 62/62/62
f 69/69/69 66/66/66 63/63/63
f 66/66/66 70/70/70 65/65/65
f 70/70/70 67/67/67 65/65/65
f 71/71/71 62/62/62 68/68/68
f 71/71/71 69/69/69 62/62/62
f 72/72/72 66/66/66 69/69/69
f 72/72/72 70/70/70 66/66/66
f 73/73/73 69/69/69 71/71/71
f 73/73/73 72/72/72 69/69/69
f 67/67/67 74/74/74 61/61/61
f 70/70/70 75/75/75 67/67/67
f 75/75/75 74/74/74 67/67/67
f 72/72/72 76/76/76 70/70/70
f 76/76/76 75/75/75 70/70/70
f 77/77/77 72/72/72 73/73/73
f 77/77/77 76/76/76 72/72/72
f 61/61/61 74/74/74 78/78/78
f 61/61/61 78/78/78 47/47/47
f 78/78/78 79/79/79 47/47/47
f 47/47/47 79/79/79 40/40/40
f 79/79/79 80/80/80 40/40/40
f 40/40/40 80/80/80 33/33/33
f 80/80/80 81/81/81 33/33/33
f 33/33/33 81/81/81 23/23/23
f 23/23/23 81/81/81 82/82/82
f 23/23/23 82/82/82 16/16/16
f 82/82/82 83/83/83 16/16/16
f 16/16/16 83/83/83 14/14/14
f 83/83/83 84/84/84 14/14/14
f 14/14/14 84/84/84 15/15/15
f 84/84/84 85/85/85 15/15/15
f 85/85/85 54/54/54 15/15/15
f 78/78/78 86/86/86 79/79/79
f 79/79/79 87/87/87 80/80/80
f 86/86/86 87/87/87 79/79/79
f 80/80/80 88/88/88 81/81/81
f 87/87/87 88/88/88 80/80/80
f 81/81/81 89/89/89 82/82/82
f 88/88/88 89/89/89 81/81/81
f 82/82/82 90/90/90 83/83/83
f 89/89/89 90/90/90 82/82/82
f 83/83/83 91/91/91 84/84/84
f 90/90/90 91/91/91 83/83/83
f 88/88/88 92/92/92 89/89/89
f 92/92/92 90/90/90 89/89/89
f 87/87/87 93/93/93 88/88/88
f 88/88/88 93/93/93 92/92/92
f 92/92/92 94/94/94 90/90/90
f 94/94/94 91/91/91 90/90/90
f 91/91/91 95/95/95 84/84/84
f 84/84/84 95/95/95 85/85/85
f 87/87/87 96/96/96 93/93/93
f 86/86/86 96/96/96 87/87/87
f 93/93/93 97/97/97 92/92/92
f 97/97/97 94/94/94 92/92/92
f 94/94/94 98/98/98 91/91/91
f 98/98/98 95/95/95 91/91/91
f 96/96/96 99/99/99 93/93/93
f 93/93/93 99/99/99 97/97/97
f 97/97/97 100/100/100 94/94/94
f 100/100/100 98/98/98 94/94/94
f 99/99/99 101/101/101 97/97/97
f 101/101/101 100/100/100 97/97/97
f 95/95/95 102/102/102 85/85/85
f 98/98/98 103/103/103 95/95/95
f 103/103/103 102/102/102 95/95/95
f 100/100/100 104/104/104 98/98/98
f 104/104/104 103/103/103 98/98/98
f 102/102/102 105/105/105 85/85/85
f 85/85/85 105/105/105 54/54/54
f 103/103/103 106/106/106 102/102/102
f 106/106/106 105/105/105 102/102/102
f 105/105/105 107/107/107 54/54/54
f 54/54/54 107/107/107 53/53/53
f 101/101/101 108/108/108 100/100/100
f 108/108/108 104/104/104 100/100/100
f 104/104/104 109/109/109 103/103/103
f 103/103/103 109/109/109 106/106/106
f 106/106/106 110/110/110 105/105/105
f 110/110/110 107/107/107 105/105/105
f 107/107/107 111/111/111 53/53/53
f 53/53/53 111/111/111 52/52/52
f 108/108/108 112/112/112 104/104/104
f 104/104/104 112/112/112 109/109/109
f 109/109/109 113/113/113 106/106/106
f 113/113/113 110/110/110 106/106/106
f 110/110/110 114/114/114 107/107/107
f 114/114/114 111/111/111 107/107/107
f 111/111/111 115/115/115 52/52/52
f 115/115/115 51/51/51 52/52/52
f 116/116/116 115/115/115 111/111/111
f 114/114/114 116/116/116 111/111/111
f 117/117/117 51/51/51 115/115/115
f 116/116/116 117/117/117 115/115/115
f 117/117/117 49/49/49 51/51/51
f 118/118/118 114/114/114 110/110/110
f 113/113/113 118/118/118 110/110/110
f 109/109/109 119/119/119 113/113/113
f 112/112/112 119/119/119 109/109/109
f 120/120/120 116/116/116 114/114/114
f 118/118/118 120/120/120 114/114/114
f 121/121/121 49/49/49 117/117/117
f 121/121/121 50/50/50 49/49/49
f 116/116/116 122/122/122 117/117/117
f 120/120/120 122/122/122 116/116/116
f 122/122/122 121/121/121 117/117/117
f 123/123/123 118/118/118 113/113/113
f 119/119/119 123/123/123 113/113/113
f 124/124/124 50/50/50 121/121/121
f 124/124/124 56/56/56 50/50/50
f 125/125/125 120/120/120 118/118/118
f 123/123/123 125/125/125 118/118/118
f 120/120/120 126/126/126 122/122/122
f 125/125/125 126/126/126 120/120/120
f 122/122/122 127/127/127 121/121/121
f 127/127/127 124/124/124 121/121/121
f 126/126/126 127/127/127 122/122/122
f 128/128/128 56/56/56 124/124/124
f 128/128/128 68/68/68 56/56/56
f 127/127/127 129/129/129 124/124/124
f 129/129/129 128/128/128 124/124/124
f 130/130/130 68/68/68 128/128/128
f 129/129/129 130/130/130 128/128/128
f 130/130/130 71/71/71 68/68/68
f 126/126/126 131/131/131 127/127/127
f 131/131/131 129/129/129 127/127/127
f 125/125/125 132/132/132 126/126/126
f 132/132/132 131/131/131 126/126/126
f 133/133/133 71/71/71 130/130/130
f 133/133/133 73/73/73 71/71/71
f 129/129/129 134/134/134 130/130/130
f 131/131/131 134/134/134 129/129/129
f 134/134/134 133/133/133 130/130/130
f 135/135/135 73/73/73 133/133/133
f 135/135/135 77/77/77 73/73/73
f 131/131/131 136/136/136 134/134/134
f 132/132/132 136/136/136 131/131/131
f 134/134/134 137/137/137 133/133/133
f 137/137/137 135/135/135 133/133/133
f 136/136/136 137/137/137 134/134/134
f 138/138/138 132/132/132 125/125/125
f 138/138/138 125/125/125 123/123/123
f 132/132/132 139/139/139 136/136/136
f 138/138/138 139/139/139 132/132/132
f 140/140/140 138/138/138 123/123/123
f 139/139/139 138/138/138 140/140/140
f 119/119/119 140/140/140 123/123/123
f 136/136/136 141/141/141 137/137/137
f 139/139/139 141/141/141 136/136/136
f 137/137/137 142/142/142 135/135/135
f 141/141/141 142/142/142 137/137/137
f 143/143/143 140/140/140 119/119/119
f 112/112/112 143/143/143 119/119/119
f 144/144/144 139/139/139 140/140/140
f 141/141/141 139/139/139 144/144/144
f 144/144/144 140/140/140 143/143/143
f 145/145/145 143/143/143 112/112/112
f 108/108/108 145/145/145 112/112/112
f 146/146/146 141/141/141 144/144/144
f 142/142/142 141/141/141 146/146/146
f 147/147/147 144/144/144 143/143/143
f 147/147/147 143/143/143 145/145/145
f 146/146/146 144/144/144 147/147/147
f 142/142/142 148/148/148 135/135/135
f 148/148/148 77/77/77 135/135/135
f 149/149/149 145/145/145 108/108/108
f 149/149/149 108/108/108 101/101/101
f 150/150/150 142/142/142 146/146/146
f 148/148/148 142/142/142 150/150/150
f 148/148/148 151/151/151 77/77/77
f 148/148/148 150/150/150 151/151/151
f 77/77/77 151/151/151 76/76/76
f 152/152/152 147/147/147 145/145/145
f 152/152/152 145/145/145 149/149/149
f 153/153/153 149/149/149 101/101/101
f 152/152/152 149/149/149 153/153/153
f 99/99/99 153/153/153 101/101/101
f 154/154/154 146/146/146 147/147/147
f 150/150/150 146/146/146 154/154/154
f 154/154/154 147/147/147 152/152/152
f 151/151/151 155/155/155 76/76/76
f 76/76/76 155/155/155 75/75/75
f 151/151/151 150/150/150 156/156/156
f 150/150/150 154/154/154 156/156/156
f 151/151/151 156/156/156 155/155/155
f 154/154/154 152/152/152 157/157/157
f 157/157/157 152/152/152 153/153/153
f 156/156/156 154/154/154 157/157/157
f 158/158/158 153/153/153 99/99/99
f 157/157/157 153/153/153 158/158/158
f 96/96/96 158/158/158 99/99/99
f 156/156/156 157/157/157 159/159/159
f 155/155/155 156/156/156 159/159/159
f 159/159/159 157/157/157 158/158/158
f 155/155/155 160/160/160 75/75/75
f 155/155/155 159/159/159 160/160/160
f 75/75/75 160/160/160 74/74/74
f 161/161/161 158/158/158 96/96/96
f 159/159/159 158/158/158 161/161/161
f 160/160/160 159/159/159 161/161/161
f 86/86/86 161/161/161 96/96/96
f 160/160/160 162/162/162 74/74/74
f 160/160/160 161/161/161 162/162/162
f 162/162/162 161/161/161 86/86/86
f 74/74/74 162/162/162 78/78/78
f 162/162/162 86/86/86 78/78/78
f 163/163/163 164/164/164 165/165/165
f 163/163/163 165/165/165 166/166/166
f 165/165/165 164/164/164 167/167/167
f 168/168/168 164/164/164 163/163/163
f 167/167/167 164/164/164 169/169/169
f 169/169/169 164/164/164 168/168/168
f 170/170/170 163/163/163 166/166/166
f 168/168/168 163/163/163 171/171/171
f 171/171/171 163/163/163 170/170/170
f 166/166/166 165/165/165 172/172/172
f 165/165/165 167/167/167 173/173/173
f 172/172/172 165/165/165 173/173/173
f 167/167/167 169/169/169 174/174/174
f 173/173/173 167/167/167 175/175/175
f 175/175/175 167/167/167 174/174/174
f 169/169/169 168/168/168 176/176/176
f 177/177/177 168/168/168 171/171/171
f 176/176/176 168/168/168 177/177/177
f 174/174/174 169/169/169 178/178/178
f 178/178/178 169/169/169 176/176/176
f 170/170/170 166/166/166 179/179/179
f 166/166/166 172/172/172 180/180/180
f 179/179/179 166/166/166 180/180/180
f 172/172/172 173/173/173 181/181/181
f 173/173/173 175/175/175 182/182/182
f 181/181/181 173/173/173 182/182/182
f 180/180/180 172/172/172 183/183/183
f 183/183/183 172/172/172 181/181/181
f 175/175/175 174/174/174 184/184/184
f 174/174/174 178/178/178 185/185/185
f 184/184/184 174/174/174 185/185/185
f 182/182/182 175/175/175 186/186/186
f 186/186/186 175/175/175 184/184/184
f 178/178/178 176/176/176 187/187/187
f 185/185/185 178/178/178 188/188/188
f 188/188/188 178/178/178 187/187/187
f 187/187/187 176/176/176 189/189/189
f 176/176/176 177/177/177 189/189/189
f 181/181/181 182/182/182 190/190/190
f 183/183/183 181/181/181 191/191/191
f 191/191/191 181/181/181 190/190/190
f 182/182/182 186/186/186 192/192/192
f 190/190/190 182/182/182 192/192/192
f 186/186/186 184/184/184 193/193/193
f 184/184/184 185/185/185 194/194/194
f 193/193/193 184/184/184 194/194/194
f 192/192/192 186/186/186 195/195/195
f 195/195/195 186/186/186 193/193/193
f 194/194/194 185/185/185 196/196/196
f 185/185/185 188/188/188 196/196/196
f 197/197/197 190/190/190 192/192/192
f 198/198/198 192/192/192 195/195/195
f 197/197/197 192/192/192 198/198/198
f 199/199/199 195/195/195 193/193/193
f 198/198/198 195/195/195 199/199/199
f 200/200/200 193/193/193 194/194/194
f 199/199/199 193/193/193 200/200/200
f 201/201/201 194/194/194 196/196/196
f 200/200/200 194/194/194 201/201/201
f 202/202/202 190/190/190 197/197/197
f 202/202/202 191/191/191 190/190/190
f 196/196/196 188/188/188 203/203/203
f 201/201/201 196/196/196 204/204/204
f 204/204/204 196/196/196 203/203/203
f 203/203/203 188/188/188 205/205/205
f 188/188/188 187/187/187 205/205/205
f 204/204/204 203/203/203 206/206/206
f 206/206/206 203/203/203 205/205/205
f 205/205/205 187/187/187 207/207/207
f 187/187/187 189/189/189 207/207/207
f 206/206/206 205/205/205 208/208/208
f 208/208/208 205/205/205 207/207/207
f 209/209/209 201/201/201 204/204/204
f 204/204/204 206/206/206 210/210/210
f 209/209/209 204/204/204 210/210/210
f 211/211/211 206/206/206 208/208/208
f 210/210/210 206/206/206 211/211/211
f 212/212/212 201/201/201 209/209/209
f 212/212/212 200/200/200 201/201/201
f 213/213/213 200/200/200 212/212/212
f 213/213/213 199/199/199 200/200/200
f 214/214/214 199/199/199 213/213/213
f 198/198/198 199/199/199 214/214/214
f 215/215/215 198/198/198 214/214/214
f 215/215/215 197/197/197 198/198/198
f 216/216/216 197/197/197 215/215/215
f 216/216/216 202/202/202 197/197/197
f 209/209/209 210/210/210 217/217/217
f 218/218/218 212/212/212 209/209/209
f 218/218/218 209/209/209 217/217/217
f 219/219/219 213/213/213 212/212/212
f 219/219/219 212/212/212 218/218/218
f 214/214/214 213/213/213 220/220/220
f 220/220/220 213/213/213 219/219/219
f 215/215/215 214/214/214 221/221/221
f 221/221/221 214/214/214 220/220/220
f 222/222/222 216/216/216 215/215/215
f 222/222/222 215/215/215 221/221/221
f 217/217/217 210/210/210 223/223/223
f 210/210/210 211/211/211 223/223/223
f 224/224/224 219/219/219 218/218/218
f 220/220/220 219/219/219 225/225/225
f 225/225/225 219/219/219 224/224/224
f 221/221/221 220/220/220 226/226/226
f 226/226/226 220/220/220 225/225/225
f 218/218/218 217/217/217 227/227/227
f 224/224/224 218/218/218 227/227/227
f 228/228/228 225/225/225 224/224/224
f 228/228/228 224/224/224 227/227/227
f 227/227/227 217/217/217 229/229/229
f 217/217/217 223/223/223 229/229/229
f 222/222/222 221/221/221 230/230/230
f 230/230/230 221/221/221 226/226/226
f 231/231/231 226/226/226 225/225/225
f 231/231/231 225/225/225 228/228/228
f 228/228/228 227/227/227 232/232/232
f 232/232/232 227/227/227 229/229/229
f 233/233/233 230/230/230 226/226/226
f 233/233/233 226/226/226 231/231/231
f 234/234/234 231/231/231 228/228/228
f 234/234/234 228/228/228 232/232/232
f 235/235/235 233/233/233 231/231/231
f 235/235/235 231/231/231 234/234/234
f 229/229/229 223/223/223 236/236/236
f 232/232/232 229/229/229 237/237/237
f 237/237/237 229/229/229 236/236/236
f 234/234/234 232/232/232 238/238/238
f 238/238/238 232/232/232 237/237/237
f 239/239/239 235/235/235 234/234/234
f 239/239/239 234/234/234 238/238/238
f 223/223/223 240/240/240 236/236/236
f 223/223/223 211/211/211 240/240/240
f 240/240/240 211/211/211 241/241/241
f 211/211/211 208/208/208 241/241/241
f 241/241/241 208/208/208 242/242/242
f 208/208/208 207/207/207 242/242/242
f 242/242/242 207/207/207 243/243/243
f 207/207/207 189/189/189 243/243/243
f 189/189/189 244/244/244 243/243/243
f 189/189/189 177/177/177 244/244/244
f 244/244/244 177/177/177 245/245/245
f 177/177/177 171/171/171 245/245/245
f 245/245/245 171/171/171 246/246/246
f 171/171/171 170/170/170 246/246/246
f 246/246/246 170/170/170 247/247/247
f 247/247/247 170/170/170 179/179/179
f 240/240/240 241/241/241 248/248/248
f 241/241/241 242/242/242 249/249/249
f 248/248/248 241/241/241 249/249/249
f 242/242/242 243/243/243 250/250/250
f 249/249/249 242/242/242 250/250/250
f 243/243/243 244/244/244 251/251/251
f 250/250/250 243/243/243 251/251/251
f 244/244/244 245/245/245 252/252/252
f 251/251/251 244/244/244 252/252/252
f 245/245/245 246/246/246 253/253/253
f 252/252/252 245/245/245 253/253/253
f 250/250/250 251/251/251 254/254/254
f 254/254/254 251/251/251 252/252/252
f 249/249/249 250/250/250 255/255/255
f 250/250/250 254/254/254 255/255/255
f 254/254/254 252/252/252 256/256/256
f 256/256/256 252/252/252 253/253/253
f 253/253/253 246/246/246 257/257/257
f 246/246/246 247/247/247 257/257/257
f 249/249/249 255/255/255 258/258/258
f 248/248/248 249/249/249 258/258/258
f 255/255/255 254/254/254 259/259/259
f 259/259/259 254/254/254 256/256/256
f 256/256/256 253/253/253 260/260/260
f 260/260/260 253/253/253 257/257/257
f 258/258/258 255/255/255 261/261/261
f 255/255/255 259/259/259 261/261/261
f 259/259/259 256/256/256 262/262/262
f 262/262/262 256/256/256 260/260/260
f 261/261/261 259/259/259 263/263/263
f 263/263/263 259/259/259 262/262/262
f 257/257/257 247/247/247 264/264/264
f 260/260/260 257/257/257 265/265/265
f 265/265/265 257/257/257 264/264/264
f 262/262/262 260/260/260 266/266/266
f 266/266/266 260/260/260 265/265/265
f 264/264/264 247/247/247 267/267/267
f 247/247/247 179/179/179 267/267/267
f 265/265/265 264/264/264 268/268/268
f 268/268/268 264/264/264 267/267/267
f 267/267/267 179/179/179 269/269/269
f 179/179/179 180/180/180 269/269/269
f 263/263/263 262/262/262 270/270/270
f 270/270/270 262/262/262 266/266/266
f 266/266/266 265/265/265 271/271/271
f 265/265/265 268/268/268 271/271/271
f 268/268/268 267/267/267 272/272/272
f 272/272/272 267/267/267 269/269/269
f 269/269/269 180/180/180 273/273/273
f 180/180/180 183/183/183 273/273/273
f 270/270/270 266/266/266 274/274/274
f 266/266/266 271/271/271 274/274/274
f 271/271/271 268/268/268 275/275/275
f 275/275/275 268/268/268 272/272/272
f 272/272/272 269/269/269 276/276/276
f 276/276/276 269/269/269 273/273/273
f 273/273/273 183/183/183 277/277/277
f 277/277/277 183/183/183 191/191/191
f 278/278/278 273/273/273 277/277/277
f 276/276/276 273/273/273 278/278/278
f 279/279/279 277/277/277 191/191/191
f 278/278/278 277/277/277 279/279/279
f 279/279/279 191/191/191 202/202/202
f 280/280/280 272/272/272 276/276/276
f 275/275/275 272/272/272 280/280/280
f 271/271/271 275/275/275 281/281/281
f 274/274/274 271/271/271 281/281/281
f 282/282/282 276/276/276 278/278/278
f 280/280/280 276/276/276 282/282/282
f 283/283/283 279/279/279 202/202/202
f 283/283/283 202/202/202 216/216/216
f 278/278/278 279/279/279 284/284/284
f 282/282/282 278/278/278 284/284/284
f 284/284/284 279/279/279 283/283/283
f 285/285/285 275/275/275 280/280/280
f 281/281/281 275/275/275 285/285/285
f 286/286/286 283/283/283 216/216/216
f 286/286/286 216/216/216 222/222/222
f 287/287/287 280/280/280 282/282/282
f 285/285/285 280/280/280 287/287/287
f 282/282/282 284/284/284 288/288/288
f 287/287/287 282/282/282 288/288/288
f 284/284/284 283/283/283 289/289/289
f 289/289/289 283/283/283 286/286/286
f 288/288/288 284/284/284 289/289/289
f 290/290/290 286/286/286 222/222/222
f 290/290/290 222/222/222 230/230/230
f 289/289/289 286/286/286 291/291/291
f 291/291/291 286/286/286 290/290/290
f 292/292/292 290/290/290 230/230/230
f 292/292/292 291/291/291 290/290/290
f 292/292/292 230/230/230 233/233/233
f 288/288/288 289/289/289 293/293/293
f 293/293/293 289/289/289 291/291/291
f 287/287/287 288/288/288 294/294/294
f 294/294/294 288/288/288 293/293/293
f 295/295/295 291/291/291 292/292/292
f 295/295/295 293/293/293 291/291/291
f 296/296/296 292/292/292 233/233/233
f 296/296/296 295/295/295 292/292/292
f 296/296/296 233/233/233 235/235/235
f 297/297/297 293/293/293 295/295/295
f 297/297/297 294/294/294 293/293/293
f 298/298/298 287/287/287 294/294/294
f 298/298/298 285/285/285 287/287/287
f 299/299/299 295/295/295 296/296/296
f 299/299/299 297/297/297 295/295/295
f 300/300/300 296/296/296 235/235/235
f 300/300/300 299/299/299 296/296/296
f 300/300/300 235/235/235 239/239/239
f 301/301/301 298/298/298 294/294/294
f 301/301/301 294/294/294 297/297/297
f 302/302/302 285/285/285 298/298/298
f 302/302/302 298/298/298 301/301/301
f 281/281/281 285/285/285 302/302/302
f 303/303/303 297/297/297 299/299/299
f 303/303/303 301/301/301 297/297/297
f 304/304/304 299/299/299 300/300/300
f 304/304/304 303/303/303 299/299/299
f 305/305/305 300/300/300 239/239/239
f 305/305/305 304/304/304 300/300/300
f 306/306/306 281/281/281 302/302/302
f 274/274/274 281/281/281 306/306/306
f 302/302/302 301/301/301 307/307/307
f 307/307/307 301/301/301 303/303/303
f 306/306/306 302/302/302 307/307/307
f 305/305/305 239/239/239 308/308/308
f 239/239/239 238/238/238 308/308/308
f 309/309/309 303/303/303 304/304/304
f 307/307/307 303/303/303 309/309/309
f 310/310/310 304/304/304 305/305/305
f 305/305/305 308/308/308 310/310/310
f 309/309/309 304/304/304 310/310/310
f 311/311/311 274/274/274 306/306/306
f 270/270/270 274/274/274 311/311/311
f 306/306/306 307/307/307 312/312/312
f 312/312/312 307/307/307 309/309/309
f 311/311/311 306/306/306 312/312/312
f 308/308/308 238/238/238 313/313/313
f 238/238/238 237/237/237 313/313/313
f 314/314/314 309/309/309 310/310/310
f 312/312/312 309/309/309 314/314/314
f 308/308/308 315/315/315 310/310/310
f 308/308/308 313/313/313 315/315/315
f 310/310/310 315/315/315 314/314/314
f 316/316/316 270/270/270 311/311/311
f 316/316/316 263/263/263 270/270/270
f 311/311/311 312/312/312 317/317/317
f 317/317/317 312/312/312 314/314/314
f 316/316/316 311/311/311 317/317/317
f 318/318/318 263/263/263 316/316/316
f 317/317/317 318/318/318 316/316/316
f 261/261/261 263/263/263 318/318/318
f 314/314/314 319/319/319 317/317/317
f 315/315/315 319/319/319 314/314/314
f 319/319/319 318/318/318 317/317/317
f 320/320/320 261/261/261 318/318/318
f 319/319/319 320/320/320 318/318/318
f 258/258/258 261/261/261 320/320/320
f 315/315/315 321/321/321 319/319/319
f 313/313/313 321/321/321 315/315/315
f 321/321/321 320/320/320 319/319/319
f 322/322/322 258/258/258 320/320/320
f 321/321/321 322/322/322 320/320/320
f 248/248/248 258/258/258 322/322/322
f 313/313/313 323/323/323 321/321/321
f 323/323/323 322/322/322 321/321/321
f 313/313/313 237/237/237 323/323/323
f 237/237/237 236/236/236 323/323/323
f 324/324/324 248/248/248 322/322/322
f 323/323/323 324/324/324 322/322/322
f 323/323/323 236/236/236 324/324/324
f 324/324/324 240/240/240 248/248/248
f 236/236/236 240/240/240 324/324/324
