v 0.039604 -0.026189 -0.035544
v 0.039604 -0.026189 -0.342201
v 0.039604 0.026189 -0.342201
v 0.039604 0.026189 -0.035544
v -0.000441 0.026189 0.027856
v -0.252746 0.026189 0.187219
v -0.252746 -0.026189 0.187219
v -0.000441 -0.026189 0.027856
v -0.000441 0.026189 0.027856
v 0.272744 0.026189 0.200407
v 0.312789 0.026189 0.137008
v 0.039604 0.026189 -0.035544
v -0.040486 0.026189 -0.035544
v -0.252746 0.026189 0.187219
v -0.292791 0.026189 0.123819
v -0.000441 -0.026189 0.027856
v -0.252746 -0.026189 0.187219
v -0.292791 -0.026189 0.123819
v -0.040486 -0.026189 -0.035544
v 0.039604 -0.026189 -0.035544
v 0.272744 -0.026189 0.200407
v 0.312789 -0.026189 0.137008
v -0.040486 -0.026189 -0.035544
v -0.292791 -0.026189 0.123819
v -0.292791 0.026189 0.123819
v -0.040486 0.026189 -0.035544
v -0.040486 -0.026189 -0.035544
v -0.040486 -0.026189 -0.342201
v 0.039604 -0.026189 -0.342201
v 0.039604 -0.026189 -0.035544
v 0.039604 0.026189 -0.035544
v 0.039604 0.026189 -0.342201
v -0.040486 0.026189 -0.342201
v -0.040486 0.026189 -0.035544
v -0.040486 0.026189 -0.035544
v -0.040486 0.026189 -0.342201
v -0.040486 -0.026189 -0.342201
v -0.040486 -0.026189 -0.035544
v -0.000441 -0.026189 0.027856
v 0.272744 -0.026189 0.200407
v 0.272744 0.026189 0.200407
v -0.000441 0.026189 0.027856
v 0.039604 0.026189 -0.035544
v 0.312789 0.026189 0.137008
v 0.312789 -0.026189 0.137008
v 0.039604 -0.026189 -0.035544
v -0.147008 0.058358 -0.254625
v 0.000000 -0.058358 -0.294016
v 0.000000 0.058358 -0.294016
v -0.147008 -0.058358 -0.254626
v 0.147008 -0.058358 -0.254626
v -0.254625 0.058358 -0.147008
v 0.147008 0.058358 -0.254625
v -0.254625 -0.058358 -0.147008
v 0.254625 -0.058358 -0.147008
v -0.294016 0.058358 0.000000
v 0.254625 0.058358 -0.147008
v -0.294016 -0.058358 0.000000
v 0.294016 -0.058358 0.000000
v -0.254625 0.058358 0.147008
v 0.294016 0.058358 0.000000
v -0.254625 -0.058358 0.147008
v 0.254626 -0.058358 0.147008
v -0.147008 0.058358 0.254626
v 0.254626 0.058358 0.147008
v -0.147008 -0.058358 0.254625
v 0.147008 -0.058358 0.254625
v 0.000000 0.058358 0.294016
v 0.147008 0.058358 0.254626
v 0.000000 -0.058358 0.294016
v -0.383890 0.058358 0.000000
v -0.254625 0.058358 -0.147008
v -0.332458 0.058358 -0.191944
v -0.294016 0.058358 0.000000
v -0.147008 0.058358 -0.254625
v -0.332458 0.058358 0.191945
v -0.191945 0.058358 -0.332458
v -0.254625 0.058358 0.147008
v 0.000000 0.058358 -0.294016
v -0.191945 0.058358 0.332459
v 0.000000 0.058358 -0.383889
v -0.147008 0.058358 0.254626
v 0.147008 0.058358 -0.254625
v 0.000000 0.058358 0.383890
v 0.191945 0.058358 -0.332458
v 0.000000 0.058358 0.294016
v 0.254625 0.058358 -0.147008
v 0.191945 0.058358 0.332459
v 0.332458 0.058358 -0.191945
v 0.147008 0.058358 0.254626
v 0.294016 0.058358 0.000000
v 0.332458 0.058358 0.191945
v 0.383890 0.058358 0.000000
v 0.254626 0.058358 0.147008
v 0.191945 -0.058358 0.332458
v 0.147008 -0.058358 0.254625
v 0.254626 -0.058358 0.147008
v 0.332458 -0.058358 0.191944
v 0.000000 -0.058358 0.383889
v 0.294016 -0.058358 0.000000
v 0.000000 -0.058358 0.294016
v 0.383890 -0.058358 0.000000
v -0.191945 -0.058358 0.332458
v 0.254625 -0.058358 -0.147008
v -0.147008 -0.058358 0.254625
v 0.332458 -0.058358 -0.191945
v -0.332458 -0.058358 0.191945
v 0.147008 -0.058358 -0.254626
v -0.254625 -0.058358 0.147008
v 0.191945 -0.058358 -0.332459
v -0.383890 -0.058358 0.000000
v 0.000000 -0.058358 -0.294016
v -0.294016 -0.058358 0.000000
v 0.000000 -0.058358 -0.383890
v -0.332458 -0.058358 -0.191945
v -0.147008 -0.058358 -0.254626
v -0.254625 -0.058358 -0.147008
v -0.191945 -0.058358 -0.332459
v 0.191945 0.058358 0.332459
v 0.000000 -0.058358 0.383889
v 0.191945 -0.058358 0.332458
v 0.000000 0.058358 0.383890
v 0.332458 0.058358 0.191945
v -0.191945 -0.058358 0.332458
v 0.332458 -0.058358 0.191944
v -0.191945 0.058358 0.332459
v 0.383890 0.058358 0.000000
v -0.332458 -0.058358 0.191945
v 0.383890 -0.058358 0.000000
v -0.332458 0.058358 0.191945
v 0.332458 0.058358 -0.191945
v -0.383890 -0.058358 0.000000
v 0.332458 -0.058358 -0.191945
v -0.383890 0.058358 0.000000
v 0.191945 0.058358 -0.332458
v -0.332458 -0.058358 -0.191945
v 0.191945 -0.058358 -0.332459
v -0.332458 0.058358 -0.191944
v 0.000000 0.058358 -0.383889
v -0.191945 -0.058358 -0.332459
v 0.000000 -0.058358 -0.383890
v -0.191945 0.058358 -0.332458
vn 1.000000 0.000000 0.000000
vn 1.000000 0.000000 0.000000
vn 1.000000 0.000000 0.000000
vn 1.000000 0.000000 0.000000
vn 0.534023 0.000000 0.845470
vn 0.534023 0.000000 0.845470
vn 0.534023 0.000000 0.845470
vn 0.534023 0.000000 0.845470
vn 0.000000 1.000000 0.000000
vn 0.000000 1.000000 0.000000
vn 0.000000 1.000000 0.000000
vn 0.000000 1.000000 0.000000
vn 0.000000 1.000000 0.000000
vn 0.000000 1.000000 0.000000
vn 0.000000 1.000000 0.000000
vn 0.000000 -1.000000 0.000000
vn 0.000000 -1.000000 0.000000
vn 0.000000 -1.000000 0.000000
vn 0.000000 -1.000000 0.000000
vn 0.000000 -1.000000 0.000000
vn 0.000000 -1.000000 0.000000
vn 0.000000 -1.000000 0.000000
vn -0.534023 0.000000 -0.845470
vn -0.534023 0.000000 -0.845470
vn -0.534023 0.000000 -0.845470
vn -0.534023 0.000000 -0.845470
vn 0.000000 -1.000000 0.000000
vn 0.000000 -1.000000 0.000000
vn 0.000000 -1.000000 0.000000
vn 0.000000 -1.000000 0.000000
vn 0.000000 1.000000 0.000000
vn 0.000000 1.000000 0.000000
vn 0.000000 1.000000 0.000000
vn 0.000000 1.000000 0.000000
vn -1.000000 0.000000 0.000000
vn -1.000000 0.000000 0.000000
vn -1.000000 0.000000 0.000000
vn -1.000000 0.000000 0.000000
vn -0.534022 0.000000 0.845471
vn -0.534022 0.000000 0.845471
vn -0.534022 0.000000 0.845471
vn -0.534022 0.000000 0.845471
vn 0.534024 0.000000 -0.845469
vn 0.534024 0.000000 -0.845469
vn 0.534024 0.000000 -0.845469
vn 0.534024 0.000000 -0.845469
vn 0.500001 0.000000 0.866025
vn 0.000000 0.000000 1.000000
vn 0.000000 0.000000 1.000000
vn 0.500001 0.000000 0.866025
vn -0.500001 0.000000 0.866025
vn 0.866026 0.000000 0.500000
vn -0.500001 0.000000 0.866025
vn 0.866026 0.000000 0.500000
vn -0.866026 0.000000 0.500000
vn 1.000000 0.000000 0.000000
vn -0.866026 0.000000 0.500000
vn 1.000000 0.000000 0.000000
vn -1.000000 0.000000 0.000000
vn 0.866026 0.000000 -0.500000
vn -1.000000 0.000000 0.000000
vn 0.866026 0.000000 -0.500000
vn -0.866026 0.000000 -0.499999
vn 0.500001 0.000000 -0.866025
vn -0.866026 0.000000 -0.499999
vn 0.500001 0.000000 -0.866025
vn -0.499999 0.000000 -0.866026
vn 0.000000 0.000000 -1.000000
vn -0.499999 0.000000 -0.866026
vn 0.000000 0.000000 -1.000000
vn 0.000000 1.000000 0.000000
vn 0.000000 1.000000 0.000000
vn 0.000000 1.000000 0.000000
vn 0.000000 1.000000 0.000000
vn 0.000000 1.000000 0.000000
vn 0.000000 1.000000 0.000000
vn 0.000000 1.000000 0.000000
vn 0.000000 1.000000 0.000000
vn 0.000000 1.000000 0.000000
vn 0.000000 1.000000 0.000000
vn 0.000000 1.000000 0.000000
vn 0.000000 1.000000 0.000000
vn 0.000000 1.000000 0.000000
vn 0.000000 1.000000 0.000000
vn 0.000000 1.000000 0.000000
vn 0.000000 1.000000 0.000000
vn 0.000000 1.000000 0.000000
vn 0.000000 1.000000 0.000000
vn 0.000000 1.000000 0.000000
vn 0.000000 1.000000 0.000000
vn 0.000000 1.000000 0.000000
vn 0.000000 1.000000 0.000000
vn 0.000000 1.000000 0.000000
vn 0.000000 1.000000 0.000000
vn 0.000000 -1.000000 0.000000
vn 0.000000 -1.000000 0.000000
vn 0.000000 -1.000000 0.000000
vn 0.000000 -1.000000 0.000000
vn 0.000000 -1.000000 0.000000
vn 0.000000 -1.000000 0.000000
vn 0.000000 -1.000000 0.000000
vn 0.000000 -1.000000 0.000000
vn 0.000000 -1.000000 0.000000
vn 0.000000 -1.000000 0.000000
vn 0.000000 -1.000000 0.000000
vn 0.000000 -1.000000 0.000000
vn 0.000000 -1.000000 0.000000
vn 0.000000 -1.000000 0.000000
vn 0.000000 -1.000000 0.000000
vn 0.000000 -1.000000 0.000000
vn 0.000000 -1.000000 0.000000
vn 0.000000 -1.000000 0.000000
vn 0.000000 -1.000000 0.000000
vn 0.000000 -1.000000 0.000000
vn 0.000000 -1.000000 0.000000
vn 0.000000 -1.000000 0.000000
vn 0.000000 -1.000000 0.000000
vn 0.000000 -1.000000 0.000000
vn 0.500000 0.000000 0.866025
vn 0.000000 0.000000 1.000000
vn 0.500000 0.000000 0.866025
vn 0.000000 0.000000 1.000000
vn 0.866026 0.000000 0.500000
vn -0.500000 0.000000 0.866026
vn 0.866026 0.000000 0.500000
vn -0.500000 0.000000 0.866026
vn 1.000000 0.000000 0.000000
vn -0.866025 0.000000 0.500000
vn 1.000000 0.000000 0.000000
vn -0.866025 0.000000 0.500000
vn 0.866025 0.000000 -0.500000
vn -1.000000 0.000000 0.000000
vn 0.866025 0.000000 -0.500000
vn -1.000000 0.000000 0.000000
vn 0.500000 0.000000 -0.866026
vn -0.866026 0.000000 -0.500000
vn 0.500000 0.000000 -0.866026
vn -0.866026 0.000000 -0.500000
vn 0.000000 0.000000 -1.000000
vn -0.500000 0.000000 -0.866025
vn 0.000000 0.000000 -1.000000
vn -0.500000 0.000000 -0.866025
vt 0.776793 0.501842
vt 0.779000 0.502588
vt 0.779007 0.502885
vt 0.776918 0.503779
vt 0.779029 0.501213
vt 0.862394 0.501852
vt 0.864456 0.502916
vt 0.779074 0.504550
vt 0.779029 0.501213
vt 0.681633 0.503908
vt 0.678253 0.507079
vt 0.776918 0.503779
vt 0.781241 0.503667
vt 0.862394 0.501852
vt 0.865834 0.504716
vt 0.779074 0.504550
vt 0.864456 0.502916
vt 0.873005 0.501787
vt 0.781342 0.501853
vt 0.776793 0.501842
vt 0.679571 0.505135
vt 0.670998 0.504078
vt 0.781342 0.501853
vt 0.873005 0.501787
vt 0.865834 0.504716
vt 0.781241 0.503667
vt 0.781342 0.501853
vt 0.779199 0.502588
vt 0.779000 0.502588
vt 0.776793 0.501842
vt 0.776918 0.503779
vt 0.779007 0.502885
vt 0.779197 0.502880
vt 0.781241 0.503667
vt 0.781241 0.503667
vt 0.779197 0.502880
vt 0.779199 0.502588
vt 0.781342 0.501853
vt 0.779074 0.504550
vt 0.679571 0.505135
vt 0.681633 0.503908
vt 0.779029 0.501213
vt 0.776918 0.503779
vt 0.678253 0.507079
vt 0.670998 0.504078
vt 0.776793 0.501842
vt 0.108844 0.486098
vt 0.108844 0.486098
vt 0.108844 0.486098
vt 0.108844 0.486098
vt 0.108844 0.486098
vt 0.108844 0.486098
vt 0.108844 0.486098
vt 0.108844 0.486098
vt 0.108844 0.486098
vt 0.108844 0.486098
vt 0.108844 0.486098
vt 0.108844 0.486098
vt 0.108844 0.486098
vt 0.108844 0.486098
vt 0.108844 0.486098
vt 0.108844 0.486098
vt 0.108844 0.486098
vt 0.108844 0.486098
vt 0.108844 0.486098
vt 0.108844 0.486098
vt 0.108844 0.486098
vt 0.108844 0.486098
vt 0.108844 0.486098
vt 0.108844 0.486098
vt 0.108844 0.486098
vt 0.108844 0.486098
vt 0.108844 0.486098
vt 0.108844 0.486098
vt 0.108844 0.486098
vt 0.108844 0.486098
vt 0.108844 0.486098
vt 0.108844 0.486098
vt 0.108844 0.486098
vt 0.108844 0.486098
vt 0.108844 0.486098
vt 0.108844 0.486098
vt 0.108844 0.486098
vt 0.108844 0.486098
vt 0.108844 0.486098
vt 0.108844 0.486098
vt 0.108844 0.486098
vt 0.108844 0.486098
vt 0.108844 0.486098
vt 0.108844 0.486098
vt 0.108844 0.486098
vt 0.108844 0.486098
vt 0.108844 0.486098
vt 0.108844 0.486098
vt 0.108844 0.486098
vt 0.108844 0.486098
vt 0.108844 0.486098
vt 0.108844 0.486098
vt 0.108844 0.486098
vt 0.108844 0.486098
vt 0.108844 0.486098
vt 0.108844 0.486098
vt 0.108844 0.486098
vt 0.108844 0.486098
vt 0.108844 0.486098
vt 0.108844 0.486098
vt 0.108844 0.486098
vt 0.108844 0.486098
vt 0.108844 0.486098
vt 0.108844 0.486098
vt 0.108844 0.486098
vt 0.108844 0.486098
vt 0.108844 0.486098
vt 0.108844 0.486098
vt 0.108844 0.486098
vt 0.108844 0.486098
vt 0.108844 0.486098
vt 0.108844 0.486098
vt 0.108844 0.486098
vt 0.108844 0.486098
vt 0.108844 0.486098
vt 0.108844 0.486098
vt 0.108844 0.486098
vt 0.108844 0.486098
vt 0.108844 0.486098
vt 0.108844 0.486098
vt 0.108844 0.486098
vt 0.108844 0.486098
vt 0.108844 0.486098
vt 0.108844 0.486098
vt 0.108844 0.486098
vt 0.108844 0.486098
vt 0.108844 0.486098
vt 0.108844 0.486098
vt 0.108844 0.486098
vt 0.108844 0.486098
vt 0.108844 0.486098
vt 0.108844 0.486098
vt 0.108844 0.486098
vt 0.108844 0.486098
vt 0.108844 0.486098
vt 0.108844 0.486098
f 1/1/1 2/2/2 3/3/3
f 1/1/1 3/3/3 4/4/4
f 5/5/5 6/6/6 7/7/7
f 5/5/5 7/7/7 8/8/8
f 9/9/9 10/10/10 11/11/11
f 9/9/9 11/11/11 12/12/12
f 9/9/9 12/12/12 13/13/13
f 13/13/13 14/14/14 9/9/9
f 13/13/13 15/15/15 14/14/14
f 16/16/16 17/17/17 18/18/18
f 16/16/16 18/18/18 19/19/19
f 19/19/19 20/20/20 16/16/16
f 20/20/20 21/21/21 16/16/16
f 20/20/20 22/22/22 21/21/21
f 23/23/23 24/24/24 25/25/25
f 23/23/23 25/25/25 26/26/26
f 27/27/27 28/28/28 29/29/29
f 27/27/27 29/29/29 30/30/30
f 31/31/31 32/32/32 33/33/33
f 31/31/31 33/33/33 34/34/34
f 35/35/35 36/36/36 37/37/37
f 35/35/35 37/37/37 38/38/38
f 39/39/39 40/40/40 41/41/41
f 39/39/39 41/41/41 42/42/42
f 43/43/43 44/44/44 45/45/45
f 43/43/43 45/45/45 46/46/46
f 47/47/47 48/48/48 49/49/49
f 47/47/47 50/50/50 48/48/48
f 49/49/49 48/48/48 51/51/51
f 52/52/52 50/50/50 47/47/47
f 49/49/49 51/51/51 53/53/53
f 52/52/52 54/54/54 50/50/50
f 53/53/53 51/51/51 55/55/55
f 56/56/56 54/54/54 52/52/52
f 53/53/53 55/55/55 57/57/57
f 56/56/56 58/58/58 54/54/54
f 57/57/57 55/55/55 59/59/59
f 60/60/60 58/58/58 56/56/56
f 57/57/57 59/59/59 61/61/61
f 60/60/60 62/62/62 58/58/58
f 61/61/61 59/59/59 63/63/63
f 64/64/64 62/62/62 60/60/60
f 61/61/61 63/63/63 65/65/65
f 64/64/64 66/66/66 62/62/62
f 65/65/65 63/63/63 67/67/67
f 68/68/68 66/66/66 64/64/64
f 65/65/65 67/67/67 69/69/69
f 68/68/68 70/70/70 66/66/66
f 69/69/69 67/67/67 70/70/70
f 69/69/69 70/70/70 68/68/68
f 71/71/71 72/72/72 73/73/73
f 71/71/71 74/74/74 72/72/72
f 73/73/73 72/72/72 75/75/75
f 76/76/76 74/74/74 71/71/71
f 73/73/73 75/75/75 77/77/77
f 76/76/76 78/78/78 74/74/74
f 77/77/77 75/75/75 79/79/79
f 80/80/80 78/78/78 76/76/76
f 77/77/77 79/79/79 81/81/81
f 80/80/80 82/82/82 78/78/78
f 81/81/81 79/79/79 83/83/83
f 84/84/84 82/82/82 80/80/80
f 81/81/81 83/83/83 85/85/85
f 84/84/84 86/86/86 82/82/82
f 85/85/85 83/83/83 87/87/87
f 88/88/88 86/86/86 84/84/84
f 85/85/85 87/87/87 89/89/89
f 88/88/88 90/90/90 86/86/86
f 89/89/89 87/87/87 91/91/91
f 92/92/92 90/90/90 88/88/88
f 89/89/89 91/91/91 93/93/93
f 92/92/92 94/94/94 90/90/90
f 93/93/93 91/91/91 94/94/94
f 93/93/93 94/94/94 92/92/92
f 95/95/95 96/96/96 97/97/97
f 95/95/95 97/97/97 98/98/98
f 99/99/99 96/96/96 95/95/95
f 98/98/98 97/97/97 100/100/100
f 99/99/99 101/101/101 96/96/96
f 98/98/98 100/100/100 102/102/102
f 103/103/103 101/101/101 99/99/99
f 102/102/102 100/100/100 104/104/104
f 103/103/103 105/105/105 101/101/101
f 102/102/102 104/104/104 106/106/106
f 107/107/107 105/105/105 103/103/103
f 106/106/106 104/104/104 108/108/108
f 107/107/107 109/109/109 105/105/105
f 106/106/106 108/108/108 110/110/110
f 111/111/111 109/109/109 107/107/107
f 110/110/110 108/108/108 112/112/112
f 111/111/111 113/113/113 109/109/109
f 110/110/110 112/112/112 114/114/114
f 115/115/115 113/113/113 111/111/111
f 114/114/114 112/112/112 116/116/116
f 115/115/115 117/117/117 113/113/113
f 114/114/114 116/116/116 118/118/118
f 118/118/118 117/117/117 115/115/115
f 118/118/118 116/116/116 117/117/117
f 119/119/119 120/120/120 121/121/121
f 119/119/119 122/122/122 120/120/120
f 123/123/123 119/119/119 121/121/121
f 122/122/122 124/124/124 120/120/120
f 123/123/123 121/121/121 125/125/125
f 122/122/122 126/126/126 124/124/124
f 127/127/127 123/123/123 125/125/125
f 126/126/126 128/128/128 124/124/124
f 127/127/127 125/125/125 129/129/129
f 126/126/126 130/130/130 128/128/128
f 131/131/131 127/127/127 129/129/129
f 130/130/130 132/132/132 128/128/128
f 131/131/131 129/129/129 133/133/133
f 130/130/130 134/134/134 132/132/132
f 135/135/135 131/131/131 133/133/133
f 134/134/134 136/136/136 132/132/132
f 135/135/135 133/133/133 137/137/137
f 134/134/134 138/138/138 136/136/136
f 139/139/139 135/135/135 137/137/137
f 138/138/138 140/140/140 136/136/136
f 139/139/139 137/137/137 141/141/141
f 138/138/138 142/142/142 140/140/140
f 142/142/142 139/139/139 141/141/141
f 142/142/142 141/141/141 140/140/140
