v -0.625000 -0.625000 0.125000
v -0.625000 -0.625000 1.375000
v 0.625000 -0.625000 1.375000
v -0.625000 -0.625000 0.125000
v 0.625000 -0.625000 1.375000
v 0.625000 -0.625000 0.125000
v 0.663185 0.524999 0.800000
v 0.663185 0.524999 0.700000
v -0.663185 0.524999 0.700000
v -0.663185 0.524999 0.800000
v 0.663185 -0.652661 0.700000
v -0.663185 -0.652661 0.700000
v -0.663185 0.524999 0.700000
v 0.663185 0.524999 0.700000
v -0.663185 -0.652661 0.800000
v 0.663185 -0.652661 0.800000
v 0.663185 0.524999 0.800000
v -0.663185 0.524999 0.800000
v -0.750000 0.625000 0.000000
v 0.750000 0.625000 0.000000
v 0.750000 -0.750000 0.000000
v -0.750000 -0.750000 0.000000
v -0.750000 0.624999 1.500000
v -0.749999 -0.750000 1.500000
v 0.750000 -0.750000 1.500000
v 0.750000 0.625000 1.500000
v -0.750000 0.625000 0.000000
v -0.750000 -0.750000 0.000000
v -0.749999 -0.750000 1.500000
v -0.750000 0.624999 1.500000
v -0.750000 -0.750000 0.000000
v 0.750000 -0.750000 0.000000
v 0.750000 -0.750000 1.500000
v -0.749999 -0.750000 1.500000
v -0.096689 0.052285 1.544034
v -0.096689 0.052285 1.453102
v -0.096689 0.552285 1.453102
v -0.096689 0.552285 1.544034
v -0.096689 0.552285 1.544034
v -0.096689 0.552285 1.453102
v -0.596689 0.552285 1.453102
v -0.596689 0.552285 1.544034
v -0.596689 0.552285 1.544034
v -0.596689 0.552285 1.453102
v -0.596689 0.052285 1.453102
v -0.596689 0.052285 1.544034
v -0.596689 0.052285 1.544034
v -0.596689 0.052285 1.453102
v -0.096689 0.052285 1.453102
v -0.096689 0.052285 1.544034
v -0.596689 0.052285 1.544034
v -0.096689 0.052285 1.544034
v -0.096689 0.552285 1.544034
v -0.596689 0.552285 1.544034
v 0.096689 0.052285 1.544034
v 0.096689 0.552285 1.544034
v 0.096689 0.552285 1.453102
v 0.096689 0.052285 1.453102
v 0.096689 0.552285 1.544034
v 0.596689 0.552285 1.544034
v 0.596689 0.552285 1.453102
v 0.096689 0.552285 1.453102
v 0.596689 0.552285 1.544034
v 0.596689 0.052285 1.544034
v 0.596689 0.052285 1.453102
v 0.596689 0.552285 1.453102
v 0.596689 0.052285 1.544034
v 0.096689 0.052285 1.544034
v 0.096689 0.052285 1.453102
v 0.596689 0.052285 1.453102
v 0.596689 0.052285 1.544034
v 0.596689 0.552285 1.544034
v 0.096689 0.552285 1.544034
v 0.096689 0.052285 1.544034
v -0.096689 -0.174956 1.544034
v -0.096689 -0.674956 1.544034
v -0.096689 -0.674956 1.453102
v -0.096689 -0.174956 1.453102
v -0.096689 -0.674956 1.544034
v -0.596689 -0.674956 1.544034
v -0.596689 -0.674956 1.453102
v -0.096689 -0.674956 1.453102
v -0.596689 -0.674956 1.544034
v -0.596689 -0.174956 1.544034
v -0.596689 -0.174956 1.453102
v -0.596689 -0.674956 1.453102
v -0.596689 -0.174956 1.544034
v -0.096689 -0.174956 1.544034
v -0.096689 -0.174956 1.453102
v -0.596689 -0.174956 1.453102
v -0.596689 -0.174956 1.544034
v -0.596689 -0.674956 1.544034
v -0.096689 -0.674956 1.544034
v -0.096689 -0.174956 1.544034
v 0.096689 -0.174956 1.544034
v 0.096689 -0.174956 1.453102
v 0.096689 -0.674956 1.453102
v 0.096689 -0.674956 1.544034
v 0.096689 -0.674956 1.544034
v 0.096689 -0.674956 1.453102
v 0.596689 -0.674956 1.453102
v 0.596689 -0.674956 1.544034
v 0.596689 -0.674956 1.544034
v 0.596689 -0.674956 1.453102
v 0.596689 -0.174956 1.453102
v 0.596689 -0.174956 1.544034
v 0.596689 -0.174956 1.544034
v 0.596689 -0.174956 1.453102
v 0.096689 -0.174956 1.453102
v 0.096689 -0.174956 1.544034
v 0.596689 -0.174956 1.544034
v 0.096689 -0.174956 1.544034
v 0.096689 -0.674956 1.544034
v 0.596689 -0.674956 1.544034
v 0.750000 -0.750000 0.000000
v 0.750000 0.625000 0.000000
v 0.750000 0.625000 1.500000
v 0.750000 -0.750000 1.500000
v 0.750000 0.625000 0.000000
v 0.625000 0.625000 0.125000
v 0.625000 0.625000 1.375000
v 0.750000 0.625000 1.500000
v 0.625000 0.625000 0.125000
v 0.625000 -0.625000 0.125000
v 0.625000 -0.625000 1.375000
v 0.625000 0.625000 1.375000
v -0.750000 0.624999 1.500000
v -0.625000 0.624999 1.375000
v -0.625000 0.625000 0.125000
v -0.750000 0.625000 0.000000
v 0.750000 0.625000 1.500000
v 0.625000 0.625000 1.375000
v -0.625000 0.624999 1.375000
v -0.750000 0.624999 1.500000
v -0.750000 0.625000 0.000000
v -0.625000 0.625000 0.125000
v 0.625000 0.625000 0.125000
v 0.750000 0.625000 0.000000
v -0.625000 0.624999 1.375000
v -0.625000 -0.625000 1.375000
v -0.625000 -0.625000 0.125000
v -0.625000 0.625000 0.125000
v 0.625000 0.625000 1.375000
v 0.625000 -0.625000 1.375000
v -0.625000 -0.625000 1.375000
v -0.625000 0.624999 1.375000
v -0.625000 0.625000 0.125000
v -0.625000 -0.625000 0.125000
v 0.625000 -0.625000 0.125000
v 0.625000 0.625000 0.125000
vn 0.000000 1.000000 0.000000
vn 0.000000 1.000000 0.000000
vn 0.000000 1.000000 0.000000
vn 0.000000 1.000000 0.000000
vn 0.000000 1.000000 0.000000
vn 0.000000 1.000000 0.000000
vn 0.000000 1.000000 0.000000
vn 0.000000 1.000000 0.000000
vn 0.000000 1.000000 0.000000
vn 0.000000 1.000000 0.000000
vn 0.000000 0.000000 -1.000000
vn 0.000000 0.000000 -1.000000
vn 0.000000 0.000000 -1.000000
vn 0.000000 0.000000 -1.000000
vn 0.000000 0.000000 1.000000
vn 0.000000 0.000000 1.000000
vn 0.000000 0.000000 1.000000
vn 0.000000 0.000000 1.000000
vn 0.000000 0.000000 -1.000000
vn 0.000000 0.000000 -1.000000
vn 0.000000 0.000000 -1.000000
vn 0.000000 0.000000 -1.000000
vn 0.000000 0.000000 1.000000
vn 0.000000 0.000000 1.000000
vn 0.000000 0.000000 1.000000
vn 0.000000 0.000000 1.000000
vn -1.000000 0.000000 0.000000
vn -1.000000 0.000000 0.000000
vn -1.000000 0.000000 0.000000
vn -1.000000 0.000000 0.000000
vn 0.000000 -1.000000 0.000000
vn 0.000000 -1.000000 0.000000
vn 0.000000 -1.000000 0.000000
vn 0.000000 -1.000000 0.000000
vn 1.000000 0.000000 0.000000
vn 1.000000 0.000000 0.000000
vn 1.000000 0.000000 0.000000
vn 1.000000 0.000000 0.000000
vn 0.000000 1.000000 0.000000
vn 0.000000 1.000000 0.000000
vn 0.000000 1.000000 0.000000
vn 0.000000 1.000000 0.000000
vn -1.000000 0.000000 0.000000
vn -1.000000 0.000000 0.000000
vn -1.000000 0.000000 0.000000
vn -1.000000 0.000000 0.000000
vn 0.000000 -1.000000 0.000000
vn 0.000000 -1.000000 0.000000
vn 0.000000 -1.000000 0.000000
vn 0.000000 -1.000000 0.000000
vn 0.000000 0.000000 1.000000
vn 0.000000 0.000000 1.000000
vn 0.000000 0.000000 1.000000
vn 0.000000 0.000000 1.000000
vn -1.000000 0.000000 0.000000
vn -1.000000 0.000000 0.000000
vn -1.000000 0.000000 0.000000
vn -1.000000 0.000000 0.000000
vn 0.000000 1.000000 0.000000
vn 0.000000 1.000000 0.000000
vn 0.000000 1.000000 0.000000
vn 0.000000 1.000000 0.000000
vn 1.000000 0.000000 0.000000
vn 1.000000 0.000000 0.000000
vn 1.000000 0.000000 0.000000
vn 1.000000 0.000000 0.000000
vn 0.000000 -1.000000 0.000000
vn 0.000000 -1.000000 0.000000
vn 0.000000 -1.000000 0.000000
vn 0.000000 -1.000000 0.000000
vn 0.000000 0.000000 1.000000
vn 0.000000 0.000000 1.000000
vn 0.000000 0.000000 1.000000
vn 0.000000 0.000000 1.000000
vn 1.000000 0.000000 0.000000
vn 1.000000 0.000000 0.000000
vn 1.000000 0.000000 0.000000
vn 1.000000 0.000000 0.000000
vn 0.000000 -1.000000 0.000000
vn 0.000000 -1.000000 0.000000
vn 0.000000 -1.000000 0.000000
vn 0.000000 -1.000000 0.000000
vn -1.000000 0.000000 0.000000
vn -1.000000 0.000000 0.000000
vn -1.000000 0.000000 0.000000
vn -1.000000 0.000000 0.000000
vn 0.000000 1.000000 0.000000
vn 0.000000 1.000000 0.000000
vn 0.000000 1.000000 0.000000
vn 0.000000 1.000000 0.000000
vn 0.000000 0.000000 1.000000
vn 0.000000 0.000000 1.000000
vn 0.000000 0.000000 1.000000
vn 0.000000 0.000000 1.000000
vn -1.000000 0.000000 0.000000
vn -1.000000 0.000000 0.000000
vn -1.000000 0.000000 0.000000
vn -1.000000 0.000000 0.000000
vn 0.000000 -1.000000 0.000000
vn 0.000000 -1.000000 0.000000
vn 0.000000 -1.000000 0.000000
vn 0.000000 -1.000000 0.000000
vn 1.000000 0.000000 0.000000
vn 1.000000 0.000000 0.000000
vn 1.000000 0.000000 0.000000
vn 1.000000 0.000000 0.000000
vn 0.000000 1.000000 0.000000
vn 0.000000 1.000000 0.000000
vn 0.000000 1.000000 0.000000
vn 0.000000 1.000000 0.000000
vn 0.000000 0.000000 1.000000
vn 0.000000 0.000000 1.000000
vn 0.000000 0.000000 1.000000
vn 0.000000 0.000000 1.000000
vn 1.000000 0.000000 0.000000
vn 1.000000 0.000000 0.000000
vn 1.000000 0.000000 0.000000
vn 1.000000 0.000000 0.000000
vn 0.000000 1.000000 0.000000
vn 0.000000 1.000000 0.000000
vn 0.000000 1.000000 0.000000
vn 0.000000 1.000000 0.000000
vn -1.000000 0.000000 0.000000
vn -1.000000 0.000000 0.000000
vn -1.000000 0.000000 0.000000
vn -1.000000 0.000000 0.000000
vn 0.000000 1.000000 0.000000
vn 0.000000 1.000000 0.000000
vn 0.000000 1.000000 0.000000
vn 0.000000 1.000000 0.000000
vn 0.000000 1.000000 0.000000
vn 0.000000 1.000000 0.000000
vn 0.000000 1.000000 0.000000
vn 0.000000 1.000000 0.000000
vn 0.000000 1.000000 0.000000
vn 0.000000 1.000000 0.000000
vn 0.000000 1.000000 0.000000
vn 0.000000 1.000000 0.000000
vn 1.000000 0.000000 0.000000
vn 1.000000 0.000000 0.000000
vn 1.000000 0.000000 0.000000
vn 1.000000 0.000000 0.000000
vn 0.000000 0.000000 -1.000000
vn 0.000000 0.000000 -1.000000
vn 0.000000 0.000000 -1.000000
vn 0.000000 0.000000 -1.000000
vn 0.000000 0.000000 1.000000
vn 0.000000 0.000000 1.000000
vn 0.000000 0.000000 1.000000
vn 0.000000 0.000000 1.000000
vt 0.698618 0.687163
vt 0.735929 0.727003
vt 0.661306 0.806683
vt 0.698618 0.687163
vt 0.661306 0.806683
vt 0.698618 0.687163
vt 0.190392 0.796181
vt 0.190392 0.803338
vt 0.285315 0.803338
vt 0.285315 0.796181
vt 0.190392 0.887619
vt 0.285315 0.887619
vt 0.285315 0.803338
vt 0.190392 0.803338
vt 0.285315 0.711900
vt 0.190392 0.711900
vt 0.190392 0.796181
vt 0.285315 0.796181
vt 0.844265 0.732498
vt 0.769642 0.732498
vt 0.769642 0.772338
vt 0.844265 0.772338
vt 0.806954 0.772338
vt 0.769642 0.772338
vt 0.769642 0.852018
vt 0.806954 0.852018
vt 0.769642 0.732498
vt 0.769642 0.692658
vt 0.695019 0.692658
vt 0.695019 0.732498
vt 0.844265 0.772338
vt 0.918888 0.772338
vt 0.918888 0.692658
vt 0.844265 0.692658
vt 0.812911 0.198293
vt 0.796241 0.198293
vt 0.796241 0.148282
vt 0.812911 0.148282
vt 0.762900 0.248305
vt 0.779571 0.248305
vt 0.779571 0.298316
vt 0.762900 0.298316
vt 0.679548 0.248305
vt 0.696219 0.248305
vt 0.696219 0.298316
vt 0.679548 0.298316
vt 0.704554 0.248305
vt 0.721224 0.248305
vt 0.721224 0.298316
vt 0.704554 0.298316
vt 0.679548 0.248305
vt 0.679548 0.198293
vt 0.721224 0.198293
vt 0.721224 0.248305
vt 0.796241 0.248305
vt 0.796241 0.198293
vt 0.812911 0.198293
vt 0.812911 0.248305
vt 0.779571 0.298316
vt 0.779571 0.248305
vt 0.796241 0.248305
vt 0.796241 0.298316
vt 0.762900 0.248305
vt 0.762900 0.198293
vt 0.779571 0.198293
vt 0.779571 0.248305
vt 0.762900 0.248305
vt 0.762900 0.298316
vt 0.746230 0.298316
vt 0.746230 0.248305
vt 0.721224 0.148282
vt 0.721224 0.198293
vt 0.679548 0.198293
vt 0.679548 0.148282
vt 0.796241 0.298316
vt 0.796241 0.248305
vt 0.812911 0.248305
vt 0.812911 0.298316
vt 0.829582 0.148282
vt 0.829582 0.198293
vt 0.812911 0.198293
vt 0.812911 0.148282
vt 0.779571 0.198293
vt 0.779571 0.148282
vt 0.796241 0.148282
vt 0.796241 0.198293
vt 0.779571 0.248305
vt 0.779571 0.198293
vt 0.796241 0.198293
vt 0.796241 0.248305
vt 0.721224 0.198293
vt 0.721224 0.148282
vt 0.762900 0.148282
vt 0.762900 0.198293
vt 0.812911 0.198293
vt 0.829582 0.198293
vt 0.829582 0.248305
vt 0.812911 0.248305
vt 0.812911 0.248305
vt 0.829582 0.248305
vt 0.829582 0.298316
vt 0.812911 0.298316
vt 0.762900 0.148282
vt 0.779571 0.148282
vt 0.779571 0.198293
vt 0.762900 0.198293
vt 0.737895 0.298316
vt 0.721224 0.298316
vt 0.721224 0.248305
vt 0.737895 0.248305
vt 0.762900 0.198293
vt 0.762900 0.248305
vt 0.721224 0.248305
vt 0.721224 0.198293
vt 0.769642 0.772338
vt 0.732331 0.772338
vt 0.732331 0.852018
vt 0.769642 0.852018
vt 0.732331 0.772338
vt 0.732331 0.772338
vt 0.732331 0.852018
vt 0.732331 0.852018
vt 0.732331 0.772338
vt 0.732331 0.772338
vt 0.732331 0.852018
vt 0.732331 0.852018
vt 0.695019 0.732498
vt 0.695019 0.732498
vt 0.769642 0.732498
vt 0.769642 0.732498
vt 0.806954 0.852018
vt 0.806954 0.852018
vt 0.806954 0.772338
vt 0.806954 0.772338
vt 0.844265 0.732498
vt 0.844265 0.732498
vt 0.769642 0.732498
vt 0.769642 0.732498
vt 0.695019 0.732498
vt 0.695019 0.732498
vt 0.769642 0.732498
vt 0.769642 0.732498
vt 0.806954 0.852018
vt 0.806954 0.852018
vt 0.806954 0.772338
vt 0.806954 0.772338
vt 0.844265 0.732498
vt 0.844265 0.732498
vt 0.769642 0.732498
vt 0.769642 0.732498
f 1/1/1 2/2/2 3/3/3
f 4/4/4 5/5/5 6/6/6
f 7/7/7 8/8/8 9/9/9
f 7/7/7 9/9/9 10/10/10
f 11/11/11 12/12/12 13/13/13
f 11/11/11 13/13/13 14/14/14
f 15/15/15 16/16/16 17/17/17
f 15/15/15 17/17/17 18/18/18
f 19/19/19 20/20/20 21/21/21
f 19/19/19 21/21/21 22/22/22
f 23/23/23 24/24/24 25/25/25
f 23/23/23 25/25/25 26/26/26
f 27/27/27 28/28/28 29/29/29
f 27/27/27 29/29/29 30/30/30
f 31/31/31 32/32/32 33/33/33
f 31/31/31 33/33/33 34/34/34
f 35/35/35 36/36/36 37/37/37
f 35/35/35 37/37/37 38/38/38
f 39/39/39 40/40/40 41/41/41
f 39/39/39 41/41/41 42/42/42
f 43/43/43 44/44/44 45/45/45
f 43/43/43 45/45/45 46/46/46
f 47/47/47 48/48/48 49/49/49
f 47/47/47 49/49/49 50/50/50
f 51/51/51 52/52/52 53/53/53
f 51/51/51 53/53/53 54/54/54
f 55/55/55 56/56/56 57/57/57
f 55/55/55 57/57/57 58/58/58
f 59/59/59 60/60/60 61/61/61
f 59/59/59 61/61/61 62/62/62
f 63/63/63 64/64/64 65/65/65
f 63/63/63 65/65/65 66/66/66
f 67/67/67 68/68/68 69/69/69
f 67/67/67 69/69/69 70/70/70
f 71/71/71 72/72/72 73/73/73
f 71/71/71 73/73/73 74/74/74
f 75/75/75 76/76/76 77/77/77
f 75/75/75 77/77/77 78/78/78
f 79/79/79 80/80/80 81/81/81
f 79/79/79 81/81/81 82/82/82
f 83/83/83 84/84/84 85/85/85
f 83/83/83 85/85/85 86/86/86
f 87/87/87 88/88/88 89/89/89
f 87/87/87 89/89/89 90/90/90
f 91/91/91 92/92/92 93/93/93
f 91/91/91 93/93/93 94/94/94
f 95/95/95 96/96/96 97/97/97
f 95/95/95 97/97/97 98/98/98
f 99/99/99 100/100/100 101/101/101
f 99/99/99 101/101/101 102/102/102
f 103/103/103 104/104/104 105/105/105
f 103/103/103 105/105/105 106/106/106
f 107/107/107 108/108/108 109/109/109
f 107/107/107 109/109/109 110/110/110
f 111/111/111 112/112/112 113/113/113
f 111/111/111 113/113/113 114/114/114
f 115/115/115 116/116/116 117/117/117
f 115/115/115 117/117/117 118/118/118
f 119/119/119 120/120/120 121/121/121
f 119/119/119 121/121/121 122/122/122
f 123/123/123 124/124/124 125/125/125
f 123/123/123 125/125/125 126/126/126
f 127/127/127 128/128/128 129/129/129
f 127/127/127 129/129/129 130/130/130
f 131/131/131 132/132/132 133/133/133
f 131/131/131 133/133/133 134/134/134
f 135/135/135 136/136/136 137/137/137
f 135/135/135 137/137/137 138/138/138
f 139/139/139 140/140/140 141/141/141
f 139/139/139 141/141/141 142/142/142
f 143/143/143 144/144/144 145/145/145
f 143/143/143 145/145/145 146/146/146
f 147/147/147 148/148/148 149/149/149
f 147/147/147 149/149/149 150/150/150
