v 0.907794 -0.598512 6.681065
v 0.805892 -0.885463 6.271071
v 0.984678 -0.648844 6.379105
v 0.681492 -0.804024 6.759652
v 0.618513 -0.981369 6.506263
v 0.201398 0.993602 8.026830
v 0.601828 0.969859 7.608549
v 0.279590 1.100742 7.694119
v 0.475309 0.796502 8.146887
v 0.722789 0.781828 7.888375
v -0.493868 -0.975973 4.459186
v -0.779849 -0.918640 4.096129
v -0.537516 -1.046904 4.183677
v -0.709225 -0.803870 4.541912
v -0.885971 -0.768436 4.317531
v -0.461475 -0.411035 4.356844
v -0.885971 -0.768436 4.317531
v -0.709225 -0.803870 4.541912
v -0.493868 -0.975973 4.459186
v -0.682552 -0.257186 4.022102
v -0.137462 -0.648337 4.204198
v -0.537516 -1.046904 4.183677
v -0.158289 -0.641149 3.775116
v -0.779849 -0.918640 4.096129
v -0.495173 -0.399405 3.662575
v -0.101622 0.603379 -0.259276
v 0.066374 0.602807 -0.258344
v 0.099831 0.851955 0.233220
v 0.151526 0.678694 -0.419028
v -0.142089 0.851955 0.233220
v -0.184467 0.679838 -0.420893
v 0.220791 1.060353 0.263990
v 0.068682 0.755152 -0.580644
v -0.263049 1.060353 0.263990
v -0.099314 0.755724 -0.581576
v 0.099831 1.268752 0.294761
v -0.142089 1.268752 0.294761
v 0.115345 0.782464 1.306171
v 0.229165 0.661016 1.078142
v -0.126464 0.788190 1.310751
v 0.101177 0.545294 0.854693
v -0.254452 0.672468 1.087302
v -0.140632 0.551020 0.859273
v -0.483621 -0.255634 0.797080
v -0.313069 -0.427207 0.797327
v -0.717917 -0.495384 0.152673
v -0.662989 -0.263058 1.021367
v -0.546853 -0.666447 0.152673
v -0.321885 -0.606204 1.021860
v -0.950350 -0.556754 0.191367
v -0.671806 -0.442055 1.245901
v -0.608223 -0.898881 0.191367
v -0.501253 -0.613628 1.246147
v -0.840657 -0.960251 0.230060
v -1.011721 -0.789188 0.230060
v -0.519821 -0.585769 -0.540146
v -0.392107 -0.576849 -0.384741
v -0.638615 -0.466975 -0.540146
v -0.383188 -0.449137 -0.229337
v -0.629695 -0.339261 -0.384740
v -0.501982 -0.330343 -0.229337
v 0.818132 0.188665 0.185866
v 0.468730 0.111392 1.083877
v 0.575509 0.264511 1.262246
v 0.528344 -0.123063 1.085398
v 0.984220 0.358395 0.251825
v 0.741902 0.183175 1.442135
v 0.880745 -0.045011 0.185866
v 0.694737 -0.204399 1.265288
v 1.109447 -0.108958 0.251825
v 0.801516 -0.051280 1.443657
v 1.275535 0.060772 0.317784
v 1.212921 0.294449 0.317784
v 0.771652 0.159967 -0.645835
v 0.628920 0.205355 -0.548489
v 0.817420 -0.001659 -0.648337
v 0.531956 0.089116 -0.453645
v 0.720457 -0.117897 -0.553493
v 0.577724 -0.072510 -0.456147
v -0.499083 0.220697 -0.414323
v -0.396850 0.353982 -0.411604
v -0.583838 0.520648 0.334171
v -0.446153 0.499450 -0.498573
v -0.732125 0.329503 0.334171
v -0.650619 0.232879 -0.504011
v -0.675231 0.744641 0.334186
v -0.597688 0.511632 -0.588261
v -0.971805 0.362351 0.334186
v -0.699921 0.378347 -0.590980
v -0.914911 0.777489 0.334202
v -1.063197 0.586344 0.334202
v -0.577702 0.539739 1.451094
v -0.380587 0.539406 1.290153
v -0.723438 0.346678 1.454823
v -0.329208 0.346013 1.132941
v -0.672059 0.153285 1.297610
v -0.474944 0.152952 1.136670
v 0.212689 -0.502235 -0.378143
v 0.053707 -0.556336 -0.382800
v 0.095889 -0.802016 0.315275
v 0.013364 -0.688646 -0.498768
v 0.323219 -0.719275 0.315275
v 0.331329 -0.580445 -0.489453
v 0.053781 -1.039990 0.330970
v 0.132004 -0.766856 -0.610078
v 0.508442 -0.874507 0.330970
v 0.290986 -0.712756 -0.605420
v 0.239004 -1.195223 0.346664
v 0.466334 -1.112481 0.346664
v 0.339879 -0.707410 1.437388
v 0.390392 -0.492529 1.295967
v 0.112549 -0.790152 1.437388
v 0.213574 -0.360390 1.154546
v -0.064269 -0.658013 1.295967
v -0.013757 -0.443132 1.154546
v 0.559474 0.316969 7.525290
v 0.345249 0.460279 7.130875
v 0.601828 0.969859 7.608549
v -0.069871 0.648193 7.250697
v 0.722789 0.781828 7.888375
v 0.279590 1.100742 7.694119
v -0.112204 0.621020 7.719165
v 0.201398 0.993602 8.026830
v 0.276753 0.416312 7.888873
v 0.475309 0.796502 8.146887
v 0.109215 -0.661261 6.178859
v 0.306081 -0.471339 5.795236
v 0.805892 -0.885463 6.271071
v 0.623529 -0.153251 5.936799
v 0.618513 -0.981369 6.506263
v 0.984678 -0.648844 6.379105
v 0.622857 -0.146584 6.407913
v 0.907794 -0.598512 6.681065
v 0.304993 -0.460551 6.557514
v 0.681492 -0.804024 6.759652
v 0.712056 -0.000000 7.205223
v 0.900000 -0.000000 -1.200000
v 0.779423 0.450000 -1.200000
v 0.779423 -0.450000 -1.200000
v 0.616659 0.356028 7.205223
v 0.450001 0.779423 -1.200000
v 0.616659 -0.356028 7.205223
v 0.450000 -0.779423 -1.200000
v 0.356028 -0.616659 7.205223
v -0.000000 -0.900000 -1.200000
v 0.384345 -0.231974 13.580482
v 0.384345 0.224763 13.580482
v 0.356028 0.616658 7.205223
v -0.000000 -0.712056 7.205223
v -0.450000 -0.779423 -1.200000
v -0.011201 -0.460343 13.580482
v -0.356028 -0.616659 7.205223
v -0.779423 -0.450000 -1.200000
v 0.000000 0.712056 7.205223
v 0.000000 0.900000 -1.200000
v -0.616659 -0.356028 7.205223
v -0.900000 -0.000000 -1.200000
v -0.011201 0.453131 13.580482
v -0.356028 0.616659 7.205223
v -0.450000 0.779423 -1.200000
v -0.406747 -0.231974 13.580482
v -0.712056 -0.000000 7.205223
v -0.779423 0.450000 -1.200000
v -0.616659 0.356028 7.205223
v -0.406747 0.224763 13.580482
v -0.000001 0.172624 18.340288
v -0.165296 -0.113676 18.340288
v 0.165294 -0.113676 18.340288
v 0.000015 -0.000014 21.167778
vn 0.696710 -0.657448 0.286979
vn 0.696710 -0.657448 0.286980
vn 0.696709 -0.657449 0.286980
vn 0.696710 -0.657448 0.286980
vn 0.696710 -0.657448 0.286980
vn 0.432047 0.823870 0.366842
vn 0.432047 0.823870 0.366842
vn 0.432047 0.823871 0.366842
vn 0.432048 0.823870 0.366843
vn 0.432047 0.823870 0.366843
vn -0.527346 -0.798907 0.289230
vn -0.527345 -0.798908 0.289230
vn -0.527345 -0.798907 0.289230
vn -0.527345 -0.798907 0.289231
vn -0.527343 -0.798909 0.289230
vn -0.085096 0.457030 0.885371
vn -0.880713 0.455744 0.129002
vn -0.059982 0.456122 0.887894
vn 0.701520 -0.280508 0.655122
vn -0.941872 0.320380 -0.101159
vn 0.780202 -0.487423 0.392050
vn 0.414876 -0.825607 -0.382427
vn 0.210028 -0.764812 -0.609058
vn -0.593767 -0.328700 -0.734436
vn -0.562462 -0.326061 -0.759817
vn -0.539479 -0.768315 0.344462
vn 0.533907 -0.768299 0.353072
vn 0.577798 -0.816179 -0.000962
vn 0.986584 0.078133 -0.143344
vn -0.582712 -0.812675 0.002368
vn -0.984196 0.080915 -0.157513
vn 0.985801 0.149839 -0.075800
vn 0.392628 0.779440 -0.488178
vn -0.986649 0.147188 -0.069714
vn -0.381415 0.781591 -0.493598
vn 0.444213 0.895267 -0.034220
vn -0.448413 0.893266 -0.031655
vn 0.407533 0.825896 0.389632
vn 0.983869 0.163884 0.071718
vn -0.353285 0.844255 0.403017
vn 0.543476 -0.752301 -0.372394
vn -0.970940 0.213651 0.107835
vn -0.593741 -0.724053 -0.351026
vn 0.102105 0.919635 -0.379271
vn 0.921727 0.104473 -0.373504
vn 0.139267 0.989246 0.044685
vn -0.811329 0.580078 0.072491
vn 0.989393 0.137519 0.046799
vn 0.582165 -0.808985 0.081403
vn -0.808452 0.581009 -0.093988
vn -0.868653 -0.299078 0.394961
vn 0.582219 -0.807961 -0.090661
vn -0.304728 -0.864687 0.399320
vn -0.317735 -0.947011 -0.047066
vn -0.946445 -0.319225 -0.048346
vn -0.219779 -0.823862 -0.522444
vn 0.695571 -0.708249 -0.120682
vn -0.824498 -0.219790 -0.521436
vn 0.888466 0.112860 0.444849
vn -0.710228 0.693903 -0.118634
vn 0.110285 0.888180 0.446064
vn -0.945476 0.324015 0.033001
vn -0.885225 0.342300 -0.314972
vn -0.088396 0.994368 0.058477
vn -0.618599 -0.724464 -0.304116
vn -0.114553 0.990334 -0.078206
vn 0.709433 0.608898 0.354890
vn -0.646469 -0.762682 0.019838
vn 0.390662 -0.917281 0.077324
vn 0.394450 -0.914762 -0.087292
vn 0.911910 -0.190871 0.363301
vn 0.978146 -0.207809 -0.006817
vn 0.748125 0.663520 -0.007146
vn 0.629245 0.666222 -0.400247
vn -0.257982 0.964386 -0.058349
vn 0.878745 -0.222157 -0.422437
vn -0.889415 0.290699 0.352754
vn 0.273102 -0.955725 -0.109564
vn -0.616170 -0.717527 0.324792
vn 0.327618 -0.915113 0.235021
vn 0.962772 -0.077980 0.258822
vn 0.996920 -0.070771 -0.033784
vn 0.589124 0.804774 -0.072602
vn 0.304924 -0.951620 -0.037962
vn -0.617595 -0.777880 -0.116101
vn 0.519725 0.853536 -0.036903
vn -0.341031 0.862107 -0.374791
vn -0.695421 -0.717400 -0.041547
vn -0.911334 0.116997 -0.394691
vn -0.425434 0.904340 -0.034292
vn -0.983352 0.178180 -0.035637
vn -0.418784 0.853748 0.309410
vn 0.492059 0.869961 0.032345
vn -0.930063 0.176604 0.322172
vn 0.949689 -0.037509 -0.310940
vn -0.701079 -0.710257 0.063427
vn 0.292229 -0.910339 -0.293064
vn 0.225419 0.939049 0.259564
vn -0.776785 0.577881 0.250317
vn -0.816849 0.575454 -0.040134
vn -0.912722 -0.390120 -0.121434
vn 0.248299 0.967520 -0.047475
vn 0.953779 0.281737 -0.104547
vn -0.891792 -0.450167 -0.045361
vn -0.146793 -0.904748 -0.399854
vn 0.972611 0.225972 -0.054454
vn 0.679477 -0.617753 -0.395844
vn -0.127421 -0.991516 -0.025696
vn 0.730307 -0.682500 -0.029070
vn 0.722040 -0.615284 0.316360
vn 0.965000 0.262134 0.007745
vn -0.152517 -0.930328 0.333509
vn 0.260007 0.899655 -0.350738
vn -0.916126 -0.398780 0.041080
vn -0.770966 0.542948 -0.332894
vn 0.952659 -0.283897 -0.108829
vn 0.495873 0.447781 -0.744044
vn 0.612502 0.377356 -0.694582
vn -0.306962 0.774330 -0.553342
vn 0.870210 -0.459155 0.178635
vn -0.455951 0.785313 -0.418798
vn -0.847291 0.377603 0.373516
vn -0.791698 0.157910 0.590152
vn 0.030165 -0.554181 0.831850
vn -0.020589 -0.554041 0.832235
vn -0.464008 -0.874643 -0.140342
vn 0.251460 -0.583653 -0.772086
vn 0.248408 -0.615749 -0.747761
vn 0.803946 0.103349 -0.585654
vn -0.593737 -0.799723 0.088994
vn 0.890833 0.288651 -0.350852
vn 0.595546 0.679312 0.428790
vn 0.372024 0.626737 0.684689
vn -0.487368 -0.038070 0.872366
vn -0.482523 -0.013516 0.875779
vn 0.999484 0.000045 0.032125
vn 0.999750 0.000000 0.022355
vn 0.865810 0.499873 0.022355
vn 0.865810 -0.499874 0.022355
vn 0.865596 0.499717 0.032036
vn 0.499875 0.865809 0.022355
vn 0.865643 -0.499654 0.031756
vn 0.499876 -0.865808 0.022355
vn 0.499878 -0.865525 0.031447
vn 0.000000 -0.999750 0.022355
vn 0.864712 -0.499242 0.055041
vn 0.864290 0.499744 0.057088
vn 0.499832 0.865533 0.031933
vn 0.000141 -0.999524 0.030861
vn -0.499874 -0.865810 0.022355
vn -0.000648 -0.998507 0.054626
vn -0.499681 -0.865670 0.030576
vn -0.865808 -0.499877 0.022355
vn 0.000144 0.999506 0.031422
vn 0.000000 0.999750 0.022355
vn -0.865614 -0.499797 0.030247
vn -0.999750 0.000000 0.022355
vn -0.000647 0.998319 0.057951
vn -0.499631 0.865681 0.031062
vn -0.499877 0.865808 0.022355
vn -0.865014 -0.498669 0.055495
vn -0.999538 0.000047 0.030383
vn -0.865810 0.499873 0.022355
vn -0.865566 0.499864 0.030528
vn -0.864592 0.499171 0.057534
vn 0.000756 0.994460 0.105109
vn -0.859629 -0.499301 0.108335
vn 0.860210 -0.498764 0.106171
vn 0.000042 0.006430 0.999979
vt 0.218750 0.250000
vt 0.218750 0.250000
vt 0.218750 0.250000
vt 0.218750 0.250000
vt 0.218750 0.250000
vt 0.218750 0.250000
vt 0.218750 0.250000
vt 0.218750 0.250000
vt 0.218750 0.250000
vt 0.218750 0.250000
vt 0.218750 0.250000
vt 0.218750 0.250000
vt 0.218750 0.250000
vt 0.218750 0.250000
vt 0.218750 0.250000
vt 0.085938 0.718750
vt 0.085938 0.718750
vt 0.085938 0.718750
vt 0.085938 0.718750
vt 0.085938 0.718750
vt 0.085938 0.718750
vt 0.085938 0.718750
vt 0.085938 0.718750
vt 0.085938 0.718750
vt 0.085938 0.718750
vt 0.085938 0.718750
vt 0.085938 0.718750
vt 0.085938 0.718750
vt 0.085938 0.718750
vt 0.085938 0.718750
vt 0.085938 0.718750
vt 0.085938 0.718750
vt 0.085938 0.718750
vt 0.085938 0.718750
vt 0.085938 0.718750
vt 0.085938 0.718750
vt 0.085938 0.718750
vt 0.085938 0.718750
vt 0.085938 0.718750
vt 0.085938 0.718750
vt 0.085938 0.718750
vt 0.085938 0.718750
vt 0.085938 0.718750
vt 0.085938 0.718750
vt 0.085938 0.718750
vt 0.085938 0.718750
vt 0.085938 0.718750
vt 0.085938 0.718750
vt 0.085938 0.718750
vt 0.085938 0.718750
vt 0.085938 0.718750
vt 0.085938 0.718750
vt 0.085938 0.718750
vt 0.085938 0.718750
vt 0.085938 0.718750
vt 0.085938 0.718750
vt 0.085938 0.718750
vt 0.085938 0.718750
vt 0.085938 0.718750
vt 0.085938 0.718750
vt 0.085938 0.718750
vt 0.085938 0.718750
vt 0.085938 0.718750
vt 0.085938 0.718750
vt 0.085938 0.718750
vt 0.085938 0.718750
vt 0.085938 0.718750
vt 0.085938 0.718750
vt 0.085938 0.718750
vt 0.085938 0.718750
vt 0.085938 0.718750
vt 0.085938 0.718750
vt 0.085938 0.718750
vt 0.085938 0.718750
vt 0.085938 0.718750
vt 0.085938 0.718750
vt 0.085938 0.718750
vt 0.085938 0.718750
vt 0.085938 0.718750
vt 0.085938 0.718750
vt 0.085938 0.718750
vt 0.085938 0.718750
vt 0.085938 0.718750
vt 0.085938 0.718750
vt 0.085938 0.718750
vt 0.085938 0.718750
vt 0.085938 0.718750
vt 0.085938 0.718750
vt 0.085938 0.718750
vt 0.085938 0.718750
vt 0.085938 0.718750
vt 0.085938 0.718750
vt 0.085938 0.718750
vt 0.085938 0.718750
vt 0.085938 0.718750
vt 0.085938 0.718750
vt 0.085938 0.718750
vt 0.085938 0.718750
vt 0.085938 0.718750
vt 0.085938 0.718750
vt 0.085938 0.718750
vt 0.085938 0.718750
vt 0.085938 0.718750
vt 0.085938 0.718750
vt 0.085938 0.718750
vt 0.085938 0.718750
vt 0.085938 0.718750
vt 0.085938 0.718750
vt 0.085938 0.718750
vt 0.085938 0.718750
vt 0.085938 0.718750
vt 0.085938 0.718750
vt 0.085938 0.718750
vt 0.085938 0.718750
vt 0.085938 0.718750
vt 0.085938 0.718750
vt 0.085938 0.718750
vt 0.085938 0.718750
vt 0.085938 0.718750
vt 0.085938 0.718750
vt 0.085938 0.718750
vt 0.085938 0.718750
vt 0.085938 0.718750
vt 0.085938 0.718750
vt 0.085938 0.718750
vt 0.085938 0.718750
vt 0.085938 0.718750
vt 0.085938 0.718750
vt 0.085938 0.718750
vt 0.085938 0.718750
vt 0.085938 0.718750
vt 0.085938 0.718750
vt 0.085938 0.718750
vt 0.085938 0.718750
vt 0.085938 0.718750
vt 0.078649 0.755149
vt 0.078649 0.755149
vt 0.078649 0.755149
vt 0.078649 0.755149
vt 0.078649 0.755149
vt 0.078649 0.755149
vt 0.078649 0.755149
vt 0.078649 0.755149
vt 0.078649 0.755149
vt 0.078649 0.755149
vt 0.078649 0.755149
vt 0.078649 0.755149
vt 0.078649 0.755149
vt 0.078649 0.755149
vt 0.078649 0.755149
vt 0.078649 0.755149
vt 0.078649 0.755149
vt 0.078649 0.755149
vt 0.078649 0.755149
vt 0.078649 0.755149
vt 0.078649 0.755149
vt 0.078649 0.755149
vt 0.078649 0.755149
vt 0.078649 0.755149
vt 0.078649 0.755149
vt 0.078649 0.755149
vt 0.078649 0.755149
vt 0.078649 0.755149
vt 0.078649 0.755149
vt 0.078649 0.755149
vt 0.078649 0.755149
vt 0.078649 0.755149
vt 0.078649 0.755149
vt 0.078649 0.755149
f 1/1/1 2/2/2 3/3/3
f 4/4/4 2/2/2 1/1/1
f 5/5/5 2/2/2 4/4/4
f 6/6/6 7/7/7 8/8/8
f 9/9/9 7/7/7 6/6/6
f 7/7/7 9/9/9 10/10/10
f 11/11/11 12/12/12 13/13/13
f 14/14/14 12/12/12 11/11/11
f 15/15/15 12/12/12 14/14/14
f 16/16/16 17/17/17 18/18/18
f 19/19/19 16/16/16 18/18/18
f 16/16/16 20/20/20 17/17/17
f 19/19/19 21/21/21 16/16/16
f 22/22/22 21/21/21 19/19/19
f 22/22/22 23/23/23 21/21/21
f 20/20/20 24/24/24 17/17/17
f 24/24/24 23/23/23 22/22/22
f 20/20/20 25/25/25 24/24/24
f 24/24/24 25/25/25 23/23/23
f 26/26/26 27/27/27 28/28/28
f 28/28/28 27/27/27 29/29/29
f 28/28/28 30/30/30 26/26/26
f 31/31/31 26/26/26 30/30/30
f 32/32/32 28/28/28 29/29/29
f 32/32/32 29/29/29 33/33/33
f 30/30/30 34/34/34 31/31/31
f 35/35/35 31/31/31 34/34/34
f 36/36/36 33/33/33 35/35/35
f 36/36/36 32/32/32 33/33/33
f 37/37/37 36/36/36 35/35/35
f 34/34/34 37/37/37 35/35/35
f 32/32/32 36/36/36 38/38/38
f 36/36/36 37/37/37 38/38/38
f 38/38/38 39/39/39 32/32/32
f 28/28/28 32/32/32 39/39/39
f 40/40/40 38/38/38 37/37/37
f 37/37/37 34/34/34 40/40/40
f 39/39/39 41/41/41 28/28/28
f 34/34/34 42/42/42 40/40/40
f 34/34/34 30/30/30 42/42/42
f 41/41/41 43/43/43 28/28/28
f 30/30/30 28/28/28 43/43/43
f 30/30/30 43/43/43 42/42/42
f 44/44/44 45/45/45 46/46/46
f 47/47/47 44/44/44 46/46/46
f 48/48/48 46/46/46 45/45/45
f 48/48/48 45/45/45 49/49/49
f 46/46/46 50/50/50 47/47/47
f 51/51/51 47/47/47 50/50/50
f 52/52/52 48/48/48 49/49/49
f 52/52/52 49/49/49 53/53/53
f 53/53/53 51/51/51 54/54/54
f 54/54/54 52/52/52 53/53/53
f 55/55/55 54/54/54 51/51/51
f 50/50/50 55/55/55 51/51/51
f 52/52/52 54/54/54 56/56/56
f 54/54/54 55/55/55 56/56/56
f 56/56/56 57/57/57 52/52/52
f 48/48/48 52/52/52 57/57/57
f 55/55/55 58/58/58 56/56/56
f 55/55/55 50/50/50 58/58/58
f 57/57/57 59/59/59 48/48/48
f 46/46/46 48/48/48 59/59/59
f 50/50/50 60/60/60 58/58/58
f 50/50/50 46/46/46 60/60/60
f 59/59/59 61/61/61 46/46/46
f 46/46/46 61/61/61 60/60/60
f 62/62/62 63/63/63 64/64/64
f 65/65/65 63/63/63 62/62/62
f 64/64/64 66/66/66 62/62/62
f 66/66/66 64/64/64 67/67/67
f 62/62/62 68/68/68 65/65/65
f 69/69/69 65/65/65 68/68/68
f 68/68/68 70/70/70 69/69/69
f 71/71/71 69/69/69 70/70/70
f 67/67/67 71/71/71 72/72/72
f 70/70/70 72/72/72 71/71/71
f 67/67/67 73/73/73 66/66/66
f 72/72/72 73/73/73 67/67/67
f 66/66/66 73/73/73 74/74/74
f 73/73/73 72/72/72 74/74/74
f 74/74/74 75/75/75 66/66/66
f 62/62/62 66/66/66 75/75/75
f 72/72/72 76/76/76 74/74/74
f 76/76/76 72/72/72 70/70/70
f 75/75/75 77/77/77 62/62/62
f 70/70/70 78/78/78 76/76/76
f 78/78/78 70/70/70 68/68/68
f 62/62/62 77/77/77 79/79/79
f 68/68/68 79/79/79 78/78/78
f 68/68/68 62/62/62 79/79/79
f 80/80/80 81/81/81 82/82/82
f 82/82/82 81/81/81 83/83/83
f 82/82/82 84/84/84 80/80/80
f 85/85/85 80/80/80 84/84/84
f 83/83/83 86/86/86 82/82/82
f 86/86/86 83/83/83 87/87/87
f 84/84/84 88/88/88 85/85/85
f 89/89/89 85/85/85 88/88/88
f 87/87/87 89/89/89 90/90/90
f 87/87/87 90/90/90 86/86/86
f 91/91/91 90/90/90 89/89/89
f 88/88/88 91/91/91 89/89/89
f 86/86/86 90/90/90 92/92/92
f 90/90/90 91/91/91 92/92/92
f 92/92/92 93/93/93 86/86/86
f 82/82/82 86/86/86 93/93/93
f 94/94/94 92/92/92 91/91/91
f 94/94/94 91/91/91 88/88/88
f 93/93/93 95/95/95 82/82/82
f 88/88/88 96/96/96 94/94/94
f 96/96/96 88/88/88 84/84/84
f 95/95/95 97/97/97 82/82/82
f 84/84/84 97/97/97 96/96/96
f 84/84/84 82/82/82 97/97/97
f 98/98/98 99/99/99 100/100/100
f 100/100/100 99/99/99 101/101/101
f 100/100/100 102/102/102 98/98/98
f 103/103/103 98/98/98 102/102/102
f 101/101/101 104/104/104 100/100/100
f 104/104/104 101/101/101 105/105/105
f 102/102/102 106/106/106 103/103/103
f 107/107/107 103/103/103 106/106/106
f 108/108/108 105/105/105 107/107/107
f 105/105/105 108/108/108 104/104/104
f 106/106/106 109/109/109 107/107/107
f 109/109/109 108/108/108 107/107/107
f 109/109/109 106/106/106 110/110/110
f 108/108/108 109/109/109 110/110/110
f 106/106/106 111/111/111 110/110/110
f 106/106/106 102/102/102 111/111/111
f 110/110/110 112/112/112 108/108/108
f 104/104/104 108/108/108 112/112/112
f 102/102/102 113/113/113 111/111/111
f 112/112/112 114/114/114 104/104/104
f 100/100/100 104/104/104 114/114/114
f 115/115/115 113/113/113 102/102/102
f 102/102/102 100/100/100 115/115/115
f 114/114/114 115/115/115 100/100/100
f 116/116/116 117/117/117 118/118/118
f 118/118/118 117/117/117 119/119/119
f 116/116/116 118/118/118 120/120/120
f 118/118/118 119/119/119 121/121/121
f 121/121/121 119/119/119 122/122/122
f 121/121/121 122/122/122 123/123/123
f 124/124/124 116/116/116 120/120/120
f 123/123/123 122/122/122 124/124/124
f 124/124/124 120/120/120 125/125/125
f 123/123/123 124/124/124 125/125/125
f 126/126/126 127/127/127 128/128/128
f 128/128/128 127/127/127 129/129/129
f 126/126/126 128/128/128 130/130/130
f 128/128/128 129/129/129 131/131/131
f 131/131/131 129/129/129 132/132/132
f 131/131/131 132/132/132 133/133/133
f 134/134/134 126/126/126 130/130/130
f 133/133/133 132/132/132 134/134/134
f 134/134/134 130/130/130 135/135/135
f 133/133/133 134/134/134 135/135/135
f 136/136/136 137/137/137 138/138/138
f 136/136/136 139/139/139 137/137/137
f 136/136/136 138/138/138 140/140/140
f 140/140/140 138/138/138 141/141/141
f 136/136/136 142/142/142 139/139/139
f 142/142/142 143/143/143 139/139/139
f 142/142/142 144/144/144 143/143/143
f 144/144/144 145/145/145 143/143/143
f 146/146/146 142/142/142 136/136/136
f 146/146/146 144/144/144 142/142/142
f 147/147/147 136/136/136 140/140/140
f 146/146/146 136/136/136 147/147/147
f 140/140/140 141/141/141 148/148/148
f 147/147/147 140/140/140 148/148/148
f 144/144/144 149/149/149 145/145/145
f 149/149/149 150/150/150 145/145/145
f 151/151/151 144/144/144 146/146/146
f 151/151/151 149/149/149 144/144/144
f 149/149/149 152/152/152 150/150/150
f 151/151/151 152/152/152 149/149/149
f 152/152/152 153/153/153 150/150/150
f 154/154/154 148/148/148 141/141/141
f 154/154/154 141/141/141 155/155/155
f 152/152/152 156/156/156 153/153/153
f 156/156/156 157/157/157 153/153/153
f 158/158/158 148/148/148 154/154/154
f 147/147/147 148/148/148 158/158/158
f 159/159/159 154/154/154 155/155/155
f 158/158/158 154/154/154 159/159/159
f 159/159/159 155/155/155 160/160/160
f 161/161/161 156/156/156 152/152/152
f 161/161/161 152/152/152 151/151/151
f 156/156/156 162/162/162 157/157/157
f 161/161/161 162/162/162 156/156/156
f 162/162/162 163/163/163 157/157/157
f 164/164/164 160/160/160 163/163/163
f 164/164/164 159/159/159 160/160/160
f 162/162/162 164/164/164 163/163/163
f 165/165/165 159/159/159 164/164/164
f 165/165/165 164/164/164 162/162/162
f 158/158/158 159/159/159 165/165/165
f 165/165/165 162/162/162 161/161/161
f 166/166/166 147/147/147 158/158/158
f 166/166/166 158/158/158 165/165/165
f 167/167/167 165/165/165 161/161/161
f 167/167/167 161/161/161 151/151/151
f 166/166/166 165/165/165 167/167/167
f 168/168/168 147/147/147 166/166/166
f 167/167/167 151/151/151 168/168/168
f 168/168/168 146/146/146 147/147/147
f 168/168/168 151/151/151 146/146/146
f 166/166/166 169/169/169 168/168/168
f 168/168/168 169/169/169 167/167/167
f 167/167/167 169/169/169 166/166/166
