v -0.034017 -0.048492 9.189188
v 3.981130 -6.774550 2.777978
v 6.456551 1.071510 6.346582
v 0.598043 -9.558063 3.838768
v -3.123675 -7.246776 2.777978
v -6.615718 0.202656 6.346582
v -0.046084 0.004265 9.215858
v -1.381601 7.807756 2.448599
v -3.720290 -0.330814 6.000141
v 0.808769 10.325253 3.779377
v 2.555101 7.481693 2.448599
v 3.522925 -0.930744 6.000141
v -0.117386 -0.057255 9.169645
v -6.378891 -2.203995 2.558723
v -0.015482 -5.508217 6.186642
v -8.366064 1.008118 3.703404
v -5.627983 3.609934 2.558722
v 1.366128 5.188942 6.186642
v 0.047003 -0.086697 9.302814
v 6.485051 4.668358 3.530412
v -1.666502 6.373695 7.009802
v 9.577258 1.521845 4.224311
v 7.689085 -2.465272 3.530412
v 0.548823 -6.751606 7.009803
v -0.196558 -0.193855 10.042514
v -1.541842 -6.664834 3.589025
v 5.064311 -4.294186 7.090670
v -5.695420 -5.742239 4.745551
v -6.655218 -1.597100 3.589025
v -4.343888 5.030037 7.090671
v 0.135237 0.262112 9.999186
v 3.290567 5.609327 3.062723
v -3.367967 4.084740 6.761867
v 6.768999 4.549208 4.369112
v 6.306636 0.942329 3.062723
v 2.181358 -4.502163 6.761867
v -0.171468 0.149361 9.932814
v -6.867458 2.234958 1.966052
v -4.135911 -4.941620 6.170228
v -6.136167 6.522859 3.510037
v -1.809262 6.968717 1.966052
v 5.170764 3.768120 6.170228
v 0.217181 -0.186306 9.938426
v 5.443506 -2.818518 3.805171
v 2.626623 2.981697 7.162378
v 5.333506 -5.873777 4.875554
v 2.283677 -5.661031 3.805171
v -3.187208 -2.248299 7.162378
v 0.129921 -0.053459 11.806950
v 1.800101 -7.378558 4.787230
v 6.609606 -0.879730 8.894197
v -2.287342 -9.030382 5.752919
v -4.992659 -5.549437 4.787230
v -5.888526 2.485703 8.894197
v -0.111278 0.032562 11.771082
v -1.875458 7.525638 5.192808
v -6.282729 0.585094 9.168253
v 1.956711 9.387553 5.973474
v 4.646976 6.083807 5.192807
v 5.718024 -2.067757 9.168253
v -0.193873 -0.102478 11.738570
v -5.547332 -1.844494 5.823257
v -1.120308 -5.981041 9.112645
v -6.572736 1.808566 6.805128
v -3.707677 4.296085 5.823257
v 2.264510 5.317131 9.112644
v 0.002593 -0.142448 11.858586
v 7.000035 1.842861 5.772773
v -0.242338 4.771172 9.514317
v 9.260208 -1.032112 6.432525
v 6.493882 -3.424035 5.772772
v -1.173617 -4.919495 9.514317
v -0.060883 -0.089661 12.908361
v -1.622805 -5.900136 6.441023
v 4.693597 -3.901001 10.479324
v -5.534712 -5.026157 7.081143
v -6.001291 -1.045055 6.441022
v -3.362465 5.031952 10.479324
v 0.149123 0.108135 12.947209
v 0.163032 5.478987 7.938673
v -5.168049 3.578773 11.115288
v 3.972317 4.695955 8.386149
v 5.429426 1.090315 7.938673
v 4.521692 -4.496029 11.115288
v -0.174765 0.009968 12.863783
v -3.658971 3.946334 7.334141
v -1.894353 -1.750763 10.959492
v -3.514081 6.418942 7.712234
v -1.404572 5.120960 7.334141
v 2.253560 0.410454 10.959492
v 0.134990 -0.133888 13.013946
v 4.431344 -1.147375 6.562407
v 2.406052 3.663960 10.306133
v 4.245327 -4.265162 7.480157
v 1.126634 -4.435338 6.562408
v -3.674350 -2.385628 10.306134
v -0.041150 0.090569 13.990692
v -4.581765 -3.378531 8.344796
v 1.693282 -3.921730 12.473969
v -7.219358 -1.596097 8.311525
v -5.651587 1.174474 8.344796
v -0.275104 4.455437 12.473968
v 0.112502 -0.012653 13.875290
v 3.988867 1.524459 8.366764
v -0.891404 2.487686 12.099258
v 5.987616 0.224072 8.624773
v 4.099969 -1.232910 8.366765
v -0.686985 -2.585651 12.099259
v 0.041257 0.191700 13.847727
v -2.524495 2.528765 8.460606
v -3.627900 -1.495148 11.827263
v -0.735876 4.615908 8.991006
v 1.656960 3.263257 8.460607
v 4.065639 -0.143742 11.827263
v -0.031454 -0.122746 13.787393
v 2.792703 -3.877943 9.420827
v 4.341234 0.922447 12.123676
v 0.554333 -5.780814 9.876258
v -2.026397 -4.376870 9.420827
v -4.525522 0.004459 12.123676
v -0.077321 0.038460 15.826767
v -3.637772 1.158877 10.310662
v -2.413468 -3.111118 13.640908
v -3.164162 3.854941 10.968513
v -0.428658 3.754467 10.310662
v 3.491043 1.664558 13.640908
v 0.018763 -0.043907 15.829163
v 4.295520 -0.385359 9.186093
v 2.208303 4.366028 13.761859
v 4.217103 -3.768272 9.424163
v 0.867666 -4.249453 9.186094
v -4.098673 -2.743595 13.761858
v 0.048720 0.056007 15.850256
v 0.495080 3.717626 8.930969
v -3.980530 2.125824 13.494635
v 3.702615 3.571860 9.377375
v 3.724808 0.361092 8.930969
v 1.961909 -4.049927 13.494634
v -0.061389 -0.137573 15.798429
v -0.661255 -2.905084 9.021106
v 3.251718 -2.679600 13.234271
v -3.510894 -2.129086 9.710239
v -2.758033 0.726754 9.021106
v -0.606186 4.002686 13.234271
v -0.022802 0.091049 17.257799
v -1.839020 2.006073 11.268875
v -3.923187 -0.845036 14.989804
v 0.413718 3.575449 11.879926
v 2.209696 1.498855 11.268876
v 3.526125 -1.778275 14.989805
v 0.019072 -0.090698 17.228516
v 2.195547 -1.904877 10.824377
v 4.486799 1.000038 14.742520
v -0.347334 -3.594033 11.537374
v -2.485681 -1.415277 10.824378
v -4.126284 1.900860 14.742520
v -0.006829 -0.009190 17.198629
v 3.205651 2.441840 11.264586
v -1.257689 4.265343 15.417988
v 5.256323 0.163637 11.412512
v 3.359528 -2.244192 11.264585
v -0.974568 -4.356579 15.417987
v -0.041801 0.080803 17.194305
v -1.856829 -2.688231 10.901098
v 2.437732 -2.981117 15.058992
v -4.421563 -1.449268 11.300085
v -3.186271 1.117237 10.901098
v -0.008336 4.020638 15.058991
v -0.109445 0.033104 20.051847
v 2.080699 1.968833 11.203252
v -1.706141 4.390747 16.536085
v 4.402942 -0.605337 12.267694
v 1.457723 -2.434233 11.203251
v -2.852366 -3.710541 16.536085
v 0.092543 0.077522 19.895456
v -1.120817 -2.969266 11.904744
v 3.204213 -3.620735 16.211977
v -4.056308 -1.403406 13.364705
v -2.775847 1.667336 11.904743
v 0.159091 4.910240 16.211979
v 0.069101 0.073029 19.929956
v 1.230778 -2.126027 12.144701
v 3.869564 0.782131 16.843235
v -1.262888 -3.735507 13.074810
v -2.209911 -0.922688 12.144702
v -2.461027 2.996178 16.843235
v -0.003538 -0.095795 19.823339
v -1.869411 1.904020 12.446176
v -3.523213 -1.797298 17.003036
v 0.064444 4.127493 13.224939
v 1.925735 1.842930 12.446177
v 3.459550 -1.909698 17.003035
v -0.027964 -0.163109 10.630671
v -5.821705 -2.782172 5.475821
v 0.639203 -4.298943 8.018607
v -7.963414 -0.641620 6.648911
v -6.094440 1.740779 5.475821
v 0.137392 4.022919 8.018606
v 0.029714 0.085640 11.384021
v 2.425913 5.720260 5.985834
v -3.607953 3.183868 9.061111
v 5.715121 5.221718 6.809838
v 5.878022 1.898932 5.985834
v 2.743649 -3.847069 9.061111
v 0.005420 0.070530 10.639507
v -4.848024 4.126421 4.884568
v -3.815632 -2.603855 8.144594
v -3.606592 7.237363 5.781158
v -0.367477 6.384571 4.884569
v 4.428213 1.550957 8.144595
v -0.039643 -0.091248 10.552379
v 5.689393 -3.361406 5.015252
v 4.487624 3.492256 8.187892
v 4.206887 -6.870451 5.842605
v 0.402643 -6.673055 5.015252
v -5.239571 -2.600914 8.187892
v -0.218458 0.036865 11.286214
v -6.340419 0.082401 5.700718
v -2.351761 -5.061398 8.818816
v -6.684680 3.706742 6.615963
v -3.396497 5.269507 5.700718
v 3.064819 4.482460 8.818815
v 0.240527 -0.131287 11.206542
v 5.101015 0.892574 4.425197
v 0.750396 4.431114 7.865576
v 6.306390 -2.057982 5.875003
v 3.619349 -3.772194 4.425197
v -1.975751 -4.151684 7.865575
v 0.089756 0.213505 11.229738
v -1.043475 6.092893 5.186905
v -5.778828 1.813385 8.436806
v 2.782564 6.773930 6.298199
v 5.026807 3.601270 5.186904
v 5.390003 -2.771000 8.436807
v -0.101150 -0.103527 11.229190
v 1.375297 -7.184728 4.213840
v 6.113566 -1.019745 8.078900
v -2.582571 -8.695595 5.413641
v -5.125534 -5.307263 4.213840
v -5.847440 2.434639 8.078899
v -2.678069 0.814503 14.938441
v 2.678081 -0.414530 23.683455
v 2.678081 0.814503 14.938443
v -2.678069 -0.414530 23.683456
v -0.814488 2.678062 14.938442
v -0.814488 -2.678089 14.938440
v 0.414544 -2.678087 23.683455
v 0.414544 2.678062 23.683458
v -2.678079 -0.814529 14.938440
v 2.678071 -0.814529 14.938443
v 2.678071 0.414502 23.683456
v -2.678079 0.414502 23.683458
v 0.814515 2.678062 14.938442
v -0.414518 -2.678089 23.683456
v 0.814515 -2.678089 14.938440
v -0.414518 2.678062 23.683456
v -0.060929 0.073189 17.636612
v -3.867292 -2.918270 13.962614
v 1.159647 -3.498463 16.906006
v -5.839579 -1.284623 13.689551
v -4.801231 1.056435 13.962615
v -0.558724 3.814674 16.906004
v 0.035566 -0.013569 17.611403
v 4.450432 2.254299 13.124196
v -0.684283 3.802826 16.498232
v 6.300406 0.238858 13.007258
v 4.618582 -1.918889 13.124196
v -0.374903 -3.875507 16.498232
v 0.052478 0.073605 17.544327
v -3.054858 3.680430 13.817712
v -4.284166 -1.149887 16.228853
v -0.922852 5.626145 14.104007
v 1.744617 4.523482 13.817713
v 4.546481 0.401260 16.228855
v -0.032013 -0.063110 17.513744
v 2.890171 -4.091845 14.487556
v 4.497299 0.708076 16.664980
v 0.561507 -5.795873 14.504833
v -2.066865 -4.605053 14.487558
v -4.623248 -0.236183 16.664980
v -0.026824 0.121666 14.700487
v -5.619187 -0.175631 10.965849
v -1.486748 -4.133652 14.106671
v -6.199073 2.713935 10.542313
v -3.729852 4.322914 10.965849
v 1.989477 4.143311 14.106668
v 0.040665 -0.048630 14.692648
v 5.798562 -0.888779 10.234120
v 2.205628 4.026527 13.787896
v 5.966958 -4.000586 9.920527
v 3.029487 -5.041244 10.234119
v -2.889248 -3.613678 13.787895
v 0.103559 0.036518 14.616844
v -0.320406 5.800799 11.151568
v -4.859843 2.081200 13.627577
v 3.033226 6.032033 11.188364
v 4.911619 3.244208 11.151567
v 4.766661 -2.622726 13.627578
v -0.109762 -0.097961 14.586624
v -0.450571 -4.785091 11.762535
v 3.287807 -1.777359 13.954607
v -2.922813 -4.951913 11.621698
v -4.007164 -2.723910 11.762536
v -3.256038 2.015045 13.954606
v -0.183956 0.044281 20.875341
v -2.268538 -1.955554 16.962933
v 0.888100 -2.482132 20.402521
v -3.701385 -0.782212 16.372868
v -2.941029 0.906470 16.962931
v -0.349230 2.783760 20.402521
v 0.193547 -0.007202 20.781139
v 2.303789 1.459498 17.097151
v -0.526873 2.505936 19.981272
v 3.548863 0.127992 16.889311
v 2.414952 -1.299370 17.097151
v -0.322344 -2.570156 19.981272
v 0.032179 0.189167 20.783850
v -1.882214 2.119332 16.916662
v -2.663277 -0.966866 19.882023
v -0.572081 3.629211 16.759466
v 1.174184 2.656202 16.916662
v 2.960249 0.020935 19.882023
v -0.018086 -0.197632 20.781954
v 1.838407 -2.219952 17.131290
v 2.928827 0.610386 20.251373
v 0.320367 -3.466724 16.668362
v -1.420897 -2.557392 17.131292
v -3.068030 -0.010475 20.251375
vn -0.003018 -0.004307 0.999986
vn 0.432916 -0.736641 0.519561
vn 0.608676 0.101066 0.786956
vn 0.053351 -0.852140 0.520587
vn -0.338617 -0.785538 0.517947
vn -0.621104 0.019019 0.783498
vn -0.004090 0.000394 0.999992
vn -0.151896 0.858788 0.489295
vn -0.421352 -0.037467 0.906123
vn 0.068208 0.870589 0.487260
vn 0.281635 0.824767 0.490347
vn 0.400733 -0.105875 0.910057
vn -0.010494 -0.005101 0.999932
vn -0.783210 -0.270650 0.559759
vn -0.001514 -0.558209 0.829699
vn -0.822182 0.099046 0.560542
vn -0.695453 0.446120 0.563313
vn 0.139594 0.530070 0.836384
vn 0.004143 -0.007635 0.999962
vn 0.667318 0.480386 0.569135
vn -0.149371 0.571001 0.807246
vn 0.831123 0.132076 0.540177
vn 0.785634 -0.251875 0.565100
vn 0.048681 -0.598982 0.799281
vn -0.016299 -0.016060 0.999738
vn -0.174506 -0.754475 0.632705
vn 0.449904 -0.381415 0.807533
vn -0.540777 -0.545222 0.640542
vn -0.753159 -0.180694 0.632535
vn -0.385741 0.446720 0.807245
vn 0.011262 0.021785 0.999699
vn 0.399208 0.680623 0.614317
vn -0.329062 0.399026 0.855860
vn 0.654110 0.439607 0.615537
vn 0.774580 0.115709 0.621801
vn 0.216168 -0.446286 0.868390
vn -0.014339 0.012495 0.999819
vn -0.833509 0.271222 0.481354
vn -0.397467 -0.474927 0.785153
vn -0.583573 0.620332 0.524052
vn -0.220075 0.847785 0.482521
vn 0.498305 0.363069 0.787320
vn 0.018159 -0.015614 0.999713
vn 0.644787 -0.333824 0.687613
vn 0.262949 0.298576 0.917447
vn 0.508015 -0.559451 0.654932
vn 0.271098 -0.672017 0.689129
vn -0.320011 -0.225749 0.920125
vn 0.009426 -0.003837 0.999948
vn 0.176762 -0.724380 0.666355
vn 0.517447 -0.068854 0.852941
vn -0.188733 -0.745076 0.639719
vn -0.494875 -0.550022 0.672736
vn -0.466188 0.196845 0.862508
vn -0.008089 0.002341 0.999965
vn -0.177323 0.711445 0.680002
vn -0.489807 0.045574 0.870639
vn 0.156900 0.752701 0.639394
vn 0.442414 0.579112 0.684763
vn 0.449668 -0.162627 0.878266
vn -0.014060 -0.007499 0.999873
vn -0.568032 -0.188889 0.801037
vn -0.088395 -0.472099 0.877103
vn -0.590237 0.162418 0.790722
vn -0.383636 0.444564 0.809435
vn 0.180808 0.424430 0.887224
vn 0.000175 -0.010264 0.999947
vn 0.659040 0.173527 0.731816
vn -0.019467 0.382760 0.923643
vn 0.736833 -0.082113 0.671070
vn 0.607355 -0.320290 0.727004
vn -0.093348 -0.391160 0.915576
vn -0.004015 -0.005999 0.999974
vn -0.155660 -0.565942 0.809617
vn 0.337916 -0.280777 0.898319
vn -0.470522 -0.427285 0.772034
vn -0.576555 -0.100378 0.810869
vn -0.242402 0.362810 0.899783
vn 0.009904 0.007213 0.999925
vn 0.014384 0.482751 0.875640
vn -0.355419 0.246053 0.901740
vn 0.329091 0.389044 0.860433
vn 0.477228 0.095842 0.873538
vn 0.310027 -0.308315 0.899347
vn -0.011751 0.000637 0.999931
vn -0.339556 0.366283 0.866336
vn -0.143296 -0.132493 0.980771
vn -0.288955 0.527833 0.798684
vn -0.130859 0.476844 0.869193
vn 0.171261 0.031140 0.984734
vn 0.008937 -0.008932 0.999920
vn 0.456382 -0.118176 0.881901
vn 0.184167 0.280518 0.942015
vn 0.378099 -0.379879 0.844235
vn 0.116037 -0.456843 0.881947
vn -0.281258 -0.182569 0.942105
vn -0.002511 0.005633 0.999981
vn -0.388055 -0.286152 0.876088
vn 0.112262 -0.259864 0.959098
vn -0.568991 -0.125802 0.812665
vn -0.477091 0.099173 0.873240
vn -0.018102 0.294196 0.955574
vn 0.007067 -0.000837 0.999975
vn 0.355802 0.135928 0.924624
vn -0.062148 0.173400 0.982889
vn 0.490928 0.018384 0.871006
vn 0.365489 -0.109924 0.924302
vn -0.047857 -0.180121 0.982480
vn 0.002645 0.012051 0.999924
vn -0.228347 0.228779 0.946318
vn -0.252415 -0.104031 0.962011
vn -0.061588 0.386505 0.920229
vn 0.149455 0.294426 0.943916
vn 0.282008 -0.009988 0.959360
vn -0.001965 -0.007721 0.999968
vn 0.225598 -0.313275 0.922477
vn 0.293235 0.062326 0.954007
vn 0.041924 -0.437315 0.898331
vn -0.163478 -0.353071 0.921204
vn -0.305161 0.000361 0.952301
vn -0.004320 0.002102 0.999988
vn -0.282218 0.089950 0.955124
vn -0.149634 -0.192916 0.969739
vn -0.227751 0.277480 0.933346
vn -0.033326 0.291522 0.955983
vn 0.216603 0.103249 0.970785
vn 0.001030 -0.002406 0.999997
vn 0.358262 -0.032133 0.933068
vn 0.133829 0.264590 0.955030
vn 0.330849 -0.295641 0.896178
vn 0.072339 -0.354155 0.932385
vn -0.248184 -0.166098 0.954367
vn 0.002749 0.003092 0.999991
vn 0.042834 0.321652 0.945889
vn -0.246676 0.131727 0.960104
vn 0.296548 0.286037 0.911176
vn 0.322328 0.031301 0.946110
vn 0.121585 -0.250950 0.960334
vn -0.003468 -0.007748 0.999964
vn -0.057923 -0.254457 0.965348
vn 0.205679 -0.169542 0.963822
vn -0.282898 -0.171552 0.943684
vn -0.242264 0.063817 0.968109
vn -0.038505 0.253852 0.966476
vn -0.001180 0.004739 0.999988
vn -0.135782 0.148073 0.979611
vn -0.224771 -0.048406 0.973209
vn 0.028825 0.249309 0.967995
vn 0.163230 0.110739 0.980353
vn 0.202188 -0.101922 0.974029
vn 0.000987 -0.004726 0.999988
vn 0.166983 -0.144818 0.975266
vn 0.258414 0.057546 0.964319
vn -0.024782 -0.256462 0.966237
vn -0.189146 -0.107711 0.976024
vn -0.237832 0.109538 0.965110
vn -0.000400 -0.000446 1.000000
vn 0.231189 0.176124 0.956834
vn -0.070016 0.237338 0.968901
vn 0.364884 0.011345 0.930984
vn 0.242277 -0.161791 0.956622
vn -0.054230 -0.242292 0.968686
vn -0.002203 0.004273 0.999988
vn -0.139488 -0.201986 0.969404
vn 0.139403 -0.170480 0.975451
vn -0.313774 -0.102824 0.943914
vn -0.238908 0.083752 0.967424
vn -0.000497 0.229363 0.973341
vn -0.004934 0.001446 0.999987
vn 0.154023 0.145699 0.977266
vn -0.089160 0.229584 0.969196
vn 0.294562 -0.040489 0.954774
vn 0.107999 -0.180241 0.977676
vn -0.149133 -0.194092 0.969581
vn 0.004185 0.003535 0.999985
vn -0.078626 -0.208161 0.974929
vn 0.170063 -0.192189 0.966510
vn -0.254245 -0.087982 0.963130
vn -0.194455 0.116737 0.973940
vn 0.008371 0.260229 0.965511
vn 0.003173 0.003284 0.999990
vn 0.085735 -0.148147 0.985242
vn 0.201038 0.040597 0.978742
vn -0.081052 -0.239684 0.967462
vn -0.154049 -0.064381 0.985964
vn -0.127917 0.155659 0.979494
vn -0.000111 -0.004338 0.999991
vn -0.127243 0.129654 0.983361
vn -0.181594 -0.092582 0.979006
vn 0.004084 0.261602 0.965167
vn 0.131052 0.125505 0.983399
vn 0.178248 -0.098344 0.979059
vn -0.002191 -0.012922 0.999914
vn -0.589511 -0.281768 0.757023
vn 0.058533 -0.393633 0.917402
vn -0.676305 -0.054484 0.734604
vn -0.621785 0.177616 0.762782
vn 0.012728 0.372590 0.927909
vn 0.002199 0.006390 0.999977
vn 0.239712 0.565379 0.789231
vn -0.299176 0.263950 0.916965
vn 0.487276 0.445209 0.751233
vn 0.582245 0.188034 0.790971
vn 0.228112 -0.319904 0.919579
vn 0.000439 0.005590 0.999984
vn -0.517040 0.440032 0.734194
vn -0.342298 -0.233629 0.910082
vn -0.321392 0.644884 0.693421
vn -0.039088 0.679452 0.732678
vn 0.396184 0.138735 0.907629
vn -0.003142 -0.007258 0.999969
vn 0.590341 -0.348727 0.727934
vn 0.384595 0.299313 0.873211
vn 0.374169 -0.611053 0.697575
vn 0.041517 -0.688624 0.723929
vn -0.446061 -0.221379 0.867191
vn -0.016426 0.002743 0.999861
vn -0.635621 0.008200 0.771957
vn -0.193177 -0.415822 0.888692
vn -0.580341 0.321798 0.748098
vn -0.342015 0.530704 0.775486
vn 0.253213 0.370269 0.893747
vn 0.018142 -0.009953 0.999786
vn 0.618141 0.108190 0.778586
vn 0.069187 0.408734 0.910028
vn 0.612468 -0.199880 0.764808
vn 0.436922 -0.455422 0.775687
vn -0.181550 -0.381426 0.906396
vn 0.006773 0.016101 0.999847
vn -0.110109 0.642748 0.758124
vn -0.478921 0.150221 0.864910
vn 0.251402 0.612052 0.749793
vn 0.530217 0.379831 0.758023
vn 0.446607 -0.229617 0.864765
vn -0.007647 -0.007790 0.999940
vn 0.143342 -0.748538 0.647413
vn 0.516698 -0.086147 0.851823
vn -0.220425 -0.742221 0.632867
vn -0.531385 -0.550164 0.644166
vn -0.491179 0.204566 0.846697
vn -0.155956 0.047420 0.986625
vn 0.103673 -0.016100 0.994481
vn 0.155956 0.047420 0.986625
vn -0.103672 -0.016100 0.994481
vn -0.047420 0.155956 0.986625
vn -0.047420 -0.155956 0.986625
vn 0.016100 -0.103673 0.994481
vn 0.016100 0.103672 0.994481
vn -0.155956 -0.047420 0.986625
vn 0.155956 -0.047420 0.986625
vn 0.103672 0.016100 0.994481
vn -0.103672 0.016100 0.994481
vn 0.047420 0.155956 0.986625
vn -0.016100 -0.103672 0.994481
vn 0.047420 -0.155956 0.986625
vn -0.016100 0.103672 0.994481
vn -0.003077 0.003732 0.999988
vn -0.231847 -0.174957 0.956889
vn 0.060272 -0.181674 0.981510
vn -0.347843 -0.076523 0.934425
vn -0.287509 0.063256 0.955687
vn -0.028923 0.197691 0.979838
vn 0.001766 -0.000692 0.999998
vn 0.279463 0.141565 0.949663
vn -0.036288 0.201275 0.978862
vn 0.387111 0.014675 0.921917
vn 0.289976 -0.120473 0.949421
vn -0.019876 -0.205006 0.978559
vn 0.002644 0.003732 0.999990
vn -0.184879 0.222732 0.957189
vn -0.228354 -0.061323 0.971645
vn -0.054020 0.329386 0.942649
vn 0.105449 0.273446 0.956090
vn 0.241967 0.021340 0.970050
vn -0.001640 -0.003236 0.999993
vn 0.167734 -0.237517 0.956792
vn 0.234091 0.036870 0.971515
vn 0.032075 -0.331169 0.943026
vn -0.119871 -0.267134 0.956175
vn -0.240368 -0.012251 0.970605
vn -0.001610 0.007277 0.999972
vn -0.397670 -0.012427 0.917444
vn -0.089027 -0.247611 0.964761
vn -0.434981 0.190431 0.880072
vn -0.263317 0.305167 0.915171
vn 0.118770 0.247355 0.961618
vn 0.002435 -0.002869 0.999993
vn 0.427404 -0.065521 0.901684
vn 0.134127 0.244953 0.960213
vn 0.428738 -0.287449 0.856479
vn 0.223191 -0.371410 0.901244
vn -0.175596 -0.219602 0.959657
vn 0.006203 0.002212 0.999978
vn -0.022282 0.403487 0.914714
vn -0.294592 0.126126 0.947263
vn 0.204711 0.407134 0.890132
vn 0.340893 0.225181 0.912735
vn 0.288063 -0.158485 0.944406
vn -0.006594 -0.005932 0.999961
vn -0.030922 -0.328285 0.944072
vn 0.200646 -0.108452 0.973642
vn -0.197688 -0.334928 0.921272
vn -0.274658 -0.186713 0.943240
vn -0.198400 0.122805 0.972397
vn -0.008022 0.001894 0.999966
vn -0.118113 -0.101884 0.987760
vn 0.039437 -0.110105 0.993137
vn -0.197286 -0.041696 0.979459
vn -0.153060 0.047200 0.987089
vn -0.015427 0.123340 0.992245
vn 0.008485 -0.000316 0.999964
vn 0.119387 0.075602 0.989965
vn -0.023828 0.113235 0.993283
vn 0.184610 0.006654 0.982789
vn 0.125150 -0.067328 0.989851
vn -0.014579 -0.116076 0.993133
vn 0.001399 0.008248 0.999965
vn -0.098359 0.110798 0.988964
vn -0.120680 -0.043836 0.991723
vn -0.029900 0.189830 0.981362
vn 0.061309 0.138761 0.988426
vn 0.134079 0.000916 0.990970
vn -0.000786 -0.008637 0.999962
vn 0.095053 -0.114694 0.988843
vn 0.130506 0.027239 0.991073
vn 0.016869 -0.182491 0.983063
vn -0.073425 -0.132113 0.988511
vn -0.136559 -0.000461 0.990632
vt 0.750000 0.000000
vt 0.878025 0.933810
vt 1.000000 0.000000
vt 0.750000 1.000000
vt 0.621975 0.933810
vt 0.500000 0.000000
vt 0.250000 0.000000
vt 0.376571 0.808810
vt 0.500000 0.000000
vt 0.250000 1.000000
vt 0.123429 0.808810
vt 0.000000 0.000000
vt 0.250000 0.000000
vt 0.376571 0.808810
vt 0.500000 0.000000
vt 0.250000 1.000000
vt 0.123429 0.808810
vt 0.000000 0.000000
vt 0.250000 0.000000
vt 0.376571 0.808810
vt 0.500000 0.000000
vt 0.250000 1.000000
vt 0.123429 0.808810
vt 0.000000 0.000000
vt 0.750000 0.000000
vt 0.878025 0.933810
vt 1.000000 0.000000
vt 0.750000 1.000000
vt 0.621975 0.933810
vt 0.500000 0.000000
vt 0.250000 0.000000
vt 0.376571 0.808810
vt 0.500000 0.000000
vt 0.250000 1.000000
vt 0.123429 0.808810
vt 0.000000 0.000000
vt 0.250000 0.000000
vt 0.376571 0.808810
vt 0.500000 0.000000
vt 0.250000 1.000000
vt 0.123429 0.808810
vt 0.000000 0.000000
vt 0.250000 0.000000
vt 0.376571 0.808810
vt 0.500000 0.000000
vt 0.250000 1.000000
vt 0.123429 0.808810
vt 0.000000 0.000000
vt 0.250000 0.000000
vt 0.376571 0.808810
vt 0.500000 0.000000
vt 0.250000 1.000000
vt 0.123429 0.808810
vt 0.000000 0.000000
vt 0.250000 0.000000
vt 0.376571 0.808810
vt 0.500000 0.000000
vt 0.250000 1.000000
vt 0.123429 0.808810
vt 0.000000 0.000000
vt 0.750000 0.000000
vt 0.878025 0.933810
vt 1.000000 0.000000
vt 0.750000 1.000000
vt 0.621975 0.933810
vt 0.500000 0.000000
vt 0.250000 0.000000
vt 0.376571 0.808810
vt 0.500000 0.000000
vt 0.250000 1.000000
vt 0.123429 0.808810
vt 0.000000 0.000000
vt 0.250000 0.000000
vt 0.376571 0.808810
vt 0.500000 0.000000
vt 0.250000 1.000000
vt 0.123429 0.808810
vt 0.000000 0.000000
vt 0.250000 0.000000
vt 0.376571 0.808810
vt 0.500000 0.000000
vt 0.250000 1.000000
vt 0.123429 0.808810
vt 0.000000 0.000000
vt 0.250000 0.000000
vt 0.376571 0.808810
vt 0.500000 0.000000
vt 0.250000 1.000000
vt 0.123429 0.808810
vt 0.000000 0.000000
vt 0.750000 0.000000
vt 0.878025 0.933810
vt 1.000000 0.000000
vt 0.750000 1.000000
vt 0.621975 0.933810
vt 0.500000 0.000000
vt 0.750000 0.000000
vt 0.878025 0.933810
vt 1.000000 0.000000
vt 0.750000 1.000000
vt 0.621975 0.933810
vt 0.500000 0.000000
vt 0.250000 0.000000
vt 0.376571 0.808810
vt 0.500000 0.000000
vt 0.250000 1.000000
vt 0.123429 0.808810
vt 0.000000 0.000000
vt 0.250000 0.000000
vt 0.376571 0.808810
vt 0.500000 0.000000
vt 0.250000 1.000000
vt 0.123429 0.808810
vt 0.000000 0.000000
vt 0.250000 0.000000
vt 0.376571 0.808810
vt 0.500000 0.000000
vt 0.250000 1.000000
vt 0.123429 0.808810
vt 0.000000 0.000000
vt 0.250000 0.000000
vt 0.376571 0.808810
vt 0.500000 0.000000
vt 0.250000 1.000000
vt 0.123429 0.808810
vt 0.000000 0.000000
vt 0.250000 0.000000
vt 0.376571 0.808810
vt 0.500000 0.000000
vt 0.250000 1.000000
vt 0.123429 0.808810
vt 0.000000 0.000000
vt 0.250000 0.000000
vt 0.376571 0.808810
vt 0.500000 0.000000
vt 0.250000 1.000000
vt 0.123429 0.808810
vt 0.000000 0.000000
vt 0.250000 0.000000
vt 0.376571 0.808810
vt 0.500000 0.000000
vt 0.250000 1.000000
vt 0.123429 0.808810
vt 0.000000 0.000000
vt 0.250000 0.000000
vt 0.376571 0.808810
vt 0.500000 0.000000
vt 0.250000 1.000000
vt 0.123429 0.808810
vt 0.000000 0.000000
vt 0.750000 0.000000
vt 0.878025 0.933810
vt 1.000000 0.000000
vt 0.750000 1.000000
vt 0.621975 0.933810
vt 0.500000 0.000000
vt 0.250000 0.000000
vt 0.376571 0.808810
vt 0.500000 0.000000
vt 0.250000 1.000000
vt 0.123429 0.808810
vt 0.000000 0.000000
vt 0.250000 0.000000
vt 0.376571 0.808810
vt 0.500000 0.000000
vt 0.250000 1.000000
vt 0.123429 0.808810
vt 0.000000 0.000000
vt 0.250000 0.000000
vt 0.376571 0.808810
vt 0.500000 0.000000
vt 0.250000 1.000000
vt 0.123429 0.808810
vt 0.000000 0.000000
vt 0.250000 0.000000
vt 0.376571 0.808810
vt 0.500000 0.000000
vt 0.250000 1.000000
vt 0.123429 0.808810
vt 0.000000 0.000000
vt 0.750000 0.000000
vt 0.878025 0.933810
vt 1.000000 0.000000
vt 0.750000 1.000000
vt 0.621975 0.933810
vt 0.500000 0.000000
vt 0.750000 0.000000
vt 0.878025 0.933810
vt 1.000000 0.000000
vt 0.750000 1.000000
vt 0.621975 0.933810
vt 0.500000 0.000000
vt 0.750000 0.000000
vt 0.878025 0.933810
vt 1.000000 0.000000
vt 0.750000 1.000000
vt 0.621975 0.933810
vt 0.500000 0.000000
vt 0.750000 0.000000
vt 0.878025 0.933810
vt 1.000000 0.000000
vt 0.750000 1.000000
vt 0.621975 0.933810
vt 0.500000 0.000000
vt 0.250000 0.000000
vt 0.376571 0.808810
vt 0.500000 0.000000
vt 0.250000 1.000000
vt 0.123429 0.808810
vt 0.000000 0.000000
vt 0.750000 0.000000
vt 0.878025 0.933810
vt 1.000000 0.000000
vt 0.750000 1.000000
vt 0.621975 0.933810
vt 0.500000 0.000000
vt 0.250000 0.000000
vt 0.376571 0.808810
vt 0.500000 0.000000
vt 0.250000 1.000000
vt 0.123429 0.808810
vt 0.000000 0.000000
vt 0.250000 0.000000
vt 0.376571 0.808810
vt 0.500000 0.000000
vt 0.250000 1.000000
vt 0.123429 0.808810
vt 0.000000 0.000000
vt 0.250000 0.000000
vt 0.376571 0.808810
vt 0.500000 0.000000
vt 0.250000 1.000000
vt 0.123429 0.808810
vt 0.000000 0.000000
vt 0.250000 0.000000
vt 0.376571 0.808810
vt 0.500000 0.000000
vt 0.250000 1.000000
vt 0.123429 0.808810
vt 0.000000 0.000000
vt 1.000000 0.000000
vt 0.500000 1.000000
vt 0.500000 0.000000
vt 1.000000 1.000000
vt 0.500000 0.000000
vt 0.000000 0.000000
vt 0.000000 1.000000
vt 0.500000 1.000000
vt 0.500000 0.000000
vt 1.000000 0.000000
vt 1.000000 1.000000
vt 0.500000 1.000000
vt 0.000000 0.000000
vt 0.500000 1.000000
vt 0.500000 0.000000
vt 0.000000 1.000000
vt 0.250000 0.000000
vt 0.376571 0.808810
vt 0.500000 0.000000
vt 0.250000 1.000000
vt 0.123429 0.808810
vt 0.000000 0.000000
vt 0.750000 0.000000
vt 0.878025 0.933810
vt 1.000000 0.000000
vt 0.750000 1.000000
vt 0.621975 0.933810
vt 0.500000 0.000000
vt 0.750000 0.000000
vt 0.878025 0.933810
vt 1.000000 0.000000
vt 0.750000 1.000000
vt 0.621975 0.933810
vt 0.500000 0.000000
vt 0.250000 0.000000
vt 0.376571 0.808810
vt 0.500000 0.000000
vt 0.250000 1.000000
vt 0.123429 0.808810
vt 0.000000 0.000000
vt 0.750000 0.000000
vt 0.878025 0.933810
vt 1.000000 0.000000
vt 0.750000 1.000000
vt 0.621975 0.933810
vt 0.500000 0.000000
vt 0.750000 0.000000
vt 0.878025 0.933810
vt 1.000000 0.000000
vt 0.750000 1.000000
vt 0.621975 0.933810
vt 0.500000 0.000000
vt 0.250000 0.000000
vt 0.376571 0.808810
vt 0.500000 0.000000
vt 0.250000 1.000000
vt 0.123429 0.808810
vt 0.000000 0.000000
vt 0.250000 0.000000
vt 0.376571 0.808810
vt 0.500000 0.000000
vt 0.250000 1.000000
vt 0.123429 0.808810
vt 0.000000 0.000000
vt 0.250000 0.000000
vt 0.376571 0.808810
vt 0.500000 0.000000
vt 0.250000 1.000000
vt 0.123429 0.808810
vt 0.000000 0.000000
vt 0.250000 0.000000
vt 0.376571 0.808810
vt 0.500000 0.000000
vt 0.250000 1.000000
vt 0.123429 0.808810
vt 0.000000 0.000000
vt 0.250000 0.000000
vt 0.376571 0.808810
vt 0.500000 0.000000
vt 0.250000 1.000000
vt 0.123429 0.808810
vt 0.000000 0.000000
vt 0.250000 0.000000
vt 0.376571 0.808810
vt 0.500000 0.000000
vt 0.250000 1.000000
vt 0.123429 0.808810
vt 0.000000 0.000000
f 1/1/1 2/2/2 3/3/3
f 4/4/4 2/2/2 1/1/1
f 4/4/4 1/1/1 5/5/5
f 5/5/5 1/1/1 6/6/6
f 7/7/7 8/8/8 9/9/9
f 10/10/10 8/8/8 7/7/7
f 10/10/10 7/7/7 11/11/11
f 11/11/11 7/7/7 12/12/12
f 13/13/13 14/14/14 15/15/15
f 16/16/16 14/14/14 13/13/13
f 16/16/16 13/13/13 17/17/17
f 17/17/17 13/13/13 18/18/18
f 19/19/19 20/20/20 21/21/21
f 22/22/22 20/20/20 19/19/19
f 22/22/22 19/19/19 23/23/23
f 23/23/23 19/19/19 24/24/24
f 25/25/25 26/26/26 27/27/27
f 28/28/28 26/26/26 25/25/25
f 28/28/28 25/25/25 29/29/29
f 29/29/29 25/25/25 30/30/30
f 31/31/31 32/32/32 33/33/33
f 34/34/34 32/32/32 31/31/31
f 34/34/34 31/31/31 35/35/35
f 35/35/35 31/31/31 36/36/36
f 37/37/37 38/38/38 39/39/39
f 40/40/40 38/38/38 37/37/37
f 40/40/40 37/37/37 41/41/41
f 41/41/41 37/37/37 42/42/42
f 43/43/43 44/44/44 45/45/45
f 46/46/46 44/44/44 43/43/43
f 46/46/46 43/43/43 47/47/47
f 47/47/47 43/43/43 48/48/48
f 49/49/49 50/50/50 51/51/51
f 52/52/52 50/50/50 49/49/49
f 52/52/52 49/49/49 53/53/53
f 53/53/53 49/49/49 54/54/54
f 55/55/55 56/56/56 57/57/57
f 58/58/58 56/56/56 55/55/55
f 58/58/58 55/55/55 59/59/59
f 59/59/59 55/55/55 60/60/60
f 61/61/61 62/62/62 63/63/63
f 64/64/64 62/62/62 61/61/61
f 64/64/64 61/61/61 65/65/65
f 65/65/65 61/61/61 66/66/66
f 67/67/67 68/68/68 69/69/69
f 70/70/70 68/68/68 67/67/67
f 70/70/70 67/67/67 71/71/71
f 71/71/71 67/67/67 72/72/72
f 73/73/73 74/74/74 75/75/75
f 76/76/76 74/74/74 73/73/73
f 76/76/76 73/73/73 77/77/77
f 77/77/77 73/73/73 78/78/78
f 79/79/79 80/80/80 81/81/81
f 82/82/82 80/80/80 79/79/79
f 82/82/82 79/79/79 83/83/83
f 83/83/83 79/79/79 84/84/84
f 85/85/85 86/86/86 87/87/87
f 88/88/88 86/86/86 85/85/85
f 88/88/88 85/85/85 89/89/89
f 89/89/89 85/85/85 90/90/90
f 91/91/91 92/92/92 93/93/93
f 94/94/94 92/92/92 91/91/91
f 94/94/94 91/91/91 95/95/95
f 95/95/95 91/91/91 96/96/96
f 97/97/97 98/98/98 99/99/99
f 100/100/100 98/98/98 97/97/97
f 100/100/100 97/97/97 101/101/101
f 101/101/101 97/97/97 102/102/102
f 103/103/103 104/104/104 105/105/105
f 106/106/106 104/104/104 103/103/103
f 106/106/106 103/103/103 107/107/107
f 107/107/107 103/103/103 108/108/108
f 109/109/109 110/110/110 111/111/111
f 112/112/112 110/110/110 109/109/109
f 112/112/112 109/109/109 113/113/113
f 113/113/113 109/109/109 114/114/114
f 115/115/115 116/116/116 117/117/117
f 118/118/118 116/116/116 115/115/115
f 118/118/118 115/115/115 119/119/119
f 119/119/119 115/115/115 120/120/120
f 121/121/121 122/122/122 123/123/123
f 124/124/124 122/122/122 121/121/121
f 124/124/124 121/121/121 125/125/125
f 125/125/125 121/121/121 126/126/126
f 127/127/127 128/128/128 129/129/129
f 130/130/130 128/128/128 127/127/127
f 130/130/130 127/127/127 131/131/131
f 131/131/131 127/127/127 132/132/132
f 133/133/133 134/134/134 135/135/135
f 136/136/136 134/134/134 133/133/133
f 136/136/136 133/133/133 137/137/137
f 137/137/137 133/133/133 138/138/138
f 139/139/139 140/140/140 141/141/141
f 142/142/142 140/140/140 139/139/139
f 142/142/142 139/139/139 143/143/143
f 143/143/143 139/139/139 144/144/144
f 145/145/145 146/146/146 147/147/147
f 148/148/148 146/146/146 145/145/145
f 148/148/148 145/145/145 149/149/149
f 149/149/149 145/145/145 150/150/150
f 151/151/151 152/152/152 153/153/153
f 154/154/154 152/152/152 151/151/151
f 154/154/154 151/151/151 155/155/155
f 155/155/155 151/151/151 156/156/156
f 157/157/157 158/158/158 159/159/159
f 160/160/160 158/158/158 157/157/157
f 160/160/160 157/157/157 161/161/161
f 161/161/161 157/157/157 162/162/162
f 163/163/163 164/164/164 165/165/165
f 166/166/166 164/164/164 163/163/163
f 166/166/166 163/163/163 167/167/167
f 167/167/167 163/163/163 168/168/168
f 169/169/169 170/170/170 171/171/171
f 172/172/172 170/170/170 169/169/169
f 172/172/172 169/169/169 173/173/173
f 173/173/173 169/169/169 174/174/174
f 175/175/175 176/176/176 177/177/177
f 178/178/178 176/176/176 175/175/175
f 178/178/178 175/175/175 179/179/179
f 179/179/179 175/175/175 180/180/180
f 181/181/181 182/182/182 183/183/183
f 184/184/184 182/182/182 181/181/181
f 184/184/184 181/181/181 185/185/185
f 185/185/185 181/181/181 186/186/186
f 187/187/187 188/188/188 189/189/189
f 190/190/190 188/188/188 187/187/187
f 190/190/190 187/187/187 191/191/191
f 191/191/191 187/187/187 192/192/192
f 193/193/193 194/194/194 195/195/195
f 196/196/196 194/194/194 193/193/193
f 196/196/196 193/193/193 197/197/197
f 197/197/197 193/193/193 198/198/198
f 199/199/199 200/200/200 201/201/201
f 202/202/202 200/200/200 199/199/199
f 202/202/202 199/199/199 203/203/203
f 203/203/203 199/199/199 204/204/204
f 205/205/205 206/206/206 207/207/207
f 208/208/208 206/206/206 205/205/205
f 208/208/208 205/205/205 209/209/209
f 209/209/209 205/205/205 210/210/210
f 211/211/211 212/212/212 213/213/213
f 214/214/214 212/212/212 211/211/211
f 214/214/214 211/211/211 215/215/215
f 215/215/215 211/211/211 216/216/216
f 217/217/217 218/218/218 219/219/219
f 220/220/220 218/218/218 217/217/217
f 220/220/220 217/217/217 221/221/221
f 221/221/221 217/217/217 222/222/222
f 223/223/223 224/224/224 225/225/225
f 226/226/226 224/224/224 223/223/223
f 226/226/226 223/223/223 227/227/227
f 227/227/227 223/223/223 228/228/228
f 229/229/229 230/230/230 231/231/231
f 232/232/232 230/230/230 229/229/229
f 232/232/232 229/229/229 233/233/233
f 233/233/233 229/229/229 234/234/234
f 235/235/235 236/236/236 237/237/237
f 238/238/238 236/236/236 235/235/235
f 238/238/238 235/235/235 239/239/239
f 239/239/239 235/235/235 240/240/240
f 241/241/241 242/242/242 243/243/243
f 241/241/241 244/244/244 242/242/242
f 245/245/245 246/246/246 247/247/247
f 245/245/245 247/247/247 248/248/248
f 249/249/249 250/250/250 251/251/251
f 249/249/249 251/251/251 252/252/252
f 253/253/253 254/254/254 255/255/255
f 253/253/253 256/256/256 254/254/254
f 257/257/257 258/258/258 259/259/259
f 260/260/260 258/258/258 257/257/257
f 260/260/260 257/257/257 261/261/261
f 261/261/261 257/257/257 262/262/262
f 263/263/263 264/264/264 265/265/265
f 266/266/266 264/264/264 263/263/263
f 266/266/266 263/263/263 267/267/267
f 267/267/267 263/263/263 268/268/268
f 269/269/269 270/270/270 271/271/271
f 272/272/272 270/270/270 269/269/269
f 272/272/272 269/269/269 273/273/273
f 273/273/273 269/269/269 274/274/274
f 275/275/275 276/276/276 277/277/277
f 278/278/278 276/276/276 275/275/275
f 278/278/278 275/275/275 279/279/279
f 279/279/279 275/275/275 280/280/280
f 281/281/281 282/282/282 283/283/283
f 284/284/284 282/282/282 281/281/281
f 284/284/284 281/281/281 285/285/285
f 285/285/285 281/281/281 286/286/286
f 287/287/287 288/288/288 289/289/289
f 290/290/290 288/288/288 287/287/287
f 290/290/290 287/287/287 291/291/291
f 291/291/291 287/287/287 292/292/292
f 293/293/293 294/294/294 295/295/295
f 296/296/296 294/294/294 293/293/293
f 296/296/296 293/293/293 297/297/297
f 297/297/297 293/293/293 298/298/298
f 299/299/299 300/300/300 301/301/301
f 302/302/302 300/300/300 299/299/299
f 302/302/302 299/299/299 303/303/303
f 303/303/303 299/299/299 304/304/304
f 305/305/305 306/306/306 307/307/307
f 308/308/308 306/306/306 305/305/305
f 308/308/308 305/305/305 309/309/309
f 309/309/309 305/305/305 310/310/310
f 311/311/311 312/312/312 313/313/313
f 314/314/314 312/312/312 311/311/311
f 314/314/314 311/311/311 315/315/315
f 315/315/315 311/311/311 316/316/316
f 317/317/317 318/318/318 319/319/319
f 320/320/320 318/318/318 317/317/317
f 320/320/320 317/317/317 321/321/321
f 321/321/321 317/317/317 322/322/322
f 323/323/323 324/324/324 325/325/325
f 326/326/326 324/324/324 323/323/323
f 326/326/326 323/323/323 327/327/327
f 327/327/327 323/323/323 328/328/328
