v 0.032844 -0.128105 7.084154
v 2.412376 -6.413687 2.566764
v 5.281644 -0.216454 4.765071
v -0.574598 -8.135189 3.624239
v -3.267687 -5.982779 2.566764
v -5.169215 0.576378 4.765071
v -0.054454 0.093674 7.105739
v -0.851985 6.897405 2.362693
v -2.969671 0.193871 4.493971
v 0.952390 8.729472 3.646403
v 2.286899 6.531444 2.362692
v 2.805621 -0.479469 4.493971
v -0.159216 0.006035 7.027627
v -5.867834 -2.424958 2.842624
v 0.034507 -4.305939 4.560404
v -7.576436 -0.105498 4.134890
v -5.938347 2.264288 2.842624
v -0.095232 4.321892 4.560403
v 0.133461 0.098537 7.200702
v 6.789302 1.533124 3.205115
v 1.040650 5.353470 5.324964
v 8.040220 -1.725198 3.968375
v 5.488511 -4.106425 3.205115
v -1.352702 -5.022842 5.324964
v -0.199953 -0.285305 7.947711
v -2.570102 -5.498374 3.276733
v 3.178276 -4.384903 5.533031
v -5.629710 -4.138514 4.386586
v -5.903222 -0.801506 3.276734
v -2.954396 4.256958 5.533031
v 0.138935 0.406250 7.900231
v 4.458113 3.762089 2.845769
v -1.248546 4.276085 5.252026
v 6.696980 2.025413 4.081338
v 5.523676 -0.553720 2.845769
v 0.712003 -3.664658 5.252026
v -0.323863 0.126350 7.821185
v -5.155649 3.970990 1.992635
v -4.746644 -2.456760 4.743299
v -3.465295 6.917137 3.441074
v -0.125588 6.297905 1.992635
v 4.508265 1.824577 4.743299
v 0.231581 -0.258549 7.846992
v 4.977568 -2.232359 3.423198
v 2.052711 2.309994 5.576118
v 5.077269 -4.605784 4.458606
v 2.706977 -4.763295 3.423198
v -2.124994 -2.346722 5.576118
v 0.017374 -0.110115 9.695193
v 2.589659 -6.088973 4.665344
v 5.209235 0.140537 7.303588
v -0.304801 -8.006408 5.655915
v -3.033437 -5.859546 4.665344
v -5.136810 0.562664 7.303588
v -0.083565 0.106483 9.661150
v -1.547244 6.573345 5.007337
v -4.988113 0.640190 7.524016
v 1.465038 8.064706 5.849647
v 3.698283 5.552609 5.007337
v 4.663234 -1.237881 7.524016
v -0.230819 0.038696 9.651438
v -4.052013 -3.030607 5.332144
v 0.776093 -4.589111 7.495338
v -5.895979 -0.679856 6.283146
v -4.697289 2.056818 5.332144
v -0.411160 4.771339 7.495340
v 0.115104 -0.014862 9.754268
v 6.361582 -0.530461 5.478868
v 1.388576 3.683891 7.829432
v 7.263820 -3.265794 6.214911
v 4.609308 -4.383669 5.478868
v -1.835468 -3.405701 7.829432
v -0.127428 -0.075432 10.779365
v -1.212319 -5.553617 6.449210
v 3.861977 -2.796047 8.724335
v -4.331350 -5.243882 7.298177
v -5.269835 -2.253306 6.449209
v -3.603526 3.276257 8.724335
v 0.108138 0.178505 10.818668
v 2.343053 4.400864 7.861489
v -2.315615 3.281502 9.247897
v 4.657253 3.426040 8.605365
v 4.827495 0.920680 7.861489
v 2.255559 -3.121758 9.247898
v -0.257543 0.030186 10.763438
v -3.428346 3.911093 6.912210
v -3.544373 -1.375908 9.172780
v -2.048749 6.040256 7.434793
v 0.271351 5.013730 6.912210
v 3.262773 0.652855 9.172780
v 0.197046 -0.090031 10.874365
v 3.991835 -2.822958 6.722268
v 3.017625 1.879311 8.552565
v 3.105301 -4.980329 7.880792
v 0.786436 -4.729204 6.722267
v -2.880051 -1.628029 8.552565
v -0.133997 0.175873 11.893152
v -3.130182 -3.807814 7.837165
v 2.056122 -2.523777 10.621972
v -5.569251 -3.091135 7.991314
v -5.057763 -0.600940 7.837164
v -1.490471 3.376614 10.621972
v 0.170149 -0.098221 11.789065
v 2.792053 3.097530 7.735450
v -1.708461 3.214542 10.300559
v 4.948841 1.732037 8.103352
v 4.256042 -0.724858 7.735450
v 0.985160 -3.818344 10.300559
v -0.017059 0.214695 11.771960
v -1.498258 2.977527 7.715478
v -3.183509 -0.180260 10.078597
v 0.302409 4.181853 8.283500
v 1.887160 2.704906 7.715480
v 3.045388 -0.681862 10.078597
v -0.121652 -0.195171 11.716859
v 3.253988 -2.452120 8.579412
v 2.881143 1.755699 10.343894
v 2.136174 -4.490714 9.080763
v -0.176837 -4.255432 8.579412
v -3.431298 -1.562252 10.343896
v -0.085897 0.071270 13.748913
v -3.285254 1.124201 9.620285
v -1.925330 -2.418663 11.927878
v -2.994988 3.253590 10.294069
v -0.848163 3.352049 9.620285
v 2.558722 1.680397 11.927879
v 0.023244 -0.088146 13.731228
v 3.895832 -0.284493 8.732369
v 1.511876 3.512188 11.978689
v 4.114590 -2.963676 9.104606
v 1.519678 -3.665319 8.732368
v -2.860058 -2.708260 11.978689
v 0.131928 0.024471 13.753807
v -0.243866 3.412434 8.487902
v -3.365856 0.703560 11.756852
v 2.195316 4.108443 9.027898
v 3.082165 1.731988 8.487902
v 2.753772 -2.388325 11.756849
v -0.084315 -0.070034 13.676380
v -0.805740 -3.339103 8.847157
v 2.658995 -1.644958 11.360676
v -3.028771 -3.281563 9.817332
v -3.278624 -1.071869 8.847157
v -1.890911 2.526569 11.360676
v -0.009246 0.102074 15.180618
v -1.539968 2.020574 10.555741
v -3.058400 -0.669388 13.257946
v 0.166012 3.340965 11.195539
v 1.719555 1.844199 10.555742
v 2.938860 -0.993904 13.257946
v 0.000066 -0.100376 15.147652
v 1.881995 -1.892158 10.184360
v 3.464534 0.923088 13.040173
v -0.001353 -3.378802 10.914237
v -1.883414 -1.890528 10.184361
v -3.463514 0.926090 13.040173
v 0.025902 -0.035927 15.109333
v 2.838522 2.267994 10.663322
v -1.196922 3.273232 13.599810
v 4.650871 0.636276 10.946151
v 3.378009 -1.443853 10.663321
v -0.204310 -3.556267 13.599810
v -0.098995 0.138607 15.106388
v -1.141269 -2.752339 10.319057
v 2.437649 -1.633896 13.296196
v -3.372209 -2.467569 10.804798
v -3.149958 -0.229535 10.319057
v -1.258176 3.007862 13.296196
v -0.071678 0.109539 17.942337
v 2.759508 0.566441 11.060903
v 0.257606 3.673790 14.961884
v 3.662855 -1.974803 12.130227
v 1.025715 -2.540008 11.060903
v -2.932433 -2.041828 14.961884
v 0.089293 -0.016895 17.800154
v -2.450714 -1.791561 11.623810
v 0.835068 -3.710392 14.728413
v -3.949119 0.302242 12.972549
v -2.140437 2.134702 11.623809
v 1.405951 3.513615 14.728415
v 0.015194 0.073730 17.833427
v 1.316273 -2.029287 11.780854
v 2.787259 1.137604 15.216686
v -0.273990 -3.698556 12.716748
v -1.591234 -1.806397 11.780854
v -2.562319 1.547703 15.216686
v -0.089435 -0.061459 17.728998
v -0.511450 2.564636 12.024293
v -3.110885 0.101017 15.338110
v 1.605823 3.464513 12.832403
v 2.225188 1.248883 12.024293
v 1.924308 -2.319862 15.338110
v -0.115321 -0.306091 8.548086
v -5.582115 -0.343213 4.943591
v -1.092326 -3.496571 6.435012
v -6.411627 1.858559 6.044920
v -4.403579 3.084787 4.943591
v 1.076085 2.810677 6.435011
v 0.180658 0.048538 9.296553
v 0.493272 5.328182 5.466206
v -3.350142 1.458622 7.396356
v 3.052088 5.855784 6.297952
v 4.186264 3.502158 5.466206
v 3.444665 -1.901115 7.396356
v -0.170461 0.090000 8.547088
v -2.431920 5.083183 4.453891
v -3.842142 -0.418915 6.506187
v -0.512702 6.872943 5.352821
v 1.576919 5.285454 4.453891
v 3.533798 -0.046753 6.506188
v -0.079802 -0.209324 8.461840
v 5.355263 -1.812750 4.542472
v 2.800077 3.379456 6.527633
v 4.897904 -4.780680 5.383595
v 1.979558 -5.488525 4.542471
v -3.410950 -3.383675 6.527632
v -0.267510 0.073711 9.200177
v -5.555381 0.207782 5.203365
v -2.064373 -3.943928 7.181786
v -5.821796 3.059597 6.106184
v -3.296113 4.410431 5.203366
v 2.092501 3.788609 7.181786
v 0.335213 -0.049484 9.117823
v 4.687841 -1.017172 4.083924
v 2.243084 3.036419 6.384831
v 4.642304 -3.485188 5.408174
v 2.246146 -4.078149 4.083924
v -2.249440 -2.595531 6.384832
v 0.249164 0.240784 9.142286
v -2.562481 4.616500 4.753345
v -4.560524 -0.324318 6.857601
v -0.006052 6.289970 5.811684
v 2.682250 4.837776 4.753345
v 5.089359 0.082813 6.857600
v 0.010194 -0.237961 9.123466
v -1.202739 -6.405802 4.076572
v 4.250154 -2.881645 6.546452
v -4.525290 -6.338377 5.244369
v -5.546880 -3.176057 4.076572
v -3.742716 3.060825 6.546453
v -2.678080 0.814503 12.938442
v 2.678070 -0.414531 21.683458
v 2.678070 0.814503 12.938442
v -2.678080 -0.414530 21.683458
v -0.814497 2.678062 12.938442
v -0.814497 -2.678089 12.938442
v 0.414534 -2.678089 21.683456
v 0.414535 2.678061 21.683456
v -2.678072 -0.814529 12.938442
v 2.678078 -0.814529 12.938442
v 2.678078 0.414502 21.683458
v -2.678072 0.414502 21.683458
v 0.814536 2.678059 12.938442
v -0.414497 -2.678090 21.683456
v 0.814535 -2.678089 12.938442
v -0.414497 2.678059 21.683458
v -0.100285 -0.018375 15.565403
v -4.001425 -1.391911 13.009384
v -0.068953 -3.032253 14.953072
v -5.141684 0.321966 12.921435
v -3.781416 1.867035 13.009384
v 0.335847 2.963943 14.953072
v 0.086197 0.043678 15.531094
v 4.250485 1.098236 12.337512
v 0.197005 3.136173 14.598139
v 5.398188 -0.766851 12.392264
v 3.746493 -2.204793 12.337512
v -0.730301 -2.941135 14.598139
v 0.123743 0.146584 15.479534
v -3.299036 2.337085 12.856592
v -2.900432 -1.797535 14.394890
v -2.169743 4.332472 13.213779
v 0.119787 4.210289 12.856590
v 3.389926 1.649006 14.394890
v 0.027485 -0.112476 15.453560
v 1.622736 -3.982485 13.406139
v 3.692557 -0.330914 14.753128
v -0.481230 -4.922731 13.541567
v -2.341980 -3.563190 13.406141
v -3.602201 0.440552 14.753128
v -0.092052 0.112572 12.623605
v -4.818647 0.508123 10.073799
v -1.671020 -3.118195 12.125920
v -5.050729 2.870413 9.875101
v -2.921425 3.919385 10.073799
v 1.819716 3.158249 12.125920
v 0.057382 -0.136684 12.606774
v 5.029575 -0.029324 9.499060
v 1.190796 3.369366 11.848495
v 5.664769 -2.451353 9.405646
v 3.506065 -3.720094 9.499060
v -1.612340 -3.421352 11.848495
v 0.090746 0.110516 12.547766
v 0.577422 4.943250 10.208252
v -3.552176 2.375999 11.732086
v 3.252797 4.727351 10.378023
v 4.420970 2.310819 10.208252
v 3.519644 -2.467461 11.732085
v -0.053517 -0.213215 12.527820
v -2.046270 -3.631194 10.634333
v 1.810122 -2.600891 12.004019
v -3.903475 -2.929092 10.638009
v -3.941914 -0.943976 10.634332
v -1.677711 2.343372 12.004020
v -0.202067 -0.014500 18.861893
v -2.482832 -1.180868 15.180887
v 0.028426 -2.537193 18.440189
v -3.384607 0.256290 14.603014
v -2.252990 1.520436 15.180887
v 0.451317 2.432991 18.440189
v 0.215722 0.023735 18.769714
v 2.271463 1.000023 15.308882
v -0.021248 2.428650 18.051220
v 3.159467 -0.422016 15.081348
v 1.890267 -1.517406 15.308880
v -0.722619 -2.203213 18.051218
v 0.073388 0.224911 18.772038
v -2.071937 1.325001 15.140404
v -1.995491 -1.526772 17.961189
v -1.306215 2.998120 14.957432
v 0.490117 2.599559 15.140402
v 2.718482 0.818310 17.961187
v 0.035399 -0.221378 18.769592
v 1.068209 -2.435322 15.338409
v 2.850671 -0.391247 18.295704
v -0.627487 -3.049456 14.878998
v -1.873657 -1.745765 15.338409
v -2.562124 0.877483 18.295704
vn 0.003621 -0.014135 0.999894
vn 0.292924 -0.778864 0.554586
vn 0.615179 -0.025189 0.787985
vn -0.057990 -0.821175 0.567722
vn -0.398207 -0.729147 0.556576
vn -0.605783 0.067506 0.792761
vn -0.005975 0.010287 0.999929
vn -0.103805 0.840582 0.531645
vn -0.415692 0.027173 0.909099
vn 0.091271 0.836157 0.540844
vn 0.279526 0.798421 0.533282
vn 0.395715 -0.067624 0.915880
vn -0.017679 0.000671 0.999843
vn -0.734836 -0.303692 0.606455
vn 0.004375 -0.548728 0.835990
vn -0.777118 -0.010815 0.629262
vn -0.743217 0.283399 0.606064
vn -0.012175 0.550105 0.835007
vn 0.014543 0.010695 0.999837
vn 0.781160 0.176383 0.598898
vn 0.113940 0.586197 0.802117
vn 0.791306 -0.169809 0.587367
vn 0.637677 -0.477092 0.604773
vn -0.150567 -0.559070 0.815335
vn -0.020093 -0.028648 0.999388
vn -0.319537 -0.683677 0.656111
vn 0.342561 -0.472631 0.811955
vn -0.594675 -0.437176 0.674714
vn -0.741772 -0.100671 0.663054
vn -0.323138 0.465591 0.823897
vn 0.014016 0.040987 0.999061
vn 0.587841 0.496114 0.638995
vn -0.146742 0.502454 0.852060
vn 0.722388 0.218475 0.656067
vn 0.749604 -0.075143 0.657607
vn 0.087263 -0.449302 0.889108
vn -0.032968 0.012826 0.999374
vn -0.675304 0.520102 0.522933
vn -0.551636 -0.285515 0.783696
vn -0.366387 0.731295 0.575299
vn -0.016827 0.844462 0.535351
vn 0.542257 0.219453 0.811047
vn 0.023481 -0.026258 0.999379
vn 0.647071 -0.290205 0.705040
vn 0.250841 0.282295 0.925953
vn 0.539052 -0.489017 0.685774
vn 0.351133 -0.617880 0.703512
vn -0.258814 -0.285811 0.922674
vn 0.001478 -0.009397 0.999955
vn 0.275758 -0.648288 0.709704
vn 0.488502 0.013167 0.872463
vn -0.027500 -0.722441 0.690886
vn -0.323460 -0.624746 0.710680
vn -0.482681 0.052891 0.874198
vn -0.007179 0.009130 0.999933
vn -0.159037 0.675437 0.720064
vn -0.463156 0.059454 0.884280
vn 0.129058 0.710600 0.691658
vn 0.382265 0.573847 0.724274
vn 0.436774 -0.115940 0.892068
vn -0.019768 0.003299 0.999799
vn -0.454845 -0.340245 0.823012
vn 0.073403 -0.433975 0.897930
vn -0.578579 -0.066723 0.812892
vn -0.525005 0.229918 0.819456
vn -0.038658 0.448669 0.892862
vn 0.009815 -0.001249 0.999951
vn 0.646947 -0.053905 0.760627
vn 0.131130 0.347918 0.928309
vn 0.634836 -0.285403 0.718003
vn 0.469453 -0.446475 0.761757
vn -0.173770 -0.322428 0.930508
vn -0.009965 -0.005913 0.999933
vn -0.119020 -0.545384 0.829693
vn 0.329075 -0.238260 0.913751
vn -0.375965 -0.455196 0.807123
vn -0.516185 -0.220677 0.827560
vn -0.305935 0.278135 0.910519
vn 0.008477 0.013955 0.999867
vn 0.212010 0.398301 0.892417
vn -0.193888 0.274778 0.941756
vn 0.385534 0.283616 0.878024
vn 0.438153 0.083542 0.895010
vn 0.189738 -0.262567 0.946075
vn -0.020203 0.002352 0.999793
vn -0.332270 0.379007 0.863684
vn -0.300332 -0.116618 0.946679
vn -0.179880 0.530366 0.828465
vn 0.026551 0.490149 0.871234
vn 0.279842 0.055992 0.958412
vn 0.015291 -0.007004 0.999858
vn 0.399249 -0.282309 0.872297
vn 0.270975 0.168778 0.947674
vn 0.270205 -0.433360 0.859760
vn 0.079008 -0.475159 0.876346
vn -0.260409 -0.147218 0.954208
vn -0.009622 0.012662 0.999874
vn -0.284468 -0.346122 0.894023
vn 0.157758 -0.193592 0.968315
vn -0.469994 -0.260888 0.843233
vn -0.456610 -0.054221 0.888013
vn -0.113322 0.256770 0.959806
vn 0.012295 -0.007112 0.999899
vn 0.263647 0.292496 0.919205
vn -0.133186 0.250562 0.958895
vn 0.434777 0.152169 0.887588
vn 0.399663 -0.068091 0.914129
vn 0.076225 -0.295660 0.952247
vn -0.001246 0.015559 0.999878
vn -0.145838 0.289904 0.945879
vn -0.254871 -0.014489 0.966866
vn 0.027244 0.376588 0.925980
vn 0.183897 0.263622 0.946935
vn 0.244083 -0.054693 0.968211
vn -0.008838 -0.014222 0.999860
vn 0.287041 -0.216293 0.933180
vn 0.225146 0.137195 0.964617
vn 0.175896 -0.369757 0.912327
vn -0.015537 -0.373173 0.927632
vn -0.265865 -0.121041 0.956381
vn -0.005408 0.004531 0.999975
vn -0.270866 0.092717 0.958142
vn -0.134932 -0.169548 0.976241
vn -0.229235 0.249042 0.940973
vn -0.069930 0.276454 0.958480
vn 0.179446 0.117795 0.976690
vn 0.001488 -0.005555 0.999984
vn 0.341101 -0.024920 0.939696
vn 0.104277 0.242410 0.964554
vn 0.337053 -0.242799 0.909639
vn 0.132832 -0.320306 0.937955
vn -0.196950 -0.186415 0.962528
vn 0.008386 0.001496 0.999964
vn -0.022059 0.309292 0.950711
vn -0.237348 0.049582 0.970158
vn 0.183403 0.343216 0.921176
vn 0.278413 0.156505 0.947625
vn 0.193458 -0.167799 0.966653
vn -0.005387 -0.004421 0.999976
vn -0.070800 -0.293430 0.953355
vn 0.193809 -0.119855 0.973690
vn -0.239777 -0.259782 0.935425
vn -0.288010 -0.094146 0.952988
vn -0.137698 0.184072 0.973220
vn -0.000473 0.005908 0.999982
vn -0.120186 0.157710 0.980144
vn -0.196320 -0.042955 0.979598
vn 0.012179 0.245391 0.969348
vn 0.134223 0.143997 0.980433
vn 0.188782 -0.063825 0.979943
vn -0.000065 -0.005823 0.999983
vn 0.150844 -0.151675 0.976853
vn 0.224120 0.059692 0.972732
vn -0.000071 -0.253069 0.967448
vn -0.150961 -0.151556 0.976853
vn -0.224042 0.059873 0.972739
vn 0.001455 -0.002060 0.999997
vn 0.215450 0.172135 0.961224
vn -0.074961 0.204797 0.975930
vn 0.337772 0.046209 0.940093
vn 0.256156 -0.109481 0.960415
vn -0.012809 -0.222255 0.974904
vn -0.005763 0.008125 0.999950
vn -0.090091 -0.217108 0.971981
vn 0.156461 -0.104876 0.982100
vn -0.250353 -0.183187 0.950666
vn -0.247653 -0.018072 0.968680
vn -0.080448 0.192341 0.978025
vn -0.003557 0.005500 0.999979
vn 0.206550 0.042370 0.977518
vn 0.014884 0.211729 0.977215
vn 0.248628 -0.134048 0.959279
vn 0.076906 -0.190313 0.978706
vn -0.169189 -0.117854 0.978512
vn 0.004501 -0.000816 0.999990
vn -0.175567 -0.128304 0.976071
vn 0.048634 -0.216274 0.975121
vn -0.254949 0.019514 0.966757
vn -0.153374 0.152915 0.976265
vn 0.081970 0.204910 0.975342
vn 0.000784 0.003715 0.999993
vn 0.094058 -0.145091 0.984937
vn 0.159505 0.065058 0.985051
vn -0.018063 -0.243663 0.969692
vn -0.113743 -0.129191 0.985075
vn -0.146713 0.088584 0.985205
vn -0.004501 -0.003153 0.999985
vn -0.035838 0.179797 0.983051
vn -0.176640 0.005746 0.984259
vn 0.104854 0.226175 0.968427
vn 0.156117 0.087637 0.983843
vn 0.109399 -0.131844 0.985215
vn -0.010951 -0.029017 0.999519
vn -0.626082 -0.038485 0.778807
vn -0.118809 -0.380225 0.917231
vn -0.613275 0.177765 0.769606
vn -0.501459 0.351250 0.790672
vn 0.120123 0.313863 0.941839
vn 0.015996 0.004319 0.999863
vn 0.053680 0.580067 0.812798
vn -0.332297 0.144687 0.932011
vn 0.287769 0.552170 0.782494
vn 0.452642 0.378648 0.807305
vn 0.338163 -0.186655 0.922391
vn -0.016184 0.008556 0.999832
vn -0.283893 0.593272 0.753281
vn -0.411230 -0.044846 0.910428
vn -0.050895 0.681963 0.729614
vn 0.185742 0.622554 0.760215
vn 0.383629 -0.005084 0.923473
vn -0.007603 -0.020006 0.999771
vn 0.619329 -0.209607 0.756635
vn 0.292002 0.352370 0.889140
vn 0.486460 -0.474817 0.733420
vn 0.225785 -0.626104 0.746334
vn -0.348506 -0.345728 0.871215
vn -0.023895 0.006560 0.999693
vn -0.610547 0.022799 0.791652
vn -0.202323 -0.386541 0.899806
vn -0.557698 0.293081 0.776580
vn -0.363524 0.486459 0.794486
vn 0.206144 0.373241 0.904542
vn 0.030111 -0.004449 0.999537
vn 0.605081 -0.131290 0.785264
vn 0.243907 0.330203 0.911852
vn 0.493246 -0.370302 0.787137
vn 0.293176 -0.532344 0.794139
vn -0.248213 -0.286403 0.925399
vn 0.022368 0.021569 0.999517
vn -0.298971 0.538510 0.787796
vn -0.457550 -0.032567 0.888588
vn -0.000600 0.627136 0.778910
vn 0.307280 0.554169 0.773612
vn 0.498133 0.008076 0.867063
vn 0.000926 -0.021416 0.999770
vn -0.134920 -0.718863 0.681933
vn 0.426282 -0.289044 0.857168
vn -0.425409 -0.595885 0.681138
vn -0.628947 -0.360102 0.689023
vn -0.381124 0.311691 0.870398
vn -0.176244 0.053605 0.982886
vn 0.112347 -0.017406 0.993517
vn 0.176105 0.053601 0.982911
vn -0.112347 -0.017406 0.993517
vn -0.053601 0.176105 0.982911
vn -0.053605 -0.176244 0.982886
vn 0.017406 -0.112347 0.993517
vn 0.017406 0.112347 0.993517
vn -0.176105 -0.053601 0.982911
vn 0.176244 -0.053605 0.982886
vn 0.112347 0.017406 0.993517
vn -0.112347 0.017406 0.993517
vn 0.053605 0.176244 0.982886
vn -0.017406 -0.112347 0.993517
vn 0.053601 -0.176105 0.982911
vn -0.017406 0.112347 0.993517
vn -0.005740 -0.001054 0.999983
vn -0.256621 -0.089287 0.962379
vn -0.003992 -0.176115 0.984362
vn -0.325761 0.020396 0.945232
vn -0.242567 0.119766 0.962713
vn 0.019505 0.172181 0.984872
vn 0.004926 0.002499 0.999985
vn 0.283473 0.073253 0.956178
vn 0.011625 0.185692 0.982539
vn 0.350806 -0.049835 0.935121
vn 0.250073 -0.147195 0.956973
vn -0.043313 -0.174301 0.983739
vn 0.007054 0.008391 0.999940
vn -0.214303 0.151812 0.964898
vn -0.173219 -0.107377 0.979012
vn -0.135920 0.271381 0.952826
vn 0.007781 0.272707 0.962066
vn 0.201516 0.098032 0.974567
vn 0.001587 -0.006496 0.999978
vn 0.101477 -0.249016 0.963168
vn 0.215233 -0.019341 0.976371
vn -0.029516 -0.301862 0.952895
vn -0.146553 -0.222932 0.963755
vn -0.210139 0.025673 0.977334
vn -0.006291 0.007704 0.999951
vn -0.370399 0.039057 0.928051
vn -0.114761 -0.214110 0.970045
vn -0.382056 0.217130 0.898269
vn -0.224297 0.300900 0.926904
vn 0.124706 0.216478 0.968290
vn 0.003941 -0.009323 0.999949
vn 0.400770 -0.002322 0.916176
vn 0.083253 0.235608 0.968276
vn 0.436793 -0.189004 0.879482
vn 0.278605 -0.295635 0.913772
vn -0.112302 -0.238335 0.964668
vn 0.006231 0.007628 0.999951
vn 0.043797 0.374946 0.926012
vn -0.246988 0.165248 0.954825
vn 0.238400 0.346478 0.907259
vn 0.335223 0.175222 0.925701
vn 0.244606 -0.171477 0.954339
vn -0.003699 -0.014679 0.999885
vn -0.153814 -0.272977 0.949645
vn 0.126074 -0.181188 0.975334
vn -0.288139 -0.216207 0.932861
vn -0.297110 -0.071133 0.952190
vn -0.117339 0.163858 0.979481
vn -0.009664 -0.000739 0.999953
vn -0.142658 -0.067899 0.987440
vn 0.001410 -0.123186 0.992383
vn -0.199698 0.015103 0.979741
vn -0.129484 0.087386 0.987723
vn 0.021955 0.118182 0.992749
vn 0.010365 0.001198 0.999946
vn 0.129875 0.057147 0.989882
vn -0.001076 0.120221 0.992747
vn 0.181762 -0.024281 0.983043
vn 0.108156 -0.086771 0.990340
vn -0.035840 -0.109173 0.993376
vn 0.003497 0.010777 0.999936
vn -0.119607 0.076518 0.989868
vn -0.099149 -0.075889 0.992175
vn -0.075615 0.173588 0.981911
vn 0.028209 0.149847 0.988307
vn 0.134852 0.040557 0.990035
vn 0.001743 -0.010655 0.999942
vn 0.060901 -0.138773 0.988450
vn 0.139134 -0.019078 0.990090
vn -0.036541 -0.177618 0.983421
vn -0.106870 -0.099574 0.989274
vn -0.125125 0.042839 0.991216
vt 0.750000 0.000000
vt 0.878025 0.933810
vt 1.000000 0.000000
vt 0.750000 1.000000
vt 0.621975 0.933810
vt 0.500000 0.000000
vt 0.250000 0.000000
vt 0.376571 0.808810
vt 0.500000 0.000000
vt 0.250000 1.000000
vt 0.123429 0.808810
vt 0.000000 0.000000
vt 0.750000 0.000000
vt 0.878025 0.933810
vt 1.000000 0.000000
vt 0.750000 1.000000
vt 0.621975 0.933810
vt 0.500000 0.000000
vt 0.250000 0.000000
vt 0.376571 0.808810
vt 0.500000 0.000000
vt 0.250000 1.000000
vt 0.123429 0.808810
vt 0.000000 0.000000
vt 0.250000 0.000000
vt 0.376571 0.808810
vt 0.500000 0.000000
vt 0.250000 1.000000
vt 0.123429 0.808810
vt 0.000000 0.000000
vt 0.250000 0.000000
vt 0.376571 0.808810
vt 0.500000 0.000000
vt 0.250000 1.000000
vt 0.123429 0.808810
vt 0.000000 0.000000
vt 0.250000 0.000000
vt 0.376571 0.808810
vt 0.500000 0.000000
vt 0.250000 1.000000
vt 0.123429 0.808810
vt 0.000000 0.000000
vt 0.750000 0.000000
vt 0.878025 0.933810
vt 1.000000 0.000000
vt 0.750000 1.000000
vt 0.621975 0.933810
vt 0.500000 0.000000
vt 0.250000 0.000000
vt 0.376571 0.808810
vt 0.500000 0.000000
vt 0.250000 1.000000
vt 0.123429 0.808810
vt 0.000000 0.000000
vt 0.750000 0.000000
vt 0.878025 0.933810
vt 1.000000 0.000000
vt 0.750000 1.000000
vt 0.621975 0.933810
vt 0.500000 0.000000
vt 0.250000 0.000000
vt 0.376571 0.808810
vt 0.500000 0.000000
vt 0.250000 1.000000
vt 0.123429 0.808810
vt 0.000000 0.000000
vt 0.250000 0.000000
vt 0.376571 0.808810
vt 0.500000 0.000000
vt 0.250000 1.000000
vt 0.123429 0.808810
vt 0.000000 0.000000
vt 0.250000 0.000000
vt 0.376571 0.808810
vt 0.500000 0.000000
vt 0.250000 1.000000
vt 0.123429 0.808810
vt 0.000000 0.000000
vt 0.750000 0.000000
vt 0.878025 0.933810
vt 1.000000 0.000000
vt 0.750000 1.000000
vt 0.621975 0.933810
vt 0.500000 0.000000
vt 0.750000 0.000000
vt 0.878025 0.933810
vt 1.000000 0.000000
vt 0.750000 1.000000
vt 0.621975 0.933810
vt 0.500000 0.000000
vt 0.750000 0.000000
vt 0.878025 0.933810
vt 1.000000 0.000000
vt 0.750000 1.000000
vt 0.621975 0.933810
vt 0.500000 0.000000
vt 0.750000 0.000000
vt 0.878025 0.933810
vt 1.000000 0.000000
vt 0.750000 1.000000
vt 0.621975 0.933810
vt 0.500000 0.000000
vt 0.750000 0.000000
vt 0.878025 0.933810
vt 1.000000 0.000000
vt 0.750000 1.000000
vt 0.621975 0.933810
vt 0.500000 0.000000
vt 0.250000 0.000000
vt 0.376571 0.808810
vt 0.500000 0.000000
vt 0.250000 1.000000
vt 0.123429 0.808810
vt 0.000000 0.000000
vt 0.250000 0.000000
vt 0.376571 0.808810
vt 0.500000 0.000000
vt 0.250000 1.000000
vt 0.123429 0.808810
vt 0.000000 0.000000
vt 0.250000 0.000000
vt 0.376571 0.808810
vt 0.500000 0.000000
vt 0.250000 1.000000
vt 0.123429 0.808810
vt 0.000000 0.000000
vt 0.250000 0.000000
vt 0.376571 0.808810
vt 0.500000 0.000000
vt 0.250000 1.000000
vt 0.123429 0.808810
vt 0.000000 0.000000
vt 0.250000 0.000000
vt 0.376571 0.808810
vt 0.500000 0.000000
vt 0.250000 1.000000
vt 0.123429 0.808810
vt 0.000000 0.000000
vt 0.250000 0.000000
vt 0.376571 0.808810
vt 0.500000 0.000000
vt 0.250000 1.000000
vt 0.123429 0.808810
vt 0.000000 0.000000
vt 0.250000 0.000000
vt 0.376571 0.808810
vt 0.500000 0.000000
vt 0.250000 1.000000
vt 0.123429 0.808810
vt 0.000000 0.000000
vt 0.250000 0.000000
vt 0.376571 0.808810
vt 0.500000 0.000000
vt 0.250000 1.000000
vt 0.123429 0.808810
vt 0.000000 0.000000
vt 0.250000 0.000000
vt 0.376571 0.808810
vt 0.500000 0.000000
vt 0.250000 1.000000
vt 0.123429 0.808810
vt 0.000000 0.000000
vt 0.250000 0.000000
vt 0.376571 0.808810
vt 0.500000 0.000000
vt 0.250000 1.000000
vt 0.123429 0.808810
vt 0.000000 0.000000
vt 0.750000 0.000000
vt 0.878025 0.933810
vt 1.000000 0.000000
vt 0.750000 1.000000
vt 0.621975 0.933810
vt 0.500000 0.000000
vt 0.250000 0.000000
vt 0.376571 0.808810
vt 0.500000 0.000000
vt 0.250000 1.000000
vt 0.123429 0.808810
vt 0.000000 0.000000
vt 0.250000 0.000000
vt 0.376571 0.808810
vt 0.500000 0.000000
vt 0.250000 1.000000
vt 0.123429 0.808810
vt 0.000000 0.000000
vt 0.250000 0.000000
vt 0.376571 0.808810
vt 0.500000 0.000000
vt 0.250000 1.000000
vt 0.123429 0.808810
vt 0.000000 0.000000
vt 0.750000 0.000000
vt 0.878025 0.933810
vt 1.000000 0.000000
vt 0.750000 1.000000
vt 0.621975 0.933810
vt 0.500000 0.000000
vt 0.250000 0.000000
vt 0.376571 0.808810
vt 0.500000 0.000000
vt 0.250000 1.000000
vt 0.123429 0.808810
vt 0.000000 0.000000
vt 0.250000 0.000000
vt 0.376571 0.808810
vt 0.500000 0.000000
vt 0.250000 1.000000
vt 0.123429 0.808810
vt 0.000000 0.000000
vt 0.750000 0.000000
vt 0.878025 0.933810
vt 1.000000 0.000000
vt 0.750000 1.000000
vt 0.621975 0.933810
vt 0.500000 0.000000
vt 0.250000 0.000000
vt 0.376571 0.808810
vt 0.500000 0.000000
vt 0.250000 1.000000
vt 0.123429 0.808810
vt 0.000000 0.000000
vt 0.750000 0.000000
vt 0.878025 0.933810
vt 1.000000 0.000000
vt 0.750000 1.000000
vt 0.621975 0.933810
vt 0.500000 0.000000
vt 0.250000 0.000000
vt 0.376571 0.808810
vt 0.500000 0.000000
vt 0.250000 1.000000
vt 0.123429 0.808810
vt 0.000000 0.000000
vt 0.250000 0.000000
vt 0.376571 0.808810
vt 0.500000 0.000000
vt 0.250000 1.000000
vt 0.123429 0.808810
vt 0.000000 0.000000
vt 0.500000 0.000000
vt 0.000000 1.000000
vt 0.000000 0.000000
vt 0.500000 1.000000
vt 1.000000 0.000000
vt 0.500000 0.000000
vt 0.500000 1.000000
vt 1.000000 1.000000
vt 0.000000 0.000000
vt 0.500000 0.000000
vt 0.500000 1.000000
vt 0.000000 1.000000
vt 0.500000 0.000000
vt 1.000000 1.000000
vt 1.000000 0.000000
vt 0.500000 1.000000
vt 0.250000 0.000000
vt 0.376571 0.808810
vt 0.500000 0.000000
vt 0.250000 1.000000
vt 0.123429 0.808810
vt 0.000000 0.000000
vt 0.750000 0.000000
vt 0.878025 0.933810
vt 1.000000 0.000000
vt 0.750000 1.000000
vt 0.621975 0.933810
vt 0.500000 0.000000
vt 0.250000 0.000000
vt 0.376571 0.808810
vt 0.500000 0.000000
vt 0.250000 1.000000
vt 0.123429 0.808810
vt 0.000000 0.000000
vt 0.250000 0.000000
vt 0.376571 0.808810
vt 0.500000 0.000000
vt 0.250000 1.000000
vt 0.123429 0.808810
vt 0.000000 0.000000
vt 0.250000 0.000000
vt 0.376571 0.808810
vt 0.500000 0.000000
vt 0.250000 1.000000
vt 0.123429 0.808810
vt 0.000000 0.000000
vt 0.750000 0.000000
vt 0.878025 0.933810
vt 1.000000 0.000000
vt 0.750000 1.000000
vt 0.621975 0.933810
vt 0.500000 0.000000
vt 0.250000 0.000000
vt 0.376571 0.808810
vt 0.500000 0.000000
vt 0.250000 1.000000
vt 0.123429 0.808810
vt 0.000000 0.000000
vt 0.250000 0.000000
vt 0.376571 0.808810
vt 0.500000 0.000000
vt 0.250000 1.000000
vt 0.123429 0.808810
vt 0.000000 0.000000
vt 0.750000 0.000000
vt 0.878025 0.933810
vt 1.000000 0.000000
vt 0.750000 1.000000
vt 0.621975 0.933810
vt 0.500000 0.000000
vt 0.250000 0.000000
vt 0.376571 0.808810
vt 0.500000 0.000000
vt 0.250000 1.000000
vt 0.123429 0.808810
vt 0.000000 0.000000
vt 0.250000 0.000000
vt 0.376571 0.808810
vt 0.500000 0.000000
vt 0.250000 1.000000
vt 0.123429 0.808810
vt 0.000000 0.000000
vt 0.250000 0.000000
vt 0.376571 0.808810
vt 0.500000 0.000000
vt 0.250000 1.000000
vt 0.123429 0.808810
vt 0.000000 0.000000
f 1/1/1 2/2/2 3/3/3
f 4/4/4 2/2/2 1/1/1
f 4/4/4 1/1/1 5/5/5
f 5/5/5 1/1/1 6/6/6
f 7/7/7 8/8/8 9/9/9
f 10/10/10 8/8/8 7/7/7
f 10/10/10 7/7/7 11/11/11
f 11/11/11 7/7/7 12/12/12
f 13/13/13 14/14/14 15/15/15
f 16/16/16 14/14/14 13/13/13
f 16/16/16 13/13/13 17/17/17
f 17/17/17 13/13/13 18/18/18
f 19/19/19 20/20/20 21/21/21
f 22/22/22 20/20/20 19/19/19
f 22/22/22 19/19/19 23/23/23
f 23/23/23 19/19/19 24/24/24
f 25/25/25 26/26/26 27/27/27
f 28/28/28 26/26/26 25/25/25
f 28/28/28 25/25/25 29/29/29
f 29/29/29 25/25/25 30/30/30
f 31/31/31 32/32/32 33/33/33
f 34/34/34 32/32/32 31/31/31
f 34/34/34 31/31/31 35/35/35
f 35/35/35 31/31/31 36/36/36
f 37/37/37 38/38/38 39/39/39
f 40/40/40 38/38/38 37/37/37
f 40/40/40 37/37/37 41/41/41
f 41/41/41 37/37/37 42/42/42
f 43/43/43 44/44/44 45/45/45
f 46/46/46 44/44/44 43/43/43
f 46/46/46 43/43/43 47/47/47
f 47/47/47 43/43/43 48/48/48
f 49/49/49 50/50/50 51/51/51
f 52/52/52 50/50/50 49/49/49
f 52/52/52 49/49/49 53/53/53
f 53/53/53 49/49/49 54/54/54
f 55/55/55 56/56/56 57/57/57
f 58/58/58 56/56/56 55/55/55
f 58/58/58 55/55/55 59/59/59
f 59/59/59 55/55/55 60/60/60
f 61/61/61 62/62/62 63/63/63
f 64/64/64 62/62/62 61/61/61
f 64/64/64 61/61/61 65/65/65
f 65/65/65 61/61/61 66/66/66
f 67/67/67 68/68/68 69/69/69
f 70/70/70 68/68/68 67/67/67
f 70/70/70 67/67/67 71/71/71
f 71/71/71 67/67/67 72/72/72
f 73/73/73 74/74/74 75/75/75
f 76/76/76 74/74/74 73/73/73
f 76/76/76 73/73/73 77/77/77
f 77/77/77 73/73/73 78/78/78
f 79/79/79 80/80/80 81/81/81
f 82/82/82 80/80/80 79/79/79
f 82/82/82 79/79/79 83/83/83
f 83/83/83 79/79/79 84/84/84
f 85/85/85 86/86/86 87/87/87
f 88/88/88 86/86/86 85/85/85
f 88/88/88 85/85/85 89/89/89
f 89/89/89 85/85/85 90/90/90
f 91/91/91 92/92/92 93/93/93
f 94/94/94 92/92/92 91/91/91
f 94/94/94 91/91/91 95/95/95
f 95/95/95 91/91/91 96/96/96
f 97/97/97 98/98/98 99/99/99
f 100/100/100 98/98/98 97/97/97
f 100/100/100 97/97/97 101/101/101
f 101/101/101 97/97/97 102/102/102
f 103/103/103 104/104/104 105/105/105
f 106/106/106 104/104/104 103/103/103
f 106/106/106 103/103/103 107/107/107
f 107/107/107 103/103/103 108/108/108
f 109/109/109 110/110/110 111/111/111
f 112/112/112 110/110/110 109/109/109
f 112/112/112 109/109/109 113/113/113
f 113/113/113 109/109/109 114/114/114
f 115/115/115 116/116/116 117/117/117
f 118/118/118 116/116/116 115/115/115
f 118/118/118 115/115/115 119/119/119
f 119/119/119 115/115/115 120/120/120
f 121/121/121 122/122/122 123/123/123
f 124/124/124 122/122/122 121/121/121
f 124/124/124 121/121/121 125/125/125
f 125/125/125 121/121/121 126/126/126
f 127/127/127 128/128/128 129/129/129
f 130/130/130 128/128/128 127/127/127
f 130/130/130 127/127/127 131/131/131
f 131/131/131 127/127/127 132/132/132
f 133/133/133 134/134/134 135/135/135
f 136/136/136 134/134/134 133/133/133
f 136/136/136 133/133/133 137/137/137
f 137/137/137 133/133/133 138/138/138
f 139/139/139 140/140/140 141/141/141
f 142/142/142 140/140/140 139/139/139
f 142/142/142 139/139/139 143/143/143
f 143/143/143 139/139/139 144/144/144
f 145/145/145 146/146/146 147/147/147
f 148/148/148 146/146/146 145/145/145
f 148/148/148 145/145/145 149/149/149
f 149/149/149 145/145/145 150/150/150
f 151/151/151 152/152/152 153/153/153
f 154/154/154 152/152/152 151/151/151
f 154/154/154 151/151/151 155/155/155
f 155/155/155 151/151/151 156/156/156
f 157/157/157 158/158/158 159/159/159
f 160/160/160 158/158/158 157/157/157
f 160/160/160 157/157/157 161/161/161
f 161/161/161 157/157/157 162/162/162
f 163/163/163 164/164/164 165/165/165
f 166/166/166 164/164/164 163/163/163
f 166/166/166 163/163/163 167/167/167
f 167/167/167 163/163/163 168/168/168
f 169/169/169 170/170/170 171/171/171
f 172/172/172 170/170/170 169/169/169
f 172/172/172 169/169/169 173/173/173
f 173/173/173 169/169/169 174/174/174
f 175/175/175 176/176/176 177/177/177
f 178/178/178 176/176/176 175/175/175
f 178/178/178 175/175/175 179/179/179
f 179/179/179 175/175/175 180/180/180
f 181/181/181 182/182/182 183/183/183
f 184/184/184 182/182/182 181/181/181
f 184/184/184 181/181/181 185/185/185
f 185/185/185 181/181/181 186/186/186
f 187/187/187 188/188/188 189/189/189
f 190/190/190 188/188/188 187/187/187
f 190/190/190 187/187/187 191/191/191
f 191/191/191 187/187/187 192/192/192
f 193/193/193 194/194/194 195/195/195
f 196/196/196 194/194/194 193/193/193
f 196/196/196 193/193/193 197/197/197
f 197/197/197 193/193/193 198/198/198
f 199/199/199 200/200/200 201/201/201
f 202/202/202 200/200/200 199/199/199
f 202/202/202 199/199/199 203/203/203
f 203/203/203 199/199/199 204/204/204
f 205/205/205 206/206/206 207/207/207
f 208/208/208 206/206/206 205/205/205
f 208/208/208 205/205/205 209/209/209
f 209/209/209 205/205/205 210/210/210
f 211/211/211 212/212/212 213/213/213
f 214/214/214 212/212/212 211/211/211
f 214/214/214 211/211/211 215/215/215
f 215/215/215 211/211/211 216/216/216
f 217/217/217 218/218/218 219/219/219
f 220/220/220 218/218/218 217/217/217
f 220/220/220 217/217/217 221/221/221
f 221/221/221 217/217/217 222/222/222
f 223/223/223 224/224/224 225/225/225
f 226/226/226 224/224/224 223/223/223
f 226/226/226 223/223/223 227/227/227
f 227/227/227 223/223/223 228/228/228
f 229/229/229 230/230/230 231/231/231
f 232/232/232 230/230/230 229/229/229
f 232/232/232 229/229/229 233/233/233
f 233/233/233 229/229/229 234/234/234
f 235/235/235 236/236/236 237/237/237
f 238/238/238 236/236/236 235/235/235
f 238/238/238 235/235/235 239/239/239
f 239/239/239 235/235/235 240/240/240
f 241/241/241 242/242/242 243/243/243
f 241/241/241 244/244/244 242/242/242
f 245/245/245 246/246/246 247/247/247
f 245/245/245 247/247/247 248/248/248
f 249/249/249 250/250/250 251/251/251
f 249/249/249 251/251/251 252/252/252
f 253/253/253 254/254/254 255/255/255
f 253/253/253 256/256/256 254/254/254
f 257/257/257 258/258/258 259/259/259
f 260/260/260 258/258/258 257/257/257
f 260/260/260 257/257/257 261/261/261
f 261/261/261 257/257/257 262/262/262
f 263/263/263 264/264/264 265/265/265
f 266/266/266 264/264/264 263/263/263
f 266/266/266 263/263/263 267/267/267
f 267/267/267 263/263/263 268/268/268
f 269/269/269 270/270/270 271/271/271
f 272/272/272 270/270/270 269/269/269
f 272/272/272 269/269/269 273/273/273
f 273/273/273 269/269/269 274/274/274
f 275/275/275 276/276/276 277/277/277
f 278/278/278 276/276/276 275/275/275
f 278/278/278 275/275/275 279/279/279
f 279/279/279 275/275/275 280/280/280
f 281/281/281 282/282/282 283/283/283
f 284/284/284 282/282/282 281/281/281
f 284/284/284 281/281/281 285/285/285
f 285/285/285 281/281/281 286/286/286
f 287/287/287 288/288/288 289/289/289
f 290/290/290 288/288/288 287/287/287
f 290/290/290 287/287/287 291/291/291
f 291/291/291 287/287/287 292/292/292
f 293/293/293 294/294/294 295/295/295
f 296/296/296 294/294/294 293/293/293
f 296/296/296 293/293/293 297/297/297
f 297/297/297 293/293/293 298/298/298
f 299/299/299 300/300/300 301/301/301
f 302/302/302 300/300/300 299/299/299
f 302/302/302 299/299/299 303/303/303
f 303/303/303 299/299/299 304/304/304
f 305/305/305 306/306/306 307/307/307
f 308/308/308 306/306/306 305/305/305
f 308/308/308 305/305/305 309/309/309
f 309/309/309 305/305/305 310/310/310
f 311/311/311 312/312/312 313/313/313
f 314/314/314 312/312/312 311/311/311
f 314/314/314 311/311/311 315/315/315
f 315/315/315 311/311/311 316/316/316
f 317/317/317 318/318/318 319/319/319
f 320/320/320 318/318/318 317/317/317
f 320/320/320 317/317/317 321/321/321
f 321/321/321 317/317/317 322/322/322
f 323/323/323 324/324/324 325/325/325
f 326/326/326 324/324/324 323/323/323
f 326/326/326 323/323/323 327/327/327
f 327/327/327 323/323/323 328/328/328
