v -0.100000 -0.600000 0.000000
v -0.200000 -0.585000 0.000000
v -0.200000 -0.517992 -0.271863
v -0.100000 -0.531274 -0.278834
v 0.100000 -0.600000 -0.000000
v -0.200000 -0.332318 -0.481446
v 0.100000 -0.531274 -0.278834
v 0.200000 -0.585000 -0.000000
v 0.200000 -0.517992 -0.271863
v 0.100000 -0.340839 -0.493790
v 0.200000 -0.332318 -0.481446
v -0.100000 -0.340839 -0.493790
v -0.200000 -0.070514 -0.580735
v 0.100000 -0.072322 -0.595625
v 0.200000 -0.070514 -0.580735
v -0.100000 -0.072322 -0.595625
v -0.200000 0.207444 -0.546985
v 0.100000 0.212763 -0.561010
v 0.200000 0.207444 -0.546985
v -0.100000 0.212763 -0.561010
v -0.200000 0.437879 -0.387927
v 0.100000 0.449106 -0.397874
v 0.200000 0.437879 -0.387927
v -0.100000 0.449106 -0.397874
v -0.200000 0.568001 -0.140000
v 0.100000 0.582565 -0.143589
v 0.200000 0.568001 -0.140000
v -0.100000 0.582565 -0.143589
v -0.200000 0.568001 0.140000
v 0.100000 0.582565 0.143589
v 0.200000 0.568001 0.140000
v -0.100000 0.582565 0.143589
v -0.200000 0.437879 0.387927
v 0.100000 0.449106 0.397874
v 0.200000 0.437879 0.387927
v -0.100000 0.449106 0.397874
v -0.200000 0.207444 0.546985
v 0.100000 0.212763 0.561010
v 0.200000 0.207444 0.546985
v -0.100000 0.212763 0.561010
v -0.200000 -0.070514 0.580735
v 0.100000 -0.072322 0.595625
v 0.200000 -0.070514 0.580735
v -0.100000 -0.072322 0.595625
v -0.200000 -0.332318 0.481446
v 0.100000 -0.340839 0.493790
v 0.200000 -0.332318 0.481446
v -0.100000 -0.340839 0.493790
v -0.200000 -0.517992 0.271863
v 0.100000 -0.531274 0.278834
v 0.200000 -0.517992 0.271863
v -0.100000 -0.531274 0.278834
v -0.200000 -0.585000 0.000000
v -0.100000 -0.600000 0.000000
v 0.100000 -0.600000 -0.000000
v 0.200000 -0.585000 -0.000000
v 0.200000 -0.348882 -0.183108
v 0.200000 -0.394014 -0.000000
v 0.200000 -0.585000 -0.000000
v 0.200000 -0.517992 -0.271863
v 0.200000 -0.223826 -0.324268
v 0.200000 -0.332318 -0.481446
v -0.200000 -0.394014 0.000000
v -0.200000 -0.517992 -0.271863
v -0.200000 -0.585000 0.000000
v -0.200000 -0.348882 -0.183108
v -0.200000 -0.332318 -0.481446
v -0.200000 -0.223826 -0.324268
v -0.200000 -0.070514 -0.580735
v -0.200000 -0.047493 -0.391142
v -0.200000 0.207444 -0.546985
v -0.200000 0.139719 -0.368410
v -0.200000 0.437879 -0.387927
v -0.200000 0.294924 -0.261280
v -0.200000 0.568001 -0.140000
v -0.200000 0.382565 -0.094294
v -0.200000 0.568001 0.140000
v -0.200000 0.382565 0.094294
v -0.200000 0.437879 0.387927
v -0.200000 0.294924 0.261280
v -0.200000 0.207444 0.546985
v -0.200000 0.139719 0.368410
v -0.200000 -0.070514 0.580735
v -0.200000 -0.047493 0.391142
v -0.200000 -0.332318 0.481446
v -0.200000 -0.223826 0.324268
v -0.200000 -0.517992 0.271863
v -0.200000 -0.348882 0.183108
v -0.200000 -0.585000 0.000000
v -0.200000 -0.394014 0.000000
v 0.200000 -0.047493 -0.391142
v 0.200000 -0.223826 -0.324268
v 0.200000 -0.332318 -0.481446
v 0.200000 -0.070514 -0.580735
v 0.200000 0.139719 -0.368410
v 0.200000 0.207444 -0.546985
v 0.200000 0.294924 -0.261280
v 0.200000 0.437879 -0.387927
v 0.200000 0.382565 -0.094294
v 0.200000 0.568001 -0.140000
v 0.200000 0.382565 0.094294
v 0.200000 0.568001 0.140000
v 0.200000 0.294924 0.261280
v 0.200000 0.437879 0.387927
v 0.200000 0.139719 0.368410
v 0.200000 0.294924 0.261280
v 0.200000 0.437879 0.387927
v 0.200000 0.207444 0.546985
v 0.200000 -0.047493 0.391142
v 0.200000 -0.070514 0.580735
v 0.200000 -0.223826 0.324268
v 0.200000 -0.047493 0.391142
v 0.200000 -0.070514 0.580735
v 0.200000 -0.332318 0.481446
v 0.200000 -0.348882 0.183108
v 0.200000 -0.223826 0.324268
v 0.200000 -0.332318 0.481446
v 0.200000 -0.517992 0.271863
v 0.200000 -0.394014 -0.000000
v 0.200000 -0.585000 -0.000000
v 0.120000 -0.331438 0.173952
v 0.120000 -0.374314 -0.000000
v 0.120000 -0.212634 0.308054
v 0.120000 -0.331438 -0.173952
v 0.120000 0.132733 0.349989
v 0.120000 -0.045119 0.371585
v 0.120000 0.280178 -0.248216
v 0.120000 -0.212634 -0.308054
v 0.120000 -0.045119 -0.371585
v 0.120000 0.132733 -0.349989
v 0.120000 0.363437 0.089579
v 0.120000 0.363437 -0.089579
v 0.120000 0.280178 0.248216
v -0.120000 -0.212634 -0.308054
v -0.120000 -0.331438 -0.173952
v -0.120000 -0.374314 0.000000
v -0.120000 0.280178 -0.248216
v -0.120000 -0.045119 -0.371585
v -0.120000 0.132733 -0.349989
v -0.120000 0.132733 0.349989
v -0.120000 -0.045119 0.371585
v -0.120000 -0.212634 0.308054
v -0.120000 -0.331438 0.173952
v -0.120000 0.363437 0.089579
v -0.120000 0.280178 0.248216
v -0.120000 0.363437 -0.089579
v -0.180000 -0.096996 -0.136718
v -0.180000 -0.039047 -0.201076
v -0.180000 -0.086600 -0.185626
v -0.180000 -0.001890 -0.167620
v -0.180000 -0.012285 -0.118713
v -0.180000 -0.059838 -0.103262
v -0.180000 0.100053 -0.134496
v -0.180000 0.079717 -0.088819
v -0.180000 0.109106 -0.048368
v -0.180000 0.149780 -0.139723
v -0.180000 0.179169 -0.099272
v -0.180000 0.158832 -0.053595
v -0.200000 -0.012285 -0.118713
v -0.200000 -0.059838 -0.103262
v -0.200000 -0.059838 0.103262
v -0.200000 -0.012286 0.118713
v -0.200000 0.079717 -0.088819
v -0.200000 -0.001890 -0.167620
v -0.200000 0.100053 -0.134496
v -0.200000 -0.039047 -0.201076
v -0.200000 0.149780 -0.139723
v -0.200000 0.109106 -0.048368
v -0.200000 -0.077254 -0.237764
v -0.200000 -0.086600 -0.185626
v -0.200000 -0.250000 0.000000
v -0.200000 0.202254 -0.146946
v -0.200000 0.179169 -0.099272
v -0.180000 -0.239058 -0.355321
v -0.180000 -0.411803 -0.117557
v -0.180000 0.264058 -0.337158
v -0.180000 -0.015451 -0.427975
v -0.200000 -0.203301 -0.025000
v -0.200000 -0.096996 -0.136718
v -0.200000 -0.160000 -0.050000
v -0.200000 -0.116699 -0.025000
v -0.200000 -0.059838 -0.103262
v -0.200000 -0.059838 0.103262
v -0.200000 -0.116699 0.025000
v -0.200000 -0.096996 0.136718
v -0.200000 -0.160000 0.050000
v -0.200000 -0.086600 0.185626
v -0.200000 -0.203301 0.025000
v -0.200000 -0.077254 0.237764
v -0.200000 -0.039047 0.201076
v -0.180000 -0.239058 0.355321
v -0.180000 -0.411803 0.117557
v -0.200000 0.149780 0.139723
v -0.200000 0.100053 0.134497
v -0.200000 -0.001890 0.167620
v -0.200000 0.079717 0.088819
v -0.200000 0.109106 0.048368
v -0.200000 0.158832 0.053595
v -0.200000 0.158832 -0.053595
v -0.200000 0.179169 0.099272
v -0.200000 0.202254 0.146946
v -0.180000 0.264058 0.337158
v -0.180000 -0.015451 0.427975
v -0.180000 0.402254 0.146946
v -0.180000 0.402254 -0.146946
v -0.180000 -0.203301 -0.025000
v -0.180000 -0.203301 0.025000
v -0.180000 -0.160000 0.050000
v -0.180000 -0.116699 0.025000
v -0.180000 -0.116699 -0.025000
v -0.180000 -0.160000 -0.050000
v -0.180000 -0.059838 0.103262
v -0.180000 -0.096996 0.136718
v -0.180000 -0.086600 0.185626
v -0.180000 -0.001890 0.167620
v -0.180000 -0.012286 0.118713
v -0.180000 -0.039047 0.201076
v -0.180000 0.149780 0.139723
v -0.180000 0.179169 0.099272
v -0.180000 0.158832 0.053595
v -0.180000 0.100053 0.134497
v -0.180000 0.079717 0.088819
v -0.180000 0.109106 0.048368
v -0.100000 -0.015451 -0.427975
v -0.100000 -0.077254 -0.237764
v -0.200000 -0.077254 -0.237764
v -0.180000 -0.015451 -0.427975
v -0.100000 0.264058 -0.337158
v -0.180000 0.264058 -0.337158
v -0.200000 0.202254 -0.146946
v -0.100000 0.202254 -0.146946
v -0.180000 0.264058 0.337158
v -0.100000 0.264058 0.337158
v -0.100000 0.202254 0.146946
v -0.200000 0.202254 0.146946
v -0.100000 -0.015451 0.427975
v -0.180000 -0.015451 0.427975
v -0.200000 -0.077254 0.237764
v -0.100000 -0.077254 0.237764
v -0.200000 0.202254 0.146946
v -0.100000 0.202254 0.146946
v -0.100000 0.402254 0.146946
v -0.180000 0.402254 0.146946
v -0.100000 -0.411803 -0.117557
v -0.100000 -0.250000 -0.000000
v -0.200000 -0.250000 0.000000
v -0.180000 -0.411803 -0.117557
v -0.100000 0.202254 -0.146946
v -0.200000 0.202254 -0.146946
v -0.180000 0.402254 -0.146946
v -0.100000 0.402254 -0.146946
v -0.100000 -0.239058 0.355321
v -0.100000 -0.077254 0.237764
v -0.200000 -0.077254 0.237764
v -0.180000 -0.239058 0.355321
v -0.100000 -0.239058 -0.355321
v -0.180000 -0.239058 -0.355321
v -0.200000 -0.077254 -0.237764
v -0.100000 -0.077254 -0.237764
v -0.100000 -0.411803 0.117557
v -0.180000 -0.411803 0.117557
v -0.200000 -0.250000 0.000000
v -0.100000 -0.250000 -0.000000
v 0.200000 -0.176777 0.176777
v 0.200000 -0.250000 -0.000000
v 0.200000 -0.176777 -0.176777
v 0.200000 0.000000 0.250000
v 0.200000 0.000000 -0.250000
v 0.200000 0.176777 0.176777
v 0.200000 0.176777 -0.176777
v 0.200000 0.250000 -0.000000
v -0.180000 0.100053 -0.134496
v -0.200000 0.079717 -0.088819
v -0.180000 0.079717 -0.088819
v -0.180000 0.109106 -0.048368
v -0.200000 0.100053 -0.134496
v -0.200000 0.109106 -0.048368
v -0.180000 0.149780 -0.139723
v -0.180000 0.158832 -0.053595
v -0.200000 0.149780 -0.139723
v -0.200000 0.158832 -0.053595
v -0.180000 0.179169 -0.099272
v -0.200000 0.179169 -0.099272
v -0.200000 0.079717 0.088819
v -0.180000 0.100053 0.134497
v -0.180000 0.079717 0.088819
v -0.180000 0.109106 0.048368
v -0.200000 0.100053 0.134497
v -0.200000 0.109106 0.048368
v -0.180000 0.149780 0.139723
v -0.180000 0.158832 0.053595
v -0.200000 0.149780 0.139723
v -0.200000 0.158832 0.053595
v -0.180000 0.179169 0.099272
v -0.200000 0.179169 0.099272
v -0.200000 -0.096996 0.136718
v -0.180000 -0.096996 0.136718
v -0.180000 -0.059838 0.103262
v -0.180000 -0.086600 0.185626
v -0.200000 -0.059838 0.103262
v -0.200000 -0.086600 0.185626
v -0.180000 -0.012286 0.118713
v -0.180000 -0.039047 0.201076
v -0.200000 -0.012286 0.118713
v -0.200000 -0.039047 0.201076
v -0.180000 -0.001890 0.167620
v -0.200000 -0.001890 0.167620
v -0.180000 -0.160000 -0.050000
v -0.200000 -0.160000 -0.050000
v -0.200000 -0.203301 -0.025000
v -0.200000 -0.116699 -0.025000
v -0.180000 -0.203301 -0.025000
v -0.180000 -0.116699 -0.025000
v -0.180000 -0.116699 0.025000
v -0.200000 -0.116699 0.025000
v -0.200000 -0.203301 0.025000
v -0.180000 -0.203301 0.025000
v -0.180000 -0.160000 0.050000
v -0.200000 -0.160000 0.050000
v -0.200000 -0.012285 -0.118713
v -0.200000 -0.001890 -0.167620
v -0.180000 -0.001890 -0.167620
v -0.200000 -0.039047 -0.201076
v -0.180000 -0.012285 -0.118713
v -0.180000 -0.039047 -0.201076
v -0.200000 -0.059838 -0.103262
v -0.200000 -0.086600 -0.185626
v -0.180000 -0.059838 -0.103262
v -0.180000 -0.086600 -0.185626
v -0.200000 -0.096996 -0.136718
v -0.180000 -0.096996 -0.136718
v 0.200000 -0.047493 0.391142
v 0.200000 -0.223826 0.324268
v 0.120000 -0.212634 0.308054
v 0.120000 -0.045119 0.371585
v 0.120000 -0.331438 0.173952
v 0.200000 0.139719 0.368410
v 0.200000 -0.348882 0.183108
v 0.120000 0.132733 0.349989
v 0.120000 -0.374314 -0.000000
v 0.200000 0.294924 0.261280
v 0.200000 -0.394014 -0.000000
v 0.120000 0.280178 0.248216
v 0.120000 -0.331438 -0.173952
v 0.200000 0.382565 0.094294
v 0.200000 -0.348882 -0.183108
v 0.120000 0.363437 0.089579
v 0.120000 -0.212634 -0.308054
v 0.200000 0.382565 -0.094294
v 0.200000 -0.223826 -0.324268
v 0.120000 0.363437 -0.089579
v 0.120000 -0.045119 -0.371585
v 0.200000 0.294924 -0.261280
v 0.200000 -0.047493 -0.391142
v 0.120000 0.280178 -0.248216
v 0.120000 0.132733 -0.349989
v 0.200000 0.139719 -0.368410
v -0.200000 -0.047493 -0.391142
v -0.200000 -0.223826 -0.324268
v -0.120000 -0.212634 -0.308054
v -0.120000 -0.045119 -0.371585
v -0.120000 -0.331438 -0.173952
v -0.200000 0.139719 -0.368410
v -0.200000 -0.348882 -0.183108
v -0.120000 0.132733 -0.349989
v -0.120000 -0.374314 0.000000
v -0.200000 0.294924 -0.261280
v -0.200000 -0.394014 0.000000
v -0.120000 0.280178 -0.248216
v -0.120000 -0.331438 0.173952
v -0.200000 0.382565 -0.094294
v -0.200000 -0.348882 0.183108
v -0.120000 0.363437 -0.089579
v -0.120000 -0.212634 0.308054
v -0.200000 0.382565 0.094294
v -0.200000 -0.223826 0.324268
v -0.120000 0.363437 0.089579
v -0.120000 -0.045119 0.371585
v -0.200000 0.294924 0.261280
v -0.200000 -0.047493 0.391142
v -0.120000 0.280178 0.248216
v -0.120000 0.132733 0.349989
v -0.200000 0.139719 0.368410
v 0.200000 0.000000 0.250000
v 0.120000 0.000000 0.250000
v 0.120000 -0.176777 0.176777
v 0.200000 0.176777 0.176777
v 0.200000 -0.176777 0.176777
v 0.120000 0.176777 0.176777
v 0.120000 -0.250000 0.000000
v 0.200000 0.250000 -0.000000
v 0.200000 -0.250000 -0.000000
v 0.120000 0.250000 0.000000
v 0.120000 -0.176777 -0.176777
v 0.200000 0.176777 -0.176777
v 0.200000 -0.176777 -0.176777
v 0.120000 0.176777 -0.176777
v 0.120000 0.000000 -0.250000
v 0.200000 0.000000 -0.250000
vn -0.073547 -0.997070 0.000000
vn -0.148315 -0.988770 0.000000
vn -0.148315 -0.875488 -0.459473
vn -0.073547 -0.883301 -0.463379
vn 0.073547 -0.997070 0.000000
vn -0.148315 -0.562012 -0.813965
vn 0.073547 -0.883301 -0.463379
vn 0.148315 -0.988770 0.000000
vn 0.148315 -0.875488 -0.459473
vn 0.073547 -0.566406 -0.820801
vn 0.148315 -0.562012 -0.813965
vn -0.073547 -0.566406 -0.820801
vn -0.148315 -0.119202 -0.981934
vn 0.073547 -0.120239 -0.990234
vn 0.148315 -0.119202 -0.981934
vn -0.073547 -0.120239 -0.990234
vn -0.148315 0.350586 -0.924805
vn 0.073547 0.353760 -0.932617
vn 0.148315 0.350586 -0.924805
vn -0.073547 0.353760 -0.932617
vn -0.148315 0.740234 -0.655762
vn 0.073547 0.746582 -0.661133
vn 0.148315 0.740234 -0.655762
vn -0.073547 0.746582 -0.661133
vn -0.148315 0.959961 -0.236694
vn 0.073547 0.968262 -0.238647
vn 0.148315 0.959961 -0.236694
vn -0.073547 0.968262 -0.238647
vn -0.148315 0.959961 0.236694
vn 0.073547 0.968262 0.238647
vn 0.148315 0.959961 0.236694
vn -0.073547 0.968262 0.238647
vn -0.148315 0.740234 0.655762
vn 0.073547 0.746582 0.661133
vn 0.148315 0.740234 0.655762
vn -0.073547 0.746582 0.661133
vn -0.148315 0.350586 0.924805
vn 0.073547 0.353760 0.932617
vn 0.148315 0.350586 0.924805
vn -0.073547 0.353760 0.932617
vn -0.148315 -0.119202 0.981934
vn 0.073547 -0.120239 0.990234
vn 0.148315 -0.119202 0.981934
vn -0.073547 -0.120239 0.990234
vn -0.148315 -0.562012 0.813965
vn 0.073547 -0.566406 0.820801
vn 0.148315 -0.562012 0.813965
vn -0.073547 -0.566406 0.820801
vn -0.148315 -0.875488 0.459473
vn 0.073547 -0.883301 0.463379
vn 0.148315 -0.875488 0.459473
vn -0.073547 -0.883301 0.463379
vn -0.148315 -0.988770 0.000000
vn -0.073547 -0.997070 0.000000
vn 0.073547 -0.997070 0.000000
vn 0.148315 -0.988770 0.000000
vn 1.000000 0.000000 0.000000
vn 1.000000 0.000000 0.000000
vn 1.000000 0.000000 0.000000
vn 1.000000 0.000000 0.000000
vn 1.000000 0.000000 0.000000
vn 1.000000 0.000000 0.000000
vn -1.000000 0.000000 0.000000
vn -1.000000 0.000000 0.000000
vn -1.000000 0.000000 0.000000
vn -1.000000 0.000000 0.000000
vn -1.000000 0.000000 0.000000
vn -1.000000 0.000000 0.000000
vn -1.000000 0.000000 0.000000
vn -1.000000 0.000000 0.000000
vn -1.000000 0.000000 0.000000
vn -1.000000 0.000000 0.000000
vn -1.000000 0.000000 0.000000
vn -1.000000 0.000000 0.000000
vn -1.000000 0.000000 0.000000
vn -1.000000 0.000000 0.000000
vn -1.000000 0.000000 0.000000
vn -1.000000 0.000000 0.000000
vn -1.000000 0.000000 0.000000
vn -1.000000 0.000000 0.000000
vn -1.000000 0.000000 0.000000
vn -1.000000 0.000000 0.000000
vn -1.000000 0.000000 0.000000
vn -1.000000 0.000000 0.000000
vn -1.000000 0.000000 0.000000
vn -1.000000 0.000000 0.000000
vn -1.000000 0.000000 0.000000
vn -1.000000 0.000000 0.000000
vn -1.000000 0.000000 0.000000
vn -1.000000 0.000000 0.000000
vn 1.000000 0.000000 0.000000
vn 1.000000 0.000000 0.000000
vn 1.000000 0.000000 0.000000
vn 1.000000 0.000000 0.000000
vn 1.000000 0.000000 0.000000
vn 1.000000 0.000000 0.000000
vn 1.000000 0.000000 0.000000
vn 1.000000 0.000000 0.000000
vn 1.000000 0.000000 0.000000
vn 1.000000 0.000000 0.000000
vn 1.000000 0.000000 0.000000
vn 1.000000 0.000000 0.000000
vn 1.000000 0.000000 0.000000
vn 1.000000 0.000000 0.000000
vn 1.000000 0.000000 0.000000
vn 1.000000 0.000000 0.000000
vn 1.000000 0.000000 0.000000
vn 1.000000 0.000000 0.000000
vn 1.000000 0.000000 0.000000
vn 1.000000 0.000000 0.000000
vn 1.000000 0.000000 0.000000
vn 1.000000 0.000000 0.000000
vn 1.000000 0.000000 0.000000
vn 1.000000 0.000000 0.000000
vn 1.000000 0.000000 0.000000
vn 1.000000 0.000000 0.000000
vn 1.000000 0.000000 0.000000
vn 1.000000 0.000000 0.000000
vn 1.000000 0.000000 0.000000
vn 1.000000 0.000000 0.000000
vn 1.000000 0.000000 0.000000
vn 1.000000 0.000000 0.000000
vn 1.000000 0.000000 0.000000
vn 1.000000 0.000000 0.000000
vn 1.000000 0.000000 0.000000
vn 1.000000 0.000000 0.000000
vn 1.000000 0.000000 0.000000
vn 1.000000 0.000000 0.000000
vn 1.000000 0.000000 0.000000
vn 1.000000 0.000000 0.000000
vn 1.000000 0.000000 0.000000
vn 1.000000 0.000000 0.000000
vn 1.000000 0.000000 0.000000
vn -1.000000 0.000000 0.000000
vn -1.000000 0.000000 0.000000
vn -1.000000 0.000000 0.000000
vn -1.000000 0.000000 0.000000
vn -1.000000 0.000000 0.000000
vn -1.000000 0.000000 0.000000
vn -1.000000 0.000000 0.000000
vn -1.000000 0.000000 0.000000
vn -1.000000 0.000000 0.000000
vn -1.000000 0.000000 0.000000
vn -1.000000 0.000000 0.000000
vn -1.000000 0.000000 0.000000
vn -1.000000 0.000000 0.000000
vn -1.000000 0.000000 0.000000
vn -1.000000 0.000000 0.000000
vn -1.000000 0.000000 0.000000
vn -1.000000 0.000000 0.000000
vn -1.000000 0.000000 0.000000
vn -1.000000 0.000000 0.000000
vn -1.000000 0.000000 0.000000
vn -1.000000 0.000000 0.000000
vn -1.000000 0.000000 0.000000
vn -1.000000 0.000000 0.000000
vn -1.000000 0.000000 0.000000
vn -1.000000 0.000000 0.000000
vn -1.000000 0.000000 0.000000
vn -1.000000 -0.005272 -0.000160
vn -1.000000 -0.000498 0.000288
vn -1.000000 0.000000 0.000000
vn -1.000000 0.000000 0.000000
vn -1.000000 0.000000 0.000000
vn -1.000000 0.000000 0.000000
vn -1.000000 0.000000 0.000000
vn -1.000000 0.000000 0.000000
vn -1.000000 0.000000 0.000000
vn -0.998535 -0.002605 -0.056519
vn -1.000000 -0.000472 -0.000085
vn -0.998535 -0.050415 0.000000
vn -0.997070 0.064514 -0.035645
vn -1.000000 0.000000 0.000000
vn -0.995117 -0.080505 -0.058472
vn -0.995117 -0.080505 -0.058472
vn -0.995117 0.030746 -0.094604
vn -0.995117 0.030746 -0.094604
vn -1.000000 0.000000 0.000000
vn -1.000000 -0.000472 -0.000083
vn -1.000000 0.001982 0.000350
vn -1.000000 0.000322 -0.000095
vn -1.000000 -0.005272 -0.000160
vn -1.000000 -0.000498 0.000288
vn -1.000000 -0.000827 -0.000245
vn -1.000000 0.002077 -0.000366
vn -1.000000 -0.000330 0.000058
vn -1.000000 -0.000330 0.000059
vn -1.000000 0.000000 0.000000
vn -0.998047 -0.007828 0.058105
vn -1.000000 0.000000 0.000000
vn -0.995117 -0.080505 0.058472
vn -0.995117 -0.080505 0.058472
vn -1.000000 0.000000 0.000000
vn -1.000000 0.000000 0.000000
vn -1.000000 0.000000 0.000000
vn -1.000000 0.000000 0.000000
vn -1.000000 0.000000 0.000000
vn -1.000000 0.000000 0.000000
vn -1.000000 0.000000 0.000000
vn -1.000000 0.000000 0.000000
vn -0.996582 0.071655 0.037445
vn -0.995117 0.030746 0.094604
vn -0.995117 0.030746 0.094604
vn -0.995117 0.099487 0.000000
vn -0.995117 0.099487 0.000000
vn -1.000000 0.000000 0.000000
vn -1.000000 0.000000 0.000000
vn -1.000000 0.000000 0.000000
vn -1.000000 0.000000 0.000000
vn -1.000000 0.000000 0.000000
vn -1.000000 0.000000 0.000000
vn -1.000000 0.000000 0.000000
vn -1.000000 0.000000 0.000000
vn -1.000000 0.000000 0.000000
vn -1.000000 0.000000 0.000000
vn -1.000000 0.000000 0.000000
vn -1.000000 0.000000 0.000000
vn -1.000000 0.000000 0.000000
vn -1.000000 0.000000 0.000000
vn -1.000000 0.000000 0.000000
vn -1.000000 0.000000 0.000000
vn -1.000000 0.000000 0.000000
vn -1.000000 0.000000 0.000000
vn 0.000000 -0.951172 -0.309082
vn 0.000000 -0.951172 -0.309082
vn 0.000000 -0.951172 -0.309082
vn 0.000000 -0.951172 -0.309082
vn 0.000000 0.951172 0.309082
vn 0.000000 0.951172 0.309082
vn 0.000000 0.951172 0.309082
vn 0.000000 0.951172 0.309082
vn 0.000000 0.951172 -0.309082
vn 0.000000 0.951172 -0.309082
vn 0.000000 0.951172 -0.309082
vn 0.000000 0.951172 -0.309082
vn 0.000000 -0.951172 0.309082
vn 0.000000 -0.951172 0.309082
vn 0.000000 -0.951172 0.309082
vn 0.000000 -0.951172 0.309082
vn 0.000000 0.000000 1.000000
vn 0.000000 0.000000 1.000000
vn 0.000000 0.000000 1.000000
vn 0.000000 0.000000 1.000000
vn 0.000000 -0.587891 0.809082
vn 0.000000 -0.587891 0.809082
vn 0.000000 -0.587891 0.809082
vn 0.000000 -0.587891 0.809082
vn 0.000000 0.000000 -1.000000
vn 0.000000 0.000000 -1.000000
vn 0.000000 0.000000 -1.000000
vn 0.000000 0.000000 -1.000000
vn 0.000000 0.587891 0.809082
vn 0.000000 0.587891 0.809082
vn 0.000000 0.587891 0.809082
vn 0.000000 0.587891 0.809082
vn 0.000000 0.587891 -0.809082
vn 0.000000 0.587891 -0.809082
vn 0.000000 0.587891 -0.809082
vn 0.000000 0.587891 -0.809082
vn 0.000000 -0.587891 -0.809082
vn 0.000000 -0.587891 -0.809082
vn 0.000000 -0.587891 -0.809082
vn 0.000000 -0.587891 -0.809082
vn 1.000000 0.000000 0.000000
vn 1.000000 0.000000 0.000000
vn 1.000000 0.000000 0.000000
vn 1.000000 0.000000 0.000000
vn 1.000000 0.000000 0.000000
vn 1.000000 0.000000 0.000000
vn 1.000000 0.000000 0.000000
vn 1.000000 0.000000 0.000000
vn 0.597168 0.471436 0.648926
vn -0.000162 0.994141 -0.107910
vn 0.597168 0.797852 -0.083618
vn 0.597168 0.326172 -0.732910
vn -0.002287 0.564453 0.825195
vn -0.002590 0.377197 -0.926270
vn 0.597168 -0.326172 0.732910
vn 0.597168 -0.471436 -0.648926
vn -0.001596 -0.436523 0.899902
vn -0.000987 -0.611328 -0.791504
vn 0.597168 -0.797852 0.083801
vn 0.000124 -0.995117 0.100769
vn -0.000176 0.994141 0.108215
vn 0.597168 0.471436 -0.648926
vn 0.597168 0.797852 0.083984
vn 0.597168 0.326172 0.732910
vn -0.002277 0.564453 -0.825195
vn -0.002613 0.377197 0.926270
vn -0.597168 -0.326172 -0.732910
vn -0.597168 -0.471436 0.648926
vn -0.001595 -0.436523 -0.899902
vn -0.000988 -0.611328 0.791504
vn -0.597168 -0.797852 -0.083862
vn 0.000123 -0.995117 -0.100769
vn -0.000200 0.948730 0.315674
vn 0.597168 0.762695 0.247925
vn 0.597168 0.166748 0.784668
vn -0.597168 0.596191 -0.536621
vn -0.002018 0.182129 0.983398
vn -0.000952 0.732910 -0.680664
vn 0.415283 -0.852539 0.317383
vn -0.597168 -0.166748 -0.784668
vn 0.021790 -0.525391 0.850586
vn -0.001885 -0.238159 -0.971191
vn 0.078003 -0.633789 -0.769531
vn 0.000187 -0.954590 -0.298340
vn -0.597168 -0.000028 0.802246
vn 0.000000 0.000000 1.000000
vn 0.000000 0.866211 0.500000
vn 0.000000 -0.866211 0.500000
vn -0.597168 0.694824 0.400879
vn 0.597168 -0.694824 0.401123
vn 0.597168 -0.694824 -0.401123
vn 0.000000 -0.866211 -0.500000
vn 0.000000 0.866211 -0.500000
vn -0.597168 0.694824 -0.401123
vn 0.597168 0.000029 -0.802246
vn 0.000000 0.000000 -1.000000
vn -0.000422 -0.759277 -0.650879
vn 0.000188 -0.954590 0.298340
vn 0.597168 -0.762695 0.247803
vn -0.001885 -0.238159 0.971191
vn 0.597168 -0.595703 -0.537109
vn -0.597168 -0.166748 0.784668
vn -0.002020 0.182007 -0.983398
vn -0.000950 0.732910 0.680664
vn 0.597168 0.166748 -0.784668
vn 0.597168 0.596191 0.536621
vn -0.000200 0.948730 -0.315674
vn 0.597168 0.762695 -0.247803
vn 0.239136 0.117065 -0.963867
vn 0.239136 0.551758 -0.799316
vn 0.239136 0.551758 -0.799316
vn 0.239136 0.117065 -0.963867
vn 0.239136 0.859863 -0.451172
vn 0.239136 -0.344238 -0.907715
vn 0.239136 0.859863 -0.451172
vn 0.239136 -0.344238 -0.907715
vn 0.239136 0.971191 0.000000
vn 0.239136 -0.726562 -0.644043
vn 0.239136 0.971191 0.000000
vn 0.239136 -0.726562 -0.644043
vn 0.239136 0.859863 0.451172
vn 0.239136 -0.942871 -0.232422
vn 0.239136 0.859863 0.451172
vn 0.239136 -0.942871 -0.232422
vn 0.239136 0.551758 0.799316
vn 0.239136 -0.942871 0.232422
vn 0.239136 0.551758 0.799316
vn 0.239136 -0.942871 0.232422
vn 0.239136 0.117065 0.963867
vn 0.239136 -0.726562 0.644043
vn 0.239136 0.117065 0.963867
vn 0.239136 -0.726562 0.644043
vn 0.239136 -0.344238 0.907715
vn 0.239136 -0.344238 0.907715
vn -0.239136 0.117065 0.963867
vn -0.239136 0.551758 0.799316
vn -0.239136 0.551758 0.799316
vn -0.239136 0.117065 0.963867
vn -0.239136 0.859863 0.451172
vn -0.239136 -0.344238 0.907715
vn -0.239136 0.859863 0.451172
vn -0.239136 -0.344238 0.907715
vn -0.239136 0.971191 0.000000
vn -0.239136 -0.726562 0.644043
vn -0.239136 0.971191 0.000000
vn -0.239136 -0.726562 0.644043
vn -0.239136 0.859863 -0.451172
vn -0.239136 -0.942871 0.232422
vn -0.239136 0.859863 -0.451172
vn -0.239136 -0.942871 0.232422
vn -0.239136 0.551758 -0.799316
vn -0.239136 -0.942871 -0.232422
vn -0.239136 0.551758 -0.799316
vn -0.239136 -0.942871 -0.232422
vn -0.239136 0.117065 -0.963867
vn -0.239136 -0.726562 -0.644043
vn -0.239136 0.117065 -0.963867
vn -0.239136 -0.726562 -0.644043
vn -0.239136 -0.344238 -0.907715
vn -0.239136 -0.344238 -0.907715
vn 0.000000 0.000000 1.000000
vn 0.000000 0.000000 1.000000
vn 0.000000 -0.707031 0.707031
vn 0.000000 0.707031 0.707031
vn 0.000000 -0.707031 0.707031
vn 0.000000 0.707031 0.707031
vn 0.000000 -1.000000 0.000000
vn 0.000000 1.000000 0.000000
vn 0.000000 -1.000000 0.000000
vn 0.000000 1.000000 0.000000
vn 0.000000 -0.707031 -0.707031
vn 0.000000 0.707031 -0.707031
vn 0.000000 -0.707031 -0.707031
vn 0.000000 0.707031 -0.707031
vn 0.000000 0.000000 -1.000000
vn 0.000000 0.000000 -1.000000
vt -7.792969 0.576660
vt -7.593750 0.528320
vt -6.363281 0.528320
vt -6.562500 0.576660
vt -7.792969 0.673340
vt -5.132812 0.528320
vt -6.562500 0.673340
vt -7.593750 0.721680
vt -6.363281 0.721680
vt -5.332031 0.673340
vt -5.132812 0.721680
vt -5.332031 0.576660
vt -3.904297 0.528320
vt -4.105469 0.673340
vt -3.904297 0.721680
vt -4.105469 0.576660
vt -2.673828 0.528320
vt -2.875000 0.673340
vt -2.673828 0.721680
vt -2.875000 0.576660
vt -1.444336 0.528320
vt -1.644531 0.673340
vt -1.444336 0.721680
vt -1.644531 0.576660
vt -0.215088 0.528320
vt -0.415039 0.673340
vt -0.214966 0.721680
vt -0.415039 0.576660
vt 1.014648 0.528320
vt 0.814453 0.673340
vt 1.014648 0.721680
vt 0.814453 0.576660
vt 2.244141 0.528320
vt 2.044922 0.673340
vt 2.244141 0.721680
vt 2.044922 0.576660
vt 3.474609 0.528320
vt 3.273438 0.673340
vt 3.474609 0.721680
vt 3.273438 0.576660
vt 4.703125 0.528320
vt 4.503906 0.673340
vt 4.703125 0.721680
vt 4.503906 0.576660
vt 5.933594 0.528320
vt 5.734375 0.673340
vt 5.933594 0.721680
vt 5.734375 0.576660
vt 7.164062 0.528320
vt 6.964844 0.673340
vt 7.164062 0.721680
vt 6.964844 0.576660
vt 8.390625 0.528320
vt 8.195312 0.576660
vt 8.195312 0.673340
vt 8.390625 0.721680
vt -6.261719 0.820801
vt -7.492188 0.820801
vt -7.593750 0.721680
vt -6.363281 0.721680
vt -5.035156 0.820801
vt -5.132812 0.721680
vt -7.492188 0.428955
vt -6.363281 0.528320
vt -7.593750 0.528320
vt -6.261719 0.428955
vt -5.132812 0.528320
vt -5.035156 0.428955
vt -3.904297 0.528320
vt -3.804688 0.428955
vt -2.673828 0.528320
vt -2.574219 0.428955
vt -1.444336 0.528320
vt -1.344727 0.428955
vt -0.215088 0.528320
vt -0.115051 0.428955
vt 1.014648 0.528320
vt 1.114258 0.428955
vt 2.244141 0.528320
vt 2.343750 0.428955
vt 3.474609 0.528320
vt 3.574219 0.428955
vt 4.703125 0.528320
vt 4.804688 0.428955
vt 5.933594 0.528320
vt 6.035156 0.428955
vt 7.164062 0.528320
vt 7.261719 0.428955
vt 8.390625 0.528320
vt 8.492188 0.428955
vt -3.804688 0.820801
vt -5.035156 0.820801
vt -5.132812 0.721680
vt -3.904297 0.721680
vt -2.574219 0.820801
vt -2.673828 0.721680
vt -1.344727 0.820801
vt -1.444336 0.721680
vt -0.115051 0.820801
vt -0.214966 0.721680
vt 1.114258 0.820801
vt 1.014648 0.721680
vt 2.343750 0.820801
vt 2.244141 0.721680
vt 3.574219 0.820801
vt 2.343750 0.820801
vt 2.244141 0.721680
vt 3.474609 0.721680
vt 4.804688 0.820801
vt 4.703125 0.721680
vt 6.035156 0.820801
vt 4.804688 0.820801
vt 4.703125 0.721680
vt 5.933594 0.721680
vt 7.261719 0.820801
vt 6.035156 0.820801
vt 5.933594 0.721680
vt 7.164062 0.721680
vt 8.492188 0.820801
vt 8.390625 0.721680
vt 0.622559 0.142822
vt 0.622559 0.142822
vt 0.622559 0.142822
vt 0.622559 0.142822
vt 0.622559 0.142822
vt 0.622559 0.142822
vt 0.622559 0.142822
vt 0.622559 0.142822
vt 0.622559 0.142822
vt 0.622559 0.142822
vt 0.622559 0.142822
vt 0.622559 0.142822
vt 0.622559 0.142822
vt 0.622559 0.142822
vt 0.622559 0.142822
vt 0.622559 0.142822
vt 0.622559 0.142822
vt 0.622559 0.142822
vt 0.622559 0.142822
vt 0.622559 0.142822
vt 0.622559 0.142822
vt 0.622559 0.142822
vt 0.622559 0.142822
vt 0.622559 0.142822
vt 0.622559 0.142822
vt 0.622559 0.142822
vt 0.354736 0.103943
vt 0.354736 0.103943
vt 0.354736 0.103943
vt 0.354736 0.103943
vt 0.354736 0.103943
vt 0.354736 0.103943
vt 0.354736 0.103943
vt 0.354736 0.103943
vt 0.354736 0.103943
vt 0.354736 0.103943
vt 0.354736 0.103943
vt 0.354736 0.103943
vt 0.879883 0.134155
vt 0.879883 0.134155
vt 0.879883 0.134155
vt 0.879883 0.134155
vt 0.879883 0.134155
vt 0.879883 0.134155
vt 0.879883 0.134155
vt 0.879883 0.134155
vt 0.879883 0.134155
vt 0.879883 0.134155
vt 0.879883 0.134155
vt 0.879883 0.134155
vt 0.879883 0.134155
vt 0.879883 0.134155
vt 0.879883 0.134155
vt 0.879883 0.134155
vt 0.879883 0.134155
vt 0.879883 0.134155
vt 0.879883 0.134155
vt 0.879883 0.134155
vt 0.879883 0.134155
vt 0.879883 0.134155
vt 0.879883 0.134155
vt 0.879883 0.134155
vt 0.879883 0.134155
vt 0.879883 0.134155
vt 0.879883 0.134155
vt 0.879883 0.134155
vt 0.879883 0.134155
vt 0.879883 0.134155
vt 0.879883 0.134155
vt 0.879883 0.134155
vt 0.879883 0.134155
vt 0.879883 0.134155
vt 0.879883 0.134155
vt 0.879883 0.134155
vt 0.879883 0.134155
vt 0.879883 0.134155
vt 0.879883 0.134155
vt 0.879883 0.134155
vt 0.879883 0.134155
vt 0.879883 0.134155
vt 0.879883 0.134155
vt 0.879883 0.134155
vt 0.879883 0.134155
vt 0.879883 0.134155
vt 0.879883 0.134155
vt 0.354736 0.103943
vt 0.354736 0.103943
vt 0.354736 0.103943
vt 0.354736 0.103943
vt 0.354736 0.103943
vt 0.354736 0.103943
vt 0.354736 0.103943
vt 0.354736 0.103943
vt 0.354736 0.103943
vt 0.354736 0.103943
vt 0.354736 0.103943
vt 0.354736 0.103943
vt 0.354736 0.103943
vt 0.354736 0.103943
vt 0.354736 0.103943
vt 0.354736 0.103943
vt 0.354736 0.103943
vt 0.354736 0.103943
vt 0.879883 0.134155
vt 0.879883 0.134155
vt 0.879883 0.134155
vt 0.879883 0.134155
vt 0.879883 0.134155
vt 0.879883 0.134155
vt 0.879883 0.134155
vt 0.879883 0.134155
vt 0.879883 0.134155
vt 0.879883 0.134155
vt 0.879883 0.134155
vt 0.879883 0.134155
vt 0.879883 0.134155
vt 0.879883 0.134155
vt 0.879883 0.134155
vt 0.879883 0.134155
vt 0.879883 0.134155
vt 0.879883 0.134155
vt 0.879883 0.134155
vt 0.879883 0.134155
vt 0.879883 0.134155
vt 0.879883 0.134155
vt 0.879883 0.134155
vt 0.879883 0.134155
vt 0.879883 0.134155
vt 0.879883 0.134155
vt 0.879883 0.134155
vt 0.879883 0.134155
vt 0.879883 0.134155
vt 0.879883 0.134155
vt 0.879883 0.134155
vt 0.879883 0.134155
vt 0.879883 0.134155
vt 0.879883 0.134155
vt 0.879883 0.134155
vt 0.879883 0.134155
vt 0.879883 0.134155
vt 0.879883 0.134155
vt 0.879883 0.134155
vt 0.879883 0.134155
vt 0.859375 0.131958
vt 0.859375 0.131958
vt 0.859375 0.131958
vt 0.859375 0.131958
vt 0.859375 0.131958
vt 0.859375 0.131958
vt 0.859375 0.131958
vt 0.859375 0.131958
vt 0.864258 0.102722
vt 0.864258 0.102722
vt 0.864258 0.102722
vt 0.864258 0.102722
vt 0.864258 0.102722
vt 0.864258 0.102722
vt 0.864258 0.102722
vt 0.864258 0.102722
vt 0.864258 0.102722
vt 0.864258 0.102722
vt 0.864258 0.102722
vt 0.864258 0.102722
vt 0.864258 0.102722
vt 0.864258 0.102722
vt 0.864258 0.102722
vt 0.864258 0.102722
vt 0.864258 0.102722
vt 0.864258 0.102722
vt 0.864258 0.102722
vt 0.864258 0.102722
vt 0.864258 0.102722
vt 0.864258 0.102722
vt 0.864258 0.102722
vt 0.864258 0.102722
vt 0.864258 0.102722
vt 0.864258 0.102722
vt 0.864258 0.102722
vt 0.864258 0.102722
vt 0.864258 0.102722
vt 0.864258 0.102722
vt 0.864258 0.102722
vt 0.864258 0.102722
vt 0.864258 0.102722
vt 0.864258 0.102722
vt 0.864258 0.102722
vt 0.864258 0.102722
vt 0.864258 0.102722
vt 0.864258 0.102722
vt 0.864258 0.102722
vt 0.864258 0.102722
vt 0.864258 0.102722
vt 0.864258 0.102722
vt 0.864258 0.102722
vt 0.864258 0.102722
vt 0.864258 0.102722
vt 0.864258 0.102722
vt 0.864258 0.102722
vt 0.864258 0.102722
vt 0.864258 0.102722
vt 0.864258 0.102722
vt 0.864258 0.102722
vt 0.864258 0.102722
vt 0.864258 0.102722
vt 0.864258 0.102722
vt 0.864258 0.102722
vt 0.864258 0.102722
vt 0.864258 0.102722
vt 0.864258 0.102722
vt 0.864258 0.102722
vt 0.864258 0.102722
vt 0.887695 0.132812
vt 0.887695 0.132812
vt 0.887695 0.132812
vt 0.887695 0.132812
vt 0.887695 0.132812
vt 0.887695 0.132812
vt 0.887695 0.132812
vt 0.887695 0.132812
vt 0.887695 0.132812
vt 0.887695 0.132812
vt 0.887695 0.132812
vt 0.887695 0.132812
vt 0.887695 0.132812
vt 0.887695 0.132812
vt 0.887695 0.132812
vt 0.887695 0.132812
vt 0.887695 0.132812
vt 0.887695 0.132812
vt 0.887695 0.132812
vt 0.887695 0.132812
vt 0.887695 0.132812
vt 0.887695 0.132812
vt 0.887695 0.132812
vt 0.887695 0.132812
vt 0.887695 0.132812
vt 0.887695 0.132812
vt 0.887207 0.117126
vt 0.887207 0.117126
vt 0.887207 0.117126
vt 0.887207 0.117126
vt 0.887207 0.117126
vt 0.887207 0.117126
vt 0.887207 0.117126
vt 0.887207 0.117126
vt 0.887207 0.117126
vt 0.887207 0.117126
vt 0.887207 0.117126
vt 0.887207 0.117126
vt 0.887207 0.117126
vt 0.887207 0.117126
vt 0.887207 0.117126
vt 0.887207 0.117126
vt 0.887207 0.117126
vt 0.887207 0.117126
vt 0.887207 0.117126
vt 0.887207 0.117126
vt 0.887207 0.117126
vt 0.887207 0.117126
vt 0.887207 0.117126
vt 0.887207 0.117126
vt 0.887207 0.117126
vt 0.887207 0.117126
vt 0.859375 0.131958
vt 0.859375 0.131958
vt 0.859375 0.131958
vt 0.859375 0.131958
vt 0.859375 0.131958
vt 0.859375 0.131958
vt 0.859375 0.131958
vt 0.859375 0.131958
vt 0.859375 0.131958
vt 0.859375 0.131958
vt 0.859375 0.131958
vt 0.859375 0.131958
vt 0.859375 0.131958
vt 0.859375 0.131958
vt 0.859375 0.131958
vt 0.859375 0.131958
f 1/1/1 2/2/2 3/3/3
f 1/1/1 3/3/3 4/4/4
f 5/5/5 1/1/1 4/4/4
f 4/4/4 3/3/3 6/6/6
f 5/5/5 4/4/4 7/7/7
f 8/8/8 5/5/5 7/7/7
f 8/8/8 7/7/7 9/9/9
f 9/9/9 7/7/7 10/10/10
f 4/4/4 10/10/10 7/7/7
f 9/9/9 10/10/10 11/11/11
f 4/4/4 6/6/6 12/12/12
f 4/4/4 12/12/12 10/10/10
f 12/12/12 6/6/6 13/13/13
f 11/11/11 10/10/10 14/14/14
f 12/12/12 14/14/14 10/10/10
f 11/11/11 14/14/14 15/15/15
f 12/12/12 13/13/13 16/16/16
f 12/12/12 16/16/16 14/14/14
f 16/16/16 13/13/13 17/17/17
f 15/15/15 14/14/14 18/18/18
f 16/16/16 18/18/18 14/14/14
f 15/15/15 18/18/18 19/19/19
f 16/16/16 17/17/17 20/20/20
f 16/16/16 20/20/20 18/18/18
f 20/20/20 17/17/17 21/21/21
f 19/19/19 18/18/18 22/22/22
f 20/20/20 22/22/22 18/18/18
f 19/19/19 22/22/22 23/23/23
f 20/20/20 21/21/21 24/24/24
f 20/20/20 24/24/24 22/22/22
f 24/24/24 21/21/21 25/25/25
f 23/23/23 22/22/22 26/26/26
f 24/24/24 26/26/26 22/22/22
f 23/23/23 26/26/26 27/27/27
f 24/24/24 25/25/25 28/28/28
f 24/24/24 28/28/28 26/26/26
f 28/28/28 25/25/25 29/29/29
f 27/27/27 26/26/26 30/30/30
f 28/28/28 30/30/30 26/26/26
f 27/27/27 30/30/30 31/31/31
f 28/28/28 29/29/29 32/32/32
f 28/28/28 32/32/32 30/30/30
f 32/32/32 29/29/29 33/33/33
f 31/31/31 30/30/30 34/34/34
f 32/32/32 34/34/34 30/30/30
f 31/31/31 34/34/34 35/35/35
f 32/32/32 33/33/33 36/36/36
f 32/32/32 36/36/36 34/34/34
f 36/36/36 33/33/33 37/37/37
f 35/35/35 34/34/34 38/38/38
f 36/36/36 38/38/38 34/34/34
f 35/35/35 38/38/38 39/39/39
f 36/36/36 37/37/37 40/40/40
f 36/36/36 40/40/40 38/38/38
f 40/40/40 37/37/37 41/41/41
f 39/39/39 38/38/38 42/42/42
f 40/40/40 42/42/42 38/38/38
f 39/39/39 42/42/42 43/43/43
f 40/40/40 41/41/41 44/44/44
f 40/40/40 44/44/44 42/42/42
f 44/44/44 41/41/41 45/45/45
f 43/43/43 42/42/42 46/46/46
f 44/44/44 46/46/46 42/42/42
f 43/43/43 46/46/46 47/47/47
f 44/44/44 45/45/45 48/48/48
f 44/44/44 48/48/48 46/46/46
f 48/48/48 45/45/45 49/49/49
f 47/47/47 46/46/46 50/50/50
f 48/48/48 50/50/50 46/46/46
f 47/47/47 50/50/50 51/51/51
f 48/48/48 49/49/49 52/52/52
f 48/48/48 52/52/52 50/50/50
f 52/52/52 49/49/49 53/53/53
f 52/52/52 53/53/53 54/54/54
f 52/52/52 54/54/54 55/55/55
f 52/52/52 55/55/55 50/50/50
f 51/51/51 50/50/50 55/55/55
f 51/51/51 55/55/55 56/56/56
f 57/57/57 58/58/58 59/59/59
f 57/57/57 59/59/59 60/60/60
f 61/61/61 57/57/57 60/60/60
f 61/61/61 60/60/60 62/62/62
f 63/63/63 64/64/64 65/65/65
f 63/63/63 66/66/66 64/64/64
f 66/66/66 67/67/67 64/64/64
f 66/66/66 68/68/68 67/67/67
f 68/68/68 69/69/69 67/67/67
f 68/68/68 70/70/70 69/69/69
f 70/70/70 71/71/71 69/69/69
f 70/70/70 72/72/72 71/71/71
f 72/72/72 73/73/73 71/71/71
f 72/72/72 74/74/74 73/73/73
f 74/74/74 75/75/75 73/73/73
f 74/74/74 76/76/76 75/75/75
f 76/76/76 77/77/77 75/75/75
f 76/76/76 78/78/78 77/77/77
f 78/78/78 79/79/79 77/77/77
f 78/78/78 80/80/80 79/79/79
f 80/80/80 81/81/81 79/79/79
f 80/80/80 82/82/82 81/81/81
f 82/82/82 83/83/83 81/81/81
f 82/82/82 84/84/84 83/83/83
f 84/84/84 85/85/85 83/83/83
f 84/84/84 86/86/86 85/85/85
f 86/86/86 87/87/87 85/85/85
f 86/86/86 88/88/88 87/87/87
f 88/88/88 89/89/89 87/87/87
f 88/88/88 90/90/90 89/89/89
f 91/91/91 92/92/92 93/93/93
f 91/91/91 93/93/93 94/94/94
f 95/95/95 91/91/91 94/94/94
f 95/95/95 94/94/94 96/96/96
f 97/97/97 95/95/95 96/96/96
f 97/97/97 96/96/96 98/98/98
f 99/99/99 97/97/97 98/98/98
f 99/99/99 98/98/98 100/100/100
f 101/101/101 99/99/99 100/100/100
f 101/101/101 100/100/100 102/102/102
f 103/103/103 101/101/101 102/102/102
f 103/103/103 102/102/102 104/104/104
f 105/105/105 106/106/106 107/107/107
f 105/105/105 107/107/107 108/108/108
f 109/109/109 105/105/105 108/108/108
f 109/109/109 108/108/108 110/110/110
f 111/111/111 112/112/112 113/113/113
f 111/111/111 113/113/113 114/114/114
f 115/115/115 116/116/116 117/117/117
f 115/115/115 117/117/117 118/118/118
f 119/119/119 115/115/115 118/118/118
f 119/119/119 118/118/118 120/120/120
f 121/121/121 122/122/122 123/123/123
f 122/122/122 124/124/124 123/123/123
f 125/125/125 123/123/123 124/124/124
f 125/125/125 126/126/126 123/123/123
f 124/124/124 127/127/127 125/125/125
f 124/124/124 128/128/128 127/127/127
f 128/128/128 129/129/129 127/127/127
f 129/129/129 130/130/130 127/127/127
f 127/127/127 131/131/131 125/125/125
f 127/127/127 132/132/132 131/131/131
f 131/131/131 133/133/133 125/125/125
f 134/134/134 135/135/135 136/136/136
f 134/134/134 136/136/136 137/137/137
f 138/138/138 134/134/134 137/137/137
f 137/137/137 139/139/139 138/138/138
f 136/136/136 140/140/140 137/137/137
f 141/141/141 140/140/140 136/136/136
f 142/142/142 141/141/141 136/136/136
f 136/136/136 143/143/143 142/142/142
f 140/140/140 144/144/144 137/137/137
f 140/140/140 145/145/145 144/144/144
f 144/144/144 146/146/146 137/137/137
f 147/147/147 148/148/148 149/149/149
f 147/147/147 150/150/150 148/148/148
f 147/147/147 151/151/151 150/150/150
f 147/147/147 152/152/152 151/151/151
f 153/153/153 154/154/154 155/155/155
f 155/155/155 156/156/156 153/153/153
f 155/155/155 157/157/157 156/156/156
f 155/155/155 158/158/158 157/157/157
f 159/159/159 160/160/160 161/161/161
f 162/162/162 159/159/159 161/161/161
f 162/162/162 163/163/163 159/159/159
f 163/163/163 164/164/164 159/159/159
f 163/163/163 165/165/165 164/164/164
f 166/166/166 164/164/164 165/165/165
f 165/165/165 167/167/167 166/166/166
f 168/168/168 163/163/163 162/162/162
f 169/169/169 166/166/166 167/167/167
f 169/169/169 170/170/170 166/166/166
f 170/170/170 169/169/169 171/171/171
f 167/167/167 172/172/172 169/169/169
f 167/167/167 173/173/173 172/172/172
f 171/171/171 169/169/169 174/174/174
f 171/171/171 174/174/174 175/175/175
f 176/176/176 169/169/169 172/172/172
f 176/176/176 177/177/177 169/169/169
f 171/171/171 178/178/178 170/170/170
f 179/179/179 170/170/170 178/178/178
f 178/178/178 180/180/180 179/179/179
f 179/179/179 180/180/180 181/181/181
f 179/179/179 181/181/181 182/182/182
f 183/183/183 182/182/182 181/181/181
f 181/181/181 184/184/184 183/183/183
f 185/185/185 183/183/183 184/184/184
f 185/185/185 184/184/184 186/186/186
f 187/187/187 185/185/185 186/186/186
f 186/186/186 188/188/188 187/187/187
f 171/171/171 188/188/188 178/178/178
f 189/189/189 187/187/187 188/188/188
f 188/188/188 171/171/171 189/189/189
f 187/187/187 189/189/189 190/190/190
f 191/191/191 189/189/189 171/171/171
f 191/191/191 171/171/171 192/192/192
f 190/190/190 189/189/189 193/193/193
f 193/193/193 194/194/194 190/190/190
f 190/190/190 194/194/194 195/195/195
f 194/194/194 162/162/162 195/195/195
f 194/194/194 196/196/196 162/162/162
f 168/168/168 162/162/162 196/196/196
f 196/196/196 197/197/197 168/168/168
f 198/198/198 168/168/168 197/197/197
f 198/198/198 199/199/199 168/168/168
f 198/198/198 200/200/200 199/199/199
f 173/173/173 199/199/199 200/200/200
f 201/201/201 200/200/200 193/193/193
f 201/201/201 173/173/173 200/200/200
f 201/201/201 193/193/193 189/189/189
f 172/172/172 173/173/173 201/201/201
f 202/202/202 201/201/201 189/189/189
f 202/202/202 189/189/189 203/203/203
f 172/172/172 201/201/201 204/204/204
f 172/172/172 204/204/204 205/205/205
f 206/206/206 207/207/207 208/208/208
f 206/206/206 208/208/208 209/209/209
f 206/206/206 209/209/209 210/210/210
f 210/210/210 211/211/211 206/206/206
f 212/212/212 213/213/213 214/214/214
f 215/215/215 212/212/212 214/214/214
f 215/215/215 216/216/216 212/212/212
f 215/215/215 214/214/214 217/217/217
f 218/218/218 219/219/219 220/220/220
f 220/220/220 221/221/221 218/218/218
f 220/220/220 222/222/222 221/221/221
f 220/220/220 223/223/223 222/222/222
f 224/224/224 225/225/225 226/226/226
f 224/224/224 226/226/226 227/227/227
f 228/228/228 229/229/229 230/230/230
f 228/228/228 230/230/230 231/231/231
f 232/232/232 233/233/233 234/234/234
f 232/232/232 234/234/234 235/235/235
f 236/236/236 237/237/237 238/238/238
f 236/236/236 238/238/238 239/239/239
f 240/240/240 241/241/241 242/242/242
f 240/240/240 242/242/242 243/243/243
f 244/244/244 245/245/245 246/246/246
f 244/244/244 246/246/246 247/247/247
f 248/248/248 249/249/249 250/250/250
f 248/248/248 250/250/250 251/251/251
f 252/252/252 253/253/253 254/254/254
f 252/252/252 254/254/254 255/255/255
f 256/256/256 257/257/257 258/258/258
f 256/256/256 258/258/258 259/259/259
f 260/260/260 261/261/261 262/262/262
f 260/260/260 262/262/262 263/263/263
f 264/264/264 265/265/265 266/266/266
f 266/266/266 267/267/267 264/264/264
f 266/266/266 268/268/268 267/267/267
f 268/268/268 269/269/269 267/267/267
f 268/268/268 270/270/270 269/269/269
f 270/270/270 271/271/271 269/269/269
f 272/272/272 273/273/273 274/274/274
f 273/273/273 275/275/275 274/274/274
f 272/272/272 276/276/276 273/273/273
f 273/273/273 277/277/277 275/275/275
f 278/278/278 276/276/276 272/272/272
f 277/277/277 279/279/279 275/275/275
f 278/278/278 280/280/280 276/276/276
f 277/277/277 281/281/281 279/279/279
f 280/280/280 278/278/278 282/282/282
f 281/281/281 282/282/282 279/279/279
f 280/280/280 282/282/282 283/283/283
f 281/281/281 283/283/283 282/282/282
f 284/284/284 285/285/285 286/286/286
f 287/287/287 284/284/284 286/286/286
f 284/284/284 288/288/288 285/285/285
f 287/287/287 289/289/289 284/284/284
f 288/288/288 290/290/290 285/285/285
f 289/289/289 287/287/287 291/291/291
f 288/288/288 292/292/292 290/290/290
f 289/289/289 291/291/291 293/293/293
f 294/294/294 290/290/290 292/292/292
f 293/293/293 291/291/291 294/294/294
f 294/294/294 292/292/292 295/295/295
f 293/293/293 294/294/294 295/295/295
f 296/296/296 297/297/297 298/298/298
f 296/296/296 299/299/299 297/297/297
f 296/296/296 298/298/298 300/300/300
f 296/296/296 301/301/301 299/299/299
f 302/302/302 300/300/300 298/298/298
f 301/301/301 303/303/303 299/299/299
f 302/302/302 304/304/304 300/300/300
f 301/301/301 305/305/305 303/303/303
f 302/302/302 306/306/306 304/304/304
f 305/305/305 306/306/306 303/303/303
f 306/306/306 307/307/307 304/304/304
f 305/305/305 307/307/307 306/306/306
f 308/308/308 309/309/309 310/310/310
f 311/311/311 309/309/309 308/308/308
f 308/308/308 310/310/310 312/312/312
f 311/311/311 308/308/308 313/313/313
f 311/311/311 313/313/313 314/314/314
f 311/311/311 314/314/314 315/315/315
f 316/316/316 312/312/312 310/310/310
f 316/316/316 317/317/317 312/312/312
f 318/318/318 315/315/315 314/314/314
f 316/316/316 318/318/318 317/317/317
f 318/318/318 319/319/319 315/315/315
f 316/316/316 319/319/319 318/318/318
f 320/320/320 321/321/321 322/322/322
f 322/322/322 321/321/321 323/323/323
f 320/320/320 322/322/322 324/324/324
f 322/322/322 323/323/323 325/325/325
f 326/326/326 320/320/320 324/324/324
f 327/327/327 325/325/325 323/323/323
f 326/326/326 324/324/324 328/328/328
f 327/327/327 329/329/329 325/325/325
f 330/330/330 326/326/326 328/328/328
f 330/330/330 329/329/329 327/327/327
f 330/330/330 328/328/328 331/331/331
f 330/330/330 331/331/331 329/329/329
f 332/332/332 333/333/333 334/334/334
f 332/332/332 334/334/334 335/335/335
f 333/333/333 336/336/336 334/334/334
f 337/337/337 332/332/332 335/335/335
f 333/333/333 338/338/338 336/336/336
f 337/337/337 335/335/335 339/339/339
f 338/338/338 340/340/340 336/336/336
f 341/341/341 337/337/337 339/339/339
f 338/338/338 342/342/342 340/340/340
f 341/341/341 339/339/339 343/343/343
f 342/342/342 344/344/344 340/340/340
f 345/345/345 341/341/341 343/343/343
f 342/342/342 346/346/346 344/344/344
f 345/345/345 343/343/343 347/347/347
f 346/346/346 348/348/348 344/344/344
f 349/349/349 345/345/345 347/347/347
f 346/346/346 350/350/350 348/348/348
f 349/349/349 347/347/347 351/351/351
f 350/350/350 352/352/352 348/348/348
f 353/353/353 349/349/349 351/351/351
f 350/350/350 354/354/354 352/352/352
f 353/353/353 351/351/351 355/355/355
f 354/354/354 356/356/356 352/352/352
f 357/357/357 353/353/353 355/355/355
f 354/354/354 357/357/357 356/356/356
f 357/357/357 355/355/355 356/356/356
f 358/358/358 359/359/359 360/360/360
f 358/358/358 360/360/360 361/361/361
f 359/359/359 362/362/362 360/360/360
f 363/363/363 358/358/358 361/361/361
f 359/359/359 364/364/364 362/362/362
f 363/363/363 361/361/361 365/365/365
f 364/364/364 366/366/366 362/362/362
f 367/367/367 363/363/363 365/365/365
f 364/364/364 368/368/368 366/366/366
f 367/367/367 365/365/365 369/369/369
f 368/368/368 370/370/370 366/366/366
f 371/371/371 367/367/367 369/369/369
f 368/368/368 372/372/372 370/370/370
f 371/371/371 369/369/369 373/373/373
f 372/372/372 374/374/374 370/370/370
f 375/375/375 371/371/371 373/373/373
f 372/372/372 376/376/376 374/374/374
f 375/375/375 373/373/373 377/377/377
f 376/376/376 378/378/378 374/374/374
f 379/379/379 375/375/375 377/377/377
f 376/376/376 380/380/380 378/378/378
f 379/379/379 377/377/377 381/381/381
f 380/380/380 382/382/382 378/378/378
f 383/383/383 379/379/379 381/381/381
f 380/380/380 383/383/383 382/382/382
f 383/383/383 381/381/381 382/382/382
f 384/384/384 385/385/385 386/386/386
f 387/387/387 385/385/385 384/384/384
f 384/384/384 386/386/386 388/388/388
f 387/387/387 389/389/389 385/385/385
f 388/388/388 386/386/386 390/390/390
f 391/391/391 389/389/389 387/387/387
f 388/388/388 390/390/390 392/392/392
f 391/391/391 393/393/393 389/389/389
f 392/392/392 390/390/390 394/394/394
f 395/395/395 393/393/393 391/391/391
f 392/392/392 394/394/394 396/396/396
f 395/395/395 397/397/397 393/393/393
f 396/396/396 394/394/394 398/398/398
f 399/399/399 397/397/397 395/395/395
f 396/396/396 398/398/398 399/399/399
f 399/399/399 398/398/398 397/397/397
