# Spike-free cactus model. Native +Y up, metre scale; ground datum Y=0.
# Slight buried root skirt; no auto recentre / rescale.
s off
v 0.254200000 -0.050000000 0.000000000
v 0.163569355 -0.050000000 -0.163569355
v 0.199473185 0.119191661 -0.199474823
v 0.254200000 -0.050000000 0.000000000
v 0.199473185 0.119191661 -0.199474823
v 0.309997455 0.118743776 0.000000000
v 0.163569355 -0.050000000 -0.163569355
v 0.000000000 -0.050000000 -0.254200000
v 0.000000000 0.120000000 -0.310000000
v 0.163569355 -0.050000000 -0.163569355
v 0.000000000 0.120000000 -0.310000000
v 0.199473185 0.119191661 -0.199474823
v 0.000000000 -0.050000000 -0.254200000
v -0.163569355 -0.050000000 -0.163569355
v -0.199473185 0.120808339 -0.199474823
v 0.000000000 -0.050000000 -0.254200000
v -0.199473185 0.120808339 -0.199474823
v 0.000000000 0.120000000 -0.310000000
v -0.163569355 -0.050000000 -0.163569355
v -0.254200000 -0.050000000 -0.000000000
v -0.309997455 0.121256224 -0.000000000
v -0.163569355 -0.050000000 -0.163569355
v -0.309997455 0.121256224 -0.000000000
v -0.199473185 0.120808339 -0.199474823
v -0.254200000 -0.050000000 -0.000000000
v -0.163569355 -0.050000000 0.163569355
v -0.199473185 0.120808339 0.199474823
v -0.254200000 -0.050000000 -0.000000000
v -0.199473185 0.120808339 0.199474823
v -0.309997455 0.121256224 -0.000000000
v -0.163569355 -0.050000000 0.163569355
v -0.000000000 -0.050000000 0.254200000
v -0.000000000 0.120000000 0.310000000
v -0.163569355 -0.050000000 0.163569355
v -0.000000000 0.120000000 0.310000000
v -0.199473185 0.120808339 0.199474823
v -0.000000000 -0.050000000 0.254200000
v 0.163569355 -0.050000000 0.163569355
v 0.199473185 0.119191661 0.199474823
v -0.000000000 -0.050000000 0.254200000
v 0.199473185 0.119191661 0.199474823
v -0.000000000 0.120000000 0.310000000
v 0.163569355 -0.050000000 0.163569355
v 0.254200000 -0.050000000 0.000000000
v 0.309997455 0.118743776 0.000000000
v 0.163569355 -0.050000000 0.163569355
v 0.309997455 0.118743776 0.000000000
v 0.199473185 0.119191661 0.199474823
v 0.309997455 0.118743776 0.000000000
v 0.199473185 0.119191661 -0.199474823
v 0.190014227 1.553021257 -0.183516837
v 0.309997455 0.118743776 0.000000000
v 0.190014227 1.553021257 -0.183516837
v 0.291695944 1.552478955 0.000000000
v 0.199473185 0.119191661 -0.199474823
v 0.000000000 0.120000000 -0.310000000
v 0.006500000 1.554000000 -0.285200000
v 0.199473185 0.119191661 -0.199474823
v 0.006500000 1.554000000 -0.285200000
v 0.190014227 1.553021257 -0.183516837
v 0.000000000 0.120000000 -0.310000000
v -0.199473185 0.120808339 -0.199474823
v -0.177014227 1.554978743 -0.183516837
v 0.000000000 0.120000000 -0.310000000
v -0.177014227 1.554978743 -0.183516837
v 0.006500000 1.554000000 -0.285200000
v -0.199473185 0.120808339 -0.199474823
v -0.309997455 0.121256224 -0.000000000
v -0.278695944 1.555521045 -0.000000000
v -0.199473185 0.120808339 -0.199474823
v -0.278695944 1.555521045 -0.000000000
v -0.177014227 1.554978743 -0.183516837
v -0.309997455 0.121256224 -0.000000000
v -0.199473185 0.120808339 0.199474823
v -0.177014227 1.554978743 0.183516837
v -0.309997455 0.121256224 -0.000000000
v -0.177014227 1.554978743 0.183516837
v -0.278695944 1.555521045 -0.000000000
v -0.199473185 0.120808339 0.199474823
v -0.000000000 0.120000000 0.310000000
v 0.006500000 1.554000000 0.285200000
v -0.199473185 0.120808339 0.199474823
v 0.006500000 1.554000000 0.285200000
v -0.177014227 1.554978743 0.183516837
v -0.000000000 0.120000000 0.310000000
v 0.199473185 0.119191661 0.199474823
v 0.190014227 1.553021257 0.183516837
v -0.000000000 0.120000000 0.310000000
v 0.190014227 1.553021257 0.183516837
v 0.006500000 1.554000000 0.285200000
v 0.199473185 0.119191661 0.199474823
v 0.309997455 0.118743776 0.000000000
v 0.291695944 1.552478955 0.000000000
v 0.199473185 0.119191661 0.199474823
v 0.291695944 1.552478955 0.000000000
v 0.190014227 1.553021257 0.183516837
v 0.291695944 1.552478955 0.000000000
v 0.190014227 1.553021257 -0.183516837
v 0.111730070 1.994347884 -0.101732160
v 0.291695944 1.552478955 0.000000000
v 0.111730070 1.994347884 -0.101732160
v 0.168096752 1.993986559 0.000000000
v 0.190014227 1.553021257 -0.183516837
v 0.006500000 1.554000000 -0.285200000
v 0.010000000 1.995000000 -0.158100000
v 0.190014227 1.553021257 -0.183516837
v 0.010000000 1.995000000 -0.158100000
v 0.111730070 1.994347884 -0.101732160
v 0.006500000 1.554000000 -0.285200000
v -0.177014227 1.554978743 -0.183516837
v -0.091730070 1.995652116 -0.101732160
v 0.006500000 1.554000000 -0.285200000
v -0.091730070 1.995652116 -0.101732160
v 0.010000000 1.995000000 -0.158100000
v -0.177014227 1.554978743 -0.183516837
v -0.278695944 1.555521045 -0.000000000
v -0.148096752 1.996013441 -0.000000000
v -0.177014227 1.554978743 -0.183516837
v -0.148096752 1.996013441 -0.000000000
v -0.091730070 1.995652116 -0.101732160
v -0.278695944 1.555521045 -0.000000000
v -0.177014227 1.554978743 0.183516837
v -0.091730070 1.995652116 0.101732160
v -0.278695944 1.555521045 -0.000000000
v -0.091730070 1.995652116 0.101732160
v -0.148096752 1.996013441 -0.000000000
v -0.177014227 1.554978743 0.183516837
v 0.006500000 1.554000000 0.285200000
v 0.010000000 1.995000000 0.158100000
v -0.177014227 1.554978743 0.183516837
v 0.010000000 1.995000000 0.158100000
v -0.091730070 1.995652116 0.101732160
v 0.006500000 1.554000000 0.285200000
v 0.190014227 1.553021257 0.183516837
v 0.111730070 1.994347884 0.101732160
v 0.006500000 1.554000000 0.285200000
v 0.111730070 1.994347884 0.101732160
v 0.010000000 1.995000000 0.158100000
v 0.190014227 1.553021257 0.183516837
v 0.291695944 1.552478955 0.000000000
v 0.168096752 1.993986559 0.000000000
v 0.190014227 1.553021257 0.183516837
v 0.168096752 1.993986559 0.000000000
v 0.111730070 1.994347884 0.101732160
v 0.000000000 -0.050000000 0.000000000
v 0.163569355 -0.050000000 -0.163569355
v 0.254200000 -0.050000000 0.000000000
v 0.000000000 -0.050000000 0.000000000
v 0.000000000 -0.050000000 -0.254200000
v 0.163569355 -0.050000000 -0.163569355
v 0.000000000 -0.050000000 0.000000000
v -0.163569355 -0.050000000 -0.163569355
v 0.000000000 -0.050000000 -0.254200000
v 0.000000000 -0.050000000 0.000000000
v -0.254200000 -0.050000000 -0.000000000
v -0.163569355 -0.050000000 -0.163569355
v 0.000000000 -0.050000000 0.000000000
v -0.163569355 -0.050000000 0.163569355
v -0.254200000 -0.050000000 -0.000000000
v 0.000000000 -0.050000000 0.000000000
v -0.000000000 -0.050000000 0.254200000
v -0.163569355 -0.050000000 0.163569355
v 0.000000000 -0.050000000 0.000000000
v 0.163569355 -0.050000000 0.163569355
v -0.000000000 -0.050000000 0.254200000
v 0.000000000 -0.050000000 0.000000000
v 0.254200000 -0.050000000 0.000000000
v 0.163569355 -0.050000000 0.163569355
v 0.168096752 1.993986559 0.000000000
v 0.111730070 1.994347884 -0.101732160
v 0.010000000 2.100000000 0.000000000
v 0.111730070 1.994347884 -0.101732160
v 0.010000000 1.995000000 -0.158100000
v 0.010000000 2.100000000 0.000000000
v 0.010000000 1.995000000 -0.158100000
v -0.091730070 1.995652116 -0.101732160
v 0.010000000 2.100000000 0.000000000
v -0.091730070 1.995652116 -0.101732160
v -0.148096752 1.996013441 -0.000000000
v 0.010000000 2.100000000 0.000000000
v -0.148096752 1.996013441 -0.000000000
v -0.091730070 1.995652116 0.101732160
v 0.010000000 2.100000000 0.000000000
v -0.091730070 1.995652116 0.101732160
v 0.010000000 1.995000000 0.158100000
v 0.010000000 2.100000000 0.000000000
v 0.010000000 1.995000000 0.158100000
v 0.111730070 1.994347884 0.101732160
v 0.010000000 2.100000000 0.000000000
v 0.111730070 1.994347884 0.101732160
v 0.168096752 1.993986559 0.000000000
v 0.010000000 2.100000000 0.000000000
v -0.250400000 -0.050000000 0.055000000
v -0.332259938 -0.050000000 -0.092740062
v -0.299883631 0.124428719 -0.125170808
v -0.250400000 -0.050000000 0.055000000
v -0.299883631 0.124428719 -0.125170808
v -0.200084602 0.126882587 0.055000000
v -0.332259938 -0.050000000 -0.092740062
v -0.480000000 -0.050000000 -0.174600000
v -0.480000000 0.120000000 -0.225000000
v -0.332259938 -0.050000000 -0.092740062
v -0.480000000 0.120000000 -0.225000000
v -0.299883631 0.124428719 -0.125170808
v -0.480000000 -0.050000000 -0.174600000
v -0.627740062 -0.050000000 -0.092740062
v -0.660116369 0.115571281 -0.125170808
v -0.480000000 -0.050000000 -0.174600000
v -0.660116369 0.115571281 -0.125170808
v -0.480000000 0.120000000 -0.225000000
v -0.627740062 -0.050000000 -0.092740062
v -0.709600000 -0.050000000 0.055000000
v -0.759915398 0.113117413 0.055000000
v -0.627740062 -0.050000000 -0.092740062
v -0.759915398 0.113117413 0.055000000
v -0.660116369 0.115571281 -0.125170808
v -0.709600000 -0.050000000 0.055000000
v -0.627740062 -0.050000000 0.202740062
v -0.660116369 0.115571281 0.235170808
v -0.709600000 -0.050000000 0.055000000
v -0.660116369 0.115571281 0.235170808
v -0.759915398 0.113117413 0.055000000
v -0.627740062 -0.050000000 0.202740062
v -0.480000000 -0.050000000 0.284600000
v -0.480000000 0.120000000 0.335000000
v -0.627740062 -0.050000000 0.202740062
v -0.480000000 0.120000000 0.335000000
v -0.660116369 0.115571281 0.235170808
v -0.480000000 -0.050000000 0.284600000
v -0.332259938 -0.050000000 0.202740062
v -0.299883631 0.124428719 0.235170808
v -0.480000000 -0.050000000 0.284600000
v -0.299883631 0.124428719 0.235170808
v -0.480000000 0.120000000 0.335000000
v -0.332259938 -0.050000000 0.202740062
v -0.250400000 -0.050000000 0.055000000
v -0.200084602 0.126882587 0.055000000
v -0.332259938 -0.050000000 0.202740062
v -0.200084602 0.126882587 0.055000000
v -0.299883631 0.124428719 0.235170808
v -0.200084602 0.126882587 0.055000000
v -0.299883631 0.124428719 -0.125170808
v -0.343585828 1.145150922 -0.110757143
v -0.200084602 0.126882587 0.055000000
v -0.343585828 1.145150922 -0.110757143
v -0.251794485 1.148226581 0.055000000
v -0.299883631 0.124428719 -0.125170808
v -0.480000000 0.120000000 -0.225000000
v -0.509250000 1.139600000 -0.202600000
v -0.299883631 0.124428719 -0.125170808
v -0.509250000 1.139600000 -0.202600000
v -0.343585828 1.145150922 -0.110757143
v -0.480000000 0.120000000 -0.225000000
v -0.660116369 0.115571281 -0.125170808
v -0.674914172 1.134049078 -0.110757143
v -0.480000000 0.120000000 -0.225000000
v -0.674914172 1.134049078 -0.110757143
v -0.509250000 1.139600000 -0.202600000
v -0.660116369 0.115571281 -0.125170808
v -0.759915398 0.113117413 0.055000000
v -0.766705515 1.130973419 0.055000000
v -0.660116369 0.115571281 -0.125170808
v -0.766705515 1.130973419 0.055000000
v -0.674914172 1.134049078 -0.110757143
v -0.759915398 0.113117413 0.055000000
v -0.660116369 0.115571281 0.235170808
v -0.674914172 1.134049078 0.220757143
v -0.759915398 0.113117413 0.055000000
v -0.674914172 1.134049078 0.220757143
v -0.766705515 1.130973419 0.055000000
v -0.660116369 0.115571281 0.235170808
v -0.480000000 0.120000000 0.335000000
v -0.509250000 1.139600000 0.312600000
v -0.660116369 0.115571281 0.235170808
v -0.509250000 1.139600000 0.312600000
v -0.674914172 1.134049078 0.220757143
v -0.480000000 0.120000000 0.335000000
v -0.299883631 0.124428719 0.235170808
v -0.343585828 1.145150922 0.220757143
v -0.480000000 0.120000000 0.335000000
v -0.343585828 1.145150922 0.220757143
v -0.509250000 1.139600000 0.312600000
v -0.299883631 0.124428719 0.235170808
v -0.200084602 0.126882587 0.055000000
v -0.251794485 1.148226581 0.055000000
v -0.299883631 0.124428719 0.235170808
v -0.251794485 1.148226581 0.055000000
v -0.343585828 1.145150922 0.220757143
v -0.251794485 1.148226581 0.055000000
v -0.343585828 1.145150922 -0.110757143
v -0.433183894 1.466611648 -0.036887112
v -0.251794485 1.148226581 0.055000000
v -0.433183894 1.466611648 -0.036887112
v -0.382310349 1.468612792 0.055000000
v -0.343585828 1.145150922 -0.110757143
v -0.509250000 1.139600000 -0.202600000
v -0.525000000 1.463000000 -0.087800000
v -0.343585828 1.145150922 -0.110757143
v -0.525000000 1.463000000 -0.087800000
v -0.433183894 1.466611648 -0.036887112
v -0.509250000 1.139600000 -0.202600000
v -0.674914172 1.134049078 -0.110757143
v -0.616816106 1.459388352 -0.036887112
v -0.509250000 1.139600000 -0.202600000
v -0.616816106 1.459388352 -0.036887112
v -0.525000000 1.463000000 -0.087800000
v -0.674914172 1.134049078 -0.110757143
v -0.766705515 1.130973419 0.055000000
v -0.667689651 1.457387208 0.055000000
v -0.674914172 1.134049078 -0.110757143
v -0.667689651 1.457387208 0.055000000
v -0.616816106 1.459388352 -0.036887112
v -0.766705515 1.130973419 0.055000000
v -0.674914172 1.134049078 0.220757143
v -0.616816106 1.459388352 0.146887112
v -0.766705515 1.130973419 0.055000000
v -0.616816106 1.459388352 0.146887112
v -0.667689651 1.457387208 0.055000000
v -0.674914172 1.134049078 0.220757143
v -0.509250000 1.139600000 0.312600000
v -0.525000000 1.463000000 0.197800000
v -0.674914172 1.134049078 0.220757143
v -0.525000000 1.463000000 0.197800000
v -0.616816106 1.459388352 0.146887112
v -0.509250000 1.139600000 0.312600000
v -0.343585828 1.145150922 0.220757143
v -0.433183894 1.466611648 0.146887112
v -0.509250000 1.139600000 0.312600000
v -0.433183894 1.466611648 0.146887112
v -0.525000000 1.463000000 0.197800000
v -0.343585828 1.145150922 0.220757143
v -0.251794485 1.148226581 0.055000000
v -0.382310349 1.468612792 0.055000000
v -0.343585828 1.145150922 0.220757143
v -0.382310349 1.468612792 0.055000000
v -0.433183894 1.466611648 0.146887112
v -0.480000000 -0.050000000 0.055000000
v -0.332259938 -0.050000000 -0.092740062
v -0.250400000 -0.050000000 0.055000000
v -0.480000000 -0.050000000 0.055000000
v -0.480000000 -0.050000000 -0.174600000
v -0.332259938 -0.050000000 -0.092740062
v -0.480000000 -0.050000000 0.055000000
v -0.627740062 -0.050000000 -0.092740062
v -0.480000000 -0.050000000 -0.174600000
v -0.480000000 -0.050000000 0.055000000
v -0.709600000 -0.050000000 0.055000000
v -0.627740062 -0.050000000 -0.092740062
v -0.480000000 -0.050000000 0.055000000
v -0.627740062 -0.050000000 0.202740062
v -0.709600000 -0.050000000 0.055000000
v -0.480000000 -0.050000000 0.055000000
v -0.480000000 -0.050000000 0.284600000
v -0.627740062 -0.050000000 0.202740062
v -0.480000000 -0.050000000 0.055000000
v -0.332259938 -0.050000000 0.202740062
v -0.480000000 -0.050000000 0.284600000
v -0.480000000 -0.050000000 0.055000000
v -0.250400000 -0.050000000 0.055000000
v -0.332259938 -0.050000000 0.202740062
v -0.382310349 1.468612792 0.055000000
v -0.433183894 1.466611648 -0.036887112
v -0.525000000 1.540000000 0.055000000
v -0.433183894 1.466611648 -0.036887112
v -0.525000000 1.463000000 -0.087800000
v -0.525000000 1.540000000 0.055000000
v -0.525000000 1.463000000 -0.087800000
v -0.616816106 1.459388352 -0.036887112
v -0.525000000 1.540000000 0.055000000
v -0.616816106 1.459388352 -0.036887112
v -0.667689651 1.457387208 0.055000000
v -0.525000000 1.540000000 0.055000000
v -0.667689651 1.457387208 0.055000000
v -0.616816106 1.459388352 0.146887112
v -0.525000000 1.540000000 0.055000000
v -0.616816106 1.459388352 0.146887112
v -0.525000000 1.463000000 0.197800000
v -0.525000000 1.540000000 0.055000000
v -0.525000000 1.463000000 0.197800000
v -0.433183894 1.466611648 0.146887112
v -0.525000000 1.540000000 0.055000000
v -0.433183894 1.466611648 0.146887112
v -0.382310349 1.468612792 0.055000000
v -0.525000000 1.540000000 0.055000000
v 0.605000000 -0.050000000 0.130000000
v 0.531910770 -0.050000000 -0.001910770
v 0.560808749 0.115678971 -0.030866793
v 0.605000000 -0.050000000 0.130000000
v 0.560808749 0.115678971 -0.030866793
v 0.649909795 0.113284772 0.130000000
v 0.531910770 -0.050000000 -0.001910770
v 0.400000000 -0.050000000 -0.075000000
v 0.400000000 0.120000000 -0.120000000
v 0.531910770 -0.050000000 -0.001910770
v 0.400000000 0.120000000 -0.120000000
v 0.560808749 0.115678971 -0.030866793
v 0.400000000 -0.050000000 -0.075000000
v 0.268089230 -0.050000000 -0.001910770
v 0.239191251 0.124321029 -0.030866793
v 0.400000000 -0.050000000 -0.075000000
v 0.239191251 0.124321029 -0.030866793
v 0.400000000 0.120000000 -0.120000000
v 0.268089230 -0.050000000 -0.001910770
v 0.195000000 -0.050000000 0.130000000
v 0.150090205 0.126715228 0.130000000
v 0.268089230 -0.050000000 -0.001910770
v 0.150090205 0.126715228 0.130000000
v 0.239191251 0.124321029 -0.030866793
v 0.195000000 -0.050000000 0.130000000
v 0.268089230 -0.050000000 0.261910770
v 0.239191251 0.124321029 0.290866793
v 0.195000000 -0.050000000 0.130000000
v 0.239191251 0.124321029 0.290866793
v 0.150090205 0.126715228 0.130000000
v 0.268089230 -0.050000000 0.261910770
v 0.400000000 -0.050000000 0.335000000
v 0.400000000 0.120000000 0.380000000
v 0.268089230 -0.050000000 0.261910770
v 0.400000000 0.120000000 0.380000000
v 0.239191251 0.124321029 0.290866793
v 0.400000000 -0.050000000 0.335000000
v 0.531910770 -0.050000000 0.261910770
v 0.560808749 0.115678971 0.290866793
v 0.400000000 -0.050000000 0.335000000
v 0.560808749 0.115678971 0.290866793
v 0.400000000 0.120000000 0.380000000
v 0.531910770 -0.050000000 0.261910770
v 0.605000000 -0.050000000 0.130000000
v 0.649909795 0.113284772 0.130000000
v 0.531910770 -0.050000000 0.261910770
v 0.649909795 0.113284772 0.130000000
v 0.560808749 0.115678971 0.290866793
v 0.649909795 0.113284772 0.130000000
v 0.560808749 0.115678971 -0.030866793
v 0.573891790 0.912008628 -0.017997449
v 0.649909795 0.113284772 0.130000000
v 0.573891790 0.912008628 -0.017997449
v 0.655835797 0.908910556 0.130000000
v 0.560808749 0.115678971 -0.030866793
v 0.400000000 0.120000000 -0.120000000
v 0.426000000 0.917600000 -0.100000000
v 0.560808749 0.115678971 -0.030866793
v 0.426000000 0.917600000 -0.100000000
v 0.573891790 0.912008628 -0.017997449
v 0.400000000 0.120000000 -0.120000000
v 0.239191251 0.124321029 -0.030866793
v 0.278108210 0.923191372 -0.017997449
v 0.400000000 0.120000000 -0.120000000
v 0.278108210 0.923191372 -0.017997449
v 0.426000000 0.917600000 -0.100000000
v 0.239191251 0.124321029 -0.030866793
v 0.150090205 0.126715228 0.130000000
v 0.196164203 0.926289444 0.130000000
v 0.239191251 0.124321029 -0.030866793
v 0.196164203 0.926289444 0.130000000
v 0.278108210 0.923191372 -0.017997449
v 0.150090205 0.126715228 0.130000000
v 0.239191251 0.124321029 0.290866793
v 0.278108210 0.923191372 0.277997449
v 0.150090205 0.126715228 0.130000000
v 0.278108210 0.923191372 0.277997449
v 0.196164203 0.926289444 0.130000000
v 0.239191251 0.124321029 0.290866793
v 0.400000000 0.120000000 0.380000000
v 0.426000000 0.917600000 0.360000000
v 0.239191251 0.124321029 0.290866793
v 0.426000000 0.917600000 0.360000000
v 0.278108210 0.923191372 0.277997449
v 0.400000000 0.120000000 0.380000000
v 0.560808749 0.115678971 0.290866793
v 0.573891790 0.912008628 0.277997449
v 0.400000000 0.120000000 0.380000000
v 0.573891790 0.912008628 0.277997449
v 0.426000000 0.917600000 0.360000000
v 0.560808749 0.115678971 0.290866793
v 0.649909795 0.113284772 0.130000000
v 0.655835797 0.908910556 0.130000000
v 0.560808749 0.115678971 0.290866793
v 0.655835797 0.908910556 0.130000000
v 0.573891790 0.912008628 0.277997449
v 0.655835797 0.908910556 0.130000000
v 0.573891790 0.912008628 -0.017997449
v 0.521964821 1.174440734 0.047957936
v 0.655835797 0.908910556 0.130000000
v 0.521964821 1.174440734 0.047957936
v 0.567379958 1.172468612 0.130000000
v 0.573891790 0.912008628 -0.017997449
v 0.426000000 0.917600000 -0.100000000
v 0.440000000 1.178000000 0.002500000
v 0.573891790 0.912008628 -0.017997449
v 0.440000000 1.178000000 0.002500000
v 0.521964821 1.174440734 0.047957936
v 0.426000000 0.917600000 -0.100000000
v 0.278108210 0.923191372 -0.017997449
v 0.358035179 1.181559266 0.047957936
v 0.426000000 0.917600000 -0.100000000
v 0.358035179 1.181559266 0.047957936
v 0.440000000 1.178000000 0.002500000
v 0.278108210 0.923191372 -0.017997449
v 0.196164203 0.926289444 0.130000000
v 0.312620042 1.183531388 0.130000000
v 0.278108210 0.923191372 -0.017997449
v 0.312620042 1.183531388 0.130000000
v 0.358035179 1.181559266 0.047957936
v 0.196164203 0.926289444 0.130000000
v 0.278108210 0.923191372 0.277997449
v 0.358035179 1.181559266 0.212042064
v 0.196164203 0.926289444 0.130000000
v 0.358035179 1.181559266 0.212042064
v 0.312620042 1.183531388 0.130000000
v 0.278108210 0.923191372 0.277997449
v 0.426000000 0.917600000 0.360000000
v 0.440000000 1.178000000 0.257500000
v 0.278108210 0.923191372 0.277997449
v 0.440000000 1.178000000 0.257500000
v 0.358035179 1.181559266 0.212042064
v 0.426000000 0.917600000 0.360000000
v 0.573891790 0.912008628 0.277997449
v 0.521964821 1.174440734 0.212042064
v 0.426000000 0.917600000 0.360000000
v 0.521964821 1.174440734 0.212042064
v 0.440000000 1.178000000 0.257500000
v 0.573891790 0.912008628 0.277997449
v 0.655835797 0.908910556 0.130000000
v 0.567379958 1.172468612 0.130000000
v 0.573891790 0.912008628 0.277997449
v 0.567379958 1.172468612 0.130000000
v 0.521964821 1.174440734 0.212042064
v 0.400000000 -0.050000000 0.130000000
v 0.531910770 -0.050000000 -0.001910770
v 0.605000000 -0.050000000 0.130000000
v 0.400000000 -0.050000000 0.130000000
v 0.400000000 -0.050000000 -0.075000000
v 0.531910770 -0.050000000 -0.001910770
v 0.400000000 -0.050000000 0.130000000
v 0.268089230 -0.050000000 -0.001910770
v 0.400000000 -0.050000000 -0.075000000
v 0.400000000 -0.050000000 0.130000000
v 0.195000000 -0.050000000 0.130000000
v 0.268089230 -0.050000000 -0.001910770
v 0.400000000 -0.050000000 0.130000000
v 0.268089230 -0.050000000 0.261910770
v 0.195000000 -0.050000000 0.130000000
v 0.400000000 -0.050000000 0.130000000
v 0.400000000 -0.050000000 0.335000000
v 0.268089230 -0.050000000 0.261910770
v 0.400000000 -0.050000000 0.130000000
v 0.531910770 -0.050000000 0.261910770
v 0.400000000 -0.050000000 0.335000000
v 0.400000000 -0.050000000 0.130000000
v 0.605000000 -0.050000000 0.130000000
v 0.531910770 -0.050000000 0.261910770
v 0.567379958 1.172468612 0.130000000
v 0.521964821 1.174440734 0.047957936
v 0.440000000 1.240000000 0.130000000
v 0.521964821 1.174440734 0.047957936
v 0.440000000 1.178000000 0.002500000
v 0.440000000 1.240000000 0.130000000
v 0.440000000 1.178000000 0.002500000
v 0.358035179 1.181559266 0.047957936
v 0.440000000 1.240000000 0.130000000
v 0.358035179 1.181559266 0.047957936
v 0.312620042 1.183531388 0.130000000
v 0.440000000 1.240000000 0.130000000
v 0.312620042 1.183531388 0.130000000
v 0.358035179 1.181559266 0.212042064
v 0.440000000 1.240000000 0.130000000
v 0.358035179 1.181559266 0.212042064
v 0.440000000 1.178000000 0.257500000
v 0.440000000 1.240000000 0.130000000
v 0.440000000 1.178000000 0.257500000
v 0.521964821 1.174440734 0.212042064
v 0.440000000 1.240000000 0.130000000
v 0.521964821 1.174440734 0.212042064
v 0.567379958 1.172468612 0.130000000
v 0.440000000 1.240000000 0.130000000
v 0.326800000 -0.050000000 -0.370000000
v 0.256634339 -0.050000000 -0.496634339
v 0.284423629 0.121619480 -0.524432121
v 0.326800000 -0.050000000 -0.370000000
v 0.284423629 0.121619480 -0.524432121
v 0.369986803 0.122516803 -0.370000000
v 0.256634339 -0.050000000 -0.496634339
v 0.130000000 -0.050000000 -0.566800000
v 0.130000000 0.120000000 -0.610000000
v 0.256634339 -0.050000000 -0.496634339
v 0.130000000 0.120000000 -0.610000000
v 0.284423629 0.121619480 -0.524432121
v 0.130000000 -0.050000000 -0.566800000
v 0.003365661 -0.050000000 -0.496634339
v -0.024423629 0.118380520 -0.524432121
v 0.130000000 -0.050000000 -0.566800000
v -0.024423629 0.118380520 -0.524432121
v 0.130000000 0.120000000 -0.610000000
v 0.003365661 -0.050000000 -0.496634339
v -0.066800000 -0.050000000 -0.370000000
v -0.109986803 0.117483197 -0.370000000
v 0.003365661 -0.050000000 -0.496634339
v -0.109986803 0.117483197 -0.370000000
v -0.024423629 0.118380520 -0.524432121
v -0.066800000 -0.050000000 -0.370000000
v 0.003365661 -0.050000000 -0.243365661
v -0.024423629 0.118380520 -0.215567879
v -0.066800000 -0.050000000 -0.370000000
v -0.024423629 0.118380520 -0.215567879
v -0.109986803 0.117483197 -0.370000000
v 0.003365661 -0.050000000 -0.243365661
v 0.130000000 -0.050000000 -0.173200000
v 0.130000000 0.120000000 -0.130000000
v 0.003365661 -0.050000000 -0.243365661
v 0.130000000 0.120000000 -0.130000000
v -0.024423629 0.118380520 -0.215567879
v 0.130000000 -0.050000000 -0.173200000
v 0.256634339 -0.050000000 -0.243365661
v 0.284423629 0.121619480 -0.215567879
v 0.130000000 -0.050000000 -0.173200000
v 0.284423629 0.121619480 -0.215567879
v 0.130000000 0.120000000 -0.130000000
v 0.256634339 -0.050000000 -0.243365661
v 0.326800000 -0.050000000 -0.370000000
v 0.369986803 0.122516803 -0.370000000
v 0.256634339 -0.050000000 -0.243365661
v 0.369986803 0.122516803 -0.370000000
v 0.284423629 0.121619480 -0.215567879
v 0.369986803 0.122516803 -0.370000000
v 0.284423629 0.121619480 -0.524432121
v 0.265558557 0.572123116 -0.512077551
v 0.369986803 0.122516803 -0.370000000
v 0.265558557 0.572123116 -0.512077551
v 0.344270482 0.573410310 -0.370000000
v 0.284423629 0.121619480 -0.524432121
v 0.130000000 0.120000000 -0.610000000
v 0.123500000 0.569800000 -0.590800000
v 0.284423629 0.121619480 -0.524432121
v 0.123500000 0.569800000 -0.590800000
v 0.265558557 0.572123116 -0.512077551
v 0.130000000 0.120000000 -0.610000000
v -0.024423629 0.118380520 -0.524432121
v -0.018558557 0.567476884 -0.512077551
v 0.130000000 0.120000000 -0.610000000
v -0.018558557 0.567476884 -0.512077551
v 0.123500000 0.569800000 -0.590800000
v -0.024423629 0.118380520 -0.524432121
v -0.109986803 0.117483197 -0.370000000
v -0.097270482 0.566189690 -0.370000000
v -0.024423629 0.118380520 -0.524432121
v -0.097270482 0.566189690 -0.370000000
v -0.018558557 0.567476884 -0.512077551
v -0.109986803 0.117483197 -0.370000000
v -0.024423629 0.118380520 -0.215567879
v -0.018558557 0.567476884 -0.227922449
v -0.109986803 0.117483197 -0.370000000
v -0.018558557 0.567476884 -0.227922449
v -0.097270482 0.566189690 -0.370000000
v -0.024423629 0.118380520 -0.215567879
v 0.130000000 0.120000000 -0.130000000
v 0.123500000 0.569800000 -0.149200000
v -0.024423629 0.118380520 -0.215567879
v 0.123500000 0.569800000 -0.149200000
v -0.018558557 0.567476884 -0.227922449
v 0.130000000 0.120000000 -0.130000000
v 0.284423629 0.121619480 -0.215567879
v 0.265558557 0.572123116 -0.227922449
v 0.130000000 0.120000000 -0.130000000
v 0.265558557 0.572123116 -0.227922449
v 0.123500000 0.569800000 -0.149200000
v 0.284423629 0.121619480 -0.215567879
v 0.369986803 0.122516803 -0.370000000
v 0.344270482 0.573410310 -0.370000000
v 0.284423629 0.121619480 -0.215567879
v 0.344270482 0.573410310 -0.370000000
v 0.265558557 0.572123116 -0.227922449
v 0.344270482 0.573410310 -0.370000000
v 0.265558557 0.572123116 -0.512077551
v 0.198748348 0.732876719 -0.448760382
v 0.344270482 0.573410310 -0.370000000
v 0.198748348 0.732876719 -0.448760382
v 0.242381299 0.733639533 -0.370000000
v 0.265558557 0.572123116 -0.512077551
v 0.123500000 0.569800000 -0.590800000
v 0.120000000 0.731500000 -0.492400000
v 0.265558557 0.572123116 -0.512077551
v 0.120000000 0.731500000 -0.492400000
v 0.198748348 0.732876719 -0.448760382
v 0.123500000 0.569800000 -0.590800000
v -0.018558557 0.567476884 -0.512077551
v 0.041251652 0.730123281 -0.448760382
v 0.123500000 0.569800000 -0.590800000
v 0.041251652 0.730123281 -0.448760382
v 0.120000000 0.731500000 -0.492400000
v -0.018558557 0.567476884 -0.512077551
v -0.097270482 0.566189690 -0.370000000
v -0.002381299 0.729360467 -0.370000000
v -0.018558557 0.567476884 -0.512077551
v -0.002381299 0.729360467 -0.370000000
v 0.041251652 0.730123281 -0.448760382
v -0.097270482 0.566189690 -0.370000000
v -0.018558557 0.567476884 -0.227922449
v 0.041251652 0.730123281 -0.291239618
v -0.097270482 0.566189690 -0.370000000
v 0.041251652 0.730123281 -0.291239618
v -0.002381299 0.729360467 -0.370000000
v -0.018558557 0.567476884 -0.227922449
v 0.123500000 0.569800000 -0.149200000
v 0.120000000 0.731500000 -0.247600000
v -0.018558557 0.567476884 -0.227922449
v 0.120000000 0.731500000 -0.247600000
v 0.041251652 0.730123281 -0.291239618
v 0.123500000 0.569800000 -0.149200000
v 0.265558557 0.572123116 -0.227922449
v 0.198748348 0.732876719 -0.291239618
v 0.123500000 0.569800000 -0.149200000
v 0.198748348 0.732876719 -0.291239618
v 0.120000000 0.731500000 -0.247600000
v 0.265558557 0.572123116 -0.227922449
v 0.344270482 0.573410310 -0.370000000
v 0.242381299 0.733639533 -0.370000000
v 0.265558557 0.572123116 -0.227922449
v 0.242381299 0.733639533 -0.370000000
v 0.198748348 0.732876719 -0.291239618
v 0.130000000 -0.050000000 -0.370000000
v 0.256634339 -0.050000000 -0.496634339
v 0.326800000 -0.050000000 -0.370000000
v 0.130000000 -0.050000000 -0.370000000
v 0.130000000 -0.050000000 -0.566800000
v 0.256634339 -0.050000000 -0.496634339
v 0.130000000 -0.050000000 -0.370000000
v 0.003365661 -0.050000000 -0.496634339
v 0.130000000 -0.050000000 -0.566800000
v 0.130000000 -0.050000000 -0.370000000
v -0.066800000 -0.050000000 -0.370000000
v 0.003365661 -0.050000000 -0.496634339
v 0.130000000 -0.050000000 -0.370000000
v 0.003365661 -0.050000000 -0.243365661
v -0.066800000 -0.050000000 -0.370000000
v 0.130000000 -0.050000000 -0.370000000
v 0.130000000 -0.050000000 -0.173200000
v 0.003365661 -0.050000000 -0.243365661
v 0.130000000 -0.050000000 -0.370000000
v 0.256634339 -0.050000000 -0.243365661
v 0.130000000 -0.050000000 -0.173200000
v 0.130000000 -0.050000000 -0.370000000
v 0.326800000 -0.050000000 -0.370000000
v 0.256634339 -0.050000000 -0.243365661
v 0.242381299 0.733639533 -0.370000000
v 0.198748348 0.732876719 -0.448760382
v 0.120000000 0.770000000 -0.370000000
v 0.198748348 0.732876719 -0.448760382
v 0.120000000 0.731500000 -0.492400000
v 0.120000000 0.770000000 -0.370000000
v 0.120000000 0.731500000 -0.492400000
v 0.041251652 0.730123281 -0.448760382
v 0.120000000 0.770000000 -0.370000000
v 0.041251652 0.730123281 -0.448760382
v -0.002381299 0.729360467 -0.370000000
v 0.120000000 0.770000000 -0.370000000
v -0.002381299 0.729360467 -0.370000000
v 0.041251652 0.730123281 -0.291239618
v 0.120000000 0.770000000 -0.370000000
v 0.041251652 0.730123281 -0.291239618
v 0.120000000 0.731500000 -0.247600000
v 0.120000000 0.770000000 -0.370000000
v 0.120000000 0.731500000 -0.247600000
v 0.198748348 0.732876719 -0.291239618
v 0.120000000 0.770000000 -0.370000000
v 0.198748348 0.732876719 -0.291239618
v 0.242381299 0.733639533 -0.370000000
v 0.120000000 0.770000000 -0.370000000
vt 0.062500000 0.500000000
vt 0.062500000 0.500000000
vt 0.062500000 0.500000000
vt 0.062500000 0.500000000
vt 0.062500000 0.500000000
vt 0.062500000 0.500000000
vt 0.312500000 0.500000000
vt 0.312500000 0.500000000
vt 0.312500000 0.500000000
vt 0.312500000 0.500000000
vt 0.312500000 0.500000000
vt 0.312500000 0.500000000
vt 0.187500000 0.500000000
vt 0.187500000 0.500000000
vt 0.187500000 0.500000000
vt 0.187500000 0.500000000
vt 0.187500000 0.500000000
vt 0.187500000 0.500000000
vt 0.312500000 0.500000000
vt 0.312500000 0.500000000
vt 0.312500000 0.500000000
vt 0.312500000 0.500000000
vt 0.312500000 0.500000000
vt 0.312500000 0.500000000
vt 0.062500000 0.500000000
vt 0.062500000 0.500000000
vt 0.062500000 0.500000000
vt 0.062500000 0.500000000
vt 0.062500000 0.500000000
vt 0.062500000 0.500000000
vt 0.437500000 0.500000000
vt 0.437500000 0.500000000
vt 0.437500000 0.500000000
vt 0.437500000 0.500000000
vt 0.437500000 0.500000000
vt 0.437500000 0.500000000
vt 0.062500000 0.500000000
vt 0.062500000 0.500000000
vt 0.062500000 0.500000000
vt 0.062500000 0.500000000
vt 0.062500000 0.500000000
vt 0.062500000 0.500000000
vt 0.312500000 0.500000000
vt 0.312500000 0.500000000
vt 0.312500000 0.500000000
vt 0.312500000 0.500000000
vt 0.312500000 0.500000000
vt 0.312500000 0.500000000
vt 0.062500000 0.500000000
vt 0.062500000 0.500000000
vt 0.062500000 0.500000000
vt 0.062500000 0.500000000
vt 0.062500000 0.500000000
vt 0.062500000 0.500000000
vt 0.312500000 0.500000000
vt 0.312500000 0.500000000
vt 0.312500000 0.500000000
vt 0.312500000 0.500000000
vt 0.312500000 0.500000000
vt 0.312500000 0.500000000
vt 0.187500000 0.500000000
vt 0.187500000 0.500000000
vt 0.187500000 0.500000000
vt 0.187500000 0.500000000
vt 0.187500000 0.500000000
vt 0.187500000 0.500000000
vt 0.312500000 0.500000000
vt 0.312500000 0.500000000
vt 0.312500000 0.500000000
vt 0.312500000 0.500000000
vt 0.312500000 0.500000000
vt 0.312500000 0.500000000
vt 0.062500000 0.500000000
vt 0.062500000 0.500000000
vt 0.062500000 0.500000000
vt 0.062500000 0.500000000
vt 0.062500000 0.500000000
vt 0.062500000 0.500000000
vt 0.437500000 0.500000000
vt 0.437500000 0.500000000
vt 0.437500000 0.500000000
vt 0.437500000 0.500000000
vt 0.437500000 0.500000000
vt 0.437500000 0.500000000
vt 0.062500000 0.500000000
vt 0.062500000 0.500000000
vt 0.062500000 0.500000000
vt 0.062500000 0.500000000
vt 0.062500000 0.500000000
vt 0.062500000 0.500000000
vt 0.312500000 0.500000000
vt 0.312500000 0.500000000
vt 0.312500000 0.500000000
vt 0.312500000 0.500000000
vt 0.312500000 0.500000000
vt 0.312500000 0.500000000
vt 0.062500000 0.500000000
vt 0.062500000 0.500000000
vt 0.062500000 0.500000000
vt 0.062500000 0.500000000
vt 0.062500000 0.500000000
vt 0.062500000 0.500000000
vt 0.312500000 0.500000000
vt 0.312500000 0.500000000
vt 0.312500000 0.500000000
vt 0.312500000 0.500000000
vt 0.312500000 0.500000000
vt 0.312500000 0.500000000
vt 0.187500000 0.500000000
vt 0.187500000 0.500000000
vt 0.187500000 0.500000000
vt 0.187500000 0.500000000
vt 0.187500000 0.500000000
vt 0.187500000 0.500000000
vt 0.312500000 0.500000000
vt 0.312500000 0.500000000
vt 0.312500000 0.500000000
vt 0.312500000 0.500000000
vt 0.312500000 0.500000000
vt 0.312500000 0.500000000
vt 0.062500000 0.500000000
vt 0.062500000 0.500000000
vt 0.062500000 0.500000000
vt 0.062500000 0.500000000
vt 0.062500000 0.500000000
vt 0.062500000 0.500000000
vt 0.437500000 0.500000000
vt 0.437500000 0.500000000
vt 0.437500000 0.500000000
vt 0.437500000 0.500000000
vt 0.437500000 0.500000000
vt 0.437500000 0.500000000
vt 0.062500000 0.500000000
vt 0.062500000 0.500000000
vt 0.062500000 0.500000000
vt 0.062500000 0.500000000
vt 0.062500000 0.500000000
vt 0.062500000 0.500000000
vt 0.312500000 0.500000000
vt 0.312500000 0.500000000
vt 0.312500000 0.500000000
vt 0.312500000 0.500000000
vt 0.312500000 0.500000000
vt 0.312500000 0.500000000
vt 0.812500000 0.500000000
vt 0.812500000 0.500000000
vt 0.812500000 0.500000000
vt 0.812500000 0.500000000
vt 0.812500000 0.500000000
vt 0.812500000 0.500000000
vt 0.812500000 0.500000000
vt 0.812500000 0.500000000
vt 0.812500000 0.500000000
vt 0.812500000 0.500000000
vt 0.812500000 0.500000000
vt 0.812500000 0.500000000
vt 0.812500000 0.500000000
vt 0.812500000 0.500000000
vt 0.812500000 0.500000000
vt 0.812500000 0.500000000
vt 0.812500000 0.500000000
vt 0.812500000 0.500000000
vt 0.812500000 0.500000000
vt 0.812500000 0.500000000
vt 0.812500000 0.500000000
vt 0.812500000 0.500000000
vt 0.812500000 0.500000000
vt 0.812500000 0.500000000
vt 0.937500000 0.500000000
vt 0.937500000 0.500000000
vt 0.937500000 0.500000000
vt 0.562500000 0.500000000
vt 0.562500000 0.500000000
vt 0.562500000 0.500000000
vt 0.937500000 0.500000000
vt 0.937500000 0.500000000
vt 0.937500000 0.500000000
vt 0.562500000 0.500000000
vt 0.562500000 0.500000000
vt 0.562500000 0.500000000
vt 0.937500000 0.500000000
vt 0.937500000 0.500000000
vt 0.937500000 0.500000000
vt 0.562500000 0.500000000
vt 0.562500000 0.500000000
vt 0.562500000 0.500000000
vt 0.937500000 0.500000000
vt 0.937500000 0.500000000
vt 0.937500000 0.500000000
vt 0.562500000 0.500000000
vt 0.562500000 0.500000000
vt 0.562500000 0.500000000
vt 0.062500000 0.500000000
vt 0.062500000 0.500000000
vt 0.062500000 0.500000000
vt 0.062500000 0.500000000
vt 0.062500000 0.500000000
vt 0.062500000 0.500000000
vt 0.312500000 0.500000000
vt 0.312500000 0.500000000
vt 0.312500000 0.500000000
vt 0.312500000 0.500000000
vt 0.312500000 0.500000000
vt 0.312500000 0.500000000
vt 0.187500000 0.500000000
vt 0.187500000 0.500000000
vt 0.187500000 0.500000000
vt 0.187500000 0.500000000
vt 0.187500000 0.500000000
vt 0.187500000 0.500000000
vt 0.312500000 0.500000000
vt 0.312500000 0.500000000
vt 0.312500000 0.500000000
vt 0.312500000 0.500000000
vt 0.312500000 0.500000000
vt 0.312500000 0.500000000
vt 0.062500000 0.500000000
vt 0.062500000 0.500000000
vt 0.062500000 0.500000000
vt 0.062500000 0.500000000
vt 0.062500000 0.500000000
vt 0.062500000 0.500000000
vt 0.437500000 0.500000000
vt 0.437500000 0.500000000
vt 0.437500000 0.500000000
vt 0.437500000 0.500000000
vt 0.437500000 0.500000000
vt 0.437500000 0.500000000
vt 0.062500000 0.500000000
vt 0.062500000 0.500000000
vt 0.062500000 0.500000000
vt 0.062500000 0.500000000
vt 0.062500000 0.500000000
vt 0.062500000 0.500000000
vt 0.312500000 0.500000000
vt 0.312500000 0.500000000
vt 0.312500000 0.500000000
vt 0.312500000 0.500000000
vt 0.312500000 0.500000000
vt 0.312500000 0.500000000
vt 0.062500000 0.500000000
vt 0.062500000 0.500000000
vt 0.062500000 0.500000000
vt 0.062500000 0.500000000
vt 0.062500000 0.500000000
vt 0.062500000 0.500000000
vt 0.312500000 0.500000000
vt 0.312500000 0.500000000
vt 0.312500000 0.500000000
vt 0.312500000 0.500000000
vt 0.312500000 0.500000000
vt 0.312500000 0.500000000
vt 0.187500000 0.500000000
vt 0.187500000 0.500000000
vt 0.187500000 0.500000000
vt 0.187500000 0.500000000
vt 0.187500000 0.500000000
vt 0.187500000 0.500000000
vt 0.312500000 0.500000000
vt 0.312500000 0.500000000
vt 0.312500000 0.500000000
vt 0.312500000 0.500000000
vt 0.312500000 0.500000000
vt 0.312500000 0.500000000
vt 0.062500000 0.500000000
vt 0.062500000 0.500000000
vt 0.062500000 0.500000000
vt 0.062500000 0.500000000
vt 0.062500000 0.500000000
vt 0.062500000 0.500000000
vt 0.437500000 0.500000000
vt 0.437500000 0.500000000
vt 0.437500000 0.500000000
vt 0.437500000 0.500000000
vt 0.437500000 0.500000000
vt 0.437500000 0.500000000
vt 0.062500000 0.500000000
vt 0.062500000 0.500000000
vt 0.062500000 0.500000000
vt 0.062500000 0.500000000
vt 0.062500000 0.500000000
vt 0.062500000 0.500000000
vt 0.312500000 0.500000000
vt 0.312500000 0.500000000
vt 0.312500000 0.500000000
vt 0.312500000 0.500000000
vt 0.312500000 0.500000000
vt 0.312500000 0.500000000
vt 0.062500000 0.500000000
vt 0.062500000 0.500000000
vt 0.062500000 0.500000000
vt 0.062500000 0.500000000
vt 0.062500000 0.500000000
vt 0.062500000 0.500000000
vt 0.312500000 0.500000000
vt 0.312500000 0.500000000
vt 0.312500000 0.500000000
vt 0.312500000 0.500000000
vt 0.312500000 0.500000000
vt 0.312500000 0.500000000
vt 0.187500000 0.500000000
vt 0.187500000 0.500000000
vt 0.187500000 0.500000000
vt 0.187500000 0.500000000
vt 0.187500000 0.500000000
vt 0.187500000 0.500000000
vt 0.312500000 0.500000000
vt 0.312500000 0.500000000
vt 0.312500000 0.500000000
vt 0.312500000 0.500000000
vt 0.312500000 0.500000000
vt 0.312500000 0.500000000
vt 0.062500000 0.500000000
vt 0.062500000 0.500000000
vt 0.062500000 0.500000000
vt 0.062500000 0.500000000
vt 0.062500000 0.500000000
vt 0.062500000 0.500000000
vt 0.437500000 0.500000000
vt 0.437500000 0.500000000
vt 0.437500000 0.500000000
vt 0.437500000 0.500000000
vt 0.437500000 0.500000000
vt 0.437500000 0.500000000
vt 0.062500000 0.500000000
vt 0.062500000 0.500000000
vt 0.062500000 0.500000000
vt 0.062500000 0.500000000
vt 0.062500000 0.500000000
vt 0.062500000 0.500000000
vt 0.312500000 0.500000000
vt 0.312500000 0.500000000
vt 0.312500000 0.500000000
vt 0.312500000 0.500000000
vt 0.312500000 0.500000000
vt 0.312500000 0.500000000
vt 0.812500000 0.500000000
vt 0.812500000 0.500000000
vt 0.812500000 0.500000000
vt 0.812500000 0.500000000
vt 0.812500000 0.500000000
vt 0.812500000 0.500000000
vt 0.812500000 0.500000000
vt 0.812500000 0.500000000
vt 0.812500000 0.500000000
vt 0.812500000 0.500000000
vt 0.812500000 0.500000000
vt 0.812500000 0.500000000
vt 0.812500000 0.500000000
vt 0.812500000 0.500000000
vt 0.812500000 0.500000000
vt 0.812500000 0.500000000
vt 0.812500000 0.500000000
vt 0.812500000 0.500000000
vt 0.812500000 0.500000000
vt 0.812500000 0.500000000
vt 0.812500000 0.500000000
vt 0.812500000 0.500000000
vt 0.812500000 0.500000000
vt 0.812500000 0.500000000
vt 0.937500000 0.500000000
vt 0.937500000 0.500000000
vt 0.937500000 0.500000000
vt 0.562500000 0.500000000
vt 0.562500000 0.500000000
vt 0.562500000 0.500000000
vt 0.937500000 0.500000000
vt 0.937500000 0.500000000
vt 0.937500000 0.500000000
vt 0.562500000 0.500000000
vt 0.562500000 0.500000000
vt 0.562500000 0.500000000
vt 0.937500000 0.500000000
vt 0.937500000 0.500000000
vt 0.937500000 0.500000000
vt 0.562500000 0.500000000
vt 0.562500000 0.500000000
vt 0.562500000 0.500000000
vt 0.937500000 0.500000000
vt 0.937500000 0.500000000
vt 0.937500000 0.500000000
vt 0.562500000 0.500000000
vt 0.562500000 0.500000000
vt 0.562500000 0.500000000
vt 0.062500000 0.500000000
vt 0.062500000 0.500000000
vt 0.062500000 0.500000000
vt 0.062500000 0.500000000
vt 0.062500000 0.500000000
vt 0.062500000 0.500000000
vt 0.312500000 0.500000000
vt 0.312500000 0.500000000
vt 0.312500000 0.500000000
vt 0.312500000 0.500000000
vt 0.312500000 0.500000000
vt 0.312500000 0.500000000
vt 0.187500000 0.500000000
vt 0.187500000 0.500000000
vt 0.187500000 0.500000000
vt 0.187500000 0.500000000
vt 0.187500000 0.500000000
vt 0.187500000 0.500000000
vt 0.312500000 0.500000000
vt 0.312500000 0.500000000
vt 0.312500000 0.500000000
vt 0.312500000 0.500000000
vt 0.312500000 0.500000000
vt 0.312500000 0.500000000
vt 0.062500000 0.500000000
vt 0.062500000 0.500000000
vt 0.062500000 0.500000000
vt 0.062500000 0.500000000
vt 0.062500000 0.500000000
vt 0.062500000 0.500000000
vt 0.437500000 0.500000000
vt 0.437500000 0.500000000
vt 0.437500000 0.500000000
vt 0.437500000 0.500000000
vt 0.437500000 0.500000000
vt 0.437500000 0.500000000
vt 0.062500000 0.500000000
vt 0.062500000 0.500000000
vt 0.062500000 0.500000000
vt 0.062500000 0.500000000
vt 0.062500000 0.500000000
vt 0.062500000 0.500000000
vt 0.312500000 0.500000000
vt 0.312500000 0.500000000
vt 0.312500000 0.500000000
vt 0.312500000 0.500000000
vt 0.312500000 0.500000000
vt 0.312500000 0.500000000
vt 0.062500000 0.500000000
vt 0.062500000 0.500000000
vt 0.062500000 0.500000000
vt 0.062500000 0.500000000
vt 0.062500000 0.500000000
vt 0.062500000 0.500000000
vt 0.312500000 0.500000000
vt 0.312500000 0.500000000
vt 0.312500000 0.500000000
vt 0.312500000 0.500000000
vt 0.312500000 0.500000000
vt 0.312500000 0.500000000
vt 0.187500000 0.500000000
vt 0.187500000 0.500000000
vt 0.187500000 0.500000000
vt 0.187500000 0.500000000
vt 0.187500000 0.500000000
vt 0.187500000 0.500000000
vt 0.312500000 0.500000000
vt 0.312500000 0.500000000
vt 0.312500000 0.500000000
vt 0.312500000 0.500000000
vt 0.312500000 0.500000000
vt 0.312500000 0.500000000
vt 0.062500000 0.500000000
vt 0.062500000 0.500000000
vt 0.062500000 0.500000000
vt 0.062500000 0.500000000
vt 0.062500000 0.500000000
vt 0.062500000 0.500000000
vt 0.437500000 0.500000000
vt 0.437500000 0.500000000
vt 0.437500000 0.500000000
vt 0.437500000 0.500000000
vt 0.437500000 0.500000000
vt 0.437500000 0.500000000
vt 0.062500000 0.500000000
vt 0.062500000 0.500000000
vt 0.062500000 0.500000000
vt 0.062500000 0.500000000
vt 0.062500000 0.500000000
vt 0.062500000 0.500000000
vt 0.312500000 0.500000000
vt 0.312500000 0.500000000
vt 0.312500000 0.500000000
vt 0.312500000 0.500000000
vt 0.312500000 0.500000000
vt 0.312500000 0.500000000
vt 0.062500000 0.500000000
vt 0.062500000 0.500000000
vt 0.062500000 0.500000000
vt 0.062500000 0.500000000
vt 0.062500000 0.500000000
vt 0.062500000 0.500000000
vt 0.312500000 0.500000000
vt 0.312500000 0.500000000
vt 0.312500000 0.500000000
vt 0.312500000 0.500000000
vt 0.312500000 0.500000000
vt 0.312500000 0.500000000
vt 0.187500000 0.500000000
vt 0.187500000 0.500000000
vt 0.187500000 0.500000000
vt 0.187500000 0.500000000
vt 0.187500000 0.500000000
vt 0.187500000 0.500000000
vt 0.312500000 0.500000000
vt 0.312500000 0.500000000
vt 0.312500000 0.500000000
vt 0.312500000 0.500000000
vt 0.312500000 0.500000000
vt 0.312500000 0.500000000
vt 0.062500000 0.500000000
vt 0.062500000 0.500000000
vt 0.062500000 0.500000000
vt 0.062500000 0.500000000
vt 0.062500000 0.500000000
vt 0.062500000 0.500000000
vt 0.437500000 0.500000000
vt 0.437500000 0.500000000
vt 0.437500000 0.500000000
vt 0.437500000 0.500000000
vt 0.437500000 0.500000000
vt 0.437500000 0.500000000
vt 0.062500000 0.500000000
vt 0.062500000 0.500000000
vt 0.062500000 0.500000000
vt 0.062500000 0.500000000
vt 0.062500000 0.500000000
vt 0.062500000 0.500000000
vt 0.312500000 0.500000000
vt 0.312500000 0.500000000
vt 0.312500000 0.500000000
vt 0.312500000 0.500000000
vt 0.312500000 0.500000000
vt 0.312500000 0.500000000
vt 0.812500000 0.500000000
vt 0.812500000 0.500000000
vt 0.812500000 0.500000000
vt 0.812500000 0.500000000
vt 0.812500000 0.500000000
vt 0.812500000 0.500000000
vt 0.812500000 0.500000000
vt 0.812500000 0.500000000
vt 0.812500000 0.500000000
vt 0.812500000 0.500000000
vt 0.812500000 0.500000000
vt 0.812500000 0.500000000
vt 0.812500000 0.500000000
vt 0.812500000 0.500000000
vt 0.812500000 0.500000000
vt 0.812500000 0.500000000
vt 0.812500000 0.500000000
vt 0.812500000 0.500000000
vt 0.812500000 0.500000000
vt 0.812500000 0.500000000
vt 0.812500000 0.500000000
vt 0.812500000 0.500000000
vt 0.812500000 0.500000000
vt 0.812500000 0.500000000
vt 0.937500000 0.500000000
vt 0.937500000 0.500000000
vt 0.937500000 0.500000000
vt 0.562500000 0.500000000
vt 0.562500000 0.500000000
vt 0.562500000 0.500000000
vt 0.937500000 0.500000000
vt 0.937500000 0.500000000
vt 0.937500000 0.500000000
vt 0.562500000 0.500000000
vt 0.562500000 0.500000000
vt 0.562500000 0.500000000
vt 0.937500000 0.500000000
vt 0.937500000 0.500000000
vt 0.937500000 0.500000000
vt 0.562500000 0.500000000
vt 0.562500000 0.500000000
vt 0.562500000 0.500000000
vt 0.937500000 0.500000000
vt 0.937500000 0.500000000
vt 0.937500000 0.500000000
vt 0.562500000 0.500000000
vt 0.562500000 0.500000000
vt 0.562500000 0.500000000
vt 0.062500000 0.500000000
vt 0.062500000 0.500000000
vt 0.062500000 0.500000000
vt 0.062500000 0.500000000
vt 0.062500000 0.500000000
vt 0.062500000 0.500000000
vt 0.312500000 0.500000000
vt 0.312500000 0.500000000
vt 0.312500000 0.500000000
vt 0.312500000 0.500000000
vt 0.312500000 0.500000000
vt 0.312500000 0.500000000
vt 0.187500000 0.500000000
vt 0.187500000 0.500000000
vt 0.187500000 0.500000000
vt 0.187500000 0.500000000
vt 0.187500000 0.500000000
vt 0.187500000 0.500000000
vt 0.312500000 0.500000000
vt 0.312500000 0.500000000
vt 0.312500000 0.500000000
vt 0.312500000 0.500000000
vt 0.312500000 0.500000000
vt 0.312500000 0.500000000
vt 0.062500000 0.500000000
vt 0.062500000 0.500000000
vt 0.062500000 0.500000000
vt 0.062500000 0.500000000
vt 0.062500000 0.500000000
vt 0.062500000 0.500000000
vt 0.437500000 0.500000000
vt 0.437500000 0.500000000
vt 0.437500000 0.500000000
vt 0.437500000 0.500000000
vt 0.437500000 0.500000000
vt 0.437500000 0.500000000
vt 0.062500000 0.500000000
vt 0.062500000 0.500000000
vt 0.062500000 0.500000000
vt 0.062500000 0.500000000
vt 0.062500000 0.500000000
vt 0.062500000 0.500000000
vt 0.312500000 0.500000000
vt 0.312500000 0.500000000
vt 0.312500000 0.500000000
vt 0.312500000 0.500000000
vt 0.312500000 0.500000000
vt 0.312500000 0.500000000
vt 0.062500000 0.500000000
vt 0.062500000 0.500000000
vt 0.062500000 0.500000000
vt 0.062500000 0.500000000
vt 0.062500000 0.500000000
vt 0.062500000 0.500000000
vt 0.312500000 0.500000000
vt 0.312500000 0.500000000
vt 0.312500000 0.500000000
vt 0.312500000 0.500000000
vt 0.312500000 0.500000000
vt 0.312500000 0.500000000
vt 0.187500000 0.500000000
vt 0.187500000 0.500000000
vt 0.187500000 0.500000000
vt 0.187500000 0.500000000
vt 0.187500000 0.500000000
vt 0.187500000 0.500000000
vt 0.312500000 0.500000000
vt 0.312500000 0.500000000
vt 0.312500000 0.500000000
vt 0.312500000 0.500000000
vt 0.312500000 0.500000000
vt 0.312500000 0.500000000
vt 0.062500000 0.500000000
vt 0.062500000 0.500000000
vt 0.062500000 0.500000000
vt 0.062500000 0.500000000
vt 0.062500000 0.500000000
vt 0.062500000 0.500000000
vt 0.437500000 0.500000000
vt 0.437500000 0.500000000
vt 0.437500000 0.500000000
vt 0.437500000 0.500000000
vt 0.437500000 0.500000000
vt 0.437500000 0.500000000
vt 0.062500000 0.500000000
vt 0.062500000 0.500000000
vt 0.062500000 0.500000000
vt 0.062500000 0.500000000
vt 0.062500000 0.500000000
vt 0.062500000 0.500000000
vt 0.312500000 0.500000000
vt 0.312500000 0.500000000
vt 0.312500000 0.500000000
vt 0.312500000 0.500000000
vt 0.312500000 0.500000000
vt 0.312500000 0.500000000
vt 0.062500000 0.500000000
vt 0.062500000 0.500000000
vt 0.062500000 0.500000000
vt 0.062500000 0.500000000
vt 0.062500000 0.500000000
vt 0.062500000 0.500000000
vt 0.312500000 0.500000000
vt 0.312500000 0.500000000
vt 0.312500000 0.500000000
vt 0.312500000 0.500000000
vt 0.312500000 0.500000000
vt 0.312500000 0.500000000
vt 0.187500000 0.500000000
vt 0.187500000 0.500000000
vt 0.187500000 0.500000000
vt 0.187500000 0.500000000
vt 0.187500000 0.500000000
vt 0.187500000 0.500000000
vt 0.312500000 0.500000000
vt 0.312500000 0.500000000
vt 0.312500000 0.500000000
vt 0.312500000 0.500000000
vt 0.312500000 0.500000000
vt 0.312500000 0.500000000
vt 0.062500000 0.500000000
vt 0.062500000 0.500000000
vt 0.062500000 0.500000000
vt 0.062500000 0.500000000
vt 0.062500000 0.500000000
vt 0.062500000 0.500000000
vt 0.437500000 0.500000000
vt 0.437500000 0.500000000
vt 0.437500000 0.500000000
vt 0.437500000 0.500000000
vt 0.437500000 0.500000000
vt 0.437500000 0.500000000
vt 0.062500000 0.500000000
vt 0.062500000 0.500000000
vt 0.062500000 0.500000000
vt 0.062500000 0.500000000
vt 0.062500000 0.500000000
vt 0.062500000 0.500000000
vt 0.312500000 0.500000000
vt 0.312500000 0.500000000
vt 0.312500000 0.500000000
vt 0.312500000 0.500000000
vt 0.312500000 0.500000000
vt 0.312500000 0.500000000
vt 0.812500000 0.500000000
vt 0.812500000 0.500000000
vt 0.812500000 0.500000000
vt 0.812500000 0.500000000
vt 0.812500000 0.500000000
vt 0.812500000 0.500000000
vt 0.812500000 0.500000000
vt 0.812500000 0.500000000
vt 0.812500000 0.500000000
vt 0.812500000 0.500000000
vt 0.812500000 0.500000000
vt 0.812500000 0.500000000
vt 0.812500000 0.500000000
vt 0.812500000 0.500000000
vt 0.812500000 0.500000000
vt 0.812500000 0.500000000
vt 0.812500000 0.500000000
vt 0.812500000 0.500000000
vt 0.812500000 0.500000000
vt 0.812500000 0.500000000
vt 0.812500000 0.500000000
vt 0.812500000 0.500000000
vt 0.812500000 0.500000000
vt 0.812500000 0.500000000
vt 0.937500000 0.500000000
vt 0.937500000 0.500000000
vt 0.937500000 0.500000000
vt 0.562500000 0.500000000
vt 0.562500000 0.500000000
vt 0.562500000 0.500000000
vt 0.937500000 0.500000000
vt 0.937500000 0.500000000
vt 0.937500000 0.500000000
vt 0.562500000 0.500000000
vt 0.562500000 0.500000000
vt 0.562500000 0.500000000
vt 0.937500000 0.500000000
vt 0.937500000 0.500000000
vt 0.937500000 0.500000000
vt 0.562500000 0.500000000
vt 0.562500000 0.500000000
vt 0.562500000 0.500000000
vt 0.937500000 0.500000000
vt 0.937500000 0.500000000
vt 0.937500000 0.500000000
vt 0.562500000 0.500000000
vt 0.562500000 0.500000000
vt 0.562500000 0.500000000
vn 0.840434205 -0.277169997 -0.465668488
vn 0.840434205 -0.277169997 -0.465668488
vn 0.840434205 -0.277169997 -0.465668488
vn 0.840021100 -0.277764552 -0.466059444
vn 0.840021100 -0.277764552 -0.466059444
vn 0.840021100 -0.277764552 -0.466059444
vn 0.465837239 -0.275960136 -0.840738765
vn 0.465837239 -0.275960136 -0.840738765
vn 0.465837239 -0.275960136 -0.840738765
vn 0.464822036 -0.277098419 -0.840926240
vn 0.464822036 -0.277098419 -0.840926240
vn 0.464822036 -0.277098419 -0.840926240
vn -0.466005389 -0.274748845 -0.841042240
vn -0.466005389 -0.274748845 -0.841042240
vn -0.466005389 -0.274748845 -0.841042240
vn -0.466715163 -0.275815824 -0.840299106
vn -0.466715163 -0.275815824 -0.840299106
vn -0.466715163 -0.275815824 -0.840299106
vn -0.841209966 -0.274076900 -0.466098323
vn -0.841209966 -0.274076900 -0.466098323
vn -0.841209966 -0.274076900 -0.466098323
vn -0.841316336 -0.274704326 -0.465536633
vn -0.841316336 -0.274704326 -0.465536633
vn -0.841316336 -0.274704326 -0.465536633
vn -0.841043071 -0.274745520 0.466005849
vn -0.841043071 -0.274745520 0.466005849
vn -0.841043071 -0.274745520 0.466005849
vn -0.841452697 -0.274155984 0.465613419
vn -0.841452697 -0.274155984 0.465613419
vn -0.841452697 -0.274155984 0.465613419
vn -0.465837239 -0.275960136 0.840738765
vn -0.465837239 -0.275960136 0.840738765
vn -0.465837239 -0.275960136 0.840738765
vn -0.466849918 -0.274822801 0.840549571
vn -0.466849918 -0.274822801 0.840549571
vn -0.466849918 -0.274822801 0.840549571
vn 0.465668020 -0.277173346 0.840433359
vn 0.465668020 -0.277173346 0.840433359
vn 0.465668020 -0.277173346 0.840433359
vn 0.464963936 -0.276103343 0.841175060
vn 0.464963936 -0.276103343 0.841175060
vn 0.464963936 -0.276103343 0.841175060
vn 0.840263715 -0.277844775 0.465574023
vn 0.840263715 -0.277844775 0.465574023
vn 0.840263715 -0.277844775 0.465574023
vn 0.840161400 -0.277211307 0.466135939
vn 0.840161400 -0.277211307 0.466135939
vn 0.840161400 -0.277211307 0.466135939
vn 0.874662143 0.011163603 -0.484604488
vn 0.874662143 0.011163603 -0.484604488
vn 0.874662143 0.011163603 -0.484604488
vn 0.874666724 0.011165048 -0.484596186
vn 0.874666724 0.011165048 -0.484596186
vn 0.874666724 0.011165048 -0.484596186
vn 0.484659533 0.012928853 -0.874607330
vn 0.484659533 0.012928853 -0.874607330
vn 0.484659533 0.012928853 -0.874607330
vn 0.484674428 0.012931351 -0.874599039
vn 0.484674428 0.012931351 -0.874599039
vn 0.484674428 0.012931351 -0.874599039
vn -0.484533562 0.017319415 -0.874601204
vn -0.484533562 0.017319415 -0.874601204
vn -0.484533562 0.017319415 -0.874601204
vn -0.484518784 0.017321955 -0.874609340
vn -0.484518784 0.017321955 -0.874609340
vn -0.484518784 0.017321955 -0.874609340
vn -0.874528529 0.019085781 -0.484598375
vn -0.874528529 0.019085781 -0.484598375
vn -0.874528529 0.019085781 -0.484598375
vn -0.874523996 0.019087161 -0.484606501
vn -0.874523996 0.019087161 -0.484606501
vn -0.874523996 0.019087161 -0.484606501
vn -0.874528505 0.019087141 0.484598365
vn -0.874528505 0.019087141 0.484598365
vn -0.874528505 0.019087141 0.484598365
vn -0.874524023 0.019085683 0.484606511
vn -0.874524023 0.019085683 0.484606511
vn -0.874524023 0.019085683 0.484606511
vn -0.484533534 0.017321881 0.874601170
vn -0.484533534 0.017321881 0.874601170
vn -0.484533534 0.017321881 0.874601170
vn -0.484518818 0.017319275 0.874609375
vn -0.484518818 0.017319275 0.874609375
vn -0.484518818 0.017319275 0.874609375
vn 0.484659526 0.012931345 0.874607297
vn 0.484659526 0.012931345 0.874607297
vn 0.484659526 0.012931345 0.874607297
vn 0.484674434 0.012928642 0.874599076
vn 0.484674434 0.012928642 0.874599076
vn 0.484674434 0.012928642 0.874599076
vn 0.874662131 0.011164990 0.484604478
vn 0.874662131 0.011164990 0.484604478
vn 0.874662131 0.011164990 0.484604478
vn 0.874666737 0.011163541 0.484596197
vn 0.874666737 0.011163541 0.484596197
vn 0.874666737 0.011163541 0.484596197
vn 0.849893532 0.237892643 -0.470200037
vn 0.849893532 0.237892643 -0.470200037
vn 0.849893532 0.237892643 -0.470200037
vn 0.849944737 0.237940370 -0.470083317
vn 0.849944737 0.237940370 -0.470083317
vn 0.849944737 0.237940370 -0.470083317
vn 0.471385322 0.240781427 -0.848422173
vn 0.471385322 0.240781427 -0.848422173
vn 0.471385322 0.240781427 -0.848422173
vn 0.471577654 0.240852456 -0.848295120
vn 0.471577654 0.240852456 -0.848295120
vn 0.471577654 0.240852456 -0.848295120
vn -0.468504251 0.248037395 -0.847927601
vn -0.468504251 0.248037395 -0.847927601
vn -0.468504251 0.248037395 -0.847927601
vn -0.468290915 0.248123351 -0.848020295
vn -0.468290915 0.248123351 -0.848020295
vn -0.468290915 0.248123351 -0.848020295
vn -0.846403143 0.250945460 -0.469710651
vn -0.846403143 0.250945460 -0.469710651
vn -0.846403143 0.250945460 -0.469710651
vn -0.846331715 0.250985438 -0.469817983
vn -0.846331715 0.250985438 -0.469817983
vn -0.846331715 0.250985438 -0.469817983
vn -0.846395902 0.250977213 0.469706733
vn -0.846395902 0.250977213 0.469706733
vn -0.846395902 0.250977213 0.469706733
vn -0.846344791 0.250928159 0.469825025
vn -0.846344791 0.250928159 0.469825025
vn -0.846344791 0.250928159 0.469825025
vn -0.468496916 0.248094614 0.847914914
vn -0.468496916 0.248094614 0.847914914
vn -0.468496916 0.248094614 0.847914914
vn -0.468304233 0.248020128 0.848043137
vn -0.468304233 0.248020128 0.848043137
vn -0.468304233 0.248020128 0.848043137
vn 0.471378703 0.240838396 0.848409680
vn 0.471378703 0.240838396 0.848409680
vn 0.471378703 0.240838396 0.848409680
vn 0.471589507 0.240749697 0.848317700
vn 0.471589507 0.240749697 0.848317700
vn 0.471589507 0.240749697 0.848317700
vn 0.849886820 0.237924156 0.470196225
vn 0.849886820 0.237924156 0.470196225
vn 0.849886820 0.237924156 0.470196225
vn 0.849956832 0.237883520 0.470090220
vn 0.849956832 0.237883520 0.470090220
vn 0.849956832 0.237883520 0.470090220
vn 0.000000000 -1.000000000 -0.000000000
vn 0.000000000 -1.000000000 -0.000000000
vn 0.000000000 -1.000000000 -0.000000000
vn -0.000000000 -1.000000000 -0.000000000
vn -0.000000000 -1.000000000 -0.000000000
vn -0.000000000 -1.000000000 -0.000000000
vn -0.000000000 -1.000000000 -0.000000000
vn -0.000000000 -1.000000000 -0.000000000
vn -0.000000000 -1.000000000 -0.000000000
vn -0.000000000 -1.000000000 -0.000000000
vn -0.000000000 -1.000000000 -0.000000000
vn -0.000000000 -1.000000000 -0.000000000
vn -0.000000000 -1.000000000 -0.000000000
vn -0.000000000 -1.000000000 -0.000000000
vn -0.000000000 -1.000000000 -0.000000000
vn -0.000000000 -1.000000000 -0.000000000
vn -0.000000000 -1.000000000 -0.000000000
vn -0.000000000 -1.000000000 -0.000000000
vn -0.000000000 -1.000000000 0.000000000
vn -0.000000000 -1.000000000 0.000000000
vn -0.000000000 -1.000000000 0.000000000
vn -0.000000000 -1.000000000 -0.000000000
vn -0.000000000 -1.000000000 -0.000000000
vn -0.000000000 -1.000000000 -0.000000000
vn 0.532616348 0.794285271 -0.292285364
vn 0.532616348 0.794285271 -0.292285364
vn 0.532616348 0.794285271 -0.292285364
vn 0.297740943 0.795241464 -0.528148980
vn 0.297740943 0.795241464 -0.528148980
vn 0.297740943 0.795241464 -0.528148980
vn -0.288407324 0.797624831 -0.529731861
vn -0.288407324 0.797624831 -0.529731861
vn -0.288407324 0.797624831 -0.529731861
vn -0.525262460 0.798586753 -0.293868247
vn -0.525262460 0.798586753 -0.293868247
vn -0.525262460 0.798586753 -0.293868247
vn -0.525262460 0.798586753 0.293868247
vn -0.525262460 0.798586753 0.293868247
vn -0.525262460 0.798586753 0.293868247
vn -0.288407324 0.797624831 0.529731861
vn -0.288407324 0.797624831 0.529731861
vn -0.288407324 0.797624831 0.529731861
vn 0.297740943 0.795241464 0.528148980
vn 0.297740943 0.795241464 0.528148980
vn 0.297740943 0.795241464 0.528148980
vn 0.532616348 0.794285271 0.292285364
vn 0.532616348 0.794285271 0.292285364
vn 0.532616348 0.794285271 0.292285364
vn 0.848093291 -0.244786140 -0.469912241
vn 0.848093291 -0.244786140 -0.469912241
vn 0.848093291 -0.244786140 -0.469912241
vn 0.850191800 -0.241842566 -0.467638832
vn 0.850191800 -0.241842566 -0.467638832
vn 0.850191800 -0.241842566 -0.467638832
vn 0.469138996 -0.251020978 -0.846697745
vn 0.469138996 -0.251020978 -0.846697745
vn 0.469138996 -0.251020978 -0.846697745
vn 0.474569178 -0.245260153 -0.845358830
vn 0.474569178 -0.245260153 -0.845358830
vn 0.474569178 -0.245260153 -0.845358830
vn -0.468358314 -0.257152432 -0.845288777
vn -0.468358314 -0.257152432 -0.845288777
vn -0.468358314 -0.257152432 -0.845288777
vn -0.464415920 -0.251729558 -0.849087795
vn -0.464415920 -0.251729558 -0.849087795
vn -0.464415920 -0.251729558 -0.849087795
vn -0.844504867 -0.260497010 -0.467923964
vn -0.844504867 -0.260497010 -0.467923964
vn -0.844504867 -0.260497010 -0.467923964
vn -0.843837713 -0.257245858 -0.470916641
vn -0.843837713 -0.257245858 -0.470916641
vn -0.843837713 -0.257245858 -0.470916641
vn -0.845315711 -0.257036689 0.468373237
vn -0.845315711 -0.257036689 0.468373237
vn -0.845315711 -0.257036689 0.468373237
vn -0.843157074 -0.260081268 0.470578243
vn -0.843157074 -0.260081268 0.470578243
vn -0.843157074 -0.260081268 0.470578243
vn -0.469138996 -0.251020978 0.846697745
vn -0.469138996 -0.251020978 0.846697745
vn -0.469138996 -0.251020978 0.846697745
vn -0.463679187 -0.256764974 0.847981934
vn -0.463679187 -0.256764974 0.847981934
vn -0.463679187 -0.256764974 0.847981934
vn 0.469898662 -0.244897092 0.848068784
vn 0.469898662 -0.244897092 0.848068784
vn 0.469898662 -0.244897092 0.848068784
vn 0.474041408 -0.250275756 0.844184097
vn 0.474041408 -0.250275756 0.844184097
vn 0.474041408 -0.250275756 0.844184097
vn 0.848823934 -0.241453468 0.470317076
vn 0.848823934 -0.241453468 0.470317076
vn 0.848823934 -0.241453468 0.470317076
vn 0.849607636 -0.244577452 0.467278007
vn 0.849607636 -0.244577452 0.467278007
vn 0.849607636 -0.244577452 0.467278007
vn 0.873654108 0.044247570 -0.484531374
vn 0.873654108 0.044247570 -0.484531374
vn 0.873654108 0.044247570 -0.484531374
vn 0.873615384 0.044230494 -0.484602749
vn 0.873615384 0.044230494 -0.484602749
vn 0.873615384 0.044230494 -0.484602749
vn 0.483880829 0.033093853 -0.874507942
vn 0.483880829 0.033093853 -0.874507942
vn 0.483880829 0.033093853 -0.874507942
vn 0.483752308 0.033061831 -0.874580254
vn 0.483752308 0.033061831 -0.874580254
vn 0.483752308 0.033061831 -0.874580254
vn -0.484862382 0.005332391 -0.874574203
vn -0.484862382 0.005332391 -0.874574203
vn -0.484862382 0.005332391 -0.874574203
vn -0.484993970 0.005298900 -0.874501441
vn -0.484993970 0.005298900 -0.874501441
vn -0.484993970 0.005298900 -0.874501441
vn -0.874717833 -0.005835242 -0.484597423
vn -0.874717833 -0.005835242 -0.484597423
vn -0.874717833 -0.005835242 -0.484597423
vn -0.874758559 -0.005852599 -0.484523695
vn -0.874758559 -0.005852599 -0.484523695
vn -0.874758559 -0.005852599 -0.484523695
vn -0.874717662 -0.005850960 0.484597542
vn -0.874717662 -0.005850960 0.484597542
vn -0.874717662 -0.005850960 0.484597542
vn -0.874758780 -0.005835515 0.484523501
vn -0.874758780 -0.005835515 0.484523501
vn -0.874758780 -0.005835515 0.484523501
vn -0.484861926 0.005304296 0.874574626
vn -0.484861926 0.005304296 0.874574626
vn -0.484861926 0.005304296 0.874574626
vn -0.484994674 0.005329431 0.874500865
vn -0.484994674 0.005329431 0.874500865
vn -0.484994674 0.005329431 0.874500865
vn 0.483881787 0.033066361 0.874508452
vn 0.483881787 0.033066361 0.874508452
vn 0.483881787 0.033066361 0.874508452
vn 0.483751062 0.033091709 0.874579813
vn 0.483751062 0.033091709 0.874579813
vn 0.483751062 0.033091709 0.874579813
vn 0.873654779 0.044232489 0.484531541
vn 0.873654779 0.044232489 0.484531541
vn 0.873654779 0.044232489 0.484531541
vn 0.873614620 0.044246885 0.484602630
vn 0.873614620 0.044246885 0.484602630
vn 0.873614620 0.044246885 0.484602630
vn 0.821626483 0.334988316 -0.461207926
vn 0.821626483 0.334988316 -0.461207926
vn 0.821626483 0.334988316 -0.461207926
vn 0.821333565 0.334586995 -0.462020257
vn 0.821333565 0.334586995 -0.462020257
vn 0.821333565 0.334586995 -0.462020257
vn 0.451536440 0.317931354 -0.833687290
vn 0.451536440 0.317931354 -0.833687290
vn 0.451536440 0.317931354 -0.833687290
vn 0.450308563 0.317295952 -0.834593001
vn 0.450308563 0.317295952 -0.834593001
vn 0.450308563 0.317295952 -0.834593001
vn -0.473251335 0.274567511 -0.837045910
vn -0.473251335 0.274567511 -0.837045910
vn -0.473251335 0.274567511 -0.837045910
vn -0.474624148 0.273828339 -0.836510585
vn -0.474624148 0.273828339 -0.836510585
vn -0.474624148 0.273828339 -0.836510585
vn -0.847434200 0.257064597 -0.464513799
vn -0.847434200 0.257064597 -0.464513799
vn -0.847434200 0.257064597 -0.464513799
vn -0.847897900 0.256734511 -0.463849697
vn -0.847897900 0.256734511 -0.463849697
vn -0.847897900 0.256734511 -0.463849697
vn -0.847489129 0.256820238 0.464548751
vn -0.847489129 0.256820238 0.464548751
vn -0.847489129 0.256820238 0.464548751
vn -0.847799381 0.257175373 0.463785551
vn -0.847799381 0.257175373 0.463785551
vn -0.847799381 0.257175373 0.463785551
vn -0.473301337 0.274124316 0.837162890
vn -0.473301337 0.274124316 0.837162890
vn -0.473301337 0.274124316 0.837162890
vn -0.474537560 0.274627328 0.836297755
vn -0.474537560 0.274627328 0.836297755
vn -0.474537560 0.274627328 0.836297755
vn 0.451620949 0.317482409 0.833812592
vn 0.451620949 0.317482409 0.833812592
vn 0.451620949 0.317482409 0.833812592
vn 0.450152426 0.318105900 0.834368881
vn 0.450152426 0.318105900 0.834368881
vn 0.450152426 0.318105900 0.834368881
vn 0.821706059 0.334738738 0.461247362
vn 0.821706059 0.334738738 0.461247362
vn 0.821706059 0.334738738 0.461247362
vn 0.821189443 0.335037090 0.461950266
vn 0.821189443 0.335037090 0.461950266
vn 0.821189443 0.335037090 0.461950266
vn 0.000000000 -1.000000000 -0.000000000
vn 0.000000000 -1.000000000 -0.000000000
vn 0.000000000 -1.000000000 -0.000000000
vn -0.000000000 -1.000000000 -0.000000000
vn -0.000000000 -1.000000000 -0.000000000
vn -0.000000000 -1.000000000 -0.000000000
vn -0.000000000 -1.000000000 -0.000000000
vn -0.000000000 -1.000000000 -0.000000000
vn -0.000000000 -1.000000000 -0.000000000
vn -0.000000000 -1.000000000 -0.000000000
vn -0.000000000 -1.000000000 -0.000000000
vn -0.000000000 -1.000000000 -0.000000000
vn -0.000000000 -1.000000000 -0.000000000
vn -0.000000000 -1.000000000 -0.000000000
vn -0.000000000 -1.000000000 -0.000000000
vn -0.000000000 -1.000000000 -0.000000000
vn -0.000000000 -1.000000000 -0.000000000
vn -0.000000000 -1.000000000 -0.000000000
vn -0.000000000 -1.000000000 0.000000000
vn -0.000000000 -1.000000000 0.000000000
vn -0.000000000 -1.000000000 0.000000000
vn -0.000000000 -1.000000000 -0.000000000
vn -0.000000000 -1.000000000 -0.000000000
vn -0.000000000 -1.000000000 -0.000000000
vn 0.432261764 0.864010266 -0.258139551
vn 0.432261764 0.864010266 -0.258139551
vn 0.432261764 0.864010266 -0.258139551
vn 0.222809646 0.858067521 -0.462683467
vn 0.222809646 0.858067521 -0.462683467
vn 0.222809646 0.858067521 -0.462683467
vn -0.285413865 0.843581637 -0.454872451
vn -0.285413865 0.843581637 -0.454872451
vn -0.285413865 0.843581637 -0.454872451
vn -0.485096991 0.837864434 -0.250327985
vn -0.485096991 0.837864434 -0.250327985
vn -0.485096991 0.837864434 -0.250327985
vn -0.485096991 0.837864434 0.250327985
vn -0.485096991 0.837864434 0.250327985
vn -0.485096991 0.837864434 0.250327985
vn -0.285413865 0.843581637 0.454872451
vn -0.285413865 0.843581637 0.454872451
vn -0.285413865 0.843581637 0.454872451
vn 0.222809646 0.858067521 0.462683467
vn 0.222809646 0.858067521 0.462683467
vn 0.222809646 0.858067521 0.462683467
vn 0.432261764 0.864010266 0.258139551
vn 0.432261764 0.864010266 0.258139551
vn 0.432261764 0.864010266 0.258139551
vn 0.851075492 -0.230862113 -0.471564621
vn 0.851075492 -0.230862113 -0.471564621
vn 0.851075492 -0.230862113 -0.471564621
vn 0.849111166 -0.233539283 -0.473782262
vn 0.849111166 -0.233539283 -0.473782262
vn 0.849111166 -0.233539283 -0.473782262
vn 0.472165628 -0.225571813 -0.852160183
vn 0.472165628 -0.225571813 -0.852160183
vn 0.472165628 -0.225571813 -0.852160183
vn 0.466971324 -0.230646088 -0.853662793
vn 0.466971324 -0.230646088 -0.853662793
vn 0.466971324 -0.230646088 -0.853662793
vn -0.472771261 -0.220105135 -0.853253224
vn -0.472771261 -0.220105135 -0.853253224
vn -0.472771261 -0.220105135 -0.853253224
vn -0.476986654 -0.224906668 -0.849647411
vn -0.476986654 -0.224906668 -0.849647411
vn -0.476986654 -0.224906668 -0.849647411
vn -0.853862016 -0.216997531 -0.473108581
vn -0.853862016 -0.216997531 -0.473108581
vn -0.853862016 -0.216997531 -0.473108581
vn -0.854769076 -0.219797481 -0.470169006
vn -0.854769076 -0.219797481 -0.470169006
vn -0.854769076 -0.219797481 -0.470169006
vn -0.853277011 -0.219984578 0.472784441
vn -0.853277011 -0.219984578 0.472784441
vn -0.853277011 -0.219984578 0.472784441
vn -0.855233999 -0.217346202 0.470463001
vn -0.855233999 -0.217346202 0.470463001
vn -0.855233999 -0.217346202 0.470463001
vn -0.472165628 -0.225571813 0.852160183
vn -0.472165628 -0.225571813 0.852160183
vn -0.472165628 -0.225571813 0.852160183
vn -0.477390686 -0.220429102 0.850593407
vn -0.477390686 -0.220429102 0.850593407
vn -0.477390686 -0.220429102 0.850593407
vn 0.471550143 -0.230987979 0.851049362
vn 0.471550143 -0.230987979 0.851049362
vn 0.471550143 -0.230987979 0.851049362
vn 0.467569000 -0.226197912 0.854525444
vn 0.467569000 -0.226197912 0.854525444
vn 0.467569000 -0.226197912 0.854525444
vn 0.850439634 -0.233904664 0.471212305
vn 0.850439634 -0.233904664 0.471212305
vn 0.850439634 -0.233904664 0.471212305
vn 0.849647848 -0.231046150 0.474042414
vn 0.849647848 -0.231046150 0.474042414
vn 0.849647848 -0.231046150 0.474042414
vn 0.874718506 -0.006539577 -0.484587215
vn 0.874718506 -0.006539577 -0.484587215
vn 0.874718506 -0.006539577 -0.484587215
vn 0.874774631 -0.006515520 -0.484486215
vn 0.874774631 -0.006515520 -0.484486215
vn 0.874774631 -0.006515520 -0.484486215
vn 0.484907499 0.006122474 -0.874544014
vn 0.484907499 0.006122474 -0.874544014
vn 0.484907499 0.006122474 -0.874544014
vn 0.485090740 0.006162063 -0.874442110
vn 0.485090740 0.006162063 -0.874442110
vn 0.485090740 0.006162063 -0.874442110
vn -0.483672962 0.037648829 -0.874438695
vn -0.483672962 0.037648829 -0.874438695
vn -0.483672962 0.037648829 -0.874438695
vn -0.483486974 0.037689891 -0.874539775
vn -0.483486974 0.037689891 -0.874539775
vn -0.483486974 0.037689891 -0.874539775
vn -0.873352366 0.050325329 -0.484482205
vn -0.873352366 0.050325329 -0.484482205
vn -0.873352366 0.050325329 -0.484482205
vn -0.873294410 0.050348900 -0.484584215
vn -0.873294410 0.050348900 -0.484584215
vn -0.873294410 0.050348900 -0.484584215
vn -0.873351121 0.050350014 0.484481883
vn -0.873351121 0.050350014 0.484481883
vn -0.873351121 0.050350014 0.484481883
vn -0.873295832 0.050322071 0.484584440
vn -0.873295832 0.050322071 0.484584440
vn -0.873295832 0.050322071 0.484584440
vn -0.483671233 0.037693338 0.874437734
vn -0.483671233 0.037693338 0.874437734
vn -0.483671233 0.037693338 0.874437734
vn -0.483489258 0.037641521 0.874540596
vn -0.483489258 0.037641521 0.874540596
vn -0.483489258 0.037641521 0.874540596
vn 0.484908276 0.006166696 0.874543272
vn 0.484908276 0.006166696 0.874543272
vn 0.484908276 0.006166696 0.874543272
vn 0.485089493 0.006114012 0.874443138
vn 0.485089493 0.006114012 0.874443138
vn 0.485089493 0.006114012 0.874443138
vn 0.874718800 -0.006515105 0.484587014
vn 0.874718800 -0.006515105 0.484587014
vn 0.874718800 -0.006515105 0.484587014
vn 0.874774243 -0.006542119 0.484486557
vn 0.874774243 -0.006542119 0.484486557
vn 0.874774243 -0.006542119 0.484486557
vn 0.841780860 0.282214254 -0.460173988
vn 0.841780860 0.282214254 -0.460173988
vn 0.841780860 0.282214254 -0.460173988
vn 0.842091302 0.282624229 -0.459353660
vn 0.842091302 0.282624229 -0.459353660
vn 0.842091302 0.282624229 -0.459353660
vn 0.471107753 0.301033305 -0.829117865
vn 0.471107753 0.301033305 -0.829117865
vn 0.471107753 0.301033305 -0.829117865
vn 0.472402886 0.301612194 -0.828170030
vn 0.472402886 0.301612194 -0.828170030
vn 0.472402886 0.301612194 -0.828170030
vn -0.444473887 0.348192700 -0.825351323
vn -0.444473887 0.348192700 -0.825351323
vn -0.444473887 0.348192700 -0.825351323
vn -0.442894887 0.348906087 -0.825898699
vn -0.442894887 0.348906087 -0.825898699
vn -0.442894887 0.348906087 -0.825898699
vn -0.810548136 0.366942738 -0.456469875
vn -0.810548136 0.366942738 -0.456469875
vn -0.810548136 0.366942738 -0.456469875
vn -0.809981366 0.367283428 -0.457201344
vn -0.809981366 0.367283428 -0.457201344
vn -0.809981366 0.367283428 -0.457201344
vn -0.810447080 0.367228012 0.456419893
vn -0.810447080 0.367228012 0.456419893
vn -0.810447080 0.367228012 0.456419893
vn -0.810164285 0.366768965 0.457290234
vn -0.810164285 0.366768965 0.457290234
vn -0.810164285 0.366768965 0.457290234
vn -0.444366180 0.348707071 0.825192145
vn -0.444366180 0.348707071 0.825192145
vn -0.444366180 0.348707071 0.825192145
vn -0.443093274 0.347978103 0.826183751
vn -0.443093274 0.347978103 0.826183751
vn -0.443093274 0.347978103 0.826183751
vn 0.471044182 0.301543997 0.828968393
vn 0.471044182 0.301543997 0.828968393
vn 0.471044182 0.301543997 0.828968393
vn 0.472513542 0.300691545 0.828441638
vn 0.472513542 0.300691545 0.828441638
vn 0.472513542 0.300691545 0.828441638
vn 0.841710666 0.282496479 0.460129215
vn 0.841710666 0.282496479 0.460129215
vn 0.841710666 0.282496479 0.460129215
vn 0.842217302 0.282115050 0.459435648
vn 0.842217302 0.282115050 0.459435648
vn 0.842217302 0.282115050 0.459435648
vn 0.000000000 -1.000000000 -0.000000000
vn 0.000000000 -1.000000000 -0.000000000
vn 0.000000000 -1.000000000 -0.000000000
vn -0.000000000 -1.000000000 -0.000000000
vn -0.000000000 -1.000000000 -0.000000000
vn -0.000000000 -1.000000000 -0.000000000
vn -0.000000000 -1.000000000 -0.000000000
vn -0.000000000 -1.000000000 -0.000000000
vn -0.000000000 -1.000000000 -0.000000000
vn -0.000000000 -1.000000000 -0.000000000
vn -0.000000000 -1.000000000 -0.000000000
vn -0.000000000 -1.000000000 -0.000000000
vn -0.000000000 -1.000000000 -0.000000000
vn -0.000000000 -1.000000000 -0.000000000
vn -0.000000000 -1.000000000 -0.000000000
vn -0.000000000 -1.000000000 -0.000000000
vn -0.000000000 -1.000000000 -0.000000000
vn -0.000000000 -1.000000000 -0.000000000
vn -0.000000000 -1.000000000 0.000000000
vn -0.000000000 -1.000000000 0.000000000
vn -0.000000000 -1.000000000 0.000000000
vn -0.000000000 -1.000000000 -0.000000000
vn -0.000000000 -1.000000000 -0.000000000
vn -0.000000000 -1.000000000 -0.000000000
vn 0.455668974 0.859498032 -0.231579186
vn 0.455668974 0.859498032 -0.231579186
vn 0.455668974 0.859498032 -0.231579186
vn 0.271045483 0.865645781 -0.420941478
vn 0.271045483 0.865645781 -0.420941478
vn 0.271045483 0.865645781 -0.420941478
vn -0.199396237 0.881250973 -0.428529885
vn -0.199396237 0.881250973 -0.428529885
vn -0.199396237 0.881250973 -0.428529885
vn -0.393509338 0.887664865 -0.239168327
vn -0.393509338 0.887664865 -0.239168327
vn -0.393509338 0.887664865 -0.239168327
vn -0.393509338 0.887664865 0.239168327
vn -0.393509338 0.887664865 0.239168327
vn -0.393509338 0.887664865 0.239168327
vn -0.199396237 0.881250973 0.428529885
vn -0.199396237 0.881250973 0.428529885
vn -0.199396237 0.881250973 0.428529885
vn 0.271045483 0.865645781 0.420941478
vn 0.271045483 0.865645781 0.420941478
vn 0.271045483 0.865645781 0.420941478
vn 0.455668974 0.859498032 0.231579186
vn 0.455668974 0.859498032 0.231579186
vn 0.455668974 0.859498032 0.231579186
vn 0.854250583 -0.214989412 -0.473323879
vn 0.854250583 -0.214989412 -0.473323879
vn 0.854250583 -0.214989412 -0.473323879
vn 0.854972838 -0.214028681 -0.472454411
vn 0.854972838 -0.214028681 -0.472454411
vn 0.854972838 -0.214028681 -0.472454411
vn 0.473110236 -0.216982166 -0.853865003
vn 0.473110236 -0.216982166 -0.853865003
vn 0.473110236 -0.216982166 -0.853865003
vn 0.475054234 -0.215127159 -0.853254816
vn 0.475054234 -0.215127159 -0.853254816
vn 0.475054234 -0.215127159 -0.853254816
vn -0.472897586 -0.218946780 -0.853481213
vn -0.472897586 -0.218946780 -0.853481213
vn -0.472897586 -0.218946780 -0.853481213
vn -0.471361438 -0.217212913 -0.854773037
vn -0.471361438 -0.217212913 -0.854773037
vn -0.471361438 -0.217212913 -0.854773037
vn -0.853269629 -0.220021997 -0.472780351
vn -0.853269629 -0.220021997 -0.472780351
vn -0.853269629 -0.220021997 -0.472780351
vn -0.852942746 -0.218995243 -0.473845709
vn -0.852942746 -0.218995243 -0.473845709
vn -0.852942746 -0.218995243 -0.473845709
vn -0.853484800 -0.218928506 0.472899573
vn -0.853484800 -0.218928506 0.472899573
vn -0.853484800 -0.218928506 0.472899573
vn -0.852764166 -0.219891659 0.473751976
vn -0.852764166 -0.219891659 0.473751976
vn -0.852764166 -0.219891659 0.473751976
vn -0.473110236 -0.216982166 0.853865003
vn -0.473110236 -0.216982166 0.853865003
vn -0.473110236 -0.216982166 0.853865003
vn -0.471173969 -0.218824765 0.854465221
vn -0.471173969 -0.218824765 0.854465221
vn -0.471173969 -0.218824765 0.854465221
vn 0.473321961 -0.215007389 0.854247121
vn 0.473321961 -0.215007389 0.854247121
vn 0.473321961 -0.215007389 0.854247121
vn 0.474893716 -0.216745708 0.852934497
vn 0.474893716 -0.216745708 0.852934497
vn 0.474893716 -0.216745708 0.852934497
vn 0.854459752 -0.213900238 0.473439775
vn 0.854459752 -0.213900238 0.473439775
vn 0.854459752 -0.213900238 0.473439775
vn 0.854803438 -0.214922059 0.472355364
vn 0.854803438 -0.214922059 0.472355364
vn 0.854803438 -0.214922059 0.472355364
vn 0.873504899 0.049858643 -0.484255415
vn 0.873504899 0.049858643 -0.484255415
vn 0.873504899 0.049858643 -0.484255415
vn 0.873454330 0.049816712 -0.484350936
vn 0.873454330 0.049816712 -0.484350936
vn 0.873454330 0.049816712 -0.484350936
vn 0.483845976 0.044300573 -0.874031195
vn 0.483845976 0.044300573 -0.874031195
vn 0.483845976 0.044300573 -0.874031195
vn 0.483678802 0.044226290 -0.874127480
vn 0.483678802 0.044226290 -0.874127480
vn 0.483678802 0.044226290 -0.874127480
vn -0.484697341 0.030377856 -0.874154262
vn -0.484697341 0.030377856 -0.874154262
vn -0.484697341 0.030377856 -0.874154262
vn -0.484862973 0.030303331 -0.874064989
vn -0.484862973 0.030303331 -0.874064989
vn -0.484862973 0.030303331 -0.874064989
vn -0.874507997 0.024783516 -0.484377476
vn -0.874507997 0.024783516 -0.484377476
vn -0.874507997 0.024783516 -0.484377476
vn -0.874558988 0.024744164 -0.484287418
vn -0.874558988 0.024744164 -0.484287418
vn -0.874558988 0.024744164 -0.484287418
vn -0.874508718 0.024746002 0.484378094
vn -0.874508718 0.024746002 0.484378094
vn -0.874508718 0.024746002 0.484378094
vn -0.874558261 0.024784941 0.484286646
vn -0.874558261 0.024784941 0.484286646
vn -0.874558261 0.024784941 0.484286646
vn -0.484697797 0.030309619 0.874156378
vn -0.484697797 0.030309619 0.874156378
vn -0.484697797 0.030309619 0.874156378
vn -0.484862809 0.030377492 0.874062506
vn -0.484862809 0.030377492 0.874062506
vn -0.484862809 0.030377492 0.874062506
vn 0.483848035 0.044230801 0.874033590
vn 0.483848035 0.044230801 0.874033590
vn 0.483848035 0.044230801 0.874033590
vn 0.483676224 0.044302127 0.874125066
vn 0.483676224 0.044302127 0.874125066
vn 0.483676224 0.044302127 0.874125066
vn 0.873506695 0.049819699 0.484256184
vn 0.873506695 0.049819699 0.484256184
vn 0.873506695 0.049819699 0.484256184
vn 0.873452319 0.049859041 0.484350206
vn 0.873452319 0.049859041 0.484350206
vn 0.873452319 0.049859041 0.484350206
vn 0.762948024 0.485301118 -0.427075097
vn 0.762948024 0.485301118 -0.427075097
vn 0.762948024 0.485301118 -0.427075097
vn 0.762905947 0.485129130 -0.427345579
vn 0.762905947 0.485129130 -0.427345579
vn 0.762905947 0.485129130 -0.427345579
vn 0.419622128 0.478474956 -0.771348810
vn 0.419622128 0.478474956 -0.771348810
vn 0.419622128 0.478474956 -0.771348810
vn 0.419286391 0.478211064 -0.771694953
vn 0.419286391 0.478211064 -0.771694953
vn 0.419286391 0.478211064 -0.771694953
vn -0.435846459 0.461158440 -0.772897637
vn -0.435846459 0.461158440 -0.772897637
vn -0.435846459 0.461158440 -0.772897637
vn -0.436325064 0.460841267 -0.772816774
vn -0.436325064 0.460841267 -0.772816774
vn -0.436325064 0.460841267 -0.772816774
vn -0.781036901 0.454198689 -0.428584777
vn -0.781036901 0.454198689 -0.428584777
vn -0.781036901 0.454198689 -0.428584777
vn -0.781224195 0.454053134 -0.428397605
vn -0.781224195 0.454053134 -0.428397605
vn -0.781224195 0.454053134 -0.428397605
vn -0.781086513 0.454086464 0.428613279
vn -0.781086513 0.454086464 0.428613279
vn -0.781086513 0.454086464 0.428613279
vn -0.781134744 0.454255588 0.428346089
vn -0.781134744 0.454255588 0.428346089
vn -0.781134744 0.454255588 0.428346089
vn -0.435894801 0.460956500 0.772990832
vn -0.435894801 0.460956500 0.772990832
vn -0.435894801 0.460956500 0.772990832
vn -0.436238187 0.461205508 0.772648513
vn -0.436238187 0.461205508 0.772648513
vn -0.436238187 0.461205508 0.772648513
vn 0.419677601 0.478274414 0.771442996
vn 0.419677601 0.478274414 0.771442996
vn 0.419677601 0.478274414 0.771442996
vn 0.419185992 0.478572853 0.771525196
vn 0.419185992 0.478572853 0.771525196
vn 0.419185992 0.478572853 0.771525196
vn 0.763002224 0.485190351 0.427104120
vn 0.763002224 0.485190351 0.427104120
vn 0.763002224 0.485190351 0.427104120
vn 0.762808130 0.485328932 0.427293324
vn 0.762808130 0.485328932 0.427293324
vn 0.762808130 0.485328932 0.427293324
vn 0.000000000 -1.000000000 -0.000000000
vn 0.000000000 -1.000000000 -0.000000000
vn 0.000000000 -1.000000000 -0.000000000
vn -0.000000000 -1.000000000 -0.000000000
vn -0.000000000 -1.000000000 -0.000000000
vn -0.000000000 -1.000000000 -0.000000000
vn -0.000000000 -1.000000000 -0.000000000
vn -0.000000000 -1.000000000 -0.000000000
vn -0.000000000 -1.000000000 -0.000000000
vn -0.000000000 -1.000000000 -0.000000000
vn -0.000000000 -1.000000000 -0.000000000
vn -0.000000000 -1.000000000 -0.000000000
vn -0.000000000 -1.000000000 -0.000000000
vn -0.000000000 -1.000000000 -0.000000000
vn -0.000000000 -1.000000000 -0.000000000
vn -0.000000000 -1.000000000 -0.000000000
vn -0.000000000 -1.000000000 -0.000000000
vn -0.000000000 -1.000000000 -0.000000000
vn -0.000000000 -1.000000000 0.000000000
vn -0.000000000 -1.000000000 0.000000000
vn -0.000000000 -1.000000000 0.000000000
vn -0.000000000 -1.000000000 -0.000000000
vn -0.000000000 -1.000000000 -0.000000000
vn -0.000000000 -1.000000000 -0.000000000
vn 0.280910378 0.945482281 -0.164780508
vn 0.280910378 0.945482281 -0.164780508
vn 0.280910378 0.945482281 -0.164780508
vn 0.147953646 0.943425030 -0.296747252
vn 0.147953646 0.943425030 -0.296747252
vn 0.147953646 0.943425030 -0.296747252
vn -0.179966921 0.938348598 -0.295150498
vn -0.179966921 0.938348598 -0.295150498
vn -0.179966921 0.938348598 -0.295150498
vn -0.310926740 0.936320261 -0.163183733
vn -0.310926740 0.936320261 -0.163183733
vn -0.310926740 0.936320261 -0.163183733
vn -0.310926740 0.936320261 0.163183733
vn -0.310926740 0.936320261 0.163183733
vn -0.310926740 0.936320261 0.163183733
vn -0.179966921 0.938348598 0.295150498
vn -0.179966921 0.938348598 0.295150498
vn -0.179966921 0.938348598 0.295150498
vn 0.147953646 0.943425030 0.296747252
vn 0.147953646 0.943425030 0.296747252
vn 0.147953646 0.943425030 0.296747252
vn 0.280910378 0.945482281 0.164780508
vn 0.280910378 0.945482281 0.164780508
vn 0.280910378 0.945482281 0.164780508
o stem_0
f 1/1/1 2/2/2 3/3/3
f 4/4/4 5/5/5 6/6/6
f 7/7/7 8/8/8 9/9/9
f 10/10/10 11/11/11 12/12/12
f 13/13/13 14/14/14 15/15/15
f 16/16/16 17/17/17 18/18/18
f 19/19/19 20/20/20 21/21/21
f 22/22/22 23/23/23 24/24/24
f 25/25/25 26/26/26 27/27/27
f 28/28/28 29/29/29 30/30/30
f 31/31/31 32/32/32 33/33/33
f 34/34/34 35/35/35 36/36/36
f 37/37/37 38/38/38 39/39/39
f 40/40/40 41/41/41 42/42/42
f 43/43/43 44/44/44 45/45/45
f 46/46/46 47/47/47 48/48/48
f 49/49/49 50/50/50 51/51/51
f 52/52/52 53/53/53 54/54/54
f 55/55/55 56/56/56 57/57/57
f 58/58/58 59/59/59 60/60/60
f 61/61/61 62/62/62 63/63/63
f 64/64/64 65/65/65 66/66/66
f 67/67/67 68/68/68 69/69/69
f 70/70/70 71/71/71 72/72/72
f 73/73/73 74/74/74 75/75/75
f 76/76/76 77/77/77 78/78/78
f 79/79/79 80/80/80 81/81/81
f 82/82/82 83/83/83 84/84/84
f 85/85/85 86/86/86 87/87/87
f 88/88/88 89/89/89 90/90/90
f 91/91/91 92/92/92 93/93/93
f 94/94/94 95/95/95 96/96/96
f 97/97/97 98/98/98 99/99/99
f 100/100/100 101/101/101 102/102/102
f 103/103/103 104/104/104 105/105/105
f 106/106/106 107/107/107 108/108/108
f 109/109/109 110/110/110 111/111/111
f 112/112/112 113/113/113 114/114/114
f 115/115/115 116/116/116 117/117/117
f 118/118/118 119/119/119 120/120/120
f 121/121/121 122/122/122 123/123/123
f 124/124/124 125/125/125 126/126/126
f 127/127/127 128/128/128 129/129/129
f 130/130/130 131/131/131 132/132/132
f 133/133/133 134/134/134 135/135/135
f 136/136/136 137/137/137 138/138/138
f 139/139/139 140/140/140 141/141/141
f 142/142/142 143/143/143 144/144/144
f 145/145/145 146/146/146 147/147/147
f 148/148/148 149/149/149 150/150/150
f 151/151/151 152/152/152 153/153/153
f 154/154/154 155/155/155 156/156/156
f 157/157/157 158/158/158 159/159/159
f 160/160/160 161/161/161 162/162/162
f 163/163/163 164/164/164 165/165/165
f 166/166/166 167/167/167 168/168/168
f 169/169/169 170/170/170 171/171/171
f 172/172/172 173/173/173 174/174/174
f 175/175/175 176/176/176 177/177/177
f 178/178/178 179/179/179 180/180/180
f 181/181/181 182/182/182 183/183/183
f 184/184/184 185/185/185 186/186/186
f 187/187/187 188/188/188 189/189/189
f 190/190/190 191/191/191 192/192/192
o stem_1
f 193/193/193 194/194/194 195/195/195
f 196/196/196 197/197/197 198/198/198
f 199/199/199 200/200/200 201/201/201
f 202/202/202 203/203/203 204/204/204
f 205/205/205 206/206/206 207/207/207
f 208/208/208 209/209/209 210/210/210
f 211/211/211 212/212/212 213/213/213
f 214/214/214 215/215/215 216/216/216
f 217/217/217 218/218/218 219/219/219
f 220/220/220 221/221/221 222/222/222
f 223/223/223 224/224/224 225/225/225
f 226/226/226 227/227/227 228/228/228
f 229/229/229 230/230/230 231/231/231
f 232/232/232 233/233/233 234/234/234
f 235/235/235 236/236/236 237/237/237
f 238/238/238 239/239/239 240/240/240
f 241/241/241 242/242/242 243/243/243
f 244/244/244 245/245/245 246/246/246
f 247/247/247 248/248/248 249/249/249
f 250/250/250 251/251/251 252/252/252
f 253/253/253 254/254/254 255/255/255
f 256/256/256 257/257/257 258/258/258
f 259/259/259 260/260/260 261/261/261
f 262/262/262 263/263/263 264/264/264
f 265/265/265 266/266/266 267/267/267
f 268/268/268 269/269/269 270/270/270
f 271/271/271 272/272/272 273/273/273
f 274/274/274 275/275/275 276/276/276
f 277/277/277 278/278/278 279/279/279
f 280/280/280 281/281/281 282/282/282
f 283/283/283 284/284/284 285/285/285
f 286/286/286 287/287/287 288/288/288
f 289/289/289 290/290/290 291/291/291
f 292/292/292 293/293/293 294/294/294
f 295/295/295 296/296/296 297/297/297
f 298/298/298 299/299/299 300/300/300
f 301/301/301 302/302/302 303/303/303
f 304/304/304 305/305/305 306/306/306
f 307/307/307 308/308/308 309/309/309
f 310/310/310 311/311/311 312/312/312
f 313/313/313 314/314/314 315/315/315
f 316/316/316 317/317/317 318/318/318
f 319/319/319 320/320/320 321/321/321
f 322/322/322 323/323/323 324/324/324
f 325/325/325 326/326/326 327/327/327
f 328/328/328 329/329/329 330/330/330
f 331/331/331 332/332/332 333/333/333
f 334/334/334 335/335/335 336/336/336
f 337/337/337 338/338/338 339/339/339
f 340/340/340 341/341/341 342/342/342
f 343/343/343 344/344/344 345/345/345
f 346/346/346 347/347/347 348/348/348
f 349/349/349 350/350/350 351/351/351
f 352/352/352 353/353/353 354/354/354
f 355/355/355 356/356/356 357/357/357
f 358/358/358 359/359/359 360/360/360
f 361/361/361 362/362/362 363/363/363
f 364/364/364 365/365/365 366/366/366
f 367/367/367 368/368/368 369/369/369
f 370/370/370 371/371/371 372/372/372
f 373/373/373 374/374/374 375/375/375
f 376/376/376 377/377/377 378/378/378
f 379/379/379 380/380/380 381/381/381
f 382/382/382 383/383/383 384/384/384
o stem_2
f 385/385/385 386/386/386 387/387/387
f 388/388/388 389/389/389 390/390/390
f 391/391/391 392/392/392 393/393/393
f 394/394/394 395/395/395 396/396/396
f 397/397/397 398/398/398 399/399/399
f 400/400/400 401/401/401 402/402/402
f 403/403/403 404/404/404 405/405/405
f 406/406/406 407/407/407 408/408/408
f 409/409/409 410/410/410 411/411/411
f 412/412/412 413/413/413 414/414/414
f 415/415/415 416/416/416 417/417/417
f 418/418/418 419/419/419 420/420/420
f 421/421/421 422/422/422 423/423/423
f 424/424/424 425/425/425 426/426/426
f 427/427/427 428/428/428 429/429/429
f 430/430/430 431/431/431 432/432/432
f 433/433/433 434/434/434 435/435/435
f 436/436/436 437/437/437 438/438/438
f 439/439/439 440/440/440 441/441/441
f 442/442/442 443/443/443 444/444/444
f 445/445/445 446/446/446 447/447/447
f 448/448/448 449/449/449 450/450/450
f 451/451/451 452/452/452 453/453/453
f 454/454/454 455/455/455 456/456/456
f 457/457/457 458/458/458 459/459/459
f 460/460/460 461/461/461 462/462/462
f 463/463/463 464/464/464 465/465/465
f 466/466/466 467/467/467 468/468/468
f 469/469/469 470/470/470 471/471/471
f 472/472/472 473/473/473 474/474/474
f 475/475/475 476/476/476 477/477/477
f 478/478/478 479/479/479 480/480/480
f 481/481/481 482/482/482 483/483/483
f 484/484/484 485/485/485 486/486/486
f 487/487/487 488/488/488 489/489/489
f 490/490/490 491/491/491 492/492/492
f 493/493/493 494/494/494 495/495/495
f 496/496/496 497/497/497 498/498/498
f 499/499/499 500/500/500 501/501/501
f 502/502/502 503/503/503 504/504/504
f 505/505/505 506/506/506 507/507/507
f 508/508/508 509/509/509 510/510/510
f 511/511/511 512/512/512 513/513/513
f 514/514/514 515/515/515 516/516/516
f 517/517/517 518/518/518 519/519/519
f 520/520/520 521/521/521 522/522/522
f 523/523/523 524/524/524 525/525/525
f 526/526/526 527/527/527 528/528/528
f 529/529/529 530/530/530 531/531/531
f 532/532/532 533/533/533 534/534/534
f 535/535/535 536/536/536 537/537/537
f 538/538/538 539/539/539 540/540/540
f 541/541/541 542/542/542 543/543/543
f 544/544/544 545/545/545 546/546/546
f 547/547/547 548/548/548 549/549/549
f 550/550/550 551/551/551 552/552/552
f 553/553/553 554/554/554 555/555/555
f 556/556/556 557/557/557 558/558/558
f 559/559/559 560/560/560 561/561/561
f 562/562/562 563/563/563 564/564/564
f 565/565/565 566/566/566 567/567/567
f 568/568/568 569/569/569 570/570/570
f 571/571/571 572/572/572 573/573/573
f 574/574/574 575/575/575 576/576/576
o stem_3
f 577/577/577 578/578/578 579/579/579
f 580/580/580 581/581/581 582/582/582
f 583/583/583 584/584/584 585/585/585
f 586/586/586 587/587/587 588/588/588
f 589/589/589 590/590/590 591/591/591
f 592/592/592 593/593/593 594/594/594
f 595/595/595 596/596/596 597/597/597
f 598/598/598 599/599/599 600/600/600
f 601/601/601 602/602/602 603/603/603
f 604/604/604 605/605/605 606/606/606
f 607/607/607 608/608/608 609/609/609
f 610/610/610 611/611/611 612/612/612
f 613/613/613 614/614/614 615/615/615
f 616/616/616 617/617/617 618/618/618
f 619/619/619 620/620/620 621/621/621
f 622/622/622 623/623/623 624/624/624
f 625/625/625 626/626/626 627/627/627
f 628/628/628 629/629/629 630/630/630
f 631/631/631 632/632/632 633/633/633
f 634/634/634 635/635/635 636/636/636
f 637/637/637 638/638/638 639/639/639
f 640/640/640 641/641/641 642/642/642
f 643/643/643 644/644/644 645/645/645
f 646/646/646 647/647/647 648/648/648
f 649/649/649 650/650/650 651/651/651
f 652/652/652 653/653/653 654/654/654
f 655/655/655 656/656/656 657/657/657
f 658/658/658 659/659/659 660/660/660
f 661/661/661 662/662/662 663/663/663
f 664/664/664 665/665/665 666/666/666
f 667/667/667 668/668/668 669/669/669
f 670/670/670 671/671/671 672/672/672
f 673/673/673 674/674/674 675/675/675
f 676/676/676 677/677/677 678/678/678
f 679/679/679 680/680/680 681/681/681
f 682/682/682 683/683/683 684/684/684
f 685/685/685 686/686/686 687/687/687
f 688/688/688 689/689/689 690/690/690
f 691/691/691 692/692/692 693/693/693
f 694/694/694 695/695/695 696/696/696
f 697/697/697 698/698/698 699/699/699
f 700/700/700 701/701/701 702/702/702
f 703/703/703 704/704/704 705/705/705
f 706/706/706 707/707/707 708/708/708
f 709/709/709 710/710/710 711/711/711
f 712/712/712 713/713/713 714/714/714
f 715/715/715 716/716/716 717/717/717
f 718/718/718 719/719/719 720/720/720
f 721/721/721 722/722/722 723/723/723
f 724/724/724 725/725/725 726/726/726
f 727/727/727 728/728/728 729/729/729
f 730/730/730 731/731/731 732/732/732
f 733/733/733 734/734/734 735/735/735
f 736/736/736 737/737/737 738/738/738
f 739/739/739 740/740/740 741/741/741
f 742/742/742 743/743/743 744/744/744
f 745/745/745 746/746/746 747/747/747
f 748/748/748 749/749/749 750/750/750
f 751/751/751 752/752/752 753/753/753
f 754/754/754 755/755/755 756/756/756
f 757/757/757 758/758/758 759/759/759
f 760/760/760 761/761/761 762/762/762
f 763/763/763 764/764/764 765/765/765
f 766/766/766 767/767/767 768/768/768
