# Spike-free cactus model. Native +Y up, metre scale; ground datum Y=0.
# Slight buried root skirt; no auto recentre / rescale.
s off
v 0.310000000 -0.040000000 0.000000000
v 0.244305766 -0.040000000 -0.141050000
v 0.369784579 0.078456082 -0.213828236
v 0.310000000 -0.040000000 0.000000000
v 0.369784579 0.078456082 -0.213828236
v 0.469413599 0.076529320 0.000000000
v 0.244305766 -0.040000000 -0.141050000
v 0.155000000 -0.040000000 -0.268467875
v 0.234416817 0.082465009 -0.406990516
v 0.244305766 -0.040000000 -0.141050000
v 0.234416817 0.082465009 -0.406990516
v 0.369784579 0.078456082 -0.213828236
v 0.155000000 -0.040000000 -0.268467875
v 0.000000000 -0.040000000 -0.282100000
v -0.000304707 0.093905857 -0.427656473
v 0.155000000 -0.040000000 -0.268467875
v -0.000304707 0.093905857 -0.427656473
v 0.234416817 0.082465009 -0.406990516
v 0.000000000 -0.040000000 -0.282100000
v -0.155000000 -0.040000000 -0.268467875
v -0.234996782 0.105935689 -0.406990516
v 0.000000000 -0.040000000 -0.282100000
v -0.234996782 0.105935689 -0.406990516
v -0.000304707 0.093905857 -0.427656473
v -0.155000000 -0.040000000 -0.268467875
v -0.244305766 -0.040000000 -0.141050000
v -0.370089286 0.115449775 -0.213828236
v -0.155000000 -0.040000000 -0.268467875
v -0.370089286 0.115449775 -0.213828236
v -0.234996782 0.105935689 -0.406990516
v -0.244305766 -0.040000000 -0.141050000
v -0.310000000 -0.040000000 -0.000000000
v -0.469413599 0.123470680 -0.000000000
v -0.244305766 -0.040000000 -0.141050000
v -0.469413599 0.123470680 -0.000000000
v -0.370089286 0.115449775 -0.213828236
v -0.310000000 -0.040000000 -0.000000000
v -0.244305766 -0.040000000 0.141050000
v -0.369784579 0.121543918 0.213828236
v -0.310000000 -0.040000000 -0.000000000
v -0.369784579 0.121543918 0.213828236
v -0.469413599 0.123470680 -0.000000000
v -0.244305766 -0.040000000 0.141050000
v -0.155000000 -0.040000000 0.268467875
v -0.234416817 0.117534991 0.406990516
v -0.244305766 -0.040000000 0.141050000
v -0.234416817 0.117534991 0.406990516
v -0.369784579 0.121543918 0.213828236
v -0.155000000 -0.040000000 0.268467875
v -0.000000000 -0.040000000 0.282100000
v 0.000304707 0.106094143 0.427656473
v -0.155000000 -0.040000000 0.268467875
v 0.000304707 0.106094143 0.427656473
v -0.234416817 0.117534991 0.406990516
v -0.000000000 -0.040000000 0.282100000
v 0.155000000 -0.040000000 0.268467875
v 0.234996782 0.094064311 0.406990516
v -0.000000000 -0.040000000 0.282100000
v 0.234996782 0.094064311 0.406990516
v 0.000304707 0.106094143 0.427656473
v 0.155000000 -0.040000000 0.268467875
v 0.244305766 -0.040000000 0.141050000
v 0.370089286 0.084550225 0.213828236
v 0.155000000 -0.040000000 0.268467875
v 0.370089286 0.084550225 0.213828236
v 0.234996782 0.094064311 0.406990516
v 0.244305766 -0.040000000 0.141050000
v 0.310000000 -0.040000000 0.000000000
v 0.469413599 0.076529320 0.000000000
v 0.244305766 -0.040000000 0.141050000
v 0.469413599 0.076529320 0.000000000
v 0.370089286 0.084550225 0.213828236
v 0.469413599 0.076529320 0.000000000
v 0.369784579 0.078456082 -0.213828236
v 0.498580497 0.623615631 -0.278385750
v 0.469413599 0.076529320 0.000000000
v 0.498580497 0.623615631 -0.278385750
v 0.623727295 0.621267941 -0.010000000
v 0.369784579 0.078456082 -0.213828236
v 0.234416817 0.082465009 -0.406990516
v 0.328629819 0.629479777 -0.520832698
v 0.369784579 0.078456082 -0.213828236
v 0.328629819 0.629479777 -0.520832698
v 0.498580497 0.623615631 -0.278385750
v 0.234416817 0.082465009 -0.406990516
v -0.000304707 0.093905857 -0.427656473
v 0.034228910 0.648279425 -0.546771500
v 0.234416817 0.082465009 -0.406990516
v 0.034228910 0.648279425 -0.546771500
v 0.328629819 0.629479777 -0.520832698
v -0.000304707 0.093905857 -0.427656473
v -0.234996782 0.105935689 -0.406990516
v -0.260097476 0.668211836 -0.520832698
v -0.000304707 0.093905857 -0.427656473
v -0.260097476 0.668211836 -0.520832698
v 0.034228910 0.648279425 -0.546771500
v -0.234996782 0.105935689 -0.406990516
v -0.370089286 0.115449775 -0.213828236
v -0.429351587 0.684663794 -0.278385750
v -0.234996782 0.105935689 -0.406990516
v -0.429351587 0.684663794 -0.278385750
v -0.260097476 0.668211836 -0.520832698
v -0.370089286 0.115449775 -0.213828236
v -0.469413599 0.123470680 -0.000000000
v -0.553727295 0.698732059 -0.010000000
v -0.370089286 0.115449775 -0.213828236
v -0.553727295 0.698732059 -0.010000000
v -0.429351587 0.684663794 -0.278385750
v -0.469413599 0.123470680 -0.000000000
v -0.369784579 0.121543918 0.213828236
v -0.428580497 0.696384369 0.258385750
v -0.469413599 0.123470680 -0.000000000
v -0.428580497 0.696384369 0.258385750
v -0.553727295 0.698732059 -0.010000000
v -0.369784579 0.121543918 0.213828236
v -0.234416817 0.117534991 0.406990516
v -0.258629819 0.690520223 0.500832698
v -0.369784579 0.121543918 0.213828236
v -0.258629819 0.690520223 0.500832698
v -0.428580497 0.696384369 0.258385750
v -0.234416817 0.117534991 0.406990516
v 0.000304707 0.106094143 0.427656473
v 0.035771090 0.671720575 0.526771500
v -0.234416817 0.117534991 0.406990516
v 0.035771090 0.671720575 0.526771500
v -0.258629819 0.690520223 0.500832698
v 0.000304707 0.106094143 0.427656473
v 0.234996782 0.094064311 0.406990516
v 0.330097476 0.651788164 0.500832698
v 0.000304707 0.106094143 0.427656473
v 0.330097476 0.651788164 0.500832698
v 0.035771090 0.671720575 0.526771500
v 0.234996782 0.094064311 0.406990516
v 0.370089286 0.084550225 0.213828236
v 0.499351587 0.635336206 0.258385750
v 0.234996782 0.094064311 0.406990516
v 0.499351587 0.635336206 0.258385750
v 0.330097476 0.651788164 0.500832698
v 0.370089286 0.084550225 0.213828236
v 0.469413599 0.076529320 0.000000000
v 0.623727295 0.621267941 -0.010000000
v 0.370089286 0.084550225 0.213828236
v 0.623727295 0.621267941 -0.010000000
v 0.499351587 0.635336206 0.258385750
v 0.623727295 0.621267941 -0.010000000
v 0.498580497 0.623615631 -0.278385750
v 0.483061384 1.201692189 -0.261509320
v 0.623727295 0.621267941 -0.010000000
v 0.483061384 1.201692189 -0.261509320
v 0.593434261 1.199677335 -0.025000000
v 0.498580497 0.623615631 -0.278385750
v 0.328629819 0.629479777 -0.520832698
v 0.333250409 1.207409396 -0.475160614
v 0.498580497 0.623615631 -0.278385750
v 0.333250409 1.207409396 -0.475160614
v 0.483061384 1.201692189 -0.261509320
v 0.328629819 0.629479777 -0.520832698
v 0.034228910 0.648279425 -0.546771500
v 0.073984191 1.226939601 -0.498018640
v 0.328629819 0.629479777 -0.520832698
v 0.073984191 1.226939601 -0.498018640
v 0.333250409 1.207409396 -0.475160614
v 0.034228910 0.648279425 -0.546771500
v -0.260097476 0.668211836 -0.520832698
v -0.185183852 1.247732060 -0.475160614
v 0.034228910 0.648279425 -0.546771500
v -0.185183852 1.247732060 -0.475160614
v 0.073984191 1.226939601 -0.498018640
v -0.260097476 0.668211836 -0.520832698
v -0.429351587 0.684663794 -0.278385750
v -0.334077193 1.265247412 -0.261509320
v -0.260097476 0.668211836 -0.520832698
v -0.334077193 1.265247412 -0.261509320
v -0.185183852 1.247732060 -0.475160614
v -0.429351587 0.684663794 -0.278385750
v -0.553727295 0.698732059 -0.010000000
v -0.443434261 1.280322665 -0.025000000
v -0.429351587 0.684663794 -0.278385750
v -0.443434261 1.280322665 -0.025000000
v -0.334077193 1.265247412 -0.261509320
v -0.553727295 0.698732059 -0.010000000
v -0.428580497 0.696384369 0.258385750
v -0.333061384 1.278307811 0.211509320
v -0.553727295 0.698732059 -0.010000000
v -0.333061384 1.278307811 0.211509320
v -0.443434261 1.280322665 -0.025000000
v -0.428580497 0.696384369 0.258385750
v -0.258629819 0.690520223 0.500832698
v -0.183250409 1.272590604 0.425160614
v -0.428580497 0.696384369 0.258385750
v -0.183250409 1.272590604 0.425160614
v -0.333061384 1.278307811 0.211509320
v -0.258629819 0.690520223 0.500832698
v 0.035771090 0.671720575 0.526771500
v 0.076015809 1.253060399 0.448018640
v -0.258629819 0.690520223 0.500832698
v 0.076015809 1.253060399 0.448018640
v -0.183250409 1.272590604 0.425160614
v 0.035771090 0.671720575 0.526771500
v 0.330097476 0.651788164 0.500832698
v 0.335183852 1.232267940 0.425160614
v 0.035771090 0.671720575 0.526771500
v 0.335183852 1.232267940 0.425160614
v 0.076015809 1.253060399 0.448018640
v 0.330097476 0.651788164 0.500832698
v 0.499351587 0.635336206 0.258385750
v 0.484077193 1.214752588 0.211509320
v 0.330097476 0.651788164 0.500832698
v 0.484077193 1.214752588 0.211509320
v 0.335183852 1.232267940 0.425160614
v 0.499351587 0.635336206 0.258385750
v 0.623727295 0.621267941 -0.010000000
v 0.593434261 1.199677335 -0.025000000
v 0.499351587 0.635336206 0.258385750
v 0.593434261 1.199677335 -0.025000000
v 0.484077193 1.214752588 0.211509320
v 0.593434261 1.199677335 -0.025000000
v 0.483061384 1.201692189 -0.261509320
v 0.308361783 1.534593690 -0.153228866
v 0.593434261 1.199677335 -0.025000000
v 0.308361783 1.534593690 -0.153228866
v 0.363587846 1.532938481 -0.035000000
v 0.483061384 1.201692189 -0.261509320
v 0.333250409 1.207409396 -0.475160614
v 0.233481319 1.538704355 -0.260031212
v 0.483061384 1.201692189 -0.261509320
v 0.233481319 1.538704355 -0.260031212
v 0.308361783 1.534593690 -0.153228866
v 0.333250409 1.207409396 -0.475160614
v 0.073984191 1.226939601 -0.498018640
v 0.104146134 1.551840833 -0.271457732
v 0.333250409 1.207409396 -0.475160614
v 0.104146134 1.551840833 -0.271457732
v 0.233481319 1.538704355 -0.260031212
v 0.073984191 1.226939601 -0.498018640
v -0.185183852 1.247732060 -0.475160614
v -0.025106527 1.565765873 -0.260031212
v 0.073984191 1.226939601 -0.498018640
v -0.025106527 1.565765873 -0.260031212
v 0.104146134 1.551840833 -0.271457732
v -0.185183852 1.247732060 -0.475160614
v -0.334077193 1.265247412 -0.261509320
v -0.099215649 1.577247142 -0.153228866
v -0.185183852 1.247732060 -0.475160614
v -0.099215649 1.577247142 -0.153228866
v -0.025106527 1.565765873 -0.260031212
v -0.334077193 1.265247412 -0.261509320
v -0.443434261 1.280322665 -0.025000000
v -0.153587846 1.587061519 -0.035000000
v -0.334077193 1.265247412 -0.261509320
v -0.153587846 1.587061519 -0.035000000
v -0.099215649 1.577247142 -0.153228866
v -0.443434261 1.280322665 -0.025000000
v -0.333061384 1.278307811 0.211509320
v -0.098361783 1.585406310 0.083228866
v -0.443434261 1.280322665 -0.025000000
v -0.098361783 1.585406310 0.083228866
v -0.153587846 1.587061519 -0.035000000
v -0.333061384 1.278307811 0.211509320
v -0.183250409 1.272590604 0.425160614
v -0.023481319 1.581295645 0.190031212
v -0.333061384 1.278307811 0.211509320
v -0.023481319 1.581295645 0.190031212
v -0.098361783 1.585406310 0.083228866
v -0.183250409 1.272590604 0.425160614
v 0.076015809 1.253060399 0.448018640
v 0.105853866 1.568159167 0.201457732
v -0.183250409 1.272590604 0.425160614
v 0.105853866 1.568159167 0.201457732
v -0.023481319 1.581295645 0.190031212
v 0.076015809 1.253060399 0.448018640
v 0.335183852 1.232267940 0.425160614
v 0.235106527 1.554234127 0.190031212
v 0.076015809 1.253060399 0.448018640
v 0.235106527 1.554234127 0.190031212
v 0.105853866 1.568159167 0.201457732
v 0.335183852 1.232267940 0.425160614
v 0.484077193 1.214752588 0.211509320
v 0.309215649 1.542752858 0.083228866
v 0.335183852 1.232267940 0.425160614
v 0.309215649 1.542752858 0.083228866
v 0.235106527 1.554234127 0.190031212
v 0.484077193 1.214752588 0.211509320
v 0.593434261 1.199677335 -0.025000000
v 0.363587846 1.532938481 -0.035000000
v 0.484077193 1.214752588 0.211509320
v 0.363587846 1.532938481 -0.035000000
v 0.309215649 1.542752858 0.083228866
v 0.000000000 -0.040000000 0.000000000
v 0.244305766 -0.040000000 -0.141050000
v 0.310000000 -0.040000000 0.000000000
v 0.000000000 -0.040000000 0.000000000
v 0.155000000 -0.040000000 -0.268467875
v 0.244305766 -0.040000000 -0.141050000
v 0.000000000 -0.040000000 0.000000000
v 0.000000000 -0.040000000 -0.282100000
v 0.155000000 -0.040000000 -0.268467875
v 0.000000000 -0.040000000 0.000000000
v -0.155000000 -0.040000000 -0.268467875
v 0.000000000 -0.040000000 -0.282100000
v 0.000000000 -0.040000000 0.000000000
v -0.244305766 -0.040000000 -0.141050000
v -0.155000000 -0.040000000 -0.268467875
v 0.000000000 -0.040000000 0.000000000
v -0.310000000 -0.040000000 -0.000000000
v -0.244305766 -0.040000000 -0.141050000
v 0.000000000 -0.040000000 0.000000000
v -0.244305766 -0.040000000 0.141050000
v -0.310000000 -0.040000000 -0.000000000
v 0.000000000 -0.040000000 0.000000000
v -0.155000000 -0.040000000 0.268467875
v -0.244305766 -0.040000000 0.141050000
v 0.000000000 -0.040000000 0.000000000
v -0.000000000 -0.040000000 0.282100000
v -0.155000000 -0.040000000 0.268467875
v 0.000000000 -0.040000000 0.000000000
v 0.155000000 -0.040000000 0.268467875
v -0.000000000 -0.040000000 0.282100000
v 0.000000000 -0.040000000 0.000000000
v 0.244305766 -0.040000000 0.141050000
v 0.155000000 -0.040000000 0.268467875
v 0.000000000 -0.040000000 0.000000000
v 0.310000000 -0.040000000 0.000000000
v 0.244305766 -0.040000000 0.141050000
v 0.363587846 1.532938481 -0.035000000
v 0.308361783 1.534593690 -0.153228866
v 0.120000000 1.670000000 -0.040000000
v 0.308361783 1.534593690 -0.153228866
v 0.233481319 1.538704355 -0.260031212
v 0.120000000 1.670000000 -0.040000000
v 0.233481319 1.538704355 -0.260031212
v 0.104146134 1.551840833 -0.271457732
v 0.120000000 1.670000000 -0.040000000
v 0.104146134 1.551840833 -0.271457732
v -0.025106527 1.565765873 -0.260031212
v 0.120000000 1.670000000 -0.040000000
v -0.025106527 1.565765873 -0.260031212
v -0.099215649 1.577247142 -0.153228866
v 0.120000000 1.670000000 -0.040000000
v -0.099215649 1.577247142 -0.153228866
v -0.153587846 1.587061519 -0.035000000
v 0.120000000 1.670000000 -0.040000000
v -0.153587846 1.587061519 -0.035000000
v -0.098361783 1.585406310 0.083228866
v 0.120000000 1.670000000 -0.040000000
v -0.098361783 1.585406310 0.083228866
v -0.023481319 1.581295645 0.190031212
v 0.120000000 1.670000000 -0.040000000
v -0.023481319 1.581295645 0.190031212
v 0.105853866 1.568159167 0.201457732
v 0.120000000 1.670000000 -0.040000000
v 0.105853866 1.568159167 0.201457732
v 0.235106527 1.554234127 0.190031212
v 0.120000000 1.670000000 -0.040000000
v 0.235106527 1.554234127 0.190031212
v 0.309215649 1.542752858 0.083228866
v 0.120000000 1.670000000 -0.040000000
v 0.309215649 1.542752858 0.083228866
v 0.363587846 1.532938481 -0.035000000
v 0.120000000 1.670000000 -0.040000000
vt 0.062500000 0.500000000
vt 0.062500000 0.500000000
vt 0.062500000 0.500000000
vt 0.062500000 0.500000000
vt 0.062500000 0.500000000
vt 0.062500000 0.500000000
vt 0.312500000 0.500000000
vt 0.312500000 0.500000000
vt 0.312500000 0.500000000
vt 0.312500000 0.500000000
vt 0.312500000 0.500000000
vt 0.312500000 0.500000000
vt 0.187500000 0.500000000
vt 0.187500000 0.500000000
vt 0.187500000 0.500000000
vt 0.187500000 0.500000000
vt 0.187500000 0.500000000
vt 0.187500000 0.500000000
vt 0.312500000 0.500000000
vt 0.312500000 0.500000000
vt 0.312500000 0.500000000
vt 0.312500000 0.500000000
vt 0.312500000 0.500000000
vt 0.312500000 0.500000000
vt 0.062500000 0.500000000
vt 0.062500000 0.500000000
vt 0.062500000 0.500000000
vt 0.062500000 0.500000000
vt 0.062500000 0.500000000
vt 0.062500000 0.500000000
vt 0.437500000 0.500000000
vt 0.437500000 0.500000000
vt 0.437500000 0.500000000
vt 0.437500000 0.500000000
vt 0.437500000 0.500000000
vt 0.437500000 0.500000000
vt 0.062500000 0.500000000
vt 0.062500000 0.500000000
vt 0.062500000 0.500000000
vt 0.062500000 0.500000000
vt 0.062500000 0.500000000
vt 0.062500000 0.500000000
vt 0.312500000 0.500000000
vt 0.312500000 0.500000000
vt 0.312500000 0.500000000
vt 0.312500000 0.500000000
vt 0.312500000 0.500000000
vt 0.312500000 0.500000000
vt 0.187500000 0.500000000
vt 0.187500000 0.500000000
vt 0.187500000 0.500000000
vt 0.187500000 0.500000000
vt 0.187500000 0.500000000
vt 0.187500000 0.500000000
vt 0.312500000 0.500000000
vt 0.312500000 0.500000000
vt 0.312500000 0.500000000
vt 0.312500000 0.500000000
vt 0.312500000 0.500000000
vt 0.312500000 0.500000000
vt 0.062500000 0.500000000
vt 0.062500000 0.500000000
vt 0.062500000 0.500000000
vt 0.062500000 0.500000000
vt 0.062500000 0.500000000
vt 0.062500000 0.500000000
vt 0.437500000 0.500000000
vt 0.437500000 0.500000000
vt 0.437500000 0.500000000
vt 0.437500000 0.500000000
vt 0.437500000 0.500000000
vt 0.437500000 0.500000000
vt 0.062500000 0.500000000
vt 0.062500000 0.500000000
vt 0.062500000 0.500000000
vt 0.062500000 0.500000000
vt 0.062500000 0.500000000
vt 0.062500000 0.500000000
vt 0.312500000 0.500000000
vt 0.312500000 0.500000000
vt 0.312500000 0.500000000
vt 0.312500000 0.500000000
vt 0.312500000 0.500000000
vt 0.312500000 0.500000000
vt 0.187500000 0.500000000
vt 0.187500000 0.500000000
vt 0.187500000 0.500000000
vt 0.187500000 0.500000000
vt 0.187500000 0.500000000
vt 0.187500000 0.500000000
vt 0.312500000 0.500000000
vt 0.312500000 0.500000000
vt 0.312500000 0.500000000
vt 0.312500000 0.500000000
vt 0.312500000 0.500000000
vt 0.312500000 0.500000000
vt 0.062500000 0.500000000
vt 0.062500000 0.500000000
vt 0.062500000 0.500000000
vt 0.062500000 0.500000000
vt 0.062500000 0.500000000
vt 0.062500000 0.500000000
vt 0.437500000 0.500000000
vt 0.437500000 0.500000000
vt 0.437500000 0.500000000
vt 0.437500000 0.500000000
vt 0.437500000 0.500000000
vt 0.437500000 0.500000000
vt 0.062500000 0.500000000
vt 0.062500000 0.500000000
vt 0.062500000 0.500000000
vt 0.062500000 0.500000000
vt 0.062500000 0.500000000
vt 0.062500000 0.500000000
vt 0.312500000 0.500000000
vt 0.312500000 0.500000000
vt 0.312500000 0.500000000
vt 0.312500000 0.500000000
vt 0.312500000 0.500000000
vt 0.312500000 0.500000000
vt 0.187500000 0.500000000
vt 0.187500000 0.500000000
vt 0.187500000 0.500000000
vt 0.187500000 0.500000000
vt 0.187500000 0.500000000
vt 0.187500000 0.500000000
vt 0.312500000 0.500000000
vt 0.312500000 0.500000000
vt 0.312500000 0.500000000
vt 0.312500000 0.500000000
vt 0.312500000 0.500000000
vt 0.312500000 0.500000000
vt 0.062500000 0.500000000
vt 0.062500000 0.500000000
vt 0.062500000 0.500000000
vt 0.062500000 0.500000000
vt 0.062500000 0.500000000
vt 0.062500000 0.500000000
vt 0.437500000 0.500000000
vt 0.437500000 0.500000000
vt 0.437500000 0.500000000
vt 0.437500000 0.500000000
vt 0.437500000 0.500000000
vt 0.437500000 0.500000000
vt 0.062500000 0.500000000
vt 0.062500000 0.500000000
vt 0.062500000 0.500000000
vt 0.062500000 0.500000000
vt 0.062500000 0.500000000
vt 0.062500000 0.500000000
vt 0.312500000 0.500000000
vt 0.312500000 0.500000000
vt 0.312500000 0.500000000
vt 0.312500000 0.500000000
vt 0.312500000 0.500000000
vt 0.312500000 0.500000000
vt 0.187500000 0.500000000
vt 0.187500000 0.500000000
vt 0.187500000 0.500000000
vt 0.187500000 0.500000000
vt 0.187500000 0.500000000
vt 0.187500000 0.500000000
vt 0.312500000 0.500000000
vt 0.312500000 0.500000000
vt 0.312500000 0.500000000
vt 0.312500000 0.500000000
vt 0.312500000 0.500000000
vt 0.312500000 0.500000000
vt 0.062500000 0.500000000
vt 0.062500000 0.500000000
vt 0.062500000 0.500000000
vt 0.062500000 0.500000000
vt 0.062500000 0.500000000
vt 0.062500000 0.500000000
vt 0.437500000 0.500000000
vt 0.437500000 0.500000000
vt 0.437500000 0.500000000
vt 0.437500000 0.500000000
vt 0.437500000 0.500000000
vt 0.437500000 0.500000000
vt 0.062500000 0.500000000
vt 0.062500000 0.500000000
vt 0.062500000 0.500000000
vt 0.062500000 0.500000000
vt 0.062500000 0.500000000
vt 0.062500000 0.500000000
vt 0.312500000 0.500000000
vt 0.312500000 0.500000000
vt 0.312500000 0.500000000
vt 0.312500000 0.500000000
vt 0.312500000 0.500000000
vt 0.312500000 0.500000000
vt 0.187500000 0.500000000
vt 0.187500000 0.500000000
vt 0.187500000 0.500000000
vt 0.187500000 0.500000000
vt 0.187500000 0.500000000
vt 0.187500000 0.500000000
vt 0.312500000 0.500000000
vt 0.312500000 0.500000000
vt 0.312500000 0.500000000
vt 0.312500000 0.500000000
vt 0.312500000 0.500000000
vt 0.312500000 0.500000000
vt 0.062500000 0.500000000
vt 0.062500000 0.500000000
vt 0.062500000 0.500000000
vt 0.062500000 0.500000000
vt 0.062500000 0.500000000
vt 0.062500000 0.500000000
vt 0.437500000 0.500000000
vt 0.437500000 0.500000000
vt 0.437500000 0.500000000
vt 0.437500000 0.500000000
vt 0.437500000 0.500000000
vt 0.437500000 0.500000000
vt 0.062500000 0.500000000
vt 0.062500000 0.500000000
vt 0.062500000 0.500000000
vt 0.062500000 0.500000000
vt 0.062500000 0.500000000
vt 0.062500000 0.500000000
vt 0.312500000 0.500000000
vt 0.312500000 0.500000000
vt 0.312500000 0.500000000
vt 0.312500000 0.500000000
vt 0.312500000 0.500000000
vt 0.312500000 0.500000000
vt 0.187500000 0.500000000
vt 0.187500000 0.500000000
vt 0.187500000 0.500000000
vt 0.187500000 0.500000000
vt 0.187500000 0.500000000
vt 0.187500000 0.500000000
vt 0.312500000 0.500000000
vt 0.312500000 0.500000000
vt 0.312500000 0.500000000
vt 0.312500000 0.500000000
vt 0.312500000 0.500000000
vt 0.312500000 0.500000000
vt 0.062500000 0.500000000
vt 0.062500000 0.500000000
vt 0.062500000 0.500000000
vt 0.062500000 0.500000000
vt 0.062500000 0.500000000
vt 0.062500000 0.500000000
vt 0.437500000 0.500000000
vt 0.437500000 0.500000000
vt 0.437500000 0.500000000
vt 0.437500000 0.500000000
vt 0.437500000 0.500000000
vt 0.437500000 0.500000000
vt 0.062500000 0.500000000
vt 0.062500000 0.500000000
vt 0.062500000 0.500000000
vt 0.062500000 0.500000000
vt 0.062500000 0.500000000
vt 0.062500000 0.500000000
vt 0.312500000 0.500000000
vt 0.312500000 0.500000000
vt 0.312500000 0.500000000
vt 0.312500000 0.500000000
vt 0.312500000 0.500000000
vt 0.312500000 0.500000000
vt 0.187500000 0.500000000
vt 0.187500000 0.500000000
vt 0.187500000 0.500000000
vt 0.187500000 0.500000000
vt 0.187500000 0.500000000
vt 0.187500000 0.500000000
vt 0.312500000 0.500000000
vt 0.312500000 0.500000000
vt 0.312500000 0.500000000
vt 0.312500000 0.500000000
vt 0.312500000 0.500000000
vt 0.312500000 0.500000000
vt 0.062500000 0.500000000
vt 0.062500000 0.500000000
vt 0.062500000 0.500000000
vt 0.062500000 0.500000000
vt 0.062500000 0.500000000
vt 0.062500000 0.500000000
vt 0.437500000 0.500000000
vt 0.437500000 0.500000000
vt 0.437500000 0.500000000
vt 0.437500000 0.500000000
vt 0.437500000 0.500000000
vt 0.437500000 0.500000000
vt 0.812500000 0.500000000
vt 0.812500000 0.500000000
vt 0.812500000 0.500000000
vt 0.812500000 0.500000000
vt 0.812500000 0.500000000
vt 0.812500000 0.500000000
vt 0.812500000 0.500000000
vt 0.812500000 0.500000000
vt 0.812500000 0.500000000
vt 0.812500000 0.500000000
vt 0.812500000 0.500000000
vt 0.812500000 0.500000000
vt 0.812500000 0.500000000
vt 0.812500000 0.500000000
vt 0.812500000 0.500000000
vt 0.812500000 0.500000000
vt 0.812500000 0.500000000
vt 0.812500000 0.500000000
vt 0.812500000 0.500000000
vt 0.812500000 0.500000000
vt 0.812500000 0.500000000
vt 0.812500000 0.500000000
vt 0.812500000 0.500000000
vt 0.812500000 0.500000000
vt 0.812500000 0.500000000
vt 0.812500000 0.500000000
vt 0.812500000 0.500000000
vt 0.812500000 0.500000000
vt 0.812500000 0.500000000
vt 0.812500000 0.500000000
vt 0.812500000 0.500000000
vt 0.812500000 0.500000000
vt 0.812500000 0.500000000
vt 0.812500000 0.500000000
vt 0.812500000 0.500000000
vt 0.812500000 0.500000000
vt 0.937500000 0.500000000
vt 0.937500000 0.500000000
vt 0.937500000 0.500000000
vt 0.562500000 0.500000000
vt 0.562500000 0.500000000
vt 0.562500000 0.500000000
vt 0.937500000 0.500000000
vt 0.937500000 0.500000000
vt 0.937500000 0.500000000
vt 0.562500000 0.500000000
vt 0.562500000 0.500000000
vt 0.562500000 0.500000000
vt 0.937500000 0.500000000
vt 0.937500000 0.500000000
vt 0.937500000 0.500000000
vt 0.562500000 0.500000000
vt 0.562500000 0.500000000
vt 0.562500000 0.500000000
vt 0.937500000 0.500000000
vt 0.937500000 0.500000000
vt 0.937500000 0.500000000
vt 0.562500000 0.500000000
vt 0.562500000 0.500000000
vt 0.562500000 0.500000000
vt 0.937500000 0.500000000
vt 0.937500000 0.500000000
vt 0.937500000 0.500000000
vt 0.562500000 0.500000000
vt 0.562500000 0.500000000
vt 0.562500000 0.500000000
vt 0.937500000 0.500000000
vt 0.937500000 0.500000000
vt 0.937500000 0.500000000
vt 0.562500000 0.500000000
vt 0.562500000 0.500000000
vt 0.562500000 0.500000000
vn 0.574757333 -0.773300664 -0.267694027
vn 0.574757333 -0.773300664 -0.267694027
vn 0.574757333 -0.773300664 -0.267694027
vn 0.567944544 -0.776955396 -0.271623465
vn 0.567944544 -0.776955396 -0.271623465
vn 0.567944544 -0.776955396 -0.271623465
vn 0.529365895 -0.762961976 -0.371026646
vn 0.529365895 -0.762961976 -0.371026646
vn 0.529365895 -0.762961976 -0.371026646
vn 0.512090148 -0.772790932 -0.374910463
vn 0.512090148 -0.772790932 -0.374910463
vn 0.512090148 -0.772790932 -0.374910463
vn 0.059445731 -0.734582872 -0.675909912
vn 0.059445731 -0.734582872 -0.675909912
vn 0.059445731 -0.734582872 -0.675909912
vn 0.020910667 -0.754950747 -0.655448026
vn 0.020910667 -0.754950747 -0.655448026
vn 0.020910667 -0.754950747 -0.655448026
vn -0.062149557 -0.704825527 -0.706652962
vn -0.062149557 -0.704825527 -0.706652962
vn -0.062149557 -0.704825527 -0.706652962
vn -0.096877902 -0.732585725 -0.673745374
vn -0.096877902 -0.732585725 -0.673745374
vn -0.096877902 -0.732585725 -0.673745374
vn -0.599254264 -0.681531659 -0.420010625
vn -0.599254264 -0.681531659 -0.420010625
vn -0.599254264 -0.681531659 -0.420010625
vn -0.602662722 -0.697810088 -0.387115906
vn -0.602662722 -0.697810088 -0.387115906
vn -0.602662722 -0.697810088 -0.387115906
vn -0.679172395 -0.662316423 -0.316325487
vn -0.679172395 -0.662316423 -0.316325487
vn -0.679172395 -0.662316423 -0.316325487
vn -0.674208878 -0.680217123 -0.287657879
vn -0.674208878 -0.680217123 -0.287657879
vn -0.674208878 -0.680217123 -0.287657879
vn -0.675697753 -0.666627291 0.314707168
vn -0.675697753 -0.666627291 0.314707168
vn -0.675697753 -0.666627291 0.314707168
vn -0.680420297 -0.663533354 0.311049363
vn -0.680420297 -0.663533354 0.311049363
vn -0.680420297 -0.663533354 0.311049363
vn -0.603396656 -0.676059347 0.422913981
vn -0.603396656 -0.676059347 0.422913981
vn -0.603396656 -0.676059347 0.422913981
vn -0.616436994 -0.667199691 0.418150695
vn -0.616436994 -0.667199691 0.418150695
vn -0.616436994 -0.667199691 0.418150695
vn -0.062189120 -0.704370743 0.707102800
vn -0.062189120 -0.704370743 0.707102800
vn -0.062189120 -0.704370743 0.707102800
vn -0.096984354 -0.684349871 0.722675093
vn -0.096984354 -0.684349871 0.722675093
vn -0.096984354 -0.684349871 0.722675093
vn 0.059477353 -0.734249316 0.676269463
vn 0.059477353 -0.734249316 0.676269463
vn 0.059477353 -0.734249316 0.676269463
vn 0.026188658 -0.705587334 0.708138876
vn 0.026188658 -0.705587334 0.708138876
vn 0.026188658 -0.705587334 0.708138876
vn 0.534058281 -0.758069699 0.374315488
vn 0.534058281 -0.758069699 0.374315488
vn 0.534058281 -0.758069699 0.374315488
vn 0.532857918 -0.740715031 0.409149951
vn 0.532857918 -0.740715031 0.409149951
vn 0.532857918 -0.740715031 0.409149951
vn 0.569029000 -0.778438945 0.265026048
vn 0.569029000 -0.778438945 0.265026048
vn 0.569029000 -0.778438945 0.265026048
vn 0.579280862 -0.758881070 0.297545299
vn 0.579280862 -0.758881070 0.297545299
vn 0.579280862 -0.758881070 0.297545299
vn 0.875490344 -0.255415668 -0.410218837
vn 0.875490344 -0.255415668 -0.410218837
vn 0.875490344 -0.255415668 -0.410218837
vn 0.875370752 -0.255509425 -0.410415619
vn 0.875370752 -0.255509425 -0.410415619
vn 0.875370752 -0.255509425 -0.410415619
vn 0.789950534 -0.252355915 -0.558833291
vn 0.789950534 -0.252355915 -0.558833291
vn 0.789950534 -0.252355915 -0.558833291
vn 0.789384509 -0.252745524 -0.559456698
vn 0.789384509 -0.252745524 -0.559456698
vn 0.789384509 -0.252745524 -0.559456698
vn 0.075321027 -0.213955763 -0.973935149
vn 0.075321027 -0.213955763 -0.973935149
vn 0.075321027 -0.213955763 -0.973935149
vn 0.072074074 -0.215102829 -0.973928180
vn 0.072074074 -0.215102829 -0.973928180
vn 0.072074074 -0.215102829 -0.973928180
vn -0.096165963 -0.201642662 -0.974726805
vn -0.096165963 -0.201642662 -0.974726805
vn -0.096165963 -0.201642662 -0.974726805
vn -0.099598918 -0.203090846 -0.974081189
vn -0.099598918 -0.203090846 -0.974081189
vn -0.099598918 -0.203090846 -0.974081189
vn -0.813812507 -0.148450020 -0.561846772
vn -0.813812507 -0.148450020 -0.561846772
vn -0.813812507 -0.148450020 -0.561846772
vn -0.815467991 -0.149609167 -0.559132410
vn -0.815467991 -0.149609167 -0.559132410
vn -0.815467991 -0.149609167 -0.559132410
vn -0.900099213 -0.139101151 -0.412882884
vn -0.900099213 -0.139101151 -0.412882884
vn -0.900099213 -0.139101151 -0.412882884
vn -0.901114437 -0.140344635 -0.410239144
vn -0.901114437 -0.140344635 -0.410239144
vn -0.901114437 -0.140344635 -0.410239144
vn -0.899821280 -0.124446291 0.418132496
vn -0.899821280 -0.124446291 0.418132496
vn -0.899821280 -0.124446291 0.418132496
vn -0.899667957 -0.124587064 0.418420399
vn -0.899667957 -0.124587064 0.418420399
vn -0.899667957 -0.124587064 0.418420399
vn -0.813500663 -0.127313470 0.567457446
vn -0.813500663 -0.127313470 0.567457446
vn -0.813500663 -0.127313470 0.567457446
vn -0.813647074 -0.127192636 0.567274600
vn -0.813647074 -0.127192636 0.567274600
vn -0.813647074 -0.127192636 0.567274600
vn -0.094517048 -0.166075087 0.981573020
vn -0.094517048 -0.166075087 0.981573020
vn -0.094517048 -0.166075087 0.981573020
vn -0.097007337 -0.164852986 0.981536077
vn -0.097007337 -0.164852986 0.981536077
vn -0.097007337 -0.164852986 0.981536077
vn 0.077242970 -0.178225565 0.980953195
vn 0.077242970 -0.178225565 0.980953195
vn 0.077242970 -0.178225565 0.980953195
vn 0.074531038 -0.176652860 0.981447345
vn 0.074531038 -0.176652860 0.981447345
vn 0.074531038 -0.176652860 0.981447345
vn 0.791809477 -0.231548940 0.565175053
vn 0.791809477 -0.231548940 0.565175053
vn 0.791809477 -0.231548940 0.565175053
vn 0.790519196 -0.230282081 0.567494110
vn 0.790519196 -0.230282081 0.567494110
vn 0.790519196 -0.230282081 0.567494110
vn 0.876780007 -0.240732287 0.416298914
vn 0.876780007 -0.240732287 0.416298914
vn 0.876780007 -0.240732287 0.416298914
vn 0.876062293 -0.239459330 0.418538037
vn 0.876062293 -0.239459330 0.418538037
vn 0.876062293 -0.239459330 0.418538037
vn 0.905826526 0.036639635 -0.422061420
vn 0.905826526 0.036639635 -0.422061420
vn 0.905826526 0.036639635 -0.422061420
vn 0.905696268 0.036481027 -0.422354597
vn 0.905696268 0.036481027 -0.422354597
vn 0.905696268 0.036481027 -0.422354597
vn 0.818680035 0.038732537 -0.572942223
vn 0.818680035 0.038732537 -0.572942223
vn 0.818680035 0.038732537 -0.572942223
vn 0.818645472 0.038705487 -0.572993435
vn 0.818645472 0.038705487 -0.572993435
vn 0.818645472 0.038705487 -0.572993435
vn 0.092400952 0.077289577 -0.992717677
vn 0.092400952 0.077289577 -0.992717677
vn 0.092400952 0.077289577 -0.992717677
vn 0.093364230 0.077695487 -0.992595855
vn 0.093364230 0.077695487 -0.992595855
vn 0.093364230 0.077695487 -0.992595855
vn -0.081475734 0.088768219 -0.992714414
vn -0.081475734 0.088768219 -0.992714414
vn -0.081475734 0.088768219 -0.992714414
vn -0.080406104 0.089165888 -0.992765986
vn -0.080406104 0.089165888 -0.992765986
vn -0.080406104 0.089165888 -0.992765986
vn -0.806044898 0.148923353 -0.572811886
vn -0.806044898 0.148923353 -0.572811886
vn -0.806044898 0.148923353 -0.572811886
vn -0.805443482 0.149320241 -0.573554063
vn -0.805443482 0.149320241 -0.573554063
vn -0.805443482 0.149320241 -0.573554063
vn -0.892659756 0.158400842 -0.421980727
vn -0.892659756 0.158400842 -0.421980727
vn -0.892659756 0.158400842 -0.421980727
vn -0.892271901 0.158709387 -0.422684497
vn -0.892271901 0.158709387 -0.422684497
vn -0.892271901 0.158709387 -0.422684497
vn -0.890933410 0.179833155 0.417010426
vn -0.890933410 0.179833155 0.417010426
vn -0.890933410 0.179833155 0.417010426
vn -0.890841357 0.179701242 0.417263873
vn -0.890841357 0.179701242 0.417263873
vn -0.890841357 0.179701242 0.417263873
vn -0.803765371 0.177896778 0.567727016
vn -0.803765371 0.177896778 0.567727016
vn -0.803765371 0.177896778 0.567727016
vn -0.803506439 0.177658941 0.568167847
vn -0.803506439 0.177658941 0.568167847
vn -0.803506439 0.177658941 0.568167847
vn -0.078093309 0.139138569 0.987188885
vn -0.078093309 0.139138569 0.987188885
vn -0.078093309 0.139138569 0.987188885
vn -0.076637776 0.138294539 0.987421527
vn -0.076637776 0.138294539 0.987421527
vn -0.076637776 0.138294539 0.987421527
vn 0.095656964 0.127850518 0.987169687
vn 0.095656964 0.127850518 0.987169687
vn 0.095656964 0.127850518 0.987169687
vn 0.097250370 0.126991292 0.987124905
vn 0.097250370 0.126991292 0.987124905
vn 0.097250370 0.126991292 0.987124905
vn 0.820232280 0.067577534 0.568024897
vn 0.820232280 0.067577534 0.568024897
vn 0.820232280 0.067577534 0.568024897
vn 0.821155250 0.066692806 0.566794606
vn 0.821155250 0.066692806 0.566794606
vn 0.821155250 0.066692806 0.566794606
vn 0.906926742 0.058318637 0.417232335
vn 0.906926742 0.058318637 0.417232335
vn 0.906926742 0.058318637 0.417232335
vn 0.907555917 0.057577476 0.415965252
vn 0.907555917 0.057577476 0.415965252
vn 0.907555917 0.057577476 0.415965252
vn 0.774362523 0.522463109 -0.356924338
vn 0.774362523 0.522463109 -0.356924338
vn 0.774362523 0.522463109 -0.356924338
vn 0.774668281 0.523641818 -0.354525459
vn 0.774668281 0.523641818 -0.354525459
vn 0.774668281 0.523641818 -0.354525459
vn 0.704113747 0.523547328 -0.479710357
vn 0.704113747 0.523547328 -0.479710357
vn 0.704113747 0.523547328 -0.479710357
vn 0.706212724 0.525080773 -0.474925015
vn 0.706212724 0.525080773 -0.474925015
vn 0.706212724 0.525080773 -0.474925015
vn 0.114541917 0.561046405 -0.819821371
vn 0.114541917 0.561046405 -0.819821371
vn 0.114541917 0.561046405 -0.819821371
vn 0.129465493 0.567157657 -0.813370074
vn 0.129465493 0.567157657 -0.813370074
vn 0.129465493 0.567157657 -0.813370074
vn -0.026796819 0.569306946 -0.821688220
vn -0.026796819 0.569306946 -0.821688220
vn -0.026796819 0.569306946 -0.821688220
vn -0.010777170 0.572627118 -0.819745104
vn -0.010777170 0.572627118 -0.819745104
vn -0.010777170 0.572627118 -0.819745104
vn -0.613398179 0.627966615 -0.478957831
vn -0.613398179 0.627966615 -0.478957831
vn -0.613398179 0.627966615 -0.478957831
vn -0.602905927 0.632439569 -0.486337984
vn -0.602905927 0.632439569 -0.486337984
vn -0.602905927 0.632439569 -0.486337984
vn -0.684700693 0.635352011 -0.357089321
vn -0.684700693 0.635352011 -0.357089321
vn -0.684700693 0.635352011 -0.357089321
vn -0.678556437 0.637458001 -0.364977341
vn -0.678556437 0.637458001 -0.364977341
vn -0.678556437 0.637458001 -0.364977341
vn -0.681656938 0.656171373 0.323701943
vn -0.681656938 0.656171373 0.323701943
vn -0.681656938 0.656171373 0.323701943
vn -0.681411138 0.654560585 0.327458857
vn -0.681411138 0.654560585 0.327458857
vn -0.681411138 0.654560585 0.327458857
vn -0.610257146 0.655110906 0.445439016
vn -0.610257146 0.655110906 0.445439016
vn -0.610257146 0.655110906 0.445439016
vn -0.607954439 0.653179552 0.451384397
vn -0.607954439 0.653179552 0.451384397
vn -0.607954439 0.653179552 0.451384397
vn -0.022813228 0.617427774 0.786296700
vn -0.022813228 0.617427774 0.786296700
vn -0.022813228 0.617427774 0.786296700
vn -0.008281648 0.608610054 0.793426251
vn -0.008281648 0.608610054 0.793426251
vn -0.008281648 0.608610054 0.793426251
vn 0.118039104 0.609310154 0.784096873
vn 0.118039104 0.609310154 0.784096873
vn 0.118039104 0.609310154 0.784096873
vn 0.134467995 0.602723381 0.786538546
vn 0.134467995 0.602723381 0.786538546
vn 0.134467995 0.602723381 0.786538546
vn 0.705351957 0.550626504 0.446418044
vn 0.705351957 0.550626504 0.446418044
vn 0.705351957 0.550626504 0.446418044
vn 0.716171858 0.542902489 0.438582669
vn 0.716171858 0.542902489 0.438582669
vn 0.716171858 0.542902489 0.438582669
vn 0.774398700 0.543798182 0.323404067
vn 0.774398700 0.543798182 0.323404067
vn 0.774398700 0.543798182 0.323404067
vn 0.781124342 0.539410630 0.314453390
vn 0.781124342 0.539410630 0.314453390
vn 0.781124342 0.539410630 0.314453390
vn 0.000000000 -1.000000000 -0.000000000
vn 0.000000000 -1.000000000 -0.000000000
vn 0.000000000 -1.000000000 -0.000000000
vn -0.000000000 -1.000000000 -0.000000000
vn -0.000000000 -1.000000000 -0.000000000
vn -0.000000000 -1.000000000 -0.000000000
vn -0.000000000 -1.000000000 -0.000000000
vn -0.000000000 -1.000000000 -0.000000000
vn -0.000000000 -1.000000000 -0.000000000
vn -0.000000000 -1.000000000 -0.000000000
vn -0.000000000 -1.000000000 -0.000000000
vn -0.000000000 -1.000000000 -0.000000000
vn -0.000000000 -1.000000000 -0.000000000
vn -0.000000000 -1.000000000 -0.000000000
vn -0.000000000 -1.000000000 -0.000000000
vn -0.000000000 -1.000000000 -0.000000000
vn -0.000000000 -1.000000000 -0.000000000
vn -0.000000000 -1.000000000 -0.000000000
vn -0.000000000 -1.000000000 -0.000000000
vn -0.000000000 -1.000000000 -0.000000000
vn -0.000000000 -1.000000000 -0.000000000
vn -0.000000000 -1.000000000 -0.000000000
vn -0.000000000 -1.000000000 -0.000000000
vn -0.000000000 -1.000000000 -0.000000000
vn -0.000000000 -1.000000000 -0.000000000
vn -0.000000000 -1.000000000 -0.000000000
vn -0.000000000 -1.000000000 -0.000000000
vn -0.000000000 -1.000000000 0.000000000
vn -0.000000000 -1.000000000 0.000000000
vn -0.000000000 -1.000000000 0.000000000
vn -0.000000000 -1.000000000 -0.000000000
vn -0.000000000 -1.000000000 -0.000000000
vn -0.000000000 -1.000000000 -0.000000000
vn -0.000000000 -1.000000000 -0.000000000
vn -0.000000000 -1.000000000 -0.000000000
vn -0.000000000 -1.000000000 -0.000000000
vn 0.482402629 0.849547034 -0.213442124
vn 0.482402629 0.849547034 -0.213442124
vn 0.482402629 0.849547034 -0.213442124
vn 0.444398295 0.851338424 -0.278806460
vn 0.444398295 0.851338424 -0.278806460
vn 0.444398295 0.851338424 -0.278806460
vn 0.129781670 0.879494460 -0.457871394
vn 0.129781670 0.879494460 -0.457871394
vn 0.129781670 0.879494460 -0.457871394
vn 0.055243138 0.887757654 -0.456984184
vn 0.055243138 0.887757654 -0.456984184
vn 0.055243138 0.887757654 -0.456984184
vn -0.251202756 0.928313421 -0.274101018
vn -0.251202756 0.928313421 -0.274101018
vn -0.251202756 0.928313421 -0.274101018
vn -0.287172814 0.934653207 -0.209654851
vn -0.287172814 0.934653207 -0.209654851
vn -0.287172814 0.934653207 -0.209654851
vn -0.284549278 0.947450760 0.146180591
vn -0.284549278 0.947450760 0.146180591
vn -0.284549278 0.947450760 0.146180591
vn -0.247798140 0.945748082 0.210134829
vn -0.247798140 0.945748082 0.210134829
vn -0.247798140 0.945748082 0.210134829
vn 0.058765431 0.918567372 0.390871599
vn 0.058765431 0.918567372 0.390871599
vn 0.058765431 0.918567372 0.390871599
vn 0.132720793 0.910437866 0.391775553
vn 0.132720793 0.910437866 0.391775553
vn 0.132720793 0.910437866 0.391775553
vn 0.444661747 0.869493130 0.215075866
vn 0.444661747 0.869493130 0.215075866
vn 0.444661747 0.869493130 0.215075866
vn 0.482468171 0.862930943 0.150248632
vn 0.482468171 0.862930943 0.150248632
vn 0.482468171 0.862930943 0.150248632
o barrel
f 1/1/1 2/2/2 3/3/3
f 4/4/4 5/5/5 6/6/6
f 7/7/7 8/8/8 9/9/9
f 10/10/10 11/11/11 12/12/12
f 13/13/13 14/14/14 15/15/15
f 16/16/16 17/17/17 18/18/18
f 19/19/19 20/20/20 21/21/21
f 22/22/22 23/23/23 24/24/24
f 25/25/25 26/26/26 27/27/27
f 28/28/28 29/29/29 30/30/30
f 31/31/31 32/32/32 33/33/33
f 34/34/34 35/35/35 36/36/36
f 37/37/37 38/38/38 39/39/39
f 40/40/40 41/41/41 42/42/42
f 43/43/43 44/44/44 45/45/45
f 46/46/46 47/47/47 48/48/48
f 49/49/49 50/50/50 51/51/51
f 52/52/52 53/53/53 54/54/54
f 55/55/55 56/56/56 57/57/57
f 58/58/58 59/59/59 60/60/60
f 61/61/61 62/62/62 63/63/63
f 64/64/64 65/65/65 66/66/66
f 67/67/67 68/68/68 69/69/69
f 70/70/70 71/71/71 72/72/72
f 73/73/73 74/74/74 75/75/75
f 76/76/76 77/77/77 78/78/78
f 79/79/79 80/80/80 81/81/81
f 82/82/82 83/83/83 84/84/84
f 85/85/85 86/86/86 87/87/87
f 88/88/88 89/89/89 90/90/90
f 91/91/91 92/92/92 93/93/93
f 94/94/94 95/95/95 96/96/96
f 97/97/97 98/98/98 99/99/99
f 100/100/100 101/101/101 102/102/102
f 103/103/103 104/104/104 105/105/105
f 106/106/106 107/107/107 108/108/108
f 109/109/109 110/110/110 111/111/111
f 112/112/112 113/113/113 114/114/114
f 115/115/115 116/116/116 117/117/117
f 118/118/118 119/119/119 120/120/120
f 121/121/121 122/122/122 123/123/123
f 124/124/124 125/125/125 126/126/126
f 127/127/127 128/128/128 129/129/129
f 130/130/130 131/131/131 132/132/132
f 133/133/133 134/134/134 135/135/135
f 136/136/136 137/137/137 138/138/138
f 139/139/139 140/140/140 141/141/141
f 142/142/142 143/143/143 144/144/144
f 145/145/145 146/146/146 147/147/147
f 148/148/148 149/149/149 150/150/150
f 151/151/151 152/152/152 153/153/153
f 154/154/154 155/155/155 156/156/156
f 157/157/157 158/158/158 159/159/159
f 160/160/160 161/161/161 162/162/162
f 163/163/163 164/164/164 165/165/165
f 166/166/166 167/167/167 168/168/168
f 169/169/169 170/170/170 171/171/171
f 172/172/172 173/173/173 174/174/174
f 175/175/175 176/176/176 177/177/177
f 178/178/178 179/179/179 180/180/180
f 181/181/181 182/182/182 183/183/183
f 184/184/184 185/185/185 186/186/186
f 187/187/187 188/188/188 189/189/189
f 190/190/190 191/191/191 192/192/192
f 193/193/193 194/194/194 195/195/195
f 196/196/196 197/197/197 198/198/198
f 199/199/199 200/200/200 201/201/201
f 202/202/202 203/203/203 204/204/204
f 205/205/205 206/206/206 207/207/207
f 208/208/208 209/209/209 210/210/210
f 211/211/211 212/212/212 213/213/213
f 214/214/214 215/215/215 216/216/216
f 217/217/217 218/218/218 219/219/219
f 220/220/220 221/221/221 222/222/222
f 223/223/223 224/224/224 225/225/225
f 226/226/226 227/227/227 228/228/228
f 229/229/229 230/230/230 231/231/231
f 232/232/232 233/233/233 234/234/234
f 235/235/235 236/236/236 237/237/237
f 238/238/238 239/239/239 240/240/240
f 241/241/241 242/242/242 243/243/243
f 244/244/244 245/245/245 246/246/246
f 247/247/247 248/248/248 249/249/249
f 250/250/250 251/251/251 252/252/252
f 253/253/253 254/254/254 255/255/255
f 256/256/256 257/257/257 258/258/258
f 259/259/259 260/260/260 261/261/261
f 262/262/262 263/263/263 264/264/264
f 265/265/265 266/266/266 267/267/267
f 268/268/268 269/269/269 270/270/270
f 271/271/271 272/272/272 273/273/273
f 274/274/274 275/275/275 276/276/276
f 277/277/277 278/278/278 279/279/279
f 280/280/280 281/281/281 282/282/282
f 283/283/283 284/284/284 285/285/285
f 286/286/286 287/287/287 288/288/288
f 289/289/289 290/290/290 291/291/291
f 292/292/292 293/293/293 294/294/294
f 295/295/295 296/296/296 297/297/297
f 298/298/298 299/299/299 300/300/300
f 301/301/301 302/302/302 303/303/303
f 304/304/304 305/305/305 306/306/306
f 307/307/307 308/308/308 309/309/309
f 310/310/310 311/311/311 312/312/312
f 313/313/313 314/314/314 315/315/315
f 316/316/316 317/317/317 318/318/318
f 319/319/319 320/320/320 321/321/321
f 322/322/322 323/323/323 324/324/324
f 325/325/325 326/326/326 327/327/327
f 328/328/328 329/329/329 330/330/330
f 331/331/331 332/332/332 333/333/333
f 334/334/334 335/335/335 336/336/336
f 337/337/337 338/338/338 339/339/339
f 340/340/340 341/341/341 342/342/342
f 343/343/343 344/344/344 345/345/345
f 346/346/346 347/347/347 348/348/348
f 349/349/349 350/350/350 351/351/351
f 352/352/352 353/353/353 354/354/354
f 355/355/355 356/356/356 357/357/357
f 358/358/358 359/359/359 360/360/360
