# Spike-free cactus model. Native +Y up, metre scale; ground datum Y=0.
# Slight buried root skirt; no auto recentre / rescale.
s off
v 0.237800000 -0.050000000 0.000000000
v 0.153016493 -0.050000000 -0.153016493
v 0.186541515 0.115114476 -0.186605480
v 0.237800000 -0.050000000 0.000000000
v 0.186541515 0.115114476 -0.186605480
v 0.289900593 0.112407501 0.000000000
v 0.153016493 -0.050000000 -0.153016493
v 0.000000000 -0.050000000 -0.237800000
v 0.000000000 0.120000000 -0.290000000
v 0.153016493 -0.050000000 -0.153016493
v 0.000000000 0.120000000 -0.290000000
v 0.186541515 0.115114476 -0.186605480
v 0.000000000 -0.050000000 -0.237800000
v -0.153016493 -0.050000000 -0.153016493
v -0.186541515 0.124885524 -0.186605480
v 0.000000000 -0.050000000 -0.237800000
v -0.186541515 0.124885524 -0.186605480
v 0.000000000 0.120000000 -0.290000000
v -0.153016493 -0.050000000 -0.153016493
v -0.237800000 -0.050000000 -0.000000000
v -0.289900593 0.127592499 -0.000000000
v -0.153016493 -0.050000000 -0.153016493
v -0.289900593 0.127592499 -0.000000000
v -0.186541515 0.124885524 -0.186605480
v -0.237800000 -0.050000000 -0.000000000
v -0.153016493 -0.050000000 0.153016493
v -0.186541515 0.124885524 0.186605480
v -0.237800000 -0.050000000 -0.000000000
v -0.186541515 0.124885524 0.186605480
v -0.289900593 0.127592499 -0.000000000
v -0.153016493 -0.050000000 0.153016493
v -0.000000000 -0.050000000 0.237800000
v -0.000000000 0.120000000 0.290000000
v -0.153016493 -0.050000000 0.153016493
v -0.000000000 0.120000000 0.290000000
v -0.186541515 0.124885524 0.186605480
v -0.000000000 -0.050000000 0.237800000
v 0.153016493 -0.050000000 0.153016493
v 0.186541515 0.115114476 0.186605480
v -0.000000000 -0.050000000 0.237800000
v 0.186541515 0.115114476 0.186605480
v -0.000000000 0.120000000 0.290000000
v 0.153016493 -0.050000000 0.153016493
v 0.237800000 -0.050000000 0.000000000
v 0.289900593 0.112407501 0.000000000
v 0.153016493 -0.050000000 0.153016493
v 0.289900593 0.112407501 0.000000000
v 0.186541515 0.115114476 0.186605480
v 0.289900593 0.112407501 0.000000000
v 0.186541515 0.115114476 -0.186605480
v 0.207897075 1.473290996 -0.167944932
v 0.289900593 0.112407501 0.000000000
v 0.207897075 1.473290996 -0.167944932
v 0.300925628 1.471069684 0.000000000
v 0.186541515 0.115114476 -0.186605480
v 0.000000000 0.120000000 -0.290000000
v 0.040000000 1.477300000 -0.261000000
v 0.186541515 0.115114476 -0.186605480
v 0.040000000 1.477300000 -0.261000000
v 0.207897075 1.473290996 -0.167944932
v 0.000000000 0.120000000 -0.290000000
v -0.186541515 0.124885524 -0.186605480
v -0.127897075 1.481309004 -0.167944932
v 0.000000000 0.120000000 -0.290000000
v -0.127897075 1.481309004 -0.167944932
v 0.040000000 1.477300000 -0.261000000
v -0.186541515 0.124885524 -0.186605480
v -0.289900593 0.127592499 -0.000000000
v -0.220925628 1.483530316 -0.000000000
v -0.186541515 0.124885524 -0.186605480
v -0.220925628 1.483530316 -0.000000000
v -0.127897075 1.481309004 -0.167944932
v -0.289900593 0.127592499 -0.000000000
v -0.186541515 0.124885524 0.186605480
v -0.127897075 1.481309004 0.167944932
v -0.289900593 0.127592499 -0.000000000
v -0.127897075 1.481309004 0.167944932
v -0.220925628 1.483530316 -0.000000000
v -0.186541515 0.124885524 0.186605480
v -0.000000000 0.120000000 0.290000000
v 0.040000000 1.477300000 0.261000000
v -0.186541515 0.124885524 0.186605480
v 0.040000000 1.477300000 0.261000000
v -0.127897075 1.481309004 0.167944932
v -0.000000000 0.120000000 0.290000000
v 0.186541515 0.115114476 0.186605480
v 0.207897075 1.473290996 0.167944932
v -0.000000000 0.120000000 0.290000000
v 0.207897075 1.473290996 0.167944932
v 0.040000000 1.477300000 0.261000000
v 0.186541515 0.115114476 0.186605480
v 0.289900593 0.112407501 0.000000000
v 0.300925628 1.471069684 0.000000000
v 0.186541515 0.115114476 0.186605480
v 0.300925628 1.471069684 0.000000000
v 0.207897075 1.473290996 0.167944932
v 0.300925628 1.471069684 0.000000000
v 0.207897075 1.473290996 -0.167944932
v 0.135168795 1.795200000 -0.095168795
v 0.300925628 1.471069684 0.000000000
v 0.135168795 1.795200000 -0.095168795
v 0.187900000 1.795200000 0.000000000
v 0.207897075 1.473290996 -0.167944932
v 0.040000000 1.477300000 -0.261000000
v 0.040000000 1.795200000 -0.147900000
v 0.207897075 1.473290996 -0.167944932
v 0.040000000 1.795200000 -0.147900000
v 0.135168795 1.795200000 -0.095168795
v 0.040000000 1.477300000 -0.261000000
v -0.127897075 1.481309004 -0.167944932
v -0.055168795 1.795200000 -0.095168795
v 0.040000000 1.477300000 -0.261000000
v -0.055168795 1.795200000 -0.095168795
v 0.040000000 1.795200000 -0.147900000
v -0.127897075 1.481309004 -0.167944932
v -0.220925628 1.483530316 -0.000000000
v -0.107900000 1.795200000 -0.000000000
v -0.127897075 1.481309004 -0.167944932
v -0.107900000 1.795200000 -0.000000000
v -0.055168795 1.795200000 -0.095168795
v -0.220925628 1.483530316 -0.000000000
v -0.127897075 1.481309004 0.167944932
v -0.055168795 1.795200000 0.095168795
v -0.220925628 1.483530316 -0.000000000
v -0.055168795 1.795200000 0.095168795
v -0.107900000 1.795200000 -0.000000000
v -0.127897075 1.481309004 0.167944932
v 0.040000000 1.477300000 0.261000000
v 0.040000000 1.795200000 0.147900000
v -0.127897075 1.481309004 0.167944932
v 0.040000000 1.795200000 0.147900000
v -0.055168795 1.795200000 0.095168795
v 0.040000000 1.477300000 0.261000000
v 0.207897075 1.473290996 0.167944932
v 0.135168795 1.795200000 0.095168795
v 0.040000000 1.477300000 0.261000000
v 0.135168795 1.795200000 0.095168795
v 0.040000000 1.795200000 0.147900000
v 0.207897075 1.473290996 0.167944932
v 0.300925628 1.471069684 0.000000000
v 0.187900000 1.795200000 0.000000000
v 0.207897075 1.473290996 0.167944932
v 0.187900000 1.795200000 0.000000000
v 0.135168795 1.795200000 0.095168795
v 0.000000000 -0.050000000 0.000000000
v 0.153016493 -0.050000000 -0.153016493
v 0.237800000 -0.050000000 0.000000000
v 0.000000000 -0.050000000 0.000000000
v 0.000000000 -0.050000000 -0.237800000
v 0.153016493 -0.050000000 -0.153016493
v 0.000000000 -0.050000000 0.000000000
v -0.153016493 -0.050000000 -0.153016493
v 0.000000000 -0.050000000 -0.237800000
v 0.000000000 -0.050000000 0.000000000
v -0.237800000 -0.050000000 -0.000000000
v -0.153016493 -0.050000000 -0.153016493
v 0.000000000 -0.050000000 0.000000000
v -0.153016493 -0.050000000 0.153016493
v -0.237800000 -0.050000000 -0.000000000
v 0.000000000 -0.050000000 0.000000000
v -0.000000000 -0.050000000 0.237800000
v -0.153016493 -0.050000000 0.153016493
v 0.000000000 -0.050000000 0.000000000
v 0.153016493 -0.050000000 0.153016493
v -0.000000000 -0.050000000 0.237800000
v 0.000000000 -0.050000000 0.000000000
v 0.237800000 -0.050000000 0.000000000
v 0.153016493 -0.050000000 0.153016493
v 0.187900000 1.795200000 0.000000000
v 0.135168795 1.795200000 -0.095168795
v 0.040000000 1.870000000 0.000000000
v 0.135168795 1.795200000 -0.095168795
v 0.040000000 1.795200000 -0.147900000
v 0.040000000 1.870000000 0.000000000
v 0.040000000 1.795200000 -0.147900000
v -0.055168795 1.795200000 -0.095168795
v 0.040000000 1.870000000 0.000000000
v -0.055168795 1.795200000 -0.095168795
v -0.107900000 1.795200000 -0.000000000
v 0.040000000 1.870000000 0.000000000
v -0.107900000 1.795200000 -0.000000000
v -0.055168795 1.795200000 0.095168795
v 0.040000000 1.870000000 0.000000000
v -0.055168795 1.795200000 0.095168795
v 0.040000000 1.795200000 0.147900000
v 0.040000000 1.870000000 0.000000000
v 0.040000000 1.795200000 0.147900000
v 0.135168795 1.795200000 0.095168795
v 0.040000000 1.870000000 0.000000000
v 0.135168795 1.795200000 0.095168795
v 0.187900000 1.795200000 0.000000000
v 0.040000000 1.870000000 0.000000000
v -0.255000000 -0.050000000 0.100000000
v -0.328089230 -0.050000000 -0.031910770
v -0.299245684 0.113985434 -0.060866793
v -0.255000000 -0.050000000 0.100000000
v -0.299245684 0.113985434 -0.060866793
v -0.210174798 0.110652878 0.100000000
v -0.328089230 -0.050000000 -0.031910770
v -0.460000000 -0.050000000 -0.105000000
v -0.460000000 0.120000000 -0.150000000
v -0.328089230 -0.050000000 -0.031910770
v -0.460000000 0.120000000 -0.150000000
v -0.299245684 0.113985434 -0.060866793
v -0.460000000 -0.050000000 -0.105000000
v -0.591910770 -0.050000000 -0.031910770
v -0.620754316 0.126014566 -0.060866793
v -0.460000000 -0.050000000 -0.105000000
v -0.620754316 0.126014566 -0.060866793
v -0.460000000 0.120000000 -0.150000000
v -0.591910770 -0.050000000 -0.031910770
v -0.665000000 -0.050000000 0.100000000
v -0.709825202 0.129347122 0.100000000
v -0.591910770 -0.050000000 -0.031910770
v -0.709825202 0.129347122 0.100000000
v -0.620754316 0.126014566 -0.060866793
v -0.665000000 -0.050000000 0.100000000
v -0.591910770 -0.050000000 0.231910770
v -0.620754316 0.126014566 0.260866793
v -0.665000000 -0.050000000 0.100000000
v -0.620754316 0.126014566 0.260866793
v -0.709825202 0.129347122 0.100000000
v -0.591910770 -0.050000000 0.231910770
v -0.460000000 -0.050000000 0.305000000
v -0.460000000 0.120000000 0.350000000
v -0.591910770 -0.050000000 0.231910770
v -0.460000000 0.120000000 0.350000000
v -0.620754316 0.126014566 0.260866793
v -0.460000000 -0.050000000 0.305000000
v -0.328089230 -0.050000000 0.231910770
v -0.299245684 0.113985434 0.260866793
v -0.460000000 -0.050000000 0.305000000
v -0.299245684 0.113985434 0.260866793
v -0.460000000 0.120000000 0.350000000
v -0.328089230 -0.050000000 0.231910770
v -0.255000000 -0.050000000 0.100000000
v -0.210174798 0.110652878 0.100000000
v -0.328089230 -0.050000000 0.231910770
v -0.210174798 0.110652878 0.100000000
v -0.299245684 0.113985434 0.260866793
v -0.210174798 0.110652878 0.100000000
v -0.299245684 0.113985434 -0.060866793
v -0.275312396 1.013925193 -0.044780113
v -0.210174798 0.110652878 0.100000000
v -0.275312396 1.013925193 -0.044780113
v -0.195143768 1.011057932 0.100000000
v -0.299245684 0.113985434 -0.060866793
v -0.460000000 0.120000000 -0.150000000
v -0.420000000 1.019100000 -0.125000000
v -0.299245684 0.113985434 -0.060866793
v -0.420000000 1.019100000 -0.125000000
v -0.275312396 1.013925193 -0.044780113
v -0.460000000 0.120000000 -0.150000000
v -0.620754316 0.126014566 -0.060866793
v -0.564687604 1.024274807 -0.044780113
v -0.460000000 0.120000000 -0.150000000
v -0.564687604 1.024274807 -0.044780113
v -0.420000000 1.019100000 -0.125000000
v -0.620754316 0.126014566 -0.060866793
v -0.709825202 0.129347122 0.100000000
v -0.644856232 1.027142068 0.100000000
v -0.620754316 0.126014566 -0.060866793
v -0.644856232 1.027142068 0.100000000
v -0.564687604 1.024274807 -0.044780113
v -0.709825202 0.129347122 0.100000000
v -0.620754316 0.126014566 0.260866793
v -0.564687604 1.024274807 0.244780113
v -0.709825202 0.129347122 0.100000000
v -0.564687604 1.024274807 0.244780113
v -0.644856232 1.027142068 0.100000000
v -0.620754316 0.126014566 0.260866793
v -0.460000000 0.120000000 0.350000000
v -0.420000000 1.019100000 0.325000000
v -0.620754316 0.126014566 0.260866793
v -0.420000000 1.019100000 0.325000000
v -0.564687604 1.024274807 0.244780113
v -0.460000000 0.120000000 0.350000000
v -0.299245684 0.113985434 0.260866793
v -0.275312396 1.013925193 0.244780113
v -0.460000000 0.120000000 0.350000000
v -0.275312396 1.013925193 0.244780113
v -0.420000000 1.019100000 0.325000000
v -0.299245684 0.113985434 0.260866793
v -0.210174798 0.110652878 0.100000000
v -0.195143768 1.011057932 0.100000000
v -0.299245684 0.113985434 0.260866793
v -0.195143768 1.011057932 0.100000000
v -0.275312396 1.013925193 0.244780113
v -0.195143768 1.011057932 0.100000000
v -0.275312396 1.013925193 -0.044780113
v -0.337957936 1.238400000 0.017957936
v -0.195143768 1.011057932 0.100000000
v -0.337957936 1.238400000 0.017957936
v -0.292500000 1.238400000 0.100000000
v -0.275312396 1.013925193 -0.044780113
v -0.420000000 1.019100000 -0.125000000
v -0.420000000 1.238400000 -0.027500000
v -0.275312396 1.013925193 -0.044780113
v -0.420000000 1.238400000 -0.027500000
v -0.337957936 1.238400000 0.017957936
v -0.420000000 1.019100000 -0.125000000
v -0.564687604 1.024274807 -0.044780113
v -0.502042064 1.238400000 0.017957936
v -0.420000000 1.019100000 -0.125000000
v -0.502042064 1.238400000 0.017957936
v -0.420000000 1.238400000 -0.027500000
v -0.564687604 1.024274807 -0.044780113
v -0.644856232 1.027142068 0.100000000
v -0.547500000 1.238400000 0.100000000
v -0.564687604 1.024274807 -0.044780113
v -0.547500000 1.238400000 0.100000000
v -0.502042064 1.238400000 0.017957936
v -0.644856232 1.027142068 0.100000000
v -0.564687604 1.024274807 0.244780113
v -0.502042064 1.238400000 0.182042064
v -0.644856232 1.027142068 0.100000000
v -0.502042064 1.238400000 0.182042064
v -0.547500000 1.238400000 0.100000000
v -0.564687604 1.024274807 0.244780113
v -0.420000000 1.019100000 0.325000000
v -0.420000000 1.238400000 0.227500000
v -0.564687604 1.024274807 0.244780113
v -0.420000000 1.238400000 0.227500000
v -0.502042064 1.238400000 0.182042064
v -0.420000000 1.019100000 0.325000000
v -0.275312396 1.013925193 0.244780113
v -0.337957936 1.238400000 0.182042064
v -0.420000000 1.019100000 0.325000000
v -0.337957936 1.238400000 0.182042064
v -0.420000000 1.238400000 0.227500000
v -0.275312396 1.013925193 0.244780113
v -0.195143768 1.011057932 0.100000000
v -0.292500000 1.238400000 0.100000000
v -0.275312396 1.013925193 0.244780113
v -0.292500000 1.238400000 0.100000000
v -0.337957936 1.238400000 0.182042064
v -0.460000000 -0.050000000 0.100000000
v -0.328089230 -0.050000000 -0.031910770
v -0.255000000 -0.050000000 0.100000000
v -0.460000000 -0.050000000 0.100000000
v -0.460000000 -0.050000000 -0.105000000
v -0.328089230 -0.050000000 -0.031910770
v -0.460000000 -0.050000000 0.100000000
v -0.591910770 -0.050000000 -0.031910770
v -0.460000000 -0.050000000 -0.105000000
v -0.460000000 -0.050000000 0.100000000
v -0.665000000 -0.050000000 0.100000000
v -0.591910770 -0.050000000 -0.031910770
v -0.460000000 -0.050000000 0.100000000
v -0.591910770 -0.050000000 0.231910770
v -0.665000000 -0.050000000 0.100000000
v -0.460000000 -0.050000000 0.100000000
v -0.460000000 -0.050000000 0.305000000
v -0.591910770 -0.050000000 0.231910770
v -0.460000000 -0.050000000 0.100000000
v -0.328089230 -0.050000000 0.231910770
v -0.460000000 -0.050000000 0.305000000
v -0.460000000 -0.050000000 0.100000000
v -0.255000000 -0.050000000 0.100000000
v -0.328089230 -0.050000000 0.231910770
v -0.292500000 1.238400000 0.100000000
v -0.337957936 1.238400000 0.017957936
v -0.420000000 1.290000000 0.100000000
v -0.337957936 1.238400000 0.017957936
v -0.420000000 1.238400000 -0.027500000
v -0.420000000 1.290000000 0.100000000
v -0.420000000 1.238400000 -0.027500000
v -0.502042064 1.238400000 0.017957936
v -0.420000000 1.290000000 0.100000000
v -0.502042064 1.238400000 0.017957936
v -0.547500000 1.238400000 0.100000000
v -0.420000000 1.290000000 0.100000000
v -0.547500000 1.238400000 0.100000000
v -0.502042064 1.238400000 0.182042064
v -0.420000000 1.290000000 0.100000000
v -0.502042064 1.238400000 0.182042064
v -0.420000000 1.238400000 0.227500000
v -0.420000000 1.290000000 0.100000000
v -0.420000000 1.238400000 0.227500000
v -0.337957936 1.238400000 0.182042064
v -0.420000000 1.290000000 0.100000000
v -0.337957936 1.238400000 0.182042064
v -0.292500000 1.238400000 0.100000000
v -0.420000000 1.290000000 0.100000000
v 0.570400000 -0.050000000 0.170000000
v 0.506081478 -0.050000000 0.053918522
v 0.531382848 0.112864858 0.028437222
v 0.570400000 -0.050000000 0.170000000
v 0.531382848 0.112864858 0.028437222
v 0.609720375 0.108911412 0.170000000
v 0.506081478 -0.050000000 0.053918522
v 0.390000000 -0.050000000 -0.010400000
v 0.390000000 0.120000000 -0.050000000
v 0.506081478 -0.050000000 0.053918522
v 0.390000000 0.120000000 -0.050000000
v 0.531382848 0.112864858 0.028437222
v 0.390000000 -0.050000000 -0.010400000
v 0.273918522 -0.050000000 0.053918522
v 0.248617152 0.127135142 0.028437222
v 0.390000000 -0.050000000 -0.010400000
v 0.248617152 0.127135142 0.028437222
v 0.390000000 0.120000000 -0.050000000
v 0.273918522 -0.050000000 0.053918522
v 0.209600000 -0.050000000 0.170000000
v 0.170279625 0.131088588 0.170000000
v 0.273918522 -0.050000000 0.053918522
v 0.170279625 0.131088588 0.170000000
v 0.248617152 0.127135142 0.028437222
v 0.209600000 -0.050000000 0.170000000
v 0.273918522 -0.050000000 0.286081478
v 0.248617152 0.127135142 0.311562778
v 0.209600000 -0.050000000 0.170000000
v 0.248617152 0.127135142 0.311562778
v 0.170279625 0.131088588 0.170000000
v 0.273918522 -0.050000000 0.286081478
v 0.390000000 -0.050000000 0.350400000
v 0.390000000 0.120000000 0.390000000
v 0.273918522 -0.050000000 0.286081478
v 0.390000000 0.120000000 0.390000000
v 0.248617152 0.127135142 0.311562778
v 0.390000000 -0.050000000 0.350400000
v 0.506081478 -0.050000000 0.286081478
v 0.531382848 0.112864858 0.311562778
v 0.390000000 -0.050000000 0.350400000
v 0.531382848 0.112864858 0.311562778
v 0.390000000 0.120000000 0.390000000
v 0.506081478 -0.050000000 0.286081478
v 0.570400000 -0.050000000 0.170000000
v 0.609720375 0.108911412 0.170000000
v 0.506081478 -0.050000000 0.286081478
v 0.609720375 0.108911412 0.170000000
v 0.531382848 0.112864858 0.311562778
v 0.609720375 0.108911412 0.170000000
v 0.531382848 0.112864858 0.028437222
v 0.557240322 0.736094871 0.042593500
v 0.609720375 0.108911412 0.170000000
v 0.557240322 0.736094871 0.042593500
v 0.627741746 0.732490504 0.170000000
v 0.531382848 0.112864858 0.028437222
v 0.390000000 0.120000000 -0.050000000
v 0.430000000 0.742600000 -0.028000000
v 0.531382848 0.112864858 0.028437222
v 0.430000000 0.742600000 -0.028000000
v 0.557240322 0.736094871 0.042593500
v 0.390000000 0.120000000 -0.050000000
v 0.248617152 0.127135142 0.028437222
v 0.302759678 0.749105129 0.042593500
v 0.390000000 0.120000000 -0.050000000
v 0.302759678 0.749105129 0.042593500
v 0.430000000 0.742600000 -0.028000000
v 0.248617152 0.127135142 0.028437222
v 0.170279625 0.131088588 0.170000000
v 0.232258254 0.752709496 0.170000000
v 0.248617152 0.127135142 0.028437222
v 0.232258254 0.752709496 0.170000000
v 0.302759678 0.749105129 0.042593500
v 0.170279625 0.131088588 0.170000000
v 0.248617152 0.127135142 0.311562778
v 0.302759678 0.749105129 0.297406500
v 0.170279625 0.131088588 0.170000000
v 0.302759678 0.749105129 0.297406500
v 0.232258254 0.752709496 0.170000000
v 0.248617152 0.127135142 0.311562778
v 0.390000000 0.120000000 0.390000000
v 0.430000000 0.742600000 0.368000000
v 0.248617152 0.127135142 0.311562778
v 0.430000000 0.742600000 0.368000000
v 0.302759678 0.749105129 0.297406500
v 0.390000000 0.120000000 0.390000000
v 0.531382848 0.112864858 0.311562778
v 0.557240322 0.736094871 0.297406500
v 0.390000000 0.120000000 0.390000000
v 0.557240322 0.736094871 0.297406500
v 0.430000000 0.742600000 0.368000000
v 0.531382848 0.112864858 0.311562778
v 0.609720375 0.108911412 0.170000000
v 0.627741746 0.732490504 0.170000000
v 0.531382848 0.112864858 0.311562778
v 0.627741746 0.732490504 0.170000000
v 0.557240322 0.736094871 0.297406500
v 0.627741746 0.732490504 0.170000000
v 0.557240322 0.736094871 0.042593500
v 0.502197017 0.902400000 0.097802983
v 0.627741746 0.732490504 0.170000000
v 0.502197017 0.902400000 0.097802983
v 0.542200000 0.902400000 0.170000000
v 0.557240322 0.736094871 0.042593500
v 0.430000000 0.742600000 -0.028000000
v 0.430000000 0.902400000 0.057800000
v 0.557240322 0.736094871 0.042593500
v 0.430000000 0.902400000 0.057800000
v 0.502197017 0.902400000 0.097802983
v 0.430000000 0.742600000 -0.028000000
v 0.302759678 0.749105129 0.042593500
v 0.357802983 0.902400000 0.097802983
v 0.430000000 0.742600000 -0.028000000
v 0.357802983 0.902400000 0.097802983
v 0.430000000 0.902400000 0.057800000
v 0.302759678 0.749105129 0.042593500
v 0.232258254 0.752709496 0.170000000
v 0.317800000 0.902400000 0.170000000
v 0.302759678 0.749105129 0.042593500
v 0.317800000 0.902400000 0.170000000
v 0.357802983 0.902400000 0.097802983
v 0.232258254 0.752709496 0.170000000
v 0.302759678 0.749105129 0.297406500
v 0.357802983 0.902400000 0.242197017
v 0.232258254 0.752709496 0.170000000
v 0.357802983 0.902400000 0.242197017
v 0.317800000 0.902400000 0.170000000
v 0.302759678 0.749105129 0.297406500
v 0.430000000 0.742600000 0.368000000
v 0.430000000 0.902400000 0.282200000
v 0.302759678 0.749105129 0.297406500
v 0.430000000 0.902400000 0.282200000
v 0.357802983 0.902400000 0.242197017
v 0.430000000 0.742600000 0.368000000
v 0.557240322 0.736094871 0.297406500
v 0.502197017 0.902400000 0.242197017
v 0.430000000 0.742600000 0.368000000
v 0.502197017 0.902400000 0.242197017
v 0.430000000 0.902400000 0.282200000
v 0.557240322 0.736094871 0.297406500
v 0.627741746 0.732490504 0.170000000
v 0.542200000 0.902400000 0.170000000
v 0.557240322 0.736094871 0.297406500
v 0.542200000 0.902400000 0.170000000
v 0.502197017 0.902400000 0.242197017
v 0.390000000 -0.050000000 0.170000000
v 0.506081478 -0.050000000 0.053918522
v 0.570400000 -0.050000000 0.170000000
v 0.390000000 -0.050000000 0.170000000
v 0.390000000 -0.050000000 -0.010400000
v 0.506081478 -0.050000000 0.053918522
v 0.390000000 -0.050000000 0.170000000
v 0.273918522 -0.050000000 0.053918522
v 0.390000000 -0.050000000 -0.010400000
v 0.390000000 -0.050000000 0.170000000
v 0.209600000 -0.050000000 0.170000000
v 0.273918522 -0.050000000 0.053918522
v 0.390000000 -0.050000000 0.170000000
v 0.273918522 -0.050000000 0.286081478
v 0.209600000 -0.050000000 0.170000000
v 0.390000000 -0.050000000 0.170000000
v 0.390000000 -0.050000000 0.350400000
v 0.273918522 -0.050000000 0.286081478
v 0.390000000 -0.050000000 0.170000000
v 0.506081478 -0.050000000 0.286081478
v 0.390000000 -0.050000000 0.350400000
v 0.390000000 -0.050000000 0.170000000
v 0.570400000 -0.050000000 0.170000000
v 0.506081478 -0.050000000 0.286081478
v 0.542200000 0.902400000 0.170000000
v 0.502197017 0.902400000 0.097802983
v 0.430000000 0.940000000 0.170000000
v 0.502197017 0.902400000 0.097802983
v 0.430000000 0.902400000 0.057800000
v 0.430000000 0.940000000 0.170000000
v 0.430000000 0.902400000 0.057800000
v 0.357802983 0.902400000 0.097802983
v 0.430000000 0.940000000 0.170000000
v 0.357802983 0.902400000 0.097802983
v 0.317800000 0.902400000 0.170000000
v 0.430000000 0.940000000 0.170000000
v 0.317800000 0.902400000 0.170000000
v 0.357802983 0.902400000 0.242197017
v 0.430000000 0.940000000 0.170000000
v 0.357802983 0.902400000 0.242197017
v 0.430000000 0.902400000 0.282200000
v 0.430000000 0.940000000 0.170000000
v 0.430000000 0.902400000 0.282200000
v 0.502197017 0.902400000 0.242197017
v 0.430000000 0.940000000 0.170000000
v 0.502197017 0.902400000 0.242197017
v 0.542200000 0.902400000 0.170000000
v 0.430000000 0.940000000 0.170000000
vt 0.062500000 0.500000000
vt 0.062500000 0.500000000
vt 0.062500000 0.500000000
vt 0.062500000 0.500000000
vt 0.062500000 0.500000000
vt 0.062500000 0.500000000
vt 0.312500000 0.500000000
vt 0.312500000 0.500000000
vt 0.312500000 0.500000000
vt 0.312500000 0.500000000
vt 0.312500000 0.500000000
vt 0.312500000 0.500000000
vt 0.187500000 0.500000000
vt 0.187500000 0.500000000
vt 0.187500000 0.500000000
vt 0.187500000 0.500000000
vt 0.187500000 0.500000000
vt 0.187500000 0.500000000
vt 0.312500000 0.500000000
vt 0.312500000 0.500000000
vt 0.312500000 0.500000000
vt 0.312500000 0.500000000
vt 0.312500000 0.500000000
vt 0.312500000 0.500000000
vt 0.062500000 0.500000000
vt 0.062500000 0.500000000
vt 0.062500000 0.500000000
vt 0.062500000 0.500000000
vt 0.062500000 0.500000000
vt 0.062500000 0.500000000
vt 0.437500000 0.500000000
vt 0.437500000 0.500000000
vt 0.437500000 0.500000000
vt 0.437500000 0.500000000
vt 0.437500000 0.500000000
vt 0.437500000 0.500000000
vt 0.062500000 0.500000000
vt 0.062500000 0.500000000
vt 0.062500000 0.500000000
vt 0.062500000 0.500000000
vt 0.062500000 0.500000000
vt 0.062500000 0.500000000
vt 0.312500000 0.500000000
vt 0.312500000 0.500000000
vt 0.312500000 0.500000000
vt 0.312500000 0.500000000
vt 0.312500000 0.500000000
vt 0.312500000 0.500000000
vt 0.062500000 0.500000000
vt 0.062500000 0.500000000
vt 0.062500000 0.500000000
vt 0.062500000 0.500000000
vt 0.062500000 0.500000000
vt 0.062500000 0.500000000
vt 0.312500000 0.500000000
vt 0.312500000 0.500000000
vt 0.312500000 0.500000000
vt 0.312500000 0.500000000
vt 0.312500000 0.500000000
vt 0.312500000 0.500000000
vt 0.187500000 0.500000000
vt 0.187500000 0.500000000
vt 0.187500000 0.500000000
vt 0.187500000 0.500000000
vt 0.187500000 0.500000000
vt 0.187500000 0.500000000
vt 0.312500000 0.500000000
vt 0.312500000 0.500000000
vt 0.312500000 0.500000000
vt 0.312500000 0.500000000
vt 0.312500000 0.500000000
vt 0.312500000 0.500000000
vt 0.062500000 0.500000000
vt 0.062500000 0.500000000
vt 0.062500000 0.500000000
vt 0.062500000 0.500000000
vt 0.062500000 0.500000000
vt 0.062500000 0.500000000
vt 0.437500000 0.500000000
vt 0.437500000 0.500000000
vt 0.437500000 0.500000000
vt 0.437500000 0.500000000
vt 0.437500000 0.500000000
vt 0.437500000 0.500000000
vt 0.062500000 0.500000000
vt 0.062500000 0.500000000
vt 0.062500000 0.500000000
vt 0.062500000 0.500000000
vt 0.062500000 0.500000000
vt 0.062500000 0.500000000
vt 0.312500000 0.500000000
vt 0.312500000 0.500000000
vt 0.312500000 0.500000000
vt 0.312500000 0.500000000
vt 0.312500000 0.500000000
vt 0.312500000 0.500000000
vt 0.062500000 0.500000000
vt 0.062500000 0.500000000
vt 0.062500000 0.500000000
vt 0.062500000 0.500000000
vt 0.062500000 0.500000000
vt 0.062500000 0.500000000
vt 0.312500000 0.500000000
vt 0.312500000 0.500000000
vt 0.312500000 0.500000000
vt 0.312500000 0.500000000
vt 0.312500000 0.500000000
vt 0.312500000 0.500000000
vt 0.187500000 0.500000000
vt 0.187500000 0.500000000
vt 0.187500000 0.500000000
vt 0.187500000 0.500000000
vt 0.187500000 0.500000000
vt 0.187500000 0.500000000
vt 0.312500000 0.500000000
vt 0.312500000 0.500000000
vt 0.312500000 0.500000000
vt 0.312500000 0.500000000
vt 0.312500000 0.500000000
vt 0.312500000 0.500000000
vt 0.062500000 0.500000000
vt 0.062500000 0.500000000
vt 0.062500000 0.500000000
vt 0.062500000 0.500000000
vt 0.062500000 0.500000000
vt 0.062500000 0.500000000
vt 0.437500000 0.500000000
vt 0.437500000 0.500000000
vt 0.437500000 0.500000000
vt 0.437500000 0.500000000
vt 0.437500000 0.500000000
vt 0.437500000 0.500000000
vt 0.062500000 0.500000000
vt 0.062500000 0.500000000
vt 0.062500000 0.500000000
vt 0.062500000 0.500000000
vt 0.062500000 0.500000000
vt 0.062500000 0.500000000
vt 0.312500000 0.500000000
vt 0.312500000 0.500000000
vt 0.312500000 0.500000000
vt 0.312500000 0.500000000
vt 0.312500000 0.500000000
vt 0.312500000 0.500000000
vt 0.812500000 0.500000000
vt 0.812500000 0.500000000
vt 0.812500000 0.500000000
vt 0.812500000 0.500000000
vt 0.812500000 0.500000000
vt 0.812500000 0.500000000
vt 0.812500000 0.500000000
vt 0.812500000 0.500000000
vt 0.812500000 0.500000000
vt 0.812500000 0.500000000
vt 0.812500000 0.500000000
vt 0.812500000 0.500000000
vt 0.812500000 0.500000000
vt 0.812500000 0.500000000
vt 0.812500000 0.500000000
vt 0.812500000 0.500000000
vt 0.812500000 0.500000000
vt 0.812500000 0.500000000
vt 0.812500000 0.500000000
vt 0.812500000 0.500000000
vt 0.812500000 0.500000000
vt 0.812500000 0.500000000
vt 0.812500000 0.500000000
vt 0.812500000 0.500000000
vt 0.937500000 0.500000000
vt 0.937500000 0.500000000
vt 0.937500000 0.500000000
vt 0.562500000 0.500000000
vt 0.562500000 0.500000000
vt 0.562500000 0.500000000
vt 0.937500000 0.500000000
vt 0.937500000 0.500000000
vt 0.937500000 0.500000000
vt 0.562500000 0.500000000
vt 0.562500000 0.500000000
vt 0.562500000 0.500000000
vt 0.937500000 0.500000000
vt 0.937500000 0.500000000
vt 0.937500000 0.500000000
vt 0.562500000 0.500000000
vt 0.562500000 0.500000000
vt 0.562500000 0.500000000
vt 0.937500000 0.500000000
vt 0.937500000 0.500000000
vt 0.937500000 0.500000000
vt 0.562500000 0.500000000
vt 0.562500000 0.500000000
vt 0.562500000 0.500000000
vt 0.062500000 0.500000000
vt 0.062500000 0.500000000
vt 0.062500000 0.500000000
vt 0.062500000 0.500000000
vt 0.062500000 0.500000000
vt 0.062500000 0.500000000
vt 0.312500000 0.500000000
vt 0.312500000 0.500000000
vt 0.312500000 0.500000000
vt 0.312500000 0.500000000
vt 0.312500000 0.500000000
vt 0.312500000 0.500000000
vt 0.187500000 0.500000000
vt 0.187500000 0.500000000
vt 0.187500000 0.500000000
vt 0.187500000 0.500000000
vt 0.187500000 0.500000000
vt 0.187500000 0.500000000
vt 0.312500000 0.500000000
vt 0.312500000 0.500000000
vt 0.312500000 0.500000000
vt 0.312500000 0.500000000
vt 0.312500000 0.500000000
vt 0.312500000 0.500000000
vt 0.062500000 0.500000000
vt 0.062500000 0.500000000
vt 0.062500000 0.500000000
vt 0.062500000 0.500000000
vt 0.062500000 0.500000000
vt 0.062500000 0.500000000
vt 0.437500000 0.500000000
vt 0.437500000 0.500000000
vt 0.437500000 0.500000000
vt 0.437500000 0.500000000
vt 0.437500000 0.500000000
vt 0.437500000 0.500000000
vt 0.062500000 0.500000000
vt 0.062500000 0.500000000
vt 0.062500000 0.500000000
vt 0.062500000 0.500000000
vt 0.062500000 0.500000000
vt 0.062500000 0.500000000
vt 0.312500000 0.500000000
vt 0.312500000 0.500000000
vt 0.312500000 0.500000000
vt 0.312500000 0.500000000
vt 0.312500000 0.500000000
vt 0.312500000 0.500000000
vt 0.062500000 0.500000000
vt 0.062500000 0.500000000
vt 0.062500000 0.500000000
vt 0.062500000 0.500000000
vt 0.062500000 0.500000000
vt 0.062500000 0.500000000
vt 0.312500000 0.500000000
vt 0.312500000 0.500000000
vt 0.312500000 0.500000000
vt 0.312500000 0.500000000
vt 0.312500000 0.500000000
vt 0.312500000 0.500000000
vt 0.187500000 0.500000000
vt 0.187500000 0.500000000
vt 0.187500000 0.500000000
vt 0.187500000 0.500000000
vt 0.187500000 0.500000000
vt 0.187500000 0.500000000
vt 0.312500000 0.500000000
vt 0.312500000 0.500000000
vt 0.312500000 0.500000000
vt 0.312500000 0.500000000
vt 0.312500000 0.500000000
vt 0.312500000 0.500000000
vt 0.062500000 0.500000000
vt 0.062500000 0.500000000
vt 0.062500000 0.500000000
vt 0.062500000 0.500000000
vt 0.062500000 0.500000000
vt 0.062500000 0.500000000
vt 0.437500000 0.500000000
vt 0.437500000 0.500000000
vt 0.437500000 0.500000000
vt 0.437500000 0.500000000
vt 0.437500000 0.500000000
vt 0.437500000 0.500000000
vt 0.062500000 0.500000000
vt 0.062500000 0.500000000
vt 0.062500000 0.500000000
vt 0.062500000 0.500000000
vt 0.062500000 0.500000000
vt 0.062500000 0.500000000
vt 0.312500000 0.500000000
vt 0.312500000 0.500000000
vt 0.312500000 0.500000000
vt 0.312500000 0.500000000
vt 0.312500000 0.500000000
vt 0.312500000 0.500000000
vt 0.062500000 0.500000000
vt 0.062500000 0.500000000
vt 0.062500000 0.500000000
vt 0.062500000 0.500000000
vt 0.062500000 0.500000000
vt 0.062500000 0.500000000
vt 0.312500000 0.500000000
vt 0.312500000 0.500000000
vt 0.312500000 0.500000000
vt 0.312500000 0.500000000
vt 0.312500000 0.500000000
vt 0.312500000 0.500000000
vt 0.187500000 0.500000000
vt 0.187500000 0.500000000
vt 0.187500000 0.500000000
vt 0.187500000 0.500000000
vt 0.187500000 0.500000000
vt 0.187500000 0.500000000
vt 0.312500000 0.500000000
vt 0.312500000 0.500000000
vt 0.312500000 0.500000000
vt 0.312500000 0.500000000
vt 0.312500000 0.500000000
vt 0.312500000 0.500000000
vt 0.062500000 0.500000000
vt 0.062500000 0.500000000
vt 0.062500000 0.500000000
vt 0.062500000 0.500000000
vt 0.062500000 0.500000000
vt 0.062500000 0.500000000
vt 0.437500000 0.500000000
vt 0.437500000 0.500000000
vt 0.437500000 0.500000000
vt 0.437500000 0.500000000
vt 0.437500000 0.500000000
vt 0.437500000 0.500000000
vt 0.062500000 0.500000000
vt 0.062500000 0.500000000
vt 0.062500000 0.500000000
vt 0.062500000 0.500000000
vt 0.062500000 0.500000000
vt 0.062500000 0.500000000
vt 0.312500000 0.500000000
vt 0.312500000 0.500000000
vt 0.312500000 0.500000000
vt 0.312500000 0.500000000
vt 0.312500000 0.500000000
vt 0.312500000 0.500000000
vt 0.812500000 0.500000000
vt 0.812500000 0.500000000
vt 0.812500000 0.500000000
vt 0.812500000 0.500000000
vt 0.812500000 0.500000000
vt 0.812500000 0.500000000
vt 0.812500000 0.500000000
vt 0.812500000 0.500000000
vt 0.812500000 0.500000000
vt 0.812500000 0.500000000
vt 0.812500000 0.500000000
vt 0.812500000 0.500000000
vt 0.812500000 0.500000000
vt 0.812500000 0.500000000
vt 0.812500000 0.500000000
vt 0.812500000 0.500000000
vt 0.812500000 0.500000000
vt 0.812500000 0.500000000
vt 0.812500000 0.500000000
vt 0.812500000 0.500000000
vt 0.812500000 0.500000000
vt 0.812500000 0.500000000
vt 0.812500000 0.500000000
vt 0.812500000 0.500000000
vt 0.937500000 0.500000000
vt 0.937500000 0.500000000
vt 0.937500000 0.500000000
vt 0.562500000 0.500000000
vt 0.562500000 0.500000000
vt 0.562500000 0.500000000
vt 0.937500000 0.500000000
vt 0.937500000 0.500000000
vt 0.937500000 0.500000000
vt 0.562500000 0.500000000
vt 0.562500000 0.500000000
vt 0.562500000 0.500000000
vt 0.937500000 0.500000000
vt 0.937500000 0.500000000
vt 0.937500000 0.500000000
vt 0.562500000 0.500000000
vt 0.562500000 0.500000000
vt 0.562500000 0.500000000
vt 0.937500000 0.500000000
vt 0.937500000 0.500000000
vt 0.937500000 0.500000000
vt 0.562500000 0.500000000
vt 0.562500000 0.500000000
vt 0.562500000 0.500000000
vt 0.062500000 0.500000000
vt 0.062500000 0.500000000
vt 0.062500000 0.500000000
vt 0.062500000 0.500000000
vt 0.062500000 0.500000000
vt 0.062500000 0.500000000
vt 0.312500000 0.500000000
vt 0.312500000 0.500000000
vt 0.312500000 0.500000000
vt 0.312500000 0.500000000
vt 0.312500000 0.500000000
vt 0.312500000 0.500000000
vt 0.187500000 0.500000000
vt 0.187500000 0.500000000
vt 0.187500000 0.500000000
vt 0.187500000 0.500000000
vt 0.187500000 0.500000000
vt 0.187500000 0.500000000
vt 0.312500000 0.500000000
vt 0.312500000 0.500000000
vt 0.312500000 0.500000000
vt 0.312500000 0.500000000
vt 0.312500000 0.500000000
vt 0.312500000 0.500000000
vt 0.062500000 0.500000000
vt 0.062500000 0.500000000
vt 0.062500000 0.500000000
vt 0.062500000 0.500000000
vt 0.062500000 0.500000000
vt 0.062500000 0.500000000
vt 0.437500000 0.500000000
vt 0.437500000 0.500000000
vt 0.437500000 0.500000000
vt 0.437500000 0.500000000
vt 0.437500000 0.500000000
vt 0.437500000 0.500000000
vt 0.062500000 0.500000000
vt 0.062500000 0.500000000
vt 0.062500000 0.500000000
vt 0.062500000 0.500000000
vt 0.062500000 0.500000000
vt 0.062500000 0.500000000
vt 0.312500000 0.500000000
vt 0.312500000 0.500000000
vt 0.312500000 0.500000000
vt 0.312500000 0.500000000
vt 0.312500000 0.500000000
vt 0.312500000 0.500000000
vt 0.062500000 0.500000000
vt 0.062500000 0.500000000
vt 0.062500000 0.500000000
vt 0.062500000 0.500000000
vt 0.062500000 0.500000000
vt 0.062500000 0.500000000
vt 0.312500000 0.500000000
vt 0.312500000 0.500000000
vt 0.312500000 0.500000000
vt 0.312500000 0.500000000
vt 0.312500000 0.500000000
vt 0.312500000 0.500000000
vt 0.187500000 0.500000000
vt 0.187500000 0.500000000
vt 0.187500000 0.500000000
vt 0.187500000 0.500000000
vt 0.187500000 0.500000000
vt 0.187500000 0.500000000
vt 0.312500000 0.500000000
vt 0.312500000 0.500000000
vt 0.312500000 0.500000000
vt 0.312500000 0.500000000
vt 0.312500000 0.500000000
vt 0.312500000 0.500000000
vt 0.062500000 0.500000000
vt 0.062500000 0.500000000
vt 0.062500000 0.500000000
vt 0.062500000 0.500000000
vt 0.062500000 0.500000000
vt 0.062500000 0.500000000
vt 0.437500000 0.500000000
vt 0.437500000 0.500000000
vt 0.437500000 0.500000000
vt 0.437500000 0.500000000
vt 0.437500000 0.500000000
vt 0.437500000 0.500000000
vt 0.062500000 0.500000000
vt 0.062500000 0.500000000
vt 0.062500000 0.500000000
vt 0.062500000 0.500000000
vt 0.062500000 0.500000000
vt 0.062500000 0.500000000
vt 0.312500000 0.500000000
vt 0.312500000 0.500000000
vt 0.312500000 0.500000000
vt 0.312500000 0.500000000
vt 0.312500000 0.500000000
vt 0.312500000 0.500000000
vt 0.062500000 0.500000000
vt 0.062500000 0.500000000
vt 0.062500000 0.500000000
vt 0.062500000 0.500000000
vt 0.062500000 0.500000000
vt 0.062500000 0.500000000
vt 0.312500000 0.500000000
vt 0.312500000 0.500000000
vt 0.312500000 0.500000000
vt 0.312500000 0.500000000
vt 0.312500000 0.500000000
vt 0.312500000 0.500000000
vt 0.187500000 0.500000000
vt 0.187500000 0.500000000
vt 0.187500000 0.500000000
vt 0.187500000 0.500000000
vt 0.187500000 0.500000000
vt 0.187500000 0.500000000
vt 0.312500000 0.500000000
vt 0.312500000 0.500000000
vt 0.312500000 0.500000000
vt 0.312500000 0.500000000
vt 0.312500000 0.500000000
vt 0.312500000 0.500000000
vt 0.062500000 0.500000000
vt 0.062500000 0.500000000
vt 0.062500000 0.500000000
vt 0.062500000 0.500000000
vt 0.062500000 0.500000000
vt 0.062500000 0.500000000
vt 0.437500000 0.500000000
vt 0.437500000 0.500000000
vt 0.437500000 0.500000000
vt 0.437500000 0.500000000
vt 0.437500000 0.500000000
vt 0.437500000 0.500000000
vt 0.062500000 0.500000000
vt 0.062500000 0.500000000
vt 0.062500000 0.500000000
vt 0.062500000 0.500000000
vt 0.062500000 0.500000000
vt 0.062500000 0.500000000
vt 0.312500000 0.500000000
vt 0.312500000 0.500000000
vt 0.312500000 0.500000000
vt 0.312500000 0.500000000
vt 0.312500000 0.500000000
vt 0.312500000 0.500000000
vt 0.812500000 0.500000000
vt 0.812500000 0.500000000
vt 0.812500000 0.500000000
vt 0.812500000 0.500000000
vt 0.812500000 0.500000000
vt 0.812500000 0.500000000
vt 0.812500000 0.500000000
vt 0.812500000 0.500000000
vt 0.812500000 0.500000000
vt 0.812500000 0.500000000
vt 0.812500000 0.500000000
vt 0.812500000 0.500000000
vt 0.812500000 0.500000000
vt 0.812500000 0.500000000
vt 0.812500000 0.500000000
vt 0.812500000 0.500000000
vt 0.812500000 0.500000000
vt 0.812500000 0.500000000
vt 0.812500000 0.500000000
vt 0.812500000 0.500000000
vt 0.812500000 0.500000000
vt 0.812500000 0.500000000
vt 0.812500000 0.500000000
vt 0.812500000 0.500000000
vt 0.937500000 0.500000000
vt 0.937500000 0.500000000
vt 0.937500000 0.500000000
vt 0.562500000 0.500000000
vt 0.562500000 0.500000000
vt 0.562500000 0.500000000
vt 0.937500000 0.500000000
vt 0.937500000 0.500000000
vt 0.937500000 0.500000000
vt 0.562500000 0.500000000
vt 0.562500000 0.500000000
vt 0.562500000 0.500000000
vt 0.937500000 0.500000000
vt 0.937500000 0.500000000
vt 0.937500000 0.500000000
vt 0.562500000 0.500000000
vt 0.562500000 0.500000000
vt 0.562500000 0.500000000
vt 0.937500000 0.500000000
vt 0.937500000 0.500000000
vt 0.937500000 0.500000000
vt 0.562500000 0.500000000
vt 0.562500000 0.500000000
vt 0.562500000 0.500000000
vn 0.843136755 -0.266226248 -0.467165920
vn 0.843136755 -0.266226248 -0.467165920
vn 0.843136755 -0.266226248 -0.467165920
vn 0.840696643 -0.269696865 -0.469566561
vn 0.840696643 -0.269696865 -0.469566561
vn 0.840696643 -0.269696865 -0.469566561
vn 0.468068065 -0.259392528 -0.844764939
vn 0.468068065 -0.259392528 -0.844764939
vn 0.468068065 -0.259392528 -0.844764939
vn 0.461992426 -0.265919988 -0.846078931
vn 0.461992426 -0.265919988 -0.846078931
vn 0.461992426 -0.265919988 -0.846078931
vn -0.468958302 -0.252454298 -0.846371631
vn -0.468958302 -0.252454298 -0.846371631
vn -0.468958302 -0.252454298 -0.846371631
vn -0.473472023 -0.258546110 -0.842008404
vn -0.473472023 -0.258546110 -0.842008404
vn -0.473472023 -0.258546110 -0.842008404
vn -0.847253060 -0.248559975 -0.469446686
vn -0.847253060 -0.248559975 -0.469446686
vn -0.847253060 -0.248559975 -0.469446686
vn -0.848068492 -0.252088828 -0.466080525
vn -0.848068492 -0.252088828 -0.466080525
vn -0.848068492 -0.252088828 -0.466080525
vn -0.846401120 -0.252325049 0.468974641
vn -0.846401120 -0.252325049 0.468974641
vn -0.846401120 -0.252325049 0.468974641
vn -0.848749144 -0.248998883 0.466502355
vn -0.848749144 -0.248998883 0.466502355
vn -0.848749144 -0.248998883 0.466502355
vn -0.468068065 -0.259392528 0.844764939
vn -0.468068065 -0.259392528 0.844764939
vn -0.468068065 -0.259392528 0.844764939
vn -0.474087148 -0.252864183 0.843386673
vn -0.474087148 -0.252864183 0.843386673
vn -0.474087148 -0.252864183 0.843386673
vn 0.467147801 -0.266361567 0.843104055
vn 0.467147801 -0.266361567 0.843104055
vn 0.467147801 -0.266361567 0.843104055
vn 0.462864147 -0.260195873 0.847381195
vn 0.462864147 -0.260195873 0.847381195
vn 0.462864147 -0.260195873 0.847381195
vn 0.842176031 -0.270171455 0.466633601
vn 0.842176031 -0.270171455 0.466633601
vn 0.842176031 -0.270171455 0.466633601
vn 0.841503507 -0.266464366 0.469966583
vn 0.841503507 -0.266464366 0.469966583
vn 0.841503507 -0.266464366 0.469966583
vn 0.874709109 -0.007095595 -0.484596355
vn 0.874709109 -0.007095595 -0.484596355
vn 0.874709109 -0.007095595 -0.484596355
vn 0.874701050 -0.007097871 -0.484610867
vn 0.874701050 -0.007097871 -0.484610867
vn 0.874701050 -0.007097871 -0.484610867
vn 0.484867453 0.004396982 -0.874576594
vn 0.484867453 0.004396982 -0.874576594
vn 0.484867453 0.004396982 -0.874576594
vn 0.484838160 0.004392942 -0.874592854
vn 0.484838160 0.004392942 -0.874592854
vn 0.484838160 0.004392942 -0.874592854
vn -0.483860504 0.032950503 -0.874524601
vn -0.483860504 0.032950503 -0.874524601
vn -0.483860504 0.032950503 -0.874524601
vn -0.483897535 0.032945205 -0.874504310
vn -0.483897535 0.032945205 -0.874504310
vn -0.483897535 0.032945205 -0.874504310
vn -0.873637109 0.044440895 -0.484544330
vn -0.873637109 0.044440895 -0.484544330
vn -0.873637109 0.044440895 -0.484544330
vn -0.873649515 0.044437550 -0.484522268
vn -0.873649515 0.044437550 -0.484522268
vn -0.873649515 0.044437550 -0.484522268
vn -0.873637270 0.044437325 0.484544368
vn -0.873637270 0.044437325 0.484544368
vn -0.873637270 0.044437325 0.484544368
vn -0.873649339 0.044441517 0.484522223
vn -0.873649339 0.044441517 0.484522223
vn -0.873649339 0.044441517 0.484522223
vn -0.483860718 0.032944556 0.874524706
vn -0.483860718 0.032944556 0.874524706
vn -0.483860718 0.032944556 0.874524706
vn -0.483897309 0.032951814 0.874504187
vn -0.483897309 0.032951814 0.874504187
vn -0.483897309 0.032951814 0.874504187
vn 0.484867369 0.004392261 0.874576665
vn 0.484867369 0.004392261 0.874576665
vn 0.484867369 0.004392261 0.874576665
vn 0.484838245 0.004398188 0.874592781
vn 0.484838245 0.004398188 0.874592781
vn 0.484838245 0.004398188 0.874592781
vn 0.874709080 -0.007097936 0.484596373
vn 0.874709080 -0.007097936 0.484596373
vn 0.874709080 -0.007097936 0.484596373
vn 0.874701081 -0.007095269 0.484610850
vn 0.874701081 -0.007095269 0.484610850
vn 0.874701081 -0.007095269 0.484610850
vn 0.837913890 0.293362259 -0.460259599
vn 0.837913890 0.293362259 -0.460259599
vn 0.837913890 0.293362259 -0.460259599
vn 0.836651587 0.291743987 -0.463572612
vn 0.836651587 0.291743987 -0.463572612
vn 0.836651587 0.291743987 -0.463572612
vn 0.468417641 0.296143573 -0.832396479
vn 0.468417641 0.296143573 -0.832396479
vn 0.468417641 0.296143573 -0.832396479
vn 0.463282735 0.293697760 -0.836128419
vn 0.463282735 0.293697760 -0.836128419
vn 0.463282735 0.293697760 -0.836128419
vn -0.456940826 0.300019106 -0.837373046
vn -0.456940826 0.300019106 -0.837373046
vn -0.456940826 0.300019106 -0.837373046
vn -0.462766853 0.297140049 -0.835197361
vn -0.462766853 0.297140049 -0.835197361
vn -0.462766853 0.297140049 -0.835197361
vn -0.832270775 0.301819303 -0.465005877
vn -0.832270775 0.301819303 -0.465005877
vn -0.832270775 0.301819303 -0.465005877
vn -0.834283025 0.300478464 -0.462260237
vn -0.834283025 0.300478464 -0.462260237
vn -0.834283025 0.300478464 -0.462260237
vn -0.832571301 0.300753769 0.465158252
vn -0.832571301 0.300753769 0.465158252
vn -0.832571301 0.300753769 0.465158252
vn -0.833762664 0.302360330 0.461971916
vn -0.833762664 0.302360330 0.461971916
vn -0.833762664 0.302360330 0.461971916
vn -0.457268442 0.298094904 0.837881257
vn -0.457268442 0.298094904 0.837881257
vn -0.457268442 0.298094904 0.837881257
vn -0.462252359 0.300530061 0.834268805
vn -0.462252359 0.300530061 0.834268805
vn -0.462252359 0.300530061 0.834268805
vn 0.468673921 0.294195586 0.832942803
vn 0.468673921 0.294195586 0.832942803
vn 0.468673921 0.294195586 0.832942803
vn 0.462766853 0.297140049 0.835197361
vn 0.462766853 0.297140049 0.835197361
vn 0.462766853 0.297140049 0.835197361
vn 0.838197034 0.292282891 0.460430715
vn 0.838197034 0.292282891 0.460430715
vn 0.838197034 0.292282891 0.460430715
vn 0.836142030 0.293647111 0.463290276
vn 0.836142030 0.293647111 0.463290276
vn 0.836142030 0.293647111 0.463290276
vn 0.000000000 -1.000000000 -0.000000000
vn 0.000000000 -1.000000000 -0.000000000
vn 0.000000000 -1.000000000 -0.000000000
vn -0.000000000 -1.000000000 -0.000000000
vn -0.000000000 -1.000000000 -0.000000000
vn -0.000000000 -1.000000000 -0.000000000
vn -0.000000000 -1.000000000 -0.000000000
vn -0.000000000 -1.000000000 -0.000000000
vn -0.000000000 -1.000000000 -0.000000000
vn -0.000000000 -1.000000000 -0.000000000
vn -0.000000000 -1.000000000 -0.000000000
vn -0.000000000 -1.000000000 -0.000000000
vn -0.000000000 -1.000000000 -0.000000000
vn -0.000000000 -1.000000000 -0.000000000
vn -0.000000000 -1.000000000 -0.000000000
vn -0.000000000 -1.000000000 -0.000000000
vn -0.000000000 -1.000000000 -0.000000000
vn -0.000000000 -1.000000000 -0.000000000
vn -0.000000000 -1.000000000 0.000000000
vn -0.000000000 -1.000000000 0.000000000
vn -0.000000000 -1.000000000 0.000000000
vn -0.000000000 -1.000000000 -0.000000000
vn -0.000000000 -1.000000000 -0.000000000
vn -0.000000000 -1.000000000 -0.000000000
vn 0.437830175 0.865709665 -0.242593310
vn 0.437830175 0.865709665 -0.242593310
vn 0.437830175 0.865709665 -0.242593310
vn 0.242593310 0.865709665 -0.437830175
vn 0.242593310 0.865709665 -0.437830175
vn 0.242593310 0.865709665 -0.437830175
vn -0.242593310 0.865709665 -0.437830175
vn -0.242593310 0.865709665 -0.437830175
vn -0.242593310 0.865709665 -0.437830175
vn -0.437830175 0.865709665 -0.242593310
vn -0.437830175 0.865709665 -0.242593310
vn -0.437830175 0.865709665 -0.242593310
vn -0.437830175 0.865709665 0.242593310
vn -0.437830175 0.865709665 0.242593310
vn -0.437830175 0.865709665 0.242593310
vn -0.242593310 0.865709665 0.437830175
vn -0.242593310 0.865709665 0.437830175
vn -0.242593310 0.865709665 0.437830175
vn 0.242593310 0.865709665 0.437830175
vn 0.242593310 0.865709665 0.437830175
vn 0.242593310 0.865709665 0.437830175
vn 0.437830175 0.865709665 0.242593310
vn 0.437830175 0.865709665 0.242593310
vn 0.437830175 0.865709665 0.242593310
vn 0.850660972 -0.232850339 -0.471334944
vn 0.850660972 -0.232850339 -0.471334944
vn 0.850660972 -0.232850339 -0.471334944
vn 0.847925943 -0.236587428 -0.474392225
vn 0.847925943 -0.236587428 -0.474392225
vn 0.847925943 -0.236587428 -0.474392225
vn 0.472165628 -0.225571813 -0.852160183
vn 0.472165628 -0.225571813 -0.852160183
vn 0.472165628 -0.225571813 -0.852160183
vn 0.464943034 -0.232617301 -0.854234843
vn 0.464943034 -0.232617301 -0.854234843
vn 0.464943034 -0.232617301 -0.854234843
vn -0.473005811 -0.217949245 -0.853676537
vn -0.473005811 -0.217949245 -0.853676537
vn -0.473005811 -0.217949245 -0.853676537
vn -0.478938187 -0.224634933 -0.848620858
vn -0.478938187 -0.224634933 -0.848620858
vn -0.478938187 -0.224634933 -0.848620858
vn -0.854521936 -0.213575314 -0.473474230
vn -0.854521936 -0.213575314 -0.473474230
vn -0.854521936 -0.213575314 -0.473474230
vn -0.855815114 -0.217455736 -0.469354338
vn -0.855815114 -0.217455736 -0.469354338
vn -0.855815114 -0.217455736 -0.469354338
vn -0.853721775 -0.217717525 0.473030876
vn -0.853721775 -0.217717525 0.473030876
vn -0.853721775 -0.217717525 0.473030876
vn -0.856442789 -0.214055404 0.469772320
vn -0.856442789 -0.214055404 0.469772320
vn -0.856442789 -0.214055404 0.469772320
vn -0.472165628 -0.225571813 0.852160183
vn -0.472165628 -0.225571813 0.852160183
vn -0.472165628 -0.225571813 0.852160183
vn -0.479447829 -0.218393687 0.849961162
vn -0.479447829 -0.218393687 0.849961162
vn -0.479447829 -0.218393687 0.849961162
vn 0.471306376 -0.233096389 0.850609413
vn 0.471306376 -0.233096389 0.850609413
vn 0.471306376 -0.233096389 0.850609413
vn 0.465827986 -0.226433005 0.855413574
vn 0.465827986 -0.226433005 0.855413574
vn 0.465827986 -0.226433005 0.855413574
vn 0.849762397 -0.237099834 0.470837061
vn 0.849762397 -0.237099834 0.470837061
vn 0.849762397 -0.237099834 0.470837061
vn 0.848692575 -0.233106180 0.474744586
vn 0.848692575 -0.233106180 0.474744586
vn 0.848692575 -0.233106180 0.474744586
vn 0.874626569 -0.014598142 -0.484577402
vn 0.874626569 -0.014598142 -0.484577402
vn 0.874626569 -0.014598142 -0.484577402
vn 0.874619788 -0.014600581 -0.484589568
vn 0.874619788 -0.014600581 -0.484589568
vn 0.874619788 -0.014600581 -0.484589568
vn 0.484992876 0.002739551 -0.874513810
vn 0.484992876 0.002739551 -0.874513810
vn 0.484992876 0.002739551 -0.874513810
vn 0.484966955 0.002735073 -0.874528200
vn 0.484966955 0.002735073 -0.874528200
vn 0.484966955 0.002735073 -0.874528200
vn -0.483095628 0.045812186 -0.874368262
vn -0.483095628 0.045812186 -0.874368262
vn -0.483095628 0.045812186 -0.874368262
vn -0.483131419 0.045805781 -0.874348822
vn -0.483131419 0.045805781 -0.874348822
vn -0.483131419 0.045805781 -0.874348822
vn -0.872547373 0.063141928 -0.484431810
vn -0.872547373 0.063141928 -0.484431810
vn -0.872547373 0.063141928 -0.484431810
vn -0.872559730 0.063137722 -0.484410100
vn -0.872559730 0.063137722 -0.484410100
vn -0.872559730 0.063137722 -0.484410100
vn -0.872547666 0.063137359 0.484431877
vn -0.872547666 0.063137359 0.484431877
vn -0.872547666 0.063137359 0.484431877
vn -0.872559407 0.063142798 0.484410022
vn -0.872559407 0.063142798 0.484410022
vn -0.872559407 0.063142798 0.484410022
vn -0.483096007 0.045804751 0.874368442
vn -0.483096007 0.045804751 0.874368442
vn -0.483096007 0.045804751 0.874368442
vn -0.483131009 0.045814043 0.874348616
vn -0.483131009 0.045814043 0.874348616
vn -0.483131009 0.045814043 0.874348616
vn 0.484992729 0.002734132 0.874513909
vn 0.484992729 0.002734132 0.874513909
vn 0.484992729 0.002734132 0.874513909
vn 0.484967111 0.002741094 0.874528094
vn 0.484967111 0.002741094 0.874528094
vn 0.484967111 0.002741094 0.874528094
vn 0.874626514 -0.014600693 0.484577424
vn 0.874626514 -0.014600693 0.484577424
vn 0.874626514 -0.014600693 0.484577424
vn 0.874619848 -0.014597746 0.484589545
vn 0.874619848 -0.014597746 0.484589545
vn 0.874619848 -0.014597746 0.484589545
vn 0.821060366 0.354244876 -0.447627573
vn 0.821060366 0.354244876 -0.447627573
vn 0.821060366 0.354244876 -0.447627573
vn 0.819124094 0.350779053 -0.453860964
vn 0.819124094 0.350779053 -0.453860964
vn 0.819124094 0.350779053 -0.453860964
vn 0.462155624 0.360265968 -0.810321301
vn 0.462155624 0.360265968 -0.810321301
vn 0.462155624 0.360265968 -0.810321301
vn 0.453090589 0.354993615 -0.817733729
vn 0.453090589 0.354993615 -0.817733729
vn 0.453090589 0.354993615 -0.817733729
vn -0.440607361 0.368718883 -0.818481239
vn -0.440607361 0.368718883 -0.818481239
vn -0.440607361 0.368718883 -0.818481239
vn -0.451702270 0.362447515 -0.815228102
vn -0.451702270 0.362447515 -0.815228102
vn -0.451702270 0.362447515 -0.815228102
vn -0.808669341 0.372667665 -0.455162288
vn -0.808669341 0.372667665 -0.455162288
vn -0.808669341 0.372667665 -0.455162288
vn -0.812726734 0.369716754 -0.450316309
vn -0.812726734 0.369716754 -0.450316309
vn -0.812726734 0.369716754 -0.450316309
vn -0.809511483 0.370318942 0.455582090
vn -0.809511483 0.370318942 0.455582090
vn -0.809511483 0.370318942 0.455582090
vn -0.811272677 0.373867388 0.449510645
vn -0.811272677 0.373867388 0.449510645
vn -0.811272677 0.373867388 0.449510645
vn -0.441527358 0.364510901 0.819869133
vn -0.441527358 0.364510901 0.819869133
vn -0.441527358 0.364510901 0.819869133
vn -0.450290238 0.369851914 0.812679680
vn -0.450290238 0.369851914 0.812679680
vn -0.450290238 0.369851914 0.812679680
vn 0.462825010 0.356051982 0.811800466
vn 0.462825010 0.356051982 0.811800466
vn 0.462825010 0.356051982 0.811800466
vn 0.451702270 0.362447515 0.815228102
vn 0.451702270 0.362447515 0.815228102
vn 0.451702270 0.362447515 0.815228102
vn 0.821806218 0.351927637 0.448086463
vn 0.821806218 0.351927637 0.448086463
vn 0.821806218 0.351927637 0.448086463
vn 0.817777347 0.354862267 0.453114757
vn 0.817777347 0.354862267 0.453114757
vn 0.817777347 0.354862267 0.453114757
vn 0.000000000 -1.000000000 -0.000000000
vn 0.000000000 -1.000000000 -0.000000000
vn 0.000000000 -1.000000000 -0.000000000
vn -0.000000000 -1.000000000 -0.000000000
vn -0.000000000 -1.000000000 -0.000000000
vn -0.000000000 -1.000000000 -0.000000000
vn -0.000000000 -1.000000000 -0.000000000
vn -0.000000000 -1.000000000 -0.000000000
vn -0.000000000 -1.000000000 -0.000000000
vn -0.000000000 -1.000000000 -0.000000000
vn -0.000000000 -1.000000000 -0.000000000
vn -0.000000000 -1.000000000 -0.000000000
vn -0.000000000 -1.000000000 -0.000000000
vn -0.000000000 -1.000000000 -0.000000000
vn -0.000000000 -1.000000000 -0.000000000
vn -0.000000000 -1.000000000 -0.000000000
vn -0.000000000 -1.000000000 -0.000000000
vn -0.000000000 -1.000000000 -0.000000000
vn -0.000000000 -1.000000000 0.000000000
vn -0.000000000 -1.000000000 0.000000000
vn -0.000000000 -1.000000000 0.000000000
vn -0.000000000 -1.000000000 -0.000000000
vn -0.000000000 -1.000000000 -0.000000000
vn -0.000000000 -1.000000000 -0.000000000
vn 0.367297180 0.907565707 -0.203512329
vn 0.367297180 0.907565707 -0.203512329
vn 0.367297180 0.907565707 -0.203512329
vn 0.203512329 0.907565707 -0.367297180
vn 0.203512329 0.907565707 -0.367297180
vn 0.203512329 0.907565707 -0.367297180
vn -0.203512329 0.907565707 -0.367297180
vn -0.203512329 0.907565707 -0.367297180
vn -0.203512329 0.907565707 -0.367297180
vn -0.367297180 0.907565707 -0.203512329
vn -0.367297180 0.907565707 -0.203512329
vn -0.367297180 0.907565707 -0.203512329
vn -0.367297180 0.907565707 0.203512329
vn -0.367297180 0.907565707 0.203512329
vn -0.367297180 0.907565707 0.203512329
vn -0.203512329 0.907565707 0.367297180
vn -0.203512329 0.907565707 0.367297180
vn -0.203512329 0.907565707 0.367297180
vn 0.203512329 0.907565707 0.367297180
vn 0.203512329 0.907565707 0.367297180
vn 0.203512329 0.907565707 0.367297180
vn 0.367297180 0.907565707 0.203512329
vn 0.367297180 0.907565707 0.203512329
vn 0.367297180 0.907565707 0.203512329
vn 0.855736156 -0.207123748 -0.474147006
vn 0.855736156 -0.207123748 -0.474147006
vn 0.855736156 -0.207123748 -0.474147006
vn 0.852757672 -0.211002791 -0.477788839
vn 0.852757672 -0.211002791 -0.477788839
vn 0.852757672 -0.211002791 -0.477788839
vn 0.474899209 -0.199652421 -0.857093724
vn 0.474899209 -0.199652421 -0.857093724
vn 0.474899209 -0.199652421 -0.857093724
vn 0.466608981 -0.207024716 -0.859893497
vn 0.466608981 -0.207024716 -0.859893497
vn 0.466608981 -0.207024716 -0.859893497
vn -0.475692189 -0.191447016 -0.858524887
vn -0.475692189 -0.191447016 -0.858524887
vn -0.475692189 -0.191447016 -0.858524887
vn -0.483107844 -0.198636205 -0.852731182
vn -0.483107844 -0.198636205 -0.852731182
vn -0.483107844 -0.198636205 -0.852731182
vn -0.859342352 -0.186591899 -0.476145130
vn -0.859342352 -0.186591899 -0.476145130
vn -0.859342352 -0.186591899 -0.476145130
vn -0.861141202 -0.190786681 -0.471207251
vn -0.861141202 -0.190786681 -0.471207251
vn -0.861141202 -0.190786681 -0.471207251
vn -0.858588745 -0.191072355 0.475727571
vn -0.858588745 -0.191072355 0.475727571
vn -0.858588745 -0.191072355 0.475727571
vn -0.861717441 -0.187107610 0.471628874
vn -0.861717441 -0.187107610 0.471628874
vn -0.861717441 -0.187107610 0.471628874
vn -0.474899209 -0.199652421 0.857093724
vn -0.474899209 -0.199652421 0.857093724
vn -0.474899209 -0.199652421 0.857093724
vn -0.483498828 -0.191917944 0.854047063
vn -0.483498828 -0.191917944 0.854047063
vn -0.483498828 -0.191917944 0.854047063
vn 0.474105568 -0.207527180 0.855661370
vn 0.474105568 -0.207527180 0.855661370
vn 0.474105568 -0.207527180 0.855661370
vn 0.467514320 -0.200547482 0.860936158
vn 0.467514320 -0.200547482 0.860936158
vn 0.467514320 -0.200547482 0.860936158
vn 0.854910077 -0.211535374 0.473689292
vn 0.854910077 -0.211535374 0.473689292
vn 0.854910077 -0.211535374 0.473689292
vn 0.853477250 -0.207389122 0.478086117
vn 0.853477250 -0.207389122 0.478086117
vn 0.853477250 -0.207389122 0.478086117
vn 0.874386846 -0.025271109 -0.484570960
vn 0.874386846 -0.025271109 -0.484570960
vn 0.874386846 -0.025271109 -0.484570960
vn 0.874389840 -0.025269775 -0.484565627
vn 0.874389840 -0.025269775 -0.484565627
vn 0.874389840 -0.025269775 -0.484565627
vn 0.485118254 -0.000268010 -0.874448516
vn 0.485118254 -0.000268010 -0.874448516
vn 0.485118254 -0.000268010 -0.874448516
vn 0.485130587 -0.000265411 -0.874441675
vn 0.485130587 -0.000265411 -0.874441675
vn 0.485130587 -0.000265411 -0.874441675
vn -0.481812179 0.061836407 -0.874089974
vn -0.481812179 0.061836407 -0.874089974
vn -0.481812179 0.061836407 -0.874089974
vn -0.481793115 0.061840554 -0.874100189
vn -0.481793115 0.061840554 -0.874100189
vn -0.481793115 0.061840554 -0.874100189
vn -0.870633613 0.086806407 -0.484212515
vn -0.870633613 0.086806407 -0.484212515
vn -0.870633613 0.086806407 -0.484212515
vn -0.870626786 0.086809248 -0.484224280
vn -0.870626786 0.086809248 -0.484224280
vn -0.870626786 0.086809248 -0.484224280
vn -0.870633336 0.086809549 0.484212449
vn -0.870633336 0.086809549 0.484212449
vn -0.870633336 0.086809549 0.484212449
vn -0.870627094 0.086805757 0.484224352
vn -0.870627094 0.086805757 0.484224352
vn -0.870627094 0.086805757 0.484224352
vn -0.481811837 0.061841390 0.874089810
vn -0.481811837 0.061841390 0.874089810
vn -0.481811837 0.061841390 0.874089810
vn -0.481793498 0.061835017 0.874100369
vn -0.481793498 0.061835017 0.874100369
vn -0.481793498 0.061835017 0.874100369
vn 0.485118380 -0.000264751 0.874448447
vn 0.485118380 -0.000264751 0.874448447
vn 0.485118380 -0.000264751 0.874448447
vn 0.485130445 -0.000269032 0.874441753
vn 0.485130445 -0.000269032 0.874441753
vn 0.485130445 -0.000269032 0.874441753
vn 0.874386894 -0.025269690 0.484570947
vn 0.874386894 -0.025269690 0.484570947
vn 0.874386894 -0.025269690 0.484570947
vn 0.874389786 -0.025271352 0.484565642
vn 0.874389786 -0.025271352 0.484565642
vn 0.874389786 -0.025271352 0.484565642
vn 0.803105858 0.409496635 -0.432820386
vn 0.803105858 0.409496635 -0.432820386
vn 0.803105858 0.409496635 -0.432820386
vn 0.800519603 0.403025411 -0.443552572
vn 0.800519603 0.403025411 -0.443552572
vn 0.800519603 0.403025411 -0.443552572
vn 0.456434417 0.420897255 -0.783908874
vn 0.456434417 0.420897255 -0.783908874
vn 0.456434417 0.420897255 -0.783908874
vn 0.441837941 0.410965351 -0.797425052
vn 0.441837941 0.410965351 -0.797425052
vn 0.441837941 0.410965351 -0.797425052
vn -0.419151180 0.437102921 -0.795772157
vn -0.419151180 0.437102921 -0.795772157
vn -0.419151180 0.437102921 -0.795772157
vn -0.438685544 0.425099609 -0.791735635
vn -0.438685544 0.425099609 -0.791735635
vn -0.438685544 0.425099609 -0.791735635
vn -0.778281503 0.444754723 -0.443250649
vn -0.778281503 0.444754723 -0.443250649
vn -0.778281503 0.444754723 -0.443250649
vn -0.785901361 0.439021454 -0.435452884
vn -0.785901361 0.439021454 -0.435452884
vn -0.785901361 0.439021454 -0.435452884
vn -0.780312172 0.440181034 0.444244945
vn -0.780312172 0.440181034 0.444244945
vn -0.780312172 0.440181034 0.444244945
vn -0.782404322 0.447110739 0.433515242
vn -0.782404322 0.447110739 0.433515242
vn -0.782404322 0.447110739 0.433515242
vn -0.421359822 0.429003625 0.799006752
vn -0.421359822 0.429003625 0.799006752
vn -0.421359822 0.429003625 0.799006752
vn -0.435380244 0.439328056 0.785770260
vn -0.435380244 0.439328056 0.785770260
vn -0.435380244 0.439328056 0.785770260
vn 0.457902073 0.412917472 0.787289561
vn 0.457902073 0.412917472 0.787289561
vn 0.457902073 0.412917472 0.787289561
vn 0.438685544 0.425099609 0.791735635
vn 0.438685544 0.425099609 0.791735635
vn 0.438685544 0.425099609 0.791735635
vn 0.804749297 0.405154870 0.433852626
vn 0.804749297 0.405154870 0.433852626
vn 0.804749297 0.405154870 0.433852626
vn 0.797541469 0.410669981 0.441902445
vn 0.797541469 0.410669981 0.441902445
vn 0.797541469 0.410669981 0.441902445
vn 0.000000000 -1.000000000 -0.000000000
vn 0.000000000 -1.000000000 -0.000000000
vn 0.000000000 -1.000000000 -0.000000000
vn -0.000000000 -1.000000000 -0.000000000
vn -0.000000000 -1.000000000 -0.000000000
vn -0.000000000 -1.000000000 -0.000000000
vn -0.000000000 -1.000000000 -0.000000000
vn -0.000000000 -1.000000000 -0.000000000
vn -0.000000000 -1.000000000 -0.000000000
vn -0.000000000 -1.000000000 -0.000000000
vn -0.000000000 -1.000000000 -0.000000000
vn -0.000000000 -1.000000000 -0.000000000
vn -0.000000000 -1.000000000 -0.000000000
vn -0.000000000 -1.000000000 -0.000000000
vn -0.000000000 -1.000000000 -0.000000000
vn -0.000000000 -1.000000000 -0.000000000
vn -0.000000000 -1.000000000 -0.000000000
vn -0.000000000 -1.000000000 -0.000000000
vn -0.000000000 -1.000000000 0.000000000
vn -0.000000000 -1.000000000 0.000000000
vn -0.000000000 -1.000000000 0.000000000
vn -0.000000000 -1.000000000 -0.000000000
vn -0.000000000 -1.000000000 -0.000000000
vn -0.000000000 -1.000000000 -0.000000000
vn 0.312935547 0.933812990 -0.173391590
vn 0.312935547 0.933812990 -0.173391590
vn 0.312935547 0.933812990 -0.173391590
vn 0.173391590 0.933812990 -0.312935547
vn 0.173391590 0.933812990 -0.312935547
vn 0.173391590 0.933812990 -0.312935547
vn -0.173391590 0.933812990 -0.312935547
vn -0.173391590 0.933812990 -0.312935547
vn -0.173391590 0.933812990 -0.312935547
vn -0.312935547 0.933812990 -0.173391590
vn -0.312935547 0.933812990 -0.173391590
vn -0.312935547 0.933812990 -0.173391590
vn -0.312935547 0.933812990 0.173391590
vn -0.312935547 0.933812990 0.173391590
vn -0.312935547 0.933812990 0.173391590
vn -0.173391590 0.933812990 0.312935547
vn -0.173391590 0.933812990 0.312935547
vn -0.173391590 0.933812990 0.312935547
vn 0.173391590 0.933812990 0.312935547
vn 0.173391590 0.933812990 0.312935547
vn 0.173391590 0.933812990 0.312935547
vn 0.312935547 0.933812990 0.173391590
vn 0.312935547 0.933812990 0.173391590
vn 0.312935547 0.933812990 0.173391590
o stem_0
f 1/1/1 2/2/2 3/3/3
f 4/4/4 5/5/5 6/6/6
f 7/7/7 8/8/8 9/9/9
f 10/10/10 11/11/11 12/12/12
f 13/13/13 14/14/14 15/15/15
f 16/16/16 17/17/17 18/18/18
f 19/19/19 20/20/20 21/21/21
f 22/22/22 23/23/23 24/24/24
f 25/25/25 26/26/26 27/27/27
f 28/28/28 29/29/29 30/30/30
f 31/31/31 32/32/32 33/33/33
f 34/34/34 35/35/35 36/36/36
f 37/37/37 38/38/38 39/39/39
f 40/40/40 41/41/41 42/42/42
f 43/43/43 44/44/44 45/45/45
f 46/46/46 47/47/47 48/48/48
f 49/49/49 50/50/50 51/51/51
f 52/52/52 53/53/53 54/54/54
f 55/55/55 56/56/56 57/57/57
f 58/58/58 59/59/59 60/60/60
f 61/61/61 62/62/62 63/63/63
f 64/64/64 65/65/65 66/66/66
f 67/67/67 68/68/68 69/69/69
f 70/70/70 71/71/71 72/72/72
f 73/73/73 74/74/74 75/75/75
f 76/76/76 77/77/77 78/78/78
f 79/79/79 80/80/80 81/81/81
f 82/82/82 83/83/83 84/84/84
f 85/85/85 86/86/86 87/87/87
f 88/88/88 89/89/89 90/90/90
f 91/91/91 92/92/92 93/93/93
f 94/94/94 95/95/95 96/96/96
f 97/97/97 98/98/98 99/99/99
f 100/100/100 101/101/101 102/102/102
f 103/103/103 104/104/104 105/105/105
f 106/106/106 107/107/107 108/108/108
f 109/109/109 110/110/110 111/111/111
f 112/112/112 113/113/113 114/114/114
f 115/115/115 116/116/116 117/117/117
f 118/118/118 119/119/119 120/120/120
f 121/121/121 122/122/122 123/123/123
f 124/124/124 125/125/125 126/126/126
f 127/127/127 128/128/128 129/129/129
f 130/130/130 131/131/131 132/132/132
f 133/133/133 134/134/134 135/135/135
f 136/136/136 137/137/137 138/138/138
f 139/139/139 140/140/140 141/141/141
f 142/142/142 143/143/143 144/144/144
f 145/145/145 146/146/146 147/147/147
f 148/148/148 149/149/149 150/150/150
f 151/151/151 152/152/152 153/153/153
f 154/154/154 155/155/155 156/156/156
f 157/157/157 158/158/158 159/159/159
f 160/160/160 161/161/161 162/162/162
f 163/163/163 164/164/164 165/165/165
f 166/166/166 167/167/167 168/168/168
f 169/169/169 170/170/170 171/171/171
f 172/172/172 173/173/173 174/174/174
f 175/175/175 176/176/176 177/177/177
f 178/178/178 179/179/179 180/180/180
f 181/181/181 182/182/182 183/183/183
f 184/184/184 185/185/185 186/186/186
f 187/187/187 188/188/188 189/189/189
f 190/190/190 191/191/191 192/192/192
o stem_1
f 193/193/193 194/194/194 195/195/195
f 196/196/196 197/197/197 198/198/198
f 199/199/199 200/200/200 201/201/201
f 202/202/202 203/203/203 204/204/204
f 205/205/205 206/206/206 207/207/207
f 208/208/208 209/209/209 210/210/210
f 211/211/211 212/212/212 213/213/213
f 214/214/214 215/215/215 216/216/216
f 217/217/217 218/218/218 219/219/219
f 220/220/220 221/221/221 222/222/222
f 223/223/223 224/224/224 225/225/225
f 226/226/226 227/227/227 228/228/228
f 229/229/229 230/230/230 231/231/231
f 232/232/232 233/233/233 234/234/234
f 235/235/235 236/236/236 237/237/237
f 238/238/238 239/239/239 240/240/240
f 241/241/241 242/242/242 243/243/243
f 244/244/244 245/245/245 246/246/246
f 247/247/247 248/248/248 249/249/249
f 250/250/250 251/251/251 252/252/252
f 253/253/253 254/254/254 255/255/255
f 256/256/256 257/257/257 258/258/258
f 259/259/259 260/260/260 261/261/261
f 262/262/262 263/263/263 264/264/264
f 265/265/265 266/266/266 267/267/267
f 268/268/268 269/269/269 270/270/270
f 271/271/271 272/272/272 273/273/273
f 274/274/274 275/275/275 276/276/276
f 277/277/277 278/278/278 279/279/279
f 280/280/280 281/281/281 282/282/282
f 283/283/283 284/284/284 285/285/285
f 286/286/286 287/287/287 288/288/288
f 289/289/289 290/290/290 291/291/291
f 292/292/292 293/293/293 294/294/294
f 295/295/295 296/296/296 297/297/297
f 298/298/298 299/299/299 300/300/300
f 301/301/301 302/302/302 303/303/303
f 304/304/304 305/305/305 306/306/306
f 307/307/307 308/308/308 309/309/309
f 310/310/310 311/311/311 312/312/312
f 313/313/313 314/314/314 315/315/315
f 316/316/316 317/317/317 318/318/318
f 319/319/319 320/320/320 321/321/321
f 322/322/322 323/323/323 324/324/324
f 325/325/325 326/326/326 327/327/327
f 328/328/328 329/329/329 330/330/330
f 331/331/331 332/332/332 333/333/333
f 334/334/334 335/335/335 336/336/336
f 337/337/337 338/338/338 339/339/339
f 340/340/340 341/341/341 342/342/342
f 343/343/343 344/344/344 345/345/345
f 346/346/346 347/347/347 348/348/348
f 349/349/349 350/350/350 351/351/351
f 352/352/352 353/353/353 354/354/354
f 355/355/355 356/356/356 357/357/357
f 358/358/358 359/359/359 360/360/360
f 361/361/361 362/362/362 363/363/363
f 364/364/364 365/365/365 366/366/366
f 367/367/367 368/368/368 369/369/369
f 370/370/370 371/371/371 372/372/372
f 373/373/373 374/374/374 375/375/375
f 376/376/376 377/377/377 378/378/378
f 379/379/379 380/380/380 381/381/381
f 382/382/382 383/383/383 384/384/384
o stem_2
f 385/385/385 386/386/386 387/387/387
f 388/388/388 389/389/389 390/390/390
f 391/391/391 392/392/392 393/393/393
f 394/394/394 395/395/395 396/396/396
f 397/397/397 398/398/398 399/399/399
f 400/400/400 401/401/401 402/402/402
f 403/403/403 404/404/404 405/405/405
f 406/406/406 407/407/407 408/408/408
f 409/409/409 410/410/410 411/411/411
f 412/412/412 413/413/413 414/414/414
f 415/415/415 416/416/416 417/417/417
f 418/418/418 419/419/419 420/420/420
f 421/421/421 422/422/422 423/423/423
f 424/424/424 425/425/425 426/426/426
f 427/427/427 428/428/428 429/429/429
f 430/430/430 431/431/431 432/432/432
f 433/433/433 434/434/434 435/435/435
f 436/436/436 437/437/437 438/438/438
f 439/439/439 440/440/440 441/441/441
f 442/442/442 443/443/443 444/444/444
f 445/445/445 446/446/446 447/447/447
f 448/448/448 449/449/449 450/450/450
f 451/451/451 452/452/452 453/453/453
f 454/454/454 455/455/455 456/456/456
f 457/457/457 458/458/458 459/459/459
f 460/460/460 461/461/461 462/462/462
f 463/463/463 464/464/464 465/465/465
f 466/466/466 467/467/467 468/468/468
f 469/469/469 470/470/470 471/471/471
f 472/472/472 473/473/473 474/474/474
f 475/475/475 476/476/476 477/477/477
f 478/478/478 479/479/479 480/480/480
f 481/481/481 482/482/482 483/483/483
f 484/484/484 485/485/485 486/486/486
f 487/487/487 488/488/488 489/489/489
f 490/490/490 491/491/491 492/492/492
f 493/493/493 494/494/494 495/495/495
f 496/496/496 497/497/497 498/498/498
f 499/499/499 500/500/500 501/501/501
f 502/502/502 503/503/503 504/504/504
f 505/505/505 506/506/506 507/507/507
f 508/508/508 509/509/509 510/510/510
f 511/511/511 512/512/512 513/513/513
f 514/514/514 515/515/515 516/516/516
f 517/517/517 518/518/518 519/519/519
f 520/520/520 521/521/521 522/522/522
f 523/523/523 524/524/524 525/525/525
f 526/526/526 527/527/527 528/528/528
f 529/529/529 530/530/530 531/531/531
f 532/532/532 533/533/533 534/534/534
f 535/535/535 536/536/536 537/537/537
f 538/538/538 539/539/539 540/540/540
f 541/541/541 542/542/542 543/543/543
f 544/544/544 545/545/545 546/546/546
f 547/547/547 548/548/548 549/549/549
f 550/550/550 551/551/551 552/552/552
f 553/553/553 554/554/554 555/555/555
f 556/556/556 557/557/557 558/558/558
f 559/559/559 560/560/560 561/561/561
f 562/562/562 563/563/563 564/564/564
f 565/565/565 566/566/566 567/567/567
f 568/568/568 569/569/569 570/570/570
f 571/571/571 572/572/572 573/573/573
f 574/574/574 575/575/575 576/576/576
