v -1.44531035 1.31216896 -0.000558532542
v -1.06205547 1.24200666 -1.06983912
v -1.08535194 1.56603456 -1.09380937
v -1.38009739 1.57031786 -0.000793595216
v -0.927880526 1.26671648 1.07804596
v -0.905975342 1.47440708 1.11722624
v -0.00326511543 1.43590891 -1.3861773
v 1.04846859 1.24160898 -1.06735313
v 1.07447219 1.43203664 -1.07402146
v -0.004311522 1.71226096 -1.41705906
v -1.06205547 1.24200666 -1.06983912
v -1.08535194 1.56603456 -1.09380937
v 1.38315177 1.40941036 -0.00511108385
v 0.947074115 1.25661278 0.938074946
v 0.964182734 1.56011736 0.955012679
v 1.39132726 1.68231475 -0.00578224752
v 1.04846859 1.24160898 -1.06735313
v 1.07447219 1.43203664 -1.07402146
v 0.947074115 1.25661278 0.938074946
v 0.00913327746 1.70737052 1.32996559
v 0.0198692996 1.4345206 1.33967459
v -0.905975342 1.47440708 1.11722624
v -0.927880526 1.26671648 1.07804596
v 0.00847315323 -1.26750135 1.35800433
v -1.05199659 -0.985394657 1.05212176
v -1.30991602 -0.0118188942 1.33282232
v 0.0557387136 0.0262009427 1.82699251
v 1.03292835 -0.985157132 1.0388993
v -1.12553382 0.834596753 1.18955433
v 1.35375929 -0.0017998761 1.35684931
v 0.0416359603 0.922057688 1.58479464
v 1.19403923 0.830463946 1.19424808
v 1.34054625 -1.25711823 -0.00834597461
v 1.03292835 -0.985157132 1.0388993
v 1.35375929 -0.0017998761 1.35684931
v 1.82662058 -0.0123289283 -0.00123415631
v 1.08545637 -0.978161514 -1.04109478
v 1.19403923 0.830463946 1.19424808
v 1.32584536 0.00765870651 -1.40674639
v 1.59990644 0.888499498 -0.00305511267
v 1.17619753 0.837197363 -1.23323333
v 0.00545402477 -1.26881325 -1.33446181
v 1.08545637 -0.978161514 -1.04109478
v 1.32584536 0.00765870651 -1.40674639
v -0.00372702791 0.0165929217 -1.76274145
v -1.0516634 -0.97607708 -1.04785979
v 1.17619753 0.837197363 -1.23323333
v -1.3568579 -0.000869049865 -1.35923743
v -0.00314227468 0.916596293 -1.56141019
v -1.19951916 0.832032919 -1.2044481
v -1.4024663 -1.27019179 0.0380333252
v -1.0516634 -0.97607708 -1.04785979
v -1.3568579 -0.000869049865 -1.35923743
v -1.81590962 0.00157582364 0.00362402922
v -1.05199659 -0.985394657 1.05212176
v -1.19951916 0.832032919 -1.2044481
v -1.30991602 -0.0118188942 1.33282232
v -1.61341119 0.860216975 0.00149065524
v -1.12553382 0.834596753 1.18955433
v -0.004311522 1.71226096 -1.41705906
v -1.38009739 1.57031786 -0.000793595216
v -1.08535194 1.56603456 -1.09380937
v 0.044960279 2.01947165 -0.000610781135
v 1.07447219 1.43203664 -1.07402146
v -0.905975342 1.47440708 1.11722624
v 1.39132726 1.68231475 -0.00578224752
v 0.00913327746 1.70737052 1.32996559
v 0.964182734 1.56011736 0.955012679
v 0.00545402477 -1.26881325 -1.33446181
v 1.34054625 -1.25711823 -0.00834597461
v 1.08545637 -0.978161514 -1.04109478
v 0.0110797547 -1.70272148 -0.0118478611
v -1.0516634 -0.97607708 -1.04785979
v 1.03292835 -0.985157132 1.0388993
v -1.4024663 -1.27019179 0.0380333252
v 0.00847315323 -1.26750135 1.35800433
v -1.05199659 -0.985394657 1.05212176
v -1.19951916 0.832032919 -1.2044481
v -0.00426245062 1.18037605 -1.6087755
v -1.23554206 1.0340066 -1.24116611
v -0.00314227468 0.916596293 -1.56141019
v 1.21386242 1.03626311 -1.25552499
v 1.17619753 0.837197363 -1.23323333
v -1.23554206 1.0340066 -1.24116611
v -0.00326511543 1.43590891 -1.3861773
v -1.06205547 1.24200666 -1.06983912
v -0.00426245062 1.18037605 -1.6087755
v 1.04846859 1.24160898 -1.06735313
v 1.21386242 1.03626311 -1.25552499
v 1.19403923 0.830463946 1.19424808
v 0.0328166038 1.18223369 1.59725904
v 1.22432804 1.03183436 1.22434068
v 0.0416359603 0.922057688 1.58479464
v -1.12189043 1.04872572 1.23862076
v -1.12553382 0.834596753 1.18955433
v 1.22432804 1.03183436 1.22434068
v 0.0198692996 1.4345206 1.33967459
v 0.947074115 1.25661278 0.938074946
v 0.0328166038 1.18223369 1.59725904
v -0.927880526 1.26671648 1.07804596
v -1.12189043 1.04872572 1.23862076
v -1.12553382 0.834596753 1.18955433
v -1.67076981 1.08581293 0.00106174068
v -1.12189043 1.04872572 1.23862076
v -1.61341119 0.860216975 0.00149065524
v -1.23554206 1.0340066 -1.24116611
v -1.19951916 0.832032919 -1.2044481
v -1.12189043 1.04872572 1.23862076
v -1.44531035 1.31216896 -0.000558532542
v -0.927880526 1.26671648 1.07804596
v -1.67076981 1.08581293 0.00106174068
v -1.06205547 1.24200666 -1.06983912
v -1.23554206 1.0340066 -1.24116611
v 1.17619753 0.837197363 -1.23323333
v 1.62793052 1.15245104 -0.0039057727
v 1.21386242 1.03626311 -1.25552499
v 1.59990644 0.888499498 -0.00305511267
v 1.22432804 1.03183436 1.22434068
v 1.19403923 0.830463946 1.19424808
v 1.21386242 1.03626311 -1.25552499
v 1.38315177 1.40941036 -0.00511108385
v 1.04846859 1.24160898 -1.06735313
v 1.62793052 1.15245104 -0.0039057727
v 0.947074115 1.25661278 0.938074946
v 1.22432804 1.03183436 1.22434068
vt 0.733316183 0.739576459
vt 0.696424007 0.782344282
vt 0.710437059 0.793697238
vt 0.741958261 0.74852103
vt 0.781083703 0.704624772
vt 0.789299011 0.712778628
vt 0.743065596 0.838650823
vt 0.786762953 0.872685373
vt 0.792039037 0.86516732
vt 0.750756383 0.828679264
vt 0.69926548 0.804953754
vt 0.710437059 0.793697238
vt 0.83773458 0.832722545
vt 0.86999476 0.790809691
vt 0.857233346 0.783138454
vt 0.828110456 0.824350357
vt 0.797425628 0.872595966
vt 0.792039037 0.86516732
vt 0.869454026 0.774105787
vt 0.823215544 0.745812893
vt 0.832464159 0.736574352
vt 0.789299011 0.712778628
vt 0.793352604 0.703085005
vt 0.423806041 0.625376463
vt 0.36916241 0.595447898
vt 0.325648427 0.632781565
vt 0.381449699 0.680366874
vt 0.462767512 0.671878755
vt 0.302245438 0.67486769
vt 0.435386628 0.724353254
vt 0.352483124 0.714281082
vt 0.399977714 0.7556656
vt 0.436190188 0.931146443
vt 0.471051574 0.881845236
vt 0.439463705 0.832865
vt 0.389843524 0.884069264
vt 0.386966467 0.963701308
vt 0.401793033 0.805524647
vt 0.336308658 0.935202837
vt 0.358723938 0.85315299
vt 0.309593588 0.897229612
vt 0.157014519 0.948801994
vt 0.211611778 0.977026641
vt 0.253214002 0.937520504
vt 0.198733091 0.895596266
vt 0.118305326 0.902684033
vt 0.275544494 0.897513032
vt 0.143549785 0.851798117
vt 0.225712836 0.860978365
vt 0.17738083 0.820940912
vt 0.151981771 0.651277423
vt 0.110000879 0.688583732
vt 0.137230799 0.738942862
vt 0.188635439 0.692665637
vt 0.190122724 0.614182115
vt 0.172914982 0.768027902
vt 0.236737549 0.644641161
vt 0.215849414 0.721426845
vt 0.265149444 0.681614876
vt 0.250756353 0.828679264
vt 0.241958246 0.74852103
vt 0.210437074 0.793697238
vt 0.288153619 0.78796196
vt 0.292039067 0.86516732
vt 0.289299011 0.712778628
vt 0.328110456 0.824350357
vt 0.323215544 0.745812893
vt 0.357233346 0.783138454
vt 0.0592412502 0.654873967
vt 0.0611377805 0.555396676
vt 0.0257906765 0.60264504
vt 0.10797447 0.606295109
vt 0.110000879 0.688583732
vt 0.113469601 0.525576949
vt 0.151981771 0.651277423
vt 0.161781013 0.560226858
vt 0.190122724 0.614182115
vt 0.6773808 0.820940912
vt 0.733586788 0.850838423
vt 0.683553815 0.81267935
vt 0.725712836 0.860978365
vt 0.782223701 0.889896572
vt 0.775544524 0.897513032
vt 0.183553785 0.81267935
vt 0.243065596 0.838650823
vt 0.19926545 0.804953754
vt 0.233586758 0.850838423
vt 0.286762983 0.872685373
vt 0.282223701 0.889896572
vt 0.899977684 0.7556656
vt 0.843918741 0.723979294
vt 0.893243313 0.763718843
vt 0.852483153 0.714281082
vt 0.796770692 0.684678733
vt 0.802245438 0.67486769
vt 0.393243343 0.763718843
vt 0.332464159 0.736574352
vt 0.369453996 0.774105787
vt 0.343918741 0.723979294
vt 0.293352574 0.703085005
vt 0.296770662 0.684678733
vt 0.765149474 0.681614876
vt 0.723210812 0.729412258
vt 0.774364948 0.689627886
vt 0.7158494 0.721426845
vt 0.679701626 0.775525093
vt 0.672914982 0.768027902
vt 0.274364948 0.689627886
vt 0.233316213 0.739576459
vt 0.281083673 0.704624772
vt 0.223210841 0.729412258
vt 0.196424007 0.782344282
vt 0.179701626 0.775525093
vt 0.809593558 0.897229612
vt 0.849538267 0.844052553
vt 0.802765429 0.889695704
vt 0.858723938 0.85315299
vt 0.894506812 0.798260689
vt 0.901793003 0.805524647
vt 0.302765429 0.889695704
vt 0.33773455 0.832722545
vt 0.297425658 0.872595966
vt 0.349538267 0.844052553
vt 0.36999473 0.790809691
vt 0.394506842 0.798260689
vn -0.9933183375704064 0.10107989788972127 0.05569142204116908
vn -0.9521395221650606 0.05606010328166929 -0.30047894294166255
vn -0.9521395221650606 0.05606010328166929 -0.30047894294166255
vn -0.99328245002492 0.10113788532622182 0.056223683837261576
vn -0.9000163081315057 0.13363146192812825 0.41486537271780827
vn -0.9000163081315057 0.13363146192812825 0.41486537271780827
vn 0.003910194310832211 -0.09887125308253511 -0.9950925513209015
vn 0.2767280947888541 -0.09174607716153567 -0.9565585287268106
vn 0.2767280947888541 -0.09174607716153567 -0.9565585287268106
vn -0.009652078759189357 -0.0990295770502354 -0.9950376778016388
vn -0.27058629643678883 -0.09846386095341447 -0.9576470770940456
vn -0.2705863242402816 -0.09846386015412524 -0.9576470693202596
vn 0.9953651157713821 -0.06733619985799084 0.06865946762179231
vn 0.6983098212005862 -0.03641949440091995 0.7148685292012698
vn 0.6937847262895523 -0.03611667956837214 0.7192762605732836
vn 0.9944779274995442 -0.06691083710327066 0.08084919043720135
vn 0.9576083964556134 -0.0750459549675832 -0.2781263448160066
vn 0.9576083964556134 -0.0750459549675832 -0.2781263448160066
vn 0.6983098212005862 -0.03641949440091995 0.7148685292012698
vn 0.07901103557940783 -0.03648774934569967 0.9962057520433995
vn 0.08238876942602298 -0.03627677446214729 0.9959398005437318
vn -0.23547593375740322 -0.054039535521270464 0.9703766347257772
vn -0.23547593375740322 -0.054039535521270464 0.9703766347257772
vn -0.0026339570344466362 -0.359735109755156 0.9330507558969054
vn -0.325524834643949 -0.3239666797988242 0.8883012847059019
vn -0.3425566885654283 -0.0517807980389494 0.9380691147636925
vn 0.008394853438472438 -0.04754660779401775 0.9988337431840338
vn 0.3354030125531738 -0.35569639861521946 0.8723444796537767
vn -0.3323998152779527 0.23459181219616568 0.9134971507638663
vn 0.3499191542467353 -0.05373032238759583 0.9352377440776086
vn -0.003937650864895722 0.2550444551354423 0.9669213105575506
vn 0.3318483827061489 0.24665994878158307 0.9105138771937418
vn 0.9285154264660361 -0.37122732699942235 0.007026699328925175
vn 0.8727038789643383 -0.36358422764753506 0.32587489784661666
vn 0.9391457720063685 -0.05884457925801479 0.3384413308307798
vn 0.9979856154290266 -0.06339060611651096 0.0025184227064117357
vn 0.8859076032137994 -0.33935282807823314 -0.31623942929888876
vn 0.917815064608179 0.2350059987544888 0.3199807614962025
vn 0.9415121807830055 -0.04100751560031811 -0.3344745088964465
vn 0.969142940513359 0.2464741687379393 -0.003527746881746395
vn 0.9171019474902822 0.23166427704049666 -0.32443131885321386
vn -0.004644968278648412 -0.3529789000956247 -0.9356197520130565
vn 0.28159051711976985 -0.3420464052867065 -0.896499323646517
vn 0.2844247129971333 -0.06058964688216203 -0.9567818337150813
vn -0.009900685506352376 -0.058681358330350486 -0.9982276667228822
vn -0.2945123971420717 -0.3339278769640837 -0.8954075166737715
vn 0.26368220273070764 0.22596875162856347 -0.9377685318086284
vn -0.30247361696743585 -0.05590585675189042 -0.9515168134192239
vn -0.012097952585840677 0.23083619200565167 -0.9729174127353054
vn -0.28696521445816636 0.21785495703364588 -0.9328398487344153
vn -0.940619432837659 -0.33887119797201504 0.02003481352975676
vn -0.8825865685164858 -0.33330101914664007 -0.3315891730893905
vn -0.9402035265204984 -0.049382417324352806 -0.3370143996591566
vn -0.9988481948609551 -0.045402757566404134 0.015520091120149583
vn -0.8831209402276536 -0.3033138762697943 0.3579079454183951
vn -0.9218123226726271 0.22460646049898492 -0.3159335051415317
vn -0.9274676042776874 -0.02863096507377049 0.3728057280331828
vn -0.9693402519476482 0.24449032182670877 0.024575566873265387
vn -0.9027082430902796 0.23553085523868053 0.3600597784915672
vn 0.007843249659502772 0.9793527944137379 -0.20200640462317423
vn -0.27201057504306325 0.9619579804228373 0.025437982733660016
vn -0.24618202679922183 0.9586058368998631 -0.14307081862679202
vn -0.0013669133534653902 0.9999412856971368 0.010749730519471323
vn 0.2713439771567973 0.9298208989640251 -0.2486072040598656
vn -0.291105694209211 0.9338684879191793 0.20771885343059077
vn 0.2624900936840868 0.9645652758391224 -0.026697928067868398
vn -0.050649956770958064 0.9731798226432599 0.22440056746615678
vn 0.23633542440195118 0.9448246296441188 0.22683030306950439
vn 0.001878690835924945 -0.9449765324598095 -0.32713273089218353
vn 0.33121620278210806 -0.9435354693461963 -0.0060535196584213325
vn 0.312505743478692 -0.8990438334851564 -0.30669259163720314
vn 0.0082950518372178 -0.999954830513962 -0.00463994038878636
vn -0.30658401552659953 -0.8980698756033834 -0.3153993341104407
vn 0.3184166726540592 -0.8980173121812562 0.3036045612283679
vn -0.3159665689188536 -0.9487520837374581 0.005883105428153359
vn 0.010867759809683885 -0.945609270935246 0.32512305134830305
vn -0.2933258377389129 -0.9024937941925093 0.3153805706741834
vn -0.26390514096059176 -0.19170391815061003 -0.9453061326048163
vn -0.004928846569090807 -0.18401017005938622 -0.9829119817085424
vn -0.26390516816293086 -0.19170393011835493 -0.9453061225836169
vn -0.004146408111424102 -0.18396784192990503 -0.9829235170833116
vn 0.25557644542852404 -0.1635806495948714 -0.9528494380647136
vn 0.25557641676099135 -0.1635806654477136 -0.9528494430324737
vn -0.5029844991721886 0.7202162384494154 -0.4778024314152003
vn -0.0007850165453436635 0.7194887096438346 -0.6945036936144208
vn -0.4899410490998 0.7192896275725813 -0.492524314195233
vn -0.0015596101827728452 0.7194741613449926 -0.6945174575005276
vn 0.4939475557316907 0.7185136530633527 -0.4896467528210968
vn 0.48648165341445215 0.7183831129383428 -0.4972537621136288
vn 0.29863170909183245 -0.10139102876588374 0.9489673132467139
vn -0.006411391362136019 -0.11945153972799004 0.9928193308540149
vn 0.29863173620445604 -0.1013910347855656 0.9489673040714439
vn 0.008072573174348638 -0.11885114040815152 0.9928792675778997
vn -0.2954765437636634 -0.1260765265795559 0.9469943619320627
vn -0.2954765372877424 -0.12607652601568944 0.9469943640277171
vn 0.4363374581206124 0.7941597465587599 0.42298926651461144
vn 0.013404394659682151 0.7831667753296087 0.6216672134057174
vn 0.43624047054678866 0.7941650913040033 0.4230792592543633
vn 0.019567071128382723 0.7840996041808073 0.6203264789213485
vn -0.4594116815539996 0.7230322840865616 0.5159120303116569
vn -0.49525228296089985 0.7244054108682078 0.47954350889870256
vn -0.9100254051721515 -0.15374825683274254 0.3849873185731636
vn -0.978204222541699 -0.20423997326696128 0.03745039814876317
vn -0.9100254072708738 -0.1537482421873206 0.38498731946103054
vn -0.9781518001033807 -0.20391771493014915 0.04045517880546565
vn -0.9220738829922841 -0.2285181535371364 -0.3123446939000392
vn -0.9220738798316249 -0.22851816775382788 -0.31234469282939276
vn -0.49525228296089985 0.7244054108682078 0.47954350889870256
vn -0.6713727865884569 0.7404849701931573 0.030669045412097806
vn -0.4594116815539996 0.7230322840865616 0.5159120303116569
vn -0.6719083455809409 0.7404144702910683 0.018044038413828786
vn -0.4899410490998 0.7192896275725813 -0.492524314195233
vn -0.5029844991721886 0.7202162384494154 -0.4778024314152003
vn 0.9399358209499526 -0.14870733834725788 -0.3072568632542044
vn 0.9886514063024864 -0.1502037067171627 -0.0026913388007679937
vn 0.9399358209499526 -0.14870733834725788 -0.3072568632542044
vn 0.9886618234939758 -0.15015894765840349 -0.0002986698634193333
vn 0.9425855076360956 -0.13725513777163315 0.30445621680250506
vn 0.9425854990268143 -0.13725513651798765 0.3044562440216982
vn 0.48648165341445215 0.7183831129383428 -0.4972537621136288
vn 0.6292334506661751 0.7770879510084179 0.014127312563859629
vn 0.4939475557316907 0.7185136530633527 -0.4896467528210968
vn 0.6302856433291526 0.7763208298326335 0.008122621567415198
vn 0.43624047054678866 0.7941650913040033 0.4230792592543633
vn 0.4363374581206124 0.7941597465587599 0.42298926651461144
f 3/3/3 2/2/2 1/1/1
f 4/4/4 3/3/3 1/1/1
f 4/4/4 1/1/1 5/5/5
f 6/6/6 4/4/4 5/5/5
f 9/9/9 8/8/8 7/7/7
f 10/10/10 9/9/9 7/7/7
f 10/10/10 7/7/7 11/11/11
f 12/12/12 10/10/10 11/11/11
f 15/15/15 14/14/14 13/13/13
f 16/16/16 15/15/15 13/13/13
f 16/16/16 13/13/13 17/17/17
f 18/18/18 16/16/16 17/17/17
f 15/15/15 20/20/20 19/19/19
f 20/20/20 21/21/21 19/19/19
f 20/20/20 22/22/22 21/21/21
f 22/22/22 23/23/23 21/21/21
f 26/26/26 25/25/25 24/24/24
f 27/27/27 26/26/26 24/24/24
f 27/27/27 24/24/24 28/28/28
f 29/29/29 26/26/26 27/27/27
f 30/30/30 27/27/27 28/28/28
f 31/31/31 29/29/29 27/27/27
f 31/31/31 27/27/27 30/30/30
f 32/32/32 31/31/31 30/30/30
f 35/35/35 34/34/34 33/33/33
f 36/36/36 35/35/35 33/33/33
f 36/36/36 33/33/33 37/37/37
f 38/38/38 35/35/35 36/36/36
f 39/39/39 36/36/36 37/37/37
f 40/40/40 38/38/38 36/36/36
f 40/40/40 36/36/36 39/39/39
f 41/41/41 40/40/40 39/39/39
f 44/44/44 43/43/43 42/42/42
f 45/45/45 44/44/44 42/42/42
f 45/45/45 42/42/42 46/46/46
f 47/47/47 44/44/44 45/45/45
f 48/48/48 45/45/45 46/46/46
f 49/49/49 47/47/47 45/45/45
f 49/49/49 45/45/45 48/48/48
f 50/50/50 49/49/49 48/48/48
f 53/53/53 52/52/52 51/51/51
f 54/54/54 53/53/53 51/51/51
f 54/54/54 51/51/51 55/55/55
f 56/56/56 53/53/53 54/54/54
f 57/57/57 54/54/54 55/55/55
f 58/58/58 56/56/56 54/54/54
f 58/58/58 54/54/54 57/57/57
f 59/59/59 58/58/58 57/57/57
f 62/62/62 61/61/61 60/60/60
f 61/61/61 63/63/63 60/60/60
f 60/60/60 63/63/63 64/64/64
f 61/61/61 65/65/65 63/63/63
f 63/63/63 66/66/66 64/64/64
f 65/65/65 67/67/67 63/63/63
f 63/63/63 67/67/67 66/66/66
f 67/67/67 68/68/68 66/66/66
f 71/71/71 70/70/70 69/69/69
f 70/70/70 72/72/72 69/69/69
f 69/69/69 72/72/72 73/73/73
f 70/70/70 74/74/74 72/72/72
f 72/72/72 75/75/75 73/73/73
f 74/74/74 76/76/76 72/72/72
f 72/72/72 76/76/76 75/75/75
f 76/76/76 77/77/77 75/75/75
f 80/80/80 79/79/79 78/78/78
f 79/79/79 81/81/81 78/78/78
f 79/79/79 82/82/82 81/81/81
f 82/82/82 83/83/83 81/81/81
f 86/86/86 85/85/85 84/84/84
f 85/85/85 87/87/87 84/84/84
f 85/85/85 88/88/88 87/87/87
f 88/88/88 89/89/89 87/87/87
f 92/92/92 91/91/91 90/90/90
f 91/91/91 93/93/93 90/90/90
f 91/91/91 94/94/94 93/93/93
f 94/94/94 95/95/95 93/93/93
f 98/98/98 97/97/97 96/96/96
f 97/97/97 99/99/99 96/96/96
f 97/97/97 100/100/100 99/99/99
f 100/100/100 101/101/101 99/99/99
f 104/104/104 103/103/103 102/102/102
f 103/103/103 105/105/105 102/102/102
f 103/103/103 106/106/106 105/105/105
f 106/106/106 107/107/107 105/105/105
f 110/110/110 109/109/109 108/108/108
f 109/109/109 111/111/111 108/108/108
f 109/109/109 112/112/112 111/111/111
f 112/112/112 113/113/113 111/111/111
f 116/116/116 115/115/115 114/114/114
f 115/115/115 117/117/117 114/114/114
f 115/115/115 118/118/118 117/117/117
f 118/118/118 119/119/119 117/117/117
f 122/122/122 121/121/121 120/120/120
f 121/121/121 123/123/123 120/120/120
f 121/121/121 124/124/124 123/123/123
f 124/124/124 125/125/125 123/123/123
