v 0.832676411 3.0685827151982368 -0.7496157463329991
v 0.409487098 3.208307151514943 -1.0217978092320732
v 0.618502975 2.9680982651916987 -0.9691450163873345
v 0.756027043 3.3708944409683017 -0.6665918017621761
v 0.494481355 3.4572486616097584 -0.8348098075244481
v -0.562375486 4.364582948154362 0.99599767058741
v -0.837527514 4.531905010554995 0.5996217316411849
v -0.61965698 4.614854726161245 0.8124028071009208
v -0.744844019 4.126957286140715 0.8966845892315999
v -0.914897501 4.230366995820876 0.6517108659896168
v 0.0 1.6000002349741798 -4.2510938358596745e-07
v -0.421962261 1.799999970411031 -0.7309384825112359
v -0.73089546 1.800000064000523 -0.42200744700362314
v -0.843985558 1.8000001918460409 -1.5291045225863146e-07
v 4.37796116e-05 1.7999999361548527 -0.8440152437040975
v -0.730167687 1.8000003195628278 0.42158221034009735
v 0.421611309 1.7999999706338725 -0.7302029014124042
v -0.421968222 1.8000004132809213 0.7309377489047459
v 0.730238378 1.8000000641290888 -0.4215830619466032
v 3.90373461e-05 1.8000004475369915 0.8440141530975596
v 0.843202949 1.8000001918459356 -5.005997793737631e-07
v 0.422036052 1.8000004132808853 0.73093762990473
v 0.7309708 1.800000319691475 0.42200686339715326
v -0.73089546 1.800000064000523 -0.42200744700362314
v -0.750601828 6.800000623640242 -1.7110222401783748e-06
v -0.843985558 1.8000001918460409 -1.5291045225863146e-07
v -0.730167687 1.8000003195628278 0.42158221034009735
v -0.65002656 6.800000509928533 -0.3753544934664554
v -0.421962261 1.799999970411031 -0.7309384825112359
v -0.375249445 6.800000426685723 -0.6501320023852403
v 4.37796116e-05 1.7999999361548527 -0.8440152437040975
v -0.256780565 10.58278123906312 -0.2734081987480612
v 0.000103759812 6.800000396216694 -0.7507077008984736
v 0.421611309 1.7999999706338725 -0.7302029014124042
v 0.260540545 10.716616973339658 -0.5497129984171021
v 0.374323994 6.800000427280069 -0.6481701151216435
v 0.730238378 1.8000000641290888 -0.4215830619466032
v 0.648272455 6.800000510271598 -0.3742220643143035
v 0.843202949 1.8000001918459356 -5.005997793737631e-07
v 0.756300449 10.82154408564533 -0.22553734564847905
v 0.748543918 6.800000623640151 -2.0143182366288703e-06
v 0.650233805 6.800000737351876 0.37535082039743334
v 0.7309708 1.800000319691475 0.42200686339715326
v 0.734739542 10.792634663674383 0.37494319578943897
v 0.375456572 6.800000820594622 0.6501281203161902
v 0.422036052 1.8000004132808853 0.73093762990473
v -0.234176904 15.28829294642466 -0.3554885982931275
v -0.0223484058 15.260181554378864 0.013326803176751664
v 0.000103873084 6.800000851063579 0.7507035808293915
v 3.90373461e-05 1.8000004475369915 0.8440141530975596
v 0.217418492 10.658797929397728 0.6512480554587908
v -0.375248849 6.800000820594641 0.6501281803161982
v -0.421968222 1.8000004132809213 0.7309377489047459
v -0.648064375 6.800000737008694 0.37421800424522944
v -0.278341711 10.553871717092163 0.3270723576898891
v -0.447710007 15.287637858094469 0.01341462237076842
v 0.0112004941 19.290756892975878 0.003599836962414486
v 0.0749890804 2.902440237167027 -0.7354498150974496
v 0.297761679 2.505165261354171 -0.5784431126492587
v 0.618502975 2.9680982651916987 -0.9691450163873345
v 0.659711719 2.641172196695537 -0.2910401872368938
v 0.409487098 3.208307151514943 -1.0217978092320732
v 0.832676411 3.0685827151982368 -0.7496157463329991
v 0.660636485 3.1225038576128843 -0.2704221892842734
v 0.756027043 3.3708944409683017 -0.6665918017621761
v 0.299258053 3.28397635610086 -0.5450825051048155
v 0.494481355 3.4572486616097584 -0.8348098075244481
v -0.123580515 4.050125880525028 0.7141680139846506
v -0.337072521 3.6733102136887874 0.5286311222109834
v -0.744844019 4.126957286140715 0.8966845892315999
v -0.665674388 3.8257778729035246 0.2273543365422628
v -0.562375486 4.364582948154362 0.99599767058741
v -0.914897501 4.230366995820876 0.6517108659896168
v -0.655269027 4.296823195991906 0.2266916437518393
v -0.837527514 4.531905010554995 0.5996217316411849
v -0.320236683 4.435478485768124 0.5275590801709727
v -0.61965698 4.614854726161245 0.8124028071009208
v 0.195667267 6.679447492265337 -1.8986145386089575
v 0.0046620369 5.838463418857569 -0.6456331094868032
v 0.29133153 5.89673865775773 -0.6090907662312748
v -0.194003463 6.054939415246076 -0.6215264308284336
v 0.423555017 6.715954615405677 -1.9374488848863922
v 0.37933588 6.171488473046012 -0.5484423993170346
v 0.0600898266 6.854998958469561 -1.823956661760653
v -0.105998874 6.329689710534494 -0.5608778259143069
v -0.518811941 7.49357982891784 -3.426058880473022
v 0.515864968 6.928013674750735 -1.901623934315474
v 0.180670738 6.387963989434202 -0.5243365556586318
v 0.152399898 7.067058967814676 -1.7881319511900546
v -0.238061905 7.637020108507936 -3.392001299351768
v 0.380287886 7.103565620954953 -1.8269662974673473
v -0.497229099 7.762149385659285 -3.258845259368503
v -0.24801898 9.771220976728811 -4.9385731736955165
v 2.0529089 7.366272655226631 0.546308802817245
v 0.405790687 6.60387708872018 0.30180398293067107
v 0.307156563 6.888402556914013 0.40071692402460146
v 0.484464645 6.560257840784483 -0.0021280853710294867
v 1.97859418 7.56209683198743 0.5808036251277444
v 0.287196279 7.129309237172051 0.1956972604966199
v 2.01318407 7.715409019360865 0.43812011351159885
v 0.365870595 7.085689989236254 -0.10823513612512475
v 2.16181421 7.323761125839488 0.3691310048905327
v 0.4645046 6.801164521042466 -0.20714792821903513
v 3.101403 7.647321750071191 1.4939461039980206
v 2.19640446 7.47707283321293 0.22644773127456444
v 3.26060772 7.443518594174971 1.2677889453531772
v 2.12208986 7.672897499973761 0.26094243458489946
v 3.25146937 7.783070074201456 1.2163102155707244
v 4.90780306 8.354999336535444 1.9276252878784619
v -0.425386429 6.586567467581403 2.0221983863248942
v 0.0667991638 5.906815983301485 0.461032540496453
v -0.18625772 5.942069982412223 0.44246174632123636
v 0.226931095 6.101518625664474 0.41548963939293454
v -0.648084998 6.635414647891811 1.9355405998835802
v -0.279182673 6.172025673885877 0.37834823004281337
v -0.256972551 6.762727354202214 2.0319432142672325
v 0.134006023 6.331475257138308 0.35137630211425086
v -0.129885435 7.515593653250772 3.37836798709344
v -0.702370405 6.860421234823182 1.8586283513848456
v -0.119050503 6.3667287862489745 0.33280547793917264
v -0.311257839 6.987733461133523 1.9550309757686448
v -0.471166134 7.763070727416911 3.3153712736570333
v -0.533956766 7.036580171443793 1.86837293932744
v -0.0977907181 7.8655110371717445 3.137092298669761
v 0.232036829 8.024974692658756 5.461140842617515
v -1.92217553 6.856906030983226 0.4281179972479326
v -0.50136292 6.025771428523675 -0.13564285270930898
v -0.444491148 6.337971977351447 -0.2779755794129468
v -0.449692965 5.977908995273445 0.20494738655177053
v -1.89526689 7.0819126138852395 0.33790518396214964
v -0.335949779 6.6023110429291805 -0.07971785885576517
v -1.79883313 7.258072069486141 0.4763202181926091
v -0.284279823 6.554449089679014 0.2608723804051689
v -1.85265088 6.808059373682157 0.6567457837640243
v -0.341150999 6.242247590851088 0.4032050181090826
v -3.51554394 7.527565083402288 0.07264243981301642
v -1.75621712 6.98421881928303 0.7951607279944748
v -3.62806034 7.334754627500021 0.43575490751160906
v -1.72930849 7.209225402185073 0.7049480047087039
v -3.40173054 7.695760939532177 0.4473996697107009
v -5.54646969 9.93108723833123 1.0364911506768175
vt 0.21875 0.25
vt 0.21875 0.25
vt 0.21875 0.25
vt 0.21875 0.25
vt 0.21875 0.25
vt 0.21875 0.25
vt 0.21875 0.25
vt 0.21875 0.25
vt 0.21875 0.25
vt 0.21875 0.25
vt 0.850000024 0.25
vt 0.025000006 0.25
vt 0.025000006 0.25
vt 0.025000006 0.25
vt 0.025000006 0.25
vt 0.025000006 0.25
vt 0.025000006 0.25
vt 0.025000006 0.25
vt 0.025000006 0.25
vt 0.025000006 0.25
vt 0.025000006 0.25
vt 0.025000006 0.25
vt 0.025000006 0.25
vt 0.0859375 0.71875
vt 0.0859375 0.71875
vt 0.0859375 0.71875
vt 0.0859375 0.71875
vt 0.0859375 0.71875
vt 0.0859375 0.71875
vt 0.0859375 0.71875
vt 0.0859375 0.71875
vt 0.0859375 0.71875
vt 0.0859375 0.71875
vt 0.0859375 0.71875
vt 0.0859375 0.71875
vt 0.0859375 0.71875
vt 0.0859375 0.71875
vt 0.0859375 0.71875
vt 0.0859375 0.71875
vt 0.0859375 0.71875
vt 0.0859375 0.71875
vt 0.0859375 0.71875
vt 0.0859375 0.71875
vt 0.0859375 0.71875
vt 0.0859375 0.71875
vt 0.0859375 0.71875
vt 0.0859375 0.71875
vt 0.0859375 0.71875
vt 0.0859375 0.71875
vt 0.0859375 0.71875
vt 0.0859375 0.71875
vt 0.0859375 0.71875
vt 0.0859375 0.71875
vt 0.0859375 0.71875
vt 0.0859375 0.71875
vt 0.0859375 0.71875
vt 0.0859375 0.71875
vt 0.0859375 0.71875
vt 0.0859375 0.71875
vt 0.0859375 0.71875
vt 0.0859375 0.71875
vt 0.0859375 0.71875
vt 0.0859375 0.71875
vt 0.0859375 0.71875
vt 0.0859375 0.71875
vt 0.0859375 0.71875
vt 0.0859375 0.71875
vt 0.0859375 0.71875
vt 0.0859375 0.71875
vt 0.0859375 0.71875
vt 0.0859375 0.71875
vt 0.0859375 0.71875
vt 0.0859375 0.71875
vt 0.0859375 0.71875
vt 0.0859375 0.71875
vt 0.0859375 0.71875
vt 0.0859375 0.71875
vt 0.0859375 0.71875
vt 0.0859375 0.71875
vt 0.0859375 0.71875
vt 0.0859375 0.71875
vt 0.0859375 0.71875
vt 0.0859375 0.71875
vt 0.0859375 0.71875
vt 0.0859375 0.71875
vt 0.0859375 0.71875
vt 0.0859375 0.71875
vt 0.0859375 0.71875
vt 0.0859375 0.71875
vt 0.0859375 0.71875
vt 0.0859375 0.71875
vt 0.0859375 0.71875
vt 0.0859375 0.71875
vt 0.0859375 0.71875
vt 0.0859375 0.71875
vt 0.0859375 0.71875
vt 0.0859375 0.71875
vt 0.0859375 0.71875
vt 0.0859375 0.71875
vt 0.0859375 0.71875
vt 0.0859375 0.71875
vt 0.0859375 0.71875
vt 0.0859375 0.71875
vt 0.0859375 0.71875
vt 0.0859375 0.71875
vt 0.0859375 0.71875
vt 0.0859375 0.71875
vt 0.0859375 0.71875
vt 0.0859375 0.71875
vt 0.0859375 0.71875
vt 0.0859375 0.71875
vt 0.0859375 0.71875
vt 0.0859375 0.71875
vt 0.0859375 0.71875
vt 0.0859375 0.71875
vt 0.0859375 0.71875
vt 0.0859375 0.71875
vt 0.0859375 0.71875
vt 0.0859375 0.71875
vt 0.0859375 0.71875
vt 0.0859375 0.71875
vt 0.0859375 0.71875
vt 0.0859375 0.71875
vt 0.0859375 0.71875
vt 0.0859375 0.71875
vt 0.0859375 0.71875
vt 0.0859375 0.71875
vt 0.0859375 0.71875
vt 0.0859375 0.71875
vt 0.0859375 0.71875
vt 0.0859375 0.71875
vt 0.0859375 0.71875
vt 0.0859375 0.71875
vt 0.0859375 0.71875
vt 0.0859375 0.71875
vt 0.0859375 0.71875
vt 0.0859375 0.71875
vt 0.0859375 0.71875
vt 0.0859375 0.71875
vt 0.0859375 0.71875
vt 0.0859375 0.71875
vn 0.5857281233855377 0.3493583577696614 -0.7313489613937669
vn 0.5857283327176286 0.34935845907426877 -0.7313487453500412
vn 0.5857292706489284 0.3493577702772653 -0.7313483232030903
vn 0.5857278413691533 0.3493586653031102 -0.7313490403512275
vn 0.5857283226304056 0.3493588458449164 -0.731348568671929
vn -0.7227812211940065 0.2935312809306334 0.62564102599216
vn -0.7227815155702269 0.293530927092126 0.6256408519194082
vn -0.7227818648939864 0.29353020897469956 0.6256407852750973
vn -0.7227811895823416 0.29353141709271596 0.6256409986289877
vn -0.7227818291904945 0.2935306354356457 0.6256406264404422
vn 4.6549689670274155e-05 -0.9999999983909327 -3.242315781925135e-05
vn -0.11529007333947563 -0.9730526716186478 -0.19969150519035675
vn -0.1996919009151439 -0.9730517947981375 -0.11529678811233139
vn -0.2305847875735861 -0.9730522189440172 0.00018694322337701265
vn 0.00019067014836821893 -0.9730540311633494 -0.23057713694477552
vn -0.19988171257351636 -0.9729999781857479 0.11540512739567647
vn 0.11556075801068046 -0.9730027633667041 -0.19977821124625833
vn -0.11545262063062825 -0.9730527144482212 0.19959736294467578
vn 0.1998687925383463 -0.9730038110786093 -0.1153951879229175
vn 0.0 -0.9730538990495552 0.23057777330969714
vn 0.2307875126909848 -0.9730041565975371 -0.00018769609440509515
vn 0.11528753152940285 -0.9730548003491927 0.19968259962062218
vn 0.19977297751644668 -0.9730556981582179 0.11512326322701476
vn -0.8658677440388888 0.01867012337474876 -0.49992447062149015
vn -0.998039080851464 0.06257838979823228 0.0013922009284921752
vn -0.999825204833867 0.01867348243130894 0.0009278107582151971
vn -0.865870418278697 0.0186670435060533 0.499919953829228
vn -0.8655629643396748 0.06051093548100006 -0.49713095000284285
vn -0.49991474224569193 0.01866428822503551 -0.8658734866194231
vn -0.5027570591398728 0.050882444913945744 -0.8629289172838083
vn 0.0009369386738996893 0.018658201767258756 -0.9998254815980305
vn -0.8463328843754205 0.054991548850232774 -0.5298080580548334
vn -0.0026494408174759163 0.03521112682017649 -0.9993763840572821
vn 0.5007976811444553 0.01879065902098948 -0.8653603837095233
vn 0.061575916943652935 0.057309711654099184 -0.9964557207436125
vn 0.4989838097125894 0.020211110128617194 -0.8663755933035507
vn 0.8658650488385528 0.01892920032551699 -0.49991939607785496
vn 0.8641280820593423 0.007260882871291432 -0.50321957173422
vn 0.999823034183603 0.018784296116780674 -0.0010249562385311283
vn 0.8905059682102112 0.08857313112779142 -0.446266647895867
vn 0.9999938997346264 0.00042374037899446334 -0.003467122383946415
vn 0.8669671325012207 0.0002612502443245889 0.4983652505050094
vn 0.8663369172237815 0.018646151276063814 0.49911187813734215
vn 0.8413084396824805 0.09742013237742521 0.5317042666055963
vn 0.4965261122374926 0.008822519199193034 0.8679769484388975
vn 0.49990940129399836 0.018651526731057057 0.8658768451970966
vn -0.04432246337854339 0.11901485928241752 -0.9919027081876751
vn 0.8488097750349868 0.16135359745137512 0.5034749074130257
vn -0.004579754468086752 0.022456500326647366 0.9997373312236025
vn 0.0 0.018658862625840558 0.9998259082687896
vn -0.03011446363811622 0.07586745172267885 0.9966630568295864
vn -0.5072192526758753 0.040818594860007294 0.8608498545208572
vn -0.5007220684398224 0.01866532913034983 0.8654068497913577
vn -0.8662025456741136 0.05490407934067147 0.49666758696278773
vn -0.8795382538838733 0.06381194962121582 0.47152995137154013
vn -0.8792146134277579 0.10486600723497098 0.46474163151333175
vn 0.06121197735623096 0.9977264055258414 0.02819775779427758
vn -0.5787681468951942 -0.14328469079685222 -0.8028056611177784
vn 0.2357816109479442 -0.716996697719153 -0.6559899140982443
vn 0.17120755464617868 -0.6719536008313766 -0.7205319781673973
vn 0.8427890905345526 -0.5221524001907114 -0.13062702572982635
vn -0.7397603266392321 0.132521713740172 -0.6596913327594843
vn 0.9536600193754858 -0.30045736714243293 0.016060447521327834
vn 0.7750355917103648 0.3869780407520611 0.4995676406232301
vn 0.4480839243377964 0.7120555653078708 0.5405531136383623
vn -0.5099503483299442 0.8494051208882967 0.135873407430986
vn -0.5420863298947866 0.8300279785582242 0.13113338915679862
vn 0.4535418192366204 -0.16372582746654976 0.8760671615943212
vn -0.274969010558353 -0.7426123735620278 0.610670865413712
vn -0.258798580295692 -0.7068731195172208 0.6582960487052367
vn -0.8357945391728809 -0.5485403765139796 -0.023472188280872244
vn 0.6084323134638226 0.09953321472693917 0.7873393544712356
vn -0.9297382763845474 -0.30259379926897445 -0.2098183263431926
vn -0.6382022639686089 0.4349805246358298 -0.635208480306175
vn -0.35271982077567426 0.7164507378383822 -0.6019028727982727
vn 0.524079387181063 0.8511244995562747 0.03046115866152891
vn 0.5165864411408113 0.8562264908206803 0.003826910813511577
vn -0.36116875274132004 -0.8179954439719724 -0.44770591428344414
vn -0.22500398591912024 -0.7928058406014145 -0.5664204316837388
vn 0.6135087358264109 -0.6899769917573129 -0.3841077738216293
vn -0.9104056625177478 -0.24576186207538123 -0.3328102113891066
vn 0.6033485518860764 -0.6555050412695532 -0.4541846164360654
vn 0.9864715581870378 0.08865413655680886 0.13789238180336352
vn -0.9942666929009867 -0.10212399552074176 0.031692789820630146
vn -0.7479594451330951 0.6231505194216862 0.22856092968982142
vn -0.6003148275425116 -0.6313305146322636 -0.49096220743226826
vn 0.9834120528812125 0.14538521150204886 -0.10846139647111257
vn 0.290708591522334 0.8194494544623768 0.4939545590400135
vn -0.4810502873444046 0.7461941448776097 0.4602009552317754
vn 0.9180617112513602 -0.006851636569559938 -0.3963782907911872
vn 0.48935925744797865 0.8136640020480586 0.31381269719547644
vn -0.5923376247530884 0.6247598064473339 0.508735021941442
vn 0.06327430906753474 0.8025455259846536 -0.5932259607721511
vn -0.0878570411660845 -0.7289612645757946 0.678893669926005
vn 0.23211858925768417 -0.7134965559104475 0.6610927508488896
vn -0.16551701132416544 0.12178602063080733 0.9786584103461374
vn 0.45711148256988726 -0.8527320326123333 -0.25277890153175
vn -0.42644470098618054 0.2948770956380104 0.8550978981782722
vn -0.35167430328106175 0.8770528894579418 0.3272665786560781
vn -0.2630739814457476 0.9577633112621032 0.11610994740561138
vn -0.10480007385165703 0.733457645069202 -0.6716076439486286
vn 0.3731551440706464 -0.89440428894094 -0.24656886741368372
vn 0.30589039932664924 -0.15754097815316187 -0.9389419065109024
vn -0.40209054295355273 0.05321109288785178 0.9140523917484149
vn 0.4849956854035704 -0.15002816125113627 -0.8615513542276654
vn 0.4229946788429555 -0.9020656666845006 -0.08574983766510598
vn 0.17731587261453152 0.7047415898893624 -0.6869485954561384
vn 0.22080507821438586 0.8143624782802631 -0.5367111619893581
vn 0.8743144147841885 0.3735958538407634 0.30983938112120796
vn 0.1018517579971871 -0.8555446159491855 0.5076116916632661
vn 0.3892148593192546 -0.7933252997385957 0.4681311376951552
vn -0.554955507184872 -0.810458184225065 0.18756843195962297
vn 0.9381377553833433 -0.09423039222650277 0.33319391516824237
vn -0.7633140390935704 -0.5912175551558747 0.26041021523390684
vn -0.9536501944783885 0.031133947555008232 -0.299302495614343
vn 0.9322943601388919 -0.2928782237324047 0.21224884479441888
vn 0.6832256999010368 0.7240707425128556 -0.09446799898177434
vn 0.4420029075575071 -0.8307655905955375 0.3383222771162986
vn -0.9602119588614393 0.22078354623495855 -0.171019354961342
vn -0.2874588016641768 0.8479641017828011 -0.44533618697954797
vn 0.7454394502277193 0.5828175788488107 -0.32348677844543505
vn -0.9238530474524552 0.3299510937586679 0.19397892267014563
vn -0.25871963890353167 0.8511344086077702 -0.4567651113313355
vn 0.5454425764663023 0.7745340213946359 -0.32029587178116425
vn 0.20642580911495442 0.1398227101816215 0.9684203607156877
vn -0.38401058352084844 -0.7542332078659768 -0.5326050505732892
vn -0.5768253627581597 -0.65489831520618 -0.488242457820932
vn -0.33307713822141116 0.12191791806097838 -0.9349843000018297
vn -0.37242791526017927 -0.8431219447700264 0.38786960976875323
vn -0.022858072378378867 0.16705213182997178 -0.9856830594964116
vn 0.20386680209568941 0.8546346951432753 -0.47753310341864025
vn 0.2758948180081166 0.8995150059285074 -0.3387547837384819
vn 0.47832036470520317 0.6980438785223871 0.5328643095251402
vn -0.32030556795216564 -0.8070685586919663 0.4960289151951859
vn 0.1544281051922119 -0.2126144103728746 0.964855985538017
vn -0.16808265331136554 -0.02815375636922177 -0.985370786890962
vn 0.04278935230251747 -0.08606267259525041 0.9953704273863544
vn -0.5648431379721744 -0.7477673307522371 0.34899319269209456
vn 0.2987256761505 0.7246498374204258 0.621003690435876
vn 0.39185871876335604 0.7558456177716673 0.5245418444933708
vn -0.6288535096819194 0.7453163157802397 0.22146524059658204
f 3/3/3 2/2/2 1/1/1
f 1/1/1 2/2/2 4/4/4
f 5/5/5 4/4/4 2/2/2
f 8/8/8 7/7/7 6/6/6
f 9/9/9 6/6/6 7/7/7
f 10/10/10 9/9/9 7/7/7
f 13/13/13 12/12/12 11/11/11
f 14/14/14 13/13/13 11/11/11
f 12/12/12 15/15/15 11/11/11
f 16/16/16 14/14/14 11/11/11
f 15/15/15 17/17/17 11/11/11
f 18/18/18 16/16/16 11/11/11
f 17/17/17 19/19/19 11/11/11
f 20/20/20 18/18/18 11/11/11
f 19/19/19 21/21/21 11/11/11
f 22/22/22 20/20/20 11/11/11
f 21/21/21 23/23/23 11/11/11
f 23/23/23 22/22/22 11/11/11
f 26/26/26 25/25/25 24/24/24
f 27/27/27 25/25/25 26/26/26
f 28/28/28 24/24/24 25/25/25
f 29/29/29 24/24/24 28/28/28
f 30/30/30 29/29/29 28/28/28
f 29/29/29 30/30/30 31/31/31
f 28/28/28 25/25/25 32/32/32
f 30/30/30 28/28/28 32/32/32
f 33/33/33 31/31/31 30/30/30
f 31/31/31 33/33/33 34/34/34
f 33/33/33 30/30/30 35/35/35
f 35/35/35 30/30/30 32/32/32
f 36/36/36 34/34/34 33/33/33
f 36/36/36 33/33/33 35/35/35
f 37/37/37 34/34/34 36/36/36
f 38/38/38 37/37/37 36/36/36
f 38/38/38 39/39/39 37/37/37
f 40/40/40 36/36/36 35/35/35
f 38/38/38 36/36/36 40/40/40
f 38/38/38 41/41/41 39/39/39
f 41/41/41 38/38/38 40/40/40
f 41/41/41 42/42/42 39/39/39
f 42/42/42 43/43/43 39/39/39
f 42/42/42 41/41/41 44/44/44
f 44/44/44 41/41/41 40/40/40
f 42/42/42 45/45/45 43/43/43
f 45/45/45 42/42/42 44/44/44
f 46/46/46 43/43/43 45/45/45
f 40/40/40 35/35/35 47/47/47
f 35/35/35 32/32/32 47/47/47
f 44/44/44 40/40/40 48/48/48
f 48/48/48 40/40/40 47/47/47
f 45/45/45 49/49/49 46/46/46
f 49/49/49 50/50/50 46/46/46
f 51/51/51 45/45/45 44/44/44
f 49/49/49 45/45/45 51/51/51
f 51/51/51 44/44/44 48/48/48
f 49/49/49 52/52/52 50/50/50
f 52/52/52 49/49/49 51/51/51
f 52/52/52 53/53/53 50/50/50
f 52/52/52 27/27/27 53/53/53
f 54/54/54 27/27/27 52/52/52
f 54/54/54 25/25/25 27/27/27
f 54/54/54 52/52/52 55/55/55
f 25/25/25 54/54/54 55/55/55
f 55/55/55 52/52/52 51/51/51
f 32/32/32 25/25/25 55/55/55
f 55/55/55 51/51/51 56/56/56
f 32/32/32 55/55/55 56/56/56
f 56/56/56 51/51/51 48/48/48
f 47/47/47 32/32/32 56/56/56
f 57/57/57 56/56/56 48/48/48
f 57/57/57 47/47/47 56/56/56
f 57/57/57 48/48/48 47/47/47
f 60/60/60 59/59/59 58/58/58
f 61/61/61 59/59/59 60/60/60
f 62/62/62 60/60/60 58/58/58
f 63/63/63 61/61/61 60/60/60
f 64/64/64 61/61/61 63/63/63
f 65/65/65 64/64/64 63/63/63
f 62/62/62 58/58/58 66/66/66
f 66/66/66 64/64/64 65/65/65
f 67/67/67 62/62/62 66/66/66
f 67/67/67 66/66/66 65/65/65
f 70/70/70 69/69/69 68/68/68
f 71/71/71 69/69/69 70/70/70
f 72/72/72 70/70/70 68/68/68
f 73/73/73 71/71/71 70/70/70
f 74/74/74 71/71/71 73/73/73
f 75/75/75 74/74/74 73/73/73
f 72/72/72 68/68/68 76/76/76
f 76/76/76 74/74/74 75/75/75
f 77/77/77 72/72/72 76/76/76
f 77/77/77 76/76/76 75/75/75
f 80/80/80 79/79/79 78/78/78
f 79/79/79 81/81/81 78/78/78
f 82/82/82 80/80/80 78/78/78
f 83/83/83 80/80/80 82/82/82
f 81/81/81 84/84/84 78/78/78
f 81/81/81 85/85/85 84/84/84
f 82/82/82 78/78/78 86/86/86
f 78/78/78 84/84/84 86/86/86
f 87/87/87 83/83/83 82/82/82
f 88/88/88 83/83/83 87/87/87
f 85/85/85 89/89/89 84/84/84
f 85/85/85 88/88/88 89/89/89
f 87/87/87 82/82/82 90/90/90
f 90/90/90 82/82/82 86/86/86
f 91/91/91 88/88/88 87/87/87
f 88/88/88 91/91/91 89/89/89
f 91/91/91 87/87/87 90/90/90
f 84/84/84 89/89/89 92/92/92
f 89/89/89 91/91/91 92/92/92
f 86/86/86 84/84/84 92/92/92
f 92/92/92 91/91/91 90/90/90
f 93/93/93 90/90/90 86/86/86
f 93/93/93 86/86/86 92/92/92
f 93/93/93 92/92/92 90/90/90
f 96/96/96 95/95/95 94/94/94
f 95/95/95 97/97/97 94/94/94
f 98/98/98 96/96/96 94/94/94
f 99/99/99 96/96/96 98/98/98
f 100/100/100 99/99/99 98/98/98
f 101/101/101 99/99/99 100/100/100
f 97/97/97 102/102/102 94/94/94
f 97/97/97 103/103/103 102/102/102
f 98/98/98 94/94/94 104/104/104
f 100/100/100 98/98/98 104/104/104
f 103/103/103 101/101/101 105/105/105
f 103/103/103 105/105/105 102/102/102
f 94/94/94 102/102/102 106/106/106
f 104/104/104 94/94/94 106/106/106
f 102/102/102 105/105/105 106/106/106
f 107/107/107 101/101/101 100/100/100
f 101/101/101 107/107/107 105/105/105
f 107/107/107 100/100/100 108/108/108
f 105/105/105 107/107/107 108/108/108
f 108/108/108 100/100/100 104/104/104
f 106/106/106 105/105/105 108/108/108
f 109/109/109 104/104/104 106/106/106
f 109/109/109 106/106/106 108/108/108
f 109/109/109 108/108/108 104/104/104
f 112/112/112 111/111/111 110/110/110
f 111/111/111 113/113/113 110/110/110
f 114/114/114 112/112/112 110/110/110
f 115/115/115 112/112/112 114/114/114
f 113/113/113 116/116/116 110/110/110
f 113/113/113 117/117/117 116/116/116
f 114/114/114 110/110/110 118/118/118
f 110/110/110 116/116/116 118/118/118
f 119/119/119 115/115/115 114/114/114
f 120/120/120 115/115/115 119/119/119
f 117/117/117 121/121/121 116/116/116
f 117/117/117 120/120/120 121/121/121
f 119/119/119 114/114/114 122/122/122
f 122/122/122 114/114/114 118/118/118
f 123/123/123 120/120/120 119/119/119
f 120/120/120 123/123/123 121/121/121
f 123/123/123 119/119/119 122/122/122
f 116/116/116 121/121/121 124/124/124
f 121/121/121 123/123/123 124/124/124
f 118/118/118 116/116/116 124/124/124
f 124/124/124 123/123/123 122/122/122
f 125/125/125 122/122/122 118/118/118
f 125/125/125 118/118/118 124/124/124
f 125/125/125 124/124/124 122/122/122
f 128/128/128 127/127/127 126/126/126
f 127/127/127 129/129/129 126/126/126
f 130/130/130 128/128/128 126/126/126
f 131/131/131 128/128/128 130/130/130
f 132/132/132 131/131/131 130/130/130
f 133/133/133 131/131/131 132/132/132
f 129/129/129 134/134/134 126/126/126
f 129/129/129 135/135/135 134/134/134
f 130/130/130 126/126/126 136/136/136
f 132/132/132 130/130/130 136/136/136
f 135/135/135 133/133/133 137/137/137
f 135/135/135 137/137/137 134/134/134
f 126/126/126 134/134/134 138/138/138
f 136/136/136 126/126/126 138/138/138
f 134/134/134 137/137/137 138/138/138
f 139/139/139 133/133/133 132/132/132
f 133/133/133 139/139/139 137/137/137
f 139/139/139 132/132/132 140/140/140
f 137/137/137 139/139/139 140/140/140
f 140/140/140 132/132/132 136/136/136
f 138/138/138 137/137/137 140/140/140
f 141/141/141 136/136/136 138/138/138
f 141/141/141 138/138/138 140/140/140
f 141/141/141 140/140/140 136/136/136
