v -0.905207515 4.268769539830684 0.5818967589755643
v -0.821838677 3.858776403469172 0.874769649531508
v -0.985148609 3.966809752989072 0.6272162945422145
v -0.692491353 4.347357146899792 0.8014412346655077
v -0.640966594 4.093968287689651 0.9824466947483952
v -0.341097474 3.576095502647737 -1.0491388143256601
v -0.678888738 3.1969586682207893 -0.9946292331437531
v -0.411479831 3.281888575831886 -1.139209347298573
v -0.565007567 3.6729955663312395 -0.8488916507761718
v -0.773774028 3.438674905053971 -0.8152031492632701
v 0.416041821 2.982501017882762 1.0138999926891985
v 0.702022791 2.619444061734021 0.9565670399727253
v 0.459689945 2.7069918923541603 1.084831755683953
v 0.631398737 3.065226746859706 0.8417968345041592
v 0.808144748 2.8408459759776594 0.8063631877186317
v 0.0 1.6000002349741798 -4.2510938358596745e-07
v -0.417081714 1.7999999729740785 -0.7224780783745061
v -0.722432971 1.8000000654802943 -0.4171228463473339
v -0.834204674 1.8000001918460395 -1.574522708688649e-07
v 4.04119492e-05 1.7999999391143957 -0.8342460413915189
v -0.721578181 1.8000003180605932 0.4166234606738456
v 0.416667461 1.7999999732357967 -0.7216141682584319
v -0.417079449 1.8000004107178742 0.7224773457680161
v 0.721669316 1.8000000656313142 -0.41662434228035544
v 4.07546759e-05 1.8000004445774485 0.834244950784981
v 0.833304405 1.8000001918459356 -5.005997793737631e-07
v 0.417168438 1.8000004107178378 0.722477225768
v 0.722517431 1.8000003182117033 0.4171222617408639
v 0.383648187 2.880159182986574 0.44896253178887824
v 0.808144748 2.8408459759776594 0.8063631877186317
v 0.631398737 3.065226746859706 0.8417968345041592
v 0.416041821 2.982501017882762 1.0138999926891985
v 0.60472542 2.54541679140301 0.2951136365268377
v 0.0596358441 2.7275136443670815 0.6862647349159307
v 0.459689945 2.7069918923541603 1.084831755683953
v 0.0804624856 2.2984311945384803 0.6790768409390653
v 0.702022791 2.619444061734021 0.9565670399727253
v 0.417346418 2.1858894361818204 0.437332026552589
v -0.417079449 1.8000004107178742 0.7224773457680161
v -0.721578181 1.8000003180605932 0.4166234606738456
v -0.375248849 5.611435890900446 0.6501285403874607
v 4.07546759e-05 1.8000004445774485 0.834244950784981
v 0.000103873084 5.6114359213693845 0.750703940900654
v 0.417168438 1.8000004107178378 0.722477225768
v 0.375456572 5.611435890900427 0.6501284803874526
v 0.722517431 1.8000003182117033 0.4171222617408639
v -0.530369043 11.546333145461007 0.6407346581708121
v 0.650233805 5.611435807657681 0.3753511804686958
v 0.833304405 1.8000001918459356 -5.005997793737631e-07
v -0.00727045536 11.485572549206246 0.34995352650896333
v 0.748543918 5.611435693945956 -1.6542469741404757e-06
v 0.648272455 5.611435580577403 -0.374221704243041
v 0.721669316 1.8000000656313142 -0.41662434228035544
v 0.0104449391 11.529975473507477 -0.24970642751239897
v 0.374323994 5.611435497585874 -0.648169755050381
v 0.416667461 1.7999999732357967 -0.7216141682584319
v 0.000103759812 5.611435466522499 -0.7507073408272111
v 4.04119492e-05 1.7999999391143957 -0.8342460413915189
v -0.494937956 11.63513899406351 -0.5585851308718965
v -0.375249445 5.611435496991528 -0.6501316423139778
v -0.417081714 1.7999999729740785 -0.7224780783745061
v -0.0223484058 16.26018168873771 0.013326500230482704
v -0.234176904 16.28829398078363 -0.35548890123966914
v -1.01803625 11.69590149031851 -0.26780405921063144
v -0.65002656 5.611435580234338 -0.3753541333951929
v -0.722432971 1.8000000654802943 -0.4171228463473339
v -0.750601828 5.6114356939460475 -1.3509509776899801e-06
v -0.834204674 1.8000001918460395 -1.574522708688649e-07
v -0.648064375 5.611435807314499 0.3742183643164919
v -1.03575182 11.651498566017278 0.33185589481073074
v -0.447710007 16.28763799245332 0.01341431942449946
v -1.22264612 20.13811580290907 0.32076164333178203
v -0.579549134 3.077812026095232 -0.35463815606022003
v -0.371048987 2.691338502438074 -0.5253978289226251
v -0.678888738 3.1969586682207893 -0.9946292331437531
v 0.0174893364 2.825261740625459 -0.7558229004538243
v -0.773774028 3.438674905053971 -0.8152031492632701
v -0.411479831 3.281888575831886 -1.139209347298573
v 0.049118869 3.2945053422607704 -0.7274738188004323
v -0.341097474 3.576095502647737 -1.0491388143256601
v -0.319871157 3.450589738346382 -0.47952786777185397
v -0.565007567 3.6729955663312395 -0.8488916507761718
v -0.112265438 3.766563656775254 0.695515658382635
v -0.296601295 3.38294042400487 0.4934098674451143
v -0.821838677 3.858776403469172 0.874769649531508
v -0.593088329 3.524503270716899 0.1556990551847285
v -0.640966594 4.093968287689651 0.9824466947483952
v -0.985148609 3.966809752989072 0.6272162945422145
v -0.591991425 3.9956174920125664 0.14908820557424463
v -0.905207515 4.268769539830684 0.5818967589755643
v -0.294826597 4.145219073183302 0.48271322407851414
v -0.692491353 4.347357146899792 0.8014412346655077
v 0.53356266 6.475781754907267 -1.8325756180362807
v 0.120571442 5.634797664929018 -0.6342919512632537
v 0.396012515 5.693072919250548 -0.5468449691682375
v -0.0791927055 5.851273170386635 -0.6462670084526386
v 0.764719367 6.512288410641324 -1.829838948728137
v 0.47168985 5.967822729029407 -0.47137358126239054
v 0.386778861 6.651333213364997 -1.7834882646236017
v -0.00351514667 6.126023940165713 -0.5707953225470423
v 0.105106771 6.884734025764121 -3.463523791059252
v 0.849091768 6.724347474833609 -1.7780137160074394
v 0.271926224 6.18429824448679 -0.4833494144518827
v 0.471151352 6.863393227557372 -1.7316631519032082
v 0.375170946 7.0281743204656175 -3.3795847532359837
v 0.702308357 6.899899883291398 -1.7289265925950792
v 0.0962991714 7.153303582856015 -3.295153369799307
v -1.02821422 7.740648369455971 -4.68918001503309
v 0.0149731636 5.964528574936918 2.124302298487777
v -0.183984458 5.202132111659886 0.47106391932555053
v -0.305425584 5.486657998977415 0.4020382478553028
v 0.129934967 5.158512954482786 0.46671833595594003
v -0.0379151106 6.160352252291244 2.0617290307564637
v -0.112946808 5.727564729117779 0.32866678401541655
v 0.108838201 6.313664951587093 2.05742767373304
v 0.200973004 5.683945561940766 0.3243214986458491
v 0.214614391 5.922016646878602 2.182575159196082
v 0.322413981 5.3994196746232115 0.39334708111608485
v -0.622280836 6.245577764850761 3.3857552928324623
v 0.361367583 6.075328396174467 2.1782742721730095
v -0.362119913 6.041774705902237 3.479614327184621
v 0.308479428 6.271153023528996 2.1157012544414417
v -0.314879417 6.38132571473708 3.4572114513089107
v -0.563742161 6.953255312446163 5.2425623179228396
v -2.05827689 6.382901041950694 -0.1836927443562955
v -0.449924827 5.703149642851484 0.12075557047714706
v -0.461357385 5.738404050797509 -0.1327241642603056
v -0.385796905 5.8978528155549785 0.2743913911349066
v -1.99851489 6.431748178420643 -0.415064193241168
v -0.408662051 5.968359721446781 -0.23256804733941594
v -2.04807258 6.559060976631452 -0.015306077699024912
v -0.333101779 6.127809446204358 0.1745474340554955
v -3.37007976 7.311926954168971 0.26983782313472493
v -1.92854881 6.656754289571079 -0.4780494518685431
v -0.344534189 6.16306290415036 -0.07893195758162329
v -1.9781065 6.784067087781886 -0.07829133612639995
v -3.34781218 7.559403932499983 -0.07649341787017476
v -1.91834414 6.832913274251565 -0.3096632616110487
v -3.12670279 7.66184441220976 0.2732254075837173
v -5.39556408 7.821307545971039 0.8751012221423551
v 1.63757074 7.033920136433195 1.0938023760628204
v 0.248342469 6.202785511593395 0.45616620817977754
v 0.106151998 6.514986110876731 0.5133922122886205
v 0.458866 6.154922892556968 0.18349184904334223
v 1.55376136 7.2589267596541625 1.1366790336587835
v 0.174485296 6.77932458112371 0.29794387326088195
v 1.5871979 7.435086113230905 0.97133007007587
v 0.385008812 6.731462432087333 0.025269469224298218
v 1.75481701 6.985073346789196 0.8855772908838709
v 0.527198851 6.419260882803779 -0.031956833484297086
v 2.48147655 7.704579709909813 2.4913031106557533
v 1.78825331 7.16123270036603 0.7202286263009978
v 2.82172132 7.511769102642452 2.321762986287763
v 1.70444417 7.386239323586925 0.7631050458969287
v 2.67376423 7.872775359141219 2.1500967038573973
v 4.58148003 9.04955703366614 3.2935796609930144
vt 0.21875 0.25
vt 0.21875 0.25
vt 0.21875 0.25
vt 0.21875 0.25
vt 0.21875 0.25
vt 0.21875 0.25
vt 0.21875 0.25
vt 0.21875 0.25
vt 0.21875 0.25
vt 0.21875 0.25
vt 0.21875 0.25
vt 0.21875 0.25
vt 0.21875 0.25
vt 0.21875 0.25
vt 0.21875 0.25
vt 0.850000024 0.25
vt 0.025000006 0.25
vt 0.025000006 0.25
vt 0.025000006 0.25
vt 0.025000006 0.25
vt 0.025000006 0.25
vt 0.025000006 0.25
vt 0.025000006 0.25
vt 0.025000006 0.25
vt 0.025000006 0.25
vt 0.025000006 0.25
vt 0.025000006 0.25
vt 0.025000006 0.25
vt 0.0859375 0.71875
vt 0.0859375 0.71875
vt 0.0859375 0.71875
vt 0.0859375 0.71875
vt 0.0859375 0.71875
vt 0.0859375 0.71875
vt 0.0859375 0.71875
vt 0.0859375 0.71875
vt 0.0859375 0.71875
vt 0.0859375 0.71875
vt 0.0859375 0.71875
vt 0.0859375 0.71875
vt 0.0859375 0.71875
vt 0.0859375 0.71875
vt 0.0859375 0.71875
vt 0.0859375 0.71875
vt 0.0859375 0.71875
vt 0.0859375 0.71875
vt 0.0859375 0.71875
vt 0.0859375 0.71875
vt 0.0859375 0.71875
vt 0.0859375 0.71875
vt 0.0859375 0.71875
vt 0.0859375 0.71875
vt 0.0859375 0.71875
vt 0.0859375 0.71875
vt 0.0859375 0.71875
vt 0.0859375 0.71875
vt 0.0859375 0.71875
vt 0.0859375 0.71875
vt 0.0859375 0.71875
vt 0.0859375 0.71875
vt 0.0859375 0.71875
vt 0.0859375 0.71875
vt 0.0859375 0.71875
vt 0.0859375 0.71875
vt 0.0859375 0.71875
vt 0.0859375 0.71875
vt 0.0859375 0.71875
vt 0.0859375 0.71875
vt 0.0859375 0.71875
vt 0.0859375 0.71875
vt 0.0859375 0.71875
vt 0.0859375 0.71875
vt 0.0859375 0.71875
vt 0.0859375 0.71875
vt 0.0859375 0.71875
vt 0.0859375 0.71875
vt 0.0859375 0.71875
vt 0.0859375 0.71875
vt 0.0859375 0.71875
vt 0.0859375 0.71875
vt 0.0859375 0.71875
vt 0.0859375 0.71875
vt 0.0859375 0.71875
vt 0.0859375 0.71875
vt 0.0859375 0.71875
vt 0.0859375 0.71875
vt 0.0859375 0.71875
vt 0.0859375 0.71875
vt 0.0859375 0.71875
vt 0.0859375 0.71875
vt 0.0859375 0.71875
vt 0.0859375 0.71875
vt 0.0859375 0.71875
vt 0.0859375 0.71875
vt 0.0859375 0.71875
vt 0.0859375 0.71875
vt 0.0859375 0.71875
vt 0.0859375 0.71875
vt 0.0859375 0.71875
vt 0.0859375 0.71875
vt 0.0859375 0.71875
vt 0.0859375 0.71875
vt 0.0859375 0.71875
vt 0.0859375 0.71875
vt 0.0859375 0.71875
vt 0.0859375 0.71875
vt 0.0859375 0.71875
vt 0.0859375 0.71875
vt 0.0859375 0.71875
vt 0.0859375 0.71875
vt 0.0859375 0.71875
vt 0.0859375 0.71875
vt 0.0859375 0.71875
vt 0.0859375 0.71875
vt 0.0859375 0.71875
vt 0.0859375 0.71875
vt 0.0859375 0.71875
vt 0.0859375 0.71875
vt 0.0859375 0.71875
vt 0.0859375 0.71875
vt 0.0859375 0.71875
vt 0.0859375 0.71875
vt 0.0859375 0.71875
vt 0.0859375 0.71875
vt 0.0859375 0.71875
vt 0.0859375 0.71875
vt 0.0859375 0.71875
vt 0.0859375 0.71875
vt 0.0859375 0.71875
vt 0.0859375 0.71875
vt 0.0859375 0.71875
vt 0.0859375 0.71875
vt 0.0859375 0.71875
vt 0.0859375 0.71875
vt 0.0859375 0.71875
vt 0.0859375 0.71875
vt 0.0859375 0.71875
vt 0.0859375 0.71875
vt 0.0859375 0.71875
vt 0.0859375 0.71875
vt 0.0859375 0.71875
vt 0.0859375 0.71875
vt 0.0859375 0.71875
vt 0.0859375 0.71875
vt 0.0859375 0.71875
vt 0.0859375 0.71875
vt 0.0859375 0.71875
vt 0.0859375 0.71875
vt 0.0859375 0.71875
vt 0.0859375 0.71875
vt 0.0859375 0.71875
vt 0.0859375 0.71875
vt 0.0859375 0.71875
vt 0.0859375 0.71875
vt 0.0859375 0.71875
vt 0.0859375 0.71875
vn -0.7372724757833582 0.2869798356743269 0.6116141515437769
vn -0.7372727470598656 0.28697996862693836 0.6116137621486952
vn -0.7372726737877222 0.28698005246083885 0.6116138111385954
vn -0.7372725981193055 0.2869798969727809 0.6116139753111445
vn -0.737273074415384 0.28698021805330254 0.61161325050081
vn -0.529679389330291 0.36160734857570687 -0.7672547621062625
vn -0.5296801988421578 0.3616071228580552 -0.7672543096345902
vn -0.5296792006762827 0.36160689498485726 -0.7672551061220413
vn -0.5296802747228766 0.36160734269972605 -0.7672541536382457
vn -0.529681840212304 0.3616069549959272 -0.767253255612435
vn 0.5273456970402821 0.2892307949393039 0.7989067924807483
vn 0.5273449272302264 0.28923061587803667 0.7989073654456809
vn 0.5273452423686131 0.2892302982778279 0.7989072724098255
vn 0.5273450773745355 0.289230871959568 0.7989071736280462
vn 0.5273436305945267 0.2892304463050146 0.7989082827218564
vn 5.476931961755911e-05 -0.9999999977532713 -3.864943848445295e-05
vn -0.11656800012170573 -0.9724439550454224 -0.201902589491177
vn -0.201906220029364 -0.9724427724397636 -0.11657157733821784
vn -0.23314209773448705 -0.9724426522051167 0.00022458014466271653
vn 0.0002274869140644483 -0.9724452462176196 -0.23313127494709382
vn -0.20213286600039737 -0.9723799461362022 0.11670280559875973
vn 0.11689049593937414 -0.9723833174728711 -0.20200815790334017
vn -0.11676258888952978 -0.9724437276639685 0.20179121478107023
vn 0.20211459912425273 -0.9723850208882402 -0.11669215900401814
vn 0.0 -0.9724451201519707 0.23313191178519402
vn 0.2333803679903785 -0.972385496679483 -0.00022289923850780087
vn 0.1165646629789164 -0.9724465741250562 0.20189190131615836
vn 0.20200209884351036 -0.972447315113483 0.11636739831840726
vn 0.08509716705497782 0.8853711853040411 -0.4570299075471259
vn 0.8807136448007773 0.12900055867679383 -0.4557437127627824
vn 0.05998071300657104 0.8878933711513499 -0.4561224348052996
vn -0.701521132081982 0.6551209427649415 0.2805078458674349
vn 0.9418723681990134 -0.10115881274487651 -0.32037998786945054
vn -0.7802013961279097 0.3920515798053829 0.48742316343416037
vn -0.4148756461624026 -0.3824274275461029 0.8256073285053854
vn -0.21002919733034792 -0.6090571058957359 0.7648118579276083
vn 0.5937671582660298 -0.7344366063189848 0.3286996091621281
vn 0.5624611838432513 -0.7598165514831314 0.32606168858351076
vn -0.5008397188552446 0.021921163634733818 0.8652624102559283
vn -0.865817683083765 0.02192445311479269 0.49987904338457534
vn -0.4974958280496868 -0.00025310495511697356 0.8674663319178666
vn 0.0 0.021913191249301085 0.9997598771951551
vn 0.007281127914502327 0.020875466595541976 0.9997555701623828
vn 0.4998804018012087 0.02190545244285819 0.8658173797333568
vn 0.5050205476103854 0.043367050727106164 0.8620171375341322
vn 0.866364971855595 0.02189901497575468 0.4989310259792887
vn -0.0363642079650579 0.06589176954170743 0.9971639379188041
vn 0.8678761561467615 0.0602960287850503 0.49310786497953424
vn 0.9997558518259779 0.02206319944307046 -0.0012049771983256125
vn 0.8430944668755475 0.0797782207634217 0.5318149635123662
vn 0.9977375900890402 0.06716862759976305 -0.002841969331067216
vn 0.8657325806476444 0.06249851843837268 -0.49658940181822075
vn 0.8658051330132872 0.022233201337795536 -0.49988714366956594
vn 0.8775779989024118 0.06777875935926578 -0.47461868444273986
vn 0.5069708910506218 0.04860295523272412 -0.8605918128648358
vn 0.5009238857449175 0.02206932151526858 -0.8652099200414131
vn 0.009487577982637257 0.027631737143467894 -0.9995731453807958
vn 0.0011074060861862875 0.021912585123040493 -0.9997592771587498
vn 0.0032660666229619504 0.04335089077473047 -0.9990545696196238
vn -0.4945104437947189 0.006307474622377104 -0.8691488001152842
vn -0.4998854561953513 0.021920574373093273 -0.8658140788318929
vn 0.878562127268701 0.18601732402764629 0.43991606436988495
vn 0.07865750587358993 0.18043204059969079 -0.9804372878949361
vn -0.8618890860159737 0.045471575201360075 -0.505053996375889
vn -0.8640752510052049 -0.010678062749642772 -0.5032493810986823
vn -0.8658177695717297 0.021926611818939973 -0.49987879889826947
vn -0.999830822627287 -0.018308950271097316 0.0017630837793513373
vn -0.9997589131001917 0.02192945768957083 0.0011020717601708345
vn -0.8643684076205972 -0.01485488581500327 0.5026396206775351
vn -0.8774866577711876 0.05478853329216296 0.47646131223137533
vn -0.8601158189338355 0.019574210922380913 0.5097230898110697
vn -0.24593892838793893 0.963328412110791 0.10729591755278602
vn -0.9349427045680088 -0.12614864513558652 0.3316152265887571
vn -0.5342160283983259 -0.7264454626351382 -0.4323080207666043
vn -0.6443292885963954 -0.6790468030645377 -0.35176015565253277
vn 0.20266475332807588 -0.5142515128890848 -0.8333500940479682
vn -0.8486982998645205 0.17035927593061012 0.5006884389632645
vn 0.3422729121751357 -0.37372307251413306 -0.8620790675232451
vn 0.7519139837627159 0.4144613121910987 -0.5126862410080015
vn 0.7138628107101966 0.6390117764345087 -0.2864678639270925
vn -0.030281665390612344 0.8557042589109075 0.5165783987188252
vn 0.018350621382787872 0.8618771348899995 0.5067850225180999
vn 0.4072049200571279 -0.14034083606254438 0.9024902231129899
vn -0.28821823231182236 -0.7720862399750588 0.566403644589461
vn -0.2872234144522075 -0.7477609357432129 0.5986286772005248
vn -0.7957046970190005 -0.5856537701000843 -0.15447879048418955
vn 0.5414550180504 0.08899382509640308 0.8360063172744281
vn -0.8705813435840618 -0.35085044774194174 -0.3449522974595889
vn -0.550948613119201 0.4287898814417709 -0.715957305483491
vn -0.3312398833172445 0.6846889472290985 -0.6492158233147797
vn 0.48394131630657733 0.8723668106223115 0.06911548376531455
vn 0.4806780670954866 0.8757773604382082 0.044301362927472485
vn -0.28498257588440823 -0.8656973658979287 -0.4115252144397412
vn -0.11958829794394248 -0.7928057264968716 -0.5976267388835931
vn 0.6725307809798338 -0.6899774114946472 -0.2676443914260133
vn -0.8358062252415667 -0.24576216517679136 -0.49094695438006236
vn 0.695623382454737 -0.6648366265468398 -0.2722138309932992
vn 0.9456513073098392 0.08865298703397344 0.31286459191341265
vn -0.9911038768039797 -0.0759769208537758 -0.10927311143049358
vn -0.776852007344793 0.6231495740736668 0.09047412346175933
vn -0.2922607016040448 -0.8839747372890645 -0.3649278642864104
vn 0.9815914293838053 0.18106024654252909 0.060790236734337214
vn 0.19724180143212616 0.81944946875149 0.5381433265689639
vn -0.5423763768652105 0.7923299781006462 0.2793583211962672
vn 0.8684130983958139 0.14798710977669288 -0.4732425444468443
vn 0.4139607702167169 0.8580404496224646 0.30397872875130794
vn -0.49763572995125693 0.7957039562849739 0.34527365122221526
vn -0.6311059597227436 0.37328751709821684 -0.6799718355793004
vn -0.6780070632963512 -0.7289598054169909 0.09446705355138574
vn -0.5763719496047375 -0.7134965184008831 0.39839439496390033
vn -0.9876378055933878 0.12178542445583013 0.09869080683017357
vn 0.36447618825928946 -0.8527323040144381 0.37417205384983937
vn -0.9373369503062159 0.2948773132979009 -0.1855985228735782
vn -0.40849128568089876 0.8770523441841594 -0.25281229219291756
vn -0.18143368562160334 0.9577636000621985 -0.22309348739409277
vn 0.6201218574544544 0.7334577726258819 -0.27836770229665214
vn 0.3363237105103223 -0.8944047267478404 0.2948330824715737
vn 0.9863843207456354 -0.15754128007412038 0.0471881008282704
vn -0.9877717566858999 0.05320939836764461 -0.14654595394962183
vn 0.9590172000846374 -0.15002818869233486 0.24036961650657823
vn 0.1943678512211342 -0.9020651200487884 0.3853565331002501
vn 0.709390206602434 0.7047405996690842 -0.010306403573313262
vn 0.5759603367284795 0.8143624513834171 0.07129858548672603
vn -0.06805501271883836 0.37358057406691214 0.925097870456783
vn -0.49203829869033566 -0.8555450400674388 0.1610620906294361
vn -0.4189105409705047 -0.7933255962294756 0.4417561058219184
vn -0.2517688456979698 -0.8104571871774454 -0.5289343967717878
vn -0.22011580496907 -0.0942293928233517 0.9709118672315016
vn -0.34869832099440967 -0.5912180099605303 -0.7272350002811953
vn 0.18463198529783964 0.031134898780149207 -0.9823144344266393
vn -0.10070810614865276 -0.2928796200178291 0.9508309027025592
vn 0.17446239833121086 0.7240713420572964 0.6672957089475905
vn -0.28377753409814904 -0.830766196088921 0.4788505388710744
vn 0.056470132937205764 0.2207829224140281 -0.9736868209318514
vn 0.40828755918266024 0.8479640659098553 -0.3380210229294807
vn 0.4092239355636115 0.5828182672456258 0.7020389148235555
vn -0.3016832017412748 0.32995103984879226 -0.8944940229480766
vn 0.4230287726065814 0.8511343901123619 -0.31083260368730115
vn 0.382445049327043 0.774534624147075 0.5038173282476348
vn -0.9372791857099495 0.13983484180689054 0.319302278494432
vn -0.11971719706078603 -0.7542325819367157 0.6456012740639415
vn 0.045573576958189393 -0.6548979742155797 0.7543418936076437
vn -0.44580093857373165 0.12191859196651728 0.8867904939159427
vn 0.5377210554431273 -0.8431218747419966 0.0012533414021125545
vn -0.6967878398318038 0.16705232577939308 0.69755302788693
vn -0.48607735367201704 0.8546359271934427 0.18255475397100251
vn -0.4355186704883424 0.8995145416017605 0.03459880204633088
vn 0.05474345633340544 0.6980434709877013 -0.7139597093674926
vn 0.5799005896324324 -0.8070684450642751 -0.11115678623228893
vn 0.5908254565936111 -0.21261500944323247 -0.7782802436143458
vn -0.6090736082810708 0.02533549827440319 0.7927089328515633
vn 0.6900207894621989 -0.086062950003916 -0.7186546310618106
vn 0.5733525212316101 -0.814345842767979 0.09004296065693476
vn 0.2425468224399945 0.7246495886898373 -0.6450224899458245
vn 0.1515891465708516 0.8358029152575149 -0.5276876135451352
vn 0.7551012707957776 0.5319117628018024 0.3832648528572388
f 3/3/3 2/2/2 1/1/1
f 1/1/1 2/2/2 4/4/4
f 4/4/4 2/2/2 5/5/5
f 8/8/8 7/7/7 6/6/6
f 6/6/6 7/7/7 9/9/9
f 10/10/10 9/9/9 7/7/7
f 13/13/13 12/12/12 11/11/11
f 11/11/11 12/12/12 14/14/14
f 14/14/14 12/12/12 15/15/15
f 18/18/18 17/17/17 16/16/16
f 19/19/19 18/18/18 16/16/16
f 17/17/17 20/20/20 16/16/16
f 21/21/21 19/19/19 16/16/16
f 20/20/20 22/22/22 16/16/16
f 23/23/23 21/21/21 16/16/16
f 22/22/22 24/24/24 16/16/16
f 25/25/25 23/23/23 16/16/16
f 24/24/24 26/26/26 16/16/16
f 27/27/27 25/25/25 16/16/16
f 26/26/26 28/28/28 16/16/16
f 28/28/28 27/27/27 16/16/16
f 31/31/31 30/30/30 29/29/29
f 31/31/31 29/29/29 32/32/32
f 30/30/30 33/33/33 29/29/29
f 29/29/29 34/34/34 32/32/32
f 32/32/32 34/34/34 35/35/35
f 34/34/34 36/36/36 35/35/35
f 30/30/30 37/37/37 33/33/33
f 35/35/35 36/36/36 37/37/37
f 37/37/37 38/38/38 33/33/33
f 36/36/36 38/38/38 37/37/37
f 41/41/41 40/40/40 39/39/39
f 41/41/41 39/39/39 42/42/42
f 43/43/43 41/41/41 42/42/42
f 43/43/43 42/42/42 44/44/44
f 45/45/45 43/43/43 44/44/44
f 44/44/44 46/46/46 45/45/45
f 41/41/41 43/43/43 47/47/47
f 43/43/43 45/45/45 47/47/47
f 48/48/48 45/45/45 46/46/46
f 48/48/48 46/46/46 49/49/49
f 45/45/45 48/48/48 50/50/50
f 47/47/47 45/45/45 50/50/50
f 51/51/51 48/48/48 49/49/49
f 48/48/48 51/51/51 50/50/50
f 52/52/52 51/51/51 49/49/49
f 52/52/52 49/49/49 53/53/53
f 50/50/50 51/51/51 54/54/54
f 51/51/51 52/52/52 54/54/54
f 52/52/52 53/53/53 55/55/55
f 52/52/52 55/55/55 54/54/54
f 53/53/53 56/56/56 55/55/55
f 55/55/55 56/56/56 57/57/57
f 58/58/58 57/57/57 56/56/56
f 55/55/55 57/57/57 59/59/59
f 54/54/54 55/55/55 59/59/59
f 57/57/57 58/58/58 60/60/60
f 57/57/57 60/60/60 59/59/59
f 61/61/61 60/60/60 58/58/58
f 50/50/50 54/54/54 62/62/62
f 47/47/47 50/50/50 62/62/62
f 54/54/54 59/59/59 63/63/63
f 62/62/62 54/54/54 63/63/63
f 59/59/59 60/60/60 64/64/64
f 59/59/59 64/64/64 63/63/63
f 60/60/60 61/61/61 65/65/65
f 60/60/60 65/65/65 64/64/64
f 61/61/61 66/66/66 65/65/65
f 65/65/65 66/66/66 67/67/67
f 65/65/65 67/67/67 64/64/64
f 68/68/68 67/67/67 66/66/66
f 40/40/40 67/67/67 68/68/68
f 69/69/69 67/67/67 40/40/40
f 69/69/69 40/40/40 41/41/41
f 67/67/67 69/69/69 70/70/70
f 69/69/69 41/41/41 70/70/70
f 70/70/70 41/41/41 47/47/47
f 64/64/64 67/67/67 70/70/70
f 70/70/70 47/47/47 71/71/71
f 64/64/64 70/70/70 71/71/71
f 71/71/71 47/47/47 62/62/62
f 63/63/63 64/64/64 71/71/71
f 72/72/72 71/71/71 62/62/62
f 72/72/72 63/63/63 71/71/71
f 72/72/72 62/62/62 63/63/63
f 75/75/75 74/74/74 73/73/73
f 76/76/76 74/74/74 75/75/75
f 77/77/77 75/75/75 73/73/73
f 78/78/78 76/76/76 75/75/75
f 79/79/79 76/76/76 78/78/78
f 80/80/80 79/79/79 78/78/78
f 77/77/77 73/73/73 81/81/81
f 81/81/81 79/79/79 80/80/80
f 82/82/82 77/77/77 81/81/81
f 82/82/82 81/81/81 80/80/80
f 85/85/85 84/84/84 83/83/83
f 86/86/86 84/84/84 85/85/85
f 87/87/87 85/85/85 83/83/83
f 88/88/88 86/86/86 85/85/85
f 89/89/89 86/86/86 88/88/88
f 90/90/90 89/89/89 88/88/88
f 87/87/87 83/83/83 91/91/91
f 91/91/91 89/89/89 90/90/90
f 92/92/92 87/87/87 91/91/91
f 92/92/92 91/91/91 90/90/90
f 95/95/95 94/94/94 93/93/93
f 94/94/94 96/96/96 93/93/93
f 97/97/97 95/95/95 93/93/93
f 98/98/98 95/95/95 97/97/97
f 96/96/96 99/99/99 93/93/93
f 96/96/96 100/100/100 99/99/99
f 97/97/97 93/93/93 101/101/101
f 93/93/93 99/99/99 101/101/101
f 102/102/102 98/98/98 97/97/97
f 103/103/103 98/98/98 102/102/102
f 100/100/100 104/104/104 99/99/99
f 100/100/100 103/103/103 104/104/104
f 102/102/102 97/97/97 105/105/105
f 105/105/105 97/97/97 101/101/101
f 106/106/106 103/103/103 102/102/102
f 103/103/103 106/106/106 104/104/104
f 106/106/106 102/102/102 105/105/105
f 99/99/99 104/104/104 107/107/107
f 104/104/104 106/106/106 107/107/107
f 101/101/101 99/99/99 107/107/107
f 107/107/107 106/106/106 105/105/105
f 108/108/108 105/105/105 101/101/101
f 108/108/108 101/101/101 107/107/107
f 108/108/108 107/107/107 105/105/105
f 111/111/111 110/110/110 109/109/109
f 110/110/110 112/112/112 109/109/109
f 113/113/113 111/111/111 109/109/109
f 114/114/114 111/111/111 113/113/113
f 115/115/115 114/114/114 113/113/113
f 116/116/116 114/114/114 115/115/115
f 112/112/112 117/117/117 109/109/109
f 112/112/112 118/118/118 117/117/117
f 113/113/113 109/109/109 119/119/119
f 115/115/115 113/113/113 119/119/119
f 118/118/118 116/116/116 120/120/120
f 118/118/118 120/120/120 117/117/117
f 109/109/109 117/117/117 121/121/121
f 119/119/119 109/109/109 121/121/121
f 117/117/117 120/120/120 121/121/121
f 122/122/122 116/116/116 115/115/115
f 116/116/116 122/122/122 120/120/120
f 122/122/122 115/115/115 123/123/123
f 120/120/120 122/122/122 123/123/123
f 123/123/123 115/115/115 119/119/119
f 121/121/121 120/120/120 123/123/123
f 124/124/124 119/119/119 121/121/121
f 124/124/124 121/121/121 123/123/123
f 124/124/124 123/123/123 119/119/119
f 127/127/127 126/126/126 125/125/125
f 126/126/126 128/128/128 125/125/125
f 129/129/129 127/127/127 125/125/125
f 130/130/130 127/127/127 129/129/129
f 128/128/128 131/131/131 125/125/125
f 128/128/128 132/132/132 131/131/131
f 129/129/129 125/125/125 133/133/133
f 125/125/125 131/131/131 133/133/133
f 134/134/134 130/130/130 129/129/129
f 135/135/135 130/130/130 134/134/134
f 132/132/132 136/136/136 131/131/131
f 132/132/132 135/135/135 136/136/136
f 134/134/134 129/129/129 137/137/137
f 137/137/137 129/129/129 133/133/133
f 138/138/138 135/135/135 134/134/134
f 135/135/135 138/138/138 136/136/136
f 138/138/138 134/134/134 137/137/137
f 131/131/131 136/136/136 139/139/139
f 136/136/136 138/138/138 139/139/139
f 133/133/133 131/131/131 139/139/139
f 139/139/139 138/138/138 137/137/137
f 140/140/140 137/137/137 133/133/133
f 140/140/140 133/133/133 139/139/139
f 140/140/140 139/139/139 137/137/137
f 143/143/143 142/142/142 141/141/141
f 142/142/142 144/144/144 141/141/141
f 145/145/145 143/143/143 141/141/141
f 146/146/146 143/143/143 145/145/145
f 147/147/147 146/146/146 145/145/145
f 148/148/148 146/146/146 147/147/147
f 144/144/144 149/149/149 141/141/141
f 144/144/144 150/150/150 149/149/149
f 145/145/145 141/141/141 151/151/151
f 147/147/147 145/145/145 151/151/151
f 150/150/150 148/148/148 152/152/152
f 150/150/150 152/152/152 149/149/149
f 141/141/141 149/149/149 153/153/153
f 151/151/151 141/141/141 153/153/153
f 149/149/149 152/152/152 153/153/153
f 154/154/154 148/148/148 147/147/147
f 148/148/148 154/154/154 152/152/152
f 154/154/154 147/147/147 155/155/155
f 152/152/152 154/154/154 155/155/155
f 155/155/155 147/147/147 151/151/151
f 153/153/153 152/152/152 155/155/155
f 156/156/156 151/151/151 153/153/153
f 156/156/156 153/153/153 155/155/155
f 156/156/156 155/155/155 151/151/151
