v 0.0 1.6000002349741798 -4.2510938358596745e-07
v -0.714806676 1.4999981665141335 -0.41269377186781664
v -0.412679374 1.4999980749901465 -0.7148067494593632
v -0.825387418 1.4999982915381367 -6.068686291074777e-08
v -2.21837904e-09 1.4999980414899965 -0.8253879243169207
v -0.714806855 1.4999984165621092 0.4126935490302592
v 0.412698835 1.4999980749900743 -0.7148069874593952
v -0.412703305 1.499998508085997 0.7148061986217616
v 0.714806497 1.4999981665140159 -0.4126941598678688
v 1.22431601e-07 1.4999985415860384 0.8253870154792711
v 0.825371563 1.4999982915380354 -3.9481417200370256e-07
v 0.412698627 1.4999985080859606 0.7148060786217456
v 0.714822233 1.499998416562046 0.4126933400302311
v -0.412679374 1.4999980749901465 -0.7148067494593632
v -0.450000554 -1.2000006873538391 -0.7794223821867187
v -2.21837904e-09 1.4999980414899965 -0.8253879243169207
v -0.714806676 1.4999981665141335 -0.41269377186781664
v 0.0 -1.2000007238823112 -0.8999997933873587
v -0.779423177 -1.2000005875563402 -0.4499992379258099
v 0.412698835 1.4999980749900743 -0.7148069874593952
v 0.450000018 -1.2000006873539113 -0.7794226201867506
v 0.714806497 1.4999981665140159 -0.4126941598678688
v 0.779422939 -1.2000005875564754 -0.44999968492587
v 0.825371563 1.4999982915380354 -3.9481417200370256e-07
v 0.900000036 -1.2000004512306461 4.0287586609171896e-07
v 0.714822233 1.499998416562046 0.4126933400302311
v 0.779422879 -1.2000003149048137 0.4500005009971032
v 0.412698627 1.4999985080859606 0.7148060786217456
v 0.450000077 -1.200000215107405 0.7794233472579718
v 1.22431601e-07 1.4999985415860384 0.8253870154792711
v 1.35896229e-07 -1.200000178579005 0.9000005204585799
v -0.412703305 1.499998508085997 0.7148061986217616
v -0.449999839 -1.200000215107369 0.7794234662579879
v -0.714806855 1.4999984165621092 0.4126935490302592
v -0.7794227 -1.2000003149047413 0.4500007399971353
v -0.825387418 1.4999982915381367 -6.068686291074777e-08
v -0.900000036 -1.2000004512305313 7.819567478245832e-07
v 0.10162238 -0.25927651862737744 -0.6033786565224737
v -0.0663740858 -0.2583438243287686 -0.602806630728173
v -0.0998312533 0.2332200372387453 -0.8519547641208458
v -0.151526347 -0.4190277989077856 -0.6786936762456772
v 0.142088816 0.23321999323873938 -0.8519547641208325
v 0.184466556 -0.4208931865049849 -0.6798376678342707
v -0.220791161 0.26399017623938476 -1.0603535024427722
v -0.0686821491 -0.5806438417850021 -0.7551516745575276
v 0.263048828 0.26399008623937265 -1.0603535024427448
v 0.0993143022 -0.5815765350836105 -0.7557236993518284
v -0.0998311713 0.29476041924007484 -1.2687521197647138
v 0.142088875 0.29476041924007484 -1.2687521197647138
v -0.115344882 1.306171118451117 -0.7824644688306439
v -0.229165241 1.0781416346056223 -0.6610161644323179
v 0.126464039 1.310751377331761 -0.7881907489875928
v -0.101176813 0.8546925276407507 -0.5452942591909922
v 0.254452467 1.08730215236691 -0.6724687247462154
v 0.140632093 0.8592727865214307 -0.551020420347925
v 0.483620942 0.7970802245382259 0.25563413087431136
v 0.313068569 0.7973268605486254 0.42720671985190223
v 0.717916608 0.15267365358780646 0.49538414730737923
v 0.662989318 1.0213671669222473 0.2630581199249164
v 0.546853364 0.1526737054107871 0.6664474442912439
v 0.321884781 1.021860560943126 0.6062035068800893
v 0.950350225 0.19136710537845497 0.5567542478309662
v 0.671805501 1.245900931316666 0.442054608953044
v 0.608223498 0.1913671200244224 0.8988809017987306
v 0.501253188 1.24614727332708 0.613627376930748
v 0.840657055 0.23006048181512248 0.9602512123223729
v 1.01172054 0.2300604299921867 0.7891880633385282
v 0.519820631 -0.5401456501168296 0.5857692403383898
v 0.392106891 -0.38474055693897735 0.5768494760605593
v 0.638614595 -0.5401456861050181 0.4669752593773693
v 0.383188307 -0.2293364847491386 0.44913674482214305
v 0.62969476 -0.3847401529153533 0.3392613061383463
v 0.501982272 -0.22933652073733585 0.3303427348611187
v -0.818131566 0.18586611481730383 -0.1886654116563124
v -0.468730032 1.0838770818828007 -0.11139191732292777
v -0.575509012 1.2622456294613404 -0.26451107893192494
v -0.528344393 1.0853983831144558 0.1230631027173238
v -0.984219551 0.25182507926036235 -0.3583956114430961
v -0.741902053 1.4421355882715545 -0.18317520550070177
v -0.880745053 0.18586618560881688 0.04501141424023282
v -0.694737494 1.2652879919246138 0.20439894714864912
v -1.10944653 0.25182527984338543 0.10895800434997167
v -0.801516294 1.4436567695031852 0.05127978863958273
v -1.27553463 0.3177842742864501 -0.06077218813682011
v -1.21292067 0.3177840844949288 -0.29444898883332593
v -0.771651685 -0.6458350582351393 -0.15996714383974447
v -0.62891978 -0.5484887529057775 -0.2053546864286579
v -0.817420185 -0.6483370936073024 0.0016589454741448846
v -0.531955957 -0.45364492994857886 -0.08911594124351986
v -0.720456779 -0.5534930616501289 0.11789751551919608
v -0.577724397 -0.45614708432076595 0.07251012213040207
v 0.499083132 -0.41432318452719447 -0.22069654713492126
v 0.396850497 -0.4116041795403043 -0.3539823718667733
v 0.583838224 0.3341706461704469 -0.5206481141894431
v 0.446153075 -0.4985732532942761 -0.4994501230647143
v 0.732125342 0.33417067407701806 -0.32950338350745145
v 0.650618553 -0.5040108152680549 -0.232878667601172
v 0.675231099 0.3341862843148029 -0.7446408492896034
v 0.597688317 -0.5882610040351796 -0.5116323325309409
v 0.971805036 0.334186340127981 -0.3623512699256041
v 0.699921012 -0.5909797700220424 -0.3783465237991633
v 0.914910555 0.3342019203657439 -0.7774887947077548
v 1.06319737 0.33420191827231105 -0.586344064025754
v 0.577702224 1.4510940614554582 -0.539739346122211
v 0.380587071 1.2901531599323668 -0.5394067633210929
v 0.723438144 1.4548228704434485 -0.3466786843124169
v 0.329207927 1.1329408173972229 -0.34601354871010914
v 0.67205888 1.2976105279083359 -0.153285365701419
v 0.474943787 1.13666962638524 -0.15295279790030303
v -0.212689355 -0.378142821656576 0.5022353560367278
v -0.0537068471 -0.3828003728927945 0.556335937716611
v -0.0958885103 0.31527517932785926 0.8020164492466528
v -0.0133640785 -0.49876750239103257 0.6886465006255156
v -0.323219001 0.315275154261649 0.7192749991296084
v -0.331329048 -0.48945246091863964 0.5804452182657515
v -0.0537810177 0.33097005052985473 1.0399902294658523
v -0.132003814 -0.6100777076531363 0.7668564818547268
v -0.508441985 0.33096997039737475 0.8745071462317477
v -0.290986329 -0.6054200974169099 0.7127558991748255
v -0.239003956 0.3466648376656671 1.1952226755680408
v -0.466334403 0.34666478259950706 1.1124814044510294
v -0.339879036 1.4373882274330774 0.7074099355955535
v -0.390391707 1.2959670633345417 0.4925290655673938
v -0.1125485 1.43738825249936 0.7901516247126302
v -0.213573858 1.154545814302247 0.3603897956563321
v 0.0642692596 1.2959671134670345 0.658012204801515
v 0.0137565983 1.1545461893685225 0.44313130577327864
vt 0.850000024 0.25
vt 0.025000006 0.25
vt 0.025000006 0.25
vt 0.025000006 0.25
vt 0.025000006 0.25
vt 0.025000006 0.25
vt 0.025000006 0.25
vt 0.025000006 0.25
vt 0.025000006 0.25
vt 0.025000006 0.25
vt 0.025000006 0.25
vt 0.025000006 0.25
vt 0.025000006 0.25
vt 0.0786485747 0.755149007
vt 0.0786485747 0.755149007
vt 0.0786485747 0.755149007
vt 0.0786485747 0.755149007
vt 0.0786485747 0.755149007
vt 0.0786485747 0.755149007
vt 0.0786485747 0.755149007
vt 0.0786485747 0.755149007
vt 0.0786485747 0.755149007
vt 0.0786485747 0.755149007
vt 0.0786485747 0.755149007
vt 0.0786485747 0.755149007
vt 0.0786485747 0.755149007
vt 0.0786485747 0.755149007
vt 0.0786485747 0.755149007
vt 0.0786485747 0.755149007
vt 0.0786485747 0.755149007
vt 0.0786485747 0.755149007
vt 0.0786485747 0.755149007
vt 0.0786485747 0.755149007
vt 0.0786485747 0.755149007
vt 0.0786485747 0.755149007
vt 0.0786485747 0.755149007
vt 0.0786485747 0.755149007
vt 0.0859375 0.71875
vt 0.0859375 0.71875
vt 0.0859375 0.71875
vt 0.0859375 0.71875
vt 0.0859375 0.71875
vt 0.0859375 0.71875
vt 0.0859375 0.71875
vt 0.0859375 0.71875
vt 0.0859375 0.71875
vt 0.0859375 0.71875
vt 0.0859375 0.71875
vt 0.0859375 0.71875
vt 0.0859375 0.71875
vt 0.0859375 0.71875
vt 0.0859375 0.71875
vt 0.0859375 0.71875
vt 0.0859375 0.71875
vt 0.0859375 0.71875
vt 0.0859375 0.71875
vt 0.0859375 0.71875
vt 0.0859375 0.71875
vt 0.0859375 0.71875
vt 0.0859375 0.71875
vt 0.0859375 0.71875
vt 0.0859375 0.71875
vt 0.0859375 0.71875
vt 0.0859375 0.71875
vt 0.0859375 0.71875
vt 0.0859375 0.71875
vt 0.0859375 0.71875
vt 0.0859375 0.71875
vt 0.0859375 0.71875
vt 0.0859375 0.71875
vt 0.0859375 0.71875
vt 0.0859375 0.71875
vt 0.0859375 0.71875
vt 0.0859375 0.71875
vt 0.0859375 0.71875
vt 0.0859375 0.71875
vt 0.0859375 0.71875
vt 0.0859375 0.71875
vt 0.0859375 0.71875
vt 0.0859375 0.71875
vt 0.0859375 0.71875
vt 0.0859375 0.71875
vt 0.0859375 0.71875
vt 0.0859375 0.71875
vt 0.0859375 0.71875
vt 0.0859375 0.71875
vt 0.0859375 0.71875
vt 0.0859375 0.71875
vt 0.0859375 0.71875
vt 0.0859375 0.71875
vt 0.0859375 0.71875
vt 0.0859375 0.71875
vt 0.0859375 0.71875
vt 0.0859375 0.71875
vt 0.0859375 0.71875
vt 0.0859375 0.71875
vt 0.0859375 0.71875
vt 0.0859375 0.71875
vt 0.0859375 0.71875
vt 0.0859375 0.71875
vt 0.0859375 0.71875
vt 0.0859375 0.71875
vt 0.0859375 0.71875
vt 0.0859375 0.71875
vt 0.0859375 0.71875
vt 0.0859375 0.71875
vt 0.0859375 0.71875
vt 0.0859375 0.71875
vt 0.0859375 0.71875
vt 0.0859375 0.71875
vt 0.0859375 0.71875
vt 0.0859375 0.71875
vt 0.0859375 0.71875
vt 0.0859375 0.71875
vt 0.0859375 0.71875
vt 0.0859375 0.71875
vt 0.0859375 0.71875
vt 0.0859375 0.71875
vt 0.0859375 0.71875
vt 0.0859375 0.71875
vt 0.0859375 0.71875
vt 0.0859375 0.71875
vt 0.0859375 0.71875
vt 0.0859375 0.71875
vt 0.0859375 0.71875
vt 0.0859375 0.71875
vt 0.0859375 0.71875
vn 0.0 0.9999999999999543 -3.0294622825613797e-07
vn -0.10416312359920396 0.9927402395687202 -0.06014033939958148
vn -0.060138551050083505 0.9927400969576602 -0.10416551526341254
vn -0.12027791536707609 0.992740259622254 -3.007469172905948e-07
vn 0.0 0.9927402150458151 -0.12027828328833332
vn -0.10416406513151882 0.9927402857141138 0.060137946884944365
vn 0.06013907591756052 0.9927402667418831 -0.10416359410579586
vn -0.060138911542205006 0.9927403830837158 0.104162580197094
vn 0.10416490332791767 0.992740236985687 -0.06013729944291902
vn 0.0 0.9927402843392021 0.12027771136050194
vn 0.12028016135398073 0.992739987501546 -3.007468348526527e-07
vn 0.06013772407973431 0.9927403374795346 0.10416370041204122
vn 0.10416336550041883 0.9927405272277633 0.0601351717979463
vn -0.49980212762378085 0.027626255298754794 -0.8656989218203462
vn -0.4998096047991986 0.027623801988582285 -0.8656946831961972
vn 0.0 0.027624185763832885 -0.9996183793632875
vn -0.865690063153618 0.02762558473515898 -0.4998175083219129
vn 0.0 0.027623236588706 -0.9996184055930364
vn -0.8656942240119997 0.02762364348164347 -0.4998104088882709
vn 0.4998125087780004 0.027622804361622556 -0.865693038408096
vn 0.49980748421454685 0.027623183334785355 -0.8656959272548177
vn 0.8657062176434662 0.02762294909095353 -0.4997896731795907
vn 0.865694650930741 0.02762626268144645 -0.4998095246793104
vn 0.9996183071498579 0.02762679232488629 -1.888623905505008e-05
vn 0.9996183740290455 0.027624378789889832 -8.368701362316364e-09
vn 0.8657061691481687 0.02762455995963127 0.4997896681463505
vn 0.8656952511673545 0.027620206531999696 0.49980881974753183
vn 0.499800548746298 0.027621713426053462 0.8656999782951992
vn 0.4998104984848089 0.027623342846913663 0.8656941818762148
vn 0.0 0.027623877622939115 0.9996183878786309
vn 0.0 0.027623646799209537 0.9996183942572847
vn -0.4998142675372789 0.02762273890419836 0.8656920250652678
vn -0.4998074440117413 0.027623360647553333 0.8656959448079824
vn -0.8656987027670009 0.02762254217248776 0.49980271226901213
vn -0.8656938511117939 0.02762384532037863 0.4998110436124307
vn -0.9996183930602666 0.02762369011573597 -8.368492731078955e-09
vn -0.999618390693816 0.027623775750350688 -8.36851867376249e-09
vn 0.5394792012723468 0.34446266909557277 0.768314818934338
vn -0.5339066217583528 0.35307180978986014 0.768299431455143
vn -0.5777980598081898 -0.0009619849785685741 0.8161791939683298
vn -0.986583905243934 -0.1433437472897399 -0.07813301495887316
vn 0.5827117646350263 0.002368060846381768 0.8126754528369622
vn 0.9841964033927366 -0.15751276082045793 -0.08091458291012227
vn -0.9858005543177815 -0.07580015333297299 -0.14983859269711758
vn -0.3926277476473977 -0.4881777984093482 -0.7794394709774025
vn 0.986648674217472 -0.06971394745008895 -0.14718817614139737
vn 0.3814145431612202 -0.4935977857195132 -0.7815907958758925
vn -0.44421310028402805 -0.03422065063169853 -0.8952673726917536
vn 0.4484126447942674 -0.031655645203071126 -0.8932659291137145
vn -0.4075324599551156 0.38963156075119953 -0.8258962047070544
vn -0.9838691382216882 0.07171813142272145 -0.16388419228267817
vn 0.3532846613767545 0.40301701693153225 -0.8442554306011428
vn -0.5434763329033258 -0.37239342320938745 0.7523008799173024
vn 0.9709401941808004 0.10783490356351791 -0.21365105405215484
vn 0.5937406920679208 -0.35102590994240057 0.7240530375130101
vn -0.10210538068121686 -0.37927172808553383 -0.9196344097036369
vn -0.9217268242464733 -0.3735036783384281 -0.10447326802668223
vn -0.139266709723264 0.044684900030306146 -0.9892461995237272
vn 0.8113286845247049 0.07249069532042761 -0.5800783264003001
vn -0.989393018668489 0.046798548799309725 -0.1375185458050426
vn -0.5821651378434756 0.0814027900419424 0.8089853756731791
vn 0.808451702620122 -0.0939883826523113 -0.5810094908493567
vn 0.8686529980387531 0.39496156295297014 0.29907746954264713
vn -0.5822189212529991 -0.09066105101447315 0.8079614480678795
vn 0.30472840984505456 0.39932033160719566 0.8646871509386638
vn 0.31773449157692846 -0.04706592025745443 0.9470108721723682
vn 0.9464448579619512 -0.04834619032381636 0.31922527581404847
vn 0.21977928716264508 -0.5224441261902721 0.8238623671121063
vn -0.6955709689373157 -0.12068152839634678 0.7082492469996177
vn 0.8244980668425737 -0.5214358287540637 0.2197899321270694
vn -0.8884662288465802 0.4448485574533731 -0.11286062701752751
vn 0.7102280584544834 -0.11863452469870678 -0.6939034187359842
vn -0.11028503673387988 0.4460635501603524 -0.8881804545760674
vn 0.9454760854797 0.03300112694441744 -0.3240152734152843
vn 0.8852249956529799 -0.3149719201827223 -0.34230015566398847
vn 0.08839555593556053 0.05847654559595588 -0.9943674971085927
vn 0.6185988334315705 -0.3041162274761799 0.7244644942733609
vn 0.11455309902169093 -0.0782066592344209 -0.990333936587007
vn -0.7094333183824519 0.3548900318960408 -0.6088985400127758
vn 0.6464691607539231 0.019838447238730707 0.7626821488702057
vn -0.39066226209326804 0.07732386389992164 0.91728077329014
vn -0.3944500388964852 -0.08729203426419939 0.9147618638577906
vn -0.9119103362647989 0.363301048172478 0.19087138866315168
vn -0.9781456316428462 -0.006816533518345801 0.20780918692110475
vn -0.7481247224688953 -0.007145775290454695 -0.663519658733889
vn -0.6292454415008293 -0.40024757883945516 -0.6662222226731711
vn 0.2579815117395224 -0.05834908363125214 -0.9643862939921864
vn -0.8787449914027744 -0.4224374351897774 0.22215727184771766
vn 0.8894148325741387 0.3527538016079238 -0.2906991762084555
vn -0.273101478188126 -0.10956397982622224 0.9557255447753291
vn 0.6161697629800773 0.3247922932258841 0.7175268562570648
vn -0.3276176724075383 0.23502123542653522 0.9151129327164228
vn -0.9627721512528641 0.25882230971343667 0.07797946374869372
vn -0.9969203491711248 -0.03378370957303347 0.07077060389743457
vn -0.58912425971942 -0.07260176537693498 -0.8047742480187831
vn -0.3049234622835383 -0.03796154099278527 0.9516199890473469
vn 0.6175951499104173 -0.11610068218781357 0.7778797223238649
vn -0.5197248527280761 -0.036902821622282006 -0.8535363256552668
vn 0.34103138103062836 -0.37479134151371757 -0.8621073294426225
vn 0.6954211096440722 -0.04154639829972818 0.7174004300596198
vn 0.9113343519628562 -0.39469150683510745 -0.11699706562420087
vn 0.4254338416747275 -0.03429214444999179 -0.9043395906333547
vn 0.9833523239165196 -0.03563661858892863 -0.17818035375295327
vn 0.41878354289308956 0.3094092882105699 -0.8537483449886977
vn -0.49205896551051426 0.03234440248120728 -0.8699608118121506
vn 0.9300625554960951 0.3221718049241503 -0.17660399479057196
vn -0.9496889475763665 -0.3109405163901104 0.03750864058247034
vn 0.7010793274831897 0.06342767563558713 0.7102567891538841
vn -0.2922284742561075 -0.2930632387174388 0.9103386495949697
vn -0.2254185515459301 0.2595632374468363 -0.9390492012589394
vn 0.7767847899286996 0.25031717839680423 -0.5778812164579226
vn 0.8168485472791075 -0.04013395336498305 -0.5754543566568153
vn 0.9127214533938378 -0.12143407193403147 0.39011961587205646
vn -0.24829846763213329 -0.04747577069305125 -0.9675194686251204
vn -0.9537789676086447 -0.10454741182041997 -0.28173661393052823
vn 0.8917915427157455 -0.04536049622005241 0.45016693539546127
vn 0.14679291687576812 -0.3998533527126037 0.904748106314456
vn -0.9726105471335418 -0.05445411670588947 -0.22597228320830437
vn -0.6794771415746073 -0.39584338826367355 0.6177530461645135
vn 0.1274205264603292 -0.025696021637725396 0.9915158717381009
vn -0.7303072445089956 -0.029069968192494185 0.6825000114043704
vn -0.7220402602098829 0.31635997122235454 0.6152838623304172
vn -0.9650002654641754 0.007744911417043787 -0.2621345150895112
vn 0.1525165255655041 0.3335092843384403 0.930328042514837
vn -0.26000712075873006 -0.3507382486693677 -0.8996549216644679
vn 0.9161260642285334 0.04108036617989298 0.39877993675166606
vn 0.7709660205897233 -0.3328945502170149 -0.5429480762760448
f 3/3/3 2/2/2 1/1/1
f 2/2/2 4/4/4 1/1/1
f 5/5/5 3/3/3 1/1/1
f 4/4/4 6/6/6 1/1/1
f 7/7/7 5/5/5 1/1/1
f 6/6/6 8/8/8 1/1/1
f 9/9/9 7/7/7 1/1/1
f 8/8/8 10/10/10 1/1/1
f 11/11/11 9/9/9 1/1/1
f 10/10/10 12/12/12 1/1/1
f 13/13/13 11/11/11 1/1/1
f 12/12/12 13/13/13 1/1/1
f 16/16/16 15/15/15 14/14/14
f 17/17/17 14/14/14 15/15/15
f 15/15/15 16/16/16 18/18/18
f 19/19/19 17/17/17 15/15/15
f 16/16/16 20/20/20 18/18/18
f 18/18/18 20/20/20 21/21/21
f 20/20/20 22/22/22 21/21/21
f 21/21/21 22/22/22 23/23/23
f 22/22/22 24/24/24 23/23/23
f 23/23/23 24/24/24 25/25/25
f 24/24/24 26/26/26 25/25/25
f 27/27/27 25/25/25 26/26/26
f 26/26/26 28/28/28 27/27/27
f 29/29/29 27/27/27 28/28/28
f 28/28/28 30/30/30 29/29/29
f 29/29/29 30/30/30 31/31/31
f 30/30/30 32/32/32 31/31/31
f 33/33/33 31/31/31 32/32/32
f 32/32/32 34/34/34 33/33/33
f 35/35/35 33/33/33 34/34/34
f 36/36/36 35/35/35 34/34/34
f 35/35/35 36/36/36 37/37/37
f 37/37/37 36/36/36 19/19/19
f 36/36/36 17/17/17 19/19/19
f 40/40/40 39/39/39 38/38/38
f 41/41/41 39/39/39 40/40/40
f 38/38/38 42/42/42 40/40/40
f 42/42/42 38/38/38 43/43/43
f 41/41/41 40/40/40 44/44/44
f 45/45/45 41/41/41 44/44/44
f 43/43/43 46/46/46 42/42/42
f 46/46/46 43/43/43 47/47/47
f 47/47/47 45/45/45 48/48/48
f 45/45/45 44/44/44 48/48/48
f 47/47/47 48/48/48 49/49/49
f 47/47/47 49/49/49 46/46/46
f 50/50/50 48/48/48 44/44/44
f 50/50/50 49/49/49 48/48/48
f 44/44/44 51/51/51 50/50/50
f 51/51/51 44/44/44 40/40/40
f 49/49/49 50/50/50 52/52/52
f 52/52/52 46/46/46 49/49/49
f 40/40/40 53/53/53 51/51/51
f 52/52/52 54/54/54 46/46/46
f 54/54/54 42/42/42 46/46/46
f 40/40/40 55/55/55 53/53/53
f 55/55/55 40/40/40 42/42/42
f 54/54/54 55/55/55 42/42/42
f 58/58/58 57/57/57 56/56/56
f 58/58/58 56/56/56 59/59/59
f 57/57/57 58/58/58 60/60/60
f 61/61/61 57/57/57 60/60/60
f 59/59/59 62/62/62 58/58/58
f 62/62/62 59/59/59 63/63/63
f 61/61/61 60/60/60 64/64/64
f 65/65/65 61/61/61 64/64/64
f 66/66/66 63/63/63 65/65/65
f 65/65/65 64/64/64 66/66/66
f 63/63/63 66/66/66 67/67/67
f 63/63/63 67/67/67 62/62/62
f 68/68/68 66/66/66 64/64/64
f 68/68/68 67/67/67 66/66/66
f 64/64/64 69/69/69 68/68/68
f 69/69/69 64/64/64 60/60/60
f 68/68/68 70/70/70 67/67/67
f 70/70/70 62/62/62 67/67/67
f 60/60/60 71/71/71 69/69/69
f 71/71/71 60/60/60 58/58/58
f 70/70/70 72/72/72 62/62/62
f 72/72/72 58/58/58 62/62/62
f 58/58/58 73/73/73 71/71/71
f 72/72/72 73/73/73 58/58/58
f 76/76/76 75/75/75 74/74/74
f 74/74/74 75/75/75 77/77/77
f 74/74/74 78/78/78 76/76/76
f 79/79/79 76/76/76 78/78/78
f 77/77/77 80/80/80 74/74/74
f 80/80/80 77/77/77 81/81/81
f 81/81/81 82/82/82 80/80/80
f 82/82/82 81/81/81 83/83/83
f 84/84/84 83/83/83 79/79/79
f 83/83/83 84/84/84 82/82/82
f 78/78/78 85/85/85 79/79/79
f 79/79/79 85/85/85 84/84/84
f 86/86/86 85/85/85 78/78/78
f 86/86/86 84/84/84 85/85/85
f 78/78/78 87/87/87 86/86/86
f 87/87/87 78/78/78 74/74/74
f 86/86/86 88/88/88 84/84/84
f 82/82/82 84/84/84 88/88/88
f 74/74/74 89/89/89 87/87/87
f 88/88/88 90/90/90 82/82/82
f 80/80/80 82/82/82 90/90/90
f 91/91/91 89/89/89 74/74/74
f 90/90/90 91/91/91 80/80/80
f 91/91/91 74/74/74 80/80/80
f 94/94/94 93/93/93 92/92/92
f 95/95/95 93/93/93 94/94/94
f 92/92/92 96/96/96 94/94/94
f 96/96/96 92/92/92 97/97/97
f 94/94/94 98/98/98 95/95/95
f 99/99/99 95/95/95 98/98/98
f 97/97/97 100/100/100 96/96/96
f 100/100/100 97/97/97 101/101/101
f 102/102/102 101/101/101 99/99/99
f 98/98/98 102/102/102 99/99/99
f 101/101/101 102/102/102 103/103/103
f 101/101/101 103/103/103 100/100/100
f 104/104/104 102/102/102 98/98/98
f 104/104/104 103/103/103 102/102/102
f 98/98/98 105/105/105 104/104/104
f 105/105/105 98/98/98 94/94/94
f 103/103/103 104/104/104 106/106/106
f 100/100/100 103/103/103 106/106/106
f 94/94/94 107/107/107 105/105/105
f 106/106/106 108/108/108 100/100/100
f 96/96/96 100/100/100 108/108/108
f 94/94/94 109/109/109 107/107/107
f 108/108/108 109/109/109 96/96/96
f 109/109/109 94/94/94 96/96/96
f 112/112/112 111/111/111 110/110/110
f 113/113/113 111/111/111 112/112/112
f 110/110/110 114/114/114 112/112/112
f 114/114/114 110/110/110 115/115/115
f 112/112/112 116/116/116 113/113/113
f 117/117/117 113/113/113 116/116/116
f 115/115/115 118/118/118 114/114/114
f 118/118/118 115/115/115 119/119/119
f 119/119/119 117/117/117 120/120/120
f 116/116/116 120/120/120 117/117/117
f 119/119/119 121/121/121 118/118/118
f 119/119/119 120/120/120 121/121/121
f 122/122/122 118/118/118 121/121/121
f 122/122/122 121/121/121 120/120/120
f 122/122/122 123/123/123 118/118/118
f 123/123/123 114/114/114 118/118/118
f 120/120/120 124/124/124 122/122/122
f 124/124/124 120/120/120 116/116/116
f 123/123/123 125/125/125 114/114/114
f 116/116/116 126/126/126 124/124/124
f 126/126/126 116/116/116 112/112/112
f 114/114/114 125/125/125 127/127/127
f 127/127/127 112/112/112 114/114/114
f 112/112/112 127/127/127 126/126/126
