v -0.14283514 1.55622399 -0.175314799
v 0.447536916 1.28026843 -0.367212176
v 0.505281866 0.862204015 0.398844779
v -0.136092663 1.03687739 0.329961002
v -0.656793118 0.920627356 0.20940873
v -1.01490104 1.14858425 -0.43757689
v -0.582863808 1.56318307 -0.822892129
v -1.29208946 0.549999952 -0.328234375
v -1.13817167 1.1168921 -1.60436523
v -1.43652582 0.549999833 -2.04601192
v 0.399358273 1.23264563 -1.00635612
v 1.0061605 0.549999893 -1.60444605
v 1.23425889 0.651443899 -0.205326036
v 0.447536916 1.28026843 -0.367212176
v -0.14283514 1.55622399 -0.175314799
v -0.582863808 1.56318307 -0.822892129
v -0.263679504 1.13226724 -1.69711328
v 1.0061605 0.549999893 -1.60444605
v -1.13817167 1.1168921 -1.60436523
v -0.0706686974 0.549999833 -2.18376255
v -1.43652582 0.549999833 -2.04601192
v 0.447536916 1.28026843 -0.367212176
v 1.23425889 0.651443899 -0.205326036
v 0.941046178 0.651444137 0.913229644
v 0.505281866 0.862204015 0.398844779
v -0.09998703 0.712514043 1.1759342
v -0.136092663 1.03687739 0.329961002
v -1.11266756 0.671749532 0.895124435
v -0.656793118 0.920627356 0.20940873
v -1.29208946 0.549999952 -0.328234375
v -2.08601761 0.149260551 -2.81605458
v -1.43652582 0.549999833 -2.04601192
v -1.88411081 0.14926073 -0.414791107
v -1.6001544 0.550000131 1.46274865
v -2.31475234 0.149260849 2.08880568
v -1.11266756 0.671749532 0.895124435
v -0.09998703 0.712514043 1.1759342
v -0.213797569 0.550000191 1.84692407
v -2.31475234 0.149260849 2.08880568
v 0.941046178 0.651444137 0.913229644
v -0.376778096 0.149260849 2.62583971
v 1.66381359 0.550000012 1.80325556
v 2.24791479 0.149260849 2.56479645
v 1.23425889 0.651443899 -0.205326036
v 1.9570266 0.550000012 0.684700012
v 2.24791479 0.149260849 2.56479645
v 2.65779448 0.149260849 1.00117922
v 1.74856973 0.549999952 -0.631425321
v 2.36639452 0.14926073 -0.838618696
v 1.0061605 0.549999893 -1.60444605
v 1.32858849 0.14926061 -2.19879413
v -0.0706686974 0.549999833 -2.18376255
v -0.176700115 0.149260491 -3.00861502
v -1.43652582 0.549999833 -2.04601192
v -2.08601761 0.149260551 -2.81605458
vt 0.0669022202 0.746078253
vt 0.0669022202 0.746078253
vt 0.0669022202 0.746078253
vt 0.0669022202 0.746078253
vt 0.0669022202 0.746078253
vt 0.0669022202 0.746078253
vt 0.0669022202 0.746078253
vt 0.0669022202 0.746078253
vt 0.0669022202 0.746078253
vt 0.0669022202 0.746078253
vt 0.0669022202 0.746078253
vt 0.0669022202 0.746078253
vt 0.0669022202 0.746078253
vt 0.0669022202 0.746078253
vt 0.0669022202 0.746078253
vt 0.0669022202 0.746078253
vt 0.0669022202 0.746078253
vt 0.0669022202 0.746078253
vt 0.0669022202 0.746078253
vt 0.0669022202 0.746078253
vt 0.0669022202 0.746078253
vt 0.0669022202 0.746078253
vt 0.0669022202 0.746078253
vt 0.0669022202 0.746078253
vt 0.0669022202 0.746078253
vt 0.0669022202 0.746078253
vt 0.0669022202 0.746078253
vt 0.0669022202 0.746078253
vt 0.0669022202 0.746078253
vt 0.0669022202 0.746078253
vt 0.0669022202 0.746078253
vt 0.0669022202 0.746078253
vt 0.0669022202 0.746078253
vt 0.0669022202 0.746078253
vt 0.0669022202 0.746078253
vt 0.0669022202 0.746078253
vt 0.0669022202 0.746078253
vt 0.0669022202 0.746078253
vt 0.0669022202 0.746078253
vt 0.0669022202 0.746078253
vt 0.0669022202 0.746078253
vt 0.0669022202 0.746078253
vt 0.0669022202 0.746078253
vt 0.0669022202 0.746078253
vt 0.0669022202 0.746078253
vt 0.0669022202 0.746078253
vt 0.0669022202 0.746078253
vt 0.0669022202 0.746078253
vt 0.0669022202 0.746078253
vt 0.0669022202 0.746078253
vt 0.0669022202 0.746078253
vt 0.0669022202 0.746078253
vt 0.0669022202 0.746078253
vt 0.0669022202 0.746078253
vt 0.0669022202 0.746078253
vn -0.1359384666114862 0.8148292936653119 0.5635370045349345
vn 0.49081145748666605 0.7798159092200343 0.38857593971725257
vn 0.3086013023067843 0.7606614983885575 0.5711035992565894
vn -0.08132037337367283 0.694478436403111 0.7149032789444013
vn -0.5020431353328136 0.6322976442353037 0.5900443876181549
vn -0.7210471885836041 0.6205226400168745 0.3082898069384857
vn -0.5808617692393323 0.789501876227492 0.19820795258874613
vn -0.8537667059547304 0.4404011499541552 0.27772151325071426
vn -0.8622606024463777 0.5010673530437909 0.07374388911970174
vn -0.9025917224922179 0.42316503120093374 0.07911724753329141
vn 0.4556179709704067 0.8399938515418047 -0.29465673910632745
vn 0.6541958982283705 0.7426856083124072 -0.1429888595199119
vn 0.6541958982283705 0.7426856083124072 -0.1429888595199119
vn 0.5283743536193936 0.8402836950074685 -0.12142427410482516
vn 0.32270480496073506 0.9340292595132491 -0.15313703415041516
vn 0.1708695624139701 0.9301842635850611 -0.32490125949152004
vn 0.12971294275196932 0.7919596069075686 -0.5966360142578
vn 0.375891264691736 0.7286478824334663 -0.5725190132682693
vn -0.07810688411705903 0.7380163440115082 -0.6702471116128823
vn 0.17137266065294707 0.7071401237049137 -0.6859914406370745
vn -0.08369531343504794 0.6308165087122758 -0.771404969419477
vn 0.4522221647637612 0.8571258718661476 0.24663810223498303
vn 0.4522221647637612 0.8571258718661476 0.24663810223498303
vn 0.30435640705020195 0.909347329015476 0.28364522329824554
vn 0.31674270835503604 0.9059643732205588 0.280896086051402
vn 0.002714791815381611 0.9503479053845315 0.3111775837630864
vn -0.026627983552414143 0.9502160937951941 0.3104518087957216
vn -0.30950419075290314 0.9333232934103018 0.18197468473427283
vn -0.3245596539438915 0.930920526497781 0.16747538439100748
vn -0.4950940201045157 0.8687290958819662 -0.01384446549532624
vn -0.5646721023223668 0.8239484888787582 0.04747951698627226
vn -0.5646721023223668 0.8239484888787582 0.04747951698627226
vn -0.5584433787339655 0.8293035204252561 -0.019916419318482134
vn -0.3076408947815539 0.9395930305200095 0.15007337157613812
vn -0.5485548078002248 0.8307734272631467 -0.09435642740536336
vn -0.19276352690389426 0.9791603929097902 0.06393080362639637
vn 0.03324906622298928 0.9736545360285094 0.22559109926237636
vn -0.030639014726497854 0.9423427465124558 0.33324375293762204
vn -0.12030630957720798 0.8927738335458868 0.43414430090891937
vn 0.06907677178112807 0.9941491275866489 0.08304162642315635
vn -0.058295026246017005 0.8926138256422114 0.4470371888191767
vn 0.18630807705077426 0.9549946500156015 0.23081273549616324
vn 0.010680472641748841 0.8882547737887184 0.4592269420947571
vn 0.13905072282347294 0.9897880608616287 -0.031376600485815524
vn 0.33715256532459226 0.94142381994496 0.007024167942593506
vn 0.4520538156004117 0.8840844038454118 0.11849942902145935
vn 0.48166736274291894 0.8753532583316113 0.0418715272770506
vn 0.3410122457756491 0.927512664428958 -0.15307157004141347
vn 0.48432266926778894 0.8512114329857063 -0.2021649039466155
vn 0.3235049591520749 0.8781229962704067 -0.3524833965240032
vn 0.32708674127918036 0.8562241640244496 -0.39986803400621945
vn 0.12264900664509396 0.8863877012513016 -0.4464012368255772
vn 0.06821683361133218 0.8938966428023497 -0.4430522041461166
vn -0.043572191616700215 0.9008026226821552 -0.43203715012330646
vn -0.043572191616700215 0.9008026226821552 -0.43203715012330646
f 3/3/3 2/2/2 1/1/1
f 3/3/3 1/1/1 4/4/4
f 4/4/4 1/1/1 5/5/5
f 6/6/6 5/5/5 1/1/1
f 6/6/6 1/1/1 7/7/7
f 6/6/6 8/8/8 5/5/5
f 7/7/7 9/9/9 6/6/6
f 6/6/6 9/9/9 8/8/8
f 9/9/9 10/10/10 8/8/8
f 13/13/13 12/12/12 11/11/11
f 14/14/14 13/13/13 11/11/11
f 14/14/14 11/11/11 15/15/15
f 16/16/16 15/15/15 11/11/11
f 17/17/17 16/16/16 11/11/11
f 17/17/17 11/11/11 18/18/18
f 16/16/16 17/17/17 19/19/19
f 20/20/20 17/17/17 18/18/18
f 19/19/19 17/17/17 21/21/21
f 17/17/17 20/20/20 21/21/21
f 24/24/24 23/23/23 22/22/22
f 25/25/25 24/24/24 22/22/22
f 24/24/24 25/25/25 26/26/26
f 25/25/25 27/27/27 26/26/26
f 26/26/26 27/27/27 28/28/28
f 27/27/27 29/29/29 28/28/28
f 30/30/30 28/28/28 29/29/29
f 32/32/32 31/31/31 30/30/30
f 31/31/31 33/33/33 30/30/30
f 30/30/30 33/33/33 34/34/34
f 33/33/33 35/35/35 34/34/34
f 30/30/30 34/34/34 36/36/36
f 36/36/36 34/34/34 37/37/37
f 34/34/34 38/38/38 37/37/37
f 34/34/34 39/39/39 38/38/38
f 37/37/37 38/38/38 40/40/40
f 39/39/39 41/41/41 38/38/38
f 38/38/38 42/42/42 40/40/40
f 38/38/38 41/41/41 42/42/42
f 41/41/41 43/43/43 42/42/42
f 40/40/40 42/42/42 44/44/44
f 42/42/42 45/45/45 44/44/44
f 42/42/42 46/46/46 45/45/45
f 46/46/46 47/47/47 45/45/45
f 45/45/45 48/48/48 44/44/44
f 45/45/45 47/47/47 48/48/48
f 47/47/47 49/49/49 48/48/48
f 48/48/48 50/50/50 44/44/44
f 48/48/48 49/49/49 50/50/50
f 49/49/49 51/51/51 50/50/50
f 50/50/50 51/51/51 52/52/52
f 51/51/51 53/53/53 52/52/52
f 52/52/52 53/53/53 54/54/54
f 53/53/53 55/55/55 54/54/54
