g Model_0
v 0.500142992 0.600000024 1.74010897
v 0.80014199 0.519614995 1.74010897
v 0.80014199 0.519614995 1.86010897
v 0.500142992 0.600000024 1.86010897
v 0.200141996 0.519614995 1.74010897
v 0.200141996 0.519614995 1.86010897
v -0.0194729995 0.300000012 1.74010897
v -0.0194729995 0.300000012 1.86010897
v 0.80014199 0.519614995 1.74010897
v 1.01975799 0.300000012 1.86010897
v 0.80014199 0.519614995 1.86010897
v 1.01975799 0.300000012 1.74010897
v 1.100142 0 1.86010897
v 1.100142 0 1.74010897
v 1.01975799 -0.300000012 1.86010897
v 1.01975799 -0.300000012 1.74010897
v 0.800143003 -0.519614995 1.86010897
v 0.800143003 -0.519614995 1.74010897
v 0.800143003 -0.519614995 1.74010897
v 0.500142992 -0.600000024 1.86010897
v 0.800143003 -0.519614995 1.86010897
v 0.500142992 -0.600000024 1.74010897
v 0.200142995 -0.519614995 1.86010897
v 0.200142995 -0.519614995 1.74010897
v -0.0194729995 -0.300000012 1.86010897
v -0.0194729995 -0.300000012 1.74010897
v -0.0998580009 0 1.86010897
v -0.0998580009 0 1.74010897
v -0.0194729995 0.300000012 1.86010897
v -0.0194729995 0.300000012 1.74010897
v 1.01975799 0.300000012 1.86010897
v 1.100142 0 1.86010897
v 1.01975799 -0.300000012 1.86010897
v 0.80014199 0.519614995 1.86010897
v 0.800143003 -0.519614995 1.86010897
v 0.500142992 -0.600000024 1.86010897
v 0.500142992 0.600000024 1.86010897
v 0.200141996 0.519614995 1.86010897
v 0.200142995 -0.519614995 1.86010897
v -0.0194729995 -0.300000012 1.86010897
v -0.0194729995 0.300000012 1.86010897
v -0.0998580009 0 1.86010897
v 1.35000002 0.899999976 0.300000012
v -1.34999895 0.899999976 0.300000012
v -1.35000002 -0.899999976 0.300000012
v 1.35000002 -0.899999976 0.300000012
v 1.35000098 0.899999976 1.79999995
v 1.34999895 -0.900000989 1.79999995
v -1.35000098 -0.899999976 1.79999995
v -1.35000002 0.899999976 1.79999995
v 1.35000002 0.899999976 0.300000012
v 1.35000002 -0.899999976 0.300000012
v 1.34999895 -0.900000989 1.79999995
v 1.35000098 0.899999976 1.79999995
v 1.35000002 -0.899999976 0.300000012
v -1.35000002 -0.899999976 0.300000012
v -1.35000098 -0.899999976 1.79999995
v 1.34999895 -0.900000989 1.79999995
v -1.35000002 -0.899999976 0.300000012
v -1.34999895 0.899999976 0.300000012
v -1.35000002 0.899999976 1.79999995
v -1.35000098 -0.899999976 1.79999995
v 1.35000098 0.899999976 1.79999995
v -1.35000002 0.899999976 1.79999995
v -1.34999895 0.899999976 0.300000012
v 1.35000002 0.899999976 0.300000012
v -1.20000005 -0.75 0.540000021
v -1.20000005 -0.75 -0.0599999987
v -1.20000005 -0.449999988 -0.0599999987
v -1.20000005 -0.449999988 0.540000021
v -1.20000005 -0.449999988 0.540000021
v -1.20000005 -0.449999988 -0.0599999987
v -0.899999976 -0.449999988 -0.0599999987
v -0.899999976 -0.449999988 0.540000021
v -0.899999976 -0.449999988 0.540000021
v -0.899999976 -0.449999988 -0.0599999987
v -0.899999976 -0.75 -0.0599999987
v -0.899999976 -0.75 0.540000021
v -0.899999976 -0.75 0.540000021
v -0.899999976 -0.75 -0.0599999987
v -1.20000005 -0.75 -0.0599999987
v -1.20000005 -0.75 0.540000021
v -1.20000005 0.75 0.540000021
v -1.20000005 0.449999988 0.540000021
v -1.20000005 0.449999988 -0.0599999987
v -1.20000005 0.75 -0.0599999987
v -1.20000005 0.449999988 0.540000021
v -0.899999976 0.449999988 0.540000021
v -0.899999976 0.449999988 -0.0599999987
v -1.20000005 0.449999988 -0.0599999987
v -0.899999976 0.449999988 0.540000021
v -0.899999976 0.75 0.540000021
v -0.899999976 0.75 -0.0599999987
v -0.899999976 0.449999988 -0.0599999987
v -0.899999976 0.75 0.540000021
v -1.20000005 0.75 0.540000021
v -1.20000005 0.75 -0.0599999987
v -0.899999976 0.75 -0.0599999987
v 1.20000005 -0.75 0.540000021
v 1.20000005 -0.449999988 0.540000021
v 1.20000005 -0.449999988 -0.0599999987
v 1.20000005 -0.75 -0.0599999987
v 1.20000005 -0.449999988 0.540000021
v 0.899999976 -0.449999988 0.540000021
v 0.899999976 -0.449999988 -0.0599999987
v 1.20000005 -0.449999988 -0.0599999987
v 0.899999976 -0.449999988 0.540000021
v 0.899999976 -0.75 0.540000021
v 0.899999976 -0.75 -0.0599999987
v 0.899999976 -0.449999988 -0.0599999987
v 0.899999976 -0.75 0.540000021
v 1.20000005 -0.75 0.540000021
v 1.20000005 -0.75 -0.0599999987
v 0.899999976 -0.75 -0.0599999987
v 1.20000005 0.75 0.540000021
v 1.20000005 0.75 -0.0599999987
v 1.20000005 0.449999988 -0.0599999987
v 1.20000005 0.449999988 0.540000021
v 1.20000005 0.449999988 0.540000021
v 1.20000005 0.449999988 -0.0599999987
v 0.899999976 0.449999988 -0.0599999987
v 0.899999976 0.449999988 0.540000021
v 0.899999976 0.449999988 0.540000021
v 0.899999976 0.449999988 -0.0599999987
v 0.899999976 0.75 -0.0599999987
v 0.899999976 0.75 0.540000021
v 0.899999976 0.75 0.540000021
v 0.899999976 0.75 -0.0599999987
v 1.20000005 0.75 -0.0599999987
v 1.20000005 0.75 0.540000021
vt 0.862964988 0.458748996
vt 0.862964988 0.427931994
vt 0.852474988 0.427931994
vt 0.852474988 0.458748996
vt 0.862964988 0.494332999
vt 0.852474988 0.494332999
vt 0.862964988 0.525150001
vt 0.852474988 0.525150001
vt 0.852474988 0.542941988
vt 0.841984987 0.525150001
vt 0.841984987 0.542941988
vt 0.852474988 0.525150001
vt 0.841984987 0.494332999
vt 0.852474988 0.494332999
vt 0.841984987 0.458748996
vt 0.852474988 0.458748996
vt 0.841984987 0.427931994
vt 0.852474988 0.427931994
vt 0.841984987 0.560733974
vt 0.831493974 0.542941988
vt 0.831493974 0.560733974
vt 0.841984987 0.542941988
vt 0.831493974 0.512125015
vt 0.841984987 0.512125015
vt 0.831493974 0.476541013
vt 0.841984987 0.476541013
vt 0.831493974 0.44572401
vt 0.841984987 0.44572401
vt 0.831493974 0.427931994
vt 0.841984987 0.427931994
vt 0.767252982 0.560733974
vt 0.794404984 0.560733974
vt 0.817918003 0.542941988
vt 0.743739009 0.542941988
vt 0.831493974 0.512125015
vt 0.831493974 0.476541013
vt 0.730163991 0.512125015
vt 0.730163991 0.476541013
vt 0.817918003 0.44572401
vt 0.794404984 0.427931994
vt 0.743739009 0.44572401
vt 0.767252982 0.427931994
vt 0.25266099 0.74367398
vt 0.25266099 0.681676984
vt 0.293992013 0.681676984
vt 0.293992013 0.74367398
vt 0.158438995 0.683565974
vt 0.199770004 0.683565974
vt 0.199770004 0.745562971
vt 0.158438995 0.745562971
vt 0.165326998 0.786894977
vt 0.165326998 0.745562971
vt 0.199770004 0.745562971
vt 0.199770004 0.786894977
vt 0.241101995 0.745562971
vt 0.241101995 0.683565974
vt 0.275545001 0.683565974
vt 0.275545001 0.745562971
vt 0.241101995 0.786894977
vt 0.241101995 0.745562971
vt 0.275545001 0.745562971
vt 0.275545001 0.786894977
vt 0.199770004 0.807560027
vt 0.199770004 0.745562971
vt 0.234212995 0.745562971
vt 0.234212995 0.807560027
vt 0.388880998 0.37510401
vt 0.388880998 0.361326993
vt 0.395770013 0.361326993
vt 0.395770013 0.37510401
vt 0.285553008 0.37510401
vt 0.285553008 0.388880998
vt 0.278663993 0.388880998
vt 0.278663993 0.37510401
vt 0.395770013 0.333772987
vt 0.395770013 0.347550005
vt 0.388880998 0.347550005
vt 0.388880998 0.333772987
vt 0.368216008 0.37510401
vt 0.368216008 0.388880998
vt 0.361326993 0.388880998
vt 0.361326993 0.37510401
vt 0.368216008 0.37510401
vt 0.37510401 0.37510401
vt 0.37510401 0.388880998
vt 0.368216008 0.388880998
vt 0.306217998 0.37510401
vt 0.313107014 0.37510401
vt 0.313107014 0.388880998
vt 0.306217998 0.388880998
vt 0.306217998 0.388880998
vt 0.299329996 0.388880998
vt 0.299329996 0.37510401
vt 0.306217998 0.37510401
vt 0.395770013 0.361326993
vt 0.388880998 0.361326993
vt 0.388880998 0.347550005
vt 0.395770013 0.347550005
vt 0.388880998 0.388880998
vt 0.381992996 0.388880998
vt 0.381992996 0.37510401
vt 0.388880998 0.37510401
vt 0.388880998 0.306217998
vt 0.395770013 0.306217998
vt 0.395770013 0.319995999
vt 0.388880998 0.319995999
vt 0.29244101 0.388880998
vt 0.285553008 0.388880998
vt 0.285553008 0.37510401
vt 0.29244101 0.37510401
vt 0.354438007 0.37510401
vt 0.361326993 0.37510401
vt 0.361326993 0.388880998
vt 0.354438007 0.388880998
vt 0.388880998 0.333772987
vt 0.388880998 0.319995999
vt 0.395770013 0.319995999
vt 0.395770013 0.333772987
vt 0.381992996 0.37510401
vt 0.381992996 0.388880998
vt 0.37510401 0.388880998
vt 0.37510401 0.37510401
vt 0.395770013 0.285553008
vt 0.395770013 0.299329996
vt 0.388880998 0.299329996
vt 0.388880998 0.285553008
vt 0.395770013 0.271775007
vt 0.395770013 0.285553008
vt 0.388880998 0.285553008
vt 0.388880998 0.271775007
vn -0 1 0
vn 0.499999732 0.866025507 0
vn 0.499999732 0.866025507 0
vn -0 1 0
vn -0.50000006 0.866025448 0
vn -0.50000006 0.866025448 0
vn -0.866025269 0.500000358 0
vn -0.866025269 0.500000358 0
vn 0.499999732 0.866025507 0
vn 0.866025448 0.5 0
vn 0.499999732 0.866025507 0
vn 0.866025448 0.5 0
vn 1 0 0
vn 1 0 0
vn 0.866025984 -0.499998987 0
vn 0.866025984 -0.499998987 0
vn 0.500000417 -0.866025269 0
vn 0.500000417 -0.866025269 0
vn 0.500000417 -0.866025269 0
vn -0 -1 0
vn 0.500000417 -0.866025269 0
vn -0 -1 0
vn -0.499999404 -0.866025805 0
vn -0.499999404 -0.866025805 0
vn -0.866024613 -0.500001311 0
vn -0.866024613 -0.500001311 0
vn -1 0 0
vn -1 0 0
vn -0.866025269 0.500000358 0
vn -0.866025269 0.500000358 0
vn -0 0 1
vn -0 0 1
vn -0 0 1
vn -0 0 1
vn -0 0 1
vn -0 0 1
vn -0 0 1
vn -0 0 1
vn -0 0 1
vn -0 0 1
vn -0 0 1
vn -0 0 1
vn -0 0 -1
vn -0 0 -1
vn -0 0 -1
vn -0 0 -1
vn -0 0 1
vn -0 0 1
vn -0 0 1
vn -0 0 1
vn 1 0 0
vn 1 0 0
vn 1 0 0
vn 1 0 0
vn -0 -1 0
vn -0 -1 0
vn -0 -1 0
vn -0 -1 0
vn -1 0 0
vn -1 0 0
vn -1 0 0
vn -1 0 0
vn -0 1 0
vn -0 1 0
vn -0 1 0
vn -0 1 0
vn -1 0 0
vn -1 0 0
vn -1 0 0
vn -1 0 0
vn -0 1 0
vn -0 1 0
vn -0 1 0
vn -0 1 0
vn 1 0 0
vn 1 0 0
vn 1 0 0
vn 1 0 0
vn -0 -1 0
vn -0 -1 0
vn -0 -1 0
vn -0 -1 0
vn -1 0 0
vn -1 0 0
vn -1 0 0
vn -1 0 0
vn -0 -1 0
vn -0 -1 0
vn -0 -1 0
vn -0 -1 0
vn 1 0 0
vn 1 0 0
vn 1 0 0
vn 1 0 0
vn -0 1 0
vn -0 1 0
vn -0 1 0
vn -0 1 0
vn 1 0 0
vn 1 0 0
vn 1 0 0
vn 1 0 0
vn -0 1 0
vn -0 1 0
vn -0 1 0
vn -0 1 0
vn -1 0 0
vn -1 0 0
vn -1 0 0
vn -1 0 0
vn -0 -1 0
vn -0 -1 0
vn -0 -1 0
vn -0 -1 0
vn 1 0 0
vn 1 0 0
vn 1 0 0
vn 1 0 0
vn -0 -1 0
vn -0 -1 0
vn -0 -1 0
vn -0 -1 0
vn -1 0 0
vn -1 0 0
vn -1 0 0
vn -1 0 0
vn -0 1 0
vn -0 1 0
vn -0 1 0
vn -0 1 0
g Model_0_0
f 3/3/3 2/2/2 1/1/1
f 4/4/4 3/3/3 1/1/1
f 4/4/4 1/1/1 5/5/5
f 6/6/6 4/4/4 5/5/5
f 6/6/6 5/5/5 7/7/7
f 8/8/8 6/6/6 7/7/7
f 11/11/11 10/10/10 9/9/9
f 10/10/10 12/12/12 9/9/9
f 10/10/10 13/13/13 12/12/12
f 13/13/13 14/14/14 12/12/12
f 13/13/13 15/15/15 14/14/14
f 15/15/15 16/16/16 14/14/14
f 15/15/15 17/17/17 16/16/16
f 17/17/17 18/18/18 16/16/16
f 21/21/21 20/20/20 19/19/19
f 20/20/20 22/22/22 19/19/19
f 20/20/20 23/23/23 22/22/22
f 23/23/23 24/24/24 22/22/22
f 23/23/23 25/25/25 24/24/24
f 25/25/25 26/26/26 24/24/24
f 25/25/25 27/27/27 26/26/26
f 27/27/27 28/28/28 26/26/26
f 27/27/27 29/29/29 28/28/28
f 29/29/29 30/30/30 28/28/28
f 33/33/33 32/32/32 31/31/31
f 31/31/31 34/34/34 33/33/33
f 34/34/34 35/35/35 33/33/33
f 34/34/34 36/36/36 35/35/35
f 34/34/34 37/37/37 36/36/36
f 37/37/37 38/38/38 36/36/36
f 38/38/38 39/39/39 36/36/36
f 38/38/38 40/40/40 39/39/39
f 38/38/38 41/41/41 40/40/40
f 41/41/41 42/42/42 40/40/40
f 45/45/45 44/44/44 43/43/43
f 46/46/46 45/45/45 43/43/43
f 49/49/49 48/48/48 47/47/47
f 50/50/50 49/49/49 47/47/47
f 53/53/53 52/52/52 51/51/51
f 54/54/54 53/53/53 51/51/51
f 57/57/57 56/56/56 55/55/55
f 58/58/58 57/57/57 55/55/55
f 61/61/61 60/60/60 59/59/59
f 62/62/62 61/61/61 59/59/59
f 65/65/65 64/64/64 63/63/63
f 66/66/66 65/65/65 63/63/63
f 69/69/69 68/68/68 67/67/67
f 70/70/70 69/69/69 67/67/67
f 73/73/73 72/72/72 71/71/71
f 74/74/74 73/73/73 71/71/71
f 77/77/77 76/76/76 75/75/75
f 78/78/78 77/77/77 75/75/75
f 81/81/81 80/80/80 79/79/79
f 82/82/82 81/81/81 79/79/79
f 85/85/85 84/84/84 83/83/83
f 86/86/86 85/85/85 83/83/83
f 89/89/89 88/88/88 87/87/87
f 90/90/90 89/89/89 87/87/87
f 93/93/93 92/92/92 91/91/91
f 94/94/94 93/93/93 91/91/91
f 97/97/97 96/96/96 95/95/95
f 98/98/98 97/97/97 95/95/95
f 101/101/101 100/100/100 99/99/99
f 102/102/102 101/101/101 99/99/99
f 105/105/105 104/104/104 103/103/103
f 106/106/106 105/105/105 103/103/103
f 109/109/109 108/108/108 107/107/107
f 110/110/110 109/109/109 107/107/107
f 113/113/113 112/112/112 111/111/111
f 114/114/114 113/113/113 111/111/111
f 117/117/117 116/116/116 115/115/115
f 118/118/118 117/117/117 115/115/115
f 121/121/121 120/120/120 119/119/119
f 122/122/122 121/121/121 119/119/119
f 125/125/125 124/124/124 123/123/123
f 126/126/126 125/125/125 123/123/123
f 129/129/129 128/128/128 127/127/127
f 130/130/130 129/129/129 127/127/127
