v 3.512174 0.500000 1.300000
v 3.512174 0.500000 -0.200000
v 3.512174 -0.500000 -0.200000
v 3.512174 0.500000 1.300000
v 3.512174 -0.500000 -0.200000
v 3.512174 -0.500000 1.300000
v -2.487826 2.500000 -0.200000
v -2.487826 2.500000 1.300000
v -3.487826 2.500000 1.300000
v -2.487826 2.500000 -0.200000
v -3.487826 2.500000 1.300000
v -3.487826 2.500000 -0.200000
v -1.487826 -1.500000 0.300000
v -0.487826 -1.500000 0.300000
v -0.487826 -0.500000 0.300000
v -1.487826 -0.500000 0.300000
v -2.487826 0.500000 0.300000
v -3.487826 -0.500000 0.300000
v 2.512174 0.500000 0.300000
v 2.512174 -0.500000 0.300000
v -2.487826 1.500000 0.300000
v -3.487826 1.500000 0.300000
v -1.487826 -0.500000 1.300000
v -1.487826 -0.500000 0.300000
v -3.487826 -0.500000 0.300000
v -3.487826 -0.500000 1.300000
v -1.487826 -2.500000 1.300000
v -1.487826 -0.500000 1.300000
v -0.487826 -2.500000 1.300000
v -0.487826 -0.500000 1.300000
v -2.487826 0.500000 1.300000
v 3.512174 -0.500000 1.300000
v 3.512174 0.500000 1.300000
v -3.487826 -0.500000 1.300000
v -3.487826 2.500000 1.300000
v -2.487826 2.500000 1.300000
v 2.512174 -0.500000 0.300000
v 2.512174 -0.500000 -0.200000
v 2.512174 0.500000 -0.200000
v 2.512174 0.500000 0.300000
v -1.487826 -1.500000 0.300000
v -1.487826 -1.500000 -0.200000
v -0.487826 -1.500000 -0.200000
v -0.487826 -1.500000 0.300000
v -1.487826 -2.500000 1.300000
v -0.487826 -2.500000 1.300000
v -0.487826 -2.500000 -0.200000
v -1.487826 -2.500000 -0.200000
v -2.487826 1.500000 0.300000
v -2.487826 1.500000 -0.200000
v -3.487826 1.500000 -0.200000
v -3.487826 1.500000 0.300000
v -0.487826 -1.500000 -0.200000
v -0.487826 -2.500000 -0.200000
v -0.487826 -2.500000 1.300000
v -0.487826 -1.500000 0.300000
v -0.487826 -0.500000 1.300000
v -0.487826 -0.500000 0.300000
v 3.512174 -0.500000 1.300000
v 3.512174 -0.500000 -0.200000
v 3.012174 -0.500000 -0.200000
v 2.512174 -0.500000 -0.200000
v 2.512174 -0.500000 0.300000
v -0.487826 -0.500000 0.300000
v -0.487826 -0.500000 1.300000
v -2.487826 2.500000 -0.200000
v -2.487826 1.500000 -0.200000
v -2.487826 1.500000 0.300000
v -2.487826 2.500000 1.300000
v -2.487826 0.500000 1.300000
v -2.487826 0.500000 0.300000
v -2.487826 0.500000 1.300000
v -2.487826 0.500000 0.300000
v 2.512174 0.500000 0.300000
v 3.512174 0.500000 1.300000
v 3.512174 0.500000 -0.200000
v 3.012174 0.500000 -0.200000
v 2.512174 0.500000 -0.200000
v -3.487826 2.500000 1.300000
v -3.487826 -0.500000 1.300000
v -3.487826 -0.500000 0.300000
v -3.487826 1.500000 0.300000
v -3.487826 1.500000 -0.200000
v -3.487826 2.500000 -0.200000
v -1.487826 -1.500000 -0.200000
v -1.487826 -1.500000 0.300000
v -1.487826 -2.500000 -0.200000
v -1.487826 -0.500000 1.300000
v -1.487826 -2.500000 1.300000
v -1.487826 -0.500000 0.300000
vt 0.338303 0.705543995
vt 0.28282401 0.78411901
vt 0.28282401 0.768550992
vt 0.338303 0.705543995
vt 0.28282401 0.768550992
vt 0.338303 0.721113026
vt 0.242219999 0.771752
vt 0.338303 0.736769974
vt 0.338303 0.721202016
vt 0.242219999 0.771752
vt 0.338303 0.721202016
vt 0.242219999 0.787320018
vt 0.264364004 0.683052003
vt 0.267259002 0.698318005
vt 0.281735986 0.695264995
vt 0.278840005 0.679997981
vt 0.290421009 0.661679029
vt 0.277393013 0.652518988
vt 0.304897994 0.738009989
vt 0.290421009 0.741062999
vt 0.304897994 0.65862602
vt 0.302002996 0.643360019
vt 0.28282401 0.741137028
vt 0.268081993 0.741062999
vt 0.268081993 0.768477023
vt 0.28282401 0.768550992
vt 0.205124006 0.705891013
vt 0.229745001 0.714152992
vt 0.209420994 0.691051006
vt 0.234042004 0.699312985
vt 0.239566997 0.733538985
vt 0.250245005 0.643360019
vt 0.264364004 0.647907019
vt 0.225753993 0.741258979
vt 0.260066986 0.756030977
vt 0.264364004 0.74119103
vt 0.275352001 0.768550992
vt 0.267969996 0.768550992
vt 0.267969996 0.784070015
vt 0.275352001 0.784070015
vt 0.327042013 0.783475995
vt 0.334399998 0.783475995
vt 0.334399998 0.767907023
vt 0.327042013 0.767907023
vt 0.230965003 0.756030977
vt 0.230966002 0.771577001
vt 0.334412992 0.752317011
vt 0.334412992 0.736769974
vt 0.327042013 0.767907023
vt 0.334412992 0.767885029
vt 0.334412992 0.752339005
vt 0.327042013 0.752361
vt 0.304897994 0.756631017
vt 0.304897994 0.741062999
vt 0.286502987 0.744955003
vt 0.297540009 0.756631017
vt 0.28282401 0.772199988
vt 0.297540009 0.772199988
vt 0.330657005 0.701690972
vt 0.34908399 0.705522001
vt 0.34908399 0.697749019
vt 0.34908399 0.689975977
vt 0.341713011 0.689997971
vt 0.341713995 0.643360019
vt 0.326972008 0.643404007
vt 0.205124006 0.756030977
vt 0.205124006 0.771598995
vt 0.212482005 0.771598995
vt 0.223518997 0.759922981
vt 0.227198005 0.787168026
vt 0.212482005 0.787168026
vt 0.304897994 0.736769974
vt 0.319613993 0.736769974
vt 0.319613993 0.658927977
vt 0.308577001 0.647252023
vt 0.326972008 0.643360019
vt 0.326972008 0.651144028
vt 0.326972008 0.658927977
vt 0.308589011 0.740649998
vt 0.304897994 0.779757977
vt 0.319660991 0.779757977
vt 0.319660991 0.752288997
vt 0.327042013 0.752288997
vt 0.327042013 0.736769974
vt 0.242219999 0.77155
vt 0.249601007 0.77155
vt 0.242219999 0.756030977
vt 0.264364004 0.787069023
vt 0.260672987 0.759911001
vt 0.249601007 0.787069023
vn 1.000000 0.000000 0.000000
vn 1.000000 0.000000 0.000000
vn 1.000000 0.000000 0.000000
vn 1.000000 0.000000 0.000000
vn 1.000000 0.000000 0.000000
vn 1.000000 0.000000 0.000000
vn 0.000000 1.000000 -0.000000
vn 0.000000 1.000000 -0.000000
vn 0.000000 1.000000 -0.000000
vn 0.000000 1.000000 -0.000000
vn 0.000000 1.000000 -0.000000
vn 0.000000 1.000000 -0.000000
vn 0.000000 -0.000000 -1.000000
vn 0.000000 -0.000000 -1.000000
vn 0.000000 -0.000000 -1.000000
vn 0.000000 -0.000000 -1.000000
vn 0.000000 -0.000000 -1.000000
vn 0.000000 -0.000000 -1.000000
vn 0.000000 -0.000000 -1.000000
vn 0.000000 -0.000000 -1.000000
vn 0.000000 -0.000000 -1.000000
vn 0.000000 -0.000000 -1.000000
vn 0.000000 -1.000000 0.000000
vn 0.000000 -1.000000 0.000000
vn 0.000000 -1.000000 0.000000
vn 0.000000 -1.000000 0.000000
vn 0.000000 0.000000 1.000000
vn 0.000000 0.000000 1.000000
vn 0.000000 0.000000 1.000000
vn 0.000000 0.000000 1.000000
vn 0.000000 0.000000 1.000000
vn 0.000000 0.000000 1.000000
vn 0.000000 0.000000 1.000000
vn 0.000000 0.000000 1.000000
vn 0.000000 0.000000 1.000000
vn 0.000000 0.000000 1.000000
vn -1.000000 0.000000 0.000000
vn -1.000000 0.000000 0.000000
vn -1.000000 0.000000 0.000000
vn -1.000000 0.000000 0.000000
vn 0.000000 1.000000 -0.000000
vn 0.000000 1.000000 -0.000000
vn 0.000000 1.000000 -0.000000
vn 0.000000 1.000000 -0.000000
vn 0.000000 -1.000000 0.000000
vn 0.000000 -1.000000 0.000000
vn 0.000000 -1.000000 0.000000
vn 0.000000 -1.000000 0.000000
vn 0.000000 -1.000000 0.000000
vn 0.000000 -1.000000 0.000000
vn 0.000000 -1.000000 0.000000
vn 0.000000 -1.000000 0.000000
vn 1.000000 0.000000 0.000000
vn 1.000000 0.000000 0.000000
vn 1.000000 0.000000 0.000000
vn 1.000000 0.000000 0.000000
vn 1.000000 0.000000 0.000000
vn 1.000000 0.000000 0.000000
vn 0.000000 -1.000000 0.000000
vn 0.000000 -1.000000 0.000000
vn 0.000000 -1.000000 0.000000
vn 0.000000 -1.000000 0.000000
vn 0.000000 -1.000000 0.000000
vn 0.000000 -1.000000 0.000000
vn 0.000000 -1.000000 0.000000
vn 1.000000 0.000000 0.000000
vn 1.000000 0.000000 0.000000
vn 1.000000 0.000000 0.000000
vn 1.000000 0.000000 0.000000
vn 1.000000 0.000000 0.000000
vn 1.000000 0.000000 0.000000
vn 0.000000 1.000000 -0.000000
vn 0.000000 1.000000 -0.000000
vn 0.000000 1.000000 -0.000000
vn 0.000000 1.000000 -0.000000
vn 0.000000 1.000000 -0.000000
vn 0.000000 1.000000 -0.000000
vn 0.000000 1.000000 -0.000000
vn -1.000000 0.000000 0.000000
vn -1.000000 0.000000 0.000000
vn -1.000000 0.000000 0.000000
vn -1.000000 0.000000 0.000000
vn -1.000000 0.000000 0.000000
vn -1.000000 0.000000 0.000000
vn -1.000000 0.000000 0.000000
vn -1.000000 0.000000 0.000000
vn -1.000000 0.000000 0.000000
vn -1.000000 0.000000 0.000000
vn -1.000000 0.000000 0.000000
vn -1.000000 0.000000 0.000000
f 3/3/3 2/2/2 1/1/1
f 6/6/6 5/5/5 4/4/4
f 9/9/9 8/8/8 7/7/7
f 12/12/12 11/11/11 10/10/10
f 15/15/15 14/14/14 13/13/13
f 15/15/15 13/13/13 16/16/16
f 15/15/15 16/16/16 17/17/17
f 16/16/16 18/18/18 17/17/17
f 15/15/15 17/17/17 19/19/19
f 19/19/19 20/20/20 15/15/15
f 18/18/18 21/21/21 17/17/17
f 18/18/18 22/22/22 21/21/21
f 25/25/25 24/24/24 23/23/23
f 26/26/26 25/25/25 23/23/23
f 29/29/29 28/28/28 27/27/27
f 28/28/28 29/29/29 30/30/30
f 31/31/31 28/28/28 30/30/30
f 31/31/31 30/30/30 32/32/32
f 32/32/32 33/33/33 31/31/31
f 31/31/31 34/34/34 28/28/28
f 31/31/31 35/35/35 34/34/34
f 31/31/31 36/36/36 35/35/35
f 39/39/39 38/38/38 37/37/37
f 40/40/40 39/39/39 37/37/37
f 43/43/43 42/42/42 41/41/41
f 44/44/44 43/43/43 41/41/41
f 47/47/47 46/46/46 45/45/45
f 48/48/48 47/47/47 45/45/45
f 51/51/51 50/50/50 49/49/49
f 52/52/52 51/51/51 49/49/49
f 55/55/55 54/54/54 53/53/53
f 53/53/53 56/56/56 55/55/55
f 56/56/56 57/57/57 55/55/55
f 56/56/56 58/58/58 57/57/57
f 61/61/61 60/60/60 59/59/59
f 59/59/59 62/62/62 61/61/61
f 59/59/59 63/63/63 62/62/62
f 59/59/59 64/64/64 63/63/63
f 59/59/59 65/65/65 64/64/64
f 68/68/68 67/67/67 66/66/66
f 68/68/68 66/66/66 69/69/69
f 68/68/68 69/69/69 70/70/70
f 70/70/70 71/71/71 68/68/68
f 74/74/74 73/73/73 72/72/72
f 74/74/74 72/72/72 75/75/75
f 74/74/74 75/75/75 76/76/76
f 74/74/74 76/76/76 77/77/77
f 77/77/77 78/78/78 74/74/74
f 81/81/81 80/80/80 79/79/79
f 79/79/79 82/82/82 81/81/81
f 79/79/79 83/83/83 82/82/82
f 79/79/79 84/84/84 83/83/83
f 87/87/87 86/86/86 85/85/85
f 88/88/88 86/86/86 87/87/87
f 87/87/87 89/89/89 88/88/88
f 88/88/88 90/90/90 86/86/86
