g Model_0
v -0.48782599 -1.5 1.29999995
v -0.48782599 -1.5 0.300000012
v -0.48782599 -1.5 -0.200000003
v -1.48782599 -1.5 -0.200000003
v -1.48782599 -1.5 0.300000012
v -1.48782599 -1.5 1.29999995
v -3.23782611 -0.25 1.29999995
v -3.23782611 -0.25 0.300000012
v -3.48782611 0.5 0.300000012
v -3.48782611 0.5 1.29999995
v -3.48782611 1.5 1.29999995
v -3.48782611 1.5 0.300000012
v -3.48782611 2.25 1.04999995
v -3.48782611 1.5 -0.200000003
v -3.48782611 2.5 -0.200000003
v -3.48782611 2.5 0.300000012
v -0.48782599 -1.5 -0.200000003
v -0.48782599 -2.5 -0.200000003
v -0.48782599 -2.5 0.300000012
v -0.48782599 -2.25 1.04999995
v -0.48782599 -1.5 1.29999995
v -0.48782599 -0.5 0.300000012
v -0.48782599 -1.5 0.300000012
v -0.48782599 -0.5 1.29999995
v -1.48782599 -0.5 1.29999995
v -1.48782599 -0.5 0.300000012
v -2.48782611 -0.5 0.300000012
v -2.48782611 -0.5 1.29999995
v -3.23782611 -0.25 0.300000012
v -3.23782611 -0.25 1.29999995
v 3.51217389 -0.5 0.300000012
v 3.51217389 -0.5 -0.200000003
v 3.01217389 -0.5 -0.200000003
v 2.51217389 -0.5 -0.200000003
v 2.51217389 -0.5 0.300000012
v 3.26217389 -0.5 1.04999995
v -0.48782599 -0.5 0.300000012
v -0.48782599 -0.5 1.29999995
v 2.51217389 -0.5 1.29999995
v -1.48782599 -1.5 0.300000012
v -0.48782599 -1.5 0.300000012
v -0.48782599 -0.5 0.300000012
v -1.48782599 -0.5 0.300000012
v -2.48782611 0.5 0.300000012
v -2.48782611 -0.5 0.300000012
v -3.23782611 -0.25 0.300000012
v 2.51217389 0.5 0.300000012
v 2.51217389 -0.5 0.300000012
v -2.48782611 1.5 0.300000012
v -3.48782611 1.5 0.300000012
v -3.48782611 0.5 0.300000012
v -2.48782611 2.5 -0.200000003
v -2.48782611 1.5 -0.200000003
v -2.48782611 1.5 0.300000012
v -2.48782611 1.5 1.29999995
v -2.48782611 0.5 1.29999995
v -2.48782611 0.5 0.300000012
v -2.48782611 2.25 1.04999995
v -2.48782611 2.5 0.300000012
v -3.23782611 -0.25 1.29999995
v -3.48782611 0.5 1.29999995
v -3.48782611 1.5 1.29999995
v -2.48782611 -0.5 1.29999995
v -2.48782611 0.5 1.29999995
v -1.48782599 -0.5 1.29999995
v -2.48782611 1.5 1.29999995
v -2.48782611 2.25 1.04999995
v -3.48782611 2.25 1.04999995
v -0.48782599 -0.5 1.29999995
v 2.51217389 -0.5 1.29999995
v 2.51217389 0.5 1.29999995
v 3.26217389 -0.5 1.04999995
v 3.26217389 0.5 1.04999995
v -0.48782599 -1.5 1.29999995
v -1.48782599 -1.5 1.29999995
v -1.48782599 -2.25 1.04999995
v -0.48782599 -2.25 1.04999995
v -2.48782611 0.5 1.29999995
v -2.48782611 0.5 0.300000012
v 2.51217389 0.5 0.300000012
v 3.51217389 0.5 0.300000012
v 3.26217389 0.5 1.04999995
v 2.51217389 0.5 1.29999995
v 3.51217389 0.5 -0.200000003
v 3.01217389 0.5 -0.200000003
v 2.51217389 0.5 -0.200000003
v 3.26217389 0.5 1.04999995
v 3.51217389 0.5 0.300000012
v 3.51217389 -0.5 0.300000012
v 3.26217389 -0.5 1.04999995
v 3.51217389 0.5 0.300000012
v 3.51217389 0.5 -0.200000003
v 3.51217389 -0.5 -0.200000003
v 3.51217389 -0.5 0.300000012
v 2.51217389 -0.5 0.300000012
v 2.51217389 -0.5 -0.200000003
v 2.51217389 0.5 -0.200000003
v 2.51217389 0.5 0.300000012
v -3.48782611 2.25 1.04999995
v -3.48782611 2.5 0.300000012
v -2.48782611 2.5 0.300000012
v -2.48782611 2.25 1.04999995
v -0.48782599 -2.25 1.04999995
v -0.48782599 -2.5 0.300000012
v -1.48782599 -2.5 0.300000012
v -1.48782599 -2.25 1.04999995
v -1.48782599 -1.5 0.300000012
v -1.48782599 -0.5 0.300000012
v -1.48782599 -0.5 1.29999995
v -1.48782599 -1.5 1.29999995
v -1.48782599 -1.5 -0.200000003
v -1.48782599 -2.25 1.04999995
v -1.48782599 -2.5 -0.200000003
v -1.48782599 -2.5 0.300000012
v -0.48782599 -2.5 0.300000012
v -0.48782599 -2.5 -0.200000003
v -1.48782599 -2.5 -0.200000003
v -1.48782599 -2.5 0.300000012
v -1.48782599 -1.5 0.300000012
v -1.48782599 -1.5 -0.200000003
v -0.48782599 -1.5 -0.200000003
v -0.48782599 -1.5 0.300000012
v -3.48782611 2.5 0.300000012
v -3.48782611 2.5 -0.200000003
v -2.48782611 2.5 -0.200000003
v -2.48782611 2.5 0.300000012
v -2.48782611 1.5 0.300000012
v -2.48782611 1.5 -0.200000003
v -3.48782611 1.5 -0.200000003
v -3.48782611 1.5 0.300000012
vt 0.28282401 0.756631017
vt 0.297540009 0.756631017
vt 0.304897994 0.756631017
vt 0.242219999 0.77155
vt 0.249601007 0.77155
vt 0.264364004 0.77155
vt 0.304897994 0.779757977
vt 0.319660991 0.779757977
vt 0.319660991 0.76780802
vt 0.304897994 0.76780802
vt 0.304897994 0.752288997
vt 0.319660991 0.752288997
vt 0.308589011 0.740649998
vt 0.327042013 0.752288997
vt 0.327042013 0.736769974
vt 0.319660991 0.736769974
vt 0.304897994 0.756631017
vt 0.304897994 0.741062999
vt 0.297540009 0.741062999
vt 0.286502987 0.744955003
vt 0.28282401 0.756631017
vt 0.297540009 0.772199988
vt 0.297540009 0.756631017
vt 0.28282401 0.772199988
vt 0.28282401 0.741137028
vt 0.268081993 0.741062999
vt 0.267969996 0.756609023
vt 0.282712013 0.756681979
vt 0.268081993 0.768477023
vt 0.28282401 0.768550992
vt 0.341713011 0.705543995
vt 0.34908399 0.705522001
vt 0.34908399 0.697749019
vt 0.34908399 0.689975977
vt 0.341713011 0.689997971
vt 0.330657005 0.701690972
vt 0.341713995 0.643360019
vt 0.326972008 0.643404007
vt 0.326972008 0.690042973
vt 0.264364004 0.683052003
vt 0.267259002 0.698318005
vt 0.281735986 0.695264995
vt 0.278840005 0.679997981
vt 0.290421009 0.661679029
vt 0.275945008 0.664731979
vt 0.277393013 0.652518988
vt 0.304897994 0.738009989
vt 0.290421009 0.741062999
vt 0.304897994 0.65862602
vt 0.302002996 0.643360019
vt 0.287526011 0.646413028
vt 0.205124006 0.756030977
vt 0.205124006 0.771598995
vt 0.212482005 0.771598995
vt 0.227198005 0.771598995
vt 0.227198005 0.787168026
vt 0.212482005 0.787168026
vt 0.223518997 0.759922981
vt 0.212482005 0.756030977
vt 0.225753993 0.741258979
vt 0.235269994 0.748378992
vt 0.249388993 0.752925992
vt 0.225447997 0.728991985
vt 0.239566997 0.733538985
vt 0.229745001 0.714152992
vt 0.253686011 0.738085985
vt 0.264364004 0.74119103
vt 0.260066986 0.756030977
vt 0.234042004 0.699312985
vt 0.246932998 0.654794991
vt 0.261052996 0.659340978
vt 0.250245005 0.643360019
vt 0.264364004 0.647907019
vt 0.219923005 0.694765985
vt 0.215625003 0.709605992
vt 0.205124006 0.705891013
vt 0.209420994 0.691051006
vt 0.304897994 0.736769974
vt 0.319613993 0.736769974
vt 0.319613993 0.658927977
vt 0.319613993 0.643360019
vt 0.308577001 0.647252023
vt 0.304897994 0.658927977
vt 0.326972008 0.643360019
vt 0.326972008 0.651144028
vt 0.326972008 0.658927977
vt 0.338303 0.705543995
vt 0.326972008 0.705543995
vt 0.326972008 0.721113026
vt 0.338303 0.721113026
vt 0.275465995 0.78411901
vt 0.28282401 0.78411901
vt 0.28282401 0.768550992
vt 0.275465995 0.768550992
vt 0.275352001 0.768550992
vt 0.267969996 0.768550992
vt 0.267969996 0.784070015
vt 0.275352001 0.784070015
vt 0.338303 0.721202016
vt 0.326972008 0.721202016
vt 0.326972008 0.736769974
vt 0.338303 0.736769974
vt 0.230966002 0.771577001
vt 0.242219999 0.771752
vt 0.242219999 0.756205022
vt 0.230965003 0.756030977
vt 0.249601007 0.77155
vt 0.249601007 0.787069023
vt 0.264364004 0.787069023
vt 0.264364004 0.77155
vt 0.242219999 0.77155
vt 0.260672987 0.759911001
vt 0.242219999 0.756030977
vt 0.249601007 0.756030977
vt 0.327042013 0.752339005
vt 0.334412992 0.752317011
vt 0.334412992 0.736769974
vt 0.327042013 0.736792982
vt 0.327042013 0.783475995
vt 0.334399998 0.783475995
vt 0.334399998 0.767907023
vt 0.327042013 0.767907023
vt 0.234862 0.787320018
vt 0.242219999 0.787320018
vt 0.242219999 0.771752
vt 0.234862 0.771752
vt 0.327042013 0.767907023
vt 0.334412992 0.767885029
vt 0.334412992 0.752339005
vt 0.327042013 0.752361
vn -0 1 0
vn -0 1 0
vn -0 1 0
vn -0 1 0
vn -0 1 0
vn -0 1 0
vn -0.948683321 -0.316227794 0
vn -0.948683321 -0.316227794 0
vn -0.994298518 -0.106632285 0
vn -0.987087488 -0.160182267 0
vn -1 0 0
vn -1 0 0
vn -1 0 0
vn -1 0 0
vn -1 0 0
vn -1 0 0
vn 1 0 0
vn 1 0 0
vn 1 0 0
vn 1 0 0
vn 1 0 0
vn 1 0 0
vn 1 0 0
vn 1 0 0
vn -0 -1 0
vn -0 -1 0
vn -0.160182267 -0.987087488 0
vn -0.160182267 -0.987087488 0
vn -0.316227794 -0.948683321 0
vn -0.316227794 -0.948683321 0
vn -0 -1 0
vn -0 -1 0
vn -0 -1 0
vn -0 -1 0
vn -0 -1 0
vn -0 -1 0
vn -0 -1 0
vn -0 -1 0
vn -0 -1 0
vn -0 0 -1
vn -0 0 -1
vn -0 0 -1
vn -0 0 -1
vn -0 0 -1
vn -0 0 -1
vn -0 0 -1
vn -0 0 -1
vn -0 0 -1
vn -0 0 -1
vn -0 0 -1
vn -0 0 -1
vn 1 0 0
vn 1 0 0
vn 1 0 0
vn 1 0 0
vn 1 0 0
vn 1 0 0
vn 1 0 0
vn 1 0 0
vn -0 0 1
vn -0 0 1
vn -0 0.0637713298 0.997964501
vn -0 0 1
vn -0 0 1
vn -0 0 1
vn -0 0.160182267 0.987087488
vn -0 0.316227794 0.948683321
vn -0 0.316227794 0.948683321
vn -0 0 1
vn 0.106632285 0 0.994298518
vn 0.160182267 0 0.987087488
vn 0.316227794 0 0.948683321
vn 0.316227794 0 0.948683321
vn -0 -0.106632285 0.994298518
vn -0 -0.160182267 0.987087488
vn -0 -0.316227794 0.948683321
vn -0 -0.316227794 0.948683321
vn -0 1 0
vn -0 1 0
vn -0 1 0
vn -0 1 0
vn -0 1 0
vn -0 1 0
vn -0 1 0
vn -0 1 0
vn -0 1 0
vn 0.948683321 0 0.316227823
vn 0.987087488 0 0.160182282
vn 0.987087488 0 0.160182282
vn 0.948683321 0 0.316227823
vn 0.987087488 0 0.160182282
vn 1 0 0
vn 1 0 0
vn 0.987087488 0 0.160182282
vn -1 0 0
vn -1 0 0
vn -1 0 0
vn -1 0 0
vn -0 0.948683321 0.316227823
vn -0 0.987087488 0.160182282
vn -0 0.987087488 0.160182282
vn -0 0.948683321 0.316227823
vn -0 -0.948683321 0.316227823
vn -0 -0.987087488 0.160182282
vn -0 -0.987087488 0.160182282
vn -0 -0.948683321 0.316227823
vn -1 0 0
vn -1 0 0
vn -1 0 0
vn -1 0 0
vn -1 0 0
vn -1 0 0
vn -1 0 0
vn -1 0 0
vn -0 -0.987087488 0.160182282
vn -0 -1 0
vn -0 -1 0
vn -0 -0.987087488 0.160182282
vn -0 1 0
vn -0 1 0
vn -0 1 0
vn -0 1 0
vn -0 0.987087488 0.160182282
vn -0 1 0
vn -0 1 0
vn -0 0.987087488 0.160182282
vn -0 -1 0
vn -0 -1 0
vn -0 -1 0
vn -0 -1 0
g Model_0_0
f 3/3/3 2/2/2 1/1/1
f 6/6/6 5/5/5 4/4/4
f 9/9/9 8/8/8 7/7/7
f 10/10/10 9/9/9 7/7/7
f 9/9/9 10/10/10 11/11/11
f 11/11/11 12/12/12 9/9/9
f 11/11/11 13/13/13 12/12/12
f 13/13/13 14/14/14 12/12/12
f 13/13/13 15/15/15 14/14/14
f 13/13/13 16/16/16 15/15/15
f 19/19/19 18/18/18 17/17/17
f 17/17/17 20/20/20 19/19/19
f 17/17/17 21/21/21 20/20/20
f 23/23/23 22/22/22 21/21/21
f 22/22/22 24/24/24 21/21/21
f 27/27/27 26/26/26 25/25/25
f 28/28/28 27/27/27 25/25/25
f 29/29/29 27/27/27 28/28/28
f 30/30/30 29/29/29 28/28/28
f 33/33/33 32/32/32 31/31/31
f 31/31/31 34/34/34 33/33/33
f 31/31/31 35/35/35 34/34/34
f 31/31/31 36/36/36 35/35/35
f 36/36/36 37/37/37 35/35/35
f 36/36/36 38/38/38 37/37/37
f 36/36/36 39/39/39 38/38/38
f 42/42/42 41/41/41 40/40/40
f 42/42/42 40/40/40 43/43/43
f 42/42/42 43/43/43 44/44/44
f 43/43/43 45/45/45 44/44/44
f 45/45/45 46/46/46 44/44/44
f 42/42/42 44/44/44 47/47/47
f 47/47/47 48/48/48 42/42/42
f 46/46/46 49/49/49 44/44/44
f 46/46/46 50/50/50 49/49/49
f 46/46/46 51/51/51 50/50/50
f 54/54/54 53/53/53 52/52/52
f 52/52/52 55/55/55 54/54/54
f 54/54/54 55/55/55 56/56/56
f 56/56/56 57/57/57 54/54/54
f 52/52/52 58/58/58 55/55/55
f 52/52/52 59/59/59 58/58/58
f 62/62/62 61/61/61 60/60/60
f 62/62/62 60/60/60 63/63/63
f 62/62/62 63/63/63 64/64/64
f 64/64/64 63/63/63 65/65/65
f 64/64/64 66/66/66 62/62/62
f 66/66/66 67/67/67 62/62/62
f 67/67/67 68/68/68 62/62/62
f 64/64/64 65/65/65 69/69/69
f 64/64/64 69/69/69 70/70/70
f 70/70/70 71/71/71 64/64/64
f 70/70/70 72/72/72 71/71/71
f 72/72/72 73/73/73 71/71/71
f 65/65/65 74/74/74 69/69/69
f 74/74/74 65/65/65 75/75/75
f 75/75/75 76/76/76 74/74/74
f 76/76/76 77/77/77 74/74/74
f 80/80/80 79/79/79 78/78/78
f 78/78/78 81/81/81 80/80/80
f 78/78/78 82/82/82 81/81/81
f 78/78/78 83/83/83 82/82/82
f 80/80/80 81/81/81 84/84/84
f 80/80/80 84/84/84 85/85/85
f 85/85/85 86/86/86 80/80/80
f 89/89/89 88/88/88 87/87/87
f 90/90/90 89/89/89 87/87/87
f 93/93/93 92/92/92 91/91/91
f 94/94/94 93/93/93 91/91/91
f 97/97/97 96/96/96 95/95/95
f 98/98/98 97/97/97 95/95/95
f 101/101/101 100/100/100 99/99/99
f 102/102/102 101/101/101 99/99/99
f 105/105/105 104/104/104 103/103/103
f 106/106/106 105/105/105 103/103/103
f 109/109/109 108/108/108 107/107/107
f 107/107/107 110/110/110 109/109/109
f 112/112/112 110/110/110 111/111/111
f 112/112/112 111/111/111 113/113/113
f 113/113/113 114/114/114 112/112/112
f 117/117/117 116/116/116 115/115/115
f 118/118/118 117/117/117 115/115/115
f 121/121/121 120/120/120 119/119/119
f 122/122/122 121/121/121 119/119/119
f 125/125/125 124/124/124 123/123/123
f 126/126/126 125/125/125 123/123/123
f 129/129/129 128/128/128 127/127/127
f 130/130/130 129/129/129 127/127/127
