v 0.089098 1.672042 0.093750
v 0.089098 1.672042 -0.093750
v 1.642013 -4.123513 -0.093750
v 0.089098 1.672042 0.093750
v 1.642013 -4.123513 -0.093750
v 1.642013 -4.123513 0.093750
v 1.460902 -4.172042 -0.093750
v 1.642013 -4.123513 -0.093750
v 0.089098 1.672042 -0.093750
v 1.460902 -4.172042 -0.093750
v -0.092013 1.623513 -0.093750
v 1.642013 -4.123513 0.093750
v 1.460902 -4.172042 0.093750
v -0.092013 1.623513 0.093750
v 1.642013 -4.123513 0.093750
v 0.089098 1.672042 0.093750
v -1.460902 -4.172042 0.093750
v 0.092013 1.623513 0.093750
v 0.092013 1.623513 -0.093750
v -1.460902 -4.172042 0.093750
v -1.460902 -4.172042 -0.093750
v -1.460902 -4.172042 -0.093750
v 0.092013 1.623513 -0.093750
v -0.089098 1.672042 -0.093750
v -1.460902 -4.172042 -0.093750
v -0.089098 1.672042 -0.093750
v -1.642013 -4.123513 -0.093750
v -1.642013 -4.123513 0.093750
v -0.089098 1.672042 0.093750
v 0.092013 1.623513 0.093750
v -1.642013 -4.123513 0.093750
v 0.092013 1.623513 0.093750
v -1.460902 -4.172042 0.093750
v 3.817500 -4.443619 0.983396
v 3.817500 -3.925981 -0.948455
v 3.817500 -4.056381 -0.983396
v 3.817500 -4.574019 0.948455
v -3.817500 -4.574019 0.948455
v -3.817500 -4.443619 0.983396
v 3.817500 -4.443619 0.983396
v 3.817500 -4.574019 0.948455
v 3.817500 -4.056381 -0.983396
v 3.817500 -3.925981 -0.948455
v -3.817500 -3.925981 -0.948455
v -3.817500 -4.056381 -0.983396
v -3.817500 -4.574019 0.948455
v 3.817500 -4.574019 0.948455
v 3.817500 -4.056381 -0.983396
v -3.817500 -4.056381 -0.983396
v 3.817500 -4.443619 0.983396
v -3.817500 -4.443619 0.983396
v -3.817500 -3.925981 -0.948455
v 3.817500 -3.925981 -0.948455
v -3.817500 -4.443619 0.983396
v -3.817500 -4.574019 0.948455
v -3.817500 -4.056381 -0.983396
v -3.817500 -3.925981 -0.948455
v 1.460902 -4.172042 0.093750
v 1.460902 -4.172042 -0.093750
v -0.092013 1.623513 -0.093750
v -0.092013 1.623513 0.093750
v -0.125000 4.000000 0.125000
v 0.125000 4.000000 0.125000
v 0.125000 -4.000000 0.125000
v -0.125000 -4.000000 0.125000
v 0.125000 -4.000000 0.125000
v 3.875000 -4.000005 0.125002
v 3.875000 -4.250005 0.125002
v -3.875000 -4.249995 0.125000
v -0.125000 -4.000000 0.125000
v -3.875000 -3.999995 0.124999
v 0.125000 4.000000 -0.125000
v 0.125000 -4.000000 -0.125000
v 0.125000 -4.000000 0.125000
v 0.125000 4.000000 0.125000
v -0.125000 -4.000000 -0.125000
v -0.125000 4.000000 -0.125000
v -0.125000 4.000000 0.125000
v -0.125000 -4.000000 0.125000
v 0.125000 4.000000 0.125000
v -0.125000 4.000000 0.125000
v -0.125000 4.000000 -0.125000
v 0.125000 4.000000 -0.125000
v 3.875000 -4.250005 0.125002
v 3.875000 -4.250005 -0.124998
v -3.875000 -4.249995 -0.125000
v -3.875000 -4.249995 0.125000
v 3.875000 -4.000005 -0.124998
v 3.875000 -4.250005 -0.124998
v 3.875000 -4.250005 0.125002
v 3.875000 -4.000005 0.125002
v -3.875000 -4.249995 -0.125000
v 3.875000 -4.250005 -0.124998
v 3.875000 -4.000005 -0.124998
v 0.125000 -4.000000 -0.125000
v -0.125000 -4.000000 -0.125000
v -3.875000 -3.999995 -0.125001
v 0.125000 -4.000000 -0.125000
v 0.125000 4.000000 -0.125000
v -0.125000 -4.000000 -0.125000
v -0.125000 4.000000 -0.125000
v 0.125000 -4.000000 -0.125000
v 3.875000 -4.000005 -0.124998
v 3.875000 -4.000005 0.125002
v 0.125000 -4.000000 0.125000
v -3.875000 -3.999995 0.124999
v -3.875000 -4.249995 0.125000
v -3.875000 -4.249995 -0.125000
v -3.875000 -3.999995 -0.125001
v -0.125000 -4.000000 0.125000
v -3.875000 -3.999995 0.124999
v -3.875000 -3.999995 -0.125001
v -0.125000 -4.000000 -0.125000
v -0.089098 1.672042 0.093750
v -1.642013 -4.123513 0.093750
v -1.642013 -4.123513 -0.093750
v -0.089098 1.672042 -0.093750
vt 0.247720003 0.215154007
vt 0.248262003 0.21469
vt 0.247877002 0.215559006
vt 0.247720003 0.215154007
vt 0.247877002 0.215559006
vt 0.248634994 0.215559006
vt 0.247878 0.214762002
vt 0.247877002 0.215559006
vt 0.248262003 0.21469
vt 0.247878 0.214762002
vt 0.248791993 0.215166003
vt 0.248634994 0.215559006
vt 0.248634994 0.214761004
vt 0.248251006 0.215630993
vt 0.248634994 0.215559006
vt 0.247720003 0.215154007
vt 0.247883007 0.213508993
vt 0.303478986 0.214662001
vt 0.303523988 0.214637995
vt 0.247883007 0.213508993
vt 0.247720003 0.213503003
vt 0.247720003 0.213503003
vt 0.303523988 0.214637995
vt 0.303640008 0.214664996
vt 0.247720003 0.213503003
vt 0.303640008 0.214664996
vt 0.247883007 0.213503003
vt 0.247936994 0.213506997
vt 0.303523004 0.214688003
vt 0.303478986 0.214662001
vt 0.247936994 0.213506997
vt 0.303478986 0.214662001
vt 0.247883007 0.213508993
vt 0.72231698 0.239474997
vt 0.72231698 0.239474997
vt 0.72231698 0.239474997
vt 0.72231698 0.239474997
vt 0.72231698 0.239474997
vt 0.72231698 0.239474997
vt 0.72231698 0.239474997
vt 0.72231698 0.239474997
vt 0.72231698 0.239474997
vt 0.72231698 0.239474997
vt 0.72231698 0.239474997
vt 0.72231698 0.239474997
vt 0.72231698 0.239474997
vt 0.72231698 0.239474997
vt 0.72231698 0.239474997
vt 0.72231698 0.239474997
vt 0.72231698 0.239474997
vt 0.72231698 0.239474997
vt 0.72231698 0.239474997
vt 0.72231698 0.239474997
vt 0.72231698 0.239474997
vt 0.72231698 0.239474997
vt 0.72231698 0.239474997
vt 0.72231698 0.239474997
vt 0.248634994 0.214761004
vt 0.247878 0.214762002
vt 0.248791993 0.215166003
vt 0.248251006 0.215630993
vt 0.738439977 0.730365992
vt 0.738439977 0.758050025
vt 0.756896019 0.758050025
vt 0.756896019 0.730365992
vt 0.756896019 0.758050025
vt 0.756896019 0.758050025
vt 0.756896019 0.758050025
vt 0.756896019 0.730365992
vt 0.756896019 0.730365992
vt 0.756896019 0.730365992
vt 0.701157987 0.730089009
vt 0.719614029 0.730089009
vt 0.719614029 0.702404976
vt 0.701157987 0.702404976
vt 0.738439977 0.702404976
vt 0.738439977 0.730089009
vt 0.756896019 0.730089009
vt 0.756896019 0.702404976
vt 0.719798982 0.730365992
vt 0.719798982 0.758050025
vt 0.738255024 0.758050025
vt 0.738255024 0.730365992
vt 0.719798982 0.702404976
vt 0.719798982 0.730089009
vt 0.738255024 0.730089009
vt 0.738255024 0.702404976
vt 0.719614029 0.730089009
vt 0.719614029 0.730089009
vt 0.719614029 0.702404976
vt 0.719614029 0.702404976
vt 0.719614029 0.758050025
vt 0.719614029 0.730365992
vt 0.719614029 0.730365992
vt 0.719614029 0.730365992
vt 0.719614029 0.758050025
vt 0.719614029 0.758050025
vt 0.719614029 0.730365992
vt 0.701157987 0.730365992
vt 0.719614029 0.758050025
vt 0.701157987 0.758050025
vt 0.719614029 0.730089009
vt 0.719614029 0.730089009
vt 0.719614029 0.702404976
vt 0.719614029 0.702404976
vt 0.756896019 0.702404976
vt 0.756896019 0.702404976
vt 0.738439977 0.702404976
vt 0.738439977 0.702404976
vt 0.756896019 0.702404976
vt 0.756896019 0.702404976
vt 0.738439977 0.702404976
vt 0.738439977 0.702404976
vt 0.303523004 0.214688003
vt 0.247936994 0.213506997
vt 0.247883007 0.213503003
vt 0.303640008 0.214664996
vn 0.965926 0.258819 0.000000
vn 0.965926 0.258819 0.000000
vn 0.965926 0.258819 0.000000
vn 0.965926 0.258819 0.000000
vn 0.965926 0.258819 0.000000
vn 0.965926 0.258819 0.000000
vn 0.000000 0.000000 -1.000000
vn 0.000000 0.000000 -1.000000
vn 0.000000 0.000000 -1.000000
vn 0.000000 0.000000 -1.000000
vn 0.000000 0.000000 -1.000000
vn 0.000000 -0.000000 1.000000
vn 0.000000 -0.000000 1.000000
vn 0.000000 -0.000000 1.000000
vn 0.000000 -0.000000 1.000000
vn 0.000000 -0.000000 1.000000
vn 0.965926 -0.258819 -0.000000
vn 0.965926 -0.258819 -0.000000
vn 0.965926 -0.258819 -0.000000
vn 0.965926 -0.258819 -0.000000
vn 0.965926 -0.258819 -0.000000
vn 0.000000 0.000000 -1.000000
vn 0.000000 0.000000 -1.000000
vn 0.000000 0.000000 -1.000000
vn 0.000000 0.000000 -1.000000
vn 0.000000 0.000000 -1.000000
vn 0.000000 0.000000 -1.000000
vn 0.000000 -0.000000 1.000000
vn 0.000000 -0.000000 1.000000
vn 0.000000 -0.000000 1.000000
vn 0.000000 -0.000000 1.000000
vn 0.000000 -0.000000 1.000000
vn 0.000000 -0.000000 1.000000
vn 1.000000 0.000000 0.000000
vn 1.000000 0.000000 0.000000
vn 1.000000 0.000000 0.000000
vn 1.000000 0.000000 0.000000
vn 0.000000 -0.258822 0.965925
vn 0.000000 -0.258822 0.965925
vn 0.000000 -0.258822 0.965925
vn 0.000000 -0.258822 0.965925
vn 0.000000 0.258822 -0.965925
vn 0.000000 0.258822 -0.965925
vn 0.000000 0.258822 -0.965925
vn 0.000000 0.258822 -0.965925
vn 0.000000 -0.965926 -0.258819
vn 0.000000 -0.965926 -0.258819
vn 0.000000 -0.965926 -0.258819
vn 0.000000 -0.965926 -0.258819
vn 0.000000 0.965926 0.258819
vn 0.000000 0.965926 0.258819
vn 0.000000 0.965926 0.258819
vn 0.000000 0.965926 0.258819
vn -1.000000 0.000000 0.000000
vn -1.000000 0.000000 0.000000
vn -1.000000 0.000000 0.000000
vn -1.000000 0.000000 0.000000
vn -0.965926 -0.258819 -0.000000
vn -0.965926 -0.258819 -0.000000
vn -0.965926 -0.258819 -0.000000
vn -0.965926 -0.258819 -0.000000
vn 0.000000 -0.000000 1.000000
vn 0.000000 -0.000000 1.000000
vn 0.000000 -0.000000 1.000000
vn 0.000000 -0.000000 1.000000
vn 0.000000 -0.000000 1.000000
vn 0.000000 -0.000000 1.000000
vn 0.000000 -0.000000 1.000000
vn 0.000000 -0.000000 1.000000
vn 0.000000 -0.000000 1.000000
vn 0.000000 -0.000000 1.000000
vn 1.000000 0.000000 0.000000
vn 1.000000 0.000000 0.000000
vn 1.000000 0.000000 0.000000
vn 1.000000 0.000000 0.000000
vn -1.000000 0.000000 0.000000
vn -1.000000 0.000000 0.000000
vn -1.000000 0.000000 0.000000
vn -1.000000 0.000000 0.000000
vn 0.000000 1.000000 0.000000
vn 0.000000 1.000000 0.000000
vn 0.000000 1.000000 0.000000
vn 0.000000 1.000000 0.000000
vn 0.000000 -1.000000 -0.000000
vn 0.000000 -1.000000 -0.000000
vn 0.000000 -1.000000 -0.000000
vn 0.000000 -1.000000 -0.000000
vn 1.000000 0.000000 0.000000
vn 1.000000 0.000000 0.000000
vn 1.000000 0.000000 0.000000
vn 1.000000 0.000000 0.000000
vn 0.000000 0.000000 -1.000000
vn 0.000000 0.000000 -1.000000
vn 0.000000 0.000000 -1.000000
vn 0.000000 0.000000 -1.000000
vn 0.000000 0.000000 -1.000000
vn 0.000000 0.000000 -1.000000
vn 0.000000 0.000000 -1.000000
vn 0.000000 0.000000 -1.000000
vn 0.000000 0.000000 -1.000000
vn 0.000000 0.000000 -1.000000
vn 0.000000 1.000000 0.000000
vn 0.000000 1.000000 0.000000
vn 0.000000 1.000000 0.000000
vn 0.000000 1.000000 0.000000
vn -1.000000 0.000000 0.000000
vn -1.000000 0.000000 0.000000
vn -1.000000 0.000000 0.000000
vn -1.000000 0.000000 0.000000
vn 0.000000 1.000000 0.000000
vn 0.000000 1.000000 0.000000
vn 0.000000 1.000000 0.000000
vn 0.000000 1.000000 0.000000
vn -0.965926 0.258819 0.000000
vn -0.965926 0.258819 0.000000
vn -0.965926 0.258819 0.000000
vn -0.965926 0.258819 0.000000
f 3/3/3 2/2/2 1/1/1
f 6/6/6 5/5/5 4/4/4
f 9/9/9 8/8/8 7/7/7
f 11/11/11 9/9/9 10/10/10
f 14/14/14 13/13/13 12/12/12
f 16/16/16 14/14/14 15/15/15
f 19/19/19 18/18/18 17/17/17
f 21/21/21 19/19/19 20/20/20
f 24/24/24 23/23/23 22/22/22
f 27/27/27 26/26/26 25/25/25
f 30/30/30 29/29/29 28/28/28
f 33/33/33 32/32/32 31/31/31
f 36/36/36 35/35/35 34/34/34
f 37/37/37 36/36/36 34/34/34
f 40/40/40 39/39/39 38/38/38
f 41/41/41 40/40/40 38/38/38
f 44/44/44 43/43/43 42/42/42
f 45/45/45 44/44/44 42/42/42
f 48/48/48 47/47/47 46/46/46
f 49/49/49 48/48/48 46/46/46
f 52/52/52 51/51/51 50/50/50
f 53/53/53 52/52/52 50/50/50
f 56/56/56 55/55/55 54/54/54
f 57/57/57 56/56/56 54/54/54
f 60/60/60 59/59/59 58/58/58
f 61/61/61 60/60/60 58/58/58
f 64/64/64 63/63/63 62/62/62
f 64/64/64 62/62/62 65/65/65
f 68/68/68 67/67/67 66/66/66
f 66/66/66 69/69/69 68/68/68
f 66/66/66 70/70/70 69/69/69
f 70/70/70 71/71/71 69/69/69
f 74/74/74 73/73/73 72/72/72
f 75/75/75 74/74/74 72/72/72
f 78/78/78 77/77/77 76/76/76
f 79/79/79 78/78/78 76/76/76
f 82/82/82 81/81/81 80/80/80
f 83/83/83 82/82/82 80/80/80
f 86/86/86 85/85/85 84/84/84
f 87/87/87 86/86/86 84/84/84
f 90/90/90 89/89/89 88/88/88
f 91/91/91 90/90/90 88/88/88
f 94/94/94 93/93/93 92/92/92
f 92/92/92 95/95/95 94/94/94
f 92/92/92 96/96/96 95/95/95
f 92/92/92 97/97/97 96/96/96
f 100/100/100 99/99/99 98/98/98
f 99/99/99 100/100/100 101/101/101
f 104/104/104 103/103/103 102/102/102
f 105/105/105 104/104/104 102/102/102
f 108/108/108 107/107/107 106/106/106
f 109/109/109 108/108/108 106/106/106
f 112/112/112 111/111/111 110/110/110
f 113/113/113 112/112/112 110/110/110
f 116/116/116 115/115/115 114/114/114
f 117/117/117 116/116/116 114/114/114
