v -2.249997 6.999998 3.750000
v -8.999999 7.000000 5.750000
v -7.499999 7.000000 3.750000
v -2.249997 6.999998 3.750000
v 1.250003 6.999998 5.750000
v 9.000004 6.999997 5.750000
v 7.500004 6.999997 3.750000
v 1.250003 6.999998 5.750000
v 2.250003 6.999998 3.750000
v 1.250003 6.999998 2.750000
v -1.250003 -7.000001 2.750000
v 1.249997 -6.500001 2.750000
v -1.250003 -6.500001 2.750000
v -1.249997 6.499998 2.750000
v 1.250003 6.999998 2.750000
v -1.249997 6.999998 2.750000
v -9.000002 -6.499998 5.750000
v -8.999999 7.000000 0.000000
v -8.999999 7.000000 5.750000
v 2.249997 -7.000001 3.750000
v 8.999996 -7.000004 5.750000
v 7.499996 -7.000004 3.750000
v 2.249997 -7.000001 3.750000
v -2.250003 -7.000001 5.750000
v 2.249997 -7.000001 3.750000
v 1.249997 -7.000001 2.750000
v 2.249997 -7.000001 1.000000
v -1.250003 -7.000001 2.750000
v -2.250003 -7.000001 1.000000
v -1.250003 -7.000001 -0.000000
v -2.250001 -6.999999 -5.000000
v -7.500002 -6.999998 1.000000
v 1.249997 -7.000001 -0.000000
v -9.000001 -6.999998 -5.000000
v -9.000002 -6.999998 5.750000
v 9.000000 -7.000000 -5.000000
v 7.499996 -7.000004 1.000000
v 8.999996 -7.000004 -0.000000
v 9.000004 6.999997 5.750000
v 7.500004 6.999997 3.750000
v 9.000004 6.999997 4.750000
v 7.500004 6.999997 3.750000
v 7.500004 6.999997 1.000000
v 2.250003 6.999998 1.000000
v 1.250003 6.999998 0.000000
v 2.250003 6.999998 3.750000
v 1.250003 6.999998 2.750000
v 2.250003 6.999998 1.000000
v 1.250003 6.999998 2.750000
v 1.250003 6.999998 0.000000
v 1.250003 6.999998 5.750000
v -1.249997 6.999998 2.750000
v -2.249997 6.999998 3.750000
v -2.249997 6.999998 1.000000
v -2.249997 6.499998 3.750000
v -7.499999 6.500000 3.750000
v -2.249997 6.499998 4.250000
v -7.499999 6.500000 3.750000
v -8.499999 6.500000 4.250000
v -7.499999 6.500000 1.000000
v 2.249997 -6.500001 1.000000
v 1.249997 -6.500001 2.750000
v 1.249997 -6.500001 -0.000000
v 2.249997 -6.500001 3.750000
v -1.250003 -6.500001 2.750000
v -2.250003 -6.500001 3.750000
v -2.250003 -6.500001 1.000000
v -8.500002 -6.499998 4.250000
v -7.500002 -6.499998 3.750000
v 8.499996 -6.500004 4.250000
v 7.499996 -6.500004 3.750000
v 7.499996 -6.500004 1.000000
v -2.249997 6.499998 1.000000
v -1.249997 6.499998 2.750000
v -1.249997 6.499998 0.000000
v -2.249997 6.499998 4.250000
v 1.250003 6.499998 2.750000
v 2.250003 6.499998 3.750000
v 2.250003 6.499998 1.000000
v 8.500004 6.499997 4.250000
v 2.250003 6.499998 3.750000
v 7.500004 6.499997 3.750000
v -8.500002 -6.499998 4.250000
v -2.249997 6.499998 4.250000
v -8.499999 6.500000 4.250000
v 1.249997 -7.000001 2.750000
v 1.249997 -6.500001 2.750000
v -1.250003 -7.000001 2.750000
v 1.250003 6.499998 2.750000
v 1.250003 6.999998 2.750000
v -1.249997 6.499998 2.750000
v 8.999996 -7.000004 -0.000000
v 9.000004 6.999997 4.750000
v 9.000000 7.000000 -5.000000
v 9.000000 -7.000000 -5.000000
v -7.500002 -6.499998 3.750000
v -7.500002 -6.999998 1.000000
v -7.500002 -6.999998 3.750000
v -7.500002 -6.499998 1.000000
v -8.500002 -6.499998 5.750000
v 8.499996 -6.500004 4.750000
v 8.499996 -6.500004 5.750000
v -8.500002 -6.499998 4.750000
v 2.249997 -6.500001 3.750000
v 2.249997 -7.000001 1.000000
v 2.249997 -7.000001 3.750000
v 2.249997 -6.500001 1.000000
v 7.500004 6.499997 1.000000
v 7.500004 6.999997 3.750000
v 7.500004 6.499997 3.750000
v 7.500004 6.999997 1.000000
v 8.499996 -6.500004 4.250000
v 8.500004 6.499997 0.000000
v 8.500004 6.499997 4.250000
v 8.499996 -6.500004 -0.000000
v -7.500002 -6.499998 1.000000
v -2.250003 -7.000001 1.000000
v -7.500002 -6.999998 1.000000
v -2.250003 -6.500001 1.000000
v -7.499999 7.000000 1.000000
v -2.249997 6.499998 1.000000
v -7.499999 6.500000 1.000000
v -2.249997 6.999998 1.000000
v 2.249997 -6.500001 1.000000
v 7.499996 -7.000004 1.000000
v 2.249997 -7.000001 1.000000
v 7.499996 -6.500004 1.000000
v 2.250003 6.999998 1.000000
v 7.500004 6.499997 1.000000
v 2.250003 6.499998 1.000000
v 7.500004 6.999997 1.000000
v -7.499999 7.000000 3.750000
v -7.499999 6.500000 1.000000
v -7.499999 6.500000 3.750000
v -7.499999 7.000000 1.000000
v 7.499996 -7.000004 3.750000
v 7.499996 -6.500004 1.000000
v 7.499996 -6.500004 3.750000
v 7.499996 -7.000004 1.000000
v 1.249997 -7.000001 2.750000
v 1.249997 -6.500001 -0.000000
v 1.249997 -6.500001 2.750000
v 1.249997 -7.000001 -0.000000
v 1.250003 6.499998 0.000000
v 1.250003 6.999998 2.750000
v 1.250003 6.499998 2.750000
v 1.250003 6.999998 0.000000
v -1.250003 -7.000001 2.750000
v -1.250003 -6.500001 -0.000000
v -1.250003 -7.000001 -0.000000
v -1.250003 -6.500001 2.750000
v -2.250003 -7.000001 3.750000
v -2.250003 -6.500001 1.000000
v -2.250003 -6.500001 3.750000
v -2.250003 -7.000001 1.000000
v 8.499996 -6.500004 5.750000
v 8.999996 -7.000004 5.750000
v -2.250003 -7.000001 5.750000
v 8.500004 6.499997 5.750000
v 9.000004 6.999997 5.750000
v 1.250003 6.999998 5.750000
v 1.250003 6.499998 5.750000
v -8.499999 6.500000 4.250000
v -8.500002 -6.499998 -0.000000
v -8.500002 -6.499998 4.250000
v -8.499999 6.500000 0.000000
v 2.250003 6.999998 3.750000
v 2.250003 6.499998 1.000000
v 2.250003 6.499998 3.750000
v 2.250003 6.999998 1.000000
v 8.499996 -6.500004 4.750000
v 8.500004 6.499997 5.750000
v 8.499996 -6.500004 5.750000
v 8.500004 6.499997 4.750000
v -2.249997 6.499998 1.000000
v -2.249997 6.999998 3.750000
v -2.249997 6.499998 3.750000
v -2.249997 6.999998 1.000000
v -1.249997 6.999998 2.750000
v -1.249997 6.499998 0.000000
v -1.249997 6.499998 2.750000
v -1.249997 6.999998 0.000000
v 1.250003 6.499998 5.750000
v -8.499999 6.500000 4.750000
v -8.499999 6.500000 5.750000
v 8.500004 6.499997 4.750000
v 8.500004 6.499997 5.750000
v -2.250003 -7.000001 5.750000
v -7.500002 -6.999998 3.750000
v -7.500002 -6.999998 5.750000
v -2.250003 -7.000001 3.750000
v 8.499996 -6.500004 4.750000
v -8.499999 6.500000 4.750000
v 8.500004 6.499997 4.750000
v -8.500002 -6.499998 4.750000
v -8.500002 -6.499998 4.250000
v 8.499996 -6.500004 4.250000
v -2.249997 6.499998 4.250000
v 8.500004 6.499997 4.250000
v -8.499999 6.500000 4.750000
v -8.500002 -6.499998 5.750000
v -8.499999 6.500000 5.750000
v -8.500002 -6.499998 4.750000
v 2.249997 -7.000001 3.750000
v 7.499996 -6.500004 3.750000
v 2.249997 -6.500001 3.750000
v 7.499996 -7.000004 3.750000
v -7.500002 -6.999998 3.750000
v -2.250003 -6.500001 3.750000
v -7.500002 -6.499998 3.750000
v -2.250003 -7.000001 3.750000
v 2.250003 6.499998 3.750000
v 7.500004 6.999997 3.750000
v 2.250003 6.999998 3.750000
v 7.500004 6.499997 3.750000
v -7.499999 6.500000 3.750000
v -2.249997 6.999998 3.750000
v -7.499999 7.000000 3.750000
v -2.249997 6.499998 3.750000
v 9.000004 6.999997 4.750000
v 8.999996 -7.000004 5.750000
v 9.000004 6.999997 5.750000
v 8.999996 -7.000004 -0.000000
v -8.499999 6.500000 5.750000
v 1.250003 6.999998 5.750000
v 1.250003 6.499998 5.750000
v -8.999999 7.000000 5.750000
v -9.000002 -6.499998 5.750000
v -8.500002 -6.499998 5.750000
v -9.000002 -6.999998 5.750000
v -7.500002 -6.999998 5.750000
v -8.500002 -6.499998 5.750000
v -2.250003 -7.000001 5.750000
v 8.499996 -6.500004 5.750000
v 8.499996 -6.500004 -0.000000
v 7.500004 6.499997 0.000000
v 8.500004 6.499997 0.000000
v 7.499996 -6.500004 -0.000000
v 2.250003 6.499998 0.000000
v 2.249997 -6.500001 -0.000000
v 1.249997 -6.500001 -0.000000
v 1.250003 6.499998 0.000000
v -1.249997 6.499998 0.000000
v -1.249997 6.999998 0.000000
v 1.250003 6.999998 0.000000
v -1.250003 -6.500001 -0.000000
v -1.250003 -7.000001 -0.000000
v 1.249997 -7.000001 -0.000000
v -2.250003 -6.500001 -0.000000
v -2.249997 6.499998 0.000000
v -7.500002 -6.499998 -0.000000
v -8.499999 6.500000 0.000000
v -8.500002 -6.499998 -0.000000
v -8.999999 7.000000 0.000000
v -9.000001 -6.999998 -5.000000
v -8.999997 7.000002 -5.000000
v -9.000002 -6.499998 5.750000
v -9.000002 -6.999998 5.750000
v 9.000000 7.000000 -5.000000
v 1.250003 6.999998 0.000000
v -8.999997 7.000002 -5.000000
v 7.500004 6.999997 1.000000
v 9.000004 6.999997 4.750000
v -8.999997 7.000002 -5.000000
v -1.249997 6.999998 0.000000
v -8.999999 7.000000 0.000000
v -7.499999 7.000000 1.000000
v -8.999997 7.000002 -5.000000
v 1.249997 -7.000001 2.750000
v 2.249997 -7.000001 1.000000
v 1.249997 -7.000001 -0.000000
v 7.499996 -7.000004 1.000000
v 7.499996 -7.000004 3.750000
v 8.999996 -7.000004 -0.000000
v 8.999996 -7.000004 5.750000
v -7.500002 -6.999998 5.750000
v -7.500002 -6.999998 3.750000
v -9.000002 -6.999998 5.750000
v -7.500002 -6.999998 1.000000
v -1.250003 -7.000001 2.750000
v -2.250003 -7.000001 3.750000
v -2.250003 -7.000001 5.750000
v -2.250003 -7.000001 1.000000
v -1.249997 6.999998 2.750000
v -2.249997 6.999998 1.000000
v -1.249997 6.999998 0.000000
v -7.499999 7.000000 1.000000
v -7.499999 7.000000 3.750000
v -8.999999 7.000000 0.000000
v -8.999999 7.000000 5.750000
v -8.499999 6.500000 4.250000
v -7.499999 6.500000 1.000000
v -8.499999 6.500000 0.000000
v -2.249997 6.499998 0.000000
v -2.249997 6.499998 1.000000
v -1.249997 6.499998 0.000000
v -2.249997 6.499998 3.750000
v -1.249997 6.499998 2.750000
v -2.249997 6.499998 4.250000
v 2.249997 -6.500001 1.000000
v 1.249997 -6.500001 -0.000000
v 2.249997 -6.500001 -0.000000
v 7.499996 -6.500004 1.000000
v 7.499996 -6.500004 -0.000000
v 8.499996 -6.500004 -0.000000
v 8.499996 -6.500004 4.250000
v 2.249997 -6.500001 3.750000
v 1.249997 -6.500001 2.750000
v -8.500002 -6.499998 4.250000
v -7.500002 -6.499998 3.750000
v -7.500002 -6.499998 1.000000
v -8.500002 -6.499998 -0.000000
v -7.500002 -6.499998 -0.000000
v -2.250003 -6.500001 1.000000
v -2.250003 -6.500001 -0.000000
v -1.250003 -6.500001 -0.000000
v -1.250003 -6.500001 2.750000
v 1.250003 6.499998 2.750000
v 2.250003 6.499998 1.000000
v 1.250003 6.499998 0.000000
v 2.250003 6.499998 0.000000
v 7.500004 6.499997 0.000000
v 7.500004 6.499997 1.000000
v 8.500004 6.499997 0.000000
v 8.500004 6.499997 4.250000
v 7.500004 6.499997 3.750000
vt 0.0929683447 0.67255336
vt 0.118970811 0.749984324
vt 0.118970811 0.739777029
vt 0.0929683447 0.67255336
vt 0.118970811 0.735574067
vt 0.118970811 0.711557031
vt 0.0929683447 0.67255336
vt 0.118970811 0.735574067
vt 0.118970811 0.734373212
vt 0.0929683447 0.67255336
vt 0.605032861 0.710597098
vt 0.605081618 0.710606217
vt 0.604786336 0.710402668
vt 0.604984045 0.710597098
vt 0.605008423 0.710606217
vt 0.602075636 0.710368931
vt 0.170463383 0.691959083
vt 0.170463383 0.71117276
vt 0.170463383 0.71117276
vt 0.0929683447 0.67255336
vt 0.118970811 0.672745466
vt 0.133381069 0.672745466
vt 0.0929683447 0.67255336
vt 0.137383878 0.672745466
vt 0.0929683447 0.67255336
vt 0.134982169 0.672745466
vt 0.134181619 0.672745466
vt 0.0929683447 0.67255336
vt 0.137383878 0.672745466
vt 0.136583328 0.672745466
vt 0.137383878 0.71117276
vt 0.137784183 0.672745466
vt 0.134982169 0.672745466
vt 0.144589007 0.71117276
vt 0.144589007 0.672745466
vt 0.118970811 0.71117276
vt 0.133381069 0.672745466
vt 0.118970811 0.672745466
vt 0.118970811 0.711557031
vt 0.0929683447 0.67255336
vt 0.118970811 0.711557031
vt 0.118970811 0.733172357
vt 0.118970811 0.733172357
vt 0.118970811 0.734373212
vt 0.118970811 0.735574067
vt 0.118970811 0.734373212
vt 0.0929683447 0.67255336
vt 0.118970811 0.734373212
vt 0.0929683447 0.67255336
vt 0.118970811 0.735574067
vt 0.118970811 0.735574067
vt 0.118970811 0.737975776
vt 0.0929683447 0.67255336
vt 0.118970811 0.739176631
vt 0.86255604 0.731219172
vt 0.804274619 0.681407809
vt 0.856151462 0.730618715
vt 0.804274619 0.681407809
vt 0.86255604 0.730018318
vt 0.86255604 0.730618715
vt 0.868960559 0.736022532
vt 0.804274619 0.681407809
vt 0.868960559 0.734821677
vt 0.868960559 0.736022532
vt 0.868960559 0.732420027
vt 0.804274619 0.681407809
vt 0.868960559 0.731219172
vt 0.868960559 0.730018318
vt 0.868960559 0.730618715
vt 0.868960559 0.739625096
vt 0.804274619 0.681407809
vt 0.868960559 0.737223387
vt 0.86255604 0.731219172
vt 0.804274619 0.681407809
vt 0.86255604 0.732420027
vt 0.86255604 0.731219172
vt 0.86255604 0.734821677
vt 0.804274619 0.681407809
vt 0.86255604 0.736022532
vt 0.86255604 0.739625096
vt 0.804274619 0.681407809
vt 0.86255604 0.737223387
vt 0.338668644 0.237121463
vt 0.338668644 0.239523172
vt 0.338668644 0.23772186
vt 0.602075636 0.710368931
vt 0.605081618 0.710606217
vt 0.605032861 0.710597098
vt 0.604786336 0.710402668
vt 0.605008423 0.710606217
vt 0.604984045 0.710597098
vt 0.118714631 0.672745466
vt 0.0930964351 0.672745466
vt 0.0930964351 0.71117276
vt 0.118714631 0.71117276
vt 0.634705305 0.715180993
vt 0.636441886 0.715180993
vt 0.636441886 0.715180993
vt 0.634705305 0.715180993
vt 0.157654285 0.721163869
vt 0.157654285 0.730770648
vt 0.157654285 0.730770648
vt 0.157654285 0.721163869
vt 0.634705305 0.715913594
vt 0.636441886 0.715913594
vt 0.636441886 0.715913594
vt 0.634705305 0.715913594
vt 0.633837044 0.716076434
vt 0.632968724 0.716076434
vt 0.633837044 0.716076434
vt 0.632968724 0.716076434
vt 0.868960559 0.739625096
vt 0.86255604 0.739625096
vt 0.86255604 0.739625096
vt 0.868960559 0.739625096
vt 0.634705305 0.715180993
vt 0.636441886 0.715262413
vt 0.636441886 0.715180993
vt 0.634705305 0.715262413
vt 0.632968724 0.715180993
vt 0.633837044 0.715262413
vt 0.633837044 0.715180993
vt 0.632968724 0.715262413
vt 0.634705305 0.715913594
vt 0.636441886 0.716076434
vt 0.636441886 0.715913594
vt 0.634705305 0.716076434
vt 0.632968724 0.715913594
vt 0.633837044 0.716076434
vt 0.633837044 0.715913594
vt 0.632968724 0.716076434
vt 0.632968724 0.715180993
vt 0.633837044 0.715180993
vt 0.633837044 0.715180993
vt 0.632968724 0.715180993
vt 0.636441886 0.716076434
vt 0.634705305 0.716076434
vt 0.634705305 0.716076434
vt 0.636441886 0.716076434
vt 0.636441886 0.715750813
vt 0.634705305 0.715750813
vt 0.634705305 0.715750813
vt 0.636441886 0.715750813
vt 0.633837044 0.715750813
vt 0.632968724 0.715750813
vt 0.633837044 0.715750813
vt 0.632968724 0.715750813
vt 0.636441886 0.715425193
vt 0.634705305 0.715425193
vt 0.636441886 0.715425193
vt 0.634705305 0.715425193
vt 0.636441886 0.715262413
vt 0.634705305 0.715262413
vt 0.634705305 0.715262413
vt 0.636441886 0.715262413
vt 0.157654285 0.730770648
vt 0.170463383 0.749984264
vt 0.170463383 0.722364724
vt 0.151249766 0.730770648
vt 0.144845188 0.749984324
vt 0.144845188 0.725967228
vt 0.151249766 0.725967228
vt 0.86255604 0.730018318
vt 0.868960559 0.730018318
vt 0.868960559 0.730018318
vt 0.86255604 0.730018318
vt 0.632968724 0.715913594
vt 0.633837044 0.715913594
vt 0.633837044 0.715913594
vt 0.632968724 0.715913594
vt 0.157654285 0.730770648
vt 0.151249766 0.730770648
vt 0.157654285 0.730770648
vt 0.151249766 0.730770648
vt 0.633837044 0.715262413
vt 0.632968724 0.715262413
vt 0.633837044 0.715262413
vt 0.632968724 0.715262413
vt 0.632968724 0.715425193
vt 0.633837044 0.715425193
vt 0.633837044 0.715425193
vt 0.632968724 0.715425193
vt 0.151249766 0.725967228
vt 0.151249766 0.721163869
vt 0.151249766 0.721163869
vt 0.151249766 0.730770648
vt 0.151249766 0.730770648
vt 0.157654285 0.721764266
vt 0.0929683447 0.67255336
vt 0.0929683447 0.67255336
vt 0.0929683447 0.67255336
vt 0.346548915 0.751430988
vt 0.340144396 0.74182421
vt 0.340144396 0.751430988
vt 0.346548915 0.74182421
vt 0.338668644 0.237121463
vt 0.345073164 0.244326532
vt 0.338668644 0.239523172
vt 0.345073164 0.246728241
vt 0.151249766 0.721163869
vt 0.157654285 0.721163869
vt 0.151249766 0.721163869
vt 0.157654285 0.721163869
vt 0.605032861 0.710610807
vt 0.605081618 0.710615396
vt 0.604786336 0.710402668
vt 0.602075636 0.710368931
vt 0.605032861 0.710590243
vt 0.605081618 0.710592508
vt 0.604786336 0.710402668
vt 0.602075636 0.710368931
vt 0.604984045 0.710610807
vt 0.605008423 0.710615396
vt 0.602075636 0.710368931
vt 0.604786336 0.710402668
vt 0.604984045 0.710590243
vt 0.605008423 0.710592508
vt 0.602075636 0.710368931
vt 0.604786336 0.710402668
vt 0.0930964351 0.672745466
vt 0.118714631 0.672745466
vt 0.0930964351 0.672745466
vt 0.118714631 0.672745466
vt 0.151249766 0.721163869
vt 0.151249766 0.725967228
vt 0.0929683447 0.67255336
vt 0.144845188 0.711557031
vt 0.157654285 0.711557031
vt 0.157654285 0.721163869
vt 0.170463383 0.711557031
vt 0.157654285 0.721764266
vt 0.157654285 0.721163869
vt 0.170463383 0.722364724
vt 0.157654285 0.730770648
vt 0.129615307 0.317563683
vt 0.123210788 0.315161973
vt 0.123210788 0.317563683
vt 0.129615307 0.315161973
vt 0.123210788 0.313961118
vt 0.129615307 0.313961118
vt 0.129615307 0.312760264
vt 0.123210788 0.312760264
vt 0.123210788 0.310358614
vt 0.116806209 0.310358554
vt 0.116806209 0.312760264
vt 0.129615307 0.310358614
vt 0.142424405 0.310358614
vt 0.142424405 0.312760264
vt 0.129615307 0.309157759
vt 0.123210788 0.309157759
vt 0.129615307 0.308557302
vt 0.123210788 0.307956904
vt 0.129615307 0.307956904
vt 0.170463383 0.71117276
vt 0.144845188 0.672745466
vt 0.144845188 0.71117276
vt 0.170463383 0.691959083
vt 0.170463383 0.672745466
vt 0.144589007 0.711557031
vt 0.118970811 0.735574067
vt 0.144589007 0.749984264
vt 0.118970811 0.733172357
vt 0.118970811 0.711557031
vt 0.144589007 0.749984264
vt 0.118970811 0.737975776
vt 0.118970811 0.749984324
vt 0.118970811 0.739777029
vt 0.144589007 0.749984264
vt 0.134982169 0.672745466
vt 0.134181619 0.672745466
vt 0.134982169 0.672745466
vt 0.133381069 0.672745466
vt 0.133381069 0.672745466
vt 0.118970811 0.672745466
vt 0.118970811 0.672745466
vt 0.137784183 0.672745466
vt 0.137784183 0.672745466
vt 0.144589007 0.672745466
vt 0.137784183 0.672745466
vt 0.0929683447 0.67255336
vt 0.137383878 0.672745466
vt 0.137383878 0.672745466
vt 0.137383878 0.672745466
vt 0.118970811 0.737975776
vt 0.118970811 0.739176631
vt 0.118970811 0.737975776
vt 0.118970811 0.739777029
vt 0.118970811 0.739777029
vt 0.118970811 0.749984324
vt 0.118970811 0.749984324
vt 0.86255604 0.730018318
vt 0.86255604 0.730618715
vt 0.86255604 0.730018318
vt 0.86255604 0.731219172
vt 0.86255604 0.731219172
vt 0.86255604 0.732420027
vt 0.86255604 0.731219172
vt 0.804274619 0.681407809
vt 0.86255604 0.731219172
vt 0.868960559 0.736022532
vt 0.868960559 0.734821677
vt 0.868960559 0.736022532
vt 0.868960559 0.737223387
vt 0.868960559 0.737223387
vt 0.868960559 0.739625096
vt 0.868960559 0.739625096
vt 0.868960559 0.736022532
vt 0.804274619 0.681407809
vt 0.868960559 0.730018318
vt 0.868960559 0.730618715
vt 0.868960559 0.730618715
vt 0.868960559 0.730018318
vt 0.868960559 0.730618715
vt 0.868960559 0.731219172
vt 0.868960559 0.731219172
vt 0.868960559 0.732420027
vt 0.868960559 0.732420027
vt 0.86255604 0.734821677
vt 0.86255604 0.736022532
vt 0.86255604 0.734821677
vt 0.86255604 0.736022532
vt 0.86255604 0.737223387
vt 0.86255604 0.737223387
vt 0.86255604 0.739625096
vt 0.86255604 0.739625096
vt 0.86255604 0.737223387
vn 0.000000 1.000000 0.000000
vn 0.000000 1.000000 0.000000
vn 0.000000 1.000000 0.000000
vn 0.000000 1.000000 0.000000
vn 0.000000 1.000000 0.000000
vn 0.000000 1.000000 0.000000
vn 0.000000 1.000000 0.000000
vn 0.000000 1.000000 0.000000
vn 0.000000 1.000000 0.000000
vn 0.000000 1.000000 0.000000
vn 0.000000 0.000000 -1.000000
vn 0.000000 0.000000 -1.000000
vn 0.000000 0.000000 -1.000000
vn 0.000000 0.000000 -1.000000
vn 0.000000 0.000000 -1.000000
vn 0.000000 0.000000 -1.000000
vn -1.000000 0.000000 0.000000
vn -1.000000 0.000000 0.000000
vn -1.000000 0.000000 0.000000
vn 0.000000 -1.000000 -0.000000
vn 0.000000 -1.000000 -0.000000
vn 0.000000 -1.000000 -0.000000
vn 0.000000 -1.000000 -0.000000
vn 0.000000 -1.000000 -0.000000
vn 0.000000 -1.000000 -0.000000
vn 0.000000 -1.000000 -0.000000
vn 0.000000 -1.000000 -0.000000
vn 0.000000 -1.000000 -0.000000
vn 0.000000 -1.000000 -0.000000
vn 0.000000 -1.000000 -0.000000
vn 0.000000 -1.000000 -0.000000
vn 0.000000 -1.000000 -0.000000
vn 0.000000 -1.000000 -0.000000
vn 0.000000 -1.000000 -0.000000
vn 0.000000 -1.000000 -0.000000
vn 0.000000 -1.000000 -0.000000
vn 0.000000 -1.000000 -0.000000
vn 0.000000 -1.000000 -0.000000
vn 0.000000 1.000000 0.000000
vn 0.000000 1.000000 0.000000
vn 0.000000 1.000000 0.000000
vn 0.000000 1.000000 0.000000
vn 0.000000 1.000000 0.000000
vn 0.000000 1.000000 0.000000
vn 0.000000 1.000000 0.000000
vn 0.000000 1.000000 0.000000
vn 0.000000 1.000000 0.000000
vn 0.000000 1.000000 0.000000
vn 0.000000 1.000000 0.000000
vn 0.000000 1.000000 0.000000
vn 0.000000 1.000000 0.000000
vn 0.000000 1.000000 0.000000
vn 0.000000 1.000000 0.000000
vn 0.000000 1.000000 0.000000
vn 0.000000 -1.000000 -0.000000
vn 0.000000 -1.000000 -0.000000
vn 0.000000 -1.000000 -0.000000
vn 0.000000 -1.000000 -0.000000
vn 0.000000 -1.000000 -0.000000
vn 0.000000 -1.000000 -0.000000
vn 0.000000 1.000000 0.000000
vn 0.000000 1.000000 0.000000
vn 0.000000 1.000000 0.000000
vn 0.000000 1.000000 0.000000
vn 0.000000 1.000000 0.000000
vn 0.000000 1.000000 0.000000
vn 0.000000 1.000000 0.000000
vn 0.000000 1.000000 0.000000
vn 0.000000 1.000000 0.000000
vn 0.000000 1.000000 0.000000
vn 0.000000 1.000000 0.000000
vn 0.000000 1.000000 0.000000
vn 0.000000 -1.000000 -0.000000
vn 0.000000 -1.000000 -0.000000
vn 0.000000 -1.000000 -0.000000
vn 0.000000 -1.000000 -0.000000
vn 0.000000 -1.000000 -0.000000
vn 0.000000 -1.000000 -0.000000
vn 0.000000 -1.000000 -0.000000
vn 0.000000 -1.000000 -0.000000
vn 0.000000 -1.000000 -0.000000
vn 0.000000 -1.000000 -0.000000
vn 0.000000 0.000000 -1.000000
vn 0.000000 0.000000 -1.000000
vn 0.000000 0.000000 -1.000000
vn 0.000000 0.000000 -1.000000
vn 0.000000 0.000000 -1.000000
vn 0.000000 0.000000 -1.000000
vn 0.000000 0.000000 -1.000000
vn 0.000000 0.000000 -1.000000
vn 0.000000 0.000000 -1.000000
vn 1.000000 0.000000 0.000000
vn 1.000000 0.000000 0.000000
vn 1.000000 0.000000 0.000000
vn 1.000000 0.000000 0.000000
vn 1.000000 0.000000 0.000000
vn 1.000000 0.000000 0.000000
vn 1.000000 0.000000 0.000000
vn 1.000000 0.000000 0.000000
vn 0.000000 1.000000 0.000000
vn 0.000000 1.000000 0.000000
vn 0.000000 1.000000 0.000000
vn 0.000000 1.000000 0.000000
vn 1.000000 0.000000 0.000000
vn 1.000000 0.000000 0.000000
vn 1.000000 0.000000 0.000000
vn 1.000000 0.000000 0.000000
vn -1.000000 0.000000 0.000000
vn -1.000000 0.000000 0.000000
vn -1.000000 0.000000 0.000000
vn -1.000000 0.000000 0.000000
vn -1.000000 0.000000 0.000000
vn -1.000000 0.000000 0.000000
vn -1.000000 0.000000 0.000000
vn -1.000000 0.000000 0.000000
vn 0.000000 -0.000000 1.000000
vn 0.000000 -0.000000 1.000000
vn 0.000000 -0.000000 1.000000
vn 0.000000 -0.000000 1.000000
vn 0.000000 -0.000000 1.000000
vn 0.000000 -0.000000 1.000000
vn 0.000000 -0.000000 1.000000
vn 0.000000 -0.000000 1.000000
vn 0.000000 -0.000000 1.000000
vn 0.000000 -0.000000 1.000000
vn 0.000000 -0.000000 1.000000
vn 0.000000 -0.000000 1.000000
vn 0.000000 -0.000000 1.000000
vn 0.000000 -0.000000 1.000000
vn 0.000000 -0.000000 1.000000
vn 0.000000 -0.000000 1.000000
vn 1.000000 0.000000 0.000000
vn 1.000000 0.000000 0.000000
vn 1.000000 0.000000 0.000000
vn 1.000000 0.000000 0.000000
vn -1.000000 0.000000 0.000000
vn -1.000000 0.000000 0.000000
vn -1.000000 0.000000 0.000000
vn -1.000000 0.000000 0.000000
vn -1.000000 0.000000 0.000000
vn -1.000000 0.000000 0.000000
vn -1.000000 0.000000 0.000000
vn -1.000000 0.000000 0.000000
vn -1.000000 0.000000 0.000000
vn -1.000000 0.000000 0.000000
vn -1.000000 0.000000 0.000000
vn -1.000000 0.000000 0.000000
vn 1.000000 0.000000 0.000000
vn 1.000000 0.000000 0.000000
vn 1.000000 0.000000 0.000000
vn 1.000000 0.000000 0.000000
vn -1.000000 0.000000 0.000000
vn -1.000000 0.000000 0.000000
vn -1.000000 0.000000 0.000000
vn -1.000000 0.000000 0.000000
vn 0.000000 -0.000000 1.000000
vn 0.000000 -0.000000 1.000000
vn 0.000000 -0.000000 1.000000
vn 0.000000 -0.000000 1.000000
vn 0.000000 -0.000000 1.000000
vn 0.000000 -0.000000 1.000000
vn 0.000000 -0.000000 1.000000
vn 1.000000 0.000000 0.000000
vn 1.000000 0.000000 0.000000
vn 1.000000 0.000000 0.000000
vn 1.000000 0.000000 0.000000
vn 1.000000 0.000000 0.000000
vn 1.000000 0.000000 0.000000
vn 1.000000 0.000000 0.000000
vn 1.000000 0.000000 0.000000
vn -1.000000 0.000000 0.000000
vn -1.000000 0.000000 0.000000
vn -1.000000 0.000000 0.000000
vn -1.000000 0.000000 0.000000
vn -1.000000 0.000000 0.000000
vn -1.000000 0.000000 0.000000
vn -1.000000 0.000000 0.000000
vn -1.000000 0.000000 0.000000
vn 1.000000 0.000000 0.000000
vn 1.000000 0.000000 0.000000
vn 1.000000 0.000000 0.000000
vn 1.000000 0.000000 0.000000
vn 0.000000 -1.000000 -0.000000
vn 0.000000 -1.000000 -0.000000
vn 0.000000 -1.000000 -0.000000
vn 0.000000 -1.000000 -0.000000
vn 0.000000 -1.000000 -0.000000
vn 0.000000 -1.000000 -0.000000
vn 0.000000 -1.000000 -0.000000
vn 0.000000 -1.000000 -0.000000
vn 0.000000 -1.000000 -0.000000
vn 0.000000 -0.000000 1.000000
vn 0.000000 -0.000000 1.000000
vn 0.000000 -0.000000 1.000000
vn 0.000000 -0.000000 1.000000
vn 0.000000 0.000000 -1.000000
vn 0.000000 0.000000 -1.000000
vn 0.000000 0.000000 -1.000000
vn 0.000000 0.000000 -1.000000
vn 1.000000 0.000000 0.000000
vn 1.000000 0.000000 0.000000
vn 1.000000 0.000000 0.000000
vn 1.000000 0.000000 0.000000
vn 0.000000 0.000000 -1.000000
vn 0.000000 0.000000 -1.000000
vn 0.000000 0.000000 -1.000000
vn 0.000000 0.000000 -1.000000
vn 0.000000 0.000000 -1.000000
vn 0.000000 0.000000 -1.000000
vn 0.000000 0.000000 -1.000000
vn 0.000000 0.000000 -1.000000
vn 0.000000 0.000000 -1.000000
vn 0.000000 0.000000 -1.000000
vn 0.000000 0.000000 -1.000000
vn 0.000000 0.000000 -1.000000
vn 0.000000 0.000000 -1.000000
vn 0.000000 0.000000 -1.000000
vn 0.000000 0.000000 -1.000000
vn 0.000000 0.000000 -1.000000
vn 1.000000 0.000000 0.000000
vn 1.000000 0.000000 0.000000
vn 1.000000 0.000000 0.000000
vn 1.000000 0.000000 0.000000
vn 0.000000 -0.000000 1.000000
vn 0.000000 -0.000000 1.000000
vn 0.000000 -0.000000 1.000000
vn 0.000000 -0.000000 1.000000
vn 0.000000 -0.000000 1.000000
vn 0.000000 -0.000000 1.000000
vn 0.000000 -0.000000 1.000000
vn 0.000000 -0.000000 1.000000
vn 0.000000 -0.000000 1.000000
vn 0.000000 -0.000000 1.000000
vn 0.000000 -0.000000 1.000000
vn 0.000000 -0.000000 1.000000
vn 0.000000 -0.000000 1.000000
vn 0.000000 -0.000000 1.000000
vn 0.000000 -0.000000 1.000000
vn 0.000000 -0.000000 1.000000
vn 0.000000 -0.000000 1.000000
vn 0.000000 -0.000000 1.000000
vn 0.000000 -0.000000 1.000000
vn 0.000000 -0.000000 1.000000
vn 0.000000 -0.000000 1.000000
vn 0.000000 -0.000000 1.000000
vn 0.000000 -0.000000 1.000000
vn 0.000000 -0.000000 1.000000
vn 0.000000 -0.000000 1.000000
vn 0.000000 -0.000000 1.000000
vn 0.000000 -0.000000 1.000000
vn 0.000000 -0.000000 1.000000
vn 0.000000 -0.000000 1.000000
vn 0.000000 -0.000000 1.000000
vn -1.000000 0.000000 0.000000
vn -1.000000 0.000000 0.000000
vn -1.000000 0.000000 0.000000
vn -1.000000 0.000000 0.000000
vn -1.000000 0.000000 0.000000
vn 0.000000 1.000000 0.000000
vn 0.000000 1.000000 0.000000
vn 0.000000 1.000000 0.000000
vn 0.000000 1.000000 0.000000
vn 0.000000 1.000000 0.000000
vn 0.000000 1.000000 0.000000
vn 0.000000 1.000000 0.000000
vn 0.000000 1.000000 0.000000
vn 0.000000 1.000000 0.000000
vn 0.000000 1.000000 0.000000
vn 0.000000 -1.000000 -0.000000
vn 0.000000 -1.000000 -0.000000
vn 0.000000 -1.000000 -0.000000
vn 0.000000 -1.000000 -0.000000
vn 0.000000 -1.000000 -0.000000
vn 0.000000 -1.000000 -0.000000
vn 0.000000 -1.000000 -0.000000
vn 0.000000 -1.000000 -0.000000
vn 0.000000 -1.000000 -0.000000
vn 0.000000 -1.000000 -0.000000
vn 0.000000 -1.000000 -0.000000
vn 0.000000 -1.000000 -0.000000
vn 0.000000 -1.000000 -0.000000
vn 0.000000 -1.000000 -0.000000
vn 0.000000 -1.000000 -0.000000
vn 0.000000 1.000000 0.000000
vn 0.000000 1.000000 0.000000
vn 0.000000 1.000000 0.000000
vn 0.000000 1.000000 0.000000
vn 0.000000 1.000000 0.000000
vn 0.000000 1.000000 0.000000
vn 0.000000 1.000000 0.000000
vn 0.000000 -1.000000 -0.000000
vn 0.000000 -1.000000 -0.000000
vn 0.000000 -1.000000 -0.000000
vn 0.000000 -1.000000 -0.000000
vn 0.000000 -1.000000 -0.000000
vn 0.000000 -1.000000 -0.000000
vn 0.000000 -1.000000 -0.000000
vn 0.000000 -1.000000 -0.000000
vn 0.000000 -1.000000 -0.000000
vn 0.000000 1.000000 0.000000
vn 0.000000 1.000000 0.000000
vn 0.000000 1.000000 0.000000
vn 0.000000 1.000000 0.000000
vn 0.000000 1.000000 0.000000
vn 0.000000 1.000000 0.000000
vn 0.000000 1.000000 0.000000
vn 0.000000 1.000000 0.000000
vn 0.000000 1.000000 0.000000
vn 0.000000 1.000000 0.000000
vn 0.000000 1.000000 0.000000
vn 0.000000 1.000000 0.000000
vn 0.000000 1.000000 0.000000
vn 0.000000 1.000000 0.000000
vn 0.000000 1.000000 0.000000
vn 0.000000 1.000000 0.000000
vn 0.000000 1.000000 0.000000
vn 0.000000 1.000000 0.000000
vn 0.000000 -1.000000 -0.000000
vn 0.000000 -1.000000 -0.000000
vn 0.000000 -1.000000 -0.000000
vn 0.000000 -1.000000 -0.000000
vn 0.000000 -1.000000 -0.000000
vn 0.000000 -1.000000 -0.000000
vn 0.000000 -1.000000 -0.000000
vn 0.000000 -1.000000 -0.000000
vn 0.000000 -1.000000 -0.000000
f 3/3/3 2/2/2 1/1/1
f 5/5/5 4/4/4 2/2/2
f 7/7/7 5/5/5 6/6/6
f 7/7/7 9/9/9 8/8/8
f 10/10/10 8/8/8 9/9/9
f 13/13/13 12/12/12 11/11/11
f 16/16/16 15/15/15 14/14/14
f 19/19/19 18/18/18 17/17/17
f 22/22/22 21/21/21 20/20/20
f 24/24/24 23/23/23 21/21/21
f 24/24/24 26/26/26 25/25/25
f 27/27/27 25/25/25 26/26/26
f 26/26/26 24/24/24 28/28/28
f 30/30/30 28/28/28 29/29/29
f 31/31/31 30/30/30 29/29/29
f 31/31/31 29/29/29 32/32/32
f 30/30/30 31/31/31 33/33/33
f 31/31/31 32/32/32 34/34/34
f 35/35/35 34/34/34 32/32/32
f 36/36/36 33/33/33 31/31/31
f 37/37/37 33/33/33 36/36/36
f 37/37/37 36/36/36 38/38/38
f 41/41/41 40/40/40 39/39/39
f 41/41/41 43/43/43 42/42/42
f 43/43/43 45/45/45 44/44/44
f 44/44/44 47/47/47 46/46/46
f 50/50/50 49/49/49 48/48/48
f 52/52/52 51/51/51 49/49/49
f 53/53/53 51/51/51 52/52/52
f 54/54/54 53/53/53 52/52/52
f 57/57/57 56/56/56 55/55/55
f 57/57/57 59/59/59 58/58/58
f 60/60/60 58/58/58 59/59/59
f 63/63/63 62/62/62 61/61/61
f 62/62/62 65/65/65 64/64/64
f 65/65/65 66/66/66 64/64/64
f 67/67/67 66/66/66 65/65/65
f 66/66/66 68/68/68 64/64/64
f 69/69/69 68/68/68 66/66/66
f 71/71/71 64/64/64 70/70/70
f 72/72/72 71/71/71 70/70/70
f 75/75/75 74/74/74 73/73/73
f 77/77/77 76/76/76 74/74/74
f 77/77/77 78/78/78 76/76/76
f 79/79/79 78/78/78 77/77/77
f 76/76/76 78/78/78 80/80/80
f 82/82/82 80/80/80 81/81/81
f 85/85/85 84/84/84 83/83/83
f 88/88/88 87/87/87 86/86/86
f 91/91/91 90/90/90 89/89/89
f 94/94/94 93/93/93 92/92/92
f 94/94/94 92/92/92 95/95/95
f 98/98/98 97/97/97 96/96/96
f 96/96/96 97/97/97 99/99/99
f 102/102/102 101/101/101 100/100/100
f 100/100/100 101/101/101 103/103/103
f 106/106/106 105/105/105 104/104/104
f 104/104/104 105/105/105 107/107/107
f 110/110/110 109/109/109 108/108/108
f 108/108/108 109/109/109 111/111/111
f 114/114/114 113/113/113 112/112/112
f 112/112/112 113/113/113 115/115/115
f 118/118/118 117/117/117 116/116/116
f 116/116/116 117/117/117 119/119/119
f 122/122/122 121/121/121 120/120/120
f 120/120/120 121/121/121 123/123/123
f 126/126/126 125/125/125 124/124/124
f 124/124/124 125/125/125 127/127/127
f 130/130/130 129/129/129 128/128/128
f 128/128/128 129/129/129 131/131/131
f 134/134/134 133/133/133 132/132/132
f 132/132/132 133/133/133 135/135/135
f 138/138/138 137/137/137 136/136/136
f 136/136/136 137/137/137 139/139/139
f 142/142/142 141/141/141 140/140/140
f 140/140/140 141/141/141 143/143/143
f 146/146/146 145/145/145 144/144/144
f 144/144/144 145/145/145 147/147/147
f 150/150/150 149/149/149 148/148/148
f 148/148/148 149/149/149 151/151/151
f 154/154/154 153/153/153 152/152/152
f 152/152/152 153/153/153 155/155/155
f 158/158/158 157/157/157 156/156/156
f 159/159/159 156/156/156 157/157/157
f 159/159/159 157/157/157 160/160/160
f 161/161/161 159/159/159 160/160/160
f 162/162/162 159/159/159 161/161/161
f 165/165/165 164/164/164 163/163/163
f 163/163/163 164/164/164 166/166/166
f 169/169/169 168/168/168 167/167/167
f 167/167/167 168/168/168 170/170/170
f 173/173/173 172/172/172 171/171/171
f 171/171/171 172/172/172 174/174/174
f 177/177/177 176/176/176 175/175/175
f 175/175/175 176/176/176 178/178/178
f 181/181/181 180/180/180 179/179/179
f 179/179/179 180/180/180 182/182/182
f 185/185/185 184/184/184 183/183/183
f 186/186/186 183/183/183 184/184/184
f 183/183/183 186/186/186 187/187/187
f 190/190/190 189/189/189 188/188/188
f 188/188/188 189/189/189 191/191/191
f 194/194/194 193/193/193 192/192/192
f 192/192/192 193/193/193 195/195/195
f 198/198/198 197/197/197 196/196/196
f 197/197/197 198/198/198 199/199/199
f 202/202/202 201/201/201 200/200/200
f 200/200/200 201/201/201 203/203/203
f 206/206/206 205/205/205 204/204/204
f 204/204/204 205/205/205 207/207/207
f 210/210/210 209/209/209 208/208/208
f 208/208/208 209/209/209 211/211/211
f 214/214/214 213/213/213 212/212/212
f 212/212/212 213/213/213 215/215/215
f 218/218/218 217/217/217 216/216/216
f 216/216/216 217/217/217 219/219/219
f 222/222/222 221/221/221 220/220/220
f 223/223/223 220/220/220 221/221/221
f 226/226/226 225/225/225 224/224/224
f 225/225/225 227/227/227 224/224/224
f 228/228/228 224/224/224 227/227/227
f 229/229/229 224/224/224 228/228/228
f 230/230/230 229/229/229 228/228/228
f 229/229/229 230/230/230 231/231/231
f 231/231/231 233/233/233 232/232/232
f 229/229/229 233/233/233 234/234/234
f 237/237/237 236/236/236 235/235/235
f 235/235/235 236/236/236 238/238/238
f 239/239/239 238/238/238 236/236/236
f 238/238/238 239/239/239 240/240/240
f 240/240/240 239/239/239 241/241/241
f 239/239/239 242/242/242 241/241/241
f 242/242/242 243/243/243 241/241/241
f 244/244/244 243/243/243 242/242/242
f 245/245/245 244/244/244 242/242/242
f 246/246/246 241/241/241 243/243/243
f 247/247/247 241/241/241 246/246/246
f 248/248/248 241/241/241 247/247/247
f 246/246/246 243/243/243 249/249/249
f 250/250/250 249/249/249 243/243/243
f 249/249/249 250/250/250 251/251/251
f 252/252/252 251/251/251 250/250/250
f 253/253/253 251/251/251 252/252/252
f 256/256/256 255/255/255 254/254/254
f 255/255/255 257/257/257 254/254/254
f 258/258/258 257/257/257 255/255/255
f 261/261/261 260/260/260 259/259/259
f 262/262/262 259/259/259 260/260/260
f 263/263/263 259/259/259 262/262/262
f 265/265/265 260/260/260 264/264/264
f 267/267/267 264/264/264 266/266/266
f 265/265/265 268/268/268 267/267/267
f 271/271/271 270/270/270 269/269/269
f 271/271/271 272/272/272 270/270/270
f 272/272/272 274/274/274 273/273/273
f 274/274/274 275/275/275 273/273/273
f 278/278/278 277/277/277 276/276/276
f 278/278/278 279/279/279 277/277/277
f 282/282/282 281/281/281 280/280/280
f 283/283/283 280/280/280 281/281/281
f 286/286/286 285/285/285 284/284/284
f 285/285/285 286/286/286 287/287/287
f 289/289/289 288/288/288 287/287/287
f 289/289/289 290/290/290 288/288/288
f 293/293/293 292/292/292 291/291/291
f 294/294/294 292/292/292 293/293/293
f 295/295/295 292/292/292 294/294/294
f 296/296/296 295/295/295 294/294/294
f 295/295/295 298/298/298 297/297/297
f 298/298/298 299/299/299 297/297/297
f 302/302/302 301/301/301 300/300/300
f 300/300/300 303/303/303 302/302/302
f 302/302/302 303/303/303 304/304/304
f 303/303/303 305/305/305 304/304/304
f 303/303/303 306/306/306 305/305/305
f 300/300/300 308/308/308 307/307/307
f 306/306/306 307/307/307 309/309/309
f 311/311/311 309/309/309 310/310/310
f 312/312/312 309/309/309 311/311/311
f 312/312/312 311/311/311 313/313/313
f 311/311/311 314/314/314 313/313/313
f 313/313/313 314/314/314 315/315/315
f 314/314/314 316/316/316 315/315/315
f 316/316/316 314/314/314 317/317/317
f 320/320/320 319/319/319 318/318/318
f 321/321/321 319/319/319 320/320/320
f 322/322/322 319/319/319 321/321/321
f 323/323/323 319/319/319 322/322/322
f 324/324/324 323/323/323 322/322/322
f 324/324/324 325/325/325 323/323/323
f 323/323/323 325/325/325 326/326/326
