g Model_0
v 0.5 0.5 2
v 0.5 0 2
v -0.5 0 2
v -0.5 0.5 2
v 0.5 0.75 1.12
v 0.5 0 2
v 0.5 0.5 2
v 0.5 0 1.12
v 0.5 0.75 0
v 0.5 0 0
v 0.5 0 1.12
v -0.5 0 2
v 0.5 0 2
v -0.5 0 1.12
v 0.5 0 0
v -0.5 0 0
v -0.5 0 1.12
v -0.5 0.5 2
v -0.5 0 2
v -0.5 0.75 1.12
v -0.5 0 0
v -0.5 0.75 0
v 0.5 0.75 1.12
v -0.5 0.75 0
v 0.5 0.75 0
v -0.5 0.75 1.12
v 0.5 0.5 2
v -0.5 0.5 2
v -0.108171001 0.580640972 1.82661402
v -0.108171001 0.484349012 1.79963505
v -0.109586999 0.619243026 1.31817698
v -0.109586999 0.715534985 1.34515595
v -0.109586999 0.715534985 1.34515595
v -0.109586999 0.619243026 1.31817698
v 0.431037992 0.619596004 1.31691599
v 0.431037992 0.715888023 1.34389496
v 0.431037992 0.715888023 1.34389496
v 0.431037992 0.619596004 1.31691599
v 0.43245399 0.484703004 1.79837501
v 0.43245399 0.58099401 1.82535398
v 0.43245399 0.58099401 1.82535398
v 0.43245399 0.484703004 1.79837501
v -0.108171001 0.484349012 1.79963505
v -0.108171001 0.580640972 1.82661402
v 0.43245399 0.58099401 1.82535398
v -0.108171001 0.580640972 1.82661402
v -0.109586999 0.715534985 1.34515595
v 0.431037992 0.715888023 1.34389496
v -0.41345799 0.661221981 1.56598902
v -0.41345799 0.584792018 1.54235804
v -0.41345799 0.608422995 1.46592796
v -0.41345799 0.684853017 1.48955905
v -0.41345799 0.684853017 1.48955905
v -0.41345799 0.608422995 1.46592796
v -0.333458006 0.608422995 1.46592796
v -0.333458006 0.684853017 1.48955905
v -0.333458006 0.684853017 1.48955905
v -0.333458006 0.608422995 1.46592796
v -0.333458006 0.584792018 1.54235804
v -0.333458006 0.661221981 1.56598902
v -0.333458006 0.661221981 1.56598902
v -0.333458006 0.584792018 1.54235804
v -0.41345799 0.584792018 1.54235804
v -0.41345799 0.661221981 1.56598902
v -0.333458006 0.661221981 1.56598902
v -0.41345799 0.661221981 1.56598902
v -0.41345799 0.684853017 1.48955905
v -0.333458006 0.684853017 1.48955905
v -0.266943008 0.661221981 1.56598902
v -0.266943008 0.584792018 1.54235804
v -0.266943008 0.608422995 1.46592796
v -0.266943008 0.684853017 1.48955905
v -0.266943008 0.684853017 1.48955905
v -0.266943008 0.608422995 1.46592796
v -0.186942995 0.608422995 1.46592796
v -0.186942995 0.684853017 1.48955905
v -0.186942995 0.684853017 1.48955905
v -0.186942995 0.608422995 1.46592796
v -0.186942995 0.584792018 1.54235804
v -0.186942995 0.661221981 1.56598902
v -0.186942995 0.661221981 1.56598902
v -0.186942995 0.584792018 1.54235804
v -0.266943008 0.584792018 1.54235804
v -0.266943008 0.661221981 1.56598902
v -0.186942995 0.661221981 1.56598902
v -0.266943008 0.661221981 1.56598902
v -0.266943008 0.684853017 1.48955905
v -0.186942995 0.684853017 1.48955905
v -0.41345799 0.691904008 1.42158604
v -0.41345799 0.615473986 1.39795494
v -0.41345799 0.639105022 1.32152498
v -0.41345799 0.715534985 1.34515595
v -0.41345799 0.715534985 1.34515595
v -0.41345799 0.639105022 1.32152498
v -0.333458006 0.639105022 1.32152498
v -0.333458006 0.715534985 1.34515595
v -0.333458006 0.715534985 1.34515595
v -0.333458006 0.639105022 1.32152498
v -0.333458006 0.615473986 1.39795494
v -0.333458006 0.691904008 1.42158604
v -0.333458006 0.691904008 1.42158604
v -0.333458006 0.615473986 1.39795494
v -0.41345799 0.615473986 1.39795494
v -0.41345799 0.691904008 1.42158604
v -0.333458006 0.691904008 1.42158604
v -0.41345799 0.691904008 1.42158604
v -0.41345799 0.715534985 1.34515595
v -0.333458006 0.715534985 1.34515595
v -0.266943008 0.691904008 1.42158604
v -0.266943008 0.615473986 1.39795494
v -0.266943008 0.639105022 1.32152498
v -0.266943008 0.715534985 1.34515595
v -0.266943008 0.715534985 1.34515595
v -0.266943008 0.639105022 1.32152498
v -0.186942995 0.639105022 1.32152498
v -0.186942995 0.715534985 1.34515595
v -0.186942995 0.715534985 1.34515595
v -0.186942995 0.639105022 1.32152498
v -0.186942995 0.615473986 1.39795494
v -0.186942995 0.691904008 1.42158604
v -0.186942995 0.691904008 1.42158604
v -0.186942995 0.615473986 1.39795494
v -0.266943008 0.615473986 1.39795494
v -0.266943008 0.691904008 1.42158604
v -0.186942995 0.691904008 1.42158604
v -0.266943008 0.691904008 1.42158604
v -0.266943008 0.715534985 1.34515595
v -0.186942995 0.715534985 1.34515595
v -0.41345799 0.580640972 1.82661402
v -0.41345799 0.504211009 1.80298305
v -0.41345799 0.527841985 1.72655296
v -0.41345799 0.604272008 1.75018406
v -0.41345799 0.604272008 1.75018406
v -0.41345799 0.527841985 1.72655296
v -0.333458006 0.527841985 1.72655296
v -0.333458006 0.604272008 1.75018406
v -0.333458006 0.604272008 1.75018406
v -0.333458006 0.527841985 1.72655296
v -0.333458006 0.504211009 1.80298305
v -0.333458006 0.580640972 1.82661402
v -0.333458006 0.580640972 1.82661402
v -0.333458006 0.504211009 1.80298305
v -0.41345799 0.504211009 1.80298305
v -0.41345799 0.580640972 1.82661402
v -0.333458006 0.580640972 1.82661402
v -0.41345799 0.580640972 1.82661402
v -0.41345799 0.604272008 1.75018406
v -0.333458006 0.604272008 1.75018406
v -0.266943008 0.580640972 1.82661402
v -0.266943008 0.504211009 1.80298305
v -0.266943008 0.527841985 1.72655296
v -0.266943008 0.604272008 1.75018406
v -0.266943008 0.604272008 1.75018406
v -0.266943008 0.527841985 1.72655296
v -0.186942995 0.527841985 1.72655296
v -0.186942995 0.604272008 1.75018406
v -0.186942995 0.604272008 1.75018406
v -0.186942995 0.527841985 1.72655296
v -0.186942995 0.504211009 1.80298305
v -0.186942995 0.580640972 1.82661402
v -0.186942995 0.580640972 1.82661402
v -0.186942995 0.504211009 1.80298305
v -0.266943008 0.504211009 1.80298305
v -0.266943008 0.580640972 1.82661402
v -0.186942995 0.580640972 1.82661402
v -0.266943008 0.580640972 1.82661402
v -0.266943008 0.604272008 1.75018406
v -0.186942995 0.604272008 1.75018406
v -0.41345799 0.620190978 1.698699
v -0.41345799 0.543760002 1.67506802
v -0.41345799 0.567390978 1.59863806
v -0.41345799 0.643821001 1.62226903
v -0.41345799 0.643821001 1.62226903
v -0.41345799 0.567390978 1.59863806
v -0.333458006 0.567390978 1.59863806
v -0.333458006 0.643821001 1.62226903
v -0.333458006 0.643821001 1.62226903
v -0.333458006 0.567390978 1.59863806
v -0.333458006 0.543760002 1.67506802
v -0.333458006 0.620190978 1.698699
v -0.333458006 0.620190978 1.698699
v -0.333458006 0.543760002 1.67506802
v -0.41345799 0.543760002 1.67506802
v -0.41345799 0.620190978 1.698699
v -0.333458006 0.620190978 1.698699
v -0.41345799 0.620190978 1.698699
v -0.41345799 0.643821001 1.62226903
v -0.333458006 0.643821001 1.62226903
v -0.266943008 0.620190978 1.698699
v -0.266943008 0.543760002 1.67506802
v -0.266943008 0.567390978 1.59863806
v -0.266943008 0.643821001 1.62226903
v -0.266943008 0.643821001 1.62226903
v -0.266943008 0.567390978 1.59863806
v -0.186942995 0.567390978 1.59863806
v -0.186942995 0.643821001 1.62226903
v -0.186942995 0.643821001 1.62226903
v -0.186942995 0.567390978 1.59863806
v -0.186942995 0.543760002 1.67506802
v -0.186942995 0.620190978 1.698699
v -0.186942995 0.620190978 1.698699
v -0.186942995 0.543760002 1.67506802
v -0.266943008 0.543760002 1.67506802
v -0.266943008 0.620190978 1.698699
v -0.186942995 0.620190978 1.698699
v -0.266943008 0.620190978 1.698699
v -0.266943008 0.643821001 1.62226903
v -0.186942995 0.643821001 1.62226903
vt 0.222819999 0.738678992
vt 0.244345993 0.738677025
vt 0.244345993 0.686506987
vt 0.222819999 0.686508
vt 0.277826011 0.628351986
vt 0.311304986 0.582441986
vt 0.288985014 0.582441986
vt 0.311304986 0.628351986
vt 0.277826011 0.686783016
vt 0.311304986 0.686783016
vt 0.155067995 0.628351986
vt 0.199707001 0.582441986
vt 0.155067995 0.582441986
vt 0.199707001 0.628351986
vt 0.155067995 0.686783016
vt 0.199707001 0.686783016
vt 0.277826011 0.640873015
vt 0.255506009 0.686783016
vt 0.277826011 0.686783016
vt 0.244345993 0.640873015
vt 0.277826011 0.582441986
vt 0.244345993 0.582441986
vt 0.244345993 0.630167007
vt 0.199707001 0.686506987
vt 0.244345993 0.686506987
vt 0.199707001 0.630167007
vt 0.244345993 0.582441986
vt 0.199707001 0.582441986
vt 0.833864987 0.403553009
vt 0.838329017 0.403553993
vt 0.838329017 0.37746799
vt 0.833864987 0.37746799
vt 0.829401016 0.37746799
vt 0.824939013 0.37746799
vt 0.824939013 0.405672997
vt 0.829401016 0.405672997
vt 0.833864987 0.37746799
vt 0.829401016 0.37746799
vt 0.829401016 0.403553993
vt 0.833864987 0.403553993
vt 0.820474982 0.405672997
vt 0.824939013 0.405672997
vt 0.824939013 0.37746799
vt 0.820474982 0.37746799
vt 0.775835991 0.377191991
vt 0.775835991 0.405396998
vt 0.79815501 0.405407012
vt 0.79815501 0.377202004
vt 0.272845 0.170947999
vt 0.276416004 0.170947999
vt 0.276416004 0.166774005
vt 0.272845 0.166774005
vt 0.249632001 0.170947999
vt 0.253203988 0.170947999
vt 0.253203988 0.166774005
vt 0.249632001 0.166774005
vt 0.276416004 0.170947999
vt 0.279987007 0.170947999
vt 0.279987007 0.166774005
vt 0.276416004 0.166774005
vt 0.238919005 0.175121993
vt 0.242487997 0.175121993
vt 0.242487997 0.170947999
vt 0.238919005 0.170947999
vt 0.253203988 0.170947999
vt 0.253203988 0.175121993
vt 0.256772995 0.175121993
vt 0.256772995 0.170947999
vt 0.265702993 0.166774005
vt 0.269273996 0.166774005
vt 0.269273996 0.162600994
vt 0.265702993 0.162600994
vt 0.246060997 0.166774005
vt 0.242489994 0.166774005
vt 0.242489994 0.170947999
vt 0.246060997 0.170947999
vt 0.242489994 0.162600994
vt 0.238919005 0.162600994
vt 0.238919005 0.166774005
vt 0.242489994 0.166774005
vt 0.272845 0.175121993
vt 0.276414007 0.175121993
vt 0.276414007 0.170947999
vt 0.272845 0.170947999
vt 0.276418 0.170947999
vt 0.276418 0.175121993
vt 0.279987007 0.175121993
vt 0.279987007 0.170947999
vt 0.269273996 0.166774005
vt 0.272845 0.166774005
vt 0.272845 0.162600994
vt 0.269273996 0.162600994
vt 0.265702993 0.166774005
vt 0.262131006 0.166774005
vt 0.262131006 0.170947999
vt 0.265702993 0.170947999
vt 0.258560002 0.166774005
vt 0.262131006 0.166774005
vt 0.262131006 0.162600994
vt 0.258560002 0.162600994
vt 0.276418 0.179295003
vt 0.279987007 0.179295003
vt 0.279987007 0.175121993
vt 0.276418 0.175121993
vt 0.265702993 0.170947999
vt 0.265702993 0.175121993
vt 0.269272 0.175121993
vt 0.269272 0.170947999
vt 0.276416004 0.166774005
vt 0.279987007 0.166774005
vt 0.279987007 0.162600994
vt 0.276416004 0.162600994
vt 0.235348001 0.170947999
vt 0.238919005 0.170947999
vt 0.238919005 0.166774005
vt 0.235348001 0.166774005
vt 0.242489994 0.166774005
vt 0.246060997 0.166774005
vt 0.246060997 0.162600994
vt 0.242489994 0.162600994
vt 0.249631003 0.175121993
vt 0.246060997 0.175121993
vt 0.246060997 0.179295003
vt 0.249631003 0.179295003
vt 0.235349998 0.170947999
vt 0.235349998 0.175121993
vt 0.238919005 0.175121993
vt 0.238919005 0.170947999
vt 0.272845 0.166774005
vt 0.276416004 0.166774005
vt 0.276416004 0.162600994
vt 0.272845 0.162600994
vt 0.256774992 0.166774005
vt 0.253203988 0.166774005
vt 0.253203988 0.170947999
vt 0.256774992 0.170947999
vt 0.256774992 0.162600994
vt 0.253203988 0.162600994
vt 0.253203988 0.166774005
vt 0.256774992 0.166774005
vt 0.249631003 0.179295003
vt 0.253199995 0.179295003
vt 0.253199995 0.175121993
vt 0.249631003 0.175121993
vt 0.269273996 0.170947999
vt 0.269273996 0.175121993
vt 0.272843003 0.175121993
vt 0.272843003 0.170947999
vt 0.262131006 0.162600994
vt 0.262131006 0.166774005
vt 0.265702993 0.166774005
vt 0.265702993 0.162600994
vt 0.262131006 0.166774005
vt 0.258560002 0.166774005
vt 0.258560002 0.170947999
vt 0.262131006 0.170947999
vt 0.269273996 0.170947999
vt 0.269273996 0.166774005
vt 0.265702993 0.166774005
vt 0.265702993 0.170947999
vt 0.242492005 0.179295003
vt 0.246060997 0.179295003
vt 0.246060997 0.175121993
vt 0.242492005 0.175121993
vt 0.249632001 0.170947999
vt 0.249632001 0.175121993
vt 0.253201991 0.175121993
vt 0.253201991 0.170947999
vt 0.249632001 0.162600994
vt 0.249632001 0.166774005
vt 0.253203988 0.166774005
vt 0.253203988 0.162600994
vt 0.249632001 0.166774005
vt 0.246060997 0.166774005
vt 0.246060997 0.170947999
vt 0.249632001 0.170947999
vt 0.238919005 0.162600994
vt 0.235348001 0.162600994
vt 0.235348001 0.166774005
vt 0.238919005 0.166774005
vt 0.265702993 0.170947999
vt 0.262133002 0.170947999
vt 0.262133002 0.175121993
vt 0.265702993 0.175121993
vt 0.246060997 0.175121993
vt 0.246060997 0.170947999
vt 0.242492005 0.170947999
vt 0.242492005 0.175121993
vt 0.249632001 0.162600994
vt 0.246060997 0.162600994
vt 0.246060997 0.166774005
vt 0.249632001 0.166774005
vt 0.238919005 0.170947999
vt 0.242489994 0.170947999
vt 0.242489994 0.166774005
vt 0.238919005 0.166774005
vt 0.269273996 0.170947999
vt 0.272845 0.170947999
vt 0.272845 0.166774005
vt 0.269273996 0.166774005
vt 0.256774992 0.175121993
vt 0.260343999 0.175121993
vt 0.260343999 0.170947999
vt 0.256774992 0.170947999
vt 0.246060997 0.170947999
vt 0.246060997 0.175121993
vt 0.249631003 0.175121993
vt 0.249631003 0.170947999
vn -0 0 1
vn -0 0 1
vn -0 0 1
vn -0 0 1
vn 1 0 0
vn 1 0 0
vn 1 0 0
vn 1 0 0
vn 1 0 0
vn 1 0 0
vn -0 -1 0
vn -0 -1 0
vn -0 -1 0
vn -0 -1 0
vn -0 -1 0
vn -0 -1 0
vn -1 0 0
vn -1 0 0
vn -1 0 0
vn -1 0 0
vn -1 0 0
vn -1 0 0
vn -0 0.990438163 0.137957677
vn -0 1 0
vn -0 1 0
vn -0 0.990438163 0.137957677
vn -0 0.961935341 0.273277074
vn -0 0.961935341 0.273277074
vn -0.999996066 -0.000764042488 0.00272698188
vn -0.999996066 -0.000764042488 0.00272698188
vn -0.999996066 -0.000764042488 0.00272698188
vn -0.999996066 -0.000764042488 0.00272698188
vn -0.00242214301 0.269788742 -0.962916493
vn -0.00242214301 0.269788742 -0.962916493
vn -0.00242214301 0.269788742 -0.962916493
vn -0.00242214301 0.269788742 -0.962916493
vn 0.999996066 0.000764044526 -0.00272697653
vn 0.999996066 0.000764044526 -0.00272697653
vn 0.999996066 0.000764044526 -0.00272697653
vn 0.999996066 0.000764044526 -0.00272697653
vn 0.00242069899 -0.269790024 0.962916076
vn 0.00242069899 -0.269790024 0.962916076
vn 0.00242069899 -0.269790024 0.962916076
vn 0.00242069899 -0.269790024 0.962916076
vn -0 0.962919593 0.269788712
vn -0 0.962919593 0.269788712
vn -0 0.962919593 0.269788712
vn -0 0.962919593 0.269788712
vn -1 0 0
vn -1 0 0
vn -1 0 0
vn -1 0 0
vn -0 0.295389235 -0.955377042
vn -0 0.295389235 -0.955377042
vn -0 0.295389235 -0.955377042
vn -0 0.295389235 -0.955377042
vn 1 0 0
vn 1 0 0
vn 1 0 0
vn 1 0 0
vn -0 -0.295388103 0.9553774
vn -0 -0.295388103 0.9553774
vn -0 -0.295388103 0.9553774
vn -0 -0.295388103 0.9553774
vn -0 0.955377162 0.295388758
vn -0 0.955377162 0.295388758
vn -0 0.955377162 0.295388758
vn -0 0.955377162 0.295388758
vn -1 0 0
vn -1 0 0
vn -1 0 0
vn -1 0 0
vn -0 0.295389235 -0.955377042
vn -0 0.295389235 -0.955377042
vn -0 0.295389235 -0.955377042
vn -0 0.295389235 -0.955377042
vn 1 0 0
vn 1 0 0
vn 1 0 0
vn 1 0 0
vn -0 -0.295388073 0.9553774
vn -0 -0.295388073 0.9553774
vn -0 -0.295388073 0.9553774
vn -0 -0.295388073 0.9553774
vn -0 0.955377162 0.295388758
vn -0 0.955377162 0.295388758
vn -0 0.955377162 0.295388758
vn -0 0.955377162 0.295388758
vn -1 0 0
vn -1 0 0
vn -1 0 0
vn -1 0 0
vn -0 0.295388103 -0.9553774
vn -0 0.295388103 -0.9553774
vn -0 0.295388103 -0.9553774
vn -0 0.295388103 -0.9553774
vn 1 0 0
vn 1 0 0
vn 1 0 0
vn 1 0 0
vn -0 -0.295389235 0.955377042
vn -0 -0.295389235 0.955377042
vn -0 -0.295389235 0.955377042
vn -0 -0.295389235 0.955377042
vn -0 0.955377519 0.295387685
vn -0 0.955377519 0.295387685
vn -0 0.955377519 0.295387685
vn -0 0.955377519 0.295387685
vn -1 0 0
vn -1 0 0
vn -1 0 0
vn -1 0 0
vn -0 0.295388073 -0.9553774
vn -0 0.295388073 -0.9553774
vn -0 0.295388073 -0.9553774
vn -0 0.295388073 -0.9553774
vn 1 0 0
vn 1 0 0
vn 1 0 0
vn 1 0 0
vn -0 -0.295389235 0.955377042
vn -0 -0.295389235 0.955377042
vn -0 -0.295389235 0.955377042
vn -0 -0.295389235 0.955377042
vn -0 0.955377519 0.295387685
vn -0 0.955377519 0.295387685
vn -0 0.955377519 0.295387685
vn -0 0.955377519 0.295387685
vn -1 0 0
vn -1 0 0
vn -1 0 0
vn -1 0 0
vn -0 0.295389235 -0.955377042
vn -0 0.295389235 -0.955377042
vn -0 0.295389235 -0.955377042
vn -0 0.295389235 -0.955377042
vn 1 0 0
vn 1 0 0
vn 1 0 0
vn 1 0 0
vn -0 -0.295388103 0.9553774
vn -0 -0.295388103 0.9553774
vn -0 -0.295388103 0.9553774
vn -0 -0.295388103 0.9553774
vn -0 0.955377162 0.295388758
vn -0 0.955377162 0.295388758
vn -0 0.955377162 0.295388758
vn -0 0.955377162 0.295388758
vn -1 0 0
vn -1 0 0
vn -1 0 0
vn -1 0 0
vn -0 0.295389235 -0.955377042
vn -0 0.295389235 -0.955377042
vn -0 0.295389235 -0.955377042
vn -0 0.295389235 -0.955377042
vn 1 0 0
vn 1 0 0
vn 1 0 0
vn 1 0 0
vn -0 -0.295388073 0.9553774
vn -0 -0.295388073 0.9553774
vn -0 -0.295388073 0.9553774
vn -0 -0.295388073 0.9553774
vn -0 0.955377162 0.295388758
vn -0 0.955377162 0.295388758
vn -0 0.955377162 0.295388758
vn -0 0.955377162 0.295388758
vn -1 0 0
vn -1 0 0
vn -1 0 0
vn -1 0 0
vn -0 0.295387864 -0.9553774
vn -0 0.295387864 -0.9553774
vn -0 0.295387864 -0.9553774
vn -0 0.295387864 -0.9553774
vn 1 0 0
vn 1 0 0
vn 1 0 0
vn 1 0 0
vn -0 -0.295384496 0.955378473
vn -0 -0.295384496 0.955378473
vn -0 -0.295384496 0.955378473
vn -0 -0.295384496 0.955378473
vn -0 0.955380738 0.295377195
vn -0 0.955380738 0.295377195
vn -0 0.955380738 0.295377195
vn -0 0.955380738 0.295377195
vn -1 0 0
vn -1 0 0
vn -1 0 0
vn -1 0 0
vn -0 0.295387834 -0.9553774
vn -0 0.295387834 -0.9553774
vn -0 0.295387834 -0.9553774
vn -0 0.295387834 -0.9553774
vn 1 0 0
vn 1 0 0
vn 1 0 0
vn 1 0 0
vn -0 -0.295384496 0.955378473
vn -0 -0.295384496 0.955378473
vn -0 -0.295384496 0.955378473
vn -0 -0.295384496 0.955378473
vn -0 0.955380738 0.295377195
vn -0 0.955380738 0.295377195
vn -0 0.955380738 0.295377195
vn -0 0.955380738 0.295377195
g Model_0_0
f 3/3/3 2/2/2 1/1/1
f 4/4/4 3/3/3 1/1/1
f 7/7/7 6/6/6 5/5/5
f 6/6/6 8/8/8 5/5/5
f 5/5/5 8/8/8 9/9/9
f 8/8/8 10/10/10 9/9/9
f 13/13/13 12/12/12 11/11/11
f 12/12/12 14/14/14 11/11/11
f 11/11/11 14/14/14 15/15/15
f 14/14/14 16/16/16 15/15/15
f 19/19/19 18/18/18 17/17/17
f 18/18/18 20/20/20 17/17/17
f 17/17/17 20/20/20 21/21/21
f 20/20/20 22/22/22 21/21/21
f 25/25/25 24/24/24 23/23/23
f 24/24/24 26/26/26 23/23/23
f 23/23/23 26/26/26 27/27/27
f 26/26/26 28/28/28 27/27/27
f 31/31/31 30/30/30 29/29/29
f 32/32/32 31/31/31 29/29/29
f 35/35/35 34/34/34 33/33/33
f 36/36/36 35/35/35 33/33/33
f 39/39/39 38/38/38 37/37/37
f 40/40/40 39/39/39 37/37/37
f 43/43/43 42/42/42 41/41/41
f 44/44/44 43/43/43 41/41/41
f 47/47/47 46/46/46 45/45/45
f 48/48/48 47/47/47 45/45/45
f 51/51/51 50/50/50 49/49/49
f 52/52/52 51/51/51 49/49/49
f 55/55/55 54/54/54 53/53/53
f 56/56/56 55/55/55 53/53/53
f 59/59/59 58/58/58 57/57/57
f 60/60/60 59/59/59 57/57/57
f 63/63/63 62/62/62 61/61/61
f 64/64/64 63/63/63 61/61/61
f 67/67/67 66/66/66 65/65/65
f 68/68/68 67/67/67 65/65/65
f 71/71/71 70/70/70 69/69/69
f 72/72/72 71/71/71 69/69/69
f 75/75/75 74/74/74 73/73/73
f 76/76/76 75/75/75 73/73/73
f 79/79/79 78/78/78 77/77/77
f 80/80/80 79/79/79 77/77/77
f 83/83/83 82/82/82 81/81/81
f 84/84/84 83/83/83 81/81/81
f 87/87/87 86/86/86 85/85/85
f 88/88/88 87/87/87 85/85/85
f 91/91/91 90/90/90 89/89/89
f 92/92/92 91/91/91 89/89/89
f 95/95/95 94/94/94 93/93/93
f 96/96/96 95/95/95 93/93/93
f 99/99/99 98/98/98 97/97/97
f 100/100/100 99/99/99 97/97/97
f 103/103/103 102/102/102 101/101/101
f 104/104/104 103/103/103 101/101/101
f 107/107/107 106/106/106 105/105/105
f 108/108/108 107/107/107 105/105/105
f 111/111/111 110/110/110 109/109/109
f 112/112/112 111/111/111 109/109/109
f 115/115/115 114/114/114 113/113/113
f 116/116/116 115/115/115 113/113/113
f 119/119/119 118/118/118 117/117/117
f 120/120/120 119/119/119 117/117/117
f 123/123/123 122/122/122 121/121/121
f 124/124/124 123/123/123 121/121/121
f 127/127/127 126/126/126 125/125/125
f 128/128/128 127/127/127 125/125/125
f 131/131/131 130/130/130 129/129/129
f 132/132/132 131/131/131 129/129/129
f 135/135/135 134/134/134 133/133/133
f 136/136/136 135/135/135 133/133/133
f 139/139/139 138/138/138 137/137/137
f 140/140/140 139/139/139 137/137/137
f 143/143/143 142/142/142 141/141/141
f 144/144/144 143/143/143 141/141/141
f 147/147/147 146/146/146 145/145/145
f 148/148/148 147/147/147 145/145/145
f 151/151/151 150/150/150 149/149/149
f 152/152/152 151/151/151 149/149/149
f 155/155/155 154/154/154 153/153/153
f 156/156/156 155/155/155 153/153/153
f 159/159/159 158/158/158 157/157/157
f 160/160/160 159/159/159 157/157/157
f 163/163/163 162/162/162 161/161/161
f 164/164/164 163/163/163 161/161/161
f 167/167/167 166/166/166 165/165/165
f 168/168/168 167/167/167 165/165/165
f 171/171/171 170/170/170 169/169/169
f 172/172/172 171/171/171 169/169/169
f 175/175/175 174/174/174 173/173/173
f 176/176/176 175/175/175 173/173/173
f 179/179/179 178/178/178 177/177/177
f 180/180/180 179/179/179 177/177/177
f 183/183/183 182/182/182 181/181/181
f 184/184/184 183/183/183 181/181/181
f 187/187/187 186/186/186 185/185/185
f 188/188/188 187/187/187 185/185/185
f 191/191/191 190/190/190 189/189/189
f 192/192/192 191/191/191 189/189/189
f 195/195/195 194/194/194 193/193/193
f 196/196/196 195/195/195 193/193/193
f 199/199/199 198/198/198 197/197/197
f 200/200/200 199/199/199 197/197/197
f 203/203/203 202/202/202 201/201/201
f 204/204/204 203/203/203 201/201/201
f 207/207/207 206/206/206 205/205/205
f 208/208/208 207/207/207 205/205/205
