v 11.000000 1.249996 -0.000000
v 10.500000 1.249996 2.750000
v 11.000000 1.249996 2.750000
v 10.500000 1.249996 -0.000000
v -4.499998 10.999999 1.000000
v -4.499998 10.499999 3.750000
v -4.499998 10.999999 3.750000
v -4.499998 10.499999 1.000000
v -10.500002 -10.499998 4.250000
v -10.500000 -2.249999 -0.000000
v -10.500002 -10.499998 -0.000000
v -10.500000 -2.249999 4.250000
v 10.500000 -2.250004 1.000000
v 10.999996 -9.500004 1.000000
v 10.499996 -9.500004 1.000000
v 11.000000 -2.250004 1.000000
v 10.500004 9.499996 1.000000
v 11.000000 2.249996 1.000000
v 10.500000 2.249996 1.000000
v 11.000004 9.499996 1.000000
v 0.500003 10.999998 1.000000
v 4.500003 10.499997 1.000000
v 0.500003 10.499998 1.000000
v 4.500003 10.999997 1.000000
v 10.500000 -1.250004 2.750000
v 11.000000 -1.250004 -0.000000
v 11.000000 -1.250004 2.750000
v 10.500000 -1.250004 -0.000000
v 5.500003 10.999997 1.000000
v 9.500004 10.499996 1.000000
v 5.500003 10.499997 1.000000
v 9.500004 10.999996 1.000000
v -6.250000 -2.250000 -0.000000
v -6.250000 -1.750000 2.750000
v -6.250000 -2.250000 2.750000
v -6.250000 -1.750000 -0.000000
v -11.000001 -10.999998 -6.000000
v 10.999996 -11.000004 5.750000
v 11.000000 -11.000000 -6.000000
v -11.000002 -10.999998 5.750000
v -10.500000 -1.749999 4.250000
v -10.499999 10.500000 -0.000000
v -10.500000 -1.749999 -0.000000
v -10.499999 10.500000 4.250000
v -2.250000 -1.750001 4.250000
v -2.250003 -10.500000 -0.000000
v -2.250003 -10.500000 4.250000
v -2.250000 -1.750001 -0.000000
v 11.000004 9.499996 1.000000
v 10.500004 9.499996 3.750000
v 11.000004 9.499996 3.750000
v 10.500004 9.499996 1.000000
v 4.500003 10.499997 3.750000
v 4.500003 10.999997 1.000000
v 4.500003 10.999997 3.750000
v 4.500003 10.499997 1.000000
v -0.499997 10.499998 3.750000
v -0.499997 10.999998 1.000000
v -0.499997 10.999998 3.750000
v -0.499997 10.499998 1.000000
v 0.500003 10.999998 3.750000
v 0.500003 10.499998 1.000000
v 0.500003 10.499998 3.750000
v 0.500003 10.999998 1.000000
v 9.500004 10.499996 1.000000
v 9.500004 10.999996 3.750000
v 9.500004 10.499996 3.750000
v 9.500004 10.999996 1.000000
v 5.500003 10.999997 3.750000
v 5.500003 10.499997 1.000000
v 5.500003 10.499997 3.750000
v 5.500003 10.999997 1.000000
v -2.750003 -10.500000 4.250000
v -10.500002 -10.499998 -0.000000
v -2.750003 -10.500000 -0.000000
v -10.500002 -10.499998 4.250000
v -9.499999 11.000000 3.750000
v -9.499999 10.500000 1.000000
v -9.499999 10.500000 3.750000
v -9.499999 11.000000 1.000000
v -10.500000 -2.249999 4.250000
v -2.750003 -10.500000 4.250000
v -2.750000 -2.250001 4.250000
v -10.500002 -10.499998 4.250000
v 10.499996 -9.500004 3.750000
v 10.999996 -9.500004 1.000000
v 10.999996 -9.500004 3.750000
v 10.499996 -9.500004 1.000000
v 10.499996 -10.500004 4.250000
v -2.250003 -10.500000 -0.000000
v 10.499996 -10.500004 -0.000000
v -2.250003 -10.500000 4.250000
v 10.500000 2.249996 3.750000
v 11.000000 2.249996 1.000000
v 11.000000 2.249996 3.750000
v 10.500000 2.249996 1.000000
v -8.750000 -2.250000 2.750000
v -8.750000 -1.750000 -0.000000
v -8.750000 -2.250000 -0.000000
v -8.750000 -1.750000 2.750000
v 10.499996 -10.500004 4.750000
v 10.500004 10.499996 5.750000
v 10.499996 -10.500004 5.750000
v 10.500004 10.499996 4.750000
v -5.499998 10.499999 1.000000
v -5.499998 10.999999 3.750000
v -5.499998 10.499999 3.750000
v -5.499998 10.999999 1.000000
v -10.499999 10.500000 4.750000
v 10.499996 -10.500004 4.750000
v -10.500002 -10.499998 4.750000
v 10.500004 10.499996 4.750000
v -2.750003 -10.500000 4.250000
v -2.750000 -2.250001 -0.000000
v -2.750000 -2.250001 4.250000
v -2.750003 -10.500000 -0.000000
v -10.500002 -10.499998 4.750000
v 10.499996 -10.500004 5.750000
v -10.500002 -10.499998 5.750000
v 10.499996 -10.500004 4.750000
v 10.999996 -9.500004 3.750000
v 10.500000 -2.250004 3.750000
v 10.499996 -9.500004 3.750000
v 11.000000 -2.250004 3.750000
v 10.500000 -1.250004 2.750000
v 11.000000 1.249996 2.750000
v 10.500000 1.249996 2.750000
v 11.000000 -1.250004 2.750000
v 11.000000 2.249996 3.750000
v 10.500004 9.499996 3.750000
v 10.500000 2.249996 3.750000
v 11.000004 9.499996 3.750000
v 5.500003 10.499997 3.750000
v 9.500004 10.999996 3.750000
v 5.500003 10.999997 3.750000
v 9.500004 10.499996 3.750000
v 0.500003 10.999998 3.750000
v 4.500003 10.499997 3.750000
v 4.500003 10.999997 3.750000
v 0.500003 10.499998 3.750000
v -4.499998 10.499999 3.750000
v -0.499997 10.999998 3.750000
v -4.499998 10.999999 3.750000
v -0.499997 10.499998 3.750000
v -9.499999 11.000000 3.750000
v -5.499998 10.499999 3.750000
v -5.499998 10.999999 3.750000
v -9.499999 10.500000 3.750000
v -8.750000 -2.250000 2.750000
v -6.250000 -1.750000 2.750000
v -8.750000 -1.750000 2.750000
v -6.250000 -2.250000 2.750000
v 0.250000 -7.000001 1.250000
v 0.250000 -7.500001 -0.000000
v 0.250000 -7.000001 -0.000000
v 0.250000 -7.500001 1.250000
v 7.902273 -7.000001 1.250000
v 0.250000 -7.000001 -0.000000
v 7.902273 -7.000001 -0.000000
v 0.250000 -7.000001 1.250000
v 7.902273 -7.500001 1.250000
v 7.902273 -7.000001 -0.000000
v 7.902273 -7.500001 -0.000000
v 7.902273 -7.000001 1.250000
v 0.250000 -7.500001 1.250000
v 7.902273 -7.500001 -0.000000
v 0.250000 -7.500001 -0.000000
v 7.902273 -7.500001 1.250000
v 7.902273 -7.000001 1.250000
v 0.250000 -7.500001 1.250000
v 0.250000 -7.000001 1.250000
v 7.902273 -7.500001 1.250000
v 10.500000 -1.250004 -0.000000
v 11.000000 1.249996 -0.000000
v 11.000000 -1.250004 -0.000000
v 10.500000 1.249996 -0.000000
v -2.250000 -1.750001 -0.000000
v 10.500000 -2.250004 -0.000000
v -2.250003 -10.500000 -0.000000
v 10.499996 -10.500004 -0.000000
v 0.500003 10.499998 -0.000000
v 10.500004 10.499996 -0.000000
v -2.749998 10.499998 -0.000000
v -4.499998 10.499999 -0.000000
v -6.250000 -1.750000 -0.000000
v -5.499998 10.499999 -0.000000
v -6.249999 10.500000 -0.000000
v -8.750000 -1.750000 -0.000000
v -10.499999 10.500000 -0.000000
v -10.500000 -1.749999 -0.000000
v -8.750000 -2.250000 -0.000000
v -6.250000 -2.250000 -0.000000
v -10.500002 -10.499998 -0.000000
v -10.500000 -2.249999 -0.000000
v -2.750003 -10.500000 -0.000000
v -2.750000 -2.250001 -0.000000
v 11.000004 10.999996 -0.000000
v 5.500000 11.000000 -6.000000
v 11.000000 11.000000 -6.000000
v 9.500004 10.999996 1.000000
v 9.500004 10.999996 3.750000
v 11.000004 10.999996 5.750000
v 4.500003 10.999997 5.750000
v 5.500003 10.999997 1.000000
v 5.500003 10.999997 3.750000
v 4.500003 10.999997 1.000000
v -2.749998 10.999998 1.000000
v 4.500003 10.999997 3.750000
v -6.249998 11.000002 -6.000000
v 0.500003 10.999998 3.750000
v -4.499998 10.999999 1.000000
v -0.499997 10.999998 3.750000
v -0.499997 10.999998 1.000000
v 0.500003 10.999998 1.000000
v -4.499998 10.999999 3.750000
v -10.999999 11.000000 5.750000
v -5.499998 10.999999 3.750000
v -5.499998 10.999999 1.000000
v -9.499999 11.000000 3.750000
v -6.249999 11.000000 1.000000
v -9.499999 11.000000 1.000000
v -10.999997 11.000002 -6.000000
v -10.999999 11.000000 5.750000
v -11.000000 -1.749999 5.750000
v -10.999997 11.000002 -6.000000
v -11.000001 -10.999998 -6.000000
v -11.000002 -10.999998 5.750000
v -9.499999 11.000000 1.000000
v -6.249999 10.500000 1.000000
v -9.499999 10.500000 1.000000
v -6.249999 11.000000 1.000000
v -5.499998 10.999999 1.000000
v -5.499998 10.499999 1.000000
v -0.499997 10.499998 1.000000
v -2.749998 10.999998 1.000000
v -0.499997 10.999998 1.000000
v -2.749998 10.499998 1.000000
v -4.499998 10.499999 1.000000
v -4.499998 10.999999 1.000000
v -8.750000 -1.750000 -0.000000
v -8.750000 -1.750000 2.750000
v -10.500000 -1.749999 -0.000000
v -10.500000 -1.749999 4.250000
v -6.250000 -1.750000 2.750000
v -2.250000 -1.750001 4.250000
v -2.250000 -1.750001 -0.000000
v -6.250000 -1.750000 -0.000000
v 11.000000 -2.250004 1.000000
v 10.500000 -2.250004 1.000000
v 11.000000 -2.250004 2.750000
v 10.500000 -2.250004 3.750000
v 11.000000 -2.250004 3.750000
v 9.500004 10.499996 4.250000
v 10.500004 9.499996 4.250000
v 10.500004 10.499996 4.250000
v 5.500003 10.499997 4.250000
v 10.500000 2.249996 4.250000
v -2.250000 -1.750001 4.250000
v 0.500003 10.499998 4.250000
v -10.499999 10.500000 4.250000
v -10.500000 -1.749999 4.250000
v 10.500000 -2.250004 4.250000
v -2.250003 -10.500000 4.250000
v 10.499996 -10.500004 4.250000
v -10.500002 -10.499998 5.750000
v -10.500000 -1.749999 5.750000
v -10.500002 -10.499998 4.750000
v -10.499999 10.500000 4.750000
v -10.499999 10.500000 5.750000
v -6.250000 -2.250000 -0.000000
v -6.250000 -2.250000 2.750000
v -2.750000 -2.250001 -0.000000
v -2.750000 -2.250001 4.250000
v -10.500000 -2.249999 4.250000
v -8.750000 -2.250000 2.750000
v -10.500000 -2.249999 -0.000000
v -8.750000 -2.250000 -0.000000
v 4.500003 10.999997 1.000000
v -0.499997 10.999998 1.000000
v -2.749998 10.999998 1.000000
v 0.500003 10.999998 1.000000
v -10.499999 10.500000 5.750000
v 4.500003 10.499997 5.750000
v -10.499999 10.500000 4.750000
v 10.500004 10.499996 4.750000
v 10.500004 10.499996 5.750000
v -11.000000 -1.749999 5.750000
v -10.499999 10.500000 5.750000
v -10.500000 -1.749999 5.750000
v -10.500002 -10.499998 5.750000
v -10.999999 11.000000 5.750000
v -11.000002 -10.999998 5.750000
v 4.500003 10.999997 5.750000
v 4.500003 10.499997 5.750000
v 10.500004 10.499996 5.750000
v 11.000004 10.999996 5.750000
v 10.499996 -10.500004 5.750000
v 10.999996 -11.000004 5.750000
v 10.999996 -11.000004 5.750000
v 10.999996 -9.500004 3.750000
v 10.999996 -9.500004 1.000000
v 11.000000 -2.250004 3.750000
v 11.000000 -11.000000 -6.000000
v 11.000000 -2.250000 -6.000000
v 11.000000 -2.250004 1.000000
v 11.000000 -1.250004 -0.000000
v 11.000000 1.250000 -6.000000
v 11.000000 -1.250004 2.750000
v 11.000000 -2.250004 2.750000
v 11.000000 1.249996 -0.000000
v 11.000000 1.249996 2.750000
v 11.000000 2.250000 -6.000000
v 11.000000 2.249996 3.750000
v 11.000004 10.999996 5.750000
v 11.000004 9.499996 3.750000
v 11.000004 10.999996 -0.000000
v 11.000000 2.249996 1.000000
v 11.000004 9.499996 1.000000
v 11.000000 11.000000 -6.000000
v -10.499999 10.500000 4.250000
v -9.499999 10.500000 3.750000
v -9.499999 10.500000 1.000000
v -5.499998 10.499999 3.750000
v -10.499999 10.500000 -0.000000
v -6.249999 10.500000 -0.000000
v -6.249999 10.500000 1.000000
v -5.499998 10.499999 -0.000000
v -5.499998 10.499999 1.000000
v -4.499998 10.499999 -0.000000
v -4.499998 10.499999 1.000000
v -2.749998 10.499998 -0.000000
v -2.749998 10.499998 1.000000
v -4.499998 10.499999 3.750000
v -0.499997 10.499998 1.000000
v 0.500003 10.499998 4.250000
v 0.500003 10.499998 -0.000000
v -0.499997 10.499998 3.750000
v 0.500003 10.499998 1.000000
v 0.500003 10.499998 3.750000
v 4.500003 10.499997 3.750000
v 4.500003 10.499997 1.000000
v 5.500003 10.499997 4.250000
v 5.500003 10.499997 1.000000
v 10.500004 10.499996 -0.000000
v 9.500004 10.499996 1.000000
v 10.500004 10.499996 4.250000
v 5.500003 10.499997 3.750000
v 9.500004 10.499996 3.750000
v 9.500004 10.499996 4.250000
v 10.500000 -1.250004 2.750000
v 10.500000 -2.250004 1.000000
v 10.500000 -1.250004 -0.000000
v 10.500000 -2.250004 -0.000000
v 10.499996 -9.500004 1.000000
v 10.499996 -10.500004 -0.000000
v 10.499996 -10.500004 4.250000
v 10.499996 -9.500004 3.750000
v 10.500000 -2.250004 4.250000
v 10.500000 -2.250004 3.750000
v 10.500000 2.249996 4.250000
v 10.500000 1.249996 2.750000
v 10.500000 2.249996 3.750000
v 10.500004 9.499996 4.250000
v 10.500004 9.499996 3.750000
v 10.500004 10.499996 4.250000
v 10.500004 9.499996 1.000000
v 10.500004 10.499996 -0.000000
v 10.500000 2.249996 1.000000
v 10.500000 1.249996 -0.000000
vt 0.645989656 0.756118178
vt 0.646806002 0.752022207
vt 0.645989656 0.752022207
vt 0.646806002 0.756118178
vt 0.621089458 0.818675458
vt 0.621905923 0.814579427
vt 0.621089458 0.814579427
vt 0.621905923 0.818675399
vt 0.911622763 0.735843956
vt 0.918562174 0.748131931
vt 0.918562114 0.735843897
vt 0.911622763 0.748131931
vt 0.597822189 0.771757483
vt 0.597005725 0.782556057
vt 0.597822189 0.782556057
vt 0.597005725 0.771757483
vt 0.632110834 0.802291393
vt 0.631294489 0.813089967
vt 0.632110834 0.813089967
vt 0.631294489 0.802291393
vt 0.597822189 0.810111046
vt 0.597005725 0.804153204
vt 0.597005725 0.810111046
vt 0.597822189 0.804153204
vt 0.631294489 0.813089967
vt 0.632110834 0.817185998
vt 0.632110834 0.813089967
vt 0.631294489 0.817185998
vt 0.629661679 0.808249235
vt 0.630478024 0.814207077
vt 0.630478024 0.808249235
vt 0.629661679 0.814207077
vt 0.649255157 0.752022207
vt 0.648438811 0.756118178
vt 0.649255157 0.756118178
vt 0.648438811 0.752022207
vt 0.0867132545 0.725559771
vt 0.06752792 0.758327901
vt 0.0867132545 0.758327901
vt 0.0675278902 0.725559771
vt 0.853658557 0.799145877
vt 0.846719146 0.780900002
vt 0.846719146 0.799145877
vt 0.853658557 0.780900002
vt 0.911622763 0.729886115
vt 0.918562114 0.716853321
vt 0.911622763 0.716853321
vt 0.918562174 0.729886115
vt 0.620273113 0.818675399
vt 0.621089458 0.814579427
vt 0.620273113 0.814579427
vt 0.621089458 0.818675399
vt 0.588433564 0.814951777
vt 0.589249969 0.819047809
vt 0.589249969 0.814951777
vt 0.588433564 0.819047809
vt 0.630478024 0.814207077
vt 0.631294489 0.818303049
vt 0.631294489 0.814207077
vt 0.630478024 0.818303049
vt 0.646806002 0.752022207
vt 0.647622466 0.756118178
vt 0.647622466 0.752022207
vt 0.646806002 0.756118178
vt 0.618640304 0.818675399
vt 0.619456649 0.814579427
vt 0.618640304 0.814579427
vt 0.619456649 0.818675399
vt 0.617823958 0.814579427
vt 0.618640304 0.818675399
vt 0.618640304 0.814579427
vt 0.617823958 0.818675399
vt 0.916929364 0.748876631
vt 0.923868716 0.760419965
vt 0.923868716 0.748876631
vt 0.916929364 0.760419965
vt 0.647622466 0.752022207
vt 0.648438811 0.756118178
vt 0.648438811 0.752022207
vt 0.647622466 0.756118178
vt 0.40092203 0.279623866
vt 0.388267905 0.267335832
vt 0.388267905 0.279623866
vt 0.40092203 0.267335832
vt 0.617007494 0.814579427
vt 0.617823958 0.818675458
vt 0.617823958 0.814579427
vt 0.617007494 0.818675458
vt 0.861822486 0.799890637
vt 0.854883075 0.780900002
vt 0.854883134 0.799890637
vt 0.861822486 0.780900002
vt 0.620273113 0.818675399
vt 0.619456649 0.814579427
vt 0.619456649 0.818675399
vt 0.620273113 0.814579427
vt 0.621905923 0.818675458
vt 0.622722268 0.814579427
vt 0.621905923 0.814579427
vt 0.622722268 0.818675458
vt 0.163454652 0.66151309
vt 0.165087461 0.6927917
vt 0.165087461 0.66151309
vt 0.163454652 0.6927917
vt 0.59618938 0.775853515
vt 0.597005725 0.771757483
vt 0.59618938 0.771757483
vt 0.597005725 0.775853515
vt 0.395992547 0.776465952
vt 0.361703843 0.745187342
vt 0.361703843 0.776465952
vt 0.395992547 0.745187283
vt 0.916929364 0.793932796
vt 0.923868716 0.781644762
vt 0.916929364 0.781644762
vt 0.923868716 0.793932796
vt 0.160189033 0.6927917
vt 0.158556283 0.66151309
vt 0.158556283 0.6927917
vt 0.160189033 0.66151309
vt 0.597005725 0.79335463
vt 0.597822189 0.804153204
vt 0.597822189 0.79335463
vt 0.597005725 0.804153204
vt 0.597005725 0.819792509
vt 0.597822189 0.816068888
vt 0.597005725 0.816068888
vt 0.597822189 0.819792509
vt 0.597005725 0.782556057
vt 0.597822189 0.79335463
vt 0.597822189 0.782556057
vt 0.597005725 0.79335463
vt 0.631294489 0.814207077
vt 0.630478024 0.808249235
vt 0.630478024 0.814207077
vt 0.631294489 0.808249235
vt 0.588433564 0.808993936
vt 0.589249969 0.803036094
vt 0.588433564 0.803036094
vt 0.589249969 0.808993936
vt 0.629661679 0.802291393
vt 0.630478024 0.808249235
vt 0.630478024 0.802291393
vt 0.629661679 0.808249235
vt 0.597005725 0.816068888
vt 0.597822189 0.810111046
vt 0.597005725 0.810111046
vt 0.597822189 0.816068888
vt 0.650071621 0.755745828
vt 0.649255157 0.752022207
vt 0.649255157 0.755745828
vt 0.650071621 0.752022207
vt 0.204791307 0.719340563
vt 0.225855887 0.682178736
vt 0.204791307 0.682178736
vt 0.225855887 0.719340563
vt 0.0362743735 0.645016909
vt 0.0994682014 0.834598422
vt 0.0994681418 0.645016909
vt 0.0362744331 0.834598422
vt 0.204791307 0.682178736
vt 0.225855887 0.645016909
vt 0.204791307 0.645016909
vt 0.225855887 0.682178736
vt 0.0994682014 0.645016909
vt 0.162662029 0.834598422
vt 0.162662029 0.645016909
vt 0.0994682312 0.834598422
vt 0.66334188 0.672687054
vt 0.64227736 0.862268567
vt 0.663341999 0.862268567
vt 0.64227736 0.672687054
vt 0.0521444604 0.130991578
vt 0.0562264845 0.130246878
vt 0.0521444604 0.130246878
vt 0.0562264845 0.130991578
vt 0.0513280556 0.149982214
vt 0.0505116507 0.130991578
vt 0.0370411202 0.149982214
vt 0.0370411202 0.130991578
vt 0.0713298246 0.145886183
vt 0.0713298246 0.130991578
vt 0.0713298246 0.150726914
vt 0.0713298246 0.153333426
vt 0.0513280556 0.155940056
vt 0.0713298246 0.154822946
vt 0.0713298246 0.155940056
vt 0.0513280556 0.159663677
vt 0.0713298246 0.162270188
vt 0.0513280556 0.162270188
vt 0.0505117103 0.159663677
vt 0.0505117103 0.155940056
vt 0.0370411202 0.162270188
vt 0.0505117103 0.162270188
vt 0.0370411202 0.150726914
vt 0.0505117103 0.150726914
vt 0.11283797 0.724815071
vt 0.122634768 0.733007073
vt 0.122634768 0.724815071
vt 0.11120519 0.727049232
vt 0.106714994 0.727049232
vt 0.103449404 0.724815071
vt 0.103449404 0.734496534
vt 0.11120519 0.733007073
vt 0.106714994 0.733007073
vt 0.11120519 0.734496534
vt 0.11120519 0.745295107
vt 0.106714994 0.734496534
vt 0.122634768 0.750508249
vt 0.106714994 0.740454376
vt 0.11120519 0.747901678
vt 0.106714994 0.741943836
vt 0.11120519 0.741943836
vt 0.11120519 0.740454376
vt 0.106714994 0.747901678
vt 0.103449404 0.757583141
vt 0.106714994 0.749391139
vt 0.11120519 0.749391139
vt 0.106714994 0.75534898
vt 0.11120519 0.750508249
vt 0.11120519 0.75534898
vt 0.122634768 0.757583141
vt 0.156923473 0.759072602
vt 0.156923473 0.740082026
vt 0.137738109 0.759072602
vt 0.137738109 0.726304531
vt 0.156923473 0.726304531
vt 0.631294489 0.808249235
vt 0.630478024 0.803408504
vt 0.630478024 0.808249235
vt 0.631294489 0.803408504
vt 0.631294489 0.802291393
vt 0.630478024 0.802291393
vt 0.589249969 0.814951777
vt 0.588433564 0.811600506
vt 0.588433564 0.814951777
vt 0.589249969 0.811600506
vt 0.589249969 0.808993936
vt 0.588433564 0.808993936
vt 0.895294785 0.802124798
vt 0.890804648 0.802124798
vt 0.895294785 0.804731369
vt 0.888355434 0.804731369
vt 0.890804648 0.798401177
vt 0.888355434 0.792443335
vt 0.895294785 0.792443335
vt 0.895294785 0.798401177
vt 0.630478024 0.814207077
vt 0.629661679 0.814207077
vt 0.630478024 0.816813588
vt 0.629661679 0.818303049
vt 0.630478024 0.818303049
vt 0.367449731 0.266591072
vt 0.365816951 0.268080533
vt 0.367449731 0.268080533
vt 0.367449731 0.26063329
vt 0.35397917 0.268080533
vt 0.347447991 0.249089956
vt 0.367449731 0.253185987
vt 0.367449731 0.236801922
vt 0.347447962 0.236801922
vt 0.346631616 0.268080533
vt 0.333161026 0.249089956
vt 0.333161056 0.268080533
vt 0.163454652 0.6927917
vt 0.163454652 0.679758966
vt 0.161821842 0.6927917
vt 0.161821842 0.66151309
vt 0.163454652 0.66151309
vt 0.923868716 0.77643168
vt 0.919378579 0.77643168
vt 0.923868716 0.781644762
vt 0.916929364 0.781644762
vt 0.916929364 0.770101428
vt 0.919378519 0.772707999
vt 0.923868716 0.770101428
vt 0.923868716 0.772707999
vt 0.11120519 0.734496534
vt 0.11120519 0.741943836
vt 0.11120519 0.745295107
vt 0.11120519 0.740454376
vt 0.160189033 0.66151309
vt 0.160189033 0.683854938
vt 0.161821842 0.66151309
vt 0.161821842 0.6927917
vt 0.160189033 0.6927917
vt 0.0883460641 0.66151309
vt 0.068344295 0.662257791
vt 0.0883460343 0.662257791
vt 0.102632999 0.662257791
vt 0.06752792 0.66151309
vt 0.103449404 0.66151309
vt 0.06752792 0.684599698
vt 0.068344295 0.684599698
vt 0.068344295 0.693536401
vt 0.06752792 0.694281161
vt 0.102632999 0.693536401
vt 0.103449404 0.694281161
vt 0.156923473 0.726304531
vt 0.153657854 0.724070311
vt 0.149167657 0.724070311
vt 0.153657854 0.713271737
vt 0.137738109 0.726304531
vt 0.137738109 0.713271737
vt 0.149167657 0.713271737
vt 0.147534907 0.711782277
vt 0.137738109 0.708058655
vt 0.152025044 0.711782277
vt 0.152025044 0.713271737
vt 0.147534907 0.708058655
vt 0.152025044 0.708058655
vt 0.137738109 0.706569195
vt 0.153657854 0.706569195
vt 0.156923473 0.693536401
vt 0.153657854 0.695770621
vt 0.147534907 0.693536401
vt 0.149167657 0.706569195
vt 0.149167657 0.695770621
vt 0.137738109 0.693536401
vt 0.897744 0.716853321
vt 0.898560405 0.718342781
vt 0.903050601 0.718342781
vt 0.898560405 0.724300563
vt 0.904683352 0.716853321
vt 0.904683352 0.723183513
vt 0.903050601 0.723183513
vt 0.904683352 0.724300563
vt 0.903050601 0.724300563
vt 0.904683352 0.725790083
vt 0.903050601 0.725790083
vt 0.904683352 0.728396595
vt 0.903050601 0.728396595
vt 0.898560405 0.725790083
vt 0.903050601 0.731747925
vt 0.897744 0.733237326
vt 0.904683352 0.733237326
vt 0.898560405 0.731747925
vt 0.903050601 0.733237326
vt 0.898560405 0.733237326
vt 0.898560405 0.739195168
vt 0.903050601 0.739195168
vt 0.897744 0.740684688
vt 0.903050601 0.740684688
vt 0.904683352 0.748131931
vt 0.903050601 0.74664247
vt 0.897744 0.748131931
vt 0.898560405 0.740684688
vt 0.898560405 0.74664247
vt 0.897744 0.74664247
vt 0.909173548 0.730630815
vt 0.906316161 0.729141355
vt 0.904683352 0.730630815
vt 0.904683352 0.729141355
vt 0.906316161 0.718342781
vt 0.904683352 0.716853321
vt 0.911622763 0.716853321
vt 0.910806358 0.718342781
vt 0.911622763 0.729141355
vt 0.910806358 0.729141355
vt 0.911622763 0.735843897
vt 0.909173548 0.734354436
vt 0.910806358 0.735843897
vt 0.911622763 0.74664247
vt 0.910806358 0.74664247
vt 0.911622763 0.748131931
vt 0.906316161 0.74664247
vt 0.904683352 0.748131931
vt 0.906316161 0.735843897
vt 0.904683352 0.734354436
vn 0.000000 -1.000000 -0.000000
vn 0.000000 -1.000000 -0.000000
vn 0.000000 -1.000000 -0.000000
vn 0.000000 -1.000000 -0.000000
vn 1.000000 0.000000 0.000000
vn 1.000000 0.000000 0.000000
vn 1.000000 0.000000 0.000000
vn 1.000000 0.000000 0.000000
vn 1.000000 0.000000 0.000000
vn 1.000000 0.000000 0.000000
vn 1.000000 0.000000 0.000000
vn 1.000000 0.000000 0.000000
vn 0.000000 -0.000000 1.000000
vn 0.000000 -0.000000 1.000000
vn 0.000000 -0.000000 1.000000
vn 0.000000 -0.000000 1.000000
vn 0.000000 -0.000000 1.000000
vn 0.000000 -0.000000 1.000000
vn 0.000000 -0.000000 1.000000
vn 0.000000 -0.000000 1.000000
vn 0.000000 -0.000000 1.000000
vn 0.000000 -0.000000 1.000000
vn 0.000000 -0.000000 1.000000
vn 0.000000 -0.000000 1.000000
vn 0.000000 1.000000 0.000000
vn 0.000000 1.000000 0.000000
vn 0.000000 1.000000 0.000000
vn 0.000000 1.000000 0.000000
vn 0.000000 -0.000000 1.000000
vn 0.000000 -0.000000 1.000000
vn 0.000000 -0.000000 1.000000
vn 0.000000 -0.000000 1.000000
vn -1.000000 0.000000 0.000000
vn -1.000000 0.000000 0.000000
vn -1.000000 0.000000 0.000000
vn -1.000000 0.000000 0.000000
vn 0.000000 -1.000000 -0.000000
vn 0.000000 -1.000000 -0.000000
vn 0.000000 -1.000000 -0.000000
vn 0.000000 -1.000000 -0.000000
vn 1.000000 0.000000 0.000000
vn 1.000000 0.000000 0.000000
vn 1.000000 0.000000 0.000000
vn 1.000000 0.000000 0.000000
vn 1.000000 0.000000 0.000000
vn 1.000000 0.000000 0.000000
vn 1.000000 0.000000 0.000000
vn 1.000000 0.000000 0.000000
vn 0.000000 -1.000000 -0.000000
vn 0.000000 -1.000000 -0.000000
vn 0.000000 -1.000000 -0.000000
vn 0.000000 -1.000000 -0.000000
vn -1.000000 0.000000 0.000000
vn -1.000000 0.000000 0.000000
vn -1.000000 0.000000 0.000000
vn -1.000000 0.000000 0.000000
vn -1.000000 0.000000 0.000000
vn -1.000000 0.000000 0.000000
vn -1.000000 0.000000 0.000000
vn -1.000000 0.000000 0.000000
vn 1.000000 0.000000 0.000000
vn 1.000000 0.000000 0.000000
vn 1.000000 0.000000 0.000000
vn 1.000000 0.000000 0.000000
vn -1.000000 0.000000 0.000000
vn -1.000000 0.000000 0.000000
vn -1.000000 0.000000 0.000000
vn -1.000000 0.000000 0.000000
vn 1.000000 0.000000 0.000000
vn 1.000000 0.000000 0.000000
vn 1.000000 0.000000 0.000000
vn 1.000000 0.000000 0.000000
vn 0.000000 1.000000 0.000000
vn 0.000000 1.000000 0.000000
vn 0.000000 1.000000 0.000000
vn 0.000000 1.000000 0.000000
vn 1.000000 0.000000 0.000000
vn 1.000000 0.000000 0.000000
vn 1.000000 0.000000 0.000000
vn 1.000000 0.000000 0.000000
vn 0.000000 0.000000 -1.000000
vn 0.000000 0.000000 -1.000000
vn 0.000000 0.000000 -1.000000
vn 0.000000 0.000000 -1.000000
vn 0.000000 1.000000 0.000000
vn 0.000000 1.000000 0.000000
vn 0.000000 1.000000 0.000000
vn 0.000000 1.000000 0.000000
vn 0.000000 1.000000 0.000000
vn 0.000000 1.000000 0.000000
vn 0.000000 1.000000 0.000000
vn 0.000000 1.000000 0.000000
vn 0.000000 1.000000 0.000000
vn 0.000000 1.000000 0.000000
vn 0.000000 1.000000 0.000000
vn 0.000000 1.000000 0.000000
vn 1.000000 0.000000 0.000000
vn 1.000000 0.000000 0.000000
vn 1.000000 0.000000 0.000000
vn 1.000000 0.000000 0.000000
vn -1.000000 0.000000 0.000000
vn -1.000000 0.000000 0.000000
vn -1.000000 0.000000 0.000000
vn -1.000000 0.000000 0.000000
vn -1.000000 0.000000 0.000000
vn -1.000000 0.000000 0.000000
vn -1.000000 0.000000 0.000000
vn -1.000000 0.000000 0.000000
vn 0.000000 -0.000000 1.000000
vn 0.000000 -0.000000 1.000000
vn 0.000000 -0.000000 1.000000
vn 0.000000 -0.000000 1.000000
vn -1.000000 0.000000 0.000000
vn -1.000000 0.000000 0.000000
vn -1.000000 0.000000 0.000000
vn -1.000000 0.000000 0.000000
vn 0.000000 1.000000 0.000000
vn 0.000000 1.000000 0.000000
vn 0.000000 1.000000 0.000000
vn 0.000000 1.000000 0.000000
vn 0.000000 0.000000 -1.000000
vn 0.000000 0.000000 -1.000000
vn 0.000000 0.000000 -1.000000
vn 0.000000 0.000000 -1.000000
vn 0.000000 0.000000 -1.000000
vn 0.000000 0.000000 -1.000000
vn 0.000000 0.000000 -1.000000
vn 0.000000 0.000000 -1.000000
vn 0.000000 0.000000 -1.000000
vn 0.000000 0.000000 -1.000000
vn 0.000000 0.000000 -1.000000
vn 0.000000 0.000000 -1.000000
vn 0.000000 0.000000 -1.000000
vn 0.000000 0.000000 -1.000000
vn 0.000000 0.000000 -1.000000
vn 0.000000 0.000000 -1.000000
vn 0.000000 0.000000 -1.000000
vn 0.000000 0.000000 -1.000000
vn 0.000000 0.000000 -1.000000
vn 0.000000 0.000000 -1.000000
vn 0.000000 0.000000 -1.000000
vn 0.000000 0.000000 -1.000000
vn 0.000000 0.000000 -1.000000
vn 0.000000 0.000000 -1.000000
vn 0.000000 0.000000 -1.000000
vn 0.000000 0.000000 -1.000000
vn 0.000000 0.000000 -1.000000
vn 0.000000 0.000000 -1.000000
vn 0.000000 0.000000 -1.000000
vn 0.000000 0.000000 -1.000000
vn 0.000000 0.000000 -1.000000
vn 0.000000 0.000000 -1.000000
vn -1.000000 0.000000 0.000000
vn -1.000000 0.000000 0.000000
vn -1.000000 0.000000 0.000000
vn -1.000000 0.000000 0.000000
vn 0.000000 1.000000 0.000000
vn 0.000000 1.000000 0.000000
vn 0.000000 1.000000 0.000000
vn 0.000000 1.000000 0.000000
vn 1.000000 0.000000 0.000000
vn 1.000000 0.000000 0.000000
vn 1.000000 0.000000 0.000000
vn 1.000000 0.000000 0.000000
vn 0.000000 -1.000000 -0.000000
vn 0.000000 -1.000000 -0.000000
vn 0.000000 -1.000000 -0.000000
vn 0.000000 -1.000000 -0.000000
vn 0.000000 -0.000000 1.000000
vn 0.000000 -0.000000 1.000000
vn 0.000000 -0.000000 1.000000
vn 0.000000 -0.000000 1.000000
vn 0.000000 -0.000000 1.000000
vn 0.000000 -0.000000 1.000000
vn 0.000000 -0.000000 1.000000
vn 0.000000 -0.000000 1.000000
vn 0.000000 -0.000000 1.000000
vn 0.000000 -0.000000 1.000000
vn 0.000000 -0.000000 1.000000
vn 0.000000 -0.000000 1.000000
vn 0.000000 -0.000000 1.000000
vn 0.000000 -0.000000 1.000000
vn 0.000000 -0.000000 1.000000
vn 0.000000 -0.000000 1.000000
vn 0.000000 -0.000000 1.000000
vn 0.000000 -0.000000 1.000000
vn 0.000000 -0.000000 1.000000
vn 0.000000 -0.000000 1.000000
vn 0.000000 -0.000000 1.000000
vn 0.000000 -0.000000 1.000000
vn 0.000000 -0.000000 1.000000
vn 0.000000 -0.000000 1.000000
vn 0.000000 -0.000000 1.000000
vn 0.000000 -0.000000 1.000000
vn 0.000000 -0.000000 1.000000
vn 0.000000 -0.000000 1.000000
vn 0.000000 1.000000 0.000000
vn 0.000000 1.000000 0.000000
vn 0.000000 1.000000 0.000000
vn 0.000000 1.000000 0.000000
vn 0.000000 1.000000 0.000000
vn 0.000000 1.000000 0.000000
vn 0.000000 1.000000 0.000000
vn 0.000000 1.000000 0.000000
vn 0.000000 1.000000 0.000000
vn 0.000000 1.000000 0.000000
vn 0.000000 1.000000 0.000000
vn 0.000000 1.000000 0.000000
vn 0.000000 1.000000 0.000000
vn 0.000000 1.000000 0.000000
vn 0.000000 1.000000 0.000000
vn 0.000000 1.000000 0.000000
vn 0.000000 1.000000 0.000000
vn 0.000000 1.000000 0.000000
vn 0.000000 1.000000 0.000000
vn 0.000000 1.000000 0.000000
vn 0.000000 1.000000 0.000000
vn 0.000000 1.000000 0.000000
vn 0.000000 1.000000 0.000000
vn 0.000000 1.000000 0.000000
vn 0.000000 1.000000 0.000000
vn 0.000000 1.000000 0.000000
vn -1.000000 0.000000 0.000000
vn -1.000000 0.000000 0.000000
vn -1.000000 0.000000 0.000000
vn -1.000000 0.000000 0.000000
vn -1.000000 0.000000 0.000000
vn 0.000000 -0.000000 1.000000
vn 0.000000 -0.000000 1.000000
vn 0.000000 -0.000000 1.000000
vn 0.000000 -0.000000 1.000000
vn 0.000000 -0.000000 1.000000
vn 0.000000 -0.000000 1.000000
vn 0.000000 -0.000000 1.000000
vn 0.000000 -0.000000 1.000000
vn 0.000000 -0.000000 1.000000
vn 0.000000 -0.000000 1.000000
vn 0.000000 -0.000000 1.000000
vn 0.000000 -0.000000 1.000000
vn 0.000000 1.000000 0.000000
vn 0.000000 1.000000 0.000000
vn 0.000000 1.000000 0.000000
vn 0.000000 1.000000 0.000000
vn 0.000000 1.000000 0.000000
vn 0.000000 1.000000 0.000000
vn 0.000000 1.000000 0.000000
vn 0.000000 1.000000 0.000000
vn 0.000000 -1.000000 -0.000000
vn 0.000000 -1.000000 -0.000000
vn 0.000000 -1.000000 -0.000000
vn 0.000000 -1.000000 -0.000000
vn 0.000000 -1.000000 -0.000000
vn 0.000000 0.000000 -1.000000
vn 0.000000 0.000000 -1.000000
vn 0.000000 0.000000 -1.000000
vn 0.000000 0.000000 -1.000000
vn 0.000000 0.000000 -1.000000
vn 0.000000 0.000000 -1.000000
vn 0.000000 0.000000 -1.000000
vn 0.000000 0.000000 -1.000000
vn 0.000000 0.000000 -1.000000
vn 0.000000 0.000000 -1.000000
vn 0.000000 0.000000 -1.000000
vn 0.000000 0.000000 -1.000000
vn 1.000000 0.000000 0.000000
vn 1.000000 0.000000 0.000000
vn 1.000000 0.000000 0.000000
vn 1.000000 0.000000 0.000000
vn 1.000000 0.000000 0.000000
vn 0.000000 -1.000000 -0.000000
vn 0.000000 -1.000000 -0.000000
vn 0.000000 -1.000000 -0.000000
vn 0.000000 -1.000000 -0.000000
vn 0.000000 -1.000000 -0.000000
vn 0.000000 -1.000000 -0.000000
vn 0.000000 -1.000000 -0.000000
vn 0.000000 -1.000000 -0.000000
vn 0.000000 1.000000 0.000000
vn 0.000000 1.000000 0.000000
vn 0.000000 1.000000 0.000000
vn 0.000000 1.000000 0.000000
vn 0.000000 -1.000000 -0.000000
vn 0.000000 -1.000000 -0.000000
vn 0.000000 -1.000000 -0.000000
vn 0.000000 -1.000000 -0.000000
vn 0.000000 -1.000000 -0.000000
vn 0.000000 -0.000000 1.000000
vn 0.000000 -0.000000 1.000000
vn 0.000000 -0.000000 1.000000
vn 0.000000 -0.000000 1.000000
vn 0.000000 -0.000000 1.000000
vn 0.000000 -0.000000 1.000000
vn 0.000000 -0.000000 1.000000
vn 0.000000 -0.000000 1.000000
vn 0.000000 -0.000000 1.000000
vn 0.000000 -0.000000 1.000000
vn 0.000000 -0.000000 1.000000
vn 0.000000 -0.000000 1.000000
vn 1.000000 0.000000 0.000000
vn 1.000000 0.000000 0.000000
vn 1.000000 0.000000 0.000000
vn 1.000000 0.000000 0.000000
vn 1.000000 0.000000 0.000000
vn 1.000000 0.000000 0.000000
vn 1.000000 0.000000 0.000000
vn 1.000000 0.000000 0.000000
vn 1.000000 0.000000 0.000000
vn 1.000000 0.000000 0.000000
vn 1.000000 0.000000 0.000000
vn 1.000000 0.000000 0.000000
vn 1.000000 0.000000 0.000000
vn 1.000000 0.000000 0.000000
vn 1.000000 0.000000 0.000000
vn 1.000000 0.000000 0.000000
vn 1.000000 0.000000 0.000000
vn 1.000000 0.000000 0.000000
vn 1.000000 0.000000 0.000000
vn 1.000000 0.000000 0.000000
vn 1.000000 0.000000 0.000000
vn 0.000000 -1.000000 -0.000000
vn 0.000000 -1.000000 -0.000000
vn 0.000000 -1.000000 -0.000000
vn 0.000000 -1.000000 -0.000000
vn 0.000000 -1.000000 -0.000000
vn 0.000000 -1.000000 -0.000000
vn 0.000000 -1.000000 -0.000000
vn 0.000000 -1.000000 -0.000000
vn 0.000000 -1.000000 -0.000000
vn 0.000000 -1.000000 -0.000000
vn 0.000000 -1.000000 -0.000000
vn 0.000000 -1.000000 -0.000000
vn 0.000000 -1.000000 -0.000000
vn 0.000000 -1.000000 -0.000000
vn 0.000000 -1.000000 -0.000000
vn 0.000000 -1.000000 -0.000000
vn 0.000000 -1.000000 -0.000000
vn 0.000000 -1.000000 -0.000000
vn 0.000000 -1.000000 -0.000000
vn 0.000000 -1.000000 -0.000000
vn 0.000000 -1.000000 -0.000000
vn 0.000000 -1.000000 -0.000000
vn 0.000000 -1.000000 -0.000000
vn 0.000000 -1.000000 -0.000000
vn 0.000000 -1.000000 -0.000000
vn 0.000000 -1.000000 -0.000000
vn 0.000000 -1.000000 -0.000000
vn 0.000000 -1.000000 -0.000000
vn 0.000000 -1.000000 -0.000000
vn 0.000000 -1.000000 -0.000000
vn -1.000000 0.000000 0.000000
vn -1.000000 0.000000 0.000000
vn -1.000000 0.000000 0.000000
vn -1.000000 0.000000 0.000000
vn -1.000000 0.000000 0.000000
vn -1.000000 0.000000 0.000000
vn -1.000000 0.000000 0.000000
vn -1.000000 0.000000 0.000000
vn -1.000000 0.000000 0.000000
vn -1.000000 0.000000 0.000000
vn -1.000000 0.000000 0.000000
vn -1.000000 0.000000 0.000000
vn -1.000000 0.000000 0.000000
vn -1.000000 0.000000 0.000000
vn -1.000000 0.000000 0.000000
vn -1.000000 0.000000 0.000000
vn -1.000000 0.000000 0.000000
vn -1.000000 0.000000 0.000000
vn -1.000000 0.000000 0.000000
vn -1.000000 0.000000 0.000000
f 3/3/3 2/2/2 1/1/1
f 1/1/1 2/2/2 4/4/4
f 7/7/7 6/6/6 5/5/5
f 5/5/5 6/6/6 8/8/8
f 11/11/11 10/10/10 9/9/9
f 9/9/9 10/10/10 12/12/12
f 15/15/15 14/14/14 13/13/13
f 13/13/13 14/14/14 16/16/16
f 19/19/19 18/18/18 17/17/17
f 17/17/17 18/18/18 20/20/20
f 23/23/23 22/22/22 21/21/21
f 21/21/21 22/22/22 24/24/24
f 27/27/27 26/26/26 25/25/25
f 25/25/25 26/26/26 28/28/28
f 31/31/31 30/30/30 29/29/29
f 29/29/29 30/30/30 32/32/32
f 35/35/35 34/34/34 33/33/33
f 33/33/33 34/34/34 36/36/36
f 39/39/39 38/38/38 37/37/37
f 37/37/37 38/38/38 40/40/40
f 43/43/43 42/42/42 41/41/41
f 41/41/41 42/42/42 44/44/44
f 47/47/47 46/46/46 45/45/45
f 45/45/45 46/46/46 48/48/48
f 51/51/51 50/50/50 49/49/49
f 49/49/49 50/50/50 52/52/52
f 55/55/55 54/54/54 53/53/53
f 53/53/53 54/54/54 56/56/56
f 59/59/59 58/58/58 57/57/57
f 57/57/57 58/58/58 60/60/60
f 63/63/63 62/62/62 61/61/61
f 61/61/61 62/62/62 64/64/64
f 67/67/67 66/66/66 65/65/65
f 65/65/65 66/66/66 68/68/68
f 71/71/71 70/70/70 69/69/69
f 69/69/69 70/70/70 72/72/72
f 75/75/75 74/74/74 73/73/73
f 73/73/73 74/74/74 76/76/76
f 79/79/79 78/78/78 77/77/77
f 77/77/77 78/78/78 80/80/80
f 83/83/83 82/82/82 81/81/81
f 81/81/81 82/82/82 84/84/84
f 87/87/87 86/86/86 85/85/85
f 85/85/85 86/86/86 88/88/88
f 91/91/91 90/90/90 89/89/89
f 89/89/89 90/90/90 92/92/92
f 95/95/95 94/94/94 93/93/93
f 93/93/93 94/94/94 96/96/96
f 99/99/99 98/98/98 97/97/97
f 97/97/97 98/98/98 100/100/100
f 103/103/103 102/102/102 101/101/101
f 101/101/101 102/102/102 104/104/104
f 107/107/107 106/106/106 105/105/105
f 105/105/105 106/106/106 108/108/108
f 111/111/111 110/110/110 109/109/109
f 109/109/109 110/110/110 112/112/112
f 115/115/115 114/114/114 113/113/113
f 113/113/113 114/114/114 116/116/116
f 119/119/119 118/118/118 117/117/117
f 117/117/117 118/118/118 120/120/120
f 123/123/123 122/122/122 121/121/121
f 121/121/121 122/122/122 124/124/124
f 127/127/127 126/126/126 125/125/125
f 125/125/125 126/126/126 128/128/128
f 131/131/131 130/130/130 129/129/129
f 129/129/129 130/130/130 132/132/132
f 135/135/135 134/134/134 133/133/133
f 133/133/133 134/134/134 136/136/136
f 139/139/139 138/138/138 137/137/137
f 137/137/137 138/138/138 140/140/140
f 143/143/143 142/142/142 141/141/141
f 141/141/141 142/142/142 144/144/144
f 147/147/147 146/146/146 145/145/145
f 145/145/145 146/146/146 148/148/148
f 151/151/151 150/150/150 149/149/149
f 149/149/149 150/150/150 152/152/152
f 155/155/155 154/154/154 153/153/153
f 153/153/153 154/154/154 156/156/156
f 159/159/159 158/158/158 157/157/157
f 157/157/157 158/158/158 160/160/160
f 163/163/163 162/162/162 161/161/161
f 161/161/161 162/162/162 164/164/164
f 167/167/167 166/166/166 165/165/165
f 165/165/165 166/166/166 168/168/168
f 171/171/171 170/170/170 169/169/169
f 169/169/169 170/170/170 172/172/172
f 175/175/175 174/174/174 173/173/173
f 174/174/174 176/176/176 173/173/173
f 173/173/173 176/176/176 177/177/177
f 178/178/178 173/173/173 177/177/177
f 179/179/179 178/178/178 177/177/177
f 178/178/178 179/179/179 180/180/180
f 176/176/176 181/181/181 177/177/177
f 182/182/182 181/181/181 176/176/176
f 183/183/183 177/177/177 181/181/181
f 184/184/184 177/177/177 183/183/183
f 177/177/177 184/184/184 185/185/185
f 186/186/186 185/185/185 184/184/184
f 187/187/187 185/185/185 186/186/186
f 188/188/188 185/185/185 187/187/187
f 189/189/189 188/188/188 187/187/187
f 190/190/190 188/188/188 189/189/189
f 191/191/191 185/185/185 188/188/188
f 192/192/192 185/185/185 191/191/191
f 192/192/192 191/191/191 193/193/193
f 194/194/194 193/193/193 191/191/191
f 195/195/195 192/192/192 193/193/193
f 196/196/196 192/192/192 195/195/195
f 199/199/199 198/198/198 197/197/197
f 200/200/200 197/197/197 198/198/198
f 200/200/200 201/201/201 197/197/197
f 197/197/197 201/201/201 202/202/202
f 201/201/201 203/203/203 202/202/202
f 204/204/204 200/200/200 198/198/198
f 201/201/201 205/205/205 203/203/203
f 198/198/198 206/206/206 204/204/204
f 204/204/204 206/206/206 205/205/205
f 207/207/207 206/206/206 198/198/198
f 208/208/208 205/205/205 206/206/206
f 203/203/203 205/205/205 208/208/208
f 207/207/207 198/198/198 209/209/209
f 208/208/208 210/210/210 203/203/203
f 207/207/207 209/209/209 211/211/211
f 210/210/210 212/212/212 203/203/203
f 213/213/213 212/212/212 210/210/210
f 214/214/214 213/213/213 210/210/210
f 212/212/212 215/215/215 203/203/203
f 203/203/203 215/215/215 216/216/216
f 211/211/211 217/217/217 215/215/215
f 215/215/215 217/217/217 216/216/216
f 218/218/218 217/217/217 211/211/211
f 211/211/211 209/209/209 218/218/218
f 219/219/219 216/216/216 217/217/217
f 220/220/220 218/218/218 209/209/209
f 221/221/221 216/216/216 219/219/219
f 209/209/209 221/221/221 220/220/220
f 222/222/222 216/216/216 221/221/221
f 209/209/209 222/222/222 221/221/221
f 225/225/225 224/224/224 223/223/223
f 224/224/224 225/225/225 226/226/226
f 227/227/227 224/224/224 226/226/226
f 230/230/230 229/229/229 228/228/228
f 229/229/229 231/231/231 228/228/228
f 231/231/231 229/229/229 232/232/232
f 233/233/233 232/232/232 229/229/229
f 236/236/236 235/235/235 234/234/234
f 237/237/237 234/234/234 235/235/235
f 237/237/237 235/235/235 238/238/238
f 239/239/239 238/238/238 235/235/235
f 242/242/242 241/241/241 240/240/240
f 242/242/242 243/243/243 241/241/241
f 241/241/241 243/243/243 244/244/244
f 245/245/245 244/244/244 243/243/243
f 246/246/246 244/244/244 245/245/245
f 247/247/247 244/244/244 246/246/246
f 250/250/250 249/249/249 248/248/248
f 249/249/249 250/250/250 251/251/251
f 251/251/251 250/250/250 252/252/252
f 255/255/255 254/254/254 253/253/253
f 254/254/254 256/256/256 253/253/253
f 257/257/257 256/256/256 254/254/254
f 256/256/256 257/257/257 258/258/258
f 256/256/256 258/258/258 259/259/259
f 259/259/259 258/258/258 260/260/260
f 261/261/261 260/260/260 258/258/258
f 262/262/262 258/258/258 257/257/257
f 263/263/263 258/258/258 262/262/262
f 263/263/263 262/262/262 264/264/264
f 267/267/267 266/266/266 265/265/265
f 266/266/266 267/267/267 268/268/268
f 269/269/269 266/266/266 268/268/268
f 272/272/272 271/271/271 270/270/270
f 272/272/272 273/273/273 271/271/271
f 274/274/274 271/271/271 273/273/273
f 275/275/275 271/271/271 274/274/274
f 276/276/276 275/275/275 274/274/274
f 277/277/277 275/275/275 276/276/276
f 280/280/280 279/279/279 278/278/278
f 278/278/278 279/279/279 281/281/281
f 284/284/284 283/283/283 282/282/282
f 283/283/283 284/284/284 285/285/285
f 286/286/286 283/283/283 285/285/285
f 289/289/289 288/288/288 287/287/287
f 289/289/289 287/287/287 290/290/290
f 287/287/287 288/288/288 291/291/291
f 287/287/287 292/292/292 290/290/290
f 288/288/288 293/293/293 291/291/291
f 293/293/293 288/288/288 294/294/294
f 294/294/294 295/295/295 293/293/293
f 293/293/293 295/295/295 296/296/296
f 290/290/290 292/292/292 297/297/297
f 295/295/295 297/297/297 296/296/296
f 292/292/292 298/298/298 297/297/297
f 296/296/296 297/297/297 298/298/298
f 301/301/301 300/300/300 299/299/299
f 300/300/300 302/302/302 299/299/299
f 303/303/303 301/301/301 299/299/299
f 304/304/304 301/301/301 303/303/303
f 305/305/305 301/301/301 304/304/304
f 304/304/304 306/306/306 305/305/305
f 304/304/304 307/307/307 306/306/306
f 308/308/308 305/305/305 306/306/306
f 309/309/309 305/305/305 308/308/308
f 308/308/308 302/302/302 309/309/309
f 310/310/310 306/306/306 307/307/307
f 308/308/308 311/311/311 302/302/302
f 312/312/312 310/310/310 307/307/307
f 299/299/299 302/302/302 313/313/313
f 311/311/311 313/313/313 302/302/302
f 314/314/314 299/299/299 313/313/313
f 314/314/314 313/313/313 315/315/315
f 316/316/316 314/314/314 315/315/315
f 317/317/317 313/313/313 311/311/311
f 310/310/310 317/317/317 311/311/311
f 317/317/317 310/310/310 312/312/312
f 316/316/316 315/315/315 318/318/318
f 317/317/317 312/312/312 318/318/318
f 316/316/316 318/318/318 319/319/319
f 312/312/312 319/319/319 318/318/318
f 322/322/322 321/321/321 320/320/320
f 323/323/323 320/320/320 321/321/321
f 322/322/322 320/320/320 324/324/324
f 325/325/325 322/322/322 324/324/324
f 326/326/326 322/322/322 325/325/325
f 327/327/327 326/326/326 325/325/325
f 328/328/328 326/326/326 327/327/327
f 327/327/327 329/329/329 328/328/328
f 329/329/329 330/330/330 328/328/328
f 328/328/328 330/330/330 323/323/323
f 331/331/331 330/330/330 329/329/329
f 332/332/332 330/330/330 331/331/331
f 330/330/330 333/333/333 323/323/323
f 333/333/333 320/320/320 323/323/323
f 332/332/332 331/331/331 334/334/334
f 333/333/333 335/335/335 320/320/320
f 331/331/331 336/336/336 334/334/334
f 335/335/335 333/333/333 337/337/337
f 334/334/334 338/338/338 337/337/337
f 338/338/338 334/334/334 336/336/336
f 338/338/338 339/339/339 337/337/337
f 335/335/335 337/337/337 339/339/339
f 339/339/339 340/340/340 335/335/335
f 336/336/336 341/341/341 338/338/338
f 335/335/335 340/340/340 342/342/342
f 336/336/336 343/343/343 341/341/341
f 343/343/343 336/336/336 344/344/344
f 345/345/345 343/343/343 344/344/344
f 346/346/346 345/345/345 344/344/344
f 347/347/347 341/341/341 343/343/343
f 340/340/340 341/341/341 347/347/347
f 340/340/340 347/347/347 342/342/342
f 348/348/348 345/345/345 346/346/346
f 348/348/348 342/342/342 347/347/347
f 349/349/349 348/348/348 346/346/346
f 349/349/349 342/342/342 348/348/348
f 352/352/352 351/351/351 350/350/350
f 351/351/351 352/352/352 353/353/353
f 353/353/353 354/354/354 351/351/351
f 353/353/353 355/355/355 354/354/354
f 356/356/356 354/354/354 355/355/355
f 357/357/357 354/354/354 356/356/356
f 358/358/358 357/357/357 356/356/356
f 359/359/359 357/357/357 358/358/358
f 351/351/351 359/359/359 350/350/350
f 358/358/358 350/350/350 359/359/359
f 360/360/360 350/350/350 358/358/358
f 360/360/360 361/361/361 350/350/350
f 360/360/360 362/362/362 361/361/361
f 360/360/360 363/363/363 362/362/362
f 362/362/362 363/363/363 364/364/364
f 363/363/363 365/365/365 364/364/364
f 364/364/364 365/365/365 366/366/366
f 365/365/365 367/367/367 366/366/366
f 362/362/362 368/368/368 361/361/361
f 366/366/366 367/367/367 368/368/368
f 369/369/369 361/361/361 368/368/368
f 367/367/367 369/369/369 368/368/368
