g Model_0
v -0.245303 0.174592 0.982343
v -0.390375 0.319664 -0.181194
v -0.460012 0.389301 -0.163829
v -0.314940 0.244229 0.999708
v -0.314940 0.244229 0.999708
v -0.460012 0.389301 -0.163829
v -0.389301 0.460012 -0.163829
v -0.244229 0.314940 0.999708
v -0.244229 0.314940 0.999708
v -0.389301 0.460012 -0.163829
v -0.319665 0.390375 -0.181194
v -0.174593 0.245303 0.982343
v -0.174593 0.245303 0.982343
v -0.319665 0.390375 -0.181194
v -0.390375 0.319664 -0.181194
v -0.245303 0.174592 0.982343
v -0.054469 -0.194872 1.583791
v -0.054469 -0.194872 1.474852
v -0.054469 0.194872 1.474852
v -0.054469 0.194872 1.583791
v -0.054469 0.194872 1.583791
v -0.054469 0.194872 1.474852
v 0.054469 0.194872 1.474852
v 0.054469 0.194872 1.583791
v 0.054469 0.194872 1.583791
v 0.054469 0.194872 1.474852
v 0.054469 -0.194872 1.474852
v 0.054469 -0.194872 1.583791
v 0.054469 -0.194872 1.583791
v 0.054469 -0.194872 1.474852
v -0.054469 -0.194872 1.474852
v -0.054469 -0.194872 1.583791
v 0.054469 -0.194872 1.583791
v -0.054469 -0.194872 1.583791
v -0.054469 0.194872 1.583791
v 0.054469 0.194872 1.583791
v 0.453941 0.453941 0.918994
v -0.453941 0.453941 0.918994
v -0.453941 -0.453941 0.918994
v 0.453941 -0.453941 0.918994
v 0.453941 0.453941 1.524248
v 0.453941 -0.453941 1.524248
v -0.453941 -0.453941 1.524248
v -0.453941 0.453941 1.524248
v 0.605255 0.605254 1.221621
v 0.605254 -0.605255 1.221621
v 0.453941 -0.453941 1.524248
v 0.453941 0.453941 1.524248
v 0.605254 -0.605255 1.221621
v -0.605255 -0.605254 1.221621
v -0.453941 -0.453941 1.524248
v 0.453941 -0.453941 1.524248
v -0.605255 -0.605254 1.221621
v -0.605254 0.605255 1.221621
v -0.453941 0.453941 1.524248
v -0.453941 -0.453941 1.524248
v 0.605255 0.605254 1.221621
v -0.605254 0.605255 1.221621
v -0.453941 0.453941 0.918994
v 0.453941 0.453941 0.918994
v 0.453941 0.453941 0.918994
v 0.453941 -0.453941 0.918994
v 0.605254 -0.605255 1.221621
v 0.605255 0.605254 1.221621
v 0.453941 -0.453941 0.918994
v -0.453941 -0.453941 0.918994
v -0.605255 -0.605254 1.221621
v 0.605254 -0.605255 1.221621
v -0.453941 -0.453941 0.918994
v -0.453941 0.453941 0.918994
v -0.605254 0.605255 1.221621
v -0.605255 -0.605254 1.221621
v 0.453941 0.453941 1.524248
v -0.453941 0.453941 1.524248
v -0.605254 0.605255 1.221621
v 0.605255 0.605254 1.221621
v -0.174592 -0.245303 0.982343
v -0.319664 -0.390376 -0.181194
v -0.389300 -0.460012 -0.163829
v -0.244229 -0.314940 0.999708
v -0.244229 -0.314940 0.999708
v -0.389300 -0.460012 -0.163829
v -0.460011 -0.389302 -0.163829
v -0.314939 -0.244229 0.999708
v -0.314939 -0.244229 0.999708
v -0.460011 -0.389302 -0.163829
v -0.390375 -0.319665 -0.181194
v -0.245303 -0.174593 0.982343
v -0.245303 -0.174593 0.982343
v -0.390375 -0.319665 -0.181194
v -0.319664 -0.390376 -0.181194
v -0.174592 -0.245303 0.982343
v 0.245304 -0.174592 0.982343
v 0.390376 -0.319664 -0.181194
v 0.460012 -0.389300 -0.163829
v 0.314940 -0.244228 0.999708
v 0.314940 -0.244228 0.999708
v 0.460012 -0.389300 -0.163829
v 0.389302 -0.460011 -0.163829
v 0.244230 -0.314939 0.999708
v 0.244230 -0.314939 0.999708
v 0.389302 -0.460011 -0.163829
v 0.319665 -0.390375 -0.181194
v 0.174593 -0.245303 0.982343
v 0.174593 -0.245303 0.982343
v 0.319665 -0.390375 -0.181194
v 0.390376 -0.319664 -0.181194
v 0.245304 -0.174592 0.982343
v 0.174592 0.245304 0.982343
v 0.319664 0.390376 -0.181194
v 0.389300 0.460013 -0.163829
v 0.244228 0.314940 0.999708
v 0.244228 0.314940 0.999708
v 0.389300 0.460013 -0.163829
v 0.460011 0.389302 -0.163829
v 0.314939 0.244230 0.999708
v 0.314939 0.244230 0.999708
v 0.460011 0.389302 -0.163829
v 0.390374 0.319666 -0.181194
v 0.245303 0.174593 0.982343
v 0.245303 0.174593 0.982343
v 0.390374 0.319666 -0.181194
v 0.319664 0.390376 -0.181194
v 0.174592 0.245304 0.982343
v -0.389300 -0.460012 -0.163829
v -0.319664 -0.390376 -0.181194
v -0.390375 -0.319665 -0.181194
v -0.460011 -0.389302 -0.163829
v 0.460012 -0.389300 -0.163829
v 0.390376 -0.319664 -0.181194
v 0.319665 -0.390375 -0.181194
v 0.389302 -0.460011 -0.163829
v -0.460012 0.389301 -0.163829
v -0.390375 0.319664 -0.181194
v -0.319665 0.390375 -0.181194
v -0.389301 0.460012 -0.163829
v 0.319664 0.390376 -0.181194
v 0.390374 0.319666 -0.181194
v 0.389300 0.460013 -0.163829
v 0.460011 0.389302 -0.163829
vt 0.86186564 0.717924416
vt 0.86186564 0.717924416
vt 0.86186564 0.717924416
vt 0.86186564 0.717924416
vt 0.86186564 0.717924416
vt 0.86186564 0.717924416
vt 0.86186564 0.717924416
vt 0.86186564 0.717924416
vt 0.86186564 0.717924416
vt 0.86186564 0.717924416
vt 0.86186564 0.717924416
vt 0.86186564 0.717924416
vt 0.86186564 0.717924416
vt 0.86186564 0.717924416
vt 0.86186564 0.717924416
vt 0.86186564 0.717924416
vt 0.230957538 0.308023065
vt 0.230957538 0.308023065
vt 0.230957538 0.308023065
vt 0.230957538 0.308023065
vt 0.230957538 0.308023065
vt 0.230957538 0.308023065
vt 0.230957538 0.308023065
vt 0.230957538 0.308023065
vt 0.230957538 0.308023065
vt 0.230957538 0.308023065
vt 0.230957538 0.308023065
vt 0.230957538 0.308023065
vt 0.230957538 0.308023065
vt 0.230957538 0.308023065
vt 0.230957538 0.308023065
vt 0.230957538 0.308023065
vt 0.230957538 0.308023065
vt 0.230957538 0.308023065
vt 0.230957538 0.308023065
vt 0.230957538 0.308023065
vt 0.23108235 0.346038669
vt 0.23108235 0.38349247
vt 0.25605157 0.38349247
vt 0.25605157 0.346038669
vt 0.774535179 0.343824595
vt 0.799504399 0.343824595
vt 0.799504399 0.306370795
vt 0.774535179 0.306370795
vt 0.724097371 0.287269354
vt 0.749066591 0.287269354
vt 0.749066591 0.268542469
vt 0.724097371 0.268542469
vt 0.749316335 0.287269354
vt 0.774285436 0.287269354
vt 0.774285436 0.268542469
vt 0.749316335 0.268542469
vt 0.78701973 0.268542469
vt 0.78701973 0.305996239
vt 0.799504399 0.305996239
vt 0.799504399 0.268542469
vt 0.268785864 0.346038669
vt 0.268785864 0.38349247
vt 0.281270415 0.38349241
vt 0.281270415 0.346038669
vt 0.23108235 0.345664114
vt 0.25605157 0.345664114
vt 0.25605157 0.326937228
vt 0.23108235 0.326937228
vt 0.256301314 0.345664114
vt 0.281270415 0.345664114
vt 0.281270415 0.326937228
vt 0.256301314 0.326937228
vt 0.281520158 0.308210343
vt 0.281520158 0.345664114
vt 0.294004709 0.345664114
vt 0.294004709 0.308210343
vt 0.749316335 0.306370795
vt 0.749316335 0.343824595
vt 0.761800885 0.343824595
vt 0.761800885 0.306370795
vt 0.86186564 0.717924416
vt 0.86186564 0.717924416
vt 0.86186564 0.717924416
vt 0.86186564 0.717924416
vt 0.86186564 0.717924416
vt 0.86186564 0.717924416
vt 0.86186564 0.717924416
vt 0.86186564 0.717924416
vt 0.86186564 0.717924416
vt 0.86186564 0.717924416
vt 0.86186564 0.717924416
vt 0.86186564 0.717924416
vt 0.86186564 0.717924416
vt 0.86186564 0.717924416
vt 0.86186564 0.717924416
vt 0.86186564 0.717924416
vt 0.86186564 0.717924416
vt 0.86186564 0.717924416
vt 0.86186564 0.717924416
vt 0.86186564 0.717924416
vt 0.86186564 0.717924416
vt 0.86186564 0.717924416
vt 0.86186564 0.717924416
vt 0.86186564 0.717924416
vt 0.86186564 0.717924416
vt 0.86186564 0.717924416
vt 0.86186564 0.717924416
vt 0.86186564 0.717924416
vt 0.86186564 0.717924416
vt 0.86186564 0.717924416
vt 0.86186564 0.717924416
vt 0.86186564 0.717924416
vt 0.86186564 0.717924416
vt 0.86186564 0.717924416
vt 0.86186564 0.717924416
vt 0.86186564 0.717924416
vt 0.86186564 0.717924416
vt 0.86186564 0.717924416
vt 0.86186564 0.717924416
vt 0.86186564 0.717924416
vt 0.86186564 0.717924416
vt 0.86186564 0.717924416
vt 0.86186564 0.717924416
vt 0.86186564 0.717924416
vt 0.86186564 0.717924416
vt 0.86186564 0.717924416
vt 0.86186564 0.717924416
vt 0.86186564 0.717924416
vt 0.811293662 0.726640463
vt 0.811293662 0.643942475
vt 0.728595614 0.643942475
vt 0.728595674 0.726640522
vt 0.811293602 0.809404612
vt 0.811293602 0.726706624
vt 0.728595614 0.726706624
vt 0.728595614 0.809404731
vt 0.728529453 0.643942475
vt 0.645831406 0.643942475
vt 0.645831466 0.726640463
vt 0.728529453 0.726640463
vt 0.645831406 0.726706624
vt 0.645831406 0.809404612
vt 0.728529453 0.726706624
vt 0.728529394 0.809404612
vn -0.707107 -0.707107 0.000000
vn -0.707107 -0.707107 0.000000
vn -0.707107 -0.707107 0.000000
vn -0.707107 -0.707107 0.000000
vn -0.696365 0.696364 0.173648
vn -0.696365 0.696364 0.173648
vn -0.696365 0.696364 0.173648
vn -0.696365 0.696364 0.173648
vn 0.707107 0.707107 0.000000
vn 0.707107 0.707107 0.000000
vn 0.707107 0.707107 0.000000
vn 0.707107 0.707107 0.000000
vn 0.696364 -0.696364 -0.173648
vn 0.696364 -0.696364 -0.173648
vn 0.696364 -0.696364 -0.173648
vn 0.696364 -0.696364 -0.173648
vn -1.000000 0.000000 0.000000
vn -1.000000 0.000000 0.000000
vn -1.000000 0.000000 0.000000
vn -1.000000 0.000000 0.000000
vn 0.000000 1.000000 0.000000
vn 0.000000 1.000000 0.000000
vn 0.000000 1.000000 0.000000
vn 0.000000 1.000000 0.000000
vn 1.000000 0.000000 0.000000
vn 1.000000 0.000000 0.000000
vn 1.000000 0.000000 0.000000
vn 1.000000 0.000000 0.000000
vn 0.000000 -1.000000 0.000000
vn 0.000000 -1.000000 0.000000
vn 0.000000 -1.000000 0.000000
vn 0.000000 -1.000000 0.000000
vn 0.000000 0.000000 1.000000
vn 0.000000 0.000000 1.000000
vn 0.000000 0.000000 1.000000
vn 0.000000 0.000000 1.000000
vn 0.000000 0.000000 -1.000000
vn 0.000000 0.000000 -1.000000
vn 0.000000 0.000000 -1.000000
vn 0.000000 0.000000 -1.000000
vn 0.000000 0.000000 1.000000
vn 0.000000 0.000000 1.000000
vn 0.000000 0.000000 1.000000
vn 0.000000 0.000000 1.000000
vn 0.894427 0.000000 0.447214
vn 0.894427 0.000000 0.447214
vn 0.894427 0.000000 0.447214
vn 0.894427 0.000000 0.447214
vn 0.000000 -0.894427 0.447214
vn 0.000000 -0.894427 0.447214
vn 0.000000 -0.894427 0.447214
vn 0.000000 -0.894427 0.447214
vn -0.894427 0.000000 0.447214
vn -0.894427 0.000000 0.447214
vn -0.894427 0.000000 0.447214
vn -0.894427 0.000000 0.447214
vn 0.000000 0.894427 -0.447213
vn 0.000000 0.894427 -0.447213
vn 0.000000 0.894427 -0.447213
vn 0.000000 0.894427 -0.447213
vn 0.894427 0.000000 -0.447213
vn 0.894427 0.000000 -0.447213
vn 0.894427 0.000000 -0.447213
vn 0.894427 0.000000 -0.447213
vn 0.000000 -0.894427 -0.447214
vn 0.000000 -0.894427 -0.447214
vn 0.000000 -0.894427 -0.447214
vn 0.000000 -0.894427 -0.447214
vn -0.894427 0.000000 -0.447214
vn -0.894427 0.000000 -0.447214
vn -0.894427 0.000000 -0.447214
vn -0.894427 0.000000 -0.447214
vn 0.000000 0.894427 0.447214
vn 0.000000 0.894427 0.447214
vn 0.000000 0.894427 0.447214
vn 0.000000 0.894427 0.447214
vn 0.707108 -0.707106 0.000000
vn 0.707108 -0.707106 0.000000
vn 0.707108 -0.707106 0.000000
vn 0.707108 -0.707106 0.000000
vn -0.696363 -0.696365 0.173648
vn -0.696363 -0.696365 0.173648
vn -0.696363 -0.696365 0.173648
vn -0.696363 -0.696365 0.173648
vn -0.707108 0.707106 0.000000
vn -0.707108 0.707106 0.000000
vn -0.707108 0.707106 0.000000
vn -0.707108 0.707106 0.000000
vn 0.696363 0.696365 -0.173648
vn 0.696363 0.696365 -0.173648
vn 0.696363 0.696365 -0.173648
vn 0.696363 0.696365 -0.173648
vn 0.707106 0.707108 0.000000
vn 0.707106 0.707108 0.000000
vn 0.707106 0.707108 0.000000
vn 0.707106 0.707108 0.000000
vn 0.696366 -0.696363 0.173648
vn 0.696366 -0.696363 0.173648
vn 0.696366 -0.696363 0.173648
vn 0.696366 -0.696363 0.173648
vn -0.707106 -0.707108 0.000000
vn -0.707106 -0.707108 0.000000
vn -0.707106 -0.707108 0.000000
vn -0.707106 -0.707108 0.000000
vn -0.696366 0.696363 -0.173648
vn -0.696366 0.696363 -0.173648
vn -0.696366 0.696363 -0.173648
vn -0.696366 0.696363 -0.173648
vn -0.707109 0.707105 0.000000
vn -0.707109 0.707105 0.000000
vn -0.707109 0.707105 0.000000
vn -0.707109 0.707105 0.000000
vn 0.696362 0.696366 0.173648
vn 0.696362 0.696366 0.173648
vn 0.696362 0.696366 0.173648
vn 0.696362 0.696366 0.173648
vn 0.707109 -0.707105 0.000000
vn 0.707109 -0.707105 0.000000
vn 0.707109 -0.707105 0.000000
vn 0.707109 -0.707105 0.000000
vn -0.696362 -0.696366 -0.173648
vn -0.696362 -0.696366 -0.173648
vn -0.696362 -0.696366 -0.173648
vn -0.696362 -0.696366 -0.173648
vn -0.122788 -0.122788 -0.984808
vn -0.122788 -0.122788 -0.984808
vn -0.122788 -0.122788 -0.984808
vn -0.122788 -0.122788 -0.984808
vn 0.122788 -0.122788 -0.984808
vn 0.122788 -0.122788 -0.984808
vn 0.122788 -0.122788 -0.984808
vn 0.122788 -0.122788 -0.984808
vn -0.122788 0.122788 -0.984808
vn -0.122788 0.122788 -0.984808
vn -0.122788 0.122788 -0.984808
vn -0.122788 0.122788 -0.984808
vn 0.122788 0.122788 -0.984808
vn 0.122788 0.122788 -0.984808
vn 0.122788 0.122788 -0.984808
vn 0.122788 0.122788 -0.984808
g Model_0_0
f 3/3/3 2/2/2 1/1/1
f 4/4/4 3/3/3 1/1/1
f 7/7/7 6/6/6 5/5/5
f 8/8/8 7/7/7 5/5/5
f 11/11/11 10/10/10 9/9/9
f 12/12/12 11/11/11 9/9/9
f 15/15/15 14/14/14 13/13/13
f 16/16/16 15/15/15 13/13/13
f 19/19/19 18/18/18 17/17/17
f 20/20/20 19/19/19 17/17/17
f 23/23/23 22/22/22 21/21/21
f 24/24/24 23/23/23 21/21/21
f 27/27/27 26/26/26 25/25/25
f 28/28/28 27/27/27 25/25/25
f 31/31/31 30/30/30 29/29/29
f 32/32/32 31/31/31 29/29/29
f 35/35/35 34/34/34 33/33/33
f 36/36/36 35/35/35 33/33/33
f 39/39/39 38/38/38 37/37/37
f 40/40/40 39/39/39 37/37/37
f 43/43/43 42/42/42 41/41/41
f 44/44/44 43/43/43 41/41/41
f 47/47/47 46/46/46 45/45/45
f 48/48/48 47/47/47 45/45/45
f 51/51/51 50/50/50 49/49/49
f 52/52/52 51/51/51 49/49/49
f 55/55/55 54/54/54 53/53/53
f 56/56/56 55/55/55 53/53/53
f 59/59/59 58/58/58 57/57/57
f 60/60/60 59/59/59 57/57/57
f 63/63/63 62/62/62 61/61/61
f 64/64/64 63/63/63 61/61/61
f 67/67/67 66/66/66 65/65/65
f 68/68/68 67/67/67 65/65/65
f 71/71/71 70/70/70 69/69/69
f 72/72/72 71/71/71 69/69/69
f 75/75/75 74/74/74 73/73/73
f 76/76/76 75/75/75 73/73/73
f 79/79/79 78/78/78 77/77/77
f 80/80/80 79/79/79 77/77/77
f 83/83/83 82/82/82 81/81/81
f 84/84/84 83/83/83 81/81/81
f 87/87/87 86/86/86 85/85/85
f 88/88/88 87/87/87 85/85/85
f 91/91/91 90/90/90 89/89/89
f 92/92/92 91/91/91 89/89/89
f 95/95/95 94/94/94 93/93/93
f 96/96/96 95/95/95 93/93/93
f 99/99/99 98/98/98 97/97/97
f 100/100/100 99/99/99 97/97/97
f 103/103/103 102/102/102 101/101/101
f 104/104/104 103/103/103 101/101/101
f 107/107/107 106/106/106 105/105/105
f 108/108/108 107/107/107 105/105/105
f 111/111/111 110/110/110 109/109/109
f 112/112/112 111/111/111 109/109/109
f 115/115/115 114/114/114 113/113/113
f 116/116/116 115/115/115 113/113/113
f 119/119/119 118/118/118 117/117/117
f 120/120/120 119/119/119 117/117/117
f 123/123/123 122/122/122 121/121/121
f 124/124/124 123/123/123 121/121/121
f 127/127/127 126/126/126 125/125/125
f 128/128/128 127/127/127 125/125/125
f 131/131/131 130/130/130 129/129/129
f 132/132/132 131/131/131 129/129/129
f 135/135/135 134/134/134 133/133/133
f 136/136/136 135/135/135 133/133/133
f 139/139/139 138/138/138 137/137/137
f 140/140/140 138/138/138 139/139/139