v 7.500000 -9.999999 -5.000000
v 7.500004 9.999995 5.750000
v 7.500000 10.000000 -5.000000
v 7.499996 -10.000006 5.750000
v -2.319858 -10.524419 10.928185
v 2.319858 10.524418 10.928185
v 2.319855 -10.524429 10.928185
v -2.319857 10.524425 10.928185
v 2.125216 -10.140734 5.630927
v -2.125219 -9.330520 5.630927
v -2.125219 -10.140734 5.630927
v 2.125216 -9.330520 5.630927
v 1.999999 -9.471260 -0.000000
v 7.000001 9.471255 0.000000
v 6.999998 -9.471261 -0.000000
v 2.000002 9.471256 0.000000
v -2.000001 -9.471260 -0.000000
v 1.999997 -10.000002 -0.000000
v -2.000004 -10.000001 -0.000000
v -1.999999 9.471256 0.000000
v 2.000002 9.999998 0.000000
v -1.999999 9.999998 0.000000
v -7.000000 9.471257 0.000000
v -7.000002 -9.471259 -0.000000
v -2.125219 -9.330520 5.630927
v -2.125219 -10.140734 5.865616
v -2.125219 -10.140734 5.630927
v -2.125219 -9.330520 8.392715
v -2.125219 -10.140734 8.642715
v -2.125219 -9.330520 8.642715
v 2.125216 -9.330520 8.392715
v 2.125216 -10.140734 8.642715
v 2.125216 -9.330520 8.642715
v 2.125216 -10.140734 5.865616
v 2.125216 -9.330520 5.630927
v 2.125216 -10.140734 5.630927
v 6.999998 -9.471261 5.750000
v 5.001078 9.471255 8.500000
v 5.001076 -9.471261 8.500000
v 7.000001 9.471255 5.750000
v -7.000000 9.471257 5.750000
v -5.001079 -9.471259 8.500000
v -5.001077 9.471257 8.500000
v -7.000002 -9.471259 5.750000
v 5.315981 10.524418 8.768295
v 2.319855 -10.524429 10.928185
v 2.319858 10.524418 10.928185
v 5.315975 -10.524429 8.768295
v -5.315980 -10.524419 8.768295
v -2.319857 10.524425 10.928185
v -2.319858 -10.524419 10.928185
v -5.315978 10.524425 8.768295
v 5.001078 9.471255 8.500000
v 2.319859 -9.471261 10.500000
v 5.001076 -9.471261 8.500000
v 2.319860 9.471255 10.500000
v -7.500003 -10.524419 5.750000
v -7.000003 -10.000000 5.750000
v -7.500003 -9.999996 5.750000
v -7.000003 -10.524423 5.750000
v 6.999996 -10.524426 5.750000
v 7.499996 -10.000006 5.750000
v 6.999996 -10.000003 5.750000
v 7.499996 -10.524429 5.750000
v -7.499997 10.000004 -5.000000
v -7.500003 -9.999996 5.750000
v -7.500001 -9.999998 -5.000000
v -7.499999 10.000001 5.750000
v 2.319860 10.524420 10.500000
v 0.875000 9.999998 10.500000
v 2.319860 9.999997 10.500000
v -2.319859 10.524423 10.500000
v -0.875000 9.999998 10.500000
v -2.319859 9.999999 10.500000
v -2.319861 -10.000000 10.500000
v -5.001080 -10.524423 8.500000
v -2.319861 -10.524423 10.500000
v -5.001080 -10.000000 8.500000
v 5.001074 -10.000003 8.500000
v 2.319858 -10.524426 10.500000
v 5.001074 -10.524426 8.500000
v 2.319858 -10.000003 10.500000
v -6.999998 10.524423 5.750000
v -7.499999 10.000001 5.750000
v -6.999998 9.999999 5.750000
v -7.499999 10.524425 5.750000
v -5.001080 -10.000000 8.500000
v -7.000003 -10.524423 5.750000
v -5.001080 -10.524423 8.500000
v -7.000003 -10.000000 5.750000
v 6.999998 -9.471261 5.750000
v 7.000001 9.471255 0.000000
v 7.000001 9.471255 5.750000
v 6.999998 -9.471261 -0.000000
v 2.125216 -10.140734 -0.136787
v 2.125216 -9.330520 3.875000
v 2.125216 -9.330520 -0.136787
v 2.125216 -10.140734 3.875000
v -1.899574 9.330520 3.625000
v -1.899574 10.140734 -0.136787
v -1.899574 9.330520 -0.136787
v -1.899574 10.140734 3.625000
v -2.125217 10.140734 3.875000
v 2.125217 9.330520 3.875000
v -2.125217 9.330520 3.875000
v 2.125217 10.140734 3.875000
v 1.899574 10.140734 3.625000
v 1.899574 9.330520 -0.136787
v 1.899574 10.140734 -0.136787
v 1.899574 9.330520 3.625000
v 1.899574 10.140734 -0.136787
v 2.125217 9.330520 -0.136787
v 2.125217 10.140734 -0.136787
v 1.899574 9.330520 -0.136787
v -2.125217 10.140734 -0.136787
v -1.899574 9.330520 -0.136787
v -1.899574 10.140734 -0.136787
v -2.125217 9.330520 -0.136787
v -2.125219 -9.330520 -0.136787
v -2.125219 -10.140734 3.875000
v -2.125219 -10.140734 -0.136787
v -2.125219 -9.330520 3.875000
v -1.899576 -10.140734 3.625000
v -1.899576 -9.330520 -0.136787
v -1.899576 -10.140734 -0.136787
v -1.899576 -9.330520 3.625000
v -1.899576 -10.140734 -0.136787
v -2.125219 -9.330520 -0.136787
v -2.125219 -10.140734 -0.136787
v -1.899576 -9.330520 -0.136787
v 2.125216 -10.140734 -0.136787
v 1.899573 -9.330520 -0.136787
v 1.899573 -10.140734 -0.136787
v 2.125216 -9.330520 -0.136787
v 2.319860 9.471255 10.500000
v 0.874999 -9.471260 10.500000
v 2.319859 -9.471261 10.500000
v 0.875000 9.471256 10.500000
v -0.875001 -9.471260 10.500000
v -0.875000 9.471256 10.500000
v -2.319860 9.471257 10.500000
v -2.319861 -9.471259 10.500000
v -1.899574 10.140734 8.392715
v 1.899574 9.330520 8.392715
v 1.899574 10.140734 8.392715
v -1.899574 9.330520 8.392715
v 2.125216 -10.140734 8.642715
v -2.125219 -9.330520 8.642715
v 2.125216 -9.330520 8.642715
v -2.125219 -10.140734 8.642715
v 1.899574 10.140734 8.392715
v 1.899574 9.330520 5.865616
v 1.899574 10.140734 5.865616
v 1.899574 9.330520 8.392715
v 0.874999 -10.000002 10.500000
v 2.319858 -10.524426 10.500000
v 2.319858 -10.000003 10.500000
v -2.319861 -10.524423 10.500000
v -2.319861 -10.000000 10.500000
v 1.899573 -10.140734 8.392715
v -1.899576 -9.330520 8.392715
v -1.899576 -10.140734 8.392715
v 1.899573 -9.330520 8.392715
v 1.899573 -9.330520 8.392715
v 1.899573 -10.140734 5.865616
v 1.899573 -9.330520 5.865616
v 1.899573 -10.140734 8.392715
v -1.899574 10.140734 8.642715
v -2.125217 9.330520 8.642715
v -2.125217 10.140734 8.642715
v 2.125217 9.330520 8.642715
v 2.125217 10.140734 8.642715
v 2.125217 9.330520 -0.136787
v 2.125217 10.140734 3.875000
v 2.125217 10.140734 -0.136787
v 2.125217 9.330520 3.875000
v -2.125217 10.140734 -0.136787
v -2.125217 9.330520 3.875000
v -2.125217 9.330520 -0.136787
v -2.125217 10.140734 3.875000
v -2.125217 10.140734 5.630927
v -2.125217 9.330520 5.630927
v -1.899574 10.140734 5.630927
v 2.125217 9.330520 5.630927
v 2.125217 10.140734 5.630927
v -7.000000 9.471257 0.000000
v -7.000002 -9.471259 5.750000
v -7.000000 9.471257 5.750000
v -7.000002 -9.471259 -0.000000
v 6.999996 -10.000003 5.750000
v 5.001074 -10.524426 8.500000
v 6.999996 -10.524426 5.750000
v 5.001074 -10.000003 8.500000
v 1.999999 -9.471260 -0.000000
v 6.999998 -9.471261 -0.000000
v 1.999999 -9.471260 3.750000
v 6.999998 -9.471261 5.750000
v 1.999999 -9.471260 5.750000
v 5.001076 -9.471261 8.500000
v -2.000001 -9.471260 5.750000
v 1.999998 -9.471260 8.500000
v 2.319859 -9.471261 10.500000
v 0.874999 -9.471260 10.500000
v -2.000000 -9.471260 8.500000
v -0.875001 -9.471260 10.500000
v -2.319861 -9.471259 10.500000
v -5.001079 -9.471259 8.500000
v -7.000002 -9.471259 5.750000
v -2.000001 -9.471260 3.750000
v -7.000002 -9.471259 -0.000000
v -2.000001 -9.471260 -0.000000
v -5.001079 -9.471259 8.500000
v -2.319860 9.471257 10.500000
v -5.001077 9.471257 8.500000
v -2.319861 -9.471259 10.500000
v -7.500003 -10.524419 5.750000
v -7.500003 -9.999996 5.750000
v -5.315980 -10.524419 8.768295
v -7.499999 10.000001 5.750000
v -5.315978 10.524425 8.768295
v -7.499999 10.524425 5.750000
v 7.500004 10.524418 5.750000
v 7.500004 9.999995 5.750000
v 5.315981 10.524418 8.768295
v 7.499996 -10.000006 5.750000
v 5.315975 -10.524429 8.768295
v 7.499996 -10.524429 5.750000
v 7.500004 10.524418 5.750000
v 7.000003 9.999997 5.750000
v 7.500004 9.999995 5.750000
v 7.000003 10.524420 5.750000
v -1.999999 9.471256 0.000000
v -7.000000 9.471257 0.000000
v -1.999999 9.471256 3.750000
v -7.000000 9.471257 5.750000
v -1.999999 9.471256 5.750000
v -5.001077 9.471257 8.500000
v 2.000002 9.471256 3.750000
v -1.999998 9.471256 8.500000
v -2.319860 9.471257 10.500000
v -0.875000 9.471256 10.500000
v 2.000000 9.471256 8.500000
v 0.875000 9.471256 10.500000
v 2.319860 9.471255 10.500000
v 5.001078 9.471255 8.500000
v 2.000002 9.471256 5.750000
v 7.000001 9.471255 5.750000
v 7.000001 9.471255 0.000000
v 2.000002 9.471256 0.000000
v -2.125217 9.330520 8.392715
v -2.125217 10.140734 8.642715
v -2.125217 9.330520 8.642715
v -2.125217 10.140734 5.630927
v -2.125217 9.330520 5.630927
v -5.001076 9.999999 8.500000
v -2.319859 10.524423 10.500000
v -5.001076 10.524423 8.500000
v -2.319859 9.999999 10.500000
v 2.319860 9.999997 10.500000
v 5.001079 10.524420 8.500000
v 2.319860 10.524420 10.500000
v 5.001079 9.999997 8.500000
v 5.001079 9.999997 8.500000
v 7.000003 10.524420 5.750000
v 5.001079 10.524420 8.500000
v 7.000003 9.999997 5.750000
v -6.999998 9.999999 5.750000
v -5.001076 10.524423 8.500000
v -6.999998 10.524423 5.750000
v -5.001076 9.999999 8.500000
v -1.899574 10.140734 3.625000
v 1.899574 9.330520 3.625000
v 1.899574 10.140734 3.625000
v -1.899574 9.330520 3.625000
v 2.125216 -10.140734 3.875000
v -2.125219 -9.330520 3.875000
v 2.125216 -9.330520 3.875000
v -2.125219 -10.140734 3.875000
v 1.899573 -9.330520 3.625000
v 1.899573 -10.140734 -0.136787
v 1.899573 -9.330520 -0.136787
v 1.899573 -10.140734 3.625000
v 1.899573 -10.140734 3.625000
v -1.899576 -9.330520 3.625000
v -1.899576 -10.140734 3.625000
v 1.899573 -9.330520 3.625000
v 1.899574 9.330520 5.865616
v -1.899574 10.140734 5.865616
v 1.899574 10.140734 5.865616
v -1.899574 9.330520 5.865616
v 2.125217 9.330520 8.392715
v 2.125217 10.140734 5.630927
v 2.125217 9.330520 5.630927
v 2.125217 10.140734 8.642715
v 2.125217 9.330520 8.642715
v -1.899574 9.330520 8.392715
v -1.899574 10.140734 5.865616
v -1.899574 9.330520 5.865616
v -1.899574 10.140734 8.392715
v -1.899576 -9.330520 5.865616
v 1.899573 -10.140734 5.865616
v -1.899576 -10.140734 5.865616
v 1.899573 -9.330520 5.865616
v -1.899576 -10.140734 8.392715
v -1.899576 -9.330520 5.865616
v -1.899576 -10.140734 5.865616
v -1.899576 -9.330520 8.392715
v 7.500004 10.524418 5.750000
v 5.315981 10.524418 8.768295
v 7.000003 10.524420 5.750000
v 5.001079 10.524420 8.500000
v 2.319860 10.524420 10.500000
v 2.319858 10.524418 10.928185
v -2.319859 10.524423 10.500000
v -2.319857 10.524425 10.928185
v -5.315978 10.524425 8.768295
v -5.001076 10.524423 8.500000
v -6.999998 10.524423 5.750000
v -7.499999 10.524425 5.750000
v 1.899574 9.330520 -0.136787
v 1.899574 9.330520 3.625000
v 2.125217 9.330520 -0.136787
v 2.125217 9.330520 3.875000
v -1.899574 9.330520 3.625000
v -2.125217 9.330520 3.875000
v -2.125217 9.330520 -0.136787
v -1.899574 9.330520 -0.136787
v 1.899573 -10.140734 -0.136787
v 1.899573 -10.140734 3.625000
v 2.125216 -10.140734 -0.136787
v 2.125216 -10.140734 3.875000
v -1.899576 -10.140734 3.625000
v -2.125219 -10.140734 3.875000
v -2.125219 -10.140734 -0.136787
v -1.899576 -10.140734 -0.136787
v -1.899576 -9.330520 -0.136787
v -1.899576 -9.330520 3.625000
v -2.125219 -9.330520 -0.136787
v -2.125219 -9.330520 3.875000
v 1.899573 -9.330520 3.625000
v 2.125216 -9.330520 3.875000
v 2.125216 -9.330520 -0.136787
v 1.899573 -9.330520 -0.136787
v 7.499996 -10.524429 5.750000
v 6.999996 -10.524426 5.750000
v 5.315975 -10.524429 8.768295
v 5.001074 -10.524426 8.500000
v 2.319858 -10.524426 10.500000
v 2.319855 -10.524429 10.928185
v -2.319858 -10.524419 10.928185
v -2.319861 -10.524423 10.500000
v -5.315980 -10.524419 8.768295
v -5.001080 -10.524423 8.500000
v -7.000003 -10.524423 5.750000
v -7.500003 -10.524419 5.750000
v 1.899574 10.140734 -0.136787
v 2.125217 10.140734 -0.136787
v 1.899574 10.140734 3.625000
v 2.125217 10.140734 3.875000
v -2.125217 10.140734 3.875000
v -1.899574 10.140734 3.625000
v -2.125217 10.140734 -0.136787
v -1.899574 10.140734 -0.136787
v -1.899576 -10.140734 8.392715
v -2.125219 -10.140734 5.865616
v -2.125219 -10.140734 8.642715
v 2.125216 -10.140734 8.642715
v -1.899576 -10.140734 5.865616
v 1.899573 -10.140734 8.392715
v -2.125219 -10.140734 5.630927
v 2.125216 -10.140734 5.865616
v 1.899573 -10.140734 5.865616
v 2.125216 -10.140734 5.630927
v 2.125216 -9.330520 8.642715
v 1.899573 -9.330520 8.392715
v 2.125216 -9.330520 8.392715
v -2.125219 -9.330520 8.642715
v 1.899573 -9.330520 5.865616
v -1.899576 -9.330520 8.392715
v 2.125216 -9.330520 5.630927
v -2.125219 -9.330520 8.392715
v -1.899576 -9.330520 5.865616
v -2.125219 -9.330520 5.630927
v 1.899574 9.330520 5.865616
v 2.125217 9.330520 8.392715
v 2.125217 9.330520 5.630927
v -2.125217 9.330520 5.630927
v 1.899574 9.330520 8.392715
v -1.899574 9.330520 5.865616
v 2.125217 9.330520 8.642715
v -2.125217 9.330520 8.392715
v -1.899574 9.330520 8.392715
v -2.125217 9.330520 8.642715
v -7.499999 10.000001 5.750000
v -1.999999 9.999998 0.000000
v -6.999998 9.999999 5.750000
v -7.499997 10.000004 -5.000000
v -6.999998 10.000002 -5.000000
v 2.000002 9.999998 0.000000
v 7.000001 10.000001 -5.000000
v 7.500000 10.000000 -5.000000
v 7.500004 9.999995 5.750000
v 7.000003 9.999997 5.750000
v 2.000002 9.999998 3.750000
v -1.999999 9.999998 3.750000
v 2.000002 9.999998 5.750000
v 5.001079 9.999997 8.500000
v -1.999999 9.999998 5.750000
v -5.001076 9.999999 8.500000
v 2.000000 9.999998 8.500000
v -1.999998 9.999998 8.500000
v -2.319859 9.999999 10.500000
v -0.875000 9.999998 10.500000
v 2.319860 9.999997 10.500000
v 0.875000 9.999998 10.500000
v -7.500003 -9.999996 5.750000
v -2.000004 -10.000001 -0.000000
v -7.500001 -9.999998 -5.000000
v -7.000003 -10.000000 5.750000
v 1.999997 -10.000002 -0.000000
v 7.500000 -9.999999 -5.000000
v 7.499996 -10.000006 5.750000
v 6.999996 -10.000003 5.750000
v -2.000004 -10.000001 3.750000
v 1.999997 -10.000002 3.750000
v -2.000004 -10.000001 5.750000
v -5.001080 -10.000000 8.500000
v 1.999997 -10.000002 5.750000
v 5.001074 -10.000003 8.500000
v -2.000003 -10.000001 8.500000
v -2.319861 -10.000000 10.500000
v 0.874999 -10.000002 10.500000
v 1.999995 -10.000002 8.500000
v 2.319858 -10.000003 10.500000
v -1.899574 10.140734 8.642715
v 1.899574 10.140734 8.392715
v 2.125217 10.140734 8.642715
v 2.125217 10.140734 5.630927
v 1.899574 10.140734 5.865616
v -1.899574 10.140734 5.630927
v -1.899574 10.140734 5.865616
v -2.125217 10.140734 5.630927
v -1.899574 10.140734 8.392715
v -2.125217 10.140734 8.642715
vt 0.0728373528 0.901893556
vt 0.0637671053 0.919962883
vt 0.072837323 0.919962883
vt 0.0637671053 0.901893556
vt 0.345526576 0.805329025
vt 0.34131825 0.786312103
vt 0.34131825 0.805329025
vt 0.345526576 0.786312103
vt 0.559916496 0.794606686
vt 0.55918169 0.799049079
vt 0.559916496 0.799049079
vt 0.55918169 0.794606686
vt 0.618961692 0.309826255
vt 0.614728808 0.292712271
vt 0.614728808 0.309826255
vt 0.618961692 0.292712271
vt 0.623194456 0.309826255
vt 0.618961692 0.310303926
vt 0.623194456 0.310303926
vt 0.623194456 0.292712271
vt 0.618961692 0.2922346
vt 0.623194456 0.2922346
vt 0.62742722 0.292712271
vt 0.62742722 0.309826255
vt 0.552680969 0.769222856
vt 0.553415895 0.769434929
vt 0.553415895 0.769222856
vt 0.552680969 0.771943867
vt 0.553415895 0.772169769
vt 0.552680969 0.772169769
vt 0.555620551 0.769448757
vt 0.556355476 0.769222856
vt 0.555620551 0.769222856
vt 0.556355476 0.771957755
vt 0.555620551 0.772169769
vt 0.556355476 0.772169769
vt 0.809738755 0.383200765
vt 0.807017684 0.366086841
vt 0.807017684 0.383200765
vt 0.809738755 0.366086841
vt 0.804296613 0.367034435
vt 0.807017684 0.384148359
vt 0.807017684 0.367034435
vt 0.804296613 0.384148359
vt 0.338600695 0.786312103
vt 0.34131825 0.805329025
vt 0.34131825 0.786312103
vt 0.338600695 0.805329025
vt 0.348244131 0.805329025
vt 0.345526576 0.786312103
vt 0.345526576 0.805329025
vt 0.348244131 0.786312103
vt 0.864181638 0.170047998
vt 0.861749768 0.187161922
vt 0.864181638 0.187161922
vt 0.861749768 0.170047998
vt 0.351540744 0.793424964
vt 0.351994216 0.792951226
vt 0.351540744 0.792951226
vt 0.351994216 0.793424964
vt 0.351994216 0.793424964
vt 0.352447748 0.792951226
vt 0.351994216 0.792951226
vt 0.352447748 0.793424964
vt 0.0975703895 0.901893556
vt 0.0885001421 0.919962883
vt 0.0975703895 0.919962883
vt 0.0885001421 0.901893556
vt 0.292198658 0.872208118
vt 0.291722953 0.870902777
vt 0.291722953 0.872208118
vt 0.292198658 0.868016303
vt 0.291722953 0.869321704
vt 0.291722953 0.868016303
vt 0.32200858 0.812346339
vt 0.321532905 0.809923887
vt 0.321532905 0.812346339
vt 0.32200858 0.809923887
vt 0.32200858 0.818960547
vt 0.321532905 0.816538095
vt 0.321532905 0.818960547
vt 0.32200858 0.816538095
vt 0.322184265 0.838970602
vt 0.321730793 0.839444399
vt 0.322184265 0.839444399
vt 0.321730793 0.838970602
vt 0.371754408 0.802336693
vt 0.372230113 0.805047154
vt 0.372230113 0.802336693
vt 0.371754408 0.805047154
vt 0.872457743 0.800097108
vt 0.876992822 0.782983184
vt 0.872457683 0.782983184
vt 0.876992822 0.800097108
vt 0.55415082 0.769222856
vt 0.554885626 0.772169769
vt 0.554885626 0.769222856
vt 0.55415082 0.772169769
vt 0.617589712 0.743475795
vt 0.616854787 0.746196747
vt 0.617589712 0.746196747
vt 0.616854787 0.743475795
vt 0.619681001 0.768633723
vt 0.618946075 0.76419127
vt 0.618946075 0.768633723
vt 0.619681001 0.76419127
vt 0.617589712 0.746196747
vt 0.618324518 0.743475795
vt 0.617589712 0.743475795
vt 0.618324518 0.746196747
vt 0.612087369 0.742517829
vt 0.612292051 0.743249893
vt 0.612292051 0.742517829
vt 0.612087369 0.743249893
vt 0.612496734 0.742517829
vt 0.612701416 0.743249893
vt 0.612701416 0.742517829
vt 0.612496734 0.743249893
vt 0.554885626 0.769222856
vt 0.555620551 0.772169769
vt 0.555620551 0.769222856
vt 0.554885626 0.772169769
vt 0.559294939 0.772169769
vt 0.560029864 0.769448757
vt 0.559294939 0.769448757
vt 0.560029864 0.772169769
vt 0.55305779 0.769222856
vt 0.552853107 0.768490851
vt 0.552853107 0.769222856
vt 0.55305779 0.768490851
vt 0.553467155 0.769222856
vt 0.553262472 0.768490851
vt 0.553262472 0.769222856
vt 0.553467155 0.768490851
vt 0.861749768 0.170047998
vt 0.860439181 0.187161922
vt 0.861749768 0.187161922
vt 0.860439181 0.170047998
vt 0.85885191 0.187161922
vt 0.85885191 0.170047998
vt 0.857541442 0.170047998
vt 0.857541442 0.187161922
vt 0.608771086 0.742162108
vt 0.60803616 0.746196747
vt 0.608771086 0.746196747
vt 0.60803616 0.742162108
vt 0.55918169 0.799049079
vt 0.559916496 0.803491533
vt 0.559916496 0.799049079
vt 0.55918169 0.803491533
vt 0.629978895 0.75467062
vt 0.630713701 0.752161622
vt 0.629978895 0.752161622
vt 0.630713701 0.75467062
vt 0.32200858 0.815232754
vt 0.321532905 0.816538095
vt 0.32200858 0.816538095
vt 0.321532905 0.812346339
vt 0.32200858 0.812346339
vt 0.551211238 0.768135071
vt 0.550476313 0.772169769
vt 0.551211238 0.772169769
vt 0.550476313 0.768135071
vt 0.570214391 0.780643582
vt 0.570949316 0.778134584
vt 0.570214391 0.778134584
vt 0.570949316 0.780643582
vt 0.619681001 0.77287221
vt 0.618946075 0.773076057
vt 0.619681001 0.773076057
vt 0.618946075 0.768633723
vt 0.619681001 0.768633723
vt 0.616854787 0.746196747
vt 0.616119862 0.743249893
vt 0.616119862 0.746196747
vt 0.616854787 0.743249893
vt 0.612445474 0.743249893
vt 0.613180399 0.746196747
vt 0.613180399 0.743249893
vt 0.612445474 0.746196747
vt 0.618211269 0.768633723
vt 0.618946075 0.768633723
vt 0.618211269 0.768429756
vt 0.618946075 0.76419127
vt 0.618211269 0.76419127
vt 0.862480402 0.783930779
vt 0.867015481 0.801044703
vt 0.867015541 0.783930779
vt 0.862480402 0.801044703
vt 0.360246003 0.825959206
vt 0.360721707 0.828669667
vt 0.360721707 0.825959206
vt 0.360246003 0.828669667
vt 0.905500412 0.788146973
vt 0.905500412 0.783930779
vt 0.902779341 0.788146973
vt 0.900965333 0.783930779
vt 0.900965333 0.788146973
vt 0.898244262 0.78573674
vt 0.900965333 0.792363167
vt 0.898244262 0.788146973
vt 0.896430135 0.788159132
vt 0.896430135 0.789464533
vt 0.898244262 0.792363167
vt 0.896430135 0.791045606
vt 0.896430135 0.792350948
vt 0.898244262 0.79477334
vt 0.900965333 0.796579301
vt 0.902779341 0.792363167
vt 0.905500412 0.796579301
vt 0.905500412 0.792363167
vt 0.855109453 0.187161922
vt 0.857541442 0.170047998
vt 0.855109453 0.170047998
vt 0.857541442 0.187161922
vt 0.327569902 0.805329025
vt 0.327569902 0.804855227
vt 0.324605465 0.805329025
vt 0.327569902 0.786785901
vt 0.324605465 0.786312103
vt 0.327569902 0.786312103
vt 0.302836895 0.805329025
vt 0.302836895 0.804855227
vt 0.299872458 0.805329025
vt 0.302836895 0.786785901
vt 0.299872458 0.786312103
vt 0.302836895 0.786312103
vt 0.322637796 0.838970602
vt 0.322184265 0.839444399
vt 0.322637796 0.839444399
vt 0.322184265 0.838970602
vt 0.914570689 0.788146973
vt 0.914570689 0.783930779
vt 0.911849618 0.788146973
vt 0.910035491 0.783930779
vt 0.910035491 0.788146973
vt 0.90731442 0.78573674
vt 0.911849618 0.792363167
vt 0.90731442 0.788146973
vt 0.905500412 0.788159132
vt 0.905500412 0.789464533
vt 0.90731442 0.792363167
vt 0.905500412 0.791045606
vt 0.905500412 0.792350948
vt 0.90731442 0.79477334
vt 0.910035491 0.792363167
vt 0.910035491 0.796579301
vt 0.914570689 0.796579301
vt 0.914570689 0.792363167
vt 0.615385056 0.743475795
vt 0.616119862 0.743249893
vt 0.615385056 0.743249893
vt 0.616119862 0.746196747
vt 0.615385056 0.746196747
vt 0.291722953 0.86559391
vt 0.292198658 0.868016303
vt 0.292198658 0.86559391
vt 0.291722953 0.868016303
vt 0.291722953 0.872208118
vt 0.292198658 0.874630511
vt 0.292198658 0.872208118
vt 0.291722953 0.874630511
vt 0.342420161 0.848970115
vt 0.342895806 0.851680517
vt 0.342895806 0.848970115
vt 0.342420161 0.851680517
vt 0.341468811 0.848970115
vt 0.341944456 0.851680517
vt 0.341944456 0.848970115
vt 0.341468811 0.851680517
vt 0.60803616 0.742162108
vt 0.607301235 0.746196747
vt 0.60803616 0.746196747
vt 0.607301235 0.742162108
vt 0.55918169 0.785721779
vt 0.559916496 0.790164232
vt 0.559916496 0.785721779
vt 0.55918169 0.790164232
vt 0.559916496 0.801770151
vt 0.560651422 0.799049079
vt 0.559916496 0.799049079
vt 0.560651422 0.801770151
vt 0.548271656 0.768135071
vt 0.54753685 0.772169769
vt 0.548271656 0.772169769
vt 0.54753685 0.768135071
vt 0.610975742 0.746196747
vt 0.610240817 0.742162108
vt 0.610240817 0.746196747
vt 0.610975742 0.742162108
vt 0.610975742 0.745970964
vt 0.611710548 0.743249893
vt 0.610975742 0.743249893
vt 0.611710548 0.746196747
vt 0.610975742 0.746196747
vt 0.619059443 0.745984793
vt 0.619794369 0.743475795
vt 0.619059443 0.743475795
vt 0.619794369 0.745984793
vt 0.549741507 0.768135071
vt 0.550476313 0.772169769
vt 0.550476313 0.768135071
vt 0.549741507 0.772169769
vt 0.559916496 0.804279149
vt 0.560651422 0.801770151
vt 0.559916496 0.801770151
vt 0.560651422 0.804279149
vt 0.380164921 0.810284376
vt 0.377200514 0.812257588
vt 0.380164921 0.81073612
vt 0.37744385 0.812542081
vt 0.375629812 0.814964473
vt 0.375241429 0.814964473
vt 0.375629812 0.819156289
vt 0.375241429 0.819156289
vt 0.377200514 0.821863174
vt 0.37744385 0.821578681
vt 0.380164921 0.823384643
vt 0.380164921 0.823836386
vt 0.619781971 0.796556234
vt 0.617050171 0.796556234
vt 0.619781971 0.796760201
vt 0.616823435 0.796760201
vt 0.617050171 0.792521596
vt 0.616823435 0.792317748
vt 0.619781971 0.792317748
vt 0.619781971 0.792521596
vt 0.550105512 0.822529256
vt 0.547373772 0.822529256
vt 0.550105512 0.822733164
vt 0.547146976 0.822733164
vt 0.547373772 0.818494558
vt 0.547146976 0.81829071
vt 0.550105512 0.81829071
vt 0.550105512 0.818494558
vt 0.546628356 0.821581662
vt 0.543896556 0.821581662
vt 0.546628356 0.821785569
vt 0.54366982 0.821785569
vt 0.543896556 0.817546964
vt 0.54366982 0.817343116
vt 0.546628356 0.817343116
vt 0.546628356 0.817546964
vt 0.360729039 0.824783981
vt 0.360729039 0.824332237
vt 0.357764602 0.822810769
vt 0.358007967 0.822526276
vt 0.3561939 0.820103884
vt 0.355805546 0.820103884
vt 0.355805576 0.815912068
vt 0.3561939 0.815912068
vt 0.357764602 0.813205183
vt 0.358007967 0.813489676
vt 0.360729039 0.811683714
vt 0.360729039 0.811231971
vt 0.635161042 0.755510211
vt 0.635161042 0.755306363
vt 0.632429242 0.755510211
vt 0.632202506 0.755306363
vt 0.632202506 0.759748816
vt 0.632429242 0.759544969
vt 0.635161042 0.759748816
vt 0.635161042 0.759544969
vt 0.571012378 0.800500154
vt 0.57353127 0.800296307
vt 0.570785642 0.800296307
vt 0.570785642 0.8047387
vt 0.57353127 0.800500154
vt 0.571012378 0.804534853
vt 0.573744178 0.800296307
vt 0.57353127 0.8047387
vt 0.57353127 0.804534853
vt 0.573744178 0.8047387
vt 0.550105512 0.81829071
vt 0.550332248 0.818494558
vt 0.550332248 0.81829071
vt 0.550105512 0.822733164
vt 0.5528512 0.818494558
vt 0.550332248 0.822529256
vt 0.553063989 0.81829071
vt 0.550332248 0.822733164
vt 0.5528512 0.822529256
vt 0.553063989 0.822733164
vt 0.632560849 0.773514152
vt 0.630041957 0.773717999
vt 0.632773757 0.773717999
vt 0.632773757 0.769275546
vt 0.630041957 0.773514152
vt 0.632560849 0.769479394
vt 0.629815221 0.773717999
vt 0.630041957 0.769275546
vt 0.630041957 0.769479394
vt 0.629815221 0.769275546
vt 0.0904606879 0.901419759
vt 0.0949957669 0.896751881
vt 0.0904606879 0.900968015
vt 0.0995309055 0.901419759
vt 0.0995309055 0.900968015
vt 0.0949957669 0.892535686
vt 0.0995309055 0.888319492
vt 0.0995309055 0.887867749
vt 0.0904606879 0.887867749
vt 0.0904606879 0.888319492
vt 0.0922746956 0.892535686
vt 0.0922746956 0.896751821
vt 0.0904606879 0.892535686
vt 0.0877395868 0.890125453
vt 0.0904606879 0.896751821
vt 0.0877395868 0.899162054
vt 0.0877395868 0.892535627
vt 0.0877395868 0.896751821
vt 0.0859255493 0.896739662
vt 0.0859255493 0.89543432
vt 0.0859255493 0.892547846
vt 0.0859255493 0.893853188
vt 0.0991410911 0.924953997
vt 0.0944547951 0.929471374
vt 0.0991410911 0.93398869
vt 0.0986875594 0.924953997
vt 0.0902219713 0.929471374
vt 0.0855357051 0.93398869
vt 0.0855357051 0.924953997
vt 0.085989207 0.924953997
vt 0.0944547951 0.926760972
vt 0.0902219713 0.926760972
vt 0.0944547951 0.924953997
vt 0.0968745053 0.922243595
vt 0.0902219713 0.924953997
vt 0.0878022909 0.922243595
vt 0.0944547951 0.922243595
vt 0.0944425762 0.92043668
vt 0.0915447176 0.92043668
vt 0.0902219713 0.922243595
vt 0.0902341902 0.92043668
vt 0.632202506 0.755510211
vt 0.63197577 0.759544969
vt 0.632202506 0.759748816
vt 0.62924397 0.759748816
vt 0.629456878 0.759544969
vt 0.62924397 0.755510211
vt 0.629456878 0.755510211
vt 0.62924397 0.755306363
vt 0.63197577 0.755510211
vt 0.632202506 0.755306363
vn 1.000000 0.000000 0.000000
vn 1.000000 0.000000 0.000000
vn 1.000000 0.000000 0.000000
vn 1.000000 0.000000 0.000000
vn 0.000000 -0.000000 1.000000
vn 0.000000 -0.000000 1.000000
vn 0.000000 -0.000000 1.000000
vn 0.000000 -0.000000 1.000000
vn 0.000000 0.000000 -1.000000
vn 0.000000 0.000000 -1.000000
vn 0.000000 0.000000 -1.000000
vn 0.000000 0.000000 -1.000000
vn 0.000000 -0.000000 1.000000
vn 0.000000 -0.000000 1.000000
vn 0.000000 -0.000000 1.000000
vn 0.000000 -0.000000 1.000000
vn 0.000000 -0.000000 1.000000
vn 0.000000 -0.000000 1.000000
vn 0.000000 -0.000000 1.000000
vn 0.000000 -0.000000 1.000000
vn 0.000000 -0.000000 1.000000
vn 0.000000 -0.000000 1.000000
vn 0.000000 -0.000000 1.000000
vn 0.000000 -0.000000 1.000000
vn -1.000000 0.000000 0.000000
vn -1.000000 0.000000 0.000000
vn -1.000000 0.000000 0.000000
vn -1.000000 0.000000 0.000000
vn -1.000000 0.000000 0.000000
vn -1.000000 0.000000 0.000000
vn 1.000000 0.000000 0.000000
vn 1.000000 0.000000 0.000000
vn 1.000000 0.000000 0.000000
vn 1.000000 0.000000 0.000000
vn 1.000000 0.000000 0.000000
vn 1.000000 0.000000 0.000000
vn -0.808887 0.000000 -0.587964
vn -0.808887 0.000000 -0.587965
vn -0.808887 0.000000 -0.587964
vn -0.808887 0.000000 -0.587965
vn 0.808887 0.000000 -0.587964
vn 0.808887 0.000000 -0.587965
vn 0.808887 0.000000 -0.587964
vn 0.808887 0.000000 -0.587965
vn 0.584783 -0.000000 0.811190
vn 0.584783 -0.000000 0.811190
vn 0.584783 -0.000000 0.811190
vn 0.584783 -0.000000 0.811190
vn -0.584783 -0.000000 0.811190
vn -0.584783 -0.000000 0.811190
vn -0.584783 -0.000000 0.811190
vn -0.584783 -0.000000 0.811190
vn -0.597910 0.000000 -0.801563
vn -0.597910 0.000000 -0.801563
vn -0.597910 0.000000 -0.801563
vn -0.597910 0.000000 -0.801563
vn 0.000000 0.000000 -1.000000
vn 0.000000 0.000000 -1.000000
vn 0.000000 0.000000 -1.000000
vn 0.000000 0.000000 -1.000000
vn 0.000000 0.000000 -1.000000
vn 0.000000 0.000000 -1.000000
vn 0.000000 0.000000 -1.000000
vn 0.000000 0.000000 -1.000000
vn -1.000000 0.000000 0.000000
vn -1.000000 0.000000 0.000000
vn -1.000000 0.000000 0.000000
vn -1.000000 0.000000 0.000000
vn 0.000000 0.000000 -1.000000
vn 0.000000 0.000000 -1.000000
vn 0.000000 0.000000 -1.000000
vn 0.000000 0.000000 -1.000000
vn 0.000000 0.000000 -1.000000
vn 0.000000 0.000000 -1.000000
vn 0.597910 0.000000 -0.801563
vn 0.597910 0.000000 -0.801563
vn 0.597910 0.000000 -0.801563
vn 0.597910 0.000000 -0.801563
vn -0.597910 0.000000 -0.801563
vn -0.597910 0.000000 -0.801563
vn -0.597910 0.000000 -0.801563
vn -0.597910 0.000000 -0.801563
vn 0.000000 0.000000 -1.000000
vn 0.000000 0.000000 -1.000000
vn 0.000000 0.000000 -1.000000
vn 0.000000 0.000000 -1.000000
vn 0.808887 0.000000 -0.587965
vn 0.808887 0.000000 -0.587965
vn 0.808887 0.000000 -0.587965
vn 0.808887 0.000000 -0.587965
vn -1.000000 0.000000 0.000000
vn -1.000000 0.000000 0.000000
vn -1.000000 0.000000 0.000000
vn -1.000000 0.000000 0.000000
vn 1.000000 0.000000 0.000000
vn 1.000000 0.000000 0.000000
vn 1.000000 0.000000 0.000000
vn 1.000000 0.000000 0.000000
vn 1.000000 0.000000 0.000000
vn 1.000000 0.000000 0.000000
vn 1.000000 0.000000 0.000000
vn 1.000000 0.000000 0.000000
vn 0.000000 -0.000000 1.000000
vn 0.000000 -0.000000 1.000000
vn 0.000000 -0.000000 1.000000
vn 0.000000 -0.000000 1.000000
vn -1.000000 0.000000 0.000000
vn -1.000000 0.000000 0.000000
vn -1.000000 0.000000 0.000000
vn -1.000000 0.000000 0.000000
vn 0.000000 0.000000 -1.000000
vn 0.000000 0.000000 -1.000000
vn 0.000000 0.000000 -1.000000
vn 0.000000 0.000000 -1.000000
vn 0.000000 0.000000 -1.000000
vn 0.000000 0.000000 -1.000000
vn 0.000000 0.000000 -1.000000
vn 0.000000 0.000000 -1.000000
vn -1.000000 0.000000 0.000000
vn -1.000000 0.000000 0.000000
vn -1.000000 0.000000 0.000000
vn -1.000000 0.000000 0.000000
vn 1.000000 0.000000 0.000000
vn 1.000000 0.000000 0.000000
vn 1.000000 0.000000 0.000000
vn 1.000000 0.000000 0.000000
vn 0.000000 0.000000 -1.000000
vn 0.000000 0.000000 -1.000000
vn 0.000000 0.000000 -1.000000
vn 0.000000 0.000000 -1.000000
vn 0.000000 0.000000 -1.000000
vn 0.000000 0.000000 -1.000000
vn 0.000000 0.000000 -1.000000
vn 0.000000 0.000000 -1.000000
vn 0.000000 0.000000 -1.000000
vn 0.000000 0.000000 -1.000000
vn 0.000000 0.000000 -1.000000
vn 0.000000 0.000000 -1.000000
vn 0.000000 0.000000 -1.000000
vn 0.000000 0.000000 -1.000000
vn 0.000000 0.000000 -1.000000
vn 0.000000 0.000000 -1.000000
vn 0.000000 0.000000 -1.000000
vn 0.000000 0.000000 -1.000000
vn 0.000000 0.000000 -1.000000
vn 0.000000 0.000000 -1.000000
vn 0.000000 -0.000000 1.000000
vn 0.000000 -0.000000 1.000000
vn 0.000000 -0.000000 1.000000
vn 0.000000 -0.000000 1.000000
vn -1.000000 0.000000 0.000000
vn -1.000000 0.000000 0.000000
vn -1.000000 0.000000 0.000000
vn -1.000000 0.000000 0.000000
vn 0.000000 0.000000 -1.000000
vn 0.000000 0.000000 -1.000000
vn 0.000000 0.000000 -1.000000
vn 0.000000 0.000000 -1.000000
vn 0.000000 0.000000 -1.000000
vn 0.000000 0.000000 -1.000000
vn 0.000000 0.000000 -1.000000
vn 0.000000 0.000000 -1.000000
vn 0.000000 0.000000 -1.000000
vn -1.000000 0.000000 0.000000
vn -1.000000 0.000000 0.000000
vn -1.000000 0.000000 0.000000
vn -1.000000 0.000000 0.000000
vn 0.000000 -0.000000 1.000000
vn 0.000000 -0.000000 1.000000
vn 0.000000 -0.000000 1.000000
vn 0.000000 -0.000000 1.000000
vn 0.000000 -0.000000 1.000000
vn 1.000000 0.000000 0.000000
vn 1.000000 0.000000 0.000000
vn 1.000000 0.000000 0.000000
vn 1.000000 0.000000 0.000000
vn -1.000000 0.000000 0.000000
vn -1.000000 0.000000 0.000000
vn -1.000000 0.000000 0.000000
vn -1.000000 0.000000 0.000000
vn 0.000000 0.000000 -1.000000
vn 0.000000 0.000000 -1.000000
vn 0.000000 0.000000 -1.000000
vn 0.000000 0.000000 -1.000000
vn 0.000000 0.000000 -1.000000
vn 1.000000 0.000000 0.000000
vn 1.000000 0.000000 0.000000
vn 1.000000 0.000000 0.000000
vn 1.000000 0.000000 0.000000
vn -0.808887 0.000000 -0.587964
vn -0.808887 0.000000 -0.587964
vn -0.808887 0.000000 -0.587964
vn -0.808887 0.000000 -0.587964
vn 0.000000 1.000000 0.000000
vn 0.000000 1.000000 0.000000
vn 0.000000 1.000000 0.000000
vn 0.000000 1.000000 0.000000
vn 0.000000 1.000000 0.000000
vn 0.000000 1.000000 0.000000
vn 0.000000 1.000000 0.000000
vn 0.000000 1.000000 0.000000
vn 0.000000 1.000000 0.000000
vn 0.000000 1.000000 0.000000
vn 0.000000 1.000000 0.000000
vn 0.000000 1.000000 0.000000
vn 0.000000 1.000000 0.000000
vn 0.000000 1.000000 0.000000
vn 0.000000 1.000000 0.000000
vn 0.000000 1.000000 0.000000
vn 0.000000 1.000000 0.000000
vn 0.000000 1.000000 0.000000
vn 0.597910 0.000000 -0.801563
vn 0.597910 0.000000 -0.801563
vn 0.597910 0.000000 -0.801563
vn 0.597910 0.000000 -0.801563
vn -0.810151 -0.000000 0.586221
vn -0.810151 -0.000000 0.586221
vn -0.810151 -0.000000 0.586221
vn -0.810151 -0.000000 0.586221
vn -0.810151 -0.000000 0.586221
vn -0.810151 -0.000000 0.586221
vn 0.810151 -0.000000 0.586221
vn 0.810151 -0.000000 0.586221
vn 0.810151 -0.000000 0.586221
vn 0.810151 -0.000000 0.586221
vn 0.810151 -0.000000 0.586221
vn 0.810151 -0.000000 0.586221
vn 0.000000 0.000000 -1.000000
vn 0.000000 0.000000 -1.000000
vn 0.000000 0.000000 -1.000000
vn 0.000000 0.000000 -1.000000
vn 0.000000 -1.000000 -0.000000
vn 0.000000 -1.000000 -0.000000
vn 0.000000 -1.000000 -0.000000
vn 0.000000 -1.000000 -0.000000
vn 0.000000 -1.000000 -0.000000
vn 0.000000 -1.000000 -0.000000
vn 0.000000 -1.000000 -0.000000
vn 0.000000 -1.000000 -0.000000
vn 0.000000 -1.000000 -0.000000
vn 0.000000 -1.000000 -0.000000
vn 0.000000 -1.000000 -0.000000
vn 0.000000 -1.000000 -0.000000
vn 0.000000 -1.000000 -0.000000
vn 0.000000 -1.000000 -0.000000
vn 0.000000 -1.000000 -0.000000
vn 0.000000 -1.000000 -0.000000
vn 0.000000 -1.000000 -0.000000
vn 0.000000 -1.000000 -0.000000
vn -1.000000 0.000000 0.000000
vn -1.000000 0.000000 0.000000
vn -1.000000 0.000000 0.000000
vn -1.000000 0.000000 0.000000
vn -1.000000 0.000000 0.000000
vn 0.597910 0.000000 -0.801563
vn 0.597910 0.000000 -0.801563
vn 0.597910 0.000000 -0.801563
vn 0.597910 0.000000 -0.801563
vn -0.597910 0.000000 -0.801563
vn -0.597910 0.000000 -0.801563
vn -0.597910 0.000000 -0.801563
vn -0.597910 0.000000 -0.801563
vn -0.808887 0.000000 -0.587965
vn -0.808887 0.000000 -0.587965
vn -0.808887 0.000000 -0.587965
vn -0.808887 0.000000 -0.587965
vn 0.808887 0.000000 -0.587964
vn 0.808887 0.000000 -0.587964
vn 0.808887 0.000000 -0.587964
vn 0.808887 0.000000 -0.587964
vn 0.000000 0.000000 -1.000000
vn 0.000000 0.000000 -1.000000
vn 0.000000 0.000000 -1.000000
vn 0.000000 0.000000 -1.000000
vn 0.000000 -0.000000 1.000000
vn 0.000000 -0.000000 1.000000
vn 0.000000 -0.000000 1.000000
vn 0.000000 -0.000000 1.000000
vn -1.000000 0.000000 0.000000
vn -1.000000 0.000000 0.000000
vn -1.000000 0.000000 0.000000
vn -1.000000 0.000000 0.000000
vn 0.000000 0.000000 -1.000000
vn 0.000000 0.000000 -1.000000
vn 0.000000 0.000000 -1.000000
vn 0.000000 0.000000 -1.000000
vn 0.000000 -0.000000 1.000000
vn 0.000000 -0.000000 1.000000
vn 0.000000 -0.000000 1.000000
vn 0.000000 -0.000000 1.000000
vn 1.000000 0.000000 0.000000
vn 1.000000 0.000000 0.000000
vn 1.000000 0.000000 0.000000
vn 1.000000 0.000000 0.000000
vn 1.000000 0.000000 0.000000
vn 1.000000 0.000000 0.000000
vn 1.000000 0.000000 0.000000
vn 1.000000 0.000000 0.000000
vn 1.000000 0.000000 0.000000
vn 0.000000 -0.000000 1.000000
vn 0.000000 -0.000000 1.000000
vn 0.000000 -0.000000 1.000000
vn 0.000000 -0.000000 1.000000
vn 1.000000 0.000000 0.000000
vn 1.000000 0.000000 0.000000
vn 1.000000 0.000000 0.000000
vn 1.000000 0.000000 0.000000
vn 0.000000 1.000000 0.000000
vn 0.000000 1.000000 0.000000
vn 0.000000 1.000000 0.000000
vn 0.000000 1.000000 0.000000
vn 0.000000 1.000000 0.000000
vn 0.000000 1.000000 0.000000
vn 0.000000 1.000000 0.000000
vn 0.000000 1.000000 0.000000
vn 0.000000 1.000000 0.000000
vn 0.000000 1.000000 0.000000
vn 0.000000 1.000000 0.000000
vn 0.000000 1.000000 0.000000
vn 0.000000 -1.000000 -0.000000
vn 0.000000 -1.000000 -0.000000
vn 0.000000 -1.000000 -0.000000
vn 0.000000 -1.000000 -0.000000
vn 0.000000 -1.000000 -0.000000
vn 0.000000 -1.000000 -0.000000
vn 0.000000 -1.000000 -0.000000
vn 0.000000 -1.000000 -0.000000
vn 0.000000 -1.000000 -0.000000
vn 0.000000 -1.000000 -0.000000
vn 0.000000 -1.000000 -0.000000
vn 0.000000 -1.000000 -0.000000
vn 0.000000 -1.000000 -0.000000
vn 0.000000 -1.000000 -0.000000
vn 0.000000 -1.000000 -0.000000
vn 0.000000 -1.000000 -0.000000
vn 0.000000 1.000000 0.000000
vn 0.000000 1.000000 0.000000
vn 0.000000 1.000000 0.000000
vn 0.000000 1.000000 0.000000
vn 0.000000 1.000000 0.000000
vn 0.000000 1.000000 0.000000
vn 0.000000 1.000000 0.000000
vn 0.000000 1.000000 0.000000
vn 0.000000 -1.000000 -0.000000
vn 0.000000 -1.000000 -0.000000
vn 0.000000 -1.000000 -0.000000
vn 0.000000 -1.000000 -0.000000
vn 0.000000 -1.000000 -0.000000
vn 0.000000 -1.000000 -0.000000
vn 0.000000 -1.000000 -0.000000
vn 0.000000 -1.000000 -0.000000
vn 0.000000 -1.000000 -0.000000
vn 0.000000 -1.000000 -0.000000
vn 0.000000 -1.000000 -0.000000
vn 0.000000 -1.000000 -0.000000
vn 0.000000 1.000000 0.000000
vn 0.000000 1.000000 0.000000
vn 0.000000 1.000000 0.000000
vn 0.000000 1.000000 0.000000
vn 0.000000 1.000000 0.000000
vn 0.000000 1.000000 0.000000
vn 0.000000 1.000000 0.000000
vn 0.000000 1.000000 0.000000
vn 0.000000 -1.000000 -0.000000
vn 0.000000 -1.000000 -0.000000
vn 0.000000 -1.000000 -0.000000
vn 0.000000 -1.000000 -0.000000
vn 0.000000 -1.000000 -0.000000
vn 0.000000 -1.000000 -0.000000
vn 0.000000 -1.000000 -0.000000
vn 0.000000 -1.000000 -0.000000
vn 0.000000 -1.000000 -0.000000
vn 0.000000 -1.000000 -0.000000
vn 0.000000 1.000000 0.000000
vn 0.000000 1.000000 0.000000
vn 0.000000 1.000000 0.000000
vn 0.000000 1.000000 0.000000
vn 0.000000 1.000000 0.000000
vn 0.000000 1.000000 0.000000
vn 0.000000 1.000000 0.000000
vn 0.000000 1.000000 0.000000
vn 0.000000 1.000000 0.000000
vn 0.000000 1.000000 0.000000
vn 0.000000 -1.000000 -0.000000
vn 0.000000 -1.000000 -0.000000
vn 0.000000 -1.000000 -0.000000
vn 0.000000 -1.000000 -0.000000
vn 0.000000 -1.000000 -0.000000
vn 0.000000 -1.000000 -0.000000
vn 0.000000 -1.000000 -0.000000
vn 0.000000 -1.000000 -0.000000
vn 0.000000 -1.000000 -0.000000
vn 0.000000 -1.000000 -0.000000
vn 0.000000 1.000000 0.000000
vn 0.000000 1.000000 0.000000
vn 0.000000 1.000000 0.000000
vn 0.000000 1.000000 0.000000
vn 0.000000 1.000000 0.000000
vn 0.000000 1.000000 0.000000
vn 0.000000 1.000000 0.000000
vn 0.000000 1.000000 0.000000
vn 0.000000 1.000000 0.000000
vn 0.000000 1.000000 0.000000
vn 0.000000 1.000000 0.000000
vn 0.000000 1.000000 0.000000
vn 0.000000 1.000000 0.000000
vn 0.000000 1.000000 0.000000
vn 0.000000 1.000000 0.000000
vn 0.000000 1.000000 0.000000
vn 0.000000 1.000000 0.000000
vn 0.000000 1.000000 0.000000
vn 0.000000 1.000000 0.000000
vn 0.000000 1.000000 0.000000
vn 0.000000 1.000000 0.000000
vn 0.000000 1.000000 0.000000
vn 0.000000 -1.000000 -0.000000
vn 0.000000 -1.000000 -0.000000
vn 0.000000 -1.000000 -0.000000
vn 0.000000 -1.000000 -0.000000
vn 0.000000 -1.000000 -0.000000
vn 0.000000 -1.000000 -0.000000
vn 0.000000 -1.000000 -0.000000
vn 0.000000 -1.000000 -0.000000
vn 0.000000 -1.000000 -0.000000
vn 0.000000 -1.000000 -0.000000
vn 0.000000 -1.000000 -0.000000
vn 0.000000 -1.000000 -0.000000
vn 0.000000 -1.000000 -0.000000
vn 0.000000 -1.000000 -0.000000
vn 0.000000 -1.000000 -0.000000
vn 0.000000 -1.000000 -0.000000
vn 0.000000 -1.000000 -0.000000
vn 0.000000 -1.000000 -0.000000
vn 0.000000 -1.000000 -0.000000
vn 0.000000 1.000000 0.000000
vn 0.000000 1.000000 0.000000
vn 0.000000 1.000000 0.000000
vn 0.000000 1.000000 0.000000
vn 0.000000 1.000000 0.000000
vn 0.000000 1.000000 0.000000
vn 0.000000 1.000000 0.000000
vn 0.000000 1.000000 0.000000
vn 0.000000 1.000000 0.000000
vn 0.000000 1.000000 0.000000
f 3/3/3 2/2/2 1/1/1
f 1/1/1 2/2/2 4/4/4
f 7/7/7 6/6/6 5/5/5
f 5/5/5 6/6/6 8/8/8
f 11/11/11 10/10/10 9/9/9
f 9/9/9 10/10/10 12/12/12
f 15/15/15 14/14/14 13/13/13
f 13/13/13 14/14/14 16/16/16
f 16/16/16 17/17/17 13/13/13
f 13/13/13 17/17/17 18/18/18
f 18/18/18 17/17/17 19/19/19
f 20/20/20 17/17/17 16/16/16
f 16/16/16 21/21/21 20/20/20
f 20/20/20 21/21/21 22/22/22
f 20/20/20 23/23/23 17/17/17
f 17/17/17 23/23/23 24/24/24
f 27/27/27 26/26/26 25/25/25
f 25/25/25 26/26/26 28/28/28
f 26/26/26 29/29/29 28/28/28
f 28/28/28 29/29/29 30/30/30
f 33/33/33 32/32/32 31/31/31
f 31/31/31 32/32/32 34/34/34
f 31/31/31 34/34/34 35/35/35
f 35/35/35 34/34/34 36/36/36
f 39/39/39 38/38/38 37/37/37
f 37/37/37 38/38/38 40/40/40
f 43/43/43 42/42/42 41/41/41
f 41/41/41 42/42/42 44/44/44
f 47/47/47 46/46/46 45/45/45
f 45/45/45 46/46/46 48/48/48
f 51/51/51 50/50/50 49/49/49
f 49/49/49 50/50/50 52/52/52
f 55/55/55 54/54/54 53/53/53
f 53/53/53 54/54/54 56/56/56
f 59/59/59 58/58/58 57/57/57
f 57/57/57 58/58/58 60/60/60
f 63/63/63 62/62/62 61/61/61
f 61/61/61 62/62/62 64/64/64
f 67/67/67 66/66/66 65/65/65
f 65/65/65 66/66/66 68/68/68
f 71/71/71 70/70/70 69/69/69
f 70/70/70 72/72/72 69/69/69
f 70/70/70 73/73/73 72/72/72
f 72/72/72 73/73/73 74/74/74
f 77/77/77 76/76/76 75/75/75
f 75/75/75 76/76/76 78/78/78
f 81/81/81 80/80/80 79/79/79
f 79/79/79 80/80/80 82/82/82
f 85/85/85 84/84/84 83/83/83
f 83/83/83 84/84/84 86/86/86
f 89/89/89 88/88/88 87/87/87
f 87/87/87 88/88/88 90/90/90
f 93/93/93 92/92/92 91/91/91
f 91/91/91 92/92/92 94/94/94
f 97/97/97 96/96/96 95/95/95
f 95/95/95 96/96/96 98/98/98
f 101/101/101 100/100/100 99/99/99
f 99/99/99 100/100/100 102/102/102
f 105/105/105 104/104/104 103/103/103
f 103/103/103 104/104/104 106/106/106
f 109/109/109 108/108/108 107/107/107
f 107/107/107 108/108/108 110/110/110
f 113/113/113 112/112/112 111/111/111
f 111/111/111 112/112/112 114/114/114
f 117/117/117 116/116/116 115/115/115
f 115/115/115 116/116/116 118/118/118
f 121/121/121 120/120/120 119/119/119
f 119/119/119 120/120/120 122/122/122
f 125/125/125 124/124/124 123/123/123
f 123/123/123 124/124/124 126/126/126
f 129/129/129 128/128/128 127/127/127
f 127/127/127 128/128/128 130/130/130
f 133/133/133 132/132/132 131/131/131
f 131/131/131 132/132/132 134/134/134
f 137/137/137 136/136/136 135/135/135
f 135/135/135 136/136/136 138/138/138
f 139/139/139 138/138/138 136/136/136
f 140/140/140 138/138/138 139/139/139
f 139/139/139 141/141/141 140/140/140
f 142/142/142 141/141/141 139/139/139
f 145/145/145 144/144/144 143/143/143
f 143/143/143 144/144/144 146/146/146
f 149/149/149 148/148/148 147/147/147
f 147/147/147 148/148/148 150/150/150
f 153/153/153 152/152/152 151/151/151
f 151/151/151 152/152/152 154/154/154
f 157/157/157 156/156/156 155/155/155
f 156/156/156 158/158/158 155/155/155
f 155/155/155 158/158/158 159/159/159
f 162/162/162 161/161/161 160/160/160
f 160/160/160 161/161/161 163/163/163
f 166/166/166 165/165/165 164/164/164
f 164/164/164 165/165/165 167/167/167
f 170/170/170 169/169/169 168/168/168
f 169/169/169 171/171/171 168/168/168
f 168/168/168 171/171/171 172/172/172
f 175/175/175 174/174/174 173/173/173
f 173/173/173 174/174/174 176/176/176
f 179/179/179 178/178/178 177/177/177
f 177/177/177 178/178/178 180/180/180
f 183/183/183 182/182/182 181/181/181
f 182/182/182 183/183/183 184/184/184
f 184/184/184 183/183/183 185/185/185
f 188/188/188 187/187/187 186/186/186
f 186/186/186 187/187/187 189/189/189
f 192/192/192 191/191/191 190/190/190
f 190/190/190 191/191/191 193/193/193
f 196/196/196 195/195/195 194/194/194
f 195/195/195 196/196/196 197/197/197
f 197/197/197 196/196/196 198/198/198
f 197/197/197 198/198/198 199/199/199
f 196/196/196 200/200/200 198/198/198
f 199/199/199 198/198/198 201/201/201
f 202/202/202 199/199/199 201/201/201
f 202/202/202 201/201/201 203/203/203
f 203/203/203 201/201/201 204/204/204
f 205/205/205 203/203/203 204/204/204
f 204/204/204 206/206/206 205/205/205
f 207/207/207 206/206/206 204/204/204
f 204/204/204 200/200/200 207/207/207
f 207/207/207 200/200/200 208/208/208
f 209/209/209 200/200/200 196/196/196
f 208/208/208 200/200/200 209/209/209
f 208/208/208 209/209/209 210/210/210
f 210/210/210 209/209/209 211/211/211
f 214/214/214 213/213/213 212/212/212
f 212/212/212 213/213/213 215/215/215
f 218/218/218 217/217/217 216/216/216
f 219/219/219 217/217/217 218/218/218
f 218/218/218 220/220/220 219/219/219
f 219/219/219 220/220/220 221/221/221
f 224/224/224 223/223/223 222/222/222
f 225/225/225 223/223/223 224/224/224
f 224/224/224 226/226/226 225/225/225
f 225/225/225 226/226/226 227/227/227
f 230/230/230 229/229/229 228/228/228
f 228/228/228 229/229/229 231/231/231
f 234/234/234 233/233/233 232/232/232
f 234/234/234 235/235/235 233/233/233
f 236/236/236 235/235/235 234/234/234
f 235/235/235 236/236/236 237/237/237
f 234/234/234 238/238/238 236/236/236
f 237/237/237 236/236/236 239/239/239
f 240/240/240 237/237/237 239/239/239
f 240/240/240 239/239/239 241/241/241
f 241/241/241 239/239/239 242/242/242
f 243/243/243 241/241/241 242/242/242
f 242/242/242 244/244/244 243/243/243
f 245/245/245 244/244/244 242/242/242
f 242/242/242 246/246/246 245/245/245
f 236/236/236 238/238/238 246/246/246
f 245/245/245 246/246/246 247/247/247
f 247/247/247 246/246/246 238/238/238
f 247/247/247 238/238/238 248/248/248
f 248/248/248 238/238/238 249/249/249
f 252/252/252 251/251/251 250/250/250
f 251/251/251 253/253/253 250/250/250
f 250/250/250 253/253/253 254/254/254
f 257/257/257 256/256/256 255/255/255
f 255/255/255 256/256/256 258/258/258
f 261/261/261 260/260/260 259/259/259
f 259/259/259 260/260/260 262/262/262
f 265/265/265 264/264/264 263/263/263
f 263/263/263 264/264/264 266/266/266
f 269/269/269 268/268/268 267/267/267
f 267/267/267 268/268/268 270/270/270
f 273/273/273 272/272/272 271/271/271
f 271/271/271 272/272/272 274/274/274
f 277/277/277 276/276/276 275/275/275
f 275/275/275 276/276/276 278/278/278
f 281/281/281 280/280/280 279/279/279
f 279/279/279 280/280/280 282/282/282
f 285/285/285 284/284/284 283/283/283
f 283/283/283 284/284/284 286/286/286
f 289/289/289 288/288/288 287/287/287
f 287/287/287 288/288/288 290/290/290
f 293/293/293 292/292/292 291/291/291
f 291/291/291 292/292/292 294/294/294
f 295/295/295 291/291/291 294/294/294
f 298/298/298 297/297/297 296/296/296
f 296/296/296 297/297/297 299/299/299
f 302/302/302 301/301/301 300/300/300
f 300/300/300 301/301/301 303/303/303
f 306/306/306 305/305/305 304/304/304
f 304/304/304 305/305/305 307/307/307
f 310/310/310 309/309/309 308/308/308
f 311/311/311 309/309/309 310/310/310
f 312/312/312 309/309/309 311/311/311
f 313/313/313 309/309/309 312/312/312
f 314/314/314 313/313/313 312/312/312
f 315/315/315 313/313/313 314/314/314
f 315/315/315 314/314/314 316/316/316
f 316/316/316 314/314/314 317/317/317
f 317/317/317 318/318/318 316/316/316
f 316/316/316 318/318/318 319/319/319
f 322/322/322 321/321/321 320/320/320
f 323/323/323 321/321/321 322/322/322
f 321/321/321 323/323/323 324/324/324
f 325/325/325 324/324/324 323/323/323
f 325/325/325 326/326/326 324/324/324
f 324/324/324 326/326/326 327/327/327
f 330/330/330 329/329/329 328/328/328
f 331/331/331 329/329/329 330/330/330
f 329/329/329 331/331/331 332/332/332
f 333/333/333 332/332/332 331/331/331
f 333/333/333 334/334/334 332/332/332
f 332/332/332 334/334/334 335/335/335
f 338/338/338 337/337/337 336/336/336
f 339/339/339 337/337/337 338/338/338
f 340/340/340 337/337/337 339/339/339
f 341/341/341 340/340/340 339/339/339
f 341/341/341 342/342/342 340/340/340
f 340/340/340 342/342/342 343/343/343
f 346/346/346 345/345/345 344/344/344
f 347/347/347 345/345/345 346/346/346
f 346/346/346 348/348/348 347/347/347
f 349/349/349 348/348/348 346/346/346
f 350/350/350 348/348/348 349/349/349
f 351/351/351 348/348/348 350/350/350
f 350/350/350 352/352/352 351/351/351
f 351/351/351 352/352/352 353/353/353
f 353/353/353 352/352/352 354/354/354
f 354/354/354 352/352/352 355/355/355
f 358/358/358 357/357/357 356/356/356
f 359/359/359 357/357/357 358/358/358
f 359/359/359 358/358/358 360/360/360
f 358/358/358 361/361/361 360/360/360
f 360/360/360 361/361/361 362/362/362
f 362/362/362 361/361/361 363/363/363
f 366/366/366 365/365/365 364/364/364
f 366/366/366 364/364/364 367/367/367
f 364/364/364 365/365/365 368/368/368
f 364/364/364 369/369/369 367/367/367
f 370/370/370 368/368/368 365/365/365
f 367/367/367 369/369/369 371/371/371
f 372/372/372 368/368/368 370/370/370
f 371/371/371 369/369/369 372/372/372
f 372/372/372 370/370/370 373/373/373
f 371/371/371 372/372/372 373/373/373
f 376/376/376 375/375/375 374/374/374
f 375/375/375 377/377/377 374/374/374
f 376/376/376 378/378/378 375/375/375
f 375/375/375 379/379/379 377/377/377
f 380/380/380 378/378/378 376/376/376
f 377/377/377 379/379/379 381/381/381
f 378/378/378 380/380/380 382/382/382
f 382/382/382 381/381/381 379/379/379
f 383/383/383 382/382/382 380/380/380
f 383/383/383 381/381/381 382/382/382
f 386/386/386 385/385/385 384/384/384
f 386/386/386 384/384/384 387/387/387
f 384/384/384 385/385/385 388/388/388
f 384/384/384 389/389/389 387/387/387
f 390/390/390 388/388/388 385/385/385
f 387/387/387 389/389/389 391/391/391
f 392/392/392 388/388/388 390/390/390
f 391/391/391 389/389/389 392/392/392
f 392/392/392 390/390/390 393/393/393
f 391/391/391 392/392/392 393/393/393
f 396/396/396 395/395/395 394/394/394
f 395/395/395 397/397/397 394/394/394
f 398/398/398 397/397/397 395/395/395
f 395/395/395 399/399/399 398/398/398
f 398/398/398 399/399/399 400/400/400
f 400/400/400 399/399/399 401/401/401
f 401/401/401 399/399/399 402/402/402
f 403/403/403 402/402/402 399/399/399
f 399/399/399 404/404/404 403/403/403
f 405/405/405 395/395/395 396/396/396
f 403/403/403 404/404/404 406/406/406
f 405/405/405 406/406/406 404/404/404
f 403/403/403 406/406/406 407/407/407
f 396/396/396 408/408/408 405/405/405
f 408/408/408 406/406/406 405/405/405
f 409/409/409 408/408/408 396/396/396
f 407/407/407 406/406/406 410/410/410
f 411/411/411 408/408/408 409/409/409
f 411/411/411 409/409/409 412/412/412
f 413/413/413 411/411/411 412/412/412
f 410/410/410 411/411/411 413/413/413
f 414/414/414 407/407/407 410/410/410
f 410/410/410 413/413/413 415/415/415
f 415/415/415 414/414/414 410/410/410
f 418/418/418 417/417/417 416/416/416
f 416/416/416 417/417/417 419/419/419
f 417/417/417 418/418/418 420/420/420
f 418/418/418 421/421/421 420/420/420
f 421/421/421 422/422/422 420/420/420
f 420/420/420 422/422/422 423/423/423
f 424/424/424 419/419/419 417/417/417
f 420/420/420 423/423/423 425/425/425
f 424/424/424 426/426/426 419/419/419
f 425/425/425 426/426/426 424/424/424
f 419/419/419 426/426/426 427/427/427
f 428/428/428 425/425/425 423/423/423
f 428/428/428 426/426/426 425/425/425
f 429/429/429 428/428/428 423/423/423
f 427/427/427 426/426/426 430/430/430
f 427/427/427 430/430/430 431/431/431
f 430/430/430 432/432/432 431/431/431
f 433/433/433 428/428/428 429/429/429
f 430/430/430 433/433/433 432/432/432
f 433/433/433 429/429/429 434/434/434
f 432/432/432 433/433/433 434/434/434
f 437/437/437 436/436/436 435/435/435
f 437/437/437 438/438/438 436/436/436
f 436/436/436 438/438/438 439/439/439
f 438/438/438 440/440/440 439/439/439
f 439/439/439 440/440/440 441/441/441
f 440/440/440 442/442/442 441/441/441
f 435/435/435 436/436/436 443/443/443
f 442/442/442 443/443/443 441/441/441
f 443/443/443 444/444/444 435/435/435
f 442/442/442 444/444/444 443/443/443
