v 1.125000 8.000000 2.750000
v -1.125000 7.500000 2.750000
v 1.125000 7.500000 2.750000
v -1.125000 8.000000 2.750000
v -1.125000 7.500000 2.750000
v 1.124457 7.999997 0.000000
v 1.125000 7.500000 2.750000
v 1.124457 7.499997 0.000000
v 1.125000 8.000000 2.750000
v 1.125000 7.500000 2.750000
v 4.330126 7.999996 2.500001
v 4.500002 7.999996 0.000000
v 5.000002 7.999996 0.000000
v 3.897114 7.999996 2.250002
v 4.330126 7.999996 2.500001
v 4.999997 -8.000005 -0.000000
v 3.897114 -8.000004 2.250002
v 4.330126 -8.000004 2.500001
v 4.499997 -8.000005 -0.000000
v 3.897114 -8.000004 2.250002
v 4.999997 -8.000005 -0.000000
v -4.330127 7.999996 2.500000
v -5.000000 -8.000004 0.000000
v -5.000000 7.999996 0.000000
v -4.330127 -8.000004 2.500000
v -2.500000 7.999996 4.330127
v -2.500000 -8.000004 4.330127
v -0.000001 7.999996 5.000000
v -0.000001 -8.000004 5.000000
v 2.499999 7.999996 4.330128
v 2.499999 -8.000004 4.330128
v 4.330126 7.999996 2.500001
v 4.330126 -8.000004 2.500001
v 5.000002 7.999996 0.000000
v 4.999997 -8.000005 -0.000000
v -4.500001 -7.500004 0.000000
v -3.897115 7.499996 2.250001
v -4.500001 7.499996 0.000000
v -3.897115 -7.500004 2.250001
v -2.250001 -7.500002 3.897115
v -2.250001 7.499998 3.897115
v -0.000001 7.499998 4.500001
v -0.000001 -7.500002 4.500001
v 2.250000 7.499998 3.897116
v 2.250000 -7.500002 3.897116
v 3.897114 7.499996 2.250002
v 3.897114 -7.500004 2.250002
v 4.500001 7.499996 0.000002
v 4.499997 -7.500005 -0.000000
v -1.124988 -8.000000 2.750000
v 1.125011 -7.499998 2.750000
v -1.124989 -7.500001 2.750000
v 1.125012 -7.999998 2.750000
v -1.125000 8.000000 0.000000
v -1.125000 7.500000 2.750000
v -1.125000 8.000000 2.750000
v -1.125000 7.500000 0.000000
v -5.000000 -7.999998 -6.000000
v -5.000000 7.999996 0.000000
v -5.000000 -8.000004 0.000000
v -4.999998 8.000003 -6.000000
v 5.000002 7.999996 0.000000
v 5.000000 -8.000000 -6.000000
v 4.999997 -8.000005 -0.000000
v 5.000000 8.000000 -6.000000
v -4.999998 8.000003 -6.000000
v 5.000000 8.000000 -6.000000
v 1.124457 7.999997 0.000000
v -1.125000 8.000000 0.000000
v -4.999998 8.000003 -6.000000
v -4.500001 7.999996 0.000000
v -5.000000 7.999996 0.000000
v 4.500002 7.999996 0.000000
v 5.000000 8.000000 -6.000000
v 5.000002 7.999996 0.000000
v 1.125000 8.000000 2.750000
v 2.250000 7.999998 3.897116
v -0.000001 7.999998 4.500001
v 1.125000 8.000000 2.750000
v 3.897114 7.999996 2.250002
v -1.125000 8.000000 2.750000
v -2.250001 7.999998 3.897115
v -3.897115 7.999996 2.250001
v -1.125000 8.000000 0.000000
v -4.500001 7.999996 0.000000
v 4.500002 7.999996 0.000000
v 1.124457 7.999997 0.000000
v 1.125000 8.000000 2.750000
v -1.124989 -7.500001 -0.000000
v -1.124988 -8.000000 2.750000
v -1.124989 -7.500001 2.750000
v -1.124989 -8.000000 -0.000000
v 1.124454 -7.500002 -0.000000
v 1.125012 -7.999998 2.750000
v 1.124454 -8.000002 -0.000000
v 1.125011 -7.499998 2.750000
v 2.499999 7.999996 4.330128
v -0.000001 7.999998 4.500001
v 2.250000 7.999998 3.897116
v -0.000001 7.999996 5.000000
v -2.250001 7.999998 3.897115
v -0.000001 7.999998 4.500001
v -2.500000 7.999996 4.330127
v 2.250000 7.999998 3.897116
v 4.330126 7.999996 2.500001
v 3.897114 7.999996 2.250002
v -3.897115 7.999996 2.250001
v -2.250001 7.999998 3.897115
v -4.330127 7.999996 2.500000
v -4.330127 7.999996 2.500000
v -4.500001 7.999996 0.000000
v -3.897115 7.999996 2.250001
v -5.000000 7.999996 0.000000
v 2.499999 -8.000004 4.330128
v 3.897114 -8.000004 2.250002
v 2.250000 -8.000002 3.897116
v 4.330126 -8.000004 2.500001
v -0.000001 -8.000002 4.500001
v 2.499999 -8.000004 4.330128
v 2.250000 -8.000002 3.897116
v -0.000001 -8.000004 5.000000
v -2.250001 -8.000002 3.897115
v -0.000001 -8.000004 5.000000
v -0.000001 -8.000002 4.500001
v -2.500000 -8.000004 4.330127
v -3.897115 -8.000004 2.250001
v -2.500000 -8.000004 4.330127
v -2.250001 -8.000002 3.897115
v -4.330127 -8.000004 2.500000
v -4.330127 -8.000004 2.500000
v -4.500001 -8.000004 0.000000
v -5.000000 -8.000004 0.000000
v -3.897115 -8.000004 2.250001
v -1.124989 -7.500001 -0.000000
v 1.124454 -8.000002 -0.000000
v -1.124989 -8.000000 -0.000000
v 1.124454 -7.500002 -0.000000
v 4.499997 -7.500005 -0.000000
v 4.499997 -8.000005 -0.000000
v 4.999997 -8.000005 -0.000000
v 5.000002 7.999996 0.000000
v 4.500001 7.499996 0.000002
v 4.500002 7.999996 0.000000
v 1.124457 7.999997 0.000000
v 1.124457 7.499997 0.000000
v -1.125000 7.500000 0.000000
v -1.125000 8.000000 0.000000
v -4.500001 7.499996 0.000000
v -4.500001 -7.500004 0.000000
v 5.000000 -8.000000 -6.000000
v 4.499997 -8.000005 -0.000000
v 4.999997 -8.000005 -0.000000
v 1.124454 -8.000002 -0.000000
v -5.000000 -7.999998 -6.000000
v -1.124989 -8.000000 -0.000000
v -5.000000 -7.999998 -6.000000
v -4.500001 -8.000004 0.000000
v -5.000000 -8.000004 0.000000
v -1.124989 -8.000000 -0.000000
v -4.500001 -7.500004 0.000000
v -1.124989 -7.500001 -0.000000
v -4.500001 -8.000004 0.000000
v -5.000000 -8.000004 0.000000
v -4.500001 7.499996 0.000000
v -5.000000 7.999996 0.000000
v -4.500001 7.999996 0.000000
v -1.125000 7.500000 0.000000
v -1.125000 8.000000 0.000000
v -4.500001 7.499996 0.000000
v -3.897115 7.499996 2.250001
v -1.125000 7.500000 0.000000
v -1.125000 7.500000 2.750000
v -2.250001 7.499998 3.897115
v -0.000001 7.499998 4.500001
v 1.125000 7.500000 2.750000
v 2.250000 7.499998 3.897116
v 3.897114 7.499996 2.250002
v 1.124457 7.499997 0.000000
v 4.500001 7.499996 0.000002
v 3.897114 -8.000004 2.250002
v 1.125012 -7.999998 2.750000
v 2.250000 -8.000002 3.897116
v 1.125012 -7.999998 2.750000
v 1.124454 -8.000002 -0.000000
v 4.499997 -8.000005 -0.000000
v 1.125012 -7.999998 2.750000
v -0.000001 -8.000002 4.500001
v -1.124988 -8.000000 2.750000
v -2.250001 -8.000002 3.897115
v -3.897115 -8.000004 2.250001
v -1.124989 -8.000000 -0.000000
v -4.500001 -8.000004 0.000000
v 4.499997 -7.500005 -0.000000
v 3.897114 -7.500004 2.250002
v 1.124454 -7.500002 -0.000000
v 1.125011 -7.499998 2.750000
v 2.250000 -7.500002 3.897116
v -0.000001 -7.500002 4.500001
v -1.124989 -7.500001 2.750000
v -2.250001 -7.500002 3.897115
v -3.897115 -7.500004 2.250001
v -1.124989 -7.500001 -0.000000
v -4.500001 -7.500004 0.000000
vt 0.663066149 0.723204553
vt 0.668653786 0.721476436
vt 0.662986934 0.722551882
vt 0.668786824 0.722900569
vt 0.668653786 0.721476436
vt 0.660939038 0.723181784
vt 0.662986934 0.722551882
vt 0.660943806 0.723094881
vt 0.663066149 0.723204553
vt 0.662986934 0.722551882
vt 0.41988039 0.879005909
vt 0.384708643 0.877310097
vt 0.393666804 0.800311208
vt 0.419955164 0.879099727
vt 0.41988039 0.879005909
vt 0.419288158 0.879094958
vt 0.384035945 0.877210021
vt 0.375022054 0.782679915
vt 0.387584239 0.878746986
vt 0.384035945 0.877210021
vt 0.419288158 0.879094958
vt 0.368086994 0.779124916
vt 0.342252076 0.783784568
vt 0.372960448 0.783429444
vt 0.346325278 0.779359698
vt 0.364889145 0.775947928
vt 0.349063516 0.776098967
vt 0.36235559 0.773796141
vt 0.351371288 0.773856819
vt 0.36057812 0.772370279
vt 0.353070557 0.7723791
vt 0.359492838 0.771418691
vt 0.354156256 0.771380365
vt 0.358894467 0.770668447
vt 0.354247332 0.770471871
vt 0.825619996 0.655173659
vt 0.850412786 0.660010815
vt 0.853680313 0.655554533
vt 0.829924166 0.659873843
vt 0.832572758 0.663210034
vt 0.848139226 0.663340569
vt 0.845912755 0.665765405
vt 0.835116208 0.665633559
vt 0.84424448 0.667380929
vt 0.836906374 0.66729939
vt 0.84324789 0.668469667
vt 0.837824821 0.668445945
vt 0.84285903 0.669341683
vt 0.838064969 0.66924417
vt 0.646759689 0.723420739
vt 0.652605951 0.722383678
vt 0.646841109 0.721944988
vt 0.6525774 0.723076999
vt 0.677573204 0.721788228
vt 0.668653786 0.721476436
vt 0.668786824 0.722900569
vt 0.677103996 0.72022301
vt 0.116196752 0.77624011
vt 0.1107741 0.75198102
vt 0.111156225 0.76887691
vt 0.116438687 0.745200396
vt 0.100163281 0.752102494
vt 0.0949297547 0.774574757
vt 0.100505233 0.768596411
vt 0.0950477719 0.745393276
vt 0.116438687 0.745200396
vt 0.0950477719 0.745393276
vt 0.10424763 0.75149262
vt 0.106745899 0.751437545
vt 0.116438687 0.745200396
vt 0.110311806 0.751876295
vt 0.1107741 0.75198102
vt 0.100642025 0.75196898
vt 0.0950477719 0.745393276
vt 0.100163281 0.752102494
vt 0.0798539519 0.75626111
vt 0.0786333084 0.75794524
vt 0.0805414319 0.759210467
vt 0.0798539519 0.75626111
vt 0.0774986148 0.757100463
vt 0.0855746269 0.755957127
vt 0.0832596421 0.761191726
vt 0.0866340995 0.76417166
vt 0.0943610072 0.754844785
vt 0.0914495587 0.76788187
vt 0.0769417882 0.756434441
vt 0.077726841 0.756238341
vt 0.0798539519 0.75626111
vt 0.63795191 0.721628904
vt 0.646759689 0.723420739
vt 0.646841109 0.721944988
vt 0.638063014 0.723221004
vt 0.654622078 0.722858131
vt 0.6525774 0.723076999
vt 0.654600799 0.72300595
vt 0.652605951 0.722383678
vt 0.420090795 0.879218698
vt 0.38508898 0.877573848
vt 0.375022054 0.782679915
vt 0.420313001 0.879396915
vt 0.385428727 0.877821445
vt 0.375022054 0.782679915
vt 0.42062965 0.879665852
vt 0.384850442 0.877415657
vt 0.419955164 0.879099727
vt 0.375022054 0.782679915
vt 0.385850489 0.878193915
vt 0.375022054 0.782679915
vt 0.375022054 0.782679915
vt 0.375022054 0.782679915
vt 0.390560329 0.803130567
vt 0.386452377 0.878657639
vt 0.421029329 0.880062938
vt 0.375022054 0.782679915
vt 0.375022054 0.782679915
vt 0.383987039 0.877304077
vt 0.419152439 0.87921977
vt 0.383854508 0.87741375
vt 0.418940067 0.879404426
vt 0.375022054 0.782679915
vt 0.375022054 0.782679915
vt 0.383627057 0.877580643
vt 0.418651581 0.879684687
vt 0.375022054 0.782679915
vt 0.375022054 0.782679915
vt 0.38331306 0.877845526
vt 0.418309331 0.880092263
vt 0.375022054 0.782679915
vt 0.375022054 0.782679915
vt 0.417800248 0.880645335
vt 0.38294968 0.878237486
vt 0.388856649 0.878794312
vt 0.375022054 0.782679915
vt 0.155956715 0.157697201
vt 0.153463513 0.158191323
vt 0.155976444 0.158256173
vt 0.153510422 0.157645226
vt 0.149955064 0.157131553
vt 0.149919957 0.15772593
vt 0.149510652 0.157542229
vt 0.149169534 0.141061306
vt 0.149626821 0.141529918
vt 0.149641186 0.140920639
vt 0.15324679 0.140444279
vt 0.153289348 0.140998483
vt 0.155717403 0.140947342
vt 0.155745059 0.140389204
vt 0.159330934 0.141426265
vt 0.159714073 0.157324851
vt 0.0949297547 0.774574757
vt 0.100920796 0.768774271
vt 0.100505233 0.768596411
vt 0.104464352 0.769239664
vt 0.116196752 0.77624011
vt 0.106977284 0.769304514
vt 0.116196752 0.77624011
vt 0.11068517 0.768975496
vt 0.111156225 0.76887691
vt 0.103738874 0.159277081
vt 0.104381949 0.163617969
vt 0.104381949 0.159277081
vt 0.103738874 0.163617969
vt 0.103738874 0.164261103
vt 0.123672873 0.163617969
vt 0.124315888 0.164261043
vt 0.124315947 0.163618028
vt 0.123673171 0.159277558
vt 0.124316186 0.159277678
vt 0.915510237 0.654824018
vt 0.912242711 0.659280419
vt 0.921689391 0.66565752
vt 0.913239181 0.666911006
vt 0.909969151 0.662610054
vt 0.907742679 0.66503489
vt 0.907572329 0.667986393
vt 0.906074405 0.666650534
vt 0.905077815 0.667739272
vt 0.905529201 0.668529391
vt 0.904688954 0.668611288
vt 0.0717253685 0.757052124
vt 0.0693652034 0.756133556
vt 0.0706650615 0.757929802
vt 0.0693652034 0.756133556
vt 0.0713886023 0.756062508
vt 0.0721166134 0.756299973
vt 0.0693652034 0.756133556
vt 0.0688452721 0.759265423
vt 0.063547492 0.756477296
vt 0.0663331747 0.76138407
vt 0.0634258986 0.764519989
vt 0.0548508167 0.756277561
vt 0.0592612624 0.768561721
vt 0.899894893 0.668513656
vt 0.899654746 0.66771543
vt 0.899207473 0.668292642
vt 0.897191346 0.667818189
vt 0.898736298 0.666568875
vt 0.896946132 0.664903045
vt 0.891426504 0.667379498
vt 0.894402683 0.662479639
vt 0.891754091 0.659143329
vt 0.882537305 0.667063475
vt 0.88744992 0.654443145
vn 0.000000 0.000000 -1.000000
vn 0.000000 0.000000 -1.000000
vn 0.000000 0.000000 -1.000000
vn 0.000000 0.000000 -1.000000
vn 0.000000 0.000000 -1.000000
vn -1.000000 -0.000000 0.000198
vn -1.000000 -0.000000 0.000198
vn -1.000000 -0.000000 0.000198
vn -1.000000 -0.000000 0.000198
vn -1.000000 -0.000000 0.000198
vn 0.000000 1.000000 0.000000
vn 0.000000 1.000000 0.000000
vn 0.000000 1.000000 0.000000
vn 0.000000 1.000000 0.000000
vn 0.000000 1.000000 0.000000
vn 0.000000 -1.000000 -0.000000
vn 0.000000 -1.000000 -0.000000
vn 0.000000 -1.000000 -0.000000
vn 0.000000 -1.000000 -0.000000
vn 0.000000 -1.000000 -0.000000
vn 0.000000 -1.000000 -0.000000
vn -0.907073 -0.000000 0.420974
vn -0.984769 -0.000000 0.173868
vn -0.996214 -0.000000 0.086934
vn -0.818110 -0.000000 0.575061
vn -0.575061 -0.000000 0.818110
vn -0.420974 -0.000000 0.907073
vn -0.088962 -0.000000 0.996035
vn 0.088962 -0.000000 0.996035
vn 0.420974 -0.000000 0.907073
vn 0.575061 -0.000000 0.818111
vn 0.818110 -0.000000 0.575061
vn 0.907073 -0.000000 0.420974
vn 0.991445 -0.000000 0.130526
vn 0.991445 -0.000000 0.130526
vn 0.965926 0.000000 -0.258819
vn 0.866025 0.000000 -0.500000
vn 0.965926 0.000000 -0.258819
vn 0.866025 0.000000 -0.500000
vn 0.500000 0.000000 -0.866025
vn 0.500000 0.000000 -0.866025
vn 0.088962 0.000000 -0.996035
vn -0.088962 0.000000 -0.996035
vn -0.420974 0.000000 -0.907073
vn -0.575061 0.000000 -0.818111
vn -0.818110 0.000000 -0.575061
vn -0.907073 0.000000 -0.420974
vn -0.965926 0.000000 -0.258819
vn -0.965926 0.000000 -0.258818
vn 0.000000 0.000000 -1.000000
vn 0.000000 0.000000 -1.000000
vn 0.000000 0.000000 -1.000000
vn 0.000000 0.000000 -1.000000
vn 1.000000 0.000000 0.000000
vn 1.000000 0.000000 0.000000
vn 1.000000 0.000000 0.000000
vn 1.000000 0.000000 0.000000
vn -1.000000 0.000000 0.000000
vn -0.996214 -0.000000 0.086934
vn -0.984769 -0.000000 0.173868
vn -1.000000 0.000000 0.000000
vn 0.991445 -0.000000 0.130526
vn 1.000000 0.000000 0.000000
vn 0.991445 -0.000000 0.130526
vn 1.000000 0.000000 0.000000
vn 0.000000 1.000000 0.000000
vn 0.000000 1.000000 0.000000
vn 0.000000 1.000000 0.000000
vn 0.000000 1.000000 0.000000
vn 0.000000 1.000000 0.000000
vn 0.000000 1.000000 0.000000
vn 0.000000 1.000000 0.000000
vn 0.000000 1.000000 0.000000
vn 0.000000 1.000000 0.000000
vn 0.000000 1.000000 0.000000
vn 0.000000 1.000000 0.000000
vn 0.000000 1.000000 0.000000
vn 0.000000 1.000000 0.000000
vn 0.000000 1.000000 0.000000
vn 0.000000 1.000000 0.000000
vn 0.000000 1.000000 0.000000
vn 0.000000 1.000000 0.000000
vn 0.000000 1.000000 0.000000
vn 0.000000 1.000000 0.000000
vn 0.000000 1.000000 0.000000
vn 0.000000 1.000000 0.000000
vn 0.000000 1.000000 0.000000
vn 0.000000 1.000000 0.000000
vn 1.000000 0.000000 0.000000
vn 1.000000 0.000000 0.000000
vn 1.000000 0.000000 0.000000
vn 1.000000 0.000000 0.000000
vn -1.000000 -0.000000 0.000203
vn -1.000000 -0.000000 0.000203
vn -1.000000 -0.000000 0.000203
vn -1.000000 -0.000000 0.000203
vn 0.000000 1.000000 0.000000
vn 0.000000 1.000000 0.000000
vn 0.000000 1.000000 0.000000
vn 0.000000 1.000000 0.000000
vn 0.000000 1.000000 0.000000
vn 0.000000 1.000000 0.000000
vn 0.000000 1.000000 0.000000
vn 0.000000 1.000000 0.000000
vn 0.000000 1.000000 0.000000
vn 0.000000 1.000000 0.000000
vn 0.000000 1.000000 0.000000
vn 0.000000 1.000000 0.000000
vn 0.000000 1.000000 0.000000
vn 0.000000 1.000000 0.000000
vn 0.000000 1.000000 0.000000
vn 0.000000 1.000000 0.000000
vn 0.000000 1.000000 0.000000
vn 0.000000 -1.000000 -0.000000
vn 0.000000 -1.000000 -0.000000
vn 0.000000 -1.000000 -0.000000
vn 0.000000 -1.000000 -0.000000
vn 0.000000 -1.000000 -0.000000
vn 0.000000 -1.000000 -0.000000
vn 0.000000 -1.000000 -0.000000
vn 0.000000 -1.000000 -0.000000
vn 0.000000 -1.000000 -0.000000
vn 0.000000 -1.000000 -0.000000
vn 0.000000 -1.000000 -0.000000
vn 0.000000 -1.000000 -0.000000
vn 0.000000 -1.000000 -0.000000
vn 0.000000 -1.000000 -0.000000
vn 0.000000 -1.000000 -0.000000
vn 0.000000 -1.000000 -0.000000
vn 0.000000 -1.000000 -0.000000
vn 0.000000 -1.000000 -0.000000
vn 0.000000 -1.000000 -0.000000
vn 0.000000 -1.000000 -0.000000
vn 0.000000 -0.000000 1.000000
vn 0.000000 -0.000000 1.000000
vn 0.000000 -0.000000 1.000000
vn 0.000000 -0.000000 1.000000
vn 0.000000 -0.000000 1.000000
vn 0.000000 -0.000000 1.000000
vn 0.000000 -0.000000 1.000000
vn 0.000000 -0.000000 1.000000
vn 0.000000 -0.000000 1.000000
vn 0.000000 -0.000000 1.000000
vn 0.000000 -0.000000 1.000000
vn 0.000000 -0.000000 1.000000
vn 0.000000 -0.000000 1.000000
vn 0.000000 -0.000000 1.000000
vn 0.000000 -0.000000 1.000000
vn 0.000000 -0.000000 1.000000
vn 0.000000 -1.000000 -0.000000
vn 0.000000 -1.000000 -0.000000
vn 0.000000 -1.000000 -0.000000
vn 0.000000 -1.000000 -0.000000
vn 0.000000 -1.000000 -0.000000
vn 0.000000 -1.000000 -0.000000
vn 0.000000 -1.000000 -0.000000
vn 0.000000 -1.000000 -0.000000
vn 0.000000 -1.000000 -0.000000
vn 0.000000 -0.000000 1.000000
vn 0.000000 -0.000000 1.000000
vn 0.000000 -0.000000 1.000000
vn 0.000000 -0.000000 1.000000
vn 0.000000 -0.000000 1.000000
vn 0.000000 -0.000000 1.000000
vn 0.000000 -0.000000 1.000000
vn 0.000000 -0.000000 1.000000
vn 0.000000 -0.000000 1.000000
vn 0.000000 -0.000000 1.000000
vn 0.000000 -1.000000 -0.000000
vn 0.000000 -1.000000 -0.000000
vn 0.000000 -1.000000 -0.000000
vn 0.000000 -1.000000 -0.000000
vn 0.000000 -1.000000 -0.000000
vn 0.000000 -1.000000 -0.000000
vn 0.000000 -1.000000 -0.000000
vn 0.000000 -1.000000 -0.000000
vn 0.000000 -1.000000 -0.000000
vn 0.000000 -1.000000 -0.000000
vn 0.000000 -1.000000 -0.000000
vn 0.000000 -1.000000 -0.000000
vn 0.000000 -1.000000 -0.000000
vn 0.000000 -1.000000 -0.000000
vn 0.000000 -1.000000 -0.000000
vn 0.000000 -1.000000 -0.000000
vn 0.000000 -1.000000 -0.000000
vn 0.000000 -1.000000 -0.000000
vn 0.000000 -1.000000 -0.000000
vn 0.000000 -1.000000 -0.000000
vn 0.000000 -1.000000 -0.000000
vn 0.000000 -1.000000 -0.000000
vn 0.000000 -1.000000 -0.000000
vn 0.000000 -1.000000 -0.000000
vn 0.000000 1.000000 0.000000
vn 0.000000 1.000000 0.000000
vn 0.000000 1.000000 0.000000
vn 0.000000 1.000000 0.000000
vn 0.000000 1.000000 0.000000
vn 0.000000 1.000000 0.000000
vn 0.000000 1.000000 0.000000
vn 0.000000 1.000000 0.000000
vn 0.000000 1.000000 0.000000
vn 0.000000 1.000000 0.000000
vn 0.000000 1.000000 0.000000
f 3/3/3 2/2/2 1/1/1
f 1/1/1 5/5/5 4/4/4
f 8/8/8 7/7/7 6/6/6
f 6/6/6 10/10/10 9/9/9
f 13/13/13 12/12/12 11/11/11
f 15/15/15 12/12/12 14/14/14
f 18/18/18 17/17/17 16/16/16
f 21/21/21 20/20/20 19/19/19
f 24/24/24 23/23/23 22/22/22
f 22/22/22 23/23/23 25/25/25
f 22/22/22 25/25/25 26/26/26
f 26/26/26 25/25/25 27/27/27
f 26/26/26 27/27/27 28/28/28
f 28/28/28 27/27/27 29/29/29
f 28/28/28 29/29/29 30/30/30
f 30/30/30 29/29/29 31/31/31
f 30/30/30 31/31/31 32/32/32
f 32/32/32 31/31/31 33/33/33
f 32/32/32 33/33/33 34/34/34
f 34/34/34 33/33/33 35/35/35
f 38/38/38 37/37/37 36/36/36
f 36/36/36 37/37/37 39/39/39
f 39/39/39 37/37/37 40/40/40
f 40/40/40 37/37/37 41/41/41
f 41/41/41 42/42/42 40/40/40
f 40/40/40 42/42/42 43/43/43
f 42/42/42 44/44/44 43/43/43
f 43/43/43 44/44/44 45/45/45
f 44/44/44 46/46/46 45/45/45
f 45/45/45 46/46/46 47/47/47
f 46/46/46 48/48/48 47/47/47
f 47/47/47 48/48/48 49/49/49
f 52/52/52 51/51/51 50/50/50
f 50/50/50 51/51/51 53/53/53
f 56/56/56 55/55/55 54/54/54
f 54/54/54 55/55/55 57/57/57
f 60/60/60 59/59/59 58/58/58
f 58/58/58 59/59/59 61/61/61
f 64/64/64 63/63/63 62/62/62
f 62/62/62 63/63/63 65/65/65
f 68/68/68 67/67/67 66/66/66
f 68/68/68 66/66/66 69/69/69
f 71/71/71 69/69/69 70/70/70
f 72/72/72 71/71/71 70/70/70
f 74/74/74 68/68/68 73/73/73
f 74/74/74 73/73/73 75/75/75
f 78/78/78 77/77/77 76/76/76
f 80/80/80 79/79/79 77/77/77
f 81/81/81 78/78/78 79/79/79
f 78/78/78 81/81/81 82/82/82
f 83/83/83 82/82/82 81/81/81
f 84/84/84 83/83/83 81/81/81
f 85/85/85 83/83/83 84/84/84
f 87/87/87 80/80/80 86/86/86
f 87/87/87 88/88/88 80/80/80
f 91/91/91 90/90/90 89/89/89
f 89/89/89 90/90/90 92/92/92
f 95/95/95 94/94/94 93/93/93
f 93/93/93 94/94/94 96/96/96
f 99/99/99 98/98/98 97/97/97
f 97/97/97 98/98/98 100/100/100
f 102/102/102 101/101/101 100/100/100
f 100/100/100 101/101/101 103/103/103
f 105/105/105 104/104/104 97/97/97
f 106/106/106 104/104/104 105/105/105
f 108/108/108 107/107/107 103/103/103
f 103/103/103 107/107/107 109/109/109
f 112/112/112 111/111/111 110/110/110
f 110/110/110 111/111/111 113/113/113
f 116/116/116 115/115/115 114/114/114
f 114/114/114 115/115/115 117/117/117
f 120/120/120 119/119/119 118/118/118
f 118/118/118 119/119/119 121/121/121
f 124/124/124 123/123/123 122/122/122
f 122/122/122 123/123/123 125/125/125
f 128/128/128 127/127/127 126/126/126
f 126/126/126 127/127/127 129/129/129
f 132/132/132 131/131/131 130/130/130
f 130/130/130 131/131/131 133/133/133
f 136/136/136 135/135/135 134/134/134
f 135/135/135 137/137/137 134/134/134
f 137/137/137 135/135/135 138/138/138
f 139/139/139 138/138/138 135/135/135
f 139/139/139 140/140/140 138/138/138
f 141/141/141 138/138/138 140/140/140
f 138/138/138 141/141/141 142/142/142
f 138/138/138 142/142/142 137/137/137
f 142/142/142 141/141/141 143/143/143
f 144/144/144 142/142/142 143/143/143
f 142/142/142 145/145/145 137/137/137
f 145/145/145 142/142/142 144/144/144
f 145/145/145 134/134/134 137/137/137
f 144/144/144 146/146/146 145/145/145
f 134/134/134 145/145/145 146/146/146
f 147/147/147 146/146/146 144/144/144
f 148/148/148 134/134/134 146/146/146
f 149/149/149 134/134/134 148/148/148
f 152/152/152 151/151/151 150/150/150
f 153/153/153 150/150/150 151/151/151
f 153/153/153 154/154/154 150/150/150
f 154/154/154 153/153/153 155/155/155
f 157/157/157 156/156/156 155/155/155
f 156/156/156 157/157/157 158/158/158
f 161/161/161 160/160/160 159/159/159
f 159/159/159 160/160/160 162/162/162
f 160/160/160 163/163/163 162/162/162
f 164/164/164 163/163/163 160/160/160
f 163/163/163 164/164/164 165/165/165
f 165/165/165 164/164/164 166/166/166
f 167/167/167 166/166/166 164/164/164
f 168/168/168 166/166/166 167/167/167
f 171/171/171 170/170/170 169/169/169
f 171/171/171 172/172/172 170/170/170
f 170/170/170 172/172/172 173/173/173
f 172/172/172 174/174/174 173/173/173
f 175/175/175 174/174/174 172/172/172
f 174/174/174 175/175/175 176/176/176
f 176/176/176 175/175/175 177/177/177
f 178/178/178 177/177/177 175/175/175
f 179/179/179 177/177/177 178/178/178
f 182/182/182 181/181/181 180/180/180
f 184/184/184 180/180/180 183/183/183
f 185/185/185 180/180/180 184/184/184
f 182/182/182 187/187/187 186/186/186
f 188/188/188 186/186/186 187/187/187
f 189/189/189 188/188/188 187/187/187
f 190/190/190 188/188/188 189/189/189
f 191/191/191 188/188/188 190/190/190
f 192/192/192 191/191/191 190/190/190
f 195/195/195 194/194/194 193/193/193
f 195/195/195 196/196/196 194/194/194
f 194/194/194 196/196/196 197/197/197
f 196/196/196 198/198/198 197/197/197
f 199/199/199 198/198/198 196/196/196
f 198/198/198 199/199/199 200/200/200
f 200/200/200 199/199/199 201/201/201
f 202/202/202 201/201/201 199/199/199
f 203/203/203 201/201/201 202/202/202
