# generated by LodBaker -- retail ships no LODGroup for this prop
v 1.125 7.5 2.75 1 1 1
v 1.125 8 2.75 1 1 1
v -1.125 7.5 2.75 1 1 1
v -1.125 8 2.75 1 1 1
v 1.124457 7.499997 0 1 1 1
v 1.124457 7.999997 0 1 1 1
v -4.500001 -8.500004 -1E-06 1 1 1
v -5 -8.000004 0 1 1 1
v -1E-06 -8.500002 4.5 1 1 1
v -4.500001 -8.500004 -1E-06 1 1 1
v -4.500001 -8.000004 0 1 1 1
v -5 -8.000004 0 1 1 1
v -4.500001 -7.500004 0 1 1 1
v -2.250001 -7.500002 3.897115 1 1 1
v -4.500001 7.499996 0 1 1 1
v -1E-06 7.499998 4.500001 1 1 1
v 3.897114 -7.500004 2.250002 1 1 1
v 4.500001 7.499996 2E-06 1 1 1
v 4.499997 -7.500005 -0 1 1 1
v -5 7.999996 0 1 1 1
v -4.500001 7.999996 0 1 1 1
v -4.500001 8.499996 1E-06 1 1 1
v -1.124989 -7.500001 2.75 1 1 1
v -1.124988 -8 2.75 1 1 1
v 1.125011 -7.499998 2.75 1 1 1
v 1.125012 -7.999998 2.75 1 1 1
v -1.125 8 0 1 1 1
v -1.125 7.5 0 1 1 1
v 1.124457 7.999997 0 1 1 1
v -4.999998 8.000003 -6 1 1 1
v 5 8 -6 1 1 1
v -1.125 8 0 1 1 1
v -4.500001 7.999996 0 1 1 1
v -5 7.999996 0 1 1 1
v 4.500002 7.999996 0 1 1 1
v 5.000002 7.999996 0 1 1 1
v -5 -8.000004 0 1 1 1
v -5 -7.999998 -6 1 1 1
v 4.999997 -8.000005 -0 1 1 1
v 5 -8 -6 1 1 1
v 4.499997 -8.000005 -0 1 1 1
v 2.25 -8.000002 3.897116 1 1 1
v 4.499997 -8.500005 -1E-06 1 1 1
v -1E-06 -8.500002 4.5 1 1 1
v -2.250001 -8.000002 3.897115 1 1 1
v -4.500001 -8.500004 -1E-06 1 1 1
v -4.500001 -8.000004 0 1 1 1
v -1.124989 -7.500001 -0 1 1 1
v -1.124989 -8 -0 1 1 1
v 1.124454 -8.000002 -0 1 1 1
v 1.124454 -7.500002 -0 1 1 1
v 4.500002 7.999996 0 1 1 1
v 2.25 7.999998 3.897116 1 1 1
v 1.125 8 2.75 1 1 1
v -1.125 8 2.75 1 1 1
v -2.250001 7.999998 3.897115 1 1 1
v -4.500001 7.999996 0 1 1 1
v -1.125 8 0 1 1 1
v 1.124457 7.999997 0 1 1 1
v -5 7.999996 0 1 1 1
v -2.5 8.499996 4.330128 1 1 1
v 2.25 8.499998 3.897116 1 1 1
v 5.000002 7.999996 0 1 1 1
v 4.499997 -8.500005 -1E-06 1 1 1
v 4.999997 -8.000005 -0 1 1 1
v 4.999997 -8.000005 -0 1 1 1
v 4.499997 -8.000005 -0 1 1 1
v 4.499997 -8.500005 -1E-06 1 1 1
v -4.500001 7.999996 0 1 1 1
v -2.250001 7.999998 3.897115 1 1 1
v -4.500001 8.499996 1E-06 1 1 1
v -2.250001 8.499998 3.897116 1 1 1
v 2.25 7.999998 3.897116 1 1 1
v 2.25 8.499998 3.897116 1 1 1
v 4.500002 7.999996 0 1 1 1
v 4.500002 8.499996 1E-06 1 1 1
v 4.500002 8.499996 1E-06 1 1 1
v 4.500002 7.999996 0 1 1 1
v 5.000002 7.999996 0 1 1 1
v -1.125 7.5 0 1 1 1
v -4.500001 7.499996 0 1 1 1
v -1.125 7.5 2.75 1 1 1
v -1E-06 7.499998 4.500001 1 1 1
v 1.125 7.5 2.75 1 1 1
v 4.500001 7.499996 2E-06 1 1 1
v 1.124457 7.499997 0 1 1 1
v -1.124989 -8 -0 1 1 1
v -1.124989 -7.500001 -0 1 1 1
v 1.124454 -8.000002 -0 1 1 1
v 1.124454 -7.500002 -0 1 1 1
v 4.499997 -7.500005 -0 1 1 1
v 4.499997 -8.000005 -0 1 1 1
v 4.999997 -8.000005 -0 1 1 1
v 5.000002 7.999996 0 1 1 1
v 4.500001 7.499996 2E-06 1 1 1
v 4.500002 7.999996 0 1 1 1
v 1.124457 7.999997 0 1 1 1
v 1.124457 7.499997 0 1 1 1
v -1.125 7.5 0 1 1 1
v -1.125 8 0 1 1 1
v -4.500001 7.499996 0 1 1 1
v -4.500001 -7.500004 0 1 1 1
v -1.124989 -7.500001 -0 1 1 1
v -1.124989 -8 -0 1 1 1
v -4.500001 -7.500004 0 1 1 1
v -4.500001 -8.000004 0 1 1 1
v -5 -8.000004 0 1 1 1
v -4.500001 7.499996 0 1 1 1
v -5 7.999996 0 1 1 1
v -4.500001 7.999996 0 1 1 1
v -1.125 7.5 0 1 1 1
v -1.125 8 0 1 1 1
v 4.499997 -8.000005 -0 1 1 1
v 1.124454 -8.000002 -0 1 1 1
v -1.124989 -8 -0 1 1 1
v -4.500001 -8.000004 0 1 1 1
v 1.124454 -8.000002 -0 1 1 1
v 1.125012 -7.999998 2.75 1 1 1
v 2.25 -8.000002 3.897116 1 1 1
v 4.499997 -8.000005 -0 1 1 1
v -1.124988 -8 2.75 1 1 1
v -2.250001 -8.000002 3.897115 1 1 1
v -1.124989 -8 -0 1 1 1
v -4.500001 -8.000004 0 1 1 1
v 1.124454 -7.500002 -0 1 1 1
v 4.499997 -7.500005 -0 1 1 1
v 3.897114 -7.500004 2.250002 1 1 1
v 1.125011 -7.499998 2.75 1 1 1
v -2.250001 -7.500002 3.897115 1 1 1
v -1.124989 -7.500001 2.75 1 1 1
v -4.500001 -7.500004 0 1 1 1
v -1.124989 -7.500001 -0 1 1 1
v 4.500002 8.499996 1E-06 1 1 1
v -2.250001 8.499998 3.897116 1 1 1
v -4.500001 8.499996 1E-06 1 1 1
vt 0.66298693 0.27744812
vt 0.66306615 0.27679545
vt 0.6686538 0.27852356
vt 0.6687868 0.27709943
vt 0.6609438 0.27690512
vt 0.66093904 0.27681822
vt 0.34142268 0.21727115
vt 0.34225208 0.21621543
vt 0.3510067 0.22656745
vt 0.37442034 0.2843281
vt 0.37442034 0.2843281
vt 0.37442034 0.28424573
vt 0.81853646 0.20079422
vt 0.8254892 0.19275779
vt 0.8465968 0.20041335
vt 0.8388292 0.19020247
vt 0.8307413 0.18752193
vt 0.8357755 0.18662614
vt 0.83098143 0.18672371
vt 0.3753208 0.20902264
vt 0.37526163 0.20903605
vt 0.37526163 0.20903605
vt 0.6468411 0.278055
vt 0.6467597 0.27657926
vt 0.65260595 0.27761632
vt 0.6525774 0.276923
vt 0.6775732 0.27821177
vt 0.677104 0.279777
vt 0.10424763 0.24850738
vt 0.11643869 0.2547996
vt 0.09504777 0.25460672
vt 0.1067459 0.24856246
vt 0.110311806 0.2481237
vt 0.1107741 0.24801898
vt 0.100642025 0.24803102
vt 0.10016328 0.2478975
vt 0.111156225 0.23112309
vt 0.11619675 0.22375989
vt 0.10050523 0.23140359
vt 0.094929755 0.22542524
vt 0.37037298 0.20846987
vt 0.3701872 0.20826125
vt 0.37037298 0.20846987
vt 0.36995426 0.2080903
vt 0.36963275 0.20781916
vt 0.3687276 0.20690048
vt 0.3687276 0.20690048
vt 0.6379519 0.2783711
vt 0.638063 0.276779
vt 0.6546008 0.27699405
vt 0.6546221 0.27714187
vt 0.07694179 0.24356556
vt 0.07863331 0.24205476
vt 0.07985395 0.24373889
vt 0.08557463 0.24404287
vt 0.08325964 0.23880827
vt 0.09144956 0.23211813
vt 0.09436101 0.24515522
vt 0.07772684 0.24376166
vt 0.37296045 0.21657056
vt 0.36488914 0.22405207
vt 0.36079472 0.22788763
vt 0.35889447 0.22933155
vt 0.35427803 0.2295329
vt 0.35424733 0.22952813
vt 0.37400648 0.20689607
vt 0.37405968 0.2068733
vt 0.37405968 0.2068733
vt 0.37284744 0.2069875
vt 0.37179917 0.20784378
vt 0.37284744 0.2069875
vt 0.37179917 0.20784378
vt 0.37120706 0.20825928
vt 0.37120706 0.20825928
vt 0.37099054 0.2084527
vt 0.37099054 0.2084527
vt 0.38029546 0.2872331
vt 0.38029546 0.2872331
vt 0.38023508 0.2872151
vt 0.9216894 0.33434248
vt 0.91551024 0.34517598
vt 0.9132392 0.333089
vt 0.9077427 0.3349651
vt 0.9075723 0.3320136
vt 0.90468895 0.3313887
vt 0.9055292 0.3314706
vt 0.15597644 0.8417438
vt 0.15595672 0.8423028
vt 0.15346351 0.8418087
vt 0.15351042 0.8423548
vt 0.14995506 0.84286845
vt 0.14991996 0.84227407
vt 0.14951065 0.8424578
vt 0.14916953 0.8589387
vt 0.14962682 0.8584701
vt 0.14964119 0.85907936
vt 0.15324679 0.8595557
vt 0.15328935 0.8590015
vt 0.1557174 0.85905266
vt 0.15574506 0.8596108
vt 0.15933093 0.85857373
vt 0.15971407 0.84267515
vt 0.10438195 0.8407229
vt 0.103738874 0.8407229
vt 0.10438195 0.83638203
vt 0.103738874 0.83638203
vt 0.103738874 0.8357389
vt 0.12367287 0.83638203
vt 0.12431589 0.83573896
vt 0.12431595 0.836382
vt 0.12367317 0.84072244
vt 0.124316186 0.8407223
vt 0.1009208 0.23122573
vt 0.10446435 0.23076034
vt 0.106977284 0.23069549
vt 0.11068517 0.2310245
vt 0.0713886 0.24393749
vt 0.0693652 0.24386644
vt 0.07066506 0.2420702
vt 0.07211661 0.24370003
vt 0.06354749 0.2435227
vt 0.066333175 0.23861593
vt 0.054850817 0.24372244
vt 0.059261262 0.23143828
vt 0.8992075 0.33170736
vt 0.8998949 0.33148634
vt 0.89965475 0.33228457
vt 0.89719135 0.3321818
vt 0.8944027 0.33752036
vt 0.8914265 0.3326205
vt 0.8874499 0.34555686
vt 0.8825373 0.33293653
vt 0.3591032 0.22939843
vt 0.36542106 0.22464114
vt 0.37361097 0.217951
vn 0 0 -1
vn 0 0 -1
vn 0 0 -1
vn 0 0 -1
vn -1 -1.5261583E-05 0.00016787741
vn -1 -1.5261583E-05 0.00016787741
vn 0 -1 -1.5259022E-05
vn -0.980735 -1.7945798E-05 0.19534297
vn 0 -1 -1.5259022E-05
vn 0 0 -1
vn 0 0 -1
vn 0 0 -1
vn 0.9659269 0 -0.25881517
vn 0.500013 0 -0.86601794
vn 0.9659269 0 -0.25881517
vn 0.08897264 0 -0.9960341
vn -0.9070813 0 -0.42095536
vn -0.9659269 0 -0.25881517
vn -0.9659269 0 -0.25881517
vn 0 0 -1
vn 0 0 -1
vn 0 0 -1
vn 0 0 -1
vn 0 0 -1
vn 0 0 -1
vn 0 0 -1
vn 1 0 -1.5259022E-05
vn 1 0 -1.5259022E-05
vn 0 1 -1.5259022E-05
vn 0 1 -1.5259022E-05
vn 0 1 -1.5259022E-05
vn 0 1 -1.5259022E-05
vn 0 1 -1.5259022E-05
vn 0 1 -1.5259022E-05
vn 0 1 -1.5259022E-05
vn 0 1 -1.5259022E-05
vn -0.980735 -1.7945798E-05 0.19534297
vn -1 0 -1.5259022E-05
vn 0.9847661 -1.767987E-05 0.17388414
vn 1 0 -1.5259022E-05
vn -0.9659269 0 -0.25881517
vn -0.4209798 0 -0.90707
vn -0.9659269 0 -0.25881517
vn 0 0 -1
vn 0.4209798 0 -0.90707
vn 0.9659269 0 -0.25881517
vn 0.9659269 0 -0.25881517
vn 1 0 -1.5259022E-05
vn 1 0 -1.5259022E-05
vn -1 -1.5261583E-05 0.00016787741
vn -1 -1.5261583E-05 0.00016787741
vn 0 1 -1.5259022E-05
vn 0 1 -1.5259022E-05
vn 0 1 -1.5259022E-05
vn 0 1 -1.5259022E-05
vn 0 1 -1.5259022E-05
vn 0 1 -1.5259022E-05
vn 0 1 -1.5259022E-05
vn 0 1 -1.5259022E-05
vn -0.9914473 -1.711993E-05 0.13050723
vn -0.5000467 -2.0844513E-05 0.86599845
vn 0 1 -1.5259022E-05
vn 0.9876677 -1.7459874E-05 0.15656514
vn 0 -1 -1.5259022E-05
vn 0.9847661 -1.767987E-05 0.17388414
vn 0 0 -1
vn 0 0 -1
vn 0 0 -1
vn 0.9659269 0 -0.25881517
vn 0.500013 0 -0.86601794
vn 0.9659269 0 -0.25881517
vn 0.500013 0 -0.86601794
vn -0.57508636 0 -0.81809276
vn -0.4209798 0 -0.90707
vn -0.9659269 0 -0.25881517
vn -0.9659269 0 -0.25881517
vn 0 0 -1
vn 0 0 -1
vn 0 0 -1
vn 0 -1 -1.5259022E-05
vn 0 -1 -1.5259022E-05
vn 0 -1 -1.5259022E-05
vn 0 -1 -1.5259022E-05
vn 0 -1 -1.5259022E-05
vn 0 -1 -1.5259022E-05
vn 0 -1 -1.5259022E-05
vn -1.5259255E-05 -1.5259255E-05 1
vn -1.5259255E-05 -1.5259255E-05 1
vn -1.5259255E-05 -1.5259255E-05 1
vn -1.5259255E-05 -1.5259255E-05 1
vn -1.5259255E-05 -1.5259255E-05 1
vn -1.5259255E-05 -1.5259255E-05 1
vn -1.5259255E-05 -1.5259255E-05 1
vn -1.5259255E-05 -1.5259255E-05 1
vn -1.5259255E-05 -1.5259255E-05 1
vn -1.5259255E-05 -1.5259255E-05 1
vn -1.5259255E-05 -1.5259255E-05 1
vn -1.5259255E-05 -1.5259255E-05 1
vn -1.5259255E-05 -1.5259255E-05 1
vn -1.5259255E-05 -1.5259255E-05 1
vn -1.5259255E-05 -1.5259255E-05 1
vn -1.5259255E-05 -1.5259255E-05 1
vn -1.5259255E-05 -1.5259255E-05 1
vn -1.5259255E-05 -1.5259255E-05 1
vn -1.5259255E-05 -1.5259255E-05 1
vn -1.5259255E-05 -1.5259255E-05 1
vn -1.5259255E-05 -1.5259255E-05 1
vn -1.5259255E-05 -1.5259255E-05 1
vn -1.5259255E-05 -1.5259255E-05 1
vn -1.5259255E-05 -1.5259255E-05 1
vn -1.5259255E-05 -1.5259255E-05 1
vn -1.5259255E-05 -1.5259255E-05 1
vn 0 -1 -1.5259022E-05
vn 0 -1 -1.5259022E-05
vn 0 -1 -1.5259022E-05
vn 0 -1 -1.5259022E-05
vn 0 -1 -1.5259022E-05
vn 0 -1 -1.5259022E-05
vn 0 -1 -1.5259022E-05
vn 0 -1 -1.5259022E-05
vn 0 -1 -1.5259022E-05
vn 0 -1 -1.5259022E-05
vn 0 -1 -1.5259022E-05
vn 0 -1 -1.5259022E-05
vn 0 1 -1.5259022E-05
vn 0 1 -1.5259022E-05
vn 0 1 -1.5259022E-05
vn 0 1 -1.5259022E-05
vn 0 1 -1.5259022E-05
vn 0 1 -1.5259022E-05
vn 0 1 -1.5259022E-05
vn 0 1 -1.5259022E-05
vn 0 1 -1.5259022E-05
vn 0 1 -1.5259022E-05
vn 0 1 -1.5259022E-05
f 3/3/3 2/2/2 1/1/1
f 3/3/3 4/4/4 2/2/2
f 1/1/1 6/6/6 5/5/5
f 1/1/1 2/2/2 6/6/6
f 9/9/9 8/8/8 7/7/7
f 12/12/12 11/11/11 10/10/10
f 15/15/15 14/14/14 13/13/13
f 15/15/15 16/16/16 14/14/14
f 16/16/16 17/17/17 14/14/14
f 18/18/18 17/17/17 16/16/16
f 18/18/18 19/19/19 17/17/17
f 22/22/22 21/21/21 20/20/20
f 25/25/25 24/24/24 23/23/23
f 25/25/25 26/26/26 24/24/24
f 3/3/3 27/27/27 4/4/4
f 3/3/3 28/28/28 27/27/27
f 31/31/31 30/30/30 29/29/29
f 30/30/30 32/32/32 29/29/29
f 32/32/32 30/30/30 33/33/33
f 33/33/33 30/30/30 34/34/34
f 29/29/29 35/35/35 31/31/31
f 35/35/35 36/36/36 31/31/31
f 34/34/34 38/38/38 37/37/37
f 34/34/34 30/30/30 38/38/38
f 40/40/40 36/36/36 39/39/39
f 40/40/40 31/31/31 36/36/36
f 43/43/43 42/42/42 41/41/41
f 44/44/44 42/42/42 43/43/43
f 44/44/44 45/45/45 42/42/42
f 44/44/44 46/46/46 45/45/45
f 46/46/46 47/47/47 45/45/45
f 24/24/24 48/48/48 23/23/23
f 24/24/24 49/49/49 48/48/48
f 26/26/26 51/51/51 50/50/50
f 26/26/26 25/25/25 51/51/51
f 54/54/54 53/53/53 52/52/52
f 53/53/53 54/54/54 55/55/55
f 55/55/55 56/56/56 53/53/53
f 56/56/56 55/55/55 57/57/57
f 57/57/57 55/55/55 58/58/58
f 54/54/54 52/52/52 59/59/59
f 8/8/8 61/61/61 60/60/60
f 8/8/8 9/9/9 61/61/61
f 61/61/61 9/9/9 62/62/62
f 9/9/9 63/63/63 62/62/62
f 9/9/9 64/64/64 63/63/63
f 64/64/64 65/65/65 63/63/63
f 68/68/68 67/67/67 66/66/66
f 71/71/71 70/70/70 69/69/69
f 71/71/71 72/72/72 70/70/70
f 72/72/72 73/73/73 70/70/70
f 74/74/74 73/73/73 72/72/72
f 74/74/74 75/75/75 73/73/73
f 76/76/76 75/75/75 74/74/74
f 79/79/79 78/78/78 77/77/77
f 82/82/82 81/81/81 80/80/80
f 82/82/82 83/83/83 81/81/81
f 83/83/83 82/82/82 84/84/84
f 84/84/84 85/85/85 83/83/83
f 85/85/85 84/84/84 86/86/86
f 89/89/89 88/88/88 87/87/87
f 90/90/90 88/88/88 89/89/89
f 89/89/89 91/91/91 90/90/90
f 91/91/91 89/89/89 92/92/92
f 93/93/93 91/91/91 92/92/92
f 91/91/91 93/93/93 94/94/94
f 94/94/94 95/95/95 91/91/91
f 95/95/95 90/90/90 91/91/91
f 94/94/94 96/96/96 95/95/95
f 95/95/95 96/96/96 97/97/97
f 98/98/98 90/90/90 95/95/95
f 95/95/95 97/97/97 98/98/98
f 88/88/88 90/90/90 98/98/98
f 99/99/99 98/98/98 97/97/97
f 98/98/98 99/99/99 88/88/88
f 99/99/99 97/97/97 100/100/100
f 88/88/88 99/99/99 101/101/101
f 88/88/88 101/101/101 102/102/102
f 105/105/105 104/104/104 103/103/103
f 105/105/105 106/106/106 104/104/104
f 105/105/105 107/107/107 106/106/106
f 108/108/108 107/107/107 105/105/105
f 109/109/109 107/107/107 108/108/108
f 108/108/108 110/110/110 109/109/109
f 110/110/110 108/108/108 111/111/111
f 110/110/110 111/111/111 112/112/112
f 113/113/113 40/40/40 39/39/39
f 40/40/40 113/113/113 114/114/114
f 38/38/38 40/40/40 114/114/114
f 114/114/114 115/115/115 38/38/38
f 38/38/38 115/115/115 116/116/116
f 116/116/116 37/37/37 38/38/38
f 119/119/119 118/118/118 117/117/117
f 119/119/119 117/117/117 120/120/120
f 118/118/118 119/119/119 121/121/121
f 121/121/121 119/119/119 122/122/122
f 121/121/121 122/122/122 123/123/123
f 123/123/123 122/122/122 124/124/124
f 127/127/127 126/126/126 125/125/125
f 128/128/128 127/127/127 125/125/125
f 129/129/129 127/127/127 128/128/128
f 129/129/129 128/128/128 130/130/130
f 130/130/130 131/131/131 129/129/129
f 131/131/131 130/130/130 132/132/132
f 62/62/62 63/63/63 133/133/133
f 61/61/61 62/62/62 134/134/134
f 134/134/134 135/135/135 61/61/61
f 61/61/61 135/135/135 60/60/60
