# generated by LodBaker -- retail ships no LODGroup for this prop
v -1.250003 -9.000003 5.75 1 1 1
v 1.249997 -9.000003 5.75 1 1 1
v -1.250003 -9.000003 2.7 1 1 1
v 1.250002 9 2.7 1 1 1
v 6.000003 8.999998 5.75 1 1 1
v -1.249998 9 2.7 1 1 1
v 1.250002 9 0 1 1 1
v 6 9.000002 -6 1 1 1
v -5.999998 9.000006 -6 1 1 1
v -1.249998 9 0 1 1 1
v 1.249997 -8.500003 2.7 1 1 1
v 5.499996 -8.500008 4.2 1 1 1
v -1.250003 -8.500003 2.7 1 1 1
v 1.249997 -8.500003 0 1 1 1
v 5.499996 -8.500008 0 1 1 1
v 5.5 3.499995 1 1 1 1
v 5.5 4.499995 1 1 1 1
v 5.5 3.499995 3.7 1 1 1
v 5.5 -7.500005 3.7 1 1 1
v 5.5 -4.500005 3.7 1 1 1
v 5.5 -7.500005 4.2 1 1 1
v 5.5 7.499995 4.2 1 1 1
v 5.5 -0.500005 3.7 1 1 1
v 5.5 0.499995 3.7 1 1 1
v 5.5 4.499995 3.7 1 1 1
v 5.5 7.499995 3.7 1 1 1
v 5.5 0.499995 1 1 1 1
v 5.5 -0.500005 1 1 1 1
v 5.500003 8.499998 0 1 1 1
v 5.5 -3.500005 1 1 1 1
v 5.5 7.499995 1 1 1 1
v 5.500003 8.499998 4.2 1 1 1
v 5.5 7.499995 3.7 1 1 1
v 5.5 7.499995 4.2 1 1 1
v 5.499996 -8.500008 0 1 1 1
v 5.5 -4.500005 1 1 1 1
v 5.5 -3.500005 3.7 1 1 1
v 5.5 -4.500005 3.7 1 1 1
v 5.5 -7.500005 1 1 1 1
v 5.499996 -8.500008 4.2 1 1 1
v 5.5 -7.500005 3.7 1 1 1
v 5.5 -7.500005 4.2 1 1 1
v 5.999996 -9.000008 5.75 1 1 1
v 6 -7.500005 1 1 1 1
v 6 -9.000002 -6 1 1 1
v 6 -4.500005 1 1 1 1
v 6 -3.500005 1 1 1 1
v 6 -0.500005 1 1 1 1
v 6 0.499995 1 1 1 1
v 6 9.000002 -6 1 1 1
v 6 3.499995 1 1 1 1
v 6 4.499995 1 1 1 1
v 6 7.499995 5.75 1 1 1
v 6 7.499995 3.7 1 1 1
v 6 4.499995 3.7 1 1 1
v 6 3.499995 3.7 1 1 1
v 6 0.499995 3.7 1 1 1
v 6 4.499995 3.7 1 1 1
v 6 -0.500005 3.7 1 1 1
v 6 7.499995 1 1 1 1
v 6 7.499995 3.7 1 1 1
v 6.000003 8.999998 5.75 1 1 1
v 6 7.499995 5.75 1 1 1
v 6 -7.500005 3.7 1 1 1
v 6 -7.500005 5.75 1 1 1
v 6 -4.500005 3.7 1 1 1
v 6 -3.500005 3.7 1 1 1
v 6 -3.500005 5.75 1 1 1
v 1.249997 -9.000003 2.7 1 1 1
v -5.999999 9.000002 5.75 1 1 1
v -6 0.500002 3.7 1 1 1
v -6 -0.499998 3.7 1 1 1
v -6 0.500002 1 1 1 1
v -6 -0.499998 1 1 1 1
v 5.499996 -8.500008 5.75 1 1 1
v 5.499996 -8.500008 4.7 1 1 1
v 5.5 -3.500005 5.75 1 1 1
v -5.500002 -8.499998 5.75 1 1 1
v -5.500002 -8.499998 4.7 1 1 1
v -1.250003 -8.500003 5.75 1 1 1
v -5.500002 -8.499998 4.2 1 1 1
v -5.500002 -8.499998 0 1 1 1
v -1.250003 -8.500003 0 1 1 1
v -5.5 0.500002 3.7 1 1 1
v -5.5 0.500002 1 1 1 1
v -5.5 -0.499998 1 1 1 1
v 5.500003 8.499998 4.2 1 1 1
v -5.499999 8.500002 4.2 1 1 1
v 5.5 7.499995 4.2 1 1 1
v -5.500002 -8.499998 4.2 1 1 1
v 5.499996 -8.500008 4.2 1 1 1
v -5.5 -7.499998 4.2 1 1 1
v 5.5 -7.500005 4.2 1 1 1
v 5.500003 8.499998 0 1 1 1
v 1.249997 -8.500003 0 1 1 1
v -1.250003 -8.500003 0 1 1 1
v -1.249998 8.5 0 1 1 1
v -5.499999 8.500002 0 1 1 1
v -1.249998 8.5 2.7 1 1 1
v -5.499999 8.500002 4.2 1 1 1
v 1.250002 8.5 2.7 1 1 1
v 1.250002 8.5 0 1 1 1
v 6 -3.500005 5.75 1 1 1
v 5.5 -3.500005 5.75 1 1 1
v 6 7.499995 5.75 1 1 1
v 5.500003 8.499998 5.75 1 1 1
v 6.000003 8.999998 5.75 1 1 1
v -5.499999 8.500002 5.75 1 1 1
v -6 -7.499998 5.75 1 1 1
v -6 7.500002 5.75 1 1 1
v 6 -3.500005 5.75 1 1 1
v 6 -7.500005 5.75 1 1 1
v 5.5 -3.500005 5.75 1 1 1
v 5.999996 -9.000008 5.75 1 1 1
v 5.499996 -8.500008 5.75 1 1 1
v 1.249997 -9.000003 5.75 1 1 1
v -1.250003 -8.500003 5.75 1 1 1
v -1.250003 -9.000003 5.75 1 1 1
v -6 -7.499998 3.7 1 1 1
v -6 -4.499998 3.7 1 1 1
v -6 -7.499998 5.75 1 1 1
v -6 7.500002 3.7 1 1 1
v -6 7.500002 5.75 1 1 1
v -6 4.500002 3.7 1 1 1
v -1.249998 8.5 2.7 1 1 1
v -1.249998 9 2.7 1 1 1
v -1.249998 8.5 0 1 1 1
v -1.249998 9 0 1 1 1
v 1.250002 9 2.7 1 1 1
v 1.250002 8.5 2.7 1 1 1
v 1.250002 9 0 1 1 1
v 1.250002 8.5 0 1 1 1
v -6 0.500002 1 1 1 1
v -6 3.500002 1 1 1 1
v -5.5 0.500002 1 1 1 1
v -5.5 3.500002 1 1 1 1
v -6 -3.499998 1 1 1 1
v -6 -0.499998 1 1 1 1
v -5.5 -3.499998 1 1 1 1
v -5.5 -0.499998 1 1 1 1
v 5.5 -3.500005 1 1 1 1
v 5.5 -0.500005 1 1 1 1
v 6 -3.500005 1 1 1 1
v 6 -0.500005 1 1 1 1
v -6 4.500002 1 1 1 1
v -6 7.500002 1 1 1 1
v -5.5 4.500002 1 1 1 1
v -5.5 7.500002 1 1 1 1
v 5.5 4.499995 1 1 1 1
v 5.5 7.499995 1 1 1 1
v 6 4.499995 1 1 1 1
v 6 7.499995 1 1 1 1
v -6 -7.499998 1 1 1 1
v -6 -4.499998 1 1 1 1
v -5.5 -7.499998 1 1 1 1
v -5.5 -4.499998 1 1 1 1
v -1.250003 -8.500003 2.7 1 1 1
v -1.250003 -8.500003 0 1 1 1
v -1.250003 -9.000003 2.7 1 1 1
v -1.250003 -9.000003 0 1 1 1
v -6 -0.499998 3.7 1 1 1
v -5.5 -0.499998 3.7 1 1 1
v 1.249997 -8.500003 2.7 1 1 1
v 1.249997 -9.000003 2.7 1 1 1
v 1.249997 -8.500003 0 1 1 1
v 1.249997 -9.000003 0 1 1 1
v 5.500003 8.499998 4.7 1 1 1
v 5.500003 8.499998 5.75 1 1 1
v 5.500003 8.499998 5.75 1 1 1
v -5.499999 8.500002 5.75 1 1 1
v -5.499999 8.500002 4.7 1 1 1
v -5.499999 8.500002 5.75 1 1 1
v -5.500002 -8.499998 5.75 1 1 1
v 5.499996 -8.500008 5.75 1 1 1
v -5.499999 8.500002 4.7 1 1 1
v 5.500003 8.499998 4.7 1 1 1
v -5.500002 -8.499998 4.7 1 1 1
v 5.499996 -8.500008 4.7 1 1 1
v -6 -7.499998 3.7 1 1 1
v -5.5 -7.499998 3.7 1 1 1
v -6 -4.499998 3.7 1 1 1
v -5.5 -4.499998 3.7 1 1 1
v -6 -3.499998 3.7 1 1 1
v -5.5 -3.499998 3.7 1 1 1
v -6 -0.499998 3.7 1 1 1
v -5.5 -0.499998 3.7 1 1 1
v -6 3.500002 3.7 1 1 1
v -6 0.500002 3.7 1 1 1
v -5.5 3.500002 3.7 1 1 1
v -5.5 0.500002 3.7 1 1 1
v -6 7.500002 3.7 1 1 1
v -6 4.500002 3.7 1 1 1
v -5.5 7.500002 3.7 1 1 1
v -5.5 4.500002 3.7 1 1 1
v -1.249998 9 2.7 1 1 1
v -1.249998 8.5 2.7 1 1 1
v 1.250002 9 2.7 1 1 1
v 1.250002 8.5 2.7 1 1 1
v 5.5 3.499995 3.7 1 1 1
v 5.5 0.499995 3.7 1 1 1
v 6 3.499995 3.7 1 1 1
v 6 0.499995 3.7 1 1 1
v 5.5 -3.500005 3.7 1 1 1
v 6 -3.500005 3.7 1 1 1
v 5.5 -0.500005 3.7 1 1 1
v 6 -0.500005 3.7 1 1 1
v 5.5 -7.500005 3.7 1 1 1
v 6 -7.500005 3.7 1 1 1
v 5.5 -4.500005 3.7 1 1 1
v 6 -4.500005 3.7 1 1 1
v 5.5 0.499995 1 1 1 1
v 5.5 3.499995 1 1 1 1
v 6 0.499995 1 1 1 1
v 6 3.499995 1 1 1 1
v 5.5 -7.500005 1 1 1 1
v 5.5 -4.500005 1 1 1 1
v 6 -7.500005 1 1 1 1
v 6 -4.500005 1 1 1 1
v 6 4.499995 3.7 1 1 1
v 5.5 4.499995 3.7 1 1 1
v 6 -7.500005 3.7 1 1 1
v 5.5 -7.500005 3.7 1 1 1
v -1.250003 -8.500003 2.7 1 1 1
v -1.250003 -9.000003 2.7 1 1 1
v 1.249997 -8.500003 2.7 1 1 1
v 1.249997 -9.000003 2.7 1 1 1
v 5.5 7.499995 3.7 1 1 1
v 5.5 4.499995 3.7 1 1 1
v 6 7.499995 3.7 1 1 1
v 6 4.499995 3.7 1 1 1
v -6 -7.499998 1 1 1 1
v -6.000002 -8.999998 5.75 1 1 1
v -6 -7.499998 5.75 1 1 1
v 5.5 7.499995 3.7 1 1 1
v 6 7.499995 3.7 1 1 1
v 6 3.499995 3.7 1 1 1
v 5.5 3.499995 3.7 1 1 1
v 6 -4.500005 3.7 1 1 1
v 5.5 -4.500005 3.7 1 1 1
v -5.5 -7.499998 3.7 1 1 1
v -6 -7.499998 3.7 1 1 1
v 5.5 -0.500005 3.7 1 1 1
v 6 -0.500005 3.7 1 1 1
v 6 -7.500005 5.75 1 1 1
v 6 -7.500005 3.7 1 1 1
v -5.5 4.500002 3.7 1 1 1
v -6 4.500002 3.7 1 1 1
v -6 -4.499998 3.7 1 1 1
v -5.5 -4.499998 3.7 1 1 1
v -5.5 0.500002 3.7 1 1 1
v -6 0.500002 3.7 1 1 1
v -6 3.500002 3.7 1 1 1
v -5.5 3.500002 3.7 1 1 1
v -6 -4.499998 3.7 1 1 1
v -6 -4.499998 1 1 1 1
v -6 -3.499998 3.7 1 1 1
v -6 -3.499998 1 1 1 1
v -6 3.500002 3.7 1 1 1
v -6 7.500002 3.7 1 1 1
v -5.5 7.500002 3.7 1 1 1
v -5.5 -3.499998 3.7 1 1 1
v -6 -3.499998 3.7 1 1 1
v -5.5 3.500002 4.2 1 1 1
v -5.5 3.500002 3.7 1 1 1
v -5.5 -0.499998 3.7 1 1 1
v -5.5 -7.499998 4.2 1 1 1
v -5.5 -7.499998 3.7 1 1 1
v -5.5 -4.499998 3.7 1 1 1
v -5.5 -3.499998 3.7 1 1 1
v -5.5 -3.499998 3.7 1 1 1
v -5.5 -4.499998 1 1 1 1
v -5.5 -3.499998 1 1 1 1
v -5.500002 -8.499998 0 1 1 1
v -5.5 -7.499998 1 1 1 1
v -5.500002 -8.499998 4.2 1 1 1
v -5.5 -7.499998 3.7 1 1 1
v -5.5 -7.499998 4.2 1 1 1
v -5.5 3.500002 1 1 1 1
v -5.5 4.500002 1 1 1 1
v -5.5 4.500002 3.7 1 1 1
v -5.5 7.500002 1 1 1 1
v -5.5 7.500002 3.7 1 1 1
v -5.5 7.500002 4.2 1 1 1
v -5.5 3.500002 4.2 1 1 1
v -5.5 7.500002 4.2 1 1 1
v -5.5 7.500002 3.7 1 1 1
v -5.5 7.500002 4.2 1 1 1
v -5.5 3.500002 4.2 1 1 1
v -5.499999 8.500002 0 1 1 1
v -1.249998 8.5 0 1 1 1
v -5.500002 -8.499998 0 1 1 1
v 1.250002 8.5 0 1 1 1
v 1.250002 9 0 1 1 1
v -1.249998 9 0 1 1 1
v 5.499996 -8.500008 0 1 1 1
v 1.249997 -9.000003 0 1 1 1
v -1.250003 -9.000003 0 1 1 1
v 6 -3.500005 3.7 1 1 1
v 5.5 -3.500005 3.7 1 1 1
v -1.250003 -9.000003 5.75 1 1 1
v -1.250003 -9.000003 2.7 1 1 1
v -6.000002 -8.999998 5.75 1 1 1
v -1.250003 -9.000003 0 1 1 1
v 1.249997 -9.000003 5.75 1 1 1
v 5.999996 -9.000008 5.75 1 1 1
v 1.249997 -9.000003 0 1 1 1
v -6.000001 -9 -6 1 1 1
v 6 -9.000002 -6 1 1 1
v -6.000001 -9 -6 1 1 1
v -5.999999 -7.499997 -6 1 1 1
v -5.999998 9.000006 -6 1 1 1
v -6 3.500002 1 1 1 1
v -6 4.500002 1 1 1 1
v -5.999999 9.000002 5.75 1 1 1
v -5.500002 -8.499998 5.75 1 1 1
v -6.000002 -8.999998 5.75 1 1 1
v -1.250003 -9.000003 5.75 1 1 1
v -1.250003 -8.500003 5.75 1 1 1
v 6 0.499995 3.7 1 1 1
v 5.5 0.499995 3.7 1 1 1
v -6 3.500002 3.7 1 1 1
v -6 7.500002 1 1 1 1
v -6 7.500002 3.7 1 1 1
v -5.999999 9.000002 5.75 1 1 1
vt 0.08699554 0.3461401
vt 0.16688773 0.2712708
vt 0.08699554 0.3461401
vt 0.08699554 0.3461401
vt 0.119110614 0.29796743
vt 0.119110614 0.27720338
vt 0.119110614 0.28016973
vt 0.15075108 0.29796743
vt 0.15075108 0.25050676
vt 0.119110614 0.27720338
vt 0.8240943 0.27763176
vt 0.90398645 0.19386363
vt 0.90398645 0.20276248
vt 0.90398645 0.1997962
vt 0.90398645 0.19386363
vt 0.89706516 0.19386363
vt 0.8965708 0.19386363
vt 0.8240943 0.27763176
vt 0.8240943 0.27763176
vt 0.8240943 0.27763176
vt 0.8997842 0.18199843
vt 0.8240943 0.27763176
vt 0.8240943 0.27763176
vt 0.8980539 0.19386363
vt 0.8965708 0.19386363
vt 0.8240943 0.27763176
vt 0.8980539 0.19386363
vt 0.8990426 0.19386363
vt 0.8960763 0.19386363
vt 0.8995371 0.19386363
vt 0.89632356 0.19386363
vt 0.8960763 0.19386363
vt 0.89632356 0.19386363
vt 0.89632356 0.19386363
vt 0.90003145 0.19386363
vt 0.8997842 0.19386363
vt 0.8995371 0.19386363
vt 0.8997842 0.19386363
vt 0.8999078 0.19386363
vt 0.90003145 0.19386363
vt 0.8999078 0.19386363
vt 0.8999078 0.19386363
vt 0.1187942 0.3459028
vt 0.09889534 0.3459028
vt 0.11879423 0.29844213
vt 0.09877172 0.3459028
vt 0.09852454 0.3459028
vt 0.09803015 0.3459028
vt 0.0970414 0.3459028
vt 0.08715376 0.29844207
vt 0.09605262 0.3459028
vt 0.095558256 0.3459028
vt 0.15947202 0.26237196
vt 0.08699554 0.3461401
vt 0.08699554 0.3461401
vt 0.09605262 0.3459028
vt 0.08699554 0.3461401
vt 0.095558256 0.3459028
vt 0.09803015 0.3459028
vt 0.095311046 0.3459028
vt 0.095311046 0.3459028
vt 0.08715373 0.3459028
vt 0.095311046 0.3459028
vt 0.08699554 0.3461401
vt 0.08699554 0.3461401
vt 0.09877172 0.3459028
vt 0.08699554 0.3461401
vt 0.09852454 0.3459028
vt 0.13097578 0.3459028
vt 0.119110614 0.25050676
vt 0.182708 0.31327355
vt 0.08699554 0.3461401
vt 0.182708 0.31327355
vt 0.182708 0.3147567
vt 0.1628091 0.26237196
vt 0.08699554 0.3461401
vt 0.16194388 0.25050676
vt 0.16688773 0.2712708
vt 0.08699554 0.3461401
vt 0.182708 0.26830453
vt 0.90398645 0.20572877
vt 0.90398645 0.20572877
vt 0.90398645 0.20276248
vt 0.8240943 0.27763176
vt 0.8980539 0.20572877
vt 0.8990426 0.20572877
vt 0.37136242 0.6497536
vt 0.37111518 0.6586524
vt 0.37136242 0.6378884
vt 0.37494668 0.6616187
vt 0.29913312 0.7335217
vt 0.37494668 0.68534905
vt 0.37507024 0.6497536
vt 0.08703528 0.6829577
vt 0.09099035 0.6888903
vt 0.094945416 0.69185656
vt 0.8960763 0.20276248
vt 0.8960763 0.20572877
vt 0.8240943 0.27763176
vt 0.8960763 0.20572877
vt 0.8960763 0.1997962
vt 0.8960763 0.1997962
vt 0.1624383 0.26237196
vt 0.08699554 0.3461401
vt 0.15922484 0.25050676
vt 0.1589776 0.26237196
vt 0.15106753 0.25050676
vt 0.1589776 0.2742371
vt 0.1628091 0.29796743
vt 0.15922484 0.2742371
vt 0.1624383 0.25050676
vt 0.1628091 0.26237196
vt 0.1624383 0.26237196
vt 0.182708 0.25050676
vt 0.16688773 0.26237196
vt 0.182708 0.26830453
vt 0.08699554 0.3461401
vt 0.16688773 0.2712708
vt 0.182708 0.31605446
vt 0.08699554 0.3461401
vt 0.16268548 0.2742371
vt 0.08699554 0.3461401
vt 0.182708 0.310678
vt 0.182708 0.31104887
vt 0.6385926 0.3007856
vt 0.6306825 0.3007856
vt 0.6385926 0.3007856
vt 0.6306825 0.3007856
vt 0.6306825 0.29781932
vt 0.6385926 0.29781932
vt 0.6306825 0.29781932
vt 0.6385926 0.29781932
vt 0.60367674 0.1918987
vt 0.60268795 0.1918987
vt 0.60367674 0.16816837
vt 0.60268795 0.16816837
vt 0.6051599 0.1918987
vt 0.60466546 0.1918987
vt 0.6051599 0.16816837
vt 0.60466546 0.16816837
vt 0.6420533 0.29188675
vt 0.6415589 0.29188675
vt 0.6420533 0.28002155
vt 0.6415589 0.28002155
vt 0.6021936 0.1918987
vt 0.6019464 0.1918987
vt 0.6021936 0.16816837
vt 0.6019464 0.16816837
vt 0.639087 0.29188675
vt 0.63883984 0.29188675
vt 0.639087 0.28002155
vt 0.63883984 0.28002155
vt 0.6055307 0.1918987
vt 0.60540706 0.1918987
vt 0.6055307 0.16816837
vt 0.60540706 0.16816837
vt 0.64650273 0.3007856
vt 0.64650273 0.3007856
vt 0.662323 0.3007856
vt 0.662323 0.3007856
vt 0.60466546 0.1918987
vt 0.60466546 0.16816837
vt 0.64650273 0.29781932
vt 0.662323 0.29781932
vt 0.64650273 0.29781932
vt 0.662323 0.29781932
vt 0.08699554 0.3461401
vt 0.08699554 0.3461401
vt 0.1589776 0.26830453
vt 0.08699554 0.3461401
vt 0.08699554 0.3461401
vt 0.15922484 0.2742371
vt 0.08699554 0.3461401
vt 0.08699554 0.3461401
vt 0.4048425 0.2653954
vt 0.4048425 0.2653954
vt 0.4048425 0.2653954
vt 0.4048425 0.2653954
vt 0.56661093 0.32031465
vt 0.6424245 0.272142
vt 0.6423009 0.24841166
vt 0.56661093 0.32031465
vt 0.56661093 0.32031465
vt 0.6420537 0.272142
vt 0.6415593 0.24841166
vt 0.56661093 0.32031465
vt 0.56661093 0.32031465
vt 0.6405706 0.272142
vt 0.6395818 0.24841166
vt 0.56661093 0.32031465
vt 0.56661093 0.32031465
vt 0.63908744 0.272142
vt 0.63884026 0.24841166
vt 0.56661093 0.32031465
vt 0.56661093 0.32031465
vt 0.63068295 0.24544537
vt 0.638593 0.24247909
vt 0.56661093 0.32031465
vt 0.56661093 0.32031465
vt 0.6405706 0.23654652
vt 0.6395818 0.22468132
vt 0.56661093 0.32031465
vt 0.56661093 0.32031465
vt 0.6420537 0.23654652
vt 0.6415593 0.22468132
vt 0.56661093 0.32031465
vt 0.56661093 0.32031465
vt 0.6424245 0.23654652
vt 0.6423009 0.22468132
vt 0.56661093 0.32031465
vt 0.64057016 0.29188675
vt 0.6395814 0.29188675
vt 0.64057016 0.28002155
vt 0.6395814 0.28002155
vt 0.6424241 0.29188675
vt 0.6423005 0.29188675
vt 0.6424241 0.28002155
vt 0.6423005 0.28002155
vt 0.639087 0.28002155
vt 0.639087 0.29188675
vt 0.6424241 0.28002155
vt 0.6424241 0.29188675
vt 0.56661093 0.32031465
vt 0.64650315 0.24544537
vt 0.6623234 0.24247909
vt 0.56661093 0.32031465
vt 0.56661093 0.32031465
vt 0.63908744 0.23654652
vt 0.63884026 0.22468132
vt 0.56661093 0.32031465
vt 0.182708 0.31605446
vt 0.182708 0.3459028
vt 0.182708 0.31605446
vt 0.63883984 0.29188675
vt 0.63883984 0.28002155
vt 0.6395814 0.28002155
vt 0.6395814 0.29188675
vt 0.6423005 0.28002155
vt 0.6423005 0.29188675
vt 0.6055307 0.16816837
vt 0.6055307 0.1918987
vt 0.6415589 0.29188675
vt 0.6415589 0.28002155
vt 0.09889534 0.3459028
vt 0.09889534 0.3459028
vt 0.6021936 0.16816837
vt 0.6021936 0.1918987
vt 0.60540706 0.1918987
vt 0.60540706 0.16816837
vt 0.60367674 0.16816837
vt 0.60367674 0.1918987
vt 0.60268795 0.1918987
vt 0.60268795 0.16816837
vt 0.182708 0.31586903
vt 0.182708 0.31586903
vt 0.182708 0.31549823
vt 0.182708 0.31549823
vt 0.08699554 0.3461401
vt 0.6019464 0.1918987
vt 0.6019464 0.16816837
vt 0.6051599 0.16816837
vt 0.6051599 0.1918987
vt 0.8980539 0.2294591
vt 0.89706516 0.20572877
vt 0.8990426 0.20572877
vt 0.8240943 0.27763176
vt 0.8240943 0.27763176
vt 0.8997842 0.20572877
vt 0.8240943 0.27763176
vt 0.8995371 0.20572877
vt 0.8997842 0.20572877
vt 0.8995371 0.20572877
vt 0.90003145 0.20572877
vt 0.8999078 0.20572877
vt 0.90003145 0.20572877
vt 0.8999078 0.20572877
vt 0.8999078 0.20572877
vt 0.89706516 0.20572877
vt 0.8965708 0.20572877
vt 0.8240943 0.27763176
vt 0.89632356 0.20572877
vt 0.89632356 0.20572877
vt 0.89632356 0.20572877
vt 0.89706516 0.20572877
vt 0.8965708 0.2294591
vt 0.8240943 0.27763176
vt 0.37111518 0.6616187
vt 0.3716096 0.6616187
vt 0.08703528 0.69482285
vt 0.08703528 0.69185656
vt 0.09099035 0.69482285
vt 0.08703528 0.6888903
vt 0.07912521 0.6888903
vt 0.07912521 0.69185656
vt 0.09099035 0.6829577
vt 0.11076568 0.6888903
vt 0.11076568 0.69185656
vt 0.6420533 0.28002155
vt 0.6420533 0.29188675
vt 0.13295332 0.3459028
vt 0.13295332 0.3459028
vt 0.15075108 0.3459028
vt 0.13295332 0.3459028
vt 0.13097578 0.3459028
vt 0.119110614 0.3459028
vt 0.13097578 0.3459028
vt 0.15075108 0.29844213
vt 0.119110614 0.29844207
vt 0.15106753 0.3459028
vt 0.15106753 0.31605446
vt 0.15106753 0.29844207
vt 0.182708 0.3117904
vt 0.182708 0.31104887
vt 0.15106753 0.29796743
vt 0.16293266 0.2742371
vt 0.182708 0.29796743
vt 0.182708 0.2712708
vt 0.16688773 0.2712708
vt 0.64057016 0.28002155
vt 0.64057016 0.29188675
vt 0.182708 0.3117904
vt 0.182708 0.310678
vt 0.182708 0.310678
vt 0.182708 0.29844213
vn 0 -1 -1.5259022E-05
vn 0 -1 -1.5259022E-05
vn 0 -1 -1.5259022E-05
vn 0 1 -1.5259022E-05
vn 0 1 -1.5259022E-05
vn 0 1 -1.5259022E-05
vn 0 1 -1.5259022E-05
vn 0 1 -1.5259022E-05
vn 0 1 -1.5259022E-05
vn 0 1 -1.5259022E-05
vn 0 1 -1.5259022E-05
vn 0 1 -1.5259022E-05
vn 0 1 -1.5259022E-05
vn 0 1 -1.5259022E-05
vn 0 1 -1.5259022E-05
vn -1 0 -1.5259022E-05
vn -1 0 -1.5259022E-05
vn -1 0 -1.5259022E-05
vn -1 0 -1.5259022E-05
vn -1 0 -1.5259022E-05
vn -1 0 -1.5259022E-05
vn -1 0 -1.5259022E-05
vn -1 0 -1.5259022E-05
vn -1 0 -1.5259022E-05
vn -1 0 -1.5259022E-05
vn -1 0 -1.5259022E-05
vn -1 0 -1.5259022E-05
vn -1 0 -1.5259022E-05
vn -1 0 -1.5259022E-05
vn -1 0 -1.5259022E-05
vn -1 0 -1.5259022E-05
vn -1 0 -1.5259022E-05
vn -1 0 -1.5259022E-05
vn -1 0 -1.5259022E-05
vn -1 0 -1.5259022E-05
vn -1 0 -1.5259022E-05
vn -1 0 -1.5259022E-05
vn -1 0 -1.5259022E-05
vn -1 0 -1.5259022E-05
vn -1 0 -1.5259022E-05
vn -1 0 -1.5259022E-05
vn -1 0 -1.5259022E-05
vn 1 0 -1.5259022E-05
vn 1 0 -1.5259022E-05
vn 1 0 -1.5259022E-05
vn 1 0 -1.5259022E-05
vn 1 0 -1.5259022E-05
vn 1 0 -1.5259022E-05
vn 1 0 -1.5259022E-05
vn 1 0 -1.5259022E-05
vn 1 0 -1.5259022E-05
vn 1 0 -1.5259022E-05
vn 1 0 -1.5259022E-05
vn 1 0 -1.5259022E-05
vn 1 0 -1.5259022E-05
vn 1 0 -1.5259022E-05
vn 1 0 -1.5259022E-05
vn 1 0 -1.5259022E-05
vn 1 0 -1.5259022E-05
vn 1 0 -1.5259022E-05
vn 1 0 -1.5259022E-05
vn 1 0 -1.5259022E-05
vn 1 0 -1.5259022E-05
vn 1 0 -1.5259022E-05
vn 1 0 -1.5259022E-05
vn 1 0 -1.5259022E-05
vn 1 0 -1.5259022E-05
vn 1 0 -1.5259022E-05
vn 0 -1 -1.5259022E-05
vn 0 1 -1.5259022E-05
vn -1 0 -1.5259022E-05
vn -1 0 -1.5259022E-05
vn -1 0 -1.5259022E-05
vn -1 0 -1.5259022E-05
vn -1 0 -1.5259022E-05
vn -1 0 -1.5259022E-05
vn -1 0 -1.5259022E-05
vn 0 1 -1.5259022E-05
vn 0 1 -1.5259022E-05
vn 0 1 -1.5259022E-05
vn 0 1 -1.5259022E-05
vn 0 1 -1.5259022E-05
vn 0 1 -1.5259022E-05
vn 1 0 -1.5259022E-05
vn 1 0 -1.5259022E-05
vn 1 0 -1.5259022E-05
vn 0 0 -1
vn 0 0 -1
vn 0 0 -1
vn 0 0 -1
vn 0 0 -1
vn 0 0 -1
vn 0 0 -1
vn -1.5259255E-05 -1.5259255E-05 1
vn -1.5259255E-05 -1.5259255E-05 1
vn -1.5259255E-05 -1.5259255E-05 1
vn 0 -1 -1.5259022E-05
vn 0 -1 -1.5259022E-05
vn 0 -1 -1.5259022E-05
vn 0 -1 -1.5259022E-05
vn 0 -1 -1.5259022E-05
vn 0 -1 -1.5259022E-05
vn -1.5259255E-05 -1.5259255E-05 1
vn -1.5259255E-05 -1.5259255E-05 1
vn -1.5259255E-05 -1.5259255E-05 1
vn -1.5259255E-05 -1.5259255E-05 1
vn -1.5259255E-05 -1.5259255E-05 1
vn -1.5259255E-05 -1.5259255E-05 1
vn -1.5259255E-05 -1.5259255E-05 1
vn -1.5259255E-05 -1.5259255E-05 1
vn -1.5259255E-05 -1.5259255E-05 1
vn -1.5259255E-05 -1.5259255E-05 1
vn -1.5259255E-05 -1.5259255E-05 1
vn -1.5259255E-05 -1.5259255E-05 1
vn -1.5259255E-05 -1.5259255E-05 1
vn -1.5259255E-05 -1.5259255E-05 1
vn -1.5259255E-05 -1.5259255E-05 1
vn -1.5259255E-05 -1.5259255E-05 1
vn -1 0 -1.5259022E-05
vn -1 0 -1.5259022E-05
vn -1 0 -1.5259022E-05
vn -1 0 -1.5259022E-05
vn -1 0 -1.5259022E-05
vn -1 0 -1.5259022E-05
vn 1 0 -1.5259022E-05
vn 1 0 -1.5259022E-05
vn 1 0 -1.5259022E-05
vn 1 0 -1.5259022E-05
vn -1 0 -1.5259022E-05
vn -1 0 -1.5259022E-05
vn -1 0 -1.5259022E-05
vn -1 0 -1.5259022E-05
vn -1.5259255E-05 -1.5259255E-05 1
vn -1.5259255E-05 -1.5259255E-05 1
vn -1.5259255E-05 -1.5259255E-05 1
vn -1.5259255E-05 -1.5259255E-05 1
vn -1.5259255E-05 -1.5259255E-05 1
vn -1.5259255E-05 -1.5259255E-05 1
vn -1.5259255E-05 -1.5259255E-05 1
vn -1.5259255E-05 -1.5259255E-05 1
vn -1.5259255E-05 -1.5259255E-05 1
vn -1.5259255E-05 -1.5259255E-05 1
vn -1.5259255E-05 -1.5259255E-05 1
vn -1.5259255E-05 -1.5259255E-05 1
vn -1.5259255E-05 -1.5259255E-05 1
vn -1.5259255E-05 -1.5259255E-05 1
vn -1.5259255E-05 -1.5259255E-05 1
vn -1.5259255E-05 -1.5259255E-05 1
vn -1.5259255E-05 -1.5259255E-05 1
vn -1.5259255E-05 -1.5259255E-05 1
vn -1.5259255E-05 -1.5259255E-05 1
vn -1.5259255E-05 -1.5259255E-05 1
vn -1.5259255E-05 -1.5259255E-05 1
vn -1.5259255E-05 -1.5259255E-05 1
vn -1.5259255E-05 -1.5259255E-05 1
vn -1.5259255E-05 -1.5259255E-05 1
vn 1 0 -1.5259022E-05
vn 1 0 -1.5259022E-05
vn 1 0 -1.5259022E-05
vn 1 0 -1.5259022E-05
vn 0 -1 -1.5259022E-05
vn 0 -1 -1.5259022E-05
vn -1 0 -1.5259022E-05
vn -1 0 -1.5259022E-05
vn -1 0 -1.5259022E-05
vn -1 0 -1.5259022E-05
vn -1 0 -1.5259022E-05
vn -1 0 -1.5259022E-05
vn 0 -1 -1.5259022E-05
vn 0 -1 -1.5259022E-05
vn 0 -1 -1.5259022E-05
vn 1 0 -1.5259022E-05
vn 1 0 -1.5259022E-05
vn 0 1 -1.5259022E-05
vn -1.5259255E-05 -1.5259255E-05 1
vn -1.5259255E-05 -1.5259255E-05 1
vn -1.5259255E-05 -1.5259255E-05 1
vn -1.5259255E-05 -1.5259255E-05 1
vn 0 0 -1
vn 0 0 -1
vn 0 0 -1
vn 0 0 -1
vn 0 0 -1
vn 0 0 -1
vn 0 0 -1
vn 0 0 -1
vn 0 0 -1
vn 0 0 -1
vn 0 0 -1
vn 0 0 -1
vn 0 0 -1
vn 0 0 -1
vn 0 0 -1
vn 0 0 -1
vn 0 0 -1
vn 0 0 -1
vn 0 0 -1
vn 0 0 -1
vn 0 0 -1
vn 0 0 -1
vn 0 0 -1
vn 0 0 -1
vn 0 0 -1
vn 0 0 -1
vn 0 0 -1
vn 0 0 -1
vn 0 0 -1
vn 0 0 -1
vn 0 0 -1
vn 0 0 -1
vn -1.5259255E-05 -1.5259255E-05 1
vn -1.5259255E-05 -1.5259255E-05 1
vn -1.5259255E-05 -1.5259255E-05 1
vn -1.5259255E-05 -1.5259255E-05 1
vn -1.5259255E-05 -1.5259255E-05 1
vn -1.5259255E-05 -1.5259255E-05 1
vn -1.5259255E-05 -1.5259255E-05 1
vn -1.5259255E-05 -1.5259255E-05 1
vn 0 1 -1.5259022E-05
vn 0 1 -1.5259022E-05
vn 0 1 -1.5259022E-05
vn 0 1 -1.5259022E-05
vn 0 0 -1
vn 0 0 -1
vn 0 0 -1
vn 0 0 -1
vn 0 0 -1
vn 0 0 -1
vn 0 0 -1
vn 0 0 -1
vn -1 0 -1.5259022E-05
vn -1 0 -1.5259022E-05
vn -1 0 -1.5259022E-05
vn 0 -1 -1.5259022E-05
vn 0 -1 -1.5259022E-05
vn 0 -1 -1.5259022E-05
vn 0 -1 -1.5259022E-05
vn 0 -1 -1.5259022E-05
vn 0 -1 -1.5259022E-05
vn 0 1 -1.5259022E-05
vn 0 1 -1.5259022E-05
vn 0 -1 -1.5259022E-05
vn 0 -1 -1.5259022E-05
vn 1 0 -1.5259022E-05
vn 1 0 -1.5259022E-05
vn 0 1 -1.5259022E-05
vn 0 1 -1.5259022E-05
vn 0 -1 -1.5259022E-05
vn 0 -1 -1.5259022E-05
vn 0 1 -1.5259022E-05
vn 0 1 -1.5259022E-05
vn 0 -1 -1.5259022E-05
vn 0 -1 -1.5259022E-05
vn -1 0 -1.5259022E-05
vn -1 0 -1.5259022E-05
vn -1 0 -1.5259022E-05
vn -1 0 -1.5259022E-05
vn 0 1 -1.5259022E-05
vn 0 -1 -1.5259022E-05
vn 0 -1 -1.5259022E-05
vn 0 1 -1.5259022E-05
vn 0 1 -1.5259022E-05
vn 1 0 -1.5259022E-05
vn 1 0 -1.5259022E-05
vn 1 0 -1.5259022E-05
vn 1 0 -1.5259022E-05
vn 1 0 -1.5259022E-05
vn 1 0 -1.5259022E-05
vn 1 0 -1.5259022E-05
vn 1 0 -1.5259022E-05
vn 1 0 -1.5259022E-05
vn 1 0 -1.5259022E-05
vn 1 0 -1.5259022E-05
vn 1 0 -1.5259022E-05
vn 1 0 -1.5259022E-05
vn 1 0 -1.5259022E-05
vn 1 0 -1.5259022E-05
vn 1 0 -1.5259022E-05
vn 1 0 -1.5259022E-05
vn 1 0 -1.5259022E-05
vn 1 0 -1.5259022E-05
vn 1 0 -1.5259022E-05
vn 1 0 -1.5259022E-05
vn 1 0 -1.5259022E-05
vn 1 0 -1.5259022E-05
vn 1 0 -1.5259022E-05
vn 0 0 -1
vn 0 0 -1
vn -1.5259255E-05 -1.5259255E-05 1
vn -1.5259255E-05 -1.5259255E-05 1
vn -1.5259255E-05 -1.5259255E-05 1
vn -1.5259255E-05 -1.5259255E-05 1
vn -1.5259255E-05 -1.5259255E-05 1
vn -1.5259255E-05 -1.5259255E-05 1
vn -1.5259255E-05 -1.5259255E-05 1
vn -1.5259255E-05 -1.5259255E-05 1
vn -1.5259255E-05 -1.5259255E-05 1
vn 0 1 -1.5259022E-05
vn 0 1 -1.5259022E-05
vn 0 -1 -1.5259022E-05
vn 0 -1 -1.5259022E-05
vn 0 -1 -1.5259022E-05
vn 0 -1 -1.5259022E-05
vn 0 -1 -1.5259022E-05
vn 0 -1 -1.5259022E-05
vn 0 -1 -1.5259022E-05
vn 0 -1 -1.5259022E-05
vn 0 -1 -1.5259022E-05
vn -1 0 -1.5259022E-05
vn -1 0 -1.5259022E-05
vn -1 0 -1.5259022E-05
vn -1 0 -1.5259022E-05
vn -1 0 -1.5259022E-05
vn -1.5259255E-05 -1.5259255E-05 1
vn -1.5259255E-05 -1.5259255E-05 1
vn -1.5259255E-05 -1.5259255E-05 1
vn -1.5259255E-05 -1.5259255E-05 1
vn -1.5259255E-05 -1.5259255E-05 1
vn 0 1 -1.5259022E-05
vn 0 1 -1.5259022E-05
vn -1 0 -1.5259022E-05
vn -1 0 -1.5259022E-05
vn -1 0 -1.5259022E-05
vn -1 0 -1.5259022E-05
f 3/3/3 2/2/2 1/1/1
f 6/6/6 5/5/5 4/4/4
f 4/4/4 8/8/8 7/7/7
f 9/9/9 7/7/7 8/8/8
f 7/7/7 9/9/9 10/10/10
f 13/13/13 12/12/12 11/11/11
f 11/11/11 15/15/15 14/14/14
f 18/18/18 17/17/17 16/16/16
f 21/21/21 20/20/20 19/19/19
f 23/23/23 21/21/21 22/22/22
f 22/22/22 24/24/24 23/23/23
f 22/22/22 18/18/18 24/24/24
f 22/22/22 25/25/25 18/18/18
f 25/25/25 22/22/22 26/26/26
f 18/18/18 25/25/25 17/17/17
f 27/27/27 23/23/23 24/24/24
f 27/27/27 28/28/28 23/23/23
f 28/28/28 27/27/27 29/29/29
f 27/27/27 16/16/16 29/29/29
f 17/17/17 29/29/29 16/16/16
f 30/30/30 28/28/28 29/29/29
f 17/17/17 31/31/31 29/29/29
f 31/31/31 32/32/32 29/29/29
f 31/31/31 33/33/33 32/32/32
f 32/32/32 33/33/33 34/34/34
f 29/29/29 35/35/35 30/30/30
f 30/30/30 35/35/35 36/36/36
f 30/30/30 36/36/36 37/37/37
f 37/37/37 36/36/36 38/38/38
f 36/36/36 35/35/35 39/39/39
f 39/39/39 35/35/35 40/40/40
f 39/39/39 40/40/40 41/41/41
f 41/41/41 40/40/40 42/42/42
f 45/45/45 44/44/44 43/43/43
f 45/45/45 46/46/46 44/44/44
f 47/47/47 46/46/46 45/45/45
f 45/45/45 48/48/48 47/47/47
f 48/48/48 45/45/45 49/49/49
f 49/49/49 45/45/45 50/50/50
f 50/50/50 51/51/51 49/49/49
f 52/52/52 51/51/51 50/50/50
f 55/55/55 54/54/54 53/53/53
f 53/53/53 57/57/57 56/56/56
f 51/51/51 58/58/58 56/56/56
f 51/51/51 52/52/52 58/58/58
f 48/48/48 57/57/57 59/59/59
f 48/48/48 49/49/49 57/57/57
f 50/50/50 60/60/60 52/52/52
f 60/60/60 50/50/50 61/61/61
f 61/61/61 50/50/50 62/62/62
f 61/61/61 62/62/62 63/63/63
f 66/66/66 65/65/65 64/64/64
f 46/46/46 67/67/67 66/66/66
f 46/46/46 47/47/47 67/67/67
f 56/56/56 55/55/55 53/53/53
f 68/68/68 57/57/57 53/53/53
f 57/57/57 68/68/68 59/59/59
f 59/59/59 68/68/68 67/67/67
f 3/3/3 69/69/69 2/2/2
f 4/4/4 5/5/5 8/8/8
f 5/5/5 6/6/6 70/70/70
f 70/70/70 6/6/6 9/9/9
f 6/6/6 10/10/10 9/9/9
f 73/73/73 72/72/72 71/71/71
f 73/73/73 74/74/74 72/72/72
f 77/77/77 76/76/76 75/75/75
f 80/80/80 79/79/79 78/78/78
f 11/11/11 12/12/12 15/15/15
f 12/12/12 13/13/13 81/81/81
f 81/81/81 13/13/13 82/82/82
f 13/13/13 83/83/83 82/82/82
f 86/86/86 85/85/85 84/84/84
f 89/89/89 88/88/88 87/87/87
f 92/92/92 91/91/91 90/90/90
f 91/91/91 92/92/92 93/93/93
f 96/96/96 95/95/95 94/94/94
f 99/99/99 98/98/98 97/97/97
f 101/101/101 100/100/100 99/99/99
f 99/99/99 100/100/100 98/98/98
f 100/100/100 101/101/101 32/32/32
f 32/32/32 101/101/101 29/29/29
f 29/29/29 101/101/101 102/102/102
f 105/105/105 104/104/104 103/103/103
f 107/107/107 106/106/106 105/105/105
f 107/107/107 108/108/108 106/106/106
f 106/106/106 104/104/104 105/105/105
f 108/108/108 110/110/110 109/109/109
f 113/113/113 112/112/112 111/111/111
f 115/115/115 114/114/114 112/112/112
f 114/114/114 115/115/115 116/116/116
f 116/116/116 115/115/115 117/117/117
f 115/115/115 112/112/112 113/113/113
f 116/116/116 117/117/117 118/118/118
f 121/121/121 120/120/120 119/119/119
f 124/124/124 123/123/123 122/122/122
f 127/127/127 126/126/126 125/125/125
f 127/127/127 128/128/128 126/126/126
f 37/37/37 20/20/20 21/21/21
f 21/21/21 23/23/23 37/37/37
f 131/131/131 130/130/130 129/129/129
f 131/131/131 132/132/132 130/130/130
f 135/135/135 134/134/134 133/133/133
f 135/135/135 136/136/136 134/134/134
f 139/139/139 138/138/138 137/137/137
f 139/139/139 140/140/140 138/138/138
f 143/143/143 142/142/142 141/141/141
f 143/143/143 144/144/144 142/142/142
f 147/147/147 146/146/146 145/145/145
f 147/147/147 148/148/148 146/146/146
f 151/151/151 150/150/150 149/149/149
f 151/151/151 152/152/152 150/150/150
f 155/155/155 154/154/154 153/153/153
f 155/155/155 156/156/156 154/154/154
f 159/159/159 158/158/158 157/157/157
f 159/159/159 160/160/160 158/158/158
f 140/140/140 161/161/161 138/138/138
f 161/161/161 140/140/140 162/162/162
f 165/165/165 164/164/164 163/163/163
f 165/165/165 166/166/166 164/164/164
f 167/167/167 76/76/76 77/77/77
f 77/77/77 168/168/168 167/167/167
f 170/170/170 167/167/167 169/169/169
f 170/170/170 171/171/171 167/167/167
f 173/173/173 171/171/171 172/172/172
f 173/173/173 79/79/79 171/171/171
f 76/76/76 79/79/79 80/80/80
f 80/80/80 174/174/174 76/76/76
f 177/177/177 176/176/176 175/175/175
f 177/177/177 178/178/178 176/176/176
f 181/181/181 180/180/180 179/179/179
f 181/181/181 182/182/182 180/180/180
f 185/185/185 184/184/184 183/183/183
f 185/185/185 186/186/186 184/184/184
f 189/189/189 188/188/188 187/187/187
f 189/189/189 190/190/190 188/188/188
f 193/193/193 192/192/192 191/191/191
f 193/193/193 194/194/194 192/192/192
f 197/197/197 196/196/196 195/195/195
f 197/197/197 198/198/198 196/196/196
f 201/201/201 200/200/200 199/199/199
f 201/201/201 202/202/202 200/200/200
f 205/205/205 204/204/204 203/203/203
f 205/205/205 206/206/206 204/204/204
f 209/209/209 208/208/208 207/207/207
f 209/209/209 210/210/210 208/208/208
f 213/213/213 212/212/212 211/211/211
f 213/213/213 214/214/214 212/212/212
f 217/217/217 216/216/216 215/215/215
f 217/217/217 218/218/218 216/216/216
f 151/151/151 220/220/220 219/219/219
f 151/151/151 149/149/149 220/220/220
f 217/217/217 222/222/222 221/221/221
f 217/217/217 215/215/215 222/222/222
f 225/225/225 224/224/224 223/223/223
f 225/225/225 226/226/226 224/224/224
f 229/229/229 228/228/228 227/227/227
f 229/229/229 230/230/230 228/228/228
f 232/232/232 119/119/119 231/231/231
f 232/232/232 233/233/233 119/119/119
f 150/150/150 235/235/235 234/234/234
f 150/150/150 152/152/152 235/235/235
f 237/237/237 214/214/214 236/236/236
f 237/237/237 212/212/212 214/214/214
f 216/216/216 218/218/218 238/238/238
f 238/238/238 239/239/239 216/216/216
f 155/155/155 241/241/241 240/240/240
f 155/155/155 153/153/153 241/241/241
f 142/142/142 243/243/243 242/242/242
f 243/243/243 142/142/142 144/144/144
f 245/245/245 244/244/244 43/43/43
f 43/43/43 44/44/44 245/245/245
f 66/66/66 68/68/68 65/65/65
f 68/68/68 66/66/66 67/67/67
f 246/246/246 147/147/147 145/145/145
f 145/145/145 247/247/247 246/246/246
f 248/248/248 154/154/154 156/156/156
f 156/156/156 249/249/249 248/248/248
f 135/135/135 251/251/251 250/250/250
f 251/251/251 135/135/135 133/133/133
f 134/134/134 253/253/253 252/252/252
f 253/253/253 134/134/134 136/136/136
f 256/256/256 255/255/255 254/254/254
f 257/257/257 255/255/255 256/256/256
f 254/254/254 72/72/72 256/256/256
f 258/258/258 72/72/72 254/254/254
f 72/72/72 258/258/258 71/71/71
f 259/259/259 146/146/146 148/148/148
f 148/148/148 260/260/260 259/259/259
f 139/139/139 262/262/262 261/261/261
f 262/262/262 139/139/139 137/137/137
f 84/84/84 264/264/264 263/263/263
f 265/265/265 84/84/84 263/263/263
f 265/265/265 263/263/263 266/266/266
f 268/268/268 266/266/266 267/267/267
f 266/266/266 268/268/268 269/269/269
f 265/265/265 266/266/266 269/269/269
f 86/86/86 84/84/84 265/265/265
f 271/271/271 270/270/270 268/268/268
f 271/271/271 272/272/272 270/270/270
f 273/273/273 86/86/86 272/272/272
f 273/273/273 272/272/272 271/271/271
f 85/85/85 86/86/86 273/273/273
f 273/273/273 271/271/271 274/274/274
f 274/274/274 275/275/275 273/273/273
f 275/275/275 274/274/274 276/276/276
f 275/275/275 276/276/276 277/277/277
f 98/98/98 85/85/85 273/273/273
f 98/98/98 278/278/278 85/85/85
f 98/98/98 279/279/279 278/278/278
f 278/278/278 279/279/279 280/280/280
f 278/278/278 280/280/280 264/264/264
f 98/98/98 281/281/281 279/279/279
f 281/281/281 98/98/98 100/100/100
f 281/281/281 100/100/100 282/282/282
f 100/100/100 283/283/283 282/282/282
f 284/284/284 264/264/264 280/280/280
f 280/280/280 285/285/285 284/284/284
f 285/285/285 280/280/280 286/286/286
f 89/89/89 287/287/287 88/88/88
f 287/287/287 89/89/89 288/288/288
f 288/288/288 89/89/89 93/93/93
f 288/288/288 93/93/93 92/92/92
f 291/291/291 290/290/290 289/289/289
f 94/94/94 290/290/290 291/291/291
f 94/94/94 291/291/291 96/96/96
f 290/290/290 94/94/94 292/292/292
f 290/290/290 292/292/292 293/293/293
f 290/290/290 293/293/293 294/294/294
f 94/94/94 95/95/95 295/295/295
f 95/95/95 96/96/96 296/296/296
f 296/296/296 96/96/96 297/297/297
f 298/298/298 143/143/143 141/141/141
f 141/141/141 299/299/299 298/298/298
f 302/302/302 301/301/301 300/300/300
f 302/302/302 303/303/303 301/301/301
f 69/69/69 305/305/305 304/304/304
f 306/306/306 305/305/305 69/69/69
f 307/307/307 303/303/303 302/302/302
f 307/307/307 306/306/306 303/303/303
f 308/308/308 306/306/306 307/307/307
f 306/306/306 308/308/308 305/305/305
f 231/231/231 309/309/309 232/232/232
f 309/309/309 231/231/231 310/310/310
f 255/255/255 310/310/310 231/231/231
f 310/310/310 255/255/255 257/257/257
f 310/310/310 257/257/257 74/74/74
f 74/74/74 73/73/73 310/310/310
f 73/73/73 311/311/311 310/310/310
f 311/311/311 73/73/73 312/312/312
f 311/311/311 312/312/312 313/313/313
f 108/108/108 314/314/314 110/110/110
f 108/108/108 107/107/107 314/314/314
f 108/108/108 109/109/109 315/315/315
f 315/315/315 109/109/109 316/316/316
f 315/315/315 316/316/316 317/317/317
f 315/315/315 317/317/317 318/318/318
f 213/213/213 320/320/320 319/319/319
f 320/320/320 213/213/213 211/211/211
f 321/321/321 121/121/121 123/123/123
f 121/121/121 321/321/321 120/120/120
f 313/313/313 312/312/312 321/321/321
f 313/313/313 321/321/321 124/124/124
f 124/124/124 321/321/321 123/123/123
f 311/311/311 313/313/313 322/322/322
f 311/311/311 322/322/322 323/323/323
f 311/311/311 323/323/323 324/324/324
f 324/324/324 323/323/323 123/123/123
