# generated by LodBaker -- retail ships no LODGroup for this prop
v 0.136426 -0.078765 -0.293915 1 1 1
v 0.136426 0.078765 0.382418 1 1 1
v 0.136426 0.078765 -0.293915 1 1 1
v 0.136426 -0.078765 0.382418 1 1 1
v -0.136425 -0.078765 -0.293915 1 1 1
v 0.136426 -0.078765 0.382418 1 1 1
v 0.136426 -0.078765 -0.293915 1 1 1
v -0.136425 -0.078765 0.382418 1 1 1
v -0.136425 0.078765 -0.293915 1 1 1
v -0.136425 -0.078765 0.382418 1 1 1
v -0.136425 -0.078765 -0.293915 1 1 1
v -0.136425 0.078765 0.382418 1 1 1
v 0.136426 0.078765 -0.293915 1 1 1
v -0.136425 0.078765 0.382418 1 1 1
v -0.136425 0.078765 -0.293915 1 1 1
v 0.136426 0.078765 0.382418 1 1 1
v -0.136425 -0.078765 -0.293915 1 1 1
v 0.136426 -0.078765 -0.293915 1 1 1
v -0.136425 0.078765 -0.293915 1 1 1
v 0.136426 0.078765 -0.293915 1 1 1
v -0.136425 -0.078765 0.382418 1 1 1
v 0.136426 0.078765 0.382418 1 1 1
v 0.136426 -0.078765 0.382418 1 1 1
v -0.136425 0.078765 0.382418 1 1 1
vt 0.34975493 0.6607357
vt 1.2408321 0.8682847
vt 0.34975493 0.8682847
vt 1.2408321 0.6607357
vt 0.34975493 0.5847672
vt 1.2408321 0.944253
vt 0.34975493 0.944253
vt 1.2408321 0.5847672
vt 0.34975493 0.8682847
vt 1.2408321 0.6607357
vt 0.34975493 0.6607357
vt 1.2408321 0.8682847
vt 0.34975493 0.944253
vt 1.2408321 0.5847672
vt 0.34975493 0.5847672
vt 1.2408321 0.944253
vt 0.2440786 0.70178413
vt 0.2440786 0.70178413
vt 0.2440786 0.70178413
vt 0.2440786 0.70178413
vt 0.24407864 0.3129804
vt 0.24407864 0.3129804
vt 0.24407864 0.3129804
vt 0.24407864 0.3129804
vn 1 0 -1.5259022E-05
vn 1 0 -1.5259022E-05
vn 1 0 -1.5259022E-05
vn 1 0 -1.5259022E-05
vn -0.49999073 -0.8660307 -6.253436E-05
vn 0.49997267 -0.8660412 -2.0844036E-05
vn 0.49997267 -0.8660412 -2.0844036E-05
vn -0.49999073 -0.8660307 -6.253436E-05
vn -1 0 -1.5259022E-05
vn -1 0 -1.5259022E-05
vn -1 0 -1.5259022E-05
vn -1 0 -1.5259022E-05
vn 0.49999732 0.8660269 2.0844192E-05
vn -0.50002205 0.86601275 -2.0844354E-05
vn -0.50002205 0.86601275 -2.0844354E-05
vn 0.49999732 0.8660269 2.0844192E-05
vn 0 0 -1
vn 0 0 -1
vn 0 0 -1
vn 0 0 -1
vn -1.5259255E-05 -1.5259255E-05 1
vn -1.5259255E-05 -1.5259255E-05 1
vn -1.5259255E-05 -1.5259255E-05 1
vn -1.5259255E-05 -1.5259255E-05 1
f 3/3/3 2/2/2 1/1/1
f 1/1/1 2/2/2 4/4/4
f 7/7/7 6/6/6 5/5/5
f 5/5/5 6/6/6 8/8/8
f 11/11/11 10/10/10 9/9/9
f 9/9/9 10/10/10 12/12/12
f 15/15/15 14/14/14 13/13/13
f 13/13/13 14/14/14 16/16/16
f 19/19/19 18/18/18 17/17/17
f 18/18/18 19/19/19 20/20/20
f 23/23/23 22/22/22 21/21/21
f 21/21/21 22/22/22 24/24/24
