v -0.183111 0.075000 0.182500
v -0.135558 0.040451 0.182500
v -0.135558 0.040451 0.267500
v -0.183111 0.075000 0.182500
v -0.135558 0.040451 0.267500
v -0.183111 0.075000 0.267500
v -0.153721 -0.015451 0.182500
v -0.212500 -0.015451 0.182500
v -0.212500 -0.015451 0.267500
v -0.153721 -0.015451 0.182500
v -0.153721 -0.015451 0.267500
v -0.212500 -0.015451 0.182500
v -0.230664 0.040451 0.182500
v -0.230664 0.040451 0.267500
v -0.212500 -0.015451 0.182500
v -0.230664 0.040451 0.267500
v -0.212500 -0.015451 0.267500
v 0.158111 0.068301 0.182500
v 0.216567 0.062157 0.182500
v 0.216567 0.062157 0.267500
v 0.158111 0.068301 0.182500
v 0.158111 0.068301 0.267500
v 0.216567 0.062157 0.182500
v 0.228788 0.004663 0.182500
v 0.228788 0.004663 0.267500
v 0.216567 0.062157 0.182500
v 0.228788 0.004663 0.267500
v 0.216567 0.062157 0.267500
v 0.177884 -0.024726 0.182500
v 0.134203 0.014604 0.182500
v 0.134203 0.014604 0.267500
v 0.177884 -0.024726 0.182500
v 0.134203 0.014604 0.267500
v 0.177884 -0.024726 0.267500
v -0.135558 0.040451 0.182500
v -0.153721 -0.015451 0.182500
v -0.153721 -0.015451 0.267500
v -0.135558 0.040451 0.267500
v -0.183111 0.075000 0.267500
v -0.135558 0.040451 0.267500
v -0.153721 -0.015451 0.267500
v -0.212500 -0.015451 0.267500
v -0.230664 0.040451 0.267500
v -0.230664 0.040451 0.182500
v -0.183111 0.075000 0.182500
v -0.183111 0.075000 0.267500
v -0.230664 0.040451 0.267500
v 0.228788 0.004663 0.182500
v 0.177884 -0.024726 0.182500
v 0.177884 -0.024726 0.267500
v 0.228788 0.004663 0.267500
v 0.216567 0.062157 0.267500
v 0.228788 0.004663 0.267500
v 0.177884 -0.024726 0.267500
v 0.158111 0.068301 0.267500
v 0.134203 0.014604 0.267500
v 0.134203 0.014604 0.182500
v 0.158111 0.068301 0.182500
v 0.158111 0.068301 0.267500
v 0.134203 0.014604 0.267500
v -0.282500 -0.175000 0.192500
v -0.282500 -0.175000 -0.192500
v -0.282500 0.175000 -0.192500
v -0.282500 0.175000 0.192500
v -0.282500 0.175000 0.192500
v -0.282500 0.175000 -0.192500
v 0.282500 0.175000 -0.192500
v 0.282500 0.175000 0.192500
v 0.282500 0.175000 0.192500
v 0.282500 0.175000 -0.192500
v 0.282500 -0.175000 -0.192500
v 0.282500 -0.175000 0.192500
v 0.282500 -0.175000 0.192500
v 0.282500 -0.175000 -0.192500
v -0.282500 -0.175000 -0.192500
v -0.282500 -0.175000 0.192500
v -0.282500 -0.175000 -0.192500
v 0.282500 -0.175000 -0.192500
v 0.282500 0.175000 -0.192500
v -0.282500 0.175000 -0.192500
v 0.282500 -0.175000 0.192500
v -0.282500 -0.175000 0.192500
v -0.282500 0.175000 0.192500
v 0.282500 0.175000 0.192500
vt 0.715438724 0.785764217
vt 0.719698668 0.773623824
vt 0.709984183 0.777428865
vt 0.715438724 0.785764217
vt 0.709984183 0.777428865
vt 0.708949149 0.777803183
vt 0.709157348 0.766382575
vt 0.699010015 0.773562908
vt 0.708706737 0.776319027
vt 0.709157348 0.766382575
vt 0.709733486 0.776444316
vt 0.699010015 0.773562908
vt 0.702271581 0.785764217
vt 0.708164811 0.777105689
vt 0.699010015 0.773562908
vt 0.708164811 0.777105689
vt 0.708706737 0.776319027
vt 0.236994982 0.761452913
vt 0.249041736 0.757220566
vt 0.240637392 0.751983762
vt 0.236994982 0.761452913
vt 0.239574611 0.75152874
vt 0.249041736 0.757220566
vt 0.249041736 0.744835615
vt 0.241551161 0.751223326
vt 0.249041736 0.757220566
vt 0.241551161 0.751223326
vt 0.240637392 0.751983762
vt 0.23720789 0.740843296
vt 0.229000449 0.75122869
vt 0.239744365 0.750423431
vt 0.23720789 0.740843296
vt 0.239744365 0.750423431
vt 0.24086836 0.75037694
vt 0.719698668 0.773623824
vt 0.709157348 0.766382575
vt 0.709733486 0.776444316
vt 0.709984183 0.777428865
vt 0.708949149 0.777803183
vt 0.709984183 0.777428865
vt 0.709733486 0.776444316
vt 0.708706737 0.776319027
vt 0.708164811 0.777105689
vt 0.702271581 0.785764217
vt 0.715438724 0.785764217
vt 0.708949149 0.777803183
vt 0.708164811 0.777105689
vt 0.249041736 0.744835615
vt 0.23720789 0.740843296
vt 0.24086836 0.75037694
vt 0.241551161 0.751223326
vt 0.240637392 0.751983762
vt 0.241551161 0.751223326
vt 0.24086836 0.75037694
vt 0.239574611 0.75152874
vt 0.239744365 0.750423431
vt 0.229000449 0.75122869
vt 0.236994982 0.761452913
vt 0.239574611 0.75152874
vt 0.239744365 0.750423431
vt 0.162555248 0.206849366
vt 0.162555248 0.246856838
vt 0.20256272 0.246856838
vt 0.20256272 0.206849366
vt 0.162555248 0.206849366
vt 0.162555248 0.246856838
vt 0.20256272 0.246856838
vt 0.20256272 0.206849366
vt 0.162555248 0.206849366
vt 0.162555248 0.246856838
vt 0.20256272 0.246856838
vt 0.20256272 0.206849366
vt 0.162555248 0.206849366
vt 0.162555248 0.246856838
vt 0.20256272 0.246856838
vt 0.20256272 0.206849366
vt 0.162555248 0.206849366
vt 0.162555248 0.246856838
vt 0.20256272 0.246856838
vt 0.20256272 0.206849366
vt 0.162555248 0.206849366
vt 0.162555248 0.246856838
vt 0.20256272 0.246856838
vt 0.20256272 0.206849366
vn 0.587785 0.809017 0.000000
vn 0.587785 0.809017 0.000000
vn 0.587785 0.809017 0.000000
vn 0.587785 0.809017 0.000000
vn 0.587785 0.809017 0.000000
vn 0.587785 0.809017 0.000000
vn 0.000000 -1.000000 -0.000000
vn 0.000000 -1.000000 -0.000000
vn 0.000000 -1.000000 -0.000000
vn 0.000000 -1.000000 -0.000000
vn 0.000000 -1.000000 -0.000000
vn -0.951056 -0.309017 -0.000000
vn -0.951056 -0.309017 -0.000000
vn -0.951056 -0.309017 -0.000000
vn -0.951056 -0.309017 -0.000000
vn -0.951056 -0.309017 -0.000000
vn -0.951056 -0.309017 -0.000000
vn 0.104528 0.994522 0.000000
vn 0.104528 0.994522 0.000000
vn 0.104528 0.994522 0.000000
vn 0.104528 0.994522 0.000000
vn 0.104528 0.994522 0.000000
vn 0.978148 0.207912 0.000000
vn 0.978148 0.207912 0.000000
vn 0.978148 0.207912 0.000000
vn 0.978148 0.207912 0.000000
vn 0.978148 0.207912 0.000000
vn 0.978148 0.207912 0.000000
vn -0.669131 -0.743145 -0.000000
vn -0.669131 -0.743145 -0.000000
vn -0.669131 -0.743145 -0.000000
vn -0.669131 -0.743145 -0.000000
vn -0.669131 -0.743145 -0.000000
vn -0.669131 -0.743145 -0.000000
vn 0.951056 -0.309017 -0.000000
vn 0.951056 -0.309017 -0.000000
vn 0.951056 -0.309017 -0.000000
vn 0.951056 -0.309017 -0.000000
vn 0.000000 -0.000000 1.000000
vn 0.000000 -0.000000 1.000000
vn 0.000000 -0.000000 1.000000
vn 0.000000 -0.000000 1.000000
vn 0.000000 -0.000000 1.000000
vn -0.587785 0.809017 0.000000
vn -0.587785 0.809017 0.000000
vn -0.587785 0.809017 0.000000
vn -0.587785 0.809017 0.000000
vn 0.500000 -0.866025 -0.000000
vn 0.500000 -0.866025 -0.000000
vn 0.500000 -0.866025 -0.000000
vn 0.500000 -0.866025 -0.000000
vn 0.000000 -0.000000 1.000000
vn 0.000000 -0.000000 1.000000
vn 0.000000 -0.000000 1.000000
vn 0.000000 -0.000000 1.000000
vn 0.000000 -0.000000 1.000000
vn -0.913546 0.406736 0.000000
vn -0.913546 0.406736 0.000000
vn -0.913546 0.406736 0.000000
vn -0.913546 0.406736 0.000000
vn -1.000000 0.000000 0.000000
vn -1.000000 0.000000 0.000000
vn -1.000000 0.000000 0.000000
vn -1.000000 0.000000 0.000000
vn 0.000000 1.000000 0.000000
vn 0.000000 1.000000 0.000000
vn 0.000000 1.000000 0.000000
vn 0.000000 1.000000 0.000000
vn 1.000000 0.000000 0.000000
vn 1.000000 0.000000 0.000000
vn 1.000000 0.000000 0.000000
vn 1.000000 0.000000 0.000000
vn 0.000000 -1.000000 -0.000000
vn 0.000000 -1.000000 -0.000000
vn 0.000000 -1.000000 -0.000000
vn 0.000000 -1.000000 -0.000000
vn 0.000000 0.000000 -1.000000
vn 0.000000 0.000000 -1.000000
vn 0.000000 0.000000 -1.000000
vn 0.000000 0.000000 -1.000000
vn 0.000000 -0.000000 1.000000
vn 0.000000 -0.000000 1.000000
vn 0.000000 -0.000000 1.000000
vn 0.000000 -0.000000 1.000000
f 3/3/3 2/2/2 1/1/1
f 6/6/6 5/5/5 4/4/4
f 9/9/9 8/8/8 7/7/7
f 11/11/11 9/9/9 10/10/10
f 14/14/14 13/13/13 12/12/12
f 17/17/17 16/16/16 15/15/15
f 20/20/20 19/19/19 18/18/18
f 22/22/22 20/20/20 21/21/21
f 25/25/25 24/24/24 23/23/23
f 28/28/28 27/27/27 26/26/26
f 31/31/31 30/30/30 29/29/29
f 34/34/34 33/33/33 32/32/32
f 37/37/37 36/36/36 35/35/35
f 38/38/38 37/37/37 35/35/35
f 41/41/41 40/40/40 39/39/39
f 39/39/39 42/42/42 41/41/41
f 39/39/39 43/43/43 42/42/42
f 46/46/46 45/45/45 44/44/44
f 47/47/47 46/46/46 44/44/44
f 50/50/50 49/49/49 48/48/48
f 51/51/51 50/50/50 48/48/48
f 54/54/54 53/53/53 52/52/52
f 52/52/52 55/55/55 54/54/54
f 55/55/55 56/56/56 54/54/54
f 59/59/59 58/58/58 57/57/57
f 60/60/60 59/59/59 57/57/57
f 63/63/63 62/62/62 61/61/61
f 64/64/64 63/63/63 61/61/61
f 67/67/67 66/66/66 65/65/65
f 68/68/68 67/67/67 65/65/65
f 71/71/71 70/70/70 69/69/69
f 72/72/72 71/71/71 69/69/69
f 75/75/75 74/74/74 73/73/73
f 76/76/76 75/75/75 73/73/73
f 79/79/79 78/78/78 77/77/77
f 80/80/80 79/79/79 77/77/77
f 83/83/83 82/82/82 81/81/81
f 84/84/84 83/83/83 81/81/81
