g Model_0
v -1.45811498 1.70113599 0.347169995
v -1.45811605 -1.70113504 0.347169995
v -1.45811605 -1.94415402 0.347169995
v -1.45811605 -1.70113504 0.347169995
v -1.45811605 -1.70113397 0.970992982
v -1.45811605 -1.70113397 1.31816399
v 1.45811605 1.70113504 0.347169995
v 1.45811605 1.70113397 0.970992982
v 1.45811605 1.70113397 1.14457798
v 0.108140998 -1.62391102 1.19520104
v 0.108140998 -1.67449999 0.812223017
v 0.108140998 -1.10236895 0.736648023
v 0.108140998 -1.05177999 1.119627
v 0.108140998 -1.05177999 1.119627
v 0.108140998 -1.10236895 0.736648023
v 1.21908605 -1.10236895 0.736648023
v 1.21908605 -1.05177999 1.119627
v 1.21908605 -1.05177999 1.119627
v 1.21908605 -1.10236895 0.736648023
v 1.21908605 -1.67449999 0.812223017
v 1.21908605 -1.62391102 1.19520104
v 1.21908605 -1.62391102 1.19520104
v 1.21908605 -1.67449999 0.812223017
v 0.108140998 -1.67449999 0.812223017
v 0.108140998 -1.62391102 1.19520104
v 1.21908605 -1.62391102 1.19520104
v 0.108140998 -1.62391102 1.19520104
v 0.108140998 -1.05177999 1.119627
v 1.21908605 -1.05177999 1.119627
v -0.108140998 -1.62391102 1.19520104
v -0.108140998 -1.05177999 1.119627
v -0.108140998 -1.10236895 0.736648023
v -0.108140998 -1.67449999 0.812223017
v -0.108140998 -1.05177999 1.119627
v -1.21908605 -1.05177999 1.119627
v -1.21908605 -1.10236895 0.736648023
v -0.108140998 -1.10236895 0.736648023
v -1.21908605 -1.05177999 1.119627
v -1.21908605 -1.62391102 1.19520104
v -1.21908605 -1.67449999 0.812223017
v -1.21908605 -1.10236895 0.736648023
v -1.21908605 -1.62391102 1.19520104
v -0.108140998 -1.62391102 1.19520104
v -0.108140998 -1.67449999 0.812223017
v -1.21908605 -1.67449999 0.812223017
v -1.21908605 -1.62391102 1.19520104
v -1.21908605 -1.05177999 1.119627
v -0.108140998 -1.05177999 1.119627
v -0.108140998 -1.62391102 1.19520104
v -1.51852095 -0.998733997 1.01927304
v -1.51852095 -0.998733997 0.487046003
v -1.51852095 1.62487602 0.487046003
v -1.51852095 1.62487602 1.01927304
v -1.51852095 1.62487602 1.01927304
v -1.51852095 1.62487602 0.487046003
v 1.51852095 1.62487602 0.487046003
v 1.51852095 1.62487602 1.01927304
v 1.51852095 1.62487602 1.01927304
v 1.51852095 1.62487602 0.487046003
v 1.51852095 -0.998733997 0.487046003
v 1.51852095 -0.998733997 1.01927304
v 1.51852095 -0.998733997 1.01927304
v 1.51852095 -0.998733997 0.487046003
v -1.51852095 -0.998733997 0.487046003
v -1.51852095 -0.998733997 1.01927304
v -1.51852095 -0.998733997 0.487046003
v 1.51852095 -0.998733997 0.487046003
v 1.51852095 1.62487602 0.487046003
v -1.51852095 1.62487602 0.487046003
v 1.51852095 -0.998733997 1.01927304
v -1.51852095 -0.998733997 1.01927304
v -1.51852095 1.62487602 1.01927304
v 1.51852095 1.62487602 1.01927304
v 1.12479401 1.62968099 0.889503002
v 1.12479401 1.62968099 0
v 1.12479401 1.87270105 0
v 1.12479401 1.87270105 0.889503002
v 1.12479401 1.87270105 0.889503002
v 1.12479401 1.87270105 0
v 1.36781394 1.87270105 0
v 1.36781394 1.87270105 0.889503002
v 1.36781394 1.87270105 0.889503002
v 1.36781394 1.87270105 0
v 1.36781394 1.62968099 0
v 1.36781394 1.62968099 0.889503002
v 1.36781394 1.62968099 0.889503002
v 1.36781394 1.62968099 0
v 1.12479401 1.62968099 0
v 1.12479401 1.62968099 0.889503002
v -1.12479401 1.62968099 0.889503002
v -1.12479401 1.87270105 0.889503002
v -1.12479401 1.87270105 0
v -1.12479401 1.62968099 0
v -1.12479401 1.87270105 0.889503002
v -1.36781394 1.87270105 0.889503002
v -1.36781394 1.87270105 0
v -1.12479401 1.87270105 0
v -1.36781394 1.87270105 0.889503002
v -1.36781394 1.62968099 0.889503002
v -1.36781394 1.62968099 0
v -1.36781394 1.87270105 0
v -1.36781394 1.62968099 0.889503002
v -1.12479401 1.62968099 0.889503002
v -1.12479401 1.62968099 0
v -1.36781394 1.62968099 0
v 1.12479401 -1.62968099 0.889503002
v 1.12479401 -1.87270105 0.889503002
v 1.12479401 -1.87270105 0
v 1.12479401 -1.62968099 0
v 1.12479401 -1.87270105 0.889503002
v 1.36781394 -1.87270105 0.889503002
v 1.36781394 -1.87270105 0
v 1.12479401 -1.87270105 0
v 1.36781394 -1.87270105 0.889503002
v 1.36781394 -1.62968099 0.889503002
v 1.36781394 -1.62968099 0
v 1.36781394 -1.87270105 0
v 1.36781394 -1.62968099 0.889503002
v 1.12479401 -1.62968099 0.889503002
v 1.12479401 -1.62968099 0
v 1.36781394 -1.62968099 0
v -1.12479401 -1.62968099 0.889503002
v -1.12479401 -1.62968099 0
v -1.12479401 -1.87270105 0
v -1.12479401 -1.87270105 0.889503002
v -1.12479401 -1.87270105 0.889503002
v -1.12479401 -1.87270105 0
v -1.36781394 -1.87270105 0
v -1.36781394 -1.87270105 0.889503002
v -1.36781394 -1.87270105 0.889503002
v -1.36781394 -1.87270105 0
v -1.36781394 -1.62968099 0
v -1.36781394 -1.62968099 0.889503002
v -1.36781394 -1.62968099 0.889503002
v -1.36781394 -1.62968099 0
v -1.12479401 -1.62968099 0
v -1.12479401 -1.62968099 0.889503002
v 1.45811605 1.70113504 0.347169995
v 1.45811605 -1.70113504 0.347169995
v 1.45811498 -1.70113599 0.970992982
v 1.45811605 1.70113397 0.970992982
v 1.45811605 1.70113397 0.970992982
v 1.45811498 -1.70113599 0.970992982
v -1.45811605 -1.70113397 0.970992982
v -1.45811498 1.70113504 0.970992982
v -1.45811605 -1.94415402 0.347169995
v 1.45811605 -1.94415402 0.347169995
v 1.45811605 -1.70113504 0.347169995
v 1.45811605 1.70113504 0.347169995
v 1.45811605 1.94415402 0.347169995
v -1.45811498 1.70113599 0.347169995
v -1.45811498 1.94415498 0.347169995
v 1.45811605 -1.70113504 0.347169995
v 1.45811605 -1.94415402 0.347169995
v 1.45811498 -1.70113599 0.970992982
v 1.45811498 -1.70113599 1.31816399
v 1.45811498 -1.94415498 1.31816399
v 1.12530303 -1.70113599 1.66533399
v 1.12530303 -1.94415498 1.66533399
v -1.45811498 1.94415402 1.14457798
v -1.45811498 1.70113504 1.14457798
v -1.45811498 1.70113504 0.970992982
v -1.45811498 1.70113599 0.347169995
v -1.45811498 1.94415498 0.347169995
v -1.45811605 -1.70113504 0.347169995
v -1.45811498 1.70113599 0.347169995
v -1.45811498 1.70113504 0.970992982
v -1.45811605 -1.70113397 0.970992982
v 1.45811498 -1.94415498 1.31816399
v 1.45811605 -1.94415402 0.347169995
v -1.45811605 -1.94415402 0.347169995
v -1.45811605 -1.94415402 1.31816399
v 1.12530303 -1.94415498 1.66533399
v -1.12530398 -1.94415402 1.66533399
v -1.45811605 -1.94415402 0.347169995
v -1.45811605 -1.70113504 0.347169995
v -1.45811605 -1.70113397 1.31816399
v -1.45811605 -1.94415402 1.31816399
v -1.12530398 -1.94415402 1.66533399
v -1.12530398 -1.70113397 1.66533399
v -1.45811498 1.94415498 0.347169995
v 1.45811605 1.94415402 0.347169995
v 1.45811605 1.94415295 1.14457798
v -1.45811498 1.94415402 1.14457798
v 1.45811605 1.70113397 1.14457798
v 1.45811605 1.94415295 1.14457798
v 1.45811605 1.70113504 0.347169995
v 1.45811605 1.94415402 0.347169995
v 1.45811605 1.94415295 1.14457798
v 1.45811605 1.70113397 1.14457798
v -1.45811498 1.70113504 1.14457798
v -1.45811498 1.94415402 1.14457798
v -1.45811498 1.70113504 0.970992982
v -1.45811498 1.70113504 1.14457798
v 1.45811605 1.70113397 1.14457798
v 1.45811605 1.70113397 0.970992982
v -1.45811605 -1.70113397 1.31816399
v -1.45811605 -1.70113397 0.970992982
v 1.45811498 -1.70113599 0.970992982
v 1.45811498 -1.70113599 1.31816399
v -1.12530398 -1.70113397 1.66533399
v 1.12530303 -1.70113599 1.66533399
v 1.12530303 -1.70113599 1.66533399
v 1.12530303 -1.94415498 1.66533399
v -1.12530398 -1.94415402 1.66533399
v -1.12530398 -1.70113397 1.66533399
vt 0.385365009 0.527972996
vt 0.385365009 0.510689974
vt 0.385365009 0.509455979
vt 0.406607002 0.527972996
vt 0.403477997 0.527972996
vt 0.401735991 0.527972996
vt 0.406607002 0.547725022
vt 0.403477997 0.547725022
vt 0.402606994 0.547725022
vt 0.640579998 0.708975971
vt 0.642517984 0.708975971
vt 0.642517984 0.706044018
vt 0.640579998 0.706044018
vt 0.667167008 0.711073995
vt 0.669094026 0.711073995
vt 0.669094026 0.705429971
vt 0.667167008 0.705429971
vt 0.640579998 0.706044018
vt 0.638643026 0.706044018
vt 0.638643026 0.708975971
vt 0.640579998 0.708975971
vt 0.642517984 0.711687028
vt 0.644445002 0.711687028
vt 0.644445002 0.706044018
vt 0.642517984 0.706044018
vt 0.648595989 0.703558981
vt 0.648595989 0.709201992
vt 0.651479006 0.709201992
vt 0.651479006 0.703558981
vt 0.633234024 0.706044018
vt 0.633234024 0.708975971
vt 0.635172009 0.708975971
vt 0.635172009 0.706044018
vt 0.669094026 0.705429971
vt 0.669094026 0.711073995
vt 0.671020985 0.711073995
vt 0.671020985 0.705429971
vt 0.631295979 0.706044018
vt 0.631295979 0.708975971
vt 0.633234024 0.708975971
vt 0.633234024 0.706044018
vt 0.653406024 0.709201992
vt 0.653406024 0.703558981
vt 0.651479006 0.703558981
vt 0.651479006 0.709201992
vt 0.656417012 0.703558981
vt 0.653532982 0.703558981
vt 0.653532982 0.709201992
vt 0.656417012 0.709201992
vt 0.921953022 0.583655
vt 0.919282973 0.583655
vt 0.919282973 0.596982002
vt 0.921953022 0.596982002
vt 0.940183997 0.570712984
vt 0.93751502 0.570712984
vt 0.93751502 0.586139977
vt 0.940183997 0.586139977
vt 0.908792019 0.596982002
vt 0.911462009 0.596982002
vt 0.911462009 0.583655
vt 0.908792019 0.583655
vt 0.936644018 0.566388011
vt 0.939312994 0.566388011
vt 0.939312994 0.550961018
vt 0.936644018 0.550961018
vt 0.921953022 0.583655
vt 0.921953022 0.568226993
vt 0.908792019 0.568226993
vt 0.908792019 0.583655
vt 0.894163013 0.570712984
vt 0.894163013 0.586139977
vt 0.907311022 0.586139977
vt 0.907311022 0.570712984
vt 0.0969159976 0.575716972
vt 0.0969159976 0.571197987
vt 0.0956970006 0.571197987
vt 0.0956970006 0.575716972
vt 0.101104997 0.574129999
vt 0.101104997 0.578647017
vt 0.102325 0.578647017
vt 0.102325 0.574129999
vt 0.130129993 0.555351019
vt 0.130129993 0.550832987
vt 0.128911003 0.550832987
vt 0.128911003 0.555351019
vt 0.0944780037 0.574129999
vt 0.0944780037 0.578647017
vt 0.0956970006 0.578647017
vt 0.0956970006 0.574129999
vt 0.130129993 0.555351019
vt 0.131349996 0.555351019
vt 0.131349996 0.550832987
vt 0.130129993 0.550832987
vt 0.132764995 0.570585012
vt 0.131546006 0.570585012
vt 0.131546006 0.575101972
vt 0.132764995 0.575101972
vt 0.127691999 0.555351019
vt 0.128911003 0.555351019
vt 0.128911003 0.550832987
vt 0.127691999 0.550832987
vt 0.0998860002 0.578647017
vt 0.101104997 0.578647017
vt 0.101104997 0.574129999
vt 0.0998860002 0.574129999
vt 0.0979479998 0.575716972
vt 0.0991680026 0.575716972
vt 0.0991680026 0.571197987
vt 0.0979479998 0.571197987
vt 0.133788005 0.550832987
vt 0.132569 0.550832987
vt 0.132569 0.555350006
vt 0.133788005 0.555350006
vt 0.131349996 0.555351019
vt 0.132569 0.555351019
vt 0.132569 0.550832987
vt 0.131349996 0.550832987
vt 0.0942599997 0.574129999
vt 0.0930399969 0.574129999
vt 0.0930399969 0.578647017
vt 0.0942599997 0.578647017
vt 0.120830998 0.57713598
vt 0.120830998 0.572618008
vt 0.119612001 0.572618008
vt 0.119612001 0.57713598
vt 0.091821 0.574129999
vt 0.091821 0.578647017
vt 0.0930399969 0.578647017
vt 0.0930399969 0.574129999
vt 0.120830998 0.572618008
vt 0.120830998 0.568099022
vt 0.119612001 0.568099022
vt 0.119612001 0.572618008
vt 0.133983999 0.575101972
vt 0.133983999 0.570585012
vt 0.132764995 0.570585012
vt 0.132764995 0.575101972
vt 0.641803026 0.243352994
vt 0.641803026 0.226071
vt 0.638674021 0.226071
vt 0.638674021 0.243352994
vt 0.669777989 0.236185998
vt 0.669777989 0.218918994
vt 0.655148983 0.218918994
vt 0.655148983 0.236185998
vt 0.385365009 0.509455979
vt 0.370736003 0.509455979
vt 0.370736003 0.510689974
vt 0.370736003 0.527972996
vt 0.370736003 0.529206991
vt 0.385365009 0.527972996
vt 0.385365009 0.529206991
vt 0.406607002 0.530441999
vt 0.406607002 0.529206991
vt 0.403477997 0.530441999
vt 0.401735991 0.530441999
vt 0.401735991 0.529206991
vt 0.399993986 0.530441999
vt 0.399993986 0.529206991
vt 0.402606994 0.509455979
vt 0.402606994 0.510689974
vt 0.403477997 0.510689974
vt 0.406607002 0.510689974
vt 0.406607002 0.509455979
vt 0.641803026 0.223601997
vt 0.641803026 0.206319004
vt 0.638674021 0.206319004
vt 0.638674021 0.223601997
vt 0.408347994 0.524269998
vt 0.413217992 0.524269998
vt 0.413217992 0.509455979
vt 0.408347994 0.509455979
vt 0.406607002 0.522579014
vt 0.406607002 0.511146009
vt 0.406607002 0.529206991
vt 0.406607002 0.527972996
vt 0.401735991 0.527972996
vt 0.401735991 0.529206991
vt 0.399993986 0.529206991
vt 0.399993986 0.527972996
vt 0.406607002 0.529206991
vt 0.406607002 0.54402101
vt 0.410605997 0.54402101
vt 0.410605997 0.529206991
vt 0.402606994 0.547725022
vt 0.402606994 0.548959017
vt 0.406607002 0.547725022
vt 0.406607002 0.548959017
vt 0.399744987 0.526722014
vt 0.398526996 0.526722014
vt 0.398526996 0.541535974
vt 0.399744987 0.541535974
vt 0.384754986 0.540639997
vt 0.383884996 0.540639997
vt 0.383884996 0.555454016
vt 0.384754986 0.555454016
vt 0.412346989 0.529206991
vt 0.410605997 0.529206991
vt 0.410605997 0.54402101
vt 0.412346989 0.54402101
vt 0.414088011 0.530897975
vt 0.414088011 0.54233098
vt 0.385102987 0.529206991
vt 0.383884996 0.529206991
vt 0.383884996 0.540639997
vt 0.385102987 0.540639997
vn -0 1 0
vn -0 1 0
vn -0 1 0
vn -0 1 0
vn -0 1 0
vn -0 1 0
vn -0 1 0
vn -0 1 0
vn -0 1 0
vn -1 0 0
vn -1 0 0
vn -1 0 0
vn -1 0 0
vn -0 0.991388142 -0.130955756
vn -0 0.991388142 -0.130955756
vn -0 0.991388142 -0.130955756
vn -0 0.991388142 -0.130955756
vn 1 0 0
vn 1 0 0
vn 1 0 0
vn 1 0 0
vn -0 -0.991388142 0.130956084
vn -0 -0.991388142 0.130956084
vn -0 -0.991388142 0.130956084
vn -0 -0.991388142 0.130956084
vn -0 0.130954668 0.991388381
vn -0 0.130954668 0.991388381
vn -0 0.130954668 0.991388381
vn -0 0.130954668 0.991388381
vn 1 0 0
vn 1 0 0
vn 1 0 0
vn 1 0 0
vn -0 0.991388142 -0.130955756
vn -0 0.991388142 -0.130955756
vn -0 0.991388142 -0.130955756
vn -0 0.991388142 -0.130955756
vn -1 0 0
vn -1 0 0
vn -1 0 0
vn -1 0 0
vn -0 -0.991388142 0.130956084
vn -0 -0.991388142 0.130956084
vn -0 -0.991388142 0.130956084
vn -0 -0.991388142 0.130956084
vn -0 0.130954668 0.991388381
vn -0 0.130954668 0.991388381
vn -0 0.130954668 0.991388381
vn -0 0.130954668 0.991388381
vn -1 0 0
vn -1 0 0
vn -1 0 0
vn -1 0 0
vn -0 1 0
vn -0 1 0
vn -0 1 0
vn -0 1 0
vn 1 0 0
vn 1 0 0
vn 1 0 0
vn 1 0 0
vn -0 -1 0
vn -0 -1 0
vn -0 -1 0
vn -0 -1 0
vn -0 0 -1
vn -0 0 -1
vn -0 0 -1
vn -0 0 -1
vn -0 0 1
vn -0 0 1
vn -0 0 1
vn -0 0 1
vn -1 0 0
vn -1 0 0
vn -1 0 0
vn -1 0 0
vn -0 1 0
vn -0 1 0
vn -0 1 0
vn -0 1 0
vn 1 0 0
vn 1 0 0
vn 1 0 0
vn 1 0 0
vn -0 -1 0
vn -0 -1 0
vn -0 -1 0
vn -0 -1 0
vn 1 0 0
vn 1 0 0
vn 1 0 0
vn 1 0 0
vn -0 1 0
vn -0 1 0
vn -0 1 0
vn -0 1 0
vn -1 0 0
vn -1 0 0
vn -1 0 0
vn -1 0 0
vn -0 -1 0
vn -0 -1 0
vn -0 -1 0
vn -0 -1 0
vn -1 0 0
vn -1 0 0
vn -1 0 0
vn -1 0 0
vn -0 -1 0
vn -0 -1 0
vn -0 -1 0
vn -0 -1 0
vn 1 0 0
vn 1 0 0
vn 1 0 0
vn 1 0 0
vn -0 1 0
vn -0 1 0
vn -0 1 0
vn -0 1 0
vn 1 0 0
vn 1 0 0
vn 1 0 0
vn 1 0 0
vn -0 -1 0
vn -0 -1 0
vn -0 -1 0
vn -0 -1 0
vn -1 0 0
vn -1 0 0
vn -1 0 0
vn -1 0 0
vn -0 1 0
vn -0 1 0
vn -0 1 0
vn -0 1 0
vn 1 0 0
vn 1 0 0
vn 1 0 0
vn 1 0 0
vn -0 0 1
vn -0 0 1
vn -0 0 1
vn -0 0 1
vn -0 0 -1
vn -0 0 -1
vn -0 0 -1
vn -0 0 -1
vn -0 0 -1
vn -0 0 -1
vn -0 0 -1
vn 1 0 0
vn 1 0 0
vn 1 0 0
vn 0.969166934 0 0.246405199
vn 0.927867591 0 0.372909695
vn 0.721876621 0 0.692021668
vn 0.721876621 0 0.692021668
vn -1 0 0
vn -1 0 0
vn -1 0 0
vn -1 0 0
vn -1 0 0
vn -1 0 0
vn -1 0 0
vn -1 0 0
vn -1 0 0
vn -0 -1 0
vn -0 -1 0
vn -0 -1 0
vn -0 -1 0
vn -0 -1 0
vn -0 -1 0
vn -1 0 0
vn -1 0 0
vn -0.969166934 0 0.246405259
vn -0.927867591 0 0.372909814
vn -0.721876502 0 0.692021847
vn -0.721876502 0 0.692021847
vn -0 1 0
vn -0 1 0
vn -0 1 0
vn -0 1 0
vn 1 0 0
vn 1 0 0
vn 1 0 0
vn 1 0 0
vn -0 0 1
vn -0 0 1
vn -0 0 1
vn -0 0 1
vn -0 -1 0
vn -0 -1 0
vn -0 -1 0
vn -0 -1 0
vn -0 1 0
vn -0 1 0
vn -0 1 0
vn -0 1 0
vn -0 1 0
vn -0 1 0
vn -0 0 1
vn -0 0 1
vn -0 0 1
vn -0 0 1
g Model_0_0
f 3/3/3 2/2/2 1/1/1
f 6/6/6 5/5/5 4/4/4
f 9/9/9 8/8/8 7/7/7
f 12/12/12 11/11/11 10/10/10
f 13/13/13 12/12/12 10/10/10
f 16/16/16 15/15/15 14/14/14
f 17/17/17 16/16/16 14/14/14
f 20/20/20 19/19/19 18/18/18
f 21/21/21 20/20/20 18/18/18
f 24/24/24 23/23/23 22/22/22
f 25/25/25 24/24/24 22/22/22
f 28/28/28 27/27/27 26/26/26
f 29/29/29 28/28/28 26/26/26
f 32/32/32 31/31/31 30/30/30
f 33/33/33 32/32/32 30/30/30
f 36/36/36 35/35/35 34/34/34
f 37/37/37 36/36/36 34/34/34
f 40/40/40 39/39/39 38/38/38
f 41/41/41 40/40/40 38/38/38
f 44/44/44 43/43/43 42/42/42
f 45/45/45 44/44/44 42/42/42
f 48/48/48 47/47/47 46/46/46
f 49/49/49 48/48/48 46/46/46
f 52/52/52 51/51/51 50/50/50
f 53/53/53 52/52/52 50/50/50
f 56/56/56 55/55/55 54/54/54
f 57/57/57 56/56/56 54/54/54
f 60/60/60 59/59/59 58/58/58
f 61/61/61 60/60/60 58/58/58
f 64/64/64 63/63/63 62/62/62
f 65/65/65 64/64/64 62/62/62
f 68/68/68 67/67/67 66/66/66
f 69/69/69 68/68/68 66/66/66
f 72/72/72 71/71/71 70/70/70
f 73/73/73 72/72/72 70/70/70
f 76/76/76 75/75/75 74/74/74
f 77/77/77 76/76/76 74/74/74
f 80/80/80 79/79/79 78/78/78
f 81/81/81 80/80/80 78/78/78
f 84/84/84 83/83/83 82/82/82
f 85/85/85 84/84/84 82/82/82
f 88/88/88 87/87/87 86/86/86
f 89/89/89 88/88/88 86/86/86
f 92/92/92 91/91/91 90/90/90
f 93/93/93 92/92/92 90/90/90
f 96/96/96 95/95/95 94/94/94
f 97/97/97 96/96/96 94/94/94
f 100/100/100 99/99/99 98/98/98
f 101/101/101 100/100/100 98/98/98
f 104/104/104 103/103/103 102/102/102
f 105/105/105 104/104/104 102/102/102
f 108/108/108 107/107/107 106/106/106
f 109/109/109 108/108/108 106/106/106
f 112/112/112 111/111/111 110/110/110
f 113/113/113 112/112/112 110/110/110
f 116/116/116 115/115/115 114/114/114
f 117/117/117 116/116/116 114/114/114
f 120/120/120 119/119/119 118/118/118
f 121/121/121 120/120/120 118/118/118
f 124/124/124 123/123/123 122/122/122
f 125/125/125 124/124/124 122/122/122
f 128/128/128 127/127/127 126/126/126
f 129/129/129 128/128/128 126/126/126
f 132/132/132 131/131/131 130/130/130
f 133/133/133 132/132/132 130/130/130
f 136/136/136 135/135/135 134/134/134
f 137/137/137 136/136/136 134/134/134
f 140/140/140 139/139/139 138/138/138
f 141/141/141 140/140/140 138/138/138
f 144/144/144 143/143/143 142/142/142
f 145/145/145 144/144/144 142/142/142
f 148/148/148 147/147/147 146/146/146
f 146/146/146 149/149/149 148/148/148
f 146/146/146 150/150/150 149/149/149
f 146/146/146 151/151/151 150/150/150
f 150/150/150 151/151/151 152/152/152
f 155/155/155 154/154/154 153/153/153
f 154/154/154 155/155/155 156/156/156
f 156/156/156 157/157/157 154/154/154
f 156/156/156 158/158/158 157/157/157
f 158/158/158 159/159/159 157/157/157
f 162/162/162 161/161/161 160/160/160
f 160/160/160 163/163/163 162/162/162
f 160/160/160 164/164/164 163/163/163
f 167/167/167 166/166/166 165/165/165
f 168/168/168 167/167/167 165/165/165
f 171/171/171 170/170/170 169/169/169
f 169/169/169 172/172/172 171/171/171
f 169/169/169 173/173/173 172/172/172
f 173/173/173 174/174/174 172/172/172
f 177/177/177 176/176/176 175/175/175
f 175/175/175 178/178/178 177/177/177
f 178/178/178 179/179/179 177/177/177
f 179/179/179 180/180/180 177/177/177
f 183/183/183 182/182/182 181/181/181
f 184/184/184 183/183/183 181/181/181
f 187/187/187 186/186/186 185/185/185
f 187/187/187 188/188/188 186/186/186
f 191/191/191 190/190/190 189/189/189
f 192/192/192 191/191/191 189/189/189
f 195/195/195 194/194/194 193/193/193
f 196/196/196 195/195/195 193/193/193
f 199/199/199 198/198/198 197/197/197
f 197/197/197 200/200/200 199/199/199
f 197/197/197 201/201/201 200/200/200
f 201/201/201 202/202/202 200/200/200
f 205/205/205 204/204/204 203/203/203
f 206/206/206 205/205/205 203/203/203
