v 1.012500 -0.155538 -0.052996
v 1.012500 0.003260 0.225104
v 1.012500 0.003260 -0.052996
v 1.012500 -0.155538 0.225104
v -0.862500 0.003260 0.223131
v -0.862500 -0.155538 -0.052996
v -0.862500 -0.155538 0.223131
v -0.862500 0.003260 -0.052996
v -0.862500 0.003260 0.223131
v -1.012500 0.003260 -0.052996
v -0.862500 0.003260 -0.052996
v -1.012500 0.003260 0.313064
v -1.012500 -0.155538 0.313064
v -1.012500 0.003260 -0.052996
v -1.012500 0.003260 0.313064
v -1.012500 -0.155538 -0.052996
v 1.012500 0.003260 0.225104
v 0.862500 0.003260 -0.052996
v 1.012500 0.003260 -0.052996
v 0.862500 0.003260 0.194996
v 0.862500 -0.155538 0.194996
v 1.012500 -0.155538 -0.052996
v 0.862500 -0.155538 -0.052996
v 1.012500 -0.155538 0.225104
v -1.012500 -0.155538 0.313064
v -0.862500 -0.155538 -0.052996
v -1.012500 -0.155538 -0.052996
v -0.862500 -0.155538 0.223131
v -1.012500 -0.155538 0.313064
v -0.862500 0.003260 0.223131
v -0.862500 -0.155538 0.223131
v -1.012500 0.003260 0.313064
v 0.862500 -0.155538 0.194996
v 0.862500 0.003260 -0.052996
v 0.862500 0.003260 0.194996
v 0.862500 -0.155538 -0.052996
v 0.862500 -0.155538 0.194996
v 1.012500 0.003260 0.225104
v 1.012500 -0.155538 0.225104
v 0.862500 0.003260 0.194996
vt 0.149862468 0.549493968
vt 0.169791877 0.558760583
vt 0.154364407 0.54453814
vt 0.165289879 0.563716412
vt 0.0596940517 0.558760643
vt 0.0397646427 0.549493968
vt 0.0551921129 0.563716412
vt 0.0442665815 0.54453814
vt 0.198376 0.595247388
vt 0.192076981 0.616266429
vt 0.198376 0.616266429
vt 0.192076981 0.595247388
vt 0.128710032 0.601468146
vt 0.1177845 0.620646417
vt 0.13321197 0.606423974
vt 0.113282561 0.615690649
vt 0.204675019 0.595247388
vt 0.198376 0.616266429
vt 0.204675019 0.616266429
vt 0.198376 0.595247388
vt 0.223572075 0.58937794
vt 0.217273057 0.610396147
vt 0.223572075 0.610396147
vt 0.217273057 0.58937794
vt 0.223572075 0.563771307
vt 0.217273057 0.584789574
vt 0.223572075 0.584789574
vt 0.217273057 0.563771307
vt 0.225575089 0.56135422
vt 0.288664758 0.501759946
vt 0.225575089 0.501759946
vt 0.288664758 0.56135422
vt 0.0923925638 0.601468146
vt 0.0814670324 0.620646417
vt 0.0968945026 0.606423974
vt 0.0769650936 0.615690649
vt 0.285169423 0.501735449
vt 0.225575089 0.43864578
vt 0.225575089 0.501735449
vt 0.285169423 0.43864578
vn 1.000000 0.000000 0.000000
vn 1.000000 0.000000 0.000000
vn 1.000000 0.000000 0.000000
vn 1.000000 0.000000 0.000000
vn 1.000000 0.000000 0.000000
vn 1.000000 0.000000 0.000000
vn 1.000000 0.000000 0.000000
vn 1.000000 0.000000 0.000000
vn 0.000000 1.000000 0.000000
vn 0.000000 1.000000 0.000000
vn 0.000000 1.000000 0.000000
vn 0.000000 1.000000 0.000000
vn -1.000000 0.000000 0.000000
vn -1.000000 0.000000 0.000000
vn -1.000000 0.000000 0.000000
vn -1.000000 0.000000 0.000000
vn 0.000000 1.000000 0.000000
vn 0.000000 1.000000 0.000000
vn 0.000000 1.000000 0.000000
vn 0.000000 1.000000 0.000000
vn 0.000000 -1.000000 -0.000000
vn 0.000000 -1.000000 -0.000000
vn 0.000000 -1.000000 -0.000000
vn 0.000000 -1.000000 -0.000000
vn 0.000000 -1.000000 -0.000000
vn 0.000000 -1.000000 -0.000000
vn 0.000000 -1.000000 -0.000000
vn 0.000000 -1.000000 -0.000000
vn 0.514216 -0.000000 0.857661
vn 0.514216 -0.000000 0.857661
vn 0.514216 -0.000000 0.857661
vn 0.514216 -0.000000 0.857661
vn -1.000000 0.000000 0.000000
vn -1.000000 0.000000 0.000000
vn -1.000000 0.000000 0.000000
vn -1.000000 0.000000 0.000000
vn -0.196794 -0.000000 0.980445
vn -0.196794 -0.000000 0.980445
vn -0.196794 -0.000000 0.980445
vn -0.196794 -0.000000 0.980445
f 3/3/3 2/2/2 1/1/1
f 1/1/1 2/2/2 4/4/4
f 7/7/7 6/6/6 5/5/5
f 5/5/5 6/6/6 8/8/8
f 11/11/11 10/10/10 9/9/9
f 9/9/9 10/10/10 12/12/12
f 15/15/15 14/14/14 13/13/13
f 13/13/13 14/14/14 16/16/16
f 19/19/19 18/18/18 17/17/17
f 17/17/17 18/18/18 20/20/20
f 23/23/23 22/22/22 21/21/21
f 21/21/21 22/22/22 24/24/24
f 27/27/27 26/26/26 25/25/25
f 25/25/25 26/26/26 28/28/28
f 31/31/31 30/30/30 29/29/29
f 29/29/29 30/30/30 32/32/32
f 35/35/35 34/34/34 33/33/33
f 33/33/33 34/34/34 36/36/36
f 39/39/39 38/38/38 37/37/37
f 37/37/37 38/38/38 40/40/40
