g XMAS_Big_Snowman_03_0
v 3.60212874 0.170685783 4.63629675
v 3.48537278 0.170685768 4.95708179
v 1.34680843 0.170685798 4.17870712
v 1.34680843 -0.17068617 4.17870712
v 3.48537278 -0.1706862 4.95708179
v 3.60212874 -0.1706862 4.63629675
v 3.48537278 -0.1706862 4.95708179
v 1.34680843 -0.17068617 4.17870712
v 1.34680843 0.170685798 4.17870712
v -1.34680843 0.170685798 4.17870712
v -3.48537278 0.170685768 4.95708179
v -3.60212874 0.170685783 4.63629675
v -1.34680843 -0.17068617 4.17870712
v -1.4635644 -0.170686141 3.8579216
v -3.60212874 -0.1706862 4.63629675
v 3.60212874 0.170685783 4.63629675
v 1.34680843 0.170685798 4.17870712
v 1.4635644 0.170685828 3.8579216
v 1.34680843 -0.17068617 4.17870712
v 3.60212874 -0.1706862 4.63629675
v 1.4635644 -0.170686141 3.8579216
v 3.48537278 -0.1706862 4.95708179
v 1.34680843 0.170685798 4.17870712
v 3.48537278 0.170685768 4.95708179
v -1.34680843 0.170685798 4.17870712
v -3.60212874 0.170685783 4.63629675
v -1.4635644 0.170685828 3.8579216
v -1.34680843 -0.17068617 4.17870712
v -3.60212874 -0.1706862 4.63629675
v -3.48537278 -0.1706862 4.95708179
v 3.60212874 -0.1706862 4.63629675
v 3.48537278 -0.1706862 4.95708179
v 3.48537278 0.170685768 4.95708179
v 3.60212874 0.170685783 4.63629675
v 1.4635644 -0.170686141 3.8579216
v 3.60212874 -0.1706862 4.63629675
v 3.60212874 0.170685783 4.63629675
v 1.4635644 0.170685828 3.8579216
v -3.48537278 0.170685768 4.95708179
v -3.48537278 -0.1706862 4.95708179
v -3.60212874 -0.1706862 4.63629675
v -3.60212874 0.170685783 4.63629675
v -3.60212874 0.170685783 4.63629675
v -3.60212874 -0.1706862 4.63629675
v -1.4635644 -0.170686141 3.8579216
v -1.4635644 0.170685828 3.8579216
v -1.34680843 0.170685798 4.17870712
v -1.34680843 -0.17068617 4.17870712
v -3.48537278 -0.1706862 4.95708179
v -3.48537278 0.170685768 4.95708179
vt 0.921443284 0.241719872
vt 0.914483309 0.24204804
vt 0.760931492 0.225175485
vt 0.770813107 0.225175485
vt 0.912338912 0.240702212
vt 0.914916754 0.239922404
vt 0.912338912 0.240702212
vt 0.770813107 0.225175485
vt 0.760931492 0.225175485
vt 0.921597838 0.257513613
vt 0.767695069 0.244237691
vt 0.760931492 0.242563814
vt 0.911904573 0.255594134
vt 0.908398211 0.256206274
vt 0.76768291 0.24206841
vt 0.921443284 0.241719872
vt 0.760931492 0.225175485
vt 0.770825386 0.227134585
vt 0.770813107 0.225175485
vt 0.914916754 0.239922404
vt 0.774133801 0.226457059
vt 0.912338912 0.240702212
vt 0.760931492 0.225175485
vt 0.914483309 0.24204804
vt 0.921597838 0.257513613
vt 0.760931492 0.242563814
vt 0.911511898 0.257513613
vt 0.911904573 0.255594134
vt 0.76768291 0.24206841
vt 0.770060122 0.243334115
vt 0.914916754 0.239922404
vt 0.912338912 0.240702212
vt 0.914483309 0.24204804
vt 0.921443284 0.241719872
vt 0.774133801 0.226457059
vt 0.914916754 0.239922404
vt 0.921443284 0.241719872
vt 0.770825386 0.227134585
vt 0.767695069 0.244237691
vt 0.770060122 0.243334115
vt 0.76768291 0.24206841
vt 0.760931492 0.242563814
vt 0.760931492 0.242563814
vt 0.76768291 0.24206841
vt 0.908398211 0.256206274
vt 0.911511898 0.257513613
vt 0.921597838 0.257513613
vt 0.911904573 0.255594134
vt 0.770060122 0.243334115
vt 0.767695069 0.244237691
vn -0 1 0
vn -0 1 0
vn -0 1 0
vn -0 -1 0
vn -0 -1 0
vn -0 -1 0
vn -0.342020512 0 0.939692557
vn -0.342020541 0 0.939692557
vn -0.342020512 0 0.939692557
vn -0 1 0
vn -0 1 0
vn -0 1 0
vn -0 -1 0
vn -0 -1 0
vn -0 -1 0
vn -0 1 0
vn -0 1 0
vn -0 1 0
vn -0 -1 0
vn -0 -1 0
vn -0 -1 0
vn -0.342020512 0 0.939692557
vn -0.342020512 0 0.939692557
vn -0.342020512 0 0.939692557
vn -0 1 0
vn -0 1 0
vn -0 1 0
vn -0 -1 0
vn -0 -1 0
vn -0 -1 0
vn 0.939692855 0 0.342019409
vn 0.939692855 0 0.342019409
vn 0.939692855 0 0.342019409
vn 0.939692855 0 0.342019409
vn 0.342020601 0 -0.939692438
vn 0.342020601 0 -0.939692438
vn 0.342020601 0 -0.939692438
vn 0.342020601 0 -0.939692438
vn -0.939692855 0 0.342019409
vn -0.939692855 0 0.342019409
vn -0.939692855 0 0.342019409
vn -0.939692855 0 0.342019409
vn -0.342020601 0 -0.939692557
vn -0.342020601 0 -0.939692438
vn -0.342020601 0 -0.939692557
vn -0.342020601 0 -0.939692557
vn 0.342020512 0 0.939692557
vn 0.342020512 0 0.939692557
vn 0.342020512 0 0.939692557
vn 0.342020541 0 0.939692557
g XMAS_Big_Snowman_03_0_0
f 3/3/3 2/2/2 1/1/1
f 6/6/6 5/5/5 4/4/4
f 9/9/9 8/8/8 7/7/7
f 12/12/12 11/11/11 10/10/10
f 15/15/15 14/14/14 13/13/13
f 18/18/18 17/17/17 16/16/16
f 21/21/21 20/20/20 19/19/19
f 24/24/24 23/23/23 22/22/22
f 27/27/27 26/26/26 25/25/25
f 30/30/30 29/29/29 28/28/28
f 33/33/33 32/32/32 31/31/31
f 34/34/34 33/33/33 31/31/31
f 37/37/37 36/36/36 35/35/35
f 38/38/38 37/37/37 35/35/35
f 41/41/41 40/40/40 39/39/39
f 42/42/42 41/41/41 39/39/39
f 45/45/45 44/44/44 43/43/43
f 46/46/46 45/45/45 43/43/43
f 49/49/49 48/48/48 47/47/47
f 50/50/50 49/49/49 47/47/47
