g XMAS_Big_Snowman_06_0
v 0.484802812 1.14098096 6.09789896
v 0.533349097 1.4145602 6.15892982
v 0.533349097 1.47649825 5.88127661
v 0.484802812 1.20291901 5.82024765
v 0.533349097 1.4145602 6.15892982
v 0.253045231 1.46194184 6.1694994
v 0.253045231 1.52387977 5.89184666
v 0.533349097 1.47649825 5.88127661
v 0.253045231 1.52387977 5.89184666
v 0.253045231 1.46194184 6.1694994
v 0.204499006 1.1883626 6.10846901
v 0.204499006 1.25030065 5.8308177
v 0.204499006 1.25030065 5.8308177
v 0.484802812 1.20291901 5.82024765
v 0.533349097 1.47649825 5.88127661
v 0.253045231 1.52387977 5.89184666
v 0.484802812 1.14098096 6.09789896
v 0.204499006 1.1883626 6.10846901
v 0.253045231 1.46194184 6.1694994
v 0.533349097 1.4145602 6.15892982
v 0.563700676 1.23100364 5.36757755
v 0.631922305 1.44590402 5.33664608
v 0.718989789 1.38912332 5.13418913
v 0.65076828 1.17422271 5.16512156
v 0.718989789 1.38912332 5.13418913
v 0.631922305 1.44590402 5.33664608
v 0.433029503 1.49475992 5.23740816
v 0.520097017 1.43797922 5.03495312
v 0.520097017 1.43797922 5.03495312
v 0.433029503 1.49475992 5.23740816
v 0.364807993 1.27985954 5.26834106
v 0.451875478 1.22307849 5.06588411
v 0.65076828 1.17422271 5.16512156
v 0.718989789 1.38912332 5.13418913
v 0.520097017 1.43797922 5.03495312
v 0.451875478 1.22307849 5.06588411
v 0.563700676 1.23100364 5.36757755
v 0.364807993 1.27985954 5.26834106
v 0.433029503 1.49475992 5.23740816
v 0.631922305 1.44590402 5.33664608
v 0.346113533 1.27934754 5.26908731
v 0.38109678 1.50030375 5.22728252
v 0.43422544 1.45107234 5.01153564
v 0.399242282 1.23011601 5.05334044
v 0.38109678 1.50030375 5.22728252
v 0.162586451 1.52370858 5.16813326
v 0.2157152 1.47447705 4.9523859
v 0.43422544 1.45107234 5.01153564
v 0.2157152 1.47447705 4.9523859
v 0.162586451 1.52370858 5.16813326
v 0.127603203 1.30275202 5.20993757
v 0.180731922 1.25352073 4.99419117
v 0.399242282 1.23011601 5.05334044
v 0.43422544 1.45107234 5.01153564
v 0.2157152 1.47447705 4.9523859
v 0.180731922 1.25352073 4.99419117
v 0.346113533 1.27934754 5.26908731
v 0.127603203 1.30275202 5.20993757
v 0.162586451 1.52370858 5.16813326
v 0.38109678 1.50030375 5.22728252
v -0.563700676 1.23100364 5.36757755
v -0.65076828 1.17422271 5.16512156
v -0.718989789 1.38912332 5.13418913
v -0.631922305 1.44590402 5.33664608
v -0.433029503 1.49475992 5.23740816
v -0.631922305 1.44590402 5.33664608
v -0.718989789 1.38912332 5.13418913
v -0.520097017 1.43797922 5.03495312
v -0.364807993 1.27985954 5.26834106
v -0.433029503 1.49475992 5.23740816
v -0.520097017 1.43797922 5.03495312
v -0.451875478 1.22307849 5.06588411
v -0.65076828 1.17422271 5.16512156
v -0.451875478 1.22307849 5.06588411
v -0.520097017 1.43797922 5.03495312
v -0.718989789 1.38912332 5.13418913
v -0.433029503 1.49475992 5.23740816
v -0.364807993 1.27985954 5.26834106
v -0.563700676 1.23100364 5.36757755
v -0.631922305 1.44590402 5.33664608
v -0.346113533 1.27934754 5.26908731
v -0.399242282 1.23011601 5.05334044
v -0.43422544 1.45107234 5.01153564
v -0.38109678 1.50030375 5.22728252
v -0.38109678 1.50030375 5.22728252
v -0.43422544 1.45107234 5.01153564
v -0.2157152 1.47447705 4.9523859
v -0.162586451 1.52370858 5.16813326
v -0.127603203 1.30275202 5.20993757
v -0.162586451 1.52370858 5.16813326
v -0.2157152 1.47447705 4.9523859
v -0.180731922 1.25352073 4.99419117
v -0.399242282 1.23011601 5.05334044
v -0.180731922 1.25352073 4.99419117
v -0.2157152 1.47447705 4.9523859
v -0.43422544 1.45107234 5.01153564
v -0.162586451 1.52370858 5.16813326
v -0.127603203 1.30275202 5.20993757
v -0.346113533 1.27934754 5.26908731
v -0.38109678 1.50030375 5.22728252
v -0.484802812 1.14098096 6.09789896
v -0.484802812 1.20291901 5.82024765
v -0.533349097 1.47649825 5.88127661
v -0.533349097 1.4145602 6.15892982
v -0.533349097 1.4145602 6.15892982
v -0.533349097 1.47649825 5.88127661
v -0.253045231 1.52387977 5.89184666
v -0.253045231 1.46194184 6.1694994
v -0.204499006 1.1883626 6.10846901
v -0.253045231 1.46194184 6.1694994
v -0.253045231 1.52387977 5.89184666
v -0.204499006 1.25030065 5.8308177
v -0.533349097 1.47649825 5.88127661
v -0.484802812 1.20291901 5.82024765
v -0.204499006 1.25030065 5.8308177
v -0.253045231 1.52387977 5.89184666
v -0.253045231 1.46194184 6.1694994
v -0.204499006 1.1883626 6.10846901
v -0.484802812 1.14098096 6.09789896
v -0.533349097 1.4145602 6.15892982
v -0.113790661 1.54571867 5.16597033
v -0.113790661 1.32303071 5.21291018
v -0.113790661 1.27609074 4.99022245
v -0.113790661 1.4987787 4.94328213
v 0.113790661 1.54571867 5.16597033
v -0.113790661 1.54571867 5.16597033
v -0.113790661 1.4987787 4.94328213
v 0.113790661 1.4987787 4.94328213
v 0.113790661 1.32303071 5.21291018
v 0.113790661 1.54571867 5.16597033
v 0.113790661 1.4987787 4.94328213
v 0.113790661 1.27609074 4.99022245
v -0.113790661 1.4987787 4.94328213
v -0.113790661 1.27609074 4.99022245
v 0.113790661 1.27609074 4.99022245
v 0.113790661 1.4987787 4.94328213
v 0.113790661 1.54571867 5.16597033
v 0.113790661 1.32303071 5.21291018
v -0.113790661 1.32303071 5.21291018
v -0.113790661 1.54571867 5.16597033
vt 0.618294179 0.681494296
vt 0.800051749 0.681494296
vt 0.800051749 0.863251805
vt 0.618294179 0.863251805
vt 0.618294179 0.681494296
vt 0.800051749 0.681494296
vt 0.800051749 0.863251805
vt 0.618294179 0.863251805
vt 0.618294179 0.863251805
vt 0.618294179 0.681494296
vt 0.800051749 0.681494296
vt 0.800051749 0.863251805
vt 0.618294179 0.863251805
vt 0.618294179 0.681494296
vt 0.800051749 0.681494296
vt 0.800051749 0.863251805
vt 0.618294179 0.863251805
vt 0.618294179 0.681494296
vt 0.800051749 0.681494296
vt 0.800051749 0.863251805
vt 0.618294179 0.681494296
vt 0.800051749 0.681494296
vt 0.800051749 0.863251805
vt 0.618294179 0.863251805
vt 0.618294179 0.863251805
vt 0.618294179 0.681494296
vt 0.800051749 0.681494296
vt 0.800051749 0.863251805
vt 0.618294179 0.863251805
vt 0.618294179 0.681494296
vt 0.800051749 0.681494296
vt 0.800051749 0.863251805
vt 0.618294179 0.681494296
vt 0.800051749 0.681494296
vt 0.800051749 0.863251805
vt 0.618294179 0.863251805
vt 0.618294179 0.863251805
vt 0.618294179 0.681494296
vt 0.800051749 0.681494296
vt 0.800051749 0.863251805
vt 0.618294179 0.681494296
vt 0.800051749 0.681494296
vt 0.800051749 0.863251805
vt 0.618294179 0.863251805
vt 0.618294179 0.681494296
vt 0.800051749 0.681494296
vt 0.800051749 0.863251805
vt 0.618294179 0.863251805
vt 0.618294179 0.863251805
vt 0.618294179 0.681494296
vt 0.800051749 0.681494296
vt 0.800051749 0.863251805
vt 0.618294179 0.681494296
vt 0.800051749 0.681494296
vt 0.800051749 0.863251805
vt 0.618294179 0.863251805
vt 0.618294179 0.863251805
vt 0.618294179 0.681494296
vt 0.800051749 0.681494296
vt 0.800051749 0.863251805
vt 0.618294179 0.681494296
vt 0.618294179 0.863251805
vt 0.800051749 0.863251805
vt 0.800051749 0.681494296
vt 0.800051749 0.681494296
vt 0.618294179 0.681494296
vt 0.618294179 0.863251805
vt 0.800051749 0.863251805
vt 0.800051749 0.681494296
vt 0.618294179 0.681494296
vt 0.618294179 0.863251805
vt 0.800051749 0.863251805
vt 0.618294179 0.681494296
vt 0.618294179 0.863251805
vt 0.800051749 0.863251805
vt 0.800051749 0.681494296
vt 0.800051749 0.681494296
vt 0.618294179 0.681494296
vt 0.618294179 0.863251805
vt 0.800051749 0.863251805
vt 0.618294179 0.681494296
vt 0.618294179 0.863251805
vt 0.800051749 0.863251805
vt 0.800051749 0.681494296
vt 0.618294179 0.681494296
vt 0.618294179 0.863251805
vt 0.800051749 0.863251805
vt 0.800051749 0.681494296
vt 0.800051749 0.681494296
vt 0.618294179 0.681494296
vt 0.618294179 0.863251805
vt 0.800051749 0.863251805
vt 0.618294179 0.681494296
vt 0.618294179 0.863251805
vt 0.800051749 0.863251805
vt 0.800051749 0.681494296
vt 0.800051749 0.681494296
vt 0.618294179 0.681494296
vt 0.618294179 0.863251805
vt 0.800051749 0.863251805
vt 0.618294179 0.681494296
vt 0.618294179 0.863251805
vt 0.800051749 0.863251805
vt 0.800051749 0.681494296
vt 0.618294179 0.681494296
vt 0.618294179 0.863251805
vt 0.800051749 0.863251805
vt 0.800051749 0.681494296
vt 0.800051749 0.681494296
vt 0.618294179 0.681494296
vt 0.618294179 0.863251805
vt 0.800051749 0.863251805
vt 0.800051749 0.681494296
vt 0.618294179 0.681494296
vt 0.618294179 0.863251805
vt 0.800051749 0.863251805
vt 0.800051749 0.681494296
vt 0.618294179 0.681494296
vt 0.618294179 0.863251805
vt 0.800051749 0.863251805
vt 0.800051749 0.681494296
vt 0.618294179 0.681494296
vt 0.618294179 0.863251805
vt 0.800051749 0.863251805
vt 0.800051749 0.681494296
vt 0.618294179 0.681494296
vt 0.618294179 0.863251805
vt 0.800051749 0.863251805
vt 0.800051749 0.681494296
vt 0.618294179 0.681494296
vt 0.618294179 0.863251805
vt 0.800051749 0.863251805
vt 0.800051749 0.681494296
vt 0.618294179 0.681494296
vt 0.618294179 0.863251805
vt 0.800051749 0.863251805
vt 0.800051749 0.681494296
vt 0.618294179 0.681494296
vt 0.618294179 0.863251805
vt 0.800051749 0.863251805
vn 0.985331535 -0.166557267 -0.037155211
vn 0.985331535 -0.166557178 -0.0371550694
vn 0.985331535 -0.166557267 -0.037155211
vn 0.985331535 -0.166557372 -0.0371553488
vn 0.170650929 0.961693466 0.214531854
vn 0.170650735 0.961693466 0.214532107
vn 0.170650929 0.961693466 0.214531854
vn 0.170651153 0.961693466 0.214531586
vn -0.985331535 0.166557059 0.0371552221
vn -0.985331655 0.166557014 0.0371551067
vn -0.985331535 0.166557059 0.0371552221
vn -0.985331535 0.166557133 0.0371553451
vn -0 0.217724979 -0.976010144
vn -0 0.217724934 -0.976010144
vn -0 0.217724979 -0.976010144
vn -0 0.217725039 -0.976010144
vn -0 -0.217729852 0.97600913
vn -0 -0.217729017 0.97600925
vn -0 -0.217729852 0.97600913
vn -0 -0.217730641 0.976008892
vn 0.873941541 -0.214675322 0.436051428
vn 0.873941541 -0.21467641 0.436050713
vn 0.873941541 -0.214675322 0.436051428
vn 0.873941422 -0.214674219 0.436052144
vn 0.299767345 0.944280982 -0.135915637
vn 0.299767524 0.944280982 -0.135915175
vn 0.299767345 0.944280982 -0.135915637
vn 0.299767137 0.944280863 -0.135916099
vn -0.8739416 0.214674786 -0.436051458
vn -0.873941541 0.214673266 -0.436052442
vn -0.8739416 0.214674786 -0.436051458
vn -0.87394172 0.214676306 -0.436050504
vn 0.382577032 -0.249495074 -0.889599383
vn 0.382574767 -0.2494964 -0.889599919
vn 0.382577032 -0.249495074 -0.889599383
vn 0.382579207 -0.249493644 -0.889598787
vn -0.382576883 0.24949725 0.889598787
vn -0.382574201 0.249498919 0.889599442
vn -0.382576883 0.24949725 0.889598787
vn -0.382579476 0.249495581 0.889598131
vn 0.960141659 -0.102841571 0.259906709
vn 0.960141659 -0.102841772 0.25990662
vn 0.960141659 -0.102841571 0.259906709
vn 0.960141659 -0.102841355 0.259906888
vn 0.153717577 0.970889986 -0.183694214
vn 0.153717652 0.970889986 -0.183694258
vn 0.153717577 0.970889986 -0.183694214
vn 0.153717488 0.970889986 -0.183694199
vn -0.960141659 0.10284166 -0.259906888
vn -0.960141659 0.102842376 -0.259906411
vn -0.960141659 0.10284166 -0.259906888
vn -0.96014154 0.102840938 -0.259907335
vn 0.233447939 -0.21632354 -0.948001146
vn 0.233449429 -0.216322377 -0.948001027
vn 0.233447939 -0.21632354 -0.948001146
vn 0.233446509 -0.216324717 -0.948001266
vn -0.233448312 0.216321006 0.948001564
vn -0.233449891 0.216319785 0.948001444
vn -0.233448312 0.216321006 0.948001564
vn -0.233446762 0.216322243 0.948001802
vn -0.873941541 -0.214675322 0.436051428
vn -0.873941422 -0.214674219 0.436052144
vn -0.873941541 -0.214675322 0.436051428
vn -0.873941541 -0.21467641 0.436050713
vn -0.299767345 0.944280982 -0.135915637
vn -0.299767524 0.944280982 -0.13591516
vn -0.299767345 0.944280982 -0.135915637
vn -0.299767137 0.944280863 -0.135916114
vn 0.8739416 0.214674726 -0.436051458
vn 0.873941541 0.214673206 -0.436052442
vn 0.8739416 0.214674726 -0.436051458
vn 0.87394172 0.214676276 -0.436050504
vn -0.382577032 -0.249495074 -0.889599383
vn -0.382579207 -0.249493644 -0.889598787
vn -0.382577032 -0.249495074 -0.889599383
vn -0.382574767 -0.2494964 -0.889599919
vn 0.382576883 0.24949728 0.889598787
vn 0.382574171 0.249498919 0.889599442
vn 0.382576883 0.24949728 0.889598787
vn 0.382579595 0.249495611 0.889598131
vn -0.960141659 -0.102841571 0.259906709
vn -0.960141659 -0.102841355 0.259906888
vn -0.960141659 -0.102841571 0.259906709
vn -0.960141659 -0.102841772 0.25990662
vn -0.153717577 0.970889986 -0.183694214
vn -0.153717488 0.970889986 -0.183694199
vn -0.153717577 0.970889986 -0.183694214
vn -0.153717652 0.970889986 -0.183694258
vn 0.960141659 0.102841668 -0.259906888
vn 0.960141659 0.102842376 -0.259906411
vn 0.960141659 0.102841668 -0.259906888
vn 0.96014154 0.102840945 -0.259907335
vn -0.233447939 -0.21632354 -0.948001146
vn -0.233446509 -0.216324717 -0.948001266
vn -0.233447939 -0.21632354 -0.948001146
vn -0.233449429 -0.216322377 -0.948001027
vn 0.233448327 0.216321021 0.948001683
vn 0.233449861 0.216319785 0.948001444
vn 0.233448327 0.216321021 0.948001683
vn 0.233446762 0.216322243 0.948001802
vn -0.985331535 -0.166557267 -0.037155211
vn -0.985331535 -0.166557372 -0.0371553488
vn -0.985331535 -0.166557267 -0.037155211
vn -0.985331535 -0.166557178 -0.0371550694
vn -0.170650929 0.961693466 0.214531854
vn -0.170651153 0.961693466 0.214531586
vn -0.170650929 0.961693466 0.214531854
vn -0.170650735 0.961693466 0.214532107
vn 0.985331535 0.166557059 0.0371552221
vn 0.985331655 0.166557014 0.0371551141
vn 0.985331535 0.166557059 0.0371552221
vn 0.985331535 0.166557133 0.0371553451
vn -0 0.217725009 -0.976010144
vn -0 0.217724979 -0.976010144
vn -0 0.217725009 -0.976010144
vn -0 0.217725053 -0.976010144
vn -0 -0.217729852 0.97600913
vn -0 -0.217729032 0.97600925
vn -0 -0.217729852 0.97600913
vn -0 -0.217730641 0.976008892
vn -1 0 0
vn -1 0 0
vn -1 0 0
vn -1 0 0
vn -0 0.978498042 -0.206255853
vn -0 0.978498042 -0.206255853
vn -0 0.978498042 -0.206255853
vn -0 0.978498042 -0.206255853
vn 1 0 0
vn 1 0 0
vn 1 0 0
vn 1 0 0
vn -0 -0.206255898 -0.978498042
vn -0 -0.206255898 -0.978498042
vn -0 -0.206255898 -0.978498042
vn -0 -0.206255898 -0.978498042
vn -0 0.206254587 0.978498399
vn -0 0.206254587 0.978498399
vn -0 0.206254587 0.978498399
vn -0 0.206254587 0.978498399
g XMAS_Big_Snowman_06_0_0
f 3/3/3 2/2/2 1/1/1
f 4/4/4 3/3/3 1/1/1
f 7/7/7 6/6/6 5/5/5
f 8/8/8 7/7/7 5/5/5
f 11/11/11 10/10/10 9/9/9
f 12/12/12 11/11/11 9/9/9
f 15/15/15 14/14/14 13/13/13
f 16/16/16 15/15/15 13/13/13
f 19/19/19 18/18/18 17/17/17
f 20/20/20 19/19/19 17/17/17
f 23/23/23 22/22/22 21/21/21
f 24/24/24 23/23/23 21/21/21
f 27/27/27 26/26/26 25/25/25
f 28/28/28 27/27/27 25/25/25
f 31/31/31 30/30/30 29/29/29
f 32/32/32 31/31/31 29/29/29
f 35/35/35 34/34/34 33/33/33
f 36/36/36 35/35/35 33/33/33
f 39/39/39 38/38/38 37/37/37
f 40/40/40 39/39/39 37/37/37
f 43/43/43 42/42/42 41/41/41
f 44/44/44 43/43/43 41/41/41
f 47/47/47 46/46/46 45/45/45
f 48/48/48 47/47/47 45/45/45
f 51/51/51 50/50/50 49/49/49
f 52/52/52 51/51/51 49/49/49
f 55/55/55 54/54/54 53/53/53
f 56/56/56 55/55/55 53/53/53
f 59/59/59 58/58/58 57/57/57
f 60/60/60 59/59/59 57/57/57
f 63/63/63 62/62/62 61/61/61
f 64/64/64 63/63/63 61/61/61
f 67/67/67 66/66/66 65/65/65
f 68/68/68 67/67/67 65/65/65
f 71/71/71 70/70/70 69/69/69
f 72/72/72 71/71/71 69/69/69
f 75/75/75 74/74/74 73/73/73
f 76/76/76 75/75/75 73/73/73
f 79/79/79 78/78/78 77/77/77
f 80/80/80 79/79/79 77/77/77
f 83/83/83 82/82/82 81/81/81
f 84/84/84 83/83/83 81/81/81
f 87/87/87 86/86/86 85/85/85
f 88/88/88 87/87/87 85/85/85
f 91/91/91 90/90/90 89/89/89
f 92/92/92 91/91/91 89/89/89
f 95/95/95 94/94/94 93/93/93
f 96/96/96 95/95/95 93/93/93
f 99/99/99 98/98/98 97/97/97
f 100/100/100 99/99/99 97/97/97
f 103/103/103 102/102/102 101/101/101
f 104/104/104 103/103/103 101/101/101
f 107/107/107 106/106/106 105/105/105
f 108/108/108 107/107/107 105/105/105
f 111/111/111 110/110/110 109/109/109
f 112/112/112 111/111/111 109/109/109
f 115/115/115 114/114/114 113/113/113
f 116/116/116 115/115/115 113/113/113
f 119/119/119 118/118/118 117/117/117
f 120/120/120 119/119/119 117/117/117
f 123/123/123 122/122/122 121/121/121
f 124/124/124 123/123/123 121/121/121
f 127/127/127 126/126/126 125/125/125
f 128/128/128 127/127/127 125/125/125
f 131/131/131 130/130/130 129/129/129
f 132/132/132 131/131/131 129/129/129
f 135/135/135 134/134/134 133/133/133
f 136/136/136 135/135/135 133/133/133
f 139/139/139 138/138/138 137/137/137
f 140/140/140 139/139/139 137/137/137
