g XMAS_Big_Snowman_05_0
v -0.125169665 1.41063476 2.97904086
v -0.125169665 1.3590008 2.73408413
v -0.125169665 1.60395753 2.68245029
v -0.125169665 1.65559137 2.92740679
v 0.125169784 1.65559137 2.92740679
v -0.125169665 1.65559137 2.92740679
v -0.125169665 1.60395753 2.68245029
v 0.125169784 1.60395753 2.68245029
v 0.125169784 1.41063476 2.97904086
v 0.125169784 1.65559137 2.92740679
v 0.125169784 1.60395753 2.68245029
v 0.125169784 1.3590008 2.73408413
v -0.125169665 1.60395753 2.68245029
v -0.125169665 1.3590008 2.73408413
v 0.125169784 1.3590008 2.73408413
v 0.125169784 1.60395753 2.68245029
v 0.125169784 1.65559137 2.92740679
v 0.125169784 1.41063476 2.97904086
v -0.125169665 1.41063476 2.97904086
v -0.125169665 1.65559137 2.92740679
v -0.125169665 1.49492133 3.5199666
v -0.125169665 1.4837631 3.269876
v -0.125169665 1.7338537 3.25871754
v -0.125169665 1.74501216 3.50880814
v 0.125169784 1.74501216 3.50880814
v -0.125169665 1.74501216 3.50880814
v -0.125169665 1.7338537 3.25871754
v 0.125169784 1.7338537 3.25871754
v 0.125169784 1.49492133 3.5199666
v 0.125169784 1.74501216 3.50880814
v 0.125169784 1.7338537 3.25871754
v 0.125169784 1.4837631 3.269876
v -0.125169665 1.7338537 3.25871754
v -0.125169665 1.4837631 3.269876
v 0.125169784 1.4837631 3.269876
v 0.125169784 1.7338537 3.25871754
v 0.125169784 1.74501216 3.50880814
v 0.125169784 1.49492133 3.5199666
v -0.125169665 1.49492133 3.5199666
v -0.125169665 1.74501216 3.50880814
v -0.125169665 1.36344957 4.06767559
v -0.125169665 1.41413903 3.82252169
v -0.125169665 1.6592927 3.87321091
v -0.125169665 1.60860312 4.11836529
v 0.125169784 1.60860312 4.11836529
v -0.125169665 1.60860312 4.11836529
v -0.125169665 1.6592927 3.87321091
v 0.125169784 1.6592927 3.87321091
v 0.125169784 1.36344957 4.06767559
v 0.125169784 1.60860312 4.11836529
v 0.125169784 1.6592927 3.87321091
v 0.125169784 1.41413903 3.82252169
v -0.125169665 1.6592927 3.87321091
v -0.125169665 1.41413903 3.82252169
v 0.125169784 1.41413903 3.82252169
v 0.125169784 1.6592927 3.87321091
v 0.125169784 1.60860312 4.11836529
v 0.125169784 1.36344957 4.06767559
v -0.125169665 1.36344957 4.06767559
v -0.125169665 1.60860312 4.11836529
vt 0.618294179 0.681494296
vt 0.618294179 0.863251805
vt 0.800051749 0.863251805
vt 0.800051749 0.681494296
vt 0.800051749 0.681494296
vt 0.618294179 0.681494296
vt 0.618294179 0.863251805
vt 0.800051749 0.863251805
vt 0.800051749 0.681494296
vt 0.618294179 0.681494296
vt 0.618294179 0.863251805
vt 0.800051749 0.863251805
vt 0.800051749 0.681494296
vt 0.618294179 0.681494296
vt 0.618294179 0.863251805
vt 0.800051749 0.863251805
vt 0.800051749 0.681494296
vt 0.618294179 0.681494296
vt 0.618294179 0.863251805
vt 0.800051749 0.863251805
vt 0.618294179 0.681494296
vt 0.618294179 0.863251805
vt 0.800051749 0.863251805
vt 0.800051749 0.681494296
vt 0.800051749 0.681494296
vt 0.618294179 0.681494296
vt 0.618294179 0.863251805
vt 0.800051749 0.863251805
vt 0.800051749 0.681494296
vt 0.618294179 0.681494296
vt 0.618294179 0.863251805
vt 0.800051749 0.863251805
vt 0.800051749 0.681494296
vt 0.618294179 0.681494296
vt 0.618294179 0.863251805
vt 0.800051749 0.863251805
vt 0.800051749 0.681494296
vt 0.618294179 0.681494296
vt 0.618294179 0.863251805
vt 0.800051749 0.863251805
vt 0.618294179 0.681494296
vt 0.618294179 0.863251805
vt 0.800051749 0.863251805
vt 0.800051749 0.681494296
vt 0.800051749 0.681494296
vt 0.618294179 0.681494296
vt 0.618294179 0.863251805
vt 0.800051749 0.863251805
vt 0.800051749 0.681494296
vt 0.618294179 0.681494296
vt 0.618294179 0.863251805
vt 0.800051749 0.863251805
vt 0.800051749 0.681494296
vt 0.618294179 0.681494296
vt 0.618294179 0.863251805
vt 0.800051749 0.863251805
vt 0.800051749 0.681494296
vt 0.618294179 0.681494296
vt 0.618294179 0.863251805
vt 0.800051749 0.863251805
vn -1 0 0
vn -1 0 0
vn -1 0 0
vn -1 0 0
vn -0 0.978498161 -0.206255659
vn -0 0.978498161 -0.206255659
vn -0 0.978498161 -0.206255659
vn -0 0.978498161 -0.206255659
vn 1 0 0
vn 1 0 0
vn 1 0 0
vn 1 0 0
vn -0 -0.206255659 -0.978498161
vn -0 -0.206255659 -0.978498161
vn -0 -0.206255659 -0.978498161
vn -0 -0.206255659 -0.978498161
vn -0 0.206255659 0.978498161
vn -0 0.206255659 0.978498161
vn -0 0.206255659 0.978498161
vn -0 0.206255659 0.978498161
vn -1 0 0
vn -1 0 0
vn -1 0 0
vn -1 0 0
vn -0 0.999006212 -0.0445732735
vn -0 0.999006212 -0.0445732735
vn -0 0.999006212 -0.0445732735
vn -0 0.999006212 -0.0445732735
vn 1 0 0
vn 1 0 0
vn 1 0 0
vn 1 0 0
vn -0 -0.0445732735 -0.999006212
vn -0 -0.0445732735 -0.999006212
vn -0 -0.0445732735 -0.999006212
vn -0 -0.0445732735 -0.999006212
vn -0 0.0445732437 0.999006212
vn -0 0.0445732437 0.999006212
vn -0 0.0445732437 0.999006212
vn -0 0.0445732437 0.999006212
vn -1 0 0
vn -1 0 0
vn -1 0 0
vn -1 0 0
vn -0 0.979285777 0.202483043
vn -0 0.979285777 0.202483043
vn -0 0.979285777 0.202483043
vn -0 0.979285777 0.202483043
vn 1 0 0
vn 1 0 0
vn 1 0 0
vn 1 0 0
vn -0 0.20248279 -0.979285777
vn -0 0.20248279 -0.979285777
vn -0 0.20248279 -0.979285777
vn -0 0.20248279 -0.979285777
vn -0 -0.202483982 0.979285538
vn -0 -0.202483982 0.979285538
vn -0 -0.202483982 0.979285538
vn -0 -0.202483982 0.979285538
g XMAS_Big_Snowman_05_0_0
f 3/3/3 2/2/2 1/1/1
f 4/4/4 3/3/3 1/1/1
f 7/7/7 6/6/6 5/5/5
f 8/8/8 7/7/7 5/5/5
f 11/11/11 10/10/10 9/9/9
f 12/12/12 11/11/11 9/9/9
f 15/15/15 14/14/14 13/13/13
f 16/16/16 15/15/15 13/13/13
f 19/19/19 18/18/18 17/17/17
f 20/20/20 19/19/19 17/17/17
f 23/23/23 22/22/22 21/21/21
f 24/24/24 23/23/23 21/21/21
f 27/27/27 26/26/26 25/25/25
f 28/28/28 27/27/27 25/25/25
f 31/31/31 30/30/30 29/29/29
f 32/32/32 31/31/31 29/29/29
f 35/35/35 34/34/34 33/33/33
f 36/36/36 35/35/35 33/33/33
f 39/39/39 38/38/38 37/37/37
f 40/40/40 39/39/39 37/37/37
f 43/43/43 42/42/42 41/41/41
f 44/44/44 43/43/43 41/41/41
f 47/47/47 46/46/46 45/45/45
f 48/48/48 47/47/47 45/45/45
f 51/51/51 50/50/50 49/49/49
f 52/52/52 51/51/51 49/49/49
f 55/55/55 54/54/54 53/53/53
f 56/56/56 55/55/55 53/53/53
f 59/59/59 58/58/58 57/57/57
f 60/60/60 59/59/59 57/57/57
