g XMAS_Big_Snowman_04_0
v -1.10214813E-07 2.11511064 5.49756479
v -0.110949151 2.11511183 5.60851383
v -0.346699625 0.105436131 5.60851479
v -2.03473491E-07 0.105436139 5.26181459
v 0.110949047 2.11511064 5.60851383
v 0.346699327 0.10543552 5.60851479
v -6.78245016E-08 0.105436787 5.95521402
v -5.08683726E-08 2.11511064 5.71946383
v 0.110949047 2.11511064 5.60851383
v -1.10214813E-07 2.11511064 5.49756479
v -2.03473491E-07 0.105436139 5.26181459
v 0.346699327 0.10543552 5.60851479
v -0.346699625 0.105436131 5.60851479
v -0.110949151 2.11511183 5.60851383
v -5.08683726E-08 2.11511064 5.71946383
v -6.78245016E-08 0.105436787 5.95521402
v 0.110949047 2.11511064 5.60851383
v -5.08683726E-08 2.11511064 5.71946383
v -0.110949151 2.11511183 5.60851383
v -1.10214813E-07 2.11511064 5.49756479
vt 0.132172421 0.222865999
vt 0.132172421 0.285883069
vt 0.174183831 0.285883069
vt 0.174183831 0.222865939
vt 0.217035457 0.285883069
vt 0.259046882 0.285883069
vt 0.259046882 0.222865999
vt 0.217035517 0.222865939
vt 0.132172391 0.159218699
vt 0.132172421 0.222235799
vt 0.174183831 0.222235739
vt 0.174183831 0.159218669
vt 0.217035457 0.159218669
vt 0.217035457 0.222235799
vt 0.259046882 0.222235739
vt 0.259046882 0.159218669
vt 0.174603954 0.222865939
vt 0.174603954 0.285883069
vt 0.216615364 0.285883069
vt 0.216615364 0.222865939
vn -0.704686999 0.0826648846 -0.704686344
vn -0.704686403 0.0826647282 -0.70468688
vn -0.704686999 0.0826648846 -0.704686344
vn -0.704687655 0.0826650187 -0.704685569
vn 0.704688609 0.0826651156 0.704684675
vn 0.704686582 0.0826655477 0.704686582
vn 0.704688609 0.0826651156 0.704684675
vn 0.704690516 0.082664676 0.704682648
vn 0.704687059 0.0826649666 -0.704686224
vn 0.704686463 0.0826650932 -0.704686821
vn 0.704687059 0.0826649666 -0.704686224
vn 0.704687715 0.0826648399 -0.704685628
vn -0.704688132 0.0826655924 0.704685032
vn -0.70468992 0.0826660022 0.704683125
vn -0.704688132 0.0826655924 0.704685032
vn -0.704686403 0.0826651752 0.70468688
vn 5.50118557E-06 1 0
vn -0 1 0
vn 5.50118557E-06 1 0
vn -0 1 0
g XMAS_Big_Snowman_04_0_0
f 3/3/3 2/2/2 1/1/1
f 4/4/4 3/3/3 1/1/1
f 7/7/7 6/6/6 5/5/5
f 8/8/8 7/7/7 5/5/5
f 11/11/11 10/10/10 9/9/9
f 12/12/12 11/11/11 9/9/9
f 15/15/15 14/14/14 13/13/13
f 16/16/16 15/15/15 13/13/13
f 19/19/19 18/18/18 17/17/17
f 20/20/20 19/19/19 17/17/17
