# generated by LodBaker -- retail ships no LODGroup for this prop
v 0.712523 1.63118 0.51161 1 1 1
v 1.425046 1.336042 1.28284 1 1 1
v 1.316571 1.227567 2.05407 1 1 1
v -2E-06 -2.104326 1.28284 1 1 1
v -2E-06 -1.950918 0.51161 1 1 1
v -0.712525 -1.809188 0.51161 1 1 1
v -1.316573 1.227568 0.51161 1 1 1
v -0.712524 1.63118 0.51161 1 1 1
v -0.058654 0.81922 1.450485 1 1 1
v -1.720185 0.62352 0.51161 1 1 1
v -1.316573 1.227568 0.51161 1 1 1
v 1.861913 0.682225 1.28284 1 1 1
v -0.058654 0.81922 1.450485 1 1 1
v 1.861913 0.682225 1.28284 1 1 1
v 0.653198 -0.770494 1.662373 1 1 1
v 2.01532 -0.089005 1.28284 1 1 1
v -0.949091 -0.71104 1.382523 1 1 1
v 0.771228 -1.950918 1.28284 1 1 1
v -0.712525 -1.809188 0.51161 1 1 1
v -1.316574 -1.405575 0.51161 1 1 1
v 1.425045 -1.514052 1.28284 1 1 1
v 0.771228 -1.950918 1.28284 1 1 1
v 1.861912 -0.860235 1.28284 1 1 1
v 1.425045 -1.514052 1.28284 1 1 1
v 1.31657 -1.405576 0.51161 1 1 1
v 1.007659 -1.096665 -0.142207 1 1 1
v 0.712522 -1.809188 0.51161 1 1 1
v 0.54534 -1.405576 -0.142207 1 1 1
v 1.861912 -0.860235 1.28284 1 1 1
v 1.720183 -0.801528 0.51161 1 1 1
v 1.425045 -1.514052 1.28284 1 1 1
v 1.31657 -1.405576 0.51161 1 1 1
v 2.01532 -0.089005 1.28284 1 1 1
v 1.861913 -0.089005 0.51161 1 1 1
v 1.861912 -0.860235 1.28284 1 1 1
v 1.720183 -0.801528 0.51161 1 1 1
v 0.712522 -1.809188 0.51161 1 1 1
v 0.54534 -1.405576 -0.142207 1 1 1
v -2E-06 -1.950918 0.51161 1 1 1
v -2E-06 -1.514051 -0.142207 1 1 1
v -1E-06 1.336043 -0.142207 1 1 1
v -1E-06 1.77291 0.51161 1 1 1
v -0.545343 1.227568 -0.142207 1 1 1
v -0.712524 1.63118 0.51161 1 1 1
v 1.316571 0.456337 -0.142207 1 1 1
v 1.425046 -0.089005 -0.142207 1 1 1
v 1.720183 0.623519 0.51161 1 1 1
v 1.861913 -0.089005 0.51161 1 1 1
v -1.861915 -0.089004 0.51161 1 1 1
v -1.425048 -0.089004 -0.142207 1 1 1
v -1.720185 0.62352 0.51161 1 1 1
v -1.316573 0.456338 -0.142207 1 1 1
v -1.316573 -0.634345 -0.142207 1 1 1
v -1.425048 -0.089004 -0.142207 1 1 1
v -1.720185 -0.801527 0.51161 1 1 1
v -1.861915 -0.089004 0.51161 1 1 1
v 0.712523 1.63118 0.51161 1 1 1
v 0.545341 1.227567 -0.142207 1 1 1
v 1.316571 1.227567 0.51161 1 1 1
v 1.00766 0.918656 -0.142207 1 1 1
v 1.316571 1.227567 0.51161 1 1 1
v 1.425046 1.336042 1.28284 1 1 1
v 1.316571 1.227567 0.51161 1 1 1
v 1.861913 0.682225 1.28284 1 1 1
v 1.720183 0.623519 0.51161 1 1 1
v 1.861912 -0.860235 1.28284 1 1 1
v 2.01532 -0.089005 1.28284 1 1 1
v -1E-06 1.77291 0.51161 1 1 1
v 0.712523 1.63118 0.51161 1 1 1
v -1.316573 0.456338 -0.142207 1 1 1
v -1.007662 0.918656 -0.142207 1 1 1
v -1.720185 0.62352 0.51161 1 1 1
v -1.316573 1.227568 0.51161 1 1 1
v 1.31657 -1.405576 0.51161 1 1 1
v 0.712522 -1.809188 0.51161 1 1 1
v 1.425045 -1.514052 1.28284 1 1 1
v 0.771228 -1.950918 1.28284 1 1 1
v -1.316573 1.227568 0.51161 1 1 1
v -1.007662 0.918656 -0.142207 1 1 1
v -0.712524 1.63118 0.51161 1 1 1
v -0.545343 1.227568 -0.142207 1 1 1
v -2E-06 -1.950918 0.51161 1 1 1
v -2E-06 -1.514051 -0.142207 1 1 1
v -0.712525 -1.809188 0.51161 1 1 1
v -0.545344 -1.405576 -0.142207 1 1 1
v -1E-06 1.77291 0.51161 1 1 1
v -0.712524 1.63118 0.51161 1 1 1
v -0.545344 -1.405576 -0.142207 1 1 1
v -1.007662 -1.096664 -0.142207 1 1 1
v -0.712525 -1.809188 0.51161 1 1 1
v -1.316574 -1.405575 0.51161 1 1 1
v 1.861913 -0.089005 0.51161 1 1 1
v 1.425046 -0.089005 -0.142207 1 1 1
v 1.720183 -0.801528 0.51161 1 1 1
v 1.316571 -0.634347 -0.142207 1 1 1
v 0.712522 -1.809188 0.51161 1 1 1
v -2E-06 -1.950918 0.51161 1 1 1
v 0.771228 -1.950918 1.28284 1 1 1
v -2E-06 -2.104326 1.28284 1 1 1
v 1.007659 -1.096665 -0.142207 1 1 1
v 1.31657 -1.405576 0.51161 1 1 1
v 1.316571 -0.634347 -0.142207 1 1 1
v 1.720183 -0.801528 0.51161 1 1 1
v -1.720185 -0.801527 0.51161 1 1 1
v -1.861915 -0.089004 0.51161 1 1 1
v 1.00766 0.918656 -0.142207 1 1 1
v 1.316571 0.456337 -0.142207 1 1 1
v 1.316571 1.227567 0.51161 1 1 1
v 1.720183 0.623519 0.51161 1 1 1
v -1.316574 -1.405575 0.51161 1 1 1
v -1.720185 -0.801527 0.51161 1 1 1
v -1.316573 -0.634345 -0.142207 1 1 1
v -1.720185 -0.801527 0.51161 1 1 1
v -1.007662 -1.096664 -0.142207 1 1 1
v -1.316574 -1.405575 0.51161 1 1 1
v 0.545341 1.227567 -0.142207 1 1 1
v 0.712523 1.63118 0.51161 1 1 1
v -1E-06 1.336043 -0.142207 1 1 1
v -1E-06 1.77291 0.51161 1 1 1
v 1.425046 1.336042 1.28284 1 1 1
v 1.720183 0.623519 0.51161 1 1 1
v 2.01532 -0.089005 1.28284 1 1 1
v 1.861913 0.682225 1.28284 1 1 1
v 1.861913 -0.089005 0.51161 1 1 1
v -1.861915 -0.089004 0.51161 1 1 1
v -1.720185 0.62352 0.51161 1 1 1
v -0.949091 -0.71104 1.382523 1 1 1
vt 0.2881757 0.15474361
vt 0.32253015 0.12038916
vt 0.32253015 0.15474361
vt 0.32253015 0.15474361
vt 0.2881757 0.15474361
vt 0.2881757 0.12038916
vt 0.2881757 0.15474361
vt 0.2881757 0.12038916
vt 0.32253015 0.12038916
vt 0.2881757 0.15474361
vt 0.2881757 0.12038916
vt 0.2881757 0.12038916
vt 0.32253015 0.15474361
vt 0.2881757 0.15474361
vt 0.32253015 0.12038916
vt 0.2881757 0.12038916
vt 0.32253015 0.12038916
vt 0.2881757 0.15474361
vt 0.2881757 0.15474361
vt 0.2881757 0.12038916
vt 0.2881757 0.15474361
vt 0.2881757 0.12038916
vt 0.2881757 0.15474361
vt 0.2881757 0.12038916
vt 0.32253015 0.15474361
vt 0.2881757 0.15474361
vt 0.32253015 0.12038916
vt 0.2881757 0.12038916
vt 0.32253015 0.15474361
vt 0.2881757 0.15474361
vt 0.32253015 0.12038916
vt 0.2881757 0.12038916
vt 0.32253015 0.15474361
vt 0.2881757 0.15474361
vt 0.32253015 0.12038916
vt 0.2881757 0.12038916
vt 0.32253015 0.15474361
vt 0.2881757 0.15474361
vt 0.32253015 0.12038916
vt 0.2881757 0.12038916
vt 0.2881757 0.12038916
vt 0.32253015 0.12038916
vt 0.2881757 0.15474361
vt 0.32253015 0.15474361
vt 0.2881757 0.15474361
vt 0.2881757 0.12038916
vt 0.32253015 0.15474361
vt 0.32253015 0.12038916
vt 0.32253015 0.15474361
vt 0.2881757 0.15474361
vt 0.32253015 0.12038916
vt 0.2881757 0.12038916
vt 0.2881757 0.15474361
vt 0.2881757 0.12038916
vt 0.32253015 0.15474361
vt 0.32253015 0.12038916
vt 0.32253015 0.15474361
vt 0.2881757 0.15474361
vt 0.32253015 0.12038916
vt 0.2881757 0.12038916
vt 0.2881757 0.12038916
vt 0.32253015 0.15474361
vt 0.2881757 0.15474361
vt 0.32253015 0.12038916
vt 0.2881757 0.12038916
vt 0.2881757 0.12038916
vt 0.2881757 0.15474361
vt 0.2881757 0.15474361
vt 0.2881757 0.12038916
vt 0.2881757 0.15474361
vt 0.2881757 0.12038916
vt 0.32253015 0.15474361
vt 0.32253015 0.12038916
vt 0.2881757 0.15474361
vt 0.2881757 0.12038916
vt 0.32253015 0.15474361
vt 0.32253015 0.12038916
vt 0.32253015 0.15474361
vt 0.2881757 0.15474361
vt 0.32253015 0.12038916
vt 0.2881757 0.12038916
vt 0.32253015 0.15474361
vt 0.2881757 0.15474361
vt 0.32253015 0.12038916
vt 0.2881757 0.12038916
vt 0.2881757 0.12038916
vt 0.2881757 0.15474361
vt 0.2881757 0.15474361
vt 0.2881757 0.12038916
vt 0.32253015 0.15474361
vt 0.32253015 0.12038916
vt 0.32253015 0.15474361
vt 0.2881757 0.15474361
vt 0.32253015 0.12038916
vt 0.2881757 0.12038916
vt 0.2881757 0.15474361
vt 0.2881757 0.12038916
vt 0.32253015 0.15474361
vt 0.32253015 0.12038916
vt 0.2881757 0.12038916
vt 0.32253015 0.12038916
vt 0.2881757 0.15474361
vt 0.32253015 0.15474361
vt 0.2881757 0.15474361
vt 0.2881757 0.12038916
vt 0.2881757 0.15474361
vt 0.2881757 0.12038916
vt 0.32253015 0.15474361
vt 0.32253015 0.12038916
vt 0.2881757 0.15474361
vt 0.2881757 0.12038916
vt 0.2881757 0.12038916
vt 0.32253015 0.12038916
vt 0.2881757 0.15474361
vt 0.32253015 0.15474361
vt 0.2881757 0.12038916
vt 0.32253015 0.12038916
vt 0.2881757 0.15474361
vt 0.32253015 0.15474361
vt 0.2881757 0.15474361
vt 0.2881757 0.15474361
vt 0.32253015 0.12038916
vt 0.32253015 0.15474361
vt 0.2881757 0.12038916
vt 0.2881757 0.15474361
vt 0.2881757 0.12038916
vt 0.32253015 0.15474361
vn 0.34969673 0.86012775 -0.3713387
vn 0.66386104 0.7473759 -0.026792238
vn 0.7341873 0.6491532 0.19892035
vn -1.6242482E-05 -0.99777466 0.0666764
vn 0.024113381 -0.93392116 -0.356665
vn -0.37517548 -0.83177775 -0.409132
vn -0.66929406 0.6779115 -0.30410773
vn -0.35620376 0.8571242 -0.37209788
vn -0.19230607 0.06674697 0.97906244
vn -0.8281337 0.34296986 -0.4433579
vn -0.66929406 0.6779115 -0.30410773
vn 0.9124902 0.40715307 0.039850306
vn -0.19230607 0.06674697 0.97906244
vn 0.9124902 0.40715307 0.039850306
vn -0.4358382 0.13195965 0.8902987
vn 0.99979085 0.00038933894 0.020448446
vn -0.078632504 0.0005089935 0.9969036
vn 0.30772647 -0.95123434 0.021392934
vn -0.37517548 -0.83177775 -0.409132
vn -0.6531093 -0.6531093 -0.38327056
vn 0.70921785 -0.7048613 0.013439794
vn 0.30772647 -0.95123434 0.021392934
vn 0.938144 -0.34548932 -0.02286645
vn 0.70921785 -0.7048613 0.013439794
vn 0.6653398 -0.6176485 -0.41932473
vn 0.54807186 -0.62599844 -0.5547461
vn 0.40928182 -0.82840264 -0.38241023
vn 0.2668377 -0.78808504 -0.55472475
vn 0.938144 -0.34548932 -0.02286645
vn 0.8514646 -0.3580254 -0.38317847
vn 0.70921785 -0.7048613 0.013439794
vn 0.6653398 -0.6176485 -0.41932473
vn 0.99979085 0.00038933894 0.020448446
vn 0.9374463 -0.039647397 -0.34586477
vn 0.938144 -0.34548932 -0.02286645
vn 0.8514646 -0.3580254 -0.38317847
vn 0.40928182 -0.82840264 -0.38241023
vn 0.2668377 -0.78808504 -0.55472475
vn 0.024113381 -0.93392116 -0.356665
vn -0.055019546 -0.83017087 -0.5547875
vn 0.055064034 0.830223 -0.5547051
vn 0.006691048 0.92411834 -0.38204768
vn -0.26689366 0.78805614 -0.554739
vn -0.35620376 0.8571242 -0.37209788
vn 0.745987 0.36856154 -0.5546764
vn 0.8314801 0 -0.55555457
vn 0.8751882 0.29634514 -0.38239402
vn 0.9374463 -0.039647397 -0.34586477
vn -0.9493748 0.022673313 -0.3133265
vn -0.8314801 0 -0.55555457
vn -0.8281337 0.34296986 -0.4433579
vn -0.7682015 0.31813395 -0.5555693
vn -0.76815957 -0.31813735 -0.5556253
vn -0.8314801 0 -0.55555457
vn -0.86851674 -0.3478282 -0.35312074
vn -0.9493748 0.022673313 -0.3133265
vn 0.34969673 0.86012775 -0.3713387
vn 0.36856154 0.745987 -0.5546764
vn 0.6649456 0.62491924 -0.40905178
vn 0.58795375 0.58795375 -0.5555365
vn 0.6649456 0.62491924 -0.40905178
vn 0.66386104 0.7473759 -0.026792238
vn 0.6649456 0.62491924 -0.40905178
vn 0.9124902 0.40715307 0.039850306
vn 0.8751882 0.29634514 -0.38239402
vn 0.938144 -0.34548932 -0.02286645
vn 0.99979085 0.00038933894 0.020448446
vn 0.006691048 0.92411834 -0.38204768
vn 0.34969673 0.86012775 -0.3713387
vn -0.7682015 0.31813395 -0.5555693
vn -0.5879547 0.58790195 -0.55559015
vn -0.8281337 0.34296986 -0.4433579
vn -0.66929406 0.6779115 -0.30410773
vn 0.6653398 -0.6176485 -0.41932473
vn 0.40928182 -0.82840264 -0.38241023
vn 0.70921785 -0.7048613 0.013439794
vn 0.30772647 -0.95123434 0.021392934
vn -0.66929406 0.6779115 -0.30410773
vn -0.5879547 0.58790195 -0.55559015
vn -0.35620376 0.8571242 -0.37209788
vn -0.26689366 0.78805614 -0.554739
vn 0.024113381 -0.93392116 -0.356665
vn -0.055019546 -0.83017087 -0.5547875
vn -0.37517548 -0.83177775 -0.409132
vn -0.31813735 -0.76815957 -0.5556253
vn 0.006691048 0.92411834 -0.38204768
vn -0.35620376 0.8571242 -0.37209788
vn -0.31813735 -0.76815957 -0.5556253
vn -0.587903 -0.587903 -0.55564386
vn -0.37517548 -0.83177775 -0.409132
vn -0.6531093 -0.6531093 -0.38327056
vn 0.9374463 -0.039647397 -0.34586477
vn 0.8314801 0 -0.55555457
vn 0.8514646 -0.3580254 -0.38317847
vn 0.7459433 -0.36856514 -0.55473274
vn 0.40928182 -0.82840264 -0.38241023
vn 0.024113381 -0.93392116 -0.356665
vn 0.30772647 -0.95123434 0.021392934
vn -1.6242482E-05 -0.99777466 0.0666764
vn 0.54807186 -0.62599844 -0.5547461
vn 0.6653398 -0.6176485 -0.41932473
vn 0.7459433 -0.36856514 -0.55473274
vn 0.8514646 -0.3580254 -0.38317847
vn -0.86851674 -0.3478282 -0.35312074
vn -0.9493748 0.022673313 -0.3133265
vn 0.58795375 0.58795375 -0.5555365
vn 0.745987 0.36856154 -0.5546764
vn 0.6649456 0.62491924 -0.40905178
vn 0.8751882 0.29634514 -0.38239402
vn -0.6531093 -0.6531093 -0.38327056
vn -0.86851674 -0.3478282 -0.35312074
vn -0.76815957 -0.31813735 -0.5556253
vn -0.86851674 -0.3478282 -0.35312074
vn -0.587903 -0.587903 -0.55564386
vn -0.6531093 -0.6531093 -0.38327056
vn 0.36856154 0.745987 -0.5546764
vn 0.34969673 0.86012775 -0.3713387
vn 0.055064034 0.830223 -0.5547051
vn 0.006691048 0.92411834 -0.38204768
vn 0.66386104 0.7473759 -0.026792238
vn 0.8751882 0.29634514 -0.38239402
vn 0.99979085 0.00038933894 0.020448446
vn 0.9124902 0.40715307 0.039850306
vn 0.9374463 -0.039647397 -0.34586477
vn -0.9493748 0.022673313 -0.3133265
vn -0.8281337 0.34296986 -0.4433579
vn -0.078632504 0.0005089935 0.9969036
f 3/3/3 2/2/2 1/1/1
f 6/6/6 5/5/5 4/4/4
f 9/9/9 8/8/8 7/7/7
f 9/9/9 11/11/11 10/10/10
f 9/9/9 12/12/12 3/3/3
f 13/13/13 3/3/3 1/1/1
f 13/13/13 15/15/15 14/14/14
f 14/14/14 15/15/15 16/16/16
f 13/13/13 17/17/17 15/15/15
f 17/17/17 4/4/4 15/15/15
f 6/6/6 4/4/4 17/17/17
f 15/15/15 4/4/4 18/18/18
f 17/17/17 20/20/20 19/19/19
f 15/15/15 22/22/22 21/21/21
f 15/15/15 24/24/24 23/23/23
f 27/27/27 26/26/26 25/25/25
f 28/28/28 26/26/26 27/27/27
f 31/31/31 30/30/30 29/29/29
f 32/32/32 30/30/30 31/31/31
f 35/35/35 34/34/34 33/33/33
f 36/36/36 34/34/34 35/35/35
f 39/39/39 38/38/38 37/37/37
f 40/40/40 38/38/38 39/39/39
f 43/43/43 42/42/42 41/41/41
f 44/44/44 42/42/42 43/43/43
f 47/47/47 46/46/46 45/45/45
f 48/48/48 46/46/46 47/47/47
f 51/51/51 50/50/50 49/49/49
f 52/52/52 50/50/50 51/51/51
f 55/55/55 54/54/54 53/53/53
f 56/56/56 54/54/54 55/55/55
f 59/59/59 58/58/58 57/57/57
f 60/60/60 58/58/58 59/59/59
f 61/61/61 1/1/1 2/2/2
f 64/64/64 63/63/63 62/62/62
f 65/65/65 63/63/63 64/64/64
f 67/67/67 15/15/15 66/66/66
f 9/9/9 69/69/69 68/68/68
f 72/72/72 71/71/71 70/70/70
f 73/73/73 71/71/71 72/72/72
f 76/76/76 75/75/75 74/74/74
f 77/77/77 75/75/75 76/76/76
f 80/80/80 79/79/79 78/78/78
f 81/81/81 79/79/79 80/80/80
f 84/84/84 83/83/83 82/82/82
f 85/85/85 83/83/83 84/84/84
f 87/87/87 9/9/9 86/86/86
f 90/90/90 89/89/89 88/88/88
f 91/91/91 89/89/89 90/90/90
f 94/94/94 93/93/93 92/92/92
f 95/95/95 93/93/93 94/94/94
f 98/98/98 97/97/97 96/96/96
f 99/99/99 97/97/97 98/98/98
f 102/102/102 101/101/101 100/100/100
f 103/103/103 101/101/101 102/102/102
f 17/17/17 105/105/105 104/104/104
f 108/108/108 107/107/107 106/106/106
f 109/109/109 107/107/107 108/108/108
f 111/111/111 110/110/110 17/17/17
f 114/114/114 113/113/113 112/112/112
f 115/115/115 113/113/113 114/114/114
f 118/118/118 117/117/117 116/116/116
f 119/119/119 117/117/117 118/118/118
f 3/3/3 12/12/12 120/120/120
f 123/123/123 122/122/122 121/121/121
f 121/121/121 122/122/122 124/124/124
f 127/127/127 126/126/126 125/125/125
f 9/9/9 126/126/126 127/127/127
