v -0.375000 -0.213748 11.285287
v -0.375000 -0.213748 -1.000000
v -0.375000 0.536252 -1.000000
v -0.375000 0.536252 11.285287
v -0.375000 0.536252 11.285287
v -0.375000 0.536252 -1.000000
v 0.375000 0.536252 -1.000000
v 0.375000 0.536252 11.285287
v 0.375000 0.536252 11.285287
v 0.375000 0.536252 -1.000000
v 0.375000 -0.213748 -1.000000
v 0.375000 -0.213748 11.285287
v 0.375000 -0.213748 11.285287
v 0.375000 -0.213748 -1.000000
v -0.375000 -0.213748 -1.000000
v -0.375000 -0.213748 11.285287
v 0.375000 -0.213748 11.285287
v -0.375000 -0.213748 11.285287
v -0.375000 0.536252 11.285287
v 0.375000 0.536252 11.285287
v -4.000000 -0.321492 11.125001
v -4.000000 -0.321492 7.125001
v -4.000000 -0.071492 7.125001
v -4.000000 -0.071492 11.125001
v -4.000000 -0.071492 11.125001
v -4.000000 -0.071492 7.125001
v 4.000000 -0.071492 7.125001
v 4.000000 -0.071492 11.125001
v 4.000000 -0.071492 11.125001
v 4.000000 -0.071492 7.125001
v 4.000000 -0.321492 7.125001
v 4.000000 -0.321492 11.125001
v 4.000000 -0.321492 11.125001
v 4.000000 -0.321492 7.125001
v -4.000000 -0.321492 7.125001
v -4.000000 -0.321492 11.125001
v 4.000000 -0.321492 11.125001
v -4.000000 -0.321492 11.125001
v -4.000000 -0.071492 11.125001
v 4.000000 -0.071492 11.125001
v 4.407658 0.303508 6.875001
v -4.407656 0.303508 6.875001
v -4.407658 -0.696492 6.875001
v 4.407658 -0.696492 6.875001
v 4.407660 0.303508 7.125001
v 4.407655 -0.696493 7.125001
v -4.407659 -0.696492 7.125001
v -4.407657 0.303508 7.125001
v 4.407658 0.303508 6.875001
v 4.407658 -0.696492 6.875001
v 4.407655 -0.696493 7.125001
v 4.407660 0.303508 7.125001
v 4.407658 -0.696492 6.875001
v -4.407658 -0.696492 6.875001
v -4.407659 -0.696492 7.125001
v 4.407655 -0.696493 7.125001
v -4.407658 -0.696492 6.875001
v -4.407656 0.303508 6.875001
v -4.407657 0.303508 7.125001
v -4.407659 -0.696492 7.125001
v 4.407660 0.303508 7.125001
v -4.407657 0.303508 7.125001
v -4.407656 0.303508 6.875001
v 4.407658 0.303508 6.875001
vt 0.222819999 0.682133019
vt 0.222819999 0.677787006
vt 0.221950993 0.677787006
vt 0.221950993 0.682133019
vt 0.221950993 0.682133019
vt 0.221950993 0.677787006
vt 0.221082002 0.677787006
vt 0.221082002 0.682133019
vt 0.223689005 0.682133019
vt 0.223689005 0.677787006
vt 0.222819999 0.677787006
vt 0.222819999 0.682133019
vt 0.224557996 0.682133019
vt 0.224557996 0.677787006
vt 0.223689005 0.677787006
vt 0.223689005 0.682133019
vt 0.224557996 0.677787006
vt 0.224557996 0.678053021
vt 0.225427002 0.678053021
vt 0.225427002 0.677787006
vt 0.724129021 0.752138972
vt 0.724129021 0.751928985
vt 0.724117994 0.751928985
vt 0.724117994 0.752138972
vt 0.723655999 0.752138972
vt 0.723828018 0.752138972
vt 0.723828018 0.751718998
vt 0.723655999 0.751718998
vt 0.724117994 0.751718998
vt 0.724117994 0.751928985
vt 0.724129021 0.751928985
vt 0.724129021 0.751718998
vt 0.725968003 0.863022983
vt 0.725968003 0.752846003
vt 0.614041984 0.752846003
vt 0.614041984 0.863022983
vt 0.724117994 0.752138972
vt 0.724117994 0.751718998
vt 0.724107027 0.751718998
vt 0.724107027 0.752138972
vt 0.130482003 0.272372007
vt 0.130482003 0.27650401
vt 0.130866006 0.27650401
vt 0.130866006 0.272372007
vt 0.130482003 0.272372007
vt 0.130098999 0.272372007
vt 0.130098999 0.27650401
vt 0.130482003 0.27650401
vt 0.128659993 0.276591003
vt 0.128659993 0.276122004
vt 0.128564 0.276122004
vt 0.128564 0.276591003
vt 0.131057993 0.27650401
vt 0.131057993 0.272372007
vt 0.130961999 0.272372007
vt 0.130961999 0.27650401
vt 0.130098999 0.276591003
vt 0.130098999 0.276122004
vt 0.130003005 0.276122004
vt 0.130003005 0.276591003
vt 0.130866006 0.272372007
vt 0.130866006 0.27650401
vt 0.130961999 0.27650401
vt 0.130961999 0.272372007
vn -1.000000 0.000000 0.000000
vn -1.000000 0.000000 0.000000
vn -1.000000 0.000000 0.000000
vn -1.000000 0.000000 0.000000
vn 0.000000 1.000000 -0.000000
vn 0.000000 1.000000 -0.000000
vn 0.000000 1.000000 -0.000000
vn 0.000000 1.000000 -0.000000
vn 1.000000 0.000000 0.000000
vn 1.000000 0.000000 0.000000
vn 1.000000 0.000000 0.000000
vn 1.000000 0.000000 0.000000
vn 0.000000 -1.000000 0.000000
vn 0.000000 -1.000000 0.000000
vn 0.000000 -1.000000 0.000000
vn 0.000000 -1.000000 0.000000
vn 0.000000 0.000000 1.000000
vn 0.000000 0.000000 1.000000
vn 0.000000 0.000000 1.000000
vn 0.000000 0.000000 1.000000
vn -1.000000 0.000000 0.000000
vn -1.000000 0.000000 0.000000
vn -1.000000 0.000000 0.000000
vn -1.000000 0.000000 0.000000
vn 0.000000 1.000000 -0.000000
vn 0.000000 1.000000 -0.000000
vn 0.000000 1.000000 -0.000000
vn 0.000000 1.000000 -0.000000
vn 1.000000 0.000000 0.000000
vn 1.000000 0.000000 0.000000
vn 1.000000 0.000000 0.000000
vn 1.000000 0.000000 0.000000
vn 0.000000 -1.000000 0.000000
vn 0.000000 -1.000000 0.000000
vn 0.000000 -1.000000 0.000000
vn 0.000000 -1.000000 0.000000
vn 0.000000 0.000000 1.000000
vn 0.000000 0.000000 1.000000
vn 0.000000 0.000000 1.000000
vn 0.000000 0.000000 1.000000
vn 0.000000 -0.000000 -1.000000
vn 0.000000 -0.000000 -1.000000
vn 0.000000 -0.000000 -1.000000
vn 0.000000 -0.000000 -1.000000
vn 0.000000 0.000000 1.000000
vn 0.000000 0.000000 1.000000
vn 0.000000 0.000000 1.000000
vn 0.000000 0.000000 1.000000
vn 1.000000 0.000000 0.000000
vn 1.000000 0.000000 0.000000
vn 1.000000 0.000000 0.000000
vn 1.000000 0.000000 0.000000
vn 0.000000 -1.000000 0.000000
vn 0.000000 -1.000000 0.000000
vn 0.000000 -1.000000 0.000000
vn 0.000000 -1.000000 0.000000
vn -1.000000 0.000000 0.000000
vn -1.000000 0.000000 0.000000
vn -1.000000 0.000000 0.000000
vn -1.000000 0.000000 0.000000
vn 0.000000 1.000000 -0.000000
vn 0.000000 1.000000 -0.000000
vn 0.000000 1.000000 -0.000000
vn 0.000000 1.000000 -0.000000
f 3/3/3 2/2/2 1/1/1
f 4/4/4 3/3/3 1/1/1
f 7/7/7 6/6/6 5/5/5
f 8/8/8 7/7/7 5/5/5
f 11/11/11 10/10/10 9/9/9
f 12/12/12 11/11/11 9/9/9
f 15/15/15 14/14/14 13/13/13
f 16/16/16 15/15/15 13/13/13
f 19/19/19 18/18/18 17/17/17
f 20/20/20 19/19/19 17/17/17
f 23/23/23 22/22/22 21/21/21
f 24/24/24 23/23/23 21/21/21
f 27/27/27 26/26/26 25/25/25
f 28/28/28 27/27/27 25/25/25
f 31/31/31 30/30/30 29/29/29
f 32/32/32 31/31/31 29/29/29
f 35/35/35 34/34/34 33/33/33
f 36/36/36 35/35/35 33/33/33
f 39/39/39 38/38/38 37/37/37
f 40/40/40 39/39/39 37/37/37
f 43/43/43 42/42/42 41/41/41
f 44/44/44 43/43/43 41/41/41
f 47/47/47 46/46/46 45/45/45
f 48/48/48 47/47/47 45/45/45
f 51/51/51 50/50/50 49/49/49
f 52/52/52 51/51/51 49/49/49
f 55/55/55 54/54/54 53/53/53
f 56/56/56 55/55/55 53/53/53
f 59/59/59 58/58/58 57/57/57
f 60/60/60 59/59/59 57/57/57
f 63/63/63 62/62/62 61/61/61
f 64/64/64 63/63/63 61/61/61
