# generated by LodBaker -- retail ships no LODGroup for this prop
v -4 -0.071492 7.125 1 1 1
v -4 -0.321492 11.125 1 1 1
v -4 -0.321492 7.125 1 1 1
v -4 -0.071492 11.125 1 1 1
v 4 -0.071492 7.125 1 1 1
v -4 -0.071492 11.125 1 1 1
v -4 -0.071492 7.125 1 1 1
v 4 -0.071492 11.125 1 1 1
v 4 -0.321492 7.125 1 1 1
v 4 -0.071492 11.125 1 1 1
v 4 -0.071492 7.125 1 1 1
v 4 -0.321492 11.125 1 1 1
v -4 -0.321492 7.125 1 1 1
v 4 -0.321492 11.125 1 1 1
v 4 -0.321492 7.125 1 1 1
v -4 -0.321492 11.125 1 1 1
v -4 -0.071492 11.125 1 1 1
v 4 -0.321492 11.125 1 1 1
v -4 -0.321492 11.125 1 1 1
v 4 -0.071492 11.125 1 1 1
v -4.407658 -0.696492 6.875 1 1 1
v 4.407658 0.303508 6.875 1 1 1
v -4.407656 0.303508 6.875 1 1 1
v 4.407658 -0.696492 6.875 1 1 1
v -4.407659 -0.696492 7.125 1 1 1
v 4.40766 0.303508 7.125 1 1 1
v 4.407655 -0.696493 7.125 1 1 1
v -4.407657 0.303508 7.125 1 1 1
v 4.407655 -0.696493 7.125 1 1 1
v 4.407658 0.303508 6.875 1 1 1
v 4.407658 -0.696492 6.875 1 1 1
v 4.40766 0.303508 7.125 1 1 1
v -4.407659 -0.696492 7.125 1 1 1
v 4.407658 -0.696492 6.875 1 1 1
v -4.407658 -0.696492 6.875 1 1 1
v 4.407655 -0.696493 7.125 1 1 1
v -4.407657 0.303508 7.125 1 1 1
v -4.407658 -0.696492 6.875 1 1 1
v -4.407656 0.303508 6.875 1 1 1
v -4.407659 -0.696492 7.125 1 1 1
v -4.407656 0.303508 6.875 1 1 1
v 4.40766 0.303508 7.125 1 1 1
v -4.407657 0.303508 7.125 1 1 1
v 4.407658 0.303508 6.875 1 1 1
v 3.263848 -0.195437 9.603353 1 1 1
v 3.263848 -0.395437 9.203316 1 1 1
v 3.263848 -0.395437 9.603353 1 1 1
v 3.263848 -0.195437 9.203316 1 1 1
v 2.014419 -0.195437 9.603354 1 1 1
v 3.263848 -0.395437 9.603353 1 1 1
v 2.014419 -0.395437 9.603354 1 1 1
v 3.263848 -0.195437 9.603353 1 1 1
v 1.355715 -0.395437 9.403337 1 1 1
v 2.014418 -0.195437 8.842955 1 1 1
v 1.355715 -0.195437 9.403337 1 1 1
v 2.014418 -0.395437 8.842955 1 1 1
v 2.014419 -0.395437 9.203318 1 1 1
v 3.263848 -0.395437 9.603353 1 1 1
v 3.263848 -0.395437 9.203316 1 1 1
v 1.355715 -0.395437 9.403337 1 1 1
v 2.014418 -0.395437 8.842955 1 1 1
v 2.014419 -0.395437 9.603354 1 1 1
v 2.01442 -0.395437 9.963717 1 1 1
v 2.01442 -0.195437 9.963717 1 1 1
v 2.014419 -0.395437 9.603354 1 1 1
v 2.01442 -0.395437 9.963717 1 1 1
v 2.014419 -0.195437 9.603354 1 1 1
v 3.263848 -0.195437 9.203316 1 1 1
v 2.014419 -0.395437 9.203318 1 1 1
v 3.263848 -0.395437 9.203316 1 1 1
v 2.014419 -0.195437 9.203318 1 1 1
v 2.014418 -0.395437 8.842955 1 1 1
v 2.014419 -0.195437 9.203318 1 1 1
v 2.014418 -0.195437 8.842955 1 1 1
v 2.014419 -0.395437 9.203318 1 1 1
v 2.01442 -0.395437 9.963717 1 1 1
v 2.01442 -0.195437 9.963717 1 1 1
v 1.355715 -0.195437 10.088835 1 1 1
v 1.355715 -0.395437 10.488871 1 1 1
v 1.355715 -0.395437 10.088835 1 1 1
v 1.355715 -0.195437 10.488871 1 1 1
v 2.605144 -0.195437 10.088835 1 1 1
v 1.355715 -0.395437 10.088835 1 1 1
v 2.605144 -0.395437 10.088835 1 1 1
v 1.355715 -0.195437 10.088835 1 1 1
v 3.263848 -0.395437 10.288853 1 1 1
v 2.605144 -0.195437 10.849235 1 1 1
v 3.263848 -0.195437 10.288853 1 1 1
v 2.605144 -0.395437 10.849235 1 1 1
v 2.605144 -0.395437 10.488871 1 1 1
v 2.605144 -0.395437 10.849235 1 1 1
v 3.263848 -0.395437 10.288853 1 1 1
v 1.355715 -0.395437 10.488871 1 1 1
v 1.355715 -0.395437 10.088835 1 1 1
v 2.605144 -0.395437 10.088835 1 1 1
v 2.605144 -0.395437 9.728471 1 1 1
v 2.605144 -0.195437 9.728471 1 1 1
v 2.605144 -0.395437 10.088835 1 1 1
v 2.605144 -0.395437 9.728471 1 1 1
v 2.605144 -0.195437 10.088835 1 1 1
v 1.355715 -0.195437 10.488871 1 1 1
v 2.605144 -0.395437 10.488871 1 1 1
v 1.355715 -0.395437 10.488871 1 1 1
v 2.605144 -0.195437 10.488871 1 1 1
v 2.605144 -0.395437 10.849235 1 1 1
v 2.605144 -0.195437 10.488871 1 1 1
v 2.605144 -0.195437 10.849235 1 1 1
v 2.605144 -0.395437 10.488871 1 1 1
v 2.605144 -0.395437 9.728471 1 1 1
v 2.605144 -0.195437 9.728471 1 1 1
v 0.1875 0.486012 11.285286 1 1 1
v -0.1875 -0.163507 -1 1 1 1
v 0.32476 0.348752 -1 1 1 1
v -0.1875 -0.163507 11.285286 1 1 1
v 0.1875 0.486012 11.285286 1 1 1
v 0.324759 -0.026248 11.285286 1 1 1
v 0.1875 -0.163507 -1 1 1 1
v 0.324759 -0.026248 11.285286 1 1 1
v -0.1875 -0.163507 11.285286 1 1 1
v 0.1875 0.486012 11.285286 1 1 1
v 0.324759 -0.026248 11.285286 1 1 1
v -0.1875 -0.163507 11.285286 1 1 1
vt 0.724118 0.24807107
vt 0.7241287 0.2478612
vt 0.7241287 0.24807107
vt 0.724118 0.2478612
vt 0.7238282 0.248281
vt 0.7236564 0.2478612
vt 0.7238282 0.2478612
vt 0.7236564 0.248281
vt 0.7241287 0.24807107
vt 0.724118 0.248281
vt 0.724118 0.24807107
vt 0.7241287 0.248281
vt 0.61404157 0.2471543
vt 0.72596776 0.13697696
vt 0.72596776 0.24715436
vt 0.61404157 0.13697696
vt 0.72410727 0.248281
vt 0.724118 0.2478612
vt 0.724118 0.248281
vt 0.72410727 0.2478612
vt 0.13086575 0.7234955
vt 0.1304822 0.72762847
vt 0.1304822 0.7234955
vt 0.13086575 0.72762847
vt 0.13009858 0.7234955
vt 0.13048214 0.72762847
vt 0.13009858 0.72762847
vt 0.1304822 0.7234955
vt 0.12856418 0.7238778
vt 0.12866008 0.72340894
vt 0.12866008 0.7238778
vt 0.12856418 0.72340894
vt 0.13096166 0.72762847
vt 0.13105756 0.7234955
vt 0.13105756 0.72762847
vt 0.13096166 0.7234955
vt 0.13000268 0.7238778
vt 0.13009858 0.72340894
vt 0.13009858 0.7238778
vt 0.13000268 0.72340894
vt 0.13096166 0.7234955
vt 0.13086575 0.72762847
vt 0.13086581 0.7234955
vt 0.1309616 0.72762847
vt 0.8018217 0.70584613
vt 0.82024443 0.66398096
vt 0.82024443 0.70584613
vt 0.8018217 0.66398096
vt 0.82024443 0.70584613
vt 0.8018217 0.8054392
vt 0.8018217 0.70584613
vt 0.82024443 0.8054392
vt 0.82024443 0.7149324
vt 0.83866715 0.6459967
vt 0.83866715 0.7149324
vt 0.82024443 0.64599663
vt 0.7435346 0.7450044
vt 0.73914593 0.60776657
vt 0.783399 0.6193685
vt 0.70039153 0.8054392
vt 0.783399 0.75545573
vt 0.69928163 0.73340243
vt 0.6594173 0.7229511
vt 0.8570899 0.6772191
vt 0.83866715 0.7149324
vt 0.83866715 0.6772191
vt 0.8570899 0.7149324
vt 0.8018217 0.674682
vt 0.783399 0.8054392
vt 0.783399 0.67468196
vt 0.8018217 0.8054392
vt 0.82024443 0.6262677
vt 0.8018216 0.66398096
vt 0.8018217 0.6262677
vt 0.82024443 0.66398096
vt 0.82024443 0.8054392
vt 0.83866715 0.8054392
vt 0.8018217 0.70584613
vt 0.82024443 0.66398096
vt 0.82024443 0.70584613
vt 0.8018217 0.66398096
vt 0.82024443 0.70584613
vt 0.8018217 0.8054392
vt 0.8018217 0.70584613
vt 0.82024443 0.8054392
vt 0.82024443 0.7149324
vt 0.83866715 0.6459967
vt 0.83866715 0.7149324
vt 0.82024443 0.64599663
vt 0.7435346 0.7450044
vt 0.783399 0.75545573
vt 0.70039153 0.8054392
vt 0.783399 0.6193685
vt 0.73914593 0.60776657
vt 0.69928163 0.73340243
vt 0.6594173 0.7229511
vt 0.8570899 0.6772191
vt 0.83866715 0.7149324
vt 0.83866715 0.6772191
vt 0.8570899 0.7149324
vt 0.8018217 0.674682
vt 0.783399 0.8054392
vt 0.783399 0.67468196
vt 0.8018217 0.8054392
vt 0.82024443 0.6262677
vt 0.8018216 0.66398096
vt 0.8018217 0.6262677
vt 0.82024443 0.66398096
vt 0.82024443 0.8054392
vt 0.83866715 0.8054392
vt 0.22635454 0.26413333
vt 0.27887678 0.35807854
vt 0.266919 0.26413333
vt 0.26136938 0.26413333
vt 0.26136938 0.35807854
vt 0.27887678 0.35807854
vt 0.29083455 0.35807854
vt 0.29638416 0.26413333
vt 0.27887678 0.26413333
vt 0.32029974 0.35605085
vt 0.30513787 0.35807854
vt 0.29638416 0.35456645
vn -1 0 -1.5259022E-05
vn -1 0 -1.5259022E-05
vn -1 0 -1.5259022E-05
vn -1 0 -1.5259022E-05
vn 0 1 -1.5259022E-05
vn 0 1 -1.5259022E-05
vn 0 1 -1.5259022E-05
vn 0 1 -1.5259022E-05
vn 1 0 -1.5259022E-05
vn 1 0 -1.5259022E-05
vn 1 0 -1.5259022E-05
vn 1 0 -1.5259022E-05
vn 0 -1 -1.5259022E-05
vn 0 -1 -1.5259022E-05
vn 0 -1 -1.5259022E-05
vn 0 -1 -1.5259022E-05
vn -1.5259255E-05 -1.5259255E-05 1
vn -1.5259255E-05 -1.5259255E-05 1
vn -1.5259255E-05 -1.5259255E-05 1
vn -1.5259255E-05 -1.5259255E-05 1
vn 0 0 -1
vn 0 0 -1
vn 0 0 -1
vn 0 0 -1
vn -1.5259255E-05 -1.5259255E-05 1
vn -1.5259255E-05 -1.5259255E-05 1
vn -1.5259255E-05 -1.5259255E-05 1
vn -1.5259255E-05 -1.5259255E-05 1
vn 1 0 -1.5259022E-05
vn 1 0 -1.5259022E-05
vn 1 0 -1.5259022E-05
vn 1 0 -1.5259022E-05
vn 0 -1 -1.5259022E-05
vn 0 -1 -1.5259022E-05
vn 0 -1 -1.5259022E-05
vn 0 -1 -1.5259022E-05
vn -1 0 -1.5259022E-05
vn -1 0 -1.5259022E-05
vn -1 0 -1.5259022E-05
vn -1 0 -1.5259022E-05
vn 0 1 -1.5259022E-05
vn 0 1 -1.5259022E-05
vn 0 1 -1.5259022E-05
vn 0 1 -1.5259022E-05
vn 1 0 -1.5259022E-05
vn 1 0 -1.5259022E-05
vn 1 0 -1.5259022E-05
vn 1 0 -1.5259022E-05
vn -1.5259255E-05 -1.5259255E-05 1
vn -1.5259255E-05 -1.5259255E-05 1
vn -1.5259255E-05 -1.5259255E-05 1
vn -1.5259255E-05 -1.5259255E-05 1
vn -0.6480024 0 -0.7616383
vn -0.6480024 0 -0.7616383
vn -0.6480024 0 -0.7616383
vn -0.6480024 0 -0.7616383
vn 0 -1 -1.5259022E-05
vn 0 -1 -1.5259022E-05
vn 0 -1 -1.5259022E-05
vn 0 -1 -1.5259022E-05
vn 0 -1 -1.5259022E-05
vn 0 -1 -1.5259022E-05
vn 0 -1 -1.5259022E-05
vn 1 0 -1.5259022E-05
vn 1 0 -1.5259022E-05
vn 1 0 -1.5259022E-05
vn 1 0 -1.5259022E-05
vn 0 0 -1
vn 0 0 -1
vn 0 0 -1
vn 0 0 -1
vn 1 0 -1.5259022E-05
vn 1 0 -1.5259022E-05
vn 1 0 -1.5259022E-05
vn 1 0 -1.5259022E-05
vn -0.6479899 -2.150971E-05 0.7616489
vn -0.6479899 -2.150971E-05 0.7616489
vn -1 0 -1.5259022E-05
vn -1 0 -1.5259022E-05
vn -1 0 -1.5259022E-05
vn -1 0 -1.5259022E-05
vn 0 0 -1
vn 0 0 -1
vn 0 0 -1
vn 0 0 -1
vn 0.64794374 -2.1509604E-05 0.7616882
vn 0.64794374 -2.1509604E-05 0.7616882
vn 0.64794374 -2.1509604E-05 0.7616882
vn 0.64794374 -2.1509604E-05 0.7616882
vn 0 -1 -1.5259022E-05
vn 0 -1 -1.5259022E-05
vn 0 -1 -1.5259022E-05
vn 0 -1 -1.5259022E-05
vn 0 -1 -1.5259022E-05
vn 0 -1 -1.5259022E-05
vn 0 -1 -1.5259022E-05
vn -1 0 -1.5259022E-05
vn -1 0 -1.5259022E-05
vn -1 0 -1.5259022E-05
vn -1 0 -1.5259022E-05
vn -1.5259255E-05 -1.5259255E-05 1
vn -1.5259255E-05 -1.5259255E-05 1
vn -1.5259255E-05 -1.5259255E-05 1
vn -1.5259255E-05 -1.5259255E-05 1
vn -1 0 -1.5259022E-05
vn -1 0 -1.5259022E-05
vn -1 0 -1.5259022E-05
vn -1 0 -1.5259022E-05
vn 0.6480024 0 -0.7616383
vn 0.6480024 0 -0.7616383
vn 0.49999732 0.8660269 2.0844192E-05
vn -0.49999073 -0.8660307 -6.253436E-05
vn 0 0 -1
vn -0.49999073 -0.8660307 -6.253436E-05
vn 0.49999732 0.8660269 2.0844192E-05
vn 0.86601275 -0.50002205 -2.0844354E-05
vn 0.49997267 -0.8660412 -2.0844036E-05
vn 0.86601275 -0.50002205 -2.0844354E-05
vn -0.49999073 -0.8660307 -6.253436E-05
vn -1.5259255E-05 -1.5259255E-05 1
vn -1.5259255E-05 -1.5259255E-05 1
vn -1.5259255E-05 -1.5259255E-05 1
f 3/3/3 2/2/2 1/1/1
f 1/1/1 2/2/2 4/4/4
f 7/7/7 6/6/6 5/5/5
f 5/5/5 6/6/6 8/8/8
f 11/11/11 10/10/10 9/9/9
f 9/9/9 10/10/10 12/12/12
f 15/15/15 14/14/14 13/13/13
f 13/13/13 14/14/14 16/16/16
f 19/19/19 18/18/18 17/17/17
f 17/17/17 18/18/18 20/20/20
f 23/23/23 22/22/22 21/21/21
f 21/21/21 22/22/22 24/24/24
f 27/27/27 26/26/26 25/25/25
f 25/25/25 26/26/26 28/28/28
f 31/31/31 30/30/30 29/29/29
f 29/29/29 30/30/30 32/32/32
f 35/35/35 34/34/34 33/33/33
f 33/33/33 34/34/34 36/36/36
f 39/39/39 38/38/38 37/37/37
f 37/37/37 38/38/38 40/40/40
f 43/43/43 42/42/42 41/41/41
f 41/41/41 42/42/42 44/44/44
f 47/47/47 46/46/46 45/45/45
f 45/45/45 46/46/46 48/48/48
f 51/51/51 50/50/50 49/49/49
f 49/49/49 50/50/50 52/52/52
f 55/55/55 54/54/54 53/53/53
f 53/53/53 54/54/54 56/56/56
f 59/59/59 58/58/58 57/57/57
f 60/60/60 57/57/57 58/58/58
f 57/57/57 60/60/60 61/61/61
f 62/62/62 60/60/60 58/58/58
f 63/63/63 60/60/60 62/62/62
f 66/66/66 65/65/65 64/64/64
f 64/64/64 65/65/65 67/67/67
f 70/70/70 69/69/69 68/68/68
f 68/68/68 69/69/69 71/71/71
f 74/74/74 73/73/73 72/72/72
f 72/72/72 73/73/73 75/75/75
f 53/53/53 76/76/76 55/55/55
f 55/55/55 76/76/76 77/77/77
f 80/80/80 79/79/79 78/78/78
f 78/78/78 79/79/79 81/81/81
f 84/84/84 83/83/83 82/82/82
f 82/82/82 83/83/83 85/85/85
f 88/88/88 87/87/87 86/86/86
f 86/86/86 87/87/87 89/89/89
f 92/92/92 91/91/91 90/90/90
f 90/90/90 93/93/93 92/92/92
f 93/93/93 94/94/94 92/92/92
f 94/94/94 95/95/95 92/92/92
f 96/96/96 92/92/92 95/95/95
f 99/99/99 98/98/98 97/97/97
f 97/97/97 98/98/98 100/100/100
f 103/103/103 102/102/102 101/101/101
f 101/101/101 102/102/102 104/104/104
f 107/107/107 106/106/106 105/105/105
f 105/105/105 106/106/106 108/108/108
f 86/86/86 109/109/109 88/88/88
f 88/88/88 109/109/109 110/110/110
f 113/113/113 112/112/112 111/111/111
f 111/111/111 112/112/112 114/114/114
f 116/116/116 113/113/113 115/115/115
f 117/117/117 113/113/113 116/116/116
f 119/119/119 117/117/117 118/118/118
f 112/112/112 117/117/117 119/119/119
f 122/122/122 121/121/121 120/120/120
f 112/112/112 113/113/113 117/117/117
