v -0.375000 -0.213748 11.285286
v -0.375000 -0.213748 -1.000000
v -0.375000 0.536252 -1.000000
v -0.375000 0.536252 11.285286
v -0.375000 0.536252 11.285286
v -0.375000 0.536252 -1.000000
v 0.375000 0.536252 -1.000000
v 0.375000 0.536252 11.285286
v 0.375000 0.536252 11.285286
v 0.375000 0.536252 -1.000000
v 0.375000 -0.213748 -1.000000
v 0.375000 -0.213748 11.285286
v 0.375000 -0.213748 11.285286
v 0.375000 -0.213748 -1.000000
v -0.375000 -0.213748 -1.000000
v -0.375000 -0.213748 11.285286
v 0.375000 -0.213748 11.285286
v -0.375000 -0.213748 11.285286
v -0.375000 0.536252 11.285286
v 0.375000 0.536252 11.285286
v -1.253967 -0.400394 8.095368
v -1.253967 -0.400394 7.970868
v -1.405467 -0.400394 8.045868
v -1.634967 -0.400394 8.137368
v -1.415967 -0.400394 7.925868
v -1.501467 -0.400394 8.147868
v -1.634967 -0.400395 8.492868
v -1.501467 -0.400395 8.492868
v 0.391694 -0.223822 8.541282
v 0.391694 -0.423822 8.541282
v 3.340152 -0.423822 7.987569
v 3.340152 -0.223822 7.987569
v -1.232967 -0.400395 9.439368
v -1.232967 -0.400396 10.462368
v -1.099467 -0.400396 10.462368
v -1.099467 -0.400395 9.439368
v -2.506467 -0.400395 8.962368
v -2.506467 -0.400394 7.939368
v -2.653467 -0.400394 7.939368
v -2.653467 -0.400395 8.384869
v -2.653467 -0.400395 8.516869
v -2.653467 -0.400395 8.962368
v -3.226467 -0.400395 8.384869
v -3.226467 -0.400395 8.516869
v -3.373467 -0.400395 8.962368
v -3.226467 -0.400395 8.962368
v -3.373467 -0.400394 7.939368
v -3.226467 -0.400394 7.939368
v -1.288467 -0.400395 8.612868
v -1.288467 -0.400395 8.492868
v -1.751967 -0.400395 8.492868
v -1.751967 -0.400395 8.507868
v -1.501467 -0.400395 8.612868
v -1.501467 -0.400395 8.752368
v -0.233968 -0.400396 10.070868
v -0.233968 -0.400396 9.938869
v -0.428967 -0.400396 10.009368
v -0.431967 -0.400396 10.126369
v -0.517467 -0.400396 9.947868
v -0.653967 -0.400396 9.943368
v -0.353967 -0.400396 9.812868
v -0.202467 -0.400396 9.623868
v -0.338967 -0.400396 9.619369
v -0.437967 -0.400396 9.542869
v -0.424468 -0.400395 9.425868
v -0.658468 -0.400396 9.487369
v -0.658468 -0.400396 9.631369
v -0.794967 -0.400396 10.337869
v -0.829467 -0.400396 10.132368
v -0.892467 -0.400396 10.132368
v -0.926967 -0.400396 10.337869
v -0.794967 -0.400396 10.513369
v -0.926967 -0.400396 10.513369
v -1.501467 -0.400395 8.492868
v -1.634967 -0.400395 8.492868
v -1.751967 -0.400395 8.492868
v -1.288467 -0.400395 8.492868
v -1.990467 -0.400396 9.694368
v -1.990467 -0.400396 10.112868
v -1.856967 -0.400396 10.112868
v -1.856967 -0.400396 9.685369
v -1.718967 -0.400396 9.536868
v -1.757967 -0.400395 9.425868
v -1.558467 -0.400396 9.524868
v -1.558467 -0.400396 9.631369
v -1.424967 -0.400396 10.112868
v -1.558467 -0.400396 10.112868
v -1.558467 -0.400395 9.439368
v -1.424967 -0.400395 9.439368
v -2.104467 -0.400396 9.478368
v -2.233467 -0.400395 9.425868
v -2.335467 -0.400396 9.494868
v -2.174967 -0.400396 9.523368
v -2.104467 -0.400396 9.559368
v -2.450967 -0.400396 9.520369
v -2.516967 -0.400395 9.425868
v -2.681967 -0.400396 9.590868
v -2.546967 -0.400396 9.614868
v -2.452467 -0.400396 9.803868
v -2.333967 -0.400396 9.575869
v -2.200467 -0.400396 9.557868
v -2.333967 -0.400396 9.772368
v -2.200467 -0.400396 9.904368
v -2.333967 -0.400396 9.845868
v -2.333967 -0.400396 9.881868
v -2.455467 -0.400396 10.000368
v -2.444967 -0.400396 10.126369
v -2.668467 -0.400396 10.034868
v -2.668467 -0.400396 9.889368
v -2.735967 -0.400396 10.168368
v -3.080967 -0.400396 9.881868
v -3.233967 -0.400396 9.881868
v -3.067467 -0.400396 10.013868
v -2.887467 -0.400396 10.174368
v -3.061467 -0.400396 10.330368
v -3.061467 -0.400396 10.462368
v -3.233967 -0.400396 10.330368
v -3.380967 -0.400396 10.462368
v -3.233967 -0.400396 10.013868
v -3.380967 -0.400395 9.439368
v -3.233967 -0.400395 9.439368
v -0.766467 -0.400395 8.570868
v -0.766467 -0.400395 8.438869
v -0.961467 -0.400395 8.509368
v -0.964467 -0.400395 8.626369
v -1.049967 -0.400395 8.447868
v -1.186467 -0.400395 8.443368
v -0.886467 -0.400394 8.312868
v -0.734967 -0.400394 8.123868
v -0.871467 -0.400394 8.119369
v -0.970467 -0.400394 8.042868
v -0.956967 -0.400394 7.925868
v -1.190967 -0.400394 7.987368
v -1.190967 -0.400394 8.131369
v -2.735967 -0.400396 10.168368
v -2.735967 -0.200396 10.168368
v -3.080967 -0.200396 9.881868
v -3.080967 -0.400396 9.881868
v -3.233967 -0.200396 9.881868
v -3.233967 -0.400396 9.881868
v -3.233967 -0.400396 9.881868
v -3.233967 -0.200396 9.881868
v -3.233967 -0.200395 9.439368
v -3.233967 -0.400395 9.439368
v -3.233967 -0.400395 9.439368
v -3.233967 -0.200395 9.439368
v -3.380967 -0.200395 9.439368
v -3.380967 -0.400395 9.439368
v -3.380967 -0.400395 9.439368
v -3.380967 -0.200395 9.439368
v -3.380967 -0.200396 10.462368
v -3.380967 -0.400396 10.462368
v -3.380967 -0.400396 10.462368
v -3.380967 -0.200396 10.462368
v -3.061467 -0.200396 10.462368
v -3.061467 -0.400396 10.462368
v -3.061467 -0.400396 10.462368
v -3.061467 -0.200396 10.462368
v -2.735967 -0.200396 10.168368
v -2.735967 -0.400396 10.168368
v -3.067467 -0.400396 10.013868
v -2.887467 -0.200396 10.174368
v -2.887467 -0.400396 10.174368
v -3.067467 -0.200396 10.013868
v -3.233967 -0.400396 10.013868
v -3.233967 -0.200396 10.013868
v -2.887467 -0.400396 10.174368
v -2.887467 -0.200396 10.174368
v -3.061467 -0.200396 10.330368
v -3.061467 -0.400396 10.330368
v -3.233967 -0.200396 10.330368
v -3.233967 -0.400396 10.330368
v -3.233967 -0.400396 10.330368
v -3.233967 -0.200396 10.330368
v -3.233967 -0.200396 10.013868
v -3.233967 -0.400396 10.013868
v -2.233467 -0.400395 9.425868
v -2.233467 -0.200395 9.425868
v -2.335467 -0.200396 9.494868
v -2.335467 -0.400396 9.494868
v -2.335467 -0.400396 9.494868
v -2.335467 -0.200396 9.494868
v -2.516967 -0.200395 9.425868
v -2.516967 -0.400395 9.425868
v -2.516967 -0.400395 9.425868
v -2.516967 -0.200395 9.425868
v -2.681967 -0.200396 9.590868
v -2.681967 -0.400396 9.590868
v -2.681967 -0.400396 9.590868
v -2.681967 -0.200396 9.590868
v -2.452467 -0.200396 9.803868
v -2.452467 -0.400396 9.803868
v -2.333967 -0.200396 9.845868
v -2.333967 -0.400396 9.845868
v -2.333967 -0.400396 9.845868
v -2.333967 -0.200396 9.845868
v -2.333967 -0.200396 9.881868
v -2.333967 -0.400396 9.881868
v -2.333967 -0.400396 9.881868
v -2.333967 -0.200396 9.881868
v -2.455467 -0.200396 10.000368
v -2.455467 -0.400396 10.000368
v -2.455467 -0.400396 10.000368
v -2.455467 -0.200396 10.000368
v -2.668467 -0.200396 9.889368
v -2.668467 -0.400396 9.889368
v -2.668467 -0.400396 9.889368
v -2.668467 -0.200396 9.889368
v -2.668467 -0.200396 10.034868
v -2.668467 -0.400396 10.034868
v -2.668467 -0.400396 10.034868
v -2.668467 -0.200396 10.034868
v -2.444967 -0.200396 10.126369
v -2.444967 -0.400396 10.126369
v -2.444967 -0.400396 10.126369
v -2.444967 -0.200396 10.126369
v -2.200467 -0.200396 9.904368
v -2.200467 -0.400396 9.904368
v -2.200467 -0.400396 9.904368
v -2.200467 -0.200396 9.904368
v -2.200467 -0.200396 9.557868
v -2.200467 -0.400396 9.557868
v -2.174967 -0.200396 9.523368
v -2.174967 -0.400396 9.523368
v -2.174967 -0.400396 9.523368
v -2.174967 -0.200396 9.523368
v -2.104467 -0.200396 9.559368
v -2.104467 -0.400396 9.559368
v -2.104467 -0.400396 9.559368
v -2.104467 -0.200396 9.559368
v -2.104467 -0.200396 9.478369
v -2.104467 -0.400396 9.478368
v -2.104467 -0.400396 9.478368
v -2.104467 -0.200396 9.478369
v -2.233467 -0.200395 9.425868
v -2.233467 -0.400395 9.425868
v -2.546967 -0.400396 9.614868
v -2.546967 -0.200396 9.614868
v -2.450967 -0.200396 9.520369
v -2.450967 -0.400396 9.520369
v -2.450967 -0.400396 9.520369
v -2.450967 -0.200396 9.520369
v -2.333967 -0.200396 9.575869
v -2.333967 -0.400396 9.575869
v -2.333967 -0.400396 9.575869
v -2.333967 -0.200396 9.575869
v -2.333967 -0.200396 9.772368
v -2.333967 -0.400396 9.772368
v -2.333967 -0.400396 9.772368
v -2.333967 -0.200396 9.772368
v -2.546967 -0.200396 9.614868
v -2.546967 -0.400396 9.614868
v -1.558467 -0.400396 9.524868
v -1.558467 -0.200396 9.524868
v -1.757967 -0.200395 9.425868
v -1.757967 -0.400395 9.425868
v -1.757967 -0.400395 9.425868
v -1.757967 -0.200395 9.425868
v -1.990467 -0.200396 9.694368
v -1.990467 -0.400396 9.694368
v -1.990467 -0.200396 10.112868
v -1.990467 -0.400396 10.112868
v -1.990467 -0.400396 10.112868
v -1.990467 -0.200396 10.112868
v -1.856967 -0.200396 10.112868
v -1.856967 -0.400396 10.112868
v -1.856967 -0.400396 10.112868
v -1.856967 -0.200396 10.112868
v -1.856967 -0.200396 9.685369
v -1.856967 -0.400396 9.685369
v -1.718967 -0.200396 9.536868
v -1.718967 -0.400396 9.536868
v -1.718967 -0.400396 9.536868
v -1.718967 -0.200396 9.536868
v -1.558467 -0.200396 9.631369
v -1.558467 -0.400396 9.631369
v -1.558467 -0.400396 9.631369
v -1.558467 -0.200396 9.631369
v -1.558467 -0.200396 10.112868
v -1.558467 -0.400396 10.112868
v -1.558467 -0.400396 10.112868
v -1.558467 -0.200396 10.112868
v -1.424967 -0.200396 10.112868
v -1.424967 -0.400396 10.112868
v -1.424967 -0.400396 10.112868
v -1.424967 -0.200396 10.112868
v -1.424967 -0.200395 9.439368
v -1.424967 -0.400395 9.439368
v -1.424967 -0.400395 9.439368
v -1.424967 -0.200395 9.439368
v -1.558467 -0.200395 9.439368
v -1.558467 -0.400395 9.439368
v -1.558467 -0.400395 9.439368
v -1.558467 -0.200395 9.439368
v -1.558467 -0.200396 9.524868
v -1.558467 -0.400396 9.524868
v -1.232967 -0.400395 9.439368
v -1.232967 -0.200395 9.439368
v -1.232967 -0.200396 10.462368
v -1.232967 -0.400396 10.462368
v -1.232967 -0.400396 10.462368
v -1.232967 -0.200396 10.462368
v -1.099467 -0.200396 10.462368
v -1.099467 -0.400396 10.462368
v -1.099467 -0.400396 10.462368
v -1.099467 -0.200396 10.462368
v -1.099467 -0.200395 9.439368
v -1.099467 -0.400395 9.439368
v -1.099467 -0.400395 9.439368
v -1.099467 -0.200395 9.439368
v -1.232967 -0.200395 9.439368
v -1.232967 -0.400395 9.439368
v -0.926967 -0.400396 10.513369
v -0.926967 -0.200396 10.513369
v -0.794967 -0.200396 10.513369
v -0.794967 -0.400396 10.513369
v -0.794967 -0.400396 10.513369
v -0.794967 -0.200396 10.513369
v -0.794967 -0.200396 10.337869
v -0.794967 -0.400396 10.337869
v -0.829467 -0.200396 10.132368
v -0.829467 -0.400396 10.132368
v -0.829467 -0.400396 10.132368
v -0.829467 -0.200396 10.132368
v -0.892467 -0.200396 10.132368
v -0.892467 -0.400396 10.132368
v -0.892467 -0.400396 10.132368
v -0.892467 -0.200396 10.132368
v -0.926967 -0.200396 10.337869
v -0.926967 -0.400396 10.337869
v -0.926967 -0.200396 10.513369
v -0.926967 -0.400396 10.513369
v -0.428967 -0.400396 10.009368
v -0.428967 -0.200396 10.009368
v -0.517467 -0.200396 9.947868
v -0.517467 -0.400396 9.947868
v -0.517467 -0.400396 9.947868
v -0.517467 -0.200396 9.947868
v -0.353967 -0.200396 9.812868
v -0.353967 -0.400396 9.812868
v -0.353967 -0.400396 9.812868
v -0.353967 -0.200396 9.812868
v -0.202467 -0.200396 9.623868
v -0.202467 -0.400396 9.623868
v -0.202467 -0.400396 9.623868
v -0.202467 -0.200396 9.623868
v -0.424468 -0.200395 9.425868
v -0.424468 -0.400395 9.425868
v -0.424468 -0.400395 9.425868
v -0.424468 -0.200395 9.425868
v -0.658468 -0.200396 9.487369
v -0.658468 -0.400396 9.487369
v -0.658468 -0.400396 9.487369
v -0.658468 -0.200396 9.487369
v -0.658468 -0.200396 9.631369
v -0.658468 -0.400396 9.631369
v -0.658468 -0.400396 9.631369
v -0.658468 -0.200396 9.631369
v -0.437967 -0.200396 9.542869
v -0.437967 -0.400396 9.542869
v -0.437967 -0.400396 9.542869
v -0.437967 -0.200396 9.542869
v -0.338967 -0.200396 9.619369
v -0.338967 -0.400396 9.619369
v -0.338967 -0.400396 9.619369
v -0.338967 -0.200396 9.619369
v -0.653967 -0.200396 9.943368
v -0.653967 -0.400396 9.943368
v -0.653967 -0.400396 9.943368
v -0.653967 -0.200396 9.943368
v -0.431967 -0.200396 10.126369
v -0.431967 -0.400396 10.126369
v -0.431967 -0.400396 10.126369
v -0.431967 -0.200396 10.126369
v -0.233968 -0.200396 10.070868
v -0.233968 -0.400396 10.070868
v -0.233968 -0.400396 10.070868
v -0.233968 -0.200396 10.070868
v -0.233968 -0.200396 9.938869
v -0.233968 -0.400396 9.938869
v -0.233968 -0.400396 9.938869
v -0.233968 -0.200396 9.938869
v -0.428967 -0.200396 10.009368
v -0.428967 -0.400396 10.009368
v -2.653467 -0.400394 7.939368
v -2.653467 -0.200394 7.939368
v -2.653467 -0.200395 8.384869
v -2.653467 -0.400395 8.384869
v -2.653467 -0.400395 8.384869
v -2.653467 -0.200395 8.384869
v -3.226467 -0.200395 8.384869
v -3.226467 -0.400395 8.384869
v -3.226467 -0.400395 8.384869
v -3.226467 -0.200395 8.384869
v -3.226467 -0.200394 7.939368
v -3.226467 -0.400394 7.939368
v -3.226467 -0.400394 7.939368
v -3.226467 -0.200394 7.939368
v -3.373467 -0.200394 7.939368
v -3.373467 -0.400394 7.939368
v -3.373467 -0.400394 7.939368
v -3.373467 -0.200394 7.939368
v -3.373467 -0.200395 8.962368
v -3.373467 -0.400395 8.962368
v -3.373467 -0.400395 8.962368
v -3.373467 -0.200395 8.962368
v -3.226467 -0.200395 8.962368
v -3.226467 -0.400395 8.962368
v -3.226467 -0.400395 8.962368
v -3.226467 -0.200395 8.962368
v -3.226467 -0.200395 8.516869
v -3.226467 -0.400395 8.516869
v -3.226467 -0.400395 8.516869
v -3.226467 -0.200395 8.516869
v -2.653467 -0.200395 8.516869
v -2.653467 -0.400395 8.516869
v -2.653467 -0.400395 8.516869
v -2.653467 -0.200395 8.516869
v -2.653467 -0.200395 8.962368
v -2.653467 -0.400395 8.962368
v -2.653467 -0.400395 8.962368
v -2.653467 -0.200395 8.962368
v -2.506467 -0.200395 8.962368
v -2.506467 -0.400395 8.962368
v -2.506467 -0.400395 8.962368
v -2.506467 -0.200395 8.962368
v -2.506467 -0.200394 7.939368
v -2.506467 -0.400394 7.939368
v -2.506467 -0.400394 7.939368
v -2.506467 -0.200394 7.939368
v -2.653467 -0.200394 7.939368
v -2.653467 -0.400394 7.939368
v -1.904967 -0.400394 7.925868
v -1.904967 -0.200394 7.925869
v -2.006967 -0.200394 7.994868
v -2.006967 -0.400394 7.994868
v -2.006967 -0.400394 7.994868
v -2.006967 -0.200394 7.994868
v -2.188468 -0.200394 7.925869
v -2.188468 -0.400394 7.925868
v -2.188468 -0.400394 7.925868
v -2.188468 -0.200394 7.925869
v -2.353467 -0.200394 8.090868
v -2.353467 -0.400394 8.090868
v -2.353467 -0.400394 8.090868
v -2.353467 -0.200394 8.090868
v -2.123967 -0.200394 8.303868
v -2.123967 -0.400394 8.303868
v -2.005467 -0.200395 8.345868
v -2.005467 -0.400395 8.345868
v -2.005467 -0.400395 8.345868
v -2.005467 -0.200395 8.345868
v -2.005467 -0.200395 8.381868
v -2.005467 -0.400395 8.381868
v -2.005467 -0.400395 8.381868
v -2.005467 -0.200395 8.381868
v -2.126967 -0.200395 8.500368
v -2.126967 -0.400395 8.500368
v -2.126967 -0.400395 8.500368
v -2.126967 -0.200395 8.500368
v -2.339967 -0.200395 8.389368
v -2.339967 -0.400395 8.389368
v -2.339967 -0.400395 8.389368
v -2.339967 -0.200395 8.389368
v -2.339967 -0.200395 8.534868
v -2.339967 -0.400395 8.534868
v -2.339967 -0.400395 8.534868
v -2.339967 -0.200395 8.534868
v -2.116467 -0.200395 8.626369
v -2.116467 -0.400395 8.626369
v -2.116467 -0.400395 8.626369
v -2.116467 -0.200395 8.626369
v -1.871967 -0.200395 8.404368
v -1.871967 -0.400395 8.404368
v -1.871967 -0.400395 8.404368
v -1.871967 -0.200395 8.404368
v -1.871967 -0.200394 8.057868
v -1.871967 -0.400394 8.057868
v -1.846467 -0.200394 8.023369
v -1.846467 -0.400394 8.023368
v -1.846467 -0.400394 8.023368
v -1.846467 -0.200394 8.023369
v -1.775967 -0.200394 8.059368
v -1.775967 -0.400394 8.059368
v -1.775967 -0.400394 8.059368
v -1.775967 -0.200394 8.059368
v -1.775967 -0.200394 7.978368
v -1.775967 -0.400394 7.978368
v -1.775967 -0.400394 7.978368
v -1.775967 -0.200394 7.978368
v -1.904967 -0.200394 7.925869
v -1.904967 -0.400394 7.925868
v -2.218467 -0.400394 8.114868
v -2.218467 -0.200394 8.114868
v -2.122467 -0.200394 8.020369
v -2.122467 -0.400394 8.020369
v -2.122467 -0.400394 8.020369
v -2.122467 -0.200394 8.020369
v -2.005467 -0.200394 8.075869
v -2.005467 -0.400394 8.075869
v -2.005467 -0.400394 8.075869
v -2.005467 -0.200394 8.075869
v -2.005467 -0.200394 8.272368
v -2.005467 -0.400394 8.272368
v -2.005467 -0.400394 8.272368
v -2.005467 -0.200394 8.272368
v -2.218467 -0.200394 8.114868
v -2.218467 -0.400394 8.114868
v -1.288467 -0.400395 8.612868
v -1.288467 -0.200395 8.612868
v -1.288467 -0.200395 8.492868
v -1.288467 -0.400395 8.492868
v -1.288467 -0.400395 8.492868
v -1.288467 -0.200395 8.492868
v -1.501467 -0.200395 8.492868
v -1.501467 -0.400395 8.492868
v -1.501467 -0.400395 8.492868
v -1.501467 -0.200395 8.492868
v -1.501467 -0.200394 8.147868
v -1.501467 -0.400394 8.147868
v -1.405467 -0.200394 8.045868
v -1.405467 -0.400394 8.045868
v -1.405467 -0.400394 8.045868
v -1.405467 -0.200394 8.045868
v -1.253967 -0.200394 8.095368
v -1.253967 -0.400394 8.095368
v -1.253967 -0.400394 8.095368
v -1.253967 -0.200394 8.095368
v -1.253967 -0.200394 7.970869
v -1.253967 -0.400394 7.970868
v -1.253967 -0.400394 7.970868
v -1.253967 -0.200394 7.970869
v -1.415967 -0.200394 7.925869
v -1.415967 -0.400394 7.925868
v -1.415967 -0.400394 7.925868
v -1.415967 -0.200394 7.925869
v -1.634967 -0.200394 8.137368
v -1.634967 -0.400394 8.137368
v -1.634967 -0.400394 8.137368
v -1.634967 -0.200394 8.137368
v -1.634967 -0.200395 8.492868
v -1.634967 -0.400395 8.492868
v -1.634967 -0.400395 8.492868
v -1.634967 -0.200395 8.492868
v -1.751967 -0.200395 8.492868
v -1.751967 -0.400395 8.492868
v -1.751967 -0.400395 8.492868
v -1.751967 -0.200395 8.492868
v -1.751967 -0.200395 8.507869
v -1.751967 -0.400395 8.507868
v -1.751967 -0.400395 8.507868
v -1.751967 -0.200395 8.507869
v -1.501467 -0.200395 8.752368
v -1.501467 -0.400395 8.752368
v -1.501467 -0.400395 8.752368
v -1.501467 -0.200395 8.752368
v -1.501467 -0.200395 8.612868
v -1.501467 -0.400395 8.612868
v -1.501467 -0.400395 8.612868
v -1.501467 -0.200395 8.612868
v -1.288467 -0.200395 8.612868
v -1.288467 -0.400395 8.612868
v -0.961467 -0.400395 8.509368
v -0.961467 -0.200395 8.509368
v -1.049967 -0.200395 8.447868
v -1.049967 -0.400395 8.447868
v -1.049967 -0.400395 8.447868
v -1.049967 -0.200395 8.447868
v -0.886467 -0.200394 8.312868
v -0.886467 -0.400394 8.312868
v -0.886467 -0.400394 8.312868
v -0.886467 -0.200394 8.312868
v -0.734967 -0.200394 8.123868
v -0.734967 -0.400394 8.123868
v -0.734967 -0.400394 8.123868
v -0.734967 -0.200394 8.123868
v -0.956967 -0.200394 7.925869
v -0.956967 -0.400394 7.925868
v -0.956967 -0.400394 7.925868
v -0.956967 -0.200394 7.925869
v -1.190967 -0.200394 7.987369
v -1.190967 -0.400394 7.987368
v -1.190967 -0.400394 7.987368
v -1.190967 -0.200394 7.987369
v -1.190967 -0.200394 8.131369
v -1.190967 -0.400394 8.131369
v -1.190967 -0.400394 8.131369
v -1.190967 -0.200394 8.131369
v -0.970467 -0.200394 8.042869
v -0.970467 -0.400394 8.042868
v -0.970467 -0.400394 8.042868
v -0.970467 -0.200394 8.042869
v -0.871467 -0.200394 8.119369
v -0.871467 -0.400394 8.119369
v -0.871467 -0.400394 8.119369
v -0.871467 -0.200394 8.119369
v -1.186467 -0.200395 8.443368
v -1.186467 -0.400395 8.443368
v -1.186467 -0.400395 8.443368
v -1.186467 -0.200395 8.443368
v -0.964467 -0.200395 8.626369
v -0.964467 -0.400395 8.626369
v -0.964467 -0.400395 8.626369
v -0.964467 -0.200395 8.626369
v -0.766467 -0.200395 8.570868
v -0.766467 -0.400395 8.570868
v -0.766467 -0.400395 8.570868
v -0.766467 -0.200395 8.570868
v -0.766467 -0.200395 8.438869
v -0.766467 -0.400395 8.438869
v -0.766467 -0.400395 8.438869
v -0.766467 -0.200395 8.438869
v -0.961467 -0.200395 8.509368
v -0.961467 -0.400395 8.509368
v -2.339967 -0.400395 8.534868
v -2.126967 -0.400395 8.500368
v -2.339967 -0.400395 8.389368
v -2.116467 -0.400395 8.626369
v -1.871967 -0.400395 8.404368
v -2.005467 -0.400395 8.381868
v -2.005467 -0.400395 8.345868
v -2.005467 -0.400394 8.272368
v -2.123967 -0.400394 8.303868
v -2.005467 -0.400394 8.075869
v -2.218467 -0.400394 8.114868
v -1.871967 -0.400394 8.057868
v -2.353467 -0.400394 8.090868
v -2.122467 -0.400394 8.020369
v -2.188468 -0.400394 7.925868
v -1.846467 -0.400394 8.023368
v -2.006967 -0.400394 7.994868
v -1.775967 -0.400394 7.978368
v -1.904967 -0.400394 7.925868
v -1.775967 -0.400394 8.059368
v 3.199427 -0.423822 9.947211
v 1.233789 -0.423822 10.316353
v 1.233789 -0.223822 10.316353
v 3.199427 -0.223822 9.947211
v 2.922571 -0.423822 8.472982
v 3.199427 -0.423822 9.947211
v 3.199427 -0.223822 9.947211
v 2.922571 -0.223822 8.472982
v 0.956932 -0.223822 8.842124
v 1.233789 -0.223822 10.316353
v 1.233789 -0.423822 10.316353
v 0.956932 -0.423822 8.842124
v 3.413980 -0.223822 8.380697
v 3.340152 -0.223822 7.987569
v 3.340152 -0.423822 7.987569
v 3.413980 -0.423822 8.380697
v 2.922571 -0.223822 8.472982
v 3.413980 -0.223822 8.380697
v 3.413980 -0.423822 8.380697
v 2.922571 -0.423822 8.472982
v 0.465523 -0.423822 8.934409
v 0.391694 -0.423822 8.541282
v 0.391694 -0.223822 8.541282
v 0.465523 -0.223822 8.934409
v 0.956932 -0.423822 8.842124
v 0.465523 -0.423822 8.934409
v 0.465523 -0.223822 8.934409
v 0.956932 -0.223822 8.842124
v 3.413980 -0.423822 8.380697
v 3.340152 -0.423822 7.987569
v 0.391694 -0.423822 8.541282
v 2.922571 -0.423822 8.472982
v 3.199427 -0.423822 9.947211
v 0.956932 -0.423822 8.842124
v 0.465523 -0.423822 8.934409
v 1.233789 -0.423822 10.316353
v -4.000000 -0.321492 11.125000
v -4.000000 -0.321492 7.125000
v -4.000000 -0.071492 7.125000
v -4.000000 -0.071492 11.125000
v -4.000000 -0.071492 11.125000
v -4.000000 -0.071492 7.125000
v 4.000000 -0.071492 7.125000
v 4.000000 -0.071492 11.125000
v 4.000000 -0.071492 11.125000
v 4.000000 -0.071492 7.125000
v 4.000000 -0.321492 7.125000
v 4.000000 -0.321492 11.125000
v 4.000000 -0.321492 11.125000
v 4.000000 -0.321492 7.125000
v -4.000000 -0.321492 7.125000
v -4.000000 -0.321492 11.125000
v 4.000000 -0.321492 11.125000
v -4.000000 -0.321492 11.125000
v -4.000000 -0.071492 11.125000
v 4.000000 -0.071492 11.125000
v 4.407658 0.303508 6.875000
v -4.407656 0.303508 6.875000
v -4.407658 -0.696492 6.875000
v 4.407658 -0.696492 6.875000
v 4.407660 0.303508 7.125000
v 4.407655 -0.696493 7.125000
v -4.407659 -0.696492 7.125000
v -4.407657 0.303508 7.125000
v 4.407658 0.303508 6.875000
v 4.407658 -0.696492 6.875000
v 4.407655 -0.696493 7.125000
v 4.407660 0.303508 7.125000
v 4.407658 -0.696492 6.875000
v -4.407658 -0.696492 6.875000
v -4.407659 -0.696492 7.125000
v 4.407655 -0.696493 7.125000
v -4.407658 -0.696492 6.875000
v -4.407656 0.303508 6.875000
v -4.407657 0.303508 7.125000
v -4.407659 -0.696492 7.125000
v 4.407660 0.303508 7.125000
v -4.407657 0.303508 7.125000
v -4.407656 0.303508 6.875000
v 4.407658 0.303508 6.875000
vt 0.222819999 0.682133019
vt 0.222819999 0.677787006
vt 0.221950993 0.677787006
vt 0.221950993 0.682133019
vt 0.221950993 0.682133019
vt 0.221950993 0.677787006
vt 0.221082002 0.677787006
vt 0.221082002 0.682133019
vt 0.223689005 0.682133019
vt 0.223689005 0.677787006
vt 0.222819999 0.677787006
vt 0.222819999 0.682133019
vt 0.224557996 0.682133019
vt 0.224557996 0.677787006
vt 0.223689005 0.677787006
vt 0.223689005 0.682133019
vt 0.224557996 0.677787006
vt 0.224557996 0.678053021
vt 0.225427002 0.678053021
vt 0.225427002 0.677787006
vt 0.673040986 0.302148014
vt 0.671254992 0.299279988
vt 0.668839991 0.303180009
vt 0.664864004 0.308580011
vt 0.666876018 0.300567001
vt 0.668090999 0.306906998
vt 0.669965029 0.316769004
vt 0.673040986 0.314855009
vt 0.775354028 0.351330012
vt 0.786462009 0.351330012
vt 0.786462009 0.201369002
vt 0.775354028 0.201369002
vt 0.722452998 0.251666993
vt 0.722452998 0.279428005
vt 0.72607702 0.279428005
vt 0.72607702 0.251666993
vt 0.681702971 0.279428005
vt 0.681702971 0.251666993
vt 0.677712977 0.251666993
vt 0.677712977 0.263756007
vt 0.677712977 0.267338008
vt 0.677712977 0.279428005
vt 0.662158012 0.263756007
vt 0.662158012 0.267338008
vt 0.658167005 0.279428005
vt 0.662158012 0.279428005
vt 0.658167005 0.251666993
vt 0.662158012 0.251666993
vt 0.693319976 0.311857998
vt 0.696578026 0.311857998
vt 0.696578026 0.299279988
vt 0.696170986 0.299279988
vt 0.693319976 0.306077003
vt 0.689532995 0.306077003
vt 0.700242996 0.261851996
vt 0.700191975 0.265433013
vt 0.705511987 0.263597012
vt 0.705640018 0.260423005
vt 0.707890987 0.265300006
vt 0.711593986 0.265475988
vt 0.703400016 0.268898994
vt 0.699213028 0.273968011
vt 0.70291698 0.274143994
vt 0.705573976 0.276257992
vt 0.705161989 0.279428005
vt 0.711538017 0.277850986
vt 0.711593986 0.273943007
vt 0.733646989 0.330255002
vt 0.732711017 0.324678987
vt 0.731000006 0.324678987
vt 0.730063975 0.330255002
vt 0.733646989 0.335018009
vt 0.730063975 0.335018009
vt 0.658167005 0.251666993
vt 0.658167005 0.251666993
vt 0.658167005 0.251666993
vt 0.658167005 0.251666993
vt 0.696578026 0.286713988
vt 0.696578026 0.298070997
vt 0.700201988 0.298070997
vt 0.700201988 0.286469996
vt 0.703948021 0.282440007
vt 0.702889979 0.279428005
vt 0.708305001 0.282113999
vt 0.708305001 0.28500399
vt 0.711929977 0.298070997
vt 0.708305001 0.298070997
vt 0.708305001 0.279794008
vt 0.711929977 0.279794008
vt 0.672451973 0.279861987
vt 0.668695986 0.279428005
vt 0.666530013 0.281973988
vt 0.670935988 0.281551003
vt 0.673040986 0.281978995
vt 0.663694978 0.283479989
vt 0.66128099 0.281489998
vt 0.658167005 0.287003994
vt 0.661872029 0.286648989
vt 0.665718973 0.290903002
vt 0.667159021 0.284079999
vt 0.670520008 0.282638997
vt 0.668588996 0.289216995
vt 0.673040986 0.291696995
vt 0.669124007 0.291139007
vt 0.669386029 0.292079985
vt 0.667070985 0.296061993
vt 0.668262005 0.299279988
vt 0.661750972 0.298512995
vt 0.660691977 0.29471001
vt 0.699213028 0.271449
vt 0.689848006 0.263675004
vt 0.685693979 0.263675004
vt 0.690213978 0.267257005
vt 0.695101023 0.271611989
vt 0.690376997 0.275846004
vt 0.690376997 0.279428005
vt 0.685693979 0.275846004
vt 0.681702971 0.279428005
vt 0.685693979 0.267257005
vt 0.681702971 0.251666993
vt 0.685693979 0.251666993
vt 0.697607994 0.299499005
vt 0.697556019 0.303081006
vt 0.702876985 0.301243991
vt 0.703004003 0.298070997
vt 0.705254972 0.302947015
vt 0.708958983 0.303122997
vt 0.700764 0.306546003
vt 0.696578026 0.31161499
vt 0.700281024 0.311791003
vt 0.702938974 0.313905001
vt 0.702525973 0.317075014
vt 0.708902001 0.315497994
vt 0.708958983 0.311589986
vt 0.689532995 0.325989991
vt 0.694962978 0.325989991
vt 0.694962978 0.315993994
vt 0.689532995 0.315993994
vt 0.694962978 0.311857998
vt 0.689532995 0.311857998
vt 0.663595974 0.317555994
vt 0.658167005 0.317555994
vt 0.658167005 0.329562992
vt 0.663595974 0.329562992
vt 0.729671001 0.335018009
vt 0.729671001 0.340445012
vt 0.733646989 0.340445012
vt 0.733646989 0.335018009
vt 0.722452998 0.251668006
vt 0.717023015 0.251668006
vt 0.717023015 0.279428005
vt 0.722452998 0.279428005
vt 0.699213028 0.260423005
vt 0.704643011 0.260423005
vt 0.704643011 0.251814008
vt 0.699213028 0.251814008
vt 0.670292974 0.328857988
vt 0.664864004 0.328857988
vt 0.664864004 0.336762995
vt 0.670292974 0.336762995
vt 0.717359006 0.328043997
vt 0.722787976 0.322679013
vt 0.717359006 0.322679013
vt 0.722787976 0.328043997
vt 0.717359006 0.332531005
vt 0.722787976 0.332531005
vt 0.711929977 0.331791013
vt 0.717359006 0.331791013
vt 0.717359006 0.327450007
vt 0.711929977 0.327450007
vt 0.717359006 0.322786987
vt 0.711929977 0.322786987
vt 0.710071981 0.251834989
vt 0.704643011 0.251834989
vt 0.704643011 0.260423005
vt 0.710071981 0.260423005
vt 0.733646989 0.291305989
vt 0.739076972 0.291305989
vt 0.739076972 0.288709015
vt 0.733646989 0.288709015
vt 0.733646989 0.288709015
vt 0.739076972 0.288709015
vt 0.739076972 0.283641011
vt 0.733646989 0.283641011
vt 0.67395401 0.332823008
vt 0.67395401 0.338250011
vt 0.678471029 0.338250011
vt 0.678471029 0.332823008
vt 0.678471029 0.322627991
vt 0.673040986 0.322627991
vt 0.673040986 0.329495013
vt 0.678471029 0.329495013
vt 0.673040986 0.332823008
vt 0.678471029 0.332823008
vt 0.742365003 0.273782998
vt 0.742365003 0.279210001
vt 0.743342996 0.279210001
vt 0.743342996 0.273782998
vt 0.743342996 0.273782998
vt 0.743342996 0.279210001
vt 0.746586978 0.279210001
vt 0.746586978 0.273782998
vt 0.744506001 0.283641011
vt 0.739076972 0.283641011
vt 0.739076972 0.28965801
vt 0.744506001 0.28965801
vt 0.748456001 0.307702988
vt 0.748456001 0.302275985
vt 0.744506001 0.302275985
vt 0.744506001 0.307702988
vt 0.733646989 0.301685989
vt 0.739076972 0.301685989
vt 0.739076972 0.295370013
vt 0.733646989 0.295370013
vt 0.722787976 0.312032014
vt 0.728218019 0.312032014
vt 0.728218019 0.306062996
vt 0.722787976 0.306062996
vt 0.722787976 0.306062996
vt 0.728218019 0.306062996
vt 0.728218019 0.296660006
vt 0.722787976 0.296660006
vt 0.728218019 0.295729995
vt 0.722787976 0.295729995
vt 0.679687977 0.301137
vt 0.679687977 0.306564003
vt 0.681702971 0.306564003
vt 0.681702971 0.301137
vt 0.689332008 0.304706991
vt 0.689332008 0.299279988
vt 0.687133014 0.299279988
vt 0.687133014 0.304706991
vt 0.733646989 0.294916004
vt 0.739076972 0.294916004
vt 0.739076972 0.291305989
vt 0.733646989 0.291305989
vt 0.679159999 0.284855008
vt 0.679159999 0.290282011
vt 0.681702971 0.290282011
vt 0.681702971 0.284855008
vt 0.714026988 0.337917
vt 0.714026988 0.343344003
vt 0.717359006 0.343344003
vt 0.717359006 0.337917
vt 0.744410992 0.313129991
vt 0.744410992 0.307702988
vt 0.739076972 0.307702988
vt 0.739076972 0.313129991
vt 0.681702971 0.335826993
vt 0.687133014 0.335826993
vt 0.687133014 0.329699993
vt 0.681702971 0.329699993
vt 0.739076972 0.295370013
vt 0.744506001 0.295370013
vt 0.744506001 0.289745003
vt 0.739076972 0.289745003
vt 0.681702971 0.317974001
vt 0.687133014 0.317974001
vt 0.687133014 0.310636014
vt 0.681702971 0.310636014
vt 0.687133014 0.299279988
vt 0.681702971 0.299279988
vt 0.670292974 0.342189997
vt 0.670292974 0.336762995
vt 0.666693985 0.336762995
vt 0.666693985 0.342189997
vt 0.711929977 0.322786987
vt 0.717359006 0.322786987
vt 0.717359006 0.311185986
vt 0.711929977 0.311185986
vt 0.717359006 0.307186991
vt 0.711929977 0.307186991
vt 0.734447002 0.332572997
vt 0.734447002 0.338
vt 0.739076972 0.338
vt 0.739076972 0.332572997
vt 0.722787976 0.325098008
vt 0.728218019 0.325098008
vt 0.728218019 0.312032014
vt 0.722787976 0.312032014
vt 0.744506001 0.322690994
vt 0.744506001 0.328117996
vt 0.74810499 0.328117996
vt 0.74810499 0.322690994
vt 0.658167005 0.317555994
vt 0.663595974 0.317555994
vt 0.663595974 0.299279988
vt 0.658167005 0.299279988
vt 0.74811703 0.301685989
vt 0.74811703 0.296258003
vt 0.744506001 0.296258003
vt 0.744506001 0.301685989
vt 0.681702971 0.301137
vt 0.681702971 0.295709997
vt 0.679382026 0.295709997
vt 0.679382026 0.301137
vt 0.711593986 0.279428005
vt 0.717023015 0.279428005
vt 0.717023015 0.251668006
vt 0.711593986 0.251668006
vt 0.702006996 0.336807996
vt 0.702006996 0.342234999
vt 0.705605984 0.342234999
vt 0.705605984 0.336807996
vt 0.673040986 0.307186991
vt 0.678471029 0.307186991
vt 0.678471029 0.279428005
vt 0.673040986 0.279428005
vt 0.670343995 0.332823008
vt 0.670343995 0.338250011
vt 0.67395401 0.338250011
vt 0.67395401 0.332823008
vt 0.658167005 0.337096989
vt 0.658167005 0.342523992
vt 0.661724985 0.342523992
vt 0.661724985 0.337096989
vt 0.733646989 0.32237801
vt 0.739076972 0.32237801
vt 0.739076972 0.317615986
vt 0.733646989 0.317615986
vt 0.739076972 0.312032014
vt 0.733646989 0.312032014
vt 0.687627971 0.304706991
vt 0.687627971 0.310133994
vt 0.689332008 0.310133994
vt 0.689332008 0.304706991
vt 0.739076972 0.301685989
vt 0.733646989 0.301685989
vt 0.733646989 0.30726999
vt 0.739076972 0.30726999
vt 0.733646989 0.312032014
vt 0.739076972 0.312032014
vt 0.703529 0.331699997
vt 0.708958983 0.331699997
vt 0.708958983 0.329163998
vt 0.703529 0.329163998
vt 0.68315798 0.335826993
vt 0.68315798 0.341253996
vt 0.687133014 0.341253996
vt 0.687133014 0.335826993
vt 0.74417299 0.333544999
vt 0.74417299 0.328117996
vt 0.739076972 0.328117996
vt 0.739076972 0.333544999
vt 0.728218019 0.324678987
vt 0.733646989 0.324678987
vt 0.733646989 0.318215013
vt 0.728218019 0.318215013
vt 0.728218019 0.318215013
vt 0.733646989 0.318215013
vt 0.733646989 0.312032014
vt 0.728218019 0.312032014
vt 0.748414993 0.28965801
vt 0.748414993 0.284231007
vt 0.744506001 0.284231007
vt 0.744506001 0.28965801
vt 0.736935973 0.26394701
vt 0.742365003 0.26394701
vt 0.742365003 0.258289009
vt 0.736935973 0.258289009
vt 0.736935973 0.258289009
vt 0.742365003 0.258289009
vt 0.742365003 0.255376011
vt 0.736935973 0.255376011
vt 0.722787976 0.33396101
vt 0.728218019 0.33396101
vt 0.728218019 0.325098008
vt 0.722787976 0.325098008
vt 0.681702971 0.329699993
vt 0.687133014 0.329699993
vt 0.687133014 0.323132008
vt 0.681702971 0.323132008
vt 0.681702971 0.323132008
vt 0.687133014 0.323132008
vt 0.687133014 0.317974001
vt 0.681702971 0.317974001
vt 0.702006996 0.342234999
vt 0.702006996 0.336807996
vt 0.698423982 0.336807996
vt 0.698423982 0.342234999
vt 0.703529 0.336807996
vt 0.708958983 0.336807996
vt 0.708958983 0.331699997
vt 0.703529 0.331699997
vt 0.664864004 0.328857988
vt 0.670292974 0.328857988
vt 0.670292974 0.316769004
vt 0.664864004 0.316769004
vt 0.717359006 0.322679013
vt 0.722787976 0.322679013
vt 0.722787976 0.307186991
vt 0.717359006 0.307186991
vt 0.728218019 0.295729995
vt 0.733646989 0.295729995
vt 0.733646989 0.283641011
vt 0.728218019 0.283641011
vt 0.747569025 0.338972986
vt 0.747569025 0.333544999
vt 0.743592978 0.333544999
vt 0.743592978 0.338972986
vt 0.722787976 0.279428005
vt 0.717359006 0.279428005
vt 0.717359006 0.307186991
vt 0.722787976 0.307186991
vt 0.748373985 0.318558007
vt 0.748373985 0.313129991
vt 0.744410992 0.313129991
vt 0.744410992 0.318558007
vt 0.708958983 0.317075014
vt 0.703529 0.317075014
vt 0.703529 0.329163998
vt 0.708958983 0.329163998
vt 0.673040986 0.322627991
vt 0.678471029 0.322627991
vt 0.678471029 0.307186991
vt 0.673040986 0.307186991
vt 0.702006996 0.317075014
vt 0.696578026 0.317075014
vt 0.696578026 0.329163998
vt 0.702006996 0.329163998
vt 0.74417299 0.328117996
vt 0.74417299 0.333544999
vt 0.748135984 0.333544999
vt 0.748135984 0.328117996
vt 0.711929977 0.307186991
vt 0.717359006 0.307186991
vt 0.717359006 0.279428005
vt 0.711929977 0.279428005
vt 0.694962978 0.340279996
vt 0.694962978 0.334852993
vt 0.690986991 0.334852993
vt 0.690986991 0.340279996
vt 0.73150599 0.275599986
vt 0.736935973 0.275599986
vt 0.736935973 0.273003012
vt 0.73150599 0.273003012
vt 0.73150599 0.273003012
vt 0.736935973 0.273003012
vt 0.736935973 0.267935008
vt 0.73150599 0.267935008
vt 0.743592978 0.338972986
vt 0.743592978 0.333544999
vt 0.739076972 0.333544999
vt 0.739076972 0.338972986
vt 0.733646989 0.332572997
vt 0.739076972 0.332572997
vt 0.739076972 0.325706005
vt 0.733646989 0.325706005
vt 0.739076972 0.32237801
vt 0.733646989 0.32237801
vt 0.746586978 0.260803014
vt 0.746586978 0.255376011
vt 0.745608985 0.255376011
vt 0.745608985 0.260803014
vt 0.745608985 0.260803014
vt 0.745608985 0.255376011
vt 0.742365003 0.255376011
vt 0.742365003 0.260803014
vt 0.739076972 0.307702988
vt 0.744506001 0.307702988
vt 0.744506001 0.301685989
vt 0.739076972 0.301685989
vt 0.744410992 0.307702988
vt 0.744410992 0.313129991
vt 0.748360991 0.313129991
vt 0.748360991 0.307702988
vt 0.736935973 0.270639002
vt 0.742365003 0.270639002
vt 0.742365003 0.264322996
vt 0.736935973 0.264322996
vt 0.722787976 0.295729995
vt 0.728218019 0.295729995
vt 0.728218019 0.289761007
vt 0.722787976 0.289761007
vt 0.722787976 0.289761007
vt 0.728218019 0.289761007
vt 0.728218019 0.280357987
vt 0.722787976 0.280357987
vt 0.728218019 0.279428005
vt 0.722787976 0.279428005
vt 0.710973978 0.308925003
vt 0.710973978 0.303498
vt 0.708958983 0.303498
vt 0.708958983 0.308925003
vt 0.711157024 0.303498
vt 0.711157024 0.298070997
vt 0.708958983 0.298070997
vt 0.708958983 0.303498
vt 0.73150599 0.279210001
vt 0.736935973 0.279210001
vt 0.736935973 0.275599986
vt 0.73150599 0.275599986
vt 0.681702971 0.295709997
vt 0.681702971 0.290282011
vt 0.679159999 0.290282011
vt 0.679159999 0.295709997
vt 0.661724985 0.337096989
vt 0.661724985 0.342523992
vt 0.665057003 0.342523992
vt 0.665057003 0.337096989
vt 0.744410992 0.32237801
vt 0.744410992 0.316951007
vt 0.739076972 0.316951007
vt 0.739076972 0.32237801
vt 0.711929977 0.337917
vt 0.717359006 0.337917
vt 0.717359006 0.331791013
vt 0.711929977 0.331791013
vt 0.749844015 0.279210001
vt 0.749844015 0.273782998
vt 0.746586978 0.273782998
vt 0.746586978 0.279210001
vt 0.739076972 0.301685989
vt 0.744506001 0.301685989
vt 0.744506001 0.295926988
vt 0.739076972 0.295926988
vt 0.72607702 0.279210001
vt 0.73150599 0.279210001
vt 0.73150599 0.269847989
vt 0.72607702 0.269847989
vt 0.73150599 0.267102003
vt 0.72607702 0.267102003
vt 0.742365003 0.264322996
vt 0.742365003 0.269751012
vt 0.746608019 0.269751012
vt 0.746608019 0.264322996
vt 0.698423982 0.342234999
vt 0.698423982 0.336807996
vt 0.695043981 0.336807996
vt 0.695043981 0.342234999
vt 0.722787976 0.33396101
vt 0.722787976 0.339388013
vt 0.727275014 0.339388013
vt 0.727275014 0.33396101
vt 0.73150599 0.251666993
vt 0.72607702 0.251666993
vt 0.72607702 0.257454991
vt 0.73150599 0.257454991
vt 0.73150599 0.257454991
vt 0.72607702 0.257454991
vt 0.72607702 0.267102003
vt 0.73150599 0.267102003
vt 0.678538978 0.279428005
vt 0.678538978 0.284855008
vt 0.681702971 0.284855008
vt 0.681702971 0.279428005
vt 0.678946018 0.290282011
vt 0.678946018 0.284855008
vt 0.678538978 0.284855008
vt 0.678538978 0.290282011
vt 0.658167005 0.337096989
vt 0.663595974 0.337096989
vt 0.663595974 0.329562992
vt 0.658167005 0.329562992
vt 0.690986991 0.340279996
vt 0.690986991 0.334852993
vt 0.68720001 0.334852993
vt 0.68720001 0.340279996
vt 0.739076972 0.328117996
vt 0.744506001 0.328117996
vt 0.744506001 0.32237801
vt 0.739076972 0.32237801
vt 0.696578026 0.331699997
vt 0.702006996 0.331699997
vt 0.702006996 0.329163998
vt 0.696578026 0.329163998
vt 0.67918402 0.335826993
vt 0.67918402 0.341253996
vt 0.68315798 0.341253996
vt 0.68315798 0.335826993
vt 0.717692018 0.332531005
vt 0.717692018 0.337958008
vt 0.722787976 0.337958008
vt 0.722787976 0.332531005
vt 0.728218019 0.312032014
vt 0.733646989 0.312032014
vt 0.733646989 0.30556801
vt 0.728218019 0.30556801
vt 0.728218019 0.30556801
vt 0.733646989 0.30556801
vt 0.733646989 0.299385011
vt 0.728218019 0.299385011
vt 0.748414993 0.295085996
vt 0.748414993 0.28965801
vt 0.744506001 0.28965801
vt 0.744506001 0.295085996
vt 0.736935973 0.279210001
vt 0.742365003 0.279210001
vt 0.742365003 0.273552001
vt 0.736935973 0.273552001
vt 0.736935973 0.273552001
vt 0.742365003 0.273552001
vt 0.742365003 0.270639002
vt 0.736935973 0.270639002
vt 0.689532995 0.334852993
vt 0.694962978 0.334852993
vt 0.694962978 0.325989991
vt 0.689532995 0.325989991
vt 0.73150599 0.267102003
vt 0.736935973 0.267102003
vt 0.736935973 0.260533005
vt 0.73150599 0.260533005
vt 0.73150599 0.260533005
vt 0.736935973 0.260533005
vt 0.736935973 0.255376011
vt 0.73150599 0.255376011
vt 0.709188998 0.342234999
vt 0.709188998 0.336807996
vt 0.705605984 0.336807996
vt 0.705605984 0.342234999
vt 0.696578026 0.336807996
vt 0.702006996 0.336807996
vt 0.702006996 0.331699997
vt 0.696578026 0.331699997
vt 0.685288012 0.298512995
vt 0.690607011 0.296061993
vt 0.684229016 0.29471001
vt 0.691798985 0.299279988
vt 0.696578026 0.291696995
vt 0.692923009 0.292079985
vt 0.692660987 0.291139007
vt 0.692125976 0.289216995
vt 0.689256012 0.290903002
vt 0.690696001 0.284079999
vt 0.685409009 0.286648989
vt 0.694055974 0.282638997
vt 0.681702971 0.287003994
vt 0.687232018 0.283479989
vt 0.684818029 0.281489998
vt 0.694472015 0.281551003
vt 0.690066993 0.281973988
vt 0.695987999 0.279861987
vt 0.692232013 0.279428005
vt 0.696578026 0.281978995
vt 0.786462009 0.201369002
vt 0.786462009 0.301342994
vt 0.797571003 0.301342994
vt 0.797571003 0.201369002
vt 0.808678985 0.201369002
vt 0.808678985 0.276349008
vt 0.819787025 0.276349008
vt 0.819787025 0.201369002
vt 0.797571003 0.201369002
vt 0.797571003 0.276349008
vt 0.808678985 0.276349008
vt 0.808678985 0.201369002
vt 0.808678985 0.301342994
vt 0.808678985 0.28134799
vt 0.797571003 0.28134799
vt 0.797571003 0.301342994
vt 0.797571003 0.326335996
vt 0.797571003 0.301342994
vt 0.786462009 0.301342994
vt 0.786462009 0.326335996
vt 0.819787025 0.321337998
vt 0.819787025 0.301342994
vt 0.808678985 0.301342994
vt 0.808678985 0.321337998
vt 0.797571003 0.301342994
vt 0.797571003 0.326335996
vt 0.808678985 0.326335996
vt 0.808678985 0.301342994
vt 0.753138006 0.351330012
vt 0.775354028 0.351330012
vt 0.775354028 0.201369002
vt 0.753138006 0.326335996
vt 0.669825971 0.326335996
vt 0.753138006 0.226363003
vt 0.753138006 0.201369002
vt 0.669825971 0.226363003
vt 0.724129021 0.752138972
vt 0.724129021 0.751928985
vt 0.724117994 0.751928985
vt 0.724117994 0.752138972
vt 0.723655999 0.752138972
vt 0.723828018 0.752138972
vt 0.723828018 0.751718998
vt 0.723655999 0.751718998
vt 0.724117994 0.751718998
vt 0.724117994 0.751928985
vt 0.724129021 0.751928985
vt 0.724129021 0.751718998
vt 0.725968003 0.863022983
vt 0.725968003 0.752846003
vt 0.614041984 0.752846003
vt 0.614041984 0.863022983
vt 0.724117994 0.752138972
vt 0.724117994 0.751718998
vt 0.724107027 0.751718998
vt 0.724107027 0.752138972
vt 0.130482003 0.272372007
vt 0.130482003 0.27650401
vt 0.130866006 0.27650401
vt 0.130866006 0.272372007
vt 0.130482003 0.272372007
vt 0.130098999 0.272372007
vt 0.130098999 0.27650401
vt 0.130482003 0.27650401
vt 0.128659993 0.276591003
vt 0.128659993 0.276122004
vt 0.128564 0.276122004
vt 0.128564 0.276591003
vt 0.131057993 0.27650401
vt 0.131057993 0.272372007
vt 0.130961999 0.272372007
vt 0.130961999 0.27650401
vt 0.130098999 0.276591003
vt 0.130098999 0.276122004
vt 0.130003005 0.276122004
vt 0.130003005 0.276591003
vt 0.130866006 0.272372007
vt 0.130866006 0.27650401
vt 0.130961999 0.27650401
vt 0.130961999 0.272372007
vn -1.000000 0.000000 0.000000
vn -1.000000 0.000000 0.000000
vn -1.000000 0.000000 0.000000
vn -1.000000 0.000000 0.000000
vn 0.000000 1.000000 -0.000000
vn 0.000000 1.000000 -0.000000
vn 0.000000 1.000000 -0.000000
vn 0.000000 1.000000 -0.000000
vn 1.000000 0.000000 0.000000
vn 1.000000 0.000000 0.000000
vn 1.000000 0.000000 0.000000
vn 1.000000 0.000000 0.000000
vn 0.000000 -1.000000 0.000000
vn 0.000000 -1.000000 0.000000
vn 0.000000 -1.000000 0.000000
vn 0.000000 -1.000000 0.000000
vn 0.000000 0.000000 1.000000
vn 0.000000 0.000000 1.000000
vn 0.000000 0.000000 1.000000
vn 0.000000 0.000000 1.000000
vn 0.000000 -1.000000 0.000000
vn 0.000000 -1.000000 0.000000
vn 0.000000 -1.000000 0.000000
vn 0.000000 -1.000000 0.000000
vn 0.000000 -1.000000 0.000000
vn 0.000000 -1.000000 0.000000
vn 0.000000 -1.000000 0.000000
vn 0.000000 -1.000000 0.000000
vn -0.184571 -0.000000 -0.982819
vn -0.184571 -0.000000 -0.982819
vn -0.184571 -0.000000 -0.982819
vn -0.184571 -0.000000 -0.982819
vn 0.000000 -1.000000 0.000000
vn 0.000000 -1.000000 0.000000
vn 0.000000 -1.000000 0.000000
vn 0.000000 -1.000000 0.000000
vn 0.000000 -1.000000 0.000000
vn 0.000000 -1.000000 0.000000
vn 0.000000 -1.000000 0.000000
vn 0.000000 -1.000000 0.000000
vn 0.000000 -1.000000 0.000000
vn 0.000000 -1.000000 0.000000
vn 0.000000 -1.000000 0.000000
vn 0.000000 -1.000000 0.000000
vn 0.000000 -1.000000 0.000000
vn 0.000000 -1.000000 0.000000
vn 0.000000 -1.000000 0.000000
vn 0.000000 -1.000000 0.000000
vn 0.000000 -1.000000 0.000000
vn 0.000000 -1.000000 0.000000
vn 0.000000 -1.000000 0.000000
vn 0.000000 -1.000000 0.000000
vn 0.000000 -1.000000 0.000000
vn 0.000000 -1.000000 0.000000
vn 0.000000 -1.000000 0.000000
vn 0.000000 -1.000000 0.000000
vn 0.000000 -1.000000 0.000000
vn 0.000000 -1.000000 0.000000
vn 0.000000 -1.000000 0.000000
vn 0.000000 -1.000000 0.000000
vn 0.000000 -1.000000 0.000000
vn 0.000000 -1.000000 0.000000
vn 0.000000 -1.000000 0.000000
vn 0.000000 -1.000000 0.000000
vn 0.000000 -1.000000 0.000000
vn 0.000000 -1.000000 0.000000
vn 0.000000 -1.000000 0.000000
vn 0.000000 -1.000000 0.000000
vn 0.000000 -1.000000 0.000000
vn 0.000000 -1.000000 0.000000
vn 0.000000 -1.000000 0.000000
vn 0.000000 -1.000000 0.000000
vn 0.000000 -1.000000 0.000000
vn 0.000000 1.000000 -0.000000
vn 0.000000 1.000000 -0.000000
vn 0.000000 1.000000 -0.000000
vn 0.000000 1.000000 -0.000000
vn 0.000000 -1.000000 0.000000
vn 0.000000 -1.000000 0.000000
vn 0.000000 -1.000000 0.000000
vn 0.000000 -1.000000 0.000000
vn 0.000000 -1.000000 0.000000
vn 0.000000 -1.000000 0.000000
vn 0.000000 -1.000000 0.000000
vn 0.000000 -1.000000 0.000000
vn 0.000000 -1.000000 0.000000
vn 0.000000 -1.000000 0.000000
vn 0.000000 -1.000000 0.000000
vn 0.000000 -1.000000 0.000000
vn 0.000000 -1.000000 0.000000
vn 0.000000 -1.000000 0.000000
vn 0.000000 -1.000000 0.000000
vn 0.000000 -1.000000 0.000000
vn 0.000000 -1.000000 0.000000
vn 0.000000 -1.000000 0.000000
vn 0.000000 -1.000000 0.000000
vn 0.000000 -1.000000 0.000000
vn 0.000000 -1.000000 0.000000
vn 0.000000 -1.000000 0.000000
vn 0.000000 -1.000000 0.000000
vn 0.000000 -1.000000 0.000000
vn 0.000000 -1.000000 0.000000
vn 0.000000 -1.000000 0.000000
vn 0.000000 -1.000000 0.000000
vn 0.000000 -1.000000 0.000000
vn 0.000000 -1.000000 0.000000
vn 0.000000 -1.000000 0.000000
vn 0.000000 -1.000000 0.000000
vn 0.000000 -1.000000 0.000000
vn 0.000000 -1.000000 0.000000
vn 0.000000 -1.000000 0.000000
vn 0.000000 -1.000000 0.000000
vn 0.000000 -1.000000 0.000000
vn 0.000000 -1.000000 0.000000
vn 0.000000 -1.000000 0.000000
vn 0.000000 -1.000000 0.000000
vn 0.000000 -1.000000 0.000000
vn 0.000000 -1.000000 0.000000
vn 0.000000 -1.000000 0.000000
vn 0.000000 -1.000000 0.000000
vn 0.000000 -1.000000 0.000000
vn 0.000000 -1.000000 0.000000
vn 0.000000 -1.000000 0.000000
vn 0.000000 -1.000000 0.000000
vn 0.000000 -1.000000 0.000000
vn 0.000000 -1.000000 0.000000
vn 0.000000 -1.000000 0.000000
vn 0.000000 -1.000000 0.000000
vn 0.000000 -1.000000 0.000000
vn 0.000000 -1.000000 0.000000
vn 0.000000 -1.000000 0.000000
vn 0.000000 -1.000000 0.000000
vn 0.000000 -1.000000 0.000000
vn 0.000000 -1.000000 0.000000
vn 0.638867 -0.000000 -0.769317
vn 0.638867 -0.000000 -0.769317
vn 0.339620 -0.000000 -0.940563
vn 0.339620 -0.000000 -0.940563
vn 0.000000 -0.000000 -1.000000
vn 0.000000 -0.000000 -1.000000
vn 1.000000 0.000000 0.000000
vn 1.000000 0.000000 0.000000
vn 1.000000 0.000000 0.000000
vn 1.000000 0.000000 0.000000
vn 0.000000 -0.000000 -1.000000
vn 0.000000 -0.000000 -1.000000
vn 0.000000 -0.000000 -1.000000
vn 0.000000 -0.000000 -1.000000
vn -1.000000 0.000000 0.000000
vn -1.000000 0.000000 0.000000
vn -1.000000 0.000000 0.000000
vn -1.000000 0.000000 0.000000
vn 0.000000 0.000000 1.000000
vn 0.000000 0.000000 1.000000
vn 0.359094 0.000000 0.933301
vn 0.359094 0.000000 0.933301
vn 0.359094 0.000000 0.933301
vn 0.359094 0.000000 0.933301
vn 0.670286 0.000000 0.742103
vn 0.670286 0.000000 0.742103
vn -0.356104 0.000000 0.934446
vn -0.665520 0.000000 0.746380
vn -0.665520 0.000000 0.746380
vn -0.356104 0.000000 0.934446
vn 0.000000 0.000000 1.000000
vn 0.000000 0.000000 1.000000
vn -0.667545 -0.000000 -0.744569
vn -0.667545 -0.000000 -0.744569
vn -0.357373 -0.000000 -0.933962
vn -0.357373 -0.000000 -0.933962
vn 0.000000 -0.000000 -1.000000
vn 0.000000 -0.000000 -1.000000
vn 1.000000 0.000000 0.000000
vn 1.000000 0.000000 0.000000
vn 1.000000 0.000000 0.000000
vn 1.000000 0.000000 0.000000
vn -0.560311 -0.000000 -0.828283
vn -0.560311 -0.000000 -0.828283
vn -0.560311 -0.000000 -0.828283
vn -0.560311 -0.000000 -0.828283
vn 0.355354 -0.000000 -0.934732
vn 0.355354 -0.000000 -0.934732
vn 0.355354 -0.000000 -0.934732
vn 0.355354 -0.000000 -0.934732
vn -0.707107 -0.000000 -0.707107
vn -0.707107 -0.000000 -0.707107
vn -0.707107 -0.000000 -0.707107
vn -0.707107 -0.000000 -0.707107
vn -0.680268 0.000000 0.732964
vn -0.680268 0.000000 0.732964
vn -0.517880 0.000000 0.855453
vn -0.517880 0.000000 0.855453
vn -0.334067 0.000000 0.942549
vn -0.334067 0.000000 0.942549
vn -1.000000 0.000000 0.000000
vn -1.000000 0.000000 0.000000
vn -1.000000 0.000000 0.000000
vn -1.000000 0.000000 0.000000
vn -0.698213 -0.000000 -0.715890
vn -0.698213 -0.000000 -0.715890
vn -0.698213 -0.000000 -0.715890
vn -0.698213 -0.000000 -0.715890
vn 0.462139 -0.000000 -0.886807
vn 0.462139 -0.000000 -0.886807
vn 0.462139 -0.000000 -0.886807
vn 0.462139 -0.000000 -0.886807
vn -1.000000 0.000000 0.000000
vn -1.000000 0.000000 0.000000
vn -1.000000 0.000000 0.000000
vn -1.000000 0.000000 0.000000
vn -0.378879 0.000000 0.925446
vn -0.378879 0.000000 0.925446
vn -0.378879 0.000000 0.925446
vn -0.378879 0.000000 0.925446
vn 0.672222 0.000000 0.740349
vn 0.672222 0.000000 0.740349
vn 0.672222 0.000000 0.740349
vn 0.672222 0.000000 0.740349
vn 1.000000 0.000000 0.000000
vn 1.000000 0.000000 0.000000
vn 0.949783 0.000000 0.312909
vn 0.949783 0.000000 0.312909
vn 0.804177 0.000000 0.594391
vn 0.804177 0.000000 0.594391
vn -0.454779 0.000000 0.890604
vn -0.454779 0.000000 0.890604
vn -0.454779 0.000000 0.890604
vn -0.454779 0.000000 0.890604
vn 1.000000 0.000000 0.000000
vn 1.000000 0.000000 0.000000
vn 1.000000 0.000000 0.000000
vn 1.000000 0.000000 0.000000
vn 0.376956 -0.000000 -0.926231
vn 0.376956 -0.000000 -0.926231
vn 0.376956 -0.000000 -0.926231
vn 0.376956 -0.000000 -0.926231
vn 0.701516 0.000000 0.712654
vn 0.701516 0.000000 0.712654
vn 0.701516 0.000000 0.712654
vn 0.701516 0.000000 0.712654
vn -0.428584 0.000000 0.903502
vn -0.428584 0.000000 0.903502
vn -0.428584 0.000000 0.903502
vn -0.428584 0.000000 0.903502
vn -1.000000 0.000000 0.000000
vn -1.000000 0.000000 0.000000
vn -1.000000 0.000000 0.000000
vn -1.000000 0.000000 0.000000
vn 0.594551 -0.000000 -0.804058
vn 0.594551 -0.000000 -0.804058
vn 0.594551 -0.000000 -0.804058
vn 0.594551 -0.000000 -0.804058
vn 0.444518 -0.000000 -0.895770
vn 0.444518 -0.000000 -0.895770
vn 0.444518 -0.000000 -0.895770
vn 0.444518 -0.000000 -0.895770
vn -0.755968 -0.000000 -0.654608
vn -0.755968 -0.000000 -0.654608
vn -0.937008 -0.000000 -0.349308
vn -0.937008 -0.000000 -0.349308
vn -1.000000 0.000000 0.000000
vn -1.000000 0.000000 0.000000
vn 0.000000 0.000000 1.000000
vn 0.000000 0.000000 1.000000
vn 0.000000 0.000000 1.000000
vn 0.000000 0.000000 1.000000
vn 1.000000 0.000000 0.000000
vn 1.000000 0.000000 0.000000
vn 0.930734 0.000000 0.365697
vn 0.930734 0.000000 0.365697
vn 0.732531 0.000000 0.680734
vn 0.732531 0.000000 0.680734
vn -0.507374 0.000000 0.861726
vn -0.507374 0.000000 0.861726
vn -0.507374 0.000000 0.861726
vn -0.507374 0.000000 0.861726
vn -1.000000 0.000000 0.000000
vn -1.000000 0.000000 0.000000
vn -1.000000 0.000000 0.000000
vn -1.000000 0.000000 0.000000
vn 0.000000 0.000000 1.000000
vn 0.000000 0.000000 1.000000
vn 0.000000 0.000000 1.000000
vn 0.000000 0.000000 1.000000
vn 1.000000 0.000000 0.000000
vn 1.000000 0.000000 0.000000
vn 1.000000 0.000000 0.000000
vn 1.000000 0.000000 0.000000
vn 0.000000 -0.000000 -1.000000
vn 0.000000 -0.000000 -1.000000
vn 0.000000 -0.000000 -1.000000
vn 0.000000 -0.000000 -1.000000
vn -1.000000 0.000000 0.000000
vn -1.000000 0.000000 0.000000
vn -1.000000 0.000000 0.000000
vn -1.000000 0.000000 0.000000
vn -1.000000 0.000000 0.000000
vn -1.000000 0.000000 0.000000
vn -1.000000 0.000000 0.000000
vn -1.000000 0.000000 0.000000
vn 0.000000 0.000000 1.000000
vn 0.000000 0.000000 1.000000
vn 0.000000 0.000000 1.000000
vn 0.000000 0.000000 1.000000
vn 1.000000 0.000000 0.000000
vn 1.000000 0.000000 0.000000
vn 1.000000 0.000000 0.000000
vn 1.000000 0.000000 0.000000
vn 0.000000 -0.000000 -1.000000
vn 0.000000 -0.000000 -1.000000
vn 0.000000 -0.000000 -1.000000
vn 0.000000 -0.000000 -1.000000
vn 0.000000 0.000000 1.000000
vn 0.000000 0.000000 1.000000
vn 0.000000 0.000000 1.000000
vn 0.000000 0.000000 1.000000
vn 1.000000 0.000000 0.000000
vn 1.000000 0.000000 0.000000
vn 0.996544 -0.000000 -0.083070
vn 0.996544 -0.000000 -0.083070
vn 0.986199 -0.000000 -0.165566
vn 0.986199 -0.000000 -0.165566
vn 0.000000 -0.000000 -1.000000
vn 0.000000 -0.000000 -1.000000
vn 0.000000 -0.000000 -1.000000
vn 0.000000 -0.000000 -1.000000
vn -0.986199 -0.000000 -0.165566
vn -0.986199 -0.000000 -0.165566
vn -0.996544 -0.000000 -0.083070
vn -0.996544 -0.000000 -0.083070
vn -1.000000 0.000000 0.000000
vn -1.000000 0.000000 0.000000
vn 0.570654 -0.000000 -0.821191
vn 0.570654 -0.000000 -0.821191
vn 0.570654 -0.000000 -0.821191
vn 0.570654 -0.000000 -0.821191
vn 0.636699 0.000000 0.771112
vn 0.636699 0.000000 0.771112
vn 0.712216 0.000000 0.701961
vn 0.712216 0.000000 0.701961
vn 0.712216 0.000000 0.701961
vn 0.712216 0.000000 0.701961
vn 0.780264 0.000000 0.625450
vn 0.780264 0.000000 0.625450
vn 0.665613 -0.000000 -0.746297
vn 0.665613 -0.000000 -0.746297
vn 0.665613 -0.000000 -0.746297
vn 0.665613 -0.000000 -0.746297
vn -0.254190 -0.000000 -0.967154
vn -0.254190 -0.000000 -0.967154
vn -0.254190 -0.000000 -0.967154
vn -0.254190 -0.000000 -0.967154
vn -1.000000 0.000000 0.000000
vn -1.000000 0.000000 0.000000
vn -1.000000 0.000000 0.000000
vn -1.000000 0.000000 0.000000
vn 0.372478 0.000000 0.928041
vn 0.372478 0.000000 0.928041
vn 0.372478 0.000000 0.928041
vn 0.372478 0.000000 0.928041
vn -0.611447 0.000000 0.791285
vn -0.611447 0.000000 0.791285
vn -0.611447 0.000000 0.791285
vn -0.611447 0.000000 0.791285
vn -0.716994 -0.000000 -0.697079
vn -0.716994 -0.000000 -0.697079
vn -0.716994 -0.000000 -0.697079
vn -0.716994 -0.000000 -0.697079
vn -0.636076 0.000000 0.771627
vn -0.636076 0.000000 0.771627
vn -0.636076 0.000000 0.771627
vn -0.636076 0.000000 0.771627
vn 0.269911 0.000000 0.962885
vn 0.269911 0.000000 0.962885
vn 0.269911 0.000000 0.962885
vn 0.269911 0.000000 0.962885
vn 1.000000 0.000000 0.000000
vn 1.000000 0.000000 0.000000
vn 1.000000 0.000000 0.000000
vn 1.000000 0.000000 0.000000
vn -0.339995 -0.000000 -0.940427
vn -0.339995 -0.000000 -0.940427
vn -0.339995 -0.000000 -0.940427
vn -0.339995 -0.000000 -0.940427
vn -1.000000 0.000000 0.000000
vn -1.000000 0.000000 0.000000
vn -1.000000 0.000000 0.000000
vn -1.000000 0.000000 0.000000
vn 0.000000 -0.000000 -1.000000
vn 0.000000 -0.000000 -1.000000
vn 0.000000 -0.000000 -1.000000
vn 0.000000 -0.000000 -1.000000
vn 1.000000 0.000000 0.000000
vn 1.000000 0.000000 0.000000
vn 1.000000 0.000000 0.000000
vn 1.000000 0.000000 0.000000
vn 0.000000 -0.000000 -1.000000
vn 0.000000 -0.000000 -1.000000
vn 0.000000 -0.000000 -1.000000
vn 0.000000 -0.000000 -1.000000
vn -1.000000 0.000000 0.000000
vn -1.000000 0.000000 0.000000
vn -1.000000 0.000000 0.000000
vn -1.000000 0.000000 0.000000
vn 0.000000 0.000000 1.000000
vn 0.000000 0.000000 1.000000
vn 0.000000 0.000000 1.000000
vn 0.000000 0.000000 1.000000
vn 1.000000 0.000000 0.000000
vn 1.000000 0.000000 0.000000
vn 1.000000 0.000000 0.000000
vn 1.000000 0.000000 0.000000
vn 0.000000 0.000000 1.000000
vn 0.000000 0.000000 1.000000
vn 0.000000 0.000000 1.000000
vn 0.000000 0.000000 1.000000
vn -1.000000 0.000000 0.000000
vn -1.000000 0.000000 0.000000
vn -1.000000 0.000000 0.000000
vn -1.000000 0.000000 0.000000
vn 0.000000 0.000000 1.000000
vn 0.000000 0.000000 1.000000
vn 0.000000 0.000000 1.000000
vn 0.000000 0.000000 1.000000
vn 1.000000 0.000000 0.000000
vn 1.000000 0.000000 0.000000
vn 1.000000 0.000000 0.000000
vn 1.000000 0.000000 0.000000
vn 0.000000 -0.000000 -1.000000
vn 0.000000 -0.000000 -1.000000
vn 0.000000 -0.000000 -1.000000
vn 0.000000 -0.000000 -1.000000
vn -0.560305 -0.000000 -0.828286
vn -0.560305 -0.000000 -0.828286
vn -0.560305 -0.000000 -0.828286
vn -0.560305 -0.000000 -0.828286
vn 0.355348 -0.000000 -0.934734
vn 0.355348 -0.000000 -0.934734
vn 0.355348 -0.000000 -0.934734
vn 0.355348 -0.000000 -0.934734
vn -0.707108 -0.000000 -0.707106
vn -0.707108 -0.000000 -0.707106
vn -0.707108 -0.000000 -0.707106
vn -0.707108 -0.000000 -0.707106
vn -0.680268 0.000000 0.732964
vn -0.680268 0.000000 0.732964
vn -0.517880 0.000000 0.855453
vn -0.517880 0.000000 0.855453
vn -0.334067 0.000000 0.942549
vn -0.334067 0.000000 0.942549
vn -1.000000 0.000000 0.000000
vn -1.000000 0.000000 0.000000
vn -1.000000 0.000000 0.000000
vn -1.000000 0.000000 0.000000
vn -0.698213 -0.000000 -0.715890
vn -0.698213 -0.000000 -0.715890
vn -0.698213 -0.000000 -0.715890
vn -0.698213 -0.000000 -0.715890
vn 0.462139 -0.000000 -0.886807
vn 0.462139 -0.000000 -0.886807
vn 0.462139 -0.000000 -0.886807
vn 0.462139 -0.000000 -0.886807
vn -1.000000 0.000000 0.000000
vn -1.000000 0.000000 0.000000
vn -1.000000 0.000000 0.000000
vn -1.000000 0.000000 0.000000
vn -0.378879 0.000000 0.925446
vn -0.378879 0.000000 0.925446
vn -0.378879 0.000000 0.925446
vn -0.378879 0.000000 0.925446
vn 0.672222 0.000000 0.740349
vn 0.672222 0.000000 0.740349
vn 0.672222 0.000000 0.740349
vn 0.672222 0.000000 0.740349
vn 1.000000 0.000000 0.000000
vn 1.000000 0.000000 0.000000
vn 0.949783 0.000000 0.312911
vn 0.949783 0.000000 0.312911
vn 0.804174 0.000000 0.594394
vn 0.804174 0.000000 0.594394
vn -0.454775 0.000000 0.890606
vn -0.454775 0.000000 0.890606
vn -0.454775 0.000000 0.890606
vn -0.454775 0.000000 0.890606
vn 1.000000 0.000000 0.000000
vn 1.000000 0.000000 0.000000
vn 1.000000 0.000000 0.000000
vn 1.000000 0.000000 0.000000
vn 0.376951 -0.000000 -0.926233
vn 0.376951 -0.000000 -0.926233
vn 0.376951 -0.000000 -0.926233
vn 0.376951 -0.000000 -0.926233
vn 0.701516 0.000000 0.712654
vn 0.701516 0.000000 0.712654
vn 0.701516 0.000000 0.712654
vn 0.701516 0.000000 0.712654
vn -0.428584 0.000000 0.903502
vn -0.428584 0.000000 0.903502
vn -0.428584 0.000000 0.903502
vn -0.428584 0.000000 0.903502
vn -1.000000 0.000000 0.000000
vn -1.000000 0.000000 0.000000
vn -1.000000 0.000000 0.000000
vn -1.000000 0.000000 0.000000
vn 0.594551 -0.000000 -0.804058
vn 0.594551 -0.000000 -0.804058
vn 0.594551 -0.000000 -0.804058
vn 0.594551 -0.000000 -0.804058
vn 1.000000 0.000000 0.000000
vn 1.000000 0.000000 0.000000
vn 1.000000 0.000000 0.000000
vn 1.000000 0.000000 0.000000
vn 0.000000 -0.000000 -1.000000
vn 0.000000 -0.000000 -1.000000
vn 0.000000 -0.000000 -1.000000
vn 0.000000 -0.000000 -1.000000
vn 1.000000 0.000000 0.000000
vn 1.000000 0.000000 0.000000
vn 0.929570 0.000000 0.368646
vn 0.929570 0.000000 0.368646
vn 0.728201 0.000000 0.685364
vn 0.728201 0.000000 0.685364
vn -0.310578 0.000000 0.950548
vn -0.310578 0.000000 0.950548
vn -0.310578 0.000000 0.950548
vn -0.310578 0.000000 0.950548
vn 1.000000 0.000000 0.000000
vn 1.000000 0.000000 0.000000
vn 1.000000 0.000000 0.000000
vn 1.000000 0.000000 0.000000
vn 0.267644 -0.000000 -0.963518
vn 0.267644 -0.000000 -0.963518
vn 0.267644 -0.000000 -0.963518
vn 0.267644 -0.000000 -0.963518
vn -0.694682 -0.000000 -0.719317
vn -0.694682 -0.000000 -0.719317
vn -0.694682 -0.000000 -0.719317
vn -0.694682 -0.000000 -0.719317
vn -1.000000 0.000000 0.000000
vn -1.000000 0.000000 0.000000
vn -1.000000 0.000000 0.000000
vn -1.000000 0.000000 0.000000
vn 0.000000 -0.000000 -1.000000
vn 0.000000 -0.000000 -1.000000
vn 0.000000 -0.000000 -1.000000
vn 0.000000 -0.000000 -1.000000
vn -1.000000 0.000000 0.000000
vn -1.000000 0.000000 0.000000
vn -1.000000 0.000000 0.000000
vn -1.000000 0.000000 0.000000
vn -0.698484 0.000000 0.715626
vn -0.698484 0.000000 0.715626
vn -0.698484 0.000000 0.715626
vn -0.698484 0.000000 0.715626
vn 1.000000 0.000000 0.000000
vn 1.000000 0.000000 0.000000
vn 1.000000 0.000000 0.000000
vn 1.000000 0.000000 0.000000
vn 0.000000 0.000000 1.000000
vn 0.000000 0.000000 1.000000
vn 0.000000 0.000000 1.000000
vn 0.000000 0.000000 1.000000
vn 0.570654 -0.000000 -0.821191
vn 0.570654 -0.000000 -0.821191
vn 0.570654 -0.000000 -0.821191
vn 0.570654 -0.000000 -0.821191
vn 0.636699 0.000000 0.771112
vn 0.636699 0.000000 0.771112
vn 0.712215 0.000000 0.701961
vn 0.712215 0.000000 0.701961
vn 0.712215 0.000000 0.701961
vn 0.712215 0.000000 0.701961
vn 0.780265 0.000000 0.625450
vn 0.780265 0.000000 0.625450
vn 0.665614 -0.000000 -0.746296
vn 0.665614 -0.000000 -0.746296
vn 0.665614 -0.000000 -0.746296
vn 0.665614 -0.000000 -0.746296
vn -0.254188 -0.000000 -0.967155
vn -0.254188 -0.000000 -0.967155
vn -0.254188 -0.000000 -0.967155
vn -0.254188 -0.000000 -0.967155
vn -1.000000 0.000000 0.000000
vn -1.000000 0.000000 0.000000
vn -1.000000 0.000000 0.000000
vn -1.000000 0.000000 0.000000
vn 0.372481 0.000000 0.928040
vn 0.372481 0.000000 0.928040
vn 0.372481 0.000000 0.928040
vn 0.372481 0.000000 0.928040
vn -0.611450 0.000000 0.791283
vn -0.611450 0.000000 0.791283
vn -0.611450 0.000000 0.791283
vn -0.611450 0.000000 0.791283
vn -0.716994 -0.000000 -0.697079
vn -0.716994 -0.000000 -0.697079
vn -0.716994 -0.000000 -0.697079
vn -0.716994 -0.000000 -0.697079
vn -0.636076 0.000000 0.771627
vn -0.636076 0.000000 0.771627
vn -0.636076 0.000000 0.771627
vn -0.636076 0.000000 0.771627
vn 0.269909 0.000000 0.962886
vn 0.269909 0.000000 0.962886
vn 0.269909 0.000000 0.962886
vn 0.269909 0.000000 0.962886
vn 1.000000 0.000000 0.000000
vn 1.000000 0.000000 0.000000
vn 1.000000 0.000000 0.000000
vn 1.000000 0.000000 0.000000
vn -0.339993 -0.000000 -0.940428
vn -0.339993 -0.000000 -0.940428
vn -0.339993 -0.000000 -0.940428
vn -0.339993 -0.000000 -0.940428
vn 0.000000 -1.000000 0.000000
vn 0.000000 -1.000000 0.000000
vn 0.000000 -1.000000 0.000000
vn 0.000000 -1.000000 0.000000
vn 0.000000 -1.000000 0.000000
vn 0.000000 -1.000000 0.000000
vn 0.000000 -1.000000 0.000000
vn 0.000000 -1.000000 0.000000
vn 0.000000 -1.000000 0.000000
vn 0.000000 -1.000000 0.000000
vn 0.000000 -1.000000 0.000000
vn 0.000000 -1.000000 0.000000
vn 0.000000 -1.000000 0.000000
vn 0.000000 -1.000000 0.000000
vn 0.000000 -1.000000 0.000000
vn 0.000000 -1.000000 0.000000
vn 0.000000 -1.000000 0.000000
vn 0.000000 -1.000000 0.000000
vn 0.000000 -1.000000 0.000000
vn 0.000000 -1.000000 0.000000
vn 0.184571 0.000000 0.982819
vn 0.184571 0.000000 0.982819
vn 0.184571 0.000000 0.982819
vn 0.184571 0.000000 0.982819
vn 0.982819 -0.000000 -0.184571
vn 0.982819 -0.000000 -0.184571
vn 0.982819 -0.000000 -0.184571
vn 0.982819 -0.000000 -0.184571
vn -0.982819 0.000000 0.184571
vn -0.982819 0.000000 0.184571
vn -0.982819 0.000000 0.184571
vn -0.982819 0.000000 0.184571
vn 0.982819 -0.000000 -0.184570
vn 0.982819 -0.000000 -0.184570
vn 0.982819 -0.000000 -0.184570
vn 0.982819 -0.000000 -0.184570
vn 0.184571 0.000000 0.982819
vn 0.184571 0.000000 0.982819
vn 0.184571 0.000000 0.982819
vn 0.184571 0.000000 0.982819
vn -0.982819 0.000000 0.184573
vn -0.982819 0.000000 0.184573
vn -0.982819 0.000000 0.184573
vn -0.982819 0.000000 0.184573
vn 0.184571 0.000000 0.982819
vn 0.184571 0.000000 0.982819
vn 0.184571 0.000000 0.982819
vn 0.184571 0.000000 0.982819
vn 0.000000 -1.000000 0.000000
vn 0.000000 -1.000000 0.000000
vn 0.000000 -1.000000 0.000000
vn 0.000000 -1.000000 0.000000
vn 0.000000 -1.000000 0.000000
vn 0.000000 -1.000000 0.000000
vn 0.000000 -1.000000 0.000000
vn 0.000000 -1.000000 0.000000
vn -1.000000 0.000000 0.000000
vn -1.000000 0.000000 0.000000
vn -1.000000 0.000000 0.000000
vn -1.000000 0.000000 0.000000
vn 0.000000 1.000000 -0.000000
vn 0.000000 1.000000 -0.000000
vn 0.000000 1.000000 -0.000000
vn 0.000000 1.000000 -0.000000
vn 1.000000 0.000000 0.000000
vn 1.000000 0.000000 0.000000
vn 1.000000 0.000000 0.000000
vn 1.000000 0.000000 0.000000
vn 0.000000 -1.000000 0.000000
vn 0.000000 -1.000000 0.000000
vn 0.000000 -1.000000 0.000000
vn 0.000000 -1.000000 0.000000
vn 0.000000 0.000000 1.000000
vn 0.000000 0.000000 1.000000
vn 0.000000 0.000000 1.000000
vn 0.000000 0.000000 1.000000
vn 0.000000 -0.000000 -1.000000
vn 0.000000 -0.000000 -1.000000
vn 0.000000 -0.000000 -1.000000
vn 0.000000 -0.000000 -1.000000
vn 0.000000 0.000000 1.000000
vn 0.000000 0.000000 1.000000
vn 0.000000 0.000000 1.000000
vn 0.000000 0.000000 1.000000
vn 1.000000 0.000000 0.000000
vn 1.000000 0.000000 0.000000
vn 1.000000 0.000000 0.000000
vn 1.000000 0.000000 0.000000
vn 0.000000 -1.000000 0.000000
vn 0.000000 -1.000000 0.000000
vn 0.000000 -1.000000 0.000000
vn 0.000000 -1.000000 0.000000
vn -1.000000 0.000000 0.000000
vn -1.000000 0.000000 0.000000
vn -1.000000 0.000000 0.000000
vn -1.000000 0.000000 0.000000
vn 0.000000 1.000000 -0.000000
vn 0.000000 1.000000 -0.000000
vn 0.000000 1.000000 -0.000000
vn 0.000000 1.000000 -0.000000
f 3/3/3 2/2/2 1/1/1
f 4/4/4 3/3/3 1/1/1
f 7/7/7 6/6/6 5/5/5
f 8/8/8 7/7/7 5/5/5
f 11/11/11 10/10/10 9/9/9
f 12/12/12 11/11/11 9/9/9
f 15/15/15 14/14/14 13/13/13
f 16/16/16 15/15/15 13/13/13
f 19/19/19 18/18/18 17/17/17
f 20/20/20 19/19/19 17/17/17
f 23/23/23 22/22/22 21/21/21
f 22/22/22 23/23/23 24/24/24
f 24/24/24 25/25/25 22/22/22
f 23/23/23 26/26/26 24/24/24
f 26/26/26 27/27/27 24/24/24
f 26/26/26 28/28/28 27/27/27
f 31/31/31 30/30/30 29/29/29
f 32/32/32 31/31/31 29/29/29
f 35/35/35 34/34/34 33/33/33
f 36/36/36 35/35/35 33/33/33
f 39/39/39 38/38/38 37/37/37
f 37/37/37 40/40/40 39/39/39
f 37/37/37 41/41/41 40/40/40
f 37/37/37 42/42/42 41/41/41
f 41/41/41 43/43/43 40/40/40
f 43/43/43 41/41/41 44/44/44
f 43/43/43 44/44/44 45/45/45
f 44/44/44 46/46/46 45/45/45
f 43/43/43 45/45/45 47/47/47
f 47/47/47 48/48/48 43/43/43
f 51/51/51 50/50/50 49/49/49
f 49/49/49 52/52/52 51/51/51
f 49/49/49 53/53/53 52/52/52
f 53/53/53 54/54/54 52/52/52
f 57/57/57 56/56/56 55/55/55
f 57/57/57 55/55/55 58/58/58
f 59/59/59 57/57/57 58/58/58
f 59/59/59 58/58/58 60/60/60
f 61/61/61 59/59/59 60/60/60
f 62/62/62 61/61/61 60/60/60
f 62/62/62 60/60/60 63/63/63
f 62/62/62 63/63/63 64/64/64
f 65/65/65 62/62/62 64/64/64
f 64/64/64 66/66/66 65/65/65
f 66/66/66 64/64/64 67/67/67
f 70/70/70 69/69/69 68/68/68
f 68/68/68 71/71/71 70/70/70
f 68/68/68 72/72/72 71/71/71
f 72/72/72 73/73/73 71/71/71
f 76/76/76 75/75/75 74/74/74
f 77/77/77 76/76/76 74/74/74
f 80/80/80 79/79/79 78/78/78
f 81/81/81 80/80/80 78/78/78
f 82/82/82 81/81/81 78/78/78
f 82/82/82 78/78/78 83/83/83
f 83/83/83 84/84/84 82/82/82
f 85/85/85 82/82/82 84/84/84
f 86/86/86 85/85/85 84/84/84
f 86/86/86 87/87/87 85/85/85
f 86/86/86 84/84/84 88/88/88
f 88/88/88 89/89/89 86/86/86
f 92/92/92 91/91/91 90/90/90
f 90/90/90 93/93/93 92/92/92
f 90/90/90 94/94/94 93/93/93
f 93/93/93 95/95/95 92/92/92
f 96/96/96 92/92/92 95/95/95
f 95/95/95 97/97/97 96/96/96
f 97/97/97 95/95/95 98/98/98
f 98/98/98 99/99/99 97/97/97
f 100/100/100 95/95/95 93/93/93
f 93/93/93 101/101/101 100/100/100
f 98/98/98 102/102/102 99/99/99
f 100/100/100 101/101/101 103/103/103
f 103/103/103 102/102/102 100/100/100
f 104/104/104 99/99/99 102/102/102
f 103/103/103 104/104/104 102/102/102
f 103/103/103 105/105/105 104/104/104
f 103/103/103 106/106/106 105/105/105
f 103/103/103 107/107/107 106/106/106
f 107/107/107 108/108/108 106/106/106
f 109/109/109 106/106/106 108/108/108
f 112/112/112 111/111/111 110/110/110
f 110/110/110 113/113/113 112/112/112
f 110/110/110 114/114/114 113/113/113
f 110/110/110 115/115/115 114/114/114
f 115/115/115 110/110/110 116/116/116
f 116/116/116 117/117/117 115/115/115
f 116/116/116 118/118/118 117/117/117
f 119/119/119 117/117/117 118/118/118
f 112/112/112 113/113/113 119/119/119
f 112/112/112 119/119/119 118/118/118
f 112/112/112 118/118/118 120/120/120
f 120/120/120 121/121/121 112/112/112
f 124/124/124 123/123/123 122/122/122
f 124/124/124 122/122/122 125/125/125
f 126/126/126 124/124/124 125/125/125
f 126/126/126 125/125/125 127/127/127
f 128/128/128 126/126/126 127/127/127
f 129/129/129 128/128/128 127/127/127
f 129/129/129 127/127/127 130/130/130
f 129/129/129 130/130/130 131/131/131
f 132/132/132 129/129/129 131/131/131
f 131/131/131 133/133/133 132/132/132
f 133/133/133 131/131/131 134/134/134
f 137/137/137 136/136/136 135/135/135
f 138/138/138 137/137/137 135/135/135
f 139/139/139 137/137/137 138/138/138
f 140/140/140 139/139/139 138/138/138
f 143/143/143 142/142/142 141/141/141
f 144/144/144 143/143/143 141/141/141
f 147/147/147 146/146/146 145/145/145
f 148/148/148 147/147/147 145/145/145
f 151/151/151 150/150/150 149/149/149
f 152/152/152 151/151/151 149/149/149
f 155/155/155 154/154/154 153/153/153
f 156/156/156 155/155/155 153/153/153
f 159/159/159 158/158/158 157/157/157
f 160/160/160 159/159/159 157/157/157
f 163/163/163 162/162/162 161/161/161
f 162/162/162 164/164/164 161/161/161
f 161/161/161 164/164/164 165/165/165
f 164/164/164 166/166/166 165/165/165
f 169/169/169 168/168/168 167/167/167
f 170/170/170 169/169/169 167/167/167
f 171/171/171 169/169/169 170/170/170
f 172/172/172 171/171/171 170/170/170
f 175/175/175 174/174/174 173/173/173
f 176/176/176 175/175/175 173/173/173
f 179/179/179 178/178/178 177/177/177
f 180/180/180 179/179/179 177/177/177
f 183/183/183 182/182/182 181/181/181
f 184/184/184 183/183/183 181/181/181
f 187/187/187 186/186/186 185/185/185
f 188/188/188 187/187/187 185/185/185
f 191/191/191 190/190/190 189/189/189
f 192/192/192 191/191/191 189/189/189
f 193/193/193 191/191/191 192/192/192
f 194/194/194 193/193/193 192/192/192
f 197/197/197 196/196/196 195/195/195
f 198/198/198 197/197/197 195/195/195
f 201/201/201 200/200/200 199/199/199
f 202/202/202 201/201/201 199/199/199
f 205/205/205 204/204/204 203/203/203
f 206/206/206 205/205/205 203/203/203
f 209/209/209 208/208/208 207/207/207
f 210/210/210 209/209/209 207/207/207
f 213/213/213 212/212/212 211/211/211
f 214/214/214 213/213/213 211/211/211
f 217/217/217 216/216/216 215/215/215
f 218/218/218 217/217/217 215/215/215
f 221/221/221 220/220/220 219/219/219
f 222/222/222 221/221/221 219/219/219
f 223/223/223 221/221/221 222/222/222
f 224/224/224 223/223/223 222/222/222
f 227/227/227 226/226/226 225/225/225
f 228/228/228 227/227/227 225/225/225
f 231/231/231 230/230/230 229/229/229
f 232/232/232 231/231/231 229/229/229
f 235/235/235 234/234/234 233/233/233
f 236/236/236 235/235/235 233/233/233
f 239/239/239 238/238/238 237/237/237
f 240/240/240 239/239/239 237/237/237
f 243/243/243 242/242/242 241/241/241
f 244/244/244 243/243/243 241/241/241
f 247/247/247 246/246/246 245/245/245
f 248/248/248 247/247/247 245/245/245
f 251/251/251 250/250/250 249/249/249
f 252/252/252 251/251/251 249/249/249
f 255/255/255 254/254/254 253/253/253
f 256/256/256 255/255/255 253/253/253
f 259/259/259 258/258/258 257/257/257
f 260/260/260 259/259/259 257/257/257
f 261/261/261 259/259/259 260/260/260
f 262/262/262 261/261/261 260/260/260
f 265/265/265 264/264/264 263/263/263
f 266/266/266 265/265/265 263/263/263
f 269/269/269 268/268/268 267/267/267
f 270/270/270 269/269/269 267/267/267
f 271/271/271 269/269/269 270/270/270
f 272/272/272 271/271/271 270/270/270
f 275/275/275 274/274/274 273/273/273
f 276/276/276 275/275/275 273/273/273
f 279/279/279 278/278/278 277/277/277
f 280/280/280 279/279/279 277/277/277
f 283/283/283 282/282/282 281/281/281
f 284/284/284 283/283/283 281/281/281
f 287/287/287 286/286/286 285/285/285
f 288/288/288 287/287/287 285/285/285
f 291/291/291 290/290/290 289/289/289
f 292/292/292 291/291/291 289/289/289
f 295/295/295 294/294/294 293/293/293
f 296/296/296 295/295/295 293/293/293
f 299/299/299 298/298/298 297/297/297
f 300/300/300 299/299/299 297/297/297
f 303/303/303 302/302/302 301/301/301
f 304/304/304 303/303/303 301/301/301
f 307/307/307 306/306/306 305/305/305
f 308/308/308 307/307/307 305/305/305
f 311/311/311 310/310/310 309/309/309
f 312/312/312 311/311/311 309/309/309
f 315/315/315 314/314/314 313/313/313
f 316/316/316 315/315/315 313/313/313
f 319/319/319 318/318/318 317/317/317
f 320/320/320 319/319/319 317/317/317
f 321/321/321 319/319/319 320/320/320
f 322/322/322 321/321/321 320/320/320
f 325/325/325 324/324/324 323/323/323
f 326/326/326 325/325/325 323/323/323
f 329/329/329 328/328/328 327/327/327
f 330/330/330 329/329/329 327/327/327
f 331/331/331 329/329/329 330/330/330
f 332/332/332 331/331/331 330/330/330
f 335/335/335 334/334/334 333/333/333
f 336/336/336 335/335/335 333/333/333
f 339/339/339 338/338/338 337/337/337
f 340/340/340 339/339/339 337/337/337
f 343/343/343 342/342/342 341/341/341
f 344/344/344 343/343/343 341/341/341
f 347/347/347 346/346/346 345/345/345
f 348/348/348 347/347/347 345/345/345
f 351/351/351 350/350/350 349/349/349
f 352/352/352 351/351/351 349/349/349
f 355/355/355 354/354/354 353/353/353
f 356/356/356 355/355/355 353/353/353
f 359/359/359 358/358/358 357/357/357
f 360/360/360 359/359/359 357/357/357
f 363/363/363 362/362/362 361/361/361
f 364/364/364 363/363/363 361/361/361
f 367/367/367 366/366/366 365/365/365
f 368/368/368 367/367/367 365/365/365
f 371/371/371 370/370/370 369/369/369
f 372/372/372 371/371/371 369/369/369
f 375/375/375 374/374/374 373/373/373
f 376/376/376 375/375/375 373/373/373
f 379/379/379 378/378/378 377/377/377
f 380/380/380 379/379/379 377/377/377
f 383/383/383 382/382/382 381/381/381
f 384/384/384 383/383/383 381/381/381
f 387/387/387 386/386/386 385/385/385
f 388/388/388 387/387/387 385/385/385
f 391/391/391 390/390/390 389/389/389
f 392/392/392 391/391/391 389/389/389
f 395/395/395 394/394/394 393/393/393
f 396/396/396 395/395/395 393/393/393
f 399/399/399 398/398/398 397/397/397
f 400/400/400 399/399/399 397/397/397
f 403/403/403 402/402/402 401/401/401
f 404/404/404 403/403/403 401/401/401
f 407/407/407 406/406/406 405/405/405
f 408/408/408 407/407/407 405/405/405
f 411/411/411 410/410/410 409/409/409
f 412/412/412 411/411/411 409/409/409
f 415/415/415 414/414/414 413/413/413
f 416/416/416 415/415/415 413/413/413
f 419/419/419 418/418/418 417/417/417
f 420/420/420 419/419/419 417/417/417
f 423/423/423 422/422/422 421/421/421
f 424/424/424 423/423/423 421/421/421
f 427/427/427 426/426/426 425/425/425
f 428/428/428 427/427/427 425/425/425
f 431/431/431 430/430/430 429/429/429
f 432/432/432 431/431/431 429/429/429
f 435/435/435 434/434/434 433/433/433
f 436/436/436 435/435/435 433/433/433
f 439/439/439 438/438/438 437/437/437
f 440/440/440 439/439/439 437/437/437
f 443/443/443 442/442/442 441/441/441
f 444/444/444 443/443/443 441/441/441
f 447/447/447 446/446/446 445/445/445
f 448/448/448 447/447/447 445/445/445
f 449/449/449 447/447/447 448/448/448
f 450/450/450 449/449/449 448/448/448
f 453/453/453 452/452/452 451/451/451
f 454/454/454 453/453/453 451/451/451
f 457/457/457 456/456/456 455/455/455
f 458/458/458 457/457/457 455/455/455
f 461/461/461 460/460/460 459/459/459
f 462/462/462 461/461/461 459/459/459
f 465/465/465 464/464/464 463/463/463
f 466/466/466 465/465/465 463/463/463
f 469/469/469 468/468/468 467/467/467
f 470/470/470 469/469/469 467/467/467
f 473/473/473 472/472/472 471/471/471
f 474/474/474 473/473/473 471/471/471
f 477/477/477 476/476/476 475/475/475
f 478/478/478 477/477/477 475/475/475
f 479/479/479 477/477/477 478/478/478
f 480/480/480 479/479/479 478/478/478
f 483/483/483 482/482/482 481/481/481
f 484/484/484 483/483/483 481/481/481
f 487/487/487 486/486/486 485/485/485
f 488/488/488 487/487/487 485/485/485
f 491/491/491 490/490/490 489/489/489
f 492/492/492 491/491/491 489/489/489
f 495/495/495 494/494/494 493/493/493
f 496/496/496 495/495/495 493/493/493
f 499/499/499 498/498/498 497/497/497
f 500/500/500 499/499/499 497/497/497
f 503/503/503 502/502/502 501/501/501
f 504/504/504 503/503/503 501/501/501
f 507/507/507 506/506/506 505/505/505
f 508/508/508 507/507/507 505/505/505
f 511/511/511 510/510/510 509/509/509
f 512/512/512 511/511/511 509/509/509
f 515/515/515 514/514/514 513/513/513
f 516/516/516 515/515/515 513/513/513
f 519/519/519 518/518/518 517/517/517
f 520/520/520 519/519/519 517/517/517
f 521/521/521 519/519/519 520/520/520
f 522/522/522 521/521/521 520/520/520
f 525/525/525 524/524/524 523/523/523
f 526/526/526 525/525/525 523/523/523
f 529/529/529 528/528/528 527/527/527
f 530/530/530 529/529/529 527/527/527
f 533/533/533 532/532/532 531/531/531
f 534/534/534 533/533/533 531/531/531
f 537/537/537 536/536/536 535/535/535
f 538/538/538 537/537/537 535/535/535
f 541/541/541 540/540/540 539/539/539
f 542/542/542 541/541/541 539/539/539
f 545/545/545 544/544/544 543/543/543
f 546/546/546 545/545/545 543/543/543
f 549/549/549 548/548/548 547/547/547
f 550/550/550 549/549/549 547/547/547
f 553/553/553 552/552/552 551/551/551
f 554/554/554 553/553/553 551/551/551
f 557/557/557 556/556/556 555/555/555
f 558/558/558 557/557/557 555/555/555
f 561/561/561 560/560/560 559/559/559
f 562/562/562 561/561/561 559/559/559
f 565/565/565 564/564/564 563/563/563
f 566/566/566 565/565/565 563/563/563
f 569/569/569 568/568/568 567/567/567
f 570/570/570 569/569/569 567/567/567
f 573/573/573 572/572/572 571/571/571
f 574/574/574 573/573/573 571/571/571
f 577/577/577 576/576/576 575/575/575
f 578/578/578 577/577/577 575/575/575
f 581/581/581 580/580/580 579/579/579
f 582/582/582 581/581/581 579/579/579
f 585/585/585 584/584/584 583/583/583
f 586/586/586 585/585/585 583/583/583
f 589/589/589 588/588/588 587/587/587
f 590/590/590 589/589/589 587/587/587
f 593/593/593 592/592/592 591/591/591
f 594/594/594 593/593/593 591/591/591
f 597/597/597 596/596/596 595/595/595
f 598/598/598 597/597/597 595/595/595
f 601/601/601 600/600/600 599/599/599
f 602/602/602 601/601/601 599/599/599
f 605/605/605 604/604/604 603/603/603
f 606/606/606 605/605/605 603/603/603
f 609/609/609 608/608/608 607/607/607
f 610/610/610 609/609/609 607/607/607
f 613/613/613 612/612/612 611/611/611
f 614/614/614 613/613/613 611/611/611
f 617/617/617 616/616/616 615/615/615
f 618/618/618 615/615/615 616/616/616
f 619/619/619 618/618/618 616/616/616
f 619/619/619 616/616/616 620/620/620
f 619/619/619 620/620/620 621/621/621
f 619/619/619 621/621/621 622/622/622
f 621/621/621 623/623/623 622/622/622
f 619/619/619 622/622/622 624/624/624
f 625/625/625 622/622/622 623/623/623
f 626/626/626 619/619/619 624/624/624
f 623/623/623 627/627/627 625/625/625
f 624/624/624 628/628/628 626/626/626
f 628/628/628 625/625/625 627/627/627
f 628/628/628 627/627/627 629/629/629
f 628/628/628 630/630/630 626/626/626
f 629/629/629 631/631/631 628/628/628
f 630/630/630 628/628/628 631/631/631
f 632/632/632 630/630/630 631/631/631
f 631/631/631 633/633/633 632/632/632
f 632/632/632 634/634/634 630/630/630
f 637/637/637 636/636/636 635/635/635
f 638/638/638 637/637/637 635/635/635
f 641/641/641 640/640/640 639/639/639
f 642/642/642 641/641/641 639/639/639
f 645/645/645 644/644/644 643/643/643
f 646/646/646 645/645/645 643/643/643
f 649/649/649 648/648/648 647/647/647
f 650/650/650 649/649/649 647/647/647
f 653/653/653 652/652/652 651/651/651
f 654/654/654 653/653/653 651/651/651
f 657/657/657 656/656/656 655/655/655
f 658/658/658 657/657/657 655/655/655
f 661/661/661 660/660/660 659/659/659
f 662/662/662 661/661/661 659/659/659
f 665/665/665 664/664/664 663/663/663
f 663/663/663 666/666/666 665/665/665
f 666/666/666 667/667/667 665/665/665
f 667/667/667 668/668/668 665/665/665
f 665/665/665 668/668/668 669/669/669
f 667/667/667 670/670/670 668/668/668
f 673/673/673 672/672/672 671/671/671
f 674/674/674 673/673/673 671/671/671
f 677/677/677 676/676/676 675/675/675
f 678/678/678 677/677/677 675/675/675
f 681/681/681 680/680/680 679/679/679
f 682/682/682 681/681/681 679/679/679
f 685/685/685 684/684/684 683/683/683
f 686/686/686 685/685/685 683/683/683
f 689/689/689 688/688/688 687/687/687
f 690/690/690 689/689/689 687/687/687
f 693/693/693 692/692/692 691/691/691
f 694/694/694 693/693/693 691/691/691
f 697/697/697 696/696/696 695/695/695
f 698/698/698 697/697/697 695/695/695
f 701/701/701 700/700/700 699/699/699
f 702/702/702 701/701/701 699/699/699
f 705/705/705 704/704/704 703/703/703
f 706/706/706 705/705/705 703/703/703
f 709/709/709 708/708/708 707/707/707
f 710/710/710 709/709/709 707/707/707
f 713/713/713 712/712/712 711/711/711
f 714/714/714 713/713/713 711/711/711
