g Model_0
v -0.192274004 -0.784621 -0.614836991
v 0.139430001 -3.61563993 -0.278263986
v 0.139429003 -2.87170911 -0.478495985
v -0.192274004 -0.784621 -0.614836991
v -0.603743017 -1.07429898 0.0150929997
v -0.163491994 0.287315011 -0.614836991
v -0.163491994 0.287315011 -0.614836991
v -0.539255023 0.509499013 0.0150929997
v 0.139424995 3.06754899 -0.478493005
v 0.139424995 4.01984596 -0.143637002
v 0.139424995 3.06754899 -0.478493005
v -0.163491994 0.287315011 -0.614836991
v -0.192274004 -0.784621 -0.614836991
v 0.818108022 0.50950098 0.0150929997
v 0.139424995 4.15483522 0.895879984
v 0.139424995 4.01984596 -0.143637002
v 0.967404008 0.616726995 0.838714004
v 0.139424995 4.15483522 0.895879984
v 0.882601023 -1.074296 0.0150929997
v 1.04608297 -1.19885898 0.838714004
v 0.139430001 -3.61563993 -0.278263986
v 0.139430001 -3.84771109 0.815904975
v 0.139430001 -3.84771109 0.815904975
v -0.767225027 -1.19886196 0.838714004
v 1.04608297 -1.19885898 0.838714004
v 0.139424995 4.15483522 0.895879984
v 0.967404008 0.616726995 0.838714004
v -0.688549995 0.616725981 0.838714004
v -0.424944997 0.126140997 0.919713974
v -0.424944997 0.126140997 0.719713986
v -0.424944997 0.326141 0.719713986
v -0.424944997 0.326141 0.919713974
v 0.536143005 0.326141 0.919713974
v 0.536143005 0.326141 0.719713986
v 0.708387971 0.326141 0.719713986
v 0.708387971 0.326141 0.919713974
v 0.708387971 0.326141 0.919713974
v 0.708387971 0.326141 0.719713986
v 0.708387971 0.126140997 0.719713986
v 0.708387971 0.126140997 0.919713974
v 0.536143005 0.126140997 0.919713974
v 0.536143005 -0.706285 0.919713974
v 0.536143005 -0.706285 0.719713986
v 0.536143005 0.126140997 0.719713986
v 0.536143005 0.126140997 0.719713986
v 0.708387971 0.126140997 0.719713986
v 0.708387971 0.326141 0.719713986
v 0.536143005 0.326141 0.719713986
v -0.252700001 0.126140997 0.919713974
v -0.424944997 0.126140997 0.919713974
v -0.424944997 0.326141 0.919713974
v -0.252700001 0.326141 0.919713974
v -0.424944997 0.326141 0.919713974
v -0.424944997 0.326141 0.719713986
v -0.252700001 0.326141 0.719713986
v -0.252700001 0.326141 0.919713974
v -0.252700001 0.326141 0.919713974
v -0.252700001 0.326141 0.719713986
v 0.536143005 0.326141 0.719713986
v 0.536143005 0.326141 0.919713974
v -0.252700001 0.126140997 0.719713986
v -0.252700001 -0.706285 0.719713986
v -0.252700001 -0.706285 0.919713974
v -0.252700001 0.126140997 0.919713974
v 0.536143005 0.126140997 0.919713974
v 0.536143005 0.126140997 0.719713986
v -0.252700001 0.126140997 0.719713986
v -0.252700001 0.126140997 0.919713974
v -0.424944997 0.126140997 0.719713986
v -0.252700001 0.126140997 0.719713986
v -0.252700001 0.326141 0.719713986
v -0.424944997 0.326141 0.719713986
v -0.252700001 0.126140997 0.719713986
v 0.536143005 0.126140997 0.719713986
v 0.536143005 0.326141 0.719713986
v -0.252700001 0.326141 0.719713986
v 0.708387971 0.126140997 0.919713974
v 0.536143005 0.126140997 0.919713974
v 0.536143005 0.326141 0.919713974
v 0.708387971 0.326141 0.919713974
v 0.536143005 0.126140997 0.919713974
v -0.252700001 0.126140997 0.919713974
v -0.252700001 0.326141 0.919713974
v 0.536143005 0.326141 0.919713974
v 0.536143005 -0.706285 0.719713986
v 0.536143005 -0.706285 0.919713974
v -0.252700001 -0.706285 0.919713974
v -0.252700001 -0.706285 0.719713986
v -0.252700001 -0.903963983 0.719713986
v 0.536143005 -0.903963983 0.719713986
v 0.536143005 -0.706285 0.719713986
v -0.252700001 -0.706285 0.719713986
v -0.424944997 0.126140997 0.719713986
v -0.424944997 -0.706285 0.719713986
v -0.252700001 -0.706285 0.719713986
v -0.252700001 0.126140997 0.719713986
v 0.708387971 0.126140997 0.919713974
v 0.708387971 -0.706285 0.919713974
v 0.536143005 -0.706285 0.919713974
v 0.536143005 0.126140997 0.919713974
v 0.536143005 0.126140997 0.719713986
v 0.536143005 -0.706285 0.719713986
v 0.708387971 -0.706285 0.719713986
v 0.708387971 0.126140997 0.719713986
v -0.252700001 0.126140997 0.919713974
v -0.252700001 -0.706285 0.919713974
v -0.424944997 -0.706285 0.919713974
v -0.424944997 0.126140997 0.919713974
v 0.708387971 0.126140997 0.719713986
v 0.708387971 -0.706285 0.719713986
v 0.708387971 -0.706285 0.919713974
v 0.708387971 0.126140997 0.919713974
v -0.424944997 0.126140997 0.919713974
v -0.424944997 -0.706285 0.919713974
v -0.424944997 -0.706285 0.719713986
v -0.424944997 0.126140997 0.719713986
v -0.252700001 -0.903963983 0.919713974
v -0.252700001 -0.903963983 0.719713986
v -0.424944997 -0.903963983 0.719713986
v -0.424944997 -0.903963983 0.919713974
v 0.708387971 -0.903963983 0.919713974
v 0.708387971 -0.903963983 0.719713986
v 0.536143005 -0.903963983 0.719713986
v 0.536143005 -0.903963983 0.919713974
v -0.424944997 -0.706285 0.719713986
v -0.424944997 -0.903963983 0.719713986
v -0.252700001 -0.903963983 0.719713986
v -0.252700001 -0.706285 0.719713986
v 0.708387971 -0.706285 0.919713974
v 0.708387971 -0.903963983 0.919713974
v 0.536143005 -0.903963983 0.919713974
v 0.536143005 -0.706285 0.919713974
v 0.536143005 -0.706285 0.719713986
v 0.536143005 -0.903963983 0.719713986
v 0.708387971 -0.903963983 0.719713986
v 0.708387971 -0.706285 0.719713986
v -0.252700001 -0.706285 0.919713974
v -0.252700001 -0.903963983 0.919713974
v -0.424944997 -0.903963983 0.919713974
v -0.424944997 -0.706285 0.919713974
v 0.708387971 -0.706285 0.719713986
v 0.708387971 -0.903963983 0.719713986
v 0.708387971 -0.903963983 0.919713974
v 0.708387971 -0.706285 0.919713974
v -0.424944997 -0.706285 0.919713974
v -0.424944997 -0.903963983 0.919713974
v -0.424944997 -0.903963983 0.719713986
v -0.424944997 -0.706285 0.719713986
v -0.252700001 -0.706285 0.919713974
v 0.536143005 -0.706285 0.919713974
v 0.536143005 -0.903963983 0.919713974
v -0.252700001 -0.903963983 0.919713974
v 0.536143005 -0.903963983 0.719713986
v -0.252700001 -0.903963983 0.719713986
v -0.252700001 -0.903963983 0.919713974
v 0.536143005 -0.903963983 0.919713974
v 0.139429003 -2.87170911 -0.478495985
v 0.139430001 -3.61563993 -0.278263986
v 0.882601023 -1.074296 0.0150929997
v 0.471130997 -0.784618974 -0.614836991
v 0.818108022 0.50950098 0.0150929997
v 0.442344993 0.287317008 -0.614836991
v 0.139424995 4.01984596 -0.143637002
v 0.139424995 3.06754899 -0.478493005
v 0.139424995 4.01984596 -0.143637002
v 0.139424995 4.15483522 0.895879984
v -0.688549995 0.616725981 0.838714004
v -0.539255023 0.509499013 0.0150929997
v -0.767225027 -1.19886196 0.838714004
v -0.603743017 -1.07429898 0.0150929997
v 0.139430001 -3.84771109 0.815904975
v 0.139430001 -3.61563993 -0.278263986
v 0.442344993 0.287317008 -0.614836991
v 0.139424995 3.06754899 -0.478493005
v -0.192274004 -0.784621 -0.614836991
v 0.471130997 -0.784618974 -0.614836991
v 0.139429003 -2.87170911 -0.478495985
v -0.767225027 -1.19886196 0.838714004
v -0.363310009 -0.794564009 0.838714004
v 0.642166972 -0.794562995 0.838714004
v 1.04608297 -1.19885898 0.838714004
v 0.589861989 0.21243 0.838714004
v 0.967404008 0.616726995 0.838714004
v -0.363310009 -0.794564009 0.838714004
v -0.303036004 -0.734214008 -0.259030014
v 0.581893027 -0.734212995 -0.259030014
v 0.642166972 -0.794562995 0.838714004
v 0.967404008 0.616726995 0.838714004
v 0.589861989 0.21243 0.838714004
v -0.311008006 0.212429002 0.838714004
v -0.688549995 0.616725981 0.838714004
v -0.363310009 -0.794564009 0.838714004
v -0.767225027 -1.19886196 0.838714004
v -0.303036004 -0.734214008 -0.259030014
v -0.255964011 0.152079001 -0.259030014
v 0.534819007 0.152079999 -0.259030014
v 0.581893027 -0.734212995 -0.259030014
v 0.589861989 0.21243 0.838714004
v 0.534819007 0.152079999 -0.259030014
v -0.255964011 0.152079001 -0.259030014
v -0.311008006 0.212429002 0.838714004
v 0.642166972 -0.794562995 0.838714004
v 0.581893027 -0.734212995 -0.259030014
v 0.534819007 0.152079999 -0.259030014
v 0.589861989 0.21243 0.838714004
v -0.311008006 0.212429002 0.838714004
v -0.255964011 0.152079001 -0.259030014
v -0.303036004 -0.734214008 -0.259030014
v -0.363310009 -0.794564009 0.838714004
vt 0.169686005 0.331871003
vt 0.169887006 0.333521992
vt 0.169989005 0.333397001
vt 0.169686005 0.331871003
vt 0.169540003 0.331923991
vt 0.169686005 0.329849988
vt 0.169686005 0.329849988
vt 0.169540003 0.32980901
vt 0.170353994 0.327791005
vt 0.170304999 0.327654004
vt 0.171038002 0.327791005
vt 0.169686005 0.329849988
vt 0.169686005 0.331871003
vt 0.174961999 0.330163985
vt 0.175757006 0.327654004
vt 0.175051004 0.327969998
vt 0.175672993 0.330067992
vt 0.175757006 0.327654004
vt 0.174950004 0.332316995
vt 0.175659999 0.332435995
vt 0.175051004 0.333943009
vt 0.175757006 0.334224999
vt 0.174814999 0.327654004
vt 0.109380998 0.208002001
vt 0.175659999 0.332435995
vt 0.175757006 0.327654004
vt 0.109380998 0.208002001
vt 0.174731001 0.331811011
vt 0.647849977 0.415421009
vt 0.647849977 0.503413975
vt 0.735843003 0.503413975
vt 0.735843003 0.415421009
vt 0.647849977 0.415421009
vt 0.647849977 0.503413975
vt 0.735843003 0.503413975
vt 0.735843003 0.415421009
vt 0.647849977 0.415421009
vt 0.647849977 0.503413975
vt 0.735843003 0.503413975
vt 0.735843003 0.415421009
vt 0.647849977 0.415421009
vt 0.647849977 0.503413975
vt 0.735843003 0.503413975
vt 0.735843003 0.415421009
vt 0.647849977 0.415421009
vt 0.647849977 0.503413975
vt 0.735843003 0.503413975
vt 0.735843003 0.415421009
vt 0.647849977 0.415421009
vt 0.647849977 0.503413975
vt 0.735843003 0.503413975
vt 0.735843003 0.415421009
vt 0.647849977 0.415421009
vt 0.647849977 0.503413975
vt 0.735843003 0.503413975
vt 0.735843003 0.415421009
vt 0.647849977 0.415421009
vt 0.647849977 0.503413975
vt 0.735843003 0.503413975
vt 0.735843003 0.415421009
vt 0.647849977 0.415421009
vt 0.647849977 0.503413975
vt 0.735843003 0.503413975
vt 0.735843003 0.415421009
vt 0.647849977 0.415421009
vt 0.647849977 0.503413975
vt 0.735843003 0.503413975
vt 0.735843003 0.415421009
vt 0.647849977 0.415421009
vt 0.647849977 0.503413975
vt 0.735843003 0.503413975
vt 0.735843003 0.415421009
vt 0.647849977 0.415421009
vt 0.647849977 0.503413975
vt 0.735843003 0.503413975
vt 0.735843003 0.415421009
vt 0.647849977 0.415421009
vt 0.647849977 0.503413975
vt 0.735843003 0.503413975
vt 0.735843003 0.415421009
vt 0.647849977 0.415421009
vt 0.647849977 0.503413975
vt 0.735843003 0.503413975
vt 0.735843003 0.415421009
vt 0.647849977 0.415421009
vt 0.647849977 0.503413975
vt 0.735843003 0.503413975
vt 0.735843003 0.415421009
vt 0.647849977 0.415421009
vt 0.647849977 0.503413975
vt 0.735843003 0.503413975
vt 0.735843003 0.415421009
vt 0.647849977 0.415421009
vt 0.647849977 0.503413975
vt 0.735843003 0.503413975
vt 0.735843003 0.415421009
vt 0.647849977 0.415421009
vt 0.647849977 0.503413975
vt 0.735843003 0.503413975
vt 0.735843003 0.415421009
vt 0.647849977 0.415421009
vt 0.647849977 0.503413975
vt 0.735843003 0.503413975
vt 0.735843003 0.415421009
vt 0.647849977 0.415421009
vt 0.647849977 0.503413975
vt 0.735843003 0.503413975
vt 0.735843003 0.415421009
vt 0.647849977 0.415421009
vt 0.647849977 0.503413975
vt 0.735843003 0.503413975
vt 0.735843003 0.415421009
vt 0.647849977 0.415421009
vt 0.647849977 0.503413975
vt 0.735843003 0.503413975
vt 0.735843003 0.415421009
vt 0.647849977 0.415421009
vt 0.647849977 0.503413975
vt 0.735843003 0.503413975
vt 0.735843003 0.415421009
vt 0.647849977 0.415421009
vt 0.647849977 0.503413975
vt 0.735843003 0.503413975
vt 0.735843003 0.415421009
vt 0.647849977 0.415421009
vt 0.647849977 0.503413975
vt 0.735843003 0.503413975
vt 0.735843003 0.415421009
vt 0.647849977 0.415421009
vt 0.647849977 0.503413975
vt 0.735843003 0.503413975
vt 0.735843003 0.415421009
vt 0.647849977 0.415421009
vt 0.647849977 0.503413975
vt 0.735843003 0.503413975
vt 0.735843003 0.415421009
vt 0.647849977 0.415421009
vt 0.647849977 0.503413975
vt 0.735843003 0.503413975
vt 0.735843003 0.415421009
vt 0.647849977 0.415421009
vt 0.647849977 0.503413975
vt 0.735843003 0.503413975
vt 0.735843003 0.415421009
vt 0.647849977 0.415421009
vt 0.647849977 0.503413975
vt 0.735843003 0.503413975
vt 0.735843003 0.415421009
vt 0.647849977 0.415421009
vt 0.647849977 0.503413975
vt 0.735843003 0.503413975
vt 0.735843003 0.415421009
vt 0.647849977 0.415421009
vt 0.647849977 0.503413975
vt 0.735843003 0.503413975
vt 0.735843003 0.415421009
vt 0.171404004 0.333397001
vt 0.171506003 0.333521992
vt 0.171851993 0.331923991
vt 0.171707004 0.331871003
vt 0.171851993 0.32980901
vt 0.171707004 0.329849988
vt 0.171087995 0.327654004
vt 0.171038002 0.327791005
vt 0.174108997 0.333909005
vt 0.174814999 0.334224999
vt 0.174731001 0.331811011
vt 0.174020007 0.331714988
vt 0.174718007 0.329443008
vt 0.174007997 0.329562008
vt 0.174814999 0.327654004
vt 0.174108997 0.327935994
vt 0.171707004 0.329849988
vt 0.171038002 0.327791005
vt 0.169686005 0.331871003
vt 0.171707004 0.331871003
vt 0.169989005 0.333397001
vt 0.109380998 0.208002001
vt 0.109380998 0.208002001
vt 0.175659999 0.332435995
vt 0.175659999 0.332435995
vt 0.175672993 0.330067992
vt 0.175672993 0.330067992
vt 0.788221002 0.403537989
vt 0.788221002 0.403537989
vt 0.854499996 0.527971029
vt 0.854499996 0.527971029
vt 0.109380998 0.208002001
vt 0.109380998 0.208002001
vt 0.174731001 0.331811011
vt 0.174731001 0.331811011
vt 0.174718007 0.329443008
vt 0.174718007 0.329443008
vt 0.788221002 0.403537989
vt 0.853558004 0.524977982
vt 0.788221002 0.403537989
vt 0.85451299 0.52560401
vt 0.788221002 0.403537989
vt 0.788221002 0.403537989
vt 0.853570998 0.527346015
vt 0.853570998 0.527346015
vt 0.854499996 0.527971029
vt 0.854499996 0.527971029
vt 0.85451299 0.52560401
vt 0.85451299 0.52560401
vt 0.853570998 0.527346015
vt 0.853570998 0.527346015
vt 0.853558004 0.524977982
vt 0.853558004 0.524977982
vn -0.8229267 -0.0669335872 -0.564190924
vn -0.89609015 -0.235325962 -0.376356393
vn -0.788180411 -0.162908122 -0.593491793
vn -0.8229267 -0.0669335872 -0.564190924
vn -0.922333777 -0.0994663611 -0.373372227
vn -0.854735136 0.0811223313 -0.512686014
vn -0.854735136 0.0811223313 -0.512686014
vn -0.935995817 0.104755655 -0.33606261
vn -0.858576715 0.132211566 -0.49534443
vn -0.935939848 0.173067272 -0.306699246
vn 0.483583719 0.0593438074 -0.873284101
vn 0.512743235 -0.0137674082 -0.858431697
vn 0.114220515 -0.00971295312 -0.993407965
vn 0.9359954 0.104757518 -0.336063117
vn 0.972831368 0.20644033 -0.104792438
vn 0.935939431 0.17306821 -0.306699902
vn 0.981429219 0.124421768 -0.146000206
vn 0.972831368 0.20644033 -0.104792438
vn 0.922333777 -0.0994644836 -0.373372823
vn 0.978365779 -0.127516448 -0.162910521
vn 0.89609015 -0.235325024 -0.376356989
vn 0.946617603 -0.292673349 -0.135120258
vn -0 -0.00861059688 0.999962926
vn -0 -0.00287022302 0.999995947
vn -0 -0.00287022302 0.999995947
vn -0 -0.0161551051 0.999869466
vn -0 -0.00538519165 0.999985576
vn -0 -0.00538519165 0.999985576
vn -1 0 0
vn -1 0 0
vn -1 0 0
vn -1 0 0
vn -0 1 0
vn -0 1 0
vn -0 1 0
vn -0 1 0
vn 1 0 0
vn 1 0 0
vn 1 0 0
vn 1 0 0
vn -1 0 0
vn -1 0 0
vn -1 0 0
vn -1 0 0
vn -0 0 -1
vn -0 0 -1
vn -0 0 -1
vn -0 0 -1
vn -0 0 1
vn -0 0 1
vn -0 0 1
vn -0 0 1
vn -0 1 0
vn -0 1 0
vn -0 1 0
vn -0 1 0
vn -0 1 0
vn -0 1 0
vn -0 1 0
vn -0 1 0
vn 1 0 0
vn 1 0 0
vn 1 0 0
vn 1 0 0
vn -0 -1 0
vn -0 -1 0
vn -0 -1 0
vn -0 -1 0
vn -0 0 -1
vn -0 0 -1
vn -0 0 -1
vn -0 0 -1
vn -0 0 -1
vn -0 0 -1
vn -0 0 -1
vn -0 0 -1
vn -0 0 1
vn -0 0 1
vn -0 0 1
vn -0 0 1
vn -0 0 1
vn -0 0 1
vn -0 0 1
vn -0 0 1
vn -0 1 0
vn -0 1 0
vn -0 1 0
vn -0 1 0
vn -0 0 -1
vn -0 0 -1
vn -0 0 -1
vn -0 0 -1
vn -0 0 -1
vn -0 0 -1
vn -0 0 -1
vn -0 0 -1
vn -0 0 1
vn -0 0 1
vn -0 0 1
vn -0 0 1
vn -0 0 -1
vn -0 0 -1
vn -0 0 -1
vn -0 0 -1
vn -0 0 1
vn -0 0 1
vn -0 0 1
vn -0 0 1
vn 1 0 0
vn 1 0 0
vn 1 0 0
vn 1 0 0
vn -1 0 0
vn -1 0 0
vn -1 0 0
vn -1 0 0
vn -0 -1 0
vn -0 -1 0
vn -0 -1 0
vn -0 -1 0
vn -0 -1 0
vn -0 -1 0
vn -0 -1 0
vn -0 -1 0
vn -0 0 -1
vn -0 0 -1
vn -0 0 -1
vn -0 0 -1
vn -0 0 1
vn -0 0 1
vn -0 0 1
vn -0 0 1
vn -0 0 -1
vn -0 0 -1
vn -0 0 -1
vn -0 0 -1
vn -0 0 1
vn -0 0 1
vn -0 0 1
vn -0 0 1
vn 1 0 0
vn 1 0 0
vn 1 0 0
vn 1 0 0
vn -1 0 0
vn -1 0 0
vn -1 0 0
vn -1 0 0
vn -0 0 1
vn -0 0 1
vn -0 0 1
vn -0 0 1
vn -0 -1 0
vn -0 -1 0
vn -0 -1 0
vn -0 -1 0
vn 0.788179755 -0.162907198 -0.593492925
vn 0.89609015 -0.235325024 -0.376356989
vn 0.922333777 -0.0994644836 -0.373372823
vn 0.822926342 -0.0669316873 -0.564191818
vn 0.9359954 0.104757518 -0.336063117
vn 0.8547346 0.0811241716 -0.51268661
vn 0.935939431 0.17306821 -0.306699902
vn 0.710303366 0.061351046 -0.701216936
vn -0.935939848 0.173067272 -0.306699246
vn -0.972831666 0.206439331 -0.104791939
vn -0.981429398 0.124419935 -0.14599973
vn -0.935995817 0.104755655 -0.33606261
vn -0.97836566 -0.127518237 -0.162910327
vn -0.922333777 -0.0994663611 -0.373372227
vn -0.946617246 -0.292674303 -0.135120362
vn -0.89609015 -0.235325962 -0.376356393
vn -0.034893401 0.0206579268 -0.999177516
vn 0.232247829 0.0144243222 -0.972549617
vn 0.114220515 -0.00971295312 -0.993407965
vn -0 -0.0326108299 -0.999468148
vn -0 -0.0651869699 -0.997873068
vn -0 -0.00287022302 0.999995947
vn -0 0 1
vn -0 0 1
vn -0 -0.00287022302 0.999995947
vn -0 0 1
vn -0 -0.00538519165 0.999985576
vn -0 0.998492241 0.0548934937
vn -0 0.998492241 0.0548934937
vn -0 0.998492241 0.0548934937
vn -0 0.998492241 0.0548934937
vn -0 -0.00538519165 0.999985576
vn -0 0 1
vn -0 0 1
vn -0 -0.00538519165 0.999985576
vn -0 0 1
vn -0 -0.00287022302 0.999995947
vn -0 0 1
vn -0 0 1
vn -0 0 1
vn -0 0 1
vn -0 -0.998492241 0.0548934974
vn -0 -0.998492241 0.0548934974
vn -0 -0.998492241 0.0548934974
vn -0 -0.998492241 0.0548934974
vn -0.997254312 -0.0523460992 0.0523802899
vn -0.997254312 -0.0523460992 0.0523802899
vn -0.997254312 -0.0523460992 0.0523802899
vn -0.997254312 -0.0523460992 0.0523802899
vn 0.997254431 -0.0523434691 0.0523807853
vn 0.997254431 -0.0523434691 0.0523807853
vn 0.997254431 -0.0523434691 0.0523807853
vn 0.997254431 -0.0523434691 0.0523807853
g Model_0_0
f 3/3/3 2/2/2 1/1/1
f 2/2/2 5/5/5 4/4/4
f 4/4/4 5/5/5 6/6/6
f 5/5/5 8/8/8 7/7/7
f 7/7/7 8/8/8 9/9/9
f 8/8/8 10/10/10 9/9/9
f 13/13/13 12/12/12 11/11/11
f 16/16/16 15/15/15 14/14/14
f 18/18/18 17/17/17 14/14/14
f 14/14/14 17/17/17 19/19/19
f 17/17/17 20/20/20 19/19/19
f 19/19/19 20/20/20 21/21/21
f 20/20/20 22/22/22 21/21/21
f 25/25/25 24/24/24 23/23/23
f 28/28/28 27/27/27 26/26/26
f 31/31/31 30/30/30 29/29/29
f 32/32/32 31/31/31 29/29/29
f 35/35/35 34/34/34 33/33/33
f 36/36/36 35/35/35 33/33/33
f 39/39/39 38/38/38 37/37/37
f 40/40/40 39/39/39 37/37/37
f 43/43/43 42/42/42 41/41/41
f 44/44/44 43/43/43 41/41/41
f 47/47/47 46/46/46 45/45/45
f 48/48/48 47/47/47 45/45/45
f 51/51/51 50/50/50 49/49/49
f 52/52/52 51/51/51 49/49/49
f 55/55/55 54/54/54 53/53/53
f 56/56/56 55/55/55 53/53/53
f 59/59/59 58/58/58 57/57/57
f 60/60/60 59/59/59 57/57/57
f 63/63/63 62/62/62 61/61/61
f 64/64/64 63/63/63 61/61/61
f 67/67/67 66/66/66 65/65/65
f 68/68/68 67/67/67 65/65/65
f 71/71/71 70/70/70 69/69/69
f 72/72/72 71/71/71 69/69/69
f 75/75/75 74/74/74 73/73/73
f 76/76/76 75/75/75 73/73/73
f 79/79/79 78/78/78 77/77/77
f 80/80/80 79/79/79 77/77/77
f 83/83/83 82/82/82 81/81/81
f 84/84/84 83/83/83 81/81/81
f 87/87/87 86/86/86 85/85/85
f 88/88/88 87/87/87 85/85/85
f 91/91/91 90/90/90 89/89/89
f 92/92/92 91/91/91 89/89/89
f 95/95/95 94/94/94 93/93/93
f 96/96/96 95/95/95 93/93/93
f 99/99/99 98/98/98 97/97/97
f 100/100/100 99/99/99 97/97/97
f 103/103/103 102/102/102 101/101/101
f 104/104/104 103/103/103 101/101/101
f 107/107/107 106/106/106 105/105/105
f 108/108/108 107/107/107 105/105/105
f 111/111/111 110/110/110 109/109/109
f 112/112/112 111/111/111 109/109/109
f 115/115/115 114/114/114 113/113/113
f 116/116/116 115/115/115 113/113/113
f 119/119/119 118/118/118 117/117/117
f 120/120/120 119/119/119 117/117/117
f 123/123/123 122/122/122 121/121/121
f 124/124/124 123/123/123 121/121/121
f 127/127/127 126/126/126 125/125/125
f 128/128/128 127/127/127 125/125/125
f 131/131/131 130/130/130 129/129/129
f 132/132/132 131/131/131 129/129/129
f 135/135/135 134/134/134 133/133/133
f 136/136/136 135/135/135 133/133/133
f 139/139/139 138/138/138 137/137/137
f 140/140/140 139/139/139 137/137/137
f 143/143/143 142/142/142 141/141/141
f 144/144/144 143/143/143 141/141/141
f 147/147/147 146/146/146 145/145/145
f 148/148/148 147/147/147 145/145/145
f 151/151/151 150/150/150 149/149/149
f 152/152/152 151/151/151 149/149/149
f 155/155/155 154/154/154 153/153/153
f 156/156/156 155/155/155 153/153/153
f 159/159/159 158/158/158 157/157/157
f 160/160/160 159/159/159 157/157/157
f 161/161/161 159/159/159 160/160/160
f 162/162/162 161/161/161 160/160/160
f 163/163/163 161/161/161 162/162/162
f 164/164/164 163/163/163 162/162/162
f 167/167/167 166/166/166 165/165/165
f 168/168/168 167/167/167 165/165/165
f 169/169/169 167/167/167 168/168/168
f 170/170/170 169/169/169 168/168/168
f 171/171/171 169/169/169 170/170/170
f 172/172/172 171/171/171 170/170/170
f 175/175/175 174/174/174 173/173/173
f 173/173/173 176/176/176 175/175/175
f 176/176/176 177/177/177 175/175/175
f 180/180/180 179/179/179 178/178/178
f 181/181/181 180/180/180 178/178/178
f 182/182/182 180/180/180 181/181/181
f 183/183/183 182/182/182 181/181/181
f 186/186/186 185/185/185 184/184/184
f 187/187/187 186/186/186 184/184/184
f 190/190/190 189/189/189 188/188/188
f 191/191/191 190/190/190 188/188/188
f 192/192/192 190/190/190 191/191/191
f 193/193/193 192/192/192 191/191/191
f 196/196/196 195/195/195 194/194/194
f 197/197/197 196/196/196 194/194/194
f 200/200/200 199/199/199 198/198/198
f 201/201/201 200/200/200 198/198/198
f 204/204/204 203/203/203 202/202/202
f 205/205/205 204/204/204 202/202/202
f 208/208/208 207/207/207 206/206/206
f 209/209/209 208/208/208 206/206/206
