v 0.739427 1.954001 0.802147
v 0.139425 3.764126 0.895880
v 0.139425 4.404835 0.895880
v 0.739427 1.954001 0.802147
v 0.959427 2.016356 0.776133
v 0.739429 -2.245999 0.802147
v 0.959429 -2.327295 0.776133
v 0.139430 -4.097711 0.815905
v 0.139430 -3.468717 0.815905
v 0.739429 -2.245999 0.802147
v -0.160573 1.686943 -0.614837
v -0.532714 -2.202734 0.015093
v -0.160572 -1.913056 -0.614837
v -0.160572 -1.913056 -0.614837
v 0.139430 -3.865640 -0.278264
v 0.139429 -3.121709 -0.478496
v -0.160573 1.686943 -0.614837
v -0.532716 1.909127 0.015093
v 0.139425 3.317549 -0.478493
v 0.139425 4.269846 -0.143637
v -0.680573 2.016354 0.776133
v 0.139425 4.404835 0.895880
v 0.139425 3.764126 0.895880
v -0.460573 1.954000 0.802147
v -0.680573 2.016354 0.776133
v -0.680571 -2.327297 0.776133
v -0.460571 -2.246001 0.802147
v 0.139430 -4.097711 0.815905
v -0.460571 -2.246001 0.802147
v 0.139430 -3.468717 0.815905
v 0.439427 1.686945 -0.614837
v 0.139425 3.317549 -0.478493
v -0.160572 -1.913056 -0.614837
v -0.160572 -1.913056 -0.614837
v 0.439428 -1.913055 -0.614837
v 0.139429 -3.121709 -0.478496
v 0.139425 3.317549 -0.478493
v -0.160573 1.686943 -0.614837
v -0.160572 -1.913056 -0.614837
v -0.360571 -2.139429 0.080000
v -0.360573 1.860572 0.080000
v 0.139425 3.688006 -0.118503
v 0.740445 0.908408 0.561268
v 0.740445 0.908408 0.441268
v -0.461591 0.908405 0.441268
v -0.461591 0.908405 0.561268
v -0.461592 1.508405 0.561268
v -0.461592 1.508405 0.441268
v 0.740444 1.508408 0.441268
v 0.740444 1.508408 0.561268
v 0.740445 0.908408 0.441268
v 0.740444 1.508408 0.441268
v -0.461592 1.508405 0.441268
v -0.461591 0.908405 0.441268
v 0.740444 1.508408 0.561268
v 0.740445 0.908408 0.561268
v -0.461591 0.908405 0.561268
v -0.461592 1.508405 0.561268
v 0.639429 -2.139427 0.080000
v 0.139430 -3.468717 0.815905
v 0.139430 -3.305777 -0.253130
v 0.739429 -2.245999 0.802147
v 0.639427 1.860573 0.080000
v 0.739427 1.954001 0.802147
v 0.139425 3.688006 -0.118503
v 0.139425 3.764126 0.895880
v -0.360573 1.860572 0.080000
v 0.139425 3.764126 0.895880
v 0.139425 3.688006 -0.118503
v -0.460573 1.954000 0.802147
v -0.360571 -2.139429 0.080000
v -0.460571 -2.246001 0.802147
v 0.139430 -3.305777 -0.253130
v 0.139430 -3.468717 0.815905
v 0.139429 -3.121709 -0.478496
v 0.139430 -3.865640 -0.278264
v 0.811572 -2.202732 0.015093
v 0.439428 -1.913055 -0.614837
v 0.811570 1.909129 0.015093
v 0.439427 1.686945 -0.614837
v 0.139425 4.269846 -0.143637
v 0.139425 3.317549 -0.478493
v 0.139425 4.269846 -0.143637
v 0.139425 4.404835 0.895880
v -0.680573 2.016354 0.776133
v -0.532716 1.909127 0.015093
v -0.680571 -2.327297 0.776133
v -0.532714 -2.202734 0.015093
v 0.139430 -4.097711 0.815905
v 0.139430 -3.865640 -0.278264
v -0.461590 -1.148120 0.561268
v -0.461590 -1.148120 0.441268
v 0.740446 -1.148118 0.441268
v 0.740446 -1.148118 0.561268
v 0.740447 -1.748118 0.561268
v 0.740447 -1.748118 0.441268
v -0.461589 -1.748120 0.441268
v -0.461589 -1.748120 0.561268
v -0.461590 -1.148120 0.441268
v -0.461589 -1.748120 0.441268
v 0.740447 -1.748118 0.441268
v 0.740446 -1.148118 0.441268
v -0.461589 -1.748120 0.561268
v -0.461590 -1.148120 0.561268
v 0.740446 -1.148118 0.561268
v 0.740447 -1.748118 0.561268
v 0.139430 -3.865640 -0.278264
v 0.139430 -4.097711 0.815905
v 0.959429 -2.327295 0.776133
v 0.811572 -2.202732 0.015093
v 0.959427 2.016356 0.776133
v 0.811570 1.909129 0.015093
v 0.139425 4.404835 0.895880
v 0.139425 4.269846 -0.143637
v -0.360571 -2.139429 0.080000
v 0.139425 3.688006 -0.118503
v 0.639427 1.860573 0.080000
v 0.639429 -2.139427 0.080000
v 0.139430 -3.305777 -0.253130
vt 0.748498023 0.500078022
vt 0.751655996 0.490350991
vt 0.751332998 0.489443988
vt 0.748498023 0.500078022
vt 0.747542977 0.499807
vt 0.748498023 0.509626985
vt 0.747542977 0.50997901
vt 0.749261975 0.517666996
vt 0.749930978 0.516843021
vt 0.748498023 0.509626985
vt 0.259056985 0.52343303
vt 0.258430988 0.53234297
vt 0.259056985 0.532114029
vt 0.259056985 0.532114029
vt 0.259921014 0.539206982
vt 0.260358989 0.53867197
vt 0.259056985 0.52343303
vt 0.258430988 0.523257971
vt 0.261927992 0.514587998
vt 0.261716008 0.514001012
vt 0.75900197 0.499807
vt 0.755212009 0.489443988
vt 0.754889011 0.490350991
vt 0.758046985 0.500078022
vt 0.75900197 0.499807
vt 0.75900197 0.50997901
vt 0.758046985 0.509626985
vt 0.757282972 0.517666996
vt 0.758046985 0.509626985
vt 0.756614983 0.516843021
vt 0.267738014 0.52343303
vt 0.264867008 0.514587998
vt 0.259056985 0.532114029
vt 0.259056985 0.532114029
vt 0.267738014 0.532114029
vt 0.260358989 0.53867197
vt 0.264867008 0.514587998
vt 0.259056985 0.52343303
vt 0.259056985 0.532114029
vt 0.800379992 0.481344998
vt 0.800379992 0.475257009
vt 0.798367023 0.46905601
vt 0.707544982 0.530254006
vt 0.707024992 0.530254006
vt 0.707024992 0.539811015
vt 0.707544982 0.539811015
vt 0.707024992 0.530254006
vt 0.706506014 0.530254006
vt 0.706506014 0.539811015
vt 0.707024992 0.539811015
vt 0.702525973 0.539811015
vt 0.705130994 0.539811015
vt 0.705130994 0.530254006
vt 0.702525973 0.530254006
vt 0.693656027 0.540933013
vt 0.696259975 0.540933013
vt 0.696259975 0.531376004
vt 0.693656027 0.531376004
vt 0.793401003 0.546214998
vt 0.797228992 0.538556993
vt 0.794121027 0.539659023
vt 0.79649502 0.545768023
vt 0.793358028 0.554894984
vt 0.796449006 0.555316985
vt 0.794121027 0.563741982
vt 0.797228992 0.565047979
vt 0.789487004 0.548709989
vt 0.793358028 0.538556993
vt 0.790250003 0.53986299
vt 0.792577982 0.548287988
vt 0.789529979 0.557389975
vt 0.79262501 0.557835996
vt 0.790250003 0.563946009
vt 0.793358028 0.565047979
vt 0.266436011 0.53867197
vt 0.266873986 0.539206982
vt 0.268364012 0.53234297
vt 0.267738014 0.532114029
vt 0.268364012 0.523257971
vt 0.267738014 0.52343303
vt 0.265078992 0.514001012
vt 0.264867008 0.514587998
vt 0.278057992 0.540871024
vt 0.281091005 0.54222703
vt 0.280728996 0.531857014
vt 0.277675003 0.531444013
vt 0.280672997 0.521685004
vt 0.277624011 0.522197008
vt 0.281091005 0.514001012
vt 0.278057992 0.515210986
vt 0.706170022 0.530254006
vt 0.705649972 0.530254006
vt 0.705649972 0.539811015
vt 0.706170022 0.539811015
vt 0.705649972 0.530254006
vt 0.705130994 0.530254006
vt 0.705130994 0.539811015
vt 0.705649972 0.539811015
vt 0.698864996 0.531376004
vt 0.696259975 0.531376004
vt 0.696259975 0.540933013
vt 0.698864996 0.540933013
vt 0.688932002 0.540933013
vt 0.691536009 0.540933013
vt 0.691536009 0.531376004
vt 0.688932002 0.531376004
vt 0.282104999 0.541016996
vt 0.285138011 0.54222703
vt 0.284720004 0.534542978
vt 0.281670988 0.534030974
vt 0.284776002 0.524371028
vt 0.281722009 0.524784029
vt 0.285138011 0.514001012
vt 0.282104999 0.515357018
vt 0.800379992 0.481344998
vt 0.798367023 0.46905601
vt 0.794292986 0.475257009
vt 0.794292986 0.481344998
vt 0.79520601 0.485946
vn 0.130557 -0.002877 0.991437
vn -0.037266 -0.003843 0.999298
vn 0.043619 -0.002903 0.999044
vn 0.130557 -0.002877 0.991437
vn 0.118231 -0.002877 0.992982
vn 0.091370 -0.006859 0.995793
vn 0.112419 -0.013707 0.993566
vn 0.000000 -0.013749 0.999905
vn 0.000000 -0.000000 1.000000
vn 0.091370 -0.006859 0.995793
vn -0.840924 0.097860 -0.532232
vn -0.911585 -0.157766 -0.379636
vn -0.815861 -0.112152 -0.567268
vn -0.660019 -0.065563 -0.748383
vn -0.863277 -0.314538 -0.394738
vn -0.756015 -0.222280 -0.615656
vn -0.840924 0.097860 -0.532232
vn -0.927404 0.126527 -0.352013
vn -0.561058 0.125414 -0.818221
vn -0.904580 0.252644 -0.343373
vn -0.127525 -0.003808 0.991828
vn 0.043619 -0.002903 0.999044
vn -0.037266 -0.003843 0.999298
vn -0.118491 -0.003807 0.992948
vn -0.127525 -0.003808 0.991828
vn -0.114091 -0.009138 0.993428
vn -0.082661 -0.009146 0.996536
vn 0.000000 -0.013749 0.999905
vn -0.082661 -0.009146 0.996536
vn 0.000000 -0.000000 1.000000
vn -0.116711 0.019452 -0.992975
vn -0.249650 0.092452 -0.963913
vn -0.126499 -0.065171 -0.989824
vn 0.046887 -0.018929 -0.998721
vn 0.000000 -0.056135 -0.998423
vn 0.000000 -0.112093 -0.993698
vn 0.376767 0.088440 -0.922077
vn 0.413755 0.000000 -0.910388
vn 0.046887 -0.018929 -0.998721
vn 0.042828 -0.057727 0.997413
vn 0.368991 -0.000000 0.929433
vn 0.086739 0.026481 0.995879
vn 0.000000 -1.000000 -0.000000
vn 0.000000 -1.000000 -0.000000
vn 0.000000 -1.000000 -0.000000
vn 0.000000 -1.000000 -0.000000
vn 0.000000 1.000000 0.000000
vn 0.000000 1.000000 0.000000
vn 0.000000 1.000000 0.000000
vn 0.000000 1.000000 0.000000
vn 0.000000 0.000000 -1.000000
vn 0.000000 0.000000 -1.000000
vn 0.000000 0.000000 -1.000000
vn 0.000000 0.000000 -1.000000
vn 0.000000 -0.000000 1.000000
vn 0.000000 -0.000000 1.000000
vn 0.000000 -0.000000 1.000000
vn 0.000000 -0.000000 1.000000
vn -0.970258 0.206079 0.127008
vn -0.908263 0.403300 0.111390
vn -0.908263 0.403300 0.111390
vn -0.970258 0.206079 0.127008
vn -0.983201 -0.144703 0.111248
vn -0.983201 -0.144703 0.111248
vn -0.954554 -0.286271 0.082919
vn -0.954554 -0.286271 0.082919
vn 0.983202 -0.144702 0.111248
vn 0.954555 -0.286269 0.082919
vn 0.954555 -0.286269 0.082919
vn 0.983202 -0.144702 0.111248
vn 0.970258 0.206080 0.127009
vn 0.970258 0.206080 0.127009
vn 0.908262 0.403302 0.111391
vn 0.908262 0.403302 0.111391
vn 0.756015 -0.222278 -0.615657
vn 0.863277 -0.314537 -0.394739
vn 0.911584 -0.157766 -0.379636
vn 0.815860 -0.112151 -0.567269
vn 0.927403 0.126528 -0.352014
vn 0.840923 0.097861 -0.532233
vn 0.904580 0.252646 -0.343374
vn 0.639514 0.101576 -0.762039
vn -0.904580 0.252644 -0.343373
vn -0.947660 0.296777 -0.117743
vn -0.976261 0.150174 -0.156086
vn -0.927404 0.126527 -0.352013
vn -0.965305 -0.196425 -0.172058
vn -0.911585 -0.157766 -0.379636
vn -0.911127 -0.385150 -0.146654
vn -0.863277 -0.314538 -0.394738
vn 0.000000 1.000000 0.000000
vn 0.000000 1.000000 0.000000
vn 0.000000 1.000000 0.000000
vn 0.000000 1.000000 0.000000
vn 0.000000 -1.000000 -0.000000
vn 0.000000 -1.000000 -0.000000
vn 0.000000 -1.000000 -0.000000
vn 0.000000 -1.000000 -0.000000
vn 0.000000 0.000000 -1.000000
vn 0.000000 0.000000 -1.000000
vn 0.000000 0.000000 -1.000000
vn 0.000000 0.000000 -1.000000
vn 0.000000 -0.000000 1.000000
vn 0.000000 -0.000000 1.000000
vn 0.000000 -0.000000 1.000000
vn 0.000000 -0.000000 1.000000
vn 0.863277 -0.314537 -0.394739
vn 0.911127 -0.385149 -0.146654
vn 0.965305 -0.196424 -0.172058
vn 0.911584 -0.157766 -0.379636
vn 0.976261 0.150175 -0.156086
vn 0.927403 0.126528 -0.352014
vn 0.947660 0.296778 -0.117743
vn 0.904580 0.252646 -0.343374
vn 0.042828 -0.057727 0.997413
vn 0.086739 0.026481 0.995879
vn -0.101998 0.025500 0.994458
vn 0.000000 -0.138657 0.990340
vn 0.000000 -0.274635 0.961548
f 3/3/3 2/2/2 1/1/1
f 5/5/5 3/3/3 4/4/4
f 4/4/4 6/6/6 5/5/5
f 7/7/7 5/5/5 6/6/6
f 6/6/6 8/8/8 7/7/7
f 10/10/10 9/9/9 8/8/8
f 13/13/13 12/12/12 11/11/11
f 15/15/15 12/12/12 14/14/14
f 16/16/16 15/15/15 14/14/14
f 12/12/12 18/18/18 17/17/17
f 17/17/17 18/18/18 19/19/19
f 18/18/18 20/20/20 19/19/19
f 23/23/23 22/22/22 21/21/21
f 25/25/25 24/24/24 23/23/23
f 25/25/25 26/26/26 24/24/24
f 27/27/27 24/24/24 26/26/26
f 27/27/27 26/26/26 28/28/28
f 28/28/28 30/30/30 29/29/29
f 33/33/33 32/32/32 31/31/31
f 31/31/31 35/35/35 34/34/34
f 35/35/35 36/36/36 34/34/34
f 39/39/39 38/38/38 37/37/37
f 42/42/42 41/41/41 40/40/40
f 45/45/45 44/44/44 43/43/43
f 46/46/46 45/45/45 43/43/43
f 49/49/49 48/48/48 47/47/47
f 50/50/50 49/49/49 47/47/47
f 53/53/53 52/52/52 51/51/51
f 54/54/54 53/53/53 51/51/51
f 57/57/57 56/56/56 55/55/55
f 58/58/58 57/57/57 55/55/55
f 61/61/61 60/60/60 59/59/59
f 60/60/60 62/62/62 59/59/59
f 59/59/59 62/62/62 63/63/63
f 62/62/62 64/64/64 63/63/63
f 63/63/63 64/64/64 65/65/65
f 64/64/64 66/66/66 65/65/65
f 69/69/69 68/68/68 67/67/67
f 68/68/68 70/70/70 67/67/67
f 67/67/67 70/70/70 71/71/71
f 70/70/70 72/72/72 71/71/71
f 71/71/71 72/72/72 73/73/73
f 72/72/72 74/74/74 73/73/73
f 77/77/77 76/76/76 75/75/75
f 78/78/78 77/77/77 75/75/75
f 79/79/79 77/77/77 78/78/78
f 80/80/80 79/79/79 78/78/78
f 81/81/81 79/79/79 80/80/80
f 82/82/82 81/81/81 80/80/80
f 85/85/85 84/84/84 83/83/83
f 86/86/86 85/85/85 83/83/83
f 87/87/87 85/85/85 86/86/86
f 88/88/88 87/87/87 86/86/86
f 89/89/89 87/87/87 88/88/88
f 90/90/90 89/89/89 88/88/88
f 93/93/93 92/92/92 91/91/91
f 94/94/94 93/93/93 91/91/91
f 97/97/97 96/96/96 95/95/95
f 98/98/98 97/97/97 95/95/95
f 101/101/101 100/100/100 99/99/99
f 102/102/102 101/101/101 99/99/99
f 105/105/105 104/104/104 103/103/103
f 106/106/106 105/105/105 103/103/103
f 109/109/109 108/108/108 107/107/107
f 110/110/110 109/109/109 107/107/107
f 111/111/111 109/109/109 110/110/110
f 112/112/112 111/111/111 110/110/110
f 113/113/113 111/111/111 112/112/112
f 114/114/114 113/113/113 112/112/112
f 117/117/117 116/116/116 115/115/115
f 115/115/115 118/118/118 117/117/117
f 115/115/115 119/119/119 118/118/118
