v -0.156250 -0.156250 1.296750
v -0.156250 -0.156250 -1.000000
v -0.156250 0.156250 -1.000000
v -0.156250 0.156250 1.296750
v -0.078125 -0.078125 1.375000
v -0.078125 0.078125 1.375000
v -0.156250 0.156250 1.296750
v -0.156250 0.156250 -1.000000
v 0.156250 0.156250 -1.000000
v 0.156250 0.156250 1.296750
v -0.078125 0.078125 1.375000
v 0.078125 0.078125 1.375000
v 0.156250 0.156250 1.296750
v 0.156250 0.156250 -1.000000
v 0.156250 -0.156250 -1.000000
v 0.156250 -0.156250 1.296750
v 0.078125 0.078125 1.375000
v 0.078125 -0.078125 1.375000
v 0.156250 -0.156250 1.296750
v 0.156250 -0.156250 -1.000000
v -0.156250 -0.156250 -1.000000
v -0.156250 -0.156250 1.296750
v 0.078125 -0.078125 1.375000
v -0.078125 -0.078125 1.375000
v 0.078125 -0.078125 1.375000
v -0.078125 -0.078125 1.375000
v -0.078125 0.078125 1.375000
v 0.078125 0.078125 1.375000
vt 0 0
vt 0 0
vt 0 0
vt 0 0
vt 0 0
vt 0 0
vt 0 0
vt 0 0
vt 0 0
vt 0 0
vt 0 0
vt 0 0
vt 0 0
vt 0 0
vt 0 0
vt 0 0
vt 0 0
vt 0 0
vt 0 0
vt 0 0
vt 0 0
vt 0 0
vt 0 0
vt 0 0
vt 0 0
vt 0 0
vt 0 0
vt 0 0
vn -0.924032 -0.000000 0.382314
vn -1.000000 0.000000 0.000000
vn -1.000000 0.000000 0.000000
vn -0.924032 -0.000000 0.382314
vn -0.383053 -0.000000 0.923726
vn -0.383053 -0.000000 0.923726
vn 0.000000 0.924032 0.382314
vn 0.000000 1.000000 0.000000
vn 0.000000 1.000000 0.000000
vn 0.000000 0.924032 0.382314
vn 0.000000 0.383053 0.923726
vn 0.000000 0.383053 0.923726
vn 0.924032 -0.000000 0.382314
vn 1.000000 0.000000 0.000000
vn 1.000000 0.000000 0.000000
vn 0.924032 -0.000000 0.382314
vn 0.383053 -0.000000 0.923726
vn 0.383053 -0.000000 0.923726
vn 0.000000 -0.924032 0.382314
vn 0.000000 -1.000000 -0.000000
vn 0.000000 -1.000000 -0.000000
vn 0.000000 -0.924032 0.382314
vn 0.000000 -0.383053 0.923726
vn 0.000000 -0.383053 0.923726
vn 0.270891 -0.270891 0.923708
vn -0.270891 -0.270891 0.923708
vn -0.270891 0.270891 0.923708
vn 0.270891 0.270891 0.923708
f 3/3/3 2/2/2 1/1/1
f 4/4/4 3/3/3 1/1/1
f 1/1/1 5/5/5 4/4/4
f 5/5/5 6/6/6 4/4/4
f 9/9/9 8/8/8 7/7/7
f 10/10/10 9/9/9 7/7/7
f 7/7/7 11/11/11 10/10/10
f 11/11/11 12/12/12 10/10/10
f 15/15/15 14/14/14 13/13/13
f 16/16/16 15/15/15 13/13/13
f 13/13/13 17/17/17 16/16/16
f 17/17/17 18/18/18 16/16/16
f 21/21/21 20/20/20 19/19/19
f 22/22/22 21/21/21 19/19/19
f 19/19/19 23/23/23 22/22/22
f 23/23/23 24/24/24 22/22/22
f 27/27/27 26/26/26 25/25/25
f 28/28/28 27/27/27 25/25/25
