g Model_0
v -0.100000024 0.100000024 0
v -0.100000024 -0.100000024 0
v 0.100000024 -0.100000024 0
v -0.100000024 0.100000024 0
v 0.100000024 -0.100000024 0
v 0.100000024 0.100000024 0
v -1.49011683E-08 0.499999702 0.632156134
v 0.249999881 0.433012426 0.632156134
v 0.249999881 0.433012426 0.757156134
v -1.49011683E-08 0.499999702 0.757156134
v 0.249999881 0.433012426 0.632156134
v 0.433012515 0.249999821 0.632156134
v 0.433012515 0.249999821 0.757156134
v 0.249999881 0.433012426 0.757156134
v 0.433012515 0.249999821 0.632156134
v 0.499999762 -9.13944689E-08 0.632156134
v 0.499999762 -9.13944689E-08 0.757156134
v 0.433012515 0.249999821 0.757156134
v 0.499999762 -9.13944689E-08 0.632156134
v 0.433012515 -0.25 0.632156134
v 0.433012515 -0.25 0.757156134
v 0.499999762 -9.13944689E-08 0.757156134
v 0.433012515 -0.25 0.632156134
v 0.24999994 -0.433012605 0.632156134
v 0.24999994 -0.433012605 0.757156134
v 0.433012515 -0.25 0.757156134
v 0.24999994 -0.433012605 0.632156134
v 6.05967045E-08 -0.499999881 0.632156134
v 6.05967045E-08 -0.499999881 0.757156134
v 0.24999994 -0.433012605 0.757156134
v 6.05967045E-08 -0.499999881 0.632156134
v -0.249999806 -0.433012664 0.632156134
v -0.249999806 -0.433012664 0.757156134
v 6.05967045E-08 -0.499999881 0.757156134
v -0.249999806 -0.433012664 0.632156134
v -0.433012456 -0.250000119 0.632156134
v -0.433012456 -0.250000119 0.757156134
v -0.249999806 -0.433012664 0.757156134
v -0.433012456 -0.250000119 0.632156134
v -0.499999821 -3.01994817E-07 0.632156134
v -0.499999821 -3.01994817E-07 0.757156134
v -0.433012456 -0.250000119 0.757156134
v -0.499999821 -3.01994817E-07 0.632156134
v -0.433012694 0.249999583 0.632156134
v -0.433012694 0.249999583 0.757156134
v -0.499999821 -3.01994817E-07 0.757156134
v 0.433012515 0.249999821 0.757156134
v 0.499999762 -9.13944689E-08 0.757156134
v 0.433012515 -0.25 0.757156134
v 0.249999881 0.433012426 0.757156134
v 0.24999994 -0.433012605 0.757156134
v 6.05967045E-08 -0.499999881 0.757156134
v -1.49011683E-08 0.499999702 0.757156134
v -0.249999806 -0.433012664 0.757156134
v -0.250000209 0.433012277 0.757156134
v -0.433012456 -0.250000119 0.757156134
v -0.433012694 0.249999583 0.757156134
v -0.499999821 -3.01994817E-07 0.757156134
v -0.250000209 0.433012277 0.632156134
v -1.49011683E-08 0.499999702 0.632156134
v -1.49011683E-08 0.499999702 0.757156134
v -0.250000209 0.433012277 0.757156134
v -0.433012694 0.249999583 0.632156134
v -0.250000209 0.433012277 0.632156134
v -0.250000209 0.433012277 0.757156134
v -0.433012694 0.249999583 0.757156134
v 0.433012515 -0.25 0.632156134
v 0.499999762 -9.13944689E-08 0.632156134
v 0.433012515 0.249999821 0.632156134
v 0.24999994 -0.433012605 0.632156134
v 0.249999881 0.433012426 0.632156134
v 6.05967045E-08 -0.499999881 0.632156134
v -1.49011683E-08 0.499999702 0.632156134
v -0.249999806 -0.433012664 0.632156134
v -0.250000209 0.433012277 0.632156134
v -0.433012456 -0.250000119 0.632156134
v -0.433012694 0.249999583 0.632156134
v -0.499999821 -3.01994817E-07 0.632156134
v -0.100000024 -0.100000024 0.677843809
v -0.100000024 -0.100000024 0
v -0.100000024 0.100000024 0
v -0.100000024 0.100000024 0.677843809
v -0.100000024 0.100000024 0.677843809
v -0.100000024 0.100000024 0
v 0.100000024 0.100000024 0
v 0.100000024 0.100000024 0.677843809
v 0.100000024 0.100000024 0.677843809
v 0.100000024 0.100000024 0
v 0.100000024 -0.100000024 0
v 0.100000024 -0.100000024 0.677843809
v 0.100000024 -0.100000024 0.677843809
v 0.100000024 -0.100000024 0
v -0.100000024 -0.100000024 0
v -0.100000024 -0.100000024 0.677843809
vt 0.824110091 0.219688952
vt 0.803452134 0.219688952
vt 0.844768047 0.219688952
vt 0.824110091 0.219688952
vt 0.844768047 0.219688952
vt 0.755316556 0.294755995
vt 0.199055582 0.489953339
vt 0.199055582 0.623383462
vt 0.332485706 0.623383462
vt 0.332485706 0.489953339
vt 0.199055582 0.489953339
vt 0.199055582 0.623383462
vt 0.332485706 0.623383462
vt 0.332485706 0.489953339
vt 0.199055582 0.489953339
vt 0.199055582 0.623383462
vt 0.332485706 0.623383462
vt 0.332485706 0.489953339
vt 0.199055582 0.489953339
vt 0.199055582 0.623383462
vt 0.332485706 0.623383462
vt 0.332485706 0.489953339
vt 0.199055582 0.489953339
vt 0.199055582 0.623383462
vt 0.332485706 0.623383462
vt 0.332485706 0.489953339
vt 0.199055582 0.489953339
vt 0.199055582 0.623383462
vt 0.332485706 0.623383462
vt 0.332485706 0.489953339
vt 0.199055582 0.489953339
vt 0.199055582 0.623383462
vt 0.332485706 0.623383462
vt 0.332485706 0.489953339
vt 0.199055582 0.489953339
vt 0.199055582 0.623383462
vt 0.332485706 0.623383462
vt 0.332485706 0.489953339
vt 0.199055582 0.489953339
vt 0.199055582 0.623383462
vt 0.332485706 0.623383462
vt 0.332485706 0.489953339
vt 0.199055582 0.489953339
vt 0.199055582 0.623383462
vt 0.332485706 0.623383462
vt 0.332485706 0.489953339
vt 0.232413083 0.614445329
vt 0.207993686 0.590025902
vt 0.199055582 0.556668341
vt 0.265770644 0.623383462
vt 0.207993716 0.52331084
vt 0.232413143 0.498891443
vt 0.299128145 0.614445329
vt 0.265770644 0.489953339
vt 0.323547572 0.590025902
vt 0.299128145 0.498891473
vt 0.332485706 0.556668401
vt 0.323547572 0.52331084
vt 0.199055582 0.489953339
vt 0.199055582 0.623383462
vt 0.332485706 0.623383462
vt 0.332485706 0.489953339
vt 0.199055582 0.489953339
vt 0.199055582 0.623383462
vt 0.332485706 0.623383462
vt 0.332485706 0.489953339
vt 0.323547572 0.52331084
vt 0.332485706 0.556668401
vt 0.323547572 0.590025902
vt 0.299128145 0.498891473
vt 0.299128145 0.614445329
vt 0.265770644 0.489953339
vt 0.265770644 0.623383462
vt 0.232413143 0.498891443
vt 0.232413083 0.614445329
vt 0.207993716 0.52331084
vt 0.207993686 0.590025902
vt 0.199055582 0.556668341
vt 0.824110031 0.294755995
vt 0.824110031 0.219688952
vt 0.803452134 0.219688952
vt 0.803452134 0.294755995
vt 0.844768047 0.294755995
vt 0.844768047 0.219688952
vt 0.824110091 0.219688952
vt 0.824110031 0.294755995
vt 0.734658599 0.219688952
vt 0.734658599 0.294755995
vt 0.755316556 0.294755995
vt 0.755316496 0.219688952
vt 0.865425944 0.294755995
vt 0.865425944 0.219688952
vt 0.844768047 0.219688952
vt 0.844768047 0.294755995
vn -0 0 -1
vn -0 0 -1
vn -0 0 -1
vn -0 0 -1
vn -0 0 -1
vn -0 0 -1
vn -0 1 0
vn 0.5 0.866025448 0
vn 0.5 0.866025448 0
vn -0 1 0
vn 0.5 0.866025448 0
vn 0.866025448 0.5 0
vn 0.866025448 0.5 0
vn 0.5 0.866025448 0
vn 0.866025448 0.5 0
vn 1 0 0
vn 1 0 0
vn 0.866025448 0.5 0
vn 1 0 0
vn 0.866025448 -0.499999911 0
vn 0.866025448 -0.499999911 0
vn 1 0 0
vn 0.866025448 -0.499999911 0
vn 0.50000006 -0.866025329 0
vn 0.50000006 -0.866025329 0
vn 0.866025448 -0.499999911 0
vn 0.50000006 -0.866025329 0
vn -0 -1 0
vn -0 -1 0
vn 0.50000006 -0.866025329 0
vn -0 -1 0
vn -0.499999791 -0.866025507 0
vn -0.499999791 -0.866025507 0
vn -0 -1 0
vn -0.499999791 -0.866025507 0
vn -0.866025269 -0.500000298 0
vn -0.866025269 -0.500000298 0
vn -0.499999791 -0.866025507 0
vn -0.866025269 -0.500000298 0
vn -1 0 0
vn -1 0 0
vn -0.866025269 -0.500000298 0
vn -1 0 0
vn -0.866025686 0.499999583 0
vn -0.866025686 0.499999583 0
vn -1 0 0
vn -0 0 1
vn -0 0 1
vn -0 0 1
vn -0 0 1
vn -0 0 1
vn -0 0 1
vn -0 0 1
vn -0 0 1
vn -0 0 1
vn -0 0 1
vn -0 0 1
vn -0 0 1
vn -0.500000417 0.866025269 0
vn -0 1 0
vn -0 1 0
vn -0.500000417 0.866025269 0
vn -0.866025686 0.499999583 0
vn -0.500000417 0.866025269 0
vn -0.500000417 0.866025269 0
vn -0.866025686 0.499999583 0
vn -0 0 -1
vn -0 0 -1
vn -0 0 -1
vn -0 0 -1
vn -0 0 -1
vn -0 0 -1
vn -0 0 -1
vn -0 0 -1
vn -0 0 -1
vn -0 0 -1
vn -0 0 -1
vn -0 0 -1
vn -1 0 0
vn -1 0 0
vn -1 0 0
vn -1 0 0
vn -0 1 0
vn -0 1 0
vn -0 1 0
vn -0 1 0
vn 1 0 0
vn 1 0 0
vn 1 0 0
vn 1 0 0
vn -0 -1 0
vn -0 -1 0
vn -0 -1 0
vn -0 -1 0
g Model_0_0
f 3/3/3 2/2/2 1/1/1
f 6/6/6 5/5/5 4/4/4
f 9/9/9 8/8/8 7/7/7
f 10/10/10 9/9/9 7/7/7
f 13/13/13 12/12/12 11/11/11
f 14/14/14 13/13/13 11/11/11
f 17/17/17 16/16/16 15/15/15
f 18/18/18 17/17/17 15/15/15
f 21/21/21 20/20/20 19/19/19
f 22/22/22 21/21/21 19/19/19
f 25/25/25 24/24/24 23/23/23
f 26/26/26 25/25/25 23/23/23
f 29/29/29 28/28/28 27/27/27
f 30/30/30 29/29/29 27/27/27
f 33/33/33 32/32/32 31/31/31
f 34/34/34 33/33/33 31/31/31
f 37/37/37 36/36/36 35/35/35
f 38/38/38 37/37/37 35/35/35
f 41/41/41 40/40/40 39/39/39
f 42/42/42 41/41/41 39/39/39
f 45/45/45 44/44/44 43/43/43
f 46/46/46 45/45/45 43/43/43
f 49/49/49 48/48/48 47/47/47
f 47/47/47 50/50/50 49/49/49
f 50/50/50 51/51/51 49/49/49
f 50/50/50 52/52/52 51/51/51
f 50/50/50 53/53/53 52/52/52
f 53/53/53 54/54/54 52/52/52
f 53/53/53 55/55/55 54/54/54
f 55/55/55 56/56/56 54/54/54
f 55/55/55 57/57/57 56/56/56
f 57/57/57 58/58/58 56/56/56
f 61/61/61 60/60/60 59/59/59
f 62/62/62 61/61/61 59/59/59
f 65/65/65 64/64/64 63/63/63
f 66/66/66 65/65/65 63/63/63
f 69/69/69 68/68/68 67/67/67
f 67/67/67 70/70/70 69/69/69
f 70/70/70 71/71/71 69/69/69
f 70/70/70 72/72/72 71/71/71
f 72/72/72 73/73/73 71/71/71
f 72/72/72 74/74/74 73/73/73
f 74/74/74 75/75/75 73/73/73
f 74/74/74 76/76/76 75/75/75
f 76/76/76 77/77/77 75/75/75
f 76/76/76 78/78/78 77/77/77
f 81/81/81 80/80/80 79/79/79
f 82/82/82 81/81/81 79/79/79
f 85/85/85 84/84/84 83/83/83
f 86/86/86 85/85/85 83/83/83
f 89/89/89 88/88/88 87/87/87
f 90/90/90 89/89/89 87/87/87
f 93/93/93 92/92/92 91/91/91
f 94/94/94 93/93/93 91/91/91
