g Model_0
v -0.25 -0.25 1.0625
v -0.25 -0.25 0
v -0.25 0.25 0
v -0.25 0.25 1.0625
v -0.25 0.25 1.0625
v -0.25 0.25 0
v 0.25 0.25 0
v 0.25 0.25 1.0625
v 0.25 0.25 1.0625
v 0.25 0.25 0
v 0.25 -0.25 0
v 0.25 -0.25 1.0625
v 0.25 -0.25 1.0625
v 0.25 -0.25 0
v -0.25 -0.25 0
v -0.25 -0.25 1.0625
v -1 -2 1.1875
v -1 -2 1.0625
v -1 2 1.0625
v -1 2 1.1875
v -1 2 1.1875
v -1 2 1.0625
v 1 2 1.0625
v 1 2 1.1875
v 1 2 1.1875
v 1 2 1.0625
v 1 -2 1.0625
v 1 -2 1.1875
v 1 -2 1.1875
v 1 -2 1.0625
v -1 -2 1.0625
v -1 -2 1.1875
v -1 -2 1.0625
v 1 -2 1.0625
v 1 2 1.0625
v -1 2 1.0625
v 1 -2 1.1875
v -1 -2 1.1875
v -1 2 1.1875
v 1 2 1.1875
v -0.499998003 -2 0.757156014
v -0.499998003 -2 0
v -1.49999797 -2 0
v -1.49999797 -2 0.757156014
v -1.99999797 -2 0.757156014
v -1.99999797 -2 0
v -1.49999797 -2 1.50715601
v -1.99999797 -2 1.50715601
v -1.50000203 2 0.757156014
v -0.500002027 2 0
v -0.500002027 2 0.757156014
v -1.50000203 2 0
v -2.00000191 2 0
v -2.00000191 2 0.757156014
v -2.00000191 2 1.50715601
v -1.50000203 2 1.50715601
v -0.500002027 2 0.757156014
v -0.500002027 2 0
v -0.499998003 -2 0
v -0.499998003 -2 0.757156014
v -0.500002027 2 0.757156014
v -0.499998003 -2 0.757156014
v -1.49999797 -2 0.757156014
v -1.50000203 2 0.757156014
v -1.99999797 -2 0.757156014
v -1.99999797 -2 0
v -2.00000191 2 0
v -2.00000191 2 0.757156014
v -1.99999797 -2 1.50715601
v -2.00000191 2 1.50715601
v -1.49999797 -2 1.50715601
v -1.99999797 -2 1.50715601
v -2.00000191 2 1.50715601
v -1.50000203 2 1.50715601
v -1.49999797 -2 0.757156014
v -1.49999797 -2 1.50715601
v -1.50000203 2 1.50715601
v -1.50000203 2 0.757156014
v 0.499994993 2 0.757156014
v 0.499994993 2 0
v 1.49999499 2.0000031 0
v 1.49999499 2.0000031 0.757156014
v 1.99999499 2.00000405 0.757156014
v 1.99999499 2.00000405 0
v 1.49999499 2.0000031 1.50715601
v 1.99999499 2.00000405 1.50715601
v 1.50000501 -1.99999702 0.757156014
v 0.500005007 -2 0
v 0.500005007 -2 0.757156014
v 1.50000501 -1.99999702 0
v 2.00000501 -1.99999702 0
v 2.00000501 -1.99999702 0.757156014
v 2.00000501 -1.99999702 1.50715601
v 1.50000501 -1.99999702 1.50715601
v 0.500005007 -2 0.757156014
v 0.500005007 -2 0
v 0.499994993 2 0
v 0.499994993 2 0.757156014
v 0.500005007 -2 0.757156014
v 0.499994993 2 0.757156014
v 1.49999499 2.0000031 0.757156014
v 1.50000501 -1.99999702 0.757156014
v 1.99999499 2.00000405 0.757156014
v 1.99999499 2.00000405 0
v 2.00000501 -1.99999702 0
v 2.00000501 -1.99999702 0.757156014
v 1.99999499 2.00000405 1.50715601
v 2.00000501 -1.99999702 1.50715601
v 1.49999499 2.0000031 1.50715601
v 1.99999499 2.00000405 1.50715601
v 2.00000501 -1.99999702 1.50715601
v 1.50000501 -1.99999702 1.50715601
v 1.49999499 2.0000031 0.757156014
v 1.49999499 2.0000031 1.50715601
v 1.50000501 -1.99999702 1.50715601
v 1.50000501 -1.99999702 0.757156014
vt 0.828123987 0.190867007
vt 0.828123987 0.159172997
vt 0.815120995 0.159172997
vt 0.815120995 0.190867007
vt 0.828123987 0.222561002
vt 0.828123987 0.190867007
vt 0.815120995 0.190867007
vt 0.815120995 0.222561002
vt 0.828123987 0.254254997
vt 0.828123987 0.222561002
vt 0.815120995 0.222561002
vt 0.815120995 0.254254997
vt 0.828123987 0.285948992
vt 0.828123987 0.254254997
vt 0.815120995 0.254254997
vt 0.815120995 0.285948992
vt 0.855286002 0.734710991
vt 0.852034986 0.734710991
vt 0.852034986 0.854030013
vt 0.855286002 0.854030013
vt 0.855286002 0.854030013
vt 0.858536005 0.854030013
vt 0.858536005 0.794371009
vt 0.855286002 0.794371009
vt 0.852034986 0.734710991
vt 0.848784029 0.734710991
vt 0.848784029 0.854030013
vt 0.852034986 0.854030013
vt 0.855286002 0.794371009
vt 0.858536005 0.794371009
vt 0.858536005 0.734710991
vt 0.855286002 0.734710991
vt 0.835780978 0.734710991
vt 0.783770978 0.734710991
vt 0.783770978 0.854030013
vt 0.835780978 0.854030013
vt 0.731760025 0.854030013
vt 0.783770978 0.854030013
vt 0.783770978 0.734710991
vt 0.731760025 0.734710991
vt 0.37499401 0.568009019
vt 0.37499401 0.582159996
vt 0.392569005 0.582159996
vt 0.392569005 0.568009019
vt 0.401356995 0.568009019
vt 0.401356995 0.582159996
vt 0.392569005 0.553992987
vt 0.401356995 0.553992987
vt 0.357419014 0.53984201
vt 0.37499401 0.553992987
vt 0.37499401 0.53984201
vt 0.357419014 0.553992987
vt 0.348632008 0.553992987
vt 0.348632008 0.53984201
vt 0.348632008 0.525825024
vt 0.357419014 0.525825024
vt 0.375120014 0.525825024
vt 0.388426989 0.525825024
vt 0.388426989 0.451068997
vt 0.375120014 0.451068997
vt 0.304569006 0.525825024
vt 0.304569006 0.60058099
vt 0.322144002 0.60058099
vt 0.322144002 0.525825024
vt 0.361939013 0.451068997
vt 0.348632008 0.451068997
vt 0.348632008 0.525825024
vt 0.361939013 0.525825024
vt 0.375120014 0.451068997
vt 0.375120014 0.525825024
vt 0.388426989 0.525825024
vt 0.397213995 0.525825024
vt 0.397213995 0.451068997
vt 0.388426989 0.451068997
vt 0.28699401 0.525825024
vt 0.273813009 0.525825024
vt 0.273813009 0.60058099
vt 0.28699401 0.60058099
vt 0.401356995 0.539976001
vt 0.401356995 0.525825024
vt 0.383781999 0.525825024
vt 0.383781999 0.539976001
vt 0.37499401 0.539976001
vt 0.37499401 0.525825024
vt 0.383781999 0.553992987
vt 0.37499401 0.553992987
vt 0.357419014 0.568009019
vt 0.37499401 0.582159996
vt 0.37499401 0.568009019
vt 0.357419014 0.582159996
vt 0.348632008 0.582159996
vt 0.348632008 0.568009019
vt 0.348632008 0.553992987
vt 0.357419014 0.553992987
vt 0.300300986 0.525825024
vt 0.28699401 0.525825024
vt 0.28699401 0.60058099
vt 0.300300986 0.60058099
vt 0.251845002 0.525825024
vt 0.251845002 0.60058099
vt 0.269419014 0.60058099
vt 0.269419014 0.525825024
vt 0.335451007 0.451068997
vt 0.322144002 0.451068997
vt 0.322144002 0.525825024
vt 0.335451007 0.525825024
vt 0.348632008 0.451068997
vt 0.348632008 0.525825024
vt 0.335451007 0.525825024
vt 0.326662987 0.525825024
vt 0.326662987 0.60058099
vt 0.335451007 0.60058099
vt 0.335451007 0.60058099
vt 0.348632008 0.60058099
vt 0.348632008 0.525825024
vt 0.335451007 0.525825024
vn -1 0 0
vn -1 0 0
vn -1 0 0
vn -1 0 0
vn -0 1 0
vn -0 1 0
vn -0 1 0
vn -0 1 0
vn 1 0 0
vn 1 0 0
vn 1 0 0
vn 1 0 0
vn -0 -1 0
vn -0 -1 0
vn -0 -1 0
vn -0 -1 0
vn -1 0 0
vn -1 0 0
vn -1 0 0
vn -1 0 0
vn -0 1 0
vn -0 1 0
vn -0 1 0
vn -0 1 0
vn 1 0 0
vn 1 0 0
vn 1 0 0
vn 1 0 0
vn -0 -1 0
vn -0 -1 0
vn -0 -1 0
vn -0 -1 0
vn -0 0 -1
vn -0 0 -1
vn -0 0 -1
vn -0 0 -1
vn -0 0 1
vn -0 0 1
vn -0 0 1
vn -0 0 1
vn -0 -1 0
vn -0 -1 0
vn -0 -1 0
vn -0 -1 0
vn -0 -1 0
vn -0 -1 0
vn -0 -1 0
vn -0 -1 0
vn -0 1 0
vn -0 1 0
vn -0 1 0
vn -0 1 0
vn -0 1 0
vn -0 1 0
vn -0 1 0
vn -0 1 0
vn 1 0 0
vn 1 0 0
vn 1 0 0
vn 1 0 0
vn -0 0 1
vn -0 0 1
vn -0 0 1
vn -0 0 1
vn -1 0 0
vn -1 0 0
vn -1 0 0
vn -1 0 0
vn -1 0 0
vn -1 0 0
vn -0 0 1
vn -0 0 1
vn -0 0 1
vn -0 0 1
vn 1 0 0
vn 1 0 0
vn 1 0 0
vn 1 0 0
vn -0 1 0
vn -0 1 0
vn -0 1 0
vn -0 1 0
vn -0 1 0
vn -0 1 0
vn -0 1 0
vn -0 1 0
vn -0 -1 0
vn -0 -1 0
vn -0 -1 0
vn -0 -1 0
vn -0 -1 0
vn -0 -1 0
vn -0 -1 0
vn -0 -1 0
vn -1 0 0
vn -1 0 0
vn -1 0 0
vn -1 0 0
vn -0 0 1
vn -0 0 1
vn -0 0 1
vn -0 0 1
vn 1 0 0
vn 1 0 0
vn 1 0 0
vn 1 0 0
vn 1 0 0
vn 1 0 0
vn -0 0 1
vn -0 0 1
vn -0 0 1
vn -0 0 1
vn -1 0 0
vn -1 0 0
vn -1 0 0
vn -1 0 0
g Model_0_0
f 3/3/3 2/2/2 1/1/1
f 4/4/4 3/3/3 1/1/1
f 7/7/7 6/6/6 5/5/5
f 8/8/8 7/7/7 5/5/5
f 11/11/11 10/10/10 9/9/9
f 12/12/12 11/11/11 9/9/9
f 15/15/15 14/14/14 13/13/13
f 16/16/16 15/15/15 13/13/13
f 19/19/19 18/18/18 17/17/17
f 20/20/20 19/19/19 17/17/17
f 23/23/23 22/22/22 21/21/21
f 24/24/24 23/23/23 21/21/21
f 27/27/27 26/26/26 25/25/25
f 28/28/28 27/27/27 25/25/25
f 31/31/31 30/30/30 29/29/29
f 32/32/32 31/31/31 29/29/29
f 35/35/35 34/34/34 33/33/33
f 36/36/36 35/35/35 33/33/33
f 39/39/39 38/38/38 37/37/37
f 40/40/40 39/39/39 37/37/37
f 43/43/43 42/42/42 41/41/41
f 44/44/44 43/43/43 41/41/41
f 44/44/44 45/45/45 43/43/43
f 45/45/45 46/46/46 43/43/43
f 44/44/44 47/47/47 45/45/45
f 47/47/47 48/48/48 45/45/45
f 51/51/51 50/50/50 49/49/49
f 50/50/50 52/52/52 49/49/49
f 52/52/52 53/53/53 49/49/49
f 53/53/53 54/54/54 49/49/49
f 54/54/54 55/55/55 49/49/49
f 55/55/55 56/56/56 49/49/49
f 59/59/59 58/58/58 57/57/57
f 60/60/60 59/59/59 57/57/57
f 63/63/63 62/62/62 61/61/61
f 64/64/64 63/63/63 61/61/61
f 67/67/67 66/66/66 65/65/65
f 68/68/68 67/67/67 65/65/65
f 65/65/65 69/69/69 68/68/68
f 69/69/69 70/70/70 68/68/68
f 73/73/73 72/72/72 71/71/71
f 74/74/74 73/73/73 71/71/71
f 77/77/77 76/76/76 75/75/75
f 78/78/78 77/77/77 75/75/75
f 81/81/81 80/80/80 79/79/79
f 82/82/82 81/81/81 79/79/79
f 82/82/82 83/83/83 81/81/81
f 83/83/83 84/84/84 81/81/81
f 82/82/82 85/85/85 83/83/83
f 85/85/85 86/86/86 83/83/83
f 89/89/89 88/88/88 87/87/87
f 88/88/88 90/90/90 87/87/87
f 90/90/90 91/91/91 87/87/87
f 91/91/91 92/92/92 87/87/87
f 92/92/92 93/93/93 87/87/87
f 93/93/93 94/94/94 87/87/87
f 97/97/97 96/96/96 95/95/95
f 98/98/98 97/97/97 95/95/95
f 101/101/101 100/100/100 99/99/99
f 102/102/102 101/101/101 99/99/99
f 105/105/105 104/104/104 103/103/103
f 106/106/106 105/105/105 103/103/103
f 103/103/103 107/107/107 106/106/106
f 107/107/107 108/108/108 106/106/106
f 111/111/111 110/110/110 109/109/109
f 112/112/112 111/111/111 109/109/109
f 115/115/115 114/114/114 113/113/113
f 116/116/116 115/115/115 113/113/113
