g Model_0
v -8.92486668 -6.11770964 -2.89112735
v -6.40248775 -15.4784975 -2.03348565
v 3.55228591 -14.2667179 -2.52102876
v 4.75673819 -6.05254459 -3.02822852
v 1.03851223 1.07591164 -4.53039932
v -6.94772863 1.0742408 -2.64233088
v 6.97389126 2.94032145 -3.45773816
v 9.84908009 11.4475775 -2.5544107
v -5.41168737 4.93916512 -3.11537671
v 5.00038576 13.95154 -2.96360183
v 1.0565201 15.655653 -1.38378549
v 9.84908009 11.4475775 -2.5544107
v 8.19987869 11.3178396 3.57150269
v 5.00038576 13.95154 -2.96360183
v 2.07827926 13.4976921 3.90857553
v 1.0565201 15.655653 -1.38378549
v -4.4949379 7.24378395 4.21055794
v 1.0565201 15.655653 -1.38378549
v 2.07827926 13.4976921 3.90857553
v -5.41168737 4.93916512 -3.11537671
v -6.94772863 1.0742408 -2.64233088
v -5.65485191 -1.50165701 4.64046383
v -6.70974398 -6.34981346 3.00145864
v -8.92486668 -6.11770964 -2.89112735
v -6.74797964 -12.5415678 2.59312892
v -6.40248775 -15.4784975 -2.03348565
v 6.97389126 2.94032145 -3.45773816
v 8.19987869 11.3178396 3.57150269
v 9.84908009 11.4475775 -2.5544107
v 3.16073346 3.40488863 4.46133471
v 2.64819455 -1.54817963 4.62927628
v 4.75673819 -6.05254459 -3.02822852
v 3.06015229 -5.65928745 4.22682762
v 2.97803855 -10.1943254 3.95788479
v 3.55228591 -14.2667179 -2.52102876
v 3.16073346 3.40488863 4.46133471
v 2.07827926 13.4976921 3.90857553
v 8.19987869 11.3178396 3.57150269
v -4.4949379 7.24378395 4.21055794
v -2.41481614 1.30684912 4.50625801
v -5.65485191 -1.50165701 4.64046383
v 2.64819455 -1.54817963 4.62927628
v -1.19960153 -3.76316714 4.24835205
v -6.70974398 -6.34981346 3.00145864
v 3.06015229 -5.65928745 4.22682762
v 0.0501702055 -8.38906384 3.54614544
v -6.74797964 -12.5415678 2.59312892
v 2.97803855 -10.1943254 3.95788479
v -6.40248775 -15.4784975 -2.03348565
v -6.74797964 -12.5415678 2.59312892
v 2.97803855 -10.1943254 3.95788479
v 3.55228591 -14.2667179 -2.52102876
vt 0.521830201 0.202568799
vt 0.410154045 -5.04338171E-09
vt 0.187405214 0.0855790749
vt 0.206573069 0.282329082
vt 0.333946675 0.426485181
vt 0.521356702 0.380608499
vt 0.206736311 0.502281785
vt 0.187405139 0.715927243
vt 0.505863488 0.479408473
vt 0.315165669 0.74568665
vt 0.421736389 0.767916441
vt 0.847356439 0.654365897
vt 0.703628421 0.698399901
vt 0.866472721 0.782590389
vt 0.703628421 0.852548361
vt 0.836815357 0.886898696
vt 0.174353182 0.556618631
vt 0.0437277034 0.796429455
vt 0.179018199 0.771626413
vt 1.8332603E-08 0.50028199
vt 0.0098342197 0.401609033
vt 0.187405124 0.347783267
vt 0.149152234 0.230054021
vt 4.51856996E-09 0.225085407
vt 0.150084466 0.0830522031
vt 0.0499673933 -2.07876418E-08
vt 0.792066991 0.213396013
vt 0.955350995 0.0101718651
vt 0.805373371 1.07395808E-08
vt 0.99999994 0.228901595
vt 0.993864119 0.346774369
vt 0.795493007 0.433026463
vt 0.971986353 0.442653626
vt 0.954757988 0.548907876
vt 0.792066991 0.630038917
vt 0.719278693 0.427515805
vt 0.638832092 0.654365957
vt 0.792066991 0.6384238
vt 0.521830201 0.474063993
vt 0.602327645 0.348362327
vt 0.542895734 0.265927941
vt 0.734904349 0.310678273
vt 0.65843147 0.237676367
vt 0.545939624 0.142409369
vt 0.767301381 0.218038648
vt 0.713499665 0.136798412
vt 0.581782281 3.19235731E-08
vt 0.792066991 0.113494903
vt 0.691464126 0.654365897
vt 0.561393023 0.655979633
vt 0.521830201 0.891905844
vt 0.703628421 0.891905844
vn -0.0717315376 -0.0695302114 -0.994997621
vn -0.0364104025 -0.100903228 -0.994229794
vn -0.0230697878 -0.0805793256 -0.99648118
vn 0.0631417185 -0.123640329 -0.990316212
vn -0.0137858745 0.00712266797 -0.999879599
vn -0.229943067 0.0344682112 -0.972593486
vn 0.185062319 -0.0239187423 -0.982435703
vn 0.144086346 0.0657146797 -0.987380743
vn -0.200002074 0.143031985 -0.969299197
vn -0.0806553438 0.180886149 -0.980191231
vn -0.242411226 0.295621216 -0.924037278
vn 0.44516179 0.884661674 0.138581052
vn 0.392582506 0.9035061 0.171917588
vn 0.418411225 0.885979414 0.19993116
vn 0.404289037 0.885145783 0.23036325
vn 0.467757225 0.846337199 0.254787505
vn -0.882604241 0.446808577 0.146191269
vn -0.764270306 0.620718956 0.174925253
vn -0.623524487 0.674452245 0.39538759
vn -0.893614411 0.447892785 -0.0290750042
vn -0.954014897 0.223172113 0.200124741
vn -0.96575892 0.137427256 0.220053673
vn -0.943422675 0.119459279 0.309326679
vn -0.962612987 -0.010984173 0.270657688
vn -0.965184748 -0.136679783 0.223017782
vn -0.963823378 -0.251671046 0.087784946
vn 0.88882935 -0.272552937 0.368371129
vn 0.857535243 -0.398477465 0.325344473
vn 0.912062585 -0.333571315 0.238478407
vn 0.86037153 -0.273126662 0.430305213
vn 0.935182571 -0.0701431558 0.347150654
vn 0.965300262 -0.0741550848 0.250392675
vn 0.973756194 0.0221969951 0.226508498
vn 0.976367295 -0.0820898116 0.199920312
vn 0.976478696 -0.132688075 0.169951051
vn 0.0143193137 0.0494594164 0.998673439
vn 0.0358085185 0.058479201 0.997646153
vn 0.0771416351 0.0627695844 0.995042324
vn -0.0054529137 0.0499373563 0.998737514
vn -0.00122068264 0.0062184534 0.999979973
vn -0.000755072921 -0.0979792848 0.995188117
vn -0.0353968069 -0.0441596881 0.998397171
vn -0.0512843467 -0.143876478 0.988265812
vn -0.102218308 -0.185763299 0.977263272
vn -0.0943535119 -0.108515635 0.989606917
vn -0.123346947 -0.0946688578 0.987837672
vn -0.119394623 -0.0322785191 0.992322028
vn -0.155775577 -0.0274388306 0.98741132
vn 0.12670064 -0.833931983 0.537126124
vn 0.125566408 -0.8333112 0.538354456
vn 0.12670064 -0.833931983 0.537126124
vn 0.127834469 -0.834550083 0.535896003
g Model_0_0
f 3/3/3 2/2/2 1/1/1
f 4/4/4 3/3/3 1/1/1
f 4/4/4 1/1/1 5/5/5
f 6/6/6 5/5/5 1/1/1
f 7/7/7 4/4/4 5/5/5
f 8/8/8 7/7/7 5/5/5
f 9/9/9 5/5/5 6/6/6
f 10/10/10 8/8/8 5/5/5
f 10/10/10 5/5/5 9/9/9
f 11/11/11 10/10/10 9/9/9
f 14/14/14 13/13/13 12/12/12
f 13/13/13 14/14/14 15/15/15
f 15/15/15 14/14/14 16/16/16
f 19/19/19 18/18/18 17/17/17
f 18/18/18 20/20/20 17/17/17
f 20/20/20 21/21/21 17/17/17
f 21/21/21 22/22/22 17/17/17
f 22/22/22 21/21/21 23/23/23
f 24/24/24 23/23/23 21/21/21
f 25/25/25 23/23/23 24/24/24
f 26/26/26 25/25/25 24/24/24
f 29/29/29 28/28/28 27/27/27
f 28/28/28 30/30/30 27/27/27
f 27/27/27 30/30/30 31/31/31
f 32/32/32 27/27/27 31/31/31
f 33/33/33 32/32/32 31/31/31
f 33/33/33 34/34/34 32/32/32
f 34/34/34 35/35/35 32/32/32
f 38/38/38 37/37/37 36/36/36
f 37/37/37 39/39/39 36/36/36
f 40/40/40 36/36/36 39/39/39
f 41/41/41 40/40/40 39/39/39
f 42/42/42 36/36/36 40/40/40
f 40/40/40 41/41/41 43/43/43
f 43/43/43 42/42/42 40/40/40
f 43/43/43 41/41/41 44/44/44
f 45/45/45 42/42/42 43/43/43
f 46/46/46 43/43/43 44/44/44
f 45/45/45 43/43/43 46/46/46
f 46/46/46 44/44/44 47/47/47
f 45/45/45 46/46/46 48/48/48
f 48/48/48 46/46/46 47/47/47
f 51/51/51 50/50/50 49/49/49
f 52/52/52 51/51/51 49/49/49
