g Model_0
v 7.756520 4.515327 0.254754
v 9.075442 -2.271822 1.187262
v 8.259490 -1.027548 4.465716
v 1.757242 -8.466805 -3.037778
v 2.366940 -5.751671 -6.072111
v -4.697017 -4.632157 -6.800116
v 9.075442 -2.271822 1.187262
v 7.669145 -4.123614 3.853539
v 8.259490 -1.027548 4.465716
v 5.787673 -6.813516 0.479602
v 4.428072 -5.220513 5.604990
v -1.291020 -10.191316 0.852316
v -1.291020 -10.191316 0.852316
v -1.451833 -6.151550 7.242593
v 7.669145 -4.123614 3.853539
v 9.075442 -2.271822 1.187262
v -1.291020 -10.191316 0.852316
v 1.757242 -8.466805 -3.037778
v 6.421632 -5.175532 -2.250517
v 1.757242 -8.466805 -3.037778
v 9.075442 -2.271822 1.187262
v 7.651755 -1.958243 -3.420375
v 9.075442 -2.271822 1.187262
v 8.259490 -1.027548 4.465716
v 7.669145 -4.123614 3.853539
v 3.887071 0.586726 8.134377
v -0.312565 -2.548653 9.430717
v -1.451833 -6.151550 7.242593
v 4.332157 5.621278 5.483386
v -0.262407 8.150179 4.562186
v 5.270231 7.963839 0.987883
v 8.259490 -1.027548 4.465716
v 3.887071 0.586726 8.134377
v -4.864798 0.824764 -7.852447
v -9.861160 0.991115 -4.980117
v -10.174936 -1.061098 -3.980024
v -4.864798 0.824764 -7.852447
v -4.697017 -4.632157 -6.800116
v -3.927120 7.631618 -2.779463
v -4.864798 0.824764 -7.852447
v -0.658334 7.851498 -5.454289
v -3.927120 7.631618 -2.779463
v -9.861160 0.991115 -4.980117
v -4.864798 0.824764 -7.852447
v 1.330543 3.407585 -7.321033
v -0.658334 7.851498 -5.454289
v -4.864798 0.824764 -7.852447
v -4.864798 0.824764 -7.852447
v 1.566288 -2.835681 -7.512265
v -4.697017 -4.632157 -6.800116
v 2.366940 -5.751671 -6.072111
v 2.366940 -5.751671 -6.072111
v 7.651755 -1.958243 -3.420375
v 6.421632 -5.175532 -2.250517
v 7.651755 -1.958243 -3.420375
v 1.757242 -8.466805 -3.037778
v -4.417486 -8.636541 -1.123982
v -1.291020 -10.191316 0.852316
v 1.757242 -8.466805 -3.037778
v -4.697017 -4.632157 -6.800116
v -1.291020 -10.191316 0.852316
v -5.590099 -6.503936 3.443129
v -1.451833 -6.151550 7.242593
v -9.449760 -0.865583 2.138996
v -6.904248 2.112443 6.457157
v -1.451833 -6.151550 7.242593
v -0.312565 -2.548653 9.430717
v -1.291020 -10.191316 0.852316
v -4.417486 -8.636541 -1.123982
v -9.449760 -0.865583 2.138996
v -10.174936 -1.061098 -3.980024
v -6.904248 2.112443 6.457157
v -4.613173 6.148720 6.333224
v -0.312565 -2.548653 9.430717
v -0.262407 8.150179 4.562186
v 4.332157 5.621278 5.483386
v 3.887071 0.586726 8.134377
v -0.312565 -2.548653 9.430717
v 7.756520 4.515327 0.254754
v 8.259490 -1.027548 4.465716
v 5.270231 7.963839 0.987883
v -0.658334 7.851498 -5.454289
v -0.431211 8.793393 1.761947
v -3.927120 7.631618 -2.779463
v -0.262407 8.150179 4.562186
v -4.613173 6.148720 6.333224
v -6.813786 5.491337 1.955565
v -3.927120 7.631618 -2.779463
v -6.904248 2.112443 6.457157
v -6.813786 5.491337 1.955565
v -9.449760 -0.865583 2.138996
v -10.174936 -1.061098 -3.980024
v -9.861160 0.991115 -4.980117
v -9.304782 2.734971 0.505100
v -9.449760 -0.865583 2.138996
v -3.927120 7.631618 -2.779463
v -9.304782 2.734971 0.505100
v -9.861160 0.991115 -4.980117
v 5.270231 7.963839 0.987883
v -0.658334 7.851498 -5.454289
v 3.720035 7.044519 -3.697337
v -0.658334 7.851498 -5.454289
v 5.270231 7.963839 0.987883
v -0.431211 8.793393 1.761947
v -9.304782 2.734971 0.505100
v -6.813786 5.491337 1.955565
v -9.449760 -0.865583 2.138996
v -0.658334 7.851498 -5.454289
v 6.414698 3.179357 -4.114708
v 3.720035 7.044519 -3.697337
v 5.270231 7.963839 0.987883
v 8.259490 -1.027548 4.465716
v 4.332157 5.621278 5.483386
v -0.262407 8.150179 4.562186
v -0.431211 8.793393 1.761947
v 5.270231 7.963839 0.987883
v 9.075442 -2.271822 1.187262
v 6.414698 3.179357 -4.114708
v 7.651755 -1.958243 -3.420375
v 9.075442 -2.271822 1.187262
v 7.756520 4.515327 0.254754
v 5.270231 7.963839 0.987883
v 3.720035 7.044519 -3.697337
v 6.414698 3.179357 -4.114708
v 7.651755 -1.958243 -3.420375
v 1.566288 -2.835681 -7.512265
v 1.330543 3.407585 -7.321033
v -0.658334 7.851498 -5.454289
v -4.417486 -8.636541 -1.123982
v -4.697017 -4.632157 -6.800116
v -10.174936 -1.061098 -3.980024
vt 0.632870972 1.74696398
vt 0.438044995 2.45141792
vt 0.809831977 2.35674405
vt -1.57918 0.657855988
vt -1.245121 0.362857014
vt -1.79186404 -0.251401007
vt 2.31438589 -0.135778993
vt 2.01025295 0.0447270013
vt 2.20135093 0.265116006
vt 1.78570497 -0.451938987
vt 1.58362997 0.156940997
vt 0.902503014 -0.617361009
vt 0.902503014 -0.617361009
vt 0.903276026 0.251450986
vt 2.01025295 0.0447270013
vt 2.31438589 -0.135778993
vt 0.902503014 -0.617361009
vt 1.39927197 -0.92376399
vt 2.00380993 -0.653798997
vt 1.39927197 -0.92376399
vt 2.31438589 -0.135778993
vt 2.31438589 -0.610845029
vt 2.31438589 -0.135778993
vt 2.20135093 0.265116006
vt 2.01025295 0.0447270013
vt 1.73831201 0.706384003
vt 1.13011301 0.665018022
vt 0.903276026 0.251450986
vt 1.474805 2.07386088
vt 0.996551991 1.69011104
vt 1.096246 2.33571506
vt 2.25058508 2.25367188
vt 2.06236291 1.78803396
vt -1.45144999 -0.76937902
vt -2.01142097 -1.03438604
vt -2.19812393 -0.845269978
vt -1.45144999 -0.76937902
vt -1.79186404 -0.251401007
vt -1.90629995 1.38421702
vt -1.341887 0.726494014
vt -2.2193749 1.10306299
vt -1.90629995 1.38421702
vt -0.918713987 1.02073598
vt -1.341887 0.726494014
vt -0.763167977 -0.541571975
vt -0.764360011 -0.999732971
vt -1.45144999 -0.76937902
vt -1.45144999 -0.76937902
vt -1.09207499 0.00651000021
vt -1.79186404 -0.251401007
vt -1.245121 0.362857014
vt -1.245121 0.362857014
vt -0.655966997 0.495104015
vt -0.999454021 0.726494014
vt -0.655966997 0.495104015
vt -1.57918 0.657855988
vt -2.22638607 0.306896001
vt -2.11223793 0.726494014
vt -1.57918 0.657855988
vt -1.79186404 -0.251401007
vt 0.902503014 -0.570460975
vt 0.440095991 -0.0352189988
vt 0.902503014 0.285207987
vt -0.321390003 0.175264001
vt -0.144137993 0.706384003
vt 0.902503014 0.285207987
vt 0.827401996 0.654600024
vt 0.902503014 -0.570460975
vt 0.462559015 -0.635170996
vt -0.321390003 0.175264001
vt -0.655966997 -0.454647005
vt 1.39406598 0.706384003
vt 1.08652902 1.11415505
vt 2.25058508 1.19125104
vt 0.996551991 1.69011104
vt 1.474805 2.07386088
vt 2.06236291 1.78803396
vt 2.25058508 1.19125104
vt 1.13208497 2.74184203
vt 1.30395997 3.50638604
vt 1.30395997 2.33571506
vt -2.2193749 1.10306299
vt -2.22638607 1.94640601
vt -1.90629995 1.38421702
vt -2.15402102 2.26463199
vt -1.620803 2.41606808
vt -1.44369602 1.88764298
vt -1.90629995 1.38421702
vt -1.10863698 2.37396193
vt -1.44369602 1.88764298
vt -0.71540302 1.82751203
vt -0.71540302 1.11404204
vt -0.918713987 1.02073598
vt -1.03802896 1.67459595
vt -0.71540302 1.82751203
vt -1.90629995 1.38421702
vt -1.03802896 1.67459595
vt -0.918713987 1.02073598
vt 0.809831977 1.281111
vt 0.00514299981 0.706384003
vt 0.252617002 1.14053202
vt 0.00514299981 0.706384003
vt 0.809831977 1.281111
vt 0.787903011 0.803322971
vt -1.03802896 1.67459595
vt -1.44369602 1.88764298
vt -0.71540302 1.82751203
vt 0.00514299981 0.706384003
vt 0.0930629969 1.664873
vt 0.252617002 1.14053202
vt 1.13208497 3.4113481
vt 1.13208497 2.33571506
vt 0.809831977 3.17839098
vt 0.996551991 1.69011104
vt 0.809831977 1.73980999
vt 1.096246 2.33571506
vt 0.438044995 2.45141792
vt 0.0930629969 1.664873
vt -0.0497290008 2.21558905
vt 0.438044995 2.45141792
vt 0.632870972 1.74696398
vt 0.809831977 1.281111
vt 0.252617002 1.14053202
vt 0.0930629969 1.664873
vt -0.0497290008 2.21558905
vt -0.655966997 1.74777102
vt -0.346291989 1.19583094
vt 0.00514299981 0.706384003
vt 0.462559015 -0.635170996
vt -0.126353994 -1.03438604
vt -0.655966997 -0.454647005
vn 0.900641 0.424239 -0.094163
vn 0.996319 0.078774 -0.033825
vn 0.871197 0.238403 0.429161
vn 0.174092 -0.822933 -0.540809
vn 0.314969 -0.621940 -0.716928
vn -0.257463 -0.547369 -0.796304
vn 0.975633 -0.201630 -0.086513
vn 0.747378 -0.517214 0.417032
vn 0.817040 0.090992 0.569355
vn 0.620994 -0.782761 0.040633
vn 0.457027 -0.583859 0.670995
vn 0.385233 -0.878051 0.283939
vn 0.201330 -0.911524 0.358595
vn 0.069811 -0.770531 0.633568
vn 0.778350 -0.575283 0.251438
vn 0.880437 -0.473359 -0.027603
vn 0.277551 -0.955980 0.095219
vn 0.383744 -0.850240 -0.360322
vn 0.708489 -0.593473 -0.381881
vn 0.300347 -0.848021 -0.436638
vn 0.927614 -0.361702 -0.093295
vn 0.769625 -0.199892 -0.606400
vn 0.953830 -0.271164 -0.129144
vn 0.711862 -0.131327 0.689932
vn 0.694479 -0.470245 0.544581
vn 0.597342 -0.106539 0.794878
vn 0.398863 -0.442415 0.803229
vn 0.292631 -0.697415 0.654201
vn 0.446438 0.539661 0.713764
vn 0.080470 0.870344 0.485826
vn 0.493681 0.807175 0.323648
vn 0.817040 0.090992 0.569355
vn 0.409166 0.110223 0.905778
vn -0.263325 -0.172447 -0.949169
vn -0.479586 -0.324067 -0.815462
vn -0.574621 -0.396854 -0.715764
vn -0.299285 0.045693 -0.953069
vn -0.275846 -0.479765 -0.832907
vn -0.620916 0.661035 -0.421303
vn -0.418680 0.354738 -0.835983
vn -0.326125 0.474312 -0.817723
vn -0.544331 0.752147 -0.371454
vn -0.584237 0.672597 -0.454182
vn -0.349091 0.513689 -0.783747
vn 0.269176 0.253568 -0.929111
vn 0.071071 0.497324 -0.864649
vn -0.283089 0.213159 -0.935106
vn -0.229283 -0.063554 -0.971283
vn 0.299506 -0.134865 -0.944514
vn -0.166062 -0.505922 -0.846443
vn 0.374884 -0.550136 -0.746199
vn 0.473246 -0.479857 -0.738766
vn 0.769625 -0.199892 -0.606400
vn 0.708489 -0.593473 -0.381881
vn 0.687935 -0.292799 -0.664089
vn 0.223597 -0.855504 -0.467030
vn -0.316231 -0.801472 -0.507583
vn 0.160528 -0.942800 -0.292162
vn 0.060446 -0.812040 -0.580463
vn -0.189117 -0.612439 -0.767563
vn -0.235765 -0.863218 0.446395
vn -0.657572 -0.602677 0.452082
vn -0.358913 -0.623254 0.694792
vn -0.909669 -0.240919 0.338320
vn -0.565300 -0.202264 0.799703
vn -0.539920 -0.492764 0.682400
vn -0.441850 -0.053582 0.895487
vn -0.469495 -0.803910 0.365108
vn -0.738807 -0.673881 -0.007040
vn -0.897335 -0.372944 0.236015
vn -0.755626 -0.634940 -0.160877
vn -0.565300 -0.202264 0.799703
vn -0.009290 0.385325 0.922734
vn -0.293186 0.088203 0.951978
vn 0.235179 0.680187 0.694289
vn 0.329130 0.547766 0.769172
vn 0.286605 0.386221 0.876750
vn -0.131178 0.274405 0.952625
vn 0.882028 0.333172 0.333201
vn 0.871197 0.238403 0.429161
vn 0.664135 0.577386 0.474921
vn 0.081053 0.980409 -0.179525
vn -0.193335 0.978583 0.070688
vn -0.523599 0.825793 -0.209545
vn 0.064740 0.942719 0.327246
vn -0.558932 0.795947 0.232517
vn -0.699355 0.699076 0.148980
vn -0.530662 0.844877 -0.067675
vn -0.853206 0.425227 0.302030
vn -0.721528 0.649849 0.238942
vn -0.926637 0.250951 0.279941
vn -0.973335 0.201889 0.108901
vn -0.941083 0.337880 0.014141
vn -0.863294 0.489556 0.122712
vn -0.950006 -0.079334 0.301985
vn -0.538867 0.791042 -0.289613
vn -0.853962 0.516275 -0.064880
vn -0.876528 0.441527 -0.191709
vn 0.346284 0.926527 -0.147091
vn 0.193360 0.921294 -0.337386
vn 0.600416 0.716917 -0.354304
vn 0.081053 0.980409 -0.179525
vn 0.358407 0.933472 -0.013184
vn -0.193335 0.978583 0.070688
vn -0.904490 0.205908 0.373496
vn -0.818916 0.394049 0.417255
vn -0.918961 0.137279 0.369682
vn 0.279491 0.430302 -0.858327
vn 0.567298 0.316252 -0.760367
vn 0.645724 0.528562 -0.551056
vn 0.664135 0.577386 0.474921
vn 0.871197 0.238403 0.429161
vn 0.645065 0.534127 0.546442
vn 0.064740 0.942719 0.327246
vn -0.193335 0.978583 0.070688
vn 0.241585 0.967256 0.077798
vn 0.995442 -0.029228 -0.090780
vn 0.748954 0.261942 -0.608650
vn 0.793022 -0.124311 -0.596374
vn 0.986423 -0.127275 -0.103785
vn 0.886063 0.395038 -0.242564
vn 0.395579 0.878641 -0.267409
vn 0.571545 0.652907 -0.497040
vn 0.704818 0.282008 -0.650925
vn 0.769625 -0.199892 -0.606400
vn 0.299506 -0.134865 -0.944514
vn 0.269176 0.253568 -0.929111
vn 0.296408 0.590101 -0.750948
vn -0.577473 -0.791568 -0.199864
vn -0.372288 -0.640826 -0.671374
vn -0.688778 -0.479361 -0.543873
g Model_0_0
f 3/3/3 2/2/2 1/1/1
f 6/6/6 5/5/5 4/4/4
f 9/9/9 8/8/8 7/7/7
f 8/8/8 11/11/11 10/10/10
f 12/12/12 10/10/10 11/11/11
f 11/11/11 14/14/14 13/13/13
f 16/16/16 15/15/15 10/10/10
f 18/18/18 10/10/10 17/17/17
f 10/10/10 20/20/20 19/19/19
f 19/19/19 21/21/21 10/10/10
f 23/23/23 19/19/19 22/22/22
f 25/25/25 24/24/24 11/11/11
f 24/24/24 26/26/26 11/11/11
f 26/26/26 27/27/27 11/11/11
f 28/28/28 11/11/11 27/27/27
f 31/31/31 30/30/30 29/29/29
f 33/33/33 32/32/32 29/29/29
f 36/36/36 35/35/35 34/34/34
f 38/38/38 36/36/36 37/37/37
f 41/41/41 40/40/40 39/39/39
f 44/44/44 43/43/43 42/42/42
f 47/47/47 46/46/46 45/45/45
f 45/45/45 49/49/49 48/48/48
f 49/49/49 50/50/50 48/48/48
f 50/50/50 49/49/49 51/51/51
f 49/49/49 53/53/53 52/52/52
f 55/55/55 54/54/54 51/51/51
f 56/56/56 51/51/51 54/54/54
f 58/58/58 57/57/57 56/56/56
f 57/57/57 60/60/60 59/59/59
f 63/63/63 62/62/62 61/61/61
f 65/65/65 64/64/64 62/62/62
f 65/65/65 62/62/62 66/66/66
f 67/67/67 65/65/65 66/66/66
f 69/69/69 68/68/68 62/62/62
f 70/70/70 69/69/69 62/62/62
f 69/69/69 70/70/70 71/71/71
f 74/74/74 73/73/73 72/72/72
f 76/76/76 75/75/75 73/73/73
f 76/76/76 73/73/73 77/77/77
f 78/78/78 77/77/77 73/73/73
f 81/81/81 80/80/80 79/79/79
f 84/84/84 83/83/83 82/82/82
f 86/86/86 85/85/85 83/83/83
f 86/86/86 83/83/83 87/87/87
f 83/83/83 88/88/88 87/87/87
f 86/86/86 90/90/90 89/89/89
f 90/90/90 91/91/91 89/89/89
f 91/91/91 93/93/93 92/92/92
f 93/93/93 95/95/95 94/94/94
f 97/97/97 87/87/87 96/96/96
f 98/98/98 97/97/97 96/96/96
f 101/101/101 100/100/100 99/99/99
f 104/104/104 103/103/103 102/102/102
f 107/107/107 106/106/106 105/105/105
f 110/110/110 109/109/109 108/108/108
f 113/113/113 112/112/112 111/111/111
f 116/116/116 115/115/115 114/114/114
f 119/119/119 118/118/118 117/117/117
f 118/118/118 121/121/121 120/120/120
f 123/123/123 122/122/122 121/121/121
f 124/124/124 123/123/123 121/121/121
f 126/126/126 124/124/124 125/125/125
f 127/127/127 124/124/124 126/126/126
f 124/124/124 127/127/127 128/128/128
f 131/131/131 130/130/130 129/129/129