g Model_0
v 4.667116 4.347766 1.675763
v 8.550179 8.518627 1.545232
v 9.129951 3.950134 2.146457
v 5.491966 8.467477 0.752112
v -0.030941 3.472421 2.537693
v -0.072380 -0.352056 2.077152
v 4.093686 -0.097594 1.847682
v 9.129951 3.950134 2.146457
v 8.823006 -0.191653 2.481399
v 0.191390 -4.433012 2.579053
v 4.379093 -4.332062 2.703104
v 8.823006 -0.191653 2.481399
v 8.420525 -3.663716 2.162176
v 12.341249 -0.105259 -0.495515
v -4.282529 -1.086176 3.240065
v -4.016387 -4.593802 2.422504
v 0.728136 -8.389838 3.350085
v 4.583905 -7.996692 2.930753
v -4.084041 -8.414774 1.968480
v 12.342939 -4.152954 1.504349
v 8.616510 -8.230570 1.744896
v 0.008100 -12.654706 2.892487
v -4.073890 -12.987992 2.566511
v 4.444624 -12.789632 2.685462
v -8.316483 -8.456269 2.620836
v -8.012514 -4.632048 2.242875
v -8.318160 -12.877859 1.905570
v -3.710163 -16.532169 0.066888
v -7.822184 -16.679977 -1.361155
v -0.653796 -16.529526 0.213180
v -12.006846 -16.711899 -1.598467
v 3.773298 -16.533567 -0.461743
v -12.356582 -12.632144 -0.404698
v -16.065237 -16.393021 -2.247128
v -16.265720 -12.130239 -1.852016
v 8.644734 -12.589099 1.616210
v 8.092643 -16.522354 -0.839462
v -12.479826 -8.366376 0.469831
v -16.533462 -8.536302 -0.923365
v -12.355120 -4.574814 1.618343
v -17.054140 -4.458765 -1.008326
v 12.460375 -12.210291 -0.173728
v 12.010597 -16.307024 -0.928922
v 12.803516 -8.383570 1.520405
v 16.445913 -12.089814 -1.838507
v 15.859144 -16.239569 -1.257686
v 16.707500 -8.243171 -1.480319
v 16.594961 -4.433485 -1.356776
v 16.670149 0.018787 -1.618433
v 16.594841 4.362601 -1.903069
v 12.781311 4.218288 -0.826544
v 8.823006 -0.191653 2.481399
v 9.129951 3.950134 2.146457
v 16.755177 8.635853 -2.043346
v 12.685922 8.869626 -1.517762
v 9.129951 3.950134 2.146457
v 8.550179 8.518627 1.545232
v 15.881521 12.256113 -2.121444
v 11.954380 12.251133 -1.005675
v 15.653774 16.131258 -2.477011
v 8.550179 8.518627 1.545232
v 12.013407 16.435524 -1.743618
v 8.527176 12.626758 -0.419255
v 8.008020 17.051342 -2.019342
v 5.009175 13.189609 0.864977
v 3.970467 16.790245 -2.222494
v 0.508102 8.888979 1.770396
v -0.021787 13.484487 0.542917
v -0.062176 16.910395 -1.399111
v -4.895844 3.326445 1.967107
v -4.381433 14.023959 -0.242800
v -4.503413 16.252565 -1.563553
v -4.175176 9.334026 1.824981
v -8.803463 -0.724162 2.863162
v -9.031051 13.027802 -0.236525
v -8.738874 16.537460 -1.561367
v -9.223194 9.097668 2.466333
v -9.174197 3.530148 1.891268
v -12.610241 -0.153735 1.874705
v -16.769627 -0.191568 -1.670530
v -12.972867 4.134330 2.062507
v -16.431192 3.581296 -2.104800
v -13.138973 7.613533 0.827396
v -16.357372 8.051614 -2.359735
v -12.208974 12.494052 -0.364174
v -16.292625 12.145736 -2.074888
v -12.064362 16.204659 -1.977060
v -16.141705 16.202709 -2.118905
vt 0.768243015 0.731693983
vt 0.994156003 0.955869973
vt 1.01951897 0.702677011
vt 0.819935977 0.970238984
vt 0.500598013 0.681037009
vt 0.498095006 0.465959996
vt 0.733883977 0.479366004
vt 1.01951897 0.702677011
vt 1.00279498 0.470683008
vt 0.509085 0.232692003
vt 0.746492028 0.235179007
vt 1.00279498 0.470683008
vt 0.977810979 0.273229003
vt 1.26146901 0.488911986
vt 0.259029001 0.417993009
vt 0.272996992 0.222105995
vt 0.541462004 0.00952100009
vt 0.754114985 0.0289680008
vt 0.268440992 0.010791
vt 1.20221198 0.242121994
vt 0.991234004 0.0110419998
vt 0.496910989 -0.224748999
vt 0.272009999 -0.241614997
vt 0.742169023 -0.234493002
vt 0.03517 0.00898800045
vt 0.0509819984 0.219942003
vt 0.0385369994 -0.233876005
vt 0.273456991 -0.487603992
vt 0.0210020002 -0.514973998
vt 0.453058004 -0.492859989
vt -0.219720006 -0.503001988
vt 0.715749979 -0.515240014
vt -0.223605007 -0.254099995
vt -0.457210988 -0.482495993
vt -0.468917012 -0.234854996
vt 0.984319985 -0.237360999
vt 0.974039018 -0.510649025
vt -0.225900993 -0.001804
vt -0.473461986 -0.0174690001
vt -0.196850002 0.223251
vt -0.508060992 0.221616
vt 1.23150504 -0.231287003
vt 1.20733297 -0.480455011
vt 1.22502398 0.00894599967
vt 1.48903799 -0.232722998
vt 1.43640697 -0.478356987
vt 1.50368595 -0.00457799993
vt 1.50276101 0.226208001
vt 1.520491 0.493708014
vt 1.51565099 0.752054989
vt 1.28384101 0.736230016
vt 1.00279498 0.470683008
vt 1.01951897 0.702677011
vt 1.51615596 1.00561094
vt 1.27765596 1.00597
vt 1.01951897 0.702677011
vt 0.994156003 0.955869973
vt 1.45101595 1.21687198
vt 1.20851302 1.199193
vt 1.42902899 1.44427896
vt 0.994156003 0.955869973
vt 1.210706 1.45113897
vt 1.00004995 1.21468604
vt 0.976396024 1.49443102
vt 0.78402698 1.23211706
vt 0.73645997 1.50515401
vt 0.531006992 0.987940013
vt 0.501177013 1.25950396
vt 0.496834993 1.48712206
vt 0.228370994 0.671626985
vt 0.248044997 1.30335903
vt 0.237031996 1.45352697
vt 0.264910012 1.01117098
vt 0.0123110004 0.440335989
vt -0.0182269998 1.24146104
vt -0.0105349999 1.460109
vt -0.00997599959 0.980628014
vt -0.0120989997 0.681806982
vt -0.20668 0.474624991
vt -0.520491004 0.474844992
vt -0.217161 0.707593024
vt -0.518265009 0.696744978
vt -0.242567003 0.908811986
vt -0.502452016 0.959134996
vt -0.203807995 1.203462
vt -0.464605987 1.19632399
vt -0.207950994 1.44184995
vt -0.446408004 1.43305099
vn 0.009890 0.088194 0.996054
vn 0.123297 0.205375 0.970886
vn -0.135517 0.122860 0.983128
vn 0.048773 0.165734 0.984964
vn 0.078859 0.072702 0.994231
vn 0.077958 0.046848 0.995855
vn 0.000705 0.064745 0.997902
vn 0.116888 0.142743 0.982833
vn 0.106591 0.107965 0.988424
vn -0.003213 0.073451 0.997294
vn 0.057475 0.088391 0.994426
vn 0.251179 0.084165 0.964275
vn 0.188432 0.049256 0.980850
vn 0.444499 0.118386 0.887922
vn 0.018213 0.029581 0.999396
vn -0.015288 -0.054344 0.998405
vn -0.063729 0.027505 0.997588
vn 0.146027 -0.001707 0.989279
vn -0.075929 0.008815 0.997074
vn 0.394701 0.101775 0.913155
vn 0.206796 -0.078454 0.975234
vn -0.018654 -0.326792 0.944912
vn -0.107540 -0.311015 0.944301
vn 0.146355 -0.350740 0.924966
vn -0.187922 -0.069149 0.979747
vn -0.133233 -0.105870 0.985414
vn -0.245645 -0.340285 0.907670
vn -0.107941 -0.598060 0.794149
vn -0.228921 -0.559846 0.796346
vn 0.020671 -0.593419 0.804628
vn -0.272056 -0.351235 0.895890
vn 0.108715 -0.606454 0.787651
vn -0.341870 -0.274816 0.898666
vn -0.268367 -0.197280 0.942900
vn -0.302227 -0.212040 0.929354
vn 0.231243 -0.319606 0.918901
vn 0.198783 -0.496275 0.845102
vn -0.385286 -0.153595 0.909925
vn -0.374620 -0.184723 0.908591
vn -0.379103 -0.078080 0.922054
vn -0.495707 -0.051485 0.866962
vn 0.313342 -0.232911 0.920635
vn 0.250312 -0.222171 0.942329
vn 0.368423 -0.125400 0.921162
vn 0.378638 -0.158541 0.911865
vn 0.247444 -0.051561 0.967529
vn 0.547109 -0.116215 0.828955
vn 0.503117 0.132006 0.854077
vn 0.338473 0.145317 0.929688
vn 0.229092 0.073583 0.970620
vn 0.434671 0.078348 0.897175
vn 0.371182 0.086346 0.924537
vn 0.619958 0.079376 0.780610
vn 0.200267 0.037426 0.979026
vn 0.363294 0.112917 0.924807
vn 0.401397 0.081856 0.912239
vn 0.380457 0.197369 0.903492
vn 0.221117 0.060550 0.973366
vn 0.238800 0.151978 0.959102
vn 0.240236 0.135446 0.961219
vn 0.250925 0.197224 0.947702
vn 0.158764 0.201380 0.966561
vn 0.186473 0.307997 0.932934
vn 0.109577 0.396501 0.911471
vn 0.097155 0.369412 0.924173
vn 0.106549 0.554459 0.825362
vn 0.042523 0.173944 0.983837
vn 0.002381 0.393484 0.919328
vn -0.014248 0.544276 0.838785
vn 0.007678 0.098848 0.995073
vn -0.044089 0.433892 0.899885
vn -0.066369 0.457901 0.886522
vn -0.008641 0.220076 0.975444
vn -0.102103 0.000699 0.994774
vn -0.124281 0.429069 0.894681
vn -0.080064 0.400361 0.912853
vn -0.121274 0.241261 0.962853
vn -0.065874 0.089863 0.993773
vn -0.412662 0.003919 0.910876
vn -0.644285 0.029907 0.764200
vn -0.459929 0.075651 0.884727
vn -0.725192 0.067957 0.685185
vn -0.470079 0.193209 0.861218
vn -0.648003 0.131222 0.750249
vn -0.314312 0.294080 0.902621
vn -0.393785 0.180646 0.901277
vn -0.176975 0.297392 0.938210
vn -0.224986 0.211448 0.951142
g Model_0_0
f 3/3/3 2/2/2 1/1/1
f 2/2/2 4/4/4 1/1/1
f 1/1/1 4/4/4 5/5/5
f 1/1/1 5/5/5 6/6/6
f 7/7/7 1/1/1 6/6/6
f 8/8/8 1/1/1 7/7/7
f 9/9/9 8/8/8 7/7/7
f 7/7/7 6/6/6 10/10/10
f 11/11/11 7/7/7 10/10/10
f 12/12/12 7/7/7 11/11/11
f 13/13/13 12/12/12 11/11/11
f 14/14/14 12/12/12 13/13/13
f 6/6/6 5/5/5 15/15/15
f 10/10/10 6/6/6 16/16/16
f 6/6/6 15/15/15 16/16/16
f 11/11/11 10/10/10 17/17/17
f 13/13/13 11/11/11 18/18/18
f 18/18/18 11/11/11 17/17/17
f 10/10/10 16/16/16 19/19/19
f 17/17/17 10/10/10 19/19/19
f 20/20/20 14/14/14 13/13/13
f 21/21/21 13/13/13 18/18/18
f 20/20/20 13/13/13 21/21/21
f 18/18/18 17/17/17 22/22/22
f 17/17/17 19/19/19 23/23/23
f 22/22/22 17/17/17 23/23/23
f 21/21/21 18/18/18 24/24/24
f 24/24/24 18/18/18 22/22/22
f 19/19/19 16/16/16 25/25/25
f 16/16/16 15/15/15 26/26/26
f 16/16/16 26/26/26 25/25/25
f 23/23/23 19/19/19 27/27/27
f 19/19/19 25/25/25 27/27/27
f 22/22/22 23/23/23 28/28/28
f 28/28/28 23/23/23 29/29/29
f 23/23/23 27/27/27 29/29/29
f 30/30/30 22/22/22 28/28/28
f 24/24/24 22/22/22 30/30/30
f 29/29/29 27/27/27 31/31/31
f 32/32/32 24/24/24 30/30/30
f 27/27/27 33/33/33 31/31/31
f 27/27/27 25/25/25 33/33/33
f 31/31/31 33/33/33 34/34/34
f 33/33/33 35/35/35 34/34/34
f 36/36/36 24/24/24 32/32/32
f 37/37/37 36/36/36 32/32/32
f 36/36/36 21/21/21 24/24/24
f 25/25/25 38/38/38 33/33/33
f 33/33/33 38/38/38 35/35/35
f 38/38/38 39/39/39 35/35/35
f 25/25/25 26/26/26 38/38/38
f 38/38/38 40/40/40 39/39/39
f 26/26/26 40/40/40 38/38/38
f 40/40/40 41/41/41 39/39/39
f 42/42/42 36/36/36 37/37/37
f 43/43/43 42/42/42 37/37/37
f 44/44/44 21/21/21 36/36/36
f 42/42/42 44/44/44 36/36/36
f 44/44/44 20/20/20 21/21/21
f 45/45/45 42/42/42 43/43/43
f 46/46/46 45/45/45 43/43/43
f 45/45/45 47/47/47 42/42/42
f 47/47/47 44/44/44 42/42/42
f 47/47/47 48/48/48 44/44/44
f 48/48/48 20/20/20 44/44/44
f 48/48/48 49/49/49 20/20/20
f 49/49/49 14/14/14 20/20/20
f 49/49/49 50/50/50 14/14/14
f 50/50/50 51/51/51 14/14/14
f 14/14/14 51/51/51 52/52/52
f 51/51/51 53/53/53 52/52/52
f 50/50/50 54/54/54 51/51/51
f 54/54/54 55/55/55 51/51/51
f 51/51/51 55/55/55 56/56/56
f 55/55/55 57/57/57 56/56/56
f 54/54/54 58/58/58 55/55/55
f 58/58/58 59/59/59 55/55/55
f 58/58/58 60/60/60 59/59/59
f 55/55/55 59/59/59 61/61/61
f 60/60/60 62/62/62 59/59/59
f 59/59/59 63/63/63 61/61/61
f 59/59/59 62/62/62 63/63/63
f 62/62/62 64/64/64 63/63/63
f 61/61/61 63/63/63 4/4/4
f 63/63/63 64/64/64 65/65/65
f 63/63/63 65/65/65 4/4/4
f 64/64/64 66/66/66 65/65/65
f 4/4/4 65/65/65 67/67/67
f 4/4/4 67/67/67 5/5/5
f 65/65/65 66/66/66 68/68/68
f 65/65/65 68/68/68 67/67/67
f 66/66/66 69/69/69 68/68/68
f 5/5/5 67/67/67 70/70/70
f 5/5/5 70/70/70 15/15/15
f 68/68/68 69/69/69 71/71/71
f 69/69/69 72/72/72 71/71/71
f 67/67/67 68/68/68 73/73/73
f 67/67/67 73/73/73 70/70/70
f 68/68/68 71/71/71 73/73/73
f 15/15/15 70/70/70 74/74/74
f 15/15/15 74/74/74 26/26/26
f 26/26/26 74/74/74 40/40/40
f 71/71/71 72/72/72 75/75/75
f 72/72/72 76/76/76 75/75/75
f 73/73/73 71/71/71 77/77/77
f 71/71/71 75/75/75 77/77/77
f 70/70/70 73/73/73 78/78/78
f 70/70/70 78/78/78 74/74/74
f 73/73/73 77/77/77 78/78/78
f 74/74/74 79/79/79 40/40/40
f 74/74/74 78/78/78 79/79/79
f 40/40/40 79/79/79 41/41/41
f 79/79/79 80/80/80 41/41/41
f 78/78/78 81/81/81 79/79/79
f 79/79/79 81/81/81 80/80/80
f 78/78/78 77/77/77 81/81/81
f 81/81/81 82/82/82 80/80/80
f 77/77/77 83/83/83 81/81/81
f 81/81/81 83/83/83 82/82/82
f 77/77/77 75/75/75 83/83/83
f 83/83/83 84/84/84 82/82/82
f 75/75/75 85/85/85 83/83/83
f 83/83/83 85/85/85 84/84/84
f 75/75/75 76/76/76 85/85/85
f 85/85/85 86/86/86 84/84/84
f 76/76/76 87/87/87 85/85/85
f 85/85/85 87/87/87 86/86/86
f 87/87/87 88/88/88 86/86/86