g Model_0
v 7.75651979 4.51532698 0.254754007
v 9.07544231 -2.27182198 1.18726206
v 8.25949001 -1.02754796 4.46571589
v 1.75724196 -8.46680546 -3.0377779
v 2.36694002 -5.75167084 -6.07211113
v -4.69701719 -4.63215685 -6.80011606
v 9.07544231 -2.27182198 1.18726206
v 7.66914511 -4.12361383 3.85353899
v 8.25949001 -1.02754796 4.46571589
v 5.787673 -6.81351614 0.479602009
v 4.42807198 -5.22051287 5.60499001
v -1.29102004 -10.1913157 0.852316022
v -1.29102004 -10.1913157 0.852316022
v -1.45183301 -6.15154982 7.24259281
v 7.66914511 -4.12361383 3.85353899
v 9.07544231 -2.27182198 1.18726206
v -1.29102004 -10.1913157 0.852316022
v 1.75724196 -8.46680546 -3.0377779
v 6.42163181 -5.17553186 -2.25051689
v 1.75724196 -8.46680546 -3.0377779
v 9.07544231 -2.27182198 1.18726206
v 7.65175486 -1.95824301 -3.42037511
v 9.07544231 -2.27182198 1.18726206
v 8.25949001 -1.02754796 4.46571589
v 7.66914511 -4.12361383 3.85353899
v 3.88707089 0.58672601 8.13437653
v -0.312564999 -2.54865289 9.43071747
v -1.45183301 -6.15154982 7.24259281
v 4.33215714 5.62127781 5.48338604
v -0.262407005 8.15017891 4.56218576
v 5.27023077 7.96383905 0.987882972
v 8.25949001 -1.02754796 4.46571589
v 3.88707089 0.58672601 8.13437653
v -4.86479807 0.824764013 -7.85244703
v -9.86116028 0.991114974 -4.98011684
v -10.1749363 -1.06109798 -3.9800241
v -4.86479807 0.824764013 -7.85244703
v -4.69701719 -4.63215685 -6.80011606
v -3.92711997 7.63161802 -2.77946305
v -4.86479807 0.824764013 -7.85244703
v -0.658334017 7.85149813 -5.45428896
v -3.92711997 7.63161802 -2.77946305
v -9.86116028 0.991114974 -4.98011684
v -4.86479807 0.824764013 -7.85244703
v 1.33054304 3.40758491 -7.321033
v -0.658334017 7.85149813 -5.45428896
v -4.86479807 0.824764013 -7.85244703
v -4.86479807 0.824764013 -7.85244703
v 1.56628799 -2.83568096 -7.51226521
v -4.69701719 -4.63215685 -6.80011606
v 2.36694002 -5.75167084 -6.07211113
v 2.36694002 -5.75167084 -6.07211113
v 7.65175486 -1.95824301 -3.42037511
v 6.42163181 -5.17553186 -2.25051689
v 7.65175486 -1.95824301 -3.42037511
v 1.75724196 -8.46680546 -3.0377779
v -4.41748619 -8.63654137 -1.12398195
v -1.29102004 -10.1913157 0.852316022
v 1.75724196 -8.46680546 -3.0377779
v -4.69701719 -4.63215685 -6.80011606
v -1.29102004 -10.1913157 0.852316022
v -5.59009886 -6.50393581 3.44312906
v -1.45183301 -6.15154982 7.24259281
v -9.44976044 -0.865583003 2.13899589
v -6.90424824 2.11244297 6.45715714
v -1.45183301 -6.15154982 7.24259281
v -0.312564999 -2.54865289 9.43071747
v -1.29102004 -10.1913157 0.852316022
v -4.41748619 -8.63654137 -1.12398195
v -9.44976044 -0.865583003 2.13899589
v -10.1749363 -1.06109798 -3.9800241
v -6.90424824 2.11244297 6.45715714
v -4.61317301 6.14871979 6.33322382
v -0.312564999 -2.54865289 9.43071747
v -0.262407005 8.15017891 4.56218576
v 4.33215714 5.62127781 5.48338604
v 3.88707089 0.58672601 8.13437653
v -0.312564999 -2.54865289 9.43071747
v 7.75651979 4.51532698 0.254754007
v 8.25949001 -1.02754796 4.46571589
v 5.27023077 7.96383905 0.987882972
v -0.658334017 7.85149813 -5.45428896
v -0.431210995 8.79339314 1.76194704
v -3.92711997 7.63161802 -2.77946305
v -0.262407005 8.15017891 4.56218576
v -4.61317301 6.14871979 6.33322382
v -6.81378603 5.49133682 1.95556498
v -3.92711997 7.63161802 -2.77946305
v -6.90424824 2.11244297 6.45715714
v -6.81378603 5.49133682 1.95556498
v -9.44976044 -0.865583003 2.13899589
v -10.1749363 -1.06109798 -3.9800241
v -9.86116028 0.991114974 -4.98011684
v -9.30478191 2.73497105 0.505100012
v -9.44976044 -0.865583003 2.13899589
v -3.92711997 7.63161802 -2.77946305
v -9.30478191 2.73497105 0.505100012
v -9.86116028 0.991114974 -4.98011684
v 5.27023077 7.96383905 0.987882972
v -0.658334017 7.85149813 -5.45428896
v 3.72003508 7.04451895 -3.69733691
v -0.658334017 7.85149813 -5.45428896
v 5.27023077 7.96383905 0.987882972
v -0.431210995 8.79339314 1.76194704
v -9.30478191 2.73497105 0.505100012
v -6.81378603 5.49133682 1.95556498
v -9.44976044 -0.865583003 2.13899589
v -0.658334017 7.85149813 -5.45428896
v 6.41469812 3.17935705 -4.11470795
v 3.72003508 7.04451895 -3.69733691
v 5.27023077 7.96383905 0.987882972
v 8.25949001 -1.02754796 4.46571589
v 4.33215714 5.62127781 5.48338604
v -0.262407005 8.15017891 4.56218576
v -0.431210995 8.79339314 1.76194704
v 5.27023077 7.96383905 0.987882972
v 9.07544231 -2.27182198 1.18726206
v 6.41469812 3.17935705 -4.11470795
v 7.65175486 -1.95824301 -3.42037511
v 9.07544231 -2.27182198 1.18726206
v 7.75651979 4.51532698 0.254754007
v 5.27023077 7.96383905 0.987882972
v 3.72003508 7.04451895 -3.69733691
v 6.41469812 3.17935705 -4.11470795
v 7.65175486 -1.95824301 -3.42037511
v 1.56628799 -2.83568096 -7.51226521
v 1.33054304 3.40758491 -7.321033
v -0.658334017 7.85149813 -5.45428896
v -4.41748619 -8.63654137 -1.12398195
v -4.69701719 -4.63215685 -6.80011606
v -10.1749363 -1.06109798 -3.9800241
vt 0.632870972 1.74696398
vt 0.438044995 2.45141792
vt 0.809831977 2.35674405
vt -1.57918 0.657855988
vt -1.245121 0.362857014
vt -1.79186404 -0.251401007
vt 2.31438589 -0.135778993
vt 2.01025295 0.0447270013
vt 2.20135093 0.265116006
vt 1.78570497 -0.451938987
vt 1.58362997 0.156940997
vt 0.902503014 -0.617361009
vt 0.902503014 -0.617361009
vt 0.903276026 0.251450986
vt 2.01025295 0.0447270013
vt 2.31438589 -0.135778993
vt 0.902503014 -0.617361009
vt 1.39927197 -0.92376399
vt 2.00380993 -0.653798997
vt 1.39927197 -0.92376399
vt 2.31438589 -0.135778993
vt 2.31438589 -0.610845029
vt 2.31438589 -0.135778993
vt 2.20135093 0.265116006
vt 2.01025295 0.0447270013
vt 1.73831201 0.706384003
vt 1.13011301 0.665018022
vt 0.903276026 0.251450986
vt 1.474805 2.07386088
vt 0.996551991 1.69011104
vt 1.096246 2.33571506
vt 2.25058508 2.25367188
vt 2.06236291 1.78803396
vt -1.45144999 -0.76937902
vt -2.01142097 -1.03438604
vt -2.19812393 -0.845269978
vt -1.45144999 -0.76937902
vt -1.79186404 -0.251401007
vt -1.90629995 1.38421702
vt -1.341887 0.726494014
vt -2.2193749 1.10306299
vt -1.90629995 1.38421702
vt -0.918713987 1.02073598
vt -1.341887 0.726494014
vt -0.763167977 -0.541571975
vt -0.764360011 -0.999732971
vt -1.45144999 -0.76937902
vt -1.45144999 -0.76937902
vt -1.09207499 0.00651000021
vt -1.79186404 -0.251401007
vt -1.245121 0.362857014
vt -1.245121 0.362857014
vt -0.655966997 0.495104015
vt -0.999454021 0.726494014
vt -0.655966997 0.495104015
vt -1.57918 0.657855988
vt -2.22638607 0.306896001
vt -2.11223793 0.726494014
vt -1.57918 0.657855988
vt -1.79186404 -0.251401007
vt 0.902503014 -0.570460975
vt 0.440095991 -0.0352189988
vt 0.902503014 0.285207987
vt -0.321390003 0.175264001
vt -0.144137993 0.706384003
vt 0.902503014 0.285207987
vt 0.827401996 0.654600024
vt 0.902503014 -0.570460975
vt 0.462559015 -0.635170996
vt -0.321390003 0.175264001
vt -0.655966997 -0.454647005
vt 1.39406598 0.706384003
vt 1.08652902 1.11415505
vt 2.25058508 1.19125104
vt 0.996551991 1.69011104
vt 1.474805 2.07386088
vt 2.06236291 1.78803396
vt 2.25058508 1.19125104
vt 1.13208497 2.74184203
vt 1.30395997 3.50638604
vt 1.30395997 2.33571506
vt -2.2193749 1.10306299
vt -2.22638607 1.94640601
vt -1.90629995 1.38421702
vt -2.15402102 2.26463199
vt -1.620803 2.41606808
vt -1.44369602 1.88764298
vt -1.90629995 1.38421702
vt -1.10863698 2.37396193
vt -1.44369602 1.88764298
vt -0.71540302 1.82751203
vt -0.71540302 1.11404204
vt -0.918713987 1.02073598
vt -1.03802896 1.67459595
vt -0.71540302 1.82751203
vt -1.90629995 1.38421702
vt -1.03802896 1.67459595
vt -0.918713987 1.02073598
vt 0.809831977 1.281111
vt 0.00514299981 0.706384003
vt 0.252617002 1.14053202
vt 0.00514299981 0.706384003
vt 0.809831977 1.281111
vt 0.787903011 0.803322971
vt -1.03802896 1.67459595
vt -1.44369602 1.88764298
vt -0.71540302 1.82751203
vt 0.00514299981 0.706384003
vt 0.0930629969 1.664873
vt 0.252617002 1.14053202
vt 1.13208497 3.4113481
vt 1.13208497 2.33571506
vt 0.809831977 3.17839098
vt 0.996551991 1.69011104
vt 0.809831977 1.73980999
vt 1.096246 2.33571506
vt 0.438044995 2.45141792
vt 0.0930629969 1.664873
vt -0.0497290008 2.21558905
vt 0.438044995 2.45141792
vt 0.632870972 1.74696398
vt 0.809831977 1.281111
vt 0.252617002 1.14053202
vt 0.0930629969 1.664873
vt -0.0497290008 2.21558905
vt -0.655966997 1.74777102
vt -0.346291989 1.19583094
vt 0.00514299981 0.706384003
vt 0.462559015 -0.635170996
vt -0.126353994 -1.03438604
vt -0.655966997 -0.454647005
vn 0.900641263 0.42423892 -0.0941625983
vn 0.99631846 0.0787735879 -0.0338252932
vn 0.871197224 0.238402694 0.429161489
vn 0.174091995 -0.822932541 -0.540808618
vn 0.314969003 -0.621939957 -0.716927767
vn -0.257463425 -0.54736948 -0.79630357
vn 0.975633502 -0.201630458 -0.0865127742
vn 0.747378051 -0.51721406 0.417031884
vn 0.817040443 0.0909917355 0.569355369
vn 0.620994449 -0.782761037 0.0406330563
vn 0.457026869 -0.583859384 0.670995355
vn 0.385232985 -0.878051221 0.283939421
vn 0.201329872 -0.911523819 0.358595222
vn 0.069811061 -0.770530879 0.633568108
vn 0.778349757 -0.575282991 0.251437843
vn 0.880437076 -0.473358899 -0.0276026968
vn 0.277551442 -0.95598048 0.0952189118
vn 0.383743882 -0.850240409 -0.360322058
vn 0.708488882 -0.593473017 -0.381881356
vn 0.300347209 -0.848020613 -0.436637789
vn 0.927614093 -0.361701876 -0.0932949707
vn 0.76962465 -0.199892119 -0.606400073
vn 0.953830123 -0.271163791 -0.129144028
vn 0.711861491 -0.131326705 0.689932227
vn 0.69447875 -0.470245212 0.544581175
vn 0.597342372 -0.106538877 0.794878304
vn 0.398863107 -0.442414939 0.803229213
vn 0.292630762 -0.697415352 0.65420115
vn 0.446437955 0.539660871 0.713764191
vn 0.0804704204 0.870343447 0.485825717
vn 0.493680626 0.807174742 0.323648334
vn 0.817040443 0.0909917355 0.569355369
vn 0.409166247 0.110223353 0.90577805
vn -0.263324976 -0.172446698 -0.949169159
vn -0.479585767 -0.324067235 -0.815461755
vn -0.574620903 -0.396854371 -0.715763569
vn -0.299284548 0.045693472 -0.95306915
vn -0.275846064 -0.479765356 -0.832907021
vn -0.620916128 0.661034644 -0.421303004
vn -0.418679863 0.354738235 -0.835983276
vn -0.326125324 0.474311799 -0.817722857
vn -0.544331253 0.752147377 -0.371453583
vn -0.584236503 0.672596693 -0.454182059
vn -0.349091142 0.51368916 -0.78374666
vn 0.269176453 0.253567576 -0.929111123
vn 0.0710711926 0.497323811 -0.864648938
vn -0.283088833 0.213158667 -0.935106456
vn -0.229283243 -0.0635539889 -0.97128278
vn 0.2995058 -0.134865478 -0.944514453
vn -0.166061699 -0.505922139 -0.846443295
vn 0.374884188 -0.550135791 -0.746198654
vn 0.473246008 -0.47985658 -0.738766432
vn 0.76962465 -0.199892119 -0.606400073
vn 0.708488882 -0.593473017 -0.381881356
vn 0.687935412 -0.292798877 -0.664088607
vn 0.223597199 -0.855504215 -0.46702984
vn -0.316230983 -0.801472187 -0.507582784
vn 0.160527632 -0.942800164 -0.29216215
vn 0.0604457967 -0.812040329 -0.580462635
vn -0.189117372 -0.612438679 -0.767563462
vn -0.235765263 -0.863218427 0.446395278
vn -0.657572448 -0.602677345 0.452082396
vn -0.358913422 -0.62325418 0.694791615
vn -0.909669101 -0.2409188 0.338319957
vn -0.565300107 -0.202264339 0.799703002
vn -0.53992033 -0.492764324 0.682399631
vn -0.441849828 -0.0535815842 0.895487368
vn -0.469494641 -0.803909838 0.365107924
vn -0.738806725 -0.673880637 -0.00704046153
vn -0.897334933 -0.372943759 0.236014739
vn -0.755625844 -0.634939611 -0.160876855
vn -0.565300107 -0.202264339 0.799703002
vn -0.00928951427 0.385324568 0.92273432
vn -0.293185741 0.0882028714 0.951978087
vn 0.235179305 0.680186808 0.694288671
vn 0.329130471 0.547765553 0.769172311
vn 0.286605448 0.386221319 0.876749873
vn -0.131177664 0.27440536 0.952624857
vn 0.882027924 0.333172113 0.33320123
vn 0.871197224 0.238402694 0.429161489
vn 0.66413492 0.577386141 0.474921137
vn 0.0810525119 0.980408669 -0.179525018
vn -0.193335429 0.978582978 0.0706875399
vn -0.523599386 0.825793207 -0.209545389
vn 0.0647402257 0.942718685 0.3272461
vn -0.558932066 0.795946538 0.232516885
vn -0.699355006 0.699076116 0.148980245
vn -0.530662119 0.844877362 -0.0676752999
vn -0.853205562 0.425227314 0.302029848
vn -0.721528053 0.649849057 0.238942444
vn -0.926637173 0.250951141 0.279941142
vn -0.973335147 0.201889485 0.10890089
vn -0.941083014 0.337879926 0.0141408686
vn -0.863294184 0.489555806 0.122711979
vn -0.950005889 -0.0793337747 0.301985085
vn -0.538866937 0.791041553 -0.289612949
vn -0.853961587 0.516275346 -0.0648795441
vn -0.876527846 0.441527426 -0.191709429
vn 0.346283585 0.926526904 -0.147090569
vn 0.193359926 0.921293855 -0.33738631
vn 0.600416124 0.716916502 -0.354303837
vn 0.0810525119 0.980408669 -0.179525018
vn 0.358407468 0.933472097 -0.0131836347
vn -0.193335429 0.978582978 0.0706875399
vn -0.904490352 0.205908462 0.373495579
vn -0.818915963 0.394049495 0.417254984
vn -0.918961227 0.137279332 0.369681954
vn 0.279490769 0.430302441 -0.858326733
vn 0.567297995 0.316252202 -0.760366678
vn 0.64572382 0.528562129 -0.551056027
vn 0.66413492 0.577386141 0.474921137
vn 0.871197224 0.238402694 0.429161489
vn 0.645065308 0.534127295 0.546441972
vn 0.0647402257 0.942718685 0.3272461
vn -0.193335429 0.978582978 0.0706875399
vn 0.241584674 0.967256129 0.0777978972
vn 0.995441914 -0.029228108 -0.0907802433
vn 0.748954058 0.261941999 -0.608649552
vn 0.793022454 -0.124311253 -0.596374035
vn 0.986422718 -0.127274618 -0.103785299
vn 0.886063039 0.395037949 -0.242563829
vn 0.395579129 0.878640652 -0.267409354
vn 0.571544945 0.652907193 -0.497039825
vn 0.70481801 0.282007664 -0.65092504
vn 0.76962465 -0.199892119 -0.606400073
vn 0.2995058 -0.134865478 -0.944514453
vn 0.269176453 0.253567576 -0.929111123
vn 0.296407551 0.590101123 -0.75094825
vn -0.577473164 -0.791567624 -0.199863628
vn -0.372288376 -0.640826046 -0.671374202
vn -0.688778281 -0.479361057 -0.543872535
g Model_0_0
f 3/3/3 2/2/2 1/1/1
f 6/6/6 5/5/5 4/4/4
f 9/9/9 8/8/8 7/7/7
f 8/8/8 11/11/11 10/10/10
f 12/12/12 10/10/10 11/11/11
f 11/11/11 14/14/14 13/13/13
f 16/16/16 15/15/15 10/10/10
f 18/18/18 10/10/10 17/17/17
f 10/10/10 20/20/20 19/19/19
f 19/19/19 21/21/21 10/10/10
f 23/23/23 19/19/19 22/22/22
f 25/25/25 24/24/24 11/11/11
f 24/24/24 26/26/26 11/11/11
f 26/26/26 27/27/27 11/11/11
f 28/28/28 11/11/11 27/27/27
f 31/31/31 30/30/30 29/29/29
f 33/33/33 32/32/32 29/29/29
f 36/36/36 35/35/35 34/34/34
f 38/38/38 36/36/36 37/37/37
f 41/41/41 40/40/40 39/39/39
f 44/44/44 43/43/43 42/42/42
f 47/47/47 46/46/46 45/45/45
f 45/45/45 49/49/49 48/48/48
f 49/49/49 50/50/50 48/48/48
f 50/50/50 49/49/49 51/51/51
f 49/49/49 53/53/53 52/52/52
f 55/55/55 54/54/54 51/51/51
f 56/56/56 51/51/51 54/54/54
f 58/58/58 57/57/57 56/56/56
f 57/57/57 60/60/60 59/59/59
f 63/63/63 62/62/62 61/61/61
f 65/65/65 64/64/64 62/62/62
f 65/65/65 62/62/62 66/66/66
f 67/67/67 65/65/65 66/66/66
f 69/69/69 68/68/68 62/62/62
f 70/70/70 69/69/69 62/62/62
f 69/69/69 70/70/70 71/71/71
f 74/74/74 73/73/73 72/72/72
f 76/76/76 75/75/75 73/73/73
f 76/76/76 73/73/73 77/77/77
f 78/78/78 77/77/77 73/73/73
f 81/81/81 80/80/80 79/79/79
f 84/84/84 83/83/83 82/82/82
f 86/86/86 85/85/85 83/83/83
f 86/86/86 83/83/83 87/87/87
f 83/83/83 88/88/88 87/87/87
f 86/86/86 90/90/90 89/89/89
f 90/90/90 91/91/91 89/89/89
f 91/91/91 93/93/93 92/92/92
f 93/93/93 95/95/95 94/94/94
f 97/97/97 87/87/87 96/96/96
f 98/98/98 97/97/97 96/96/96
f 101/101/101 100/100/100 99/99/99
f 104/104/104 103/103/103 102/102/102
f 107/107/107 106/106/106 105/105/105
f 110/110/110 109/109/109 108/108/108
f 113/113/113 112/112/112 111/111/111
f 116/116/116 115/115/115 114/114/114
f 119/119/119 118/118/118 117/117/117
f 118/118/118 121/121/121 120/120/120
f 123/123/123 122/122/122 121/121/121
f 124/124/124 123/123/123 121/121/121
f 126/126/126 124/124/124 125/125/125
f 127/127/127 124/124/124 126/126/126
f 124/124/124 127/127/127 128/128/128
f 131/131/131 130/130/130 129/129/129
