v 3.670132 -0.677283 -2.543021
v 1.737426 -4.605030 -2.110917
v 3.670131 -2.210346 0.376771
v 3.670132 2.630805 -3.194946
v 3.670131 3.077987 2.092785
v 3.670132 5.362647 -0.527303
v 3.670131 -2.210346 0.376771
v 3.670131 -1.366851 2.341975
v 3.670131 -1.366851 2.341975
v 0.895361 2.159735 3.670131
v 3.670131 3.077987 2.092785
v 1.358574 -2.383827 3.670132
v -1.760822 2.597356 3.670131
v -1.256331 -4.179136 3.670131
v -3.670131 -1.547740 -3.670132
v 1.136221 2.767208 -3.670131
v -3.670131 3.948965 -3.670132
v 3.670132 -0.677283 -2.543021
v 3.670132 2.630805 -3.194946
v 1.737426 -4.605030 -2.110917
v -0.070669 -5.876190 -2.180300
v -3.670131 -5.876190 -2.817123
v -3.670131 5.876190 -1.788197
v 1.128613 5.876190 -0.636037
v -3.670131 5.876190 0.270661
v -3.670132 5.070168 1.195022
v -1.760822 2.597356 3.670131
v 0.895361 2.159735 3.670131
v 3.670131 3.077987 2.092785
v 3.670132 5.362647 -0.527303
v 3.670132 2.630805 -3.194946
v 3.670132 5.362647 -0.527303
v 1.136221 2.767208 -3.670131
v 1.128613 5.876190 -0.636037
v -3.670131 3.948965 -3.670132
v -3.670131 5.876190 -1.788197
v 3.670131 -1.366851 2.341975
v 3.670131 -2.210346 0.376771
v 1.358574 -2.383827 3.670132
v 1.737426 -4.605030 -2.110917
v -1.256331 -4.179136 3.670131
v -2.499668 -5.876190 1.705101
v -0.070669 -5.876190 -2.180300
v -3.670131 -5.876190 0.025876
v -3.670131 -5.876190 -2.817123
v -3.670131 -1.547740 -3.670132
v -3.670131 -5.876190 0.025876
v -3.670131 -5.876190 -2.817123
v -3.670132 5.070168 1.195022
v -3.670131 3.948965 -3.670132
v -3.670131 5.876190 -1.788197
v -3.670131 5.876190 0.270661
v -1.760822 2.597356 3.670131
v -1.256331 -4.179136 3.670131
v -2.499668 -5.876190 1.705101
vt 1.51664519 0.958257079
vt 1.53879654 0.503706276
vt 1.23048878 0.746141791
vt 1.53879654 1.33018684
vt 0.975199461 1.29882526
vt 1.21919036 1.58864236
vt 1.23048878 0.746141791
vt 1.01149368 0.808608055
vt 1.02501297 -0.0970298052
vt 1.31876457 -0.509328485
vt 0.984345317 -0.588642359
vt 1.30591059 -0.00308299065
vt 1.58864236 -0.580078602
vt 1.58864236 0.173391819
vt 0.984345317 -0.0979914665
vt 0.477763236 0.38667357
vt 0.984345198 0.503706276
vt 0.193278491 -0.0036008358
vt 0.203350991 0.369926989
vt 0.390306443 -0.44607091
vt 0.581948936 -0.588642359
vt 0.971165955 -0.586732149
vt 0.774726331 1.31762815
vt 0.651992917 0.785521626
vt 0.55540669 1.31762815
vt 0.45693925 1.31762815
vt 0.193278491 1.10591507
vt 0.193278641 0.811385512
vt 0.361305416 0.503706276
vt 0.640410125 0.503706276
vt 0.924580574 0.503706276
vt 0.640410125 0.503706276
vt 0.975199461 0.784678102
vt 0.651992917 0.785521626
vt 0.975199461 1.31762815
vt 0.774726331 1.31762815
vt -0.0390700698 0.714515448
vt -0.248413384 0.714515448
vt 0.102411836 0.970831335
vt -0.513414025 0.928822756
vt 0.102411836 1.26078415
vt -0.106912732 1.39865088
vt -0.520804882 1.12931263
vt -0.285791993 1.5284375
vt -0.588642359 1.52843761
vt 0.193278581 0.234556973
vt -0.200438321 0.714515448
vt 0.102411985 0.714515448
vt -0.324981689 -0.499266803
vt 0.193278491 -0.37494278
vt -0.00719451904 -0.588642359
vt -0.22651422 -0.588642359
vt -0.588642359 -0.225070179
vt -0.58864224 0.526338339
vt -0.379317701 0.714515448
vn 0.984600 -0.154783 -0.081270
vn 0.626783 -0.744549 0.229761
vn 0.886554 -0.452286 0.097260
vn 1.000000 0.000000 0.000000
vn 1.000000 0.000000 0.000000
vn 1.000000 0.000000 0.000000
vn 0.984600 -0.154783 -0.081270
vn 1.000000 0.000000 0.000000
vn 0.481276 0.049066 0.875195
vn 0.330138 0.033657 0.943333
vn 0.481276 0.049066 0.875195
vn 0.165069 0.016829 0.986138
vn 0.000000 -0.000000 1.000000
vn 0.000000 -0.000000 1.000000
vn 0.137556 -0.153221 -0.978571
vn 0.114871 -0.127953 -0.985105
vn 0.000000 0.000000 -1.000000
vn 0.171026 -0.190503 -0.966674
vn 0.171026 -0.190503 -0.966674
vn 0.171026 -0.190503 -0.966674
vn 0.171026 -0.190503 -0.966674
vn 0.171026 -0.190503 -0.966674
vn 0.000000 1.000000 0.000000
vn 0.106488 0.819162 0.563591
vn 0.065908 0.934869 0.348822
vn 0.123231 0.747959 0.652205
vn 0.123231 0.747960 0.652205
vn 0.123231 0.747960 0.652205
vn 0.123231 0.747960 0.652205
vn 0.123231 0.747960 0.652205
vn 0.169300 0.688565 -0.705136
vn 0.169300 0.688565 -0.705136
vn 0.169300 0.688565 -0.705135
vn 0.169300 0.688565 -0.705135
vn 0.169300 0.688565 -0.705135
vn 0.169300 0.688565 -0.705135
vn 0.533587 -0.777181 0.333578
vn 0.685196 -0.712081 0.153126
vn 0.533587 -0.777181 0.333578
vn 0.626783 -0.744549 0.229761
vn 0.533587 -0.777181 0.333578
vn 0.374765 -0.897028 0.234288
vn 0.187383 -0.975277 0.117144
vn 0.000000 -1.000000 -0.000000
vn 0.000000 -1.000000 -0.000000
vn -1.000000 0.000000 0.000000
vn -0.932786 -0.038279 0.358392
vn -1.000000 0.000000 0.000000
vn -0.992980 -0.012562 0.117612
vn -1.000000 0.000000 0.000000
vn -1.000000 0.000000 0.000000
vn -1.000000 0.000000 0.000000
vn -0.818851 -0.060961 0.570760
vn -0.818851 -0.060961 0.570760
vn -0.818851 -0.060961 0.570760
f 3/3/3 2/2/2 1/1/1
f 5/5/5 1/1/1 4/4/4
f 6/6/6 5/5/5 4/4/4
f 1/1/1 5/5/5 7/7/7
f 8/8/8 7/7/7 5/5/5
f 11/11/11 10/10/10 9/9/9
f 9/9/9 10/10/10 12/12/12
f 13/13/13 12/12/12 10/10/10
f 14/14/14 12/12/12 13/13/13
f 17/17/17 16/16/16 15/15/15
f 16/16/16 18/18/18 15/15/15
f 18/18/18 16/16/16 19/19/19
f 20/20/20 15/15/15 18/18/18
f 15/15/15 20/20/20 21/21/21
f 22/22/22 15/15/15 21/21/21
f 25/25/25 24/24/24 23/23/23
f 26/26/26 24/24/24 25/25/25
f 27/27/27 24/24/24 26/26/26
f 28/28/28 24/24/24 27/27/27
f 24/24/24 28/28/28 29/29/29
f 24/24/24 29/29/29 30/30/30
f 33/33/33 32/32/32 31/31/31
f 32/32/32 33/33/33 34/34/34
f 34/34/34 33/33/33 35/35/35
f 36/36/36 34/34/34 35/35/35
f 39/39/39 38/38/38 37/37/37
f 38/38/38 39/39/39 40/40/40
f 41/41/41 40/40/40 39/39/39
f 42/42/42 40/40/40 41/41/41
f 40/40/40 42/42/42 43/43/43
f 42/42/42 44/44/44 43/43/43
f 43/43/43 44/44/44 45/45/45
f 48/48/48 47/47/47 46/46/46
f 49/49/49 46/46/46 47/47/47
f 50/50/50 46/46/46 49/49/49
f 49/49/49 51/51/51 50/50/50
f 51/51/51 49/49/49 52/52/52
f 49/49/49 47/47/47 53/53/53
f 54/54/54 53/53/53 47/47/47
f 55/55/55 54/54/54 47/47/47
