g Model_0
v -8.924867 -6.117710 -2.891127
v -6.402488 -15.478497 -2.033486
v 3.552286 -14.266718 -2.521029
v 4.756738 -6.052545 -3.028229
v 1.038512 1.075912 -4.530399
v -6.947729 1.074241 -2.642331
v 6.973891 2.940321 -3.457738
v 9.849080 11.447577 -2.554411
v -5.411687 4.939165 -3.115377
v 5.000386 13.951540 -2.963602
v 1.056520 15.655653 -1.383785
v 9.849080 11.447577 -2.554411
v 8.199879 11.317840 3.571503
v 5.000386 13.951540 -2.963602
v 2.078279 13.497692 3.908576
v 1.056520 15.655653 -1.383785
v -4.494938 7.243784 4.210558
v 1.056520 15.655653 -1.383785
v 2.078279 13.497692 3.908576
v -5.411687 4.939165 -3.115377
v -6.947729 1.074241 -2.642331
v -5.654852 -1.501657 4.640464
v -6.709744 -6.349813 3.001459
v -8.924867 -6.117710 -2.891127
v -6.747980 -12.541568 2.593129
v -6.402488 -15.478497 -2.033486
v 6.973891 2.940321 -3.457738
v 8.199879 11.317840 3.571503
v 9.849080 11.447577 -2.554411
v 3.160733 3.404889 4.461335
v 2.648195 -1.548180 4.629276
v 4.756738 -6.052545 -3.028229
v 3.060152 -5.659287 4.226828
v 2.978039 -10.194325 3.957885
v 3.552286 -14.266718 -2.521029
v 3.160733 3.404889 4.461335
v 2.078279 13.497692 3.908576
v 8.199879 11.317840 3.571503
v -4.494938 7.243784 4.210558
v -2.414816 1.306849 4.506258
v -5.654852 -1.501657 4.640464
v 2.648195 -1.548180 4.629276
v -1.199602 -3.763167 4.248352
v -6.709744 -6.349813 3.001459
v 3.060152 -5.659287 4.226828
v 0.050170 -8.389064 3.546145
v -6.747980 -12.541568 2.593129
v 2.978039 -10.194325 3.957885
v -6.402488 -15.478497 -2.033486
v -6.747980 -12.541568 2.593129
v 2.978039 -10.194325 3.957885
v 3.552286 -14.266718 -2.521029
vt 0.521830201 0.202568799
vt 0.410154045 -5.04338171E-09
vt 0.187405214 0.0855790749
vt 0.206573069 0.282329082
vt 0.333946675 0.426485181
vt 0.521356702 0.380608499
vt 0.206736311 0.502281785
vt 0.187405139 0.715927243
vt 0.505863488 0.479408473
vt 0.315165669 0.74568665
vt 0.421736389 0.767916441
vt 0.847356439 0.654365897
vt 0.703628421 0.698399901
vt 0.866472721 0.782590389
vt 0.703628421 0.852548361
vt 0.836815357 0.886898696
vt 0.174353182 0.556618631
vt 0.0437277034 0.796429455
vt 0.179018199 0.771626413
vt 1.8332603E-08 0.50028199
vt 0.0098342197 0.401609033
vt 0.187405124 0.347783267
vt 0.149152234 0.230054021
vt 4.51856996E-09 0.225085407
vt 0.150084466 0.0830522031
vt 0.0499673933 -2.07876418E-08
vt 0.792066991 0.213396013
vt 0.955350995 0.0101718651
vt 0.805373371 1.07395808E-08
vt 0.99999994 0.228901595
vt 0.993864119 0.346774369
vt 0.795493007 0.433026463
vt 0.971986353 0.442653626
vt 0.954757988 0.548907876
vt 0.792066991 0.630038917
vt 0.719278693 0.427515805
vt 0.638832092 0.654365957
vt 0.792066991 0.6384238
vt 0.521830201 0.474063993
vt 0.602327645 0.348362327
vt 0.542895734 0.265927941
vt 0.734904349 0.310678273
vt 0.65843147 0.237676367
vt 0.545939624 0.142409369
vt 0.767301381 0.218038648
vt 0.713499665 0.136798412
vt 0.581782281 3.19235731E-08
vt 0.792066991 0.113494903
vt 0.691464126 0.654365897
vt 0.561393023 0.655979633
vt 0.521830201 0.891905844
vt 0.703628421 0.891905844
vn -0.071732 -0.069530 -0.994998
vn -0.036410 -0.100903 -0.994230
vn -0.023070 -0.080579 -0.996481
vn 0.063142 -0.123640 -0.990316
vn -0.013786 0.007123 -0.999880
vn -0.229943 0.034468 -0.972594
vn 0.185062 -0.023919 -0.982436
vn 0.144086 0.065715 -0.987381
vn -0.200002 0.143032 -0.969299
vn -0.080655 0.180886 -0.980191
vn -0.242411 0.295621 -0.924037
vn 0.445162 0.884662 0.138581
vn 0.392583 0.903506 0.171918
vn 0.418411 0.885979 0.199931
vn 0.404289 0.885146 0.230363
vn 0.467757 0.846337 0.254787
vn -0.882604 0.446809 0.146191
vn -0.764270 0.620719 0.174925
vn -0.623524 0.674452 0.395388
vn -0.893614 0.447893 -0.029075
vn -0.954015 0.223172 0.200125
vn -0.965759 0.137427 0.220054
vn -0.943423 0.119459 0.309327
vn -0.962613 -0.010984 0.270658
vn -0.965185 -0.136680 0.223018
vn -0.963823 -0.251671 0.087785
vn 0.888829 -0.272553 0.368371
vn 0.857535 -0.398477 0.325344
vn 0.912063 -0.333571 0.238478
vn 0.860372 -0.273127 0.430305
vn 0.935183 -0.070143 0.347151
vn 0.965300 -0.074155 0.250393
vn 0.973756 0.022197 0.226509
vn 0.976367 -0.082090 0.199920
vn 0.976479 -0.132688 0.169951
vn 0.014319 0.049459 0.998673
vn 0.035809 0.058479 0.997646
vn 0.077142 0.062770 0.995042
vn -0.005453 0.049937 0.998737
vn -0.001221 0.006218 0.999980
vn -0.000755 -0.097979 0.995188
vn -0.035397 -0.044160 0.998397
vn -0.051284 -0.143876 0.988266
vn -0.102218 -0.185763 0.977263
vn -0.094354 -0.108516 0.989607
vn -0.123347 -0.094669 0.987838
vn -0.119395 -0.032279 0.992322
vn -0.155776 -0.027439 0.987411
vn 0.126701 -0.833932 0.537126
vn 0.125566 -0.833311 0.538354
vn 0.126701 -0.833932 0.537126
vn 0.127834 -0.834550 0.535896
g Model_0_0
f 3/3/3 2/2/2 1/1/1
f 4/4/4 3/3/3 1/1/1
f 4/4/4 1/1/1 5/5/5
f 6/6/6 5/5/5 1/1/1
f 7/7/7 4/4/4 5/5/5
f 8/8/8 7/7/7 5/5/5
f 9/9/9 5/5/5 6/6/6
f 10/10/10 8/8/8 5/5/5
f 10/10/10 5/5/5 9/9/9
f 11/11/11 10/10/10 9/9/9
f 14/14/14 13/13/13 12/12/12
f 13/13/13 14/14/14 15/15/15
f 15/15/15 14/14/14 16/16/16
f 19/19/19 18/18/18 17/17/17
f 18/18/18 20/20/20 17/17/17
f 20/20/20 21/21/21 17/17/17
f 21/21/21 22/22/22 17/17/17
f 22/22/22 21/21/21 23/23/23
f 24/24/24 23/23/23 21/21/21
f 25/25/25 23/23/23 24/24/24
f 26/26/26 25/25/25 24/24/24
f 29/29/29 28/28/28 27/27/27
f 28/28/28 30/30/30 27/27/27
f 27/27/27 30/30/30 31/31/31
f 32/32/32 27/27/27 31/31/31
f 33/33/33 32/32/32 31/31/31
f 33/33/33 34/34/34 32/32/32
f 34/34/34 35/35/35 32/32/32
f 38/38/38 37/37/37 36/36/36
f 37/37/37 39/39/39 36/36/36
f 40/40/40 36/36/36 39/39/39
f 41/41/41 40/40/40 39/39/39
f 42/42/42 36/36/36 40/40/40
f 40/40/40 41/41/41 43/43/43
f 43/43/43 42/42/42 40/40/40
f 43/43/43 41/41/41 44/44/44
f 45/45/45 42/42/42 43/43/43
f 46/46/46 43/43/43 44/44/44
f 45/45/45 43/43/43 46/46/46
f 46/46/46 44/44/44 47/47/47
f 45/45/45 46/46/46 48/48/48
f 48/48/48 46/46/46 47/47/47
f 51/51/51 50/50/50 49/49/49
f 52/52/52 51/51/51 49/49/49