v -1.051302 24.000000 9.373327
v -13.429700 3.061528 13.406499
v -15.064967 24.000000 6.741009
v 5.000250 5.921142 16.000000
v -7.615506 -1.882593 16.000000
v 7.721850 1.706047 16.000000
v 6.577529 -17.490702 16.000000
v -9.308473 -24.000000 5.137133
v 2.694606 -21.368200 16.000000
v 2.046215 -24.000000 14.344966
v -1.051302 24.000000 9.373327
v 4.222144 24.000000 -11.021477
v 9.994010 24.000000 -3.646769
v -14.087897 24.000000 -1.475571
v -15.064967 24.000000 6.741009
v 6.577529 -17.490702 16.000000
v 16.000000 -2.996882 9.821297
v 16.000000 -16.169029 9.254436
v 7.721850 1.706047 16.000000
v 16.000000 15.232818 -4.053689
v 9.873853 10.764000 -16.000000
v 16.000000 2.271738 -16.000000
v 4.222144 24.000000 -11.021477
v 9.994010 24.000000 -3.646769
v 7.721850 1.706047 16.000000
v 5.000250 5.921142 16.000000
v 16.000000 -2.996882 9.821297
v 16.000000 15.232818 -4.053689
v -1.051302 24.000000 9.373327
v 9.994010 24.000000 -3.646769
v -15.064967 24.000000 6.741009
v -13.429700 3.061528 13.406499
v -14.087897 24.000000 -1.475571
v -8.129940 -17.640789 -10.974511
v -9.308473 -24.000000 5.137133
v -7.779778 -24.000000 -7.718289
v 2.694606 -21.368200 16.000000
v 6.577529 -17.490702 16.000000
v 2.046215 -24.000000 14.344966
v 16.000000 -24.000000 2.722949
v 16.000000 -16.169029 9.254436
v 16.000000 -24.000000 2.722949
v 16.000000 -17.961081 -16.000000
v 16.000000 -24.000000 -12.836216
v 16.000000 -16.169029 9.254436
v 16.000000 -2.996882 9.821297
v 16.000000 2.271738 -16.000000
v 16.000000 15.232818 -4.053689
v -14.087897 24.000000 -1.475571
v 9.873853 10.764000 -16.000000
v 4.222144 24.000000 -11.021477
v -8.129940 -17.640789 -10.974511
v 2.989096 -12.616098 -16.000000
v -7.779778 -24.000000 -7.718289
v 16.000000 2.271738 -16.000000
v 16.000000 -24.000000 -12.836216
v 16.000000 -17.961081 -16.000000
v 2.046215 -24.000000 14.344966
v 16.000000 -24.000000 2.722949
v -9.308473 -24.000000 5.137133
v -7.779778 -24.000000 -7.718289
v 16.000000 -24.000000 -12.836216
vt 2.17739725 -1.89631271
vt 2.99999976 -0.895634294
vt 2.96590877 -2
vt 1.9457736 -0.908444047
vt 2.70262671 -0.594702244
vt 1.82517314 -0.682521701
vt 2.02758861 0.266232371
vt 3 0.410686314
vt 2.27121162 0.436247468
vt 2.33285689 0.550382316
vt 1.4242835 1.3527571
vt 2.3025198 0.637087107
vt 1.78570342 0.550382316
vt 2.3025198 1.68482971
vt 1.91892457 1.92152786
vt 2.02758861 0.266232371
vt 1.4242835 -0.448047161
vt 1.52184534 0.203142643
vt 1.82517314 -0.682521701
vt -1.32946539 -1.55514836
vt -2 -1.32839799
vt -2 -0.897495866
vt -1.72056055 -2
vt -1.30662525 -2
vt -0.203871369 -0.868792295
vt -0.20387125 -1.08266878
vt -0.550675988 -0.630163193
vt -1.32946539 -1.55514836
vt -0.575819969 -2
vt -1.30662525 -2
vt -1.37137139 0.435546666
vt -2 1.39839995
vt -0.919944882 0.534229755
vt -0.919945002 2.72236729
vt -1.88483334 2.84560299
vt -1.17854452 3
vt 0.469849885 2.12945247
vt 0.687794566 2.12945223
vt 0.433456331 2.04547477
vt 1.21666861 1.45576739
vt 1.21666861 1.78717875
vt -0.949099183 0.435546666
vt -2 0.129128575
vt -1.82241988 0.435546815
vt -0.582493305 0.0381990075
vt -0.550675988 -0.630163193
vt -2 -0.897495866
vt -1.32946539 -1.55514836
vt 1.42428327 0.666286528
vt 0.0467317104 -0.244412661
vt 0.304324061 0.484993488
vt 1.33702898 -1.51138568
vt 0.623471916 -1.36582267
vt 1.4242835 -1.81052494
vt -0.203871131 -0.708749771
vt 0.0791496336 -2
vt -0.0225202441 -1.71857691
vt 0.433456331 2.04547477
vt 1.21666861 1.45576739
vt -0.203871131 1.57826447
vt -0.118067086 0.925973237
vt 1.21666861 0.666286528
vn -0.176900 0.285983 0.941764
vn -0.298823 0.143493 0.943459
vn -0.176900 0.285983 0.941764
vn -0.119490 0.193171 0.973862
vn -0.245116 -0.061879 0.967517
vn 0.203774 -0.012147 0.978943
vn 0.307435 -0.018326 0.951392
vn -0.597547 -0.316171 0.736868
vn -0.423923 -0.224304 0.877483
vn -0.597547 -0.316171 0.736868
vn 0.000000 1.000000 0.000000
vn 0.000000 1.000000 0.000000
vn 0.000000 1.000000 0.000000
vn 0.000000 1.000000 0.000000
vn 0.000000 1.000000 0.000000
vn 0.432309 -0.261963 0.862835
vn 0.658880 0.211227 0.721983
vn 0.582946 -0.297981 0.755898
vn 0.348354 0.111677 0.930687
vn 0.684716 0.493941 -0.535898
vn 0.684716 0.493941 -0.535898
vn 0.684716 0.493941 -0.535898
vn 0.684716 0.493940 -0.535898
vn 0.684716 0.493940 -0.535898
vn 0.658880 0.211227 0.721983
vn 0.684136 0.441732 0.580371
vn 0.658880 0.211227 0.721983
vn 0.684136 0.441732 0.580371
vn 0.684136 0.441732 0.580371
vn 0.684136 0.441732 0.580371
vn -0.986486 -0.114387 -0.117307
vn -0.986486 -0.114387 -0.117307
vn -0.986486 -0.114387 -0.117307
vn -0.986486 -0.114387 -0.117307
vn -0.986486 -0.114387 -0.117307
vn -0.986486 -0.114387 -0.117307
vn 0.538826 -0.539579 0.646932
vn 0.577277 -0.349808 0.737825
vn 0.538826 -0.539579 0.646932
vn 0.538826 -0.539579 0.646932
vn 0.582946 -0.297981 0.755898
vn 1.000000 0.000000 0.000000
vn 1.000000 0.000000 0.000000
vn 1.000000 0.000000 0.000000
vn 1.000000 0.000000 0.000000
vn 1.000000 0.000000 0.000000
vn 1.000000 0.000000 0.000000
vn 1.000000 0.000000 0.000000
vn -0.458069 0.134888 -0.878623
vn -0.351647 0.103550 -0.930388
vn -0.458068 0.134888 -0.878623
vn -0.386383 -0.065161 -0.920034
vn -0.178381 -0.215602 -0.960050
vn -0.187270 -0.455859 -0.870128
vn 0.000000 0.000000 -1.000000
vn -0.187270 -0.455859 -0.870128
vn -0.096832 -0.235711 -0.966987
vn 0.000000 -1.000000 -0.000000
vn 0.000000 -1.000000 -0.000000
vn 0.000000 -1.000000 -0.000000
vn 0.000000 -1.000000 -0.000000
vn 0.000000 -1.000000 -0.000000
f 3/3/3 2/2/2 1/1/1
f 1/1/1 2/2/2 4/4/4
f 5/5/5 4/4/4 2/2/2
f 4/4/4 5/5/5 6/6/6
f 6/6/6 5/5/5 7/7/7
f 8/8/8 5/5/5 2/2/2
f 9/9/9 7/7/7 5/5/5
f 5/5/5 8/8/8 9/9/9
f 10/10/10 9/9/9 8/8/8
f 13/13/13 12/12/12 11/11/11
f 14/14/14 11/11/11 12/12/12
f 11/11/11 14/14/14 15/15/15
f 18/18/18 17/17/17 16/16/16
f 16/16/16 17/17/17 19/19/19
f 22/22/22 21/21/21 20/20/20
f 23/23/23 20/20/20 21/21/21
f 20/20/20 23/23/23 24/24/24
f 27/27/27 26/26/26 25/25/25
f 26/26/26 27/27/27 28/28/28
f 26/26/26 28/28/28 29/29/29
f 30/30/30 29/29/29 28/28/28
f 33/33/33 32/32/32 31/31/31
f 34/34/34 32/32/32 33/33/33
f 32/32/32 34/34/34 35/35/35
f 36/36/36 35/35/35 34/34/34
f 39/39/39 38/38/38 37/37/37
f 38/38/38 39/39/39 40/40/40
f 41/41/41 38/38/38 40/40/40
f 44/44/44 43/43/43 42/42/42
f 43/43/43 45/45/45 42/42/42
f 45/45/45 43/43/43 46/46/46
f 47/47/47 46/46/46 43/43/43
f 46/46/46 47/47/47 48/48/48
f 51/51/51 50/50/50 49/49/49
f 50/50/50 52/52/52 49/49/49
f 52/52/52 50/50/50 53/53/53
f 53/53/53 54/54/54 52/52/52
f 55/55/55 53/53/53 50/50/50
f 54/54/54 53/53/53 56/56/56
f 57/57/57 53/53/53 55/55/55
f 56/56/56 53/53/53 57/57/57
f 60/60/60 59/59/59 58/58/58
f 59/59/59 60/60/60 61/61/61
f 62/62/62 59/59/59 61/61/61
