# pier of Bridge_Line_1, placed independently of the deck (tools/cut_bridge_deck_unit.py)
v 2.580242 1.875000 -52.979439
v 2.580242 -1.875000 -52.979439
v 2.955242 -1.500000 -2.979440
v 2.955242 1.500000 -2.979440
v 6.330242 1.875000 -52.979439
v 2.580242 1.875000 -52.979439
v 2.955242 1.500000 -2.979440
v 5.955242 1.500000 -2.979440
v 6.330242 -1.875000 -52.979439
v 6.330242 1.875000 -52.979439
v 5.955242 1.500000 -2.979440
v 5.955242 -1.500000 -2.979440
v 2.580242 -1.875000 -52.979439
v 6.330242 -1.875000 -52.979439
v 5.955242 -1.500000 -2.979440
v 2.955242 -1.500000 -2.979440
v -2.580242 1.875000 -52.979439
v -2.955242 1.500000 -2.979440
v -2.955242 -1.500000 -2.979440
v -2.580242 -1.875000 -52.979439
v -6.330242 1.875000 -52.979439
v -5.955242 1.500000 -2.979440
v -2.955242 1.500000 -2.979440
v -2.580242 1.875000 -52.979439
v -6.330242 -1.875000 -52.979439
v -5.955242 -1.500000 -2.979440
v -5.955242 1.500000 -2.979440
v -6.330242 1.875000 -52.979439
v -2.580242 -1.875000 -52.979439
v -2.955242 -1.500000 -2.979440
v -5.955242 -1.500000 -2.979440
v -6.330242 -1.875000 -52.979439
vt 0.990814 0.016227
vt 0.990814 0.016227
vt 0.990814 0.016227
vt 0.990814 0.016227
vt 0.990814 0.016227
vt 0.990814 0.016227
vt 0.990814 0.016227
vt 0.990814 0.016227
vt 0.990814 0.016227
vt 0.990814 0.016227
vt 0.990814 0.016227
vt 0.990814 0.016227
vt 0.990814 0.016227
vt 0.990814 0.016227
vt 0.990814 0.016227
vt 0.990814 0.016227
vt 0.990814 0.016227
vt 0.990814 0.016227
vt 0.990814 0.016227
vt 0.990814 0.016227
vt 0.990814 0.016227
vt 0.990814 0.016227
vt 0.990814 0.016227
vt 0.990814 0.016227
vt 0.990814 0.016227
vt 0.990814 0.016227
vt 0.990814 0.016227
vt 0.990814 0.016227
vt 0.990814 0.016227
vt 0.990814 0.016227
vt 0.990814 0.016227
vt 0.990814 0.016227
vn -0.999972 -0.000000 0.007500
vn -0.999972 -0.000000 0.007500
vn -0.999972 -0.000000 0.007500
vn -0.999972 -0.000000 0.007500
vn 0.000000 0.999972 0.007500
vn 0.000000 0.999972 0.007500
vn 0.000000 0.999972 0.007500
vn 0.000000 0.999972 0.007500
vn 0.999972 -0.000000 0.007500
vn 0.999972 -0.000000 0.007500
vn 0.999972 -0.000000 0.007500
vn 0.999972 -0.000000 0.007500
vn 0.000000 -0.999972 0.007500
vn 0.000000 -0.999972 0.007500
vn 0.000000 -0.999972 0.007500
vn 0.000000 -0.999972 0.007500
vn 0.999972 -0.000000 0.007500
vn 0.999972 -0.000000 0.007500
vn 0.999972 -0.000000 0.007500
vn 0.999972 -0.000000 0.007500
vn 0.000000 0.999972 0.007500
vn 0.000000 0.999972 0.007500
vn 0.000000 0.999972 0.007500
vn 0.000000 0.999972 0.007500
vn -0.999972 -0.000000 0.007500
vn -0.999972 -0.000000 0.007500
vn -0.999972 -0.000000 0.007500
vn -0.999972 -0.000000 0.007500
vn 0.000000 -0.999972 0.007500
vn 0.000000 -0.999972 0.007500
vn 0.000000 -0.999972 0.007500
vn 0.000000 -0.999972 0.007500
f 1/1/1 2/2/2 3/3/3
f 4/4/4 1/1/1 3/3/3
f 5/5/5 6/6/6 7/7/7
f 8/8/8 5/5/5 7/7/7
f 9/9/9 10/10/10 11/11/11
f 12/12/12 9/9/9 11/11/11
f 13/13/13 14/14/14 15/15/15
f 16/16/16 13/13/13 15/15/15
f 17/17/17 18/18/18 19/19/19
f 20/20/20 17/17/17 19/19/19
f 21/21/21 22/22/22 23/23/23
f 24/24/24 21/21/21 23/23/23
f 25/25/25 26/26/26 27/27/27
f 28/28/28 25/25/25 27/27/27
f 29/29/29 30/30/30 31/31/31
f 32/32/32 29/29/29 31/31/31
