# Walls of Bridge_Line_1, split on the measured deck plane (tools/split_prop_by_structure.py)
v -8.125000 24.000000 1.250000
v -8.125000 -24.000004 1.250000
v -8.000001 -24.000000 -0.000000
v -8.000000 24.000004 0.000000
v 8.125000 -24.000000 1.250000
v 8.375000 -24.000004 1.250000
v 8.375000 24.000000 1.250000
v 8.125000 24.000004 1.250000
v -8.375000 -24.000000 1.250000
v -8.125000 -24.000004 1.250000
v -8.125000 24.000000 1.250000
v -8.375000 24.000004 1.250000
v -8.375000 -24.000000 1.250000
v -8.375000 24.000004 1.250000
v -8.500000 24.000004 0.000000
v -8.500000 -24.000000 -0.000000
v 8.375000 24.000000 1.250000
v 8.375000 -24.000004 1.250000
v 8.500000 -24.000004 -0.000000
v 8.500000 24.000000 0.000000
v 8.125000 -24.000000 1.250000
v 8.125000 24.000004 1.250000
v 8.000001 24.000000 0.000000
v 8.000000 -24.000004 -0.000000
vt 0.995820999 0.0160489995
vt 0.995820999 0.0161589999
vt 0.995820999 0.0161589999
vt 0.995820999 0.0160489995
vt 0.995818019 0.0161589999
vt 0.995808005 0.0161589999
vt 0.995808005 0.0160489995
vt 0.995818019 0.0160489995
vt 0.995808005 0.0161589999
vt 0.995797992 0.0161589999
vt 0.995797992 0.0160489995
vt 0.995808005 0.0160489995
vt 0.995827973 0.0160489995
vt 0.995827973 0.0161589999
vt 0.995827973 0.0161589999
vt 0.995827973 0.0160489995
vt 0.995824993 0.0160489995
vt 0.995824993 0.0161589999
vt 0.995824993 0.0161589999
vt 0.995824993 0.0160489995
vt 0.995832026 0.0160489995
vt 0.995832026 0.0161589999
vt 0.995832026 0.0161589999
vt 0.995832026 0.0160489995
vn 0.995037 -0.000000 0.099503
vn 0.995037 -0.000000 0.099503
vn 0.995037 -0.000000 0.099503
vn 0.995037 -0.000000 0.099503
vn 0.000000 -0.000000 1.000000
vn 0.000000 -0.000000 1.000000
vn 0.000000 -0.000000 1.000000
vn 0.000000 -0.000000 1.000000
vn 0.000000 -0.000000 1.000000
vn 0.000000 -0.000000 1.000000
vn 0.000000 -0.000000 1.000000
vn 0.000000 -0.000000 1.000000
vn -0.995037 -0.000000 0.099504
vn -0.995037 -0.000000 0.099504
vn -0.998759 -0.000000 0.049814
vn -0.998759 -0.000000 0.049814
vn 0.995037 -0.000000 0.099504
vn 0.995037 -0.000000 0.099504
vn 0.998759 -0.000000 0.049814
vn 0.998759 -0.000000 0.049814
vn -0.995037 -0.000000 0.099503
vn -0.995037 -0.000000 0.099503
vn -0.995037 -0.000000 0.099503
vn -0.995037 -0.000000 0.099503
f 1/1/1 2/2/2 3/3/3
f 4/4/4 1/1/1 3/3/3
f 5/5/5 6/6/6 7/7/7
f 8/8/8 5/5/5 7/7/7
f 9/9/9 10/10/10 11/11/11
f 12/12/12 9/9/9 11/11/11
f 13/13/13 14/14/14 15/15/15
f 16/16/16 13/13/13 15/15/15
f 17/17/17 18/18/18 19/19/19
f 20/20/20 17/17/17 19/19/19
f 21/21/21 22/22/22 23/23/23
f 24/24/24 21/21/21 23/23/23
