v 8.000001 50.000000 -17.000000
v 8.500001 48.000000 -17.000000
v 8.000001 48.000000 -16.000000
v -8.000000 50.000000 -17.000000
v -8.000000 48.000000 -16.000000
v -8.500000 48.000000 -17.000000
v 2.955242 -25.500000 -7.042442
v 2.580242 -25.875000 -52.979439
v 2.580242 -22.125000 -52.979439
v 2.955242 -22.500000 -7.042442
v 2.955242 -22.500000 -7.042442
v 2.580242 -22.125000 -52.979439
v 6.330242 -22.125000 -52.979439
v 5.955242 -22.500000 -7.042442
v 5.955242 -22.500000 -7.042442
v 6.330242 -22.125000 -52.979439
v 6.330242 -25.875000 -52.979439
v 5.955242 -25.500000 -7.042442
v 5.955242 -25.500000 -7.042442
v 6.330242 -25.875000 -52.979439
v 2.580242 -25.875000 -52.979439
v 2.955242 -25.500000 -7.042442
v -2.955242 -25.500000 -7.042442
v -2.955242 -22.500000 -7.042442
v -2.580242 -22.125000 -52.979439
v -2.580242 -25.875000 -52.979439
v -2.955242 -22.500000 -7.042442
v -5.955242 -22.500000 -7.042442
v -6.330242 -22.125000 -52.979439
v -2.580242 -22.125000 -52.979439
v -5.955242 -22.500000 -7.042442
v -5.955242 -25.500000 -7.042442
v -6.330242 -25.875000 -52.979439
v -6.330242 -22.125000 -52.979439
v -5.955242 -25.500000 -7.042442
v -2.955242 -25.500000 -7.042442
v -2.580242 -25.875000 -52.979439
v -6.330242 -25.875000 -52.979439
v 2.955242 22.500000 -14.890152
v 2.580242 22.125000 -52.979439
v 2.580242 25.875000 -52.979439
v 2.955242 25.500000 -14.890152
v 2.955242 25.500000 -14.890152
v 2.580242 25.875000 -52.979439
v 6.330242 25.875000 -52.979439
v 5.955242 25.500000 -14.890152
v 5.955242 25.500000 -14.890152
v 6.330242 25.875000 -52.979439
v 6.330242 22.125000 -52.979439
v 5.955242 22.500000 -14.890152
v 5.955242 22.500000 -14.890152
v 6.330242 22.125000 -52.979439
v 2.580242 22.125000 -52.979439
v 2.955242 22.500000 -14.890152
v -8.000001 0.000000 -8.000000
v -8.125000 48.000000 -14.750000
v -8.000000 48.000000 -16.000000
v -8.125000 -0.000004 -6.750000
v -8.000001 -48.000000 -0.000000
v -8.125000 -48.000004 1.250000
v 8.000000 -0.000004 -8.000000
v -8.000001 0.000000 -8.000000
v -8.000000 48.000000 -16.000000
v 8.000001 48.000000 -16.000000
v 8.375000 48.000000 -14.750000
v 8.125000 0.000000 -6.750000
v 8.125000 48.000000 -14.750000
v 8.375000 -0.000004 -6.750000
v 8.125000 -48.000000 1.250000
v 8.375000 -48.000004 1.250000
v -8.125000 48.000000 -14.750000
v -8.375000 0.000000 -6.750000
v -8.375000 48.000000 -14.750000
v -8.125000 -0.000004 -6.750000
v -8.375000 -48.000000 1.250000
v -8.125000 -48.000004 1.250000
v -8.500000 48.000000 -16.000000
v -8.375000 48.000000 -14.750000
v -8.375000 0.000000 -6.750000
v -8.500000 0.000000 -8.000000
v -8.375000 -48.000000 1.250000
v -8.500000 -48.000000 -0.000000
v 8.500000 -0.000004 -8.000000
v 8.375000 48.000000 -14.750000
v 8.500000 48.000000 -16.000000
v 8.375000 -0.000004 -6.750000
v 8.500000 -48.000004 -0.000000
v 8.375000 -48.000004 1.250000
v 8.000001 48.000000 -16.000000
v 8.125000 48.000000 -14.750000
v 8.125000 0.000000 -6.750000
v 8.000000 -0.000004 -8.000000
v 8.125000 -48.000000 1.250000
v 8.000000 -48.000004 -0.000000
v -8.500000 0.000000 -8.000000
v -8.500000 48.000000 -18.000000
v -8.500000 48.000000 -16.000000
v -8.500000 0.000000 -10.000000
v -8.500000 -48.000000 -0.000000
v -7.650000 48.000000 -20.000000
v -8.500000 -48.000000 -2.000000
v -7.650000 0.000000 -12.000000
v -7.650000 -48.000000 -4.000000
v 8.500000 48.000000 -18.000000
v 7.650000 48.000000 -20.000000
v 7.650000 0.000000 -12.000000
v 8.500000 -0.000004 -10.000000
v 8.500000 48.000000 -16.000000
v 7.650000 -48.000000 -4.000000
v 8.500000 -0.000004 -8.000000
v 8.500000 -48.000004 -2.000000
v 8.500000 -48.000004 -0.000000
v 7.650000 48.000000 -20.000000
v -7.650000 48.000000 -20.000000
v -7.650000 0.000000 -12.000000
v 7.650000 0.000000 -12.000000
v -7.650000 -48.000000 -4.000000
v 7.650000 -48.000000 -4.000000
v -2.955242 22.500000 -14.890152
v -2.955242 25.500000 -14.890152
v -2.580242 25.875000 -52.979439
v -2.580242 22.125000 -52.979439
v -2.955242 25.500000 -14.890152
v -5.955242 25.500000 -14.890152
v -6.330242 25.875000 -52.979439
v -2.580242 25.875000 -52.979439
v -5.955242 25.500000 -14.890152
v -5.955242 22.500000 -14.890152
v -6.330242 22.125000 -52.979439
v -6.330242 25.875000 -52.979439
v -5.955242 22.500000 -14.890152
v -2.955242 22.500000 -14.890152
v -2.580242 22.125000 -52.979439
v -6.330242 22.125000 -52.979439
v 8.000000 -48.000004 -0.000000
v -8.000001 -48.000000 -0.000000
v -8.000001 0.000000 -8.000000
v 8.000000 -0.000004 -8.000000
v -8.125000 48.000000 -14.750000
v -8.375000 48.000000 -14.750000
v -8.500000 48.000000 -16.000000
v -8.000000 48.000000 -16.000000
v 8.125000 48.000000 -14.750000
v 8.000001 48.000000 -16.000000
v 8.500000 48.000000 -16.000000
v 8.375000 48.000000 -14.750000
v -8.500000 48.000000 -16.000000
v -8.500000 48.000000 -18.000000
v 8.500000 48.000000 -18.000000
v 8.500000 48.000000 -16.000000
v -8.000000 48.000000 -16.000000
v 8.000001 48.000000 -16.000000
v 8.000001 48.000000 -16.000000
v -8.000000 48.000000 -16.000000
v -8.000000 50.000000 -17.000000
v 8.000001 50.000000 -17.000000
vt 0.933367014 0.198618993
vt 0.933367014 0.199709997
vt 0.933367014 0.198618993
vt 0.92831099 0.198618993
vt 0.92831099 0.198618993
vt 0.933367014 0.199709997
vt 0.990813971 0.0162269995
vt 0.990813971 0.0162269995
vt 0.990813971 0.0162269995
vt 0.990813971 0.0162269995
vt 0.990813971 0.0162269995
vt 0.990813971 0.0162269995
vt 0.990813971 0.0162269995
vt 0.990813971 0.0162269995
vt 0.990813971 0.0162269995
vt 0.990813971 0.0162269995
vt 0.990813971 0.0162269995
vt 0.990813971 0.0162269995
vt 0.990813971 0.0162269995
vt 0.990813971 0.0162269995
vt 0.990813971 0.0162269995
vt 0.990813971 0.0162269995
vt 0.990813971 0.0162269995
vt 0.990813971 0.0162269995
vt 0.990813971 0.0162269995
vt 0.990813971 0.0162269995
vt 0.990813971 0.0162269995
vt 0.990813971 0.0162269995
vt 0.990813971 0.0162269995
vt 0.990813971 0.0162269995
vt 0.990813971 0.0162269995
vt 0.990813971 0.0162269995
vt 0.990813971 0.0162269995
vt 0.990813971 0.0162269995
vt 0.990813971 0.0162269995
vt 0.990813971 0.0162269995
vt 0.990813971 0.0162269995
vt 0.990813971 0.0162269995
vt 0.990813971 0.0162269995
vt 0.990813971 0.0162269995
vt 0.990813971 0.0162269995
vt 0.990813971 0.0162269995
vt 0.990813971 0.0162269995
vt 0.990813971 0.0162269995
vt 0.990813971 0.0162269995
vt 0.990813971 0.0162269995
vt 0.990813971 0.0162269995
vt 0.990813971 0.0162269995
vt 0.990813971 0.0162269995
vt 0.990813971 0.0162269995
vt 0.990813971 0.0162269995
vt 0.990813971 0.0162269995
vt 0.990813971 0.0162269995
vt 0.990813971 0.0162269995
vt 0.995820999 0.0161589999
vt 0.995820999 0.0160489995
vt 0.995820999 0.0160489995
vt 0.995820999 0.0161589999
vt 0.995820999 0.0161589999
vt 0.995820999 0.0161589999
vt 0 0.98159498
vt 1 0.98159498
vt 1 0.215792
vt 0 0.215792
vt 0.995808005 0.0160489995
vt 0.995818019 0.0161589999
vt 0.995818019 0.0160489995
vt 0.995808005 0.0161589999
vt 0.995818019 0.0161589999
vt 0.995808005 0.0161589999
vt 0.995797992 0.0160489995
vt 0.995808005 0.0161589999
vt 0.995808005 0.0160489995
vt 0.995797992 0.0161589999
vt 0.995808005 0.0161589999
vt 0.995797992 0.0161589999
vt 0.995827973 0.0161589999
vt 0.995827973 0.0161589999
vt 0.995827973 0.0160489995
vt 0.995827973 0.0160489995
vt 0.995827973 0.0160489995
vt 0.995827973 0.0160489995
vt 0.995824993 0.0161589999
vt 0.995824993 0.0160489995
vt 0.995824993 0.0160489995
vt 0.995824993 0.0161589999
vt 0.995824993 0.0161589999
vt 0.995824993 0.0161589999
vt 0.995832026 0.0161589999
vt 0.995832026 0.0161589999
vt 0.995832026 0.0160489995
vt 0.995832026 0.0160489995
vt 0.995832026 0.0160489995
vt 0.995832026 0.0160489995
vt 0.992340028 0.0160789993
vt 0.992340028 0.0160840005
vt 0.992340028 0.0160840005
vt 0.992340028 0.0160789993
vt 0.992340028 0.0160789993
vt 0.992340028 0.0160840005
vt 0.992340028 0.0160789993
vt 0.992340028 0.0160789993
vt 0.992340028 0.0160789993
vt 0.992339015 0.0160789993
vt 0.992339015 0.0160789993
vt 0.992339015 0.0160840005
vt 0.992339015 0.0160840005
vt 0.992339015 0.0160789993
vt 0.992339015 0.0160840005
vt 0.992339015 0.0160840005
vt 0.992339015 0.0160840005
vt 0.992339015 0.0160840005
vt 0.993188024 0.0162659995
vt 0.993188977 0.0162659995
vt 0.993188024 0.0162659995
vt 0.993188977 0.0162659995
vt 0.993188024 0.0162659995
vt 0.993188977 0.0162659995
vt 0.990813971 0.0162269995
vt 0.990813971 0.0162269995
vt 0.990813971 0.0162269995
vt 0.990813971 0.0162269995
vt 0.990813971 0.0162269995
vt 0.990813971 0.0162269995
vt 0.990813971 0.0162269995
vt 0.990813971 0.0162269995
vt 0.990813971 0.0162269995
vt 0.990813971 0.0162269995
vt 0.990813971 0.0162269995
vt 0.990813971 0.0162269995
vt 0.990813971 0.0162269995
vt 0.990813971 0.0162269995
vt 0.990813971 0.0162269995
vt 0.990813971 0.0162269995
vt 0 0.98159498
vt 1 0.98159498
vt 1 0.215792
vt 0 0.215792
vt 0.995325983 0.0152500002
vt 0.995325983 0.0152500002
vt 0.991145015 0.0151829999
vt 0.995325983 0.0152500002
vt 0.995325983 0.0152500002
vt 0.995325983 0.0152500002
vt 0.991145015 0.0151829999
vt 0.995325983 0.0152500002
vt 0.995325983 0.0152500002
vt 0.995311022 0.0152500002
vt 0.991145015 0.0151829999
vt 0.995311022 0.0152500002
vt 0.991145015 0.0160879996
vt 0.991145015 0.0151829999
vt 0 0.215792
vt 1 0.215792
vt 1 0.215792
vt 0 0.215792
vn 0.872872 0.218218 0.436436
vn 0.872872 0.218218 0.436436
vn 0.872872 0.218218 0.436436
vn -0.872872 0.218218 0.436436
vn -0.872872 0.218218 0.436436
vn -0.872872 0.218218 0.436436
vn -0.999967 -0.000000 0.008163
vn -0.999967 -0.000000 0.008163
vn -0.999967 -0.000000 0.008163
vn -0.999967 -0.000000 0.008163
vn 0.000000 0.999967 0.008163
vn 0.000000 0.999967 0.008163
vn 0.000000 0.999967 0.008163
vn 0.000000 0.999967 0.008163
vn 0.999967 -0.000000 0.008163
vn 0.999967 -0.000000 0.008163
vn 0.999967 -0.000000 0.008163
vn 0.999967 -0.000000 0.008163
vn 0.000000 -0.999967 0.008163
vn 0.000000 -0.999967 0.008163
vn 0.000000 -0.999967 0.008163
vn 0.000000 -0.999967 0.008163
vn 0.999967 -0.000000 0.008163
vn 0.999967 -0.000000 0.008163
vn 0.999967 -0.000000 0.008163
vn 0.999967 -0.000000 0.008163
vn 0.000000 0.999967 0.008163
vn 0.000000 0.999967 0.008163
vn 0.000000 0.999967 0.008163
vn 0.000000 0.999967 0.008163
vn -0.999967 -0.000000 0.008163
vn -0.999967 -0.000000 0.008163
vn -0.999967 -0.000000 0.008163
vn -0.999967 -0.000000 0.008163
vn 0.000000 -0.999967 0.008163
vn 0.000000 -0.999967 0.008163
vn 0.000000 -0.999967 0.008163
vn 0.000000 -0.999967 0.008163
vn -0.999952 -0.000000 0.009845
vn -0.999952 -0.000000 0.009845
vn -0.999952 -0.000000 0.009845
vn -0.999952 -0.000000 0.009845
vn 0.000000 0.999952 0.009845
vn 0.000000 0.999952 0.009845
vn 0.000000 0.999952 0.009845
vn 0.000000 0.999952 0.009845
vn 0.999952 -0.000000 0.009845
vn 0.999952 -0.000000 0.009845
vn 0.999952 -0.000000 0.009845
vn 0.999952 -0.000000 0.009845
vn 0.000000 -0.999952 0.009845
vn 0.000000 -0.999952 0.009845
vn 0.000000 -0.999952 0.009845
vn 0.000000 -0.999952 0.009845
vn 0.994900 0.016582 0.099490
vn 0.994900 0.016582 0.099490
vn 0.994900 0.016582 0.099490
vn 0.994900 0.016582 0.099490
vn 0.994900 0.016582 0.099489
vn 0.994900 0.016582 0.099489
vn 0.000000 0.164399 0.986394
vn 0.000000 0.164399 0.986394
vn 0.000000 0.309244 0.950983
vn 0.000000 0.309244 0.950983
vn 0.000000 0.164399 0.986394
vn 0.000000 0.164399 0.986394
vn 0.000000 0.164399 0.986394
vn 0.000000 0.164399 0.986394
vn 0.000000 0.164399 0.986394
vn 0.000000 0.164399 0.986394
vn 0.000000 0.164399 0.986394
vn 0.000000 0.164399 0.986394
vn 0.000000 0.164399 0.986394
vn 0.000000 0.164399 0.986394
vn 0.000000 0.164399 0.986394
vn 0.000000 0.164399 0.986394
vn -0.998724 0.008301 0.049809
vn -0.994900 0.016582 0.099490
vn -0.994900 0.016582 0.099490
vn -0.998724 0.008301 0.049809
vn -0.994900 0.016582 0.099490
vn -0.998724 0.008301 0.049809
vn 0.998724 0.008301 0.049809
vn 0.994900 0.016582 0.099490
vn 0.998724 0.008301 0.049809
vn 0.994900 0.016582 0.099490
vn 0.998724 0.008301 0.049809
vn 0.994900 0.016582 0.099490
vn -0.994900 0.016582 0.099490
vn -0.994900 0.016582 0.099490
vn -0.994900 0.016582 0.099490
vn -0.994900 0.016582 0.099490
vn -0.994900 0.016582 0.099490
vn -0.994900 0.016582 0.099490
vn -0.998724 0.008301 0.049809
vn -0.979383 -0.033211 -0.199264
vn -0.998724 0.008301 0.049809
vn -0.979383 -0.033211 -0.199264
vn -0.998724 0.008301 0.049809
vn -0.918382 -0.065052 -0.390312
vn -0.979383 -0.033211 -0.199264
vn -0.918382 -0.065052 -0.390312
vn -0.918382 -0.065052 -0.390312
vn 0.979383 -0.033211 -0.199264
vn 0.918382 -0.065052 -0.390312
vn 0.918382 -0.065052 -0.390312
vn 0.979383 -0.033211 -0.199264
vn 0.998724 0.008301 0.049809
vn 0.918382 -0.065052 -0.390312
vn 0.998724 0.008301 0.049809
vn 0.979383 -0.033211 -0.199264
vn 0.998724 0.008301 0.049809
vn 0.000000 -0.164399 -0.986394
vn 0.000000 -0.164399 -0.986394
vn 0.000000 -0.164399 -0.986394
vn 0.000000 -0.164399 -0.986394
vn 0.000000 -0.164399 -0.986394
vn 0.000000 -0.164399 -0.986394
vn 0.999952 -0.000000 0.009845
vn 0.999952 -0.000000 0.009845
vn 0.999952 -0.000000 0.009845
vn 0.999952 -0.000000 0.009845
vn 0.000000 0.999952 0.009845
vn 0.000000 0.999952 0.009845
vn 0.000000 0.999952 0.009845
vn 0.000000 0.999952 0.009845
vn -0.999952 -0.000000 0.009845
vn -0.999952 -0.000000 0.009845
vn -0.999952 -0.000000 0.009845
vn -0.999952 -0.000000 0.009845
vn 0.000000 -0.999952 0.009845
vn 0.000000 -0.999952 0.009845
vn 0.000000 -0.999952 0.009845
vn 0.000000 -0.999952 0.009845
vn 0.000000 0.164399 0.986394
vn 0.000000 0.164399 0.986394
vn 0.000000 0.164399 0.986394
vn 0.000000 0.164399 0.986394
vn 0.000000 1.000000 0.000000
vn 0.000000 1.000000 0.000000
vn 0.000000 1.000000 0.000000
vn 0.000000 1.000000 0.000000
vn 0.000000 1.000000 0.000000
vn 0.000000 1.000000 0.000000
vn 0.000000 1.000000 0.000000
vn 0.000000 1.000000 0.000000
vn 0.000000 1.000000 0.000000
vn 0.000000 1.000000 0.000000
vn 0.000000 1.000000 0.000000
vn 0.000000 1.000000 0.000000
vn 0.000000 1.000000 0.000000
vn 0.000000 1.000000 0.000000
vn 0.000000 0.309244 0.950983
vn 0.000000 0.309244 0.950983
vn 0.000000 0.447214 0.894427
vn 0.000000 0.447214 0.894427
f 3/3/3 2/2/2 1/1/1
f 6/6/6 5/5/5 4/4/4
f 9/9/9 8/8/8 7/7/7
f 10/10/10 9/9/9 7/7/7
f 13/13/13 12/12/12 11/11/11
f 14/14/14 13/13/13 11/11/11
f 17/17/17 16/16/16 15/15/15
f 18/18/18 17/17/17 15/15/15
f 21/21/21 20/20/20 19/19/19
f 22/22/22 21/21/21 19/19/19
f 25/25/25 24/24/24 23/23/23
f 26/26/26 25/25/25 23/23/23
f 29/29/29 28/28/28 27/27/27
f 30/30/30 29/29/29 27/27/27
f 33/33/33 32/32/32 31/31/31
f 34/34/34 33/33/33 31/31/31
f 37/37/37 36/36/36 35/35/35
f 38/38/38 37/37/37 35/35/35
f 41/41/41 40/40/40 39/39/39
f 42/42/42 41/41/41 39/39/39
f 45/45/45 44/44/44 43/43/43
f 46/46/46 45/45/45 43/43/43
f 49/49/49 48/48/48 47/47/47
f 50/50/50 49/49/49 47/47/47
f 53/53/53 52/52/52 51/51/51
f 54/54/54 53/53/53 51/51/51
f 57/57/57 56/56/56 55/55/55
f 56/56/56 58/58/58 55/55/55
f 55/55/55 58/58/58 59/59/59
f 58/58/58 60/60/60 59/59/59
f 63/63/63 62/62/62 61/61/61
f 64/64/64 63/63/63 61/61/61
f 67/67/67 66/66/66 65/65/65
f 66/66/66 68/68/68 65/65/65
f 66/66/66 69/69/69 68/68/68
f 69/69/69 70/70/70 68/68/68
f 73/73/73 72/72/72 71/71/71
f 72/72/72 74/74/74 71/71/71
f 72/72/72 75/75/75 74/74/74
f 75/75/75 76/76/76 74/74/74
f 79/79/79 78/78/78 77/77/77
f 80/80/80 79/79/79 77/77/77
f 81/81/81 79/79/79 80/80/80
f 82/82/82 81/81/81 80/80/80
f 85/85/85 84/84/84 83/83/83
f 84/84/84 86/86/86 83/83/83
f 83/83/83 86/86/86 87/87/87
f 86/86/86 88/88/88 87/87/87
f 91/91/91 90/90/90 89/89/89
f 92/92/92 91/91/91 89/89/89
f 93/93/93 91/91/91 92/92/92
f 94/94/94 93/93/93 92/92/92
f 97/97/97 96/96/96 95/95/95
f 96/96/96 98/98/98 95/95/95
f 95/95/95 98/98/98 99/99/99
f 96/96/96 100/100/100 98/98/98
f 98/98/98 101/101/101 99/99/99
f 100/100/100 102/102/102 98/98/98
f 98/98/98 102/102/102 101/101/101
f 102/102/102 103/103/103 101/101/101
f 106/106/106 105/105/105 104/104/104
f 107/107/107 106/106/106 104/104/104
f 107/107/107 104/104/104 108/108/108
f 109/109/109 106/106/106 107/107/107
f 110/110/110 107/107/107 108/108/108
f 111/111/111 109/109/109 107/107/107
f 111/111/111 107/107/107 110/110/110
f 112/112/112 111/111/111 110/110/110
f 115/115/115 114/114/114 113/113/113
f 116/116/116 115/115/115 113/113/113
f 117/117/117 115/115/115 116/116/116
f 118/118/118 117/117/117 116/116/116
f 121/121/121 120/120/120 119/119/119
f 122/122/122 121/121/121 119/119/119
f 125/125/125 124/124/124 123/123/123
f 126/126/126 125/125/125 123/123/123
f 129/129/129 128/128/128 127/127/127
f 130/130/130 129/129/129 127/127/127
f 133/133/133 132/132/132 131/131/131
f 134/134/134 133/133/133 131/131/131
f 137/137/137 136/136/136 135/135/135
f 138/138/138 137/137/137 135/135/135
f 141/141/141 140/140/140 139/139/139
f 142/142/142 141/141/141 139/139/139
f 145/145/145 144/144/144 143/143/143
f 146/146/146 145/145/145 143/143/143
f 149/149/149 148/148/148 147/147/147
f 147/147/147 150/150/150 149/149/149
f 147/147/147 151/151/151 150/150/150
f 151/151/151 152/152/152 150/150/150
f 155/155/155 154/154/154 153/153/153
f 156/156/156 155/155/155 153/153/153
