# Surface of Bridge_Line_2, split on the measured deck plane (tools/split_prop_by_structure.py)
v -8.000001 3.350002 0.000000
v -8.000001 2.850002 0.000000
v -8.000000 9.050001 0.000000
v -8.000003 -15.999994 0.000000
v 7.999995 -16.000010 0.000000
v -8.000003 -15.499994 0.000000
v 7.999995 -15.500010 0.000000
v 7.999997 -9.550009 0.000000
v -8.000002 -9.549995 0.000000
v -8.000002 -9.049995 0.000000
v 7.999997 -9.050009 0.000000
v -8.000002 -3.349997 0.000000
v 7.999999 -3.350009 0.000000
v -8.000002 -2.849997 0.000000
v 8.000000 2.849991 0.000000
v -8.000001 2.850002 0.000000
v 8.000000 3.349991 0.000000
v -8.000000 9.050001 0.000000
v 8.000002 9.049992 0.000000
v -8.000000 9.550001 0.000000
v 8.000002 9.549992 0.000000
v 8.000004 15.499992 0.000000
v -7.999999 15.500000 0.000000
v -7.999999 15.999998 0.000000
v 8.000004 15.999990 0.000000
v 7.999997 -9.550009 0.000000
v 8.499995 -15.500010 0.000000
v 8.499996 -9.550009 0.000000
v 7.999995 -15.500010 0.000000
v 8.499996 -9.050009 0.000000
v 8.499998 -3.350009 0.000000
v 7.999997 -9.050009 0.000000
v 7.999999 -3.350009 0.000000
v 8.499998 -2.850009 0.000000
v 8.500000 2.849991 0.000000
v 7.999999 -2.850009 0.000000
v 8.000000 2.849991 0.000000
v 8.500000 3.349991 0.000000
v 8.500002 9.049992 0.000000
v 8.000000 3.349991 0.000000
v 8.000002 9.049992 0.000000
v 8.500002 9.549992 0.000000
v 8.500004 15.499992 0.000000
v 8.000002 9.549992 0.000000
v 8.000004 15.499992 0.000000
v -8.499999 15.500000 -0.000001
v -8.500000 9.550001 -0.000001
v -7.999999 15.500000 0.000000
v -8.000000 9.550001 0.000000
v -8.500000 9.050001 -0.000001
v -8.500001 3.350002 -0.000001
v -8.000000 9.050001 0.000000
v -8.000001 3.350002 0.000000
v -8.500001 2.850002 -0.000001
v -8.500002 -2.849997 -0.000001
v -8.000001 2.850002 0.000000
v -8.000002 -2.849997 0.000000
v -8.500002 -3.349997 -0.000001
v -8.500002 -9.049995 -0.000001
v -8.000002 -3.349997 0.000000
v -8.000002 -9.049995 0.000000
v -8.500002 -9.549995 -0.000001
v -8.500003 -15.499994 -0.000001
v -8.000002 -9.549995 0.000000
v -8.000003 -15.499994 0.000000
vt 0.195410997 0.510766029
vt 0.195556 0.510766029
vt 0.195267007 0.510766029
vt 0.199313998 0.510766029
vt 0.199313998 0.519438028
vt 0.196422994 0.510766029
vt 0.196279004 0.519438028
vt 0.196134001 0.519438028
vt 0.196134001 0.510766029
vt 0.195989996 0.510766029
vt 0.195989996 0.519438028
vt 0.195844993 0.510766029
vt 0.195844993 0.519438028
vt 0.195701003 0.510766029
vt 0.195556 0.519438028
vt 0.195556 0.510766029
vt 0.195410997 0.519438028
vt 0.195267007 0.510766029
vt 0.195267007 0.519438028
vt 0.195122004 0.510766029
vt 0.195122004 0.519438028
vt 0.194977999 0.519438028
vt 0.194977999 0.510766029
vt 0.193533003 0.510766029
vt 0.193533003 0.519438028
vt 0.196134001 0.519438028
vt 0.196279004 0.519438028
vt 0.196134001 0.519438028
vt 0.196279004 0.519438028
vt 0.195989996 0.519438028
vt 0.195844993 0.519438028
vt 0.195989996 0.519438028
vt 0.195844993 0.519438028
vt 0.195701003 0.519438028
vt 0.195556 0.519438028
vt 0.195701003 0.519438028
vt 0.195556 0.519438028
vt 0.195410997 0.519438028
vt 0.195267007 0.519438028
vt 0.195410997 0.519438028
vt 0.195267007 0.519438028
vt 0.195122004 0.519438028
vt 0.194977999 0.519438028
vt 0.195122004 0.519438028
vt 0.194977999 0.519438028
vt 0.194977999 0.510766029
vt 0.195122004 0.510766029
vt 0.194977999 0.510766029
vt 0.195122004 0.510766029
vt 0.195267007 0.510766029
vt 0.195410997 0.510766029
vt 0.195267007 0.510766029
vt 0.195410997 0.510766029
vt 0.195556 0.510766029
vt 0.195701003 0.510766029
vt 0.195556 0.510766029
vt 0.195701003 0.510766029
vt 0.195844993 0.510766029
vt 0.195989996 0.510766029
vt 0.195844993 0.510766029
vt 0.195989996 0.510766029
vt 0.196134001 0.510766029
vt 0.196279004 0.510766029
vt 0.196134001 0.510766029
vt 0.196422994 0.510766029
vn 0.000000 0.952942 0.303154
vn 0.000000 1.000000 0.000000
vn 0.000000 1.000000 0.000000
vn 0.000000 0.000000 1.000000
vn 0.000000 0.000000 1.000000
vn 0.000000 0.000000 1.000000
vn 0.000000 0.000000 1.000000
vn 0.000000 0.000000 1.000000
vn 0.000000 0.000000 1.000000
vn 0.000000 0.000000 1.000000
vn 0.000000 0.000000 1.000000
vn 0.000000 0.000000 1.000000
vn 0.000000 0.000000 1.000000
vn 0.000000 0.000000 1.000000
vn 0.000000 0.000000 1.000000
vn 0.000000 0.000000 1.000000
vn 0.000000 0.000000 1.000000
vn 0.000000 0.000000 1.000000
vn 0.000000 0.000000 1.000000
vn 0.000000 0.000000 1.000000
vn 0.000000 0.000000 1.000000
vn 0.000000 0.000000 1.000000
vn 0.000000 0.000000 1.000000
vn 0.000000 0.000000 1.000000
vn 0.000000 0.000000 1.000000
vn 0.000000 0.000000 1.000000
vn 0.000000 0.000000 1.000000
vn 0.000000 0.000000 1.000000
vn 0.000000 0.000000 1.000000
vn 0.000000 0.000000 1.000000
vn 0.000000 0.000000 1.000000
vn 0.000000 0.000000 1.000000
vn 0.000000 0.000000 1.000000
vn 0.000000 0.000000 1.000000
vn 0.000000 0.000000 1.000000
vn 0.000000 0.000000 1.000000
vn 0.000000 0.000000 1.000000
vn 0.000000 0.000000 1.000000
vn 0.000000 0.000000 1.000000
vn 0.000000 0.000000 1.000000
vn 0.000000 0.000000 1.000000
vn 0.000000 0.000000 1.000000
vn 0.000000 0.000000 1.000000
vn 0.000000 0.000000 1.000000
vn 0.000000 0.000000 1.000000
vn 0.000000 0.000000 1.000000
vn 0.000000 0.000000 1.000000
vn 0.000000 0.000000 1.000000
vn 0.000000 0.000000 1.000000
vn 0.000000 0.000000 1.000000
vn 0.000000 0.000000 1.000000
vn 0.000000 0.000000 1.000000
vn 0.000000 0.000000 1.000000
vn 0.000000 0.000000 1.000000
vn 0.000000 0.000000 1.000000
vn 0.000000 0.000000 1.000000
vn 0.000000 0.000000 1.000000
vn 0.000000 0.000000 1.000000
vn 0.000000 0.000000 1.000000
vn 0.000000 0.000000 1.000000
vn 0.000000 0.000000 1.000000
vn 0.000000 0.000000 1.000000
vn 0.000000 0.000000 1.000000
vn 0.000000 0.000000 1.000000
vn 0.000000 0.000000 1.000000
f 1/1/1 2/2/2 3/3/3
f 4/4/4 5/5/5 6/6/6
f 5/5/5 7/7/7 6/6/6
f 7/7/7 8/8/8 6/6/6
f 6/6/6 8/8/8 9/9/9
f 8/8/8 10/10/10 9/9/9
f 11/11/11 10/10/10 8/8/8
f 12/12/12 10/10/10 11/11/11
f 11/11/11 13/13/13 12/12/12
f 12/12/12 13/13/13 14/14/14
f 13/13/13 15/15/15 14/14/14
f 14/14/14 15/15/15 16/16/16
f 17/17/17 16/16/16 15/15/15
f 18/18/18 16/16/16 17/17/17
f 17/17/17 19/19/19 18/18/18
f 18/18/18 19/19/19 20/20/20
f 19/19/19 21/21/21 20/20/20
f 21/21/21 22/22/22 20/20/20
f 20/20/20 22/22/22 23/23/23
f 24/24/24 23/23/23 22/22/22
f 25/25/25 24/24/24 22/22/22
f 26/26/26 27/27/27 28/28/28
f 29/29/29 27/27/27 26/26/26
f 30/30/30 31/31/31 32/32/32
f 31/31/31 33/33/33 32/32/32
f 34/34/34 35/35/35 36/36/36
f 35/35/35 37/37/37 36/36/36
f 38/38/38 39/39/39 40/40/40
f 39/39/39 41/41/41 40/40/40
f 42/42/42 43/43/43 44/44/44
f 43/43/43 45/45/45 44/44/44
f 46/46/46 47/47/47 48/48/48
f 47/47/47 49/49/49 48/48/48
f 50/50/50 51/51/51 52/52/52
f 51/51/51 53/53/53 52/52/52
f 54/54/54 55/55/55 56/56/56
f 55/55/55 57/57/57 56/56/56
f 58/58/58 59/59/59 60/60/60
f 59/59/59 61/61/61 60/60/60
f 62/62/62 63/63/63 64/64/64
f 63/63/63 65/65/65 64/64/64
