# Underbelly of Bridge_Line_Cap_1, split on the measured deck plane (tools/split_prop_by_structure.py)
v 8.000001 48.000000 -16.000000
v 8.500001 48.000000 -17.000000
v 8.000001 50.000000 -17.000000
v -8.500000 48.000000 -17.000000
v -8.000000 48.000000 -16.000000
v -8.000000 50.000000 -17.000000
v 2.580242 -22.125000 -52.979439
v 2.580242 -25.875000 -52.979439
v 2.955242 -25.500000 -7.042442
v 2.955242 -22.500000 -7.042442
v 6.330242 -22.125000 -52.979439
v 2.580242 -22.125000 -52.979439
v 2.955242 -22.500000 -7.042442
v 5.955242 -22.500000 -7.042442
v 6.330242 -25.875000 -52.979439
v 6.330242 -22.125000 -52.979439
v 5.955242 -22.500000 -7.042442
v 5.955242 -25.500000 -7.042442
v 2.580242 -25.875000 -52.979439
v 6.330242 -25.875000 -52.979439
v 5.955242 -25.500000 -7.042442
v 2.955242 -25.500000 -7.042442
v -2.580242 -22.125000 -52.979439
v -2.955242 -22.500000 -7.042442
v -2.955242 -25.500000 -7.042442
v -2.580242 -25.875000 -52.979439
v -6.330242 -22.125000 -52.979439
v -5.955242 -22.500000 -7.042442
v -2.955242 -22.500000 -7.042442
v -2.580242 -22.125000 -52.979439
v -6.330242 -25.875000 -52.979439
v -5.955242 -25.500000 -7.042442
v -5.955242 -22.500000 -7.042442
v -6.330242 -22.125000 -52.979439
v -2.580242 -25.875000 -52.979439
v -2.955242 -25.500000 -7.042442
v -5.955242 -25.500000 -7.042442
v -6.330242 -25.875000 -52.979439
v 2.580242 25.875000 -52.979439
v 2.580242 22.125000 -52.979439
v 2.955242 22.500000 -14.890152
v 2.955242 25.500000 -14.890152
v 6.330242 25.875000 -52.979439
v 2.580242 25.875000 -52.979439
v 2.955242 25.500000 -14.890152
v 5.955242 25.500000 -14.890152
v 6.330242 22.125000 -52.979439
v 6.330242 25.875000 -52.979439
v 5.955242 25.500000 -14.890152
v 5.955242 22.500000 -14.890152
v 2.580242 22.125000 -52.979439
v 6.330242 22.125000 -52.979439
v 5.955242 22.500000 -14.890152
v 2.955242 22.500000 -14.890152
v -8.500000 48.000000 -16.000000
v -8.500000 48.000000 -18.000000
v -8.500000 0.000000 -8.000000
v -8.500000 0.000000 -10.000000
v -8.500000 -48.000000 -0.000000
v -7.650000 48.000000 -20.000000
v -8.500000 -48.000000 -2.000000
v -7.650000 0.000000 -12.000000
v -7.650000 -48.000000 -4.000000
v 7.650000 0.000000 -12.000000
v 7.650000 48.000000 -20.000000
v 8.500000 48.000000 -18.000000
v 8.500000 -0.000004 -10.000000
v 8.500000 48.000000 -16.000000
v 7.650000 -48.000000 -4.000000
v 8.500000 -0.000004 -8.000000
v 8.500000 -48.000004 -2.000000
v 8.500000 -48.000004 -0.000000
v -7.650000 0.000000 -12.000000
v -7.650000 48.000000 -20.000000
v 7.650000 48.000000 -20.000000
v 7.650000 0.000000 -12.000000
v -7.650000 -48.000000 -4.000000
v 7.650000 -48.000000 -4.000000
v -2.580242 25.875000 -52.979439
v -2.955242 25.500000 -14.890152
v -2.955242 22.500000 -14.890152
v -2.580242 22.125000 -52.979439
v -6.330242 25.875000 -52.979439
v -5.955242 25.500000 -14.890152
v -2.955242 25.500000 -14.890152
v -2.580242 25.875000 -52.979439
v -6.330242 22.125000 -52.979439
v -5.955242 22.500000 -14.890152
v -5.955242 25.500000 -14.890152
v -6.330242 25.875000 -52.979439
v -2.580242 22.125000 -52.979439
v -2.955242 22.500000 -14.890152
v -5.955242 22.500000 -14.890152
v -6.330242 22.125000 -52.979439
v 8.500000 48.000000 -18.000000
v -8.500000 48.000000 -18.000000
v -8.500000 48.000000 -16.000000
v 8.500000 48.000000 -16.000000
vt 0.933367014 0.198618993
vt 0.933367014 0.199709997
vt 0.933367014 0.198618993
vt 0.933367014 0.199709997
vt 0.92831099 0.198618993
vt 0.92831099 0.198618993
vt 0.990813971 0.0162269995
vt 0.990813971 0.0162269995
vt 0.990813971 0.0162269995
vt 0.990813971 0.0162269995
vt 0.990813971 0.0162269995
vt 0.990813971 0.0162269995
vt 0.990813971 0.0162269995
vt 0.990813971 0.0162269995
vt 0.990813971 0.0162269995
vt 0.990813971 0.0162269995
vt 0.990813971 0.0162269995
vt 0.990813971 0.0162269995
vt 0.990813971 0.0162269995
vt 0.990813971 0.0162269995
vt 0.990813971 0.0162269995
vt 0.990813971 0.0162269995
vt 0.990813971 0.0162269995
vt 0.990813971 0.0162269995
vt 0.990813971 0.0162269995
vt 0.990813971 0.0162269995
vt 0.990813971 0.0162269995
vt 0.990813971 0.0162269995
vt 0.990813971 0.0162269995
vt 0.990813971 0.0162269995
vt 0.990813971 0.0162269995
vt 0.990813971 0.0162269995
vt 0.990813971 0.0162269995
vt 0.990813971 0.0162269995
vt 0.990813971 0.0162269995
vt 0.990813971 0.0162269995
vt 0.990813971 0.0162269995
vt 0.990813971 0.0162269995
vt 0.990813971 0.0162269995
vt 0.990813971 0.0162269995
vt 0.990813971 0.0162269995
vt 0.990813971 0.0162269995
vt 0.990813971 0.0162269995
vt 0.990813971 0.0162269995
vt 0.990813971 0.0162269995
vt 0.990813971 0.0162269995
vt 0.990813971 0.0162269995
vt 0.990813971 0.0162269995
vt 0.990813971 0.0162269995
vt 0.990813971 0.0162269995
vt 0.990813971 0.0162269995
vt 0.990813971 0.0162269995
vt 0.990813971 0.0162269995
vt 0.990813971 0.0162269995
vt 0.992340028 0.0160840005
vt 0.992340028 0.0160840005
vt 0.992340028 0.0160789993
vt 0.992340028 0.0160789993
vt 0.992340028 0.0160789993
vt 0.992340028 0.0160840005
vt 0.992340028 0.0160789993
vt 0.992340028 0.0160789993
vt 0.992340028 0.0160789993
vt 0.992339015 0.0160840005
vt 0.992339015 0.0160789993
vt 0.992339015 0.0160789993
vt 0.992339015 0.0160840005
vt 0.992339015 0.0160789993
vt 0.992339015 0.0160840005
vt 0.992339015 0.0160840005
vt 0.992339015 0.0160840005
vt 0.992339015 0.0160840005
vt 0.993188024 0.0162659995
vt 0.993188977 0.0162659995
vt 0.993188024 0.0162659995
vt 0.993188977 0.0162659995
vt 0.993188024 0.0162659995
vt 0.993188977 0.0162659995
vt 0.990813971 0.0162269995
vt 0.990813971 0.0162269995
vt 0.990813971 0.0162269995
vt 0.990813971 0.0162269995
vt 0.990813971 0.0162269995
vt 0.990813971 0.0162269995
vt 0.990813971 0.0162269995
vt 0.990813971 0.0162269995
vt 0.990813971 0.0162269995
vt 0.990813971 0.0162269995
vt 0.990813971 0.0162269995
vt 0.990813971 0.0162269995
vt 0.990813971 0.0162269995
vt 0.990813971 0.0162269995
vt 0.990813971 0.0162269995
vt 0.990813971 0.0162269995
vt 0.991145015 0.0151829999
vt 0.995311022 0.0152500002
vt 0.995325983 0.0152500002
vt 0.995311022 0.0152500002
vn 0.872872 0.218218 0.436436
vn 0.872872 0.218218 0.436436
vn 0.872872 0.218218 0.436436
vn -0.872872 0.218218 0.436436
vn -0.872872 0.218218 0.436436
vn -0.872872 0.218218 0.436436
vn -0.999967 -0.000000 0.008163
vn -0.999967 -0.000000 0.008163
vn -0.999967 -0.000000 0.008163
vn -0.999967 -0.000000 0.008163
vn 0.000000 0.999967 0.008163
vn 0.000000 0.999967 0.008163
vn 0.000000 0.999967 0.008163
vn 0.000000 0.999967 0.008163
vn 0.999967 -0.000000 0.008163
vn 0.999967 -0.000000 0.008163
vn 0.999967 -0.000000 0.008163
vn 0.999967 -0.000000 0.008163
vn 0.000000 -0.999967 0.008163
vn 0.000000 -0.999967 0.008163
vn 0.000000 -0.999967 0.008163
vn 0.000000 -0.999967 0.008163
vn 0.999967 -0.000000 0.008163
vn 0.999967 -0.000000 0.008163
vn 0.999967 -0.000000 0.008163
vn 0.999967 -0.000000 0.008163
vn 0.000000 0.999967 0.008163
vn 0.000000 0.999967 0.008163
vn 0.000000 0.999967 0.008163
vn 0.000000 0.999967 0.008163
vn -0.999967 -0.000000 0.008163
vn -0.999967 -0.000000 0.008163
vn -0.999967 -0.000000 0.008163
vn -0.999967 -0.000000 0.008163
vn 0.000000 -0.999967 0.008163
vn 0.000000 -0.999967 0.008163
vn 0.000000 -0.999967 0.008163
vn 0.000000 -0.999967 0.008163
vn -0.999952 -0.000000 0.009845
vn -0.999952 -0.000000 0.009845
vn -0.999952 -0.000000 0.009845
vn -0.999952 -0.000000 0.009845
vn 0.000000 0.999952 0.009845
vn 0.000000 0.999952 0.009845
vn 0.000000 0.999952 0.009845
vn 0.000000 0.999952 0.009845
vn 0.999952 -0.000000 0.009845
vn 0.999952 -0.000000 0.009845
vn 0.999952 -0.000000 0.009845
vn 0.999952 -0.000000 0.009845
vn 0.000000 -0.999952 0.009845
vn 0.000000 -0.999952 0.009845
vn 0.000000 -0.999952 0.009845
vn 0.000000 -0.999952 0.009845
vn -0.998724 0.008301 0.049809
vn -0.979383 -0.033211 -0.199264
vn -0.998724 0.008301 0.049809
vn -0.979383 -0.033211 -0.199264
vn -0.998724 0.008301 0.049809
vn -0.918382 -0.065052 -0.390312
vn -0.979383 -0.033211 -0.199264
vn -0.918382 -0.065052 -0.390312
vn -0.918382 -0.065052 -0.390312
vn 0.918382 -0.065052 -0.390312
vn 0.918382 -0.065052 -0.390312
vn 0.979383 -0.033211 -0.199264
vn 0.979383 -0.033211 -0.199264
vn 0.998724 0.008301 0.049809
vn 0.918382 -0.065052 -0.390312
vn 0.998724 0.008301 0.049809
vn 0.979383 -0.033211 -0.199264
vn 0.998724 0.008301 0.049809
vn 0.000000 -0.164399 -0.986394
vn 0.000000 -0.164399 -0.986394
vn 0.000000 -0.164399 -0.986394
vn 0.000000 -0.164399 -0.986394
vn 0.000000 -0.164399 -0.986394
vn 0.000000 -0.164399 -0.986394
vn 0.999952 -0.000000 0.009845
vn 0.999952 -0.000000 0.009845
vn 0.999952 -0.000000 0.009845
vn 0.999952 -0.000000 0.009845
vn 0.000000 0.999952 0.009845
vn 0.000000 0.999952 0.009845
vn 0.000000 0.999952 0.009845
vn 0.000000 0.999952 0.009845
vn -0.999952 -0.000000 0.009845
vn -0.999952 -0.000000 0.009845
vn -0.999952 -0.000000 0.009845
vn -0.999952 -0.000000 0.009845
vn 0.000000 -0.999952 0.009845
vn 0.000000 -0.999952 0.009845
vn 0.000000 -0.999952 0.009845
vn 0.000000 -0.999952 0.009845
vn 0.000000 1.000000 0.000000
vn 0.000000 1.000000 0.000000
vn 0.000000 1.000000 0.000000
vn 0.000000 1.000000 0.000000
f 1/1/1 2/2/2 3/3/3
f 4/4/4 5/5/5 6/6/6
f 7/7/7 8/8/8 9/9/9
f 10/10/10 7/7/7 9/9/9
f 11/11/11 12/12/12 13/13/13
f 14/14/14 11/11/11 13/13/13
f 15/15/15 16/16/16 17/17/17
f 18/18/18 15/15/15 17/17/17
f 19/19/19 20/20/20 21/21/21
f 22/22/22 19/19/19 21/21/21
f 23/23/23 24/24/24 25/25/25
f 26/26/26 23/23/23 25/25/25
f 27/27/27 28/28/28 29/29/29
f 30/30/30 27/27/27 29/29/29
f 31/31/31 32/32/32 33/33/33
f 34/34/34 31/31/31 33/33/33
f 35/35/35 36/36/36 37/37/37
f 38/38/38 35/35/35 37/37/37
f 39/39/39 40/40/40 41/41/41
f 42/42/42 39/39/39 41/41/41
f 43/43/43 44/44/44 45/45/45
f 46/46/46 43/43/43 45/45/45
f 47/47/47 48/48/48 49/49/49
f 50/50/50 47/47/47 49/49/49
f 51/51/51 52/52/52 53/53/53
f 54/54/54 51/51/51 53/53/53
f 55/55/55 56/56/56 57/57/57
f 56/56/56 58/58/58 57/57/57
f 57/57/57 58/58/58 59/59/59
f 56/56/56 60/60/60 58/58/58
f 58/58/58 61/61/61 59/59/59
f 60/60/60 62/62/62 58/58/58
f 58/58/58 62/62/62 61/61/61
f 62/62/62 63/63/63 61/61/61
f 64/64/64 65/65/65 66/66/66
f 67/67/67 64/64/64 66/66/66
f 67/67/67 66/66/66 68/68/68
f 69/69/69 64/64/64 67/67/67
f 70/70/70 67/67/67 68/68/68
f 71/71/71 69/69/69 67/67/67
f 71/71/71 67/67/67 70/70/70
f 72/72/72 71/71/71 70/70/70
f 73/73/73 74/74/74 75/75/75
f 76/76/76 73/73/73 75/75/75
f 77/77/77 73/73/73 76/76/76
f 78/78/78 77/77/77 76/76/76
f 79/79/79 80/80/80 81/81/81
f 82/82/82 79/79/79 81/81/81
f 83/83/83 84/84/84 85/85/85
f 86/86/86 83/83/83 85/85/85
f 87/87/87 88/88/88 89/89/89
f 90/90/90 87/87/87 89/89/89
f 91/91/91 92/92/92 93/93/93
f 94/94/94 91/91/91 93/93/93
f 95/95/95 96/96/96 97/97/97
f 97/97/97 98/98/98 95/95/95
