# Walls of Bridge_Line_Cap_1, split on the measured deck plane (tools/split_prop_by_structure.py)
v -8.000000 48.000000 -16.000000
v -8.125000 48.000000 -14.750000
v -8.000001 0.000000 -8.000000
v -8.125000 -0.000004 -6.750000
v -8.000001 -48.000000 -0.000000
v -8.125000 -48.000004 1.250000
v 8.125000 48.000000 -14.750000
v 8.125000 0.000000 -6.750000
v 8.375000 48.000000 -14.750000
v 8.375000 -0.000004 -6.750000
v 8.125000 -48.000000 1.250000
v 8.375000 -48.000004 1.250000
v -8.375000 48.000000 -14.750000
v -8.375000 0.000000 -6.750000
v -8.125000 48.000000 -14.750000
v -8.125000 -0.000004 -6.750000
v -8.375000 -48.000000 1.250000
v -8.125000 -48.000004 1.250000
v -8.375000 0.000000 -6.750000
v -8.375000 48.000000 -14.750000
v -8.500000 48.000000 -16.000000
v -8.500000 0.000000 -8.000000
v -8.375000 -48.000000 1.250000
v -8.500000 -48.000000 -0.000000
v 8.500000 48.000000 -16.000000
v 8.375000 48.000000 -14.750000
v 8.500000 -0.000004 -8.000000
v 8.375000 -0.000004 -6.750000
v 8.500000 -48.000004 -0.000000
v 8.375000 -48.000004 1.250000
v 8.125000 0.000000 -6.750000
v 8.125000 48.000000 -14.750000
v 8.000001 48.000000 -16.000000
v 8.000000 -0.000004 -8.000000
v 8.125000 -48.000000 1.250000
v 8.000000 -48.000004 -0.000000
v -8.500000 48.000000 -16.000000
v -8.375000 48.000000 -14.750000
v -8.125000 48.000000 -14.750000
v -8.000000 48.000000 -16.000000
v 8.500000 48.000000 -16.000000
v 8.000001 48.000000 -16.000000
v 8.125000 48.000000 -14.750000
v 8.375000 48.000000 -14.750000
v -8.500000 48.000000 -16.000000
v -8.000000 48.000000 -16.000000
v 8.500000 48.000000 -16.000000
v 8.000001 48.000000 -16.000000
vt 0.995820999 0.0160489995
vt 0.995820999 0.0160489995
vt 0.995820999 0.0161589999
vt 0.995820999 0.0161589999
vt 0.995820999 0.0161589999
vt 0.995820999 0.0161589999
vt 0.995818019 0.0160489995
vt 0.995818019 0.0161589999
vt 0.995808005 0.0160489995
vt 0.995808005 0.0161589999
vt 0.995818019 0.0161589999
vt 0.995808005 0.0161589999
vt 0.995808005 0.0160489995
vt 0.995808005 0.0161589999
vt 0.995797992 0.0160489995
vt 0.995797992 0.0161589999
vt 0.995808005 0.0161589999
vt 0.995797992 0.0161589999
vt 0.995827973 0.0160489995
vt 0.995827973 0.0161589999
vt 0.995827973 0.0161589999
vt 0.995827973 0.0160489995
vt 0.995827973 0.0160489995
vt 0.995827973 0.0160489995
vt 0.995824993 0.0160489995
vt 0.995824993 0.0160489995
vt 0.995824993 0.0161589999
vt 0.995824993 0.0161589999
vt 0.995824993 0.0161589999
vt 0.995824993 0.0161589999
vt 0.995832026 0.0160489995
vt 0.995832026 0.0161589999
vt 0.995832026 0.0161589999
vt 0.995832026 0.0160489995
vt 0.995832026 0.0160489995
vt 0.995832026 0.0160489995
vt 0.991145015 0.0151829999
vt 0.995325983 0.0152500002
vt 0.995325983 0.0152500002
vt 0.995325983 0.0152500002
vt 0.991145015 0.0151829999
vt 0.995325983 0.0152500002
vt 0.995325983 0.0152500002
vt 0.995325983 0.0152500002
vt 0.995325983 0.0152500002
vt 0.991145015 0.0160879996
vt 0.995311022 0.0152500002
vt 0.991145015 0.0151829999
vn 0.994900 0.016582 0.099490
vn 0.994900 0.016582 0.099490
vn 0.994900 0.016582 0.099490
vn 0.994900 0.016582 0.099490
vn 0.994900 0.016582 0.099489
vn 0.994900 0.016582 0.099489
vn 0.000000 0.164399 0.986394
vn 0.000000 0.164399 0.986394
vn 0.000000 0.164399 0.986394
vn 0.000000 0.164399 0.986394
vn 0.000000 0.164399 0.986394
vn 0.000000 0.164399 0.986394
vn 0.000000 0.164399 0.986394
vn 0.000000 0.164399 0.986394
vn 0.000000 0.164399 0.986394
vn 0.000000 0.164399 0.986394
vn 0.000000 0.164399 0.986394
vn 0.000000 0.164399 0.986394
vn -0.994900 0.016582 0.099490
vn -0.994900 0.016582 0.099490
vn -0.998724 0.008301 0.049809
vn -0.998724 0.008301 0.049809
vn -0.994900 0.016582 0.099490
vn -0.998724 0.008301 0.049809
vn 0.998724 0.008301 0.049809
vn 0.994900 0.016582 0.099490
vn 0.998724 0.008301 0.049809
vn 0.994900 0.016582 0.099490
vn 0.998724 0.008301 0.049809
vn 0.994900 0.016582 0.099490
vn -0.994900 0.016582 0.099490
vn -0.994900 0.016582 0.099490
vn -0.994900 0.016582 0.099490
vn -0.994900 0.016582 0.099490
vn -0.994900 0.016582 0.099490
vn -0.994900 0.016582 0.099490
vn 0.000000 1.000000 0.000000
vn 0.000000 1.000000 0.000000
vn 0.000000 1.000000 0.000000
vn 0.000000 1.000000 0.000000
vn 0.000000 1.000000 0.000000
vn 0.000000 1.000000 0.000000
vn 0.000000 1.000000 0.000000
vn 0.000000 1.000000 0.000000
vn 0.000000 1.000000 0.000000
vn 0.000000 1.000000 0.000000
vn 0.000000 1.000000 0.000000
vn 0.000000 1.000000 0.000000
f 1/1/1 2/2/2 3/3/3
f 2/2/2 4/4/4 3/3/3
f 3/3/3 4/4/4 5/5/5
f 4/4/4 6/6/6 5/5/5
f 7/7/7 8/8/8 9/9/9
f 8/8/8 10/10/10 9/9/9
f 8/8/8 11/11/11 10/10/10
f 11/11/11 12/12/12 10/10/10
f 13/13/13 14/14/14 15/15/15
f 14/14/14 16/16/16 15/15/15
f 14/14/14 17/17/17 16/16/16
f 17/17/17 18/18/18 16/16/16
f 19/19/19 20/20/20 21/21/21
f 22/22/22 19/19/19 21/21/21
f 23/23/23 19/19/19 22/22/22
f 24/24/24 23/23/23 22/22/22
f 25/25/25 26/26/26 27/27/27
f 26/26/26 28/28/28 27/27/27
f 27/27/27 28/28/28 29/29/29
f 28/28/28 30/30/30 29/29/29
f 31/31/31 32/32/32 33/33/33
f 34/34/34 31/31/31 33/33/33
f 35/35/35 31/31/31 34/34/34
f 36/36/36 35/35/35 34/34/34
f 37/37/37 38/38/38 39/39/39
f 40/40/40 37/37/37 39/39/39
f 41/41/41 42/42/42 43/43/43
f 44/44/44 41/41/41 43/43/43
f 45/45/45 46/46/46 47/47/47
f 46/46/46 48/48/48 47/47/47
