# Surface of Bridge_Line_Cap_1, split on the measured deck plane (tools/split_prop_by_structure.py)
v -8.000000 48.000000 -16.000000
v -8.000001 0.000000 -8.000000
v 8.000000 -0.000004 -8.000000
v 8.000001 48.000000 -16.000000
v -8.000001 0.000000 -8.000000
v -8.000001 -48.000000 -0.000000
v 8.000000 -48.000004 -0.000000
v 8.000000 -0.000004 -8.000000
v -8.000000 50.000000 -17.000000
v -8.000000 48.000000 -16.000000
v 8.000001 48.000000 -16.000000
v 8.000001 50.000000 -17.000000
vt 1 0.215792
vt 1 0.98159498
vt 0 0.98159498
vt 0 0.215792
vt 1 0.215792
vt 1 0.98159498
vt 0 0.98159498
vt 0 0.215792
vt 1 0.215792
vt 1 0.215792
vt 0 0.215792
vt 0 0.215792
vn 0.000000 0.309244 0.950983
vn 0.000000 0.164399 0.986394
vn 0.000000 0.164399 0.986394
vn 0.000000 0.309244 0.950983
vn 0.000000 0.164399 0.986394
vn 0.000000 0.164399 0.986394
vn 0.000000 0.164399 0.986394
vn 0.000000 0.164399 0.986394
vn 0.000000 0.447214 0.894427
vn 0.000000 0.309244 0.950983
vn 0.000000 0.309244 0.950983
vn 0.000000 0.447214 0.894427
f 1/1/1 2/2/2 3/3/3
f 4/4/4 1/1/1 3/3/3
f 5/5/5 6/6/6 7/7/7
f 8/8/8 5/5/5 7/7/7
f 9/9/9 10/10/10 11/11/11
f 12/12/12 9/9/9 11/11/11
