# Underbelly of Bridge_Line_Cap_0, split on the measured deck plane (tools/split_prop_by_structure.py)
v 8.500000 24.000000 -1.000000
v 8.000001 26.000000 -1.000000
v 8.000001 24.000000 0.000000
v -8.500000 24.000004 -1.000000
v -8.000000 24.000004 0.000000
v -8.000000 26.000004 -1.000000
v -8.500000 24.000004 0.000000
v -8.500000 24.000004 -2.000000
v -8.500000 -24.000000 0.000000
v -8.500000 -24.000000 -2.000000
v -6.884999 3.000000 -6.000000
v -6.884999 -3.000000 -6.000000
v -7.304655 3.763847 -31.000000
v -7.304655 -3.763847 -31.000000
v 8.500000 -24.000004 0.000000
v 8.500000 -24.000004 -2.000000
v 8.500000 24.000000 0.000000
v 8.500000 24.000000 -2.000000
v 6.884999 -3.000000 -6.000000
v 6.884999 3.000000 -6.000000
v 7.304655 -3.763847 -31.000000
v 7.304655 3.763847 -31.000000
v 7.304655 3.763847 -31.000000
v -7.304655 3.763847 -31.000000
v -6.884999 3.000000 -6.000000
v 6.884999 3.000000 -6.000000
v 6.884999 -3.000000 -6.000000
v -6.884999 -3.000000 -6.000000
v -7.304655 -3.763847 -31.000000
v 7.304655 -3.763847 -31.000000
v 8.500000 -24.000004 -2.000000
v -8.500000 -24.000000 -2.000000
v -6.884999 -3.000000 -6.000000
v 6.884999 -3.000000 -6.000000
v 6.884999 3.000000 -6.000000
v -6.884999 3.000000 -6.000000
v -8.500000 24.000004 -2.000000
v 8.500000 24.000000 -2.000000
v 8.500000 24.000000 -2.000000
v -8.500000 24.000004 -2.000000
v -8.500000 24.000004 0.000000
v 8.500000 24.000000 0.000000
vt 0.869288206 0.456373781
vt 0.869288206 0.456373781
vt 0.869288206 0.421780914
vt 0.869288206 0.421780914
vt 0.927629232 0.456373781
vt 0.927629232 0.456373781
vt 0.992339611 0.0160842109
vt 0.992339611 0.0160842109
vt 0.992339611 0.016078921
vt 0.992339611 0.016078921
vt 0.992339611 0.0160842109
vt 0.992339611 0.016078921
vt 0.992339611 0.0160842109
vt 0.992339611 0.016078921
vt 0.992339432 0.0160842109
vt 0.992339432 0.0160842109
vt 0.992339432 0.016078921
vt 0.992339432 0.016078921
vt 0.992339432 0.0160842109
vt 0.992339432 0.016078921
vt 0.992339432 0.0160842109
vt 0.992339432 0.016078921
vt 0.991988063 0.0160766784
vt 0.992339611 0.0160842109
vt 0.991988063 0.0160766784
vt 0.992339432 0.016078921
vt 0.991988063 0.0160766784
vt 0.992339611 0.016078921
vt 0.991988063 0.0160766784
vt 0.992339432 0.0160842109
vt 0.991988063 0.0160766784
vt 0.992339611 0.016078921
vt 0.991988063 0.0160766784
vt 0.992339432 0.0160842109
vt 0.991988063 0.0160766784
vt 0.992339611 0.0160842109
vt 0.991988063 0.0160766784
vt 0.992339432 0.016078921
vt 0.995447278 0.0144680403
vt 0.995448947 0.0144680776
vt 0.995465696 0.0144679025
vt 0.995448947 0.0144680515
vn 0.872872 0.218218 0.436435
vn 0.872872 0.218218 0.436435
vn 0.872872 0.218218 0.436435
vn -0.872872 0.218218 0.436436
vn -0.872872 0.218218 0.436436
vn -0.872872 0.218218 0.436436
vn -0.998759 0.000000 0.049814
vn -0.981650 0.000000 -0.190693
vn -0.998759 0.000000 0.049814
vn -0.981650 0.000000 -0.190693
vn -0.983216 0.000000 -0.182448
vn -0.983216 0.000000 -0.182448
vn -0.999859 0.000000 0.016784
vn -0.999859 0.000000 0.016784
vn 0.998759 0.000000 0.049814
vn 0.981650 0.000000 -0.190693
vn 0.998759 0.000000 0.049814
vn 0.981650 0.000000 -0.190693
vn 0.983216 0.000000 -0.182448
vn 0.983216 0.000000 -0.182448
vn 0.999859 0.000000 0.016784
vn 0.999859 0.000000 0.016784
vn 0.000000 0.999534 0.030540
vn 0.000000 0.999534 0.030540
vn 0.000000 0.999534 0.030540
vn 0.000000 0.999534 0.030540
vn 0.000000 -0.999534 0.030540
vn 0.000000 -0.999534 0.030540
vn 0.000000 -0.999534 0.030540
vn 0.000000 -0.999534 0.030540
vn 0.000000 -0.187112 -0.982339
vn 0.000000 -0.187112 -0.982339
vn 0.000000 -0.187112 -0.982339
vn 0.000000 -0.187112 -0.982339
vn 0.000000 0.187112 -0.982339
vn 0.000000 0.187112 -0.982339
vn 0.000000 0.187112 -0.982339
vn 0.000000 0.187112 -0.982339
vn 0.000000 1.000000 0.000000
vn 0.000000 1.000000 0.000000
vn 0.000000 1.000000 0.000000
vn 0.000000 1.000000 0.000000
f 1/1/1 2/2/2 3/3/3
f 4/4/4 5/5/5 6/6/6
f 7/7/7 8/8/8 9/9/9
f 8/8/8 10/10/10 9/9/9
f 8/8/8 11/11/11 10/10/10
f 11/11/11 12/12/12 10/10/10
f 11/11/11 13/13/13 12/12/12
f 13/13/13 14/14/14 12/12/12
f 15/15/15 16/16/16 17/17/17
f 16/16/16 18/18/18 17/17/17
f 16/16/16 19/19/19 18/18/18
f 19/19/19 20/20/20 18/18/18
f 19/19/19 21/21/21 20/20/20
f 21/21/21 22/22/22 20/20/20
f 23/23/23 24/24/24 25/25/25
f 26/26/26 23/23/23 25/25/25
f 27/27/27 28/28/28 29/29/29
f 30/30/30 27/27/27 29/29/29
f 31/31/31 32/32/32 33/33/33
f 34/34/34 31/31/31 33/33/33
f 35/35/35 36/36/36 37/37/37
f 38/38/38 35/35/35 37/37/37
f 39/39/39 40/40/40 41/41/41
f 41/41/41 42/42/42 39/39/39
