v 6.500004 7.499998 3.750000
v 6.500004 7.999998 1.000000
v 6.500004 7.999998 3.750000
v 6.500004 7.499998 1.000000
v -7.999999 7.500000 5.750000
v -7.999999 8.000000 0.000000
v -7.999999 8.000000 5.750000
v -8.000003 -7.999997 5.750000
v -8.000001 -7.999998 -6.000000
v -7.999997 8.000003 -6.000000
v -2.250000 -7.500001 5.750000
v 7.500001 -7.500002 4.750000
v 7.500001 -7.500002 5.750000
v -7.500001 -7.500000 4.750000
v -7.500001 -7.500000 5.750000
v 2.250002 7.999999 1.000000
v 6.500004 7.499998 1.000000
v 2.250002 7.499999 1.000000
v 6.500004 7.999998 1.000000
v -2.250002 -7.999999 5.750000
v -8.000001 -7.999998 -6.000000
v -8.000003 -7.999997 5.750000
v 8.000000 -8.000000 -6.000000
v 7.999995 -8.000005 5.750000
v -1.249998 7.999999 2.750000
v -1.249998 7.499999 0.000000
v -1.249998 7.499999 2.750000
v -1.249998 7.999999 0.000000
v -6.499999 8.000000 1.000000
v -2.249998 7.499999 1.000000
v -6.499999 7.500000 1.000000
v -2.249998 7.999999 1.000000
v -6.499999 8.000000 1.000000
v -6.499999 7.500000 3.750000
v -6.499999 8.000000 3.750000
v -6.499999 7.500000 1.000000
v -7.500001 -7.500000 0.000000
v 7.500001 -7.500002 4.250000
v -7.500001 -7.500000 4.250000
v 7.500001 -7.500002 0.000000
v 7.500001 -7.500002 4.250000
v 7.500004 7.499998 0.000000
v 7.500004 7.499998 4.250000
v 7.500001 -7.500002 0.000000
v -7.499999 7.500000 4.250000
v -7.500001 -7.500000 0.000000
v -7.500001 -7.500000 4.250000
v -7.499999 7.500000 0.000000
v 0.999999 -4.000005 1.211444
v 0.999999 -1.499997 -0.038556
v 0.999999 -4.000005 -0.038556
v 0.999999 -1.499997 1.211444
v 8.000000 -8.000000 -6.000000
v 8.000004 7.999996 5.750000
v 8.000000 8.000000 -6.000000
v 7.999995 -8.000005 5.750000
v 0.999999 -1.499997 1.211444
v -7.500001 -1.499997 -0.038556
v 0.999999 -1.499997 -0.038556
v -7.500001 -1.499997 1.211444
v 2.250002 7.999999 3.750000
v 2.250002 7.499999 1.000000
v 2.250002 7.499999 3.750000
v 2.250002 7.999999 1.000000
v 7.500004 7.499998 5.750000
v -7.499999 7.500000 4.750000
v -7.499999 7.500000 5.750000
v 7.500004 7.499998 4.750000
v 7.500001 -7.500002 4.750000
v 7.500004 7.499998 5.750000
v 7.500001 -7.500002 5.750000
v 7.500004 7.499998 4.750000
v 7.500004 7.499998 4.750000
v -7.500001 -7.500000 4.750000
v -7.499999 7.500000 4.750000
v 7.500001 -7.500002 4.750000
v -7.500001 -7.500000 4.250000
v 7.500004 7.499998 4.250000
v -7.499999 7.500000 4.250000
v 7.500001 -7.500002 4.250000
v 1.250002 7.499999 2.750000
v 1.250002 7.999999 0.000000
v 1.250002 7.999999 2.750000
v 1.250002 7.499999 0.000000
v -7.499999 7.500000 4.750000
v -7.500001 -7.500000 5.750000
v -7.499999 7.500000 5.750000
v -7.500001 -7.500000 4.750000
v -1.249998 7.499999 2.750000
v 1.250002 7.999999 2.750000
v -1.249998 7.999999 2.750000
v 1.250002 7.499999 2.750000
v -6.499999 7.500000 3.750000
v -2.249998 7.999999 3.750000
v -6.499999 8.000000 3.750000
v -2.249998 7.499999 3.750000
v 2.250002 7.999999 3.750000
v 6.500004 7.499998 3.750000
v 6.500004 7.999998 3.750000
v 2.250002 7.499999 3.750000
v 0.500000 -7.500000 1.211444
v 0.999998 -6.499991 1.211444
v 1.000000 -7.499999 1.211444
v 0.499998 -6.499992 1.211444
v 0.999998 -6.499991 -0.038556
v 0.499998 -6.499992 1.211444
v 0.499998 -6.499992 -0.038556
v 0.999998 -6.499991 1.211444
v 0.500000 -7.500000 1.211444
v 0.499998 -6.499992 -0.038556
v 0.499998 -6.499992 1.211444
v 0.500000 -7.500000 -0.038556
v 1.000000 -7.499999 -0.038556
v 0.999998 -6.499991 1.211444
v 0.999998 -6.499991 -0.038556
v 1.000000 -7.499999 1.211444
v -7.500001 -1.999997 1.211444
v 0.499999 -1.999997 -0.038556
v -7.500001 -1.999997 -0.038556
v 0.499999 -1.999997 1.211444
v 0.499999 -4.000005 -0.038556
v 0.999999 -4.000005 1.211444
v 0.999999 -4.000005 -0.038556
v 0.499999 -4.000005 1.211444
v 0.499999 -1.999997 -0.038556
v 0.499999 -4.000005 1.211444
v 0.499999 -4.000005 -0.038556
v 0.499999 -1.999997 1.211444
v -1.249998 7.499999 0.000000
v -7.500001 -7.500000 0.000000
v -7.499999 7.500000 0.000000
v 7.500001 -7.500002 0.000000
v 1.250002 7.499999 0.000000
v 1.250002 7.999999 0.000000
v -1.249998 7.999999 0.000000
v 6.500004 7.499998 0.000000
v 7.500004 7.499998 0.000000
v -2.249998 7.499999 2.750000
v -2.249998 7.999999 3.750000
v -2.249998 7.499999 3.750000
v -2.249998 7.999999 1.000000
v -2.249998 7.499999 1.000000
v 0.499999 -1.999997 1.211444
v 0.999999 -4.000005 1.211444
v 0.499999 -4.000005 1.211444
v 0.999999 -1.499997 1.211444
v -7.500001 -1.499997 1.211444
v -7.500001 -1.999997 1.211444
v 6.500004 7.499998 0.000000
v 6.500004 7.499998 1.000000
v 7.500004 7.499998 0.000000
v 7.500004 7.499998 4.250000
v 6.500004 7.499998 3.750000
v 2.250002 7.499999 1.000000
v 1.250002 7.499999 0.000000
v 1.250002 7.499999 2.750000
v 2.250002 7.499999 3.750000
v -7.499999 7.500000 4.250000
v -1.249998 7.499999 2.750000
v -2.249998 7.499999 3.750000
v -6.499999 7.500000 3.750000
v -2.249998 7.499999 2.750000
v -6.499999 7.500000 1.000000
v -7.499999 7.500000 0.000000
v -2.249998 7.499999 1.000000
v -1.249998 7.499999 0.000000
v 8.000004 7.999996 5.750000
v 7.500004 7.499998 5.750000
v 2.250002 7.999999 5.750000
v -2.249998 7.999999 5.750000
v 7.500001 -7.500002 5.750000
v 7.999995 -8.000005 5.750000
v -7.499999 7.500000 5.750000
v -2.250002 -7.999999 5.750000
v -2.250000 -7.500001 5.750000
v -6.499999 8.000000 5.750000
v -7.999999 8.000000 5.750000
v -7.999999 7.500000 5.750000
v -7.500001 -7.500000 5.750000
v -8.000003 -7.999997 5.750000
v -7.999999 8.000000 0.000000
v -6.499999 8.000000 3.750000
v -7.999999 8.000000 5.750000
v -6.499999 8.000000 5.750000
v -2.249998 7.999999 5.750000
v -6.499999 8.000000 1.000000
v -2.249998 7.999999 3.750000
v -1.249998 7.999999 0.000000
v -7.999997 8.000003 -6.000000
v -2.249998 7.999999 1.000000
v 8.000000 8.000000 -6.000000
v -1.249998 7.999999 2.750000
v 2.250002 7.999999 5.750000
v 1.250002 7.999999 0.000000
v 1.250002 7.999999 2.750000
v 6.500004 7.999998 1.000000
v 8.000004 7.999996 5.750000
v 2.250002 7.999999 1.000000
v 6.500004 7.999998 3.750000
v 2.250002 7.999999 3.750000
vt 0.587682128 0.759776115
vt 0.586820185 0.755310059
vt 0.586820185 0.759776115
vt 0.587682128 0.755310059
vt 0.134902358 0.773876905
vt 0.124990344 0.7746889
vt 0.134902358 0.7746889
vt 0.134902358 0.748704493
vt 0.114647388 0.748704493
vt 0.114647388 0.7746889
vt 0.134902358 0.738554358
vt 0.136626184 0.722720146
vt 0.134902358 0.722720146
vt 0.136626184 0.747080445
vt 0.134902358 0.747080445
vt 0.586820185 0.7577461
vt 0.585958302 0.750844002
vt 0.585958302 0.7577461
vt 0.586820185 0.750844002
vt 0.0943924785 0.756418586
vt 0.114647388 0.747080505
vt 0.0943924785 0.747080445
vt 0.114647388 0.773064852
vt 0.0943924785 0.773064852
vt 0.588974953 0.759776115
vt 0.58811307 0.755310059
vt 0.58811307 0.759776115
vt 0.588974953 0.755310059
vt 0.589836895 0.7577461
vt 0.588974953 0.750844002
vt 0.588974953 0.7577461
vt 0.589836895 0.750844002
vt 0.589836895 0.762212157
vt 0.590698838 0.7577461
vt 0.589836895 0.7577461
vt 0.590698779 0.762212157
vt 0.825178683 0.781697571
vt 0.817852437 0.757337213
vt 0.817852437 0.781697571
vt 0.825178683 0.757337213
vt 0.867412388 0.707804441
vt 0.860086143 0.73216486
vt 0.867412388 0.73216486
vt 0.860086143 0.707804441
vt 0.845433593 0.73216486
vt 0.852759898 0.707804441
vt 0.845433593 0.707804441
vt 0.852759898 0.73216486
vt 0.140352398 0.699351609
vt 0.160962015 0.729659975
vt 0.160962015 0.699351549
vt 0.140352398 0.729660034
vt 0.114647388 0.748704493
vt 0.134902358 0.722720146
vt 0.114647388 0.722720146
vt 0.134902358 0.748704493
vt 0.0991331339 0.699351549
vt 0.119742781 0.802399814
vt 0.119742721 0.699351549
vt 0.0991331339 0.802399814
vt 0.589836895 0.762212157
vt 0.588974953 0.7577461
vt 0.588974953 0.762212157
vt 0.589836895 0.7577461
vt 0.0870662332 0.747892499
vt 0.0887900293 0.72353214
vt 0.0870662332 0.72353214
vt 0.0887900591 0.747892499
vt 0.136626184 0.722720146
vt 0.13835001 0.747080445
vt 0.13835001 0.722720146
vt 0.136626184 0.747080445
vt 0.348520219 0.782498181
vt 0.374377549 0.758137882
vt 0.348520219 0.758137882
vt 0.374377549 0.782498181
vt 0.32318455 0.190653265
vt 0.297327161 0.166292906
vt 0.29732722 0.190653265
vt 0.32318455 0.166292906
vt 0.588974953 0.755310059
vt 0.58811307 0.750844002
vt 0.58811307 0.755310059
vt 0.588974953 0.750844002
vt 0.136626184 0.698359728
vt 0.13835001 0.722720146
vt 0.13835001 0.698359728
vt 0.136626184 0.722720146
vt 0.585958302 0.7577461
vt 0.586820185 0.76180613
vt 0.586820185 0.7577461
vt 0.585958302 0.76180613
vt 0.590698838 0.7577461
vt 0.589836895 0.750844002
vt 0.589836895 0.7577461
vt 0.590698779 0.750844002
vt 0.585096359 0.7577461
vt 0.585958302 0.750844002
vt 0.585096359 0.750844002
vt 0.585958302 0.7577461
vt 0.154092222 0.772091746
vt 0.160962135 0.784215152
vt 0.160962135 0.772091746
vt 0.154092222 0.784215152
vt 0.154092222 0.753906727
vt 0.160962135 0.772091746
vt 0.160962135 0.753906727
vt 0.154092222 0.772091746
vt 0.154092222 0.772091746
vt 0.140352398 0.753906727
vt 0.140352398 0.772091746
vt 0.154092222 0.753906727
vt 0.140352398 0.772091746
vt 0.154092222 0.790276706
vt 0.154092222 0.772091687
vt 0.140352398 0.790276706
vt 0.119742781 0.699351549
vt 0.140352398 0.796338201
vt 0.140352398 0.699351549
vt 0.119742781 0.796338201
vt 0.160962015 0.735721707
vt 0.167831868 0.753906727
vt 0.167831868 0.735721707
vt 0.160962015 0.753906727
vt 0.140352398 0.753906727
vt 0.160962015 0.729660034
vt 0.140352398 0.729660034
vt 0.160962015 0.753906727
vt 0.115679406 0.21903953
vt 0.12645331 0.243399948
vt 0.12645331 0.21903953
vt 0.100595973 0.243399948
vt 0.111369871 0.21903953
vt 0.111369871 0.218227535
vt 0.115679406 0.218227535
vt 0.10231977 0.21903953
vt 0.100595973 0.21903953
vt 0.586820185 0.75246799
vt 0.587682128 0.750844002
vt 0.586820185 0.750844002
vt 0.587682128 0.755310059
vt 0.586820185 0.755310059
vt 0.0716535151 0.796338141
vt 0.0991331339 0.802399814
vt 0.0991331339 0.796338141
vt 0.0647836626 0.802399814
vt 0.0647836328 0.699351549
vt 0.0716535151 0.699351609
vt 0.860086143 0.730540812
vt 0.858362317 0.730540812
vt 0.860086143 0.73216486
vt 0.852759898 0.73216486
vt 0.853621781 0.730540812
vt 0.858362317 0.723638713
vt 0.860086143 0.722014666
vt 0.855345607 0.722014666
vt 0.853621781 0.723638713
vt 0.852759898 0.707804441
vt 0.855345607 0.717954576
vt 0.853621781 0.716330588
vt 0.853621781 0.709428489
vt 0.855345607 0.716330588
vt 0.858362317 0.709428489
vt 0.860086143 0.707804441
vt 0.858362317 0.716330588
vt 0.860086143 0.717954576
vt 0.0887900591 0.697547734
vt 0.0879281461 0.698359728
vt 0.0887900591 0.706885874
vt 0.0887900591 0.714194
vt 0.062070787 0.698359728
vt 0.0612088442 0.697547793
vt 0.0879281461 0.722720146
vt 0.061208874 0.714194
vt 0.062070787 0.714194
vt 0.0887900591 0.721096098
vt 0.0887900591 0.72353214
vt 0.0879281461 0.72353214
vt 0.062070787 0.722720146
vt 0.061208874 0.72353214
vt 0.0767232776 0.773876905
vt 0.0702589452 0.771440864
vt 0.0668112934 0.773876905
vt 0.0668112934 0.771440864
vt 0.0668112934 0.764538765
vt 0.0749994516 0.771440864
vt 0.0702589452 0.764538765
vt 0.0767232776 0.762914717
vt 0.0870662332 0.773876905
vt 0.0749994516 0.764538765
vt 0.0870662034 0.747892499
vt 0.071982801 0.762914717
vt 0.0668112934 0.757230639
vt 0.0767232776 0.758854628
vt 0.0719827712 0.758854628
vt 0.0749994516 0.750328541
vt 0.0668112934 0.747892499
vt 0.0749994516 0.757230639
vt 0.0702589452 0.750328541
vt 0.0702589452 0.757230639
vn -1.000000 0.000000 0.000000
vn -1.000000 0.000000 0.000000
vn -1.000000 0.000000 0.000000
vn -1.000000 0.000000 0.000000
vn -1.000000 0.000000 0.000000
vn -1.000000 0.000000 0.000000
vn -1.000000 0.000000 0.000000
vn -1.000000 0.000000 0.000000
vn -1.000000 0.000000 0.000000
vn -1.000000 0.000000 0.000000
vn 0.000000 1.000000 0.000000
vn 0.000000 1.000000 0.000000
vn 0.000000 1.000000 0.000000
vn 0.000000 1.000000 0.000000
vn 0.000000 1.000000 0.000000
vn 0.000000 -0.000000 1.000000
vn 0.000000 -0.000000 1.000000
vn 0.000000 -0.000000 1.000000
vn 0.000000 -0.000000 1.000000
vn 0.000000 -1.000000 -0.000000
vn 0.000000 -1.000000 -0.000000
vn 0.000000 -1.000000 -0.000000
vn 0.000000 -1.000000 -0.000000
vn 0.000000 -1.000000 -0.000000
vn 1.000000 0.000000 0.000000
vn 1.000000 0.000000 0.000000
vn 1.000000 0.000000 0.000000
vn 1.000000 0.000000 0.000000
vn 0.000000 -0.000000 1.000000
vn 0.000000 -0.000000 1.000000
vn 0.000000 -0.000000 1.000000
vn 0.000000 -0.000000 1.000000
vn 1.000000 0.000000 0.000000
vn 1.000000 0.000000 0.000000
vn 1.000000 0.000000 0.000000
vn 1.000000 0.000000 0.000000
vn 0.000000 1.000000 0.000000
vn 0.000000 1.000000 0.000000
vn 0.000000 1.000000 0.000000
vn 0.000000 1.000000 0.000000
vn -1.000000 0.000000 0.000000
vn -1.000000 0.000000 0.000000
vn -1.000000 0.000000 0.000000
vn -1.000000 0.000000 0.000000
vn 1.000000 0.000000 0.000000
vn 1.000000 0.000000 0.000000
vn 1.000000 0.000000 0.000000
vn 1.000000 0.000000 0.000000
vn 1.000000 0.000000 0.000000
vn 1.000000 0.000000 0.000000
vn 1.000000 0.000000 0.000000
vn 1.000000 0.000000 0.000000
vn 1.000000 0.000000 0.000000
vn 1.000000 0.000000 0.000000
vn 1.000000 0.000000 0.000000
vn 1.000000 0.000000 0.000000
vn 0.000000 1.000000 0.000000
vn 0.000000 1.000000 0.000000
vn 0.000000 1.000000 0.000000
vn 0.000000 1.000000 0.000000
vn 1.000000 0.000000 0.000000
vn 1.000000 0.000000 0.000000
vn 1.000000 0.000000 0.000000
vn 1.000000 0.000000 0.000000
vn 0.000000 -1.000000 -0.000000
vn 0.000000 -1.000000 -0.000000
vn 0.000000 -1.000000 -0.000000
vn 0.000000 -1.000000 -0.000000
vn -1.000000 0.000000 0.000000
vn -1.000000 0.000000 0.000000
vn -1.000000 0.000000 0.000000
vn -1.000000 0.000000 0.000000
vn 0.000000 -0.000000 1.000000
vn 0.000000 -0.000000 1.000000
vn 0.000000 -0.000000 1.000000
vn 0.000000 -0.000000 1.000000
vn 0.000000 0.000000 -1.000000
vn 0.000000 0.000000 -1.000000
vn 0.000000 0.000000 -1.000000
vn 0.000000 0.000000 -1.000000
vn -1.000000 0.000000 0.000000
vn -1.000000 0.000000 0.000000
vn -1.000000 0.000000 0.000000
vn -1.000000 0.000000 0.000000
vn 1.000000 0.000000 0.000000
vn 1.000000 0.000000 0.000000
vn 1.000000 0.000000 0.000000
vn 1.000000 0.000000 0.000000
vn 0.000000 0.000000 -1.000000
vn 0.000000 0.000000 -1.000000
vn 0.000000 0.000000 -1.000000
vn 0.000000 0.000000 -1.000000
vn 0.000000 0.000000 -1.000000
vn 0.000000 0.000000 -1.000000
vn 0.000000 0.000000 -1.000000
vn 0.000000 0.000000 -1.000000
vn 0.000000 0.000000 -1.000000
vn 0.000000 0.000000 -1.000000
vn 0.000000 0.000000 -1.000000
vn 0.000000 0.000000 -1.000000
vn 0.000000 -0.000000 1.000000
vn 0.000000 -0.000000 1.000000
vn 0.000000 -0.000000 1.000000
vn 0.000000 -0.000000 1.000000
vn 0.000000 1.000000 0.000000
vn 0.000000 1.000000 0.000000
vn 0.000000 1.000000 0.000000
vn 0.000000 1.000000 0.000000
vn -1.000000 0.000000 0.000000
vn -1.000000 0.000000 0.000000
vn -1.000000 0.000000 0.000000
vn -1.000000 0.000000 0.000000
vn 1.000000 0.000000 0.000000
vn 1.000000 0.000000 0.000000
vn 1.000000 0.000000 0.000000
vn 1.000000 0.000000 0.000000
vn 0.000000 -1.000000 -0.000000
vn 0.000000 -1.000000 -0.000000
vn 0.000000 -1.000000 -0.000000
vn 0.000000 -1.000000 -0.000000
vn 0.000000 -1.000000 -0.000000
vn 0.000000 -1.000000 -0.000000
vn 0.000000 -1.000000 -0.000000
vn 0.000000 -1.000000 -0.000000
vn -1.000000 0.000000 0.000000
vn -1.000000 0.000000 0.000000
vn -1.000000 0.000000 0.000000
vn -1.000000 0.000000 0.000000
vn 0.000000 -0.000000 1.000000
vn 0.000000 -0.000000 1.000000
vn 0.000000 -0.000000 1.000000
vn 0.000000 -0.000000 1.000000
vn 0.000000 -0.000000 1.000000
vn 0.000000 -0.000000 1.000000
vn 0.000000 -0.000000 1.000000
vn 0.000000 -0.000000 1.000000
vn 0.000000 -0.000000 1.000000
vn -1.000000 0.000000 0.000000
vn -1.000000 0.000000 0.000000
vn -1.000000 0.000000 0.000000
vn -1.000000 0.000000 0.000000
vn -1.000000 0.000000 0.000000
vn 0.000000 -0.000000 1.000000
vn 0.000000 -0.000000 1.000000
vn 0.000000 -0.000000 1.000000
vn 0.000000 -0.000000 1.000000
vn 0.000000 -0.000000 1.000000
vn 0.000000 -0.000000 1.000000
vn 0.000000 -1.000000 -0.000000
vn 0.000000 -1.000000 -0.000000
vn 0.000000 -1.000000 -0.000000
vn 0.000000 -1.000000 -0.000000
vn 0.000000 -1.000000 -0.000000
vn 0.000000 -1.000000 -0.000000
vn 0.000000 -1.000000 -0.000000
vn 0.000000 -1.000000 -0.000000
vn 0.000000 -1.000000 -0.000000
vn 0.000000 -1.000000 -0.000000
vn 0.000000 -1.000000 -0.000000
vn 0.000000 -1.000000 -0.000000
vn 0.000000 -1.000000 -0.000000
vn 0.000000 -1.000000 -0.000000
vn 0.000000 -1.000000 -0.000000
vn 0.000000 -1.000000 -0.000000
vn 0.000000 -1.000000 -0.000000
vn 0.000000 -1.000000 -0.000000
vn 0.000000 -0.000000 1.000000
vn 0.000000 -0.000000 1.000000
vn 0.000000 -0.000000 1.000000
vn 0.000000 -0.000000 1.000000
vn 0.000000 -0.000000 1.000000
vn 0.000000 -0.000000 1.000000
vn 0.000000 -0.000000 1.000000
vn 0.000000 -0.000000 1.000000
vn 0.000000 -0.000000 1.000000
vn 0.000000 -0.000000 1.000000
vn 0.000000 -0.000000 1.000000
vn 0.000000 -0.000000 1.000000
vn 0.000000 -0.000000 1.000000
vn 0.000000 -0.000000 1.000000
vn 0.000000 1.000000 0.000000
vn 0.000000 1.000000 0.000000
vn 0.000000 1.000000 0.000000
vn 0.000000 1.000000 0.000000
vn 0.000000 1.000000 0.000000
vn 0.000000 1.000000 0.000000
vn 0.000000 1.000000 0.000000
vn 0.000000 1.000000 0.000000
vn 0.000000 1.000000 0.000000
vn 0.000000 1.000000 0.000000
vn 0.000000 1.000000 0.000000
vn 0.000000 1.000000 0.000000
vn 0.000000 1.000000 0.000000
vn 0.000000 1.000000 0.000000
vn 0.000000 1.000000 0.000000
vn 0.000000 1.000000 0.000000
vn 0.000000 1.000000 0.000000
vn 0.000000 1.000000 0.000000
vn 0.000000 1.000000 0.000000
vn 0.000000 1.000000 0.000000
f 3/3/3 2/2/2 1/1/1
f 1/1/1 2/2/2 4/4/4
f 7/7/7 6/6/6 5/5/5
f 5/5/5 6/6/6 8/8/8
f 9/9/9 8/8/8 6/6/6
f 9/9/9 6/6/6 10/10/10
f 13/13/13 12/12/12 11/11/11
f 14/14/14 11/11/11 12/12/12
f 11/11/11 14/14/14 15/15/15
f 18/18/18 17/17/17 16/16/16
f 16/16/16 17/17/17 19/19/19
f 22/22/22 21/21/21 20/20/20
f 23/23/23 20/20/20 21/21/21
f 20/20/20 23/23/23 24/24/24
f 27/27/27 26/26/26 25/25/25
f 25/25/25 26/26/26 28/28/28
f 31/31/31 30/30/30 29/29/29
f 29/29/29 30/30/30 32/32/32
f 35/35/35 34/34/34 33/33/33
f 33/33/33 34/34/34 36/36/36
f 39/39/39 38/38/38 37/37/37
f 37/37/37 38/38/38 40/40/40
f 43/43/43 42/42/42 41/41/41
f 41/41/41 42/42/42 44/44/44
f 47/47/47 46/46/46 45/45/45
f 45/45/45 46/46/46 48/48/48
f 51/51/51 50/50/50 49/49/49
f 49/49/49 50/50/50 52/52/52
f 55/55/55 54/54/54 53/53/53
f 53/53/53 54/54/54 56/56/56
f 59/59/59 58/58/58 57/57/57
f 57/57/57 58/58/58 60/60/60
f 63/63/63 62/62/62 61/61/61
f 61/61/61 62/62/62 64/64/64
f 67/67/67 66/66/66 65/65/65
f 65/65/65 66/66/66 68/68/68
f 71/71/71 70/70/70 69/69/69
f 69/69/69 70/70/70 72/72/72
f 75/75/75 74/74/74 73/73/73
f 73/73/73 74/74/74 76/76/76
f 79/79/79 78/78/78 77/77/77
f 77/77/77 78/78/78 80/80/80
f 83/83/83 82/82/82 81/81/81
f 81/81/81 82/82/82 84/84/84
f 87/87/87 86/86/86 85/85/85
f 85/85/85 86/86/86 88/88/88
f 91/91/91 90/90/90 89/89/89
f 89/89/89 90/90/90 92/92/92
f 95/95/95 94/94/94 93/93/93
f 93/93/93 94/94/94 96/96/96
f 99/99/99 98/98/98 97/97/97
f 97/97/97 98/98/98 100/100/100
f 103/103/103 102/102/102 101/101/101
f 101/101/101 102/102/102 104/104/104
f 107/107/107 106/106/106 105/105/105
f 105/105/105 106/106/106 108/108/108
f 111/111/111 110/110/110 109/109/109
f 109/109/109 110/110/110 112/112/112
f 115/115/115 114/114/114 113/113/113
f 113/113/113 114/114/114 116/116/116
f 119/119/119 118/118/118 117/117/117
f 117/117/117 118/118/118 120/120/120
f 123/123/123 122/122/122 121/121/121
f 121/121/121 122/122/122 124/124/124
f 127/127/127 126/126/126 125/125/125
f 125/125/125 126/126/126 128/128/128
f 131/131/131 130/130/130 129/129/129
f 130/130/130 132/132/132 129/129/129
f 132/132/132 133/133/133 129/129/129
f 134/134/134 129/129/129 133/133/133
f 135/135/135 129/129/129 134/134/134
f 136/136/136 133/133/133 132/132/132
f 137/137/137 136/136/136 132/132/132
f 140/140/140 139/139/139 138/138/138
f 139/139/139 141/141/141 138/138/138
f 142/142/142 138/138/138 141/141/141
f 145/145/145 144/144/144 143/143/143
f 144/144/144 146/146/146 143/143/143
f 146/146/146 147/147/147 143/143/143
f 148/148/148 143/143/143 147/147/147
f 151/151/151 150/150/150 149/149/149
f 151/151/151 152/152/152 150/150/150
f 150/150/150 152/152/152 153/153/153
f 150/150/150 154/154/154 149/149/149
f 149/149/149 154/154/154 155/155/155
f 154/154/154 156/156/156 155/155/155
f 152/152/152 157/157/157 153/153/153
f 156/156/156 154/154/154 157/157/157
f 152/152/152 158/158/158 157/157/157
f 159/159/159 156/156/156 157/157/157
f 157/157/157 158/158/158 160/160/160
f 160/160/160 159/159/159 157/157/157
f 160/160/160 158/158/158 161/161/161
f 162/162/162 159/159/159 160/160/160
f 163/163/163 161/161/161 158/158/158
f 164/164/164 163/163/163 158/158/158
f 162/162/162 165/165/165 159/159/159
f 165/165/165 163/163/163 164/164/164
f 159/159/159 165/165/165 166/166/166
f 166/166/166 165/165/165 164/164/164
f 169/169/169 168/168/168 167/167/167
f 170/170/170 168/168/168 169/169/169
f 171/171/171 167/167/167 168/168/168
f 172/172/172 167/167/167 171/171/171
f 173/173/173 168/168/168 170/170/170
f 174/174/174 172/172/172 171/171/171
f 175/175/175 174/174/174 171/171/171
f 173/173/173 170/170/170 176/176/176
f 173/173/173 176/176/176 177/177/177
f 178/178/178 173/173/173 177/177/177
f 175/175/175 179/179/179 174/174/174
f 178/178/178 179/179/179 173/173/173
f 174/174/174 179/179/179 180/180/180
f 179/179/179 178/178/178 180/180/180
f 183/183/183 182/182/182 181/181/181
f 184/184/184 182/182/182 183/183/183
f 184/184/184 185/185/185 182/182/182
f 182/182/182 186/186/186 181/181/181
f 182/182/182 185/185/185 187/187/187
f 181/181/181 186/186/186 188/188/188
f 181/181/181 188/188/188 189/189/189
f 186/186/186 190/190/190 188/188/188
f 189/189/189 188/188/188 191/191/191
f 185/185/185 192/192/192 187/187/187
f 190/190/190 187/187/187 192/192/192
f 188/188/188 190/190/190 192/192/192
f 193/193/193 192/192/192 185/185/185
f 188/188/188 194/194/194 191/191/191
f 195/195/195 192/192/192 193/193/193
f 194/194/194 196/196/196 191/191/191
f 196/196/196 197/197/197 191/191/191
f 196/196/196 194/194/194 198/198/198
f 194/194/194 195/195/195 198/198/198
f 197/197/197 196/196/196 199/199/199
f 193/193/193 197/197/197 199/199/199
f 198/198/198 195/195/195 200/200/200
f 193/193/193 199/199/199 200/200/200
f 195/195/195 193/193/193 200/200/200
