g Model_0
v 0.613764 0.233709 -1.063070
v 0.000000 0.233710 -1.227527
v -0.613764 0.233710 -1.063070
v -1.063071 0.233709 -0.613763
v 1.063071 0.233709 -0.613763
v -1.227529 0.233707 0.000001
v 1.227529 0.233707 0.000001
v -1.063072 0.233706 0.613765
v 1.063071 0.233706 0.613766
v -0.613765 0.233705 1.063073
v 0.613764 0.233705 1.063073
v -0.000000 0.233705 1.227530
v -1.558845 0.250002 -0.899997
v -1.371784 0.250002 -0.791997
v -1.584000 0.250000 0.000002
v -1.800000 0.250000 0.000003
v -0.900000 0.250002 -1.558842
v -1.371785 0.249999 0.792002
v -1.558846 0.249999 0.900002
v -0.792000 0.250002 -1.371781
v 0.000000 0.250002 -1.799996
v -0.792001 0.249997 1.371787
v -0.900001 0.249997 1.558849
v 0.000000 0.250002 -1.583997
v 0.900000 0.250002 -1.558842
v 0.000000 0.249997 1.584003
v 0.000000 0.249997 1.800003
v 0.792000 0.250002 -1.371781
v 1.558846 0.250002 -0.899997
v 0.792000 0.249997 1.371787
v 0.900000 0.249997 1.558849
v 1.371784 0.250002 -0.791997
v 1.800000 0.250000 0.000003
v 1.371784 0.249999 0.792003
v 1.558846 0.249999 0.900003
v 1.584000 0.250000 0.000003
v -0.000000 0.874997 0.934523
v 0.467260 0.874997 0.809321
v 0.809318 0.874999 0.467263
v 0.934520 0.875000 0.000003
v 0.809318 0.875002 -0.467257
v 0.467260 0.875002 -0.809316
v -0.467261 0.874997 0.809321
v 0.000000 0.875002 -0.934518
v -0.809319 0.874999 0.467263
v -0.467260 0.875002 -0.809316
v -0.934521 0.875000 0.000003
v -0.809318 0.875002 -0.467258
v 0.375583 0.875002 -0.650526
v 0.000000 0.875002 -0.751163
v -0.375583 0.875002 -0.650526
v -0.650529 0.875002 -0.375580
v -0.751166 0.875000 0.000003
v -0.650529 0.874999 0.375586
v 0.650529 0.875002 -0.375580
v -0.375584 0.874997 0.650532
v 0.751166 0.875000 0.000003
v -0.000000 0.874997 0.751169
v 0.650529 0.874999 0.375586
v 0.375583 0.874997 0.650532
v -0.229918 1.124999 0.132746
v -0.132743 1.124997 0.229921
v -0.000000 1.124997 0.265489
v 0.132743 1.124997 0.229921
v 0.229918 1.124999 0.132746
v 0.265486 1.125000 0.000003
v -0.265486 1.125000 0.000003
v 0.229918 1.125002 -0.132740
v -0.229918 1.125002 -0.132740
v 0.132743 1.125002 -0.229915
v -0.132743 1.125002 -0.229915
v -0.000000 1.125002 -0.265483
v 0.000000 -1.249998 -1.599998
v 0.613764 0.233709 -1.063070
v 0.800000 -1.249998 -1.385639
v 0.000000 0.233710 -1.227527
v 1.063071 0.233709 -0.613763
v -0.800000 -1.249998 -1.385639
v 1.385640 -1.249998 -0.799998
v -0.613764 0.233710 -1.063070
v 1.227529 0.233707 0.000001
v -1.385640 -1.249998 -0.799999
v 1.600000 -1.250000 0.000002
v -1.063071 0.233709 -0.613763
v 1.063071 0.233706 0.613766
v -1.600000 -1.250000 0.000001
v 1.385640 -1.250001 0.800002
v -1.227529 0.233707 0.000001
v 0.613764 0.233705 1.063073
v -1.385641 -1.250001 0.800001
v 0.800000 -1.250003 1.385642
v -1.063072 0.233706 0.613765
v -0.000000 0.233705 1.227530
v -0.800001 -1.250003 1.385642
v -0.000000 -1.250003 1.600002
v -0.613765 0.233705 1.063073
v 0.000000 -1.249998 -1.999998
v 0.000000 0.250002 -1.799996
v -0.900000 0.250002 -1.558842
v -1.000000 -1.249998 -1.732049
v 1.000000 -1.249998 -1.732049
v -1.558845 0.250002 -0.899997
v 0.900000 0.250002 -1.558842
v -1.732050 -1.249998 -0.999999
v 1.732051 -1.249998 -0.999998
v -1.800000 0.250000 0.000003
v 1.558846 0.250002 -0.899997
v -2.000000 -1.250000 0.000001
v 2.000000 -1.250000 0.000002
v -1.558846 0.249999 0.900002
v 1.800000 0.250000 0.000003
v -1.732051 -1.250001 1.000001
v 1.732051 -1.250001 1.000002
v -0.900001 0.249997 1.558849
v 1.558846 0.249999 0.900003
v -1.000001 -1.250003 1.732052
v 1.000000 -1.250003 1.732053
v 0.000000 0.249997 1.800003
v 0.900000 0.249997 1.558849
v 0.000000 -1.250003 2.000002
v -1.732051 -1.250001 1.000001
v -1.000001 -1.250003 1.732052
v -0.800001 -1.250003 1.385642
v -1.385641 -1.250001 0.800001
v -0.000000 -1.250003 1.600002
v -2.000000 -1.250000 0.000001
v 0.000000 -1.250003 2.000002
v -1.600000 -1.250000 0.000001
v 0.800000 -1.250003 1.385642
v -1.732050 -1.249998 -0.999999
v 1.000000 -1.250003 1.732053
v -1.385640 -1.249998 -0.799999
v 1.385640 -1.250001 0.800002
v -1.000000 -1.249998 -1.732049
v 1.732051 -1.250001 1.000002
v -0.800000 -1.249998 -1.385639
v 1.600000 -1.250000 0.000002
v 0.000000 -1.249998 -1.999998
v 2.000000 -1.250000 0.000002
v 0.000000 -1.249998 -1.599998
v 1.385640 -1.249998 -0.799998
v 1.000000 -1.249998 -1.732049
v 1.732051 -1.249998 -0.999998
v 0.800000 -1.249998 -1.385639
vt 0 0
vt 0 0
vt 0 0
vt 0 0
vt 0 0
vt 0 0
vt 0 0
vt 0 0
vt 0 0
vt 0 0
vt 0 0
vt 0 0
vt 0 0
vt 0 0
vt 0 0
vt 0 0
vt 0 0
vt 0 0
vt 0 0
vt 0 0
vt 0 0
vt 0 0
vt 0 0
vt 0 0
vt 0 0
vt 0 0
vt 0 0
vt 0 0
vt 0 0
vt 0 0
vt 0 0
vt 0 0
vt 0 0
vt 0 0
vt 0 0
vt 0 0
vt 0 0
vt 0 0
vt 0 0
vt 0 0
vt 0 0
vt 0 0
vt 0 0
vt 0 0
vt 0 0
vt 0 0
vt 0 0
vt 0 0
vt 0 0
vt 0 0
vt 0 0
vt 0 0
vt 0 0
vt 0 0
vt 0 0
vt 0 0
vt 0 0
vt 0 0
vt 0 0
vt 0 0
vt 0 0
vt 0 0
vt 0 0
vt 0 0
vt 0 0
vt 0 0
vt 0 0
vt 0 0
vt 0 0
vt 0 0
vt 0 0
vt 0 0
vt 0 0
vt 0 0
vt 0 0
vt 0 0
vt 0 0
vt 0 0
vt 0 0
vt 0 0
vt 0 0
vt 0 0
vt 0 0
vt 0 0
vt 0 0
vt 0 0
vt 0 0
vt 0 0
vt 0 0
vt 0 0
vt 0 0
vt 0 0
vt 0 0
vt 0 0
vt 0 0
vt 0 0
vt 0 0
vt 0 0
vt 0 0
vt 0 0
vt 0 0
vt 0 0
vt 0 0
vt 0 0
vt 0 0
vt 0 0
vt 0 0
vt 0 0
vt 0 0
vt 0 0
vt 0 0
vt 0 0
vt 0 0
vt 0 0
vt 0 0
vt 0 0
vt 0 0
vt 0 0
vt 0 0
vt 0 0
vt 0 0
vt 0 0
vt 0 0
vt 0 0
vt 0 0
vt 0 0
vt 0 0
vt 0 0
vt 0 0
vt 0 0
vt 0 0
vt 0 0
vt 0 0
vt 0 0
vt 0 0
vt 0 0
vt 0 0
vt 0 0
vt 0 0
vt 0 0
vt 0 0
vt 0 0
vt 0 0
vt 0 0
vn 0.000000 -1.000000 0.000000
vn 0.000000 -1.000000 0.000000
vn 0.000000 -1.000000 0.000000
vn 0.000000 -1.000000 0.000000
vn 0.000000 -1.000000 0.000000
vn 0.000000 -1.000000 0.000000
vn 0.000000 -1.000000 0.000000
vn 0.000000 -1.000000 0.000000
vn 0.000000 -1.000000 0.000000
vn 0.000000 -1.000000 0.000000
vn 0.000000 -1.000000 0.000000
vn 0.000000 -1.000000 0.000000
vn 0.000000 1.000000 0.000000
vn -0.320967 0.928784 -0.185310
vn -0.370621 0.928784 0.000000
vn 0.000000 1.000000 0.000000
vn 0.000000 1.000000 0.000000
vn -0.320967 0.928784 0.185311
vn 0.000000 1.000000 0.000000
vn -0.185310 0.928784 -0.320967
vn 0.000000 1.000000 0.000000
vn -0.185310 0.928784 0.320967
vn 0.000000 1.000000 0.000000
vn 0.000000 0.928784 -0.370621
vn 0.000000 1.000000 0.000000
vn 0.000000 0.928784 0.370621
vn 0.000000 1.000000 0.000000
vn 0.185311 0.928784 -0.320967
vn 0.000000 1.000000 0.000000
vn 0.185310 0.928784 0.320967
vn 0.000000 1.000000 0.000000
vn 0.320967 0.928784 -0.185310
vn 0.000000 1.000000 0.000000
vn 0.320967 0.928784 0.185311
vn 0.000000 1.000000 0.000000
vn 0.370621 0.928784 0.000000
vn 0.000000 0.928784 0.370621
vn 0.185310 0.928784 0.320967
vn 0.320967 0.928784 0.185311
vn 0.370621 0.928784 0.000000
vn 0.320967 0.928784 -0.185310
vn 0.185311 0.928784 -0.320967
vn -0.185310 0.928784 0.320967
vn 0.000000 0.928784 -0.370621
vn -0.320967 0.928784 0.185311
vn -0.185310 0.928784 -0.320967
vn -0.370621 0.928784 0.000000
vn -0.320967 0.928784 -0.185310
vn 0.117288 0.972098 -0.203148
vn 0.000000 0.972098 -0.234575
vn -0.117288 0.972098 -0.203148
vn -0.203149 0.972098 -0.117286
vn -0.234576 0.972098 0.000000
vn -0.203147 0.972098 0.117289
vn 0.203149 0.972098 -0.117286
vn -0.117287 0.972098 0.203149
vn 0.234576 0.972098 0.000000
vn 0.000000 0.972098 0.234576
vn 0.203147 0.972098 0.117289
vn 0.117287 0.972098 0.203149
vn -0.162200 0.982304 0.093648
vn -0.093646 0.982304 0.162201
vn 0.000000 0.950029 0.312161
vn 0.117287 0.972098 0.203149
vn 0.162200 0.982304 0.093648
vn 0.187293 0.982304 0.000000
vn -0.187293 0.982304 0.000000
vn 0.162201 0.982304 -0.093645
vn -0.162201 0.982304 -0.093645
vn 0.093647 0.982304 -0.162200
vn -0.117288 0.972098 -0.203148
vn 0.000000 0.950029 -0.312161
vn 0.000000 -0.243486 0.969905
vn -0.484952 -0.243486 0.839962
vn -0.484952 -0.243486 0.839962
vn 0.000000 -0.243486 0.969905
vn -0.839962 -0.243486 0.484952
vn 0.484952 -0.243485 0.839962
vn -0.839962 -0.243486 0.484952
vn 0.484952 -0.243485 0.839962
vn -0.969905 -0.243486 0.000000
vn 0.839962 -0.243485 0.484952
vn -0.969905 -0.243486 0.000000
vn 0.839962 -0.243485 0.484952
vn -0.839962 -0.243486 -0.484953
vn 0.969905 -0.243486 0.000000
vn -0.839962 -0.243486 -0.484953
vn 0.969905 -0.243486 0.000000
vn -0.484952 -0.243486 -0.839962
vn 0.839962 -0.243486 -0.484952
vn -0.484952 -0.243486 -0.839962
vn 0.839962 -0.243486 -0.484952
vn 0.000000 -0.243486 -0.969905
vn 0.484952 -0.243486 -0.839962
vn 0.000000 -0.243486 -0.969905
vn 0.484952 -0.243486 -0.839962
vn 0.000000 0.132165 -0.991228
vn 0.000000 0.132165 -0.991228
vn -0.495614 0.132165 -0.858429
vn -0.495614 0.132165 -0.858429
vn 0.495614 0.132165 -0.858428
vn -0.858428 0.132164 -0.495614
vn 0.495614 0.132165 -0.858428
vn -0.858428 0.132164 -0.495614
vn 0.858429 0.132164 -0.495614
vn -0.991228 0.132164 0.000000
vn 0.858429 0.132164 -0.495614
vn -0.991228 0.132164 0.000000
vn 0.991228 0.132164 0.000000
vn -0.858429 0.132163 0.495614
vn 0.991228 0.132164 0.000000
vn -0.858429 0.132163 0.495614
vn 0.858429 0.132163 0.495614
vn -0.495614 0.132163 0.858428
vn 0.858429 0.132163 0.495614
vn -0.495614 0.132163 0.858428
vn 0.495614 0.132163 0.858429
vn 0.000000 0.132163 0.991228
vn 0.495614 0.132163 0.858429
vn 0.000000 0.132163 0.991228
vn 0.000000 -1.000000 0.000000
vn 0.000000 -1.000000 0.000000
vn 0.000000 -1.000000 0.000000
vn 0.000000 -1.000000 0.000000
vn 0.000000 -1.000000 0.000000
vn 0.000000 -1.000000 0.000000
vn 0.000000 -1.000000 0.000000
vn 0.000000 -1.000000 0.000000
vn 0.000000 -1.000000 0.000000
vn 0.000000 -1.000000 0.000000
vn 0.000000 -1.000000 0.000000
vn 0.000000 -1.000000 0.000000
vn 0.000000 -1.000000 0.000000
vn 0.000000 -1.000000 0.000000
vn 0.000000 -1.000000 0.000000
vn 0.000000 -1.000000 0.000000
vn 0.000000 -1.000000 0.000000
vn 0.000000 -1.000000 0.000000
vn 0.000000 -1.000000 0.000000
vn 0.000000 -1.000000 0.000000
vn 0.000000 -1.000000 0.000000
vn 0.000000 -1.000000 0.000000
vn 0.000000 -1.000000 0.000000
vn 0.000000 -1.000000 0.000000
g Model_0_0
f 3/3/3 2/2/2 1/1/1
f 1/1/1 4/4/4 3/3/3
f 1/1/1 5/5/5 4/4/4
f 5/5/5 6/6/6 4/4/4
f 5/5/5 7/7/7 6/6/6
f 7/7/7 8/8/8 6/6/6
f 7/7/7 9/9/9 8/8/8
f 9/9/9 10/10/10 8/8/8
f 9/9/9 11/11/11 10/10/10
f 11/11/11 12/12/12 10/10/10
f 15/15/15 14/14/14 13/13/13
f 16/16/16 15/15/15 13/13/13
f 13/13/13 14/14/14 17/17/17
f 18/18/18 15/15/15 16/16/16
f 19/19/19 18/18/18 16/16/16
f 14/14/14 20/20/20 17/17/17
f 17/17/17 20/20/20 21/21/21
f 22/22/22 18/18/18 19/19/19
f 23/23/23 22/22/22 19/19/19
f 20/20/20 24/24/24 21/21/21
f 21/21/21 24/24/24 25/25/25
f 26/26/26 22/22/22 23/23/23
f 27/27/27 26/26/26 23/23/23
f 24/24/24 28/28/28 25/25/25
f 25/25/25 28/28/28 29/29/29
f 30/30/30 26/26/26 27/27/27
f 31/31/31 30/30/30 27/27/27
f 28/28/28 32/32/32 29/29/29
f 29/29/29 32/32/32 33/33/33
f 34/34/34 30/30/30 31/31/31
f 35/35/35 34/34/34 31/31/31
f 33/33/33 36/36/36 35/35/35
f 32/32/32 36/36/36 33/33/33
f 36/36/36 34/34/34 35/35/35
f 26/26/26 37/37/37 22/22/22
f 30/30/30 38/38/38 26/26/26
f 38/38/38 37/37/37 26/26/26
f 34/34/34 39/39/39 30/30/30
f 39/39/39 38/38/38 30/30/30
f 36/36/36 40/40/40 34/34/34
f 40/40/40 39/39/39 34/34/34
f 32/32/32 41/41/41 36/36/36
f 41/41/41 40/40/40 36/36/36
f 28/28/28 42/42/42 32/32/32
f 42/42/42 41/41/41 32/32/32
f 37/37/37 43/43/43 22/22/22
f 22/22/22 43/43/43 18/18/18
f 44/44/44 42/42/42 28/28/28
f 24/24/24 44/44/44 28/28/28
f 43/43/43 45/45/45 18/18/18
f 18/18/18 45/45/45 15/15/15
f 46/46/46 44/44/44 24/24/24
f 20/20/20 46/46/46 24/24/24
f 45/45/45 47/47/47 15/15/15
f 15/15/15 47/47/47 14/14/14
f 14/14/14 48/48/48 20/20/20
f 48/48/48 46/46/46 20/20/20
f 47/47/47 48/48/48 14/14/14
f 42/42/42 49/49/49 41/41/41
f 44/44/44 50/50/50 42/42/42
f 50/50/50 49/49/49 42/42/42
f 46/46/46 51/51/51 44/44/44
f 51/51/51 50/50/50 44/44/44
f 48/48/48 52/52/52 46/46/46
f 52/52/52 51/51/51 46/46/46
f 47/47/47 53/53/53 48/48/48
f 53/53/53 52/52/52 48/48/48
f 45/45/45 54/54/54 47/47/47
f 54/54/54 53/53/53 47/47/47
f 49/49/49 55/55/55 41/41/41
f 41/41/41 55/55/55 40/40/40
f 56/56/56 54/54/54 45/45/45
f 43/43/43 56/56/56 45/45/45
f 55/55/55 57/57/57 40/40/40
f 40/40/40 57/57/57 39/39/39
f 58/58/58 56/56/56 43/43/43
f 37/37/37 58/58/58 43/43/43
f 57/57/57 59/59/59 39/39/39
f 39/39/39 59/59/59 38/38/38
f 38/38/38 60/60/60 37/37/37
f 60/60/60 58/58/58 37/37/37
f 59/59/59 60/60/60 38/38/38
f 54/54/54 61/61/61 53/53/53
f 56/56/56 62/62/62 54/54/54
f 62/62/62 61/61/61 54/54/54
f 58/58/58 63/63/63 56/56/56
f 63/63/63 62/62/62 56/56/56
f 64/64/64 63/63/63 58/58/58
f 60/60/60 64/64/64 58/58/58
f 62/62/62 63/63/63 64/64/64
f 65/65/65 64/64/64 60/60/60
f 62/62/62 64/64/64 65/65/65
f 59/59/59 65/65/65 60/60/60
f 61/61/61 62/62/62 65/65/65
f 66/66/66 65/65/65 59/59/59
f 57/57/57 66/66/66 59/59/59
f 61/61/61 65/65/65 66/66/66
f 61/61/61 67/67/67 53/53/53
f 67/67/67 61/61/61 66/66/66
f 53/53/53 67/67/67 52/52/52
f 68/68/68 66/66/66 57/57/57
f 67/67/67 66/66/66 68/68/68
f 55/55/55 68/68/68 57/57/57
f 67/67/67 69/69/69 52/52/52
f 69/69/69 67/67/67 68/68/68
f 52/52/52 69/69/69 51/51/51
f 70/70/70 68/68/68 55/55/55
f 69/69/69 68/68/68 70/70/70
f 49/49/49 70/70/70 55/55/55
f 69/69/69 71/71/71 51/51/51
f 71/71/71 69/69/69 70/70/70
f 51/51/51 71/71/71 50/50/50
f 72/72/72 70/70/70 49/49/49
f 50/50/50 72/72/72 49/49/49
f 71/71/71 72/72/72 50/50/50
f 70/70/70 72/72/72 71/71/71
f 75/75/75 74/74/74 73/73/73
f 74/74/74 76/76/76 73/73/73
f 77/77/77 74/74/74 75/75/75
f 73/73/73 76/76/76 78/78/78
f 79/79/79 77/77/77 75/75/75
f 76/76/76 80/80/80 78/78/78
f 81/81/81 77/77/77 79/79/79
f 78/78/78 80/80/80 82/82/82
f 83/83/83 81/81/81 79/79/79
f 80/80/80 84/84/84 82/82/82
f 85/85/85 81/81/81 83/83/83
f 82/82/82 84/84/84 86/86/86
f 87/87/87 85/85/85 83/83/83
f 84/84/84 88/88/88 86/86/86
f 89/89/89 85/85/85 87/87/87
f 86/86/86 88/88/88 90/90/90
f 91/91/91 89/89/89 87/87/87
f 88/88/88 92/92/92 90/90/90
f 93/93/93 89/89/89 91/91/91
f 90/90/90 92/92/92 94/94/94
f 95/95/95 93/93/93 91/91/91
f 92/92/92 96/96/96 94/94/94
f 96/96/96 93/93/93 95/95/95
f 94/94/94 96/96/96 95/95/95
f 99/99/99 98/98/98 97/97/97
f 100/100/100 99/99/99 97/97/97
f 97/97/97 98/98/98 101/101/101
f 102/102/102 99/99/99 100/100/100
f 98/98/98 103/103/103 101/101/101
f 104/104/104 102/102/102 100/100/100
f 101/101/101 103/103/103 105/105/105
f 106/106/106 102/102/102 104/104/104
f 103/103/103 107/107/107 105/105/105
f 108/108/108 106/106/106 104/104/104
f 105/105/105 107/107/107 109/109/109
f 110/110/110 106/106/106 108/108/108
f 107/107/107 111/111/111 109/109/109
f 112/112/112 110/110/110 108/108/108
f 109/109/109 111/111/111 113/113/113
f 114/114/114 110/110/110 112/112/112
f 111/111/111 115/115/115 113/113/113
f 116/116/116 114/114/114 112/112/112
f 113/113/113 115/115/115 117/117/117
f 118/118/118 114/114/114 116/116/116
f 115/115/115 119/119/119 117/117/117
f 120/120/120 118/118/118 116/116/116
f 117/117/117 119/119/119 120/120/120
f 119/119/119 118/118/118 120/120/120
f 123/123/123 122/122/122 121/121/121
f 124/124/124 123/123/123 121/121/121
f 123/123/123 125/125/125 122/122/122
f 124/124/124 121/121/121 126/126/126
f 125/125/125 127/127/127 122/122/122
f 128/128/128 124/124/124 126/126/126
f 125/125/125 129/129/129 127/127/127
f 128/128/128 126/126/126 130/130/130
f 129/129/129 131/131/131 127/127/127
f 132/132/132 128/128/128 130/130/130
f 129/129/129 133/133/133 131/131/131
f 132/132/132 130/130/130 134/134/134
f 133/133/133 135/135/135 131/131/131
f 136/136/136 132/132/132 134/134/134
f 133/133/133 137/137/137 135/135/135
f 136/136/136 134/134/134 138/138/138
f 137/137/137 139/139/139 135/135/135
f 140/140/140 136/136/136 138/138/138
f 137/137/137 141/141/141 139/139/139
f 140/140/140 138/138/138 142/142/142
f 141/141/141 143/143/143 139/139/139
f 144/144/144 140/140/140 142/142/142
f 144/144/144 142/142/142 143/143/143
f 141/141/141 144/144/144 143/143/143