g Model_0
v -1.000000 3.000002 -1.732049
v 0.000000 3.000002 -1.999998
v 1.000000 3.000002 -1.732049
v 0.000000 3.000002 -1.599998
v 0.800000 3.000002 -1.385639
v -0.800000 3.000002 -1.385639
v 1.732051 3.000002 -0.999998
v 1.385640 3.000002 -0.799998
v -1.732050 3.000002 -0.999999
v -1.385640 3.000002 -0.799999
v -1.600000 3.000000 0.000001
v -2.000000 3.000000 0.000001
v -1.385641 2.999999 0.800001
v -1.732051 2.999999 1.000001
v -0.800001 2.999997 1.385642
v 2.000000 3.000000 0.000002
v 1.600000 3.000000 0.000002
v 1.385640 2.999999 0.800002
v 1.732051 2.999999 1.000002
v 0.800000 2.999997 1.385642
v -1.000001 2.999997 1.732052
v 1.000000 2.999997 1.732053
v -0.000000 2.999997 1.600002
v 0.000000 2.999997 2.000002
v 1.000000 -3.499998 -1.732053
v 0.000000 -3.499998 -2.000002
v -1.000000 -3.499998 -1.732053
v -1.732050 -3.499999 -1.000002
v 1.732051 -3.499999 -1.000002
v -2.000000 -3.500000 -0.000003
v 2.000000 -3.500000 -0.000002
v -1.732051 -3.500002 0.999997
v 1.732051 -3.500002 0.999998
v -1.000001 -3.500002 1.732048
v 1.000000 -3.500002 1.732049
v 0.000000 -3.500003 1.999998
v -0.800001 -3.000002 1.385639
v -0.000000 -3.000003 1.599999
v 0.800000 -3.000002 1.385639
v -0.000000 -3.000003 1.359999
v 0.680000 -3.000002 1.177793
v -0.680001 -3.000002 1.177793
v 1.385640 -3.000002 0.799999
v 1.177794 -3.000002 0.679999
v 1.360000 -3.000000 -0.000001
v 1.600000 -3.000000 -0.000001
v 1.177794 -2.999999 -0.680001
v 1.385640 -2.999999 -0.800001
v 0.680000 -2.999998 -1.177796
v -1.385641 -3.000002 0.799998
v -1.177795 -3.000002 0.679998
v -1.360000 -3.000000 -0.000002
v -1.600000 -3.000000 -0.000002
v -1.177794 -2.999999 -0.680002
v -1.385640 -2.999999 -0.800002
v -0.680000 -2.999998 -1.177796
v 0.800000 -2.999998 -1.385642
v -0.800000 -2.999998 -1.385642
v 0.000000 -2.999998 -1.360001
v 0.000000 -2.999998 -1.600001
v -0.800000 -2.999998 -1.385642
v 0.000000 -2.999998 -1.600001
v 0.800000 -2.999998 -1.385642
v -1.385640 -2.999999 -0.800002
v 1.385640 -2.999999 -0.800001
v -1.600000 -3.000000 -0.000002
v 1.600000 -3.000000 -0.000001
v -1.385641 -3.000002 0.799998
v 1.385640 -3.000002 0.799999
v -0.800001 -3.000002 1.385639
v 0.800000 -3.000002 1.385639
v -0.000000 -3.000003 1.599999
v -1.600000 2.250000 -0.000000
v -1.360000 2.150000 -0.000001
v -1.177795 2.149998 0.679999
v -1.385641 2.249999 0.799999
v -1.385640 2.250001 -0.800000
v -0.680001 2.149997 1.177794
v -1.177794 2.150001 -0.680000
v -0.800001 2.249997 1.385640
v -0.800000 2.250002 -1.385641
v -0.000000 2.149997 1.360000
v -0.680000 2.150002 -1.177795
v -0.000000 2.249997 1.600000
v 0.000000 2.250002 -1.600000
v 0.680000 2.149997 1.177795
v 0.000000 2.150002 -1.360000
v 0.800000 2.249998 1.385641
v 0.800000 2.250002 -1.385641
v 1.177794 2.149998 0.680000
v 0.680000 2.150002 -1.177795
v 1.385640 2.249999 0.800000
v 1.385640 2.250001 -0.800000
v 1.360000 2.150000 -0.000000
v 1.177794 2.150001 -0.680000
v 1.600000 2.250000 0.000000
v -1.177795 2.149998 0.679999
v -1.177795 -3.000002 0.679998
v -0.680001 -3.000002 1.177793
v -1.360000 2.150000 -0.000001
v -0.680001 2.149997 1.177794
v -1.360000 -3.000000 -0.000002
v -0.000000 -3.000003 1.359999
v -1.177794 2.150001 -0.680000
v -0.000000 2.149997 1.360000
v -1.177794 -2.999999 -0.680002
v 0.680000 -3.000002 1.177793
v -0.680000 2.150002 -1.177795
v 0.680000 2.149997 1.177795
v -0.680000 -2.999998 -1.177796
v 1.177794 -3.000002 0.679999
v 0.000000 2.150002 -1.360000
v 1.177794 2.149998 0.680000
v 0.000000 -2.999998 -1.360001
v 1.360000 -3.000000 -0.000001
v 0.680000 2.150002 -1.177795
v 1.360000 2.150000 -0.000000
v 0.680000 -2.999998 -1.177796
v 1.177794 -2.999999 -0.680001
v 1.177794 2.150001 -0.680000
v -0.000000 2.999997 1.600002
v 0.800000 2.249998 1.385641
v 0.800000 2.999997 1.385642
v -0.000000 2.249997 1.600000
v 1.385640 2.249999 0.800000
v -0.800001 2.999997 1.385642
v 1.385640 2.999999 0.800002
v -0.800001 2.249997 1.385640
v 1.600000 2.250000 0.000000
v -1.385641 2.999999 0.800001
v 1.600000 3.000000 0.000002
v -1.385641 2.249999 0.799999
v 1.385640 2.250001 -0.800000
v -1.600000 3.000000 0.000001
v 1.385640 3.000002 -0.799998
v -1.600000 2.250000 -0.000000
v 0.800000 2.250002 -1.385641
v -1.385640 3.000002 -0.799999
v 0.800000 3.000002 -1.385639
v -1.385640 2.250001 -0.800000
v 0.000000 2.250002 -1.600000
v -0.800000 3.000002 -1.385639
v 0.000000 3.000002 -1.599998
v -0.800000 2.250002 -1.385641
v -1.732051 2.999999 1.000001
v -1.000001 2.999997 1.732052
v -1.000001 -3.500002 1.732048
v -1.732051 -3.500002 0.999997
v 0.000000 -3.500003 1.999998
v -2.000000 3.000000 0.000001
v 0.000000 2.999997 2.000002
v -2.000000 -3.500000 -0.000003
v 1.000000 -3.500002 1.732049
v -1.732050 3.000002 -0.999999
v 1.000000 2.999997 1.732053
v -1.732050 -3.499999 -1.000002
v 1.732051 -3.500002 0.999998
v -1.000000 3.000002 -1.732049
v 1.732051 2.999999 1.000002
v -1.000000 -3.499998 -1.732053
v 2.000000 -3.500000 -0.000002
v 0.000000 3.000002 -1.999998
v 2.000000 3.000000 0.000002
v 0.000000 -3.499998 -2.000002
v 1.732051 -3.499999 -1.000002
v 1.000000 3.000002 -1.732049
v 1.732051 3.000002 -0.999998
v 1.000000 -3.499998 -1.732053
vt 0 0
vt 0 0
vt 0 0
vt 0 0
vt 0 0
vt 0 0
vt 0 0
vt 0 0
vt 0 0
vt 0 0
vt 0 0
vt 0 0
vt 0 0
vt 0 0
vt 0 0
vt 0 0
vt 0 0
vt 0 0
vt 0 0
vt 0 0
vt 0 0
vt 0 0
vt 0 0
vt 0 0
vt 0 0
vt 0 0
vt 0 0
vt 0 0
vt 0 0
vt 0 0
vt 0 0
vt 0 0
vt 0 0
vt 0 0
vt 0 0
vt 0 0
vt 0 0
vt 0 0
vt 0 0
vt 0 0
vt 0 0
vt 0 0
vt 0 0
vt 0 0
vt 0 0
vt 0 0
vt 0 0
vt 0 0
vt 0 0
vt 0 0
vt 0 0
vt 0 0
vt 0 0
vt 0 0
vt 0 0
vt 0 0
vt 0 0
vt 0 0
vt 0 0
vt 0 0
vt 0 0
vt 0 0
vt 0 0
vt 0 0
vt 0 0
vt 0 0
vt 0 0
vt 0 0
vt 0 0
vt 0 0
vt 0 0
vt 0 0
vt 0 0
vt 0 0
vt 0 0
vt 0 0
vt 0 0
vt 0 0
vt 0 0
vt 0 0
vt 0 0
vt 0 0
vt 0 0
vt 0 0
vt 0 0
vt 0 0
vt 0 0
vt 0 0
vt 0 0
vt 0 0
vt 0 0
vt 0 0
vt 0 0
vt 0 0
vt 0 0
vt 0 0
vt 0 0
vt 0 0
vt 0 0
vt 0 0
vt 0 0
vt 0 0
vt 0 0
vt 0 0
vt 0 0
vt 0 0
vt 0 0
vt 0 0
vt 0 0
vt 0 0
vt 0 0
vt 0 0
vt 0 0
vt 0 0
vt 0 0
vt 0 0
vt 0 0
vt 0 0
vt 0 0
vt 0 0
vt 0 0
vt 0 0
vt 0 0
vt 0 0
vt 0 0
vt 0 0
vt 0 0
vt 0 0
vt 0 0
vt 0 0
vt 0 0
vt 0 0
vt 0 0
vt 0 0
vt 0 0
vt 0 0
vt 0 0
vt 0 0
vt 0 0
vt 0 0
vt 0 0
vt 0 0
vt 0 0
vt 0 0
vt 0 0
vt 0 0
vt 0 0
vt 0 0
vt 0 0
vt 0 0
vt 0 0
vt 0 0
vt 0 0
vt 0 0
vt 0 0
vt 0 0
vt 0 0
vt 0 0
vt 0 0
vt 0 0
vt 0 0
vt 0 0
vt 0 0
vt 0 0
vt 0 0
vt 0 0
vt 0 0
vt 0 0
vn 0.000000 1.000000 0.000000
vn 0.000000 1.000000 0.000000
vn 0.000000 1.000000 0.000000
vn 0.000000 1.000000 0.000000
vn 0.000000 1.000000 0.000000
vn 0.000000 1.000000 0.000000
vn 0.000000 1.000000 0.000000
vn 0.000000 1.000000 0.000000
vn 0.000000 1.000000 0.000000
vn 0.000000 1.000000 0.000000
vn 0.000000 1.000000 0.000000
vn 0.000000 1.000000 0.000000
vn 0.000000 1.000000 0.000000
vn 0.000000 1.000000 0.000000
vn 0.000000 1.000000 0.000000
vn 0.000000 1.000000 0.000000
vn 0.000000 1.000000 0.000000
vn 0.000000 1.000000 0.000000
vn 0.000000 1.000000 0.000000
vn 0.000000 1.000000 0.000000
vn 0.000000 1.000000 0.000000
vn 0.000000 1.000000 0.000000
vn 0.000000 1.000000 0.000000
vn 0.000000 1.000000 0.000000
vn 0.000000 -1.000000 0.000000
vn 0.000000 -1.000000 0.000000
vn 0.000000 -1.000000 0.000000
vn 0.000000 -1.000000 0.000000
vn 0.000000 -1.000000 0.000000
vn 0.000000 -1.000000 0.000000
vn 0.000000 -1.000000 0.000000
vn 0.000000 -1.000000 0.000000
vn 0.000000 -1.000000 0.000000
vn 0.000000 -1.000000 0.000000
vn 0.000000 -1.000000 0.000000
vn 0.000000 -1.000000 0.000000
vn 0.000000 -1.000000 0.000000
vn 0.000000 -1.000000 0.000000
vn 0.000000 -1.000000 0.000000
vn 0.000000 -1.000000 0.000000
vn 0.000000 -1.000000 0.000000
vn 0.000000 -1.000000 0.000000
vn 0.000000 -1.000000 0.000000
vn 0.000000 -1.000000 0.000000
vn 0.000000 -1.000000 0.000000
vn 0.000000 -1.000000 0.000000
vn 0.000000 -1.000000 0.000000
vn 0.000000 -1.000000 0.000000
vn 0.000000 -1.000000 0.000000
vn 0.000000 -1.000000 0.000000
vn 0.000000 -1.000000 0.000000
vn 0.000000 -1.000000 0.000000
vn 0.000000 -1.000000 0.000000
vn 0.000000 -1.000000 0.000000
vn 0.000000 -1.000000 0.000000
vn 0.000000 -1.000000 0.000000
vn 0.000000 -1.000000 0.000000
vn 0.000000 -1.000000 0.000000
vn 0.000000 -1.000000 0.000000
vn 0.000000 -1.000000 0.000000
vn 0.000000 1.000000 0.000000
vn 0.000000 1.000000 0.000000
vn 0.000000 1.000000 0.000000
vn 0.000000 1.000000 0.000000
vn 0.000000 1.000000 0.000000
vn 0.000000 1.000000 0.000000
vn 0.000000 1.000000 0.000000
vn 0.000000 1.000000 0.000000
vn 0.000000 1.000000 0.000000
vn 0.000000 1.000000 0.000000
vn 0.000000 1.000000 0.000000
vn 0.000000 1.000000 0.000000
vn 0.384616 0.923077 0.000000
vn 0.384616 0.923077 0.000000
vn 0.333088 0.923077 -0.192306
vn 0.333088 0.923077 -0.192306
vn 0.333086 0.923077 0.192309
vn 0.192309 0.923077 -0.333086
vn 0.333086 0.923077 0.192309
vn 0.192309 0.923077 -0.333086
vn 0.192308 0.923077 0.333088
vn 0.000000 0.923077 -0.384616
vn 0.192308 0.923077 0.333088
vn 0.000000 0.923077 -0.384616
vn 0.000000 0.923077 0.384616
vn -0.192309 0.923077 -0.333087
vn 0.000000 0.923077 0.384616
vn -0.192309 0.923077 -0.333087
vn -0.192308 0.923077 0.333088
vn -0.333088 0.923077 -0.192307
vn -0.192308 0.923077 0.333088
vn -0.333088 0.923077 -0.192307
vn -0.333087 0.923077 0.192309
vn -0.384616 0.923077 0.000000
vn -0.333087 0.923077 0.192309
vn -0.384616 0.923077 0.000000
vn 0.866026 0.000000 -0.500000
vn 0.866026 0.000000 -0.500000
vn 0.500000 0.000000 -0.866025
vn 1.000000 0.000000 0.000000
vn 0.500000 0.000000 -0.866025
vn 1.000000 0.000000 0.000000
vn 0.000000 0.000000 -1.000000
vn 0.866025 0.000000 0.500000
vn 0.000000 0.000000 -1.000000
vn 0.866025 0.000000 0.500000
vn -0.500000 0.000000 -0.866025
vn 0.500000 0.000000 0.866025
vn -0.500000 0.000000 -0.866025
vn 0.500000 0.000000 0.866025
vn -0.866025 0.000000 -0.500000
vn 0.000000 0.000000 1.000000
vn -0.866025 0.000000 -0.500000
vn 0.000000 0.000000 1.000000
vn -1.000000 0.000000 0.000000
vn -0.500000 0.000000 0.866025
vn -1.000000 0.000000 0.000000
vn -0.500000 0.000000 0.866025
vn -0.866025 0.000000 0.500000
vn -0.866025 0.000000 0.500000
vn 0.000000 0.000000 -1.000000
vn -0.500000 0.000000 -0.866025
vn -0.500000 0.000000 -0.866025
vn 0.000000 0.000000 -1.000000
vn -0.866025 0.000000 -0.500000
vn 0.500000 0.000000 -0.866025
vn -0.866025 0.000000 -0.500000
vn 0.500000 0.000000 -0.866025
vn -1.000000 0.000000 0.000000
vn 0.866026 0.000000 -0.499999
vn -1.000000 0.000000 0.000000
vn 0.866026 0.000000 -0.499999
vn -0.866025 0.000000 0.500000
vn 1.000000 0.000000 0.000000
vn -0.866025 0.000000 0.500000
vn 1.000000 0.000000 0.000000
vn -0.500000 0.000000 0.866025
vn 0.866025 0.000000 0.500000
vn -0.500000 0.000000 0.866025
vn 0.866025 0.000000 0.500000
vn 0.000000 0.000000 1.000000
vn 0.500000 0.000000 0.866026
vn 0.000000 0.000000 1.000000
vn 0.500000 0.000000 0.866026
vn -0.866026 0.000000 0.499999
vn -0.500000 0.000000 0.866025
vn -0.500000 0.000000 0.866025
vn -0.866026 0.000000 0.499999
vn 0.000000 0.000000 1.000000
vn -1.000000 0.000000 0.000000
vn 0.000000 0.000000 1.000000
vn -1.000000 0.000000 0.000000
vn 0.500000 0.000000 0.866025
vn -0.866025 0.000000 -0.500000
vn 0.500000 0.000000 0.866025
vn -0.866025 0.000000 -0.500000
vn 0.866025 0.000000 0.500000
vn -0.500000 0.000000 -0.866026
vn 0.866025 0.000000 0.500000
vn -0.500000 0.000000 -0.866026
vn 1.000000 0.000000 0.000000
vn 0.000000 0.000000 -1.000000
vn 1.000000 0.000000 0.000000
vn 0.000000 0.000000 -1.000000
vn 0.866025 0.000000 -0.500000
vn 0.500000 0.000000 -0.866025
vn 0.866025 0.000000 -0.500000
vn 0.500000 0.000000 -0.866025
g Model_0_0
f 3/3/3 2/2/2 1/1/1
f 1/1/1 4/4/4 3/3/3
f 3/3/3 4/4/4 5/5/5
f 1/1/1 6/6/6 4/4/4
f 5/5/5 7/7/7 3/3/3
f 5/5/5 8/8/8 7/7/7
f 1/1/1 9/9/9 6/6/6
f 9/9/9 10/10/10 6/6/6
f 11/11/11 10/10/10 9/9/9
f 12/12/12 11/11/11 9/9/9
f 13/13/13 11/11/11 12/12/12
f 12/12/12 14/14/14 13/13/13
f 14/14/14 15/15/15 13/13/13
f 8/8/8 16/16/16 7/7/7
f 8/8/8 17/17/17 16/16/16
f 17/17/17 18/18/18 16/16/16
f 18/18/18 19/19/19 16/16/16
f 18/18/18 20/20/20 19/19/19
f 14/14/14 21/21/21 15/15/15
f 20/20/20 22/22/22 19/19/19
f 21/21/21 23/23/23 15/15/15
f 20/20/20 23/23/23 22/22/22
f 23/23/23 21/21/21 22/22/22
f 21/21/21 24/24/24 22/22/22
f 27/27/27 26/26/26 25/25/25
f 25/25/25 28/28/28 27/27/27
f 25/25/25 29/29/29 28/28/28
f 29/29/29 30/30/30 28/28/28
f 29/29/29 31/31/31 30/30/30
f 31/31/31 32/32/32 30/30/30
f 31/31/31 33/33/33 32/32/32
f 33/33/33 34/34/34 32/32/32
f 33/33/33 35/35/35 34/34/34
f 35/35/35 36/36/36 34/34/34
f 39/39/39 38/38/38 37/37/37
f 39/39/39 37/37/37 40/40/40
f 39/39/39 40/40/40 41/41/41
f 42/42/42 40/40/40 37/37/37
f 43/43/43 39/39/39 41/41/41
f 43/43/43 41/41/41 44/44/44
f 43/43/43 44/44/44 45/45/45
f 46/46/46 43/43/43 45/45/45
f 46/46/46 45/45/45 47/47/47
f 48/48/48 46/46/46 47/47/47
f 48/48/48 47/47/47 49/49/49
f 42/42/42 37/37/37 50/50/50
f 51/51/51 42/42/42 50/50/50
f 52/52/52 51/51/51 50/50/50
f 52/52/52 50/50/50 53/53/53
f 54/54/54 52/52/52 53/53/53
f 54/54/54 53/53/53 55/55/55
f 56/56/56 54/54/54 55/55/55
f 49/49/49 57/57/57 48/48/48
f 55/55/55 58/58/58 56/56/56
f 59/59/59 57/57/57 49/49/49
f 59/59/59 56/56/56 58/58/58
f 57/57/57 59/59/59 58/58/58
f 58/58/58 60/60/60 57/57/57
f 63/63/63 62/62/62 61/61/61
f 61/61/61 64/64/64 63/63/63
f 64/64/64 65/65/65 63/63/63
f 64/64/64 66/66/66 65/65/65
f 66/66/66 67/67/67 65/65/65
f 66/66/66 68/68/68 67/67/67
f 68/68/68 69/69/69 67/67/67
f 68/68/68 70/70/70 69/69/69
f 70/70/70 71/71/71 69/69/69
f 70/70/70 72/72/72 71/71/71
f 75/75/75 74/74/74 73/73/73
f 76/76/76 75/75/75 73/73/73
f 73/73/73 74/74/74 77/77/77
f 78/78/78 75/75/75 76/76/76
f 74/74/74 79/79/79 77/77/77
f 80/80/80 78/78/78 76/76/76
f 77/77/77 79/79/79 81/81/81
f 82/82/82 78/78/78 80/80/80
f 79/79/79 83/83/83 81/81/81
f 84/84/84 82/82/82 80/80/80
f 81/81/81 83/83/83 85/85/85
f 86/86/86 82/82/82 84/84/84
f 83/83/83 87/87/87 85/85/85
f 88/88/88 86/86/86 84/84/84
f 85/85/85 87/87/87 89/89/89
f 90/90/90 86/86/86 88/88/88
f 87/87/87 91/91/91 89/89/89
f 92/92/92 90/90/90 88/88/88
f 89/89/89 91/91/91 93/93/93
f 94/94/94 90/90/90 92/92/92
f 91/91/91 95/95/95 93/93/93
f 96/96/96 94/94/94 92/92/92
f 93/93/93 95/95/95 96/96/96
f 95/95/95 94/94/94 96/96/96
f 99/99/99 98/98/98 97/97/97
f 97/97/97 98/98/98 100/100/100
f 101/101/101 99/99/99 97/97/97
f 98/98/98 102/102/102 100/100/100
f 103/103/103 99/99/99 101/101/101
f 100/100/100 102/102/102 104/104/104
f 105/105/105 103/103/103 101/101/101
f 102/102/102 106/106/106 104/104/104
f 107/107/107 103/103/103 105/105/105
f 104/104/104 106/106/106 108/108/108
f 109/109/109 107/107/107 105/105/105
f 106/106/106 110/110/110 108/108/108
f 111/111/111 107/107/107 109/109/109
f 108/108/108 110/110/110 112/112/112
f 113/113/113 111/111/111 109/109/109
f 110/110/110 114/114/114 112/112/112
f 115/115/115 111/111/111 113/113/113
f 112/112/112 114/114/114 116/116/116
f 117/117/117 115/115/115 113/113/113
f 114/114/114 118/118/118 116/116/116
f 119/119/119 115/115/115 117/117/117
f 116/116/116 118/118/118 120/120/120
f 120/120/120 119/119/119 117/117/117
f 118/118/118 119/119/119 120/120/120
f 123/123/123 122/122/122 121/121/121
f 122/122/122 124/124/124 121/121/121
f 125/125/125 122/122/122 123/123/123
f 121/121/121 124/124/124 126/126/126
f 127/127/127 125/125/125 123/123/123
f 124/124/124 128/128/128 126/126/126
f 129/129/129 125/125/125 127/127/127
f 126/126/126 128/128/128 130/130/130
f 131/131/131 129/129/129 127/127/127
f 128/128/128 132/132/132 130/130/130
f 133/133/133 129/129/129 131/131/131
f 130/130/130 132/132/132 134/134/134
f 135/135/135 133/133/133 131/131/131
f 132/132/132 136/136/136 134/134/134
f 137/137/137 133/133/133 135/135/135
f 134/134/134 136/136/136 138/138/138
f 139/139/139 137/137/137 135/135/135
f 136/136/136 140/140/140 138/138/138
f 141/141/141 137/137/137 139/139/139
f 138/138/138 140/140/140 142/142/142
f 143/143/143 141/141/141 139/139/139
f 140/140/140 144/144/144 142/142/142
f 144/144/144 141/141/141 143/143/143
f 142/142/142 144/144/144 143/143/143
f 147/147/147 146/146/146 145/145/145
f 148/148/148 147/147/147 145/145/145
f 147/147/147 149/149/149 146/146/146
f 148/148/148 145/145/145 150/150/150
f 149/149/149 151/151/151 146/146/146
f 152/152/152 148/148/148 150/150/150
f 149/149/149 153/153/153 151/151/151
f 152/152/152 150/150/150 154/154/154
f 153/153/153 155/155/155 151/151/151
f 156/156/156 152/152/152 154/154/154
f 153/153/153 157/157/157 155/155/155
f 156/156/156 154/154/154 158/158/158
f 157/157/157 159/159/159 155/155/155
f 160/160/160 156/156/156 158/158/158
f 157/157/157 161/161/161 159/159/159
f 160/160/160 158/158/158 162/162/162
f 161/161/161 163/163/163 159/159/159
f 164/164/164 160/160/160 162/162/162
f 161/161/161 165/165/165 163/163/163
f 164/164/164 162/162/162 166/166/166
f 165/165/165 167/167/167 163/163/163
f 168/168/168 164/164/164 166/166/166
f 168/168/168 166/166/166 167/167/167
f 165/165/165 168/168/168 167/167/167