# Ceiling_Utility_0_lod1: Z-up, metres; ceiling mounting plane z=0.
# LampLight.Kind = CeilingStrip (must be supplied explicitly; name is not registered).
# Emitter OBJ UV (0.75,0.25) -> Load V-flip (0.75,0.75); all three corners qualify.
# Palette: Ceiling_Utility_0_tex.png (also shared by LOD1).
# 76 vertices; 34 triangular faces; flat explicit normals.
o Ceiling_Utility_0_lod1
s off
v -0.150000 0.120000 0.000000
v 0.150000 0.120000 0.000000
v 0.150000 -0.120000 0.000000
v -0.150000 -0.120000 0.000000
v -0.025000 -0.025000 0.000000
v -0.025000 -0.025000 -0.115000
v 0.025000 -0.025000 -0.115000
v 0.025000 -0.025000 0.000000
v 0.025000 -0.025000 0.000000
v 0.025000 -0.025000 -0.115000
v 0.025000 0.025000 -0.115000
v 0.025000 0.025000 0.000000
v 0.025000 0.025000 0.000000
v 0.025000 0.025000 -0.115000
v -0.025000 0.025000 -0.115000
v -0.025000 0.025000 0.000000
v -0.025000 0.025000 0.000000
v -0.025000 0.025000 -0.115000
v -0.025000 -0.025000 -0.115000
v -0.025000 -0.025000 0.000000
v 0.070000 0.000000 -0.180000
v 0.000000 0.050000 -0.180000
v 0.000000 0.000000 -0.100000
v 0.000000 0.000000 -0.255000
v 0.000000 0.050000 -0.180000
v 0.070000 0.000000 -0.180000
v 0.000000 0.050000 -0.180000
v -0.070000 0.000000 -0.180000
v 0.000000 0.000000 -0.100000
v 0.000000 0.000000 -0.255000
v -0.070000 0.000000 -0.180000
v 0.000000 0.050000 -0.180000
v -0.070000 0.000000 -0.180000
v 0.000000 -0.050000 -0.180000
v 0.000000 0.000000 -0.100000
v 0.000000 0.000000 -0.255000
v 0.000000 -0.050000 -0.180000
v -0.070000 0.000000 -0.180000
v 0.000000 -0.050000 -0.180000
v 0.070000 0.000000 -0.180000
v 0.000000 0.000000 -0.100000
v 0.000000 0.000000 -0.255000
v 0.070000 0.000000 -0.180000
v 0.000000 -0.050000 -0.180000
v -0.115000 0.008000 -0.090000
v -0.115000 0.008000 -0.300000
v -0.115000 -0.008000 -0.300000
v -0.115000 -0.008000 -0.090000
v -0.115000 0.008000 -0.300000
v 0.115000 0.008000 -0.300000
v 0.115000 -0.008000 -0.300000
v -0.115000 -0.008000 -0.300000
v 0.115000 0.008000 -0.300000
v 0.115000 0.008000 -0.090000
v 0.115000 -0.008000 -0.090000
v 0.115000 -0.008000 -0.300000
v 0.115000 0.008000 -0.090000
v -0.115000 0.008000 -0.090000
v -0.115000 -0.008000 -0.090000
v 0.115000 -0.008000 -0.090000
v -0.008000 -0.090000 -0.090000
v -0.008000 -0.090000 -0.300000
v 0.008000 -0.090000 -0.300000
v 0.008000 -0.090000 -0.090000
v -0.008000 -0.090000 -0.300000
v -0.008000 0.090000 -0.300000
v 0.008000 0.090000 -0.300000
v 0.008000 -0.090000 -0.300000
v -0.008000 0.090000 -0.300000
v -0.008000 0.090000 -0.090000
v 0.008000 0.090000 -0.090000
v 0.008000 0.090000 -0.300000
v -0.008000 0.090000 -0.090000
v -0.008000 -0.090000 -0.090000
v 0.008000 -0.090000 -0.090000
v 0.008000 0.090000 -0.090000
vt 0.250000 0.750000
vt 0.750000 0.250000
vt 0.250000 0.250000
vt 0.750000 0.750000
vn 0.000000 0.000000 -1.000000
vn 0.000000 -1.000000 0.000000
vn 1.000000 0.000000 0.000000
vn 0.000000 1.000000 0.000000
vn -1.000000 0.000000 0.000000
vn 0.518084 0.725318 0.453324
vn 0.510902 0.715263 -0.476842
vn -0.518084 0.725318 0.453324
vn -0.510902 0.715263 -0.476842
vn -0.518084 -0.725318 0.453324
vn -0.510902 -0.715263 -0.476842
vn 0.518084 -0.725318 0.453324
vn 0.510902 -0.715263 -0.476842
vn -1.000000 0.000000 0.000000
vn 0.000000 0.000000 -1.000000
vn 1.000000 0.000000 0.000000
vn 0.000000 0.000000 1.000000
vn 0.000000 -1.000000 0.000000
vn 0.000000 0.000000 -1.000000
vn 0.000000 1.000000 0.000000
vn 0.000000 0.000000 1.000000
g ceiling_mount
f 1/1/1 2/1/1 3/1/1
f 1/1/1 3/1/1 4/1/1
g neck
f 5/1/2 6/1/2 7/1/2
f 5/1/2 7/1/2 8/1/2
f 9/1/3 10/1/3 11/1/3
f 9/1/3 11/1/3 12/1/3
f 13/1/4 14/1/4 15/1/4
f 13/1/4 15/1/4 16/1/4
f 17/1/5 18/1/5 19/1/5
f 17/1/5 19/1/5 20/1/5
g emitter
f 21/2/6 22/2/6 23/2/6
f 24/2/7 25/2/7 26/2/7
f 27/2/8 28/2/8 29/2/8
f 30/2/9 31/2/9 32/2/9
f 33/2/10 34/2/10 35/2/10
f 36/2/11 37/2/11 38/2/11
f 39/2/12 40/2/12 41/2/12
f 42/2/13 43/2/13 44/2/13
g guard
f 45/4/14 46/4/14 47/4/14
f 45/4/14 47/4/14 48/4/14
f 49/4/15 50/4/15 51/4/15
f 49/4/15 51/4/15 52/4/15
f 53/4/16 54/4/16 55/4/16
f 53/4/16 55/4/16 56/4/16
f 57/4/17 58/4/17 59/4/17
f 57/4/17 59/4/17 60/4/17
f 61/4/18 62/4/18 63/4/18
f 61/4/18 63/4/18 64/4/18
f 65/4/19 66/4/19 67/4/19
f 65/4/19 67/4/19 68/4/19
f 69/4/20 70/4/20 71/4/20
f 69/4/20 71/4/20 72/4/20
f 73/4/21 74/4/21 75/4/21
f 73/4/21 75/4/21 76/4/21
