g Model_0_Alive
v -0.650000 1.150000 0.500000
v -0.650000 1.150000 0.000000
v -0.650000 1.400000 0.000000
v -0.650000 1.400000 0.500000
v -0.650000 1.400000 0.500000
v -0.650000 1.400000 0.000000
v -0.400000 1.400000 0.000000
v -0.400000 1.400000 0.500000
v -0.400000 1.400000 0.500000
v -0.400000 1.400000 0.000000
v -0.400000 1.150000 0.000000
v -0.400000 1.150000 0.500000
v -0.400000 1.150000 0.500000
v -0.400000 1.150000 0.000000
v -0.650000 1.150000 0.000000
v -0.650000 1.150000 0.500000
v 0.750000 1.500000 0.375000
v -0.750000 1.500000 0.375000
v -0.750000 -0.500000 0.375000
v 0.750000 -0.500000 0.375000
v 0.750000 -1.500000 0.474999
v -0.750000 -1.500000 0.474999
v 0.750000 1.499999 0.625000
v -0.750000 -0.500000 0.625000
v -0.750000 1.500000 0.625000
v 0.749999 -0.500001 0.625000
v -0.750001 -1.500000 0.724999
v 0.749999 -1.500001 0.724999
v 0.750000 1.500000 0.375000
v 0.749999 -0.500001 0.625000
v 0.750000 1.499999 0.625000
v 0.750000 -0.500000 0.375000
v 0.749999 -1.500001 0.724999
v 0.750000 -1.500000 0.474999
v -0.750000 -0.500000 0.375000
v -0.750000 1.500000 0.375000
v -0.750000 1.500000 0.625000
v -0.750000 -0.500000 0.625000
v -0.750000 -1.500000 0.474999
v -0.750001 -1.500000 0.724999
v 0.750000 1.499999 0.625000
v -0.750000 1.500000 0.625000
v -0.750000 1.500000 0.375000
v 0.750000 1.500000 0.375000
v 0.750000 -1.500000 0.474999
v -0.750000 -1.500000 0.474999
v -0.750001 -1.500000 0.724999
v 0.749999 -1.500001 0.724999
v 0.650000 1.150000 0.500000
v 0.650000 1.400000 0.500000
v 0.650000 1.400000 0.000000
v 0.650000 1.150000 0.000000
v 0.650000 1.400000 0.500000
v 0.400000 1.400000 0.500000
v 0.400000 1.400000 0.000000
v 0.650000 1.400000 0.000000
v 0.400000 1.400000 0.500000
v 0.400000 1.150000 0.500000
v 0.400000 1.150000 0.000000
v 0.400000 1.400000 0.000000
v 0.400000 1.150000 0.500000
v 0.650000 1.150000 0.500000
v 0.650000 1.150000 0.000000
v 0.400000 1.150000 0.000000
v -0.650000 -1.150000 0.500000
v -0.650000 -1.400000 0.500000
v -0.650000 -1.400000 0.000000
v -0.650000 -1.150000 0.000000
v -0.650000 -1.400000 0.500000
v -0.400000 -1.400000 0.500000
v -0.400000 -1.400000 0.000000
v -0.650000 -1.400000 0.000000
v -0.400000 -1.400000 0.500000
v -0.400000 -1.150000 0.500000
v -0.400000 -1.150000 0.000000
v -0.400000 -1.400000 0.000000
v -0.400000 -1.150000 0.500000
v -0.650000 -1.150000 0.500000
v -0.650000 -1.150000 0.000000
v -0.400000 -1.150000 0.000000
v 0.650000 -1.150000 0.500000
v 0.650000 -1.150000 0.000000
v 0.650000 -1.400000 0.000000
v 0.650000 -1.400000 0.500000
v 0.650000 -1.400000 0.500000
v 0.650000 -1.400000 0.000000
v 0.400000 -1.400000 0.000000
v 0.400000 -1.400000 0.500000
v 0.400000 -1.400000 0.500000
v 0.400000 -1.400000 0.000000
v 0.400000 -1.150000 0.000000
v 0.400000 -1.150000 0.500000
v 0.400000 -1.150000 0.500000
v 0.400000 -1.150000 0.000000
v 0.650000 -1.150000 0.000000
v 0.650000 -1.150000 0.500000
vt 0.475199699 0.209115982
vt 0.475199699 0.209115982
vt 0.475199699 0.209115982
vt 0.475199699 0.209115982
vt 0.475199699 0.209115982
vt 0.475199699 0.209115982
vt 0.475199699 0.209115982
vt 0.475199699 0.209115982
vt 0.475199699 0.209115982
vt 0.475199699 0.209115982
vt 0.475199699 0.209115982
vt 0.475199699 0.209115982
vt 0.475199699 0.209115982
vt 0.475199699 0.209115982
vt 0.475199699 0.209115982
vt 0.475199699 0.209115982
vt -1.91261983 0.637018085
vt -1.91261816 0.852927625
vt 0.949867845 0.852927387
vt 0.949864566 0.637017906
vt 2.38824558 0.637017787
vt 2.38824916 0.852927208
vt -1.91261816 0.852927566
vt 0.949864566 0.637017846
vt -1.91261983 0.637018085
vt 0.949867845 0.852927327
vt 2.38824558 0.637017727
vt 2.38824916 0.852927208
vt -1.91261816 0.852927625
vt 0.949864566 0.637017906
vt -1.91261983 0.637018144
vt 0.949867845 0.852927446
vt 2.38824558 0.637017667
vt 2.38824916 0.852927148
vt 0.949864566 0.637017906
vt -1.91261983 0.637018085
vt -1.91261816 0.852927625
vt 0.949867845 0.852927446
vt 2.38824558 0.637017846
vt 2.38824916 0.852927208
vt 0.236722335 0.780654371
vt 0.236722335 0.734913111
vt 0.206228182 0.734913111
vt 0.206228182 0.780654371
vt 0.236722335 0.781111777
vt 0.206228182 0.781111836
vt 0.206228182 0.826853037
vt 0.236722335 0.826853037
vt 0.475199699 0.209115982
vt 0.475199699 0.209115982
vt 0.475199699 0.209115982
vt 0.475199699 0.209115982
vt 0.475199699 0.209115982
vt 0.475199699 0.209115982
vt 0.475199699 0.209115982
vt 0.475199699 0.209115982
vt 0.475199699 0.209115982
vt 0.475199699 0.209115982
vt 0.475199699 0.209115982
vt 0.475199699 0.209115982
vt 0.475199699 0.209115982
vt 0.475199699 0.209115982
vt 0.475199699 0.209115982
vt 0.475199699 0.209115982
vt 0.475199699 0.209115982
vt 0.475199699 0.209115982
vt 0.475199699 0.209115982
vt 0.475199699 0.209115982
vt 0.475199699 0.209115982
vt 0.475199699 0.209115982
vt 0.475199699 0.209115982
vt 0.475199699 0.209115982
vt 0.475199699 0.209115982
vt 0.475199699 0.209115982
vt 0.475199699 0.209115982
vt 0.475199699 0.209115982
vt 0.475199699 0.209115982
vt 0.475199699 0.209115982
vt 0.475199699 0.209115982
vt 0.475199699 0.209115982
vt 0.475199699 0.209115982
vt 0.475199699 0.209115982
vt 0.475199699 0.209115982
vt 0.475199699 0.209115982
vt 0.475199699 0.209115982
vt 0.475199699 0.209115982
vt 0.475199699 0.209115982
vt 0.475199699 0.209115982
vt 0.475199699 0.209115982
vt 0.475199699 0.209115982
vt 0.475199699 0.209115982
vt 0.475199699 0.209115982
vt 0.475199699 0.209115982
vt 0.475199699 0.209115982
vt 0.475199699 0.209115982
vt 0.475199699 0.209115982
vn -1.000000 0.000000 0.000000
vn -1.000000 0.000000 0.000000
vn -1.000000 0.000000 0.000000
vn -1.000000 0.000000 0.000000
vn 0.000000 1.000000 0.000000
vn 0.000000 1.000000 0.000000
vn 0.000000 1.000000 0.000000
vn 0.000000 1.000000 0.000000
vn 1.000000 0.000000 0.000000
vn 1.000000 0.000000 0.000000
vn 1.000000 0.000000 0.000000
vn 1.000000 0.000000 0.000000
vn 0.000000 -1.000000 0.000000
vn 0.000000 -1.000000 0.000000
vn 0.000000 -1.000000 0.000000
vn 0.000000 -1.000000 0.000000
vn 0.000000 0.000000 -1.000000
vn 0.000000 0.000000 -1.000000
vn 0.000000 -0.049813 -0.998759
vn 0.000000 -0.049813 -0.998759
vn 0.000000 -0.099503 -0.995037
vn 0.000000 -0.099503 -0.995037
vn 0.000000 0.000000 1.000000
vn 0.000000 0.049813 0.998759
vn 0.000000 0.000000 1.000000
vn 0.000000 0.049813 0.998759
vn 0.000000 0.099503 0.995037
vn 0.000000 0.099503 0.995037
vn 1.000000 0.000000 0.000000
vn 1.000000 0.000000 0.000000
vn 1.000000 0.000000 0.000000
vn 1.000000 0.000000 0.000000
vn 1.000000 0.000000 0.000000
vn 1.000000 0.000000 0.000000
vn -1.000000 0.000000 0.000000
vn -1.000000 0.000000 0.000000
vn -1.000000 0.000000 0.000000
vn -1.000000 0.000000 0.000000
vn -1.000000 0.000000 0.000000
vn -1.000000 0.000000 0.000000
vn 0.000000 1.000000 0.000000
vn 0.000000 1.000000 0.000000
vn 0.000000 1.000000 0.000000
vn 0.000000 1.000000 0.000000
vn 0.000000 -1.000000 0.000000
vn 0.000000 -1.000000 0.000000
vn 0.000000 -1.000000 0.000000
vn 0.000000 -1.000000 0.000000
vn 1.000000 0.000000 0.000000
vn 1.000000 0.000000 0.000000
vn 1.000000 0.000000 0.000000
vn 1.000000 0.000000 0.000000
vn 0.000000 1.000000 0.000000
vn 0.000000 1.000000 0.000000
vn 0.000000 1.000000 0.000000
vn 0.000000 1.000000 0.000000
vn -1.000000 0.000000 0.000000
vn -1.000000 0.000000 0.000000
vn -1.000000 0.000000 0.000000
vn -1.000000 0.000000 0.000000
vn 0.000000 -1.000000 0.000000
vn 0.000000 -1.000000 0.000000
vn 0.000000 -1.000000 0.000000
vn 0.000000 -1.000000 0.000000
vn -1.000000 0.000000 0.000000
vn -1.000000 0.000000 0.000000
vn -1.000000 0.000000 0.000000
vn -1.000000 0.000000 0.000000
vn 0.000000 -1.000000 0.000000
vn 0.000000 -1.000000 0.000000
vn 0.000000 -1.000000 0.000000
vn 0.000000 -1.000000 0.000000
vn 1.000000 0.000000 0.000000
vn 1.000000 0.000000 0.000000
vn 1.000000 0.000000 0.000000
vn 1.000000 0.000000 0.000000
vn 0.000000 1.000000 0.000000
vn 0.000000 1.000000 0.000000
vn 0.000000 1.000000 0.000000
vn 0.000000 1.000000 0.000000
vn 1.000000 0.000000 0.000000
vn 1.000000 0.000000 0.000000
vn 1.000000 0.000000 0.000000
vn 1.000000 0.000000 0.000000
vn 0.000000 -1.000000 0.000000
vn 0.000000 -1.000000 0.000000
vn 0.000000 -1.000000 0.000000
vn 0.000000 -1.000000 0.000000
vn -1.000000 0.000000 0.000000
vn -1.000000 0.000000 0.000000
vn -1.000000 0.000000 0.000000
vn -1.000000 0.000000 0.000000
vn 0.000000 1.000000 0.000000
vn 0.000000 1.000000 0.000000
vn 0.000000 1.000000 0.000000
vn 0.000000 1.000000 0.000000
g Model_0_Alive_0
f 3/3/3 2/2/2 1/1/1
f 4/4/4 3/3/3 1/1/1
f 7/7/7 6/6/6 5/5/5
f 8/8/8 7/7/7 5/5/5
f 11/11/11 10/10/10 9/9/9
f 12/12/12 11/11/11 9/9/9
f 15/15/15 14/14/14 13/13/13
f 16/16/16 15/15/15 13/13/13
f 19/19/19 18/18/18 17/17/17
f 20/20/20 19/19/19 17/17/17
f 20/20/20 21/21/21 19/19/19
f 21/21/21 22/22/22 19/19/19
f 25/25/25 24/24/24 23/23/23
f 24/24/24 26/26/26 23/23/23
f 24/24/24 27/27/27 26/26/26
f 27/27/27 28/28/28 26/26/26
f 31/31/31 30/30/30 29/29/29
f 30/30/30 32/32/32 29/29/29
f 30/30/30 33/33/33 32/32/32
f 33/33/33 34/34/34 32/32/32
f 37/37/37 36/36/36 35/35/35
f 38/38/38 37/37/37 35/35/35
f 35/35/35 39/39/39 38/38/38
f 39/39/39 40/40/40 38/38/38
f 43/43/43 42/42/42 41/41/41
f 44/44/44 43/43/43 41/41/41
f 47/47/47 46/46/46 45/45/45
f 48/48/48 47/47/47 45/45/45
f 51/51/51 50/50/50 49/49/49
f 52/52/52 51/51/51 49/49/49
f 55/55/55 54/54/54 53/53/53
f 56/56/56 55/55/55 53/53/53
f 59/59/59 58/58/58 57/57/57
f 60/60/60 59/59/59 57/57/57
f 63/63/63 62/62/62 61/61/61
f 64/64/64 63/63/63 61/61/61
f 67/67/67 66/66/66 65/65/65
f 68/68/68 67/67/67 65/65/65
f 71/71/71 70/70/70 69/69/69
f 72/72/72 71/71/71 69/69/69
f 75/75/75 74/74/74 73/73/73
f 76/76/76 75/75/75 73/73/73
f 79/79/79 78/78/78 77/77/77
f 80/80/80 79/79/79 77/77/77
f 83/83/83 82/82/82 81/81/81
f 84/84/84 83/83/83 81/81/81
f 87/87/87 86/86/86 85/85/85
f 88/88/88 87/87/87 85/85/85
f 91/91/91 90/90/90 89/89/89
f 92/92/92 91/91/91 89/89/89
f 95/95/95 94/94/94 93/93/93
f 96/96/96 95/95/95 93/93/93