g Model_0
v -0.441821 -0.293218 0.000000
v -0.441821 -0.293218 0.667200
v -0.441821 -0.393218 1.709888
v 0.285571 -0.293218 0.000000
v 0.285571 -0.293218 0.667200
v 0.285571 -0.393218 1.709888
v -0.285571 -0.393218 1.709888
v -0.285571 -0.293218 0.667200
v -0.285571 -0.293218 0.000000
v 0.441821 -0.393218 1.709888
v 0.441821 -0.293218 0.667200
v 0.441821 -0.293218 0.000000
v 0.285571 -0.293218 0.667200
v 0.285571 -0.293218 0.000000
v 0.441821 -0.293218 0.000000
v 0.441821 -0.293218 0.667200
v 0.285571 -0.393218 1.709888
v 0.441821 -0.393218 1.709888
v -0.441821 -0.393218 1.709888
v -0.441821 -0.549468 1.709888
v -0.441821 -0.449468 0.667200
v -0.441821 -0.449468 0.000000
v -0.441821 -0.293218 0.000000
v 0.441821 -0.449468 0.667200
v 0.441821 -0.449468 0.000000
v 0.285571 -0.449468 0.000000
v 0.285571 -0.449468 0.667200
v 0.441821 -0.549468 1.709888
v 0.285571 -0.549468 1.709888
v 0.285571 -0.449468 0.000000
v 0.441821 -0.449468 0.000000
v 0.441821 -0.293218 0.000000
v 0.285571 -0.293218 0.000000
v 0.285571 0.449468 0.679566
v 0.285571 0.293218 0.679566
v 0.285571 0.293218 0.000000
v 0.285571 0.449468 0.000000
v 0.285571 0.293218 0.679566
v 0.441821 0.293218 0.679566
v 0.441821 0.293218 0.000000
v 0.285571 0.293218 0.000000
v 0.441821 0.293218 0.679566
v 0.441821 0.449468 0.679566
v 0.441821 0.449468 0.000000
v 0.441821 0.293218 0.000000
v 0.441821 0.449468 0.679566
v 0.285571 0.449468 0.679566
v 0.285571 0.449468 0.000000
v 0.441821 0.449468 0.000000
v 0.285571 0.449468 0.000000
v 0.285571 0.293218 0.000000
v 0.441821 0.293218 0.000000
v 0.441821 0.449468 0.000000
v 0.285571 -0.393218 1.709888
v 0.285571 -0.549468 1.709888
v 0.285571 -0.449468 0.667200
v 0.285571 -0.449468 0.000000
v 0.285571 -0.293218 0.000000
v -0.285571 -0.293218 0.667200
v -0.441821 -0.293218 0.000000
v -0.285571 -0.293218 0.000000
v -0.441821 -0.293218 0.667200
v -0.285571 -0.393218 1.709888
v -0.441821 -0.393218 1.709888
v -0.285571 -0.293218 0.000000
v -0.285571 -0.449468 0.000000
v -0.285571 -0.449468 0.667200
v -0.285571 -0.393218 1.709888
v -0.285571 -0.549468 1.709888
v -0.441821 -0.449468 0.667200
v -0.285571 -0.449468 0.000000
v -0.441821 -0.449468 0.000000
v -0.285571 -0.449468 0.667200
v -0.441821 -0.549468 1.709888
v -0.285571 -0.549468 1.709888
v -0.285571 -0.449468 0.000000
v -0.285571 -0.293218 0.000000
v -0.441821 -0.293218 0.000000
v -0.441821 -0.449468 0.000000
v -0.285571 0.449468 0.679566
v -0.285571 0.449468 0.000000
v -0.285571 0.293218 0.000000
v -0.285571 0.293218 0.679566
v -0.285571 0.293218 0.679566
v -0.285571 0.293218 0.000000
v -0.441821 0.293218 0.000000
v -0.441821 0.293218 0.679566
v -0.441821 0.293218 0.679566
v -0.441821 0.293218 0.000000
v -0.441821 0.449468 0.000000
v -0.441821 0.449468 0.679566
v -0.441821 0.449468 0.679566
v -0.441821 0.449468 0.000000
v -0.285571 0.449468 0.000000
v -0.285571 0.449468 0.679566
v -0.285571 0.449468 0.000000
v -0.441821 0.449468 0.000000
v -0.441821 0.293218 0.000000
v -0.285571 0.293218 0.000000
v 0.468750 -0.419276 1.154553
v -0.468750 -0.419276 1.154553
v -0.468750 -0.470946 1.745141
v 0.468750 -0.470946 1.745141
v 0.468750 -0.294752 1.165448
v 0.468750 -0.346422 1.756036
v -0.468750 -0.346422 1.756035
v -0.468750 -0.294752 1.165448
v 0.468750 -0.419276 1.154553
v 0.468750 -0.470946 1.745141
v 0.468750 -0.346422 1.756036
v 0.468750 -0.294752 1.165448
v 0.468750 -0.470946 1.745141
v -0.468750 -0.470946 1.745141
v -0.468750 -0.346422 1.756035
v 0.468750 -0.346422 1.756036
v -0.468750 -0.470946 1.745141
v -0.468750 -0.419276 1.154553
v -0.468750 -0.294752 1.165448
v -0.468750 -0.346422 1.756035
v 0.468750 -0.294752 1.165448
v -0.468750 -0.294752 1.165448
v -0.468750 -0.419276 1.154553
v 0.468750 -0.419276 1.154553
v 0.468750 0.468750 0.592757
v -0.468750 0.468750 0.592757
v -0.468750 -0.468750 0.592757
v 0.468750 -0.468750 0.592757
v 0.468750 0.468750 0.717757
v 0.468750 -0.468750 0.717757
v -0.468750 -0.468750 0.717757
v -0.468750 0.468750 0.717757
v 0.468750 0.468750 0.592757
v 0.468750 -0.468750 0.592757
v 0.468750 -0.468750 0.717757
v 0.468750 0.468750 0.717757
v 0.468750 -0.468750 0.592757
v -0.468750 -0.468750 0.592757
v -0.468750 -0.468750 0.717757
v 0.468750 -0.468750 0.717757
v -0.468750 -0.468750 0.592757
v -0.468750 0.468750 0.592757
v -0.468750 0.468750 0.717757
v -0.468750 -0.468750 0.717757
v 0.468750 0.468750 0.717757
v -0.468750 0.468750 0.717757
v -0.468750 0.468750 0.592757
v 0.468750 0.468750 0.592757
v -0.285571 -0.549468 1.709888
v -0.441821 -0.549468 1.709888
v -0.441821 -0.393218 1.709888
v -0.285571 -0.393218 1.709888
v 0.285571 -0.549468 1.709888
v 0.285571 -0.393218 1.709888
v 0.441821 -0.393218 1.709888
v 0.441821 -0.549468 1.709888
v 0.441821 -0.293218 0.000000
v 0.441821 -0.449468 0.000000
v 0.441821 -0.449468 0.667200
v 0.441821 -0.393218 1.709888
v 0.441821 -0.549468 1.709888
vt 0.230735004 0.465644985
vt 0.230735004 0.506053984
vt 0.230735004 0.546464026
vt 0.215774998 0.465644985
vt 0.215774998 0.506053984
vt 0.215774998 0.546464026
vt 0.215774998 0.546464026
vt 0.215774998 0.506053984
vt 0.215774998 0.465644985
vt 0.230735004 0.546464026
vt 0.230735004 0.506053984
vt 0.230735004 0.465644985
vt 0.245695993 0.506053984
vt 0.245695993 0.465644985
vt 0.238215998 0.465644985
vt 0.238215998 0.506053984
vt 0.245695993 0.546464026
vt 0.238215998 0.546464026
vt 0.230735004 0.546464026
vt 0.238215998 0.546464026
vt 0.238215998 0.506053984
vt 0.238215998 0.465644985
vt 0.230735004 0.465644985
vt 0.268135995 0.506053984
vt 0.268135995 0.465644985
vt 0.260655999 0.465644985
vt 0.260655999 0.506053984
vt 0.268135995 0.546464026
vt 0.260655999 0.546464026
vt 0.268135995 0.593773007
vt 0.27561599 0.593773007
vt 0.27561599 0.586387992
vt 0.268135995 0.586387992
vt 0.19483 0.554268003
vt 0.187350005 0.554268003
vt 0.187350005 0.586387992
vt 0.19483 0.586387992
vt 0.285874993 0.592881978
vt 0.293356001 0.592881978
vt 0.293356001 0.560761988
vt 0.285874993 0.560761988
vt 0.268135995 0.586387992
vt 0.27561599 0.586387992
vt 0.27561599 0.554268003
vt 0.268135995 0.554268003
vt 0.170893997 0.554268003
vt 0.163413003 0.554268003
vt 0.163414001 0.586387992
vt 0.170893997 0.586387992
vt 0.187350005 0.586387992
vt 0.187350005 0.593773007
vt 0.19483 0.593773007
vt 0.19483 0.586387992
vt 0.215774998 0.546464026
vt 0.223254994 0.546464026
vt 0.223254994 0.506053984
vt 0.223254994 0.465644985
vt 0.215774998 0.465644985
vt 0.245695993 0.506053984
vt 0.253176004 0.465644985
vt 0.245695993 0.465644985
vt 0.253176004 0.506053984
vt 0.245695993 0.546464026
vt 0.253176004 0.546464026
vt 0.215774998 0.465644985
vt 0.208295003 0.465644985
vt 0.208295003 0.506053984
vt 0.215774998 0.546464026
vt 0.208295003 0.546464026
vt 0.253176004 0.506053984
vt 0.260655999 0.465644985
vt 0.253176004 0.465644985
vt 0.260655999 0.506053984
vt 0.253176004 0.546464026
vt 0.260655999 0.546464026
vt 0.202310994 0.586387992
vt 0.19483 0.586387992
vt 0.19483 0.593773007
vt 0.202310994 0.593773007
vt 0.202310994 0.586387992
vt 0.202310994 0.554268003
vt 0.19483 0.554268003
vt 0.19483 0.586387992
vt 0.185854003 0.586387992
vt 0.185854003 0.554268003
vt 0.178374007 0.554268003
vt 0.178374007 0.586387992
vt 0.285874993 0.592881978
vt 0.285874993 0.560761988
vt 0.278394997 0.560761988
vt 0.278394997 0.592881978
vt 0.178374007 0.586387992
vt 0.178374007 0.554268003
vt 0.170893997 0.554268003
vt 0.170893997 0.586387992
vt 0.163413003 0.586387992
vt 0.163413003 0.593773007
vt 0.170893997 0.593773007
vt 0.170893997 0.586387992
vt 0.812152982 0.509956002
vt 0.812152982 0.554268003
vt 0.822412014 0.554268003
vt 0.822412014 0.509956002
vt 0.822412014 0.465644985
vt 0.812152982 0.465644985
vt 0.812152982 0.509956002
vt 0.822412014 0.509956002
vt 0.728375018 0.596517026
vt 0.728375018 0.586387992
vt 0.722391009 0.586387992
vt 0.722391009 0.596516013
vt 0.746326983 0.554268003
vt 0.746326983 0.59857899
vt 0.752310991 0.59857899
vt 0.752310991 0.554268003
vt 0.720893979 0.596517026
vt 0.720893979 0.586387992
vt 0.714909971 0.586387992
vt 0.714909971 0.596516013
vt 0.834379971 0.465644985
vt 0.834379971 0.509956002
vt 0.840363979 0.509956002
vt 0.840363979 0.465644985
vt 0.752310991 0.465644985
vt 0.707430005 0.465644985
vt 0.707430005 0.509956002
vt 0.752310991 0.509956002
vt 0.752310991 0.509956002
vt 0.707430005 0.509956002
vt 0.707430005 0.554268003
vt 0.752310991 0.554268003
vt 0.822412014 0.465644985
vt 0.822412014 0.509956002
vt 0.828396022 0.509956002
vt 0.828396022 0.465644985
vt 0.834379971 0.509956002
vt 0.834379971 0.465644985
vt 0.828396022 0.465644985
vt 0.828396022 0.509956002
vt 0.753807008 0.546464026
vt 0.753807008 0.590775013
vt 0.759791017 0.590775013
vt 0.759791017 0.546464026
vt 0.759791017 0.546464026
vt 0.759791017 0.590775013
vt 0.765775979 0.590775013
vt 0.765775979 0.546464026
vt 0.260655999 0.546464026
vt 0.238215998 0.546464026
vt 0.253176004 0.546464026
vt 0.215774998 0.546464026
vt 0.268135995 0.546464026
vt 0.223254994 0.546464026
vt 0.245695993 0.546464026
vt 0.230735004 0.546464026
vt 0.230735004 0.465644985
vt 0.223254994 0.465644985
vt 0.223254994 0.506053984
vt 0.230735004 0.546464026
vt 0.223254994 0.546464026
vn -1.000000 0.000000 0.000000
vn -1.000000 0.000000 0.000000
vn -1.000000 0.000000 0.000000
vn -1.000000 0.000000 0.000000
vn -1.000000 0.000000 0.000000
vn -1.000000 0.000000 0.000000
vn 1.000000 0.000000 0.000000
vn 1.000000 0.000000 0.000000
vn 1.000000 0.000000 0.000000
vn 1.000000 0.000000 0.000000
vn 1.000000 0.000000 0.000000
vn 1.000000 0.000000 0.000000
vn 0.000000 0.998857 0.047789
vn 0.000000 1.000000 0.000000
vn 0.000000 1.000000 0.000000
vn 0.000000 0.998857 0.047789
vn 0.000000 0.995433 0.095468
vn 0.000000 0.995433 0.095468
vn -1.000000 0.000000 0.000000
vn -1.000000 0.000000 0.000000
vn -1.000000 0.000000 0.000000
vn -1.000000 0.000000 0.000000
vn -1.000000 0.000000 0.000000
vn 0.000000 -0.998857 -0.047789
vn 0.000000 -1.000000 0.000000
vn 0.000000 -1.000000 0.000000
vn 0.000000 -0.998857 -0.047789
vn 0.000000 -0.995433 -0.095468
vn 0.000000 -0.995433 -0.095468
vn 0.000000 0.000000 -1.000000
vn 0.000000 0.000000 -1.000000
vn 0.000000 0.000000 -1.000000
vn 0.000000 0.000000 -1.000000
vn -1.000000 0.000000 0.000000
vn -1.000000 0.000000 0.000000
vn -1.000000 0.000000 0.000000
vn -1.000000 0.000000 0.000000
vn 0.000000 -1.000000 0.000000
vn 0.000000 -1.000000 0.000000
vn 0.000000 -1.000000 0.000000
vn 0.000000 -1.000000 0.000000
vn 1.000000 0.000000 0.000000
vn 1.000000 0.000000 0.000000
vn 1.000000 0.000000 0.000000
vn 1.000000 0.000000 0.000000
vn 0.000000 1.000000 0.000000
vn 0.000000 1.000000 0.000000
vn 0.000000 1.000000 0.000000
vn 0.000000 1.000000 0.000000
vn 0.000000 0.000000 -1.000000
vn 0.000000 0.000000 -1.000000
vn 0.000000 0.000000 -1.000000
vn 0.000000 0.000000 -1.000000
vn -1.000000 0.000000 0.000000
vn -1.000000 0.000000 0.000000
vn -1.000000 0.000000 0.000000
vn -1.000000 0.000000 0.000000
vn -1.000000 0.000000 0.000000
vn 0.000000 0.998857 0.047789
vn 0.000000 1.000000 0.000000
vn 0.000000 1.000000 0.000000
vn 0.000000 0.998857 0.047789
vn 0.000000 0.995433 0.095468
vn 0.000000 0.995433 0.095468
vn 1.000000 0.000000 0.000000
vn 1.000000 0.000000 0.000000
vn 1.000000 0.000000 0.000000
vn 1.000000 0.000000 0.000000
vn 1.000000 0.000000 0.000000
vn 0.000000 -0.998857 -0.047789
vn 0.000000 -1.000000 0.000000
vn 0.000000 -1.000000 0.000000
vn 0.000000 -0.998857 -0.047789
vn 0.000000 -0.995433 -0.095468
vn 0.000000 -0.995433 -0.095468
vn 0.000000 0.000000 -1.000000
vn 0.000000 0.000000 -1.000000
vn 0.000000 0.000000 -1.000000
vn 0.000000 0.000000 -1.000000
vn 1.000000 0.000000 0.000000
vn 1.000000 0.000000 0.000000
vn 1.000000 0.000000 0.000000
vn 1.000000 0.000000 0.000000
vn 0.000000 -1.000000 0.000000
vn 0.000000 -1.000000 0.000000
vn 0.000000 -1.000000 0.000000
vn 0.000000 -1.000000 0.000000
vn -1.000000 0.000000 0.000000
vn -1.000000 0.000000 0.000000
vn -1.000000 0.000000 0.000000
vn -1.000000 0.000000 0.000000
vn 0.000000 1.000000 0.000000
vn 0.000000 1.000000 0.000000
vn 0.000000 1.000000 0.000000
vn 0.000000 1.000000 0.000000
vn 0.000000 0.000000 -1.000000
vn 0.000000 0.000000 -1.000000
vn 0.000000 0.000000 -1.000000
vn 0.000000 0.000000 -1.000000
vn 0.000000 -0.996195 -0.087156
vn 0.000000 -0.996195 -0.087156
vn 0.000000 -0.996195 -0.087156
vn 0.000000 -0.996195 -0.087156
vn 0.000000 0.996195 0.087156
vn 0.000000 0.996195 0.087156
vn 0.000000 0.996195 0.087156
vn 0.000000 0.996195 0.087156
vn 1.000000 0.000000 0.000000
vn 1.000000 0.000000 0.000000
vn 1.000000 0.000000 0.000000
vn 1.000000 0.000000 0.000000
vn 0.000000 -0.087156 0.996195
vn 0.000000 -0.087156 0.996195
vn 0.000000 -0.087156 0.996195
vn 0.000000 -0.087156 0.996195
vn -1.000000 0.000000 0.000000
vn -1.000000 0.000000 0.000000
vn -1.000000 0.000000 0.000000
vn -1.000000 0.000000 0.000000
vn 0.000000 0.087159 -0.996194
vn 0.000000 0.087159 -0.996194
vn 0.000000 0.087159 -0.996194
vn 0.000000 0.087159 -0.996194
vn 0.000000 0.000000 -1.000000
vn 0.000000 0.000000 -1.000000
vn 0.000000 0.000000 -1.000000
vn 0.000000 0.000000 -1.000000
vn 0.000000 0.000000 1.000000
vn 0.000000 0.000000 1.000000
vn 0.000000 0.000000 1.000000
vn 0.000000 0.000000 1.000000
vn 1.000000 0.000000 0.000000
vn 1.000000 0.000000 0.000000
vn 1.000000 0.000000 0.000000
vn 1.000000 0.000000 0.000000
vn 0.000000 -1.000000 0.000000
vn 0.000000 -1.000000 0.000000
vn 0.000000 -1.000000 0.000000
vn 0.000000 -1.000000 0.000000
vn -1.000000 0.000000 0.000000
vn -1.000000 0.000000 0.000000
vn -1.000000 0.000000 0.000000
vn -1.000000 0.000000 0.000000
vn 0.000000 1.000000 0.000000
vn 0.000000 1.000000 0.000000
vn 0.000000 1.000000 0.000000
vn 0.000000 1.000000 0.000000
vn 0.000000 0.000000 1.000000
vn 0.000000 0.000000 1.000000
vn 0.000000 0.000000 1.000000
vn 0.000000 0.000000 1.000000
vn 0.000000 0.000000 1.000000
vn 0.000000 0.000000 1.000000
vn 0.000000 0.000000 1.000000
vn 0.000000 0.000000 1.000000
vn 1.000000 0.000000 0.000000
vn 1.000000 0.000000 0.000000
vn 1.000000 0.000000 0.000000
vn 1.000000 0.000000 0.000000
vn 1.000000 0.000000 0.000000
g Model_0_0
f 3/3/3 2/2/2 1/1/1
f 6/6/6 5/5/5 4/4/4
f 9/9/9 8/8/8 7/7/7
f 12/12/12 11/11/11 10/10/10
f 15/15/15 14/14/14 13/13/13
f 16/16/16 15/15/15 13/13/13
f 16/16/16 13/13/13 17/17/17
f 18/18/18 16/16/16 17/17/17
f 21/21/21 20/20/20 19/19/19
f 19/19/19 22/22/22 21/21/21
f 19/19/19 23/23/23 22/22/22
f 26/26/26 25/25/25 24/24/24
f 27/27/27 26/26/26 24/24/24
f 27/27/27 24/24/24 28/28/28
f 29/29/29 27/27/27 28/28/28
f 32/32/32 31/31/31 30/30/30
f 33/33/33 32/32/32 30/30/30
f 36/36/36 35/35/35 34/34/34
f 37/37/37 36/36/36 34/34/34
f 40/40/40 39/39/39 38/38/38
f 41/41/41 40/40/40 38/38/38
f 44/44/44 43/43/43 42/42/42
f 45/45/45 44/44/44 42/42/42
f 48/48/48 47/47/47 46/46/46
f 49/49/49 48/48/48 46/46/46
f 52/52/52 51/51/51 50/50/50
f 53/53/53 52/52/52 50/50/50
f 56/56/56 55/55/55 54/54/54
f 54/54/54 57/57/57 56/56/56
f 54/54/54 58/58/58 57/57/57
f 61/61/61 60/60/60 59/59/59
f 60/60/60 62/62/62 59/59/59
f 59/59/59 62/62/62 63/63/63
f 62/62/62 64/64/64 63/63/63
f 67/67/67 66/66/66 65/65/65
f 65/65/65 68/68/68 67/67/67
f 69/69/69 67/67/67 68/68/68
f 72/72/72 71/71/71 70/70/70
f 71/71/71 73/73/73 70/70/70
f 70/70/70 73/73/73 74/74/74
f 73/73/73 75/75/75 74/74/74
f 78/78/78 77/77/77 76/76/76
f 79/79/79 78/78/78 76/76/76
f 82/82/82 81/81/81 80/80/80
f 83/83/83 82/82/82 80/80/80
f 86/86/86 85/85/85 84/84/84
f 87/87/87 86/86/86 84/84/84
f 90/90/90 89/89/89 88/88/88
f 91/91/91 90/90/90 88/88/88
f 94/94/94 93/93/93 92/92/92
f 95/95/95 94/94/94 92/92/92
f 98/98/98 97/97/97 96/96/96
f 99/99/99 98/98/98 96/96/96
f 102/102/102 101/101/101 100/100/100
f 103/103/103 102/102/102 100/100/100
f 106/106/106 105/105/105 104/104/104
f 107/107/107 106/106/106 104/104/104
f 110/110/110 109/109/109 108/108/108
f 111/111/111 110/110/110 108/108/108
f 114/114/114 113/113/113 112/112/112
f 115/115/115 114/114/114 112/112/112
f 118/118/118 117/117/117 116/116/116
f 119/119/119 118/118/118 116/116/116
f 122/122/122 121/121/121 120/120/120
f 123/123/123 122/122/122 120/120/120
f 126/126/126 125/125/125 124/124/124
f 127/127/127 126/126/126 124/124/124
f 130/130/130 129/129/129 128/128/128
f 131/131/131 130/130/130 128/128/128
f 134/134/134 133/133/133 132/132/132
f 135/135/135 134/134/134 132/132/132
f 138/138/138 137/137/137 136/136/136
f 139/139/139 138/138/138 136/136/136
f 142/142/142 141/141/141 140/140/140
f 143/143/143 142/142/142 140/140/140
f 146/146/146 145/145/145 144/144/144
f 147/147/147 146/146/146 144/144/144
f 150/150/150 149/149/149 148/148/148
f 151/151/151 150/150/150 148/148/148
f 154/154/154 153/153/153 152/152/152
f 155/155/155 154/154/154 152/152/152
f 158/158/158 157/157/157 156/156/156
f 156/156/156 159/159/159 158/158/158
f 160/160/160 158/158/158 159/159/159