g Model_0
v -1.90000105 0.100000001 1.27431202
v -1.90000105 0.100000001 1.07431197
v -1.90000105 0.899999976 1.07431197
v -1.90000105 0.899999976 1.27431202
v -1.90000105 0.899999976 1.27431202
v -1.90000105 0.899999976 1.07431197
v 0.899999022 0.899999976 1.07431197
v 0.899999022 0.899999976 1.27431202
v 0.899999022 0.899999976 1.27431202
v 0.899999022 0.899999976 1.07431197
v 0.899999022 0.100000001 1.07431197
v 0.899999022 0.100000001 1.27431202
v 0.899999022 0.100000001 1.27431202
v 0.899999022 0.100000001 1.07431197
v -1.90000105 0.100000001 1.07431197
v -1.90000105 0.100000001 1.27431202
v 0.899999022 0.100000001 1.27431202
v -1.90000105 0.100000001 1.27431202
v -1.90000105 0.899999976 1.27431202
v 0.899999022 0.899999976 1.27431202
v 1 0 0
v 1 -1 0
v 0.999998987 -1 1.25
v 0.999998987 0 1.25
v 1 1 0
v 1.00000095 1 1.25
v -9.99999997E-07 0 1.25
v -9.99999997E-07 -1 1.25
v -0 -1 0
v -0 0 0
v 0.999998987 0 1.25
v 0.999998987 -1 1.25
v -9.99999997E-07 -1 1.25
v -9.99999997E-07 0 1.25
v 1.00000095 1 1.25
v 9.99999997E-07 1 1.25
v -2 0 1.25
v -2 1 1.25
v -2 0 0
v -1.99999905 1 0
v -2 1 1.25
v -2 0 1.25
v 1 -1 0
v -0 -1 0
v -9.99999997E-07 -1 1.25
v 0.999998987 -1 1.25
v 1.00000095 1 1.25
v -0 1 0
v 1 1 0
v 9.99999997E-07 1 1.25
v -1.99999905 1 0
v -2 1 1.25
v -0 0 0
v -2 0 0
v -2 0 1.25
v -9.99999997E-07 0 1.25
vt 0.846279025 0.531211972
vt 0.876176 0.531211972
vt 0.876176 0.438198
vt 0.846279025 0.438198
vt 0.816381991 0.554464996
vt 0.846279025 0.554464996
vt 0.846279025 0.345185012
vt 0.816381991 0.345185012
vt 0.846279025 0.438198
vt 0.876176 0.438198
vt 0.876176 0.345185012
vt 0.846279025 0.345185012
vt 0.786485016 0.554464996
vt 0.816381991 0.554464996
vt 0.816381991 0.345185012
vt 0.786485016 0.345185012
vt 0.786485016 0.554464996
vt 0.786485016 0.345185012
vt 0.666895986 0.345185012
vt 0.666895986 0.554464996
vt 0.291319996 0.537899971
vt 0.291319996 0.504204988
vt 0.254402012 0.504204988
vt 0.254402012 0.537899971
vt 0.291319996 0.564855993
vt 0.254402012 0.564855993
vt 0.291319996 0.504204988
vt 0.322084993 0.504204988
vt 0.322084993 0.463771999
vt 0.291319996 0.463771999
vt 0.223637998 0.504204988
vt 0.254402012 0.504204988
vt 0.254402012 0.47725001
vt 0.223637998 0.47725001
vt 0.199026003 0.504204988
vt 0.199026003 0.47725001
vt 0.223637998 0.423337996
vt 0.199026003 0.423337996
vt 0.340543002 0.504204988
vt 0.315932006 0.504204988
vt 0.315932006 0.544638991
vt 0.340543002 0.544638991
vt 0.291319996 0.544638991
vt 0.315932006 0.544638991
vt 0.315932006 0.504204988
vt 0.291319996 0.504204988
vt 0.254402012 0.423337996
vt 0.291319996 0.450293988
vt 0.291319996 0.423337996
vt 0.254402012 0.450293988
vt 0.291319996 0.504204988
vt 0.254402012 0.504204988
vt 0.235943004 0.558116972
vt 0.235943004 0.504204988
vt 0.199026003 0.504204988
vt 0.199026003 0.558116972
vn -1 0 0
vn -1 0 0
vn -1 0 0
vn -1 0 0
vn -0 1 0
vn -0 1 0
vn -0 1 0
vn -0 1 0
vn 1 0 0
vn 1 0 0
vn 1 0 0
vn 1 0 0
vn -0 -1 0
vn -0 -1 0
vn -0 -1 0
vn -0 -1 0
vn -0 0 1
vn -0 0 1
vn -0 0 1
vn -0 0 1
vn 1 0 0
vn 1 0 0
vn 1 0 0
vn 1 0 0
vn 1 0 0
vn 1 0 0
vn -1 0 0
vn -1 0 0
vn -1 0 0
vn -1 0 0
vn -0 0 1
vn -0 0 1
vn -0 0 1
vn -0 0 1
vn -0 0 1
vn -0 0 1
vn -0 0 1
vn -0 0 1
vn -1 0 0
vn -1 0 0
vn -1 0 0
vn -1 0 0
vn -0 -1 0
vn -0 -1 0
vn -0 -1 0
vn -0 -1 0
vn -0 1 0
vn -0 1 0
vn -0 1 0
vn -0 1 0
vn -0 1 0
vn -0 1 0
vn -0 -1 0
vn -0 -1 0
vn -0 -1 0
vn -0 -1 0
g Model_0_0
f 3/3/3 2/2/2 1/1/1
f 4/4/4 3/3/3 1/1/1
f 7/7/7 6/6/6 5/5/5
f 8/8/8 7/7/7 5/5/5
f 11/11/11 10/10/10 9/9/9
f 12/12/12 11/11/11 9/9/9
f 15/15/15 14/14/14 13/13/13
f 16/16/16 15/15/15 13/13/13
f 19/19/19 18/18/18 17/17/17
f 20/20/20 19/19/19 17/17/17
f 23/23/23 22/22/22 21/21/21
f 24/24/24 23/23/23 21/21/21
f 24/24/24 21/21/21 25/25/25
f 26/26/26 24/24/24 25/25/25
f 29/29/29 28/28/28 27/27/27
f 30/30/30 29/29/29 27/27/27
f 33/33/33 32/32/32 31/31/31
f 34/34/34 33/33/33 31/31/31
f 34/34/34 31/31/31 35/35/35
f 36/36/36 34/34/34 35/35/35
f 37/37/37 34/34/34 36/36/36
f 38/38/38 37/37/37 36/36/36
f 41/41/41 40/40/40 39/39/39
f 42/42/42 41/41/41 39/39/39
f 45/45/45 44/44/44 43/43/43
f 46/46/46 45/45/45 43/43/43
f 49/49/49 48/48/48 47/47/47
f 48/48/48 50/50/50 47/47/47
f 48/48/48 51/51/51 50/50/50
f 51/51/51 52/52/52 50/50/50
f 55/55/55 54/54/54 53/53/53
f 56/56/56 55/55/55 53/53/53
