g XMAS_Circle_01_0
v 0.0624999925 -5.99999905 -0.0100002289
v -0.0624999925 -5.99999905 -0.0100002289
v -0.0624999925 6.00000095 -0.00999975204
v 0.0624999925 6.00000095 -0.00999975204
v 6 0.0625014305 -0.00999999698
v 6 -0.0624985695 -0.0100000044
v -5.99999905 -0.0624995232 -0.0100000044
v -5.99999905 0.0625004768 -0.00999999698
v 4.3022275 -4.23972797 -0.0100002289
v 4.1772275 -4.23972797 -0.0100002289
v 4.18198395 4.23972988 -0.00999975204
v 4.29746914 4.23972988 -0.00999975204
v -4.23973036 4.17722988 -0.00999975204
v -4.23973036 4.30222988 -0.00999975204
v 4.23972654 4.29747248 -0.00999975204
v 4.23972654 4.18198729 -0.00999975204
v 4.28392172 -4.19553375 -0.0100002289
v 4.19553328 -4.2839222 -0.0100002289
v -0.0441941693 5.95580673 -0.00999975204
v 0.0441941693 6.0441947 -0.00999975204
v 5.972826 0.0529403687 -0.00999999698
v 6.01893711 -0.0529398918 -0.0100000044
v -4.21477556 -4.2970295 -0.0100002289
v -4.26468515 -4.18242645 -0.0100002289
v -4.3022275 4.23972988 -0.00999975204
v -4.1772275 4.23972988 -0.00999975204
v -4.18198395 -4.23972797 -0.0100002289
v -4.29746914 -4.23972797 -0.0100002289
v 0.33391124 -5.19386625 0.00999975204
v 0.707107306 -5.2928915 0.00999975204
v 0.616987348 -5.38301182 0.00999975204
v 0.806132853 -5.6660881 0.00999975204
v 0.382683784 -5.07611942 0.00999975204
v 0.923880219 -5.61731482 0.00999975204
v 8.34464913E-07 -4.99999905 0.00999975204
v 8.57701082E-07 -5.12744808 0.00999975204
v 1.00000072 -5.99999857 0.00999975204
v 0.872551858 -5.99999857 0.00999975204
v -0.333910018 -5.19386625 0.00999975204
v -0.382682592 -5.07611942 0.00999975204
v 0.806132853 -6.33390999 0.00999975204
v 0.923880279 -6.3826828 0.00999975204
v -0.707105875 -5.29289246 0.00999975204
v -0.616985857 -5.38301182 0.00999975204
v 0.707107365 -6.70710611 0.00999975204
v 0.616987407 -6.6169858 0.00999975204
v -0.806131184 -5.6660881 0.00999975204
v -0.92387861 -5.61731577 0.00999975204
v 0.333911479 -6.80613136 0.00999975204
v 0.382684022 -6.92387867 0.00999975204
v -0.999999046 -5.99999857 0.00999975204
v -0.872550189 -5.99999857 0.00999975204
v 6.83469182E-07 -6.99999857 0.00999975204
v 7.03800765E-07 -6.87255001 0.00999975204
v -0.806131184 -6.33390999 0.00999975204
v -0.92387861 -6.3826828 0.00999975204
v -0.333910018 -6.80613136 0.00999975204
v -0.382682592 -6.92387867 0.00999975204
v -0.707105875 -6.70710564 0.00999975204
v -0.616985857 -6.6169858 0.00999975204
vt 0.580890775 0.260899961
vt 0.580890775 0.260899961
vt 0.580890775 0.260899961
vt 0.580890775 0.260899961
vt 0.580890775 0.260899961
vt 0.580890775 0.260899961
vt 0.580890775 0.260899961
vt 0.580890775 0.260899961
vt 0.580890775 0.260899961
vt 0.580890775 0.260899961
vt 0.580890775 0.260899961
vt 0.580890775 0.260899961
vt 0.580890775 0.260899961
vt 0.580890775 0.260899961
vt 0.580890775 0.260899961
vt 0.580890775 0.260899961
vt 0.580890775 0.260899961
vt 0.580890775 0.260899961
vt 0.580890775 0.260899961
vt 0.580890775 0.260899961
vt 0.580890775 0.260899961
vt 0.580890775 0.260899961
vt 0.580890775 0.260899961
vt 0.580890775 0.260899961
vt 0.580890775 0.260899961
vt 0.580890775 0.260899961
vt 0.580890775 0.260899961
vt 0.580890775 0.260899961
vt 0.576776803 0.252338469
vt 0.576776803 0.252338469
vt 0.576776803 0.252338469
vt 0.576776803 0.252338469
vt 0.576776803 0.252338469
vt 0.576776803 0.252338469
vt 0.576776803 0.252338469
vt 0.576776803 0.252338469
vt 0.576776803 0.252338469
vt 0.576776803 0.252338469
vt 0.576776803 0.252338469
vt 0.576776803 0.252338469
vt 0.576776803 0.252338469
vt 0.576776803 0.252338469
vt 0.576776803 0.252338469
vt 0.576776803 0.252338469
vt 0.576776803 0.252338469
vt 0.576776803 0.252338469
vt 0.576776803 0.252338469
vt 0.576776803 0.252338469
vt 0.576776803 0.252338469
vt 0.576776803 0.252338469
vt 0.576776803 0.252338469
vt 0.576776803 0.252338469
vt 0.576776803 0.252338469
vt 0.576776803 0.252338469
vt 0.576776803 0.252338469
vt 0.576776803 0.252338469
vt 0.576776803 0.252338469
vt 0.576776803 0.252338469
vt 0.576776803 0.252338469
vt 0.576776803 0.252338469
vn -0 0 1
vn -0 0 1
vn -0 0 1
vn -0 0 1
vn -0 0 1
vn -0 0 1
vn -0 0 1
vn -0 0 1
vn -0 0 1
vn -0 0 1
vn -0 0 1
vn -0 0 1
vn -0 0 1
vn -0 0 1
vn -0 0 1
vn -0 0 1
vn -0 0 1
vn -0 0 1
vn -0 0 1
vn -0 0 1
vn -0 0 1
vn -0 0 1
vn -0 0 1
vn -0 0 1
vn -0 0 1
vn -0 0 1
vn -0 0 1
vn -0 0 1
vn -0 0 1
vn -0 0 1
vn -0 0 1
vn -0 0 1
vn -0 0 1
vn -0 0 1
vn -0 0 1
vn -0 0 1
vn -0 0 1
vn -0 0 1
vn -0 0 1
vn -0 0 1
vn -0 0 1
vn -0 0 1
vn -0 0 1
vn -0 0 1
vn -0 0 1
vn -0 0 1
vn -0 0 1
vn -0 0 1
vn -0 0 1
vn -0 0 1
vn -0 0 1
vn -0 0 1
vn -0 0 1
vn -0 0 1
vn -0 0 1
vn -0 0 1
vn -0 0 1
vn -0 0 1
vn -0 0 1
vn -0 0 1
g XMAS_Circle_01_0_0
f 3/3/3 2/2/2 1/1/1
f 4/4/4 3/3/3 1/1/1
f 7/7/7 6/6/6 5/5/5
f 8/8/8 7/7/7 5/5/5
f 11/11/11 10/10/10 9/9/9
f 12/12/12 11/11/11 9/9/9
f 15/15/15 14/14/14 13/13/13
f 16/16/16 15/15/15 13/13/13
f 19/19/19 18/18/18 17/17/17
f 20/20/20 19/19/19 17/17/17
f 23/23/23 22/22/22 21/21/21
f 24/24/24 23/23/23 21/21/21
f 27/27/27 26/26/26 25/25/25
f 28/28/28 27/27/27 25/25/25
f 31/31/31 30/30/30 29/29/29
f 31/31/31 32/32/32 30/30/30
f 33/33/33 29/29/29 30/30/30
f 30/30/30 32/32/32 34/34/34
f 35/35/35 29/29/29 33/33/33
f 29/29/29 35/35/35 36/36/36
f 34/34/34 32/32/32 37/37/37
f 38/38/38 37/37/37 32/32/32
f 36/36/36 35/35/35 39/39/39
f 40/40/40 39/39/39 35/35/35
f 38/38/38 41/41/41 37/37/37
f 37/37/37 41/41/41 42/42/42
f 43/43/43 39/39/39 40/40/40
f 39/39/39 43/43/43 44/44/44
f 42/42/42 41/41/41 45/45/45
f 41/41/41 46/46/46 45/45/45
f 44/44/44 43/43/43 47/47/47
f 48/48/48 47/47/47 43/43/43
f 46/46/46 49/49/49 45/45/45
f 45/45/45 49/49/49 50/50/50
f 51/51/51 47/47/47 48/48/48
f 47/47/47 51/51/51 52/52/52
f 50/50/50 49/49/49 53/53/53
f 49/49/49 54/54/54 53/53/53
f 52/52/52 51/51/51 55/55/55
f 56/56/56 55/55/55 51/51/51
f 54/54/54 57/57/57 53/53/53
f 53/53/53 57/57/57 58/58/58
f 59/59/59 55/55/55 56/56/56
f 58/58/58 57/57/57 59/59/59
f 60/60/60 55/55/55 59/59/59
f 57/57/57 60/60/60 59/59/59
