g XMAS_Circle_02_0
v 0.333911 0.806133 0.010000
v 0.707107 0.707108 0.010000
v 0.616987 0.616988 0.010000
v 0.806133 0.333912 0.010000
v 0.382684 0.923881 0.010000
v 0.923880 0.382685 0.010000
v 0.000001 1.000001 0.010000
v 0.000001 0.872552 0.010000
v 1.000001 0.000001 0.010000
v 0.872552 0.000001 0.010000
v -0.333910 0.806133 0.010000
v -0.382683 0.923881 0.010000
v 0.806133 -0.333910 0.010000
v 0.923880 -0.382683 0.010000
v -0.707106 0.707108 0.010000
v -0.616986 0.616988 0.010000
v 0.707107 -0.707106 0.010000
v 0.616987 -0.616986 0.010000
v -0.806131 0.333912 0.010000
v -0.923879 0.382684 0.010000
v 0.333911 -0.806131 0.010000
v 0.382684 -0.923879 0.010000
v -0.999999 0.000001 0.010000
v -0.872550 0.000001 0.010000
v 0.000001 -0.999999 0.010000
v 0.000001 -0.872550 0.010000
v -0.806131 -0.333910 0.010000
v -0.923879 -0.382683 0.010000
v -0.333910 -0.806131 0.010000
v -0.382683 -0.923879 0.010000
v -0.707106 -0.707106 0.010000
v -0.616986 -0.616986 0.010000
vt 0.576776803 0.252338469
vt 0.576776803 0.252338469
vt 0.576776803 0.252338469
vt 0.576776803 0.252338469
vt 0.576776803 0.252338469
vt 0.576776803 0.252338469
vt 0.576776803 0.252338469
vt 0.576776803 0.252338469
vt 0.576776803 0.252338469
vt 0.576776803 0.252338469
vt 0.576776803 0.252338469
vt 0.576776803 0.252338469
vt 0.576776803 0.252338469
vt 0.576776803 0.252338469
vt 0.576776803 0.252338469
vt 0.576776803 0.252338469
vt 0.576776803 0.252338469
vt 0.576776803 0.252338469
vt 0.576776803 0.252338469
vt 0.576776803 0.252338469
vt 0.576776803 0.252338469
vt 0.576776803 0.252338469
vt 0.576776803 0.252338469
vt 0.576776803 0.252338469
vt 0.576776803 0.252338469
vt 0.576776803 0.252338469
vt 0.576776803 0.252338469
vt 0.576776803 0.252338469
vt 0.576776803 0.252338469
vt 0.576776803 0.252338469
vt 0.576776803 0.252338469
vt 0.576776803 0.252338469
vn 0.000000 0.000000 1.000000
vn 0.000000 0.000000 1.000000
vn 0.000000 0.000000 1.000000
vn 0.000000 0.000000 1.000000
vn 0.000000 0.000000 1.000000
vn 0.000000 0.000000 1.000000
vn 0.000000 0.000000 1.000000
vn 0.000000 0.000000 1.000000
vn 0.000000 0.000000 1.000000
vn 0.000000 0.000000 1.000000
vn 0.000000 0.000000 1.000000
vn 0.000000 0.000000 1.000000
vn 0.000000 0.000000 1.000000
vn 0.000000 0.000000 1.000000
vn 0.000000 0.000000 1.000000
vn 0.000000 0.000000 1.000000
vn 0.000000 0.000000 1.000000
vn 0.000000 0.000000 1.000000
vn 0.000000 0.000000 1.000000
vn 0.000000 0.000000 1.000000
vn 0.000000 0.000000 1.000000
vn 0.000000 0.000000 1.000000
vn 0.000000 0.000000 1.000000
vn 0.000000 0.000000 1.000000
vn 0.000000 0.000000 1.000000
vn 0.000000 0.000000 1.000000
vn 0.000000 0.000000 1.000000
vn 0.000000 0.000000 1.000000
vn 0.000000 0.000000 1.000000
vn 0.000000 0.000000 1.000000
vn 0.000000 0.000000 1.000000
vn 0.000000 0.000000 1.000000
g XMAS_Circle_02_0_0
f 3/3/3 2/2/2 1/1/1
f 3/3/3 4/4/4 2/2/2
f 5/5/5 1/1/1 2/2/2
f 2/2/2 4/4/4 6/6/6
f 7/7/7 1/1/1 5/5/5
f 1/1/1 7/7/7 8/8/8
f 6/6/6 4/4/4 9/9/9
f 10/10/10 9/9/9 4/4/4
f 8/8/8 7/7/7 11/11/11
f 12/12/12 11/11/11 7/7/7
f 10/10/10 13/13/13 9/9/9
f 9/9/9 13/13/13 14/14/14
f 15/15/15 11/11/11 12/12/12
f 11/11/11 15/15/15 16/16/16
f 14/14/14 13/13/13 17/17/17
f 13/13/13 18/18/18 17/17/17
f 16/16/16 15/15/15 19/19/19
f 20/20/20 19/19/19 15/15/15
f 18/18/18 21/21/21 17/17/17
f 17/17/17 21/21/21 22/22/22
f 23/23/23 19/19/19 20/20/20
f 19/19/19 23/23/23 24/24/24
f 22/22/22 21/21/21 25/25/25
f 21/21/21 26/26/26 25/25/25
f 24/24/24 23/23/23 27/27/27
f 28/28/28 27/27/27 23/23/23
f 26/26/26 29/29/29 25/25/25
f 25/25/25 29/29/29 30/30/30
f 31/31/31 27/27/27 28/28/28
f 30/30/30 29/29/29 31/31/31
f 32/32/32 27/27/27 31/31/31
f 29/29/29 32/32/32 31/31/31