g XMAS_Circle_00_0
v 5.41925144 -2.24472761 0
v 5.65969229 -2.34432125 0
v 4.14771509 -4.14771557 0
v 5.86575603 9.53674316E-07 0
v 4.3317399 -4.33174133 0
v 6.12600613 9.53674316E-07 0
v 5.41925144 2.24472904 0
v 5.65969229 2.34432316 0
v 4.14771414 4.14771748 0
v 4.33173895 4.33174229 0
v 2.24472666 -5.41925144 0
v 2.3443203 -5.65969181 -4.76837158E-07
v -2.09745551E-07 -6.12600565 -4.76837158E-07
v -1.56366326E-07 -5.86575508 -4.76837158E-07
v 2.24472523 5.41925383 0
v 2.34431887 5.65969467 4.76837158E-07
v 7.15255624E-07 6.12600803 4.76837158E-07
v 7.88404918E-07 5.86575603 4.76837158E-07
v -2.3443203 5.65969276 4.76837158E-07
v -2.24472666 5.4192524 0
v -4.33173895 4.33174133 0
v -4.14771414 4.14771652 0
v -2.34432054 -5.65969086 -4.76837158E-07
v -2.2447269 -5.41925049 0
v -4.14771414 -4.14771461 0
v -4.33173895 -4.33173943 0
v -5.41924953 -2.24472713 0
v -5.65969038 -2.34432077 0
v -5.65969038 2.3443222 0
v -5.41924953 2.24472809 0
v -5.86575413 4.76837158E-07 0
v -6.12600565 4.76837158E-07 0
vt 0.337003171 0.704625905
vt 0.337003171 0.704625905
vt 0.337003171 0.704625905
vt 0.337003171 0.704625905
vt 0.337003171 0.704625905
vt 0.337003171 0.704625905
vt 0.337003171 0.704625905
vt 0.337003171 0.704625905
vt 0.337003171 0.704625905
vt 0.337003171 0.704625905
vt 0.337003171 0.704625905
vt 0.337003171 0.704625905
vt 0.337003171 0.704625905
vt 0.337003171 0.704625905
vt 0.337003171 0.704625905
vt 0.337003171 0.704625905
vt 0.337003171 0.704625905
vt 0.337003171 0.704625905
vt 0.337003171 0.704625905
vt 0.337003171 0.704625905
vt 0.337003171 0.704625905
vt 0.337003171 0.704625905
vt 0.337003171 0.704625905
vt 0.337003171 0.704625905
vt 0.337003171 0.704625905
vt 0.337003171 0.704625905
vt 0.337003171 0.704625905
vt 0.337003171 0.704625905
vt 0.337003171 0.704625905
vt 0.337003171 0.704625905
vt 0.337003171 0.704625905
vt 0.337003171 0.704625905
vn -0 0 1
vn -0 0 1
vn -0 0 1
vn -0 0 1
vn -0 0 1
vn -0 0 1
vn -0 0 1
vn -0 0 1
vn -0 0 1
vn -0 0 1
vn -0 0 1
vn -0 0 1
vn -0 0 1
vn -0 0 1
vn -0 0 1
vn -0 0 1
vn -0 0 1
vn -0 0 1
vn -0 0 1
vn -0 0 1
vn -0 0 1
vn -0 0 1
vn -0 0 1
vn -0 0 1
vn -0 0 1
vn -0 0 1
vn -0 0 1
vn -0 0 1
vn -0 0 1
vn -0 0 1
vn -0 0 1
vn -0 0 1
g XMAS_Circle_00_0_0
f 3/3/3 2/2/2 1/1/1
f 1/1/1 2/2/2 4/4/4
f 5/5/5 2/2/2 3/3/3
f 4/4/4 2/2/2 6/6/6
f 7/7/7 4/4/4 6/6/6
f 8/8/8 7/7/7 6/6/6
f 9/9/9 7/7/7 8/8/8
f 10/10/10 9/9/9 8/8/8
f 11/11/11 5/5/5 3/3/3
f 12/12/12 5/5/5 11/11/11
f 13/13/13 12/12/12 11/11/11
f 11/11/11 14/14/14 13/13/13
f 15/15/15 9/9/9 10/10/10
f 16/16/16 15/15/15 10/10/10
f 16/16/16 17/17/17 15/15/15
f 15/15/15 17/17/17 18/18/18
f 17/17/17 19/19/19 18/18/18
f 18/18/18 19/19/19 20/20/20
f 19/19/19 21/21/21 20/20/20
f 20/20/20 21/21/21 22/22/22
f 14/14/14 23/23/23 13/13/13
f 24/24/24 23/23/23 14/14/14
f 24/24/24 25/25/25 23/23/23
f 23/23/23 25/25/25 26/26/26
f 25/25/25 27/27/27 26/26/26
f 26/26/26 27/27/27 28/28/28
f 21/21/21 29/29/29 22/22/22
f 22/22/22 29/29/29 30/30/30
f 27/27/27 31/31/31 28/28/28
f 30/30/30 29/29/29 31/31/31
f 28/28/28 31/31/31 32/32/32
f 29/29/29 32/32/32 31/31/31
