g XMAS_Circle_02_0
v 0.33391124 0.80613327 0.00999999046
v 0.707107306 0.707107961 0.00999999046
v 0.616987348 0.616988182 0.00999999046
v 0.806132853 0.333911896 0.00999999046
v 0.382683784 0.923880577 0.00999999046
v 0.923880219 0.382684708 0.00999999046
v 8.34464913E-07 1.00000083 0.00999999046
v 8.57701082E-07 0.872551858 0.00999999046
v 1.00000072 9.53674316E-07 0.00999997742
v 0.872551858 9.53674316E-07 0.00999997742
v -0.333910018 0.80613327 0.00999999046
v -0.382682592 0.923880577 0.00999999046
v 0.806132853 -0.333909988 0.00999996066
v 0.923880279 -0.3826828 0.00999996066
v -0.707105875 0.707107544 0.00999999046
v -0.616985857 0.616987646 0.00999999046
v 0.707107365 -0.707106054 0.00999993086
v 0.616987407 -0.616986275 0.00999993086
v -0.806131184 0.333911896 0.00999999046
v -0.92387861 0.382684231 0.00999999046
v 0.333911479 -0.806131363 0.00999993086
v 0.382684022 -0.92387861 0.00999993086
v -0.999999046 9.53674316E-07 0.00999997742
v -0.872550189 9.53674316E-07 0.00999997742
v 6.83469182E-07 -0.999999046 0.00999993086
v 7.03800765E-07 -0.872550011 0.00999993086
v -0.806131184 -0.333909988 0.00999996066
v -0.92387861 -0.3826828 0.00999996066
v -0.333910018 -0.806131363 0.00999993086
v -0.382682592 -0.92387861 0.00999993086
v -0.707105875 -0.707105637 0.00999993086
v -0.616985857 -0.616985738 0.00999993086
vt 0.576776803 0.252338469
vt 0.576776803 0.252338469
vt 0.576776803 0.252338469
vt 0.576776803 0.252338469
vt 0.576776803 0.252338469
vt 0.576776803 0.252338469
vt 0.576776803 0.252338469
vt 0.576776803 0.252338469
vt 0.576776803 0.252338469
vt 0.576776803 0.252338469
vt 0.576776803 0.252338469
vt 0.576776803 0.252338469
vt 0.576776803 0.252338469
vt 0.576776803 0.252338469
vt 0.576776803 0.252338469
vt 0.576776803 0.252338469
vt 0.576776803 0.252338469
vt 0.576776803 0.252338469
vt 0.576776803 0.252338469
vt 0.576776803 0.252338469
vt 0.576776803 0.252338469
vt 0.576776803 0.252338469
vt 0.576776803 0.252338469
vt 0.576776803 0.252338469
vt 0.576776803 0.252338469
vt 0.576776803 0.252338469
vt 0.576776803 0.252338469
vt 0.576776803 0.252338469
vt 0.576776803 0.252338469
vt 0.576776803 0.252338469
vt 0.576776803 0.252338469
vt 0.576776803 0.252338469
vn -0 0 1
vn -0 0 1
vn -0 0 1
vn -0 0 1
vn -0 0 1
vn -0 0 1
vn -0 0 1
vn -0 0 1
vn -0 0 1
vn -0 0 1
vn -0 0 1
vn -0 0 1
vn -0 0 1
vn -0 0 1
vn -0 0 1
vn -0 0 1
vn -0 0 1
vn -0 0 1
vn -0 0 1
vn -0 0 1
vn -0 0 1
vn -0 0 1
vn -0 0 1
vn -0 0 1
vn -0 0 1
vn -0 0 1
vn -0 0 1
vn -0 0 1
vn -0 0 1
vn -0 0 1
vn -0 0 1
vn -0 0 1
g XMAS_Circle_02_0_0
f 3/3/3 2/2/2 1/1/1
f 3/3/3 4/4/4 2/2/2
f 5/5/5 1/1/1 2/2/2
f 2/2/2 4/4/4 6/6/6
f 7/7/7 1/1/1 5/5/5
f 1/1/1 7/7/7 8/8/8
f 6/6/6 4/4/4 9/9/9
f 10/10/10 9/9/9 4/4/4
f 8/8/8 7/7/7 11/11/11
f 12/12/12 11/11/11 7/7/7
f 10/10/10 13/13/13 9/9/9
f 9/9/9 13/13/13 14/14/14
f 15/15/15 11/11/11 12/12/12
f 11/11/11 15/15/15 16/16/16
f 14/14/14 13/13/13 17/17/17
f 13/13/13 18/18/18 17/17/17
f 16/16/16 15/15/15 19/19/19
f 20/20/20 19/19/19 15/15/15
f 18/18/18 21/21/21 17/17/17
f 17/17/17 21/21/21 22/22/22
f 23/23/23 19/19/19 20/20/20
f 19/19/19 23/23/23 24/24/24
f 22/22/22 21/21/21 25/25/25
f 21/21/21 26/26/26 25/25/25
f 24/24/24 23/23/23 27/27/27
f 28/28/28 27/27/27 23/23/23
f 26/26/26 29/29/29 25/25/25
f 25/25/25 29/29/29 30/30/30
f 31/31/31 27/27/27 28/28/28
f 30/30/30 29/29/29 31/31/31
f 32/32/32 27/27/27 31/31/31
f 29/29/29 32/32/32 31/31/31
