# generated by LodBaker -- retail ships no LODGroup for this prop
v -0.331897 0.028368 1.03745 1 1 1
v -0.262378 0.10025 1.865803 1 1 1
v -0.262378 0.10025 1.03745 1 1 1
v -0.331897 0.028368 1.865803 1 1 1
v -0.725721 0.409248 1.03745 1 1 1
v -0.331897 0.028368 1.865803 1 1 1
v -0.331897 0.028368 1.03745 1 1 1
v -0.725721 0.409248 1.865803 1 1 1
v -0.262378 0.10025 1.03745 1 1 1
v -0.725721 0.409248 1.865803 1 1 1
v -0.725721 0.409248 1.03745 1 1 1
v -0.262378 0.10025 1.865803 1 1 1
v -0.331897 0.028368 1.03745 1 1 1
v -0.262378 0.10025 1.03745 1 1 1
v -0.725721 0.409248 1.03745 1 1 1
v -0.331897 0.028368 1.865803 1 1 1
v -0.725721 0.409248 1.865803 1 1 1
v -0.262378 0.10025 1.865803 1 1 1
v -0.051452 0.051452 0 1 1 1
v -0.051452 -0.051452 1.09573 1 1 1
v -0.051452 -0.051452 0 1 1 1
v -0.051452 0.051452 1.09573 1 1 1
v 0.051452 0.051452 0 1 1 1
v -0.051452 0.051452 1.09573 1 1 1
v -0.051452 0.051452 0 1 1 1
v 0.051452 0.051452 1.09573 1 1 1
v 0.051452 -0.051452 0 1 1 1
v 0.051452 0.051452 1.09573 1 1 1
v 0.051452 0.051452 0 1 1 1
v 0.051452 -0.051452 1.09573 1 1 1
v -0.273937 -0.1 1.03745 1 1 1
v 0.273937 0.1 1.03745 1 1 1
v -0.273937 0.1 1.03745 1 1 1
v 0.273937 -0.1 1.03745 1 1 1
v -0.273937 -0.1 1.865803 1 1 1
v 0.273937 0.1 1.865803 1 1 1
v 0.273937 -0.1 1.865803 1 1 1
v -0.273937 0.1 1.865803 1 1 1
v 0.273937 -0.1 1.865803 1 1 1
v 0.273937 0.1 1.03745 1 1 1
v 0.273937 -0.1 1.03745 1 1 1
v 0.273937 0.1 1.865803 1 1 1
v -0.273937 0.1 1.865803 1 1 1
v -0.273937 -0.1 1.03745 1 1 1
v -0.273937 -0.1 1.865803 1 1 1
v -0.273937 0.1 1.03745 1 1 1
v 0.273937 0.1 1.865803 1 1 1
v -0.273937 0.1 1.865803 1 1 1
v 0.273937 0.1 1.03745 1 1 1
vt 0.37061 0.11973798
vt 0.368875 0.27098298
vt 0.368875 0.11973798
vt 0.37061 0.27098298
vt 0.375438 0.422229
vt 0.388663 0.27098298
vt 0.388663 0.422229
vt 0.375438 0.27098298
vt 0.388663 0.422229
vt 0.399848 0.27098298
vt 0.399848 0.422229
vt 0.388663 0.27098298
vt 0.403891 0.206168
vt 0.401477 0.206168
vt 0.403891 0.106134
vt 0.403891 0.206168
vt 0.403891 0.106134
vt 0.406305 0.206168
vt 0.12542 0.545084
vt 0.138887 0.34501898
vt 0.138887 0.545084
vt 0.12542 0.34501898
vt 0.086679 0.545084
vt 0.106049 0.34501898
vt 0.106049 0.545084
vt 0.086679 0.34501898
vt 0.12542 0.34501898
vt 0.106049 0.545084
vt 0.106049 0.34501898
vt 0.12542 0.545084
vt 0.37061 0.27098298
vt 0.375438 0.17094898
vt 0.375438 0.27098298
vt 0.37061 0.17094898
vt 0.379007 0.17094898
vt 0.383835 0.27098298
vt 0.379007 0.27098298
vt 0.383835 0.17094898
vt 0.383835 0.11973798
vt 0.388663 0.27098298
vt 0.383835 0.27098298
vt 0.388663 0.11973798
vt 0.375438 0.11973798
vt 0.378794 0.27098298
vt 0.378794 0.11973798
vt 0.362212 0.27098298
vt 0.375438 0.422229
vt 0.362212 0.422229
vt 0.375438 0.27098298
vn 0.7188108 -0.69520575 -2.157651E-05
vn 0.7188108 -0.69520575 -2.157651E-05
vn 0.7188108 -0.69520575 -2.157651E-05
vn 0.7188108 -0.69520575 -2.157651E-05
vn -0.69520575 -0.7188108 -2.157651E-05
vn -0.69520575 -0.7188108 -2.157651E-05
vn -0.69520575 -0.7188108 -2.157651E-05
vn -0.69520575 -0.7188108 -2.157651E-05
vn 0.6952054 0.71881115 6.47315E-05
vn -0.718832 0.6951838 2.15765E-05
vn -0.718832 0.6951838 2.15765E-05
vn 0.6952054 0.71881115 6.47315E-05
vn 0 0 -1
vn 0 0 -1
vn 0 0 -1
vn -1.5259255E-05 -1.5259255E-05 1
vn -1.5259255E-05 -1.5259255E-05 1
vn -1.5259255E-05 -1.5259255E-05 1
vn -1 0 -1.5259022E-05
vn -1 0 -1.5259022E-05
vn -1 0 -1.5259022E-05
vn -1 0 -1.5259022E-05
vn 0 1 -1.5259022E-05
vn 0 1 -1.5259022E-05
vn 0 1 -1.5259022E-05
vn 0 1 -1.5259022E-05
vn 1 0 -1.5259022E-05
vn 1 0 -1.5259022E-05
vn 1 0 -1.5259022E-05
vn 1 0 -1.5259022E-05
vn 0 0 -1
vn 0 0 -1
vn 0 0 -1
vn 0 0 -1
vn -1.5259255E-05 -1.5259255E-05 1
vn -1.5259255E-05 -1.5259255E-05 1
vn -1.5259255E-05 -1.5259255E-05 1
vn -1.5259255E-05 -1.5259255E-05 1
vn 1 0 -1.5259022E-05
vn 1 0 -1.5259022E-05
vn 1 0 -1.5259022E-05
vn 1 0 -1.5259022E-05
vn -1 0 -1.5259022E-05
vn -1 0 -1.5259022E-05
vn -1 0 -1.5259022E-05
vn 0 1 -1.5259022E-05
vn 0 1 -1.5259022E-05
vn 0 1 -1.5259022E-05
vn 0 1 -1.5259022E-05
f 3/3/3 2/2/2 1/1/1
f 1/1/1 2/2/2 4/4/4
f 7/7/7 6/6/6 5/5/5
f 5/5/5 6/6/6 8/8/8
f 11/11/11 10/10/10 9/9/9
f 9/9/9 10/10/10 12/12/12
f 15/15/15 14/14/14 13/13/13
f 18/18/18 17/17/17 16/16/16
f 21/21/21 20/20/20 19/19/19
f 19/19/19 20/20/20 22/22/22
f 25/25/25 24/24/24 23/23/23
f 23/23/23 24/24/24 26/26/26
f 29/29/29 28/28/28 27/27/27
f 27/27/27 28/28/28 30/30/30
f 33/33/33 32/32/32 31/31/31
f 31/31/31 32/32/32 34/34/34
f 37/37/37 36/36/36 35/35/35
f 35/35/35 36/36/36 38/38/38
f 41/41/41 40/40/40 39/39/39
f 39/39/39 40/40/40 42/42/42
f 33/33/33 44/44/44 43/43/43
f 43/43/43 44/44/44 45/45/45
f 48/48/48 47/47/47 46/46/46
f 46/46/46 47/47/47 49/49/49
