v -1.44531035 1.31216896 -0.000558532542
v -1.06205547 1.24200666 -1.06983912
v -1.08535194 1.56603456 -1.09380937
v -1.38009739 1.57031786 -0.000793595216
v -0.927880526 1.26671648 1.07804596
v -0.905975342 1.47440708 1.11722624
v -0.00326511543 1.43590891 -1.3861773
v 1.04846859 1.24160898 -1.06735313
v 1.07447219 1.43203664 -1.07402146
v -0.004311522 1.71226096 -1.41705906
v -1.06205547 1.24200666 -1.06983912
v -1.08535194 1.56603456 -1.09380937
v 1.38315177 1.40941036 -0.00511108385
v 0.947074115 1.25661278 0.938074946
v 0.964182734 1.56011736 0.955012679
v 1.39132726 1.68231475 -0.00578224752
v 1.04846859 1.24160898 -1.06735313
v 1.07447219 1.43203664 -1.07402146
v 0.947074115 1.25661278 0.938074946
v 0.00913327746 1.70737052 1.32996559
v 0.0198692996 1.4345206 1.33967459
v -0.905975342 1.47440708 1.11722624
v -0.927880526 1.26671648 1.07804596
v 0.00847315323 -1.26750135 1.35800433
v -1.05199659 -0.985394657 1.05212176
v -1.30991602 -0.0118188942 1.33282232
v 0.0557387136 0.0262009427 1.82699251
v 1.03292835 -0.985157132 1.0388993
v -1.12553382 0.834596753 1.18955433
v 1.35375929 -0.0017998761 1.35684931
v 0.0416359603 0.922057688 1.58479464
v 1.19403923 0.830463946 1.19424808
v 1.34054625 -1.25711823 -0.00834597461
v 1.03292835 -0.985157132 1.0388993
v 1.35375929 -0.0017998761 1.35684931
v 1.82662058 -0.0123289283 -0.00123415631
v 1.08545637 -0.978161514 -1.04109478
v 1.19403923 0.830463946 1.19424808
v 1.32584536 0.00765870651 -1.40674639
v 1.59990644 0.888499498 -0.00305511267
v 1.17619753 0.837197363 -1.23323333
v 0.00545402477 -1.26881325 -1.33446181
v 1.08545637 -0.978161514 -1.04109478
v 1.32584536 0.00765870651 -1.40674639
v -0.00372702791 0.0165929217 -1.76274145
v -1.0516634 -0.97607708 -1.04785979
v 1.17619753 0.837197363 -1.23323333
v -1.3568579 -0.000869049865 -1.35923743
v -0.00314227468 0.916596293 -1.56141019
v -1.19951916 0.832032919 -1.2044481
v -1.4024663 -1.27019179 0.0380333252
v -1.0516634 -0.97607708 -1.04785979
v -1.3568579 -0.000869049865 -1.35923743
v -1.81590962 0.00157582364 0.00362402922
v -1.05199659 -0.985394657 1.05212176
v -1.19951916 0.832032919 -1.2044481
v -1.30991602 -0.0118188942 1.33282232
v -1.61341119 0.860216975 0.00149065524
v -1.12553382 0.834596753 1.18955433
v -0.004311522 1.71226096 -1.41705906
v -1.38009739 1.57031786 -0.000793595216
v -1.08535194 1.56603456 -1.09380937
v 0.044960279 2.01947165 -0.000610781135
v 1.07447219 1.43203664 -1.07402146
v -0.905975342 1.47440708 1.11722624
v 1.39132726 1.68231475 -0.00578224752
v 0.00913327746 1.70737052 1.32996559
v 0.964182734 1.56011736 0.955012679
v 0.00545402477 -1.26881325 -1.33446181
v 1.34054625 -1.25711823 -0.00834597461
v 1.08545637 -0.978161514 -1.04109478
v 0.0110797547 -1.70272148 -0.0118478611
v -1.0516634 -0.97607708 -1.04785979
v 1.03292835 -0.985157132 1.0388993
v -1.4024663 -1.27019179 0.0380333252
v 0.00847315323 -1.26750135 1.35800433
v -1.05199659 -0.985394657 1.05212176
v -1.19951916 0.832032919 -1.2044481
v -0.00426245062 1.18037605 -1.6087755
v -1.23554206 1.0340066 -1.24116611
v -0.00314227468 0.916596293 -1.56141019
v 1.21386242 1.03626311 -1.25552499
v 1.17619753 0.837197363 -1.23323333
v -1.23554206 1.0340066 -1.24116611
v -0.00326511543 1.43590891 -1.3861773
v -1.06205547 1.24200666 -1.06983912
v -0.00426245062 1.18037605 -1.6087755
v 1.04846859 1.24160898 -1.06735313
v 1.21386242 1.03626311 -1.25552499
v 1.19403923 0.830463946 1.19424808
v 0.0328166038 1.18223369 1.59725904
v 1.22432804 1.03183436 1.22434068
v 0.0416359603 0.922057688 1.58479464
v -1.12189043 1.04872572 1.23862076
v -1.12553382 0.834596753 1.18955433
v 1.22432804 1.03183436 1.22434068
v 0.0198692996 1.4345206 1.33967459
v 0.947074115 1.25661278 0.938074946
v 0.0328166038 1.18223369 1.59725904
v -0.927880526 1.26671648 1.07804596
v -1.12189043 1.04872572 1.23862076
v -1.12553382 0.834596753 1.18955433
v -1.67076981 1.08581293 0.00106174068
v -1.12189043 1.04872572 1.23862076
v -1.61341119 0.860216975 0.00149065524
v -1.23554206 1.0340066 -1.24116611
v -1.19951916 0.832032919 -1.2044481
v -1.12189043 1.04872572 1.23862076
v -1.44531035 1.31216896 -0.000558532542
v -0.927880526 1.26671648 1.07804596
v -1.67076981 1.08581293 0.00106174068
v -1.06205547 1.24200666 -1.06983912
v -1.23554206 1.0340066 -1.24116611
v 1.17619753 0.837197363 -1.23323333
v 1.62793052 1.15245104 -0.0039057727
v 1.21386242 1.03626311 -1.25552499
v 1.59990644 0.888499498 -0.00305511267
v 1.22432804 1.03183436 1.22434068
v 1.19403923 0.830463946 1.19424808
v 1.21386242 1.03626311 -1.25552499
v 1.38315177 1.40941036 -0.00511108385
v 1.04846859 1.24160898 -1.06735313
v 1.62793052 1.15245104 -0.0039057727
v 0.947074115 1.25661278 0.938074946
v 1.22432804 1.03183436 1.22434068
vt 0.733316183 0.739576459
vt 0.696424007 0.782344282
vt 0.710437059 0.793697238
vt 0.741958261 0.74852103
vt 0.781083703 0.704624772
vt 0.789299011 0.712778628
vt 0.743065596 0.838650823
vt 0.786762953 0.872685373
vt 0.792039037 0.86516732
vt 0.750756383 0.828679264
vt 0.69926548 0.804953754
vt 0.710437059 0.793697238
vt 0.83773458 0.832722545
vt 0.86999476 0.790809691
vt 0.857233346 0.783138454
vt 0.828110456 0.824350357
vt 0.797425628 0.872595966
vt 0.792039037 0.86516732
vt 0.869454026 0.774105787
vt 0.823215544 0.745812893
vt 0.832464159 0.736574352
vt 0.789299011 0.712778628
vt 0.793352604 0.703085005
vt 0.423806041 0.625376463
vt 0.36916241 0.595447898
vt 0.325648427 0.632781565
vt 0.381449699 0.680366874
vt 0.462767512 0.671878755
vt 0.302245438 0.67486769
vt 0.435386628 0.724353254
vt 0.352483124 0.714281082
vt 0.399977714 0.7556656
vt 0.436190188 0.931146443
vt 0.471051574 0.881845236
vt 0.439463705 0.832865
vt 0.389843524 0.884069264
vt 0.386966467 0.963701308
vt 0.401793033 0.805524647
vt 0.336308658 0.935202837
vt 0.358723938 0.85315299
vt 0.309593588 0.897229612
vt 0.157014519 0.948801994
vt 0.211611778 0.977026641
vt 0.253214002 0.937520504
vt 0.198733091 0.895596266
vt 0.118305326 0.902684033
vt 0.275544494 0.897513032
vt 0.143549785 0.851798117
vt 0.225712836 0.860978365
vt 0.17738083 0.820940912
vt 0.151981771 0.651277423
vt 0.110000879 0.688583732
vt 0.137230799 0.738942862
vt 0.188635439 0.692665637
vt 0.190122724 0.614182115
vt 0.172914982 0.768027902
vt 0.236737549 0.644641161
vt 0.215849414 0.721426845
vt 0.265149444 0.681614876
vt 0.250756353 0.828679264
vt 0.241958246 0.74852103
vt 0.210437074 0.793697238
vt 0.288153619 0.78796196
vt 0.292039067 0.86516732
vt 0.289299011 0.712778628
vt 0.328110456 0.824350357
vt 0.323215544 0.745812893
vt 0.357233346 0.783138454
vt 0.0592412502 0.654873967
vt 0.0611377805 0.555396676
vt 0.0257906765 0.60264504
vt 0.10797447 0.606295109
vt 0.110000879 0.688583732
vt 0.113469601 0.525576949
vt 0.151981771 0.651277423
vt 0.161781013 0.560226858
vt 0.190122724 0.614182115
vt 0.6773808 0.820940912
vt 0.733586788 0.850838423
vt 0.683553815 0.81267935
vt 0.725712836 0.860978365
vt 0.782223701 0.889896572
vt 0.775544524 0.897513032
vt 0.183553785 0.81267935
vt 0.243065596 0.838650823
vt 0.19926545 0.804953754
vt 0.233586758 0.850838423
vt 0.286762983 0.872685373
vt 0.282223701 0.889896572
vt 0.899977684 0.7556656
vt 0.843918741 0.723979294
vt 0.893243313 0.763718843
vt 0.852483153 0.714281082
vt 0.796770692 0.684678733
vt 0.802245438 0.67486769
vt 0.393243343 0.763718843
vt 0.332464159 0.736574352
vt 0.369453996 0.774105787
vt 0.343918741 0.723979294
vt 0.293352574 0.703085005
vt 0.296770662 0.684678733
vt 0.765149474 0.681614876
vt 0.723210812 0.729412258
vt 0.774364948 0.689627886
vt 0.7158494 0.721426845
vt 0.679701626 0.775525093
vt 0.672914982 0.768027902
vt 0.274364948 0.689627886
vt 0.233316213 0.739576459
vt 0.281083673 0.704624772
vt 0.223210841 0.729412258
vt 0.196424007 0.782344282
vt 0.179701626 0.775525093
vt 0.809593558 0.897229612
vt 0.849538267 0.844052553
vt 0.802765429 0.889695704
vt 0.858723938 0.85315299
vt 0.894506812 0.798260689
vt 0.901793003 0.805524647
vt 0.302765429 0.889695704
vt 0.33773455 0.832722545
vt 0.297425658 0.872595966
vt 0.349538267 0.844052553
vt 0.36999473 0.790809691
vt 0.394506842 0.798260689
vn -0.993318319 0.101079896 0.055691421
vn -0.952139497 0.0560601018 -0.300478935
vn -0.952139497 0.0560601018 -0.300478935
vn -0.993282437 0.101137884 0.0562236831
vn -0.900016248 0.133631453 0.414865345
vn -0.900016248 0.133631453 0.414865345
vn 0.00391019462 -0.0988712609 -0.99509263
vn 0.276728094 -0.0917460769 -0.956558526
vn 0.276728094 -0.0917460769 -0.956558526
vn -0.00965207815 -0.0990295708 -0.995037615
vn -0.270586282 -0.0984638557 -0.957647026
vn -0.270586312 -0.0984638557 -0.957647026
vn 0.995365143 -0.0673362017 0.0686594695
vn 0.698309779 -0.0364194922 0.714868486
vn 0.693784773 -0.036116682 0.719276309
vn 0.994477868 -0.0669108331 0.0808491856
vn 0.957608342 -0.0750459507 -0.278126329
vn 0.957608342 -0.0750459507 -0.278126329
vn 0.698309779 -0.0364194922 0.714868486
vn 0.0790110305 -0.036487747 0.996205688
vn 0.0823887736 -0.0362767763 0.995939851
vn -0.235475928 -0.0540395342 0.970376611
vn -0.235475928 -0.0540395342 0.970376611
vn -0.00263395719 -0.359735131 0.933050811
vn -0.325524867 -0.323966712 0.888301373
vn -0.342556685 -0.0517807975 0.938069105
vn 0.00839485321 -0.0475466065 0.998833716
vn 0.335402995 -0.35569638 0.872344434
vn -0.332399815 0.234591812 0.91349715
vn 0.34991914 -0.0537303202 0.935237706
vn -0.00393765094 0.25504446 0.966921329
vn 0.331848383 0.246659949 0.910513878
vn 0.928515494 -0.371227354 0.00702669984
vn 0.872703791 -0.363584191 0.325874865
vn 0.939145803 -0.0588445812 0.338441342
vn 0.997985601 -0.0633906052 0.00251842267
vn 0.88590765 -0.339352846 -0.316239446
vn 0.917815089 0.235006005 0.31998077
vn 0.941512167 -0.041007515 -0.334474504
vn 0.969142973 0.246474177 -0.003527747
vn 0.917101979 0.231664285 -0.32443133
vn -0.00464496808 -0.352978885 -0.935619712
vn 0.281590521 -0.34204641 -0.896499336
vn 0.284424722 -0.0605896488 -0.956781864
vn -0.0099006854 -0.0586813577 -0.998227656
vn -0.294512391 -0.33392787 -0.895407498
vn 0.263682216 0.225968763 -0.937768579
vn -0.302473634 -0.0559058599 -0.951516867
vn -0.0120979529 0.230836198 -0.972917438
vn -0.286965221 0.217854962 -0.93283987
vn -0.940619469 -0.338871211 0.0200348143
vn -0.882586539 -0.333301008 -0.331589162
vn -0.940203547 -0.0493824184 -0.337014407
vn -0.9988482 -0.0454027578 0.0155200912
vn -0.883120954 -0.303313881 0.357907951
vn -0.921812296 0.224606454 -0.315933496
vn -0.927467644 -0.0286309663 0.372805744
vn -0.969340324 0.24449034 0.0245755687
vn -0.902708292 0.235530868 0.360059798
vn 0.00784324948 0.979352772 -0.2020064
vn -0.272010595 0.961958051 0.0254379846
vn -0.246182024 0.958605826 -0.143070817
vn -0.00136691344 0.999941349 0.0107497312
vn 0.271343976 0.929820895 -0.248607203
vn -0.291105688 0.933868468 0.207718849
vn 0.262490094 0.964565277 -0.0266979281
vn -0.0506499596 0.973179877 0.22440058
vn 0.236335441 0.944824696 0.226830319
vn 0.00187869067 -0.944976449 -0.327132702
vn 0.331216216 -0.943535507 -0.0060535199
vn 0.312505752 -0.899043858 -0.3066926
vn 0.00829505175 -0.99995482 -0.00463994034
vn -0.30658403 -0.898069918 -0.315399349
vn 0.318416685 -0.898017347 0.303604573
vn -0.315966576 -0.948752105 0.00588310556
vn 0.0108677605 -0.945609331 0.325123072
vn -0.293325812 -0.902493715 0.315380543
vn -0.263905138 -0.191703916 -0.945306122
vn -0.00492884638 -0.184010163 -0.982911944
vn -0.263905168 -0.19170393 -0.945306122
vn -0.00414640782 -0.183967829 -0.982923448
vn 0.255576432 -0.163580641 -0.952849388
vn 0.255576402 -0.163580656 -0.952849388
vn -0.502984524 0.720216274 -0.477802455
vn -0.000785016513 0.71948868 -0.694503665
vn -0.489941031 0.719289601 -0.492524296
vn -0.00155961013 0.719474137 -0.694517434
vn 0.493947566 0.718513668 -0.489646763
vn 0.486481667 0.718383133 -0.497253776
vn 0.298631698 -0.101391025 0.948967278
vn -0.00641139084 -0.11945153 0.99281925
vn 0.298631728 -0.101391032 0.948967278
vn 0.00807257369 -0.118851148 0.992879331
vn -0.295476526 -0.126076519 0.946994305
vn -0.295476556 -0.126076534 0.946994424
vn 0.436337471 0.79415977 0.422989279
vn 0.0134043945 0.783166766 0.621667206
vn 0.436240494 0.794165134 0.423079282
vn 0.0195670705 0.784099579 0.620326459
vn -0.459411651 0.723032236 0.515911996
vn -0.495252281 0.724405408 0.479543507
vn -0.910025418 -0.153748259 0.384987324
vn -0.97820425 -0.204239979 0.0374503992
vn -0.910025418 -0.153748244 0.384987324
vn -0.978151858 -0.203917727 0.0404551812
vn -0.922073901 -0.228518158 -0.3123447
vn -0.922073901 -0.228518173 -0.3123447
vn -0.495252281 0.724405408 0.479543507
vn -0.671372771 0.740484953 0.0306690447
vn -0.459411651 0.723032236 0.515911996
vn -0.671908319 0.740414441 0.0180440377
vn -0.489941031 0.719289601 -0.492524296
vn -0.502984524 0.720216274 -0.477802455
vn 0.939935863 -0.148707345 -0.307256877
vn 0.988651395 -0.150203705 -0.00269133877
vn 0.939935863 -0.148707345 -0.307256877
vn 0.988661885 -0.150158957 -0.000298669882
vn 0.942585468 -0.137255132 0.304456204
vn 0.942585468 -0.137255132 0.304456234
vn 0.486481667 0.718383133 -0.497253776
vn 0.629233479 0.777087986 0.0141273132
vn 0.493947566 0.718513668 -0.489646763
vn 0.63028568 0.776320875 0.00812262204
vn 0.436240494 0.794165134 0.423079282
vn 0.436337471 0.79415977 0.422989279
f 3/3/3 2/2/2 1/1/1
f 4/4/4 3/3/3 1/1/1
f 4/4/4 1/1/1 5/5/5
f 6/6/6 4/4/4 5/5/5
f 9/9/9 8/8/8 7/7/7
f 10/10/10 9/9/9 7/7/7
f 10/10/10 7/7/7 11/11/11
f 12/12/12 10/10/10 11/11/11
f 15/15/15 14/14/14 13/13/13
f 16/16/16 15/15/15 13/13/13
f 16/16/16 13/13/13 17/17/17
f 18/18/18 16/16/16 17/17/17
f 15/15/15 20/20/20 19/19/19
f 20/20/20 21/21/21 19/19/19
f 20/20/20 22/22/22 21/21/21
f 22/22/22 23/23/23 21/21/21
f 26/26/26 25/25/25 24/24/24
f 27/27/27 26/26/26 24/24/24
f 27/27/27 24/24/24 28/28/28
f 29/29/29 26/26/26 27/27/27
f 30/30/30 27/27/27 28/28/28
f 31/31/31 29/29/29 27/27/27
f 31/31/31 27/27/27 30/30/30
f 32/32/32 31/31/31 30/30/30
f 35/35/35 34/34/34 33/33/33
f 36/36/36 35/35/35 33/33/33
f 36/36/36 33/33/33 37/37/37
f 38/38/38 35/35/35 36/36/36
f 39/39/39 36/36/36 37/37/37
f 40/40/40 38/38/38 36/36/36
f 40/40/40 36/36/36 39/39/39
f 41/41/41 40/40/40 39/39/39
f 44/44/44 43/43/43 42/42/42
f 45/45/45 44/44/44 42/42/42
f 45/45/45 42/42/42 46/46/46
f 47/47/47 44/44/44 45/45/45
f 48/48/48 45/45/45 46/46/46
f 49/49/49 47/47/47 45/45/45
f 49/49/49 45/45/45 48/48/48
f 50/50/50 49/49/49 48/48/48
f 53/53/53 52/52/52 51/51/51
f 54/54/54 53/53/53 51/51/51
f 54/54/54 51/51/51 55/55/55
f 56/56/56 53/53/53 54/54/54
f 57/57/57 54/54/54 55/55/55
f 58/58/58 56/56/56 54/54/54
f 58/58/58 54/54/54 57/57/57
f 59/59/59 58/58/58 57/57/57
f 62/62/62 61/61/61 60/60/60
f 61/61/61 63/63/63 60/60/60
f 60/60/60 63/63/63 64/64/64
f 61/61/61 65/65/65 63/63/63
f 63/63/63 66/66/66 64/64/64
f 65/65/65 67/67/67 63/63/63
f 63/63/63 67/67/67 66/66/66
f 67/67/67 68/68/68 66/66/66
f 71/71/71 70/70/70 69/69/69
f 70/70/70 72/72/72 69/69/69
f 69/69/69 72/72/72 73/73/73
f 70/70/70 74/74/74 72/72/72
f 72/72/72 75/75/75 73/73/73
f 74/74/74 76/76/76 72/72/72
f 72/72/72 76/76/76 75/75/75
f 76/76/76 77/77/77 75/75/75
f 80/80/80 79/79/79 78/78/78
f 79/79/79 81/81/81 78/78/78
f 79/79/79 82/82/82 81/81/81
f 82/82/82 83/83/83 81/81/81
f 86/86/86 85/85/85 84/84/84
f 85/85/85 87/87/87 84/84/84
f 85/85/85 88/88/88 87/87/87
f 88/88/88 89/89/89 87/87/87
f 92/92/92 91/91/91 90/90/90
f 91/91/91 93/93/93 90/90/90
f 91/91/91 94/94/94 93/93/93
f 94/94/94 95/95/95 93/93/93
f 98/98/98 97/97/97 96/96/96
f 97/97/97 99/99/99 96/96/96
f 97/97/97 100/100/100 99/99/99
f 100/100/100 101/101/101 99/99/99
f 104/104/104 103/103/103 102/102/102
f 103/103/103 105/105/105 102/102/102
f 103/103/103 106/106/106 105/105/105
f 106/106/106 107/107/107 105/105/105
f 110/110/110 109/109/109 108/108/108
f 109/109/109 111/111/111 108/108/108
f 109/109/109 112/112/112 111/111/111
f 112/112/112 113/113/113 111/111/111
f 116/116/116 115/115/115 114/114/114
f 115/115/115 117/117/117 114/114/114
f 115/115/115 118/118/118 117/117/117
f 118/118/118 119/119/119 117/117/117
f 122/122/122 121/121/121 120/120/120
f 121/121/121 123/123/123 120/120/120
f 121/121/121 124/124/124 123/123/123
f 124/124/124 125/125/125 123/123/123
