v -1.76437533 0.766605854 0.815513492
v -2.01407313 0.703419328 -0.116383538
v -1.81441426 1.1319648 0.0348496288
v -0.106063507 -0.896622598 1.23775744
v -1.40411317 -0.368980765 1.15873373
v -1.51754415 0.0936915278 1.68493152
v 0.0653529465 -0.290909946 1.95018446
v 1.32569385 -0.802959025 1.05713093
v -1.03883588 0.824229717 1.83508301
v 1.58593202 -0.372151971 1.5330745
v 0.183927625 0.752881587 2.00830078
v 1.55126727 0.398861945 1.68065047
v 1.46705019 -0.334284246 -0.381362319
v 1.32569385 -0.802959025 1.05713093
v 1.58593202 -0.372151971 1.5330745
v 2.02707553 0.337902695 -0.0179141778
v 1.44933128 -0.159687281 -0.617712975
v 1.55126727 0.398861945 1.68065047
v 1.90171194 0.607249081 -0.487159073
v 1.77030277 1.25227904 0.439346313
v 1.72837067 1.3553232 0.154414207
v -1.40411317 -0.368980765 1.15873373
v -1.53343689 -0.169699371 0.602926075
v -1.70294404 0.464392722 1.03926635
v -1.51754415 0.0936915278 1.68493152
v -1.23969197 1.17642057 1.27473533
v -1.03883588 0.824229717 1.83508301
v 1.03812838 -0.336947799 -0.391318738
v 1.46705019 -0.334284246 -0.381362319
v 1.44933128 -0.159687281 -0.617712975
v 0.0487430692 -0.573187768 0.279689878
v 1.32569385 -0.802959025 1.05713093
v -0.106063507 -0.896622598 1.23775744
v -1.53343689 -0.169699371 0.602926075
v -0.369446158 -0.403041959 0.0134008667
v -1.40411317 -0.368980765 1.15873373
v 1.72837067 1.3553232 0.154414207
v 1.77030277 1.25227904 0.439346313
v 1.33598459 1.38449943 0.50208813
v 1.55126727 0.398861945 1.68065047
v 0.374207884 1.25309443 1.21958184
v 0.183927625 0.752881587 2.00830078
v -1.23969197 1.17642057 1.27473533
v -0.0360807553 1.46757317 0.97610867
v -1.03883588 0.824229717 1.83508301
v 0.374207884 1.25309443 1.21958184
v -0.0360807553 1.46757317 0.97610867
v -0.202763379 0.532265663 0.494754851
v 0.211475492 0.339953363 0.749635875
v 0.0487430692 -0.573187768 0.279689878
v -0.369446158 -0.403041959 0.0134008667
v 0.141042978 1.38102877 0.549541295
v -0.260852098 0.783907115 0.278458685
v -0.280144602 1.33911312 0.242432237
v 0.160592839 0.818415701 0.586048365
v -0.225620955 -0.229990304 0.344248772
v 0.194560036 -0.159105539 0.649478257
v 0.0318026021 -0.195936859 -1.74246502
v 1.4418906 0.0969861746 -1.55766797
v 1.55596614 0.717274427 -1.8894583
v -0.00326554477 0.656771779 -2.10289574
v -0.332748145 -0.14285475 -1.68939471
v 1.46061289 1.08799899 -1.77460897
v -0.387188643 0.644253016 -2.03714418
v -1.33496666 0.00307804346 -1.54349434
v -1.60076678 0.604681492 -1.82930243
v -0.0218811855 1.14941466 -2.01605415
v 1.36525977 1.45872366 -1.65975964
v -0.0404968336 1.64205778 -1.92921197
v -0.426270157 1.10436237 -1.94183528
v -1.49651814 0.985127807 -1.74540961
v -0.464655191 1.55530298 -1.84521484
v -1.39226961 1.36557412 -1.66151679
v 1.50330555 0.0483424067 -0.962868571
v 1.56472075 -0.000301420689 -0.368069261
v 1.86433613 0.796705544 -0.659435153
v 1.7101512 0.756989956 -1.27444673
v 1.4418906 0.0969861746 -1.55766797
v 1.68936324 1.25738108 -0.572936654
v 1.55596614 0.717274427 -1.8894583
v 1.61348975 1.20119941 -0.971515417
v 1.46061289 1.08799899 -1.77460897
v 1.43982494 1.58839011 -1.0730989
v 1.36525977 1.45872366 -1.65975964
v -1.81441426 1.1319648 0.0348496288
v -1.39226961 1.36557412 -1.66151679
v -1.72211802 1.5408982 -0.175535887
v -1.49651814 0.985127807 -1.74540961
v -2.01407313 0.703419328 -0.116383538
v -1.60076678 0.604681492 -1.82930243
v -1.61553168 -0.142331898 -0.0172402132
v -1.33496666 0.00307804346 -1.54349434
v -1.45372248 0.0443305969 0.760635078
v -1.76437533 0.766605854 0.815513492
v -1.6083858 1.16960073 0.728793859
v -0.37718907 1.30980849 -0.279547155
v -1.81441426 1.1319648 0.0348496288
v -1.72211802 1.5408982 -0.175535887
v -0.366973937 1.82855046 -0.496851534
v -1.23969197 1.17642057 1.27473533
v -0.202763379 0.532265663 0.494754851
v -0.0360807553 1.46757317 0.97610867
v -1.70294404 0.464392722 1.03926635
v -0.369446158 -0.403041959 0.0134008667
v -1.53343689 -0.169699371 0.602926075
v 1.33598459 1.38449943 0.50208813
v 1.90171194 0.607249081 -0.487159073
v 1.72837067 1.3553232 0.154414207
v 1.17771256 0.496386975 0.0450230688
v 0.374207884 1.25309443 1.21958184
v 0.211475492 0.339953363 0.749635875
v 0.0487430692 -0.573187768 0.279689878
v 1.03812838 -0.336947799 -0.391318738
v 1.44933128 -0.159687281 -0.617712975
v 0.0794479251 1.3546102 -0.00716385385
v 1.61348975 1.20119941 -0.971515417
v 1.68936324 1.25738108 -0.572936654
v 0.141042978 1.38102877 0.549541295
v -0.37718907 1.30980849 -0.279547155
v -0.280144602 1.33911312 0.242432237
v -1.81441426 1.1319648 0.0348496288
v -1.6083858 1.16960073 0.728793859
v 1.17505729 -0.112692058 -0.0726132914
v 0.194560036 -0.159105539 0.649478257
v 0.160592839 0.818415701 0.586048365
v 1.56472075 -0.000301420689 -0.368069261
v 1.86433613 0.796705544 -0.659435153
v 1.68936324 1.25738108 -0.572936654
v 0.141042978 1.38102877 0.549541295
v -1.76437533 0.766605854 0.815513492
v -0.225620955 -0.229990304 0.344248772
v -1.45372248 0.0443305969 0.760635078
v -0.260852098 0.783907115 0.278458685
v -0.280144602 1.33911312 0.242432237
v -1.6083858 1.16960073 0.728793859
v 0.0794479251 1.3546102 -0.00716385385
v 0.0686237216 1.99197614 -0.192077294
v 1.43982494 1.58839011 -1.0730989
v 1.61348975 1.20119941 -0.971515417
v 1.36525977 1.45872366 -1.65975964
v 1.43982494 1.58839011 -1.0730989
v 0.0686237216 1.99197614 -0.192077294
v -0.0404968336 1.64205778 -1.92921197
v -0.366973937 1.82855046 -0.496851534
v -0.464655191 1.55530298 -1.84521484
v -1.72211802 1.5408982 -0.175535887
v -1.39226961 1.36557412 -1.66151679
v 0.0794479251 1.3546102 -0.00716385385
v -0.37718907 1.30980849 -0.279547155
v -0.366973937 1.82855046 -0.496851534
v 0.0686237216 1.99197614 -0.192077294
v -0.245663196 -0.31523025 -0.0549770668
v -1.61553168 -0.142331898 -0.0172402132
v -1.45372248 0.0443305969 0.760635078
v -1.33496666 0.00307804346 -1.54349434
v -0.332748145 -0.14285475 -1.68939471
v -0.225620955 -0.229990304 0.344248772
v 0.042233564 -0.351567209 -0.0629080012
v 0.0318026021 -0.195936859 -1.74246502
v 0.194560036 -0.159105539 0.649478257
v 1.4418906 0.0969861746 -1.55766797
v 1.17505729 -0.112692058 -0.0726132914
v 1.50330555 0.0483424067 -0.962868571
v 1.56472075 -0.000301420689 -0.368069261
vt 0.348473996 0.781947136
vt 0.310028613 0.747676253
vt 0.328684866 0.762171984
vt 0.291357696 0.866954863
vt 0.322179884 0.78992027
vt 0.289792001 0.761921883
vt 0.245139927 0.842391074
vt 0.236981645 0.932178676
vt 0.236693189 0.755237222
vt 0.19867675 0.916296959
vt 0.199378818 0.813637733
vt 0.163541764 0.884933114
vt 0.0542486683 0.963561177
vt 0.144657522 0.970754087
vt 0.164783478 0.933284521
vt 0.0670777187 0.912214935
vt 0.037453346 0.957694769
vt 0.163541764 0.884933114
vt 0.0371969417 0.904618025
vt 0.0810583159 0.857579112
vt 0.0638004169 0.852610409
vt 0.311484784 0.695980668
vt 0.295635611 0.662701309
vt 0.25718689 0.691543102
vt 0.284307271 0.729670405
vt 0.212169275 0.720921397
vt 0.236693189 0.755237222
vt 0.440522462 0.572466969
vt 0.466094017 0.56692946
vt 0.460987389 0.549719095
vt 0.391845375 0.62861675
vt 0.479046583 0.658682883
vt 0.396911263 0.69079417
vt 0.295635611 0.662701309
vt 0.361968815 0.616512537
vt 0.311484784 0.695980668
vt 0.0638004169 0.852610409
vt 0.0810583159 0.857579112
vt 0.0885399953 0.832069159
vt 0.163541764 0.884933114
vt 0.149987608 0.795716643
vt 0.199378818 0.813637733
vt 0.212169275 0.720921397
vt 0.147559375 0.764047325
vt 0.236693189 0.755237222
vt 0.703539729 0.952058554
vt 0.731972337 0.951178372
vt 0.731309652 0.860843718
vt 0.70289278 0.863864958
vt 0.702245712 0.775671124
vt 0.730646968 0.770509064
vt 0.710768104 0.800636888
vt 0.708406568 0.748029709
vt 0.683772802 0.777116179
vt 0.735730588 0.771162391
vt 0.753391981 0.694913089
vt 0.779101968 0.719951332
vt 0.0936561897 0.700617969
vt 0.0395517461 0.76493293
vt 0.0633530542 0.79886955
vt 0.126773909 0.739555597
vt 0.112418085 0.689575315
vt 0.0820333883 0.812709808
vt 0.143979087 0.726151049
vt 0.163998067 0.65921694
vt 0.198364541 0.683779418
vt 0.143228114 0.758922517
vt 0.100713722 0.826550066
vt 0.159682304 0.778289437
vt 0.160881817 0.744344711
vt 0.207603782 0.70576334
vt 0.177618146 0.76243031
vt 0.216843024 0.727747202
vt 0.0258721597 0.892519891
vt 0.0314394198 0.928063631
vt 0.0782125816 0.901142418
vt 0.0655361339 0.865216255
vt 0.0203049015 0.856976151
vt 0.107636809 0.895276666
vt 0.05285969 0.829290152
vt 0.0974042416 0.872935414
vt 0.0767867044 0.827920079
vt 0.11888738 0.85798049
vt 0.100713722 0.826550066
vt 0.328684866 0.762171984
vt 0.216843024 0.727747202
vt 0.282196552 0.7801615
vt 0.228124648 0.706555545
vt 0.310028613 0.747676253
vt 0.239406258 0.685363889
vt 0.341215283 0.714801788
vt 0.275121033 0.662038147
vt 0.375854135 0.743589818
vt 0.348473996 0.781947136
vt 0.329066902 0.798546433
vt 0.776499867 0.663413227
vt 0.713124156 0.584177732
vt 0.697873235 0.612439871
vt 0.752166271 0.6932652
vt 0.828924119 0.925073385
vt 0.731309652 0.860843718
vt 0.731972337 0.951178372
vt 0.856794655 0.856892347
vt 0.730646968 0.770509064
vt 0.832513154 0.795155525
vt 0.616885185 0.945333779
vt 0.551229954 0.855692625
vt 0.580109179 0.934289038
vt 0.616255939 0.859557331
vt 0.703539729 0.952058554
vt 0.70289278 0.863864958
vt 0.702245712 0.775671124
vt 0.614840329 0.778886795
vt 0.579872191 0.788152277
vt 0.29209891 0.726032376
vt 0.245102912 0.601481736
vt 0.22298488 0.621728659
vt 0.263947189 0.755906343
vt 0.330940604 0.730174184
vt 0.302226007 0.756455421
vt 0.402190804 0.811982036
vt 0.359555811 0.843574047
vt 0.840082526 0.776893795
vt 0.779101968 0.719951332
vt 0.735730588 0.771162391
vt 0.860358298 0.804626405
vt 0.846005499 0.864547491
vt 0.815362215 0.879858434
vt 0.710768104 0.800636888
vt 0.624981523 0.677384257
vt 0.753391981 0.694913089
vt 0.67301178 0.652785122
vt 0.708406568 0.748029709
vt 0.683772802 0.777116179
vt 0.616616368 0.706378341
vt 0.807069123 0.683418393
vt 0.779623747 0.719638944
vt 0.877611518 0.779759288
vt 0.902555227 0.763317287
vt 0.225501329 0.899617255
vt 0.264737844 0.879005373
vt 0.264004946 0.756089568
vt 0.152651951 0.823114753
vt 0.225501761 0.742838144
vt 0.13850835 0.794092953
vt 0.183136582 0.647724628
vt 0.107577011 0.730623603
vt 0.807069123 0.683418393
vt 0.776499867 0.663413227
vt 0.752166271 0.6932652
vt 0.779623747 0.719638944
vt 0.38482365 0.654599845
vt 0.341215283 0.714801788
vt 0.375854135 0.743589818
vt 0.275121033 0.662038147
vt 0.302468896 0.606485307
vt 0.404351771 0.669407904
vt 0.39398855 0.641947627
vt 0.312416494 0.586278319
vt 0.434656352 0.659695446
vt 0.369781584 0.521324933
vt 0.433298469 0.586373448
vt 0.400984585 0.538886428
vt 0.432187617 0.556447923
vn -0.962848544 -0.0142014408 0.26966837
vn -0.999716699 -0.0216233376 -0.0099398056
vn -0.939099729 0.343480587 -0.0106125632
vn -0.0952380076 -0.759785831 0.643160224
vn -0.301748246 -0.714898884 0.630767405
vn -0.256320357 -0.442349881 0.85943383
vn -0.0223128647 -0.45893243 0.888191044
vn 0.129696369 -0.770106494 0.624591768
vn -0.163709044 -0.0604684539 0.984653771
vn 0.194218591 -0.478497624 0.856340587
vn 0.0283051264 -0.0912417099 0.995426476
vn 0.230897307 -0.120110929 0.965536058
vn 0.82872647 -0.500882387 -0.249658421
vn 0.82298559 -0.564638615 -0.0622739866
vn 0.959059894 -0.259867311 0.112575002
vn 0.981895685 -0.172245607 -0.0788175017
vn 0.802323937 -0.418246269 -0.425847709
vn 0.961192012 0.0704905018 0.266722858
vn 0.961500347 -0.0640700907 -0.2672306
vn 0.977489173 0.185520276 0.100484394
vn 0.954146206 0.291590691 -0.06767492
vn -0.941405058 -0.324270457 0.0927642956
vn -0.941405058 -0.324270487 0.0927643031
vn -0.947921097 0.0347975045 0.316598773
vn -0.943408251 0.0541938245 0.327175498
vn -0.786798358 0.38474983 0.482613564
vn -0.786798358 0.38474983 0.482613564
vn 0.0185883939 -0.92821002 -0.371592164
vn 0.0188135207 -0.888125002 -0.459216654
vn 0.0188010726 -0.80351758 -0.594983935
vn -0.135955706 -0.942766726 -0.304478317
vn 0.018345546 -0.949930906 -0.311920971
vn -0.162556633 -0.939206898 -0.302433312
vn -0.308860749 -0.906780064 -0.286975533
vn -0.308860779 -0.906780064 -0.286975563
vn -0.308860749 -0.906780064 -0.286975533
vn 0.316426247 0.906015217 0.281088889
vn 0.324618429 0.841872513 0.431130618
vn 0.325378299 0.792433262 0.51592499
vn 0.324188739 0.756139398 0.5684672
vn 0.166797519 0.801044285 0.574897051
vn 0.135747358 0.807269037 0.574359953
vn -0.0215562303 0.826183856 0.562988043
vn -0.0215562321 0.826183915 0.562988043
vn -0.0215562321 0.826183915 0.562988043
vn 0.594297588 0.281760007 -0.753273964
vn 0.594297528 0.281759977 -0.753273964
vn 0.594297588 0.281760007 -0.753273964
vn 0.594297588 0.281759977 -0.753273964
vn 0.594297588 0.281760007 -0.753273964
vn 0.594297588 0.281760007 -0.753273964
vn -0.590928555 0.0317726396 0.806097925
vn -0.590928555 0.0317726508 0.806097925
vn -0.590928555 0.0317726396 0.806097925
vn -0.590928555 0.0317726471 0.806097925
vn -0.590928555 0.0317726657 0.806097925
vn -0.590928555 0.0317726657 0.806097925
vn 0.0033661616 -0.418622196 -0.908154249
vn 0.169915944 -0.426582903 -0.888344347
vn 0.166623488 -0.101599626 -0.980772257
vn -0.00931662694 -0.106211729 -0.994299889
vn -0.16363138 -0.417767018 -0.893697619
vn 0.163017139 0.244796753 -0.955771863
vn -0.18308048 -0.117803469 -0.976014316
vn -0.162117809 -0.440275103 -0.883105695
vn -0.183975995 -0.114573255 -0.976230502
vn -0.0159052275 0.213308781 -0.976855397
vn 0.189043984 0.246978313 -0.950402081
vn -0.0116921775 0.215053529 -0.976532221
vn -0.199085489 0.197576791 -0.959858537
vn -0.196984366 0.220558584 -0.955275357
vn -0.21337235 0.19777751 -0.956742585
vn -0.215425953 0.22346516 -0.950607657
vn 0.921736658 -0.350091487 -0.166846082
vn 0.912840426 -0.373302341 -0.165432036
vn 0.976037145 -0.00506493263 -0.217545047
vn 0.976693809 0.00610564696 -0.214550704
vn 0.936245084 -0.307966501 -0.169120684
vn 0.89698112 0.372027576 -0.238789394
vn 0.976497769 0.0256113224 -0.214000389
vn 0.907684326 0.351966798 -0.228535578
vn 0.915833712 0.333213627 -0.224092305
vn 0.920551062 0.330391794 -0.208391637
vn 0.920551062 0.330391794 -0.208391637
vn -0.939099729 0.343480587 -0.0106125632
vn -0.9561342 0.204448625 -0.209781244
vn -0.9561342 0.20444864 -0.209781259
vn -0.923974276 0.31718868 -0.21368888
vn -0.999716699 -0.0216233376 -0.0099398056
vn -0.974059165 -0.0191365574 -0.225483119
vn -0.900737882 -0.431910694 0.0460906178
vn -0.871238291 -0.451269031 -0.193132326
vn -0.880392313 -0.390595168 0.268969953
vn -0.962848544 -0.0142014408 0.26966837
vn -0.901148617 0.367591798 0.229798347
vn 0.139049634 0.401900172 0.905064344
vn 0.139049649 0.401900142 0.905064344
vn 0.139049619 0.401900142 0.905064344
vn 0.139049634 0.401900142 0.905064344
vn -0.318707407 0.47802794 -0.818483293
vn -0.318707377 0.478028059 -0.818483293
vn -0.318707407 0.478027999 -0.818483293
vn -0.318707407 0.478028059 -0.818483293
vn -0.318707317 0.478028178 -0.818483174
vn -0.318707317 0.478028178 -0.818483174
vn -0.571869075 0.453667641 -0.683484733
vn -0.571869195 0.453667581 -0.683484733
vn -0.571869135 0.453667551 -0.683484733
vn -0.571869016 0.453667581 -0.683484733
vn -0.571869075 0.45366767 -0.683484733
vn -0.571868956 0.453667581 -0.683484793
vn -0.571868896 0.453667551 -0.683484912
vn -0.571868956 0.453667551 -0.683484793
vn -0.571869135 0.453667551 -0.683484733
vn -0.023826709 0.997630715 -0.0645391792
vn 0.0284345224 0.995520234 -0.0901711583
vn 0.0284345243 0.995520234 -0.0901711658
vn -0.0155989425 0.997522771 -0.0685917065
vn -0.109850951 0.993533611 -0.0287021119
vn -0.0964306071 0.994792521 -0.0329998843
vn -0.130850643 0.991159022 -0.0219513439
vn -0.130850658 0.991159022 -0.021951342
vn 0.589194775 0.0726902634 0.804714561
vn 0.589194834 0.0726902634 0.80471468
vn 0.589194834 0.0726901963 0.804714561
vn 0.589194775 0.0726902634 0.804714561
vn 0.589194834 0.0726901889 0.804714561
vn 0.589194894 0.0726901218 0.804714501
vn 0.589194894 0.0726901218 0.804714501
vn 0.334753603 0.0725951046 0.9395051
vn 0.334753603 0.0725950375 0.939505219
vn 0.334753633 0.0725950375 0.939505219
vn 0.334753633 0.0725951046 0.939505219
vn 0.334753603 0.0725951791 0.9395051
vn 0.334753633 0.0725951865 0.939505219
vn 0.55115658 0.315272689 0.772547424
vn 0.55115664 0.315272689 0.772547364
vn 0.55115664 0.315272689 0.772547424
vn 0.55115664 0.315272689 0.772547424
vn 0.15729703 0.96463412 -0.21151486
vn 0.157297045 0.96463412 -0.21151486
vn -0.0215939041 0.979599118 -0.199798375
vn -0.0475944169 0.979136169 -0.197552621
vn -0.234827116 0.956214428 -0.174671859
vn -0.23507981 0.956213236 -0.174337894
vn -0.237750039 0.956190765 -0.170804173
vn -0.237750053 0.956190765 -0.170804158
vn -0.566602349 0.270487934 0.778330386
vn -0.56660223 0.270487934 0.778330386
vn -0.56660223 0.270487905 0.778330386
vn -0.566602349 0.270487934 0.778330386
vn -0.118302681 -0.990215778 0.0740078688
vn -0.133960426 -0.988419294 0.071287021
vn -0.123492494 -0.962531805 0.241416872
vn -0.140613556 -0.984204233 -0.107563123
vn -0.142258346 -0.984756649 -0.100085124
vn -0.0877818242 -0.965168297 0.246464178
vn 0.0445165709 -0.996586204 0.0695286393
vn 0.0339086242 -0.994793117 -0.0961083323
vn 0.104143828 -0.967548549 0.230225578
vn 0.209437773 -0.973107696 -0.0959014893
vn 0.209837377 -0.977181196 -0.0329428427
vn 0.209437773 -0.973107696 -0.0959014967
vn 0.209437743 -0.973107696 -0.0959014893
f 3/3/3 2/2/2 1/1/1
f 6/6/6 5/5/5 4/4/4
f 7/7/7 6/6/6 4/4/4
f 7/7/7 4/4/4 8/8/8
f 9/9/9 6/6/6 7/7/7
f 10/10/10 7/7/7 8/8/8
f 11/11/11 9/9/9 7/7/7
f 11/11/11 7/7/7 10/10/10
f 12/12/12 11/11/11 10/10/10
f 15/15/15 14/14/14 13/13/13
f 16/16/16 15/15/15 13/13/13
f 16/16/16 13/13/13 17/17/17
f 18/18/18 15/15/15 16/16/16
f 19/19/19 16/16/16 17/17/17
f 20/20/20 18/18/18 16/16/16
f 20/20/20 16/16/16 19/19/19
f 21/21/21 20/20/20 19/19/19
f 24/24/24 23/23/23 22/22/22
f 25/25/25 24/24/24 22/22/22
f 26/26/26 24/24/24 25/25/25
f 27/27/27 26/26/26 25/25/25
f 30/30/30 29/29/29 28/28/28
f 31/31/31 28/28/28 29/29/29
f 29/29/29 32/32/32 31/31/31
f 32/32/32 33/33/33 31/31/31
f 31/31/31 33/33/33 34/34/34
f 34/34/34 35/35/35 31/31/31
f 33/33/33 36/36/36 34/34/34
f 39/39/39 38/38/38 37/37/37
f 40/40/40 38/38/38 39/39/39
f 39/39/39 41/41/41 40/40/40
f 41/41/41 42/42/42 40/40/40
f 43/43/43 42/42/42 41/41/41
f 41/41/41 44/44/44 43/43/43
f 43/43/43 45/45/45 42/42/42
f 48/48/48 47/47/47 46/46/46
f 49/49/49 48/48/48 46/46/46
f 48/48/48 49/49/49 50/50/50
f 51/51/51 48/48/48 50/50/50
f 54/54/54 53/53/53 52/52/52
f 53/53/53 55/55/55 52/52/52
f 53/53/53 56/56/56 55/55/55
f 56/56/56 57/57/57 55/55/55
f 60/60/60 59/59/59 58/58/58
f 61/61/61 60/60/60 58/58/58
f 61/61/61 58/58/58 62/62/62
f 63/63/63 60/60/60 61/61/61
f 64/64/64 61/61/61 62/62/62
f 64/64/64 62/62/62 65/65/65
f 66/66/66 64/64/64 65/65/65
f 67/67/67 63/63/63 61/61/61
f 67/67/67 61/61/61 64/64/64
f 68/68/68 63/63/63 67/67/67
f 69/69/69 68/68/68 67/67/67
f 70/70/70 64/64/64 66/66/66
f 70/70/70 67/67/67 64/64/64
f 69/69/69 67/67/67 70/70/70
f 71/71/71 70/70/70 66/66/66
f 72/72/72 69/69/69 70/70/70
f 72/72/72 70/70/70 71/71/71
f 73/73/73 72/72/72 71/71/71
f 76/76/76 75/75/75 74/74/74
f 77/77/77 76/76/76 74/74/74
f 77/77/77 74/74/74 78/78/78
f 79/79/79 76/76/76 77/77/77
f 80/80/80 77/77/77 78/78/78
f 81/81/81 79/79/79 77/77/77
f 81/81/81 77/77/77 80/80/80
f 82/82/82 81/81/81 80/80/80
f 83/83/83 81/81/81 82/82/82
f 84/84/84 83/83/83 82/82/82
f 87/87/87 86/86/86 85/85/85
f 86/86/86 88/88/88 85/85/85
f 89/89/89 85/85/85 88/88/88
f 90/90/90 89/89/89 88/88/88
f 89/89/89 90/90/90 91/91/91
f 90/90/90 92/92/92 91/91/91
f 89/89/89 91/91/91 93/93/93
f 94/94/94 89/89/89 93/93/93
f 95/95/95 85/85/85 94/94/94
f 98/98/98 97/97/97 96/96/96
f 99/99/99 98/98/98 96/96/96
f 102/102/102 101/101/101 100/100/100
f 101/101/101 103/103/103 100/100/100
f 101/101/101 104/104/104 103/103/103
f 104/104/104 105/105/105 103/103/103
f 108/108/108 107/107/107 106/106/106
f 107/107/107 109/109/109 106/106/106
f 106/106/106 109/109/109 110/110/110
f 109/109/109 111/111/111 110/110/110
f 111/111/111 109/109/109 112/112/112
f 109/109/109 113/113/113 112/112/112
f 109/109/109 107/107/107 113/113/113
f 107/107/107 114/114/114 113/113/113
f 117/117/117 116/116/116 115/115/115
f 118/118/118 117/117/117 115/115/115
f 115/115/115 119/119/119 118/118/118
f 119/119/119 120/120/120 118/118/118
f 119/119/119 121/121/121 120/120/120
f 121/121/121 122/122/122 120/120/120
f 125/125/125 124/124/124 123/123/123
f 125/125/125 123/123/123 126/126/126
f 126/126/126 127/127/127 125/125/125
f 125/125/125 127/127/127 128/128/128
f 129/129/129 125/125/125 128/128/128
f 132/132/132 131/131/131 130/130/130
f 131/131/131 133/133/133 130/130/130
f 133/133/133 134/134/134 130/130/130
f 134/134/134 135/135/135 130/130/130
f 138/138/138 137/137/137 136/136/136
f 139/139/139 138/138/138 136/136/136
f 142/142/142 141/141/141 140/140/140
f 143/143/143 142/142/142 140/140/140
f 142/142/142 143/143/143 144/144/144
f 143/143/143 145/145/145 144/144/144
f 146/146/146 144/144/144 145/145/145
f 147/147/147 146/146/146 145/145/145
f 150/150/150 149/149/149 148/148/148
f 151/151/151 150/150/150 148/148/148
f 154/154/154 153/153/153 152/152/152
f 152/152/152 153/153/153 155/155/155
f 156/156/156 152/152/152 155/155/155
f 157/157/157 154/154/154 152/152/152
f 157/157/157 152/152/152 158/158/158
f 156/156/156 159/159/159 152/152/152
f 159/159/159 158/158/158 152/152/152
f 160/160/160 157/157/157 158/158/158
f 158/158/158 159/159/159 161/161/161
f 158/158/158 162/162/162 160/160/160
f 161/161/161 163/163/163 158/158/158
f 164/164/164 162/162/162 158/158/158
f 163/163/163 164/164/164 158/158/158
