v -1.479730 0.932011 -0.775126
v -1.477653 0.497819 -1.235215
v -1.044806 0.928818 -1.360132
v 1.522507 0.943380 0.743705
v 1.429731 0.497226 1.167992
v 1.035523 0.921815 1.303703
v 1.129644 1.332279 -1.055138
v 1.328956 0.940113 -0.989607
v 1.353023 1.333640 -0.820833
v -1.374016 1.304771 1.133346
v -1.544620 1.049906 1.016269
v -1.537721 1.314559 0.846770
v 1.389417 -0.015222 -1.145598
v 0.073009 -0.009638 -1.526499
v -1.483312 -0.002648 -1.155186
v -1.359805 0.014373 -0.046270
v 1.539625 -0.001343 0.003763
v -1.461088 -0.013225 1.098523
v 1.378053 -0.019129 1.146513
v -0.383739 -0.028477 1.520159
v -0.373532 0.924835 1.589010
v -1.589852 0.957460 1.138815
v -1.479398 0.926116 -0.066723
v -0.148248 0.934922 -0.024004
v -1.479730 0.932011 -0.775126
v -1.044806 0.928818 -1.360132
v 0.057606 0.934514 -1.573215
v 1.595204 0.910607 0.006573
v 1.395978 0.929272 -1.219381
v 1.522507 0.943380 0.743705
v 1.035523 0.921815 1.303703
v 1.328956 0.940113 -0.989607
v 1.458836 1.336206 0.104162
v 1.353023 1.333640 -0.820833
v 1.412598 0.940911 0.137942
v 1.273104 0.939573 1.197342
v 1.293680 1.337500 1.240879
v -1.589852 0.957460 1.138815
v -1.461088 -0.013225 1.098523
v -1.359805 0.014373 -0.046270
v -1.479398 0.926116 -0.066723
v -1.477653 0.497819 -1.235215
v -1.483312 -0.002648 -1.155186
v -1.479730 0.932011 -0.775126
v -0.373532 0.924835 1.589010
v -1.461088 -0.013225 1.098523
v -1.589852 0.957460 1.138815
v -0.383739 -0.028477 1.520159
v 1.035523 0.921815 1.303703
v 1.378053 -0.019129 1.146513
v 1.429731 0.497226 1.167992
v -1.044806 0.928818 -1.360132
v -1.477653 0.497819 -1.235215
v -1.483312 -0.002648 -1.155186
v 0.057606 0.934514 -1.573215
v 0.073009 -0.009638 -1.526499
v 1.389417 -0.015222 -1.145598
v 1.395978 0.929272 -1.219381
v 1.395978 0.929272 -1.219381
v 1.389417 -0.015222 -1.145598
v 1.539625 -0.001343 0.003763
v 1.595204 0.910607 0.006573
v 1.429731 0.497226 1.167992
v 1.378053 -0.019129 1.146513
v 1.522507 0.943380 0.743705
v 1.371146 1.338295 -1.265441
v 0.310748 1.351189 -1.632221
v 0.161328 1.343588 -0.158353
v 1.584221 1.353340 -0.993243
v 1.695036 1.344036 -0.065269
v -0.230183 1.347567 1.303408
v 1.487804 1.360472 1.040525
v 0.078558 0.952828 -1.438025
v 1.412598 0.940911 0.137942
v 1.328956 0.940113 -0.989607
v -0.191373 0.945950 -0.011123
v 1.273104 0.939573 1.197342
v -0.500978 0.971639 1.464684
v -1.373997 0.933935 -0.105645
v -1.380982 0.930119 -1.189927
v -1.545551 0.939803 1.014975
v 1.541355 1.795282 1.061669
v 1.487804 1.360472 1.040525
v -0.230183 1.347567 1.303408
v -0.253392 1.759358 1.334205
v -1.545551 0.939803 1.014975
v -1.544620 1.049906 1.016269
v -1.374016 1.304771 1.133346
v -0.504832 1.353079 1.505295
v -0.500978 0.971639 1.464684
v 1.293680 1.337500 1.240879
v 1.273104 0.939573 1.197342
v -1.428435 1.324035 -1.219401
v 0.084024 1.313531 -1.470899
v 1.129644 1.332279 -1.055138
v -1.438391 1.313022 -0.074854
v 1.353023 1.333640 -0.820833
v 1.458836 1.336206 0.104162
v -1.537721 1.314559 0.846770
v 1.293680 1.337500 1.240879
v -1.374016 1.304771 1.133346
v -0.504832 1.353079 1.505295
v 0.084024 1.313531 -1.470899
v 1.328956 0.940113 -0.989607
v 1.129644 1.332279 -1.055138
v 0.078558 0.952828 -1.438025
v -1.428435 1.324035 -1.219401
v -1.380982 0.930119 -1.189927
v -1.438391 1.313022 -0.074854
v -1.380982 0.930119 -1.189927
v -1.428435 1.324035 -1.219401
v -1.373997 0.933935 -0.105645
v -1.545551 0.939803 1.014975
v -1.544620 1.049906 1.016269
v -1.537721 1.314559 0.846770
v 0.165340 1.751005 -0.158387
v 0.298010 1.764881 -1.661850
v 1.115756 1.787287 -1.390103
v 1.648333 1.804301 -0.715013
v 1.706913 1.809224 -0.081411
v -0.253392 1.759358 1.334205
v 1.541355 1.795282 1.061669
v 1.706913 1.809224 -0.081411
v 1.487804 1.360472 1.040525
v 1.541355 1.795282 1.061669
v 1.695036 1.344036 -0.065269
v 1.648333 1.804301 -0.715013
v 1.584221 1.353340 -0.993243
v 0.298010 1.764881 -1.661850
v 0.310748 1.351189 -1.632221
v 1.371146 1.338295 -1.265441
v 1.115756 1.787287 -1.390103
v 0.310748 1.351189 -1.632221
v 0.298010 1.764881 -1.661850
v 0.165340 1.751005 -0.158387
v 0.161328 1.343588 -0.158353
v -0.230183 1.347567 1.303408
v -0.253392 1.759358 1.334205
v 1.648333 1.804301 -0.715013
v 1.115756 1.787287 -1.390103
v 1.371146 1.338295 -1.265441
v 1.584221 1.353340 -0.993243
v -1.413129 1.807770 -1.404164
v -1.410946 1.319108 -1.405435
v 0.105577 1.338452 -1.347188
v 0.096655 1.752100 -1.378752
v -0.980559 1.743157 1.470801
v -0.950560 1.331475 1.444776
v -1.798990 1.338871 0.893591
v -1.536189 1.781996 1.060910
v -1.614516 1.794743 -0.284883
v -1.828574 1.795806 0.341273
v -1.885331 1.360857 0.616566
v -1.597000 1.369598 -0.286090
v -1.413129 1.807770 -1.404164
v -1.410946 1.319108 -1.405435
v 0.096655 1.752100 -1.378752
v -1.614516 1.794743 -0.284883
v -1.413129 1.807770 -1.404164
v -0.302143 1.737090 0.076902
v -1.828574 1.795806 0.341273
v -0.980559 1.743157 1.470801
v -1.536189 1.781996 1.060910
v -1.536189 1.781996 1.060910
v -1.798990 1.338871 0.893591
v -1.885331 1.360857 0.616566
v -1.828574 1.795806 0.341273
v -0.304396 1.338857 0.076367
v 0.096655 1.752100 -1.378752
v 0.105577 1.338452 -1.347188
v -0.302143 1.737090 0.076902
v -0.950560 1.331475 1.444776
v -0.980559 1.743157 1.470801
v 0.105577 1.338452 -1.347188
v -1.410946 1.319108 -1.405435
v -1.597000 1.369598 -0.286090
v -0.304396 1.338857 0.076367
v -1.885331 1.360857 0.616566
v -0.950560 1.331475 1.444776
v -1.798990 1.338871 0.893591
vt 0.649402261 0.859824777
vt 0.609599352 0.853245735
vt 0.618731022 0.892854989
vt 0.690641165 0.910714924
vt 0.650746763 0.904378295
vt 0.657221317 0.943870962
vt 0.650182366 0.82820338
vt 0.626171947 0.819386542
vt 0.63174504 0.844275236
vt 0.604245305 0.790003061
vt 0.584331632 0.78348279
vt 0.589384794 0.803495526
vt 0.04164166 0.721841455
vt 0.0770310834 0.799359322
vt 0.153989643 0.856769621
vt 0.204563245 0.807604611
vt 0.0881467536 0.666652739
vt 0.263617426 0.765221536
vt 0.146805197 0.625525653
vt 0.237321854 0.695125818
vt 0.189374745 0.927492797
vt 0.256276309 0.969097257
vt 0.311979771 0.917403162
vt 0.260964036 0.854494274
vt 0.348420084 0.892149746
vt 0.360110283 0.848617375
vt 0.32981801 0.78428489
vt 0.191401482 0.768714547
vt 0.257413566 0.732020557
vt 0.158111453 0.800033092
vt 0.14966464 0.846345782
vt 0.702988267 0.976217449
vt 0.746431828 0.910287976
vt 0.698971629 0.951030612
vt 0.761821151 0.928672552
vt 0.819797635 0.881165028
vt 0.805246711 0.861627698
vt 0.745307446 0.787153423
vt 0.70764631 0.742545545
vt 0.649298668 0.785895884
vt 0.684565067 0.832820892
vt 0.609599352 0.853245735
vt 0.593134463 0.828562737
vt 0.649402261 0.859824777
vt 0.799935758 0.613429546
vt 0.895421505 0.612112999
vt 0.861666799 0.564480603
vt 0.83667469 0.658520877
vt 0.731573701 0.672491968
vt 0.750351191 0.733258426
vt 0.729938149 0.712478518
vt 0.776990771 0.7132774
vt 0.775203228 0.753886461
vt 0.795807481 0.775236011
vt 0.830674648 0.666647971
vt 0.868379831 0.712372601
vt 0.934884965 0.659094989
vt 0.900463581 0.610939384
vt 0.786220431 0.836146235
vt 0.747266293 0.791577637
vt 0.690946937 0.836706877
vt 0.726999104 0.883017004
vt 0.650746763 0.904378295
vt 0.634185553 0.880415201
vt 0.690641165 0.910714924
vt 0.60901159 0.701223314
vt 0.636877179 0.756723523
vt 0.700618148 0.703491807
vt 0.611112952 0.6819911
vt 0.643093169 0.640605628
vt 0.773489714 0.659998775
vt 0.694613397 0.604176641
vt 0.771964192 0.823220372
vt 0.783782005 0.684433103
vt 0.734879375 0.741988182
vt 0.854290485 0.769437492
vt 0.844832301 0.640946627
vt 0.939886987 0.713517427
vt 0.905999422 0.831777394
vt 0.852860332 0.883079529
vt 0.967594743 0.787267029
vt 0.773088813 0.693745553
vt 0.751721263 0.671142697
vt 0.658079147 0.749112368
vt 0.674804986 0.77046448
vt 0.580349624 0.77762866
vt 0.584331632 0.78348279
vt 0.604245305 0.790003061
vt 0.658079147 0.749112368
vt 0.64300859 0.729873419
vt 0.751721263 0.671142697
vt 0.734986305 0.653440177
vt 0.185308993 0.92939949
vt 0.236531973 0.880520701
vt 0.252177894 0.830215991
vt 0.143562138 0.898349524
vt 0.247837067 0.813868046
vt 0.215857625 0.78470391
vt 0.104122877 0.876798093
vt 0.169404387 0.759566486
vt 0.0986152291 0.864053726
vt 0.109374285 0.818592489
vt 0.710290551 0.781304598
vt 0.625076711 0.817813456
vt 0.650182366 0.82820338
vt 0.69554764 0.76297003
vt 0.788542807 0.715137243
vt 0.772331476 0.697919726
vt 0.614553452 0.731936395
vt 0.542946637 0.761346936
vt 0.557023704 0.780349255
vt 0.599236369 0.713522971
vt 0.657651305 0.664913774
vt 0.662479997 0.670091569
vt 0.664668977 0.690616012
vt 0.250864923 0.654322922
vt 0.166921422 0.59373343
vt 0.144883379 0.647706032
vt 0.155486986 0.705343962
vt 0.185420111 0.737376451
vt 0.34637028 0.700378478
vt 0.250669867 0.780296028
vt 0.726503313 0.886480749
vt 0.805246711 0.861627698
vt 0.786667824 0.836682022
vt 0.746431828 0.910287976
vt 0.69323051 0.915029407
vt 0.698971629 0.951030612
vt 0.727283657 0.802437603
vt 0.710290551 0.781304598
vt 0.650182366 0.82820338
vt 0.682875156 0.84020859
vt 0.696649373 0.595109046
vt 0.675152898 0.615155995
vt 0.753550887 0.687563658
vt 0.773378015 0.666551769
vt 0.850996017 0.73989445
vt 0.832759738 0.762822211
vt 0.639710903 0.879850328
vt 0.682875156 0.84020859
vt 0.650182366 0.82820338
vt 0.63174504 0.844275236
vt 0.809851885 0.737768888
vt 0.788542807 0.715137243
vt 0.710290551 0.781304598
vt 0.727283657 0.802437603
vt 0.674804986 0.77046448
vt 0.658079147 0.749112368
vt 0.604245305 0.790003061
vt 0.638204038 0.801122069
vt 0.634404123 0.75579983
vt 0.668612599 0.727593184
vt 0.664668977 0.690616012
vt 0.614553452 0.731936395
vt 0.57552737 0.805326879
vt 0.557023704 0.780349255
vt 0.166921422 0.59373343
vt 0.30624339 0.578408122
vt 0.248391747 0.527688026
vt 0.250864923 0.654322922
vt 0.343243331 0.602837801
vt 0.34637028 0.700378478
vt 0.361357957 0.655047953
vt 0.638204038 0.801122069
vt 0.604245305 0.790003061
vt 0.589384794 0.803495526
vt 0.598488629 0.839550734
vt 0.674899578 0.669709027
vt 0.764426768 0.61828804
vt 0.743752956 0.600409806
vt 0.693547606 0.688218951
vt 0.605277061 0.738604665
vt 0.623017907 0.759241164
vt 0.838684082 0.777544379
vt 0.892887831 0.708209157
vt 0.846749425 0.661187649
vt 0.785664439 0.709687233
vt 0.814061701 0.616839468
vt 0.743236303 0.632610798
vt 0.798018277 0.611485004
vn -0.677380 0.533482 -0.506511
vn -0.677380 0.533482 -0.506511
vn -0.677380 0.533482 -0.506511
vn 0.672248 0.431973 0.601233
vn 0.672248 0.431973 0.601233
vn 0.672248 0.431973 0.601233
vn 0.701122 0.244402 -0.669848
vn 0.701122 0.244402 -0.669848
vn 0.701122 0.244402 -0.669848
vn -0.815764 0.326868 0.477166
vn -0.815764 0.326868 0.477166
vn -0.815764 0.326868 0.477166
vn -0.004953 -0.999912 0.012324
vn -0.004953 -0.999912 0.012324
vn -0.004953 -0.999912 0.012324
vn -0.004063 -0.999981 -0.004550
vn -0.004040 -0.999979 -0.004987
vn -0.003141 -0.999753 -0.022010
vn -0.003141 -0.999753 -0.022010
vn -0.003141 -0.999753 -0.022010
vn 0.006067 0.999973 -0.004139
vn 0.010565 0.999924 -0.006283
vn 0.003362 0.999990 -0.003073
vn 0.003742 0.999993 -0.000364
vn -0.003961 0.999992 0.000191
vn -0.003961 0.999992 0.000191
vn 0.002868 0.999989 0.003629
vn 0.004814 0.999986 0.002267
vn 0.008767 0.999940 0.006599
vn 0.001120 0.999998 -0.001782
vn 0.001120 0.999998 -0.001782
vn 0.993132 -0.072848 -0.091549
vn 0.996734 -0.079027 0.016635
vn 0.993132 -0.072848 -0.091549
vn 0.996392 -0.079685 0.029202
vn 0.986946 -0.084816 0.136909
vn 0.986946 -0.084816 0.136909
vn -0.987616 -0.129365 -0.088766
vn -0.987616 -0.129365 -0.088766
vn -0.995067 -0.097719 -0.017117
vn -0.995166 -0.096986 -0.015472
vn -0.996289 -0.064294 0.057227
vn -0.996289 -0.064294 0.057227
vn -0.996289 -0.064294 0.057227
vn -0.077088 -0.080566 0.993764
vn -0.355671 -0.074765 0.931616
vn -0.355671 -0.074765 0.931616
vn -0.079663 -0.080543 0.993563
vn 0.207041 -0.079811 0.975071
vn 0.207041 -0.079811 0.975071
vn 0.207041 -0.079811 0.975071
vn -0.207334 -0.088100 -0.974295
vn -0.207334 -0.088100 -0.974295
vn -0.207334 -0.088100 -0.974295
vn 0.027565 -0.076451 -0.996692
vn 0.033453 -0.076103 -0.996539
vn 0.266022 -0.060138 -0.962089
vn 0.266022 -0.060138 -0.962089
vn 0.988601 -0.038655 -0.145512
vn 0.988601 -0.038655 -0.145512
vn 0.998077 -0.060830 -0.011944
vn 0.998079 -0.061111 -0.010204
vn 0.989143 -0.081910 0.122015
vn 0.989143 -0.081910 0.122015
vn 0.989143 -0.081910 0.122015
vn 0.002481 -0.999988 0.004173
vn 0.002481 -0.999988 0.004173
vn 0.002481 -0.999988 0.004173
vn 0.002481 -0.999988 0.004173
vn 0.002481 -0.999988 0.004173
vn 0.002481 -0.999988 0.004173
vn 0.002481 -0.999988 0.004173
vn 0.003050 -0.999994 -0.001428
vn -0.008286 -0.999962 0.002687
vn -0.005636 -0.999980 -0.002791
vn 0.002990 -0.999983 0.004927
vn -0.010713 -0.999913 0.007707
vn 0.003447 -0.999926 0.011636
vn 0.014565 -0.999865 0.007604
vn 0.013150 -0.999914 0.000158
vn 0.015991 -0.999758 0.015114
vn 0.151249 -0.065932 0.986294
vn 0.151249 -0.065932 0.986294
vn 0.151249 -0.065932 0.986294
vn 0.151249 -0.065932 0.986294
vn -0.393524 -0.104848 0.913316
vn -0.393524 -0.104848 0.913316
vn -0.393524 -0.104848 0.913316
vn -0.124592 -0.111281 0.985948
vn -0.130621 -0.111233 0.985173
vn 0.144914 -0.109285 0.983390
vn 0.144914 -0.109285 0.983390
vn -0.006869 0.999955 -0.006607
vn -0.006869 0.999955 -0.006607
vn -0.006869 0.999955 -0.006607
vn -0.006869 0.999955 -0.006607
vn -0.006869 0.999955 -0.006607
vn -0.006869 0.999955 -0.006607
vn -0.006869 0.999955 -0.006607
vn -0.006869 0.999955 -0.006607
vn -0.006869 0.999955 -0.006607
vn -0.006869 0.999955 -0.006607
vn 0.098799 -0.062951 -0.993114
vn 0.352154 -0.031593 -0.935409
vn 0.352154 -0.031593 -0.935409
vn 0.095460 -0.063330 -0.993417
vn -0.164737 -0.090317 -0.982194
vn -0.164737 -0.090317 -0.982194
vn -0.990621 -0.118231 -0.068494
vn -0.989693 -0.143197 -0.001782
vn -0.989693 -0.143197 -0.001782
vn -0.990765 -0.121003 -0.061183
vn -0.987173 -0.095310 -0.128082
vn -0.987173 -0.095310 -0.128082
vn -0.987173 -0.095310 -0.128082
vn -0.030897 0.999522 -0.001302
vn -0.033759 0.999428 0.002077
vn -0.033759 0.999428 0.002077
vn -0.033759 0.999428 0.002077
vn -0.031062 0.999517 -0.001107
vn -0.028451 0.999586 -0.004188
vn -0.028451 0.999586 -0.004188
vn 0.997753 -0.062296 0.024660
vn 0.983933 -0.072438 0.163184
vn 0.983933 -0.072438 0.163184
vn 0.997553 -0.062771 0.030798
vn 0.992833 -0.051498 -0.107844
vn 0.992833 -0.051498 -0.107844
vn 0.321430 -0.069006 -0.944416
vn 0.321430 -0.069006 -0.944416
vn 0.321430 -0.069006 -0.944416
vn 0.321430 -0.069006 -0.944416
vn -0.995435 -0.013989 -0.094414
vn -0.995435 -0.013989 -0.094414
vn -0.983596 -0.013380 -0.179887
vn -0.983528 -0.013377 -0.180258
vn -0.964325 -0.012667 -0.264417
vn -0.964325 -0.012667 -0.264417
vn 0.753771 0.262972 -0.602225
vn 0.753771 0.262972 -0.602225
vn 0.753771 0.262972 -0.602225
vn 0.753771 0.262972 -0.602225
vn 0.027220 -0.033206 -0.999078
vn 0.027220 -0.033206 -0.999078
vn 0.027220 -0.033206 -0.999078
vn 0.027220 -0.033206 -0.999078
vn -0.565275 -0.032486 0.824263
vn -0.565275 -0.032486 0.824263
vn -0.565275 -0.032486 0.824263
vn -0.565275 -0.032486 0.824263
vn -0.969479 -0.038659 -0.242109
vn -0.948438 -0.056139 -0.311952
vn -0.948438 -0.056139 -0.311952
vn -0.969919 -0.038234 -0.240406
vn -0.985197 -0.020777 -0.170161
vn -0.985197 -0.020777 -0.170161
vn 0.037429 0.999107 0.019603
vn 0.040883 0.999038 0.015880
vn 0.037429 0.999107 0.019603
vn 0.040701 0.999042 0.016076
vn 0.044401 0.998941 0.012085
vn 0.044401 0.998941 0.012085
vn 0.044401 0.998941 0.012085
vn -0.868413 0.358201 0.342857
vn -0.868413 0.358201 0.342857
vn -0.868413 0.358201 0.342857
vn -0.868413 0.358201 0.342857
vn 0.935505 0.017541 0.352878
vn 0.962554 0.018244 0.270474
vn 0.962554 0.018244 0.270474
vn 0.935637 0.017544 0.352528
vn 0.901563 0.016710 0.432325
vn 0.901563 0.016710 0.432325
vn -0.010587 -0.999944 0.000577
vn -0.010587 -0.999944 0.000577
vn -0.010587 -0.999944 0.000577
vn -0.010587 -0.999944 0.000577
vn -0.010587 -0.999944 0.000577
vn -0.010587 -0.999944 0.000577
vn -0.010587 -0.999944 0.000577
f 3/3/3 2/2/2 1/1/1
f 6/6/6 5/5/5 4/4/4
f 9/9/9 8/8/8 7/7/7
f 12/12/12 11/11/11 10/10/10
f 15/15/15 14/14/14 13/13/13
f 13/13/13 16/16/16 15/15/15
f 13/13/13 17/17/17 16/16/16
f 18/18/18 16/16/16 17/17/17
f 17/17/17 19/19/19 18/18/18
f 19/19/19 20/20/20 18/18/18
f 23/23/23 22/22/22 21/21/21
f 24/24/24 23/23/23 21/21/21
f 25/25/25 23/23/23 24/24/24
f 26/26/26 25/25/25 24/24/24
f 24/24/24 27/27/27 26/26/26
f 24/24/24 28/28/28 27/27/27
f 28/28/28 24/24/24 21/21/21
f 28/28/28 29/29/29 27/27/27
f 21/21/21 30/30/30 28/28/28
f 21/21/21 31/31/31 30/30/30
f 34/34/34 33/33/33 32/32/32
f 33/33/33 35/35/35 32/32/32
f 36/36/36 35/35/35 33/33/33
f 37/37/37 36/36/36 33/33/33
f 40/40/40 39/39/39 38/38/38
f 41/41/41 40/40/40 38/38/38
f 40/40/40 41/41/41 42/42/42
f 42/42/42 43/43/43 40/40/40
f 41/41/41 44/44/44 42/42/42
f 47/47/47 46/46/46 45/45/45
f 46/46/46 48/48/48 45/45/45
f 49/49/49 45/45/45 48/48/48
f 49/49/49 48/48/48 50/50/50
f 50/50/50 51/51/51 49/49/49
f 54/54/54 53/53/53 52/52/52
f 54/54/54 52/52/52 55/55/55
f 55/55/55 56/56/56 54/54/54
f 57/57/57 56/56/56 55/55/55
f 58/58/58 57/57/57 55/55/55
f 61/61/61 60/60/60 59/59/59
f 62/62/62 61/61/61 59/59/59
f 61/61/61 62/62/62 63/63/63
f 63/63/63 64/64/64 61/61/61
f 62/62/62 65/65/65 63/63/63
f 68/68/68 67/67/67 66/66/66
f 66/66/66 69/69/69 68/68/68
f 69/69/69 70/70/70 68/68/68
f 70/70/70 71/71/71 68/68/68
f 70/70/70 72/72/72 71/71/71
f 75/75/75 74/74/74 73/73/73
f 74/74/74 76/76/76 73/73/73
f 74/74/74 77/77/77 76/76/76
f 77/77/77 78/78/78 76/76/76
f 73/73/73 76/76/76 79/79/79
f 79/79/79 76/76/76 78/78/78
f 80/80/80 73/73/73 79/79/79
f 81/81/81 79/79/79 78/78/78
f 84/84/84 83/83/83 82/82/82
f 85/85/85 84/84/84 82/82/82
f 88/88/88 87/87/87 86/86/86
f 89/89/89 88/88/88 86/86/86
f 86/86/86 90/90/90 89/89/89
f 89/89/89 90/90/90 91/91/91
f 90/90/90 92/92/92 91/91/91
f 95/95/95 94/94/94 93/93/93
f 93/93/93 96/96/96 95/95/95
f 96/96/96 97/97/97 95/95/95
f 96/96/96 98/98/98 97/97/97
f 96/96/96 99/99/99 98/98/98
f 99/99/99 100/100/100 98/98/98
f 99/99/99 101/101/101 100/100/100
f 101/101/101 102/102/102 100/100/100
f 105/105/105 104/104/104 103/103/103
f 104/104/104 106/106/106 103/103/103
f 103/103/103 106/106/106 107/107/107
f 106/106/106 108/108/108 107/107/107
f 111/111/111 110/110/110 109/109/109
f 110/110/110 112/112/112 109/109/109
f 109/109/109 112/112/112 113/113/113
f 113/113/113 114/114/114 109/109/109
f 114/114/114 115/115/115 109/109/109
f 118/118/118 117/117/117 116/116/116
f 116/116/116 119/119/119 118/118/118
f 116/116/116 120/120/120 119/119/119
f 120/120/120 116/116/116 121/121/121
f 122/122/122 120/120/120 121/121/121
f 125/125/125 124/124/124 123/123/123
f 124/124/124 126/126/126 123/123/123
f 127/127/127 123/123/123 126/126/126
f 128/128/128 127/127/127 126/126/126
f 131/131/131 130/130/130 129/129/129
f 132/132/132 131/131/131 129/129/129
f 135/135/135 134/134/134 133/133/133
f 136/136/136 135/135/135 133/133/133
f 136/136/136 137/137/137 135/135/135
f 137/137/137 138/138/138 135/135/135
f 141/141/141 140/140/140 139/139/139
f 142/142/142 141/141/141 139/139/139
f 145/145/145 144/144/144 143/143/143
f 146/146/146 145/145/145 143/143/143
f 149/149/149 148/148/148 147/147/147
f 150/150/150 149/149/149 147/147/147
f 153/153/153 152/152/152 151/151/151
f 154/154/154 153/153/153 151/151/151
f 154/154/154 151/151/151 155/155/155
f 156/156/156 154/154/154 155/155/155
f 159/159/159 158/158/158 157/157/157
f 158/158/158 160/160/160 157/157/157
f 160/160/160 158/158/158 161/161/161
f 161/161/161 162/162/162 160/160/160
f 161/161/161 163/163/163 162/162/162
f 166/166/166 165/165/165 164/164/164
f 167/167/167 166/166/166 164/164/164
f 170/170/170 169/169/169 168/168/168
f 169/169/169 171/171/171 168/168/168
f 172/172/172 168/168/168 171/171/171
f 173/173/173 172/172/172 171/171/171
f 176/176/176 175/175/175 174/174/174
f 174/174/174 177/177/177 176/176/176
f 177/177/177 178/178/178 176/176/176
f 177/177/177 179/179/179 178/178/178
f 179/179/179 180/180/180 178/178/178
