v -1.445310 1.312169 -0.000559
v -1.062055 1.242007 -1.069839
v -1.085352 1.566035 -1.093809
v -1.380097 1.570318 -0.000794
v -0.927881 1.266716 1.078046
v -0.905975 1.474407 1.117226
v -0.003265 1.435909 -1.386177
v 1.048469 1.241609 -1.067353
v 1.074472 1.432037 -1.074021
v -0.004312 1.712261 -1.417059
v -1.062055 1.242007 -1.069839
v -1.085352 1.566035 -1.093809
v 1.383152 1.409410 -0.005111
v 0.947074 1.256613 0.938075
v 0.964183 1.560117 0.955013
v 1.391327 1.682315 -0.005782
v 1.048469 1.241609 -1.067353
v 1.074472 1.432037 -1.074021
v 0.947074 1.256613 0.938075
v 0.009133 1.707371 1.329966
v 0.019869 1.434521 1.339675
v -0.905975 1.474407 1.117226
v -0.927881 1.266716 1.078046
v 0.008473 -1.267501 1.358004
v -1.051997 -0.985395 1.052122
v -1.309916 -0.011819 1.332822
v 0.055739 0.026201 1.826993
v 1.032928 -0.985157 1.038899
v -1.125534 0.834597 1.189554
v 1.353759 -0.001800 1.356849
v 0.041636 0.922058 1.584795
v 1.194039 0.830464 1.194248
v 1.340546 -1.257118 -0.008346
v 1.032928 -0.985157 1.038899
v 1.353759 -0.001800 1.356849
v 1.826621 -0.012329 -0.001234
v 1.085456 -0.978162 -1.041095
v 1.194039 0.830464 1.194248
v 1.325845 0.007659 -1.406746
v 1.599906 0.888499 -0.003055
v 1.176198 0.837197 -1.233233
v 0.005454 -1.268813 -1.334462
v 1.085456 -0.978162 -1.041095
v 1.325845 0.007659 -1.406746
v -0.003727 0.016593 -1.762741
v -1.051663 -0.976077 -1.047860
v 1.176198 0.837197 -1.233233
v -1.356858 -0.000869 -1.359237
v -0.003142 0.916596 -1.561410
v -1.199519 0.832033 -1.204448
v -1.402466 -1.270192 0.038033
v -1.051663 -0.976077 -1.047860
v -1.356858 -0.000869 -1.359237
v -1.815910 0.001576 0.003624
v -1.051997 -0.985395 1.052122
v -1.199519 0.832033 -1.204448
v -1.309916 -0.011819 1.332822
v -1.613411 0.860217 0.001491
v -1.125534 0.834597 1.189554
v -0.004312 1.712261 -1.417059
v -1.380097 1.570318 -0.000794
v -1.085352 1.566035 -1.093809
v 0.044960 2.019472 -0.000611
v 1.074472 1.432037 -1.074021
v -0.905975 1.474407 1.117226
v 1.391327 1.682315 -0.005782
v 0.009133 1.707371 1.329966
v 0.964183 1.560117 0.955013
v 0.005454 -1.268813 -1.334462
v 1.340546 -1.257118 -0.008346
v 1.085456 -0.978162 -1.041095
v 0.011080 -1.702721 -0.011848
v -1.051663 -0.976077 -1.047860
v 1.032928 -0.985157 1.038899
v -1.402466 -1.270192 0.038033
v 0.008473 -1.267501 1.358004
v -1.051997 -0.985395 1.052122
v -1.199519 0.832033 -1.204448
v -0.004262 1.180376 -1.608775
v -1.235542 1.034007 -1.241166
v -0.003142 0.916596 -1.561410
v 1.213862 1.036263 -1.255525
v 1.176198 0.837197 -1.233233
v -1.235542 1.034007 -1.241166
v -0.003265 1.435909 -1.386177
v -1.062055 1.242007 -1.069839
v -0.004262 1.180376 -1.608775
v 1.048469 1.241609 -1.067353
v 1.213862 1.036263 -1.255525
v 1.194039 0.830464 1.194248
v 0.032817 1.182234 1.597259
v 1.224328 1.031834 1.224341
v 0.041636 0.922058 1.584795
v -1.121890 1.048726 1.238621
v -1.125534 0.834597 1.189554
v 1.224328 1.031834 1.224341
v 0.019869 1.434521 1.339675
v 0.947074 1.256613 0.938075
v 0.032817 1.182234 1.597259
v -0.927881 1.266716 1.078046
v -1.121890 1.048726 1.238621
v -1.125534 0.834597 1.189554
v -1.670770 1.085813 0.001062
v -1.121890 1.048726 1.238621
v -1.613411 0.860217 0.001491
v -1.235542 1.034007 -1.241166
v -1.199519 0.832033 -1.204448
v -1.121890 1.048726 1.238621
v -1.445310 1.312169 -0.000559
v -0.927881 1.266716 1.078046
v -1.670770 1.085813 0.001062
v -1.062055 1.242007 -1.069839
v -1.235542 1.034007 -1.241166
v 1.176198 0.837197 -1.233233
v 1.627931 1.152451 -0.003906
v 1.213862 1.036263 -1.255525
v 1.599906 0.888499 -0.003055
v 1.224328 1.031834 1.224341
v 1.194039 0.830464 1.194248
v 1.213862 1.036263 -1.255525
v 1.383152 1.409410 -0.005111
v 1.048469 1.241609 -1.067353
v 1.627931 1.152451 -0.003906
v 0.947074 1.256613 0.938075
v 1.224328 1.031834 1.224341
vt 0.733316183 0.739576459
vt 0.696424007 0.782344282
vt 0.710437059 0.793697238
vt 0.741958261 0.74852103
vt 0.781083703 0.704624772
vt 0.789299011 0.712778628
vt 0.743065596 0.838650823
vt 0.786762953 0.872685373
vt 0.792039037 0.86516732
vt 0.750756383 0.828679264
vt 0.69926548 0.804953754
vt 0.710437059 0.793697238
vt 0.83773458 0.832722545
vt 0.86999476 0.790809691
vt 0.857233346 0.783138454
vt 0.828110456 0.824350357
vt 0.797425628 0.872595966
vt 0.792039037 0.86516732
vt 0.869454026 0.774105787
vt 0.823215544 0.745812893
vt 0.832464159 0.736574352
vt 0.789299011 0.712778628
vt 0.793352604 0.703085005
vt 0.423806041 0.625376463
vt 0.36916241 0.595447898
vt 0.325648427 0.632781565
vt 0.381449699 0.680366874
vt 0.462767512 0.671878755
vt 0.302245438 0.67486769
vt 0.435386628 0.724353254
vt 0.352483124 0.714281082
vt 0.399977714 0.7556656
vt 0.436190188 0.931146443
vt 0.471051574 0.881845236
vt 0.439463705 0.832865
vt 0.389843524 0.884069264
vt 0.386966467 0.963701308
vt 0.401793033 0.805524647
vt 0.336308658 0.935202837
vt 0.358723938 0.85315299
vt 0.309593588 0.897229612
vt 0.157014519 0.948801994
vt 0.211611778 0.977026641
vt 0.253214002 0.937520504
vt 0.198733091 0.895596266
vt 0.118305326 0.902684033
vt 0.275544494 0.897513032
vt 0.143549785 0.851798117
vt 0.225712836 0.860978365
vt 0.17738083 0.820940912
vt 0.151981771 0.651277423
vt 0.110000879 0.688583732
vt 0.137230799 0.738942862
vt 0.188635439 0.692665637
vt 0.190122724 0.614182115
vt 0.172914982 0.768027902
vt 0.236737549 0.644641161
vt 0.215849414 0.721426845
vt 0.265149444 0.681614876
vt 0.250756353 0.828679264
vt 0.241958246 0.74852103
vt 0.210437074 0.793697238
vt 0.288153619 0.78796196
vt 0.292039067 0.86516732
vt 0.289299011 0.712778628
vt 0.328110456 0.824350357
vt 0.323215544 0.745812893
vt 0.357233346 0.783138454
vt 0.0592412502 0.654873967
vt 0.0611377805 0.555396676
vt 0.0257906765 0.60264504
vt 0.10797447 0.606295109
vt 0.110000879 0.688583732
vt 0.113469601 0.525576949
vt 0.151981771 0.651277423
vt 0.161781013 0.560226858
vt 0.190122724 0.614182115
vt 0.6773808 0.820940912
vt 0.733586788 0.850838423
vt 0.683553815 0.81267935
vt 0.725712836 0.860978365
vt 0.782223701 0.889896572
vt 0.775544524 0.897513032
vt 0.183553785 0.81267935
vt 0.243065596 0.838650823
vt 0.19926545 0.804953754
vt 0.233586758 0.850838423
vt 0.286762983 0.872685373
vt 0.282223701 0.889896572
vt 0.899977684 0.7556656
vt 0.843918741 0.723979294
vt 0.893243313 0.763718843
vt 0.852483153 0.714281082
vt 0.796770692 0.684678733
vt 0.802245438 0.67486769
vt 0.393243343 0.763718843
vt 0.332464159 0.736574352
vt 0.369453996 0.774105787
vt 0.343918741 0.723979294
vt 0.293352574 0.703085005
vt 0.296770662 0.684678733
vt 0.765149474 0.681614876
vt 0.723210812 0.729412258
vt 0.774364948 0.689627886
vt 0.7158494 0.721426845
vt 0.679701626 0.775525093
vt 0.672914982 0.768027902
vt 0.274364948 0.689627886
vt 0.233316213 0.739576459
vt 0.281083673 0.704624772
vt 0.223210841 0.729412258
vt 0.196424007 0.782344282
vt 0.179701626 0.775525093
vt 0.809593558 0.897229612
vt 0.849538267 0.844052553
vt 0.802765429 0.889695704
vt 0.858723938 0.85315299
vt 0.894506812 0.798260689
vt 0.901793003 0.805524647
vt 0.302765429 0.889695704
vt 0.33773455 0.832722545
vt 0.297425658 0.872595966
vt 0.349538267 0.844052553
vt 0.36999473 0.790809691
vt 0.394506842 0.798260689
vn -0.993318 0.101080 0.055691
vn -0.952140 0.056060 -0.300479
vn -0.952140 0.056060 -0.300479
vn -0.993282 0.101138 0.056224
vn -0.900016 0.133631 0.414865
vn -0.900016 0.133631 0.414865
vn 0.003910 -0.098871 -0.995093
vn 0.276728 -0.091746 -0.956559
vn 0.276728 -0.091746 -0.956559
vn -0.009652 -0.099030 -0.995038
vn -0.270586 -0.098464 -0.957647
vn -0.270586 -0.098464 -0.957647
vn 0.995365 -0.067336 0.068659
vn 0.698310 -0.036419 0.714869
vn 0.693785 -0.036117 0.719276
vn 0.994478 -0.066911 0.080849
vn 0.957608 -0.075046 -0.278126
vn 0.957608 -0.075046 -0.278126
vn 0.698310 -0.036419 0.714869
vn 0.079011 -0.036488 0.996206
vn 0.082389 -0.036277 0.995940
vn -0.235476 -0.054040 0.970377
vn -0.235476 -0.054040 0.970377
vn -0.002634 -0.359735 0.933051
vn -0.325525 -0.323967 0.888301
vn -0.342557 -0.051781 0.938069
vn 0.008395 -0.047547 0.998834
vn 0.335403 -0.355696 0.872344
vn -0.332400 0.234592 0.913497
vn 0.349919 -0.053730 0.935238
vn -0.003938 0.255044 0.966921
vn 0.331848 0.246660 0.910514
vn 0.928515 -0.371227 0.007027
vn 0.872704 -0.363584 0.325875
vn 0.939146 -0.058845 0.338441
vn 0.997986 -0.063391 0.002518
vn 0.885908 -0.339353 -0.316239
vn 0.917815 0.235006 0.319981
vn 0.941512 -0.041008 -0.334475
vn 0.969143 0.246474 -0.003528
vn 0.917102 0.231664 -0.324431
vn -0.004645 -0.352979 -0.935620
vn 0.281591 -0.342046 -0.896499
vn 0.284425 -0.060590 -0.956782
vn -0.009901 -0.058681 -0.998228
vn -0.294512 -0.333928 -0.895408
vn 0.263682 0.225969 -0.937769
vn -0.302474 -0.055906 -0.951517
vn -0.012098 0.230836 -0.972917
vn -0.286965 0.217855 -0.932840
vn -0.940619 -0.338871 0.020035
vn -0.882587 -0.333301 -0.331589
vn -0.940204 -0.049382 -0.337014
vn -0.998848 -0.045403 0.015520
vn -0.883121 -0.303314 0.357908
vn -0.921812 0.224606 -0.315934
vn -0.927468 -0.028631 0.372806
vn -0.969340 0.244490 0.024576
vn -0.902708 0.235531 0.360060
vn 0.007843 0.979353 -0.202006
vn -0.272011 0.961958 0.025438
vn -0.246182 0.958606 -0.143071
vn -0.001367 0.999941 0.010750
vn 0.271344 0.929821 -0.248607
vn -0.291106 0.933868 0.207719
vn 0.262490 0.964565 -0.026698
vn -0.050650 0.973180 0.224401
vn 0.236335 0.944825 0.226830
vn 0.001879 -0.944977 -0.327133
vn 0.331216 -0.943535 -0.006054
vn 0.312506 -0.899044 -0.306693
vn 0.008295 -0.999955 -0.004640
vn -0.306584 -0.898070 -0.315399
vn 0.318417 -0.898017 0.303605
vn -0.315967 -0.948752 0.005883
vn 0.010868 -0.945609 0.325123
vn -0.293326 -0.902494 0.315381
vn -0.263905 -0.191704 -0.945306
vn -0.004929 -0.184010 -0.982912
vn -0.263905 -0.191704 -0.945306
vn -0.004146 -0.183968 -0.982924
vn 0.255576 -0.163581 -0.952849
vn 0.255576 -0.163581 -0.952849
vn -0.502984 0.720216 -0.477802
vn -0.000785 0.719489 -0.694504
vn -0.489941 0.719290 -0.492524
vn -0.001560 0.719474 -0.694517
vn 0.493948 0.718514 -0.489647
vn 0.486482 0.718383 -0.497254
vn 0.298632 -0.101391 0.948967
vn -0.006411 -0.119452 0.992819
vn 0.298632 -0.101391 0.948967
vn 0.008073 -0.118851 0.992879
vn -0.295477 -0.126077 0.946994
vn -0.295477 -0.126077 0.946994
vn 0.436337 0.794160 0.422989
vn 0.013404 0.783167 0.621667
vn 0.436240 0.794165 0.423079
vn 0.019567 0.784100 0.620326
vn -0.459412 0.723032 0.515912
vn -0.495252 0.724405 0.479544
vn -0.910025 -0.153748 0.384987
vn -0.978204 -0.204240 0.037450
vn -0.910025 -0.153748 0.384987
vn -0.978152 -0.203918 0.040455
vn -0.922074 -0.228518 -0.312345
vn -0.922074 -0.228518 -0.312345
vn -0.495252 0.724405 0.479544
vn -0.671373 0.740485 0.030669
vn -0.459412 0.723032 0.515912
vn -0.671908 0.740414 0.018044
vn -0.489941 0.719290 -0.492524
vn -0.502984 0.720216 -0.477802
vn 0.939936 -0.148707 -0.307257
vn 0.988651 -0.150204 -0.002691
vn 0.939936 -0.148707 -0.307257
vn 0.988662 -0.150159 -0.000299
vn 0.942586 -0.137255 0.304456
vn 0.942585 -0.137255 0.304456
vn 0.486482 0.718383 -0.497254
vn 0.629233 0.777088 0.014127
vn 0.493948 0.718514 -0.489647
vn 0.630286 0.776321 0.008123
vn 0.436240 0.794165 0.423079
vn 0.436337 0.794160 0.422989
f 3/3/3 2/2/2 1/1/1
f 4/4/4 3/3/3 1/1/1
f 4/4/4 1/1/1 5/5/5
f 6/6/6 4/4/4 5/5/5
f 9/9/9 8/8/8 7/7/7
f 10/10/10 9/9/9 7/7/7
f 10/10/10 7/7/7 11/11/11
f 12/12/12 10/10/10 11/11/11
f 15/15/15 14/14/14 13/13/13
f 16/16/16 15/15/15 13/13/13
f 16/16/16 13/13/13 17/17/17
f 18/18/18 16/16/16 17/17/17
f 15/15/15 20/20/20 19/19/19
f 20/20/20 21/21/21 19/19/19
f 20/20/20 22/22/22 21/21/21
f 22/22/22 23/23/23 21/21/21
f 26/26/26 25/25/25 24/24/24
f 27/27/27 26/26/26 24/24/24
f 27/27/27 24/24/24 28/28/28
f 29/29/29 26/26/26 27/27/27
f 30/30/30 27/27/27 28/28/28
f 31/31/31 29/29/29 27/27/27
f 31/31/31 27/27/27 30/30/30
f 32/32/32 31/31/31 30/30/30
f 35/35/35 34/34/34 33/33/33
f 36/36/36 35/35/35 33/33/33
f 36/36/36 33/33/33 37/37/37
f 38/38/38 35/35/35 36/36/36
f 39/39/39 36/36/36 37/37/37
f 40/40/40 38/38/38 36/36/36
f 40/40/40 36/36/36 39/39/39
f 41/41/41 40/40/40 39/39/39
f 44/44/44 43/43/43 42/42/42
f 45/45/45 44/44/44 42/42/42
f 45/45/45 42/42/42 46/46/46
f 47/47/47 44/44/44 45/45/45
f 48/48/48 45/45/45 46/46/46
f 49/49/49 47/47/47 45/45/45
f 49/49/49 45/45/45 48/48/48
f 50/50/50 49/49/49 48/48/48
f 53/53/53 52/52/52 51/51/51
f 54/54/54 53/53/53 51/51/51
f 54/54/54 51/51/51 55/55/55
f 56/56/56 53/53/53 54/54/54
f 57/57/57 54/54/54 55/55/55
f 58/58/58 56/56/56 54/54/54
f 58/58/58 54/54/54 57/57/57
f 59/59/59 58/58/58 57/57/57
f 62/62/62 61/61/61 60/60/60
f 61/61/61 63/63/63 60/60/60
f 60/60/60 63/63/63 64/64/64
f 61/61/61 65/65/65 63/63/63
f 63/63/63 66/66/66 64/64/64
f 65/65/65 67/67/67 63/63/63
f 63/63/63 67/67/67 66/66/66
f 67/67/67 68/68/68 66/66/66
f 71/71/71 70/70/70 69/69/69
f 70/70/70 72/72/72 69/69/69
f 69/69/69 72/72/72 73/73/73
f 70/70/70 74/74/74 72/72/72
f 72/72/72 75/75/75 73/73/73
f 74/74/74 76/76/76 72/72/72
f 72/72/72 76/76/76 75/75/75
f 76/76/76 77/77/77 75/75/75
f 80/80/80 79/79/79 78/78/78
f 79/79/79 81/81/81 78/78/78
f 79/79/79 82/82/82 81/81/81
f 82/82/82 83/83/83 81/81/81
f 86/86/86 85/85/85 84/84/84
f 85/85/85 87/87/87 84/84/84
f 85/85/85 88/88/88 87/87/87
f 88/88/88 89/89/89 87/87/87
f 92/92/92 91/91/91 90/90/90
f 91/91/91 93/93/93 90/90/90
f 91/91/91 94/94/94 93/93/93
f 94/94/94 95/95/95 93/93/93
f 98/98/98 97/97/97 96/96/96
f 97/97/97 99/99/99 96/96/96
f 97/97/97 100/100/100 99/99/99
f 100/100/100 101/101/101 99/99/99
f 104/104/104 103/103/103 102/102/102
f 103/103/103 105/105/105 102/102/102
f 103/103/103 106/106/106 105/105/105
f 106/106/106 107/107/107 105/105/105
f 110/110/110 109/109/109 108/108/108
f 109/109/109 111/111/111 108/108/108
f 109/109/109 112/112/112 111/111/111
f 112/112/112 113/113/113 111/111/111
f 116/116/116 115/115/115 114/114/114
f 115/115/115 117/117/117 114/114/114
f 115/115/115 118/118/118 117/117/117
f 118/118/118 119/119/119 117/117/117
f 122/122/122 121/121/121 120/120/120
f 121/121/121 123/123/123 120/120/120
f 121/121/121 124/124/124 123/123/123
f 124/124/124 125/125/125 123/123/123
