g Model_0
v -0 0.124999002 0.5
v 0.25 0.124999002 0.433012992
v 0.25 -9.99999997E-07 0.433012009
v -0 -9.99999997E-07 0.5
v 0.25 0.124999002 0.433012992
v 0.433012992 0.124999002 0.25
v 0.433012992 -9.99999997E-07 0.25
v 0.25 -9.99999997E-07 0.433012009
v 0.433012992 0.124999002 0.25
v 0.5 0.125 0
v 0.5 0 0
v 0.433012992 -9.99999997E-07 0.25
v 0.5 0.125 0
v 0.433012992 0.125 -0.25
v 0.433012992 0 -0.25
v 0.5 0 0
v 0.433012992 0.125 -0.25
v 0.25 0.125 -0.433012009
v 0.25 9.99999997E-07 -0.433012992
v 0.433012992 0 -0.25
v 0.25 0.125 -0.433012009
v -0 0.125000998 -0.499998987
v -0 9.99999997E-07 -0.5
v 0.25 9.99999997E-07 -0.433012992
v -0 0.125000998 -0.499998987
v -0.25 0.125000998 -0.433012009
v -0.25 9.99999997E-07 -0.433012992
v -0 9.99999997E-07 -0.5
v -0.25 0.125000998 -0.433012009
v -0.433012992 0.125 -0.25
v -0.433012992 0 -0.250001013
v -0.25 9.99999997E-07 -0.433012992
v -0.433012992 0.125 -0.25
v -0.5 0.125 0
v -0.5 0 -9.99999997E-07
v -0.433012992 0 -0.250001013
v -0.5 0.125 0
v -0.433012992 0.124999002 0.25
v -0.433012992 -9.99999997E-07 0.249999002
v -0.5 0 -9.99999997E-07
v 0.25 9.99999997E-07 -0.433012992
v -0 9.99999997E-07 -0.5
v -0.25 9.99999997E-07 -0.433012992
v 0.433012992 0 -0.25
v -0.433012992 0 -0.250001013
v -0.5 0 -9.99999997E-07
v 0.5 0 0
v -0.433012992 -9.99999997E-07 0.249999002
v 0.433012992 -9.99999997E-07 0.25
v -0.25 -9.99999997E-07 0.433012009
v 0.25 -9.99999997E-07 0.433012009
v -0 -9.99999997E-07 0.5
v -0.25 0.124999002 0.433012992
v -0 0.124999002 0.5
v -0 -9.99999997E-07 0.5
v -0.25 -9.99999997E-07 0.433012009
v -0.433012992 0.124999002 0.25
v -0.25 0.124999002 0.433012992
v -0.25 -9.99999997E-07 0.433012009
v -0.433012992 -9.99999997E-07 0.249999002
v -0.25 0.124999002 0.433012992
v -0.202500001 0.124999002 0.350740999
v -0 0.124999002 0.405000001
v -0 0.124999002 0.5
v -0.202500001 0.124999002 0.350740999
v -0.202500001 0.0874990001 0.350740999
v -0 0.0874990001 0.405000001
v -0 0.124999002 0.405000001
v -0.433012992 0.124999002 0.25
v -0.350739986 0.125 0.202500001
v -0.202500001 0.124999002 0.350740999
v -0.25 0.124999002 0.433012992
v -0.5 0.125 0
v -0.405000001 0.125 0
v -0.350739986 0.125 0.202500001
v -0.433012992 0.124999002 0.25
v -0.433012992 0.125 -0.25
v -0.350739986 0.125 -0.202500001
v -0.405000001 0.125 0
v -0.5 0.125 0
v -0.25 0.125000998 -0.433012009
v -0.202500001 0.125000998 -0.350739986
v -0.350739986 0.125 -0.202500001
v -0.433012992 0.125 -0.25
v -0 0.125000998 -0.499998987
v -0 0.125000998 -0.405000001
v -0.202500001 0.125000998 -0.350739986
v -0.25 0.125000998 -0.433012009
v 0.25 0.125 -0.433012009
v 0.202500001 0.125 -0.350739986
v -0 0.125000998 -0.405000001
v -0 0.125000998 -0.499998987
v 0.433012992 0.125 -0.25
v 0.350739986 0.125 -0.202500001
v 0.202500001 0.125 -0.350739986
v 0.25 0.125 -0.433012009
v 0.5 0.125 0
v 0.405000001 0.125 0
v 0.350739986 0.125 -0.202500001
v 0.433012992 0.125 -0.25
v 0.433012992 0.124999002 0.25
v 0.350739986 0.125 0.202500001
v 0.405000001 0.125 0
v 0.5 0.125 0
v 0.25 0.124999002 0.433012992
v 0.202500001 0.124999002 0.350740999
v 0.350739986 0.125 0.202500001
v 0.433012992 0.124999002 0.25
v -0 0.124999002 0.5
v -0 0.124999002 0.405000001
v 0.202500001 0.124999002 0.350740999
v 0.25 0.124999002 0.433012992
v -0.202500001 0.0875009969 -0.350739986
v -0 0.0875009969 -0.405000001
v 0.202500001 0.0874999985 -0.350739986
v -0.350739986 0.0874999985 -0.202500001
v 0.350739986 0.0874999985 -0.202500001
v -0.405000001 0.0874999985 0
v 0.405000001 0.0874999985 0
v -0.350739986 0.0874999985 0.202500001
v 0.350739986 0.0874999985 0.202500001
v -0.202500001 0.0874990001 0.350740999
v 0.202500001 0.0874990001 0.350740999
v -0 0.0874990001 0.405000001
v -0.350739986 0.125 0.202500001
v -0.350739986 0.0874999985 0.202500001
v -0.202500001 0.0874990001 0.350740999
v -0.202500001 0.124999002 0.350740999
v -0.405000001 0.125 0
v -0.405000001 0.0874999985 0
v -0.350739986 0.0874999985 0.202500001
v -0.350739986 0.125 0.202500001
v -0.350739986 0.125 -0.202500001
v -0.350739986 0.0874999985 -0.202500001
v -0.405000001 0.0874999985 0
v -0.405000001 0.125 0
v -0.202500001 0.125000998 -0.350739986
v -0.202500001 0.0875009969 -0.350739986
v -0.350739986 0.0874999985 -0.202500001
v -0.350739986 0.125 -0.202500001
v -0 0.125000998 -0.405000001
v -0 0.0875009969 -0.405000001
v -0.202500001 0.0875009969 -0.350739986
v -0.202500001 0.125000998 -0.350739986
v 0.202500001 0.125 -0.350739986
v 0.202500001 0.0874999985 -0.350739986
v -0 0.0875009969 -0.405000001
v -0 0.125000998 -0.405000001
v 0.350739986 0.125 -0.202500001
v 0.350739986 0.0874999985 -0.202500001
v 0.202500001 0.0874999985 -0.350739986
v 0.202500001 0.125 -0.350739986
v 0.405000001 0.125 0
v 0.405000001 0.0874999985 0
v 0.350739986 0.0874999985 -0.202500001
v 0.350739986 0.125 -0.202500001
v 0.350739986 0.125 0.202500001
v 0.350739986 0.0874999985 0.202500001
v 0.405000001 0.0874999985 0
v 0.405000001 0.125 0
v 0.202500001 0.124999002 0.350740999
v 0.202500001 0.0874990001 0.350740999
v 0.350739986 0.0874999985 0.202500001
v 0.350739986 0.125 0.202500001
v -0 0.124999002 0.405000001
v -0 0.0874990001 0.405000001
v 0.202500001 0.0874990001 0.350740999
v 0.202500001 0.124999002 0.350740999
v 0.0503310002 0.0891930014 0.369852006
v -0.0202300008 0.0891930014 0.00389999989
v 0.0202300008 0.0891930014 -0.0039009999
v 0.0907910019 0.0891930014 0.36205101
v -0.225850999 0.0925040022 -0.154198006
v 0.0103019997 0.0925029963 -0.0178420004
v -0.0103010004 0.0925029963 0.0178430006
v -0.246454999 0.0925040022 -0.118513003
vt 0.645218015 0.494102001
vt 0.645218015 0.556189001
vt 0.707305014 0.556189001
vt 0.707305014 0.494102001
vt 0.645218015 0.494102001
vt 0.645218015 0.556189001
vt 0.707305014 0.556189001
vt 0.707305014 0.494102001
vt 0.645218015 0.494102001
vt 0.645218015 0.556189001
vt 0.707305014 0.556189001
vt 0.707305014 0.494102001
vt 0.645218015 0.494102001
vt 0.645218015 0.556189001
vt 0.707305014 0.556189001
vt 0.707305014 0.494102001
vt 0.645218015 0.494102001
vt 0.645218015 0.556189001
vt 0.707305014 0.556189001
vt 0.707305014 0.494102001
vt 0.645218015 0.494102001
vt 0.645218015 0.556189001
vt 0.707305014 0.556189001
vt 0.707305014 0.494102001
vt 0.645218015 0.494102001
vt 0.645218015 0.556189001
vt 0.707305014 0.556189001
vt 0.707305014 0.494102001
vt 0.645218015 0.494102001
vt 0.645218015 0.556189001
vt 0.707305014 0.556189001
vt 0.707305014 0.494102001
vt 0.645218015 0.494102001
vt 0.645218015 0.556189001
vt 0.707305014 0.556189001
vt 0.707305014 0.494102001
vt 0.645218015 0.494102001
vt 0.645218015 0.556189001
vt 0.707305014 0.556189001
vt 0.707305014 0.494102001
vt 0.649376988 0.509624004
vt 0.660740018 0.498261005
vt 0.676261008 0.494102001
vt 0.645218015 0.525146008
vt 0.691783011 0.498261005
vt 0.703145981 0.509624004
vt 0.649376988 0.540666997
vt 0.707305014 0.525146008
vt 0.660740018 0.552030027
vt 0.703145981 0.540666997
vt 0.676261008 0.556189001
vt 0.691783011 0.552030027
vt 0.645218015 0.494102001
vt 0.645218015 0.556189001
vt 0.707305014 0.556189001
vt 0.707305014 0.494102001
vt 0.645218015 0.494102001
vt 0.645218015 0.556189001
vt 0.707305014 0.556189001
vt 0.707305014 0.494102001
vt 0.645218015 0.494102001
vt 0.645218015 0.556189001
vt 0.707305014 0.556189001
vt 0.707305014 0.494102001
vt 0.645218015 0.494102001
vt 0.645218015 0.556189001
vt 0.707305014 0.556189001
vt 0.707305014 0.494102001
vt 0.645218015 0.494102001
vt 0.645218015 0.556189001
vt 0.707305014 0.556189001
vt 0.707305014 0.494102001
vt 0.645218015 0.494102001
vt 0.645218015 0.556189001
vt 0.707305014 0.556189001
vt 0.707305014 0.494102001
vt 0.645218015 0.494102001
vt 0.645218015 0.556189001
vt 0.707305014 0.556189001
vt 0.707305014 0.494102001
vt 0.645218015 0.494102001
vt 0.645218015 0.556189001
vt 0.707305014 0.556189001
vt 0.707305014 0.494102001
vt 0.645218015 0.494102001
vt 0.645218015 0.556189001
vt 0.707305014 0.556189001
vt 0.707305014 0.494102001
vt 0.645218015 0.494102001
vt 0.645218015 0.556189001
vt 0.707305014 0.556189001
vt 0.707305014 0.494102001
vt 0.645218015 0.494102001
vt 0.645218015 0.556189001
vt 0.707305014 0.556189001
vt 0.707305014 0.494102001
vt 0.645218015 0.494102001
vt 0.645218015 0.556189001
vt 0.707305014 0.556189001
vt 0.707305014 0.494102001
vt 0.645218015 0.494102001
vt 0.645218015 0.556189001
vt 0.707305014 0.556189001
vt 0.707305014 0.494102001
vt 0.645218015 0.494102001
vt 0.645218015 0.556189001
vt 0.707305014 0.556189001
vt 0.707305014 0.494102001
vt 0.645218015 0.494102001
vt 0.645218015 0.556189001
vt 0.707305014 0.556189001
vt 0.707305014 0.494102001
vt 0.267839015 0.522440016
vt 0.283360988 0.518280983
vt 0.298882008 0.522440016
vt 0.256476015 0.533802986
vt 0.310245007 0.533802986
vt 0.252317011 0.549323976
vt 0.314404011 0.549323976
vt 0.256476015 0.564845979
vt 0.310245007 0.564845979
vt 0.267839015 0.576207995
vt 0.298882008 0.576207995
vt 0.283360988 0.580367982
vt 0.645218015 0.494102001
vt 0.645218015 0.556189001
vt 0.707305014 0.556189001
vt 0.707305014 0.494102001
vt 0.645218015 0.494102001
vt 0.645218015 0.556189001
vt 0.707305014 0.556189001
vt 0.707305014 0.494102001
vt 0.645218015 0.494102001
vt 0.645218015 0.556189001
vt 0.707305014 0.556189001
vt 0.707305014 0.494102001
vt 0.645218015 0.494102001
vt 0.645218015 0.556189001
vt 0.707305014 0.556189001
vt 0.707305014 0.494102001
vt 0.645218015 0.494102001
vt 0.645218015 0.556189001
vt 0.707305014 0.556189001
vt 0.707305014 0.494102001
vt 0.645218015 0.494102001
vt 0.645218015 0.556189001
vt 0.707305014 0.556189001
vt 0.707305014 0.494102001
vt 0.645218015 0.494102001
vt 0.645218015 0.556189001
vt 0.707305014 0.556189001
vt 0.707305014 0.494102001
vt 0.645218015 0.494102001
vt 0.645218015 0.556189001
vt 0.707305014 0.556189001
vt 0.707305014 0.494102001
vt 0.645218015 0.494102001
vt 0.645218015 0.556189001
vt 0.707305014 0.556189001
vt 0.707305014 0.494102001
vt 0.645218015 0.494102001
vt 0.645218015 0.556189001
vt 0.707305014 0.556189001
vt 0.707305014 0.494102001
vt 0.645218015 0.494102001
vt 0.645218015 0.556189001
vt 0.707305014 0.556189001
vt 0.707305014 0.494102001
vt 0.817192972 0.426865995
vt 0.651265979 0.426865995
vt 0.651265979 0.445210993
vt 0.817192972 0.445210993
vt 0.669610977 0.566637993
vt 0.669610977 0.445230991
vt 0.651265979 0.445230991
vt 0.651265979 0.56663698
vn -0 0 1
vn 0.499999762 0 0.866025627
vn 0.499999762 0 0.866025627
vn -0 0 1
vn 0.499999762 0 0.866025627
vn 0.866025329 0 0.500000119
vn 0.866025329 0 0.500000119
vn 0.499999762 0 0.866025627
vn 0.866025329 0 0.500000119
vn 1 0 0
vn 1 0 0
vn 0.866025329 0 0.500000119
vn 1 0 0
vn 0.866025329 0 -0.500000119
vn 0.866025329 0 -0.500000119
vn 1 0 0
vn 0.866025329 0 -0.500000119
vn 0.499998957 0 -0.866026044
vn 0.499998957 0 -0.866026044
vn 0.866025329 0 -0.500000119
vn 0.499998957 0 -0.866026044
vn -0 0 -1
vn -0 0 -1
vn 0.499998957 0 -0.866026044
vn -0 0 -1
vn -0.499998361 0 -0.866026402
vn -0.499998361 0 -0.866026402
vn -0 0 -1
vn -0.499998361 0 -0.866026402
vn -0.866024971 0 -0.500000715
vn -0.866024971 0 -0.500000715
vn -0.499998361 0 -0.866026402
vn -0.866024971 0 -0.500000715
vn -1 0 0
vn -1 0 0
vn -0.866024971 0 -0.500000715
vn -1 0 0
vn -0.866025686 0 0.499999523
vn -0.866025686 0 0.499999523
vn -1 0 0
vn -0 -1 0
vn -0 -1 0
vn -0 -1 0
vn -0 -1 0
vn -0 -1 0
vn -0 -1 0
vn -0 -1 0
vn -0 -1 0
vn -0 -1 0
vn -0 -1 0
vn -0 -1 0
vn -0 -1 0
vn -0.500000298 0 0.866025269
vn -0 0 1
vn -0 0 1
vn -0.500000298 0 0.866025269
vn -0.866025686 0 0.499999523
vn -0.500000298 0 0.866025269
vn -0.500000298 0 0.866025269
vn -0.866025686 0 0.499999523
vn -0 1 0
vn -0 1 0
vn -0 1 0
vn -0 1 0
vn 0.50000006 0 -0.866025448
vn 0.50000006 0 -0.866025448
vn -0 0 -1
vn -0 0 -1
vn -0 1 0
vn -0 1 0
vn -0 1 0
vn -0 1 0
vn -0 1 0
vn -0 1 0
vn -0 1 0
vn -0 1 0
vn -0 1 0
vn -0 1 0
vn -0 1 0
vn -0 1 0
vn -0 1 0
vn -0 1 0
vn -0 1 0
vn -0 1 0
vn -0 1 0
vn -0 1 0
vn -0 1 0
vn -0 1 0
vn -0 1 0
vn -0 1 0
vn -0 1 0
vn -0 1 0
vn -0 1 0
vn -0 1 0
vn -0 1 0
vn -0 1 0
vn -0 1 0
vn -0 1 0
vn -0 1 0
vn -0 1 0
vn -0 1 0
vn -0 1 0
vn -0 1 0
vn -0 1 0
vn -0 1 0
vn -0 1 0
vn -0 1 0
vn -0 1 0
vn -0 1 0
vn -0 1 0
vn -0 1 0
vn -0 1 0
vn -0 1 0
vn -0 1 0
vn -0 1 0
vn -0 1 0
vn -0 1 0
vn -0 1 0
vn -0 1 0
vn -0 1 0
vn -0 1 0
vn -0 1 0
vn -0 1 0
vn -0 1 0
vn 0.866025984 0 -0.499999136
vn 0.866025984 0 -0.499999136
vn 0.50000006 0 -0.866025448
vn 0.50000006 0 -0.866025448
vn 1 0 0
vn 1 0 0
vn 0.866025984 0 -0.499999136
vn 0.866025984 0 -0.499999136
vn 0.86602509 0 0.500000656
vn 0.86602509 0 0.500000656
vn 1 0 0
vn 1 0 0
vn 0.500000656 0 0.86602509
vn 0.500000656 0 0.86602509
vn 0.86602509 0 0.500000656
vn 0.86602509 0 0.500000656
vn -0 0 1
vn -0 0 1
vn 0.500000656 0 0.86602509
vn 0.500000656 0 0.86602509
vn -0.500000656 0 0.86602509
vn -0.500000656 0 0.86602509
vn -0 0 1
vn -0 0 1
vn -0.86602509 0 0.500000656
vn -0.86602509 0 0.500000656
vn -0.500000656 0 0.86602509
vn -0.500000656 0 0.86602509
vn -1 0 0
vn -1 0 0
vn -0.86602509 0 0.500000656
vn -0.86602509 0 0.500000656
vn -0.866025984 0 -0.499999136
vn -0.866025984 0 -0.499999136
vn -1 0 0
vn -1 0 0
vn -0.50000006 0 -0.866025448
vn -0.50000006 0 -0.866025448
vn -0.866025984 0 -0.499999136
vn -0.866025984 0 -0.499999136
vn -0 0 -1
vn -0 0 -1
vn -0.50000006 0 -0.866025448
vn -0.50000006 0 -0.866025448
vn -0 1 0
vn -0 1 0
vn -0 1 0
vn -0 1 0
vn -0 1 0
vn -0 1 0
vn -0 1 0
vn -0 1 0
g Model_0_0
f 3/3/3 2/2/2 1/1/1
f 4/4/4 3/3/3 1/1/1
f 7/7/7 6/6/6 5/5/5
f 8/8/8 7/7/7 5/5/5
f 11/11/11 10/10/10 9/9/9
f 12/12/12 11/11/11 9/9/9
f 15/15/15 14/14/14 13/13/13
f 16/16/16 15/15/15 13/13/13
f 19/19/19 18/18/18 17/17/17
f 20/20/20 19/19/19 17/17/17
f 23/23/23 22/22/22 21/21/21
f 24/24/24 23/23/23 21/21/21
f 27/27/27 26/26/26 25/25/25
f 28/28/28 27/27/27 25/25/25
f 31/31/31 30/30/30 29/29/29
f 32/32/32 31/31/31 29/29/29
f 35/35/35 34/34/34 33/33/33
f 36/36/36 35/35/35 33/33/33
f 39/39/39 38/38/38 37/37/37
f 40/40/40 39/39/39 37/37/37
f 43/43/43 42/42/42 41/41/41
f 41/41/41 44/44/44 43/43/43
f 44/44/44 45/45/45 43/43/43
f 44/44/44 46/46/46 45/45/45
f 44/44/44 47/47/47 46/46/46
f 47/47/47 48/48/48 46/46/46
f 47/47/47 49/49/49 48/48/48
f 49/49/49 50/50/50 48/48/48
f 49/49/49 51/51/51 50/50/50
f 51/51/51 52/52/52 50/50/50
f 55/55/55 54/54/54 53/53/53
f 56/56/56 55/55/55 53/53/53
f 59/59/59 58/58/58 57/57/57
f 60/60/60 59/59/59 57/57/57
f 63/63/63 62/62/62 61/61/61
f 64/64/64 63/63/63 61/61/61
f 67/67/67 66/66/66 65/65/65
f 68/68/68 67/67/67 65/65/65
f 71/71/71 70/70/70 69/69/69
f 72/72/72 71/71/71 69/69/69
f 75/75/75 74/74/74 73/73/73
f 76/76/76 75/75/75 73/73/73
f 79/79/79 78/78/78 77/77/77
f 80/80/80 79/79/79 77/77/77
f 83/83/83 82/82/82 81/81/81
f 84/84/84 83/83/83 81/81/81
f 87/87/87 86/86/86 85/85/85
f 88/88/88 87/87/87 85/85/85
f 91/91/91 90/90/90 89/89/89
f 92/92/92 91/91/91 89/89/89
f 95/95/95 94/94/94 93/93/93
f 96/96/96 95/95/95 93/93/93
f 99/99/99 98/98/98 97/97/97
f 100/100/100 99/99/99 97/97/97
f 103/103/103 102/102/102 101/101/101
f 104/104/104 103/103/103 101/101/101
f 107/107/107 106/106/106 105/105/105
f 108/108/108 107/107/107 105/105/105
f 111/111/111 110/110/110 109/109/109
f 112/112/112 111/111/111 109/109/109
f 115/115/115 114/114/114 113/113/113
f 113/113/113 116/116/116 115/115/115
f 116/116/116 117/117/117 115/115/115
f 116/116/116 118/118/118 117/117/117
f 118/118/118 119/119/119 117/117/117
f 118/118/118 120/120/120 119/119/119
f 120/120/120 121/121/121 119/119/119
f 120/120/120 122/122/122 121/121/121
f 122/122/122 123/123/123 121/121/121
f 122/122/122 124/124/124 123/123/123
f 127/127/127 126/126/126 125/125/125
f 128/128/128 127/127/127 125/125/125
f 131/131/131 130/130/130 129/129/129
f 132/132/132 131/131/131 129/129/129
f 135/135/135 134/134/134 133/133/133
f 136/136/136 135/135/135 133/133/133
f 139/139/139 138/138/138 137/137/137
f 140/140/140 139/139/139 137/137/137
f 143/143/143 142/142/142 141/141/141
f 144/144/144 143/143/143 141/141/141
f 147/147/147 146/146/146 145/145/145
f 148/148/148 147/147/147 145/145/145
f 151/151/151 150/150/150 149/149/149
f 152/152/152 151/151/151 149/149/149
f 155/155/155 154/154/154 153/153/153
f 156/156/156 155/155/155 153/153/153
f 159/159/159 158/158/158 157/157/157
f 160/160/160 159/159/159 157/157/157
f 163/163/163 162/162/162 161/161/161
f 164/164/164 163/163/163 161/161/161
f 167/167/167 166/166/166 165/165/165
f 168/168/168 167/167/167 165/165/165
f 171/171/171 170/170/170 169/169/169
f 172/172/172 171/171/171 169/169/169
f 175/175/175 174/174/174 173/173/173
f 176/176/176 175/175/175 173/173/173
