g Model_0
v -0.227380306 0.242903069 0.367253006
v -0.227380306 0.242903069 0.435452223
v -0.227380306 0.463414073 0.420419335
v -0.227380306 0.463414073 0.352220118
v -0.227380306 0.463414073 0.352220118
v -0.227380306 0.463414073 0.420419335
v -0.295579463 0.463414073 0.420419335
v -0.295579463 0.463414073 0.352220118
v -0.295579463 0.463414073 0.352220118
v -0.295579463 0.463414073 0.420419335
v -0.295579463 0.242903069 0.435452223
v -0.295579463 0.242903069 0.367253006
v -0.227380306 0.242903069 0.435452223
v -0.295579463 0.242903069 0.435452223
v -0.295579463 0.463414073 0.420419335
v -0.227380306 0.463414073 0.420419335
v -0.295579463 0.242903069 0.367253006
v -0.227380306 0.242903069 0.367253006
v -0.227380306 0.463414073 0.352220118
v -0.295579463 0.463414073 0.352220118
v 0.227380306 0.242903069 0.367253006
v 0.227380306 0.463414073 0.352220118
v 0.227380306 0.463414073 0.420419335
v 0.227380306 0.242903069 0.435452223
v 0.227380306 0.463414073 0.352220118
v 0.295579463 0.463414073 0.352220118
v 0.295579463 0.463414073 0.420419335
v 0.227380306 0.463414073 0.420419335
v 0.295579463 0.463414073 0.352220118
v 0.295579463 0.242903069 0.367253006
v 0.295579463 0.242903069 0.435452223
v 0.295579463 0.463414073 0.420419335
v 0.227380306 0.242903069 0.435452223
v 0.227380306 0.463414073 0.420419335
v 0.295579463 0.463414073 0.420419335
v 0.295579463 0.242903069 0.435452223
v 0.295579463 0.242903069 0.367253006
v 0.295579463 0.463414073 0.352220118
v 0.227380306 0.463414073 0.352220118
v 0.227380306 0.242903069 0.367253006
v 0.265370607 0.294531137 0.344004869
v 0.342081636 0.250242025 0.344004869
v 0.342081636 0.250242025 0.586752295
v 0.265370607 0.294531137 0.586752295
v 0.342081636 0.250242025 0.344004869
v 0.342081636 0.161663741 0.344004869
v 0.342081636 0.161663741 0.586752295
v 0.342081636 0.250242025 0.586752295
v 0.342081636 0.161663741 0.344004869
v 0.265370607 0.117374614 0.344004869
v 0.265370607 0.117374614 0.586752295
v 0.342081636 0.161663741 0.586752295
v 0.265370607 0.117374614 0.344004869
v 0.188659593 0.161663756 0.344004869
v 0.188659593 0.161663756 0.586752295
v 0.265370607 0.117374614 0.586752295
v 0.188659593 0.250242025 0.344004869
v 0.265370607 0.294531137 0.344004869
v 0.265370607 0.294531137 0.586752295
v 0.188659593 0.250242025 0.586752295
v 0.188659593 0.161663756 0.344004869
v 0.188659593 0.250242025 0.344004869
v 0.188659593 0.250242025 0.586752295
v 0.188659593 0.161663756 0.586752295
v 0.265370607 0.117374614 0.344004869
v 0.342081636 0.161663741 0.344004869
v 0.342081636 0.250242025 0.344004869
v 0.265370607 0.294531137 0.344004869
v 0.188659593 0.161663756 0.344004869
v 0.188659593 0.250242025 0.344004869
v -0.265370607 0.294531137 0.344004869
v -0.265370607 0.294531137 0.586752295
v -0.342081636 0.250242025 0.586752295
v -0.342081636 0.250242025 0.344004869
v -0.342081636 0.250242025 0.344004869
v -0.342081636 0.250242025 0.586752295
v -0.342081636 0.161663741 0.586752295
v -0.342081636 0.161663741 0.344004869
v -0.342081636 0.161663741 0.344004869
v -0.342081636 0.161663741 0.586752295
v -0.265370607 0.117374614 0.586752295
v -0.265370607 0.117374614 0.344004869
v -0.265370607 0.117374614 0.344004869
v -0.265370607 0.117374614 0.586752295
v -0.188659593 0.161663756 0.586752295
v -0.188659593 0.161663756 0.344004869
v -0.188659593 0.250242025 0.344004869
v -0.188659593 0.250242025 0.586752295
v -0.265370607 0.294531137 0.586752295
v -0.265370607 0.294531137 0.344004869
v -0.188659593 0.161663756 0.344004869
v -0.188659593 0.161663756 0.586752295
v -0.188659593 0.250242025 0.586752295
v -0.188659593 0.250242025 0.344004869
v -0.265370607 0.117374614 0.344004869
v -0.188659593 0.161663756 0.344004869
v -0.188659593 0.250242025 0.344004869
v -0.265370607 0.294531137 0.344004869
v -0.342081636 0.161663741 0.344004869
v -0.342081636 0.250242025 0.344004869
v -0.557791233 -0.265452564 0.586752295
v -0.557791233 -0.265452564 0.0545138642
v -0.557791233 0.0885742381 0.0545138642
v -0.557791233 0.0885742381 0.586752295
v -0.557791233 -0.265452564 0.803747952
v -0.557791233 0.0885742381 0.803747952
v -0.557791233 0.321693361 0.803747952
v -0.557791233 0.321693361 0.586752295
v -0.557791233 0.0885742381 0.586752295
v -0.557791233 0.0885742381 0.0545138642
v 0.557791233 0.0885742381 0.0545138642
v 0.557791233 0.0885742381 0.586752295
v 0.557791233 0.0885742381 0.586752295
v 0.557791233 0.0885742381 0.0545138642
v 0.557791233 -0.265452564 0.0545138642
v 0.557791233 -0.265452564 0.586752295
v 0.557791233 0.0885742381 0.803747952
v 0.557791233 -0.265452564 0.803747952
v 0.557791233 0.321693361 0.586752295
v 0.557791233 0.321693361 0.803747952
v 0.557791233 -0.265452564 0.586752295
v 0.557791233 -0.265452564 0.0545138642
v -0.557791233 -0.265452564 0.0545138642
v -0.557791233 -0.265452564 0.586752295
v 0.557791233 -0.265452564 0.803747952
v -0.557791233 -0.265452564 0.803747952
v 0.557791233 -0.265452564 0.803747952
v -0.557791233 -0.265452564 0.803747952
v -0.557791233 0.0885742381 0.803747952
v 0.557791233 0.0885742381 0.803747952
v 0.557791233 0.321693361 0.803747952
v -0.557791233 0.321693361 0.803747952
v 0.557791233 0.321693361 0.586752295
v 0.557791233 0.321693361 0.803747952
v -0.557791233 0.321693361 0.803747952
v -0.557791233 0.321693361 0.586752295
v 0.557791233 0.0885742381 0.586752295
v 0.557791233 0.321693361 0.586752295
v -0.557791233 0.321693361 0.586752295
v -0.557791233 0.0885742381 0.586752295
v 0.600000262 0.366274118 0.146752328
v 0.599999607 -0.296922475 0.146752328
v -0.600000262 -0.296922147 0.146752328
v -0.599999964 0.366274267 0.146752328
v 0.599999964 0.366274267 -0.0132476985
v 0.599999964 -0.296922296 -0.0132476985
v 0.599999607 -0.296922475 0.146752328
v 0.600000262 0.366274118 0.146752328
v 0.599999964 -0.296922296 -0.0132476985
v -0.600000143 -0.296922177 -0.0132476985
v -0.600000262 -0.296922147 0.146752328
v 0.599999607 -0.296922475 0.146752328
v -0.600000143 -0.296922177 -0.0132476985
v -0.599999845 0.366274387 -0.0132476985
v -0.599999964 0.366274267 0.146752328
v -0.600000262 -0.296922147 0.146752328
v 0.600000262 0.366274118 0.146752328
v -0.599999964 0.366274267 0.146752328
v -0.599999845 0.366274387 -0.0132476985
v 0.599999964 0.366274267 -0.0132476985
v 0.599999964 0.366274267 -0.0132476985
v -0.599999845 0.366274387 -0.0132476985
v -0.600000143 -0.296922177 -0.0132476985
v 0.599999964 -0.296922296 -0.0132476985
vt 0.789615989 0.205289304
vt 0.786578655 0.205061376
vt 0.786578655 0.215922892
vt 0.789615989 0.21615082
vt 0.796044469 0.164115846
vt 0.796044469 0.160764396
vt 0.792999983 0.160764396
vt 0.792999983 0.164115846
vt 0.805940509 0.21615082
vt 0.808977842 0.215922892
vt 0.808977842 0.205061376
vt 0.805940509 0.205289304
vt 0.829678059 0.139609933
vt 0.826633573 0.139609933
vt 0.826633573 0.150462329
vt 0.829678059 0.150462329
vt 0.832722425 0.139609933
vt 0.829678059 0.139609933
vt 0.829678059 0.150462329
vt 0.832722425 0.150462329
vt 0.780140519 0.215922892
vt 0.780140519 0.205061376
vt 0.777103066 0.205289304
vt 0.777103066 0.21615082
vt 0.799088955 0.160764396
vt 0.796044469 0.160764396
vt 0.796044469 0.164115846
vt 0.799088955 0.164115846
vt 0.783177972 0.21615082
vt 0.783177972 0.205289304
vt 0.780140519 0.205061376
vt 0.780140519 0.215922892
vt 0.783534169 0.205061376
vt 0.783534169 0.215913832
vt 0.786578655 0.215913832
vt 0.786578655 0.205061376
vt 0.819781065 0.223481357
vt 0.819781065 0.21262902
vt 0.816736579 0.21262902
vt 0.816736579 0.223481357
vt 0.719317019 0.641465306
vt 0.715892553 0.641465306
vt 0.715892553 0.653394341
vt 0.719317019 0.653394341
vt 0.715888977 0.679773808
vt 0.711934745 0.679773808
vt 0.711934745 0.691702843
vt 0.715888977 0.691702843
vt 0.705085814 0.719922423
vt 0.70851028 0.719922423
vt 0.70851028 0.707993388
vt 0.705085814 0.707993388
vt 0.70851028 0.719922423
vt 0.711934745 0.719922423
vt 0.711934745 0.707993388
vt 0.70851028 0.707993388
vt 0.722741485 0.641465306
vt 0.719317019 0.641465306
vt 0.719317019 0.653394341
vt 0.722741485 0.653394341
vt 0.715888977 0.703631878
vt 0.711934745 0.703631878
vt 0.711934745 0.715561032
vt 0.715888977 0.715561032
vt 0.669786572 0.716696024
vt 0.673210979 0.714520335
vt 0.673210979 0.710169077
vt 0.669786572 0.707993388
vt 0.666362107 0.714520335
vt 0.666362107 0.710169077
vt 0.662937641 0.707993388
vt 0.662937641 0.719922423
vt 0.666362107 0.719922423
vt 0.666362107 0.707993388
vt 0.711934745 0.667844772
vt 0.711934745 0.679773808
vt 0.715888977 0.679773808
vt 0.715888977 0.667844772
vt 0.68572396 0.707993388
vt 0.68572396 0.719922423
vt 0.689148426 0.719922423
vt 0.689148426 0.707993388
vt 0.689148426 0.707993388
vt 0.689148426 0.719922423
vt 0.692572892 0.719922423
vt 0.692572892 0.707993388
vt 0.659513175 0.707993388
vt 0.659513175 0.719922423
vt 0.662937641 0.719922423
vt 0.662937641 0.707993388
vt 0.711934745 0.691702843
vt 0.711934745 0.703631878
vt 0.715888977 0.703631878
vt 0.715888977 0.691702843
vt 0.695997357 0.716696024
vt 0.699421823 0.714520335
vt 0.699421823 0.710169077
vt 0.695997357 0.707993388
vt 0.692572892 0.714520335
vt 0.692572892 0.710169077
vt 0.265433371 0.303012252
vt 0.265433371 0.273527205
vt 0.249629259 0.273527205
vt 0.249629259 0.303012252
vt 0.265433371 0.313675821
vt 0.249629259 0.313675821
vt 0.239222586 0.313675821
vt 0.239222586 0.303012252
vt 0.268817365 0.269378781
vt 0.295601964 0.269378781
vt 0.295601964 0.214557007
vt 0.268817365 0.214557007
vt 0.281237483 0.303012252
vt 0.281237483 0.273527205
vt 0.265433371 0.273527205
vt 0.265433371 0.303012252
vt 0.281237483 0.313675821
vt 0.265433371 0.313675821
vt 0.291644156 0.303012252
vt 0.291644156 0.313675821
vt 0.212438017 0.269378781
vt 0.239222586 0.269378781
vt 0.239222586 0.214557007
vt 0.212438017 0.214557007
vt 0.2027511 0.269378781
vt 0.2027511 0.214557007
vt 0.22895214 0.324200511
vt 0.22895214 0.269378781
vt 0.213153929 0.269378781
vt 0.213153929 0.324200511
vt 0.2027511 0.324200511
vt 0.2027511 0.269378781
vt 0.229535699 0.324200511
vt 0.239222586 0.324200511
vt 0.239222586 0.269378781
vt 0.229535699 0.269378781
vt 0.295601964 0.324200511
vt 0.306004763 0.324200511
vt 0.306004763 0.269378781
vt 0.295601964 0.269378781
vt 0.206166029 0.769375682
vt 0.235760808 0.769375563
vt 0.235760808 0.710405469
vt 0.206166029 0.710405469
vt 0.262545407 0.710405469
vt 0.262545407 0.742996156
vt 0.269687951 0.742996156
vt 0.269687951 0.710405469
vt 0.280090749 0.765227199
vt 0.280090809 0.824197412
vt 0.287233353 0.824197412
vt 0.287233353 0.765227199
vt 0.269687951 0.710405469
vt 0.269687951 0.742996156
vt 0.276830494 0.742996156
vt 0.276830494 0.710405469
vt 0.280090749 0.824197412
vt 0.280090749 0.765227199
vt 0.272948205 0.765227199
vt 0.272948205 0.824197412
vt 0.272948205 0.824197412
vt 0.269687951 0.742996156
vt 0.280090809 0.824197412
vt 0.262545407 0.742996156
vn 1 0 0
vn 1 0 0
vn 1 0 0
vn 1 0 0
vn -0 1 0
vn -0 1 0
vn -0 1 0
vn -0 1 0
vn -1 0 0
vn -1 0 0
vn -1 0 0
vn -1 0 0
vn -0 0.0680150986 0.99768436
vn -0 0.0680150986 0.99768436
vn -0 0.0680150986 0.99768436
vn -0 0.0680150986 0.99768436
vn -0 -0.0680150986 -0.99768436
vn -0 -0.0680150986 -0.99768436
vn -0 -0.0680150986 -0.99768436
vn -0 -0.0680150986 -0.99768436
vn -1 0 0
vn -1 0 0
vn -1 0 0
vn -1 0 0
vn -0 1 0
vn -0 1 0
vn -0 1 0
vn -0 1 0
vn 1 0 0
vn 1 0 0
vn 1 0 0
vn 1 0 0
vn -0 0.0680150986 0.99768436
vn -0 0.0680150986 0.99768436
vn -0 0.0680150986 0.99768436
vn -0 0.0680150986 0.99768436
vn -0 -0.0680150986 -0.99768436
vn -0 -0.0680150986 -0.99768436
vn -0 -0.0680150986 -0.99768436
vn -0 -0.0680150986 -0.99768436
vn 0.499999791 0.866025507 0
vn 0.499999791 0.866025507 0
vn 0.499999791 0.866025507 0
vn 0.499999791 0.866025507 0
vn 1 0 0
vn 1 0 0
vn 1 0 0
vn 1 0 0
vn 0.499999911 -0.866025448 0
vn 0.499999911 -0.866025448 0
vn 0.499999911 -0.866025448 0
vn 0.499999911 -0.866025448 0
vn -0.500000179 -0.866025329 0
vn -0.500000179 -0.866025329 0
vn -0.500000179 -0.866025329 0
vn -0.500000179 -0.866025329 0
vn -0.499999911 0.866025507 0
vn -0.499999911 0.866025507 0
vn -0.499999911 0.866025507 0
vn -0.499999911 0.866025507 0
vn -1 0 0
vn -1 0 0
vn -1 0 0
vn -1 0 0
vn -0 0 -1
vn -0 0 -1
vn -0 0 -1
vn -0 0 -1
vn -0 0 -1
vn -0 0 -1
vn -0.499999791 0.866025507 0
vn -0.499999791 0.866025507 0
vn -0.499999791 0.866025507 0
vn -0.499999791 0.866025507 0
vn -1 0 0
vn -1 0 0
vn -1 0 0
vn -1 0 0
vn -0.499999911 -0.866025448 0
vn -0.499999911 -0.866025448 0
vn -0.499999911 -0.866025448 0
vn -0.499999911 -0.866025448 0
vn 0.500000179 -0.866025329 0
vn 0.500000179 -0.866025329 0
vn 0.500000179 -0.866025329 0
vn 0.500000179 -0.866025329 0
vn 0.499999911 0.866025507 0
vn 0.499999911 0.866025507 0
vn 0.499999911 0.866025507 0
vn 0.499999911 0.866025507 0
vn 1 0 0
vn 1 0 0
vn 1 0 0
vn 1 0 0
vn -0 0 -1
vn -0 0 -1
vn -0 0 -1
vn -0 0 -1
vn -0 0 -1
vn -0 0 -1
vn -1 0 0
vn -1 0 0
vn -1 0 0
vn -1 0 0
vn -1 0 0
vn -1 0 0
vn -1 0 0
vn -1 0 0
vn -0 1 0
vn -0 1 0
vn -0 1 0
vn -0 1 0
vn 1 0 0
vn 1 0 0
vn 1 0 0
vn 1 0 0
vn 1 0 0
vn 1 0 0
vn 1 0 0
vn 1 0 0
vn -0 -1 0
vn -0 -1 0
vn -0 -1 0
vn -0 -1 0
vn -0 -1 0
vn -0 -1 0
vn -0 0 1
vn -0 0 1
vn -0 0 1
vn -0 0 1
vn -0 0 1
vn -0 0 1
vn -0 1 0
vn -0 1 0
vn -0 1 0
vn -0 1 0
vn -0 0 -1
vn -0 0 -1
vn -0 0 -1
vn -0 0 -1
vn -0 0 1
vn -0 0 1
vn -0 0 1
vn -0 0 1
vn 1 0 0
vn 1 0 0
vn 1 0 0
vn 1 0 0
vn -0 -1 0
vn -0 -1 0
vn -0 -1 0
vn -0 -1 0
vn -1 0 0
vn -1 0 0
vn -1 0 0
vn -1 0 0
vn -0 1 0
vn -0 1 0
vn -0 1 0
vn -0 1 0
vn -0 0 -1
vn -0 0 -1
vn -0 0 -1
vn -0 0 -1
g Model_0_0
f 3/3/3 2/2/2 1/1/1
f 4/4/4 3/3/3 1/1/1
f 7/7/7 6/6/6 5/5/5
f 8/8/8 7/7/7 5/5/5
f 11/11/11 10/10/10 9/9/9
f 12/12/12 11/11/11 9/9/9
f 15/15/15 14/14/14 13/13/13
f 16/16/16 15/15/15 13/13/13
f 19/19/19 18/18/18 17/17/17
f 20/20/20 19/19/19 17/17/17
f 23/23/23 22/22/22 21/21/21
f 24/24/24 23/23/23 21/21/21
f 27/27/27 26/26/26 25/25/25
f 28/28/28 27/27/27 25/25/25
f 31/31/31 30/30/30 29/29/29
f 32/32/32 31/31/31 29/29/29
f 35/35/35 34/34/34 33/33/33
f 36/36/36 35/35/35 33/33/33
f 39/39/39 38/38/38 37/37/37
f 40/40/40 39/39/39 37/37/37
f 43/43/43 42/42/42 41/41/41
f 44/44/44 43/43/43 41/41/41
f 47/47/47 46/46/46 45/45/45
f 48/48/48 47/47/47 45/45/45
f 51/51/51 50/50/50 49/49/49
f 52/52/52 51/51/51 49/49/49
f 55/55/55 54/54/54 53/53/53
f 56/56/56 55/55/55 53/53/53
f 59/59/59 58/58/58 57/57/57
f 60/60/60 59/59/59 57/57/57
f 63/63/63 62/62/62 61/61/61
f 64/64/64 63/63/63 61/61/61
f 67/67/67 66/66/66 65/65/65
f 65/65/65 68/68/68 67/67/67
f 65/65/65 69/69/69 68/68/68
f 69/69/69 70/70/70 68/68/68
f 73/73/73 72/72/72 71/71/71
f 74/74/74 73/73/73 71/71/71
f 77/77/77 76/76/76 75/75/75
f 78/78/78 77/77/77 75/75/75
f 81/81/81 80/80/80 79/79/79
f 82/82/82 81/81/81 79/79/79
f 85/85/85 84/84/84 83/83/83
f 86/86/86 85/85/85 83/83/83
f 89/89/89 88/88/88 87/87/87
f 90/90/90 89/89/89 87/87/87
f 93/93/93 92/92/92 91/91/91
f 94/94/94 93/93/93 91/91/91
f 97/97/97 96/96/96 95/95/95
f 95/95/95 98/98/98 97/97/97
f 95/95/95 99/99/99 98/98/98
f 99/99/99 100/100/100 98/98/98
f 103/103/103 102/102/102 101/101/101
f 104/104/104 103/103/103 101/101/101
f 101/101/101 105/105/105 104/104/104
f 105/105/105 106/106/106 104/104/104
f 106/106/106 107/107/107 104/104/104
f 107/107/107 108/108/108 104/104/104
f 111/111/111 110/110/110 109/109/109
f 112/112/112 111/111/111 109/109/109
f 115/115/115 114/114/114 113/113/113
f 116/116/116 115/115/115 113/113/113
f 113/113/113 117/117/117 116/116/116
f 117/117/117 118/118/118 116/116/116
f 113/113/113 119/119/119 117/117/117
f 119/119/119 120/120/120 117/117/117
f 123/123/123 122/122/122 121/121/121
f 124/124/124 123/123/123 121/121/121
f 121/121/121 125/125/125 124/124/124
f 125/125/125 126/126/126 124/124/124
f 129/129/129 128/128/128 127/127/127
f 130/130/130 129/129/129 127/127/127
f 130/130/130 131/131/131 129/129/129
f 131/131/131 132/132/132 129/129/129
f 135/135/135 134/134/134 133/133/133
f 136/136/136 135/135/135 133/133/133
f 139/139/139 138/138/138 137/137/137
f 140/140/140 139/139/139 137/137/137
f 143/143/143 142/142/142 141/141/141
f 144/144/144 143/143/143 141/141/141
f 147/147/147 146/146/146 145/145/145
f 148/148/148 147/147/147 145/145/145
f 151/151/151 150/150/150 149/149/149
f 152/152/152 151/151/151 149/149/149
f 155/155/155 154/154/154 153/153/153
f 156/156/156 155/155/155 153/153/153
f 159/159/159 158/158/158 157/157/157
f 160/160/160 159/159/159 157/157/157
f 163/163/163 162/162/162 161/161/161
f 164/164/164 163/163/163 161/161/161
