g Model_0
v -0.182667002 0.406361014 0.751378
v -0.182667002 0.406361014 0.0584399998
v -0.182667002 0.506361008 0.0584399998
v -0.182667002 0.506361008 0.751378
v -0.182667002 0.506361008 0.751378
v -0.182667002 0.506361008 0.0584399998
v 0.212459996 0.506361008 0.0584399998
v 0.212459996 0.506361008 0.751378
v 0.212459996 0.506361008 0.751378
v 0.212459996 0.506361008 0.0584399998
v 0.212459996 0.406361014 0.0584399998
v 0.212459996 0.406361014 0.751378
v -0.182667002 0.406361014 0.0584399998
v 0.212459996 0.406361014 0.0584399998
v 0.212459996 0.506361008 0.0584399998
v -0.182667002 0.506361008 0.0584399998
v 0.212459996 0.406361014 0.751378
v -0.182667002 0.406361014 0.751378
v -0.182667002 0.506361008 0.751378
v 0.212459996 0.506361008 0.751378
v -0.245818004 -0.468483001 1.03779399
v -0.245818004 -0.468483001 -0.0191500001
v -0.245818004 0.483536005 -0.0191500001
v -0.245818004 0.483536005 1.03779399
v -0.245818004 0.483536005 1.03779399
v -0.245818004 0.483536005 -0.0191500001
v 0.275611013 0.483536005 -0.0191500001
v 0.275611013 0.483536005 1.03779399
v 0.275611013 0.483536005 1.03779399
v 0.275611013 0.483536005 -0.0191500001
v 0.275611013 -0.468483001 -0.0191500001
v 0.275611013 -0.468483001 1.03779399
v 0.275611013 -0.468483001 1.03779399
v 0.275611013 -0.468483001 -0.0191500001
v -0.245818004 -0.468483001 -0.0191500001
v -0.245818004 -0.468483001 1.03779399
v -0.245818004 -0.468483001 -0.0191500001
v 0.275611013 -0.468483001 -0.0191500001
v 0.275611013 0.483536005 -0.0191500001
v -0.245818004 0.483536005 -0.0191500001
v 0.275611013 -0.468483001 1.03779399
v -0.245818004 -0.468483001 1.03779399
v -0.245818004 0.483536005 1.03779399
v 0.275611013 0.483536005 1.03779399
v 0.129124001 0.406361014 0.893639028
v 0.129124001 0.406361014 0.810302019
v 0.129124001 0.506361008 0.810302019
v 0.129124001 0.506361008 0.893639028
v 0.129124001 0.506361008 0.893639028
v 0.129124001 0.506361008 0.810302019
v 0.212459996 0.506361008 0.810302019
v 0.212459996 0.506361008 0.893639028
v 0.212459996 0.506361008 0.893639028
v 0.212459996 0.506361008 0.810302019
v 0.212459996 0.406361014 0.810302019
v 0.212459996 0.406361014 0.893639028
v 0.129124001 0.406361014 0.810302019
v 0.212459996 0.406361014 0.810302019
v 0.212459996 0.506361008 0.810302019
v 0.129124001 0.506361008 0.810302019
v 0.212459996 0.406361014 0.893639028
v 0.129124001 0.406361014 0.893639028
v 0.129124001 0.506361008 0.893639028
v 0.212459996 0.506361008 0.893639028
v -0.182667002 0.406361014 0.979451001
v -0.182667002 0.406361014 0.937978029
v -0.182667002 0.506361008 0.937978029
v -0.182667002 0.506361008 0.979451001
v -0.182667002 0.506361008 0.979451001
v -0.182667002 0.506361008 0.937978029
v 0.212459996 0.506361008 0.937978029
v 0.212459996 0.506361008 0.979451001
v 0.212459996 0.506361008 0.979451001
v 0.212459996 0.506361008 0.937978029
v 0.212459996 0.406361014 0.937978029
v 0.212459996 0.406361014 0.979451001
v -0.182667002 0.406361014 0.937978029
v 0.212459996 0.406361014 0.937978029
v 0.212459996 0.506361008 0.937978029
v -0.182667002 0.506361008 0.937978029
v 0.212459996 0.406361014 0.979451001
v -0.182667002 0.406361014 0.979451001
v -0.182667002 0.506361008 0.979451001
v 0.212459996 0.506361008 0.979451001
vt 0.27136001 0.306870997
vt 0.27136001 0.164159
vt 0.242994994 0.164159
vt 0.242994994 0.306870997
vt 0.242994994 0.306870997
vt 0.242994994 0.164159
vt 0.130914003 0.164159
vt 0.130914003 0.306870997
vt 0.299726009 0.306870997
vt 0.299726009 0.164159
vt 0.27136001 0.164159
vt 0.27136001 0.30687201
vt 0.328092009 0.36133799
vt 0.328092009 0.262748003
vt 0.299726009 0.262748003
vt 0.299726009 0.36133799
vt 0.299726009 0.164159
vt 0.299726009 0.262748003
vt 0.328092009 0.262748003
vt 0.328092009 0.164159
vt 0.206567004 0.743296027
vt 0.206567004 0.678785026
vt 0.155924007 0.678785026
vt 0.155924007 0.743296027
vt 0.206567004 0.743296027
vt 0.206567004 0.807807982
vt 0.234304994 0.807807982
vt 0.234304994 0.743296027
vt 0.257209986 0.743296027
vt 0.257209986 0.678785026
vt 0.206567004 0.678785026
vt 0.206567004 0.743296027
vt 0.206567004 0.807807982
vt 0.206567004 0.743296027
vt 0.178829998 0.743296027
vt 0.178829998 0.807807982
vt 0.257209986 0.743296027
vt 0.284947008 0.743296027
vt 0.284947008 0.685189009
vt 0.257209986 0.685189009
vt 0.262041986 0.743296027
vt 0.234304994 0.743296027
vt 0.234304994 0.801403999
vt 0.262041986 0.801403999
vt 0.575092018 0.214390993
vt 0.664057016 0.214390993
vt 0.664057016 0.0809440017
vt 0.575092018 0.0809440017
vt 0.753022015 0.214390993
vt 0.753022015 0.325601995
vt 0.841987014 0.325601995
vt 0.841987014 0.214390993
vt 0.664057016 0.214390993
vt 0.753022015 0.214390993
vt 0.753022015 0.0809440017
vt 0.664057016 0.0809440017
vt 0.575092018 0.347838998
vt 0.664057016 0.347838998
vt 0.664057016 0.214390993
vt 0.575092018 0.214390993
vt 0.753022015 0.214390993
vt 0.664057016 0.214390993
vt 0.664057016 0.347838998
vt 0.753022015 0.347838998
vt 0.714101017 0.747126997
vt 0.733327985 0.747126997
vt 0.733327985 0.713927984
vt 0.714101017 0.713927984
vt 0.714101017 0.680728972
vt 0.694872975 0.680728972
vt 0.694872975 0.81190902
vt 0.714101017 0.81190902
vt 0.714101017 0.713927984
vt 0.733327985 0.713927984
vt 0.733327985 0.680728972
vt 0.714101017 0.680728972
vt 0.648510993 0.81190902
vt 0.648510993 0.680728972
vt 0.602147996 0.680728972
vt 0.60214901 0.81190902
vt 0.648510993 0.680728972
vt 0.648510993 0.81190902
vt 0.694872975 0.81190902
vt 0.694872975 0.680728972
vn -1 0 0
vn -1 0 0
vn -1 0 0
vn -1 0 0
vn -0 1 0
vn -0 1 0
vn -0 1 0
vn -0 1 0
vn 1 0 0
vn 1 0 0
vn 1 0 0
vn 1 0 0
vn -0 0 -1
vn -0 0 -1
vn -0 0 -1
vn -0 0 -1
vn -0 0 1
vn -0 0 1
vn -0 0 1
vn -0 0 1
vn -1 0 0
vn -1 0 0
vn -1 0 0
vn -1 0 0
vn -0 1 0
vn -0 1 0
vn -0 1 0
vn -0 1 0
vn 1 0 0
vn 1 0 0
vn 1 0 0
vn 1 0 0
vn -0 -1 0
vn -0 -1 0
vn -0 -1 0
vn -0 -1 0
vn -0 0 -1
vn -0 0 -1
vn -0 0 -1
vn -0 0 -1
vn -0 0 1
vn -0 0 1
vn -0 0 1
vn -0 0 1
vn -1 0 0
vn -1 0 0
vn -1 0 0
vn -1 0 0
vn -0 1 0
vn -0 1 0
vn -0 1 0
vn -0 1 0
vn 1 0 0
vn 1 0 0
vn 1 0 0
vn 1 0 0
vn -0 0 -1
vn -0 0 -1
vn -0 0 -1
vn -0 0 -1
vn -0 0 1
vn -0 0 1
vn -0 0 1
vn -0 0 1
vn -1 0 0
vn -1 0 0
vn -1 0 0
vn -1 0 0
vn -0 1 0
vn -0 1 0
vn -0 1 0
vn -0 1 0
vn 1 0 0
vn 1 0 0
vn 1 0 0
vn 1 0 0
vn -0 0 -1
vn -0 0 -1
vn -0 0 -1
vn -0 0 -1
vn -0 0 1
vn -0 0 1
vn -0 0 1
vn -0 0 1
g Model_0_0
f 3/3/3 2/2/2 1/1/1
f 4/4/4 3/3/3 1/1/1
f 7/7/7 6/6/6 5/5/5
f 8/8/8 7/7/7 5/5/5
f 11/11/11 10/10/10 9/9/9
f 12/12/12 11/11/11 9/9/9
f 15/15/15 14/14/14 13/13/13
f 16/16/16 15/15/15 13/13/13
f 19/19/19 18/18/18 17/17/17
f 20/20/20 19/19/19 17/17/17
f 23/23/23 22/22/22 21/21/21
f 24/24/24 23/23/23 21/21/21
f 27/27/27 26/26/26 25/25/25
f 28/28/28 27/27/27 25/25/25
f 31/31/31 30/30/30 29/29/29
f 32/32/32 31/31/31 29/29/29
f 35/35/35 34/34/34 33/33/33
f 36/36/36 35/35/35 33/33/33
f 39/39/39 38/38/38 37/37/37
f 40/40/40 39/39/39 37/37/37
f 43/43/43 42/42/42 41/41/41
f 44/44/44 43/43/43 41/41/41
f 47/47/47 46/46/46 45/45/45
f 48/48/48 47/47/47 45/45/45
f 51/51/51 50/50/50 49/49/49
f 52/52/52 51/51/51 49/49/49
f 55/55/55 54/54/54 53/53/53
f 56/56/56 55/55/55 53/53/53
f 59/59/59 58/58/58 57/57/57
f 60/60/60 59/59/59 57/57/57
f 63/63/63 62/62/62 61/61/61
f 64/64/64 63/63/63 61/61/61
f 67/67/67 66/66/66 65/65/65
f 68/68/68 67/67/67 65/65/65
f 71/71/71 70/70/70 69/69/69
f 72/72/72 71/71/71 69/69/69
f 75/75/75 74/74/74 73/73/73
f 76/76/76 75/75/75 73/73/73
f 79/79/79 78/78/78 77/77/77
f 80/80/80 79/79/79 77/77/77
f 83/83/83 82/82/82 81/81/81
f 84/84/84 83/83/83 81/81/81
