v 0.500000 0.350000 1.000000
v 0.500000 -0.350000 1.250000
v -0.500000 -0.350000 1.250000
v -0.500000 0.350000 1.000000
v 0.500000 0.350000 -0.000000
v 0.500000 -0.350000 0.000000
v 0.500000 -0.350000 1.250000
v 0.500000 0.350000 1.000000
v 0.500000 -0.350000 0.000000
v -0.500000 -0.350000 0.000000
v -0.500000 -0.350000 1.250000
v 0.500000 -0.350000 1.250000
v -0.500000 -0.350000 0.000000
v -0.500000 0.350000 -0.000000
v -0.500000 0.350000 1.000000
v -0.500000 -0.350000 1.250000
v 0.500000 0.350000 1.000000
v -0.500000 0.350000 1.000000
v -0.500000 0.350000 -0.000000
v 0.500000 0.350000 -0.000000
vt 0.319698185 0.790642023
vt 0.353908628 0.790642023
vt 0.353908628 0.739326417
vt 0.319698244 0.739326417
vt 0.250593156 0.738813281
vt 0.284803569 0.738813221
vt 0.284803569 0.687497616
vt 0.250593156 0.687497616
vt 0.2851457 0.738813281
vt 0.319356114 0.738813221
vt 0.319356114 0.687497616
vt 0.28514567 0.687497616
vt 0.319698185 0.687497616
vt 0.319698185 0.738813281
vt 0.353908628 0.738813281
vt 0.353908628 0.687497616
vt 0.28514567 0.739326417
vt 0.2851457 0.790642023
vt 0.319356114 0.790642023
vt 0.319356114 0.739326417
vn 0.000000 0.336336 0.941742
vn 0.000000 0.336336 0.941742
vn 0.000000 0.336336 0.941742
vn 0.000000 0.336336 0.941742
vn 1.000000 0.000000 0.000000
vn 1.000000 0.000000 0.000000
vn 1.000000 0.000000 0.000000
vn 1.000000 0.000000 0.000000
vn 0.000000 -1.000000 0.000000
vn 0.000000 -1.000000 0.000000
vn 0.000000 -1.000000 0.000000
vn 0.000000 -1.000000 0.000000
vn -1.000000 0.000000 0.000000
vn -1.000000 0.000000 0.000000
vn -1.000000 0.000000 0.000000
vn -1.000000 0.000000 0.000000
vn 0.000000 1.000000 -0.000000
vn 0.000000 1.000000 -0.000000
vn 0.000000 1.000000 -0.000000
vn 0.000000 1.000000 -0.000000
f 3/3/3 2/2/2 1/1/1
f 4/4/4 3/3/3 1/1/1
f 7/7/7 6/6/6 5/5/5
f 8/8/8 7/7/7 5/5/5
f 11/11/11 10/10/10 9/9/9
f 12/12/12 11/11/11 9/9/9
f 15/15/15 14/14/14 13/13/13
f 16/16/16 15/15/15 13/13/13
f 19/19/19 18/18/18 17/17/17
f 20/20/20 19/19/19 17/17/17
