g Model_0
v 0.284780264 -0.0703349188 1.46399415
v 0.284780264 0.0438339636 1.02871788
v 0.378530234 0.0438339636 1.02871788
v 0.284780264 -0.0703349188 1.46399415
v 0.378530234 0.0438339636 1.02871788
v 0.378530234 -0.0703349188 1.46399415
v 0.378530234 -0.161017478 1.44020903
v 0.378530234 -0.0468485877 1.00493276
v 0.284780264 -0.0468485877 1.00493276
v 0.378530234 -0.161017478 1.44020903
v 0.284780264 -0.0468485877 1.00493276
v 0.284780264 -0.161017478 1.44020903
v -0.0652197227 -0.161017478 1.44020903
v -0.0652197227 -0.0468485877 1.00493276
v -0.0652197227 0.0438339636 1.02871788
v -0.0652197227 -0.161017478 1.44020903
v -0.0652197227 0.0438339636 1.02871788
v -0.0652197227 -0.0703349188 1.46399415
v 0.0285302773 -0.0703349188 1.46399415
v 0.0285302773 0.0438339636 1.02871788
v 0.0285302773 -0.0468485877 1.00493276
v 0.0285302773 -0.0703349188 1.46399415
v 0.0285302773 -0.0468485877 1.00493276
v 0.0285302773 -0.161017478 1.44020903
v -0.282148838 0.267848104 1.18410587
v -0.282148838 0.229014769 1.12533545
v -0.282148838 0.0665348098 1.0852865
v -0.317534506 0.201562658 1.12074101
v -0.317534506 0.201562658 0.994158745
v -0.358167648 0.201562658 0.994158745
v -0.317534506 0.201562658 1.12074101
v -0.358167648 0.201562658 0.994158745
v -0.358167648 0.201562658 1.12074101
v -0.393553495 0.229014769 1.12533545
v -0.393553495 0.267848104 1.18410587
v -0.393553495 0.0665348098 1.0852865
v -0.317534506 0.2421958 1.12074101
v -0.317534506 0.2421958 0.994158745
v -0.317534506 0.201562658 0.994158745
v -0.317534506 0.2421958 1.12074101
v -0.317534506 0.201562658 0.994158745
v -0.317534506 0.201562658 1.12074101
v -0.358167648 0.2421958 1.12074101
v -0.358167648 0.2421958 0.994158745
v -0.317534506 0.2421958 0.994158745
v -0.358167648 0.2421958 1.12074101
v -0.317534506 0.2421958 0.994158745
v -0.317534506 0.2421958 1.12074101
v -0.358167648 0.201562658 1.12074101
v -0.358167648 0.201562658 0.994158745
v -0.358167648 0.2421958 0.994158745
v -0.358167648 0.201562658 1.12074101
v -0.358167648 0.2421958 0.994158745
v -0.358167648 0.2421958 1.12074101
v -0.282148838 0.229014769 1.12533545
v -0.282148838 0.267848104 1.18410587
v -0.282148838 0.27568692 1.14051855
v -0.393553495 0.267848104 1.18410587
v -0.393553495 0.229014769 1.12533545
v -0.393553495 0.27568692 1.14051855
v -0.282148838 -0.215363041 1.33739245
v -0.282148838 -0.174442038 1.28005612
v -0.282148838 -0.195365608 1.11402643
v -0.317534536 -0.108409777 1.24321854
v -0.317534536 -0.108409777 1.1166364
v -0.358167678 -0.108409777 1.1166364
v -0.317534536 -0.108409777 1.24321854
v -0.358167678 -0.108409777 1.1166364
v -0.358167678 -0.108409777 1.24321854
v -0.393553495 -0.174442038 1.28005612
v -0.393553495 -0.215363041 1.33739245
v -0.393553495 -0.195365608 1.11402643
v -0.317534536 -0.0677766353 1.24321854
v -0.317534536 -0.0677766353 1.1166364
v -0.317534536 -0.108409777 1.1166364
v -0.317534536 -0.0677766353 1.24321854
v -0.317534536 -0.108409777 1.1166364
v -0.317534536 -0.108409777 1.24321854
v -0.358167678 -0.0677766353 1.24321854
v -0.358167678 -0.0677766353 1.1166364
v -0.317534536 -0.0677766353 1.1166364
v -0.358167678 -0.0677766353 1.24321854
v -0.317534536 -0.0677766353 1.1166364
v -0.317534536 -0.0677766353 1.24321854
v -0.358167678 -0.108409777 1.24321854
v -0.358167678 -0.108409777 1.1166364
v -0.358167678 -0.0677766353 1.1166364
v -0.358167678 -0.108409777 1.24321854
v -0.358167678 -0.0677766353 1.1166364
v -0.358167678 -0.0677766353 1.24321854
v -0.282148838 -0.174442038 1.28005612
v -0.282148838 -0.215363041 1.33739245
v -0.282148838 -0.171865836 1.32906806
v -0.393553495 -0.215363041 1.33739245
v -0.393553495 -0.174442038 1.28005612
v -0.393553495 -0.171865836 1.32906806
v 0.284780264 -0.161017478 1.44020903
v 0.284780264 -0.0468485877 1.00493276
v 0.284780264 0.0438339636 1.02871788
v 0.284780264 -0.0703349188 1.46399415
v 0.378530234 -0.0703349188 1.46399415
v 0.378530234 0.0438339636 1.02871788
v 0.378530234 -0.0468485877 1.00493276
v 0.378530234 -0.161017478 1.44020903
v 0.469155252 -0.0748437122 1.5920397
v -0.155844659 -0.0748436823 1.59203959
v -0.155844659 -0.0367873944 1.44694757
v 0.469155252 -0.0367874168 1.44694757
v -0.0652197227 -0.0703349188 1.46399415
v -0.0652197227 0.0438339636 1.02871788
v 0.0285302773 0.0438339636 1.02871788
v 0.0285302773 -0.0703349188 1.46399415
v 0.0285302773 -0.161017478 1.44020903
v 0.0285302773 -0.0468485877 1.00493276
v -0.0652197227 -0.0468485877 1.00493276
v -0.0652197227 -0.161017478 1.44020903
v 0.469155252 -0.219935805 1.55398345
v -0.155844659 -0.219935775 1.55398333
v -0.155844659 -0.0748436823 1.59203959
v 0.469155252 -0.0748437122 1.5920397
v 0.469155252 -0.0367874168 1.44694757
v -0.155844659 -0.0367873944 1.44694757
v -0.155844659 -0.181879476 1.4088912
v 0.469155252 -0.181879506 1.40889132
v 0.469155252 -0.181879506 1.40889132
v -0.155844659 -0.181879476 1.4088912
v -0.155844659 -0.219935775 1.55398333
v 0.469155252 -0.219935805 1.55398345
v -0.155844659 -0.0748436823 1.59203959
v -0.155844659 -0.219935775 1.55398333
v -0.155844659 -0.181879476 1.4088912
v -0.155844659 -0.0367873944 1.44694757
v 0.469155252 -0.219935805 1.55398345
v 0.469155252 -0.0748437122 1.5920397
v 0.469155252 -0.0367874168 1.44694757
v 0.469155252 -0.181879506 1.40889132
v -0.393553495 0.218660876 1.08893955
v -0.393553495 0.0931109115 0.995485187
v -0.282148838 0.0931109115 0.995485187
v -0.282148838 0.218660876 1.08893955
v -0.282148838 0.229014769 1.12533545
v -0.282148838 0.218660876 1.08893955
v -0.282148838 0.0931109115 0.995485187
v -0.282148838 0.0665348098 1.0852865
v -0.282148838 0.229014769 1.12533545
v -0.393553495 0.229014769 1.12533545
v -0.393553495 0.218660876 1.08893955
v -0.282148838 0.218660876 1.08893955
v -0.393553495 0.0931109115 0.995485187
v -0.393553495 0.218660876 1.08893955
v -0.393553495 0.229014769 1.12533545
v -0.393553495 0.0665348098 1.0852865
v -0.282148838 0.229014769 1.12533545
v -0.282148838 0.27568692 1.14051855
v -0.393553495 0.27568692 1.14051855
v -0.393553495 0.229014769 1.12533545
v -0.317534506 0.201562658 1.12074101
v -0.358167648 0.201562658 1.12074101
v -0.358167648 0.2421958 1.12074101
v -0.317534506 0.2421958 1.12074101
v -0.282148838 0.267848104 1.18410587
v -0.393553495 0.267848104 1.18410587
v -0.393553495 0.27568692 1.14051855
v -0.282148838 0.27568692 1.14051855
v -0.282148838 0.0665348098 1.0852865
v -0.393553495 0.0665348098 1.0852865
v -0.393553495 0.267848104 1.18410587
v -0.282148838 0.267848104 1.18410587
v -0.393553495 -0.144185662 1.25733125
v -0.393553495 -0.102008626 1.10660768
v -0.282148838 -0.102008626 1.10660768
v -0.282148838 -0.144185662 1.25733125
v -0.282148838 -0.174442038 1.28005612
v -0.282148838 -0.144185662 1.25733125
v -0.282148838 -0.102008626 1.10660768
v -0.282148838 -0.195365608 1.11402643
v -0.282148838 -0.174442038 1.28005612
v -0.393553495 -0.174442038 1.28005612
v -0.393553495 -0.144185662 1.25733125
v -0.282148838 -0.144185662 1.25733125
v -0.393553495 -0.102008626 1.10660768
v -0.393553495 -0.144185662 1.25733125
v -0.393553495 -0.174442038 1.28005612
v -0.393553495 -0.195365608 1.11402643
v -0.282148838 -0.174442038 1.28005612
v -0.282148838 -0.171865836 1.32906806
v -0.393553495 -0.171865836 1.32906806
v -0.393553495 -0.174442038 1.28005612
v -0.317534536 -0.108409777 1.24321854
v -0.358167678 -0.108409777 1.24321854
v -0.358167678 -0.0677766353 1.24321854
v -0.317534536 -0.0677766353 1.24321854
v -0.282148838 -0.215363041 1.33739245
v -0.393553495 -0.215363041 1.33739245
v -0.393553495 -0.171865836 1.32906806
v -0.282148838 -0.171865836 1.32906806
v -0.282148838 -0.195365608 1.11402643
v -0.393553495 -0.195365608 1.11402643
v -0.393553495 -0.215363041 1.33739245
v -0.282148838 -0.215363041 1.33739245
v 0.500000179 0.349999815 1
v 0.499999672 -0.350000173 1.25
v -0.500000238 -0.349999934 1.25
v -0.49999997 0.349999994 1
v 0.49999997 0.349999934 0
v 0.49999997 -0.349999994 0
v 0.499999672 -0.350000173 1.25
v 0.500000179 0.349999815 1
v 0.49999997 -0.349999994 0
v -0.500000119 -0.349999934 0
v -0.500000238 -0.349999934 1.25
v 0.499999672 -0.350000173 1.25
v -0.500000119 -0.349999934 0
v -0.499999821 0.350000054 0
v -0.49999997 0.349999994 1
v -0.500000238 -0.349999934 1.25
v 0.500000179 0.349999815 1
v -0.49999997 0.349999994 1
v -0.499999821 0.350000054 0
v 0.49999997 0.349999934 0
vt 0.683038354 0.160616547
vt 0.711048424 0.132675499
vt 0.710962176 0.132582277
vt 0.683038354 0.160616547
vt 0.710962176 0.132582277
vt 0.683043003 0.104557037
vt 0.739058614 0.104548454
vt 0.711049139 0.132490098
vt 0.711135387 0.132582158
vt 0.739058614 0.104548454
vt 0.711135387 0.132582158
vt 0.739058614 0.16061148
vt 0.795101225 0.104548454
vt 0.767091751 0.132490098
vt 0.767177999 0.132582158
vt 0.795101225 0.104548454
vt 0.767177999 0.132582158
vt 0.795101225 0.16061148
vt 0.739081025 0.160616547
vt 0.767091095 0.132675499
vt 0.767004848 0.132582277
vt 0.739081025 0.160616547
vt 0.767004848 0.132582277
vt 0.739085674 0.104557037
vt 0.785412669 0.758068323
vt 0.828346133 0.715134859
vt 0.828346133 0.758068323
vt 0.769820094 0.145937711
vt 0.838967681 0.250148714
vt 0.839990139 0.128194302
vt 0.769820094 0.145937711
vt 0.839990139 0.128194302
vt 0.738274574 0.195254564
vt 0.785412669 0.715134859
vt 0.828346133 0.758068323
vt 0.785412669 0.758068323
vt 0.814576745 0.183088303
vt 0.71286118 0.250148594
vt 0.838967681 0.250148714
vt 0.814576745 0.183088303
vt 0.838967681 0.250148714
vt 0.769820094 0.145937711
vt 0.783031166 0.232405186
vt 0.713883519 0.128194213
vt 0.71286118 0.250148594
vt 0.783031166 0.232405186
vt 0.71286118 0.250148594
vt 0.814576745 0.183088303
vt 0.738274574 0.195254564
vt 0.839990139 0.128194302
vt 0.713883519 0.128194213
vt 0.738274574 0.195254564
vt 0.713883519 0.128194213
vt 0.783031166 0.232405186
vt 0.828346133 0.715134859
vt 0.785412669 0.758068323
vt 0.828346133 0.758068323
vt 0.828346133 0.758068323
vt 0.785412669 0.715134859
vt 0.785412669 0.758068323
vt 0.785412669 0.758068323
vt 0.828346133 0.715134859
vt 0.828346133 0.758068323
vt 0.769820094 0.145937711
vt 0.838967681 0.250148714
vt 0.839990139 0.128194302
vt 0.769820094 0.145937711
vt 0.839990139 0.128194302
vt 0.738274574 0.195254564
vt 0.785412669 0.715134859
vt 0.828346133 0.758068323
vt 0.785412669 0.758068323
vt 0.814576745 0.183088303
vt 0.71286118 0.250148594
vt 0.838967681 0.250148714
vt 0.814576745 0.183088303
vt 0.838967681 0.250148714
vt 0.769820094 0.145937711
vt 0.783031166 0.232405186
vt 0.713883519 0.128194213
vt 0.71286118 0.250148594
vt 0.783031166 0.232405186
vt 0.71286118 0.250148594
vt 0.814576745 0.183088303
vt 0.738274574 0.195254564
vt 0.839990139 0.128194302
vt 0.713883519 0.128194213
vt 0.738274574 0.195254564
vt 0.713883519 0.128194213
vt 0.783031166 0.232405186
vt 0.828346133 0.715134859
vt 0.785412669 0.758068323
vt 0.828346133 0.758068323
vt 0.828346133 0.758068323
vt 0.785412669 0.715134859
vt 0.785412669 0.758068323
vt 0.739058614 0.16061148
vt 0.711135387 0.132582158
vt 0.711048424 0.132675499
vt 0.683038354 0.160616547
vt 0.683043003 0.104557037
vt 0.710962176 0.132582277
vt 0.711049139 0.132490098
vt 0.739058614 0.104548454
vt 0.67131418 0.638647854
vt 0.67131418 0.750733137
vt 0.783399463 0.750733137
vt 0.783399463 0.638647854
vt 0.795101225 0.16061148
vt 0.767177999 0.132582158
vt 0.767091095 0.132675499
vt 0.739081025 0.160616547
vt 0.739085674 0.104557037
vt 0.767004848 0.132582277
vt 0.767091751 0.132490098
vt 0.795101225 0.104548454
vt 0.67131418 0.638647854
vt 0.67131418 0.750733137
vt 0.783399463 0.750733137
vt 0.783399463 0.638647854
vt 0.67131418 0.638647854
vt 0.67131418 0.750733137
vt 0.783399463 0.750733137
vt 0.783399463 0.638647854
vt 0.67131418 0.638647854
vt 0.67131418 0.750733137
vt 0.783399463 0.750733137
vt 0.783399463 0.638647854
vt 0.67131418 0.638647854
vt 0.67131418 0.750733137
vt 0.783399463 0.750733137
vt 0.783399463 0.638647854
vt 0.67131418 0.638647854
vt 0.67131418 0.750733137
vt 0.783399463 0.750733137
vt 0.783399463 0.638647854
vt 0.785412669 0.715134859
vt 0.785412669 0.758068323
vt 0.828346133 0.758068323
vt 0.828346133 0.715134859
vt 0.828346133 0.715134859
vt 0.785412669 0.715134859
vt 0.785412669 0.758068323
vt 0.828346133 0.758068323
vt 0.785412669 0.715134859
vt 0.785412669 0.758068323
vt 0.828346133 0.758068323
vt 0.828346133 0.715134859
vt 0.828346133 0.758068323
vt 0.828346133 0.715134859
vt 0.785412669 0.715134859
vt 0.785412669 0.758068323
vt 0.785412669 0.715134859
vt 0.785412669 0.758068323
vt 0.828346133 0.758068323
vt 0.828346133 0.715134859
vt 0.769820094 0.145937711
vt 0.738274574 0.195254564
vt 0.783031166 0.232405186
vt 0.814576745 0.183088303
vt 0.785412669 0.715134859
vt 0.785412669 0.758068323
vt 0.828346133 0.758068323
vt 0.828346133 0.715134859
vt 0.785412669 0.758068323
vt 0.828346133 0.758068323
vt 0.785412669 0.758068323
vt 0.828346133 0.758068323
vt 0.785412669 0.715134859
vt 0.785412669 0.758068323
vt 0.828346133 0.758068323
vt 0.828346133 0.715134859
vt 0.828346133 0.715134859
vt 0.785412669 0.715134859
vt 0.785412669 0.758068323
vt 0.828346133 0.758068323
vt 0.785412669 0.715134859
vt 0.785412669 0.758068323
vt 0.828346133 0.758068323
vt 0.828346133 0.715134859
vt 0.828346133 0.758068323
vt 0.828346133 0.715134859
vt 0.785412669 0.715134859
vt 0.785412669 0.758068323
vt 0.785412669 0.715134859
vt 0.785412669 0.758068323
vt 0.828346133 0.758068323
vt 0.828346133 0.715134859
vt 0.769820094 0.145937711
vt 0.738274574 0.195254564
vt 0.783031166 0.232405186
vt 0.814576745 0.183088303
vt 0.785412669 0.715134859
vt 0.785412669 0.758068323
vt 0.828346133 0.758068323
vt 0.828346133 0.715134859
vt 0.785412669 0.758068323
vt 0.828346133 0.758068323
vt 0.785412669 0.758068323
vt 0.828346133 0.758068323
vt 0.319698185 0.799496412
vt 0.353908628 0.799496412
vt 0.353908628 0.748180807
vt 0.319698244 0.748180807
vt 0.250593156 0.74766767
vt 0.284803569 0.747667611
vt 0.284803569 0.696352005
vt 0.250593156 0.696352005
vt 0.2851457 0.74766767
vt 0.319356114 0.747667611
vt 0.319356114 0.696352005
vt 0.28514567 0.696352005
vt 0.319698185 0.696352005
vt 0.319698185 0.74766767
vt 0.353908628 0.74766767
vt 0.353908628 0.696352005
vt 0.28514567 0.748180807
vt 0.2851457 0.799496412
vt 0.319356114 0.799496412
vt 0.319356114 0.748180807
vn -0 0.967280626 0.253708601
vn -0 0.967280626 0.253708601
vn -0 0.967280626 0.253708601
vn -0 0.967280626 0.253708601
vn -0 0.967280626 0.253708601
vn -0 0.967280626 0.253708601
vn -0 -0.967280626 -0.253708631
vn -0 -0.967280626 -0.253708631
vn -0 -0.967280626 -0.253708631
vn -0 -0.967280626 -0.253708631
vn -0 -0.967280626 -0.253708631
vn -0 -0.967280626 -0.253708631
vn -1 0 0
vn -1 0 0
vn -1 0 0
vn -1 0 0
vn -1 0 0
vn -1 0 0
vn 1 0 0
vn 1 0 0
vn 1 0 0
vn 1 0 0
vn 1 0 0
vn 1 0 0
vn 1 0 0
vn 1 0 0
vn 1 0 0
vn -0 -1 0
vn -0 -1 0
vn -0 -1 0
vn -0 -1 0
vn -0 -1 0
vn -0 -1 0
vn -1 0 0
vn -1 0 0
vn -1 0 0
vn 1 0 0
vn 1 0 0
vn 1 0 0
vn 1 0 0
vn 1 0 0
vn 1 0 0
vn -0 1 0
vn -0 1 0
vn -0 1 0
vn -0 1 0
vn -0 1 0
vn -0 1 0
vn -1 0 0
vn -1 0 0
vn -1 0 0
vn -1 0 0
vn -1 0 0
vn -1 0 0
vn 1 0 0
vn 1 0 0
vn 1 0 0
vn -1 0 0
vn -1 0 0
vn -1 0 0
vn 1 0 0
vn 1 0 0
vn 1 0 0
vn -0 -1 0
vn -0 -1 0
vn -0 -1 0
vn -0 -1 0
vn -0 -1 0
vn -0 -1 0
vn -1 0 0
vn -1 0 0
vn -1 0 0
vn 1 0 0
vn 1 0 0
vn 1 0 0
vn 1 0 0
vn 1 0 0
vn 1 0 0
vn -0 1 0
vn -0 1 0
vn -0 1 0
vn -0 1 0
vn -0 1 0
vn -0 1 0
vn -1 0 0
vn -1 0 0
vn -1 0 0
vn -1 0 0
vn -1 0 0
vn -1 0 0
vn 1 0 0
vn 1 0 0
vn 1 0 0
vn -1 0 0
vn -1 0 0
vn -1 0 0
vn -1 0 0
vn -1 0 0
vn -1 0 0
vn -1 0 0
vn 1 0 0
vn 1 0 0
vn 1 0 0
vn 1 0 0
vn -0 0.967280626 0.253708631
vn -0 0.967280626 0.253708631
vn -0 0.967280626 0.253708631
vn -0 0.967280626 0.253708631
vn -0 0.967280626 0.253708631
vn -0 0.967280626 0.253708631
vn -0 0.967280626 0.253708631
vn -0 0.967280626 0.253708631
vn -0 -0.967280626 -0.253708661
vn -0 -0.967280626 -0.253708661
vn -0 -0.967280626 -0.253708661
vn -0 -0.967280626 -0.253708661
vn -0 -0.253708392 0.967280746
vn -0 -0.253708392 0.967280746
vn -0 -0.253708392 0.967280746
vn -0 -0.253708392 0.967280746
vn -0 0.25370878 -0.967280626
vn -0 0.25370878 -0.967280626
vn -0 0.25370878 -0.967280626
vn -0 0.25370878 -0.967280626
vn -0 -0.967280626 -0.253708601
vn -0 -0.967280626 -0.253708601
vn -0 -0.967280626 -0.253708601
vn -0 -0.967280626 -0.253708601
vn -1 0 0
vn -1 0 0
vn -1 0 0
vn -1 0 0
vn 1 0 0
vn 1 0 0
vn 1 0 0
vn 1 0 0
vn -0 0.823049843 -0.567969084
vn -0 0.597100496 -0.802166522
vn -0 0.597100496 -0.802166522
vn -0 0.823049843 -0.567969084
vn 1 0 0
vn 1 0 0
vn 1 0 0
vn 1 0 0
vn -0 0.961837053 -0.273623019
vn -0 0.961837053 -0.273623019
vn -0 0.823049843 -0.567969084
vn -0 0.823049843 -0.567969084
vn -1 0 0
vn -1 0 0
vn -1 0 0
vn -1 0 0
vn -0 0.309355915 -0.950946391
vn -0 0.309355915 -0.950946391
vn -0 0.309355915 -0.950946391
vn -0 0.309355915 -0.950946391
vn -0 0 1
vn -0 0 1
vn -0 0 1
vn -0 0 1
vn -0 0.984210491 0.177002013
vn -0 0.984210491 0.177002013
vn -0 0.984210491 0.177002013
vn -0 0.984210491 0.177002013
vn -0 -0.440647513 0.897680223
vn -0 -0.440647513 0.897680223
vn -0 -0.440647513 0.897680223
vn -0 -0.440647513 0.897680223
vn -0 0.825488627 0.564418674
vn -0 0.963006377 0.26947847
vn -0 0.963006377 0.26947847
vn -0 0.825488627 0.564418674
vn 1 0 0
vn 1 0 0
vn 1 0 0
vn 1 0 0
vn -0 0.600551009 0.799586475
vn -0 0.600551009 0.799586475
vn -0 0.825488627 0.564418674
vn -0 0.825488627 0.564418674
vn -1 0 0
vn -1 0 0
vn -1 0 0
vn -1 0 0
vn -0 0.998621464 -0.0524902791
vn -0 0.998621464 -0.0524902791
vn -0 0.998621464 -0.0524902791
vn -0 0.998621464 -0.0524902791
vn -0 0 1
vn -0 0 1
vn -0 0 1
vn -0 0 1
vn -0 0.187966257 0.98217541
vn -0 0.187966257 0.98217541
vn -0 0.187966257 0.98217541
vn -0 0.187966257 0.98217541
vn -0 -0.996016324 -0.0891709924
vn -0 -0.996016324 -0.0891709924
vn -0 -0.996016324 -0.0891709924
vn -0 -0.996016324 -0.0891709924
vn -0 0.336336374 0.941741943
vn -0 0.336336374 0.941741943
vn -0 0.336336374 0.941741943
vn -0 0.336336374 0.941741943
vn 1 0 0
vn 1 0 0
vn 1 0 0
vn 1 0 0
vn -0 -1 0
vn -0 -1 0
vn -0 -1 0
vn -0 -1 0
vn -1 0 0
vn -1 0 0
vn -1 0 0
vn -1 0 0
vn -0 1 0
vn -0 1 0
vn -0 1 0
vn -0 1 0
g Model_0_0
f 3/3/3 2/2/2 1/1/1
f 6/6/6 5/5/5 4/4/4
f 9/9/9 8/8/8 7/7/7
f 12/12/12 11/11/11 10/10/10
f 15/15/15 14/14/14 13/13/13
f 18/18/18 17/17/17 16/16/16
f 21/21/21 20/20/20 19/19/19
f 24/24/24 23/23/23 22/22/22
f 27/27/27 26/26/26 25/25/25
f 30/30/30 29/29/29 28/28/28
f 33/33/33 32/32/32 31/31/31
f 36/36/36 35/35/35 34/34/34
f 39/39/39 38/38/38 37/37/37
f 42/42/42 41/41/41 40/40/40
f 45/45/45 44/44/44 43/43/43
f 48/48/48 47/47/47 46/46/46
f 51/51/51 50/50/50 49/49/49
f 54/54/54 53/53/53 52/52/52
f 57/57/57 56/56/56 55/55/55
f 60/60/60 59/59/59 58/58/58
f 63/63/63 62/62/62 61/61/61
f 66/66/66 65/65/65 64/64/64
f 69/69/69 68/68/68 67/67/67
f 72/72/72 71/71/71 70/70/70
f 75/75/75 74/74/74 73/73/73
f 78/78/78 77/77/77 76/76/76
f 81/81/81 80/80/80 79/79/79
f 84/84/84 83/83/83 82/82/82
f 87/87/87 86/86/86 85/85/85
f 90/90/90 89/89/89 88/88/88
f 93/93/93 92/92/92 91/91/91
f 96/96/96 95/95/95 94/94/94
f 99/99/99 98/98/98 97/97/97
f 100/100/100 99/99/99 97/97/97
f 103/103/103 102/102/102 101/101/101
f 104/104/104 103/103/103 101/101/101
f 107/107/107 106/106/106 105/105/105
f 108/108/108 107/107/107 105/105/105
f 111/111/111 110/110/110 109/109/109
f 112/112/112 111/111/111 109/109/109
f 115/115/115 114/114/114 113/113/113
f 116/116/116 115/115/115 113/113/113
f 119/119/119 118/118/118 117/117/117
f 120/120/120 119/119/119 117/117/117
f 123/123/123 122/122/122 121/121/121
f 124/124/124 123/123/123 121/121/121
f 127/127/127 126/126/126 125/125/125
f 128/128/128 127/127/127 125/125/125
f 131/131/131 130/130/130 129/129/129
f 132/132/132 131/131/131 129/129/129
f 135/135/135 134/134/134 133/133/133
f 136/136/136 135/135/135 133/133/133
f 139/139/139 138/138/138 137/137/137
f 140/140/140 139/139/139 137/137/137
f 143/143/143 142/142/142 141/141/141
f 144/144/144 143/143/143 141/141/141
f 147/147/147 146/146/146 145/145/145
f 148/148/148 147/147/147 145/145/145
f 151/151/151 150/150/150 149/149/149
f 152/152/152 151/151/151 149/149/149
f 155/155/155 154/154/154 153/153/153
f 156/156/156 155/155/155 153/153/153
f 159/159/159 158/158/158 157/157/157
f 160/160/160 159/159/159 157/157/157
f 163/163/163 162/162/162 161/161/161
f 164/164/164 163/163/163 161/161/161
f 167/167/167 166/166/166 165/165/165
f 168/168/168 167/167/167 165/165/165
f 171/171/171 170/170/170 169/169/169
f 172/172/172 171/171/171 169/169/169
f 175/175/175 174/174/174 173/173/173
f 176/176/176 175/175/175 173/173/173
f 179/179/179 178/178/178 177/177/177
f 180/180/180 179/179/179 177/177/177
f 183/183/183 182/182/182 181/181/181
f 184/184/184 183/183/183 181/181/181
f 187/187/187 186/186/186 185/185/185
f 188/188/188 187/187/187 185/185/185
f 191/191/191 190/190/190 189/189/189
f 192/192/192 191/191/191 189/189/189
f 195/195/195 194/194/194 193/193/193
f 196/196/196 195/195/195 193/193/193
f 199/199/199 198/198/198 197/197/197
f 200/200/200 199/199/199 197/197/197
f 203/203/203 202/202/202 201/201/201
f 204/204/204 203/203/203 201/201/201
f 207/207/207 206/206/206 205/205/205
f 208/208/208 207/207/207 205/205/205
f 211/211/211 210/210/210 209/209/209
f 212/212/212 211/211/211 209/209/209
f 215/215/215 214/214/214 213/213/213
f 216/216/216 215/215/215 213/213/213
f 219/219/219 218/218/218 217/217/217
f 220/220/220 219/219/219 217/217/217
