g Model_0
v 0.176189572 0.568477273 1.37853539
v 0.176189572 0.436089784 1.31322479
v 0.176189572 0.501400471 1.18083715
v 0.176189572 0.63378793 1.24614787
v 0.176189572 0.63378793 1.24614787
v 0.176189572 0.501400471 1.18083715
v 0.323810428 0.501400471 1.18083715
v 0.323810428 0.63378793 1.24614787
v 0.323810428 0.63378793 1.24614787
v 0.323810428 0.501400471 1.18083715
v 0.323810428 0.436089784 1.31322479
v 0.323810428 0.568477273 1.37853539
v 0.323810428 0.568477273 1.37853539
v 0.323810428 0.436089784 1.31322479
v 0.176189572 0.436089784 1.31322479
v 0.176189572 0.568477273 1.37853539
v 0.176189572 0.436089784 1.31322479
v 0.323810428 0.436089784 1.31322479
v 0.323810428 0.501400471 1.18083715
v 0.176189572 0.501400471 1.18083715
v 0.323810428 0.568477273 1.37853539
v 0.176189572 0.568477273 1.37853539
v 0.176189572 0.63378793 1.24614787
v 0.323810428 0.63378793 1.24614787
v 0.21351248 0.512039661 1.30907547
v 0.21351248 0.0333281457 1.07291293
v 0.21351248 0.0656138659 1.00746834
v 0.21351248 0.544325352 1.24363089
v 0.21351248 0.544325352 1.24363089
v 0.21351248 0.0656138659 1.00746834
v 0.28648752 0.0656138659 1.00746834
v 0.28648752 0.544325352 1.24363089
v 0.28648752 0.544325352 1.24363089
v 0.28648752 0.0656138659 1.00746834
v 0.28648752 0.0333281457 1.07291293
v 0.28648752 0.512039661 1.30907547
v 0.28648752 0.512039661 1.30907547
v 0.28648752 0.0333281457 1.07291293
v 0.21351248 0.0333281457 1.07291293
v 0.21351248 0.512039661 1.30907547
v -0.0738104284 -0.251929283 1.66306317
v -0.0738104284 -0.217899203 1.51941824
v -0.0738104284 -0.0742542148 1.55344844
v -0.0738104284 -0.108284295 1.69709325
v -0.0738104284 -0.108284295 1.69709325
v -0.0738104284 -0.0742542148 1.55344844
v 0.0738104284 -0.0742542148 1.55344844
v 0.0738104284 -0.108284295 1.69709325
v 0.0738104284 -0.108284295 1.69709325
v 0.0738104284 -0.0742542148 1.55344844
v 0.0738104284 -0.217899203 1.51941824
v 0.0738104284 -0.251929283 1.66306317
v 0.0738104284 -0.251929283 1.66306317
v 0.0738104284 -0.217899203 1.51941824
v -0.0738104284 -0.217899203 1.51941824
v -0.0738104284 -0.251929283 1.66306317
v -0.0738104284 -0.217899203 1.51941824
v 0.0738104284 -0.217899203 1.51941824
v 0.0738104284 -0.0742542148 1.55344844
v -0.0738104284 -0.0742542148 1.55344844
v 0.0738104284 -0.251929283 1.66306317
v -0.0738104284 -0.251929283 1.66306317
v -0.0738104284 -0.108284295 1.69709325
v 0.0738104284 -0.108284295 1.69709325
v -0.0364875197 -0.196859807 1.59251356
v -0.0364875197 -0.0738072395 1.07309508
v -0.0364875197 -0.00279769301 1.08991766
v -0.0364875197 -0.12585026 1.60933614
v -0.0364875197 -0.12585026 1.60933614
v -0.0364875197 -0.00279769301 1.08991766
v 0.0364875197 -0.00279769301 1.08991766
v 0.0364875197 -0.12585026 1.60933614
v 0.0364875197 -0.12585026 1.60933614
v 0.0364875197 -0.00279769301 1.08991766
v 0.0364875197 -0.0738072395 1.07309508
v 0.0364875197 -0.196859807 1.59251356
v 0.0364875197 -0.196859807 1.59251356
v 0.0364875197 -0.0738072395 1.07309508
v -0.0364875197 -0.0738072395 1.07309508
v -0.0364875197 -0.196859807 1.59251356
v -0.323810458 -0.251929283 1.66306317
v -0.323810458 -0.217899203 1.51941824
v -0.323810458 -0.0742542148 1.55344844
v -0.323810458 -0.108284295 1.69709325
v -0.323810458 -0.108284295 1.69709325
v -0.323810458 -0.0742542148 1.55344844
v -0.176189572 -0.0742542148 1.55344844
v -0.176189572 -0.108284295 1.69709325
v -0.176189572 -0.108284295 1.69709325
v -0.176189572 -0.0742542148 1.55344844
v -0.176189572 -0.217899203 1.51941824
v -0.176189572 -0.251929283 1.66306317
v -0.176189572 -0.251929283 1.66306317
v -0.176189572 -0.217899203 1.51941824
v -0.323810458 -0.217899203 1.51941824
v -0.323810458 -0.251929283 1.66306317
v -0.323810458 -0.217899203 1.51941824
v -0.176189572 -0.217899203 1.51941824
v -0.176189572 -0.0742542148 1.55344844
v -0.323810458 -0.0742542148 1.55344844
v -0.176189572 -0.251929283 1.66306317
v -0.323810458 -0.251929283 1.66306317
v -0.323810458 -0.108284295 1.69709325
v -0.176189572 -0.108284295 1.69709325
v -0.28648752 -0.196859807 1.59251356
v -0.28648752 -0.0738072395 1.07309508
v -0.28648752 -0.00279769301 1.08991766
v -0.28648752 -0.12585026 1.60933614
v -0.28648752 -0.12585026 1.60933614
v -0.28648752 -0.00279769301 1.08991766
v -0.21351248 -0.00279769301 1.08991766
v -0.21351248 -0.12585026 1.60933614
v -0.21351248 -0.12585026 1.60933614
v -0.21351248 -0.00279769301 1.08991766
v -0.21351248 -0.0738072395 1.07309508
v -0.21351248 -0.196859807 1.59251356
v -0.21351248 -0.196859807 1.59251356
v -0.21351248 -0.0738072395 1.07309508
v -0.28648752 -0.0738072395 1.07309508
v -0.28648752 -0.196859807 1.59251356
v 0.500000179 0.349999815 1
v 0.499999672 -0.350000173 1.25
v -0.500000238 -0.349999934 1.25
v -0.49999997 0.349999994 1
v 0.49999997 0.349999934 0
v 0.49999997 -0.349999994 0
v 0.499999672 -0.350000173 1.25
v 0.500000179 0.349999815 1
v 0.49999997 -0.349999994 0
v -0.500000119 -0.349999934 0
v -0.500000238 -0.349999934 1.25
v 0.499999672 -0.350000173 1.25
v -0.500000119 -0.349999934 0
v -0.499999821 0.350000054 0
v -0.49999997 0.349999994 1
v -0.500000238 -0.349999934 1.25
v 0.500000179 0.349999815 1
v -0.49999997 0.349999994 1
v -0.499999821 0.350000054 0
v 0.49999997 0.349999934 0
vt 0.688165247 0.720631599
vt 0.688165247 0.792925835
vt 0.760459483 0.792925835
vt 0.760459483 0.720631599
vt 0.688165247 0.720631599
vt 0.688165247 0.792925835
vt 0.760459483 0.792925835
vt 0.760459483 0.720631599
vt 0.688165247 0.720631599
vt 0.688165247 0.792925835
vt 0.760459483 0.792925835
vt 0.760459483 0.720631599
vt 0.688165247 0.720631599
vt 0.688165247 0.792925835
vt 0.760459483 0.792925835
vt 0.760459483 0.720631599
vt 0.688165247 0.720631599
vt 0.688165247 0.792925835
vt 0.760459483 0.792925835
vt 0.760459483 0.720631599
vt 0.688165247 0.720631599
vt 0.688165247 0.792925835
vt 0.760459483 0.792925835
vt 0.760459483 0.720631599
vt 0.702922642 0.183462366
vt 0.702922642 0.255756617
vt 0.775216877 0.255756617
vt 0.775216877 0.183462366
vt 0.702922642 0.183462366
vt 0.702922642 0.255756617
vt 0.775216877 0.255756617
vt 0.775216877 0.183462366
vt 0.702922642 0.183462366
vt 0.702922642 0.255756617
vt 0.775216877 0.255756617
vt 0.775216877 0.183462366
vt 0.702922642 0.183462366
vt 0.702922642 0.255756617
vt 0.775216877 0.255756617
vt 0.775216877 0.183462366
vt 0.688165247 0.720631599
vt 0.688165247 0.792925835
vt 0.760459483 0.792925835
vt 0.760459483 0.720631599
vt 0.688165247 0.720631599
vt 0.688165247 0.792925835
vt 0.760459483 0.792925835
vt 0.760459483 0.720631599
vt 0.688165247 0.720631599
vt 0.688165247 0.792925835
vt 0.760459483 0.792925835
vt 0.760459483 0.720631599
vt 0.688165247 0.720631599
vt 0.688165247 0.792925835
vt 0.760459483 0.792925835
vt 0.760459483 0.720631599
vt 0.688165247 0.720631599
vt 0.688165247 0.792925835
vt 0.760459483 0.792925835
vt 0.760459483 0.720631599
vt 0.688165247 0.720631599
vt 0.688165247 0.792925835
vt 0.760459483 0.792925835
vt 0.760459483 0.720631599
vt 0.702922642 0.183462366
vt 0.702922642 0.255756617
vt 0.775216877 0.255756617
vt 0.775216877 0.183462366
vt 0.702922642 0.183462366
vt 0.702922642 0.255756617
vt 0.775216877 0.255756617
vt 0.775216877 0.183462366
vt 0.702922642 0.183462366
vt 0.702922642 0.255756617
vt 0.775216877 0.255756617
vt 0.775216877 0.183462366
vt 0.702922642 0.183462366
vt 0.702922642 0.255756617
vt 0.775216877 0.255756617
vt 0.775216877 0.183462366
vt 0.688165247 0.720631599
vt 0.688165247 0.792925835
vt 0.760459483 0.792925835
vt 0.760459483 0.720631599
vt 0.688165247 0.720631599
vt 0.688165247 0.792925835
vt 0.760459483 0.792925835
vt 0.760459483 0.720631599
vt 0.688165247 0.720631599
vt 0.688165247 0.792925835
vt 0.760459483 0.792925835
vt 0.760459483 0.720631599
vt 0.688165247 0.720631599
vt 0.688165247 0.792925835
vt 0.760459483 0.792925835
vt 0.760459483 0.720631599
vt 0.688165247 0.720631599
vt 0.688165247 0.792925835
vt 0.760459483 0.792925835
vt 0.760459483 0.720631599
vt 0.688165247 0.720631599
vt 0.688165247 0.792925835
vt 0.760459483 0.792925835
vt 0.760459483 0.720631599
vt 0.702922642 0.183462366
vt 0.702922642 0.255756617
vt 0.775216877 0.255756617
vt 0.775216877 0.183462366
vt 0.702922642 0.183462366
vt 0.702922642 0.255756617
vt 0.775216877 0.255756617
vt 0.775216877 0.183462366
vt 0.702922642 0.183462366
vt 0.702922642 0.255756617
vt 0.775216877 0.255756617
vt 0.775216877 0.183462366
vt 0.702922642 0.183462366
vt 0.702922642 0.255756617
vt 0.775216877 0.255756617
vt 0.775216877 0.183462366
vt 0.319698185 0.799496412
vt 0.353908628 0.799496412
vt 0.353908628 0.748180807
vt 0.319698244 0.748180807
vt 0.250593156 0.74766767
vt 0.284803569 0.747667611
vt 0.284803569 0.696352005
vt 0.250593156 0.696352005
vt 0.2851457 0.74766767
vt 0.319356114 0.747667611
vt 0.319356114 0.696352005
vt 0.28514567 0.696352005
vt 0.319698185 0.696352005
vt 0.319698185 0.74766767
vt 0.353908628 0.74766767
vt 0.353908628 0.696352005
vt 0.28514567 0.748180807
vt 0.2851457 0.799496412
vt 0.319356114 0.799496412
vt 0.319356114 0.748180807
vn -1 0 0
vn -1 0 0
vn -1 0 0
vn -1 0 0
vn -0 0.442421854 -0.896807015
vn -0 0.442421854 -0.896807015
vn -0 0.442421854 -0.896807015
vn -0 0.442421854 -0.896807015
vn 1 0 0
vn 1 0 0
vn 1 0 0
vn 1 0 0
vn -0 -0.442421138 0.896807373
vn -0 -0.442421138 0.896807373
vn -0 -0.442421138 0.896807373
vn -0 -0.442421138 0.896807373
vn -0 -0.896807373 -0.442421257
vn -0 -0.896807373 -0.442421257
vn -0 -0.896807373 -0.442421257
vn -0 -0.896807373 -0.442421257
vn -0 0.896807313 0.442421407
vn -0 0.896807313 0.442421407
vn -0 0.896807313 0.442421407
vn -0 0.896807313 0.442421407
vn -1 0 0
vn -1 0 0
vn -1 0 0
vn -1 0 0
vn -0 0.442421585 -0.896807194
vn -0 0.442421585 -0.896807194
vn -0 0.442421585 -0.896807194
vn -0 0.442421585 -0.896807194
vn 1 0 0
vn 1 0 0
vn 1 0 0
vn 1 0 0
vn -0 -0.442421526 0.896807194
vn -0 -0.442421526 0.896807194
vn -0 -0.442421526 0.896807194
vn -0 -0.442421526 0.896807194
vn -1 0 0
vn -1 0 0
vn -1 0 0
vn -1 0 0
vn -0 0.973066747 0.23052372
vn -0 0.973066747 0.23052372
vn -0 0.973066747 0.23052372
vn -0 0.973066747 0.23052372
vn 1 0 0
vn 1 0 0
vn 1 0 0
vn 1 0 0
vn -0 -0.973066747 -0.230523542
vn -0 -0.973066747 -0.230523542
vn -0 -0.973066747 -0.230523542
vn -0 -0.973066747 -0.230523542
vn -0 0.230524197 -0.973066509
vn -0 0.230524197 -0.973066509
vn -0 0.230524197 -0.973066509
vn -0 0.230524197 -0.973066509
vn -0 -0.230523437 0.973066747
vn -0 -0.230523437 0.973066747
vn -0 -0.230523437 0.973066747
vn -0 -0.230523437 0.973066747
vn -1 0 0
vn -1 0 0
vn -1 0 0
vn -1 0 0
vn -0 0.973066628 0.230523854
vn -0 0.973066628 0.230523854
vn -0 0.973066628 0.230523854
vn -0 0.973066628 0.230523854
vn 1 0 0
vn 1 0 0
vn 1 0 0
vn 1 0 0
vn -0 -0.973066628 -0.230523854
vn -0 -0.973066628 -0.230523854
vn -0 -0.973066628 -0.230523854
vn -0 -0.973066628 -0.230523854
vn -1 0 0
vn -1 0 0
vn -1 0 0
vn -1 0 0
vn -0 0.973066628 0.23052372
vn -0 0.973066628 0.23052372
vn -0 0.973066628 0.23052372
vn -0 0.973066628 0.23052372
vn 1 0 0
vn 1 0 0
vn 1 0 0
vn 1 0 0
vn -0 -0.973066747 -0.230523556
vn -0 -0.973066747 -0.230523556
vn -0 -0.973066747 -0.230523556
vn -0 -0.973066747 -0.230523556
vn -0 0.230524197 -0.973066509
vn -0 0.230524197 -0.973066509
vn -0 0.230524197 -0.973066509
vn -0 0.230524197 -0.973066509
vn -0 -0.230523452 0.973066747
vn -0 -0.230523452 0.973066747
vn -0 -0.230523452 0.973066747
vn -0 -0.230523452 0.973066747
vn -1 0 0
vn -1 0 0
vn -1 0 0
vn -1 0 0
vn -0 0.973066628 0.230523854
vn -0 0.973066628 0.230523854
vn -0 0.973066628 0.230523854
vn -0 0.973066628 0.230523854
vn 1 0 0
vn 1 0 0
vn 1 0 0
vn 1 0 0
vn -0 -0.973066628 -0.230523854
vn -0 -0.973066628 -0.230523854
vn -0 -0.973066628 -0.230523854
vn -0 -0.973066628 -0.230523854
vn -0 0.336336374 0.941741943
vn -0 0.336336374 0.941741943
vn -0 0.336336374 0.941741943
vn -0 0.336336374 0.941741943
vn 1 0 0
vn 1 0 0
vn 1 0 0
vn 1 0 0
vn -0 -1 0
vn -0 -1 0
vn -0 -1 0
vn -0 -1 0
vn -1 0 0
vn -1 0 0
vn -1 0 0
vn -1 0 0
vn -0 1 0
vn -0 1 0
vn -0 1 0
vn -0 1 0
g Model_0_0
f 3/3/3 2/2/2 1/1/1
f 4/4/4 3/3/3 1/1/1
f 7/7/7 6/6/6 5/5/5
f 8/8/8 7/7/7 5/5/5
f 11/11/11 10/10/10 9/9/9
f 12/12/12 11/11/11 9/9/9
f 15/15/15 14/14/14 13/13/13
f 16/16/16 15/15/15 13/13/13
f 19/19/19 18/18/18 17/17/17
f 20/20/20 19/19/19 17/17/17
f 23/23/23 22/22/22 21/21/21
f 24/24/24 23/23/23 21/21/21
f 27/27/27 26/26/26 25/25/25
f 28/28/28 27/27/27 25/25/25
f 31/31/31 30/30/30 29/29/29
f 32/32/32 31/31/31 29/29/29
f 35/35/35 34/34/34 33/33/33
f 36/36/36 35/35/35 33/33/33
f 39/39/39 38/38/38 37/37/37
f 40/40/40 39/39/39 37/37/37
f 43/43/43 42/42/42 41/41/41
f 44/44/44 43/43/43 41/41/41
f 47/47/47 46/46/46 45/45/45
f 48/48/48 47/47/47 45/45/45
f 51/51/51 50/50/50 49/49/49
f 52/52/52 51/51/51 49/49/49
f 55/55/55 54/54/54 53/53/53
f 56/56/56 55/55/55 53/53/53
f 59/59/59 58/58/58 57/57/57
f 60/60/60 59/59/59 57/57/57
f 63/63/63 62/62/62 61/61/61
f 64/64/64 63/63/63 61/61/61
f 67/67/67 66/66/66 65/65/65
f 68/68/68 67/67/67 65/65/65
f 71/71/71 70/70/70 69/69/69
f 72/72/72 71/71/71 69/69/69
f 75/75/75 74/74/74 73/73/73
f 76/76/76 75/75/75 73/73/73
f 79/79/79 78/78/78 77/77/77
f 80/80/80 79/79/79 77/77/77
f 83/83/83 82/82/82 81/81/81
f 84/84/84 83/83/83 81/81/81
f 87/87/87 86/86/86 85/85/85
f 88/88/88 87/87/87 85/85/85
f 91/91/91 90/90/90 89/89/89
f 92/92/92 91/91/91 89/89/89
f 95/95/95 94/94/94 93/93/93
f 96/96/96 95/95/95 93/93/93
f 99/99/99 98/98/98 97/97/97
f 100/100/100 99/99/99 97/97/97
f 103/103/103 102/102/102 101/101/101
f 104/104/104 103/103/103 101/101/101
f 107/107/107 106/106/106 105/105/105
f 108/108/108 107/107/107 105/105/105
f 111/111/111 110/110/110 109/109/109
f 112/112/112 111/111/111 109/109/109
f 115/115/115 114/114/114 113/113/113
f 116/116/116 115/115/115 113/113/113
f 119/119/119 118/118/118 117/117/117
f 120/120/120 119/119/119 117/117/117
f 123/123/123 122/122/122 121/121/121
f 124/124/124 123/123/123 121/121/121
f 127/127/127 126/126/126 125/125/125
f 128/128/128 127/127/127 125/125/125
f 131/131/131 130/130/130 129/129/129
f 132/132/132 131/131/131 129/129/129
f 135/135/135 134/134/134 133/133/133
f 136/136/136 135/135/135 133/133/133
f 139/139/139 138/138/138 137/137/137
f 140/140/140 139/139/139 137/137/137
