g Model_0
v 0.75 0.5 0
v -0.75 0.5 0
v -0.75 -0.5 0
v 0.75 -0.5 0
v 0.75 0.5 2.5
v 0.749998987 -0.5 2.5
v -0.75 -0.5 2.5
v -0.75 0.5 2.5
v 0.75 0.5 0
v 0.75 -0.5 0
v 0.749998987 -0.5 2.5
v 0.75 0.5 2.5
v 0.75 -0.5 0
v -0.75 -0.5 0
v -0.75 -0.5 2.5
v 0.749998987 -0.5 2.5
v -0.75 -0.5 0
v -0.75 0.5 0
v -0.75 0.5 2.5
v -0.75 -0.5 2.5
v -0.625 0.5 2.375
v -0.625 -0.400000006 2.375
v 0.625 -0.400000006 2.375
v 0.625 0.5 2.375
v 0.625 -0.400000006 2.375
v -0.625 -0.400000006 2.375
v -0.625 -0.400000006 0.125
v 0.625 -0.400000006 0.125
v -0.625 0.5 0.125
v -0.625 -0.400000006 0.125
v -0.625 -0.400000006 2.375
v -0.625 0.5 2.375
v 0.625 0.5 2.375
v 0.625 -0.400000006 2.375
v 0.625 -0.400000006 0.125
v 0.625 0.5 0.125
v 0.625 0.5 0.125
v 0.625 -0.400000006 0.125
v -0.625 -0.400000006 0.125
v -0.625 0.5 0.125
v -0.692260027 0.435983002 1.29999995
v -0.692260027 0.435983002 1.20000005
v 0.692260027 0.435983002 1.20000005
v 0.692260027 0.435983002 1.29999995
v -0.692260027 -0.435983002 1.20000005
v 0.692260027 -0.435983002 1.20000005
v 0.692260027 0.435983002 1.20000005
v -0.692260027 0.435983002 1.20000005
v 0.692260027 -0.435983002 1.29999995
v -0.692260027 -0.435983002 1.29999995
v -0.692260027 0.435983002 1.29999995
v 0.692260027 0.435983002 1.29999995
v -0.692260027 0.435983002 0.675000012
v -0.692260027 0.435983002 0.574999988
v 0.692260027 0.435983002 0.574999988
v 0.692260027 0.435983002 0.675000012
v -0.692260027 -0.435983002 0.574999988
v 0.692260027 -0.435983002 0.574999988
v 0.692260027 0.435983002 0.574999988
v -0.692260027 0.435983002 0.574999988
v 0.692260027 -0.435983002 0.675000012
v -0.692260027 -0.435983002 0.675000012
v -0.692260027 0.435983002 0.675000012
v 0.692260027 0.435983002 0.675000012
v -0.692260027 0.435983002 1.92499995
v -0.692260027 0.435983002 1.82500005
v 0.692260027 0.435983002 1.82500005
v 0.692260027 0.435983002 1.92499995
v -0.692260027 -0.435983002 1.82500005
v 0.692260027 -0.435983002 1.82500005
v 0.692260027 0.435983002 1.82500005
v -0.692260027 0.435983002 1.82500005
v 0.692260027 -0.435983002 1.92499995
v -0.692260027 -0.435983002 1.92499995
v -0.692260027 0.435983002 1.92499995
v 0.692260027 0.435983002 1.92499995
v 0.75 0.5 2.5
v 0.625 0.5 0.125
v 0.75 0.5 0
v 0.625 0.5 2.375
v -0.625 0.5 0.125
v -0.75 0.5 2.5
v -0.75 0.5 0
v -0.625 0.5 2.375
vt 0.359185994 0.423878014
vt 0.359185994 0.463867992
vt 0.385096014 0.463867992
vt 0.385096014 0.423878014
vt 0.343638986 0.402550995
vt 0.36954999 0.402550995
vt 0.36954999 0.362560987
vt 0.343638986 0.362560987
vt 0.335866004 0.423878014
vt 0.309956014 0.423878014
vt 0.309956014 0.490527004
vt 0.335866004 0.490527004
vt 0.219332993 0.498187989
vt 0.180466995 0.498187989
vt 0.180466995 0.564836979
vt 0.219332993 0.564836025
vt 0.309956014 0.429210007
vt 0.284045011 0.429210007
vt 0.284045011 0.495858997
vt 0.309956014 0.495858997
vt 0.686264992 0.191349
vt 0.693316996 0.191349
vt 0.693316996 0.180868998
vt 0.686264992 0.180868998
vt 0.802082002 0.239031002
vt 0.791896999 0.239031002
vt 0.791896999 0.257571995
vt 0.802082002 0.257571995
vt 0.652576029 0.177769005
vt 0.65962702 0.177769005
vt 0.65962702 0.159227997
vt 0.652576029 0.159227997
vt 0.686264992 0.157616004
vt 0.679214001 0.157616004
vt 0.679214001 0.176156998
vt 0.686264992 0.176156998
vt 0.700147986 0.170388997
vt 0.693096995 0.170388997
vt 0.693096995 0.180868998
vt 0.700147986 0.180868998
vt 0.680022001 0.796685994
vt 0.682613015 0.796685994
vt 0.682613015 0.759775996
vt 0.680022001 0.759775996
vt 0.78034699 0.831344008
vt 0.78034699 0.794432998
vt 0.757753015 0.794432998
vt 0.757753015 0.831344008
vt 0.731115997 0.85800302
vt 0.731115997 0.821093023
vt 0.708522975 0.821093023
vt 0.708522975 0.85800302
vt 0.630792022 0.796685994
vt 0.633382976 0.796685994
vt 0.633382976 0.759775996
vt 0.630792022 0.759775996
vt 0.790710986 0.733115971
vt 0.790710986 0.69620502
vt 0.768118024 0.69620502
vt 0.768118024 0.733115971
vt 0.669656992 0.85800302
vt 0.669656992 0.821093023
vt 0.647063971 0.821093023
vt 0.647063971 0.85800302
vt 0.669656992 0.796685994
vt 0.672248006 0.796685994
vt 0.672248006 0.759775996
vt 0.669656992 0.759775996
vt 0.75702697 0.852671981
vt 0.75702697 0.81576103
vt 0.734434009 0.81576103
vt 0.734434009 0.852671981
vt 0.708522975 0.863335013
vt 0.708522975 0.826425016
vt 0.685930014 0.826425016
vt 0.685930014 0.863335013
vt 0.309956014 0.362560987
vt 0.307365 0.426544011
vt 0.309956014 0.429210007
vt 0.307365 0.365227014
vt 0.273681015 0.426544011
vt 0.271090001 0.362560987
vt 0.271090001 0.429210007
vt 0.273681015 0.365227014
vn -0 0 -1
vn -0 0 -1
vn -0 0 -1
vn -0 0 -1
vn -0 0 1
vn -0 0 1
vn -0 0 1
vn -0 0 1
vn 1 0 0
vn 1 0 0
vn 1 0 0
vn 1 0 0
vn -0 -1 0
vn -0 -1 0
vn -0 -1 0
vn -0 -1 0
vn -1 0 0
vn -1 0 0
vn -1 0 0
vn -1 0 0
vn -0 0 -1
vn -0 0 -1
vn -0 0 -1
vn -0 0 -1
vn -0 1 0
vn -0 1 0
vn -0 1 0
vn -0 1 0
vn 1 0 0
vn 1 0 0
vn 1 0 0
vn 1 0 0
vn -1 0 0
vn -1 0 0
vn -1 0 0
vn -1 0 0
vn -0 0 1
vn -0 0 1
vn -0 0 1
vn -0 0 1
vn -0 1 0
vn -0 1 0
vn -0 1 0
vn -0 1 0
vn -0 0 -1
vn -0 0 -1
vn -0 0 -1
vn -0 0 -1
vn -0 0 1
vn -0 0 1
vn -0 0 1
vn -0 0 1
vn -0 1 0
vn -0 1 0
vn -0 1 0
vn -0 1 0
vn -0 0 -1
vn -0 0 -1
vn -0 0 -1
vn -0 0 -1
vn -0 0 1
vn -0 0 1
vn -0 0 1
vn -0 0 1
vn -0 1 0
vn -0 1 0
vn -0 1 0
vn -0 1 0
vn -0 0 -1
vn -0 0 -1
vn -0 0 -1
vn -0 0 -1
vn -0 0 1
vn -0 0 1
vn -0 0 1
vn -0 0 1
vn -0 1 0
vn -0 1 0
vn -0 1 0
vn -0 1 0
vn -0 1 0
vn -0 1 0
vn -0 1 0
vn -0 1 0
g Model_0_0
f 3/3/3 2/2/2 1/1/1
f 4/4/4 3/3/3 1/1/1
f 7/7/7 6/6/6 5/5/5
f 8/8/8 7/7/7 5/5/5
f 11/11/11 10/10/10 9/9/9
f 12/12/12 11/11/11 9/9/9
f 15/15/15 14/14/14 13/13/13
f 16/16/16 15/15/15 13/13/13
f 19/19/19 18/18/18 17/17/17
f 20/20/20 19/19/19 17/17/17
f 23/23/23 22/22/22 21/21/21
f 24/24/24 23/23/23 21/21/21
f 27/27/27 26/26/26 25/25/25
f 28/28/28 27/27/27 25/25/25
f 31/31/31 30/30/30 29/29/29
f 32/32/32 31/31/31 29/29/29
f 35/35/35 34/34/34 33/33/33
f 36/36/36 35/35/35 33/33/33
f 39/39/39 38/38/38 37/37/37
f 40/40/40 39/39/39 37/37/37
f 43/43/43 42/42/42 41/41/41
f 44/44/44 43/43/43 41/41/41
f 47/47/47 46/46/46 45/45/45
f 48/48/48 47/47/47 45/45/45
f 51/51/51 50/50/50 49/49/49
f 52/52/52 51/51/51 49/49/49
f 55/55/55 54/54/54 53/53/53
f 56/56/56 55/55/55 53/53/53
f 59/59/59 58/58/58 57/57/57
f 60/60/60 59/59/59 57/57/57
f 63/63/63 62/62/62 61/61/61
f 64/64/64 63/63/63 61/61/61
f 67/67/67 66/66/66 65/65/65
f 68/68/68 67/67/67 65/65/65
f 71/71/71 70/70/70 69/69/69
f 72/72/72 71/71/71 69/69/69
f 75/75/75 74/74/74 73/73/73
f 76/76/76 75/75/75 73/73/73
f 79/79/79 78/78/78 77/77/77
f 78/78/78 80/80/80 77/77/77
f 81/81/81 78/78/78 79/79/79
f 77/77/77 80/80/80 82/82/82
f 83/83/83 81/81/81 79/79/79
f 80/80/80 84/84/84 82/82/82
f 84/84/84 81/81/81 83/83/83
f 82/82/82 84/84/84 83/83/83
