v 1.100001 -0.749999 0.750000
v 1.100001 -0.749999 0.000000
v 0.600001 -0.749999 0.000000
v 0.600001 -0.749999 0.750000
v 1.100001 -0.749999 1.500000
v -0.599999 -0.750001 0.000000
v 0.600001 -0.749999 1.500000
v -0.599999 -0.750001 0.750000
v -1.099999 -0.750001 0.000000
v -0.599999 -0.750001 1.500000
v -1.099999 -0.750001 0.750000
v -1.099999 -0.750001 1.500000
v -1.100001 0.749999 0.750000
v -1.100001 0.749999 0.000000
v -0.600001 0.749999 0.000000
v -0.600001 0.749999 0.750000
v -1.100001 0.749999 1.500000
v -0.600001 0.749999 1.500000
v 0.599999 0.750001 0.000000
v 0.599999 0.750001 0.750000
v 1.099999 0.750001 0.000000
v 1.099999 0.750001 0.750000
v 0.599999 0.750001 1.500000
v 1.099999 0.750001 1.500000
v 1.100000 -0.250000 0.000000
v 1.099999 0.750001 0.000000
v 0.599999 0.750001 0.000000
v 0.600000 -0.250000 0.000000
v 1.100001 -0.749999 0.000000
v -0.600001 0.749999 0.000000
v 0.600001 -0.749999 0.000000
v -0.600000 -0.250002 0.000000
v -1.100001 0.749999 0.000000
v -0.599999 -0.750001 0.000000
v -1.100000 -0.250002 0.000000
v -1.099999 -0.750001 0.000000
v 0.599999 0.750001 0.750000
v 0.599999 0.750001 1.500000
v 0.600000 -0.250000 1.500000
v 0.600000 -0.250000 0.750000
v -1.099999 -0.750001 0.750000
v -1.099999 -0.750001 0.000000
v -1.100000 -0.250002 0.000000
v -1.100000 -0.250002 0.750000
v -1.099999 -0.750001 1.500000
v -1.100001 0.749999 0.000000
v -1.100000 -0.250002 1.500000
v -1.100001 0.749999 0.750000
v -1.100001 0.749999 1.500000
v 1.099999 0.750001 0.750000
v 1.099999 0.750001 0.000000
v 1.100000 -0.250000 0.000000
v 1.100000 -0.250000 0.750000
v 1.099999 0.750001 1.500000
v 1.100001 -0.749999 0.000000
v 1.100000 -0.250000 1.500000
v 1.100001 -0.749999 0.750000
v 1.100001 -0.749999 1.500000
v -0.600000 -0.250002 0.750000
v -0.600000 -0.250002 1.500000
v -0.600001 0.749999 1.500000
v -0.600001 0.749999 0.750000
v 0.600000 -0.250000 0.750000
v 0.600000 -0.250000 1.500000
v -0.600000 -0.250002 1.500000
v -0.600000 -0.250002 0.750000
v 0.599999 0.750001 0.750000
v 0.600000 -0.250000 0.750000
v -0.600000 -0.250002 0.750000
v -0.600001 0.749999 0.750000
v 1.100000 -0.250000 1.500000
v 1.100001 -0.749999 1.500000
v 0.600001 -0.749999 1.500000
v 0.600000 -0.250000 1.500000
v 1.099999 0.750001 1.500000
v 0.599999 0.750001 1.500000
v -0.599999 -0.750001 1.500000
v -0.600000 -0.250002 1.500000
v -1.099999 -0.750001 1.500000
v -1.100000 -0.250002 1.500000
v -0.600001 0.749999 1.500000
v -1.100001 0.749999 1.500000
vt 0.759172022 0.481866002
vt 0.736784995 0.481866002
vt 0.736784995 0.495546997
vt 0.759172022 0.495546997
vt 0.78155899 0.481866002
vt 0.736784995 0.550271988
vt 0.78155899 0.495546997
vt 0.759172022 0.550271988
vt 0.736784995 0.563952982
vt 0.78155899 0.550271988
vt 0.759172022 0.563952982
vt 0.78155899 0.563952982
vt 0.714398026 0.563952982
vt 0.736784995 0.563952982
vt 0.736784995 0.550271988
vt 0.714398026 0.550271988
vt 0.692009985 0.563952982
vt 0.692009985 0.550271988
vt 0.736784995 0.495546997
vt 0.714398026 0.495546997
vt 0.736784995 0.481866002
vt 0.714398026 0.481866002
vt 0.692009985 0.495546997
vt 0.692009985 0.481866002
vt 0.677085996 0.399780005
vt 0.64723599 0.399780005
vt 0.64723599 0.413461
vt 0.677085996 0.413461
vt 0.692009985 0.399780005
vt 0.64723599 0.468185008
vt 0.692009985 0.413461
vt 0.677085996 0.468185008
vt 0.64723599 0.481866002
vt 0.692009985 0.468185008
vt 0.677085996 0.481866002
vt 0.692009985 0.481866002
vt 0.714398026 0.413461
vt 0.692009985 0.413461
vt 0.692009985 0.440822989
vt 0.714398026 0.440822989
vt 0.714398026 0.440822989
vt 0.692009985 0.440822989
vt 0.692009985 0.454504013
vt 0.714398026 0.454504013
vt 0.736784995 0.440822989
vt 0.692009985 0.481866002
vt 0.736784995 0.454504013
vt 0.714398026 0.481866002
vt 0.736784995 0.481866002
vt 0.759172022 0.440822989
vt 0.736784995 0.440822989
vt 0.736784995 0.468185008
vt 0.759172022 0.468185008
vt 0.78155899 0.440822989
vt 0.736784995 0.481866002
vt 0.78155899 0.468185008
vt 0.759172022 0.481866002
vt 0.78155899 0.481866002
vt 0.759172022 0.440822989
vt 0.78155899 0.440822989
vt 0.78155899 0.413461
vt 0.759172022 0.413461
vt 0.624849021 0.53658998
vt 0.64723599 0.53658998
vt 0.64723599 0.481866002
vt 0.624849021 0.481866002
vt 0.617385983 0.481866002
vt 0.64723599 0.481866002
vt 0.64723599 0.427141994
vt 0.617385983 0.427141994
vt 0.677085996 0.563952982
vt 0.692009985 0.563952982
vt 0.692009985 0.550271988
vt 0.677085996 0.550271988
vt 0.64723599 0.563952982
vt 0.64723599 0.550271988
vt 0.692009985 0.495546997
vt 0.677085996 0.495546997
vt 0.692009985 0.481866002
vt 0.677085996 0.481866002
vt 0.64723599 0.495546997
vt 0.64723599 0.481866002
vn 0.000000 -1.000000 -0.000000
vn 0.000000 -1.000000 -0.000000
vn 0.000000 -1.000000 -0.000000
vn 0.000000 -1.000000 -0.000000
vn 0.000000 -1.000000 -0.000000
vn 0.000000 -1.000000 -0.000000
vn 0.000000 -1.000000 -0.000000
vn 0.000000 -1.000000 -0.000000
vn 0.000000 -1.000000 -0.000000
vn 0.000000 -1.000000 -0.000000
vn 0.000000 -1.000000 -0.000000
vn 0.000000 -1.000000 -0.000000
vn 0.000000 1.000000 0.000000
vn 0.000000 1.000000 0.000000
vn 0.000000 1.000000 0.000000
vn 0.000000 1.000000 0.000000
vn 0.000000 1.000000 0.000000
vn 0.000000 1.000000 0.000000
vn 0.000000 1.000000 0.000000
vn 0.000000 1.000000 0.000000
vn 0.000000 1.000000 0.000000
vn 0.000000 1.000000 0.000000
vn 0.000000 1.000000 0.000000
vn 0.000000 1.000000 0.000000
vn 0.000000 0.000000 -1.000000
vn 0.000000 0.000000 -1.000000
vn 0.000000 0.000000 -1.000000
vn 0.000000 0.000000 -1.000000
vn 0.000000 0.000000 -1.000000
vn 0.000000 0.000000 -1.000000
vn 0.000000 0.000000 -1.000000
vn 0.000000 0.000000 -1.000000
vn 0.000000 0.000000 -1.000000
vn 0.000000 0.000000 -1.000000
vn 0.000000 0.000000 -1.000000
vn 0.000000 0.000000 -1.000000
vn -1.000000 0.000000 0.000000
vn -1.000000 0.000000 0.000000
vn -1.000000 0.000000 0.000000
vn -1.000000 0.000000 0.000000
vn -1.000000 0.000000 0.000000
vn -1.000000 0.000000 0.000000
vn -1.000000 0.000000 0.000000
vn -1.000000 0.000000 0.000000
vn -1.000000 0.000000 0.000000
vn -1.000000 0.000000 0.000000
vn -1.000000 0.000000 0.000000
vn -1.000000 0.000000 0.000000
vn -1.000000 0.000000 0.000000
vn 1.000000 0.000000 0.000000
vn 1.000000 0.000000 0.000000
vn 1.000000 0.000000 0.000000
vn 1.000000 0.000000 0.000000
vn 1.000000 0.000000 0.000000
vn 1.000000 0.000000 0.000000
vn 1.000000 0.000000 0.000000
vn 1.000000 0.000000 0.000000
vn 1.000000 0.000000 0.000000
vn 1.000000 0.000000 0.000000
vn 1.000000 0.000000 0.000000
vn 1.000000 0.000000 0.000000
vn 1.000000 0.000000 0.000000
vn 0.000000 1.000000 0.000000
vn 0.000000 1.000000 0.000000
vn 0.000000 1.000000 0.000000
vn 0.000000 1.000000 0.000000
vn 0.000000 -0.000000 1.000000
vn 0.000000 -0.000000 1.000000
vn 0.000000 -0.000000 1.000000
vn 0.000000 -0.000000 1.000000
vn 0.000000 -0.000000 1.000000
vn 0.000000 -0.000000 1.000000
vn 0.000000 -0.000000 1.000000
vn 0.000000 -0.000000 1.000000
vn 0.000000 -0.000000 1.000000
vn 0.000000 -0.000000 1.000000
vn 0.000000 -0.000000 1.000000
vn 0.000000 -0.000000 1.000000
vn 0.000000 -0.000000 1.000000
vn 0.000000 -0.000000 1.000000
vn 0.000000 -0.000000 1.000000
vn 0.000000 -0.000000 1.000000
f 3/3/3 2/2/2 1/1/1
f 4/4/4 3/3/3 1/1/1
f 1/1/1 5/5/5 4/4/4
f 6/6/6 3/3/3 4/4/4
f 5/5/5 7/7/7 4/4/4
f 8/8/8 6/6/6 4/4/4
f 4/4/4 7/7/7 8/8/8
f 9/9/9 6/6/6 8/8/8
f 7/7/7 10/10/10 8/8/8
f 11/11/11 9/9/9 8/8/8
f 8/8/8 10/10/10 11/11/11
f 10/10/10 12/12/12 11/11/11
f 15/15/15 14/14/14 13/13/13
f 16/16/16 15/15/15 13/13/13
f 13/13/13 17/17/17 16/16/16
f 17/17/17 18/18/18 16/16/16
f 19/19/19 15/15/15 16/16/16
f 20/20/20 19/19/19 16/16/16
f 21/21/21 19/19/19 20/20/20
f 22/22/22 21/21/21 20/20/20
f 20/20/20 23/23/23 22/22/22
f 23/23/23 24/24/24 22/22/22
f 27/27/27 26/26/26 25/25/25
f 28/28/28 27/27/27 25/25/25
f 28/28/28 25/25/25 29/29/29
f 30/30/30 27/27/27 28/28/28
f 31/31/31 28/28/28 29/29/29
f 32/32/32 30/30/30 28/28/28
f 32/32/32 28/28/28 31/31/31
f 33/33/33 30/30/30 32/32/32
f 34/34/34 32/32/32 31/31/31
f 35/35/35 33/33/33 32/32/32
f 35/35/35 32/32/32 34/34/34
f 36/36/36 35/35/35 34/34/34
f 39/39/39 38/38/38 37/37/37
f 40/40/40 39/39/39 37/37/37
f 43/43/43 42/42/42 41/41/41
f 44/44/44 43/43/43 41/41/41
f 41/41/41 45/45/45 44/44/44
f 46/46/46 43/43/43 44/44/44
f 45/45/45 47/47/47 44/44/44
f 48/48/48 46/46/46 44/44/44
f 44/44/44 47/47/47 48/48/48
f 47/47/47 49/49/49 48/48/48
f 52/52/52 51/51/51 50/50/50
f 53/53/53 52/52/52 50/50/50
f 50/50/50 54/54/54 53/53/53
f 55/55/55 52/52/52 53/53/53
f 54/54/54 56/56/56 53/53/53
f 57/57/57 55/55/55 53/53/53
f 53/53/53 56/56/56 57/57/57
f 56/56/56 58/58/58 57/57/57
f 61/61/61 60/60/60 59/59/59
f 62/62/62 61/61/61 59/59/59
f 65/65/65 64/64/64 63/63/63
f 66/66/66 65/65/65 63/63/63
f 69/69/69 68/68/68 67/67/67
f 70/70/70 69/69/69 67/67/67
f 73/73/73 72/72/72 71/71/71
f 74/74/74 73/73/73 71/71/71
f 74/74/74 71/71/71 75/75/75
f 76/76/76 74/74/74 75/75/75
f 77/77/77 73/73/73 74/74/74
f 78/78/78 77/77/77 74/74/74
f 79/79/79 77/77/77 78/78/78
f 80/80/80 79/79/79 78/78/78
f 80/80/80 78/78/78 81/81/81
f 82/82/82 80/80/80 81/81/81
