g Model_0
v 0.725001 -0.250000 1.466506
v -0.850000 -0.250002 1.500000
v -0.725000 -0.250002 1.466506
v 0.633494 -0.250000 1.375000
v 0.725001 -0.250000 1.466506
v -0.633494 -0.250001 1.375000
v 0.600001 -0.249999 1.249999
v -0.600000 -0.250001 1.249999
v 0.600000 -0.249999 0.750000
v -0.600000 -0.250001 0.750000
v 0.850001 -0.250000 1.500000
v -0.850000 -0.250002 1.500000
v -0.850001 0.749998 1.500000
v -0.850000 -0.250002 1.500000
v -0.850000 -0.750002 1.500000
v -0.975000 -0.750002 1.466506
v -0.850000 -0.750002 1.500000
v 0.850001 -0.750000 1.500000
v 0.850001 -0.750000 1.500000
v 0.975001 -0.750000 1.466506
v -1.066506 -0.750002 1.374999
v 1.066507 -0.749999 1.374999
v -1.100000 -0.750002 1.249999
v 1.100001 -0.749999 1.249999
v 1.100000 -0.749999 0.000000
v -1.100000 -0.750001 0.000000
v -1.037501 0.579918 1.250000
v -0.982584 0.779918 1.117417
v -1.037501 0.779918 1.250000
v -0.982583 0.579918 1.117417
v -0.850001 0.779918 1.062500
v -0.850001 0.579918 1.062500
v -0.850001 0.579918 1.062500
v -0.717419 0.779918 1.117417
v -0.850001 0.779918 1.062500
v -0.717418 0.579918 1.117417
v -0.662501 0.779918 1.250000
v -0.662501 0.579918 1.250000
v -0.717419 0.779918 1.382582
v -0.717418 0.579918 1.382582
v -0.717418 0.579918 1.382582
v -0.850001 0.779918 1.437500
v -0.717419 0.779918 1.382582
v -0.850001 0.579918 1.437500
v -0.982584 0.779918 1.382582
v -0.982583 0.579918 1.382582
v -1.037501 0.779918 1.250000
v -1.037501 0.579918 1.250000
v -0.982584 0.779918 1.117417
v -0.850001 0.779918 1.062500
v -0.717419 0.779918 1.117417
v -1.037501 0.779918 1.250000
v -0.662501 0.779918 1.250000
v -0.982584 0.779918 1.382582
v -0.717419 0.779918 1.382582
v -0.850001 0.779918 1.437500
v -1.100001 0.749999 0.000000
v -1.100000 -0.750001 0.000000
v 1.100000 -0.749999 0.000000
v 1.099999 0.750001 0.000000
v -0.600000 0.749999 0.750000
v 0.600000 0.750000 0.750000
v 0.600000 -0.249999 0.750000
v -0.600000 -0.250001 0.750000
v 0.850001 -0.250000 1.500000
v 0.725001 -0.250000 1.466506
v 0.725000 0.750000 1.466506
v 0.850000 0.750000 1.500000
v 0.975000 0.750000 1.466506
v 0.850001 -0.750000 1.500000
v 0.975001 -0.750000 1.466506
v -0.850000 -0.750002 1.500000
v -0.850000 -0.250002 1.500000
v -0.725001 0.749998 1.466506
v -0.725000 -0.250002 1.466506
v -0.850001 0.749998 1.500000
v -0.975000 -0.750002 1.466506
v -0.975001 0.749998 1.466506
v 0.725001 -0.250000 1.466506
v 0.633493 0.750000 1.375000
v 0.725000 0.750000 1.466506
v 0.633494 -0.250000 1.375000
v 0.600000 0.750000 1.250000
v 0.600001 -0.249999 1.249999
v 0.600000 0.750000 0.750000
v 0.600000 -0.249999 0.750000
v 0.975000 0.750000 1.466506
v 1.066507 -0.749999 1.374999
v 0.975001 -0.750000 1.466506
v 1.066506 0.750000 1.375000
v 1.100001 -0.749999 1.249999
v 1.100000 0.750001 1.250000
v 1.099999 0.750001 0.000000
v 1.100000 -0.749999 0.000000
v -0.725000 -0.250002 1.466506
v -0.725001 0.749998 1.466506
v -0.633495 0.749998 1.375000
v -0.633494 -0.250001 1.375000
v -0.600000 0.749999 1.250000
v -0.600000 -0.250001 1.249999
v -0.600000 -0.250001 0.750000
v -0.600000 0.749999 0.750000
v -1.066507 0.749998 1.375000
v -0.975001 0.749998 1.466506
v -0.975000 -0.750002 1.466506
v -1.066506 -0.750002 1.374999
v -1.100001 0.749998 1.250000
v -1.100000 -0.750002 1.249999
v -1.100000 -0.750001 0.000000
v -1.100001 0.749999 0.000000
v -0.725001 0.749998 1.466506
v -0.850001 0.749998 1.500000
v -0.975001 0.749998 1.466506
v -0.633495 0.749998 1.375000
v -1.066507 0.749998 1.375000
v -0.600000 0.749999 1.250000
v -1.100001 0.749998 1.250000
v -0.600000 0.749999 0.750000
v -1.100001 0.749999 0.000000
v 1.099999 0.750001 0.000000
v 0.600000 0.750000 0.750000
v 1.100000 0.750001 1.250000
v 0.600000 0.750000 1.250000
v 0.633493 0.750000 1.375000
v 1.066506 0.750000 1.375000
v 0.725000 0.750000 1.466506
v 0.975000 0.750000 1.466506
v 0.850000 0.750000 1.500000
v 1.037500 0.579921 1.250000
v 1.037500 0.779921 1.250000
v 0.982582 0.779921 1.117417
v 0.982582 0.579921 1.117417
v 0.850000 0.779920 1.062500
v 0.850000 0.579920 1.062500
v 0.850000 0.579920 1.062500
v 0.850000 0.779920 1.062500
v 0.717417 0.779920 1.117417
v 0.717417 0.579920 1.117417
v 0.662500 0.779920 1.250000
v 0.662500 0.579920 1.250000
v 0.717417 0.779920 1.382582
v 0.717417 0.579920 1.382582
v 0.717417 0.579920 1.382582
v 0.717417 0.779920 1.382582
v 0.850000 0.779920 1.437500
v 0.850000 0.579920 1.437500
v 0.982582 0.779920 1.382582
v 0.982582 0.579920 1.382582
v 1.037500 0.779921 1.250000
v 1.037500 0.579921 1.250000
v 0.717417 0.779920 1.117417
v 0.850000 0.779920 1.062500
v 0.982582 0.779921 1.117417
v 0.662500 0.779920 1.250000
v 1.037500 0.779921 1.250000
v 0.717417 0.779920 1.382582
v 0.982582 0.779920 1.382582
v 0.850000 0.779920 1.437500
vt 0.882122993 0.493366987
vt 0.882432997 0.469325989
vt 0.882122993 0.470591992
vt 0.881273985 0.492440999
vt 0.882122993 0.493366987
vt 0.881273985 0.47151801
vt 0.880114019 0.492101997
vt 0.880114019 0.471857011
vt 0.875473976 0.492101997
vt 0.875473976 0.471857011
vt 0.882432997 0.494632006
vt 0.882432997 0.469325989
vt 0.875473976 0.465530992
vt 0.866195977 0.465530992
vt 0.861555994 0.465530992
vt 0.889082015 0.468061
vt 0.889392018 0.466796011
vt 0.889392018 0.441489995
vt 0.889392018 0.441489995
vt 0.889082015 0.440225005
vt 0.888233006 0.468986988
vt 0.888233006 0.439298987
vt 0.88707298 0.469325989
vt 0.88707298 0.438959986
vt 0.875473976 0.438959986
vt 0.875473976 0.469325989
vt 0.297504991 0.533245027
vt 0.256949991 0.631154001
vt 0.297504991 0.631154001
vt 0.256949991 0.533245027
vt 0.228274003 0.631154001
vt 0.228274003 0.533245027
vt 0.297504991 0.435337007
vt 0.268828005 0.533245027
vt 0.297504991 0.533245027
vt 0.268828005 0.435337007
vt 0.228274003 0.533245027
vt 0.228274003 0.435337007
vt 0.199597001 0.533245027
vt 0.199597001 0.435337007
vt 0.395413011 0.435337007
vt 0.366737008 0.533245027
vt 0.395413011 0.533245027
vt 0.366737008 0.435337007
vt 0.326182008 0.533245027
vt 0.326182008 0.435337007
vt 0.297504991 0.533245027
vt 0.297504991 0.435337007
vt 0.297504991 0.559738994
vt 0.297504991 0.59720701
vt 0.326182008 0.623700976
vt 0.326182008 0.533245027
vt 0.366737008 0.623700976
vt 0.366737008 0.533245027
vt 0.395413011 0.59720701
vt 0.395413011 0.559738994
vt 0.847638011 0.469325989
vt 0.861555994 0.469325989
vt 0.861555994 0.438959986
vt 0.847638011 0.438959986
vt 0.842998981 0.489571005
vt 0.842998981 0.469325989
vt 0.833720028 0.469325989
vt 0.833720028 0.489571005
vt 0.866195977 0.440225005
vt 0.866195977 0.441489995
vt 0.875473976 0.441489995
vt 0.875473976 0.440225005
vt 0.875473976 0.438959986
vt 0.861555994 0.440225005
vt 0.861555994 0.438959986
vt 0.861555994 0.465530992
vt 0.866195977 0.465530992
vt 0.875473976 0.464264989
vt 0.866195977 0.464264989
vt 0.875473976 0.465530992
vt 0.861555994 0.466796011
vt 0.875473976 0.466796011
vt 0.868286014 0.481979012
vt 0.867358029 0.492101997
vt 0.868286014 0.492101997
vt 0.867358029 0.481979012
vt 0.866173029 0.492101997
vt 0.866173029 0.481979012
vt 0.861555994 0.492101997
vt 0.861555994 0.481979012
vt 0.861293972 0.469325989
vt 0.860365987 0.484510005
vt 0.861293972 0.484510005
vt 0.860365987 0.469325989
vt 0.859180987 0.484510005
vt 0.859180987 0.469325989
vt 0.847638011 0.469325989
vt 0.847638011 0.484510005
vt 0.875212014 0.492101997
vt 0.875212014 0.481979012
vt 0.874284029 0.481979012
vt 0.874284029 0.492101997
vt 0.873099029 0.481979012
vt 0.873099029 0.492101997
vt 0.868481994 0.492101997
vt 0.868481994 0.481979012
vt 0.874284029 0.481979012
vt 0.875212014 0.481979012
vt 0.875212014 0.466796011
vt 0.874284029 0.466796011
vt 0.873099029 0.481979012
vt 0.873099029 0.466796011
vt 0.861555994 0.466796011
vt 0.861555994 0.481979012
vt 0.847326994 0.442755014
vt 0.847638011 0.441489995
vt 0.847326994 0.440225005
vt 0.846477985 0.443681985
vt 0.846477985 0.439298987
vt 0.845318019 0.444020987
vt 0.845318019 0.438959986
vt 0.84067899 0.444020987
vt 0.833720028 0.438959986
vt 0.833720028 0.469325989
vt 0.84067899 0.464264989
vt 0.845318019 0.469325989
vt 0.845318019 0.464264989
vt 0.846477985 0.46460399
vt 0.846477985 0.468986988
vt 0.847326994 0.465530992
vt 0.847326994 0.468061
vt 0.847638011 0.466796011
vt 0.297504991 0.533245027
vt 0.297504991 0.631154001
vt 0.256949991 0.631154001
vt 0.256949991 0.533245027
vt 0.228274003 0.631154001
vt 0.228274003 0.533245027
vt 0.297504991 0.435337007
vt 0.297504991 0.533245027
vt 0.268828005 0.533245027
vt 0.268828005 0.435337007
vt 0.228274003 0.533245027
vt 0.228274003 0.435337007
vt 0.199597001 0.533245027
vt 0.199597001 0.435337007
vt 0.395413011 0.435337007
vt 0.395413011 0.533245027
vt 0.366737008 0.533245027
vt 0.366737008 0.435337007
vt 0.326182008 0.533245027
vt 0.326182008 0.435337007
vt 0.297504991 0.533245027
vt 0.297504991 0.435337007
vt 0.326182008 0.623700976
vt 0.297504991 0.59720701
vt 0.297504991 0.559738994
vt 0.366737008 0.623700976
vt 0.326182008 0.533245027
vt 0.395413011 0.59720701
vt 0.366737008 0.533245027
vt 0.395413011 0.559738994
vn 0.000000 1.000000 0.000000
vn 0.000000 1.000000 0.000000
vn 0.000000 1.000000 0.000000
vn 0.000000 1.000000 0.000000
vn 0.000000 1.000000 0.000000
vn 0.000000 1.000000 0.000000
vn 0.000000 1.000000 0.000000
vn 0.000000 1.000000 0.000000
vn 0.000000 1.000000 0.000000
vn 0.000000 1.000000 0.000000
vn 0.000000 1.000000 0.000000
vn 0.000000 1.000000 0.000000
vn 0.000000 1.000000 0.000000
vn 0.000000 1.000000 0.000000
vn 0.000000 1.000000 0.000000
vn 0.000000 -1.000000 0.000000
vn 0.000000 -1.000000 0.000000
vn 0.000000 -1.000000 0.000000
vn 0.000000 -1.000000 0.000000
vn 0.000000 -1.000000 0.000000
vn 0.000000 -1.000000 0.000000
vn 0.000000 -1.000000 0.000000
vn 0.000000 -1.000000 0.000000
vn 0.000000 -1.000000 0.000000
vn 0.000000 -1.000000 0.000000
vn 0.000000 -1.000000 0.000000
vn -1.000000 0.000000 0.000000
vn -0.707106 0.000000 -0.707107
vn -1.000000 0.000000 0.000000
vn -0.707106 0.000000 -0.707107
vn 0.000000 0.000000 -1.000000
vn 0.000000 0.000000 -1.000000
vn 0.000000 0.000000 -1.000000
vn 0.707106 0.000000 -0.707108
vn 0.000000 0.000000 -1.000000
vn 0.707106 0.000000 -0.707108
vn 1.000000 0.000000 0.000000
vn 1.000000 0.000000 0.000000
vn 0.707107 0.000000 0.707106
vn 0.707107 0.000000 0.707106
vn 0.707107 0.000000 0.707106
vn 0.000000 0.000000 1.000000
vn 0.707107 0.000000 0.707106
vn 0.000000 0.000000 1.000000
vn -0.707108 0.000000 0.707106
vn -0.707108 0.000000 0.707106
vn -1.000000 0.000000 0.000000
vn -1.000000 0.000000 0.000000
vn 0.000000 1.000000 0.000000
vn 0.000000 1.000000 0.000000
vn 0.000000 1.000000 0.000000
vn 0.000000 1.000000 0.000000
vn 0.000000 1.000000 0.000000
vn 0.000000 1.000000 0.000000
vn 0.000000 1.000000 0.000000
vn 0.000000 1.000000 0.000000
vn 0.000000 0.000000 -1.000000
vn 0.000000 0.000000 -1.000000
vn 0.000000 0.000000 -1.000000
vn 0.000000 0.000000 -1.000000
vn 0.000000 0.000000 1.000000
vn 0.000000 0.000000 1.000000
vn 0.000000 0.000000 1.000000
vn 0.000000 0.000000 1.000000
vn 0.066257 0.000000 0.997803
vn -0.499999 0.000000 0.866026
vn -0.499999 0.000000 0.866026
vn 0.000000 0.000000 1.000000
vn 0.380577 0.000000 0.924749
vn 0.173870 0.000000 0.984769
vn 0.500002 0.000000 0.866024
vn -0.130527 0.000000 0.991445
vn 0.130527 0.000000 0.991445
vn 0.500001 0.000000 0.866025
vn 0.500001 0.000000 0.866025
vn -0.088963 0.000000 0.996035
vn -0.420976 0.000000 0.907072
vn -0.500002 0.000000 0.866024
vn -0.499999 0.000000 0.866026
vn -0.866025 0.000000 0.500000
vn -0.499999 0.000000 0.866026
vn -0.866025 0.000000 0.500000
vn -0.991445 0.000000 0.130523
vn -0.991445 0.000000 0.130523
vn -1.000000 0.000000 0.000000
vn -1.000000 0.000000 0.000000
vn 0.380577 0.000000 0.924749
vn 0.866025 0.000000 0.500000
vn 0.500002 0.000000 0.866024
vn 0.866025 0.000000 0.500000
vn 0.991445 0.000000 0.130527
vn 0.991445 0.000000 0.130527
vn 1.000000 0.000000 0.000000
vn 1.000000 0.000000 0.000000
vn 0.500001 0.000000 0.866025
vn 0.500001 0.000000 0.866025
vn 0.866024 0.000000 0.500002
vn 0.866024 0.000000 0.500002
vn 0.991445 0.000000 0.130529
vn 0.991445 0.000000 0.130529
vn 1.000000 0.000000 0.000000
vn 1.000000 0.000000 0.000000
vn -0.866025 0.000000 0.500000
vn -0.500002 0.000000 0.866024
vn -0.420976 0.000000 0.907072
vn -0.866025 0.000000 0.500000
vn -0.991445 0.000000 0.130527
vn -0.991445 0.000000 0.130527
vn -1.000000 0.000000 0.000000
vn -1.000000 0.000000 0.000000
vn 0.000000 1.000000 0.000000
vn 0.000000 1.000000 0.000000
vn 0.000000 1.000000 0.000000
vn 0.000000 1.000000 0.000000
vn 0.000000 1.000000 0.000000
vn 0.000000 1.000000 0.000000
vn 0.000000 1.000000 0.000000
vn 0.000000 1.000000 0.000000
vn 0.000000 1.000000 0.000000
vn 0.000000 1.000000 0.000000
vn 0.000000 1.000000 0.000000
vn 0.000000 1.000000 0.000000
vn 0.000000 1.000000 0.000000
vn 0.000000 1.000000 0.000000
vn 0.000000 1.000000 0.000000
vn 0.000000 1.000000 0.000000
vn 0.000000 1.000000 0.000000
vn 0.000000 1.000000 0.000000
vn 1.000000 0.000000 0.000000
vn 1.000000 0.000000 0.000000
vn 0.707105 0.000000 -0.707108
vn 0.707105 0.000000 -0.707108
vn 0.000000 0.000000 -1.000000
vn 0.000000 0.000000 -1.000000
vn 0.000000 0.000000 -1.000000
vn 0.000000 0.000000 -1.000000
vn -0.707107 0.000000 -0.707107
vn -0.707107 0.000000 -0.707107
vn -1.000000 0.000000 0.000000
vn -1.000000 0.000000 0.000000
vn -0.707108 0.000000 0.707105
vn -0.707108 0.000000 0.707105
vn -0.707108 0.000000 0.707105
vn -0.707108 0.000000 0.707105
vn 0.000000 0.000000 1.000000
vn 0.000000 0.000000 1.000000
vn 0.707107 0.000000 0.707107
vn 0.707107 0.000000 0.707107
vn 1.000000 0.000000 0.000000
vn 1.000000 0.000000 0.000000
vn 0.000000 1.000000 0.000000
vn 0.000000 1.000000 0.000000
vn 0.000000 1.000000 0.000000
vn 0.000000 1.000000 0.000000
vn 0.000000 1.000000 0.000000
vn 0.000000 1.000000 0.000000
vn 0.000000 1.000000 0.000000
vn 0.000000 1.000000 0.000000
g Model_0_0
f 3/3/3 2/2/2 1/1/1
f 3/3/3 5/5/5 4/4/4
f 6/6/6 3/3/3 4/4/4
f 6/6/6 4/4/4 7/7/7
f 8/8/8 6/6/6 7/7/7
f 8/8/8 7/7/7 9/9/9
f 9/9/9 10/10/10 8/8/8
f 12/12/12 11/11/11 5/5/5
f 15/15/15 14/14/14 13/13/13
f 18/18/18 17/17/17 16/16/16
f 20/20/20 19/19/19 16/16/16
f 20/20/20 16/16/16 21/21/21
f 22/22/22 20/20/20 21/21/21
f 22/22/22 21/21/21 23/23/23
f 23/23/23 24/24/24 22/22/22
f 24/24/24 23/23/23 25/25/25
f 23/23/23 26/26/26 25/25/25
f 29/29/29 28/28/28 27/27/27
f 28/28/28 30/30/30 27/27/27
f 28/28/28 31/31/31 30/30/30
f 31/31/31 32/32/32 30/30/30
f 35/35/35 34/34/34 33/33/33
f 34/34/34 36/36/36 33/33/33
f 34/34/34 37/37/37 36/36/36
f 37/37/37 38/38/38 36/36/36
f 37/37/37 39/39/39 38/38/38
f 39/39/39 40/40/40 38/38/38
f 43/43/43 42/42/42 41/41/41
f 42/42/42 44/44/44 41/41/41
f 42/42/42 45/45/45 44/44/44
f 45/45/45 46/46/46 44/44/44
f 45/45/45 47/47/47 46/46/46
f 47/47/47 48/48/48 46/46/46
f 51/51/51 50/50/50 49/49/49
f 49/49/49 52/52/52 51/51/51
f 52/52/52 53/53/53 51/51/51
f 52/52/52 54/54/54 53/53/53
f 54/54/54 55/55/55 53/53/53
f 54/54/54 56/56/56 55/55/55
f 59/59/59 58/58/58 57/57/57
f 60/60/60 59/59/59 57/57/57
f 63/63/63 62/62/62 61/61/61
f 64/64/64 63/63/63 61/61/61
f 67/67/67 66/66/66 65/65/65
f 68/68/68 67/67/67 65/65/65
f 65/65/65 69/69/69 68/68/68
f 69/69/69 65/65/65 70/70/70
f 70/70/70 71/71/71 69/69/69
f 70/70/70 65/65/65 72/72/72
f 65/65/65 73/73/73 72/72/72
f 75/75/75 74/74/74 73/73/73
f 74/74/74 76/76/76 73/73/73
f 76/76/76 77/77/77 72/72/72
f 76/76/76 78/78/78 77/77/77
f 81/81/81 80/80/80 79/79/79
f 80/80/80 82/82/82 79/79/79
f 80/80/80 83/83/83 82/82/82
f 83/83/83 84/84/84 82/82/82
f 84/84/84 83/83/83 85/85/85
f 86/86/86 84/84/84 85/85/85
f 89/89/89 88/88/88 87/87/87
f 88/88/88 90/90/90 87/87/87
f 90/90/90 88/88/88 91/91/91
f 92/92/92 90/90/90 91/91/91
f 92/92/92 91/91/91 93/93/93
f 91/91/91 94/94/94 93/93/93
f 97/97/97 96/96/96 95/95/95
f 98/98/98 97/97/97 95/95/95
f 99/99/99 97/97/97 98/98/98
f 100/100/100 99/99/99 98/98/98
f 99/99/99 100/100/100 101/101/101
f 102/102/102 99/99/99 101/101/101
f 105/105/105 104/104/104 103/103/103
f 106/106/106 105/105/105 103/103/103
f 106/106/106 103/103/103 107/107/107
f 108/108/108 106/106/106 107/107/107
f 108/108/108 107/107/107 109/109/109
f 107/107/107 110/110/110 109/109/109
f 113/113/113 112/112/112 111/111/111
f 113/113/113 111/111/111 114/114/114
f 115/115/115 113/113/113 114/114/114
f 115/115/115 114/114/114 116/116/116
f 117/117/117 115/115/115 116/116/116
f 117/117/117 116/116/116 118/118/118
f 119/119/119 117/117/117 118/118/118
f 118/118/118 120/120/120 119/119/119
f 120/120/120 118/118/118 121/121/121
f 121/121/121 122/122/122 120/120/120
f 121/121/121 123/123/123 122/122/122
f 123/123/123 124/124/124 122/122/122
f 124/124/124 125/125/125 122/122/122
f 124/124/124 126/126/126 125/125/125
f 126/126/126 127/127/127 125/125/125
f 126/126/126 128/128/128 127/127/127
f 131/131/131 130/130/130 129/129/129
f 132/132/132 131/131/131 129/129/129
f 133/133/133 131/131/131 132/132/132
f 134/134/134 133/133/133 132/132/132
f 137/137/137 136/136/136 135/135/135
f 138/138/138 137/137/137 135/135/135
f 139/139/139 137/137/137 138/138/138
f 140/140/140 139/139/139 138/138/138
f 141/141/141 139/139/139 140/140/140
f 142/142/142 141/141/141 140/140/140
f 145/145/145 144/144/144 143/143/143
f 146/146/146 145/145/145 143/143/143
f 147/147/147 145/145/145 146/146/146
f 148/148/148 147/147/147 146/146/146
f 149/149/149 147/147/147 148/148/148
f 150/150/150 149/149/149 148/148/148
f 153/153/153 152/152/152 151/151/151
f 151/151/151 154/154/154 153/153/153
f 154/154/154 155/155/155 153/153/153
f 154/154/154 156/156/156 155/155/155
f 156/156/156 157/157/157 155/155/155
f 156/156/156 158/158/158 157/157/157