g Model_0
v 0.725000978 -0.25 1.466506
v -0.850000024 -0.250001997 1.5
v -0.725000024 -0.250001997 1.466506
v 0.63349402 -0.25 1.375
v 0.725000978 -0.25 1.466506
v -0.63349402 -0.250001013 1.375
v 0.600000978 -0.249999002 1.24999905
v -0.600000024 -0.250001013 1.24999905
v 0.600000024 -0.249999002 0.75
v -0.600000024 -0.250001013 0.75
v 0.850000978 -0.25 1.5
v -0.850000024 -0.250001997 1.5
v -0.850000978 0.749997973 1.5
v -0.850000024 -0.250001997 1.5
v -0.850000024 -0.750002027 1.5
v -0.975000024 -0.750002027 1.466506
v -0.850000024 -0.750002027 1.5
v 0.850000978 -0.75 1.5
v 0.850000978 -0.75 1.5
v 0.975000978 -0.75 1.466506
v -1.06650603 -0.750002027 1.37499905
v 1.06650698 -0.749998987 1.37499905
v -1.10000002 -0.750002027 1.24999905
v 1.10000098 -0.749998987 1.24999905
v 1.10000002 -0.749998987 0
v -1.10000002 -0.750001013 0
v -1.03750098 0.579918027 1.25
v -0.982584 0.779918015 1.11741698
v -1.03750098 0.779918015 1.25
v -0.982582986 0.579918027 1.11741698
v -0.850000978 0.779918015 1.0625
v -0.850000978 0.579918027 1.0625
v -0.850000978 0.579918027 1.0625
v -0.717419028 0.779918015 1.11741698
v -0.850000978 0.779918015 1.0625
v -0.717418015 0.579918027 1.11741698
v -0.662500978 0.779918015 1.25
v -0.662500978 0.579918027 1.25
v -0.717419028 0.779918015 1.38258195
v -0.717418015 0.579918027 1.38258195
v -0.717418015 0.579918027 1.38258195
v -0.850000978 0.779918015 1.4375
v -0.717419028 0.779918015 1.38258195
v -0.850000978 0.579918027 1.4375
v -0.982584 0.779918015 1.38258195
v -0.982582986 0.579918027 1.38258195
v -1.03750098 0.779918015 1.25
v -1.03750098 0.579918027 1.25
v -0.982584 0.779918015 1.11741698
v -0.850000978 0.779918015 1.0625
v -0.717419028 0.779918015 1.11741698
v -1.03750098 0.779918015 1.25
v -0.662500978 0.779918015 1.25
v -0.982584 0.779918015 1.38258195
v -0.717419028 0.779918015 1.38258195
v -0.850000978 0.779918015 1.4375
v -1.10000098 0.749998987 0
v -1.10000002 -0.750001013 0
v 1.10000002 -0.749998987 0
v 1.09999895 0.750001013 0
v -0.600000024 0.749998987 0.75
v 0.600000024 0.75 0.75
v 0.600000024 -0.249999002 0.75
v -0.600000024 -0.250001013 0.75
v 0.850000978 -0.25 1.5
v 0.725000978 -0.25 1.466506
v 0.725000024 0.75 1.466506
v 0.850000024 0.75 1.5
v 0.975000024 0.75 1.466506
v 0.850000978 -0.75 1.5
v 0.975000978 -0.75 1.466506
v -0.850000024 -0.750002027 1.5
v -0.850000024 -0.250001997 1.5
v -0.725000978 0.749997973 1.466506
v -0.725000024 -0.250001997 1.466506
v -0.850000978 0.749997973 1.5
v -0.975000024 -0.750002027 1.466506
v -0.975000978 0.749997973 1.466506
v 0.725000978 -0.25 1.466506
v 0.633493006 0.75 1.375
v 0.725000024 0.75 1.466506
v 0.63349402 -0.25 1.375
v 0.600000024 0.75 1.25
v 0.600000978 -0.249999002 1.24999905
v 0.600000024 0.75 0.75
v 0.600000024 -0.249999002 0.75
v 0.975000024 0.75 1.466506
v 1.06650698 -0.749998987 1.37499905
v 0.975000978 -0.75 1.466506
v 1.06650603 0.75 1.375
v 1.10000098 -0.749998987 1.24999905
v 1.10000002 0.750001013 1.25
v 1.09999895 0.750001013 0
v 1.10000002 -0.749998987 0
v -0.725000024 -0.250001997 1.466506
v -0.725000978 0.749997973 1.466506
v -0.633494973 0.749997973 1.375
v -0.63349402 -0.250001013 1.375
v -0.600000024 0.749998987 1.25
v -0.600000024 -0.250001013 1.24999905
v -0.600000024 -0.250001013 0.75
v -0.600000024 0.749998987 0.75
v -1.06650698 0.749997973 1.375
v -0.975000978 0.749997973 1.466506
v -0.975000024 -0.750002027 1.466506
v -1.06650603 -0.750002027 1.37499905
v -1.10000098 0.749997973 1.25
v -1.10000002 -0.750002027 1.24999905
v -1.10000002 -0.750001013 0
v -1.10000098 0.749998987 0
v -0.725000978 0.749997973 1.466506
v -0.850000978 0.749997973 1.5
v -0.975000978 0.749997973 1.466506
v -0.633494973 0.749997973 1.375
v -1.06650698 0.749997973 1.375
v -0.600000024 0.749998987 1.25
v -1.10000098 0.749997973 1.25
v -0.600000024 0.749998987 0.75
v -1.10000098 0.749998987 0
v 1.09999895 0.750001013 0
v 0.600000024 0.75 0.75
v 1.10000002 0.750001013 1.25
v 0.600000024 0.75 1.25
v 0.633493006 0.75 1.375
v 1.06650603 0.75 1.375
v 0.725000024 0.75 1.466506
v 0.975000024 0.75 1.466506
v 0.850000024 0.75 1.5
v 1.03750002 0.579921007 1.25
v 1.03750002 0.779920995 1.25
v 0.982581973 0.779920995 1.11741698
v 0.982581973 0.579921007 1.11741698
v 0.850000024 0.779919982 1.0625
v 0.850000024 0.579919994 1.0625
v 0.850000024 0.579919994 1.0625
v 0.850000024 0.779919982 1.0625
v 0.717417002 0.779919982 1.11741698
v 0.717417002 0.579919994 1.11741698
v 0.662500024 0.779919982 1.25
v 0.662500024 0.579919994 1.25
v 0.717417002 0.779919982 1.38258195
v 0.717417002 0.579919994 1.38258195
v 0.717417002 0.579919994 1.38258195
v 0.717417002 0.779919982 1.38258195
v 0.850000024 0.779919982 1.4375
v 0.850000024 0.579919994 1.4375
v 0.982581973 0.779919982 1.38258195
v 0.982581973 0.579919994 1.38258195
v 1.03750002 0.779920995 1.25
v 1.03750002 0.579921007 1.25
v 0.717417002 0.779919982 1.11741698
v 0.850000024 0.779919982 1.0625
v 0.982581973 0.779920995 1.11741698
v 0.662500024 0.779919982 1.25
v 1.03750002 0.779920995 1.25
v 0.717417002 0.779919982 1.38258195
v 0.982581973 0.779919982 1.38258195
v 0.850000024 0.779919982 1.4375
vt 0.882122993 0.493366987
vt 0.882432997 0.469325989
vt 0.882122993 0.470591992
vt 0.881273985 0.492440999
vt 0.882122993 0.493366987
vt 0.881273985 0.47151801
vt 0.880114019 0.492101997
vt 0.880114019 0.471857011
vt 0.875473976 0.492101997
vt 0.875473976 0.471857011
vt 0.882432997 0.494632006
vt 0.882432997 0.469325989
vt 0.875473976 0.465530992
vt 0.866195977 0.465530992
vt 0.861555994 0.465530992
vt 0.889082015 0.468061
vt 0.889392018 0.466796011
vt 0.889392018 0.441489995
vt 0.889392018 0.441489995
vt 0.889082015 0.440225005
vt 0.888233006 0.468986988
vt 0.888233006 0.439298987
vt 0.88707298 0.469325989
vt 0.88707298 0.438959986
vt 0.875473976 0.438959986
vt 0.875473976 0.469325989
vt 0.297504991 0.533245027
vt 0.256949991 0.631154001
vt 0.297504991 0.631154001
vt 0.256949991 0.533245027
vt 0.228274003 0.631154001
vt 0.228274003 0.533245027
vt 0.297504991 0.435337007
vt 0.268828005 0.533245027
vt 0.297504991 0.533245027
vt 0.268828005 0.435337007
vt 0.228274003 0.533245027
vt 0.228274003 0.435337007
vt 0.199597001 0.533245027
vt 0.199597001 0.435337007
vt 0.395413011 0.435337007
vt 0.366737008 0.533245027
vt 0.395413011 0.533245027
vt 0.366737008 0.435337007
vt 0.326182008 0.533245027
vt 0.326182008 0.435337007
vt 0.297504991 0.533245027
vt 0.297504991 0.435337007
vt 0.297504991 0.559738994
vt 0.297504991 0.59720701
vt 0.326182008 0.623700976
vt 0.326182008 0.533245027
vt 0.366737008 0.623700976
vt 0.366737008 0.533245027
vt 0.395413011 0.59720701
vt 0.395413011 0.559738994
vt 0.847638011 0.469325989
vt 0.861555994 0.469325989
vt 0.861555994 0.438959986
vt 0.847638011 0.438959986
vt 0.842998981 0.489571005
vt 0.842998981 0.469325989
vt 0.833720028 0.469325989
vt 0.833720028 0.489571005
vt 0.866195977 0.440225005
vt 0.866195977 0.441489995
vt 0.875473976 0.441489995
vt 0.875473976 0.440225005
vt 0.875473976 0.438959986
vt 0.861555994 0.440225005
vt 0.861555994 0.438959986
vt 0.861555994 0.465530992
vt 0.866195977 0.465530992
vt 0.875473976 0.464264989
vt 0.866195977 0.464264989
vt 0.875473976 0.465530992
vt 0.861555994 0.466796011
vt 0.875473976 0.466796011
vt 0.868286014 0.481979012
vt 0.867358029 0.492101997
vt 0.868286014 0.492101997
vt 0.867358029 0.481979012
vt 0.866173029 0.492101997
vt 0.866173029 0.481979012
vt 0.861555994 0.492101997
vt 0.861555994 0.481979012
vt 0.861293972 0.469325989
vt 0.860365987 0.484510005
vt 0.861293972 0.484510005
vt 0.860365987 0.469325989
vt 0.859180987 0.484510005
vt 0.859180987 0.469325989
vt 0.847638011 0.469325989
vt 0.847638011 0.484510005
vt 0.875212014 0.492101997
vt 0.875212014 0.481979012
vt 0.874284029 0.481979012
vt 0.874284029 0.492101997
vt 0.873099029 0.481979012
vt 0.873099029 0.492101997
vt 0.868481994 0.492101997
vt 0.868481994 0.481979012
vt 0.874284029 0.481979012
vt 0.875212014 0.481979012
vt 0.875212014 0.466796011
vt 0.874284029 0.466796011
vt 0.873099029 0.481979012
vt 0.873099029 0.466796011
vt 0.861555994 0.466796011
vt 0.861555994 0.481979012
vt 0.847326994 0.442755014
vt 0.847638011 0.441489995
vt 0.847326994 0.440225005
vt 0.846477985 0.443681985
vt 0.846477985 0.439298987
vt 0.845318019 0.444020987
vt 0.845318019 0.438959986
vt 0.84067899 0.444020987
vt 0.833720028 0.438959986
vt 0.833720028 0.469325989
vt 0.84067899 0.464264989
vt 0.845318019 0.469325989
vt 0.845318019 0.464264989
vt 0.846477985 0.46460399
vt 0.846477985 0.468986988
vt 0.847326994 0.465530992
vt 0.847326994 0.468061
vt 0.847638011 0.466796011
vt 0.297504991 0.533245027
vt 0.297504991 0.631154001
vt 0.256949991 0.631154001
vt 0.256949991 0.533245027
vt 0.228274003 0.631154001
vt 0.228274003 0.533245027
vt 0.297504991 0.435337007
vt 0.297504991 0.533245027
vt 0.268828005 0.533245027
vt 0.268828005 0.435337007
vt 0.228274003 0.533245027
vt 0.228274003 0.435337007
vt 0.199597001 0.533245027
vt 0.199597001 0.435337007
vt 0.395413011 0.435337007
vt 0.395413011 0.533245027
vt 0.366737008 0.533245027
vt 0.366737008 0.435337007
vt 0.326182008 0.533245027
vt 0.326182008 0.435337007
vt 0.297504991 0.533245027
vt 0.297504991 0.435337007
vt 0.326182008 0.623700976
vt 0.297504991 0.59720701
vt 0.297504991 0.559738994
vt 0.366737008 0.623700976
vt 0.326182008 0.533245027
vt 0.395413011 0.59720701
vt 0.366737008 0.533245027
vt 0.395413011 0.559738994
vn -0 1 0
vn -0 1 0
vn -0 1 0
vn -0 1 0
vn -0 1 0
vn -0 1 0
vn -0 1 0
vn -0 1 0
vn -0 1 0
vn -0 1 0
vn -0 1 0
vn -0 1 0
vn -0 1 0
vn -0 1 0
vn -0 1 0
vn -0 -1 0
vn -0 -1 0
vn -0 -1 0
vn -0 -1 0
vn -0 -1 0
vn -0 -1 0
vn -0 -1 0
vn -0 -1 0
vn -0 -1 0
vn -0 -1 0
vn -0 -1 0
vn -1 0 0
vn -0.707106113 0 -0.707107425
vn -1 0 0
vn -0.707106113 0 -0.707107425
vn -0 0 -1
vn -0 0 -1
vn -0 0 -1
vn 0.707105994 0 -0.707107484
vn -0 0 -1
vn 0.707105994 0 -0.707107484
vn 1 0 0
vn 1 0 0
vn 0.707107425 0 0.707106054
vn 0.707107425 0 0.707106054
vn 0.707107425 0 0.707106054
vn -0 0 1
vn 0.707107425 0 0.707106054
vn -0 0 1
vn -0.707107544 0 0.707105994
vn -0.707107544 0 0.707105994
vn -1 0 0
vn -1 0 0
vn -0 1 0
vn -0 1 0
vn -0 1 0
vn -0 1 0
vn -0 1 0
vn -0 1 0
vn -0 1 0
vn -0 1 0
vn -0 0 -1
vn -0 0 -1
vn -0 0 -1
vn -0 0 -1
vn -0 0 1
vn -0 0 1
vn -0 0 1
vn -0 0 1
vn 0.0662569404 0 0.997802556
vn -0.499998748 0 0.866026044
vn -0.499998748 0 0.866026044
vn -0 0 1
vn 0.380577147 0 0.924749196
vn 0.173869923 0 0.984768629
vn 0.500002205 0 0.866024077
vn -0.130527481 0 0.991444767
vn 0.130527481 0 0.991444767
vn 0.500001132 0 0.866024792
vn 0.500001132 0 0.866024792
vn -0.0889631733 0 0.99603492
vn -0.420976281 0 0.90707159
vn -0.500002205 0 0.866024077
vn -0.499998748 0 0.866026044
vn -0.866025507 0 0.499999851
vn -0.499998748 0 0.866026044
vn -0.866025507 0 0.499999851
vn -0.991445184 0 0.130523339
vn -0.991445184 0 0.130523339
vn -1 0 0
vn -1 0 0
vn 0.380577147 0 0.924749196
vn 0.866025448 0 0.5
vn 0.500002205 0 0.866024077
vn 0.866025448 0 0.5
vn 0.991444767 0 0.130527481
vn 0.991444767 0 0.130527481
vn 1 0 0
vn 1 0 0
vn 0.500001132 0 0.866024792
vn 0.500001132 0 0.866024792
vn 0.866024077 0 0.500002205
vn 0.866024077 0 0.500002205
vn 0.991444528 0 0.130528763
vn 0.991444528 0 0.130528763
vn 1 0 0
vn 1 0 0
vn -0.866025448 0 0.5
vn -0.500002205 0 0.866024077
vn -0.420976281 0 0.90707159
vn -0.866025448 0 0.5
vn -0.991444767 0 0.130527481
vn -0.991444767 0 0.130527481
vn -1 0 0
vn -1 0 0
vn -0 1 0
vn -0 1 0
vn -0 1 0
vn -0 1 0
vn -0 1 0
vn -0 1 0
vn -0 1 0
vn -0 1 0
vn -0 1 0
vn -0 1 0
vn -0 1 0
vn -0 1 0
vn -0 1 0
vn -0 1 0
vn -0 1 0
vn -0 1 0
vn -0 1 0
vn -0 1 0
vn 1 0 0
vn 1 0 0
vn 0.707105279 0 -0.7071082
vn 0.707105279 0 -0.7071082
vn -0 0 -1
vn -0 0 -1
vn -0 0 -1
vn -0 0 -1
vn -0.707106769 0 -0.707106769
vn -0.707106769 0 -0.707106769
vn -1 0 0
vn -1 0 0
vn -0.7071082 0 0.707105279
vn -0.7071082 0 0.707105279
vn -0.7071082 0 0.707105279
vn -0.7071082 0 0.707105279
vn -0 0 1
vn -0 0 1
vn 0.707106769 0 0.707106769
vn 0.707106769 0 0.707106769
vn 1 0 0
vn 1 0 0
vn -0 1 0
vn -0 1 0
vn -0 1 0
vn -0 1 0
vn -0 1 0
vn -0 1 0
vn -0 1 0
vn -0 1 0
g Model_0_0
f 3/3/3 2/2/2 1/1/1
f 3/3/3 5/5/5 4/4/4
f 6/6/6 3/3/3 4/4/4
f 6/6/6 4/4/4 7/7/7
f 8/8/8 6/6/6 7/7/7
f 8/8/8 7/7/7 9/9/9
f 9/9/9 10/10/10 8/8/8
f 12/12/12 11/11/11 5/5/5
f 15/15/15 14/14/14 13/13/13
f 18/18/18 17/17/17 16/16/16
f 20/20/20 19/19/19 16/16/16
f 20/20/20 16/16/16 21/21/21
f 22/22/22 20/20/20 21/21/21
f 22/22/22 21/21/21 23/23/23
f 23/23/23 24/24/24 22/22/22
f 24/24/24 23/23/23 25/25/25
f 23/23/23 26/26/26 25/25/25
f 29/29/29 28/28/28 27/27/27
f 28/28/28 30/30/30 27/27/27
f 28/28/28 31/31/31 30/30/30
f 31/31/31 32/32/32 30/30/30
f 35/35/35 34/34/34 33/33/33
f 34/34/34 36/36/36 33/33/33
f 34/34/34 37/37/37 36/36/36
f 37/37/37 38/38/38 36/36/36
f 37/37/37 39/39/39 38/38/38
f 39/39/39 40/40/40 38/38/38
f 43/43/43 42/42/42 41/41/41
f 42/42/42 44/44/44 41/41/41
f 42/42/42 45/45/45 44/44/44
f 45/45/45 46/46/46 44/44/44
f 45/45/45 47/47/47 46/46/46
f 47/47/47 48/48/48 46/46/46
f 51/51/51 50/50/50 49/49/49
f 49/49/49 52/52/52 51/51/51
f 52/52/52 53/53/53 51/51/51
f 52/52/52 54/54/54 53/53/53
f 54/54/54 55/55/55 53/53/53
f 54/54/54 56/56/56 55/55/55
f 59/59/59 58/58/58 57/57/57
f 60/60/60 59/59/59 57/57/57
f 63/63/63 62/62/62 61/61/61
f 64/64/64 63/63/63 61/61/61
f 67/67/67 66/66/66 65/65/65
f 68/68/68 67/67/67 65/65/65
f 65/65/65 69/69/69 68/68/68
f 69/69/69 65/65/65 70/70/70
f 70/70/70 71/71/71 69/69/69
f 70/70/70 65/65/65 72/72/72
f 65/65/65 73/73/73 72/72/72
f 75/75/75 74/74/74 73/73/73
f 74/74/74 76/76/76 73/73/73
f 76/76/76 77/77/77 72/72/72
f 76/76/76 78/78/78 77/77/77
f 81/81/81 80/80/80 79/79/79
f 80/80/80 82/82/82 79/79/79
f 80/80/80 83/83/83 82/82/82
f 83/83/83 84/84/84 82/82/82
f 84/84/84 83/83/83 85/85/85
f 86/86/86 84/84/84 85/85/85
f 89/89/89 88/88/88 87/87/87
f 88/88/88 90/90/90 87/87/87
f 90/90/90 88/88/88 91/91/91
f 92/92/92 90/90/90 91/91/91
f 92/92/92 91/91/91 93/93/93
f 91/91/91 94/94/94 93/93/93
f 97/97/97 96/96/96 95/95/95
f 98/98/98 97/97/97 95/95/95
f 99/99/99 97/97/97 98/98/98
f 100/100/100 99/99/99 98/98/98
f 99/99/99 100/100/100 101/101/101
f 102/102/102 99/99/99 101/101/101
f 105/105/105 104/104/104 103/103/103
f 106/106/106 105/105/105 103/103/103
f 106/106/106 103/103/103 107/107/107
f 108/108/108 106/106/106 107/107/107
f 108/108/108 107/107/107 109/109/109
f 107/107/107 110/110/110 109/109/109
f 113/113/113 112/112/112 111/111/111
f 113/113/113 111/111/111 114/114/114
f 115/115/115 113/113/113 114/114/114
f 115/115/115 114/114/114 116/116/116
f 117/117/117 115/115/115 116/116/116
f 117/117/117 116/116/116 118/118/118
f 119/119/119 117/117/117 118/118/118
f 118/118/118 120/120/120 119/119/119
f 120/120/120 118/118/118 121/121/121
f 121/121/121 122/122/122 120/120/120
f 121/121/121 123/123/123 122/122/122
f 123/123/123 124/124/124 122/122/122
f 124/124/124 125/125/125 122/122/122
f 124/124/124 126/126/126 125/125/125
f 126/126/126 127/127/127 125/125/125
f 126/126/126 128/128/128 127/127/127
f 131/131/131 130/130/130 129/129/129
f 132/132/132 131/131/131 129/129/129
f 133/133/133 131/131/131 132/132/132
f 134/134/134 133/133/133 132/132/132
f 137/137/137 136/136/136 135/135/135
f 138/138/138 137/137/137 135/135/135
f 139/139/139 137/137/137 138/138/138
f 140/140/140 139/139/139 138/138/138
f 141/141/141 139/139/139 140/140/140
f 142/142/142 141/141/141 140/140/140
f 145/145/145 144/144/144 143/143/143
f 146/146/146 145/145/145 143/143/143
f 147/147/147 145/145/145 146/146/146
f 148/148/148 147/147/147 146/146/146
f 149/149/149 147/147/147 148/148/148
f 150/150/150 149/149/149 148/148/148
f 153/153/153 152/152/152 151/151/151
f 151/151/151 154/154/154 153/153/153
f 154/154/154 155/155/155 153/153/153
f 154/154/154 156/156/156 155/155/155
f 156/156/156 157/157/157 155/155/155
f 156/156/156 158/158/158 157/157/157
