g Model_0
v -0.261617005 -0.478581995 1.489586
v -0.261617005 -0.478581995 1.08958602
v -0.261617005 -0.341026008 1.08958602
v -0.261617005 -0.341026008 1.489586
v -0.261617005 -0.341026008 1.489586
v -0.261617005 -0.341026008 1.08958602
v -0.124061003 -0.341026008 1.08958602
v -0.124061003 -0.341026008 1.489586
v -0.124061003 -0.341026008 1.489586
v -0.124061003 -0.341026008 1.08958602
v -0.124061003 -0.478581995 1.08958602
v -0.124061003 -0.478581995 1.489586
v -0.124061003 -0.478581995 1.489586
v -0.124061003 -0.478581995 1.08958602
v -0.261617005 -0.478581995 1.08958602
v -0.261617005 -0.478581995 1.489586
v -0.124061003 -0.478581995 1.489586
v -0.261617005 -0.478581995 1.489586
v -0.261617005 -0.341026008 1.489586
v -0.124061003 -0.341026008 1.489586
v 0.261617005 -0.478581995 1.489586
v 0.261617005 -0.341026008 1.489586
v 0.261617005 -0.341026008 1.08958602
v 0.261617005 -0.478581995 1.08958602
v 0.261617005 -0.341026008 1.489586
v 0.124061003 -0.341026008 1.489586
v 0.124061003 -0.341026008 1.08958602
v 0.261617005 -0.341026008 1.08958602
v 0.124061003 -0.341026008 1.489586
v 0.124061003 -0.478581995 1.489586
v 0.124061003 -0.478581995 1.08958602
v 0.124061003 -0.341026008 1.08958602
v 0.124061003 -0.478581995 1.489586
v 0.261617005 -0.478581995 1.489586
v 0.261617005 -0.478581995 1.08958602
v 0.124061003 -0.478581995 1.08958602
v 0.124061003 -0.478581995 1.489586
v 0.124061003 -0.341026008 1.489586
v 0.261617005 -0.341026008 1.489586
v 0.261617005 -0.478581995 1.489586
v -0.0500000007 -0.447492003 1.73208201
v -0.0500000007 -0.447492003 1.35000002
v -0.0500000007 -0.347492009 1.35000002
v -0.0500000007 -0.347492009 1.73208201
v -0.0500000007 -0.447492003 1.83432698
v -0.0500000007 -0.347492009 1.83432698
v -0.0500000007 -0.2315 1.83432698
v -0.0500000007 -0.2315 1.73208201
v -0.0500000007 -0.135405004 1.83432698
v -0.0500000007 -0.135405004 1.73208201
v -0.0500000007 -0.135405004 1.63102305
v -0.0500000007 -0.2315 1.63102305
v -0.0500000007 -0.347492009 1.73208201
v -0.0500000007 -0.347492009 1.35000002
v 0.0500000007 -0.347492009 1.35000002
v 0.0500000007 -0.347492009 1.73208201
v 0.0500000007 -0.347492009 1.73208201
v 0.0500000007 -0.347492009 1.35000002
v 0.0500000007 -0.447492003 1.35000002
v 0.0500000007 -0.447492003 1.73208201
v 0.0500000007 -0.347492009 1.83432698
v 0.0500000007 -0.447492003 1.83432698
v 0.0500000007 -0.2315 1.73208201
v 0.0500000007 -0.2315 1.83432698
v 0.0500000007 -0.135405004 1.73208201
v 0.0500000007 -0.135405004 1.83432698
v 0.0500000007 -0.2315 1.63102305
v 0.0500000007 -0.135405004 1.63102305
v 0.0500000007 -0.447492003 1.73208201
v 0.0500000007 -0.447492003 1.35000002
v -0.0500000007 -0.447492003 1.35000002
v -0.0500000007 -0.447492003 1.73208201
v 0.0500000007 -0.447492003 1.83432698
v -0.0500000007 -0.447492003 1.83432698
v 0.0500000007 -0.347492009 1.73208201
v 0.0500000007 -0.2315 1.73208201
v -0.0500000007 -0.2315 1.73208201
v -0.0500000007 -0.347492009 1.73208201
v 0.0500000007 -0.135405004 1.73208201
v 0.0500000007 -0.135405004 1.83432698
v -0.0500000007 -0.135405004 1.83432698
v -0.0500000007 -0.135405004 1.73208201
v 0.0500000007 -0.135405004 1.63102305
v -0.0500000007 -0.135405004 1.63102305
v -0.0500000007 -0.2315 1.83432698
v -0.0500000007 -0.135405004 1.83432698
v 0.0500000007 -0.135405004 1.83432698
v 0.0500000007 -0.2315 1.83432698
v -0.0500000007 -0.347492009 1.83432698
v 0.0500000007 -0.347492009 1.83432698
v -0.0500000007 -0.447492003 1.83432698
v 0.0500000007 -0.447492003 1.83432698
v 0.0500000007 -0.2315 1.63102305
v 0.0500000007 -0.135405004 1.63102305
v -0.0500000007 -0.135405004 1.63102305
v -0.0500000007 -0.2315 1.63102305
v 0.0500000007 -0.2315 1.73208201
v 0.0500000007 -0.2315 1.63102305
v -0.0500000007 -0.2315 1.63102305
v -0.0500000007 -0.2315 1.73208201
v 0.749998987 -0.5 1.35000002
v 0.549998999 -0.300000012 1.35000002
v 0.550000012 0.300000012 1.35000002
v 0.75 0.5 1.35000002
v 0.75 0.5 1.35000002
v 0.550000012 0.300000012 1.35000002
v -0.550000012 0.300000012 1.35000002
v -0.75 0.5 1.35000002
v -0.75 -0.5 1.35000002
v -0.550000012 -0.300000012 1.35000002
v 0.549998999 -0.300000012 1.35000002
v 0.749998987 -0.5 1.35000002
v 0.549998999 -0.300000012 1.35000002
v 0.549998999 -0.300000012 0.975000024
v 0.550000012 0.300000012 0.975000024
v 0.550000012 0.300000012 1.35000002
v -0.75 0.5 1.22500002
v -0.75 -0.5 1.35000002
v -0.75 -0.5 1.22500002
v -0.75 0.5 1.35000002
v -0.75 0.625 1.35000002
v -0.75 0.625 1.22500002
v 0.75 0.5 0
v 0.75 -0.5 0
v 0.749998987 -0.5 1.22500002
v 0.75 0.5 1.22500002
v 0.75 -0.5 0
v -0.75 -0.5 0
v -0.75 -0.5 1.22500002
v 0.749998987 -0.5 1.22500002
v -0.75 -0.5 0
v -0.75 0.5 0
v -0.75 0.5 1.22500002
v -0.75 -0.5 1.22500002
v 0.75 0.5 1.22500002
v -0.75 0.5 1.22500002
v -0.75 0.5 0
v 0.75 0.5 0
v -0.75 0.5 1.35000002
v -0.550000012 0.300000012 1.35000002
v -0.550000012 -0.300000012 1.35000002
v -0.75 -0.5 1.35000002
v -0.75 -0.5 1.22500002
v -0.75 -0.5 1.35000002
v 0.749998987 -0.5 1.35000002
v 0.749998987 -0.5 1.22500002
v 0.75 0.5 1.35000002
v 0.75 0.625 1.35000002
v 0.75 0.625 1.22500002
v 0.75 0.5 1.22500002
v 0.749998987 -0.5 1.22500002
v 0.749998987 -0.5 1.35000002
v 0.75 0.625 1.22500002
v 0.75 0.625 1.35000002
v -0.75 0.625 1.35000002
v -0.75 0.625 1.22500002
v -0.75 0.5 1.35000002
v -0.75 0.625 1.35000002
v 0.75 0.625 1.35000002
v 0.75 0.5 1.35000002
v 0.75 0.5 1.22500002
v 0.75 0.625 1.22500002
v -0.75 0.625 1.22500002
v -0.75 0.5 1.22500002
v 0.550000012 0.300000012 0.975000024
v 0.549998999 -0.300000012 0.975000024
v -0.550000012 -0.300000012 0.975000024
v -0.550000012 0.300000012 0.975000024
v 0.550000012 0.300000012 1.35000002
v 0.550000012 0.300000012 0.975000024
v -0.550000012 0.300000012 0.975000024
v -0.550000012 0.300000012 1.35000002
v -0.550000012 -0.300000012 1.35000002
v -0.550000012 -0.300000012 0.975000024
v 0.549998999 -0.300000012 0.975000024
v 0.549998999 -0.300000012 1.35000002
v -0.550000012 0.300000012 1.35000002
v -0.550000012 0.300000012 0.975000024
v -0.550000012 -0.300000012 0.975000024
v -0.550000012 -0.300000012 1.35000002
vt 0.731998026 0.320549995
vt 0.731998026 0.242028996
vt 0.700589001 0.242028996
vt 0.700589001 0.320549995
vt 0.669180989 0.399071008
vt 0.669180989 0.320549995
vt 0.637772977 0.320549995
vt 0.637772977 0.399071008
vt 0.700589001 0.320549995
vt 0.700589001 0.242028996
vt 0.669180989 0.242028996
vt 0.669180989 0.320549995
vt 0.637772977 0.399071008
vt 0.637772977 0.320549995
vt 0.606364012 0.320549995
vt 0.606364012 0.399071008
vt 0.606364012 0.347553015
vt 0.574956 0.347553015
vt 0.574956 0.374554992
vt 0.606364012 0.374554992
vt 0.669180989 0.320549995
vt 0.637772977 0.320549995
vt 0.637772977 0.242028996
vt 0.669180989 0.242028996
vt 0.606364012 0.242028996
vt 0.637772977 0.242028996
vt 0.637772977 0.320549995
vt 0.606364012 0.320549995
vt 0.700589001 0.399071008
vt 0.669180989 0.399071008
vt 0.669180989 0.320549995
vt 0.700589001 0.320549995
vt 0.574956 0.242028996
vt 0.606364012 0.242028996
vt 0.606364012 0.320549995
vt 0.574956 0.320549995
vt 0.574956 0.347553015
vt 0.574956 0.320549995
vt 0.606364012 0.320549995
vt 0.606364012 0.347553015
vt 0.725529015 0.287690997
vt 0.725529015 0.180467993
vt 0.698410988 0.180467993
vt 0.698410988 0.287690997
vt 0.725529015 0.316383988
vt 0.698410988 0.316383988
vt 0.666957021 0.316383988
vt 0.666957021 0.287690997
vt 0.640897989 0.316383988
vt 0.640897989 0.287690997
vt 0.640897989 0.259330988
vt 0.666957021 0.259330988
vt 0.864395022 0.287690997
vt 0.864395022 0.180467993
vt 0.837276995 0.180467993
vt 0.837276995 0.287690997
vt 0.752646983 0.287690997
vt 0.752646983 0.180467993
vt 0.725529015 0.180467993
vt 0.725529015 0.287690997
vt 0.752646983 0.316383988
vt 0.725529015 0.316383988
vt 0.784101009 0.287690997
vt 0.784101009 0.316383988
vt 0.810159028 0.287690997
vt 0.810159028 0.316383988
vt 0.784101009 0.259330988
vt 0.810159028 0.259330988
vt 0.837276995 0.287690997
vt 0.837276995 0.180467993
vt 0.810159028 0.180467993
vt 0.810159028 0.287690997
vt 0.837276995 0.316383988
vt 0.810159028 0.316383988
vt 0.725529015 0.348933995
vt 0.725529015 0.316383988
vt 0.698410988 0.316383988
vt 0.698410988 0.348933995
vt 0.752646983 0.345077008
vt 0.752646983 0.316383988
vt 0.725529015 0.316383988
vt 0.725529015 0.345077008
vt 0.752646983 0.373436987
vt 0.725529015 0.373436987
vt 0.837276995 0.343351007
vt 0.837276995 0.316383988
vt 0.810159028 0.316383988
vt 0.810159028 0.343351007
vt 0.837276995 0.375901014
vt 0.810159028 0.375901014
vt 0.837276995 0.403964013
vt 0.810159028 0.403964013
vt 0.778705001 0.316383988
vt 0.752646983 0.316383988
vt 0.752646983 0.344446987
vt 0.778705001 0.344446987
vt 0.668016016 0.344743997
vt 0.668016016 0.316383988
vt 0.640897989 0.316383988
vt 0.640897989 0.344743997
vt 0.0732429996 0.852455974
vt 0.0732429996 0.852455974
vt 0.128643006 0.852455974
vt 0.128643006 0.852455974
vt 0.203431994 0.770394981
vt 0.203431994 0.770394981
vt 0.203431994 0.861573994
vt 0.203431994 0.861573994
vt 0.148031995 0.770394981
vt 0.148031995 0.770394981
vt 0.148031995 0.679216981
vt 0.148031995 0.679216981
vt 0.193663001 0.32119
vt 0.193663001 0.32119
vt 0.249063 0.32119
vt 0.249063 0.32119
vt 0.214512005 0.846377015
vt 0.269910991 0.852455974
vt 0.269910991 0.846377015
vt 0.214512005 0.852455974
vt 0.208972007 0.852455974
vt 0.208972007 0.846377015
vt 0.639414012 0.755284011
vt 0.584013999 0.755284011
vt 0.584013999 0.831265986
vt 0.639414012 0.831265986
vt 0.584013999 0.664106011
vt 0.584013999 0.755284011
vt 0.653263986 0.755284011
vt 0.653263986 0.664106011
vt 0.780682027 0.755284011
vt 0.725283027 0.755284011
vt 0.725283027 0.831265986
vt 0.780682027 0.831265986
vt 0.658803999 0.664106011
vt 0.658803999 0.755284011
vt 0.728052974 0.755284011
vt 0.728052974 0.664106011
vt 0.214512005 0.852455974
vt 0.214512005 0.852455974
vt 0.269910991 0.852455974
vt 0.269910991 0.852455974
vt 0.142491996 0.770394981
vt 0.148031995 0.770394981
vt 0.148031995 0.679216981
vt 0.142491996 0.679216981
vt 0.128643006 0.852455974
vt 0.134182006 0.852455974
vt 0.134182006 0.846377015
vt 0.128643006 0.846377015
vt 0.0732429996 0.846377015
vt 0.0732429996 0.852455974
vt 0.292071015 0.770394981
vt 0.286531001 0.770394981
vt 0.286531001 0.861573994
vt 0.292071015 0.861573994
vt 0.203431994 0.861573994
vt 0.208972007 0.861573994
vt 0.208972007 0.770394981
vt 0.203431994 0.770394981
vt 0.286531001 0.770394981
vt 0.280990988 0.770394981
vt 0.280990988 0.861573994
vt 0.286531001 0.861573994
vt 0.323852003 0.239129007
vt 0.268453002 0.239129007
vt 0.268453002 0.330307007
vt 0.323852003 0.330307007
vt 0.323852003 0.239129007
vt 0.323852003 0.239129007
vt 0.323852003 0.330307007
vt 0.323852003 0.330307007
vt 0.268453002 0.239129007
vt 0.268453002 0.239129007
vt 0.268453002 0.147951007
vt 0.268453002 0.147951007
vt 0.334931999 0.32119
vt 0.334931999 0.32119
vt 0.390331 0.32119
vt 0.390331 0.32119
vn -1 0 0
vn -1 0 0
vn -1 0 0
vn -1 0 0
vn -0 1 0
vn -0 1 0
vn -0 1 0
vn -0 1 0
vn 1 0 0
vn 1 0 0
vn 1 0 0
vn 1 0 0
vn -0 -1 0
vn -0 -1 0
vn -0 -1 0
vn -0 -1 0
vn -0 0 1
vn -0 0 1
vn -0 0 1
vn -0 0 1
vn 1 0 0
vn 1 0 0
vn 1 0 0
vn 1 0 0
vn -0 1 0
vn -0 1 0
vn -0 1 0
vn -0 1 0
vn -1 0 0
vn -1 0 0
vn -1 0 0
vn -1 0 0
vn -0 -1 0
vn -0 -1 0
vn -0 -1 0
vn -0 -1 0
vn -0 0 1
vn -0 0 1
vn -0 0 1
vn -0 0 1
vn -1 0 0
vn -1 0 0
vn -1 0 0
vn -1 0 0
vn -1 0 0
vn -1 0 0
vn -1 0 0
vn -1 0 0
vn -1 0 0
vn -1 0 0
vn -1 0 0
vn -1 0 0
vn -0 1 0
vn -0 1 0
vn -0 1 0
vn -0 1 0
vn 1 0 0
vn 1 0 0
vn 1 0 0
vn 1 0 0
vn 1 0 0
vn 1 0 0
vn 1 0 0
vn 1 0 0
vn 1 0 0
vn 1 0 0
vn 1 0 0
vn 1 0 0
vn -0 -1 0
vn -0 -1 0
vn -0 -1 0
vn -0 -1 0
vn -0 -1 0
vn -0 -1 0
vn -0 0 -1
vn -0 0 -1
vn -0 0 -1
vn -0 0 -1
vn -0 1 0
vn -0 1 0
vn -0 1 0
vn -0 1 0
vn -0 1 0
vn -0 1 0
vn -0 0 1
vn -0 0 1
vn -0 0 1
vn -0 0 1
vn -0 0 1
vn -0 0 1
vn -0 0 1
vn -0 0 1
vn -0 0 -1
vn -0 0 -1
vn -0 0 -1
vn -0 0 -1
vn -0 -1 0
vn -0 -1 0
vn -0 -1 0
vn -0 -1 0
vn -0 0 1
vn -0 0 1
vn -0 0 1
vn -0 0 1
vn -0 0 1
vn -0 0 1
vn -0 0 1
vn -0 0 1
vn -0 0 1
vn -0 0 1
vn -0 0 1
vn -0 0 1
vn -1 0 0
vn -1 0 0
vn -1 0 0
vn -1 0 0
vn -1 0 0
vn -1 0 0
vn -1 0 0
vn -1 0 0
vn -1 0 0
vn -1 0 0
vn 1 0 0
vn 1 0 0
vn 1 0 0
vn 1 0 0
vn -0 -1 0
vn -0 -1 0
vn -0 -1 0
vn -0 -1 0
vn -1 0 0
vn -1 0 0
vn -1 0 0
vn -1 0 0
vn -0 1 0
vn -0 1 0
vn -0 1 0
vn -0 1 0
vn -0 0 1
vn -0 0 1
vn -0 0 1
vn -0 0 1
vn -0 -1 0
vn -0 -1 0
vn -0 -1 0
vn -0 -1 0
vn 1 0 0
vn 1 0 0
vn 1 0 0
vn 1 0 0
vn 1 0 0
vn 1 0 0
vn -0 1 0
vn -0 1 0
vn -0 1 0
vn -0 1 0
vn -0 0 1
vn -0 0 1
vn -0 0 1
vn -0 0 1
vn -0 0 -1
vn -0 0 -1
vn -0 0 -1
vn -0 0 -1
vn -0 0 1
vn -0 0 1
vn -0 0 1
vn -0 0 1
vn -0 -1 0
vn -0 -1 0
vn -0 -1 0
vn -0 -1 0
vn -0 1 0
vn -0 1 0
vn -0 1 0
vn -0 1 0
vn 1 0 0
vn 1 0 0
vn 1 0 0
vn 1 0 0
g Model_0_0
f 3/3/3 2/2/2 1/1/1
f 4/4/4 3/3/3 1/1/1
f 7/7/7 6/6/6 5/5/5
f 8/8/8 7/7/7 5/5/5
f 11/11/11 10/10/10 9/9/9
f 12/12/12 11/11/11 9/9/9
f 15/15/15 14/14/14 13/13/13
f 16/16/16 15/15/15 13/13/13
f 19/19/19 18/18/18 17/17/17
f 20/20/20 19/19/19 17/17/17
f 23/23/23 22/22/22 21/21/21
f 24/24/24 23/23/23 21/21/21
f 27/27/27 26/26/26 25/25/25
f 28/28/28 27/27/27 25/25/25
f 31/31/31 30/30/30 29/29/29
f 32/32/32 31/31/31 29/29/29
f 35/35/35 34/34/34 33/33/33
f 36/36/36 35/35/35 33/33/33
f 39/39/39 38/38/38 37/37/37
f 40/40/40 39/39/39 37/37/37
f 43/43/43 42/42/42 41/41/41
f 44/44/44 43/43/43 41/41/41
f 41/41/41 45/45/45 44/44/44
f 45/45/45 46/46/46 44/44/44
f 46/46/46 47/47/47 44/44/44
f 47/47/47 48/48/48 44/44/44
f 47/47/47 49/49/49 48/48/48
f 49/49/49 50/50/50 48/48/48
f 50/50/50 51/51/51 48/48/48
f 51/51/51 52/52/52 48/48/48
f 55/55/55 54/54/54 53/53/53
f 56/56/56 55/55/55 53/53/53
f 59/59/59 58/58/58 57/57/57
f 60/60/60 59/59/59 57/57/57
f 57/57/57 61/61/61 60/60/60
f 61/61/61 62/62/62 60/60/60
f 57/57/57 63/63/63 61/61/61
f 63/63/63 64/64/64 61/61/61
f 63/63/63 65/65/65 64/64/64
f 65/65/65 66/66/66 64/64/64
f 63/63/63 67/67/67 65/65/65
f 67/67/67 68/68/68 65/65/65
f 71/71/71 70/70/70 69/69/69
f 72/72/72 71/71/71 69/69/69
f 69/69/69 73/73/73 72/72/72
f 73/73/73 74/74/74 72/72/72
f 77/77/77 76/76/76 75/75/75
f 78/78/78 77/77/77 75/75/75
f 81/81/81 80/80/80 79/79/79
f 82/82/82 81/81/81 79/79/79
f 79/79/79 83/83/83 82/82/82
f 83/83/83 84/84/84 82/82/82
f 87/87/87 86/86/86 85/85/85
f 88/88/88 87/87/87 85/85/85
f 88/88/88 85/85/85 89/89/89
f 90/90/90 88/88/88 89/89/89
f 90/90/90 89/89/89 91/91/91
f 92/92/92 90/90/90 91/91/91
f 95/95/95 94/94/94 93/93/93
f 96/96/96 95/95/95 93/93/93
f 99/99/99 98/98/98 97/97/97
f 100/100/100 99/99/99 97/97/97
f 103/103/103 102/102/102 101/101/101
f 104/104/104 103/103/103 101/101/101
f 107/107/107 106/106/106 105/105/105
f 108/108/108 107/107/107 105/105/105
f 111/111/111 110/110/110 109/109/109
f 112/112/112 111/111/111 109/109/109
f 115/115/115 114/114/114 113/113/113
f 116/116/116 115/115/115 113/113/113
f 119/119/119 118/118/118 117/117/117
f 118/118/118 120/120/120 117/117/117
f 120/120/120 121/121/121 117/117/117
f 121/121/121 122/122/122 117/117/117
f 125/125/125 124/124/124 123/123/123
f 126/126/126 125/125/125 123/123/123
f 129/129/129 128/128/128 127/127/127
f 130/130/130 129/129/129 127/127/127
f 133/133/133 132/132/132 131/131/131
f 134/134/134 133/133/133 131/131/131
f 137/137/137 136/136/136 135/135/135
f 138/138/138 137/137/137 135/135/135
f 141/141/141 140/140/140 139/139/139
f 142/142/142 141/141/141 139/139/139
f 145/145/145 144/144/144 143/143/143
f 146/146/146 145/145/145 143/143/143
f 149/149/149 148/148/148 147/147/147
f 150/150/150 149/149/149 147/147/147
f 150/150/150 147/147/147 151/151/151
f 147/147/147 152/152/152 151/151/151
f 155/155/155 154/154/154 153/153/153
f 156/156/156 155/155/155 153/153/153
f 159/159/159 158/158/158 157/157/157
f 160/160/160 159/159/159 157/157/157
f 163/163/163 162/162/162 161/161/161
f 164/164/164 163/163/163 161/161/161
f 167/167/167 166/166/166 165/165/165
f 168/168/168 167/167/167 165/165/165
f 171/171/171 170/170/170 169/169/169
f 172/172/172 171/171/171 169/169/169
f 175/175/175 174/174/174 173/173/173
f 176/176/176 175/175/175 173/173/173
f 179/179/179 178/178/178 177/177/177
f 180/180/180 179/179/179 177/177/177
