g Model_0
v -0.75 0.375 1.22500002
v -0.75 -0.5 1.35000002
v -0.75 -0.5 1.22500002
v -0.75 0.375 1.35000002
v -0.75 0.625 1.35000002
v -0.75 0.625 1.22500002
v 0.75 0.375 1.10000002
v 0.749998987 -0.5 1.22500002
v 0.75 0.375 1.22500002
v 0.749998987 -0.5 1.10000002
v 0.75 0.375 0.125
v 0.75 -0.5 0.125
v 0.75 0.375 0
v 0.75 -0.5 0
v -0.75 -0.5 1.10000002
v -0.75 0.375 1.22500002
v -0.75 -0.5 1.22500002
v -0.75 0.375 1.10000002
v -0.75 -0.5 0.125
v -0.75 0.375 0.125
v -0.75 -0.5 0
v -0.75 0.375 0
v 0.625 -0.5 1.22500002
v 0.749998987 -0.5 1.35000002
v 0.749998987 -0.5 1.22500002
v 0.625 -0.5 1.35000002
v -0.625 -0.5 1.22500002
v -0.625 -0.5 1.35000002
v -0.75 -0.5 1.22500002
v -0.75 -0.5 1.35000002
v 0.75 0.375 1.35000002
v 0.75 0.625 1.35000002
v 0.75 0.625 1.22500002
v 0.75 0.375 1.22500002
v 0.749998987 -0.5 1.22500002
v 0.749998987 -0.5 1.35000002
v -0.625 0.625 1.22500002
v -0.75 0.625 1.35000002
v -0.75 0.625 1.22500002
v -0.625 0.625 1.35000002
v 0.625 0.625 1.22500002
v 0.625 0.625 1.35000002
v 0.75 0.625 1.22500002
v 0.75 0.625 1.35000002
v -0.625 0.375 1.22500002
v -0.75 0.625 1.22500002
v -0.75 0.375 1.22500002
v -0.625 0.625 1.22500002
v 0.625 0.375 1.22500002
v 0.625 0.625 1.22500002
v 0.75 0.375 1.22500002
v 0.75 0.625 1.22500002
v 0.749998987 -0.5 1.10000002
v 0.625 -0.5 1.22500002
v 0.749998987 -0.5 1.22500002
v 0.625 -0.5 1.10000002
v 0.75 -0.5 0.125
v -0.625 -0.5 1.22500002
v 0.625 -0.5 0.125
v 0.75 -0.5 0
v 0.625 -0.5 0
v -0.625 -0.5 1.10000002
v -0.75 -0.5 1.22500002
v -0.75 -0.5 1.10000002
v -0.625 -0.5 0.125
v -0.625 -0.5 0
v -0.75 -0.5 0.125
v -0.75 -0.5 0
v 0.75 0.375 0.125
v 0.625 0.375 0
v 0.75 0.375 0
v 0.625 0.375 0.125
v 0.75 0.375 1.10000002
v -0.625 0.375 0
v 0.625 0.375 1.10000002
v 0.75 0.375 1.22500002
v 0.625 0.375 1.22500002
v -0.625 0.375 0.125
v -0.75 0.375 0
v -0.75 0.375 0.125
v -0.625 0.375 1.10000002
v -0.625 0.375 1.22500002
v -0.75 0.375 1.10000002
v -0.75 0.375 1.22500002
v 0.75 0.375 1.35000002
v 0.749998987 -0.5 1.35000002
v 0.625 -0.5 1.35000002
v 0.625 0.375 1.35000002
v 0.75 0.625 1.35000002
v -0.625 -0.5 1.35000002
v 0.625 0.625 1.35000002
v -0.625 0.375 1.35000002
v -0.75 -0.5 1.35000002
v -0.625 0.625 1.35000002
v -0.75 0.375 1.35000002
v -0.75 0.625 1.35000002
v -0.625 0.375 1.10000002
v -0.625 -0.400000006 1.10000002
v 0.625 -0.400000006 1.10000002
v 0.625 0.375 1.10000002
v 0.625 -0.400000006 1.10000002
v -0.625 -0.400000006 1.10000002
v -0.625 -0.400000006 0.125
v 0.625 -0.400000006 0.125
v -0.625 0.375 0.125
v -0.625 -0.400000006 0.125
v -0.625 -0.400000006 1.10000002
v -0.625 0.375 1.10000002
v 0.625 0.375 1.10000002
v 0.625 -0.400000006 1.10000002
v 0.625 -0.400000006 0.125
v 0.625 0.375 0.125
v 0.625 0.375 0.125
v 0.625 -0.400000006 0.125
v -0.625 -0.400000006 0.125
v -0.625 0.375 0.125
vt 0.214512005 0.846377015
vt 0.269910991 0.852455974
vt 0.269910991 0.846377015
vt 0.214512005 0.852455974
vt 0.208972007 0.852455974
vt 0.208972007 0.846377015
vt 0.639414012 0.812269986
vt 0.584013999 0.831265986
vt 0.639414012 0.831265986
vt 0.584013999 0.812269986
vt 0.639414012 0.793274999
vt 0.584013999 0.793274999
vt 0.639414012 0.755284011
vt 0.584013999 0.755284011
vt 0.780682027 0.812269986
vt 0.725283027 0.831265986
vt 0.780682027 0.831265986
vt 0.725283027 0.812269986
vt 0.780682027 0.793274999
vt 0.725283027 0.793274999
vt 0.780682027 0.755284011
vt 0.725283027 0.755284011
vt 0.142491996 0.709609985
vt 0.148031995 0.679216981
vt 0.142491996 0.679216981
vt 0.148031995 0.709609985
vt 0.142491996 0.74000299
vt 0.148031995 0.74000299
vt 0.142491996 0.770394981
vt 0.148031995 0.770394981
vt 0.128643006 0.852455974
vt 0.134182006 0.852455974
vt 0.134182006 0.846377015
vt 0.128643006 0.846377015
vt 0.0732429996 0.846377015
vt 0.0732429996 0.852455974
vt 0.292071015 0.83118099
vt 0.286531001 0.861573994
vt 0.292071015 0.861573994
vt 0.286531001 0.83118099
vt 0.292071015 0.800787985
vt 0.286531001 0.800787985
vt 0.292071015 0.770394981
vt 0.286531001 0.770394981
vt 0.286531001 0.83118099
vt 0.280990988 0.861573994
vt 0.286531001 0.861573994
vt 0.280990988 0.83118099
vt 0.286531001 0.800787985
vt 0.280990988 0.800787985
vt 0.286531001 0.770394981
vt 0.280990988 0.770394981
vt 0.635950983 0.664106011
vt 0.653263986 0.694498003
vt 0.653263986 0.664106011
vt 0.635950983 0.694498003
vt 0.618638992 0.664106011
vt 0.653263986 0.724891007
vt 0.618638992 0.694498003
vt 0.584013999 0.664106011
vt 0.584013999 0.694498003
vt 0.635950983 0.724891007
vt 0.653263986 0.755284011
vt 0.635950983 0.755284011
vt 0.618638992 0.724891007
vt 0.584013999 0.724891007
vt 0.618638992 0.755284011
vt 0.584013999 0.755284011
vt 0.69342798 0.664106011
vt 0.728052974 0.694498003
vt 0.728052974 0.664106011
vt 0.69342798 0.694498003
vt 0.67611599 0.664106011
vt 0.728052974 0.724891007
vt 0.67611599 0.694498003
vt 0.658803999 0.664106011
vt 0.658802986 0.694498003
vt 0.69342798 0.724891007
vt 0.728052974 0.755284011
vt 0.69342798 0.755284011
vt 0.67611599 0.724891007
vt 0.658802986 0.724891007
vt 0.67611599 0.755284011
vt 0.658803999 0.755284011
vt 0.203431994 0.770394981
vt 0.148031995 0.770394981
vt 0.148031995 0.800787985
vt 0.203431994 0.800787985
vt 0.208972007 0.770394981
vt 0.148031995 0.83118099
vt 0.208972007 0.800787985
vt 0.203431994 0.83118099
vt 0.148031995 0.861573994
vt 0.208972007 0.83118099
vt 0.203431994 0.861573994
vt 0.208972007 0.861573994
vt 0.67611599 0.724891007
vt 0.67611599 0.724891007
vt 0.67611599 0.694498003
vt 0.67611599 0.694498003
vt 0.67611599 0.694498003
vt 0.67611599 0.724891007
vt 0.69342798 0.724891007
vt 0.69342798 0.694498003
vt 0.69342798 0.724891007
vt 0.69342798 0.724891007
vt 0.67611599 0.724891007
vt 0.67611599 0.724891007
vt 0.67611599 0.694498003
vt 0.67611599 0.694498003
vt 0.69342798 0.694498003
vt 0.69342798 0.694498003
vt 0.69342798 0.694498003
vt 0.69342798 0.694498003
vt 0.69342798 0.724891007
vt 0.69342798 0.724891007
vn -1 0 0
vn -1 0 0
vn -1 0 0
vn -1 0 0
vn -1 0 0
vn -1 0 0
vn 1 0 0
vn 1 0 0
vn 1 0 0
vn 1 0 0
vn 1 0 0
vn 1 0 0
vn 1 0 0
vn 1 0 0
vn -1 0 0
vn -1 0 0
vn -1 0 0
vn -1 0 0
vn -1 0 0
vn -1 0 0
vn -1 0 0
vn -1 0 0
vn -0 -1 0
vn -0 -1 0
vn -0 -1 0
vn -0 -1 0
vn -0 -1 0
vn -0 -1 0
vn -0 -1 0
vn -0 -1 0
vn 1 0 0
vn 1 0 0
vn 1 0 0
vn 1 0 0
vn 1 0 0
vn 1 0 0
vn -0 1 0
vn -0 1 0
vn -0 1 0
vn -0 1 0
vn -0 1 0
vn -0 1 0
vn -0 1 0
vn -0 1 0
vn -0 0 -1
vn -0 0 -1
vn -0 0 -1
vn -0 0 -1
vn -0 0 -1
vn -0 0 -1
vn -0 0 -1
vn -0 0 -1
vn -0 -1 0
vn -0 -1 0
vn -0 -1 0
vn -0 -1 0
vn -0 -1 0
vn -0 -1 0
vn -0 -1 0
vn -0 -1 0
vn -0 -1 0
vn -0 -1 0
vn -0 -1 0
vn -0 -1 0
vn -0 -1 0
vn -0 -1 0
vn -0 -1 0
vn -0 -1 0
vn -0 1 0
vn -0 1 0
vn -0 1 0
vn -0 1 0
vn -0 1 0
vn -0 1 0
vn -0 1 0
vn -0 1 0
vn -0 1 0
vn -0 1 0
vn -0 1 0
vn -0 1 0
vn -0 1 0
vn -0 1 0
vn -0 1 0
vn -0 1 0
vn -0 0 1
vn -0 0 1
vn -0 0 1
vn -0 0 1
vn -0 0 1
vn -0 0 1
vn -0 0 1
vn -0 0 1
vn -0 0 1
vn -0 0 1
vn -0 0 1
vn -0 0 1
vn -0 0 -1
vn -0 0 -1
vn -0 0 -1
vn -0 0 -1
vn -0 1 0
vn -0 1 0
vn -0 1 0
vn -0 1 0
vn 1 0 0
vn 1 0 0
vn 1 0 0
vn 1 0 0
vn -1 0 0
vn -1 0 0
vn -1 0 0
vn -1 0 0
vn -0 0 1
vn -0 0 1
vn -0 0 1
vn -0 0 1
g Model_0_0
f 3/3/3 2/2/2 1/1/1
f 2/2/2 4/4/4 1/1/1
f 4/4/4 5/5/5 1/1/1
f 5/5/5 6/6/6 1/1/1
f 9/9/9 8/8/8 7/7/7
f 8/8/8 10/10/10 7/7/7
f 7/7/7 10/10/10 11/11/11
f 10/10/10 12/12/12 11/11/11
f 11/11/11 12/12/12 13/13/13
f 12/12/12 14/14/14 13/13/13
f 17/17/17 16/16/16 15/15/15
f 16/16/16 18/18/18 15/15/15
f 15/15/15 18/18/18 19/19/19
f 18/18/18 20/20/20 19/19/19
f 19/19/19 20/20/20 21/21/21
f 20/20/20 22/22/22 21/21/21
f 25/25/25 24/24/24 23/23/23
f 24/24/24 26/26/26 23/23/23
f 23/23/23 26/26/26 27/27/27
f 26/26/26 28/28/28 27/27/27
f 27/27/27 28/28/28 29/29/29
f 28/28/28 30/30/30 29/29/29
f 33/33/33 32/32/32 31/31/31
f 34/34/34 33/33/33 31/31/31
f 34/34/34 31/31/31 35/35/35
f 31/31/31 36/36/36 35/35/35
f 39/39/39 38/38/38 37/37/37
f 38/38/38 40/40/40 37/37/37
f 37/37/37 40/40/40 41/41/41
f 40/40/40 42/42/42 41/41/41
f 41/41/41 42/42/42 43/43/43
f 42/42/42 44/44/44 43/43/43
f 47/47/47 46/46/46 45/45/45
f 46/46/46 48/48/48 45/45/45
f 45/45/45 48/48/48 49/49/49
f 48/48/48 50/50/50 49/49/49
f 49/49/49 50/50/50 51/51/51
f 50/50/50 52/52/52 51/51/51
f 55/55/55 54/54/54 53/53/53
f 54/54/54 56/56/56 53/53/53
f 53/53/53 56/56/56 57/57/57
f 54/54/54 58/58/58 56/56/56
f 56/56/56 59/59/59 57/57/57
f 57/57/57 59/59/59 60/60/60
f 59/59/59 61/61/61 60/60/60
f 58/58/58 62/62/62 56/56/56
f 56/56/56 62/62/62 59/59/59
f 58/58/58 63/63/63 62/62/62
f 63/63/63 64/64/64 62/62/62
f 59/59/59 65/65/65 61/61/61
f 62/62/62 65/65/65 59/59/59
f 62/62/62 64/64/64 65/65/65
f 65/65/65 66/66/66 61/61/61
f 64/64/64 67/67/67 65/65/65
f 65/65/65 67/67/67 66/66/66
f 67/67/67 68/68/68 66/66/66
f 71/71/71 70/70/70 69/69/69
f 70/70/70 72/72/72 69/69/69
f 69/69/69 72/72/72 73/73/73
f 70/70/70 74/74/74 72/72/72
f 72/72/72 75/75/75 73/73/73
f 73/73/73 75/75/75 76/76/76
f 75/75/75 77/77/77 76/76/76
f 74/74/74 78/78/78 72/72/72
f 74/74/74 79/79/79 78/78/78
f 79/79/79 80/80/80 78/78/78
f 75/75/75 81/81/81 77/77/77
f 78/78/78 80/80/80 81/81/81
f 81/81/81 82/82/82 77/77/77
f 80/80/80 83/83/83 81/81/81
f 81/81/81 83/83/83 82/82/82
f 83/83/83 84/84/84 82/82/82
f 87/87/87 86/86/86 85/85/85
f 88/88/88 87/87/87 85/85/85
f 85/85/85 89/89/89 88/88/88
f 90/90/90 87/87/87 88/88/88
f 89/89/89 91/91/91 88/88/88
f 92/92/92 90/90/90 88/88/88
f 88/88/88 91/91/91 92/92/92
f 93/93/93 90/90/90 92/92/92
f 91/91/91 94/94/94 92/92/92
f 95/95/95 93/93/93 92/92/92
f 92/92/92 94/94/94 95/95/95
f 94/94/94 96/96/96 95/95/95
f 99/99/99 98/98/98 97/97/97
f 100/100/100 99/99/99 97/97/97
f 103/103/103 102/102/102 101/101/101
f 104/104/104 103/103/103 101/101/101
f 107/107/107 106/106/106 105/105/105
f 108/108/108 107/107/107 105/105/105
f 111/111/111 110/110/110 109/109/109
f 112/112/112 111/111/111 109/109/109
f 115/115/115 114/114/114 113/113/113
f 116/116/116 115/115/115 113/113/113
