g Model_0
v 1 -0.550261021 0.145407006
v -1 -0.550261021 0.145407006
v -1 -0.660067976 0.887326002
v 1 -0.660067976 0.887326002
v -1 -0.352416009 0.174688995
v -0.899999976 -0.367866993 0.288686007
v -0.899999976 -0.454883009 0.816877007
v -1 -0.462222993 0.916607022
v 1 -0.550261021 0.145407006
v 1 -0.660067976 0.887326002
v 0.999998987 -0.462222993 0.916607976
v 1 -0.352416009 0.174688995
v 1 -0.660067976 0.887326002
v -1 -0.660067976 0.887326002
v -1 -0.462222993 0.916607022
v 0.999998987 -0.462222993 0.916607976
v -1 -0.660067976 0.887326002
v -1 -0.550261021 0.145407006
v -1 -0.352416009 0.174688995
v -1 -0.462222993 0.916607022
v 1 -0.352416009 0.174688995
v -1 -0.352416009 0.174688995
v -1 -0.550261021 0.145407006
v 1 -0.550261021 0.145407006
v 1 0.375 0
v -1 0.375 0
v -1 -0.375 0
v 1 -0.375 0
v -1 0.375 0.200000003
v -0.899999976 0.275000006 0.200000003
v -0.899999976 -0.275000006 0.200000003
v -1 -0.375 0.200000003
v 1 0.375 0
v 1 -0.375 0
v 0.999998987 -0.375 0.200000003
v 1 0.375 0.200000003
v 1 -0.375 0
v -1 -0.375 0
v -1 -0.375 0.200000003
v 0.999998987 -0.375 0.200000003
v -1 -0.375 0
v -1 0.375 0
v -1 0.375 0.200000003
v -1 -0.375 0.200000003
v 1 0.375 0.200000003
v -1 0.375 0.200000003
v -1 0.375 0
v 1 0.375 0
v -0.899999976 0.275000006 0.200000003
v -0.899999976 0.275000006 0.150000006
v -0.899999976 -0.275000006 0.150000006
v -0.899999976 -0.275000006 0.200000003
v -1 -0.375 0.200000003
v -0.899999976 -0.275000006 0.200000003
v 0.899999976 -0.275000006 0.200000003
v 0.999998987 -0.375 0.200000003
v 0.899999976 0.275000006 0.200000003
v 1 0.375 0.200000003
v 1 0.375 0.200000003
v 0.899999976 0.275000006 0.200000003
v -0.899999976 0.275000006 0.200000003
v -1 0.375 0.200000003
v -0.899999976 -0.367866993 0.288686007
v -0.899999976 -0.417201996 0.28055799
v -0.899999976 -0.504217982 0.808749974
v -0.899999976 -0.454883009 0.816877007
v -1 -0.462222993 0.916607022
v -0.899999976 -0.454883009 0.816877007
v 0.899999022 -0.454883009 0.816877007
v 0.999998987 -0.462222993 0.916607976
v 0.899999976 -0.367866993 0.288686007
v 1 -0.352416009 0.174688995
v 1 -0.352416009 0.174688995
v 0.899999976 -0.367866993 0.288686007
v -0.899999976 -0.367866993 0.288686007
v -1 -0.352416009 0.174688995
v 0.899999976 -0.417201996 0.28055799
v 0.899999022 -0.504217982 0.808749974
v -0.899999976 -0.504217982 0.808749974
v -0.899999976 -0.417201996 0.28055799
v -0.899999976 -0.454883009 0.816877007
v -0.899999976 -0.504217982 0.808749974
v 0.899999022 -0.504217982 0.808749974
v 0.899999022 -0.454883009 0.816877007
v 0.899999976 -0.367866993 0.288686007
v 0.899999976 -0.417201996 0.28055799
v -0.899999976 -0.417201996 0.28055799
v -0.899999976 -0.367866993 0.288686007
v 0.899999022 -0.454883009 0.816877007
v 0.899999022 -0.504217982 0.808749974
v 0.899999976 -0.417201996 0.28055799
v 0.899999976 -0.367866993 0.288686007
v 0.899999976 0.275000006 0.150000006
v 0.899999976 -0.275000006 0.150000006
v -0.899999976 -0.275000006 0.150000006
v -0.899999976 0.275000006 0.150000006
v -0.899999976 -0.275000006 0.200000003
v -0.899999976 -0.275000006 0.150000006
v 0.899999976 -0.275000006 0.150000006
v 0.899999976 -0.275000006 0.200000003
v 0.899999976 0.275000006 0.200000003
v 0.899999976 0.275000006 0.150000006
v -0.899999976 0.275000006 0.150000006
v -0.899999976 0.275000006 0.200000003
v 0.899999976 -0.275000006 0.200000003
v 0.899999976 -0.275000006 0.150000006
v 0.899999976 0.275000006 0.150000006
v 0.899999976 0.275000006 0.200000003
vt 0.131228 0.511411011
vt 0.131228 0.526847005
vt 0.141518995 0.526847005
vt 0.141518995 0.511411011
vt 0.162305996 0.511256993
vt 0.162305996 0.511256993
vt 0.162305996 0.495819986
vt 0.162305996 0.495819986
vt 0.131228 0.511256993
vt 0.141518995 0.511256993
vt 0.141518995 0.495819986
vt 0.131228 0.495819986
vt 0.141622007 0.511256993
vt 0.151912004 0.511256993
vt 0.151912004 0.495819986
vt 0.141622007 0.495819986
vt 0.152015001 0.495819986
vt 0.152015001 0.511256993
vt 0.162305996 0.511256993
vt 0.162305996 0.495819986
vt 0.141622007 0.511411011
vt 0.141622007 0.526847005
vt 0.151912004 0.526847005
vt 0.151912004 0.511411011
vt 0.131228 0.511411011
vt 0.131228 0.526847005
vt 0.141518995 0.526847005
vt 0.141518995 0.511411011
vt 0.162305996 0.511256993
vt 0.162305996 0.511256993
vt 0.162305996 0.495819986
vt 0.162305996 0.495819986
vt 0.131228 0.511256993
vt 0.141518995 0.511256993
vt 0.141518995 0.495819986
vt 0.131228 0.495819986
vt 0.141622007 0.511256993
vt 0.151912004 0.511256993
vt 0.151912004 0.495819986
vt 0.141622007 0.495819986
vt 0.152015001 0.495819986
vt 0.152015001 0.511256993
vt 0.162305996 0.511256993
vt 0.162305996 0.495819986
vt 0.141622007 0.511411011
vt 0.141622007 0.526847005
vt 0.151912004 0.526847005
vt 0.151912004 0.511411011
vt 0.821547985 0.488588989
vt 0.821547985 0.488588989
vt 0.821547985 0.473152995
vt 0.821547985 0.473152995
vt 0.151912004 0.495819986
vt 0.151912004 0.495819986
vt 0.141622007 0.495819986
vt 0.141622007 0.495819986
vt 0.131228 0.495819986
vt 0.131228 0.495819986
vt 0.141622007 0.511411011
vt 0.141622007 0.511411011
vt 0.141622007 0.526847005
vt 0.141622007 0.526847005
vt 0.821547985 0.488588989
vt 0.821547985 0.488588989
vt 0.821547985 0.473152995
vt 0.821547985 0.473152995
vt 0.151912004 0.495819986
vt 0.151912004 0.495819986
vt 0.141622007 0.495819986
vt 0.141622007 0.495819986
vt 0.131228 0.495819986
vt 0.131228 0.495819986
vt 0.141622007 0.511411011
vt 0.141622007 0.511411011
vt 0.141622007 0.526847005
vt 0.141622007 0.526847005
vt 0.811258018 0.504180014
vt 0.821547985 0.504180014
vt 0.821547985 0.488743991
vt 0.811258018 0.488743991
vt 0.811155021 0.473152995
vt 0.811155021 0.473152995
vt 0.800863981 0.473152995
vt 0.800863981 0.473152995
vt 0.800863981 0.488743991
vt 0.800863981 0.488743991
vt 0.800863981 0.504180014
vt 0.800863981 0.504180014
vt 0.800760984 0.473152995
vt 0.800760984 0.473152995
vt 0.790470004 0.473152995
vt 0.790470004 0.473152995
vt 0.811258018 0.504180014
vt 0.821547985 0.504180014
vt 0.821547985 0.488743991
vt 0.811258018 0.488743991
vt 0.811155021 0.473152995
vt 0.811155021 0.473152995
vt 0.800863981 0.473152995
vt 0.800863981 0.473152995
vt 0.800863981 0.488743991
vt 0.800863981 0.488743991
vt 0.800863981 0.504180014
vt 0.800863981 0.504180014
vt 0.800760984 0.473152995
vt 0.800760984 0.473152995
vt 0.790470004 0.473152995
vt 0.790470004 0.473152995
vn -0 -0.989224136 -0.146409094
vn -0 -0.989224136 -0.146409094
vn -0 -0.989224136 -0.146409094
vn -0 -0.989224136 -0.146409094
vn 0.0145722823 0.989512026 0.143713251
vn 0.0145722823 0.989512026 0.143713251
vn 0.0145833679 0.993449271 0.113339409
vn 0.0145833679 0.993449271 0.113339409
vn 1 0 0
vn 1 0 0
vn 1 0 0
vn 1 0 0
vn -0 -0.146407411 0.989224374
vn -0 -0.146407411 0.989224374
vn -0 -0.146407411 0.989224374
vn -0 -0.146407411 0.989224374
vn -1 0 0
vn -1 0 0
vn -1 0 0
vn -1 0 0
vn -0 0.14640978 -0.989224017
vn -0 0.14640978 -0.989224017
vn -0 0.14640978 -0.989224017
vn -0 0.14640978 -0.989224017
vn -0 0 -1
vn -0 0 -1
vn -0 0 -1
vn -0 0 -1
vn -0 0 1
vn -0 0 1
vn -0 0 1
vn -0 0 1
vn 1 0 0
vn 1 0 0
vn 1 0 0
vn 1 0 0
vn -0 -1 0
vn -0 -1 0
vn -0 -1 0
vn -0 -1 0
vn -1 0 0
vn -1 0 0
vn -1 0 0
vn -1 0 0
vn -0 1 0
vn -0 1 0
vn -0 1 0
vn -0 1 0
vn 1 0 0
vn 1 0 0
vn 1 0 0
vn 1 0 0
vn -0 0 1
vn -0 0 1
vn -0 0 1
vn -0 0 1
vn -0 0 1
vn -0 0 1
vn -0 0 1
vn -0 0 1
vn -0 0 1
vn -0 0 1
vn 1 0 0
vn 1 0 0
vn 1 0 0
vn 1 0 0
vn 0.0145833679 0.993449271 0.113339409
vn 0.0145833679 0.993449271 0.113339409
vn -0.0145837422 0.993449271 0.11333935
vn -0.0145837422 0.993449271 0.11333935
vn -0.0145726567 0.989512146 0.143713206
vn -0.0145726567 0.989512146 0.143713206
vn -0.0145726567 0.989512146 0.143713206
vn -0.0145726567 0.989512146 0.143713206
vn 0.0145722823 0.989512026 0.143713251
vn 0.0145722823 0.989512026 0.143713251
vn -0 0.986700058 0.162552029
vn -0 0.986700058 0.162552029
vn -0 0.986700058 0.162552029
vn -0 0.986700058 0.162552029
vn -0 0.162541062 -0.986701787
vn -0 0.162541062 -0.986701787
vn -0 0.162541062 -0.986701787
vn -0 0.162541062 -0.986701787
vn -0 -0.162560105 0.986698627
vn -0 -0.162560105 0.986698627
vn -0 -0.162560105 0.986698627
vn -0 -0.162560105 0.986698627
vn -1 0 0
vn -1 0 0
vn -1 0 0
vn -1 0 0
vn -0 0 1
vn -0 0 1
vn -0 0 1
vn -0 0 1
vn -0 1 0
vn -0 1 0
vn -0 1 0
vn -0 1 0
vn -0 -1 0
vn -0 -1 0
vn -0 -1 0
vn -0 -1 0
vn -1 0 0
vn -1 0 0
vn -1 0 0
vn -1 0 0
g Model_0_0
f 3/3/3 2/2/2 1/1/1
f 4/4/4 3/3/3 1/1/1
f 7/7/7 6/6/6 5/5/5
f 8/8/8 7/7/7 5/5/5
f 11/11/11 10/10/10 9/9/9
f 12/12/12 11/11/11 9/9/9
f 15/15/15 14/14/14 13/13/13
f 16/16/16 15/15/15 13/13/13
f 19/19/19 18/18/18 17/17/17
f 20/20/20 19/19/19 17/17/17
f 23/23/23 22/22/22 21/21/21
f 24/24/24 23/23/23 21/21/21
f 27/27/27 26/26/26 25/25/25
f 28/28/28 27/27/27 25/25/25
f 31/31/31 30/30/30 29/29/29
f 32/32/32 31/31/31 29/29/29
f 35/35/35 34/34/34 33/33/33
f 36/36/36 35/35/35 33/33/33
f 39/39/39 38/38/38 37/37/37
f 40/40/40 39/39/39 37/37/37
f 43/43/43 42/42/42 41/41/41
f 44/44/44 43/43/43 41/41/41
f 47/47/47 46/46/46 45/45/45
f 48/48/48 47/47/47 45/45/45
f 51/51/51 50/50/50 49/49/49
f 52/52/52 51/51/51 49/49/49
f 55/55/55 54/54/54 53/53/53
f 56/56/56 55/55/55 53/53/53
f 57/57/57 55/55/55 56/56/56
f 58/58/58 57/57/57 56/56/56
f 61/61/61 60/60/60 59/59/59
f 62/62/62 61/61/61 59/59/59
f 65/65/65 64/64/64 63/63/63
f 66/66/66 65/65/65 63/63/63
f 69/69/69 68/68/68 67/67/67
f 70/70/70 69/69/69 67/67/67
f 71/71/71 69/69/69 70/70/70
f 72/72/72 71/71/71 70/70/70
f 75/75/75 74/74/74 73/73/73
f 76/76/76 75/75/75 73/73/73
f 79/79/79 78/78/78 77/77/77
f 80/80/80 79/79/79 77/77/77
f 83/83/83 82/82/82 81/81/81
f 84/84/84 83/83/83 81/81/81
f 87/87/87 86/86/86 85/85/85
f 88/88/88 87/87/87 85/85/85
f 91/91/91 90/90/90 89/89/89
f 92/92/92 91/91/91 89/89/89
f 95/95/95 94/94/94 93/93/93
f 96/96/96 95/95/95 93/93/93
f 99/99/99 98/98/98 97/97/97
f 100/100/100 99/99/99 97/97/97
f 103/103/103 102/102/102 101/101/101
f 104/104/104 103/103/103 101/101/101
f 107/107/107 106/106/106 105/105/105
f 108/108/108 107/107/107 105/105/105
