v 0.050000 0.050000 0.000000
v -0.050000 0.050000 0.000000
v -0.050000 -0.050000 -0.000000
v 0.050000 0.050000 0.000000
v -0.050000 -0.050000 -0.000000
v 0.050000 -0.050000 -0.000000
v 0.042090 -0.158395 1.792841
v 0.042090 -0.158395 1.538696
v 0.042090 0.158395 1.538696
v 0.042090 0.158395 1.792841
v 0.042090 0.158395 1.792841
v 0.042090 0.158395 1.538696
v 0.296235 0.158395 1.538696
v 0.296235 0.158395 1.792841
v 0.296235 0.158395 1.792841
v 0.296235 0.158395 1.538696
v 0.296235 -0.158395 1.538696
v 0.296235 -0.158395 1.792841
v 0.296235 -0.158395 1.792841
v 0.296235 -0.158395 1.538696
v 0.042090 -0.158395 1.538696
v 0.042090 -0.158395 1.792841
v 0.042090 -0.158395 1.538696
v 0.296235 -0.158395 1.538696
v 0.296235 0.158395 1.538696
v 0.042090 0.158395 1.538696
v 0.296235 -0.158395 1.792841
v 0.042090 -0.158395 1.792841
v 0.042090 0.158395 1.792841
v 0.296235 0.158395 1.792841
v 0.050000 0.050000 2.585512
v 0.050000 -0.050000 2.585512
v -0.050000 -0.050000 2.585512
v -0.050000 0.050000 2.585512
v 0.050000 0.050000 0.000000
v 0.050000 -0.050000 -0.000000
v 0.050000 -0.050000 2.585512
v 0.050000 0.050000 2.585512
v 0.050000 -0.050000 -0.000000
v -0.050000 -0.050000 -0.000000
v -0.050000 -0.050000 2.585512
v 0.050000 -0.050000 2.585512
v -0.050000 -0.050000 -0.000000
v -0.050000 0.050000 0.000000
v -0.050000 0.050000 2.585512
v -0.050000 -0.050000 2.585512
v 0.050000 0.050000 2.585512
v -0.050000 0.050000 2.585512
v -0.050000 0.050000 0.000000
v 0.050000 0.050000 0.000000
v -0.042090 -0.158395 1.792841
v -0.042090 0.158395 1.792841
v -0.042090 0.158395 1.538696
v -0.042090 -0.158395 1.538696
v -0.042090 0.158395 1.792841
v -0.296235 0.158395 1.792841
v -0.296235 0.158395 1.538696
v -0.042090 0.158395 1.538696
v -0.296235 0.158395 1.792841
v -0.296235 -0.158395 1.792841
v -0.296235 -0.158395 1.538696
v -0.296235 0.158395 1.538696
v -0.296235 -0.158395 1.792841
v -0.042090 -0.158395 1.792841
v -0.042090 -0.158395 1.538696
v -0.296235 -0.158395 1.538696
v -0.042090 -0.158395 1.538696
v -0.042090 0.158395 1.538696
v -0.296235 0.158395 1.538696
v -0.296235 -0.158395 1.538696
v -0.296235 -0.158395 1.792841
v -0.296235 0.158395 1.792841
v -0.042090 0.158395 1.792841
v -0.042090 -0.158395 1.792841
v -0.250570 -0.026148 1.860757
v 0.432577 -0.026148 2.543901
v 0.432577 0.060576 2.543901
v -0.250570 0.060576 1.860757
v -0.250570 0.060576 1.860757
v 0.432577 0.060576 2.543901
v 0.250570 0.060576 2.725908
v -0.432576 0.060576 2.042764
v -0.432576 0.060576 2.042764
v 0.250570 0.060576 2.725908
v 0.250570 -0.026148 2.725908
v -0.432576 -0.026148 2.042764
v -0.432576 -0.026148 2.042764
v 0.250570 -0.026148 2.725908
v 0.432577 -0.026148 2.543901
v -0.250570 -0.026148 1.860757
v 0.432577 -0.026148 2.543901
v 0.250570 -0.026148 2.725908
v 0.250570 0.060576 2.725908
v 0.432577 0.060576 2.543901
v -0.432576 -0.026148 2.042764
v -0.250570 -0.026148 1.860757
v -0.250570 0.060576 1.860757
v -0.432576 0.060576 2.042764
v 0.432576 0.006638 2.042763
v -0.250569 0.006638 2.725909
v -0.250569 0.093362 2.725909
v 0.432576 0.093362 2.042763
v 0.432576 0.093362 2.042763
v -0.250569 0.093362 2.725909
v -0.432575 0.093362 2.543902
v 0.250569 0.093362 1.860757
v 0.250569 0.093362 1.860757
v -0.432575 0.093362 2.543902
v -0.432575 0.006638 2.543902
v 0.250569 0.006638 1.860757
v 0.250569 0.006638 1.860757
v -0.432575 0.006638 2.543902
v -0.250569 0.006638 2.725909
v 0.432576 0.006638 2.042763
v -0.250569 0.006638 2.725909
v -0.432575 0.006638 2.543902
v -0.432575 0.093362 2.543902
v -0.250569 0.093362 2.725909
v 0.250569 0.006638 1.860757
v 0.432576 0.006638 2.042763
v 0.432576 0.093362 2.042763
v 0.250569 0.093362 1.860757
vt 0.36742878 0.623580635
vt 0.367697895 0.623176992
vt 0.36742878 0.623176992
vt 0.36742878 0.623580635
vt 0.36742878 0.623176992
vt 0.340250313 0.623176992
vt 0.0803162903 0.587222815
vt 0.0803162903 0.587222815
vt 0.0803162903 0.587222815
vt 0.0803162903 0.587222815
vt 0.0803162903 0.587222815
vt 0.0803162903 0.587222815
vt 0.0803162903 0.587222815
vt 0.0803162903 0.587222815
vt 0.0803162903 0.587222815
vt 0.0803162903 0.587222815
vt 0.0803162903 0.587222815
vt 0.0803162903 0.587222815
vt 0.0803162903 0.587222815
vt 0.0803162903 0.587222815
vt 0.0803162903 0.587222815
vt 0.0803162903 0.587222815
vt 0.0803162903 0.587222815
vt 0.0803162903 0.587222815
vt 0.0803162903 0.587222815
vt 0.0803162903 0.587222815
vt 0.0803162903 0.587222815
vt 0.0803162903 0.587222815
vt 0.0803162903 0.587222815
vt 0.0803162903 0.587222815
vt 0.367697895 0.663944662
vt 0.394607186 0.663944662
vt 0.394607186 0.623580635
vt 0.367697895 0.623580635
vt 0.313340962 0.623176992
vt 0.340250313 0.623176992
vt 0.340250313 0.582812965
vt 0.313340962 0.582812965
vt 0.340519428 0.623176992
vt 0.36742878 0.623176992
vt 0.36742878 0.582812965
vt 0.340519428 0.582812965
vt 0.367697895 0.582812965
vt 0.367697895 0.623176992
vt 0.394607186 0.623176992
vt 0.394607186 0.582812965
vt 0.340519428 0.623580635
vt 0.340519428 0.663944662
vt 0.36742878 0.663944662
vt 0.36742878 0.623580635
vt 0.0803162903 0.587222815
vt 0.0803162903 0.587222815
vt 0.0803162903 0.587222815
vt 0.0803162903 0.587222815
vt 0.0803162903 0.587222815
vt 0.0803162903 0.587222815
vt 0.0803162903 0.587222815
vt 0.0803162903 0.587222815
vt 0.0803162903 0.587222815
vt 0.0803162903 0.587222815
vt 0.0803162903 0.587222815
vt 0.0803162903 0.587222815
vt 0.0803162903 0.587222815
vt 0.0803162903 0.587222815
vt 0.0803162903 0.587222815
vt 0.0803162903 0.587222815
vt 0.0803162903 0.587222815
vt 0.0803162903 0.587222815
vt 0.0803162903 0.587222815
vt 0.0803162903 0.587222815
vt 0.0803162903 0.587222815
vt 0.0803162903 0.587222815
vt 0.0803162903 0.587222815
vt 0.0803162903 0.587222815
vt 0.829715252 0.481154054
vt 0.829715252 0.481154054
vt 0.829715252 0.481154054
vt 0.829715252 0.481154054
vt 0.829715252 0.481154054
vt 0.829715252 0.481154054
vt 0.829715252 0.481154054
vt 0.829715252 0.481154054
vt 0.829715252 0.481154054
vt 0.829715252 0.481154054
vt 0.829715252 0.481154054
vt 0.829715252 0.481154054
vt 0.829715252 0.481154054
vt 0.829715252 0.481154054
vt 0.829715252 0.481154054
vt 0.829715252 0.481154054
vt 0.829715252 0.481154054
vt 0.829715252 0.481154054
vt 0.829715252 0.481154054
vt 0.829715252 0.481154054
vt 0.829715252 0.481154054
vt 0.829715252 0.481154054
vt 0.829715252 0.481154054
vt 0.829715252 0.481154054
vt 0.829715252 0.481154054
vt 0.829715252 0.481154054
vt 0.829715252 0.481154054
vt 0.829715252 0.481154054
vt 0.829715252 0.481154054
vt 0.829715252 0.481154054
vt 0.829715252 0.481154054
vt 0.829715252 0.481154054
vt 0.829715252 0.481154054
vt 0.829715252 0.481154054
vt 0.829715252 0.481154054
vt 0.829715252 0.481154054
vt 0.829715252 0.481154054
vt 0.829715252 0.481154054
vt 0.829715252 0.481154054
vt 0.829715252 0.481154054
vt 0.829715252 0.481154054
vt 0.829715252 0.481154054
vt 0.829715252 0.481154054
vt 0.829715252 0.481154054
vt 0.829715252 0.481154054
vt 0.829715252 0.481154054
vt 0.829715252 0.481154054
vt 0.829715252 0.481154054
vn 0.000000 0.000000 -1.000000
vn 0.000000 0.000000 -1.000000
vn 0.000000 0.000000 -1.000000
vn 0.000000 0.000000 -1.000000
vn 0.000000 0.000000 -1.000000
vn 0.000000 0.000000 -1.000000
vn -1.000000 0.000000 0.000000
vn -1.000000 0.000000 0.000000
vn -1.000000 0.000000 0.000000
vn -1.000000 0.000000 0.000000
vn 0.000000 1.000000 0.000000
vn 0.000000 1.000000 0.000000
vn 0.000000 1.000000 0.000000
vn 0.000000 1.000000 0.000000
vn 1.000000 0.000000 0.000000
vn 1.000000 0.000000 0.000000
vn 1.000000 0.000000 0.000000
vn 1.000000 0.000000 0.000000
vn 0.000000 -1.000000 -0.000000
vn 0.000000 -1.000000 -0.000000
vn 0.000000 -1.000000 -0.000000
vn 0.000000 -1.000000 -0.000000
vn 0.000000 0.000000 -1.000000
vn 0.000000 0.000000 -1.000000
vn 0.000000 0.000000 -1.000000
vn 0.000000 0.000000 -1.000000
vn 0.000000 -0.000000 1.000000
vn 0.000000 -0.000000 1.000000
vn 0.000000 -0.000000 1.000000
vn 0.000000 -0.000000 1.000000
vn 0.000000 -0.000000 1.000000
vn 0.000000 -0.000000 1.000000
vn 0.000000 -0.000000 1.000000
vn 0.000000 -0.000000 1.000000
vn 1.000000 0.000000 0.000000
vn 1.000000 0.000000 0.000000
vn 1.000000 0.000000 0.000000
vn 1.000000 0.000000 0.000000
vn 0.000000 -1.000000 -0.000000
vn 0.000000 -1.000000 -0.000000
vn 0.000000 -1.000000 -0.000000
vn 0.000000 -1.000000 -0.000000
vn -1.000000 0.000000 0.000000
vn -1.000000 0.000000 0.000000
vn -1.000000 0.000000 0.000000
vn -1.000000 0.000000 0.000000
vn 0.000000 1.000000 0.000000
vn 0.000000 1.000000 0.000000
vn 0.000000 1.000000 0.000000
vn 0.000000 1.000000 0.000000
vn 1.000000 0.000000 0.000000
vn 1.000000 0.000000 0.000000
vn 1.000000 0.000000 0.000000
vn 1.000000 0.000000 0.000000
vn 0.000000 1.000000 0.000000
vn 0.000000 1.000000 0.000000
vn 0.000000 1.000000 0.000000
vn 0.000000 1.000000 0.000000
vn -1.000000 0.000000 0.000000
vn -1.000000 0.000000 0.000000
vn -1.000000 0.000000 0.000000
vn -1.000000 0.000000 0.000000
vn 0.000000 -1.000000 -0.000000
vn 0.000000 -1.000000 -0.000000
vn 0.000000 -1.000000 -0.000000
vn 0.000000 -1.000000 -0.000000
vn 0.000000 0.000000 -1.000000
vn 0.000000 0.000000 -1.000000
vn 0.000000 0.000000 -1.000000
vn 0.000000 0.000000 -1.000000
vn 0.000000 -0.000000 1.000000
vn 0.000000 -0.000000 1.000000
vn 0.000000 -0.000000 1.000000
vn 0.000000 -0.000000 1.000000
vn 0.707105 0.000000 -0.707108
vn 0.707105 0.000000 -0.707108
vn 0.707105 0.000000 -0.707108
vn 0.707105 0.000000 -0.707108
vn 0.000000 1.000000 0.000000
vn 0.000000 1.000000 0.000000
vn 0.000000 1.000000 0.000000
vn 0.000000 1.000000 0.000000
vn -0.707105 -0.000000 0.707108
vn -0.707105 -0.000000 0.707108
vn -0.707105 -0.000000 0.707108
vn -0.707105 -0.000000 0.707108
vn 0.000000 -1.000000 -0.000000
vn 0.000000 -1.000000 -0.000000
vn 0.000000 -1.000000 -0.000000
vn 0.000000 -1.000000 -0.000000
vn 0.707108 -0.000000 0.707106
vn 0.707108 -0.000000 0.707106
vn 0.707108 -0.000000 0.707106
vn 0.707108 -0.000000 0.707106
vn -0.707109 0.000000 -0.707105
vn -0.707109 0.000000 -0.707105
vn -0.707109 0.000000 -0.707105
vn -0.707109 0.000000 -0.707105
vn 0.707108 -0.000000 0.707106
vn 0.707108 -0.000000 0.707106
vn 0.707108 -0.000000 0.707106
vn 0.707108 -0.000000 0.707106
vn 0.000000 1.000000 0.000000
vn 0.000000 1.000000 0.000000
vn 0.000000 1.000000 0.000000
vn 0.000000 1.000000 0.000000
vn -0.707108 0.000000 -0.707106
vn -0.707108 0.000000 -0.707106
vn -0.707108 0.000000 -0.707106
vn -0.707108 0.000000 -0.707106
vn 0.000000 -1.000000 -0.000000
vn 0.000000 -1.000000 -0.000000
vn 0.000000 -1.000000 -0.000000
vn 0.000000 -1.000000 -0.000000
vn -0.707106 -0.000000 0.707107
vn -0.707106 -0.000000 0.707107
vn -0.707106 -0.000000 0.707107
vn -0.707106 -0.000000 0.707107
vn 0.707106 0.000000 -0.707108
vn 0.707106 0.000000 -0.707108
vn 0.707106 0.000000 -0.707108
vn 0.707106 0.000000 -0.707108
f 3/3/3 2/2/2 1/1/1
f 6/6/6 5/5/5 4/4/4
f 9/9/9 8/8/8 7/7/7
f 10/10/10 9/9/9 7/7/7
f 13/13/13 12/12/12 11/11/11
f 14/14/14 13/13/13 11/11/11
f 17/17/17 16/16/16 15/15/15
f 18/18/18 17/17/17 15/15/15
f 21/21/21 20/20/20 19/19/19
f 22/22/22 21/21/21 19/19/19
f 25/25/25 24/24/24 23/23/23
f 26/26/26 25/25/25 23/23/23
f 29/29/29 28/28/28 27/27/27
f 30/30/30 29/29/29 27/27/27
f 33/33/33 32/32/32 31/31/31
f 34/34/34 33/33/33 31/31/31
f 37/37/37 36/36/36 35/35/35
f 38/38/38 37/37/37 35/35/35
f 41/41/41 40/40/40 39/39/39
f 42/42/42 41/41/41 39/39/39
f 45/45/45 44/44/44 43/43/43
f 46/46/46 45/45/45 43/43/43
f 49/49/49 48/48/48 47/47/47
f 50/50/50 49/49/49 47/47/47
f 53/53/53 52/52/52 51/51/51
f 54/54/54 53/53/53 51/51/51
f 57/57/57 56/56/56 55/55/55
f 58/58/58 57/57/57 55/55/55
f 61/61/61 60/60/60 59/59/59
f 62/62/62 61/61/61 59/59/59
f 65/65/65 64/64/64 63/63/63
f 66/66/66 65/65/65 63/63/63
f 69/69/69 68/68/68 67/67/67
f 70/70/70 69/69/69 67/67/67
f 73/73/73 72/72/72 71/71/71
f 74/74/74 73/73/73 71/71/71
f 77/77/77 76/76/76 75/75/75
f 78/78/78 77/77/77 75/75/75
f 81/81/81 80/80/80 79/79/79
f 82/82/82 81/81/81 79/79/79
f 85/85/85 84/84/84 83/83/83
f 86/86/86 85/85/85 83/83/83
f 89/89/89 88/88/88 87/87/87
f 90/90/90 89/89/89 87/87/87
f 93/93/93 92/92/92 91/91/91
f 94/94/94 93/93/93 91/91/91
f 97/97/97 96/96/96 95/95/95
f 98/98/98 97/97/97 95/95/95
f 101/101/101 100/100/100 99/99/99
f 102/102/102 101/101/101 99/99/99
f 105/105/105 104/104/104 103/103/103
f 106/106/106 105/105/105 103/103/103
f 109/109/109 108/108/108 107/107/107
f 110/110/110 109/109/109 107/107/107
f 113/113/113 112/112/112 111/111/111
f 114/114/114 113/113/113 111/111/111
f 117/117/117 116/116/116 115/115/115
f 118/118/118 117/117/117 115/115/115
f 121/121/121 120/120/120 119/119/119
f 122/122/122 121/121/121 119/119/119
