v -0.000000 -0.000000 -0.321059
v -0.153500 -0.000000 -0.160530
v -0.000000 -0.153499 -0.160530
v -0.000000 -0.153499 0.160530
v -0.153500 -0.000000 0.160530
v -0.000000 -0.000000 0.321059
v -0.000000 -0.000000 -0.321059
v -0.000000 0.153499 -0.160530
v -0.153500 -0.000000 -0.160530
v -0.153500 -0.000000 0.160530
v -0.000000 0.153499 0.160530
v -0.000000 -0.000000 0.321059
v -0.000000 -0.153499 -0.160530
v -0.153500 -0.000000 -0.160530
v -0.153500 -0.000000 0.160530
v -0.000000 -0.153499 0.160530
v -0.153500 -0.000000 0.160530
v -0.153500 -0.000000 -0.160530
v -0.000000 0.153499 -0.160530
v -0.000000 0.153499 0.160530
vt 0.316764832 0.242264971
vt 0.316764832 0.242264971
vt 0.316764832 0.242264971
vt 0.316764832 0.242264971
vt 0.316764832 0.242264971
vt 0.316764832 0.242264971
vt 0.316764832 0.242264971
vt 0.316764832 0.242264971
vt 0.316764832 0.242264971
vt 0.316764832 0.242264971
vt 0.316764832 0.242264971
vt 0.316764832 0.242264971
vt 0.316764832 0.242264971
vt 0.316764832 0.242264971
vt 0.316764832 0.242264971
vt 0.316764832 0.242264971
vt 0.316764832 0.242264971
vt 0.316764832 0.242264971
vt 0.316764832 0.242264971
vt 0.316764832 0.242264971
vn -0.585775 -0.585775 -0.560121
vn -0.585775 -0.585775 -0.560121
vn -0.585775 -0.585775 -0.560121
vn -0.585775 -0.585775 0.560121
vn -0.585775 -0.585775 0.560121
vn -0.585775 -0.585775 0.560121
vn -0.585775 0.585775 -0.560121
vn -0.585775 0.585775 -0.560121
vn -0.585775 0.585775 -0.560121
vn -0.585775 0.585775 0.560121
vn -0.585775 0.585775 0.560121
vn -0.585775 0.585775 0.560121
vn -0.707107 -0.707107 -0.000000
vn -0.707107 -0.707107 -0.000000
vn -0.707107 -0.707107 -0.000000
vn -0.707107 -0.707107 -0.000000
vn -0.707107 0.707107 0.000000
vn -0.707107 0.707107 0.000000
vn -0.707107 0.707107 0.000000
vn -0.707107 0.707107 0.000000
f 3/3/3 2/2/2 1/1/1
f 6/6/6 5/5/5 4/4/4
f 9/9/9 8/8/8 7/7/7
f 12/12/12 11/11/11 10/10/10
f 15/15/15 14/14/14 13/13/13
f 16/16/16 15/15/15 13/13/13
f 19/19/19 18/18/18 17/17/17
f 20/20/20 19/19/19 17/17/17
