v 6.499995 -8.500005 -0.000000
v -6.500003 -8.499997 4.250000
v -6.500003 -8.499997 -0.000000
v 6.499995 -8.500005 4.250000
v 6.500004 2.499996 4.250000
v 6.500004 8.499996 0.000000
v 6.500004 8.499996 4.250000
v 6.500004 2.499996 0.000000
v -1.382115 8.399998 2.898455
v -1.382115 9.099998 -0.105131
v -1.382115 9.099998 2.898455
v -1.382115 8.399998 -0.105131
v 6.499995 -8.500005 4.250000
v 6.500004 1.999996 0.000000
v 6.500004 1.999996 4.250000
v 6.499995 -8.500005 -0.000000
v -1.249998 8.999998 2.750000
v -1.249998 8.499998 0.000000
v -1.249998 8.499998 2.750000
v -1.249998 8.999998 0.000000
v 1.250002 8.999998 2.750000
v 1.250002 8.499998 0.000000
v 1.250002 8.999998 0.000000
v 1.250002 8.499998 2.750000
v -2.999999 2.000000 2.750000
v -2.999999 2.500000 0.000000
v -2.999999 2.500000 2.750000
v -2.999999 2.000000 0.000000
v -7.000001 -8.999998 -6.000000
v 6.999995 -9.000005 5.750000
v 7.000000 -9.000000 -6.000000
v -7.000003 -8.999997 6.883025
v -6.500003 -8.499997 4.250000
v -6.499999 2.000000 0.000000
v -6.500003 -8.499997 -0.000000
v -6.499999 2.000000 4.250000
v 2.250002 8.999998 1.000000
v 2.250002 8.499998 3.750000
v 2.250002 8.999998 3.750000
v 2.250002 8.499998 1.000000
v 5.545444 9.099998 0.884602
v 2.111354 8.399998 0.884602
v 5.545444 8.399998 0.884602
v 2.111354 9.099998 0.884602
v -2.892212 2.625293 2.898455
v -2.892212 1.925292 -0.105131
v -2.892212 1.925292 2.898455
v -2.892212 2.625293 -0.105131
v 2.250002 8.999998 1.000000
v 5.500004 8.499996 1.000000
v 2.250002 8.499998 1.000000
v 5.500004 8.999996 1.000000
v 1.328874 9.099998 2.898455
v 1.328874 8.399998 -0.105131
v 1.328874 8.399998 2.898455
v 1.328874 9.099998 -0.105131
v -5.499999 2.500000 2.750000
v -5.499999 2.000000 0.000000
v -5.499999 2.000000 2.750000
v -5.499999 2.500000 0.000000
v -5.499999 9.000000 3.750000
v -5.499999 8.500000 1.000000
v -5.499999 8.500000 3.750000
v -5.499999 9.000000 1.000000
v 5.500004 8.499996 3.750000
v 5.500004 8.999996 1.000000
v 5.500004 8.999996 3.750000
v 5.500004 8.499996 1.000000
v -6.499999 8.500000 4.250000
v -6.499999 2.500000 0.000000
v -6.499999 2.500000 4.250000
v -6.499999 8.500000 0.000000
v -2.249998 8.499998 3.750000
v -2.249998 8.999998 1.000000
v -2.249998 8.999998 3.750000
v -2.249998 8.499998 1.000000
v -5.603200 1.925292 2.898455
v -5.603200 2.625293 -0.105131
v -5.603200 2.625293 2.898455
v -5.603200 1.925292 -0.105131
v 6.499995 -8.500005 4.250000
v -6.499999 2.000000 4.250000
v -6.500003 -8.499997 4.250000
v 6.500004 1.999996 4.250000
v 6.474589 -8.500005 5.750001
v 6.500004 8.499996 4.750000
v 6.474598 8.499996 5.750000
v 6.499995 -8.500005 4.750000
v -1.249998 2.499998 3.750000
v -1.249998 1.999998 1.250000
v -1.249998 1.999998 3.750000
v -1.249998 2.499998 1.250000
v 7.000004 8.999996 5.750000
v 7.000000 -9.000000 -6.000000
v 6.999995 -9.000005 5.750000
v 7.000000 9.000000 -6.000000
v -6.500003 -8.499997 4.750000
v 6.474589 -8.500005 5.750001
v -6.475940 -8.499997 6.883025
v 6.499995 -8.500005 4.750000
v 6.474598 8.499996 5.750000
v -6.499999 8.500000 4.750000
v -6.475936 8.500000 6.883025
v 6.500004 8.499996 4.750000
v -6.499999 8.500000 4.750000
v -6.475940 -8.499997 6.883025
v -6.475936 8.500000 6.883025
v -6.500003 -8.499997 4.750000
v -6.999999 9.000000 6.883025
v -7.000001 -8.999998 -6.000000
v -6.999997 9.000003 -6.000000
v -7.000003 -8.999997 6.883025
v -6.499999 8.500000 4.750000
v 6.499995 -8.500005 4.750000
v -6.500003 -8.499997 4.750000
v 6.500004 8.499996 4.750000
v 5.500004 2.499996 3.750000
v -1.249998 1.999998 3.750000
v 5.500004 1.999996 3.750000
v -1.249998 2.499998 3.750000
v -5.499999 2.500000 2.750000
v -2.999999 2.000000 2.750000
v -2.999999 2.500000 2.750000
v -5.499999 2.000000 2.750000
v -5.499999 8.500000 3.750000
v -2.249998 8.999998 3.750000
v -5.499999 9.000000 3.750000
v -2.249998 8.499998 3.750000
v -1.249998 8.499998 2.750000
v 1.250002 8.999998 2.750000
v -1.249998 8.999998 2.750000
v 1.250002 8.499998 2.750000
v 2.250002 8.499998 3.750000
v 5.500004 8.999996 3.750000
v 2.250002 8.999998 3.750000
v 5.500004 8.499996 3.750000
v -2.145408 9.099998 0.884602
v -5.579499 8.399998 0.884602
v -2.145408 8.399998 0.884602
v -5.579499 9.099998 0.884602
v -2.355493 8.399998 1.084602
v -2.355493 9.099998 3.666760
v -2.355493 8.399998 3.666760
v -2.355493 9.099998 1.084602
v 5.500004 1.999996 3.750000
v 5.500004 2.499996 1.250000
v 5.500004 2.499996 3.750000
v 5.500004 1.999996 1.250000
v -5.369414 9.099998 1.084602
v -5.369414 8.399998 3.666760
v -5.369414 9.099998 3.666760
v -5.369414 8.399998 1.084602
v -2.355493 9.099998 1.084602
v -5.369414 8.399998 1.084602
v -5.369414 9.099998 1.084602
v -2.355493 8.399998 1.084602
v -5.369414 8.399998 3.666760
v -2.355493 9.099998 3.666760
v -5.369414 9.099998 3.666760
v -2.355493 8.399998 3.666760
v -2.145408 9.099998 3.849673
v -2.145408 8.399998 0.884602
v -2.145408 8.399998 3.849673
v -2.145408 9.099998 0.884602
v 5.335360 8.399998 1.084602
v 5.335360 9.099998 3.666760
v 5.335360 8.399998 3.666760
v 5.335360 9.099998 1.084602
v 2.321439 9.099998 1.084602
v 2.321439 8.399998 3.666760
v 2.321439 9.099998 3.666760
v 2.321439 8.399998 1.084602
v 5.335360 9.099998 1.084602
v 2.321439 8.399998 1.084602
v 2.321439 9.099998 1.084602
v 5.335360 8.399998 1.084602
v 5.335360 9.099998 3.849673
v 2.111354 8.399998 3.849673
v 2.111354 9.099998 3.849673
v 5.545444 8.399998 3.849673
v 5.545444 9.099998 3.849673
v 2.321439 8.399998 3.666760
v 5.335360 9.099998 3.666760
v 2.321439 9.099998 3.666760
v 5.335360 8.399998 3.666760
v 1.118789 8.399998 -0.105131
v 1.118789 9.099998 2.715543
v 1.118789 8.399998 2.715543
v 1.118789 9.099998 -0.105131
v -1.382115 9.099998 -0.105131
v -1.172030 8.399998 -0.105131
v -1.172030 9.099998 -0.105131
v -1.382115 8.399998 -0.105131
v -1.172030 9.099998 -0.105131
v -1.172030 8.399998 2.715543
v -1.172030 9.099998 2.715543
v -1.172030 8.399998 -0.105131
v 1.328874 8.399998 -0.105131
v 1.118789 9.099998 -0.105131
v 1.118789 8.399998 -0.105131
v 1.328874 9.099998 -0.105131
v -1.172030 8.399998 2.715543
v 1.118789 9.099998 2.715543
v -1.172030 9.099998 2.715543
v 1.118789 8.399998 2.715543
v 1.328874 9.099998 2.898455
v -1.382115 8.399998 2.898455
v -1.382115 9.099998 2.898455
v 1.328874 8.399998 2.898455
v -3.102297 1.925292 -0.105131
v -3.102297 2.625293 2.715543
v -3.102297 1.925292 2.715543
v -3.102297 2.625293 -0.105131
v -5.603200 2.625293 -0.105131
v -5.393115 1.925292 -0.105131
v -5.393115 2.625293 -0.105131
v -5.603200 1.925292 -0.105131
v -5.393115 2.625293 -0.105131
v -5.393115 1.925292 2.715543
v -5.393115 2.625293 2.715543
v -5.393115 1.925292 -0.105131
v -2.892212 1.925292 -0.105131
v -3.102297 2.625293 -0.105131
v -3.102297 1.925292 -0.105131
v -2.892212 2.625293 -0.105131
v -5.603200 1.925292 2.898455
v -2.892212 2.625293 2.898455
v -2.892212 1.925292 2.898455
v -5.603200 2.625293 2.898455
v -5.393115 1.925292 2.715543
v -3.102297 2.625293 2.715543
v -5.393115 2.625293 2.715543
v -3.102297 1.925292 2.715543
v -1.349998 2.607893 1.282337
v -1.349998 1.907892 1.082337
v -1.349998 2.607893 1.082337
v -1.349998 1.907892 1.282337
v 5.600004 2.607893 1.282337
v -1.349998 2.607893 1.082337
v 5.600004 2.607893 1.082337
v -1.349998 2.607893 1.282337
v 5.600004 1.907892 1.282337
v 5.600004 2.607893 1.082337
v 5.600004 1.907892 1.082337
v 5.600004 2.607893 1.282337
v -1.349998 1.907892 1.282337
v 5.600004 1.907892 1.082337
v -1.349998 1.907892 1.082337
v 5.600004 1.907892 1.282337
v -1.349998 2.607893 1.082337
v 5.600004 1.907892 1.082337
v 5.600004 2.607893 1.082337
v -1.349998 1.907892 1.082337
v 5.600004 2.607893 1.282337
v -1.349998 1.907892 1.282337
v -1.349998 2.607893 1.282337
v 5.600004 1.907892 1.282337
v 0.715682 9.098536 5.558900
v 0.927682 9.098536 5.558899
v 0.821682 9.098536 5.664900
v 0.821681 9.098536 5.452899
v 0.733680 9.098539 4.388900
v 0.911681 9.098536 5.286900
v 0.733681 9.098536 5.286900
v 0.911680 9.098539 4.388899
v 1.725681 9.098537 4.978898
v 1.521681 8.898538 4.978898
v 1.725681 8.898538 4.978898
v 1.521681 9.098537 4.978899
v 1.061681 9.098536 5.360899
v 1.061681 8.898537 5.360898
v 1.725680 9.098539 4.388898
v 1.725681 8.898538 4.978898
v 1.725680 8.898539 4.388897
v 1.725681 9.098537 4.978898
v 1.725680 9.098539 4.388898
v 1.921680 8.898539 4.388897
v 1.921680 9.098539 4.388898
v 1.725680 8.898539 4.388897
v 1.921680 9.098539 4.388898
v 1.921682 8.898535 5.752897
v 1.921682 9.098536 5.752898
v 1.921680 8.898539 4.388897
v 1.061681 9.098536 5.360899
v 1.495682 8.898535 5.752898
v 1.061681 8.898537 5.360898
v 1.495682 9.098536 5.752899
v 1.921682 8.898535 5.752897
v 1.921682 9.098536 5.752898
v 1.503681 9.098536 5.154899
v 1.263681 8.898537 5.368898
v 1.263681 9.098536 5.368899
v 1.503681 8.898537 5.154898
v 1.725681 8.898537 5.154898
v 1.725681 9.098536 5.154898
v 1.495682 9.098536 5.576899
v 1.725682 8.898536 5.576898
v 1.725682 9.098536 5.576898
v 1.495682 8.898536 5.576898
v 1.263681 8.898537 5.368898
v 1.263681 9.098536 5.368899
v 1.725681 9.098536 5.154898
v 1.725682 8.898536 5.576898
v 1.725681 8.898537 5.154898
v 1.725682 9.098536 5.576898
v 0.911681 9.098536 5.286900
v 0.911680 8.898540 4.388899
v 0.911681 8.898537 5.286899
v 0.911680 9.098539 4.388899
v 0.733681 9.098536 5.286900
v 0.911681 8.898537 5.286899
v 0.733681 8.898537 5.286899
v 0.911681 9.098536 5.286900
v 0.733681 9.098536 5.286900
v 0.733680 8.898540 4.388899
v 0.733680 9.098539 4.388900
v 0.733681 8.898537 5.286899
v 0.911680 9.098539 4.388899
v 0.733680 8.898540 4.388899
v 0.911680 8.898540 4.388899
v 0.733680 9.098539 4.388900
v 0.927682 9.098536 5.558899
v 0.821682 8.898536 5.664899
v 0.821682 9.098536 5.664900
v 0.927682 8.898536 5.558899
v 0.715682 9.098536 5.558900
v 0.821682 8.898536 5.664899
v 0.715682 8.898536 5.558899
v 0.821682 9.098536 5.664900
v 0.821681 9.098536 5.452899
v 0.715682 8.898536 5.558899
v 0.821681 8.898536 5.452899
v 0.715682 9.098536 5.558900
v 0.821681 9.098536 5.452899
v 0.927682 8.898536 5.558899
v 0.927682 9.098536 5.558899
v 0.821681 8.898536 5.452899
v -0.206320 9.098538 4.548901
v -0.206320 8.898540 4.388901
v -0.206320 9.098539 4.388901
v -0.206320 8.898539 4.548901
v 0.581680 9.098539 4.388900
v -0.206320 8.898540 4.388901
v 0.581680 8.898540 4.388899
v -0.206320 9.098539 4.388901
v 0.105681 9.098537 5.126901
v 0.581680 8.898540 4.388899
v 0.105681 8.898537 5.126900
v 0.581680 9.098539 4.388900
v 0.561681 9.098537 5.126900
v 0.105681 8.898537 5.126900
v 0.561681 8.898537 5.126899
v 0.105681 9.098537 5.126901
v 0.561681 9.098537 5.126900
v 0.561681 8.898537 5.286900
v 0.561681 9.098536 5.286900
v 0.561681 8.898537 5.126899
v -0.204319 9.098536 5.286901
v 0.561681 8.898537 5.286900
v -0.204319 8.898537 5.286901
v 0.561681 9.098536 5.286900
v 0.273680 9.098538 4.548901
v -0.204319 8.898537 5.286901
v 0.273680 8.898539 4.548900
v -0.204319 9.098536 5.286901
v -0.206320 9.098538 4.548901
v 0.273680 8.898539 4.548900
v -0.206320 8.898539 4.548901
v 0.273680 9.098538 4.548901
v -1.040320 9.098539 4.548903
v -1.040320 8.898540 4.388902
v -1.040320 9.098539 4.388902
v -1.040320 8.898539 4.548902
v -0.252321 9.098539 4.388901
v -1.040320 8.898540 4.388902
v -0.252321 8.898540 4.388901
v -1.040320 9.098539 4.388902
v -0.252321 9.098539 4.388901
v -0.728319 8.898538 5.126901
v -0.728319 9.098537 5.126902
v -0.252321 8.898540 4.388901
v -0.272319 9.098537 5.126901
v -0.728319 8.898538 5.126901
v -0.272319 8.898538 5.126901
v -0.728319 9.098537 5.126902
v -0.272319 9.098536 5.286901
v -0.272319 8.898538 5.126901
v -0.272319 8.898537 5.286901
v -0.272319 9.098537 5.126901
v -1.038319 9.098536 5.286902
v -0.272319 8.898537 5.286901
v -1.038319 8.898537 5.286902
v -0.272319 9.098536 5.286901
v -1.038319 9.098536 5.286902
v -0.560320 8.898539 4.548901
v -0.560320 9.098539 4.548902
v -1.038319 8.898537 5.286902
v -1.040320 9.098539 4.548903
v -0.560320 8.898539 4.548901
v -1.040320 8.898539 4.548902
v -0.560320 9.098539 4.548902
v -1.714321 9.098539 4.370903
v -1.578321 8.898540 4.462903
v -1.578321 9.098539 4.462903
v -1.714321 8.898540 4.370903
v -1.578321 9.098539 4.462903
v -1.336321 8.898540 4.370902
v -1.336321 9.098539 4.370903
v -1.578321 8.898540 4.462903
v -1.336321 9.098539 4.370903
v -1.116320 8.898539 4.590902
v -1.116320 9.098539 4.590902
v -1.336321 8.898540 4.370902
v -1.422320 9.098538 4.874903
v -1.580320 8.898538 4.930902
v -1.580320 9.098538 4.930903
v -1.422320 8.898538 4.874902
v -1.116320 8.898539 4.590902
v -1.116320 9.098539 4.590902
v -1.580320 9.098537 4.978903
v -1.580320 8.898538 4.930902
v -1.580320 8.898538 4.978903
v -1.580320 9.098538 4.930903
v -1.580320 9.098537 4.978903
v -1.418319 8.898538 5.136902
v -1.418319 9.098537 5.136903
v -1.580320 8.898538 4.978903
v -1.418319 9.098537 5.136903
v -1.134320 8.898538 4.988902
v -1.134320 9.098537 4.988903
v -1.418319 8.898538 5.136902
v -1.134320 9.098537 4.988903
v -1.134319 8.898538 5.182902
v -1.134319 9.098537 5.182902
v -1.134320 8.898538 4.988902
v -1.432319 9.098536 5.304903
v -1.134319 8.898538 5.182902
v -1.432319 8.898537 5.304903
v -1.134319 9.098537 5.182902
v -1.432319 9.098536 5.304903
v -1.758320 8.898538 5.008903
v -1.758320 9.098537 5.008903
v -1.432319 8.898537 5.304903
v -1.792320 9.098539 4.500904
v -1.758320 8.898540 4.546903
v -1.792320 8.898540 4.500903
v -1.758320 9.098539 4.546904
v -1.758320 9.098537 5.008903
v -1.758320 8.898538 5.008903
v -1.792320 9.098539 4.500904
v -1.886320 8.898540 4.548903
v -1.886320 9.098539 4.548903
v -1.792320 8.898540 4.500903
v -1.886321 9.098539 4.440904
v -1.886320 8.898540 4.548903
v -1.886321 8.898540 4.440903
v -1.886320 9.098539 4.548903
v -1.714321 9.098539 4.370903
v -1.886321 8.898540 4.440903
v -1.714321 8.898540 4.370903
v -1.886321 9.098539 4.440904
v -1.296320 9.098538 4.622903
v -1.424320 8.898540 4.496902
v -1.424320 9.098539 4.496903
v -1.296320 8.898539 4.622902
v -1.424320 9.098539 4.496903
v -1.580320 8.898539 4.570903
v -1.580320 9.098539 4.570903
v -1.424320 8.898540 4.496902
v -1.580320 9.098539 4.570903
v -1.580320 8.898539 4.832902
v -1.580320 9.098538 4.832903
v -1.580320 8.898539 4.570903
v -1.296320 9.098538 4.622903
v -1.580320 8.898539 4.832902
v -1.296320 8.898539 4.622902
v -1.580320 9.098538 4.832903
v 5.500004 1.999996 1.250000
v 2.250002 2.499998 1.250000
v 5.500004 2.499996 1.250000
v 2.250002 1.999998 1.250000
v -1.249998 1.999998 1.250000
v -1.249998 2.499998 1.250000
v 0.561681 9.098536 5.286900
v 0.105681 9.098537 5.126901
v 0.561681 9.098537 5.126900
v -0.204319 9.098536 5.286901
v 0.273680 9.098538 4.548901
v 0.581680 9.098539 4.388900
v -0.206320 9.098539 4.388901
v -0.206320 9.098538 4.548901
v 6.499995 -8.500005 -0.000000
v 5.500004 1.999996 0.000000
v 6.500004 1.999996 0.000000
v 2.250002 1.999998 0.000000
v -6.500003 -8.499997 -0.000000
v -2.999999 2.000000 0.000000
v -5.499999 2.000000 0.000000
v -6.499999 2.000000 0.000000
v -5.499999 2.500000 0.000000
v -2.999999 2.500000 0.000000
v -2.999999 8.500000 0.000000
v -6.499999 8.500000 0.000000
v -6.499999 2.500000 0.000000
v -2.249998 8.499998 0.000000
v -1.249998 8.499998 0.000000
v 2.250002 2.499998 0.000000
v 1.250002 8.499998 0.000000
v -1.249998 8.999998 0.000000
v 1.250002 8.999998 0.000000
v 6.500004 8.499996 0.000000
v 5.500004 2.499996 0.000000
v 6.500004 2.499996 0.000000
v -6.499999 8.500000 4.250000
v -6.499999 2.500000 4.250000
v 2.250002 8.499998 4.250000
v 6.500004 2.499996 4.250000
v 5.500004 8.499996 4.250000
v 6.500004 8.499996 4.250000
v -5.393115 2.625293 -0.105131
v -5.393115 2.625293 2.715543
v -5.603200 2.625293 -0.105131
v -5.603200 2.625293 2.898455
v -3.102297 2.625293 2.715543
v -2.892212 2.625293 2.898455
v -2.892212 2.625293 -0.105131
v -3.102297 2.625293 -0.105131
v -3.102297 1.925292 -0.105131
v -3.102297 1.925292 2.715543
v -2.892212 1.925292 -0.105131
v -2.892212 1.925292 2.898455
v -5.393115 1.925292 2.715543
v -5.603200 1.925292 2.898455
v -5.603200 1.925292 -0.105131
v -5.393115 1.925292 -0.105131
v -2.249998 8.499998 1.000000
v -2.999999 8.500000 1.000000
v -2.249998 8.999998 1.000000
v -2.999999 9.000000 1.000000
v -5.499999 8.500000 1.000000
v -5.499999 9.000000 1.000000
v 5.545444 8.399998 0.884602
v 5.545444 8.399998 3.666760
v 5.545444 9.099998 0.884602
v 5.545444 9.099998 3.849673
v 5.545444 8.399998 3.849673
v -2.355493 8.399998 3.849673
v -2.145408 9.099998 3.849673
v -2.145408 8.399998 3.849673
v -2.355493 9.099998 3.849673
v -5.369414 9.099998 3.849673
v -5.579499 8.399998 3.849673
v -5.579499 9.099998 3.849673
v -5.579499 8.399998 0.884602
v -5.579499 9.099998 0.884602
v -5.579499 8.399998 3.666760
v -5.579499 9.099998 3.849673
v -5.579499 8.399998 3.849673
v -5.499999 2.500000 0.000000
v -5.499999 2.500000 2.750000
v -6.499999 2.500000 0.000000
v -6.499999 2.500000 4.250000
v -2.999999 2.500000 2.750000
v -1.249998 2.499998 3.750000
v 6.500004 2.499996 4.250000
v 5.500004 2.499996 3.750000
v -1.249998 2.499998 1.250000
v -2.999999 2.500000 0.000000
v 5.500004 2.499996 1.250000
v 2.250002 2.499998 0.000000
v 2.250002 2.499998 1.250000
v 6.500004 2.499996 0.000000
v 5.500004 2.499996 0.000000
v 2.111354 8.399998 3.849673
v 2.111354 9.099998 3.666760
v 2.111354 9.099998 3.849673
v 2.111354 8.399998 3.666760
v 2.111354 8.399998 0.884602
v 2.111354 9.099998 0.884602
v -1.172030 9.099998 -0.105131
v -1.172030 9.099998 2.715543
v -1.382115 9.099998 -0.105131
v -1.382115 9.099998 2.898455
v 1.118789 9.099998 2.715543
v 1.328874 9.099998 2.898455
v 1.328874 9.099998 -0.105131
v 1.118789 9.099998 -0.105131
v 1.118789 8.399998 2.715543
v 1.328874 8.399998 -0.105131
v 1.118789 8.399998 -0.105131
v 1.328874 8.399998 2.898455
v -1.172030 8.399998 2.715543
v -1.382115 8.399998 2.898455
v -1.382115 8.399998 -0.105131
v -1.172030 8.399998 -0.105131
v -1.134319 9.098537 5.182902
v -1.418319 9.098537 5.136903
v -1.134320 9.098537 4.988903
v -1.432319 9.098536 5.304903
v -1.758320 9.098537 5.008903
v -1.580320 9.098537 4.978903
v -1.580320 9.098538 4.930903
v -1.580320 9.098538 4.832903
v -1.422320 9.098538 4.874903
v -1.758320 9.098539 4.546904
v -1.296320 9.098538 4.622903
v -1.116320 9.098539 4.590902
v -1.336321 9.098539 4.370903
v -1.580320 9.098539 4.570903
v -1.424320 9.098539 4.496903
v -1.578321 9.098539 4.462903
v -1.714321 9.098539 4.370903
v -1.792320 9.098539 4.500904
v -1.886321 9.098539 4.440904
v -1.886320 9.098539 4.548903
v -0.272319 9.098536 5.286901
v -0.728319 9.098537 5.126902
v -0.272319 9.098537 5.126901
v -1.038319 9.098536 5.286902
v -0.560320 9.098539 4.548902
v -0.252321 9.098539 4.388901
v -1.040320 9.098539 4.388902
v -1.040320 9.098539 4.548903
v -6.499999 2.000000 0.000000
v -5.499999 2.000000 2.750000
v -5.499999 2.000000 0.000000
v -6.499999 2.000000 4.250000
v -2.999999 2.000000 2.750000
v -1.249998 1.999998 3.750000
v 6.500004 1.999996 4.250000
v 5.500004 1.999996 3.750000
v -1.249998 1.999998 1.250000
v -2.999999 2.000000 0.000000
v 2.250002 1.999998 0.000000
v 2.250002 1.999998 1.250000
v 5.500004 1.999996 0.000000
v 5.500004 1.999996 1.250000
v 6.500004 1.999996 0.000000
v 1.921680 9.098539 4.388898
v 1.725681 9.098537 4.978898
v 1.725680 9.098539 4.388898
v 1.725681 9.098536 5.154898
v 1.921682 9.098536 5.752898
v 1.521681 9.098537 4.978899
v 1.725682 9.098536 5.576898
v 1.503681 9.098536 5.154899
v 1.061681 9.098536 5.360899
v 1.263681 9.098536 5.368899
v 1.495682 9.098536 5.752899
v 1.495682 9.098536 5.576899
v 6.474598 8.499996 5.750000
v 5.478403 8.999996 5.837156
v 6.474598 8.999996 5.750000
v 7.000004 8.999996 5.750000
v 2.240769 8.999998 6.120412
v 6.999995 -9.000005 5.750000
v 6.474589 -8.500005 5.750001
v -6.475936 8.500000 6.883025
v -7.000003 -8.999997 6.883025
v -6.475940 -8.499997 6.883025
v -6.475936 9.000000 6.883025
v -6.999999 9.000000 6.883025
v 5.335360 8.399998 3.666760
v 5.545444 8.399998 3.849673
v 5.545444 8.399998 3.666760
v 2.111354 8.399998 3.849673
v 2.321439 8.399998 3.666760
v 2.111354 8.399998 3.666760
v 2.321439 8.399998 1.084602
v 2.111354 8.399998 0.884602
v 5.335360 8.399998 1.084602
v 5.545444 8.399998 0.884602
v -5.369414 8.399998 1.084602
v -5.579499 8.399998 0.884602
v -5.579499 8.399998 3.666760
v -2.145408 8.399998 0.884602
v -2.355493 8.399998 1.084602
v -2.145408 8.399998 3.849673
v -2.355493 8.399998 3.666760
v -2.355493 8.399998 3.849673
v -5.369414 8.399998 3.666760
v -5.579499 8.399998 3.849673
v -5.499999 9.000000 1.000000
v -6.999997 9.000003 -6.000000
v -2.999997 9.000003 -6.000000
v -6.999999 9.000000 6.883025
v -5.499999 9.000000 3.750000
v -6.475936 9.000000 6.883025
v -2.249998 8.999998 3.750000
v -2.999999 9.000000 1.000000
v 2.240769 8.999998 6.120412
v -1.249998 8.999998 0.000000
v -2.249998 8.999998 1.000000
v -1.249998 8.999998 2.750000
v 1.250002 8.999998 0.000000
v 1.250002 8.999998 2.750000
v 5.500000 9.000000 -6.000000
v 2.250002 8.999998 3.750000
v 5.478403 8.999996 5.837156
v 2.250002 8.999998 1.000000
v 5.500004 8.999996 3.750000
v 6.474598 8.999996 5.750000
v 7.000004 8.999996 5.750000
v 5.500004 8.999996 1.000000
v 7.000000 9.000000 -6.000000
v -2.249998 8.499998 1.000000
v -1.249998 8.499998 0.000000
v -2.249998 8.499998 0.000000
v -1.249998 8.499998 2.750000
v -2.999999 8.500000 1.000000
v -2.999999 8.500000 0.000000
v -5.499999 8.500000 1.000000
v -6.499999 8.500000 0.000000
v -6.499999 8.500000 4.250000
v -5.499999 8.500000 3.750000
v -2.249998 8.499998 3.750000
v 2.250002 8.499998 4.250000
v 1.250002 8.499998 2.750000
v 2.250002 8.499998 3.750000
v 5.500004 8.499996 3.750000
v 5.500004 8.499996 4.250000
v 6.500004 8.499996 4.250000
v 5.500004 8.499996 1.000000
v 6.500004 8.499996 0.000000
v 2.250002 8.499998 1.000000
v 1.250002 8.499998 0.000000
v 5.335360 9.099998 3.849673
v 2.111354 9.099998 3.849673
v 2.321439 9.099998 3.666760
v 2.111354 9.099998 3.666760
v 5.335360 9.099998 3.666760
v 2.321439 9.099998 1.084602
v 5.545444 9.099998 3.849673
v 2.111354 9.099998 0.884602
v 5.335360 9.099998 1.084602
v 5.545444 9.099998 0.884602
v -5.369414 9.099998 3.849673
v -2.355493 9.099998 3.666760
v -2.355493 9.099998 3.849673
v -2.145408 9.099998 3.849673
v -5.369414 9.099998 3.666760
v -2.355493 9.099998 1.084602
v -5.579499 9.099998 3.849673
v -2.145408 9.099998 0.884602
v -5.369414 9.099998 1.084602
v -5.579499 9.099998 0.884602
vt 0.829940557 0.710597694
vt 0.825626254 0.723636925
vt 0.829940557 0.723636925
vt 0.825626254 0.710597694
vt 0.828904629 0.749715507
vt 0.824590325 0.755733669
vt 0.828904629 0.755733669
vt 0.824590325 0.749715507
vt 0.654749155 0.728817105
vt 0.646419168 0.693972349
vt 0.646419168 0.728817105
vt 0.654749155 0.693972349
vt 0.812662482 0.741691291
vt 0.808348179 0.752223074
vt 0.812662482 0.752223074
vt 0.808348179 0.741691291
vt 0.586229205 0.802759349
vt 0.586736679 0.805517733
vt 0.586736679 0.802759349
vt 0.586229205 0.805517733
vt 0.585214019 0.805517733
vt 0.585721612 0.802759349
vt 0.585214019 0.802759349
vt 0.585721612 0.805517733
vt 0.537438095 0.784312606
vt 0.537945628 0.78707099
vt 0.537945628 0.784312606
vt 0.537438095 0.78707099
vt 0.122180551 0.7575562
vt 0.110252708 0.771598458
vt 0.122180551 0.771598458
vt 0.109102517 0.7575562
vt 0.820276022 0.752223074
vt 0.815961719 0.741691291
vt 0.815961719 0.752223074
vt 0.820276022 0.741691291
vt 0.588259459 0.802759349
vt 0.587751865 0.805517733
vt 0.588259459 0.805517733
vt 0.587751865 0.802759349
vt 0.629759192 0.614294112
vt 0.63808918 0.654133201
vt 0.63808918 0.614294112
vt 0.629759192 0.654133201
vt 0.646419168 0.728817105
vt 0.63808918 0.693972349
vt 0.63808918 0.728817105
vt 0.646419168 0.693972349
vt 0.584706426 0.802259028
vt 0.585214019 0.805517733
vt 0.585214019 0.802259028
vt 0.584706426 0.805517733
vt 0.654749095 0.649138927
vt 0.646419168 0.614294112
vt 0.646419168 0.649138927
vt 0.654749095 0.614294112
vt 0.539468348 0.78707099
vt 0.538960814 0.784312606
vt 0.538960814 0.78707099
vt 0.539468348 0.784312606
vt 0.586736679 0.802759349
vt 0.587244272 0.805517733
vt 0.587244272 0.802759349
vt 0.586736679 0.805517733
vt 0.588259459 0.802759349
vt 0.588767052 0.805517733
vt 0.588767052 0.802759349
vt 0.588259459 0.805517733
vt 0.824590325 0.749715507
vt 0.820276022 0.755733669
vt 0.824590325 0.755733669
vt 0.820276022 0.749715507
vt 0.586229205 0.805517733
vt 0.585721612 0.802759349
vt 0.585721612 0.805517733
vt 0.586229205 0.802759349
vt 0.543590188 0.728817105
vt 0.53526026 0.693972349
vt 0.53526026 0.728817105
vt 0.543590248 0.693972349
vt 0.359403789 0.302157402
vt 0.348744899 0.315196753
vt 0.359403789 0.315196753
vt 0.348744869 0.302157402
vt 0.096024543 0.771598458
vt 0.0950094163 0.788649797
vt 0.096024543 0.788649797
vt 0.0950094163 0.771598458
vt 0.913107634 0.740541935
vt 0.913615227 0.742798805
vt 0.913615227 0.740541935
vt 0.913107634 0.742798805
vt 0.109216779 0.789652824
vt 0.121144563 0.771598458
vt 0.109216779 0.771598458
vt 0.121144563 0.789652824
vt 0.1088489 0.802189827
vt 0.107685238 0.789188147
vt 0.106683463 0.802189827
vt 0.108700007 0.789151311
vt 0.128385574 0.784612298
vt 0.1294007 0.771598458
vt 0.127235383 0.771622598
vt 0.1294007 0.78463769
vt 0.129773229 0.78463769
vt 0.131938547 0.801689148
vt 0.131938547 0.78463769
vt 0.129773229 0.801689148
vt 0.109102517 0.771598458
vt 0.096024543 0.753544092
vt 0.096024543 0.771598458
vt 0.109102517 0.753544092
vt 0.341886491 0.733309567
vt 0.355078697 0.716258228
vt 0.341886491 0.716258228
vt 0.355078697 0.733309567
vt 0.891878843 0.773892403
vt 0.892386436 0.780662775
vt 0.892386436 0.773892403
vt 0.891878843 0.780662775
vt 0.539975941 0.78707099
vt 0.540483475 0.784563422
vt 0.539975941 0.784563422
vt 0.540483475 0.78707099
vt 0.584198833 0.805517733
vt 0.583691359 0.802257836
vt 0.583691359 0.805517733
vt 0.584198833 0.802257836
vt 0.589782119 0.805517733
vt 0.589274526 0.803010166
vt 0.589274526 0.805517733
vt 0.589782119 0.803010166
vt 0.583691359 0.805517733
vt 0.583183765 0.802257836
vt 0.583183765 0.805517733
vt 0.583691359 0.802257836
vt 0.63808918 0.614294112
vt 0.646419168 0.654133201
vt 0.646419168 0.614294112
vt 0.63808918 0.654133201
vt 0.67140907 0.726695061
vt 0.663079083 0.756650925
vt 0.67140907 0.756650925
vt 0.663079083 0.726695061
vt 0.91412282 0.742798805
vt 0.913615227 0.740541935
vt 0.913615227 0.742798805
vt 0.91412282 0.740541935
vt 0.53526026 0.75877285
vt 0.543590188 0.728817105
vt 0.53526026 0.728817105
vt 0.543590188 0.75877285
vt 0.553884506 0.693972349
vt 0.545554519 0.72893703
vt 0.553884506 0.72893703
vt 0.545554519 0.693972349
vt 0.526930273 0.693972349
vt 0.53526026 0.72893703
vt 0.53526026 0.693972349
vt 0.526930273 0.72893703
vt 0.663079083 0.693972349
vt 0.654749155 0.65957433
vt 0.654749155 0.693972349
vt 0.663079083 0.65957433
vt 0.663079083 0.728370309
vt 0.654749155 0.758326054
vt 0.663079083 0.758326054
vt 0.654749155 0.728370309
vt 0.646419168 0.75877285
vt 0.654749155 0.728817105
vt 0.646419168 0.728817105
vt 0.654749155 0.75877285
vt 0.629759252 0.72893703
vt 0.63808918 0.693972349
vt 0.629759252 0.693972349
vt 0.63808918 0.72893703
vt 0.646419168 0.656570435
vt 0.63808918 0.693972349
vt 0.646419168 0.693972349
vt 0.63808918 0.654133201
vt 0.646419168 0.654133201
vt 0.553884506 0.693972349
vt 0.562214494 0.72893703
vt 0.562214494 0.693972349
vt 0.553884506 0.72893703
vt 0.605828583 0.723822832
vt 0.597498655 0.756545663
vt 0.605828583 0.756545663
vt 0.597498655 0.723822832
vt 0.594998658 0.702093005
vt 0.597498655 0.71021378
vt 0.597498655 0.702093005
vt 0.594998658 0.71021378
vt 0.663079083 0.726695061
vt 0.67140907 0.693972349
vt 0.663079083 0.693972349
vt 0.67140907 0.726695061
vt 0.597498655 0.702093005
vt 0.594998658 0.693972349
vt 0.594998658 0.702093005
vt 0.597498655 0.693972349
vt 0.562214494 0.728817105
vt 0.570544422 0.755393028
vt 0.570544422 0.728817105
vt 0.562214494 0.755393028
vt 0.605828583 0.755273104
vt 0.614158571 0.723822832
vt 0.605828583 0.723822832
vt 0.614158571 0.755273104
vt 0.67140907 0.616416097
vt 0.663079083 0.649138927
vt 0.67140907 0.649138927
vt 0.663079083 0.616416097
vt 0.594998658 0.71021378
vt 0.597498655 0.718334556
vt 0.597498655 0.71021378
vt 0.594998658 0.718334556
vt 0.67140907 0.65957433
vt 0.663079083 0.692297101
vt 0.67140907 0.692297101
vt 0.663079083 0.65957433
vt 0.594998658 0.718334556
vt 0.597498655 0.726455331
vt 0.597498655 0.718334556
vt 0.594998658 0.726455331
vt 0.621429265 0.755273104
vt 0.629759192 0.723822832
vt 0.621429265 0.723822832
vt 0.629759192 0.755273104
vt 0.646419168 0.755393028
vt 0.63808918 0.728817105
vt 0.63808918 0.755393028
vt 0.646419168 0.728817105
vt 0.889099717 0.24191916
vt 0.890871763 0.243703961
vt 0.890871763 0.24191916
vt 0.889099717 0.243703961
vt 0.889099717 0.257854909
vt 0.887327611 0.240134329
vt 0.887327611 0.257854909
vt 0.889099717 0.240134329
vt 0.890871763 0.24191916
vt 0.889099717 0.240134329
vt 0.889099717 0.24191916
vt 0.890871763 0.240134329
vt 0.885555565 0.240134329
vt 0.887327611 0.257854909
vt 0.887327611 0.240134329
vt 0.885555565 0.257854909
vt 0.879353404 0.240134329
vt 0.873151183 0.257854879
vt 0.879353404 0.257854879
vt 0.873151183 0.240134329
vt 0.879353404 0.257854879
vt 0.885555565 0.240134329
vt 0.879353404 0.240134329
vt 0.885555565 0.257854879
vt 0.624989748 0.733532488
vt 0.623561561 0.734891891
vt 0.624989748 0.734891891
vt 0.623561561 0.733532488
vt 0.623899221 0.735190988
vt 0.62220341 0.743334234
vt 0.623899221 0.743334234
vt 0.62220341 0.735190988
vt 0.618392527 0.743334234
vt 0.620297968 0.745172858
vt 0.620297968 0.743334234
vt 0.618392527 0.745172858
vt 0.618392527 0.749701321
vt 0.620297968 0.749701321
vt 0.629277885 0.726423323
vt 0.631183326 0.73173207
vt 0.631183326 0.726423323
vt 0.629277885 0.73173207
vt 0.629615545 0.739801705
vt 0.631471455 0.741615355
vt 0.631471455 0.739801705
vt 0.629615545 0.741615355
vt 0.62220341 0.735190988
vt 0.620297968 0.747464716
vt 0.62220341 0.747464716
vt 0.620297968 0.735190988
vt 0.623561561 0.726346076
vt 0.625467002 0.729712009
vt 0.625467002 0.726346076
vt 0.623561561 0.729712009
vt 0.625467002 0.733532488
vt 0.623561561 0.733532488
vt 0.608408093 0.748849034
vt 0.606502652 0.751288772
vt 0.608408093 0.751288772
vt 0.606502652 0.748849034
vt 0.606502652 0.74685806
vt 0.608408093 0.74685806
vt 0.627710104 0.751309276
vt 0.629615545 0.749236345
vt 0.627710104 0.749236345
vt 0.629615545 0.751309276
vt 0.629615545 0.753191888
vt 0.627710104 0.753191888
vt 0.625804663 0.753269434
vt 0.623899221 0.74947232
vt 0.623899221 0.753269434
vt 0.625804663 0.74947232
vt 0.62165612 0.7344262
vt 0.619750738 0.726345658
vt 0.619750738 0.7344262
vt 0.62165612 0.726345658
vt 0.623880565 0.743334234
vt 0.62220341 0.745147884
vt 0.623880565 0.745147884
vt 0.62220341 0.743334234
vt 0.62165612 0.7344262
vt 0.623561561 0.726346076
vt 0.62165612 0.726346076
vt 0.623561561 0.7344262
vt 0.618286908 0.743334234
vt 0.616601467 0.745147884
vt 0.618286908 0.745147884
vt 0.616601467 0.743334234
vt 0.627710104 0.733683288
vt 0.628858387 0.735496938
vt 0.628858387 0.733683288
vt 0.627710104 0.735496938
vt 0.618392527 0.750774622
vt 0.620297968 0.751608908
vt 0.620297968 0.750774622
vt 0.618392527 0.751608908
vt 0.618392527 0.749701321
vt 0.620297968 0.750774622
vt 0.620297968 0.749701321
vt 0.618392527 0.750774622
vt 0.609300256 0.752299011
vt 0.608408093 0.750485361
vt 0.608408093 0.752299011
vt 0.609300256 0.750485361
vt 0.623777628 0.748775184
vt 0.62226516 0.746961534
vt 0.62226516 0.748775184
vt 0.623777628 0.746961534
vt 0.627372444 0.726423323
vt 0.629277885 0.733525395
vt 0.629277885 0.726423323
vt 0.627372444 0.733525395
vt 0.625804663 0.735190988
vt 0.627710104 0.742366612
vt 0.627710104 0.735190988
vt 0.625804663 0.742366612
vt 0.629615545 0.746476471
vt 0.631520987 0.750586271
vt 0.631520987 0.746476471
vt 0.629615545 0.750586271
vt 0.609920681 0.74867171
vt 0.608408093 0.74685806
vt 0.608408093 0.74867171
vt 0.609920681 0.74685806
vt 0.629615545 0.742366612
vt 0.627710104 0.735496938
vt 0.627710104 0.742366612
vt 0.629615545 0.735496938
vt 0.627372444 0.733525395
vt 0.625467002 0.726346076
vt 0.625467002 0.733525395
vt 0.627372444 0.726346076
vt 0.631520987 0.739801705
vt 0.629615545 0.735496938
vt 0.629615545 0.739801705
vt 0.631520987 0.735496938
vt 0.618286848 0.748775184
vt 0.616774321 0.746961534
vt 0.616774321 0.748775184
vt 0.618286848 0.746961534
vt 0.623899221 0.742370248
vt 0.625804663 0.74947232
vt 0.625804663 0.742370248
vt 0.623899221 0.74947232
vt 0.625804663 0.749542296
vt 0.627710104 0.742366612
vt 0.625804663 0.742366612
vt 0.627710104 0.749542296
vt 0.631520987 0.746476471
vt 0.629615545 0.742366612
vt 0.629615545 0.746476471
vt 0.631520987 0.742366612
vt 0.616774321 0.746961534
vt 0.618286908 0.745147884
vt 0.616774321 0.745147884
vt 0.618286908 0.746961534
vt 0.627710104 0.742366612
vt 0.629615545 0.749236345
vt 0.629615545 0.742366612
vt 0.627710104 0.749236345
vt 0.623899221 0.742370248
vt 0.625804663 0.735190988
vt 0.623899221 0.735190988
vt 0.625804663 0.742370248
vt 0.62220341 0.751769483
vt 0.620297968 0.747464716
vt 0.620297968 0.751769483
vt 0.62220341 0.747464716
vt 0.612790585 0.748503506
vt 0.614696026 0.747369945
vt 0.612790585 0.747369945
vt 0.614696026 0.748503506
vt 0.612790585 0.747369945
vt 0.614696026 0.745096684
vt 0.612790585 0.745096684
vt 0.614696026 0.747369945
vt 0.612790585 0.745096684
vt 0.614696026 0.743334234
vt 0.612790585 0.743334234
vt 0.614696026 0.745096684
vt 0.604597211 0.748350263
vt 0.606502652 0.74685806
vt 0.604597211 0.74685806
vt 0.606502652 0.748350263
vt 0.606502652 0.751475871
vt 0.604597211 0.751475871
vt 0.612790585 0.738714814
vt 0.612336814 0.740528405
vt 0.612790585 0.740528405
vt 0.612336814 0.738714814
vt 0.614696026 0.752706528
vt 0.616601467 0.751404703
vt 0.614696026 0.751404703
vt 0.616601467 0.752706528
vt 0.614696026 0.751404703
vt 0.616601467 0.748696804
vt 0.614696026 0.748696804
vt 0.616601467 0.751404703
vt 0.614696026 0.751937509
vt 0.612861991 0.750123858
vt 0.612861991 0.751937509
vt 0.614696026 0.750123858
vt 0.616601467 0.74617058
vt 0.614696026 0.743334234
vt 0.614696026 0.74617058
vt 0.616601467 0.743334234
vt 0.616601467 0.74617058
vt 0.614696026 0.748696804
vt 0.616601467 0.748696804
vt 0.614696026 0.74617058
vt 0.610199213 0.74685806
vt 0.612104654 0.747233629
vt 0.612104654 0.74685806
vt 0.610199213 0.747233629
vt 0.610199153 0.751390696
vt 0.612104654 0.751390696
vt 0.622824252 0.748775184
vt 0.623777628 0.750588834
vt 0.623777628 0.748775184
vt 0.622824252 0.750588834
vt 0.61726588 0.750588834
vt 0.618286848 0.748775184
vt 0.61726588 0.748775184
vt 0.618286848 0.750588834
vt 0.612790585 0.748503506
vt 0.614696026 0.750123799
vt 0.614696026 0.748503506
vt 0.612790585 0.750123799
vt 0.609447598 0.750485361
vt 0.608408093 0.74867171
vt 0.608408093 0.750485361
vt 0.609447598 0.74867171
vt 0.62220341 0.745147884
vt 0.623777628 0.746961534
vt 0.623777628 0.745147884
vt 0.62220341 0.746961534
vt 0.625804663 0.751899898
vt 0.627710104 0.749542296
vt 0.625804663 0.749542296
vt 0.627710104 0.751899898
vt 0.629277885 0.73173207
vt 0.631183326 0.734502077
vt 0.631183326 0.73173207
vt 0.629277885 0.734502077
vt 0.883700371 0.293666601
vt 0.883192778 0.290407896
vt 0.883192778 0.293666601
vt 0.883700371 0.290407896
vt 0.883700371 0.286898494
vt 0.883192778 0.286898494
vt 0.612981141 0.743334234
vt 0.617325544 0.741883337
vt 0.612981141 0.741883337
vt 0.620278955 0.743334234
vt 0.615724981 0.736641884
vt 0.612790585 0.735190988
vt 0.620297968 0.735190988
vt 0.620297968 0.736641884
vt 0.145830765 0.239438474
vt 0.146845534 0.22890681
vt 0.145830736 0.22890681
vt 0.150143579 0.22890681
vt 0.159022972 0.239438474
vt 0.155471221 0.22890681
vt 0.158008203 0.22890681
vt 0.159022972 0.22890681
vt 0.158008203 0.228405297
vt 0.155471221 0.228405297
vt 0.155471221 0.222387135
vt 0.159022972 0.222387135
vt 0.159022972 0.228405297
vt 0.154710129 0.222387135
vt 0.15369533 0.222387135
vt 0.150143579 0.228405297
vt 0.151158378 0.222387135
vt 0.15369533 0.221885622
vt 0.151158378 0.221885622
vt 0.145830765 0.222387135
vt 0.146845534 0.228405297
vt 0.145830736 0.228405297
vt 0.373864889 0.297643781
vt 0.379955709 0.297643781
vt 0.373864889 0.288867354
vt 0.379955709 0.284604549
vt 0.373864889 0.285607576
vt 0.373864889 0.284604549
vt 0.599998653 0.723822832
vt 0.599998653 0.691100001
vt 0.597498655 0.723822832
vt 0.597498655 0.688977957
vt 0.627259195 0.691100001
vt 0.629759192 0.688977957
vt 0.629759192 0.723822832
vt 0.627259195 0.723822832
vt 0.564714491 0.728817105
vt 0.564714491 0.696094275
vt 0.562214494 0.728817105
vt 0.562214494 0.693972349
vt 0.591975093 0.696094275
vt 0.594475091 0.693972349
vt 0.594475091 0.728817105
vt 0.591975093 0.728817105
vt 0.584706426 0.805517733
vt 0.584706426 0.804765642
vt 0.584198952 0.805517733
vt 0.584198833 0.804765642
vt 0.584706426 0.802259028
vt 0.584198952 0.802259028
vt 0.654749155 0.693972349
vt 0.654749155 0.726248264
vt 0.663079083 0.693972349
vt 0.663079083 0.728370309
vt 0.654749155 0.728370309
vt 0.629759252 0.656570435
vt 0.63808918 0.654133201
vt 0.629759252 0.654133201
vt 0.63808918 0.656570435
vt 0.63808918 0.691535115
vt 0.629759252 0.693972349
vt 0.63808918 0.693972349
vt 0.663079083 0.614740968
vt 0.654749095 0.614740968
vt 0.663079083 0.647016883
vt 0.654749095 0.649138927
vt 0.663079083 0.649138927
vt 0.825626254 0.722633898
vt 0.822834611 0.722633898
vt 0.825626254 0.723636925
vt 0.821311951 0.723636925
vt 0.822834611 0.720126331
vt 0.821819544 0.718371093
vt 0.821311951 0.710597694
vt 0.821819544 0.711600661
vt 0.824103594 0.718371093
vt 0.825626254 0.720126331
vt 0.824103594 0.711600661
vt 0.825626254 0.714860499
vt 0.824103594 0.714860499
vt 0.825626254 0.710597694
vt 0.825626254 0.711600661
vt 0.654749155 0.693972349
vt 0.646419168 0.691850305
vt 0.646419168 0.693972349
vt 0.654749155 0.691850305
vt 0.654749155 0.65957433
vt 0.646419168 0.65957433
vt 0.599998653 0.688977957
vt 0.599998653 0.656255186
vt 0.597498655 0.688977957
vt 0.597498655 0.654133201
vt 0.627259195 0.656255186
vt 0.629759252 0.654133201
vt 0.629759252 0.688977957
vt 0.627259254 0.688977957
vt 0.599998593 0.62141037
vt 0.597498655 0.654133201
vt 0.599998593 0.654133201
vt 0.597498655 0.619288385
vt 0.627259195 0.62141037
vt 0.629759192 0.619288385
vt 0.629759192 0.654133201
vt 0.627259195 0.654133201
vt 0.6144678 0.734849572
vt 0.616956949 0.733757317
vt 0.613972306 0.733154714
vt 0.617514551 0.735190988
vt 0.619750738 0.731812477
vt 0.618040323 0.731983125
vt 0.617917776 0.731563807
vt 0.617667437 0.730707586
vt 0.616324544 0.731458604
vt 0.618570745 0.727776289
vt 0.614524424 0.729563415
vt 0.612790585 0.729721367
vt 0.614247978 0.727264583
vt 0.616998315 0.728418708
vt 0.615377486 0.728151441
vt 0.616704106 0.727479994
vt 0.617717445 0.726345658
vt 0.618765354 0.727291822
vt 0.619474888 0.726539075
vt 0.619750738 0.727482617
vt 0.604787767 0.74685806
vt 0.609132171 0.745407164
vt 0.604787767 0.745407164
vt 0.612085581 0.74685806
vt 0.607531607 0.74016571
vt 0.604597211 0.738714814
vt 0.612104654 0.738714814
vt 0.612104654 0.74016571
vt 0.824590325 0.749715507
vt 0.827381968 0.74871248
vt 0.824590325 0.74871248
vt 0.828904629 0.749715507
vt 0.827381968 0.746204913
vt 0.828397036 0.744449675
vt 0.828904629 0.736676157
vt 0.828397036 0.737679183
vt 0.826112986 0.744449675
vt 0.824590325 0.746204913
vt 0.824590325 0.740939081
vt 0.826112986 0.740939081
vt 0.824590325 0.737679183
vt 0.826112986 0.737679183
vt 0.824590325 0.736676157
vt 0.604597211 0.726345658
vt 0.606464565 0.73169595
vt 0.606464565 0.726345658
vt 0.606464565 0.733291984
vt 0.60459727 0.738714814
vt 0.608408093 0.73169595
vt 0.606464565 0.737118781
vt 0.608579576 0.733291984
vt 0.612790585 0.735160053
vt 0.610866129 0.735232592
vt 0.60865581 0.738714814
vt 0.60865581 0.737118781
vt 0.0954913795 0.771096945
vt 0.0944781303 0.771598458
vt 0.0954913795 0.771598458
vt 0.096024543 0.771598458
vt 0.0911851227 0.771598458
vt 0.096024543 0.753544092
vt 0.0954913795 0.754045606
vt 0.0823192894 0.771096945
vt 0.081787467 0.753544092
vt 0.0823192596 0.754045606
vt 0.0823192894 0.771598458
vt 0.081787467 0.771598458
vt 0.564391136 0.651695967
vt 0.562214494 0.654133201
vt 0.564391136 0.654133201
vt 0.562214494 0.614294052
vt 0.564391136 0.616731286
vt 0.564391136 0.614294052
vt 0.595118642 0.616731286
vt 0.597498655 0.614294052
vt 0.595118642 0.651695967
vt 0.597498655 0.654133201
vt 0.55983448 0.656570435
vt 0.562214434 0.654133201
vt 0.529106915 0.654133201
vt 0.562214494 0.693972349
vt 0.55983448 0.691535115
vt 0.526930273 0.693972349
vt 0.529106915 0.691535115
vt 0.526930273 0.691535115
vt 0.529106915 0.656570435
vt 0.526930273 0.654133201
vt 0.0878737271 0.801187634
vt 0.0949796736 0.802692175
vt 0.0949796736 0.798680067
vt 0.0819016993 0.802692175
vt 0.0850821137 0.801187634
vt 0.0819016993 0.802166462
vt 0.0850821137 0.797927737
vt 0.0878737271 0.798680067
vt 0.0826758444 0.793423414
vt 0.0888888538 0.79692471
vt 0.0878737271 0.797927737
vt 0.0860972703 0.79692471
vt 0.0888888836 0.794417262
vt 0.0860972703 0.794417262
vt 0.0949796736 0.790154338
vt 0.0850821137 0.793414235
vt 0.0829633772 0.790176034
vt 0.0878737271 0.793414235
vt 0.0850821435 0.790154338
vt 0.0830518603 0.789176822
vt 0.0830518603 0.788649797
vt 0.0878737271 0.790154338
vt 0.0949796736 0.788649797
vt 0.823575139 0.740939081
vt 0.824590325 0.741942108
vt 0.824590325 0.740939081
vt 0.821798682 0.741942108
vt 0.823575139 0.740186751
vt 0.824590325 0.740186751
vt 0.823575139 0.737679183
vt 0.824590325 0.736676157
vt 0.820276022 0.736676157
vt 0.820783615 0.737679183
vt 0.820783615 0.740939081
vt 0.820276022 0.745452702
vt 0.821798682 0.744449675
vt 0.820783615 0.745452702
vt 0.820783615 0.74871248
vt 0.820276022 0.74871248
vt 0.820276022 0.749715507
vt 0.823575258 0.74871248
vt 0.824590325 0.749715507
vt 0.823575258 0.745452702
vt 0.824590325 0.744449675
vt 0.526930273 0.616731286
vt 0.526930273 0.654133201
vt 0.529106975 0.651695967
vt 0.529106975 0.654133201
vt 0.529106915 0.616731286
vt 0.55983448 0.651695967
vt 0.526930273 0.614294112
vt 0.562214494 0.654133201
vt 0.55983448 0.616731286
vt 0.562214434 0.614294052
vt 0.597498655 0.656570435
vt 0.595322013 0.691535115
vt 0.597498655 0.691535115
vt 0.597498655 0.693972349
vt 0.595322013 0.656570435
vt 0.564594448 0.691535115
vt 0.597498655 0.654133201
vt 0.562214494 0.693972349
vt 0.564594448 0.656570435
vt 0.562214494 0.654133201
vn 0.000000 1.000000 0.000000
vn 0.000000 1.000000 0.000000
vn 0.000000 1.000000 0.000000
vn 0.000000 1.000000 0.000000
vn -1.000000 0.000000 0.000000
vn -1.000000 0.000000 0.000000
vn -1.000000 0.000000 0.000000
vn -1.000000 0.000000 0.000000
vn -1.000000 0.000000 0.000000
vn -1.000000 0.000000 0.000000
vn -1.000000 0.000000 0.000000
vn -1.000000 0.000000 0.000000
vn -1.000000 0.000000 0.000000
vn -1.000000 0.000000 0.000000
vn -1.000000 0.000000 0.000000
vn -1.000000 0.000000 0.000000
vn 1.000000 0.000000 0.000000
vn 1.000000 0.000000 0.000000
vn 1.000000 0.000000 0.000000
vn 1.000000 0.000000 0.000000
vn -1.000000 0.000000 0.000000
vn -1.000000 0.000000 0.000000
vn -1.000000 0.000000 0.000000
vn -1.000000 0.000000 0.000000
vn -1.000000 0.000000 0.000000
vn -1.000000 0.000000 0.000000
vn -1.000000 0.000000 0.000000
vn -1.000000 0.000000 0.000000
vn 0.000000 -1.000000 -0.000000
vn 0.000000 -1.000000 -0.000000
vn 0.000000 -1.000000 -0.000000
vn 0.000000 -1.000000 -0.000000
vn 1.000000 0.000000 0.000000
vn 1.000000 0.000000 0.000000
vn 1.000000 0.000000 0.000000
vn 1.000000 0.000000 0.000000
vn 1.000000 0.000000 0.000000
vn 1.000000 0.000000 0.000000
vn 1.000000 0.000000 0.000000
vn 1.000000 0.000000 0.000000
vn 0.000000 0.000000 -1.000000
vn 0.000000 0.000000 -1.000000
vn 0.000000 0.000000 -1.000000
vn 0.000000 0.000000 -1.000000
vn 1.000000 0.000000 0.000000
vn 1.000000 0.000000 0.000000
vn 1.000000 0.000000 0.000000
vn 1.000000 0.000000 0.000000
vn 0.000000 -0.000000 1.000000
vn 0.000000 -0.000000 1.000000
vn 0.000000 -0.000000 1.000000
vn 0.000000 -0.000000 1.000000
vn 1.000000 0.000000 0.000000
vn 1.000000 0.000000 0.000000
vn 1.000000 0.000000 0.000000
vn 1.000000 0.000000 0.000000
vn 1.000000 0.000000 0.000000
vn 1.000000 0.000000 0.000000
vn 1.000000 0.000000 0.000000
vn 1.000000 0.000000 0.000000
vn 1.000000 0.000000 0.000000
vn 1.000000 0.000000 0.000000
vn 1.000000 0.000000 0.000000
vn 1.000000 0.000000 0.000000
vn -1.000000 0.000000 0.000000
vn -1.000000 0.000000 0.000000
vn -1.000000 0.000000 0.000000
vn -1.000000 0.000000 0.000000
vn 1.000000 0.000000 0.000000
vn 1.000000 0.000000 0.000000
vn 1.000000 0.000000 0.000000
vn 1.000000 0.000000 0.000000
vn -1.000000 0.000000 0.000000
vn -1.000000 0.000000 0.000000
vn -1.000000 0.000000 0.000000
vn -1.000000 0.000000 0.000000
vn -1.000000 0.000000 0.000000
vn -1.000000 0.000000 0.000000
vn -1.000000 0.000000 0.000000
vn -1.000000 0.000000 0.000000
vn 0.000000 0.000000 -1.000000
vn 0.000000 0.000000 -1.000000
vn 0.000000 0.000000 -1.000000
vn 0.000000 0.000000 -1.000000
vn -0.999677 0.000000 -0.025398
vn -0.999677 0.000000 -0.025398
vn -0.999677 0.000000 -0.025398
vn -0.999677 0.000000 -0.025398
vn 1.000000 0.000000 0.000000
vn 1.000000 0.000000 0.000000
vn 1.000000 0.000000 0.000000
vn 1.000000 0.000000 0.000000
vn 1.000000 0.000000 0.000000
vn 1.000000 0.000000 0.000000
vn 1.000000 0.000000 0.000000
vn 1.000000 0.000000 0.000000
vn 0.000000 1.000000 0.000000
vn 0.000000 1.000000 0.000000
vn 0.000000 1.000000 0.000000
vn 0.000000 1.000000 0.000000
vn 0.000000 -1.000000 -0.000000
vn 0.000000 -1.000000 -0.000000
vn 0.000000 -1.000000 -0.000000
vn 0.000000 -1.000000 -0.000000
vn 0.999936 0.000000 -0.011280
vn 0.999936 0.000000 -0.011280
vn 0.999936 0.000000 -0.011280
vn 0.999936 0.000000 -0.011280
vn -1.000000 0.000000 0.000000
vn -1.000000 0.000000 0.000000
vn -1.000000 0.000000 0.000000
vn -1.000000 0.000000 0.000000
vn 0.000000 -0.000000 1.000000
vn 0.000000 -0.000000 1.000000
vn 0.000000 -0.000000 1.000000
vn 0.000000 -0.000000 1.000000
vn 0.000000 0.000000 -1.000000
vn 0.000000 0.000000 -1.000000
vn 0.000000 0.000000 -1.000000
vn 0.000000 0.000000 -1.000000
vn 0.000000 0.000000 -1.000000
vn 0.000000 0.000000 -1.000000
vn 0.000000 0.000000 -1.000000
vn 0.000000 0.000000 -1.000000
vn 0.000000 0.000000 -1.000000
vn 0.000000 0.000000 -1.000000
vn 0.000000 0.000000 -1.000000
vn 0.000000 0.000000 -1.000000
vn 0.000000 0.000000 -1.000000
vn 0.000000 0.000000 -1.000000
vn 0.000000 0.000000 -1.000000
vn 0.000000 0.000000 -1.000000
vn 0.000000 0.000000 -1.000000
vn 0.000000 0.000000 -1.000000
vn 0.000000 0.000000 -1.000000
vn 0.000000 0.000000 -1.000000
vn 0.000000 0.000000 -1.000000
vn 0.000000 0.000000 -1.000000
vn 0.000000 0.000000 -1.000000
vn 0.000000 0.000000 -1.000000
vn -1.000000 0.000000 0.000000
vn -1.000000 0.000000 0.000000
vn -1.000000 0.000000 0.000000
vn -1.000000 0.000000 0.000000
vn -1.000000 0.000000 0.000000
vn -1.000000 0.000000 0.000000
vn -1.000000 0.000000 0.000000
vn -1.000000 0.000000 0.000000
vn 1.000000 0.000000 0.000000
vn 1.000000 0.000000 0.000000
vn 1.000000 0.000000 0.000000
vn 1.000000 0.000000 0.000000
vn 0.000000 -0.000000 1.000000
vn 0.000000 -0.000000 1.000000
vn 0.000000 -0.000000 1.000000
vn 0.000000 -0.000000 1.000000
vn 0.000000 0.000000 -1.000000
vn 0.000000 0.000000 -1.000000
vn 0.000000 0.000000 -1.000000
vn 0.000000 0.000000 -1.000000
vn 1.000000 0.000000 0.000000
vn 1.000000 0.000000 0.000000
vn 1.000000 0.000000 0.000000
vn 1.000000 0.000000 0.000000
vn -1.000000 0.000000 0.000000
vn -1.000000 0.000000 0.000000
vn -1.000000 0.000000 0.000000
vn -1.000000 0.000000 0.000000
vn 1.000000 0.000000 0.000000
vn 1.000000 0.000000 0.000000
vn 1.000000 0.000000 0.000000
vn 1.000000 0.000000 0.000000
vn 0.000000 -0.000000 1.000000
vn 0.000000 -0.000000 1.000000
vn 0.000000 -0.000000 1.000000
vn 0.000000 -0.000000 1.000000
vn 0.000000 -0.000000 1.000000
vn 0.000000 -0.000000 1.000000
vn 0.000000 -0.000000 1.000000
vn 0.000000 -0.000000 1.000000
vn 0.000000 -0.000000 1.000000
vn 0.000000 0.000000 -1.000000
vn 0.000000 0.000000 -1.000000
vn 0.000000 0.000000 -1.000000
vn 0.000000 0.000000 -1.000000
vn -1.000000 0.000000 0.000000
vn -1.000000 0.000000 0.000000
vn -1.000000 0.000000 0.000000
vn -1.000000 0.000000 0.000000
vn 0.000000 0.000000 -1.000000
vn 0.000000 0.000000 -1.000000
vn 0.000000 0.000000 -1.000000
vn 0.000000 0.000000 -1.000000
vn 1.000000 0.000000 0.000000
vn 1.000000 0.000000 0.000000
vn 1.000000 0.000000 0.000000
vn 1.000000 0.000000 0.000000
vn 0.000000 0.000000 -1.000000
vn 0.000000 0.000000 -1.000000
vn 0.000000 0.000000 -1.000000
vn 0.000000 0.000000 -1.000000
vn 0.000000 0.000000 -1.000000
vn 0.000000 0.000000 -1.000000
vn 0.000000 0.000000 -1.000000
vn 0.000000 0.000000 -1.000000
vn 0.000000 -0.000000 1.000000
vn 0.000000 -0.000000 1.000000
vn 0.000000 -0.000000 1.000000
vn 0.000000 -0.000000 1.000000
vn -1.000000 0.000000 0.000000
vn -1.000000 0.000000 0.000000
vn -1.000000 0.000000 0.000000
vn -1.000000 0.000000 0.000000
vn 0.000000 0.000000 -1.000000
vn 0.000000 0.000000 -1.000000
vn 0.000000 0.000000 -1.000000
vn 0.000000 0.000000 -1.000000
vn 1.000000 0.000000 0.000000
vn 1.000000 0.000000 0.000000
vn 1.000000 0.000000 0.000000
vn 1.000000 0.000000 0.000000
vn 0.000000 0.000000 -1.000000
vn 0.000000 0.000000 -1.000000
vn 0.000000 0.000000 -1.000000
vn 0.000000 0.000000 -1.000000
vn 0.000000 -0.000000 1.000000
vn 0.000000 -0.000000 1.000000
vn 0.000000 -0.000000 1.000000
vn 0.000000 -0.000000 1.000000
vn 0.000000 0.000000 -1.000000
vn 0.000000 0.000000 -1.000000
vn 0.000000 0.000000 -1.000000
vn 0.000000 0.000000 -1.000000
vn -1.000000 0.000000 0.000000
vn -1.000000 0.000000 0.000000
vn -1.000000 0.000000 0.000000
vn -1.000000 0.000000 0.000000
vn 0.000000 1.000000 0.000000
vn 0.000000 1.000000 0.000000
vn 0.000000 1.000000 0.000000
vn 0.000000 1.000000 0.000000
vn 1.000000 0.000000 0.000000
vn 1.000000 0.000000 0.000000
vn 1.000000 0.000000 0.000000
vn 1.000000 0.000000 0.000000
vn 0.000000 -1.000000 -0.000000
vn 0.000000 -1.000000 -0.000000
vn 0.000000 -1.000000 -0.000000
vn 0.000000 -1.000000 -0.000000
vn 0.000000 0.000000 -1.000000
vn 0.000000 0.000000 -1.000000
vn 0.000000 0.000000 -1.000000
vn 0.000000 0.000000 -1.000000
vn 0.000000 -0.000000 1.000000
vn 0.000000 -0.000000 1.000000
vn 0.000000 -0.000000 1.000000
vn 0.000000 -0.000000 1.000000
vn 0.000000 1.000000 0.000000
vn 0.000000 1.000000 0.000000
vn 0.000000 1.000000 0.000000
vn 0.000000 1.000000 0.000000
vn 0.000000 1.000000 0.000000
vn 0.000000 1.000000 0.000000
vn 0.000000 1.000000 0.000000
vn 0.000000 1.000000 0.000000
vn 0.000000 0.000000 -1.000000
vn -0.339620 0.000000 -0.940563
vn 0.000000 0.000000 -1.000000
vn -0.339621 0.000000 -0.940563
vn -0.638869 0.000000 -0.769316
vn -0.638868 0.000000 -0.769316
vn -1.000000 0.000000 0.000000
vn -1.000000 0.000000 0.000000
vn -1.000000 0.000000 0.000000
vn -1.000000 0.000000 0.000000
vn 0.000000 0.000000 -1.000000
vn 0.000000 0.000000 -1.000000
vn 0.000000 0.000000 -1.000000
vn 0.000000 0.000000 -1.000000
vn 1.000000 0.000000 0.000000
vn 1.000000 0.000000 0.000000
vn 1.000000 0.000000 0.000000
vn 1.000000 0.000000 0.000000
vn -0.670285 -0.000000 0.742103
vn -0.474902 -0.000000 0.880039
vn -0.670286 -0.000000 0.742103
vn -0.237451 -0.000000 0.971400
vn 0.000000 -0.000000 1.000000
vn 0.000000 -0.000000 1.000000
vn 0.356105 -0.000000 0.934446
vn 0.665522 -0.000000 0.746378
vn 0.665522 -0.000000 0.746378
vn 0.356105 -0.000000 0.934446
vn 0.000000 -0.000000 1.000000
vn 0.000000 -0.000000 1.000000
vn 0.357372 0.000000 -0.933962
vn 0.000000 0.000000 -1.000000
vn 0.000000 0.000000 -1.000000
vn 0.357372 0.000000 -0.933962
vn 0.667544 0.000000 -0.744570
vn 0.667544 0.000000 -0.744570
vn -1.000000 0.000000 0.000000
vn -1.000000 0.000000 0.000000
vn -1.000000 0.000000 0.000000
vn -1.000000 0.000000 0.000000
vn 1.000000 0.000000 0.000000
vn 1.000000 0.000000 0.000000
vn 1.000000 0.000000 0.000000
vn 1.000000 0.000000 0.000000
vn 0.000000 -0.000000 1.000000
vn 0.000000 -0.000000 1.000000
vn 0.000000 -0.000000 1.000000
vn 0.000000 -0.000000 1.000000
vn -1.000000 0.000000 0.000000
vn -1.000000 0.000000 0.000000
vn -1.000000 0.000000 0.000000
vn -1.000000 0.000000 0.000000
vn 0.000000 0.000000 -1.000000
vn 0.000000 0.000000 -1.000000
vn 0.000000 0.000000 -1.000000
vn 0.000000 0.000000 -1.000000
vn 0.707108 -0.000000 0.707106
vn 0.707108 -0.000000 0.707106
vn 0.707108 -0.000000 0.707105
vn 0.707107 -0.000000 0.707107
vn -0.707106 -0.000000 0.707108
vn -0.707106 -0.000000 0.707108
vn -0.707105 -0.000000 0.707109
vn -0.707106 -0.000000 0.707107
vn -0.707109 0.000000 -0.707104
vn -0.707109 0.000000 -0.707104
vn -0.707109 0.000000 -0.707104
vn -0.707109 0.000000 -0.707104
vn 0.707106 0.000000 -0.707108
vn 0.707106 0.000000 -0.707108
vn 0.707106 0.000000 -0.707108
vn 0.707106 0.000000 -0.707108
vn -1.000000 0.000000 0.000000
vn -1.000000 0.000000 0.000000
vn -1.000000 0.000000 0.000000
vn -1.000000 0.000000 0.000000
vn 0.000000 0.000000 -1.000000
vn 0.000000 0.000000 -1.000000
vn 0.000000 0.000000 -1.000000
vn 0.000000 0.000000 -1.000000
vn 0.840364 -0.000000 0.542022
vn 0.840364 -0.000000 0.542022
vn 0.840364 -0.000000 0.542022
vn 0.840364 -0.000000 0.542022
vn 0.000000 0.000000 -1.000000
vn 0.000000 0.000000 -1.000000
vn 0.000000 0.000000 -1.000000
vn 0.000000 0.000000 -1.000000
vn 1.000000 0.000000 0.000000
vn 1.000000 0.000000 0.000000
vn 1.000000 0.000000 0.000000
vn 1.000000 0.000000 0.000000
vn 0.000000 -0.000000 1.000000
vn 0.000000 -0.000000 1.000000
vn 0.000000 -0.000000 1.000000
vn 0.000000 -0.000000 1.000000
vn -0.839327 0.000000 -0.543627
vn -0.839327 0.000000 -0.543627
vn -0.839327 0.000000 -0.543627
vn -0.839327 0.000000 -0.543627
vn 0.000000 -0.000000 1.000000
vn 0.000000 -0.000000 1.000000
vn 0.000000 -0.000000 1.000000
vn 0.000000 -0.000000 1.000000
vn -1.000000 0.000000 0.000000
vn -1.000000 0.000000 0.000000
vn -1.000000 0.000000 0.000000
vn -1.000000 0.000000 0.000000
vn 0.000000 0.000000 -1.000000
vn 0.000000 0.000000 -1.000000
vn 0.000000 0.000000 -1.000000
vn 0.000000 0.000000 -1.000000
vn 0.840364 -0.000000 0.542022
vn 0.840364 -0.000000 0.542022
vn 0.840364 -0.000000 0.542022
vn 0.840364 -0.000000 0.542022
vn 0.000000 0.000000 -1.000000
vn 0.000000 0.000000 -1.000000
vn 0.000000 0.000000 -1.000000
vn 0.000000 0.000000 -1.000000
vn 1.000000 0.000000 0.000000
vn 1.000000 0.000000 0.000000
vn 1.000000 0.000000 0.000000
vn 1.000000 0.000000 0.000000
vn 0.000000 -0.000000 1.000000
vn 0.000000 -0.000000 1.000000
vn 0.000000 -0.000000 1.000000
vn 0.000000 -0.000000 1.000000
vn -0.839327 0.000000 -0.543627
vn -0.839327 0.000000 -0.543627
vn -0.839327 0.000000 -0.543627
vn -0.839327 0.000000 -0.543627
vn 0.000000 -0.000000 1.000000
vn 0.000000 -0.000000 1.000000
vn 0.000000 -0.000000 1.000000
vn 0.000000 -0.000000 1.000000
vn 0.560307 0.000000 -0.828285
vn 0.560307 0.000000 -0.828285
vn 0.560307 0.000000 -0.828285
vn 0.560307 0.000000 -0.828285
vn -0.355354 0.000000 -0.934732
vn -0.355354 0.000000 -0.934732
vn -0.355353 0.000000 -0.934732
vn -0.355355 0.000000 -0.934732
vn 0.707106 0.000000 -0.707108
vn 0.707106 0.000000 -0.707108
vn 0.707105 0.000000 -0.707108
vn 0.707106 0.000000 -0.707108
vn 0.517882 -0.000000 0.855452
vn 0.334069 -0.000000 0.942549
vn 0.334069 -0.000000 0.942549
vn 0.517882 -0.000000 0.855452
vn 0.680269 -0.000000 0.732963
vn 0.680269 -0.000000 0.732963
vn 1.000000 0.000000 0.000000
vn 1.000000 0.000000 0.000000
vn 1.000000 0.000000 0.000000
vn 1.000000 0.000000 0.000000
vn 0.698212 0.000000 -0.715891
vn 0.698212 0.000000 -0.715891
vn 0.698212 0.000000 -0.715891
vn 0.698212 0.000000 -0.715891
vn -0.462140 0.000000 -0.886807
vn -0.462140 0.000000 -0.886807
vn -0.462140 0.000000 -0.886807
vn -0.462140 0.000000 -0.886807
vn 1.000000 0.000000 0.000000
vn 1.000000 0.000000 0.000000
vn 1.000000 0.000000 0.000000
vn 1.000000 0.000000 0.000000
vn 0.378877 -0.000000 0.925447
vn 0.378877 -0.000000 0.925447
vn 0.378877 -0.000000 0.925447
vn 0.378877 -0.000000 0.925447
vn -0.672219 -0.000000 0.740352
vn -0.672219 -0.000000 0.740352
vn -0.672219 -0.000000 0.740352
vn -0.672219 -0.000000 0.740352
vn -0.804173 -0.000000 0.594395
vn -0.949782 -0.000000 0.312911
vn -0.804172 -0.000000 0.594397
vn -0.949783 -0.000000 0.312910
vn -1.000000 0.000000 0.000000
vn -1.000000 0.000000 0.000000
vn 0.454777 -0.000000 0.890606
vn 0.454777 -0.000000 0.890606
vn 0.454777 -0.000000 0.890606
vn 0.454777 -0.000000 0.890606
vn -1.000000 0.000000 0.000000
vn -1.000000 0.000000 0.000000
vn -1.000000 0.000000 0.000000
vn -1.000000 0.000000 0.000000
vn -0.376956 0.000000 -0.926231
vn -0.376956 0.000000 -0.926231
vn -0.376956 0.000000 -0.926231
vn -0.376956 0.000000 -0.926231
vn -0.701517 -0.000000 0.712653
vn -0.701517 -0.000000 0.712653
vn -0.701517 -0.000000 0.712653
vn -0.701517 -0.000000 0.712653
vn 0.428586 -0.000000 0.903501
vn 0.428586 -0.000000 0.903501
vn 0.428586 -0.000000 0.903501
vn 0.428586 -0.000000 0.903501
vn 1.000000 0.000000 0.000000
vn 1.000000 0.000000 0.000000
vn 1.000000 0.000000 0.000000
vn 1.000000 0.000000 0.000000
vn -0.594552 0.000000 -0.804057
vn -0.594552 0.000000 -0.804057
vn -0.594551 0.000000 -0.804058
vn -0.594552 0.000000 -0.804057
vn 0.000000 -0.000000 1.000000
vn 0.000000 -0.000000 1.000000
vn 0.000000 -0.000000 1.000000
vn 0.000000 -0.000000 1.000000
vn 0.000000 -0.000000 1.000000
vn 0.000000 -0.000000 1.000000
vn 0.000000 1.000000 0.000000
vn 0.000000 1.000000 0.000000
vn 0.000000 1.000000 0.000000
vn 0.000000 1.000000 0.000000
vn 0.000000 1.000000 0.000000
vn 0.000000 1.000000 0.000000
vn 0.000000 1.000000 0.000000
vn 0.000000 1.000000 0.000000
vn 0.000000 -0.000000 1.000000
vn 0.000000 -0.000000 1.000000
vn 0.000000 -0.000000 1.000000
vn 0.000000 -0.000000 1.000000
vn 0.000000 -0.000000 1.000000
vn 0.000000 -0.000000 1.000000
vn 0.000000 -0.000000 1.000000
vn 0.000000 -0.000000 1.000000
vn 0.000000 -0.000000 1.000000
vn 0.000000 -0.000000 1.000000
vn 0.000000 -0.000000 1.000000
vn 0.000000 -0.000000 1.000000
vn 0.000000 -0.000000 1.000000
vn 0.000000 -0.000000 1.000000
vn 0.000000 -0.000000 1.000000
vn 0.000000 -0.000000 1.000000
vn 0.000000 -0.000000 1.000000
vn 0.000000 -0.000000 1.000000
vn 0.000000 -0.000000 1.000000
vn 0.000000 -0.000000 1.000000
vn 0.000000 -0.000000 1.000000
vn 0.000000 -0.000000 1.000000
vn 0.000000 0.000000 -1.000000
vn 0.000000 0.000000 -1.000000
vn 0.000000 0.000000 -1.000000
vn 0.000000 0.000000 -1.000000
vn 0.000000 0.000000 -1.000000
vn 0.000000 0.000000 -1.000000
vn 0.000000 1.000000 0.000000
vn 0.000000 1.000000 0.000000
vn 0.000000 1.000000 0.000000
vn 0.000000 1.000000 0.000000
vn 0.000000 1.000000 0.000000
vn 0.000000 1.000000 0.000000
vn 0.000000 1.000000 0.000000
vn 0.000000 1.000000 0.000000
vn 0.000000 -1.000000 -0.000000
vn 0.000000 -1.000000 -0.000000
vn 0.000000 -1.000000 -0.000000
vn 0.000000 -1.000000 -0.000000
vn 0.000000 -1.000000 -0.000000
vn 0.000000 -1.000000 -0.000000
vn 0.000000 -1.000000 -0.000000
vn 0.000000 -1.000000 -0.000000
vn 0.000000 -0.000000 1.000000
vn 0.000000 -0.000000 1.000000
vn 0.000000 -0.000000 1.000000
vn 0.000000 -0.000000 1.000000
vn 0.000000 -0.000000 1.000000
vn 0.000000 -0.000000 1.000000
vn 1.000000 0.000000 0.000000
vn 1.000000 0.000000 0.000000
vn 1.000000 0.000000 0.000000
vn 1.000000 0.000000 0.000000
vn 1.000000 0.000000 0.000000
vn 0.000000 -0.000000 1.000000
vn 0.000000 -0.000000 1.000000
vn 0.000000 -0.000000 1.000000
vn 0.000000 -0.000000 1.000000
vn 0.000000 -0.000000 1.000000
vn 0.000000 -0.000000 1.000000
vn 0.000000 -0.000000 1.000000
vn -1.000000 0.000000 0.000000
vn -1.000000 0.000000 0.000000
vn -1.000000 0.000000 0.000000
vn -1.000000 0.000000 0.000000
vn -1.000000 0.000000 0.000000
vn 0.000000 1.000000 0.000000
vn 0.000000 1.000000 0.000000
vn 0.000000 1.000000 0.000000
vn 0.000000 1.000000 0.000000
vn 0.000000 1.000000 0.000000
vn 0.000000 1.000000 0.000000
vn 0.000000 1.000000 0.000000
vn 0.000000 1.000000 0.000000
vn 0.000000 1.000000 0.000000
vn 0.000000 1.000000 0.000000
vn 0.000000 1.000000 0.000000
vn 0.000000 1.000000 0.000000
vn 0.000000 1.000000 0.000000
vn 0.000000 1.000000 0.000000
vn 0.000000 1.000000 0.000000
vn -1.000000 0.000000 0.000000
vn -1.000000 0.000000 0.000000
vn -1.000000 0.000000 0.000000
vn -1.000000 0.000000 0.000000
vn -1.000000 0.000000 0.000000
vn -1.000000 0.000000 0.000000
vn 0.000000 1.000000 0.000000
vn 0.000000 1.000000 0.000000
vn 0.000000 1.000000 0.000000
vn 0.000000 1.000000 0.000000
vn 0.000000 1.000000 0.000000
vn 0.000000 1.000000 0.000000
vn 0.000000 1.000000 0.000000
vn 0.000000 1.000000 0.000000
vn 0.000000 -1.000000 -0.000000
vn 0.000000 -1.000000 -0.000000
vn 0.000000 -1.000000 -0.000000
vn 0.000000 -1.000000 -0.000000
vn 0.000000 -1.000000 -0.000000
vn 0.000000 -1.000000 -0.000000
vn 0.000000 -1.000000 -0.000000
vn 0.000000 -1.000000 -0.000000
vn 0.000000 1.000000 0.000000
vn 0.000000 1.000000 0.000000
vn 0.000000 1.000000 0.000000
vn 0.000000 1.000000 0.000000
vn 0.000000 1.000000 0.000000
vn 0.000000 1.000000 0.000000
vn 0.000000 1.000000 0.000000
vn 0.000000 1.000000 0.000000
vn 0.000000 1.000000 0.000000
vn 0.000000 1.000000 0.000000
vn 0.000000 1.000000 0.000000
vn 0.000000 1.000000 0.000000
vn 0.000000 1.000000 0.000000
vn 0.000000 1.000000 0.000000
vn 0.000000 1.000000 0.000000
vn 0.000000 1.000000 0.000000
vn 0.000000 1.000000 0.000000
vn 0.000000 1.000000 0.000000
vn 0.000000 1.000000 0.000000
vn 0.000000 1.000000 0.000000
vn 0.000000 1.000000 0.000000
vn 0.000000 1.000000 0.000000
vn 0.000000 1.000000 0.000000
vn 0.000000 1.000000 0.000000
vn 0.000000 1.000000 0.000000
vn 0.000000 1.000000 0.000000
vn 0.000000 1.000000 0.000000
vn 0.000000 1.000000 0.000000
vn 0.000000 -1.000000 -0.000000
vn 0.000000 -1.000000 -0.000000
vn 0.000000 -1.000000 -0.000000
vn 0.000000 -1.000000 -0.000000
vn 0.000000 -1.000000 -0.000000
vn 0.000000 -1.000000 -0.000000
vn 0.000000 -1.000000 -0.000000
vn 0.000000 -1.000000 -0.000000
vn 0.000000 -1.000000 -0.000000
vn 0.000000 -1.000000 -0.000000
vn 0.000000 -1.000000 -0.000000
vn 0.000000 -1.000000 -0.000000
vn 0.000000 -1.000000 -0.000000
vn 0.000000 -1.000000 -0.000000
vn 0.000000 -1.000000 -0.000000
vn 0.000000 1.000000 0.000000
vn 0.000000 1.000000 0.000000
vn 0.000000 1.000000 0.000000
vn 0.000000 1.000000 0.000000
vn 0.000000 1.000000 0.000000
vn 0.000000 1.000000 0.000000
vn 0.000000 1.000000 0.000000
vn 0.000000 1.000000 0.000000
vn 0.000000 1.000000 0.000000
vn 0.000000 1.000000 0.000000
vn 0.000000 1.000000 0.000000
vn 0.000000 1.000000 0.000000
vn 0.043620 -0.000000 0.999048
vn 0.087156 -0.000000 0.996195
vn 0.043619 -0.000000 0.999048
vn 0.000000 -0.000000 1.000000
vn 0.087156 -0.000000 0.996195
vn 0.026834 0.028196 0.999242
vn 0.055913 -0.002177 0.998433
vn 0.034894 -0.000000 0.999391
vn 0.041911 -0.001632 0.999120
vn 0.043483 -0.045576 0.998014
vn 0.043619 -0.000000 0.999048
vn 0.000000 -0.000000 1.000000
vn 0.000000 -1.000000 -0.000000
vn 0.000000 -1.000000 -0.000000
vn 0.000000 -1.000000 -0.000000
vn 0.000000 -1.000000 -0.000000
vn 0.000000 -1.000000 -0.000000
vn 0.000000 -1.000000 -0.000000
vn 0.000000 -1.000000 -0.000000
vn 0.000000 -1.000000 -0.000000
vn 0.000000 -1.000000 -0.000000
vn 0.000000 -1.000000 -0.000000
vn 0.000000 -1.000000 -0.000000
vn 0.000000 -1.000000 -0.000000
vn 0.000000 -1.000000 -0.000000
vn 0.000000 -1.000000 -0.000000
vn 0.000000 -1.000000 -0.000000
vn 0.000000 -1.000000 -0.000000
vn 0.000000 -1.000000 -0.000000
vn 0.000000 -1.000000 -0.000000
vn 0.000000 -1.000000 -0.000000
vn 0.000000 -1.000000 -0.000000
vn 0.000000 1.000000 0.000000
vn 0.000000 1.000000 0.000000
vn 0.000000 1.000000 0.000000
vn 0.000000 1.000000 0.000000
vn 0.000000 1.000000 0.000000
vn 0.000000 1.000000 0.000000
vn 0.000000 1.000000 0.000000
vn 0.000000 1.000000 0.000000
vn 0.000000 1.000000 0.000000
vn 0.000000 1.000000 0.000000
vn 0.000000 1.000000 0.000000
vn 0.000000 1.000000 0.000000
vn 0.000000 1.000000 0.000000
vn 0.000000 1.000000 0.000000
vn 0.000000 1.000000 0.000000
vn 0.000000 1.000000 0.000000
vn 0.000000 1.000000 0.000000
vn 0.000000 1.000000 0.000000
vn 0.000000 1.000000 0.000000
vn 0.000000 1.000000 0.000000
vn 0.000000 1.000000 0.000000
vn 0.000000 1.000000 0.000000
vn 0.000000 1.000000 0.000000
vn 0.000000 -1.000000 -0.000000
vn 0.000000 -1.000000 -0.000000
vn 0.000000 -1.000000 -0.000000
vn 0.000000 -1.000000 -0.000000
vn 0.000000 -1.000000 -0.000000
vn 0.000000 -1.000000 -0.000000
vn 0.000000 -1.000000 -0.000000
vn 0.000000 -1.000000 -0.000000
vn 0.000000 -1.000000 -0.000000
vn 0.000000 -1.000000 -0.000000
vn 0.000000 -1.000000 -0.000000
vn 0.000000 -1.000000 -0.000000
vn 0.000000 -1.000000 -0.000000
vn 0.000000 -1.000000 -0.000000
vn 0.000000 -1.000000 -0.000000
vn 0.000000 -1.000000 -0.000000
vn 0.000000 -1.000000 -0.000000
vn 0.000000 -1.000000 -0.000000
vn 0.000000 -1.000000 -0.000000
vn 0.000000 -1.000000 -0.000000
vn 0.000000 -1.000000 -0.000000
vn 0.000000 1.000000 0.000000
vn 0.000000 1.000000 0.000000
vn 0.000000 1.000000 0.000000
vn 0.000000 1.000000 0.000000
vn 0.000000 1.000000 0.000000
vn 0.000000 1.000000 0.000000
vn 0.000000 1.000000 0.000000
vn 0.000000 1.000000 0.000000
vn 0.000000 1.000000 0.000000
vn 0.000000 1.000000 0.000000
vn 0.000000 1.000000 0.000000
vn 0.000000 1.000000 0.000000
vn 0.000000 1.000000 0.000000
vn 0.000000 1.000000 0.000000
vn 0.000000 1.000000 0.000000
vn 0.000000 1.000000 0.000000
vn 0.000000 1.000000 0.000000
vn 0.000000 1.000000 0.000000
vn 0.000000 1.000000 0.000000
vn 0.000000 1.000000 0.000000
f 3/3/3 2/2/2 1/1/1
f 1/1/1 2/2/2 4/4/4
f 7/7/7 6/6/6 5/5/5
f 5/5/5 6/6/6 8/8/8
f 11/11/11 10/10/10 9/9/9
f 9/9/9 10/10/10 12/12/12
f 15/15/15 14/14/14 13/13/13
f 13/13/13 14/14/14 16/16/16
f 19/19/19 18/18/18 17/17/17
f 17/17/17 18/18/18 20/20/20
f 23/23/23 22/22/22 21/21/21
f 21/21/21 22/22/22 24/24/24
f 27/27/27 26/26/26 25/25/25
f 25/25/25 26/26/26 28/28/28
f 31/31/31 30/30/30 29/29/29
f 29/29/29 30/30/30 32/32/32
f 35/35/35 34/34/34 33/33/33
f 33/33/33 34/34/34 36/36/36
f 39/39/39 38/38/38 37/37/37
f 37/37/37 38/38/38 40/40/40
f 43/43/43 42/42/42 41/41/41
f 41/41/41 42/42/42 44/44/44
f 47/47/47 46/46/46 45/45/45
f 45/45/45 46/46/46 48/48/48
f 51/51/51 50/50/50 49/49/49
f 49/49/49 50/50/50 52/52/52
f 55/55/55 54/54/54 53/53/53
f 53/53/53 54/54/54 56/56/56
f 59/59/59 58/58/58 57/57/57
f 57/57/57 58/58/58 60/60/60
f 63/63/63 62/62/62 61/61/61
f 61/61/61 62/62/62 64/64/64
f 67/67/67 66/66/66 65/65/65
f 65/65/65 66/66/66 68/68/68
f 71/71/71 70/70/70 69/69/69
f 69/69/69 70/70/70 72/72/72
f 75/75/75 74/74/74 73/73/73
f 73/73/73 74/74/74 76/76/76
f 79/79/79 78/78/78 77/77/77
f 77/77/77 78/78/78 80/80/80
f 83/83/83 82/82/82 81/81/81
f 81/81/81 82/82/82 84/84/84
f 87/87/87 86/86/86 85/85/85
f 85/85/85 86/86/86 88/88/88
f 91/91/91 90/90/90 89/89/89
f 89/89/89 90/90/90 92/92/92
f 95/95/95 94/94/94 93/93/93
f 93/93/93 94/94/94 96/96/96
f 99/99/99 98/98/98 97/97/97
f 97/97/97 98/98/98 100/100/100
f 103/103/103 102/102/102 101/101/101
f 101/101/101 102/102/102 104/104/104
f 107/107/107 106/106/106 105/105/105
f 105/105/105 106/106/106 108/108/108
f 111/111/111 110/110/110 109/109/109
f 109/109/109 110/110/110 112/112/112
f 115/115/115 114/114/114 113/113/113
f 113/113/113 114/114/114 116/116/116
f 119/119/119 118/118/118 117/117/117
f 117/117/117 118/118/118 120/120/120
f 123/123/123 122/122/122 121/121/121
f 121/121/121 122/122/122 124/124/124
f 127/127/127 126/126/126 125/125/125
f 125/125/125 126/126/126 128/128/128
f 131/131/131 130/130/130 129/129/129
f 129/129/129 130/130/130 132/132/132
f 135/135/135 134/134/134 133/133/133
f 133/133/133 134/134/134 136/136/136
f 139/139/139 138/138/138 137/137/137
f 137/137/137 138/138/138 140/140/140
f 143/143/143 142/142/142 141/141/141
f 141/141/141 142/142/142 144/144/144
f 147/147/147 146/146/146 145/145/145
f 145/145/145 146/146/146 148/148/148
f 151/151/151 150/150/150 149/149/149
f 149/149/149 150/150/150 152/152/152
f 155/155/155 154/154/154 153/153/153
f 153/153/153 154/154/154 156/156/156
f 159/159/159 158/158/158 157/157/157
f 157/157/157 158/158/158 160/160/160
f 163/163/163 162/162/162 161/161/161
f 161/161/161 162/162/162 164/164/164
f 167/167/167 166/166/166 165/165/165
f 165/165/165 166/166/166 168/168/168
f 171/171/171 170/170/170 169/169/169
f 169/169/169 170/170/170 172/172/172
f 175/175/175 174/174/174 173/173/173
f 173/173/173 174/174/174 176/176/176
f 179/179/179 178/178/178 177/177/177
f 180/180/180 177/177/177 178/178/178
f 177/177/177 180/180/180 181/181/181
f 184/184/184 183/183/183 182/182/182
f 182/182/182 183/183/183 185/185/185
f 188/188/188 187/187/187 186/186/186
f 186/186/186 187/187/187 189/189/189
f 192/192/192 191/191/191 190/190/190
f 190/190/190 191/191/191 193/193/193
f 196/196/196 195/195/195 194/194/194
f 194/194/194 195/195/195 197/197/197
f 200/200/200 199/199/199 198/198/198
f 198/198/198 199/199/199 201/201/201
f 204/204/204 203/203/203 202/202/202
f 202/202/202 203/203/203 205/205/205
f 208/208/208 207/207/207 206/206/206
f 206/206/206 207/207/207 209/209/209
f 212/212/212 211/211/211 210/210/210
f 210/210/210 211/211/211 213/213/213
f 216/216/216 215/215/215 214/214/214
f 214/214/214 215/215/215 217/217/217
f 220/220/220 219/219/219 218/218/218
f 218/218/218 219/219/219 221/221/221
f 224/224/224 223/223/223 222/222/222
f 222/222/222 223/223/223 225/225/225
f 228/228/228 227/227/227 226/226/226
f 226/226/226 227/227/227 229/229/229
f 232/232/232 231/231/231 230/230/230
f 230/230/230 231/231/231 233/233/233
f 236/236/236 235/235/235 234/234/234
f 234/234/234 235/235/235 237/237/237
f 240/240/240 239/239/239 238/238/238
f 238/238/238 239/239/239 241/241/241
f 244/244/244 243/243/243 242/242/242
f 242/242/242 243/243/243 245/245/245
f 248/248/248 247/247/247 246/246/246
f 246/246/246 247/247/247 249/249/249
f 252/252/252 251/251/251 250/250/250
f 250/250/250 251/251/251 253/253/253
f 256/256/256 255/255/255 254/254/254
f 254/254/254 255/255/255 257/257/257
f 260/260/260 259/259/259 258/258/258
f 258/258/258 259/259/259 261/261/261
f 264/264/264 263/263/263 262/262/262
f 262/262/262 263/263/263 265/265/265
f 268/268/268 267/267/267 266/266/266
f 266/266/266 267/267/267 269/269/269
f 269/269/269 267/267/267 270/270/270
f 270/270/270 267/267/267 271/271/271
f 274/274/274 273/273/273 272/272/272
f 272/272/272 273/273/273 275/275/275
f 278/278/278 277/277/277 276/276/276
f 276/276/276 277/277/277 279/279/279
f 282/282/282 281/281/281 280/280/280
f 280/280/280 281/281/281 283/283/283
f 286/286/286 285/285/285 284/284/284
f 284/284/284 285/285/285 287/287/287
f 285/285/285 288/288/288 287/287/287
f 287/287/287 288/288/288 289/289/289
f 292/292/292 291/291/291 290/290/290
f 290/290/290 291/291/291 293/293/293
f 293/293/293 294/294/294 290/290/290
f 290/290/290 294/294/294 295/295/295
f 298/298/298 297/297/297 296/296/296
f 296/296/296 297/297/297 299/299/299
f 299/299/299 300/300/300 296/296/296
f 296/296/296 300/300/300 301/301/301
f 304/304/304 303/303/303 302/302/302
f 302/302/302 303/303/303 305/305/305
f 308/308/308 307/307/307 306/306/306
f 306/306/306 307/307/307 309/309/309
f 312/312/312 311/311/311 310/310/310
f 310/310/310 311/311/311 313/313/313
f 316/316/316 315/315/315 314/314/314
f 314/314/314 315/315/315 317/317/317
f 320/320/320 319/319/319 318/318/318
f 318/318/318 319/319/319 321/321/321
f 324/324/324 323/323/323 322/322/322
f 322/322/322 323/323/323 325/325/325
f 328/328/328 327/327/327 326/326/326
f 326/326/326 327/327/327 329/329/329
f 332/332/332 331/331/331 330/330/330
f 330/330/330 331/331/331 333/333/333
f 336/336/336 335/335/335 334/334/334
f 334/334/334 335/335/335 337/337/337
f 340/340/340 339/339/339 338/338/338
f 338/338/338 339/339/339 341/341/341
f 344/344/344 343/343/343 342/342/342
f 342/342/342 343/343/343 345/345/345
f 348/348/348 347/347/347 346/346/346
f 346/346/346 347/347/347 349/349/349
f 352/352/352 351/351/351 350/350/350
f 350/350/350 351/351/351 353/353/353
f 356/356/356 355/355/355 354/354/354
f 354/354/354 355/355/355 357/357/357
f 360/360/360 359/359/359 358/358/358
f 358/358/358 359/359/359 361/361/361
f 364/364/364 363/363/363 362/362/362
f 362/362/362 363/363/363 365/365/365
f 368/368/368 367/367/367 366/366/366
f 366/366/366 367/367/367 369/369/369
f 372/372/372 371/371/371 370/370/370
f 370/370/370 371/371/371 373/373/373
f 376/376/376 375/375/375 374/374/374
f 374/374/374 375/375/375 377/377/377
f 380/380/380 379/379/379 378/378/378
f 378/378/378 379/379/379 381/381/381
f 384/384/384 383/383/383 382/382/382
f 382/382/382 383/383/383 385/385/385
f 388/388/388 387/387/387 386/386/386
f 386/386/386 387/387/387 389/389/389
f 392/392/392 391/391/391 390/390/390
f 390/390/390 391/391/391 393/393/393
f 396/396/396 395/395/395 394/394/394
f 394/394/394 395/395/395 397/397/397
f 400/400/400 399/399/399 398/398/398
f 398/398/398 399/399/399 401/401/401
f 404/404/404 403/403/403 402/402/402
f 402/402/402 403/403/403 405/405/405
f 408/408/408 407/407/407 406/406/406
f 406/406/406 407/407/407 409/409/409
f 412/412/412 411/411/411 410/410/410
f 410/410/410 411/411/411 413/413/413
f 416/416/416 415/415/415 414/414/414
f 414/414/414 415/415/415 417/417/417
f 417/417/417 418/418/418 414/414/414
f 414/414/414 418/418/418 419/419/419
f 422/422/422 421/421/421 420/420/420
f 420/420/420 421/421/421 423/423/423
f 426/426/426 425/425/425 424/424/424
f 424/424/424 425/425/425 427/427/427
f 430/430/430 429/429/429 428/428/428
f 428/428/428 429/429/429 431/431/431
f 434/434/434 433/433/433 432/432/432
f 432/432/432 433/433/433 435/435/435
f 438/438/438 437/437/437 436/436/436
f 436/436/436 437/437/437 439/439/439
f 442/442/442 441/441/441 440/440/440
f 440/440/440 441/441/441 443/443/443
f 446/446/446 445/445/445 444/444/444
f 444/444/444 445/445/445 447/447/447
f 447/447/447 445/445/445 448/448/448
f 448/448/448 445/445/445 449/449/449
f 452/452/452 451/451/451 450/450/450
f 450/450/450 451/451/451 453/453/453
f 456/456/456 455/455/455 454/454/454
f 454/454/454 455/455/455 457/457/457
f 460/460/460 459/459/459 458/458/458
f 458/458/458 459/459/459 461/461/461
f 464/464/464 463/463/463 462/462/462
f 462/462/462 463/463/463 465/465/465
f 468/468/468 467/467/467 466/466/466
f 466/466/466 467/467/467 469/469/469
f 472/472/472 471/471/471 470/470/470
f 470/470/470 471/471/471 473/473/473
f 476/476/476 475/475/475 474/474/474
f 474/474/474 475/475/475 477/477/477
f 480/480/480 479/479/479 478/478/478
f 478/478/478 479/479/479 481/481/481
f 482/482/482 481/481/481 479/479/479
f 483/483/483 482/482/482 479/479/479
f 486/486/486 485/485/485 484/484/484
f 484/484/484 485/485/485 487/487/487
f 485/485/485 488/488/488 487/487/487
f 488/488/488 485/485/485 489/489/489
f 490/490/490 488/488/488 489/489/489
f 491/491/491 488/488/488 490/490/490
f 494/494/494 493/493/493 492/492/492
f 495/495/495 492/492/492 493/493/493
f 495/495/495 496/496/496 492/492/492
f 495/495/495 497/497/497 496/496/496
f 496/496/496 497/497/497 498/498/498
f 496/496/496 498/498/498 499/499/499
f 498/498/498 497/497/497 500/500/500
f 497/497/497 501/501/501 500/500/500
f 500/500/500 501/501/501 502/502/502
f 503/503/503 500/500/500 502/502/502
f 504/504/504 500/500/500 503/503/503
f 502/502/502 501/501/501 505/505/505
f 506/506/506 505/505/505 501/501/501
f 507/507/507 506/506/506 501/501/501
f 506/506/506 507/507/507 508/508/508
f 509/509/509 506/506/506 508/508/508
f 510/510/510 509/509/509 508/508/508
f 511/511/511 508/508/508 507/507/507
f 512/512/512 511/511/511 507/507/507
f 513/513/513 511/511/511 512/512/512
f 516/516/516 515/515/515 514/514/514
f 515/515/515 516/516/516 517/517/517
f 517/517/517 516/516/516 518/518/518
f 519/519/519 517/517/517 518/518/518
f 522/522/522 521/521/521 520/520/520
f 522/522/522 523/523/523 521/521/521
f 521/521/521 523/523/523 524/524/524
f 525/525/525 524/524/524 523/523/523
f 526/526/526 524/524/524 525/525/525
f 527/527/527 524/524/524 526/526/526
f 530/530/530 529/529/529 528/528/528
f 530/530/530 531/531/531 529/529/529
f 529/529/529 531/531/531 532/532/532
f 533/533/533 532/532/532 531/531/531
f 534/534/534 532/532/532 533/533/533
f 535/535/535 532/532/532 534/534/534
f 538/538/538 537/537/537 536/536/536
f 538/538/538 539/539/539 537/537/537
f 540/540/540 537/537/537 539/539/539
f 541/541/541 540/540/540 539/539/539
f 544/544/544 543/543/543 542/542/542
f 543/543/543 544/544/544 545/545/545
f 546/546/546 543/543/543 545/545/545
f 549/549/549 548/548/548 547/547/547
f 550/550/550 547/547/547 548/548/548
f 551/551/551 547/547/547 550/550/550
f 547/547/547 551/551/551 552/552/552
f 553/553/553 552/552/552 551/551/551
f 556/556/556 555/555/555 554/554/554
f 555/555/555 556/556/556 557/557/557
f 557/557/557 556/556/556 558/558/558
f 561/561/561 560/560/560 559/559/559
f 561/561/561 562/562/562 560/560/560
f 560/560/560 562/562/562 563/563/563
f 562/562/562 564/564/564 563/563/563
f 565/565/565 564/564/564 562/562/562
f 566/566/566 564/564/564 565/565/565
f 567/567/567 563/563/563 564/564/564
f 568/568/568 563/563/563 567/567/567
f 569/569/569 566/566/566 565/565/565
f 570/570/570 568/568/568 567/567/567
f 571/571/571 570/570/570 567/567/567
f 569/569/569 570/570/570 571/571/571
f 572/572/572 569/569/569 565/565/565
f 573/573/573 570/570/570 569/569/569
f 573/573/573 569/569/569 572/572/572
f 576/576/576 575/575/575 574/574/574
f 575/575/575 577/577/577 574/574/574
f 577/577/577 575/575/575 578/578/578
f 579/579/579 578/578/578 575/575/575
f 582/582/582 581/581/581 580/580/580
f 582/582/582 583/583/583 581/581/581
f 584/584/584 581/581/581 583/583/583
f 585/585/585 584/584/584 583/583/583
f 586/586/586 584/584/584 585/585/585
f 587/587/587 584/584/584 586/586/586
f 590/590/590 589/589/589 588/588/588
f 589/589/589 591/591/591 588/588/588
f 588/588/588 591/591/591 592/592/592
f 591/591/591 593/593/593 592/592/592
f 594/594/594 592/592/592 593/593/593
f 595/595/595 592/592/592 594/594/594
f 598/598/598 597/597/597 596/596/596
f 596/596/596 597/597/597 599/599/599
f 599/599/599 597/597/597 600/600/600
f 597/597/597 601/601/601 600/600/600
f 601/601/601 602/602/602 600/600/600
f 602/602/602 603/603/603 600/600/600
f 604/604/604 603/603/603 602/602/602
f 605/605/605 600/600/600 603/603/603
f 606/606/606 603/603/603 604/604/604
f 607/607/607 606/606/606 604/604/604
f 607/607/607 608/608/608 606/606/606
f 605/605/605 603/603/603 609/609/609
f 606/606/606 608/608/608 610/610/610
f 610/610/610 605/605/605 609/609/609
f 608/608/608 611/611/611 610/610/610
f 605/605/605 610/610/610 611/611/611
f 612/612/612 605/605/605 611/611/611
f 605/605/605 612/612/612 613/613/613
f 614/614/614 613/613/613 612/612/612
f 615/615/615 613/613/613 614/614/614
f 618/618/618 617/617/617 616/616/616
f 616/616/616 617/617/617 619/619/619
f 617/617/617 620/620/620 619/619/619
f 620/620/620 617/617/617 621/621/621
f 622/622/622 620/620/620 621/621/621
f 623/623/623 620/620/620 622/622/622
f 626/626/626 625/625/625 624/624/624
f 624/624/624 625/625/625 627/627/627
f 625/625/625 628/628/628 627/627/627
f 627/627/627 628/628/628 629/629/629
f 630/630/630 627/627/627 629/629/629
f 630/630/630 629/629/629 631/631/631
f 632/632/632 629/629/629 628/628/628
f 633/633/633 632/632/632 628/628/628
f 634/634/634 632/632/632 633/633/633
f 635/635/635 632/632/632 634/634/634
f 636/636/636 635/635/635 634/634/634
f 637/637/637 630/630/630 631/631/631
f 637/637/637 635/635/635 636/636/636
f 638/638/638 630/630/630 637/637/637
f 638/638/638 637/637/637 636/636/636
f 641/641/641 640/640/640 639/639/639
f 639/639/639 640/640/640 642/642/642
f 639/639/639 642/642/642 643/643/643
f 644/644/644 642/642/642 640/640/640
f 642/642/642 645/645/645 643/643/643
f 646/646/646 642/642/642 644/644/644
f 647/647/647 646/646/646 644/644/644
f 646/646/646 647/647/647 648/648/648
f 643/643/643 645/645/645 649/649/649
f 647/647/647 649/649/649 648/648/648
f 645/645/645 650/650/650 649/649/649
f 648/648/648 649/649/649 650/650/650
f 653/653/653 652/652/652 651/651/651
f 653/653/653 651/651/651 654/654/654
f 655/655/655 651/651/651 652/652/652
f 654/654/654 651/651/651 656/656/656
f 651/651/651 657/657/657 656/656/656
f 655/655/655 658/658/658 651/651/651
f 656/656/656 657/657/657 659/659/659
f 660/660/660 659/659/659 657/657/657
f 658/658/658 659/659/659 660/660/660
f 658/658/658 655/655/655 661/661/661
f 662/662/662 659/659/659 658/658/658
f 662/662/662 658/658/658 661/661/661
f 665/665/665 664/664/664 663/663/663
f 666/666/666 663/663/663 664/664/664
f 666/666/666 667/667/667 663/663/663
f 667/667/667 666/666/666 668/668/668
f 667/667/667 668/668/668 669/669/669
f 668/668/668 670/670/670 669/669/669
f 663/663/663 671/671/671 665/665/665
f 669/669/669 670/670/670 671/671/671
f 665/665/665 671/671/671 672/672/672
f 672/672/672 671/671/671 670/670/670
f 675/675/675 674/674/674 673/673/673
f 674/674/674 676/676/676 673/673/673
f 677/677/677 673/673/673 676/676/676
f 678/678/678 677/677/677 676/676/676
f 679/679/679 677/677/677 678/678/678
f 680/680/680 679/679/679 678/678/678
f 675/675/675 673/673/673 681/681/681
f 680/680/680 681/681/681 679/679/679
f 681/681/681 682/682/682 675/675/675
f 682/682/682 681/681/681 680/680/680
f 685/685/685 684/684/684 683/683/683
f 684/684/684 686/686/686 683/683/683
f 683/683/683 686/686/686 687/687/687
f 688/688/688 687/687/687 686/686/686
f 687/687/687 688/688/688 689/689/689
f 690/690/690 685/685/685 683/683/683
f 688/688/688 691/691/691 689/689/689
f 692/692/692 685/685/685 690/690/690
f 693/693/693 692/692/692 690/690/690
f 693/693/693 689/689/689 694/694/694
f 692/692/692 693/693/693 694/694/694
f 689/689/689 691/691/691 694/694/694
f 695/695/695 685/685/685 692/692/692
f 694/694/694 691/691/691 696/696/696
f 685/685/685 695/695/695 697/697/697
f 698/698/698 696/696/696 691/691/691
f 691/691/691 699/699/699 698/698/698
f 700/700/700 696/696/696 698/698/698
f 695/695/695 696/696/696 700/700/700
f 698/698/698 699/699/699 701/701/701
f 699/699/699 702/702/702 701/701/701
f 703/703/703 701/701/701 702/702/702
f 704/704/704 695/695/695 700/700/700
f 695/695/695 704/704/704 697/697/697
f 701/701/701 703/703/703 704/704/704
f 705/705/705 697/697/697 704/704/704
f 705/705/705 704/704/704 703/703/703
f 708/708/708 707/707/707 706/706/706
f 707/707/707 709/709/709 706/706/706
f 706/706/706 710/710/710 708/708/708
f 708/708/708 710/710/710 711/711/711
f 710/710/710 712/712/712 711/711/711
f 711/711/711 712/712/712 713/713/713
f 713/713/713 712/712/712 714/714/714
f 712/712/712 715/715/715 714/714/714
f 715/715/715 716/716/716 714/714/714
f 706/706/706 709/709/709 716/716/716
f 714/714/714 716/716/716 717/717/717
f 709/709/709 717/717/717 716/716/716
f 717/717/717 709/709/709 718/718/718
f 717/717/717 718/718/718 719/719/719
f 720/720/720 717/717/717 719/719/719
f 721/721/721 717/717/717 720/720/720
f 720/720/720 722/722/722 721/721/721
f 720/720/720 723/723/723 722/722/722
f 722/722/722 723/723/723 724/724/724
f 725/725/725 719/719/719 718/718/718
f 723/723/723 725/725/725 724/724/724
f 725/725/725 718/718/718 726/726/726
f 724/724/724 725/725/725 726/726/726
f 729/729/729 728/728/728 727/727/727
f 728/728/728 729/729/729 730/730/730
f 731/731/731 729/729/729 727/727/727
f 729/729/729 732/732/732 730/730/730
f 727/727/727 733/733/733 731/731/731
f 730/730/730 732/732/732 734/734/734
f 731/731/731 733/733/733 735/735/735
f 732/732/732 735/735/735 734/734/734
f 733/733/733 736/736/736 735/735/735
f 736/736/736 734/734/734 735/735/735
f 739/739/739 738/738/738 737/737/737
f 739/739/739 740/740/740 738/738/738
f 737/737/737 738/738/738 741/741/741
f 738/738/738 740/740/740 742/742/742
f 741/741/741 743/743/743 737/737/737
f 740/740/740 744/744/744 742/742/742
f 741/741/741 745/745/745 743/743/743
f 742/742/742 744/744/744 745/745/745
f 743/743/743 745/745/745 746/746/746
f 746/746/746 745/745/745 744/744/744
