v -0.562500 -0.062500 0.272603
v -0.562500 -0.062500 0.000000
v -0.562500 0.062500 -0.000000
v -0.562500 -0.062500 0.272603
v -0.562500 0.062500 -0.000000
v -0.562500 0.062500 0.272603
v 1.437500 -0.062500 0.201128
v 1.437500 -0.062500 0.000000
v 1.437500 0.062500 -0.000000
v 1.437500 -0.062500 0.201128
v 1.437500 0.062500 -0.000000
v 1.437500 0.062500 0.201128
v 0.437500 -0.062500 0.231276
v 0.437500 -0.062500 0.000000
v 0.437500 0.062500 -0.000000
v 0.437500 0.062500 -0.000000
v 0.437500 0.062500 0.231276
v -0.437500 0.062500 0.291562
v -0.437500 0.062500 -0.000000
v -0.437500 -0.062500 0.000000
v -0.437500 0.062500 0.291562
v -0.437500 -0.062500 0.000000
v -0.437500 -0.062500 0.291562
v -1.562500 -0.062500 0.262436
v -1.437500 -0.062500 0.236470
v -1.437500 -0.062500 0.000000
v -1.562500 -0.062500 0.262436
v -1.437500 -0.062500 0.000000
v -1.562500 -0.062500 0.000000
v 1.562500 0.062500 0.239758
v 1.562500 0.062500 -0.000000
v 1.562500 -0.062500 0.000000
v 1.562500 0.062500 0.239758
v 1.562500 -0.062500 0.000000
v 1.562500 -0.062500 0.239758
v 0.562500 -0.062500 0.000000
v 0.437500 -0.062500 0.000000
v 0.437500 -0.062500 0.231276
v 0.562500 -0.062500 0.000000
v 0.562500 -0.062500 0.183245
v -0.562500 0.062500 -0.000000
v -0.437500 0.062500 -0.000000
v -0.437500 0.062500 0.291562
v -0.562500 0.062500 -0.000000
v -0.562500 0.062500 0.272603
v 0.437500 0.062500 0.231276
v 0.437500 0.062500 -0.000000
v 0.562500 0.062500 -0.000000
v 0.437500 0.062500 0.231276
v 0.562500 0.062500 -0.000000
v 0.562500 0.062500 0.183245
v -1.562500 0.062500 -0.000000
v -1.437500 0.062500 -0.000000
v -1.437500 0.062500 0.236470
v -1.562500 0.062500 -0.000000
v -1.437500 0.062500 0.236470
v -1.562500 0.062500 0.262436
v -0.562500 -0.062500 0.272603
v -0.437500 -0.062500 0.291562
v -0.437500 -0.062500 0.000000
v -0.562500 -0.062500 0.272603
v -0.437500 -0.062500 0.000000
v -0.562500 -0.062500 0.000000
v -1.562500 -0.062500 0.000000
v -1.562500 0.062500 -0.000000
v -1.562500 0.062500 0.262436
v -1.562500 -0.062500 0.000000
v -1.562500 0.062500 0.262436
v -1.562500 -0.062500 0.262436
v -1.437500 0.062500 -0.000000
v -1.437500 -0.062500 0.000000
v -1.437500 -0.062500 0.236470
v -1.437500 0.062500 -0.000000
v -1.437500 -0.062500 0.236470
v -1.437500 0.062500 0.236470
v -1.437500 0.062500 0.236470
v -1.437500 -0.062500 0.236470
v -1.562500 -0.062500 0.262436
v -1.562500 -0.062500 0.262436
v -1.562500 0.062500 0.262436
v 0.437500 0.062500 0.231276
v 0.562500 0.062500 0.183245
v 0.562500 -0.062500 0.183245
v 0.437500 0.062500 0.231276
v 0.562500 -0.062500 0.183245
v 0.437500 -0.062500 0.231276
v 1.562500 -0.062500 0.000000
v 1.437500 -0.062500 0.000000
v 1.437500 -0.062500 0.201128
v 1.562500 -0.062500 0.000000
v 1.437500 -0.062500 0.201128
v 1.562500 -0.062500 0.239758
v 0.562500 0.062500 0.183245
v 0.562500 0.062500 -0.000000
v 0.562500 -0.062500 0.000000
v 0.562500 -0.062500 0.183245
v 1.437500 0.062500 0.201128
v 1.437500 0.062500 -0.000000
v 1.562500 0.062500 -0.000000
v 1.562500 0.062500 0.239758
v -0.562500 0.062500 0.272603
v -0.437500 0.062500 0.291562
v -0.437500 -0.062500 0.291562
v -0.562500 -0.062500 0.272603
v 1.437500 -0.062500 0.201128
v 1.437500 0.062500 0.201128
v 1.562500 0.062500 0.239758
v 1.562500 -0.062500 0.239758
vt 0.250513762 0.542696416
vt 0.281463325 0.487152457
vt 0.238357842 0.502990425
vt 0.250513762 0.542696416
vt 0.238357842 0.502990425
vt 0.260812879 0.548665285
vt 0.205050677 0.450454831
vt 0.226720184 0.500099599
vt 0.224919885 0.408899337
vt 0.205050677 0.450454831
vt 0.224919885 0.408899337
vt 0.203488231 0.448394924
vt 0.252519459 0.444232702
vt 0.286138684 0.382857293
vt 0.226787508 0.382857293
vt 0.226787508 0.382857293
vt 0.251699328 0.445637941
vt 0.259913266 0.530611575
vt 0.226787508 0.592511654
vt 0.282373488 0.592511654
vt 0.259913266 0.530611575
vt 0.282373488 0.592511654
vt 0.253409743 0.52508074
vt 0.126862675 0.609405577
vt 0.146647304 0.559462905
vt 0.172433168 0.510273814
vt 0.126862675 0.609405577
vt 0.172433168 0.510273814
vt 0.172433168 0.382857293
vt 0.203881264 0.451006681
vt 0.172500461 0.382857293
vt 0.172984421 0.500099599
vt 0.203881264 0.451006681
vt 0.172984421 0.500099599
vt 0.204280168 0.452112794
vt 0.271294415 0.481775194
vt 0.286138684 0.382857293
vt 0.252519459 0.444232702
vt 0.271294415 0.481775194
vt 0.253853768 0.443747312
vt 0.238357842 0.502990425
vt 0.226787508 0.592511654
vt 0.259913266 0.530611575
vt 0.238357842 0.502990425
vt 0.260812879 0.548665285
vt 0.251699328 0.445637941
vt 0.226787508 0.382857293
vt 0.229606271 0.487085134
vt 0.251699328 0.445637941
vt 0.229606271 0.487085134
vt 0.252712965 0.44702062
vt 0.134110421 0.478969902
vt 0.144640446 0.534567654
vt 0.140476942 0.551137269
vt 0.134110421 0.478969902
vt 0.140476942 0.551137269
vt 0.135356665 0.560219884
vt 0.250513762 0.542696416
vt 0.253409743 0.52508074
vt 0.282373488 0.592511654
vt 0.250513762 0.542696416
vt 0.282373488 0.592511654
vt 0.281463325 0.487152457
vt 0.172433168 0.382857293
vt 0.134110421 0.478969902
vt 0.135356665 0.560219884
vt 0.172433168 0.382857293
vt 0.135356665 0.560219884
vt 0.126862675 0.609405577
vt 0.144640446 0.534567654
vt 0.172433168 0.510273814
vt 0.146647304 0.559462905
vt 0.144640446 0.534567654
vt 0.146647304 0.559462905
vt 0.140476942 0.551137269
vt 0.140476942 0.551137269
vt 0.146647304 0.559462905
vt 0.126862675 0.609405577
vt 0.126862675 0.609405577
vt 0.135356665 0.560219884
vt 0.251699328 0.445637941
vt 0.252712965 0.44702062
vt 0.253853768 0.443747312
vt 0.251699328 0.445637941
vt 0.253853768 0.443747312
vt 0.252519459 0.444232702
vt 0.172984421 0.500099599
vt 0.226720184 0.500099599
vt 0.205050677 0.450454831
vt 0.172984421 0.500099599
vt 0.205050677 0.450454831
vt 0.204280168 0.452112794
vt 0.252712965 0.44702062
vt 0.229606271 0.487085134
vt 0.271294415 0.481775194
vt 0.253853768 0.443747312
vt 0.203488231 0.448394924
vt 0.224919885 0.408899337
vt 0.172500461 0.382857293
vt 0.203881264 0.451006681
vt 0.260812879 0.548665285
vt 0.259913266 0.530611575
vt 0.253409743 0.52508074
vt 0.250513762 0.542696416
vt 0.205050677 0.450454831
vt 0.203488231 0.448394924
vt 0.203881264 0.451006681
vt 0.204280168 0.452112794
vn -1.000000 0.000000 0.000000
vn -1.000000 0.000000 0.000000
vn -1.000000 0.000000 0.000000
vn -1.000000 0.000000 0.000000
vn -1.000000 0.000000 0.000000
vn -1.000000 0.000000 0.000000
vn -1.000000 0.000000 0.000000
vn -1.000000 0.000000 0.000000
vn -1.000000 0.000000 0.000000
vn -1.000000 0.000000 0.000000
vn -1.000000 0.000000 0.000000
vn -1.000000 0.000000 0.000000
vn -1.000000 0.000000 0.000000
vn -1.000000 0.000000 0.000000
vn -1.000000 0.000000 0.000000
vn -1.000000 0.000000 0.000000
vn -1.000000 0.000000 0.000000
vn 1.000000 0.000000 0.000000
vn 1.000000 0.000000 0.000000
vn 1.000000 0.000000 0.000000
vn 1.000000 0.000000 0.000000
vn 1.000000 0.000000 0.000000
vn 1.000000 0.000000 0.000000
vn 0.000000 -1.000000 0.000000
vn 0.000000 -1.000000 0.000000
vn 0.000000 -1.000000 0.000000
vn 0.000000 -1.000000 0.000000
vn 0.000000 -1.000000 0.000000
vn 0.000000 -1.000000 0.000000
vn 1.000000 0.000000 0.000000
vn 1.000000 0.000000 0.000000
vn 1.000000 0.000000 0.000000
vn 1.000000 0.000000 0.000000
vn 1.000000 0.000000 0.000000
vn 1.000000 0.000000 0.000000
vn 0.000000 -1.000000 0.000000
vn 0.000000 -1.000000 0.000000
vn 0.000000 -1.000000 0.000000
vn 0.000000 -1.000000 0.000000
vn 0.000000 -1.000000 0.000000
vn 0.000000 1.000000 -0.000000
vn 0.000000 1.000000 -0.000000
vn 0.000000 1.000000 -0.000000
vn 0.000000 1.000000 -0.000000
vn 0.000000 1.000000 -0.000000
vn 0.000000 1.000000 -0.000000
vn 0.000000 1.000000 -0.000000
vn 0.000000 1.000000 -0.000000
vn 0.000000 1.000000 -0.000000
vn 0.000000 1.000000 -0.000000
vn 0.000000 1.000000 -0.000000
vn 0.000000 1.000000 -0.000000
vn 0.000000 1.000000 -0.000000
vn 0.000000 1.000000 -0.000000
vn 0.000000 1.000000 -0.000000
vn 0.000000 1.000000 -0.000000
vn 0.000000 1.000000 -0.000000
vn 0.000000 -1.000000 0.000000
vn 0.000000 -1.000000 0.000000
vn 0.000000 -1.000000 0.000000
vn 0.000000 -1.000000 0.000000
vn 0.000000 -1.000000 0.000000
vn 0.000000 -1.000000 0.000000
vn -1.000000 0.000000 0.000000
vn -1.000000 0.000000 0.000000
vn -1.000000 0.000000 0.000000
vn -1.000000 0.000000 0.000000
vn -1.000000 0.000000 0.000000
vn -1.000000 0.000000 0.000000
vn 1.000000 0.000000 0.000000
vn 1.000000 0.000000 0.000000
vn 1.000000 0.000000 0.000000
vn 1.000000 0.000000 0.000000
vn 1.000000 0.000000 0.000000
vn 1.000000 0.000000 0.000000
vn 0.203383 0.000000 0.979099
vn 0.203383 0.000000 0.979099
vn 0.203383 0.000000 0.979099
vn 0.203383 0.000000 0.979099
vn 0.203383 0.000000 0.979099
vn 0.358683 0.000000 0.933459
vn 0.358683 0.000000 0.933459
vn 0.358683 0.000000 0.933459
vn 0.358683 0.000000 0.933459
vn 0.358683 0.000000 0.933459
vn 0.358683 0.000000 0.933459
vn 0.000000 -1.000000 0.000000
vn 0.000000 -1.000000 0.000000
vn 0.000000 -1.000000 0.000000
vn 0.000000 -1.000000 0.000000
vn 0.000000 -1.000000 0.000000
vn 0.000000 -1.000000 0.000000
vn 1.000000 0.000000 0.000000
vn 1.000000 0.000000 0.000000
vn 1.000000 0.000000 0.000000
vn 1.000000 0.000000 0.000000
vn 0.000000 1.000000 -0.000000
vn 0.000000 1.000000 -0.000000
vn 0.000000 1.000000 -0.000000
vn 0.000000 1.000000 -0.000000
vn -0.149956 0.000000 0.988693
vn -0.149956 0.000000 0.988693
vn -0.149956 0.000000 0.988693
vn -0.149956 0.000000 0.988693
vn -0.295259 0.000000 0.955417
vn -0.295259 0.000000 0.955417
vn -0.295259 0.000000 0.955417
vn -0.295259 0.000000 0.955417
f 3/3/3 2/2/2 1/1/1
f 6/6/6 5/5/5 4/4/4
f 9/9/9 8/8/8 7/7/7
f 12/12/12 11/11/11 10/10/10
f 15/15/15 14/14/14 13/13/13
f 17/17/17 16/16/16 13/13/13
f 20/20/20 19/19/19 18/18/18
f 23/23/23 22/22/22 21/21/21
f 26/26/26 25/25/25 24/24/24
f 29/29/29 28/28/28 27/27/27
f 32/32/32 31/31/31 30/30/30
f 35/35/35 34/34/34 33/33/33
f 38/38/38 37/37/37 36/36/36
f 40/40/40 38/38/38 39/39/39
f 43/43/43 42/42/42 41/41/41
f 45/45/45 43/43/43 44/44/44
f 48/48/48 47/47/47 46/46/46
f 51/51/51 50/50/50 49/49/49
f 54/54/54 53/53/53 52/52/52
f 57/57/57 56/56/56 55/55/55
f 60/60/60 59/59/59 58/58/58
f 63/63/63 62/62/62 61/61/61
f 66/66/66 65/65/65 64/64/64
f 69/69/69 68/68/68 67/67/67
f 72/72/72 71/71/71 70/70/70
f 75/75/75 74/74/74 73/73/73
f 78/78/78 77/77/77 76/76/76
f 80/80/80 79/79/79 76/76/76
f 83/83/83 82/82/82 81/81/81
f 86/86/86 85/85/85 84/84/84
f 89/89/89 88/88/88 87/87/87
f 92/92/92 91/91/91 90/90/90
f 95/95/95 94/94/94 93/93/93
f 96/96/96 95/95/95 93/93/93
f 99/99/99 98/98/98 97/97/97
f 100/100/100 99/99/99 97/97/97
f 103/103/103 102/102/102 101/101/101
f 104/104/104 103/103/103 101/101/101
f 107/107/107 106/106/106 105/105/105
f 108/108/108 107/107/107 105/105/105
