v -3.000000 -3.000000 -0.250000
v -3.000000 3.000000 -0.250000
v -3.000000 3.000000 0.250000
v -3.000000 -3.000000 0.250000
v -3.000000 -3.000000 0.250000
v -3.000000 3.000000 0.250000
v 3.000000 3.000000 0.250000
v 3.000000 -3.000000 0.250000
v 3.000000 -3.000000 0.250000
v 3.000000 3.000000 0.250000
v 3.000000 3.000000 -0.250000
v 3.000000 -3.000000 -0.250000
v 3.000000 -3.000000 -0.250000
v 3.000000 3.000000 -0.250000
v -3.000000 3.000000 -0.250000
v -3.000000 -3.000000 -0.250000
v -3.000000 3.000000 -0.250000
v 3.000000 3.000000 -0.250000
v 3.000000 3.000000 0.250000
v -3.000000 3.000000 0.250000
v 3.000000 -3.000000 -0.250000
v -3.000000 -3.000000 -0.250000
v -3.000000 -3.000000 0.250000
v 3.000000 -3.000000 0.250000
v 1.500002 -0.260002 2.000002
v -1.499999 -0.259999 1.999999
v -1.500002 -0.259999 5.000000
v 1.499998 -0.260002 5.000003
vt 0.449999988 0
vt 0.449999988 1
vt 0.550000012 1
vt 0.550000012 0
vt 0 0
vt 0 1
vt 1 1
vt 1 0
vt 0.449999988 0
vt 0.449999988 1
vt 0.550000012 1
vt 0.550000012 0
vt 0 0
vt 0 1
vt 1 1
vt 1 0
vt 0.449999988 0
vt 0.449999988 1
vt 0.550000012 1
vt 0.550000012 0
vt 0.449999988 0
vt 0.449999988 1
vt 0.550000012 1
vt 0.550000012 0
vt 0.000100016594 0.999899864
vt 0.999899626 0.999899626
vt 0.999899864 0.000100016594
vt 9.99569893E-05 9.98973846E-05
vn -1.000000 0.000000 0.000000
vn -1.000000 0.000000 0.000000
vn -1.000000 0.000000 0.000000
vn -1.000000 0.000000 0.000000
vn 0.000000 -0.000000 1.000000
vn 0.000000 -0.000000 1.000000
vn 0.000000 -0.000000 1.000000
vn 0.000000 -0.000000 1.000000
vn 1.000000 0.000000 0.000000
vn 1.000000 0.000000 0.000000
vn 1.000000 0.000000 0.000000
vn 1.000000 0.000000 0.000000
vn 0.000000 0.000000 -1.000000
vn 0.000000 0.000000 -1.000000
vn 0.000000 0.000000 -1.000000
vn 0.000000 0.000000 -1.000000
vn 0.000000 1.000000 0.000000
vn 0.000000 1.000000 0.000000
vn 0.000000 1.000000 0.000000
vn 0.000000 1.000000 0.000000
vn 0.000000 -1.000000 -0.000000
vn 0.000000 -1.000000 -0.000000
vn 0.000000 -1.000000 -0.000000
vn 0.000000 -1.000000 -0.000000
vn -0.000001 -1.000000 -0.000000
vn -0.000001 -1.000000 -0.000000
vn -0.000001 -1.000000 -0.000000
vn -0.000001 -1.000000 -0.000000
f 3/3/3 2/2/2 1/1/1
f 4/4/4 3/3/3 1/1/1
f 7/7/7 6/6/6 5/5/5
f 8/8/8 7/7/7 5/5/5
f 11/11/11 10/10/10 9/9/9
f 12/12/12 11/11/11 9/9/9
f 15/15/15 14/14/14 13/13/13
f 16/16/16 15/15/15 13/13/13
f 19/19/19 18/18/18 17/17/17
f 20/20/20 19/19/19 17/17/17
f 23/23/23 22/22/22 21/21/21
f 24/24/24 23/23/23 21/21/21
f 27/27/27 26/26/26 25/25/25
f 28/28/28 27/27/27 25/25/25
