v 0.375000 0.100000 -1.600000
v 0.000000 0.100000 -1.850000
v 2.000000 0.100000 -1.850000
v 0.250000 0.100000 -1.475000
v 0.000000 0.100000 -1.850000
v 0.250000 0.100000 1.525000
v 0.250000 0.100000 1.525000
v 0.375000 0.100000 1.650000
v 0.000000 0.100000 1.900000
v 0.000000 0.100000 1.900000
v 0.000000 0.100000 -1.850000
v 0.000000 0.100000 1.900000
v 0.375000 0.100000 1.650000
v 2.000000 0.100000 1.900000
v 0.375000 0.100000 1.650000
v 1.000000 0.100000 0.150000
v 1.625000 0.100000 1.650000
v 0.250000 0.100000 -1.475000
v 0.875000 0.100000 0.025000
v 0.250000 0.100000 1.525000
v 1.000000 0.100000 -0.100000
v 0.375000 0.100000 -1.600000
v 1.625000 0.100000 -1.600000
v 1.750000 0.100000 -1.475000
v 1.750000 0.100000 1.525000
v 1.133000 0.100000 0.025000
v 1.645051 -0.100000 -1.600000
v 2.020051 -0.100000 -1.850000
v 0.020051 -0.100000 -1.850000
v 1.770051 -0.100000 -1.475000
v 2.020051 -0.100000 -1.850000
v 1.770051 -0.100000 1.525000
v 1.770051 -0.100000 1.525000
v 1.645051 -0.100000 1.650000
v 2.020051 -0.100000 1.900000
v 2.020051 -0.100000 1.900000
v 2.020051 -0.100000 -1.850000
v 2.020051 -0.100000 1.900000
v 1.645051 -0.100000 1.650000
v 0.020051 -0.100000 1.900000
v 1.645051 -0.100000 1.650000
v 1.020051 -0.100000 0.150000
v 0.395051 -0.100000 1.650000
v 1.770051 -0.100000 -1.475000
v 1.145051 -0.100000 0.025000
v 1.770051 -0.100000 1.525000
v 1.020051 -0.100000 -0.100000
v 1.645051 -0.100000 -1.600000
v 0.395051 -0.100000 -1.600000
v 0.270051 -0.100000 -1.475000
v 0.270051 -0.100000 1.525000
v 0.887051 -0.100000 0.025000
v 2.000000 0.100000 -1.850000
v 0.000000 0.100000 -1.850000
v 0.020051 -0.100000 -1.850000
v 2.000000 0.100000 -1.850000
v 0.020051 -0.100000 -1.850000
v 2.020051 -0.100000 -1.850000
v 2.000000 0.100000 1.900000
v 0.375000 0.100000 1.650000
v 1.625000 0.100000 1.650000
v 1.750000 0.100000 1.525000
v 2.000000 0.100000 -1.850000
v 1.750000 0.100000 -1.475000
v 1.625000 0.100000 -1.600000
v 0.375000 0.100000 -1.600000
v 0.375000 0.100000 -1.600000
v 1.000000 0.100000 -0.100000
v 0.250000 0.100000 -1.475000
v 0.875000 0.100000 0.025000
v 1.000000 0.100000 0.150000
v 0.250000 0.100000 1.525000
v 0.375000 0.100000 1.650000
v 1.133000 0.100000 0.025000
v 1.750000 0.100000 1.525000
v 1.625000 0.100000 1.650000
v 1.750000 0.100000 -1.475000
v 1.625000 0.100000 -1.600000
v 0.020051 -0.100000 1.900000
v 1.645051 -0.100000 1.650000
v 0.395051 -0.100000 1.650000
v 0.270051 -0.100000 1.525000
v 0.020051 -0.100000 -1.850000
v 0.270051 -0.100000 -1.475000
v 0.395051 -0.100000 -1.600000
v 1.645051 -0.100000 -1.600000
v 1.645051 -0.100000 -1.600000
v 1.020051 -0.100000 -0.100000
v 1.770051 -0.100000 -1.475000
v 1.145051 -0.100000 0.025000
v 1.020051 -0.100000 0.150000
v 1.770051 -0.100000 1.525000
v 1.645051 -0.100000 1.650000
v 0.887051 -0.100000 0.025000
v 0.270051 -0.100000 1.525000
v 0.395051 -0.100000 1.650000
v 0.270051 -0.100000 -1.475000
v 0.395051 -0.100000 -1.600000
v 0.000000 0.100000 1.900000
v 2.000000 0.100000 1.900000
v 2.020051 -0.100000 1.900000
v 0.020051 -0.100000 1.900000
v 2.000000 0.100000 -1.850000
v 2.020051 -0.100000 -1.850000
v 2.020051 -0.100000 1.900000
v 2.000000 0.100000 1.900000
v 0.000000 0.100000 -1.850000
v 0.000000 0.100000 1.900000
v 0.020051 -0.100000 1.900000
v 0.020051 -0.100000 -1.850000
v -1.625000 0.100000 -1.600000
v -2.000000 0.100000 -1.850000
v 0.000000 0.100000 -1.850000
v -1.750000 0.100000 -1.475000
v -2.000000 0.100000 -1.850000
v -1.750000 0.100000 1.525000
v -1.750000 0.100000 1.525000
v -1.625000 0.100000 1.650000
v -2.000000 0.100000 1.900000
v -2.000000 0.100000 1.900000
v -2.000000 0.100000 -1.850000
v -2.000000 0.100000 1.900000
v -1.625000 0.100000 1.650000
v 0.000000 0.100000 1.900000
v -1.625000 0.100000 1.650000
v -1.000000 0.100000 0.150000
v -0.375000 0.100000 1.650000
v -1.750000 0.100000 -1.475000
v -1.125000 0.100000 0.025000
v -1.750000 0.100000 1.525000
v -1.000000 0.100000 -0.100000
v -1.625000 0.100000 -1.600000
v -0.375000 0.100000 -1.600000
v -0.250000 0.100000 -1.475000
v -0.250000 0.100000 1.525000
v -0.867000 0.100000 0.025000
v -0.354949 -0.100000 -1.600000
v 0.020051 -0.100000 -1.850000
v -1.979949 -0.100000 -1.850000
v -0.229949 -0.100000 -1.475000
v 0.020051 -0.100000 -1.850000
v -0.229949 -0.100000 1.525000
v -0.229949 -0.100000 1.525000
v -0.354949 -0.100000 1.650000
v 0.020051 -0.100000 1.900000
v 0.020051 -0.100000 1.900000
v 0.020051 -0.100000 -1.850000
v 0.020051 -0.100000 1.900000
v -0.354949 -0.100000 1.650000
v -1.979949 -0.100000 1.900000
v -0.354949 -0.100000 1.650000
v -0.979949 -0.100000 0.150000
v -1.604949 -0.100000 1.650000
v -0.229949 -0.100000 -1.475000
v -0.854949 -0.100000 0.025000
v -0.229949 -0.100000 1.525000
v -0.979949 -0.100000 -0.100000
v -0.354949 -0.100000 -1.600000
v -1.604949 -0.100000 -1.600000
v -1.729949 -0.100000 -1.475000
v -1.729949 -0.100000 1.525000
v -1.112949 -0.100000 0.025000
v 0.000000 0.100000 -1.850000
v -2.000000 0.100000 -1.850000
v -1.979949 -0.100000 -1.850000
v 0.000000 0.100000 -1.850000
v -1.979949 -0.100000 -1.850000
v 0.020051 -0.100000 -1.850000
v 0.000000 0.100000 1.900000
v -1.625000 0.100000 1.650000
v -0.375000 0.100000 1.650000
v -0.250000 0.100000 1.525000
v 0.000000 0.100000 -1.850000
v -0.250000 0.100000 -1.475000
v -0.375000 0.100000 -1.600000
v -1.625000 0.100000 -1.600000
v -1.625000 0.100000 -1.600000
v -1.000000 0.100000 -0.100000
v -1.750000 0.100000 -1.475000
v -1.125000 0.100000 0.025000
v -1.000000 0.100000 0.150000
v -1.750000 0.100000 1.525000
v -1.625000 0.100000 1.650000
v -0.867000 0.100000 0.025000
v -0.250000 0.100000 1.525000
v -0.375000 0.100000 1.650000
v -0.250000 0.100000 -1.475000
v -0.375000 0.100000 -1.600000
v -1.979949 -0.100000 1.900000
v -0.354949 -0.100000 1.650000
v -1.604949 -0.100000 1.650000
v -1.729949 -0.100000 1.525000
v -1.979949 -0.100000 -1.850000
v -1.729949 -0.100000 -1.475000
v -1.604949 -0.100000 -1.600000
v -0.354949 -0.100000 -1.600000
v -0.354949 -0.100000 -1.600000
v -0.979949 -0.100000 -0.100000
v -0.229949 -0.100000 -1.475000
v -0.854949 -0.100000 0.025000
v -0.979949 -0.100000 0.150000
v -0.229949 -0.100000 1.525000
v -0.354949 -0.100000 1.650000
v -1.112949 -0.100000 0.025000
v -1.729949 -0.100000 1.525000
v -1.604949 -0.100000 1.650000
v -1.729949 -0.100000 -1.475000
v -1.604949 -0.100000 -1.600000
v -2.000000 0.100000 1.900000
v 0.000000 0.100000 1.900000
v 0.020051 -0.100000 1.900000
v -1.979949 -0.100000 1.900000
v 0.000000 0.100000 -1.850000
v 0.020051 -0.100000 -1.850000
v 0.020051 -0.100000 1.900000
v 0.000000 0.100000 1.900000
v -2.000000 0.100000 -1.850000
v -2.000000 0.100000 1.900000
v -1.979949 -0.100000 1.900000
v -1.979949 -0.100000 -1.850000
vt 0.398342997 0.245879993
vt 0.401957005 0.239859
vt 0.395532012 0.239859
vt 0.398743987 0.247385994
vt 0.401957005 0.239859
vt 0.398743987 0.248890996
vt 0.398743987 0.248890996
vt 0.323668003 0.201131999
vt 0.401957005 0.263942987
vt 0.401957005 0.263942987
vt 0.401957005 0.239859
vt 0.401957005 0.263942987
vt 0.323668003 0.201131999
vt 0.395532012 0.263942987
vt 0.676136017 0.729165971
vt 0.604394019 0.759057999
vt 0.676136017 0.788950026
vt 0.604341984 0.729165971
vt 0.574450016 0.800907016
vt 0.604341984 0.872649014
vt 0.676136017 0.818894982
vt 0.604394019 0.789003015
vt 0.604394019 0.84878701
vt 0.676187992 0.729165971
vt 0.676187992 0.872648001
vt 0.705698013 0.800907016
vt 0.398342997 0.245879993
vt 0.401957005 0.239859
vt 0.395532012 0.239859
vt 0.398743987 0.247385994
vt 0.401957005 0.239859
vt 0.398743987 0.248890996
vt 0.398743987 0.248890996
vt 0.323668003 0.201131999
vt 0.401957005 0.263942987
vt 0.401957005 0.263942987
vt 0.401957005 0.239859
vt 0.401957005 0.263942987
vt 0.323668003 0.201131999
vt 0.395532012 0.263942987
vt 0.676136017 0.729165971
vt 0.604394019 0.759057999
vt 0.676136017 0.788950026
vt 0.604341984 0.729165971
vt 0.574450016 0.800907016
vt 0.604341984 0.872649014
vt 0.676136017 0.818894982
vt 0.604394019 0.789003015
vt 0.604394019 0.84878701
vt 0.676187992 0.729165971
vt 0.676187992 0.872648001
vt 0.705698013 0.800907016
vt 0.351987988 0.25799799
vt 0.351390004 0.25799799
vt 0.327847004 0.189466
vt 0.351987988 0.25799799
vt 0.327847004 0.189466
vt 0.351390004 0.25799799
vt 0.395532012 0.263942987
vt 0.323668003 0.201131999
vt 0.397540003 0.251901001
vt 0.323668003 0.201131999
vt 0.395532012 0.239859
vt 0.397138 0.248890996
vt 0.323668003 0.201131999
vt 0.398342997 0.245879993
vt 0.398743987 0.247385994
vt 0.323668003 0.201131999
vt 0.323668003 0.201131999
vt 0.323668003 0.201131999
vt 0.323668003 0.201131999
vt 0.398743987 0.248890996
vt 0.323668003 0.201131999
vt 0.323668003 0.201131999
vt 0.323668003 0.201131999
vt 0.397540003 0.251901001
vt 0.397138 0.248890996
vt 0.323668003 0.201131999
vt 0.395532012 0.263942987
vt 0.323668003 0.201131999
vt 0.397540003 0.251901001
vt 0.323668003 0.201131999
vt 0.395532012 0.239859
vt 0.397138 0.248890996
vt 0.323668003 0.201131999
vt 0.398342997 0.245879993
vt 0.398743987 0.247385994
vt 0.323668003 0.201131999
vt 0.323668003 0.201131999
vt 0.323668003 0.201131999
vt 0.323668003 0.201131999
vt 0.398743987 0.248890996
vt 0.323668003 0.201131999
vt 0.323668003 0.201131999
vt 0.323668003 0.201131999
vt 0.397540003 0.251901001
vt 0.397138 0.248890996
vt 0.323668003 0.201131999
vt 0.327847004 0.189466
vt 0.351987988 0.260241002
vt 0.327847004 0.189466
vt 0.351987988 0.260241002
vt 0.327847004 0.189466
vt 0.351987988 0.25799799
vt 0.327847004 0.189466
vt 0.351390004 0.260241002
vt 0.327847004 0.189466
vt 0.351987988 0.25799799
vt 0.327847004 0.189466
vt 0.351390004 0.260241002
vt 0.402947992 0.288866997
vt 0.406562001 0.282846004
vt 0.400137991 0.282846004
vt 0.403349996 0.290372014
vt 0.406562001 0.282846004
vt 0.403349996 0.291878015
vt 0.403349996 0.291878015
vt 0.328274012 0.244119003
vt 0.406562001 0.306930006
vt 0.406562001 0.306930006
vt 0.406562001 0.282846004
vt 0.406562001 0.306930006
vt 0.328274012 0.244119003
vt 0.400137991 0.306930006
vt 0.676136017 0.729165971
vt 0.604394019 0.759057999
vt 0.676136017 0.788950026
vt 0.604341984 0.729165971
vt 0.574450016 0.800907016
vt 0.604341984 0.872649014
vt 0.676136017 0.818894982
vt 0.604394019 0.789003015
vt 0.604394019 0.84878701
vt 0.676187992 0.729165971
vt 0.676187992 0.872648001
vt 0.705698013 0.800907016
vt 0.402947992 0.288866997
vt 0.406562001 0.282846004
vt 0.400137991 0.282846004
vt 0.403349996 0.290372014
vt 0.406562001 0.282846004
vt 0.403349996 0.291878015
vt 0.403349996 0.291878015
vt 0.328274012 0.244119003
vt 0.406562001 0.306930006
vt 0.406562001 0.306930006
vt 0.406562001 0.282846004
vt 0.406562001 0.306930006
vt 0.328274012 0.244119003
vt 0.400137991 0.306930006
vt 0.676136017 0.729165971
vt 0.604394019 0.759057999
vt 0.676136017 0.788950026
vt 0.604341984 0.729165971
vt 0.574450016 0.800907016
vt 0.604341984 0.872649014
vt 0.676136017 0.818894982
vt 0.604394019 0.789003015
vt 0.604394019 0.84878701
vt 0.676187992 0.729165971
vt 0.676187992 0.872648001
vt 0.705698013 0.800907016
vt 0.356593996 0.300985008
vt 0.355996013 0.300985008
vt 0.332451999 0.232453004
vt 0.356593996 0.300985008
vt 0.332451999 0.232453004
vt 0.355996013 0.300985008
vt 0.400137991 0.306930006
vt 0.328274012 0.244119003
vt 0.402144998 0.29488799
vt 0.328274012 0.244119003
vt 0.400137991 0.282846004
vt 0.401744008 0.291878015
vt 0.328274012 0.244119003
vt 0.402947992 0.288866997
vt 0.403349996 0.290372014
vt 0.328274012 0.244119003
vt 0.328274012 0.244119003
vt 0.328274012 0.244119003
vt 0.328274012 0.244119003
vt 0.403349996 0.291878015
vt 0.328274012 0.244119003
vt 0.328274012 0.244119003
vt 0.328274012 0.244119003
vt 0.402144998 0.29488799
vt 0.401744008 0.291878015
vt 0.328274012 0.244119003
vt 0.400137991 0.306930006
vt 0.328274012 0.244119003
vt 0.402144998 0.29488799
vt 0.328274012 0.244119003
vt 0.400137991 0.282846004
vt 0.401744008 0.291878015
vt 0.328274012 0.244119003
vt 0.402947992 0.288866997
vt 0.403349996 0.290372014
vt 0.328274012 0.244119003
vt 0.328274012 0.244119003
vt 0.328274012 0.244119003
vt 0.328274012 0.244119003
vt 0.403349996 0.291878015
vt 0.328274012 0.244119003
vt 0.328274012 0.244119003
vt 0.328274012 0.244119003
vt 0.402144998 0.29488799
vt 0.401744008 0.291878015
vt 0.328274012 0.244119003
vt 0.332451999 0.232453004
vt 0.356593996 0.303227991
vt 0.332451999 0.232453004
vt 0.356593996 0.303227991
vt 0.332451999 0.232453004
vt 0.356593996 0.300985008
vt 0.332451999 0.232453004
vt 0.355996013 0.303227991
vt 0.332451999 0.232453004
vt 0.356593996 0.300985008
vt 0.332451999 0.232453004
vt 0.355996013 0.303227991
vn 0.000000 1.000000 0.000000
vn 0.000000 1.000000 0.000000
vn 0.000000 1.000000 0.000000
vn 0.000000 1.000000 0.000000
vn 0.000000 1.000000 0.000000
vn 0.000000 1.000000 0.000000
vn 0.000000 1.000000 0.000000
vn 0.000000 1.000000 0.000000
vn 0.000000 1.000000 0.000000
vn 0.000000 1.000000 0.000000
vn 0.000000 1.000000 0.000000
vn 0.000000 1.000000 0.000000
vn 0.000000 1.000000 0.000000
vn 0.000000 1.000000 0.000000
vn 0.000000 1.000000 0.000000
vn 0.000000 1.000000 0.000000
vn 0.000000 1.000000 0.000000
vn 0.000000 1.000000 0.000000
vn 0.000000 1.000000 0.000000
vn 0.000000 1.000000 0.000000
vn 0.000000 1.000000 0.000000
vn 0.000000 1.000000 0.000000
vn 0.000000 1.000000 0.000000
vn 0.000000 1.000000 0.000000
vn 0.000000 1.000000 0.000000
vn 0.000000 1.000000 0.000000
vn 0.000000 -1.000000 0.000000
vn 0.000000 -1.000000 0.000000
vn 0.000000 -1.000000 0.000000
vn 0.000000 -1.000000 0.000000
vn 0.000000 -1.000000 0.000000
vn 0.000000 -1.000000 0.000000
vn 0.000000 -1.000000 0.000000
vn 0.000000 -1.000000 0.000000
vn 0.000000 -1.000000 0.000000
vn 0.000000 -1.000000 0.000000
vn 0.000000 -1.000000 0.000000
vn 0.000000 -1.000000 0.000000
vn 0.000000 -1.000000 0.000000
vn 0.000000 -1.000000 0.000000
vn 0.000000 -1.000000 0.000000
vn 0.000000 -1.000000 0.000000
vn 0.000000 -1.000000 0.000000
vn 0.000000 -1.000000 0.000000
vn 0.000000 -1.000000 0.000000
vn 0.000000 -1.000000 0.000000
vn 0.000000 -1.000000 0.000000
vn 0.000000 -1.000000 0.000000
vn 0.000000 -1.000000 0.000000
vn 0.000000 -1.000000 0.000000
vn 0.000000 -1.000000 0.000000
vn 0.000000 -1.000000 0.000000
vn 0.000000 0.000000 -1.000000
vn 0.000000 0.000000 -1.000000
vn 0.000000 0.000000 -1.000000
vn 0.000000 0.000000 -1.000000
vn 0.000000 0.000000 -1.000000
vn 0.000000 0.000000 -1.000000
vn 0.000000 1.000000 0.000000
vn 0.000000 1.000000 0.000000
vn 0.000000 1.000000 0.000000
vn 0.000000 1.000000 0.000000
vn 0.000000 1.000000 0.000000
vn 0.000000 1.000000 0.000000
vn 0.000000 1.000000 0.000000
vn 0.000000 1.000000 0.000000
vn 0.000000 1.000000 0.000000
vn 0.000000 1.000000 0.000000
vn 0.000000 1.000000 0.000000
vn 0.000000 1.000000 0.000000
vn 0.000000 1.000000 0.000000
vn 0.000000 1.000000 0.000000
vn 0.000000 1.000000 0.000000
vn 0.000000 1.000000 0.000000
vn 0.000000 1.000000 0.000000
vn 0.000000 1.000000 0.000000
vn 0.000000 1.000000 0.000000
vn 0.000000 1.000000 0.000000
vn 0.000000 -1.000000 0.000000
vn 0.000000 -1.000000 0.000000
vn 0.000000 -1.000000 0.000000
vn 0.000000 -1.000000 0.000000
vn 0.000000 -1.000000 0.000000
vn 0.000000 -1.000000 0.000000
vn 0.000000 -1.000000 0.000000
vn 0.000000 -1.000000 0.000000
vn 0.000000 -1.000000 0.000000
vn 0.000000 -1.000000 0.000000
vn 0.000000 -1.000000 0.000000
vn 0.000000 -1.000000 0.000000
vn 0.000000 -1.000000 0.000000
vn 0.000000 -1.000000 0.000000
vn 0.000000 -1.000000 0.000000
vn 0.000000 -1.000000 0.000000
vn 0.000000 -1.000000 0.000000
vn 0.000000 -1.000000 0.000000
vn 0.000000 -1.000000 0.000000
vn 0.000000 -1.000000 0.000000
vn 0.000000 0.000000 1.000000
vn 0.000000 0.000000 1.000000
vn 0.000000 0.000000 1.000000
vn 0.000000 0.000000 1.000000
vn 0.995012 0.099755 0.000000
vn 0.995012 0.099755 0.000000
vn 0.995012 0.099755 0.000000
vn 0.995012 0.099755 0.000000
vn -0.995012 -0.099755 0.000000
vn -0.995012 -0.099755 0.000000
vn -0.995012 -0.099755 0.000000
vn -0.995012 -0.099755 0.000000
vn 0.000000 1.000000 0.000000
vn 0.000000 1.000000 0.000000
vn 0.000000 1.000000 0.000000
vn 0.000000 1.000000 0.000000
vn 0.000000 1.000000 0.000000
vn 0.000000 1.000000 0.000000
vn 0.000000 1.000000 0.000000
vn 0.000000 1.000000 0.000000
vn 0.000000 1.000000 0.000000
vn 0.000000 1.000000 0.000000
vn 0.000000 1.000000 0.000000
vn 0.000000 1.000000 0.000000
vn 0.000000 1.000000 0.000000
vn 0.000000 1.000000 0.000000
vn 0.000000 1.000000 0.000000
vn 0.000000 1.000000 0.000000
vn 0.000000 1.000000 0.000000
vn 0.000000 1.000000 0.000000
vn 0.000000 1.000000 0.000000
vn 0.000000 1.000000 0.000000
vn 0.000000 1.000000 0.000000
vn 0.000000 1.000000 0.000000
vn 0.000000 1.000000 0.000000
vn 0.000000 1.000000 0.000000
vn 0.000000 1.000000 0.000000
vn 0.000000 1.000000 0.000000
vn 0.000000 -1.000000 0.000000
vn 0.000000 -1.000000 0.000000
vn 0.000000 -1.000000 0.000000
vn 0.000000 -1.000000 0.000000
vn 0.000000 -1.000000 0.000000
vn 0.000000 -1.000000 0.000000
vn 0.000000 -1.000000 0.000000
vn 0.000000 -1.000000 0.000000
vn 0.000000 -1.000000 0.000000
vn 0.000000 -1.000000 0.000000
vn 0.000000 -1.000000 0.000000
vn 0.000000 -1.000000 0.000000
vn 0.000000 -1.000000 0.000000
vn 0.000000 -1.000000 0.000000
vn 0.000000 -1.000000 0.000000
vn 0.000000 -1.000000 0.000000
vn 0.000000 -1.000000 0.000000
vn 0.000000 -1.000000 0.000000
vn 0.000000 -1.000000 0.000000
vn 0.000000 -1.000000 0.000000
vn 0.000000 -1.000000 0.000000
vn 0.000000 -1.000000 0.000000
vn 0.000000 -1.000000 0.000000
vn 0.000000 -1.000000 0.000000
vn 0.000000 -1.000000 0.000000
vn 0.000000 -1.000000 0.000000
vn 0.000000 0.000000 -1.000000
vn 0.000000 0.000000 -1.000000
vn 0.000000 0.000000 -1.000000
vn 0.000000 0.000000 -1.000000
vn 0.000000 0.000000 -1.000000
vn 0.000000 0.000000 -1.000000
vn 0.000000 1.000000 0.000000
vn 0.000000 1.000000 0.000000
vn 0.000000 1.000000 0.000000
vn 0.000000 1.000000 0.000000
vn 0.000000 1.000000 0.000000
vn 0.000000 1.000000 0.000000
vn 0.000000 1.000000 0.000000
vn 0.000000 1.000000 0.000000
vn 0.000000 1.000000 0.000000
vn 0.000000 1.000000 0.000000
vn 0.000000 1.000000 0.000000
vn 0.000000 1.000000 0.000000
vn 0.000000 1.000000 0.000000
vn 0.000000 1.000000 0.000000
vn 0.000000 1.000000 0.000000
vn 0.000000 1.000000 0.000000
vn 0.000000 1.000000 0.000000
vn 0.000000 1.000000 0.000000
vn 0.000000 1.000000 0.000000
vn 0.000000 1.000000 0.000000
vn 0.000000 -1.000000 0.000000
vn 0.000000 -1.000000 0.000000
vn 0.000000 -1.000000 0.000000
vn 0.000000 -1.000000 0.000000
vn 0.000000 -1.000000 0.000000
vn 0.000000 -1.000000 0.000000
vn 0.000000 -1.000000 0.000000
vn 0.000000 -1.000000 0.000000
vn 0.000000 -1.000000 0.000000
vn 0.000000 -1.000000 0.000000
vn 0.000000 -1.000000 0.000000
vn 0.000000 -1.000000 0.000000
vn 0.000000 -1.000000 0.000000
vn 0.000000 -1.000000 0.000000
vn 0.000000 -1.000000 0.000000
vn 0.000000 -1.000000 0.000000
vn 0.000000 -1.000000 0.000000
vn 0.000000 -1.000000 0.000000
vn 0.000000 -1.000000 0.000000
vn 0.000000 -1.000000 0.000000
vn 0.000000 0.000000 1.000000
vn 0.000000 0.000000 1.000000
vn 0.000000 0.000000 1.000000
vn 0.000000 0.000000 1.000000
vn 0.995012 0.099755 0.000000
vn 0.995012 0.099755 0.000000
vn 0.995012 0.099755 0.000000
vn 0.995012 0.099755 0.000000
vn -0.995012 -0.099755 0.000000
vn -0.995012 -0.099755 0.000000
vn -0.995012 -0.099755 0.000000
vn -0.995012 -0.099755 0.000000
f 3/3/3 2/2/2 1/1/1
f 1/1/1 5/5/5 4/4/4
f 4/4/4 5/5/5 6/6/6
f 9/9/9 8/8/8 7/7/7
f 11/11/11 10/10/10 7/7/7
f 14/14/14 13/13/13 12/12/12
f 17/17/17 16/16/16 15/15/15
f 20/20/20 19/19/19 18/18/18
f 23/23/23 22/22/22 21/21/21
f 26/26/26 25/25/25 24/24/24
f 29/29/29 28/28/28 27/27/27
f 27/27/27 31/31/31 30/30/30
f 30/30/30 31/31/31 32/32/32
f 35/35/35 34/34/34 33/33/33
f 37/37/37 36/36/36 33/33/33
f 40/40/40 39/39/39 38/38/38
f 43/43/43 42/42/42 41/41/41
f 46/46/46 45/45/45 44/44/44
f 49/49/49 48/48/48 47/47/47
f 52/52/52 51/51/51 50/50/50
f 55/55/55 54/54/54 53/53/53
f 58/58/58 57/57/57 56/56/56
f 61/61/61 60/60/60 59/59/59
f 59/59/59 62/62/62 61/61/61
f 63/63/63 62/62/62 59/59/59
f 62/62/62 63/63/63 64/64/64
f 63/63/63 65/65/65 64/64/64
f 66/66/66 65/65/65 63/63/63
f 69/69/69 68/68/68 67/67/67
f 69/69/69 70/70/70 68/68/68
f 70/70/70 71/71/71 68/68/68
f 70/70/70 72/72/72 71/71/71
f 71/71/71 72/72/72 73/73/73
f 74/74/74 68/68/68 71/71/71
f 71/71/71 75/75/75 74/74/74
f 75/75/75 71/71/71 76/76/76
f 74/74/74 77/77/77 68/68/68
f 68/68/68 77/77/77 78/78/78
f 81/81/81 80/80/80 79/79/79
f 79/79/79 82/82/82 81/81/81
f 83/83/83 82/82/82 79/79/79
f 82/82/82 83/83/83 84/84/84
f 83/83/83 85/85/85 84/84/84
f 86/86/86 85/85/85 83/83/83
f 89/89/89 88/88/88 87/87/87
f 89/89/89 90/90/90 88/88/88
f 90/90/90 91/91/91 88/88/88
f 90/90/90 92/92/92 91/91/91
f 91/91/91 92/92/92 93/93/93
f 94/94/94 88/88/88 91/91/91
f 91/91/91 95/95/95 94/94/94
f 95/95/95 91/91/91 96/96/96
f 94/94/94 97/97/97 88/88/88
f 88/88/88 97/97/97 98/98/98
f 101/101/101 100/100/100 99/99/99
f 102/102/102 101/101/101 99/99/99
f 105/105/105 104/104/104 103/103/103
f 106/106/106 105/105/105 103/103/103
f 109/109/109 108/108/108 107/107/107
f 110/110/110 109/109/109 107/107/107
f 113/113/113 112/112/112 111/111/111
f 111/111/111 115/115/115 114/114/114
f 114/114/114 115/115/115 116/116/116
f 119/119/119 118/118/118 117/117/117
f 121/121/121 120/120/120 117/117/117
f 124/124/124 123/123/123 122/122/122
f 127/127/127 126/126/126 125/125/125
f 130/130/130 129/129/129 128/128/128
f 133/133/133 132/132/132 131/131/131
f 136/136/136 135/135/135 134/134/134
f 139/139/139 138/138/138 137/137/137
f 137/137/137 141/141/141 140/140/140
f 140/140/140 141/141/141 142/142/142
f 145/145/145 144/144/144 143/143/143
f 147/147/147 146/146/146 143/143/143
f 150/150/150 149/149/149 148/148/148
f 153/153/153 152/152/152 151/151/151
f 156/156/156 155/155/155 154/154/154
f 159/159/159 158/158/158 157/157/157
f 162/162/162 161/161/161 160/160/160
f 165/165/165 164/164/164 163/163/163
f 168/168/168 167/167/167 166/166/166
f 171/171/171 170/170/170 169/169/169
f 169/169/169 172/172/172 171/171/171
f 173/173/173 172/172/172 169/169/169
f 172/172/172 173/173/173 174/174/174
f 173/173/173 175/175/175 174/174/174
f 176/176/176 175/175/175 173/173/173
f 179/179/179 178/178/178 177/177/177
f 179/179/179 180/180/180 178/178/178
f 180/180/180 181/181/181 178/178/178
f 180/180/180 182/182/182 181/181/181
f 181/181/181 182/182/182 183/183/183
f 184/184/184 178/178/178 181/181/181
f 181/181/181 185/185/185 184/184/184
f 185/185/185 181/181/181 186/186/186
f 184/184/184 187/187/187 178/178/178
f 178/178/178 187/187/187 188/188/188
f 191/191/191 190/190/190 189/189/189
f 189/189/189 192/192/192 191/191/191
f 193/193/193 192/192/192 189/189/189
f 192/192/192 193/193/193 194/194/194
f 193/193/193 195/195/195 194/194/194
f 196/196/196 195/195/195 193/193/193
f 199/199/199 198/198/198 197/197/197
f 199/199/199 200/200/200 198/198/198
f 200/200/200 201/201/201 198/198/198
f 200/200/200 202/202/202 201/201/201
f 201/201/201 202/202/202 203/203/203
f 204/204/204 198/198/198 201/201/201
f 201/201/201 205/205/205 204/204/204
f 205/205/205 201/201/201 206/206/206
f 204/204/204 207/207/207 198/198/198
f 198/198/198 207/207/207 208/208/208
f 211/211/211 210/210/210 209/209/209
f 212/212/212 211/211/211 209/209/209
f 215/215/215 214/214/214 213/213/213
f 216/216/216 215/215/215 213/213/213
f 219/219/219 218/218/218 217/217/217
f 220/220/220 219/219/219 217/217/217
