g Model_0
v -1.25 0.75 0
v -1.25 -0.75 0
v 1.25 -0.75 0
v 1.25 0.75 0
v 1.25 0.75 0
v 1.25 -0.75 0
v 1.24999905 -0.75 1.71500003
v 1.25 -0.600000978 1.71500003
v 1.25 0.599999011 1.5
v 1.25000095 0.75 1.5
v 1.24999905 -0.75 1.71500003
v 1.25 -0.75 0
v -1.25 -0.75 0
v -1.25 -0.75 1.71500003
v -1.25 0.75 1.5
v 1.25000095 0.75 1.5
v 1.25 0.599999011 1.5
v 1.11192405 0.599999011 1.5
v 1.11192298 -0.600000978 1.71500003
v -1.11192405 0.600000024 1.5
v -1.25 0.600000024 1.5
v -1.25 -0.600000024 1.71500003
v -1.11192405 -0.600000024 1.71500003
v -1.25 -0.75 1.71500003
v 1.25 -0.600000978 1.71500003
v 1.24999905 -0.75 1.71500003
v -1.25 -0.600000024 1.71500003
v -1.25 -0.75 1.71500003
v -1.25 -0.75 0
v -1.25 0.75 0
v -1.25 0.600000024 1.5
v -1.25 0.75 1.5
v 1.25 0.75 0
v 1.25000095 0.75 1.5
v -1.25 0.75 1.5
v -1.25 0.75 0
v -1.11192405 0.600000024 1.5
v -1.11192405 0.600000024 0.5
v -1.11192405 -0.600000024 0.5
v -1.11192405 -0.600000024 1.71500003
v 1.11192405 0.599999011 0.5
v 1.11192298 -0.600000978 0.5
v -1.11192405 -0.600000024 0.5
v -1.11192405 0.600000024 0.5
v 1.11192298 -0.600000978 1.71500003
v 1.11192298 -0.600000978 0.5
v 1.11192405 0.599999011 0.5
v 1.11192405 0.599999011 1.5
v -1.11192405 -0.600000024 1.71500003
v -1.11192405 -0.600000024 0.5
v 1.11192298 -0.600000978 0.5
v 1.11192298 -0.600000978 1.71500003
v 1.11192405 0.599999011 1.5
v 1.11192405 0.599999011 0.5
v -1.11192405 0.600000024 0.5
v -1.11192405 0.600000024 1.5
v 1.16524196 0.498425007 1.32610202
v 1.16524196 0.498425007 0.699033022
v 1.41856802 0.498425007 0.855799973
v 1.41856802 0.498425007 1.16933501
v 1.41856802 0.498425007 1.16933501
v 1.41856802 0.498425007 0.855799973
v 1.41856802 -0.498425007 0.855799973
v 1.41856802 -0.498425007 1.16933501
v 1.41856802 -0.498425007 1.16933501
v 1.41856802 -0.498425007 0.855799973
v 1.16524196 -0.498425007 0.699033022
v 1.16524196 -0.498425007 1.32610202
v 1.16524196 -0.498425007 0.699033022
v 1.41856802 -0.498425007 0.855799973
v 1.41856802 0.498425007 0.855799973
v 1.16524196 0.498425007 0.699033022
v 1.41856802 -0.498425007 1.16933501
v 1.16524196 -0.498425007 1.32610202
v 1.16524196 0.498425007 1.32610202
v 1.41856802 0.498425007 1.16933501
v -1.16524196 0.498425007 1.32610202
v -1.41856802 0.498425007 1.16933501
v -1.41856802 0.498425007 0.855799973
v -1.16524196 0.498425007 0.699033022
v -1.41856802 0.498425007 1.16933501
v -1.41856802 -0.498425007 1.16933501
v -1.41856802 -0.498425007 0.855799973
v -1.41856802 0.498425007 0.855799973
v -1.41856802 -0.498425007 1.16933501
v -1.16524196 -0.498425007 1.32610202
v -1.16524196 -0.498425007 0.699033022
v -1.41856802 -0.498425007 0.855799973
v -1.16524196 -0.498425007 0.699033022
v -1.16524196 0.498425007 0.699033022
v -1.41856802 0.498425007 0.855799973
v -1.41856802 -0.498425007 0.855799973
v -1.41856802 -0.498425007 1.16933501
v -1.41856802 0.498425007 1.16933501
v -1.16524196 0.498425007 1.32610202
v -1.16524196 -0.498425007 1.32610202
vt 0.354642987 0.718760014
vt 0.376711011 0.718760014
vt 0.376711011 0.681990981
vt 0.354642987 0.681990981
vt 0.416759998 0.681990981
vt 0.394692987 0.681990981
vt 0.394692987 0.707213998
vt 0.396899015 0.707213998
vt 0.414552987 0.704051971
vt 0.416759998 0.704051971
vt 0.329412997 0.681990981
vt 0.354642987 0.681990981
vt 0.354642987 0.645220995
vt 0.329412997 0.645220995
vt 0.354642987 0.645220995
vt 0.354642987 0.681990981
vt 0.356848001 0.681990981
vt 0.356848001 0.679960012
vt 0.374612987 0.679960012
vt 0.356848001 0.647252023
vt 0.356848001 0.645220995
vt 0.374612987 0.645220995
vt 0.374612987 0.647252023
vt 0.376818001 0.645220995
vt 0.374612987 0.681990981
vt 0.376818001 0.681990981
vt 0.414552987 0.732438028
vt 0.416759998 0.732438028
vt 0.416759998 0.707213998
vt 0.394692987 0.707213998
vt 0.396899015 0.729276001
vt 0.394692987 0.729276001
vt 0.398885012 0.645220995
vt 0.376818001 0.645220995
vt 0.376818001 0.681990981
vt 0.398885012 0.681990981
vt 0.786891997 0.70015198
vt 0.786891997 0.714859009
vt 0.804545999 0.714859009
vt 0.804545999 0.696989
vt 0.804531991 0.664282024
vt 0.786891997 0.664282024
vt 0.786891997 0.696989
vt 0.804531991 0.696989
vt 0.851951003 0.714859009
vt 0.851951003 0.696989
vt 0.834297001 0.696989
vt 0.834297001 0.711696982
vt 0.834297001 0.696989
vt 0.852172017 0.696989
vt 0.852172017 0.664282024
vt 0.834297001 0.664282024
vt 0.856365025 0.660220027
vt 0.871075988 0.660220027
vt 0.871075988 0.627511978
vt 0.856365025 0.627511978
vt 0.369589001 0.223072007
vt 0.369589001 0.148728997
vt 0.337235987 0.167315006
vt 0.337235987 0.204486996
vt 0.277170986 0.266912013
vt 0.317214012 0.266912013
vt 0.317214012 0.148728997
vt 0.277170986 0.148728997
vt 0.337235987 0.241658002
vt 0.337235987 0.278829992
vt 0.369589001 0.297414988
vt 0.369589001 0.223072007
vt 0.337235987 0.148728997
vt 0.317214012 0.148728997
vt 0.317214012 0.266912013
vt 0.337235987 0.266912013
vt 0.277170986 0.148728997
vt 0.257149994 0.148728997
vt 0.257149994 0.266912013
vt 0.277170986 0.266912013
vt 0.289503008 0.266912013
vt 0.257149994 0.285497993
vt 0.257149994 0.322668999
vt 0.289503008 0.341255009
vt 0.197084993 0.148728997
vt 0.197084993 0.266912013
vt 0.237128004 0.266912013
vt 0.237128004 0.148728997
vt 0.30488199 0.322668999
vt 0.337235987 0.341255009
vt 0.337235987 0.266912013
vt 0.30488199 0.285497993
vt 0.257149994 0.266912013
vt 0.257149994 0.148728997
vt 0.237128004 0.148728997
vt 0.237128004 0.266912013
vt 0.197084993 0.266912013
vt 0.197084993 0.148728997
vt 0.177063003 0.148728997
vt 0.177063003 0.266912013
vn -0 0 -1
vn -0 0 -1
vn -0 0 -1
vn -0 0 -1
vn 1 0 0
vn 1 0 0
vn 1 0 0
vn 1 0 0
vn 1 0 0
vn 1 0 0
vn -0 -1 0
vn -0 -1 0
vn -0 -1 0
vn -0 -1 0
vn -0 0 1
vn -0 0 1
vn -0 0.0589919798 0.998258412
vn -0 0.0589919798 0.998258412
vn -0 0.0442197584 0.999021888
vn -0 0.0589919798 0.998258412
vn -0 0.0885267928 0.996073842
vn -0 0.0885267928 0.996073842
vn -0 0.0589919798 0.998258412
vn -0 0 1
vn -0 0.0885267928 0.996073842
vn -0 0 1
vn -1 0 0
vn -1 0 0
vn -1 0 0
vn -1 0 0
vn -1 0 0
vn -1 0 0
vn -0 1 0
vn -0 1 0
vn -0 1 0
vn -0 1 0
vn 1 0 0
vn 1 0 0
vn 1 0 0
vn 1 0 0
vn -0 0 1
vn -0 0 1
vn -0 0 1
vn -0 0 1
vn -1 0 0
vn -1 0 0
vn -1 0 0
vn -1 0 0
vn -0 1 0
vn -0 1 0
vn -0 1 0
vn -0 1 0
vn -0 -1 0
vn -0 -1 0
vn -0 -1 0
vn -0 -1 0
vn -0 1 0
vn -0 1 0
vn -0 1 0
vn -0 1 0
vn 1 0 0
vn 1 0 0
vn 1 0 0
vn 1 0 0
vn -0 -1 0
vn -0 -1 0
vn -0 -1 0
vn -0 -1 0
vn 0.526223719 0 -0.850346148
vn 0.526223719 0 -0.850346148
vn 0.526223719 0 -0.850346148
vn 0.526223719 0 -0.850346148
vn 0.526223898 0 0.850346088
vn 0.526223898 0 0.850346088
vn 0.526223898 0 0.850346088
vn 0.526223898 0 0.850346088
vn -0 1 0
vn -0 1 0
vn -0 1 0
vn -0 1 0
vn -1 0 0
vn -1 0 0
vn -1 0 0
vn -1 0 0
vn -0 -1 0
vn -0 -1 0
vn -0 -1 0
vn -0 -1 0
vn -0.526223719 0 -0.850346148
vn -0.526223719 0 -0.850346148
vn -0.526223719 0 -0.850346148
vn -0.526223719 0 -0.850346148
vn -0.526223898 0 0.850346088
vn -0.526223898 0 0.850346088
vn -0.526223898 0 0.850346088
vn -0.526223898 0 0.850346088
g Model_0_0
f 3/3/3 2/2/2 1/1/1
f 4/4/4 3/3/3 1/1/1
f 7/7/7 6/6/6 5/5/5
f 5/5/5 8/8/8 7/7/7
f 5/5/5 9/9/9 8/8/8
f 5/5/5 10/10/10 9/9/9
f 13/13/13 12/12/12 11/11/11
f 14/14/14 13/13/13 11/11/11
f 17/17/17 16/16/16 15/15/15
f 15/15/15 18/18/18 17/17/17
f 18/18/18 19/19/19 17/17/17
f 15/15/15 20/20/20 18/18/18
f 15/15/15 21/21/21 20/20/20
f 21/21/21 22/22/22 20/20/20
f 22/22/22 23/23/23 20/20/20
f 23/23/23 22/22/22 24/24/24
f 19/19/19 23/23/23 24/24/24
f 19/19/19 25/25/25 17/17/17
f 19/19/19 24/24/24 26/26/26
f 26/26/26 25/25/25 19/19/19
f 29/29/29 28/28/28 27/27/27
f 27/27/27 30/30/30 29/29/29
f 27/27/27 31/31/31 30/30/30
f 31/31/31 32/32/32 30/30/30
f 35/35/35 34/34/34 33/33/33
f 36/36/36 35/35/35 33/33/33
f 39/39/39 38/38/38 37/37/37
f 40/40/40 39/39/39 37/37/37
f 43/43/43 42/42/42 41/41/41
f 44/44/44 43/43/43 41/41/41
f 47/47/47 46/46/46 45/45/45
f 48/48/48 47/47/47 45/45/45
f 51/51/51 50/50/50 49/49/49
f 52/52/52 51/51/51 49/49/49
f 55/55/55 54/54/54 53/53/53
f 56/56/56 55/55/55 53/53/53
f 59/59/59 58/58/58 57/57/57
f 60/60/60 59/59/59 57/57/57
f 63/63/63 62/62/62 61/61/61
f 64/64/64 63/63/63 61/61/61
f 67/67/67 66/66/66 65/65/65
f 68/68/68 67/67/67 65/65/65
f 71/71/71 70/70/70 69/69/69
f 72/72/72 71/71/71 69/69/69
f 75/75/75 74/74/74 73/73/73
f 76/76/76 75/75/75 73/73/73
f 79/79/79 78/78/78 77/77/77
f 80/80/80 79/79/79 77/77/77
f 83/83/83 82/82/82 81/81/81
f 84/84/84 83/83/83 81/81/81
f 87/87/87 86/86/86 85/85/85
f 88/88/88 87/87/87 85/85/85
f 91/91/91 90/90/90 89/89/89
f 92/92/92 91/91/91 89/89/89
f 95/95/95 94/94/94 93/93/93
f 96/96/96 95/95/95 93/93/93
