g Model_0_Dead
v -0.425112009 -0.573310137 1.31112432
v -0.425112009 -0.573310137 1.1655128
v -0.425112009 -0.427698731 1.1655128
v -0.425112009 -0.427698731 1.31112432
v 0.425112009 -0.427698731 1.31112432
v 0.425112009 -0.427698731 1.1655128
v 0.425112009 -0.573310137 1.1655128
v 0.425112009 -0.573310137 1.31112432
v 0.425112009 -0.573310137 1.31112432
v 0.425112009 -0.573310137 1.1655128
v -0.425112009 -0.573310137 1.1655128
v -0.425112009 -0.573310137 1.31112432
v -0.425112009 -0.573310137 1.1655128
v 0.425112009 -0.573310137 1.1655128
v 0.425112009 -0.427698731 1.1655128
v -0.425112009 -0.427698731 1.1655128
v 0.425112009 -0.573310137 1.31112432
v -0.425112009 -0.573310137 1.31112432
v -0.425112009 -0.427698731 1.31112432
v 0.425112009 -0.427698731 1.31112432
v 0.554522336 -0.557586312 0.0428833216
v 0.554522395 -0.589526176 0.162084401
v 0.554522395 -0.557586312 0.281285524
v 0.554522336 -0.470325023 -0.0443779975
v 0.554522455 -0.470325083 0.368546814
v 0.554522455 -0.351123989 0.400486678
v 0.554522336 -0.351123899 -0.0763178021
v 0.554522455 -0.231922895 0.368546933
v 0.554522336 -0.231922776 -0.0443779975
v 0.554522395 -0.144661576 0.281285763
v 0.554522336 -0.144661516 0.0428833216
v 0.554522395 -0.112721652 0.16208443
v 0.433521867 -0.557586312 0.281285942
v 0.433521867 -0.589526176 0.162084833
v 0.433521807 -0.557586312 0.0428837091
v 0.433521867 -0.470325083 0.368547231
v 0.433521807 -0.470325023 -0.0443775803
v 0.433521926 -0.351123989 0.400487155
v 0.433521807 -0.351123899 -0.0763173848
v 0.433521867 -0.231922895 0.36854735
v 0.433521807 -0.231922776 -0.0443775803
v 0.433521867 -0.144661576 0.28128612
v 0.433521807 -0.144661516 0.0428837389
v 0.433521867 -0.112721652 0.162084863
v -0.433521867 -0.112721652 0.162084863
v -0.554522395 -0.112721652 0.16208443
v -0.554522336 -0.144661516 0.0428833216
v -0.433521807 -0.144661516 0.0428837389
v -0.433521807 -0.144661516 0.0428837389
v -0.554522336 -0.144661516 0.0428833216
v -0.554522336 -0.231922776 -0.0443779975
v -0.433521807 -0.231922776 -0.0443775803
v -0.433521807 -0.231922776 -0.0443775803
v -0.554522336 -0.231922776 -0.0443779975
v -0.554522336 -0.351123899 -0.0763178021
v -0.433521807 -0.351123899 -0.0763173848
v -0.433521807 -0.351123899 -0.0763173848
v -0.554522336 -0.351123899 -0.0763178021
v -0.554522336 -0.470325023 -0.0443779975
v -0.433521807 -0.470325023 -0.0443775803
v -0.433521807 -0.470325023 -0.0443775803
v -0.554522336 -0.470325023 -0.0443779975
v -0.554522336 -0.557586312 0.0428833216
v -0.433521807 -0.557586312 0.0428837091
v -0.433521807 -0.557586312 0.0428837091
v -0.554522336 -0.557586312 0.0428833216
v -0.554522395 -0.589526176 0.162084401
v -0.433521867 -0.589526176 0.162084833
v -0.433521867 -0.589526176 0.162084833
v -0.554522395 -0.589526176 0.162084401
v -0.554522395 -0.557586312 0.281285524
v -0.433521867 -0.557586312 0.281285942
v -0.433521867 -0.557586312 0.281285942
v -0.554522395 -0.557586312 0.281285524
v -0.554522455 -0.470325083 0.368546814
v -0.433521867 -0.470325083 0.368547231
v -0.433521867 -0.470325083 0.368547231
v -0.554522455 -0.470325083 0.368546814
v -0.554522455 -0.351123989 0.400486678
v -0.433521926 -0.351123989 0.400487155
v -0.433521926 -0.351123989 0.400487155
v -0.554522455 -0.351123989 0.400486678
v -0.554522455 -0.231922895 0.368546933
v -0.433521867 -0.231922895 0.36854735
v -0.554522395 -0.557586312 0.281285524
v -0.554522395 -0.589526176 0.162084401
v -0.554522336 -0.557586312 0.0428833216
v -0.554522455 -0.470325083 0.368546814
v -0.554522336 -0.470325023 -0.0443779975
v -0.554522455 -0.351123989 0.400486678
v -0.554522336 -0.351123899 -0.0763178021
v -0.554522455 -0.231922895 0.368546933
v -0.554522336 -0.231922776 -0.0443779975
v -0.554522395 -0.144661576 0.281285763
v -0.554522336 -0.144661516 0.0428833216
v -0.554522395 -0.112721652 0.16208443
v -0.433521867 -0.144661576 0.28128612
v -0.554522395 -0.144661576 0.281285763
v -0.554522395 -0.112721652 0.16208443
v -0.433521867 -0.112721652 0.162084863
v -0.433521867 -0.231922895 0.36854735
v -0.554522455 -0.231922895 0.368546933
v -0.554522395 -0.144661576 0.281285763
v -0.433521867 -0.144661576 0.28128612
v -0.433521807 -0.557586312 0.0428837091
v -0.433521867 -0.589526176 0.162084833
v -0.433521867 -0.557586312 0.281285942
v -0.433521807 -0.470325023 -0.0443775803
v -0.433521867 -0.470325083 0.368547231
v -0.433521926 -0.351123989 0.400487155
v -0.433521807 -0.351123899 -0.0763173848
v -0.433521867 -0.231922895 0.36854735
v -0.433521807 -0.231922776 -0.0443775803
v -0.433521867 -0.144661576 0.28128612
v -0.433521807 -0.144661516 0.0428837389
v -0.433521867 -0.112721652 0.162084863
v 0.454332471 0.454332471 0
v -0.454332292 0.45433259 0
v -0.45433259 -0.454332352 0
v 0.454332471 -0.454332471 0
v 0.454332471 0.454332471 0
v 0.454332471 -0.454332471 0
v 0.499999672 -0.500000358 1.37300789
v 0.500000179 0.499999732 1.37300789
v 0.454332471 -0.454332471 0
v -0.45433259 -0.454332352 0
v -0.500000238 -0.499999851 1.37300789
v 0.499999672 -0.500000358 1.37300789
v -0.45433259 -0.454332352 0
v -0.454332292 0.45433259 0
v -0.49999997 0.5 1.37300789
v -0.500000238 -0.499999851 1.37300789
v 0.500000179 0.499999732 1.37300789
v -0.49999997 0.5 1.37300789
v -0.454332292 0.45433259 0
v 0.454332471 0.454332471 0
v -0.49999997 0.5 1.37300789
v -0.37499997 0.375 1.37300789
v -0.375000119 -0.374999851 1.37300789
v -0.500000238 -0.499999851 1.37300789
v 0.374600112 0.374999851 1.37300789
v 0.337120086 0.337499857 0.125
v -0.337519974 0.337499976 0.125
v -0.37499997 0.375 1.37300789
v 0.500000179 0.499999732 1.37300789
v 0.374600112 0.374999851 1.37300789
v -0.37499997 0.375 1.37300789
v -0.49999997 0.5 1.37300789
v -0.500000238 -0.499999851 1.37300789
v -0.375000119 -0.374999851 1.37300789
v 0.374599844 -0.375000119 1.37300789
v 0.499999672 -0.500000358 1.37300789
v 0.374600112 0.374999851 1.37300789
v 0.500000179 0.499999732 1.37300789
v 0.337120086 0.337499857 0.125
v 0.337119848 -0.337500095 0.125
v -0.337520093 -0.337499857 0.125
v -0.337519974 0.337499976 0.125
v -0.375000119 -0.374999851 1.37300789
v -0.337520093 -0.337499857 0.125
v 0.337119848 -0.337500095 0.125
v 0.374599844 -0.375000119 1.37300789
v 0.374599844 -0.375000119 1.37300789
v 0.337119848 -0.337500095 0.125
v 0.337120086 0.337499857 0.125
v 0.374600112 0.374999851 1.37300789
v -0.37499997 0.375 1.37300789
v -0.337519974 0.337499976 0.125
v -0.337520093 -0.337499857 0.125
v -0.375000119 -0.374999851 1.37300789
v 0.433521867 -0.144661576 0.28128612
v 0.554522395 -0.112721652 0.16208443
v 0.554522395 -0.144661576 0.281285763
v 0.433521867 -0.112721652 0.162084863
v 0.433521867 -0.231922895 0.36854735
v 0.554522336 -0.144661516 0.0428833216
v 0.554522455 -0.231922895 0.368546933
v 0.433521807 -0.144661516 0.0428837389
v 0.433521926 -0.351123989 0.400487155
v 0.554522336 -0.231922776 -0.0443779975
v 0.554522455 -0.351123989 0.400486678
v 0.433521807 -0.231922776 -0.0443775803
v 0.433521867 -0.470325083 0.368547231
v 0.554522336 -0.351123899 -0.0763178021
v 0.554522455 -0.470325083 0.368546814
v 0.433521807 -0.351123899 -0.0763173848
v 0.433521867 -0.557586312 0.281285942
v 0.554522336 -0.470325023 -0.0443779975
v 0.554522395 -0.557586312 0.281285524
v 0.433521807 -0.470325023 -0.0443775803
v 0.433521867 -0.589526176 0.162084833
v 0.554522336 -0.557586312 0.0428833216
v 0.554522395 -0.589526176 0.162084401
v 0.433521807 -0.557586312 0.0428837091
vt 0.214572102 0.261795759
vt 0.214572102 0.3190943
vt 0.271870643 0.3190943
vt 0.271870643 0.261795759
vt 0.214572102 0.261795759
vt 0.214572102 0.3190943
vt 0.271870643 0.3190943
vt 0.271870643 0.261795759
vt 0.214572102 0.261795759
vt 0.214572102 0.3190943
vt 0.271870643 0.3190943
vt 0.271870643 0.261795759
vt 0.214572102 0.261795759
vt 0.214572102 0.3190943
vt 0.271870643 0.3190943
vt 0.271870643 0.261795759
vt 0.214572102 0.261795759
vt 0.214572102 0.3190943
vt 0.271870643 0.3190943
vt 0.271870643 0.261795759
vt 0.82336998 0.383563727
vt 0.82336998 0.383563727
vt 0.82336998 0.383563727
vt 0.82336998 0.383563727
vt 0.82336998 0.383563727
vt 0.82336998 0.383563727
vt 0.82336998 0.383563727
vt 0.82336998 0.383563727
vt 0.82336998 0.383563727
vt 0.82336998 0.383563727
vt 0.82336998 0.383563727
vt 0.82336998 0.383563727
vt 0.82336998 0.383563727
vt 0.82336998 0.383563727
vt 0.82336998 0.383563727
vt 0.82336998 0.383563727
vt 0.82336998 0.383563727
vt 0.82336998 0.383563727
vt 0.82336998 0.383563727
vt 0.82336998 0.383563727
vt 0.82336998 0.383563727
vt 0.82336998 0.383563727
vt 0.82336998 0.383563727
vt 0.82336998 0.383563727
vt 0.898169637 0.423017561
vt 0.898169637 0.431129217
vt 0.906281352 0.431129217
vt 0.906281352 0.423017561
vt 0.898169637 0.423017561
vt 0.898169637 0.431129217
vt 0.906281352 0.431129217
vt 0.906281352 0.423017561
vt 0.898169637 0.423017561
vt 0.898169637 0.431129217
vt 0.906281352 0.431129217
vt 0.906281352 0.423017561
vt 0.898169637 0.423017561
vt 0.898169637 0.431129217
vt 0.906281352 0.431129217
vt 0.906281352 0.423017561
vt 0.898169637 0.423017561
vt 0.898169637 0.431129217
vt 0.906281352 0.431129217
vt 0.906281352 0.423017561
vt 0.898169637 0.423017561
vt 0.898169637 0.431129217
vt 0.906281352 0.431129217
vt 0.906281352 0.423017561
vt 0.898169637 0.423017561
vt 0.898169637 0.431129217
vt 0.906281352 0.431129217
vt 0.906281352 0.423017561
vt 0.898169637 0.423017561
vt 0.898169637 0.431129217
vt 0.906281352 0.431129217
vt 0.906281352 0.423017561
vt 0.898169637 0.423017561
vt 0.898169637 0.431129217
vt 0.906281352 0.431129217
vt 0.906281352 0.423017561
vt 0.898169637 0.423017561
vt 0.898169637 0.431129217
vt 0.906281352 0.431129217
vt 0.906281352 0.423017561
vt 0.902225494 0.423017561
vt 0.904253364 0.423560947
vt 0.905737936 0.42504549
vt 0.900197566 0.423560947
vt 0.906281352 0.427073389
vt 0.898713052 0.42504549
vt 0.905737936 0.429101288
vt 0.898169637 0.427073389
vt 0.904253364 0.430585861
vt 0.898713052 0.429101288
vt 0.902225494 0.431129217
vt 0.900197566 0.430585831
vt 0.898169637 0.423017561
vt 0.898169637 0.431129217
vt 0.906281352 0.431129217
vt 0.906281352 0.423017561
vt 0.898169637 0.423017561
vt 0.898169637 0.431129217
vt 0.906281352 0.431129217
vt 0.906281352 0.423017561
vt 0.900197566 0.423560947
vt 0.902225494 0.423017561
vt 0.904253364 0.423560947
vt 0.898713052 0.42504549
vt 0.905737936 0.42504549
vt 0.906281352 0.427073389
vt 0.898169637 0.427073389
vt 0.905737936 0.429101288
vt 0.898713052 0.429101288
vt 0.904253364 0.430585861
vt 0.900197566 0.430585831
vt 0.902225494 0.431129217
vt 0.093134582 0.727613509
vt 0.093134582 0.797544122
vt 0.13975504 0.797544122
vt 0.139755011 0.727613509
vt 0.093134582 0.726914167
vt 0.13975504 0.726914167
vt 0.139755011 0.656983495
vt 0.0931345522 0.656983495
vt 0.140221238 0.726914167
vt 0.186841697 0.726914167
vt 0.186841637 0.656983495
vt 0.140221238 0.656983495
vt 0.187307864 0.656983495
vt 0.187307864 0.726914167
vt 0.233928353 0.726914167
vt 0.233928353 0.656983495
vt 0.140221238 0.727613449
vt 0.140221238 0.797544122
vt 0.186841697 0.797544122
vt 0.186841697 0.727613449
vt 0.233928353 0.726914167
vt 0.233928353 0.726914167
vt 0.233928353 0.656983495
vt 0.233928353 0.656983495
vt 0.140221238 0.727613449
vt 0.140221238 0.727613449
vt 0.140221238 0.797544122
vt 0.140221238 0.797544122
vt 0.140221238 0.727613449
vt 0.140221238 0.727613449
vt 0.140221238 0.797544122
vt 0.140221238 0.797544122
vt 0.186841637 0.656983495
vt 0.186841637 0.656983495
vt 0.140221238 0.656983495
vt 0.140221238 0.656983495
vt 0.0931345522 0.656983495
vt 0.0931345522 0.656983495
vt 0.171097904 0.662468791
vt 0.171097904 0.743654549
vt 0.25224033 0.743654549
vt 0.25224033 0.662468851
vt 0.186841637 0.656983495
vt 0.186841637 0.656983495
vt 0.140221238 0.656983495
vt 0.140221238 0.656983495
vt 0.139755011 0.656983495
vt 0.139755011 0.656983495
vt 0.0931345522 0.656983495
vt 0.0931345522 0.656983495
vt 0.233928353 0.726914167
vt 0.233928353 0.726914167
vt 0.233928353 0.656983495
vt 0.233928353 0.656983495
vt 0.82336998 0.383563727
vt 0.82336998 0.383563727
vt 0.82336998 0.383563727
vt 0.82336998 0.383563727
vt 0.82336998 0.383563727
vt 0.82336998 0.383563727
vt 0.82336998 0.383563727
vt 0.82336998 0.383563727
vt 0.82336998 0.383563727
vt 0.82336998 0.383563727
vt 0.82336998 0.383563727
vt 0.82336998 0.383563727
vt 0.82336998 0.383563727
vt 0.82336998 0.383563727
vt 0.82336998 0.383563727
vt 0.82336998 0.383563727
vt 0.82336998 0.383563727
vt 0.82336998 0.383563727
vt 0.82336998 0.383563727
vt 0.82336998 0.383563727
vt 0.82336998 0.383563727
vt 0.82336998 0.383563727
vt 0.82336998 0.383563727
vt 0.82336998 0.383563727
vn -1 0 0
vn -1 0 0
vn -1 0 0
vn -1 0 0
vn 1 0 0
vn 1 0 0
vn 1 0 0
vn 1 0 0
vn -0 -1 0
vn -0 -1 0
vn -0 -1 0
vn -0 -1 0
vn -0 0 -1
vn -0 0 -1
vn -0 0 -1
vn -0 0 -1
vn -0 0 1
vn -0 0 1
vn -0 0 1
vn -0 0 1
vn 1 0 0
vn 1 0 0
vn 1 0 0
vn 1 0 0
vn 1 0 0
vn 1 0 0
vn 1 0 0
vn 1 0 0
vn 1 0 0
vn 1 0 0
vn 1 0 0
vn 1 0 0
vn -1 0 0
vn -1 0 0
vn -1 0 0
vn -1 0 0
vn -1 0 0
vn -1 0 0
vn -1 0 0
vn -1 0 0
vn -1 0 0
vn -1 0 0
vn -1 0 0
vn -1 0 0
vn -0 1 0
vn -0 1 0
vn -0 0.866025448 -0.499999911
vn -0 0.866025448 -0.499999911
vn -0 0.866025448 -0.499999911
vn -0 0.866025448 -0.499999911
vn -0 0.50000006 -0.866025448
vn -0 0.50000006 -0.866025448
vn -0 0.50000006 -0.866025448
vn -0 0.50000006 -0.866025448
vn -0 0 -1
vn -0 0 -1
vn -0 0 -1
vn -0 0 -1
vn -0 -0.499999911 -0.866025448
vn -0 -0.499999911 -0.866025448
vn -0 -0.499999911 -0.866025448
vn -0 -0.499999911 -0.866025448
vn -0 -0.866025329 -0.50000006
vn -0 -0.866025329 -0.50000006
vn -0 -0.866025329 -0.50000006
vn -0 -0.866025329 -0.50000006
vn -0 -1 0
vn -0 -1 0
vn -0 -1 0
vn -0 -1 0
vn -0 -0.866025448 0.499999911
vn -0 -0.866025448 0.499999911
vn -0 -0.866025448 0.499999911
vn -0 -0.866025448 0.499999911
vn -0 -0.500000358 0.866025269
vn -0 -0.500000358 0.866025269
vn -0 -0.500000358 0.866025269
vn -0 -0.500000358 0.866025269
vn -0 0 1
vn -0 0 1
vn -0 0 1
vn -0 0 1
vn -0 0.499999493 0.866025686
vn -0 0.499999493 0.866025686
vn -1 0 0
vn -1 0 0
vn -1 0 0
vn -1 0 0
vn -1 0 0
vn -1 0 0
vn -1 0 0
vn -1 0 0
vn -1 0 0
vn -1 0 0
vn -1 0 0
vn -1 0 0
vn -0 0.86602515 0.500000417
vn -0 0.86602515 0.500000417
vn -0 1 0
vn -0 1 0
vn -0 0.499999493 0.866025686
vn -0 0.499999493 0.866025686
vn -0 0.86602515 0.500000417
vn -0 0.86602515 0.500000417
vn 1 0 0
vn 1 0 0
vn 1 0 0
vn 1 0 0
vn 1 0 0
vn 1 0 0
vn 1 0 0
vn 1 0 0
vn 1 0 0
vn 1 0 0
vn 1 0 0
vn 1 0 0
vn -0 0 -1
vn -0 0 -1
vn -0 0 -1
vn -0 0 -1
vn 0.999447286 0 -0.0332425013
vn 0.999447286 0 -0.0332425013
vn 0.999447286 0 -0.0332425013
vn 0.999447286 0 -0.0332425013
vn -0 -0.999447286 -0.0332426727
vn -0 -0.999447286 -0.0332426727
vn -0 -0.999447286 -0.0332426727
vn -0 -0.999447286 -0.0332426727
vn -0.999447286 0 -0.0332426503
vn -0.999447286 0 -0.0332426503
vn -0.999447286 0 -0.0332426503
vn -0.999447286 0 -0.0332426503
vn -0 0.999447286 -0.0332424119
vn -0 0.999447286 -0.0332424119
vn -0 0.999447286 -0.0332424119
vn -0 0.999447286 -0.0332424119
vn -0 0 1
vn -0 0 1
vn -0 0 1
vn -0 0 1
vn -0 -0.999548852 0.0300343372
vn -0 -0.999548852 0.0300343372
vn -0 -0.999548852 0.0300343372
vn -0 -0.999548852 0.0300343372
vn -0 0 1
vn -0 0 1
vn -0 0 1
vn -0 0 1
vn -0 0 1
vn -0 0 1
vn -0 0 1
vn -0 0 1
vn -0 0 1
vn -0 0 1
vn -0 0 1
vn -0 0 1
vn -0 0 1
vn -0 0 1
vn -0 0.999548852 0.0300343391
vn -0 0.999548852 0.0300343391
vn -0 0.999548852 0.0300343391
vn -0 0.999548852 0.0300343391
vn -0.999549329 0 0.0300183371
vn -0.999549329 0 0.0300183371
vn -0.999549329 0 0.0300183371
vn -0.999549329 0 0.0300183371
vn 0.999549329 0 0.0300183371
vn 0.999549329 0 0.0300183371
vn 0.999549329 0 0.0300183371
vn 0.999549329 0 0.0300183371
vn -0 0.86602515 0.500000417
vn -0 1 0
vn -0 0.86602515 0.500000417
vn -0 1 0
vn -0 0.499999493 0.866025686
vn -0 0.866025448 -0.499999911
vn -0 0.499999493 0.866025686
vn -0 0.866025448 -0.499999911
vn -0 0 1
vn -0 0.50000006 -0.866025448
vn -0 0 1
vn -0 0.50000006 -0.866025448
vn -0 -0.500000358 0.866025269
vn -0 0 -1
vn -0 -0.500000358 0.866025269
vn -0 0 -1
vn -0 -0.866025448 0.499999911
vn -0 -0.499999911 -0.866025448
vn -0 -0.866025448 0.499999911
vn -0 -0.499999911 -0.866025448
vn -0 -1 0
vn -0 -0.866025329 -0.50000006
vn -0 -1 0
vn -0 -0.866025329 -0.50000006
g Model_0_Dead_0
f 3/3/3 2/2/2 1/1/1
f 4/4/4 3/3/3 1/1/1
f 7/7/7 6/6/6 5/5/5
f 8/8/8 7/7/7 5/5/5
f 11/11/11 10/10/10 9/9/9
f 12/12/12 11/11/11 9/9/9
f 15/15/15 14/14/14 13/13/13
f 16/16/16 15/15/15 13/13/13
f 19/19/19 18/18/18 17/17/17
f 20/20/20 19/19/19 17/17/17
f 23/23/23 22/22/22 21/21/21
f 21/21/21 24/24/24 23/23/23
f 24/24/24 25/25/25 23/23/23
f 24/24/24 26/26/26 25/25/25
f 24/24/24 27/27/27 26/26/26
f 27/27/27 28/28/28 26/26/26
f 27/27/27 29/29/29 28/28/28
f 29/29/29 30/30/30 28/28/28
f 29/29/29 31/31/31 30/30/30
f 31/31/31 32/32/32 30/30/30
f 35/35/35 34/34/34 33/33/33
f 33/33/33 36/36/36 35/35/35
f 36/36/36 37/37/37 35/35/35
f 36/36/36 38/38/38 37/37/37
f 38/38/38 39/39/39 37/37/37
f 38/38/38 40/40/40 39/39/39
f 40/40/40 41/41/41 39/39/39
f 40/40/40 42/42/42 41/41/41
f 42/42/42 43/43/43 41/41/41
f 42/42/42 44/44/44 43/43/43
f 47/47/47 46/46/46 45/45/45
f 48/48/48 47/47/47 45/45/45
f 51/51/51 50/50/50 49/49/49
f 52/52/52 51/51/51 49/49/49
f 55/55/55 54/54/54 53/53/53
f 56/56/56 55/55/55 53/53/53
f 59/59/59 58/58/58 57/57/57
f 60/60/60 59/59/59 57/57/57
f 63/63/63 62/62/62 61/61/61
f 64/64/64 63/63/63 61/61/61
f 67/67/67 66/66/66 65/65/65
f 68/68/68 67/67/67 65/65/65
f 71/71/71 70/70/70 69/69/69
f 72/72/72 71/71/71 69/69/69
f 75/75/75 74/74/74 73/73/73
f 76/76/76 75/75/75 73/73/73
f 79/79/79 78/78/78 77/77/77
f 80/80/80 79/79/79 77/77/77
f 83/83/83 82/82/82 81/81/81
f 84/84/84 83/83/83 81/81/81
f 87/87/87 86/86/86 85/85/85
f 85/85/85 88/88/88 87/87/87
f 88/88/88 89/89/89 87/87/87
f 88/88/88 90/90/90 89/89/89
f 90/90/90 91/91/91 89/89/89
f 90/90/90 92/92/92 91/91/91
f 92/92/92 93/93/93 91/91/91
f 92/92/92 94/94/94 93/93/93
f 94/94/94 95/95/95 93/93/93
f 94/94/94 96/96/96 95/95/95
f 99/99/99 98/98/98 97/97/97
f 100/100/100 99/99/99 97/97/97
f 103/103/103 102/102/102 101/101/101
f 104/104/104 103/103/103 101/101/101
f 107/107/107 106/106/106 105/105/105
f 105/105/105 108/108/108 107/107/107
f 108/108/108 109/109/109 107/107/107
f 108/108/108 110/110/110 109/109/109
f 108/108/108 111/111/111 110/110/110
f 111/111/111 112/112/112 110/110/110
f 111/111/111 113/113/113 112/112/112
f 113/113/113 114/114/114 112/112/112
f 113/113/113 115/115/115 114/114/114
f 115/115/115 116/116/116 114/114/114
f 119/119/119 118/118/118 117/117/117
f 120/120/120 119/119/119 117/117/117
f 123/123/123 122/122/122 121/121/121
f 124/124/124 123/123/123 121/121/121
f 127/127/127 126/126/126 125/125/125
f 128/128/128 127/127/127 125/125/125
f 131/131/131 130/130/130 129/129/129
f 132/132/132 131/131/131 129/129/129
f 135/135/135 134/134/134 133/133/133
f 136/136/136 135/135/135 133/133/133
f 139/139/139 138/138/138 137/137/137
f 140/140/140 139/139/139 137/137/137
f 143/143/143 142/142/142 141/141/141
f 144/144/144 143/143/143 141/141/141
f 147/147/147 146/146/146 145/145/145
f 148/148/148 147/147/147 145/145/145
f 151/151/151 150/150/150 149/149/149
f 152/152/152 151/151/151 149/149/149
f 153/153/153 151/151/151 152/152/152
f 154/154/154 153/153/153 152/152/152
f 157/157/157 156/156/156 155/155/155
f 158/158/158 157/157/157 155/155/155
f 161/161/161 160/160/160 159/159/159
f 162/162/162 161/161/161 159/159/159
f 165/165/165 164/164/164 163/163/163
f 166/166/166 165/165/165 163/163/163
f 169/169/169 168/168/168 167/167/167
f 170/170/170 169/169/169 167/167/167
f 173/173/173 172/172/172 171/171/171
f 172/172/172 174/174/174 171/171/171
f 173/173/173 171/171/171 175/175/175
f 172/172/172 176/176/176 174/174/174
f 177/177/177 173/173/173 175/175/175
f 176/176/176 178/178/178 174/174/174
f 177/177/177 175/175/175 179/179/179
f 176/176/176 180/180/180 178/178/178
f 181/181/181 177/177/177 179/179/179
f 180/180/180 182/182/182 178/178/178
f 181/181/181 179/179/179 183/183/183
f 180/180/180 184/184/184 182/182/182
f 185/185/185 181/181/181 183/183/183
f 184/184/184 186/186/186 182/182/182
f 185/185/185 183/183/183 187/187/187
f 184/184/184 188/188/188 186/186/186
f 189/189/189 185/185/185 187/187/187
f 188/188/188 190/190/190 186/186/186
f 189/189/189 187/187/187 191/191/191
f 188/188/188 192/192/192 190/190/190
f 193/193/193 189/189/189 191/191/191
f 192/192/192 194/194/194 190/190/190
f 193/193/193 191/191/191 194/194/194
f 192/192/192 193/193/193 194/194/194
