g Model_0_Section_1_Alive
v 1 -0.0880654007 0.246343479
v 1 -0.0880654007 0.0702127069
v -0.918178082 -0.0880654007 0.0702127069
v -0.918178082 -0.0880654007 0.246343479
v 1 -0.0880654007 0.246343479
v -0.918178082 -0.0880654007 0.246343479
v -0.918178082 0.0880654007 0.246343479
v 1 0.0880654007 0.246343479
v -0.875 0.124999881 1.25
v -0.875000119 -0.125000119 1.25
v -1.125 -0.125 1.25
v -1.125 0.125 1.25
v -0.875 0.12499994 0
v -0.875 -0.125 0
v -0.875000119 -0.125000119 1.25
v -0.875 0.124999881 1.25
v -0.875 -0.125 0
v -1.125 -0.125 0
v -1.125 -0.125 1.25
v -0.875000119 -0.125000119 1.25
v -1.125 -0.125 0
v -1.125 0.125 0
v -1.125 0.125 1.25
v -1.125 -0.125 1.25
v -0.875 0.124999881 1.25
v -1.125 0.125 1.25
v -1.125 0.125 0
v -0.875 0.12499994 0
v 1 -0.0880654007 0.720884383
v 1 -0.0880654007 0.544753611
v -0.918178082 -0.0880654007 0.544753611
v -0.918178082 -0.0880654007 0.720884383
v 1 -0.0880654007 0.720884383
v -0.918178082 -0.0880654007 0.720884383
v -0.918178082 0.0880654007 0.720884383
v 1 0.0880654007 0.720884383
v 1 -0.0880654007 1.17675555
v 1 -0.0880654007 1.00062478
v -0.918178082 -0.0880654007 1.00062478
v -0.918178082 -0.0880654007 1.17675555
v 1 -0.0880654007 1.17675555
v -0.918178082 -0.0880654007 1.17675555
v -0.918178082 0.0880654007 1.17675555
v 1 0.0880654007 1.17675555
v -0.918178082 -0.0880654007 1.00062478
v 1 -0.0880654007 1.00062478
v 1 0.0880654007 1.00062478
v -0.918178082 0.0880654007 1.00062478
v -0.918178082 0.0880654007 1.17675555
v -0.918178082 0.0880654007 1.00062478
v 1 0.0880654007 1.00062478
v 1 0.0880654007 1.17675555
v -0.918178082 -0.0880654007 0.544753611
v 1 -0.0880654007 0.544753611
v 1 0.0880654007 0.544753611
v -0.918178082 0.0880654007 0.544753611
v -0.918178082 0.0880654007 0.720884383
v -0.918178082 0.0880654007 0.544753611
v 1 0.0880654007 0.544753611
v 1 0.0880654007 0.720884383
v -0.918178082 -0.0880654007 0.0702127069
v 1 -0.0880654007 0.0702127069
v 1 0.0880654007 0.0702127069
v -0.918178082 0.0880654007 0.0702127069
v -0.918178082 0.0880654007 0.246343479
v -0.918178082 0.0880654007 0.0702127069
v 1 0.0880654007 0.0702127069
v 1 0.0880654007 0.246343479
vt 0.813682437 0.711184263
vt 0.82379818 0.711184263
vt 0.82379818 0.607413888
vt 0.813682437 0.607413888
vt 0.773218989 0.711184204
vt 0.773218989 0.607413888
vt 0.763103127 0.607413888
vt 0.763103127 0.711184204
vt 0.223707139 0.601668596
vt 0.223707139 0.588144004
vt 0.209348738 0.588144064
vt 0.209348738 0.601668596
vt 0.252423942 0.520521045
vt 0.266782343 0.520521045
vt 0.266782343 0.452898085
vt 0.252423942 0.452898085
vt 0.180631936 0.588144004
vt 0.194990337 0.588144004
vt 0.194990337 0.520521045
vt 0.180631936 0.520521045
vt 0.223707139 0.520521045
vt 0.209348738 0.520521045
vt 0.209348738 0.588144004
vt 0.223707139 0.588144004
vt 0.180631936 0.520521045
vt 0.194990337 0.520521045
vt 0.194990337 0.452898055
vt 0.180631936 0.452898055
vt 0.833914042 0.711184263
vt 0.844029903 0.711184263
vt 0.844029903 0.607413888
vt 0.833914042 0.607413888
vt 0.763103068 0.711184204
vt 0.763103008 0.607413888
vt 0.752987266 0.607413888
vt 0.752987266 0.711184204
vt 0.823798239 0.711184263
vt 0.833914042 0.711184263
vt 0.833914042 0.607413888
vt 0.82379818 0.607413888
vt 0.783334851 0.711184204
vt 0.783334851 0.607413888
vt 0.773218989 0.607413888
vt 0.773218989 0.711184204
vt 0.742871404 0.607413888
vt 0.742871404 0.711184204
vt 0.752987206 0.711184204
vt 0.752987146 0.607413888
vt 0.793450713 0.814954638
vt 0.803566575 0.814954638
vt 0.803566575 0.711184263
vt 0.793450713 0.711184263
vt 0.732755542 0.607413888
vt 0.732755542 0.711184204
vt 0.742871344 0.711184204
vt 0.742871284 0.607413888
vt 0.803566575 0.814954638
vt 0.813682437 0.814954638
vt 0.813682437 0.711184263
vt 0.803566575 0.711184263
vt 0.722639561 0.607413888
vt 0.72263962 0.711184204
vt 0.732755482 0.711184204
vt 0.732755423 0.607413888
vt 0.783334851 0.814954638
vt 0.793450713 0.814954638
vt 0.793450713 0.711184263
vt 0.783334851 0.711184263
vn -0 -1 0
vn -0 -1 0
vn -0 -1 0
vn -0 -1 0
vn -0 0 1
vn -0 0 1
vn -0 0 1
vn -0 0 1
vn -0 0 1
vn -0 0 1
vn -0 0 1
vn -0 0 1
vn 1 0 0
vn 1 0 0
vn 1 0 0
vn 1 0 0
vn -0 -1 0
vn -0 -1 0
vn -0 -1 0
vn -0 -1 0
vn -1 0 0
vn -1 0 0
vn -1 0 0
vn -1 0 0
vn -0 1 0
vn -0 1 0
vn -0 1 0
vn -0 1 0
vn -0 -1 0
vn -0 -1 0
vn -0 -1 0
vn -0 -1 0
vn -0 0 1
vn -0 0 1
vn -0 0 1
vn -0 0 1
vn -0 -1 0
vn -0 -1 0
vn -0 -1 0
vn -0 -1 0
vn -0 0 1
vn -0 0 1
vn -0 0 1
vn -0 0 1
vn -0 0 -1
vn -0 0 -1
vn -0 0 -1
vn -0 0 -1
vn -0 1 0
vn -0 1 0
vn -0 1 0
vn -0 1 0
vn -0 0 -1
vn -0 0 -1
vn -0 0 -1
vn -0 0 -1
vn -0 1 0
vn -0 1 0
vn -0 1 0
vn -0 1 0
vn -0 0 -1
vn -0 0 -1
vn -0 0 -1
vn -0 0 -1
vn -0 1 0
vn -0 1 0
vn -0 1 0
vn -0 1 0
g Model_0_Section_1_Alive_0
f 3/3/3 2/2/2 1/1/1
f 4/4/4 3/3/3 1/1/1
f 7/7/7 6/6/6 5/5/5
f 8/8/8 7/7/7 5/5/5
f 11/11/11 10/10/10 9/9/9
f 12/12/12 11/11/11 9/9/9
f 15/15/15 14/14/14 13/13/13
f 16/16/16 15/15/15 13/13/13
f 19/19/19 18/18/18 17/17/17
f 20/20/20 19/19/19 17/17/17
f 23/23/23 22/22/22 21/21/21
f 24/24/24 23/23/23 21/21/21
f 27/27/27 26/26/26 25/25/25
f 28/28/28 27/27/27 25/25/25
f 31/31/31 30/30/30 29/29/29
f 32/32/32 31/31/31 29/29/29
f 35/35/35 34/34/34 33/33/33
f 36/36/36 35/35/35 33/33/33
f 39/39/39 38/38/38 37/37/37
f 40/40/40 39/39/39 37/37/37
f 43/43/43 42/42/42 41/41/41
f 44/44/44 43/43/43 41/41/41
f 47/47/47 46/46/46 45/45/45
f 48/48/48 47/47/47 45/45/45
f 51/51/51 50/50/50 49/49/49
f 52/52/52 51/51/51 49/49/49
f 55/55/55 54/54/54 53/53/53
f 56/56/56 55/55/55 53/53/53
f 59/59/59 58/58/58 57/57/57
f 60/60/60 59/59/59 57/57/57
f 63/63/63 62/62/62 61/61/61
f 64/64/64 63/63/63 61/61/61
f 67/67/67 66/66/66 65/65/65
f 68/68/68 67/67/67 65/65/65
