g Model_0_Section_1_Alive
v 2.000000 0.012500 0.682500
v 2.000000 0.012500 0.407500
v 0.000000 0.012500 0.407500
v 0.000000 0.012500 0.682500
v 2.000000 0.012500 0.682500
v 0.000000 0.012500 0.682500
v 0.000000 0.087500 0.682500
v 2.000000 0.087500 0.682500
v 1.987500 -0.050000 2.140000
v 1.987500 -0.050000 0.050000
v 1.512500 -0.050000 0.050000
v 1.512500 -0.050000 2.140000
v 1.512500 -0.050000 2.140000
v 1.512500 -0.050000 0.050000
v 1.512500 0.050000 0.050000
v 1.512500 0.050000 2.140000
v 1.512500 0.050000 2.140000
v 1.512500 0.050000 0.050000
v 1.987500 0.050000 0.050000
v 1.987500 0.050000 2.140000
v 1.987500 0.050000 0.050000
v 1.512500 0.050000 0.050000
v 1.512500 -0.050000 0.050000
v 1.987500 -0.050000 0.050000
v 1.512500 0.050000 2.140000
v 1.987500 0.050000 2.140000
v 1.987500 -0.050000 2.140000
v 1.512500 -0.050000 2.140000
v 1.487500 0.050000 2.140000
v 1.487500 0.050000 0.050000
v 1.487500 -0.050000 0.050000
v 1.487500 -0.050000 2.140000
v 1.487500 -0.050000 2.140000
v 1.487500 -0.050000 0.050000
v 1.012500 -0.050000 0.050000
v 1.012500 -0.050000 2.140000
v 1.012500 -0.050000 2.140000
v 1.012500 -0.050000 0.050000
v 1.012500 0.050000 0.050000
v 1.012500 0.050000 2.140000
v 1.012500 0.050000 2.140000
v 1.012500 0.050000 0.050000
v 1.487500 0.050000 0.050000
v 1.487500 0.050000 2.140000
v 1.487500 0.050000 0.050000
v 1.012500 0.050000 0.050000
v 1.012500 -0.050000 0.050000
v 1.487500 -0.050000 0.050000
v 1.012500 0.050000 2.140000
v 1.487500 0.050000 2.140000
v 1.487500 -0.050000 2.140000
v 1.012500 -0.050000 2.140000
v 0.987500 0.050000 2.140000
v 0.987500 0.050000 0.050000
v 0.987500 -0.050000 0.050000
v 0.987500 -0.050000 2.140000
v 0.987500 -0.050000 2.140000
v 0.987500 -0.050000 0.050000
v 0.512500 -0.050000 0.050000
v 0.512500 -0.050000 2.140000
v 0.512500 -0.050000 2.140000
v 0.512500 -0.050000 0.050000
v 0.512500 0.050000 0.050000
v 0.512500 0.050000 2.140000
v 0.512500 0.050000 2.140000
v 0.512500 0.050000 0.050000
v 0.987500 0.050000 0.050000
v 0.987500 0.050000 2.140000
v 0.987500 0.050000 0.050000
v 0.512500 0.050000 0.050000
v 0.512500 -0.050000 0.050000
v 0.987500 -0.050000 0.050000
v 0.512500 0.050000 2.140000
v 0.987500 0.050000 2.140000
v 0.987500 -0.050000 2.140000
v 0.512500 -0.050000 2.140000
v 0.487500 0.050000 2.140000
v 0.487500 0.050000 0.050000
v 0.487500 -0.050000 0.050000
v 0.487500 -0.050000 2.140000
v 0.487500 -0.050000 2.140000
v 0.487500 -0.050000 0.050000
v 0.012500 -0.050000 0.050000
v 0.012500 -0.050000 2.140000
v 0.012500 0.050000 2.140000
v 0.012500 0.050000 0.050000
v 0.487500 0.050000 0.050000
v 0.487500 0.050000 2.140000
v 0.487500 0.050000 0.050000
v 0.012500 0.050000 0.050000
v 0.012500 -0.050000 0.050000
v 0.487500 -0.050000 0.050000
v 0.012500 0.050000 2.140000
v 0.487500 0.050000 2.140000
v 0.487500 -0.050000 2.140000
v 0.012500 -0.050000 2.140000
v -0.100000 -0.100000 2.305000
v -0.100000 -0.100000 -0.005000
v -0.100000 0.100000 -0.005000
v -0.100000 0.100000 2.305000
v -0.100000 0.100000 2.305000
v -0.100000 0.100000 -0.005000
v 0.100000 0.100000 -0.005000
v 0.100000 0.100000 2.305000
v 0.100000 0.100000 2.305000
v 0.100000 0.100000 -0.005000
v 0.100000 -0.100000 -0.005000
v 0.100000 -0.100000 2.305000
v 0.100000 -0.100000 2.305000
v 0.100000 -0.100000 -0.005000
v -0.100000 -0.100000 -0.005000
v -0.100000 -0.100000 2.305000
v 0.100000 -0.100000 2.305000
v -0.100000 -0.100000 2.305000
v -0.100000 0.100000 2.305000
v 0.100000 0.100000 2.305000
v 2.000000 0.012500 1.782500
v 2.000000 0.012500 1.507500
v 0.000000 0.012500 1.507500
v 0.000000 0.012500 1.782500
v 2.000000 0.012500 1.782500
v 0.000000 0.012500 1.782500
v 0.000000 0.087500 1.782500
v 2.000000 0.087500 1.782500
v 0.000000 0.012500 1.507500
v 2.000000 0.012500 1.507500
v 2.000000 0.087500 1.507500
v 0.000000 0.087500 1.507500
v 0.000000 0.087500 1.782500
v 0.000000 0.087500 1.507500
v 2.000000 0.087500 1.507500
v 2.000000 0.087500 1.782500
v 0.000000 0.012500 0.407500
v 2.000000 0.012500 0.407500
v 2.000000 0.087500 0.407500
v 0.000000 0.087500 0.407500
v 0.000000 0.087500 0.682500
v 0.000000 0.087500 0.407500
v 2.000000 0.087500 0.407500
v 2.000000 0.087500 0.682500
vt 0.321148217 0.463168174
vt 0.325264305 0.463168174
vt 0.325264305 0.429123044
vt 0.321148217 0.429123044
vt 0.420346558 0.495511055
vt 0.420346498 0.461465925
vt 0.419111699 0.461465925
vt 0.419111699 0.495511055
vt 0.628287733 0.54399538
vt 0.628287733 0.491834611
vt 0.615675032 0.491834611
vt 0.615675032 0.54399538
vt 0.687367976 0.491834611
vt 0.687367976 0.439673841
vt 0.684712648 0.439673841
vt 0.684712648 0.491834611
vt 0.577837229 0.54399538
vt 0.577837229 0.491834611
vt 0.565224469 0.491834611
vt 0.565224469 0.54399538
vt 0.545309782 0.562526166
vt 0.545309782 0.549485981
vt 0.542654514 0.549485981
vt 0.542654514 0.562526166
vt 0.593105078 0.557035565
vt 0.593105078 0.54399538
vt 0.59044975 0.54399538
vt 0.59044975 0.557035565
vt 0.676746845 0.439673841
vt 0.676746845 0.491834611
vt 0.679402113 0.491834611
vt 0.679402113 0.439673841
vt 0.640900373 0.491834611
vt 0.640900373 0.439673841
vt 0.628287733 0.439673841
vt 0.628287733 0.491834611
vt 0.682057381 0.491834611
vt 0.682057381 0.439673841
vt 0.679402113 0.439673841
vt 0.679402113 0.491834611
vt 0.59044975 0.54399538
vt 0.59044975 0.491834611
vt 0.577837229 0.491834611
vt 0.577837229 0.54399538
vt 0.620985746 0.557035565
vt 0.620985746 0.54399538
vt 0.618330419 0.54399538
vt 0.618330419 0.557035565
vt 0.59044975 0.557035565
vt 0.59044975 0.54399538
vt 0.587794542 0.54399538
vt 0.587794542 0.557035565
vt 0.67143625 0.439673841
vt 0.67143625 0.491834611
vt 0.674091578 0.491834611
vt 0.674091578 0.439673841
vt 0.653512955 0.54399538
vt 0.653512955 0.491834611
vt 0.640900373 0.491834611
vt 0.640900373 0.54399538
vt 0.684712648 0.491834611
vt 0.684712648 0.439673841
vt 0.682057381 0.439673841
vt 0.682057381 0.491834611
vt 0.59044975 0.491834611
vt 0.59044975 0.54399538
vt 0.603062391 0.54399538
vt 0.603062391 0.49183467
vt 0.622977197 0.54399538
vt 0.622977197 0.557035565
vt 0.625632346 0.557035565
vt 0.625632346 0.54399538
vt 0.595096529 0.54399538
vt 0.595096529 0.557035565
vt 0.597751856 0.557035565
vt 0.597751856 0.54399538
vt 0.628287733 0.54399538
vt 0.628287792 0.59615612
vt 0.63094306 0.59615612
vt 0.63094306 0.54399538
vt 0.653512955 0.491834611
vt 0.653512955 0.439673841
vt 0.640900373 0.439673841
vt 0.640900373 0.491834611
vt 0.565224469 0.439673841
vt 0.565224469 0.491834611
vt 0.577837229 0.491834611
vt 0.577837229 0.439673841
vt 0.551948011 0.549485981
vt 0.551948011 0.562526166
vt 0.554603338 0.562526166
vt 0.554603338 0.549485981
vt 0.628287733 0.557035565
vt 0.628287733 0.54399538
vt 0.625632524 0.54399538
vt 0.625632524 0.557035565
vt 0.174771875 0.540631592
vt 0.174771875 0.482980192
vt 0.16946125 0.482980192
vt 0.16946134 0.540631592
vt 0.158840179 0.482980192
vt 0.158840179 0.540631592
vt 0.164150715 0.540631592
vt 0.164150715 0.482980192
vt 0.128304332 0.535140991
vt 0.128304332 0.592792392
vt 0.133614868 0.592792392
vt 0.133614868 0.535140991
vt 0.140916914 0.535140991
vt 0.140916914 0.592792392
vt 0.146227449 0.592792392
vt 0.146227449 0.535140991
vt 0.0678963661 0.548181176
vt 0.0625857562 0.548181176
vt 0.0625857562 0.553671777
vt 0.0678963661 0.553671777
vt 0.325264305 0.463168174
vt 0.329380453 0.463168174
vt 0.329380453 0.429123044
vt 0.325264305 0.429123044
vt 0.421581328 0.495511055
vt 0.421581328 0.461465925
vt 0.420346588 0.461465925
vt 0.420346588 0.495511055
vt 0.417876869 0.461465925
vt 0.417876869 0.495511055
vt 0.419111669 0.495511055
vt 0.419111609 0.461465925
vt 0.337612659 0.429123044
vt 0.3334966 0.429123044
vt 0.3334966 0.463168174
vt 0.337612659 0.463168174
vt 0.41664198 0.461465925
vt 0.41664198 0.495511055
vt 0.417876869 0.495511055
vt 0.417876869 0.461465925
vt 0.329380423 0.497213304
vt 0.3334966 0.497213304
vt 0.3334966 0.463168174
vt 0.329380423 0.463168174
vn 0.000000 -1.000000 0.000000
vn 0.000000 -1.000000 0.000000
vn 0.000000 -1.000000 0.000000
vn 0.000000 -1.000000 0.000000
vn 0.000000 0.000000 1.000000
vn 0.000000 0.000000 1.000000
vn 0.000000 0.000000 1.000000
vn 0.000000 0.000000 1.000000
vn 0.000000 -1.000000 0.000000
vn 0.000000 -1.000000 0.000000
vn 0.000000 -1.000000 0.000000
vn 0.000000 -1.000000 0.000000
vn -1.000000 0.000000 0.000000
vn -1.000000 0.000000 0.000000
vn -1.000000 0.000000 0.000000
vn -1.000000 0.000000 0.000000
vn 0.000000 1.000000 0.000000
vn 0.000000 1.000000 0.000000
vn 0.000000 1.000000 0.000000
vn 0.000000 1.000000 0.000000
vn 0.000000 0.000000 -1.000000
vn 0.000000 0.000000 -1.000000
vn 0.000000 0.000000 -1.000000
vn 0.000000 0.000000 -1.000000
vn 0.000000 0.000000 1.000000
vn 0.000000 0.000000 1.000000
vn 0.000000 0.000000 1.000000
vn 0.000000 0.000000 1.000000
vn 1.000000 0.000000 0.000000
vn 1.000000 0.000000 0.000000
vn 1.000000 0.000000 0.000000
vn 1.000000 0.000000 0.000000
vn 0.000000 -1.000000 0.000000
vn 0.000000 -1.000000 0.000000
vn 0.000000 -1.000000 0.000000
vn 0.000000 -1.000000 0.000000
vn -1.000000 0.000000 0.000000
vn -1.000000 0.000000 0.000000
vn -1.000000 0.000000 0.000000
vn -1.000000 0.000000 0.000000
vn 0.000000 1.000000 0.000000
vn 0.000000 1.000000 0.000000
vn 0.000000 1.000000 0.000000
vn 0.000000 1.000000 0.000000
vn 0.000000 0.000000 -1.000000
vn 0.000000 0.000000 -1.000000
vn 0.000000 0.000000 -1.000000
vn 0.000000 0.000000 -1.000000
vn 0.000000 0.000000 1.000000
vn 0.000000 0.000000 1.000000
vn 0.000000 0.000000 1.000000
vn 0.000000 0.000000 1.000000
vn 1.000000 0.000000 0.000000
vn 1.000000 0.000000 0.000000
vn 1.000000 0.000000 0.000000
vn 1.000000 0.000000 0.000000
vn 0.000000 -1.000000 0.000000
vn 0.000000 -1.000000 0.000000
vn 0.000000 -1.000000 0.000000
vn 0.000000 -1.000000 0.000000
vn -1.000000 0.000000 0.000000
vn -1.000000 0.000000 0.000000
vn -1.000000 0.000000 0.000000
vn -1.000000 0.000000 0.000000
vn 0.000000 1.000000 0.000000
vn 0.000000 1.000000 0.000000
vn 0.000000 1.000000 0.000000
vn 0.000000 1.000000 0.000000
vn 0.000000 0.000000 -1.000000
vn 0.000000 0.000000 -1.000000
vn 0.000000 0.000000 -1.000000
vn 0.000000 0.000000 -1.000000
vn 0.000000 0.000000 1.000000
vn 0.000000 0.000000 1.000000
vn 0.000000 0.000000 1.000000
vn 0.000000 0.000000 1.000000
vn 1.000000 0.000000 0.000000
vn 1.000000 0.000000 0.000000
vn 1.000000 0.000000 0.000000
vn 1.000000 0.000000 0.000000
vn 0.000000 -1.000000 0.000000
vn 0.000000 -1.000000 0.000000
vn 0.000000 -1.000000 0.000000
vn 0.000000 -1.000000 0.000000
vn 0.000000 1.000000 0.000000
vn 0.000000 1.000000 0.000000
vn 0.000000 1.000000 0.000000
vn 0.000000 1.000000 0.000000
vn 0.000000 0.000000 -1.000000
vn 0.000000 0.000000 -1.000000
vn 0.000000 0.000000 -1.000000
vn 0.000000 0.000000 -1.000000
vn 0.000000 0.000000 1.000000
vn 0.000000 0.000000 1.000000
vn 0.000000 0.000000 1.000000
vn 0.000000 0.000000 1.000000
vn -1.000000 0.000000 0.000000
vn -1.000000 0.000000 0.000000
vn -1.000000 0.000000 0.000000
vn -1.000000 0.000000 0.000000
vn 0.000000 1.000000 0.000000
vn 0.000000 1.000000 0.000000
vn 0.000000 1.000000 0.000000
vn 0.000000 1.000000 0.000000
vn 1.000000 0.000000 0.000000
vn 1.000000 0.000000 0.000000
vn 1.000000 0.000000 0.000000
vn 1.000000 0.000000 0.000000
vn 0.000000 -1.000000 0.000000
vn 0.000000 -1.000000 0.000000
vn 0.000000 -1.000000 0.000000
vn 0.000000 -1.000000 0.000000
vn 0.000000 0.000000 1.000000
vn 0.000000 0.000000 1.000000
vn 0.000000 0.000000 1.000000
vn 0.000000 0.000000 1.000000
vn 0.000000 -1.000000 0.000000
vn 0.000000 -1.000000 0.000000
vn 0.000000 -1.000000 0.000000
vn 0.000000 -1.000000 0.000000
vn 0.000000 0.000000 1.000000
vn 0.000000 0.000000 1.000000
vn 0.000000 0.000000 1.000000
vn 0.000000 0.000000 1.000000
vn 0.000000 0.000000 -1.000000
vn 0.000000 0.000000 -1.000000
vn 0.000000 0.000000 -1.000000
vn 0.000000 0.000000 -1.000000
vn 0.000000 1.000000 0.000000
vn 0.000000 1.000000 0.000000
vn 0.000000 1.000000 0.000000
vn 0.000000 1.000000 0.000000
vn 0.000000 0.000000 -1.000000
vn 0.000000 0.000000 -1.000000
vn 0.000000 0.000000 -1.000000
vn 0.000000 0.000000 -1.000000
vn 0.000000 1.000000 0.000000
vn 0.000000 1.000000 0.000000
vn 0.000000 1.000000 0.000000
vn 0.000000 1.000000 0.000000
g Model_0_Section_1_Alive_0
f 3/3/3 2/2/2 1/1/1
f 4/4/4 3/3/3 1/1/1
f 7/7/7 6/6/6 5/5/5
f 8/8/8 7/7/7 5/5/5
f 11/11/11 10/10/10 9/9/9
f 12/12/12 11/11/11 9/9/9
f 15/15/15 14/14/14 13/13/13
f 16/16/16 15/15/15 13/13/13
f 19/19/19 18/18/18 17/17/17
f 20/20/20 19/19/19 17/17/17
f 23/23/23 22/22/22 21/21/21
f 24/24/24 23/23/23 21/21/21
f 27/27/27 26/26/26 25/25/25
f 28/28/28 27/27/27 25/25/25
f 31/31/31 30/30/30 29/29/29
f 32/32/32 31/31/31 29/29/29
f 35/35/35 34/34/34 33/33/33
f 36/36/36 35/35/35 33/33/33
f 39/39/39 38/38/38 37/37/37
f 40/40/40 39/39/39 37/37/37
f 43/43/43 42/42/42 41/41/41
f 44/44/44 43/43/43 41/41/41
f 47/47/47 46/46/46 45/45/45
f 48/48/48 47/47/47 45/45/45
f 51/51/51 50/50/50 49/49/49
f 52/52/52 51/51/51 49/49/49
f 55/55/55 54/54/54 53/53/53
f 56/56/56 55/55/55 53/53/53
f 59/59/59 58/58/58 57/57/57
f 60/60/60 59/59/59 57/57/57
f 63/63/63 62/62/62 61/61/61
f 64/64/64 63/63/63 61/61/61
f 67/67/67 66/66/66 65/65/65
f 68/68/68 67/67/67 65/65/65
f 71/71/71 70/70/70 69/69/69
f 72/72/72 71/71/71 69/69/69
f 75/75/75 74/74/74 73/73/73
f 76/76/76 75/75/75 73/73/73
f 79/79/79 78/78/78 77/77/77
f 80/80/80 79/79/79 77/77/77
f 83/83/83 82/82/82 81/81/81
f 84/84/84 83/83/83 81/81/81
f 87/87/87 86/86/86 85/85/85
f 88/88/88 87/87/87 85/85/85
f 91/91/91 90/90/90 89/89/89
f 92/92/92 91/91/91 89/89/89
f 95/95/95 94/94/94 93/93/93
f 96/96/96 95/95/95 93/93/93
f 99/99/99 98/98/98 97/97/97
f 100/100/100 99/99/99 97/97/97
f 103/103/103 102/102/102 101/101/101
f 104/104/104 103/103/103 101/101/101
f 107/107/107 106/106/106 105/105/105
f 108/108/108 107/107/107 105/105/105
f 111/111/111 110/110/110 109/109/109
f 112/112/112 111/111/111 109/109/109
f 115/115/115 114/114/114 113/113/113
f 116/116/116 115/115/115 113/113/113
f 119/119/119 118/118/118 117/117/117
f 120/120/120 119/119/119 117/117/117
f 123/123/123 122/122/122 121/121/121
f 124/124/124 123/123/123 121/121/121
f 127/127/127 126/126/126 125/125/125
f 128/128/128 127/127/127 125/125/125
f 131/131/131 130/130/130 129/129/129
f 132/132/132 131/131/131 129/129/129
f 135/135/135 134/134/134 133/133/133
f 136/136/136 135/135/135 133/133/133
f 139/139/139 138/138/138 137/137/137
f 140/140/140 139/139/139 137/137/137