v 0.125000 0.125000 0.380874
v 0.125000 -0.125000 0.380874
v -0.125000 -0.125000 0.400177
v -0.125000 0.125000 0.400177
v 0.125000 0.125000 -0.000000
v 0.125000 -0.125000 0.000000
v 0.125000 -0.125000 0.380874
v 0.125000 0.125000 0.380874
v 0.125000 -0.125000 0.000000
v -0.125000 -0.125000 0.000000
v -0.125000 -0.125000 0.400177
v 0.125000 -0.125000 0.380874
v -0.125000 -0.125000 0.000000
v -0.125000 0.125000 -0.000000
v -0.125000 0.125000 0.400177
v -0.125000 -0.125000 0.400177
v 0.125000 0.125000 0.380874
v -0.125000 0.125000 0.400177
v -0.125000 0.125000 -0.000000
v 0.125000 0.125000 -0.000000
vt 0.209348738 0.588144004
vt 0.194990337 0.588144064
vt 0.194990337 0.601668596
vt 0.209348738 0.601668596
vt 0.252423942 0.588144004
vt 0.266782343 0.588144004
vt 0.266782343 0.520521045
vt 0.252423942 0.520521045
vt 0.238065541 0.452898055
vt 0.223707139 0.452898055
vt 0.223707139 0.520521045
vt 0.238065541 0.520521045
vt 0.223707139 0.452898055
vt 0.209348738 0.452898055
vt 0.209348738 0.520521045
vt 0.223707139 0.520521045
vt 0.209348738 0.520521045
vt 0.194990337 0.520521045
vt 0.194990337 0.588144004
vt 0.209348738 0.588144004
vn 0.076983 0.000000 0.997032
vn 0.076983 0.000000 0.997032
vn 0.076983 0.000000 0.997032
vn 0.076983 0.000000 0.997032
vn 1.000000 0.000000 0.000000
vn 1.000000 0.000000 0.000000
vn 1.000000 0.000000 0.000000
vn 1.000000 0.000000 0.000000
vn 0.000000 -1.000000 0.000000
vn 0.000000 -1.000000 0.000000
vn 0.000000 -1.000000 0.000000
vn 0.000000 -1.000000 0.000000
vn -1.000000 0.000000 0.000000
vn -1.000000 0.000000 0.000000
vn -1.000000 0.000000 0.000000
vn -1.000000 0.000000 0.000000
vn 0.000000 1.000000 -0.000000
vn 0.000000 1.000000 -0.000000
vn 0.000000 1.000000 -0.000000
vn 0.000000 1.000000 -0.000000
f 3/3/3 2/2/2 1/1/1
f 4/4/4 3/3/3 1/1/1
f 7/7/7 6/6/6 5/5/5
f 8/8/8 7/7/7 5/5/5
f 11/11/11 10/10/10 9/9/9
f 12/12/12 11/11/11 9/9/9
f 15/15/15 14/14/14 13/13/13
f 16/16/16 15/15/15 13/13/13
f 19/19/19 18/18/18 17/17/17
f 20/20/20 19/19/19 17/17/17
