v 1.902128 -0.088977 0.267756
v 1.897323 -0.103251 0.000522
v 1.943901 0.091204 -0.003697
v 1.948706 0.105477 0.263537
v 1.948706 0.105477 0.263537
v 1.943901 0.091204 -0.003697
v 2.138377 0.044711 0.000498
v 2.133873 0.052096 0.291183
v 2.133873 0.052096 0.291183
v 2.138377 0.044711 0.000498
v 2.091799 -0.149743 0.004717
v 2.087295 -0.142359 0.295403
v 2.087295 -0.142359 0.295403
v 2.091799 -0.149743 0.004717
v 1.897323 -0.103251 0.000522
v 1.902128 -0.088977 0.267756
v 2.087295 -0.142359 0.295403
v 1.902128 -0.088977 0.267756
v 1.948706 0.105477 0.263537
v 2.133873 0.052096 0.291183
v -1.927001 0.079862 0.214845
v -1.925636 0.066520 -0.004350
v -1.870450 -0.125466 0.005446
v -1.871815 -0.112124 0.224641
v -1.871815 -0.112124 0.224641
v -1.870450 -0.125466 0.005446
v -2.062683 -0.180633 0.007205
v -2.064048 -0.167291 0.276425
v -2.064048 -0.167291 0.276425
v -2.062683 -0.180633 0.007205
v -2.117869 0.011352 -0.002591
v -2.119234 0.024695 0.266629
v -2.119234 0.024695 0.266629
v -2.117869 0.011352 -0.002591
v -1.925636 0.066520 -0.004350
v -1.927001 0.079862 0.214845
v -2.119234 0.024695 0.266629
v -1.927001 0.079862 0.214845
v -1.871815 -0.112124 0.224641
v -2.064048 -0.167291 0.276425
vt 0 0
vt 0 0
vt 0 0
vt 0 0
vt 0 0
vt 0 0
vt 0 0
vt 0 0
vt 0 0
vt 0 0
vt 0 0
vt 0 0
vt 0 0
vt 0 0
vt 0 0
vt 0 0
vt 0 0
vt 0 0
vt 0 0
vt 0 0
vt 0 0
vt 0 0
vt 0 0
vt 0 0
vt 0 0
vt 0 0
vt 0 0
vt 0 0
vt 0 0
vt 0 0
vt 0 0
vt 0 0
vt 0 0
vt 0 0
vt 0 0
vt 0 0
vt 0 0
vt 0 0
vt 0 0
vt 0 0
vn -0.972453 0.233045 0.005037
vn -0.972453 0.233045 0.005037
vn -0.972453 0.233045 0.005037
vn -0.972453 0.233045 0.005037
vn 0.257187 0.965629 -0.037623
vn 0.257187 0.965629 -0.037623
vn 0.257187 0.965629 -0.037623
vn 0.257187 0.965629 -0.037623
vn 0.972379 -0.232465 0.020972
vn 0.972379 -0.232465 0.020972
vn 0.972379 -0.232465 0.020972
vn 0.972379 -0.232465 0.020972
vn -0.257187 -0.965629 0.037623
vn -0.257187 -0.965629 0.037623
vn -0.257187 -0.965629 0.037623
vn -0.257187 -0.965629 0.037623
vn -0.132439 0.053199 0.989763
vn -0.132439 0.053199 0.989763
vn -0.132439 0.053199 0.989763
vn -0.132439 0.053199 0.989763
vn 0.961173 0.275737 -0.010796
vn 0.961173 0.275737 -0.010796
vn 0.961173 0.275737 -0.010796
vn 0.961173 0.275737 -0.010796
vn 0.282374 -0.957788 0.053907
vn 0.282374 -0.957788 0.053907
vn 0.282374 -0.957788 0.053907
vn 0.282374 -0.957788 0.053907
vn -0.961164 -0.275836 0.008796
vn -0.961164 -0.275836 0.008796
vn -0.961164 -0.275836 0.008796
vn -0.961164 -0.275836 0.008796
vn -0.282374 0.957788 -0.053907
vn -0.282374 0.957788 -0.053907
vn -0.282374 0.957788 -0.053907
vn -0.282374 0.957788 -0.053907
vn 0.227555 0.114751 0.966980
vn 0.227555 0.114751 0.966980
vn 0.227555 0.114751 0.966980
vn 0.227555 0.114751 0.966980
f 3/3/3 2/2/2 1/1/1
f 4/4/4 3/3/3 1/1/1
f 7/7/7 6/6/6 5/5/5
f 8/8/8 7/7/7 5/5/5
f 11/11/11 10/10/10 9/9/9
f 12/12/12 11/11/11 9/9/9
f 15/15/15 14/14/14 13/13/13
f 16/16/16 15/15/15 13/13/13
f 19/19/19 18/18/18 17/17/17
f 20/20/20 19/19/19 17/17/17
f 23/23/23 22/22/22 21/21/21
f 24/24/24 23/23/23 21/21/21
f 27/27/27 26/26/26 25/25/25
f 28/28/28 27/27/27 25/25/25
f 31/31/31 30/30/30 29/29/29
f 32/32/32 31/31/31 29/29/29
f 35/35/35 34/34/34 33/33/33
f 36/36/36 35/35/35 33/33/33
f 39/39/39 38/38/38 37/37/37
f 40/40/40 39/39/39 37/37/37
