v -0.223481 -4.009528 0.413144
v -0.191051 -4.286602 0.453071
v -0.672216 -4.350407 0.333031
v -0.704645 -4.073332 0.293103
v 0.060178 -3.683662 -0.897069
v 0.104653 -3.924484 -0.947336
v -0.191051 -4.286602 0.453071
v -0.223481 -4.009528 0.413144
v 0.104653 -3.924484 -0.947336
v -0.376512 -3.988288 -1.067376
v -0.672216 -4.350407 0.333031
v -0.191051 -4.286602 0.453071
v -0.376512 -3.988288 -1.067376
v -0.420986 -3.747466 -1.017110
v -0.704645 -4.073332 0.293103
v -0.672216 -4.350407 0.333031
v -0.223481 -4.009528 0.413144
v -0.704645 -4.073332 0.293103
v -0.420986 -3.747466 -1.017110
v 0.060178 -3.683662 -0.897069
v 0.250000 -7.875000 0.334755
v 0.250000 -8.125000 0.273882
v -0.250000 -8.125000 0.273882
v -0.250000 -7.875000 0.334755
v 0.250000 -7.875000 -1.000000
v 0.250000 -8.125000 -1.000000
v 0.250000 -8.125000 0.273882
v 0.250000 -7.875000 0.334755
v 0.250000 -8.125000 -1.000000
v -0.250000 -8.125000 -1.000000
v -0.250000 -8.125000 0.273882
v 0.250000 -8.125000 0.273882
v -0.250000 -8.125000 -1.000000
v -0.250000 -7.875000 -1.000000
v -0.250000 -7.875000 0.334755
v -0.250000 -8.125000 0.273882
v 0.250000 -7.875000 0.334755
v -0.250000 -7.875000 0.334755
v -0.250000 -7.875000 -1.000000
v 0.250000 -7.875000 -1.000000
v 0.250000 8.125000 0.409130
v 0.250000 7.875000 0.323359
v -0.250000 7.875000 0.323359
v -0.250000 8.125000 0.409130
v 0.250000 8.125000 -1.000000
v 0.250000 7.875000 -1.000000
v 0.250000 7.875000 0.323359
v 0.250000 8.125000 0.409130
v 0.250000 7.875000 -1.000000
v -0.250000 7.875000 -1.000000
v -0.250000 7.875000 0.323359
v 0.250000 7.875000 0.323359
v -0.250000 7.875000 -1.000000
v -0.250000 8.125000 -1.000000
v -0.250000 8.125000 0.409130
v -0.250000 7.875000 0.323359
v 0.250000 8.125000 0.409130
v -0.250000 8.125000 0.409130
v -0.250000 8.125000 -1.000000
v 0.250000 8.125000 -1.000000
v -0.337851 4.274304 0.389072
v -0.415643 4.046562 0.478941
v -0.842608 4.193392 0.264134
v -0.764816 4.421134 0.174266
v 0.281669 4.074502 -0.887989
v 0.200583 3.838018 -0.888464
v -0.415643 4.046562 0.478941
v -0.337851 4.274304 0.389072
v 0.200583 3.838018 -0.888464
v -0.226382 3.984848 -1.103271
v -0.842608 4.193392 0.264134
v -0.415643 4.046562 0.478941
v -0.226382 3.984848 -1.103271
v -0.145296 4.221332 -1.102795
v -0.764816 4.421134 0.174266
v -0.842608 4.193392 0.264134
v -0.337851 4.274304 0.389072
v -0.764816 4.421134 0.174266
v -0.145296 4.221332 -1.102795
v 0.281669 4.074502 -0.887989
vt 0.353693485 0.568886638
vt 0.340161204 0.568886697
vt 0.340161204 0.595951319
vt 0.353693485 0.595951319
vt 0.340161204 0.514757395
vt 0.353693545 0.514757395
vt 0.353693545 0.392966539
vt 0.340161204 0.392966539
vt 0.286031902 0.392966539
vt 0.25896728 0.392966539
vt 0.25896728 0.514757395
vt 0.286031902 0.514757395
vt 0.25896728 0.636548281
vt 0.272499621 0.636548281
vt 0.272499621 0.514757395
vt 0.25896728 0.514757395
vt 0.177773386 0.514757395
vt 0.204838037 0.514757395
vt 0.204838037 0.392966539
vt 0.177773416 0.392966539
vt 0.353693485 0.595951319
vt 0.340161204 0.595951319
vt 0.340161204 0.62301594
vt 0.353693485 0.62301594
vt 0.191305757 0.636548281
vt 0.204838037 0.636548221
vt 0.204838037 0.514757395
vt 0.191305697 0.514757395
vt 0.313096583 0.514757395
vt 0.286031961 0.514757395
vt 0.286031902 0.636548221
vt 0.313096523 0.636548221
vt 0.123644084 0.636548281
vt 0.137176394 0.636548281
vt 0.137176394 0.514757395
vt 0.123644084 0.514757395
vt 0.286031902 0.514757395
vt 0.313096583 0.514757395
vt 0.313096583 0.392966539
vt 0.286031961 0.392966539
vt 0.367225826 0.541822016
vt 0.353693485 0.541822016
vt 0.353693485 0.568886638
vt 0.367225826 0.568886638
vt 0.218370378 0.514757395
vt 0.204838097 0.514757395
vt 0.204838037 0.636548281
vt 0.218370378 0.636548281
vt 0.177773356 0.514757395
vt 0.150708735 0.514757395
vt 0.150708735 0.636548221
vt 0.177773356 0.636548221
vt 0.177773386 0.636548281
vt 0.191305697 0.636548281
vt 0.191305697 0.514757395
vt 0.177773386 0.514757395
vt 0.177773356 0.392966539
vt 0.150708735 0.392966539
vt 0.150708765 0.514757395
vt 0.177773386 0.514757395
vt 0.353693485 0.541822016
vt 0.340161204 0.541822016
vt 0.340161204 0.568886638
vt 0.353693485 0.568886638
vt 0.231902659 0.636548281
vt 0.245434999 0.636548221
vt 0.245434999 0.514757395
vt 0.231902659 0.514757395
vt 0.340161204 0.392966539
vt 0.313096583 0.392966539
vt 0.313096583 0.514757395
vt 0.340161204 0.514757395
vt 0.313096583 0.636548221
vt 0.326628923 0.636548221
vt 0.326628923 0.514757395
vt 0.313096583 0.514757395
vt 0.150708735 0.392966539
vt 0.123644084 0.392966539
vt 0.123644114 0.514757395
vt 0.150708735 0.514757395
vn -0.254175 0.108738 0.961026
vn -0.254175 0.108738 0.961026
vn -0.254175 0.108738 0.961026
vn -0.254175 0.108738 0.961026
vn 0.960840 0.137880 0.240364
vn 0.960840 0.137880 0.240364
vn 0.960840 0.137880 0.240364
vn 0.960840 0.137880 0.240364
vn 0.179929 -0.960898 -0.210476
vn 0.179929 -0.960898 -0.210476
vn 0.179929 -0.960898 -0.210476
vn 0.179929 -0.960898 -0.210476
vn -0.960841 -0.137879 -0.240364
vn -0.960841 -0.137879 -0.240364
vn -0.960841 -0.137879 -0.240364
vn -0.960841 -0.137879 -0.240364
vn -0.177898 0.963288 0.201067
vn -0.177898 0.963288 0.201067
vn -0.177898 0.963288 0.201067
vn -0.177898 0.963288 0.201067
vn 0.000000 -0.236580 0.971612
vn 0.000000 -0.236580 0.971612
vn 0.000000 -0.236580 0.971612
vn 0.000000 -0.236580 0.971612
vn 1.000000 0.000000 0.000000
vn 1.000000 0.000000 0.000000
vn 1.000000 0.000000 0.000000
vn 1.000000 0.000000 0.000000
vn 0.000000 -1.000000 0.000000
vn 0.000000 -1.000000 0.000000
vn 0.000000 -1.000000 0.000000
vn 0.000000 -1.000000 0.000000
vn -1.000000 0.000000 0.000000
vn -1.000000 0.000000 0.000000
vn -1.000000 0.000000 0.000000
vn -1.000000 0.000000 0.000000
vn 0.000000 1.000000 -0.000000
vn 0.000000 1.000000 -0.000000
vn 0.000000 1.000000 -0.000000
vn 0.000000 1.000000 -0.000000
vn 0.000000 -0.324517 0.945880
vn 0.000000 -0.324517 0.945880
vn 0.000000 -0.324517 0.945880
vn 0.000000 -0.324517 0.945880
vn 1.000000 0.000000 0.000000
vn 1.000000 0.000000 0.000000
vn 1.000000 0.000000 0.000000
vn 1.000000 0.000000 0.000000
vn 0.000000 -1.000000 0.000000
vn 0.000000 -1.000000 0.000000
vn 0.000000 -1.000000 0.000000
vn 0.000000 -1.000000 0.000000
vn -1.000000 0.000000 0.000000
vn -1.000000 0.000000 0.000000
vn -1.000000 0.000000 0.000000
vn -1.000000 0.000000 0.000000
vn 0.000000 1.000000 -0.000000
vn 0.000000 1.000000 -0.000000
vn 0.000000 1.000000 -0.000000
vn 0.000000 1.000000 -0.000000
vn -0.281404 0.433865 0.855905
vn -0.281404 0.433865 0.855905
vn -0.281404 0.433865 0.855905
vn -0.281404 0.433865 0.855905
vn 0.871988 -0.213614 0.440461
vn 0.871988 -0.213614 0.440461
vn 0.871988 -0.213614 0.440461
vn 0.871988 -0.213614 0.440461
vn -0.324344 -0.945937 -0.001901
vn -0.324344 -0.945937 -0.001901
vn -0.324344 -0.945937 -0.001901
vn -0.324344 -0.945937 -0.001901
vn -0.871988 0.213614 -0.440461
vn -0.871988 0.213614 -0.440461
vn -0.871988 0.213614 -0.440461
vn -0.871988 0.213614 -0.440461
vn 0.321636 0.946831 0.007894
vn 0.321636 0.946831 0.007894
vn 0.321636 0.946831 0.007894
vn 0.321636 0.946831 0.007894
f 3/3/3 2/2/2 1/1/1
f 4/4/4 3/3/3 1/1/1
f 7/7/7 6/6/6 5/5/5
f 8/8/8 7/7/7 5/5/5
f 11/11/11 10/10/10 9/9/9
f 12/12/12 11/11/11 9/9/9
f 15/15/15 14/14/14 13/13/13
f 16/16/16 15/15/15 13/13/13
f 19/19/19 18/18/18 17/17/17
f 20/20/20 19/19/19 17/17/17
f 23/23/23 22/22/22 21/21/21
f 24/24/24 23/23/23 21/21/21
f 27/27/27 26/26/26 25/25/25
f 28/28/28 27/27/27 25/25/25
f 31/31/31 30/30/30 29/29/29
f 32/32/32 31/31/31 29/29/29
f 35/35/35 34/34/34 33/33/33
f 36/36/36 35/35/35 33/33/33
f 39/39/39 38/38/38 37/37/37
f 40/40/40 39/39/39 37/37/37
f 43/43/43 42/42/42 41/41/41
f 44/44/44 43/43/43 41/41/41
f 47/47/47 46/46/46 45/45/45
f 48/48/48 47/47/47 45/45/45
f 51/51/51 50/50/50 49/49/49
f 52/52/52 51/51/51 49/49/49
f 55/55/55 54/54/54 53/53/53
f 56/56/56 55/55/55 53/53/53
f 59/59/59 58/58/58 57/57/57
f 60/60/60 59/59/59 57/57/57
f 63/63/63 62/62/62 61/61/61
f 64/64/64 63/63/63 61/61/61
f 67/67/67 66/66/66 65/65/65
f 68/68/68 67/67/67 65/65/65
f 71/71/71 70/70/70 69/69/69
f 72/72/72 71/71/71 69/69/69
f 75/75/75 74/74/74 73/73/73
f 76/76/76 75/75/75 73/73/73
f 79/79/79 78/78/78 77/77/77
f 80/80/80 79/79/79 77/77/77
