g Model_0_Section_1_Alive
v -0.937316656 0.180627301 2.29779434
v -0.925636053 0.0665197074 -0.00434958935
v -0.870450139 -0.125466168 0.00544631481
v -0.882130742 -0.0113585684 2.30759048
v -0.882130742 -0.0113585684 2.30759048
v -0.870450139 -0.125466168 0.00544631481
v -1.06268311 -0.180633381 0.00720536709
v -1.07436371 -0.0665257797 2.30934954
v -1.07436371 -0.0665257797 2.30934954
v -1.06268311 -0.180633381 0.00720536709
v -1.11786914 0.0113524962 -0.00259053707
v -1.12954974 0.125460088 2.29955339
v -1.12954974 0.125460088 2.29955339
v -1.11786914 0.0113524962 -0.00259053707
v -0.925636053 0.0665197074 -0.00434958935
v -0.937316656 0.180627301 2.29779434
v -1.12954974 0.125460088 2.29955339
v -0.937316656 0.180627301 2.29779434
v -0.882130742 -0.0113585684 2.30759048
v -1.07436371 -0.0665257797 2.30934954
vt 0 0
vt 0 0
vt 0 0
vt 0 0
vt 0 0
vt 0 0
vt 0 0
vt 0 0
vt 0 0
vt 0 0
vt 0 0
vt 0 0
vt 0 0
vt 0 0
vt 0 0
vt 0 0
vt 0 0
vt 0 0
vt 0 0
vt 0 0
vn 0.961164474 0.275835812 -0.0087952707
vn 0.961164474 0.275835812 -0.0087952707
vn 0.961164474 0.275835812 -0.0087952707
vn 0.961164474 0.275835812 -0.0087952707
vn 0.27592963 -0.959929049 0.0489796586
vn 0.27592963 -0.959929049 0.0489796586
vn 0.27592963 -0.959929049 0.0489796586
vn 0.27592963 -0.959929049 0.0489796586
vn -0.961164355 -0.275836408 0.0087953005
vn -0.961164355 -0.275836408 0.0087953005
vn -0.961164355 -0.275836408 0.0087953005
vn -0.961164355 -0.275836408 0.0087953005
vn -0.275929451 0.959929168 -0.0489796586
vn -0.275929451 0.959929168 -0.0489796586
vn -0.275929451 0.959929168 -0.0489796586
vn -0.275929451 0.959929168 -0.0489796586
vn -0.00506781135 0.0495053791 0.998760939
vn -0.00506781135 0.0495053791 0.998760939
vn -0.00506781135 0.0495053791 0.998760939
vn -0.00506781135 0.0495053791 0.998760939
g Model_0_Section_1_Alive_0
f 3/3/3 2/2/2 1/1/1
f 4/4/4 3/3/3 1/1/1
f 7/7/7 6/6/6 5/5/5
f 8/8/8 7/7/7 5/5/5
f 11/11/11 10/10/10 9/9/9
f 12/12/12 11/11/11 9/9/9
f 15/15/15 14/14/14 13/13/13
f 16/16/16 15/15/15 13/13/13
f 19/19/19 18/18/18 17/17/17
f 20/20/20 19/19/19 17/17/17
