g Model_0
v 2.6500001 -0.349999994 3.75
v 2.6500001 -0.349999994 0
v 2.6500001 0.349999994 0
v 2.6500001 -0.349999994 3.75
v 2.6500001 0.349999994 3.75
v 2.6500001 0.349999994 3.75
v 2.6500001 0.349999994 0
v 3.3499999 0.349999994 0
v 2.6500001 0.349999994 3.75
v 3.3499999 0.349999994 3.75
v 3.3499999 0.349999994 3.75
v 3.3499999 0.349999994 0
v 3.3499999 -0.349999994 0
v 3.3499999 0.349999994 3.75
v 3.3499999 -0.349999994 3.75
v 3.3499999 -0.349999994 3.75
v 3.3499999 -0.349999994 0
v 2.6500001 -0.349999994 0
v 3.3499999 -0.349999994 3.75
v 2.6500001 -0.349999994 3.75
v -2.65000105 0.349997014 3.75
v -2.65000105 0.349997014 0
v -2.6500001 -0.350001991 0
v -2.65000105 0.349997014 3.75
v -2.6500001 -0.350001991 3.75
v -2.6500001 -0.350001991 3.75
v -2.6500001 -0.350001991 0
v -3.34999895 -0.350003988 0
v -2.6500001 -0.350001991 3.75
v -3.34999895 -0.350003988 3.75
v -3.34999895 -0.350003988 3.75
v -3.34999895 -0.350003988 0
v -3.3499999 0.349996001 0
v -3.34999895 -0.350003988 3.75
v -3.3499999 0.349996001 3.75
v -3.3499999 0.349996001 3.75
v -3.3499999 0.349996001 0
v -2.65000105 0.349997014 0
v -3.3499999 0.349996001 3.75
v -2.65000105 0.349997014 3.75
v 3.3499999 -0.349999994 3.75
v 2.6500001 -0.349999994 3.75
v 2.6500001 0.349999994 3.75
v 3.3499999 0.349999994 3.75
v -3 0.25 3.5
v -3 0.25 0
v 3 0.25 0
v 3 0.25 3.5
v 3 -0.25 3.5
v 3 -0.25 0
v -3 -0.25 0
v -3 -0.25 3.5
v 3 -0.25 3.5
v -3 -0.25 3.5
v -3 0.25 3.5
v 3 0.25 3.5
v -3.3499999 0.349996001 3.75
v -2.65000105 0.349997014 3.75
v -2.6500001 -0.350001991 3.75
v -3.34999895 -0.350003988 3.75
vt 0.815991998 0.220495
vt 0.822526991 0.231316
vt 0.823382974 0.217869997
vt 0.815991998 0.220495
vt 0.812340021 0.224600002
vt 0.812340021 0.224600002
vt 0.823382974 0.217869997
vt 0.810356021 0.216923997
vt 0.812340021 0.224600002
vt 0.816892028 0.227744997
vt 0.816892028 0.227744997
vt 0.810356021 0.216923997
vt 0.809500992 0.23037
vt 0.816892028 0.227744997
vt 0.820544004 0.223638996
vt 0.820544004 0.223638996
vt 0.809500992 0.23037
vt 0.822526991 0.231316
vt 0.820544004 0.223638996
vt 0.815991998 0.220495
vt 0.815128028 0.234070003
vt 0.821663976 0.244892001
vt 0.822519004 0.231445
vt 0.815128028 0.234070003
vt 0.811475992 0.238176003
vt 0.811475992 0.238176003
vt 0.822519004 0.231445
vt 0.809493005 0.230498999
vt 0.811475992 0.238176003
vt 0.816027999 0.241320997
vt 0.816027999 0.241320997
vt 0.809493005 0.230498999
vt 0.808637023 0.243946001
vt 0.816027999 0.241320997
vt 0.819679976 0.237214997
vt 0.819679976 0.237214997
vt 0.808637023 0.243946001
vt 0.821663976 0.244892001
vt 0.819679976 0.237214997
vt 0.815128028 0.234070003
vt 0.820544004 0.223638996
vt 0.815991998 0.220495
vt 0.812340021 0.224600002
vt 0.816892028 0.227744997
vt 0.276769012 0.197649002
vt 0.277635008 0.184028998
vt 0.250396013 0.182297006
vt 0.249529004 0.195916995
vt 0.249312997 0.199322
vt 0.248447001 0.212942004
vt 0.275685996 0.214673996
vt 0.276553005 0.201054007
vt 0.249312997 0.199322
vt 0.276553005 0.201054007
vt 0.276769012 0.197649002
vt 0.249529004 0.195916995
vt 0.819679976 0.237214997
vt 0.815128028 0.234070003
vt 0.811475992 0.238176003
vt 0.816027999 0.241320997
vn -1 0 0
vn -1 0 0
vn -1 0 0
vn -1 0 0
vn -1 0 0
vn -0 1 0
vn -0 1 0
vn -0 1 0
vn -0 1 0
vn -0 1 0
vn 1 0 0
vn 1 0 0
vn 1 0 0
vn 1 0 0
vn 1 0 0
vn -0 -1 0
vn -0 -1 0
vn -0 -1 0
vn -0 -1 0
vn -0 -1 0
vn 1 0 0
vn 1 0 0
vn 1 0 0
vn 1 0 0
vn 1 0 0
vn -0 -1 0
vn -0 -1 0
vn -0 -1 0
vn -0 -1 0
vn -0 -1 0
vn -1 0 0
vn -1 0 0
vn -1 0 0
vn -1 0 0
vn -1 0 0
vn -0 1 0
vn -0 1 0
vn -0 1 0
vn -0 1 0
vn -0 1 0
vn -0 0 1
vn -0 0 1
vn -0 0 1
vn -0 0 1
vn -0 1 0
vn -0 1 0
vn -0 1 0
vn -0 1 0
vn -0 -1 0
vn -0 -1 0
vn -0 -1 0
vn -0 -1 0
vn -0 0 1
vn -0 0 1
vn -0 0 1
vn -0 0 1
vn -0 0 1
vn -0 0 1
vn -0 0 1
vn -0 0 1
g Model_0_0
f 3/3/3 2/2/2 1/1/1
f 5/5/5 3/3/3 4/4/4
f 8/8/8 7/7/7 6/6/6
f 10/10/10 8/8/8 9/9/9
f 13/13/13 12/12/12 11/11/11
f 15/15/15 13/13/13 14/14/14
f 18/18/18 17/17/17 16/16/16
f 20/20/20 18/18/18 19/19/19
f 23/23/23 22/22/22 21/21/21
f 25/25/25 23/23/23 24/24/24
f 28/28/28 27/27/27 26/26/26
f 30/30/30 28/28/28 29/29/29
f 33/33/33 32/32/32 31/31/31
f 35/35/35 33/33/33 34/34/34
f 38/38/38 37/37/37 36/36/36
f 40/40/40 38/38/38 39/39/39
f 43/43/43 42/42/42 41/41/41
f 44/44/44 43/43/43 41/41/41
f 47/47/47 46/46/46 45/45/45
f 48/48/48 47/47/47 45/45/45
f 51/51/51 50/50/50 49/49/49
f 52/52/52 51/51/51 49/49/49
f 55/55/55 54/54/54 53/53/53
f 56/56/56 55/55/55 53/53/53
f 59/59/59 58/58/58 57/57/57
f 60/60/60 59/59/59 57/57/57
