g Fence_0
v -1.71659303 -0.0642850026 -0.0115470001
v -3.00051808 -3.99999999E-06 0
v -3.00051808 -1.99999999E-06 3.30500007
v -1.73854399 0.436129987 3.19567108
v -1.73854399 0.436129987 3.19567108
v -3.00051808 0.399998009 3.70499992
v -2.14651704 0.563208997 3.56635809
v -1.41404295 1.59098601 3.15690708
v -1.73854399 0.436129987 3.19567108
v -1.82201695 1.71806502 3.52759409
v 1.63522601 0.194674999 -0.190036997
v 0.65933001 0.881411016 -0.0615199991
v 0.949958026 0.686457992 3.23535705
v 1.92075396 -0.00189099996 3.07969999
v 3.00051808 1.99999999E-06 0
v 1.92075396 -0.00189099996 3.07969999
v 3.00051808 3.99999999E-06 3.30500007
v 1.92075396 -0.00189099996 3.07969999
v 1.22063696 0.977114975 3.6381619
v 2.191432 0.288765013 3.48250389
v 1.92075396 -0.00189099996 3.07969999
v 3.00051808 0.400003999 3.70499992
v -1.35074306 1.06720304 -0.173978999
v -1.71659303 -0.0642850026 -0.0115470001
v -1.73854399 0.436129987 3.19567108
v -1.41404295 1.59098601 3.15690708
v -1.71659303 -0.0642850026 -0.0115470001
v -1.73854399 0.436129987 3.19567108
v -3.00051808 -1.99999999E-06 3.30500007
v -3.00051808 -3.99999999E-06 0
v -1.73854399 0.436129987 3.19567108
v -3.00051808 0.399998009 3.70499992
v -2.14651704 0.563208997 3.56635809
v -1.41404295 1.59098601 3.15690708
v -1.82201695 1.71806502 3.52759409
v -1.73854399 0.436129987 3.19567108
v 1.63522601 0.194674999 -0.190036997
v 1.92075396 -0.00189099996 3.07969999
v 0.949958026 0.686457992 3.23535705
v 0.65933001 0.881411016 -0.0615199991
v 3.00051808 1.99999999E-06 0
v 1.92075396 -0.00189099996 3.07969999
v 3.00051808 3.99999999E-06 3.30500007
v 1.92075396 -0.00189099996 3.07969999
v 1.22063696 0.977114975 3.6381619
v 2.191432 0.288765013 3.48250389
v 3.00051808 0.400003999 3.70499992
v 1.92075396 -0.00189099996 3.07969999
v -1.35074306 1.06720304 -0.173978999
v -1.41404295 1.59098601 3.15690708
v -1.73854399 0.436129987 3.19567108
v -1.71659303 -0.0642850026 -0.0115470001
vt -2.65242004 3.33966494
vt -4.77685118 3.33966589
vt -4.77685308 -2.51036
vt -2.652421 -2.51036096
vt -2.652421 -2.51036096
vt -4.77685213 -3.51165509
vt -2.652421 -3.51165509
vt -0.527989984 -2.51036191
vt -2.652421 -2.51036096
vt -0.527989984 -3.51165509
vt 3.72087312 3.33966398
vt 1.59644198 3.33966398
vt 1.59644103 -2.5103631
vt 3.72087312 -2.51036406
vt 5.84530401 3.33966398
vt 3.72087312 -2.51036406
vt 5.84530401 -2.51036501
vt 3.72087312 -2.51036406
vt 1.59644198 -3.51165509
vt 3.72087312 -3.51165509
vt 3.72087312 -2.51036406
vt 5.84530401 -3.51165509
vt -0.52798897 3.33966494
vt -2.65242004 3.33966494
vt -2.652421 -2.51036096
vt -0.527989984 -2.51036191
vt -2.65242004 3.33966494
vt -2.652421 -2.51036096
vt -4.77685308 -2.51036
vt -4.77685118 3.33966589
vt -2.652421 -2.51036096
vt -4.77685213 -3.51165509
vt -2.652421 -3.51165509
vt -0.527989984 -2.51036191
vt -0.527989984 -3.51165509
vt -2.652421 -2.51036096
vt 3.72087312 3.33966398
vt 3.72087312 -2.51036406
vt 1.59644103 -2.5103631
vt 1.59644198 3.33966398
vt 5.84530401 3.33966398
vt 3.72087312 -2.51036406
vt 5.84530401 -2.51036501
vt 3.72087312 -2.51036406
vt 1.59644198 -3.51165509
vt 3.72087312 -3.51165509
vt 5.84530401 -3.51165509
vt 3.72087312 -2.51036406
vt -0.52798897 3.33966494
vt -0.527989984 -2.51036191
vt -2.652421 -2.51036096
vt -2.65242004 3.33966494
vn 0.14764908 -0.986094475 0.0762719288
vn 0.14764908 -0.986094475 0.0762719288
vn 0.224551111 -0.898663163 0.376804113
vn 0.224551111 -0.898663163 0.376804113
vn 0.40963158 -0.715554833 0.565847397
vn 0.278127283 -0.717880666 0.63819474
vn 0.486871243 -0.463401139 0.74041599
vn 0.637783051 -0.153877378 0.754688382
vn 0.486871243 -0.463401139 0.74041599
vn 0.637783051 -0.153877378 0.754688382
vn -0.337715745 -0.941160977 -0.0128101967
vn -0.576763093 -0.816909194 0.00189899723
vn -0.495283723 -0.784529626 0.373105139
vn -0.36391899 -0.898920298 0.243937269
vn -0.074083142 -0.996897578 -0.026586825
vn -0.279751599 -0.930689692 0.235702664
vn -0.101812169 -0.932467282 0.346610665
vn -0.372116983 -0.788078606 0.490368366
vn -0.341749787 -0.638015568 0.690031409
vn -0.230066553 -0.691088438 0.685175955
vn -0.191634625 -0.85526824 0.481448084
vn -0.114860237 -0.733578503 0.669828176
vn 0.95713371 -0.283989012 0.0569671988
vn 0.95713371 -0.283989012 0.0569671988
vn 0.95713371 -0.283989012 0.0569671988
vn 0.95713371 -0.283989012 0.0569671988
vn -0.14764908 0.986094475 -0.0762719288
vn -0.224551111 0.898663163 -0.376804113
vn -0.224551111 0.898663163 -0.376804113
vn -0.14764908 0.986094475 -0.0762719288
vn -0.40963158 0.715554833 -0.565847397
vn -0.278127283 0.717880666 -0.63819474
vn -0.486871243 0.463401139 -0.74041599
vn -0.637783051 0.153877378 -0.754688382
vn -0.637783051 0.153877378 -0.754688382
vn -0.486871243 0.463401139 -0.74041599
vn 0.337715745 0.941160977 0.0128101967
vn 0.36391899 0.898920298 -0.243937269
vn 0.495283723 0.784529626 -0.373105139
vn 0.576763093 0.816909194 -0.00189899723
vn 0.074083142 0.996897578 0.026586825
vn 0.279751599 0.930689692 -0.235702664
vn 0.101812169 0.932467282 -0.346610665
vn 0.372116983 0.788078606 -0.490368366
vn 0.341749787 0.638015568 -0.690031409
vn 0.230066553 0.691088438 -0.685175955
vn 0.114860237 0.733578503 -0.669828176
vn 0.191634625 0.85526824 -0.481448084
vn -0.95713371 0.283989012 -0.0569671988
vn -0.95713371 0.283989012 -0.0569671988
vn -0.95713371 0.283989012 -0.0569671988
vn -0.95713371 0.283989012 -0.0569671988
g Fence_0_0
f 3/3/3 2/2/2 1/1/1
f 4/4/4 3/3/3 1/1/1
f 6/6/6 3/3/3 5/5/5
f 7/7/7 6/6/6 5/5/5
f 7/7/7 9/9/9 8/8/8
f 10/10/10 7/7/7 8/8/8
f 13/13/13 12/12/12 11/11/11
f 14/14/14 13/13/13 11/11/11
f 16/16/16 11/11/11 15/15/15
f 17/17/17 16/16/16 15/15/15
f 19/19/19 13/13/13 18/18/18
f 20/20/20 19/19/19 18/18/18
f 20/20/20 21/21/21 17/17/17
f 22/22/22 20/20/20 17/17/17
f 25/25/25 24/24/24 23/23/23
f 26/26/26 25/25/25 23/23/23
f 29/29/29 28/28/28 27/27/27
f 30/30/30 29/29/29 27/27/27
f 29/29/29 32/32/32 31/31/31
f 32/32/32 33/33/33 31/31/31
f 33/33/33 35/35/35 34/34/34
f 36/36/36 33/33/33 34/34/34
f 39/39/39 38/38/38 37/37/37
f 40/40/40 39/39/39 37/37/37
f 37/37/37 42/42/42 41/41/41
f 42/42/42 43/43/43 41/41/41
f 39/39/39 45/45/45 44/44/44
f 45/45/45 46/46/46 44/44/44
f 46/46/46 47/47/47 43/43/43
f 48/48/48 46/46/46 43/43/43
f 51/51/51 50/50/50 49/49/49
f 52/52/52 51/51/51 49/49/49
