v -0.402442 -4.215117 1.239760
v -0.357968 -4.455939 1.189493
v -0.839132 -4.519744 1.069453
v -0.883606 -4.278922 1.119719
v 0.060178 -3.683662 -0.897069
v 0.104653 -3.924484 -0.947336
v -0.357968 -4.455939 1.189493
v -0.402442 -4.215117 1.239760
v 0.104653 -3.924484 -0.947336
v -0.376512 -3.988288 -1.067376
v -0.839132 -4.519744 1.069453
v -0.357968 -4.455939 1.189493
v -0.376512 -3.988288 -1.067376
v -0.420986 -3.747466 -1.017110
v -0.883606 -4.278922 1.119719
v -0.839132 -4.519744 1.069453
v -0.402442 -4.215117 1.239760
v -0.883606 -4.278922 1.119719
v -0.420986 -3.747466 -1.017110
v 0.060178 -3.683662 -0.897069
v 0.250000 -7.875000 1.250000
v 0.250000 -8.125000 1.250000
v -0.250000 -8.125000 1.250000
v -0.250000 -7.875000 1.250000
v 0.250000 -7.875000 -1.000000
v 0.250000 -8.125000 -1.000000
v 0.250000 -8.125000 1.250000
v 0.250000 -7.875000 1.250000
v 0.250000 -8.125000 -1.000000
v -0.250000 -8.125000 -1.000000
v -0.250000 -8.125000 1.250000
v 0.250000 -8.125000 1.250000
v -0.250000 -8.125000 -1.000000
v -0.250000 -7.875000 -1.000000
v -0.250000 -7.875000 1.250000
v -0.250000 -8.125000 1.250000
v 0.250000 -7.875000 1.250000
v -0.250000 -7.875000 1.250000
v -0.250000 -7.875000 -1.000000
v 0.250000 -7.875000 -1.000000
v 0.250000 8.125000 1.250000
v 0.250000 7.875000 1.250000
v -0.250000 7.875000 1.250000
v -0.250000 8.125000 1.250000
v 0.250000 8.125000 -1.000000
v 0.250000 7.875000 -1.000000
v 0.250000 7.875000 1.250000
v 0.250000 8.125000 1.250000
v 0.250000 7.875000 -1.000000
v -0.250000 7.875000 -1.000000
v -0.250000 7.875000 1.250000
v 0.250000 7.875000 1.250000
v -0.250000 7.875000 -1.000000
v -0.250000 8.125000 -1.000000
v -0.250000 8.125000 1.250000
v -0.250000 7.875000 1.250000
v 0.250000 8.125000 1.250000
v -0.250000 8.125000 1.250000
v -0.250000 8.125000 -1.000000
v 0.250000 8.125000 -1.000000
v -0.633957 4.384370 1.143786
v -0.715044 4.147886 1.143311
v -1.142009 4.294716 0.928504
v -1.060923 4.531200 0.928980
v 0.281669 4.074502 -0.887989
v 0.200583 3.838018 -0.888464
v -0.715044 4.147886 1.143311
v -0.633957 4.384370 1.143786
v 0.200583 3.838018 -0.888464
v -0.226382 3.984848 -1.103271
v -1.142009 4.294716 0.928504
v -0.715044 4.147886 1.143311
v -0.226382 3.984848 -1.103271
v -0.145296 4.221332 -1.102795
v -1.060923 4.531200 0.928980
v -1.142009 4.294716 0.928504
v -0.633957 4.384370 1.143786
v -1.060923 4.531200 0.928980
v -0.145296 4.221332 -1.102795
v 0.281669 4.074502 -0.887989
v 0.257703 -8.000000 1.275833
v -0.231673 -2.939239 0.343695
v 0.257704 -8.000000 0.495832
v -0.524204 -2.963056 1.066370
v -1.380709 -2.056323 0.493340
v -0.787021 -2.271853 0.035648
v 0.257703 -8.000000 1.275833
v 0.257704 -8.000000 0.495832
v -0.231673 -2.939239 0.343695
v -0.524204 -2.963056 1.066370
v -1.380709 -2.056323 0.493340
v -0.787021 -2.271853 0.035648
v 0.257704 8.000000 0.495832
v -0.398764 2.932502 0.206030
v -0.754860 2.794063 0.886053
v 0.257703 8.000000 1.275833
v -1.281455 2.075705 0.295986
v -1.494118 1.906393 1.027087
v -0.754860 2.794063 0.886053
v -0.398764 2.932502 0.206030
v 0.257704 8.000000 0.495832
v 0.257703 8.000000 1.275833
v -0.754860 2.794063 0.886053
v -0.398764 2.932502 0.206030
v -1.281455 2.075705 0.295986
v -0.398764 2.932502 0.206030
v -0.754860 2.794063 0.886053
v -1.494118 1.906393 1.027087
vt 0.353693485 0.568886638
vt 0.340161204 0.568886697
vt 0.340161204 0.595951319
vt 0.353693485 0.595951319
vt 0.340161204 0.514757395
vt 0.353693545 0.514757395
vt 0.353693545 0.392966539
vt 0.340161204 0.392966539
vt 0.286031902 0.392966539
vt 0.25896728 0.392966539
vt 0.25896728 0.514757395
vt 0.286031902 0.514757395
vt 0.25896728 0.636548281
vt 0.272499621 0.636548281
vt 0.272499621 0.514757395
vt 0.25896728 0.514757395
vt 0.177773386 0.514757395
vt 0.204838037 0.514757395
vt 0.204838037 0.392966539
vt 0.177773416 0.392966539
vt 0.353693485 0.595951319
vt 0.340161204 0.595951319
vt 0.340161204 0.62301594
vt 0.353693485 0.62301594
vt 0.191305757 0.636548281
vt 0.204838037 0.636548221
vt 0.204838037 0.514757395
vt 0.191305697 0.514757395
vt 0.313096583 0.514757395
vt 0.286031961 0.514757395
vt 0.286031902 0.636548221
vt 0.313096523 0.636548221
vt 0.123644084 0.636548281
vt 0.137176394 0.636548281
vt 0.137176394 0.514757395
vt 0.123644084 0.514757395
vt 0.286031902 0.514757395
vt 0.313096583 0.514757395
vt 0.313096583 0.392966539
vt 0.286031961 0.392966539
vt 0.367225826 0.541822016
vt 0.353693485 0.541822016
vt 0.353693485 0.568886638
vt 0.367225826 0.568886638
vt 0.218370378 0.514757395
vt 0.204838097 0.514757395
vt 0.204838037 0.636548281
vt 0.218370378 0.636548281
vt 0.177773356 0.514757395
vt 0.150708735 0.514757395
vt 0.150708735 0.636548221
vt 0.177773356 0.636548221
vt 0.177773386 0.636548281
vt 0.191305697 0.636548281
vt 0.191305697 0.514757395
vt 0.177773386 0.514757395
vt 0.177773356 0.392966539
vt 0.150708735 0.392966539
vt 0.150708765 0.514757395
vt 0.177773386 0.514757395
vt 0.353693485 0.541822016
vt 0.340161204 0.541822016
vt 0.340161204 0.568886638
vt 0.353693485 0.568886638
vt 0.231902659 0.636548281
vt 0.245434999 0.636548221
vt 0.245434999 0.514757395
vt 0.231902659 0.514757395
vt 0.340161204 0.392966539
vt 0.313096583 0.392966539
vt 0.313096583 0.514757395
vt 0.340161204 0.514757395
vt 0.313096583 0.636548221
vt 0.326628923 0.636548221
vt 0.326628923 0.514757395
vt 0.313096583 0.514757395
vt 0.150708735 0.392966539
vt 0.123644084 0.392966539
vt 0.123644114 0.514757395
vt 0.150708735 0.514757395
vt 0.665827692 0.385903358
vt 0.710732639 0.657808781
vt 0.723086238 0.385561049
vt 0.653493345 0.652579308
vt 0.680132091 0.68999666
vt 0.723086238 0.686484933
vt 0.596234739 0.689654469
vt 0.653493345 0.689996719
vt 0.641139686 0.417748958
vt 0.583900332 0.422978401
vt 0.610539079 0.385561049
vt 0.653493285 0.389072746
vt 0.723086238 0.389268428
vt 0.724372625 0.679446936
vt 0.780139446 0.688691795
vt 0.780139446 0.385561049
vt 0.837192595 0.529782474
vt 0.888336062 0.551299214
vt 0.888336062 0.490059853
vt 0.838826835 0.468430132
vt 0.780139446 0.684984505
vt 0.837192595 0.688691795
vt 0.837192535 0.385561049
vt 0.781425714 0.394805908
vt 0.837192595 0.407077789
vt 0.838826835 0.468430132
vt 0.888336062 0.44680047
vt 0.888336062 0.385561049
vn -0.205609 -0.236202 0.949702
vn -0.205609 -0.236202 0.949702
vn -0.205609 -0.236202 0.949702
vn -0.205609 -0.236202 0.949702
vn 0.962329 0.127609 0.240081
vn 0.962329 0.127609 0.240081
vn 0.962329 0.127609 0.240081
vn 0.962329 0.127609 0.240081
vn 0.177899 -0.963288 -0.201067
vn 0.177899 -0.963288 -0.201067
vn 0.177899 -0.963288 -0.201067
vn 0.177899 -0.963288 -0.201067
vn -0.962329 -0.127609 -0.240081
vn -0.962329 -0.127609 -0.240081
vn -0.962329 -0.127609 -0.240081
vn -0.962329 -0.127609 -0.240081
vn -0.177898 0.963288 0.201067
vn -0.177898 0.963288 0.201067
vn -0.177898 0.963288 0.201067
vn -0.177898 0.963288 0.201067
vn 0.000000 0.000000 1.000000
vn 0.000000 0.000000 1.000000
vn 0.000000 0.000000 1.000000
vn 0.000000 0.000000 1.000000
vn 1.000000 0.000000 0.000000
vn 1.000000 0.000000 0.000000
vn 1.000000 0.000000 0.000000
vn 1.000000 0.000000 0.000000
vn 0.000000 -1.000000 0.000000
vn 0.000000 -1.000000 0.000000
vn 0.000000 -1.000000 0.000000
vn 0.000000 -1.000000 0.000000
vn -1.000000 0.000000 0.000000
vn -1.000000 0.000000 0.000000
vn -1.000000 0.000000 0.000000
vn -1.000000 0.000000 0.000000
vn 0.000000 1.000000 -0.000000
vn 0.000000 1.000000 -0.000000
vn 0.000000 1.000000 -0.000000
vn 0.000000 1.000000 -0.000000
vn 0.000000 0.000000 1.000000
vn 0.000000 0.000000 1.000000
vn 0.000000 0.000000 1.000000
vn 0.000000 0.000000 1.000000
vn 1.000000 0.000000 0.000000
vn 1.000000 0.000000 0.000000
vn 1.000000 0.000000 0.000000
vn 1.000000 0.000000 0.000000
vn 0.000000 -1.000000 0.000000
vn 0.000000 -1.000000 0.000000
vn 0.000000 -1.000000 0.000000
vn 0.000000 -1.000000 0.000000
vn -1.000000 0.000000 0.000000
vn -1.000000 0.000000 0.000000
vn -1.000000 0.000000 0.000000
vn -1.000000 0.000000 0.000000
vn 0.000000 1.000000 -0.000000
vn 0.000000 1.000000 -0.000000
vn 0.000000 1.000000 -0.000000
vn 0.000000 1.000000 -0.000000
vn -0.406945 0.137719 0.903011
vn -0.406945 0.137719 0.903011
vn -0.406945 0.137719 0.903011
vn -0.406945 0.137719 0.903011
vn 0.853930 -0.293660 0.429613
vn 0.853930 -0.293660 0.429613
vn 0.853930 -0.293660 0.429613
vn 0.853930 -0.293660 0.429613
vn -0.324344 -0.945937 -0.001901
vn -0.324344 -0.945937 -0.001901
vn -0.324344 -0.945937 -0.001901
vn -0.324344 -0.945937 -0.001901
vn -0.853930 0.293660 -0.429613
vn -0.853930 0.293660 -0.429613
vn -0.853930 0.293660 -0.429613
vn -0.853930 0.293660 -0.429613
vn 0.324344 0.945937 0.001901
vn 0.324344 0.945937 0.001901
vn 0.324344 0.945937 0.001901
vn 0.324344 0.945937 0.001901
vn 0.972941 0.129348 0.191456
vn 0.843212 0.458166 0.281208
vn 0.972941 0.129348 0.191456
vn 0.843212 0.458166 0.281208
vn 0.601331 0.726045 0.333557
vn 0.601331 0.726045 0.333557
vn -0.972941 -0.129348 -0.191456
vn -0.972941 -0.129348 -0.191456
vn -0.843212 -0.458166 -0.281208
vn -0.843212 -0.458166 -0.281208
vn -0.601331 -0.726045 -0.333557
vn -0.601331 -0.726045 -0.333557
vn 0.960890 -0.170540 0.218188
vn 0.880784 -0.432821 0.192053
vn 0.880784 -0.432821 0.192053
vn 0.960890 -0.170540 0.218188
vn 0.733834 -0.662255 0.151344
vn 0.733834 -0.662255 0.151344
vn 0.880784 -0.432821 0.192053
vn 0.880784 -0.432821 0.192053
vn -0.960890 0.170540 -0.218188
vn -0.960890 0.170540 -0.218188
vn -0.880784 0.432821 -0.192053
vn -0.880784 0.432821 -0.192053
vn -0.733834 0.662255 -0.151344
vn -0.880784 0.432821 -0.192053
vn -0.880784 0.432821 -0.192053
vn -0.733834 0.662255 -0.151344
f 3/3/3 2/2/2 1/1/1
f 4/4/4 3/3/3 1/1/1
f 7/7/7 6/6/6 5/5/5
f 8/8/8 7/7/7 5/5/5
f 11/11/11 10/10/10 9/9/9
f 12/12/12 11/11/11 9/9/9
f 15/15/15 14/14/14 13/13/13
f 16/16/16 15/15/15 13/13/13
f 19/19/19 18/18/18 17/17/17
f 20/20/20 19/19/19 17/17/17
f 23/23/23 22/22/22 21/21/21
f 24/24/24 23/23/23 21/21/21
f 27/27/27 26/26/26 25/25/25
f 28/28/28 27/27/27 25/25/25
f 31/31/31 30/30/30 29/29/29
f 32/32/32 31/31/31 29/29/29
f 35/35/35 34/34/34 33/33/33
f 36/36/36 35/35/35 33/33/33
f 39/39/39 38/38/38 37/37/37
f 40/40/40 39/39/39 37/37/37
f 43/43/43 42/42/42 41/41/41
f 44/44/44 43/43/43 41/41/41
f 47/47/47 46/46/46 45/45/45
f 48/48/48 47/47/47 45/45/45
f 51/51/51 50/50/50 49/49/49
f 52/52/52 51/51/51 49/49/49
f 55/55/55 54/54/54 53/53/53
f 56/56/56 55/55/55 53/53/53
f 59/59/59 58/58/58 57/57/57
f 60/60/60 59/59/59 57/57/57
f 63/63/63 62/62/62 61/61/61
f 64/64/64 63/63/63 61/61/61
f 67/67/67 66/66/66 65/65/65
f 68/68/68 67/67/67 65/65/65
f 71/71/71 70/70/70 69/69/69
f 72/72/72 71/71/71 69/69/69
f 75/75/75 74/74/74 73/73/73
f 76/76/76 75/75/75 73/73/73
f 79/79/79 78/78/78 77/77/77
f 80/80/80 79/79/79 77/77/77
f 83/83/83 82/82/82 81/81/81
f 82/82/82 84/84/84 81/81/81
f 85/85/85 84/84/84 82/82/82
f 86/86/86 85/85/85 82/82/82
f 89/89/89 88/88/88 87/87/87
f 90/90/90 89/89/89 87/87/87
f 90/90/90 91/91/91 89/89/89
f 91/91/91 92/92/92 89/89/89
f 95/95/95 94/94/94 93/93/93
f 96/96/96 95/95/95 93/93/93
f 99/99/99 98/98/98 97/97/97
f 100/100/100 99/99/99 97/97/97
f 103/103/103 102/102/102 101/101/101
f 104/104/104 103/103/103 101/101/101
f 107/107/107 106/106/106 105/105/105
f 108/108/108 107/107/107 105/105/105
