g Model_0_Segment_1_Alive
v 0.250000 8.125000 1.250000
v 0.250000 7.875000 1.250000
v -0.250000 7.875000 1.250000
v -0.250000 8.125000 1.250000
v 0.250000 8.125000 -1.000000
v 0.250000 7.875000 -1.000000
v 0.250000 7.875000 1.250000
v 0.250000 8.125000 1.250000
v 0.250000 7.875000 -1.000000
v -0.250000 7.875000 -1.000000
v -0.250000 7.875000 1.250000
v 0.250000 7.875000 1.250000
v -0.250000 7.875000 -1.000000
v -0.250000 8.125000 -1.000000
v -0.250000 8.125000 1.250000
v -0.250000 7.875000 1.250000
v 0.250000 8.125000 1.250000
v -0.250000 8.125000 1.250000
v -0.250000 8.125000 -1.000000
v 0.250000 8.125000 -1.000000
v -0.633957 4.384370 1.143786
v -0.715044 4.147886 1.143311
v -1.142009 4.294716 0.928504
v -1.060923 4.531200 0.928980
v 0.281669 4.074502 -0.887989
v 0.200583 3.838018 -0.888464
v -0.715044 4.147886 1.143311
v -0.633957 4.384370 1.143786
v 0.200583 3.838018 -0.888464
v -0.226382 3.984848 -1.103271
v -1.142009 4.294716 0.928504
v -0.715044 4.147886 1.143311
v -0.226382 3.984848 -1.103271
v -0.145296 4.221332 -1.102795
v -1.060923 4.531200 0.928980
v -1.142009 4.294716 0.928504
v -0.633957 4.384370 1.143786
v -1.060923 4.531200 0.928980
v -0.145296 4.221332 -1.102795
v 0.281669 4.074502 -0.887989
vt 0.367225826 0.541822016
vt 0.353693485 0.541822016
vt 0.353693485 0.568886638
vt 0.367225826 0.568886638
vt 0.218370378 0.514757395
vt 0.204838097 0.514757395
vt 0.204838037 0.636548281
vt 0.218370378 0.636548281
vt 0.177773356 0.514757395
vt 0.150708735 0.514757395
vt 0.150708735 0.636548221
vt 0.177773356 0.636548221
vt 0.177773386 0.636548281
vt 0.191305697 0.636548281
vt 0.191305697 0.514757395
vt 0.177773386 0.514757395
vt 0.177773356 0.392966539
vt 0.150708735 0.392966539
vt 0.150708765 0.514757395
vt 0.177773386 0.514757395
vt 0.353693485 0.541822016
vt 0.340161204 0.541822016
vt 0.340161204 0.568886638
vt 0.353693485 0.568886638
vt 0.231902659 0.636548281
vt 0.245434999 0.636548221
vt 0.245434999 0.514757395
vt 0.231902659 0.514757395
vt 0.340161204 0.392966539
vt 0.313096583 0.392966539
vt 0.313096583 0.514757395
vt 0.340161204 0.514757395
vt 0.313096583 0.636548221
vt 0.326628923 0.636548221
vt 0.326628923 0.514757395
vt 0.313096583 0.514757395
vt 0.150708735 0.392966539
vt 0.123644084 0.392966539
vt 0.123644114 0.514757395
vt 0.150708735 0.514757395
vn 0.000000 0.000000 1.000000
vn 0.000000 0.000000 1.000000
vn 0.000000 0.000000 1.000000
vn 0.000000 0.000000 1.000000
vn 1.000000 0.000000 0.000000
vn 1.000000 0.000000 0.000000
vn 1.000000 0.000000 0.000000
vn 1.000000 0.000000 0.000000
vn 0.000000 -1.000000 0.000000
vn 0.000000 -1.000000 0.000000
vn 0.000000 -1.000000 0.000000
vn 0.000000 -1.000000 0.000000
vn -1.000000 0.000000 0.000000
vn -1.000000 0.000000 0.000000
vn -1.000000 0.000000 0.000000
vn -1.000000 0.000000 0.000000
vn 0.000000 1.000000 0.000000
vn 0.000000 1.000000 0.000000
vn 0.000000 1.000000 0.000000
vn 0.000000 1.000000 0.000000
vn -0.406945 0.137719 0.903011
vn -0.406945 0.137719 0.903011
vn -0.406945 0.137719 0.903011
vn -0.406945 0.137719 0.903011
vn 0.853930 -0.293660 0.429613
vn 0.853930 -0.293660 0.429613
vn 0.853930 -0.293660 0.429613
vn 0.853930 -0.293660 0.429613
vn -0.324344 -0.945937 -0.001901
vn -0.324344 -0.945937 -0.001901
vn -0.324344 -0.945937 -0.001901
vn -0.324344 -0.945937 -0.001901
vn -0.853930 0.293660 -0.429613
vn -0.853930 0.293660 -0.429613
vn -0.853930 0.293660 -0.429613
vn -0.853930 0.293660 -0.429613
vn 0.324344 0.945937 0.001901
vn 0.324344 0.945937 0.001901
vn 0.324344 0.945937 0.001901
vn 0.324344 0.945937 0.001901
g Model_0_Segment_1_Alive_0
f 3/3/3 2/2/2 1/1/1
f 4/4/4 3/3/3 1/1/1
f 7/7/7 6/6/6 5/5/5
f 8/8/8 7/7/7 5/5/5
f 11/11/11 10/10/10 9/9/9
f 12/12/12 11/11/11 9/9/9
f 15/15/15 14/14/14 13/13/13
f 16/16/16 15/15/15 13/13/13
f 19/19/19 18/18/18 17/17/17
f 20/20/20 19/19/19 17/17/17
f 23/23/23 22/22/22 21/21/21
f 24/24/24 23/23/23 21/21/21
f 27/27/27 26/26/26 25/25/25
f 28/28/28 27/27/27 25/25/25
f 31/31/31 30/30/30 29/29/29
f 32/32/32 31/31/31 29/29/29
f 35/35/35 34/34/34 33/33/33
f 36/36/36 35/35/35 33/33/33
f 39/39/39 38/38/38 37/37/37
f 40/40/40 39/39/39 37/37/37