g Model_0
v 1.64999998 -0.349999994 2.25
v 1.64999998 -0.349999994 0
v 1.64999998 0.349999994 0
v 1.64999998 -0.349999994 2.25
v 1.64999998 0.349999994 0
v 1.64999998 0.349999994 2.25
v 1.64999998 0.349999994 2.25
v 1.64999998 0.349999994 0
v 2.3499999 0.349999994 0
v 1.64999998 0.349999994 2.25
v 2.3499999 0.349999994 0
v 2.3499999 0.349999994 2.25
v 2.3499999 0.349999994 2.25
v 2.3499999 0.349999994 0
v 2.3499999 -0.349999994 0
v 2.3499999 0.349999994 2.25
v 2.3499999 -0.349999994 0
v 2.3499999 -0.349999994 2.25
v 2.3499999 -0.349999994 2.25
v 2.3499999 -0.349999994 0
v 1.64999998 -0.349999994 0
v 2.3499999 -0.349999994 2.25
v 1.64999998 -0.349999994 0
v 1.64999998 -0.349999994 2.25
v -1.64999998 0.349997014 2.25
v -1.64999998 0.349997014 0
v -1.64999902 -0.350001991 0
v -1.64999998 0.349997014 2.25
v -1.64999902 -0.350001991 0
v -1.64999902 -0.350001991 2.25
v -1.64999902 -0.350001991 2.25
v -1.64999902 -0.350001991 0
v -2.34999895 -0.350003988 0
v -1.64999902 -0.350001991 2.25
v -2.34999895 -0.350003988 0
v -2.34999895 -0.350003988 2.25
v -2.34999895 -0.350003988 2.25
v -2.34999895 -0.350003988 0
v -2.3499999 0.349996001 0
v -2.34999895 -0.350003988 2.25
v -2.3499999 0.349996001 0
v -2.3499999 0.349996001 2.25
v -2.3499999 0.349996001 2.25
v -2.3499999 0.349996001 0
v -1.64999998 0.349997014 0
v -2.3499999 0.349996001 2.25
v -1.64999998 0.349997014 0
v -1.64999998 0.349997014 2.25
v 2.3499999 -0.349999994 2.25
v 1.64999998 -0.349999994 2.25
v 1.64999998 0.349999994 2.25
v 2.3499999 0.349999994 2.25
v -2 0.25 2
v -2 0.25 0
v 2 0.25 0
v 2 0.25 2
v 2 -0.25 2
v 2 -0.25 0
v -2 -0.25 0
v -2 -0.25 2
v 2 -0.25 2
v -2 -0.25 2
v -2 0.25 2
v 2 0.25 2
v -2.3499999 0.349996001 2.25
v -1.64999998 0.349997014 2.25
v -1.64999902 -0.350001991 2.25
v -2.34999895 -0.350003988 2.25
vt 0.256083012 0.227987006
vt 0.248873994 0.217602998
vt 0.248873994 0.231076002
vt 0.256083012 0.227987006
vt 0.248873994 0.231076002
vt 0.259467006 0.223657995
vt 0.259467006 0.223657995
vt 0.248873994 0.231076002
vt 0.261934012 0.231194004
vt 0.259467006 0.223657995
vt 0.261934012 0.231194004
vt 0.254725009 0.220808998
vt 0.254725009 0.220808998
vt 0.261934012 0.231194004
vt 0.261934012 0.217720002
vt 0.254725009 0.220808998
vt 0.261934012 0.217720002
vt 0.251340985 0.225137994
vt 0.251340985 0.225137994
vt 0.261934012 0.217720002
vt 0.248873994 0.217602998
vt 0.251340985 0.225137994
vt 0.248873994 0.217602998
vt 0.256083012 0.227987006
vt 0.256083012 0.214384004
vt 0.248873994 0.203998998
vt 0.248873994 0.217473
vt 0.256083012 0.214384004
vt 0.248873994 0.217473
vt 0.259467006 0.210054994
vt 0.259467006 0.210054994
vt 0.248873994 0.217473
vt 0.261934012 0.217591003
vt 0.259467006 0.210054994
vt 0.261934012 0.217591003
vt 0.254725009 0.207205996
vt 0.254725009 0.207205996
vt 0.261934012 0.217591003
vt 0.261934012 0.204117
vt 0.254725009 0.207205996
vt 0.261934012 0.204117
vt 0.251340985 0.211535007
vt 0.251340985 0.211535007
vt 0.261934012 0.204117
vt 0.248873994 0.203998998
vt 0.251340985 0.211535007
vt 0.248873994 0.203998998
vt 0.256083012 0.214384004
vt 0.251340985 0.225137994
vt 0.256083012 0.227987006
vt 0.259467006 0.223657995
vt 0.254725009 0.220808998
vt 0.795668006 0.216560006
vt 0.795668006 0.230206996
vt 0.822962999 0.230206996
vt 0.822962999 0.216560006
vt 0.822962999 0.213147998
vt 0.822962999 0.199499995
vt 0.795668006 0.199499995
vt 0.795668006 0.213147998
vt 0.822962999 0.213147998
vt 0.795668006 0.213147998
vt 0.795668006 0.216560006
vt 0.822962999 0.216560006
vt 0.251340985 0.211535007
vt 0.256083012 0.214384004
vt 0.259467006 0.210054994
vt 0.254725009 0.207205996
vn -1 0 0
vn -1 0 0
vn -1 0 0
vn -1 0 0
vn -1 0 0
vn -1 0 0
vn -0 1 0
vn -0 1 0
vn -0 1 0
vn -0 1 0
vn -0 1 0
vn -0 1 0
vn 1 0 0
vn 1 0 0
vn 1 0 0
vn 1 0 0
vn 1 0 0
vn 1 0 0
vn -0 -1 0
vn -0 -1 0
vn -0 -1 0
vn -0 -1 0
vn -0 -1 0
vn -0 -1 0
vn 1 0 0
vn 1 0 0
vn 1 0 0
vn 1 0 0
vn 1 0 0
vn 1 0 0
vn -0 -1 0
vn -0 -1 0
vn -0 -1 0
vn -0 -1 0
vn -0 -1 0
vn -0 -1 0
vn -1 0 0
vn -1 0 0
vn -1 0 0
vn -1 0 0
vn -1 0 0
vn -1 0 0
vn -0 1 0
vn -0 1 0
vn -0 1 0
vn -0 1 0
vn -0 1 0
vn -0 1 0
vn -0 0 1
vn -0 0 1
vn -0 0 1
vn -0 0 1
vn -0 1 0
vn -0 1 0
vn -0 1 0
vn -0 1 0
vn -0 -1 0
vn -0 -1 0
vn -0 -1 0
vn -0 -1 0
vn -0 0 1
vn -0 0 1
vn -0 0 1
vn -0 0 1
vn -0 0 1
vn -0 0 1
vn -0 0 1
vn -0 0 1
g Model_0_0
f 3/3/3 2/2/2 1/1/1
f 6/6/6 5/5/5 4/4/4
f 9/9/9 8/8/8 7/7/7
f 12/12/12 11/11/11 10/10/10
f 15/15/15 14/14/14 13/13/13
f 18/18/18 17/17/17 16/16/16
f 21/21/21 20/20/20 19/19/19
f 24/24/24 23/23/23 22/22/22
f 27/27/27 26/26/26 25/25/25
f 30/30/30 29/29/29 28/28/28
f 33/33/33 32/32/32 31/31/31
f 36/36/36 35/35/35 34/34/34
f 39/39/39 38/38/38 37/37/37
f 42/42/42 41/41/41 40/40/40
f 45/45/45 44/44/44 43/43/43
f 48/48/48 47/47/47 46/46/46
f 51/51/51 50/50/50 49/49/49
f 52/52/52 51/51/51 49/49/49
f 55/55/55 54/54/54 53/53/53
f 56/56/56 55/55/55 53/53/53
f 59/59/59 58/58/58 57/57/57
f 60/60/60 59/59/59 57/57/57
f 63/63/63 62/62/62 61/61/61
f 64/64/64 63/63/63 61/61/61
f 67/67/67 66/66/66 65/65/65
f 68/68/68 67/67/67 65/65/65
