v -0.100000 -0.100000 2.305000
v -0.100000 -0.100000 -0.005000
v -0.100000 0.100000 -0.005000
v -0.100000 0.100000 2.305000
v -0.100000 0.100000 2.305000
v -0.100000 0.100000 -0.005000
v 0.100000 0.100000 -0.005000
v 0.100000 0.100000 2.305000
v 0.100000 0.100000 2.305000
v 0.100000 0.100000 -0.005000
v 0.100000 -0.100000 -0.005000
v 0.100000 -0.100000 2.305000
v 0.100000 -0.100000 2.305000
v 0.100000 -0.100000 -0.005000
v -0.100000 -0.100000 -0.005000
v -0.100000 -0.100000 2.305000
v 0.100000 -0.100000 2.305000
v -0.100000 -0.100000 2.305000
v -0.100000 0.100000 2.305000
v 0.100000 0.100000 2.305000
v 0.000000 0.087500 0.682500
v 0.000000 0.087500 0.407500
v 2.000000 0.087500 0.407500
v 2.000000 0.087500 0.682500
v 1.900000 -0.100000 2.305000
v 1.900000 -0.100000 -0.005000
v 1.900000 0.100000 -0.005000
v 1.900000 0.100000 2.305000
v 1.900000 0.100000 2.305000
v 1.900000 0.100000 -0.005000
v 2.100000 0.100000 -0.005000
v 2.100000 0.100000 2.305000
v 2.100000 0.100000 2.305000
v 2.100000 0.100000 -0.005000
v 2.100000 -0.100000 -0.005000
v 2.100000 -0.100000 2.305000
v 2.100000 -0.100000 2.305000
v 2.100000 -0.100000 -0.005000
v 1.900000 -0.100000 -0.005000
v 1.900000 -0.100000 2.305000
v 2.100000 -0.100000 2.305000
v 1.900000 -0.100000 2.305000
v 1.900000 0.100000 2.305000
v 2.100000 0.100000 2.305000
v 0.000000 0.087500 1.782500
v 0.000000 0.087500 1.507500
v 2.000000 0.087500 1.507500
v 2.000000 0.087500 1.782500
v 2.000001 0.050000 2.141169
v 0.000000 0.050000 2.141169
v 0.000000 0.050000 -0.005000
v 2.000000 0.050000 -0.005000
v 2.000000 -0.050000 -0.005000
v 0.000000 -0.050000 -0.005000
v -0.000001 -0.050000 2.141169
v 1.999999 -0.050000 2.141169
v 2.000001 0.050000 2.141169
v 1.999999 -0.050000 2.141169
v -0.000001 -0.050000 2.141169
v 0.000000 0.050000 2.141169
v 0.000000 0.050000 2.141169
v -0.000001 -0.050000 2.141169
v -2.000001 -0.050000 2.141169
v -2.000000 0.050000 2.141169
v 0.000000 -0.050000 -0.005000
v -2.000000 -0.050000 -0.005000
v -2.000001 -0.050000 2.141169
v -0.000001 -0.050000 2.141169
v 0.000000 0.050000 2.141169
v -2.000000 0.050000 2.141169
v -1.999999 0.050000 -0.005000
v 0.000000 0.050000 -0.005000
v -2.000000 0.087500 0.682500
v -2.000000 0.087500 0.407500
v 0.000000 0.087500 0.407500
v 0.000000 0.087500 0.682500
v -2.100000 -0.100000 2.305000
v -2.100000 -0.100000 -0.005000
v -2.100000 0.100000 -0.005000
v -2.100000 0.100000 2.305000
v -2.100000 0.100000 2.305000
v -2.100000 0.100000 -0.005000
v -1.900000 0.100000 -0.005000
v -1.900000 0.100000 2.305000
v -1.900000 0.100000 2.305000
v -1.900000 0.100000 -0.005000
v -1.900000 -0.100000 -0.005000
v -1.900000 -0.100000 2.305000
v -1.900000 -0.100000 2.305000
v -1.900000 -0.100000 -0.005000
v -2.100000 -0.100000 -0.005000
v -2.100000 -0.100000 2.305000
v -1.900000 -0.100000 2.305000
v -2.100000 -0.100000 2.305000
v -2.100000 0.100000 2.305000
v -1.900000 0.100000 2.305000
v -2.000000 0.087500 1.782500
v -2.000000 0.087500 1.507500
v 0.000000 0.087500 1.507500
v 0.000000 0.087500 1.782500
vt 0.16946125 0.540631592
vt 0.16946125 0.482980192
vt 0.164150715 0.482980192
vt 0.164150715 0.540631592
vt 0.185393021 0.540631592
vt 0.185393021 0.482980192
vt 0.180082411 0.482980192
vt 0.180082411 0.540631592
vt 0.133614868 0.535140991
vt 0.133614868 0.592792392
vt 0.138925403 0.592792392
vt 0.138925403 0.535140991
vt 0.101087496 0.592792392
vt 0.101087496 0.535140991
vt 0.0957768783 0.535140991
vt 0.0957768783 0.592792392
vt 0.0433348827 0.546122193
vt 0.038024269 0.546122193
vt 0.038024269 0.551612854
vt 0.0433348827 0.551612854
vt 0.37530455 0.534164429
vt 0.368592322 0.534164429
vt 0.368592322 0.590521455
vt 0.37530458 0.590521455
vt 0.157641381 0.532941997
vt 0.157641381 0.492189765
vt 0.15394336 0.492189765
vt 0.15394336 0.532941997
vt 0.150245368 0.451437473
vt 0.150245368 0.492189765
vt 0.15394336 0.492189765
vt 0.15394336 0.451437473
vt 0.165037394 0.492189765
vt 0.165037394 0.451437473
vt 0.161339402 0.451437473
vt 0.161339402 0.492189765
vt 0.14100033 0.569813132
vt 0.14100033 0.529060841
vt 0.137302309 0.529060841
vt 0.137302309 0.569813132
vt 0.0670007914 0.529060841
vt 0.0633027852 0.529060841
vt 0.0633027852 0.532941997
vt 0.0670007914 0.532941997
vt 0.37530458 0.534164429
vt 0.382016718 0.534164429
vt 0.382016718 0.477807432
vt 0.37530458 0.477807432
vt 0.659469366 0.51926446
vt 0.659469366 0.483399034
vt 0.626132667 0.483399063
vt 0.626132667 0.51926446
vt 0.626132667 0.51926446
vt 0.626132667 0.483399034
vt 0.592796028 0.483399034
vt 0.592796028 0.5192644
vt 0.693642318 0.51926446
vt 0.695350945 0.5192644
vt 0.695350945 0.483399034
vt 0.693642318 0.483399063
vt 0.693642318 0.483399063
vt 0.695350945 0.483399034
vt 0.695350945 0.447533637
vt 0.693642318 0.447533667
vt 0.626132667 0.483399034
vt 0.626132667 0.447533637
vt 0.592796028 0.447533637
vt 0.592796028 0.483399034
vt 0.659469366 0.483399034
vt 0.659469366 0.447533637
vt 0.626132667 0.447533667
vt 0.626132667 0.483399063
vt 0.37530452 0.477807432
vt 0.368592292 0.477807432
vt 0.368592322 0.534164429
vt 0.37530455 0.534164429
vt 0.157641381 0.492189765
vt 0.157641381 0.451437473
vt 0.15394336 0.451437473
vt 0.15394336 0.492189765
vt 0.144698322 0.569813132
vt 0.144698307 0.529060841
vt 0.14100033 0.529060841
vt 0.14100033 0.569813132
vt 0.165037394 0.532941997
vt 0.165037394 0.492189765
vt 0.161339402 0.492189765
vt 0.161339402 0.532941997
vt 0.165037394 0.492189765
vt 0.165037394 0.532941997
vt 0.1687354 0.532941997
vt 0.1687354 0.492189765
vt 0.0919820219 0.529060841
vt 0.0882840157 0.529060841
vt 0.0882840157 0.532941997
vt 0.0919820219 0.532941997
vt 0.37530458 0.590521455
vt 0.382016718 0.590521455
vt 0.382016718 0.534164429
vt 0.37530458 0.534164429
vn -1.000000 0.000000 0.000000
vn -1.000000 0.000000 0.000000
vn -1.000000 0.000000 0.000000
vn -1.000000 0.000000 0.000000
vn 0.000000 1.000000 -0.000000
vn 0.000000 1.000000 -0.000000
vn 0.000000 1.000000 -0.000000
vn 0.000000 1.000000 -0.000000
vn 1.000000 0.000000 0.000000
vn 1.000000 0.000000 0.000000
vn 1.000000 0.000000 0.000000
vn 1.000000 0.000000 0.000000
vn 0.000000 -1.000000 0.000000
vn 0.000000 -1.000000 0.000000
vn 0.000000 -1.000000 0.000000
vn 0.000000 -1.000000 0.000000
vn 0.000000 0.000000 1.000000
vn 0.000000 0.000000 1.000000
vn 0.000000 0.000000 1.000000
vn 0.000000 0.000000 1.000000
vn 0.000000 1.000000 -0.000000
vn 0.000000 1.000000 -0.000000
vn 0.000000 1.000000 -0.000000
vn 0.000000 1.000000 -0.000000
vn -1.000000 0.000000 0.000000
vn -1.000000 0.000000 0.000000
vn -1.000000 0.000000 0.000000
vn -1.000000 0.000000 0.000000
vn 0.000000 1.000000 -0.000000
vn 0.000000 1.000000 -0.000000
vn 0.000000 1.000000 -0.000000
vn 0.000000 1.000000 -0.000000
vn 1.000000 0.000000 0.000000
vn 1.000000 0.000000 0.000000
vn 1.000000 0.000000 0.000000
vn 1.000000 0.000000 0.000000
vn 0.000000 -1.000000 0.000000
vn 0.000000 -1.000000 0.000000
vn 0.000000 -1.000000 0.000000
vn 0.000000 -1.000000 0.000000
vn 0.000000 0.000000 1.000000
vn 0.000000 0.000000 1.000000
vn 0.000000 0.000000 1.000000
vn 0.000000 0.000000 1.000000
vn 0.000000 1.000000 -0.000000
vn 0.000000 1.000000 -0.000000
vn 0.000000 1.000000 -0.000000
vn 0.000000 1.000000 -0.000000
vn 0.000000 1.000000 -0.000000
vn 0.000000 1.000000 -0.000000
vn 0.000000 1.000000 -0.000000
vn 0.000000 1.000000 -0.000000
vn 0.000000 -1.000000 0.000000
vn 0.000000 -1.000000 0.000000
vn 0.000000 -1.000000 0.000000
vn 0.000000 -1.000000 0.000000
vn 0.000000 0.000000 1.000000
vn 0.000000 0.000000 1.000000
vn 0.000000 0.000000 1.000000
vn 0.000000 0.000000 1.000000
vn 0.000000 0.000000 1.000000
vn 0.000000 0.000000 1.000000
vn 0.000000 0.000000 1.000000
vn 0.000000 0.000000 1.000000
vn 0.000000 -1.000000 0.000000
vn 0.000000 -1.000000 0.000000
vn 0.000000 -1.000000 0.000000
vn 0.000000 -1.000000 0.000000
vn 0.000000 1.000000 -0.000000
vn 0.000000 1.000000 -0.000000
vn 0.000000 1.000000 -0.000000
vn 0.000000 1.000000 -0.000000
vn 0.000000 1.000000 -0.000000
vn 0.000000 1.000000 -0.000000
vn 0.000000 1.000000 -0.000000
vn 0.000000 1.000000 -0.000000
vn -1.000000 0.000000 0.000000
vn -1.000000 0.000000 0.000000
vn -1.000000 0.000000 0.000000
vn -1.000000 0.000000 0.000000
vn 0.000000 1.000000 -0.000000
vn 0.000000 1.000000 -0.000000
vn 0.000000 1.000000 -0.000000
vn 0.000000 1.000000 -0.000000
vn 1.000000 0.000000 0.000000
vn 1.000000 0.000000 0.000000
vn 1.000000 0.000000 0.000000
vn 1.000000 0.000000 0.000000
vn 0.000000 -1.000000 0.000000
vn 0.000000 -1.000000 0.000000
vn 0.000000 -1.000000 0.000000
vn 0.000000 -1.000000 0.000000
vn 0.000000 0.000000 1.000000
vn 0.000000 0.000000 1.000000
vn 0.000000 0.000000 1.000000
vn 0.000000 0.000000 1.000000
vn 0.000000 1.000000 -0.000000
vn 0.000000 1.000000 -0.000000
vn 0.000000 1.000000 -0.000000
vn 0.000000 1.000000 -0.000000
f 3/3/3 2/2/2 1/1/1
f 4/4/4 3/3/3 1/1/1
f 7/7/7 6/6/6 5/5/5
f 8/8/8 7/7/7 5/5/5
f 11/11/11 10/10/10 9/9/9
f 12/12/12 11/11/11 9/9/9
f 15/15/15 14/14/14 13/13/13
f 16/16/16 15/15/15 13/13/13
f 19/19/19 18/18/18 17/17/17
f 20/20/20 19/19/19 17/17/17
f 23/23/23 22/22/22 21/21/21
f 24/24/24 23/23/23 21/21/21
f 27/27/27 26/26/26 25/25/25
f 28/28/28 27/27/27 25/25/25
f 31/31/31 30/30/30 29/29/29
f 32/32/32 31/31/31 29/29/29
f 35/35/35 34/34/34 33/33/33
f 36/36/36 35/35/35 33/33/33
f 39/39/39 38/38/38 37/37/37
f 40/40/40 39/39/39 37/37/37
f 43/43/43 42/42/42 41/41/41
f 44/44/44 43/43/43 41/41/41
f 47/47/47 46/46/46 45/45/45
f 48/48/48 47/47/47 45/45/45
f 51/51/51 50/50/50 49/49/49
f 52/52/52 51/51/51 49/49/49
f 55/55/55 54/54/54 53/53/53
f 56/56/56 55/55/55 53/53/53
f 59/59/59 58/58/58 57/57/57
f 60/60/60 59/59/59 57/57/57
f 63/63/63 62/62/62 61/61/61
f 64/64/64 63/63/63 61/61/61
f 67/67/67 66/66/66 65/65/65
f 68/68/68 67/67/67 65/65/65
f 71/71/71 70/70/70 69/69/69
f 72/72/72 71/71/71 69/69/69
f 75/75/75 74/74/74 73/73/73
f 76/76/76 75/75/75 73/73/73
f 79/79/79 78/78/78 77/77/77
f 80/80/80 79/79/79 77/77/77
f 83/83/83 82/82/82 81/81/81
f 84/84/84 83/83/83 81/81/81
f 87/87/87 86/86/86 85/85/85
f 88/88/88 87/87/87 85/85/85
f 91/91/91 90/90/90 89/89/89
f 92/92/92 91/91/91 89/89/89
f 95/95/95 94/94/94 93/93/93
f 96/96/96 95/95/95 93/93/93
f 99/99/99 98/98/98 97/97/97
f 100/100/100 99/99/99 97/97/97
