v -0.100000 -0.100000 0.417804
v -0.100000 -0.100000 -0.005000
v -0.100000 0.100000 -0.005000
v -0.100000 0.100000 0.417804
v -0.100000 0.100000 0.417804
v -0.100000 0.100000 -0.005000
v 0.100000 0.100000 -0.005000
v 0.100000 0.100000 0.376207
v 0.100000 0.100000 0.376207
v 0.100000 0.100000 -0.005000
v 0.100000 -0.100000 -0.005000
v 0.100000 -0.100000 0.376207
v 0.100000 -0.100000 0.376207
v 0.100000 -0.100000 -0.005000
v -0.100000 -0.100000 -0.005000
v -0.100000 -0.100000 0.417804
v 0.100000 -0.100000 0.376207
v -0.100000 -0.100000 0.417804
v -0.100000 0.100000 0.417804
v 0.100000 0.100000 0.376207
vt 0.16946125 0.540631592
vt 0.16946125 0.482980192
vt 0.164150715 0.482980192
vt 0.164150715 0.540631592
vt 0.185393021 0.540631592
vt 0.185393021 0.482980192
vt 0.180082411 0.482980192
vt 0.180082411 0.540631592
vt 0.133614868 0.535140991
vt 0.133614868 0.592792392
vt 0.138925403 0.592792392
vt 0.138925403 0.535140991
vt 0.101087496 0.592792392
vt 0.101087496 0.535140991
vt 0.0957768783 0.535140991
vt 0.0957768783 0.592792392
vt 0.0433348827 0.546122193
vt 0.038024269 0.546122193
vt 0.038024269 0.551612854
vt 0.0433348827 0.551612854
vn -1.000000 0.000000 0.000000
vn -1.000000 0.000000 0.000000
vn -1.000000 0.000000 0.000000
vn -1.000000 0.000000 0.000000
vn 0.000000 1.000000 -0.000000
vn 0.000000 1.000000 -0.000000
vn 0.000000 1.000000 -0.000000
vn 0.000000 1.000000 -0.000000
vn 1.000000 0.000000 0.000000
vn 1.000000 0.000000 0.000000
vn 1.000000 0.000000 0.000000
vn 1.000000 0.000000 0.000000
vn 0.000000 -1.000000 0.000000
vn 0.000000 -1.000000 0.000000
vn 0.000000 -1.000000 0.000000
vn 0.000000 -1.000000 0.000000
vn 0.203631 0.000000 0.979048
vn 0.203631 0.000000 0.979048
vn 0.203631 0.000000 0.979048
vn 0.203631 0.000000 0.979048
f 3/3/3 2/2/2 1/1/1
f 4/4/4 3/3/3 1/1/1
f 7/7/7 6/6/6 5/5/5
f 8/8/8 7/7/7 5/5/5
f 11/11/11 10/10/10 9/9/9
f 12/12/12 11/11/11 9/9/9
f 15/15/15 14/14/14 13/13/13
f 16/16/16 15/15/15 13/13/13
f 19/19/19 18/18/18 17/17/17
f 20/20/20 19/19/19 17/17/17
