v -0.445803 2.887062 0.395816
v -0.398764 2.932502 0.206030
v 0.289101 7.988226 0.496181
v 0.336759 7.988226 0.691181
v -0.754860 2.794063 0.886053
v -0.623851 2.817842 0.735828
v 0.336759 7.988226 1.081182
v 0.289101 7.988226 1.276182
v -0.623851 2.817842 0.735828
v -0.576812 2.863283 0.546041
v 0.289101 7.988226 0.886182
v 0.336759 7.988226 1.081182
v -0.576812 2.863283 0.546041
v -0.445803 2.887062 0.395816
v 0.336759 7.988226 0.691181
v 0.289101 7.988226 0.886182
v -0.445803 2.887062 0.395816
v 0.336759 7.988226 0.691181
v 0.289101 7.988226 0.496181
v -0.398764 2.932502 0.206030
v -0.754860 2.794063 0.886053
v 0.289101 7.988226 1.276182
v 0.336759 7.988226 1.081182
v -0.623851 2.817842 0.735828
v -0.623851 2.817842 0.735828
v 0.336759 7.988226 1.081182
v 0.289101 7.988226 0.886182
v -0.576812 2.863283 0.546041
v -0.576812 2.863283 0.546041
v 0.289101 7.988226 0.886182
v 0.336759 7.988226 0.691181
v -0.445803 2.887062 0.395816
v -0.576812 2.863283 0.546041
v -1.387787 1.991049 0.661536
v -1.291483 2.014879 0.487025
v -0.445803 2.887062 0.395816
v -0.623851 2.817842 0.735828
v -1.397814 1.930223 0.852576
v -1.387787 1.991049 0.661536
v -0.576812 2.863283 0.546041
v -0.754860 2.794063 0.886053
v -1.494118 1.906393 1.027087
v -1.397814 1.930223 0.852576
v -0.623851 2.817842 0.735828
v -0.445803 2.887062 0.395816
v -1.291483 2.014879 0.487025
v -1.281455 2.075705 0.295986
v -0.398764 2.932502 0.206030
v -0.445803 2.887062 0.395816
v -1.291483 2.014879 0.487025
v -1.387787 1.991049 0.661536
v -0.576812 2.863283 0.546041
v -0.576812 2.863283 0.546041
v -1.387787 1.991049 0.661536
v -1.397814 1.930223 0.852576
v -0.623851 2.817842 0.735828
v -0.623851 2.817842 0.735828
v -1.397814 1.930223 0.852576
v -1.494118 1.906393 1.027087
v -0.754860 2.794063 0.886053
v -0.398764 2.932502 0.206030
v -1.281455 2.075705 0.295986
v -1.291483 2.014879 0.487025
v -0.445803 2.887062 0.395816
v 0.257704 8.000000 0.495832
v -0.398764 2.932502 0.206030
v -0.754860 2.794063 0.886053
v 0.257703 8.000000 1.275833
v -1.281455 2.075705 0.295986
v -1.494118 1.906393 1.027087
v -0.754860 2.794063 0.886053
v -0.398764 2.932502 0.206030
v 0.257704 8.000000 0.495832
v 0.257703 8.000000 1.275833
v -0.754860 2.794063 0.886053
v -0.398764 2.932502 0.206030
v -1.281455 2.075705 0.295986
v -0.398764 2.932502 0.206030
v -0.754860 2.794063 0.886053
v -1.494118 1.906393 1.027087
v 0.250000 8.125000 1.250000
v 0.250000 7.875000 1.250000
v -0.250000 7.875000 1.250000
v -0.250000 8.125000 1.250000
v 0.250000 8.125000 -1.000000
v 0.250000 7.875000 -1.000000
v 0.250000 7.875000 1.250000
v 0.250000 8.125000 1.250000
v 0.250000 7.875000 -1.000000
v -0.250000 7.875000 -1.000000
v -0.250000 7.875000 1.250000
v 0.250000 7.875000 1.250000
v -0.250000 7.875000 -1.000000
v -0.250000 8.125000 -1.000000
v -0.250000 8.125000 1.250000
v -0.250000 7.875000 1.250000
v 0.250000 8.125000 1.250000
v -0.250000 8.125000 1.250000
v -0.250000 8.125000 -1.000000
v 0.250000 8.125000 -1.000000
v -0.633957 4.384370 1.143786
v -0.715044 4.147886 1.143311
v -1.142009 4.294716 0.928504
v -1.060923 4.531200 0.928980
v 0.281669 4.074502 -0.887989
v 0.200583 3.838018 -0.888464
v -0.715044 4.147886 1.143311
v -0.633957 4.384370 1.143786
v 0.200583 3.838018 -0.888464
v -0.226382 3.984848 -1.103271
v -1.142009 4.294716 0.928504
v -0.715044 4.147886 1.143311
v -0.226382 3.984848 -1.103271
v -0.145296 4.221332 -1.102795
v -1.060923 4.531200 0.928980
v -1.142009 4.294716 0.928504
v -0.633957 4.384370 1.143786
v -1.060923 4.531200 0.928980
v -0.145296 4.221332 -1.102795
v 0.281669 4.074502 -0.887989
vt 0.826210499 0.40491116
vt 0.839419901 0.40491116
vt 0.839419842 0.369686067
vt 0.826210499 0.369686067
vt 0.786582351 0.40491116
vt 0.799791753 0.40491116
vt 0.799791694 0.369686067
vt 0.786582351 0.369686067
vt 0.799791753 0.40491116
vt 0.813001156 0.40491116
vt 0.813001096 0.369686067
vt 0.799791694 0.369686067
vt 0.813001156 0.40491116
vt 0.826210499 0.40491116
vt 0.826210499 0.369686067
vt 0.813001096 0.369686067
vt 0.879048228 0.440136254
vt 0.879048228 0.475361377
vt 0.89225769 0.475361377
vt 0.892257631 0.440136254
vt 0.83942008 0.440136254
vt 0.83942008 0.475361377
vt 0.852629542 0.475361377
vt 0.852629483 0.440136254
vt 0.852629483 0.440136254
vt 0.852629542 0.475361377
vt 0.865838885 0.475361377
vt 0.865838826 0.440136254
vt 0.865838826 0.440136254
vt 0.865838885 0.475361377
vt 0.879048228 0.475361377
vt 0.879048228 0.440136254
vt 0.813001156 0.40491116
vt 0.813001156 0.40491116
vt 0.826210499 0.40491116
vt 0.826210499 0.40491116
vt 0.799791753 0.40491116
vt 0.799791753 0.40491116
vt 0.813001156 0.40491116
vt 0.813001156 0.40491116
vt 0.786582351 0.40491116
vt 0.786582351 0.40491116
vt 0.799791753 0.40491116
vt 0.799791753 0.40491116
vt 0.826210499 0.40491116
vt 0.826210499 0.40491116
vt 0.839419901 0.40491116
vt 0.839419901 0.40491116
vt 0.879048228 0.440136254
vt 0.879048228 0.440136254
vt 0.865838826 0.440136254
vt 0.865838826 0.440136254
vt 0.865838826 0.440136254
vt 0.865838826 0.440136254
vt 0.852629483 0.440136254
vt 0.852629483 0.440136254
vt 0.852629483 0.440136254
vt 0.852629483 0.440136254
vt 0.83942008 0.440136254
vt 0.83942008 0.440136254
vt 0.892257631 0.440136254
vt 0.892257631 0.440136254
vt 0.879048228 0.440136254
vt 0.879048228 0.440136254
vt 0.723086238 0.389268428
vt 0.724372625 0.679446936
vt 0.780139446 0.688691795
vt 0.780139446 0.385561049
vt 0.837192595 0.529782474
vt 0.888336062 0.551299214
vt 0.888336062 0.490059853
vt 0.838826835 0.468430132
vt 0.780139446 0.684984505
vt 0.837192595 0.688691795
vt 0.837192535 0.385561049
vt 0.781425714 0.394805908
vt 0.837192595 0.407077789
vt 0.838826835 0.468430132
vt 0.888336062 0.44680047
vt 0.888336062 0.385561049
vt 0.367225826 0.541822016
vt 0.353693485 0.541822016
vt 0.353693485 0.568886638
vt 0.367225826 0.568886638
vt 0.218370378 0.514757395
vt 0.204838097 0.514757395
vt 0.204838037 0.636548281
vt 0.218370378 0.636548281
vt 0.177773356 0.514757395
vt 0.150708735 0.514757395
vt 0.150708735 0.636548221
vt 0.177773356 0.636548221
vt 0.177773386 0.636548281
vt 0.191305697 0.636548281
vt 0.191305697 0.514757395
vt 0.177773386 0.514757395
vt 0.177773356 0.392966539
vt 0.150708735 0.392966539
vt 0.150708765 0.514757395
vt 0.177773386 0.514757395
vt 0.353693485 0.541822016
vt 0.340161204 0.541822016
vt 0.340161204 0.568886638
vt 0.353693485 0.568886638
vt 0.231902659 0.636548281
vt 0.245434999 0.636548221
vt 0.245434999 0.514757395
vt 0.231902659 0.514757395
vt 0.340161204 0.392966539
vt 0.313096583 0.392966539
vt 0.313096583 0.514757395
vt 0.340161204 0.514757395
vt 0.313096583 0.636548221
vt 0.326628923 0.636548221
vt 0.326628923 0.514757395
vt 0.313096583 0.514757395
vt 0.150708735 0.392966539
vt 0.123644084 0.392966539
vt 0.123644114 0.514757395
vt 0.150708735 0.514757395
vn -0.989665 0.142215 0.018389
vn -0.989665 0.142215 0.018389
vn -0.989665 0.142215 0.018389
vn -0.989665 0.142215 0.018389
vn -0.875640 0.200532 -0.439366
vn -0.875640 0.200532 -0.439366
vn -0.875640 0.200532 -0.439366
vn -0.875640 0.200532 -0.439366
vn -0.984637 0.173220 0.022042
vn -0.984637 0.173220 0.022042
vn -0.984637 0.173220 0.022042
vn -0.984637 0.173220 0.022042
vn -0.879985 0.169433 -0.443756
vn -0.879985 0.169433 -0.443756
vn -0.879985 0.169433 -0.443756
vn -0.879985 0.169433 -0.443756
vn 0.989665 -0.142215 -0.018389
vn 0.989665 -0.142215 -0.018389
vn 0.989665 -0.142215 -0.018389
vn 0.989665 -0.142215 -0.018389
vn 0.875640 -0.200532 0.439366
vn 0.875640 -0.200532 0.439366
vn 0.875640 -0.200532 0.439366
vn 0.875640 -0.200532 0.439366
vn 0.984637 -0.173220 -0.022042
vn 0.984637 -0.173220 -0.022042
vn 0.984637 -0.173220 -0.022042
vn 0.984637 -0.173220 -0.022042
vn 0.879985 -0.169433 0.443756
vn 0.879985 -0.169433 0.443756
vn 0.879985 -0.169433 0.443756
vn 0.879985 -0.169433 0.443756
vn -0.689457 0.608148 -0.393453
vn -0.689457 0.608148 -0.393453
vn -0.689457 0.608148 -0.393453
vn -0.689457 0.608148 -0.393453
vn -0.735727 0.672830 0.077499
vn -0.735727 0.672830 0.077499
vn -0.735727 0.672830 0.077499
vn -0.735727 0.672830 0.077499
vn -0.719148 0.551635 -0.422523
vn -0.719148 0.551635 -0.422523
vn -0.719148 0.551635 -0.422523
vn -0.719148 0.551635 -0.422523
vn -0.699278 0.708776 0.092991
vn -0.699278 0.708776 0.092991
vn -0.699278 0.708776 0.092991
vn -0.699278 0.708776 0.092991
vn 0.689457 -0.608148 0.393453
vn 0.689457 -0.608148 0.393453
vn 0.689457 -0.608148 0.393453
vn 0.689457 -0.608148 0.393453
vn 0.735727 -0.672830 -0.077499
vn 0.735727 -0.672830 -0.077499
vn 0.735727 -0.672830 -0.077499
vn 0.735727 -0.672830 -0.077499
vn 0.719148 -0.551635 0.422523
vn 0.719148 -0.551635 0.422523
vn 0.719148 -0.551635 0.422523
vn 0.719148 -0.551635 0.422523
vn 0.699278 -0.708776 -0.092991
vn 0.699278 -0.708776 -0.092991
vn 0.699278 -0.708776 -0.092991
vn 0.699278 -0.708776 -0.092991
vn 0.960890 -0.170540 0.218188
vn 0.880784 -0.432821 0.192053
vn 0.880784 -0.432821 0.192053
vn 0.960890 -0.170540 0.218188
vn 0.733834 -0.662255 0.151344
vn 0.733834 -0.662255 0.151344
vn 0.880784 -0.432821 0.192053
vn 0.880784 -0.432821 0.192053
vn -0.960890 0.170540 -0.218188
vn -0.960890 0.170540 -0.218188
vn -0.880784 0.432821 -0.192053
vn -0.880784 0.432821 -0.192053
vn -0.733834 0.662255 -0.151344
vn -0.880784 0.432821 -0.192053
vn -0.880784 0.432821 -0.192053
vn -0.733834 0.662255 -0.151344
vn 0.000000 0.000000 1.000000
vn 0.000000 0.000000 1.000000
vn 0.000000 0.000000 1.000000
vn 0.000000 0.000000 1.000000
vn 1.000000 0.000000 0.000000
vn 1.000000 0.000000 0.000000
vn 1.000000 0.000000 0.000000
vn 1.000000 0.000000 0.000000
vn 0.000000 -1.000000 0.000000
vn 0.000000 -1.000000 0.000000
vn 0.000000 -1.000000 0.000000
vn 0.000000 -1.000000 0.000000
vn -1.000000 0.000000 0.000000
vn -1.000000 0.000000 0.000000
vn -1.000000 0.000000 0.000000
vn -1.000000 0.000000 0.000000
vn 0.000000 1.000000 -0.000000
vn 0.000000 1.000000 -0.000000
vn 0.000000 1.000000 -0.000000
vn 0.000000 1.000000 -0.000000
vn -0.406945 0.137719 0.903011
vn -0.406945 0.137719 0.903011
vn -0.406945 0.137719 0.903011
vn -0.406945 0.137719 0.903011
vn 0.853930 -0.293660 0.429613
vn 0.853930 -0.293660 0.429613
vn 0.853930 -0.293660 0.429613
vn 0.853930 -0.293660 0.429613
vn -0.324344 -0.945937 -0.001901
vn -0.324344 -0.945937 -0.001901
vn -0.324344 -0.945937 -0.001901
vn -0.324344 -0.945937 -0.001901
vn -0.853930 0.293660 -0.429613
vn -0.853930 0.293660 -0.429613
vn -0.853930 0.293660 -0.429613
vn -0.853930 0.293660 -0.429613
vn 0.324344 0.945937 0.001901
vn 0.324344 0.945937 0.001901
vn 0.324344 0.945937 0.001901
vn 0.324344 0.945937 0.001901
f 3/3/3 2/2/2 1/1/1
f 4/4/4 3/3/3 1/1/1
f 7/7/7 6/6/6 5/5/5
f 8/8/8 7/7/7 5/5/5
f 11/11/11 10/10/10 9/9/9
f 12/12/12 11/11/11 9/9/9
f 15/15/15 14/14/14 13/13/13
f 16/16/16 15/15/15 13/13/13
f 19/19/19 18/18/18 17/17/17
f 20/20/20 19/19/19 17/17/17
f 23/23/23 22/22/22 21/21/21
f 24/24/24 23/23/23 21/21/21
f 27/27/27 26/26/26 25/25/25
f 28/28/28 27/27/27 25/25/25
f 31/31/31 30/30/30 29/29/29
f 32/32/32 31/31/31 29/29/29
f 35/35/35 34/34/34 33/33/33
f 36/36/36 35/35/35 33/33/33
f 39/39/39 38/38/38 37/37/37
f 40/40/40 39/39/39 37/37/37
f 43/43/43 42/42/42 41/41/41
f 44/44/44 43/43/43 41/41/41
f 47/47/47 46/46/46 45/45/45
f 48/48/48 47/47/47 45/45/45
f 51/51/51 50/50/50 49/49/49
f 52/52/52 51/51/51 49/49/49
f 55/55/55 54/54/54 53/53/53
f 56/56/56 55/55/55 53/53/53
f 59/59/59 58/58/58 57/57/57
f 60/60/60 59/59/59 57/57/57
f 63/63/63 62/62/62 61/61/61
f 64/64/64 63/63/63 61/61/61
f 67/67/67 66/66/66 65/65/65
f 68/68/68 67/67/67 65/65/65
f 71/71/71 70/70/70 69/69/69
f 72/72/72 71/71/71 69/69/69
f 75/75/75 74/74/74 73/73/73
f 76/76/76 75/75/75 73/73/73
f 79/79/79 78/78/78 77/77/77
f 80/80/80 79/79/79 77/77/77
f 83/83/83 82/82/82 81/81/81
f 84/84/84 83/83/83 81/81/81
f 87/87/87 86/86/86 85/85/85
f 88/88/88 87/87/87 85/85/85
f 91/91/91 90/90/90 89/89/89
f 92/92/92 91/91/91 89/89/89
f 95/95/95 94/94/94 93/93/93
f 96/96/96 95/95/95 93/93/93
f 99/99/99 98/98/98 97/97/97
f 100/100/100 99/99/99 97/97/97
f 103/103/103 102/102/102 101/101/101
f 104/104/104 103/103/103 101/101/101
f 107/107/107 106/106/106 105/105/105
f 108/108/108 107/107/107 105/105/105
f 111/111/111 110/110/110 109/109/109
f 112/112/112 111/111/111 109/109/109
f 115/115/115 114/114/114 113/113/113
f 116/116/116 115/115/115 113/113/113
f 119/119/119 118/118/118 117/117/117
f 120/120/120 119/119/119 117/117/117
