g Model_0_Section_1_Alive
v 0.062683 0.180627 2.297794
v 0.074364 0.066520 -0.004350
v 0.129550 -0.125466 0.005446
v 0.117869 -0.011359 2.307590
v 0.117869 -0.011359 2.307590
v 0.129550 -0.125466 0.005446
v -0.062683 -0.180633 0.007205
v -0.074364 -0.066526 2.309350
v -0.074364 -0.066526 2.309350
v -0.062683 -0.180633 0.007205
v -0.117869 0.011352 -0.002591
v -0.129550 0.125460 2.299553
v -0.129550 0.125460 2.299553
v -0.117869 0.011352 -0.002591
v 0.074364 0.066520 -0.004350
v 0.062683 0.180627 2.297794
v -0.129550 0.125460 2.299553
v 0.062683 0.180627 2.297794
v 0.117869 -0.011359 2.307590
v -0.074364 -0.066526 2.309350
vt 0 0
vt 0 0
vt 0 0
vt 0 0
vt 0 0
vt 0 0
vt 0 0
vt 0 0
vt 0 0
vt 0 0
vt 0 0
vt 0 0
vt 0 0
vt 0 0
vt 0 0
vt 0 0
vt 0 0
vt 0 0
vt 0 0
vt 0 0
vn 0.961165 0.275836 -0.008795
vn 0.961165 0.275836 -0.008795
vn 0.961165 0.275836 -0.008795
vn 0.961165 0.275836 -0.008795
vn 0.275930 -0.959929 0.048980
vn 0.275930 -0.959929 0.048980
vn 0.275930 -0.959929 0.048980
vn 0.275930 -0.959929 0.048980
vn -0.961164 -0.275836 0.008795
vn -0.961164 -0.275836 0.008795
vn -0.961164 -0.275836 0.008795
vn -0.961164 -0.275836 0.008795
vn -0.275929 0.959929 -0.048980
vn -0.275929 0.959929 -0.048980
vn -0.275929 0.959929 -0.048980
vn -0.275929 0.959929 -0.048980
vn -0.005068 0.049505 0.998761
vn -0.005068 0.049505 0.998761
vn -0.005068 0.049505 0.998761
vn -0.005068 0.049505 0.998761
g Model_0_Section_1_Alive_0
f 3/3/3 2/2/2 1/1/1
f 4/4/4 3/3/3 1/1/1
f 7/7/7 6/6/6 5/5/5
f 8/8/8 7/7/7 5/5/5
f 11/11/11 10/10/10 9/9/9
f 12/12/12 11/11/11 9/9/9
f 15/15/15 14/14/14 13/13/13
f 16/16/16 15/15/15 13/13/13
f 19/19/19 18/18/18 17/17/17
f 20/20/20 19/19/19 17/17/17