g Model_0_Section_1_Alive
v -0.354076982 0.0124999769 0.682500005
v -0.354076982 0.0124999769 0.407500029
v -1 0.0124999769 0.407499999
v -1 0.0124999769 0.682500005
v -0.354076982 0.0124999769 0.682500005
v -1 0.0124999769 0.682500005
v -1 0.0875000209 0.682500005
v -0.354076982 0.0875000209 0.682500005
v 0.418726683 0.419555604 1.93866086
v 0.258173108 -0.110925563 -0.0765095949
v 0.31584537 -0.190942317 -0.0600405931
v 0.476398945 0.339538753 1.95512986
v 0.476398945 0.339538753 1.95512986
v 0.31584537 -0.190942317 -0.0600405931
v -0.0704818964 -0.449067712 0.0386889577
v 0.0900716782 0.0814135224 2.05385947
v 0.0900716782 0.0814135224 2.05385947
v -0.0704818964 -0.449067712 0.0386889577
v -0.128154039 -0.369050801 0.0222199559
v 0.032399416 0.161430314 2.03739047
v 0.032399416 0.161430314 2.03739047
v -0.128154039 -0.369050801 0.0222199559
v 0.258173108 -0.110925563 -0.0765095949
v 0.418726683 0.419555604 1.93866086
v 0.258173108 -0.110925563 -0.0765095949
v -0.128154039 -0.369050801 0.0222199559
v -0.0704818964 -0.449067712 0.0386889577
v 0.31584537 -0.190942317 -0.0600405931
v 0.032399416 0.161430314 2.03739047
v 0.418726683 0.419555604 1.93866086
v 0.476398945 0.339538753 1.95512986
v 0.0900716782 0.0814135224 2.05385947
v -0.00297808647 0.13770324 2.1298666
v -0.0357153416 0.0124867596 0.0438780785
v -0.0248781443 -0.0867557228 0.0496652126
v 0.00785905123 0.0384607501 2.13565397
v 0.00785905123 0.0384607501 2.13565397
v -0.0248781443 -0.0867557228 0.0496652126
v -0.497021914 -0.137702838 0.0601332188
v -0.464284658 -0.0124863759 2.14612198
v -0.464284658 -0.0124863759 2.14612198
v -0.497021914 -0.137702838 0.0601332188
v -0.507858992 -0.0384603739 0.0543460846
v -0.475121856 0.0867561027 2.14033461
v -0.475121856 0.0867561027 2.14033461
v -0.507858992 -0.0384603739 0.0543460846
v -0.0357153416 0.0124867596 0.0438780785
v -0.00297808647 0.13770324 2.1298666
v -0.0357153416 0.0124867596 0.0438780785
v -0.507858992 -0.0384603739 0.0543460846
v -0.497021914 -0.137702838 0.0601332188
v -0.0248781443 -0.0867557228 0.0496652126
v -0.475121856 0.0867561027 2.14033461
v -0.00297808647 0.13770324 2.1298666
v 0.00785905123 0.0384607501 2.13565397
v -0.464284658 -0.0124863759 2.14612198
v -0.512500048 0.0500002392 2.13999987
v -0.512500048 0.0500002392 0.0500000492
v -0.512500048 -0.0499997847 0.0500000492
v -0.512500048 -0.0499997847 2.13999987
v -0.512500048 -0.0499997847 2.13999987
v -0.512500048 -0.0499997847 0.0500000492
v -0.987499952 -0.0499997102 0.0500000492
v -0.987499952 -0.0499997102 2.13999987
v -0.987499952 0.0500003137 2.13999987
v -0.987499952 0.0500003137 0.0500000492
v -0.512500048 0.0500002392 0.0500000492
v -0.512500048 0.0500002392 2.13999987
v -0.512500048 0.0500002392 0.0500000492
v -0.987499952 0.0500003137 0.0500000492
v -0.987499952 -0.0499997102 0.0500000492
v -0.512500048 -0.0499997847 0.0500000492
v -0.987499952 0.0500003137 2.13999987
v -0.512500048 0.0500002392 2.13999987
v -0.512500048 -0.0499997847 2.13999987
v -0.987499952 -0.0499997102 2.13999987
v -1.0999999 -0.100000024 2.30499983
v -1.0999999 -0.100000024 -0.00500001758
v -1.0999999 0.100000024 -0.00500001758
v -1.0999999 0.100000024 2.30499983
v -1.0999999 0.100000024 2.30499983
v -1.0999999 0.100000024 -0.00500001758
v -0.900000095 0.100000024 -0.00500001758
v -0.900000095 0.100000024 2.30499983
v -0.900000095 0.100000024 2.30499983
v -0.900000095 0.100000024 -0.00500001758
v -0.900000095 -0.100000024 -0.00500001758
v -0.900000095 -0.100000024 2.30499983
v -0.900000095 -0.100000024 2.30499983
v -0.900000095 -0.100000024 -0.00500001758
v -1.0999999 -0.100000024 -0.00500001758
v -1.0999999 -0.100000024 2.30499983
v -0.900000095 -0.100000024 2.30499983
v -1.0999999 -0.100000024 2.30499983
v -1.0999999 0.100000024 2.30499983
v -0.900000095 0.100000024 2.30499983
v -0.354076982 0.0124999769 1.78250003
v -0.354076982 0.0124999769 1.50750005
v -1 0.0124999769 1.50750005
v -1 0.0124999769 1.78250003
v -0.354076982 0.0124999769 1.78250003
v -1 0.0124999769 1.78250003
v -1 0.0875000209 1.78250003
v -0.354076982 0.0875000209 1.78250003
v -1 0.0875000209 1.78250003
v -1 0.0875000209 1.50750005
v -0.354076982 0.0875000209 1.50750005
v -0.354076982 0.0875000209 1.78250003
v -0.354076982 0.0875000209 0.407500029
v 0.108248353 0.2904526 0.492350131
v -0.0302462578 0.179270834 0.702309251
v -0.354076982 0.0875000209 0.682500005
v -0.354076982 0.0124999769 0.682500005
v -0.0150167942 0.110692419 0.676040053
v 0.123477936 0.221874207 0.466080874
v -0.354076982 0.0124999769 0.407500029
v -1 0.0124999769 1.50750005
v -0.354076982 0.0124999769 1.50750005
v -0.354076982 0.0875000209 1.50750005
v -1 0.0875000209 1.50750005
v -0.354076982 0.0124999769 0.407500029
v 0.123477936 0.221874207 0.466080874
v 0.108248353 0.2904526 0.492350131
v -0.354076982 0.0875000209 0.407500029
v -0.354076982 0.0875000209 0.682500005
v -0.0302462578 0.179270834 0.702309251
v -0.0150167942 0.110692419 0.676040053
v -0.354076982 0.0124999769 0.682500005
v -1 0.0875000209 0.682500005
v -1 0.0875000209 0.407499999
v -0.354076982 0.0875000209 0.407500029
v -0.354076982 0.0875000209 0.682500005
v -0.354076982 0.0875000209 1.50750005
v 0.0555511713 0.237765729 1.60310268
v 0.0879202485 0.158952355 1.86457098
v -0.354076982 0.0875000209 1.78250003
v -0.354076982 0.0124999769 1.78250003
v 0.0918397307 0.0873771608 1.84251106
v 0.0594707131 0.166190535 1.58104277
v -0.354076982 0.0124999769 1.50750005
v -1 0.0124999769 0.407499999
v -0.354076982 0.0124999769 0.407500029
v -0.354076982 0.0875000209 0.407500029
v -1 0.0875000209 0.407499999
v -0.354076982 0.0124999769 1.50750005
v 0.0594707131 0.166190535 1.58104277
v 0.0555511713 0.237765729 1.60310268
v -0.354076982 0.0875000209 1.50750005
v -0.354076982 0.0875000209 1.78250003
v 0.0879202485 0.158952355 1.86457098
v 0.0918397307 0.0873771608 1.84251106
v -0.354076982 0.0124999769 1.78250003
vt 0.315593243 0.491432279
vt 0.318199039 0.491432279
vt 0.318199039 0.477063596
vt 0.315593272 0.477063596
vt 0.378393084 0.511907756
vt 0.378393054 0.497539014
vt 0.377611339 0.497539014
vt 0.377611339 0.511907697
vt 0.69150424 0.402780384
vt 0.69150424 0.454941154
vt 0.694159508 0.454941154
vt 0.694159508 0.402780384
vt 0.655657768 0.454941154
vt 0.655657768 0.402780384
vt 0.643045127 0.402780384
vt 0.643045127 0.454941154
vt 0.696814775 0.454941154
vt 0.696814775 0.402780384
vt 0.694159508 0.402780384
vt 0.694159508 0.454941154
vt 0.605207145 0.507101953
vt 0.605207145 0.454941154
vt 0.592594624 0.454941154
vt 0.592594624 0.507101953
vt 0.635743141 0.520142138
vt 0.635743141 0.507101953
vt 0.633087814 0.507101953
vt 0.633087814 0.520142138
vt 0.605207145 0.520142138
vt 0.605207145 0.507101953
vt 0.602551937 0.507101953
vt 0.602551937 0.520142138
vt 0.686193645 0.402780384
vt 0.686193645 0.454941154
vt 0.688848972 0.454941154
vt 0.688848972 0.402780384
vt 0.66827035 0.507101953
vt 0.66827035 0.454941154
vt 0.655657768 0.454941154
vt 0.655657768 0.507101953
vt 0.699470043 0.454941154
vt 0.699470043 0.402780384
vt 0.696814775 0.402780384
vt 0.696814775 0.454941154
vt 0.605207145 0.454941154
vt 0.605207145 0.507101953
vt 0.617819786 0.507101953
vt 0.617819786 0.454941213
vt 0.637734592 0.507101953
vt 0.637734592 0.520142138
vt 0.64038974 0.520142138
vt 0.64038974 0.507101953
vt 0.609853923 0.507101953
vt 0.609853923 0.520142138
vt 0.612509251 0.520142138
vt 0.612509251 0.507101953
vt 0.643045127 0.507101953
vt 0.643045187 0.559262693
vt 0.645700455 0.559262693
vt 0.645700455 0.507101953
vt 0.66827035 0.454941154
vt 0.66827035 0.402780384
vt 0.655657768 0.402780384
vt 0.655657768 0.454941154
vt 0.579981863 0.402780384
vt 0.579981863 0.454941154
vt 0.592594624 0.454941154
vt 0.592594624 0.402780384
vt 0.566705406 0.512592554
vt 0.566705406 0.525632739
vt 0.569360733 0.525632739
vt 0.569360733 0.512592554
vt 0.643045127 0.520142138
vt 0.643045127 0.507101953
vt 0.640389919 0.507101953
vt 0.640389919 0.520142138
vt 0.174771875 0.540631592
vt 0.174771875 0.482980192
vt 0.16946125 0.482980192
vt 0.16946134 0.540631592
vt 0.158840179 0.482980192
vt 0.158840179 0.540631592
vt 0.164150715 0.540631592
vt 0.164150715 0.482980192
vt 0.128304332 0.535140991
vt 0.128304332 0.592792392
vt 0.133614868 0.592792392
vt 0.133614868 0.535140991
vt 0.140916914 0.535140991
vt 0.140916914 0.592792392
vt 0.146227449 0.592792392
vt 0.146227449 0.535140991
vt 0.0678963661 0.548181176
vt 0.0625857562 0.548181176
vt 0.0625857562 0.553671777
vt 0.0678963661 0.553671777
vt 0.318199039 0.491432279
vt 0.320804864 0.491432279
vt 0.320804864 0.477063596
vt 0.318199039 0.477063596
vt 0.379174829 0.511907756
vt 0.379174829 0.497539014
vt 0.378393143 0.497539014
vt 0.378393143 0.511907697
vt 0.326016456 0.477063596
vt 0.32341069 0.477063596
vt 0.32341069 0.491432279
vt 0.326016426 0.491432279
vt 0.32341069 0.505801022
vt 0.32341069 0.505801022
vt 0.320804864 0.505800962
vt 0.320804864 0.505800962
vt 0.315593243 0.491432279
vt 0.315593243 0.491432279
vt 0.318199039 0.491432279
vt 0.318199039 0.491432279
vt 0.376829624 0.497539014
vt 0.376829594 0.511907697
vt 0.377611309 0.511907756
vt 0.377611309 0.497539014
vt 0.37604782 0.511907697
vt 0.37604782 0.511907697
vt 0.376829624 0.511907756
vt 0.376829624 0.511907756
vt 0.377611339 0.511907697
vt 0.377611339 0.511907697
vt 0.378393084 0.511907756
vt 0.378393084 0.511907756
vt 0.320804864 0.520169735
vt 0.32341069 0.520169735
vt 0.32341069 0.505801022
vt 0.320804864 0.505800962
vt 0.32341069 0.491432279
vt 0.32341069 0.491432279
vt 0.326016426 0.491432279
vt 0.326016426 0.491432279
vt 0.318199039 0.491432279
vt 0.318199039 0.491432279
vt 0.320804864 0.491432279
vt 0.320804864 0.491432279
vt 0.37604785 0.497539014
vt 0.37604782 0.511907697
vt 0.376829624 0.511907756
vt 0.376829624 0.497539014
vt 0.376829594 0.511907697
vt 0.376829594 0.511907697
vt 0.377611309 0.511907756
vt 0.377611309 0.511907756
vt 0.378393143 0.511907697
vt 0.378393143 0.511907697
vt 0.379174829 0.511907756
vt 0.379174829 0.511907756
vn 0.181552783 -0.981758475 -0.0564702339
vn 0.181552783 -0.981758475 -0.0564702339
vn -0 -1 0
vn -0 -1 0
vn 0.0154787032 -0.0887216553 0.995936155
vn -0 0 1
vn -0 0 1
vn 0.0154787032 -0.0887216553 0.995936155
vn 0.813320398 0.543422103 -0.207851738
vn 0.813320398 0.543422103 -0.207851738
vn 0.813320398 0.543422103 -0.207851738
vn 0.813320398 0.543422103 -0.207851738
vn 0.576722026 -0.800167978 0.16469042
vn 0.576722026 -0.800167978 0.16469042
vn 0.576722026 -0.800167978 0.16469042
vn 0.576722026 -0.800167978 0.16469042
vn -0.813320756 -0.543421745 0.207851648
vn -0.813320756 -0.543421745 0.207851648
vn -0.813320756 -0.543421745 0.207851648
vn -0.813320756 -0.543421745 0.207851648
vn -0.576722026 0.800167978 -0.16469042
vn -0.576722026 0.800167978 -0.16469042
vn -0.576722026 0.800167978 -0.16469042
vn -0.576722026 0.800167978 -0.16469042
vn -0.0768202022 -0.253818393 -0.964196503
vn -0.0768202022 -0.253818393 -0.964196503
vn -0.0768202022 -0.253818393 -0.964196503
vn -0.0768202022 -0.253818393 -0.964196503
vn 0.0768202692 0.253818452 0.964196384
vn 0.0768202692 0.253818452 0.964196384
vn 0.0768202692 0.253818452 0.964196384
vn 0.0768202692 0.253818452 0.964196384
vn 0.993986964 0.107257128 -0.0220378619
vn 0.993986964 0.107257128 -0.0220378619
vn 0.993986964 0.107257128 -0.0220378619
vn 0.993986964 0.107257128 -0.0220378619
vn 0.108371608 -0.992424488 0.0578718856
vn 0.108371608 -0.992424488 0.0578718856
vn 0.108371608 -0.992424488 0.0578718856
vn 0.108371608 -0.992424488 0.0578718856
vn -0.993987083 -0.107256874 0.0220378358
vn -0.993987083 -0.107256874 0.0220378358
vn -0.993987083 -0.107256874 0.0220378358
vn -0.993987083 -0.107256874 0.0220378358
vn -0.108371645 0.992424488 -0.0578719005
vn -0.108371645 0.992424488 -0.0578719005
vn -0.108371645 0.992424488 -0.0578719005
vn -0.108371645 0.992424488 -0.0578719005
vn -0.0156638548 -0.0599116422 -0.99808085
vn -0.0156638548 -0.0599116422 -0.99808085
vn -0.0156638548 -0.0599116422 -0.99808085
vn -0.0156638548 -0.0599116422 -0.99808085
vn 0.0156635977 0.0599139966 0.99808073
vn 0.0156635977 0.0599139966 0.99808073
vn 0.0156635977 0.0599139966 0.99808073
vn 0.0156635977 0.0599139966 0.99808073
vn 1 0 0
vn 1 0 0
vn 1 0 0
vn 1 0 0
vn -0 -1 0
vn -0 -1 0
vn -0 -1 0
vn -0 -1 0
vn -0 1 0
vn -0 1 0
vn -0 1 0
vn -0 1 0
vn -0 0 -1
vn -0 0 -1
vn -0 0 -1
vn -0 0 -1
vn -0 0 1
vn -0 0 1
vn -0 0 1
vn -0 0 1
vn -1 0 0
vn -1 0 0
vn -1 0 0
vn -1 0 0
vn -0 1 0
vn -0 1 0
vn -0 1 0
vn -0 1 0
vn 1 0 0
vn 1 0 0
vn 1 0 0
vn 1 0 0
vn -0 -1 0
vn -0 -1 0
vn -0 -1 0
vn -0 -1 0
vn -0 0 1
vn -0 0 1
vn -0 0 1
vn -0 0 1
vn 0.140037283 -0.986987591 -0.0790251195
vn 0.140037283 -0.986987591 -0.0790251195
vn -0 -1 0
vn -0 -1 0
vn -0.0662815645 -0.0758730024 0.994912088
vn -0 0 1
vn -0 0 1
vn -0.0662815645 -0.0758730024 0.994912088
vn -0 1 0
vn -0 1 0
vn -0.141482428 0.986778259 0.0790657848
vn -0.141482428 0.986778259 0.0790657848
vn -0.184261113 0.981306791 0.0555395447
vn -0.36163345 0.925926387 0.109002687
vn -0.36163345 0.925926387 0.109002687
vn -0.184261113 0.981306791 0.0555395447
vn 0.181552783 -0.981758475 -0.0564702339
vn 0.356481969 -0.927699327 -0.110880256
vn 0.356481969 -0.927699327 -0.110880256
vn 0.181552783 -0.981758475 -0.0564702339
vn -0 0 -1
vn 0.0729794577 0.075944677 -0.994437695
vn 0.0729794577 0.075944677 -0.994437695
vn -0 0 -1
vn 0.0340442434 0.0937215984 -0.995016277
vn 0.0677491426 0.186508998 -0.98011452
vn 0.0677491426 0.186508998 -0.98011452
vn 0.0340442434 0.0937215984 -0.995016277
vn 0.0154787032 -0.0887216553 0.995936155
vn 0.0308316015 -0.176722229 0.983777761
vn 0.0308316015 -0.176722229 0.983777761
vn 0.0154787032 -0.0887216553 0.995936155
vn -0 1 0
vn -0 1 0
vn -0.184261113 0.981306791 0.0555395447
vn -0.184261113 0.981306791 0.0555395447
vn -0.141482428 0.986778259 0.0790657848
vn -0.279223561 0.947462678 0.156040788
vn -0.279223561 0.947462678 0.156040788
vn -0.141482428 0.986778259 0.0790657848
vn 0.140037283 -0.986987591 -0.0790251195
vn 0.27643016 -0.948289216 -0.15599364
vn 0.27643016 -0.948289216 -0.15599364
vn 0.140037283 -0.986987591 -0.0790251195
vn -0 0 -1
vn 0.0340442434 0.0937215984 -0.995016277
vn 0.0340442434 0.0937215984 -0.995016277
vn -0 0 -1
vn 0.0729794577 0.075944677 -0.994437695
vn 0.145147055 0.151044503 -0.977812767
vn 0.145147055 0.151044503 -0.977812767
vn 0.0729794577 0.075944677 -0.994437695
vn -0.0662815645 -0.0758730024 0.994912088
vn -0.131888658 -0.150973931 0.979700148
vn -0.131888658 -0.150973931 0.979700148
vn -0.0662815645 -0.0758730024 0.994912088
g Model_0_Section_1_Alive_0
f 3/3/3 2/2/2 1/1/1
f 4/4/4 3/3/3 1/1/1
f 7/7/7 6/6/6 5/5/5
f 8/8/8 7/7/7 5/5/5
f 11/11/11 10/10/10 9/9/9
f 12/12/12 11/11/11 9/9/9
f 15/15/15 14/14/14 13/13/13
f 16/16/16 15/15/15 13/13/13
f 19/19/19 18/18/18 17/17/17
f 20/20/20 19/19/19 17/17/17
f 23/23/23 22/22/22 21/21/21
f 24/24/24 23/23/23 21/21/21
f 27/27/27 26/26/26 25/25/25
f 28/28/28 27/27/27 25/25/25
f 31/31/31 30/30/30 29/29/29
f 32/32/32 31/31/31 29/29/29
f 35/35/35 34/34/34 33/33/33
f 36/36/36 35/35/35 33/33/33
f 39/39/39 38/38/38 37/37/37
f 40/40/40 39/39/39 37/37/37
f 43/43/43 42/42/42 41/41/41
f 44/44/44 43/43/43 41/41/41
f 47/47/47 46/46/46 45/45/45
f 48/48/48 47/47/47 45/45/45
f 51/51/51 50/50/50 49/49/49
f 52/52/52 51/51/51 49/49/49
f 55/55/55 54/54/54 53/53/53
f 56/56/56 55/55/55 53/53/53
f 59/59/59 58/58/58 57/57/57
f 60/60/60 59/59/59 57/57/57
f 63/63/63 62/62/62 61/61/61
f 64/64/64 63/63/63 61/61/61
f 67/67/67 66/66/66 65/65/65
f 68/68/68 67/67/67 65/65/65
f 71/71/71 70/70/70 69/69/69
f 72/72/72 71/71/71 69/69/69
f 75/75/75 74/74/74 73/73/73
f 76/76/76 75/75/75 73/73/73
f 79/79/79 78/78/78 77/77/77
f 80/80/80 79/79/79 77/77/77
f 83/83/83 82/82/82 81/81/81
f 84/84/84 83/83/83 81/81/81
f 87/87/87 86/86/86 85/85/85
f 88/88/88 87/87/87 85/85/85
f 91/91/91 90/90/90 89/89/89
f 92/92/92 91/91/91 89/89/89
f 95/95/95 94/94/94 93/93/93
f 96/96/96 95/95/95 93/93/93
f 99/99/99 98/98/98 97/97/97
f 100/100/100 99/99/99 97/97/97
f 103/103/103 102/102/102 101/101/101
f 104/104/104 103/103/103 101/101/101
f 107/107/107 106/106/106 105/105/105
f 108/108/108 107/107/107 105/105/105
f 111/111/111 110/110/110 109/109/109
f 112/112/112 111/111/111 109/109/109
f 115/115/115 114/114/114 113/113/113
f 116/116/116 115/115/115 113/113/113
f 119/119/119 118/118/118 117/117/117
f 120/120/120 119/119/119 117/117/117
f 123/123/123 122/122/122 121/121/121
f 124/124/124 123/123/123 121/121/121
f 127/127/127 126/126/126 125/125/125
f 128/128/128 127/127/127 125/125/125
f 131/131/131 130/130/130 129/129/129
f 132/132/132 131/131/131 129/129/129
f 135/135/135 134/134/134 133/133/133
f 136/136/136 135/135/135 133/133/133
f 139/139/139 138/138/138 137/137/137
f 140/140/140 139/139/139 137/137/137
f 143/143/143 142/142/142 141/141/141
f 144/144/144 143/143/143 141/141/141
f 147/147/147 146/146/146 145/145/145
f 148/148/148 147/147/147 145/145/145
f 151/151/151 150/150/150 149/149/149
f 152/152/152 151/151/151 149/149/149
