g Model_0_Segment_1_Alive
v 0.250000119 3.125 1.25
v 0.249999821 2.875 1.25
v -0.250000119 2.875 1.25
v -0.25 3.125 1.25
v 0.25 3.125 -1
v 0.25 2.875 -1
v 0.249999821 2.875 1.25
v 0.250000119 3.125 1.25
v 0.25 2.875 -1
v -0.25000006 2.875 -1
v -0.250000119 2.875 1.25
v 0.249999821 2.875 1.25
v -0.25000006 2.875 -1
v -0.24999994 3.125 -1
v -0.25 3.125 1.25
v -0.250000119 2.875 1.25
v 0.250000119 3.125 1.25
v -0.25 3.125 1.25
v -0.24999994 3.125 -1
v 0.25 3.125 -1
v -0.633957446 -0.615629673 1.14378619
v -0.715043724 -0.852114201 1.1433109
v -1.14200866 -0.705284119 0.928504467
v -1.06092262 -0.468800068 0.928979635
v 0.281668872 -0.925498009 -0.887989044
v 0.200582907 -1.16198206 -0.888464332
v -0.715043724 -0.852114201 1.1433109
v -0.633957446 -0.615629673 1.14378619
v 0.200582907 -1.16198206 -0.888464332
v -0.2263823 -1.01515245 -1.10327077
v -1.14200866 -0.705284119 0.928504467
v -0.715043724 -0.852114201 1.1433109
v -0.2263823 -1.01515245 -1.10327077
v -0.145296231 -0.778667927 -1.10279548
v -1.06092262 -0.468800068 0.928979635
v -1.14200866 -0.705284119 0.928504467
v -0.633957446 -0.615629673 1.14378619
v -1.06092262 -0.468800068 0.928979635
v -0.145296231 -0.778667927 -1.10279548
v 0.281668872 -0.925498009 -0.887989044
vt 0.367225826 0.541822016
vt 0.353693485 0.541822016
vt 0.353693485 0.568886638
vt 0.367225826 0.568886638
vt 0.218370378 0.514757395
vt 0.204838097 0.514757395
vt 0.204838037 0.636548281
vt 0.218370378 0.636548281
vt 0.177773356 0.514757395
vt 0.150708735 0.514757395
vt 0.150708735 0.636548221
vt 0.177773356 0.636548221
vt 0.177773386 0.636548281
vt 0.191305697 0.636548281
vt 0.191305697 0.514757395
vt 0.177773386 0.514757395
vt 0.177773356 0.392966539
vt 0.150708735 0.392966539
vt 0.150708765 0.514757395
vt 0.177773386 0.514757395
vt 0.353693485 0.541822016
vt 0.340161204 0.541822016
vt 0.340161204 0.568886638
vt 0.353693485 0.568886638
vt 0.231902659 0.636548281
vt 0.245434999 0.636548221
vt 0.245434999 0.514757395
vt 0.231902659 0.514757395
vt 0.340161204 0.392966539
vt 0.313096583 0.392966539
vt 0.313096583 0.514757395
vt 0.340161204 0.514757395
vt 0.313096583 0.636548221
vt 0.326628923 0.636548221
vt 0.326628923 0.514757395
vt 0.313096583 0.514757395
vt 0.150708735 0.392966539
vt 0.123644084 0.392966539
vt 0.123644114 0.514757395
vt 0.150708735 0.514757395
vn -0 0 1
vn -0 0 1
vn -0 0 1
vn -0 0 1
vn 1 0 0
vn 1 0 0
vn 1 0 0
vn 1 0 0
vn -0 -1 0
vn -0 -1 0
vn -0 -1 0
vn -0 -1 0
vn -1 0 0
vn -1 0 0
vn -1 0 0
vn -1 0 0
vn -0 1 0
vn -0 1 0
vn -0 1 0
vn -0 1 0
vn -0.406944901 0.137719408 0.903011143
vn -0.406944901 0.137719408 0.903011143
vn -0.406944901 0.137719408 0.903011143
vn -0.406944901 0.137719408 0.903011143
vn 0.853929937 -0.293660343 0.429612905
vn 0.853929937 -0.293660343 0.429612905
vn 0.853929937 -0.293660343 0.429612905
vn 0.853929937 -0.293660343 0.429612905
vn -0.32434392 -0.945937335 -0.00190088514
vn -0.32434392 -0.945937335 -0.00190088514
vn -0.32434392 -0.945937335 -0.00190088514
vn -0.32434392 -0.945937335 -0.00190088514
vn -0.853930116 0.293659866 -0.429612845
vn -0.853930116 0.293659866 -0.429612845
vn -0.853930116 0.293659866 -0.429612845
vn -0.853930116 0.293659866 -0.429612845
vn 0.32434392 0.945937335 0.0019007785
vn 0.32434392 0.945937335 0.0019007785
vn 0.32434392 0.945937335 0.0019007785
vn 0.32434392 0.945937335 0.0019007785
g Model_0_Segment_1_Alive_0
f 3/3/3 2/2/2 1/1/1
f 4/4/4 3/3/3 1/1/1
f 7/7/7 6/6/6 5/5/5
f 8/8/8 7/7/7 5/5/5
f 11/11/11 10/10/10 9/9/9
f 12/12/12 11/11/11 9/9/9
f 15/15/15 14/14/14 13/13/13
f 16/16/16 15/15/15 13/13/13
f 19/19/19 18/18/18 17/17/17
f 20/20/20 19/19/19 17/17/17
f 23/23/23 22/22/22 21/21/21
f 24/24/24 23/23/23 21/21/21
f 27/27/27 26/26/26 25/25/25
f 28/28/28 27/27/27 25/25/25
f 31/31/31 30/30/30 29/29/29
f 32/32/32 31/31/31 29/29/29
f 35/35/35 34/34/34 33/33/33
f 36/36/36 35/35/35 33/33/33
f 39/39/39 38/38/38 37/37/37
f 40/40/40 39/39/39 37/37/37
