v -1.900000 0.100000 2.305000
v -1.900000 0.100000 -0.000000
v -1.900000 -0.100000 0.000000
v -1.900000 -0.100000 2.305000
v -1.900000 -0.100000 2.305000
v -1.900000 -0.100000 0.000000
v -2.100000 -0.100000 0.000000
v -2.100000 -0.100000 2.305000
v -2.100000 -0.100000 2.305000
v -2.100000 -0.100000 0.000000
v -2.100000 0.100000 -0.000000
v -2.100000 0.100000 2.305000
v -2.100000 0.100000 2.305000
v -2.100000 0.100000 -0.000000
v -1.900000 0.100000 -0.000000
v -1.900000 0.100000 2.305000
v -2.100000 0.100000 2.305000
v -1.900000 0.100000 2.305000
v -1.900000 -0.100000 2.305000
v -2.100000 -0.100000 2.305000
v 1.900000 -0.099997 2.305000
v 1.900000 -0.099997 0.000000
v 1.900000 0.100003 -0.000000
v 1.900000 0.100003 2.305000
v 1.900000 0.100003 2.305000
v 1.900000 0.100003 -0.000000
v 2.100000 0.100003 -0.000000
v 2.100000 0.100003 2.305000
v 2.100000 0.100003 2.305000
v 2.100000 0.100003 -0.000000
v 2.100000 -0.099997 0.000000
v 2.100000 -0.099997 2.305000
v 2.100000 -0.099997 2.305000
v 2.100000 -0.099997 0.000000
v 1.900000 -0.099997 0.000000
v 1.900000 -0.099997 2.305000
v 2.100000 -0.099997 2.305000
v 1.900000 -0.099997 2.305000
v 1.900000 0.100003 2.305000
v 2.100000 0.100003 2.305000
v 2.000518 0.000002 -0.000000
v 2.000518 0.000005 2.141169
v -2.000518 -0.000001 2.141169
v -2.000518 -0.000004 0.000000
v -2.000518 -0.000005 0.000000
v -2.000518 -0.000006 2.141169
v 2.000518 0.000006 2.141169
v 2.000518 0.000007 -0.000000
vt 0 0
vt 0 0
vt 0 0
vt 0 0
vt 0 0
vt 0 0
vt 0 0
vt 0 0
vt 0 0
vt 0 0
vt 0 0
vt 0 0
vt 0 0
vt 0 0
vt 0 0
vt 0 0
vt 0 0
vt 0 0
vt 0 0
vt 0 0
vt 0 0
vt 0 0
vt 0 0
vt 0 0
vt 0 0
vt 0 0
vt 0 0
vt 0 0
vt 0 0
vt 0 0
vt 0 0
vt 0 0
vt 0 0
vt 0 0
vt 0 0
vt 0 0
vt 0 0
vt 0 0
vt 0 0
vt 0 0
vt -4.8032999 2.2677691
vt -1.26776505 5.80330086
vt 5.8032999 -1.26776898
vt 2.26776505 -4.80330086
vt -4.8032999 2.2677691
vt -1.26776505 5.80330086
vt 5.8032999 -1.26776898
vt 2.26776505 -4.80330086
vn 1.000000 0.000000 0.000000
vn 1.000000 0.000000 0.000000
vn 1.000000 0.000000 0.000000
vn 1.000000 0.000000 0.000000
vn 0.000000 -1.000000 0.000000
vn 0.000000 -1.000000 0.000000
vn 0.000000 -1.000000 0.000000
vn 0.000000 -1.000000 0.000000
vn -1.000000 0.000000 0.000000
vn -1.000000 0.000000 0.000000
vn -1.000000 0.000000 0.000000
vn -1.000000 0.000000 0.000000
vn 0.000000 1.000000 -0.000000
vn 0.000000 1.000000 -0.000000
vn 0.000000 1.000000 -0.000000
vn 0.000000 1.000000 -0.000000
vn 0.000000 0.000000 1.000000
vn 0.000000 0.000000 1.000000
vn 0.000000 0.000000 1.000000
vn 0.000000 0.000000 1.000000
vn -1.000000 0.000000 0.000000
vn -1.000000 0.000000 0.000000
vn -1.000000 0.000000 0.000000
vn -1.000000 0.000000 0.000000
vn 0.000000 1.000000 -0.000000
vn 0.000000 1.000000 -0.000000
vn 0.000000 1.000000 -0.000000
vn 0.000000 1.000000 -0.000000
vn 1.000000 0.000000 0.000000
vn 1.000000 0.000000 0.000000
vn 1.000000 0.000000 0.000000
vn 1.000000 0.000000 0.000000
vn 0.000000 -1.000000 0.000000
vn 0.000000 -1.000000 0.000000
vn 0.000000 -1.000000 0.000000
vn 0.000000 -1.000000 0.000000
vn 0.000000 0.000000 1.000000
vn 0.000000 0.000000 1.000000
vn 0.000000 0.000000 1.000000
vn 0.000000 0.000000 1.000000
vn 0.000000 1.000000 -0.000000
vn 0.000000 1.000000 -0.000000
vn 0.000000 1.000000 -0.000000
vn 0.000000 1.000000 -0.000000
vn 0.000000 -1.000000 0.000000
vn 0.000000 -1.000000 0.000000
vn 0.000000 -1.000000 0.000000
vn 0.000000 -1.000000 0.000000
f 3/3/3 2/2/2 1/1/1
f 4/4/4 3/3/3 1/1/1
f 7/7/7 6/6/6 5/5/5
f 8/8/8 7/7/7 5/5/5
f 11/11/11 10/10/10 9/9/9
f 12/12/12 11/11/11 9/9/9
f 15/15/15 14/14/14 13/13/13
f 16/16/16 15/15/15 13/13/13
f 19/19/19 18/18/18 17/17/17
f 20/20/20 19/19/19 17/17/17
f 23/23/23 22/22/22 21/21/21
f 24/24/24 23/23/23 21/21/21
f 27/27/27 26/26/26 25/25/25
f 28/28/28 27/27/27 25/25/25
f 31/31/31 30/30/30 29/29/29
f 32/32/32 31/31/31 29/29/29
f 35/35/35 34/34/34 33/33/33
f 36/36/36 35/35/35 33/33/33
f 39/39/39 38/38/38 37/37/37
f 40/40/40 39/39/39 37/37/37
f 43/43/43 42/42/42 41/41/41
f 44/44/44 43/43/43 41/41/41
f 47/47/47 46/46/46 45/45/45
f 48/48/48 47/47/47 45/45/45
