g Fence_0
v -1.716593 -0.064285 -0.011547
v -3.000518 -0.000004 0.000000
v -3.000518 -0.000001 3.305000
v -1.738544 0.436131 3.195671
v -1.738544 0.436131 3.195671
v -3.000518 0.400000 3.705000
v -2.146517 0.563211 3.566358
v -1.414043 1.590987 3.156906
v -1.738544 0.436131 3.195671
v -1.822017 1.718067 3.527593
v 1.635226 0.194675 -0.190037
v 0.659330 0.881411 -0.061520
v 0.949958 0.686459 3.235357
v 1.920754 -0.001890 3.079700
v 3.000518 0.000002 -0.000000
v 1.920754 -0.001890 3.079700
v 3.000518 0.000005 3.305000
v 1.920754 -0.001890 3.079700
v 1.220637 0.977117 3.638161
v 2.191432 0.288766 3.482504
v 1.920754 -0.001890 3.079700
v 3.000518 0.400006 3.705000
v -1.350743 1.067203 -0.173979
v -1.716593 -0.064285 -0.011547
v -1.738544 0.436131 3.195671
v -1.414043 1.590987 3.156906
v -1.716593 -0.064285 -0.011547
v -1.738544 0.436131 3.195671
v -3.000518 -0.000001 3.305000
v -3.000518 -0.000004 0.000000
v -1.738544 0.436131 3.195671
v -3.000518 0.400000 3.705000
v -2.146517 0.563211 3.566358
v -1.414043 1.590987 3.156906
v -1.822017 1.718067 3.527593
v -1.738544 0.436131 3.195671
v 1.635226 0.194675 -0.190037
v 1.920754 -0.001890 3.079700
v 0.949958 0.686459 3.235357
v 0.659330 0.881411 -0.061520
v 3.000518 0.000002 -0.000000
v 1.920754 -0.001890 3.079700
v 3.000518 0.000005 3.305000
v 1.920754 -0.001890 3.079700
v 1.220637 0.977117 3.638161
v 2.191432 0.288766 3.482504
v 3.000518 0.400006 3.705000
v 1.920754 -0.001890 3.079700
v -1.350743 1.067203 -0.173979
v -1.414043 1.590987 3.156906
v -1.738544 0.436131 3.195671
v -1.716593 -0.064285 -0.011547
vt -2.65242004 3.33966494
vt -4.77685118 3.33966589
vt -4.77685308 -2.51036
vt -2.652421 -2.51036096
vt -2.652421 -2.51036096
vt -4.77685213 -3.51165509
vt -2.652421 -3.51165509
vt -0.527989984 -2.51036191
vt -2.652421 -2.51036096
vt -0.527989984 -3.51165509
vt 3.72087312 3.33966398
vt 1.59644198 3.33966398
vt 1.59644103 -2.5103631
vt 3.72087312 -2.51036406
vt 5.84530401 3.33966398
vt 3.72087312 -2.51036406
vt 5.84530401 -2.51036501
vt 3.72087312 -2.51036406
vt 1.59644198 -3.51165509
vt 3.72087312 -3.51165509
vt 3.72087312 -2.51036406
vt 5.84530401 -3.51165509
vt -0.52798897 3.33966494
vt -2.65242004 3.33966494
vt -2.652421 -2.51036096
vt -0.527989984 -2.51036191
vt -2.65242004 3.33966494
vt -2.652421 -2.51036096
vt -4.77685308 -2.51036
vt -4.77685118 3.33966589
vt -2.652421 -2.51036096
vt -4.77685213 -3.51165509
vt -2.652421 -3.51165509
vt -0.527989984 -2.51036191
vt -0.527989984 -3.51165509
vt -2.652421 -2.51036096
vt 3.72087312 3.33966398
vt 3.72087312 -2.51036406
vt 1.59644103 -2.5103631
vt 1.59644198 3.33966398
vt 5.84530401 3.33966398
vt 3.72087312 -2.51036406
vt 5.84530401 -2.51036501
vt 3.72087312 -2.51036406
vt 1.59644198 -3.51165509
vt 3.72087312 -3.51165509
vt 5.84530401 -3.51165509
vt 3.72087312 -2.51036406
vt -0.52798897 3.33966494
vt -0.527989984 -2.51036191
vt -2.652421 -2.51036096
vt -2.65242004 3.33966494
vn 0.147649 -0.986094 0.076272
vn 0.147649 -0.986094 0.076272
vn 0.224551 -0.898663 0.376804
vn 0.224551 -0.898663 0.376804
vn 0.409632 -0.715555 0.565848
vn 0.278127 -0.717880 0.638195
vn 0.486871 -0.463401 0.740416
vn 0.637783 -0.153877 0.754688
vn 0.486871 -0.463401 0.740416
vn 0.637783 -0.153877 0.754688
vn -0.337716 -0.941161 -0.012810
vn -0.576763 -0.816909 0.001899
vn -0.495284 -0.784529 0.373105
vn -0.363919 -0.898920 0.243938
vn -0.074083 -0.996898 -0.026586
vn -0.279752 -0.930690 0.235703
vn -0.101812 -0.932467 0.346611
vn -0.372117 -0.788078 0.490369
vn -0.341750 -0.638015 0.690032
vn -0.230067 -0.691088 0.685176
vn -0.191635 -0.855268 0.481448
vn -0.114860 -0.733578 0.669828
vn 0.957134 -0.283989 0.056967
vn 0.957134 -0.283989 0.056967
vn 0.957134 -0.283989 0.056967
vn 0.957134 -0.283989 0.056967
vn -0.147649 0.986094 -0.076272
vn -0.224551 0.898663 -0.376804
vn -0.224551 0.898663 -0.376804
vn -0.147649 0.986094 -0.076272
vn -0.409632 0.715555 -0.565848
vn -0.278127 0.717880 -0.638195
vn -0.486871 0.463401 -0.740416
vn -0.637783 0.153877 -0.754688
vn -0.637783 0.153877 -0.754688
vn -0.486871 0.463401 -0.740416
vn 0.337716 0.941161 0.012810
vn 0.363919 0.898920 -0.243938
vn 0.495284 0.784529 -0.373105
vn 0.576763 0.816909 -0.001899
vn 0.074083 0.996898 0.026586
vn 0.279752 0.930690 -0.235703
vn 0.101812 0.932467 -0.346611
vn 0.372117 0.788078 -0.490369
vn 0.341750 0.638015 -0.690032
vn 0.230067 0.691088 -0.685176
vn 0.114860 0.733578 -0.669828
vn 0.191635 0.855268 -0.481448
vn -0.957134 0.283989 -0.056967
vn -0.957134 0.283989 -0.056967
vn -0.957134 0.283989 -0.056967
vn -0.957134 0.283989 -0.056967
g Fence_0_0
f 3/3/3 2/2/2 1/1/1
f 4/4/4 3/3/3 1/1/1
f 6/6/6 3/3/3 5/5/5
f 7/7/7 6/6/6 5/5/5
f 7/7/7 9/9/9 8/8/8
f 10/10/10 7/7/7 8/8/8
f 13/13/13 12/12/12 11/11/11
f 14/14/14 13/13/13 11/11/11
f 16/16/16 11/11/11 15/15/15
f 17/17/17 16/16/16 15/15/15
f 19/19/19 13/13/13 18/18/18
f 20/20/20 19/19/19 18/18/18
f 20/20/20 21/21/21 17/17/17
f 22/22/22 20/20/20 17/17/17
f 25/25/25 24/24/24 23/23/23
f 26/26/26 25/25/25 23/23/23
f 29/29/29 28/28/28 27/27/27
f 30/30/30 29/29/29 27/27/27
f 29/29/29 32/32/32 31/31/31
f 32/32/32 33/33/33 31/31/31
f 33/33/33 35/35/35 34/34/34
f 36/36/36 33/33/33 34/34/34
f 39/39/39 38/38/38 37/37/37
f 40/40/40 39/39/39 37/37/37
f 37/37/37 42/42/42 41/41/41
f 42/42/42 43/43/43 41/41/41
f 39/39/39 45/45/45 44/44/44
f 45/45/45 46/46/46 44/44/44
f 46/46/46 47/47/47 43/43/43
f 48/48/48 46/46/46 43/43/43
f 51/51/51 50/50/50 49/49/49
f 52/52/52 51/51/51 49/49/49