g Model_0_Alive
v 0.123506323 0.348526478 0.698795974
v 0.123506323 0.348526478 0.54902637
v 0.12350627 0.533865154 0.54902637
v 0.12350627 0.533865154 0.698795974
v 0.12350627 0.533865154 0.698795974
v 0.12350627 0.533865154 0.54902637
v 0.262772769 0.533865511 0.54902637
v 0.262772769 0.533865511 0.698795974
v 0.262772769 0.533865511 0.698795974
v 0.262772769 0.533865511 0.54902637
v 0.262772828 0.348526835 0.54902637
v 0.262772828 0.348526835 0.698795974
v 0.262772828 0.348526835 0.54902637
v 0.262772769 0.533865511 0.54902637
v 0.12350627 0.533865154 0.54902637
v 0.123506323 0.348526478 0.54902637
v 0.262772769 0.533865511 0.698795974
v 0.262772828 0.348526835 0.698795974
v 0.123506323 0.348526478 0.698795974
v 0.12350627 0.533865154 0.698795974
v -0.33826682 0.250261635 0.968196154
v -0.33826682 0.250261635 0.0441797525
v -0.338267118 0.500261724 0.0441797525
v -0.338267118 0.500261724 0.968196154
v -0.338267118 0.500261724 0.968196154
v -0.338267118 0.500261724 0.0441797525
v 0.338266164 0.500262141 0.0441797525
v 0.338266164 0.500262141 0.968196154
v 0.338266164 0.500262141 0.968196154
v 0.338266164 0.500262141 0.0441797525
v 0.338266432 0.250262111 0.0441797525
v 0.338266432 0.250262111 0.968196154
v 0.338266432 0.250262111 0.0441797525
v 0.338266164 0.500262141 0.0441797525
v -0.338267118 0.500261724 0.0441797525
v -0.33826682 0.250261635 0.0441797525
v 0.338266164 0.500262141 0.968196154
v 0.338266432 0.250262111 0.968196154
v -0.33826682 0.250261635 0.968196154
v -0.338267118 0.500261724 0.968196154
v -0.390625447 0.468749762 0
v -0.390624493 -0.468750149 0
v 0.390625507 -0.468749851 0
v 0.390624553 0.468750298 0
v -0.390625268 0.46874994 2.01597786
v 0.390624851 0.46874994 2.01597786
v 0.390625507 -0.468749911 2.14097786
v -0.390624404 -0.468750268 2.14097786
v -0.390625447 0.468749762 0
v 0.390624553 0.468750298 0
v 0.390624851 0.46874994 2.01597786
v -0.390625268 0.46874994 2.01597786
v 0.390624553 0.468750298 0
v 0.390625507 -0.468749851 0
v 0.390625507 -0.468749911 2.14097786
v 0.390624851 0.46874994 2.01597786
v 0.390625507 -0.468749851 0
v -0.390624493 -0.468750149 0
v -0.390624404 -0.468750268 2.14097786
v 0.390625507 -0.468749911 2.14097786
v -0.390625268 0.46874994 2.01597786
v -0.390624404 -0.468750268 2.14097786
v -0.390624493 -0.468750149 0
v -0.390625447 0.468749762 0
v 0.123506323 0.348526478 1.69715095
v 0.123506323 0.348526478 1.5473814
v 0.12350627 0.533865154 1.5473814
v 0.12350627 0.533865154 1.69715095
v 0.12350627 0.533865154 1.69715095
v 0.12350627 0.533865154 1.5473814
v 0.262772769 0.533865511 1.5473814
v 0.262772769 0.533865511 1.69715095
v 0.262772769 0.533865511 1.69715095
v 0.262772769 0.533865511 1.5473814
v 0.262772828 0.348526835 1.5473814
v 0.262772828 0.348526835 1.69715095
v 0.262772828 0.348526835 1.5473814
v 0.262772769 0.533865511 1.5473814
v 0.12350627 0.533865154 1.5473814
v 0.123506323 0.348526478 1.5473814
v 0.262772769 0.533865511 1.69715095
v 0.262772828 0.348526835 1.69715095
v 0.123506323 0.348526478 1.69715095
v 0.12350627 0.533865154 1.69715095
v -0.33826682 0.250261635 1.95817566
v -0.33826682 0.250261635 1.03415918
v -0.338267118 0.500261724 1.03415918
v -0.338267118 0.500261724 1.95817566
v -0.338267118 0.500261724 1.95817566
v -0.338267118 0.500261724 1.03415918
v 0.338266164 0.500262141 1.03415918
v 0.338266164 0.500262141 1.95817566
v 0.338266164 0.500262141 1.95817566
v 0.338266164 0.500262141 1.03415918
v 0.338266432 0.250262111 1.03415918
v 0.338266432 0.250262111 1.95817566
v 0.338266432 0.250262111 1.03415918
v 0.338266164 0.500262141 1.03415918
v -0.338267118 0.500261724 1.03415918
v -0.33826682 0.250261635 1.03415918
v 0.338266164 0.500262141 1.95817566
v 0.338266432 0.250262111 1.95817566
v -0.33826682 0.250261635 1.95817566
v -0.338267118 0.500261724 1.95817566
v -0.369653523 0.348526478 0.113296151
v -0.369653523 0.348526478 0.0719587207
v -0.369653523 0.533865154 0.0719587207
v -0.369653523 0.533865154 0.113296151
v -0.369653523 0.533865154 0.113296151
v -0.369653523 0.533865154 0.0719587207
v -0.286978662 0.533865154 0.0719587207
v -0.286978662 0.533865154 0.113296151
v -0.286978662 0.533865154 0.113296151
v -0.286978662 0.533865154 0.0719587207
v -0.286978662 0.348526478 0.0719587207
v -0.286978662 0.348526478 0.113296151
v -0.369653523 0.348526478 0.0719587207
v -0.286978662 0.348526478 0.0719587207
v -0.286978662 0.533865154 0.0719587207
v -0.369653523 0.533865154 0.0719587207
v -0.286978662 0.348526478 0.113296151
v -0.369653523 0.348526478 0.113296151
v -0.369653523 0.533865154 0.113296151
v -0.286978662 0.533865154 0.113296151
v -0.369653523 0.348526478 0.934730172
v -0.369653523 0.348526478 0.893392742
v -0.369653523 0.533865154 0.893392742
v -0.369653523 0.533865154 0.934730172
v -0.369653523 0.533865154 0.934730172
v -0.369653523 0.533865154 0.893392742
v -0.286978662 0.533865154 0.893392742
v -0.286978662 0.533865154 0.934730172
v -0.286978662 0.533865154 0.934730172
v -0.286978662 0.533865154 0.893392742
v -0.286978662 0.348526478 0.893392742
v -0.286978662 0.348526478 0.934730172
v -0.369653523 0.348526478 0.893392742
v -0.286978662 0.348526478 0.893392742
v -0.286978662 0.533865154 0.893392742
v -0.369653523 0.533865154 0.893392742
v -0.286978662 0.348526478 0.934730172
v -0.369653523 0.348526478 0.934730172
v -0.369653523 0.533865154 0.934730172
v -0.286978662 0.533865154 0.934730172
v -0.369653523 0.348526478 1.10853577
v -0.369653523 0.348526478 1.0671984
v -0.369653523 0.533865154 1.0671984
v -0.369653523 0.533865154 1.10853577
v -0.369653523 0.533865154 1.10853577
v -0.369653523 0.533865154 1.0671984
v -0.286978662 0.533865154 1.0671984
v -0.286978662 0.533865154 1.10853577
v -0.286978662 0.533865154 1.10853577
v -0.286978662 0.533865154 1.0671984
v -0.286978662 0.348526478 1.0671984
v -0.286978662 0.348526478 1.10853577
v -0.369653523 0.348526478 1.0671984
v -0.286978662 0.348526478 1.0671984
v -0.286978662 0.533865154 1.0671984
v -0.369653523 0.533865154 1.0671984
v -0.286978662 0.348526478 1.10853577
v -0.369653523 0.348526478 1.10853577
v -0.369653523 0.533865154 1.10853577
v -0.286978662 0.533865154 1.10853577
v -0.369653523 0.348526478 1.92996979
v -0.369653523 0.348526478 1.88863242
v -0.369653523 0.533865154 1.88863242
v -0.369653523 0.533865154 1.92996979
v -0.369653523 0.533865154 1.92996979
v -0.369653523 0.533865154 1.88863242
v -0.286978662 0.533865154 1.88863242
v -0.286978662 0.533865154 1.92996979
v -0.286978662 0.533865154 1.92996979
v -0.286978662 0.533865154 1.88863242
v -0.286978662 0.348526478 1.88863242
v -0.286978662 0.348526478 1.92996979
v -0.369653523 0.348526478 1.88863242
v -0.286978662 0.348526478 1.88863242
v -0.286978662 0.533865154 1.88863242
v -0.369653523 0.533865154 1.88863242
v -0.286978662 0.348526478 1.92996979
v -0.369653523 0.348526478 1.92996979
v -0.369653523 0.533865154 1.92996979
v -0.286978662 0.533865154 1.92996979
vt 0.724793196 0.292439938
vt 0.719470799 0.292439938
vt 0.719470799 0.308793843
vt 0.724793196 0.308793843
vt 0.619061351 0.225085676
vt 0.613738954 0.225085676
vt 0.613738954 0.259732068
vt 0.619061351 0.259732068
vt 0.613738954 0.310732365
vt 0.619061351 0.310732365
vt 0.619061351 0.294378459
vt 0.613738954 0.294378459
vt 0.763854206 0.342455208
vt 0.780320287 0.342455208
vt 0.780320287 0.307808816
vt 0.763854206 0.307808816
vt 0.91516608 0.272842467
vt 0.898699939 0.272842467
vt 0.898699939 0.307488859
vt 0.91516608 0.307488859
vt 0.836889207 0.794053316
vt 0.836889207 0.845921755
vt 0.859100044 0.845921755
vt 0.859100044 0.794053316
vt 0.907184422 0.845921755
vt 0.907184422 0.794053316
vt 0.859100044 0.794053316
vt 0.859100044 0.845921755
vt 0.672197938 0.845921755
vt 0.672197938 0.794053316
vt 0.649987042 0.794053316
vt 0.649987042 0.845921755
vt 0.907184482 0.841810107
vt 0.929395318 0.841810107
vt 0.929395318 0.794053316
vt 0.907184482 0.794053316
vt 0.944280744 0.694428027
vt 0.922069907 0.694428027
vt 0.922069907 0.742184758
vt 0.944280744 0.742184758
vt 0.17871061 0.532039523
vt 0.17871061 0.614762664
vt 0.234237701 0.614762723
vt 0.234237671 0.532039523
vt 0.317528367 0.532039464
vt 0.262001276 0.532039523
vt 0.262001276 0.614762664
vt 0.317528367 0.614762664
vt 0.317528427 0.532039523
vt 0.373055518 0.532039464
vt 0.373055458 0.361092359
vt 0.317528367 0.361092359
vt 0.150947034 0.532039523
vt 0.234237701 0.532039464
vt 0.234237641 0.361092359
vt 0.150947005 0.361092359
vt 0.428582609 0.361092359
vt 0.373055518 0.361092359
vt 0.373055518 0.532039464
vt 0.428582609 0.532039464
vt 0.317528367 0.361092359
vt 0.234237701 0.361092359
vt 0.234237731 0.532039464
vt 0.317528367 0.532039464
vt 0.719470799 0.292439938
vt 0.724793196 0.292439938
vt 0.724793196 0.276085973
vt 0.719470799 0.276085973
vt 0.719470799 0.259732008
vt 0.724793196 0.259732008
vt 0.724793196 0.225085616
vt 0.719470799 0.225085616
vt 0.719470799 0.276085973
vt 0.724793196 0.276085973
vt 0.724793196 0.259732068
vt 0.719470799 0.259732068
vt 0.680563509 0.342455208
vt 0.69702965 0.342455208
vt 0.69702965 0.307808816
vt 0.680563509 0.307808816
vt 0.741259277 0.307808816
vt 0.724793196 0.307808816
vt 0.724793196 0.342455208
vt 0.741259277 0.342455208
vt 0.649987042 0.742184818
vt 0.649987042 0.794053316
vt 0.672197938 0.794053257
vt 0.672197878 0.742184818
vt 0.859100044 0.794053316
vt 0.859100044 0.742184818
vt 0.811015666 0.742184818
vt 0.811015666 0.794053316
vt 0.727725029 0.742184758
vt 0.727725029 0.794053316
vt 0.749935865 0.794053257
vt 0.749935865 0.742184758
vt 0.907184482 0.789941609
vt 0.929395318 0.789941609
vt 0.929395318 0.742184818
vt 0.907184482 0.742184818
vt 0.944280744 0.618994415
vt 0.922069907 0.618994474
vt 0.922069907 0.666751266
vt 0.944280744 0.666751266
vt 0.679618001 0.239847645
vt 0.679618001 0.293818712
vt 0.733589053 0.293818712
vt 0.733589053 0.239847645
vt 0.679618001 0.239847645
vt 0.679618001 0.293818712
vt 0.733589053 0.293818712
vt 0.733589053 0.239847645
vt 0.679618001 0.239847645
vt 0.679618001 0.293818712
vt 0.733589053 0.293818712
vt 0.733589053 0.239847645
vt 0.679618001 0.239847645
vt 0.679618001 0.293818712
vt 0.733589053 0.293818712
vt 0.733589053 0.239847645
vt 0.679618001 0.239847645
vt 0.679618001 0.293818712
vt 0.733589053 0.293818712
vt 0.733589053 0.239847645
vt 0.679618001 0.239847645
vt 0.679618001 0.293818712
vt 0.733589053 0.293818712
vt 0.733589053 0.239847645
vt 0.679618001 0.239847645
vt 0.679618001 0.293818712
vt 0.733589053 0.293818712
vt 0.733589053 0.239847645
vt 0.679618001 0.239847645
vt 0.679618001 0.293818712
vt 0.733589053 0.293818712
vt 0.733589053 0.239847645
vt 0.679618001 0.239847645
vt 0.679618001 0.293818712
vt 0.733589053 0.293818712
vt 0.733589053 0.239847645
vt 0.679618001 0.239847645
vt 0.679618001 0.293818712
vt 0.733589053 0.293818712
vt 0.733589053 0.239847645
vt 0.679618001 0.239847645
vt 0.679618001 0.293818712
vt 0.733589053 0.293818712
vt 0.733589053 0.239847645
vt 0.679618001 0.239847645
vt 0.679618001 0.293818712
vt 0.733589053 0.293818712
vt 0.733589053 0.239847645
vt 0.679618001 0.239847645
vt 0.679618001 0.293818712
vt 0.733589053 0.293818712
vt 0.733589053 0.239847645
vt 0.679618001 0.239847645
vt 0.679618001 0.293818712
vt 0.733589053 0.293818712
vt 0.733589053 0.239847645
vt 0.679618001 0.239847645
vt 0.679618001 0.293818712
vt 0.733589053 0.293818712
vt 0.733589053 0.239847645
vt 0.679618001 0.239847645
vt 0.679618001 0.293818712
vt 0.733589053 0.293818712
vt 0.733589053 0.239847645
vt 0.679618001 0.239847645
vt 0.679618001 0.293818712
vt 0.733589053 0.293818712
vt 0.733589053 0.239847645
vt 0.679618001 0.239847645
vt 0.679618001 0.293818712
vt 0.733589053 0.293818712
vt 0.733589053 0.239847645
vt 0.679618001 0.239847645
vt 0.679618001 0.293818712
vt 0.733589053 0.293818712
vt 0.733589053 0.239847645
vt 0.679618001 0.239847645
vt 0.679618001 0.293818712
vt 0.733589053 0.293818712
vt 0.733589053 0.239847645
vn -1 0 0
vn -1 0 0
vn -1 0 0
vn -1 0 0
vn -0 1 0
vn -0 1 0
vn -0 1 0
vn -0 1 0
vn 1 0 0
vn 1 0 0
vn 1 0 0
vn 1 0 0
vn -0 0 -1
vn -0 0 -1
vn -0 0 -1
vn -0 0 -1
vn -0 0 1
vn -0 0 1
vn -0 0 1
vn -0 0 1
vn -1 0 0
vn -1 0 0
vn -1 0 0
vn -1 0 0
vn -0 1 0
vn -0 1 0
vn -0 1 0
vn -0 1 0
vn 1 0 0
vn 1 0 0
vn 1 0 0
vn 1 0 0
vn -0 0 -1
vn -0 0 -1
vn -0 0 -1
vn -0 0 -1
vn -0 0 1
vn -0 0 1
vn -0 0 1
vn -0 0 1
vn -0 0 -1
vn -0 0 -1
vn -0 0 -1
vn -0 0 -1
vn -0 0.132163703 0.991227865
vn -0 0.132163703 0.991227865
vn -0 0.132163703 0.991227865
vn -0 0.132163703 0.991227865
vn -0 1 0
vn -0 1 0
vn -0 1 0
vn -0 1 0
vn 1 0 0
vn 1 0 0
vn 1 0 0
vn 1 0 0
vn -0 -1 0
vn -0 -1 0
vn -0 -1 0
vn -0 -1 0
vn -1 0 0
vn -1 0 0
vn -1 0 0
vn -1 0 0
vn -1 0 0
vn -1 0 0
vn -1 0 0
vn -1 0 0
vn -0 1 0
vn -0 1 0
vn -0 1 0
vn -0 1 0
vn 1 0 0
vn 1 0 0
vn 1 0 0
vn 1 0 0
vn -0 0 -1
vn -0 0 -1
vn -0 0 -1
vn -0 0 -1
vn -0 0 1
vn -0 0 1
vn -0 0 1
vn -0 0 1
vn -1 0 0
vn -1 0 0
vn -1 0 0
vn -1 0 0
vn -0 1 0
vn -0 1 0
vn -0 1 0
vn -0 1 0
vn 1 0 0
vn 1 0 0
vn 1 0 0
vn 1 0 0
vn -0 0 -1
vn -0 0 -1
vn -0 0 -1
vn -0 0 -1
vn -0 0 1
vn -0 0 1
vn -0 0 1
vn -0 0 1
vn -1 0 0
vn -1 0 0
vn -1 0 0
vn -1 0 0
vn -0 1 0
vn -0 1 0
vn -0 1 0
vn -0 1 0
vn 1 0 0
vn 1 0 0
vn 1 0 0
vn 1 0 0
vn -0 0 -1
vn -0 0 -1
vn -0 0 -1
vn -0 0 -1
vn -0 0 1
vn -0 0 1
vn -0 0 1
vn -0 0 1
vn -1 0 0
vn -1 0 0
vn -1 0 0
vn -1 0 0
vn -0 1 0
vn -0 1 0
vn -0 1 0
vn -0 1 0
vn 1 0 0
vn 1 0 0
vn 1 0 0
vn 1 0 0
vn -0 0 -1
vn -0 0 -1
vn -0 0 -1
vn -0 0 -1
vn -0 0 1
vn -0 0 1
vn -0 0 1
vn -0 0 1
vn -1 0 0
vn -1 0 0
vn -1 0 0
vn -1 0 0
vn -0 1 0
vn -0 1 0
vn -0 1 0
vn -0 1 0
vn 1 0 0
vn 1 0 0
vn 1 0 0
vn 1 0 0
vn -0 0 -1
vn -0 0 -1
vn -0 0 -1
vn -0 0 -1
vn -0 0 1
vn -0 0 1
vn -0 0 1
vn -0 0 1
vn -1 0 0
vn -1 0 0
vn -1 0 0
vn -1 0 0
vn -0 1 0
vn -0 1 0
vn -0 1 0
vn -0 1 0
vn 1 0 0
vn 1 0 0
vn 1 0 0
vn 1 0 0
vn -0 0 -1
vn -0 0 -1
vn -0 0 -1
vn -0 0 -1
vn -0 0 1
vn -0 0 1
vn -0 0 1
vn -0 0 1
g Model_0_Alive_0
f 3/3/3 2/2/2 1/1/1
f 4/4/4 3/3/3 1/1/1
f 7/7/7 6/6/6 5/5/5
f 8/8/8 7/7/7 5/5/5
f 11/11/11 10/10/10 9/9/9
f 12/12/12 11/11/11 9/9/9
f 15/15/15 14/14/14 13/13/13
f 16/16/16 15/15/15 13/13/13
f 19/19/19 18/18/18 17/17/17
f 20/20/20 19/19/19 17/17/17
f 23/23/23 22/22/22 21/21/21
f 24/24/24 23/23/23 21/21/21
f 27/27/27 26/26/26 25/25/25
f 28/28/28 27/27/27 25/25/25
f 31/31/31 30/30/30 29/29/29
f 32/32/32 31/31/31 29/29/29
f 35/35/35 34/34/34 33/33/33
f 36/36/36 35/35/35 33/33/33
f 39/39/39 38/38/38 37/37/37
f 40/40/40 39/39/39 37/37/37
f 43/43/43 42/42/42 41/41/41
f 44/44/44 43/43/43 41/41/41
f 47/47/47 46/46/46 45/45/45
f 48/48/48 47/47/47 45/45/45
f 51/51/51 50/50/50 49/49/49
f 52/52/52 51/51/51 49/49/49
f 55/55/55 54/54/54 53/53/53
f 56/56/56 55/55/55 53/53/53
f 59/59/59 58/58/58 57/57/57
f 60/60/60 59/59/59 57/57/57
f 63/63/63 62/62/62 61/61/61
f 64/64/64 63/63/63 61/61/61
f 67/67/67 66/66/66 65/65/65
f 68/68/68 67/67/67 65/65/65
f 71/71/71 70/70/70 69/69/69
f 72/72/72 71/71/71 69/69/69
f 75/75/75 74/74/74 73/73/73
f 76/76/76 75/75/75 73/73/73
f 79/79/79 78/78/78 77/77/77
f 80/80/80 79/79/79 77/77/77
f 83/83/83 82/82/82 81/81/81
f 84/84/84 83/83/83 81/81/81
f 87/87/87 86/86/86 85/85/85
f 88/88/88 87/87/87 85/85/85
f 91/91/91 90/90/90 89/89/89
f 92/92/92 91/91/91 89/89/89
f 95/95/95 94/94/94 93/93/93
f 96/96/96 95/95/95 93/93/93
f 99/99/99 98/98/98 97/97/97
f 100/100/100 99/99/99 97/97/97
f 103/103/103 102/102/102 101/101/101
f 104/104/104 103/103/103 101/101/101
f 107/107/107 106/106/106 105/105/105
f 108/108/108 107/107/107 105/105/105
f 111/111/111 110/110/110 109/109/109
f 112/112/112 111/111/111 109/109/109
f 115/115/115 114/114/114 113/113/113
f 116/116/116 115/115/115 113/113/113
f 119/119/119 118/118/118 117/117/117
f 120/120/120 119/119/119 117/117/117
f 123/123/123 122/122/122 121/121/121
f 124/124/124 123/123/123 121/121/121
f 127/127/127 126/126/126 125/125/125
f 128/128/128 127/127/127 125/125/125
f 131/131/131 130/130/130 129/129/129
f 132/132/132 131/131/131 129/129/129
f 135/135/135 134/134/134 133/133/133
f 136/136/136 135/135/135 133/133/133
f 139/139/139 138/138/138 137/137/137
f 140/140/140 139/139/139 137/137/137
f 143/143/143 142/142/142 141/141/141
f 144/144/144 143/143/143 141/141/141
f 147/147/147 146/146/146 145/145/145
f 148/148/148 147/147/147 145/145/145
f 151/151/151 150/150/150 149/149/149
f 152/152/152 151/151/151 149/149/149
f 155/155/155 154/154/154 153/153/153
f 156/156/156 155/155/155 153/153/153
f 159/159/159 158/158/158 157/157/157
f 160/160/160 159/159/159 157/157/157
f 163/163/163 162/162/162 161/161/161
f 164/164/164 163/163/163 161/161/161
f 167/167/167 166/166/166 165/165/165
f 168/168/168 167/167/167 165/165/165
f 171/171/171 170/170/170 169/169/169
f 172/172/172 171/171/171 169/169/169
f 175/175/175 174/174/174 173/173/173
f 176/176/176 175/175/175 173/173/173
f 179/179/179 178/178/178 177/177/177
f 180/180/180 179/179/179 177/177/177
f 183/183/183 182/182/182 181/181/181
f 184/184/184 183/183/183 181/181/181
