v -3.250002 -4.200000 -0.000000
v -5.750002 -4.200000 -0.000000
v 3.500003 5.699997 -0.000000
v 3.500003 5.699997 -0.000000
v 3.499996 1.799994 -0.000000
v 3.499996 -2.200006 -0.000000
v -3.250002 -4.200000 -0.000000
v 3.499996 -4.200006 -0.000000
v 3.999996 1.799994 -0.000000
v 3.999996 -2.200006 -0.000000
v -3.250002 -4.700000 -0.000000
v -5.750002 -4.700000 -0.000000
v -3.250002 -4.200000 -0.000000
v -7.499999 11.700000 -0.000000
v -5.750002 -4.200000 -0.000000
v -7.500002 -4.199998 -0.000000
v -5.750002 -4.200000 -0.000000
v 3.500003 5.699997 -0.000000
v 3.500003 9.699997 -0.000000
v 4.000003 9.699997 -0.000000
v 4.000003 5.699997 -0.000000
v -7.499999 11.700000 -0.000000
v 3.500003 11.699997 -0.000000
v -5.750002 -4.700000 -0.000000
v -5.750002 -4.200000 -0.000000
v -3.250002 -4.200000 -0.000000
v 3.999996 1.799994 -0.000000
v 3.499996 1.799994 3.750000
v 3.999996 1.799994 3.750000
v 3.499996 1.799994 -0.000000
v 3.500003 5.699997 3.750000
v 4.000003 5.699997 -0.000000
v 4.000003 5.699997 3.750000
v 3.500003 5.699997 -0.000000
v -7.999998 12.200003 -6.000000
v 4.000003 12.199997 5.750000
v -7.999999 12.200000 5.750000
v 4.000000 12.200000 -6.000000
v -2.500003 -12.200003 1.000000
v -2.500003 -11.700003 3.750000
v -2.500003 -12.200003 3.750000
v -2.500003 -11.700003 1.000000
v 7.499996 -9.450006 -0.000000
v 7.999996 -6.950006 -0.000000
v 7.999996 -9.450006 -0.000000
v 7.499996 -6.950006 -0.000000
v 2.499996 -11.700005 -0.000000
v 7.499996 -11.700005 -0.000000
v -3.250002 -4.700000 -0.000000
v 7.499996 -4.700006 -0.000000
v -2.500003 -11.700003 -0.000000
v -3.250002 -11.700001 -0.000000
v -5.750002 -4.700000 -0.000000
v -7.500002 -11.699999 -0.000000
v -7.500002 -4.699998 -0.000000
v 3.499996 -2.200006 -0.000000
v 3.999996 -2.200006 3.750000
v 3.499996 -2.200006 3.750000
v 3.999996 -2.200006 -0.000000
v 2.499996 -11.700005 1.000000
v -1.500003 -12.200003 1.000000
v -1.500003 -11.700003 1.000000
v 2.499996 -12.200005 1.000000
v -7.499999 11.700000 4.250000
v 3.500003 11.699997 -0.000000
v -7.499999 11.700000 -0.000000
v 3.500003 11.699997 4.250000
v 7.999996 -6.950006 2.750000
v 7.499996 -6.950006 -0.000000
v 7.499996 -6.950006 2.750000
v 7.999996 -6.950006 -0.000000
v 2.499996 -12.200005 3.750000
v 2.499996 -11.700005 1.000000
v 2.499996 -11.700005 3.750000
v 2.499996 -12.200005 1.000000
v -5.750002 -4.700000 2.750000
v -5.750002 -4.200000 -0.000000
v -5.750002 -4.700000 -0.000000
v -5.750002 -4.200000 2.750000
v 4.000003 9.699997 3.750000
v 3.500003 9.699997 -0.000000
v 3.500003 9.699997 3.750000
v 4.000003 9.699997 -0.000000
v -7.500002 -11.699999 4.250000
v -7.500002 -4.699998 -0.000000
v -7.500002 -11.699999 -0.000000
v -7.500002 -4.699998 4.250000
v 7.499996 -4.700006 4.750000
v 3.499996 -4.700006 5.750000
v 7.499996 -4.700006 5.750000
v 3.499996 -4.700006 4.750000
v 3.499996 -4.200006 4.250000
v 3.500003 5.699997 3.750000
v 3.500003 11.699997 4.250000
v 3.499996 -2.200006 3.750000
v 3.499996 1.799994 3.750000
v 3.499996 -4.200006 -0.000000
v 3.499996 -2.200006 -0.000000
v 3.499996 1.799994 3.750000
v 3.500003 5.699997 -0.000000
v 3.499996 1.799994 -0.000000
v 3.500003 5.699997 3.750000
v 3.499996 -4.200006 4.250000
v 3.500003 9.699997 3.750000
v 3.500003 11.699997 4.250000
v 3.500003 11.699997 -0.000000
v 3.500003 9.699997 -0.000000
v 3.500003 11.699997 4.250000
v -1.500003 -11.700003 1.000000
v -1.500003 -12.200003 3.750000
v -1.500003 -11.700003 3.750000
v -1.500003 -12.200003 1.000000
v -5.750002 -4.700000 2.750000
v -3.250002 -4.200000 2.750000
v -5.750002 -4.200000 2.750000
v -3.250002 -4.700000 2.750000
v 7.999996 -9.450006 2.750000
v 7.499996 -6.950006 2.750000
v 7.499996 -9.450006 2.750000
v 7.999996 -6.950006 2.750000
v -7.500002 -11.699999 5.750000
v 7.499996 -11.700005 4.750000
v 7.499996 -11.700005 5.750000
v -7.500002 -11.699999 4.750000
v -7.500002 -4.199998 4.250000
v -7.499999 11.700000 -0.000000
v -7.500002 -4.199998 -0.000000
v -7.499999 11.700000 4.250000
v -7.500002 -4.199998 4.250000
v 3.500003 11.699997 4.250000
v -7.499999 11.700000 4.250000
v 3.499996 -4.200006 4.250000
v 2.499996 -11.700005 4.250000
v -7.500002 -4.699998 4.250000
v -7.500002 -11.699999 4.250000
v 7.499996 -4.700006 4.250000
v 7.499996 -11.700005 4.250000
v 7.499996 -9.450006 -0.000000
v 7.999996 -9.450006 2.750000
v 7.499996 -9.450006 2.750000
v 7.999996 -9.450006 -0.000000
v 3.500003 11.699997 4.750000
v -7.499999 11.700000 5.750000
v 3.500003 11.699997 5.750000
v -7.499999 11.700000 4.750000
v -6.500002 -11.699999 3.750000
v -6.500002 -12.199999 1.000000
v -6.500002 -12.199999 3.750000
v -6.500002 -11.699999 1.000000
v -3.250002 -4.700000 -0.000000
v -3.250002 -4.200000 2.750000
v -3.250002 -4.700000 2.750000
v -3.250002 -4.200000 -0.000000
v 7.499996 -11.700005 4.750000
v 7.499996 -4.700006 5.750000
v 7.499996 -11.700005 5.750000
v 7.499996 -4.700006 4.750000
v 3.499996 -4.700006 4.750000
v 3.500003 11.699997 5.750000
v 3.499996 -4.700006 5.750000
v 3.500003 11.699997 4.750000
v -6.500002 -12.199999 3.750000
v -2.500003 -11.700003 3.750000
v -6.500002 -11.699999 3.750000
v -2.500003 -12.200003 3.750000
v -1.500003 -12.200003 3.750000
v 2.499996 -11.700005 3.750000
v -1.500003 -11.700003 3.750000
v 2.499996 -12.200005 3.750000
v 3.499996 -2.200006 3.750000
v 3.999996 1.799994 3.750000
v 3.499996 1.799994 3.750000
v 3.999996 -2.200006 3.750000
v 4.000003 5.699997 3.750000
v 3.500003 9.699997 3.750000
v 3.500003 5.699997 3.750000
v 4.000003 9.699997 3.750000
v -5.750002 -4.200000 -0.000000
v -5.750002 -4.200000 2.750000
v -7.500002 -4.199998 -0.000000
v -7.500002 -4.199998 4.250000
v -3.250002 -4.200000 2.750000
v 3.499996 -4.200006 4.250000
v 3.499996 -4.200006 -0.000000
v -3.250002 -4.200000 -0.000000
v -6.500002 -11.699999 1.000000
v -3.250002 -12.200001 1.000000
v -6.500002 -12.199999 1.000000
v -3.250002 -11.700001 1.000000
v -2.500003 -11.700003 1.000000
v -2.500003 -12.200003 1.000000
v -8.000002 -3.199998 5.750000
v -7.999998 12.200003 -6.000000
v -7.999999 12.200000 5.750000
v -8.000001 -12.199999 -6.000000
v -8.000002 -6.949999 5.750000
v -8.000002 -12.199999 5.750000
v 7.499996 -9.450006 -0.000000
v 7.499996 -9.450006 2.750000
v 7.499996 -11.700005 -0.000000
v 7.499996 -11.700005 4.250000
v 7.499996 -6.950006 2.750000
v 7.499996 -4.700006 4.250000
v 7.499996 -4.700006 -0.000000
v 7.499996 -6.950006 -0.000000
v -3.250002 -4.700000 2.750000
v 7.499996 -4.700006 -0.000000
v -3.250002 -4.700000 -0.000000
v 7.499996 -4.700006 4.250000
v -7.500002 -4.699998 4.250000
v -5.750002 -4.700000 2.750000
v -7.500002 -4.699998 -0.000000
v -5.750002 -4.700000 -0.000000
v 8.000000 -4.200001 -6.000000
v 7.999996 -4.200006 -0.000000
v 4.000000 -4.200001 -6.000000
v 3.999996 -4.200006 5.750000
v 7.999996 -4.200006 5.750000
v -7.499999 11.700000 5.750000
v -7.499999 11.700000 4.750000
v -7.500002 -3.199998 5.750000
v -7.500002 -11.699999 4.750000
v -7.500002 -6.949999 5.750000
v -7.500002 -11.699999 5.750000
v 3.499996 -4.700006 4.750000
v -7.499999 11.700000 4.750000
v 3.500003 11.699997 4.750000
v -7.500002 -11.699999 4.750000
v 7.499996 -11.700005 4.750000
v 7.499996 -4.700006 4.750000
v 4.000000 -4.200001 -6.000000
v 3.999996 -2.200006 -0.000000
v 4.000000 2.799999 -6.000000
v 3.999996 -4.200006 5.750000
v 3.999996 -2.200006 3.750000
v 3.999996 2.799994 5.750000
v 3.999996 1.799994 3.750000
v 3.999996 1.799994 -0.000000
v 4.000003 4.699997 5.750000
v 4.000003 5.699997 -0.000000
v 4.000000 4.700000 -6.000000
v 4.000003 5.699997 3.750000
v 4.000003 9.699997 3.750000
v 4.000003 12.199997 5.750000
v 4.000003 9.699997 -0.000000
v 4.000000 12.200000 -6.000000
v 4.000003 12.199997 5.750000
v 4.000003 4.699997 5.750000
v 3.500003 11.699997 5.750000
v -7.999999 12.200000 5.750000
v 3.999996 2.799994 5.750000
v -7.499999 11.700000 5.750000
v 3.499996 -4.700006 5.750000
v 3.999996 -4.200006 5.750000
v -8.000002 -3.199998 5.750000
v -7.500002 -3.199998 5.750000
v -7.500002 -6.949999 5.750000
v -8.000002 -6.949999 5.750000
v 7.499996 -4.700006 5.750000
v 7.999996 -4.200006 5.750000
v 7.999996 -12.200005 5.750000
v -7.500002 -11.699999 5.750000
v -8.000002 -12.199999 5.750000
v -1.500003 -12.200003 5.750000
v 7.499996 -11.700005 5.750000
v 2.499996 -12.200005 5.750000
v 7.999996 -12.200005 5.750000
v 2.499996 -12.200005 3.750000
v 2.499996 -12.200005 5.750000
v 7.999996 -12.200005 -0.000000
v -1.500003 -12.200003 5.750000
v 2.499996 -12.200005 1.000000
v 8.000000 -12.200001 -6.000000
v -2.500000 -12.200000 -6.000000
v -1.500003 -12.200003 3.750000
v -1.500003 -12.200003 1.000000
v -2.500003 -12.200003 3.750000
v -6.500002 -12.199999 3.750000
v -8.000002 -12.199999 5.750000
v -2.500003 -12.200003 1.000000
v -6.500002 -12.199999 1.000000
v -8.000001 -12.199999 -6.000000
v -3.250001 -12.199999 -6.000000
v -3.250002 -12.200001 1.000000
v -6.500002 -11.699999 3.750000
v -7.500002 -11.699999 4.250000
v -6.500002 -11.699999 1.000000
v -2.500003 -11.700003 3.750000
v -7.500002 -11.699999 -0.000000
v -3.250002 -11.700001 -0.000000
v -3.250002 -11.700001 1.000000
v -2.500003 -11.700003 1.000000
v 2.499996 -11.700005 4.250000
v -2.500003 -11.700003 -0.000000
v -1.500003 -11.700003 3.750000
v 2.499996 -11.700005 3.750000
v 7.499996 -11.700005 4.250000
v -1.500003 -11.700003 1.000000
v 2.499996 -11.700005 -0.000000
v 2.499996 -11.700005 1.000000
v 7.499996 -11.700005 -0.000000
v 7.999996 -6.950006 2.750000
v 7.999996 -12.200005 5.750000
v 7.999996 -4.200006 5.750000
v 7.999996 -4.200006 -0.000000
v 7.999996 -9.450006 2.750000
v 7.999996 -12.200005 -0.000000
v 7.999996 -9.450006 -0.000000
v 8.000000 -12.200001 -6.000000
v 7.999996 -6.950006 -0.000000
v 8.000000 -4.200001 -6.000000
vt 0.600195587 0.178479075
vt 0.663854122 0.182903498
vt 0.599236608 0.177215725
vt 0.599236608 0.177215725
vt 0.599236608 0.177485406
vt 0.599236608 0.178337127
vt 0.600195587 0.178479075
vt 0.599236608 0.178479075
vt 0.599165559 0.177485406
vt 0.599165559 0.178337127
vt 0.109786466 0.258091837
vt 0.10921599 0.258091837
vt 0.211466089 0.265312463
vt 0.600799382 0.176222056
vt 0.663854122 0.182903498
vt 0.600799382 0.178479075
vt 0.663854122 0.182903498
vt 0.599236608 0.177215725
vt 0.599236608 0.176364005
vt 0.599165559 0.176364005
vt 0.599165559 0.177215725
vt 0.600799382 0.176222056
vt 0.599236608 0.176222056
vt 0.10921599 0.258091837
vt 0.10921599 0.258205831
vt 0.211466089 0.265312463
vt 0.875316083 0.175596893
vt 0.874700069 0.180213213
vt 0.875316083 0.180213213
vt 0.874700069 0.175596893
vt 0.876240134 0.180213213
vt 0.875624061 0.175596893
vt 0.875624061 0.180213213
vt 0.876240134 0.175596893
vt 0.155065149 0.78668952
vt 0.140588313 0.771917284
vt 0.140588373 0.78668952
vt 0.155065149 0.771917284
vt 0.619505286 0.760668278
vt 0.618889272 0.764053583
vt 0.619505286 0.764053583
vt 0.618889272 0.760668278
vt 0.13306725 0.236362457
vt 0.133683264 0.239439964
vt 0.133683264 0.236362457
vt 0.13306725 0.239439964
vt 0.126906902 0.233592629
vt 0.13306725 0.233592629
vt 0.11982251 0.242209792
vt 0.13306725 0.242209733
vt 0.12074656 0.233592629
vt 0.11982251 0.233592629
vt 0.11674235 0.242209792
vt 0.114586212 0.233592629
vt 0.114586212 0.242209792
vt 0.874700069 0.175596893
vt 0.874083996 0.180213213
vt 0.874700069 0.180213213
vt 0.874083996 0.175596893
vt 0.629669905 0.763438046
vt 0.630285859 0.758513987
vt 0.629669905 0.758513987
vt 0.630285859 0.763438046
vt 0.87504673 0.71960777
vt 0.880282998 0.733148992
vt 0.880282998 0.71960777
vt 0.87504673 0.733148992
vt 0.629669905 0.766515613
vt 0.629053831 0.763130307
vt 0.629053831 0.766515613
vt 0.629669905 0.763130307
vt 0.662627697 0.76608479
vt 0.662011623 0.762699485
vt 0.662011623 0.76608479
vt 0.662627697 0.762699485
vt 0.627513766 0.766515613
vt 0.62812978 0.763130307
vt 0.627513766 0.763130307
vt 0.62812978 0.766515613
vt 0.876240134 0.175596893
vt 0.876856208 0.180213213
vt 0.876856208 0.175596893
vt 0.876240134 0.180213213
vt 0.848837852 0.734920025
vt 0.843601525 0.726302862
vt 0.843601525 0.734920025
vt 0.848837852 0.726302862
vt 0.135968119 0.772532761
vt 0.137200147 0.77745688
vt 0.137200147 0.772532761
vt 0.135968119 0.77745688
vt 0.876586795 0.743489563
vt 0.87597084 0.754445672
vt 0.876586795 0.763062835
vt 0.87597084 0.744720638
vt 0.87597084 0.752106726
vt 0.871350527 0.743489563
vt 0.871350527 0.744720638
vt 0.87597084 0.752106726
vt 0.871350527 0.754445672
vt 0.871350527 0.752106726
vt 0.87597084 0.754445672
vt 0.876586795 0.743489563
vt 0.87597084 0.76183182
vt 0.876586795 0.763062835
vt 0.871350527 0.763062835
vt 0.871350527 0.76183182
vt 0.876586795 0.763062835
vt 0.629053831 0.763130307
vt 0.628437757 0.766515613
vt 0.629053831 0.766515613
vt 0.628437757 0.763130307
vt 0.626897693 0.763130307
vt 0.627513766 0.766207874
vt 0.627513766 0.763130307
vt 0.626897693 0.766207874
vt 0.626897693 0.766515613
vt 0.626281738 0.763438046
vt 0.626281738 0.766515613
vt 0.626897693 0.763438046
vt 0.0931537151 0.768039525
vt 0.0919216573 0.786504865
vt 0.0931537151 0.786504865
vt 0.0919216573 0.768039525
vt 0.872274637 0.763062835
vt 0.877510905 0.782636046
vt 0.877510905 0.763062835
vt 0.872274637 0.782636046
vt 0.397638142 0.232883692
vt 0.384085417 0.252456963
vt 0.397638142 0.252456963
vt 0.384085417 0.232883692
vt 0.392709851 0.216388047
vt 0.401334345 0.20407784
vt 0.392709851 0.20407784
vt 0.401334345 0.22254312
vt 0.392709851 0.22254312
vt 0.660471559 0.76608479
vt 0.661087632 0.762699485
vt 0.660471559 0.762699485
vt 0.661087632 0.76608479
vt 0.0943857729 0.781580806
vt 0.0931536853 0.768039525
vt 0.0931537151 0.781580806
vt 0.0943857729 0.768039525
vt 0.660471559 0.76608479
vt 0.659855604 0.762699485
vt 0.659855604 0.76608479
vt 0.660471559 0.762699485
vt 0.661703706 0.762699485
vt 0.661087632 0.76608479
vt 0.661703706 0.76608479
vt 0.661087632 0.762699485
vt 0.139356285 0.772532761
vt 0.140588373 0.781149924
vt 0.140588313 0.772532761
vt 0.139356285 0.781149924
vt 0.0968499184 0.788228273
vt 0.0956178606 0.768039525
vt 0.0956178606 0.788228273
vt 0.0968499184 0.768039525
vt 0.626897693 0.763438046
vt 0.626281738 0.758513987
vt 0.626281738 0.763438046
vt 0.626897693 0.758513987
vt 0.661703706 0.762699485
vt 0.661087632 0.757775366
vt 0.661087632 0.762699485
vt 0.661703706 0.757775366
vt 0.866075575 0.177751184
vt 0.866691589 0.170365036
vt 0.866075575 0.170365036
vt 0.866691589 0.177751184
vt 0.909814 0.174858272
vt 0.910430074 0.18224442
vt 0.910430074 0.174858272
vt 0.909814 0.18224442
vt 0.838084698 0.77568078
vt 0.841472864 0.77568078
vt 0.838084698 0.77352649
vt 0.843320966 0.77352649
vt 0.841472864 0.778758347
vt 0.843320966 0.787067711
vt 0.838084698 0.787067711
vt 0.838084698 0.778758347
vt 0.662011623 0.757775366
vt 0.662627697 0.761776209
vt 0.662627697 0.757775366
vt 0.662011623 0.761776209
vt 0.662011623 0.762699485
vt 0.662627697 0.762699485
vt 0.126111537 0.763423204
vt 0.111634731 0.782380939
vt 0.126111537 0.782380939
vt 0.111634731 0.752344012
vt 0.126111537 0.758806944
vt 0.126111537 0.752344012
vt 0.881179571 0.690418601
vt 0.884567857 0.690418601
vt 0.881179571 0.687648833
vt 0.886415958 0.687648833
vt 0.884567857 0.693496168
vt 0.886415958 0.696265936
vt 0.881179571 0.696265936
vt 0.881179571 0.693496168
vt 0.825456023 0.76964879
vt 0.82884419 0.782882273
vt 0.82884419 0.76964879
vt 0.823607922 0.782882273
vt 0.823607922 0.764416933
vt 0.825456023 0.766571224
vt 0.82884419 0.764416933
vt 0.82884419 0.766571224
vt 0.0968499184 0.768039525
vt 0.0968499184 0.760653436
vt 0.0919216573 0.768039525
vt 0.0919216573 0.753575087
vt 0.0968499482 0.753575087
vt 0.16307357 0.770809352
vt 0.164305657 0.770809352
vt 0.16307357 0.752467155
vt 0.164305657 0.742003441
vt 0.16307357 0.747850776
vt 0.16307357 0.742003441
vt 0.363062859 0.777903199
vt 0.349510163 0.798091888
vt 0.363062918 0.798091888
vt 0.349510163 0.769286036
vt 0.367991149 0.769286036
vt 0.367991149 0.77790314
vt 0.126111537 0.772532761
vt 0.133503944 0.771301746
vt 0.126111537 0.763915658
vt 0.140588313 0.772532761
vt 0.138124198 0.771301746
vt 0.140588313 0.763915658
vt 0.138124198 0.763915658
vt 0.133503944 0.763915658
vt 0.140588313 0.761576712
vt 0.133503944 0.761576712
vt 0.126111537 0.761576712
vt 0.138124198 0.761576712
vt 0.138124198 0.754190564
vt 0.140588373 0.752344012
vt 0.133503944 0.754190564
vt 0.126111537 0.752344012
vt 0.0968499184 0.72353816
vt 0.0968498886 0.732770801
vt 0.0974659622 0.724153638
vt 0.111634731 0.72353816
vt 0.0968499184 0.735109746
vt 0.111018717 0.724153638
vt 0.0974659622 0.744342446
vt 0.0968499482 0.74372685
vt 0.111634731 0.742495894
vt 0.111018717 0.742495894
vt 0.111018717 0.747112155
vt 0.111634731 0.747112155
vt 0.0925376713 0.744342446
vt 0.0919216573 0.74372685
vt 0.0919216573 0.753575087
vt 0.111018717 0.752959549
vt 0.111634731 0.753575087
vt 0.103626281 0.753575087
vt 0.0925376713 0.752959549
vt 0.09869802 0.753575087
vt 0.111634731 0.753575087
vt 0.109170616 0.760345697
vt 0.111634731 0.760345697
vt 0.104550332 0.753575087
vt 0.111634731 0.765269756
vt 0.105782419 0.760345697
vt 0.0971579254 0.753575087
vt 0.0971579254 0.766500771
vt 0.109170616 0.765269756
vt 0.105782419 0.765269756
vt 0.109170616 0.766500771
vt 0.109170616 0.77142483
vt 0.111634731 0.773271382
vt 0.105782419 0.766500771
vt 0.105782419 0.77142483
vt 0.0971579254 0.773271382
vt 0.0971579254 0.767424047
vt 0.105782419 0.767424047
vt 0.829740763 0.734427571
vt 0.829124689 0.735658586
vt 0.833128929 0.734427571
vt 0.829740763 0.729503512
vt 0.834361076 0.735658586
vt 0.834361076 0.730426788
vt 0.833128929 0.730426788
vt 0.833128929 0.729503512
vt 0.829124689 0.723348439
vt 0.834361017 0.729503512
vt 0.829740763 0.728272498
vt 0.829740763 0.723348439
vt 0.829124689 0.717193305
vt 0.833128929 0.728272498
vt 0.834361076 0.723348439
vt 0.833128929 0.723348439
vt 0.834361076 0.717193305
vt 0.132579893 0.783304214
vt 0.126111537 0.786997259
vt 0.135968119 0.786997259
vt 0.135968059 0.779918909
vt 0.129499704 0.783304214
vt 0.126111537 0.779918909
vt 0.129499704 0.779918909
vt 0.126111537 0.772532761
vt 0.132579893 0.779918909
vt 0.135968119 0.772532761
vn 0.000000 -0.000000 1.000000
vn 0.000000 -0.000000 1.000000
vn 0.000000 -0.000000 1.000000
vn 0.000000 -0.000000 1.000000
vn 0.000000 -0.000000 1.000000
vn 0.000000 -0.000000 1.000000
vn 0.000000 -0.000000 1.000000
vn 0.000000 -0.000000 1.000000
vn 0.000000 -0.000000 1.000000
vn 0.000000 -0.000000 1.000000
vn 0.000000 -0.000000 1.000000
vn 0.000000 -0.000000 1.000000
vn 0.000000 -0.000000 1.000000
vn 0.000000 -0.000000 1.000000
vn 0.000000 -0.000000 1.000000
vn 0.000000 -0.000000 1.000000
vn 0.000000 -0.000000 1.000000
vn 0.000000 -0.000000 1.000000
vn 0.000000 -0.000000 1.000000
vn 0.000000 -0.000000 1.000000
vn 0.000000 -0.000000 1.000000
vn 0.000000 -0.000000 1.000000
vn 0.000000 -0.000000 1.000000
vn 0.000000 -0.000000 1.000000
vn 0.000000 -0.000000 1.000000
vn 0.000000 -0.000000 1.000000
vn 0.000000 -1.000000 -0.000000
vn 0.000000 -1.000000 -0.000000
vn 0.000000 -1.000000 -0.000000
vn 0.000000 -1.000000 -0.000000
vn 0.000000 1.000000 0.000000
vn 0.000000 1.000000 0.000000
vn 0.000000 1.000000 0.000000
vn 0.000000 1.000000 0.000000
vn 0.000000 1.000000 0.000000
vn 0.000000 1.000000 0.000000
vn 0.000000 1.000000 0.000000
vn 0.000000 1.000000 0.000000
vn -1.000000 0.000000 0.000000
vn -1.000000 0.000000 0.000000
vn -1.000000 0.000000 0.000000
vn -1.000000 0.000000 0.000000
vn 0.000000 -0.000000 1.000000
vn 0.000000 -0.000000 1.000000
vn 0.000000 -0.000000 1.000000
vn 0.000000 -0.000000 1.000000
vn 0.000000 -0.000000 1.000000
vn 0.000000 -0.000000 1.000000
vn 0.000000 -0.000000 1.000000
vn 0.000000 -0.000000 1.000000
vn 0.000000 -0.000000 1.000000
vn 0.000000 -0.000000 1.000000
vn 0.000000 -0.000000 1.000000
vn 0.000000 -0.000000 1.000000
vn 0.000000 -0.000000 1.000000
vn 0.000000 1.000000 0.000000
vn 0.000000 1.000000 0.000000
vn 0.000000 1.000000 0.000000
vn 0.000000 1.000000 0.000000
vn 0.000000 -0.000000 1.000000
vn 0.000000 -0.000000 1.000000
vn 0.000000 -0.000000 1.000000
vn 0.000000 -0.000000 1.000000
vn 0.000000 -1.000000 -0.000000
vn 0.000000 -1.000000 -0.000000
vn 0.000000 -1.000000 -0.000000
vn 0.000000 -1.000000 -0.000000
vn 0.000000 -1.000000 -0.000000
vn 0.000000 -1.000000 -0.000000
vn 0.000000 -1.000000 -0.000000
vn 0.000000 -1.000000 -0.000000
vn -1.000000 0.000000 0.000000
vn -1.000000 0.000000 0.000000
vn -1.000000 0.000000 0.000000
vn -1.000000 0.000000 0.000000
vn 1.000000 0.000000 0.000000
vn 1.000000 0.000000 0.000000
vn 1.000000 0.000000 0.000000
vn 1.000000 0.000000 0.000000
vn 0.000000 -1.000000 -0.000000
vn 0.000000 -1.000000 -0.000000
vn 0.000000 -1.000000 -0.000000
vn 0.000000 -1.000000 -0.000000
vn 1.000000 0.000000 0.000000
vn 1.000000 0.000000 0.000000
vn 1.000000 0.000000 0.000000
vn 1.000000 0.000000 0.000000
vn 0.000000 -1.000000 -0.000000
vn 0.000000 -1.000000 -0.000000
vn 0.000000 -1.000000 -0.000000
vn 0.000000 -1.000000 -0.000000
vn -1.000000 0.000000 0.000000
vn -1.000000 0.000000 0.000000
vn -1.000000 0.000000 0.000000
vn -1.000000 0.000000 0.000000
vn -1.000000 0.000000 0.000000
vn -1.000000 0.000000 0.000000
vn -1.000000 0.000000 0.000000
vn -1.000000 0.000000 0.000000
vn -1.000000 0.000000 0.000000
vn -1.000000 0.000000 0.000000
vn -1.000000 0.000000 0.000000
vn -1.000000 0.000000 0.000000
vn -1.000000 0.000000 0.000000
vn -1.000000 0.000000 0.000000
vn -1.000000 0.000000 0.000000
vn -1.000000 0.000000 0.000000
vn -1.000000 0.000000 0.000000
vn 1.000000 0.000000 0.000000
vn 1.000000 0.000000 0.000000
vn 1.000000 0.000000 0.000000
vn 1.000000 0.000000 0.000000
vn 0.000000 0.000000 -1.000000
vn 0.000000 0.000000 -1.000000
vn 0.000000 0.000000 -1.000000
vn 0.000000 0.000000 -1.000000
vn 0.000000 0.000000 -1.000000
vn 0.000000 0.000000 -1.000000
vn 0.000000 0.000000 -1.000000
vn 0.000000 0.000000 -1.000000
vn 0.000000 1.000000 0.000000
vn 0.000000 1.000000 0.000000
vn 0.000000 1.000000 0.000000
vn 0.000000 1.000000 0.000000
vn 1.000000 0.000000 0.000000
vn 1.000000 0.000000 0.000000
vn 1.000000 0.000000 0.000000
vn 1.000000 0.000000 0.000000
vn 0.000000 0.000000 -1.000000
vn 0.000000 0.000000 -1.000000
vn 0.000000 0.000000 -1.000000
vn 0.000000 0.000000 -1.000000
vn 0.000000 0.000000 -1.000000
vn 0.000000 0.000000 -1.000000
vn 0.000000 0.000000 -1.000000
vn 0.000000 0.000000 -1.000000
vn 0.000000 0.000000 -1.000000
vn 0.000000 1.000000 0.000000
vn 0.000000 1.000000 0.000000
vn 0.000000 1.000000 0.000000
vn 0.000000 1.000000 0.000000
vn 0.000000 -1.000000 -0.000000
vn 0.000000 -1.000000 -0.000000
vn 0.000000 -1.000000 -0.000000
vn 0.000000 -1.000000 -0.000000
vn 1.000000 0.000000 0.000000
vn 1.000000 0.000000 0.000000
vn 1.000000 0.000000 0.000000
vn 1.000000 0.000000 0.000000
vn -1.000000 0.000000 0.000000
vn -1.000000 0.000000 0.000000
vn -1.000000 0.000000 0.000000
vn -1.000000 0.000000 0.000000
vn -1.000000 0.000000 0.000000
vn -1.000000 0.000000 0.000000
vn -1.000000 0.000000 0.000000
vn -1.000000 0.000000 0.000000
vn -1.000000 0.000000 0.000000
vn -1.000000 0.000000 0.000000
vn -1.000000 0.000000 0.000000
vn -1.000000 0.000000 0.000000
vn 0.000000 0.000000 -1.000000
vn 0.000000 0.000000 -1.000000
vn 0.000000 0.000000 -1.000000
vn 0.000000 0.000000 -1.000000
vn 0.000000 0.000000 -1.000000
vn 0.000000 0.000000 -1.000000
vn 0.000000 0.000000 -1.000000
vn 0.000000 0.000000 -1.000000
vn 0.000000 0.000000 -1.000000
vn 0.000000 0.000000 -1.000000
vn 0.000000 0.000000 -1.000000
vn 0.000000 0.000000 -1.000000
vn 0.000000 0.000000 -1.000000
vn 0.000000 0.000000 -1.000000
vn 0.000000 0.000000 -1.000000
vn 0.000000 0.000000 -1.000000
vn 0.000000 1.000000 0.000000
vn 0.000000 1.000000 0.000000
vn 0.000000 1.000000 0.000000
vn 0.000000 1.000000 0.000000
vn 0.000000 1.000000 0.000000
vn 0.000000 1.000000 0.000000
vn 0.000000 1.000000 0.000000
vn 0.000000 1.000000 0.000000
vn 0.000000 -0.000000 1.000000
vn 0.000000 -0.000000 1.000000
vn 0.000000 -0.000000 1.000000
vn 0.000000 -0.000000 1.000000
vn 0.000000 -0.000000 1.000000
vn 0.000000 -0.000000 1.000000
vn -1.000000 0.000000 0.000000
vn -1.000000 0.000000 0.000000
vn -1.000000 0.000000 0.000000
vn -1.000000 0.000000 0.000000
vn -1.000000 0.000000 0.000000
vn -1.000000 0.000000 0.000000
vn -1.000000 0.000000 0.000000
vn -1.000000 0.000000 0.000000
vn -1.000000 0.000000 0.000000
vn -1.000000 0.000000 0.000000
vn -1.000000 0.000000 0.000000
vn -1.000000 0.000000 0.000000
vn -1.000000 0.000000 0.000000
vn -1.000000 0.000000 0.000000
vn 0.000000 -1.000000 -0.000000
vn 0.000000 -1.000000 -0.000000
vn 0.000000 -1.000000 -0.000000
vn 0.000000 -1.000000 -0.000000
vn 0.000000 -1.000000 -0.000000
vn 0.000000 -1.000000 -0.000000
vn 0.000000 -1.000000 -0.000000
vn 0.000000 -1.000000 -0.000000
vn 0.000000 1.000000 0.000000
vn 0.000000 1.000000 0.000000
vn 0.000000 1.000000 0.000000
vn 0.000000 1.000000 0.000000
vn 0.000000 1.000000 0.000000
vn 1.000000 0.000000 0.000000
vn 1.000000 0.000000 0.000000
vn 1.000000 0.000000 0.000000
vn 1.000000 0.000000 0.000000
vn 1.000000 0.000000 0.000000
vn 1.000000 0.000000 0.000000
vn 0.000000 -0.000000 1.000000
vn 0.000000 -0.000000 1.000000
vn 0.000000 -0.000000 1.000000
vn 0.000000 -0.000000 1.000000
vn 0.000000 -0.000000 1.000000
vn 0.000000 -0.000000 1.000000
vn 1.000000 0.000000 0.000000
vn 1.000000 0.000000 0.000000
vn 1.000000 0.000000 0.000000
vn 1.000000 0.000000 0.000000
vn 1.000000 0.000000 0.000000
vn 1.000000 0.000000 0.000000
vn 1.000000 0.000000 0.000000
vn 1.000000 0.000000 0.000000
vn 1.000000 0.000000 0.000000
vn 1.000000 0.000000 0.000000
vn 1.000000 0.000000 0.000000
vn 1.000000 0.000000 0.000000
vn 1.000000 0.000000 0.000000
vn 1.000000 0.000000 0.000000
vn 1.000000 0.000000 0.000000
vn 1.000000 0.000000 0.000000
vn 0.000000 -0.000000 1.000000
vn 0.000000 -0.000000 1.000000
vn 0.000000 -0.000000 1.000000
vn 0.000000 -0.000000 1.000000
vn 0.000000 -0.000000 1.000000
vn 0.000000 -0.000000 1.000000
vn 0.000000 -0.000000 1.000000
vn 0.000000 -0.000000 1.000000
vn 0.000000 -0.000000 1.000000
vn 0.000000 -0.000000 1.000000
vn 0.000000 -0.000000 1.000000
vn 0.000000 -0.000000 1.000000
vn 0.000000 -0.000000 1.000000
vn 0.000000 -0.000000 1.000000
vn 0.000000 -0.000000 1.000000
vn 0.000000 -0.000000 1.000000
vn 0.000000 -0.000000 1.000000
vn 0.000000 -0.000000 1.000000
vn 0.000000 -0.000000 1.000000
vn 0.000000 -0.000000 1.000000
vn 0.000000 -1.000000 -0.000000
vn 0.000000 -1.000000 -0.000000
vn 0.000000 -1.000000 -0.000000
vn 0.000000 -1.000000 -0.000000
vn 0.000000 -1.000000 -0.000000
vn 0.000000 -1.000000 -0.000000
vn 0.000000 -1.000000 -0.000000
vn 0.000000 -1.000000 -0.000000
vn 0.000000 -1.000000 -0.000000
vn 0.000000 -1.000000 -0.000000
vn 0.000000 -1.000000 -0.000000
vn 0.000000 -1.000000 -0.000000
vn 0.000000 -1.000000 -0.000000
vn 0.000000 -1.000000 -0.000000
vn 0.000000 -1.000000 -0.000000
vn 0.000000 -1.000000 -0.000000
vn 0.000000 -1.000000 -0.000000
vn 0.000000 -1.000000 -0.000000
vn 0.000000 1.000000 0.000000
vn 0.000000 1.000000 0.000000
vn 0.000000 1.000000 0.000000
vn 0.000000 1.000000 0.000000
vn 0.000000 1.000000 0.000000
vn 0.000000 1.000000 0.000000
vn 0.000000 1.000000 0.000000
vn 0.000000 1.000000 0.000000
vn 0.000000 1.000000 0.000000
vn 0.000000 1.000000 0.000000
vn 0.000000 1.000000 0.000000
vn 0.000000 1.000000 0.000000
vn 0.000000 1.000000 0.000000
vn 0.000000 1.000000 0.000000
vn 0.000000 1.000000 0.000000
vn 0.000000 1.000000 0.000000
vn 0.000000 1.000000 0.000000
vn 1.000000 0.000000 0.000000
vn 1.000000 0.000000 0.000000
vn 1.000000 0.000000 0.000000
vn 1.000000 0.000000 0.000000
vn 1.000000 0.000000 0.000000
vn 1.000000 0.000000 0.000000
vn 1.000000 0.000000 0.000000
vn 1.000000 0.000000 0.000000
vn 1.000000 0.000000 0.000000
vn 1.000000 0.000000 0.000000
f 3/3/3 2/2/2 1/1/1
f 5/5/5 4/4/4 1/1/1
f 7/7/7 6/6/6 5/5/5
f 8/8/8 6/6/6 7/7/7
f 5/5/5 6/6/6 9/9/9
f 10/10/10 9/9/9 6/6/6
f 13/13/13 12/12/12 11/11/11
f 16/16/16 15/15/15 14/14/14
f 18/18/18 14/14/14 17/17/17
f 19/19/19 14/14/14 18/18/18
f 20/20/20 19/19/19 18/18/18
f 21/21/21 20/20/20 18/18/18
f 23/23/23 22/22/22 19/19/19
f 26/26/26 25/25/25 24/24/24
f 29/29/29 28/28/28 27/27/27
f 27/27/27 28/28/28 30/30/30
f 33/33/33 32/32/32 31/31/31
f 31/31/31 32/32/32 34/34/34
f 37/37/37 36/36/36 35/35/35
f 35/35/35 36/36/36 38/38/38
f 41/41/41 40/40/40 39/39/39
f 39/39/39 40/40/40 42/42/42
f 45/45/45 44/44/44 43/43/43
f 44/44/44 46/46/46 43/43/43
f 43/43/43 46/46/46 47/47/47
f 48/48/48 43/43/43 47/47/47
f 47/47/47 46/46/46 49/49/49
f 50/50/50 49/49/49 46/46/46
f 49/49/49 51/51/51 47/47/47
f 52/52/52 51/51/51 49/49/49
f 53/53/53 52/52/52 49/49/49
f 54/54/54 52/52/52 53/53/53
f 55/55/55 54/54/54 53/53/53
f 58/58/58 57/57/57 56/56/56
f 56/56/56 57/57/57 59/59/59
f 62/62/62 61/61/61 60/60/60
f 60/60/60 61/61/61 63/63/63
f 66/66/66 65/65/65 64/64/64
f 64/64/64 65/65/65 67/67/67
f 70/70/70 69/69/69 68/68/68
f 68/68/68 69/69/69 71/71/71
f 74/74/74 73/73/73 72/72/72
f 72/72/72 73/73/73 75/75/75
f 78/78/78 77/77/77 76/76/76
f 76/76/76 77/77/77 79/79/79
f 82/82/82 81/81/81 80/80/80
f 80/80/80 81/81/81 83/83/83
f 86/86/86 85/85/85 84/84/84
f 84/84/84 85/85/85 87/87/87
f 90/90/90 89/89/89 88/88/88
f 88/88/88 89/89/89 91/91/91
f 94/94/94 93/93/93 92/92/92
f 92/92/92 96/96/96 95/95/95
f 97/97/97 92/92/92 95/95/95
f 98/98/98 97/97/97 95/95/95
f 100/100/100 99/99/99 93/93/93
f 101/101/101 99/99/99 100/100/100
f 99/99/99 103/103/103 102/102/102
f 102/102/102 105/105/105 104/104/104
f 107/107/107 104/104/104 106/106/106
f 106/106/106 104/104/104 108/108/108
f 111/111/111 110/110/110 109/109/109
f 109/109/109 110/110/110 112/112/112
f 115/115/115 114/114/114 113/113/113
f 113/113/113 114/114/114 116/116/116
f 119/119/119 118/118/118 117/117/117
f 117/117/117 118/118/118 120/120/120
f 123/123/123 122/122/122 121/121/121
f 121/121/121 122/122/122 124/124/124
f 127/127/127 126/126/126 125/125/125
f 125/125/125 126/126/126 128/128/128
f 131/131/131 130/130/130 129/129/129
f 129/129/129 130/130/130 132/132/132
f 135/135/135 134/134/134 133/133/133
f 136/136/136 133/133/133 134/134/134
f 133/133/133 136/136/136 137/137/137
f 140/140/140 139/139/139 138/138/138
f 138/138/138 139/139/139 141/141/141
f 144/144/144 143/143/143 142/142/142
f 142/142/142 143/143/143 145/145/145
f 148/148/148 147/147/147 146/146/146
f 146/146/146 147/147/147 149/149/149
f 152/152/152 151/151/151 150/150/150
f 150/150/150 151/151/151 153/153/153
f 156/156/156 155/155/155 154/154/154
f 154/154/154 155/155/155 157/157/157
f 160/160/160 159/159/159 158/158/158
f 158/158/158 159/159/159 161/161/161
f 164/164/164 163/163/163 162/162/162
f 162/162/162 163/163/163 165/165/165
f 168/168/168 167/167/167 166/166/166
f 166/166/166 167/167/167 169/169/169
f 172/172/172 171/171/171 170/170/170
f 170/170/170 171/171/171 173/173/173
f 176/176/176 175/175/175 174/174/174
f 174/174/174 175/175/175 177/177/177
f 180/180/180 179/179/179 178/178/178
f 180/180/180 181/181/181 179/179/179
f 179/179/179 181/181/181 182/182/182
f 183/183/183 182/182/182 181/181/181
f 184/184/184 182/182/182 183/183/183
f 185/185/185 182/182/182 184/184/184
f 188/188/188 187/187/187 186/186/186
f 187/187/187 189/189/189 186/186/186
f 189/189/189 187/187/187 190/190/190
f 191/191/191 190/190/190 187/187/187
f 194/194/194 193/193/193 192/192/192
f 195/195/195 192/192/192 193/193/193
f 196/196/196 192/192/192 195/195/195
f 196/196/196 195/195/195 197/197/197
f 200/200/200 199/199/199 198/198/198
f 200/200/200 201/201/201 199/199/199
f 202/202/202 199/199/199 201/201/201
f 203/203/203 202/202/202 201/201/201
f 204/204/204 202/202/202 203/203/203
f 205/205/205 202/202/202 204/204/204
f 208/208/208 207/207/207 206/206/206
f 207/207/207 209/209/209 206/206/206
f 209/209/209 210/210/210 206/206/206
f 206/206/206 210/210/210 211/211/211
f 212/212/212 211/211/211 210/210/210
f 213/213/213 211/211/211 212/212/212
f 216/216/216 215/215/215 214/214/214
f 215/215/215 216/216/216 217/217/217
f 218/218/218 215/215/215 217/217/217
f 221/221/221 220/220/220 219/219/219
f 220/220/220 221/221/221 222/222/222
f 223/223/223 222/222/222 221/221/221
f 224/224/224 222/222/222 223/223/223
f 227/227/227 226/226/226 225/225/225
f 228/228/228 225/225/225 226/226/226
f 228/228/228 229/229/229 225/225/225
f 230/230/230 225/225/225 229/229/229
f 233/233/233 232/232/232 231/231/231
f 232/232/232 234/234/234 231/231/231
f 234/234/234 232/232/232 235/235/235
f 236/236/236 234/234/234 235/235/235
f 237/237/237 236/236/236 235/235/235
f 238/238/238 232/232/232 233/233/233
f 236/236/236 237/237/237 239/239/239
f 233/233/233 240/240/240 238/238/238
f 238/238/238 240/240/240 237/237/237
f 241/241/241 240/240/240 233/233/233
f 242/242/242 237/237/237 240/240/240
f 239/239/239 237/237/237 242/242/242
f 242/242/242 243/243/243 239/239/239
f 239/239/239 243/243/243 244/244/244
f 240/240/240 241/241/241 245/245/245
f 245/245/245 244/244/244 243/243/243
f 241/241/241 246/246/246 245/245/245
f 244/244/244 245/245/245 246/246/246
f 249/249/249 248/248/248 247/247/247
f 250/250/250 249/249/249 247/247/247
f 249/249/249 251/251/251 248/248/248
f 252/252/252 249/249/249 250/250/250
f 249/249/249 253/253/253 251/251/251
f 251/251/251 253/253/253 254/254/254
f 255/255/255 252/252/252 250/250/250
f 256/256/256 252/252/252 255/255/255
f 256/256/256 255/255/255 257/257/257
f 257/257/257 255/255/255 258/258/258
f 259/259/259 254/254/254 253/253/253
f 260/260/260 254/254/254 259/259/259
f 261/261/261 260/260/260 259/259/259
f 257/257/257 258/258/258 262/262/262
f 258/258/258 263/263/263 262/262/262
f 263/263/263 264/264/264 262/262/262
f 265/265/265 261/261/261 259/259/259
f 262/262/262 264/264/264 265/265/265
f 266/266/266 261/261/261 265/265/265
f 264/264/264 266/266/266 265/265/265
f 269/269/269 268/268/268 267/267/267
f 268/268/268 270/270/270 267/267/267
f 271/271/271 268/268/268 269/269/269
f 268/268/268 272/272/272 270/270/270
f 270/270/270 272/272/272 273/273/273
f 273/273/273 272/272/272 274/274/274
f 275/275/275 268/268/268 271/271/271
f 272/272/272 276/276/276 274/274/274
f 277/277/277 275/275/275 271/271/271
f 275/275/275 277/277/277 276/276/276
f 278/278/278 277/277/277 271/271/271
f 278/278/278 271/271/271 279/279/279
f 280/280/280 276/276/276 277/277/277
f 276/276/276 280/280/280 274/274/274
f 281/281/281 278/278/278 279/279/279
f 281/281/281 279/279/279 282/282/282
f 280/280/280 283/283/283 274/274/274
f 283/283/283 281/281/281 282/282/282
f 284/284/284 283/283/283 280/280/280
f 284/284/284 281/281/281 283/283/283
f 287/287/287 286/286/286 285/285/285
f 285/285/285 286/286/286 288/288/288
f 289/289/289 286/286/286 287/287/287
f 290/290/290 289/289/289 287/287/287
f 290/290/290 287/287/287 291/291/291
f 291/291/291 292/292/292 290/290/290
f 293/293/293 288/288/288 286/286/286
f 290/290/290 292/292/292 294/294/294
f 292/292/292 288/288/288 295/295/295
f 293/293/293 295/295/295 288/288/288
f 296/296/296 295/295/295 293/293/293
f 297/297/297 296/296/296 293/293/293
f 298/298/298 292/292/292 295/295/295
f 294/294/294 292/292/292 298/298/298
f 299/299/299 294/294/294 298/298/298
f 296/296/296 297/297/297 300/300/300
f 300/300/300 299/299/299 298/298/298
f 301/301/301 300/300/300 297/297/297
f 299/299/299 300/300/300 301/301/301
f 304/304/304 303/303/303 302/302/302
f 305/305/305 304/304/304 302/302/302
f 306/306/306 302/302/302 303/303/303
f 307/307/307 306/306/306 303/303/303
f 308/308/308 306/306/306 307/307/307
f 309/309/309 308/308/308 307/307/307
f 310/310/310 305/305/305 302/302/302
f 308/308/308 309/309/309 310/310/310
f 305/305/305 310/310/310 311/311/311
f 311/311/311 310/310/310 309/309/309
