g Model_0
v 0.0999999642 0.0999999642 0
v 0.0999999642 -0.100000024 0
v 0.0999999046 -0.100000083 12
v 0.0999999642 0.0999999642 0
v 0.0999999046 -0.100000083 12
v 0.100000024 0.0999999046 12
v 0.0999999642 -0.100000024 0
v -0.100000024 -0.100000024 0
v -0.100000083 -0.100000024 12
v 0.0999999642 -0.100000024 0
v -0.100000083 -0.100000024 12
v 0.0999999046 -0.100000083 12
v -0.100000024 -0.100000024 0
v -0.100000024 0.100000024 0
v -0.100000024 0.0999999642 12
v -0.100000024 -0.100000024 0
v -0.100000024 0.0999999642 12
v -0.100000083 -0.100000024 12
v 0.100000024 0.0999999046 12
v -0.100000024 0.0999999642 12
v -0.100000024 0.100000024 0
v 0.100000024 0.0999999046 12
v -0.100000024 0.100000024 0
v 0.0999999642 0.0999999642 0
v 8.34465027E-07 3 11.9785366
v -0.000227257609 4 9.47853661
v -0.000225588679 4 11.9785366
v -8.34465027E-07 3 9.47853661
v 8.34465027E-07 2 11.9785366
v -8.34465027E-07 2 9.47853661
v 8.34465027E-07 1 11.9583845
v -8.34465027E-07 1 9.45838451
v 8.34465027E-07 5.96046448E-08 11.9583845
v -8.34465027E-07 5.96046448E-08 9.45838451
v 0.100000024 0.0999999046 12
v 0.0999999046 -0.100000083 12
v -0.100000083 -0.100000024 12
v -0.100000024 0.0999999642 12
v 0.0999999642 0.0999999642 0
v -0.100000024 0.100000024 0
v -0.100000024 -0.100000024 0
v 0.0999999642 -0.100000024 0
vt 0.0187090151 0.0246401653
vt 0.0187090151 0.0170640238
vt 0.0150874797 0.0254984014
vt 0.0187090151 0.0246401653
vt 0.0150874797 0.0254984014
vt 0.00982059538 0.0208234042
vt 0.0187090151 0.0170640238
vt 0.0115208402 0.017065905
vt 0.0204101652 0.0208830517
vt 0.0187090151 0.0170640238
vt 0.0204101652 0.0208830517
vt 0.0150874797 0.0254984014
vt 0.0115208402 0.017065905
vt 0.0115208253 0.0246428251
vt 0.0151425293 0.0162080415
vt 0.0115208402 0.017065905
vt 0.0151425293 0.0162080415
vt 0.0204101652 0.0208830517
vt 0.00982059538 0.0208234042
vt 0.0151425293 0.0162080415
vt 0.0115208253 0.0246428251
vt 0.00982059538 0.0208234042
vt 0.0115208253 0.0246428251
vt 0.0187090151 0.0246401653
vt 0.713636398 0.982776999
vt 0.927272558 0.0721977353
vt 0.927272797 0.982777536
vt 0.713636279 0.0721977949
vt 0.500000179 0.982777119
vt 0.499999911 0.0721978545
vt 0.286363721 0.982777178
vt 0.286363542 0.0721979141
vt 0.072727412 0.982777297
vt 0.0727271736 0.0721980333
vt 0.00982059538 0.0208234042
vt 0.0150874797 0.0254984014
vt 0.0204101652 0.0208830517
vt 0.0151425293 0.0162080415
vt 0.0187090151 0.0246401653
vt 0.0115208253 0.0246428251
vt 0.0115208402 0.017065905
vt 0.0187090151 0.0170640238
vn 1 0 0
vn 1 0 0
vn 1 0 0
vn 1 0 0
vn 1 0 0
vn 1 0 0
vn -0 -1 0
vn -0 -1 0
vn -0 -1 0
vn -0 -1 0
vn -0 -1 0
vn -0 -1 0
vn -1 0 0
vn -1 0 0
vn -1 0 0
vn -1 0 0
vn -1 0 0
vn -1 0 0
vn -0 1 0
vn -0 1 0
vn -0 1 0
vn -0 1 0
vn -0 1 0
vn -0 1 0
vn -1 -0.000113211572 0
vn -1 -0.000226423144 0
vn -1 -0.000226423144 0
vn -1 -0.000113211572 0
vn -1 0 0
vn -1 0 0
vn -1 0 0
vn -1 0 0
vn -1 0 0
vn -1 0 0
vn -0 0 1
vn -0 0 1
vn -0 0 1
vn -0 0 1
vn -0 0 -1
vn -0 0 -1
vn -0 0 -1
vn -0 0 -1
g Model_0_0
f 3/3/3 2/2/2 1/1/1
f 6/6/6 5/5/5 4/4/4
f 9/9/9 8/8/8 7/7/7
f 12/12/12 11/11/11 10/10/10
f 15/15/15 14/14/14 13/13/13
f 18/18/18 17/17/17 16/16/16
f 21/21/21 20/20/20 19/19/19
f 24/24/24 23/23/23 22/22/22
f 27/27/27 26/26/26 25/25/25
f 26/26/26 28/28/28 25/25/25
f 25/25/25 28/28/28 29/29/29
f 28/28/28 30/30/30 29/29/29
f 29/29/29 30/30/30 31/31/31
f 30/30/30 32/32/32 31/31/31
f 31/31/31 32/32/32 33/33/33
f 32/32/32 34/34/34 33/33/33
f 37/37/37 36/36/36 35/35/35
f 38/38/38 37/37/37 35/35/35
f 41/41/41 40/40/40 39/39/39
f 42/42/42 41/41/41 39/39/39
