v -2.102526 -0.374998 1.794632
v -2.102526 0.375002 1.559631
v -2.102526 0.375002 1.794631
v -2.102526 -0.374998 1.559632
v -2.102526 0.374997 -2.139650
v -2.102526 -0.375003 -2.139649
v 1.844421 0.375002 1.794631
v 2.070259 0.375002 1.559631
v 2.070259 0.375002 1.794631
v 1.844421 0.375002 1.559631
v 2.070259 0.374997 -2.139650
v 1.844421 0.374997 -2.139650
v -1.876688 0.375002 1.794631
v -1.876688 0.375002 1.559631
v -2.102526 0.375002 1.794631
v -2.102526 0.375002 1.559631
v -1.876688 0.374997 -2.139650
v -2.102526 0.374997 -2.139650
v 2.070259 0.375002 1.794631
v 2.070259 -0.374998 1.559632
v 2.070259 -0.374998 1.794632
v 2.070259 0.375002 1.559631
v 2.070259 -0.375003 -2.139649
v 2.070259 0.374997 -2.139650
v -1.876688 -0.374998 1.794632
v -2.102526 -0.374998 1.559632
v -2.102526 -0.374998 1.794632
v -1.876688 -0.374998 1.559632
v -2.102526 -0.375003 -2.139649
v -1.876688 -0.375003 -2.139649
v 1.844421 -0.374998 1.794632
v 1.844421 -0.374998 1.559632
v 2.070259 -0.374998 1.794632
v 2.070259 -0.374998 1.559632
v 1.844421 -0.375003 -2.139649
v 2.070259 -0.375003 -2.139649
v -1.876688 0.375002 1.559631
v -1.876688 0.374997 -2.139650
v -1.876688 -0.375003 -2.139649
v -1.876688 -0.374998 1.559632
v -1.876688 -0.374998 1.794632
v -2.102526 -0.374998 1.794632
v -2.102526 0.375002 1.794631
v -1.876688 0.375002 1.794631
v 1.844421 -0.374998 1.794632
v 1.844421 0.375002 1.794631
v 2.070259 -0.374998 1.794632
v 2.070259 0.375002 1.794631
v 1.844421 -0.374998 1.559632
v 1.844421 -0.375003 -2.139649
v 1.844421 0.374997 -2.139650
v 1.844421 0.375002 1.559631
v -1.876688 -0.374998 1.559632
v 1.844421 -0.374998 1.559632
v 1.844421 0.375002 1.559631
v -1.876688 0.375002 1.559631
v 1.844421 -0.375003 -2.139649
v 2.070259 -0.375003 -2.139649
v 2.070259 0.374997 -2.139650
v 1.844421 0.374997 -2.139650
v -2.102526 -0.375003 -2.139649
v -1.876688 -0.375003 -2.139649
v -1.876688 0.374997 -2.139650
v -2.102526 0.374997 -2.139650
v -2.750001 -0.249998 1.462448
v -2.750001 -0.250003 -2.125000
v -2.750001 0.249997 -2.125000
v -2.750001 0.250002 1.462447
v -2.750001 -0.249997 2.125000
v -2.750001 0.250003 2.125000
v 1.949996 0.250002 1.725000
v 1.949996 0.249997 -2.125000
v 2.750001 0.249997 -2.125000
v 2.750001 0.250002 1.462447
v 1.949996 0.250003 2.125000
v 2.750001 0.250003 2.125000
v -2.000002 0.250003 2.125000
v -2.000002 0.250002 1.725000
v -2.750001 0.250003 2.125000
v -2.750001 0.250002 1.462447
v -2.000002 0.249997 -2.125000
v -2.750001 0.249997 -2.125000
v 2.750001 0.250002 1.462447
v 2.750001 0.249997 -2.125000
v 2.750001 -0.250003 -2.125000
v 2.750001 -0.249998 1.462448
v 2.750001 0.250003 2.125000
v 2.750001 -0.249997 2.125000
v -2.000002 -0.249998 1.725000
v -2.000002 -0.250003 -2.125000
v -2.750001 -0.250003 -2.125000
v -2.750001 -0.249998 1.462448
v -2.000002 -0.249997 2.125000
v -2.750001 -0.249997 2.125000
v 1.949996 -0.249998 1.725000
v 1.949996 -0.249997 2.125000
v 2.750001 -0.249997 2.125000
v 2.750001 -0.249998 1.462448
v 1.949996 -0.250003 -2.125000
v 2.750001 -0.250003 -2.125000
v 1.949996 -0.250003 -2.125000
v 2.750001 -0.250003 -2.125000
v 2.750001 0.249997 -2.125000
v 1.949996 0.249997 -2.125000
v -2.000002 -0.249997 2.125000
v -2.750001 -0.249997 2.125000
v -2.750001 0.250003 2.125000
v -2.000002 0.250003 2.125000
v 1.949996 -0.249997 2.125000
v 1.949996 0.250003 2.125000
v 2.750001 -0.249997 2.125000
v 2.750001 0.250003 2.125000
v -2.750001 -0.250003 -2.125000
v -2.000002 -0.250003 -2.125000
v -2.000002 0.249997 -2.125000
v -2.750001 0.249997 -2.125000
v 1.949996 -0.249998 1.725000
v 1.949996 0.250002 1.725000
v -2.000002 0.250002 1.725000
v -2.000002 -0.249998 1.725000
v 1.949996 0.249997 -2.125000
v 1.949996 0.250002 1.725000
v 1.949996 -0.249998 1.725000
v 1.949996 -0.250003 -2.125000
v -2.000002 0.249997 -2.125000
v -2.000002 -0.250003 -2.125000
v -2.000002 -0.249998 1.725000
v -2.000002 0.250002 1.725000
vt 0.280136824 0.768608153
vt 0.270382702 0.765377998
vt 0.270382702 0.768608153
vt 0.280136824 0.765377998
vt 0.270382702 0.726285577
vt 0.280136824 0.726285577
vt 0.198638618 0.768608153
vt 0.195491672 0.765377998
vt 0.195491672 0.768608153
vt 0.198638618 0.765377998
vt 0.195491672 0.726285577
vt 0.198638618 0.726285577
vt 0.22979027 0.768608153
vt 0.22979027 0.765377998
vt 0.232937187 0.768608153
vt 0.232937187 0.765377998
vt 0.22979027 0.726285577
vt 0.232937187 0.726285577
vt 0.280136824 0.810930729
vt 0.270382702 0.807700574
vt 0.270382702 0.810930729
vt 0.280136824 0.807700574
vt 0.270382702 0.768608153
vt 0.280136824 0.768608153
vt 0.236084133 0.768608153
vt 0.232937187 0.765377998
vt 0.232937187 0.768608153
vt 0.236084133 0.765377998
vt 0.232937187 0.726285577
vt 0.236084133 0.726285577
vt 0.267235816 0.768608153
vt 0.267235816 0.765377998
vt 0.270382702 0.768608153
vt 0.270382702 0.765377998
vt 0.267235816 0.726285577
vt 0.270382702 0.726285577
vt 0.242691278 0.807700574
vt 0.242691278 0.768608153
vt 0.232937187 0.768608153
vt 0.232937187 0.807700574
vt 0.232937187 0.771712363
vt 0.232937187 0.768608153
vt 0.223183095 0.768608153
vt 0.223183095 0.771712363
vt 0.232937187 0.802441299
vt 0.223183095 0.802441299
vt 0.232937187 0.805545509
vt 0.223183095 0.805545509
vt 0.205245763 0.807700574
vt 0.205245763 0.768608153
vt 0.195491672 0.768608153
vt 0.195491672 0.807700574
vt 0.205245763 0.768608153
vt 0.205245793 0.799337089
vt 0.214999884 0.799337089
vt 0.214999884 0.768608153
vt 0.220036149 0.778229892
vt 0.223183095 0.778229892
vt 0.223183095 0.768608153
vt 0.220036149 0.768608153
vt 0.242691278 0.778229892
vt 0.245838225 0.778229892
vt 0.245838225 0.768608153
vt 0.242691278 0.768608153
vt 0.586809397 0.384055555
vt 0.586809397 0.36250639
vt 0.583325088 0.36250639
vt 0.583325088 0.384055555
vt 0.586809397 0.392447352
vt 0.583325088 0.392447352
vt 0.730243385 0.768524051
vt 0.750305414 0.768524051
vt 0.750305355 0.757296145
vt 0.730243385 0.757296145
vt 0.722430706 0.768524051
vt 0.722430706 0.757296145
vt 0.722430706 0.787237167
vt 0.730243385 0.787237167
vt 0.722430706 0.798465014
vt 0.730243385 0.798465014
vt 0.750305414 0.787237167
vt 0.750305414 0.798465014
vt 0.586809397 0.413996518
vt 0.586809397 0.392447352
vt 0.583325088 0.392447352
vt 0.583325088 0.413996518
vt 0.586809397 0.422388315
vt 0.583325088 0.422388315
vt 0.758118033 0.768523932
vt 0.778180063 0.768523991
vt 0.778180063 0.757296145
vt 0.758118033 0.757296145
vt 0.750305414 0.768523932
vt 0.750305414 0.757296145
vt 0.758118033 0.787237048
vt 0.750305414 0.787237048
vt 0.750305414 0.798465014
vt 0.758118033 0.798465014
vt 0.778180063 0.787237048
vt 0.778180063 0.798465014
vt 0.725915015 0.798465014
vt 0.725915015 0.809692919
vt 0.729399383 0.809692919
vt 0.729399383 0.798465014
vt 0.781664431 0.768523991
vt 0.781664371 0.757296145
vt 0.778180063 0.757296145
vt 0.778180063 0.768523991
vt 0.781664431 0.787237048
vt 0.778180063 0.787237048
vt 0.781664431 0.798465014
vt 0.778180063 0.798465014
vt 0.753789723 0.798465014
vt 0.753789723 0.8096928
vt 0.757274032 0.8096928
vt 0.757274032 0.798465014
vt 0.246628106 0.856468141
vt 0.250112474 0.856468141
vt 0.250112474 0.837755084
vt 0.246628106 0.837755084
vt 0.222237766 0.837755084
vt 0.222237766 0.859304249
vt 0.225722075 0.859304249
vt 0.225722075 0.837755084
vt 0.253596783 0.837755084
vt 0.250112474 0.837755084
vt 0.250112474 0.859304249
vt 0.253596783 0.859304249
vn -1.000000 0.000000 0.000000
vn -1.000000 0.000000 0.000000
vn -1.000000 0.000000 0.000000
vn -1.000000 0.000000 0.000000
vn -1.000000 0.000000 0.000000
vn -1.000000 0.000000 0.000000
vn 0.000000 1.000000 -0.000001
vn 0.000000 1.000000 -0.000001
vn 0.000000 1.000000 -0.000001
vn 0.000000 1.000000 -0.000001
vn 0.000000 1.000000 -0.000001
vn 0.000000 1.000000 -0.000001
vn 0.000000 1.000000 -0.000001
vn 0.000000 1.000000 -0.000001
vn 0.000000 1.000000 -0.000001
vn 0.000000 1.000000 -0.000001
vn 0.000000 1.000000 -0.000001
vn 0.000000 1.000000 -0.000001
vn 1.000000 0.000000 0.000000
vn 1.000000 0.000000 0.000000
vn 1.000000 0.000000 0.000000
vn 1.000000 0.000000 0.000000
vn 1.000000 0.000000 0.000000
vn 1.000000 0.000000 0.000000
vn 0.000000 -1.000000 0.000001
vn 0.000000 -1.000000 0.000001
vn 0.000000 -1.000000 0.000001
vn 0.000000 -1.000000 0.000001
vn 0.000000 -1.000000 0.000001
vn 0.000000 -1.000000 0.000001
vn 0.000000 -1.000000 0.000001
vn 0.000000 -1.000000 0.000001
vn 0.000000 -1.000000 0.000001
vn 0.000000 -1.000000 0.000001
vn 0.000000 -1.000000 0.000001
vn 0.000000 -1.000000 0.000001
vn 1.000000 0.000000 0.000000
vn 1.000000 0.000000 0.000000
vn 1.000000 0.000000 0.000000
vn 1.000000 0.000000 0.000000
vn 0.000000 0.000001 1.000000
vn 0.000000 0.000001 1.000000
vn 0.000000 0.000001 1.000000
vn 0.000000 0.000001 1.000000
vn 0.000000 0.000001 1.000000
vn 0.000000 0.000001 1.000000
vn 0.000000 0.000001 1.000000
vn 0.000000 0.000001 1.000000
vn -1.000000 0.000000 0.000000
vn -1.000000 0.000000 0.000000
vn -1.000000 0.000000 0.000000
vn -1.000000 0.000000 0.000000
vn 0.000000 -0.000001 -1.000000
vn 0.000000 -0.000001 -1.000000
vn 0.000000 -0.000001 -1.000000
vn 0.000000 -0.000001 -1.000000
vn 0.000000 -0.000001 -1.000000
vn 0.000000 -0.000001 -1.000000
vn 0.000000 -0.000001 -1.000000
vn 0.000000 -0.000001 -1.000000
vn 0.000000 -0.000001 -1.000000
vn 0.000000 -0.000001 -1.000000
vn 0.000000 -0.000001 -1.000000
vn 0.000000 -0.000001 -1.000000
vn -1.000000 0.000000 0.000000
vn -1.000000 0.000000 0.000000
vn -1.000000 0.000000 0.000000
vn -1.000000 0.000000 0.000000
vn -1.000000 0.000000 0.000000
vn -1.000000 0.000000 0.000000
vn 0.000000 1.000000 -0.000001
vn 0.000000 1.000000 -0.000001
vn 0.000000 1.000000 -0.000001
vn 0.000000 1.000000 -0.000001
vn 0.000000 1.000000 -0.000001
vn 0.000000 1.000000 -0.000001
vn 0.000000 1.000000 -0.000001
vn 0.000000 1.000000 -0.000001
vn 0.000000 1.000000 -0.000001
vn 0.000000 1.000000 -0.000001
vn 0.000000 1.000000 -0.000001
vn 0.000000 1.000000 -0.000001
vn 1.000000 0.000000 0.000000
vn 1.000000 0.000000 0.000000
vn 1.000000 0.000000 0.000000
vn 1.000000 0.000000 0.000000
vn 1.000000 0.000000 0.000000
vn 1.000000 0.000000 0.000000
vn 0.000000 -1.000000 0.000001
vn 0.000000 -1.000000 0.000001
vn 0.000000 -1.000000 0.000001
vn 0.000000 -1.000000 0.000001
vn 0.000000 -1.000000 0.000001
vn 0.000000 -1.000000 0.000001
vn 0.000000 -1.000000 0.000001
vn 0.000000 -1.000000 0.000001
vn 0.000000 -1.000000 0.000001
vn 0.000000 -1.000000 0.000001
vn 0.000000 -1.000000 0.000001
vn 0.000000 -1.000000 0.000001
vn 0.000000 -0.000001 -1.000000
vn 0.000000 -0.000001 -1.000000
vn 0.000000 -0.000001 -1.000000
vn 0.000000 -0.000001 -1.000000
vn 0.000000 0.000001 1.000000
vn 0.000000 0.000001 1.000000
vn 0.000000 0.000001 1.000000
vn 0.000000 0.000001 1.000000
vn 0.000000 0.000001 1.000000
vn 0.000000 0.000001 1.000000
vn 0.000000 0.000001 1.000000
vn 0.000000 0.000001 1.000000
vn 0.000000 -0.000001 -1.000000
vn 0.000000 -0.000001 -1.000000
vn 0.000000 -0.000001 -1.000000
vn 0.000000 -0.000001 -1.000000
vn 0.000000 -0.000001 -1.000000
vn 0.000000 -0.000001 -1.000000
vn 0.000000 -0.000001 -1.000000
vn 0.000000 -0.000001 -1.000000
vn -1.000000 0.000000 0.000000
vn -1.000000 0.000000 0.000000
vn -1.000000 0.000000 0.000000
vn -1.000000 0.000000 0.000000
vn 1.000000 0.000000 0.000000
vn 1.000000 0.000000 0.000000
vn 1.000000 0.000000 0.000000
vn 1.000000 0.000000 0.000000
f 3/3/3 2/2/2 1/1/1
f 2/2/2 4/4/4 1/1/1
f 2/2/2 5/5/5 4/4/4
f 5/5/5 6/6/6 4/4/4
f 9/9/9 8/8/8 7/7/7
f 8/8/8 10/10/10 7/7/7
f 8/8/8 11/11/11 10/10/10
f 11/11/11 12/12/12 10/10/10
f 7/7/7 10/10/10 13/13/13
f 10/10/10 14/14/14 13/13/13
f 13/13/13 14/14/14 15/15/15
f 14/14/14 16/16/16 15/15/15
f 14/14/14 17/17/17 16/16/16
f 17/17/17 18/18/18 16/16/16
f 21/21/21 20/20/20 19/19/19
f 20/20/20 22/22/22 19/19/19
f 20/20/20 23/23/23 22/22/22
f 23/23/23 24/24/24 22/22/22
f 27/27/27 26/26/26 25/25/25
f 26/26/26 28/28/28 25/25/25
f 26/26/26 29/29/29 28/28/28
f 29/29/29 30/30/30 28/28/28
f 25/25/25 28/28/28 31/31/31
f 28/28/28 32/32/32 31/31/31
f 31/31/31 32/32/32 33/33/33
f 32/32/32 34/34/34 33/33/33
f 32/32/32 35/35/35 34/34/34
f 35/35/35 36/36/36 34/34/34
f 39/39/39 38/38/38 37/37/37
f 40/40/40 39/39/39 37/37/37
f 43/43/43 42/42/42 41/41/41
f 44/44/44 43/43/43 41/41/41
f 44/44/44 41/41/41 45/45/45
f 46/46/46 44/44/44 45/45/45
f 46/46/46 45/45/45 47/47/47
f 48/48/48 46/46/46 47/47/47
f 51/51/51 50/50/50 49/49/49
f 52/52/52 51/51/51 49/49/49
f 55/55/55 54/54/54 53/53/53
f 56/56/56 55/55/55 53/53/53
f 59/59/59 58/58/58 57/57/57
f 60/60/60 59/59/59 57/57/57
f 63/63/63 62/62/62 61/61/61
f 64/64/64 63/63/63 61/61/61
f 67/67/67 66/66/66 65/65/65
f 68/68/68 67/67/67 65/65/65
f 68/68/68 65/65/65 69/69/69
f 70/70/70 68/68/68 69/69/69
f 73/73/73 72/72/72 71/71/71
f 74/74/74 73/73/73 71/71/71
f 74/74/74 71/71/71 75/75/75
f 76/76/76 74/74/74 75/75/75
f 75/75/75 71/71/71 77/77/77
f 71/71/71 78/78/78 77/77/77
f 77/77/77 78/78/78 79/79/79
f 78/78/78 80/80/80 79/79/79
f 78/78/78 81/81/81 80/80/80
f 81/81/81 82/82/82 80/80/80
f 85/85/85 84/84/84 83/83/83
f 86/86/86 85/85/85 83/83/83
f 86/86/86 83/83/83 87/87/87
f 88/88/88 86/86/86 87/87/87
f 91/91/91 90/90/90 89/89/89
f 92/92/92 91/91/91 89/89/89
f 92/92/92 89/89/89 93/93/93
f 94/94/94 92/92/92 93/93/93
f 89/89/89 95/95/95 93/93/93
f 95/95/95 96/96/96 93/93/93
f 96/96/96 95/95/95 97/97/97
f 95/95/95 98/98/98 97/97/97
f 95/95/95 99/99/99 98/98/98
f 99/99/99 100/100/100 98/98/98
f 103/103/103 102/102/102 101/101/101
f 104/104/104 103/103/103 101/101/101
f 107/107/107 106/106/106 105/105/105
f 108/108/108 107/107/107 105/105/105
f 108/108/108 105/105/105 109/109/109
f 110/110/110 108/108/108 109/109/109
f 110/110/110 109/109/109 111/111/111
f 112/112/112 110/110/110 111/111/111
f 115/115/115 114/114/114 113/113/113
f 116/116/116 115/115/115 113/113/113
f 119/119/119 118/118/118 117/117/117
f 120/120/120 119/119/119 117/117/117
f 123/123/123 122/122/122 121/121/121
f 124/124/124 123/123/123 121/121/121
f 127/127/127 126/126/126 125/125/125
f 128/128/128 127/127/127 125/125/125
