g Model_0
v -0.006958 -0.309889 1.260356
v 0.032488 -0.012162 1.005354
v -0.052008 0.011744 1.008046
v -0.090833 -0.284251 1.246433
v -0.090833 -0.284251 1.246433
v -0.052008 0.011744 1.008046
v -0.051668 0.054679 1.063736
v -0.083166 -0.242374 1.328072
v -0.083166 -0.242374 1.328072
v -0.051668 0.054679 1.063736
v 0.031591 0.027964 1.088039
v 0.003179 -0.286920 1.315587
v 0.003179 -0.286920 1.315587
v 0.031591 0.027964 1.088039
v 0.032488 -0.012162 1.005354
v -0.006958 -0.309889 1.260356
v 0.003179 -0.286920 1.315587
v -0.006958 -0.309889 1.260356
v -0.090833 -0.284251 1.246433
v -0.083166 -0.242374 1.328072
v 0.478736 0.434628 -0.024193
v -0.464316 0.444465 -0.030585
v -0.440596 -0.476805 -0.010035
v 0.438510 -0.451471 -0.003303
v -0.406150 0.394348 0.760080
v -0.060941 0.062918 1.107549
v -0.066063 -0.077292 1.086981
v -0.353110 -0.384221 0.820961
v 0.478736 0.434628 -0.024193
v 0.438510 -0.451471 -0.003303
v 0.449291 -0.445468 0.849283
v 0.371125 0.370379 0.878995
v 0.438510 -0.451471 -0.003303
v -0.440596 -0.476805 -0.010035
v -0.353110 -0.384221 0.820961
v 0.449291 -0.445468 0.849283
v -0.440596 -0.476805 -0.010035
v -0.464316 0.444465 -0.030585
v -0.406150 0.394348 0.760080
v -0.353110 -0.384221 0.820961
v 0.371125 0.370379 0.878995
v -0.406150 0.394348 0.760080
v -0.464316 0.444465 -0.030585
v 0.478736 0.434628 -0.024193
v 0.042023 0.031575 1.085400
v 0.078510 -0.068968 1.068495
v -0.066063 -0.077292 1.086981
v -0.060941 0.062918 1.107549
v -0.353110 -0.384221 0.820961
v -0.066063 -0.077292 1.086981
v 0.078510 -0.068968 1.068495
v 0.449291 -0.445468 0.849283
v 0.371125 0.370379 0.878995
v 0.042023 0.031575 1.085400
v -0.060941 0.062918 1.107549
v -0.406150 0.394348 0.760080
v 0.449291 -0.445468 0.849283
v 0.078510 -0.068968 1.068495
v 0.042023 0.031575 1.085400
v 0.371125 0.370379 0.878995
v 0.093425 0.119640 1.385843
v -0.042553 -0.072370 1.051541
v -0.065954 -0.010975 1.005051
v 0.050865 0.185708 1.333712
v 0.050865 0.185708 1.333712
v -0.065954 -0.010975 1.005051
v -0.013515 0.026246 0.937113
v 0.127922 0.192615 1.302839
v 0.127922 0.192615 1.302839
v -0.013515 0.026246 0.937113
v 0.038014 -0.087541 1.006592
v 0.142879 0.114773 1.329126
v 0.142879 0.114773 1.329126
v 0.038014 -0.087541 1.006592
v -0.042553 -0.072370 1.051541
v 0.093425 0.119640 1.385843
v 0.142879 0.114773 1.329126
v 0.093425 0.119640 1.385843
v 0.050865 0.185708 1.333712
v 0.127922 0.192615 1.302839
vt 0 0
vt 0 0
vt 0 0
vt 0 0
vt 0 0
vt 0 0
vt 0 0
vt 0 0
vt 0 0
vt 0 0
vt 0 0
vt 0 0
vt 0 0
vt 0 0
vt 0 0
vt 0 0
vt 0 0
vt 0 0
vt 0 0
vt 0 0
vt 0.00164999999 0.502475023
vt 0.00164999999 0.997524977
vt 0.33168301 0.997524977
vt 0.33168301 0.502475023
vt 0.998350024 0.497525007
vt 0.998350024 0.497525007
vt 0.998350024 0.00247499999
vt 0.998350024 0.00247499999
vt 0.00164999999 0.497525007
vt 0.33168301 0.497525007
vt 0.33168301 0.00247499999
vt 0.00164999999 0.00247499999
vt 0.334984004 0.497525007
vt 0.665015996 0.497525007
vt 0.665015996 0.00247499999
vt 0.334984004 0.00247499999
vt 0.66831702 0.00247499999
vt 0.66831702 0.497525007
vt 0.998350024 0.497525007
vt 0.998350024 0.00247499999
vt 0.334984004 0.502475023
vt 0.334984004 0.997524977
vt 0.665015996 0.997524977
vt 0.665015996 0.502475023
vt 0.66831702 0.997524977
vt 0.998350024 0.997524977
vt 0.998350024 0.502475023
vt 0.66831702 0.502475023
vt 0.665015996 0.00247499999
vt 0.665015996 0.00247499999
vt 0.334984004 0.00247499999
vt 0.334984004 0.00247499999
vt 0.334984004 0.502475023
vt 0.334984004 0.502475023
vt 0.334984004 0.997524977
vt 0.334984004 0.997524977
vt 0.33168301 0.00247499999
vt 0.33168301 0.00247499999
vt 0.00164999999 0.00247499999
vt 0.00164999999 0.00247499999
vt 0 0
vt 0 0
vt 0 0
vt 0 0
vt 0 0
vt 0 0
vt 0 0
vt 0 0
vt 0 0
vt 0 0
vt 0 0
vt 0 0
vt 0 0
vt 0 0
vt 0 0
vt 0 0
vt 0 0
vt 0 0
vt 0 0
vt 0 0
vn -0.131959 -0.623192 -0.770855
vn -0.131959 -0.623192 -0.770855
vn -0.131959 -0.623192 -0.770855
vn -0.131959 -0.623192 -0.770855
vn -0.993928 0.109604 -0.009738
vn -0.993928 0.109604 -0.009738
vn -0.993928 0.109604 -0.009738
vn -0.993928 0.109604 -0.009738
vn 0.199079 0.602052 0.773241
vn 0.199079 0.602052 0.773241
vn 0.199079 0.602052 0.773241
vn 0.199079 0.602052 0.773241
vn 0.992781 -0.119352 -0.011912
vn 0.992781 -0.119352 -0.011912
vn 0.992781 -0.119352 -0.011912
vn 0.992781 -0.119352 -0.011912
vn -0.345817 -0.829747 0.438099
vn -0.345817 -0.829747 0.438099
vn -0.345817 -0.829747 0.438099
vn -0.345817 -0.829747 0.438099
vn 0.007396 -0.022989 -0.999708
vn 0.007396 -0.022989 -0.999708
vn 0.007396 -0.022989 -0.999708
vn 0.007396 -0.022989 -0.999708
vn -0.902073 -0.024233 0.430902
vn -0.696464 -0.004838 0.717576
vn -0.696464 -0.004838 0.717576
vn -0.902073 -0.024233 0.430902
vn 0.998202 0.021963 0.055779
vn 0.998202 0.021963 0.055779
vn 0.998202 0.021963 0.055779
vn 0.998202 0.021963 0.055779
vn -0.022560 -0.997958 0.059755
vn -0.022560 -0.997958 0.059755
vn -0.022560 -0.997958 0.059755
vn -0.022560 -0.997958 0.059755
vn -0.995074 -0.040602 0.090437
vn -0.995074 -0.040602 0.090437
vn -0.902073 -0.024233 0.430902
vn -0.902073 -0.024233 0.430902
vn 0.014666 0.997592 0.067784
vn 0.014666 0.997592 0.067784
vn 0.014666 0.997592 0.067784
vn 0.014666 0.997592 0.067784
vn 0.342104 -0.057038 0.937929
vn 0.223721 -0.247034 0.942827
vn 0.055638 -0.369945 0.927386
vn 0.148474 -0.133178 0.979908
vn -0.040950 -0.581765 0.812325
vn 0.055638 -0.369945 0.927386
vn 0.055638 -0.369945 0.927386
vn -0.040950 -0.581765 0.812325
vn -0.044765 0.635742 0.770603
vn -0.044765 0.635742 0.770603
vn -0.044765 0.635742 0.770603
vn -0.044765 0.635742 0.770603
vn 0.520322 0.021672 0.853695
vn 0.342104 -0.057038 0.937929
vn 0.342104 -0.057038 0.937929
vn 0.520322 0.021672 0.853695
vn -0.896114 -0.137139 0.422105
vn -0.896114 -0.137139 0.422105
vn -0.896114 -0.137139 0.422105
vn -0.896114 -0.137139 0.422105
vn -0.482312 0.837062 -0.258267
vn -0.482312 0.837062 -0.258267
vn -0.482312 0.837062 -0.258267
vn -0.482312 0.837062 -0.258267
vn 0.912286 0.120979 -0.391278
vn 0.912286 0.120979 -0.391278
vn 0.912286 0.120979 -0.391278
vn 0.912286 0.120979 -0.391278
vn 0.213233 -0.870176 0.444213
vn 0.213233 -0.870176 0.444213
vn 0.213233 -0.870176 0.444213
vn 0.213233 -0.870176 0.444213
vn 0.465618 0.559659 0.685552
vn 0.465618 0.559659 0.685552
vn 0.465618 0.559659 0.685552
vn 0.465618 0.559659 0.685552
g Model_0_0
f 3/3/3 2/2/2 1/1/1
f 4/4/4 3/3/3 1/1/1
f 7/7/7 6/6/6 5/5/5
f 8/8/8 7/7/7 5/5/5
f 11/11/11 10/10/10 9/9/9
f 12/12/12 11/11/11 9/9/9
f 15/15/15 14/14/14 13/13/13
f 16/16/16 15/15/15 13/13/13
f 19/19/19 18/18/18 17/17/17
f 20/20/20 19/19/19 17/17/17
f 23/23/23 22/22/22 21/21/21
f 24/24/24 23/23/23 21/21/21
f 27/27/27 26/26/26 25/25/25
f 28/28/28 27/27/27 25/25/25
f 31/31/31 30/30/30 29/29/29
f 32/32/32 31/31/31 29/29/29
f 35/35/35 34/34/34 33/33/33
f 36/36/36 35/35/35 33/33/33
f 39/39/39 38/38/38 37/37/37
f 40/40/40 39/39/39 37/37/37
f 43/43/43 42/42/42 41/41/41
f 44/44/44 43/43/43 41/41/41
f 47/47/47 46/46/46 45/45/45
f 48/48/48 47/47/47 45/45/45
f 51/51/51 50/50/50 49/49/49
f 52/52/52 51/51/51 49/49/49
f 55/55/55 54/54/54 53/53/53
f 56/56/56 55/55/55 53/53/53
f 59/59/59 58/58/58 57/57/57
f 60/60/60 59/59/59 57/57/57
f 63/63/63 62/62/62 61/61/61
f 64/64/64 63/63/63 61/61/61
f 67/67/67 66/66/66 65/65/65
f 68/68/68 67/67/67 65/65/65
f 71/71/71 70/70/70 69/69/69
f 72/72/72 71/71/71 69/69/69
f 75/75/75 74/74/74 73/73/73
f 76/76/76 75/75/75 73/73/73
f 79/79/79 78/78/78 77/77/77
f 80/80/80 79/79/79 77/77/77