g Model_0
v -2 11 0.400000006
v -1 12 0.400000006
v 1.00000095 11.9999962 0.400000006
v 2.00000095 10.9999962 0.400000006
v 1.99999499 -11.0000048 0.399993986
v -2.00000405 -10.9999971 0.399996012
v -1.00000501 -11.9999971 0.399993986
v 0.99999398 -12.0000048 0.399993986
v 1.00000095 11.9999962 0.400000006
v -1 12 0.400000006
v -0.999998987 12.0000029 -1
v 1 12 -1
v 2.00000095 10.9999962 0.400000006
v 2 11 -1
v 1.99999595 -11 -1.00000405
v 1.99999499 -11.0000048 0.399993986
v -1.99999905 11.0000029 -1
v -0.999998987 12.0000029 -1
v -1 12 0.400000006
v -2 11 0.400000006
v 0.999994993 -12 -1.00000501
v -1.00000501 -11.9999971 0.399993986
v 0.99999398 -12.0000048 0.399993986
v -1.00000501 -11.9999981 -1.00000501
v -2.00000405 -10.9999971 0.399996012
v -2.00000405 -10.9999981 -1.00000405
v -2 11 0.400000006
v -1.99999905 11.0000029 -1
v 1.99999595 -11 -1.00000405
v 0.999994993 -12 -1.00000501
v 0.99999398 -12.0000048 0.399993986
v 1.99999499 -11.0000048 0.399993986
v -0.75 9.25 1.5
v -0.75 9.25 0
v -0.75 10.75 0
v -0.75 10.75 1.5
v -0.75 10.75 1.5
v -0.75 10.75 0
v 0.75 10.75 0
v 0.75 10.75 1.5
v 0.75 10.75 1.5
v 0.75 10.75 0
v 0.75 9.25 0
v 0.75 9.25 1.5
v 0.75 9.25 1.5
v 0.75 9.25 0
v -0.75 9.25 0
v -0.75 9.25 1.5
v 0.75 9.25 1.5
v -0.75 9.25 1.5
v -0.75 10.75 1.5
v 0.75 10.75 1.5
v -0.75 -10.75 1.5
v -0.75 -10.75 0
v -0.75 -9.25 0
v -0.75 -9.25 1.5
v -0.75 -9.25 1.5
v -0.75 -9.25 0
v 0.75 -9.25 0
v 0.75 -9.25 1.5
v 0.75 -9.25 1.5
v 0.75 -9.25 0
v 0.75 -10.75 0
v 0.75 -10.75 1.5
v 0.75 -10.75 1.5
v 0.75 -10.75 0
v -0.75 -10.75 0
v -0.75 -10.75 1.5
v 0.75 -10.75 1.5
v -0.75 -10.75 1.5
v -0.75 -9.25 1.5
v 0.75 -9.25 1.5
v -0.75 -0.75 1.5
v -0.75 -0.75 0
v -0.75 0.75 0
v -0.75 0.75 1.5
v -0.75 0.75 1.5
v -0.75 0.75 0
v 0.75 0.75 0
v 0.75 0.75 1.5
v 0.75 0.75 1.5
v 0.75 0.75 0
v 0.75 -0.75 0
v 0.75 -0.75 1.5
v 0.75 -0.75 1.5
v 0.75 -0.75 0
v -0.75 -0.75 0
v -0.75 -0.75 1.5
v 0.75 -0.75 1.5
v -0.75 -0.75 1.5
v -0.75 0.75 1.5
v 0.75 0.75 1.5
v -0.375 -0.375 7
v -0.375 -0.375 0.5
v -0.375 0.375 0.5
v -0.375 0.375 7
v -0.375 0.375 7
v -0.375 0.375 0.5
v 0.375 0.375 0.5
v 0.375 0.375 7
v 0.375 0.375 7
v 0.375 0.375 0.5
v 0.375 -0.375 0.5
v 0.375 -0.375 7
v 0.375 -0.375 7
v 0.375 -0.375 0.5
v -0.375 -0.375 0.5
v -0.375 -0.375 7
v -0.375 9.625 7
v -0.375 9.625 0.5
v -0.375 10.375 0.5
v -0.375 10.375 7
v -0.375 10.375 7
v -0.375 10.375 0.5
v 0.375 10.375 0.5
v 0.375 10.375 7
v 0.375 10.375 7
v 0.375 10.375 0.5
v 0.375 9.625 0.5
v 0.375 9.625 7
v 0.375 9.625 7
v 0.375 9.625 0.5
v -0.375 9.625 0.5
v -0.375 9.625 7
v -0.375 -10.375 7
v -0.375 -10.375 0.5
v -0.375 -9.625 0.5
v -0.375 -9.625 7
v -0.375 -9.625 7
v -0.375 -9.625 0.5
v 0.375 -9.625 0.5
v 0.375 -9.625 7
v 0.375 -9.625 7
v 0.375 -9.625 0.5
v 0.375 -10.375 0.5
v 0.375 -10.375 7
v 0.375 -10.375 7
v 0.375 -10.375 0.5
v -0.375 -10.375 0.5
v -0.375 -10.375 7
v -8.10000038 -11.9631672 7.01413298
v -8.10000038 -11.9631672 6.71145678
v -8.10000038 11.9631672 6.71145678
v -8.10000038 11.9631672 7.01413298
v -8.10000038 11.9631672 7.01413298
v -8.10000038 11.9631672 6.71145678
v 8.10000038 11.9631672 6.71145678
v 8.10000038 11.9631672 7.01413298
v 8.10000038 11.9631672 7.01413298
v 8.10000038 11.9631672 6.71145678
v 8.10000038 -11.9631672 6.71145678
v 8.10000038 -11.9631672 7.01413298
v 8.10000038 -11.9631672 7.01413298
v 8.10000038 -11.9631672 6.71145678
v -8.10000038 -11.9631672 6.71145678
v -8.10000038 -11.9631672 7.01413298
v -8.10000038 -11.9631672 6.71145678
v 8.10000038 -11.9631672 6.71145678
v 8.10000038 11.9631672 6.71145678
v -8.10000038 11.9631672 6.71145678
v 8.10000038 -11.9631672 7.01413298
v -8.10000038 -11.9631672 7.01413298
v -8.10000038 11.9631672 7.01413298
v 8.10000038 11.9631672 7.01413298
v -8 -11.8631668 7.79236698
v -8 -11.8631668 6.5999999
v -8 11.8631668 6.5999999
v -8 11.8631668 7.79236698
v -8 11.8631668 7.79236698
v -8 11.8631668 6.5999999
v 8 11.8631668 6.5999999
v 8 11.8631668 7.79236698
v 8 11.8631668 7.79236698
v 8 11.8631668 6.5999999
v 8 -11.8631668 6.5999999
v 8 -11.8631668 7.79236698
v 8 -11.8631668 7.79236698
v 8 -11.8631668 6.5999999
v -8 -11.8631668 6.5999999
v -8 -11.8631668 7.79236698
v -8 -11.8631668 6.5999999
v 8 -11.8631668 6.5999999
v 8 11.8631668 6.5999999
v -8 11.8631668 6.5999999
v 8 -11.8631668 7.79236698
v -8 -11.8631668 7.79236698
v -8 11.8631668 7.79236698
v 8 11.8631668 7.79236698
vt 0.798326015 0.222078994
vt 0.795296013 0.219505996
vt 0.789233983 0.219508007
vt 0.786203027 0.222084999
vt 0.786175013 0.278697997
vt 0.798326015 0.278728992
vt 0.795296013 0.281305999
vt 0.789233983 0.281309009
vt 0.806185007 0.270509988
vt 0.806185007 0.266865999
vt 0.801940978 0.266865999
vt 0.801940978 0.270509988
vt 0.806185007 0.274152994
vt 0.801940978 0.274152994
vt 0.801940978 0.314227015
vt 0.804669976 0.314227015
vt 0.806185007 0.263089001
vt 0.806185007 0.266732007
vt 0.810428977 0.266732007
vt 0.810428977 0.263089001
vt 0.801940978 0.219505996
vt 0.806185007 0.223149002
vt 0.806185007 0.219505996
vt 0.801940978 0.223149002
vt 0.806185007 0.226791993
vt 0.801940978 0.226791993
vt 0.806185007 0.266865999
vt 0.801940978 0.266865999
vt 0.801940978 0.319691986
vt 0.801940978 0.323334992
vt 0.806185007 0.323334992
vt 0.804669023 0.319691986
vt 0.806487978 0.318091005
vt 0.806487978 0.321954995
vt 0.809704006 0.321954995
vt 0.809704006 0.318091005
vt 0.806487978 0.314227015
vt 0.801940978 0.314227015
vt 0.801940978 0.316960007
vt 0.806487978 0.316960007
vt 0.806487978 0.316960007
vt 0.801940978 0.316960007
vt 0.801940978 0.319691986
vt 0.806487978 0.319691986
vt 0.806185007 0.310362995
vt 0.806185007 0.314227015
vt 0.809400976 0.314227015
vt 0.809400976 0.310362995
vt 0.791397989 0.318661988
vt 0.786850989 0.318664014
vt 0.786850989 0.322526991
vt 0.791397989 0.322524995
vt 0.810317993 0.246344998
vt 0.810317993 0.242479995
vt 0.807102978 0.242479995
vt 0.807102978 0.246344998
vt 0.800768018 0.310817987
vt 0.796221018 0.310817987
vt 0.796221018 0.313549995
vt 0.800768018 0.313549995
vt 0.800768018 0.313549995
vt 0.796221018 0.313549995
vt 0.796221018 0.316282988
vt 0.800768018 0.316282988
vt 0.789789975 0.314318001
vt 0.789789975 0.310454011
vt 0.786575019 0.310454011
vt 0.786575019 0.314318001
vt 0.786850989 0.318661988
vt 0.791397989 0.318659991
vt 0.791397989 0.314797997
vt 0.786850989 0.314799994
vt 0.810317993 0.240114003
vt 0.810317993 0.236249998
vt 0.807102978 0.236249998
vt 0.807102978 0.240114003
vt 0.791397989 0.320262015
vt 0.795944989 0.320262015
vt 0.795944989 0.317530006
vt 0.791397989 0.317530006
vt 0.791397989 0.317530006
vt 0.795944989 0.317530006
vt 0.795944989 0.314797997
vt 0.791397989 0.314797997
vt 0.809704006 0.318091005
vt 0.809704006 0.314227015
vt 0.806487978 0.314227015
vt 0.806487978 0.318091005
vt 0.800765991 0.320147991
vt 0.800765991 0.316285014
vt 0.796221018 0.316282988
vt 0.796221018 0.320145994
vt 0.353861988 0.285946995
vt 0.353861988 0.269201994
vt 0.352254003 0.269201994
vt 0.352254003 0.285946995
vt 0.348540008 0.275386006
vt 0.348540008 0.258641005
vt 0.346933007 0.258641005
vt 0.346933007 0.275386006
vt 0.346933007 0.275386006
vt 0.346933007 0.258641005
vt 0.345324993 0.258641005
vt 0.345324993 0.275386006
vt 0.359421998 0.223676994
vt 0.359423012 0.240421996
vt 0.361030012 0.240421996
vt 0.361030012 0.223676994
vt 0.352254003 0.285946995
vt 0.352254003 0.269201994
vt 0.350645989 0.269201994
vt 0.350645989 0.285946995
vt 0.348540008 0.292129993
vt 0.348540008 0.275386006
vt 0.346933007 0.275386006
vt 0.346933007 0.292129993
vt 0.346933007 0.292129993
vt 0.346933007 0.275386006
vt 0.345324993 0.275386006
vt 0.345324993 0.292129993
vt 0.361030012 0.213582993
vt 0.361030012 0.196838006
vt 0.359421998 0.196838006
vt 0.359423012 0.213582993
vt 0.345324993 0.292129993
vt 0.345324993 0.275386006
vt 0.343717009 0.275386006
vt 0.343717009 0.292129993
vt 0.342110008 0.258641005
vt 0.342110008 0.275386006
vt 0.343717009 0.275386006
vt 0.343717009 0.258641005
vt 0.343717009 0.258641005
vt 0.343717009 0.275386006
vt 0.345324993 0.275386006
vt 0.345324993 0.258641005
vt 0.342110008 0.275386006
vt 0.342110008 0.292129993
vt 0.343717009 0.292129993
vt 0.343717009 0.275386006
vt 0.276309013 0.744633019
vt 0.275391012 0.744633019
vt 0.275391012 0.788215995
vt 0.276309013 0.788215995
vt 0.279924005 0.791993022
vt 0.279006004 0.791993022
vt 0.279006004 0.821502984
vt 0.279922992 0.821502984
vt 0.279922992 0.821502984
vt 0.279006004 0.821502984
vt 0.279006004 0.865086019
vt 0.279924005 0.865086019
vt 0.266344011 0.806436002
vt 0.265426993 0.806436002
vt 0.265426993 0.83594501
vt 0.266344011 0.83594501
vt 0.206279993 0.744633019
vt 0.157170996 0.744633019
vt 0.157170996 0.80626899
vt 0.206279993 0.80626899
vt 0.255382001 0.744633019
vt 0.206279993 0.744654
vt 0.206279993 0.806264997
vt 0.255382001 0.806243002
vt 0.707796991 0.650322974
vt 0.704182029 0.650322974
vt 0.704182029 0.693542004
vt 0.707796991 0.693542004
vt 0.699937999 0.602962017
vt 0.696322978 0.602962017
vt 0.696322978 0.632107019
vt 0.699937999 0.632107019
vt 0.699937999 0.632107019
vt 0.696322978 0.632107019
vt 0.696322978 0.67532599
vt 0.699937999 0.67532599
vt 0.687786996 0.664765
vt 0.684171975 0.664765
vt 0.684171975 0.693910003
vt 0.687786996 0.693910003
vt 0.63507098 0.725714982
vt 0.683574021 0.725714982
vt 0.683574021 0.664593995
vt 0.63507098 0.664593995
vt 0.585960984 0.725714982
vt 0.634456992 0.725692987
vt 0.634456992 0.664597988
vt 0.585960984 0.664619029
vn -0 0 1
vn -0 0 1
vn -0 0 1
vn -0 0 1
vn -0 0 1
vn -0 0 1
vn -0 0 1
vn -0 0 1
vn 0.382683396 0.923879504 0
vn -0.382683396 0.923879504 0
vn -0.382683396 0.923879504 0
vn 0.382683396 0.923879504 0
vn 0.923879504 0.382683277 0
vn 0.923879504 0.382683277 0
vn 0.923879445 -0.382683784 0
vn 0.923879445 -0.382683784 0
vn -0.923879504 0.382683516 0
vn -0.382683396 0.923879504 0
vn -0.382683396 0.923879504 0
vn -0.923879504 0.382683516 0
vn 0.382682085 -0.923880041 0
vn -0.382684737 -0.923878908 0
vn 0.382682085 -0.923880041 0
vn -0.382684737 -0.923878908 0
vn -0.923879623 -0.382683128 0
vn -0.923879623 -0.382683128 0
vn -0.923879504 0.382683516 0
vn -0.923879504 0.382683516 0
vn 0.923879445 -0.382683784 0
vn 0.382682085 -0.923880041 0
vn 0.382682085 -0.923880041 0
vn 0.923879445 -0.382683784 0
vn -1 0 0
vn -1 0 0
vn -1 0 0
vn -1 0 0
vn -0 1 0
vn -0 1 0
vn -0 1 0
vn -0 1 0
vn 1 0 0
vn 1 0 0
vn 1 0 0
vn 1 0 0
vn -0 -1 0
vn -0 -1 0
vn -0 -1 0
vn -0 -1 0
vn -0 0 1
vn -0 0 1
vn -0 0 1
vn -0 0 1
vn -1 0 0
vn -1 0 0
vn -1 0 0
vn -1 0 0
vn -0 1 0
vn -0 1 0
vn -0 1 0
vn -0 1 0
vn 1 0 0
vn 1 0 0
vn 1 0 0
vn 1 0 0
vn -0 -1 0
vn -0 -1 0
vn -0 -1 0
vn -0 -1 0
vn -0 0 1
vn -0 0 1
vn -0 0 1
vn -0 0 1
vn -1 0 0
vn -1 0 0
vn -1 0 0
vn -1 0 0
vn -0 1 0
vn -0 1 0
vn -0 1 0
vn -0 1 0
vn 1 0 0
vn 1 0 0
vn 1 0 0
vn 1 0 0
vn -0 -1 0
vn -0 -1 0
vn -0 -1 0
vn -0 -1 0
vn -0 0 1
vn -0 0 1
vn -0 0 1
vn -0 0 1
vn -1 0 0
vn -1 0 0
vn -1 0 0
vn -1 0 0
vn -0 1 0
vn -0 1 0
vn -0 1 0
vn -0 1 0
vn 1 0 0
vn 1 0 0
vn 1 0 0
vn 1 0 0
vn -0 -1 0
vn -0 -1 0
vn -0 -1 0
vn -0 -1 0
vn -1 0 0
vn -1 0 0
vn -1 0 0
vn -1 0 0
vn -0 1 0
vn -0 1 0
vn -0 1 0
vn -0 1 0
vn 1 0 0
vn 1 0 0
vn 1 0 0
vn 1 0 0
vn -0 -1 0
vn -0 -1 0
vn -0 -1 0
vn -0 -1 0
vn -1 0 0
vn -1 0 0
vn -1 0 0
vn -1 0 0
vn -0 1 0
vn -0 1 0
vn -0 1 0
vn -0 1 0
vn 1 0 0
vn 1 0 0
vn 1 0 0
vn 1 0 0
vn -0 -1 0
vn -0 -1 0
vn -0 -1 0
vn -0 -1 0
vn -1 0 0
vn -1 0 0
vn -1 0 0
vn -1 0 0
vn -0 1 0
vn -0 1 0
vn -0 1 0
vn -0 1 0
vn 1 0 0
vn 1 0 0
vn 1 0 0
vn 1 0 0
vn -0 -1 0
vn -0 -1 0
vn -0 -1 0
vn -0 -1 0
vn -0 0 -1
vn -0 0 -1
vn -0 0 -1
vn -0 0 -1
vn -0 0 1
vn -0 0 1
vn -0 0 1
vn -0 0 1
vn -1 0 0
vn -1 0 0
vn -1 0 0
vn -1 0 0
vn -0 1 0
vn -0 1 0
vn -0 1 0
vn -0 1 0
vn 1 0 0
vn 1 0 0
vn 1 0 0
vn 1 0 0
vn -0 -1 0
vn -0 -1 0
vn -0 -1 0
vn -0 -1 0
vn -0 0 -1
vn -0 0 -1
vn -0 0 -1
vn -0 0 -1
vn -0 0 1
vn -0 0 1
vn -0 0 1
vn -0 0 1
g Model_0_0
f 3/3/3 2/2/2 1/1/1
f 4/4/4 3/3/3 1/1/1
f 5/5/5 4/4/4 1/1/1
f 6/6/6 5/5/5 1/1/1
f 6/6/6 7/7/7 5/5/5
f 7/7/7 8/8/8 5/5/5
f 11/11/11 10/10/10 9/9/9
f 12/12/12 11/11/11 9/9/9
f 12/12/12 9/9/9 13/13/13
f 14/14/14 12/12/12 13/13/13
f 15/15/15 14/14/14 13/13/13
f 16/16/16 15/15/15 13/13/13
f 19/19/19 18/18/18 17/17/17
f 20/20/20 19/19/19 17/17/17
f 23/23/23 22/22/22 21/21/21
f 22/22/22 24/24/24 21/21/21
f 24/24/24 22/22/22 25/25/25
f 26/26/26 24/24/24 25/25/25
f 26/26/26 25/25/25 27/27/27
f 28/28/28 26/26/26 27/27/27
f 31/31/31 30/30/30 29/29/29
f 32/32/32 31/31/31 29/29/29
f 35/35/35 34/34/34 33/33/33
f 36/36/36 35/35/35 33/33/33
f 39/39/39 38/38/38 37/37/37
f 40/40/40 39/39/39 37/37/37
f 43/43/43 42/42/42 41/41/41
f 44/44/44 43/43/43 41/41/41
f 47/47/47 46/46/46 45/45/45
f 48/48/48 47/47/47 45/45/45
f 51/51/51 50/50/50 49/49/49
f 52/52/52 51/51/51 49/49/49
f 55/55/55 54/54/54 53/53/53
f 56/56/56 55/55/55 53/53/53
f 59/59/59 58/58/58 57/57/57
f 60/60/60 59/59/59 57/57/57
f 63/63/63 62/62/62 61/61/61
f 64/64/64 63/63/63 61/61/61
f 67/67/67 66/66/66 65/65/65
f 68/68/68 67/67/67 65/65/65
f 71/71/71 70/70/70 69/69/69
f 72/72/72 71/71/71 69/69/69
f 75/75/75 74/74/74 73/73/73
f 76/76/76 75/75/75 73/73/73
f 79/79/79 78/78/78 77/77/77
f 80/80/80 79/79/79 77/77/77
f 83/83/83 82/82/82 81/81/81
f 84/84/84 83/83/83 81/81/81
f 87/87/87 86/86/86 85/85/85
f 88/88/88 87/87/87 85/85/85
f 91/91/91 90/90/90 89/89/89
f 92/92/92 91/91/91 89/89/89
f 95/95/95 94/94/94 93/93/93
f 96/96/96 95/95/95 93/93/93
f 99/99/99 98/98/98 97/97/97
f 100/100/100 99/99/99 97/97/97
f 103/103/103 102/102/102 101/101/101
f 104/104/104 103/103/103 101/101/101
f 107/107/107 106/106/106 105/105/105
f 108/108/108 107/107/107 105/105/105
f 111/111/111 110/110/110 109/109/109
f 112/112/112 111/111/111 109/109/109
f 115/115/115 114/114/114 113/113/113
f 116/116/116 115/115/115 113/113/113
f 119/119/119 118/118/118 117/117/117
f 120/120/120 119/119/119 117/117/117
f 123/123/123 122/122/122 121/121/121
f 124/124/124 123/123/123 121/121/121
f 127/127/127 126/126/126 125/125/125
f 128/128/128 127/127/127 125/125/125
f 131/131/131 130/130/130 129/129/129
f 132/132/132 131/131/131 129/129/129
f 135/135/135 134/134/134 133/133/133
f 136/136/136 135/135/135 133/133/133
f 139/139/139 138/138/138 137/137/137
f 140/140/140 139/139/139 137/137/137
f 143/143/143 142/142/142 141/141/141
f 144/144/144 143/143/143 141/141/141
f 147/147/147 146/146/146 145/145/145
f 148/148/148 147/147/147 145/145/145
f 151/151/151 150/150/150 149/149/149
f 152/152/152 151/151/151 149/149/149
f 155/155/155 154/154/154 153/153/153
f 156/156/156 155/155/155 153/153/153
f 159/159/159 158/158/158 157/157/157
f 160/160/160 159/159/159 157/157/157
f 163/163/163 162/162/162 161/161/161
f 164/164/164 163/163/163 161/161/161
f 167/167/167 166/166/166 165/165/165
f 168/168/168 167/167/167 165/165/165
f 171/171/171 170/170/170 169/169/169
f 172/172/172 171/171/171 169/169/169
f 175/175/175 174/174/174 173/173/173
f 176/176/176 175/175/175 173/173/173
f 179/179/179 178/178/178 177/177/177
f 180/180/180 179/179/179 177/177/177
f 183/183/183 182/182/182 181/181/181
f 184/184/184 183/183/183 181/181/181
f 187/187/187 186/186/186 185/185/185
f 188/188/188 187/187/187 185/185/185
