g Model_0
v -1 -0.0500000007 1
v -0.637350976 -0.0500000007 0.788094997
v -0.202482 -0.0500000007 -0.219972
v -0.202481002 0.0500000007 -0.219972
v -0.637350976 0.0500000007 0.788094997
v -1 0.0500000007 1
v -0.637350976 0.0500000007 0.788094997
v -1 -0.0500000007 1
v -1 0.0500000007 1
v -0.637350976 -0.0500000007 0.788094997
v -0.202481002 0.0500000007 -0.219972
v -0.202482 -0.0500000007 -0.219972
v 1 0.0500000007 -1
v 1 -0.0500000007 -1
v 0.567893028 -0.0500000007 -0.146798998
v 0.567894995 0.0500000007 -0.146798998
v 0.567894995 0.0500000007 -0.146798998
v 0.567893028 -0.0500000007 -0.146798998
v -0.202482 -0.0500000007 -0.219972
v -0.202481002 0.0500000007 -0.219972
v -0.202482 -0.0500000007 -0.219972
v -1 -0.0500000007 -1
v -1 -0.0500000007 1
v 0.567893028 -0.0500000007 -0.146798998
v 1 -0.0500000007 -1
v -0.202481002 0.0500000007 -0.219972
v -1 0.0500000007 1
v -1 0.0500000007 -1
v 1 0.0500000007 -1
v 0.567894995 0.0500000007 -0.146798998
vt 0.665015996 0.00247499999
vt 0.582508028 0.00247499999
vt 0.5 0.00247499999
vt 0.334984004 0.75
vt 0.334984004 0.873762012
vt 0.334984004 0.997524977
vt 0.66831702 0.626237988
vt 0.998350024 0.502475023
vt 0.66831702 0.502475023
vt 0.998350024 0.626237988
vt 0.66831702 0.75
vt 0.998350024 0.75
vt 0.00164999999 0.497525007
vt 0.33168301 0.497525007
vt 0.33168301 0.00247499999
vt 0.00164999999 0.00247499999
vt 0.66831702 0.997524977
vt 0.998350024 0.997524977
vt 0.998350024 0.75
vt 0.66831702 0.75
vt 0.5 0.00247499999
vt 0.665015996 0.497525007
vt 0.665015996 0.00247499999
vt 0.334984004 0.00247499999
vt 0.334984004 0.497525007
vt 0.334984004 0.75
vt 0.334984004 0.997524977
vt 0.665015996 0.997524977
vt 0.665015996 0.502475023
vt 0.334984004 0.502475023
vn -0 -1 0
vn -0 -1 0
vn -0 -1 0
vn -0 1 0
vn -0 1 0
vn -0 1 0
vn 0.748747349 0 0.662855506
vn 0.504509866 0 0.863405883
vn 0.504509866 0 0.863405883
vn 0.748747349 0 0.662855506
vn 0.9182055 0 0.396104157
vn 0.9182055 0 0.396104157
vn 0.892112732 0 0.451812893
vn 0.892112732 0 0.451812893
vn 0.892112732 0 0.451812893
vn 0.892112732 0 0.451812893
vn -0.0945579559 0 0.99551928
vn -0.0945579559 0 0.99551928
vn -0.0945579559 0 0.99551928
vn -0.0945579559 0 0.99551928
vn -0 -1 0
vn -0 -1 0
vn -0 -1 0
vn -0 -1 0
vn -0 -1 0
vn -0 1 0
vn -0 1 0
vn -0 1 0
vn -0 1 0
vn -0 1 0
g Model_0_0
f 3/3/3 2/2/2 1/1/1
f 6/6/6 5/5/5 4/4/4
f 9/9/9 8/8/8 7/7/7
f 8/8/8 10/10/10 7/7/7
f 7/7/7 10/10/10 11/11/11
f 10/10/10 12/12/12 11/11/11
f 15/15/15 14/14/14 13/13/13
f 16/16/16 15/15/15 13/13/13
f 19/19/19 18/18/18 17/17/17
f 20/20/20 19/19/19 17/17/17
f 23/23/23 22/22/22 21/21/21
f 24/24/24 21/21/21 22/22/22
f 22/22/22 25/25/25 24/24/24
f 28/28/28 27/27/27 26/26/26
f 26/26/26 29/29/29 28/28/28
f 29/29/29 26/26/26 30/30/30
