g LOD0
v -0.75 -0.25 0
v -0.75 0.25 0
v -0.75 0.25 1.92499995
v -0.75 -0.25 1.92499995
v 0.75 0.25 0
v 0.75 -0.25 0
v 0.75 -0.25 1.92499995
v 0.75 0.25 1.92499995
v -0.75 -0.25 0
v -0.75 -0.25 1.92499995
v -0.450000018 -0.25 1.97500002
v -0.150000036 -0.25 2
v 0.75 -0.25 0
v 0.149999976 -0.25 2
v 0.449999988 -0.25 1.97500002
v 0.75 -0.25 1.92499995
v -0.449999988 0.25 1.97500002
v -0.75 -0.25 1.92499995
v -0.75 0.25 1.92499995
v -0.450000018 -0.25 1.97500002
v -0.149999976 0.25 2
v -0.150000036 -0.25 2
v 0.150000036 0.25 2
v 0.149999976 -0.25 2
v 0.450000018 0.25 1.97500002
v 0.449999988 -0.25 1.97500002
v 0.75 0.25 1.92499995
v 0.75 -0.25 1.92499995
v -1 -0.5 -1
v -1 0.5 -1
v -1 0.5 0.25
v -1 -0.5 0.25
v -1 0.5 -1
v 1 0.5 -1
v 1 0.5 0.25
v -1 0.5 0.25
v 1 0.5 -1
v 1 -0.5 -1
v 1 -0.5 0.25
v 1 0.5 0.25
v 1 -0.5 -1
v -1 -0.5 -1
v -1 -0.5 0.25
v 1 -0.5 0.25
v 1 0.5 0.25
v 1 -0.5 0.25
v -1 -0.5 0.25
v -1 0.5 0.25
v -0.75 0.25 1.92499995
v -0.649999976 0.25 1.73417497
v -0.449999988 0.25 1.97500002
v -0.75 0.25 0
v -0.149999976 0.25 2
v -0.649999976 0.25 0.434175014
v 0.75 0.25 0
v 0.649999976 0.25 0.434175014
v 0.75 0.25 1.92499995
v 0.649999976 0.25 1.73417497
v 0.150000036 0.25 2
v 0.450000018 0.25 1.97500002
v -0.649999976 0.25 0.434175014
v 0.649999976 0.25 0.434175014
v 0.649999976 0.25 1.73417497
v -0.649999976 0.25 1.73417497
vt 0.235107422 0.5546875
vt 0.235107422 0.5546875
vt 0.235107422 0.5546875
vt 0.235107422 0.5546875
vt 0.235107422 0.5546875
vt 0.235107422 0.5546875
vt 0.235107422 0.5546875
vt 0.235107422 0.5546875
vt 0.235107422 0.5546875
vt 0.235107422 0.5546875
vt 0.235107422 0.5546875
vt 0.235107422 0.5546875
vt 0.235107422 0.5546875
vt 0.235107422 0.5546875
vt 0.235107422 0.5546875
vt 0.235107422 0.5546875
vt 0.235107422 0.5546875
vt 0.235107422 0.5546875
vt 0.235107422 0.5546875
vt 0.235107422 0.5546875
vt 0.235107422 0.5546875
vt 0.235107422 0.5546875
vt 0.235107422 0.5546875
vt 0.235107422 0.5546875
vt 0.235107422 0.5546875
vt 0.235107422 0.5546875
vt 0.235107422 0.5546875
vt 0.235107422 0.5546875
vt 0.785083055 0.465474427
vt 0.785083055 0.465474427
vt 0.785083055 0.465474427
vt 0.785083055 0.465474427
vt 0.785083055 0.465474427
vt 0.785083055 0.465474427
vt 0.785083055 0.465474427
vt 0.785083055 0.465474427
vt 0.785083055 0.465474427
vt 0.785083055 0.465474427
vt 0.785083055 0.465474427
vt 0.785083055 0.465474427
vt 0.785083055 0.465474427
vt 0.785083055 0.465474427
vt 0.785083055 0.465474427
vt 0.785083055 0.465474427
vt 0.785083055 0.465474427
vt 0.785083055 0.465474427
vt 0.785083055 0.465474427
vt 0.785083055 0.465474427
vt 0.235107422 0.5546875
vt 0.235107422 0.5546875
vt 0.235107422 0.5546875
vt 0.235107422 0.5546875
vt 0.235107422 0.5546875
vt 0.235107422 0.5546875
vt 0.235107422 0.5546875
vt 0.235107422 0.5546875
vt 0.235107422 0.5546875
vt 0.235107422 0.5546875
vt 0.235107422 0.5546875
vt 0.235107422 0.5546875
vt 0.999899864 0.000100346726
vt 0.000100025842 9.99799959E-05
vt 9.99799959E-05 0.999900043
vt 0.999899864 0.999900043
vn -1 0 0
vn -1 0 0
vn -1 0 0
vn -1 0 0
vn 1 0 0
vn 1 0 0
vn 1 0 0
vn 1 0 0
vn -0 -1 0
vn -0 -1 0
vn -0 -1 0
vn -0 -1 0
vn -0 -1 0
vn -0 -1 0
vn -0 -1 0
vn -0 -1 0
vn -0.123826385 0 0.992303908
vn -0.164399207 0 0.986393869
vn -0.164399207 0 0.986393869
vn -0.123826385 0 0.992303908
vn -0.0415586084 0 0.99913615
vn -0.0415586084 0 0.99913615
vn 0.0415586084 0 0.99913615
vn 0.0415586084 0 0.99913615
vn 0.123826385 0 0.992303908
vn 0.123826385 0 0.992303908
vn 0.164399207 0 0.986393869
vn 0.164399207 0 0.986393869
vn -1 0 0
vn -1 0 0
vn -1 0 0
vn -1 0 0
vn -0 1 0
vn -0 1 0
vn -0 1 0
vn -0 1 0
vn 1 0 0
vn 1 0 0
vn 1 0 0
vn 1 0 0
vn -0 -1 0
vn -0 -1 0
vn -0 -1 0
vn -0 -1 0
vn -0 0 1
vn -0 0 1
vn -0 0 1
vn -0 0 1
vn -0 1 0
vn -0 1 0
vn -0 1 0
vn -0 1 0
vn -0 1 0
vn -0 1 0
vn -0 1 0
vn -0 1 0
vn -0 1 0
vn -0 1 0
vn -0 1 0
vn -0 1 0
vn -0 1 0
vn -0 1 0
vn -0 1 0
vn -0 1 0
g LOD0_0
f 3/3/3 2/2/2 1/1/1
f 4/4/4 3/3/3 1/1/1
f 7/7/7 6/6/6 5/5/5
f 8/8/8 7/7/7 5/5/5
f 11/11/11 10/10/10 9/9/9
f 12/12/12 11/11/11 9/9/9
f 12/12/12 9/9/9 13/13/13
f 14/14/14 12/12/12 13/13/13
f 15/15/15 14/14/14 13/13/13
f 16/16/16 15/15/15 13/13/13
f 19/19/19 18/18/18 17/17/17
f 18/18/18 20/20/20 17/17/17
f 17/17/17 20/20/20 21/21/21
f 20/20/20 22/22/22 21/21/21
f 21/21/21 22/22/22 23/23/23
f 22/22/22 24/24/24 23/23/23
f 23/23/23 24/24/24 25/25/25
f 24/24/24 26/26/26 25/25/25
f 25/25/25 26/26/26 27/27/27
f 26/26/26 28/28/28 27/27/27
f 31/31/31 30/30/30 29/29/29
f 32/32/32 31/31/31 29/29/29
f 35/35/35 34/34/34 33/33/33
f 36/36/36 35/35/35 33/33/33
f 39/39/39 38/38/38 37/37/37
f 40/40/40 39/39/39 37/37/37
f 43/43/43 42/42/42 41/41/41
f 44/44/44 43/43/43 41/41/41
f 47/47/47 46/46/46 45/45/45
f 48/48/48 47/47/47 45/45/45
f 51/51/51 50/50/50 49/49/49
f 49/49/49 50/50/50 52/52/52
f 53/53/53 50/50/50 51/51/51
f 50/50/50 54/54/54 52/52/52
f 52/52/52 54/54/54 55/55/55
f 54/54/54 56/56/56 55/55/55
f 55/55/55 56/56/56 57/57/57
f 58/58/58 50/50/50 53/53/53
f 56/56/56 58/58/58 57/57/57
f 59/59/59 58/58/58 53/53/53
f 57/57/57 58/58/58 60/60/60
f 60/60/60 58/58/58 59/59/59
g LOD0_1
f 63/63/63 62/62/62 61/61/61
f 64/64/64 63/63/63 61/61/61
