v 6.310137 18.999992 16.266508
v -6.310139 -18.999992 16.266508
v -6.310138 19.000000 16.266504
v -19.500004 -17.999994 0.000000
v -18.500010 -18.000000 2.750000
v -18.500010 -18.000000 0.000000
v -19.500004 -17.999994 7.500000
v -16.000010 -18.000000 2.750000
v -19.500004 -17.999994 7.500000
v -18.500010 -18.000000 2.750000
v -19.500004 -17.999994 0.000000
v -14.573226 -17.999992 12.323226
v -15.000010 -18.000000 7.500000
v -16.000010 -18.000000 2.750000
v -15.000010 -18.000000 0.000000
v -16.000010 -18.000000 0.000000
v 14.999989 -18.000004 7.500000
v 15.999989 -18.000004 2.750000
v 14.999989 -18.000004 0.000000
v 14.573219 -18.000008 12.323220
v 6.118793 -18.000008 15.804561
v 19.499994 -18.000010 7.500000
v 18.499989 -18.000004 2.750000
v 19.499994 -18.000010 0.000000
v 18.499989 -18.000004 0.000000
v 14.999989 -18.000004 0.000000
v 15.999989 -18.000004 2.750000
v 15.999989 -18.000004 0.000000
v 14.999989 -18.000004 7.500000
v 18.499989 -18.000004 2.750000
v -6.118797 -17.999992 15.804567
v -15.000010 -18.000000 7.500000
v -6.118797 -17.999992 15.804567
v -15.000010 -18.000000 7.500000
v -14.573226 -17.999992 12.323226
v 6.118793 -18.000008 15.804561
v 14.999989 -18.000004 7.500000
v -6.118797 -17.999992 15.804567
v -6.118797 -18.999992 15.804567
v 6.310134 -19.000008 16.266499
v 6.118793 -19.000008 15.804561
v 20.000000 19.000000 -6.000000
v 19.500004 18.999992 0.000000
v -19.499998 19.000000 0.000000
v 20.000004 18.999992 7.500000
v 20.000000 19.000000 -6.000000
v -19.499998 18.000000 0.000000
v -19.499998 19.000000 0.000000
v -18.499998 17.999998 0.000000
v -19.499998 19.000000 0.000000
v -15.999998 17.999998 0.000000
v -14.999998 17.999998 0.000000
v -18.499998 17.499998 0.000000
v -15.999998 17.499998 0.000000
v -18.500010 -17.500000 0.000000
v -19.500004 -17.499994 0.000000
v -19.499998 17.500000 0.000000
v -16.000010 -17.500000 0.000000
v -16.000010 -18.000000 0.000000
v -15.000010 -17.500000 0.000000
v -18.500010 -18.000000 0.000000
v -14.999998 17.499998 0.000000
v -19.500004 -18.999994 0.000000
v -19.500004 -17.999994 0.000000
v -15.000010 -18.000000 0.000000
v 18.499985 -19.000004 0.000000
v 14.999989 -18.000004 0.000000
v 14.999989 -17.500004 0.000000
v 15.999989 -18.000004 0.000000
v 15.000004 17.499996 0.000000
v -14.999998 17.999998 0.000000
v 15.000004 17.999996 0.000000
v 15.999989 -17.500004 0.000000
v 16.000004 17.499996 0.000000
v 18.499989 -18.000004 0.000000
v 19.499994 -18.000010 0.000000
v 19.499994 -19.000010 0.000000
v 18.499989 -17.500004 0.000000
v 18.500004 17.499996 0.000000
v 16.000004 17.999996 0.000000
v 19.500004 17.499992 0.000000
v 19.499994 -17.500010 0.000000
v 18.500004 17.999996 0.000000
v 19.500004 18.999992 0.000000
v -19.499998 19.000000 0.000000
v 19.500004 17.999992 0.000000
v 14.999989 -18.000004 0.000000
v 18.499985 -19.000004 0.000000
v -15.000010 -18.000000 0.000000
v 15.000004 17.999996 0.000000
v -14.999998 17.999998 0.000000
v -19.499998 19.000000 0.000000
v -14.999998 17.999998 0.000000
v -15.999998 17.999998 2.750000
v -15.999998 17.999998 0.000000
v -19.499998 18.000000 7.500000
v -18.499998 17.999998 2.750000
v -14.999998 17.999998 7.500000
v -14.999998 17.999998 7.500000
v -15.999998 17.999998 2.750000
v -14.999998 17.999998 0.000000
v -19.499998 18.000000 7.500000
v -14.573222 18.000000 12.323222
v -6.118795 18.000000 15.804562
v 15.000004 17.999996 7.500000
v 6.118796 17.999992 15.804569
v 14.573226 17.999992 12.323227
v 19.500004 17.999992 7.500000
v 16.000004 17.999996 2.750000
v 15.000004 17.999996 0.000000
v 16.000004 17.999996 0.000000
v 18.500004 17.999996 2.750000
v 19.500004 17.999992 0.000000
v -18.499998 17.999998 2.750000
v -19.499998 18.000000 0.000000
v -18.499998 17.999998 0.000000
v 19.500004 17.999992 0.000000
v 18.500004 17.999996 2.750000
v 18.500004 17.999996 0.000000
v 19.500004 17.999992 7.500000
v 16.000004 17.999996 2.750000
v -15.000010 -17.500000 7.500000
v -16.000010 -17.500000 2.750000
v -15.000010 -17.500000 0.000000
v -19.500004 -17.499994 7.500000
v -14.573226 -17.499992 12.323226
v -6.118797 -17.499992 15.804567
v -18.500010 -17.500000 2.750000
v -19.500004 -17.499994 0.000000
v -18.500010 -17.500000 0.000000
v 14.999989 -17.500004 7.500000
v 6.118793 -17.500008 15.804561
v 14.573219 -17.500008 12.323220
v 19.499994 -17.500010 7.500000
v 18.499989 -17.500004 2.750000
v 19.499994 -17.500010 0.000000
v 15.999989 -17.500004 2.750000
v 15.999989 -17.500004 0.000000
v 14.999989 -17.500004 0.000000
v -15.000010 -17.500000 0.000000
v -16.000010 -17.500000 2.750000
v -16.000010 -17.500000 0.000000
v -19.500004 -17.499994 7.500000
v -18.500010 -17.500000 2.750000
v -15.000010 -17.500000 7.500000
v 14.999989 -17.500004 7.500000
v -6.118797 -17.499992 15.804567
v 15.999989 -17.500004 2.750000
v 14.999989 -17.500004 0.000000
v 19.499994 -17.500010 0.000000
v 18.499989 -17.500004 2.750000
v 18.499989 -17.500004 0.000000
v -15.999998 17.499998 0.000000
v -15.999998 17.499998 2.750000
v -14.999998 17.499998 0.000000
v -18.499998 17.499998 2.750000
v -14.999998 17.499998 7.500000
v -19.499998 17.500000 7.500000
v -19.499998 17.500000 0.000000
v -14.573222 17.500000 12.323222
v -6.118795 17.500000 15.804562
v 15.000004 17.499996 7.500000
v 6.118796 17.499992 15.804569
v 14.573226 17.499992 12.323227
v 19.500004 17.499992 7.500000
v 18.500004 17.499996 2.750000
v 19.500004 17.499992 0.000000
v 18.500004 17.499996 0.000000
v 16.000004 17.499996 2.750000
v 15.000004 17.499996 0.000000
v -15.999998 17.499998 2.750000
v -14.999998 17.499998 7.500000
v -14.999998 17.499998 0.000000
v -6.118795 17.500000 15.804562
v 15.000004 17.499996 7.500000
v 18.500004 17.499996 2.750000
v 16.000004 17.499996 2.750000
v 15.000004 17.499996 0.000000
v 16.000004 17.499996 0.000000
v -19.499998 17.500000 0.000000
v -18.499998 17.499998 2.750000
v -18.499998 17.499998 0.000000
v -6.118797 -18.999992 15.804567
v -6.310139 -18.999992 16.266508
v 6.310134 -19.000008 16.266499
v -14.573226 -18.999992 12.323226
v 19.499994 -19.000010 7.500000
v 19.499994 -18.000010 0.000000
v 19.499994 -18.000010 7.500000
v 19.499994 -19.000010 0.000000
v -14.999998 17.999998 7.500000
v -14.999998 17.499998 0.000000
v -14.999998 17.499998 7.500000
v -14.999998 17.999998 0.000000
v -19.499998 19.000000 7.500000
v -19.499998 18.000000 0.000000
v -19.499998 18.000000 7.500000
v -19.499998 19.000000 0.000000
v 19.499994 -17.500010 7.500000
v 19.500004 17.499992 0.000000
v 19.500004 17.499992 7.500000
v 19.499994 -17.500010 0.000000
v 18.499989 -18.000004 0.000000
v 18.499989 -17.500004 2.750000
v 18.499989 -18.000004 2.750000
v 18.499989 -17.500004 0.000000
v 16.000004 17.999996 0.000000
v 16.000004 17.499996 2.750000
v 16.000004 17.999996 2.750000
v 16.000004 17.499996 0.000000
v -18.499998 17.999998 0.000000
v -18.499998 17.499998 2.750000
v -18.499998 17.999998 2.750000
v -18.499998 17.499998 0.000000
v -19.499998 17.500000 7.500000
v -19.500004 -17.499994 0.000000
v -19.500004 -17.499994 7.500000
v -19.499998 17.500000 0.000000
v -15.000010 -18.000000 7.500000
v -15.000010 -17.500000 0.000000
v -15.000010 -18.000000 0.000000
v -15.000010 -17.500000 7.500000
v 15.000004 17.499996 0.000000
v 15.000004 17.999996 7.500000
v 15.000004 17.499996 7.500000
v 15.000004 17.999996 0.000000
v -19.500004 -17.999994 7.500000
v -19.500004 -18.999994 0.000000
v -19.500004 -18.999994 7.500000
v -19.500004 -17.999994 0.000000
v 19.500004 17.999992 7.500000
v 19.500004 18.999992 0.000000
v 19.500004 18.999992 7.500000
v 19.500004 17.999992 0.000000
v -16.000010 -18.000000 0.000000
v -16.000010 -17.500000 2.750000
v -16.000010 -18.000000 2.750000
v -16.000010 -17.500000 0.000000
v -18.500010 -17.500000 0.000000
v -18.500010 -18.000000 2.750000
v -18.500010 -17.500000 2.750000
v -18.500010 -18.000000 0.000000
v 18.500004 17.499996 0.000000
v 18.500004 17.999996 2.750000
v 18.500004 17.499996 2.750000
v 18.500004 17.999996 0.000000
v -20.000000 -18.999996 -6.000000
v -20.000000 19.000000 7.500000
v -20.000004 -18.999994 7.500000
v -19.999996 19.000006 -6.000000
v -15.999998 17.499998 0.000000
v -15.999998 17.999998 2.750000
v -15.999998 17.499998 2.750000
v -15.999998 17.999998 0.000000
v 15.999989 -17.500004 0.000000
v 15.999989 -18.000004 2.750000
v 15.999989 -17.500004 2.750000
v 15.999989 -18.000004 0.000000
v 15.999989 -18.000004 2.750000
v 18.499989 -17.500004 2.750000
v 15.999989 -17.500004 2.750000
v 18.499989 -18.000004 2.750000
v 19.499994 -18.000010 7.500000
v 14.573219 -19.000008 12.323220
v 19.499994 -19.000010 7.500000
v 14.573219 -18.000008 12.323220
v 6.118793 -18.000008 15.804561
v 6.118793 -19.000008 15.804561
v -18.500010 -17.500000 2.750000
v -16.000010 -18.000000 2.750000
v -16.000010 -17.500000 2.750000
v -18.500010 -18.000000 2.750000
v 14.999989 -18.000004 7.500000
v 14.999989 -17.500004 0.000000
v 14.999989 -17.500004 7.500000
v 14.999989 -18.000004 0.000000
v 20.000004 18.999992 7.500000
v 20.000000 -19.000000 -6.000000
v 19.999994 -19.000010 7.500000
v 20.000000 19.000000 -6.000000
v -14.999998 17.499998 7.500000
v 15.000004 17.999996 7.500000
v -14.999998 17.999998 7.500000
v 15.000004 17.499996 7.500000
v -18.499998 17.999998 2.750000
v -15.999998 17.499998 2.750000
v -15.999998 17.999998 2.750000
v -18.499998 17.499998 2.750000
v -15.000010 -18.000000 7.500000
v 14.999989 -17.500004 7.500000
v -15.000010 -17.500000 7.500000
v 14.999989 -18.000004 7.500000
v 6.118796 18.999992 15.804569
v -6.118795 18.000000 15.804562
v 6.118796 17.999992 15.804569
v -6.118795 19.000000 15.804562
v -6.118797 -18.999992 15.804567
v 6.118793 -18.000008 15.804561
v -6.118797 -17.999992 15.804567
v 6.118793 -19.000008 15.804561
v 14.573226 17.999992 12.323227
v 6.118796 18.999992 15.804569
v 6.118796 17.999992 15.804569
v 14.573226 18.999992 12.323227
v 19.500004 17.999992 7.500000
v 19.500004 18.999992 7.500000
v 16.000004 17.499996 2.750000
v 18.500004 17.999996 2.750000
v 16.000004 17.999996 2.750000
v 18.500004 17.499996 2.750000
v -14.573222 19.000000 12.323222
v -6.118795 18.000000 15.804562
v -6.118795 19.000000 15.804562
v -14.573222 18.000000 12.323222
v -19.499998 19.000000 7.500000
v -19.499998 18.000000 7.500000
v -14.573226 -17.999992 12.323226
v -6.118797 -18.999992 15.804567
v -6.118797 -17.999992 15.804567
v -14.573226 -18.999992 12.323226
v -19.500004 -17.999994 7.500000
v -19.500004 -18.999994 7.500000
v 16.750015 0.125000 10.564275
v -16.750013 -0.125000 10.564281
v -16.750013 0.125000 10.564281
v 16.750015 -0.125000 10.564275
v 16.750015 0.125000 10.314275
v -16.750013 0.125000 10.564281
v -16.750013 0.125000 10.314281
v 16.750015 0.125000 10.564275
v 16.750015 -0.125000 10.314275
v -16.750013 0.125000 10.314281
v -16.750013 -0.125000 10.314281
v 16.750015 0.125000 10.314275
v 16.750015 -0.125000 10.564275
v -16.750013 -0.125000 10.314281
v -16.750013 -0.125000 10.564281
v 16.750015 -0.125000 10.314275
v 15.500013 -0.249976 12.019321
v 15.500013 0.250024 -0.500000
v 15.500013 -0.249976 -0.500000
v 15.500013 0.250024 12.019321
v 15.000013 -0.249977 12.019321
v 15.500013 -0.249976 -0.500000
v 15.000013 -0.249977 -0.500000
v 15.500013 -0.249976 12.019321
v 15.000013 0.250023 12.019321
v 15.000013 -0.249977 -0.500000
v 15.000013 0.250023 -0.500000
v 15.000013 -0.249977 12.019321
v 15.500013 0.250024 12.019321
v 15.000013 0.250023 -0.500000
v 15.500013 0.250024 -0.500000
v 15.000013 0.250023 12.019321
v -15.500013 0.250000 12.019321
v -15.500013 -0.250000 -0.500000
v -15.500013 0.250000 -0.500000
v -15.500013 -0.250000 12.019321
v -15.000013 0.250000 12.019321
v -15.500013 0.250000 -0.500000
v -15.000013 0.250000 -0.500000
v -15.500013 0.250000 12.019321
v -15.000013 -0.250000 12.019321
v -15.000013 0.250000 -0.500000
v -15.000013 -0.250000 -0.500000
v -15.000013 0.250000 12.019321
v -15.500013 -0.250000 12.019321
v -15.000013 -0.250000 -0.500000
v -15.500013 -0.250000 -0.500000
v -15.000013 -0.250000 12.019321
v 16.750015 5.125000 10.564275
v -16.750013 4.875000 10.564281
v -16.750013 5.125000 10.564281
v 16.750015 4.875000 10.564275
v 16.750015 5.125000 10.314275
v -16.750013 5.125000 10.564281
v -16.750013 5.125000 10.314281
v 16.750015 5.125000 10.564275
v 16.750015 4.875000 10.314275
v -16.750013 5.125000 10.314281
v -16.750013 4.875000 10.314281
v 16.750015 5.125000 10.314275
v 16.750015 4.875000 10.564275
v -16.750013 4.875000 10.314281
v -16.750013 4.875000 10.564281
v 16.750015 4.875000 10.314275
v 15.500013 4.750023 12.019321
v 15.500013 5.250023 -0.500000
v 15.500013 4.750023 -0.500000
v 15.500013 5.250023 12.019321
v 15.000013 4.750023 12.019321
v 15.500013 4.750023 -0.500000
v 15.000013 4.750023 -0.500000
v 15.500013 4.750023 12.019321
v 15.000013 5.250023 12.019321
v 15.000013 4.750023 -0.500000
v 15.000013 5.250023 -0.500000
v 15.000013 4.750023 12.019321
v 15.500013 5.250023 12.019321
v 15.000013 5.250023 -0.500000
v 15.500013 5.250023 -0.500000
v 15.000013 5.250023 12.019321
v -15.500013 5.250000 12.019321
v -15.500013 4.750000 -0.500000
v -15.500013 5.250000 -0.500000
v -15.500013 4.750000 12.019321
v -15.000013 5.250000 12.019321
v -15.500013 5.250000 -0.500000
v -15.000013 5.250000 -0.500000
v -15.500013 5.250000 12.019321
v -15.000013 4.750000 12.019321
v -15.000013 5.250000 -0.500000
v -15.000013 4.750000 -0.500000
v -15.000013 5.250000 12.019321
v -15.500013 4.750000 12.019321
v -15.000013 4.750000 -0.500000
v -15.500013 4.750000 -0.500000
v -15.000013 4.750000 12.019321
v 16.750015 10.125000 10.564275
v -16.750013 9.875000 10.564281
v -16.750013 10.125000 10.564281
v 16.750015 9.875000 10.564275
v 16.750015 10.125000 10.314275
v -16.750013 10.125000 10.564281
v -16.750013 10.125000 10.314281
v 16.750015 10.125000 10.564275
v 16.750015 9.875000 10.314275
v -16.750013 10.125000 10.314281
v -16.750013 9.875000 10.314281
v 16.750015 10.125000 10.314275
v 16.750015 9.875000 10.564275
v -16.750013 9.875000 10.314281
v -16.750013 9.875000 10.564281
v 16.750015 9.875000 10.314275
v 15.500013 9.750024 12.019321
v 15.500013 10.250024 -0.500000
v 15.500013 9.750024 -0.500000
v 15.500013 10.250024 12.019321
v 15.000013 9.750023 12.019321
v 15.500013 9.750024 -0.500000
v 15.000013 9.750023 -0.500000
v 15.500013 9.750024 12.019321
v 15.000013 10.250023 12.019321
v 15.000013 9.750023 -0.500000
v 15.000013 10.250023 -0.500000
v 15.000013 9.750023 12.019321
v 15.500013 10.250024 12.019321
v 15.000013 10.250023 -0.500000
v 15.500013 10.250024 -0.500000
v 15.000013 10.250023 12.019321
v -15.500013 10.250000 12.019321
v -15.500013 9.750000 -0.500000
v -15.500013 10.250000 -0.500000
v -15.500013 9.750000 12.019321
v -15.000013 10.250000 12.019321
v -15.500013 10.250000 -0.500000
v -15.000013 10.250000 -0.500000
v -15.500013 10.250000 12.019321
v -15.000013 9.750000 12.019321
v -15.000013 10.250000 -0.500000
v -15.000013 9.750000 -0.500000
v -15.000013 10.250000 12.019321
v -15.500013 9.750000 12.019321
v -15.000013 9.750000 -0.500000
v -15.500013 9.750000 -0.500000
v -15.000013 9.750000 12.019321
v 16.750015 15.125000 10.564275
v -16.750013 14.875000 10.564281
v -16.750013 15.125000 10.564281
v 16.750015 14.875000 10.564275
v 16.750015 15.125000 10.314275
v -16.750013 15.125000 10.564281
v -16.750013 15.125000 10.314281
v 16.750015 15.125000 10.564275
v 16.750015 14.875000 10.314275
v -16.750013 15.125000 10.314281
v -16.750013 14.875000 10.314281
v 16.750015 15.125000 10.314275
v 16.750015 14.875000 10.564275
v -16.750013 14.875000 10.314281
v -16.750013 14.875000 10.564281
v 16.750015 14.875000 10.314275
v 15.500014 14.750024 12.019321
v 15.500013 15.250024 -0.500000
v 15.500014 14.750024 -0.500000
v 15.500013 15.250024 12.019321
v 15.000014 14.750023 12.019321
v 15.500014 14.750024 -0.500000
v 15.000014 14.750023 -0.500000
v 15.500014 14.750024 12.019321
v 15.000013 15.250023 12.019321
v 15.000014 14.750023 -0.500000
v 15.000013 15.250023 -0.500000
v 15.000014 14.750023 12.019321
v 15.500013 15.250024 12.019321
v 15.000013 15.250023 -0.500000
v 15.500013 15.250024 -0.500000
v 15.000013 15.250023 12.019321
v -15.500013 15.250000 12.019321
v -15.500012 14.750000 -0.500000
v -15.500013 15.250000 -0.500000
v -15.500012 14.750000 12.019321
v -15.000013 15.250000 12.019321
v -15.500013 15.250000 -0.500000
v -15.000013 15.250000 -0.500000
v -15.500013 15.250000 12.019321
v -15.000012 14.750000 12.019321
v -15.000013 15.250000 -0.500000
v -15.000012 14.750000 -0.500000
v -15.000013 15.250000 12.019321
v -15.500012 14.750000 12.019321
v -15.000012 14.750000 -0.500000
v -15.500012 14.750000 -0.500000
v -15.000012 14.750000 12.019321
v 16.750015 -4.875000 10.564275
v -16.750013 -5.125000 10.564281
v -16.750013 -4.875000 10.564281
v 16.750015 -5.125000 10.564275
v 16.750015 -4.875000 10.314275
v -16.750013 -4.875000 10.564281
v -16.750013 -4.875000 10.314281
v 16.750015 -4.875000 10.564275
v 16.750015 -5.125000 10.314275
v -16.750013 -4.875000 10.314281
v -16.750013 -5.125000 10.314281
v 16.750015 -4.875000 10.314275
v 16.750015 -5.125000 10.564275
v -16.750013 -5.125000 10.314281
v -16.750013 -5.125000 10.564281
v 16.750015 -5.125000 10.314275
v 15.500013 -5.249977 12.019321
v 15.500013 -4.749977 -0.500000
v 15.500013 -5.249977 -0.500000
v 15.500013 -4.749977 12.019321
v 15.000013 -5.249977 12.019321
v 15.500013 -5.249977 -0.500000
v 15.000013 -5.249977 -0.500000
v 15.500013 -5.249977 12.019321
v 15.000013 -4.749977 12.019321
v 15.000013 -5.249977 -0.500000
v 15.000013 -4.749977 -0.500000
v 15.000013 -5.249977 12.019321
v 15.500013 -4.749977 12.019321
v 15.000013 -4.749977 -0.500000
v 15.500013 -4.749977 -0.500000
v 15.000013 -4.749977 12.019321
v -15.500013 -4.750000 12.019321
v -15.500013 -5.250000 -0.500000
v -15.500013 -4.750000 -0.500000
v -15.500013 -5.250000 12.019321
v -15.000013 -4.750000 12.019321
v -15.500013 -4.750000 -0.500000
v -15.000013 -4.750000 -0.500000
v -15.500013 -4.750000 12.019321
v -15.000013 -5.250000 12.019321
v -15.000013 -4.750000 -0.500000
v -15.000013 -5.250000 -0.500000
v -15.000013 -4.750000 12.019321
v -15.500013 -5.250000 12.019321
v -15.000013 -5.250000 -0.500000
v -15.500013 -5.250000 -0.500000
v -15.000013 -5.250000 12.019321
v 16.750015 -9.875000 10.564275
v -16.750013 -10.125000 10.564281
v -16.750013 -9.875000 10.564281
v 16.750015 -10.125000 10.564275
v 16.750015 -9.875000 10.314275
v -16.750013 -9.875000 10.564281
v -16.750013 -9.875000 10.314281
v 16.750015 -9.875000 10.564275
v 16.750015 -10.125000 10.314275
v -16.750013 -9.875000 10.314281
v -16.750013 -10.125000 10.314281
v 16.750015 -9.875000 10.314275
v 16.750015 -10.125000 10.564275
v -16.750013 -10.125000 10.314281
v -16.750013 -10.125000 10.564281
v 16.750015 -10.125000 10.314275
v 15.500013 -10.249976 12.019321
v 15.500013 -9.749976 -0.500000
v 15.500013 -10.249976 -0.500000
v 15.500013 -9.749976 12.019321
v 15.000013 -10.249977 12.019321
v 15.500013 -10.249976 -0.500000
v 15.000013 -10.249977 -0.500000
v 15.500013 -10.249976 12.019321
v 15.000013 -9.749977 12.019321
v 15.000013 -10.249977 -0.500000
v 15.000013 -9.749977 -0.500000
v 15.000013 -10.249977 12.019321
v 15.500013 -9.749976 12.019321
v 15.000013 -9.749977 -0.500000
v 15.500013 -9.749976 -0.500000
v 15.000013 -9.749977 12.019321
v -15.500013 -9.750000 12.019321
v -15.500013 -10.250000 -0.500000
v -15.500013 -9.750000 -0.500000
v -15.500013 -10.250000 12.019321
v -15.000013 -9.750000 12.019321
v -15.500013 -9.750000 -0.500000
v -15.000013 -9.750000 -0.500000
v -15.500013 -9.750000 12.019321
v -15.000013 -10.250000 12.019321
v -15.000013 -9.750000 -0.500000
v -15.000013 -10.250000 -0.500000
v -15.000013 -9.750000 12.019321
v -15.500013 -10.250000 12.019321
v -15.000013 -10.250000 -0.500000
v -15.500013 -10.250000 -0.500000
v -15.000013 -10.250000 12.019321
v 15.125015 17.616711 8.564275
v 15.125015 -17.616715 8.314275
v 15.125015 17.616711 8.314275
v 15.125015 -17.616715 8.564275
v 15.375015 -17.616715 8.564275
v 15.375015 17.616711 8.314275
v 15.375015 -17.616715 8.314275
v 15.375015 17.616711 8.564275
v 15.125015 17.616711 8.314275
v 15.375015 -17.616715 8.314275
v 15.375015 17.616711 8.314275
v 15.125015 -17.616715 8.314275
v 15.375015 17.616711 8.564275
v 15.125015 -17.616715 8.564275
v 15.125015 17.616711 8.564275
v 15.375015 -17.616715 8.564275
v 16.750015 -14.875000 10.564275
v -16.750013 -15.125000 10.564281
v -16.750013 -14.875000 10.564281
v 16.750015 -15.125000 10.564275
v 16.750015 -14.875000 10.314275
v -16.750013 -14.875000 10.564281
v -16.750013 -14.875000 10.314281
v 16.750015 -14.875000 10.564275
v 16.750015 -15.125000 10.314275
v -16.750013 -14.875000 10.314281
v -16.750013 -15.125000 10.314281
v 16.750015 -14.875000 10.314275
v 16.750015 -15.125000 10.564275
v -16.750013 -15.125000 10.314281
v -16.750013 -15.125000 10.564281
v 16.750015 -15.125000 10.314275
v 15.500013 -15.249976 12.019321
v 15.500012 -14.749976 -0.500000
v 15.500013 -15.249976 -0.500000
v 15.500012 -14.749976 12.019321
v 15.000013 -15.249977 12.019321
v 15.500013 -15.249976 -0.500000
v 15.000013 -15.249977 -0.500000
v 15.500013 -15.249976 12.019321
v 15.000012 -14.749977 12.019321
v 15.000013 -15.249977 -0.500000
v 15.000012 -14.749977 -0.500000
v 15.000013 -15.249977 12.019321
v 15.500012 -14.749976 12.019321
v 15.000012 -14.749977 -0.500000
v 15.500012 -14.749976 -0.500000
v 15.000012 -14.749977 12.019321
v -15.500014 -14.750000 12.019321
v -15.500013 -15.250000 -0.500000
v -15.500014 -14.750000 -0.500000
v -15.500013 -15.250000 12.019321
v -15.000014 -14.750000 12.019321
v -15.500014 -14.750000 -0.500000
v -15.000014 -14.750000 -0.500000
v -15.500014 -14.750000 12.019321
v -15.000013 -15.250000 12.019321
v -15.000014 -14.750000 -0.500000
v -15.000013 -15.250000 -0.500000
v -15.000014 -14.750000 12.019321
v -15.500013 -15.250000 12.019321
v -15.000013 -15.250000 -0.500000
v -15.500013 -15.250000 -0.500000
v -15.000013 -15.250000 12.019321
v -15.124989 -17.616737 5.564275
v -15.125042 17.616688 5.314275
v -15.124989 -17.616737 5.314275
v -15.125042 17.616688 5.564275
v -15.375042 17.616688 5.564275
v -15.374989 -17.616737 5.314275
v -15.375042 17.616688 5.314275
v -15.374989 -17.616737 5.564275
v -15.124989 -17.616737 5.314275
v -15.375042 17.616688 5.314275
v -15.374989 -17.616737 5.314275
v -15.125042 17.616688 5.314275
v -15.374989 -17.616737 5.564275
v -15.125042 17.616688 5.564275
v -15.124989 -17.616737 5.564275
v -15.375042 17.616688 5.564275
v -15.124989 -17.616736 8.564275
v -15.125042 17.616690 8.314275
v -15.124989 -17.616736 8.314275
v -15.125042 17.616690 8.564275
v -15.375042 17.616690 8.564275
v -15.374989 -17.616736 8.314275
v -15.375042 17.616690 8.314275
v -15.374989 -17.616736 8.564275
v -15.124989 -17.616736 8.314275
v -15.375042 17.616690 8.314275
v -15.374989 -17.616736 8.314275
v -15.125042 17.616690 8.314275
v -15.374989 -17.616736 8.564275
v -15.125042 17.616690 8.564275
v -15.124989 -17.616736 8.564275
v -15.375042 17.616690 8.564275
v 15.125015 17.616713 5.564275
v 15.125015 -17.616713 5.314275
v 15.125015 17.616713 5.314275
v 15.125015 -17.616713 5.564275
v 15.375015 -17.616713 5.564275
v 15.375015 17.616713 5.314275
v 15.375015 -17.616713 5.314275
v 15.375015 17.616713 5.564275
v 15.125015 17.616713 5.314275
v 15.375015 -17.616713 5.314275
v 15.375015 17.616713 5.314275
v 15.125015 -17.616713 5.314275
v 15.375015 17.616713 5.564275
v 15.125015 -17.616713 5.564275
v 15.125015 17.616713 5.564275
v 15.375015 -17.616713 5.564275
v 19.499994 -19.000010 7.500000
v 19.999994 -19.000010 7.500000
v 19.499994 -19.000010 0.000000
v 14.926772 -19.000008 12.676773
v 14.573219 -19.000008 12.323220
v 6.310134 -19.000008 16.266499
v 6.118793 -19.000008 15.804561
v 19.499994 -19.000010 0.000000
v 19.999994 -19.000010 7.500000
v 20.000000 -19.000000 -6.000000
v 19.500000 -19.000000 -6.000000
v 18.499996 -18.999998 -6.000000
v 18.499985 -19.000004 0.000000
v -19.500004 -18.999994 0.000000
v -20.000000 -18.999996 -6.000000
v -20.000004 -18.999994 7.500000
v -20.000004 -18.999994 7.500000
v -19.500004 -18.999994 7.500000
v -19.500004 -18.999994 0.000000
v -14.926780 -18.999992 12.676780
v -14.573226 -18.999992 12.323226
v -6.310139 -18.999992 16.266508
v -19.999996 19.000006 -6.000000
v -19.499998 19.000000 0.000000
v -20.000000 19.000000 7.500000
v 20.000000 19.000000 -6.000000
v -6.118795 19.000000 15.804562
v 6.310137 18.999992 16.266508
v -6.310138 19.000000 16.266504
v 6.118796 18.999992 15.804569
v -20.000000 19.000000 7.500000
v -19.499998 19.000000 0.000000
v -19.499998 19.000000 7.500000
v -14.926777 19.000000 12.676777
v -14.573222 19.000000 12.323222
v -6.310138 19.000000 16.266504
v -6.118795 19.000000 15.804562
v 6.118796 18.999992 15.804569
v 14.573226 18.999992 12.323227
v 6.310137 18.999992 16.266508
v 14.926779 18.999992 12.676780
v 19.500004 18.999992 7.500000
v 20.000004 18.999992 7.500000
v 19.500004 18.999992 0.000000
v 6.310134 -19.000008 16.266499
v -6.310139 -18.999992 16.266508
v 6.310137 18.999992 16.266508
v -14.926780 -18.999992 12.676780
v -6.310138 19.000000 16.266504
v -14.926777 19.000000 12.676777
v -20.000004 -18.999994 7.500000
v -20.000000 19.000000 7.500000
v 6.310134 -19.000008 16.266499
v 14.926772 -19.000008 12.676773
v 14.926779 18.999992 12.676780
v 20.000004 18.999992 7.500000
v 19.999994 -19.000010 7.500000
v 19.500004 17.499992 7.500000
v 14.573226 17.499992 12.323227
v 19.499994 -17.500010 7.500000
v 14.573219 -17.500008 12.323220
v 6.118796 17.499992 15.804569
v 6.118793 -17.500008 15.804561
v 6.118796 17.499992 15.804569
v -6.118797 -17.499992 15.804567
v -6.118795 17.500000 15.804562
v -14.573222 17.500000 12.323222
v -6.118797 -17.499992 15.804567
v -14.573226 -17.499992 12.323226
v -19.499998 17.500000 7.500000
v -19.500004 -17.499994 7.500000
vt 0.222440809 0.676615298
vt 0.297174394 0.676800609
vt 0.297174394 0.695329547
vt 0.240822911 0.304793626
vt 0.172265679 0.248650819
vt 0.240822911 0.307881802
vt 0.240822911 0.304793626
vt 0.240822911 0.309425861
vt 0.240822911 0.304793626
vt 0.172265679 0.248650819
vt 0.240822911 0.304793626
vt 0.240822911 0.304793626
vt 0.240822911 0.30961892
vt 0.240822911 0.309425861
vt 0.240822911 0.30961892
vt 0.240822911 0.309425861
vt 0.240822911 0.30981192
vt 0.172265679 0.248650819
vt 0.240822911 0.30981192
vt 0.240822911 0.314058095
vt 0.240822911 0.314058095
vt 0.240822911 0.314058095
vt 0.240822911 0.310969979
vt 0.240822911 0.314058095
vt 0.240822911 0.310969979
vt 0.240822911 0.30981192
vt 0.172265679 0.248650819
vt 0.240822911 0.31019792
vt 0.240822911 0.30981192
vt 0.240822911 0.310969979
vt 0.172265679 0.248650819
vt 0.240822911 0.30961892
vt 0.172265679 0.248650819
vt 0.240822911 0.30961892
vt 0.240822911 0.304793626
vt 0.240822911 0.314058095
vt 0.240822911 0.30981192
vt 0.172265679 0.248650819
vt 0.222440809 0.676615298
vt 0.297174394 0.676800609
vt 0.253693014 0.676800609
vt 0.272222042 0.714229107
vt 0.247516721 0.723493636
vt 0.247516721 0.732758105
vt 0.247516721 0.714229107
vt 0.272222042 0.714229107
vt 0.664972186 0.260521561
vt 0.652619481 0.260521561
vt 0.664972067 0.263609737
vt 0.652619481 0.260521561
vt 0.664972186 0.265153795
vt 0.664972186 0.265346855
vt 0.668060303 0.263609737
vt 0.668060303 0.265153795
vt 0.669604421 0.263609737
vt 0.669604421 0.260521561
vt 0.668060303 0.260521561
vt 0.669604421 0.265153795
vt 0.671148419 0.265153795
vt 0.669604421 0.265346855
vt 0.671148419 0.263609737
vt 0.668060303 0.265346855
vt 0.677324772 0.260521561
vt 0.671148419 0.260521561
vt 0.671148419 0.265346855
vt 0.677324772 0.266697913
vt 0.671148419 0.265539855
vt 0.669604421 0.265539855
vt 0.671148419 0.265925854
vt 0.668060303 0.265539855
vt 0.664972186 0.265346855
vt 0.664972186 0.265539855
vt 0.669604421 0.265925854
vt 0.668060303 0.265925854
vt 0.671148419 0.266697913
vt 0.671148419 0.26978603
vt 0.677324772 0.26978603
vt 0.669604421 0.266697913
vt 0.668060303 0.266697913
vt 0.664972186 0.265925854
vt 0.668060303 0.26978603
vt 0.669604421 0.26978603
vt 0.664972186 0.266697913
vt 0.652619481 0.26978603
vt 0.652619481 0.260521561
vt 0.664972186 0.26978603
vt 0.671148419 0.265539855
vt 0.677324772 0.266697913
vt 0.671148419 0.265346855
vt 0.664972186 0.265539855
vt 0.664972186 0.265346855
vt 0.652619481 0.260521561
vt 0.234646618 0.30961892
vt 0.172265679 0.248650819
vt 0.234646618 0.309425861
vt 0.234646618 0.304793626
vt 0.234646559 0.307881802
vt 0.234646618 0.30961892
vt 0.234646618 0.30961892
vt 0.172265679 0.248650819
vt 0.234646618 0.30961892
vt 0.234646618 0.304793626
vt 0.234646618 0.304793626
vt 0.234646618 0.304793626
vt 0.234646618 0.30981192
vt 0.234646618 0.314058095
vt 0.234646618 0.314058095
vt 0.234646618 0.314058095
vt 0.234646618 0.31019792
vt 0.234646618 0.30981192
vt 0.234646618 0.31019792
vt 0.172265679 0.248650819
vt 0.234646618 0.314058095
vt 0.234646559 0.307881802
vt 0.234646618 0.304793626
vt 0.234646559 0.307881802
vt 0.234646618 0.314058095
vt 0.172265679 0.248650819
vt 0.234646618 0.310969979
vt 0.234646618 0.314058095
vt 0.234646618 0.31019792
vt 0.262890697 0.72872895
vt 0.195877507 0.667760849
vt 0.262890697 0.72872895
vt 0.262890697 0.723903656
vt 0.262890697 0.723903656
vt 0.262890697 0.733168125
vt 0.262890697 0.726991832
vt 0.262890697 0.723903656
vt 0.262890697 0.726991832
vt 0.195877507 0.667760849
vt 0.262890697 0.733168125
vt 0.262890697 0.733168125
vt 0.262890697 0.733168125
vt 0.195877507 0.667760849
vt 0.262890697 0.733168125
vt 0.262890697 0.72930795
vt 0.262890697 0.72930795
vt 0.262890697 0.72892195
vt 0.262890697 0.72872895
vt 0.195877507 0.667760849
vt 0.262890697 0.728535891
vt 0.262890697 0.723903656
vt 0.262890697 0.726991832
vt 0.262890697 0.72872895
vt 0.195877507 0.667760849
vt 0.262890697 0.733168125
vt 0.262890697 0.72930795
vt 0.262890697 0.72892195
vt 0.262890697 0.733168125
vt 0.195877507 0.667760849
vt 0.262890697 0.730080009
vt 0.261346579 0.728535891
vt 0.261346579 0.728535891
vt 0.261346579 0.72872895
vt 0.195877507 0.667760849
vt 0.195877507 0.667760849
vt 0.261346579 0.723903656
vt 0.261346579 0.723903656
vt 0.261346579 0.723903656
vt 0.261346579 0.723903656
vt 0.261346579 0.72892195
vt 0.261346579 0.723903656
vt 0.261346579 0.733168125
vt 0.261346579 0.733168125
vt 0.261346579 0.730080009
vt 0.261346579 0.733168125
vt 0.261346579 0.730080009
vt 0.195877507 0.667760849
vt 0.261346579 0.72892195
vt 0.261346579 0.728535891
vt 0.195877507 0.667760849
vt 0.261346579 0.72872895
vt 0.261346579 0.723903656
vt 0.261346579 0.72892195
vt 0.261346579 0.730080009
vt 0.195877507 0.667760849
vt 0.261346579 0.72892195
vt 0.261346579 0.72930795
vt 0.261346579 0.723903656
vt 0.195877507 0.667760849
vt 0.261346579 0.726991832
vt 0.222440809 0.676615298
vt 0.272221982 0.676800609
vt 0.297174394 0.676800609
vt 0.259869367 0.676800609
vt 0.297174394 0.742022574
vt 0.290998042 0.742022574
vt 0.290998042 0.742022574
vt 0.297174394 0.742022574
vt 0.64490217 0.784807086
vt 0.647990286 0.784807086
vt 0.647990286 0.784807086
vt 0.64490217 0.784807086
vt 0.272469103 0.732758105
vt 0.284821749 0.732758105
vt 0.284821749 0.732758105
vt 0.272469103 0.732758105
vt 0.289453983 0.742022574
vt 0.287909865 0.742022574
vt 0.287909865 0.742022574
vt 0.289453983 0.742022574
vt 0.651078463 0.786158144
vt 0.649534404 0.786158144
vt 0.651078463 0.786158144
vt 0.649534404 0.786158144
vt 0.64490217 0.785386086
vt 0.647990286 0.785386086
vt 0.64490217 0.785386086
vt 0.647990286 0.785386086
vt 0.64490211 0.783069968
vt 0.647990286 0.783069968
vt 0.64490211 0.783069968
vt 0.647990286 0.783069968
vt 0.287909865 0.732758105
vt 0.289453983 0.732758105
vt 0.289453983 0.732758105
vt 0.287909865 0.732758105
vt 0.651078463 0.784807086
vt 0.649534404 0.784807086
vt 0.651078463 0.784807086
vt 0.649534404 0.784807086
vt 0.647990286 0.785000086
vt 0.64490217 0.785000086
vt 0.647990286 0.785000086
vt 0.64490217 0.785000086
vt 0.290998042 0.732758105
vt 0.297174394 0.732758105
vt 0.297174394 0.732758105
vt 0.290998042 0.732758105
vt 0.284821749 0.742022574
vt 0.272469103 0.742022574
vt 0.272469103 0.742022574
vt 0.284821749 0.742022574
vt 0.651078463 0.784614027
vt 0.649534404 0.784614027
vt 0.651078463 0.784614027
vt 0.649534404 0.784614027
vt 0.649534404 0.783069968
vt 0.651078463 0.783069968
vt 0.649534404 0.783069968
vt 0.651078463 0.783069968
vt 0.647990286 0.786158144
vt 0.64490217 0.786158144
vt 0.647990286 0.786158144
vt 0.64490217 0.786158144
vt 0.272469103 0.676800609
vt 0.297174394 0.713858545
vt 0.297174394 0.676800609
vt 0.272469103 0.713858545
vt 0.647990286 0.784614027
vt 0.64490217 0.784614027
vt 0.647990286 0.784614027
vt 0.64490217 0.784614027
vt 0.649534404 0.785386086
vt 0.651078463 0.785386086
vt 0.649534404 0.785386086
vt 0.651078463 0.785386086
vt 0.649534404 0.785386086
vt 0.651078463 0.786158144
vt 0.5825212 0.723838985
vt 0.5825212 0.723838985
vt 0.290998042 0.742022574
vt 0.297174394 0.742022574
vt 0.297174394 0.742022574
vt 0.290998042 0.742022574
vt 0.290998042 0.742022574
vt 0.297174394 0.742022574
vt 0.649534404 0.783069968
vt 0.651078463 0.784614027
vt 0.5825212 0.723838985
vt 0.5825212 0.723838985
vt 0.651078463 0.785000086
vt 0.649534404 0.785000086
vt 0.649534404 0.785000086
vt 0.651078463 0.785000086
vt 0.22256434 0.676800609
vt 0.24726966 0.713858545
vt 0.24726966 0.676800609
vt 0.22256434 0.713858545
vt 0.64490217 0.784807086
vt 0.647990286 0.785000086
vt 0.5825212 0.723838985
vt 0.5825212 0.723838985
vt 0.64490211 0.783069968
vt 0.647990286 0.784614027
vt 0.5825212 0.723838985
vt 0.5825212 0.723838985
vt 0.649534404 0.784807086
vt 0.651078463 0.785000086
vt 0.5825212 0.723838985
vt 0.5825212 0.723838985
vt 0.247516721 0.723493636
vt 0.222440809 0.676615298
vt 0.284821749 0.742022574
vt 0.272469103 0.732758105
vt 0.290998042 0.732758105
vt 0.297174394 0.742022574
vt 0.222440809 0.676615298
vt 0.222440809 0.676615298
vt 0.284821749 0.742022574
vt 0.272469103 0.742022574
vt 0.284821749 0.742022574
vt 0.272469103 0.742022574
vt 0.284821749 0.742022574
vt 0.272469103 0.742022574
vt 0.64490217 0.785386086
vt 0.647990286 0.786158144
vt 0.5825212 0.723838985
vt 0.5825212 0.723838985
vt 0.272469103 0.732758105
vt 0.284821749 0.732758105
vt 0.272469103 0.732758105
vt 0.284821749 0.732758105
vt 0.272469103 0.732758105
vt 0.284821749 0.732758105
vt 0.290998042 0.732758105
vt 0.297174394 0.732758105
vt 0.290998042 0.732758105
vt 0.297174394 0.732758105
vt 0.290998042 0.732758105
vt 0.297174394 0.732758105
vt 0.299358308 0.229160726
vt 0.256361544 0.27215749
vt 0.299358308 0.27215749
vt 0.256361544 0.229160726
vt 0.299358308 0.229160726
vt 0.256361544 0.27215749
vt 0.299358308 0.27215749
vt 0.256361544 0.229160726
vt 0.299358308 0.229160726
vt 0.256361544 0.27215749
vt 0.299358308 0.27215749
vt 0.256361544 0.229160726
vt 0.299358308 0.229160726
vt 0.256361544 0.27215749
vt 0.299358308 0.27215749
vt 0.256361544 0.229160726
vt 0.299358308 0.229160726
vt 0.256361544 0.27215749
vt 0.299358308 0.27215749
vt 0.256361544 0.229160726
vt 0.299358308 0.229160726
vt 0.256361544 0.27215749
vt 0.299358308 0.27215749
vt 0.256361544 0.229160726
vt 0.299358308 0.229160726
vt 0.256361544 0.27215749
vt 0.299358308 0.27215749
vt 0.256361544 0.229160726
vt 0.299358308 0.229160726
vt 0.256361544 0.27215749
vt 0.299358308 0.27215749
vt 0.256361544 0.229160726
vt 0.299358308 0.229160726
vt 0.256361544 0.27215749
vt 0.299358308 0.27215749
vt 0.256361544 0.229160726
vt 0.299358308 0.229160726
vt 0.256361544 0.27215749
vt 0.299358308 0.27215749
vt 0.256361544 0.229160726
vt 0.299358308 0.229160726
vt 0.256361544 0.27215749
vt 0.299358308 0.27215749
vt 0.256361544 0.229160726
vt 0.299358308 0.229160726
vt 0.256361544 0.27215749
vt 0.299358308 0.27215749
vt 0.256361544 0.229160726
vt 0.299358308 0.229160726
vt 0.256361544 0.27215749
vt 0.299358308 0.27215749
vt 0.256361544 0.229160726
vt 0.299358308 0.229160726
vt 0.256361544 0.27215749
vt 0.299358308 0.27215749
vt 0.256361544 0.229160726
vt 0.299358308 0.229160726
vt 0.256361544 0.27215749
vt 0.299358308 0.27215749
vt 0.256361544 0.229160726
vt 0.299358308 0.229160726
vt 0.256361544 0.27215749
vt 0.299358308 0.27215749
vt 0.256361544 0.229160726
vt 0.299358308 0.229160726
vt 0.256361544 0.27215749
vt 0.299358308 0.27215749
vt 0.256361544 0.229160726
vt 0.299358308 0.229160726
vt 0.256361544 0.27215749
vt 0.299358308 0.27215749
vt 0.256361544 0.229160726
vt 0.299358308 0.229160726
vt 0.256361544 0.27215749
vt 0.299358308 0.27215749
vt 0.256361544 0.229160726
vt 0.299358308 0.229160726
vt 0.256361544 0.27215749
vt 0.299358308 0.27215749
vt 0.256361544 0.229160726
vt 0.299358308 0.229160726
vt 0.256361544 0.27215749
vt 0.299358308 0.27215749
vt 0.256361544 0.229160726
vt 0.299358308 0.229160726
vt 0.256361544 0.27215749
vt 0.299358308 0.27215749
vt 0.256361544 0.229160726
vt 0.299358308 0.229160726
vt 0.256361544 0.27215749
vt 0.299358308 0.27215749
vt 0.256361544 0.229160726
vt 0.299358308 0.229160726
vt 0.256361544 0.27215749
vt 0.299358308 0.27215749
vt 0.256361544 0.229160726
vt 0.299358308 0.229160726
vt 0.256361544 0.27215749
vt 0.299358308 0.27215749
vt 0.256361544 0.229160726
vt 0.299358308 0.229160726
vt 0.256361544 0.27215749
vt 0.299358308 0.27215749
vt 0.256361544 0.229160726
vt 0.299358308 0.229160726
vt 0.256361544 0.27215749
vt 0.299358308 0.27215749
vt 0.256361544 0.229160726
vt 0.299358308 0.229160726
vt 0.256361544 0.27215749
vt 0.299358308 0.27215749
vt 0.256361544 0.229160726
vt 0.299358308 0.229160726
vt 0.256361544 0.27215749
vt 0.299358308 0.27215749
vt 0.256361544 0.229160726
vt 0.299358308 0.229160726
vt 0.256361544 0.27215749
vt 0.299358308 0.27215749
vt 0.256361544 0.229160726
vt 0.299358308 0.229160726
vt 0.256361544 0.27215749
vt 0.299358308 0.27215749
vt 0.256361544 0.229160726
vt 0.299358308 0.229160726
vt 0.256361544 0.27215749
vt 0.299358308 0.27215749
vt 0.256361544 0.229160726
vt 0.299358308 0.229160726
vt 0.256361544 0.27215749
vt 0.299358308 0.27215749
vt 0.256361544 0.229160726
vt 0.299358308 0.229160726
vt 0.256361544 0.27215749
vt 0.299358308 0.27215749
vt 0.256361544 0.229160726
vt 0.299358308 0.229160726
vt 0.256361544 0.27215749
vt 0.299358308 0.27215749
vt 0.256361544 0.229160726
vt 0.299358308 0.229160726
vt 0.256361544 0.27215749
vt 0.299358308 0.27215749
vt 0.256361544 0.229160726
vt 0.299358308 0.229160726
vt 0.256361544 0.27215749
vt 0.299358308 0.27215749
vt 0.256361544 0.229160726
vt 0.299358308 0.229160726
vt 0.256361544 0.27215749
vt 0.299358308 0.27215749
vt 0.256361544 0.229160726
vt 0.299358308 0.229160726
vt 0.256361544 0.27215749
vt 0.299358308 0.27215749
vt 0.256361544 0.229160726
vt 0.299358308 0.229160726
vt 0.256361544 0.27215749
vt 0.299358308 0.27215749
vt 0.256361544 0.229160726
vt 0.299358308 0.229160726
vt 0.256361544 0.27215749
vt 0.299358308 0.27215749
vt 0.256361544 0.229160726
vt 0.299358308 0.229160726
vt 0.256361544 0.27215749
vt 0.299358308 0.27215749
vt 0.256361544 0.229160726
vt 0.299358308 0.229160726
vt 0.256361544 0.27215749
vt 0.299358308 0.27215749
vt 0.256361544 0.229160726
vt 0.299358308 0.229160726
vt 0.256361544 0.27215749
vt 0.299358308 0.27215749
vt 0.256361544 0.229160726
vt 0.299358308 0.229160726
vt 0.256361544 0.27215749
vt 0.299358308 0.27215749
vt 0.256361544 0.229160726
vt 0.299358308 0.229160726
vt 0.256361544 0.27215749
vt 0.299358308 0.27215749
vt 0.256361544 0.229160726
vt 0.299358308 0.229160726
vt 0.256361544 0.27215749
vt 0.299358308 0.27215749
vt 0.256361544 0.229160726
vt 0.299358308 0.229160726
vt 0.256361544 0.27215749
vt 0.299358308 0.27215749
vt 0.256361544 0.229160726
vt 0.299358308 0.229160726
vt 0.256361544 0.27215749
vt 0.299358308 0.27215749
vt 0.256361544 0.229160726
vt 0.299358308 0.229160726
vt 0.256361544 0.27215749
vt 0.299358308 0.27215749
vt 0.256361544 0.229160726
vt 0.299358308 0.229160726
vt 0.256361544 0.27215749
vt 0.299358308 0.27215749
vt 0.256361544 0.229160726
vt 0.299358308 0.229160726
vt 0.256361544 0.27215749
vt 0.299358308 0.27215749
vt 0.256361544 0.229160726
vt 0.299358308 0.229160726
vt 0.256361544 0.27215749
vt 0.299358308 0.27215749
vt 0.256361544 0.229160726
vt 0.299358308 0.229160726
vt 0.256361544 0.27215749
vt 0.299358308 0.27215749
vt 0.256361544 0.229160726
vt 0.299358308 0.229160726
vt 0.256361544 0.27215749
vt 0.299358308 0.27215749
vt 0.256361544 0.229160726
vt 0.299358308 0.229160726
vt 0.256361544 0.27215749
vt 0.299358308 0.27215749
vt 0.256361544 0.229160726
vt 0.299358308 0.229160726
vt 0.256361544 0.27215749
vt 0.299358308 0.27215749
vt 0.256361544 0.229160726
vt 0.299358308 0.229160726
vt 0.256361544 0.27215749
vt 0.299358308 0.27215749
vt 0.256361544 0.229160726
vt 0.299358308 0.229160726
vt 0.256361544 0.27215749
vt 0.299358308 0.27215749
vt 0.256361544 0.229160726
vt 0.299358308 0.229160726
vt 0.256361544 0.27215749
vt 0.299358308 0.27215749
vt 0.256361544 0.229160726
vt 0.299358308 0.229160726
vt 0.256361544 0.27215749
vt 0.299358308 0.27215749
vt 0.256361544 0.229160726
vt 0.299358308 0.229160726
vt 0.256361544 0.27215749
vt 0.299358308 0.27215749
vt 0.256361544 0.229160726
vt 0.299358308 0.229160726
vt 0.256361544 0.27215749
vt 0.299358308 0.27215749
vt 0.256361544 0.229160726
vt 0.299358308 0.229160726
vt 0.256361544 0.27215749
vt 0.299358308 0.27215749
vt 0.256361544 0.229160726
vt 0.299358308 0.229160726
vt 0.256361544 0.27215749
vt 0.299358308 0.27215749
vt 0.256361544 0.229160726
vt 0.299358308 0.229160726
vt 0.256361544 0.27215749
vt 0.299358308 0.27215749
vt 0.256361544 0.229160726
vt 0.299358308 0.229160726
vt 0.256361544 0.27215749
vt 0.299358308 0.27215749
vt 0.256361544 0.229160726
vt 0.299358308 0.229160726
vt 0.256361544 0.27215749
vt 0.299358308 0.27215749
vt 0.256361544 0.229160726
vt 0.299358308 0.229160726
vt 0.256361544 0.27215749
vt 0.299358308 0.27215749
vt 0.256361544 0.229160726
vt 0.299358308 0.229160726
vt 0.256361544 0.27215749
vt 0.299358308 0.27215749
vt 0.256361544 0.229160726
vt 0.299358308 0.229160726
vt 0.256361544 0.27215749
vt 0.299358308 0.27215749
vt 0.256361544 0.229160726
vt 0.299358308 0.229160726
vt 0.256361544 0.27215749
vt 0.299358308 0.27215749
vt 0.256361544 0.229160726
vt 0.299358308 0.229160726
vt 0.256361544 0.27215749
vt 0.299358308 0.27215749
vt 0.256361544 0.229160726
vt 0.299358308 0.229160726
vt 0.256361544 0.27215749
vt 0.299358308 0.27215749
vt 0.256361544 0.229160726
vt 0.299358308 0.229160726
vt 0.256361544 0.27215749
vt 0.299358308 0.27215749
vt 0.256361544 0.229160726
vt 0.299358308 0.229160726
vt 0.256361544 0.27215749
vt 0.299358308 0.27215749
vt 0.256361544 0.229160726
vt 0.299358308 0.229160726
vt 0.256361544 0.27215749
vt 0.299358308 0.27215749
vt 0.256361544 0.229160726
vt 0.299358308 0.229160726
vt 0.256361544 0.27215749
vt 0.299358308 0.27215749
vt 0.256361544 0.229160726
vt 0.299358308 0.229160726
vt 0.256361544 0.27215749
vt 0.299358308 0.27215749
vt 0.256361544 0.229160726
vt 0.299358308 0.229160726
vt 0.256361544 0.27215749
vt 0.299358308 0.27215749
vt 0.256361544 0.229160726
vt 0.299358308 0.229160726
vt 0.256361544 0.27215749
vt 0.299358308 0.27215749
vt 0.256361544 0.229160726
vt 0.299358308 0.229160726
vt 0.256361544 0.27215749
vt 0.299358308 0.27215749
vt 0.256361544 0.229160726
vt 0.299358308 0.229160726
vt 0.256361544 0.27215749
vt 0.299358308 0.27215749
vt 0.256361544 0.229160726
vt 0.299358308 0.229160726
vt 0.256361544 0.27215749
vt 0.299358308 0.27215749
vt 0.256361544 0.229160726
vt 0.299358308 0.229160726
vt 0.256361544 0.27215749
vt 0.299358308 0.27215749
vt 0.256361544 0.229160726
vt 0.299358308 0.229160726
vt 0.256361544 0.27215749
vt 0.299358308 0.27215749
vt 0.256361544 0.229160726
vt 0.299358308 0.229160726
vt 0.256361544 0.27215749
vt 0.299358308 0.27215749
vt 0.256361544 0.229160726
vt 0.299358308 0.229160726
vt 0.256361544 0.27215749
vt 0.299358308 0.27215749
vt 0.256361544 0.229160726
vt 0.299358308 0.229160726
vt 0.256361544 0.27215749
vt 0.299358308 0.27215749
vt 0.256361544 0.229160726
vt 0.299358308 0.229160726
vt 0.256361544 0.27215749
vt 0.299358308 0.27215749
vt 0.256361544 0.229160726
vt 0.299358308 0.229160726
vt 0.256361544 0.27215749
vt 0.299358308 0.27215749
vt 0.256361544 0.229160726
vt 0.299358308 0.229160726
vt 0.256361544 0.27215749
vt 0.299358308 0.27215749
vt 0.256361544 0.229160726
vt 0.299358308 0.229160726
vt 0.256361544 0.27215749
vt 0.299358308 0.27215749
vt 0.256361544 0.229160726
vt 0.299358308 0.229160726
vt 0.256361544 0.27215749
vt 0.299358308 0.27215749
vt 0.256361544 0.229160726
vt 0.299358308 0.229160726
vt 0.256361544 0.27215749
vt 0.299358308 0.27215749
vt 0.256361544 0.229160726
vt 0.299358308 0.229160726
vt 0.256361544 0.27215749
vt 0.299358308 0.27215749
vt 0.256361544 0.229160726
vt 0.299358308 0.229160726
vt 0.256361544 0.27215749
vt 0.299358308 0.27215749
vt 0.256361544 0.229160726
vt 0.299358308 0.229160726
vt 0.256361544 0.27215749
vt 0.299358308 0.27215749
vt 0.256361544 0.229160726
vt 0.299358308 0.229160726
vt 0.256361544 0.27215749
vt 0.299358308 0.27215749
vt 0.256361544 0.229160726
vt 0.299358308 0.229160726
vt 0.256361544 0.27215749
vt 0.299358308 0.27215749
vt 0.256361544 0.229160726
vt 0.253693014 0.676800609
vt 0.247516721 0.676800609
vt 0.253693014 0.676800609
vt 0.247516721 0.676800609
vt 0.253693014 0.676800609
vt 0.297174394 0.676800609
vt 0.253693014 0.676800609
vt 0.253693014 0.676800609
vt 0.247516721 0.676800609
vt 0.247516721 0.713858545
vt 0.253693044 0.713858545
vt 0.255751818 0.713858545
vt 0.255751789 0.676800609
vt 0.259869367 0.676800609
vt 0.272222042 0.713858545
vt 0.272221982 0.676800609
vt 0.272221982 0.676800609
vt 0.259869367 0.676800609
vt 0.259869367 0.676800609
vt 0.272221982 0.676800609
vt 0.259869367 0.676800609
vt 0.272221982 0.676800609
vt 0.272222042 0.751287103
vt 0.247516721 0.732758105
vt 0.247516721 0.751287103
vt 0.272222042 0.714229107
vt 0.222440809 0.676615298
vt 0.247516721 0.714229107
vt 0.247516721 0.751287103
vt 0.247516721 0.723493636
vt 0.247516721 0.751287103
vt 0.247516721 0.732758105
vt 0.247516721 0.732758105
vt 0.247516721 0.751287103
vt 0.247516721 0.732758105
vt 0.247516721 0.751287103
vt 0.247516721 0.732758105
vt 0.247516721 0.723493636
vt 0.247516721 0.723493636
vt 0.247516721 0.714229107
vt 0.247516721 0.714229107
vt 0.247516721 0.723493636
vt 0.247516721 0.714229107
vt 0.247516721 0.723493636
vt 0.222440809 0.676615298
vt 0.297174394 0.676800609
vt 0.22256434 0.676800609
vt 0.297174394 0.676800609
vt 0.297174394 0.713858545
vt 0.297174394 0.713858545
vt 0.297174394 0.676800609
vt 0.297174394 0.713858545
vt 0.24726966 0.676800609
vt 0.24726966 0.676800609
vt 0.22256434 0.676800609
vt 0.22256434 0.676800609
vt 0.24726966 0.676800609
vt 0.287909865 0.742022574
vt 0.287909865 0.742022574
vt 0.289453983 0.742022574
vt 0.289453983 0.742022574
vt 0.287909865 0.742022574
vt 0.289453983 0.742022574
vt 0.222440809 0.676615298
vt 0.222440809 0.676615298
vt 0.287909865 0.732758105
vt 0.287909865 0.732758105
vt 0.289453983 0.732758105
vt 0.289453983 0.732758105
vt 0.287909865 0.732758105
vt 0.289453983 0.732758105
vn 0.196090 -0.000000 0.980586
vn -0.130437 -0.000000 0.991457
vn -0.260875 -0.000000 0.965373
vn 0.000000 -1.000000 -0.000000
vn 0.000000 -1.000000 -0.000000
vn 0.000000 -1.000000 -0.000000
vn 0.000000 -1.000000 -0.000000
vn 0.000000 -1.000000 -0.000000
vn 0.000000 -1.000000 -0.000000
vn 0.000000 -1.000000 -0.000000
vn 0.000000 -1.000000 -0.000000
vn 0.000000 -1.000000 -0.000000
vn 0.000000 -1.000000 -0.000000
vn 0.000000 -1.000000 -0.000000
vn 0.000000 -1.000000 -0.000000
vn 0.000000 -1.000000 -0.000000
vn 0.000000 -1.000000 -0.000000
vn 0.000000 -1.000000 -0.000000
vn 0.000000 -1.000000 -0.000000
vn 0.000000 -1.000000 -0.000000
vn 0.000000 -1.000000 -0.000000
vn 0.000000 -1.000000 -0.000000
vn 0.000000 -1.000000 -0.000000
vn 0.000000 -1.000000 -0.000000
vn 0.000000 -1.000000 -0.000000
vn 0.000000 -1.000000 -0.000000
vn 0.000000 -1.000000 -0.000000
vn 0.000000 -1.000000 -0.000000
vn 0.000000 -1.000000 -0.000000
vn 0.000000 -1.000000 -0.000000
vn 0.000000 -1.000000 -0.000000
vn 0.000000 -1.000000 -0.000000
vn 0.000000 -1.000000 -0.000000
vn 0.000000 -1.000000 -0.000000
vn 0.000000 -1.000000 -0.000000
vn 0.000000 -1.000000 -0.000000
vn 0.000000 -1.000000 -0.000000
vn 0.000000 -1.000000 -0.000000
vn 0.000000 -1.000000 -0.000000
vn 0.000000 -1.000000 -0.000000
vn 0.000000 -1.000000 -0.000000
vn 0.000000 1.000000 0.000000
vn 0.000000 1.000000 0.000000
vn 0.000000 1.000000 0.000000
vn 0.000000 1.000000 0.000000
vn 0.000000 1.000000 0.000000
vn 0.000000 -0.000000 1.000000
vn 0.000000 -0.000000 1.000000
vn 0.000000 -0.000000 1.000000
vn 0.000000 -0.000000 1.000000
vn 0.000000 -0.000000 1.000000
vn 0.000000 -0.000000 1.000000
vn 0.000000 -0.000000 1.000000
vn 0.000000 -0.000000 1.000000
vn 0.000000 -0.000000 1.000000
vn 0.000000 -0.000000 1.000000
vn 0.000000 -0.000000 1.000000
vn 0.000000 -0.000000 1.000000
vn 0.000000 -0.000000 1.000000
vn 0.000000 -0.000000 1.000000
vn 0.000000 -0.000000 1.000000
vn 0.000000 -0.000000 1.000000
vn 0.000000 -0.000000 1.000000
vn 0.000000 -0.000000 1.000000
vn 0.000000 -0.000000 1.000000
vn 0.000000 -0.000000 1.000000
vn 0.000000 -0.000000 1.000000
vn 0.000000 -0.000000 1.000000
vn 0.000000 -0.000000 1.000000
vn 0.000000 -0.000000 1.000000
vn 0.000000 -0.000000 1.000000
vn 0.000000 -0.000000 1.000000
vn 0.000000 -0.000000 1.000000
vn 0.000000 -0.000000 1.000000
vn 0.000000 -0.000000 1.000000
vn 0.000000 -0.000000 1.000000
vn 0.000000 -0.000000 1.000000
vn 0.000000 -0.000000 1.000000
vn 0.000000 -0.000000 1.000000
vn 0.000000 -0.000000 1.000000
vn 0.000000 -0.000000 1.000000
vn 0.000000 -0.000000 1.000000
vn 0.000000 -0.000000 1.000000
vn 0.000000 -0.000000 1.000000
vn 0.000000 -0.000000 1.000000
vn 0.000000 -0.000000 1.000000
vn 0.000000 -0.000000 1.000000
vn 0.000000 -0.000000 1.000000
vn 0.000000 -0.000000 1.000000
vn 0.000000 -0.000000 1.000000
vn 0.000000 -0.000000 1.000000
vn 0.000000 -0.000000 1.000000
vn 0.000000 1.000000 0.000000
vn 0.000000 1.000000 0.000000
vn 0.000000 1.000000 0.000000
vn 0.000000 1.000000 0.000000
vn 0.000000 1.000000 0.000000
vn 0.000000 1.000000 0.000000
vn 0.000000 1.000000 0.000000
vn 0.000000 1.000000 0.000000
vn 0.000000 1.000000 0.000000
vn 0.000000 1.000000 0.000000
vn 0.000000 1.000000 0.000000
vn 0.000000 1.000000 0.000000
vn 0.000000 1.000000 0.000000
vn 0.000000 1.000000 0.000000
vn 0.000000 1.000000 0.000000
vn 0.000000 1.000000 0.000000
vn 0.000000 1.000000 0.000000
vn 0.000000 1.000000 0.000000
vn 0.000000 1.000000 0.000000
vn 0.000000 1.000000 0.000000
vn 0.000000 1.000000 0.000000
vn 0.000000 1.000000 0.000000
vn 0.000000 1.000000 0.000000
vn 0.000000 1.000000 0.000000
vn 0.000000 1.000000 0.000000
vn 0.000000 1.000000 0.000000
vn 0.000000 1.000000 0.000000
vn 0.000000 1.000000 0.000000
vn 0.000000 1.000000 0.000000
vn 0.000000 1.000000 0.000000
vn 0.000000 1.000000 0.000000
vn 0.000000 1.000000 0.000000
vn 0.000000 1.000000 0.000000
vn 0.000000 1.000000 0.000000
vn 0.000000 1.000000 0.000000
vn 0.000000 1.000000 0.000000
vn 0.000000 1.000000 0.000000
vn 0.000000 1.000000 0.000000
vn 0.000000 1.000000 0.000000
vn 0.000000 1.000000 0.000000
vn 0.000000 1.000000 0.000000
vn 0.000000 1.000000 0.000000
vn 0.000000 1.000000 0.000000
vn 0.000000 1.000000 0.000000
vn 0.000000 1.000000 0.000000
vn 0.000000 1.000000 0.000000
vn 0.000000 1.000000 0.000000
vn 0.000000 1.000000 0.000000
vn 0.000000 1.000000 0.000000
vn 0.000000 1.000000 0.000000
vn 0.000000 1.000000 0.000000
vn 0.000000 1.000000 0.000000
vn 0.000000 1.000000 0.000000
vn 0.000000 1.000000 0.000000
vn 0.000000 1.000000 0.000000
vn 0.000000 1.000000 0.000000
vn 0.000000 1.000000 0.000000
vn 0.000000 1.000000 0.000000
vn 0.000000 1.000000 0.000000
vn 0.000000 1.000000 0.000000
vn 0.000000 -1.000000 -0.000000
vn 0.000000 -1.000000 -0.000000
vn 0.000000 -1.000000 -0.000000
vn 0.000000 -1.000000 -0.000000
vn 0.000000 -1.000000 -0.000000
vn 0.000000 -1.000000 -0.000000
vn 0.000000 -1.000000 -0.000000
vn 0.000000 -1.000000 -0.000000
vn 0.000000 -1.000000 -0.000000
vn 0.000000 -1.000000 -0.000000
vn 0.000000 -1.000000 -0.000000
vn 0.000000 -1.000000 -0.000000
vn 0.000000 -1.000000 -0.000000
vn 0.000000 -1.000000 -0.000000
vn 0.000000 -1.000000 -0.000000
vn 0.000000 -1.000000 -0.000000
vn 0.000000 -1.000000 -0.000000
vn 0.000000 -1.000000 -0.000000
vn 0.000000 -1.000000 -0.000000
vn 0.000000 -1.000000 -0.000000
vn 0.000000 -1.000000 -0.000000
vn 0.000000 -1.000000 -0.000000
vn 0.000000 -1.000000 -0.000000
vn 0.000000 -1.000000 -0.000000
vn 0.000000 -1.000000 -0.000000
vn 0.000000 -1.000000 -0.000000
vn 0.000000 -1.000000 -0.000000
vn 0.000000 -1.000000 -0.000000
vn 0.000000 -1.000000 -0.000000
vn 0.000000 -1.000000 -0.000000
vn 0.000000 -1.000000 -0.000000
vn 0.000000 -1.000000 -0.000000
vn 0.000000 -1.000000 -0.000000
vn 0.000000 -1.000000 -0.000000
vn -1.000000 0.000000 0.000000
vn -1.000000 0.000000 0.000000
vn -1.000000 0.000000 0.000000
vn -1.000000 0.000000 0.000000
vn 1.000000 0.000000 0.000000
vn 1.000000 0.000000 0.000000
vn 1.000000 0.000000 0.000000
vn 1.000000 0.000000 0.000000
vn 1.000000 0.000000 0.000000
vn 1.000000 0.000000 0.000000
vn 1.000000 0.000000 0.000000
vn 1.000000 0.000000 0.000000
vn -1.000000 0.000000 0.000000
vn -1.000000 0.000000 0.000000
vn -1.000000 0.000000 0.000000
vn -1.000000 0.000000 0.000000
vn -1.000000 0.000000 0.000000
vn -1.000000 0.000000 0.000000
vn -1.000000 0.000000 0.000000
vn -1.000000 0.000000 0.000000
vn 1.000000 0.000000 0.000000
vn 1.000000 0.000000 0.000000
vn 1.000000 0.000000 0.000000
vn 1.000000 0.000000 0.000000
vn 1.000000 0.000000 0.000000
vn 1.000000 0.000000 0.000000
vn 1.000000 0.000000 0.000000
vn 1.000000 0.000000 0.000000
vn 1.000000 0.000000 0.000000
vn 1.000000 0.000000 0.000000
vn 1.000000 0.000000 0.000000
vn 1.000000 0.000000 0.000000
vn 1.000000 0.000000 0.000000
vn 1.000000 0.000000 0.000000
vn 1.000000 0.000000 0.000000
vn 1.000000 0.000000 0.000000
vn -1.000000 0.000000 0.000000
vn -1.000000 0.000000 0.000000
vn -1.000000 0.000000 0.000000
vn -1.000000 0.000000 0.000000
vn 1.000000 0.000000 0.000000
vn 1.000000 0.000000 0.000000
vn 1.000000 0.000000 0.000000
vn 1.000000 0.000000 0.000000
vn -1.000000 0.000000 0.000000
vn -1.000000 0.000000 0.000000
vn -1.000000 0.000000 0.000000
vn -1.000000 0.000000 0.000000
vn -1.000000 0.000000 0.000000
vn -1.000000 0.000000 0.000000
vn -1.000000 0.000000 0.000000
vn -1.000000 0.000000 0.000000
vn 1.000000 0.000000 0.000000
vn 1.000000 0.000000 0.000000
vn 1.000000 0.000000 0.000000
vn 1.000000 0.000000 0.000000
vn -1.000000 0.000000 0.000000
vn -1.000000 0.000000 0.000000
vn -1.000000 0.000000 0.000000
vn -1.000000 0.000000 0.000000
vn -1.000000 0.000000 0.000000
vn -1.000000 0.000000 0.000000
vn -1.000000 0.000000 0.000000
vn -1.000000 0.000000 0.000000
vn -1.000000 0.000000 0.000000
vn -1.000000 0.000000 0.000000
vn -1.000000 0.000000 0.000000
vn -1.000000 0.000000 0.000000
vn 1.000000 0.000000 0.000000
vn 1.000000 0.000000 0.000000
vn 1.000000 0.000000 0.000000
vn 1.000000 0.000000 0.000000
vn 0.000000 0.000000 -1.000000
vn 0.000000 0.000000 -1.000000
vn 0.000000 0.000000 -1.000000
vn 0.000000 0.000000 -1.000000
vn -0.699557 0.000000 -0.714577
vn -0.550278 0.000000 -0.834981
vn -0.699557 0.000000 -0.714577
vn -0.550278 0.000000 -0.834981
vn -0.194070 0.000000 -0.980988
vn -0.194070 0.000000 -0.980988
vn 0.000000 0.000000 -1.000000
vn 0.000000 0.000000 -1.000000
vn 0.000000 0.000000 -1.000000
vn 0.000000 0.000000 -1.000000
vn -1.000000 0.000000 0.000000
vn -1.000000 0.000000 0.000000
vn -1.000000 0.000000 0.000000
vn -1.000000 0.000000 0.000000
vn 1.000000 0.000000 0.000000
vn 1.000000 0.000000 0.000000
vn 1.000000 0.000000 0.000000
vn 1.000000 0.000000 0.000000
vn 0.000000 0.000000 -1.000000
vn 0.000000 0.000000 -1.000000
vn 0.000000 0.000000 -1.000000
vn 0.000000 0.000000 -1.000000
vn 0.000000 0.000000 -1.000000
vn 0.000000 0.000000 -1.000000
vn 0.000000 0.000000 -1.000000
vn 0.000000 0.000000 -1.000000
vn 0.000000 0.000000 -1.000000
vn 0.000000 0.000000 -1.000000
vn 0.000000 0.000000 -1.000000
vn 0.000000 0.000000 -1.000000
vn -0.194070 0.000000 -0.980988
vn 0.194070 0.000000 -0.980988
vn -0.194070 0.000000 -0.980988
vn 0.194070 0.000000 -0.980988
vn 0.194070 0.000000 -0.980988
vn -0.194070 0.000000 -0.980988
vn 0.194070 0.000000 -0.980988
vn -0.194070 0.000000 -0.980988
vn -0.495111 0.000000 -0.868830
vn -0.194070 0.000000 -0.980988
vn -0.194070 0.000000 -0.980988
vn -0.603141 0.000000 -0.797635
vn -0.699557 0.000000 -0.714576
vn -0.699557 0.000000 -0.714576
vn 0.000000 0.000000 -1.000000
vn 0.000000 0.000000 -1.000000
vn 0.000000 0.000000 -1.000000
vn 0.000000 0.000000 -1.000000
vn 0.495111 0.000000 -0.868830
vn 0.194070 0.000000 -0.980988
vn 0.194070 0.000000 -0.980988
vn 0.603141 0.000000 -0.797635
vn 0.699557 0.000000 -0.714577
vn 0.699557 0.000000 -0.714577
vn 0.495111 0.000000 -0.868830
vn 0.194070 0.000000 -0.980988
vn 0.194070 0.000000 -0.980988
vn 0.603141 0.000000 -0.797635
vn 0.699557 0.000000 -0.714576
vn 0.699557 0.000000 -0.714576
vn 0.000000 -0.000000 1.000000
vn 0.000000 -0.000000 1.000000
vn 0.000000 -0.000000 1.000000
vn 0.000000 -0.000000 1.000000
vn 0.000000 1.000000 0.000000
vn 0.000000 1.000000 0.000000
vn 0.000000 1.000000 0.000000
vn 0.000000 1.000000 0.000000
vn 0.000000 0.000000 -1.000000
vn 0.000000 0.000000 -1.000000
vn 0.000000 0.000000 -1.000000
vn 0.000000 0.000000 -1.000000
vn 0.000000 -1.000000 -0.000000
vn 0.000000 -1.000000 -0.000000
vn 0.000000 -1.000000 -0.000000
vn 0.000000 -1.000000 -0.000000
vn 1.000000 0.000000 0.000000
vn 1.000000 0.000000 0.000000
vn 1.000000 0.000000 0.000000
vn 1.000000 0.000000 0.000000
vn 0.000000 -1.000000 -0.000000
vn 0.000000 -1.000000 -0.000000
vn 0.000000 -1.000000 -0.000000
vn 0.000000 -1.000000 -0.000000
vn -1.000000 0.000000 0.000000
vn -1.000000 0.000000 0.000000
vn -1.000000 0.000000 0.000000
vn -1.000000 0.000000 0.000000
vn 0.000000 1.000000 0.000000
vn 0.000000 1.000000 0.000000
vn 0.000000 1.000000 0.000000
vn 0.000000 1.000000 0.000000
vn -1.000000 0.000000 0.000000
vn -1.000000 0.000000 0.000000
vn -1.000000 0.000000 0.000000
vn -1.000000 0.000000 0.000000
vn 0.000000 1.000000 0.000000
vn 0.000000 1.000000 0.000000
vn 0.000000 1.000000 0.000000
vn 0.000000 1.000000 0.000000
vn 1.000000 0.000000 0.000000
vn 1.000000 0.000000 0.000000
vn 1.000000 0.000000 0.000000
vn 1.000000 0.000000 0.000000
vn 0.000000 -1.000000 -0.000000
vn 0.000000 -1.000000 -0.000000
vn 0.000000 -1.000000 -0.000000
vn 0.000000 -1.000000 -0.000000
vn 0.000000 -0.000000 1.000000
vn 0.000000 -0.000000 1.000000
vn 0.000000 -0.000000 1.000000
vn 0.000000 -0.000000 1.000000
vn 0.000000 1.000000 0.000000
vn 0.000000 1.000000 0.000000
vn 0.000000 1.000000 0.000000
vn 0.000000 1.000000 0.000000
vn 0.000000 0.000000 -1.000000
vn 0.000000 0.000000 -1.000000
vn 0.000000 0.000000 -1.000000
vn 0.000000 0.000000 -1.000000
vn 0.000000 -1.000000 -0.000000
vn 0.000000 -1.000000 -0.000000
vn 0.000000 -1.000000 -0.000000
vn 0.000000 -1.000000 -0.000000
vn 1.000000 0.000000 0.000000
vn 1.000000 0.000000 0.000000
vn 1.000000 0.000000 0.000000
vn 1.000000 0.000000 0.000000
vn 0.000000 -1.000000 -0.000000
vn 0.000000 -1.000000 -0.000000
vn 0.000000 -1.000000 -0.000000
vn 0.000000 -1.000000 -0.000000
vn -1.000000 0.000000 0.000000
vn -1.000000 0.000000 0.000000
vn -1.000000 0.000000 0.000000
vn -1.000000 0.000000 0.000000
vn 0.000000 1.000000 0.000000
vn 0.000000 1.000000 0.000000
vn 0.000000 1.000000 0.000000
vn 0.000000 1.000000 0.000000
vn -1.000000 0.000000 0.000000
vn -1.000000 0.000000 0.000000
vn -1.000000 0.000000 0.000000
vn -1.000000 0.000000 0.000000
vn 0.000000 1.000000 0.000000
vn 0.000000 1.000000 0.000000
vn 0.000000 1.000000 0.000000
vn 0.000000 1.000000 0.000000
vn 1.000000 0.000000 0.000000
vn 1.000000 0.000000 0.000000
vn 1.000000 0.000000 0.000000
vn 1.000000 0.000000 0.000000
vn 0.000000 -1.000000 -0.000000
vn 0.000000 -1.000000 -0.000000
vn 0.000000 -1.000000 -0.000000
vn 0.000000 -1.000000 -0.000000
vn 0.000000 -0.000000 1.000000
vn 0.000000 -0.000000 1.000000
vn 0.000000 -0.000000 1.000000
vn 0.000000 -0.000000 1.000000
vn 0.000000 1.000000 0.000000
vn 0.000000 1.000000 0.000000
vn 0.000000 1.000000 0.000000
vn 0.000000 1.000000 0.000000
vn 0.000000 0.000000 -1.000000
vn 0.000000 0.000000 -1.000000
vn 0.000000 0.000000 -1.000000
vn 0.000000 0.000000 -1.000000
vn 0.000000 -1.000000 -0.000000
vn 0.000000 -1.000000 -0.000000
vn 0.000000 -1.000000 -0.000000
vn 0.000000 -1.000000 -0.000000
vn 1.000000 0.000000 0.000000
vn 1.000000 0.000000 0.000000
vn 1.000000 0.000000 0.000000
vn 1.000000 0.000000 0.000000
vn 0.000000 -1.000000 -0.000000
vn 0.000000 -1.000000 -0.000000
vn 0.000000 -1.000000 -0.000000
vn 0.000000 -1.000000 -0.000000
vn -1.000000 0.000000 0.000000
vn -1.000000 0.000000 0.000000
vn -1.000000 0.000000 0.000000
vn -1.000000 0.000000 0.000000
vn 0.000000 1.000000 0.000000
vn 0.000000 1.000000 0.000000
vn 0.000000 1.000000 0.000000
vn 0.000000 1.000000 0.000000
vn -1.000000 0.000000 0.000000
vn -1.000000 0.000000 0.000000
vn -1.000000 0.000000 0.000000
vn -1.000000 0.000000 0.000000
vn 0.000000 1.000000 0.000000
vn 0.000000 1.000000 0.000000
vn 0.000000 1.000000 0.000000
vn 0.000000 1.000000 0.000000
vn 1.000000 0.000000 0.000000
vn 1.000000 0.000000 0.000000
vn 1.000000 0.000000 0.000000
vn 1.000000 0.000000 0.000000
vn 0.000000 -1.000000 -0.000000
vn 0.000000 -1.000000 -0.000000
vn 0.000000 -1.000000 -0.000000
vn 0.000000 -1.000000 -0.000000
vn 0.000000 -0.000000 1.000000
vn 0.000000 -0.000000 1.000000
vn 0.000000 -0.000000 1.000000
vn 0.000000 -0.000000 1.000000
vn 0.000000 1.000000 0.000000
vn 0.000000 1.000000 0.000000
vn 0.000000 1.000000 0.000000
vn 0.000000 1.000000 0.000000
vn 0.000000 0.000000 -1.000000
vn 0.000000 0.000000 -1.000000
vn 0.000000 0.000000 -1.000000
vn 0.000000 0.000000 -1.000000
vn 0.000000 -1.000000 -0.000000
vn 0.000000 -1.000000 -0.000000
vn 0.000000 -1.000000 -0.000000
vn 0.000000 -1.000000 -0.000000
vn 1.000000 0.000000 0.000000
vn 1.000000 0.000000 0.000000
vn 1.000000 0.000000 0.000000
vn 1.000000 0.000000 0.000000
vn 0.000000 -1.000000 -0.000000
vn 0.000000 -1.000000 -0.000000
vn 0.000000 -1.000000 -0.000000
vn 0.000000 -1.000000 -0.000000
vn -1.000000 0.000000 0.000000
vn -1.000000 0.000000 0.000000
vn -1.000000 0.000000 0.000000
vn -1.000000 0.000000 0.000000
vn 0.000000 1.000000 0.000000
vn 0.000000 1.000000 0.000000
vn 0.000000 1.000000 0.000000
vn 0.000000 1.000000 0.000000
vn -1.000000 0.000000 0.000000
vn -1.000000 0.000000 0.000000
vn -1.000000 0.000000 0.000000
vn -1.000000 0.000000 0.000000
vn 0.000000 1.000000 0.000000
vn 0.000000 1.000000 0.000000
vn 0.000000 1.000000 0.000000
vn 0.000000 1.000000 0.000000
vn 1.000000 0.000000 0.000000
vn 1.000000 0.000000 0.000000
vn 1.000000 0.000000 0.000000
vn 1.000000 0.000000 0.000000
vn 0.000000 -1.000000 -0.000000
vn 0.000000 -1.000000 -0.000000
vn 0.000000 -1.000000 -0.000000
vn 0.000000 -1.000000 -0.000000
vn 0.000000 -0.000000 1.000000
vn 0.000000 -0.000000 1.000000
vn 0.000000 -0.000000 1.000000
vn 0.000000 -0.000000 1.000000
vn 0.000000 1.000000 0.000000
vn 0.000000 1.000000 0.000000
vn 0.000000 1.000000 0.000000
vn 0.000000 1.000000 0.000000
vn 0.000000 0.000000 -1.000000
vn 0.000000 0.000000 -1.000000
vn 0.000000 0.000000 -1.000000
vn 0.000000 0.000000 -1.000000
vn 0.000000 -1.000000 -0.000000
vn 0.000000 -1.000000 -0.000000
vn 0.000000 -1.000000 -0.000000
vn 0.000000 -1.000000 -0.000000
vn 1.000000 0.000000 0.000000
vn 1.000000 0.000000 0.000000
vn 1.000000 0.000000 0.000000
vn 1.000000 0.000000 0.000000
vn 0.000000 -1.000000 -0.000000
vn 0.000000 -1.000000 -0.000000
vn 0.000000 -1.000000 -0.000000
vn 0.000000 -1.000000 -0.000000
vn -1.000000 0.000000 0.000000
vn -1.000000 0.000000 0.000000
vn -1.000000 0.000000 0.000000
vn -1.000000 0.000000 0.000000
vn 0.000000 1.000000 0.000000
vn 0.000000 1.000000 0.000000
vn 0.000000 1.000000 0.000000
vn 0.000000 1.000000 0.000000
vn -1.000000 0.000000 0.000000
vn -1.000000 0.000000 0.000000
vn -1.000000 0.000000 0.000000
vn -1.000000 0.000000 0.000000
vn 0.000000 1.000000 0.000000
vn 0.000000 1.000000 0.000000
vn 0.000000 1.000000 0.000000
vn 0.000000 1.000000 0.000000
vn 1.000000 0.000000 0.000000
vn 1.000000 0.000000 0.000000
vn 1.000000 0.000000 0.000000
vn 1.000000 0.000000 0.000000
vn 0.000000 -1.000000 -0.000000
vn 0.000000 -1.000000 -0.000000
vn 0.000000 -1.000000 -0.000000
vn 0.000000 -1.000000 -0.000000
vn 0.000000 -0.000000 1.000000
vn 0.000000 -0.000000 1.000000
vn 0.000000 -0.000000 1.000000
vn 0.000000 -0.000000 1.000000
vn 0.000000 1.000000 0.000000
vn 0.000000 1.000000 0.000000
vn 0.000000 1.000000 0.000000
vn 0.000000 1.000000 0.000000
vn 0.000000 0.000000 -1.000000
vn 0.000000 0.000000 -1.000000
vn 0.000000 0.000000 -1.000000
vn 0.000000 0.000000 -1.000000
vn 0.000000 -1.000000 -0.000000
vn 0.000000 -1.000000 -0.000000
vn 0.000000 -1.000000 -0.000000
vn 0.000000 -1.000000 -0.000000
vn 1.000000 0.000000 0.000000
vn 1.000000 0.000000 0.000000
vn 1.000000 0.000000 0.000000
vn 1.000000 0.000000 0.000000
vn 0.000000 -1.000000 -0.000000
vn 0.000000 -1.000000 -0.000000
vn 0.000000 -1.000000 -0.000000
vn 0.000000 -1.000000 -0.000000
vn -1.000000 0.000000 0.000000
vn -1.000000 0.000000 0.000000
vn -1.000000 0.000000 0.000000
vn -1.000000 0.000000 0.000000
vn 0.000000 1.000000 0.000000
vn 0.000000 1.000000 0.000000
vn 0.000000 1.000000 0.000000
vn 0.000000 1.000000 0.000000
vn -1.000000 0.000000 0.000000
vn -1.000000 0.000000 0.000000
vn -1.000000 0.000000 0.000000
vn -1.000000 0.000000 0.000000
vn 0.000000 1.000000 0.000000
vn 0.000000 1.000000 0.000000
vn 0.000000 1.000000 0.000000
vn 0.000000 1.000000 0.000000
vn 1.000000 0.000000 0.000000
vn 1.000000 0.000000 0.000000
vn 1.000000 0.000000 0.000000
vn 1.000000 0.000000 0.000000
vn 0.000000 -1.000000 -0.000000
vn 0.000000 -1.000000 -0.000000
vn 0.000000 -1.000000 -0.000000
vn 0.000000 -1.000000 -0.000000
vn -1.000000 0.000000 0.000000
vn -1.000000 0.000000 0.000000
vn -1.000000 0.000000 0.000000
vn -1.000000 0.000000 0.000000
vn 1.000000 0.000000 0.000000
vn 1.000000 0.000000 0.000000
vn 1.000000 0.000000 0.000000
vn 1.000000 0.000000 0.000000
vn 0.000000 0.000000 -1.000000
vn 0.000000 0.000000 -1.000000
vn 0.000000 0.000000 -1.000000
vn 0.000000 0.000000 -1.000000
vn 0.000000 -0.000000 1.000000
vn 0.000000 -0.000000 1.000000
vn 0.000000 -0.000000 1.000000
vn 0.000000 -0.000000 1.000000
vn 0.000000 -0.000000 1.000000
vn 0.000000 -0.000000 1.000000
vn 0.000000 -0.000000 1.000000
vn 0.000000 -0.000000 1.000000
vn 0.000000 1.000000 0.000000
vn 0.000000 1.000000 0.000000
vn 0.000000 1.000000 0.000000
vn 0.000000 1.000000 0.000000
vn 0.000000 0.000000 -1.000000
vn 0.000000 0.000000 -1.000000
vn 0.000000 0.000000 -1.000000
vn 0.000000 0.000000 -1.000000
vn 0.000000 -1.000000 -0.000000
vn 0.000000 -1.000000 -0.000000
vn 0.000000 -1.000000 -0.000000
vn 0.000000 -1.000000 -0.000000
vn 1.000000 0.000000 0.000000
vn 1.000000 0.000000 0.000000
vn 1.000000 0.000000 0.000000
vn 1.000000 0.000000 0.000000
vn 0.000000 -1.000000 -0.000000
vn 0.000000 -1.000000 -0.000000
vn 0.000000 -1.000000 -0.000000
vn 0.000000 -1.000000 -0.000000
vn -1.000000 0.000000 0.000000
vn -1.000000 0.000000 0.000000
vn -1.000000 0.000000 0.000000
vn -1.000000 0.000000 0.000000
vn 0.000000 1.000000 0.000000
vn 0.000000 1.000000 0.000000
vn 0.000000 1.000000 0.000000
vn 0.000000 1.000000 0.000000
vn -1.000000 0.000000 0.000000
vn -1.000000 0.000000 0.000000
vn -1.000000 0.000000 0.000000
vn -1.000000 0.000000 0.000000
vn 0.000000 1.000000 0.000000
vn 0.000000 1.000000 0.000000
vn 0.000000 1.000000 0.000000
vn 0.000000 1.000000 0.000000
vn 1.000000 0.000000 0.000000
vn 1.000000 0.000000 0.000000
vn 1.000000 0.000000 0.000000
vn 1.000000 0.000000 0.000000
vn 0.000000 -1.000000 -0.000000
vn 0.000000 -1.000000 -0.000000
vn 0.000000 -1.000000 -0.000000
vn 0.000000 -1.000000 -0.000000
vn 1.000000 0.000000 0.000000
vn 1.000000 0.000000 0.000000
vn 1.000000 0.000000 0.000000
vn 1.000000 0.000000 0.000000
vn -1.000000 0.000000 0.000000
vn -1.000000 0.000000 0.000000
vn -1.000000 0.000000 0.000000
vn -1.000000 0.000000 0.000000
vn 0.000000 0.000000 -1.000000
vn 0.000000 0.000000 -1.000000
vn 0.000000 0.000000 -1.000000
vn 0.000000 0.000000 -1.000000
vn 0.000000 -0.000000 1.000000
vn 0.000000 -0.000000 1.000000
vn 0.000000 -0.000000 1.000000
vn 0.000000 -0.000000 1.000000
vn 1.000000 0.000000 0.000000
vn 1.000000 0.000000 0.000000
vn 1.000000 0.000000 0.000000
vn 1.000000 0.000000 0.000000
vn -1.000000 0.000000 0.000000
vn -1.000000 0.000000 0.000000
vn -1.000000 0.000000 0.000000
vn -1.000000 0.000000 0.000000
vn 0.000000 0.000000 -1.000000
vn 0.000000 0.000000 -1.000000
vn 0.000000 0.000000 -1.000000
vn 0.000000 0.000000 -1.000000
vn 0.000000 -0.000000 1.000000
vn 0.000000 -0.000000 1.000000
vn 0.000000 -0.000000 1.000000
vn 0.000000 -0.000000 1.000000
vn -1.000000 0.000000 0.000000
vn -1.000000 0.000000 0.000000
vn -1.000000 0.000000 0.000000
vn -1.000000 0.000000 0.000000
vn 1.000000 0.000000 0.000000
vn 1.000000 0.000000 0.000000
vn 1.000000 0.000000 0.000000
vn 1.000000 0.000000 0.000000
vn 0.000000 0.000000 -1.000000
vn 0.000000 0.000000 -1.000000
vn 0.000000 0.000000 -1.000000
vn 0.000000 0.000000 -1.000000
vn 0.000000 -0.000000 1.000000
vn 0.000000 -0.000000 1.000000
vn 0.000000 -0.000000 1.000000
vn 0.000000 -0.000000 1.000000
vn 0.000000 -1.000000 -0.000000
vn 0.000000 -1.000000 -0.000000
vn 0.000000 -1.000000 -0.000000
vn 0.000000 -1.000000 -0.000000
vn 0.000000 -1.000000 -0.000000
vn 0.000000 -1.000000 -0.000000
vn 0.000000 -1.000000 -0.000000
vn 0.000000 -1.000000 -0.000000
vn 0.000000 -1.000000 -0.000000
vn 0.000000 -1.000000 -0.000000
vn 0.000000 -1.000000 -0.000000
vn 0.000000 -1.000000 -0.000000
vn 0.000000 -1.000000 -0.000000
vn 0.000000 -1.000000 -0.000000
vn 0.000000 -1.000000 -0.000000
vn 0.000000 -1.000000 -0.000000
vn 0.000000 -1.000000 -0.000000
vn 0.000000 -1.000000 -0.000000
vn 0.000000 -1.000000 -0.000000
vn 0.000000 -1.000000 -0.000000
vn 0.000000 -1.000000 -0.000000
vn 0.000000 -1.000000 -0.000000
vn 0.000000 1.000000 0.000000
vn 0.000000 1.000000 0.000000
vn 0.000000 1.000000 0.000000
vn 0.000000 1.000000 0.000000
vn 0.000000 1.000000 0.000000
vn 0.000000 1.000000 0.000000
vn 0.000000 1.000000 0.000000
vn 0.000000 1.000000 0.000000
vn 0.000000 1.000000 0.000000
vn 0.000000 1.000000 0.000000
vn 0.000000 1.000000 0.000000
vn 0.000000 1.000000 0.000000
vn 0.000000 1.000000 0.000000
vn 0.000000 1.000000 0.000000
vn 0.000000 1.000000 0.000000
vn 0.000000 1.000000 0.000000
vn 0.000000 1.000000 0.000000
vn 0.000000 1.000000 0.000000
vn 0.000000 1.000000 0.000000
vn 0.000000 1.000000 0.000000
vn 0.000000 1.000000 0.000000
vn 0.000000 1.000000 0.000000
vn 0.196090 -0.000000 0.980586
vn -0.130437 -0.000000 0.991457
vn 0.196090 -0.000000 0.980586
vn -0.503392 -0.000000 0.864058
vn -0.260875 -0.000000 0.965373
vn -0.615262 -0.000000 0.788323
vn -0.714214 -0.000000 0.699927
vn -0.714214 -0.000000 0.699927
vn 0.196090 -0.000000 0.980586
vn 0.560607 -0.000000 0.828082
vn 0.560608 -0.000000 0.828082
vn 0.714214 -0.000000 0.699927
vn 0.714214 -0.000000 0.699927
vn -0.699557 0.000000 -0.714576
vn -0.603141 0.000000 -0.797635
vn -0.699557 0.000000 -0.714576
vn -0.495111 0.000000 -0.868830
vn -0.194070 0.000000 -0.980988
vn -0.194070 0.000000 -0.980988
vn -0.194070 0.000000 -0.980988
vn 0.194070 0.000000 -0.980988
vn 0.194070 0.000000 -0.980988
vn 0.495111 0.000000 -0.868830
vn 0.194070 0.000000 -0.980988
vn 0.603141 0.000000 -0.797635
vn 0.699557 0.000000 -0.714576
vn 0.699557 0.000000 -0.714576
f 3/3/3 2/2/2 1/1/1
f 6/6/6 5/5/5 4/4/4
f 8/8/8 7/7/7 5/5/5
f 11/11/11 10/10/10 9/9/9
f 13/13/13 12/12/12 9/9/9
f 14/14/14 13/13/13 9/9/9
f 15/15/15 13/13/13 14/14/14
f 16/16/16 15/15/15 14/14/14
f 19/19/19 18/18/18 17/17/17
f 21/21/21 17/17/17 20/20/20
f 20/20/20 17/17/17 22/22/22
f 23/23/23 22/22/22 17/17/17
f 24/24/24 22/22/22 23/23/23
f 24/24/24 23/23/23 25/25/25
f 28/28/28 27/27/27 26/26/26
f 27/27/27 30/30/30 29/29/29
f 32/32/32 29/29/29 31/31/31
f 35/35/35 34/34/34 33/33/33
f 38/38/38 37/37/37 36/36/36
f 41/41/41 40/40/40 39/39/39
f 44/44/44 43/43/43 42/42/42
f 46/46/46 43/43/43 45/45/45
f 49/49/49 48/48/48 47/47/47
f 51/51/51 50/50/50 49/49/49
f 51/51/51 52/52/52 50/50/50
f 49/49/49 53/53/53 51/51/51
f 53/53/53 54/54/54 51/51/51
f 54/54/54 53/53/53 55/55/55
f 56/56/56 55/55/55 53/53/53
f 56/56/56 53/53/53 57/57/57
f 54/54/54 55/55/55 58/58/58
f 59/59/59 58/58/58 55/55/55
f 58/58/58 60/60/60 54/54/54
f 61/61/61 59/59/59 55/55/55
f 54/54/54 60/60/60 62/62/62
f 61/61/61 63/63/63 59/59/59
f 64/64/64 63/63/63 61/61/61
f 59/59/59 63/63/63 65/65/65
f 63/63/63 66/66/66 65/65/65
f 65/65/65 67/67/67 60/60/60
f 60/60/60 67/67/67 68/68/68
f 68/68/68 62/62/62 60/60/60
f 67/67/67 66/66/66 69/69/69
f 68/68/68 70/70/70 62/62/62
f 62/62/62 70/70/70 71/71/71
f 72/72/72 71/71/71 70/70/70
f 73/73/73 70/70/70 68/68/68
f 73/73/73 74/74/74 70/70/70
f 69/69/69 75/75/75 73/73/73
f 75/75/75 69/69/69 66/66/66
f 76/76/76 75/75/75 66/66/66
f 77/77/77 76/76/76 66/66/66
f 75/75/75 78/78/78 73/73/73
f 74/74/74 73/73/73 78/78/78
f 79/79/79 74/74/74 78/78/78
f 74/74/74 79/79/79 80/80/80
f 81/81/81 79/79/79 78/78/78
f 82/82/82 81/81/81 78/78/78
f 80/80/80 79/79/79 83/83/83
f 84/84/84 72/72/72 80/80/80
f 84/84/84 80/80/80 83/83/83
f 85/85/85 72/72/72 84/84/84
f 86/86/86 84/84/84 83/83/83
f 89/89/89 88/88/88 87/87/87
f 92/92/92 91/91/91 90/90/90
f 95/95/95 94/94/94 93/93/93
f 97/97/97 96/96/96 94/94/94
f 94/94/94 96/96/96 98/98/98
f 101/101/101 100/100/100 99/99/99
f 103/103/103 99/99/99 102/102/102
f 103/103/103 104/104/104 99/99/99
f 99/99/99 104/104/104 105/105/105
f 106/106/106 105/105/105 104/104/104
f 107/107/107 105/105/105 106/106/106
f 107/107/107 108/108/108 105/105/105
f 109/109/109 105/105/105 108/108/108
f 110/110/110 105/105/105 109/109/109
f 111/111/111 110/110/110 109/109/109
f 113/113/113 112/112/112 108/108/108
f 115/115/115 102/102/102 114/114/114
f 116/116/116 115/115/115 114/114/114
f 119/119/119 118/118/118 117/117/117
f 118/118/118 121/121/121 120/120/120
f 124/124/124 123/123/123 122/122/122
f 126/126/126 122/122/122 125/125/125
f 126/126/126 127/127/127 122/122/122
f 129/129/129 125/125/125 128/128/128
f 130/130/130 129/129/129 128/128/128
f 132/132/132 131/131/131 127/127/127
f 133/133/133 131/131/131 132/132/132
f 133/133/133 134/134/134 131/131/131
f 135/135/135 131/131/131 134/134/134
f 136/136/136 135/135/135 134/134/134
f 137/137/137 131/131/131 135/135/135
f 139/139/139 137/137/137 138/138/138
f 142/142/142 141/141/141 140/140/140
f 144/144/144 143/143/143 141/141/141
f 141/141/141 143/143/143 145/145/145
f 145/145/145 147/147/147 146/146/146
f 149/149/149 146/146/146 148/148/148
f 152/152/152 151/151/151 150/150/150
f 155/155/155 154/154/154 153/153/153
f 154/154/154 157/157/157 156/156/156
f 156/156/156 157/157/157 158/158/158
f 159/159/159 156/156/156 158/158/158
f 157/157/157 160/160/160 158/158/158
f 160/160/160 157/157/157 161/161/161
f 163/163/163 161/161/161 162/162/162
f 163/163/163 162/162/162 164/164/164
f 165/165/165 164/164/164 162/162/162
f 166/166/166 165/165/165 162/162/162
f 167/167/167 165/165/165 166/166/166
f 168/168/168 167/167/167 166/166/166
f 170/170/170 169/169/169 162/162/162
f 173/173/173 172/172/172 171/171/171
f 172/172/172 175/175/175 174/174/174
f 177/177/177 176/176/176 175/175/175
f 179/179/179 177/177/177 178/178/178
f 182/182/182 181/181/181 180/180/180
f 185/185/185 184/184/184 183/183/183
f 186/186/186 183/183/183 184/184/184
f 189/189/189 188/188/188 187/187/187
f 187/187/187 188/188/188 190/190/190
f 193/193/193 192/192/192 191/191/191
f 191/191/191 192/192/192 194/194/194
f 197/197/197 196/196/196 195/195/195
f 195/195/195 196/196/196 198/198/198
f 201/201/201 200/200/200 199/199/199
f 199/199/199 200/200/200 202/202/202
f 205/205/205 204/204/204 203/203/203
f 203/203/203 204/204/204 206/206/206
f 209/209/209 208/208/208 207/207/207
f 207/207/207 208/208/208 210/210/210
f 213/213/213 212/212/212 211/211/211
f 211/211/211 212/212/212 214/214/214
f 217/217/217 216/216/216 215/215/215
f 215/215/215 216/216/216 218/218/218
f 221/221/221 220/220/220 219/219/219
f 219/219/219 220/220/220 222/222/222
f 225/225/225 224/224/224 223/223/223
f 223/223/223 224/224/224 226/226/226
f 229/229/229 228/228/228 227/227/227
f 227/227/227 228/228/228 230/230/230
f 233/233/233 232/232/232 231/231/231
f 231/231/231 232/232/232 234/234/234
f 237/237/237 236/236/236 235/235/235
f 235/235/235 236/236/236 238/238/238
f 241/241/241 240/240/240 239/239/239
f 239/239/239 240/240/240 242/242/242
f 245/245/245 244/244/244 243/243/243
f 243/243/243 244/244/244 246/246/246
f 249/249/249 248/248/248 247/247/247
f 247/247/247 248/248/248 250/250/250
f 253/253/253 252/252/252 251/251/251
f 251/251/251 252/252/252 254/254/254
f 257/257/257 256/256/256 255/255/255
f 255/255/255 256/256/256 258/258/258
f 261/261/261 260/260/260 259/259/259
f 259/259/259 260/260/260 262/262/262
f 265/265/265 264/264/264 263/263/263
f 263/263/263 264/264/264 266/266/266
f 264/264/264 267/267/267 266/266/266
f 268/268/268 267/267/267 264/264/264
f 271/271/271 270/270/270 269/269/269
f 269/269/269 270/270/270 272/272/272
f 275/275/275 274/274/274 273/273/273
f 273/273/273 274/274/274 276/276/276
f 279/279/279 278/278/278 277/277/277
f 277/277/277 278/278/278 280/280/280
f 283/283/283 282/282/282 281/281/281
f 281/281/281 282/282/282 284/284/284
f 287/287/287 286/286/286 285/285/285
f 285/285/285 286/286/286 288/288/288
f 291/291/291 290/290/290 289/289/289
f 289/289/289 290/290/290 292/292/292
f 295/295/295 294/294/294 293/293/293
f 293/293/293 294/294/294 296/296/296
f 299/299/299 298/298/298 297/297/297
f 297/297/297 298/298/298 300/300/300
f 303/303/303 302/302/302 301/301/301
f 301/301/301 302/302/302 304/304/304
f 301/301/301 304/304/304 305/305/305
f 305/305/305 304/304/304 306/306/306
f 309/309/309 308/308/308 307/307/307
f 307/307/307 308/308/308 310/310/310
f 313/313/313 312/312/312 311/311/311
f 311/311/311 312/312/312 314/314/314
f 311/311/311 314/314/314 315/315/315
f 315/315/315 314/314/314 316/316/316
f 319/319/319 318/318/318 317/317/317
f 317/317/317 318/318/318 320/320/320
f 317/317/317 320/320/320 321/321/321
f 321/321/321 320/320/320 322/322/322
f 325/325/325 324/324/324 323/323/323
f 323/323/323 324/324/324 326/326/326
f 329/329/329 328/328/328 327/327/327
f 327/327/327 328/328/328 330/330/330
f 333/333/333 332/332/332 331/331/331
f 331/331/331 332/332/332 334/334/334
f 337/337/337 336/336/336 335/335/335
f 335/335/335 336/336/336 338/338/338
f 341/341/341 340/340/340 339/339/339
f 339/339/339 340/340/340 342/342/342
f 345/345/345 344/344/344 343/343/343
f 343/343/343 344/344/344 346/346/346
f 349/349/349 348/348/348 347/347/347
f 347/347/347 348/348/348 350/350/350
f 353/353/353 352/352/352 351/351/351
f 351/351/351 352/352/352 354/354/354
f 357/357/357 356/356/356 355/355/355
f 355/355/355 356/356/356 358/358/358
f 361/361/361 360/360/360 359/359/359
f 359/359/359 360/360/360 362/362/362
f 365/365/365 364/364/364 363/363/363
f 363/363/363 364/364/364 366/366/366
f 369/369/369 368/368/368 367/367/367
f 367/367/367 368/368/368 370/370/370
f 373/373/373 372/372/372 371/371/371
f 371/371/371 372/372/372 374/374/374
f 377/377/377 376/376/376 375/375/375
f 375/375/375 376/376/376 378/378/378
f 381/381/381 380/380/380 379/379/379
f 379/379/379 380/380/380 382/382/382
f 385/385/385 384/384/384 383/383/383
f 383/383/383 384/384/384 386/386/386
f 389/389/389 388/388/388 387/387/387
f 387/387/387 388/388/388 390/390/390
f 393/393/393 392/392/392 391/391/391
f 391/391/391 392/392/392 394/394/394
f 397/397/397 396/396/396 395/395/395
f 395/395/395 396/396/396 398/398/398
f 401/401/401 400/400/400 399/399/399
f 399/399/399 400/400/400 402/402/402
f 405/405/405 404/404/404 403/403/403
f 403/403/403 404/404/404 406/406/406
f 409/409/409 408/408/408 407/407/407
f 407/407/407 408/408/408 410/410/410
f 413/413/413 412/412/412 411/411/411
f 411/411/411 412/412/412 414/414/414
f 417/417/417 416/416/416 415/415/415
f 415/415/415 416/416/416 418/418/418
f 421/421/421 420/420/420 419/419/419
f 419/419/419 420/420/420 422/422/422
f 425/425/425 424/424/424 423/423/423
f 423/423/423 424/424/424 426/426/426
f 429/429/429 428/428/428 427/427/427
f 427/427/427 428/428/428 430/430/430
f 433/433/433 432/432/432 431/431/431
f 431/431/431 432/432/432 434/434/434
f 437/437/437 436/436/436 435/435/435
f 435/435/435 436/436/436 438/438/438
f 441/441/441 440/440/440 439/439/439
f 439/439/439 440/440/440 442/442/442
f 445/445/445 444/444/444 443/443/443
f 443/443/443 444/444/444 446/446/446
f 449/449/449 448/448/448 447/447/447
f 447/447/447 448/448/448 450/450/450
f 453/453/453 452/452/452 451/451/451
f 451/451/451 452/452/452 454/454/454
f 457/457/457 456/456/456 455/455/455
f 455/455/455 456/456/456 458/458/458
f 461/461/461 460/460/460 459/459/459
f 459/459/459 460/460/460 462/462/462
f 465/465/465 464/464/464 463/463/463
f 463/463/463 464/464/464 466/466/466
f 469/469/469 468/468/468 467/467/467
f 467/467/467 468/468/468 470/470/470
f 473/473/473 472/472/472 471/471/471
f 471/471/471 472/472/472 474/474/474
f 477/477/477 476/476/476 475/475/475
f 475/475/475 476/476/476 478/478/478
f 481/481/481 480/480/480 479/479/479
f 479/479/479 480/480/480 482/482/482
f 485/485/485 484/484/484 483/483/483
f 483/483/483 484/484/484 486/486/486
f 489/489/489 488/488/488 487/487/487
f 487/487/487 488/488/488 490/490/490
f 493/493/493 492/492/492 491/491/491
f 491/491/491 492/492/492 494/494/494
f 497/497/497 496/496/496 495/495/495
f 495/495/495 496/496/496 498/498/498
f 501/501/501 500/500/500 499/499/499
f 499/499/499 500/500/500 502/502/502
f 505/505/505 504/504/504 503/503/503
f 503/503/503 504/504/504 506/506/506
f 509/509/509 508/508/508 507/507/507
f 507/507/507 508/508/508 510/510/510
f 513/513/513 512/512/512 511/511/511
f 511/511/511 512/512/512 514/514/514
f 517/517/517 516/516/516 515/515/515
f 515/515/515 516/516/516 518/518/518
f 521/521/521 520/520/520 519/519/519
f 519/519/519 520/520/520 522/522/522
f 525/525/525 524/524/524 523/523/523
f 523/523/523 524/524/524 526/526/526
f 529/529/529 528/528/528 527/527/527
f 527/527/527 528/528/528 530/530/530
f 533/533/533 532/532/532 531/531/531
f 531/531/531 532/532/532 534/534/534
f 537/537/537 536/536/536 535/535/535
f 535/535/535 536/536/536 538/538/538
f 541/541/541 540/540/540 539/539/539
f 539/539/539 540/540/540 542/542/542
f 545/545/545 544/544/544 543/543/543
f 543/543/543 544/544/544 546/546/546
f 549/549/549 548/548/548 547/547/547
f 547/547/547 548/548/548 550/550/550
f 553/553/553 552/552/552 551/551/551
f 551/551/551 552/552/552 554/554/554
f 557/557/557 556/556/556 555/555/555
f 555/555/555 556/556/556 558/558/558
f 561/561/561 560/560/560 559/559/559
f 559/559/559 560/560/560 562/562/562
f 565/565/565 564/564/564 563/563/563
f 563/563/563 564/564/564 566/566/566
f 569/569/569 568/568/568 567/567/567
f 567/567/567 568/568/568 570/570/570
f 573/573/573 572/572/572 571/571/571
f 571/571/571 572/572/572 574/574/574
f 577/577/577 576/576/576 575/575/575
f 575/575/575 576/576/576 578/578/578
f 581/581/581 580/580/580 579/579/579
f 579/579/579 580/580/580 582/582/582
f 585/585/585 584/584/584 583/583/583
f 583/583/583 584/584/584 586/586/586
f 589/589/589 588/588/588 587/587/587
f 587/587/587 588/588/588 590/590/590
f 593/593/593 592/592/592 591/591/591
f 591/591/591 592/592/592 594/594/594
f 597/597/597 596/596/596 595/595/595
f 595/595/595 596/596/596 598/598/598
f 601/601/601 600/600/600 599/599/599
f 599/599/599 600/600/600 602/602/602
f 605/605/605 604/604/604 603/603/603
f 603/603/603 604/604/604 606/606/606
f 609/609/609 608/608/608 607/607/607
f 607/607/607 608/608/608 610/610/610
f 613/613/613 612/612/612 611/611/611
f 611/611/611 612/612/612 614/614/614
f 617/617/617 616/616/616 615/615/615
f 615/615/615 616/616/616 618/618/618
f 621/621/621 620/620/620 619/619/619
f 619/619/619 620/620/620 622/622/622
f 625/625/625 624/624/624 623/623/623
f 623/623/623 624/624/624 626/626/626
f 629/629/629 628/628/628 627/627/627
f 627/627/627 628/628/628 630/630/630
f 633/633/633 632/632/632 631/631/631
f 631/631/631 632/632/632 634/634/634
f 637/637/637 636/636/636 635/635/635
f 635/635/635 636/636/636 638/638/638
f 641/641/641 640/640/640 639/639/639
f 639/639/639 640/640/640 642/642/642
f 645/645/645 644/644/644 643/643/643
f 643/643/643 644/644/644 646/646/646
f 649/649/649 648/648/648 647/647/647
f 647/647/647 648/648/648 650/650/650
f 653/653/653 652/652/652 651/651/651
f 651/651/651 652/652/652 654/654/654
f 657/657/657 656/656/656 655/655/655
f 655/655/655 656/656/656 658/658/658
f 661/661/661 660/660/660 659/659/659
f 659/659/659 660/660/660 662/662/662
f 665/665/665 664/664/664 663/663/663
f 663/663/663 664/664/664 666/666/666
f 669/669/669 668/668/668 667/667/667
f 667/667/667 668/668/668 670/670/670
f 673/673/673 672/672/672 671/671/671
f 671/671/671 672/672/672 674/674/674
f 677/677/677 676/676/676 675/675/675
f 675/675/675 676/676/676 678/678/678
f 681/681/681 680/680/680 679/679/679
f 679/679/679 680/680/680 682/682/682
f 685/685/685 684/684/684 683/683/683
f 683/683/683 684/684/684 686/686/686
f 689/689/689 688/688/688 687/687/687
f 687/687/687 688/688/688 690/690/690
f 693/693/693 692/692/692 691/691/691
f 691/691/691 692/692/692 694/694/694
f 697/697/697 696/696/696 695/695/695
f 695/695/695 696/696/696 698/698/698
f 701/701/701 700/700/700 699/699/699
f 699/699/699 700/700/700 702/702/702
f 705/705/705 704/704/704 703/703/703
f 703/703/703 704/704/704 706/706/706
f 709/709/709 708/708/708 707/707/707
f 707/707/707 708/708/708 710/710/710
f 713/713/713 712/712/712 711/711/711
f 711/711/711 712/712/712 714/714/714
f 717/717/717 716/716/716 715/715/715
f 715/715/715 716/716/716 718/718/718
f 721/721/721 720/720/720 719/719/719
f 719/719/719 720/720/720 722/722/722
f 725/725/725 724/724/724 723/723/723
f 724/724/724 726/726/726 723/723/723
f 723/723/723 726/726/726 727/727/727
f 726/726/726 728/728/728 727/727/727
f 727/727/727 728/728/728 729/729/729
f 732/732/732 731/731/731 730/730/730
f 733/733/733 732/732/732 730/730/730
f 730/730/730 734/734/734 733/733/733
f 735/735/735 734/734/734 730/730/730
f 735/735/735 736/736/736 734/734/734
f 734/734/734 736/736/736 737/737/737
f 736/736/736 738/738/738 737/737/737
f 741/741/741 740/740/740 739/739/739
f 740/740/740 742/742/742 739/739/739
f 740/740/740 743/743/743 742/742/742
f 743/743/743 744/744/744 742/742/742
f 747/747/747 746/746/746 745/745/745
f 745/745/745 746/746/746 748/748/748
f 751/751/751 750/750/750 749/749/749
f 749/749/749 750/750/750 752/752/752
f 755/755/755 754/754/754 753/753/753
f 753/753/753 756/756/756 755/755/755
f 757/757/757 755/755/755 756/756/756
f 758/758/758 757/757/757 756/756/756
f 759/759/759 757/757/757 758/758/758
f 762/762/762 761/761/761 760/760/760
f 762/762/762 763/763/763 761/761/761
f 763/763/763 764/764/764 761/761/761
f 763/763/763 765/765/765 764/764/764
f 766/766/766 764/764/764 765/765/765
f 769/769/769 768/768/768 767/767/767
f 768/768/768 771/771/771 770/770/770
f 770/770/770 771/771/771 772/772/772
f 770/770/770 772/772/772 773/773/773
f 773/773/773 772/772/772 774/774/774
f 776/776/776 769/769/769 775/775/775
f 777/777/777 769/769/769 776/776/776
f 777/777/777 776/776/776 778/778/778
f 778/778/778 776/776/776 779/779/779
f 782/782/782 781/781/781 780/780/780
f 783/783/783 781/781/781 782/782/782
f 783/783/783 784/784/784 781/781/781
f 785/785/785 784/784/784 783/783/783
f 785/785/785 787/787/787 786/786/786
f 786/786/786 787/787/787 788/788/788
f 788/788/788 790/790/790 789/789/789
f 789/789/789 790/790/790 791/791/791
f 789/789/789 791/791/791 792/792/792
f 792/792/792 791/791/791 793/793/793
