g Model_0
v 1.249999 -0.883883 0.228012
v 1.250000 -1.207407 0.788372
v 1.250001 -1.207407 1.435419
v 1.250001 -0.883883 1.995779
v 1.249999 -0.323523 -0.095512
v 1.250001 -0.323524 2.319303
v 1.250001 0.323523 2.319303
v 1.249999 0.323524 -0.095511
v 1.250001 0.883883 1.995780
v 1.249999 0.883884 0.228012
v 1.250000 1.207407 1.435420
v 1.249999 1.207408 0.788372
v -1.249999 -0.883884 1.995781
v -1.250000 -1.207408 1.435421
v -1.250000 -1.207407 0.788374
v -1.250001 -0.883883 0.228014
v -1.249999 -0.323525 2.319305
v -1.250001 -0.323524 -0.095509
v -1.249999 0.323523 2.319306
v -1.250001 0.323524 -0.095509
v -1.250000 0.883882 1.995782
v -1.250001 0.883883 0.228015
v -1.250000 1.207407 1.435422
v -1.250001 1.207407 0.788374
v -1.250000 0.883882 1.995782
v 1.250000 1.207407 1.435420
v 1.250001 0.883883 1.995780
v -1.250000 1.207407 1.435422
v -1.249999 0.323523 2.319306
v 1.249999 1.207408 0.788372
v 1.250001 0.323523 2.319303
v -1.250001 1.207407 0.788374
v -1.249999 -0.323525 2.319305
v 1.249999 0.883884 0.228012
v 1.250001 -0.323524 2.319303
v -1.250001 0.883883 0.228015
v -1.249999 -0.883884 1.995781
v 1.249999 0.323524 -0.095511
v 1.250001 -0.883883 1.995779
v -1.250001 0.323524 -0.095509
v -1.250000 -1.207408 1.435421
v 1.249999 -0.323523 -0.095512
v 1.250001 -1.207407 1.435419
v -1.250001 -0.323524 -0.095509
v -1.250000 -1.207407 0.788374
v 1.249999 -0.883883 0.228012
v 1.250000 -1.207407 0.788372
v -1.250001 -0.883883 0.228014
vt 0 0
vt 0 0
vt 0 0
vt 0 0
vt 0 0
vt 0 0
vt 0 0
vt 0 0
vt 0 0
vt 0 0
vt 0 0
vt 0 0
vt 0 0
vt 0 0
vt 0 0
vt 0 0
vt 0 0
vt 0 0
vt 0 0
vt 0 0
vt 0 0
vt 0 0
vt 0 0
vt 0 0
vt 0 0
vt 0 0
vt 0 0
vt 0 0
vt 0 0
vt 0 0
vt 0 0
vt 0 0
vt 0 0
vt 0 0
vt 0 0
vt 0 0
vt 0 0
vt 0 0
vt 0 0
vt 0 0
vt 0 0
vt 0 0
vt 0 0
vt 0 0
vt 0 0
vt 0 0
vt 0 0
vt 0 0
vn 1.000000 0.000000 0.000000
vn 1.000000 0.000000 0.000000
vn 1.000000 0.000000 0.000000
vn 1.000000 0.000000 0.000000
vn 1.000000 0.000000 0.000000
vn 1.000000 0.000000 0.000000
vn 1.000000 0.000000 0.000000
vn 1.000000 0.000000 0.000000
vn 1.000000 0.000000 0.000000
vn 1.000000 0.000000 0.000000
vn 1.000000 0.000000 0.000000
vn 1.000000 0.000000 0.000000
vn -1.000000 0.000000 0.000000
vn -1.000000 0.000000 0.000000
vn -1.000000 0.000000 0.000000
vn -1.000000 0.000000 0.000000
vn -1.000000 0.000000 0.000000
vn -1.000000 0.000000 0.000000
vn -1.000000 0.000000 0.000000
vn -1.000000 0.000000 0.000000
vn -1.000000 0.000000 0.000000
vn -1.000000 0.000000 0.000000
vn -1.000000 0.000000 0.000000
vn -1.000000 0.000000 0.000000
vn 0.000000 0.707106 0.707107
vn 0.000000 0.965926 0.258819
vn 0.000000 0.707106 0.707107
vn 0.000000 0.965926 0.258819
vn 0.000000 0.258819 0.965926
vn 0.000000 0.965926 -0.258819
vn 0.000000 0.258819 0.965926
vn 0.000000 0.965926 -0.258819
vn 0.000000 -0.258819 0.965926
vn 0.000000 0.707107 -0.707107
vn 0.000000 -0.258819 0.965926
vn 0.000000 0.707107 -0.707107
vn 0.000000 -0.707107 0.707107
vn 0.000000 0.258819 -0.965926
vn 0.000000 -0.707107 0.707107
vn 0.000000 0.258819 -0.965926
vn 0.000000 -0.965926 0.258819
vn 0.000000 -0.258819 -0.965926
vn 0.000000 -0.965926 0.258819
vn 0.000000 -0.258819 -0.965926
vn 0.000000 -0.965926 -0.258819
vn 0.000000 -0.707107 -0.707107
vn 0.000000 -0.965926 -0.258819
vn 0.000000 -0.707107 -0.707107
g Model_0_0
f 3/3/3 2/2/2 1/1/1
f 1/1/1 4/4/4 3/3/3
f 1/1/1 5/5/5 4/4/4
f 5/5/5 6/6/6 4/4/4
f 5/5/5 7/7/7 6/6/6
f 5/5/5 8/8/8 7/7/7
f 8/8/8 9/9/9 7/7/7
f 8/8/8 10/10/10 9/9/9
f 10/10/10 11/11/11 9/9/9
f 10/10/10 12/12/12 11/11/11
f 15/15/15 14/14/14 13/13/13
f 13/13/13 16/16/16 15/15/15
f 13/13/13 17/17/17 16/16/16
f 17/17/17 18/18/18 16/16/16
f 17/17/17 19/19/19 18/18/18
f 19/19/19 20/20/20 18/18/18
f 19/19/19 21/21/21 20/20/20
f 21/21/21 22/22/22 20/20/20
f 21/21/21 23/23/23 22/22/22
f 23/23/23 24/24/24 22/22/22
f 27/27/27 26/26/26 25/25/25
f 26/26/26 28/28/28 25/25/25
f 27/27/27 25/25/25 29/29/29
f 26/26/26 30/30/30 28/28/28
f 31/31/31 27/27/27 29/29/29
f 30/30/30 32/32/32 28/28/28
f 31/31/31 29/29/29 33/33/33
f 30/30/30 34/34/34 32/32/32
f 35/35/35 31/31/31 33/33/33
f 34/34/34 36/36/36 32/32/32
f 35/35/35 33/33/33 37/37/37
f 34/34/34 38/38/38 36/36/36
f 39/39/39 35/35/35 37/37/37
f 38/38/38 40/40/40 36/36/36
f 39/39/39 37/37/37 41/41/41
f 38/38/38 42/42/42 40/40/40
f 43/43/43 39/39/39 41/41/41
f 42/42/42 44/44/44 40/40/40
f 43/43/43 41/41/41 45/45/45
f 42/42/42 46/46/46 44/44/44
f 47/47/47 43/43/43 45/45/45
f 46/46/46 48/48/48 44/44/44
f 47/47/47 45/45/45 48/48/48
f 46/46/46 47/47/47 48/48/48