# generated by LodBaker -- retail ships no LODGroup for this prop
v 7.499996 -7.500004 0.25 1 1 1
v 7.5 7.5 -0.25 1 1 1
v 7.5 -7.5 -0.25 1 1 1
v 7.500004 7.499997 0.25 1 1 1
v -7.500002 -7.499997 0.25 1 1 1
v 7.5 -7.5 -0.25 1 1 1
v -7.500001 -7.499998 -0.25 1 1 1
v 7.499996 -7.500004 0.25 1 1 1
v -7.499997 7.500003 -0.25 1 1 1
v 7.500004 7.499997 0.25 1 1 1
v -7.499999 7.5 0.25 1 1 1
v 7.5 7.5 -0.25 1 1 1
v -7.499999 7.5 0.25 1 1 1
v -7.500001 -7.499998 -0.25 1 1 1
v -7.499997 7.500003 -0.25 1 1 1
v -7.500002 -7.499997 0.25 1 1 1
v -7.499999 7.5 0.25 1 1 1
v 7.499996 -7.500004 0.25 1 1 1
v -7.500002 -7.499997 0.25 1 1 1
v 7.500004 7.499997 0.25 1 1 1
vt 0.876111 0.618332
vt 0.861246 0.596035
vt 0.876111 0.596035
vt 0.861246 0.618332
vt 0.891125 0.618332
vt 0.87626 0.596035
vt 0.891125 0.596035
vt 0.87626 0.618332
vt 0.891125 0.573514
vt 0.87626 0.59581196
vt 0.87626 0.573514
vt 0.891125 0.59581196
vt 0.906139 0.596035
vt 0.891273 0.618332
vt 0.891273 0.596035
vt 0.906139 0.618332
vt 0.891273 0.59581196
vt 0.906139 0.573514
vt 0.906139 0.59581196
vt 0.891273 0.573514
vn 1 0 -1.5259022E-05
vn 1 0 -1.5259022E-05
vn 1 0 -1.5259022E-05
vn 1 0 -1.5259022E-05
vn 0 -1 -1.5259022E-05
vn 0 -1 -1.5259022E-05
vn 0 -1 -1.5259022E-05
vn 0 -1 -1.5259022E-05
vn 0 1 -1.5259022E-05
vn 0 1 -1.5259022E-05
vn 0 1 -1.5259022E-05
vn 0 1 -1.5259022E-05
vn -1 0 -1.5259022E-05
vn -1 0 -1.5259022E-05
vn -1 0 -1.5259022E-05
vn -1 0 -1.5259022E-05
vn -1.5259255E-05 -1.5259255E-05 1
vn -1.5259255E-05 -1.5259255E-05 1
vn -1.5259255E-05 -1.5259255E-05 1
vn -1.5259255E-05 -1.5259255E-05 1
f 3/3/3 2/2/2 1/1/1
f 1/1/1 2/2/2 4/4/4
f 7/7/7 6/6/6 5/5/5
f 5/5/5 6/6/6 8/8/8
f 11/11/11 10/10/10 9/9/9
f 9/9/9 10/10/10 12/12/12
f 15/15/15 14/14/14 13/13/13
f 13/13/13 14/14/14 16/16/16
f 19/19/19 18/18/18 17/17/17
f 20/20/20 17/17/17 18/18/18
