g Model_0
v 3.37499905 -1.376477 -0.125
v 3.375 -1.126477 -0.125
v 3.375 1.376477 -0.125
v 3.12499905 -1.37647998 2.625
v -3.37500501 -1.37648201 2.87499595
v 3.37499905 -1.37648201 2.875
v -3.375 1.37648904 -0.125
v 3.375 1.376477 -0.125
v -3.125 1.33202398 0.125
v 3.375 0.876471996 2.625
v 3.125 1.33201206 0.125
v -3.375 0.583095014 2.875
v -3.37500405 -1.12648106 2.8749969
v -3.37500405 -1.12648106 2.6249969
v -3.375 0.583095014 2.875
v -3.37500405 -1.12648106 2.6249969
v -3.375 0.62648499 2.625
v -3.12500405 -1.12648201 2.8749969
v -3.125 0.583094001 2.875
v -3.125 0.626483977 2.625
v -3.12500405 -1.12648201 2.8749969
v -3.125 0.626483977 2.625
v -3.12500405 -1.12648201 2.6249969
v 3.37499905 -1.37648201 2.875
v -3.37500501 -1.37648201 2.87499595
v 3.125 -1.12648106 2.875
v 3.12499905 -1.37647605 -0.125
v 3.37499905 -1.376477 -0.125
v 3.125 1.126477 -0.125
v 3.375 1.376477 -0.125
v 3.375 1.376477 -0.125
v -3.375 1.37648904 -0.125
v 3.125 1.126477 -0.125
v -3.125 1.12648904 -0.125
v -3.12500501 -1.376477 -0.125003994
v -3.37500501 -1.376477 -0.125003994
v 3.375 1.08201098 0.125
v 3.375 -1.126477 0.125
v 3.125 -1.12647605 0.125
v 3.125 1.08201206 0.125
v 3.375 1.376477 -0.125
v 3.375 -1.126477 -0.125
v 3.375 -1.126477 0.125
v 3.375 1.08201098 0.125
v 3.375 -1.12648106 2.625
v 3.375 -1.12648201 2.875
v 3.375 0.58308202 2.875
v 3.375 0.626471996 2.625
v 3.375 0.58308202 2.875
v 3.375 0.83308202 2.875
v 3.375 0.626471996 2.625
v 3.375 1.08201098 0.125
v 3.375 0.876471996 2.625
v 3.375 1.376477 -0.125
v 3.37499905 -1.37648201 2.875
v 3.37499905 -1.376477 -0.125
v 3.12499905 -1.37647605 -0.125
v 3.12499905 -1.37647998 2.625
v -3.12500501 -1.37648201 2.62499595
v -3.12500501 -1.376477 -0.125003994
v -3.37500501 -1.376477 -0.125003994
v -3.37500501 -1.37648201 2.87499595
v 3.12499905 -1.37647998 2.625
v 3.375 0.876471996 2.625
v 3.375 0.83308202 2.875
v -3.375 0.833095014 2.875
v 3.125 0.876471996 2.625
v 3.125 1.33201206 0.125
v -3.125 0.876483977 2.625
v -3.375 0.87648499 2.625
v -3.125 1.33202398 0.125
v 3.375 1.376477 -0.125
v -3.375 1.37648904 -0.125
v 3.125 1.08201206 0.125
v -3.125 1.33202398 0.125
v 3.125 1.33201206 0.125
v -3.125 1.08202398 0.125
v -3.12500405 -1.126477 0.124996997
v -3.37500405 -1.126477 0.124996997
v -3.375 1.08202398 0.125
v 3.125 1.126477 -0.125
v -3.125 1.12648904 -0.125
v -3.125 1.08202398 0.125
v 3.125 1.08201206 0.125
v -3.12500501 -1.376477 -0.125003994
v -3.12500501 -1.37648201 2.62499595
v -3.12500405 -1.12648201 2.6249969
v -3.12500405 -1.126477 0.124996997
v -3.125 1.12648904 -0.125
v -3.125 1.08202398 0.125
v -3.12500405 -1.126477 0.124996997
v -3.12500405 -1.12648201 2.6249969
v -3.37500405 -1.12648106 2.6249969
v -3.37500405 -1.126477 0.124996997
v -3.375 0.833095014 2.875
v 3.375 0.83308202 2.875
v 3.375 0.58308202 2.875
v 3.125 0.58308202 2.875
v -3.125 0.583094001 2.875
v -3.12500405 -1.12648201 2.8749969
v -3.375 0.583095014 2.875
v -3.37500405 -1.12648106 2.8749969
v -3.37500501 -1.37648201 2.87499595
v -3.37500405 -1.12648106 2.8749969
v 3.125 -1.12648106 2.875
v 3.37499905 -1.37648201 2.875
v 3.125 0.58308202 2.875
v 3.375 -1.12648201 2.875
v 3.375 0.58308202 2.875
v 3.37499905 -1.376477 -0.125
v 3.37499905 -1.37648201 2.875
v 3.375 -1.12648201 2.875
v 3.375 -1.126477 -0.125
v 3.375 -1.12648201 2.875
v 3.375 -1.12648106 2.625
v 3.375 -1.126477 -0.125
v 3.375 -1.126477 0.125
v 3.375 -1.126477 0.125
v 3.375 -1.12648106 2.625
v 3.125 -1.12647998 2.625
v 3.125 -1.12647605 0.125
v -3.125 1.08202398 0.125
v -3.125 0.626483977 2.625
v -3.125 0.876483977 2.625
v -3.125 1.33202398 0.125
v 3.125 1.33201206 0.125
v 3.125 0.876471996 2.625
v 3.125 0.626471996 2.625
v 3.125 1.08201206 0.125
v 3.125 1.08201206 0.125
v 3.125 0.626471996 2.625
v 3.375 0.626471996 2.625
v 3.375 1.08201098 0.125
v -3.375 1.08202398 0.125
v -3.375 0.62648499 2.625
v -3.125 0.626483977 2.625
v -3.125 1.08202398 0.125
v -3.375 0.833095014 2.875
v -3.375 0.583095014 2.875
v -3.375 0.62648499 2.625
v -3.375 1.08202398 0.125
v -3.375 0.87648499 2.625
v -3.375 1.37648904 -0.125
v -3.37500405 -1.126477 0.124996997
v -3.37500501 -1.376477 -0.125003994
v -3.37500405 -1.12648106 2.6249969
v -3.37500405 -1.12648106 2.8749969
v -3.37500501 -1.37648201 2.87499595
v -3.125 0.626483977 2.625
v -3.375 0.62648499 2.625
v -3.37500405 -1.12648106 2.6249969
v -3.12500405 -1.12648201 2.6249969
v -3.12500405 -1.12648201 2.8749969
v -3.12500405 -1.12648201 2.6249969
v 3.125 -1.12647998 2.625
v 3.125 -1.12648106 2.875
v 3.125 -1.12647998 2.625
v 3.12499905 -1.37647998 2.625
v 3.12499905 -1.37647605 -0.125
v 3.125 -1.12647605 0.125
v 3.12499905 -1.37647605 -0.125
v 3.125 1.126477 -0.125
v 3.125 -1.12647605 0.125
v 3.125 1.08201206 0.125
v 3.125 -1.12647998 2.625
v -3.12500405 -1.12648201 2.6249969
v -3.12500501 -1.37648201 2.62499595
v 3.12499905 -1.37647998 2.625
v 3.125 0.626471996 2.625
v 3.125 -1.12647998 2.625
v 3.375 -1.12648106 2.625
v 3.375 0.626471996 2.625
v 3.125 0.876471996 2.625
v -3.125 0.876483977 2.625
v -3.125 0.626483977 2.625
v 3.125 -1.12648106 2.875
v 3.125 -1.12647998 2.625
v 3.125 0.626471996 2.625
v 3.125 0.58308202 2.875
v -3.125 0.583094001 2.875
v 3.125 0.58308202 2.875
v 3.125 0.626471996 2.625
v -3.125 0.626483977 2.625
vt 0.33168301 0.502475023
vt 0.33168301 0.502475023
vt 0.00164999999 0.502475023
vt 0.665015996 0.00247499999
vt 0.998350024 0.497525007
vt 0.334984004 0.00247499999
vt 0.665015996 0.997524977
vt 0.665015996 0.502475023
vt 0.334984004 0.997524977
vt 0.334984004 0.502475023
vt 0.334984004 0.997524977
vt 0.66831702 0.502475023
vt 0.998350024 0.497525007
vt 0 0
vt 0.66831702 0.502475023
vt 0 0
vt 0.998350024 0.497525007
vt 0.66831702 0.502475023
vt 0 0
vt 0 0
vt 0.66831702 0.502475023
vt 0 0
vt 0.998350024 0.497525007
vt 0.998350024 0.997524977
vt 0.66831702 0.502475023
vt 0 0
vt 0.33168301 0.997524977
vt 0.33168301 0.502475023
vt 0.00164999999 0.997524977
vt 0.00164999999 0.502475023
vt 0.00164999999 0.502475023
vt 0.00164999999 0.997524977
vt 0.00164999999 0.997524977
vt 0.00164999999 0.997524977
vt 0.00164999999 0.997524977
vt 0.00164999999 0.997524977
vt 0.66831702 0.997524977
vt 0.998350024 0.997524977
vt 0.998350024 0.502475023
vt 0.66831702 0.502475023
vt 0.00164999999 0.497525007
vt 0.33168301 0.497525007
vt 0.33168301 0.00247499999
vt 0.00164999999 0.00247499999
vt 0.66831702 0.997524977
vt 0.33168301 0.00247499999
vt 0 0
vt 0.00164999999 0.00247499999
vt 0 0
vt 0.00164999999 0.00247499999
vt 0.00164999999 0.00247499999
vt 0.00164999999 0.00247499999
vt 0.00164999999 0.00247499999
vt 0.00164999999 0.497525007
vt 0.334984004 0.00247499999
vt 0.334984004 0.497525007
vt 0.665015996 0.497525007
vt 0.665015996 0.00247499999
vt 0.998350024 0.497525007
vt 0.66831702 0.497525007
vt 0.66831702 0.497525007
vt 0.998350024 0.497525007
vt 0.665015996 0.00247499999
vt 0.334984004 0.502475023
vt 0.334984004 0.502475023
vt 0.334984004 0.997524977
vt 0.334984004 0.997524977
vt 0.334984004 0.997524977
vt 0.334984004 0.997524977
vt 0.334984004 0.997524977
vt 0.334984004 0.997524977
vt 0.665015996 0.502475023
vt 0.665015996 0.997524977
vt 0.66831702 0.502475023
vt 0.66831702 0.502475023
vt 0.66831702 0.502475023
vt 0.66831702 0.502475023
vt 0.66831702 0.502475023
vt 0.66831702 0.502475023
vt 0.66831702 0.502475023
vt 0.66831702 0.497525007
vt 0.66831702 0.497525007
vt 0.998350024 0.497525007
vt 0.998350024 0.497525007
vt 0.66831702 0.497525007
vt 0.998350024 0.497525007
vt 0.998350024 0.497525007
vt 0.998350024 0.497525007
vt 0.66831702 0.497525007
vt 0.998350024 0.497525007
vt 0.66831702 0.502475023
vt 0.66831702 0.502475023
vt 0.66831702 0.502475023
vt 0.66831702 0.502475023
vt 0.66831702 0.502475023
vt 0.66831702 0.997524977
vt 0.66831702 0.997524977
vt 0.66831702 0.502475023
vt 0.66831702 0.502475023
vt 0.66831702 0.502475023
vt 0.66831702 0.502475023
vt 0 0
vt 0.66831702 0.502475023
vt 0.66831702 0.502475023
vt 0 0
vt 0.998350024 0.997524977
vt 0 0
vt 0 0
vt 0.66831702 0.502475023
vt 0.33168301 0.497525007
vt 0.33168301 0.00247499999
vt 0.33168301 0.00247499999
vt 0.33168301 0.497525007
vt 0.33168301 0.00247499999
vt 0.33168301 0.00247499999
vt 0.33168301 0.497525007
vt 0.33168301 0.00247499999
vt 0.998350024 0.997524977
vt 0.998350024 0.997524977
vt 0.998350024 0.502475023
vt 0.998350024 0.502475023
vt 0.66831702 0.502475023
vt 0.66831702 0.502475023
vt 0.66831702 0.502475023
vt 0.66831702 0.502475023
vt 0.66831702 0.502475023
vt 0.66831702 0.502475023
vt 0.66831702 0.502475023
vt 0.66831702 0.502475023
vt 0.66831702 0.502475023
vt 0.66831702 0.502475023
vt 0.66831702 0.997524977
vt 0.66831702 0.997524977
vt 0.66831702 0.502475023
vt 0.66831702 0.502475023
vt 0.66831702 0.502475023
vt 0.66831702 0.502475023
vt 0.998350024 0.497525007
vt 0.998350024 0.497525007
vt 0.998350024 0.497525007
vt 0.998350024 0.497525007
vt 0.998350024 0.497525007
vt 0.66831702 0.497525007
vt 0.998350024 0.497525007
vt 0.66831702 0.497525007
vt 0.998350024 0.497525007
vt 0.998350024 0.497525007
vt 0.998350024 0.497525007
vt 0 0
vt 0.66831702 0.502475023
vt 0 0
vt 0.66831702 0.502475023
vt 0 0
vt 0.998350024 0.497525007
vt 0 0
vt 0 0
vt 0.998350024 0.00247499999
vt 0.998350024 0.00247499999
vt 0.66831702 0.00247499999
vt 0.998350024 0.00247499999
vt 0.66831702 0.00247499999
vt 0.66831702 0.497525007
vt 0.998350024 0.00247499999
vt 0.998350024 0.497525007
vt 0 0
vt 0.998350024 0.497525007
vt 0 0
vt 0.998350024 0.00247499999
vt 0 0
vt 0.998350024 0.502475023
vt 0 0
vt 0.66831702 0.997524977
vt 0.66831702 0.502475023
vt 0 0
vt 0.66831702 0.502475023
vt 0 0
vt 0 0
vt 0.998350024 0.502475023
vt 0 0
vt 0.66831702 0.502475023
vt 0 0
vt 0 0
vt 0 0
vn -0 1 0
vn -0 1 0
vn 0.000976955751 0.991160095 0.132668272
vn -0 -1 0
vn -0 -1 0
vn -0 -1 0
vn -0.00194775709 0.984209239 0.176998585
vn 0.000976955751 0.991160095 0.132668272
vn -0.00097387837 0.984193504 0.177093998
vn 0.000974087103 0.984562933 0.175028577
vn 0.00129877438 0.984073877 0.177755147
vn -1 0 0
vn -1 0 0
vn -1 0 0
vn -1 0 0
vn -1 0 0
vn -1 0 0
vn 1 0 0
vn 1 0 0
vn 1 0 0
vn 1 0 0
vn 1 0 0
vn 1 0 0
vn -0 0 1
vn -0 0 1
vn -0 0 1
vn -0 0 -1
vn -0 0 -1
vn -0 0 -1
vn -0 0 -1
vn -0 0 -1
vn -0 0 -1
vn -0 0 -1
vn -0 0 -1
vn -0 0 -1
vn -0 0 -1
vn -0 0 1
vn -0 0 1
vn -0 0 1
vn -0 0 1
vn 1 0 0
vn 1 0 0
vn 1 0 0
vn 1 0 0
vn 1 0 0
vn 1 0 0
vn 1 0 0
vn 1 0 0
vn 1 0 0
vn 1 0 0
vn 1 0 0
vn 1 0 0
vn 1 0 0
vn 1 0 0
vn -0 -1 0
vn -0 -1 0
vn -0 -1 0
vn -0 -1 0
vn -0 -1 0
vn -0 -1 0
vn -0 -1 0
vn -0 -1 0
vn -0 -1 0
vn 0.000974087103 0.984562933 0.175028577
vn -0 0.985270381 0.171003416
vn -0 0.985272706 0.170990512
vn -0 0.984791338 0.173741177
vn 0.00129877438 0.984073877 0.177755147
vn -0 0.984788418 0.173757732
vn -0.00129851163 0.984320164 0.176386014
vn -0.00097387837 0.984193504 0.177093998
vn 0.000976955751 0.991160095 0.132668272
vn -0.00194775709 0.984209239 0.176998585
vn -0 0 1
vn -0 0 1
vn -0 0 1
vn -0 0 1
vn -0 0 1
vn -0 0 1
vn -0 0 1
vn -0 -0.984548569 -0.175111845
vn -0 -0.984548569 -0.175111845
vn -0 -0.984176993 -0.177188352
vn -0 -0.984176993 -0.177188367
vn 1 0 0
vn 1 0 0
vn 1 0 0
vn 1 0 0
vn 1 0 0
vn 1 0 0
vn -0 1 0
vn -0 1 0
vn -0 1 0
vn -0 1 0
vn -0 0 1
vn -0 0 1
vn -0 0 1
vn -0 0 1
vn -0 0 1
vn -0 0 1
vn -0 0 1
vn -0 0 1
vn -0 0 1
vn -0 0 1
vn -0 0 1
vn -0 0 1
vn -0 0 1
vn -0 0 1
vn -0 0 1
vn 1 0 0
vn 1 0 0
vn 1 0 0
vn 1 0 0
vn -0 1 0
vn -0 1 0
vn -0 1 0
vn -0 1 0
vn -0 1 0
vn -0 1 0
vn -0 1 0
vn -0 1 0
vn 1 0 0
vn 1 0 0
vn 1 0 0
vn 1 0 0
vn -1 0 0
vn -1 0 0
vn -1 0 0
vn -1 0 0
vn -0 -0.984176993 -0.177188367
vn -0 -0.984544456 -0.175135314
vn -0 -0.983800948 -0.179264084
vn -0 -0.983800948 -0.179264084
vn -0 -0.983800948 -0.179264069
vn -0 -0.983800948 -0.179264069
vn -0 -0.984544456 -0.175135314
vn -0 -0.984176993 -0.177188352
vn -1 0 0
vn -1 0 0
vn -1 0 0
vn -1 0 0
vn -1 0 0
vn -1 0 0
vn -1 0 0
vn -1 0 0
vn -1 0 0
vn -1 0 0
vn -1 0 0
vn -0 0 -1
vn -0 0 -1
vn -0 0 -1
vn -0 0 -1
vn -0 1 0
vn -0 1 0
vn -0 1 0
vn -0 1 0
vn -1 0 0
vn -1 0 0
vn -1 0 0
vn -1 0 0
vn -1 0 0
vn -1 0 0
vn -1 0 0
vn -1 0 0
vn -0 0 -1
vn -0 0 -1
vn -0 0 -1
vn -0 0 -1
vn -0 0 -1
vn -0 0 -1
vn -0 0 -1
vn -0 0 -1
vn -0 0 -1
vn -0 0 -1
vn -0 0 -1
vn -1 0 0
vn -1 0 0
vn -1 0 0
vn -1 0 0
vn -0 -0.985270381 -0.171003446
vn -0 -0.985270381 -0.171003446
vn -0 -0.984544456 -0.175135314
vn -0 -0.984544456 -0.175135314
g Model_0_0
f 3/3/3 2/2/2 1/1/1
f 6/6/6 5/5/5 4/4/4
f 9/9/9 8/8/8 7/7/7
f 11/11/11 10/10/10 8/8/8
f 14/14/14 13/13/13 12/12/12
f 17/17/17 16/16/16 15/15/15
f 20/20/20 19/19/19 18/18/18
f 23/23/23 22/22/22 21/21/21
f 26/26/26 25/25/25 24/24/24
f 29/29/29 28/28/28 27/27/27
f 28/28/28 29/29/29 30/30/30
f 33/33/33 32/32/32 31/31/31
f 33/33/33 34/34/34 32/32/32
f 34/34/34 35/35/35 32/32/32
f 35/35/35 36/36/36 32/32/32
f 39/39/39 38/38/38 37/37/37
f 40/40/40 39/39/39 37/37/37
f 43/43/43 42/42/42 41/41/41
f 41/41/41 44/44/44 43/43/43
f 47/47/47 46/46/46 45/45/45
f 45/45/45 48/48/48 47/47/47
f 51/51/51 50/50/50 49/49/49
f 51/51/51 52/52/52 50/50/50
f 52/52/52 53/53/53 50/50/50
f 52/52/52 54/54/54 53/53/53
f 57/57/57 56/56/56 55/55/55
f 55/55/55 58/58/58 57/57/57
f 61/61/61 60/60/60 59/59/59
f 59/59/59 62/62/62 61/61/61
f 59/59/59 63/63/63 62/62/62
f 66/66/66 65/65/65 64/64/64
f 66/66/66 64/64/64 67/67/67
f 68/68/68 67/67/67 64/64/64
f 66/66/66 67/67/67 69/69/69
f 69/69/69 70/70/70 66/66/66
f 70/70/70 69/69/69 71/71/71
f 72/72/72 71/71/71 68/68/68
f 73/73/73 70/70/70 71/71/71
f 76/76/76 75/75/75 74/74/74
f 75/75/75 77/77/77 74/74/74
f 79/79/79 78/78/78 77/77/77
f 80/80/80 79/79/79 77/77/77
f 83/83/83 82/82/82 81/81/81
f 84/84/84 83/83/83 81/81/81
f 87/87/87 86/86/86 85/85/85
f 85/85/85 88/88/88 87/87/87
f 85/85/85 89/89/89 88/88/88
f 89/89/89 90/90/90 88/88/88
f 93/93/93 92/92/92 91/91/91
f 94/94/94 93/93/93 91/91/91
f 97/97/97 96/96/96 95/95/95
f 95/95/95 98/98/98 97/97/97
f 95/95/95 99/99/99 98/98/98
f 95/95/95 100/100/100 99/99/99
f 95/95/95 101/101/101 100/100/100
f 101/101/101 102/102/102 100/100/100
f 100/100/100 104/104/104 103/103/103
f 105/105/105 100/100/100 103/103/103
f 107/107/107 105/105/105 106/106/106
f 107/107/107 106/106/106 108/108/108
f 108/108/108 109/109/109 107/107/107
f 112/112/112 111/111/111 110/110/110
f 110/110/110 113/113/113 112/112/112
f 116/116/116 115/115/115 114/114/114
f 116/116/116 117/117/117 115/115/115
f 120/120/120 119/119/119 118/118/118
f 121/121/121 120/120/120 118/118/118
f 124/124/124 123/123/123 122/122/122
f 125/125/125 124/124/124 122/122/122
f 128/128/128 127/127/127 126/126/126
f 129/129/129 128/128/128 126/126/126
f 132/132/132 131/131/131 130/130/130
f 133/133/133 132/132/132 130/130/130
f 136/136/136 135/135/135 134/134/134
f 137/137/137 136/136/136 134/134/134
f 140/140/140 139/139/139 138/138/138
f 138/138/138 141/141/141 140/140/140
f 138/138/138 142/142/142 141/141/141
f 142/142/142 143/143/143 141/141/141
f 144/144/144 141/141/141 143/143/143
f 144/144/144 143/143/143 145/145/145
f 146/146/146 144/144/144 145/145/145
f 147/147/147 146/146/146 145/145/145
f 145/145/145 148/148/148 147/147/147
f 151/151/151 150/150/150 149/149/149
f 152/152/152 151/151/151 149/149/149
f 155/155/155 154/154/154 153/153/153
f 156/156/156 155/155/155 153/153/153
f 159/159/159 158/158/158 157/157/157
f 157/157/157 160/160/160 159/159/159
f 163/163/163 162/162/162 161/161/161
f 163/163/163 164/164/164 162/162/162
f 167/167/167 166/166/166 165/165/165
f 168/168/168 167/167/167 165/165/165
f 171/171/171 170/170/170 169/169/169
f 172/172/172 171/171/171 169/169/169
f 174/174/174 173/173/173 169/169/169
f 175/175/175 174/174/174 169/169/169
f 178/178/178 177/177/177 176/176/176
f 179/179/179 178/178/178 176/176/176
f 182/182/182 181/181/181 180/180/180
f 183/183/183 182/182/182 180/180/180
