v 9.500000 2.124995 3.750000
v 10.000000 2.124995 1.000000
v 10.000000 2.124995 3.750000
v 9.500000 2.124995 1.000000
v -10.000001 1.125001 3.750000
v -9.500001 1.125001 1.000000
v -9.500001 1.125001 3.750000
v -10.000001 1.125001 1.000000
v 9.999994 -4.000005 2.750000
v 9.499994 -4.000005 -0.000000
v 9.499994 -4.000005 2.750000
v 9.999994 -4.000005 -0.000000
v 9.499994 -3.000005 3.750000
v 9.999994 -3.000005 1.000000
v 9.999994 -3.000005 3.750000
v 9.499994 -3.000005 1.000000
v -4.750000 3.999997 2.750000
v -4.250000 3.999997 0.000000
v -4.250000 3.999997 2.750000
v -4.750000 3.999997 0.000000
v 9.499994 -6.500005 2.750000
v 9.999994 -6.500005 -0.000000
v 9.999994 -6.500005 2.750000
v 9.499994 -6.500005 -0.000000
v -4.749998 7.499998 4.250000
v -9.499999 7.500000 0.000000
v -9.499999 7.500000 4.250000
v -4.749998 7.499998 0.000000
v 4.499994 -7.500005 4.250000
v 4.499999 0.249996 0.000000
v 4.499994 -7.500005 -0.000000
v 4.499999 0.249996 4.250000
v -4.250001 0.249999 0.000000
v -4.750001 0.249999 1.000000
v -4.250001 0.249999 1.000000
v -4.750001 0.249999 0.000000
v 9.500000 1.124995 1.000000
v 10.000000 1.124995 1.000000
v 9.499999 -0.250004 1.000000
v 9.999994 -3.000005 1.000000
v 9.499994 -3.000005 1.000000
v 9.500002 6.499995 3.750000
v 10.000002 6.499995 1.000000
v 9.500002 6.499995 1.000000
v 10.000002 6.499995 3.750000
v -10.000001 1.125001 1.000000
v -9.500000 6.500000 1.000000
v -9.500001 1.125001 1.000000
v -10.000000 6.500000 1.000000
v -9.500002 0.250001 4.250000
v -4.750001 0.249999 1.000000
v -4.750001 0.249999 4.250000
v -9.500002 0.250001 0.000000
v -4.750001 0.249999 0.000000
v 3.999994 -7.500005 4.250000
v -9.500004 -7.499997 -0.000000
v 3.999994 -7.500005 -0.000000
v -9.500004 -7.499997 4.250000
v 2.125003 7.999997 3.750000
v 2.125003 7.499997 1.000000
v 2.125003 7.499997 3.750000
v 2.125003 7.999997 1.000000
v 9.500000 2.124995 1.000000
v 10.000002 6.499995 1.000000
v 10.000000 2.124995 1.000000
v 9.500002 6.499995 1.000000
v 8.500004 7.499996 1.000000
v 8.500004 7.999996 3.750000
v 8.500004 7.499996 3.750000
v 8.500004 7.999996 1.000000
v 1.125003 7.499997 3.750000
v 1.125003 7.999997 1.000000
v 1.125003 7.999997 3.750000
v 1.125003 7.499997 1.000000
v -9.500000 6.500000 3.750000
v -10.000000 6.500000 1.000000
v -10.000000 6.500000 3.750000
v -9.500000 6.500000 1.000000
v 10.000000 1.124995 3.750000
v 9.500000 1.124995 1.000000
v 9.500000 1.124995 3.750000
v 10.000000 1.124995 1.000000
v 3.999994 -7.500005 4.250000
v 3.999999 -0.250004 -0.000000
v 3.999999 -0.250004 4.250000
v 3.999994 -7.500005 -0.000000
v -0.750001 -0.250001 2.750000
v -0.750001 0.249999 0.000000
v -0.750001 0.249999 2.750000
v -0.750001 -0.250001 -0.000000
v -3.249998 7.999998 3.750000
v -3.249998 7.499998 1.000000
v -3.249998 7.499998 3.750000
v -3.249998 7.999998 1.000000
v -3.250001 0.249999 0.000000
v -3.250001 -0.250001 2.750000
v -3.250001 0.249999 2.750000
v -3.250001 -0.250001 -0.000000
v -4.250000 6.499997 0.000000
v -4.750000 6.499997 2.750000
v -4.250000 6.499997 2.750000
v -4.750000 6.499997 0.000000
v -9.500002 -0.249999 4.250000
v 3.999994 -7.500005 4.250000
v 3.999999 -0.250004 4.250000
v -9.500004 -7.499997 4.250000
v -4.750001 0.249999 4.250000
v -9.500001 1.125001 4.250000
v -9.500002 0.250001 4.250000
v -4.749998 7.499998 4.250000
v -9.499999 7.500000 4.250000
v -9.500002 -0.249999 4.250000
v -9.500004 -7.499997 -0.000000
v -9.500004 -7.499997 4.250000
v -9.500002 -0.249999 -0.000000
v 10.000000 2.124995 3.750000
v 9.500002 6.499995 3.750000
v 9.500000 2.124995 3.750000
v 10.000002 6.499995 3.750000
v 9.999994 -3.000005 3.750000
v 9.500000 1.124995 3.750000
v 9.499994 -3.000005 3.750000
v 10.000000 1.124995 3.750000
v 9.499994 -6.500005 2.750000
v 9.999994 -4.000005 2.750000
v 9.499994 -4.000005 2.750000
v 9.999994 -6.500005 2.750000
v 2.125003 7.499997 3.750000
v 8.500004 7.999996 3.750000
v 2.125003 7.999997 3.750000
v 8.500004 7.499996 3.750000
v -3.249998 7.999998 3.750000
v 1.125003 7.499997 3.750000
v 1.125003 7.999997 3.750000
v -3.249998 7.499998 3.750000
v -9.500001 1.125001 3.750000
v -10.000000 6.500000 3.750000
v -10.000001 1.125001 3.750000
v -9.500000 6.500000 3.750000
v -3.250001 0.249999 2.750000
v -0.750001 -0.250001 2.750000
v -0.750001 0.249999 2.750000
v -3.250001 -0.250001 2.750000
v -4.250000 3.999997 2.750000
v -4.750000 6.499997 2.750000
v -4.750000 3.999997 2.750000
v -4.250000 6.499997 2.750000
v -9.999999 8.000000 4.250000
v 10.000004 7.993237 4.749954
v -9.999999 7.993241 4.749954
v 10.000004 7.999996 4.250000
v 9.999994 -8.000005 4.250000
v -10.000004 -8.006757 4.749954
v 9.999994 -8.006764 4.749954
v -10.000004 -7.999997 4.250000
v 9.999994 -0.465094 6.749954
v -9.999999 7.993241 4.749954
v 10.000004 7.993237 4.749954
v -10.000004 -0.465094 6.749954
v -10.000004 -8.006757 4.749954
v 9.999994 -8.006764 4.749954
v 9.999994 -0.458335 6.250000
v 10.000004 7.993237 4.749954
v 10.000004 7.999996 4.250000
v 9.999994 -0.465094 6.749954
v 9.999994 -8.006764 4.749954
v 9.999994 -8.000005 4.250000
v -10.000004 -0.458335 6.250000
v -10.000004 -8.006757 4.749954
v -10.000004 -7.999997 4.250000
v -10.000004 -0.465094 6.749954
v -9.999999 7.993241 4.749954
v -9.999999 8.000000 4.250000
v 9.499994 -7.500005 4.250000
v 4.499994 -7.500005 -0.000000
v 9.499994 -7.500005 -0.000000
v 4.499994 -7.500005 4.250000
v -0.750001 -0.250001 -0.000000
v -0.750001 -0.250001 2.750000
v 3.999999 -0.250004 -0.000000
v 3.999999 -0.250004 4.250000
v -3.250001 -0.250001 2.750000
v -9.500002 -0.249999 4.250000
v -9.500002 -0.249999 -0.000000
v -3.250001 -0.250001 -0.000000
v 9.999994 -8.000005 4.250000
v 9.999994 -8.000005 -0.000000
v -10.000004 -7.999997 4.250000
v -10.000001 -7.999998 -6.000000
v 10.000000 -8.000000 -6.000000
v -4.750001 0.249999 0.000000
v -4.750000 3.999997 0.000000
v -4.750001 0.249999 1.000000
v -4.750000 3.999997 2.750000
v -4.750001 0.249999 4.250000
v -4.749998 7.499998 4.250000
v -4.750000 6.499997 2.750000
v -4.749998 7.499998 0.000000
v -4.750000 6.499997 0.000000
v 1.125003 7.499997 1.000000
v -0.749998 7.499998 1.000000
v 1.125003 7.999997 1.000000
v -0.749998 7.999998 1.000000
v -3.249998 7.499998 1.000000
v -3.249998 7.999998 1.000000
v -3.250001 0.249999 0.000000
v -4.250001 0.249999 1.000000
v -4.250001 0.249999 0.000000
v -3.250001 0.249999 2.750000
v -4.250001 0.249999 4.250000
v -0.750001 0.249999 2.750000
v 4.499999 0.249996 4.250000
v 4.499999 0.249996 0.000000
v -0.750001 0.249999 0.000000
v 3.999994 -7.500005 -0.000000
v -0.750001 -0.250001 -0.000000
v 3.999999 -0.250004 -0.000000
v -3.250001 -0.250001 -0.000000
v -9.500004 -7.499997 -0.000000
v -9.500002 -0.249999 -0.000000
v -0.750001 0.249999 0.000000
v -3.250001 0.249999 0.000000
v -4.250000 3.999997 0.000000
v -4.250001 0.249999 0.000000
v -0.749998 7.499998 0.000000
v 1.125003 7.499997 0.000000
v 2.125003 7.499997 0.000000
v 4.499999 0.249996 0.000000
v 4.000004 7.499996 0.000000
v -4.250000 6.499997 0.000000
v -4.249998 7.499998 0.000000
v -4.750000 3.999997 0.000000
v -4.750000 6.499997 0.000000
v -9.499999 7.500000 0.000000
v -4.749998 7.499998 0.000000
v -9.500001 1.125001 0.000000
v -4.750001 0.249999 0.000000
v -9.500002 0.250001 0.000000
v 9.500002 6.499995 0.000000
v 9.500004 7.499996 0.000000
v 9.499999 -0.250004 -0.000000
v 9.499994 -3.000005 -0.000000
v 9.499994 -4.000005 -0.000000
v 4.499994 -7.500005 -0.000000
v 9.499994 -6.500005 -0.000000
v 9.499994 -7.500005 -0.000000
v 9.999994 -6.500005 -0.000000
v 9.999994 -4.000005 -0.000000
v 4.000004 7.999996 1.000000
v 2.125003 7.499997 1.000000
v 2.125003 7.999997 1.000000
v 4.000004 7.499996 1.000000
v 8.500004 7.499996 1.000000
v 8.500004 7.999996 1.000000
v 4.499999 0.249996 4.250000
v -4.249998 7.499998 4.250000
v -4.250001 0.249999 4.250000
v 9.500002 6.499995 4.250000
v 9.500004 7.499996 4.250000
v 9.499994 -7.500005 4.250000
v 4.499994 -7.500005 4.250000
v 9.499994 -6.500005 2.750000
v 9.499994 -7.500005 -0.000000
v 9.499994 -6.500005 -0.000000
v 9.499994 -7.500005 4.250000
v 9.499994 -4.000005 2.750000
v 9.499994 -3.000005 3.750000
v 9.499994 -3.000005 1.000000
v 9.499994 -4.000005 -0.000000
v 9.499994 -3.000005 -0.000000
v 9.499999 -0.250004 1.000000
v 9.500000 1.124995 3.750000
v 9.499999 -0.250004 -0.000000
v 9.500000 1.124995 1.000000
v 9.500002 6.499995 4.250000
v 9.500000 2.124995 1.000000
v 9.500002 6.499995 0.000000
v 9.500000 2.124995 3.750000
v 9.500002 6.499995 3.750000
v 9.500004 7.499996 4.250000
v 9.500002 6.499995 1.000000
v 9.500004 7.499996 0.000000
v -4.250001 0.249999 0.000000
v -4.250001 0.249999 1.000000
v -4.250000 3.999997 0.000000
v -4.250000 3.999997 2.750000
v -4.250001 0.249999 4.250000
v -4.249998 7.499998 4.250000
v -4.250000 6.499997 2.750000
v -4.249998 7.499998 0.000000
v -4.250000 6.499997 0.000000
v -9.999999 8.000000 0.000000
v -10.000000 6.500000 1.000000
v -9.999996 8.000003 -6.000000
v -9.999999 8.000000 4.250000
v -10.000000 6.500000 3.750000
v -10.000001 1.125001 3.750000
v -10.000004 -0.458335 6.250000
v -10.000001 1.125001 1.000000
v -10.000001 -7.999998 -6.000000
v -10.000004 -7.999997 4.250000
v -3.249998 7.999998 3.750000
v -9.999999 8.000000 4.250000
v -3.249998 7.999998 1.000000
v 1.125003 7.999997 3.750000
v -9.999999 8.000000 0.000000
v -0.749998 7.999998 1.000000
v -9.999996 8.000003 -6.000000
v 10.000000 8.000000 -6.000000
v 10.000004 7.999996 4.250000
v 1.125003 7.999997 1.000000
v 2.125003 7.999997 3.750000
v 2.125003 7.999997 1.000000
v 8.500004 7.999996 3.750000
v 4.000004 7.999996 1.000000
v 8.500004 7.999996 1.000000
v 10.000004 7.999996 0.000000
v 10.000004 7.999996 0.000000
v 10.000002 6.499995 1.000000
v 10.000004 7.999996 4.250000
v 10.000000 8.000000 -6.000000
v 10.000002 6.499995 3.750000
v 9.999994 -0.458335 6.250000
v 10.000000 2.124995 1.000000
v 10.000000 2.124995 3.750000
v 10.000000 1.124995 1.000000
v 10.000000 1.124995 3.750000
v 9.999994 -3.000005 3.750000
v 9.999994 -8.000005 4.250000
v 9.999994 -4.000005 -0.000000
v 9.999994 -3.000005 1.000000
v 10.000000 -8.000000 -6.000000
v 9.999994 -4.000005 2.750000
v 9.999994 -6.500005 -0.000000
v 9.999994 -8.000005 -0.000000
v 9.999994 -6.500005 2.750000
v -9.500000 6.500000 1.000000
v -9.499999 7.500000 0.000000
v -9.500001 1.125001 0.000000
v -9.499999 7.500000 4.250000
v -9.500000 6.500000 3.750000
v -9.500001 1.125001 4.250000
v -9.500001 1.125001 3.750000
v -9.500002 0.250001 4.250000
v -9.500001 1.125001 1.000000
v -9.500002 0.250001 0.000000
v 8.500004 7.499996 3.750000
v 9.500004 7.499996 4.250000
v 8.500004 7.499996 1.000000
v 2.125003 7.499997 3.750000
v 9.500004 7.499996 0.000000
v 4.000004 7.499996 0.000000
v 4.000004 7.499996 1.000000
v 2.125003 7.499997 1.000000
v 2.125003 7.499997 0.000000
v 1.125003 7.499997 0.000000
v -4.249998 7.499998 4.250000
v 1.125003 7.499997 1.000000
v -0.749998 7.499998 1.000000
v 1.125003 7.499997 3.750000
v -0.749998 7.499998 0.000000
v -3.249998 7.499998 3.750000
v -3.249998 7.499998 1.000000
v -4.249998 7.499998 0.000000
vt 0.564870238 0.750598907
vt 0.565971017 0.756748736
vt 0.565971017 0.750598907
vt 0.564870238 0.756748736
vt 0.69004041 0.779595792
vt 0.691141129 0.785745621
vt 0.691141129 0.779595792
vt 0.69004041 0.785745621
vt 0.674397707 0.767507493
vt 0.675498486 0.773657322
vt 0.675498486 0.767507493
vt 0.674397707 0.773657322
vt 0.52273643 0.807474554
vt 0.521635652 0.801324725
vt 0.521635652 0.807474554
vt 0.52273643 0.801324725
vt 0.614970088 0.773831189
vt 0.616070867 0.779981017
vt 0.616070867 0.773831189
vt 0.614970088 0.779981017
vt 0.670545042 0.772539139
vt 0.67164582 0.778688967
vt 0.67164582 0.772539139
vt 0.670545042 0.778688967
vt 0.860210299 0.788112283
vt 0.869566917 0.777489901
vt 0.860210299 0.777489901
vt 0.869566917 0.788112283
vt 0.847001076 0.761276722
vt 0.856357634 0.778608024
vt 0.856357634 0.761276722
vt 0.847001076 0.778608024
vt 0.0785283744 0.711743236
vt 0.0796290934 0.709506869
vt 0.0785283744 0.709506869
vt 0.0796290934 0.711743236
vt 0.52273643 0.792100012
vt 0.521635652 0.792100012
vt 0.52273643 0.795174897
vt 0.521635652 0.801324725
vt 0.52273643 0.801324725
vt 0.56321907 0.73494482
vt 0.562118292 0.741094649
vt 0.56321907 0.741094649
vt 0.562118292 0.73494482
vt 0.69004041 0.769532442
vt 0.688939631 0.757512331
vt 0.688939631 0.769532442
vt 0.69004041 0.757512331
vt 0.813978016 0.789230466
vt 0.821133018 0.778608024
vt 0.813978016 0.778608024
vt 0.823334575 0.789230466
vt 0.823334575 0.778608024
vt 0.901489139 0.752331495
vt 0.910845757 0.782521546
vt 0.910845757 0.752331495
vt 0.901489139 0.782521546
vt 0.621965945 0.756537437
vt 0.620865166 0.750387609
vt 0.620865166 0.756537437
vt 0.621965945 0.750387609
vt 0.564319849 0.732708514
vt 0.56321907 0.722924709
vt 0.56321907 0.732708514
vt 0.564319849 0.722924709
vt 0.623617113 0.750387609
vt 0.624717832 0.744237781
vt 0.623617113 0.744237781
vt 0.624717832 0.750387609
vt 0.609205604 0.767507493
vt 0.608104825 0.761357665
vt 0.608104825 0.767507493
vt 0.609205604 0.761357665
vt 0.69004041 0.767296135
vt 0.691141129 0.773445964
vt 0.691141129 0.767296135
vt 0.69004041 0.773445964
vt 0.519984543 0.822569609
vt 0.518883765 0.81641978
vt 0.518883765 0.822569609
vt 0.519984543 0.81641978
vt 0.920202255 0.752331495
vt 0.910845757 0.768544674
vt 0.920202255 0.768544674
vt 0.910845757 0.752331495
vt 0.688939631 0.784068346
vt 0.687838852 0.777918518
vt 0.687838852 0.784068346
vt 0.688939631 0.777918518
vt 0.610306382 0.768066585
vt 0.609205604 0.761916757
vt 0.609205604 0.768066585
vt 0.610306323 0.761916757
vt 0.69004041 0.775682271
vt 0.688939631 0.781832099
vt 0.69004041 0.781832099
vt 0.688939631 0.775682271
vt 0.610016644 0.772153974
vt 0.611117423 0.766004145
vt 0.610016644 0.766004145
vt 0.611117423 0.772153974
vt 0.362608194 0.292610466
vt 0.378569305 0.262420475
vt 0.362608194 0.262420475
vt 0.378569305 0.292610466
vt 0.367011249 0.34069097
vt 0.377468526 0.342647731
vt 0.377468526 0.34069097
vt 0.367011249 0.356904149
vt 0.377468526 0.356904149
vt 0.920202255 0.768544674
vt 0.910845757 0.784757853
vt 0.920202255 0.784757853
vt 0.910845757 0.768544674
vt 0.609527469 0.780574203
vt 0.595323384 0.702590942
vt 0.595323384 0.780574203
vt 0.609527469 0.702590942
vt 0.623731554 0.77611804
vt 0.609527469 0.702590942
vt 0.609527469 0.77611804
vt 0.623731554 0.702590942
vt 0.623731613 0.747152805
vt 0.637935638 0.702590942
vt 0.623731554 0.702590942
vt 0.637935698 0.747152805
vt 0.566915214 0.816223621
vt 0.552711129 0.702590942
vt 0.552711129 0.816223621
vt 0.566915214 0.702590942
vt 0.595323384 0.702590942
vt 0.581119299 0.780574203
vt 0.595323384 0.780574203
vt 0.581119359 0.702590942
vt 0.566915214 0.702590942
vt 0.581119299 0.798398852
vt 0.581119299 0.702590942
vt 0.566915274 0.798398852
vt 0.652139783 0.702590942
vt 0.637935698 0.747152805
vt 0.652139783 0.747152805
vt 0.637935698 0.702590942
vt 0.652139783 0.702590942
vt 0.666343868 0.747152805
vt 0.666343868 0.702590942
vt 0.652139783 0.747152805
vt 0.407454491 0.779712558
vt 0.405975908 0.714660168
vt 0.405975908 0.779712558
vt 0.407454461 0.714660168
vt 0.408933043 0.779712498
vt 0.407454461 0.714660168
vt 0.407454491 0.779712498
vt 0.408933043 0.714660168
vt 0.368810862 0.779712558
vt 0.343880653 0.714660168
vt 0.343880653 0.779712558
vt 0.368810892 0.714660168
vt 0.391190499 0.714660168
vt 0.391190499 0.779712558
vt 0.392668933 0.739212334
vt 0.39710477 0.766702056
vt 0.398583204 0.76672405
vt 0.391190499 0.73919034
vt 0.39710477 0.714660168
vt 0.398583174 0.714682162
vt 0.400061637 0.742171884
vt 0.404497474 0.76672405
vt 0.405975908 0.766702056
vt 0.398583204 0.742193878
vt 0.404497474 0.714682162
vt 0.405975908 0.714660168
vt 0.89213264 0.788671374
vt 0.882776141 0.777489901
vt 0.882776141 0.788671374
vt 0.89213264 0.777489901
vt 0.901489139 0.771899104
vt 0.895434976 0.771899104
vt 0.901489139 0.782521546
vt 0.89213264 0.782521546
vt 0.895434976 0.766308367
vt 0.89213264 0.752331495
vt 0.901489139 0.752331495
vt 0.901489139 0.766308367
vt 0.0482572019 0.757587373
vt 0.0576137304 0.757587373
vt 0.0482572019 0.712861359
vt 0.070822984 0.712861359
vt 0.070822984 0.757587373
vt 0.823334575 0.778608024
vt 0.823334575 0.770221889
vt 0.821133018 0.778608024
vt 0.817280293 0.770221889
vt 0.813978016 0.778608024
vt 0.813978016 0.762394845
vt 0.817280293 0.764631152
vt 0.823334575 0.762394845
vt 0.823334575 0.764631152
vt 0.609205604 0.745983124
vt 0.609205604 0.750176191
vt 0.610306323 0.745983124
vt 0.610306323 0.750176191
vt 0.609205604 0.755766928
vt 0.610306323 0.755766928
vt 0.878923416 0.778608024
vt 0.876721859 0.780844331
vt 0.878923416 0.780844331
vt 0.872869134 0.778608024
vt 0.869566917 0.780844331
vt 0.872869134 0.773017287
vt 0.869566917 0.761276722
vt 0.878923416 0.761276722
vt 0.878923416 0.773017287
vt 0.113001846 0.283216864
vt 0.128962994 0.293839365
vt 0.128962994 0.283216864
vt 0.128962994 0.299430043
vt 0.113001846 0.313406974
vt 0.128962994 0.313406974
vt 0.130063772 0.293839365
vt 0.130063772 0.299430043
vt 0.138319522 0.301666409
vt 0.130063772 0.301666409
vt 0.146024913 0.293839365
vt 0.146024913 0.289646298
vt 0.146024913 0.287409931
vt 0.130063772 0.28209874
vt 0.146024913 0.283216864
vt 0.143823385 0.301666409
vt 0.146024913 0.301666409
vt 0.138319522 0.302784532
vt 0.143823385 0.302784532
vt 0.146024913 0.313406974
vt 0.146024913 0.302784532
vt 0.131990135 0.313406974
vt 0.130063772 0.302784532
vt 0.130063772 0.313406974
vt 0.143823385 0.270917267
vt 0.146024942 0.270917207
vt 0.128962994 0.270917267
vt 0.122908764 0.270917267
vt 0.120707236 0.270917267
vt 0.113001846 0.28209874
vt 0.115203373 0.270917267
vt 0.113001846 0.270917267
vt 0.115203373 0.269799143
vt 0.120707236 0.269799143
vt 0.619764388 0.744517326
vt 0.618663609 0.748710394
vt 0.619764388 0.748710394
vt 0.618663609 0.744517326
vt 0.618663609 0.734453976
vt 0.619764388 0.734453976
vt 0.343344718 0.279751778
vt 0.362608194 0.295964897
vt 0.362608194 0.279751778
vt 0.332337022 0.29372865
vt 0.332336992 0.295964956
vt 0.332337022 0.262420475
vt 0.343344718 0.262420475
vt 0.899287581 0.685242474
vt 0.893233418 0.683006227
vt 0.893233418 0.685242474
vt 0.902589917 0.683006227
vt 0.899287581 0.690833271
vt 0.901489139 0.693069518
vt 0.895434976 0.693069518
vt 0.893233418 0.690833271
vt 0.893233418 0.693069518
vt 0.895434976 0.699219346
vt 0.901489139 0.70229429
vt 0.893233418 0.699219346
vt 0.895434976 0.70229429
vt 0.902589917 0.714314401
vt 0.895434976 0.704530537
vt 0.893233418 0.714314401
vt 0.901489139 0.704530537
vt 0.901489139 0.714314401
vt 0.902589917 0.716550708
vt 0.895434976 0.714314401
vt 0.893233418 0.716550708
vt 0.869566917 0.761276722
vt 0.86736536 0.761276722
vt 0.869566917 0.769662857
vt 0.863512635 0.769662857
vt 0.860210299 0.761276722
vt 0.860210299 0.777489901
vt 0.863512635 0.775253594
vt 0.869566917 0.777489901
vt 0.869566917 0.775253594
vt 0.0289937258 0.722924709
vt 0.0267921686 0.72627914
vt 0.0422029495 0.722924709
vt 0.0196371675 0.722924709
vt 0.0207379162 0.72627914
vt 0.020737946 0.738299251
vt 0.0152341127 0.741840065
vt 0.0267921984 0.738299251
vt 0.0422029495 0.758705497
vt 0.0196371973 0.758705497
vt 0.0719237626 0.742492318
vt 0.070822984 0.757587373
vt 0.0779779851 0.742492318
vt 0.0719237626 0.732708514
vt 0.0801794827 0.757587373
vt 0.0779779851 0.736901581
vt 0.0933887661 0.757587373
vt 0.0933887064 0.712861359
vt 0.070822984 0.712861359
vt 0.0779779851 0.732708514
vt 0.0719237626 0.730472207
vt 0.0779779851 0.730472207
vt 0.0719237626 0.716215789
vt 0.0779779851 0.72627914
vt 0.0779779851 0.716215789
vt 0.0801794827 0.712861359
vt 0.10659799 0.712861359
vt 0.108799487 0.716215849
vt 0.115954489 0.712861359
vt 0.0933887064 0.712861359
vt 0.11485371 0.716215849
vt 0.120357603 0.731776714
vt 0.108799487 0.725999594
vt 0.11485371 0.725999594
vt 0.108799487 0.72823596
vt 0.11485371 0.72823596
vt 0.11485371 0.737460673
vt 0.115954489 0.748642147
vt 0.10659799 0.73969698
vt 0.108799487 0.737460673
vt 0.0933887661 0.748642147
vt 0.112652212 0.73969698
vt 0.10659799 0.745287716
vt 0.10659799 0.748642147
vt 0.112652212 0.745287716
vt 0.838745356 0.776371717
vt 0.840946853 0.778608024
vt 0.840946853 0.764351606
vt 0.831590295 0.778608024
vt 0.832691073 0.776371717
vt 0.831590295 0.764351606
vt 0.832691073 0.764351606
vt 0.831590295 0.762394845
vt 0.838745356 0.764351606
vt 0.840946853 0.762394845
vt 0.903690696 0.711519063
vt 0.902589917 0.71375531
vt 0.909744978 0.711519063
vt 0.903690696 0.697262585
vt 0.911946535 0.71375531
vt 0.911946535 0.701455653
vt 0.909744978 0.701455653
vt 0.909744978 0.697262585
vt 0.911946535 0.697262585
vt 0.911946535 0.695026338
vt 0.902589917 0.683006227
vt 0.909744978 0.695026338
vt 0.909744978 0.690833271
vt 0.903690696 0.695026338
vt 0.911946535 0.690833271
vt 0.903690696 0.685242474
vt 0.909744978 0.685242474
vt 0.911946535 0.683006227
vn 0.000000 1.000000 0.000000
vn 0.000000 1.000000 0.000000
vn 0.000000 1.000000 0.000000
vn 0.000000 1.000000 0.000000
vn 0.000000 1.000000 0.000000
vn 0.000000 1.000000 0.000000
vn 0.000000 1.000000 0.000000
vn 0.000000 1.000000 0.000000
vn 0.000000 -1.000000 -0.000000
vn 0.000000 -1.000000 -0.000000
vn 0.000000 -1.000000 -0.000000
vn 0.000000 -1.000000 -0.000000
vn 0.000000 1.000000 0.000000
vn 0.000000 1.000000 0.000000
vn 0.000000 1.000000 0.000000
vn 0.000000 1.000000 0.000000
vn 0.000000 1.000000 0.000000
vn 0.000000 1.000000 0.000000
vn 0.000000 1.000000 0.000000
vn 0.000000 1.000000 0.000000
vn 0.000000 1.000000 0.000000
vn 0.000000 1.000000 0.000000
vn 0.000000 1.000000 0.000000
vn 0.000000 1.000000 0.000000
vn 0.000000 -1.000000 -0.000000
vn 0.000000 -1.000000 -0.000000
vn 0.000000 -1.000000 -0.000000
vn 0.000000 -1.000000 -0.000000
vn 1.000000 0.000000 0.000000
vn 1.000000 0.000000 0.000000
vn 1.000000 0.000000 0.000000
vn 1.000000 0.000000 0.000000
vn 0.000000 -1.000000 -0.000000
vn 0.000000 -1.000000 -0.000000
vn 0.000000 -1.000000 -0.000000
vn 0.000000 -1.000000 -0.000000
vn 0.000000 -0.000000 1.000000
vn 0.000000 -0.000000 1.000000
vn 0.000000 -0.000000 1.000000
vn 0.000000 -0.000000 1.000000
vn 0.000000 -0.000000 1.000000
vn 0.000000 -1.000000 -0.000000
vn 0.000000 -1.000000 -0.000000
vn 0.000000 -1.000000 -0.000000
vn 0.000000 -1.000000 -0.000000
vn 0.000000 -0.000000 1.000000
vn 0.000000 -0.000000 1.000000
vn 0.000000 -0.000000 1.000000
vn 0.000000 -0.000000 1.000000
vn 0.000000 1.000000 0.000000
vn 0.000000 1.000000 0.000000
vn 0.000000 1.000000 0.000000
vn 0.000000 1.000000 0.000000
vn 0.000000 1.000000 0.000000
vn 0.000000 1.000000 0.000000
vn 0.000000 1.000000 0.000000
vn 0.000000 1.000000 0.000000
vn 0.000000 1.000000 0.000000
vn 1.000000 0.000000 0.000000
vn 1.000000 0.000000 0.000000
vn 1.000000 0.000000 0.000000
vn 1.000000 0.000000 0.000000
vn 0.000000 -0.000000 1.000000
vn 0.000000 -0.000000 1.000000
vn 0.000000 -0.000000 1.000000
vn 0.000000 -0.000000 1.000000
vn -1.000000 0.000000 0.000000
vn -1.000000 0.000000 0.000000
vn -1.000000 0.000000 0.000000
vn -1.000000 0.000000 0.000000
vn -1.000000 0.000000 0.000000
vn -1.000000 0.000000 0.000000
vn -1.000000 0.000000 0.000000
vn -1.000000 0.000000 0.000000
vn 0.000000 -1.000000 -0.000000
vn 0.000000 -1.000000 -0.000000
vn 0.000000 -1.000000 -0.000000
vn 0.000000 -1.000000 -0.000000
vn 0.000000 -1.000000 -0.000000
vn 0.000000 -1.000000 -0.000000
vn 0.000000 -1.000000 -0.000000
vn 0.000000 -1.000000 -0.000000
vn -1.000000 0.000000 0.000000
vn -1.000000 0.000000 0.000000
vn -1.000000 0.000000 0.000000
vn -1.000000 0.000000 0.000000
vn -1.000000 0.000000 0.000000
vn -1.000000 0.000000 0.000000
vn -1.000000 0.000000 0.000000
vn -1.000000 0.000000 0.000000
vn 1.000000 0.000000 0.000000
vn 1.000000 0.000000 0.000000
vn 1.000000 0.000000 0.000000
vn 1.000000 0.000000 0.000000
vn 1.000000 0.000000 0.000000
vn 1.000000 0.000000 0.000000
vn 1.000000 0.000000 0.000000
vn 1.000000 0.000000 0.000000
vn 0.000000 -1.000000 -0.000000
vn 0.000000 -1.000000 -0.000000
vn 0.000000 -1.000000 -0.000000
vn 0.000000 -1.000000 -0.000000
vn 0.000000 0.000000 -1.000000
vn 0.000000 0.000000 -1.000000
vn 0.000000 0.000000 -1.000000
vn 0.000000 0.000000 -1.000000
vn 0.000000 0.000000 -1.000000
vn 0.000000 0.000000 -1.000000
vn 0.000000 0.000000 -1.000000
vn 0.000000 0.000000 -1.000000
vn 0.000000 0.000000 -1.000000
vn 1.000000 0.000000 0.000000
vn 1.000000 0.000000 0.000000
vn 1.000000 0.000000 0.000000
vn 1.000000 0.000000 0.000000
vn 0.000000 0.000000 -1.000000
vn 0.000000 0.000000 -1.000000
vn 0.000000 0.000000 -1.000000
vn 0.000000 0.000000 -1.000000
vn 0.000000 0.000000 -1.000000
vn 0.000000 0.000000 -1.000000
vn 0.000000 0.000000 -1.000000
vn 0.000000 0.000000 -1.000000
vn 0.000000 0.000000 -1.000000
vn 0.000000 0.000000 -1.000000
vn 0.000000 0.000000 -1.000000
vn 0.000000 0.000000 -1.000000
vn 0.000000 0.000000 -1.000000
vn 0.000000 0.000000 -1.000000
vn 0.000000 0.000000 -1.000000
vn 0.000000 0.000000 -1.000000
vn 0.000000 0.000000 -1.000000
vn 0.000000 0.000000 -1.000000
vn 0.000000 0.000000 -1.000000
vn 0.000000 0.000000 -1.000000
vn 0.000000 0.000000 -1.000000
vn 0.000000 0.000000 -1.000000
vn 0.000000 0.000000 -1.000000
vn 0.000000 0.000000 -1.000000
vn 0.000000 0.000000 -1.000000
vn 0.000000 0.000000 -1.000000
vn 0.000000 0.000000 -1.000000
vn 0.000000 0.000000 -1.000000
vn 0.000000 0.000000 -1.000000
vn 0.000000 0.000000 -1.000000
vn 0.000000 0.000000 -1.000000
vn 0.000000 0.000000 -1.000000
vn 0.000000 0.999990 0.004506
vn 0.000000 0.999909 0.013518
vn 0.000000 0.999909 0.013518
vn 0.000000 0.999997 0.002253
vn 0.000000 -0.999959 -0.009013
vn 0.000000 -0.999909 -0.013519
vn 0.000000 -0.999909 -0.013519
vn 0.000000 -0.999990 -0.004506
vn 0.000000 -0.013518 0.999909
vn 0.000000 0.230108 0.973165
vn 0.000000 0.230108 0.973165
vn 0.000000 -0.013519 0.999909
vn 0.000000 -0.256333 0.966589
vn 0.000000 -0.256333 0.966589
vn 1.000000 0.000000 0.000000
vn 1.000000 0.000000 0.000000
vn 1.000000 0.000000 0.000000
vn 1.000000 0.000000 0.000000
vn 1.000000 0.000000 0.000000
vn 1.000000 0.000000 0.000000
vn -1.000000 0.000000 0.000000
vn -1.000000 0.000000 0.000000
vn -1.000000 0.000000 0.000000
vn -1.000000 0.000000 0.000000
vn -1.000000 0.000000 0.000000
vn -1.000000 0.000000 0.000000
vn 0.000000 1.000000 0.000000
vn 0.000000 1.000000 0.000000
vn 0.000000 1.000000 0.000000
vn 0.000000 1.000000 0.000000
vn 0.000000 -1.000000 -0.000000
vn 0.000000 -1.000000 -0.000000
vn 0.000000 -1.000000 -0.000000
vn 0.000000 -1.000000 -0.000000
vn 0.000000 -1.000000 -0.000000
vn 0.000000 -1.000000 -0.000000
vn 0.000000 -1.000000 -0.000000
vn 0.000000 -1.000000 -0.000000
vn 0.000000 -0.999959 -0.009013
vn 0.000000 -1.000000 -0.000000
vn 0.000000 -0.999990 -0.004506
vn 0.000000 -1.000000 -0.000000
vn 0.000000 -1.000000 -0.000000
vn -1.000000 0.000000 0.000000
vn -1.000000 0.000000 0.000000
vn -1.000000 0.000000 0.000000
vn -1.000000 0.000000 0.000000
vn -1.000000 0.000000 0.000000
vn -1.000000 0.000000 0.000000
vn -1.000000 0.000000 0.000000
vn -1.000000 0.000000 0.000000
vn -1.000000 0.000000 0.000000
vn 0.000000 -0.000000 1.000000
vn 0.000000 -0.000000 1.000000
vn 0.000000 -0.000000 1.000000
vn 0.000000 -0.000000 1.000000
vn 0.000000 -0.000000 1.000000
vn 0.000000 -0.000000 1.000000
vn 0.000000 1.000000 0.000000
vn 0.000000 1.000000 0.000000
vn 0.000000 1.000000 0.000000
vn 0.000000 1.000000 0.000000
vn 0.000000 1.000000 0.000000
vn 0.000000 1.000000 0.000000
vn 0.000000 1.000000 0.000000
vn 0.000000 1.000000 0.000000
vn 0.000000 1.000000 0.000000
vn 0.000000 -0.000000 1.000000
vn 0.000000 -0.000000 1.000000
vn 0.000000 -0.000000 1.000000
vn 0.000000 -0.000000 1.000000
vn 0.000000 -0.000000 1.000000
vn 0.000000 -0.000000 1.000000
vn 0.000000 -0.000000 1.000000
vn 0.000000 -0.000000 1.000000
vn 0.000000 -0.000000 1.000000
vn 0.000000 -0.000000 1.000000
vn 0.000000 -0.000000 1.000000
vn 0.000000 -0.000000 1.000000
vn 0.000000 -0.000000 1.000000
vn 0.000000 -0.000000 1.000000
vn 0.000000 -0.000000 1.000000
vn 0.000000 -0.000000 1.000000
vn 0.000000 -0.000000 1.000000
vn 0.000000 -0.000000 1.000000
vn 0.000000 -0.000000 1.000000
vn 0.000000 -0.000000 1.000000
vn 0.000000 -0.000000 1.000000
vn 0.000000 -0.000000 1.000000
vn 0.000000 -0.000000 1.000000
vn 0.000000 -0.000000 1.000000
vn 0.000000 -0.000000 1.000000
vn 0.000000 -0.000000 1.000000
vn 0.000000 -0.000000 1.000000
vn 0.000000 -0.000000 1.000000
vn 0.000000 -0.000000 1.000000
vn 0.000000 -0.000000 1.000000
vn 0.000000 -0.000000 1.000000
vn 0.000000 -0.000000 1.000000
vn 0.000000 -0.000000 1.000000
vn 0.000000 -0.000000 1.000000
vn 0.000000 -0.000000 1.000000
vn 0.000000 -0.000000 1.000000
vn 0.000000 -0.000000 1.000000
vn 0.000000 -0.000000 1.000000
vn 0.000000 -0.000000 1.000000
vn 0.000000 -0.000000 1.000000
vn 0.000000 0.000000 -1.000000
vn 0.000000 0.000000 -1.000000
vn 0.000000 0.000000 -1.000000
vn 0.000000 0.000000 -1.000000
vn 0.000000 0.000000 -1.000000
vn 0.000000 0.000000 -1.000000
vn 0.000000 0.000000 -1.000000
vn -1.000000 0.000000 0.000000
vn -1.000000 0.000000 0.000000
vn -1.000000 0.000000 0.000000
vn -1.000000 0.000000 0.000000
vn -1.000000 0.000000 0.000000
vn -1.000000 0.000000 0.000000
vn -1.000000 0.000000 0.000000
vn -1.000000 0.000000 0.000000
vn -1.000000 0.000000 0.000000
vn -1.000000 0.000000 0.000000
vn -1.000000 0.000000 0.000000
vn -1.000000 0.000000 0.000000
vn -1.000000 0.000000 0.000000
vn -1.000000 0.000000 0.000000
vn -1.000000 0.000000 0.000000
vn -1.000000 0.000000 0.000000
vn -1.000000 0.000000 0.000000
vn -1.000000 0.000000 0.000000
vn -1.000000 0.000000 0.000000
vn -1.000000 0.000000 0.000000
vn -1.000000 0.000000 0.000000
vn 1.000000 0.000000 0.000000
vn 1.000000 0.000000 0.000000
vn 1.000000 0.000000 0.000000
vn 1.000000 0.000000 0.000000
vn 1.000000 0.000000 0.000000
vn 1.000000 0.000000 0.000000
vn 1.000000 0.000000 0.000000
vn 1.000000 0.000000 0.000000
vn 1.000000 0.000000 0.000000
vn -1.000000 0.000000 0.000000
vn -1.000000 0.000000 0.000000
vn -1.000000 0.000000 0.000000
vn -1.000000 0.000000 0.000000
vn -1.000000 0.000000 0.000000
vn -1.000000 0.000000 0.000000
vn -1.000000 0.000000 0.000000
vn -1.000000 0.000000 0.000000
vn -1.000000 0.000000 0.000000
vn -1.000000 0.000000 0.000000
vn 0.000000 1.000000 0.000000
vn 0.000000 0.999990 0.004506
vn 0.000000 1.000000 0.000000
vn 0.000000 1.000000 0.000000
vn 0.000000 1.000000 0.000000
vn 0.000000 1.000000 0.000000
vn 0.000000 1.000000 0.000000
vn 0.000000 1.000000 0.000000
vn 0.000000 0.999997 0.002253
vn 0.000000 1.000000 0.000000
vn 0.000000 1.000000 0.000000
vn 0.000000 1.000000 0.000000
vn 0.000000 1.000000 0.000000
vn 0.000000 1.000000 0.000000
vn 0.000000 1.000000 0.000000
vn 0.000000 1.000000 0.000000
vn 1.000000 0.000000 0.000000
vn 1.000000 0.000000 0.000000
vn 1.000000 0.000000 0.000000
vn 1.000000 0.000000 0.000000
vn 1.000000 0.000000 0.000000
vn 1.000000 0.000000 0.000000
vn 1.000000 0.000000 0.000000
vn 1.000000 0.000000 0.000000
vn 1.000000 0.000000 0.000000
vn 1.000000 0.000000 0.000000
vn 1.000000 0.000000 0.000000
vn 1.000000 0.000000 0.000000
vn 1.000000 0.000000 0.000000
vn 1.000000 0.000000 0.000000
vn 1.000000 0.000000 0.000000
vn 1.000000 0.000000 0.000000
vn 1.000000 0.000000 0.000000
vn 1.000000 0.000000 0.000000
vn 1.000000 0.000000 0.000000
vn 1.000000 0.000000 0.000000
vn 1.000000 0.000000 0.000000
vn 1.000000 0.000000 0.000000
vn 1.000000 0.000000 0.000000
vn 1.000000 0.000000 0.000000
vn 1.000000 0.000000 0.000000
vn 1.000000 0.000000 0.000000
vn 1.000000 0.000000 0.000000
vn 1.000000 0.000000 0.000000
vn 1.000000 0.000000 0.000000
vn 0.000000 -1.000000 -0.000000
vn 0.000000 -1.000000 -0.000000
vn 0.000000 -1.000000 -0.000000
vn 0.000000 -1.000000 -0.000000
vn 0.000000 -1.000000 -0.000000
vn 0.000000 -1.000000 -0.000000
vn 0.000000 -1.000000 -0.000000
vn 0.000000 -1.000000 -0.000000
vn 0.000000 -1.000000 -0.000000
vn 0.000000 -1.000000 -0.000000
vn 0.000000 -1.000000 -0.000000
vn 0.000000 -1.000000 -0.000000
vn 0.000000 -1.000000 -0.000000
vn 0.000000 -1.000000 -0.000000
vn 0.000000 -1.000000 -0.000000
vn 0.000000 -1.000000 -0.000000
vn 0.000000 -1.000000 -0.000000
vn 0.000000 -1.000000 -0.000000
f 3/3/3 2/2/2 1/1/1
f 1/1/1 2/2/2 4/4/4
f 7/7/7 6/6/6 5/5/5
f 5/5/5 6/6/6 8/8/8
f 11/11/11 10/10/10 9/9/9
f 9/9/9 10/10/10 12/12/12
f 15/15/15 14/14/14 13/13/13
f 13/13/13 14/14/14 16/16/16
f 19/19/19 18/18/18 17/17/17
f 17/17/17 18/18/18 20/20/20
f 23/23/23 22/22/22 21/21/21
f 21/21/21 22/22/22 24/24/24
f 27/27/27 26/26/26 25/25/25
f 25/25/25 26/26/26 28/28/28
f 31/31/31 30/30/30 29/29/29
f 29/29/29 30/30/30 32/32/32
f 35/35/35 34/34/34 33/33/33
f 33/33/33 34/34/34 36/36/36
f 39/39/39 38/38/38 37/37/37
f 38/38/38 39/39/39 40/40/40
f 41/41/41 40/40/40 39/39/39
f 44/44/44 43/43/43 42/42/42
f 42/42/42 43/43/43 45/45/45
f 48/48/48 47/47/47 46/46/46
f 46/46/46 47/47/47 49/49/49
f 52/52/52 51/51/51 50/50/50
f 50/50/50 51/51/51 53/53/53
f 54/54/54 53/53/53 51/51/51
f 57/57/57 56/56/56 55/55/55
f 55/55/55 56/56/56 58/58/58
f 61/61/61 60/60/60 59/59/59
f 59/59/59 60/60/60 62/62/62
f 65/65/65 64/64/64 63/63/63
f 63/63/63 64/64/64 66/66/66
f 69/69/69 68/68/68 67/67/67
f 67/67/67 68/68/68 70/70/70
f 73/73/73 72/72/72 71/71/71
f 71/71/71 72/72/72 74/74/74
f 77/77/77 76/76/76 75/75/75
f 75/75/75 76/76/76 78/78/78
f 81/81/81 80/80/80 79/79/79
f 79/79/79 80/80/80 82/82/82
f 85/85/85 84/84/84 83/83/83
f 83/83/83 84/84/84 86/86/86
f 89/89/89 88/88/88 87/87/87
f 87/87/87 88/88/88 90/90/90
f 93/93/93 92/92/92 91/91/91
f 91/91/91 92/92/92 94/94/94
f 97/97/97 96/96/96 95/95/95
f 95/95/95 96/96/96 98/98/98
f 101/101/101 100/100/100 99/99/99
f 99/99/99 100/100/100 102/102/102
f 105/105/105 104/104/104 103/103/103
f 103/103/103 104/104/104 106/106/106
f 109/109/109 108/108/108 107/107/107
f 107/107/107 108/108/108 110/110/110
f 111/111/111 110/110/110 108/108/108
f 114/114/114 113/113/113 112/112/112
f 112/112/112 113/113/113 115/115/115
f 118/118/118 117/117/117 116/116/116
f 116/116/116 117/117/117 119/119/119
f 122/122/122 121/121/121 120/120/120
f 120/120/120 121/121/121 123/123/123
f 126/126/126 125/125/125 124/124/124
f 124/124/124 125/125/125 127/127/127
f 130/130/130 129/129/129 128/128/128
f 128/128/128 129/129/129 131/131/131
f 134/134/134 133/133/133 132/132/132
f 132/132/132 133/133/133 135/135/135
f 138/138/138 137/137/137 136/136/136
f 136/136/136 137/137/137 139/139/139
f 142/142/142 141/141/141 140/140/140
f 140/140/140 141/141/141 143/143/143
f 146/146/146 145/145/145 144/144/144
f 144/144/144 145/145/145 147/147/147
f 150/150/150 149/149/149 148/148/148
f 148/148/148 149/149/149 151/151/151
f 154/154/154 153/153/153 152/152/152
f 152/152/152 153/153/153 155/155/155
f 158/158/158 157/157/157 156/156/156
f 156/156/156 157/157/157 159/159/159
f 159/159/159 160/160/160 156/156/156
f 156/156/156 160/160/160 161/161/161
f 164/164/164 163/163/163 162/162/162
f 162/162/162 163/163/163 165/165/165
f 165/165/165 166/166/166 162/162/162
f 162/162/162 166/166/166 167/167/167
f 170/170/170 169/169/169 168/168/168
f 168/168/168 169/169/169 171/171/171
f 171/171/171 172/172/172 168/168/168
f 168/168/168 172/172/172 173/173/173
f 176/176/176 175/175/175 174/174/174
f 174/174/174 175/175/175 177/177/177
f 180/180/180 179/179/179 178/178/178
f 180/180/180 181/181/181 179/179/179
f 179/179/179 181/181/181 182/182/182
f 183/183/183 182/182/182 181/181/181
f 184/184/184 182/182/182 183/183/183
f 185/185/185 182/182/182 184/184/184
f 188/188/188 187/187/187 186/186/186
f 187/187/187 188/188/188 189/189/189
f 190/190/190 187/187/187 189/189/189
f 193/193/193 192/192/192 191/191/191
f 193/193/193 194/194/194 192/192/192
f 193/193/193 195/195/195 194/194/194
f 196/196/196 194/194/194 195/195/195
f 197/197/197 194/194/194 196/196/196
f 198/198/198 197/197/197 196/196/196
f 199/199/199 197/197/197 198/198/198
f 202/202/202 201/201/201 200/200/200
f 202/202/202 203/203/203 201/201/201
f 204/204/204 201/201/201 203/203/203
f 205/205/205 204/204/204 203/203/203
f 208/208/208 207/207/207 206/206/206
f 207/207/207 209/209/209 206/206/206
f 207/207/207 210/210/210 209/209/209
f 211/211/211 209/209/209 210/210/210
f 212/212/212 211/211/211 210/210/210
f 213/213/213 211/211/211 212/212/212
f 214/214/214 211/211/211 213/213/213
f 217/217/217 216/216/216 215/215/215
f 216/216/216 218/218/218 215/215/215
f 215/215/215 218/218/218 219/219/219
f 220/220/220 219/219/219 218/218/218
f 216/216/216 221/221/221 218/218/218
f 218/218/218 221/221/221 222/222/222
f 222/222/222 221/221/221 223/223/223
f 222/222/222 223/223/223 224/224/224
f 225/225/225 223/223/223 221/221/221
f 225/225/225 221/221/221 226/226/226
f 227/227/227 226/226/226 221/221/221
f 221/221/221 228/228/228 227/227/227
f 227/227/227 228/228/228 229/229/229
f 230/230/230 223/223/223 225/225/225
f 231/231/231 230/230/230 225/225/225
f 223/223/223 230/230/230 232/232/232
f 233/233/233 232/232/232 230/230/230
f 234/234/234 232/232/232 233/233/233
f 235/235/235 234/234/234 233/233/233
f 236/236/236 232/232/232 234/234/234
f 237/237/237 232/232/232 236/236/236
f 238/238/238 237/237/237 236/236/236
f 229/229/229 228/228/228 239/239/239
f 240/240/240 229/229/229 239/239/239
f 241/241/241 239/239/239 228/228/228
f 242/242/242 241/241/241 228/228/228
f 243/243/243 242/242/242 228/228/228
f 244/244/244 243/243/243 228/228/228
f 245/245/245 243/243/243 244/244/244
f 246/246/246 245/245/245 244/244/244
f 247/247/247 243/243/243 245/245/245
f 248/248/248 243/243/243 247/247/247
f 251/251/251 250/250/250 249/249/249
f 252/252/252 249/249/249 250/250/250
f 252/252/252 253/253/253 249/249/249
f 254/254/254 249/249/249 253/253/253
f 257/257/257 256/256/256 255/255/255
f 256/256/256 258/258/258 255/255/255
f 259/259/259 258/258/258 256/256/256
f 260/260/260 255/255/255 258/258/258
f 261/261/261 255/255/255 260/260/260
f 264/264/264 263/263/263 262/262/262
f 263/263/263 265/265/265 262/262/262
f 262/262/262 265/265/265 266/266/266
f 266/266/266 265/265/265 267/267/267
f 268/268/268 266/266/266 267/267/267
f 269/269/269 266/266/266 268/268/268
f 270/270/270 269/269/269 268/268/268
f 268/268/268 271/271/271 270/270/270
f 265/265/265 272/272/272 267/267/267
f 270/270/270 271/271/271 273/273/273
f 271/271/271 274/274/274 273/273/273
f 275/275/275 272/272/272 265/265/265
f 273/273/273 274/274/274 276/276/276
f 274/274/274 272/272/272 276/276/276
f 273/273/273 276/276/276 277/277/277
f 276/276/276 272/272/272 278/278/278
f 272/272/272 275/275/275 278/278/278
f 279/279/279 278/278/278 275/275/275
f 280/280/280 279/279/279 275/275/275
f 281/281/281 277/277/277 276/276/276
f 279/279/279 280/280/280 281/281/281
f 277/277/277 281/281/281 282/282/282
f 282/282/282 281/281/281 280/280/280
f 285/285/285 284/284/284 283/283/283
f 285/285/285 286/286/286 284/284/284
f 284/284/284 286/286/286 287/287/287
f 288/288/288 287/287/287 286/286/286
f 289/289/289 288/288/288 286/286/286
f 290/290/290 288/288/288 289/289/289
f 291/291/291 290/290/290 289/289/289
f 294/294/294 293/293/293 292/292/292
f 295/295/295 292/292/292 293/293/293
f 296/296/296 295/295/295 293/293/293
f 297/297/297 295/295/295 296/296/296
f 295/295/295 297/297/297 298/298/298
f 294/294/294 299/299/299 293/293/293
f 298/298/298 297/297/297 299/299/299
f 299/299/299 294/294/294 300/300/300
f 298/298/298 299/299/299 301/301/301
f 301/301/301 299/299/299 300/300/300
f 304/304/304 303/303/303 302/302/302
f 302/302/302 303/303/303 305/305/305
f 306/306/306 303/303/303 304/304/304
f 307/307/307 306/306/306 304/304/304
f 307/307/307 308/308/308 306/306/306
f 307/307/307 309/309/309 308/308/308
f 310/310/310 305/305/305 303/303/303
f 307/307/307 311/311/311 309/309/309
f 311/311/311 305/305/305 312/312/312
f 312/312/312 305/305/305 310/310/310
f 313/313/313 311/311/311 312/312/312
f 313/313/313 309/309/309 311/311/311
f 314/314/314 312/312/312 310/310/310
f 315/315/315 309/309/309 313/313/313
f 316/316/316 314/314/314 310/310/310
f 317/317/317 309/309/309 315/315/315
f 317/317/317 316/316/316 310/310/310
f 315/315/315 316/316/316 317/317/317
f 320/320/320 319/319/319 318/318/318
f 319/319/319 321/321/321 318/318/318
f 320/320/320 322/322/322 319/319/319
f 323/323/323 322/322/322 320/320/320
f 319/319/319 324/324/324 321/321/321
f 322/322/322 323/323/323 325/325/325
f 321/321/321 324/324/324 326/326/326
f 325/325/325 326/326/326 324/324/324
f 323/323/323 327/327/327 325/325/325
f 327/327/327 326/326/326 325/325/325
f 328/328/328 327/327/327 323/323/323
f 323/323/323 329/329/329 328/328/328
f 330/330/330 321/321/321 326/326/326
f 331/331/331 330/330/330 326/326/326
f 321/321/321 330/330/330 332/332/332
f 331/331/331 333/333/333 330/330/330
f 331/331/331 328/328/328 333/333/333
f 334/334/334 332/332/332 330/330/330
f 335/335/335 332/332/332 334/334/334
f 333/333/333 328/328/328 336/336/336
f 329/329/329 336/336/336 328/328/328
f 334/334/334 336/336/336 335/335/335
f 335/335/335 336/336/336 329/329/329
f 339/339/339 338/338/338 337/337/337
f 340/340/340 337/337/337 338/338/338
f 341/341/341 337/337/337 340/340/340
f 342/342/342 341/341/341 340/340/340
f 343/343/343 341/341/341 342/342/342
f 342/342/342 344/344/344 343/343/343
f 339/339/339 337/337/337 345/345/345
f 344/344/344 345/345/345 343/343/343
f 345/345/345 346/346/346 339/339/339
f 346/346/346 345/345/345 344/344/344
f 349/349/349 348/348/348 347/347/347
f 347/347/347 348/348/348 350/350/350
f 351/351/351 348/348/348 349/349/349
f 352/352/352 351/351/351 349/349/349
f 353/353/353 352/352/352 349/349/349
f 353/353/353 354/354/354 352/352/352
f 352/352/352 354/354/354 355/355/355
f 354/354/354 356/356/356 355/355/355
f 348/348/348 357/357/357 350/350/350
f 354/354/354 358/358/358 356/356/356
f 354/354/354 350/350/350 358/358/358
f 358/358/358 359/359/359 356/356/356
f 358/358/358 350/350/350 360/360/360
f 350/350/350 357/357/357 360/360/360
f 356/356/356 359/359/359 361/361/361
f 360/360/360 357/357/357 362/362/362
f 359/359/359 363/363/363 361/361/361
f 363/363/363 362/362/362 357/357/357
f 361/361/361 363/363/363 364/364/364
f 363/363/363 357/357/357 364/364/364
