v -160.000000 0.000000 -0.000000
v -160.000000 160.000000 -0.000000
v 0.000000 160.000000 -0.000000
v 0.000000 0.000000 -0.000000
v -160.000000 -160.000000 -0.000000
v 160.000000 160.000000 -0.000000
v 0.000000 -160.000000 -0.000000
v 160.000000 0.000000 -0.000000
v 160.000000 -160.000000 -0.000000
vt 0.00319999992 16.0000019
vt 0.00319999992 31.9968014
vt 16 31.9968014
vt 16 16.0000019
vt 0.00319999992 0.00320199993
vt 31.9968014 31.9968014
vt 16 0.00320099993
vt 31.9967995 16
vt 31.9967995 0.00319999992
vn 0.000000 -0.000000 1.000000
vn 0.000000 -0.000000 1.000000
vn 0.000000 -0.000000 1.000000
vn 0.000000 -0.000000 1.000000
vn 0.000000 -0.000000 1.000000
vn 0.000000 -0.000000 1.000000
vn 0.000000 -0.000000 1.000000
vn 0.000000 -0.000000 1.000000
vn 0.000000 -0.000000 1.000000
f 3/3/3 2/2/2 1/1/1
f 4/4/4 3/3/3 1/1/1
f 4/4/4 1/1/1 5/5/5
f 6/6/6 3/3/3 4/4/4
f 7/7/7 4/4/4 5/5/5
f 8/8/8 6/6/6 4/4/4
f 8/8/8 4/4/4 7/7/7
f 9/9/9 8/8/8 7/7/7
