g Model_0
v -0.500000 -0.438504 2.473373
v -0.500000 -0.438504 1.958509
v -0.500000 -0.061496 1.958509
v -0.500000 -0.061496 2.473373
v -0.500000 -0.061496 2.473373
v -0.500000 -0.061496 1.958509
v 0.500000 -0.061496 1.958509
v 0.500000 -0.061496 2.473373
v 0.500000 -0.061496 2.473373
v 0.500000 -0.061496 1.958509
v 0.500000 -0.438504 1.958509
v 0.500000 -0.438504 2.473373
v 0.500000 -0.438504 2.473373
v 0.500000 -0.438504 1.958509
v -0.500000 -0.438504 1.958509
v -0.500000 -0.438504 2.473373
v 0.500000 -0.438504 2.473373
v -0.500000 -0.438504 2.473373
v -0.500000 -0.061496 2.473373
v 0.500000 -0.061496 2.473373
v 1.000000 0.500000 0.000000
v -1.000000 0.500000 0.000000
v -1.000000 -0.500000 0.000000
v 1.000000 -0.500000 0.000000
v 0.507500 0.449400 1.230147
v 0.507501 0.132023 1.833799
v 0.409501 0.132023 1.833800
v 0.409500 0.449400 1.230147
v 1.000000 0.500000 1.000000
v -1.000000 0.500000 0.000000
v 1.000000 0.500000 0.000000
v -1.000000 0.500000 1.000000
v -1.000000 0.000000 2.000000
v 1.000000 0.000000 2.000000
v 1.000000 0.000000 2.000000
v 0.999999 -0.500000 2.000000
v -1.000000 -0.500000 2.000000
v -1.000000 0.000000 2.000000
v -0.203999 0.265582 1.579771
v -0.355499 0.236264 1.635534
v -0.497624 0.264767 1.581320
v -0.357499 0.272096 1.567379
v -0.275999 0.285534 1.541821
v -0.432499 0.286057 1.540826
v -0.236500 0.323752 1.469131
v -0.462500 0.323752 1.469131
v -0.145500 0.342366 1.433726
v -0.550500 0.351208 1.416909
v -0.234500 0.351208 1.416909
v -0.283000 0.398152 1.327622
v -0.202000 0.419616 1.286796
v -0.385500 0.414032 1.297418
v -0.542500 0.428923 1.269094
v -0.464750 0.407400 1.310031
v -0.542500 0.388902 1.345214
v -0.461250 0.447538 1.233689
v -0.363500 0.453588 1.222182
v 1.000000 -0.500000 0.000000
v -1.000000 -0.500000 0.000000
v -1.000000 -0.500000 2.000000
v 0.999999 -0.500000 2.000000
v 1.000000 0.500000 0.000000
v 1.000000 -0.500000 0.000000
v 0.999999 -0.500000 2.000000
v 1.000000 0.000000 2.000000
v 1.000000 0.500000 1.000000
v -1.000000 0.000000 2.000000
v -1.000000 -0.500000 2.000000
v -1.000000 -0.500000 0.000000
v -1.000000 0.500000 0.000000
v -1.000000 0.500000 1.000000
v -0.008875 0.449982 1.229042
v 0.064500 0.453588 1.222182
v 0.228750 0.424271 1.277944
v -0.069500 0.441489 1.245195
v 0.049500 0.414498 1.296532
v -0.007375 0.411007 1.303170
v -0.069500 0.400537 1.323086
v 0.160000 0.396058 1.331605
v 0.292500 0.348882 1.421334
v 0.201500 0.345159 1.428415
v 0.232501 0.266745 1.577557
v 0.163376 0.293911 1.525889
v 0.064501 0.274424 1.562953
v -0.059499 0.250690 1.608094
v 0.007001 0.278728 1.554766
v -0.059499 0.294900 1.524008
v 0.070501 0.236264 1.635533
v 0.002126 0.240161 1.628120
v 0.507500 0.449400 1.230147
v 0.507500 0.272376 1.137075
v 0.507501 -0.045001 1.740727
v 0.507501 0.132023 1.833799
v 0.507501 0.132023 1.833799
v 0.507501 -0.045001 1.740727
v 0.409501 -0.045001 1.740727
v 0.409501 0.132023 1.833800
v 0.409501 0.132023 1.833800
v 0.409501 -0.045001 1.740727
v 0.409500 0.272376 1.137075
v 0.409500 0.449400 1.230147
v 0.409500 0.449400 1.230147
v 0.409500 0.272376 1.137075
v 0.507500 0.272376 1.137075
v 0.507500 0.449400 1.230147
v 0.064501 0.274424 1.562953
v 0.163376 0.116887 1.432816
v 0.163376 0.293911 1.525889
v 0.064501 0.097400 1.469881
v 0.007001 0.278728 1.554766
v 0.007001 0.101704 1.461694
v -0.059499 0.294900 1.524008
v -0.059499 0.117875 1.430936
v 0.163376 0.293911 1.525889
v 0.163376 0.116887 1.432816
v 0.201500 0.168135 1.335342
v 0.201500 0.345159 1.428415
v 0.160000 0.219034 1.238532
v 0.160000 0.396058 1.331605
v 0.160000 0.396058 1.331605
v 0.160000 0.219034 1.238532
v 0.049500 0.237474 1.203460
v 0.049500 0.414498 1.296532
v -0.007375 0.233983 1.210098
v -0.007375 0.411007 1.303170
v -0.069500 0.223513 1.230013
v -0.069500 0.400537 1.323086
v -0.069500 0.400537 1.323086
v -0.069500 0.223513 1.230013
v -0.069500 0.264465 1.152123
v -0.069500 0.441489 1.245195
v -0.069500 0.441489 1.245195
v -0.069500 0.264465 1.152123
v -0.008875 0.272958 1.135969
v -0.008875 0.449982 1.229042
v 0.064500 0.276564 1.129109
v 0.064500 0.453588 1.222182
v 0.228750 0.247246 1.184872
v 0.228750 0.424271 1.277944
v 0.228750 0.424271 1.277944
v 0.228750 0.247246 1.184872
v 0.292500 0.171858 1.328261
v 0.292500 0.348882 1.421334
v 0.232501 0.089721 1.484485
v 0.232501 0.266745 1.577557
v 0.232501 0.266745 1.577557
v 0.232501 0.089721 1.484485
v 0.070501 0.059240 1.542461
v 0.070501 0.236264 1.635533
v 0.002126 0.063137 1.535048
v 0.002126 0.240161 1.628120
v -0.059499 0.073666 1.515022
v -0.059499 0.250690 1.608094
v -0.059499 0.250690 1.608094
v -0.059499 0.073666 1.515022
v -0.059499 0.117875 1.430936
v -0.059499 0.294900 1.524008
v -0.363500 0.453588 1.222182
v -0.202000 0.242592 1.193724
v -0.202000 0.419616 1.286796
v -0.363500 0.276564 1.129110
v -0.461250 0.447538 1.233689
v -0.461250 0.270514 1.140617
v -0.542500 0.428923 1.269094
v -0.542500 0.251899 1.176022
v -0.202000 0.419616 1.286796
v -0.202000 0.242592 1.193724
v -0.145500 0.165342 1.340653
v -0.145500 0.342366 1.433726
v -0.203999 0.088557 1.486698
v -0.203999 0.265582 1.579771
v -0.203999 0.265582 1.579771
v -0.203999 0.088557 1.486698
v -0.355499 0.059240 1.542461
v -0.355499 0.236264 1.635534
v -0.355499 0.236264 1.635534
v -0.355499 0.059240 1.542461
v -0.497624 0.087743 1.488248
v -0.497624 0.264767 1.581320
v -0.497624 0.264767 1.581320
v -0.497624 0.087743 1.488248
v -0.550500 0.174184 1.323837
v -0.550500 0.351208 1.416909
v -0.550500 0.351208 1.416909
v -0.550500 0.174184 1.323837
v -0.234500 0.174184 1.323836
v -0.234500 0.351208 1.416909
v -0.234500 0.351208 1.416909
v -0.234500 0.174184 1.323836
v -0.283000 0.221127 1.234550
v -0.283000 0.398152 1.327622
v -0.283000 0.398152 1.327622
v -0.283000 0.221127 1.234550
v -0.385500 0.237008 1.204345
v -0.385500 0.414032 1.297418
v -0.464750 0.230376 1.216958
v -0.464750 0.407400 1.310031
v -0.542500 0.211878 1.252142
v -0.542500 0.388902 1.345214
v -0.542500 0.388902 1.345214
v -0.542500 0.211878 1.252142
v -0.542500 0.251899 1.176022
v -0.542500 0.428923 1.269094
v -0.432499 0.286057 1.540826
v -0.432499 0.109033 1.447753
v -0.357499 0.095072 1.474307
v -0.357499 0.272096 1.567379
v -0.275999 0.108510 1.448749
v -0.275999 0.285534 1.541821
v -0.275999 0.285534 1.541821
v -0.275999 0.108510 1.448749
v -0.236500 0.146728 1.376058
v -0.236500 0.323752 1.469131
v -0.236500 0.323752 1.469131
v -0.236500 0.146728 1.376058
v -0.462500 0.146728 1.376059
v -0.462500 0.323752 1.469131
v -0.462500 0.323752 1.469131
v -0.462500 0.146728 1.376059
v -0.432499 0.109033 1.447753
v -0.432499 0.286057 1.540826
vt 0.172620997 0.37134099
vt 0.172620997 0.338281006
vt 0.150730997 0.338281006
vt 0.150730997 0.37134099
vt 0.324921012 0.27067399
vt 0.354465991 0.27067399
vt 0.354465991 0.206462994
vt 0.324921012 0.206462994
vt 0.150730997 0.37134099
vt 0.150730997 0.404401004
vt 0.172620997 0.404401004
vt 0.172620997 0.37134099
vt 0.324921012 0.334885001
vt 0.35481599 0.334885001
vt 0.35481599 0.27067399
vt 0.324921012 0.27067399
vt 0.150730997 0.274069995
vt 0.150730997 0.338281006
vt 0.172620997 0.338281006
vt 0.172620997 0.274069995
vt 0.071415998 0.805335999
vt 0.071415998 0.93375802
vt 0.129480004 0.93375802
vt 0.129480004 0.805335999
vt 0.751703024 0.36717099
vt 0.751703024 0.413253009
vt 0.758314013 0.413253009
vt 0.758314013 0.36717099
vt 0.187543005 0.741877973
vt 0.071415998 0.805335999
vt 0.187543005 0.805335999
vt 0.071415998 0.741877973
vt 0.071415998 0.673518002
vt 0.187543005 0.673518002
vt 0.158511996 0.93375802
vt 0.187543005 0.93375802
vt 0.187543005 0.805335999
vt 0.158511996 0.805335999
vt 0.73923099 0.365878999
vt 0.750223994 0.36717099
vt 0.758314013 0.360561013
vt 0.748932004 0.362129986
vt 0.743111014 0.361761004
vt 0.753243029 0.35879299
vt 0.739031017 0.357154012
vt 0.753693998 0.352973998
vt 0.732388973 0.356238008
vt 0.758314013 0.347510993
vt 0.737811983 0.353356987
vt 0.739095986 0.345903993
vt 0.732989013 0.344404995
vt 0.745115995 0.341791004
vt 0.754710019 0.336807013
vt 0.750519991 0.341250986
vt 0.756299019 0.342395008
vt 0.748700023 0.335709989
vt 0.742118001 0.336674005
vt 0.187543005 0.801940024
vt 0.303671002 0.801940024
vt 0.303671002 0.673518002
vt 0.187544003 0.673518002
vt 0.303671002 0.801940024
vt 0.245607004 0.801940024
vt 0.245607004 0.930361986
vt 0.27463901 0.930361986
vt 0.303671002 0.866150975
vt 0.216574997 0.801940024
vt 0.187543005 0.801940024
vt 0.187544003 0.930361986
vt 0.245607004 0.930361986
vt 0.245607004 0.866150975
vt 0.778177977 0.336080015
vt 0.773214996 0.335709989
vt 0.762273014 0.340308994
vt 0.782303989 0.337184995
vt 0.774402022 0.341351986
vt 0.778252006 0.341738999
vt 0.782487988 0.343127996
vt 0.767035007 0.344260007
vt 0.758314013 0.351384014
vt 0.764465988 0.351732999
vt 0.762728989 0.363178015
vt 0.767266989 0.359091014
vt 0.774021029 0.361712009
vt 0.782487988 0.364895999
vt 0.777877986 0.360965997
vt 0.782289028 0.358480006
vt 0.773787975 0.367262006
vt 0.77838099 0.366553009
vt 0.809469998 0.335709989
vt 0.795979023 0.335709989
vt 0.795979023 0.381689996
vt 0.809469998 0.381689996
vt 0.809469998 0.353116989
vt 0.809469998 0.366629988
vt 0.816078007 0.366629988
vt 0.816078007 0.353116989
vt 0.782487988 0.381763995
vt 0.795979023 0.381763995
vt 0.795979023 0.335709989
vt 0.782487988 0.335709989
vt 0.782361984 0.407804012
vt 0.782361984 0.39429
vt 0.775750995 0.39429
vt 0.775750995 0.407804012
vt 0.809469998 0.373295009
vt 0.822960973 0.366629988
vt 0.809469998 0.366629988
vt 0.822960973 0.373295009
vt 0.809469998 0.37718299
vt 0.822960973 0.37718299
vt 0.809469998 0.381689996
vt 0.822960973 0.381689996
vt 0.758314013 0.426283002
vt 0.771804988 0.426283002
vt 0.771804988 0.418936014
vt 0.758314013 0.418936014
vt 0.771804988 0.411451995
vt 0.758314013 0.411451995
vt 0.732388973 0.425835013
vt 0.745880008 0.425835013
vt 0.745880008 0.418446988
vt 0.732388973 0.418446988
vt 0.745880008 0.414591014
vt 0.732388973 0.414591014
vt 0.745880008 0.410351992
vt 0.732388973 0.410351992
vt 0.782361984 0.421317995
vt 0.782361984 0.407804012
vt 0.776428998 0.407804012
vt 0.776428998 0.421317995
vt 0.745880008 0.390186012
vt 0.732388973 0.390186012
vt 0.732388973 0.39427501
vt 0.745880008 0.39427501
vt 0.732388973 0.39922899
vt 0.745880008 0.39922899
vt 0.732388973 0.410351992
vt 0.745880008 0.410351992
vt 0.771804988 0.367262006
vt 0.758314013 0.367262006
vt 0.758314013 0.378470004
vt 0.771804988 0.378470004
vt 0.758314013 0.390100986
vt 0.771804988 0.390100986
vt 0.795979023 0.421386987
vt 0.809469998 0.421386987
vt 0.809469998 0.410322011
vt 0.795979023 0.410322011
vt 0.809469998 0.405719012
vt 0.795979023 0.405719012
vt 0.809469998 0.401600003
vt 0.795979023 0.401600003
vt 0.815874994 0.349224001
vt 0.815874994 0.335709989
vt 0.809469998 0.335709989
vt 0.809469998 0.349224001
vt 0.745880008 0.379244
vt 0.732388973 0.390186012
vt 0.745880008 0.390186012
vt 0.732388973 0.379244
vt 0.745880008 0.372644991
vt 0.732388973 0.372644991
vt 0.745880008 0.36717099
vt 0.732388973 0.36717099
vt 0.782487988 0.404071003
vt 0.795979023 0.404071003
vt 0.795979023 0.392625988
vt 0.782487988 0.392625988
vt 0.795979023 0.381763995
vt 0.782487988 0.381763995
vt 0.795979023 0.401600003
vt 0.809469998 0.401600003
vt 0.809469998 0.391247988
vt 0.795979023 0.391247988
vt 0.795979023 0.391247988
vt 0.809469998 0.391247988
vt 0.809469998 0.381763995
vt 0.795979023 0.381763995
vt 0.809469998 0.401600003
vt 0.809469998 0.415113986
vt 0.822116971 0.415113986
vt 0.822116971 0.401600003
vt 0.771804988 0.390100986
vt 0.758314013 0.390100986
vt 0.758314013 0.411451995
vt 0.771804988 0.411451995
vt 0.782361984 0.39429
vt 0.782361984 0.380775988
vt 0.775447011 0.380775988
vt 0.775447011 0.39429
vt 0.782487988 0.421635985
vt 0.795979023 0.421635985
vt 0.795979023 0.414777994
vt 0.782487988 0.414777994
vt 0.795979023 0.40939799
vt 0.782487988 0.40939799
vt 0.795979023 0.404071003
vt 0.782487988 0.404071003
vt 0.745904982 0.36717099
vt 0.745904982 0.380685002
vt 0.751703024 0.380685002
vt 0.751703024 0.36717099
vt 0.782361984 0.380775988
vt 0.782361984 0.367262006
vt 0.777291 0.367262006
vt 0.777291 0.380775988
vt 0.771804988 0.367262006
vt 0.771804988 0.380775988
vt 0.751703024 0.407712013
vt 0.751703024 0.394198
vt 0.746258974 0.394198
vt 0.746258974 0.407712013
vt 0.822960973 0.381689996
vt 0.809469998 0.381689996
vt 0.809469998 0.396955013
vt 0.822960973 0.396955013
vt 0.746116996 0.380685002
vt 0.746116996 0.394198
vt 0.751703024 0.394198
vt 0.751703024 0.380685002
vn -1.000000 0.000000 0.000000
vn -1.000000 0.000000 0.000000
vn -1.000000 0.000000 0.000000
vn -1.000000 0.000000 0.000000
vn 0.000000 1.000000 0.000000
vn 0.000000 1.000000 0.000000
vn 0.000000 1.000000 0.000000
vn 0.000000 1.000000 0.000000
vn 1.000000 0.000000 0.000000
vn 1.000000 0.000000 0.000000
vn 1.000000 0.000000 0.000000
vn 1.000000 0.000000 0.000000
vn 0.000000 -1.000000 0.000000
vn 0.000000 -1.000000 0.000000
vn 0.000000 -1.000000 0.000000
vn 0.000000 -1.000000 0.000000
vn 0.000000 0.000000 1.000000
vn 0.000000 0.000000 1.000000
vn 0.000000 0.000000 1.000000
vn 0.000000 0.000000 1.000000
vn 0.000000 0.000000 -1.000000
vn 0.000000 0.000000 -1.000000
vn 0.000000 0.000000 -1.000000
vn 0.000000 0.000000 -1.000000
vn 0.000000 0.885120 0.465362
vn 0.000000 0.885120 0.465362
vn 0.000000 0.885120 0.465362
vn 0.000000 0.885120 0.465362
vn 0.000000 0.973249 0.229753
vn 0.000000 1.000000 0.000000
vn 0.000000 1.000000 0.000000
vn 0.000000 0.973249 0.229753
vn 0.000000 0.894427 0.447214
vn 0.000000 0.894427 0.447214
vn 0.000000 0.000000 1.000000
vn 0.000000 0.000000 1.000000
vn 0.000000 0.000000 1.000000
vn 0.000000 0.000000 1.000000
vn 0.000000 0.885126 0.465351
vn 0.000000 0.885123 0.465358
vn 0.000000 0.885125 0.465353
vn 0.000000 0.885129 0.465346
vn 0.000000 0.885121 0.465361
vn 0.000000 0.885119 0.465365
vn 0.000000 0.885123 0.465358
vn 0.000000 0.885121 0.465361
vn 0.000000 0.885122 0.465360
vn 0.000000 0.885121 0.465361
vn 0.000000 0.885120 0.465362
vn 0.000000 0.885122 0.465359
vn 0.000000 0.885123 0.465358
vn 0.000000 0.885125 0.465353
vn 0.000000 0.885122 0.465359
vn 0.000000 0.885119 0.465365
vn 0.000000 0.885120 0.465362
vn 0.000000 0.885117 0.465368
vn 0.000000 0.885117 0.465368
vn 0.000000 -1.000000 0.000000
vn 0.000000 -1.000000 0.000000
vn 0.000000 -1.000000 0.000000
vn 0.000000 -1.000000 0.000000
vn 1.000000 0.000000 0.000000
vn 1.000000 0.000000 0.000000
vn 1.000000 0.000000 0.000000
vn 1.000000 0.000000 0.000000
vn 1.000000 0.000000 0.000000
vn -1.000000 0.000000 0.000000
vn -1.000000 0.000000 0.000000
vn -1.000000 0.000000 0.000000
vn -1.000000 0.000000 0.000000
vn -1.000000 0.000000 0.000000
vn 0.000000 0.885123 0.465357
vn 0.000000 0.885131 0.465342
vn 0.000000 0.885121 0.465361
vn 0.000000 0.885116 0.465371
vn 0.000000 0.885116 0.465371
vn 0.000000 0.885114 0.465373
vn 0.000000 0.885121 0.465361
vn 0.000000 0.885120 0.465363
vn 0.000000 0.885119 0.465364
vn 0.000000 0.885119 0.465365
vn 0.000000 0.885118 0.465367
vn 0.000000 0.885117 0.465368
vn 0.000000 0.885116 0.465370
vn 0.000000 0.885116 0.465370
vn 0.000000 0.885119 0.465365
vn 0.000000 0.885117 0.465369
vn 0.000000 0.885115 0.465373
vn 0.000000 0.885105 0.465392
vn 1.000000 0.000000 0.000000
vn 1.000000 0.000000 0.000000
vn 1.000000 0.000000 0.000000
vn 1.000000 0.000000 0.000000
vn 0.000000 -0.465363 0.885120
vn 0.000000 -0.465363 0.885120
vn 0.000000 -0.465363 0.885120
vn 0.000000 -0.465363 0.885120
vn -1.000000 0.000000 0.000000
vn -1.000000 0.000000 0.000000
vn -1.000000 0.000000 0.000000
vn -1.000000 0.000000 0.000000
vn 0.000000 0.465361 -0.885121
vn 0.000000 0.465361 -0.885121
vn 0.000000 0.465361 -0.885121
vn 0.000000 0.465361 -0.885121
vn -0.120268 0.461984 -0.878696
vn -0.389982 0.428516 -0.815038
vn -0.389982 0.428516 -0.815038
vn -0.120268 0.461984 -0.878696
vn 0.315053 0.441661 -0.840046
vn 0.315053 0.441661 -0.840046
vn 0.463137 0.412442 -0.784472
vn 0.463137 0.412442 -0.784472
vn -0.944976 0.152239 -0.289557
vn -0.944976 0.152239 -0.289557
vn -0.999892 -0.006834 0.012999
vn -0.999892 -0.006834 0.012999
vn -0.934961 -0.165088 0.313997
vn -0.934961 -0.165088 0.313997
vn -0.337547 -0.438050 0.833171
vn -0.337547 -0.438050 0.833171
vn -0.106397 -0.462720 0.880096
vn -0.106397 -0.462720 0.880096
vn 0.237017 -0.452101 0.859900
vn 0.237017 -0.452101 0.859900
vn 0.340527 -0.437550 0.832221
vn 0.340527 -0.437550 0.832221
vn -1.000000 0.000000 0.000000
vn -1.000000 0.000000 0.000000
vn -1.000000 0.000000 0.000000
vn -1.000000 0.000000 0.000000
vn -0.288254 0.445610 -0.847550
vn -0.288254 0.445610 -0.847550
vn -0.197511 0.456196 -0.867683
vn -0.197511 0.456196 -0.867683
vn 0.130141 0.461405 -0.877592
vn 0.130141 0.461405 -0.877592
vn 0.358121 0.434497 -0.826415
vn 0.358121 0.434497 -0.826415
vn 0.930542 0.170409 -0.324118
vn 0.930542 0.170409 -0.324118
vn 0.999721 0.010987 -0.020898
vn 0.999721 0.010987 -0.020898
vn 0.946791 -0.149777 0.284876
vn 0.946791 -0.149777 0.284876
vn 0.374844 -0.431430 0.820585
vn 0.374844 -0.431430 0.820585
vn 0.130799 -0.461362 0.877517
vn 0.130799 -0.461362 0.877517
vn -0.234663 -0.452366 0.860406
vn -0.234663 -0.452366 0.860406
vn -0.344649 -0.436849 0.830891
vn -0.344649 -0.436849 0.830891
vn -1.000000 0.000000 0.000000
vn -1.000000 0.000000 0.000000
vn -1.000000 0.000000 0.000000
vn -1.000000 0.000000 0.000000
vn 0.145634 0.460399 -0.875685
vn 0.411891 0.424052 -0.806552
vn 0.411891 0.424052 -0.806552
vn 0.145634 0.460399 -0.875685
vn -0.290597 0.445278 -0.846924
vn -0.290597 0.445278 -0.846924
vn -0.441688 0.417507 -0.794103
vn -0.441688 0.417507 -0.794103
vn 0.946668 0.149945 -0.285195
vn 0.946668 0.149945 -0.285195
vn 0.999980 -0.002943 0.005598
vn 0.999980 -0.002943 0.005598
vn 0.942517 -0.155505 0.295771
vn 0.942517 -0.155505 0.295771
vn 0.383967 -0.429692 0.817272
vn 0.383967 -0.429692 0.817272
vn 0.383967 -0.429692 0.817272
vn 0.383967 -0.429692 0.817272
vn -0.395769 -0.427366 0.812850
vn -0.395769 -0.427366 0.812850
vn -0.395769 -0.427366 0.812850
vn -0.395769 -0.427366 0.812850
vn -0.961791 -0.127409 0.242333
vn -0.961791 -0.127409 0.242333
vn -0.961791 -0.127409 0.242333
vn -0.961791 -0.127409 0.242333
vn 0.000000 0.465362 -0.885120
vn 0.000000 0.465362 -0.885120
vn 0.000000 0.465362 -0.885120
vn 0.000000 0.465362 -0.885120
vn -0.901244 -0.201647 0.383533
vn -0.901244 -0.201647 0.383533
vn -0.901244 -0.201647 0.383533
vn -0.901244 -0.201647 0.383533
vn -0.315879 -0.441535 0.839802
vn -0.315879 -0.441535 0.839802
vn -0.071673 -0.464166 0.882843
vn -0.071673 -0.464166 0.882843
vn 0.319556 -0.440963 0.838710
vn 0.319556 -0.440963 0.838710
vn 0.455210 -0.414351 0.788097
vn 0.455210 -0.414351 0.788097
vn -1.000000 0.000000 0.000000
vn -1.000000 0.000000 0.000000
vn -1.000000 0.000000 0.000000
vn -1.000000 0.000000 0.000000
vn 0.371390 0.432078 -0.821813
vn 0.371390 0.432078 -0.821813
vn 0.020002 0.465269 -0.884944
vn 0.020002 0.465269 -0.884944
vn -0.667985 0.346310 -0.658685
vn -0.667985 0.346310 -0.658685
vn -0.667985 0.346310 -0.658685
vn -0.667985 0.346310 -0.658685
vn -0.901185 0.201705 -0.383642
vn -0.901185 0.201705 -0.383642
vn 0.000000 -0.465363 0.885120
vn 0.000000 -0.465363 0.885120
vn 0.000000 -0.465363 0.885120
vn 0.000000 -0.465363 0.885120
vn 0.937745 0.161632 -0.307424
vn 0.937745 0.161632 -0.307424
vn 0.937745 0.161632 -0.307424
vn 0.937745 0.161632 -0.307424
g Model_0_0
f 3/3/3 2/2/2 1/1/1
f 4/4/4 3/3/3 1/1/1
f 7/7/7 6/6/6 5/5/5
f 8/8/8 7/7/7 5/5/5
f 11/11/11 10/10/10 9/9/9
f 12/12/12 11/11/11 9/9/9
f 15/15/15 14/14/14 13/13/13
f 16/16/16 15/15/15 13/13/13
f 19/19/19 18/18/18 17/17/17
f 20/20/20 19/19/19 17/17/17
f 23/23/23 22/22/22 21/21/21
f 24/24/24 23/23/23 21/21/21
f 27/27/27 26/26/26 25/25/25
f 28/28/28 27/27/27 25/25/25
f 31/31/31 30/30/30 29/29/29
f 30/30/30 32/32/32 29/29/29
f 32/32/32 33/33/33 29/29/29
f 33/33/33 34/34/34 29/29/29
f 37/37/37 36/36/36 35/35/35
f 38/38/38 37/37/37 35/35/35
f 41/41/41 40/40/40 39/39/39
f 42/42/42 41/41/41 39/39/39
f 39/39/39 43/43/43 42/42/42
f 41/41/41 42/42/42 44/44/44
f 45/45/45 43/43/43 39/39/39
f 41/41/41 44/44/44 46/46/46
f 45/45/45 39/39/39 47/47/47
f 47/47/47 46/46/46 45/45/45
f 48/48/48 41/41/41 46/46/46
f 46/46/46 49/49/49 48/48/48
f 46/46/46 47/47/47 49/49/49
f 50/50/50 49/49/49 47/47/47
f 50/50/50 47/47/47 51/51/51
f 51/51/51 52/52/52 50/50/50
f 53/53/53 52/52/52 51/51/51
f 53/53/53 54/54/54 52/52/52
f 53/53/53 55/55/55 54/54/54
f 56/56/56 53/53/53 51/51/51
f 51/51/51 57/57/57 56/56/56
f 60/60/60 59/59/59 58/58/58
f 61/61/61 60/60/60 58/58/58
f 64/64/64 63/63/63 62/62/62
f 62/62/62 65/65/65 64/64/64
f 62/62/62 66/66/66 65/65/65
f 69/69/69 68/68/68 67/67/67
f 67/67/67 70/70/70 69/69/69
f 67/67/67 71/71/71 70/70/70
f 74/74/74 73/73/73 72/72/72
f 72/72/72 75/75/75 74/74/74
f 75/75/75 76/76/76 74/74/74
f 75/75/75 77/77/77 76/76/76
f 75/75/75 78/78/78 77/77/77
f 74/74/74 76/76/76 79/79/79
f 79/79/79 80/80/80 74/74/74
f 79/79/79 81/81/81 80/80/80
f 81/81/81 82/82/82 80/80/80
f 81/81/81 83/83/83 82/82/82
f 83/83/83 84/84/84 82/82/82
f 85/85/85 82/82/82 84/84/84
f 85/85/85 84/84/84 86/86/86
f 86/86/86 87/87/87 85/85/85
f 85/85/85 88/88/88 82/82/82
f 85/85/85 89/89/89 88/88/88
f 92/92/92 91/91/91 90/90/90
f 93/93/93 92/92/92 90/90/90
f 96/96/96 95/95/95 94/94/94
f 97/97/97 96/96/96 94/94/94
f 100/100/100 99/99/99 98/98/98
f 101/101/101 100/100/100 98/98/98
f 104/104/104 103/103/103 102/102/102
f 105/105/105 104/104/104 102/102/102
f 108/108/108 107/107/107 106/106/106
f 107/107/107 109/109/109 106/106/106
f 106/106/106 109/109/109 110/110/110
f 109/109/109 111/111/111 110/110/110
f 110/110/110 111/111/111 112/112/112
f 111/111/111 113/113/113 112/112/112
f 116/116/116 115/115/115 114/114/114
f 117/117/117 116/116/116 114/114/114
f 118/118/118 116/116/116 117/117/117
f 119/119/119 118/118/118 117/117/117
f 122/122/122 121/121/121 120/120/120
f 123/123/123 122/122/122 120/120/120
f 124/124/124 122/122/122 123/123/123
f 125/125/125 124/124/124 123/123/123
f 126/126/126 124/124/124 125/125/125
f 127/127/127 126/126/126 125/125/125
f 130/130/130 129/129/129 128/128/128
f 131/131/131 130/130/130 128/128/128
f 134/134/134 133/133/133 132/132/132
f 135/135/135 134/134/134 132/132/132
f 136/136/136 134/134/134 135/135/135
f 137/137/137 136/136/136 135/135/135
f 138/138/138 136/136/136 137/137/137
f 139/139/139 138/138/138 137/137/137
f 142/142/142 141/141/141 140/140/140
f 143/143/143 142/142/142 140/140/140
f 144/144/144 142/142/142 143/143/143
f 145/145/145 144/144/144 143/143/143
f 148/148/148 147/147/147 146/146/146
f 149/149/149 148/148/148 146/146/146
f 150/150/150 148/148/148 149/149/149
f 151/151/151 150/150/150 149/149/149
f 152/152/152 150/150/150 151/151/151
f 153/153/153 152/152/152 151/151/151
f 156/156/156 155/155/155 154/154/154
f 157/157/157 156/156/156 154/154/154
f 160/160/160 159/159/159 158/158/158
f 159/159/159 161/161/161 158/158/158
f 158/158/158 161/161/161 162/162/162
f 161/161/161 163/163/163 162/162/162
f 162/162/162 163/163/163 164/164/164
f 163/163/163 165/165/165 164/164/164
f 168/168/168 167/167/167 166/166/166
f 169/169/169 168/168/168 166/166/166
f 170/170/170 168/168/168 169/169/169
f 171/171/171 170/170/170 169/169/169
f 174/174/174 173/173/173 172/172/172
f 175/175/175 174/174/174 172/172/172
f 178/178/178 177/177/177 176/176/176
f 179/179/179 178/178/178 176/176/176
f 182/182/182 181/181/181 180/180/180
f 183/183/183 182/182/182 180/180/180
f 186/186/186 185/185/185 184/184/184
f 187/187/187 186/186/186 184/184/184
f 190/190/190 189/189/189 188/188/188
f 191/191/191 190/190/190 188/188/188
f 194/194/194 193/193/193 192/192/192
f 195/195/195 194/194/194 192/192/192
f 196/196/196 194/194/194 195/195/195
f 197/197/197 196/196/196 195/195/195
f 198/198/198 196/196/196 197/197/197
f 199/199/199 198/198/198 197/197/197
f 202/202/202 201/201/201 200/200/200
f 203/203/203 202/202/202 200/200/200
f 206/206/206 205/205/205 204/204/204
f 207/207/207 206/206/206 204/204/204
f 208/208/208 206/206/206 207/207/207
f 209/209/209 208/208/208 207/207/207
f 212/212/212 211/211/211 210/210/210
f 213/213/213 212/212/212 210/210/210
f 216/216/216 215/215/215 214/214/214
f 217/217/217 216/216/216 214/214/214
f 220/220/220 219/219/219 218/218/218
f 221/221/221 220/220/220 218/218/218