v -0.500000 -0.438504 2.473373
v -0.500000 -0.438504 1.958509
v -0.500000 -0.061496 1.958509
v -0.500000 -0.061496 2.473373
v -0.500000 -0.061496 2.473373
v -0.500000 -0.061496 1.958509
v 0.500000 -0.061496 1.958509
v 0.500000 -0.061496 2.473373
v 0.500000 -0.061496 2.473373
v 0.500000 -0.061496 1.958509
v 0.500000 -0.438504 1.958509
v 0.500000 -0.438504 2.473373
v 0.500000 -0.438504 2.473373
v 0.500000 -0.438504 1.958509
v -0.500000 -0.438504 1.958509
v -0.500000 -0.438504 2.473373
v 0.500000 -0.438504 2.473373
v -0.500000 -0.438504 2.473373
v -0.500000 -0.061496 2.473373
v 0.500000 -0.061496 2.473373
v 1.000000 0.500000 0.000000
v -1.000000 0.500000 0.000000
v -1.000000 -0.500000 0.000000
v 1.000000 -0.500000 0.000000
v -1.000000 0.500000 1.000000
v -1.000000 0.000000 2.000000
v -1.000000 -0.500000 2.000000
v -1.000000 -0.500000 1.000000
v -1.000000 -0.500000 0.000000
v -1.000000 0.500000 0.000000
v 1.000000 0.500000 0.000000
v 1.000000 -0.500000 0.000000
v 0.999999 -0.500000 1.000000
v 1.000000 0.500000 1.000000
v 1.000000 0.000000 2.000000
v 0.999999 -0.500000 2.000000
v 1.000000 -0.500000 0.000000
v -1.000000 -0.500000 0.000000
v -1.000000 -0.500000 1.000000
v 0.999999 -0.500000 1.000000
v 0.999999 -0.500000 2.000000
v -1.000000 -0.500000 2.000000
v 1.000000 0.500000 1.000000
v -1.000000 0.500000 0.000000
v 1.000000 0.500000 0.000000
v -1.000000 0.500000 1.000000
v -1.000000 0.000000 2.000000
v 1.000000 0.000000 2.000000
v 1.000000 0.000000 2.000000
v 0.999999 -0.500000 2.000000
v -1.000000 -0.500000 2.000000
v -1.000000 0.000000 2.000000
v -0.385500 0.414032 1.297418
v -0.542500 0.388902 1.345214
v -0.542500 0.428923 1.269094
v -0.363500 0.453588 1.222182
v -0.234500 0.351208 1.416909
v -0.145500 0.342366 1.433726
v -0.550500 0.351208 1.416909
v -0.462500 0.323752 1.469131
v -0.236500 0.323752 1.469131
v -0.357499 0.272096 1.567379
v -0.355499 0.236264 1.635534
v 0.064501 0.274424 1.562953
v -0.059499 0.250690 1.608094
v -0.059499 0.294900 1.524008
v 0.070501 0.236264 1.635533
v 0.292500 0.348882 1.421334
v 0.201500 0.345159 1.428415
v 0.049500 0.414498 1.296532
v 0.064500 0.453588 1.222182
v -0.069500 0.441489 1.245195
v -0.069500 0.400537 1.323086
v 0.507500 0.449400 1.230147
v 0.507501 0.132023 1.833799
v 0.409501 0.132023 1.833800
v 0.409500 0.449400 1.230147
v 0.507500 0.449400 1.230147
v 0.507500 0.272376 1.137075
v 0.507501 -0.045001 1.740727
v 0.507501 0.132023 1.833799
v 0.507501 0.132023 1.833799
v 0.507501 -0.045001 1.740727
v 0.409501 -0.045001 1.740727
v 0.409501 0.132023 1.833800
v 0.409501 0.132023 1.833800
v 0.409501 -0.045001 1.740727
v 0.409500 0.272376 1.137075
v 0.409500 0.449400 1.230147
v 0.409500 0.449400 1.230147
v 0.409500 0.272376 1.137075
v 0.507500 0.272376 1.137075
v 0.507500 0.449400 1.230147
v 0.064501 0.274424 1.562953
v 0.064501 0.097400 1.469881
v 0.201500 0.168135 1.335342
v 0.201500 0.345159 1.428415
v 0.201500 0.345159 1.428415
v 0.201500 0.168135 1.335342
v 0.049500 0.237474 1.203460
v 0.049500 0.414498 1.296532
v 0.049500 0.414498 1.296532
v 0.049500 0.237474 1.203460
v -0.069500 0.223513 1.230013
v -0.069500 0.400537 1.323086
v -0.069500 0.400537 1.323086
v -0.069500 0.223513 1.230013
v -0.069500 0.264465 1.152123
v -0.069500 0.441489 1.245195
v -0.069500 0.441489 1.245195
v -0.069500 0.264465 1.152123
v 0.064500 0.276564 1.129109
v 0.064500 0.453588 1.222182
v 0.064500 0.453588 1.222182
v 0.064500 0.276564 1.129109
v 0.292500 0.171858 1.328261
v 0.292500 0.348882 1.421334
v 0.292500 0.348882 1.421334
v 0.292500 0.171858 1.328261
v 0.070501 0.059240 1.542461
v 0.070501 0.236264 1.635533
v 0.070501 0.236264 1.635533
v 0.070501 0.059240 1.542461
v -0.059499 0.073666 1.515022
v -0.059499 0.250690 1.608094
v -0.059499 0.250690 1.608094
v -0.059499 0.073666 1.515022
v -0.059499 0.117875 1.430936
v -0.059499 0.294900 1.524008
v -0.059499 0.294900 1.524008
v -0.059499 0.117875 1.430936
v 0.064501 0.097400 1.469881
v 0.064501 0.274424 1.562953
v -0.363500 0.453588 1.222182
v -0.363500 0.276564 1.129110
v -0.145500 0.165342 1.340653
v -0.145500 0.342366 1.433726
v -0.145500 0.342366 1.433726
v -0.145500 0.165342 1.340653
v -0.355499 0.059240 1.542461
v -0.355499 0.236264 1.635534
v -0.355499 0.236264 1.635534
v -0.355499 0.059240 1.542461
v -0.550500 0.174184 1.323837
v -0.550500 0.351208 1.416909
v -0.550500 0.351208 1.416909
v -0.550500 0.174184 1.323837
v -0.234500 0.174184 1.323836
v -0.234500 0.351208 1.416909
v -0.234500 0.351208 1.416909
v -0.234500 0.174184 1.323836
v -0.385500 0.237008 1.204345
v -0.385500 0.414032 1.297418
v -0.385500 0.414032 1.297418
v -0.385500 0.237008 1.204345
v -0.542500 0.211878 1.252142
v -0.542500 0.388902 1.345214
v -0.542500 0.388902 1.345214
v -0.542500 0.211878 1.252142
v -0.542500 0.251899 1.176022
v -0.542500 0.428923 1.269094
v -0.542500 0.428923 1.269094
v -0.542500 0.251899 1.176022
v -0.363500 0.276564 1.129110
v -0.363500 0.453588 1.222182
v -0.357499 0.272096 1.567379
v -0.357499 0.095072 1.474307
v -0.236500 0.146728 1.376058
v -0.236500 0.323752 1.469131
v -0.236500 0.323752 1.469131
v -0.236500 0.146728 1.376058
v -0.462500 0.146728 1.376059
v -0.462500 0.323752 1.469131
v -0.462500 0.323752 1.469131
v -0.462500 0.146728 1.376059
v -0.357499 0.095072 1.474307
v -0.357499 0.272096 1.567379
vt 0.172620997 0.37134099
vt 0.172620997 0.338281006
vt 0.150730997 0.338281006
vt 0.150730997 0.37134099
vt 0.324921012 0.27067399
vt 0.354465991 0.27067399
vt 0.354465991 0.206462994
vt 0.324921012 0.206462994
vt 0.150730997 0.37134099
vt 0.150730997 0.404401004
vt 0.172620997 0.404401004
vt 0.172620997 0.37134099
vt 0.324921012 0.334885001
vt 0.35481599 0.334885001
vt 0.35481599 0.27067399
vt 0.324921012 0.27067399
vt 0.150730997 0.274069995
vt 0.150730997 0.338281006
vt 0.172620997 0.338281006
vt 0.172620997 0.274069995
vt 0.071415998 0.805335999
vt 0.071415998 0.93375802
vt 0.129480004 0.93375802
vt 0.129480004 0.805335999
vt 0.245607004 0.866150975
vt 0.216574997 0.801940024
vt 0.187543005 0.801940024
vt 0.187544003 0.866150975
vt 0.187544003 0.930361986
vt 0.245607004 0.930361986
vt 0.303671002 0.801940024
vt 0.245607004 0.801940024
vt 0.245607004 0.866150975
vt 0.303671002 0.866150975
vt 0.27463901 0.930361986
vt 0.245607004 0.930361986
vt 0.187543005 0.801940024
vt 0.303671002 0.801940024
vt 0.303671002 0.737729013
vt 0.187544003 0.737729013
vt 0.187544003 0.673518002
vt 0.303671002 0.673518002
vt 0.187543005 0.741877973
vt 0.071415998 0.805335999
vt 0.187543005 0.805335999
vt 0.071415998 0.741877973
vt 0.071415998 0.673518002
vt 0.187543005 0.673518002
vt 0.158511996 0.93375802
vt 0.187543005 0.93375802
vt 0.187543005 0.805335999
vt 0.158511996 0.805335999
vt 0.676352024 0.459540993
vt 0.637244999 0.477970988
vt 0.652118981 0.495739013
vt 0.695223987 0.472956002
vt 0.681635022 0.403192014
vt 0.695223987 0.382494986
vt 0.621720016 0.462743014
vt 0.628201008 0.433970004
vt 0.671051979 0.391380012
vt 0.628912985 0.391249001
vt 0.615975022 0.374963999
vt 0.679862976 0.295626998
vt 0.665260971 0.261676997
vt 0.648779988 0.28125301
vt 0.695223987 0.279863
vt 0.695223987 0.371699005
vt 0.679401994 0.352847993
vt 0.624808013 0.354817986
vt 0.613072991 0.374963999
vt 0.592242002 0.344274998
vt 0.607509017 0.326139987
vt 0.849201977 0.261676997
vt 0.849201977 0.452392995
vt 0.874351978 0.452392995
vt 0.874351978 0.261676997
vt 0.797876 0.261676997
vt 0.746550024 0.261676997
vt 0.746550024 0.452392995
vt 0.797876 0.452392995
vt 0.900528014 0.522862971
vt 0.900528014 0.578791976
vt 0.925617993 0.578791976
vt 0.925617993 0.522862971
vt 0.695223987 0.452392995
vt 0.746550024 0.452392995
vt 0.746550024 0.261676997
vt 0.695223987 0.261676997
vt 0.895510018 0.466935009
vt 0.895510018 0.522862971
vt 0.920648992 0.522862971
vt 0.920648992 0.466935009
vt 0.667302012 0.495739013
vt 0.615975022 0.495739013
vt 0.615975022 0.538245022
vt 0.667302012 0.538245022
vt 0.667302012 0.538245022
vt 0.615975022 0.538245022
vt 0.615975976 0.579912007
vt 0.667302012 0.579912007
vt 0.905349016 0.452392995
vt 0.905349016 0.39646399
vt 0.874351978 0.39646399
vt 0.874351978 0.452392995
vt 0.592242002 0.374963999
vt 0.592242002 0.430891991
vt 0.614826024 0.430891991
vt 0.614826024 0.374963999
vt 0.711983979 0.536756992
vt 0.711983979 0.592684984
vt 0.746550024 0.592684984
vt 0.746550024 0.536756992
vt 0.849201977 0.392269999
vt 0.797876 0.392269999
vt 0.797876 0.45518899
vt 0.849201977 0.45518899
vt 0.849201977 0.45518899
vt 0.797876 0.45518899
vt 0.797876 0.522862971
vt 0.849201977 0.522862971
vt 0.711983979 0.592684984
vt 0.711983979 0.536756992
vt 0.679250002 0.536756992
vt 0.679250002 0.592684984
vt 0.92721802 0.373533994
vt 0.92721802 0.317604989
vt 0.902837992 0.317604989
vt 0.902837992 0.373533994
vt 0.874351978 0.261676997
vt 0.874351978 0.317604989
vt 0.905838013 0.317604989
vt 0.905838013 0.261676997
vt 0.797876 0.392269999
vt 0.849201977 0.392269999
vt 0.849201977 0.325435013
vt 0.797876 0.325435013
vt 0.797876 0.325435013
vt 0.849201977 0.325435013
vt 0.849201977 0.261676997
vt 0.797876 0.261676997
vt 0.797876 0.591934979
vt 0.849201977 0.591934979
vt 0.849201977 0.522862971
vt 0.797876 0.522862971
vt 0.797876 0.452392995
vt 0.746550024 0.452392995
vt 0.746550024 0.540723979
vt 0.797876 0.540723979
vt 0.695223987 0.536756992
vt 0.746550024 0.536756992
vt 0.746550024 0.497233987
vt 0.695223987 0.497233987
vt 0.695223987 0.497233987
vt 0.746550024 0.497233987
vt 0.746550024 0.452392995
vt 0.695223987 0.452392995
vt 0.614313006 0.486820996
vt 0.614313006 0.430891991
vt 0.592242002 0.430891991
vt 0.592242002 0.486820996
vt 0.849201977 0.466935009
vt 0.849201977 0.522862971
vt 0.895510018 0.522862971
vt 0.895510018 0.466935009
vt 0.76602 0.540723979
vt 0.76602 0.596651971
vt 0.797876 0.596651971
vt 0.797876 0.540723979
vt 0.900528014 0.522862971
vt 0.849201977 0.522862971
vt 0.849201977 0.585911989
vt 0.900528014 0.585911989
vt 0.902837992 0.373533994
vt 0.902837992 0.317604989
vt 0.874351978 0.317604989
vt 0.874351978 0.373533994
vn -1.000000 0.000000 0.000000
vn -1.000000 0.000000 0.000000
vn -1.000000 0.000000 0.000000
vn -1.000000 0.000000 0.000000
vn 0.000000 1.000000 0.000000
vn 0.000000 1.000000 0.000000
vn 0.000000 1.000000 0.000000
vn 0.000000 1.000000 0.000000
vn 1.000000 0.000000 0.000000
vn 1.000000 0.000000 0.000000
vn 1.000000 0.000000 0.000000
vn 1.000000 0.000000 0.000000
vn 0.000000 -1.000000 0.000000
vn 0.000000 -1.000000 0.000000
vn 0.000000 -1.000000 0.000000
vn 0.000000 -1.000000 0.000000
vn 0.000000 0.000000 1.000000
vn 0.000000 0.000000 1.000000
vn 0.000000 0.000000 1.000000
vn 0.000000 0.000000 1.000000
vn 0.000000 0.000000 -1.000000
vn 0.000000 0.000000 -1.000000
vn 0.000000 0.000000 -1.000000
vn 0.000000 0.000000 -1.000000
vn -1.000000 0.000000 0.000000
vn -1.000000 0.000000 0.000000
vn -1.000000 0.000000 0.000000
vn -1.000000 0.000000 0.000000
vn -1.000000 0.000000 0.000000
vn -1.000000 0.000000 0.000000
vn 1.000000 0.000000 0.000000
vn 1.000000 0.000000 0.000000
vn 1.000000 0.000000 0.000000
vn 1.000000 0.000000 0.000000
vn 1.000000 0.000000 0.000000
vn 1.000000 0.000000 0.000000
vn 0.000000 -1.000000 0.000000
vn 0.000000 -1.000000 0.000000
vn 0.000000 -1.000000 0.000000
vn 0.000000 -1.000000 0.000000
vn 0.000000 -1.000000 0.000000
vn 0.000000 -1.000000 0.000000
vn 0.000000 0.973249 0.229753
vn 0.000000 1.000000 0.000000
vn 0.000000 1.000000 0.000000
vn 0.000000 0.973249 0.229753
vn 0.000000 0.894427 0.447214
vn 0.000000 0.894427 0.447214
vn 0.000000 0.000000 1.000000
vn 0.000000 0.000000 1.000000
vn 0.000000 0.000000 1.000000
vn 0.000000 0.000000 1.000000
vn 0.000000 0.885121 0.465361
vn 0.000000 0.885120 0.465362
vn 0.000000 0.885121 0.465361
vn 0.000000 0.885121 0.465361
vn 0.000000 0.885119 0.465365
vn 0.000000 0.885120 0.465363
vn 0.000000 0.885118 0.465367
vn 0.000000 0.885119 0.465365
vn 0.000000 0.885117 0.465368
vn 0.000000 0.885117 0.465368
vn 0.000000 0.885127 0.465349
vn 0.000000 0.885119 0.465365
vn 0.000000 0.885118 0.465367
vn 0.000000 0.885117 0.465369
vn 0.000000 0.885119 0.465364
vn 0.000000 0.885120 0.465362
vn 0.000000 0.885120 0.465363
vn 0.000000 0.885121 0.465361
vn 0.000000 0.885122 0.465359
vn 0.000000 0.885121 0.465360
vn 0.000000 0.885121 0.465361
vn 0.000000 0.885120 0.465362
vn 0.000000 0.885120 0.465362
vn 0.000000 0.885120 0.465362
vn 0.000000 0.885121 0.465362
vn 1.000000 0.000000 0.000000
vn 1.000000 0.000000 0.000000
vn 1.000000 0.000000 0.000000
vn 1.000000 0.000000 0.000000
vn 0.000000 -0.465363 0.885120
vn 0.000000 -0.465363 0.885120
vn 0.000000 -0.465363 0.885120
vn 0.000000 -0.465363 0.885120
vn -1.000000 0.000000 0.000000
vn -1.000000 0.000000 0.000000
vn -1.000000 0.000000 0.000000
vn -1.000000 0.000000 0.000000
vn 0.000000 0.465361 -0.885121
vn 0.000000 0.465361 -0.885121
vn 0.000000 0.465361 -0.885121
vn 0.000000 0.465361 -0.885121
vn -0.742811 0.311561 -0.592589
vn -0.742811 0.311561 -0.592589
vn -0.742811 0.311561 -0.592589
vn -0.742811 0.311561 -0.592589
vn -0.700024 -0.332325 0.632082
vn -0.700024 -0.332325 0.632082
vn -0.700024 -0.332325 0.632082
vn -0.700024 -0.332325 0.632082
vn 0.244452 -0.451244 0.858267
vn 0.244452 -0.451244 0.858267
vn 0.244452 -0.451244 0.858267
vn 0.244452 -0.451244 0.858267
vn -1.000000 0.000000 0.000000
vn -1.000000 0.000000 0.000000
vn -1.000000 0.000000 0.000000
vn -1.000000 0.000000 0.000000
vn -0.190478 0.456843 -0.868915
vn -0.190478 0.456843 -0.868915
vn -0.190478 0.456843 -0.868915
vn -0.190478 0.456843 -0.868915
vn 0.702408 0.331235 -0.630005
vn 0.702408 0.331235 -0.630005
vn 0.702408 0.331235 -0.630005
vn 0.702408 0.331235 -0.630005
vn 0.736903 -0.314584 0.598339
vn 0.736903 -0.314584 0.598339
vn 0.736903 -0.314584 0.598339
vn 0.736903 -0.314584 0.598339
vn -0.231959 -0.452668 0.860980
vn -0.231959 -0.452668 0.860980
vn -0.231959 -0.452668 0.860980
vn -0.231959 -0.452668 0.860980
vn -1.000000 0.000000 0.000000
vn -1.000000 0.000000 0.000000
vn -1.000000 0.000000 0.000000
vn -1.000000 0.000000 0.000000
vn 0.334407 0.438568 -0.834164
vn 0.334407 0.438568 -0.834164
vn 0.334407 0.438568 -0.834164
vn 0.334407 0.438568 -0.834164
vn 0.738820 0.313609 -0.596485
vn 0.738820 0.313609 -0.596485
vn 0.738820 0.313609 -0.596485
vn 0.738820 0.313609 -0.596485
vn 0.735547 -0.315272 0.599645
vn 0.735547 -0.315272 0.599645
vn 0.735547 -0.315272 0.599645
vn 0.735547 -0.315272 0.599645
vn -0.784881 -0.288360 0.548462
vn -0.784881 -0.288360 0.548462
vn -0.784881 -0.288360 0.548462
vn -0.784881 -0.288360 0.548462
vn 0.000000 0.465362 -0.885120
vn 0.000000 0.465362 -0.885120
vn 0.000000 0.465362 -0.885120
vn 0.000000 0.465362 -0.885120
vn -0.666506 -0.346929 0.659856
vn -0.666506 -0.346929 0.659856
vn -0.666506 -0.346929 0.659856
vn -0.666506 -0.346929 0.659856
vn 0.325249 -0.440060 0.836995
vn 0.325249 -0.440060 0.836995
vn 0.325249 -0.440060 0.836995
vn 0.325249 -0.440060 0.836995
vn -1.000000 0.000000 0.000000
vn -1.000000 0.000000 0.000000
vn -1.000000 0.000000 0.000000
vn -1.000000 0.000000 0.000000
vn -0.283911 0.446211 -0.848699
vn -0.283911 0.446211 -0.848699
vn -0.283911 0.446211 -0.848699
vn -0.283911 0.446211 -0.848699
vn -0.676005 0.342924 -0.652242
vn -0.676005 0.342924 -0.652242
vn -0.676005 0.342924 -0.652242
vn -0.676005 0.342924 -0.652242
vn 0.000000 -0.465363 0.885120
vn 0.000000 -0.465363 0.885120
vn 0.000000 -0.465363 0.885120
vn 0.000000 -0.465363 0.885120
vn 0.726465 0.319797 -0.608258
vn 0.726465 0.319797 -0.608258
vn 0.726465 0.319797 -0.608258
vn 0.726465 0.319797 -0.608258
f 3/3/3 2/2/2 1/1/1
f 4/4/4 3/3/3 1/1/1
f 7/7/7 6/6/6 5/5/5
f 8/8/8 7/7/7 5/5/5
f 11/11/11 10/10/10 9/9/9
f 12/12/12 11/11/11 9/9/9
f 15/15/15 14/14/14 13/13/13
f 16/16/16 15/15/15 13/13/13
f 19/19/19 18/18/18 17/17/17
f 20/20/20 19/19/19 17/17/17
f 23/23/23 22/22/22 21/21/21
f 24/24/24 23/23/23 21/21/21
f 27/27/27 26/26/26 25/25/25
f 28/28/28 27/27/27 25/25/25
f 28/28/28 25/25/25 29/29/29
f 25/25/25 30/30/30 29/29/29
f 33/33/33 32/32/32 31/31/31
f 34/34/34 33/33/33 31/31/31
f 34/34/34 35/35/35 33/33/33
f 35/35/35 36/36/36 33/33/33
f 39/39/39 38/38/38 37/37/37
f 40/40/40 39/39/39 37/37/37
f 40/40/40 41/41/41 39/39/39
f 41/41/41 42/42/42 39/39/39
f 45/45/45 44/44/44 43/43/43
f 44/44/44 46/46/46 43/43/43
f 46/46/46 47/47/47 43/43/43
f 47/47/47 48/48/48 43/43/43
f 51/51/51 50/50/50 49/49/49
f 52/52/52 51/51/51 49/49/49
f 55/55/55 54/54/54 53/53/53
f 55/55/55 53/53/53 56/56/56
f 53/53/53 57/57/57 56/56/56
f 57/57/57 58/58/58 56/56/56
f 59/59/59 58/58/58 57/57/57
f 59/59/59 60/60/60 58/58/58
f 60/60/60 61/61/61 58/58/58
f 59/59/59 62/62/62 60/60/60
f 61/61/61 62/62/62 58/58/58
f 59/59/59 63/63/63 62/62/62
f 62/62/62 63/63/63 58/58/58
f 66/66/66 65/65/65 64/64/64
f 65/65/65 67/67/67 64/64/64
f 64/64/64 67/67/67 68/68/68
f 69/69/69 64/64/64 68/68/68
f 70/70/70 69/69/69 68/68/68
f 70/70/70 68/68/68 71/71/71
f 72/72/72 70/70/70 71/71/71
f 72/72/72 73/73/73 70/70/70
f 76/76/76 75/75/75 74/74/74
f 77/77/77 76/76/76 74/74/74
f 80/80/80 79/79/79 78/78/78
f 81/81/81 80/80/80 78/78/78
f 84/84/84 83/83/83 82/82/82
f 85/85/85 84/84/84 82/82/82
f 88/88/88 87/87/87 86/86/86
f 89/89/89 88/88/88 86/86/86
f 92/92/92 91/91/91 90/90/90
f 93/93/93 92/92/92 90/90/90
f 96/96/96 95/95/95 94/94/94
f 97/97/97 96/96/96 94/94/94
f 100/100/100 99/99/99 98/98/98
f 101/101/101 100/100/100 98/98/98
f 104/104/104 103/103/103 102/102/102
f 105/105/105 104/104/104 102/102/102
f 108/108/108 107/107/107 106/106/106
f 109/109/109 108/108/108 106/106/106
f 112/112/112 111/111/111 110/110/110
f 113/113/113 112/112/112 110/110/110
f 116/116/116 115/115/115 114/114/114
f 117/117/117 116/116/116 114/114/114
f 120/120/120 119/119/119 118/118/118
f 121/121/121 120/120/120 118/118/118
f 124/124/124 123/123/123 122/122/122
f 125/125/125 124/124/124 122/122/122
f 128/128/128 127/127/127 126/126/126
f 129/129/129 128/128/128 126/126/126
f 132/132/132 131/131/131 130/130/130
f 133/133/133 132/132/132 130/130/130
f 136/136/136 135/135/135 134/134/134
f 137/137/137 136/136/136 134/134/134
f 140/140/140 139/139/139 138/138/138
f 141/141/141 140/140/140 138/138/138
f 144/144/144 143/143/143 142/142/142
f 145/145/145 144/144/144 142/142/142
f 148/148/148 147/147/147 146/146/146
f 149/149/149 148/148/148 146/146/146
f 152/152/152 151/151/151 150/150/150
f 153/153/153 152/152/152 150/150/150
f 156/156/156 155/155/155 154/154/154
f 157/157/157 156/156/156 154/154/154
f 160/160/160 159/159/159 158/158/158
f 161/161/161 160/160/160 158/158/158
f 164/164/164 163/163/163 162/162/162
f 165/165/165 164/164/164 162/162/162
f 168/168/168 167/167/167 166/166/166
f 169/169/169 168/168/168 166/166/166
f 172/172/172 171/171/171 170/170/170
f 173/173/173 172/172/172 170/170/170
f 176/176/176 175/175/175 174/174/174
f 177/177/177 176/176/176 174/174/174
