g Model_0
v -0.214742929 -0.427543283 0.764290035
v -0.218955338 -0.429049015 -0.0347468406
v -0.179049045 -0.031044662 -0.0347468406
v -0.183577463 -0.0379315168 0.679252684
v -0.183577463 -0.0379315168 0.679252684
v -0.179049045 -0.031044662 -0.0347468406
v 0.218955338 -0.0709509552 -0.0347468406
v 0.214742929 -0.0724567026 0.667051256
v 0.214742929 -0.0724567026 0.667051256
v 0.218955338 -0.0709509552 -0.0347468406
v 0.179049045 -0.468955338 -0.0347468406
v 0.183577463 -0.462068498 0.752088606
v 0.183577463 -0.462068498 0.752088606
v 0.179049045 -0.468955338 -0.0347468406
v -0.218955338 -0.429049015 -0.0347468406
v -0.214742929 -0.427543283 0.764290035
v -0.0960783213 -0.0336225294 1.83376455
v -0.177930206 -0.199908718 1.53543186
v -0.177930206 0.199908718 1.53543186
v -0.0960783213 0.182269946 1.83376455
v -0.0960783213 0.182269946 1.83376455
v -0.177930206 0.199908718 1.53543186
v 0.177930206 0.199908718 1.53543186
v 0.0960783213 0.182269946 1.83376455
v 0.0960783213 0.182269946 1.83376455
v 0.177930206 0.199908718 1.53543186
v 0.177930206 -0.199908718 1.53543186
v 0.0960783213 -0.0336225294 1.83376455
v 0.0960783213 -0.0336225294 1.83376455
v 0.177930206 -0.199908718 1.53543186
v -0.177930206 -0.199908718 1.53543186
v -0.0960783213 -0.0336225294 1.83376455
v 0.0960783213 -0.0336225294 1.83376455
v -0.0960783213 -0.0336225294 1.83376455
v -0.0960783213 0.182269946 1.83376455
v 0.0960783213 0.182269946 1.83376455
v 0.154639155 0.381385833 0.712949455
v 0.155913204 0.423586428 -0.0238821656
v 0.154372498 0.11474102 -0.0440167636
v 0.153680652 0.0754153877 0.666318595
v 0.153680652 0.0754153877 0.666318595
v 0.154372498 0.11474102 -0.0440167636
v -0.155128315 0.116304249 -0.044312194
v -0.155425578 0.0787234306 0.650966167
v -0.155425578 0.0787234306 0.650966167
v -0.155128315 0.116304249 -0.044312194
v -0.15358761 0.425149679 -0.024177596
v -0.154467046 0.384693921 0.697597027
v -0.154467046 0.384693921 0.697597027
v -0.15358761 0.425149679 -0.024177596
v 0.155913204 0.423586428 -0.0238821656
v 0.154639155 0.381385833 0.712949455
v -0.25 -0.730003297 1.57932007
v -0.25 -0.769996703 1.31243265
v -0.25 0.766951799 1.3588146
v -0.25 0.733048201 1.53293812
v -0.25 0.733048201 1.53293812
v -0.25 0.766951799 1.3588146
v 0.25 0.766951799 1.3588146
v 0.25 0.733048201 1.53293812
v 0.25 0.733048201 1.53293812
v 0.25 0.766951799 1.3588146
v 0.25 -0.769996703 1.31243265
v 0.25 -0.730003297 1.57932007
v 0.25 -0.730003297 1.57932007
v 0.25 -0.769996703 1.31243265
v -0.25 -0.769996703 1.31243265
v -0.25 -0.730003297 1.57932007
v -0.25 -0.769996703 1.31243265
v 0.25 -0.769996703 1.31243265
v 0.25 0.766951799 1.3588146
v -0.25 0.766951799 1.3588146
v 0.25 -0.730003297 1.57932007
v -0.25 -0.730003297 1.57932007
v -0.25 0.733048201 1.53293812
v 0.25 0.733048201 1.53293812
v -0.26368022 -0.520591438 0.884973943
v -0.26368022 -0.532458961 0.674363852
v -0.26368022 0.520591438 0.615026057
v -0.26368022 0.532458961 0.825636148
v -0.26368022 0.532458961 0.825636148
v -0.26368022 0.520591438 0.615026057
v 0.26368022 0.520591438 0.615026057
v 0.26368022 0.532458961 0.825636148
v 0.26368022 0.532458961 0.825636148
v 0.26368022 0.520591438 0.615026057
v 0.26368022 -0.532458961 0.674363852
v 0.26368022 -0.520591438 0.884973943
v 0.26368022 -0.520591438 0.884973943
v 0.26368022 -0.532458961 0.674363852
v -0.26368022 -0.532458961 0.674363852
v -0.26368022 -0.520591438 0.884973943
v -0.26368022 -0.532458961 0.674363852
v 0.26368022 -0.532458961 0.674363852
v 0.26368022 0.520591438 0.615026057
v -0.26368022 0.520591438 0.615026057
v 0.26368022 -0.520591438 0.884973943
v -0.26368022 -0.520591438 0.884973943
v -0.26368022 0.532458961 0.825636148
v 0.26368022 0.532458961 0.825636148
v -0.219076946 -0.297840536 1.34968197
v -0.19274877 -0.255158752 0.770434618
v -0.20448418 0.2849271 0.81321907
v -0.230812356 0.242245317 1.39246655
v -0.230812356 0.242245317 1.39246655
v -0.20448418 0.2849271 0.81321907
v 0.220074043 0.293141752 0.825974584
v 0.193745866 0.250459969 1.40522206
v 0.193745866 0.250459969 1.40522206
v 0.220074043 0.293141752 0.825974584
v 0.231809452 -0.246944085 0.783190131
v 0.205481276 -0.289625883 1.36243749
v 0.205481276 -0.289625883 1.36243749
v 0.231809452 -0.246944085 0.783190131
v -0.19274877 -0.255158752 0.770434618
v -0.219076946 -0.297840536 1.34968197
v 0.154372498 0.11474102 -0.0440167636
v 0.155913204 0.423586428 -0.0238821656
v -0.15358761 0.425149679 -0.024177596
v -0.155128315 0.116304249 -0.044312194
v -0.179049045 -0.031044662 -0.0347468406
v -0.218955338 -0.429049015 -0.0347468406
v 0.179049045 -0.468955338 -0.0347468406
v 0.218955338 -0.0709509552 -0.0347468406
vt 0.179927111 0.264929652
vt 0.179927111 0.399782896
vt 0.314780354 0.399782896
vt 0.314780354 0.264929652
vt 0.179927111 0.264929652
vt 0.179927111 0.399782896
vt 0.314780354 0.399782896
vt 0.314780354 0.264929652
vt 0.179927111 0.264929652
vt 0.179927111 0.399782896
vt 0.314780354 0.399782896
vt 0.314780354 0.264929652
vt 0.179927111 0.264929652
vt 0.179927111 0.399782896
vt 0.314780354 0.399782896
vt 0.314780354 0.264929652
vt 0.229511946 0.264929622
vt 0.229511946 0.399782866
vt 0.36436519 0.399782866
vt 0.36436519 0.264929622
vt 0.229511946 0.264929622
vt 0.229511946 0.399782866
vt 0.36436519 0.399782866
vt 0.36436519 0.264929622
vt 0.229511946 0.264929622
vt 0.229511946 0.399782866
vt 0.36436519 0.399782866
vt 0.36436519 0.264929622
vt 0.229511946 0.264929622
vt 0.229511946 0.399782866
vt 0.36436519 0.399782866
vt 0.36436519 0.264929622
vt 0.229511946 0.264929622
vt 0.229511946 0.399782866
vt 0.36436519 0.399782866
vt 0.36436519 0.264929622
vt 0.666330159 0.132703543
vt 0.666330159 0.267556787
vt 0.801183403 0.267556787
vt 0.801183403 0.132703543
vt 0.666330159 0.132703543
vt 0.666330159 0.267556787
vt 0.801183403 0.267556787
vt 0.801183403 0.132703543
vt 0.666330159 0.132703543
vt 0.666330159 0.267556787
vt 0.801183403 0.267556787
vt 0.801183403 0.132703543
vt 0.666330159 0.132703543
vt 0.666330159 0.267556787
vt 0.801183403 0.267556787
vt 0.801183403 0.132703543
vt 0.701747835 0.184649527
vt 0.701747835 0.319502771
vt 0.836601079 0.319502771
vt 0.836601079 0.184649527
vt 0.701747835 0.184649527
vt 0.701747835 0.319502771
vt 0.836601079 0.319502771
vt 0.836601079 0.184649527
vt 0.701747835 0.184649527
vt 0.701747835 0.319502771
vt 0.836601079 0.319502771
vt 0.836601079 0.184649527
vt 0.701747835 0.184649527
vt 0.701747835 0.319502771
vt 0.836601079 0.319502771
vt 0.836601079 0.184649527
vt 0.701747835 0.184649527
vt 0.701747835 0.319502771
vt 0.836601079 0.319502771
vt 0.836601079 0.184649527
vt 0.701747835 0.184649527
vt 0.701747835 0.319502771
vt 0.836601079 0.319502771
vt 0.836601079 0.184649527
vt 0.182288349 0.645079553
vt 0.182288349 0.779932797
vt 0.317141593 0.779932797
vt 0.317141593 0.645079553
vt 0.182288349 0.645079553
vt 0.182288349 0.779932797
vt 0.317141593 0.779932797
vt 0.317141593 0.645079553
vt 0.182288349 0.645079553
vt 0.182288349 0.779932797
vt 0.317141593 0.779932797
vt 0.317141593 0.645079553
vt 0.182288349 0.645079553
vt 0.182288349 0.779932797
vt 0.317141593 0.779932797
vt 0.317141593 0.645079553
vt 0.182288349 0.645079553
vt 0.182288349 0.779932797
vt 0.317141593 0.779932797
vt 0.317141593 0.645079553
vt 0.182288349 0.645079553
vt 0.182288349 0.779932797
vt 0.317141593 0.779932797
vt 0.317141593 0.645079553
vt 0.673413694 0.718276143
vt 0.673413694 0.853129387
vt 0.808266938 0.853129387
vt 0.808266938 0.718276143
vt 0.673413694 0.718276143
vt 0.673413694 0.853129387
vt 0.808266938 0.853129387
vt 0.808266938 0.718276143
vt 0.673413694 0.718276143
vt 0.673413694 0.853129387
vt 0.808266938 0.853129387
vt 0.808266938 0.718276143
vt 0.673413694 0.718276143
vt 0.673413694 0.853129387
vt 0.808266938 0.853129387
vt 0.808266938 0.718276143
vt 0.801183403 0.267556787
vt 0.801183403 0.267556787
vt 0.801183403 0.267556787
vt 0.801183403 0.267556787
vt 0.314780354 0.399782896
vt 0.314780354 0.399782896
vt 0.314780354 0.399782896
vt 0.314780354 0.399782896
vn -0.995952249 0.0898833424 0.000111658192
vn -0.995952249 0.0898833424 0.000111658192
vn -0.995952249 0.0898833424 0.000111658192
vn -0.995952249 0.0898833424 0.000111658192
vn 0.0931595489 0.995630145 0.00647707144
vn 0.0931595489 0.995630145 0.00647707144
vn 0.0931595489 0.995630145 0.00647707144
vn 0.0931595489 0.995630145 0.00647707144
vn 0.995954514 -0.0898592472 0.000113399423
vn 0.995954514 -0.0898592472 0.000113399423
vn 0.995954514 -0.0898592472 0.000113399423
vn 0.995954514 -0.0898592472 0.000113399423
vn -0.0929738134 -0.995651782 0.00578151783
vn -0.0929738134 -0.995651782 0.00578151783
vn -0.0929738134 -0.995651782 0.00578151783
vn -0.0929738134 -0.995651782 0.00578151783
vn -0.964361906 0 0.264586627
vn -0.964361906 0 0.264586627
vn -0.964361906 0 0.264586627
vn -0.964361906 0 0.264586627
vn -0 0.998256743 0.0590214357
vn -0 0.998256743 0.0590214357
vn -0 0.998256743 0.0590214357
vn -0 0.998256743 0.0590214357
vn 0.964361906 0 0.264586627
vn 0.964361906 0 0.264586627
vn 0.964361906 0 0.264586627
vn 0.964361906 0 0.264586627
vn -0 -0.873478055 0.486863643
vn -0 -0.873478055 0.486863643
vn -0 -0.873478055 0.486863643
vn -0 -0.873478055 0.486863643
vn -0 0 1
vn -0 0 1
vn -0 0 1
vn -0 0 1
vn 0.999990582 -0.00418683514 0.00112256559
vn 0.999990582 -0.00418683514 0.00112256559
vn 0.999990582 -0.00418683514 0.00112256559
vn 0.999990582 -0.00418683514 0.00112256559
vn -0.00648063514 -0.998485386 -0.05463548
vn -0.00648063514 -0.998485386 -0.05463548
vn -0.00648063514 -0.998485386 -0.05463548
vn -0.00648063514 -0.998485386 -0.05463548
vn -0.999991298 0.0041304552 -0.000602915359
vn -0.999991298 0.0041304552 -0.000602915359
vn -0.999991298 0.0041304552 -0.000602915359
vn -0.999991298 0.0041304552 -0.000602915359
vn 0.006430557 0.998377085 0.0565855652
vn 0.006430557 0.998377085 0.0565855652
vn 0.006430557 0.998377085 0.0565855652
vn 0.006430557 0.998377085 0.0565855652
vn -1 0 0
vn -1 0 0
vn -1 0 0
vn -1 0 0
vn -0 0.981566548 0.191120863
vn -0 0.981566548 0.191120863
vn -0 0.981566548 0.191120863
vn -0 0.981566548 0.191120863
vn 1 0 0
vn 1 0 0
vn 1 0 0
vn 1 0 0
vn -0 -0.988957882 0.148196548
vn -0 -0.988957882 0.148196548
vn -0 -0.988957882 0.148196548
vn -0 -0.988957882 0.148196548
vn -0 0.0301642157 -0.999544919
vn -0 0.0301642157 -0.999544919
vn -0 0.0301642157 -0.999544919
vn -0 0.0301642157 -0.999544919
vn -0 0.0316862799 0.99949789
vn -0 0.0316862799 0.99949789
vn -0 0.0316862799 0.99949789
vn -0 0.0316862799 0.99949789
vn -1 0 0
vn -1 0 0
vn -1 0 0
vn -1 0 0
vn -0 0.998416185 -0.0562590659
vn -0 0.998416185 -0.0562590659
vn -0 0.998416185 -0.0562590659
vn -0 0.998416185 -0.0562590659
vn 1 0 0
vn 1 0 0
vn 1 0 0
vn 1 0 0
vn -0 -0.998416185 0.0562590659
vn -0 -0.998416185 0.0562590659
vn -0 -0.998416185 0.0562590659
vn -0 -0.998416185 0.0562590659
vn -0 -0.0562592372 -0.998416185
vn -0 -0.0562592372 -0.998416185
vn -0 -0.0562592372 -0.998416185
vn -0 -0.0562592372 -0.998416185
vn -0 0.0562592372 0.998416185
vn -0 0.0562592372 0.998416185
vn -0 0.0562592372 0.998416185
vn -0 0.0562592372 0.998416185
vn -0.99874568 -0.0180003308 -0.0467217267
vn -0.99874568 -0.0180003308 -0.0467217267
vn -0.99874568 -0.0180003308 -0.0467217267
vn -0.99874568 -0.0180003308 -0.0467217267
vn -0.021471465 0.997137427 0.072498031
vn -0.021471465 0.997137427 0.072498031
vn -0.021471465 0.997137427 0.072498031
vn -0.021471465 0.997137427 0.072498031
vn 0.99874568 0.0180003308 0.0467217267
vn 0.99874568 0.0180003308 0.0467217267
vn 0.99874568 0.0180003308 0.0467217267
vn 0.99874568 0.0180003308 0.0467217267
vn 0.0214714799 -0.997137427 -0.0724980533
vn 0.0214714799 -0.997137427 -0.0724980533
vn 0.0214714799 -0.997137427 -0.0724980533
vn 0.0214714799 -0.997137427 -0.0724980533
vn 0.00128106668 0.0650486052 -0.997881234
vn 0.00128106668 0.0650486052 -0.997881234
vn 0.00128106668 0.0650486052 -0.997881234
vn 0.00128106668 0.0650486052 -0.997881234
vn -0 0 -1
vn -0 0 -1
vn -0 0 -1
vn -0 0 -1
g Model_0_0
f 3/3/3 2/2/2 1/1/1
f 4/4/4 3/3/3 1/1/1
f 7/7/7 6/6/6 5/5/5
f 8/8/8 7/7/7 5/5/5
f 11/11/11 10/10/10 9/9/9
f 12/12/12 11/11/11 9/9/9
f 15/15/15 14/14/14 13/13/13
f 16/16/16 15/15/15 13/13/13
f 19/19/19 18/18/18 17/17/17
f 20/20/20 19/19/19 17/17/17
f 23/23/23 22/22/22 21/21/21
f 24/24/24 23/23/23 21/21/21
f 27/27/27 26/26/26 25/25/25
f 28/28/28 27/27/27 25/25/25
f 31/31/31 30/30/30 29/29/29
f 32/32/32 31/31/31 29/29/29
f 35/35/35 34/34/34 33/33/33
f 36/36/36 35/35/35 33/33/33
f 39/39/39 38/38/38 37/37/37
f 40/40/40 39/39/39 37/37/37
f 43/43/43 42/42/42 41/41/41
f 44/44/44 43/43/43 41/41/41
f 47/47/47 46/46/46 45/45/45
f 48/48/48 47/47/47 45/45/45
f 51/51/51 50/50/50 49/49/49
f 52/52/52 51/51/51 49/49/49
f 55/55/55 54/54/54 53/53/53
f 56/56/56 55/55/55 53/53/53
f 59/59/59 58/58/58 57/57/57
f 60/60/60 59/59/59 57/57/57
f 63/63/63 62/62/62 61/61/61
f 64/64/64 63/63/63 61/61/61
f 67/67/67 66/66/66 65/65/65
f 68/68/68 67/67/67 65/65/65
f 71/71/71 70/70/70 69/69/69
f 72/72/72 71/71/71 69/69/69
f 75/75/75 74/74/74 73/73/73
f 76/76/76 75/75/75 73/73/73
f 79/79/79 78/78/78 77/77/77
f 80/80/80 79/79/79 77/77/77
f 83/83/83 82/82/82 81/81/81
f 84/84/84 83/83/83 81/81/81
f 87/87/87 86/86/86 85/85/85
f 88/88/88 87/87/87 85/85/85
f 91/91/91 90/90/90 89/89/89
f 92/92/92 91/91/91 89/89/89
f 95/95/95 94/94/94 93/93/93
f 96/96/96 95/95/95 93/93/93
f 99/99/99 98/98/98 97/97/97
f 100/100/100 99/99/99 97/97/97
f 103/103/103 102/102/102 101/101/101
f 104/104/104 103/103/103 101/101/101
f 107/107/107 106/106/106 105/105/105
f 108/108/108 107/107/107 105/105/105
f 111/111/111 110/110/110 109/109/109
f 112/112/112 111/111/111 109/109/109
f 115/115/115 114/114/114 113/113/113
f 116/116/116 115/115/115 113/113/113
f 119/119/119 118/118/118 117/117/117
f 120/120/120 119/119/119 117/117/117
f 123/123/123 122/122/122 121/121/121
f 124/124/124 123/123/123 121/121/121
