g JasperMemorial_LOD0
v 0.000000 -0.500000 -0.625000
v 0.000000 0.500000 -0.625000
v 0.000000 0.500000 0.625000
v 0.000000 -0.500000 0.625000
v 0.000000 0.500000 -0.625000
v 0.025000 0.500000 -0.625000
v 0.025000 0.500000 0.625000
v 0.000000 0.500000 0.625000
v 0.025000 -0.500000 -0.625000
v 0.000000 -0.500000 -0.625000
v 0.000000 -0.500000 0.625000
v 0.025000 -0.500000 0.625000
v 0.000000 0.500000 -0.625000
v 0.000000 -0.500000 -0.625000
v 0.025000 -0.500000 -0.625000
v 0.025000 0.500000 -0.625000
v 0.025000 0.500000 0.625000
v 0.025000 -0.500000 0.625000
v 0.000000 -0.500000 0.625000
v 0.000000 0.500000 0.625000
v 0.025000 0.375000 -0.500000
v 0.025000 -0.375000 -0.500000
v 0.025000 -0.375000 0.500000
v 0.025000 0.375000 0.500000
v 0.025000 0.425000 0.550000
v 0.050000 0.450000 0.575000
v 0.050000 0.450000 -0.575000
v 0.025000 0.425000 -0.550000
v 0.050000 -0.450000 -0.575000
v 0.025000 -0.425000 -0.550000
v 0.025000 0.425000 -0.550000
v 0.050000 0.450000 -0.575000
v 0.050000 0.450000 0.575000
v 0.025000 0.425000 0.550000
v 0.025000 -0.425000 0.550000
v 0.050000 -0.450000 0.575000
v 0.050000 -0.450000 0.575000
v 0.025000 -0.425000 0.550000
v 0.025000 -0.425000 -0.550000
v 0.050000 -0.450000 -0.575000
v 0.050000 0.475000 0.600000
v 0.025000 0.500000 0.625000
v 0.025000 0.500000 -0.625000
v 0.050000 0.475000 -0.600000
v 0.025000 -0.500000 -0.625000
v 0.050000 -0.475000 -0.600000
v 0.050000 0.475000 -0.600000
v 0.025000 0.500000 -0.625000
v 0.025000 0.500000 0.625000
v 0.050000 0.475000 0.600000
v 0.050000 -0.475000 0.600000
v 0.025000 -0.500000 0.625000
v 0.025000 -0.500000 0.625000
v 0.050000 -0.475000 0.600000
v 0.050000 -0.475000 -0.600000
v 0.025000 -0.500000 -0.625000
v 0.040816 -0.100000 -0.625947
v 0.040816 0.100000 -0.625947
v 0.034279 0.100000 -0.551232
v 0.034279 -0.100000 -0.551232
v 0.040816 0.100000 -0.625947
v 0.065721 0.100000 -0.623768
v 0.059184 0.100000 -0.549053
v 0.034279 0.100000 -0.551232
v 0.065721 0.100000 -0.623768
v 0.065721 -0.100000 -0.623768
v 0.059184 -0.100000 -0.549053
v 0.059184 0.100000 -0.549053
v 0.065721 -0.100000 -0.623768
v 0.040816 -0.100000 -0.625947
v 0.034279 -0.100000 -0.551232
v 0.059184 -0.100000 -0.549053
v 0.040816 0.100000 -0.625947
v 0.040816 -0.100000 -0.625947
v 0.065721 -0.100000 -0.623768
v 0.065721 0.100000 -0.623768
v 0.059184 0.100000 -0.549053
v 0.059184 -0.100000 -0.549053
v 0.034279 -0.100000 -0.551232
v 0.034279 0.100000 -0.551232
v 0.050000 -0.450000 0.575000
v 0.050000 -0.475000 0.600000
v 0.050000 0.475000 0.600000
v 0.050000 0.450000 0.575000
v 0.050000 -0.450000 -0.575000
v 0.050000 0.475000 -0.600000
v 0.050000 -0.475000 -0.600000
v 0.050000 0.450000 -0.575000
v 0.025000 -0.375000 0.500000
v 0.025000 -0.425000 0.550000
v 0.025000 0.425000 0.550000
v 0.025000 0.375000 0.500000
v 0.025000 -0.375000 -0.500000
v 0.025000 0.425000 -0.550000
v 0.025000 -0.425000 -0.550000
v 0.025000 0.375000 -0.500000
vt 0.0320504904 0.190001905
vt 0.0320504904 0.190001905
vt 0.0320504904 0.190001905
vt 0.0320504904 0.190001905
vt 0.0320504904 0.190001905
vt 0.0320504904 0.190001905
vt 0.0320504904 0.190001905
vt 0.0320504904 0.190001905
vt 0.0320504904 0.190001905
vt 0.0320504904 0.190001905
vt 0.0320504904 0.190001905
vt 0.0320504904 0.190001905
vt 0.0320504904 0.190001905
vt 0.0320504904 0.190001905
vt 0.0320504904 0.190001905
vt 0.0320504904 0.190001905
vt 0.0320504904 0.190001905
vt 0.0320504904 0.190001905
vt 0.0320504904 0.190001905
vt 0.0320504904 0.190001905
vt 0.015625 0.265625
vt 0.015625 0.984375
vt 0.984375 0.984375
vt 0.984375 0.265625
vt 0.0320504904 0.190001905
vt 0.0320504904 0.190001905
vt 0.0320504904 0.190001905
vt 0.0320504904 0.190001905
vt 0.0320504904 0.190001905
vt 0.0320504904 0.190001905
vt 0.0320504904 0.190001905
vt 0.0320504904 0.190001905
vt 0.0320504904 0.190001905
vt 0.0320504904 0.190001905
vt 0.0320504904 0.190001905
vt 0.0320504904 0.190001905
vt 0.0320504904 0.190001905
vt 0.0320504904 0.190001905
vt 0.0320504904 0.190001905
vt 0.0320504904 0.190001905
vt 0.0320504904 0.190001905
vt 0.0320504904 0.190001905
vt 0.0320504904 0.190001905
vt 0.0320504904 0.190001905
vt 0.0320504904 0.190001905
vt 0.0320504904 0.190001905
vt 0.0320504904 0.190001905
vt 0.0320504904 0.190001905
vt 0.0320504904 0.190001905
vt 0.0320504904 0.190001905
vt 0.0320504904 0.190001905
vt 0.0320504904 0.190001905
vt 0.0320504904 0.190001905
vt 0.0320504904 0.190001905
vt 0.0320504904 0.190001905
vt 0.0320504904 0.190001905
vt 0.900702357 0.0969953239
vt 0.900702357 0.0969953239
vt 0.900702357 0.0969953239
vt 0.900702357 0.0969953239
vt 0.900702357 0.0969953239
vt 0.900702357 0.0969953239
vt 0.900702357 0.0969953239
vt 0.900702357 0.0969953239
vt 0.829328775 0.0044823885
vt 0.187953621 0.00448233634
vt 0.187953621 0.244997978
vt 0.829328775 0.244998038
vt 0.900702357 0.0969953239
vt 0.900702357 0.0969953239
vt 0.900702357 0.0969953239
vt 0.900702357 0.0969953239
vt 0.900702357 0.0969953239
vt 0.900702357 0.0969953239
vt 0.900702357 0.0969953239
vt 0.900702357 0.0969953239
vt 0.900702357 0.0969953239
vt 0.900702357 0.0969953239
vt 0.900702357 0.0969953239
vt 0.900702357 0.0969953239
vt 0.0320504904 0.190001905
vt 0.0320504904 0.190001905
vt 0.0320504904 0.190001905
vt 0.0320504904 0.190001905
vt 0.0320504904 0.190001905
vt 0.0320504904 0.190001905
vt 0.0320504904 0.190001905
vt 0.0320504904 0.190001905
vt 0.00843158737 0.184097186
vt 0.00843158737 0.184097186
vt 0.00843158737 0.184097186
vt 0.00843158737 0.184097186
vt 0.00843158737 0.184097186
vt 0.00843158737 0.184097186
vt 0.00843158737 0.184097186
vt 0.00843158737 0.184097186
vn -1.000000 0.000000 0.000000
vn -1.000000 0.000000 0.000000
vn -1.000000 0.000000 0.000000
vn -1.000000 0.000000 0.000000
vn 0.000000 1.000000 0.000000
vn 0.000000 1.000000 0.000000
vn 0.000000 1.000000 0.000000
vn 0.000000 1.000000 0.000000
vn 0.000000 -1.000000 0.000000
vn 0.000000 -1.000000 0.000000
vn 0.000000 -1.000000 0.000000
vn 0.000000 -1.000000 0.000000
vn 0.000000 0.000000 -1.000000
vn 0.000000 0.000000 -1.000000
vn 0.000000 0.000000 -1.000000
vn 0.000000 0.000000 -1.000000
vn 0.000000 0.000000 1.000000
vn 0.000000 0.000000 1.000000
vn 0.000000 0.000000 1.000000
vn 0.000000 0.000000 1.000000
vn 1.000000 0.000000 0.000000
vn 1.000000 0.000000 0.000000
vn 1.000000 0.000000 0.000000
vn 1.000000 0.000000 0.000000
vn 0.707106 -0.707108 0.000000
vn 0.707106 -0.707108 0.000000
vn 0.707106 -0.707108 0.000000
vn 0.707106 -0.707108 0.000000
vn 0.707104 0.000000 0.707109
vn 0.707104 0.000000 0.707109
vn 0.707104 0.000000 0.707109
vn 0.707104 0.000000 0.707109
vn 0.707104 0.000000 -0.707109
vn 0.707104 0.000000 -0.707109
vn 0.707104 0.000000 -0.707109
vn 0.707104 0.000000 -0.707109
vn 0.707106 0.707108 0.000000
vn 0.707106 0.707108 0.000000
vn 0.707106 0.707108 0.000000
vn 0.707106 0.707108 0.000000
vn 0.707106 0.707108 0.000000
vn 0.707106 0.707108 0.000000
vn 0.707106 0.707108 0.000000
vn 0.707106 0.707108 0.000000
vn 0.707107 0.000000 -0.707107
vn 0.707107 0.000000 -0.707107
vn 0.707107 0.000000 -0.707107
vn 0.707107 0.000000 -0.707107
vn 0.707107 0.000000 0.707107
vn 0.707107 0.000000 0.707107
vn 0.707107 0.000000 0.707107
vn 0.707107 0.000000 0.707107
vn 0.707106 -0.707108 0.000000
vn 0.707106 -0.707108 0.000000
vn 0.707106 -0.707108 0.000000
vn 0.707106 -0.707108 0.000000
vn -0.996195 0.000000 -0.087156
vn -0.996195 0.000000 -0.087156
vn -0.996195 0.000000 -0.087156
vn -0.996195 0.000000 -0.087156
vn 0.000000 1.000000 0.000000
vn 0.000000 1.000000 0.000000
vn 0.000000 1.000000 0.000000
vn 0.000000 1.000000 0.000000
vn 0.996195 0.000000 0.087156
vn 0.996195 0.000000 0.087156
vn 0.996195 0.000000 0.087156
vn 0.996195 0.000000 0.087156
vn 0.000000 -1.000000 0.000000
vn 0.000000 -1.000000 0.000000
vn 0.000000 -1.000000 0.000000
vn 0.000000 -1.000000 0.000000
vn 0.087155 0.000000 -0.996195
vn 0.087155 0.000000 -0.996195
vn 0.087155 0.000000 -0.996195
vn 0.087155 0.000000 -0.996195
vn -0.087155 0.000000 0.996195
vn -0.087155 0.000000 0.996195
vn -0.087155 0.000000 0.996195
vn -0.087155 0.000000 0.996195
vn 1.000000 0.000000 0.000000
vn 1.000000 0.000000 0.000000
vn 1.000000 0.000000 0.000000
vn 1.000000 0.000000 0.000000
vn 1.000000 0.000000 0.000000
vn 1.000000 0.000000 0.000000
vn 1.000000 0.000000 0.000000
vn 1.000000 0.000000 0.000000
vn 1.000000 0.000000 0.000000
vn 1.000000 0.000000 0.000000
vn 1.000000 0.000000 0.000000
vn 1.000000 0.000000 0.000000
vn 1.000000 0.000000 0.000000
vn 1.000000 0.000000 0.000000
vn 1.000000 0.000000 0.000000
vn 1.000000 0.000000 0.000000
g JasperMemorial_LOD0_0
f 3/3/3 2/2/2 1/1/1
f 4/4/4 3/3/3 1/1/1
f 7/7/7 6/6/6 5/5/5
f 8/8/8 7/7/7 5/5/5
f 11/11/11 10/10/10 9/9/9
f 12/12/12 11/11/11 9/9/9
f 15/15/15 14/14/14 13/13/13
f 16/16/16 15/15/15 13/13/13
f 19/19/19 18/18/18 17/17/17
f 20/20/20 19/19/19 17/17/17
f 23/23/23 22/22/22 21/21/21
f 24/24/24 23/23/23 21/21/21
f 27/27/27 26/26/26 25/25/25
f 28/28/28 27/27/27 25/25/25
f 31/31/31 30/30/30 29/29/29
f 32/32/32 31/31/31 29/29/29
f 35/35/35 34/34/34 33/33/33
f 36/36/36 35/35/35 33/33/33
f 39/39/39 38/38/38 37/37/37
f 40/40/40 39/39/39 37/37/37
f 43/43/43 42/42/42 41/41/41
f 44/44/44 43/43/43 41/41/41
f 47/47/47 46/46/46 45/45/45
f 48/48/48 47/47/47 45/45/45
f 51/51/51 50/50/50 49/49/49
f 52/52/52 51/51/51 49/49/49
f 55/55/55 54/54/54 53/53/53
f 56/56/56 55/55/55 53/53/53
f 59/59/59 58/58/58 57/57/57
f 60/60/60 59/59/59 57/57/57
f 63/63/63 62/62/62 61/61/61
f 64/64/64 63/63/63 61/61/61
f 67/67/67 66/66/66 65/65/65
f 68/68/68 67/67/67 65/65/65
f 71/71/71 70/70/70 69/69/69
f 72/72/72 71/71/71 69/69/69
f 75/75/75 74/74/74 73/73/73
f 76/76/76 75/75/75 73/73/73
f 79/79/79 78/78/78 77/77/77
f 80/80/80 79/79/79 77/77/77
f 83/83/83 82/82/82 81/81/81
f 84/84/84 83/83/83 81/81/81
f 81/81/81 82/82/82 85/85/85
f 86/86/86 83/83/83 84/84/84
f 82/82/82 87/87/87 85/85/85
f 88/88/88 86/86/86 84/84/84
f 85/85/85 87/87/87 88/88/88
f 87/87/87 86/86/86 88/88/88
f 91/91/91 90/90/90 89/89/89
f 92/92/92 91/91/91 89/89/89
f 89/89/89 90/90/90 93/93/93
f 94/94/94 91/91/91 92/92/92
f 90/90/90 95/95/95 93/93/93
f 96/96/96 94/94/94 92/92/92
f 93/93/93 95/95/95 96/96/96
f 95/95/95 94/94/94 96/96/96