g Model_0
v -0.875 -2.625 3.25
v 0.625 -2.625 3.25
v 0.875 -2.625 3.25
v -0.875 -2.375 0
v -0.875 -2.375 3
v -0.875 -2.375 3.25
v 0.625 -2.625 3.25
v 0.625 -2.375 3.25
v 0.625 2.375 3.25
v -0.75 -0.275000006 3.2249999
v -0.75 -0.275000006 3.0250001
v 0.75 -0.275000006 3.0250001
v 0.75 -0.275000006 3.2249999
v 0.75 -0.474999994 3.2249999
v 0.75 -0.474999994 3.0250001
v -0.75 -0.474999994 3.0250001
v -0.75 -0.474999994 3.2249999
v -0.75 -0.474999994 3.0250001
v 0.75 -0.474999994 3.0250001
v 0.75 -0.275000006 3.0250001
v -0.75 -0.275000006 3.0250001
v 0.75 -0.474999994 3.2249999
v -0.75 -0.474999994 3.2249999
v -0.75 -0.275000006 3.2249999
v 0.75 -0.275000006 3.2249999
v -0.625 2.625 0
v -0.625 2.375 0
v -0.625 2.375 3
v -0.625 2.625 3
v -0.625 2.375 0
v -0.875 2.375 0
v -0.875 2.375 3
v -0.625 2.375 3
v -0.875 2.625 3.25
v -0.875 2.625 0
v -0.625 2.625 0
v -0.625 2.625 3
v 0.625 2.625 3
v 0.875 2.625 3.25
v 0.875 2.625 0
v 0.625 2.625 0
v -0.625 2.375 3.25
v 0.625 2.375 3.25
v 0.625 2.375 3
v -0.625 2.375 3
v 0.875 2.625 0
v 0.875 2.375 0
v 0.875 2.375 3
v 0.875 2.625 3.25
v 0.875 -2.375 3
v 0.875 -2.625 3.25
v 0.875 -2.375 0
v 0.875 -2.625 0
v 0.875 2.375 0
v 0.625 2.375 0
v 0.625 2.375 3
v 0.875 2.375 3
v 0.625 2.375 0
v 0.625 2.625 0
v 0.625 2.625 3
v 0.625 2.375 3
v 0.875 2.375 3
v 0.625 2.375 3
v 0.625 -2.375 3
v 0.875 -2.375 3
v -0.625 2.625 3
v -0.625 2.375 3
v 0.625 2.375 3
v 0.625 2.625 3
v 0.625 -2.625 0
v 0.625 -2.375 0
v 0.625 -2.375 3
v 0.625 -2.625 3
v 0.625 -2.375 0
v 0.875 -2.375 0
v 0.875 -2.375 3
v 0.625 -2.375 3
v -0.625 2.375 3
v -0.875 2.375 3
v -0.875 -2.375 3
v -0.625 -2.375 3
v 0.625 -2.375 3.25
v -0.625 -2.375 3.25
v -0.625 -2.375 3
v 0.625 -2.375 3
v 0.875 -2.625 3.25
v 0.875 -2.625 0
v 0.625 -2.625 0
v 0.625 -2.625 3
v -0.625 -2.625 3
v -0.875 -2.625 3.25
v -0.875 -2.625 0
v -0.625 -2.625 0
v -0.875 2.375 0
v -0.875 2.625 0
v -0.875 2.625 3.25
v -0.875 2.375 3
v -0.875 -2.375 3
v -0.875 -2.375 3.25
v -0.875 -2.625 3.25
v -0.875 -2.625 0
v -0.875 -2.375 0
v -0.875 -2.375 0
v -0.625 -2.375 0
v -0.625 -2.375 3
v -0.875 -2.375 3
v -0.625 -2.375 0
v -0.625 -2.625 0
v -0.625 -2.625 3
v -0.625 -2.375 3
v 0.625 -2.625 3
v 0.625 -2.375 3
v -0.625 -2.375 3
v -0.625 -2.625 3
v -0.625 2.375 3.25
v -0.625 2.375 3
v -0.625 -2.375 3
v -0.625 -2.375 3.25
v 0.625 2.375 3.25
v 0.625 -2.375 3.25
v 0.625 -2.375 3
v 0.625 2.375 3
v -0.75 0.474999994 3.2249999
v -0.75 0.474999994 3.0250001
v 0.75 0.474999994 3.0250001
v 0.75 0.474999994 3.2249999
v 0.75 0.275000006 3.2249999
v 0.75 0.275000006 3.0250001
v -0.75 0.275000006 3.0250001
v -0.75 0.275000006 3.2249999
v -0.75 0.275000006 3.0250001
v 0.75 0.275000006 3.0250001
v 0.75 0.474999994 3.0250001
v -0.75 0.474999994 3.0250001
v 0.75 0.275000006 3.2249999
v -0.75 0.275000006 3.2249999
v -0.75 0.474999994 3.2249999
v 0.75 0.474999994 3.2249999
v -0.75 1.22500002 3.2249999
v -0.75 1.22500002 3.0250001
v 0.75 1.22500002 3.0250001
v 0.75 1.22500002 3.2249999
v 0.75 1.02499998 3.2249999
v 0.75 1.02499998 3.0250001
v -0.75 1.02499998 3.0250001
v -0.75 1.02499998 3.2249999
v -0.75 1.02499998 3.0250001
v 0.75 1.02499998 3.0250001
v 0.75 1.22500002 3.0250001
v -0.75 1.22500002 3.0250001
v 0.75 1.02499998 3.2249999
v -0.75 1.02499998 3.2249999
v -0.75 1.22500002 3.2249999
v 0.75 1.22500002 3.2249999
v -0.75 -1.02499998 3.2249999
v -0.75 -1.02499998 3.0250001
v 0.75 -1.02499998 3.0250001
v 0.75 -1.02499998 3.2249999
v 0.75 -1.22500002 3.2249999
v 0.75 -1.22500002 3.0250001
v -0.75 -1.22500002 3.0250001
v -0.75 -1.22500002 3.2249999
v -0.75 -1.22500002 3.0250001
v 0.75 -1.22500002 3.0250001
v 0.75 -1.02499998 3.0250001
v -0.75 -1.02499998 3.0250001
v 0.75 -1.22500002 3.2249999
v -0.75 -1.22500002 3.2249999
v -0.75 -1.02499998 3.2249999
v 0.75 -1.02499998 3.2249999
v -0.75 -1.77499998 3.2249999
v -0.75 -1.77499998 3.0250001
v 0.75 -1.77499998 3.0250001
v 0.75 -1.77499998 3.2249999
v 0.75 -1.97500002 3.2249999
v 0.75 -1.97500002 3.0250001
v -0.75 -1.97500002 3.0250001
v -0.75 -1.97500002 3.2249999
v -0.75 -1.97500002 3.0250001
v 0.75 -1.97500002 3.0250001
v 0.75 -1.77499998 3.0250001
v -0.75 -1.77499998 3.0250001
v 0.75 -1.97500002 3.2249999
v -0.75 -1.97500002 3.2249999
v -0.75 -1.77499998 3.2249999
v 0.75 -1.77499998 3.2249999
v -0.75 1.97500002 3.2249999
v -0.75 1.97500002 3.0250001
v 0.75 1.97500002 3.0250001
v 0.75 1.97500002 3.2249999
v 0.75 1.77499998 3.2249999
v 0.75 1.77499998 3.0250001
v -0.75 1.77499998 3.0250001
v -0.75 1.77499998 3.2249999
v -0.75 1.77499998 3.0250001
v 0.75 1.77499998 3.0250001
v 0.75 1.97500002 3.0250001
v -0.75 1.97500002 3.0250001
v 0.75 1.77499998 3.2249999
v -0.75 1.77499998 3.2249999
v -0.75 1.97500002 3.2249999
v 0.75 1.97500002 3.2249999
v -0.625 -2.375 3.25
v 0.625 -2.375 3.25
v 0.625 -2.625 3.25
v -0.875 -2.625 3.25
v -0.875 -2.375 3.25
v -0.875 2.625 3.25
v -0.625 2.375 3.25
v 0.625 2.375 3.25
v 0.875 -2.625 3.25
v 0.875 2.625 3.25
vt 0.107773997 0.864637017
vt 0.140266001 0.864637017
vt 0.145680994 0.864637017
vt 0.178174004 0.78213203
vt 0.113188997 0.78213203
vt 0.107773997 0.78213203
vt 0.210666001 0.664268017
vt 0.210666001 0.670162022
vt 0.210666001 0.78213203
vt 0.932932019 0.454450011
vt 0.930891991 0.454450011
vt 0.930891991 0.471103013
vt 0.932932019 0.471103013
vt 0.868149996 0.454450011
vt 0.866110027 0.454450011
vt 0.866110027 0.471103013
vt 0.868149996 0.471103013
vt 0.864068985 0.437795997
vt 0.864068985 0.454450011
vt 0.866110027 0.454450011
vt 0.866110027 0.437795997
vt 0.864068985 0.454450011
vt 0.864068985 0.437795997
vt 0.862029016 0.437795997
vt 0.862029016 0.454450011
vt 0.172757998 0.788025022
vt 0.167343006 0.788025022
vt 0.167343006 0.858743012
vt 0.172757998 0.858743012
vt 0.102358997 0.788025022
vt 0.0969429985 0.788025022
vt 0.0969429985 0.858743012
vt 0.102358997 0.858743012
vt 0.216080993 0.864637017
vt 0.216080993 0.788025022
vt 0.210666001 0.788025022
vt 0.210666001 0.858743012
vt 0.183588997 0.858743012
vt 0.178174004 0.864637017
vt 0.178174004 0.788025022
vt 0.183588997 0.788025022
vt 0.0915279984 0.788025022
vt 0.0915279984 0.817490995
vt 0.0969429985 0.817490995
vt 0.0969429985 0.788025022
vt 0.037374001 0.664268017
vt 0.037374001 0.670162022
vt 0.102358997 0.670162022
vt 0.107773997 0.664268017
vt 0.102358997 0.78213203
vt 0.107773997 0.788025022
vt 0.037374001 0.78213203
vt 0.037374001 0.788025022
vt 0.0427899994 0.788025022
vt 0.037374001 0.788025022
vt 0.037374001 0.858743012
vt 0.0427899994 0.858743012
vt 0.178174004 0.788025022
vt 0.172757998 0.788025022
vt 0.172757998 0.858743012
vt 0.178174004 0.858743012
vt 0.226912007 0.776238978
vt 0.232326999 0.776238978
vt 0.232326999 0.664268017
vt 0.226912007 0.664268017
vt 0.161927 0.788025022
vt 0.156512007 0.788025022
vt 0.156512007 0.817490995
vt 0.161927 0.817490995
vt 0.156512007 0.788025022
vt 0.151097 0.788025022
vt 0.151097 0.858743012
vt 0.156512007 0.858743012
vt 0.151097 0.788025022
vt 0.145680994 0.788025022
vt 0.145680994 0.858743012
vt 0.151097 0.858743012
vt 0.232326999 0.776238978
vt 0.237742007 0.776238978
vt 0.237742007 0.664268017
vt 0.232326999 0.664268017
vt 0.0482049994 0.788025022
vt 0.0482049994 0.817490995
vt 0.0536199994 0.817490995
vt 0.0536199994 0.788025022
vt 0.145680994 0.864637017
vt 0.145680994 0.788025022
vt 0.140266001 0.788025022
vt 0.140266001 0.858743012
vt 0.113188997 0.858743012
vt 0.107773997 0.864637017
vt 0.107773997 0.788025022
vt 0.113188997 0.788025022
vt 0.178174004 0.670162022
vt 0.178174004 0.664268017
vt 0.107773997 0.664268017
vt 0.113188997 0.670162022
vt 0.113188997 0.78213203
vt 0.107773997 0.78213203
vt 0.107773997 0.788025022
vt 0.178174004 0.788025022
vt 0.178174004 0.78213203
vt 0.107773997 0.788025022
vt 0.102358997 0.788025022
vt 0.102358997 0.858743012
vt 0.107773997 0.858743012
vt 0.161927 0.858743012
vt 0.167343006 0.858743012
vt 0.167343006 0.788025022
vt 0.161927 0.788025022
vt 0.0482049994 0.788025022
vt 0.0427899994 0.788025022
vt 0.0427899994 0.817490995
vt 0.0482049994 0.817490995
vt 0.221496001 0.776238978
vt 0.226912007 0.776238978
vt 0.226912007 0.664268017
vt 0.221496001 0.664268017
vt 0.216080993 0.664268017
vt 0.216080993 0.776238978
vt 0.221496001 0.776238978
vt 0.221496001 0.664268017
vt 0.930891991 0.454450011
vt 0.928851008 0.454450011
vt 0.928851008 0.471103013
vt 0.930891991 0.471103013
vt 0.860499024 0.454450011
vt 0.858457983 0.454450011
vt 0.858457983 0.471103013
vt 0.860499024 0.471103013
vt 0.854377985 0.437795997
vt 0.854377985 0.454450011
vt 0.856418014 0.454450011
vt 0.856418014 0.437795997
vt 0.860499024 0.454450011
vt 0.860499024 0.437795997
vt 0.858457983 0.437795997
vt 0.858457983 0.454450011
vt 0.932932019 0.437795997
vt 0.930891991 0.437795997
vt 0.930891991 0.454450011
vt 0.932932019 0.454450011
vt 0.868149996 0.471103013
vt 0.870190024 0.471103013
vt 0.870190024 0.454450011
vt 0.868149996 0.454450011
vt 0.868149996 0.454450011
vt 0.868149996 0.437795997
vt 0.866110027 0.437795997
vt 0.866110027 0.454450011
vt 0.900795996 0.451674014
vt 0.900795996 0.468326986
vt 0.902836025 0.468326986
vt 0.902836025 0.451674014
vt 0.864068985 0.471103013
vt 0.866110027 0.471103013
vt 0.866110027 0.454450011
vt 0.864068985 0.454450011
vt 0.864068985 0.454450011
vt 0.862029016 0.454450011
vt 0.862029016 0.471103013
vt 0.864068985 0.471103013
vt 0.856418014 0.471103013
vt 0.856418014 0.454450011
vt 0.854377985 0.454450011
vt 0.854377985 0.471103013
vt 0.847235978 0.451674014
vt 0.847235978 0.468326986
vt 0.84927702 0.468326986
vt 0.84927702 0.451674014
vt 0.854377985 0.454450011
vt 0.852337003 0.454450011
vt 0.852337003 0.471103013
vt 0.854377985 0.471103013
vt 0.858457983 0.454450011
vt 0.856418014 0.454450011
vt 0.856418014 0.471103013
vt 0.858457983 0.471103013
vt 0.854377985 0.454450011
vt 0.854377985 0.437795997
vt 0.852337003 0.437795997
vt 0.852337003 0.454450011
vt 0.870701015 0.451674014
vt 0.870701015 0.468326986
vt 0.872740984 0.468326986
vt 0.872740984 0.451674014
vt 0.930891991 0.437795997
vt 0.928851008 0.437795997
vt 0.928851008 0.454450011
vt 0.930891991 0.454450011
vt 0.870190024 0.437795997
vt 0.868149996 0.437795997
vt 0.868149996 0.454450011
vt 0.870190024 0.454450011
vt 0.858457983 0.454450011
vt 0.858457983 0.437795997
vt 0.856418014 0.437795997
vt 0.856418014 0.454450011
vt 0.849786997 0.451674014
vt 0.849786997 0.468326986
vt 0.851827025 0.468326986
vt 0.851827025 0.451674014
vt 0.183588997 0.670162022
vt 0.210666001 0.670162022
vt 0.210666001 0.664268017
vt 0.178174004 0.664268017
vt 0.178174004 0.670162022
vt 0.178174004 0.788025022
vt 0.183588997 0.78213203
vt 0.210666001 0.78213203
vt 0.216080993 0.664268017
vt 0.216080993 0.788025022
vn -0 1 0
vn -0 1 0
vn -0 1 0
vn -0 1 0
vn -0 1 0
vn -0 1 0
vn -0 1 0
vn -0 1 0
vn -0 1 0
vn -0 1 0
vn -0 1 0
vn -0 1 0
vn -0 1 0
vn -0 -1 0
vn -0 -1 0
vn -0 -1 0
vn -0 -1 0
vn -0 0 -1
vn -0 0 -1
vn -0 0 -1
vn -0 0 -1
vn -0 0 1
vn -0 0 1
vn -0 0 1
vn -0 0 1
vn 1 0 0
vn 1 0 0
vn 1 0 0
vn 1 0 0
vn -0 -1 0
vn -0 -1 0
vn -0 -1 0
vn -0 -1 0
vn -0 1 0
vn -0 1 0
vn -0 1 0
vn -0 1 0
vn -0 1 0
vn -0 1 0
vn -0 1 0
vn -0 1 0
vn -0 -1 0
vn -0 -1 0
vn -0 -1 0
vn -0 -1 0
vn 1 0 0
vn 1 0 0
vn 1 0 0
vn 1 0 0
vn 1 0 0
vn 1 0 0
vn 1 0 0
vn 1 0 0
vn -0 -1 0
vn -0 -1 0
vn -0 -1 0
vn -0 -1 0
vn -1 0 0
vn -1 0 0
vn -1 0 0
vn -1 0 0
vn -0 0 -1
vn -0 0 -1
vn -0 0 -1
vn -0 0 -1
vn -0 0 -1
vn -0 0 -1
vn -0 0 -1
vn -0 0 -1
vn -1 0 0
vn -1 0 0
vn -1 0 0
vn -1 0 0
vn -0 1 0
vn -0 1 0
vn -0 1 0
vn -0 1 0
vn -0 0 -1
vn -0 0 -1
vn -0 0 -1
vn -0 0 -1
vn -0 1 0
vn -0 1 0
vn -0 1 0
vn -0 1 0
vn -0 -1 0
vn -0 -1 0
vn -0 -1 0
vn -0 -1 0
vn -0 -1 0
vn -0 -1 0
vn -0 -1 0
vn -0 -1 0
vn -1 0 0
vn -1 0 0
vn -1 0 0
vn -1 0 0
vn -1 0 0
vn -1 0 0
vn -1 0 0
vn -1 0 0
vn -1 0 0
vn -0 1 0
vn -0 1 0
vn -0 1 0
vn -0 1 0
vn 1 0 0
vn 1 0 0
vn 1 0 0
vn 1 0 0
vn -0 0 -1
vn -0 0 -1
vn -0 0 -1
vn -0 0 -1
vn 1 0 0
vn 1 0 0
vn 1 0 0
vn 1 0 0
vn -1 0 0
vn -1 0 0
vn -1 0 0
vn -1 0 0
vn -0 1 0
vn -0 1 0
vn -0 1 0
vn -0 1 0
vn -0 -1 0
vn -0 -1 0
vn -0 -1 0
vn -0 -1 0
vn -0 0 -1
vn -0 0 -1
vn -0 0 -1
vn -0 0 -1
vn -0 0 1
vn -0 0 1
vn -0 0 1
vn -0 0 1
vn -0 1 0
vn -0 1 0
vn -0 1 0
vn -0 1 0
vn -0 -1 0
vn -0 -1 0
vn -0 -1 0
vn -0 -1 0
vn -0 0 -1
vn -0 0 -1
vn -0 0 -1
vn -0 0 -1
vn -0 0 1
vn -0 0 1
vn -0 0 1
vn -0 0 1
vn -0 1 0
vn -0 1 0
vn -0 1 0
vn -0 1 0
vn -0 -1 0
vn -0 -1 0
vn -0 -1 0
vn -0 -1 0
vn -0 0 -1
vn -0 0 -1
vn -0 0 -1
vn -0 0 -1
vn -0 0 1
vn -0 0 1
vn -0 0 1
vn -0 0 1
vn -0 1 0
vn -0 1 0
vn -0 1 0
vn -0 1 0
vn -0 -1 0
vn -0 -1 0
vn -0 -1 0
vn -0 -1 0
vn -0 0 -1
vn -0 0 -1
vn -0 0 -1
vn -0 0 -1
vn -0 0 1
vn -0 0 1
vn -0 0 1
vn -0 0 1
vn -0 1 0
vn -0 1 0
vn -0 1 0
vn -0 1 0
vn -0 -1 0
vn -0 -1 0
vn -0 -1 0
vn -0 -1 0
vn -0 0 -1
vn -0 0 -1
vn -0 0 -1
vn -0 0 -1
vn -0 0 1
vn -0 0 1
vn -0 0 1
vn -0 0 1
vn -0 0 1
vn -0 0 1
vn -0 0 1
vn -0 0 1
vn -0 0 1
vn -0 0 1
vn -0 0 1
vn -0 0 1
vn -0 0 1
vn -0 0 1
g Model_0_0
f 3/3/3 2/2/2 1/1/1
f 6/6/6 5/5/5 4/4/4
f 9/9/9 8/8/8 7/7/7
f 12/12/12 11/11/11 10/10/10
f 13/13/13 12/12/12 10/10/10
f 16/16/16 15/15/15 14/14/14
f 17/17/17 16/16/16 14/14/14
f 20/20/20 19/19/19 18/18/18
f 21/21/21 20/20/20 18/18/18
f 24/24/24 23/23/23 22/22/22
f 25/25/25 24/24/24 22/22/22
f 28/28/28 27/27/27 26/26/26
f 29/29/29 28/28/28 26/26/26
f 32/32/32 31/31/31 30/30/30
f 33/33/33 32/32/32 30/30/30
f 36/36/36 35/35/35 34/34/34
f 34/34/34 37/37/37 36/36/36
f 34/34/34 38/38/38 37/37/37
f 38/38/38 34/34/34 39/39/39
f 38/38/38 39/39/39 40/40/40
f 40/40/40 41/41/41 38/38/38
f 44/44/44 43/43/43 42/42/42
f 45/45/45 44/44/44 42/42/42
f 48/48/48 47/47/47 46/46/46
f 48/48/48 46/46/46 49/49/49
f 50/50/50 48/48/48 49/49/49
f 50/50/50 49/49/49 51/51/51
f 52/52/52 50/50/50 51/51/51
f 51/51/51 53/53/53 52/52/52
f 56/56/56 55/55/55 54/54/54
f 57/57/57 56/56/56 54/54/54
f 60/60/60 59/59/59 58/58/58
f 61/61/61 60/60/60 58/58/58
f 64/64/64 63/63/63 62/62/62
f 65/65/65 64/64/64 62/62/62
f 68/68/68 67/67/67 66/66/66
f 69/69/69 68/68/68 66/66/66
f 72/72/72 71/71/71 70/70/70
f 73/73/73 72/72/72 70/70/70
f 76/76/76 75/75/75 74/74/74
f 77/77/77 76/76/76 74/74/74
f 80/80/80 79/79/79 78/78/78
f 81/81/81 80/80/80 78/78/78
f 84/84/84 83/83/83 82/82/82
f 85/85/85 84/84/84 82/82/82
f 88/88/88 87/87/87 86/86/86
f 86/86/86 89/89/89 88/88/88
f 86/86/86 90/90/90 89/89/89
f 90/90/90 86/86/86 91/91/91
f 90/90/90 91/91/91 92/92/92
f 92/92/92 93/93/93 90/90/90
f 96/96/96 95/95/95 94/94/94
f 96/96/96 94/94/94 97/97/97
f 96/96/96 97/97/97 98/98/98
f 98/98/98 99/99/99 96/96/96
f 101/101/101 100/100/100 99/99/99
f 99/99/99 102/102/102 101/101/101
f 105/105/105 104/104/104 103/103/103
f 106/106/106 105/105/105 103/103/103
f 109/109/109 108/108/108 107/107/107
f 110/110/110 109/109/109 107/107/107
f 113/113/113 112/112/112 111/111/111
f 114/114/114 113/113/113 111/111/111
f 117/117/117 116/116/116 115/115/115
f 118/118/118 117/117/117 115/115/115
f 121/121/121 120/120/120 119/119/119
f 122/122/122 121/121/121 119/119/119
f 125/125/125 124/124/124 123/123/123
f 126/126/126 125/125/125 123/123/123
f 129/129/129 128/128/128 127/127/127
f 130/130/130 129/129/129 127/127/127
f 133/133/133 132/132/132 131/131/131
f 134/134/134 133/133/133 131/131/131
f 137/137/137 136/136/136 135/135/135
f 138/138/138 137/137/137 135/135/135
f 141/141/141 140/140/140 139/139/139
f 142/142/142 141/141/141 139/139/139
f 145/145/145 144/144/144 143/143/143
f 146/146/146 145/145/145 143/143/143
f 149/149/149 148/148/148 147/147/147
f 150/150/150 149/149/149 147/147/147
f 153/153/153 152/152/152 151/151/151
f 154/154/154 153/153/153 151/151/151
f 157/157/157 156/156/156 155/155/155
f 158/158/158 157/157/157 155/155/155
f 161/161/161 160/160/160 159/159/159
f 162/162/162 161/161/161 159/159/159
f 165/165/165 164/164/164 163/163/163
f 166/166/166 165/165/165 163/163/163
f 169/169/169 168/168/168 167/167/167
f 170/170/170 169/169/169 167/167/167
f 173/173/173 172/172/172 171/171/171
f 174/174/174 173/173/173 171/171/171
f 177/177/177 176/176/176 175/175/175
f 178/178/178 177/177/177 175/175/175
f 181/181/181 180/180/180 179/179/179
f 182/182/182 181/181/181 179/179/179
f 185/185/185 184/184/184 183/183/183
f 186/186/186 185/185/185 183/183/183
f 189/189/189 188/188/188 187/187/187
f 190/190/190 189/189/189 187/187/187
f 193/193/193 192/192/192 191/191/191
f 194/194/194 193/193/193 191/191/191
f 197/197/197 196/196/196 195/195/195
f 198/198/198 197/197/197 195/195/195
f 201/201/201 200/200/200 199/199/199
f 202/202/202 201/201/201 199/199/199
f 205/205/205 204/204/204 203/203/203
f 203/203/203 206/206/206 205/205/205
f 203/203/203 207/207/207 206/206/206
f 208/208/208 207/207/207 203/203/203
f 208/208/208 203/203/203 209/209/209
f 208/208/208 209/209/209 210/210/210
f 205/205/205 211/211/211 210/210/210
f 212/212/212 208/208/208 210/210/210
f 210/210/210 211/211/211 212/212/212
