v -0.296706 0.296706 2.300000
v -0.370883 0.370883 1.676553
v 0.370883 0.370883 1.676553
v 0.370883 0.370883 1.676553
v 0.296706 0.296706 2.300000
v 0.296706 -0.296706 2.300000
v 0.370883 -0.370883 1.676553
v -0.370883 -0.370883 1.676553
v -0.370883 -0.370883 1.676553
v -0.296706 -0.296706 2.300000
v -0.296706 -0.296706 2.300000
v -0.370883 -0.370883 1.676553
v -0.370883 0.370883 1.676553
v -0.296706 0.296706 2.300000
v 0.296706 0.296706 2.300000
v 0.370883 0.370883 1.676553
v 0.370883 -0.370883 1.676553
v 0.296706 -0.296706 2.300000
v -0.065769 -0.065769 2.203720
v -0.065769 -0.065769 0.075000
v -0.065769 0.065769 0.075000
v -0.065769 0.065769 2.203720
v -0.065769 0.065769 2.203720
v -0.065769 0.065769 0.075000
v 0.065769 0.065769 0.075000
v 0.065769 0.065769 2.203720
v 0.065769 0.065769 2.203720
v 0.065769 0.065769 0.075000
v 0.065769 -0.065769 0.075000
v 0.065769 -0.065769 2.203720
v 0.065769 -0.065769 2.203720
v 0.065769 -0.065769 0.075000
v -0.065769 -0.065769 0.075000
v -0.065769 -0.065769 2.203720
vt 0.235585496 0.275570244
vt 0.203040227 0.312053412
vt 0.285254121 0.312053412
vt 0.285254121 0.312053412
vt 0.247809619 0.27971372
vt 0.250857174 0.267186493
vt 0.283402413 0.230703324
vt 0.201188549 0.230703324
vt 0.201188549 0.230703324
vt 0.238633037 0.263043046
vt 0.238633037 0.263043046
vt 0.201188549 0.230703324
vt 0.203040227 0.312053412
vt 0.235585496 0.275570244
vt 0.247809619 0.27971372
vt 0.285254121 0.312053412
vt 0.283402413 0.230703324
vt 0.250857174 0.267186493
vt 0.699980199 0.463861883
vt 0.699980199 0.547944009
vt 0.784062326 0.547944009
vt 0.784062326 0.463861883
vt 0.699980199 0.463861883
vt 0.699980199 0.547944009
vt 0.784062326 0.547944009
vt 0.784062326 0.463861883
vt 0.699980199 0.463861883
vt 0.699980199 0.547944009
vt 0.784062326 0.547944009
vt 0.784062326 0.463861883
vt 0.699980199 0.463861883
vt 0.699980199 0.547944009
vt 0.784062326 0.547944009
vt 0.784062326 0.463861883
vn 0.000000 0.992996 0.118145
vn 0.000000 0.992996 0.118145
vn 0.000000 0.992996 0.118145
vn 0.000000 0.992996 0.118145
vn 0.000000 0.992996 0.118145
vn 0.000000 -0.992996 0.118145
vn 0.000000 -0.992996 0.118145
vn 0.000000 -0.992996 0.118145
vn 0.000000 -0.992996 0.118145
vn 0.000000 -0.992996 0.118145
vn -0.992996 -0.000000 0.118145
vn -0.992996 -0.000000 0.118145
vn -0.992996 -0.000000 0.118145
vn -0.992996 -0.000000 0.118145
vn 0.992996 -0.000000 0.118145
vn 0.992996 -0.000000 0.118145
vn 0.992996 -0.000000 0.118145
vn 0.992996 -0.000000 0.118145
vn -1.000000 0.000000 0.000000
vn -1.000000 0.000000 0.000000
vn -1.000000 0.000000 0.000000
vn -1.000000 0.000000 0.000000
vn 0.000000 1.000000 0.000000
vn 0.000000 1.000000 0.000000
vn 0.000000 1.000000 0.000000
vn 0.000000 1.000000 0.000000
vn 1.000000 0.000000 0.000000
vn 1.000000 0.000000 0.000000
vn 1.000000 0.000000 0.000000
vn 1.000000 0.000000 0.000000
vn 0.000000 -1.000000 -0.000000
vn 0.000000 -1.000000 -0.000000
vn 0.000000 -1.000000 -0.000000
vn 0.000000 -1.000000 -0.000000
f 3/3/3 2/2/2 1/1/1
f 5/5/5 4/4/4 1/1/1
f 8/8/8 7/7/7 6/6/6
f 10/10/10 9/9/9 6/6/6
f 13/13/13 12/12/12 11/11/11
f 14/14/14 13/13/13 11/11/11
f 17/17/17 16/16/16 15/15/15
f 18/18/18 17/17/17 15/15/15
f 21/21/21 20/20/20 19/19/19
f 22/22/22 21/21/21 19/19/19
f 25/25/25 24/24/24 23/23/23
f 26/26/26 25/25/25 23/23/23
f 29/29/29 28/28/28 27/27/27
f 30/30/30 29/29/29 27/27/27
f 33/33/33 32/32/32 31/31/31
f 34/34/34 33/33/33 31/31/31
