g Model_0
v -0.0717409998 -0.0540659986 0.817107022
v 0.0399920009 0.0666449964 0.691541016
v -0.0717409998 0.0540659986 0.817107022
v 0.0399920009 -0.0666449964 0.691541016
v 0.0802180022 0.115022004 0.587675989
v 0.0802180022 -0.115022004 0.587675989
v -0.0717409998 0.0540659986 0.817107022
v 0.141135007 0.0666449964 0.771417975
v 0.0103129996 0.0540659986 0.881908
v 0.0399920009 0.0666449964 0.691541016
v 0.254781008 0.115022004 0.725534022
v 0.0802180022 0.115022004 0.587675989
v 0.0103129996 0.0540659986 0.881908
v 0.141135007 -0.0666449964 0.771417975
v 0.0103129996 -0.0540659986 0.881908
v 0.141135007 0.0666449964 0.771417975
v 0.254781008 -0.115022004 0.725534022
v 0.254781008 0.115022004 0.725534022
v 0.0103129996 -0.0540659986 0.881908
v 0.0399920009 -0.0666449964 0.691541016
v -0.0717409998 -0.0540659986 0.817107022
v 0.141135007 -0.0666449964 0.771417975
v 0.0802180022 -0.115022004 0.587675989
v 0.254781008 -0.115022004 0.725534022
v 0.0103129996 -0.0540659986 0.881908
v -0.0717409998 -0.0540659986 0.817107022
v -0.0717409998 0.0540659986 0.817107022
v 0.0103129996 0.0540659986 0.881908
v 0.0802180022 -0.115022004 0.587675989
v 0.254781008 -0.115022004 0.725534022
v 0.254781008 0.115022004 0.725534022
v 0.0802180022 0.115022004 0.587675989
v -0.126702994 -0.0303300004 0.445185006
v -0.0303300004 -0.0303300004 0
v -0.0303300004 0.0303300004 0
v -0.126702994 0.0303300004 0.445185006
v -0.0237509999 -0.0303300004 0.785436988
v -0.0237509999 0.0303300004 0.785436988
v -0.126702994 0.0303300004 0.445185006
v -0.0303300004 0.0303300004 0
v 0.0303300004 0.0303300004 0
v -0.0660419986 0.0303300004 0.445185006
v -0.0237509999 0.0303300004 0.785436988
v 0.0331469998 0.0303300004 0.764405012
v -0.0660419986 0.0303300004 0.445185006
v 0.0303300004 0.0303300004 0
v 0.0303300004 -0.0303300004 0
v -0.0660419986 -0.0303300004 0.445185006
v 0.0331469998 0.0303300004 0.764405012
v 0.0331469998 -0.0303300004 0.764405012
v -0.0660419986 -0.0303300004 0.445185006
v 0.0303300004 -0.0303300004 0
v -0.0303300004 -0.0303300004 0
v -0.126702994 -0.0303300004 0.445185006
v 0.0331469998 -0.0303300004 0.764405012
v -0.0237509999 -0.0303300004 0.785436988
v 0.150218993 0.150218993 0
v -0.150218993 0.150218993 0
v -0.150218993 -0.150218993 0
v 0.150218993 -0.150218993 0
v 0.150218993 0.150218993 0.0820569992
v 0.150218993 -0.150218993 0.0820569992
v -0.150218993 -0.150218993 0.0820569992
v -0.150218993 0.150218993 0.0820569992
v 0.150218993 0.150218993 0
v 0.150218993 -0.150218993 0
v 0.150218993 -0.150218993 0.0820569992
v 0.150218993 0.150218993 0.0820569992
v 0.150218993 -0.150218993 0
v -0.150218993 -0.150218993 0
v -0.150218993 -0.150218993 0.0820569992
v 0.150218993 -0.150218993 0.0820569992
v -0.150218993 -0.150218993 0
v -0.150218993 0.150218993 0
v -0.150218993 0.150218993 0.0820569992
v -0.150218993 -0.150218993 0.0820569992
v 0.150218993 0.150218993 0.0820569992
v -0.150218993 0.150218993 0.0820569992
v -0.150218993 0.150218993 0
v 0.150218993 0.150218993 0
vt 0.155047998 0.723267972
vt 0.155047998 0.723267972
vt 0.155047998 0.723267972
vt 0.155047998 0.723267972
vt 0.155047998 0.723267972
vt 0.155047998 0.723267972
vt 0.155047998 0.723267972
vt 0.155047998 0.723267972
vt 0.155047998 0.723267972
vt 0.155047998 0.723267972
vt 0.155047998 0.723267972
vt 0.155047998 0.723267972
vt 0.155047998 0.723267972
vt 0.155047998 0.723267972
vt 0.155047998 0.723267972
vt 0.155047998 0.723267972
vt 0.155047998 0.723267972
vt 0.155047998 0.723267972
vt 0.155047998 0.723267972
vt 0.155047998 0.723267972
vt 0.155047998 0.723267972
vt 0.155047998 0.723267972
vt 0.155047998 0.723267972
vt 0.155047998 0.723267972
vt 0.155047998 0.723267972
vt 0.155047998 0.723267972
vt 0.155047998 0.723267972
vt 0.155047998 0.723267972
vt 0.155047998 0.723267972
vt 0.155047998 0.723267972
vt 0.155047998 0.723267972
vt 0.155047998 0.723267972
vt 0.646174014 0.504149973
vt 0.646174014 0.504149973
vt 0.646174014 0.504149973
vt 0.646174014 0.504149973
vt 0.646174014 0.504149973
vt 0.646174014 0.504149973
vt 0.646174014 0.504149973
vt 0.646174014 0.504149973
vt 0.646174014 0.504149973
vt 0.646174014 0.504149973
vt 0.646174014 0.504149973
vt 0.646174014 0.504149973
vt 0.646174014 0.504149973
vt 0.646174014 0.504149973
vt 0.646174014 0.504149973
vt 0.646174014 0.504149973
vt 0.646174014 0.504149973
vt 0.646174014 0.504149973
vt 0.646174014 0.504149973
vt 0.646174014 0.504149973
vt 0.646174014 0.504149973
vt 0.646174014 0.504149973
vt 0.646174014 0.504149973
vt 0.646174014 0.504149973
vt 0.155285999 0.795862973
vt 0.155285999 0.867385983
vt 0.202968001 0.867385983
vt 0.202968001 0.795862973
vt 0.251603991 0.867385983
vt 0.299286008 0.867385983
vt 0.299286008 0.795862973
vt 0.251603991 0.795862973
vt 0.155285999 0.795148015
vt 0.202968001 0.795148015
vt 0.202968001 0.723625004
vt 0.155285999 0.723625004
vt 0.203445002 0.795148015
vt 0.251127005 0.795148015
vt 0.251127005 0.723625004
vt 0.203445002 0.723625004
vt 0.251603991 0.723625004
vt 0.251603991 0.795148015
vt 0.299286008 0.795148015
vt 0.299286008 0.723625004
vt 0.203445002 0.795862973
vt 0.203445002 0.867385983
vt 0.251127005 0.867385983
vt 0.251127005 0.795862973
vn -0.747058332 0 -0.664758503
vn -0.85339278 0 -0.521268368
vn -0.747058332 0 -0.664758503
vn -0.85339278 0 -0.521268368
vn -0.932507098 0 -0.361151695
vn -0.932507098 0 -0.361151695
vn -0.0463333577 0.997201681 0.0586691536
vn -0.153756663 0.96873796 0.19469355
vn -0.0463333577 0.997201681 0.0586691536
vn -0.153756663 0.96873796 0.19469355
vn -0.256436169 0.910386205 0.324711174
vn -0.256436169 0.910386205 0.324711174
vn 0.645242572 0 0.763977766
vn 0.516309142 0 0.856402338
vn 0.645242572 0 0.763977766
vn 0.516309142 0 0.856402338
vn 0.374382079 0 0.927274585
vn 0.374382079 0 0.927274585
vn -0.0463333577 -0.997201681 0.0586691536
vn -0.153756663 -0.96873796 0.19469355
vn -0.0463333577 -0.997201681 0.0586691536
vn -0.153756663 -0.96873796 0.19469355
vn -0.256436169 -0.910386205 0.324711174
vn -0.256436169 -0.910386205 0.324711174
vn -0.619771004 0 0.784782708
vn -0.619771004 0 0.784782708
vn -0.619771004 0 0.784782708
vn -0.619771004 0 0.784782708
vn 0.619769335 0 -0.784784079
vn 0.619769335 0 -0.784784079
vn 0.619769335 0 -0.784784079
vn 0.619769335 0 -0.784784079
vn -0.99918741 0 0.0403037146
vn -0.977361202 0 -0.211577699
vn -0.977361202 0 -0.211577699
vn -0.99918741 0 0.0403037146
vn -0.957145095 0 0.289608896
vn -0.957145095 0 0.289608896
vn -0 1 0
vn -0 1 0
vn -0 1 0
vn -0 1 0
vn -0 1 0
vn -0 1 0
vn 0.999030471 0 -0.044024948
vn 0.977361619 0 0.211575612
vn 0.977361619 0 0.211575612
vn 0.999030471 0 -0.044024948
vn 0.954961836 0 -0.296728611
vn 0.954961836 0 -0.296728611
vn -0 -1 0
vn -0 -1 0
vn -0 -1 0
vn -0 -1 0
vn -0 -1 0
vn -0 -1 0
vn -0 0 -1
vn -0 0 -1
vn -0 0 -1
vn -0 0 -1
vn -0 0 1
vn -0 0 1
vn -0 0 1
vn -0 0 1
vn 1 0 0
vn 1 0 0
vn 1 0 0
vn 1 0 0
vn -0 -1 0
vn -0 -1 0
vn -0 -1 0
vn -0 -1 0
vn -1 0 0
vn -1 0 0
vn -1 0 0
vn -1 0 0
vn -0 1 0
vn -0 1 0
vn -0 1 0
vn -0 1 0
g Model_0_0
f 3/3/3 2/2/2 1/1/1
f 2/2/2 4/4/4 1/1/1
f 2/2/2 5/5/5 4/4/4
f 5/5/5 6/6/6 4/4/4
f 9/9/9 8/8/8 7/7/7
f 8/8/8 10/10/10 7/7/7
f 8/8/8 11/11/11 10/10/10
f 11/11/11 12/12/12 10/10/10
f 15/15/15 14/14/14 13/13/13
f 14/14/14 16/16/16 13/13/13
f 14/14/14 17/17/17 16/16/16
f 17/17/17 18/18/18 16/16/16
f 21/21/21 20/20/20 19/19/19
f 20/20/20 22/22/22 19/19/19
f 20/20/20 23/23/23 22/22/22
f 23/23/23 24/24/24 22/22/22
f 27/27/27 26/26/26 25/25/25
f 28/28/28 27/27/27 25/25/25
f 31/31/31 30/30/30 29/29/29
f 32/32/32 31/31/31 29/29/29
f 35/35/35 34/34/34 33/33/33
f 36/36/36 35/35/35 33/33/33
f 33/33/33 37/37/37 36/36/36
f 37/37/37 38/38/38 36/36/36
f 41/41/41 40/40/40 39/39/39
f 42/42/42 41/41/41 39/39/39
f 39/39/39 43/43/43 42/42/42
f 43/43/43 44/44/44 42/42/42
f 47/47/47 46/46/46 45/45/45
f 48/48/48 47/47/47 45/45/45
f 45/45/45 49/49/49 48/48/48
f 49/49/49 50/50/50 48/48/48
f 53/53/53 52/52/52 51/51/51
f 54/54/54 53/53/53 51/51/51
f 51/51/51 55/55/55 54/54/54
f 55/55/55 56/56/56 54/54/54
f 59/59/59 58/58/58 57/57/57
f 60/60/60 59/59/59 57/57/57
f 63/63/63 62/62/62 61/61/61
f 64/64/64 63/63/63 61/61/61
f 67/67/67 66/66/66 65/65/65
f 68/68/68 67/67/67 65/65/65
f 71/71/71 70/70/70 69/69/69
f 72/72/72 71/71/71 69/69/69
f 75/75/75 74/74/74 73/73/73
f 76/76/76 75/75/75 73/73/73
f 79/79/79 78/78/78 77/77/77
f 80/80/80 79/79/79 77/77/77
