g Model_0
v -0.071741 -0.054066 0.817107
v 0.039992 0.066645 0.691541
v -0.071741 0.054066 0.817107
v 0.039992 -0.066645 0.691541
v 0.080218 0.115022 0.587676
v 0.080218 -0.115022 0.587676
v -0.071741 0.054066 0.817107
v 0.141135 0.066645 0.771418
v 0.010313 0.054066 0.881908
v 0.039992 0.066645 0.691541
v 0.254781 0.115022 0.725534
v 0.080218 0.115022 0.587676
v 0.010313 0.054066 0.881908
v 0.141135 -0.066645 0.771418
v 0.010313 -0.054066 0.881908
v 0.141135 0.066645 0.771418
v 0.254781 -0.115022 0.725534
v 0.254781 0.115022 0.725534
v 0.010313 -0.054066 0.881908
v 0.039992 -0.066645 0.691541
v -0.071741 -0.054066 0.817107
v 0.141135 -0.066645 0.771418
v 0.080218 -0.115022 0.587676
v 0.254781 -0.115022 0.725534
v 0.010313 -0.054066 0.881908
v -0.071741 -0.054066 0.817107
v -0.071741 0.054066 0.817107
v 0.010313 0.054066 0.881908
v 0.080218 -0.115022 0.587676
v 0.254781 -0.115022 0.725534
v 0.254781 0.115022 0.725534
v 0.080218 0.115022 0.587676
v -0.126703 -0.030330 0.445185
v -0.030330 -0.030330 0.000000
v -0.030330 0.030330 0.000000
v -0.126703 0.030330 0.445185
v -0.023751 -0.030330 0.785437
v -0.023751 0.030330 0.785437
v -0.126703 0.030330 0.445185
v -0.030330 0.030330 0.000000
v 0.030330 0.030330 0.000000
v -0.066042 0.030330 0.445185
v -0.023751 0.030330 0.785437
v 0.033147 0.030330 0.764405
v -0.066042 0.030330 0.445185
v 0.030330 0.030330 0.000000
v 0.030330 -0.030330 0.000000
v -0.066042 -0.030330 0.445185
v 0.033147 0.030330 0.764405
v 0.033147 -0.030330 0.764405
v -0.066042 -0.030330 0.445185
v 0.030330 -0.030330 0.000000
v -0.030330 -0.030330 0.000000
v -0.126703 -0.030330 0.445185
v 0.033147 -0.030330 0.764405
v -0.023751 -0.030330 0.785437
v 0.150219 0.150219 0.000000
v -0.150219 0.150219 0.000000
v -0.150219 -0.150219 0.000000
v 0.150219 -0.150219 0.000000
v 0.150219 0.150219 0.082057
v 0.150219 -0.150219 0.082057
v -0.150219 -0.150219 0.082057
v -0.150219 0.150219 0.082057
v 0.150219 0.150219 0.000000
v 0.150219 -0.150219 0.000000
v 0.150219 -0.150219 0.082057
v 0.150219 0.150219 0.082057
v 0.150219 -0.150219 0.000000
v -0.150219 -0.150219 0.000000
v -0.150219 -0.150219 0.082057
v 0.150219 -0.150219 0.082057
v -0.150219 -0.150219 0.000000
v -0.150219 0.150219 0.000000
v -0.150219 0.150219 0.082057
v -0.150219 -0.150219 0.082057
v 0.150219 0.150219 0.082057
v -0.150219 0.150219 0.082057
v -0.150219 0.150219 0.000000
v 0.150219 0.150219 0.000000
vt 0.155047998 0.723267972
vt 0.155047998 0.723267972
vt 0.155047998 0.723267972
vt 0.155047998 0.723267972
vt 0.155047998 0.723267972
vt 0.155047998 0.723267972
vt 0.155047998 0.723267972
vt 0.155047998 0.723267972
vt 0.155047998 0.723267972
vt 0.155047998 0.723267972
vt 0.155047998 0.723267972
vt 0.155047998 0.723267972
vt 0.155047998 0.723267972
vt 0.155047998 0.723267972
vt 0.155047998 0.723267972
vt 0.155047998 0.723267972
vt 0.155047998 0.723267972
vt 0.155047998 0.723267972
vt 0.155047998 0.723267972
vt 0.155047998 0.723267972
vt 0.155047998 0.723267972
vt 0.155047998 0.723267972
vt 0.155047998 0.723267972
vt 0.155047998 0.723267972
vt 0.155047998 0.723267972
vt 0.155047998 0.723267972
vt 0.155047998 0.723267972
vt 0.155047998 0.723267972
vt 0.155047998 0.723267972
vt 0.155047998 0.723267972
vt 0.155047998 0.723267972
vt 0.155047998 0.723267972
vt 0.646174014 0.504149973
vt 0.646174014 0.504149973
vt 0.646174014 0.504149973
vt 0.646174014 0.504149973
vt 0.646174014 0.504149973
vt 0.646174014 0.504149973
vt 0.646174014 0.504149973
vt 0.646174014 0.504149973
vt 0.646174014 0.504149973
vt 0.646174014 0.504149973
vt 0.646174014 0.504149973
vt 0.646174014 0.504149973
vt 0.646174014 0.504149973
vt 0.646174014 0.504149973
vt 0.646174014 0.504149973
vt 0.646174014 0.504149973
vt 0.646174014 0.504149973
vt 0.646174014 0.504149973
vt 0.646174014 0.504149973
vt 0.646174014 0.504149973
vt 0.646174014 0.504149973
vt 0.646174014 0.504149973
vt 0.646174014 0.504149973
vt 0.646174014 0.504149973
vt 0.155285999 0.795862973
vt 0.155285999 0.867385983
vt 0.202968001 0.867385983
vt 0.202968001 0.795862973
vt 0.251603991 0.867385983
vt 0.299286008 0.867385983
vt 0.299286008 0.795862973
vt 0.251603991 0.795862973
vt 0.155285999 0.795148015
vt 0.202968001 0.795148015
vt 0.202968001 0.723625004
vt 0.155285999 0.723625004
vt 0.203445002 0.795148015
vt 0.251127005 0.795148015
vt 0.251127005 0.723625004
vt 0.203445002 0.723625004
vt 0.251603991 0.723625004
vt 0.251603991 0.795148015
vt 0.299286008 0.795148015
vt 0.299286008 0.723625004
vt 0.203445002 0.795862973
vt 0.203445002 0.867385983
vt 0.251127005 0.867385983
vt 0.251127005 0.795862973
vn -0.747058 0.000000 -0.664758
vn -0.853393 0.000000 -0.521268
vn -0.747058 0.000000 -0.664758
vn -0.853393 0.000000 -0.521268
vn -0.932507 0.000000 -0.361152
vn -0.932507 0.000000 -0.361152
vn -0.046333 0.997202 0.058669
vn -0.153757 0.968738 0.194694
vn -0.046333 0.997202 0.058669
vn -0.153757 0.968738 0.194694
vn -0.256436 0.910386 0.324711
vn -0.256436 0.910386 0.324711
vn 0.645243 0.000000 0.763978
vn 0.516309 0.000000 0.856402
vn 0.645243 0.000000 0.763978
vn 0.516309 0.000000 0.856402
vn 0.374382 0.000000 0.927275
vn 0.374382 0.000000 0.927275
vn -0.046333 -0.997202 0.058669
vn -0.153757 -0.968738 0.194694
vn -0.046333 -0.997202 0.058669
vn -0.153757 -0.968738 0.194694
vn -0.256436 -0.910386 0.324711
vn -0.256436 -0.910386 0.324711
vn -0.619771 0.000000 0.784783
vn -0.619771 0.000000 0.784783
vn -0.619771 0.000000 0.784783
vn -0.619771 0.000000 0.784783
vn 0.619769 0.000000 -0.784784
vn 0.619769 0.000000 -0.784784
vn 0.619769 0.000000 -0.784784
vn 0.619769 0.000000 -0.784784
vn -0.999187 0.000000 0.040304
vn -0.977361 0.000000 -0.211578
vn -0.977361 0.000000 -0.211578
vn -0.999187 0.000000 0.040304
vn -0.957145 0.000000 0.289609
vn -0.957145 0.000000 0.289609
vn 0.000000 1.000000 0.000000
vn 0.000000 1.000000 0.000000
vn 0.000000 1.000000 0.000000
vn 0.000000 1.000000 0.000000
vn 0.000000 1.000000 0.000000
vn 0.000000 1.000000 0.000000
vn 0.999030 0.000000 -0.044025
vn 0.977362 0.000000 0.211576
vn 0.977362 0.000000 0.211576
vn 0.999030 0.000000 -0.044025
vn 0.954962 0.000000 -0.296729
vn 0.954962 0.000000 -0.296729
vn 0.000000 -1.000000 0.000000
vn 0.000000 -1.000000 0.000000
vn 0.000000 -1.000000 0.000000
vn 0.000000 -1.000000 0.000000
vn 0.000000 -1.000000 0.000000
vn 0.000000 -1.000000 0.000000
vn 0.000000 0.000000 -1.000000
vn 0.000000 0.000000 -1.000000
vn 0.000000 0.000000 -1.000000
vn 0.000000 0.000000 -1.000000
vn 0.000000 0.000000 1.000000
vn 0.000000 0.000000 1.000000
vn 0.000000 0.000000 1.000000
vn 0.000000 0.000000 1.000000
vn 1.000000 0.000000 0.000000
vn 1.000000 0.000000 0.000000
vn 1.000000 0.000000 0.000000
vn 1.000000 0.000000 0.000000
vn 0.000000 -1.000000 0.000000
vn 0.000000 -1.000000 0.000000
vn 0.000000 -1.000000 0.000000
vn 0.000000 -1.000000 0.000000
vn -1.000000 0.000000 0.000000
vn -1.000000 0.000000 0.000000
vn -1.000000 0.000000 0.000000
vn -1.000000 0.000000 0.000000
vn 0.000000 1.000000 0.000000
vn 0.000000 1.000000 0.000000
vn 0.000000 1.000000 0.000000
vn 0.000000 1.000000 0.000000
g Model_0_0
f 3/3/3 2/2/2 1/1/1
f 2/2/2 4/4/4 1/1/1
f 2/2/2 5/5/5 4/4/4
f 5/5/5 6/6/6 4/4/4
f 9/9/9 8/8/8 7/7/7
f 8/8/8 10/10/10 7/7/7
f 8/8/8 11/11/11 10/10/10
f 11/11/11 12/12/12 10/10/10
f 15/15/15 14/14/14 13/13/13
f 14/14/14 16/16/16 13/13/13
f 14/14/14 17/17/17 16/16/16
f 17/17/17 18/18/18 16/16/16
f 21/21/21 20/20/20 19/19/19
f 20/20/20 22/22/22 19/19/19
f 20/20/20 23/23/23 22/22/22
f 23/23/23 24/24/24 22/22/22
f 27/27/27 26/26/26 25/25/25
f 28/28/28 27/27/27 25/25/25
f 31/31/31 30/30/30 29/29/29
f 32/32/32 31/31/31 29/29/29
f 35/35/35 34/34/34 33/33/33
f 36/36/36 35/35/35 33/33/33
f 33/33/33 37/37/37 36/36/36
f 37/37/37 38/38/38 36/36/36
f 41/41/41 40/40/40 39/39/39
f 42/42/42 41/41/41 39/39/39
f 39/39/39 43/43/43 42/42/42
f 43/43/43 44/44/44 42/42/42
f 47/47/47 46/46/46 45/45/45
f 48/48/48 47/47/47 45/45/45
f 45/45/45 49/49/49 48/48/48
f 49/49/49 50/50/50 48/48/48
f 53/53/53 52/52/52 51/51/51
f 54/54/54 53/53/53 51/51/51
f 51/51/51 55/55/55 54/54/54
f 55/55/55 56/56/56 54/54/54
f 59/59/59 58/58/58 57/57/57
f 60/60/60 59/59/59 57/57/57
f 63/63/63 62/62/62 61/61/61
f 64/64/64 63/63/63 61/61/61
f 67/67/67 66/66/66 65/65/65
f 68/68/68 67/67/67 65/65/65
f 71/71/71 70/70/70 69/69/69
f 72/72/72 71/71/71 69/69/69
f 75/75/75 74/74/74 73/73/73
f 76/76/76 75/75/75 73/73/73
f 79/79/79 78/78/78 77/77/77
f 80/80/80 79/79/79 77/77/77