g Model_0
v 0.100000 -1.947274 -0.019424
v 0.100000 -1.947274 -0.219424
v 0.100000 1.947274 -0.219424
v 0.100000 1.947274 -0.019424
v 0.300000 1.947274 -0.019424
v 0.300000 1.947274 -0.219424
v 0.300000 -1.947274 -0.219424
v 0.300000 -1.947274 -0.019424
v 0.100000 -1.947274 -0.219424
v 0.300000 -1.947274 -0.219424
v 0.300000 1.947274 -0.219424
v 0.100000 1.947274 -0.219424
v -0.500000 -2.000000 -0.250000
v -0.400000 -1.899999 -0.250000
v -0.400000 1.900000 -0.250000
v -0.500000 2.000001 -0.250000
v 0.500000 1.999999 0.250000
v 0.500000 -2.000001 0.250000
v -0.500000 -1.999999 0.250000
v -0.500000 2.000000 0.250000
v 0.500000 2.000000 -0.250000
v 0.500000 -2.000000 -0.250000
v 0.500000 -2.000001 0.250000
v 0.500000 1.999999 0.250000
v 0.500000 -2.000000 -0.250000
v -0.500000 -2.000000 -0.250000
v -0.500000 -1.999999 0.250000
v 0.500000 -2.000001 0.250000
v -0.500000 -2.000000 -0.250000
v -0.500000 2.000001 -0.250000
v -0.500000 2.000000 0.250000
v -0.500000 -1.999999 0.250000
v 0.500000 1.999999 0.250000
v -0.500000 2.000000 0.250000
v -0.500000 2.000001 -0.250000
v 0.500000 2.000000 -0.250000
v -0.400000 -1.899999 -0.250000
v -0.400000 -1.899999 0.000000
v -0.400000 1.900000 0.000000
v -0.400000 1.900000 -0.250000
v 0.500000 -2.000000 -0.250000
v -0.400000 -1.899999 -0.250000
v -0.500000 -2.000000 -0.250000
v 0.400000 -1.899999 -0.250000
v 0.500000 2.000000 -0.250000
v 0.400000 1.899999 -0.250000
v -0.500000 2.000001 -0.250000
v -0.400000 1.900000 -0.250000
v 0.400000 1.899999 -0.250000
v 0.500000 2.000000 -0.250000
v 0.400000 1.899999 0.000000
v -0.400000 1.900000 0.000000
v -0.400000 -1.899999 0.000000
v 0.400000 -1.899999 0.000000
v 0.400000 -1.899999 -0.250000
v 0.400000 -1.899999 0.000000
v -0.400000 -1.899999 0.000000
v -0.400000 -1.899999 -0.250000
v -0.400000 1.900000 -0.250000
v -0.400000 1.900000 0.000000
v 0.400000 1.899999 0.000000
v 0.400000 1.899999 -0.250000
v 0.400000 1.899999 -0.250000
v 0.400000 1.899999 0.000000
v 0.400000 -1.899999 0.000000
v 0.400000 -1.899999 -0.250000
v -0.100003 1.947273 -0.019424
v -0.100003 1.947273 -0.219424
v -0.099997 -1.947274 -0.219424
v -0.099997 -1.947274 -0.019424
v -0.299997 -1.947274 -0.019424
v -0.299997 -1.947274 -0.219424
v -0.300003 1.947273 -0.219424
v -0.300003 1.947273 -0.019424
v -0.100003 1.947273 -0.219424
v -0.300003 1.947273 -0.219424
v -0.299997 -1.947274 -0.219424
v -0.099997 -1.947274 -0.219424
vt 0.6954391 0.46777612
vt 0.6954391 0.46777612
vt 0.6954391 0.46777612
vt 0.6954391 0.46777612
vt 0.6954391 0.46777612
vt 0.6954391 0.46777612
vt 0.6954391 0.46777612
vt 0.6954391 0.46777612
vt 0.6954391 0.46777612
vt 0.6954391 0.46777612
vt 0.6954391 0.46777612
vt 0.6954391 0.46777612
vt 0.239045352 0.69216913
vt 0.239045352 0.69216913
vt 0.239045352 0.708277166
vt 0.239045352 0.708277166
vt 0.239045352 0.724546254
vt 0.249784082 0.724546254
vt 0.249784082 0.708438218
vt 0.239045352 0.708438218
vt 0.217353225 0.708277166
vt 0.228091896 0.708277166
vt 0.228091896 0.69216913
vt 0.217353225 0.69216913
vt 0.228199303 0.708277166
vt 0.238938004 0.708277166
vt 0.238938004 0.69216913
vt 0.228199303 0.69216913
vt 0.239045352 0.69216913
vt 0.239045352 0.708277166
vt 0.249784082 0.708277166
vt 0.249784082 0.69216913
vt 0.228199303 0.708438218
vt 0.228199303 0.724546254
vt 0.238938004 0.724546254
vt 0.238938004 0.708438218
vt 0.239045352 0.69216913
vt 0.239045352 0.69216913
vt 0.239045352 0.708277166
vt 0.239045352 0.708277166
vt 0.228199303 0.708277166
vt 0.238938004 0.708277166
vt 0.238938004 0.708277166
vt 0.228199303 0.708277166
vt 0.217353225 0.708277166
vt 0.217353225 0.708277166
vt 0.238938004 0.724546254
vt 0.238938004 0.724546254
vt 0.238938004 0.708438218
vt 0.238938004 0.708438218
vt 0.217353225 0.708438218
vt 0.217353225 0.724546254
vt 0.228091896 0.724546254
vt 0.228091896 0.708438218
vt 0.228199303 0.708277166
vt 0.228199303 0.708277166
vt 0.238938004 0.708277166
vt 0.238938004 0.708277166
vt 0.238938004 0.724546254
vt 0.238938004 0.724546254
vt 0.238938004 0.708438218
vt 0.238938004 0.708438218
vt 0.217353225 0.708277166
vt 0.217353225 0.708277166
vt 0.228091896 0.708277166
vt 0.228091896 0.708277166
vt 0.6954391 0.46777612
vt 0.6954391 0.46777612
vt 0.6954391 0.46777612
vt 0.6954391 0.46777612
vt 0.6954391 0.46777612
vt 0.6954391 0.46777612
vt 0.6954391 0.46777612
vt 0.6954391 0.46777612
vt 0.6954391 0.46777612
vt 0.6954391 0.46777612
vt 0.6954391 0.46777612
vt 0.6954391 0.46777612
vn -1.000000 0.000000 0.000000
vn -1.000000 0.000000 0.000000
vn -1.000000 0.000000 0.000000
vn -1.000000 0.000000 0.000000
vn 1.000000 0.000000 0.000000
vn 1.000000 0.000000 0.000000
vn 1.000000 0.000000 0.000000
vn 1.000000 0.000000 0.000000
vn 0.000000 0.000000 -1.000000
vn 0.000000 0.000000 -1.000000
vn 0.000000 0.000000 -1.000000
vn 0.000000 0.000000 -1.000000
vn 0.000000 0.000000 -1.000000
vn 0.000000 0.000000 -1.000000
vn 0.000000 0.000000 -1.000000
vn 0.000000 0.000000 -1.000000
vn 0.000000 0.000000 1.000000
vn 0.000000 0.000000 1.000000
vn 0.000000 0.000000 1.000000
vn 0.000000 0.000000 1.000000
vn 1.000000 0.000000 0.000000
vn 1.000000 0.000000 0.000000
vn 1.000000 0.000000 0.000000
vn 1.000000 0.000000 0.000000
vn 0.000000 -1.000000 0.000000
vn 0.000000 -1.000000 0.000000
vn 0.000000 -1.000000 0.000000
vn 0.000000 -1.000000 0.000000
vn -1.000000 0.000000 0.000000
vn -1.000000 0.000000 0.000000
vn -1.000000 0.000000 0.000000
vn -1.000000 0.000000 0.000000
vn 0.000000 1.000000 0.000000
vn 0.000000 1.000000 0.000000
vn 0.000000 1.000000 0.000000
vn 0.000000 1.000000 0.000000
vn 1.000000 0.000000 0.000000
vn 1.000000 0.000000 0.000000
vn 1.000000 0.000000 0.000000
vn 1.000000 0.000000 0.000000
vn 0.000000 0.000000 -1.000000
vn 0.000000 0.000000 -1.000000
vn 0.000000 0.000000 -1.000000
vn 0.000000 0.000000 -1.000000
vn 0.000000 0.000000 -1.000000
vn 0.000000 0.000000 -1.000000
vn 0.000000 0.000000 -1.000000
vn 0.000000 0.000000 -1.000000
vn 0.000000 0.000000 -1.000000
vn 0.000000 0.000000 -1.000000
vn 0.000000 0.000000 -1.000000
vn 0.000000 0.000000 -1.000000
vn 0.000000 0.000000 -1.000000
vn 0.000000 0.000000 -1.000000
vn 0.000000 1.000000 0.000000
vn 0.000000 1.000000 0.000000
vn 0.000000 1.000000 0.000000
vn 0.000000 1.000000 0.000000
vn 0.000000 -1.000000 0.000000
vn 0.000000 -1.000000 0.000000
vn 0.000000 -1.000000 0.000000
vn 0.000000 -1.000000 0.000000
vn -1.000000 0.000000 0.000000
vn -1.000000 0.000000 0.000000
vn -1.000000 0.000000 0.000000
vn -1.000000 0.000000 0.000000
vn 1.000000 0.000000 0.000000
vn 1.000000 0.000000 0.000000
vn 1.000000 0.000000 0.000000
vn 1.000000 0.000000 0.000000
vn -1.000000 0.000000 0.000000
vn -1.000000 0.000000 0.000000
vn -1.000000 0.000000 0.000000
vn -1.000000 0.000000 0.000000
vn 0.000000 0.000000 -1.000000
vn 0.000000 0.000000 -1.000000
vn 0.000000 0.000000 -1.000000
vn 0.000000 0.000000 -1.000000
g Model_0_0
f 3/3/3 2/2/2 1/1/1
f 4/4/4 3/3/3 1/1/1
f 7/7/7 6/6/6 5/5/5
f 8/8/8 7/7/7 5/5/5
f 11/11/11 10/10/10 9/9/9
f 12/12/12 11/11/11 9/9/9
f 15/15/15 14/14/14 13/13/13
f 16/16/16 15/15/15 13/13/13
f 19/19/19 18/18/18 17/17/17
f 20/20/20 19/19/19 17/17/17
f 23/23/23 22/22/22 21/21/21
f 24/24/24 23/23/23 21/21/21
f 27/27/27 26/26/26 25/25/25
f 28/28/28 27/27/27 25/25/25
f 31/31/31 30/30/30 29/29/29
f 32/32/32 31/31/31 29/29/29
f 35/35/35 34/34/34 33/33/33
f 36/36/36 35/35/35 33/33/33
f 39/39/39 38/38/38 37/37/37
f 40/40/40 39/39/39 37/37/37
f 43/43/43 42/42/42 41/41/41
f 42/42/42 44/44/44 41/41/41
f 41/41/41 44/44/44 45/45/45
f 44/44/44 46/46/46 45/45/45
f 49/49/49 48/48/48 47/47/47
f 50/50/50 49/49/49 47/47/47
f 53/53/53 52/52/52 51/51/51
f 54/54/54 53/53/53 51/51/51
f 57/57/57 56/56/56 55/55/55
f 58/58/58 57/57/57 55/55/55
f 61/61/61 60/60/60 59/59/59
f 62/62/62 61/61/61 59/59/59
f 65/65/65 64/64/64 63/63/63
f 66/66/66 65/65/65 63/63/63
f 69/69/69 68/68/68 67/67/67
f 70/70/70 69/69/69 67/67/67
f 73/73/73 72/72/72 71/71/71
f 74/74/74 73/73/73 71/71/71
f 77/77/77 76/76/76 75/75/75
f 78/78/78 77/77/77 75/75/75