v 4.195518 1.125000 0.000000
v 4.195518 -1.530733 -6.000000
v 4.195518 -1.125000 0.000000
v 3.195518 1.530734 42.250000
v 3.195518 -1.530733 42.250000
v -0.000017 -0.000000 44.966599
v -1.530734 3.195518 42.250000
v -0.000017 -0.000000 44.966599
v -3.195518 1.530732 42.250000
v -3.195518 1.530732 42.250000
v -0.000017 -0.000000 44.966599
v -3.195518 -1.530734 42.250000
v -3.195518 -1.530734 42.250000
v -0.000017 -0.000000 44.966599
v -1.530733 -3.195518 42.250000
v -1.530733 -3.195518 42.250000
v -0.000017 -0.000000 44.966599
v 1.530734 -3.195518 42.250000
v 1.530734 -3.195518 42.250000
v -0.000017 -0.000000 44.966599
v 3.195518 -1.530733 42.250000
v 3.195518 1.530734 42.250000
v -0.000017 -0.000000 44.966599
v 1.530733 3.195518 42.250000
v 1.530733 3.195518 42.250000
v -0.000017 -0.000000 44.966599
v -1.530734 3.195518 42.250000
v 4.195518 1.125000 0.000000
v 3.695518 1.125000 2.750000
v 4.195518 1.125000 2.750000
v -3.695518 -1.530734 2.750000
v -1.530733 -2.695518 37.750000
v -2.695518 -1.530734 37.750000
v -2.195518 0.918440 38.250000
v -2.195518 -0.918440 37.750000
v -2.195518 -0.918440 38.250000
v -0.358638 0.918440 37.750000
v -0.358638 -0.918440 38.250000
v -0.358638 -0.918440 37.750000
v -0.358638 0.918440 38.250000
v -0.358638 0.918440 37.750000
v 1.530733 3.195518 37.750000
v 5.293276 2.296101 37.750000
v 2.296100 5.293278 37.750000
v 1.530733 3.195518 37.750000
v 3.195518 1.530734 37.750000
v 3.195518 -1.530733 37.750000
v 1.530734 -3.195518 37.750000
v 2.296101 -5.293276 37.750000
v 2.296101 -5.293276 37.750000
v 5.293278 -2.296100 37.750000
v -1.530733 -3.195518 37.750000
v 1.530734 -3.195518 37.750000
v -2.296100 -5.293276 37.750000
v -5.293276 -2.296102 37.750000
v -3.195518 -1.530734 37.750000
v -5.293278 2.296098 37.750000
v -3.195518 1.530732 37.750000
v -2.296101 5.293276 37.750000
v -1.530734 3.195518 37.750000
v 1.530733 3.195518 37.750000
v 1.530733 3.195518 37.750000
v 2.296100 5.293278 37.750000
v -0.358638 -0.918440 37.750000
v 2.695518 -1.530733 37.750000
v -0.358638 0.918440 37.750000
v 1.530733 4.195518 2.750000
v 4.195518 1.530734 -6.000000
v 4.195518 1.530734 2.750000
v 3.695518 -1.125000 2.750000
v 4.195518 1.125000 2.750000
v 3.695518 1.125000 2.750000
v -1.530734 3.695518 2.750000
v -2.695518 1.530732 37.750000
v -1.530734 2.695518 37.750000
v 1.530733 3.695518 2.750000
v -1.530734 2.695518 37.750000
v 1.530733 2.695518 37.750000
v -1.530734 3.695518 2.750000
v 1.530733 3.695518 2.750000
v 1.530733 3.695518 0.000000
v 3.695518 1.530734 0.000000
v 3.695518 1.530734 2.750000
v 3.695518 1.125000 0.000000
v 3.695518 1.125000 2.750000
v -1.530734 3.695518 0.000000
v -3.695518 1.530732 2.750000
v -2.695518 1.530732 37.750000
v -2.695518 -1.530734 37.750000
v -3.695518 1.530732 0.000000
v -3.695518 -1.530734 2.750000
v -3.695518 -1.530734 0.000000
v -1.530733 -3.695518 2.750000
v -1.530733 -2.695518 37.750000
v 1.530734 -2.695518 37.750000
v -1.530733 -3.695518 0.000000
v 1.530734 -3.695518 2.750000
v 1.530734 -3.695518 0.000000
v 3.695518 -1.530733 2.750000
v 2.695518 -1.530733 37.750000
v 3.695518 -1.530733 0.000000
v 3.695518 -1.125000 2.750000
v 1.530734 -3.695518 2.750000
v 2.695518 -1.530733 37.750000
v 1.530734 -2.695518 37.750000
v 3.695518 -1.530733 2.750000
v 3.695518 -1.125000 2.750000
v 2.695518 1.530734 37.750000
v 3.695518 1.530734 2.750000
v 1.530733 2.695518 37.750000
v 1.530733 3.695518 2.750000
v 3.695518 1.530734 2.750000
v 3.695518 1.125000 2.750000
v 4.793278 -2.296100 39.250000
v 5.293276 2.296101 39.250000
v 5.293278 -2.296100 39.250000
v 5.293278 -2.296100 39.250000
v 2.296101 -4.793276 39.250000
v -2.695518 1.530732 37.750000
v -2.195518 -0.918440 37.750000
v -2.195518 0.918440 37.750000
v -0.358638 0.918440 37.750000
v -1.530734 2.695518 37.750000
v -2.695518 1.530732 37.750000
v -1.530734 2.695518 37.750000
v 4.195518 1.530734 -6.000000
v 4.195518 1.125000 0.000000
v 4.195518 1.530734 2.750000
v 4.195518 1.530734 2.750000
v 4.195518 1.125000 2.750000
v 4.195518 -1.125000 2.750000
v 4.195518 -1.125000 0.000000
v 4.195518 -1.530733 2.750000
v 4.195518 -1.530733 -6.000000
v 4.195518 1.125000 0.000000
v 4.195518 1.530734 -6.000000
v 4.195518 -1.125000 0.000000
v 4.195518 -1.530733 2.750000
v 1.530734 -4.195518 -6.000000
v -1.530733 -4.195518 -6.000000
v 1.530734 -4.195518 2.750000
v 3.695518 -1.125000 0.000000
v 3.695518 -1.125000 2.750000
v 3.695518 -1.530733 0.000000
v 3.695518 1.125000 0.000000
v 3.695518 1.125000 2.750000
v 4.195518 1.125000 0.000000
v -2.296101 4.793276 38.250000
v -2.195518 0.918440 38.250000
v -4.793278 2.296098 38.250000
v -2.195518 -0.918440 38.250000
v -2.195518 0.918440 38.250000
v -4.793276 -2.296102 38.250000
v -2.195518 -0.918440 38.250000
v -2.296100 -4.793276 38.250000
v -2.195518 -0.918440 38.250000
v -0.358638 -0.918440 38.250000
v 2.296101 -4.793276 38.250000
v 1.530734 -3.195518 37.750000
v 3.195518 -1.530733 37.750000
v 1.530734 -4.195518 2.750000
v 4.195518 -1.125000 2.750000
v 4.195518 -1.530733 2.750000
v 3.195518 1.530734 37.750000
v 4.195518 1.125000 2.750000
v 4.195518 1.530734 2.750000
v 1.530733 3.195518 37.750000
v 4.195518 -1.125000 2.750000
v 3.195518 -1.530733 37.750000
v 4.195518 1.125000 2.750000
v 1.530734 -4.195518 2.750000
v 4.195518 -1.530733 2.750000
v 1.530734 -4.195518 -6.000000
v -1.530733 -3.195518 37.750000
v 1.530734 -3.195518 37.750000
v -1.530733 -4.195518 2.750000
v -1.530733 -4.195518 -6.000000
v -3.195518 -1.530734 37.750000
v -4.195518 -1.530734 2.750000
v -3.195518 1.530732 37.750000
v -4.195518 -1.530734 -6.000000
v -1.530733 -4.195518 -6.000000
v -4.195518 1.530732 2.750000
v -4.195518 1.530732 -6.000000
v -1.530734 4.195518 -6.000000
v -1.530734 4.195518 2.750000
v -1.530734 3.195518 37.750000
v 1.530733 4.195518 -6.000000
v 1.530733 3.195518 37.750000
v 1.530733 4.195518 2.750000
v 4.195518 1.530734 2.750000
v 1.530733 4.195518 2.750000
v 4.195518 1.530734 -6.000000
v -2.195518 0.918440 37.750000
v -2.195518 -0.918440 37.750000
v -2.195518 0.918440 38.250000
v 1.530734 -3.695518 0.000000
v 3.695518 -1.125000 0.000000
v 3.695518 -1.530733 0.000000
v 3.695518 1.530734 0.000000
v 3.695518 1.125000 0.000000
v 1.530733 3.695518 0.000000
v 3.695518 -1.125000 0.000000
v 3.695518 1.125000 0.000000
v 4.195518 1.125000 0.000000
v 3.695518 -1.125000 0.000000
v 4.195518 -1.125000 0.000000
v 1.530734 -3.695518 0.000000
v -1.530733 -3.695518 0.000000
v -3.695518 -1.530734 0.000000
v -3.695518 1.530732 0.000000
v -1.530734 3.695518 0.000000
v 3.695518 1.125000 0.000000
v 1.530733 3.695518 0.000000
v -3.695518 1.530732 0.000000
v 3.695518 1.125000 0.000000
v 3.695518 -1.125000 0.000000
v -0.358638 0.918440 37.750000
v 1.530733 2.695518 37.750000
v -1.530734 2.695518 37.750000
v 1.530734 -2.695518 37.750000
v 2.695518 -1.530733 37.750000
v -0.358638 -0.918440 37.750000
v 2.695518 1.530734 37.750000
v -0.358638 0.918440 37.750000
v 1.530733 2.695518 37.750000
v 2.296101 -4.793276 38.250000
v 2.296101 -4.793276 39.250000
v -2.296100 -4.793276 38.250000
v 2.296101 -4.793276 39.250000
v -2.296100 -4.793276 39.250000
v -4.793276 -2.296102 38.250000
v -4.793276 -2.296102 39.250000
v -4.793278 2.296098 38.250000
v -4.793278 2.296098 39.250000
v -2.296101 4.793276 38.250000
v -2.296101 4.793276 39.250000
v 2.296100 4.793278 38.250000
v 2.296100 4.793278 39.250000
v 4.793276 2.296101 38.250000
v 4.793276 2.296101 39.250000
v 4.793278 -2.296100 38.250000
v 4.793278 -2.296100 39.250000
v 2.296101 -4.793276 38.250000
v 2.296101 -4.793276 39.250000
v 2.296100 5.293278 37.750000
v 2.296100 5.293278 39.250000
v -2.296101 5.293276 37.750000
v 5.293276 2.296101 37.750000
v 2.296100 5.293278 39.250000
v 5.293276 2.296101 39.250000
v 5.293278 -2.296100 37.750000
v 5.293278 -2.296100 39.250000
v 2.296101 -5.293276 39.250000
v 2.296101 -5.293276 37.750000
v 2.296101 -5.293276 39.250000
v -2.296100 -5.293276 37.750000
v 2.296101 -5.293276 39.250000
v -2.296100 -5.293276 39.250000
v -5.293276 -2.296102 37.750000
v -5.293276 -2.296102 39.250000
v -5.293278 2.296098 37.750000
v -5.293278 2.296098 39.250000
v -2.296101 5.293276 37.750000
v -2.296101 5.293276 39.250000
v 2.296100 5.293278 39.250000
v 3.195518 -1.530733 37.750000
v 5.293278 -2.296100 37.750000
v 5.293276 2.296101 37.750000
v 4.195518 -1.125000 2.750000
v 4.195518 1.125000 2.750000
v 3.695518 -1.125000 2.750000
v 3.695518 1.125000 2.750000
v 2.695518 1.530734 37.750000
v 3.695518 -1.125000 2.750000
v 2.296100 5.293278 39.250000
v 2.296100 4.793278 39.250000
v -2.296101 5.293276 39.250000
v -2.296101 5.293276 39.250000
v -2.296101 4.793276 39.250000
v -5.293278 2.296098 39.250000
v -4.793278 2.296098 39.250000
v -5.293276 -2.296102 39.250000
v -5.293276 -2.296102 39.250000
v -4.793276 -2.296102 39.250000
v -2.296100 -5.293276 39.250000
v -2.296100 -4.793276 39.250000
v -4.793276 -2.296102 39.250000
v 2.296101 -4.793276 39.250000
v 2.296101 -4.793276 39.250000
v 2.296101 -5.293276 39.250000
v 5.293278 -2.296100 39.250000
v 5.293276 2.296101 39.250000
v 4.793278 -2.296100 39.250000
v 4.793276 2.296101 39.250000
v 2.296100 5.293278 39.250000
v 2.296100 4.793278 39.250000
v 5.293276 2.296101 39.250000
v 3.195518 -1.530733 41.750000
v 3.195518 1.530734 42.250000
v 3.195518 1.530734 41.750000
v 3.195518 -1.530733 42.250000
v 3.195518 1.530734 42.250000
v 1.530733 3.195518 41.750000
v 3.195518 1.530734 41.750000
v 1.530733 3.195518 42.250000
v 1.530734 -3.195518 42.250000
v 3.195518 -1.530733 41.750000
v 1.530734 -3.195518 41.750000
v 3.195518 -1.530733 42.250000
v -3.195518 -1.530734 42.250000
v -1.530733 -3.195518 41.750000
v -3.195518 -1.530734 41.750000
v -1.530733 -3.195518 42.250000
v -1.530734 3.195518 42.250000
v -3.195518 1.530732 41.750000
v -1.530734 3.195518 41.750000
v -3.195518 1.530732 42.250000
v -3.195518 1.530732 42.250000
v -3.195518 -1.530734 41.750000
v -3.195518 1.530732 41.750000
v -3.195518 -1.530734 42.250000
v -1.530733 -3.195518 42.250000
v 1.530734 -3.195518 41.750000
v -1.530733 -3.195518 41.750000
v 1.530734 -3.195518 42.250000
v 1.530733 3.195518 42.250000
v -1.530734 3.195518 41.750000
v 1.530733 3.195518 41.750000
v -1.530734 3.195518 42.250000
v 1.268127 2.889397 41.930122
v 1.499097 2.793726 37.930122
v 1.268127 2.889397 37.930122
v 1.499097 2.793726 41.930122
v 1.363797 3.120367 41.930122
v 1.268127 2.889397 37.930122
v 1.363797 3.120367 37.930122
v 1.268127 2.889397 41.930122
v 1.594767 3.024696 41.930122
v 1.363797 3.120367 37.930122
v 1.594767 3.024696 37.930122
v 1.363797 3.120367 41.930122
v 1.499097 2.793726 41.930122
v 1.594767 3.024696 37.930122
v 1.499097 2.793726 37.930122
v 1.594767 3.024696 41.930122
v 2.813914 1.510340 41.930122
v 2.909585 1.279370 37.930122
v 2.813914 1.510340 37.930122
v 2.909585 1.279370 41.930122
v 3.044884 1.606011 41.930122
v 2.813914 1.510340 37.930122
v 3.044884 1.606011 37.930122
v 2.813914 1.510340 41.930122
v 3.140555 1.375041 41.930122
v 3.044884 1.606011 37.930122
v 3.140555 1.375041 37.930122
v 3.044884 1.606011 41.930122
v 2.909585 1.279370 41.930122
v 3.140555 1.375041 37.930122
v 2.909585 1.279370 37.930122
v 3.140555 1.375041 41.930122
v -2.889398 1.268124 41.930122
v -2.793727 1.499094 37.930122
v -2.889398 1.268124 37.930122
v -2.793727 1.499094 41.930122
v -3.120368 1.363795 41.930122
v -2.889398 1.268124 37.930122
v -3.120368 1.363795 37.930122
v -2.889398 1.268124 41.930122
v -3.024697 1.594765 41.930122
v -3.120368 1.363795 37.930122
v -3.024697 1.594765 37.930122
v -3.120368 1.363795 41.930122
v -2.793727 1.499094 41.930122
v -3.024697 1.594765 37.930122
v -2.793727 1.499094 37.930122
v -3.024697 1.594765 41.930122
v -1.510343 2.813913 41.930122
v -1.279373 2.909584 37.930122
v -1.510343 2.813913 37.930122
v -1.279373 2.909584 41.930122
v -1.606014 3.044883 41.930122
v -1.510343 2.813913 37.930122
v -1.606014 3.044883 37.930122
v -1.510343 2.813913 41.930122
v -1.375044 3.140554 41.930122
v -1.606014 3.044883 37.930122
v -1.375044 3.140554 37.930122
v -1.606014 3.044883 41.930122
v -1.279373 2.909584 41.930122
v -1.375044 3.140554 37.930122
v -1.279373 2.909584 37.930122
v -1.375044 3.140554 41.930122
v -1.268121 -2.889399 41.930122
v -1.499091 -2.793729 37.930122
v -1.268121 -2.889399 37.930122
v -1.499091 -2.793729 41.930122
v -1.363791 -3.120369 41.930122
v -1.268121 -2.889399 37.930122
v -1.363791 -3.120369 37.930122
v -1.268121 -2.889399 41.930122
v -1.594761 -3.024699 41.930122
v -1.363791 -3.120369 37.930122
v -1.594761 -3.024699 37.930122
v -1.363791 -3.120369 41.930122
v -1.499091 -2.793729 41.930122
v -1.594761 -3.024699 37.930122
v -1.499091 -2.793729 37.930122
v -1.594761 -3.024699 41.930122
v -2.813911 -1.510346 41.930122
v -2.909583 -1.279376 37.930122
v -2.813911 -1.510346 37.930122
v -2.909583 -1.279376 41.930122
v -3.044881 -1.606017 41.930122
v -2.813911 -1.510346 37.930122
v -3.044881 -1.606017 37.930122
v -2.813911 -1.510346 41.930122
v -3.140552 -1.375048 41.930122
v -3.044881 -1.606017 37.930122
v -3.140552 -1.375048 37.930122
v -3.044881 -1.606017 41.930122
v -2.909583 -1.279376 41.930122
v -3.140552 -1.375048 37.930122
v -2.909583 -1.279376 37.930122
v -3.140552 -1.375048 41.930122
v 2.889400 -1.268118 41.930122
v 2.793730 -1.499089 37.930122
v 2.889400 -1.268118 37.930122
v 2.793730 -1.499089 41.930122
v 3.120370 -1.363789 41.930122
v 2.889400 -1.268118 37.930122
v 3.120370 -1.363789 37.930122
v 2.889400 -1.268118 41.930122
v 3.024700 -1.594759 41.930122
v 3.120370 -1.363789 37.930122
v 3.024700 -1.594759 37.930122
v 3.120370 -1.363789 41.930122
v 2.793730 -1.499089 41.930122
v 3.024700 -1.594759 37.930122
v 2.793730 -1.499089 37.930122
v 3.024700 -1.594759 41.930122
v 1.510348 -2.813910 41.930122
v 1.279379 -2.909582 37.930122
v 1.510348 -2.813910 37.930122
v 1.279379 -2.909582 41.930122
v 1.606020 -3.044880 41.930122
v 1.510348 -2.813910 37.930122
v 1.606020 -3.044880 37.930122
v 1.510348 -2.813910 41.930122
v 1.375050 -3.140551 41.930122
v 1.606020 -3.044880 37.930122
v 1.375050 -3.140551 37.930122
v 1.606020 -3.044880 41.930122
v 1.279379 -2.909582 41.930122
v 1.375050 -3.140551 37.930122
v 1.279379 -2.909582 37.930122
v 1.375050 -3.140551 41.930122
v 3.695518 -1.125000 0.000000
v 4.195518 -1.125000 2.750000
v 3.695518 -1.125000 2.750000
v 4.195518 -1.125000 0.000000
v -0.358638 0.918440 37.750000
v -2.195518 0.918440 38.250000
v -0.358638 0.918440 38.250000
v -2.195518 0.918440 37.750000
v -2.195518 -0.918440 37.750000
v -0.358638 -0.918440 38.250000
v -2.195518 -0.918440 38.250000
v -0.358638 -0.918440 37.750000
v -1.530734 3.195518 41.750000
v 3.195518 1.530734 41.750000
v 1.530733 3.195518 41.750000
v 1.530734 -3.195518 41.750000
v 3.195518 -1.530733 41.750000
v -3.195518 -1.530734 41.750000
v -1.530733 -3.195518 41.750000
v -3.195518 1.530732 41.750000
v -2.195518 0.918440 38.250000
v -2.296101 4.793276 38.250000
v -0.358638 0.918440 38.250000
v -0.358638 0.918440 38.250000
v 2.296100 4.793278 38.250000
v 4.793276 2.296101 38.250000
v -0.358638 0.918440 38.250000
v -0.358638 -0.918440 38.250000
v 4.793278 -2.296100 38.250000
v 2.296101 -4.793276 38.250000
v 1.530734 -2.695518 37.750000
v -0.358638 -0.918440 37.750000
v -1.530733 -2.695518 37.750000
v -2.195518 -0.918440 37.750000
v -2.695518 -1.530734 37.750000
v -1.530733 -2.695518 37.750000
v -2.695518 1.530732 37.750000
vt 0.109135017 0.662988305
vt 0.106720626 0.657546997
vt 0.108612582 0.662816763
vt 0.656890213 0.735823572
vt 0.624134243 0.735823572
vt 0.624134243 0.768579543
vt 0.624134243 0.735823572
vt 0.624134243 0.768579543
vt 0.656890213 0.735823572
vt 0.624134243 0.735823572
vt 0.624134243 0.768579543
vt 0.656890213 0.735823572
vt 0.624134243 0.735823572
vt 0.624134243 0.768579543
vt 0.656890213 0.735823572
vt 0.624134243 0.735823572
vt 0.624134243 0.768579543
vt 0.656890213 0.735823572
vt 0.624134243 0.735823572
vt 0.624134243 0.768579543
vt 0.656890213 0.735823572
vt 0.624134243 0.735823572
vt 0.624134243 0.768579543
vt 0.656890213 0.735823572
vt 0.624134243 0.735823572
vt 0.624134243 0.768579543
vt 0.656890213 0.735823572
vt 0.599126637 0.70334053
vt 0.5994066 0.700234413
vt 0.599583328 0.698926568
vt 0.95582217 0.738485456
vt 0.957891822 0.771773756
vt 0.957625747 0.771760464
vt 0.573315084 0.779712856
vt 0.576285303 0.780153215
vt 0.577553391 0.780036151
vt 0.57360208 0.783971846
vt 0.577662706 0.786252201
vt 0.576361001 0.784130275
vt 0.572497189 0.785596669
vt 0.57360208 0.783971846
vt 0.384478718 0.185534418
vt 0.38920027 0.189197958
vt 0.385592639 0.185064256
vt 0.384478718 0.185534418
vt 0.384688795 0.18825537
vt 0.393002808 0.19574815
vt 0.392941952 0.197690189
vt 0.39271155 0.210202873
vt 0.39271155 0.210202873
vt 0.393969953 0.198087275
vt 0.389255285 0.19608897
vt 0.392941952 0.197690189
vt 0.388018131 0.203439772
vt 0.383612812 0.196198523
vt 0.38714093 0.192613304
vt 0.381940335 0.190006435
vt 0.384603977 0.188527167
vt 0.383204222 0.185695827
vt 0.384845376 0.18596524
vt 0.384478718 0.185534418
vt 0.384478718 0.185534418
vt 0.385592639 0.185064256
vt 0.406305075 0.167317212
vt 0.403348416 0.163181245
vt 0.403546154 0.167158782
vt 0.104084909 0.667753816
vt 0.105737254 0.66211164
vt 0.105408087 0.658258796
vt 0.599519849 0.700213432
vt 0.599583328 0.698926568
vt 0.5994066 0.700234413
vt 0.956882536 0.736741662
vt 0.96015805 0.770944059
vt 0.959620714 0.771362722
vt 0.957260907 0.73402822
vt 0.959620714 0.771362722
vt 0.960358381 0.770824075
vt 0.956882536 0.736741662
vt 0.957260907 0.73402822
vt 0.955418766 0.734363914
vt 0.954143524 0.731397748
vt 0.956635892 0.727904797
vt 0.953961372 0.730379343
vt 0.954275787 0.726290464
vt 0.955753207 0.736217141
vt 0.956392288 0.738204718
vt 0.96015805 0.770944059
vt 0.957625747 0.771760464
vt 0.955816805 0.737228036
vt 0.95582217 0.738485456
vt 0.955700159 0.737409592
vt 0.954934716 0.73815155
vt 0.957891822 0.771773756
vt 0.956772864 0.771139085
vt 0.955357194 0.736768484
vt 0.953333855 0.736232758
vt 0.954727411 0.734888434
vt 0.952012599 0.72824502
vt 0.956769109 0.771028161
vt 0.954822719 0.730503321
vt 0.954389036 0.726269484
vt 0.953333855 0.736232758
vt 0.956769109 0.771028161
vt 0.956772864 0.771139085
vt 0.952012599 0.72824502
vt 0.954389036 0.726269484
vt 0.95999825 0.770933688
vt 0.956635892 0.727904797
vt 0.960358381 0.770824075
vt 0.957260907 0.73402822
vt 0.956635892 0.727904797
vt 0.954275787 0.726290464
vt 0.70499444 0.69693464
vt 0.701866627 0.68216902
vt 0.705621779 0.69478339
vt 0.705621779 0.69478339
vt 0.703427136 0.724479616
vt 0.405456811 0.162746131
vt 0.406229377 0.163340151
vt 0.404196531 0.162842333
vt 0.403546154 0.167158782
vt 0.405248702 0.163592279
vt 0.405456811 0.162746131
vt 0.405248702 0.163592279
vt 0.105737254 0.66211164
vt 0.109135017 0.662988305
vt 0.105408087 0.658258796
vt 0.105408087 0.658258796
vt 0.109591737 0.658574343
vt 0.109393314 0.658991933
vt 0.108612582 0.662816763
vt 0.113578603 0.658877909
vt 0.106720626 0.657546997
vt 0.109135017 0.662988305
vt 0.105737254 0.66211164
vt 0.108612582 0.662816763
vt 0.113578603 0.658877909
vt 0.107790232 0.655634522
vt 0.107823148 0.650943279
vt 0.110841408 0.668432832
vt 0.95391947 0.729798496
vt 0.954389036 0.726269484
vt 0.954822719 0.730503321
vt 0.599092185 0.704323292
vt 0.5994066 0.700234413
vt 0.599126637 0.70334053
vt 0.100411139 0.345789194
vt 0.123675711 0.324308872
vt 0.0975724831 0.352196574
vt 0.127913982 0.324632168
vt 0.123675711 0.324308872
vt 0.099044852 0.364113212
vt 0.127913982 0.324632168
vt 0.106149293 0.374859691
vt 0.127913982 0.324632168
vt 0.128023297 0.330848217
vt 0.115305476 0.386811733
vt 0.101829305 0.739563346
vt 0.101890162 0.737621307
vt 0.110841408 0.668432832
vt 0.109393314 0.658991933
vt 0.113578603 0.658877909
vt 0.0935761184 0.730128527
vt 0.109591737 0.658574343
vt 0.105408087 0.658258796
vt 0.0933660567 0.727407575
vt 0.109393314 0.658991933
vt 0.101890162 0.737621307
vt 0.109591737 0.658574343
vt 0.110841408 0.668432832
vt 0.113578603 0.658877909
vt 0.107790232 0.655634522
vt 0.098142609 0.737962127
vt 0.101829305 0.739563346
vt 0.108278304 0.668060541
vt 0.107823148 0.650943279
vt 0.0960282683 0.734486461
vt 0.106265396 0.668115377
vt 0.0934913307 0.730400324
vt 0.107148573 0.656350374
vt 0.107823148 0.650943279
vt 0.105756387 0.668359756
vt 0.106659785 0.659547448
vt 0.106051832 0.661657095
vt 0.104605302 0.668470383
vt 0.0937327147 0.727838397
vt 0.10584636 0.662238359
vt 0.0933660567 0.727407575
vt 0.104084909 0.667753816
vt 0.105408087 0.658258796
vt 0.104084909 0.667753816
vt 0.105737254 0.66211164
vt 0.574252486 0.779655397
vt 0.576285303 0.780153215
vt 0.573315084 0.779712856
vt 0.121395834 0.288016081
vt 0.120587908 0.282926142
vt 0.121491157 0.283630967
vt 0.120811932 0.284525394
vt 0.12062978 0.283506989
vt 0.122087173 0.28749156
vt 0.120587908 0.282926142
vt 0.12062978 0.283506989
vt 0.120664231 0.282524228
vt 0.120587908 0.282926142
vt 0.120141797 0.282352686
vt 0.121395834 0.288016081
vt 0.122025616 0.289896131
vt 0.122368611 0.290537238
vt 0.122485213 0.290355682
vt 0.12242166 0.289344788
vt 0.12062978 0.283506989
vt 0.122087173 0.28749156
vt 0.122485213 0.290355682
vt 0.12062978 0.283506989
vt 0.120587908 0.282926142
vt 0.403546154 0.167158782
vt 0.406244338 0.163308918
vt 0.405248702 0.163592279
vt 0.403428435 0.163479865
vt 0.403348416 0.163181245
vt 0.406305075 0.167317212
vt 0.406125903 0.16304189
vt 0.403546154 0.167158782
vt 0.406244338 0.163308918
vt 0.896986127 0.778343856
vt 0.895273209 0.783509195
vt 0.8878299 0.766391814
vt 0.895273209 0.783509195
vt 0.889382243 0.763400614
vt 0.880725503 0.755645335
vt 0.882943869 0.753876626
vt 0.879253149 0.743728697
vt 0.8812356 0.743621409
vt 0.882091761 0.737321317
vt 0.883233249 0.73814851
vt 0.888961494 0.73543781
vt 0.888644755 0.73675257
vt 0.895762146 0.738735139
vt 0.893917561 0.740278423
vt 0.899838984 0.756345332
vt 0.896840572 0.75596422
vt 0.896986127 0.778343856
vt 0.895273209 0.783509195
vt 0.094479993 0.726937413
vt 0.095015645 0.725910783
vt 0.0920915753 0.727568984
vt 0.0980876237 0.731071115
vt 0.095015645 0.725910783
vt 0.100502864 0.730130553
vt 0.102857277 0.739960432
vt 0.104258016 0.742744923
vt 0.101811796 0.764879107
vt 0.101598889 0.75207603
vt 0.101811796 0.764879107
vt 0.096905455 0.745312929
vt 0.101811796 0.764879107
vt 0.095847562 0.750896811
vt 0.0925001651 0.73807168
vt 0.090111956 0.741099834
vt 0.0908276737 0.731879592
vt 0.0886435658 0.73267591
vt 0.0920915753 0.727568984
vt 0.0907164961 0.727045655
vt 0.095015645 0.725910783
vt 0.393002808 0.19574815
vt 0.393969953 0.198087275
vt 0.38920027 0.189197958
vt 0.599384904 0.699344158
vt 0.599583328 0.698926568
vt 0.599519849 0.700213432
vt 0.954275787 0.726290464
vt 0.95999825 0.770933688
vt 0.954389036 0.726269484
vt 0.696379423 0.67794925
vt 0.696798682 0.677722991
vt 0.692080259 0.679084122
vt 0.692080259 0.679084122
vt 0.691387177 0.679118931
vt 0.690007329 0.684714377
vt 0.689389527 0.68459183
vt 0.691475749 0.693138301
vt 0.691475749 0.693138301
vt 0.691097796 0.694847047
vt 0.697211325 0.702935278
vt 0.697536111 0.704371035
vt 0.691097796 0.694847047
vt 0.703427136 0.724479616
vt 0.703427136 0.724479616
vt 0.703175545 0.716917574
vt 0.705621779 0.69478339
vt 0.701866627 0.68216902
vt 0.70499444 0.69693464
vt 0.702071488 0.681248844
vt 0.696379423 0.67794925
vt 0.696798682 0.677722991
vt 0.701866627 0.68216902
vt 0.656890213 0.768579543
vt 0.624134243 0.735823572
vt 0.624134243 0.768579543
vt 0.656890213 0.735823572
vt 0.656890213 0.735823572
vt 0.624134243 0.768579543
vt 0.656890213 0.768579543
vt 0.624134243 0.735823572
vt 0.656890213 0.735823572
vt 0.624134243 0.768579543
vt 0.656890213 0.768579543
vt 0.624134243 0.735823572
vt 0.656890213 0.735823572
vt 0.624134243 0.768579543
vt 0.656890213 0.768579543
vt 0.624134243 0.735823572
vt 0.656890213 0.735823572
vt 0.624134243 0.768579543
vt 0.656890213 0.768579543
vt 0.624134243 0.735823572
vt 0.656890213 0.735823572
vt 0.624134243 0.768579543
vt 0.656890213 0.768579543
vt 0.624134243 0.735823572
vt 0.656890213 0.735823572
vt 0.624134243 0.768579543
vt 0.656890213 0.768579543
vt 0.624134243 0.735823572
vt 0.656890213 0.735823572
vt 0.624134243 0.768579543
vt 0.656890213 0.768579543
vt 0.624134243 0.735823572
vt 0.416247219 0.69792074
vt 0.337200433 0.776967525
vt 0.416247219 0.776967525
vt 0.337200433 0.69792074
vt 0.416247219 0.69792074
vt 0.337200433 0.776967525
vt 0.416247219 0.776967525
vt 0.337200433 0.69792074
vt 0.416247219 0.69792074
vt 0.337200433 0.776967525
vt 0.416247219 0.776967525
vt 0.337200433 0.69792074
vt 0.416247219 0.69792074
vt 0.337200433 0.776967525
vt 0.416247219 0.776967525
vt 0.337200433 0.69792074
vt 0.416247219 0.69792074
vt 0.337200433 0.776967525
vt 0.416247219 0.776967525
vt 0.337200433 0.69792074
vt 0.416247219 0.69792074
vt 0.337200433 0.776967525
vt 0.416247219 0.776967525
vt 0.337200433 0.69792074
vt 0.416247219 0.69792074
vt 0.337200433 0.776967525
vt 0.416247219 0.776967525
vt 0.337200433 0.69792074
vt 0.416247219 0.69792074
vt 0.337200433 0.776967525
vt 0.416247219 0.776967525
vt 0.337200433 0.69792074
vt 0.416247219 0.69792074
vt 0.337200433 0.776967525
vt 0.416247219 0.776967525
vt 0.337200433 0.69792074
vt 0.416247219 0.69792074
vt 0.337200433 0.776967525
vt 0.416247219 0.776967525
vt 0.337200433 0.69792074
vt 0.416247219 0.69792074
vt 0.337200433 0.776967525
vt 0.416247219 0.776967525
vt 0.337200433 0.69792074
vt 0.416247219 0.69792074
vt 0.337200433 0.776967525
vt 0.416247219 0.776967525
vt 0.337200433 0.69792074
vt 0.416247219 0.69792074
vt 0.337200433 0.776967525
vt 0.416247219 0.776967525
vt 0.337200433 0.69792074
vt 0.416247219 0.69792074
vt 0.337200433 0.776967525
vt 0.416247219 0.776967525
vt 0.337200433 0.69792074
vt 0.416247219 0.69792074
vt 0.337200433 0.776967525
vt 0.416247219 0.776967525
vt 0.337200433 0.69792074
vt 0.416247219 0.69792074
vt 0.337200433 0.776967525
vt 0.416247219 0.776967525
vt 0.337200433 0.69792074
vt 0.416247219 0.69792074
vt 0.337200433 0.776967525
vt 0.416247219 0.776967525
vt 0.337200433 0.69792074
vt 0.416247219 0.69792074
vt 0.337200433 0.776967525
vt 0.416247219 0.776967525
vt 0.337200433 0.69792074
vt 0.416247219 0.69792074
vt 0.337200433 0.776967525
vt 0.416247219 0.776967525
vt 0.337200433 0.69792074
vt 0.416247219 0.69792074
vt 0.337200433 0.776967525
vt 0.416247219 0.776967525
vt 0.337200433 0.69792074
vt 0.416247219 0.69792074
vt 0.337200433 0.776967525
vt 0.416247219 0.776967525
vt 0.337200433 0.69792074
vt 0.416247219 0.69792074
vt 0.337200433 0.776967525
vt 0.416247219 0.776967525
vt 0.337200433 0.69792074
vt 0.416247219 0.69792074
vt 0.337200433 0.776967525
vt 0.416247219 0.776967525
vt 0.337200433 0.69792074
vt 0.416247219 0.69792074
vt 0.337200433 0.776967525
vt 0.416247219 0.776967525
vt 0.337200433 0.69792074
vt 0.416247219 0.69792074
vt 0.337200433 0.776967525
vt 0.416247219 0.776967525
vt 0.337200433 0.69792074
vt 0.416247219 0.69792074
vt 0.337200433 0.776967525
vt 0.416247219 0.776967525
vt 0.337200433 0.69792074
vt 0.416247219 0.69792074
vt 0.337200433 0.776967525
vt 0.416247219 0.776967525
vt 0.337200433 0.69792074
vt 0.416247219 0.69792074
vt 0.337200433 0.776967525
vt 0.416247219 0.776967525
vt 0.337200433 0.69792074
vt 0.416247219 0.69792074
vt 0.337200433 0.776967525
vt 0.416247219 0.776967525
vt 0.337200433 0.69792074
vt 0.416247219 0.69792074
vt 0.337200433 0.776967525
vt 0.416247219 0.776967525
vt 0.337200433 0.69792074
vt 0.416247219 0.69792074
vt 0.337200433 0.776967525
vt 0.416247219 0.776967525
vt 0.337200433 0.69792074
vt 0.416247219 0.69792074
vt 0.337200433 0.776967525
vt 0.416247219 0.776967525
vt 0.337200433 0.69792074
vt 0.599050283 0.703742445
vt 0.599384904 0.699344158
vt 0.599519849 0.700213432
vt 0.598604202 0.703168988
vt 0.57360208 0.783971846
vt 0.573315084 0.779712856
vt 0.572497189 0.785596669
vt 0.574252486 0.779655397
vt 0.576285303 0.780153215
vt 0.577662706 0.786252201
vt 0.577553391 0.780036151
vt 0.576361001 0.784130275
vt 0.656890213 0.768579543
vt 0.656890213 0.768579543
vt 0.656890213 0.768579543
vt 0.656890213 0.768579543
vt 0.656890213 0.768579543
vt 0.656890213 0.768579543
vt 0.656890213 0.768579543
vt 0.656890213 0.768579543
vt 0.123675711 0.324308872
vt 0.100411139 0.345789194
vt 0.122857831 0.330192685
vt 0.122857831 0.330192685
vt 0.107280873 0.343905687
vt 0.114081509 0.347203016
vt 0.122857831 0.330192685
vt 0.128023297 0.330848217
vt 0.118158348 0.364813209
vt 0.115305476 0.386811733
vt 0.403428435 0.163479865
vt 0.406305075 0.167317212
vt 0.404705346 0.163824081
vt 0.406229377 0.163340151
vt 0.404803693 0.163425922
vt 0.404705346 0.163824081
vt 0.405456811 0.162746131
vn 1.000000 0.000000 0.000000
vn 0.982290 -0.187366 -0.000000
vn 1.000000 0.000000 0.000000
vn 0.564030 0.230011 0.793073
vn 0.564030 -0.230011 0.793073
vn 0.553998 -0.000000 0.832518
vn -0.230012 0.564032 0.793072
vn -0.394631 0.394630 0.829779
vn -0.564033 0.230012 0.793071
vn -0.564033 0.230012 0.793071
vn -0.554001 -0.000000 0.832516
vn -0.564033 -0.230012 0.793071
vn -0.564033 -0.230012 0.793071
vn -0.394631 -0.394630 0.829779
vn -0.230012 -0.564032 0.793072
vn -0.230012 -0.564032 0.793072
vn 0.000000 -0.554000 0.832517
vn 0.230011 -0.564031 0.793073
vn 0.230011 -0.564031 0.793073
vn 0.394628 -0.394629 0.829781
vn 0.564030 -0.230011 0.793073
vn 0.564030 0.230011 0.793073
vn 0.394628 0.394629 0.829781
vn 0.230011 0.564031 0.793073
vn 0.230011 0.564031 0.793073
vn 0.000000 0.554000 0.832517
vn -0.230012 0.564032 0.793072
vn 0.000000 -1.000000 -0.000000
vn 0.000000 -1.000000 -0.000000
vn 0.000000 -1.000000 -0.000000
vn 0.923808 0.382654 -0.012441
vn 0.505328 0.862576 -0.024645
vn 0.967159 0.252664 -0.027633
vn 1.000000 0.000000 0.000000
vn 1.000000 0.000000 0.000000
vn 1.000000 0.000000 0.000000
vn -1.000000 0.000000 0.000000
vn -1.000000 0.000000 0.000000
vn -1.000000 0.000000 0.000000
vn -1.000000 0.000000 0.000000
vn -1.000000 0.000000 0.000000
vn 0.000000 0.000000 -1.000000
vn 0.000000 0.000000 -1.000000
vn 0.000000 0.000000 -1.000000
vn 0.000000 0.000000 -1.000000
vn 0.000000 0.000000 -1.000000
vn 0.000000 0.000000 -1.000000
vn 0.000000 0.000000 -1.000000
vn 0.000000 0.000000 -1.000000
vn 0.000000 0.000000 -1.000000
vn 0.000000 0.000000 -1.000000
vn 0.000000 0.000000 -1.000000
vn 0.000000 0.000000 -1.000000
vn 0.000000 0.000000 -1.000000
vn 0.000000 0.000000 -1.000000
vn 0.000000 0.000000 -1.000000
vn 0.000000 0.000000 -1.000000
vn 0.000000 0.000000 -1.000000
vn 0.000000 0.000000 -1.000000
vn 0.000000 0.000000 -1.000000
vn 0.000000 0.000000 -1.000000
vn 0.000000 0.000000 -1.000000
vn 0.000000 0.000000 -1.000000
vn 0.000000 0.000000 -1.000000
vn 0.000000 0.000000 -1.000000
vn 0.000000 0.000000 -1.000000
vn 0.457651 0.889070 0.010520
vn 0.923880 0.382683 0.000000
vn 0.923808 0.382654 0.012441
vn 0.000000 0.000000 -1.000000
vn 0.000000 0.000000 -1.000000
vn 0.000000 0.000000 -1.000000
vn 0.382654 -0.923808 -0.012441
vn 0.862576 -0.505327 -0.024645
vn 0.252664 -0.967159 -0.027633
vn -0.382685 -0.923774 -0.013949
vn 0.252664 -0.967159 -0.027633
vn -0.505328 -0.862576 -0.024645
vn 0.382654 -0.923808 -0.012441
vn -0.382685 -0.923774 -0.013949
vn -0.252725 -0.967538 -0.000000
vn -0.862856 -0.505449 -0.000000
vn -0.923808 -0.382654 -0.012441
vn -1.000000 0.000000 0.000000
vn -0.999819 0.000000 -0.019042
vn 0.505450 -0.862856 -0.000000
vn 0.923774 -0.382685 -0.013949
vn 0.862576 -0.505327 -0.024645
vn 0.967159 0.252664 -0.027633
vn 0.967538 -0.252725 -0.000000
vn 0.923808 0.382654 -0.012441
vn 0.862856 0.505450 0.000000
vn 0.382685 0.923773 -0.013949
vn 0.505328 0.862576 -0.024645
vn -0.252664 0.967159 -0.027633
vn 0.252725 0.967538 0.000000
vn -0.382654 0.923808 -0.012441
vn -0.505449 0.862856 0.000000
vn -0.889070 0.457651 -0.010520
vn -0.923542 0.382589 -0.026387
vn -0.967538 0.252725 0.000000
vn -0.999853 0.000000 -0.017138
vn -0.382654 0.923808 -0.012441
vn -0.923542 0.382589 -0.026387
vn -0.252664 0.967159 -0.027633
vn -0.889070 0.457651 -0.010520
vn -0.999853 0.000000 -0.017138
vn -0.981898 -0.187322 -0.028054
vn -0.923808 -0.382654 -0.012441
vn -0.505328 -0.862576 -0.024645
vn -0.382685 -0.923774 -0.013949
vn -0.923808 -0.382654 -0.012441
vn -0.999819 0.000000 -0.019042
vn 0.000000 -0.000000 1.000000
vn 0.000000 -0.000000 1.000000
vn 0.000000 -0.000000 1.000000
vn 0.000000 -0.000000 1.000000
vn 0.000000 -0.000000 1.000000
vn 0.000000 0.000000 -1.000000
vn 0.000000 0.000000 -1.000000
vn 0.000000 0.000000 -1.000000
vn 0.000000 0.000000 -1.000000
vn 0.000000 0.000000 -1.000000
vn 0.000000 0.000000 -1.000000
vn 0.000000 0.000000 -1.000000
vn 0.923880 0.382683 0.000000
vn 1.000000 0.000000 0.000000
vn 0.923808 0.382654 0.012441
vn 0.923808 0.382654 0.012441
vn 0.999771 -0.000000 0.021421
vn 0.999819 -0.000000 0.019042
vn 1.000000 0.000000 0.000000
vn 0.923838 -0.382681 0.008797
vn 0.982290 -0.187366 -0.000000
vn 1.000000 0.000000 0.000000
vn 0.923880 0.382683 0.000000
vn 1.000000 0.000000 0.000000
vn 0.923838 -0.382681 0.008797
vn 0.505449 -0.862856 -0.000000
vn -0.252725 -0.967538 -0.000000
vn 0.327417 -0.944760 0.015053
vn -1.000000 0.000000 0.000000
vn -0.999853 0.000000 -0.017138
vn -0.967538 0.252725 0.000000
vn 0.000000 -1.000000 -0.000000
vn 0.000000 -1.000000 -0.000000
vn 0.000000 -1.000000 -0.000000
vn 0.000000 -0.000000 1.000000
vn 0.000000 -0.000000 1.000000
vn 0.000000 -0.000000 1.000000
vn 0.000000 -0.000000 1.000000
vn 0.000000 -0.000000 1.000000
vn 0.000000 -0.000000 1.000000
vn 0.000000 -0.000000 1.000000
vn 0.000000 -0.000000 1.000000
vn 0.000000 -0.000000 1.000000
vn 0.000000 -0.000000 1.000000
vn 0.000000 -0.000000 1.000000
vn 0.382589 -0.923542 0.026387
vn 0.951955 -0.305027 0.027199
vn 0.327417 -0.944760 0.015053
vn 0.999819 -0.000000 0.019042
vn 0.923838 -0.382681 0.008797
vn 0.967159 0.252664 0.027633
vn 0.999771 -0.000000 0.021421
vn 0.923808 0.382654 0.012441
vn 0.382589 0.923542 0.026387
vn 0.999819 -0.000000 0.019042
vn 0.951955 -0.305027 0.027199
vn 0.999771 -0.000000 0.021421
vn 0.327417 -0.944760 0.015053
vn 0.923838 -0.382681 0.008797
vn 0.505449 -0.862856 -0.000000
vn -0.252664 -0.967159 0.027633
vn 0.382589 -0.923542 0.026387
vn -0.505427 -0.862781 0.012324
vn -0.252725 -0.967538 -0.000000
vn -0.862575 -0.505328 0.024645
vn -0.952177 -0.305091 0.016682
vn -0.923542 0.382589 0.026387
vn -0.923879 -0.382684 -0.000000
vn -0.252725 -0.967538 -0.000000
vn -0.923838 0.382681 0.008797
vn -0.923880 0.382683 0.000000
vn -0.505450 0.862856 0.000000
vn -0.327418 0.944760 0.015053
vn -0.382589 0.923542 0.026387
vn 0.252725 0.967538 0.000000
vn 0.382589 0.923542 0.026387
vn 0.457651 0.889070 0.010520
vn 0.923808 0.382654 0.012441
vn 0.457651 0.889070 0.010520
vn 0.923880 0.382683 0.000000
vn 1.000000 0.000000 0.000000
vn 1.000000 0.000000 0.000000
vn 1.000000 0.000000 0.000000
vn 0.000000 -0.000000 1.000000
vn 0.000000 -0.000000 1.000000
vn 0.000000 -0.000000 1.000000
vn 0.000000 -0.000000 1.000000
vn 0.000000 -0.000000 1.000000
vn 0.000000 -0.000000 1.000000
vn 0.000000 -0.000000 1.000000
vn 0.000000 -0.000000 1.000000
vn 0.000000 -0.000000 1.000000
vn 0.000000 -0.000000 1.000000
vn 0.000000 -0.000000 1.000000
vn 0.000000 -0.000000 1.000000
vn 0.000000 -0.000000 1.000000
vn 0.000000 -0.000000 1.000000
vn 0.000000 -0.000000 1.000000
vn 0.000000 -0.000000 1.000000
vn 0.000000 -0.000000 1.000000
vn 0.000000 -0.000000 1.000000
vn 0.000000 -0.000000 1.000000
vn 0.000000 -0.000000 1.000000
vn 0.000000 -0.000000 1.000000
vn 0.000000 0.000000 -1.000000
vn 0.000000 0.000000 -1.000000
vn 0.000000 0.000000 -1.000000
vn 0.000000 0.000000 -1.000000
vn 0.000000 0.000000 -1.000000
vn 0.000000 0.000000 -1.000000
vn 0.000000 0.000000 -1.000000
vn 0.000000 0.000000 -1.000000
vn 0.000000 0.000000 -1.000000
vn -0.505449 0.862856 0.000000
vn -0.252725 0.967538 0.000000
vn 0.252725 0.967538 0.000000
vn -0.252725 0.967538 0.000000
vn 0.505449 0.862856 0.000000
vn 0.862856 0.505450 0.000000
vn 0.967538 0.252725 0.000000
vn 0.967538 -0.252725 -0.000000
vn 0.862856 -0.505449 -0.000000
vn 0.505450 -0.862856 -0.000000
vn 0.252725 -0.967538 -0.000000
vn -0.252725 -0.967538 -0.000000
vn -0.505449 -0.862856 -0.000000
vn -0.862856 -0.505449 -0.000000
vn -0.967538 -0.252725 -0.000000
vn -0.967538 0.252725 0.000000
vn -0.862856 0.505449 0.000000
vn -0.505449 0.862856 0.000000
vn -0.252725 0.967538 0.000000
vn 0.382683 0.923880 0.000000
vn 0.382683 0.923880 0.000000
vn -0.382684 0.923879 0.000000
vn 0.862856 0.505449 0.000000
vn 0.382683 0.923880 0.000000
vn 0.967538 0.252725 0.000000
vn 0.923880 -0.382683 -0.000000
vn 0.923880 -0.382683 -0.000000
vn 0.382683 -0.923880 -0.000000
vn 0.382683 -0.923880 -0.000000
vn 0.382683 -0.923880 -0.000000
vn -0.252725 -0.967538 -0.000000
vn 0.382683 -0.923880 -0.000000
vn -0.505449 -0.862856 -0.000000
vn -0.862856 -0.505450 -0.000000
vn -0.967538 -0.252725 -0.000000
vn -0.967538 0.252725 0.000000
vn -0.862856 0.505449 0.000000
vn -0.382684 0.923879 0.000000
vn -0.382684 0.923879 0.000000
vn 0.382683 0.923880 0.000000
vn 0.000000 0.000000 -1.000000
vn 0.000000 0.000000 -1.000000
vn 0.000000 0.000000 -1.000000
vn 0.000000 0.000000 -1.000000
vn 0.000000 0.000000 -1.000000
vn 0.000000 0.000000 -1.000000
vn -0.999819 0.000000 -0.019042
vn -0.981898 -0.187322 -0.028054
vn -0.999853 0.000000 -0.017138
vn 0.000000 -0.000000 1.000000
vn 0.000000 -0.000000 1.000000
vn 0.000000 -0.000000 1.000000
vn 0.000000 -0.000000 1.000000
vn 0.000000 -0.000000 1.000000
vn 0.000000 -0.000000 1.000000
vn 0.000000 -0.000000 1.000000
vn 0.000000 -0.000000 1.000000
vn 0.000000 -0.000000 1.000000
vn 0.000000 -0.000000 1.000000
vn 0.000000 -0.000000 1.000000
vn 0.000000 -0.000000 1.000000
vn 0.000000 -0.000000 1.000000
vn 0.000000 -0.000000 1.000000
vn 0.000000 -0.000000 1.000000
vn 0.000000 -0.000000 1.000000
vn 0.000000 -0.000000 1.000000
vn 0.000000 -0.000000 1.000000
vn 0.000000 -0.000000 1.000000
vn 0.000000 -0.000000 1.000000
vn 0.000000 -0.000000 1.000000
vn 0.000000 -0.000000 1.000000
vn 0.000000 -0.000000 1.000000
vn 0.923880 -0.382683 -0.000000
vn 0.923880 0.382683 0.000000
vn 0.923880 0.382683 0.000000
vn 0.923880 -0.382683 -0.000000
vn 0.923880 0.382683 0.000000
vn 0.505449 0.862856 0.000000
vn 0.923880 0.382683 0.000000
vn 0.252725 0.967538 0.000000
vn 0.505449 -0.862856 -0.000000
vn 0.923880 -0.382683 -0.000000
vn 0.252725 -0.967538 -0.000000
vn 0.923880 -0.382683 -0.000000
vn -0.862856 -0.505450 -0.000000
vn -0.505449 -0.862856 -0.000000
vn -0.967538 -0.252725 -0.000000
vn -0.252725 -0.967538 -0.000000
vn -0.505450 0.862856 0.000000
vn -0.862856 0.505449 0.000000
vn -0.252725 0.967538 0.000000
vn -0.967538 0.252725 0.000000
vn -0.967538 0.252725 0.000000
vn -0.967538 -0.252725 -0.000000
vn -0.862856 0.505449 0.000000
vn -0.862856 -0.505450 -0.000000
vn -0.252725 -0.967538 -0.000000
vn 0.252725 -0.967538 -0.000000
vn -0.505449 -0.862856 -0.000000
vn 0.505449 -0.862856 -0.000000
vn 0.252725 0.967538 0.000000
vn -0.252725 0.967538 0.000000
vn 0.505449 0.862856 0.000000
vn -0.505450 0.862856 0.000000
vn -0.382683 -0.923880 -0.000000
vn -0.382683 -0.923880 -0.000000
vn -0.382683 -0.923880 -0.000000
vn -0.382683 -0.923880 -0.000000
vn -0.923880 0.382683 0.000000
vn -0.923880 0.382683 0.000000
vn -0.923880 0.382683 0.000000
vn -0.923880 0.382683 0.000000
vn 0.382683 0.923880 0.000000
vn 0.382683 0.923880 0.000000
vn 0.382683 0.923880 0.000000
vn 0.382683 0.923880 0.000000
vn 0.923880 -0.382683 -0.000000
vn 0.923880 -0.382683 -0.000000
vn 0.923880 -0.382683 -0.000000
vn 0.923880 -0.382683 -0.000000
vn -0.923879 -0.382684 -0.000000
vn -0.923879 -0.382684 -0.000000
vn -0.923879 -0.382684 -0.000000
vn -0.923879 -0.382684 -0.000000
vn -0.382683 0.923880 0.000000
vn -0.382683 0.923880 0.000000
vn -0.382683 0.923880 0.000000
vn -0.382683 0.923880 0.000000
vn 0.923880 0.382683 0.000000
vn 0.923880 0.382683 0.000000
vn 0.923880 0.382683 0.000000
vn 0.923880 0.382683 0.000000
vn 0.382684 -0.923879 -0.000000
vn 0.382684 -0.923879 -0.000000
vn 0.382684 -0.923879 -0.000000
vn 0.382684 -0.923879 -0.000000
vn 0.923880 -0.382683 -0.000000
vn 0.923880 -0.382683 -0.000000
vn 0.923880 -0.382683 -0.000000
vn 0.923880 -0.382683 -0.000000
vn -0.382683 -0.923880 -0.000000
vn -0.382683 -0.923880 -0.000000
vn -0.382683 -0.923880 -0.000000
vn -0.382683 -0.923880 -0.000000
vn -0.923880 0.382683 0.000000
vn -0.923880 0.382683 0.000000
vn -0.923880 0.382683 0.000000
vn -0.923880 0.382683 0.000000
vn 0.382682 0.923880 0.000000
vn 0.382682 0.923880 0.000000
vn 0.382682 0.923880 0.000000
vn 0.382682 0.923880 0.000000
vn 0.382685 -0.923879 -0.000000
vn 0.382685 -0.923879 -0.000000
vn 0.382685 -0.923879 -0.000000
vn 0.382685 -0.923879 -0.000000
vn -0.923879 -0.382684 -0.000000
vn -0.923879 -0.382684 -0.000000
vn -0.923879 -0.382684 -0.000000
vn -0.923879 -0.382684 -0.000000
vn -0.382684 0.923879 0.000000
vn -0.382684 0.923879 0.000000
vn -0.382684 0.923879 0.000000
vn -0.382684 0.923879 0.000000
vn 0.923879 0.382685 0.000000
vn 0.923879 0.382685 0.000000
vn 0.923879 0.382685 0.000000
vn 0.923879 0.382685 0.000000
vn 0.382681 0.923881 0.000000
vn 0.382681 0.923881 0.000000
vn 0.382681 0.923881 0.000000
vn 0.382681 0.923881 0.000000
vn 0.923881 -0.382681 -0.000000
vn 0.923881 -0.382681 -0.000000
vn 0.923881 -0.382681 -0.000000
vn 0.923881 -0.382681 -0.000000
vn -0.382681 -0.923881 -0.000000
vn -0.382681 -0.923881 -0.000000
vn -0.382681 -0.923881 -0.000000
vn -0.382681 -0.923881 -0.000000
vn -0.923881 0.382681 0.000000
vn -0.923881 0.382681 0.000000
vn -0.923881 0.382681 0.000000
vn -0.923881 0.382681 0.000000
vn 0.923879 0.382686 0.000000
vn 0.923879 0.382686 0.000000
vn 0.923879 0.382686 0.000000
vn 0.923879 0.382686 0.000000
vn 0.382685 -0.923879 -0.000000
vn 0.382685 -0.923879 -0.000000
vn 0.382685 -0.923879 -0.000000
vn 0.382685 -0.923879 -0.000000
vn -0.923879 -0.382684 -0.000000
vn -0.923879 -0.382684 -0.000000
vn -0.923879 -0.382684 -0.000000
vn -0.923879 -0.382684 -0.000000
vn -0.382686 0.923878 0.000000
vn -0.382686 0.923878 0.000000
vn -0.382686 0.923878 0.000000
vn -0.382686 0.923878 0.000000
vn -0.923881 0.382680 0.000000
vn -0.923881 0.382680 0.000000
vn -0.923881 0.382680 0.000000
vn -0.923881 0.382680 0.000000
vn 0.382681 0.923881 0.000000
vn 0.382681 0.923881 0.000000
vn 0.382681 0.923881 0.000000
vn 0.382681 0.923881 0.000000
vn 0.923881 -0.382680 -0.000000
vn 0.923881 -0.382680 -0.000000
vn 0.923881 -0.382680 -0.000000
vn 0.923881 -0.382680 -0.000000
vn -0.382679 -0.923881 -0.000000
vn -0.382679 -0.923881 -0.000000
vn -0.382679 -0.923881 -0.000000
vn -0.382679 -0.923881 -0.000000
vn -0.382686 0.923878 0.000000
vn -0.382686 0.923878 0.000000
vn -0.382686 0.923878 0.000000
vn -0.382686 0.923878 0.000000
vn 0.923879 0.382686 0.000000
vn 0.923879 0.382686 0.000000
vn 0.923879 0.382686 0.000000
vn 0.923879 0.382686 0.000000
vn 0.382685 -0.923879 -0.000000
vn 0.382685 -0.923879 -0.000000
vn 0.382685 -0.923879 -0.000000
vn 0.382685 -0.923879 -0.000000
vn -0.923878 -0.382687 -0.000000
vn -0.923878 -0.382687 -0.000000
vn -0.923878 -0.382687 -0.000000
vn -0.923878 -0.382687 -0.000000
vn 0.000000 1.000000 0.000000
vn 0.000000 1.000000 0.000000
vn 0.000000 1.000000 0.000000
vn 0.000000 1.000000 0.000000
vn 0.000000 -1.000000 -0.000000
vn 0.000000 -1.000000 -0.000000
vn 0.000000 -1.000000 -0.000000
vn 0.000000 -1.000000 -0.000000
vn 0.000000 1.000000 0.000000
vn 0.000000 1.000000 0.000000
vn 0.000000 1.000000 0.000000
vn 0.000000 1.000000 0.000000
vn 0.000000 0.000000 -1.000000
vn 0.000000 0.000000 -1.000000
vn 0.000000 0.000000 -1.000000
vn 0.000000 0.000000 -1.000000
vn 0.000000 0.000000 -1.000000
vn 0.000000 0.000000 -1.000000
vn 0.000000 0.000000 -1.000000
vn 0.000000 0.000000 -1.000000
vn 0.000000 -0.000000 1.000000
vn 0.000000 -0.000000 1.000000
vn 0.000000 -0.000000 1.000000
vn 0.000000 -0.000000 1.000000
vn 0.000000 -0.000000 1.000000
vn 0.000000 -0.000000 1.000000
vn 0.000000 -0.000000 1.000000
vn 0.000000 -0.000000 1.000000
vn 0.000000 -0.000000 1.000000
vn 0.000000 -0.000000 1.000000
vn 0.000000 0.000000 -1.000000
vn 0.000000 0.000000 -1.000000
vn 0.000000 0.000000 -1.000000
vn 0.000000 0.000000 -1.000000
vn 0.000000 0.000000 -1.000000
vn 0.000000 0.000000 -1.000000
vn 0.000000 0.000000 -1.000000
f 3/3/3 2/2/2 1/1/1
f 6/6/6 5/5/5 4/4/4
f 9/9/9 8/8/8 7/7/7
f 12/12/12 11/11/11 10/10/10
f 15/15/15 14/14/14 13/13/13
f 18/18/18 17/17/17 16/16/16
f 21/21/21 20/20/20 19/19/19
f 24/24/24 23/23/23 22/22/22
f 27/27/27 26/26/26 25/25/25
f 30/30/30 29/29/29 28/28/28
f 33/33/33 32/32/32 31/31/31
f 36/36/36 35/35/35 34/34/34
f 39/39/39 38/38/38 37/37/37
f 41/41/41 38/38/38 40/40/40
f 44/44/44 43/43/43 42/42/42
f 46/46/46 45/45/45 43/43/43
f 46/46/46 43/43/43 47/47/47
f 47/47/47 49/49/49 48/48/48
f 51/51/51 50/50/50 47/47/47
f 53/53/53 50/50/50 52/52/52
f 50/50/50 54/54/54 52/52/52
f 54/54/54 55/55/55 52/52/52
f 56/56/56 52/52/52 55/55/55
f 57/57/57 56/56/56 55/55/55
f 58/58/58 56/56/56 57/57/57
f 59/59/59 58/58/58 57/57/57
f 60/60/60 58/58/58 59/59/59
f 61/61/61 60/60/60 59/59/59
f 59/59/59 63/63/63 62/62/62
f 66/66/66 65/65/65 64/64/64
f 69/69/69 68/68/68 67/67/67
f 72/72/72 71/71/71 70/70/70
f 75/75/75 74/74/74 73/73/73
f 78/78/78 77/77/77 76/76/76
f 80/80/80 77/77/77 79/79/79
f 80/80/80 79/79/79 81/81/81
f 82/82/82 80/80/80 81/81/81
f 83/83/83 80/80/80 82/82/82
f 84/84/84 83/83/83 82/82/82
f 85/85/85 83/83/83 84/84/84
f 81/81/81 79/79/79 86/86/86
f 79/79/79 87/87/87 86/86/86
f 79/79/79 88/88/88 87/87/87
f 88/88/88 89/89/89 87/87/87
f 86/86/86 87/87/87 90/90/90
f 87/87/87 89/89/89 91/91/91
f 87/87/87 91/91/91 90/90/90
f 90/90/90 91/91/91 92/92/92
f 91/91/91 93/93/93 92/92/92
f 91/91/91 94/94/94 93/93/93
f 94/94/94 95/95/95 93/93/93
f 92/92/92 93/93/93 96/96/96
f 93/93/93 95/95/95 97/97/97
f 93/93/93 97/97/97 96/96/96
f 96/96/96 97/97/97 98/98/98
f 97/97/97 99/99/99 98/98/98
f 97/97/97 100/100/100 99/99/99
f 98/98/98 99/99/99 101/101/101
f 99/99/99 102/102/102 101/101/101
f 105/105/105 104/104/104 103/103/103
f 104/104/104 107/107/107 106/106/106
f 104/104/104 108/108/108 107/107/107
f 108/108/108 110/110/110 109/109/109
f 112/112/112 110/110/110 111/111/111
f 112/112/112 113/113/113 108/108/108
f 116/116/116 115/115/115 114/114/114
f 118/118/118 117/117/117 114/114/114
f 121/121/121 120/120/120 119/119/119
f 121/121/121 123/123/123 122/122/122
f 125/125/125 121/121/121 124/124/124
f 128/128/128 127/127/127 126/126/126
f 130/130/130 127/127/127 129/129/129
f 133/133/133 132/132/132 131/131/131
f 136/136/136 135/135/135 134/134/134
f 138/138/138 134/134/134 137/137/137
f 138/138/138 139/139/139 134/134/134
f 141/141/141 140/140/140 139/139/139
f 144/144/144 143/143/143 142/142/142
f 147/147/147 146/146/146 145/145/145
f 150/150/150 149/149/149 148/148/148
f 152/152/152 150/150/150 151/151/151
f 150/150/150 153/153/153 151/151/151
f 155/155/155 154/154/154 153/153/153
f 157/157/157 156/156/156 155/155/155
f 157/157/157 155/155/155 158/158/158
f 161/161/161 160/160/160 159/159/159
f 163/163/163 162/162/162 160/160/160
f 160/160/160 165/165/165 164/164/164
f 164/164/164 165/165/165 166/166/166
f 166/166/166 167/167/167 164/164/164
f 170/170/170 169/169/169 168/168/168
f 172/172/172 169/169/169 171/171/171
f 171/171/171 173/173/173 172/172/172
f 175/175/175 174/174/174 171/171/171
f 171/171/171 174/174/174 176/176/176
f 176/176/176 177/177/177 171/171/171
f 174/174/174 178/178/178 176/176/176
f 176/176/176 178/178/178 179/179/179
f 178/178/178 180/180/180 179/179/179
f 179/179/179 181/181/181 176/176/176
f 176/176/176 181/181/181 182/182/182
f 183/183/183 181/181/181 179/179/179
f 179/179/179 180/180/180 183/183/183
f 184/184/184 181/181/181 183/183/183
f 183/183/183 185/185/185 184/184/184
f 183/183/183 180/180/180 186/186/186
f 186/186/186 185/185/185 183/183/183
f 186/186/186 180/180/180 187/187/187
f 186/186/186 188/188/188 185/185/185
f 187/187/187 189/189/189 186/186/186
f 190/190/190 188/188/188 186/186/186
f 190/190/190 189/189/189 191/191/191
f 186/186/186 189/189/189 192/192/192
f 192/192/192 193/193/193 188/188/188
f 196/196/196 195/195/195 194/194/194
f 199/199/199 198/198/198 197/197/197
f 202/202/202 201/201/201 200/200/200
f 205/205/205 204/204/204 203/203/203
f 207/207/207 205/205/205 206/206/206
f 206/206/206 209/209/209 208/208/208
f 209/209/209 206/206/206 210/210/210
f 210/210/210 206/206/206 211/211/211
f 211/211/211 213/213/213 212/212/212
f 214/214/214 212/212/212 213/213/213
f 217/217/217 216/216/216 215/215/215
f 220/220/220 219/219/219 218/218/218
f 223/223/223 222/222/222 221/221/221
f 222/222/222 225/225/225 224/224/224
f 224/224/224 225/225/225 226/226/226
f 229/229/229 228/228/228 227/227/227
f 231/231/231 230/230/230 229/229/229
f 232/232/232 231/231/231 229/229/229
f 233/233/233 231/231/231 232/232/232
f 234/234/234 233/233/233 232/232/232
f 235/235/235 233/233/233 234/234/234
f 236/236/236 235/235/235 234/234/234
f 237/237/237 235/235/235 236/236/236
f 238/238/238 237/237/237 236/236/236
f 239/239/239 237/237/237 238/238/238
f 240/240/240 239/239/239 238/238/238
f 241/241/241 239/239/239 240/240/240
f 242/242/242 241/241/241 240/240/240
f 243/243/243 241/241/241 242/242/242
f 244/244/244 243/243/243 242/242/242
f 245/245/245 243/243/243 244/244/244
f 248/248/248 247/247/247 246/246/246
f 250/250/250 249/249/249 246/246/246
f 251/251/251 249/249/249 250/250/250
f 251/251/251 252/252/252 249/249/249
f 253/253/253 252/252/252 251/251/251
f 253/253/253 254/254/254 252/252/252
f 252/252/252 256/256/256 255/255/255
f 256/256/256 257/257/257 255/255/255
f 259/259/259 257/257/257 258/258/258
f 259/259/259 260/260/260 257/257/257
f 261/261/261 260/260/260 259/259/259
f 261/261/261 262/262/262 260/260/260
f 263/263/263 262/262/262 261/261/261
f 263/263/263 264/264/264 262/262/262
f 265/265/265 264/264/264 263/263/263
f 265/265/265 266/266/266 264/264/264
f 269/269/269 268/268/268 267/267/267
f 272/272/272 271/271/271 270/270/270
f 275/275/275 274/274/274 273/273/273
f 278/278/278 277/277/277 276/276/276
f 280/280/280 277/277/277 279/279/279
f 279/279/279 281/281/281 280/280/280
f 280/280/280 281/281/281 282/282/282
f 281/281/281 283/283/283 282/282/282
f 285/285/285 282/282/282 284/284/284
f 284/284/284 286/286/286 285/285/285
f 288/288/288 286/286/286 287/287/287
f 287/287/287 286/286/286 289/289/289
f 286/286/286 291/291/291 290/290/290
f 291/291/291 292/292/292 290/290/290
f 295/295/295 294/294/294 293/293/293
f 297/297/297 295/295/295 296/296/296
f 296/296/296 295/295/295 298/298/298
f 301/301/301 300/300/300 299/299/299
f 299/299/299 300/300/300 302/302/302
f 305/305/305 304/304/304 303/303/303
f 303/303/303 304/304/304 306/306/306
f 309/309/309 308/308/308 307/307/307
f 307/307/307 308/308/308 310/310/310
f 313/313/313 312/312/312 311/311/311
f 311/311/311 312/312/312 314/314/314
f 317/317/317 316/316/316 315/315/315
f 315/315/315 316/316/316 318/318/318
f 321/321/321 320/320/320 319/319/319
f 319/319/319 320/320/320 322/322/322
f 325/325/325 324/324/324 323/323/323
f 323/323/323 324/324/324 326/326/326
f 329/329/329 328/328/328 327/327/327
f 327/327/327 328/328/328 330/330/330
f 333/333/333 332/332/332 331/331/331
f 331/331/331 332/332/332 334/334/334
f 337/337/337 336/336/336 335/335/335
f 335/335/335 336/336/336 338/338/338
f 341/341/341 340/340/340 339/339/339
f 339/339/339 340/340/340 342/342/342
f 345/345/345 344/344/344 343/343/343
f 343/343/343 344/344/344 346/346/346
f 349/349/349 348/348/348 347/347/347
f 347/347/347 348/348/348 350/350/350
f 353/353/353 352/352/352 351/351/351
f 351/351/351 352/352/352 354/354/354
f 357/357/357 356/356/356 355/355/355
f 355/355/355 356/356/356 358/358/358
f 361/361/361 360/360/360 359/359/359
f 359/359/359 360/360/360 362/362/362
f 365/365/365 364/364/364 363/363/363
f 363/363/363 364/364/364 366/366/366
f 369/369/369 368/368/368 367/367/367
f 367/367/367 368/368/368 370/370/370
f 373/373/373 372/372/372 371/371/371
f 371/371/371 372/372/372 374/374/374
f 377/377/377 376/376/376 375/375/375
f 375/375/375 376/376/376 378/378/378
f 381/381/381 380/380/380 379/379/379
f 379/379/379 380/380/380 382/382/382
f 385/385/385 384/384/384 383/383/383
f 383/383/383 384/384/384 386/386/386
f 389/389/389 388/388/388 387/387/387
f 387/387/387 388/388/388 390/390/390
f 393/393/393 392/392/392 391/391/391
f 391/391/391 392/392/392 394/394/394
f 397/397/397 396/396/396 395/395/395
f 395/395/395 396/396/396 398/398/398
f 401/401/401 400/400/400 399/399/399
f 399/399/399 400/400/400 402/402/402
f 405/405/405 404/404/404 403/403/403
f 403/403/403 404/404/404 406/406/406
f 409/409/409 408/408/408 407/407/407
f 407/407/407 408/408/408 410/410/410
f 413/413/413 412/412/412 411/411/411
f 411/411/411 412/412/412 414/414/414
f 417/417/417 416/416/416 415/415/415
f 415/415/415 416/416/416 418/418/418
f 421/421/421 420/420/420 419/419/419
f 419/419/419 420/420/420 422/422/422
f 425/425/425 424/424/424 423/423/423
f 423/423/423 424/424/424 426/426/426
f 429/429/429 428/428/428 427/427/427
f 427/427/427 428/428/428 430/430/430
f 433/433/433 432/432/432 431/431/431
f 431/431/431 432/432/432 434/434/434
f 437/437/437 436/436/436 435/435/435
f 435/435/435 436/436/436 438/438/438
f 441/441/441 440/440/440 439/439/439
f 439/439/439 440/440/440 442/442/442
f 445/445/445 444/444/444 443/443/443
f 443/443/443 444/444/444 446/446/446
f 449/449/449 448/448/448 447/447/447
f 447/447/447 448/448/448 450/450/450
f 453/453/453 452/452/452 451/451/451
f 451/451/451 452/452/452 454/454/454
f 457/457/457 456/456/456 455/455/455
f 455/455/455 456/456/456 458/458/458
f 461/461/461 460/460/460 459/459/459
f 459/459/459 460/460/460 462/462/462
f 465/465/465 464/464/464 463/463/463
f 463/463/463 464/464/464 466/466/466
f 469/469/469 468/468/468 467/467/467
f 467/467/467 468/468/468 470/470/470
f 473/473/473 472/472/472 471/471/471
f 472/472/472 474/474/474 471/471/471
f 475/475/475 474/474/474 472/472/472
f 476/476/476 471/471/471 474/474/474
f 477/477/477 476/476/476 474/474/474
f 478/478/478 471/471/471 476/476/476
f 481/481/481 480/480/480 479/479/479
f 483/483/483 480/480/480 482/482/482
f 483/483/483 481/481/481 484/484/484
f 486/486/486 484/484/484 485/485/485
f 487/487/487 484/484/484 486/486/486
f 486/486/486 488/488/488 487/487/487
f 491/491/491 490/490/490 489/489/489
f 492/492/492 490/490/490 491/491/491
f 492/492/492 494/494/494 493/493/493
f 493/493/493 495/495/495 492/492/492
