# generated by LodBaker -- retail ships no LODGroup for this prop
v 2 -5.5 3.75 1 1 1
v 2 -6 3.75 1 1 1
v 2 -5.5 1 1 1 1
v 2 -6 1 1 1 1
v -2 6 1 1 1 1
v 2 6 1 1 1 1
v -2 5.5 1 1 1 1
v 2 5.5 1 1 1 1
v -2 -5.5 1 1 1 1
v 2 -5.5 1 1 1 1
v -2 -6 1 1 1 1
v 2 -6 1 1 1 1
v 2 6 3.75 1 1 1
v 2 5.5 3.75 1 1 1
v 2 6 1 1 1 1
v 2 5.5 1 1 1 1
v 6 1.25 2.75 1 1 1
v 5.5 1.25 2.75 1 1 1
v 6 -1.25 2.75 1 1 1
v 5.5 -1.25 2.75 1 1 1
v 5.5 -1.25 2.75 1 1 1
v 5.5 -1.25 -0 1 1 1
v 6 -1.25 2.75 1 1 1
v 6 -1.25 -0 1 1 1
v -5.5 5.5 4.25 1 1 1
v -5.5 -5.5 4.25 1 1 1
v 5.5 5.5 4.25 1 1 1
v 5.5 -5.5 4.25 1 1 1
v -2 -5.5 3.75 1 1 1
v -2 -6 3.75 1 1 1
v 2 -5.5 3.75 1 1 1
v 2 -6 3.75 1 1 1
v -2 6 3.75 1 1 1
v -2 5.5 3.75 1 1 1
v 2 6 3.75 1 1 1
v 2 5.5 3.75 1 1 1
v 5.5 1.25 2.75 1 1 1
v 5.5 1.25 0 1 1 1
v 6 1.25 0 1 1 1
v -5.5 5.5 4.25 1 1 1
v -5.5 5.5 0 1 1 1
v -5.5 -5.5 4.25 1 1 1
v -5.5 -5.5 -0 1 1 1
v -2 -5.5 3.75 1 1 1
v -2 -5.5 1 1 1 1
v -2 -6 3.75 1 1 1
v -2 -6 1 1 1 1
v 5.5 5.5 0 1 1 1
v 5.5 1.25 0 1 1 1
v -5.5 5.5 0 1 1 1
v 5.5 -1.25 -0 1 1 1
v 6 1.25 0 1 1 1
v 6 -1.25 -0 1 1 1
v -5.5 -5.5 -0 1 1 1
v 5.5 -5.5 -0 1 1 1
v 5.5 -5.5 -0 1 1 1
v 5.5 -1.25 -0 1 1 1
v 5.5 -1.25 2.75 1 1 1
v 5.5 -5.5 4.25 1 1 1
v 5.5 1.25 2.75 1 1 1
v 5.5 5.5 4.25 1 1 1
v 5.5 5.5 0 1 1 1
v 5.5 1.25 0 1 1 1
v 2 6 1 1 1 1
v 5.5 6 -5 1 1 1
v 6 6 -5 1 1 1
v 6 6 4.25 1 1 1
v -2 6 1 1 1 1
v 2 6 3.75 1 1 1
v -5.5 6 -5 1 1 1
v -6 6 4.25 1 1 1
v -2 6 3.75 1 1 1
v -6 6 -5 1 1 1
v -6 -6 -5 1 1 1
v -6 6 -5 1 1 1
v -6 -6 4.25 1 1 1
v -6 6 4.25 1 1 1
v -6 -0 7.25 1 1 1
v -2 6 3.75 1 1 1
v -2 6 1 1 1 1
v -2 5.5 3.75 1 1 1
v -2 5.5 1 1 1 1
v 5.5 -5.5 4.25 1 1 1
v -5.5 -5.5 4.25 1 1 1
v -2 -5.5 3.75 1 1 1
v 2 -5.5 3.75 1 1 1
v -2 -5.5 1 1 1 1
v 2 -5.5 1 1 1 1
v 5.5 -5.5 -0 1 1 1
v -5.5 -5.5 -0 1 1 1
v -5.5 5.5 0 1 1 1
v -5.5 5.5 4.25 1 1 1
v -2 5.5 1 1 1 1
v -2 5.5 3.75 1 1 1
v 5.5 5.5 4.25 1 1 1
v 2 5.5 3.75 1 1 1
v 5.5 5.5 0 1 1 1
v 2 5.5 1 1 1 1
v 6 -1.25 -5 1 1 1
v 6 -6 -5 1 1 1
v 6 -1.25 -0 1 1 1
v 6 -6 4.25 1 1 1
v 6 -1.25 2.75 1 1 1
v 6 -0 7.25 1 1 1
v 6 1.25 0 1 1 1
v 6 6 -5 1 1 1
v 6 1.25 2.75 1 1 1
v 6 6 4.25 1 1 1
v 2 -6 1 1 1 1
v 6 -6 4.25 1 1 1
v 6 -6 -5 1 1 1
v 5.5 -6 -5 1 1 1
v 2 -6 3.75 1 1 1
v 2 -6 4.25 1 1 1
v -2 -6 3.75 1 1 1
v -6 -6 4.25 1 1 1
v -2 -6 1 1 1 1
v -6 -6 -5 1 1 1
vt 0.6275203 0.3047654
vt 0.62841785 0.3047654
vt 0.6275203 0.3094887
vt 0.62841785 0.3094887
vt 0.62841785 0.3210823
vt 0.62841785 0.3279525
vt 0.6275203 0.3210823
vt 0.6275203 0.3279525
vt 0.62841785 0.31421196
vt 0.62841785 0.3210823
vt 0.6275203 0.31421196
vt 0.6275203 0.3210823
vt 0.6275203 0.3094887
vt 0.62841785 0.3094887
vt 0.6275203 0.31421196
vt 0.62841785 0.31421196
vt 0.6189938 0.30905932
vt 0.6180963 0.30905932
vt 0.6189938 0.3047654
vt 0.6180963 0.3047654
vt 0.6154038 0.30905932
vt 0.6154038 0.304336
vt 0.6163013 0.30905932
vt 0.6163013 0.304336
vt 0.39539745 0.80542433
vt 0.41514298 0.80542433
vt 0.39539742 0.8243175
vt 0.41514298 0.8243175
vt 0.6293154 0.3210823
vt 0.62841785 0.3210823
vt 0.6293154 0.31421196
vt 0.62841785 0.31421196
vt 0.6293154 0.3279525
vt 0.62841785 0.3279525
vt 0.6293154 0.3210823
vt 0.62841785 0.3210823
vt 0.61989135 0.30905932
vt 0.61989135 0.304336
vt 0.6189938 0.304336
vt 0.8736582 0.29983598
vt 0.8660292 0.29983598
vt 0.8736582 0.28094274
vt 0.8660292 0.28094274
vt 0.62841785 0.31421196
vt 0.62841785 0.3094887
vt 0.6293154 0.31421196
vt 0.6293154 0.3094887
vt 0.12854919 0.632203
vt 0.12092021 0.632203
vt 0.12854919 0.61330974
vt 0.11643259 0.632203
vt 0.12092021 0.63306177
vt 0.11643259 0.63306177
vt 0.10880364 0.61330974
vt 0.10880363 0.63220286
vt 0.8996864 0.2989772
vt 0.8996864 0.29167753
vt 0.9046228 0.29167753
vt 0.9073154 0.2989772
vt 0.9046228 0.28738362
vt 0.9073154 0.28008395
vt 0.8996864 0.28008395
vt 0.8996864 0.28738362
vt 0.10841009 0.20117843
vt 0.119180374 0.20718998
vt 0.119180374 0.20804876
vt 0.102576174 0.2080487
vt 0.10841009 0.19430816
vt 0.10347369 0.20117843
vt 0.119180374 0.18829674
vt 0.102576174 0.18743795
vt 0.10347369 0.19430816
vt 0.119180374 0.18743795
vt 0.08283062 0.20804876
vt 0.10437121 0.20804876
vt 0.082830615 0.2239362
vt 0.10437121 0.2239362
vt 0.09360091 0.2290889
vt 0.6293154 0.3047654
vt 0.6293154 0.3094887
vt 0.62841785 0.3047654
vt 0.62841785 0.3094887
vt 0.88577473 0.28094274
vt 0.88577473 0.29983598
vt 0.8848772 0.2938245
vt 0.8848772 0.28695422
vt 0.8799408 0.2938245
vt 0.8799408 0.28695422
vt 0.87814575 0.28094274
vt 0.87814575 0.29983598
vt 0.89519876 0.2989772
vt 0.8875698 0.2989772
vt 0.8934037 0.2929657
vt 0.8884673 0.2929657
vt 0.8875698 0.28008395
vt 0.8884673 0.28609544
vt 0.89519876 0.28008395
vt 0.8934037 0.28609544
vt 0.074304126 0.20804876
vt 0.082830615 0.20804876
vt 0.074304126 0.21663654
vt 0.082830615 0.2239362
vt 0.074304126 0.22135985
vt 0.07206031 0.2290889
vt 0.0698165 0.21663654
vt 0.06129002 0.2080487
vt 0.0698165 0.22135985
vt 0.06129001 0.2239362
vt 0.11020513 0.21534836
vt 0.10437121 0.20847815
vt 0.120975435 0.20847815
vt 0.120975435 0.20933688
vt 0.10526873 0.21534836
vt 0.10437121 0.21534836
vt 0.105268754 0.22221863
vt 0.10437121 0.2290889
vt 0.11020513 0.22221863
vt 0.120975435 0.2290889
vn -1 0 -1.5259022E-05
vn -1 0 -1.5259022E-05
vn -1 0 -1.5259022E-05
vn -1 0 -1.5259022E-05
vn -1.5259255E-05 -1.5259255E-05 1
vn -1.5259255E-05 -1.5259255E-05 1
vn -1.5259255E-05 -1.5259255E-05 1
vn -1.5259255E-05 -1.5259255E-05 1
vn -1.5259255E-05 -1.5259255E-05 1
vn -1.5259255E-05 -1.5259255E-05 1
vn -1.5259255E-05 -1.5259255E-05 1
vn -1.5259255E-05 -1.5259255E-05 1
vn -1 0 -1.5259022E-05
vn -1 0 -1.5259022E-05
vn -1 0 -1.5259022E-05
vn -1 0 -1.5259022E-05
vn 0 0 -1
vn 0 0 -1
vn 0 0 -1
vn 0 0 -1
vn 0 1 -1.5259022E-05
vn 0 1 -1.5259022E-05
vn 0 1 -1.5259022E-05
vn 0 1 -1.5259022E-05
vn 0 0 -1
vn 0 0 -1
vn 0 0 -1
vn 0 0 -1
vn 0 0 -1
vn 0 0 -1
vn 0 0 -1
vn 0 0 -1
vn 0 0 -1
vn 0 0 -1
vn 0 0 -1
vn 0 0 -1
vn 0 -1 -1.5259022E-05
vn 0 -1 -1.5259022E-05
vn 0 -1 -1.5259022E-05
vn 1 0 -1.5259022E-05
vn 1 0 -1.5259022E-05
vn 1 0 -1.5259022E-05
vn 1 0 -1.5259022E-05
vn 1 0 -1.5259022E-05
vn 1 0 -1.5259022E-05
vn 1 0 -1.5259022E-05
vn 1 0 -1.5259022E-05
vn -1.5259255E-05 -1.5259255E-05 1
vn -1.5259255E-05 -1.5259255E-05 1
vn -1.5259255E-05 -1.5259255E-05 1
vn -1.5259255E-05 -1.5259255E-05 1
vn -1.5259255E-05 -1.5259255E-05 1
vn -1.5259255E-05 -1.5259255E-05 1
vn -1.5259255E-05 -1.5259255E-05 1
vn -1.5259255E-05 -1.5259255E-05 1
vn -1 0 -1.5259022E-05
vn -1 0 -1.5259022E-05
vn -1 0 -1.5259022E-05
vn -1 0 -1.5259022E-05
vn -1 0 -1.5259022E-05
vn -1 0 -1.5259022E-05
vn -1 0 -1.5259022E-05
vn -1 0 -1.5259022E-05
vn 0 1 -1.5259022E-05
vn 0 1 -1.5259022E-05
vn 0 1 -1.5259022E-05
vn 0 1 -1.5259022E-05
vn 0 1 -1.5259022E-05
vn 0 1 -1.5259022E-05
vn 0 1 -1.5259022E-05
vn 0 1 -1.5259022E-05
vn 0 1 -1.5259022E-05
vn 0 1 -1.5259022E-05
vn -1 0 -1.5259022E-05
vn -1 0 -1.5259022E-05
vn -1 0 -1.5259022E-05
vn -1 0 -1.5259022E-05
vn -1 0 -1.5259022E-05
vn 1 0 -1.5259022E-05
vn 1 0 -1.5259022E-05
vn 1 0 -1.5259022E-05
vn 1 0 -1.5259022E-05
vn 0 1 -1.5259022E-05
vn 0 1 -1.5259022E-05
vn 0 1 -1.5259022E-05
vn 0 1 -1.5259022E-05
vn 0 1 -1.5259022E-05
vn 0 1 -1.5259022E-05
vn 0 1 -1.5259022E-05
vn 0 1 -1.5259022E-05
vn 0 -1 -1.5259022E-05
vn 0 -1 -1.5259022E-05
vn 0 -1 -1.5259022E-05
vn 0 -1 -1.5259022E-05
vn 0 -1 -1.5259022E-05
vn 0 -1 -1.5259022E-05
vn 0 -1 -1.5259022E-05
vn 0 -1 -1.5259022E-05
vn 1 0 -1.5259022E-05
vn 1 0 -1.5259022E-05
vn 1 0 -1.5259022E-05
vn 1 0 -1.5259022E-05
vn 1 0 -1.5259022E-05
vn 1 0 -1.5259022E-05
vn 1 0 -1.5259022E-05
vn 1 0 -1.5259022E-05
vn 1 0 -1.5259022E-05
vn 1 0 -1.5259022E-05
vn 0 -1 -1.5259022E-05
vn 0 -1 -1.5259022E-05
vn 0 -1 -1.5259022E-05
vn 0 -1 -1.5259022E-05
vn 0 -1 -1.5259022E-05
vn 0 -1 -1.5259022E-05
vn 0 -1 -1.5259022E-05
vn 0 -1 -1.5259022E-05
vn 0 -1 -1.5259022E-05
vn 0 -1 -1.5259022E-05
f 3/3/3 2/2/2 1/1/1
f 3/3/3 4/4/4 2/2/2
f 7/7/7 6/6/6 5/5/5
f 7/7/7 8/8/8 6/6/6
f 11/11/11 10/10/10 9/9/9
f 11/11/11 12/12/12 10/10/10
f 15/15/15 14/14/14 13/13/13
f 15/15/15 16/16/16 14/14/14
f 19/19/19 18/18/18 17/17/17
f 19/19/19 20/20/20 18/18/18
f 23/23/23 22/22/22 21/21/21
f 23/23/23 24/24/24 22/22/22
f 27/27/27 26/26/26 25/25/25
f 27/27/27 28/28/28 26/26/26
f 31/31/31 30/30/30 29/29/29
f 31/31/31 32/32/32 30/30/30
f 35/35/35 34/34/34 33/33/33
f 35/35/35 36/36/36 34/34/34
f 38/38/38 17/17/17 37/37/37
f 38/38/38 39/39/39 17/17/17
f 42/42/42 41/41/41 40/40/40
f 42/42/42 43/43/43 41/41/41
f 46/46/46 45/45/45 44/44/44
f 47/47/47 45/45/45 46/46/46
f 50/50/50 49/49/49 48/48/48
f 51/51/51 49/49/49 50/50/50
f 49/49/49 51/51/51 52/52/52
f 52/52/52 51/51/51 53/53/53
f 50/50/50 54/54/54 51/51/51
f 51/51/51 54/54/54 55/55/55
f 58/58/58 57/57/57 56/56/56
f 59/59/59 58/58/58 56/56/56
f 59/59/59 60/60/60 58/58/58
f 60/60/60 59/59/59 61/61/61
f 60/60/60 61/61/61 62/62/62
f 60/60/60 62/62/62 63/63/63
f 66/66/66 65/65/65 64/64/64
f 67/67/67 66/66/66 64/64/64
f 65/65/65 68/68/68 64/64/64
f 69/69/69 67/67/67 64/64/64
f 68/68/68 65/65/65 70/70/70
f 67/67/67 69/69/69 71/71/71
f 71/71/71 69/69/69 72/72/72
f 71/71/71 72/72/72 68/68/68
f 71/71/71 68/68/68 70/70/70
f 71/71/71 70/70/70 73/73/73
f 76/76/76 75/75/75 74/74/74
f 75/75/75 76/76/76 77/77/77
f 77/77/77 76/76/76 78/78/78
f 81/81/81 80/80/80 79/79/79
f 82/82/82 80/80/80 81/81/81
f 85/85/85 84/84/84 83/83/83
f 85/85/85 83/83/83 86/86/86
f 85/85/85 87/87/87 84/84/84
f 83/83/83 88/88/88 86/86/86
f 89/89/89 88/88/88 83/83/83
f 89/89/89 87/87/87 88/88/88
f 87/87/87 90/90/90 84/84/84
f 87/87/87 89/89/89 90/90/90
f 93/93/93 92/92/92 91/91/91
f 94/94/94 92/92/92 93/93/93
f 92/92/92 94/94/94 95/95/95
f 95/95/95 94/94/94 96/96/96
f 96/96/96 97/97/97 95/95/95
f 98/98/98 93/93/93 91/91/91
f 98/98/98 97/97/97 96/96/96
f 91/91/91 97/97/97 98/98/98
f 101/101/101 100/100/100 99/99/99
f 102/102/102 100/100/100 101/101/101
f 103/103/103 102/102/102 101/101/101
f 103/103/103 104/104/104 102/102/102
f 99/99/99 105/105/105 101/101/101
f 106/106/106 105/105/105 99/99/99
f 107/107/107 104/104/104 103/103/103
f 106/106/106 107/107/107 105/105/105
f 104/104/104 107/107/107 108/108/108
f 107/107/107 106/106/106 108/108/108
f 111/111/111 110/110/110 109/109/109
f 109/109/109 112/112/112 111/111/111
f 110/110/110 113/113/113 109/109/109
f 113/113/113 110/110/110 114/114/114
f 114/114/114 115/115/115 113/113/113
f 116/116/116 115/115/115 114/114/114
f 117/117/117 112/112/112 109/109/109
f 116/116/116 117/117/117 115/115/115
f 117/117/117 118/118/118 112/112/112
f 118/118/118 117/117/117 116/116/116
