v 1.000000 9.349999 1.000000
v 0.000000 9.349999 0.000000
v 0.000000 9.349999 4.250000
v 1.000000 9.349999 4.250000
v 1.000000 9.349999 3.750000
v -12.670216 2.670217 0.000000
v -10.000000 0.000000 -5.000000
v -17.071068 7.071068 -5.000000
v -10.000000 -0.000000 2.750000
v -5.897107 4.102894 2.750000
v -9.668366 0.331634 4.750000
v -5.897107 4.102894 2.750000
v -9.668366 0.331634 1.000000
v 8.500000 10.000000 1.000000
v 10.000000 10.000000 -5.000000
v 10.000000 10.000000 1.000000
v 10.000000 -10.000000 -5.000000
v 10.000000 10.000000 1.000000
v 10.000000 10.000000 -5.000000
v 1.000000 10.000000 3.750000
v 8.500000 10.000000 3.750000
v 8.500000 10.000000 4.750000
v 8.500000 9.349999 3.750000
v 8.500000 10.000000 2.750000
v 8.500000 10.000000 3.750000
v 1.000000 9.349999 1.000000
v 0.000000 9.349999 4.250000
v 1.000000 9.349999 3.750000
v 8.500000 9.349999 0.000000
v 8.500000 9.349999 1.000000
v 0.000000 9.349999 0.000000
v 0.000000 10.000000 -5.000000
v -2.670217 12.670216 0.000000
v -7.071068 17.071068 -5.000000
v -0.779794 10.779794 1.000000
v -0.779794 10.779794 0.000000
v 0.000000 10.000000 1.000000
v 8.500000 9.349999 0.000000
v -3.775786 5.517107 0.000000
v 0.000000 9.349999 0.000000
v 9.500000 -9.500000 -0.000000
v -3.775786 5.517107 0.000000
v -5.897107 4.102894 0.000000
v -5.543554 3.749340 0.000000
v -5.543554 3.749340 0.000000
v -3.775786 5.517107 0.000000
v -9.349999 -9.500000 -0.000000
v -9.349999 0.000000 0.000000
v 9.500000 9.349999 0.000000
v 9.500000 -9.500000 -0.000000
v 8.500000 9.349999 0.000000
v -1.137874 10.421714 0.000000
v -2.670217 12.670216 0.000000
v -0.779794 10.779794 0.000000
v -10.448160 1.111428 0.000000
v -5.897107 4.102894 0.000000
v -9.668366 0.331634 0.000000
v -7.075594 16.359434 0.000000
v -16.385880 7.049148 0.000000
v -3.028296 12.312136 0.000000
v -4.129340 5.870660 0.000000
v -7.075594 16.359434 0.000000
v -4.129340 5.870660 0.000000
v -5.897107 4.102894 0.000000
v -12.338582 3.001850 0.000000
v -5.897107 4.102894 0.000000
v -10.448160 1.111428 0.000000
v -5.897107 4.102894 0.000000
v -4.129340 5.870660 0.000000
v -3.775786 5.517107 0.000000
v -1.137874 10.421714 0.000000
v -3.028296 12.312136 0.000000
v -2.670217 12.670216 0.000000
v -12.338582 3.001850 0.000000
v -16.385880 7.049148 0.000000
v -5.897107 4.102894 0.000000
v -10.000000 -1.000000 1.000000
v -10.000000 -0.000000 2.750000
v -10.000000 -1.000000 2.750000
v -10.000000 -1.000000 1.000000
v -10.000000 -0.000000 1.000000
v -10.000000 -0.000000 2.750000
v -10.000000 -8.500000 1.000000
v -10.000000 0.000000 -5.000000
v -10.000000 -10.000000 -5.000000
v -10.000000 -10.000000 4.750000
v -10.000000 -8.500000 3.750000
v -10.000000 -9.500000 4.750000
v -10.000000 -8.500000 4.750000
v -10.000000 -1.000000 4.750000
v -10.000000 -1.000000 3.750000
v -10.000000 -0.000000 1.000000
v -10.000000 -1.000000 1.000000
v -10.000000 0.000000 -5.000000
v -9.349999 -0.000000 1.000000
v -5.543554 3.749340 0.000000
v -9.349999 0.000000 0.000000
v -9.349999 -0.000000 4.250000
v -5.543554 3.749340 2.750000
v -9.349999 -0.000000 1.000000
v -9.349999 -0.000000 4.250000
v -3.775786 5.517107 2.750000
v 0.000000 9.349999 4.250000
v -9.349999 -0.000000 1.000000
v -5.543554 3.749340 2.750000
v -5.543554 3.749340 0.000000
v -12.670216 2.670217 0.000000
v -17.071068 7.071068 1.000000
v -12.670216 2.670217 1.000000
v -10.000000 -0.000000 1.000000
v -10.779794 0.779794 0.000000
v -10.779794 0.779794 1.000000
v -12.670216 2.670217 0.000000
v -17.071068 7.071068 -5.000000
v -17.071068 7.071068 1.000000
v -10.779794 0.779794 0.000000
v -10.000000 0.000000 -5.000000
v -10.000000 0.000000 -5.000000
v -10.779794 0.779794 0.000000
v -10.000000 -0.000000 1.000000
v -0.358080 9.641920 0.000000
v -0.358080 9.641920 1.000000
v -4.129340 5.870660 0.000000
v -0.358080 9.641920 1.000000
v -4.129340 5.870660 2.750000
v -4.129340 5.870660 0.000000
v -0.358080 9.641920 1.000000
v -0.358080 9.641920 4.750000
v -4.129340 5.870660 2.750000
v -4.129340 5.870660 2.750000
v -4.129340 5.870660 4.750000
v -5.897107 4.102894 2.750000
v -10.000000 -1.000000 2.750000
v -10.000000 -0.000000 2.750000
v -10.000000 -1.000000 3.750000
v 9.500000 -9.500000 -0.000000
v -9.349999 -9.500000 2.750000
v -9.349999 -9.500000 -0.000000
v 9.500000 -9.500000 -0.000000
v 9.500000 -9.500000 4.250000
v -9.349999 -9.500000 4.250000
v -10.000000 -1.000000 3.750000
v -9.349999 -1.000000 3.750000
v -10.000000 -1.000000 2.750000
v 10.000000 10.000000 -5.000000
v 8.500000 10.000000 1.000000
v 0.000000 10.000000 -5.000000
v 0.000000 10.000000 1.000000
v 0.000000 10.000000 -5.000000
v 1.000000 10.000000 1.000000
v 8.500000 10.000000 1.000000
v 10.000000 10.000000 1.000000
v 8.500000 10.000000 2.750000
v 0.000000 10.000000 -5.000000
v 8.500000 10.000000 1.000000
v 1.000000 10.000000 1.000000
v 10.000000 10.000000 1.000000
v 10.000000 10.000000 4.750000
v 8.500000 10.000000 2.750000
v 9.500000 10.000000 4.750000
v 8.500000 10.000000 3.750000
v 8.500000 10.000000 4.750000
v 1.000000 10.000000 4.750000
v 1.000000 10.000000 3.750000
v 0.000000 10.000000 4.750000
v 10.000000 10.000000 4.750000
v 8.500000 10.000000 3.750000
v 8.500000 10.000000 2.750000
v -10.000000 -8.500000 3.750000
v -9.349999 -8.500000 2.750000
v -9.349999 -8.500000 3.750000
v -9.349999 -0.000000 4.250000
v 1.000000 9.349999 4.250000
v 0.000000 9.349999 4.250000
v 9.500000 -9.500000 4.250000
v 1.000000 9.349999 4.250000
v -9.349999 -9.500000 4.250000
v 1.000000 9.349999 4.250000
v 9.500000 9.349999 4.250000
v -2.670217 12.670216 0.000000
v -3.028296 12.312136 1.000000
v -2.670217 12.670216 1.000000
v -3.028296 12.312136 0.000000
v -10.000000 -10.000000 4.750000
v 10.000000 -10.000000 -5.000000
v -10.000000 -10.000000 -5.000000
v 10.000000 -10.000000 8.750000
v -1.137874 10.421714 0.000000
v -0.779794 10.779794 1.000000
v -1.137874 10.421714 1.000000
v -0.779794 10.779794 0.000000
v -10.448160 1.111428 0.000000
v -9.668366 0.331634 1.000000
v -10.448160 1.111428 1.000000
v -9.668366 0.331634 0.000000
v -3.775786 5.517107 2.750000
v -4.129340 5.870660 0.000000
v -4.129340 5.870660 2.750000
v -3.775786 5.517107 0.000000
v -12.338582 3.001850 0.000000
v -12.670216 2.670217 1.000000
v -12.338582 3.001850 1.000000
v -12.670216 2.670217 0.000000
v -10.779794 0.779794 0.000000
v -10.448160 1.111428 1.000000
v -10.779794 0.779794 1.000000
v -10.448160 1.111428 0.000000
v -5.897107 4.102894 2.750000
v -5.543554 3.749340 0.000000
v -5.543554 3.749340 2.750000
v -5.897107 4.102894 0.000000
v -7.075594 16.359434 1.000000
v -17.071068 7.071068 1.000000
v -7.071068 17.071068 1.000000
v -16.385880 7.049148 1.000000
v -12.670216 2.670217 1.000000
v -12.338582 3.001850 1.000000
v 8.500000 10.000000 1.000000
v 1.000000 9.349999 1.000000
v 1.000000 10.000000 1.000000
v 8.500000 9.349999 1.000000
v -9.349999 -1.000000 1.000000
v -10.000000 -8.500000 1.000000
v -10.000000 -1.000000 1.000000
v -9.349999 -8.500000 1.000000
v -9.668366 0.331634 1.000000
v -10.779794 0.779794 1.000000
v -10.448160 1.111428 1.000000
v -10.000000 -0.000000 1.000000
v 0.000000 10.000000 1.000000
v -1.137874 10.421714 1.000000
v -0.779794 10.779794 1.000000
v -0.358080 9.641920 1.000000
v 1.000000 9.349999 3.750000
v 1.000000 10.000000 1.000000
v 1.000000 9.349999 1.000000
v 1.000000 10.000000 3.750000
v -16.385880 7.049148 0.000000
v -12.338582 3.001850 1.000000
v -16.385880 7.049148 1.000000
v -12.338582 3.001850 0.000000
v -3.028296 12.312136 0.000000
v -7.075594 16.359434 1.000000
v -3.028296 12.312136 1.000000
v -7.075594 16.359434 0.000000
v -0.358080 9.641920 0.000000
v -1.137874 10.421714 1.000000
v -0.358080 9.641920 1.000000
v -1.137874 10.421714 0.000000
v 9.500000 -9.500000 -0.000000
v 9.500000 9.349999 4.250000
v 9.500000 -9.500000 4.250000
v 9.500000 9.349999 0.000000
v -10.000000 -1.000000 3.750000
v -10.000000 -0.000000 4.750000
v -10.000000 -1.000000 4.750000
v -10.000000 -0.000000 2.750000
v -7.075594 16.359434 1.000000
v -16.385880 7.049148 0.000000
v -16.385880 7.049148 1.000000
v -7.075594 16.359434 0.000000
v 9.500000 9.349999 4.250000
v 9.500000 9.349999 0.000000
v 8.500000 9.349999 1.000000
v 8.500000 9.349999 0.000000
v -9.349999 -1.000000 3.750000
v -9.349999 -9.500000 4.250000
v -9.349999 -0.000000 4.250000
v -9.349999 -8.500000 3.750000
v -9.349999 -9.500000 2.750000
v -9.349999 -8.500000 2.750000
v -10.000000 -1.000000 2.750000
v -9.349999 -1.000000 1.000000
v -10.000000 -1.000000 1.000000
v -9.349999 -1.000000 3.750000
v -10.000000 -8.500000 3.750000
v -10.000000 -8.500000 1.000000
v -9.349999 -8.500000 2.750000
v -9.349999 -8.500000 1.000000
v -5.897107 4.102894 2.750000
v -3.775786 5.517107 2.750000
v -4.129340 5.870660 2.750000
v -5.543554 3.749340 2.750000
v 1.000000 10.000000 3.750000
v 8.500000 9.349999 3.750000
v 8.500000 10.000000 3.750000
v 1.000000 9.349999 3.750000
v -9.349999 -1.000000 3.750000
v -10.000000 -8.500000 3.750000
v -9.349999 -8.500000 3.750000
v -10.000000 -1.000000 3.750000
v -7.071068 17.071068 1.000000
v -17.071068 7.071068 -5.000000
v -7.071068 17.071068 -5.000000
v -17.071068 7.071068 1.000000
v 10.000000 -10.000000 8.750000
v 10.000000 10.000000 5.250000
v 10.000000 10.000000 4.750000
v 10.000000 -10.000000 9.250000
v 10.000000 -10.000000 8.750000
v -10.000000 -10.000000 5.250000
v 10.000000 -10.000000 9.250000
v -10.000000 -10.000000 4.750000
v -10.000000 -8.500000 4.750000
v -10.000000 -1.000000 5.250000
v -10.000000 -8.500000 5.250000
v -10.000000 -1.000000 4.750000
v 1.000000 10.000000 4.750000
v 8.500000 10.000000 5.250000
v 1.000000 10.000000 5.250000
v 8.500000 10.000000 4.750000
v -5.897107 4.102894 4.750000
v -4.129340 5.870660 5.250000
v -5.897107 4.102894 5.250000
v -4.129340 5.870660 4.750000
v -10.000000 -9.500000 4.750000
v -10.000000 -8.500000 5.250000
v -10.000000 -9.500000 5.250000
v -10.000000 -8.500000 4.750000
v 8.500000 10.000000 4.750000
v 9.500000 10.000000 5.250000
v 8.500000 10.000000 5.250000
v 9.500000 10.000000 4.750000
v -4.129340 5.870660 4.750000
v -0.358080 9.641920 5.250000
v -4.129340 5.870660 5.250000
v -0.358080 9.641920 4.750000
v -9.668366 0.331634 4.750000
v -5.897107 4.102894 5.250000
v -9.668366 0.331634 5.250000
v -5.897107 4.102894 4.750000
v 0.000000 10.000000 4.750000
v 1.000000 10.000000 5.250000
v 0.000000 10.000000 5.250000
v 1.000000 10.000000 4.750000
v -0.358080 9.641920 4.750000
v 0.000000 10.000000 5.250000
v -0.358080 9.641920 5.250000
v 0.000000 10.000000 4.750000
v -10.000000 -0.000000 4.750000
v -9.668366 0.331634 5.250000
v -10.000000 -0.000000 5.250000
v -9.668366 0.331634 4.750000
v 9.500000 10.000000 4.750000
v 10.000000 10.000000 5.250000
v 9.500000 10.000000 5.250000
v 10.000000 10.000000 4.750000
v -10.000000 -1.000000 4.750000
v -10.000000 -0.000000 5.250000
v -10.000000 -1.000000 5.250000
v -10.000000 -0.000000 4.750000
v -10.000000 -10.000000 4.750000
v -10.000000 -9.500000 5.250000
v -10.000000 -10.000000 5.250000
v -10.000000 -9.500000 4.750000
v -7.071068 17.071068 1.000000
v -2.670217 12.670216 0.000000
v -2.670217 12.670216 1.000000
v -7.071068 17.071068 -5.000000
v 0.000000 10.000000 -5.000000
v -0.779794 10.779794 0.000000
v 0.000000 10.000000 1.000000
v -4.129340 5.870660 0.000000
v -1.137874 10.421714 0.000000
v -0.358080 9.641920 0.000000
v -3.028296 12.312136 0.000000
v -12.670216 2.670217 0.000000
v -10.448160 1.111428 0.000000
v -10.779794 0.779794 0.000000
v -12.338582 3.001850 0.000000
v -7.075594 16.359434 1.000000
v -2.670217 12.670216 1.000000
v -3.028296 12.312136 1.000000
v -7.071068 17.071068 1.000000
v -3.775786 5.517107 0.000000
v -3.775786 5.517107 2.750000
v 0.000000 9.349999 0.000000
v 0.000000 9.349999 4.250000
v -5.897107 4.102894 0.000000
v -9.668366 0.331634 1.000000
v -9.668366 0.331634 0.000000
v -5.897107 4.102894 2.750000
v -10.000000 -0.000000 2.750000
v -10.000000 -0.000000 1.000000
v -9.668366 0.331634 4.750000
v -10.000000 -0.000000 4.750000
v -5.897107 4.102894 4.750000
v -4.129340 5.870660 4.750000
v -4.129340 5.870660 2.750000
v -0.358080 9.641920 4.750000
v 0.000000 10.000000 4.750000
v -0.358080 9.641920 1.000000
v 0.000000 10.000000 1.000000
v 8.500000 9.349999 3.750000
v 9.500000 9.349999 4.250000
v 8.500000 9.349999 1.000000
v 1.000000 9.349999 4.250000
v 1.000000 9.349999 3.750000
v -9.349999 -1.000000 3.750000
v -9.349999 -0.000000 1.000000
v -9.349999 -1.000000 1.000000
v -9.349999 -0.000000 4.250000
v -9.349999 -9.500000 -0.000000
v -9.349999 -8.500000 1.000000
v -9.349999 0.000000 0.000000
v -9.349999 -1.000000 1.000000
v -9.349999 -0.000000 1.000000
v -9.349999 -8.500000 2.750000
v -9.349999 -8.500000 1.000000
v -9.349999 -9.500000 2.750000
v -9.349999 -9.500000 -0.000000
v 10.000000 10.000000 1.000000
v 10.000000 -10.000000 8.750000
v 10.000000 10.000000 4.750000
v 10.000000 -10.000000 -5.000000
v 1.000000 10.000000 3.750000
v 0.000000 10.000000 1.000000
v 1.000000 10.000000 1.000000
v 0.000000 10.000000 4.750000
v 8.500000 10.000000 2.750000
v 8.500000 9.349999 1.000000
v 8.500000 10.000000 1.000000
v 8.500000 9.349999 3.750000
v -10.000000 -9.500000 5.250000
v 10.000000 -10.000000 9.250000
v -10.000000 -10.000000 5.250000
v -10.000000 -8.500000 5.250000
v -5.897107 4.102894 5.250000
v -10.000000 -1.000000 5.250000
v -9.668366 0.331634 5.250000
v -10.000000 -0.000000 5.250000
v -4.129340 5.870660 5.250000
v 8.500000 10.000000 5.250000
v 9.500000 10.000000 5.250000
v 10.000000 10.000000 5.250000
v 1.000000 10.000000 5.250000
v -0.358080 9.641920 5.250000
v 0.000000 10.000000 5.250000
vt 0.833794057 0.704850793
vt 0.793395162 0.704850793
vt 0.793395162 0.745249689
vt 0.833794057 0.745249689
vt 0.833794057 0.704850793
vt 0.171555936 0.682714701
vt 0.13115707 0.682714701
vt 0.13115707 0.723113596
vt 0.171555936 0.682714701
vt 0.13115707 0.723113596
vt 0.171555936 0.723113596
vt 0.13115707 0.723113596
vt 0.13115707 0.682714701
vt 0.171555936 0.682714701
vt 0.171555936 0.723113596
vt 0.13115707 0.723113596
vt 0.171555936 0.723113596
vt 0.171555936 0.682714701
vt 0.13115707 0.723113596
vt 0.13115707 0.723113596
vt 0.13115707 0.682714701
vt 0.171555936 0.723113596
vt 0.688064814 0.730492294
vt 0.647665977 0.730492294
vt 0.647665977 0.730492294
vt 0.833794057 0.704850793
vt 0.793395162 0.745249689
vt 0.833794057 0.704850793
vt 0.833794057 0.704850793
vt 0.833794057 0.745249689
vt 0.793395162 0.704850793
vt 0.171555936 0.682714701
vt 0.13115707 0.723113596
vt 0.171555936 0.723113596
vt 0.171555936 0.723113596
vt 0.171555936 0.682714701
vt 0.13115707 0.723113596
vt 0.169711262 0.265818298
vt 0.129312396 0.306217194
vt 0.149511829 0.306217194
vt 0.129312396 0.265818298
vt 0.129312396 0.306217194
vt 0.169711262 0.265818298
vt 0.161384761 0.26967603
vt 0.161384761 0.26967603
vt 0.129312396 0.306217194
vt 0.129312396 0.306217194
vt 0.169711262 0.306217194
vt 0.169711262 0.265818298
vt 0.129312396 0.265818298
vt 0.169711262 0.265818298
vt 0.129312396 0.265818298
vt 0.169711262 0.306217194
vt 0.169711262 0.265818298
vt 0.129312396 0.306217194
vt 0.169711262 0.265818298
vt 0.129312396 0.265818298
vt 0.169711262 0.306217194
vt 0.129312396 0.306217194
vt 0.169711262 0.265818298
vt 0.129312396 0.265818298
vt 0.169711262 0.306217194
vt 0.129312396 0.265818298
vt 0.169711262 0.265818298
vt 0.169711262 0.306217194
vt 0.169711262 0.265818298
vt 0.129312396 0.306217194
vt 0.169711262 0.265818298
vt 0.129312396 0.265818298
vt 0.129312396 0.306217194
vt 0.129312396 0.265818298
vt 0.169711262 0.265818298
vt 0.169711262 0.306217194
vt 0.169711262 0.306217194
vt 0.129312396 0.306217194
vt 0.169711262 0.265818298
vt 0.171555936 0.682714701
vt 0.13115707 0.723113596
vt 0.171555936 0.723113596
vt 0.171555936 0.682714701
vt 0.13115707 0.723113596
vt 0.13115707 0.723113596
vt 0.171555936 0.723113596
vt 0.171555936 0.723113596
vt 0.13115707 0.723113596
vt 0.171555936 0.723113596
vt 0.13115707 0.723113596
vt 0.171555936 0.723113596
vt 0.171555936 0.723113596
vt 0.13115707 0.723113596
vt 0.13115707 0.682714701
vt 0.13115707 0.723113596
vt 0.171555936 0.682714701
vt 0.171555936 0.723113596
vt 0.793395162 0.745249689
vt 0.833794057 0.704850793
vt 0.793395162 0.704850793
vt 0.793395162 0.745249689
vt 0.793395162 0.704850793
vt 0.793395162 0.745249689
vt 0.793395162 0.745249689
vt 0.793395162 0.745249689
vt 0.833794057 0.745249689
vt 0.793395162 0.745249689
vt 0.793395162 0.704850793
vt 0.833794057 0.704850793
vt 0.171555936 0.682714701
vt 0.13115707 0.723113596
vt 0.171555936 0.723113596
vt 0.171555936 0.723113596
vt 0.171555936 0.682714701
vt 0.13115707 0.723113596
vt 0.171555936 0.682714701
vt 0.13115707 0.723113596
vt 0.13115707 0.723113596
vt 0.171555936 0.682714701
vt 0.13115707 0.682714701
vt 0.13115707 0.682714701
vt 0.171555936 0.682714701
vt 0.171555936 0.723113596
vt 0.13115707 0.682714701
vt 0.13115707 0.723113596
vt 0.171555936 0.682714701
vt 0.13115707 0.723113596
vt 0.13115707 0.682714701
vt 0.171555936 0.682714701
vt 0.13115707 0.723113596
vt 0.171555936 0.723113596
vt 0.13115707 0.682714701
vt 0.13115707 0.682714701
vt 0.171555936 0.723113596
vt 0.13115707 0.723113596
vt 0.171555936 0.682714701
vt 0.13115707 0.682714701
vt 0.171555936 0.682714701
vt 0.793395162 0.704850793
vt 0.833794057 0.704850793
vt 0.833794057 0.704850793
vt 0.793395162 0.704850793
vt 0.793395162 0.745249689
vt 0.833794057 0.745249689
vt 0.647665977 0.730492294
vt 0.688064814 0.730492294
vt 0.647665977 0.730492294
vt 0.171555936 0.723113596
vt 0.171555936 0.682714701
vt 0.13115707 0.723113596
vt 0.171555936 0.723113596
vt 0.13115707 0.723113596
vt 0.171555936 0.723113596
vt 0.171555936 0.682714701
vt 0.13115707 0.723113596
vt 0.171555936 0.723113596
vt 0.13115707 0.723113596
vt 0.171555936 0.682714701
vt 0.171555936 0.723113596
vt 0.13115707 0.682714701
vt 0.13115707 0.723113596
vt 0.171555936 0.682714701
vt 0.171555936 0.723113596
vt 0.13115707 0.682714701
vt 0.171555936 0.723113596
vt 0.171555936 0.723113596
vt 0.13115707 0.723113596
vt 0.171555936 0.723113596
vt 0.13115707 0.723113596
vt 0.13115707 0.682714701
vt 0.171555936 0.682714701
vt 0.688064814 0.730492294
vt 0.647665977 0.730492294
vt 0.647665977 0.730492294
vt 0.372539312 0.291570842
vt 0.356137693 0.269851625
vt 0.36305967 0.272533178
vt 0.334344268 0.298710763
vt 0.356137693 0.269851625
vt 0.359722912 0.30854249
vt 0.356137693 0.269851625
vt 0.341792405 0.272533178
vt 0.171555936 0.682714701
vt 0.13115707 0.723113596
vt 0.171555936 0.723113596
vt 0.13115707 0.682714701
vt 0.13115707 0.723113596
vt 0.13115707 0.723113596
vt 0.13115707 0.682714701
vt 0.171555936 0.723113596
vt 0.171555936 0.682714701
vt 0.13115707 0.723113596
vt 0.171555936 0.723113596
vt 0.13115707 0.682714701
vt 0.171555936 0.682714701
vt 0.13115707 0.723113596
vt 0.171555936 0.723113596
vt 0.13115707 0.682714701
vt 0.688064814 0.730492294
vt 0.647665977 0.690093398
vt 0.647665977 0.730492294
vt 0.688064814 0.690093398
vt 0.171555936 0.682714701
vt 0.13115707 0.723113596
vt 0.171555936 0.723113596
vt 0.13115707 0.682714701
vt 0.171555936 0.682714701
vt 0.13115707 0.723113596
vt 0.171555936 0.723113596
vt 0.13115707 0.682714701
vt 0.688064814 0.730492294
vt 0.647665977 0.690093398
vt 0.647665977 0.730492294
vt 0.688064814 0.690093398
vt 0.647665977 0.730492294
vt 0.647665977 0.730492294
vt 0.688064814 0.730492294
vt 0.647665977 0.690093398
vt 0.647665977 0.690093398
vt 0.688064814 0.690093398
vt 0.688064814 0.690093398
vt 0.647665977 0.730492294
vt 0.688064814 0.730492294
vt 0.647665977 0.690093398
vt 0.688064814 0.690093398
vt 0.647665977 0.730492294
vt 0.688064814 0.730492294
vt 0.647665977 0.690093398
vt 0.688064814 0.690093398
vt 0.647665977 0.730492294
vt 0.688064814 0.730492294
vt 0.647665977 0.690093398
vt 0.688064814 0.690093398
vt 0.647665977 0.730492294
vt 0.688064814 0.730492294
vt 0.647665977 0.690093398
vt 0.647665977 0.730492294
vt 0.688064814 0.690093398
vt 0.647665977 0.690093398
vt 0.688064814 0.730492294
vt 0.171555936 0.682714701
vt 0.13115707 0.723113596
vt 0.171555936 0.723113596
vt 0.13115707 0.682714701
vt 0.171555936 0.682714701
vt 0.13115707 0.723113596
vt 0.171555936 0.723113596
vt 0.13115707 0.682714701
vt 0.171555936 0.682714701
vt 0.13115707 0.723113596
vt 0.171555936 0.723113596
vt 0.13115707 0.682714701
vt 0.833794057 0.704850793
vt 0.793395162 0.745249689
vt 0.833794057 0.745249689
vt 0.793395162 0.704850793
vt 0.171555936 0.682714701
vt 0.13115707 0.723113596
vt 0.171555936 0.723113596
vt 0.13115707 0.682714701
vt 0.171555936 0.723113596
vt 0.13115707 0.682714701
vt 0.13115707 0.723113596
vt 0.171555936 0.682714701
vt 0.833794057 0.745249689
vt 0.833794057 0.704850793
vt 0.793395162 0.745249689
vt 0.793395162 0.704850793
vt 0.793395162 0.745249689
vt 0.793395162 0.745249689
vt 0.833794057 0.745249689
vt 0.793395162 0.704850793
vt 0.793395162 0.704850793
vt 0.833794057 0.704850793
vt 0.647665977 0.730492294
vt 0.688064814 0.690093398
vt 0.647665977 0.690093398
vt 0.688064814 0.730492294
vt 0.688064814 0.730492294
vt 0.688064814 0.690093398
vt 0.647665977 0.730492294
vt 0.647665977 0.690093398
vt 0.647665977 0.690093398
vt 0.688064814 0.730492294
vt 0.688064814 0.690093398
vt 0.647665977 0.730492294
vt 0.688064814 0.690093398
vt 0.647665977 0.730492294
vt 0.688064814 0.730492294
vt 0.647665977 0.690093398
vt 0.688064814 0.690093398
vt 0.647665977 0.730492294
vt 0.688064814 0.730492294
vt 0.647665977 0.690093398
vt 0.13115707 0.723113596
vt 0.171555936 0.682714701
vt 0.13115707 0.682714701
vt 0.171555936 0.723113596
vt 0.354178727 0.778453827
vt 0.354178727 0.738054931
vt 0.354178727 0.738054931
vt 0.354178727 0.778453827
vt 0.354178727 0.778453827
vt 0.313779831 0.738054931
vt 0.354178727 0.778453827
vt 0.313779831 0.738054931
vt 0.354178727 0.778453827
vt 0.313779831 0.778453827
vt 0.354178727 0.778453827
vt 0.313779831 0.778453827
vt 0.354178727 0.778453827
vt 0.313779831 0.778453827
vt 0.354178727 0.778453827
vt 0.313779831 0.778453827
vt 0.354178727 0.778453827
vt 0.313779831 0.778453827
vt 0.354178727 0.778453827
vt 0.313779831 0.778453827
vt 0.354178727 0.778453827
vt 0.313779831 0.778453827
vt 0.354178727 0.778453827
vt 0.313779831 0.778453827
vt 0.354178727 0.778453827
vt 0.313779831 0.778453827
vt 0.354178727 0.778453827
vt 0.313779831 0.778453827
vt 0.354178727 0.778453827
vt 0.313779831 0.778453827
vt 0.354178727 0.778453827
vt 0.313779831 0.778453827
vt 0.354178727 0.778453827
vt 0.313779831 0.778453827
vt 0.354178727 0.778453827
vt 0.313779831 0.778453827
vt 0.354178727 0.778453827
vt 0.313779831 0.778453827
vt 0.354178727 0.778453827
vt 0.313779831 0.778453827
vt 0.354178727 0.778453827
vt 0.313779831 0.778453827
vt 0.354178727 0.778453827
vt 0.313779831 0.778453827
vt 0.354178727 0.778453827
vt 0.313779831 0.778453827
vt 0.354178727 0.778453827
vt 0.313779831 0.778453827
vt 0.354178727 0.778453827
vt 0.313779831 0.778453827
vt 0.354178727 0.778453827
vt 0.313779831 0.778453827
vt 0.354178727 0.778453827
vt 0.313779831 0.778453827
vt 0.354178727 0.778453827
vt 0.313779831 0.778453827
vt 0.354178727 0.778453827
vt 0.313779831 0.778453827
vt 0.354178727 0.778453827
vt 0.313779831 0.778453827
vt 0.171555936 0.723113596
vt 0.13115707 0.723113596
vt 0.13115707 0.723113596
vt 0.171555936 0.723113596
vt 0.171555936 0.682714701
vt 0.171555936 0.682714701
vt 0.13115707 0.723113596
vt 0.129312396 0.265818298
vt 0.129312396 0.265818298
vt 0.169711262 0.265818298
vt 0.169711262 0.265818298
vt 0.129312396 0.306217194
vt 0.129312396 0.306217194
vt 0.129312396 0.265818298
vt 0.169711262 0.306217194
vt 0.647665977 0.730492294
vt 0.688064814 0.690093398
vt 0.647665977 0.690093398
vt 0.688064814 0.730492294
vt 0.793395162 0.704850793
vt 0.793395162 0.745249689
vt 0.833794057 0.704850793
vt 0.833794057 0.745249689
vt 0.13115707 0.682714701
vt 0.13115707 0.682714701
vt 0.171555936 0.682714701
vt 0.13115707 0.723113596
vt 0.171555936 0.682714701
vt 0.171555936 0.682714701
vt 0.171555936 0.723113596
vt 0.171555936 0.723113596
vt 0.171555936 0.723113596
vt 0.171555936 0.723113596
vt 0.13115707 0.682714701
vt 0.171555936 0.723113596
vt 0.13115707 0.723113596
vt 0.13115707 0.723113596
vt 0.13115707 0.682714701
vt 0.793395162 0.745249689
vt 0.833794057 0.745249689
vt 0.793395162 0.745249689
vt 0.793395162 0.745249689
vt 0.793395162 0.704850793
vt 0.793395162 0.745249689
vt 0.833794057 0.704850793
vt 0.793395162 0.704850793
vt 0.833794057 0.745249689
vt 0.793395162 0.704850793
vt 0.833794057 0.704850793
vt 0.833794057 0.704850793
vt 0.833794057 0.745249689
vt 0.833794057 0.745249689
vt 0.833794057 0.745249689
vt 0.833794057 0.704850793
vt 0.793395162 0.745249689
vt 0.793395162 0.704850793
vt 0.171555936 0.682714701
vt 0.171555936 0.723113596
vt 0.171555936 0.682714701
vt 0.171555936 0.723113596
vt 0.13115707 0.723113596
vt 0.171555936 0.682714701
vt 0.13115707 0.682714701
vt 0.171555936 0.723113596
vt 0.647665977 0.730492294
vt 0.688064814 0.690093398
vt 0.647665977 0.690093398
vt 0.688064814 0.730492294
vt 0.383693516 0.734181643
vt 0.383693516 0.693782747
vt 0.383693516 0.734181643
vt 0.383693516 0.734181643
vt 0.383693516 0.734181643
vt 0.383693516 0.734181643
vt 0.383693516 0.734181643
vt 0.383693516 0.734181643
vt 0.383693516 0.734181643
vt 0.383693516 0.734181643
vt 0.383693516 0.734181643
vt 0.383693516 0.734181643
vt 0.383693516 0.734181643
vt 0.383693516 0.734181643
vt 0.383693516 0.734181643
vn 0.000000 -1.000000 -0.000000
vn 0.000000 -1.000000 -0.000000
vn 0.187308 -0.982275 0.007131
vn 0.000000 -1.000000 -0.000000
vn 0.000000 -1.000000 -0.000000
vn -0.707107 -0.707107 -0.000000
vn -0.923880 -0.382683 -0.000000
vn -0.707107 -0.707107 -0.000000
vn -0.923880 0.382683 0.000000
vn -0.707107 0.707107 0.000000
vn -0.707107 0.707107 0.000000
vn -0.707107 0.707107 0.000000
vn -0.707107 0.707107 0.000000
vn 0.000000 1.000000 0.000000
vn 0.000000 1.000000 0.000000
vn 0.000000 1.000000 0.000000
vn 1.000000 0.000000 0.000000
vn 1.000000 0.000000 0.000000
vn 1.000000 0.000000 0.000000
vn 0.000000 1.000000 0.000000
vn 0.000000 1.000000 0.000000
vn 0.000000 1.000000 0.000000
vn -1.000000 0.000000 0.000000
vn -1.000000 0.000000 0.000000
vn -1.000000 0.000000 0.000000
vn 0.000000 -1.000000 -0.000000
vn 0.187308 -0.982275 0.007131
vn 0.000000 -1.000000 -0.000000
vn 0.000000 -1.000000 -0.000000
vn 0.000000 -1.000000 -0.000000
vn 0.000000 -1.000000 -0.000000
vn 0.382683 0.923880 0.000000
vn 0.707107 0.707107 0.000000
vn 0.707107 0.707107 0.000000
vn 0.707107 0.707107 0.000000
vn 0.707107 0.707107 0.000000
vn 0.305101 0.952320 0.000000
vn 0.000000 -0.000000 1.000000
vn 0.000000 -0.000000 1.000000
vn 0.000000 -0.000000 1.000000
vn 0.000000 -0.000000 1.000000
vn 0.000000 -0.000000 1.000000
vn 0.000000 -0.000000 1.000000
vn 0.000000 -0.000000 1.000000
vn 0.000000 -0.000000 1.000000
vn 0.000000 -0.000000 1.000000
vn 0.000000 -0.000000 1.000000
vn 0.000000 -0.000000 1.000000
vn 0.000000 -0.000000 1.000000
vn 0.000000 -0.000000 1.000000
vn 0.000000 -0.000000 1.000000
vn 0.000000 -0.000000 1.000000
vn 0.000000 -0.000000 1.000000
vn 0.000000 -0.000000 1.000000
vn 0.000000 -0.000000 1.000000
vn 0.000000 -0.000000 1.000000
vn 0.000000 -0.000000 1.000000
vn 0.000000 -0.000000 1.000000
vn 0.000000 -0.000000 1.000000
vn 0.000000 -0.000000 1.000000
vn 0.000000 -0.000000 1.000000
vn 0.000000 -0.000000 1.000000
vn 0.000000 -0.000000 1.000000
vn 0.000000 -0.000000 1.000000
vn 0.000000 -0.000000 1.000000
vn 0.000000 -0.000000 1.000000
vn 0.000000 -0.000000 1.000000
vn 0.000000 -0.000000 1.000000
vn 0.000000 -0.000000 1.000000
vn 0.000000 -0.000000 1.000000
vn 0.000000 -0.000000 1.000000
vn 0.000000 -0.000000 1.000000
vn 0.000000 -0.000000 1.000000
vn 0.000000 -0.000000 1.000000
vn 0.000000 -0.000000 1.000000
vn 0.000000 -0.000000 1.000000
vn -1.000000 0.000000 0.000000
vn -0.923880 0.382683 0.000000
vn -1.000000 0.000000 0.000000
vn -1.000000 0.000000 0.000000
vn -0.985599 -0.169102 -0.000000
vn -0.923880 0.382683 0.000000
vn -1.000000 0.000000 0.000000
vn -0.923880 -0.382683 -0.000000
vn -1.000000 0.000000 0.000000
vn -1.000000 0.000000 0.000000
vn -1.000000 0.000000 0.000000
vn -1.000000 0.000000 0.000000
vn -1.000000 0.000000 0.000000
vn -1.000000 0.000000 0.000000
vn -1.000000 0.000000 0.000000
vn -0.985599 -0.169102 -0.000000
vn -1.000000 0.000000 0.000000
vn -0.923880 -0.382683 -0.000000
vn 0.701743 -0.712431 -0.000000
vn 0.701743 -0.712431 -0.000000
vn 0.701743 -0.712431 -0.000000
vn 0.705209 -0.708772 0.017941
vn 0.703506 -0.710632 0.008971
vn 0.701743 -0.712431 -0.000000
vn 0.888382 -0.458958 0.011618
vn 0.709691 -0.704384 0.013456
vn 0.306432 -0.951875 0.005810
vn 0.701743 -0.712431 -0.000000
vn 0.703506 -0.710632 0.008971
vn 0.701743 -0.712431 -0.000000
vn -0.707107 -0.707107 -0.000000
vn -0.707107 -0.707107 -0.000000
vn -0.707107 -0.707107 -0.000000
vn -0.923880 -0.382683 -0.000000
vn -0.707107 -0.707107 -0.000000
vn -0.707107 -0.707107 -0.000000
vn -0.707107 -0.707107 -0.000000
vn -0.707107 -0.707107 -0.000000
vn -0.707107 -0.707107 -0.000000
vn -0.707107 -0.707107 -0.000000
vn -0.923880 -0.382683 -0.000000
vn -0.923880 -0.382683 -0.000000
vn -0.707107 -0.707107 -0.000000
vn -0.923880 -0.382683 -0.000000
vn -0.707107 0.707107 0.000000
vn -0.707107 0.707107 0.000000
vn -0.707107 0.707107 0.000000
vn -0.707107 0.707107 0.000000
vn -0.707107 0.707107 0.000000
vn -0.707107 0.707107 0.000000
vn -0.707107 0.707107 0.000000
vn -0.707107 0.707107 0.000000
vn -0.707107 0.707107 0.000000
vn -0.707107 0.707107 0.000000
vn -0.707107 0.707107 0.000000
vn -0.707107 0.707107 0.000000
vn -1.000000 0.000000 0.000000
vn -0.923880 0.382683 0.000000
vn -1.000000 0.000000 0.000000
vn 0.000000 1.000000 0.000000
vn 0.000000 1.000000 0.000000
vn 0.000000 1.000000 0.000000
vn 0.000000 1.000000 0.000000
vn 0.000000 1.000000 0.000000
vn 0.000000 1.000000 0.000000
vn 0.000000 -1.000000 -0.000000
vn 0.000000 -1.000000 -0.000000
vn 0.000000 -1.000000 -0.000000
vn 0.000000 1.000000 0.000000
vn 0.000000 1.000000 0.000000
vn 0.382683 0.923880 0.000000
vn 0.136774 0.990602 0.000000
vn 0.382683 0.923880 0.000000
vn 0.000000 1.000000 0.000000
vn 0.000000 1.000000 0.000000
vn 0.000000 1.000000 0.000000
vn 0.000000 1.000000 0.000000
vn 0.382683 0.923880 0.000000
vn 0.000000 1.000000 0.000000
vn 0.000000 1.000000 0.000000
vn 0.000000 1.000000 0.000000
vn 0.000000 1.000000 0.000000
vn 0.000000 1.000000 0.000000
vn 0.000000 1.000000 0.000000
vn 0.000000 1.000000 0.000000
vn 0.000000 1.000000 0.000000
vn 0.000000 1.000000 0.000000
vn 0.000000 1.000000 0.000000
vn -0.327442 0.944871 0.000000
vn 0.000000 1.000000 0.000000
vn 0.000000 1.000000 0.000000
vn 0.000000 1.000000 0.000000
vn 0.000000 1.000000 0.000000
vn 0.000000 1.000000 0.000000
vn 0.000000 1.000000 0.000000
vn 0.000000 0.000000 -1.000000
vn 0.000000 0.000000 -1.000000
vn 0.000000 0.000000 -1.000000
vn 0.000000 0.000000 -1.000000
vn 0.000000 0.000000 -1.000000
vn 0.000000 0.000000 -1.000000
vn 0.000000 0.000000 -1.000000
vn 0.000000 0.000000 -1.000000
vn 0.707107 -0.707107 -0.000000
vn 0.707107 -0.707107 -0.000000
vn 0.707107 -0.707107 -0.000000
vn 0.707107 -0.707107 -0.000000
vn 0.000000 -1.000000 -0.000000
vn 0.000000 -1.000000 -0.000000
vn 0.000000 -1.000000 -0.000000
vn 0.000000 -1.000000 -0.000000
vn -0.707107 0.707107 0.000000
vn -0.707107 0.707107 0.000000
vn -0.707107 0.707107 0.000000
vn -0.707107 0.707107 0.000000
vn 0.707107 0.707107 0.000000
vn 0.707107 0.707107 0.000000
vn 0.707107 0.707107 0.000000
vn 0.707107 0.707107 0.000000
vn -0.707107 -0.707107 -0.000000
vn -0.707107 -0.707107 -0.000000
vn -0.707107 -0.707107 -0.000000
vn -0.707107 -0.707107 -0.000000
vn 0.707107 -0.707107 -0.000000
vn 0.707107 -0.707107 -0.000000
vn 0.707107 -0.707107 -0.000000
vn 0.707107 -0.707107 -0.000000
vn -0.707107 0.707107 0.000000
vn -0.707107 0.707107 0.000000
vn -0.707107 0.707107 0.000000
vn -0.707107 0.707107 0.000000
vn 0.707107 0.707107 0.000000
vn 0.707107 0.707107 0.000000
vn 0.707107 0.707107 0.000000
vn 0.707107 0.707107 0.000000
vn 0.000000 -0.000000 1.000000
vn 0.000000 -0.000000 1.000000
vn 0.000000 -0.000000 1.000000
vn 0.000000 -0.000000 1.000000
vn 0.000000 -0.000000 1.000000
vn 0.000000 -0.000000 1.000000
vn 0.000000 -0.000000 1.000000
vn 0.000000 -0.000000 1.000000
vn 0.000000 -0.000000 1.000000
vn 0.000000 -0.000000 1.000000
vn 0.000000 -0.000000 1.000000
vn 0.000000 -0.000000 1.000000
vn 0.000000 -0.000000 1.000000
vn 0.000000 -0.000000 1.000000
vn 0.000000 -0.000000 1.000000
vn 0.000000 -0.000000 1.000000
vn 0.000000 -0.000000 1.000000
vn 0.000000 -0.000000 1.000000
vn 0.000000 -0.000000 1.000000
vn 0.000000 -0.000000 1.000000
vn 0.000000 -0.000000 1.000000
vn 0.000000 -0.000000 1.000000
vn 1.000000 0.000000 0.000000
vn 1.000000 0.000000 0.000000
vn 1.000000 0.000000 0.000000
vn 1.000000 0.000000 0.000000
vn 0.707107 0.707107 0.000000
vn 0.707107 0.707107 0.000000
vn 0.707107 0.707107 0.000000
vn 0.707107 0.707107 0.000000
vn -0.707107 -0.707107 -0.000000
vn -0.707107 -0.707107 -0.000000
vn -0.707107 -0.707107 -0.000000
vn -0.707107 -0.707107 -0.000000
vn -0.707107 -0.707107 -0.000000
vn -0.707107 -0.707107 -0.000000
vn -0.707107 -0.707107 -0.000000
vn -0.707107 -0.707107 -0.000000
vn -1.000000 0.000000 0.000000
vn -1.000000 0.000000 0.000000
vn -1.000000 0.000000 0.000000
vn -1.000000 0.000000 0.000000
vn -1.000000 0.000000 0.000000
vn -0.923880 0.382683 0.000000
vn -1.000000 0.000000 0.000000
vn -0.923880 0.382683 0.000000
vn 0.707107 -0.707107 -0.000000
vn 0.707107 -0.707107 -0.000000
vn 0.707107 -0.707107 -0.000000
vn 0.707107 -0.707107 -0.000000
vn 0.000000 -1.000000 -0.000000
vn 0.000000 -1.000000 -0.000000
vn 0.000000 -1.000000 -0.000000
vn 0.000000 -1.000000 -0.000000
vn 1.000000 0.000000 0.000000
vn 1.000000 0.000000 0.000000
vn 0.923810 -0.382574 0.014565
vn 1.000000 0.000000 0.000000
vn 1.000000 0.000000 0.000000
vn 1.000000 0.000000 0.000000
vn 0.000000 -1.000000 -0.000000
vn 0.000000 -1.000000 -0.000000
vn 0.000000 -1.000000 -0.000000
vn 0.000000 -1.000000 -0.000000
vn 0.000000 1.000000 0.000000
vn 0.000000 1.000000 0.000000
vn 0.000000 1.000000 0.000000
vn 0.000000 1.000000 0.000000
vn 0.000000 0.000000 -1.000000
vn 0.000000 0.000000 -1.000000
vn 0.000000 0.000000 -1.000000
vn 0.000000 0.000000 -1.000000
vn 0.000000 0.000000 -1.000000
vn 0.000000 0.000000 -1.000000
vn 0.000000 0.000000 -1.000000
vn 0.000000 0.000000 -1.000000
vn 0.000000 0.000000 -1.000000
vn 0.000000 0.000000 -1.000000
vn 0.000000 0.000000 -1.000000
vn 0.000000 0.000000 -1.000000
vn -0.707107 0.707107 0.000000
vn -0.707107 0.707107 0.000000
vn -0.707107 0.707107 0.000000
vn -0.707107 0.707107 0.000000
vn 1.000000 0.000000 0.000000
vn 1.000000 0.000000 0.000000
vn 1.000000 0.000000 0.000000
vn 1.000000 0.000000 0.000000
vn 0.000000 -1.000000 -0.000000
vn 0.000000 -1.000000 -0.000000
vn 0.000000 -1.000000 -0.000000
vn 0.000000 -1.000000 -0.000000
vn -1.000000 0.000000 0.000000
vn -1.000000 0.000000 0.000000
vn -1.000000 0.000000 0.000000
vn -1.000000 0.000000 0.000000
vn 0.000000 1.000000 0.000000
vn 0.000000 1.000000 0.000000
vn 0.000000 1.000000 0.000000
vn 0.000000 1.000000 0.000000
vn -0.707107 0.707107 0.000000
vn -0.707107 0.707107 0.000000
vn -0.707107 0.707107 0.000000
vn -0.707107 0.707107 0.000000
vn -1.000000 0.000000 0.000000
vn -1.000000 0.000000 0.000000
vn -1.000000 0.000000 0.000000
vn -1.000000 0.000000 0.000000
vn 0.000000 1.000000 0.000000
vn 0.000000 1.000000 0.000000
vn 0.000000 1.000000 0.000000
vn 0.000000 1.000000 0.000000
vn -0.707107 0.707107 0.000000
vn -0.707107 0.707107 0.000000
vn -0.707107 0.707107 0.000000
vn -0.707107 0.707107 0.000000
vn -0.707107 0.707107 0.000000
vn -0.707107 0.707107 0.000000
vn -0.707107 0.707107 0.000000
vn -0.707107 0.707107 0.000000
vn -0.327442 0.944871 0.000000
vn 0.000000 1.000000 0.000000
vn -0.505449 0.862856 0.000000
vn 0.000000 1.000000 0.000000
vn -0.707107 0.707107 0.000000
vn -0.505449 0.862856 0.000000
vn -0.707107 0.707107 0.000000
vn -0.327442 0.944871 0.000000
vn -0.923880 0.382683 0.000000
vn -0.707107 0.707107 0.000000
vn -0.967538 0.252725 0.000000
vn -0.707107 0.707107 0.000000
vn 0.000000 1.000000 0.000000
vn 0.000000 1.000000 0.000000
vn 0.000000 1.000000 0.000000
vn 0.000000 1.000000 0.000000
vn -1.000000 0.000000 0.000000
vn -0.967538 0.252725 0.000000
vn -1.000000 0.000000 0.000000
vn -0.923880 0.382683 0.000000
vn -1.000000 0.000000 0.000000
vn -1.000000 0.000000 0.000000
vn -1.000000 0.000000 0.000000
vn -1.000000 0.000000 0.000000
vn 0.707107 0.707107 0.000000
vn 0.707107 0.707107 0.000000
vn 0.707107 0.707107 0.000000
vn 0.707107 0.707107 0.000000
vn 0.382683 0.923880 0.000000
vn 0.707107 0.707107 0.000000
vn 0.305101 0.952320 0.000000
vn 0.000000 -0.000000 1.000000
vn 0.000000 -0.000000 1.000000
vn 0.000000 -0.000000 1.000000
vn 0.000000 -0.000000 1.000000
vn 0.000000 -0.000000 1.000000
vn 0.000000 -0.000000 1.000000
vn 0.000000 -0.000000 1.000000
vn 0.000000 -0.000000 1.000000
vn 0.000000 -0.000000 1.000000
vn 0.000000 -0.000000 1.000000
vn 0.000000 -0.000000 1.000000
vn 0.000000 -0.000000 1.000000
vn 0.712394 -0.701780 -0.000000
vn 0.709691 -0.704384 0.013456
vn 0.712394 -0.701780 -0.000000
vn 0.709692 -0.704384 0.013456
vn -0.707107 0.707107 0.000000
vn -0.707107 0.707107 0.000000
vn -0.707107 0.707107 0.000000
vn -0.707107 0.707107 0.000000
vn -0.923880 0.382683 0.000000
vn -0.967538 0.252725 0.000000
vn -0.707107 0.707107 0.000000
vn -0.923880 0.382683 0.000000
vn -0.707107 0.707107 0.000000
vn -0.707107 0.707107 0.000000
vn -0.707107 0.707107 0.000000
vn -0.707107 0.707107 0.000000
vn -0.327442 0.944871 0.000000
vn -0.707107 0.707107 0.000000
vn -0.187366 0.982290 0.000000
vn 0.000000 -1.000000 -0.000000
vn 0.000000 -1.000000 -0.000000
vn 0.000000 -1.000000 -0.000000
vn 0.000000 -1.000000 -0.000000
vn 0.000000 -1.000000 -0.000000
vn 1.000000 0.000000 0.000000
vn 1.000000 0.000000 0.000000
vn 1.000000 0.000000 0.000000
vn 0.923810 -0.382574 0.014565
vn 1.000000 0.000000 0.000000
vn 1.000000 0.000000 0.000000
vn 1.000000 0.000000 0.000000
vn 1.000000 0.000000 0.000000
vn 1.000000 0.000000 0.000000
vn 1.000000 0.000000 0.000000
vn 1.000000 0.000000 0.000000
vn 1.000000 0.000000 0.000000
vn 1.000000 0.000000 0.000000
vn 1.000000 0.000000 0.000000
vn 1.000000 0.000000 0.000000
vn 1.000000 0.000000 0.000000
vn 1.000000 0.000000 0.000000
vn 0.000000 1.000000 0.000000
vn 0.136774 0.990602 0.000000
vn 0.000000 1.000000 0.000000
vn -0.327442 0.944871 0.000000
vn -1.000000 0.000000 0.000000
vn -1.000000 0.000000 0.000000
vn -1.000000 0.000000 0.000000
vn -1.000000 0.000000 0.000000
vn -0.196116 -0.000000 0.980581
vn -0.111778 0.111737 0.987431
vn -0.196116 -0.000000 0.980581
vn -0.129724 0.020850 0.991331
vn -0.080971 0.048563 0.995533
vn 0.000000 -0.000000 1.000000
vn 0.000000 -0.000000 1.000000
vn 0.000000 -0.000000 1.000000
vn -0.048630 0.080966 0.995530
vn -0.020938 0.129717 0.991330
vn 0.000000 0.196116 0.980581
vn 0.000000 0.196116 0.980581
vn 0.000000 -0.000000 1.000000
vn 0.000000 -0.000000 1.000000
vn 0.000000 -0.000000 1.000000
f 3/3/3 2/2/2 1/1/1
f 3/3/3 5/5/5 4/4/4
f 8/8/8 7/7/7 6/6/6
f 11/11/11 10/10/10 9/9/9
f 13/13/13 9/9/9 12/12/12
f 16/16/16 15/15/15 14/14/14
f 19/19/19 18/18/18 17/17/17
f 22/22/22 21/21/21 20/20/20
f 25/25/25 24/24/24 23/23/23
f 28/28/28 27/27/27 26/26/26
f 30/30/30 26/26/26 29/29/29
f 29/29/29 26/26/26 31/31/31
f 34/34/34 33/33/33 32/32/32
f 37/37/37 36/36/36 35/35/35
f 40/40/40 39/39/39 38/38/38
f 38/38/38 42/42/42 41/41/41
f 44/44/44 42/42/42 43/43/43
f 46/46/46 45/45/45 41/41/41
f 47/47/47 41/41/41 45/45/45
f 47/47/47 45/45/45 48/48/48
f 51/51/51 50/50/50 49/49/49
f 54/54/54 53/53/53 52/52/52
f 57/57/57 56/56/56 55/55/55
f 59/59/59 56/56/56 58/58/58
f 58/58/58 61/61/61 60/60/60
f 64/64/64 63/63/63 62/62/62
f 67/67/67 66/66/66 65/65/65
f 70/70/70 69/69/69 68/68/68
f 73/73/73 72/72/72 71/71/71
f 76/76/76 75/75/75 74/74/74
f 79/79/79 78/78/78 77/77/77
f 82/82/82 81/81/81 80/80/80
f 80/80/80 84/84/84 83/83/83
f 84/84/84 85/85/85 83/83/83
f 86/86/86 83/83/83 85/85/85
f 86/86/86 87/87/87 83/83/83
f 88/88/88 87/87/87 86/86/86
f 87/87/87 88/88/88 89/89/89
f 90/90/90 87/87/87 89/89/89
f 91/91/91 87/87/87 90/90/90
f 94/94/94 93/93/93 92/92/92
f 97/97/97 96/96/96 95/95/95
f 100/100/100 99/99/99 98/98/98
f 99/99/99 102/102/102 101/101/101
f 103/103/103 101/101/101 102/102/102
f 106/106/106 105/105/105 104/104/104
f 109/109/109 108/108/108 107/107/107
f 112/112/112 111/111/111 110/110/110
f 115/115/115 114/114/114 113/113/113
f 113/113/113 117/117/117 116/116/116
f 120/120/120 119/119/119 118/118/118
f 123/123/123 122/122/122 121/121/121
f 126/126/126 125/125/125 124/124/124
f 129/129/129 128/128/128 127/127/127
f 132/132/132 131/131/131 130/130/130
f 135/135/135 134/134/134 133/133/133
f 138/138/138 137/137/137 136/136/136
f 137/137/137 140/140/140 139/139/139
f 140/140/140 137/137/137 141/141/141
f 144/144/144 143/143/143 142/142/142
f 147/147/147 146/146/146 145/145/145
f 150/150/150 149/149/149 148/148/148
f 153/153/153 152/152/152 151/151/151
f 156/156/156 155/155/155 154/154/154
f 159/159/159 158/158/158 157/157/157
f 158/158/158 161/161/161 160/160/160
f 161/161/161 162/162/162 160/160/160
f 162/162/162 164/164/164 163/163/163
f 165/165/165 163/163/163 164/164/164
f 168/168/168 167/167/167 166/166/166
f 171/171/171 170/170/170 169/169/169
f 174/174/174 173/173/173 172/172/172
f 176/176/176 175/175/175 172/172/172
f 177/177/177 172/172/172 175/175/175
f 179/179/179 175/175/175 178/178/178
f 182/182/182 181/181/181 180/180/180
f 180/180/180 181/181/181 183/183/183
f 186/186/186 185/185/185 184/184/184
f 184/184/184 185/185/185 187/187/187
f 190/190/190 189/189/189 188/188/188
f 188/188/188 189/189/189 191/191/191
f 194/194/194 193/193/193 192/192/192
f 192/192/192 193/193/193 195/195/195
f 198/198/198 197/197/197 196/196/196
f 196/196/196 197/197/197 199/199/199
f 202/202/202 201/201/201 200/200/200
f 200/200/200 201/201/201 203/203/203
f 206/206/206 205/205/205 204/204/204
f 204/204/204 205/205/205 207/207/207
f 210/210/210 209/209/209 208/208/208
f 208/208/208 209/209/209 211/211/211
f 214/214/214 213/213/213 212/212/212
f 212/212/212 213/213/213 215/215/215
f 216/216/216 215/215/215 213/213/213
f 217/217/217 215/215/215 216/216/216
f 220/220/220 219/219/219 218/218/218
f 218/218/218 219/219/219 221/221/221
f 224/224/224 223/223/223 222/222/222
f 222/222/222 223/223/223 225/225/225
f 228/228/228 227/227/227 226/226/226
f 226/226/226 227/227/227 229/229/229
f 232/232/232 231/231/231 230/230/230
f 230/230/230 231/231/231 233/233/233
f 236/236/236 235/235/235 234/234/234
f 234/234/234 235/235/235 237/237/237
f 240/240/240 239/239/239 238/238/238
f 238/238/238 239/239/239 241/241/241
f 244/244/244 243/243/243 242/242/242
f 242/242/242 243/243/243 245/245/245
f 248/248/248 247/247/247 246/246/246
f 246/246/246 247/247/247 249/249/249
f 252/252/252 251/251/251 250/250/250
f 250/250/250 251/251/251 253/253/253
f 256/256/256 255/255/255 254/254/254
f 257/257/257 254/254/254 255/255/255
f 260/260/260 259/259/259 258/258/258
f 258/258/258 259/259/259 261/261/261
f 264/264/264 263/263/263 262/262/262
f 263/263/263 264/264/264 265/265/265
f 268/268/268 267/267/267 266/266/266
f 269/269/269 266/266/266 267/267/267
f 270/270/270 269/269/269 267/267/267
f 271/271/271 269/269/269 270/270/270
f 274/274/274 273/273/273 272/272/272
f 275/275/275 272/272/272 273/273/273
f 278/278/278 277/277/277 276/276/276
f 277/277/277 278/278/278 279/279/279
f 282/282/282 281/281/281 280/280/280
f 280/280/280 281/281/281 283/283/283
f 286/286/286 285/285/285 284/284/284
f 284/284/284 285/285/285 287/287/287
f 290/290/290 289/289/289 288/288/288
f 288/288/288 289/289/289 291/291/291
f 294/294/294 293/293/293 292/292/292
f 292/292/292 293/293/293 295/295/295
f 298/298/298 297/297/297 296/296/296
f 296/296/296 297/297/297 299/299/299
f 302/302/302 301/301/301 300/300/300
f 300/300/300 301/301/301 303/303/303
f 306/306/306 305/305/305 304/304/304
f 304/304/304 305/305/305 307/307/307
f 310/310/310 309/309/309 308/308/308
f 308/308/308 309/309/309 311/311/311
f 314/314/314 313/313/313 312/312/312
f 312/312/312 313/313/313 315/315/315
f 318/318/318 317/317/317 316/316/316
f 316/316/316 317/317/317 319/319/319
f 322/322/322 321/321/321 320/320/320
f 320/320/320 321/321/321 323/323/323
f 326/326/326 325/325/325 324/324/324
f 324/324/324 325/325/325 327/327/327
f 330/330/330 329/329/329 328/328/328
f 328/328/328 329/329/329 331/331/331
f 334/334/334 333/333/333 332/332/332
f 332/332/332 333/333/333 335/335/335
f 338/338/338 337/337/337 336/336/336
f 336/336/336 337/337/337 339/339/339
f 342/342/342 341/341/341 340/340/340
f 340/340/340 341/341/341 343/343/343
f 346/346/346 345/345/345 344/344/344
f 344/344/344 345/345/345 347/347/347
f 350/350/350 349/349/349 348/348/348
f 348/348/348 349/349/349 351/351/351
f 354/354/354 353/353/353 352/352/352
f 352/352/352 353/353/353 355/355/355
f 358/358/358 357/357/357 356/356/356
f 356/356/356 357/357/357 359/359/359
f 357/357/357 361/361/361 360/360/360
f 362/362/362 360/360/360 361/361/361
f 365/365/365 364/364/364 363/363/363
f 364/364/364 366/366/366 363/363/363
f 369/369/369 368/368/368 367/367/367
f 368/368/368 370/370/370 367/367/367
f 373/373/373 372/372/372 371/371/371
f 372/372/372 374/374/374 371/371/371
f 377/377/377 376/376/376 375/375/375
f 377/377/377 378/378/378 376/376/376
f 381/381/381 380/380/380 379/379/379
f 379/379/379 380/380/380 382/382/382
f 384/384/384 383/383/383 380/380/380
f 386/386/386 385/385/385 383/383/383
f 387/387/387 382/382/382 385/385/385
f 388/388/388 382/382/382 387/387/387
f 390/390/390 389/389/389 388/388/388
f 392/392/392 390/390/390 391/391/391
f 392/392/392 391/391/391 393/393/393
f 396/396/396 395/395/395 394/394/394
f 397/397/397 394/394/394 395/395/395
f 398/398/398 394/394/394 397/397/397
f 401/401/401 400/400/400 399/399/399
f 400/400/400 402/402/402 399/399/399
f 405/405/405 404/404/404 403/403/403
f 406/406/406 404/404/404 405/405/405
f 406/406/406 405/405/405 407/407/407
f 410/410/410 409/409/409 408/408/408
f 410/410/410 411/411/411 409/409/409
f 414/414/414 413/413/413 412/412/412
f 415/415/415 412/412/412 413/413/413
f 418/418/418 417/417/417 416/416/416
f 417/417/417 419/419/419 416/416/416
f 422/422/422 421/421/421 420/420/420
f 423/423/423 420/420/420 421/421/421
f 426/426/426 425/425/425 424/424/424
f 424/424/424 425/425/425 427/427/427
f 428/428/428 427/427/427 425/425/425
f 427/427/427 428/428/428 429/429/429
f 430/430/430 429/429/429 428/428/428
f 429/429/429 430/430/430 431/431/431
f 428/428/428 425/425/425 432/432/432
f 433/433/433 432/432/432 425/425/425
f 433/433/433 425/425/425 434/434/434
f 435/435/435 434/434/434 425/425/425
f 436/436/436 432/432/432 433/433/433
f 437/437/437 432/432/432 436/436/436
f 438/438/438 437/437/437 436/436/436
