g Model_0
v 0.0962505192 0.096250467 0
v -0.0962505043 0.0962505192 0
v -0.0962505341 -0.0962505043 0
v 0.0962505192 0.096250467 0
v -0.0962505341 -0.0962505043 0
v 0.0962505192 -0.0962505266 0
v 0.291978836 -0.344209105 1.24358237
v 0.241978824 -0.344209105 1.24358237
v 0.241978824 -0.344209105 1.70503235
v 0.291978836 -0.344209105 1.70503235
v 0.241978824 -0.244209081 1.61028731
v 0.241978824 -0.244209081 1.24358237
v 0.291978836 -0.244209081 1.24358237
v 0.291978836 -0.244209081 1.61028731
v 0.291978836 -0.344209105 1.70503235
v 0.241978824 -0.344209105 1.70503235
v 0.241978824 -0.160338894 1.70503235
v 0.291978836 -0.160338894 1.70503235
v 0.241978824 -0.344209105 1.24358237
v 0.291978836 -0.344209105 1.24358237
v 0.291978836 -0.244209081 1.24358237
v 0.241978824 -0.244209081 1.24358237
v -0.249999985 0.435172737 1.40521467
v -0.25 0.435172737 1
v 0.25 0.435172737 1
v 0.249999985 0.435172737 1.40521467
v -0.165469155 0.435172737 1.55165136
v 0.165469155 0.435172737 1.55165136
v 0.291978836 -0.244209081 1.24358237
v 0.291978836 -0.344209105 1.24358237
v 0.291978836 -0.344209105 1.70503235
v 0.291978836 -0.244209081 1.61028731
v 0.291978836 -0.160338894 1.70503235
v 0.291978836 -0.160338894 1.61028731
v 0.241978824 -0.244209081 1.61028731
v 0.241978824 -0.160338894 1.61028731
v 0.241978824 -0.160338894 1.70503235
v 0.241978824 -0.344209105 1.70503235
v 0.241978824 -0.344209105 1.24358237
v 0.241978824 -0.244209081 1.24358237
v 0.291978836 -0.160338894 1.61028731
v 0.291978836 -0.160338894 1.70503235
v 0.241978824 -0.160338894 1.70503235
v 0.241978824 -0.160338894 1.61028731
v 0.291978836 -0.244209081 1.61028731
v 0.291978836 -0.160338894 1.61028731
v 0.241978824 -0.160338894 1.61028731
v 0.241978824 -0.244209081 1.61028731
v -0.249999985 -0.435172737 1.40521467
v -0.25 -0.435172737 1
v -0.25 0.435172737 1
v -0.249999985 0.435172737 1.40521467
v -0.165469155 -0.435172737 1.55165136
v -0.165469155 0.435172737 1.55165136
v 0.249999985 0.435172737 1.40521467
v 0.25 0.435172737 1
v 0.25 -0.435172737 1
v 0.249999985 -0.435172737 1.40521467
v 0.165469155 0.435172737 1.55165136
v 0.165469155 -0.435172737 1.55165136
v -0.25 -0.435172737 1
v 0.25 -0.435172737 1
v 0.25 0.435172737 1
v -0.25 0.435172737 1
v 0.165469155 -0.435172737 1.55165136
v -0.165469155 -0.435172737 1.55165136
v -0.165469155 0.435172737 1.55165136
v 0.165469155 0.435172737 1.55165136
v 0.0962505192 0.096250467 0
v 0.0962505192 -0.0962505266 0
v 0.0962504297 -0.0962506011 1
v 0.0962505639 0.0962504223 1
v 0.0962505192 -0.0962505266 0
v -0.0962505341 -0.0962505043 0
v -0.0962505639 -0.0962505043 1
v 0.0962504297 -0.0962506011 1
v -0.0962505341 -0.0962505043 0
v -0.0962505043 0.0962505192 0
v -0.0962505043 0.0962504968 1
v -0.0962505639 -0.0962505043 1
v 0.0962505639 0.0962504223 1
v -0.0962505043 0.0962504968 1
v -0.0962505043 0.0962505192 0
v 0.0962505192 0.096250467 0
v 0.249999985 -0.435172737 1.40521467
v 0.25 -0.435172737 1
v -0.25 -0.435172737 1
v -0.249999985 -0.435172737 1.40521467
v 0.165469155 -0.435172737 1.55165136
v -0.165469155 -0.435172737 1.55165136
vt 0.339877725 0.0469765067
vt 0.366650462 0.0469765067
vt 0.313104987 0.168161333
vt 0.339877725 0.0469765067
vt 0.313104987 0.168161333
vt 0.366650462 0.324948847
vt 0.110598795 0.680538058
vt 0.1036449 0.680538058
vt 0.1036449 0.744789183
vt 0.110598795 0.744789183
vt 0.110598795 0.79584837
vt 0.110598795 0.744789183
vt 0.1036449 0.744789243
vt 0.1036449 0.79584837
vt 0.271081895 0.757348657
vt 0.264128 0.757348657
vt 0.264128 0.782950282
vt 0.271081895 0.782950282
vt 0.252687424 0.771272421
vt 0.259641379 0.771272421
vt 0.259641379 0.757348657
vt 0.252687424 0.757348657
vt 0.730179608 0.344388962
vt 0.730179667 0.400810063
vt 0.799718797 0.400810063
vt 0.799718738 0.344388902
vt 0.741936028 0.323999465
vt 0.787962317 0.323999435
vt 0.284989744 0.757348657
vt 0.271081895 0.757348657
vt 0.271081895 0.8213678
vt 0.284989744 0.808223367
vt 0.296654254 0.8213678
vt 0.296654254 0.808223367
vt 0.238779634 0.808223367
vt 0.22711511 0.808223367
vt 0.22711511 0.8213678
vt 0.252687424 0.8213678
vt 0.252687424 0.757348657
vt 0.238779634 0.757348657
vt 0.174134895 0.757348657
vt 0.174134895 0.770540774
vt 0.18108879 0.770540774
vt 0.18108879 0.757348657
vt 0.118503593 0.769026577
vt 0.118503593 0.757348657
vt 0.111549668 0.757348657
vt 0.111549668 0.769026577
vt 0.743565798 0.323999405
vt 0.799718738 0.323999405
vt 0.799718738 0.202814579
vt 0.743565798 0.202814579
vt 0.72227484 0.323999435
vt 0.72227484 0.202814609
vt 0.855871737 0.202814579
vt 0.799718738 0.202814579
vt 0.799718797 0.323999405
vt 0.855871737 0.323999405
vt 0.877162635 0.202814579
vt 0.877162635 0.323999405
vt 0.946701765 0.202814579
vt 0.877162635 0.202814579
vt 0.877162635 0.323999405
vt 0.946701765 0.323999405
vt 0.799718797 0.445184231
vt 0.845745087 0.445184231
vt 0.845745087 0.323999405
vt 0.799718738 0.323999405
vt 0.339877784 0.324948847
vt 0.366650462 0.324948847
vt 0.366650403 0.186214149
vt 0.339877725 0.186214149
vt 0.339877725 0.168161333
vt 0.313104987 0.168161333
vt 0.313104987 0.307398975
vt 0.339877725 0.307398975
vt 0.39342314 0.0469765067
vt 0.366650462 0.0469765067
vt 0.366650462 0.185711205
vt 0.39342314 0.185711205
vt 0.339877725 0.186214149
vt 0.366650403 0.186214149
vt 0.366650462 0.0469765067
vt 0.339877725 0.0469765067
vt 0.845745087 0.344388902
vt 0.845745087 0.400810063
vt 0.915284216 0.400810063
vt 0.915284157 0.344388902
vt 0.857501447 0.323999435
vt 0.903527796 0.323999405
vn -0 0 -1
vn -0 0 -1
vn -0 0 -1
vn -0 0 -1
vn -0 0 -1
vn -0 0 -1
vn -0 -1 0
vn -0 -1 0
vn -0 -1 0
vn -0 -1 0
vn -0 1 0
vn -0 1 0
vn -0 1 0
vn -0 1 0
vn -0 0 1
vn -0 0 1
vn -0 0 1
vn -0 0 1
vn -0 0 -1
vn -0 0 -1
vn -0 0 -1
vn -0 0 -1
vn -0 1 0
vn -0 1 0
vn -0 1 0
vn -0 1 0
vn -0 1 0
vn -0 1 0
vn 1 0 0
vn 1 0 0
vn 1 0 0
vn 1 0 0
vn 1 0 0
vn 1 0 0
vn -1 0 0
vn -1 0 0
vn -1 0 0
vn -1 0 0
vn -1 0 0
vn -1 0 0
vn -0 1 0
vn -0 1 0
vn -0 1 0
vn -0 1 0
vn -0 0 -1
vn -0 0 -1
vn -0 0 -1
vn -0 0 -1
vn -0.965935409 0 0.25878337
vn -1 0 0
vn -1 0 0
vn -0.965935409 0 0.25878337
vn -0.866062343 0 0.499935985
vn -0.866062343 0 0.499935985
vn 0.965935409 0 0.25878337
vn 1 0 0
vn 1 0 0
vn 0.965935409 0 0.25878337
vn 0.866062343 0 0.499935985
vn 0.866062343 0 0.499935985
vn -0 0 -1
vn -0 0 -1
vn -0 0 -1
vn -0 0 -1
vn -0 0 1
vn -0 0 1
vn -0 0 1
vn -0 0 1
vn 1 0 0
vn 1 0 0
vn 1 0 0
vn 1 0 0
vn -0 -1 0
vn -0 -1 0
vn -0 -1 0
vn -0 -1 0
vn -1 0 0
vn -1 0 0
vn -1 0 0
vn -1 0 0
vn -0 1 0
vn -0 1 0
vn -0 1 0
vn -0 1 0
vn -0 -1 0
vn -0 -1 0
vn -0 -1 0
vn -0 -1 0
vn -0 -1 0
vn -0 -1 0
g Model_0_0
f 3/3/3 2/2/2 1/1/1
f 6/6/6 5/5/5 4/4/4
f 9/9/9 8/8/8 7/7/7
f 10/10/10 9/9/9 7/7/7
f 13/13/13 12/12/12 11/11/11
f 14/14/14 13/13/13 11/11/11
f 17/17/17 16/16/16 15/15/15
f 18/18/18 17/17/17 15/15/15
f 21/21/21 20/20/20 19/19/19
f 22/22/22 21/21/21 19/19/19
f 25/25/25 24/24/24 23/23/23
f 23/23/23 26/26/26 25/25/25
f 23/23/23 27/27/27 26/26/26
f 27/27/27 28/28/28 26/26/26
f 31/31/31 30/30/30 29/29/29
f 29/29/29 32/32/32 31/31/31
f 32/32/32 33/33/33 31/31/31
f 32/32/32 34/34/34 33/33/33
f 37/37/37 36/36/36 35/35/35
f 38/38/38 37/37/37 35/35/35
f 35/35/35 39/39/39 38/38/38
f 39/39/39 35/35/35 40/40/40
f 43/43/43 42/42/42 41/41/41
f 44/44/44 43/43/43 41/41/41
f 47/47/47 46/46/46 45/45/45
f 48/48/48 47/47/47 45/45/45
f 51/51/51 50/50/50 49/49/49
f 52/52/52 51/51/51 49/49/49
f 49/49/49 53/53/53 52/52/52
f 53/53/53 54/54/54 52/52/52
f 57/57/57 56/56/56 55/55/55
f 58/58/58 57/57/57 55/55/55
f 55/55/55 59/59/59 58/58/58
f 59/59/59 60/60/60 58/58/58
f 63/63/63 62/62/62 61/61/61
f 64/64/64 63/63/63 61/61/61
f 67/67/67 66/66/66 65/65/65
f 68/68/68 67/67/67 65/65/65
f 71/71/71 70/70/70 69/69/69
f 72/72/72 71/71/71 69/69/69
f 75/75/75 74/74/74 73/73/73
f 76/76/76 75/75/75 73/73/73
f 79/79/79 78/78/78 77/77/77
f 80/80/80 79/79/79 77/77/77
f 83/83/83 82/82/82 81/81/81
f 84/84/84 83/83/83 81/81/81
f 87/87/87 86/86/86 85/85/85
f 85/85/85 88/88/88 87/87/87
f 85/85/85 89/89/89 88/88/88
f 89/89/89 90/90/90 88/88/88
