v -0.250000 -0.435173 1.405215
v -0.250000 -0.435173 1.000000
v -0.250000 0.435173 1.000000
v -0.250000 0.435173 1.405215
v -0.165469 -0.435173 1.551651
v -0.165469 0.435173 1.551651
v -0.250000 0.435173 1.405215
v -0.250000 0.435173 1.000000
v 0.250000 0.435173 1.000000
v 0.250000 0.435173 1.405215
v -0.165469 0.435173 1.551651
v 0.165469 0.435173 1.551651
v 0.250000 0.435173 1.405215
v 0.250000 0.435173 1.000000
v 0.250000 -0.435173 1.000000
v 0.250000 -0.435173 1.405215
v 0.165469 0.435173 1.551651
v 0.165469 -0.435173 1.551651
v 0.250000 -0.435173 1.405215
v 0.250000 -0.435173 1.000000
v -0.250000 -0.435173 1.000000
v -0.250000 -0.435173 1.405215
v 0.165469 -0.435173 1.551651
v -0.165469 -0.435173 1.551651
v -0.250000 -0.435173 1.000000
v 0.250000 -0.435173 1.000000
v 0.250000 0.435173 1.000000
v -0.250000 0.435173 1.000000
v 0.165469 -0.435173 1.551651
v -0.165469 -0.435173 1.551651
v -0.165469 0.435173 1.551651
v 0.165469 0.435173 1.551651
v 0.096251 0.096250 0.000000
v 0.096251 -0.096251 -0.000000
v 0.096250 -0.096251 1.000000
v 0.096251 0.096250 1.000000
v 0.096251 -0.096251 -0.000000
v -0.096251 -0.096251 -0.000000
v -0.096251 -0.096251 1.000000
v 0.096250 -0.096251 1.000000
v -0.096251 -0.096251 -0.000000
v -0.096251 0.096251 0.000000
v -0.096251 0.096250 1.000000
v -0.096251 -0.096251 1.000000
v 0.096251 0.096250 1.000000
v -0.096251 0.096250 1.000000
v -0.096251 0.096251 0.000000
v 0.096251 0.096250 0.000000
vt 0.743565977 0.323998988
vt 0.799718976 0.323998988
vt 0.799718976 0.202814996
vt 0.743565977 0.202814996
vt 0.722275019 0.323998988
vt 0.722275019 0.202814996
vt 0.730180025 0.344388992
vt 0.730180025 0.400810003
vt 0.799718976 0.400810003
vt 0.799718976 0.344388992
vt 0.741936028 0.323998988
vt 0.787962019 0.323998988
vt 0.855871975 0.202814996
vt 0.799718976 0.202814996
vt 0.799718976 0.323998988
vt 0.855871975 0.323998988
vt 0.877162993 0.202814996
vt 0.877162993 0.323998988
vt 0.845745027 0.344388992
vt 0.845745027 0.400810003
vt 0.915283978 0.400810003
vt 0.915283978 0.344388992
vt 0.85750097 0.323998988
vt 0.903527975 0.323998988
vt 0.946702003 0.202814996
vt 0.877162993 0.202814996
vt 0.877162993 0.323998988
vt 0.946702003 0.323998988
vt 0.799718976 0.445183992
vt 0.845745027 0.445183992
vt 0.845745027 0.323998988
vt 0.799718976 0.323998988
vt 0.339877993 0.324948996
vt 0.366649985 0.324948996
vt 0.366649985 0.186214
vt 0.339877993 0.186214
vt 0.339877993 0.168161005
vt 0.313104987 0.168161005
vt 0.313104987 0.307399005
vt 0.339877993 0.307399005
vt 0.393422991 0.0469769984
vt 0.366649985 0.0469769984
vt 0.366649985 0.185710996
vt 0.393422991 0.185710996
vt 0.339877993 0.186214
vt 0.366649985 0.186214
vt 0.366649985 0.0469769984
vt 0.339877993 0.0469769984
vn -0.965935 -0.000000 0.258785
vn -1.000000 0.000000 0.000000
vn -1.000000 0.000000 0.000000
vn -0.965935 -0.000000 0.258785
vn -0.866061 -0.000000 0.499939
vn -0.866061 -0.000000 0.499939
vn 0.000000 1.000000 0.000000
vn 0.000000 1.000000 0.000000
vn 0.000000 1.000000 0.000000
vn 0.000000 1.000000 0.000000
vn 0.000000 1.000000 0.000000
vn 0.000000 1.000000 0.000000
vn 0.965935 -0.000000 0.258785
vn 1.000000 0.000000 0.000000
vn 1.000000 0.000000 0.000000
vn 0.965935 -0.000000 0.258785
vn 0.866061 -0.000000 0.499939
vn 0.866061 -0.000000 0.499939
vn 0.000000 -1.000000 -0.000000
vn 0.000000 -1.000000 -0.000000
vn 0.000000 -1.000000 -0.000000
vn 0.000000 -1.000000 -0.000000
vn 0.000000 -1.000000 -0.000000
vn 0.000000 -1.000000 -0.000000
vn 0.000000 0.000000 -1.000000
vn 0.000000 0.000000 -1.000000
vn 0.000000 0.000000 -1.000000
vn 0.000000 0.000000 -1.000000
vn 0.000000 -0.000000 1.000000
vn 0.000000 -0.000000 1.000000
vn 0.000000 -0.000000 1.000000
vn 0.000000 -0.000000 1.000000
vn 1.000000 0.000000 0.000000
vn 1.000000 0.000000 0.000000
vn 1.000000 0.000000 0.000000
vn 1.000000 0.000000 0.000000
vn 0.000000 -1.000000 -0.000000
vn 0.000000 -1.000000 -0.000000
vn 0.000000 -1.000000 -0.000000
vn 0.000000 -1.000000 -0.000000
vn -1.000000 0.000000 0.000000
vn -1.000000 0.000000 0.000000
vn -1.000000 0.000000 0.000000
vn -1.000000 0.000000 0.000000
vn 0.000000 1.000000 0.000000
vn 0.000000 1.000000 0.000000
vn 0.000000 1.000000 0.000000
vn 0.000000 1.000000 0.000000
f 3/3/3 2/2/2 1/1/1
f 4/4/4 3/3/3 1/1/1
f 1/1/1 5/5/5 4/4/4
f 5/5/5 6/6/6 4/4/4
f 9/9/9 8/8/8 7/7/7
f 10/10/10 9/9/9 7/7/7
f 7/7/7 11/11/11 10/10/10
f 11/11/11 12/12/12 10/10/10
f 15/15/15 14/14/14 13/13/13
f 16/16/16 15/15/15 13/13/13
f 13/13/13 17/17/17 16/16/16
f 17/17/17 18/18/18 16/16/16
f 21/21/21 20/20/20 19/19/19
f 22/22/22 21/21/21 19/19/19
f 19/19/19 23/23/23 22/22/22
f 23/23/23 24/24/24 22/22/22
f 27/27/27 26/26/26 25/25/25
f 28/28/28 27/27/27 25/25/25
f 31/31/31 30/30/30 29/29/29
f 32/32/32 31/31/31 29/29/29
f 35/35/35 34/34/34 33/33/33
f 36/36/36 35/35/35 33/33/33
f 39/39/39 38/38/38 37/37/37
f 40/40/40 39/39/39 37/37/37
f 43/43/43 42/42/42 41/41/41
f 44/44/44 43/43/43 41/41/41
f 47/47/47 46/46/46 45/45/45
f 48/48/48 47/47/47 45/45/45
