g Model_0
v 0.048888 0.416715 0.292098
v 0.068361 0.049451 0.362468
v 0.009134 -0.023152 -0.000072
v -0.014064 0.347076 -0.075980
v 0.035046 0.757747 0.234592
v -0.032294 0.746169 -0.133138
v -0.326899 1.177979 0.291058
v -0.460157 1.462245 0.312132
v 0.039239 1.494504 0.210613
v 0.050598 1.130780 0.218163
v 0.470940 1.151151 0.131347
v 0.311697 1.390166 0.158525
v 0.403877 0.750855 0.163405
v 0.035046 0.757747 0.234592
v -0.332559 0.753644 0.299991
v 0.048888 0.416715 0.292098
v 0.417850 0.423568 0.229016
v 0.068361 0.049451 0.362468
v 0.437587 0.057173 0.300602
v -0.404545 0.377090 0.253401
v -0.332559 0.753644 0.299991
v -0.038435 0.377090 0.325063
v -0.405808 0.002637 0.252586
v -0.038437 0.002637 0.325066
v 0.750415 1.695010 0.061861
v 0.574347 2.070319 0.087193
v 0.500394 2.060393 -0.279751
v 0.676315 1.687652 -0.305122
v 0.400462 1.141377 -0.234510
v 0.235313 1.380273 -0.207929
v -0.023023 1.472426 -0.158358
v -0.023354 1.120853 -0.148780
v -0.032294 0.746169 -0.133138
v 0.335684 0.748696 -0.204663
v -0.400739 0.752071 -0.068220
v -0.395161 1.166073 -0.075785
v -0.532557 1.453382 -0.055153
v -0.395161 1.166073 -0.075785
v -0.326899 1.177979 0.291058
v -0.332559 0.753644 0.299991
v -0.400739 0.752071 -0.068220
v 0.025722 0.376636 -0.050757
v 0.034043 0.002637 -0.042305
v -0.038437 0.002637 0.325066
v -0.038435 0.377090 0.325063
v -0.032294 0.746169 -0.133138
v 0.035046 0.757747 0.234592
v 0.311697 1.390166 0.158525
v -0.023023 1.472426 -0.158358
v 0.235313 1.380273 -0.207929
v 0.039239 1.494504 0.210613
v -0.532557 1.453382 -0.055153
v -0.460157 1.462245 0.312132
v 0.335684 0.748696 -0.204663
v 0.403877 0.750855 0.163405
v 0.470940 1.151151 0.131347
v 0.400462 1.141377 -0.234510
v -0.482474 1.129474 -0.056484
v -0.348007 0.771926 -0.073912
v -0.274055 0.781853 0.293031
v -0.409083 1.139439 0.310571
v -0.333328 0.002637 -0.114785
v -0.405808 0.002637 0.252586
v -0.038437 0.002637 0.325066
v 0.034043 0.002637 -0.042305
v -0.334192 0.377090 -0.114192
v -0.333328 0.002637 -0.114785
v 0.034043 0.002637 -0.042305
v 0.025722 0.376636 -0.050757
v -0.400739 0.752071 -0.068220
v -0.032294 0.746169 -0.133138
v 0.358608 0.352143 -0.133181
v 0.335684 0.748696 -0.204663
v -0.014064 0.347076 -0.075980
v 0.378360 -0.015430 -0.061938
v 0.009134 -0.023152 -0.000072
v -0.404545 0.377090 0.253401
v -0.405808 0.002637 0.252586
v -0.333328 0.002637 -0.114785
v -0.334192 0.377090 -0.114192
v -0.332559 0.753644 0.299991
v -0.400739 0.752071 -0.068220
v 0.009134 -0.023152 -0.000072
v 0.068361 0.049451 0.362468
v 0.437587 0.057173 0.300602
v 0.378360 -0.015430 -0.061938
v 0.358608 0.352143 -0.133181
v 0.378360 -0.015430 -0.061938
v 0.437587 0.057173 0.300602
v 0.417850 0.423568 0.229016
v 0.335684 0.748696 -0.204663
v 0.403877 0.750855 0.163405
v -0.696703 0.656859 -0.000524
v -0.622750 0.666786 0.366419
v -0.274055 0.781853 0.293031
v -0.348007 0.771926 -0.073912
v -0.734549 1.036790 0.378941
v -0.622750 0.666786 0.366419
v -0.696703 0.656859 -0.000524
v -0.808625 1.026275 0.012039
v -0.409083 1.139439 0.310571
v -0.274055 0.781853 0.293031
v -0.622750 0.666786 0.366419
v -0.734549 1.036790 0.378941
v -0.326899 1.177979 0.291058
v -0.460157 1.462245 0.312132
v -0.808625 1.026275 0.012039
v -0.696703 0.656859 -0.000524
v -0.348007 0.771926 -0.073912
v -0.482474 1.129474 -0.056484
v -0.532557 1.453382 -0.055153
v -0.395161 1.166073 -0.075785
v 0.500394 2.060393 -0.279751
v 0.574347 2.070319 0.087193
v 0.250866 1.895147 0.157125
v 0.176913 1.885221 -0.209819
v 0.350721 1.566013 -0.236212
v 0.176913 1.885221 -0.209819
v 0.250866 1.895147 0.157125
v 0.424689 1.576552 0.130712
v 0.424689 1.576552 0.130712
v 0.250866 1.895147 0.157125
v 0.574347 2.070319 0.087193
v 0.750415 1.695010 0.061861
v 0.311697 1.390166 0.158525
v 0.470940 1.151151 0.131347
v 0.676315 1.687652 -0.305122
v 0.500394 2.060393 -0.279751
v 0.176913 1.885221 -0.209819
v 0.350721 1.566013 -0.236212
v 0.400462 1.141377 -0.234510
v 0.235313 1.380273 -0.207929
v 0.470940 1.151151 0.131347
v 0.750415 1.695010 0.061861
v 0.676315 1.687652 -0.305122
v 0.400462 1.141377 -0.234510
v 0.235313 1.380273 -0.207929
v 0.350721 1.566013 -0.236212
v 0.424689 1.576552 0.130712
v 0.311697 1.390166 0.158525
v -0.395161 1.166073 -0.075785
v -0.482474 1.129474 -0.056484
v -0.409083 1.139439 0.310571
v -0.326899 1.177979 0.291058
v -0.460157 1.462245 0.312132
v -0.734549 1.036790 0.378941
v -0.808625 1.026275 0.012039
v -0.532557 1.453382 -0.055153
v -0.056174 1.436758 0.114414
v -0.021722 1.590158 0.087328
v 0.172710 1.545939 0.084199
v 0.138258 1.392539 0.111284
v 0.127742 1.360205 -0.085218
v 0.162193 1.513605 -0.112303
v -0.032239 1.557824 -0.109174
v -0.066691 1.404424 -0.082088
v 0.138258 1.392539 0.111284
v 0.172710 1.545939 0.084199
v 0.162193 1.513605 -0.112303
v 0.127742 1.360205 -0.085218
v -0.066691 1.404424 -0.082088
v -0.032239 1.557824 -0.109174
v -0.021722 1.590158 0.087328
v -0.056174 1.436758 0.114414
v -0.113680 1.628435 0.187144
v -0.027552 2.011936 0.119431
v 0.361313 1.923497 0.113171
v 0.275184 1.539996 0.180885
v -0.027552 2.011936 0.119431
v -0.048585 1.947268 -0.273573
v 0.340280 1.858830 -0.279833
v 0.361313 1.923497 0.113171
v 0.254151 1.475329 -0.212119
v 0.340280 1.858830 -0.279833
v -0.048585 1.947268 -0.273573
v -0.134714 1.563767 -0.205860
v 0.275184 1.539996 0.180885
v 0.361313 1.923497 0.113171
v 0.340280 1.858830 -0.279833
v 0.254151 1.475329 -0.212119
v -0.134714 1.563767 -0.205860
v -0.048585 1.947268 -0.273573
v -0.027552 2.011936 0.119431
v -0.113680 1.628435 0.187144
v 0.162193 1.513605 -0.112303
v -0.134714 1.563767 -0.205860
v -0.032239 1.557824 -0.109174
v 0.254151 1.475329 -0.212119
v -0.113680 1.628435 0.187144
v 0.172710 1.545939 0.084199
v -0.021722 1.590158 0.087328
v 0.275184 1.539996 0.180885
vt 0.749759972 0.62559402
vt 0.749759972 0.504598975
vt 0.627025008 0.504598975
vt 0.627025008 0.62559402
vt 0.749759972 0.746594012
vt 0.627025008 0.746594012
vt 0.00274499995 0.876003027
vt 0.00274499995 0.999845982
vt 0.124831997 0.999845982
vt 0.124831997 0.876003027
vt 0.246921003 0.876003027
vt 0.246921003 0.999845982
vt 0.246921003 0.752161026
vt 0.124831997 0.752161026
vt 0.00274499995 0.752161026
vt 0.124178998 0.627031028
vt 0.246937007 0.627031028
vt 0.124178998 0.502508998
vt 0.246937007 0.502508998
vt 0.00142300001 0.627031028
vt 0.00142300001 0.751551986
vt 0.124178998 0.627031028
vt 0.00142300001 0.502508998
vt 0.124178998 0.502508998
vt 0.874839008 0.375560999
vt 0.874839008 0.253484994
vt 0.751008987 0.253484994
vt 0.751008987 0.375560999
vt 0.25335601 0.875532985
vt 0.25335601 0.998539984
vt 0.374621987 0.998539984
vt 0.374621987 0.875532985
vt 0.374621987 0.752521992
vt 0.25335601 0.752524972
vt 0.495885998 0.752524972
vt 0.495885998 0.875532985
vt 0.495885998 0.998539984
vt 0.502134025 0.873207986
vt 0.623013973 0.873207986
vt 0.623013973 0.754041016
vt 0.502134025 0.754041016
vt 0.873924017 0.625401974
vt 0.873920023 0.504927993
vt 0.751717985 0.504927993
vt 0.751713991 0.625401974
vt 0.873920023 0.745878994
vt 0.751717985 0.745878994
vt 0.123580001 0.244859993
vt 0.00248900009 0.125484005
vt 0.00248900009 0.244859993
vt 0.123580001 0.125484005
vt 0.00248900009 0.00610999996
vt 0.123580001 0.00610999996
vt 0.623721004 0.877111971
vt 0.501308978 0.877111971
vt 0.501308978 0.997792006
vt 0.623721004 0.997792006
vt 0.998987019 0.375317991
vt 0.998983979 0.252885014
vt 0.874792993 0.252885014
vt 0.874792993 0.375317991
vt 0.254110992 0.00206100009
vt 0.254110992 0.121922001
vt 0.372272998 0.121922001
vt 0.372272998 0.00206100009
vt 0.497014999 0.625562012
vt 0.497014999 0.50245899
vt 0.375654012 0.50245899
vt 0.375654012 0.625564992
vt 0.497014999 0.748670995
vt 0.375654012 0.748667002
vt 0.254292011 0.625564992
vt 0.254292011 0.748670995
vt 0.375654012 0.625564992
vt 0.254292011 0.50245899
vt 0.375654012 0.50245899
vt 0.999117017 0.625513017
vt 0.999117017 0.503001988
vt 0.874844015 0.503001988
vt 0.874844015 0.625513017
vt 0.999117017 0.74802798
vt 0.874844015 0.74802798
vt 0.25019899 0.128158003
vt 0.25019899 0.248321995
vt 0.372090012 0.248321995
vt 0.372090012 0.128158003
vt 0.625698984 0.625527978
vt 0.625698984 0.502330005
vt 0.500729978 0.502330005
vt 0.500729978 0.625527978
vt 0.625698984 0.748730004
vt 0.500729978 0.748730004
vt 0.128805995 0.123650998
vt 0.248264 0.123650998
vt 0.248264 0.00247499999
vt 0.128805995 0.00247499999
vt 0.25039801 0.375705004
vt 0.25039801 0.252730995
vt 0.125657007 0.252730995
vt 0.125657007 0.375705004
vt 0.500325024 0.375066012
vt 0.500321984 0.252535999
vt 0.376035005 0.252535999
vt 0.376035005 0.375066012
vt 0.500325024 0.497593999
vt 0.376035005 0.497593999
vt 0.750451028 0.376006991
vt 0.750451028 0.253832996
vt 0.626523018 0.253832996
vt 0.626523018 0.376006991
vt 0.750451028 0.498178989
vt 0.626523018 0.498178989
vt 0.250589013 0.127150998
vt 0.127932996 0.127150998
vt 0.127932996 0.248063996
vt 0.250589013 0.248063996
vt 0.124007002 0.374502987
vt 0.124007002 0.254489988
vt 0.00226800004 0.254489988
vt 0.00226800004 0.374502987
vt 0.375092 0.374969989
vt 0.375092 0.252743006
vt 0.251107007 0.252743006
vt 0.251107007 0.374969989
vt 0.375092 0.497198999
vt 0.251107007 0.497198999
vt 0.625232995 0.376130998
vt 0.625232995 0.254159987
vt 0.501509011 0.254159987
vt 0.501509011 0.376130998
vt 0.625232995 0.498102993
vt 0.501509011 0.498102993
vt 0.874839008 0.497640014
vt 0.874839008 0.375560999
vt 0.751008987 0.375560999
vt 0.751008987 0.497640014
vt 0.124007002 0.494518012
vt 0.124007002 0.374502987
vt 0.00226800004 0.374502987
vt 0.00226800004 0.494518012
vt 0.998987019 0.497754991
vt 0.998987019 0.375317991
vt 0.874792993 0.375317991
vt 0.874792993 0.497754991
vt 0.25039801 0.498677999
vt 0.25039801 0.375705004
vt 0.125657007 0.375705004
vt 0.125657007 0.498677999
vt 0.374251008 0.193361998
vt 0.374251008 0.244286001
vt 0.437004 0.244286001
vt 0.437004 0.193361998
vt 0.438921005 0.194505006
vt 0.438921005 0.243092999
vt 0.498795003 0.243092999
vt 0.498795003 0.194505006
vt 0.37766999 0.132180005
vt 0.37766999 0.180528998
vt 0.437249988 0.180528998
vt 0.437249988 0.132180005
vt 0.438131988 0.132097006
vt 0.438131988 0.181078002
vt 0.498490989 0.181078002
vt 0.498490989 0.132097006
vt 0.751438975 0.877273977
vt 0.751439989 0.997564971
vt 0.873459995 0.997564971
vt 0.873459995 0.877273977
vt 0.628647029 0.876284003
vt 0.628647029 0.998236001
vt 0.748870015 0.998236001
vt 0.748870015 0.876284003
vt 0.877098024 0.877044976
vt 0.877098024 0.998090982
vt 0.99642998 0.998090982
vt 0.99642998 0.877044976
vt 0.753032982 0.751630008
vt 0.753032982 0.872873008
vt 0.872560978 0.872873008
vt 0.872560978 0.751630008
vt 0.875391006 0.751788974
vt 0.875391006 0.873342991
vt 0.998691976 0.873342991
vt 0.998691976 0.751788974
vt 0.717388988 0.782422006
vt 0.627308011 0.75195998
vt 0.657334983 0.782422006
vt 0.747416973 0.75195998
vt 0.627308011 0.87379998
vt 0.717388988 0.843338013
vt 0.657334983 0.843338013
vt 0.747416973 0.87379998
vn -0.984791 -0.019405 0.172659
vn -0.985282 -0.023423 0.169326
vn -0.985282 -0.023423 0.169326
vn -0.984791 -0.019405 0.172659
vn -0.984272 -0.015387 0.175987
vn -0.984272 -0.015387 0.175987
vn 0.193661 0.025561 0.980735
vn 0.198536 0.025160 0.979771
vn 0.197395 0.023841 0.980034
vn 0.193552 0.028650 0.980672
vn 0.198207 0.029422 0.979719
vn 0.199556 0.023855 0.979596
vn 0.186223 0.113293 0.975954
vn 0.137394 0.078411 0.987408
vn 0.087946 0.043162 0.995190
vn 0.167934 0.190596 0.967198
vn 0.167934 0.190596 0.967198
vn 0.159902 0.195753 0.967529
vn 0.159902 0.195753 0.967529
vn -0.101321 0.029544 0.994415
vn 0.087946 0.043162 0.995190
vn -0.101321 0.029544 0.994415
vn -0.192829 -0.000738 0.981232
vn -0.192829 -0.000738 0.981232
vn 0.883660 0.428566 -0.188351
vn 0.883660 0.428566 -0.188351
vn 0.883660 0.428566 -0.188351
vn 0.883660 0.428566 -0.188351
vn -0.195965 -0.031122 -0.980117
vn -0.197172 -0.026922 -0.979999
vn -0.196948 -0.026032 -0.980068
vn -0.193064 -0.029273 -0.980749
vn -0.137649 -0.070345 -0.987980
vn -0.180756 -0.102866 -0.978134
vn -0.094031 -0.037541 -0.994861
vn -0.193516 -0.025833 -0.980757
vn -0.197870 -0.025996 -0.979883
vn -0.983122 0.016764 0.182181
vn -0.983122 0.016764 0.182181
vn -0.995867 0.012237 0.089997
vn -0.995867 0.012237 0.089997
vn 0.996038 -0.004290 0.088829
vn 0.983435 0.012973 0.180798
vn 0.983435 0.012973 0.180798
vn 0.996038 -0.004290 0.088829
vn 0.999761 -0.021516 -0.003932
vn 0.999761 -0.021516 -0.003932
vn 0.327975 0.939092 -0.102656
vn 0.138158 0.988044 -0.068426
vn 0.327975 0.939092 -0.102656
vn 0.138158 0.988044 -0.068426
vn -0.057130 0.997870 -0.031486
vn -0.057130 0.997870 -0.031486
vn 0.980903 -0.079207 -0.177641
vn 0.980903 -0.079207 -0.177641
vn 0.930377 -0.323467 -0.172533
vn 0.930377 -0.323467 -0.172533
vn 0.914961 0.354249 -0.193270
vn 0.914961 0.354249 -0.193270
vn 0.914961 0.354249 -0.193270
vn 0.914961 0.354249 -0.193270
vn 0.000000 -1.000000 0.000000
vn 0.000000 -1.000000 0.000000
vn 0.000000 -1.000000 0.000000
vn 0.000000 -1.000000 0.000000
vn 0.091030 -0.028793 -0.995432
vn 0.183689 -0.008067 -0.982951
vn 0.183689 -0.008067 -0.982951
vn 0.091030 -0.028793 -0.995432
vn -0.094031 -0.037541 -0.994861
vn -0.137649 -0.070345 -0.987980
vn -0.159543 -0.183836 -0.969923
vn -0.180756 -0.102866 -0.978134
vn -0.159543 -0.183836 -0.969923
vn -0.151809 -0.201818 -0.967586
vn -0.151809 -0.201818 -0.967586
vn -0.995246 0.004261 -0.097305
vn -0.981634 0.000882 -0.190771
vn -0.981634 0.000882 -0.190771
vn -0.995246 0.004261 -0.097305
vn -0.995867 0.012237 0.089997
vn -0.995867 0.012237 0.089997
vn 0.052000 -0.980806 0.187923
vn 0.052000 -0.980806 0.187923
vn 0.052000 -0.980806 0.187923
vn 0.052000 -0.980806 0.187923
vn 0.985353 0.019098 -0.169453
vn 0.986018 0.020877 -0.165328
vn 0.986018 0.020877 -0.165328
vn 0.985353 0.019098 -0.169453
vn 0.980903 -0.079207 -0.177641
vn 0.980903 -0.079207 -0.177641
vn 0.306327 -0.951245 -0.036002
vn 0.306327 -0.951245 -0.036002
vn 0.306327 -0.951245 -0.036002
vn 0.306327 -0.951245 -0.036002
vn -0.936521 -0.290039 0.196992
vn -0.936521 -0.290039 0.196992
vn -0.936521 -0.290039 0.196992
vn -0.936521 -0.290039 0.196992
vn 0.199579 0.026841 0.979514
vn 0.197495 0.026509 0.979945
vn 0.197495 0.026509 0.979945
vn 0.199579 0.026841 0.979514
vn 0.193661 0.025561 0.980735
vn 0.198536 0.025160 0.979771
vn -0.198267 -0.026630 -0.979786
vn -0.197495 -0.026509 -0.979945
vn -0.197495 -0.026509 -0.979945
vn -0.198267 -0.026630 -0.979786
vn -0.197870 -0.025996 -0.979883
vn -0.193516 -0.025833 -0.980757
vn -0.463376 0.883433 0.069491
vn -0.463376 0.883433 0.069491
vn -0.463376 0.883433 0.069491
vn -0.463376 0.883433 0.069491
vn -0.856169 -0.482051 0.186015
vn -0.856169 -0.482051 0.186015
vn -0.856169 -0.482051 0.186015
vn -0.856169 -0.482051 0.186015
vn 0.198613 0.024843 0.979763
vn 0.197496 0.026509 0.979945
vn 0.197496 0.026509 0.979945
vn 0.198613 0.024843 0.979763
vn 0.199556 0.023855 0.979596
vn 0.198207 0.029422 0.979719
vn -0.197322 -0.026766 -0.979973
vn -0.197495 -0.026510 -0.979945
vn -0.197495 -0.026510 -0.979945
vn -0.197322 -0.026766 -0.979973
vn -0.195965 -0.031122 -0.980117
vn -0.197172 -0.026922 -0.979999
vn 0.930377 -0.323467 -0.172533
vn 0.870909 -0.464338 -0.160962
vn 0.870909 -0.464338 -0.160962
vn 0.930377 -0.323467 -0.172533
vn -0.831271 0.533659 0.155553
vn -0.831271 0.533659 0.155553
vn -0.831271 0.533659 0.155553
vn -0.831271 0.533659 0.155553
vn 0.395387 -0.917208 -0.048982
vn 0.395387 -0.917208 -0.048982
vn 0.395387 -0.917208 -0.048982
vn 0.395387 -0.917208 -0.048982
vn -0.819897 0.552786 0.148986
vn -0.819897 0.552786 0.148986
vn -0.819897 0.552786 0.148986
vn -0.819897 0.552786 0.148986
vn 0.052735 0.162139 0.985358
vn 0.052735 0.162139 0.985358
vn 0.052735 0.162139 0.985358
vn 0.052735 0.162139 0.985358
vn -0.052734 -0.162139 -0.985358
vn -0.052734 -0.162139 -0.985358
vn -0.052734 -0.162139 -0.985358
vn -0.052734 -0.162139 -0.985358
vn 0.974980 -0.221738 -0.015693
vn 0.974980 -0.221738 -0.015693
vn 0.974980 -0.221738 -0.015693
vn 0.974980 -0.221738 -0.015693
vn -0.974979 0.221741 0.015695
vn -0.974979 0.221741 0.015695
vn -0.974979 0.221741 0.015695
vn -0.974979 0.221741 0.015695
vn 0.052736 0.162138 0.985358
vn 0.052736 0.162138 0.985358
vn 0.052736 0.162138 0.985358
vn 0.052736 0.162138 0.985358
vn 0.215946 0.961532 -0.169774
vn 0.215946 0.961532 -0.169774
vn 0.215946 0.961532 -0.169774
vn 0.215946 0.961532 -0.169774
vn -0.052735 -0.162138 -0.985358
vn -0.052735 -0.162138 -0.985358
vn -0.052735 -0.162138 -0.985358
vn -0.052735 -0.162138 -0.985358
vn 0.974980 -0.221738 -0.015694
vn 0.974980 -0.221738 -0.015694
vn 0.974980 -0.221738 -0.015694
vn 0.974980 -0.221738 -0.015694
vn -0.974980 0.221737 0.015694
vn -0.974980 0.221737 0.015694
vn -0.974980 0.221737 0.015694
vn -0.974980 0.221737 0.015694
vn -0.215945 -0.961533 0.169772
vn -0.215947 -0.961532 0.169773
vn -0.215947 -0.961532 0.169773
vn -0.215945 -0.961533 0.169772
vn -0.215948 -0.961532 0.169775
vn -0.215946 -0.961532 0.169774
vn -0.215948 -0.961532 0.169775
vn -0.215946 -0.961532 0.169774
g Model_0_0
f 3/3/3 2/2/2 1/1/1
f 4/4/4 3/3/3 1/1/1
f 4/4/4 1/1/1 5/5/5
f 6/6/6 4/4/4 5/5/5
f 9/9/9 8/8/8 7/7/7
f 10/10/10 9/9/9 7/7/7
f 9/9/9 10/10/10 11/11/11
f 12/12/12 9/9/9 11/11/11
f 11/11/11 10/10/10 13/13/13
f 10/10/10 7/7/7 14/14/14
f 10/10/10 14/14/14 13/13/13
f 7/7/7 15/15/15 14/14/14
f 14/14/14 16/16/16 13/13/13
f 16/16/16 17/17/17 13/13/13
f 16/16/16 18/18/18 17/17/17
f 18/18/18 19/19/19 17/17/17
f 21/21/21 20/20/20 14/14/14
f 20/20/20 22/22/22 14/14/14
f 20/20/20 23/23/23 22/22/22
f 23/23/23 24/24/24 22/22/22
f 27/27/27 26/26/26 25/25/25
f 28/28/28 27/27/27 25/25/25
f 31/31/31 30/30/30 29/29/29
f 32/32/32 31/31/31 29/29/29
f 32/32/32 29/29/29 33/33/33
f 29/29/29 34/34/34 33/33/33
f 32/32/32 33/33/33 35/35/35
f 36/36/36 32/32/32 35/35/35
f 31/31/31 32/32/32 36/36/36
f 37/37/37 31/31/31 36/36/36
f 40/40/40 39/39/39 38/38/38
f 41/41/41 40/40/40 38/38/38
f 44/44/44 43/43/43 42/42/42
f 45/45/45 44/44/44 42/42/42
f 45/45/45 42/42/42 46/46/46
f 47/47/47 45/45/45 46/46/46
f 50/50/50 49/49/49 48/48/48
f 49/49/49 51/51/51 48/48/48
f 51/51/51 49/49/49 52/52/52
f 53/53/53 51/51/51 52/52/52
f 56/56/56 55/55/55 54/54/54
f 57/57/57 56/56/56 54/54/54
f 60/60/60 59/59/59 58/58/58
f 61/61/61 60/60/60 58/58/58
f 64/64/64 63/63/63 62/62/62
f 65/65/65 64/64/64 62/62/62
f 68/68/68 67/67/67 66/66/66
f 69/69/69 68/68/68 66/66/66
f 69/69/69 66/66/66 70/70/70
f 71/71/71 69/69/69 70/70/70
f 73/73/73 72/72/72 71/71/71
f 72/72/72 74/74/74 71/71/71
f 72/72/72 75/75/75 74/74/74
f 75/75/75 76/76/76 74/74/74
f 79/79/79 78/78/78 77/77/77
f 80/80/80 79/79/79 77/77/77
f 80/80/80 77/77/77 81/81/81
f 82/82/82 80/80/80 81/81/81
f 85/85/85 84/84/84 83/83/83
f 86/86/86 85/85/85 83/83/83
f 89/89/89 88/88/88 87/87/87
f 90/90/90 89/89/89 87/87/87
f 90/90/90 87/87/87 91/91/91
f 92/92/92 90/90/90 91/91/91
f 95/95/95 94/94/94 93/93/93
f 96/96/96 95/95/95 93/93/93
f 99/99/99 98/98/98 97/97/97
f 100/100/100 99/99/99 97/97/97
f 103/103/103 102/102/102 101/101/101
f 104/104/104 103/103/103 101/101/101
f 104/104/104 101/101/101 105/105/105
f 106/106/106 104/104/104 105/105/105
f 109/109/109 108/108/108 107/107/107
f 110/110/110 109/109/109 107/107/107
f 110/110/110 107/107/107 111/111/111
f 112/112/112 110/110/110 111/111/111
f 115/115/115 114/114/114 113/113/113
f 116/116/116 115/115/115 113/113/113
f 119/119/119 118/118/118 117/117/117
f 120/120/120 119/119/119 117/117/117
f 123/123/123 122/122/122 121/121/121
f 124/124/124 123/123/123 121/121/121
f 124/124/124 121/121/121 125/125/125
f 126/126/126 124/124/124 125/125/125
f 129/129/129 128/128/128 127/127/127
f 130/130/130 129/129/129 127/127/127
f 130/130/130 127/127/127 131/131/131
f 132/132/132 130/130/130 131/131/131
f 135/135/135 134/134/134 133/133/133
f 136/136/136 135/135/135 133/133/133
f 139/139/139 138/138/138 137/137/137
f 140/140/140 139/139/139 137/137/137
f 143/143/143 142/142/142 141/141/141
f 144/144/144 143/143/143 141/141/141
f 147/147/147 146/146/146 145/145/145
f 148/148/148 147/147/147 145/145/145
f 151/151/151 150/150/150 149/149/149
f 152/152/152 151/151/151 149/149/149
f 155/155/155 154/154/154 153/153/153
f 156/156/156 155/155/155 153/153/153
f 159/159/159 158/158/158 157/157/157
f 160/160/160 159/159/159 157/157/157
f 163/163/163 162/162/162 161/161/161
f 164/164/164 163/163/163 161/161/161
f 167/167/167 166/166/166 165/165/165
f 168/168/168 167/167/167 165/165/165
f 171/171/171 170/170/170 169/169/169
f 172/172/172 171/171/171 169/169/169
f 175/175/175 174/174/174 173/173/173
f 176/176/176 175/175/175 173/173/173
f 179/179/179 178/178/178 177/177/177
f 180/180/180 179/179/179 177/177/177
f 183/183/183 182/182/182 181/181/181
f 184/184/184 183/183/183 181/181/181
f 187/187/187 186/186/186 185/185/185
f 186/186/186 188/188/188 185/185/185
f 189/189/189 186/186/186 187/187/187
f 185/185/185 188/188/188 190/190/190
f 191/191/191 189/189/189 187/187/187
f 188/188/188 192/192/192 190/190/190
f 192/192/192 189/189/189 191/191/191
f 190/190/190 192/192/192 191/191/191