v -7.999998 6.000000 2.750000
v -7.999998 5.500000 0.000000
v -7.999998 6.000000 0.000000
v -7.999998 5.500000 2.750000
v 12.000000 -6.000000 -6.000000
v 12.000006 5.999996 0.000000
v 12.000000 6.000000 -6.000000
v 11.999992 -6.000004 4.250000
v 12.000006 5.999996 4.250000
v -3.499994 5.499996 3.750000
v -3.499994 5.999996 1.000000
v -3.499994 5.999996 3.750000
v -3.499994 5.499996 1.000000
v 11.500006 5.499996 4.250000
v 11.499992 -5.500004 -0.000000
v 11.500006 5.499996 0.000000
v 11.499992 -5.500004 4.250000
v -3.499994 5.999996 1.000000
v -6.999998 5.500000 1.000000
v -6.999998 6.000000 1.000000
v -3.499994 5.499996 1.000000
v 9.500006 5.499996 3.750000
v 9.500006 5.999996 0.000000
v 9.500006 5.999996 3.750000
v 9.500006 5.499996 0.000000
v 2.500006 5.999996 3.750000
v 2.500006 5.499996 0.000000
v 2.500006 5.999996 0.000000
v 2.500006 5.499996 3.750000
v -1.499994 5.999996 3.750000
v -1.499994 5.499996 0.000000
v -1.499994 5.499996 3.750000
v -1.499994 5.999996 0.000000
v -11.500004 -1.999998 2.750000
v -12.000004 -1.999998 -0.000000
v -12.000004 -1.999998 2.750000
v -11.500004 -1.999998 -0.000000
v -12.000004 -4.500000 2.750000
v -11.500004 -4.500000 -0.000000
v -11.500004 -4.500000 2.750000
v -12.000004 -4.500000 -0.000000
v 5.500006 5.999996 3.750000
v 5.500006 5.499996 0.000000
v 5.500006 5.499996 3.750000
v 5.500006 5.999996 0.000000
v -6.999998 6.000000 3.750000
v -6.999998 5.500000 1.000000
v -6.999998 5.500000 3.750000
v -6.999998 6.000000 1.000000
v -11.500004 -5.500000 -0.000000
v 11.499992 -5.500004 4.250000
v -11.500004 -5.500000 4.250000
v 11.499992 -5.500004 -0.000000
v -10.499998 6.000000 2.750000
v -10.499998 5.500000 0.000000
v -10.499998 5.500000 2.750000
v -10.499998 6.000000 0.000000
v -1.499994 5.999996 3.750000
v 3.916666 5.999996 7.250000
v -3.499994 5.999996 3.750000
v -3.499994 5.999996 1.000000
v -1.499994 5.999996 0.000000
v -7.999998 6.000000 0.000000
v -6.999998 6.000000 1.000000
v -7.999998 6.000000 2.750000
v -6.999998 6.000000 3.750000
v 3.916666 5.999996 7.250000
v 2.500006 5.999996 3.750000
v -10.499998 6.000000 2.750000
v -11.999998 6.000000 4.250000
v -11.999998 6.000000 0.000000
v -10.499998 6.000000 0.000000
v -11.999995 6.000002 -6.000000
v 12.000000 6.000000 -6.000000
v 2.500006 5.999996 0.000000
v 5.500006 5.999996 3.750000
v 5.500006 5.999996 0.000000
v 2.500006 5.999996 0.000000
v 9.500006 5.999996 0.000000
v 12.000006 5.999996 0.000000
v 9.500006 5.999996 3.750000
v 12.000006 5.999996 4.250000
v -12.000004 -4.500000 2.750000
v -11.500004 -1.999998 2.750000
v -12.000004 -1.999998 2.750000
v -11.500004 -4.500000 2.750000
v -10.499998 6.000000 2.750000
v -7.999998 5.500000 2.750000
v -7.999998 6.000000 2.750000
v -10.499998 5.500000 2.750000
v -6.999998 5.500000 3.750000
v -3.499994 5.999996 3.750000
v -6.999998 6.000000 3.750000
v -3.499994 5.499996 3.750000
v -1.499994 5.499996 3.750000
v 2.500006 5.999996 3.750000
v -1.499994 5.999996 3.750000
v 2.500006 5.499996 3.750000
v 5.500006 5.499996 3.750000
v 9.500006 5.999996 3.750000
v 5.500006 5.999996 3.750000
v 9.500006 5.499996 3.750000
v 3.916666 -6.000004 7.250000
v 11.999992 -6.000004 4.750000
v 11.999992 -6.000004 4.250000
v 3.916666 -6.000004 7.750000
v -12.000004 -6.000000 4.750000
v -12.000004 -6.000000 4.250000
v 3.916666 5.999996 7.250000
v -11.999998 6.000000 4.750000
v -11.999998 6.000000 4.250000
v 3.916666 5.999996 7.750000
v 12.000006 5.999996 4.750000
v 12.000006 5.999996 4.250000
v 12.000006 5.999996 4.250000
v 11.999992 -6.000004 4.750000
v 12.000006 5.999996 4.750000
v 11.999992 -6.000004 4.250000
v -11.999998 6.000000 4.750000
v -12.000004 -6.000000 4.250000
v -11.999998 6.000000 4.250000
v -12.000004 -6.000000 4.750000
v -11.500004 -1.999998 2.750000
v -11.499998 5.500000 0.000000
v -11.500004 -1.999998 -0.000000
v -11.499998 5.500000 4.250000
v -11.500004 -5.500000 4.250000
v -11.500004 -4.500000 2.750000
v -11.500004 -5.500000 -0.000000
v -11.500004 -4.500000 -0.000000
v -11.999995 6.000002 -6.000000
v -11.999998 6.000000 0.000000
v -12.000002 -1.999998 -6.000000
v -12.000004 -1.999998 -0.000000
v -12.000004 -4.500000 -0.000000
v -12.000002 -6.000000 -6.000000
v -12.000004 -6.000000 -0.000000
v -12.000004 -4.500000 2.750000
v -12.000004 -6.000000 4.250000
v -12.000004 -1.999998 2.750000
v -11.999998 6.000000 4.250000
v 9.500006 5.499996 0.000000
v 9.500006 5.499996 3.750000
v 11.500006 5.499996 0.000000
v 11.500006 5.499996 4.250000
v 5.500006 5.499996 3.750000
v 11.500006 5.499996 4.250000
v 2.500006 5.499996 3.750000
v -3.499994 5.499996 4.250000
v 5.500006 5.499996 3.750000
v 2.500006 5.499996 0.000000
v 5.500006 5.499996 0.000000
v -3.499994 5.499996 4.250000
v 11.500006 5.499996 4.250000
v -1.499994 5.499996 3.750000
v 2.500006 5.499996 3.750000
v -3.499994 5.499996 3.750000
v -6.999998 5.500000 4.250000
v -3.499994 5.499996 1.000000
v -1.499994 5.499996 0.000000
v -7.999998 5.500000 0.000000
v -6.999998 5.500000 1.000000
v -7.999998 5.500000 2.750000
v -6.999998 5.500000 3.750000
v -10.499998 5.500000 2.750000
v -11.499998 5.500000 4.250000
v -11.499998 5.500000 0.000000
v -10.499998 5.500000 0.000000
v -7.999998 5.500000 0.000000
v -10.499998 6.000000 0.000000
v -7.999998 6.000000 0.000000
v -10.499998 5.500000 0.000000
v -11.500004 -1.999998 -0.000000
v -11.499998 5.500000 0.000000
v -1.499994 5.499996 0.000000
v -11.500004 -4.500000 -0.000000
v -12.000004 -4.500000 -0.000000
v -12.000004 -1.999998 -0.000000
v -11.500004 -5.500000 -0.000000
v 11.499992 -5.500004 -0.000000
v 2.500006 5.499996 0.000000
v 2.500006 5.999996 0.000000
v -1.499994 5.999996 0.000000
v 5.500006 5.499996 0.000000
v 9.500006 5.499996 0.000000
v 11.500006 5.499996 0.000000
v 9.500006 5.999996 0.000000
v 5.500006 5.999996 0.000000
v 11.500006 5.499996 4.250000
v -3.499994 5.499996 4.250000
v 11.499992 -5.500004 4.250000
v -11.500004 -5.500000 4.250000
v -6.999998 5.500000 4.250000
v -11.499998 5.500000 4.250000
v 11.999992 -6.000004 4.250000
v 12.000000 -6.000000 -6.000000
v 3.916666 -6.000004 7.250000
v -12.000002 -6.000000 -6.000000
v -12.000004 -6.000000 -0.000000
v -12.000004 -6.000000 4.250000
v -11.999998 6.000000 4.750000
v 3.916666 5.999996 7.750000
v -12.000004 -6.000000 4.750000
v 3.916666 -6.000004 7.750000
v 11.999992 -6.000004 4.750000
v 12.000006 5.999996 4.750000
vt 0.555360377 0.75132364
vt 0.55728972 0.740712106
vt 0.555360377 0.740712106
vt 0.55728972 0.75132364
vt 0.121699661 0.762624204
vt 0.0985471904 0.808929145
vt 0.121699661 0.808929145
vt 0.0821475089 0.762624204
vt 0.0821475387 0.808929145
vt 0.563077867 0.748429596
vt 0.561148465 0.737818003
vt 0.561148465 0.748429596
vt 0.563077867 0.737818003
vt 0.194051117 0.758765459
vt 0.210450798 0.801211655
vt 0.210450798 0.758765459
vt 0.194051117 0.801211655
vt 0.56500715 0.727206469
vt 0.563077867 0.740712106
vt 0.56500721 0.740712106
vt 0.563077867 0.727206469
vt 0.903353453 0.215176776
vt 0.90404439 0.220358744
vt 0.90404439 0.215176776
vt 0.903353453 0.220358744
vt 0.901280642 0.220358744
vt 0.901971579 0.215176776
vt 0.901280642 0.215176776
vt 0.901971579 0.220358744
vt 0.902662516 0.220358744
vt 0.901971579 0.215176776
vt 0.901971579 0.220358744
vt 0.902662516 0.215176776
vt 0.55728972 0.727206469
vt 0.559219062 0.737818003
vt 0.559219062 0.727206469
vt 0.55728972 0.737818003
vt 0.563077867 0.740712106
vt 0.56500715 0.75132364
vt 0.56500715 0.740712106
vt 0.563077867 0.75132364
vt 0.868116021 0.215176776
vt 0.868806958 0.220358744
vt 0.868806958 0.215176776
vt 0.868116021 0.220358744
vt 0.563077867 0.737818003
vt 0.561148465 0.727206469
vt 0.561148465 0.737818003
vt 0.563077867 0.727206469
vt 0.177651435 0.758765459
vt 0.194051117 0.847516596
vt 0.194051117 0.758765459
vt 0.177651435 0.847516596
vt 0.559219062 0.748429596
vt 0.55728972 0.737818003
vt 0.55728972 0.748429596
vt 0.559219062 0.737818003
vt 0.0956531167 0.725966096
vt 0.0821475089 0.70120585
vt 0.0956531167 0.729824901
vt 0.106264651 0.729824901
vt 0.110123426 0.725966096
vt 0.110123426 0.747189224
vt 0.106264651 0.743330479
vt 0.0995118618 0.747189224
vt 0.0956531167 0.743330479
vt 0.0821475089 0.70120585
vt 0.0956531167 0.702813625
vt 0.0995118618 0.756836057
vt 0.0937237442 0.762624204
vt 0.110123426 0.762624204
vt 0.110123426 0.756836057
vt 0.133275896 0.762624204
vt 0.133275896 0.670014381
vt 0.110123426 0.702813625
vt 0.0956531167 0.69895494
vt 0.110123426 0.69895494
vt 0.110123426 0.702813625
vt 0.110123426 0.675802469
vt 0.110123396 0.670014381
vt 0.0956531167 0.675802469
vt 0.0937237442 0.670014381
vt 0.647970259 0.75132364
vt 0.649899542 0.741676748
vt 0.647970259 0.741676748
vt 0.649899542 0.75132364
vt 0.647970259 0.741676748
vt 0.646040857 0.75132364
vt 0.647970259 0.75132364
vt 0.646040857 0.741676748
vt 0.55728972 0.740712106
vt 0.555360377 0.727206469
vt 0.555360377 0.740712106
vt 0.55728972 0.727206469
vt 0.904735327 0.223467931
vt 0.90404439 0.215176776
vt 0.90404439 0.223467931
vt 0.904735327 0.215176776
vt 0.901280642 0.223467931
vt 0.900589705 0.215176776
vt 0.900589705 0.223467931
vt 0.901280642 0.215176776
vt 0.338692039 0.785333991
vt 0.351521343 0.819901824
vt 0.354087204 0.819901824
vt 0.336126119 0.785333991
vt 0.351521343 0.717267334
vt 0.354087204 0.717267334
vt 0.356653064 0.751835227
vt 0.369482368 0.819901824
vt 0.372048229 0.819901824
vt 0.354087204 0.751835227
vt 0.369482368 0.717267334
vt 0.372048229 0.717267334
vt 0.37461409 0.768584609
vt 0.372048229 0.717267334
vt 0.372048229 0.768584609
vt 0.37461409 0.717267334
vt 0.37717995 0.768584609
vt 0.37461409 0.717267334
vt 0.37461409 0.768584609
vt 0.37717995 0.717267334
vt 0.204662651 0.745259881
vt 0.194051117 0.716319323
vt 0.194051117 0.745259881
vt 0.210450798 0.716319323
vt 0.210450798 0.758765459
vt 0.204662651 0.754906714
vt 0.194051117 0.758765459
vt 0.194051117 0.754906714
vt 0.0425953865 0.808929145
vt 0.0657478571 0.808929145
vt 0.0425953865 0.778059185
vt 0.0657478571 0.778059185
vt 0.0657478571 0.768412352
vt 0.0425953865 0.762624204
vt 0.0657478571 0.762624204
vt 0.0763593912 0.768412352
vt 0.0821475089 0.762624204
vt 0.0763593912 0.778059185
vt 0.0821475089 0.808929145
vt 0.194051117 0.754906714
vt 0.179580837 0.754906714
vt 0.194051117 0.758765459
vt 0.177651435 0.758765459
vt 0.179580837 0.731754303
vt 0.177651435 0.758765459
vt 0.179580837 0.727895498
vt 0.177651435 0.700884342
vt 0.179580837 0.731754303
vt 0.194051117 0.727895498
vt 0.194051117 0.731754303
vt 0.177651435 0.700884342
vt 0.177651435 0.758765459
vt 0.179580837 0.704743028
vt 0.179580837 0.727895498
vt 0.179580837 0.700884342
vt 0.177651435 0.687378705
vt 0.190192372 0.700884283
vt 0.194051117 0.704743087
vt 0.194051117 0.683519959
vt 0.190192372 0.687378705
vt 0.183439583 0.683519959
vt 0.179580837 0.687378705
vt 0.183439583 0.673873067
vt 0.177651435 0.670014381
vt 0.194051117 0.670014381
vt 0.194051117 0.673873067
vt 0.159488961 0.240556955
vt 0.161418304 0.250203788
vt 0.161418304 0.240556955
vt 0.159488961 0.250203788
vt 0.130548343 0.254062533
vt 0.159488961 0.254062533
vt 0.159488961 0.219333827
vt 0.12090151 0.254062533
vt 0.12090151 0.255991936
vt 0.130548343 0.255991936
vt 0.117042765 0.254062533
vt 0.117042765 0.165311456
vt 0.159488961 0.196181357
vt 0.161418304 0.196181357
vt 0.161418304 0.219333827
vt 0.159488961 0.192322612
vt 0.159488961 0.169170141
vt 0.159488961 0.165311456
vt 0.161418304 0.169170141
vt 0.161418304 0.192322612
vt 0.358713806 0.297519386
vt 0.358713746 0.239638209
vt 0.31626761 0.297519326
vt 0.31626761 0.208768249
vt 0.358713806 0.226132572
vt 0.358713806 0.208768249
vt 0.0425953567 0.762624204
vt 0.0821475089 0.762624204
vt 0.0310191512 0.731432676
vt 0.0821475089 0.670014381
vt 0.0589950383 0.670014381
vt 0.0425953567 0.670014381
vt 0.336126119 0.819535255
vt 0.336126119 0.7527951
vt 0.274545491 0.819535255
vt 0.274545491 0.7527951
vt 0.274545461 0.717267394
vt 0.336126119 0.717267334
vn -1.000000 0.000000 0.000000
vn -1.000000 0.000000 0.000000
vn -1.000000 0.000000 0.000000
vn -1.000000 0.000000 0.000000
vn 1.000000 0.000000 0.000000
vn 1.000000 0.000000 0.000000
vn 1.000000 0.000000 0.000000
vn 1.000000 0.000000 0.000000
vn 1.000000 0.000000 0.000000
vn -1.000000 0.000000 0.000000
vn -1.000000 0.000000 0.000000
vn -1.000000 0.000000 0.000000
vn -1.000000 0.000000 0.000000
vn -1.000000 0.000000 0.000000
vn -1.000000 0.000000 0.000000
vn -1.000000 0.000000 0.000000
vn -1.000000 0.000000 0.000000
vn 0.000000 -0.000000 1.000000
vn 0.000000 -0.000000 1.000000
vn 0.000000 -0.000000 1.000000
vn 0.000000 -0.000000 1.000000
vn -1.000000 0.000000 0.000000
vn -1.000000 0.000000 0.000000
vn -1.000000 0.000000 0.000000
vn -1.000000 0.000000 0.000000
vn -1.000000 0.000000 0.000000
vn -1.000000 0.000000 0.000000
vn -1.000000 0.000000 0.000000
vn -1.000000 0.000000 0.000000
vn 1.000000 0.000000 0.000000
vn 1.000000 0.000000 0.000000
vn 1.000000 0.000000 0.000000
vn 1.000000 0.000000 0.000000
vn 0.000000 -1.000000 -0.000000
vn 0.000000 -1.000000 -0.000000
vn 0.000000 -1.000000 -0.000000
vn 0.000000 -1.000000 -0.000000
vn 0.000000 1.000000 0.000000
vn 0.000000 1.000000 0.000000
vn 0.000000 1.000000 0.000000
vn 0.000000 1.000000 0.000000
vn 1.000000 0.000000 0.000000
vn 1.000000 0.000000 0.000000
vn 1.000000 0.000000 0.000000
vn 1.000000 0.000000 0.000000
vn 1.000000 0.000000 0.000000
vn 1.000000 0.000000 0.000000
vn 1.000000 0.000000 0.000000
vn 1.000000 0.000000 0.000000
vn 0.000000 1.000000 0.000000
vn 0.000000 1.000000 0.000000
vn 0.000000 1.000000 0.000000
vn 0.000000 1.000000 0.000000
vn 1.000000 0.000000 0.000000
vn 1.000000 0.000000 0.000000
vn 1.000000 0.000000 0.000000
vn 1.000000 0.000000 0.000000
vn 0.000000 1.000000 0.000000
vn 0.000000 1.000000 0.000000
vn 0.000000 1.000000 0.000000
vn 0.000000 1.000000 0.000000
vn 0.000000 1.000000 0.000000
vn 0.000000 1.000000 0.000000
vn 0.000000 1.000000 0.000000
vn 0.000000 1.000000 0.000000
vn 0.000000 1.000000 0.000000
vn 0.000000 1.000000 0.000000
vn 0.000000 1.000000 0.000000
vn 0.000000 1.000000 0.000000
vn 0.000000 1.000000 0.000000
vn 0.000000 1.000000 0.000000
vn 0.000000 1.000000 0.000000
vn 0.000000 1.000000 0.000000
vn 0.000000 1.000000 0.000000
vn 0.000000 1.000000 0.000000
vn 0.000000 1.000000 0.000000
vn 0.000000 1.000000 0.000000
vn 0.000000 1.000000 0.000000
vn 0.000000 1.000000 0.000000
vn 0.000000 1.000000 0.000000
vn 0.000000 1.000000 0.000000
vn 0.000000 1.000000 0.000000
vn 0.000000 0.000000 -1.000000
vn 0.000000 0.000000 -1.000000
vn 0.000000 0.000000 -1.000000
vn 0.000000 0.000000 -1.000000
vn 0.000000 0.000000 -1.000000
vn 0.000000 0.000000 -1.000000
vn 0.000000 0.000000 -1.000000
vn 0.000000 0.000000 -1.000000
vn 0.000000 0.000000 -1.000000
vn 0.000000 0.000000 -1.000000
vn 0.000000 0.000000 -1.000000
vn 0.000000 0.000000 -1.000000
vn 0.000000 0.000000 -1.000000
vn 0.000000 0.000000 -1.000000
vn 0.000000 0.000000 -1.000000
vn 0.000000 0.000000 -1.000000
vn 0.000000 0.000000 -1.000000
vn 0.000000 0.000000 -1.000000
vn 0.000000 0.000000 -1.000000
vn 0.000000 0.000000 -1.000000
vn 0.000000 -1.000000 -0.000000
vn 0.000000 -1.000000 -0.000000
vn 0.000000 -1.000000 -0.000000
vn 0.000000 -1.000000 -0.000000
vn 0.000000 -1.000000 -0.000000
vn 0.000000 -1.000000 -0.000000
vn 0.000000 1.000000 0.000000
vn 0.000000 1.000000 0.000000
vn 0.000000 1.000000 0.000000
vn 0.000000 1.000000 0.000000
vn 0.000000 1.000000 0.000000
vn 0.000000 1.000000 0.000000
vn 1.000000 0.000000 0.000000
vn 1.000000 0.000000 0.000000
vn 1.000000 0.000000 0.000000
vn 1.000000 0.000000 0.000000
vn -1.000000 0.000000 0.000000
vn -1.000000 0.000000 0.000000
vn -1.000000 0.000000 0.000000
vn -1.000000 0.000000 0.000000
vn 1.000000 0.000000 0.000000
vn 1.000000 0.000000 0.000000
vn 1.000000 0.000000 0.000000
vn 1.000000 0.000000 0.000000
vn 1.000000 0.000000 0.000000
vn 1.000000 0.000000 0.000000
vn 1.000000 0.000000 0.000000
vn 1.000000 0.000000 0.000000
vn -1.000000 0.000000 0.000000
vn -1.000000 0.000000 0.000000
vn -1.000000 0.000000 0.000000
vn -1.000000 0.000000 0.000000
vn -1.000000 0.000000 0.000000
vn -1.000000 0.000000 0.000000
vn -1.000000 0.000000 0.000000
vn -1.000000 0.000000 0.000000
vn -1.000000 0.000000 0.000000
vn -1.000000 0.000000 0.000000
vn -1.000000 0.000000 0.000000
vn 0.000000 -1.000000 -0.000000
vn 0.000000 -1.000000 -0.000000
vn 0.000000 -1.000000 -0.000000
vn 0.000000 -1.000000 -0.000000
vn 0.000000 -1.000000 -0.000000
vn 0.000000 -1.000000 -0.000000
vn 0.000000 -1.000000 -0.000000
vn 0.000000 -1.000000 -0.000000
vn 0.000000 -1.000000 -0.000000
vn 0.000000 -1.000000 -0.000000
vn 0.000000 -1.000000 -0.000000
vn 0.000000 -1.000000 -0.000000
vn 0.000000 -1.000000 -0.000000
vn 0.000000 -1.000000 -0.000000
vn 0.000000 -1.000000 -0.000000
vn 0.000000 -1.000000 -0.000000
vn 0.000000 -1.000000 -0.000000
vn 0.000000 -1.000000 -0.000000
vn 0.000000 -1.000000 -0.000000
vn 0.000000 -1.000000 -0.000000
vn 0.000000 -1.000000 -0.000000
vn 0.000000 -1.000000 -0.000000
vn 0.000000 -1.000000 -0.000000
vn 0.000000 -1.000000 -0.000000
vn 0.000000 -1.000000 -0.000000
vn 0.000000 -1.000000 -0.000000
vn 0.000000 -1.000000 -0.000000
vn 0.000000 -0.000000 1.000000
vn 0.000000 -0.000000 1.000000
vn 0.000000 -0.000000 1.000000
vn 0.000000 -0.000000 1.000000
vn 0.000000 -0.000000 1.000000
vn 0.000000 -0.000000 1.000000
vn 0.000000 -0.000000 1.000000
vn 0.000000 -0.000000 1.000000
vn 0.000000 -0.000000 1.000000
vn 0.000000 -0.000000 1.000000
vn 0.000000 -0.000000 1.000000
vn 0.000000 -0.000000 1.000000
vn 0.000000 -0.000000 1.000000
vn 0.000000 -0.000000 1.000000
vn 0.000000 -0.000000 1.000000
vn 0.000000 -0.000000 1.000000
vn 0.000000 -0.000000 1.000000
vn 0.000000 -0.000000 1.000000
vn 0.000000 -0.000000 1.000000
vn 0.000000 -0.000000 1.000000
vn 0.000000 0.000000 -1.000000
vn 0.000000 0.000000 -1.000000
vn 0.000000 0.000000 -1.000000
vn 0.000000 0.000000 -1.000000
vn 0.000000 0.000000 -1.000000
vn 0.000000 0.000000 -1.000000
vn 0.000000 -1.000000 -0.000000
vn 0.000000 -1.000000 -0.000000
vn 0.000000 -1.000000 -0.000000
vn 0.000000 -1.000000 -0.000000
vn 0.000000 -1.000000 -0.000000
vn 0.000000 -1.000000 -0.000000
vn -0.185220 -0.000000 0.982697
vn 0.084440 -0.000000 0.996429
vn -0.185220 -0.000000 0.982697
vn 0.084440 -0.000000 0.996429
vn 0.347944 -0.000000 0.937515
vn 0.347944 -0.000000 0.937515
f 3/3/3 2/2/2 1/1/1
f 1/1/1 2/2/2 4/4/4
f 7/7/7 6/6/6 5/5/5
f 5/5/5 6/6/6 8/8/8
f 9/9/9 8/8/8 6/6/6
f 12/12/12 11/11/11 10/10/10
f 10/10/10 11/11/11 13/13/13
f 16/16/16 15/15/15 14/14/14
f 14/14/14 15/15/15 17/17/17
f 20/20/20 19/19/19 18/18/18
f 18/18/18 19/19/19 21/21/21
f 24/24/24 23/23/23 22/22/22
f 22/22/22 23/23/23 25/25/25
f 28/28/28 27/27/27 26/26/26
f 26/26/26 27/27/27 29/29/29
f 32/32/32 31/31/31 30/30/30
f 30/30/30 31/31/31 33/33/33
f 36/36/36 35/35/35 34/34/34
f 34/34/34 35/35/35 37/37/37
f 40/40/40 39/39/39 38/38/38
f 38/38/38 39/39/39 41/41/41
f 44/44/44 43/43/43 42/42/42
f 42/42/42 43/43/43 45/45/45
f 48/48/48 47/47/47 46/46/46
f 46/46/46 47/47/47 49/49/49
f 52/52/52 51/51/51 50/50/50
f 50/50/50 51/51/51 53/53/53
f 56/56/56 55/55/55 54/54/54
f 54/54/54 55/55/55 57/57/57
f 60/60/60 59/59/59 58/58/58
f 61/61/61 60/60/60 58/58/58
f 62/62/62 61/61/61 58/58/58
f 61/61/61 62/62/62 63/63/63
f 64/64/64 61/61/61 63/63/63
f 63/63/63 65/65/65 64/64/64
f 64/64/64 65/65/65 66/66/66
f 66/66/66 67/67/67 60/60/60
f 68/68/68 58/58/58 67/67/67
f 69/69/69 66/66/66 65/65/65
f 69/69/69 70/70/70 66/66/66
f 67/67/67 66/66/66 70/70/70
f 71/71/71 70/70/70 69/69/69
f 71/71/71 69/69/69 72/72/72
f 71/71/71 72/72/72 73/73/73
f 72/72/72 63/63/63 73/73/73
f 62/62/62 73/73/73 63/63/63
f 62/62/62 74/74/74 73/73/73
f 74/74/74 62/62/62 75/75/75
f 75/75/75 68/68/68 76/76/76
f 68/68/68 67/67/67 76/76/76
f 77/77/77 75/75/75 76/76/76
f 77/77/77 74/74/74 78/78/78
f 74/74/74 77/77/77 79/79/79
f 74/74/74 79/79/79 80/80/80
f 81/81/81 76/76/76 67/67/67
f 79/79/79 81/81/81 80/80/80
f 81/81/81 67/67/67 82/82/82
f 80/80/80 81/81/81 82/82/82
f 85/85/85 84/84/84 83/83/83
f 83/83/83 84/84/84 86/86/86
f 89/89/89 88/88/88 87/87/87
f 87/87/87 88/88/88 90/90/90
f 93/93/93 92/92/92 91/91/91
f 91/91/91 92/92/92 94/94/94
f 97/97/97 96/96/96 95/95/95
f 95/95/95 96/96/96 98/98/98
f 101/101/101 100/100/100 99/99/99
f 99/99/99 100/100/100 102/102/102
f 105/105/105 104/104/104 103/103/103
f 103/103/103 104/104/104 106/106/106
f 106/106/106 107/107/107 103/103/103
f 103/103/103 107/107/107 108/108/108
f 111/111/111 110/110/110 109/109/109
f 109/109/109 110/110/110 112/112/112
f 112/112/112 113/113/113 109/109/109
f 109/109/109 113/113/113 114/114/114
f 117/117/117 116/116/116 115/115/115
f 115/115/115 116/116/116 118/118/118
f 121/121/121 120/120/120 119/119/119
f 119/119/119 120/120/120 122/122/122
f 125/125/125 124/124/124 123/123/123
f 126/126/126 123/123/123 124/124/124
f 126/126/126 127/127/127 123/123/123
f 128/128/128 123/123/123 127/127/127
f 129/129/129 128/128/128 127/127/127
f 130/130/130 128/128/128 129/129/129
f 133/133/133 132/132/132 131/131/131
f 134/134/134 132/132/132 133/133/133
f 133/133/133 135/135/135 134/134/134
f 136/136/136 135/135/135 133/133/133
f 135/135/135 136/136/136 137/137/137
f 135/135/135 137/137/137 138/138/138
f 137/137/137 139/139/139 138/138/138
f 134/134/134 140/140/140 132/132/132
f 138/138/138 139/139/139 140/140/140
f 141/141/141 132/132/132 140/140/140
f 141/141/141 140/140/140 139/139/139
f 144/144/144 143/143/143 142/142/142
f 144/144/144 145/145/145 143/143/143
f 147/147/147 146/146/146 143/143/143
f 146/146/146 149/149/149 148/148/148
f 151/151/151 150/150/150 148/148/148
f 152/152/152 150/150/150 151/151/151
f 154/154/154 153/153/153 150/150/150
f 156/156/156 153/153/153 155/155/155
f 157/157/157 155/155/155 153/153/153
f 153/153/153 158/158/158 157/157/157
f 159/159/159 155/155/155 157/157/157
f 155/155/155 159/159/159 160/160/160
f 161/161/161 160/160/160 159/159/159
f 162/162/162 161/161/161 159/159/159
f 163/163/163 161/161/161 162/162/162
f 164/164/164 163/163/163 162/162/162
f 157/157/157 158/158/158 164/164/164
f 158/158/158 163/163/163 164/164/164
f 165/165/165 163/163/163 158/158/158
f 166/166/166 165/165/165 158/158/158
f 167/167/167 165/165/165 166/166/166
f 168/168/168 165/165/165 167/167/167
f 171/171/171 170/170/170 169/169/169
f 170/170/170 172/172/172 169/169/169
f 172/172/172 173/173/173 169/169/169
f 174/174/174 173/173/173 172/172/172
f 169/169/169 173/173/173 175/175/175
f 176/176/176 175/175/175 173/173/173
f 177/177/177 176/176/176 173/173/173
f 178/178/178 177/177/177 173/173/173
f 179/179/179 175/175/175 176/176/176
f 180/180/180 175/175/175 179/179/179
f 175/175/175 180/180/180 181/181/181
f 182/182/182 175/175/175 181/181/181
f 183/183/183 175/175/175 182/182/182
f 181/181/181 180/180/180 184/184/184
f 185/185/185 184/184/184 180/180/180
f 186/186/186 185/185/185 180/180/180
f 187/187/187 184/184/184 185/185/185
f 188/188/188 184/184/184 187/187/187
f 191/191/191 190/190/190 189/189/189
f 191/191/191 192/192/192 190/190/190
f 193/193/193 190/190/190 192/192/192
f 194/194/194 193/193/193 192/192/192
f 197/197/197 196/196/196 195/195/195
f 196/196/196 197/197/197 198/198/198
f 199/199/199 198/198/198 197/197/197
f 199/199/199 197/197/197 200/200/200
f 203/203/203 202/202/202 201/201/201
f 204/204/204 202/202/202 203/203/203
f 204/204/204 205/205/205 202/202/202
f 202/202/202 205/205/205 206/206/206
