v 10.000000 1.750000 1.000000
v 10.000000 1.750000 3.750000
v 10.000000 2.750000 3.750000
v 6.616117 -8.383884 2.750000
v 6.366116 -8.133883 2.750000
v 6.616117 -8.383884 1.500000
v 6.366116 -8.133883 -0.000000
v 6.616117 -8.383884 -0.000000
v 0.000000 -9.500001 -0.000000
v -9.500000 -9.500000 4.250000
v -9.500000 -9.500000 -0.000000
v 0.000000 -9.500001 4.250000
v -9.500000 9.500000 5.750000
v -9.500000 -9.500000 4.750000
v -9.500000 -9.500000 5.750000
v -9.500000 9.500000 4.750000
v 10.000000 1.750000 1.000000
v 9.500000 -4.000000 1.000000
v 9.500000 1.750000 1.000000
v 10.000000 -4.000000 1.000000
v 10.000000 8.500000 1.000000
v 9.500000 2.750000 1.000000
v 9.500000 8.500000 1.000000
v 10.000000 2.750000 1.000000
v -6.000000 10.000000 2.750000
v -6.000000 9.500000 0.000000
v -6.000000 10.000000 0.000000
v -6.000000 9.500000 2.750000
v 8.383883 -6.616117 -0.000000
v 8.133882 -6.366116 2.750000
v 8.383883 -6.616117 2.750000
v 8.133882 -6.366116 -0.000000
v -8.500000 10.000000 2.750000
v -8.500000 9.500000 0.000000
v -8.500000 9.500000 2.750000
v -8.500000 10.000000 0.000000
v 0.500000 -9.500001 4.250000
v 5.000000 -9.500001 -0.000000
v 5.000000 -9.500001 4.250000
v 0.500000 -9.500001 -0.000000
v -9.500000 -9.500000 -0.000000
v -9.500000 9.500000 4.250000
v -9.500000 9.500000 0.000000
v -9.500000 -9.500000 4.250000
v 0.000000 8.500000 1.250000
v 0.500000 -4.000000 1.250000
v 0.000000 -4.000000 1.250000
v 0.500000 8.500000 1.250000
v 5.000000 -9.500001 4.750000
v 9.500000 -5.000000 5.750000
v 5.000000 -9.500001 5.750000
v 9.500000 -5.000000 4.750000
v 9.500000 2.750000 5.750000
v 9.500000 9.500000 4.750000
v 9.500000 9.500000 5.750000
v 9.500000 -5.000000 4.750000
v 9.500000 -5.000000 5.750000
v 9.500000 8.500000 3.750000
v 10.000000 8.500000 1.000000
v 9.500000 8.500000 1.000000
v 10.000000 8.500000 3.750000
v 9.500000 -4.000000 3.750000
v 10.000000 -4.000000 1.000000
v 10.000000 -4.000000 3.750000
v 9.500000 -4.000000 1.000000
v 0.500000 8.500000 3.750000
v 0.000000 -4.000000 3.750000
v 0.500000 -4.000000 3.750000
v 0.000000 8.500000 3.750000
v -8.500000 9.500000 2.750000
v -6.000000 10.000000 2.750000
v -8.500000 10.000000 2.750000
v -6.000000 9.500000 2.750000
v 6.366116 -8.133883 2.750000
v 8.383883 -6.616117 2.750000
v 8.133882 -6.366116 2.750000
v 6.616117 -8.383884 2.750000
v 10.000000 1.750000 3.750000
v 9.500000 -4.000000 3.750000
v 10.000000 -4.000000 3.750000
v 9.500000 1.750000 3.750000
v 10.000000 8.500000 3.750000
v 9.500000 2.750000 3.750000
v 10.000000 2.750000 3.750000
v 9.500000 8.500000 3.750000
v 9.500000 9.500000 4.750000
v -9.500000 9.500000 5.750000
v 9.500000 9.500000 5.750000
v -9.500000 9.500000 4.750000
v -8.500000 -9.500000 5.750000
v 5.000000 -9.500001 4.750000
v 5.000000 -9.500001 5.750000
v -9.500000 -9.500000 4.750000
v -9.500000 -9.500000 5.750000
v -10.000000 -10.000000 -6.000000
v 5.000000 -10.000001 1.500000
v 5.000000 -10.000000 -6.000000
v -8.500000 -10.000000 5.750000
v 5.000000 -10.000001 5.750000
v -10.000000 -10.000000 5.750000
v 0.500000 9.500000 4.250000
v 9.500000 9.500000 4.250000
v 0.500000 9.500000 2.750000
v 9.500000 9.500000 0.000000
v 0.500000 9.500000 0.000000
v 0.000000 8.500000 2.750000
v 0.500000 8.500000 1.250000
v 0.000000 8.500000 1.250000
v 0.500000 8.500000 2.750000
v 0.500000 8.500000 3.750000
v 0.000000 8.500000 3.750000
v -8.500000 9.500000 0.000000
v -9.500000 -9.500000 -0.000000
v -9.500000 9.500000 0.000000
v -6.000000 9.500000 0.000000
v 0.000000 -9.500001 -0.000000
v 0.000000 9.500000 0.000000
v -8.500000 10.000000 0.000000
v -6.000000 10.000000 0.000000
v 9.500000 1.750000 1.000000
v 9.500000 1.750000 1.500000
v 10.000000 1.750000 1.000000
v 10.000000 1.750000 3.750000
v 9.500000 1.750000 3.750000
v -10.000000 10.000000 5.750000
v -10.000000 -10.000000 5.750000
v -10.000000 10.000000 2.750000
v -10.000000 -10.000000 -6.000000
v -10.000000 10.000000 -6.000000
v 0.500000 -4.000000 1.250000
v 0.500000 -4.000000 2.750000
v 0.000000 -4.000000 1.250000
v 0.000000 -4.000000 3.750000
v 0.500000 -4.000000 3.750000
v 9.500000 2.750000 1.000000
v 10.000000 2.750000 1.000000
v 9.500000 2.750000 1.500000
v 10.000000 2.750000 3.750000
v 9.500000 2.750000 3.750000
v 0.500000 -9.500001 -0.000000
v 0.500000 -9.500001 4.250000
v 0.500000 -5.000000 -0.000000
v 0.500000 -4.000000 2.750000
v 0.500000 -4.000000 1.250000
v 0.500000 -4.000000 3.750000
v 0.500000 9.500000 0.000000
v 0.500000 9.500000 4.250000
v 0.500000 8.500000 1.250000
v 0.500000 8.500000 3.750000
v 0.500000 9.500000 2.750000
v 0.500000 8.500000 2.750000
v -6.000000 9.500000 0.000000
v 0.000000 9.500000 2.750000
v 0.000000 9.500000 0.000000
v -6.000000 9.500000 2.750000
v 0.000000 9.500000 4.250000
v -9.500000 9.500000 4.250000
v -8.500000 9.500000 2.750000
v -9.500000 9.500000 0.000000
v -8.500000 9.500000 0.000000
v 9.500000 9.500000 0.000000
v 9.500000 2.750000 0.000000
v 0.500000 9.500000 0.000000
v 0.500000 -5.000000 -0.000000
v 9.500000 -5.000000 -0.000000
v 8.133882 -6.366116 -0.000000
v 6.366116 -8.133883 -0.000000
v 8.383883 -6.616117 -0.000000
v 6.616117 -8.383884 -0.000000
v 5.000000 -9.500001 -0.000000
v 0.500000 -9.500001 -0.000000
v 5.000000 -9.500001 4.250000
v 9.500000 -5.000000 4.250000
v 0.500000 -9.500001 4.250000
v 9.500000 1.750000 4.250000
v 0.500000 9.500000 4.250000
v 9.500000 9.500000 4.250000
v 0.000000 -5.000000 4.250000
v -9.500000 -9.500000 4.250000
v 0.000000 -9.500001 4.250000
v -9.500000 9.500000 4.250000
v 0.000000 9.500000 4.250000
v 9.500000 9.500000 4.750000
v 9.500000 -5.000000 4.750000
v -9.500000 9.500000 4.750000
v 5.000000 -9.500001 4.750000
v -9.500000 -9.500000 4.750000
v 0.000000 -9.500001 -0.000000
v 0.000000 -5.000000 4.250000
v 0.000000 -9.500001 4.250000
v 0.000000 -4.000000 1.250000
v 0.000000 9.500000 0.000000
v 0.000000 -4.000000 3.750000
v 0.000000 8.500000 1.250000
v 0.000000 8.500000 3.750000
v 0.000000 9.500000 4.250000
v 0.000000 9.500000 2.750000
v 0.000000 8.500000 2.750000
v 6.366116 -8.133883 -0.000000
v 6.366116 -8.133883 2.750000
v 5.000000 -9.500001 -0.000000
v 5.000000 -9.500001 4.250000
v 9.500000 -5.000000 4.250000
v 8.133882 -6.366116 2.750000
v 9.500000 -5.000000 -0.000000
v 8.133882 -6.366116 -0.000000
v 10.000000 8.500000 3.750000
v 10.000000 10.000000 5.750000
v 10.000000 10.000000 1.000000
v 10.000000 2.750000 5.750000
v 10.000000 8.500000 1.000000
v 10.000000 10.000000 0.000000
v 10.000000 2.750000 3.750000
v 10.000000 2.750000 1.000000
v 10.000000 -4.000000 3.750000
v 10.000000 -5.000000 5.750000
v 10.000000 -4.000000 1.000000
v 10.000000 -5.000000 -6.000000
v 10.000000 1.750000 1.000000
v 10.000000 10.000000 -6.000000
v 9.500000 9.500000 0.000000
v 9.500000 8.500000 1.000000
v 9.500000 2.750000 0.000000
v 9.500000 9.500000 4.250000
v 9.500000 8.500000 3.750000
v 9.500000 2.750000 3.750000
v 9.500000 2.750000 1.000000
v 9.500000 1.750000 4.250000
v 9.500000 1.750000 1.000000
v 9.500000 -5.000000 -0.000000
v 9.500000 1.750000 1.500000
v 9.500000 -4.000000 1.000000
v 9.500000 2.750000 1.500000
v 9.500000 -5.000000 4.250000
v 9.500000 -4.000000 3.750000
v 9.500000 1.750000 3.750000
v 5.000000 -10.000001 1.500000
v 6.616117 -8.383884 2.750000
v 6.616117 -8.383884 1.500000
v 6.616117 -8.383884 -0.000000
v 5.000000 -10.000001 5.750000
v 5.000000 -10.000000 -6.000000
v 8.383883 -6.616117 2.750000
v 6.616117 -8.383884 -6.000000
v 10.000000 -5.000000 5.750000
v 8.383883 -6.616117 -0.000000
v 10.000000 -5.000000 -6.000000
v -8.500000 -10.000000 5.750000
v -9.500000 -9.500000 5.750000
v -8.500000 -9.500000 5.750000
v 5.000000 -9.500001 5.750000
v -10.000000 -10.000000 5.750000
v 5.000000 -10.000001 5.750000
v 9.500000 -5.000000 5.750000
v 10.000000 -5.000000 5.750000
v 9.500000 2.750000 5.750000
v 10.000000 2.750000 5.750000
v 9.500000 9.500000 5.750000
v 10.000000 10.000000 5.750000
v -9.500000 9.500000 5.750000
v -10.000000 10.000000 5.750000
v 10.000000 10.000000 5.750000
v -6.000000 10.000000 2.750000
v 10.000000 10.000000 1.000000
v -10.000000 10.000000 5.750000
v -8.500000 10.000000 2.750000
v -10.000000 10.000000 2.750000
v -6.000000 10.000000 0.000000
v -8.500000 10.000000 0.000000
v -10.000000 10.000000 -6.000000
v -8.500000 10.000000 -6.000000
v 10.000000 10.000000 0.000000
v 10.000000 10.000000 -6.000000
vt 0.0823890567 0.809435606
vt 0.144174039 0.808675766
vt 0.0722011328 0.714241743
vt 0.0962119997 0.761113584
vt 0.0969184935 0.761113584
vt 0.0962119997 0.758543491
vt 0.0969184935 0.755459368
vt 0.0962119997 0.755459368
vt 0.92032063 0.809908748
vt 0.928813219 0.79609704
vt 0.92032063 0.79609704
vt 0.928813219 0.809908748
vt 0.0657385886 0.810839713
vt 0.0677368343 0.783216298
vt 0.0657385886 0.783216298
vt 0.0677368343 0.810839713
vt 0.57008189 0.820109785
vt 0.571081042 0.831932187
vt 0.571081042 0.820109785
vt 0.57008189 0.831932187
vt 0.572080135 0.831932187
vt 0.571081042 0.820109785
vt 0.571081042 0.831932187
vt 0.572080135 0.820109785
vt 0.609068573 0.726854205
vt 0.603573382 0.726127267
vt 0.603573382 0.726854205
vt 0.609068573 0.726127267
vt 0.132180601 0.740828156
vt 0.126685411 0.740314126
vt 0.126685411 0.740828156
vt 0.132180601 0.740314126
vt 0.590584695 0.750045538
vt 0.591291249 0.755699694
vt 0.591291249 0.750045538
vt 0.590584695 0.755699694
vt 0.933309317 0.755388975
vt 0.924816728 0.7619313
vt 0.933309317 0.7619313
vt 0.924816728 0.755388975
vt 0.819908202 0.862785757
vt 0.82840085 0.835162342
vt 0.819908202 0.835162342
vt 0.828400791 0.862785757
vt 0.861235261 0.31178239
vt 0.860236168 0.337483257
vt 0.861235261 0.337483257
vt 0.860236168 0.31178239
vt 0.116194576 0.782265007
vt 0.118192822 0.795349717
vt 0.118192822 0.782265007
vt 0.116194576 0.795349717
vt 0.118192822 0.806617141
vt 0.116194576 0.816430748
vt 0.118192822 0.816430748
vt 0.116194576 0.795349717
vt 0.118192822 0.795349717
vt 0.595273137 0.786698699
vt 0.594274044 0.792352855
vt 0.595273137 0.792352855
vt 0.594274044 0.786698699
vt 0.667710006 0.761417329
vt 0.662214816 0.762144327
vt 0.667710006 0.762144327
vt 0.662214816 0.761417329
vt 0.862597466 0.779296577
vt 0.863596559 0.75359571
vt 0.862597466 0.75359571
vt 0.863596559 0.779296577
vt 0.564107835 0.772148252
vt 0.565106928 0.777288437
vt 0.565106928 0.772148252
vt 0.564107835 0.777288437
vt 0.0962119997 0.771907926
vt 0.0969184935 0.76676774
vt 0.0962119997 0.76676774
vt 0.0969184935 0.771907926
vt 0.566797972 0.831932187
vt 0.567797124 0.820109785
vt 0.566797972 0.820109785
vt 0.567797124 0.831932187
vt 0.565798879 0.831932187
vt 0.566797972 0.820109785
vt 0.565798879 0.820109785
vt 0.566797972 0.831932187
vt 0.120191067 0.800249338
vt 0.118192822 0.761184037
vt 0.118192822 0.800249338
vt 0.120191067 0.761184037
vt 0.118192822 0.762637854
vt 0.116194576 0.782265007
vt 0.118192822 0.782265007
vt 0.116194576 0.761184037
vt 0.118192822 0.761184037
vt 0.144170195 0.703029633
vt 0.129183263 0.733870625
vt 0.144170195 0.733870625
vt 0.120690614 0.706113696
vt 0.120690674 0.733870625
vt 0.120690614 0.703029633
vt 0.883352876 0.836190403
vt 0.883352876 0.854695022
vt 0.886350274 0.836190403
vt 0.891845465 0.854695022
vt 0.891845465 0.836190403
vt 0.838405311 0.795231104
vt 0.839404464 0.792661011
vt 0.838405311 0.792661011
vt 0.839404464 0.795231104
vt 0.839404464 0.797287166
vt 0.838405311 0.797287166
vt 0.133314252 0.358203322
vt 0.131315947 0.31913802
vt 0.131316006 0.358203322
vt 0.138309896 0.358203322
vt 0.15029943 0.31913802
vt 0.15029943 0.358203322
vt 0.133314252 0.359231383
vt 0.138309896 0.359231383
vt 0.594274044 0.781044483
vt 0.594274044 0.782072544
vt 0.595273137 0.781044483
vt 0.595273137 0.786698699
vt 0.594274044 0.786698699
vt 0.120690614 0.732106805
vt 0.120690614 0.703029633
vt 0.114695877 0.732106805
vt 0.0972111225 0.703029633
vt 0.0972111225 0.732106805
vt 0.928040385 0.776130557
vt 0.930538177 0.776130557
vt 0.928040385 0.775403619
vt 0.932536483 0.775403619
vt 0.932536483 0.776130557
vt 0.662214816 0.771230936
vt 0.662214816 0.771957874
vt 0.663213909 0.771230936
vt 0.667710006 0.771957874
vt 0.667710006 0.771230936
vt 0.902336359 0.862785757
vt 0.910828948 0.862785757
vt 0.902336359 0.856243372
vt 0.90783155 0.854789495
vt 0.905333757 0.854789495
vt 0.909829736 0.854789495
vt 0.902336359 0.835162342
vt 0.910828948 0.835162342
vt 0.905333757 0.836616218
vt 0.909829736 0.836616218
vt 0.90783155 0.835162342
vt 0.90783155 0.836616218
vt 0.902336359 0.84338665
vt 0.896841168 0.855723083
vt 0.902336359 0.855723083
vt 0.896841168 0.84338665
vt 0.89384377 0.855723083
vt 0.89384377 0.836190403
vt 0.896841168 0.838246465
vt 0.902336359 0.836190403
vt 0.902336359 0.838246465
vt 0.172779799 0.31913802
vt 0.172779799 0.305259556
vt 0.154795527 0.31913802
vt 0.154795527 0.289325029
vt 0.172779799 0.289324969
vt 0.170049965 0.28651616
vt 0.166517496 0.282881528
vt 0.170549512 0.286002129
vt 0.167017043 0.282367498
vt 0.163787663 0.280072659
vt 0.154795527 0.280072659
vt 0.339922071 0.377092779
vt 0.348914266 0.367840469
vt 0.330929935 0.377092779
vt 0.348914266 0.353962004
vt 0.330929935 0.338027477
vt 0.348914266 0.338027477
vt 0.28846696 0.364312828
vt 0.307450414 0.355060518
vt 0.28846696 0.355060518
vt 0.307450414 0.394125819
vt 0.28846696 0.394125819
vt 0.444667995 0.673315525
vt 0.415693283 0.673315525
vt 0.444667995 0.712380826
vt 0.406701118 0.682567835
vt 0.406701118 0.712380826
vt 0.92032063 0.809908748
vt 0.928813219 0.816451073
vt 0.928813219 0.809908748
vt 0.923318028 0.817904949
vt 0.92032063 0.837532043
vt 0.927814126 0.817904949
vt 0.923318028 0.836078227
vt 0.927814126 0.836078227
vt 0.928813219 0.837532043
vt 0.925815821 0.837532043
vt 0.925815821 0.836078227
vt 0.924816728 0.765903592
vt 0.930311918 0.765903592
vt 0.924816728 0.7619313
vt 0.933309317 0.7619313
vt 0.933309317 0.775016069
vt 0.930311918 0.771043777
vt 0.924816728 0.775016069
vt 0.924816728 0.771043777
vt 0.0761376023 0.787328482
vt 0.0740181208 0.783216298
vt 0.074018091 0.792982638
vt 0.0842622519 0.783216298
vt 0.0761376321 0.792982638
vt 0.0740181208 0.7950387
vt 0.0842622519 0.787328482
vt 0.0842622519 0.792982638
vt 0.0937998593 0.787328422
vt 0.095212847 0.783216298
vt 0.0937998593 0.792982638
vt 0.095212847 0.807375133
vt 0.0856752098 0.792982638
vt 0.0740181208 0.807375133
vt 0.924816728 0.79609704
vt 0.926815033 0.794643164
vt 0.924816728 0.786283493
vt 0.933309317 0.79609704
vt 0.932310224 0.794643164
vt 0.932310224 0.786283493
vt 0.926815033 0.786283493
vt 0.933309317 0.784829617
vt 0.926815033 0.784829617
vt 0.924816728 0.775016069
vt 0.927814126 0.784829617
vt 0.926815033 0.776469886
vt 0.927814126 0.786283493
vt 0.933309317 0.775016069
vt 0.932310224 0.776469886
vt 0.932310224 0.784829617
vt 0.129183263 0.733870625
vt 0.126685411 0.737193465
vt 0.129183263 0.737193465
vt 0.132180601 0.737193465
vt 0.120690674 0.733870625
vt 0.144170195 0.733870625
vt 0.126685411 0.740828156
vt 0.144170195 0.737193465
vt 0.120690674 0.744150996
vt 0.132180601 0.740828156
vt 0.144170195 0.744150996
vt 0.0572459698 0.741066873
vt 0.0582450926 0.743122935
vt 0.0582450926 0.741066873
vt 0.0582450926 0.713309944
vt 0.0572459698 0.744150996
vt 0.0572459698 0.713309944
vt 0.0672372282 0.704057634
vt 0.0672372282 0.703029633
vt 0.0827237368 0.704057634
vt 0.0827237368 0.703029633
vt 0.0962119699 0.704057634
vt 0.0972111225 0.703029633
vt 0.0962119997 0.743122935
vt 0.0972111225 0.744150996
vt 0.120690614 0.761184037
vt 0.114695877 0.737922251
vt 0.111198902 0.761184037
vt 0.120690614 0.732106805
vt 0.114695877 0.73428762
vt 0.114695877 0.732106805
vt 0.109200656 0.737922251
vt 0.109200656 0.73428762
vt 0.0972111225 0.732106805
vt 0.0972111225 0.73428762
vt 0.109200656 0.761184037
vt 0.0972111225 0.761184037
vn 1.000000 0.000000 0.000000
vn 1.000000 0.000000 0.000000
vn 1.000000 0.000000 0.000000
vn 0.707107 0.707106 0.000000
vn 0.707107 0.707106 0.000000
vn 0.707107 0.707106 0.000000
vn 0.707107 0.707106 0.000000
vn 0.707107 0.707106 0.000000
vn 0.000000 1.000000 0.000000
vn 0.000000 1.000000 0.000000
vn 0.000000 1.000000 0.000000
vn 0.000000 1.000000 0.000000
vn 1.000000 0.000000 0.000000
vn 1.000000 0.000000 0.000000
vn 1.000000 0.000000 0.000000
vn 1.000000 0.000000 0.000000
vn 0.000000 -0.000000 1.000000
vn 0.000000 -0.000000 1.000000
vn 0.000000 -0.000000 1.000000
vn 0.000000 -0.000000 1.000000
vn 0.000000 -0.000000 1.000000
vn 0.000000 -0.000000 1.000000
vn 0.000000 -0.000000 1.000000
vn 0.000000 -0.000000 1.000000
vn -1.000000 0.000000 0.000000
vn -1.000000 0.000000 0.000000
vn -1.000000 0.000000 0.000000
vn -1.000000 0.000000 0.000000
vn -0.707106 -0.707107 -0.000000
vn -0.707106 -0.707107 -0.000000
vn -0.707106 -0.707107 -0.000000
vn -0.707106 -0.707107 -0.000000
vn 1.000000 0.000000 0.000000
vn 1.000000 0.000000 0.000000
vn 1.000000 0.000000 0.000000
vn 1.000000 0.000000 0.000000
vn 0.000000 1.000000 0.000000
vn 0.000000 1.000000 0.000000
vn 0.000000 1.000000 0.000000
vn 0.000000 1.000000 0.000000
vn 1.000000 0.000000 0.000000
vn 1.000000 0.000000 0.000000
vn 1.000000 0.000000 0.000000
vn 1.000000 0.000000 0.000000
vn 0.000000 -0.000000 1.000000
vn 0.000000 -0.000000 1.000000
vn 0.000000 -0.000000 1.000000
vn 0.000000 -0.000000 1.000000
vn -0.707107 0.707107 0.000000
vn -0.707107 0.707107 0.000000
vn -0.707107 0.707107 0.000000
vn -0.707107 0.707107 0.000000
vn -1.000000 0.000000 0.000000
vn -1.000000 0.000000 0.000000
vn -1.000000 0.000000 0.000000
vn -1.000000 0.000000 0.000000
vn -1.000000 0.000000 0.000000
vn 0.000000 -1.000000 -0.000000
vn 0.000000 -1.000000 -0.000000
vn 0.000000 -1.000000 -0.000000
vn 0.000000 -1.000000 -0.000000
vn 0.000000 1.000000 0.000000
vn 0.000000 1.000000 0.000000
vn 0.000000 1.000000 0.000000
vn 0.000000 1.000000 0.000000
vn 0.000000 0.000000 -1.000000
vn 0.000000 0.000000 -1.000000
vn 0.000000 0.000000 -1.000000
vn 0.000000 0.000000 -1.000000
vn 0.000000 0.000000 -1.000000
vn 0.000000 0.000000 -1.000000
vn 0.000000 0.000000 -1.000000
vn 0.000000 0.000000 -1.000000
vn 0.000000 0.000000 -1.000000
vn 0.000000 0.000000 -1.000000
vn 0.000000 0.000000 -1.000000
vn 0.000000 0.000000 -1.000000
vn 0.000000 0.000000 -1.000000
vn 0.000000 0.000000 -1.000000
vn 0.000000 0.000000 -1.000000
vn 0.000000 0.000000 -1.000000
vn 0.000000 0.000000 -1.000000
vn 0.000000 0.000000 -1.000000
vn 0.000000 0.000000 -1.000000
vn 0.000000 0.000000 -1.000000
vn 0.000000 -1.000000 -0.000000
vn 0.000000 -1.000000 -0.000000
vn 0.000000 -1.000000 -0.000000
vn 0.000000 -1.000000 -0.000000
vn 0.000000 1.000000 0.000000
vn 0.000000 1.000000 0.000000
vn 0.000000 1.000000 0.000000
vn 0.000000 1.000000 0.000000
vn 0.000000 1.000000 0.000000
vn 0.000000 -1.000000 -0.000000
vn 0.000000 -1.000000 -0.000000
vn 0.000000 -1.000000 -0.000000
vn 0.000000 -1.000000 -0.000000
vn 0.000000 -1.000000 -0.000000
vn 0.000000 -1.000000 -0.000000
vn 0.000000 -1.000000 -0.000000
vn 0.000000 -1.000000 -0.000000
vn 0.000000 -1.000000 -0.000000
vn 0.000000 -1.000000 -0.000000
vn 0.000000 -1.000000 -0.000000
vn 0.000000 -1.000000 -0.000000
vn 0.000000 -1.000000 -0.000000
vn 0.000000 -1.000000 -0.000000
vn 0.000000 -1.000000 -0.000000
vn 0.000000 -1.000000 -0.000000
vn 0.000000 -1.000000 -0.000000
vn 0.000000 -0.000000 1.000000
vn 0.000000 -0.000000 1.000000
vn 0.000000 -0.000000 1.000000
vn 0.000000 -0.000000 1.000000
vn 0.000000 -0.000000 1.000000
vn 0.000000 -0.000000 1.000000
vn 0.000000 -0.000000 1.000000
vn 0.000000 -0.000000 1.000000
vn 0.000000 -1.000000 -0.000000
vn 0.000000 -1.000000 -0.000000
vn 0.000000 -1.000000 -0.000000
vn 0.000000 -1.000000 -0.000000
vn 0.000000 -1.000000 -0.000000
vn -1.000000 0.000000 0.000000
vn -1.000000 0.000000 0.000000
vn -1.000000 0.000000 0.000000
vn -1.000000 0.000000 0.000000
vn -1.000000 0.000000 0.000000
vn 0.000000 1.000000 0.000000
vn 0.000000 1.000000 0.000000
vn 0.000000 1.000000 0.000000
vn 0.000000 1.000000 0.000000
vn 0.000000 1.000000 0.000000
vn 0.000000 1.000000 0.000000
vn 0.000000 1.000000 0.000000
vn 0.000000 1.000000 0.000000
vn 0.000000 1.000000 0.000000
vn 0.000000 1.000000 0.000000
vn 1.000000 0.000000 0.000000
vn 1.000000 0.000000 0.000000
vn 1.000000 0.000000 0.000000
vn 1.000000 0.000000 0.000000
vn 1.000000 0.000000 0.000000
vn 1.000000 0.000000 0.000000
vn 1.000000 0.000000 0.000000
vn 1.000000 0.000000 0.000000
vn 1.000000 0.000000 0.000000
vn 1.000000 0.000000 0.000000
vn 1.000000 0.000000 0.000000
vn 1.000000 0.000000 0.000000
vn 0.000000 -1.000000 -0.000000
vn 0.000000 -1.000000 -0.000000
vn 0.000000 -1.000000 -0.000000
vn 0.000000 -1.000000 -0.000000
vn 0.000000 -1.000000 -0.000000
vn 0.000000 -1.000000 -0.000000
vn 0.000000 -1.000000 -0.000000
vn 0.000000 -1.000000 -0.000000
vn 0.000000 -1.000000 -0.000000
vn 0.000000 -0.000000 1.000000
vn 0.000000 -0.000000 1.000000
vn 0.000000 -0.000000 1.000000
vn 0.000000 -0.000000 1.000000
vn 0.000000 -0.000000 1.000000
vn 0.000000 -0.000000 1.000000
vn 0.000000 -0.000000 1.000000
vn 0.000000 -0.000000 1.000000
vn 0.000000 -0.000000 1.000000
vn 0.000000 -0.000000 1.000000
vn 0.000000 -0.000000 1.000000
vn 0.000000 0.000000 -1.000000
vn 0.000000 0.000000 -1.000000
vn 0.000000 0.000000 -1.000000
vn 0.000000 0.000000 -1.000000
vn 0.000000 0.000000 -1.000000
vn 0.000000 0.000000 -1.000000
vn 0.000000 0.000000 -1.000000
vn 0.000000 0.000000 -1.000000
vn 0.000000 0.000000 -1.000000
vn 0.000000 0.000000 -1.000000
vn 0.000000 0.000000 -1.000000
vn 0.000000 -0.000000 1.000000
vn 0.000000 -0.000000 1.000000
vn 0.000000 -0.000000 1.000000
vn 0.000000 -0.000000 1.000000
vn 0.000000 -0.000000 1.000000
vn -1.000000 0.000000 0.000000
vn -1.000000 0.000000 0.000000
vn -1.000000 0.000000 0.000000
vn -1.000000 0.000000 0.000000
vn -1.000000 0.000000 0.000000
vn -1.000000 0.000000 0.000000
vn -1.000000 0.000000 0.000000
vn -1.000000 0.000000 0.000000
vn -1.000000 0.000000 0.000000
vn -1.000000 0.000000 0.000000
vn -1.000000 0.000000 0.000000
vn -0.707107 0.707106 0.000000
vn -0.707107 0.707106 0.000000
vn -0.707107 0.707106 0.000000
vn -0.707107 0.707106 0.000000
vn -0.707107 0.707107 0.000000
vn -0.707107 0.707107 0.000000
vn -0.707106 0.707107 0.000000
vn -0.707106 0.707107 0.000000
vn 1.000000 0.000000 0.000000
vn 1.000000 0.000000 0.000000
vn 1.000000 0.000000 0.000000
vn 1.000000 0.000000 0.000000
vn 1.000000 0.000000 0.000000
vn 1.000000 0.000000 0.000000
vn 1.000000 0.000000 0.000000
vn 1.000000 0.000000 0.000000
vn 1.000000 0.000000 0.000000
vn 1.000000 0.000000 0.000000
vn 1.000000 0.000000 0.000000
vn 1.000000 0.000000 0.000000
vn 1.000000 0.000000 0.000000
vn 1.000000 0.000000 0.000000
vn -1.000000 0.000000 0.000000
vn -1.000000 0.000000 0.000000
vn -1.000000 0.000000 0.000000
vn -1.000000 0.000000 0.000000
vn -1.000000 0.000000 0.000000
vn -1.000000 0.000000 0.000000
vn -1.000000 0.000000 0.000000
vn -1.000000 0.000000 0.000000
vn -1.000000 0.000000 0.000000
vn -1.000000 0.000000 0.000000
vn -1.000000 0.000000 0.000000
vn -1.000000 0.000000 0.000000
vn -1.000000 0.000000 0.000000
vn -1.000000 0.000000 0.000000
vn -1.000000 0.000000 0.000000
vn -1.000000 0.000000 0.000000
vn 0.707107 -0.707107 -0.000000
vn 0.707107 -0.707107 -0.000000
vn 0.707107 -0.707107 -0.000000
vn 0.707107 -0.707107 -0.000000
vn 0.707107 -0.707107 -0.000000
vn 0.707107 -0.707107 -0.000000
vn 0.707107 -0.707107 -0.000000
vn 0.707107 -0.707107 -0.000000
vn 0.707107 -0.707107 -0.000000
vn 0.707107 -0.707107 -0.000000
vn 0.707107 -0.707107 -0.000000
vn 0.000000 -0.000000 1.000000
vn 0.000000 -0.000000 1.000000
vn 0.000000 -0.000000 1.000000
vn 0.000000 -0.000000 1.000000
vn 0.000000 -0.000000 1.000000
vn 0.000000 -0.000000 1.000000
vn 0.000000 -0.000000 1.000000
vn 0.000000 -0.000000 1.000000
vn 0.000000 -0.000000 1.000000
vn 0.000000 -0.000000 1.000000
vn 0.000000 -0.000000 1.000000
vn 0.000000 -0.000000 1.000000
vn 0.000000 -0.000000 1.000000
vn 0.000000 -0.000000 1.000000
vn 0.000000 1.000000 0.000000
vn 0.000000 1.000000 0.000000
vn 0.000000 1.000000 0.000000
vn 0.000000 1.000000 0.000000
vn 0.000000 1.000000 0.000000
vn 0.000000 1.000000 0.000000
vn 0.000000 1.000000 0.000000
vn 0.000000 1.000000 0.000000
vn 0.000000 1.000000 0.000000
vn 0.000000 1.000000 0.000000
vn 0.000000 1.000000 0.000000
vn 0.000000 1.000000 0.000000
f 3/3/3 2/2/2 1/1/1
f 6/6/6 5/5/5 4/4/4
f 5/5/5 6/6/6 7/7/7
f 8/8/8 7/7/7 6/6/6
f 11/11/11 10/10/10 9/9/9
f 9/9/9 10/10/10 12/12/12
f 15/15/15 14/14/14 13/13/13
f 13/13/13 14/14/14 16/16/16
f 19/19/19 18/18/18 17/17/17
f 17/17/17 18/18/18 20/20/20
f 23/23/23 22/22/22 21/21/21
f 21/21/21 22/22/22 24/24/24
f 27/27/27 26/26/26 25/25/25
f 25/25/25 26/26/26 28/28/28
f 31/31/31 30/30/30 29/29/29
f 29/29/29 30/30/30 32/32/32
f 35/35/35 34/34/34 33/33/33
f 33/33/33 34/34/34 36/36/36
f 39/39/39 38/38/38 37/37/37
f 37/37/37 38/38/38 40/40/40
f 43/43/43 42/42/42 41/41/41
f 41/41/41 42/42/42 44/44/44
f 47/47/47 46/46/46 45/45/45
f 45/45/45 46/46/46 48/48/48
f 51/51/51 50/50/50 49/49/49
f 49/49/49 50/50/50 52/52/52
f 55/55/55 54/54/54 53/53/53
f 56/56/56 53/53/53 54/54/54
f 53/53/53 56/56/56 57/57/57
f 60/60/60 59/59/59 58/58/58
f 58/58/58 59/59/59 61/61/61
f 64/64/64 63/63/63 62/62/62
f 62/62/62 63/63/63 65/65/65
f 68/68/68 67/67/67 66/66/66
f 66/66/66 67/67/67 69/69/69
f 72/72/72 71/71/71 70/70/70
f 70/70/70 71/71/71 73/73/73
f 76/76/76 75/75/75 74/74/74
f 74/74/74 75/75/75 77/77/77
f 80/80/80 79/79/79 78/78/78
f 78/78/78 79/79/79 81/81/81
f 84/84/84 83/83/83 82/82/82
f 82/82/82 83/83/83 85/85/85
f 88/88/88 87/87/87 86/86/86
f 86/86/86 87/87/87 89/89/89
f 92/92/92 91/91/91 90/90/90
f 93/93/93 90/90/90 91/91/91
f 90/90/90 93/93/93 94/94/94
f 97/97/97 96/96/96 95/95/95
f 98/98/98 95/95/95 96/96/96
f 99/99/99 98/98/98 96/96/96
f 100/100/100 95/95/95 98/98/98
f 103/103/103 102/102/102 101/101/101
f 102/102/102 103/103/103 104/104/104
f 104/104/104 103/103/103 105/105/105
f 108/108/108 107/107/107 106/106/106
f 109/109/109 106/106/106 107/107/107
f 110/110/110 106/106/106 109/109/109
f 111/111/111 106/106/106 110/110/110
f 114/114/114 113/113/113 112/112/112
f 115/115/115 112/112/112 113/113/113
f 116/116/116 115/115/115 113/113/113
f 117/117/117 115/115/115 116/116/116
f 118/118/118 112/112/112 115/115/115
f 119/119/119 118/118/118 115/115/115
f 122/122/122 121/121/121 120/120/120
f 121/121/121 122/122/122 123/123/123
f 124/124/124 121/121/121 123/123/123
f 127/127/127 126/126/126 125/125/125
f 126/126/126 127/127/127 128/128/128
f 128/128/128 127/127/127 129/129/129
f 132/132/132 131/131/131 130/130/130
f 131/131/131 132/132/132 133/133/133
f 134/134/134 131/131/131 133/133/133
f 137/137/137 136/136/136 135/135/135
f 136/136/136 137/137/137 138/138/138
f 138/138/138 137/137/137 139/139/139
f 142/142/142 141/141/141 140/140/140
f 143/143/143 141/141/141 142/142/142
f 143/143/143 142/142/142 144/144/144
f 143/143/143 145/145/145 141/141/141
f 142/142/142 146/146/146 144/144/144
f 147/147/147 141/141/141 145/145/145
f 148/148/148 144/144/144 146/146/146
f 149/149/149 147/147/147 145/145/145
f 150/150/150 148/148/148 146/146/146
f 150/150/150 147/147/147 149/149/149
f 151/151/151 148/148/148 150/150/150
f 151/151/151 150/150/150 149/149/149
f 154/154/154 153/153/153 152/152/152
f 152/152/152 153/153/153 155/155/155
f 156/156/156 155/155/155 153/153/153
f 157/157/157 155/155/155 156/156/156
f 155/155/155 157/157/157 158/158/158
f 159/159/159 158/158/158 157/157/157
f 160/160/160 158/158/158 159/159/159
f 163/163/163 162/162/162 161/161/161
f 163/163/163 164/164/164 162/162/162
f 164/164/164 165/165/165 162/162/162
f 165/165/165 164/164/164 166/166/166
f 166/166/166 164/164/164 167/167/167
f 168/168/168 166/166/166 167/167/167
f 169/169/169 168/168/168 167/167/167
f 170/170/170 167/167/167 164/164/164
f 171/171/171 170/170/170 164/164/164
f 174/174/174 173/173/173 172/172/172
f 173/173/173 174/174/174 175/175/175
f 175/175/175 174/174/174 176/176/176
f 177/177/177 175/175/175 176/176/176
f 180/180/180 179/179/179 178/178/178
f 179/179/179 181/181/181 178/178/178
f 182/182/182 178/178/178 181/181/181
f 185/185/185 184/184/184 183/183/183
f 184/184/184 185/185/185 186/186/186
f 186/186/186 185/185/185 187/187/187
f 190/190/190 189/189/189 188/188/188
f 189/189/189 191/191/191 188/188/188
f 191/191/191 192/192/192 188/188/188
f 191/191/191 189/189/189 193/193/193
f 192/192/192 191/191/191 194/194/194
f 193/193/193 189/189/189 195/195/195
f 189/189/189 196/196/196 195/195/195
f 197/197/197 192/192/192 194/194/194
f 197/197/197 195/195/195 196/196/196
f 198/198/198 197/197/197 194/194/194
f 198/198/198 195/195/195 197/197/197
f 201/201/201 200/200/200 199/199/199
f 201/201/201 202/202/202 200/200/200
f 202/202/202 203/203/203 200/200/200
f 204/204/204 200/200/200 203/203/203
f 205/205/205 204/204/204 203/203/203
f 206/206/206 204/204/204 205/205/205
f 209/209/209 208/208/208 207/207/207
f 210/210/210 207/207/207 208/208/208
f 211/211/211 209/209/209 207/207/207
f 211/211/211 212/212/212 209/209/209
f 207/207/207 210/210/210 213/213/213
f 211/211/211 214/214/214 212/212/212
f 213/213/213 210/210/210 215/215/215
f 210/210/210 216/216/216 215/215/215
f 217/217/217 215/215/215 216/216/216
f 217/217/217 216/216/216 218/218/218
f 213/213/213 219/219/219 214/214/214
f 212/212/212 214/214/214 219/219/219
f 219/219/219 217/217/217 218/218/218
f 212/212/212 219/219/219 220/220/220
f 219/219/219 218/218/218 220/220/220
f 223/223/223 222/222/222 221/221/221
f 221/221/221 222/222/222 224/224/224
f 222/222/222 225/225/225 224/224/224
f 226/226/226 224/224/224 225/225/225
f 227/227/227 222/222/222 223/223/223
f 228/228/228 224/224/224 226/226/226
f 223/223/223 229/229/229 227/227/227
f 223/223/223 230/230/230 229/229/229
f 231/231/231 227/227/227 229/229/229
f 229/229/229 230/230/230 232/232/232
f 233/233/233 227/227/227 231/231/231
f 234/234/234 232/232/232 230/230/230
f 235/235/235 232/232/232 234/234/234
f 228/228/228 235/235/235 234/234/234
f 231/231/231 236/236/236 233/233/233
f 233/233/233 236/236/236 226/226/226
f 236/236/236 235/235/235 228/228/228
f 228/228/228 226/226/226 236/236/236
f 239/239/239 238/238/238 237/237/237
f 237/237/237 240/240/240 239/239/239
f 237/237/237 238/238/238 241/241/241
f 242/242/242 240/240/240 237/237/237
f 238/238/238 243/243/243 241/241/241
f 240/240/240 242/242/242 244/244/244
f 241/241/241 243/243/243 245/245/245
f 244/244/244 246/246/246 240/240/240
f 243/243/243 246/246/246 245/245/245
f 244/244/244 247/247/247 246/246/246
f 247/247/247 245/245/245 246/246/246
f 250/250/250 249/249/249 248/248/248
f 250/250/250 248/248/248 251/251/251
f 248/248/248 249/249/249 252/252/252
f 248/248/248 253/253/253 251/251/251
f 253/253/253 254/254/254 251/251/251
f 254/254/254 253/253/253 255/255/255
f 256/256/256 254/254/254 255/255/255
f 257/257/257 256/256/256 255/255/255
f 256/256/256 257/257/257 258/258/258
f 257/257/257 259/259/259 258/258/258
f 249/249/249 260/260/260 252/252/252
f 258/258/258 259/259/259 260/260/260
f 261/261/261 252/252/252 260/260/260
f 259/259/259 261/261/261 260/260/260
f 264/264/264 263/263/263 262/262/262
f 262/262/262 263/263/263 265/265/265
f 266/266/266 265/265/265 263/263/263
f 267/267/267 265/265/265 266/266/266
f 263/263/263 264/264/264 268/268/268
f 266/266/266 269/269/269 267/267/267
f 269/269/269 270/270/270 267/267/267
f 270/270/270 269/269/269 271/271/271
f 269/269/269 268/268/268 271/271/271
f 268/268/268 264/264/264 272/272/272
f 271/271/271 268/268/268 273/273/273
f 273/273/273 268/268/268 272/272/272
