g Model_0
v -0.680031002 -0.345948994 0.800000012
v -0.680031002 -0.345948994 0
v -0.680031002 0.331800997 0
v -0.680031002 0.331800997 0.800000012
v 0.680031002 0.331800997 0.800000012
v 0.680031002 0.331800997 0
v 0.680031002 -0.345948994 0
v 0.680031002 -0.345948994 0.800000012
v 0.680031002 -0.345948994 0.800000012
v 0.680031002 -0.345948994 0
v -0.680031002 -0.345948994 0
v -0.680031002 -0.345948994 0.800000012
v -0.680031002 -0.345948994 0
v 0.680031002 -0.345948994 0
v 0.680031002 0.331800997 0
v -0.680031002 0.331800997 0
v 0.680031002 -0.345948994 0.800000012
v -0.680031002 -0.345948994 0.800000012
v -0.680031002 0.331800997 0.800000012
v 0.680031002 0.331800997 0.800000012
v 0.551527023 0.331800997 0.109246999
v 0.551527023 0.260998011 0.109246999
v -0.215924993 0.260998011 0.109246999
v -0.215924993 0.331800997 0.109246999
v -0.215924993 0.260998011 0.690752983
v -0.215924993 0.260998011 0.109246999
v 0.551527023 0.260998011 0.109246999
v 0.551527023 0.260998011 0.690752983
v 0.551527023 0.331800997 0.690752983
v 0.551527023 0.260998011 0.690752983
v 0.551527023 0.260998011 0.109246999
v 0.551527023 0.331800997 0.109246999
v -0.215924993 0.331800997 0.690752983
v -0.215924993 0.260998011 0.690752983
v 0.551527023 0.260998011 0.690752983
v 0.551527023 0.331800997 0.690752983
v -0.215924993 0.331800997 0.109246999
v -0.215924993 0.260998011 0.109246999
v -0.215924993 0.260998011 0.690752983
v -0.215924993 0.331800997 0.690752983
v -0.429221004 0.240051001 0.690752983
v -0.429221004 0.240051001 0.556176007
v -0.429221004 0.388424009 0.556176007
v -0.429221004 0.388424009 0.690752983
v -0.429221004 0.388424009 0.690752983
v -0.429221004 0.388424009 0.556176007
v -0.294645011 0.388424009 0.556176007
v -0.294645011 0.388424009 0.690752983
v -0.294645011 0.388424009 0.690752983
v -0.294645011 0.388424009 0.556176007
v -0.294645011 0.240051001 0.556176007
v -0.294645011 0.240051001 0.690752983
v -0.429221004 0.240051001 0.556176007
v -0.294645011 0.240051001 0.556176007
v -0.294645011 0.388424009 0.556176007
v -0.429221004 0.388424009 0.556176007
v -0.294645011 0.240051001 0.690752983
v -0.429221004 0.240051001 0.690752983
v -0.429221004 0.388424009 0.690752983
v -0.294645011 0.388424009 0.690752983
v -0.608430982 0.240051001 0.690752983
v -0.608430982 0.240051001 0.556176007
v -0.608430982 0.388424009 0.556176007
v -0.608430982 0.388424009 0.690752983
v -0.608430982 0.388424009 0.690752983
v -0.608430982 0.388424009 0.556176007
v -0.473854005 0.388424009 0.556176007
v -0.473854005 0.388424009 0.690752983
v -0.473854005 0.388424009 0.690752983
v -0.473854005 0.388424009 0.556176007
v -0.473854005 0.240051001 0.556176007
v -0.473854005 0.240051001 0.690752983
v -0.608430982 0.240051001 0.556176007
v -0.473854005 0.240051001 0.556176007
v -0.473854005 0.388424009 0.556176007
v -0.608430982 0.388424009 0.556176007
v -0.473854005 0.240051001 0.690752983
v -0.608430982 0.240051001 0.690752983
v -0.608430982 0.388424009 0.690752983
v -0.473854005 0.388424009 0.690752983
v -0.429221004 0.240051001 0.524272025
v -0.429221004 0.240051001 0.389694989
v -0.429221004 0.388424009 0.389694989
v -0.429221004 0.388424009 0.524272025
v -0.429221004 0.388424009 0.524272025
v -0.429221004 0.388424009 0.389694989
v -0.294645011 0.388424009 0.389694989
v -0.294645011 0.388424009 0.524272025
v -0.294645011 0.388424009 0.524272025
v -0.294645011 0.388424009 0.389694989
v -0.294645011 0.240051001 0.389694989
v -0.294645011 0.240051001 0.524272025
v -0.429221004 0.240051001 0.389694989
v -0.294645011 0.240051001 0.389694989
v -0.294645011 0.388424009 0.389694989
v -0.429221004 0.388424009 0.389694989
v -0.294645011 0.240051001 0.524272025
v -0.429221004 0.240051001 0.524272025
v -0.429221004 0.388424009 0.524272025
v -0.294645011 0.388424009 0.524272025
v -0.608430982 0.240051001 0.524272025
v -0.608430982 0.240051001 0.389694989
v -0.608430982 0.388424009 0.389694989
v -0.608430982 0.388424009 0.524272025
v -0.608430982 0.388424009 0.524272025
v -0.608430982 0.388424009 0.389694989
v -0.473854005 0.388424009 0.389694989
v -0.473854005 0.388424009 0.524272025
v -0.473854005 0.388424009 0.524272025
v -0.473854005 0.388424009 0.389694989
v -0.473854005 0.240051001 0.389694989
v -0.473854005 0.240051001 0.524272025
v -0.608430982 0.240051001 0.389694989
v -0.473854005 0.240051001 0.389694989
v -0.473854005 0.388424009 0.389694989
v -0.608430982 0.388424009 0.389694989
v -0.473854005 0.240051001 0.524272025
v -0.608430982 0.240051001 0.524272025
v -0.608430982 0.388424009 0.524272025
v -0.473854005 0.388424009 0.524272025
v -0.429221004 0.240051001 0.358213007
v -0.429221004 0.240051001 0.223636001
v -0.429221004 0.388424009 0.223636001
v -0.429221004 0.388424009 0.358213007
v -0.429221004 0.388424009 0.358213007
v -0.429221004 0.388424009 0.223636001
v -0.294645011 0.388424009 0.223636001
v -0.294645011 0.388424009 0.358213007
v -0.294645011 0.388424009 0.358213007
v -0.294645011 0.388424009 0.223636001
v -0.294645011 0.240051001 0.223636001
v -0.294645011 0.240051001 0.358213007
v -0.429221004 0.240051001 0.223636001
v -0.294645011 0.240051001 0.223636001
v -0.294645011 0.388424009 0.223636001
v -0.429221004 0.388424009 0.223636001
v -0.294645011 0.240051001 0.358213007
v -0.429221004 0.240051001 0.358213007
v -0.429221004 0.388424009 0.358213007
v -0.294645011 0.388424009 0.358213007
v -0.608430982 0.240051001 0.358213007
v -0.608430982 0.240051001 0.223636001
v -0.608430982 0.388424009 0.223636001
v -0.608430982 0.388424009 0.358213007
v -0.608430982 0.388424009 0.358213007
v -0.608430982 0.388424009 0.223636001
v -0.473854005 0.388424009 0.223636001
v -0.473854005 0.388424009 0.358213007
v -0.473854005 0.388424009 0.358213007
v -0.473854005 0.388424009 0.223636001
v -0.473854005 0.240051001 0.223636001
v -0.473854005 0.240051001 0.358213007
v -0.608430982 0.240051001 0.223636001
v -0.473854005 0.240051001 0.223636001
v -0.473854005 0.388424009 0.223636001
v -0.608430982 0.388424009 0.223636001
v -0.473854005 0.240051001 0.358213007
v -0.608430982 0.240051001 0.358213007
v -0.608430982 0.388424009 0.358213007
v -0.473854005 0.388424009 0.358213007
v -0.680031002 0.331800997 0.800000012
v -0.215924993 0.331800997 0.690752983
v 0.551527023 0.331800997 0.690752983
v 0.680031002 0.331800997 0.800000012
v -0.680031002 0.331800997 0
v 0.551527023 0.331800997 0.109246999
v -0.215924993 0.331800997 0.109246999
v 0.680031002 0.331800997 0
vt 0.610368013 0.727806985
vt 0.610368013 0.673783004
vt 0.566826999 0.673783004
vt 0.566826999 0.727806985
vt 0.661763012 0.727806985
vt 0.661763012 0.673783004
vt 0.618221998 0.673783004
vt 0.618221998 0.727806985
vt 0.618221998 0.673783004
vt 0.669616997 0.673783004
vt 0.669616997 0.581938982
vt 0.618221998 0.581938982
vt 0.669616997 0.581938982
vt 0.669616997 0.673783004
vt 0.713158011 0.673783004
vt 0.713158011 0.581938982
vt 0.713158011 0.765627027
vt 0.713158011 0.673783004
vt 0.669616997 0.673783004
vt 0.669616997 0.765627027
vt 0.661763012 0.725609004
vt 0.666311979 0.725609004
vt 0.666311979 0.673783004
vt 0.661763012 0.673783004
vt 0.262832999 0.426400006
vt 0.300190985 0.426400006
vt 0.300190985 0.374574006
vt 0.262832999 0.374574006
vt 0.713158011 0.673783004
vt 0.717706025 0.673783004
vt 0.717706025 0.634513974
vt 0.713158011 0.634513974
vt 0.618221998 0.673783004
vt 0.613672972 0.673783004
vt 0.613672972 0.725609004
vt 0.618221998 0.725609004
vt 0.717706025 0.581938982
vt 0.713158011 0.581938982
vt 0.713158011 0.621206999
vt 0.717706025 0.621206999
vt 0.228464007 0.712767005
vt 0.257544011 0.712767005
vt 0.257544011 0.677870989
vt 0.228464007 0.677870989
vt 0.286624998 0.712767005
vt 0.286624998 0.744418979
vt 0.315705001 0.744418979
vt 0.315705001 0.712767005
vt 0.170304 0.747663021
vt 0.199384004 0.747663021
vt 0.199384004 0.712767005
vt 0.170304 0.712767005
vt 0.286624998 0.747663021
vt 0.257544011 0.747663021
vt 0.257544011 0.782559991
vt 0.286624998 0.782559991
vt 0.286624998 0.782559991
vt 0.257544011 0.782559991
vt 0.257544011 0.817456007
vt 0.286624998 0.817456007
vt 0.199384004 0.712767005
vt 0.228464007 0.712767005
vt 0.228464007 0.677870989
vt 0.199384004 0.677870989
vt 0.315705001 0.779314995
vt 0.315705001 0.747663021
vt 0.286624998 0.747663021
vt 0.286624998 0.779314995
vt 0.228464007 0.677870989
vt 0.257544011 0.677870989
vt 0.257544011 0.642974019
vt 0.228464007 0.642974019
vt 0.141222998 0.817456007
vt 0.170304 0.817456007
vt 0.170304 0.782559991
vt 0.141222998 0.782559991
vt 0.199384004 0.642974019
vt 0.170304 0.642974019
vt 0.170304 0.677870989
vt 0.199384004 0.677870989
vt 0.228464007 0.642974019
vt 0.199384004 0.642974019
vt 0.199384004 0.677870989
vt 0.228464007 0.677870989
vt 0.199384004 0.782559991
vt 0.199384004 0.814211011
vt 0.228464007 0.814211011
vt 0.228464007 0.782559991
vt 0.228464007 0.712767005
vt 0.199384004 0.712767005
vt 0.199384004 0.747663021
vt 0.228464007 0.747663021
vt 0.286624998 0.677870989
vt 0.257544011 0.677870989
vt 0.257544011 0.712767005
vt 0.286624998 0.712767005
vt 0.286624998 0.642974019
vt 0.257544011 0.642974019
vt 0.257544011 0.677870989
vt 0.286624998 0.677870989
vt 0.257544994 0.712767005
vt 0.228464007 0.712767005
vt 0.228464007 0.747663021
vt 0.257544994 0.747663021
vt 0.286624998 0.681115985
vt 0.286624998 0.712767005
vt 0.315705001 0.712767005
vt 0.315705001 0.681115985
vt 0.170304 0.677870989
vt 0.141222998 0.677870989
vt 0.141222998 0.712767005
vt 0.170304 0.712767005
vt 0.170304 0.817456007
vt 0.199384004 0.817456007
vt 0.199384004 0.782559991
vt 0.170304 0.782559991
vt 0.199384004 0.677870989
vt 0.170304 0.677870989
vt 0.170304 0.712767005
vt 0.199384004 0.712767005
vt 0.199384004 0.747663021
vt 0.170304 0.747663021
vt 0.170304 0.782559991
vt 0.199384004 0.782559991
vt 0.315705001 0.674625993
vt 0.315705001 0.642974019
vt 0.286624998 0.642974019
vt 0.286624998 0.674625993
vt 0.141222998 0.747663021
vt 0.170304 0.747663021
vt 0.170304 0.712767005
vt 0.141222998 0.712767005
vt 0.228464007 0.747663021
vt 0.199384004 0.747663021
vt 0.199384004 0.782559991
vt 0.228464007 0.782559991
vt 0.286624998 0.712767005
vt 0.257544011 0.712767005
vt 0.257544011 0.747663021
vt 0.286624998 0.747663021
vt 0.257544994 0.747663021
vt 0.228464007 0.747663021
vt 0.228464007 0.782559991
vt 0.257544994 0.782559991
vt 0.315705001 0.814211011
vt 0.315705001 0.782559991
vt 0.286624998 0.782559991
vt 0.286624998 0.814211011
vt 0.170304 0.747663021
vt 0.141222998 0.747663021
vt 0.141222998 0.782559991
vt 0.170304 0.782559991
vt 0.228464007 0.817456007
vt 0.257544011 0.817456007
vt 0.257544011 0.782559991
vt 0.228464007 0.782559991
vt 0.170304 0.642974019
vt 0.141222998 0.642974019
vt 0.141222998 0.677870989
vt 0.170304 0.677870989
vt 0.566826999 0.673783004
vt 0.573845029 0.642441988
vt 0.573845029 0.590615988
vt 0.566826999 0.581938982
vt 0.618221998 0.673783004
vt 0.611203015 0.590615988
vt 0.611203015 0.642441988
vt 0.618221998 0.581938982
vn -1 0 0
vn -1 0 0
vn -1 0 0
vn -1 0 0
vn 1 0 0
vn 1 0 0
vn 1 0 0
vn 1 0 0
vn -0 -1 0
vn -0 -1 0
vn -0 -1 0
vn -0 -1 0
vn -0 0 -1
vn -0 0 -1
vn -0 0 -1
vn -0 0 -1
vn -0 0 1
vn -0 0 1
vn -0 0 1
vn -0 0 1
vn -0 0 1
vn -0 0 1
vn -0 0 1
vn -0 0 1
vn -0 1 0
vn -0 1 0
vn -0 1 0
vn -0 1 0
vn -1 0 0
vn -1 0 0
vn -1 0 0
vn -1 0 0
vn -0 0 -1
vn -0 0 -1
vn -0 0 -1
vn -0 0 -1
vn 1 0 0
vn 1 0 0
vn 1 0 0
vn 1 0 0
vn -1 0 0
vn -1 0 0
vn -1 0 0
vn -1 0 0
vn -0 1 0
vn -0 1 0
vn -0 1 0
vn -0 1 0
vn 1 0 0
vn 1 0 0
vn 1 0 0
vn 1 0 0
vn -0 0 -1
vn -0 0 -1
vn -0 0 -1
vn -0 0 -1
vn -0 0 1
vn -0 0 1
vn -0 0 1
vn -0 0 1
vn -1 0 0
vn -1 0 0
vn -1 0 0
vn -1 0 0
vn -0 1 0
vn -0 1 0
vn -0 1 0
vn -0 1 0
vn 1 0 0
vn 1 0 0
vn 1 0 0
vn 1 0 0
vn -0 0 -1
vn -0 0 -1
vn -0 0 -1
vn -0 0 -1
vn -0 0 1
vn -0 0 1
vn -0 0 1
vn -0 0 1
vn -1 0 0
vn -1 0 0
vn -1 0 0
vn -1 0 0
vn -0 1 0
vn -0 1 0
vn -0 1 0
vn -0 1 0
vn 1 0 0
vn 1 0 0
vn 1 0 0
vn 1 0 0
vn -0 0 -1
vn -0 0 -1
vn -0 0 -1
vn -0 0 -1
vn -0 0 1
vn -0 0 1
vn -0 0 1
vn -0 0 1
vn -1 0 0
vn -1 0 0
vn -1 0 0
vn -1 0 0
vn -0 1 0
vn -0 1 0
vn -0 1 0
vn -0 1 0
vn 1 0 0
vn 1 0 0
vn 1 0 0
vn 1 0 0
vn -0 0 -1
vn -0 0 -1
vn -0 0 -1
vn -0 0 -1
vn -0 0 1
vn -0 0 1
vn -0 0 1
vn -0 0 1
vn -1 0 0
vn -1 0 0
vn -1 0 0
vn -1 0 0
vn -0 1 0
vn -0 1 0
vn -0 1 0
vn -0 1 0
vn 1 0 0
vn 1 0 0
vn 1 0 0
vn 1 0 0
vn -0 0 -1
vn -0 0 -1
vn -0 0 -1
vn -0 0 -1
vn -0 0 1
vn -0 0 1
vn -0 0 1
vn -0 0 1
vn -1 0 0
vn -1 0 0
vn -1 0 0
vn -1 0 0
vn -0 1 0
vn -0 1 0
vn -0 1 0
vn -0 1 0
vn 1 0 0
vn 1 0 0
vn 1 0 0
vn 1 0 0
vn -0 0 -1
vn -0 0 -1
vn -0 0 -1
vn -0 0 -1
vn -0 0 1
vn -0 0 1
vn -0 0 1
vn -0 0 1
vn -0 1 0
vn -0 1 0
vn -0 1 0
vn -0 1 0
vn -0 1 0
vn -0 1 0
vn -0 1 0
vn -0 1 0
g Model_0_0
f 3/3/3 2/2/2 1/1/1
f 4/4/4 3/3/3 1/1/1
f 7/7/7 6/6/6 5/5/5
f 8/8/8 7/7/7 5/5/5
f 11/11/11 10/10/10 9/9/9
f 12/12/12 11/11/11 9/9/9
f 15/15/15 14/14/14 13/13/13
f 16/16/16 15/15/15 13/13/13
f 19/19/19 18/18/18 17/17/17
f 20/20/20 19/19/19 17/17/17
f 23/23/23 22/22/22 21/21/21
f 24/24/24 23/23/23 21/21/21
f 27/27/27 26/26/26 25/25/25
f 28/28/28 27/27/27 25/25/25
f 31/31/31 30/30/30 29/29/29
f 32/32/32 31/31/31 29/29/29
f 35/35/35 34/34/34 33/33/33
f 36/36/36 35/35/35 33/33/33
f 39/39/39 38/38/38 37/37/37
f 40/40/40 39/39/39 37/37/37
f 43/43/43 42/42/42 41/41/41
f 44/44/44 43/43/43 41/41/41
f 47/47/47 46/46/46 45/45/45
f 48/48/48 47/47/47 45/45/45
f 51/51/51 50/50/50 49/49/49
f 52/52/52 51/51/51 49/49/49
f 55/55/55 54/54/54 53/53/53
f 56/56/56 55/55/55 53/53/53
f 59/59/59 58/58/58 57/57/57
f 60/60/60 59/59/59 57/57/57
f 63/63/63 62/62/62 61/61/61
f 64/64/64 63/63/63 61/61/61
f 67/67/67 66/66/66 65/65/65
f 68/68/68 67/67/67 65/65/65
f 71/71/71 70/70/70 69/69/69
f 72/72/72 71/71/71 69/69/69
f 75/75/75 74/74/74 73/73/73
f 76/76/76 75/75/75 73/73/73
f 79/79/79 78/78/78 77/77/77
f 80/80/80 79/79/79 77/77/77
f 83/83/83 82/82/82 81/81/81
f 84/84/84 83/83/83 81/81/81
f 87/87/87 86/86/86 85/85/85
f 88/88/88 87/87/87 85/85/85
f 91/91/91 90/90/90 89/89/89
f 92/92/92 91/91/91 89/89/89
f 95/95/95 94/94/94 93/93/93
f 96/96/96 95/95/95 93/93/93
f 99/99/99 98/98/98 97/97/97
f 100/100/100 99/99/99 97/97/97
f 103/103/103 102/102/102 101/101/101
f 104/104/104 103/103/103 101/101/101
f 107/107/107 106/106/106 105/105/105
f 108/108/108 107/107/107 105/105/105
f 111/111/111 110/110/110 109/109/109
f 112/112/112 111/111/111 109/109/109
f 115/115/115 114/114/114 113/113/113
f 116/116/116 115/115/115 113/113/113
f 119/119/119 118/118/118 117/117/117
f 120/120/120 119/119/119 117/117/117
f 123/123/123 122/122/122 121/121/121
f 124/124/124 123/123/123 121/121/121
f 127/127/127 126/126/126 125/125/125
f 128/128/128 127/127/127 125/125/125
f 131/131/131 130/130/130 129/129/129
f 132/132/132 131/131/131 129/129/129
f 135/135/135 134/134/134 133/133/133
f 136/136/136 135/135/135 133/133/133
f 139/139/139 138/138/138 137/137/137
f 140/140/140 139/139/139 137/137/137
f 143/143/143 142/142/142 141/141/141
f 144/144/144 143/143/143 141/141/141
f 147/147/147 146/146/146 145/145/145
f 148/148/148 147/147/147 145/145/145
f 151/151/151 150/150/150 149/149/149
f 152/152/152 151/151/151 149/149/149
f 155/155/155 154/154/154 153/153/153
f 156/156/156 155/155/155 153/153/153
f 159/159/159 158/158/158 157/157/157
f 160/160/160 159/159/159 157/157/157
f 163/163/163 162/162/162 161/161/161
f 164/164/164 163/163/163 161/161/161
f 161/161/161 162/162/162 165/165/165
f 166/166/166 163/163/163 164/164/164
f 162/162/162 167/167/167 165/165/165
f 168/168/168 166/166/166 164/164/164
f 165/165/165 167/167/167 168/168/168
f 167/167/167 166/166/166 168/168/168
