v 4.250000 -10.625000 4.874995
v -4.125000 -10.625000 4.875000
v -4.125000 0.625000 4.875000
v 4.250000 -10.625000 4.874995
v 4.250000 0.625000 4.874995
v 4.250000 0.625000 3.624995
v -4.125001 0.625000 3.625000
v -4.125001 -10.625000 3.625000
v 4.250000 0.625000 3.624995
v -4.125001 -10.625000 3.625000
v 4.250000 -10.625000 3.624995
v 4.250000 -10.625000 3.624995
v 4.250000 -10.625000 4.874995
v 4.250000 0.625000 4.874995
v 4.250000 0.625000 4.874995
v 4.250000 0.625000 3.624995
v -4.125000 0.625000 4.875000
v -4.125000 -10.625000 4.875000
v -4.125001 -10.625000 3.625000
v -4.125000 0.625000 4.875000
v -4.125001 -10.625000 3.625000
v -4.125001 0.625000 3.625000
v -4.000000 -10.500000 5.000000
v -4.000000 -10.500000 0.000000
v -4.000000 0.500000 -0.000000
v -4.000000 -10.500000 5.000000
v -4.000000 0.500000 -0.000000
v -4.000000 0.500000 5.000000
v -3.000000 0.500000 5.000000
v -3.000000 0.500000 -0.000000
v -3.000000 -10.500000 0.000000
v -3.000000 0.500000 5.000000
v -3.000000 -10.500000 5.000000
v 3.999999 0.500006 5.000000
v 3.999999 0.500006 -0.000000
v 4.000000 -10.499994 0.000000
v 3.999999 0.500006 5.000000
v 4.000000 -10.499994 5.000000
v 3.000001 -10.499995 5.000000
v 3.000001 -10.499995 0.000000
v 2.999999 0.500005 -0.000000
v 3.000001 -10.499995 5.000000
v 2.999999 0.500005 -0.000000
v 2.999999 0.500005 5.000000
v 4.250000 0.625000 4.874995
v -4.125000 0.625000 4.875000
v -4.125001 0.625000 3.625000
v 4.250000 0.625000 3.624995
v -4.000000 0.500000 5.000000
v -4.000000 0.500000 -0.000000
v -3.000000 0.500000 -0.000000
v -3.000000 0.500000 5.000000
v -3.000000 -10.500000 5.000000
v -4.000000 -10.500000 5.000000
v -4.000000 0.500000 5.000000
v -3.000000 0.500000 5.000000
v 2.999999 0.500005 5.000000
v 2.999999 0.500005 -0.000000
v 3.999999 0.500006 -0.000000
v 3.999999 0.500006 5.000000
v 2.999999 0.500005 5.000000
v 3.999999 0.500006 5.000000
v 4.000000 -10.499994 5.000000
v 3.000001 -10.499995 5.000000
vt 0.207239002 0.466228992
vt 0.269026011 0.466228992
vt 0.227172002 0.470416009
vt 0.207239002 0.466228992
vt 0.247107998 0.451835006
vt 0.248290002 0.453543991
vt 0.228440002 0.472240001
vt 0.266690999 0.458685994
vt 0.248290002 0.453543991
vt 0.266690999 0.458685994
vt 0.206747994 0.45786199
vt 0.206747994 0.45786199
vt 0.207239002 0.466228992
vt 0.247107998 0.451835006
vt 0.247107998 0.451835006
vt 0.248290002 0.453543991
vt 0.227172002 0.470416009
vt 0.269026011 0.466228992
vt 0.266690999 0.458685994
vt 0.227172002 0.470416009
vt 0.266690999 0.458685994
vt 0.228440002 0.472240001
vt 0.71440202 0.419719994
vt 0.720403016 0.439597011
vt 0.762021005 0.415951997
vt 0.71440202 0.419719994
vt 0.762021005 0.415951997
vt 0.739820004 0.41890499
vt 0.739588022 0.416693002
vt 0.760236025 0.409227997
vt 0.719552994 0.397895008
vt 0.739588022 0.416693002
vt 0.71440202 0.416386992
vt 0.739588022 0.458420008
vt 0.760236025 0.450955987
vt 0.719552994 0.439622015
vt 0.739588022 0.458420008
vt 0.71440202 0.458113998
vt 0.71440202 0.461447001
vt 0.720403016 0.481325001
vt 0.762021005 0.457679003
vt 0.71440202 0.461447001
vt 0.762021005 0.457679003
vt 0.739820004 0.46063301
vt 0.247107998 0.451835006
vt 0.227172002 0.470416009
vt 0.228440002 0.472240001
vt 0.248290002 0.453543991
vt 0.739820004 0.41890499
vt 0.762021005 0.415951997
vt 0.760236025 0.409227997
vt 0.739588022 0.416693002
vt 0.71440202 0.416386992
vt 0.71440202 0.419719994
vt 0.739820004 0.41890499
vt 0.739588022 0.416693002
vt 0.739820004 0.46063301
vt 0.762021005 0.457679003
vt 0.760236025 0.450955987
vt 0.739588022 0.458420008
vt 0.739820004 0.46063301
vt 0.739588022 0.458420008
vt 0.71440202 0.458113998
vt 0.71440202 0.461447001
vn 0.000000 0.000000 1.000000
vn 0.000000 0.000000 1.000000
vn 0.000000 0.000000 1.000000
vn 0.000000 0.000000 1.000000
vn 0.000000 0.000000 1.000000
vn 0.000000 -0.000000 -1.000000
vn 0.000000 -0.000000 -1.000000
vn 0.000000 -0.000000 -1.000000
vn 0.000000 -0.000000 -1.000000
vn 0.000000 -0.000000 -1.000000
vn 0.000000 -0.000000 -1.000000
vn 1.000000 0.000000 0.000000
vn 1.000000 0.000000 0.000000
vn 1.000000 0.000000 0.000000
vn 1.000000 0.000000 0.000000
vn 1.000000 0.000000 0.000000
vn -1.000000 0.000000 0.000000
vn -1.000000 0.000000 0.000000
vn -1.000000 0.000000 0.000000
vn -1.000000 0.000000 0.000000
vn -1.000000 0.000000 0.000000
vn -1.000000 0.000000 0.000000
vn -1.000000 0.000000 0.000000
vn -1.000000 0.000000 0.000000
vn -1.000000 0.000000 0.000000
vn -1.000000 0.000000 0.000000
vn -1.000000 0.000000 0.000000
vn -1.000000 0.000000 0.000000
vn 1.000000 0.000000 0.000000
vn 1.000000 0.000000 0.000000
vn 1.000000 0.000000 0.000000
vn 1.000000 0.000000 0.000000
vn 1.000000 0.000000 0.000000
vn 1.000000 0.000000 0.000000
vn 1.000000 0.000000 0.000000
vn 1.000000 0.000000 0.000000
vn 1.000000 0.000000 0.000000
vn 1.000000 0.000000 0.000000
vn -1.000000 0.000000 0.000000
vn -1.000000 0.000000 0.000000
vn -1.000000 0.000000 0.000000
vn -1.000000 0.000000 0.000000
vn -1.000000 0.000000 0.000000
vn -1.000000 0.000000 0.000000
vn 0.000000 1.000000 -0.000000
vn 0.000000 1.000000 -0.000000
vn 0.000000 1.000000 -0.000000
vn 0.000000 1.000000 -0.000000
vn 0.000000 1.000000 -0.000000
vn 0.000000 1.000000 -0.000000
vn 0.000000 1.000000 -0.000000
vn 0.000000 1.000000 -0.000000
vn 0.000000 0.000000 1.000000
vn 0.000000 0.000000 1.000000
vn 0.000000 0.000000 1.000000
vn 0.000000 0.000000 1.000000
vn 0.000000 1.000000 -0.000000
vn 0.000000 1.000000 -0.000000
vn 0.000000 1.000000 -0.000000
vn 0.000000 1.000000 -0.000000
vn 0.000000 0.000000 1.000000
vn 0.000000 0.000000 1.000000
vn 0.000000 0.000000 1.000000
vn 0.000000 0.000000 1.000000
f 3/3/3 2/2/2 1/1/1
f 5/5/5 3/3/3 4/4/4
f 8/8/8 7/7/7 6/6/6
f 11/11/11 10/10/10 9/9/9
f 14/14/14 13/13/13 12/12/12
f 16/16/16 15/15/15 12/12/12
f 19/19/19 18/18/18 17/17/17
f 22/22/22 21/21/21 20/20/20
f 25/25/25 24/24/24 23/23/23
f 28/28/28 27/27/27 26/26/26
f 31/31/31 30/30/30 29/29/29
f 33/33/33 31/31/31 32/32/32
f 36/36/36 35/35/35 34/34/34
f 38/38/38 36/36/36 37/37/37
f 41/41/41 40/40/40 39/39/39
f 44/44/44 43/43/43 42/42/42
f 47/47/47 46/46/46 45/45/45
f 48/48/48 47/47/47 45/45/45
f 51/51/51 50/50/50 49/49/49
f 52/52/52 51/51/51 49/49/49
f 55/55/55 54/54/54 53/53/53
f 56/56/56 55/55/55 53/53/53
f 59/59/59 58/58/58 57/57/57
f 60/60/60 59/59/59 57/57/57
f 63/63/63 62/62/62 61/61/61
f 64/64/64 63/63/63 61/61/61
