v -0.331822 -0.331818 58.270275
v -0.331822 0.331825 58.270275
v -0.331822 0.331821 62.983334
v -0.331822 -0.331821 62.983334
v -0.331822 0.331821 62.983334
v -0.331822 0.331825 58.270275
v 0.331822 0.331825 58.270275
v 0.331822 0.331821 62.983334
v 0.331822 0.331821 62.983334
v 0.331822 0.331825 58.270275
v 0.331822 -0.331818 58.270275
v 0.331822 -0.331821 62.983334
v 0.331822 -0.331821 62.983334
v 0.331822 -0.331818 58.270275
v -0.331822 -0.331818 58.270275
v -0.331822 -0.331821 62.983334
v 0.146312 -0.474060 68.883697
v -0.146304 -0.474060 68.883697
v -0.146304 0.474045 68.883697
v 0.146312 0.474052 68.883697
v 0.366964 -1.260826 66.516510
v -0.366957 -1.260826 66.516510
v -0.146304 -0.474060 68.883697
v 0.146312 -0.474060 68.883697
v -0.366957 1.260818 66.516510
v 0.366964 1.260818 66.516510
v 0.146312 0.474052 68.883697
v -0.146304 0.474045 68.883697
v -0.146304 -4.048264 65.598053
v -0.146304 -3.755287 66.499756
v 0.146312 -3.755287 66.499756
v 0.146312 -4.048264 65.598053
v 0.366964 -2.040062 64.118279
v -0.366957 -2.040062 64.118279
v -0.146304 -4.048264 65.598053
v 0.146312 -4.048264 65.598053
v 0.366964 -1.260826 66.516510
v 0.146312 -3.755287 66.499756
v -0.146304 -3.755287 66.499756
v -0.366957 -1.260826 66.516510
v 0.146312 -2.027908 61.183445
v -0.146304 -2.027908 61.183445
v -0.146304 -2.794945 61.740730
v 0.146312 -2.794945 61.740730
v -0.366957 -0.000000 62.636089
v -0.146304 -2.027908 61.183445
v 0.146312 -2.027908 61.183445
v 0.366964 -0.000000 62.636089
v 0.366964 -2.040062 64.118279
v 0.146312 -2.794945 61.740730
v -0.146304 -2.794945 61.740730
v -0.366957 -2.040062 64.118279
v 0.146312 2.794949 61.740734
v -0.146304 2.794949 61.740734
v -0.146304 2.027912 61.183445
v 0.146312 2.027912 61.183445
v 0.366964 2.040058 64.118279
v -0.366957 2.040058 64.118279
v -0.146304 2.794949 61.740734
v 0.146312 2.794949 61.740734
v 0.366964 -0.000000 62.636089
v 0.146312 2.027912 61.183445
v -0.146304 2.027912 61.183445
v -0.366957 -0.000000 62.636089
v 0.146312 3.755276 66.499756
v -0.146304 3.755276 66.499756
v -0.146304 4.048264 65.598053
v 0.146312 4.048264 65.598053
v -0.366957 1.260818 66.516510
v -0.146304 3.755276 66.499756
v 0.146312 3.755276 66.499756
v 0.366964 1.260818 66.516510
v 0.366964 2.040058 64.118279
v 0.146312 4.048264 65.598053
v -0.146304 4.048264 65.598053
v -0.366957 2.040058 64.118279
v 0.396273 -0.776077 65.849319
v -0.396266 -0.776077 65.849319
v -0.207834 -3.273987 65.844910
v 0.207841 -3.273987 65.844910
v 0.207841 -3.273987 65.844910
v -0.207834 -3.273987 65.844910
v -0.396266 -1.255722 64.373123
v 0.396274 -1.255722 64.373123
v 0.396274 -1.255722 64.373123
v -0.396266 -1.255722 64.373123
v -0.207834 -2.023438 61.996117
v 0.207841 -2.023438 61.996117
v 0.207841 -2.023438 61.996117
v -0.207834 -2.023438 61.996117
v -0.396266 -0.000000 63.460789
v 0.396273 -0.000000 63.460789
v 0.396273 -0.000000 63.460789
v -0.396266 -0.000000 63.460789
v -0.207834 2.023438 61.996117
v 0.207841 2.023438 61.996117
v 0.207841 2.023438 61.996117
v -0.207834 2.023438 61.996117
v -0.396266 1.255718 64.373123
v 0.396273 1.255718 64.373123
v -0.396266 1.255718 64.373123
v -0.207834 3.273983 65.844910
v 0.207841 3.273983 65.844910
v 0.396273 1.255718 64.373123
v 0.207841 3.273983 65.844910
v -0.207834 3.273983 65.844910
v -0.396266 0.776077 65.849319
v 0.396273 0.776077 65.849319
v 0.396273 0.776077 65.849319
v -0.396266 0.776077 65.849319
v -0.207834 -0.000008 68.223602
v 0.207841 -0.000008 68.223602
v 0.207841 -0.000008 68.223602
v -0.207834 -0.000008 68.223602
v -0.396266 -0.776077 65.849319
v 0.396273 -0.776077 65.849319
v 0.146312 0.474052 68.883697
v 0.207841 -0.000008 68.223602
v 0.146312 -0.474060 68.883697
v 0.366964 1.260818 66.516510
v 0.366964 -1.260826 66.516510
v 0.396273 0.776077 65.849319
v 0.396273 -0.776077 65.849319
v 0.207841 3.273983 65.844910
v 0.207841 -3.273987 65.844910
v 0.146312 3.755276 66.499756
v 0.146312 4.048264 65.598053
v 0.146312 -3.755287 66.499756
v 0.146312 -4.048264 65.598053
v 0.366964 2.040058 64.118279
v 0.396273 1.255718 64.373123
v 0.366964 -2.040062 64.118279
v 0.396274 -1.255722 64.373123
v 0.207841 2.023438 61.996117
v 0.207841 -2.023438 61.996117
v 0.146312 2.794949 61.740734
v 0.146312 2.027912 61.183445
v 0.146312 -2.794945 61.740730
v 0.146312 -2.027908 61.183445
v 0.366964 -0.000000 62.636089
v 0.396273 -0.000000 63.460789
v -0.366957 -0.000000 62.636089
v -0.207834 -2.023438 61.996117
v -0.146304 -2.027908 61.183445
v -0.146304 -2.794945 61.740730
v -0.366957 -2.040062 64.118279
v -0.396266 -0.000000 63.460789
v -0.396266 -1.255722 64.373123
v -0.207834 2.023438 61.996117
v -0.207834 -3.273987 65.844910
v -0.146304 2.027912 61.183445
v -0.146304 2.794949 61.740734
v -0.146304 -4.048264 65.598053
v -0.146304 -3.755287 66.499756
v -0.366957 2.040058 64.118279
v -0.396266 1.255718 64.373123
v -0.366957 -1.260826 66.516510
v -0.396266 -0.776077 65.849319
v -0.207834 3.273983 65.844910
v -0.207834 -0.000008 68.223602
v -0.146304 4.048264 65.598053
v -0.146304 3.755276 66.499756
v -0.146304 -0.474060 68.883697
v -0.146304 0.474045 68.883697
v -0.366957 1.260818 66.516510
v -0.396266 0.776077 65.849319
v 2.062504 3.984402 41.062492
v 3.375004 5.085964 49.499992
v 1.875004 5.085964 49.499992
v 0.562504 3.984402 41.062492
v 1.518389 3.647434 32.624996
v 0.007204 3.647434 32.624996
v 1.125004 3.445341 25.943180
v 0.000004 3.445341 25.943180
v 1.534928 3.660561 19.261360
v 0.013680 3.660561 19.261360
v 2.062504 3.984404 10.823865
v 0.562504 3.984404 10.823865
v 3.375004 5.085967 0.000000
v 1.875004 5.085967 0.000000
v -0.562496 3.984402 41.062492
v -1.874996 5.085964 49.499992
v -3.374996 5.085964 49.499992
v -2.062496 3.984402 41.062492
v 0.007204 3.647434 32.624996
v -1.503982 3.647434 32.624996
v 0.000004 3.445341 25.943180
v -1.124996 3.445341 25.943180
v 0.013680 3.660561 19.261360
v -1.507568 3.660561 19.261360
v -1.236756 3.984404 10.823865
v -2.736756 3.984404 10.823865
v -3.223516 5.085967 0.000000
v -4.723514 5.085967 0.000000
v -4.481873 -0.206081 41.062489
v -6.092109 0.379784 49.499989
v -5.342109 -0.919254 49.499989
v -3.731873 -1.505119 41.062489
v -3.918008 -0.533783 32.624989
v -3.162415 -1.842510 32.624989
v -3.546269 -0.748428 25.943172
v -2.983769 -1.722706 25.943172
v -3.937657 -0.548477 19.261356
v -3.177033 -1.865917 19.261353
v -4.481850 -0.206039 10.823859
v -3.731850 -1.505078 10.823858
v -6.092072 0.379852 -0.000004
v -5.342072 -0.919186 -0.000005
v -3.169373 -2.479397 41.062489
v -3.467110 -4.166847 49.499985
v -2.717110 -5.465889 49.499985
v -2.419373 -3.778435 41.062485
v -3.162415 -1.842510 32.624989
v -2.406822 -3.151233 32.624985
v -2.983769 -1.722706 25.943172
v -2.421269 -2.696985 25.943171
v -3.177033 -1.865917 19.261353
v -2.416409 -3.183355 19.261353
v -2.832220 -3.063283 10.823858
v -2.082220 -4.362322 10.823856
v -2.792812 -5.334634 -0.000010
v -2.042813 -6.633670 -0.000010
v 2.419380 -3.778435 41.062481
v 2.717118 -5.465885 49.499981
v 3.467118 -4.166847 49.499981
v 3.169381 -2.479397 41.062485
v 2.421231 -3.151233 32.624981
v 3.176823 -1.842510 32.624985
v 2.421277 -2.696985 25.943171
v 2.983777 -1.722706 25.943171
v 2.443770 -3.183355 19.261353
v 3.204393 -1.865917 19.261353
v 2.419358 -3.778395 10.823856
v 3.169358 -2.479356 10.823857
v 2.717081 -5.465819 -0.000010
v 3.467080 -4.166780 -0.000008
v 3.731880 -1.505119 41.062485
v 5.342118 -0.919254 49.499985
v 6.092118 0.379787 49.499985
v 4.481881 -0.206081 41.062485
v 3.176823 -1.842510 32.624985
v 3.932416 -0.533783 32.624985
v 2.983777 -1.722706 25.943171
v 3.546277 -0.748426 25.943171
v 3.204393 -1.865917 19.261353
v 3.965017 -0.548477 19.261353
v 4.068988 -0.921151 10.823858
v 4.818988 0.377887 10.823858
v 6.016340 0.248668 -0.000004
v 6.766339 1.547704 -0.000003
v -8.019634 -4.630196 52.872238
v -9.260279 -0.000053 52.872246
v -9.260279 -0.000053 53.878685
v -8.019634 -4.630196 53.878685
v -4.630136 -8.019691 52.872238
v -4.630136 -8.019691 53.878681
v 0.000005 -9.260334 52.872234
v 0.000005 -9.260334 53.878681
v 4.630146 -8.019688 52.872234
v 4.630146 -8.019691 53.878681
v 8.019644 -4.630191 52.872238
v 8.019644 -4.630191 53.878681
v 9.260286 -0.000050 52.872246
v 9.260286 -0.000050 53.878685
v 8.019645 4.630093 52.872250
v 8.019645 4.630093 53.878689
v 4.630145 8.019592 52.872253
v 4.630145 8.019592 53.878696
v 0.000004 9.260235 52.872250
v 0.000004 9.260230 53.878696
v -4.630143 8.019588 52.872253
v -4.630143 8.019588 53.878696
v -8.019639 4.630089 52.872250
v -8.019639 4.630089 53.878689
v -9.260279 -0.000053 52.872246
v -9.260279 -0.000053 53.878685
v -7.359653 -4.249149 48.867859
v -8.498197 -0.000050 48.867866
v -8.498197 -0.000050 49.874310
v -7.359653 -4.249149 49.874306
v -4.249094 -7.359707 48.867859
v -4.249094 -7.359707 49.874302
v 0.000005 -8.498245 48.867859
v 0.000005 -8.498249 49.874302
v 4.249104 -7.359703 48.867859
v 4.249104 -7.359707 49.874302
v 7.359662 -4.249146 48.867859
v 7.359662 -4.249149 49.874306
v 8.498204 -0.000046 48.867866
v 8.498204 -0.000046 49.874310
v 7.359663 4.249054 48.867870
v 7.359663 4.249054 49.874310
v 4.249104 7.359612 48.867874
v 4.249104 7.359612 49.874317
v 0.000004 8.498157 48.867874
v 0.000004 8.498154 49.874317
v -4.249102 7.359612 48.867874
v -4.249102 7.359607 49.874317
v -7.359657 4.249054 48.867870
v -7.359657 4.249050 49.874310
v -8.498197 -0.000050 48.867866
v -8.498197 -0.000050 49.874310
v -3.215704 0.000003 -4.500000
v -3.215704 -0.000045 49.499992
v -2.784882 -1.607898 49.499992
v -2.784883 1.607855 -4.499998
v -2.784883 1.607807 49.499992
v -1.607854 2.784885 -4.499998
v -1.607854 2.784837 49.500000
v 0.000000 3.215709 -4.499996
v 0.000000 3.215660 49.500000
v 1.607852 2.784886 -4.499998
v 1.607852 2.784841 49.500000
v 2.784883 1.607856 -4.499998
v 2.784883 1.607807 49.499992
v 3.215704 0.000004 -4.500000
v 3.215704 -0.000045 49.499992
v 2.784883 -1.607848 -4.500002
v 2.784883 -1.607894 49.499992
v 1.607852 -2.784878 -4.500000
v 1.607852 -2.784927 49.499989
v 0.000000 -3.215700 -4.500003
v 0.000000 -3.215746 49.499989
v -1.607852 -2.784878 -4.500000
v -1.607852 -2.784927 49.499989
v -2.784882 -1.607849 -4.500002
v -2.784882 -1.607898 49.499992
v -3.215704 0.000003 -4.500000
vt 0.821603894 0.96732235
vt 0.821603894 0.96732235
vt 0.821603894 0.96732235
vt 0.821603894 0.96732235
vt 0.821603894 0.96732235
vt 0.821603894 0.96732235
vt 0.821603894 0.96732235
vt 0.821603894 0.96732235
vt 0.821603894 0.96732235
vt 0.821603894 0.96732235
vt 0.821603894 0.96732235
vt 0.821603894 0.96732235
vt 0.821603894 0.96732235
vt 0.821603894 0.96732235
vt 0.821603894 0.96732235
vt 0.821603894 0.96732235
vt 0.809045911 0.713566244
vt 0.809045911 0.713566244
vt 0.809045911 0.713566244
vt 0.809045911 0.713566244
vt 0.809045911 0.713566244
vt 0.809045911 0.713566244
vt 0.809045911 0.713566244
vt 0.809045911 0.713566244
vt 0.809045911 0.713566244
vt 0.809045911 0.713566244
vt 0.809045911 0.713566244
vt 0.809045911 0.713566244
vt 0.809045911 0.713566244
vt 0.809045911 0.713566244
vt 0.809045911 0.713566244
vt 0.809045911 0.713566244
vt 0.809045911 0.713566244
vt 0.809045911 0.713566244
vt 0.809045911 0.713566244
vt 0.809045911 0.713566244
vt 0.809045911 0.713566244
vt 0.809045911 0.713566244
vt 0.809045911 0.713566244
vt 0.809045911 0.713566244
vt 0.809045911 0.713566244
vt 0.809045911 0.713566244
vt 0.809045911 0.713566244
vt 0.809045911 0.713566244
vt 0.809045911 0.713566244
vt 0.809045911 0.713566244
vt 0.809045911 0.713566244
vt 0.809045911 0.713566244
vt 0.809045911 0.713566244
vt 0.809045911 0.713566244
vt 0.809045911 0.713566244
vt 0.809045911 0.713566244
vt 0.809045911 0.713566244
vt 0.809045911 0.713566244
vt 0.809045911 0.713566244
vt 0.809045911 0.713566244
vt 0.809045911 0.713566244
vt 0.809045911 0.713566244
vt 0.809045911 0.713566244
vt 0.809045911 0.713566244
vt 0.809045911 0.713566244
vt 0.809045911 0.713566244
vt 0.809045911 0.713566244
vt 0.809045911 0.713566244
vt 0.809045911 0.713566244
vt 0.809045911 0.713566244
vt 0.809045911 0.713566244
vt 0.809045911 0.713566244
vt 0.809045911 0.713566244
vt 0.809045911 0.713566244
vt 0.809045911 0.713566244
vt 0.809045911 0.713566244
vt 0.809045911 0.713566244
vt 0.809045911 0.713566244
vt 0.809045911 0.713566244
vt 0.809045911 0.713566244
vt 0.809045911 0.713566244
vt 0.809045911 0.713566244
vt 0.809045911 0.713566244
vt 0.809045911 0.713566244
vt 0.809045911 0.713566244
vt 0.809045911 0.713566244
vt 0.809045911 0.713566244
vt 0.809045911 0.713566244
vt 0.809045911 0.713566244
vt 0.809045911 0.713566244
vt 0.809045911 0.713566244
vt 0.809045911 0.713566244
vt 0.809045911 0.713566244
vt 0.809045911 0.713566244
vt 0.809045911 0.713566244
vt 0.809045911 0.713566244
vt 0.809045911 0.713566244
vt 0.809045911 0.713566244
vt 0.809045911 0.713566244
vt 0.809045911 0.713566244
vt 0.809045911 0.713566244
vt 0.809045911 0.713566244
vt 0.809045911 0.713566244
vt 0.809045911 0.713566244
vt 0.809045911 0.713566244
vt 0.809045911 0.713566244
vt 0.809045911 0.713566244
vt 0.809045911 0.713566244
vt 0.809045911 0.713566244
vt 0.809045911 0.713566244
vt 0.809045911 0.713566244
vt 0.809045911 0.713566244
vt 0.809045911 0.713566244
vt 0.809045911 0.713566244
vt 0.809045911 0.713566244
vt 0.809045911 0.713566244
vt 0.809045911 0.713566244
vt 0.809045911 0.713566244
vt 0.809045911 0.713566244
vt 0.809045911 0.713566244
vt 0.809045911 0.713566244
vt 0.809045911 0.713566244
vt 0.809045911 0.713566244
vt 0.809045911 0.713566244
vt 0.809045911 0.713566244
vt 0.809045911 0.713566244
vt 0.809045911 0.713566244
vt 0.809045911 0.713566244
vt 0.809045911 0.713566244
vt 0.809045911 0.713566244
vt 0.809045911 0.713566244
vt 0.809045911 0.713566244
vt 0.809045911 0.713566244
vt 0.809045911 0.713566244
vt 0.809045911 0.713566244
vt 0.809045911 0.713566244
vt 0.809045911 0.713566244
vt 0.809045911 0.713566244
vt 0.809045911 0.713566244
vt 0.809045911 0.713566244
vt 0.809045911 0.713566244
vt 0.809045911 0.713566244
vt 0.809045911 0.713566244
vt 0.809045911 0.713566244
vt 0.809045911 0.713566244
vt 0.809045911 0.713566244
vt 0.809045911 0.713566244
vt 0.809045911 0.713566244
vt 0.809045911 0.713566244
vt 0.809045911 0.713566244
vt 0.809045911 0.713566244
vt 0.809045911 0.713566244
vt 0.809045911 0.713566244
vt 0.809045911 0.713566244
vt 0.809045911 0.713566244
vt 0.809045911 0.713566244
vt 0.809045911 0.713566244
vt 0.809045911 0.713566244
vt 0.809045911 0.713566244
vt 0.809045911 0.713566244
vt 0.809045911 0.713566244
vt 0.809045911 0.713566244
vt 0.809045911 0.713566244
vt 0.809045911 0.713566244
vt 0.809045911 0.713566244
vt 0.809045911 0.713566244
vt 0.809045911 0.713566244
vt 0.809045911 0.713566244
vt 0.809045911 0.713566244
vt 0.809045911 0.713566244
vt 0.391186118 3.13509679
vt 0.391186118 4.22423935
vt 0.0480864942 4.22423935
vt 0.0480864942 3.13509679
vt 0.391186118 2.05418324
vt 0.0480854958 2.05418253
vt 0.391186118 1.19859242
vt 0.0480859429 1.19859242
vt 0.391186118 0.343003184
vt 0.0480864942 0.343003184
vt 0.391186118 -0.737906933
vt 0.0480864942 -0.737906933
vt 0.391186118 -2.1304884
vt 0.0480864942 -2.1304884
vt 0.0480854958 2.59800124
vt 0.0480854958 3.68714309
vt 0.391185105 3.68714309
vt 0.391185105 2.59800029
vt 0.0480865091 1.5170877
vt 0.391185105 1.5170877
vt 0.0480860472 0.661497653
vt 0.391185105 0.661497235
vt 0.0480854958 -0.194091618
vt 0.391185105 -0.194091618
vt 0.0480854958 -1.27500021
vt 0.391185105 -1.27500021
vt 0.0480854958 -2.66757464
vt 0.391185105 -2.66757464
vt 0.391186118 3.13509679
vt 0.391186118 4.22423935
vt 0.0480864942 4.22423935
vt 0.0480864942 3.13509679
vt 0.391186118 2.05418324
vt 0.0480854958 2.05418253
vt 0.391186118 1.19859242
vt 0.0480859429 1.19859242
vt 0.391186118 0.343003184
vt 0.0480864942 0.343003184
vt 0.391186118 -0.737906933
vt 0.0480864942 -0.737906933
vt 0.391186118 -2.1304884
vt 0.0480864942 -2.1304884
vt 0.0480854958 2.59800124
vt 0.0480854958 3.68714309
vt 0.391185105 3.68714309
vt 0.391185105 2.59800029
vt 0.0480865091 1.5170877
vt 0.391185105 1.5170877
vt 0.0480860472 0.661497653
vt 0.391185105 0.661497235
vt 0.0480854958 -0.194091618
vt 0.391185105 -0.194091618
vt 0.0480854958 -1.27500021
vt 0.391185105 -1.27500021
vt 0.0480854958 -2.66757464
vt 0.391185105 -2.66757464
vt 0.391186118 3.13509679
vt 0.391186118 4.22423935
vt 0.0480864942 4.22423935
vt 0.0480864942 3.13509679
vt 0.391186118 2.05418324
vt 0.0480854958 2.05418253
vt 0.391186118 1.19859242
vt 0.0480859429 1.19859242
vt 0.391186118 0.343003184
vt 0.0480864942 0.343003184
vt 0.391186118 -0.737906933
vt 0.0480864942 -0.737906933
vt 0.391186118 -2.1304884
vt 0.0480864942 -2.1304884
vt 0.0480854958 2.59800124
vt 0.0480854958 3.68714309
vt 0.391185105 3.68714309
vt 0.391185105 2.59800029
vt 0.0480865091 1.5170877
vt 0.391185105 1.5170877
vt 0.0480860472 0.661497653
vt 0.391185105 0.661497235
vt 0.0480854958 -0.194091618
vt 0.391185105 -0.194091618
vt 0.0480854958 -1.27500021
vt 0.391185105 -1.27500021
vt 0.0480854958 -2.66757464
vt 0.391185105 -2.66757464
vt 0.381731391 -2.95275998
vt 0.3817316 -3.67365313
vt 0.043879509 -3.67365313
vt 0.043879509 -2.95275998
vt 0.381731868 -2.23186731
vt 0.0438797474 -2.23186731
vt 0.381731689 -1.51097631
vt 0.0438796282 -1.51097631
vt 0.381732553 -0.790086627
vt 0.0438803881 -0.790085912
vt 0.381732345 -0.0691953897
vt 0.0438802093 -0.0691948533
vt 0.381732881 0.65169853
vt 0.0438808054 0.651699066
vt 0.381733179 1.37259376
vt 0.0438811183 1.37259376
vt 0.38173306 2.09349012
vt 0.0438810438 2.09349012
vt 0.381733596 2.8143878
vt 0.0438814014 2.8143878
vt 0.381733358 3.53528666
vt 0.0438812226 3.53528666
vt 0.381733596 4.25618267
vt 0.0438815206 4.25618362
vt 0.381733239 4.97707796
vt 0.0438811779 4.97707796
vt 0.382487625 -2.96889544
vt 0.382487804 -3.69301558
vt 0.0431233048 -3.69301558
vt 0.0431233048 -2.96889544
vt 0.382488072 -2.24477553
vt 0.0431235582 -2.24477553
vt 0.382487953 -1.52065754
vt 0.0431234241 -1.52065754
vt 0.382488728 -0.796540856
vt 0.0431241989 -0.79654026
vt 0.382488549 -0.0724225044
vt 0.0431240201 -0.0724220276
vt 0.382489085 0.65169847
vt 0.0431246161 0.651699007
vt 0.382489443 1.37582076
vt 0.0431248993 1.37582076
vt 0.382489324 2.09994411
vt 0.0431248546 2.09994411
vt 0.382489741 2.82406878
vt 0.0431252122 2.82406878
vt 0.382489562 3.54819489
vt 0.0431250334 3.54819489
vt 0.382489741 4.27231789
vt 0.0431253314 4.27231884
vt 0.382489443 4.99644041
vt 0.0431249887 4.99644041
vt -5.23198986 8.43212509
vt 7.91250753 14.1499443
vt 8.05770588 14.0664959
vt -5.37718821 8.5155735
vt 7.76731014 14.2333918
vt -5.52238703 8.59902191
vt 7.62211132 14.3168411
vt -5.66758633 8.68247032
vt 7.47691154 14.4002886
vt -5.81278324 8.76591682
vt 7.3317132 14.483736
vt -5.95798302 8.84936619
vt 7.18651438 14.5671844
vt -6.10318136 8.93281364
vt 7.04131603 14.6506319
vt -6.24837923 9.01626205
vt 6.89611816 14.7340813
vt -6.39357948 9.09970951
vt 6.7509203 14.8175278
vt -6.53877735 9.18315697
vt 6.60572004 14.9009762
vt -6.68397522 9.26660633
vt 6.46052217 14.9844246
vt -6.82917452 9.35005379
vt 6.31532383 15.067873
vt -6.97437382 9.4335022
vn -1.000000 0.000000 0.000000
vn -1.000000 0.000000 0.000000
vn -1.000000 0.000000 0.000000
vn -1.000000 0.000000 0.000000
vn 0.000000 1.000000 0.000000
vn 0.000000 1.000000 0.000000
vn 0.000000 1.000000 0.000000
vn 0.000000 1.000000 0.000000
vn 1.000000 0.000000 0.000000
vn 1.000000 0.000000 0.000000
vn 1.000000 0.000000 0.000000
vn 1.000000 0.000000 0.000000
vn 0.000000 -1.000000 -0.000000
vn 0.000000 -1.000000 -0.000000
vn 0.000000 -1.000000 -0.000000
vn 0.000000 -1.000000 -0.000000
vn 0.000000 -0.000000 1.000000
vn 0.000000 -0.000000 1.000000
vn 0.000000 -0.000000 1.000000
vn 0.000000 -0.000000 1.000000
vn 0.000000 -0.948959 0.315399
vn 0.000000 -0.948959 0.315399
vn 0.000000 -0.948959 0.315399
vn 0.000000 -0.948959 0.315399
vn -0.000012 0.948958 0.315402
vn 0.000000 0.948959 0.315399
vn -0.000012 0.948958 0.315402
vn -0.000025 0.948958 0.315404
vn 0.000000 -0.951058 0.309012
vn 0.000000 -0.951058 0.309012
vn 0.000000 -0.951058 0.309012
vn 0.000000 -0.951058 0.309012
vn 0.000000 -0.593211 -0.805047
vn 0.000000 -0.593211 -0.805047
vn 0.000000 -0.593211 -0.805047
vn 0.000000 -0.593211 -0.805047
vn 0.000000 -0.006716 0.999977
vn 0.000000 -0.006716 0.999977
vn 0.000000 -0.006716 0.999977
vn 0.000000 -0.006716 0.999977
vn 0.000000 -0.587786 -0.809017
vn 0.000000 -0.587786 -0.809017
vn 0.000000 -0.587786 -0.809017
vn 0.000000 -0.587786 -0.809017
vn 0.000000 0.582335 -0.812949
vn 0.000000 0.582335 -0.812949
vn 0.000000 0.582335 -0.812949
vn 0.000000 0.582335 -0.812949
vn 0.000000 -0.953112 0.302618
vn 0.000000 -0.953112 0.302618
vn 0.000000 -0.953112 0.302618
vn 0.000000 -0.953112 0.302618
vn 0.000000 0.587789 -0.809014
vn 0.000000 0.587789 -0.809014
vn 0.000000 0.587789 -0.809014
vn 0.000000 0.587789 -0.809014
vn 0.000000 0.953111 0.302622
vn 0.000000 0.953111 0.302621
vn 0.000000 0.953111 0.302622
vn 0.000000 0.953111 0.302622
vn 0.000000 -0.582335 -0.812949
vn 0.000000 -0.582335 -0.812949
vn 0.000000 -0.582335 -0.812949
vn 0.000000 -0.582335 -0.812949
vn 0.000000 0.951055 0.309023
vn 0.000000 0.951055 0.309023
vn 0.000000 0.951055 0.309023
vn 0.000000 0.951055 0.309023
vn 0.000000 0.006716 0.999977
vn 0.000000 0.006716 0.999977
vn 0.000000 0.006716 0.999977
vn 0.000000 0.006716 0.999977
vn 0.000000 0.593211 -0.805047
vn 0.000000 0.593211 -0.805047
vn 0.000000 0.593211 -0.805047
vn 0.000000 0.593211 -0.805047
vn 0.000000 0.001765 -0.999998
vn 0.000000 0.001765 -0.999998
vn 0.000000 0.001765 -0.999998
vn 0.000000 0.001765 -0.999998
vn 0.000000 0.589208 0.807982
vn 0.000000 0.589208 0.807982
vn 0.000000 0.589208 0.807982
vn 0.000000 0.589208 0.807982
vn 0.000000 0.951599 -0.307343
vn 0.000000 0.951599 -0.307343
vn 0.000000 0.951599 -0.307343
vn 0.000000 0.951599 -0.307343
vn 0.000000 -0.586359 0.810051
vn 0.000000 -0.586359 0.810051
vn 0.000000 -0.586359 0.810051
vn 0.000000 -0.586359 0.810051
vn 0.000000 0.586359 0.810051
vn 0.000000 0.586359 0.810051
vn 0.000000 0.586359 0.810051
vn 0.000000 0.586359 0.810051
vn 0.000000 -0.951598 -0.307345
vn 0.000000 -0.951598 -0.307345
vn 0.000000 -0.951598 -0.307345
vn 0.000000 -0.951598 -0.307345
vn 0.000000 -0.589208 0.807982
vn 0.000000 -0.589208 0.807982
vn 0.000000 -0.589208 0.807982
vn 0.000000 -0.589208 0.807982
vn 0.000000 -0.001765 -0.999998
vn 0.000000 -0.001765 -0.999998
vn 0.000000 -0.001765 -0.999998
vn 0.000000 -0.001765 -0.999998
vn 0.000000 -0.950510 -0.310694
vn 0.000000 -0.950510 -0.310694
vn 0.000000 -0.950510 -0.310694
vn 0.000000 -0.950510 -0.310694
vn 0.000000 0.950512 -0.310689
vn 0.000000 0.950512 -0.310689
vn 0.000000 0.950512 -0.310689
vn 0.000000 0.950512 -0.310689
vn 0.995684 -0.000000 0.092811
vn 0.996551 -0.000000 0.082980
vn 0.995684 -0.000000 0.092811
vn 0.998466 0.032549 0.044800
vn 0.998466 -0.032549 0.044800
vn 0.999369 0.020877 0.028734
vn 0.999369 -0.020877 0.028734
vn 0.996551 0.078918 0.025642
vn 0.996551 -0.078918 0.025642
vn 0.995684 0.088267 0.028680
vn 0.995684 0.088267 0.028681
vn 0.995684 -0.088267 0.028679
vn 0.995684 -0.088267 0.028680
vn 0.998466 0.052665 -0.017112
vn 0.999369 0.033779 -0.010975
vn 0.998466 -0.052665 -0.017112
vn 0.999369 -0.033779 -0.010975
vn 0.996551 0.048774 -0.067132
vn 0.996551 -0.048774 -0.067132
vn 0.995684 0.054553 -0.075085
vn 0.995684 0.054553 -0.075085
vn 0.995684 -0.054553 -0.075085
vn 0.995684 -0.054553 -0.075085
vn 0.998466 0.000000 -0.055376
vn 0.999369 0.000000 -0.035517
vn -0.998466 0.000000 -0.055376
vn -0.996551 -0.048774 -0.067132
vn -0.995684 -0.054553 -0.075085
vn -0.995684 -0.054553 -0.075085
vn -0.998466 -0.052665 -0.017112
vn -0.999369 0.000000 -0.035517
vn -0.999369 -0.033779 -0.010975
vn -0.996551 0.048774 -0.067132
vn -0.996551 -0.078918 0.025642
vn -0.995684 0.054553 -0.075085
vn -0.995684 0.054553 -0.075085
vn -0.995684 -0.088268 0.028680
vn -0.995684 -0.088268 0.028679
vn -0.998466 0.052665 -0.017112
vn -0.999369 0.033779 -0.010975
vn -0.998466 -0.032549 0.044800
vn -0.999369 -0.020877 0.028734
vn -0.996551 0.078918 0.025642
vn -0.996551 -0.000000 0.082980
vn -0.995684 0.088267 0.028680
vn -0.995684 0.088268 0.028680
vn -0.995684 -0.000000 0.092811
vn -0.995684 -0.000000 0.092811
vn -0.998466 0.032549 0.044800
vn -0.999369 0.020877 0.028734
vn 0.000000 0.995018 -0.099696
vn 0.000000 0.991585 -0.129457
vn 0.000000 0.991585 -0.129457
vn 0.000000 0.997560 -0.069818
vn 0.000000 0.999327 -0.036681
vn 0.000000 0.999385 -0.035069
vn 0.000000 0.999956 -0.009427
vn 0.000000 1.000000 0.000981
vn 0.000000 0.999413 0.034247
vn 0.000000 0.999378 0.035273
vn 0.000000 0.998238 0.059345
vn 0.000000 0.996769 0.080319
vn 0.000000 0.994861 0.101249
vn 0.000000 0.994861 0.101249
vn 0.000000 0.995018 -0.099696
vn 0.000000 0.991585 -0.129457
vn 0.000000 0.991585 -0.129457
vn 0.000000 0.997560 -0.069818
vn 0.000000 0.999385 -0.035069
vn 0.000000 0.999440 -0.033456
vn 0.000000 1.000000 0.000981
vn 0.000000 0.999935 0.011390
vn 0.000000 0.999378 0.035273
vn 0.000000 0.999341 0.036300
vn 0.000000 0.998238 0.059345
vn 0.000000 0.996769 0.080319
vn 0.000000 0.994861 0.101249
vn 0.000000 0.994861 0.101249
vn -0.861753 -0.497533 -0.099207
vn -0.858738 -0.495792 -0.129458
vn -0.858738 -0.495792 -0.129458
vn -0.863971 -0.498814 -0.068835
vn -0.865454 -0.499670 -0.036319
vn -0.865487 -0.499689 -0.035265
vn -0.865986 -0.499978 -0.009492
vn -0.866024 -0.499999 0.001821
vn -0.865474 -0.499682 0.035675
vn -0.865475 -0.499682 0.035642
vn -0.864594 -0.499173 0.057471
vn -0.863292 -0.498422 0.079383
vn -0.861575 -0.497431 0.101247
vn -0.861575 -0.497431 0.101247
vn -0.861753 -0.497533 -0.099207
vn -0.858738 -0.495792 -0.129458
vn -0.858738 -0.495792 -0.129458
vn -0.863971 -0.498814 -0.068835
vn -0.865487 -0.499689 -0.035265
vn -0.865518 -0.499708 -0.034211
vn -0.866024 -0.499999 0.001821
vn -0.865951 -0.499957 0.013134
vn -0.865475 -0.499682 0.035642
vn -0.865476 -0.499683 0.035608
vn -0.864594 -0.499174 0.057471
vn -0.863292 -0.498422 0.079383
vn -0.861575 -0.497431 0.101247
vn -0.861575 -0.497431 0.101247
vn 0.861795 -0.497558 -0.098717
vn 0.858738 -0.495792 -0.129458
vn 0.858738 -0.495792 -0.129458
vn 0.864030 -0.498848 -0.067853
vn 0.865465 -0.499677 -0.035957
vn 0.865481 -0.499685 -0.035459
vn 0.865986 -0.499977 -0.009556
vn 0.866023 -0.499998 0.002659
vn 0.865429 -0.499655 0.037100
vn 0.865464 -0.499675 0.036009
vn 0.864686 -0.499226 0.055604
vn 0.863356 -0.498459 0.078452
vn 0.861575 -0.497430 0.101247
vn 0.861575 -0.497430 0.101247
vn 0.861795 -0.497557 -0.098717
vn 0.858738 -0.495791 -0.129459
vn 0.858738 -0.495792 -0.129458
vn 0.864030 -0.498848 -0.067853
vn 0.865481 -0.499685 -0.035459
vn 0.865496 -0.499694 -0.034961
vn 0.866023 -0.499998 0.002659
vn 0.865930 -0.499944 0.014874
vn 0.865464 -0.499675 0.036009
vn 0.865497 -0.499695 0.034919
vn 0.864686 -0.499226 0.055604
vn 0.863356 -0.498459 0.078452
vn 0.861575 -0.497431 0.101247
vn 0.861575 -0.497431 0.101247
vn -0.866025 -0.500000 -0.000000
vn -1.000000 0.000000 0.000000
vn -1.000000 0.000000 0.000000
vn -0.866025 -0.500000 -0.000000
vn -0.500000 -0.866026 -0.000000
vn -0.500000 -0.866026 -0.000000
vn 0.000000 -1.000000 -0.000000
vn 0.000000 -1.000000 -0.000000
vn 0.500000 -0.866025 -0.000000
vn 0.500000 -0.866025 -0.000000
vn 0.866025 -0.500000 -0.000000
vn 0.866025 -0.500000 -0.000000
vn 1.000000 0.000000 0.000000
vn 1.000000 0.000000 0.000000
vn 0.866025 0.500000 0.000000
vn 0.866025 0.500000 0.000000
vn 0.500000 0.866025 0.000000
vn 0.500000 0.866025 0.000000
vn 0.000000 1.000000 0.000000
vn 0.000000 1.000000 0.000000
vn -0.500000 0.866025 0.000000
vn -0.500000 0.866025 0.000000
vn -0.866026 0.499999 0.000000
vn -0.866026 0.499999 0.000000
vn -1.000000 0.000000 0.000000
vn -1.000000 0.000000 0.000000
vn -0.866025 -0.500000 -0.000000
vn -1.000000 0.000000 0.000000
vn -1.000000 0.000000 0.000000
vn -0.866025 -0.500000 -0.000000
vn -0.500000 -0.866026 -0.000000
vn -0.500000 -0.866026 -0.000000
vn 0.000000 -1.000000 -0.000000
vn 0.000000 -1.000000 -0.000000
vn 0.500000 -0.866025 -0.000000
vn 0.500000 -0.866025 -0.000000
vn 0.866025 -0.500000 -0.000000
vn 0.866025 -0.500000 -0.000000
vn 1.000000 0.000000 0.000000
vn 1.000000 0.000000 0.000000
vn 0.866025 0.500000 0.000000
vn 0.866025 0.500000 0.000000
vn 0.500000 0.866025 0.000000
vn 0.500000 0.866025 0.000000
vn 0.000000 1.000000 0.000000
vn 0.000000 1.000000 0.000000
vn -0.500000 0.866025 0.000000
vn -0.500000 0.866025 0.000000
vn -0.866026 0.499999 0.000000
vn -0.866026 0.499999 0.000000
vn -1.000000 0.000000 0.000000
vn -1.000000 0.000000 0.000000
vn -0.996035 -0.088963 -0.000000
vn -0.996035 0.088962 0.000000
vn -0.907073 -0.420974 -0.000000
vn -0.907073 0.420973 0.000000
vn -0.818111 0.575061 0.000000
vn -0.575061 0.818110 0.000000
vn -0.420974 0.907073 0.000000
vn -0.088962 0.996035 0.000000
vn 0.088962 0.996035 0.000000
vn 0.420973 0.907073 0.000000
vn 0.575061 0.818111 0.000000
vn 0.818111 0.575061 0.000000
vn 0.907073 0.420973 0.000000
vn 0.996035 0.088962 0.000000
vn 0.996035 -0.088962 -0.000000
vn 0.907073 -0.420974 -0.000000
vn 0.818111 -0.575061 -0.000000
vn 0.575061 -0.818110 -0.000000
vn 0.420974 -0.907073 -0.000000
vn 0.088962 -0.996035 -0.000000
vn -0.088962 -0.996035 -0.000000
vn -0.420973 -0.907073 -0.000000
vn -0.575060 -0.818111 -0.000000
vn -0.818110 -0.575061 -0.000000
vn -0.907073 -0.420974 -0.000000
vn -0.996035 -0.088963 -0.000000
f 3/3/3 2/2/2 1/1/1
f 4/4/4 3/3/3 1/1/1
f 7/7/7 6/6/6 5/5/5
f 8/8/8 7/7/7 5/5/5
f 11/11/11 10/10/10 9/9/9
f 12/12/12 11/11/11 9/9/9
f 15/15/15 14/14/14 13/13/13
f 16/16/16 15/15/15 13/13/13
f 19/19/19 18/18/18 17/17/17
f 20/20/20 19/19/19 17/17/17
f 23/23/23 22/22/22 21/21/21
f 24/24/24 23/23/23 21/21/21
f 27/27/27 26/26/26 25/25/25
f 28/28/28 27/27/27 25/25/25
f 31/31/31 30/30/30 29/29/29
f 32/32/32 31/31/31 29/29/29
f 35/35/35 34/34/34 33/33/33
f 36/36/36 35/35/35 33/33/33
f 39/39/39 38/38/38 37/37/37
f 40/40/40 39/39/39 37/37/37
f 43/43/43 42/42/42 41/41/41
f 44/44/44 43/43/43 41/41/41
f 47/47/47 46/46/46 45/45/45
f 48/48/48 47/47/47 45/45/45
f 51/51/51 50/50/50 49/49/49
f 52/52/52 51/51/51 49/49/49
f 55/55/55 54/54/54 53/53/53
f 56/56/56 55/55/55 53/53/53
f 59/59/59 58/58/58 57/57/57
f 60/60/60 59/59/59 57/57/57
f 63/63/63 62/62/62 61/61/61
f 64/64/64 63/63/63 61/61/61
f 67/67/67 66/66/66 65/65/65
f 68/68/68 67/67/67 65/65/65
f 71/71/71 70/70/70 69/69/69
f 72/72/72 71/71/71 69/69/69
f 75/75/75 74/74/74 73/73/73
f 76/76/76 75/75/75 73/73/73
f 79/79/79 78/78/78 77/77/77
f 80/80/80 79/79/79 77/77/77
f 83/83/83 82/82/82 81/81/81
f 84/84/84 83/83/83 81/81/81
f 87/87/87 86/86/86 85/85/85
f 88/88/88 87/87/87 85/85/85
f 91/91/91 90/90/90 89/89/89
f 92/92/92 91/91/91 89/89/89
f 95/95/95 94/94/94 93/93/93
f 96/96/96 95/95/95 93/93/93
f 99/99/99 98/98/98 97/97/97
f 100/100/100 99/99/99 97/97/97
f 103/103/103 102/102/102 101/101/101
f 104/104/104 103/103/103 101/101/101
f 107/107/107 106/106/106 105/105/105
f 108/108/108 107/107/107 105/105/105
f 111/111/111 110/110/110 109/109/109
f 112/112/112 111/111/111 109/109/109
f 115/115/115 114/114/114 113/113/113
f 116/116/116 115/115/115 113/113/113
f 119/119/119 118/118/118 117/117/117
f 117/117/117 118/118/118 120/120/120
f 121/121/121 118/118/118 119/119/119
f 122/122/122 120/120/120 118/118/118
f 123/123/123 118/118/118 121/121/121
f 122/122/122 124/124/124 120/120/120
f 123/123/123 121/121/121 125/125/125
f 120/120/120 124/124/124 126/126/126
f 126/126/126 124/124/124 127/127/127
f 128/128/128 125/125/125 121/121/121
f 129/129/129 125/125/125 128/128/128
f 127/127/127 124/124/124 130/130/130
f 131/131/131 130/130/130 124/124/124
f 132/132/132 125/125/125 129/129/129
f 133/133/133 125/125/125 132/132/132
f 131/131/131 134/134/134 130/130/130
f 133/133/133 132/132/132 135/135/135
f 130/130/130 134/134/134 136/136/136
f 136/136/136 134/134/134 137/137/137
f 138/138/138 135/135/135 132/132/132
f 139/139/139 135/135/135 138/138/138
f 137/137/137 134/134/134 140/140/140
f 140/140/140 135/135/135 139/139/139
f 141/141/141 140/140/140 134/134/134
f 141/141/141 135/135/135 140/140/140
f 144/144/144 143/143/143 142/142/142
f 145/145/145 143/143/143 144/144/144
f 146/146/146 143/143/143 145/145/145
f 147/147/147 142/142/142 143/143/143
f 148/148/148 143/143/143 146/146/146
f 147/147/147 149/149/149 142/142/142
f 148/148/148 146/146/146 150/150/150
f 142/142/142 149/149/149 151/151/151
f 151/151/151 149/149/149 152/152/152
f 153/153/153 150/150/150 146/146/146
f 154/154/154 150/150/150 153/153/153
f 152/152/152 149/149/149 155/155/155
f 156/156/156 155/155/155 149/149/149
f 157/157/157 150/150/150 154/154/154
f 158/158/158 150/150/150 157/157/157
f 156/156/156 159/159/159 155/155/155
f 158/158/158 157/157/157 160/160/160
f 155/155/155 159/159/159 161/161/161
f 161/161/161 159/159/159 162/162/162
f 163/163/163 160/160/160 157/157/157
f 164/164/164 160/160/160 163/163/163
f 162/162/162 159/159/159 165/165/165
f 165/165/165 160/160/160 164/164/164
f 166/166/166 165/165/165 159/159/159
f 166/166/166 160/160/160 165/165/165
f 169/169/169 168/168/168 167/167/167
f 170/170/170 169/169/169 167/167/167
f 170/170/170 167/167/167 171/171/171
f 172/172/172 170/170/170 171/171/171
f 171/171/171 173/173/173 172/172/172
f 173/173/173 174/174/174 172/172/172
f 173/173/173 175/175/175 174/174/174
f 175/175/175 176/176/176 174/174/174
f 175/175/175 177/177/177 176/176/176
f 177/177/177 178/178/178 176/176/176
f 177/177/177 179/179/179 178/178/178
f 179/179/179 180/180/180 178/178/178
f 183/183/183 182/182/182 181/181/181
f 184/184/184 183/183/183 181/181/181
f 184/184/184 181/181/181 185/185/185
f 186/186/186 184/184/184 185/185/185
f 185/185/185 187/187/187 186/186/186
f 187/187/187 188/188/188 186/186/186
f 187/187/187 189/189/189 188/188/188
f 189/189/189 190/190/190 188/188/188
f 189/189/189 191/191/191 190/190/190
f 191/191/191 192/192/192 190/190/190
f 191/191/191 193/193/193 192/192/192
f 193/193/193 194/194/194 192/192/192
f 197/197/197 196/196/196 195/195/195
f 198/198/198 197/197/197 195/195/195
f 198/198/198 195/195/195 199/199/199
f 200/200/200 198/198/198 199/199/199
f 199/199/199 201/201/201 200/200/200
f 201/201/201 202/202/202 200/200/200
f 201/201/201 203/203/203 202/202/202
f 203/203/203 204/204/204 202/202/202
f 203/203/203 205/205/205 204/204/204
f 205/205/205 206/206/206 204/204/204
f 205/205/205 207/207/207 206/206/206
f 207/207/207 208/208/208 206/206/206
f 211/211/211 210/210/210 209/209/209
f 212/212/212 211/211/211 209/209/209
f 212/212/212 209/209/209 213/213/213
f 214/214/214 212/212/212 213/213/213
f 213/213/213 215/215/215 214/214/214
f 215/215/215 216/216/216 214/214/214
f 215/215/215 217/217/217 216/216/216
f 217/217/217 218/218/218 216/216/216
f 217/217/217 219/219/219 218/218/218
f 219/219/219 220/220/220 218/218/218
f 219/219/219 221/221/221 220/220/220
f 221/221/221 222/222/222 220/220/220
f 225/225/225 224/224/224 223/223/223
f 226/226/226 225/225/225 223/223/223
f 226/226/226 223/223/223 227/227/227
f 228/228/228 226/226/226 227/227/227
f 227/227/227 229/229/229 228/228/228
f 229/229/229 230/230/230 228/228/228
f 229/229/229 231/231/231 230/230/230
f 231/231/231 232/232/232 230/230/230
f 231/231/231 233/233/233 232/232/232
f 233/233/233 234/234/234 232/232/232
f 233/233/233 235/235/235 234/234/234
f 235/235/235 236/236/236 234/234/234
f 239/239/239 238/238/238 237/237/237
f 240/240/240 239/239/239 237/237/237
f 240/240/240 237/237/237 241/241/241
f 242/242/242 240/240/240 241/241/241
f 241/241/241 243/243/243 242/242/242
f 243/243/243 244/244/244 242/242/242
f 243/243/243 245/245/245 244/244/244
f 245/245/245 246/246/246 244/244/244
f 245/245/245 247/247/247 246/246/246
f 247/247/247 248/248/248 246/246/246
f 247/247/247 249/249/249 248/248/248
f 249/249/249 250/250/250 248/248/248
f 253/253/253 252/252/252 251/251/251
f 254/254/254 253/253/253 251/251/251
f 254/254/254 251/251/251 255/255/255
f 256/256/256 254/254/254 255/255/255
f 256/256/256 255/255/255 257/257/257
f 258/258/258 256/256/256 257/257/257
f 258/258/258 257/257/257 259/259/259
f 260/260/260 258/258/258 259/259/259
f 260/260/260 259/259/259 261/261/261
f 262/262/262 260/260/260 261/261/261
f 262/262/262 261/261/261 263/263/263
f 264/264/264 262/262/262 263/263/263
f 264/264/264 263/263/263 265/265/265
f 266/266/266 264/264/264 265/265/265
f 266/266/266 265/265/265 267/267/267
f 268/268/268 266/266/266 267/267/267
f 268/268/268 267/267/267 269/269/269
f 270/270/270 268/268/268 269/269/269
f 270/270/270 269/269/269 271/271/271
f 272/272/272 270/270/270 271/271/271
f 272/272/272 271/271/271 273/273/273
f 274/274/274 272/272/272 273/273/273
f 274/274/274 273/273/273 275/275/275
f 276/276/276 274/274/274 275/275/275
f 279/279/279 278/278/278 277/277/277
f 280/280/280 279/279/279 277/277/277
f 280/280/280 277/277/277 281/281/281
f 282/282/282 280/280/280 281/281/281
f 282/282/282 281/281/281 283/283/283
f 284/284/284 282/282/282 283/283/283
f 284/284/284 283/283/283 285/285/285
f 286/286/286 284/284/284 285/285/285
f 286/286/286 285/285/285 287/287/287
f 288/288/288 286/286/286 287/287/287
f 288/288/288 287/287/287 289/289/289
f 290/290/290 288/288/288 289/289/289
f 290/290/290 289/289/289 291/291/291
f 292/292/292 290/290/290 291/291/291
f 292/292/292 291/291/291 293/293/293
f 294/294/294 292/292/292 293/293/293
f 294/294/294 293/293/293 295/295/295
f 296/296/296 294/294/294 295/295/295
f 296/296/296 295/295/295 297/297/297
f 298/298/298 296/296/296 297/297/297
f 298/298/298 297/297/297 299/299/299
f 300/300/300 298/298/298 299/299/299
f 300/300/300 299/299/299 301/301/301
f 302/302/302 300/300/300 301/301/301
f 305/305/305 304/304/304 303/303/303
f 303/303/303 304/304/304 306/306/306
f 304/304/304 307/307/307 306/306/306
f 308/308/308 306/306/306 307/307/307
f 309/309/309 308/308/308 307/307/307
f 310/310/310 308/308/308 309/309/309
f 311/311/311 310/310/310 309/309/309
f 312/312/312 310/310/310 311/311/311
f 313/313/313 312/312/312 311/311/311
f 314/314/314 312/312/312 313/313/313
f 315/315/315 314/314/314 313/313/313
f 314/314/314 315/315/315 316/316/316
f 315/315/315 317/317/317 316/316/316
f 316/316/316 317/317/317 318/318/318
f 317/317/317 319/319/319 318/318/318
f 320/320/320 318/318/318 319/319/319
f 321/321/321 320/320/320 319/319/319
f 322/322/322 320/320/320 321/321/321
f 323/323/323 322/322/322 321/321/321
f 322/322/322 323/323/323 324/324/324
f 323/323/323 325/325/325 324/324/324
f 326/326/326 324/324/324 325/325/325
f 327/327/327 326/326/326 325/325/325
f 326/326/326 327/327/327 328/328/328
