v 0.167538 -0.234202 -0.314423
v -0.190652 -0.234202 -0.314423
v -0.190652 -0.234202 0.190269
v 0.167538 -0.234202 0.190269
v 0.099587 0.148503 -0.039263
v 0.099587 -0.148503 -0.039263
v -0.205423 -0.148503 -0.039263
v -0.205423 0.148503 -0.039263
v -0.190652 0.234202 -0.314423
v 0.167538 0.234202 -0.314423
v 0.167538 0.234202 0.190269
v -0.190652 0.234202 0.190269
v 0.167538 0.234202 -0.314423
v 0.167538 -0.234202 -0.314423
v 0.167538 -0.234202 0.190269
v 0.167538 0.234202 0.190269
v -0.203157 0.245711 0.240418
v 0.180042 0.245711 0.240418
v 0.180042 -0.245711 0.240418
v -0.203156 -0.245711 0.240418
v 0.180042 -0.245711 0.190269
v 0.180042 -0.245711 0.240418
v 0.180042 0.245711 0.240418
v 0.180042 0.245711 0.190269
v -0.203157 0.245711 0.190269
v -0.203157 0.245711 0.240418
v -0.203156 -0.245711 0.240418
v -0.203156 -0.245711 0.190269
v 0.180042 0.245711 0.190269
v 0.180042 0.245711 0.240418
v -0.203157 0.245711 0.240418
v -0.203157 0.245711 0.190269
v -0.203156 -0.245711 0.190269
v -0.203156 -0.245711 0.240418
v 0.180042 -0.245711 0.240418
v 0.180042 -0.245711 0.190269
v 0.099587 -0.164507 -0.314423
v 0.099587 0.164507 -0.314423
v 0.099587 0.164507 -0.170326
v 0.099587 -0.164507 -0.170326
v -0.190652 -0.164507 -0.170326
v 0.099587 -0.164507 -0.170326
v 0.099587 0.164507 -0.170326
v -0.190652 0.164507 -0.170326
v -0.190652 -0.164507 -0.314423
v 0.099587 -0.164507 -0.314423
v 0.099587 -0.164507 -0.170326
v -0.190652 -0.164507 -0.170326
v -0.190652 0.164507 -0.170326
v 0.099587 0.164507 -0.170326
v 0.099587 0.164507 -0.314423
v -0.190652 0.164507 -0.314423
v 0.099587 -0.148503 0.063634
v 0.099587 -0.148503 -0.039263
v 0.099587 0.148503 -0.039263
v 0.099587 0.148503 0.064949
v 0.099587 -0.096809 0.117877
v 0.099587 0.096809 0.118316
v -0.190652 -0.234202 0.190269
v -0.190652 -0.234202 -0.314423
v -0.190652 -0.164507 -0.314423
v -0.190652 -0.188532 -0.079291
v -0.190652 -0.164507 -0.170326
v -0.190652 0.164507 -0.170326
v -0.190652 -0.188532 0.079653
v -0.190652 -0.114008 0.157851
v -0.190652 0.113711 0.158398
v -0.190652 0.234202 0.190269
v -0.190652 0.188532 0.081158
v -0.190652 0.188532 -0.079291
v -0.190652 0.234202 -0.314423
v -0.190652 0.164507 -0.314423
v 0.099587 -0.148503 -0.039263
v -0.205423 -0.148503 0.063634
v -0.205423 -0.148503 -0.039263
v 0.099587 -0.148503 0.063634
v 0.099587 -0.096809 0.117877
v -0.205423 -0.096809 0.117877
v 0.099587 0.096809 0.118316
v -0.205423 0.096809 0.118316
v 0.099587 0.148503 0.064949
v -0.205423 0.148503 0.064949
v -0.205423 0.148503 -0.039263
v 0.099587 0.148503 -0.039263
v -0.190652 0.188532 0.081158
v -0.205423 0.188532 -0.079291
v -0.190652 0.188532 -0.079291
v -0.205423 0.188532 0.081158
v -0.190652 0.113711 0.158398
v -0.205423 0.113711 0.158398
v -0.190652 -0.114008 0.157851
v -0.205423 -0.114008 0.157851
v -0.190652 -0.188532 0.079653
v -0.205423 -0.188532 0.079653
v -0.190652 -0.188532 -0.079291
v -0.205423 -0.188532 -0.079291
v -0.190652 0.188532 -0.079291
v -0.205423 0.188532 -0.079291
v -0.205423 -0.188532 -0.079291
v -0.190652 -0.188532 -0.079291
v -0.190652 -0.164507 -0.314423
v -0.190652 -0.234202 -0.314423
v 0.167538 -0.234202 -0.314423
v 0.099587 -0.164507 -0.314423
v 0.099587 0.164507 -0.314423
v 0.167538 0.234202 -0.314423
v -0.190652 0.234202 -0.314423
v -0.190652 0.164507 -0.314423
v -0.205423 -0.188532 0.079653
v -0.205423 -0.096809 0.117877
v -0.205423 -0.114008 0.157851
v -0.205423 -0.148503 0.063634
v -0.205423 0.096809 0.118316
v -0.205423 -0.188532 -0.079291
v -0.205423 0.113711 0.158398
v -0.205423 -0.148503 -0.039263
v -0.205423 0.148503 0.064949
v -0.205423 0.188532 -0.079291
v -0.205423 0.188532 0.081158
v -0.205423 0.148503 -0.039263
v -0.190652 0.234202 0.190269
v -0.203157 0.245711 0.190269
v -0.203156 -0.245711 0.190269
v -0.190652 -0.234202 0.190269
v 0.167538 0.234202 0.190269
v 0.180042 -0.245711 0.190269
v 0.180042 0.245711 0.190269
v 0.167538 -0.234202 0.190269
vt 0.1640625 0.796875
vt 0.1640625 0.796875
vt 0.1640625 0.796875
vt 0.1640625 0.796875
vt 0.296875 0.76562506
vt 0.296875 0.76562506
vt 0.296875 0.76562506
vt 0.296875 0.76562506
vt 0.1640625 0.796875
vt 0.1640625 0.796875
vt 0.1640625 0.796875
vt 0.1640625 0.796875
vt 0.1640625 0.796875
vt 0.1640625 0.796875
vt 0.1640625 0.796875
vt 0.1640625 0.796875
vt 0.0546875 0.671875
vt 0.0546875 0.671875
vt 0.0546875 0.671875
vt 0.0546875 0.671875
vt 0.0859375 0.671875
vt 0.0859375 0.671875
vt 0.0859375 0.671875
vt 0.0859375 0.671875
vt 0.0859375 0.671875
vt 0.0859375 0.671875
vt 0.0859375 0.671875
vt 0.0859375 0.671875
vt 0.0859375 0.671875
vt 0.0859375 0.671875
vt 0.0859375 0.671875
vt 0.0859375 0.671875
vt 0.0859375 0.671875
vt 0.0859375 0.671875
vt 0.0859375 0.671875
vt 0.0859375 0.671875
vt 0.296875 0.859375
vt 0.296875 0.859375
vt 0.296875 0.859375
vt 0.296875 0.859375
vt 0.234375 0.796875
vt 0.234375 0.796875
vt 0.234375 0.796875
vt 0.234375 0.796875
vt 0.234375 0.796875
vt 0.234375 0.796875
vt 0.234375 0.796875
vt 0.234375 0.796875
vt 0.234375 0.796875
vt 0.234375 0.796875
vt 0.234375 0.796875
vt 0.234375 0.796875
vt 0.296875 0.76562506
vt 0.296875 0.76562506
vt 0.296875 0.76562506
vt 0.296875 0.76562506
vt 0.296875 0.76562506
vt 0.296875 0.76562506
vt 0.1640625 0.796875
vt 0.1640625 0.796875
vt 0.1640625 0.796875
vt 0.164062515 0.796875119
vt 0.1640625 0.796875
vt 0.1640625 0.796875
vt 0.1640625 0.796875
vt 0.1640625 0.796875
vt 0.1640625 0.796875
vt 0.1640625 0.796875
vt 0.164062485 0.796875
vt 0.1640625 0.796874881
vt 0.1640625 0.796875
vt 0.1640625 0.796875
vt 0.296875 0.76562506
vt 0.296875 0.76562506
vt 0.296875 0.76562506
vt 0.296875 0.76562506
vt 0.296875 0.76562506
vt 0.296875 0.76562506
vt 0.296875 0.76562506
vt 0.296875 0.76562506
vt 0.296875 0.76562506
vt 0.296875 0.76562506
vt 0.296875 0.76562506
vt 0.296875 0.76562506
vt 0.164062485 0.796875
vt 0.1640625 0.796874881
vt 0.1640625 0.796874881
vt 0.164062485 0.796875
vt 0.1640625 0.796875
vt 0.1640625 0.796875
vt 0.1640625 0.796875
vt 0.1640625 0.796875
vt 0.1640625 0.796875
vt 0.1640625 0.796875
vt 0.164062515 0.796875119
vt 0.164062515 0.796875119
vt 0.1640625 0.796874881
vt 0.1640625 0.796874881
vt 0.164062515 0.796875119
vt 0.164062515 0.796875119
vt 0.2265625 0.796875
vt 0.2265625 0.796875
vt 0.2265625 0.796875
vt 0.2265625 0.796875
vt 0.2265625 0.796875
vt 0.2265625 0.796875
vt 0.2265625 0.796875
vt 0.2265625 0.796875
vt 0.2265625 0.796875
vt 0.2265625 0.79687494
vt 0.2265625 0.796875
vt 0.2265625 0.796875
vt 0.2265625 0.796875
vt 0.226562515 0.796875119
vt 0.2265625 0.796875
vt 0.2265625 0.796875
vt 0.2265625 0.796875
vt 0.2265625 0.796874881
vt 0.226562485 0.796875
vt 0.2265625 0.796875
vt 0.1015625 0.671875
vt 0.1015625 0.671875
vt 0.1015625 0.671875
vt 0.1015625 0.671875
vt 0.1015625 0.671875
vt 0.1015625 0.671875
vt 0.1015625 0.671875
vt 0.1015625 0.671875
vn 0.000000 -1.000000 -0.000000
vn 0.000000 -1.000000 -0.000000
vn 0.000000 -1.000000 -0.000000
vn 0.000000 -1.000000 -0.000000
vn 0.000000 -0.000000 1.000000
vn 0.000000 -0.000000 1.000000
vn 0.000000 -0.000000 1.000000
vn 0.000000 -0.000000 1.000000
vn -0.000000 1.000000 0.000000
vn -0.000000 1.000000 0.000000
vn -0.000000 1.000000 0.000000
vn -0.000000 1.000000 0.000000
vn 1.000000 0.000000 0.000000
vn 1.000000 0.000000 0.000000
vn 1.000000 0.000000 0.000000
vn 1.000000 0.000000 0.000000
vn 0.000000 -0.000000 1.000000
vn 0.000000 -0.000000 1.000000
vn 0.000000 -0.000000 1.000000
vn 0.000000 -0.000000 1.000000
vn 1.000000 0.000000 0.000000
vn 1.000000 0.000000 0.000000
vn 1.000000 0.000000 0.000000
vn 1.000000 0.000000 0.000000
vn -1.000000 -0.000000 -0.000000
vn -1.000000 -0.000000 -0.000000
vn -1.000000 -0.000000 -0.000000
vn -1.000000 -0.000000 -0.000000
vn -0.000000 1.000000 0.000000
vn -0.000000 1.000000 0.000000
vn -0.000000 1.000000 0.000000
vn -0.000000 1.000000 0.000000
vn 0.000000 -1.000000 -0.000000
vn 0.000000 -1.000000 -0.000000
vn 0.000000 -1.000000 -0.000000
vn 0.000000 -1.000000 -0.000000
vn -1.000000 -0.000000 -0.000000
vn -1.000000 -0.000000 -0.000000
vn -1.000000 -0.000000 -0.000000
vn -1.000000 -0.000000 -0.000000
vn -0.000000 0.000000 -1.000000
vn -0.000000 0.000000 -1.000000
vn -0.000000 0.000000 -1.000000
vn -0.000000 0.000000 -1.000000
vn -0.000000 1.000000 0.000000
vn -0.000000 1.000000 0.000000
vn -0.000000 1.000000 0.000000
vn -0.000000 1.000000 0.000000
vn 0.000000 -1.000000 -0.000000
vn 0.000000 -1.000000 -0.000000
vn 0.000000 -1.000000 -0.000000
vn 0.000000 -1.000000 -0.000000
vn -1.000000 -0.000000 -0.000000
vn -1.000000 -0.000000 -0.000000
vn -1.000000 -0.000000 -0.000000
vn -1.000000 -0.000000 -0.000000
vn -1.000000 -0.000000 -0.000000
vn -1.000000 -0.000000 -0.000000
vn -1.000000 -0.000000 -0.000000
vn -1.000000 -0.000000 -0.000000
vn -1.000000 -0.000000 -0.000000
vn -1.000000 -0.000000 -0.000000
vn -1.000000 -0.000000 -0.000000
vn -1.000000 -0.000000 -0.000000
vn -1.000000 -0.000000 -0.000000
vn -1.000000 -0.000000 -0.000000
vn -1.000000 -0.000000 -0.000000
vn -1.000000 -0.000000 -0.000000
vn -1.000000 -0.000000 -0.000000
vn -1.000000 -0.000000 -0.000000
vn -1.000000 -0.000000 -0.000000
vn -1.000000 -0.000000 -0.000000
vn -0.000000 1.000000 0.000000
vn -0.000000 0.928414 -0.371546
vn -0.000000 1.000000 0.000000
vn -0.000000 0.928414 -0.371546
vn -0.000000 0.394806 -0.918764
vn -0.000000 0.394806 -0.918764
vn 0.000000 -0.388977 -0.921248
vn 0.000000 -0.388977 -0.921248
vn 0.000000 -0.926894 -0.375323
vn 0.000000 -0.926894 -0.375323
vn 0.000000 -1.000000 -0.000000
vn 0.000000 -1.000000 -0.000000
vn -0.000000 0.926894 0.375323
vn -0.000000 1.000000 0.000000
vn -0.000000 1.000000 0.000000
vn -0.000000 0.926894 0.375323
vn -0.000000 0.388915 0.921274
vn -0.000000 0.388915 0.921274
vn 0.000000 -0.394868 0.918738
vn 0.000000 -0.394868 0.918738
vn 0.000000 -0.928414 0.371546
vn 0.000000 -0.928414 0.371546
vn 0.000000 -1.000000 -0.000000
vn 0.000000 -1.000000 -0.000000
vn -0.000000 0.000000 -1.000000
vn -0.000000 0.000000 -1.000000
vn -0.000000 0.000000 -1.000000
vn -0.000000 0.000000 -1.000000
vn -0.000000 0.000000 -1.000000
vn -0.000000 0.000000 -1.000000
vn -0.000000 0.000000 -1.000000
vn -0.000000 0.000000 -1.000000
vn -0.000000 0.000000 -1.000000
vn -0.000000 0.000000 -1.000000
vn -0.000000 0.000000 -1.000000
vn -0.000000 0.000000 -1.000000
vn -1.000000 -0.000000 -0.000000
vn -1.000000 -0.000000 -0.000000
vn -1.000000 -0.000000 -0.000000
vn -1.000000 -0.000000 -0.000000
vn -1.000000 -0.000000 -0.000000
vn -1.000000 -0.000000 -0.000000
vn -1.000000 -0.000000 -0.000000
vn -1.000000 -0.000000 -0.000000
vn -1.000000 -0.000000 -0.000000
vn -1.000000 -0.000000 -0.000000
vn -1.000000 -0.000000 -0.000000
vn -1.000000 -0.000000 -0.000000
vn -0.000000 0.000000 -1.000000
vn -0.000000 0.000000 -1.000000
vn -0.000000 0.000000 -1.000000
vn -0.000000 0.000000 -1.000000
vn -0.000000 0.000000 -1.000000
vn -0.000000 0.000000 -1.000000
vn -0.000000 0.000000 -1.000000
vn -0.000000 0.000000 -1.000000
f 3/3/3 2/2/2 1/1/1
f 4/4/4 3/3/3 1/1/1
f 7/7/7 6/6/6 5/5/5
f 8/8/8 7/7/7 5/5/5
f 11/11/11 10/10/10 9/9/9
f 12/12/12 11/11/11 9/9/9
f 15/15/15 14/14/14 13/13/13
f 16/16/16 15/15/15 13/13/13
f 19/19/19 18/18/18 17/17/17
f 20/20/20 19/19/19 17/17/17
f 23/23/23 22/22/22 21/21/21
f 24/24/24 23/23/23 21/21/21
f 27/27/27 26/26/26 25/25/25
f 28/28/28 27/27/27 25/25/25
f 31/31/31 30/30/30 29/29/29
f 32/32/32 31/31/31 29/29/29
f 35/35/35 34/34/34 33/33/33
f 36/36/36 35/35/35 33/33/33
f 39/39/39 38/38/38 37/37/37
f 40/40/40 39/39/39 37/37/37
f 43/43/43 42/42/42 41/41/41
f 44/44/44 43/43/43 41/41/41
f 47/47/47 46/46/46 45/45/45
f 48/48/48 47/47/47 45/45/45
f 51/51/51 50/50/50 49/49/49
f 52/52/52 51/51/51 49/49/49
f 55/55/55 54/54/54 53/53/53
f 53/53/53 56/56/56 55/55/55
f 53/53/53 57/57/57 56/56/56
f 57/57/57 58/58/58 56/56/56
f 61/61/61 60/60/60 59/59/59
f 59/59/59 62/62/62 61/61/61
f 62/62/62 63/63/63 61/61/61
f 62/62/62 64/64/64 63/63/63
f 59/59/59 65/65/65 62/62/62
f 66/66/66 65/65/65 59/59/59
f 59/59/59 67/67/67 66/66/66
f 67/67/67 59/59/59 68/68/68
f 68/68/68 69/69/69 67/67/67
f 70/70/70 69/69/69 68/68/68
f 64/64/64 62/62/62 70/70/70
f 70/70/70 68/68/68 71/71/71
f 64/64/64 70/70/70 71/71/71
f 71/71/71 72/72/72 64/64/64
f 75/75/75 74/74/74 73/73/73
f 74/74/74 76/76/76 73/73/73
f 77/77/77 76/76/76 74/74/74
f 78/78/78 77/77/77 74/74/74
f 79/79/79 77/77/77 78/78/78
f 80/80/80 79/79/79 78/78/78
f 81/81/81 79/79/79 80/80/80
f 82/82/82 81/81/81 80/80/80
f 82/82/82 83/83/83 81/81/81
f 83/83/83 84/84/84 81/81/81
f 87/87/87 86/86/86 85/85/85
f 86/86/86 88/88/88 85/85/85
f 85/85/85 88/88/88 89/89/89
f 88/88/88 90/90/90 89/89/89
f 89/89/89 90/90/90 91/91/91
f 90/90/90 92/92/92 91/91/91
f 91/91/91 92/92/92 93/93/93
f 92/92/92 94/94/94 93/93/93
f 93/93/93 94/94/94 95/95/95
f 94/94/94 96/96/96 95/95/95
f 99/99/99 98/98/98 97/97/97
f 100/100/100 99/99/99 97/97/97
f 103/103/103 102/102/102 101/101/101
f 103/103/103 101/101/101 104/104/104
f 103/103/103 104/104/104 105/105/105
f 106/106/106 103/103/103 105/105/105
f 105/105/105 107/107/107 106/106/106
f 107/107/107 105/105/105 108/108/108
f 111/111/111 110/110/110 109/109/109
f 110/110/110 112/112/112 109/109/109
f 113/113/113 110/110/110 111/111/111
f 109/109/109 112/112/112 114/114/114
f 115/115/115 113/113/113 111/111/111
f 112/112/112 116/116/116 114/114/114
f 117/117/117 113/113/113 115/115/115
f 114/114/114 116/116/116 118/118/118
f 119/119/119 117/117/117 115/115/115
f 116/116/116 120/120/120 118/118/118
f 120/120/120 117/117/117 119/119/119
f 118/118/118 120/120/120 119/119/119
f 123/123/123 122/122/122 121/121/121
f 124/124/124 123/123/123 121/121/121
f 121/121/121 122/122/122 125/125/125
f 126/126/126 123/123/123 124/124/124
f 122/122/122 127/127/127 125/125/125
f 128/128/128 126/126/126 124/124/124
f 125/125/125 127/127/127 128/128/128
f 127/127/127 126/126/126 128/128/128
