g Model_0
v -0.125525 0.095205 0.592924
v -0.125525 0.296362 0.429694
v -0.125525 0.296362 0.570731
v -0.125525 0.296362 0.570731
v -0.125525 0.296362 0.429694
v 0.026360 0.296362 0.429694
v 0.026360 0.296362 0.429694
v 0.026360 0.296362 0.570731
v 0.026360 -0.105951 0.592924
v 0.026360 -0.307108 0.429694
v 0.026360 -0.307108 0.570731
v 0.026360 -0.307108 0.570731
v 0.026360 -0.307108 0.429694
v -0.125525 -0.307108 0.429694
v -0.125525 -0.307108 0.429694
v -0.125525 -0.307108 0.570731
v -0.125525 0.095205 0.451887
v 0.026360 0.095205 0.451887
v 0.026360 0.296362 0.429694
v -0.125525 0.095205 0.451887
v 0.026360 0.296362 0.429694
v -0.125525 0.296362 0.429694
v 0.026360 0.095205 0.592924
v -0.125525 0.296362 0.570731
v 0.026360 0.296362 0.570731
v -0.125525 -0.307108 0.570731
v -0.125525 -0.307108 0.429694
v -0.125525 -0.105951 0.451887
v 0.026360 0.296362 0.570731
v 0.026360 0.296362 0.429694
v 0.026360 0.095205 0.451887
v -0.125525 -0.307108 0.429694
v 0.026360 -0.307108 0.429694
v 0.026360 -0.105951 0.451887
v -0.125525 -0.307108 0.429694
v 0.026360 -0.105951 0.451887
v -0.125525 -0.105951 0.451887
v 0.026360 -0.307108 0.570731
v -0.125525 -0.307108 0.570731
v -0.125525 -0.105951 0.592924
v -0.125525 0.095205 0.592924
v -0.125525 0.095205 0.451887
v -0.125525 0.296362 0.429694
v -0.125525 -0.105951 0.592924
v -0.125525 -0.307108 0.570731
v -0.125525 -0.105951 0.451887
v -0.125525 0.095205 0.451887
v 0.026360 -0.105951 0.592924
v 0.026360 -0.105951 0.451887
v 0.026360 -0.307108 0.429694
v 0.026360 0.095205 0.592924
v 0.026360 0.296362 0.570731
v 0.026360 0.095205 0.451887
v 0.026360 -0.105951 0.451887
v 0.026360 0.095205 0.592924
v -0.125525 0.095205 0.592924
v -0.125525 0.296362 0.570731
v 0.026360 -0.105951 0.592924
v -0.125525 -0.105951 0.592924
v 0.026360 -0.307108 0.570731
v 0.030905 -0.062043 0.174421
v 0.009042 -0.107462 0.214231
v 0.226570 -0.107462 0.333694
v 0.226570 -0.107462 0.333694
v 0.248433 -0.062043 0.293884
v 0.038908 0.000000 0.159849
v 0.256436 0.000000 0.279312
v 0.030905 0.062043 0.174421
v 0.248433 0.062043 0.293884
v 0.009042 0.107462 0.214231
v 0.226570 0.107462 0.333694
v -0.020824 0.124086 0.268613
v 0.196704 0.124086 0.388076
v -0.050689 0.107462 0.322995
v 0.166839 0.107462 0.442458
v -0.072553 0.062043 0.362805
v 0.166839 0.107462 0.442458
v 0.166839 0.107462 0.442458
v 0.144975 0.062043 0.482268
v -0.080555 0.000000 0.377377
v 0.136973 0.000000 0.496840
v -0.072553 -0.062043 0.362805
v 0.144975 -0.062043 0.482268
v -0.050689 -0.107462 0.322995
v 0.166839 -0.107462 0.442458
v -0.020824 -0.124087 0.268613
v 0.196705 -0.124087 0.388076
v 0.226570 -0.107462 0.333694
v 0.226570 -0.107462 0.333694
v 0.196705 -0.124087 0.388076
v 0.166839 -0.107462 0.442458
v 0.248433 -0.062043 0.293884
v 0.144975 -0.062043 0.482268
v 0.256436 0.000000 0.279312
v 0.136973 0.000000 0.496840
v 0.248433 0.062043 0.293884
v 0.144975 0.062043 0.482268
v 0.226570 0.107462 0.333694
v 0.166839 0.107462 0.442458
v 0.196704 0.124086 0.388076
v 0.250000 0.250000 0.000000
v -0.250000 0.250000 0.000000
v -0.250000 -0.250000 0.000000
v 0.250000 -0.250000 0.000000
v -0.250000 0.250000 0.230552
v -0.205297 0.168192 0.509954
v -0.205297 -0.168192 0.509954
v -0.250000 -0.250000 0.230552
v 0.250000 0.250000 0.000000
v 0.250000 -0.250000 0.000000
v 0.250000 -0.250000 0.230552
v 0.250000 0.250000 0.230552
v 0.250000 -0.250000 0.000000
v -0.250000 -0.250000 0.000000
v -0.250000 -0.250000 0.230552
v 0.250000 -0.250000 0.230552
v -0.250000 -0.250000 0.000000
v -0.250000 0.250000 0.000000
v -0.250000 0.250000 0.230552
v -0.250000 -0.250000 0.230552
v 0.250000 0.250000 0.230552
v -0.250000 0.250000 0.230552
v -0.250000 0.250000 0.000000
v 0.250000 0.250000 0.000000
v 0.085980 0.168192 0.509954
v 0.085980 -0.168193 0.509954
v -0.205297 -0.168192 0.509954
v -0.205297 0.168192 0.509954
v -0.250000 -0.250000 0.230552
v -0.205297 -0.168192 0.509954
v 0.085980 -0.168193 0.509954
v 0.250000 -0.250000 0.230552
v 0.250000 0.250000 0.230552
v 0.085980 0.168192 0.509954
v -0.205297 0.168192 0.509954
v -0.250000 0.250000 0.230552
v 0.250000 -0.250000 0.230552
v 0.085980 -0.168193 0.509954
v 0.085980 0.168192 0.509954
v 0.250000 0.250000 0.230552
vt 0.265085995 0.783563972
vt 0.270704001 0.778343976
vt 0.271966994 0.778014004
vt 0.271966994 0.778014004
vt 0.270704001 0.778343976
vt 0.270907015 0.779404998
vt 0.270907015 0.779404998
vt 0.272112995 0.779464006
vt 0.255066991 0.772017002
vt 0.249449 0.777236998
vt 0.248186007 0.777567029
vt 0.248186007 0.777567029
vt 0.249449 0.777236998
vt 0.249246001 0.776175976
vt 0.249246001 0.776175976
vt 0.248040006 0.776117027
vt 0.294229001 0.814257026
vt 0.304854006 0.741324008
vt 0.270907015 0.779404998
vt 0.294229001 0.814257026
vt 0.270907015 0.779404998
vt 0.270704001 0.778343976
vt 0.267464995 0.774480999
vt 0.271966994 0.778014004
vt 0.272112995 0.779464006
vt 0.248040006 0.776117027
vt 0.249246001 0.776175976
vt 0.215298995 0.814257026
vt 0.272112995 0.779464006
vt 0.270907015 0.779404998
vt 0.304854006 0.741324008
vt 0.249246001 0.776175976
vt 0.249449 0.777236998
vt 0.225924 0.741324008
vt 0.249246001 0.776175976
vt 0.225924 0.741324008
vt 0.215298995 0.814257026
vt 0.248186007 0.777567029
vt 0.248040006 0.776117027
vt 0.252689004 0.781099975
vt 0.265085995 0.783563972
vt 0.294229001 0.814257026
vt 0.270704001 0.778343976
vt 0.252689004 0.781099975
vt 0.248040006 0.776117027
vt 0.215298995 0.814257026
vt 0.294229001 0.814257026
vt 0.255066991 0.772017002
vt 0.225924 0.741324008
vt 0.249449 0.777236998
vt 0.267464995 0.774480999
vt 0.272112995 0.779464006
vt 0.304854006 0.741324008
vt 0.225924 0.741324008
vt 0.267464995 0.774480999
vt 0.265085995 0.783563972
vt 0.271966994 0.778014004
vt 0.255066991 0.772017002
vt 0.252689004 0.781099975
vt 0.248186007 0.777567029
vt 0.277280003 0.258543998
vt 0.277503997 0.277516991
vt 0.311455011 0.266568005
vt 0.311455011 0.266568005
vt 0.312361002 0.266175002
vt 0.286624014 0.241946995
vt 0.313306987 0.266377002
vt 0.303310007 0.232846007
vt 0.314006001 0.267087996
vt 0.322171986 0.233272001
vt 0.314341009 0.268029988
vt 0.338234991 0.242958993
vt 0.314235002 0.269010991
vt 0.347333997 0.259261012
vt 0.313719988 0.269814998
vt 0.347149998 0.277841002
vt 0.313719988 0.269814998
vt 0.313719988 0.269814998
vt 0.312936008 0.270264
vt 0.337826014 0.293779999
vt 0.312103003 0.270273
vt 0.321770012 0.302947998
vt 0.311230004 0.269553006
vt 0.303321004 0.302947998
vt 0.310802013 0.268521011
vt 0.287099987 0.293731004
vt 0.310876012 0.267428011
vt 0.311455011 0.266568005
vt 0.311455011 0.266568005
vt 0.310876012 0.267428011
vt 0.310802013 0.268521011
vt 0.312361002 0.266175002
vt 0.311230004 0.269553006
vt 0.313306987 0.266377002
vt 0.312103003 0.270273
vt 0.314006001 0.267087996
vt 0.312936008 0.270264
vt 0.314341009 0.268029988
vt 0.313719988 0.269814998
vt 0.314235002 0.269010991
vt 0.723173976 0.459033012
vt 0.723173976 0.529873013
vt 0.770401001 0.529873013
vt 0.770401001 0.459033012
vt 0.865797997 0.458324999
vt 0.865797997 0.458324999
vt 0.865797997 0.387484998
vt 0.865797997 0.387484998
vt 0.723173976 0.458324999
vt 0.770401001 0.458324999
vt 0.770401001 0.387484998
vt 0.723173976 0.387484998
vt 0.77087301 0.458324999
vt 0.818099022 0.458324999
vt 0.818099022 0.387484998
vt 0.77087301 0.387484998
vt 0.818571985 0.387484998
vt 0.818571985 0.458324999
vt 0.865797997 0.458324999
vt 0.865797997 0.387484998
vt 0.77087301 0.459033012
vt 0.77087301 0.529873013
vt 0.818099022 0.529873013
vt 0.818099022 0.459033012
vt 0.818571985 0.529873013
vt 0.865797997 0.529873013
vt 0.865797997 0.459033012
vt 0.818571985 0.459033012
vt 0.818099022 0.387484998
vt 0.818099022 0.387484998
vt 0.77087301 0.387484998
vt 0.77087301 0.387484998
vt 0.77087301 0.459033012
vt 0.77087301 0.459033012
vt 0.77087301 0.529873013
vt 0.77087301 0.529873013
vt 0.770401001 0.387484998
vt 0.770401001 0.387484998
vt 0.723173976 0.387484998
vt 0.723173976 0.387484998
vn -1.000000 0.000000 0.000000
vn -1.000000 0.000000 0.000000
vn -1.000000 0.000000 0.000000
vn 0.000000 1.000000 0.000000
vn 0.000000 1.000000 0.000000
vn 0.000000 1.000000 0.000000
vn 0.000000 1.000000 0.000000
vn 0.000000 1.000000 0.000000
vn 1.000000 0.000000 0.000000
vn 1.000000 0.000000 0.000000
vn 1.000000 0.000000 0.000000
vn 0.000000 -1.000000 0.000000
vn 0.000000 -1.000000 0.000000
vn 0.000000 -1.000000 0.000000
vn 0.000000 -1.000000 0.000000
vn 0.000000 -1.000000 0.000000
vn 0.000000 -0.109661 -0.993969
vn 0.000000 -0.109661 -0.993969
vn 0.000000 -0.109661 -0.993969
vn 0.000000 -0.109661 -0.993969
vn 0.000000 -0.109661 -0.993969
vn 0.000000 -0.109661 -0.993969
vn 0.000000 0.054914 0.998491
vn 0.000000 0.109661 0.993969
vn 0.000000 0.109661 0.993969
vn -1.000000 0.000000 0.000000
vn -1.000000 0.000000 0.000000
vn -1.000000 0.000000 0.000000
vn 1.000000 0.000000 0.000000
vn 1.000000 0.000000 0.000000
vn 1.000000 0.000000 0.000000
vn 0.000000 0.109661 -0.993969
vn 0.000000 0.109661 -0.993969
vn 0.000000 0.109661 -0.993969
vn 0.000000 0.109661 -0.993969
vn 0.000000 0.109661 -0.993969
vn 0.000000 0.109661 -0.993969
vn 0.000000 -0.109661 0.993969
vn 0.000000 -0.109661 0.993969
vn 0.000000 -0.054914 0.998491
vn -1.000000 0.000000 0.000000
vn -1.000000 0.000000 0.000000
vn -1.000000 0.000000 0.000000
vn -1.000000 0.000000 0.000000
vn -1.000000 0.000000 0.000000
vn -1.000000 0.000000 0.000000
vn -1.000000 0.000000 0.000000
vn 1.000000 0.000000 0.000000
vn 1.000000 0.000000 0.000000
vn 1.000000 0.000000 0.000000
vn 1.000000 0.000000 0.000000
vn 1.000000 0.000000 0.000000
vn 1.000000 0.000000 0.000000
vn 1.000000 0.000000 0.000000
vn 0.000000 0.054914 0.998491
vn 0.000000 0.054914 0.998491
vn 0.000000 0.109661 0.993969
vn 0.000000 -0.054914 0.998491
vn 0.000000 -0.054914 0.998491
vn 0.000000 -0.109661 0.993969
vn 0.416878 -0.500001 -0.759086
vn 0.240688 -0.866021 -0.438265
vn 0.240688 -0.866021 -0.438265
vn 0.240688 -0.866021 -0.438265
vn 0.416878 -0.500001 -0.759086
vn 0.481370 0.000000 -0.876518
vn 0.481370 0.000000 -0.876518
vn 0.416878 0.500001 -0.759086
vn 0.416878 0.500001 -0.759086
vn 0.240685 0.866025 -0.438259
vn 0.240685 0.866025 -0.438259
vn 0.000000 1.000000 0.000000
vn 0.000000 1.000000 0.000000
vn -0.240684 0.866026 0.438258
vn -0.240684 0.866026 0.438258
vn -0.416878 0.500000 0.759086
vn -0.240684 0.866026 0.438258
vn -0.240684 0.866026 0.438258
vn -0.416878 0.500000 0.759086
vn -0.481370 0.000000 0.876518
vn -0.481370 0.000000 0.876518
vn -0.416878 -0.500000 0.759086
vn -0.416878 -0.500000 0.759086
vn -0.240687 -0.866023 0.438263
vn -0.240687 -0.866023 0.438263
vn 0.000000 -1.000000 0.000000
vn 0.000000 -1.000000 0.000000
vn 0.240688 -0.866021 -0.438265
vn 0.876519 0.000000 0.481367
vn 0.876519 0.000000 0.481367
vn 0.876518 0.000000 0.481368
vn 0.876518 0.000000 0.481370
vn 0.876517 0.000000 0.481371
vn 0.876517 0.000000 0.481370
vn 0.876517 0.000000 0.481370
vn 0.876517 0.000000 0.481371
vn 0.876518 0.000000 0.481370
vn 0.876518 0.000000 0.481368
vn 0.876519 0.000000 0.481367
vn 0.876519 0.000000 0.481367
vn 0.000000 0.000000 -1.000000
vn 0.000000 0.000000 -1.000000
vn 0.000000 0.000000 -1.000000
vn 0.000000 0.000000 -1.000000
vn -0.996855 0.000000 0.079242
vn -0.987441 0.000000 0.157986
vn -0.987441 0.000000 0.157986
vn -0.996855 0.000000 0.079242
vn 1.000000 0.000000 0.000000
vn 1.000000 0.000000 0.000000
vn 0.964983 0.000000 0.262312
vn 0.964983 0.000000 0.262312
vn 0.000000 -1.000000 0.000000
vn 0.000000 -1.000000 0.000000
vn 0.000000 -0.989876 0.141936
vn 0.000000 -0.989876 0.141936
vn -1.000000 0.000000 0.000000
vn -1.000000 0.000000 0.000000
vn -0.996855 0.000000 0.079242
vn -0.996855 0.000000 0.079242
vn 0.000000 0.989876 0.141937
vn 0.000000 0.989876 0.141937
vn 0.000000 1.000000 0.000000
vn 0.000000 1.000000 0.000000
vn 0.000000 0.000000 1.000000
vn 0.000000 0.000000 1.000000
vn 0.000000 0.000000 1.000000
vn 0.000000 0.000000 1.000000
vn 0.000000 -0.989876 0.141936
vn 0.000000 -0.959708 0.280998
vn 0.000000 -0.959708 0.280998
vn 0.000000 -0.989876 0.141936
vn 0.000000 0.989876 0.141937
vn 0.000000 0.959708 0.280999
vn 0.000000 0.959708 0.280999
vn 0.000000 0.989876 0.141937
vn 0.964983 0.000000 0.262312
vn 0.862385 0.000000 0.506254
vn 0.862385 0.000000 0.506254
vn 0.964983 0.000000 0.262312
g Model_0_0
f 3/3/3 2/2/2 1/1/1
f 6/6/6 5/5/5 4/4/4
f 8/8/8 7/7/7 4/4/4
f 11/11/11 10/10/10 9/9/9
f 14/14/14 13/13/13 12/12/12
f 16/16/16 15/15/15 12/12/12
f 19/19/19 18/18/18 17/17/17
f 22/22/22 21/21/21 20/20/20
f 25/25/25 24/24/24 23/23/23
f 28/28/28 27/27/27 26/26/26
f 31/31/31 30/30/30 29/29/29
f 34/34/34 33/33/33 32/32/32
f 37/37/37 36/36/36 35/35/35
f 40/40/40 39/39/39 38/38/38
f 43/43/43 42/42/42 41/41/41
f 41/41/41 42/42/42 44/44/44
f 44/44/44 46/46/46 45/45/45
f 47/47/47 46/46/46 44/44/44
f 50/50/50 49/49/49 48/48/48
f 48/48/48 49/49/49 51/51/51
f 51/51/51 53/53/53 52/52/52
f 54/54/54 53/53/53 51/51/51
f 57/57/57 56/56/56 55/55/55
f 55/55/55 56/56/56 58/58/58
f 56/56/56 59/59/59 58/58/58
f 58/58/58 59/59/59 60/60/60
f 63/63/63 62/62/62 61/61/61
f 65/65/65 64/64/64 61/61/61
f 65/65/65 61/61/61 66/66/66
f 67/67/67 65/65/65 66/66/66
f 67/67/67 66/66/66 68/68/68
f 69/69/69 67/67/67 68/68/68
f 69/69/69 68/68/68 70/70/70
f 71/71/71 69/69/69 70/70/70
f 71/71/71 70/70/70 72/72/72
f 73/73/73 71/71/71 72/72/72
f 73/73/73 72/72/72 74/74/74
f 75/75/75 73/73/73 74/74/74
f 77/77/77 74/74/74 76/76/76
f 79/79/79 78/78/78 76/76/76
f 79/79/79 76/76/76 80/80/80
f 81/81/81 79/79/79 80/80/80
f 81/81/81 80/80/80 82/82/82
f 83/83/83 81/81/81 82/82/82
f 83/83/83 82/82/82 84/84/84
f 85/85/85 83/83/83 84/84/84
f 85/85/85 84/84/84 86/86/86
f 87/87/87 85/85/85 86/86/86
f 87/87/87 86/86/86 62/62/62
f 88/88/88 87/87/87 62/62/62
f 91/91/91 90/90/90 89/89/89
f 89/89/89 92/92/92 91/91/91
f 92/92/92 93/93/93 91/91/91
f 92/92/92 94/94/94 93/93/93
f 94/94/94 95/95/95 93/93/93
f 94/94/94 96/96/96 95/95/95
f 96/96/96 97/97/97 95/95/95
f 96/96/96 98/98/98 97/97/97
f 98/98/98 99/99/99 97/97/97
f 98/98/98 100/100/100 99/99/99
f 103/103/103 102/102/102 101/101/101
f 104/104/104 103/103/103 101/101/101
f 107/107/107 106/106/106 105/105/105
f 108/108/108 107/107/107 105/105/105
f 111/111/111 110/110/110 109/109/109
f 112/112/112 111/111/111 109/109/109
f 115/115/115 114/114/114 113/113/113
f 116/116/116 115/115/115 113/113/113
f 119/119/119 118/118/118 117/117/117
f 120/120/120 119/119/119 117/117/117
f 123/123/123 122/122/122 121/121/121
f 124/124/124 123/123/123 121/121/121
f 127/127/127 126/126/126 125/125/125
f 128/128/128 127/127/127 125/125/125
f 131/131/131 130/130/130 129/129/129
f 132/132/132 131/131/131 129/129/129
f 135/135/135 134/134/134 133/133/133
f 136/136/136 135/135/135 133/133/133
f 139/139/139 138/138/138 137/137/137
f 140/140/140 139/139/139 137/137/137