g Model_0_Alive
v 0.692866623 -0.518518269 7.55879259
v 0.692866623 -0.518518269 7
v 0.692866623 -0.143518269 7
v 0.692866623 -0.143518269 7.55879259
v 0.692866623 -0.143518269 7.55879259
v 0.692866623 -0.143518269 7
v 1.06786656 -0.143518269 7
v 1.06786656 -0.143518269 7.55879259
v 1.06786656 -0.143518269 7.55879259
v 1.06786656 -0.143518269 7
v 1.06786656 -0.518518269 7
v 1.06786656 -0.518518269 7.55879259
v 1.06786656 -0.518518269 7.55879259
v 1.06786656 -0.518518269 7
v 0.692866623 -0.518518269 7
v 0.692866623 -0.518518269 7.55879259
v 1.06786656 -0.518518269 7.55879259
v 0.692866623 -0.518518269 7.55879259
v 0.692866623 -0.143518269 7.55879259
v 1.06786656 -0.143518269 7.55879259
v 1.47076607 -0.518518269 7.55879259
v 1.47076607 -0.518518269 7
v 1.47076607 -0.143518269 7
v 1.47076607 -0.143518269 7.55879259
v 1.47076607 -0.143518269 7.55879259
v 1.47076607 -0.143518269 7
v 1.84576607 -0.143518269 7
v 1.84576607 -0.143518269 7.55879259
v 1.84576607 -0.143518269 7.55879259
v 1.84576607 -0.143518269 7
v 1.84576607 -0.518518269 7
v 1.84576607 -0.518518269 7.55879259
v 1.84576607 -0.518518269 7.55879259
v 1.84576607 -0.518518269 7
v 1.47076607 -0.518518269 7
v 1.47076607 -0.518518269 7.55879259
v 1.84576607 -0.518518269 7.55879259
v 1.47076607 -0.518518269 7.55879259
v 1.47076607 -0.143518269 7.55879259
v 1.84576607 -0.143518269 7.55879259
v -0.755366564 -0.206018165 7.27066088
v -0.755366564 -0.206018165 6.61174393
v -0.755366623 -0.45601815 6.61174393
v -0.755366623 -0.45601815 7.27066088
v -0.755366623 -0.45601815 7.27066088
v -0.755366623 -0.45601815 6.61174393
v -1.00536656 -0.45601812 6.61174393
v -1.00536656 -0.45601812 7.27066088
v -1.00536656 -0.45601812 7.27066088
v -1.00536656 -0.45601812 6.61174393
v -1.00536656 -0.206018105 6.61174393
v -1.00536656 -0.206018105 7.27066088
v -1.00536656 -0.206018105 7.27066088
v -1.00536656 -0.206018105 6.61174393
v -0.755366564 -0.206018165 6.61174393
v -0.755366564 -0.206018165 7.27066088
v -1.00536656 -0.206018105 7.27066088
v -0.755366564 -0.206018165 7.27066088
v -0.755366623 -0.45601815 7.27066088
v -1.00536656 -0.45601812 7.27066088
v -1.53326607 -0.206018046 7.27066088
v -1.53326607 -0.206018046 6.61174393
v -1.53326607 -0.456018031 6.61174393
v -1.53326607 -0.456018031 7.27066088
v -1.53326607 -0.456018031 7.27066088
v -1.53326607 -0.456018031 6.61174393
v -1.78326607 -0.456018001 6.61174393
v -1.78326607 -0.456018001 7.27066088
v -1.78326607 -0.456018001 7.27066088
v -1.78326607 -0.456018001 6.61174393
v -1.78326607 -0.206017986 6.61174393
v -1.78326607 -0.206017986 7.27066088
v -1.78326607 -0.206017986 7.27066088
v -1.78326607 -0.206017986 6.61174393
v -1.53326607 -0.206018046 6.61174393
v -1.53326607 -0.206018046 7.27066088
v -1.78326607 -0.206017986 7.27066088
v -1.53326607 -0.206018046 7.27066088
v -1.53326607 -0.456018031 7.27066088
v -1.78326607 -0.456018001 7.27066088
v -2 -0.583516002 7.125
v -2 -0.583516002 6.875
v -2 -0.0785205364 6.875
v -2 -0.0785205364 7.125
v -2 -0.0785205364 7.125
v -2 -0.0785205364 6.875
v 2 -0.0785205364 6.875
v 2 -0.0785205364 7.125
v 2 -0.0785205364 7.125
v 2 -0.0785205364 6.875
v 2 -0.583516002 6.875
v 2 -0.583516002 7.125
v 2 -0.583516002 7.125
v 2 -0.583516002 6.875
v -2 -0.583516002 6.875
v -2 -0.583516002 7.125
v -2 -0.583516002 6.875
v 2 -0.583516002 6.875
v 2 -0.0785205364 6.875
v -2 -0.0785205364 6.875
v 2 -0.583516002 7.125
v -2 -0.583516002 7.125
v -2 -0.0785205364 7.125
v 2 -0.0785205364 7.125
v 0.12499997 0.216506228 -1
v 0.216506317 0.124999881 -1
v 0.216506317 0.124999881 8
v 0.12499997 0.216506228 8
v -2.6697915E-08 0.249999851 -1
v -2.6697915E-08 0.249999851 8
v -0.125000194 0.216506153 -1
v -0.125000194 0.216506153 8
v -0.216506466 0.124999769 -1
v -0.216506466 0.124999769 8
v -0.25000003 -2.25503257E-07 -1
v -0.25000003 -2.25503257E-07 8
v -0.216506347 -0.125000194 -1
v -0.216506347 -0.125000194 8
v 0.216506317 0.124999881 -1
v 0.25 -1.20203026E-07 8
v 0.216506317 0.124999881 8
v 0.25 -1.20203026E-07 -1
v 0.216506317 -0.125000119 8
v 0.216506317 -0.125000119 -1
v 0.125 -0.216506466 8
v 0.125 -0.216506466 -1
v 0.125 -0.216506466 -1
v 1.10510356E-08 -0.250000119 8
v 0.125 -0.216506466 8
v 1.10510356E-08 -0.250000119 -1
v -0.12499997 -0.216506496 8
v -0.12499997 -0.216506496 -1
v -0.216506347 -0.125000194 8
v -0.216506347 -0.125000194 -1
v 0.216506317 0.124999881 8
v 0.25 -1.20203026E-07 8
v 0.216506317 -0.125000119 8
v 0.12499997 0.216506228 8
v 0.125 -0.216506466 8
v 1.10510356E-08 -0.250000119 8
v -2.6697915E-08 0.249999851 8
v -0.12499997 -0.216506496 8
v -0.125000194 0.216506153 8
v -0.216506347 -0.125000194 8
v -0.216506466 0.124999769 8
v -0.25000003 -2.25503257E-07 8
v -0.755366623 -0.45601815 6.61174393
v -0.755366564 -0.206018165 6.61174393
v -1.00536656 -0.206018105 6.61174393
v -1.00536656 -0.45601812 6.61174393
v -1.53326607 -0.456018031 6.61174393
v -1.53326607 -0.206018046 6.61174393
v -1.78326607 -0.206017986 6.61174393
v -1.78326607 -0.456018001 6.61174393
v 0.216506317 -0.125000119 -1
v 0.25 -1.20203026E-07 -1
v 0.216506317 0.124999881 -1
v 0.125 -0.216506466 -1
v 0.12499997 0.216506228 -1
v 1.10510356E-08 -0.250000119 -1
v -2.6697915E-08 0.249999851 -1
v -0.12499997 -0.216506496 -1
v -0.125000194 0.216506153 -1
v -0.216506347 -0.125000194 -1
v -0.216506466 0.124999769 -1
v -0.25000003 -2.25503257E-07 -1
vt 0.712035298 0.263215393
vt 0.712035298 0.252797097
vt 0.69692564 0.252797097
vt 0.69692564 0.263215393
vt 0.712035298 0.284051985
vt 0.712035298 0.273633689
vt 0.69692564 0.273633689
vt 0.69692564 0.284051985
vt 0.727144897 0.273633689
vt 0.727144897 0.263215393
vt 0.712035298 0.263215393
vt 0.712035298 0.273633689
vt 0.69692564 0.263215393
vt 0.69692564 0.273633689
vt 0.712035298 0.273633689
vt 0.712035298 0.263215393
vt 0.727144897 0.231960565
vt 0.712035298 0.231960565
vt 0.712035298 0.23895213
vt 0.727144897 0.23895219
vt 0.712035298 0.29447028
vt 0.712035298 0.284051985
vt 0.69692564 0.284051985
vt 0.69692564 0.29447028
vt 0.69692564 0.231960565
vt 0.69692564 0.242378861
vt 0.712035298 0.242378861
vt 0.712035298 0.231960565
vt 0.727144897 0.284051985
vt 0.727144897 0.273633689
vt 0.712035298 0.273633689
vt 0.712035298 0.284051985
vt 0.69692564 0.242378861
vt 0.69692564 0.252797097
vt 0.712035298 0.252797097
vt 0.712035298 0.242378861
vt 0.727144897 0.256223768
vt 0.712035298 0.256223828
vt 0.712035298 0.263215393
vt 0.727144897 0.263215393
vt 0.799026728 0.596022964
vt 0.799026728 0.601069212
vt 0.809099793 0.601069212
vt 0.809099793 0.596022964
vt 0.814822793 0.617640257
vt 0.814822793 0.612594008
vt 0.804749727 0.612594008
vt 0.804749727 0.617640257
vt 0.814822793 0.667211354
vt 0.814822793 0.662165105
vt 0.804749727 0.662165105
vt 0.804749727 0.667211354
vt 0.779567003 0.667537153
vt 0.779567003 0.672583401
vt 0.789640069 0.672583401
vt 0.789640069 0.667537153
vt 0.749347806 0.675261021
vt 0.759420872 0.675261021
vt 0.759420872 0.670599997
vt 0.749347806 0.670599997
vt 0.814822793 0.625863969
vt 0.814822793 0.620817721
vt 0.804749727 0.620817721
vt 0.804749727 0.625863969
vt 0.794676661 0.670388877
vt 0.794676661 0.675435126
vt 0.804749727 0.675435126
vt 0.804749727 0.670388877
vt 0.814822793 0.672257602
vt 0.814822793 0.667211354
vt 0.804749727 0.667211354
vt 0.804749727 0.672257602
vt 0.804749727 0.657118857
vt 0.804749727 0.662165105
vt 0.814822793 0.662165105
vt 0.814822793 0.657118857
vt 0.730742931 0.675261021
vt 0.740815997 0.675261021
vt 0.740815997 0.670599997
vt 0.730742931 0.670599997
vt 0.329523653 0.258936167
vt 0.339596719 0.258936167
vt 0.339596719 0.245666206
vt 0.329523653 0.245666206
vt 0.294267863 0.303672194
vt 0.304340929 0.303672194
vt 0.304340929 0.229095161
vt 0.294267863 0.229095161
vt 0.329523653 0.303461015
vt 0.339596719 0.303461015
vt 0.339596719 0.290191054
vt 0.329523653 0.290191054
vt 0.314413995 0.229095161
vt 0.304340929 0.229095161
vt 0.304340929 0.303672194
vt 0.314413995 0.303672194
vt 0.236911908 0.229095161
vt 0.236911967 0.303672194
vt 0.265589863 0.303672194
vt 0.265589833 0.229095161
vt 0.294267863 0.303672194
vt 0.294267803 0.229095161
vt 0.265589893 0.229095161
vt 0.265589923 0.303672194
vt 0.166669071 0.612551272
vt 0.162982076 0.612551272
vt 0.162982047 0.780349553
vt 0.166669041 0.780349553
vt 0.171705633 0.612551272
vt 0.171705574 0.780349553
vt 0.176742166 0.612551272
vt 0.176742136 0.780349553
vt 0.180429161 0.612551272
vt 0.18042919 0.780349553
vt 0.185465693 0.612551272
vt 0.185465693 0.780349553
vt 0.190502286 0.612551272
vt 0.190502286 0.780349553
vt 0.204262376 0.612551272
vt 0.199225813 0.780349553
vt 0.204262346 0.780349553
vt 0.199225813 0.612551272
vt 0.19418925 0.780349553
vt 0.19418931 0.612551272
vt 0.190502286 0.780349553
vt 0.190502286 0.612551272
vt 0.218022436 0.612551272
vt 0.212985903 0.780349553
vt 0.218022436 0.780349553
vt 0.212985903 0.612551272
vt 0.20794937 0.780349553
vt 0.20794937 0.612551272
vt 0.204262346 0.780349553
vt 0.204262346 0.612551272
vt 0.307861507 0.612551272
vt 0.302647293 0.612551272
vt 0.298131645 0.61375761
vt 0.312377155 0.61375761
vt 0.295524538 0.615847111
vt 0.295524538 0.618259907
vt 0.314984262 0.615847111
vt 0.298131645 0.620349407
vt 0.314984262 0.618259907
vt 0.302647293 0.621555746
vt 0.312377155 0.620349407
vt 0.307861507 0.621555746
vt 0.65679729 0.859657168
vt 0.65679729 0.65685147
vt 0.555394411 0.65685147
vt 0.555394411 0.859657228
vt 0.65679729 0.65685153
vt 0.65679729 0.859657228
vt 0.758200169 0.859657228
vt 0.758200169 0.65685147
vt 0.314419091 0.721302867
vt 0.314419121 0.70370996
vt 0.305622727 0.688474178
vt 0.305622697 0.736538649
vt 0.290386885 0.679677725
vt 0.290386856 0.745335102
vt 0.272794068 0.679677725
vt 0.272794038 0.745335102
vt 0.257558197 0.688474178
vt 0.257558197 0.736538649
vt 0.248761803 0.70370996
vt 0.248761803 0.721302807
vn -1 0 0
vn -1 0 0
vn -1 0 0
vn -1 0 0
vn -0 1 0
vn -0 1 0
vn -0 1 0
vn -0 1 0
vn 1 0 0
vn 1 0 0
vn 1 0 0
vn 1 0 0
vn -0 -1 0
vn -0 -1 0
vn -0 -1 0
vn -0 -1 0
vn -0 0 1
vn -0 0 1
vn -0 0 1
vn -0 0 1
vn -1 0 0
vn -1 0 0
vn -1 0 0
vn -1 0 0
vn -0 1 0
vn -0 1 0
vn -0 1 0
vn -0 1 0
vn 1 0 0
vn 1 0 0
vn 1 0 0
vn 1 0 0
vn -0 -1 0
vn -0 -1 0
vn -0 -1 0
vn -0 -1 0
vn -0 0 1
vn -0 0 1
vn -0 0 1
vn -0 0 1
vn 1 0 0
vn 1 0 0
vn 1 0 0
vn 1 0 0
vn -0 -1 0
vn -0 -1 0
vn -0 -1 0
vn -0 -1 0
vn -1 0 0
vn -1 0 0
vn -1 0 0
vn -1 0 0
vn -0 1 0
vn -0 1 0
vn -0 1 0
vn -0 1 0
vn -0 0 1
vn -0 0 1
vn -0 0 1
vn -0 0 1
vn 1 0 0
vn 1 0 0
vn 1 0 0
vn 1 0 0
vn -0 -1 0
vn -0 -1 0
vn -0 -1 0
vn -0 -1 0
vn -1 0 0
vn -1 0 0
vn -1 0 0
vn -1 0 0
vn -0 1 0
vn -0 1 0
vn -0 1 0
vn -0 1 0
vn -0 0 1
vn -0 0 1
vn -0 0 1
vn -0 0 1
vn -1 0 0
vn -1 0 0
vn -1 0 0
vn -1 0 0
vn -0 1 0
vn -0 1 0
vn -0 1 0
vn -0 1 0
vn 1 0 0
vn 1 0 0
vn 1 0 0
vn 1 0 0
vn -0 -1 0
vn -0 -1 0
vn -0 -1 0
vn -0 -1 0
vn -0 0 -1
vn -0 0 -1
vn -0 0 -1
vn -0 0 -1
vn -0 0 1
vn -0 0 1
vn -0 0 1
vn -0 0 1
vn 0.499999911 0.866025448 0
vn 0.866025329 0.500000119 0
vn 0.866025329 0.500000119 0
vn 0.499999911 0.866025448 0
vn -0 1 0
vn -0 1 0
vn -0.500000298 0.866025269 0
vn -0.500000298 0.866025269 0
vn -0.866025805 0.499999493 0
vn -0.866025805 0.499999493 0
vn -1 0 0
vn -1 0 0
vn -0.866025269 -0.500000298 0
vn -0.866025269 -0.500000298 0
vn 0.866025329 0.500000119 0
vn 1 0 0
vn 0.866025329 0.500000119 0
vn 1 0 0
vn 0.866025329 -0.50000006 0
vn 0.866025329 -0.50000006 0
vn 0.50000006 -0.866025329 0
vn 0.50000006 -0.866025329 0
vn 0.50000006 -0.866025329 0
vn -0 -1 0
vn 0.50000006 -0.866025329 0
vn -0 -1 0
vn -0.499999732 -0.866025507 0
vn -0.499999732 -0.866025507 0
vn -0.866025269 -0.500000298 0
vn -0.866025269 -0.500000298 0
vn -0 0 1
vn -0 0 1
vn -0 0 1
vn -0 0 1
vn -0 0 1
vn -0 0 1
vn -0 0 1
vn -0 0 1
vn -0 0 1
vn -0 0 1
vn -0 0 1
vn -0 0 1
vn -0 0 -1
vn -0 0 -1
vn -0 0 -1
vn -0 0 -1
vn -0 0 -1
vn -0 0 -1
vn -0 0 -1
vn -0 0 -1
vn -0 0 -1
vn -0 0 -1
vn -0 0 -1
vn -0 0 -1
vn -0 0 -1
vn -0 0 -1
vn -0 0 -1
vn -0 0 -1
vn -0 0 -1
vn -0 0 -1
vn -0 0 -1
vn -0 0 -1
g Model_0_Alive_0
f 3/3/3 2/2/2 1/1/1
f 4/4/4 3/3/3 1/1/1
f 7/7/7 6/6/6 5/5/5
f 8/8/8 7/7/7 5/5/5
f 11/11/11 10/10/10 9/9/9
f 12/12/12 11/11/11 9/9/9
f 15/15/15 14/14/14 13/13/13
f 16/16/16 15/15/15 13/13/13
f 19/19/19 18/18/18 17/17/17
f 20/20/20 19/19/19 17/17/17
f 23/23/23 22/22/22 21/21/21
f 24/24/24 23/23/23 21/21/21
f 27/27/27 26/26/26 25/25/25
f 28/28/28 27/27/27 25/25/25
f 31/31/31 30/30/30 29/29/29
f 32/32/32 31/31/31 29/29/29
f 35/35/35 34/34/34 33/33/33
f 36/36/36 35/35/35 33/33/33
f 39/39/39 38/38/38 37/37/37
f 40/40/40 39/39/39 37/37/37
f 43/43/43 42/42/42 41/41/41
f 44/44/44 43/43/43 41/41/41
f 47/47/47 46/46/46 45/45/45
f 48/48/48 47/47/47 45/45/45
f 51/51/51 50/50/50 49/49/49
f 52/52/52 51/51/51 49/49/49
f 55/55/55 54/54/54 53/53/53
f 56/56/56 55/55/55 53/53/53
f 59/59/59 58/58/58 57/57/57
f 60/60/60 59/59/59 57/57/57
f 63/63/63 62/62/62 61/61/61
f 64/64/64 63/63/63 61/61/61
f 67/67/67 66/66/66 65/65/65
f 68/68/68 67/67/67 65/65/65
f 71/71/71 70/70/70 69/69/69
f 72/72/72 71/71/71 69/69/69
f 75/75/75 74/74/74 73/73/73
f 76/76/76 75/75/75 73/73/73
f 79/79/79 78/78/78 77/77/77
f 80/80/80 79/79/79 77/77/77
f 83/83/83 82/82/82 81/81/81
f 84/84/84 83/83/83 81/81/81
f 87/87/87 86/86/86 85/85/85
f 88/88/88 87/87/87 85/85/85
f 91/91/91 90/90/90 89/89/89
f 92/92/92 91/91/91 89/89/89
f 95/95/95 94/94/94 93/93/93
f 96/96/96 95/95/95 93/93/93
f 99/99/99 98/98/98 97/97/97
f 100/100/100 99/99/99 97/97/97
f 103/103/103 102/102/102 101/101/101
f 104/104/104 103/103/103 101/101/101
f 107/107/107 106/106/106 105/105/105
f 108/108/108 107/107/107 105/105/105
f 108/108/108 105/105/105 109/109/109
f 110/110/110 108/108/108 109/109/109
f 110/110/110 109/109/109 111/111/111
f 112/112/112 110/110/110 111/111/111
f 112/112/112 111/111/111 113/113/113
f 114/114/114 112/112/112 113/113/113
f 114/114/114 113/113/113 115/115/115
f 116/116/116 114/114/114 115/115/115
f 116/116/116 115/115/115 117/117/117
f 118/118/118 116/116/116 117/117/117
f 121/121/121 120/120/120 119/119/119
f 120/120/120 122/122/122 119/119/119
f 120/120/120 123/123/123 122/122/122
f 123/123/123 124/124/124 122/122/122
f 123/123/123 125/125/125 124/124/124
f 125/125/125 126/126/126 124/124/124
f 129/129/129 128/128/128 127/127/127
f 128/128/128 130/130/130 127/127/127
f 128/128/128 131/131/131 130/130/130
f 131/131/131 132/132/132 130/130/130
f 131/131/131 133/133/133 132/132/132
f 133/133/133 134/134/134 132/132/132
f 137/137/137 136/136/136 135/135/135
f 135/135/135 138/138/138 137/137/137
f 138/138/138 139/139/139 137/137/137
f 138/138/138 140/140/140 139/139/139
f 138/138/138 141/141/141 140/140/140
f 141/141/141 142/142/142 140/140/140
f 141/141/141 143/143/143 142/142/142
f 143/143/143 144/144/144 142/142/142
f 143/143/143 145/145/145 144/144/144
f 145/145/145 146/146/146 144/144/144
f 149/149/149 148/148/148 147/147/147
f 150/150/150 149/149/149 147/147/147
f 153/153/153 152/152/152 151/151/151
f 154/154/154 153/153/153 151/151/151
f 157/157/157 156/156/156 155/155/155
f 155/155/155 158/158/158 157/157/157
f 158/158/158 159/159/159 157/157/157
f 158/158/158 160/160/160 159/159/159
f 160/160/160 161/161/161 159/159/159
f 160/160/160 162/162/162 161/161/161
f 162/162/162 163/163/163 161/161/161
f 162/162/162 164/164/164 163/163/163
f 164/164/164 165/165/165 163/163/163
f 164/164/164 166/166/166 165/165/165
