v -2.000000 -0.583516 7.125000
v -2.000000 -0.583516 6.875000
v -2.000000 -0.078521 6.875000
v -2.000000 -0.078521 7.125000
v -2.000000 -0.078521 7.125000
v -2.000000 -0.078521 6.875000
v 2.000000 -0.078521 6.875000
v 2.000000 -0.078521 7.125000
v 2.000000 -0.078521 7.125000
v 2.000000 -0.078521 6.875000
v 2.000000 -0.583516 6.875000
v 2.000000 -0.583516 7.125000
v 2.000000 -0.583516 7.125000
v 2.000000 -0.583516 6.875000
v -2.000000 -0.583516 6.875000
v -2.000000 -0.583516 7.125000
v -2.000000 -0.583516 6.875000
v 2.000000 -0.583516 6.875000
v 2.000000 -0.078521 6.875000
v -2.000000 -0.078521 6.875000
v 2.000000 -0.583516 7.125000
v -2.000000 -0.583516 7.125000
v -2.000000 -0.078521 7.125000
v 2.000000 -0.078521 7.125000
v -0.250000 -0.250000 8.000000
v -0.250000 -0.250000 -1.000000
v -0.250000 0.250000 -1.000000
v -0.250000 0.250000 8.000000
v -0.250000 0.250000 8.000000
v -0.250000 0.250000 -1.000000
v 0.250000 0.250000 -1.000000
v 0.250000 0.250000 8.000000
v 0.250000 0.250000 8.000000
v 0.250000 0.250000 -1.000000
v 0.250000 -0.250000 -1.000000
v 0.250000 -0.250000 8.000000
v 0.250000 -0.250000 8.000000
v 0.250000 -0.250000 -1.000000
v -0.250000 -0.250000 -1.000000
v -0.250000 -0.250000 8.000000
v 0.250000 -0.250000 8.000000
v -0.250000 -0.250000 8.000000
v -0.250000 0.250000 8.000000
v 0.250000 0.250000 8.000000
vt 0.283872485 0.268977761
vt 0.294547439 0.268977761
vt 0.294547439 0.259370208
vt 0.283872485 0.259370208
vt 0.273197591 0.240250111
vt 0.262522697 0.240250111
vt 0.262522697 0.316350341
vt 0.273197591 0.316350341
vt 0.283872485 0.259370208
vt 0.294547439 0.259370208
vt 0.294547439 0.249762654
vt 0.283872485 0.249762654
vt 0.283872485 0.240250111
vt 0.273197591 0.240250111
vt 0.273197591 0.316350341
vt 0.283872485 0.316350341
vt 0.240959466 0.240250111
vt 0.240959525 0.316350281
vt 0.262522697 0.316350281
vt 0.262522638 0.240250111
vt 0.240959466 0.316350281
vt 0.240959466 0.240250111
vt 0.219396293 0.240250111
vt 0.219396353 0.316350281
vt 0.232774705 0.789264679
vt 0.232774675 0.61803925
vt 0.211424828 0.61803925
vt 0.211424887 0.789264679
vt 0.211424828 0.789264679
vt 0.211424768 0.61803925
vt 0.19007498 0.61803925
vt 0.19007501 0.789264679
vt 0.254124552 0.789264679
vt 0.254124552 0.61803925
vt 0.232774705 0.61803925
vt 0.232774705 0.789264679
vt 0.275474399 0.789264679
vt 0.275474399 0.61803925
vt 0.254124552 0.61803925
vt 0.254124552 0.789264679
vt 0.339950562 0.61803925
vt 0.339950562 0.627551794
vt 0.361300409 0.627551794
vt 0.361300409 0.61803925
vn -1.000000 0.000000 0.000000
vn -1.000000 0.000000 0.000000
vn -1.000000 0.000000 0.000000
vn -1.000000 0.000000 0.000000
vn 0.000000 1.000000 0.000000
vn 0.000000 1.000000 0.000000
vn 0.000000 1.000000 0.000000
vn 0.000000 1.000000 0.000000
vn 1.000000 0.000000 0.000000
vn 1.000000 0.000000 0.000000
vn 1.000000 0.000000 0.000000
vn 1.000000 0.000000 0.000000
vn 0.000000 -1.000000 0.000000
vn 0.000000 -1.000000 0.000000
vn 0.000000 -1.000000 0.000000
vn 0.000000 -1.000000 0.000000
vn 0.000000 0.000000 -1.000000
vn 0.000000 0.000000 -1.000000
vn 0.000000 0.000000 -1.000000
vn 0.000000 0.000000 -1.000000
vn 0.000000 0.000000 1.000000
vn 0.000000 0.000000 1.000000
vn 0.000000 0.000000 1.000000
vn 0.000000 0.000000 1.000000
vn -1.000000 0.000000 0.000000
vn -1.000000 0.000000 0.000000
vn -1.000000 0.000000 0.000000
vn -1.000000 0.000000 0.000000
vn 0.000000 1.000000 0.000000
vn 0.000000 1.000000 0.000000
vn 0.000000 1.000000 0.000000
vn 0.000000 1.000000 0.000000
vn 1.000000 0.000000 0.000000
vn 1.000000 0.000000 0.000000
vn 1.000000 0.000000 0.000000
vn 1.000000 0.000000 0.000000
vn 0.000000 -1.000000 0.000000
vn 0.000000 -1.000000 0.000000
vn 0.000000 -1.000000 0.000000
vn 0.000000 -1.000000 0.000000
vn 0.000000 0.000000 1.000000
vn 0.000000 0.000000 1.000000
vn 0.000000 0.000000 1.000000
vn 0.000000 0.000000 1.000000
f 3/3/3 2/2/2 1/1/1
f 4/4/4 3/3/3 1/1/1
f 7/7/7 6/6/6 5/5/5
f 8/8/8 7/7/7 5/5/5
f 11/11/11 10/10/10 9/9/9
f 12/12/12 11/11/11 9/9/9
f 15/15/15 14/14/14 13/13/13
f 16/16/16 15/15/15 13/13/13
f 19/19/19 18/18/18 17/17/17
f 20/20/20 19/19/19 17/17/17
f 23/23/23 22/22/22 21/21/21
f 24/24/24 23/23/23 21/21/21
f 27/27/27 26/26/26 25/25/25
f 28/28/28 27/27/27 25/25/25
f 31/31/31 30/30/30 29/29/29
f 32/32/32 31/31/31 29/29/29
f 35/35/35 34/34/34 33/33/33
f 36/36/36 35/35/35 33/33/33
f 39/39/39 38/38/38 37/37/37
f 40/40/40 39/39/39 37/37/37
f 43/43/43 42/42/42 41/41/41
f 44/44/44 43/43/43 41/41/41

# Transformer add-on ONLY; original committed OBJ above is unchanged
g Transformer_Attached
v 0.3899999857 0.6999999881 4.5500001907
v 0.1949999928 1.0377498865 4.5500001907
v -0.1949999928 1.0377498865 4.5500001907
v -0.3899999857 0.6999999881 4.5500001907
v -0.1949999928 0.3622500896 4.5500001907
v 0.1949999928 0.3622500896 4.5500001907
v 0.4000000060 0.6999999881 5.7550001144
v 0.2000000030 1.0464102030 5.7550001144
v -0.2000000030 1.0464102030 5.7550001144
v -0.4000000060 0.6999999881 5.7550001144
v -0.2000000030 0.3535898328 5.7550001144
v 0.2000000030 0.3535898328 5.7550001144
v -0.1280000061 0.6999999881 5.7550001144
v -0.1899999976 0.7620000243 5.7550001144
v -0.2520000041 0.6999999881 5.7550001144
v -0.1899999976 0.6380000114 5.7550001144
v -0.1640000045 0.6999999881 5.9800000191
v -0.1899999976 0.7260000110 5.9800000191
v -0.2160000056 0.6999999881 5.9800000191
v -0.1899999976 0.6740000248 5.9800000191
v 0.2520000041 0.6999999881 5.7550001144
v 0.1899999976 0.7620000243 5.7550001144
v 0.1280000061 0.6999999881 5.7550001144
v 0.1899999976 0.6380000114 5.7550001144
v 0.2160000056 0.6999999881 5.9800000191
v 0.1899999976 0.7260000110 5.9800000191
v 0.1640000045 0.6999999881 5.9800000191
v 0.1899999976 0.6740000248 5.9800000191
v -0.1899999976 0.1800000072 5.1300001144
v 0.1899999976 0.1800000072 5.1300001144
v 0.1899999976 0.7099999785 5.1300001144
v -0.1899999976 0.7099999785 5.1300001144
v -0.1899999976 0.1800000072 5.2199997902
v 0.1899999976 0.1800000072 5.2199997902
v 0.1899999976 0.7099999785 5.2199997902
v -0.1899999976 0.7099999785 5.2199997902
vt 0.7500000000 0.7500000000
vt 0.7500000000 0.7500000000
vt 0.7500000000 0.7500000000
vt 0.7500000000 0.7500000000
vt 0.7500000000 0.7500000000
vt 0.7500000000 0.7500000000
vt 0.7500000000 0.7500000000
vt 0.7500000000 0.7500000000
vt 0.7500000000 0.7500000000
vt 0.7500000000 0.7500000000
vt 0.7500000000 0.7500000000
vt 0.7500000000 0.7500000000
vt 0.7500000000 0.7500000000
vt 0.7500000000 0.7500000000
vt 0.7500000000 0.7500000000
vt 0.7500000000 0.7500000000
vt 0.7500000000 0.7500000000
vt 0.7500000000 0.7500000000
vt 0.7500000000 0.7500000000
vt 0.7500000000 0.7500000000
vt 0.7500000000 0.7500000000
vt 0.7500000000 0.7500000000
vt 0.7500000000 0.7500000000
vt 0.7500000000 0.7500000000
vt 0.7500000000 0.2500000000
vt 0.7500000000 0.2500000000
vt 0.7500000000 0.2500000000
vt 0.7500000000 0.2500000000
vt 0.7500000000 0.2500000000
vt 0.7500000000 0.2500000000
vt 0.7500000000 0.7500000000
vt 0.7500000000 0.7500000000
vt 0.7500000000 0.7500000000
vt 0.7500000000 0.7500000000
vt 0.7500000000 0.7500000000
vt 0.7500000000 0.7500000000
vt 0.7500000000 0.2500000000
vt 0.7500000000 0.2500000000
vt 0.7500000000 0.2500000000
vt 0.7500000000 0.2500000000
vt 0.7500000000 0.2500000000
vt 0.7500000000 0.2500000000
vt 0.7500000000 0.2500000000
vt 0.7500000000 0.2500000000
vt 0.7500000000 0.2500000000
vt 0.7500000000 0.2500000000
vt 0.7500000000 0.2500000000
vt 0.7500000000 0.2500000000
vt 0.7500000000 0.2500000000
vt 0.7500000000 0.2500000000
vt 0.7500000000 0.2500000000
vt 0.7500000000 0.2500000000
vt 0.7500000000 0.2500000000
vt 0.7500000000 0.2500000000
vt 0.7500000000 0.2500000000
vt 0.7500000000 0.2500000000
vt 0.7500000000 0.2500000000
vt 0.7500000000 0.2500000000
vt 0.7500000000 0.2500000000
vt 0.7500000000 0.2500000000
vt 0.7500000000 0.2500000000
vt 0.7500000000 0.2500000000
vt 0.7500000000 0.2500000000
vt 0.7500000000 0.2500000000
vt 0.7500000000 0.2500000000
vt 0.7500000000 0.2500000000
vt 0.7500000000 0.2500000000
vt 0.7500000000 0.2500000000
vt 0.7500000000 0.2500000000
vt 0.7500000000 0.2500000000
vt 0.7500000000 0.2500000000
vt 0.7500000000 0.2500000000
vt 0.7500000000 0.2500000000
vt 0.7500000000 0.2500000000
vt 0.7500000000 0.2500000000
vt 0.7500000000 0.2500000000
vt 0.7500000000 0.2500000000
vt 0.7500000000 0.2500000000
vt 0.7500000000 0.2500000000
vt 0.7500000000 0.2500000000
vt 0.7500000000 0.2500000000
vt 0.7500000000 0.2500000000
vt 0.7500000000 0.2500000000
vt 0.7500000000 0.2500000000
vt 0.7500000000 0.7500000000
vt 0.7500000000 0.7500000000
vt 0.7500000000 0.7500000000
vt 0.7500000000 0.7500000000
vt 0.7500000000 0.7500000000
vt 0.7500000000 0.7500000000
vt 0.7500000000 0.7500000000
vt 0.7500000000 0.7500000000
vt 0.7500000000 0.7500000000
vt 0.7500000000 0.7500000000
vt 0.7500000000 0.7500000000
vt 0.7500000000 0.7500000000
vt 0.7500000000 0.7500000000
vt 0.7500000000 0.7500000000
vt 0.7500000000 0.7500000000
vt 0.7500000000 0.7500000000
vt 0.7500000000 0.7500000000
vt 0.7500000000 0.7500000000
vt 0.7500000000 0.7500000000
vt 0.7500000000 0.7500000000
vt 0.7500000000 0.7500000000
vt 0.7500000000 0.7500000000
vt 0.7500000000 0.7500000000
vt 0.7500000000 0.7500000000
vn 0.8660030365 0.4999870658 -0.0071867784
vn 0.8660030365 0.4999870658 -0.0071867784
vn 0.8660030365 0.4999870658 -0.0071867784
vn 0.8660030365 0.4999870658 -0.0071867784
vn 0.0000000000 0.9999741316 -0.0071868096
vn 0.0000000000 0.9999741316 -0.0071868096
vn 0.0000000000 0.9999741316 -0.0071868096
vn 0.0000000000 0.9999741316 -0.0071868096
vn -0.8660030365 0.4999870658 -0.0071867784
vn -0.8660030365 0.4999870658 -0.0071867784
vn -0.8660030365 0.4999870658 -0.0071867784
vn -0.8660030365 0.4999870658 -0.0071867784
vn -0.8660030365 -0.4999870658 -0.0071867625
vn -0.8660030365 -0.4999870658 -0.0071867625
vn -0.8660030365 -0.4999870658 -0.0071867625
vn -0.8660030365 -0.4999870658 -0.0071867625
vn 0.0000000000 -0.9999741316 -0.0071867467
vn 0.0000000000 -0.9999741316 -0.0071867467
vn 0.0000000000 -0.9999741316 -0.0071867467
vn 0.0000000000 -0.9999741316 -0.0071867467
vn 0.8660030365 -0.4999870658 -0.0071867625
vn 0.8660030365 -0.4999870658 -0.0071867625
vn 0.8660030365 -0.4999870658 -0.0071867625
vn 0.8660030365 -0.4999870658 -0.0071867625
vn 0.0000000000 0.0000000000 -1.0000000000
vn 0.0000000000 0.0000000000 -1.0000000000
vn 0.0000000000 0.0000000000 -1.0000000000
vn 0.0000000000 0.0000000000 -1.0000000000
vn 0.0000000000 0.0000000000 -1.0000000000
vn 0.0000000000 0.0000000000 -1.0000000000
vn 0.0000002868 0.0000000000 1.0000000000
vn 0.0000002868 0.0000000000 1.0000000000
vn 0.0000002868 0.0000000000 1.0000000000
vn 0.0000002868 0.0000000000 1.0000000000
vn 0.0000002868 0.0000000000 1.0000000000
vn 0.0000002868 0.0000000000 1.0000000000
vn 0.7026245594 0.7026240230 0.1124199554
vn 0.7026245594 0.7026240230 0.1124199554
vn 0.7026245594 0.7026240230 0.1124199554
vn 0.7026245594 0.7026240230 0.1124199554
vn -0.7026245594 0.7026240230 0.1124199554
vn -0.7026245594 0.7026240230 0.1124199554
vn -0.7026245594 0.7026240230 0.1124199554
vn -0.7026245594 0.7026240230 0.1124199554
vn -0.7026234865 -0.7026250958 0.1124201268
vn -0.7026234865 -0.7026250958 0.1124201268
vn -0.7026234865 -0.7026250958 0.1124201268
vn -0.7026234865 -0.7026250958 0.1124201268
vn 0.7026234865 -0.7026250958 0.1124198586
vn 0.7026234865 -0.7026250958 0.1124198586
vn 0.7026234865 -0.7026250958 0.1124198586
vn 0.7026234865 -0.7026250958 0.1124198586
vn 0.0000000000 0.0000000000 -1.0000000000
vn 0.0000000000 0.0000000000 -1.0000000000
vn 0.0000000000 0.0000000000 -1.0000000000
vn 0.0000000000 0.0000000000 -1.0000000000
vn 0.0000000000 0.0000000000 1.0000000000
vn 0.0000000000 0.0000000000 1.0000000000
vn 0.0000000000 0.0000000000 1.0000000000
vn 0.0000000000 0.0000000000 1.0000000000
vn 0.7026245594 0.7026240230 0.1124199554
vn 0.7026245594 0.7026240230 0.1124199554
vn 0.7026245594 0.7026240230 0.1124199554
vn 0.7026245594 0.7026240230 0.1124199554
vn -0.7026245594 0.7026240230 0.1124199554
vn -0.7026245594 0.7026240230 0.1124199554
vn -0.7026245594 0.7026240230 0.1124199554
vn -0.7026245594 0.7026240230 0.1124199554
vn -0.7026234865 -0.7026250958 0.1124198586
vn -0.7026234865 -0.7026250958 0.1124198586
vn -0.7026234865 -0.7026250958 0.1124198586
vn -0.7026234865 -0.7026250958 0.1124198586
vn 0.7026234865 -0.7026250958 0.1124201268
vn 0.7026234865 -0.7026250958 0.1124201268
vn 0.7026234865 -0.7026250958 0.1124201268
vn 0.7026234865 -0.7026250958 0.1124201268
vn 0.0000000000 0.0000000000 -1.0000000000
vn 0.0000000000 0.0000000000 -1.0000000000
vn 0.0000000000 0.0000000000 -1.0000000000
vn 0.0000000000 0.0000000000 -1.0000000000
vn 0.0000000000 0.0000000000 1.0000000000
vn 0.0000000000 0.0000000000 1.0000000000
vn 0.0000000000 0.0000000000 1.0000000000
vn 0.0000000000 0.0000000000 1.0000000000
vn 0.0000000000 0.0000000000 -1.0000000000
vn 0.0000000000 0.0000000000 -1.0000000000
vn 0.0000000000 0.0000000000 -1.0000000000
vn 0.0000000000 0.0000000000 -1.0000000000
vn 0.0000000000 0.0000000000 1.0000000000
vn 0.0000000000 0.0000000000 1.0000000000
vn 0.0000000000 0.0000000000 1.0000000000
vn 0.0000000000 0.0000000000 1.0000000000
vn 0.0000000000 -1.0000000000 0.0000000000
vn 0.0000000000 -1.0000000000 0.0000000000
vn 0.0000000000 -1.0000000000 0.0000000000
vn 0.0000000000 -1.0000000000 0.0000000000
vn 1.0000000000 0.0000000000 0.0000000000
vn 1.0000000000 0.0000000000 0.0000000000
vn 1.0000000000 0.0000000000 0.0000000000
vn 1.0000000000 0.0000000000 0.0000000000
vn 0.0000000000 1.0000000000 0.0000000000
vn 0.0000000000 1.0000000000 0.0000000000
vn 0.0000000000 1.0000000000 0.0000000000
vn 0.0000000000 1.0000000000 0.0000000000
vn -1.0000000000 0.0000000000 0.0000000000
vn -1.0000000000 0.0000000000 0.0000000000
vn -1.0000000000 0.0000000000 0.0000000000
vn -1.0000000000 0.0000000000 0.0000000000
f 45/45/45 46/46/46 52/47/47
f 45/45/45 52/47/47 51/48/48
f 46/49/49 47/50/50 53/51/51
f 46/49/49 53/51/51 52/52/52
f 47/53/53 48/54/54 54/55/55
f 47/53/53 54/55/55 53/56/56
f 48/57/57 49/58/58 55/59/59
f 48/57/57 55/59/59 54/60/60
f 49/61/61 50/62/62 56/63/63
f 49/61/61 56/63/63 55/64/64
f 50/65/65 45/66/66 51/67/67
f 50/65/65 51/67/67 56/68/68
f 45/74/74 50/69/69 49/70/70
f 49/70/70 48/71/71 47/72/72
f 47/72/72 46/73/73 45/74/74
f 49/70/70 47/72/72 45/74/74
f 56/80/80 51/75/75 52/76/76
f 52/76/76 53/77/77 54/78/78
f 54/78/78 55/79/79 56/80/80
f 52/76/76 54/78/78 56/80/80
f 57/81/81 58/82/82 62/83/83
f 57/81/81 62/83/83 61/84/84
f 58/85/85 59/86/86 63/87/87
f 58/85/85 63/87/87 62/88/88
f 59/89/89 60/90/90 64/91/91
f 59/89/89 64/91/91 63/92/92
f 60/93/93 57/94/94 61/95/95
f 60/93/93 61/95/95 64/96/96
f 60/97/97 59/98/98 58/99/99
f 60/97/97 58/99/99 57/100/100
f 61/101/101 62/102/102 63/103/103
f 61/101/101 63/103/103 64/104/104
f 65/105/105 66/106/106 70/107/107
f 65/105/105 70/107/107 69/108/108
f 66/109/109 67/110/110 71/111/111
f 66/109/109 71/111/111 70/112/112
f 67/113/113 68/114/114 72/115/115
f 67/113/113 72/115/115 71/116/116
f 68/117/117 65/118/118 69/119/119
f 68/117/117 69/119/119 72/120/120
f 68/121/121 67/122/122 66/123/123
f 68/121/121 66/123/123 65/124/124
f 69/125/125 70/126/126 71/127/127
f 69/125/125 71/127/127 72/128/128
f 73/129/129 76/130/130 75/131/131
f 73/129/129 75/131/131 74/132/132
f 77/133/133 78/134/134 79/135/135
f 77/133/133 79/135/135 80/136/136
f 73/137/137 74/138/138 78/139/139
f 73/137/137 78/139/139 77/140/140
f 74/141/141 75/142/142 79/143/143
f 74/141/141 79/143/143 78/144/144
f 75/145/145 76/146/146 80/147/147
f 75/145/145 80/147/147 79/148/148
f 76/149/149 73/150/150 77/151/151
f 76/149/149 77/151/151 80/152/152
