g Model_0
v -0.0205780007 -0.0205780007 0.561174989
v -0.0205780007 -0.0205780007 0.432085007
v -0.0205780007 0.0205780007 0.432085007
v -0.0205780007 -0.0205780007 0.561174989
v -0.0205780007 0.0205780007 0.432085007
v -0.0205780007 0.0205780007 0.561174989
v -0.0205780007 0.0205780007 0.561174989
v -0.0205780007 0.0205780007 0.432085007
v 0.0205780007 0.0205780007 0.432085007
v -0.0205780007 0.0205780007 0.561174989
v 0.0205780007 0.0205780007 0.432085007
v 0.0205780007 0.0205780007 0.561174989
v 0.0205780007 0.0205780007 0.561174989
v 0.0205780007 0.0205780007 0.432085007
v 0.0205780007 -0.0205780007 0.432085007
v 0.0205780007 0.0205780007 0.561174989
v 0.0205780007 -0.0205780007 0.432085007
v 0.0205780007 -0.0205780007 0.561174989
v 0.0205780007 -0.0205780007 0.561174989
v 0.0205780007 -0.0205780007 0.432085007
v -0.0205780007 -0.0205780007 0.432085007
v 0.0205780007 -0.0205780007 0.561174989
v -0.0205780007 -0.0205780007 0.432085007
v -0.0205780007 -0.0205780007 0.561174989
v -0.0739530027 -0.0739519969 0.584025979
v -0.0739530027 0.0739519969 0.584025979
v -0.0739530027 0.0739519969 0.400896996
v -0.0739530027 -0.0739519969 0.584025979
v -0.0739530027 -0.0739519969 0.400896996
v -0.104273997 0.0739519969 0.584025979
v -0.0739530027 0.0739519969 0.584025979
v -0.0739530027 -0.0739519969 0.584025979
v 0.0739519969 0.0739519969 0.584025979
v 0.104273997 0.0739519969 0.584025979
v 0.104273997 -0.105336003 0.584025979
v -0.104273997 -0.105336003 0.584025979
v 0.0739519969 -0.0739519969 0.584025979
v -0.0739530027 -0.0739519969 0.584025979
v -0.104273997 0.0739519969 0.584025979
v -0.0739530027 -0.0739519969 0.584025979
v 0.104273997 -0.105336003 0.584025979
v 0.0739519969 -0.0739519969 0.584025979
v 0.0739519969 0.0739519969 0.584025979
v 0.0739519969 0.0739519969 0.584025979
v 0.0739519969 0.0739519969 0.400896996
v 0.104273997 0.0739519969 0.400896996
v 0.0739519969 0.0739519969 0.584025979
v 0.104273997 0.0739519969 0.400896996
v 0.104273997 0.0739519969 0.584025979
v 0.0205780007 -0.0205780007 0.561174989
v -0.0205780007 -0.0205780007 0.561174989
v -0.0205780007 0.0205780007 0.561174989
v 0.0205780007 0.0205780007 0.561174989
v 0.104273997 -0.105336003 0.400896996
v 0.104273997 -0.105336003 0.584025979
v 0.104273997 0.0739519969 0.584025979
v 0.104273997 0.0739519969 0.400896996
v -0.104273997 -0.105336003 0.584025979
v -0.104273997 -0.105336003 0.400896996
v -0.104273997 0.0739519969 0.400896996
v -0.104273997 0.0739519969 0.584025979
v 0.0739519969 -0.0739519969 0.400896996
v 0.0739519969 0.0739519969 0.400896996
v 0.0739519969 0.0739519969 0.584025979
v 0.0739519969 -0.0739519969 0.584025979
v -0.0739530027 -0.0739519969 0.584025979
v -0.0739530027 -0.0739519969 0.400896996
v 0.0739519969 -0.0739519969 0.400896996
v 0.0739519969 -0.0739519969 0.584025979
v 0.104273997 -0.105336003 0.584025979
v 0.104273997 -0.105336003 0.400896996
v -0.104273997 -0.105336003 0.400896996
v -0.104273997 -0.105336003 0.584025979
v -0.104273997 0.0739519969 0.584025979
v -0.104273997 0.0739519969 0.400896996
v -0.0739530027 0.0739519969 0.400896996
v -0.0739530027 0.0739519969 0.584025979
v -0 0.25 0
v 0.176777005 0.176777005 0
v 0.176777005 0.176777005 0.5
v -0 0.25 0.5
v 0.176777005 0.176777005 0
v 0.25 0 0
v 0.25 0 0.5
v 0.176777005 0.176777005 0.5
v 0.25 0 0
v 0.176777005 -0.176777005 0
v 0.176777005 -0.176777005 0.5
v 0.25 0 0.5
v 0.176777005 -0.176777005 0
v -0 -0.25 0
v -0 -0.25 0.5
v 0.176777005 -0.176777005 0.5
v -0 -0.25 0
v -0.176777005 -0.176777005 0
v -0.176777005 -0.176777005 0.5
v -0 -0.25 0.5
v -0.176777005 -0.176777005 0
v -0.25 0 0
v -0.25 0 0.5
v -0.176777005 -0.176777005 0.5
v 0.176777005 0.176777005 0.5
v 0.25 0 0.5
v 0.176777005 -0.176777005 0.5
v -0 0.25 0.5
v -0 -0.25 0.5
v -0.176777005 0.176777005 0.5
v -0.176777005 -0.176777005 0.5
v -0.25 0 0.5
v -0.176777005 0.176777005 0
v -0 0.25 0
v -0 0.25 0.5
v -0.176777005 0.176777005 0.5
v -0.25 0 0
v -0.176777005 0.176777005 0
v -0.176777005 0.176777005 0.5
v -0.25 0 0.5
v 0.176777005 -0.176777005 0
v 0.25 0 0
v 0.176777005 0.176777005 0
v -0 -0.25 0
v -0 0.25 0
v -0.176777005 -0.176777005 0
v -0.176777005 0.176777005 0
v -0.25 0 0
vt 0.285158992 0.451157004
vt 0.27779001 0.440634012
vt 0.27779001 0.454396993
vt 0.285158992 0.451157004
vt 0.27779001 0.454396993
vt 0.288516015 0.446815997
vt 0.288516015 0.446815997
vt 0.27779001 0.454396993
vt 0.291135013 0.454517007
vt 0.288516015 0.446815997
vt 0.291135013 0.454517007
vt 0.283766001 0.443994999
vt 0.283766001 0.443994999
vt 0.291135013 0.454517007
vt 0.291135013 0.44075501
vt 0.283766001 0.443994999
vt 0.291135013 0.44075501
vt 0.280409008 0.448334992
vt 0.280409008 0.448334992
vt 0.291135013 0.44075501
vt 0.27779001 0.440634012
vt 0.280409008 0.448334992
vt 0.27779001 0.440634012
vt 0.285158992 0.451157004
vt 0.665383995 0.507938027
vt 0.669716001 0.496062011
vt 0.638974011 0.493267
vt 0.665383995 0.507938027
vt 0.638974011 0.520301998
vt 0.665798008 0.491025001
vt 0.669716001 0.496062011
vt 0.665383995 0.507938027
vt 0.678249002 0.506249011
vt 0.681020021 0.506323993
vt 0.687300026 0.493999004
vt 0.672205985 0.484993994
vt 0.670283973 0.512005985
vt 0.665383995 0.507938027
vt 0.665798008 0.491025001
vt 0.665383995 0.507938027
vt 0.687300026 0.493999004
vt 0.670283973 0.512005985
vt 0.678249002 0.506249011
vt 0.678249002 0.506249011
vt 0.698491991 0.533357978
vt 0.704638004 0.528279006
vt 0.678249002 0.506249011
vt 0.704638004 0.528279006
vt 0.681020021 0.506323993
vt 0.280409008 0.448334992
vt 0.285158992 0.451157004
vt 0.288516015 0.446815997
vt 0.283766001 0.443994999
vt 0.721673012 0.473533988
vt 0.687300026 0.493999004
vt 0.681020021 0.506323993
vt 0.704638004 0.528279006
vt 0.672205985 0.484993994
vt 0.661849976 0.451968014
vt 0.639294028 0.488752007
vt 0.665798008 0.491025001
vt 0.665409029 0.536791027
vt 0.698491991 0.533357978
vt 0.678249002 0.506249011
vt 0.670283973 0.512005985
vt 0.665383995 0.507938027
vt 0.638974011 0.520301998
vt 0.665409029 0.536791027
vt 0.670283973 0.512005985
vt 0.687300026 0.493999004
vt 0.721673012 0.473533988
vt 0.661849976 0.451968014
vt 0.672205985 0.484993994
vt 0.665798008 0.491025001
vt 0.639294028 0.488752007
vt 0.638974011 0.493267
vt 0.669716001 0.496062011
vt 0.638963997 0.451958001
vt 0.638963997 0.548041999
vt 0.735046983 0.548041999
vt 0.735046983 0.451958001
vt 0.638963997 0.451958001
vt 0.638963997 0.548041999
vt 0.735046983 0.548041999
vt 0.735046983 0.451958001
vt 0.638963997 0.451958001
vt 0.638963997 0.548041999
vt 0.735046983 0.548041999
vt 0.735046983 0.451958001
vt 0.638963997 0.451958001
vt 0.638963997 0.548041999
vt 0.735046983 0.548041999
vt 0.735046983 0.451958001
vt 0.638963997 0.451958001
vt 0.638963997 0.548041999
vt 0.735046983 0.548041999
vt 0.735046983 0.451958001
vt 0.638963997 0.451958001
vt 0.638963997 0.548041999
vt 0.735046983 0.548041999
vt 0.735046983 0.451958001
vt 0.687005997 0.548041999
vt 0.653034985 0.533971012
vt 0.638963997 0.5
vt 0.720975995 0.533971012
vt 0.653034985 0.466028988
vt 0.735046983 0.5
vt 0.687005997 0.451958001
vt 0.720975995 0.466028988
vt 0.638963997 0.451958001
vt 0.638963997 0.548041999
vt 0.735046983 0.548041999
vt 0.735046983 0.451958001
vt 0.638963997 0.451958001
vt 0.638963997 0.548041999
vt 0.735046983 0.548041999
vt 0.735046983 0.451958001
vt 0.720975995 0.466028988
vt 0.735046983 0.5
vt 0.720975995 0.533971012
vt 0.687005997 0.451958001
vt 0.687005997 0.548041999
vt 0.653034985 0.466028988
vt 0.653034985 0.533971012
vt 0.638963997 0.5
vn -1 0 0
vn -1 0 0
vn -1 0 0
vn -1 0 0
vn -1 0 0
vn -1 0 0
vn -0 1 0
vn -0 1 0
vn -0 1 0
vn -0 1 0
vn -0 1 0
vn -0 1 0
vn 1 0 0
vn 1 0 0
vn 1 0 0
vn 1 0 0
vn 1 0 0
vn 1 0 0
vn -0 -1 0
vn -0 -1 0
vn -0 -1 0
vn -0 -1 0
vn -0 -1 0
vn -0 -1 0
vn 1 0 0
vn 1 0 0
vn 1 0 0
vn 1 0 0
vn 1 0 0
vn -0 0 1
vn -0 0 1
vn -0 0 1
vn -0 0 1
vn -0 0 1
vn -0 0 1
vn -0 0 1
vn -0 0 1
vn -0 0 1
vn -0 0 1
vn -0 0 1
vn -0 0 1
vn -0 0 1
vn -0 0 1
vn -0 1 0
vn -0 1 0
vn -0 1 0
vn -0 1 0
vn -0 1 0
vn -0 1 0
vn -0 0 1
vn -0 0 1
vn -0 0 1
vn -0 0 1
vn 1 0 0
vn 1 0 0
vn 1 0 0
vn 1 0 0
vn -1 0 0
vn -1 0 0
vn -1 0 0
vn -1 0 0
vn -1 0 0
vn -1 0 0
vn -1 0 0
vn -1 0 0
vn -0 1 0
vn -0 1 0
vn -0 1 0
vn -0 1 0
vn -0 -1 0
vn -0 -1 0
vn -0 -1 0
vn -0 -1 0
vn -0 1 0
vn -0 1 0
vn -0 1 0
vn -0 1 0
vn -0 1 0
vn 0.707106769 0.707106769 0
vn 0.707106769 0.707106769 0
vn -0 1 0
vn 0.707106769 0.707106769 0
vn 1 0 0
vn 1 0 0
vn 0.707106769 0.707106769 0
vn 1 0 0
vn 0.707106769 -0.707106769 0
vn 0.707106769 -0.707106769 0
vn 1 0 0
vn 0.707106769 -0.707106769 0
vn -0 -1 0
vn -0 -1 0
vn 0.707106769 -0.707106769 0
vn -0 -1 0
vn -0.707106769 -0.707106769 0
vn -0.707106769 -0.707106769 0
vn -0 -1 0
vn -0.707106769 -0.707106769 0
vn -1 0 0
vn -1 0 0
vn -0.707106769 -0.707106769 0
vn -0 0 1
vn -0 0 1
vn -0 0 1
vn -0 0 1
vn -0 0 1
vn -0 0 1
vn -0 0 1
vn -0 0 1
vn -0.707106769 0.707106769 0
vn -0 1 0
vn -0 1 0
vn -0.707106769 0.707106769 0
vn -1 0 0
vn -0.707106769 0.707106769 0
vn -0.707106769 0.707106769 0
vn -1 0 0
vn -0 0 -1
vn -0 0 -1
vn -0 0 -1
vn -0 0 -1
vn -0 0 -1
vn -0 0 -1
vn -0 0 -1
vn -0 0 -1
g Model_0_0
f 3/3/3 2/2/2 1/1/1
f 6/6/6 5/5/5 4/4/4
f 9/9/9 8/8/8 7/7/7
f 12/12/12 11/11/11 10/10/10
f 15/15/15 14/14/14 13/13/13
f 18/18/18 17/17/17 16/16/16
f 21/21/21 20/20/20 19/19/19
f 24/24/24 23/23/23 22/22/22
f 27/27/27 26/26/26 25/25/25
f 29/29/29 27/27/27 28/28/28
f 32/32/32 31/31/31 30/30/30
f 35/35/35 34/34/34 33/33/33
f 37/37/37 36/36/36 35/35/35
f 37/37/37 38/38/38 36/36/36
f 40/40/40 39/39/39 36/36/36
f 43/43/43 42/42/42 41/41/41
f 46/46/46 45/45/45 44/44/44
f 49/49/49 48/48/48 47/47/47
f 52/52/52 51/51/51 50/50/50
f 53/53/53 52/52/52 50/50/50
f 56/56/56 55/55/55 54/54/54
f 57/57/57 56/56/56 54/54/54
f 60/60/60 59/59/59 58/58/58
f 61/61/61 60/60/60 58/58/58
f 64/64/64 63/63/63 62/62/62
f 65/65/65 64/64/64 62/62/62
f 68/68/68 67/67/67 66/66/66
f 69/69/69 68/68/68 66/66/66
f 72/72/72 71/71/71 70/70/70
f 73/73/73 72/72/72 70/70/70
f 76/76/76 75/75/75 74/74/74
f 77/77/77 76/76/76 74/74/74
f 80/80/80 79/79/79 78/78/78
f 81/81/81 80/80/80 78/78/78
f 84/84/84 83/83/83 82/82/82
f 85/85/85 84/84/84 82/82/82
f 88/88/88 87/87/87 86/86/86
f 89/89/89 88/88/88 86/86/86
f 92/92/92 91/91/91 90/90/90
f 93/93/93 92/92/92 90/90/90
f 96/96/96 95/95/95 94/94/94
f 97/97/97 96/96/96 94/94/94
f 100/100/100 99/99/99 98/98/98
f 101/101/101 100/100/100 98/98/98
f 104/104/104 103/103/103 102/102/102
f 102/102/102 105/105/105 104/104/104
f 105/105/105 106/106/106 104/104/104
f 105/105/105 107/107/107 106/106/106
f 107/107/107 108/108/108 106/106/106
f 107/107/107 109/109/109 108/108/108
f 112/112/112 111/111/111 110/110/110
f 113/113/113 112/112/112 110/110/110
f 116/116/116 115/115/115 114/114/114
f 117/117/117 116/116/116 114/114/114
f 120/120/120 119/119/119 118/118/118
f 118/118/118 121/121/121 120/120/120
f 121/121/121 122/122/122 120/120/120
f 121/121/121 123/123/123 122/122/122
f 123/123/123 124/124/124 122/122/122
f 123/123/123 125/125/125 124/124/124
