v 0.409951 0.306978 0.663967
v 0.403184 0.178190 0.080064
v 0.479632 -0.194908 0.743917
v 0.378023 -0.371704 0.229606
v 0.286246 -0.439073 0.721965
v 0.479632 -0.194908 0.743917
v -0.158450 0.431759 0.070054
v 0.002616 0.492258 0.826837
v -0.231746 0.400855 0.830309
v -0.231746 0.400855 0.830309
v -0.309023 0.185977 0.921706
v -0.447035 0.216034 0.753269
v -0.447035 0.216034 0.753269
v -0.309023 0.185977 0.921706
v -0.335951 -0.156728 0.898538
v -0.335951 -0.156728 0.898538
v -0.093012 -0.077522 0.979795
v -0.088677 -0.404215 0.901831
v 0.013085 0.120702 0.979795
v 0.303251 -0.175189 0.942854
v 0.126539 -0.307752 0.952670
v -0.014069 0.323321 0.961843
v -0.231746 0.400855 0.830309
v 0.002616 0.492258 0.826837
v 0.304171 0.152818 0.968273
v 0.303251 -0.175189 0.942854
v 0.126539 -0.307752 0.952670
v -0.088677 -0.404215 0.901831
v 0.304171 0.152818 0.968273
v 0.002616 0.492258 0.826837
v -0.088677 -0.404215 0.901831
v 0.126539 -0.307752 0.952670
v 0.286246 -0.439073 0.721965
v 0.382486 0.000078 -0.007796
v 0.403184 0.178190 0.080064
v 0.197223 0.396819 0.059277
v 0.197223 0.396819 0.059277
v 0.255287 -0.266181 -0.001295
v -0.000320 0.382884 -0.007796
v -0.076359 -0.487198 0.118710
v 0.197223 0.396819 0.059277
v -0.076359 -0.487198 0.118710
v -0.000320 0.382884 -0.007796
v -0.158450 0.431759 0.070054
v -0.076359 -0.487198 0.118710
v -0.437246 0.091958 0.061358
v -0.383126 0.000078 -0.007796
v -0.158450 0.431759 0.070054
v -0.191723 -0.331441 -0.007796
v -0.076359 -0.487198 0.118710
v -0.158450 0.431759 0.070054
v -0.383126 0.000078 -0.007796
v -0.383126 0.000078 -0.007796
v -0.376738 -0.261359 0.083106
v -0.191723 -0.331441 -0.007796
v -0.437246 0.091958 0.061358
v -0.376738 -0.261359 0.083106
v -0.383126 0.000078 -0.007796
v -0.376738 -0.261359 0.083106
v -0.447035 0.216034 0.753269
v -0.335951 -0.156728 0.898538
v 0.197223 0.396819 0.059277
v 0.403184 0.178190 0.080064
v 0.409951 0.306978 0.663967
v 0.303251 -0.175189 0.942854
v 0.304171 0.152818 0.968273
v 0.479632 -0.194908 0.743917
v 0.479632 -0.194908 0.743917
v 0.304171 0.152818 0.968273
v 0.409951 0.306978 0.663967
v 0.304171 0.152818 0.968273
v 0.002616 0.492258 0.826837
v 0.409951 0.306978 0.663967
v -0.076359 -0.487198 0.118710
v -0.191723 -0.331441 -0.007796
v -0.376738 -0.261359 0.083106
v -0.376738 -0.261359 0.083106
v -0.335951 -0.156728 0.898538
v -0.088677 -0.404215 0.901831
v 0.255287 -0.266181 -0.001295
v -0.076359 -0.487198 0.118710
v 0.378023 -0.371704 0.229606
v -0.070532 -0.073398 1.114314
v -0.013464 0.022487 0.759471
v 0.006579 0.102847 0.784409
v -0.050489 0.006961 1.139252
v -0.050489 0.006961 1.139252
v 0.006579 0.102847 0.784409
v 0.089666 0.079901 0.791572
v 0.032598 -0.015984 1.146414
v 0.032598 -0.015984 1.146414
v 0.089666 0.079901 0.791572
v 0.069623 -0.000458 0.766634
v 0.012555 -0.096344 1.121476
v 0.012555 -0.096344 1.121476
v 0.069623 -0.000458 0.766634
v -0.013464 0.022487 0.759471
v -0.070532 -0.073398 1.114314
v 0.012555 -0.096344 1.121476
v -0.070532 -0.073398 1.114314
v -0.050489 0.006961 1.139252
v 0.032598 -0.015984 1.146414
v 0.378023 -0.371704 0.229606
v -0.076359 -0.487198 0.118710
v -0.088677 -0.404215 0.901831
v 0.286246 -0.439073 0.721965
v -0.437246 0.091958 0.061358
v -0.158450 0.431759 0.070054
v -0.231746 0.400855 0.830309
v -0.447035 0.216034 0.753269
v 0.286246 -0.439073 0.721965
v 0.126539 -0.307752 0.952670
v 0.303251 -0.175189 0.942854
v 0.479632 -0.194908 0.743917
v 0.382486 0.000078 -0.007796
v 0.255287 -0.266181 -0.001295
v 0.378023 -0.371704 0.229606
v 0.403184 0.178190 0.080064
v 0.479632 -0.194908 0.743917
v -0.158450 0.431759 0.070054
v 0.409951 0.306978 0.663967
v 0.002616 0.492258 0.826837
v 0.197223 0.396819 0.059277
v -0.000320 0.382884 -0.007796
vt 0.285412997 0.53886801
vt 0.274937004 0.495332003
vt 0.255831003 0.547936022
vt 0.242455006 0.509889007
vt 0.240357995 0.54756099
vt 0.255831003 0.547936022
vt 0.312510014 0.569666028
vt 0.31209299 0.628462017
vt 0.326691985 0.625
vt 0.326691985 0.625
vt 0.33861801 0.628462017
vt 0.342357993 0.614705026
vt 0.250120014 0.637238026
vt 0.255717009 0.628306985
vt 0.240357995 0.610610008
vt 0.240357995 0.610610008
vt 0.254691988 0.602396011
vt 0.241132006 0.584008992
vt 0.26751399 0.607954979
vt 0.268018991 0.576461971
vt 0.254817009 0.578212976
vt 0.274554014 0.620669007
vt 0.267549992 0.636345983
vt 0.281634986 0.629312992
vt 0.281634986 0.594685018
vt 0.268018991 0.576461971
vt 0.254817009 0.578212976
vt 0.241132006 0.584008992
vt 0.281634986 0.594685018
vt 0.281634986 0.629312992
vt 0.324514002 0.492608994
vt 0.311973006 0.489699006
vt 0.301598012 0.505629003
vt 0.345955014 0.541709006
vt 0.351953 0.553175986
vt 0.369919002 0.556111991
vt 0.369919002 0.556111991
vt 0.341711998 0.519905984
vt 0.378508002 0.54577601
vt 0.348940015 0.490889996
vt 0.369919002 0.556111991
vt 0.348940015 0.490889996
vt 0.378508002 0.54577601
vt 0.387897015 0.541015029
vt 0.348940015 0.490889996
vt 0.387897015 0.507575989
vt 0.38173601 0.504788995
vt 0.387897015 0.541015029
vt 0.360092014 0.494511008
vt 0.348940015 0.490889996
vt 0.387897015 0.541015029
vt 0.38173601 0.504788995
vt 0.38173601 0.504788995
vt 0.371571004 0.489699006
vt 0.360092014 0.494511008
vt 0.366189986 0.61915499
vt 0.344882011 0.622955024
vt 0.361411005 0.626169026
vt 0.344882011 0.622955024
vt 0.366189986 0.566353023
vt 0.342357993 0.561959028
vt 0.287270993 0.492314994
vt 0.274937004 0.495332003
vt 0.285412997 0.53886801
vt 0.25731799 0.562776983
vt 0.277175009 0.562776983
vt 0.255831003 0.547936022
vt 0.255831003 0.547936022
vt 0.277175009 0.562776983
vt 0.285412997 0.53886801
vt 0.277175009 0.562776983
vt 0.295883 0.549826026
vt 0.285412997 0.53886801
vt 0.322715014 0.55073601
vt 0.330186993 0.561959028
vt 0.341711998 0.555929005
vt 0.341711998 0.555929005
vt 0.340425014 0.495573014
vt 0.324514002 0.492608994
vt 0.303499997 0.561959028
vt 0.322715014 0.55073601
vt 0.295883 0.543395996
vt 0.684625983 0.583938003
vt 0.684625983 0.608312011
vt 0.688893974 0.608307004
vt 0.688893974 0.583932996
vt 0.683502018 0.632933974
vt 0.683502018 0.608913004
vt 0.680616021 0.60817498
vt 0.680616021 0.632196009
vt 0.683502018 0.60817498
vt 0.683502018 0.584084988
vt 0.679069996 0.583932996
vt 0.679069996 0.608022988
vt 0.693318009 0.608088017
vt 0.693318009 0.583932996
vt 0.688893974 0.584074974
vt 0.688893974 0.608228981
vt 0.688939989 0.608228981
vt 0.688939989 0.613892972
vt 0.693318009 0.613942027
vt 0.693318009 0.60827899
vt 0.295883 0.543395996
vt 0.322715014 0.55073601
vt 0.324514002 0.492608994
vt 0.301598012 0.505629003
vt 0.337191999 0.561959028
vt 0.312510014 0.569666028
vt 0.326691985 0.625
vt 0.342357993 0.614705026
vt 0.255468994 0.562776983
vt 0.254817009 0.578212976
vt 0.268018991 0.576461971
vt 0.274127007 0.56636399
vt 0.263740987 0.489699006
vt 0.247304007 0.491661996
vt 0.242455006 0.509889007
vt 0.274937004 0.495332003
vt 0.255831003 0.547936022
vt 0.312510014 0.569666028
vt 0.295883 0.618893981
vt 0.31209299 0.628462017
vt 0.295904011 0.572529972
vt 0.305287004 0.565127015
vn 0.932479 0.353355 0.074991
vn 0.972898 0.128096 -0.192513
vn 0.994317 0.079962 0.070281
vn 0.832672 -0.480866 -0.274636
vn 0.697156 -0.620297 0.359451
vn 0.859612 -0.472743 0.193858
vn -0.204686 0.966959 -0.151968
vn -0.051328 0.998342 -0.026047
vn -0.554279 0.831255 -0.042305
vn -0.527260 0.624519 0.576171
vn -0.420675 0.192298 0.886597
vn -0.787681 0.442623 0.428538
vn -0.873746 0.104370 0.475052
vn -0.420675 0.192298 0.886597
vn -0.657692 -0.134568 0.741169
vn -0.460189 -0.087631 0.883485
vn -0.112770 -0.084243 0.990043
vn -0.182843 -0.230509 0.955737
vn -0.033294 0.024548 0.999144
vn 0.253296 -0.056183 0.965756
vn -0.020419 -0.136167 0.990475
vn -0.085350 0.388468 0.917501
vn -0.406192 0.535730 0.740271
vn 0.032901 0.621967 0.782352
vn 0.130957 0.209003 0.969107
vn 0.071188 -0.052963 0.996056
vn 0.061490 -0.379840 0.923006
vn -0.055404 -0.444033 0.894296
vn 0.245376 0.350743 0.903753
vn 0.205426 0.664076 0.718890
vn 0.072243 -0.784678 0.615680
vn 0.229658 -0.568927 0.789670
vn 0.308547 -0.840819 0.444771
vn 0.136888 0.226936 -0.964242
vn 0.455031 0.350848 -0.818445
vn 0.208036 0.092398 -0.973747
vn 0.057721 0.084666 -0.994736
vn -0.286413 0.062265 -0.956081
vn 0.327509 -0.163916 -0.930521
vn 0.313739 -0.258273 -0.913709
vn -0.085402 -0.014015 -0.996248
vn -0.180632 -0.071448 -0.980952
vn -0.461734 -0.087980 -0.882645
vn -0.258225 0.133599 -0.956803
vn -0.417646 -0.017914 -0.908433
vn -0.425811 0.370490 -0.825483
vn -0.282805 0.062132 -0.957163
vn 0.489662 0.067326 -0.869309
vn 0.489662 0.067326 -0.869309
vn 0.564851 -0.067927 -0.822393
vn 0.009629 0.121493 -0.992546
vn -0.140266 0.245965 -0.959076
vn -0.655355 -0.036527 -0.754437
vn -0.669129 -0.429141 -0.606716
vn -0.527016 -0.538287 -0.657649
vn -0.957129 -0.204704 -0.204938
vn -0.794402 -0.396473 -0.460146
vn -0.717550 -0.244321 -0.652250
vn -0.904254 -0.413359 -0.107051
vn -0.925015 -0.106148 0.364801
vn -0.889372 -0.351786 0.292001
vn 0.378442 0.899019 -0.220334
vn 0.901493 0.420321 -0.103155
vn 0.780774 0.604873 0.156590
vn 0.398569 -0.189502 0.897347
vn 0.834856 0.068889 0.546141
vn 0.781001 -0.150966 0.606009
vn 0.971206 0.047573 0.233442
vn 0.769361 0.290024 0.569184
vn 0.864246 0.460511 0.202506
vn 0.608709 0.515604 0.603014
vn 0.390969 0.804789 0.446607
vn 0.678771 0.705549 0.203645
vn -0.603254 -0.776124 -0.183617
vn -0.527016 -0.538287 -0.657649
vn -0.707773 -0.545703 -0.448627
vn -0.776054 -0.621207 -0.108822
vn -0.857060 -0.508913 0.080347
vn -0.654687 -0.749309 0.099602
vn 0.328194 -0.780985 -0.531367
vn 0.297859 -0.766184 -0.569423
vn 0.443082 -0.881044 -0.165648
vn -0.960607 0.265288 -0.082805
vn -0.960607 0.265288 -0.082805
vn -0.960607 0.265288 -0.082805
vn -0.960607 0.265288 -0.082805
vn 0.231720 0.929073 0.288321
vn 0.231720 0.929073 0.288321
vn 0.231720 0.929073 0.288321
vn 0.231720 0.929073 0.288321
vn 0.960607 -0.265288 0.082805
vn 0.960607 -0.265288 0.082805
vn 0.960607 -0.265288 0.082805
vn 0.960607 -0.265288 0.082805
vn -0.231720 -0.929073 -0.288321
vn -0.231720 -0.929073 -0.288321
vn -0.231720 -0.929073 -0.288321
vn -0.231720 -0.929073 -0.288321
vn -0.153418 -0.257774 0.953947
vn -0.153418 -0.257774 0.953947
vn -0.153418 -0.257774 0.953947
vn -0.153418 -0.257774 0.953947
vn 0.224934 -0.936360 -0.269507
vn 0.224934 -0.936360 -0.269507
vn 0.162328 -0.933204 0.320593
vn 0.162328 -0.933204 0.320593
vn -0.718314 0.690458 -0.085398
vn -0.554279 0.831255 -0.042305
vn -0.619750 0.761764 0.188748
vn -0.724600 0.630383 0.278518
vn 0.549408 -0.700677 0.455196
vn 0.386779 -0.682951 0.619661
vn 0.671067 -0.317599 0.669925
vn 0.749630 -0.446688 0.488390
vn 0.905077 -0.236528 -0.353398
vn 0.905077 -0.236528 -0.353398
vn 0.930130 -0.330909 -0.159239
vn 0.979612 -0.066311 -0.189641
vn 0.991716 -0.106738 0.071454
vn -0.007334 0.986567 -0.163190
vn 0.543598 0.831661 0.113316
vn 0.158535 0.971026 0.178813
vn 0.378442 0.899019 -0.220334
vn 0.076565 0.907074 -0.413951
f 3/3/3 2/2/2 1/1/1
f 6/6/6 5/5/5 4/4/4
f 9/9/9 8/8/8 7/7/7
f 12/12/12 11/11/11 10/10/10
f 15/15/15 14/14/14 13/13/13
f 17/17/17 14/14/14 16/16/16
f 17/17/17 16/16/16 18/18/18
f 14/14/14 17/17/17 19/19/19
f 17/17/17 20/20/20 19/19/19
f 21/21/21 20/20/20 17/17/17
f 14/14/14 19/19/19 22/22/22
f 23/23/23 14/14/14 22/22/22
f 23/23/23 22/22/22 24/24/24
f 22/22/22 19/19/19 25/25/25
f 25/25/25 19/19/19 26/26/26
f 28/28/28 27/27/27 17/17/17
f 30/30/30 22/22/22 29/29/29
f 33/33/33 32/32/32 31/31/31
f 36/36/36 35/35/35 34/34/34
f 34/34/34 38/38/38 37/37/37
f 40/40/40 39/39/39 37/37/37
f 38/38/38 42/42/42 41/41/41
f 45/45/45 44/44/44 43/43/43
f 47/47/47 46/46/46 44/44/44
f 50/50/50 49/49/49 48/48/48
f 49/49/49 52/52/52 51/51/51
f 55/55/55 54/54/54 53/53/53
f 58/58/58 57/57/57 56/56/56
f 60/60/60 56/56/56 59/59/59
f 61/61/61 60/60/60 59/59/59
f 64/64/64 63/63/63 62/62/62
f 67/67/67 66/66/66 65/65/65
f 70/70/70 69/69/69 68/68/68
f 73/73/73 72/72/72 71/71/71
f 76/76/76 75/75/75 74/74/74
f 78/78/78 77/77/77 74/74/74
f 79/79/79 78/78/78 74/74/74
f 82/82/82 81/81/81 80/80/80
f 85/85/85 84/84/84 83/83/83
f 86/86/86 85/85/85 83/83/83
f 89/89/89 88/88/88 87/87/87
f 90/90/90 89/89/89 87/87/87
f 93/93/93 92/92/92 91/91/91
f 94/94/94 93/93/93 91/91/91
f 97/97/97 96/96/96 95/95/95
f 98/98/98 97/97/97 95/95/95
f 101/101/101 100/100/100 99/99/99
f 102/102/102 101/101/101 99/99/99
f 105/105/105 104/104/104 103/103/103
f 106/106/106 105/105/105 103/103/103
f 109/109/109 108/108/108 107/107/107
f 110/110/110 109/109/109 107/107/107
f 113/113/113 112/112/112 111/111/111
f 114/114/114 113/113/113 111/111/111
f 117/117/117 116/116/116 115/115/115
f 118/118/118 117/117/117 115/115/115
f 118/118/118 119/119/119 117/117/117
f 122/122/122 121/121/121 120/120/120
f 121/121/121 123/123/123 120/120/120
f 120/120/120 123/123/123 124/124/124
