v -0.029796 -0.430350 0.035473
v -0.029796 -0.430349 -0.035473
v -0.016289 0.347914 -0.035473
v -0.016289 0.347914 0.035473
v -0.005933 0.389447 0.035473
v -0.005933 0.389447 -0.035473
v 0.040152 -0.487815 0.035473
v 0.040152 -0.487815 -0.035473
v 0.039153 -0.545363 -0.035473
v 0.039153 -0.545363 0.035473
v 0.003680 -0.545363 0.035473
v -0.031792 -0.545363 -0.035473
v -0.031792 -0.545363 0.035473
v 0.003680 -0.545363 -0.035473
v 0.039153 -0.545363 0.035473
v 0.039153 -0.545363 -0.035473
v -0.029796 -0.430349 -0.035473
v 0.041149 -0.430350 -0.035473
v 0.054657 0.347914 -0.035473
v -0.016289 0.347914 -0.035473
v -0.005933 0.389447 -0.035473
v 0.076257 0.380059 -0.035473
v 0.115856 0.411429 -0.035473
v 0.123063 0.385228 -0.035473
v 0.164601 0.470717 -0.035473
v 0.263928 0.550086 -0.035473
v 0.153817 0.513762 -0.035473
v 0.331683 0.498769 -0.035473
v 0.328407 0.515216 -0.035473
v 0.054657 0.347914 0.035473
v 0.076257 0.380059 0.035473
v 0.076257 0.380059 -0.035473
v 0.054657 0.347914 -0.035473
v 0.041149 -0.430350 -0.035473
v 0.041149 -0.430349 0.035473
v 0.006796 0.440499 -0.035473
v 0.013524 0.467481 -0.035473
v 0.013524 0.467481 0.035473
v 0.006796 0.440499 0.035473
v 0.178386 0.391338 0.035473
v 0.285052 0.403117 -0.035473
v 0.178386 0.391338 -0.035473
v 0.285052 0.403117 0.035473
v 0.338138 0.447513 -0.035473
v 0.338138 0.447513 0.035473
v 0.173768 0.421326 0.035473
v 0.338138 0.447513 0.035473
v 0.285052 0.403117 0.035473
v 0.178386 0.391338 0.035473
v 0.153817 0.513762 -0.035473
v 0.263928 0.550086 -0.035473
v 0.263928 0.550086 0.035473
v 0.153817 0.513762 0.035473
v 0.263928 0.550086 -0.035473
v 0.328407 0.515216 -0.035473
v 0.328407 0.515216 0.035473
v 0.263928 0.550086 0.035473
v 0.003680 -0.545363 0.035473
v -0.031792 -0.545363 0.035473
v -0.030794 -0.487815 0.035473
v 0.004679 -0.487815 0.035473
v 0.039153 -0.545363 0.035473
v 0.040152 -0.487815 0.035473
v 0.003680 -0.545363 -0.035473
v 0.039153 -0.545363 -0.035473
v 0.040152 -0.487815 -0.035473
v 0.004679 -0.487815 -0.035473
v -0.031792 -0.545363 -0.035473
v -0.030794 -0.487815 -0.035473
v 0.041149 -0.430349 0.035473
v 0.041149 -0.430350 -0.035473
v 0.040152 -0.487815 -0.035473
v 0.040152 -0.487815 0.035473
v -0.031792 -0.545363 0.035473
v -0.031792 -0.545363 -0.035473
v -0.030794 -0.487815 -0.035473
v -0.030794 -0.487815 0.035473
v 0.004679 -0.487815 0.035473
v -0.030794 -0.487815 0.035473
v -0.029796 -0.430350 0.035473
v 0.040152 -0.487815 0.035473
v 0.041149 -0.430349 0.035473
v 0.004679 -0.487815 -0.035473
v 0.040152 -0.487815 -0.035473
v 0.041149 -0.430350 -0.035473
v -0.029796 -0.430349 -0.035473
v -0.030794 -0.487815 -0.035473
v -0.030794 -0.487815 0.035473
v -0.030794 -0.487815 -0.035473
v -0.029796 -0.430349 -0.035473
v -0.029796 -0.430350 0.035473
v 0.013524 0.467481 -0.035473
v 0.097292 0.495115 -0.035473
v 0.097292 0.495115 0.035473
v 0.013524 0.467481 0.035473
v -0.005933 0.389447 0.035473
v 0.115856 0.411429 0.035473
v 0.123063 0.385228 0.035473
v 0.076257 0.380059 0.035473
v 0.054657 0.347914 0.035473
v -0.016289 0.347914 0.035473
v 0.041149 -0.430349 0.035473
v -0.029796 -0.430350 0.035473
v 0.076257 0.380059 0.035473
v 0.123063 0.385228 0.035473
v 0.123063 0.385228 -0.035473
v 0.076257 0.380059 -0.035473
v 0.006796 0.440499 -0.035473
v 0.105593 0.458267 -0.035473
v 0.097292 0.495115 -0.035473
v 0.013524 0.467481 -0.035473
v 0.097292 0.495115 -0.035473
v 0.153817 0.513762 -0.035473
v 0.153817 0.513762 0.035473
v 0.097292 0.495115 0.035473
v 0.115856 0.411429 0.035473
v 0.178386 0.391338 0.035473
v 0.123063 0.385228 0.035473
v 0.173768 0.421326 0.035473
v 0.105593 0.458267 0.035473
v 0.164601 0.470717 0.035473
v 0.097292 0.495115 0.035473
v 0.153817 0.513762 0.035473
v 0.123063 0.385228 0.035473
v 0.178386 0.391338 0.035473
v 0.178386 0.391338 -0.035473
v 0.123063 0.385228 -0.035473
v 0.105593 0.458267 -0.035473
v 0.153817 0.513762 -0.035473
v 0.097292 0.495115 -0.035473
v 0.164601 0.470717 -0.035473
v 0.115856 0.411429 -0.035473
v 0.173768 0.421326 -0.035473
v 0.123063 0.385228 -0.035473
v 0.178386 0.391338 -0.035473
v -0.005933 0.389447 -0.035473
v 0.115856 0.411429 -0.035473
v 0.105593 0.458267 -0.035473
v 0.006796 0.440499 -0.035473
v 0.013524 0.467481 0.035473
v 0.097292 0.495115 0.035473
v 0.105593 0.458267 0.035473
v 0.006796 0.440499 0.035473
v 0.263928 0.550086 0.035473
v 0.328407 0.515216 0.035473
v 0.331683 0.498769 0.035473
v 0.153817 0.513762 0.035473
v 0.164601 0.470717 0.035473
v 0.328407 0.515216 0.035473
v 0.328407 0.515216 -0.035473
v 0.331683 0.498769 -0.035473
v 0.331683 0.498769 0.035473
v 0.173768 0.421326 -0.035473
v 0.338138 0.447513 -0.035473
v 0.331683 0.498769 -0.035473
v 0.164601 0.470717 -0.035473
v 0.178386 0.391338 -0.035473
v 0.285052 0.403117 -0.035473
v 0.338138 0.447513 -0.035473
v 0.173768 0.421326 -0.035473
v -0.005933 0.389447 -0.035473
v 0.006796 0.440499 -0.035473
v 0.006796 0.440499 0.035473
v -0.005933 0.389447 0.035473
v 0.006796 0.440499 0.035473
v 0.105593 0.458267 0.035473
v 0.115856 0.411429 0.035473
v -0.005933 0.389447 0.035473
v 0.331683 0.498769 0.035473
v 0.331683 0.498769 -0.035473
v 0.338138 0.447513 -0.035473
v 0.338138 0.447513 0.035473
v 0.164601 0.470717 0.035473
v 0.331683 0.498769 0.035473
v 0.338138 0.447513 0.035473
v 0.173768 0.421326 0.035473
v 0.144718 0.409996 0.048051
v 0.061153 0.394858 0.063458
v 0.050165 0.455516 0.063458
v 0.133729 0.470654 0.048051
v 0.228282 0.425134 0.063458
v 0.217293 0.485792 0.063458
v 0.133729 0.470654 0.026406
v 0.050165 0.455516 0.063458
v 0.046002 0.454762 0.026406
v 0.133729 0.470654 0.048051
v 0.221456 0.486546 0.026406
v 0.217293 0.485792 0.063458
v 0.144718 0.409996 0.026406
v 0.228282 0.425134 0.063458
v 0.232445 0.425888 0.026406
v 0.144718 0.409996 0.048051
v 0.056991 0.394104 0.026406
v 0.061153 0.394858 0.063458
v 0.046002 0.454762 0.026406
v 0.050165 0.455516 0.063458
v 0.061153 0.394858 0.063458
v 0.056991 0.394104 0.026406
v 0.232445 0.425888 0.026406
v 0.228282 0.425134 0.063458
v 0.217293 0.485792 0.063458
v 0.221456 0.486546 0.026406
vt 0.340814322 0.490916491
vt 0.340814322 0.490916491
vt 0.340814322 0.490916491
vt 0.340814322 0.490916491
vt 0.340814322 0.490916491
vt 0.340814322 0.490916491
vt 0.340814322 0.490916491
vt 0.340814322 0.490916491
vt 0.340814322 0.490916491
vt 0.340814322 0.490916491
vt 0.340814322 0.490916491
vt 0.340814322 0.490916491
vt 0.340814322 0.490916491
vt 0.340814322 0.490916491
vt 0.340814322 0.490916491
vt 0.340814322 0.490916491
vt 0.340814322 0.490916491
vt 0.340814322 0.490916491
vt 0.340814322 0.490916491
vt 0.340814322 0.490916491
vt 0.340814322 0.490916491
vt 0.340814322 0.490916491
vt 0.340814322 0.490916491
vt 0.340814322 0.490916491
vt 0.340814322 0.490916491
vt 0.340814322 0.490916491
vt 0.340814322 0.490916491
vt 0.340814322 0.490916491
vt 0.340814322 0.490916491
vt 0.340814322 0.490916491
vt 0.340814322 0.490916491
vt 0.340814322 0.490916491
vt 0.340814322 0.490916491
vt 0.340814322 0.490916491
vt 0.340814322 0.490916491
vt 0.340814322 0.490916491
vt 0.340814322 0.490916491
vt 0.340814322 0.490916491
vt 0.340814322 0.490916491
vt 0.340814322 0.490916491
vt 0.340814322 0.490916491
vt 0.340814322 0.490916491
vt 0.340814322 0.490916491
vt 0.340814322 0.490916491
vt 0.340814322 0.490916491
vt 0.340814322 0.490916491
vt 0.340814322 0.490916491
vt 0.340814322 0.490916461
vt 0.340814322 0.490916461
vt 0.340814322 0.490916491
vt 0.340814322 0.490916491
vt 0.340814322 0.490916491
vt 0.340814322 0.490916491
vt 0.340814322 0.490916491
vt 0.340814322 0.490916491
vt 0.340814322 0.490916491
vt 0.340814322 0.490916491
vt 0.340814322 0.490916491
vt 0.340814322 0.490916491
vt 0.340814322 0.490916491
vt 0.340814322 0.490916491
vt 0.340814322 0.490916491
vt 0.340814322 0.490916491
vt 0.340814322 0.490916491
vt 0.340814322 0.490916491
vt 0.340814322 0.490916491
vt 0.340814322 0.490916491
vt 0.340814322 0.490916491
vt 0.340814322 0.490916491
vt 0.857578754 0.422014564
vt 0.857578754 0.422014564
vt 0.857578754 0.422014564
vt 0.857578754 0.422014564
vt 0.340814322 0.490916491
vt 0.340814322 0.490916491
vt 0.340814322 0.490916491
vt 0.340814322 0.490916491
vt 0.857578754 0.422014564
vt 0.857578754 0.422014564
vt 0.857578754 0.422014564
vt 0.857578754 0.422014564
vt 0.857578754 0.422014564
vt 0.857578754 0.422014564
vt 0.857578754 0.422014564
vt 0.857578754 0.422014564
vt 0.857578754 0.422014564
vt 0.857578754 0.422014564
vt 0.857578754 0.422014564
vt 0.857578754 0.422014564
vt 0.857578754 0.422014564
vt 0.857578754 0.422014564
vt 0.340814322 0.490916491
vt 0.340814322 0.490916491
vt 0.340814322 0.490916491
vt 0.340814322 0.490916491
vt 0.340814322 0.490916491
vt 0.340814322 0.490916491
vt 0.340814322 0.490916461
vt 0.340814322 0.490916461
vt 0.340814322 0.490916461
vt 0.340814322 0.490916461
vt 0.340814322 0.490916491
vt 0.340814322 0.490916491
vt 0.276833951 0.540132165
vt 0.276833951 0.540132165
vt 0.276833951 0.540132165
vt 0.276833951 0.540132165
vt 0.340814322 0.490916491
vt 0.340814322 0.490916491
vt 0.340814322 0.490916491
vt 0.340814322 0.490916491
vt 0.995382547 0.451543957
vt 0.995382547 0.451543957
vt 0.995382547 0.451543957
vt 0.995382547 0.451543957
vt 0.995382547 0.451543927
vt 0.995382547 0.451543927
vt 0.995382547 0.451543927
vt 0.995382547 0.451543927
vt 0.995382547 0.451543957
vt 0.995382547 0.451543957
vt 0.995382547 0.451543987
vt 0.995382547 0.451543987
vt 0.995382547 0.451543957
vt 0.995382547 0.451543957
vt 0.995382547 0.451543957
vt 0.995382547 0.451543957
vt 0.995382547 0.451543957
vt 0.995382547 0.451543957
vt 0.995382547 0.451543957
vt 0.995382547 0.451543957
vt 0.995382547 0.451543957
vt 0.995382547 0.451543957
vt 0.995382547 0.451543957
vt 0.995382547 0.451543957
vt 0.936323762 0.510602772
vt 0.936323762 0.510602772
vt 0.936323762 0.510602772
vt 0.936323762 0.510602772
vt 0.340814322 0.49091652
vt 0.340814322 0.49091652
vt 0.340814322 0.490916491
vt 0.340814322 0.490916491
vt 0.340814322 0.49091652
vt 0.340814322 0.490916461
vt 0.340814322 0.490916491
vt 0.340814322 0.49091652
vt 0.340814322 0.490916491
vt 0.340814322 0.490916491
vt 0.340814322 0.490916491
vt 0.340814322 0.490916491
vt 0.340814322 0.490916491
vt 0.936323762 0.510602772
vt 0.936323762 0.510602772
vt 0.936323762 0.510602772
vt 0.936323762 0.510602772
vt 0.340814322 0.490916491
vt 0.340814322 0.490916491
vt 0.340814322 0.490916491
vt 0.340814322 0.490916491
vt 0.936323762 0.510602772
vt 0.936323762 0.510602772
vt 0.936323762 0.510602772
vt 0.936323762 0.510602772
vt 0.936323762 0.510602772
vt 0.936323762 0.510602772
vt 0.936323762 0.510602772
vt 0.936323762 0.510602772
vt 0.936323762 0.510602772
vt 0.936323762 0.510602772
vt 0.936323762 0.510602772
vt 0.936323762 0.510602772
vt 0.936323762 0.510602772
vt 0.936323762 0.510602772
vt 0.936323762 0.510602772
vt 0.936323762 0.510602772
vt 0.846093178 0.455723494
vt 0.845417142 0.455723494
vt 0.845417142 0.456154615
vt 0.846093178 0.456154615
vt 0.846769154 0.455723494
vt 0.846769154 0.456154615
vt 0.846093178 0.456154615
vt 0.845417142 0.456154615
vt 0.845417142 0.456154615
vt 0.846093178 0.456154615
vt 0.846769154 0.456154615
vt 0.846769154 0.456154615
vt 0.846093178 0.455723494
vt 0.846769154 0.455723494
vt 0.846769154 0.455723494
vt 0.846093178 0.455723494
vt 0.845417142 0.455723494
vt 0.845417142 0.455723494
vt 0.845417142 0.456154615
vt 0.845417142 0.456154615
vt 0.845417142 0.455723494
vt 0.845417142 0.455723494
vt 0.846769154 0.455723494
vt 0.846769154 0.455723494
vt 0.846769154 0.456154615
vt 0.846769154 0.456154615
vn -0.999849 0.017354 0.000000
vn -0.999849 0.017354 0.000000
vn -0.991451 0.130481 0.000000
vn -0.991451 0.130481 0.000000
vn -0.970294 0.241930 0.000000
vn -0.970294 0.241930 0.000000
vn 0.999849 -0.017354 -0.000000
vn 0.999849 -0.017354 -0.000000
vn 0.999849 -0.017354 -0.000000
vn 0.999849 -0.017354 -0.000000
vn 0.000000 -1.000000 -0.000000
vn 0.000000 -1.000000 -0.000000
vn 0.000000 -1.000000 -0.000000
vn 0.000000 -1.000000 -0.000000
vn 0.000000 -1.000000 -0.000000
vn 0.000000 -1.000000 -0.000000
vn 0.000000 -0.000000 -1.000000
vn 0.000000 -0.000000 -1.000000
vn 0.000000 -0.000000 -1.000000
vn 0.000000 -0.000000 -1.000000
vn 0.000000 -0.000000 -1.000000
vn 0.000000 -0.000000 -1.000000
vn 0.000000 -0.000000 -1.000000
vn 0.000000 -0.000000 -1.000000
vn 0.000000 -0.000000 -1.000000
vn 0.000000 -0.000000 -1.000000
vn 0.000000 -0.000000 -1.000000
vn 0.000000 -0.000000 -1.000000
vn 0.000000 -0.000000 -1.000000
vn 0.953995 -0.299822 -0.000000
vn 0.830018 -0.557737 -0.000000
vn 0.830018 -0.557737 -0.000000
vn 0.953995 -0.299822 -0.000000
vn 0.999849 -0.017354 -0.000000
vn 0.999849 -0.017354 -0.000000
vn -0.970294 0.241930 0.000000
vn -0.970294 0.241930 0.000000
vn -0.970294 0.241930 0.000000
vn -0.970294 0.241930 0.000000
vn 0.109764 -0.993958 -0.000000
vn 0.392402 -0.919794 -0.000000
vn 0.109764 -0.993958 -0.000000
vn 0.392402 -0.919794 -0.000000
vn 0.641536 -0.767093 -0.000000
vn 0.641536 -0.767093 -0.000000
vn 0.000000 0.000000 1.000000
vn 0.000000 0.000000 1.000000
vn 0.000000 0.000000 1.000000
vn 0.000000 0.000000 1.000000
vn -0.313280 0.949661 0.000000
vn -0.313280 0.949661 0.000000
vn -0.313280 0.949661 0.000000
vn -0.313280 0.949661 0.000000
vn 0.475695 0.879610 0.000000
vn 0.475695 0.879610 0.000000
vn 0.475695 0.879610 0.000000
vn 0.475695 0.879610 0.000000
vn 0.000000 0.000000 1.000000
vn 0.000000 0.000000 1.000000
vn 0.000000 0.000000 1.000000
vn 0.000000 0.000000 1.000000
vn 0.000000 0.000000 1.000000
vn 0.000000 0.000000 1.000000
vn 0.000000 -0.000000 -1.000000
vn 0.000000 -0.000000 -1.000000
vn 0.000000 -0.000000 -1.000000
vn 0.000000 -0.000000 -1.000000
vn 0.000000 -0.000000 -1.000000
vn 0.000000 -0.000000 -1.000000
vn 0.999849 -0.017354 -0.000000
vn 0.999849 -0.017354 -0.000000
vn 0.999849 -0.017354 -0.000000
vn 0.999849 -0.017354 -0.000000
vn -0.999849 0.017354 0.000000
vn -0.999849 0.017354 0.000000
vn -0.999849 0.017354 0.000000
vn -0.999849 0.017354 0.000000
vn 0.000000 0.000000 1.000000
vn 0.000000 0.000000 1.000000
vn 0.000000 0.000000 1.000000
vn 0.000000 0.000000 1.000000
vn 0.000000 0.000000 1.000000
vn 0.000000 -0.000000 -1.000000
vn 0.000000 -0.000000 -1.000000
vn 0.000000 -0.000000 -1.000000
vn 0.000000 -0.000000 -1.000000
vn 0.000000 -0.000000 -1.000000
vn -0.999849 0.017354 0.000000
vn -0.999849 0.017354 0.000000
vn -0.999849 0.017354 0.000000
vn -0.999849 0.017354 0.000000
vn -0.313280 0.949661 0.000000
vn -0.313280 0.949661 0.000000
vn -0.313280 0.949661 0.000000
vn -0.313280 0.949661 0.000000
vn 0.000000 0.000000 1.000000
vn 0.000000 0.000000 1.000000
vn 0.000000 0.000000 1.000000
vn 0.000000 0.000000 1.000000
vn 0.000000 0.000000 1.000000
vn 0.000000 0.000000 1.000000
vn 0.000000 0.000000 1.000000
vn 0.000000 0.000000 1.000000
vn 0.109763 -0.993958 -0.000000
vn 0.109764 -0.993958 -0.000000
vn 0.109764 -0.993958 -0.000000
vn 0.109763 -0.993958 -0.000000
vn 0.000000 -0.000000 -1.000000
vn 0.000000 -0.000000 -1.000000
vn 0.000000 -0.000000 -1.000000
vn 0.000000 -0.000000 -1.000000
vn -0.313280 0.949661 0.000000
vn -0.313280 0.949661 0.000000
vn -0.313280 0.949661 0.000000
vn -0.313280 0.949661 0.000000
vn 0.000000 0.000000 1.000000
vn 0.000000 0.000000 1.000000
vn 0.000000 0.000000 1.000000
vn 0.000000 0.000000 1.000000
vn 0.000000 0.000000 1.000000
vn 0.000000 0.000000 1.000000
vn 0.000000 0.000000 1.000000
vn 0.000000 0.000000 1.000000
vn 0.109764 -0.993958 -0.000000
vn 0.109764 -0.993958 -0.000000
vn 0.109764 -0.993958 -0.000000
vn 0.109764 -0.993958 -0.000000
vn 0.000000 -0.000000 -1.000000
vn 0.000000 -0.000000 -1.000000
vn 0.000000 -0.000000 -1.000000
vn 0.000000 -0.000000 -1.000000
vn 0.000000 -0.000000 -1.000000
vn 0.000000 -0.000000 -1.000000
vn 0.000000 -0.000000 -1.000000
vn 0.000000 -0.000000 -1.000000
vn 0.000000 -0.000000 -1.000000
vn 0.000000 -0.000000 -1.000000
vn 0.000000 -0.000000 -1.000000
vn 0.000000 -0.000000 -1.000000
vn 0.000000 0.000000 1.000000
vn 0.000000 0.000000 1.000000
vn 0.000000 0.000000 1.000000
vn 0.000000 0.000000 1.000000
vn 0.000000 0.000000 1.000000
vn 0.000000 0.000000 1.000000
vn 0.000000 0.000000 1.000000
vn 0.000000 0.000000 1.000000
vn 0.000000 0.000000 1.000000
vn 0.980726 0.195386 0.000000
vn 0.980726 0.195386 0.000000
vn 0.987074 0.160263 0.000000
vn 0.987074 0.160263 0.000000
vn 0.000000 -0.000000 -1.000000
vn 0.000000 -0.000000 -1.000000
vn 0.000000 -0.000000 -1.000000
vn 0.000000 -0.000000 -1.000000
vn 0.000000 -0.000000 -1.000000
vn 0.000000 -0.000000 -1.000000
vn 0.000000 -0.000000 -1.000000
vn 0.000000 -0.000000 -1.000000
vn -0.970294 0.241930 0.000000
vn -0.970294 0.241930 0.000000
vn -0.970294 0.241930 0.000000
vn -0.970294 0.241930 0.000000
vn 0.000000 0.000000 1.000000
vn 0.000000 0.000000 1.000000
vn 0.000000 0.000000 1.000000
vn 0.000000 0.000000 1.000000
vn 0.987074 0.160263 0.000000
vn 0.987074 0.160263 0.000000
vn 0.992165 0.124936 0.000000
vn 0.992165 0.124936 0.000000
vn 0.000000 0.000000 1.000000
vn 0.000000 0.000000 1.000000
vn 0.000000 0.000000 1.000000
vn 0.000000 0.000000 1.000000
vn 0.000000 0.000000 1.000000
vn 0.175648 0.031819 0.983939
vn 0.175648 0.031819 0.983939
vn 0.000000 0.000000 1.000000
vn -0.175648 -0.031819 0.983939
vn -0.175648 -0.031819 0.983939
vn -0.178254 0.983985 0.000000
vn -0.178254 0.983984 0.000000
vn -0.178254 0.983984 0.000000
vn -0.178254 0.983985 0.000000
vn -0.178254 0.983985 0.000000
vn -0.178254 0.983985 0.000000
vn 0.178254 -0.983985 -0.000000
vn 0.178254 -0.983984 -0.000000
vn 0.178254 -0.983984 -0.000000
vn 0.178254 -0.983985 -0.000000
vn 0.178253 -0.983985 -0.000000
vn 0.178253 -0.983985 -0.000000
vn -0.977633 -0.177102 0.113441
vn -0.977633 -0.177102 0.113441
vn -0.977633 -0.177102 0.113441
vn -0.977633 -0.177102 0.113441
vn 0.977633 0.177102 0.113444
vn 0.977633 0.177102 0.113444
vn 0.977633 0.177102 0.113444
vn 0.977633 0.177102 0.113444
f 3/3/3 2/2/2 1/1/1
f 4/4/4 3/3/3 1/1/1
f 4/4/4 5/5/5 3/3/3
f 5/5/5 6/6/6 3/3/3
f 9/9/9 8/8/8 7/7/7
f 10/10/10 9/9/9 7/7/7
f 13/13/13 12/12/12 11/11/11
f 12/12/12 14/14/14 11/11/11
f 11/11/11 14/14/14 15/15/15
f 14/14/14 16/16/16 15/15/15
f 19/19/19 18/18/18 17/17/17
f 20/20/20 19/19/19 17/17/17
f 19/19/19 20/20/20 21/21/21
f 22/22/22 19/19/19 21/21/21
f 21/21/21 23/23/23 22/22/22
f 23/23/23 24/24/24 22/22/22
f 27/27/27 26/26/26 25/25/25
f 26/26/26 28/28/28 25/25/25
f 26/26/26 29/29/29 28/28/28
f 32/32/32 31/31/31 30/30/30
f 33/33/33 32/32/32 30/30/30
f 34/34/34 33/33/33 30/30/30
f 35/35/35 34/34/34 30/30/30
f 38/38/38 37/37/37 36/36/36
f 39/39/39 38/38/38 36/36/36
f 42/42/42 41/41/41 40/40/40
f 41/41/41 43/43/43 40/40/40
f 41/41/41 44/44/44 43/43/43
f 44/44/44 45/45/45 43/43/43
f 48/48/48 47/47/47 46/46/46
f 49/49/49 48/48/48 46/46/46
f 52/52/52 51/51/51 50/50/50
f 53/53/53 52/52/52 50/50/50
f 56/56/56 55/55/55 54/54/54
f 57/57/57 56/56/56 54/54/54
f 60/60/60 59/59/59 58/58/58
f 61/61/61 60/60/60 58/58/58
f 61/61/61 58/58/58 62/62/62
f 63/63/63 61/61/61 62/62/62
f 66/66/66 65/65/65 64/64/64
f 67/67/67 66/66/66 64/64/64
f 67/67/67 64/64/64 68/68/68
f 69/69/69 67/67/67 68/68/68
f 72/72/72 71/71/71 70/70/70
f 73/73/73 72/72/72 70/70/70
f 76/76/76 75/75/75 74/74/74
f 77/77/77 76/76/76 74/74/74
f 80/80/80 79/79/79 78/78/78
f 80/80/80 78/78/78 81/81/81
f 82/82/82 80/80/80 81/81/81
f 85/85/85 84/84/84 83/83/83
f 86/86/86 85/85/85 83/83/83
f 86/86/86 83/83/83 87/87/87
f 90/90/90 89/89/89 88/88/88
f 91/91/91 90/90/90 88/88/88
f 94/94/94 93/93/93 92/92/92
f 95/95/95 94/94/94 92/92/92
f 98/98/98 97/97/97 96/96/96
f 99/99/99 98/98/98 96/96/96
f 99/99/99 96/96/96 100/100/100
f 96/96/96 101/101/101 100/100/100
f 100/100/100 101/101/101 102/102/102
f 101/101/101 103/103/103 102/102/102
f 106/106/106 105/105/105 104/104/104
f 107/107/107 106/106/106 104/104/104
f 110/110/110 109/109/109 108/108/108
f 111/111/111 110/110/110 108/108/108
f 114/114/114 113/113/113 112/112/112
f 115/115/115 114/114/114 112/112/112
f 118/118/118 117/117/117 116/116/116
f 117/117/117 119/119/119 116/116/116
f 116/116/116 119/119/119 120/120/120
f 119/119/119 121/121/121 120/120/120
f 120/120/120 121/121/121 122/122/122
f 121/121/121 123/123/123 122/122/122
f 126/126/126 125/125/125 124/124/124
f 127/127/127 126/126/126 124/124/124
f 130/130/130 129/129/129 128/128/128
f 129/129/129 131/131/131 128/128/128
f 128/128/128 131/131/131 132/132/132
f 131/131/131 133/133/133 132/132/132
f 132/132/132 133/133/133 134/134/134
f 133/133/133 135/135/135 134/134/134
f 138/138/138 137/137/137 136/136/136
f 139/139/139 138/138/138 136/136/136
f 142/142/142 141/141/141 140/140/140
f 143/143/143 142/142/142 140/140/140
f 146/146/146 145/145/145 144/144/144
f 146/146/146 144/144/144 147/147/147
f 148/148/148 146/146/146 147/147/147
f 151/151/151 150/150/150 149/149/149
f 152/152/152 151/151/151 149/149/149
f 155/155/155 154/154/154 153/153/153
f 156/156/156 155/155/155 153/153/153
f 159/159/159 158/158/158 157/157/157
f 160/160/160 159/159/159 157/157/157
f 163/163/163 162/162/162 161/161/161
f 164/164/164 163/163/163 161/161/161
f 167/167/167 166/166/166 165/165/165
f 168/168/168 167/167/167 165/165/165
f 171/171/171 170/170/170 169/169/169
f 172/172/172 171/171/171 169/169/169
f 175/175/175 174/174/174 173/173/173
f 176/176/176 175/175/175 173/173/173
f 179/179/179 178/178/178 177/177/177
f 180/180/180 179/179/179 177/177/177
f 180/180/180 177/177/177 181/181/181
f 182/182/182 180/180/180 181/181/181
f 185/185/185 184/184/184 183/183/183
f 184/184/184 186/186/186 183/183/183
f 183/183/183 186/186/186 187/187/187
f 186/186/186 188/188/188 187/187/187
f 191/191/191 190/190/190 189/189/189
f 190/190/190 192/192/192 189/189/189
f 189/189/189 192/192/192 193/193/193
f 192/192/192 194/194/194 193/193/193
f 197/197/197 196/196/196 195/195/195
f 198/198/198 197/197/197 195/195/195
f 201/201/201 200/200/200 199/199/199
f 202/202/202 201/201/201 199/199/199
