v -0.015496 -0.546534 0.031587
v -0.015496 -0.546534 -0.031587
v -0.042590 0.319995 -0.031587
v -0.042590 0.319995 0.031587
v 0.175836 0.301096 -0.036071
v 0.306084 0.275038 -0.000000
v 0.306084 0.518696 -0.000000
v 0.175836 0.492638 -0.036071
v -0.109551 0.290127 -0.043372
v -0.218674 0.473584 -0.043373
v 0.175836 0.301096 0.036071
v 0.306084 0.275038 -0.000000
v 0.175836 0.301096 -0.036071
v -0.109551 0.290127 -0.043372
v -0.109551 0.290127 0.043372
v 0.175836 0.492638 -0.036071
v 0.306084 0.518696 -0.000000
v 0.175836 0.492638 0.036071
v -0.218674 0.473584 0.043372
v -0.218674 0.473584 -0.043373
v -0.109551 0.290127 0.043372
v -0.109551 0.290127 -0.043372
v -0.218674 0.473584 -0.043373
v -0.218674 0.473584 0.043372
v 0.088775 -0.531456 0.031587
v -0.015496 -0.546534 0.031587
v -0.042590 0.319995 0.031587
v 0.042590 0.319995 0.031587
v -0.015496 -0.546534 0.031587
v 0.088775 -0.531456 0.031587
v 0.088775 -0.531456 -0.031586
v -0.015496 -0.546534 -0.031587
v 0.175836 0.301096 0.036071
v -0.109551 0.290127 0.043372
v -0.218674 0.473584 0.043372
v 0.175836 0.492638 0.036071
v 0.306084 0.275038 -0.000000
v 0.306084 0.518696 -0.000000
v 0.042590 0.319995 -0.031587
v -0.042590 0.319995 -0.031587
v -0.015496 -0.546534 -0.031587
v 0.088775 -0.531456 -0.031586
v 0.042590 0.319995 0.031587
v 0.042590 0.319995 -0.031587
v 0.088775 -0.531456 -0.031586
v 0.088775 -0.531456 0.031587
vt 0.293547869 0.45397836
vt 0.293547869 0.45397839
vt 0.293547869 0.45397836
vt 0.293547869 0.45397836
vt 0.293547869 0.45397836
vt 0.293547869 0.45397836
vt 0.293547869 0.45397836
vt 0.293547869 0.45397836
vt 0.293547869 0.45397836
vt 0.293547869 0.45397836
vt 0.293547869 0.45397836
vt 0.293547869 0.45397836
vt 0.293547869 0.45397836
vt 0.293547869 0.45397836
vt 0.293547869 0.45397836
vt 0.293547869 0.45397836
vt 0.293547869 0.45397836
vt 0.293547869 0.45397836
vt 0.293547869 0.45397836
vt 0.293547869 0.45397836
vt 0.293547869 0.45397836
vt 0.293547869 0.45397836
vt 0.293547869 0.45397836
vt 0.293547869 0.45397836
vt 0.293547869 0.45397833
vt 0.293547869 0.45397836
vt 0.293547869 0.45397836
vt 0.293547869 0.45397836
vt 0.293547869 0.45397833
vt 0.293547869 0.45397839
vt 0.293547869 0.45397833
vt 0.293547869 0.45397833
vt 0.293547869 0.45397836
vt 0.293547869 0.45397836
vt 0.293547869 0.45397836
vt 0.293547869 0.45397836
vt 0.293547869 0.45397836
vt 0.293547869 0.45397836
vt 0.293547869 0.45397836
vt 0.293547869 0.45397836
vt 0.293547869 0.45397839
vt 0.293547869 0.45397836
vt 0.293547869 0.45397836
vt 0.293547869 0.45397836
vt 0.293547869 0.45397836
vt 0.293547869 0.45397836
vn -0.999512 -0.031251 -0.000000
vn -0.999512 -0.031251 -0.000000
vn -0.999512 -0.031251 -0.000000
vn -0.999512 -0.031251 -0.000000
vn 0.145170 0.003109 -0.989402
vn 0.266891 -0.000000 -0.963727
vn 0.266891 -0.000000 -0.963727
vn 0.145170 0.003109 -0.989402
vn 0.021202 0.006169 -0.999756
vn 0.021202 0.006169 -0.999756
vn -0.079436 -0.996840 -0.000000
vn -0.196174 -0.980569 -0.000000
vn -0.079436 -0.996840 -0.000000
vn 0.038406 -0.999262 -0.000000
vn 0.038406 -0.999262 -0.000000
vn -0.122549 0.992462 0.000000
vn -0.196174 0.980569 0.000000
vn -0.122549 0.992462 0.000000
vn -0.048242 0.998836 0.000000
vn -0.048242 0.998836 0.000000
vn -0.859453 -0.511216 -0.000000
vn -0.859453 -0.511216 -0.000000
vn -0.859453 -0.511216 -0.000000
vn -0.859453 -0.511216 -0.000000
vn 0.000000 0.000000 1.000000
vn 0.000000 0.000000 1.000000
vn 0.000000 0.000000 1.000000
vn 0.000000 0.000000 1.000000
vn 0.143119 -0.989706 -0.000000
vn 0.143119 -0.989706 -0.000000
vn 0.143119 -0.989706 -0.000000
vn 0.143119 -0.989706 -0.000000
vn 0.145170 0.003109 0.989402
vn 0.021202 0.006170 0.999756
vn 0.021202 0.006170 0.999756
vn 0.145170 0.003109 0.989402
vn 0.266891 0.000000 0.963727
vn 0.266891 0.000000 0.963727
vn 0.000000 -0.000000 -1.000000
vn 0.000000 -0.000000 -1.000000
vn 0.000000 -0.000000 -1.000000
vn 0.000000 -0.000000 -1.000000
vn 0.998532 0.054163 0.000000
vn 0.998532 0.054163 0.000000
vn 0.998532 0.054163 0.000000
vn 0.998532 0.054163 0.000000
f 3/3/3 2/2/2 1/1/1
f 4/4/4 3/3/3 1/1/1
f 7/7/7 6/6/6 5/5/5
f 8/8/8 7/7/7 5/5/5
f 5/5/5 9/9/9 8/8/8
f 9/9/9 10/10/10 8/8/8
f 13/13/13 12/12/12 11/11/11
f 14/14/14 13/13/13 11/11/11
f 15/15/15 14/14/14 11/11/11
f 18/18/18 17/17/17 16/16/16
f 18/18/18 16/16/16 19/19/19
f 16/16/16 20/20/20 19/19/19
f 23/23/23 22/22/22 21/21/21
f 24/24/24 23/23/23 21/21/21
f 27/27/27 26/26/26 25/25/25
f 28/28/28 27/27/27 25/25/25
f 31/31/31 30/30/30 29/29/29
f 32/32/32 31/31/31 29/29/29
f 35/35/35 34/34/34 33/33/33
f 36/36/36 35/35/35 33/33/33
f 33/33/33 37/37/37 36/36/36
f 37/37/37 38/38/38 36/36/36
f 41/41/41 40/40/40 39/39/39
f 42/42/42 41/41/41 39/39/39
f 45/45/45 44/44/44 43/43/43
f 46/46/46 45/45/45 43/43/43
