g Model_0
v -0.227858 -0.030296 0.892051
v 0.235872 -0.030296 0.404430
v 0.235872 0.036996 0.404430
v -0.227858 0.036996 0.892051
v -0.227858 0.036996 0.892051
v 0.235872 0.036996 0.404430
v 0.284634 0.036996 0.450804
v -0.179096 0.036996 0.938424
v -0.179096 0.036996 0.938424
v 0.284634 0.036996 0.450804
v 0.284634 -0.030296 0.450804
v -0.179096 -0.030296 0.938424
v -0.179096 -0.030296 0.938424
v 0.284634 -0.030296 0.450804
v 0.235872 -0.030296 0.404430
v -0.227858 -0.030296 0.892051
v -0.179096 -0.030296 0.938424
v -0.227858 -0.030296 0.892051
v -0.227858 0.036996 0.892051
v -0.179096 0.036996 0.938424
v 0.396686 -0.030296 1.068631
v 0.213895 -0.030296 0.421015
v 0.213895 0.036996 0.421015
v 0.396686 0.036996 1.068631
v 0.396686 0.036996 1.068631
v 0.213895 0.036996 0.421015
v 0.278657 0.036996 0.402735
v 0.461448 0.036996 1.050352
v 0.461448 0.036996 1.050352
v 0.278657 0.036996 0.402735
v 0.278657 -0.030296 0.402735
v 0.461448 -0.030296 1.050352
v 0.461448 -0.030296 1.050352
v 0.278657 -0.030296 0.402735
v 0.213895 -0.030296 0.421015
v 0.396686 -0.030296 1.068631
v 0.461448 -0.030296 1.050352
v 0.396686 -0.030296 1.068631
v 0.396686 0.036996 1.068631
v 0.461448 0.036996 1.050352
v -0.500000 0.250000 0.000000
v -0.500000 -0.250000 0.000000
v 0.500000 -0.250000 0.000000
v 0.500000 0.250000 0.000000
v -0.500000 0.250000 0.500000
v 0.500000 0.250000 0.500000
v 0.500000 -0.250000 0.500000
v -0.500000 -0.250000 0.500000
v -0.500000 0.250000 0.000000
v 0.500000 0.250000 0.000000
v 0.500000 0.250000 0.500000
v -0.500000 0.250000 0.500000
v 0.500000 0.250000 0.000000
v 0.500000 -0.250000 0.000000
v 0.500000 -0.250000 0.500000
v 0.500000 0.250000 0.500000
v 0.500000 -0.250000 0.000000
v -0.500000 -0.250000 0.000000
v -0.500000 -0.250000 0.500000
v 0.500000 -0.250000 0.500000
v -0.500000 0.250000 0.500000
v -0.500000 -0.250000 0.500000
v -0.500000 -0.250000 0.000000
v -0.500000 0.250000 0.000000
v 0.181923 0.087708 0.421074
v 0.181923 0.087708 0.136375
v 0.181923 0.287709 0.136375
v 0.181923 0.287709 0.421074
v 0.181923 0.287709 0.421074
v 0.181923 0.287709 0.136375
v 0.462166 0.287709 0.136375
v 0.462166 0.287709 0.421074
v 0.462166 0.287709 0.421074
v 0.462166 0.287709 0.136375
v 0.462166 0.087708 0.136375
v 0.462166 0.087708 0.421074
v 0.181923 0.087708 0.136375
v 0.462166 0.087708 0.136375
v 0.462166 0.287709 0.136375
v 0.181923 0.287709 0.136375
v 0.462166 0.087708 0.421074
v 0.181923 0.087708 0.421074
v 0.181923 0.287709 0.421074
v 0.462166 0.287709 0.421074
v -0.140122 0.087708 0.421074
v -0.140122 0.087708 0.255214
v -0.140122 0.287709 0.255214
v -0.140122 0.287709 0.421074
v -0.140122 0.287709 0.421074
v -0.140122 0.287709 0.255214
v 0.140122 0.287709 0.255214
v 0.140122 0.287709 0.421074
v 0.140122 0.287709 0.421074
v 0.140122 0.287709 0.255214
v 0.140122 0.087708 0.255214
v 0.140122 0.087708 0.421074
v -0.140122 0.087708 0.255214
v 0.140122 0.087708 0.255214
v 0.140122 0.287709 0.255214
v -0.140122 0.287709 0.255214
v 0.140122 0.087708 0.421074
v -0.140122 0.087708 0.421074
v -0.140122 0.287709 0.421074
v 0.140122 0.287709 0.421074
v -0.181923 0.087708 0.421074
v -0.181923 0.287709 0.421074
v -0.181923 0.287709 0.136375
v -0.181923 0.087708 0.136375
v -0.181923 0.287709 0.421074
v -0.462166 0.287709 0.421074
v -0.462166 0.287709 0.136375
v -0.181923 0.287709 0.136375
v -0.462166 0.287709 0.421074
v -0.462166 0.087708 0.421074
v -0.462166 0.087708 0.136375
v -0.462166 0.287709 0.136375
v -0.181923 0.087708 0.136375
v -0.181923 0.287709 0.136375
v -0.462166 0.287709 0.136375
v -0.462166 0.087708 0.136375
v -0.462166 0.087708 0.421074
v -0.462166 0.287709 0.421074
v -0.181923 0.287709 0.421074
v -0.181923 0.087708 0.421074
vt 0.816008985 0.753042996
vt 0.816008985 0.713271976
vt 0.81052202 0.713271976
vt 0.81052202 0.753042996
vt 0.817502975 0.703863978
vt 0.817502975 0.646152973
vt 0.81201601 0.646152973
vt 0.81201601 0.703863978
vt 0.81052202 0.753042996
vt 0.81052202 0.71104598
vt 0.805033982 0.71104598
vt 0.805033982 0.753042996
vt 0.820286989 0.811136007
vt 0.820286989 0.753425002
vt 0.814800024 0.753425002
vt 0.814800024 0.811136007
vt 0.782181978 0.679830015
vt 0.786175013 0.679830015
vt 0.786175013 0.674058974
vt 0.782181978 0.674058974
vt 0.831261992 0.809740007
vt 0.831261992 0.753425002
vt 0.825775027 0.753425002
vt 0.825775027 0.809740007
vt 0.822991014 0.703863978
vt 0.822991014 0.646152973
vt 0.817502975 0.646152973
vt 0.817502975 0.703863978
vt 0.828477979 0.702467978
vt 0.828477979 0.646152973
vt 0.822991014 0.646152973
vt 0.822991014 0.702467978
vt 0.820286989 0.753425002
vt 0.820286989 0.811136007
vt 0.825775027 0.811136007
vt 0.825775027 0.753425002
vt 0.782181978 0.673014998
vt 0.787536025 0.673014998
vt 0.787536025 0.667244017
vt 0.782181978 0.667244017
vt 0.173620999 0.821184993
vt 0.214393005 0.821184993
vt 0.214393005 0.735422015
vt 0.173620999 0.735422015
vt 0.255165994 0.906819999
vt 0.255165994 0.821184993
vt 0.214393005 0.821184993
vt 0.214393005 0.906819999
vt 0.173620999 0.821184993
vt 0.173620999 0.735422015
vt 0.132847995 0.735422015
vt 0.132847995 0.821184993
vt 0.132909 0.821184993
vt 0.132909 0.864066005
vt 0.173620999 0.864066005
vt 0.173620999 0.821184993
vt 0.255165994 0.821184993
vt 0.255165994 0.735422015
vt 0.214393005 0.735422015
vt 0.214393005 0.821184993
vt 0.173682004 0.821184993
vt 0.173682004 0.864066005
vt 0.214393005 0.864066005
vt 0.214393005 0.821184993
vt 0.721044004 0.242230996
vt 0.721044004 0.217850998
vt 0.704734981 0.217850998
vt 0.704734981 0.242230996
vt 0.704734981 0.303613991
vt 0.704734981 0.32802999
vt 0.727587998 0.32802999
vt 0.727587998 0.303613991
vt 0.59878701 0.370875001
vt 0.59878701 0.346495003
vt 0.582477987 0.346495003
vt 0.582477987 0.370875001
vt 0.663962007 0.370530009
vt 0.663962007 0.346495003
vt 0.647652984 0.346495003
vt 0.647652984 0.370530009
vt 0.737353027 0.352411002
vt 0.737353027 0.328411996
vt 0.721044004 0.328411996
vt 0.721044004 0.352411002
vt 0.267697006 0.245371997
vt 0.281201988 0.245371997
vt 0.281201988 0.228219002
vt 0.267697006 0.228219002
vt 0.267697006 0.269407004
vt 0.281221986 0.269407004
vt 0.281221986 0.245371997
vt 0.267697006 0.245371997
vt 0.281201988 0.211067006
vt 0.267697006 0.211067006
vt 0.267697006 0.228219002
vt 0.281201988 0.228219002
vt 0.186151996 0.361084998
vt 0.186151996 0.337049991
vt 0.169843003 0.337049991
vt 0.169843003 0.361084998
vt 0.267697006 0.366964012
vt 0.267697006 0.34296599
vt 0.251388013 0.34296599
vt 0.251388013 0.366964012
vt 0.704734981 0.279197007
vt 0.721044004 0.279197007
vt 0.721044004 0.254817009
vt 0.704734981 0.254817009
vt 0.727587998 0.279197007
vt 0.704734981 0.279197007
vt 0.704734981 0.303613991
vt 0.727587998 0.303613991
vt 0.704734981 0.352409989
vt 0.721044004 0.352409989
vt 0.721044004 0.32802999
vt 0.704734981 0.32802999
vt 0.606881022 0.370530009
vt 0.623189986 0.370530009
vt 0.623189986 0.346495003
vt 0.606881022 0.346495003
vt 0.737353027 0.352411002
vt 0.721044004 0.352411002
vt 0.721044004 0.376408994
vt 0.737353027 0.376408994
vn -0.724636 0.000000 -0.689132
vn -0.724636 0.000000 -0.689132
vn -0.724636 0.000000 -0.689132
vn -0.724636 0.000000 -0.689132
vn 0.000000 1.000000 0.000000
vn 0.000000 1.000000 0.000000
vn 0.000000 1.000000 0.000000
vn 0.000000 1.000000 0.000000
vn 0.724635 0.000000 0.689133
vn 0.724635 0.000000 0.689133
vn 0.724635 0.000000 0.689133
vn 0.724635 0.000000 0.689133
vn 0.000000 -1.000000 0.000000
vn 0.000000 -1.000000 0.000000
vn 0.000000 -1.000000 0.000000
vn 0.000000 -1.000000 0.000000
vn -0.689133 0.000000 0.724635
vn -0.689133 0.000000 0.724635
vn -0.689133 0.000000 0.724635
vn -0.689133 0.000000 0.724635
vn -0.962399 0.000000 0.271639
vn -0.962399 0.000000 0.271639
vn -0.962399 0.000000 0.271639
vn -0.962399 0.000000 0.271639
vn 0.000000 1.000000 0.000000
vn 0.000000 1.000000 0.000000
vn 0.000000 1.000000 0.000000
vn 0.000000 1.000000 0.000000
vn 0.962399 0.000000 -0.271639
vn 0.962399 0.000000 -0.271639
vn 0.962399 0.000000 -0.271639
vn 0.962399 0.000000 -0.271639
vn 0.000000 -1.000000 0.000000
vn 0.000000 -1.000000 0.000000
vn 0.000000 -1.000000 0.000000
vn 0.000000 -1.000000 0.000000
vn 0.271637 0.000000 0.962400
vn 0.271637 0.000000 0.962400
vn 0.271637 0.000000 0.962400
vn 0.271637 0.000000 0.962400
vn 0.000000 0.000000 -1.000000
vn 0.000000 0.000000 -1.000000
vn 0.000000 0.000000 -1.000000
vn 0.000000 0.000000 -1.000000
vn 0.000000 0.000000 1.000000
vn 0.000000 0.000000 1.000000
vn 0.000000 0.000000 1.000000
vn 0.000000 0.000000 1.000000
vn 0.000000 1.000000 0.000000
vn 0.000000 1.000000 0.000000
vn 0.000000 1.000000 0.000000
vn 0.000000 1.000000 0.000000
vn 1.000000 0.000000 0.000000
vn 1.000000 0.000000 0.000000
vn 1.000000 0.000000 0.000000
vn 1.000000 0.000000 0.000000
vn 0.000000 -1.000000 0.000000
vn 0.000000 -1.000000 0.000000
vn 0.000000 -1.000000 0.000000
vn 0.000000 -1.000000 0.000000
vn -1.000000 0.000000 0.000000
vn -1.000000 0.000000 0.000000
vn -1.000000 0.000000 0.000000
vn -1.000000 0.000000 0.000000
vn -1.000000 0.000000 0.000000
vn -1.000000 0.000000 0.000000
vn -1.000000 0.000000 0.000000
vn -1.000000 0.000000 0.000000
vn 0.000000 1.000000 0.000000
vn 0.000000 1.000000 0.000000
vn 0.000000 1.000000 0.000000
vn 0.000000 1.000000 0.000000
vn 1.000000 0.000000 0.000000
vn 1.000000 0.000000 0.000000
vn 1.000000 0.000000 0.000000
vn 1.000000 0.000000 0.000000
vn 0.000000 0.000000 -1.000000
vn 0.000000 0.000000 -1.000000
vn 0.000000 0.000000 -1.000000
vn 0.000000 0.000000 -1.000000
vn 0.000000 0.000000 1.000000
vn 0.000000 0.000000 1.000000
vn 0.000000 0.000000 1.000000
vn 0.000000 0.000000 1.000000
vn -1.000000 0.000000 0.000000
vn -1.000000 0.000000 0.000000
vn -1.000000 0.000000 0.000000
vn -1.000000 0.000000 0.000000
vn 0.000000 1.000000 0.000000
vn 0.000000 1.000000 0.000000
vn 0.000000 1.000000 0.000000
vn 0.000000 1.000000 0.000000
vn 1.000000 0.000000 0.000000
vn 1.000000 0.000000 0.000000
vn 1.000000 0.000000 0.000000
vn 1.000000 0.000000 0.000000
vn 0.000000 0.000000 -1.000000
vn 0.000000 0.000000 -1.000000
vn 0.000000 0.000000 -1.000000
vn 0.000000 0.000000 -1.000000
vn 0.000000 0.000000 1.000000
vn 0.000000 0.000000 1.000000
vn 0.000000 0.000000 1.000000
vn 0.000000 0.000000 1.000000
vn 1.000000 0.000000 0.000000
vn 1.000000 0.000000 0.000000
vn 1.000000 0.000000 0.000000
vn 1.000000 0.000000 0.000000
vn 0.000000 1.000000 0.000000
vn 0.000000 1.000000 0.000000
vn 0.000000 1.000000 0.000000
vn 0.000000 1.000000 0.000000
vn -1.000000 0.000000 0.000000
vn -1.000000 0.000000 0.000000
vn -1.000000 0.000000 0.000000
vn -1.000000 0.000000 0.000000
vn 0.000000 0.000000 -1.000000
vn 0.000000 0.000000 -1.000000
vn 0.000000 0.000000 -1.000000
vn 0.000000 0.000000 -1.000000
vn 0.000000 0.000000 1.000000
vn 0.000000 0.000000 1.000000
vn 0.000000 0.000000 1.000000
vn 0.000000 0.000000 1.000000
g Model_0_0
f 3/3/3 2/2/2 1/1/1
f 4/4/4 3/3/3 1/1/1
f 7/7/7 6/6/6 5/5/5
f 8/8/8 7/7/7 5/5/5
f 11/11/11 10/10/10 9/9/9
f 12/12/12 11/11/11 9/9/9
f 15/15/15 14/14/14 13/13/13
f 16/16/16 15/15/15 13/13/13
f 19/19/19 18/18/18 17/17/17
f 20/20/20 19/19/19 17/17/17
f 23/23/23 22/22/22 21/21/21
f 24/24/24 23/23/23 21/21/21
f 27/27/27 26/26/26 25/25/25
f 28/28/28 27/27/27 25/25/25
f 31/31/31 30/30/30 29/29/29
f 32/32/32 31/31/31 29/29/29
f 35/35/35 34/34/34 33/33/33
f 36/36/36 35/35/35 33/33/33
f 39/39/39 38/38/38 37/37/37
f 40/40/40 39/39/39 37/37/37
f 43/43/43 42/42/42 41/41/41
f 44/44/44 43/43/43 41/41/41
f 47/47/47 46/46/46 45/45/45
f 48/48/48 47/47/47 45/45/45
f 51/51/51 50/50/50 49/49/49
f 52/52/52 51/51/51 49/49/49
f 55/55/55 54/54/54 53/53/53
f 56/56/56 55/55/55 53/53/53
f 59/59/59 58/58/58 57/57/57
f 60/60/60 59/59/59 57/57/57
f 63/63/63 62/62/62 61/61/61
f 64/64/64 63/63/63 61/61/61
f 67/67/67 66/66/66 65/65/65
f 68/68/68 67/67/67 65/65/65
f 71/71/71 70/70/70 69/69/69
f 72/72/72 71/71/71 69/69/69
f 75/75/75 74/74/74 73/73/73
f 76/76/76 75/75/75 73/73/73
f 79/79/79 78/78/78 77/77/77
f 80/80/80 79/79/79 77/77/77
f 83/83/83 82/82/82 81/81/81
f 84/84/84 83/83/83 81/81/81
f 87/87/87 86/86/86 85/85/85
f 88/88/88 87/87/87 85/85/85
f 91/91/91 90/90/90 89/89/89
f 92/92/92 91/91/91 89/89/89
f 95/95/95 94/94/94 93/93/93
f 96/96/96 95/95/95 93/93/93
f 99/99/99 98/98/98 97/97/97
f 100/100/100 99/99/99 97/97/97
f 103/103/103 102/102/102 101/101/101
f 104/104/104 103/103/103 101/101/101
f 107/107/107 106/106/106 105/105/105
f 108/108/108 107/107/107 105/105/105
f 111/111/111 110/110/110 109/109/109
f 112/112/112 111/111/111 109/109/109
f 115/115/115 114/114/114 113/113/113
f 116/116/116 115/115/115 113/113/113
f 119/119/119 118/118/118 117/117/117
f 120/120/120 119/119/119 117/117/117
f 123/123/123 122/122/122 121/121/121
f 124/124/124 123/123/123 121/121/121