g Model_0
v -0.108182 0.049197 0.341578
v -0.183892 0.011828 0.606245
v -0.206840 -0.079833 0.583169
v -0.119522 -0.047375 0.339119
v 0.012434 -0.037632 -0.652089
v 0.023774 0.058940 -0.649630
v 0.119521 0.047376 -0.636997
v 0.108182 -0.049197 -0.639456
v -0.023774 -0.058940 0.351752
v -0.012434 0.037632 0.354211
v -0.095774 -0.017509 0.635148
v -0.118722 -0.109170 0.612072
v 0.108182 -0.049197 -0.639456
v 0.012434 -0.037632 -0.652089
v -0.119522 -0.047375 0.339119
v -0.023774 -0.058940 0.351752
v -0.118722 -0.109170 0.612072
v -0.206840 -0.079833 0.583169
v -0.012434 0.037632 0.354211
v 0.023774 0.058940 -0.649630
v 0.119521 0.047376 -0.636997
v -0.108182 0.049197 0.341578
v -0.183892 0.011828 0.606245
v -0.095774 -0.017509 0.635148
v -0.594118 -0.916052 0.463223
v -0.605867 -1.008135 0.492266
v -0.702391 -0.996193 0.491081
v -0.690642 -0.904110 0.462039
v -0.619253 -1.213830 -0.491082
v -0.631002 -1.305913 -0.462039
v -0.605867 -1.008135 0.492266
v -0.594118 -0.916052 0.463223
v -0.631002 -1.305913 -0.462039
v -0.727526 -1.293972 -0.463223
v -0.702391 -0.996193 0.491081
v -0.605867 -1.008135 0.492266
v -0.727526 -1.293972 -0.463223
v -0.715777 -1.201888 -0.492266
v -0.690642 -0.904110 0.462039
v -0.702391 -0.996193 0.491081
v -0.594118 -0.916052 0.463223
v -0.690642 -0.904110 0.462039
v -0.715777 -1.201888 -0.492266
v -0.619253 -1.213830 -0.491082
v 0.625981 -0.761321 0.557916
v 0.517228 -0.884813 0.709827
v 0.551822 -0.968296 0.673845
v 0.635844 -0.855611 0.536169
v 0.691038 -0.625729 -0.435484
v 0.681175 -0.531439 -0.413736
v 0.777792 -0.523057 -0.406264
v 0.787654 -0.617347 -0.428012
v 0.732460 -0.847229 0.543640
v 0.722598 -0.752938 0.565388
v 0.602437 -0.868451 0.753789
v 0.637031 -0.951934 0.717806
v 0.787654 -0.617347 -0.428012
v 0.691038 -0.625729 -0.435484
v 0.635844 -0.855611 0.536169
v 0.732460 -0.847229 0.543640
v 0.637031 -0.951934 0.717806
v 0.551822 -0.968296 0.673845
v 0.722598 -0.752938 0.565388
v 0.681175 -0.531439 -0.413736
v 0.777792 -0.523057 -0.406264
v 0.625981 -0.761321 0.557916
v 0.517228 -0.884813 0.709827
v 0.602437 -0.868451 0.753789
v 1.212496 0.961083 0.362051
v 1.182008 1.144496 0.527801
v 1.149658 1.067043 0.576948
v 1.197295 0.866414 0.378407
v 1.353098 0.674009 -0.590461
v 1.368300 0.768678 -0.606817
v 1.463169 0.756498 -0.589142
v 1.447967 0.661829 -0.572787
v 1.292164 0.854234 0.396082
v 1.307366 0.948903 0.379726
v 1.271378 1.129629 0.563198
v 1.239028 1.052177 0.612344
v 1.447967 0.661829 -0.572787
v 1.353098 0.674009 -0.590461
v 1.197295 0.866414 0.378407
v 1.292164 0.854234 0.396082
v 1.239028 1.052177 0.612344
v 1.149658 1.067043 0.576948
v 1.307366 0.948903 0.379726
v 1.368300 0.768678 -0.606817
v 1.463169 0.756498 -0.589142
v 1.212496 0.961083 0.362051
v 1.182008 1.144496 0.527801
v 1.271378 1.129629 0.563198
v 0.650825 0.568312 0.482146
v 0.670273 0.474701 0.464270
v 0.586188 0.449258 0.506022
v 0.566739 0.542870 0.523897
v 0.189640 0.641359 -0.402147
v 0.209089 0.547747 -0.420022
v 0.670273 0.474701 0.464270
v 0.650825 0.568312 0.482146
v 0.209089 0.547747 -0.420022
v 0.125003 0.522305 -0.378271
v 0.586188 0.449258 0.506022
v 0.670273 0.474701 0.464270
v 0.125003 0.522305 -0.378271
v 0.105555 0.615916 -0.360395
v 0.566739 0.542870 0.523897
v 0.586188 0.449258 0.506022
v 0.650825 0.568312 0.482146
v 0.566739 0.542870 0.523897
v 0.105555 0.615916 -0.360395
v 0.189640 0.641359 -0.402147
v -1.149375 1.418025 0.321289
v -1.181242 1.460971 0.523571
v -1.217216 1.372558 0.504868
v -1.179073 1.325671 0.328336
v -0.691351 1.104395 -0.516155
v -0.661653 1.196749 -0.523202
v -0.582102 1.175106 -0.471587
v -0.611800 1.082752 -0.464540
v -1.099522 1.304029 0.379950
v -1.069824 1.396382 0.372903
v -1.107083 1.420585 0.571844
v -1.143057 1.332171 0.553140
v -0.611800 1.082752 -0.464540
v -0.691351 1.104395 -0.516155
v -1.179073 1.325671 0.328336
v -1.099522 1.304029 0.379950
v -1.143057 1.332171 0.553140
v -1.217216 1.372558 0.504868
v -1.069824 1.396382 0.372903
v -0.661653 1.196749 -0.523202
v -0.582102 1.175106 -0.471587
v -1.149375 1.418025 0.321289
v -1.181242 1.460971 0.523571
v -1.107083 1.420585 0.571844
v -1.312376 0.166038 0.269130
v -1.275614 0.158038 0.433444
v -1.278341 0.060879 0.437107
v -1.326653 0.071790 0.249784
v -1.248883 0.260941 -0.729080
v -1.234606 0.355189 -0.709733
v -1.138690 0.339710 -0.705104
v -1.152967 0.245462 -0.724450
v -1.230737 0.056311 0.254413
v -1.216460 0.150559 0.273759
v -1.180049 0.154684 0.415640
v -1.182777 0.057524 0.419303
v -1.152967 0.245462 -0.724450
v -1.248883 0.260941 -0.729080
v -1.326653 0.071790 0.249784
v -1.230737 0.056311 0.254413
v -1.182777 0.057524 0.419303
v -1.278341 0.060879 0.437107
v -1.216460 0.150559 0.273759
v -1.234606 0.355189 -0.709733
v -1.138690 0.339710 -0.705104
v -1.312376 0.166038 0.269130
v -1.275614 0.158038 0.433444
v -1.180049 0.154684 0.415640
v -0.095774 -0.017509 0.635148
v -0.118722 -0.109170 0.612072
v -0.206840 -0.079833 0.583169
v -0.183892 0.011828 0.606245
v -1.180049 0.154684 0.415640
v -1.182777 0.057524 0.419303
v -1.278341 0.060879 0.437107
v -1.275614 0.158038 0.433444
v 0.602437 -0.868451 0.753789
v 0.637031 -0.951934 0.717806
v 0.551822 -0.968296 0.673845
v 0.517228 -0.884813 0.709827
v 1.271378 1.129629 0.563198
v 1.239028 1.052177 0.612344
v 1.149658 1.067043 0.576948
v 1.182008 1.144496 0.527801
v -1.107083 1.420585 0.571844
v -1.143057 1.332171 0.553140
v -1.217216 1.372558 0.504868
v -1.181242 1.460971 0.523571
vt 0.758962989 0.383560002
vt 0.76079601 0.399147004
vt 0.766292989 0.398330986
vt 0.764590025 0.383711994
vt 0.766292989 0.327663988
vt 0.760666013 0.327513009
vt 0.713055015 0.400418013
vt 0.718680024 0.400184005
vt 0.716189981 0.343892008
vt 0.710565984 0.344125003
vt 0.713176012 0.327513009
vt 0.718680024 0.328296989
vt 0.720974982 0.398979992
vt 0.726599991 0.398770005
vt 0.724304974 0.342469007
vt 0.718680024 0.342678994
vt 0.721107006 0.327513009
vt 0.726599991 0.328213006
vt 0.751727998 0.383964986
vt 0.758962989 0.327665001
vt 0.753334999 0.327513009
vt 0.757355988 0.384117007
vt 0.758962989 0.399556994
vt 0.753488004 0.400382012
vt 0.231670007 0.279933989
vt 0.226706997 0.279309005
vt 0.226706997 0.284640998
vt 0.231670007 0.285266012
vt 0.258383989 0.268916994
vt 0.252766013 0.268855989
vt 0.252766013 0.32447201
vt 0.258383989 0.324533999
vt 0.276107997 0.269246012
vt 0.270478994 0.269279003
vt 0.270478994 0.323801994
vt 0.276107997 0.323769003
vt 0.247158006 0.324065
vt 0.252766013 0.323958993
vt 0.252766013 0.268855989
vt 0.247158006 0.268961996
vt 0.261554986 0.324712008
vt 0.267185003 0.324719012
vt 0.267185003 0.271203995
vt 0.261554986 0.271196991
vt 0.192086995 0.278593987
vt 0.196603999 0.290105999
vt 0.201716006 0.288991988
vt 0.197628006 0.27877301
vt 0.201716006 0.223799005
vt 0.196173996 0.223620996
vt 0.204980001 0.292448014
vt 0.210517004 0.292304993
vt 0.207252994 0.236714005
vt 0.201716006 0.236856997
vt 0.205438003 0.223620996
vt 0.210517004 0.224708006
vt 0.238710001 0.287748009
vt 0.244194001 0.287791014
vt 0.240957007 0.233558998
vt 0.235474005 0.233517006
vt 0.239258006 0.223620996
vt 0.244194001 0.225786
vt 0.182205006 0.278627008
vt 0.192086995 0.223782003
vt 0.186588004 0.223620996
vt 0.187703997 0.278788
vt 0.192086995 0.288028002
vt 0.187078997 0.289979994
vt 0.189067006 0.716791987
vt 0.196012005 0.704487026
vt 0.190631002 0.702941
vt 0.183479995 0.71746099
vt 0.190424994 0.773413002
vt 0.196012005 0.772745013
vt 0.208177999 0.703565001
vt 0.202583998 0.702941
vt 0.196012005 0.759045005
vt 0.201605007 0.759669006
vt 0.208177999 0.772821009
vt 0.202822998 0.774379015
vt 0.302904993 0.772222996
vt 0.308530986 0.772046983
vt 0.306766987 0.716075003
vt 0.30114001 0.716251016
vt 0.302973002 0.702941
vt 0.308532 0.703795016
vt 0.271780014 0.823710024
vt 0.278544992 0.768414974
vt 0.272917002 0.768302023
vt 0.277408987 0.823822975
vt 0.278544992 0.833379984
vt 0.272998989 0.834309995
vt 0.661405027 0.678294003
vt 0.661405027 0.672820985
vt 0.657306015 0.672500014
vt 0.657306015 0.677972972
vt 0.654312015 0.661338985
vt 0.649067998 0.660076022
vt 0.649067998 0.703866005
vt 0.654312015 0.705128014
vt 0.649067998 0.660165012
vt 0.643911004 0.660076022
vt 0.643911004 0.716506004
vt 0.649067998 0.716593981
vt 0.663385987 0.704315007
vt 0.668609023 0.702938974
vt 0.668609023 0.661042988
vt 0.663385987 0.662419021
vt 0.76157099 0.715360999
vt 0.76682502 0.715371013
vt 0.76682502 0.658896983
vt 0.76157099 0.658887029
vt 0.213741004 0.781090021
vt 0.213990003 0.769299984
vt 0.208818004 0.770838022
vt 0.208177999 0.78135699
vt 0.208426997 0.835408986
vt 0.213990003 0.835141003
vt 0.281024992 0.833858013
vt 0.28657499 0.834136009
vt 0.286202997 0.780956984
vt 0.280653 0.780678988
vt 0.281419992 0.76919198
vt 0.28657499 0.770775974
vt 0.28657499 0.703251004
vt 0.280995995 0.702941
vt 0.278544992 0.758991003
vt 0.284123987 0.759301007
vt 0.28657499 0.76919198
vt 0.281242996 0.769014001
vt 0.242071003 0.71390003
vt 0.239831001 0.769816995
vt 0.245412007 0.769393027
vt 0.236489996 0.714323997
vt 0.240062997 0.703297973
vt 0.245412007 0.702941
vt 0.762776017 0.786058009
vt 0.764163017 0.777695
vt 0.758670986 0.776675999
vt 0.757156014 0.786128998
vt 0.758543015 0.841530979
vt 0.764163017 0.84145999
vt 0.764572978 0.71251303
vt 0.758953989 0.712384999
vt 0.757156014 0.768266976
vt 0.762776017 0.768395007
vt 0.764572978 0.775663972
vt 0.759073973 0.776675999
vt 0.727169991 0.712633014
vt 0.721547008 0.712384999
vt 0.718792021 0.76718998
vt 0.724415004 0.767437994
vt 0.727169991 0.776754975
vt 0.721670985 0.777746975
vt 0.716602981 0.785623014
vt 0.713168025 0.841356993
vt 0.718792021 0.841176987
vt 0.710977972 0.78580302
vt 0.713297009 0.776556015
vt 0.718792021 0.777656019
vt 0.666777015 0.404442996
vt 0.666777015 0.398950994
vt 0.661164999 0.398959994
vt 0.661164999 0.404451996
vt 0.702151 0.790036976
vt 0.702151 0.795427024
vt 0.707192004 0.794956028
vt 0.707192004 0.78956598
vt 0.227553993 0.300505996
vt 0.232878 0.300801009
vt 0.232878 0.295383006
vt 0.227553993 0.295087993
vt 0.245412007 0.787333012
vt 0.249460995 0.786882997
vt 0.249460995 0.781427979
vt 0.245412007 0.781877995
vt 0.250735015 0.781427979
vt 0.250735015 0.775942981
vt 0.245412007 0.775846004
vt 0.245412007 0.781331003
vn -0.965549 0.164112 -0.201948
vn -0.939391 0.208081 -0.272484
vn -0.939391 0.208081 -0.272484
vn -0.965549 0.164112 -0.201948
vn -0.984375 0.118898 -0.129878
vn -0.984375 0.118898 -0.129878
vn 0.984376 -0.118892 0.129877
vn 0.984376 -0.118892 0.129877
vn 0.965913 -0.163960 0.200320
vn 0.965913 -0.163960 0.200320
vn 0.940366 -0.207826 0.269294
vn 0.940366 -0.207826 0.269294
vn -0.116588 -0.992859 -0.025280
vn -0.116588 -0.992859 -0.025280
vn -0.141467 -0.982407 -0.121915
vn -0.141467 -0.982407 -0.121915
vn -0.164923 -0.962066 -0.217323
vn -0.164923 -0.962066 -0.217323
vn 0.142166 0.982651 0.119106
vn 0.116583 0.992859 0.025280
vn 0.116583 0.992859 0.025280
vn 0.142166 0.982651 0.119106
vn 0.166390 0.963046 0.211794
vn 0.166390 0.963046 0.211794
vn 0.025130 0.297776 0.954305
vn 0.025130 0.297776 0.954305
vn 0.025130 0.297776 0.954305
vn 0.025130 0.297776 0.954305
vn 0.992360 -0.122777 0.012174
vn 0.992360 -0.122777 0.012174
vn 0.992360 -0.122777 0.012174
vn 0.992360 -0.122777 0.012174
vn -0.120786 -0.946708 0.298589
vn -0.120786 -0.946708 0.298589
vn -0.120786 -0.946708 0.298589
vn -0.120786 -0.946708 0.298589
vn -0.992360 0.122777 -0.012174
vn -0.992360 0.122777 -0.012174
vn -0.992360 0.122777 -0.012174
vn -0.992360 0.122777 -0.012174
vn 0.120790 0.946707 -0.298589
vn 0.120790 0.946707 -0.298589
vn 0.120790 0.946707 -0.298589
vn 0.120790 0.946707 -0.298589
vn -0.941198 -0.056079 -0.333168
vn -0.823821 -0.022083 -0.566419
vn -0.823821 -0.022083 -0.566419
vn -0.941198 -0.056079 -0.333168
vn -0.993313 -0.086187 -0.076815
vn -0.993313 -0.086187 -0.076815
vn 0.993314 0.086176 0.076813
vn 0.993314 0.086176 0.076813
vn 0.947935 0.065140 0.311731
vn 0.947935 0.065140 0.311731
vn 0.847870 0.040346 0.528667
vn 0.847870 0.040346 0.528667
vn 0.101391 -0.969396 -0.223589
vn 0.101391 -0.969396 -0.223589
vn 0.175267 -0.922734 -0.343285
vn 0.175267 -0.922734 -0.343285
vn 0.245293 -0.855807 -0.455441
vn 0.245293 -0.855807 -0.455441
vn -0.173801 0.925473 0.336590
vn -0.101397 0.969395 0.223588
vn -0.101397 0.969395 0.223588
vn -0.173801 0.925473 0.336590
vn -0.242740 0.863096 0.442881
vn -0.242740 0.863096 0.442881
vn -0.957112 0.127807 -0.260004
vn -0.932687 0.129566 -0.336613
vn -0.932687 0.129566 -0.336613
vn -0.957112 0.127807 -0.260004
vn -0.975346 0.125222 -0.181713
vn -0.975346 0.125222 -0.181713
vn 0.975345 -0.125228 0.181713
vn 0.975345 -0.125228 0.181713
vn 0.957537 -0.128705 0.257987
vn 0.957537 -0.128705 0.257987
vn 0.933843 -0.131392 0.332676
vn 0.933843 -0.131392 0.332676
vn -0.156286 -0.973293 0.168151
vn -0.156286 -0.973293 0.168151
vn -0.230044 -0.881407 0.412555
vn -0.230044 -0.881407 0.412555
vn -0.286867 -0.724634 0.626588
vn -0.286867 -0.724634 0.626588
vn 0.234544 0.869491 -0.434712
vn 0.156286 0.973293 -0.168151
vn 0.156286 0.973293 -0.168151
vn 0.234544 0.869491 -0.434712
vn 0.292172 0.689214 -0.663038
vn 0.292172 0.689214 -0.663038
vn 0.461185 -0.073045 0.884292
vn 0.461185 -0.073045 0.884292
vn 0.461185 -0.073045 0.884292
vn 0.461185 -0.073045 0.884292
vn 0.864482 0.261569 -0.429246
vn 0.864482 0.261569 -0.429246
vn 0.864482 0.261569 -0.429246
vn 0.864482 0.261569 -0.429246
vn 0.199953 -0.962415 -0.183781
vn 0.199953 -0.962415 -0.183781
vn 0.199953 -0.962415 -0.183781
vn 0.199953 -0.962415 -0.183781
vn -0.864482 -0.261569 0.429246
vn -0.864482 -0.261569 0.429246
vn -0.864482 -0.261569 0.429246
vn -0.864482 -0.261569 0.429246
vn -0.199953 0.962415 0.183781
vn -0.199953 0.962415 0.183781
vn -0.199953 0.962415 0.183781
vn -0.199953 0.962415 0.183781
vn -0.872625 0.287361 -0.394904
vn -0.905019 0.344849 -0.249038
vn -0.905019 0.344849 -0.249038
vn -0.872625 0.287361 -0.394904
vn -0.817865 0.222508 -0.530647
vn -0.817865 0.222508 -0.530647
vn 0.817865 -0.222509 0.530648
vn 0.817865 -0.222509 0.530648
vn 0.873394 -0.287508 0.393094
vn 0.873394 -0.287508 0.393094
vn 0.906014 -0.344966 0.245230
vn 0.906014 -0.344966 0.245230
vn -0.305325 -0.949488 0.072453
vn -0.305325 -0.949488 0.072453
vn -0.365703 -0.926985 0.083430
vn -0.365703 -0.926985 0.083430
vn -0.424518 -0.900521 0.094050
vn -0.424518 -0.900521 0.094050
vn 0.361879 0.929106 -0.076192
vn 0.305329 0.949487 -0.072450
vn 0.305329 0.949487 -0.072450
vn 0.361879 0.929106 -0.076192
vn 0.417116 0.905356 -0.079657
vn 0.417116 0.905356 -0.079657
vn -0.988783 0.114162 0.096305
vn -0.968978 0.066579 0.238012
vn -0.968978 0.066579 0.238012
vn -0.988783 0.114162 0.096305
vn -0.986107 0.159148 -0.047592
vn -0.986107 0.159148 -0.047592
vn 0.986107 -0.159148 0.047593
vn 0.986107 -0.159148 0.047593
vn 0.987541 -0.113045 -0.109474
vn 0.987541 -0.113045 -0.109474
vn 0.962511 -0.063913 -0.263606
vn 0.962511 -0.063913 -0.263606
vn -0.146773 -0.968967 -0.198900
vn -0.146773 -0.968967 -0.198900
vn -0.123005 -0.987325 -0.100300
vn -0.123005 -0.987325 -0.100300
vn -0.097931 -0.995193 -0.000634
vn -0.097931 -0.995193 -0.000634
vn 0.122687 0.987917 0.094697
vn 0.146774 0.968967 0.198900
vn 0.146774 0.968967 0.198900
vn 0.122687 0.987917 0.094697
vn 0.097153 0.995213 -0.010622
vn 0.097153 0.995213 -0.010622
vn -0.351582 -0.144823 0.924887
vn -0.351582 -0.144823 0.924887
vn -0.351582 -0.144823 0.924887
vn -0.351582 -0.144823 0.924887
vn 0.184140 0.031867 0.982383
vn 0.184140 0.031867 0.982383
vn 0.184140 0.031867 0.982383
vn 0.184140 0.031867 0.982383
vn -0.325687 -0.484821 0.811712
vn -0.325687 -0.484821 0.811712
vn -0.325687 -0.484821 0.811712
vn -0.325687 -0.484821 0.811712
vn -0.212551 0.585285 0.782472
vn -0.212551 0.585285 0.782472
vn -0.212551 0.585285 0.782472
vn -0.212551 0.585285 0.782472
vn -0.530956 0.036944 0.846594
vn -0.530956 0.036944 0.846594
vn -0.530956 0.036944 0.846594
vn -0.530956 0.036944 0.846594
g Model_0_0
f 3/3/3 2/2/2 1/1/1
f 4/4/4 3/3/3 1/1/1
f 4/4/4 1/1/1 5/5/5
f 1/1/1 6/6/6 5/5/5
f 9/9/9 8/8/8 7/7/7
f 10/10/10 9/9/9 7/7/7
f 10/10/10 11/11/11 9/9/9
f 11/11/11 12/12/12 9/9/9
f 15/15/15 14/14/14 13/13/13
f 16/16/16 15/15/15 13/13/13
f 16/16/16 17/17/17 15/15/15
f 17/17/17 18/18/18 15/15/15
f 21/21/21 20/20/20 19/19/19
f 20/20/20 22/22/22 19/19/19
f 22/22/22 23/23/23 19/19/19
f 23/23/23 24/24/24 19/19/19
f 27/27/27 26/26/26 25/25/25
f 28/28/28 27/27/27 25/25/25
f 31/31/31 30/30/30 29/29/29
f 32/32/32 31/31/31 29/29/29
f 35/35/35 34/34/34 33/33/33
f 36/36/36 35/35/35 33/33/33
f 39/39/39 38/38/38 37/37/37
f 40/40/40 39/39/39 37/37/37
f 43/43/43 42/42/42 41/41/41
f 44/44/44 43/43/43 41/41/41
f 47/47/47 46/46/46 45/45/45
f 48/48/48 47/47/47 45/45/45
f 48/48/48 45/45/45 49/49/49
f 45/45/45 50/50/50 49/49/49
f 53/53/53 52/52/52 51/51/51
f 54/54/54 53/53/53 51/51/51
f 54/54/54 55/55/55 53/53/53
f 55/55/55 56/56/56 53/53/53
f 59/59/59 58/58/58 57/57/57
f 60/60/60 59/59/59 57/57/57
f 60/60/60 61/61/61 59/59/59
f 61/61/61 62/62/62 59/59/59
f 65/65/65 64/64/64 63/63/63
f 64/64/64 66/66/66 63/63/63
f 66/66/66 67/67/67 63/63/63
f 67/67/67 68/68/68 63/63/63
f 71/71/71 70/70/70 69/69/69
f 72/72/72 71/71/71 69/69/69
f 72/72/72 69/69/69 73/73/73
f 69/69/69 74/74/74 73/73/73
f 77/77/77 76/76/76 75/75/75
f 78/78/78 77/77/77 75/75/75
f 78/78/78 79/79/79 77/77/77
f 79/79/79 80/80/80 77/77/77
f 83/83/83 82/82/82 81/81/81
f 84/84/84 83/83/83 81/81/81
f 84/84/84 85/85/85 83/83/83
f 85/85/85 86/86/86 83/83/83
f 89/89/89 88/88/88 87/87/87
f 88/88/88 90/90/90 87/87/87
f 90/90/90 91/91/91 87/87/87
f 91/91/91 92/92/92 87/87/87
f 95/95/95 94/94/94 93/93/93
f 96/96/96 95/95/95 93/93/93
f 99/99/99 98/98/98 97/97/97
f 100/100/100 99/99/99 97/97/97
f 103/103/103 102/102/102 101/101/101
f 104/104/104 103/103/103 101/101/101
f 107/107/107 106/106/106 105/105/105
f 108/108/108 107/107/107 105/105/105
f 111/111/111 110/110/110 109/109/109
f 112/112/112 111/111/111 109/109/109
f 115/115/115 114/114/114 113/113/113
f 116/116/116 115/115/115 113/113/113
f 116/116/116 113/113/113 117/117/117
f 113/113/113 118/118/118 117/117/117
f 121/121/121 120/120/120 119/119/119
f 122/122/122 121/121/121 119/119/119
f 122/122/122 123/123/123 121/121/121
f 123/123/123 124/124/124 121/121/121
f 127/127/127 126/126/126 125/125/125
f 128/128/128 127/127/127 125/125/125
f 128/128/128 129/129/129 127/127/127
f 129/129/129 130/130/130 127/127/127
f 133/133/133 132/132/132 131/131/131
f 132/132/132 134/134/134 131/131/131
f 134/134/134 135/135/135 131/131/131
f 135/135/135 136/136/136 131/131/131
f 139/139/139 138/138/138 137/137/137
f 140/140/140 139/139/139 137/137/137
f 140/140/140 137/137/137 141/141/141
f 137/137/137 142/142/142 141/141/141
f 145/145/145 144/144/144 143/143/143
f 146/146/146 145/145/145 143/143/143
f 146/146/146 147/147/147 145/145/145
f 147/147/147 148/148/148 145/145/145
f 151/151/151 150/150/150 149/149/149
f 152/152/152 151/151/151 149/149/149
f 152/152/152 153/153/153 151/151/151
f 153/153/153 154/154/154 151/151/151
f 157/157/157 156/156/156 155/155/155
f 156/156/156 158/158/158 155/155/155
f 158/158/158 159/159/159 155/155/155
f 159/159/159 160/160/160 155/155/155
f 163/163/163 162/162/162 161/161/161
f 164/164/164 163/163/163 161/161/161
f 167/167/167 166/166/166 165/165/165
f 168/168/168 167/167/167 165/165/165
f 171/171/171 170/170/170 169/169/169
f 172/172/172 171/171/171 169/169/169
f 175/175/175 174/174/174 173/173/173
f 176/176/176 175/175/175 173/173/173
f 179/179/179 178/178/178 177/177/177
f 180/180/180 179/179/179 177/177/177