g Model_0
v -0.108181998 0.0491969995 0.341578007
v -0.183891997 0.0118279997 0.606244981
v -0.206839994 -0.0798330009 0.583168983
v -0.119521998 -0.047375001 0.339118987
v 0.0124340001 -0.0376319997 -0.652089
v 0.0237739999 0.0589400008 -0.64963001
v 0.119520999 0.0473759994 -0.636996984
v 0.108181998 -0.0491969995 -0.639455974
v -0.0237739999 -0.0589400008 0.351752013
v -0.0124340001 0.0376319997 0.354211003
v -0.0957740024 -0.0175090004 0.635147989
v -0.118721999 -0.109169997 0.612071991
v 0.108181998 -0.0491969995 -0.639455974
v 0.0124340001 -0.0376319997 -0.652089
v -0.119521998 -0.047375001 0.339118987
v -0.0237739999 -0.0589400008 0.351752013
v -0.118721999 -0.109169997 0.612071991
v -0.206839994 -0.0798330009 0.583168983
v -0.0124340001 0.0376319997 0.354211003
v 0.0237739999 0.0589400008 -0.64963001
v 0.119520999 0.0473759994 -0.636996984
v -0.108181998 0.0491969995 0.341578007
v -0.183891997 0.0118279997 0.606244981
v -0.0957740024 -0.0175090004 0.635147989
v -0.594117999 -0.916051984 0.46322301
v -0.605867028 -1.00813496 0.492265999
v -0.702391028 -0.996192992 0.491080999
v -0.690641999 -0.904110014 0.462038994
v -0.61925298 -1.21382999 -0.491082013
v -0.631002009 -1.30591297 -0.462038994
v -0.605867028 -1.00813496 0.492265999
v -0.594117999 -0.916051984 0.46322301
v -0.631002009 -1.30591297 -0.462038994
v -0.727526009 -1.29397202 -0.46322301
v -0.702391028 -0.996192992 0.491080999
v -0.605867028 -1.00813496 0.492265999
v -0.727526009 -1.29397202 -0.46322301
v -0.71577698 -1.20188797 -0.492265999
v -0.690641999 -0.904110014 0.462038994
v -0.702391028 -0.996192992 0.491080999
v -0.594117999 -0.916051984 0.46322301
v -0.690641999 -0.904110014 0.462038994
v -0.71577698 -1.20188797 -0.492265999
v -0.61925298 -1.21382999 -0.491082013
v 0.625980973 -0.761321008 0.557915986
v 0.517228007 -0.884813011 0.709827006
v 0.551822007 -0.968295991 0.673844993
v 0.635843992 -0.855611026 0.536168993
v 0.691038013 -0.625729024 -0.435483992
v 0.681174994 -0.531439006 -0.413735986
v 0.777791977 -0.523056984 -0.406264007
v 0.787653983 -0.617347002 -0.428012013
v 0.732460022 -0.847229004 0.543640018
v 0.722598016 -0.752937973 0.565388024
v 0.602437019 -0.868450999 0.753789008
v 0.637031019 -0.95193398 0.717805982
v 0.787653983 -0.617347002 -0.428012013
v 0.691038013 -0.625729024 -0.435483992
v 0.635843992 -0.855611026 0.536168993
v 0.732460022 -0.847229004 0.543640018
v 0.637031019 -0.95193398 0.717805982
v 0.551822007 -0.968295991 0.673844993
v 0.722598016 -0.752937973 0.565388024
v 0.681174994 -0.531439006 -0.413735986
v 0.777791977 -0.523056984 -0.406264007
v 0.625980973 -0.761321008 0.557915986
v 0.517228007 -0.884813011 0.709827006
v 0.602437019 -0.868450999 0.753789008
v 1.21249604 0.961082995 0.36205101
v 1.18200803 1.14449596 0.527800977
v 1.14965796 1.06704295 0.576947987
v 1.19729495 0.866414011 0.378407001
v 1.35309803 0.674009025 -0.590461016
v 1.36829996 0.76867801 -0.606817007
v 1.46316898 0.756497979 -0.589142025
v 1.44796705 0.661828995 -0.572786987
v 1.29216397 0.85423398 0.396082014
v 1.30736601 0.948903024 0.379725993
v 1.27137804 1.12962902 0.56319797
v 1.23902798 1.05217695 0.612344027
v 1.44796705 0.661828995 -0.572786987
v 1.35309803 0.674009025 -0.590461016
v 1.19729495 0.866414011 0.378407001
v 1.29216397 0.85423398 0.396082014
v 1.23902798 1.05217695 0.612344027
v 1.14965796 1.06704295 0.576947987
v 1.30736601 0.948903024 0.379725993
v 1.36829996 0.76867801 -0.606817007
v 1.46316898 0.756497979 -0.589142025
v 1.21249604 0.961082995 0.36205101
v 1.18200803 1.14449596 0.527800977
v 1.27137804 1.12962902 0.56319797
v 0.650825024 0.568311989 0.482145995
v 0.670273006 0.474700987 0.464269996
v 0.586188018 0.449258 0.506021976
v 0.566739023 0.542869985 0.523896992
v 0.18964 0.641358972 -0.402146995
v 0.209088996 0.547747016 -0.420022011
v 0.670273006 0.474700987 0.464269996
v 0.650825024 0.568311989 0.482145995
v 0.209088996 0.547747016 -0.420022011
v 0.125002995 0.522305012 -0.378271013
v 0.586188018 0.449258 0.506021976
v 0.670273006 0.474700987 0.464269996
v 0.125002995 0.522305012 -0.378271013
v 0.105554998 0.615916014 -0.360395014
v 0.566739023 0.542869985 0.523896992
v 0.586188018 0.449258 0.506021976
v 0.650825024 0.568311989 0.482145995
v 0.566739023 0.542869985 0.523896992
v 0.105554998 0.615916014 -0.360395014
v 0.18964 0.641358972 -0.402146995
v -1.14937496 1.41802502 0.321289003
v -1.18124199 1.460971 0.523571014
v -1.21721601 1.372558 0.504867971
v -1.17907298 1.32567096 0.328336
v -0.691350996 1.10439503 -0.516155005
v -0.661652982 1.19674897 -0.523202002
v -0.582102001 1.17510605 -0.471587002
v -0.611800015 1.08275199 -0.464540005
v -1.09952199 1.30402899 0.379949987
v -1.06982398 1.39638197 0.372902989
v -1.10708296 1.42058504 0.571843982
v -1.14305699 1.33217096 0.553139985
v -0.611800015 1.08275199 -0.464540005
v -0.691350996 1.10439503 -0.516155005
v -1.17907298 1.32567096 0.328336
v -1.09952199 1.30402899 0.379949987
v -1.14305699 1.33217096 0.553139985
v -1.21721601 1.372558 0.504867971
v -1.06982398 1.39638197 0.372902989
v -0.661652982 1.19674897 -0.523202002
v -0.582102001 1.17510605 -0.471587002
v -1.14937496 1.41802502 0.321289003
v -1.18124199 1.460971 0.523571014
v -1.10708296 1.42058504 0.571843982
v -1.31237602 0.166038007 0.269129992
v -1.27561402 0.158038005 0.433443993
v -1.27834105 0.0608789995 0.437106997
v -1.326653 0.0717900023 0.249783993
v -1.24888301 0.260940999 -0.729080021
v -1.23460603 0.355188996 -0.709733009
v -1.13868999 0.339709997 -0.705103993
v -1.15296698 0.245462 -0.724449992
v -1.23073697 0.0563110001 0.254413009
v -1.21645999 0.150558993 0.273759007
v -1.18004894 0.154684007 0.415639997
v -1.18277705 0.0575239994 0.419303
v -1.15296698 0.245462 -0.724449992
v -1.24888301 0.260940999 -0.729080021
v -1.326653 0.0717900023 0.249783993
v -1.23073697 0.0563110001 0.254413009
v -1.18277705 0.0575239994 0.419303
v -1.27834105 0.0608789995 0.437106997
v -1.21645999 0.150558993 0.273759007
v -1.23460603 0.355188996 -0.709733009
v -1.13868999 0.339709997 -0.705103993
v -1.31237602 0.166038007 0.269129992
v -1.27561402 0.158038005 0.433443993
v -1.18004894 0.154684007 0.415639997
v -0.0957740024 -0.0175090004 0.635147989
v -0.118721999 -0.109169997 0.612071991
v -0.206839994 -0.0798330009 0.583168983
v -0.183891997 0.0118279997 0.606244981
v -1.18004894 0.154684007 0.415639997
v -1.18277705 0.0575239994 0.419303
v -1.27834105 0.0608789995 0.437106997
v -1.27561402 0.158038005 0.433443993
v 0.602437019 -0.868450999 0.753789008
v 0.637031019 -0.95193398 0.717805982
v 0.551822007 -0.968295991 0.673844993
v 0.517228007 -0.884813011 0.709827006
v 1.27137804 1.12962902 0.56319797
v 1.23902798 1.05217695 0.612344027
v 1.14965796 1.06704295 0.576947987
v 1.18200803 1.14449596 0.527800977
v -1.10708296 1.42058504 0.571843982
v -1.14305699 1.33217096 0.553139985
v -1.21721601 1.372558 0.504867971
v -1.18124199 1.460971 0.523571014
vt 0.758962989 0.383560002
vt 0.76079601 0.399147004
vt 0.766292989 0.398330986
vt 0.764590025 0.383711994
vt 0.766292989 0.327663988
vt 0.760666013 0.327513009
vt 0.713055015 0.400418013
vt 0.718680024 0.400184005
vt 0.716189981 0.343892008
vt 0.710565984 0.344125003
vt 0.713176012 0.327513009
vt 0.718680024 0.328296989
vt 0.720974982 0.398979992
vt 0.726599991 0.398770005
vt 0.724304974 0.342469007
vt 0.718680024 0.342678994
vt 0.721107006 0.327513009
vt 0.726599991 0.328213006
vt 0.751727998 0.383964986
vt 0.758962989 0.327665001
vt 0.753334999 0.327513009
vt 0.757355988 0.384117007
vt 0.758962989 0.399556994
vt 0.753488004 0.400382012
vt 0.231670007 0.279933989
vt 0.226706997 0.279309005
vt 0.226706997 0.284640998
vt 0.231670007 0.285266012
vt 0.258383989 0.268916994
vt 0.252766013 0.268855989
vt 0.252766013 0.32447201
vt 0.258383989 0.324533999
vt 0.276107997 0.269246012
vt 0.270478994 0.269279003
vt 0.270478994 0.323801994
vt 0.276107997 0.323769003
vt 0.247158006 0.324065
vt 0.252766013 0.323958993
vt 0.252766013 0.268855989
vt 0.247158006 0.268961996
vt 0.261554986 0.324712008
vt 0.267185003 0.324719012
vt 0.267185003 0.271203995
vt 0.261554986 0.271196991
vt 0.192086995 0.278593987
vt 0.196603999 0.290105999
vt 0.201716006 0.288991988
vt 0.197628006 0.27877301
vt 0.201716006 0.223799005
vt 0.196173996 0.223620996
vt 0.204980001 0.292448014
vt 0.210517004 0.292304993
vt 0.207252994 0.236714005
vt 0.201716006 0.236856997
vt 0.205438003 0.223620996
vt 0.210517004 0.224708006
vt 0.238710001 0.287748009
vt 0.244194001 0.287791014
vt 0.240957007 0.233558998
vt 0.235474005 0.233517006
vt 0.239258006 0.223620996
vt 0.244194001 0.225786
vt 0.182205006 0.278627008
vt 0.192086995 0.223782003
vt 0.186588004 0.223620996
vt 0.187703997 0.278788
vt 0.192086995 0.288028002
vt 0.187078997 0.289979994
vt 0.189067006 0.716791987
vt 0.196012005 0.704487026
vt 0.190631002 0.702941
vt 0.183479995 0.71746099
vt 0.190424994 0.773413002
vt 0.196012005 0.772745013
vt 0.208177999 0.703565001
vt 0.202583998 0.702941
vt 0.196012005 0.759045005
vt 0.201605007 0.759669006
vt 0.208177999 0.772821009
vt 0.202822998 0.774379015
vt 0.302904993 0.772222996
vt 0.308530986 0.772046983
vt 0.306766987 0.716075003
vt 0.30114001 0.716251016
vt 0.302973002 0.702941
vt 0.308532 0.703795016
vt 0.271780014 0.823710024
vt 0.278544992 0.768414974
vt 0.272917002 0.768302023
vt 0.277408987 0.823822975
vt 0.278544992 0.833379984
vt 0.272998989 0.834309995
vt 0.661405027 0.678294003
vt 0.661405027 0.672820985
vt 0.657306015 0.672500014
vt 0.657306015 0.677972972
vt 0.654312015 0.661338985
vt 0.649067998 0.660076022
vt 0.649067998 0.703866005
vt 0.654312015 0.705128014
vt 0.649067998 0.660165012
vt 0.643911004 0.660076022
vt 0.643911004 0.716506004
vt 0.649067998 0.716593981
vt 0.663385987 0.704315007
vt 0.668609023 0.702938974
vt 0.668609023 0.661042988
vt 0.663385987 0.662419021
vt 0.76157099 0.715360999
vt 0.76682502 0.715371013
vt 0.76682502 0.658896983
vt 0.76157099 0.658887029
vt 0.213741004 0.781090021
vt 0.213990003 0.769299984
vt 0.208818004 0.770838022
vt 0.208177999 0.78135699
vt 0.208426997 0.835408986
vt 0.213990003 0.835141003
vt 0.281024992 0.833858013
vt 0.28657499 0.834136009
vt 0.286202997 0.780956984
vt 0.280653 0.780678988
vt 0.281419992 0.76919198
vt 0.28657499 0.770775974
vt 0.28657499 0.703251004
vt 0.280995995 0.702941
vt 0.278544992 0.758991003
vt 0.284123987 0.759301007
vt 0.28657499 0.76919198
vt 0.281242996 0.769014001
vt 0.242071003 0.71390003
vt 0.239831001 0.769816995
vt 0.245412007 0.769393027
vt 0.236489996 0.714323997
vt 0.240062997 0.703297973
vt 0.245412007 0.702941
vt 0.762776017 0.786058009
vt 0.764163017 0.777695
vt 0.758670986 0.776675999
vt 0.757156014 0.786128998
vt 0.758543015 0.841530979
vt 0.764163017 0.84145999
vt 0.764572978 0.71251303
vt 0.758953989 0.712384999
vt 0.757156014 0.768266976
vt 0.762776017 0.768395007
vt 0.764572978 0.775663972
vt 0.759073973 0.776675999
vt 0.727169991 0.712633014
vt 0.721547008 0.712384999
vt 0.718792021 0.76718998
vt 0.724415004 0.767437994
vt 0.727169991 0.776754975
vt 0.721670985 0.777746975
vt 0.716602981 0.785623014
vt 0.713168025 0.841356993
vt 0.718792021 0.841176987
vt 0.710977972 0.78580302
vt 0.713297009 0.776556015
vt 0.718792021 0.777656019
vt 0.666777015 0.404442996
vt 0.666777015 0.398950994
vt 0.661164999 0.398959994
vt 0.661164999 0.404451996
vt 0.702151 0.790036976
vt 0.702151 0.795427024
vt 0.707192004 0.794956028
vt 0.707192004 0.78956598
vt 0.227553993 0.300505996
vt 0.232878 0.300801009
vt 0.232878 0.295383006
vt 0.227553993 0.295087993
vt 0.245412007 0.787333012
vt 0.249460995 0.786882997
vt 0.249460995 0.781427979
vt 0.245412007 0.781877995
vt 0.250735015 0.781427979
vt 0.250735015 0.775942981
vt 0.245412007 0.775846004
vt 0.245412007 0.781331003
vn -0.965548694 0.164112374 -0.2019476
vn -0.9393906 0.208080992 -0.272484124
vn -0.9393906 0.208080992 -0.272484124
vn -0.965548694 0.164112374 -0.2019476
vn -0.984375536 0.118897706 -0.129877716
vn -0.984375536 0.118897706 -0.129877716
vn 0.984376192 -0.118892111 0.129877314
vn 0.984376192 -0.118892111 0.129877314
vn 0.965913475 -0.163960293 0.200320244
vn 0.965913475 -0.163960293 0.200320244
vn 0.940366507 -0.207825944 0.269293964
vn 0.940366507 -0.207825944 0.269293964
vn -0.116587758 -0.992858648 -0.0252801385
vn -0.116587758 -0.992858648 -0.0252801385
vn -0.141467303 -0.982407093 -0.121915154
vn -0.141467303 -0.982407093 -0.121915154
vn -0.164922789 -0.962066174 -0.217322916
vn -0.164922789 -0.962066174 -0.217322916
vn 0.142166272 0.982650697 0.119106494
vn 0.116583258 0.992859125 0.0252799857
vn 0.116583258 0.992859125 0.0252799857
vn 0.142166272 0.982650697 0.119106494
vn 0.166389838 0.963046074 0.211794093
vn 0.166389838 0.963046074 0.211794093
vn 0.0251300782 0.297776431 0.954304755
vn 0.0251300782 0.297776431 0.954304755
vn 0.0251300782 0.297776431 0.954304755
vn 0.0251300782 0.297776431 0.954304755
vn 0.992359579 -0.122777306 0.0121737216
vn 0.992359579 -0.122777306 0.0121737216
vn 0.992359579 -0.122777306 0.0121737216
vn 0.992359579 -0.122777306 0.0121737216
vn -0.120786168 -0.946707547 0.298589319
vn -0.120786168 -0.946707547 0.298589319
vn -0.120786168 -0.946707547 0.298589319
vn -0.120786168 -0.946707547 0.298589319
vn -0.992359698 0.122776724 -0.0121736005
vn -0.992359698 0.122776724 -0.0121736005
vn -0.992359698 0.122776724 -0.0121736005
vn -0.992359698 0.122776724 -0.0121736005
vn 0.120789722 0.946707308 -0.298588604
vn 0.120789722 0.946707308 -0.298588604
vn 0.120789722 0.946707308 -0.298588604
vn 0.120789722 0.946707308 -0.298588604
vn -0.941198349 -0.0560791679 -0.33316806
vn -0.823821306 -0.0220833141 -0.566419303
vn -0.823821306 -0.0220833141 -0.566419303
vn -0.941198349 -0.0560791679 -0.33316806
vn -0.993313253 -0.0861865282 -0.0768151954
vn -0.993313253 -0.0861865282 -0.0768151954
vn 0.993314445 0.0861756876 0.0768126398
vn 0.993314445 0.0861756876 0.0768126398
vn 0.947934806 0.0651396364 0.311731458
vn 0.947934806 0.0651396364 0.311731458
vn 0.847869933 0.040345747 0.528666914
vn 0.847869933 0.040345747 0.528666914
vn 0.101391457 -0.969395638 -0.223588571
vn 0.101391457 -0.969395638 -0.223588571
vn 0.175266698 -0.922733665 -0.343284518
vn 0.175266698 -0.922733665 -0.343284518
vn 0.245292723 -0.85580647 -0.455441207
vn 0.245292723 -0.85580647 -0.455441207
vn -0.173801258 0.925472915 0.336590171
vn -0.10139659 0.96939528 0.223587826
vn -0.10139659 0.96939528 0.223587826
vn -0.173801258 0.925472915 0.336590171
vn -0.242740124 0.863095582 0.442880541
vn -0.242740124 0.863095582 0.442880541
vn -0.957112014 0.127807438 -0.260003686
vn -0.932686627 0.129566118 -0.336612731
vn -0.932686627 0.129566118 -0.336612731
vn -0.957112014 0.127807438 -0.260003686
vn -0.975346029 0.125221968 -0.181712717
vn -0.975346029 0.125221968 -0.181712717
vn 0.975345254 -0.125227571 0.181713149
vn 0.975345254 -0.125227571 0.181713149
vn 0.957537174 -0.128705174 0.257987261
vn 0.957537174 -0.128705174 0.257987261
vn 0.933843195 -0.13139163 0.332675546
vn 0.933843195 -0.13139163 0.332675546
vn -0.156286418 -0.973293245 0.168151379
vn -0.156286418 -0.973293245 0.168151379
vn -0.23004435 -0.881406844 0.41255492
vn -0.23004435 -0.881406844 0.41255492
vn -0.286867261 -0.724634409 0.626587689
vn -0.286867261 -0.724634409 0.626587689
vn 0.234543741 0.86949116 -0.434711784
vn 0.15628615 0.973293245 -0.168151468
vn 0.15628615 0.973293245 -0.168151468
vn 0.234543741 0.86949116 -0.434711784
vn 0.292172402 0.68921423 -0.663037717
vn 0.292172402 0.68921423 -0.663037717
vn 0.461184889 -0.0730447248 0.884292305
vn 0.461184889 -0.0730447248 0.884292305
vn 0.461184889 -0.0730447248 0.884292305
vn 0.461184889 -0.0730447248 0.884292305
vn 0.864482164 0.261569053 -0.429246098
vn 0.864482164 0.261569053 -0.429246098
vn 0.864482164 0.261569053 -0.429246098
vn 0.864482164 0.261569053 -0.429246098
vn 0.199952662 -0.962415397 -0.183780998
vn 0.199952662 -0.962415397 -0.183780998
vn 0.199952662 -0.962415397 -0.183780998
vn 0.199952662 -0.962415397 -0.183780998
vn -0.864482164 -0.261569023 0.429246098
vn -0.864482164 -0.261569023 0.429246098
vn -0.864482164 -0.261569023 0.429246098
vn -0.864482164 -0.261569023 0.429246098
vn -0.199952528 0.962415516 0.183780953
vn -0.199952528 0.962415516 0.183780953
vn -0.199952528 0.962415516 0.183780953
vn -0.199952528 0.962415516 0.183780953
vn -0.872625291 0.287360996 -0.39490357
vn -0.905018926 0.344848484 -0.249038368
vn -0.905018926 0.344848484 -0.249038368
vn -0.872625291 0.287360996 -0.39490357
vn -0.817865431 0.222508088 -0.53064698
vn -0.817865431 0.222508088 -0.53064698
vn 0.817864716 -0.222509131 0.530647635
vn 0.817864716 -0.222509131 0.530647635
vn 0.873393536 -0.287507921 0.393094122
vn 0.873393536 -0.287507921 0.393094122
vn 0.906013846 -0.344965637 0.245230064
vn 0.906013846 -0.344965637 0.245230064
vn -0.305325031 -0.949487925 0.0724527016
vn -0.305325031 -0.949487925 0.0724527016
vn -0.365702927 -0.926984787 0.0834296346
vn -0.365702927 -0.926984787 0.0834296346
vn -0.424518406 -0.900521278 0.0940501317
vn -0.424518406 -0.900521278 0.0940501317
vn 0.361878872 0.929106295 -0.0761915147
vn 0.305328637 0.949486971 -0.0724498332
vn 0.305328637 0.949486971 -0.0724498332
vn 0.361878872 0.929106295 -0.0761915147
vn 0.417116523 0.905355573 -0.0796568468
vn 0.417116523 0.905355573 -0.0796568468
vn -0.988783419 0.114161558 0.0963046253
vn -0.968977511 0.0665794015 0.238012016
vn -0.968977511 0.0665794015 0.238012016
vn -0.988783419 0.114161558 0.0963046253
vn -0.986106992 0.159147993 -0.047592476
vn -0.986106992 0.159147993 -0.047592476
vn 0.986106992 -0.159147739 0.0475925468
vn 0.986106992 -0.159147739 0.0475925468
vn 0.987540543 -0.11304497 -0.109473728
vn 0.987540543 -0.11304497 -0.109473728
vn 0.962510705 -0.0639128983 -0.263606399
vn 0.962510705 -0.0639128983 -0.263606399
vn -0.146772549 -0.968966901 -0.198899582
vn -0.146772549 -0.968966901 -0.198899582
vn -0.123005129 -0.987324476 -0.100299679
vn -0.123005129 -0.987324476 -0.100299679
vn -0.0979309529 -0.995193005 -0.000634244236
vn -0.0979309529 -0.995193005 -0.000634244236
vn 0.122686781 0.987917125 0.0946972519
vn 0.146773502 0.968966663 0.198899716
vn 0.146773502 0.968966663 0.198899716
vn 0.122686781 0.987917125 0.0946972519
vn 0.0971526876 0.995212793 -0.0106223868
vn 0.0971526876 0.995212793 -0.0106223868
vn -0.351581901 -0.144822761 0.924887359
vn -0.351581901 -0.144822761 0.924887359
vn -0.351581901 -0.144822761 0.924887359
vn -0.351581901 -0.144822761 0.924887359
vn 0.184139922 0.0318673812 0.982383251
vn 0.184139922 0.0318673812 0.982383251
vn 0.184139922 0.0318673812 0.982383251
vn 0.184139922 0.0318673812 0.982383251
vn -0.325686812 -0.484820545 0.811712444
vn -0.325686812 -0.484820545 0.811712444
vn -0.325686812 -0.484820545 0.811712444
vn -0.325686812 -0.484820545 0.811712444
vn -0.212550834 0.585285425 0.782472491
vn -0.212550834 0.585285425 0.782472491
vn -0.212550834 0.585285425 0.782472491
vn -0.212550834 0.585285425 0.782472491
vn -0.530955791 0.0369437896 0.846593857
vn -0.530955791 0.0369437896 0.846593857
vn -0.530955791 0.0369437896 0.846593857
vn -0.530955791 0.0369437896 0.846593857
g Model_0_0
f 3/3/3 2/2/2 1/1/1
f 4/4/4 3/3/3 1/1/1
f 4/4/4 1/1/1 5/5/5
f 1/1/1 6/6/6 5/5/5
f 9/9/9 8/8/8 7/7/7
f 10/10/10 9/9/9 7/7/7
f 10/10/10 11/11/11 9/9/9
f 11/11/11 12/12/12 9/9/9
f 15/15/15 14/14/14 13/13/13
f 16/16/16 15/15/15 13/13/13
f 16/16/16 17/17/17 15/15/15
f 17/17/17 18/18/18 15/15/15
f 21/21/21 20/20/20 19/19/19
f 20/20/20 22/22/22 19/19/19
f 22/22/22 23/23/23 19/19/19
f 23/23/23 24/24/24 19/19/19
f 27/27/27 26/26/26 25/25/25
f 28/28/28 27/27/27 25/25/25
f 31/31/31 30/30/30 29/29/29
f 32/32/32 31/31/31 29/29/29
f 35/35/35 34/34/34 33/33/33
f 36/36/36 35/35/35 33/33/33
f 39/39/39 38/38/38 37/37/37
f 40/40/40 39/39/39 37/37/37
f 43/43/43 42/42/42 41/41/41
f 44/44/44 43/43/43 41/41/41
f 47/47/47 46/46/46 45/45/45
f 48/48/48 47/47/47 45/45/45
f 48/48/48 45/45/45 49/49/49
f 45/45/45 50/50/50 49/49/49
f 53/53/53 52/52/52 51/51/51
f 54/54/54 53/53/53 51/51/51
f 54/54/54 55/55/55 53/53/53
f 55/55/55 56/56/56 53/53/53
f 59/59/59 58/58/58 57/57/57
f 60/60/60 59/59/59 57/57/57
f 60/60/60 61/61/61 59/59/59
f 61/61/61 62/62/62 59/59/59
f 65/65/65 64/64/64 63/63/63
f 64/64/64 66/66/66 63/63/63
f 66/66/66 67/67/67 63/63/63
f 67/67/67 68/68/68 63/63/63
f 71/71/71 70/70/70 69/69/69
f 72/72/72 71/71/71 69/69/69
f 72/72/72 69/69/69 73/73/73
f 69/69/69 74/74/74 73/73/73
f 77/77/77 76/76/76 75/75/75
f 78/78/78 77/77/77 75/75/75
f 78/78/78 79/79/79 77/77/77
f 79/79/79 80/80/80 77/77/77
f 83/83/83 82/82/82 81/81/81
f 84/84/84 83/83/83 81/81/81
f 84/84/84 85/85/85 83/83/83
f 85/85/85 86/86/86 83/83/83
f 89/89/89 88/88/88 87/87/87
f 88/88/88 90/90/90 87/87/87
f 90/90/90 91/91/91 87/87/87
f 91/91/91 92/92/92 87/87/87
f 95/95/95 94/94/94 93/93/93
f 96/96/96 95/95/95 93/93/93
f 99/99/99 98/98/98 97/97/97
f 100/100/100 99/99/99 97/97/97
f 103/103/103 102/102/102 101/101/101
f 104/104/104 103/103/103 101/101/101
f 107/107/107 106/106/106 105/105/105
f 108/108/108 107/107/107 105/105/105
f 111/111/111 110/110/110 109/109/109
f 112/112/112 111/111/111 109/109/109
f 115/115/115 114/114/114 113/113/113
f 116/116/116 115/115/115 113/113/113
f 116/116/116 113/113/113 117/117/117
f 113/113/113 118/118/118 117/117/117
f 121/121/121 120/120/120 119/119/119
f 122/122/122 121/121/121 119/119/119
f 122/122/122 123/123/123 121/121/121
f 123/123/123 124/124/124 121/121/121
f 127/127/127 126/126/126 125/125/125
f 128/128/128 127/127/127 125/125/125
f 128/128/128 129/129/129 127/127/127
f 129/129/129 130/130/130 127/127/127
f 133/133/133 132/132/132 131/131/131
f 132/132/132 134/134/134 131/131/131
f 134/134/134 135/135/135 131/131/131
f 135/135/135 136/136/136 131/131/131
f 139/139/139 138/138/138 137/137/137
f 140/140/140 139/139/139 137/137/137
f 140/140/140 137/137/137 141/141/141
f 137/137/137 142/142/142 141/141/141
f 145/145/145 144/144/144 143/143/143
f 146/146/146 145/145/145 143/143/143
f 146/146/146 147/147/147 145/145/145
f 147/147/147 148/148/148 145/145/145
f 151/151/151 150/150/150 149/149/149
f 152/152/152 151/151/151 149/149/149
f 152/152/152 153/153/153 151/151/151
f 153/153/153 154/154/154 151/151/151
f 157/157/157 156/156/156 155/155/155
f 156/156/156 158/158/158 155/155/155
f 158/158/158 159/159/159 155/155/155
f 159/159/159 160/160/160 155/155/155
f 163/163/163 162/162/162 161/161/161
f 164/164/164 163/163/163 161/161/161
f 167/167/167 166/166/166 165/165/165
f 168/168/168 167/167/167 165/165/165
f 171/171/171 170/170/170 169/169/169
f 172/172/172 171/171/171 169/169/169
f 175/175/175 174/174/174 173/173/173
f 176/176/176 175/175/175 173/173/173
f 179/179/179 178/178/178 177/177/177
f 180/180/180 179/179/179 177/177/177
