# generated by LodBaker -- retail ships no LODGroup for this prop
v 8.000001 12 0 1 1 1
v 8.000001 14 -1 1 1 1
v 9.000001 12 -1 1 1 1
v -8 14.000002 -1 1 1 1
v -8 12.000002 0 1 1 1
v -9 12.000002 -1 1 1 1
v -8 12.000002 0 1 1 1
v 8 -12.000002 0 1 1 1
v -8.000001 -12 0 1 1 1
v 8.000001 12 0 1 1 1
v 8.000001 14 -1 1 1 1
v -8 14.000002 -1 1 1 1
vt 0.972452 0.946754
vt 0.967469 0.94177103
vt 0.972452 0.936788
vt 0.967469 0.946754
vt 0.962485 0.94177103
vt 0.967469 0.936788
vt 1 0.75
vt 0 0
vt 1 0
vt 0 0.75
vt 0 0.75
vt 1 0.75
vn 0.35681513 0.41774622 0.8355663
vn 0.35681513 0.41774622 0.8355663
vn 0.6666299 0.3332769 0.66673166
vn -0.35687277 0.41775608 0.8355368
vn -0.35687277 0.41775608 0.8355368
vn -0.66668075 0.3332769 0.66668075
vn -1.8356412E-05 0.22973393 0.9732535
vn -1.5259255E-05 -1.5259255E-05 1
vn -1.5259255E-05 -1.5259255E-05 1
vn -1.8356412E-05 0.22973393 0.9732535
vn 0.35681513 0.41774622 0.8355663
vn -0.35687277 0.41775608 0.8355368
f 3/3/3 2/2/2 1/1/1
f 6/6/6 5/5/5 4/4/4
f 9/9/9 8/8/8 7/7/7
f 7/7/7 8/8/8 10/10/10
f 12/12/12 7/7/7 11/11/11
f 11/11/11 7/7/7 10/10/10
