g Model_0
v 8 -12 0.400000006
v 8 -12 -1
v 8 12.0000019 -1
v 8 12.0000019 0.400000006
v 12 12 0.400000006
v 12 12 -1
v 12 -12.0000019 -1
v 12 -12.0000019 0.400000006
v 12 12 0.400000006
v 12 -12.0000019 0.400000006
v 8 -12 0.400000006
v 8 12.0000019 0.400000006
v -12 -12 0.400000006
v -12 -12 -1
v -12 12.0000019 -1
v -12 12.0000019 0.400000006
v -8 12 0.400000006
v -8 12 -1
v -8 -12.0000019 -1
v -8 -12.0000019 0.400000006
v -8 12 0.400000006
v -8 -12.0000019 0.400000006
v -12 -12 0.400000006
v -12 12.0000019 0.400000006
v 8 -12.0000019 0
v -8.00000095 -12 0
v -8 12.0000019 0
v 8.00000095 12 0
vt 0.992977977 0.0224380009
vt 0.992977977 0.0224380009
vt 0.992977977 0.0224380009
vt 0.992977977 0.0224380009
vt 0.992977977 0.0224380009
vt 0.992977977 0.0224380009
vt 0.992977977 0.0224380009
vt 0.992977977 0.0224380009
vt 0.992977977 0.0224380009
vt 0.992977977 0.0224380009
vt 0.992977977 0.0224380009
vt 0.992977977 0.0224380009
vt 0.992977977 0.0224380009
vt 0.992977977 0.0224380009
vt 0.992977977 0.0224380009
vt 0.992977977 0.0224380009
vt 0.992977977 0.0224380009
vt 0.992977977 0.0224380009
vt 0.992977977 0.0224380009
vt 0.992977977 0.0224380009
vt 0.992977977 0.0224380009
vt 0.992977977 0.0224380009
vt 0.992977977 0.0224380009
vt 0.992977977 0.0224380009
vt 0 1
vt 1 1
vt 1 0.25
vt 0 0.25
vn -1 0 0
vn -1 0 0
vn -1 0 0
vn -1 0 0
vn 1 0 0
vn 1 0 0
vn 1 0 0
vn 1 0 0
vn -0 0 1
vn -0 0 1
vn -0 0 1
vn -0 0 1
vn -1 0 0
vn -1 0 0
vn -1 0 0
vn -1 0 0
vn 1 0 0
vn 1 0 0
vn 1 0 0
vn 1 0 0
vn -0 0 1
vn -0 0 1
vn -0 0 1
vn -0 0 1
vn -0 0 1
vn -0 0 1
vn -0 0 1
vn -0 0 1
g Model_0_0
f 3/3/3 2/2/2 1/1/1
f 4/4/4 3/3/3 1/1/1
f 7/7/7 6/6/6 5/5/5
f 8/8/8 7/7/7 5/5/5
f 11/11/11 10/10/10 9/9/9
f 12/12/12 11/11/11 9/9/9
f 15/15/15 14/14/14 13/13/13
f 16/16/16 15/15/15 13/13/13
f 19/19/19 18/18/18 17/17/17
f 20/20/20 19/19/19 17/17/17
f 23/23/23 22/22/22 21/21/21
f 24/24/24 23/23/23 21/21/21
f 27/27/27 26/26/26 25/25/25
f 28/28/28 27/27/27 25/25/25
