v -1.194204 -1.405686 1.158196
v -1.222355 -1.537840 0.141530
v -1.211037 0.259041 0.107642
v -1.194204 -1.405686 1.158196
v -1.211037 0.259041 0.107642
v -1.216873 0.182953 1.096666
v 1.416057 -0.786222 2.130718
v 1.169078 -0.793000 2.168864
v 1.162671 -0.552100 2.170180
v 1.416057 -0.786222 2.130718
v 1.162671 -0.552100 2.170180
v 1.409650 -0.545322 2.132035
v 1.221618 -1.498779 -0.122136
v 1.223952 -1.503030 0.127817
v 1.230958 0.277361 0.125000
v 1.277260 -1.465198 1.129895
v 1.230958 0.277361 0.125000
v 1.242506 0.163872 1.107869
v 1.221618 -1.498779 -0.122136
v 1.230958 0.277361 0.125000
v 1.230958 0.277362 -0.125000
v -1.219749 -1.543669 -0.108389
v -0.969768 -1.545349 -0.105743
v -0.957050 0.242489 -0.137153
v -1.219749 -1.543669 -0.108389
v -0.957050 0.242489 -0.137153
v -1.208398 0.248407 -0.142118
v -0.969768 -1.545349 -0.105743
v -1.219749 -1.543669 -0.108389
v -1.220352 -1.768482 -0.119513
v -0.977857 -1.765652 -0.098953
v 0.971620 -1.496619 -0.139389
v 0.972825 -1.749972 -0.124083
v 1.221618 -1.498779 -0.122136
v 1.222811 -1.748740 -0.126397
v 1.221618 -1.498779 -0.122136
v 1.222811 -1.748740 -0.126397
v 1.225145 -1.752990 0.123556
v 1.223952 -1.503030 0.127817
v 1.277260 -1.465198 1.129895
v 1.265940 -1.779446 1.006604
v -1.238007 1.800837 -0.115794
v -1.243247 2.837729 -0.096123
v -1.238764 2.899439 0.154809
v -1.234032 1.830288 0.134588
v -1.205979 0.498170 -0.152727
v -1.220316 1.801213 0.975093
v -1.224597 2.852130 0.903994
v -1.207691 0.505704 0.936064
v -1.208618 0.508804 0.097033
v -1.208398 0.248407 -0.142118
v -1.211037 0.259041 0.107642
v -1.216873 0.182953 1.096666
v -1.291332 -0.178403 1.885680
v -1.306071 0.057419 1.804005
v -1.320216 -0.400703 2.250416
v -1.340117 -0.017489 2.090447
v -1.249745 -1.719052 1.039323
v -1.224898 -2.769527 0.879593
v -1.224895 -2.744851 0.087763
v -1.222300 -1.767312 0.130477
v -1.229226 -2.697295 -0.160541
v -1.220352 -1.768482 -0.119513
v -1.222355 -1.537840 0.141530
v -1.219749 -1.543669 -0.108389
v -1.249745 -1.719052 1.039323
v -1.194204 -1.405686 1.158196
v 1.229401 2.898610 0.130016
v 1.219562 2.870737 0.880410
v 0.973518 2.870852 0.986020
v 0.974470 2.905848 0.111489
v -0.972632 2.852244 1.019040
v 0.982530 2.830948 -0.122516
v 1.232508 2.830401 -0.119249
v -0.987252 2.840419 -0.140058
v -0.988809 2.900284 0.150136
v -1.224597 2.852130 0.903994
v -1.243247 2.837729 -0.096123
v -1.238764 2.899439 0.154809
v -0.989463 -1.773565 1.163412
v -0.973744 -2.770420 1.002255
v -1.224898 -2.769527 0.879593
v -1.249745 -1.719052 1.039323
v 0.982437 -1.412278 0.105819
v 1.030646 -1.472169 1.170305
v -0.947938 -1.444598 1.139789
v -0.971678 -1.439549 0.141851
v 1.030646 -1.472169 1.170305
v 1.039522 -1.785820 1.170370
v -0.989463 -1.773565 1.163412
v -0.947938 -1.444598 1.139789
v 1.265940 -1.779446 1.006604
v 1.388986 -1.100186 1.864262
v 1.277260 -1.465198 1.129895
v 1.396865 -1.349997 1.858584
v 1.416057 -0.786222 2.130718
v 1.423099 -1.200950 2.102609
v 1.237730 1.798412 0.971690
v 1.234720 0.482513 0.945579
v 0.994022 0.496808 1.122933
v 0.993332 1.806000 1.064196
v 1.219562 2.870737 0.880410
v -0.973024 0.525527 1.086608
v 0.973518 2.870852 0.986020
v -0.968318 1.800284 1.096011
v -1.207691 0.505704 0.936064
v -0.972632 2.852244 1.019040
v -1.220316 1.801213 0.975093
v -1.224597 2.852130 0.903994
v -1.249745 -1.719052 1.039323
v -0.868311 -1.322757 1.880607
v -0.989463 -1.773565 1.163412
v -1.114550 -1.284003 1.899702
v -0.828162 -1.188655 2.126157
v -1.074401 -1.149901 2.145253
v -0.960593 0.151726 0.104847
v -0.968421 0.189338 1.123702
v -0.973024 0.525527 1.086608
v -0.958852 0.401652 0.099035
v 1.265940 -1.779446 1.006604
v 1.236882 -2.757398 0.856803
v 0.988064 -2.760754 0.984094
v 1.039522 -1.785820 1.170370
v 1.039522 -1.785820 1.170370
v 0.988064 -2.760754 0.984094
v -0.973744 -2.770420 1.002255
v -0.989463 -1.773565 1.163412
v 1.225145 -1.752990 0.123556
v 1.236882 -2.757398 0.856803
v 1.265940 -1.779446 1.006604
v 1.229914 -2.752834 0.106513
v 1.222811 -1.748740 -0.126397
v 1.227399 -2.710707 -0.142794
v -0.958852 0.401652 0.099035
v -0.973024 0.525527 1.086608
v 0.994022 0.496808 1.122933
v 1.002054 0.389975 0.115130
v 1.002054 0.389975 0.115130
v 0.994022 0.496808 1.122933
v 0.994940 0.161606 1.142598
v 0.980683 0.179442 0.114260
v 1.228786 0.537593 -0.148603
v 1.230958 0.277362 -0.125000
v 1.230958 0.277361 0.125000
v 1.232597 0.532290 0.101312
v 1.224548 1.800848 -0.101216
v 1.234720 0.482513 0.945579
v 1.242506 0.163872 1.107869
v 1.345912 0.035184 1.877365
v 1.350560 -0.214715 1.882702
v 1.383556 -0.121053 2.128348
v 1.409650 -0.545322 2.132035
v 1.237730 1.798412 0.971690
v 1.223389 1.832304 0.148950
v 1.232508 2.830401 -0.119249
v 1.219562 2.870737 0.880410
v 1.229401 2.898610 0.130016
v 1.002054 0.389975 0.115130
v 0.980683 0.179442 0.114260
v -0.960593 0.151726 0.104847
v -0.958852 0.401652 0.099035
v 1.228786 0.537593 -0.148603
v 0.979156 0.281141 -0.142427
v 1.230958 0.277362 -0.125000
v 0.978464 0.531139 -0.141903
v 1.224548 1.800848 -0.101216
v -0.957050 0.242489 -0.137153
v 0.977612 1.795850 -0.123662
v 1.232508 2.830401 -0.119249
v 0.982530 2.830948 -0.122516
v -0.981735 0.524505 -0.113013
v -1.208398 0.248407 -0.142118
v -1.205979 0.498170 -0.152727
v -0.987679 1.800043 -0.138039
v -0.987252 2.840419 -0.140058
v -1.238007 1.800837 -0.115794
v -1.243247 2.837729 -0.096123
v 0.994940 0.161606 1.142598
v 1.105035 -0.215204 1.902810
v 1.350560 -0.214715 1.882702
v 1.242506 0.163872 1.107869
v 1.345912 0.035184 1.877365
v 1.383556 -0.121053 2.128348
v 1.136009 -0.124916 2.163072
v 1.098365 0.031322 1.912089
v 1.234720 0.482513 0.945579
v 0.994022 0.496808 1.122933
v -1.060345 0.085429 1.840537
v -1.094392 0.010521 2.126979
v -1.340117 -0.017489 2.090447
v -1.306071 0.057419 1.804005
v -0.973024 0.525527 1.086608
v -1.207691 0.505704 0.936064
v 0.994022 0.496808 1.122933
v 1.098365 0.031322 1.912089
v 1.105035 -0.215204 1.902810
v 0.994940 0.161606 1.142598
v -1.194204 -1.405686 1.158196
v -1.114550 -1.284003 1.899702
v -1.249745 -1.719052 1.039323
v -1.076217 -1.037055 1.892831
v -1.074401 -1.149901 2.145253
v -1.008697 -0.739649 2.159909
v -1.216873 0.182953 1.096666
v -1.291332 -0.178403 1.885680
v -1.053316 -0.132642 1.908648
v -0.968421 0.189338 1.123702
v 1.277260 -1.465198 1.129895
v 1.388986 -1.100186 1.864262
v 1.141553 -1.105689 1.910367
v 1.030646 -1.472169 1.170305
v -0.989463 -1.773565 1.163412
v -0.868311 -1.322757 1.880607
v -0.829978 -1.075809 1.873734
v -0.947938 -1.444598 1.139789
v -0.947938 -1.444598 1.139789
v -0.829978 -1.075809 1.873734
v -1.076217 -1.037055 1.892831
v -1.194204 -1.405686 1.158196
v 1.039522 -1.785820 1.170370
v 1.396865 -1.349997 1.858584
v 1.265940 -1.779446 1.006604
v 1.150287 -1.358690 1.898879
v 1.423099 -1.200950 2.102609
v 1.176119 -1.207729 2.140755
v -0.968421 0.189338 1.123702
v -1.053316 -0.132642 1.908648
v -1.060345 0.085429 1.840537
v -0.973024 0.525527 1.086608
v 1.030646 -1.472169 1.170305
v 1.141553 -1.105689 1.910367
v 1.150287 -1.358690 1.898879
v 1.039522 -1.785820 1.170370
v -0.762458 -0.778403 2.140813
v -0.828162 -1.188655 2.126157
v -1.074401 -1.149901 2.145253
v -1.008697 -0.739649 2.159909
v 1.416057 -0.786222 2.130718
v 1.423099 -1.200950 2.102609
v 1.176119 -1.207729 2.140755
v 1.169078 -0.793000 2.168864
v -1.094392 0.010521 2.126979
v -1.074491 -0.372693 2.286948
v -1.320216 -0.400703 2.250416
v -1.340117 -0.017489 2.090447
v 1.383556 -0.121053 2.128348
v 1.409650 -0.545322 2.132035
v 1.162671 -0.552100 2.170180
v 1.136009 -0.124916 2.163072
v -0.979267 -2.695117 -0.164483
v -1.229226 -2.697295 -0.160541
v -1.224895 -2.744851 0.087763
v -0.977956 -2.742790 0.097452
v 0.981154 -2.681985 -0.169455
v -0.973744 -2.770420 1.002255
v -1.224898 -2.769527 0.879593
v 0.988064 -2.760754 0.984094
v 0.983820 -2.728235 0.079119
v 1.227399 -2.710707 -0.142794
v 1.236882 -2.757398 0.856803
v 1.229914 -2.752834 0.106513
v 0.972825 -1.749972 -0.124083
v 1.227399 -2.710707 -0.142794
v 1.222811 -1.748740 -0.126397
v 0.981154 -2.681985 -0.169455
v -0.977857 -1.765652 -0.098953
v -0.979267 -2.695117 -0.164483
v -1.220352 -1.768482 -0.119513
v -1.229226 -2.697295 -0.160541
v 0.982437 -1.412278 0.105819
v -0.971678 -1.439549 0.141851
v -0.960593 0.151726 0.104847
v 0.980683 0.179442 0.114260
v -1.219749 -1.543669 -0.108389
v -1.208398 0.248407 -0.142118
v -1.211037 0.259041 0.107642
v -1.222355 -1.537840 0.141530
v 1.350560 -0.214715 1.882702
v 1.388986 -1.100186 1.864262
v 1.416057 -0.786222 2.130718
v 1.409650 -0.545322 2.132035
v 0.971620 -1.496619 -0.139389
v 1.221618 -1.498779 -0.122136
v 1.230958 0.277362 -0.125000
v 0.979156 0.281141 -0.142427
v -0.969768 -1.545349 -0.105743
v 0.971620 -1.496619 -0.139389
v 0.979156 0.281141 -0.142427
v -0.957050 0.242489 -0.137153
v -0.947938 -1.444598 1.139789
v -1.194204 -1.405686 1.158196
v -1.216873 0.182953 1.096666
v -0.968421 0.189338 1.123702
v 1.277260 -1.465198 1.129895
v 1.030646 -1.472169 1.170305
v 0.994940 0.161606 1.142598
v 1.242506 0.163872 1.107869
v -0.947938 -1.444598 1.139789
v -0.968421 0.189338 1.123702
v -0.960593 0.151726 0.104847
v -0.971678 -1.439549 0.141851
v 1.030646 -1.472169 1.170305
v 0.982437 -1.412278 0.105819
v 0.980683 0.179442 0.114260
v 0.994940 0.161606 1.142598
v 1.150287 -1.358690 1.898879
v 1.141553 -1.105689 1.910367
v 1.169078 -0.793000 2.168864
v 1.150287 -1.358690 1.898879
v 1.169078 -0.793000 2.168864
v 1.176119 -1.207729 2.140755
v 1.388986 -1.100186 1.864262
v 1.350560 -0.214715 1.882702
v 1.105035 -0.215204 1.902810
v 1.388986 -1.100186 1.864262
v 1.105035 -0.215204 1.902810
v 1.141553 -1.105689 1.910367
v -0.829978 -1.075809 1.873734
v -0.762458 -0.778403 2.140813
v -1.008697 -0.739649 2.159909
v -0.829978 -1.075809 1.873734
v -1.008697 -0.739649 2.159909
v -1.076217 -1.037055 1.892831
v -0.868311 -1.322757 1.880607
v -0.828162 -1.188655 2.126157
v -0.762458 -0.778403 2.140813
v -0.868311 -1.322757 1.880607
v -0.829978 -1.075809 1.873734
v -1.053316 -0.132642 1.908648
v -1.291332 -0.178403 1.885680
v -1.320216 -0.400703 2.250416
v -1.053316 -0.132642 1.908648
v -1.320216 -0.400703 2.250416
v -1.074491 -0.372693 2.286948
v 1.098365 0.031322 1.912089
v 1.136009 -0.124916 2.163072
v 1.162671 -0.552100 2.170180
v 1.105035 -0.215204 1.902810
v 1.162671 -0.552100 2.170180
v 1.169078 -0.793000 2.168864
v 1.141553 -1.105689 1.910367
v 1.105035 -0.215204 1.902810
v -1.060345 0.085429 1.840537
v -1.053316 -0.132642 1.908648
v -1.074491 -0.372693 2.286948
v -1.094392 0.010521 2.126979
vt 0.121546 0.719842017
vt 0.136291996 0.808417976
vt 0.135094002 0.808417976
vt 0.121546 0.719842017
vt 0.135094002 0.808417976
vt 0.135094002 0.811628997
vt 0.121546 0.719842017
vt 0.129535004 0.812856972
vt 0.135567993 0.820499003
vt 0.121546 0.719842017
vt 0.135567993 0.820499003
vt 0.134495005 0.816096008
vt 0.121546 0.719842017
vt 0.137789994 0.813257992
vt 0.137789994 0.813257992
vt 0.121546 0.719842017
vt 0.121546 0.719842017
vt 0.138988003 0.810146987
vt 0.121546 0.719842017
vt 0.137789994 0.813257992
vt 0.137789994 0.810046971
vt 0.134794995 0.811628997
vt 0.131844997 0.813226998
vt 0.121546 0.719842017
vt 0.134794995 0.811628997
vt 0.121546 0.719842017
vt 0.132145002 0.810015976
vt 0.0868299976 0.765093029
vt 0.0843759999 0.765093029
vt 0.0843759999 0.767414987
vt 0.0868299976 0.767414987
vt 0.106089003 0.765093029
vt 0.106089003 0.767414987
vt 0.108543001 0.765093029
vt 0.108543001 0.767414987
vt 0.130630001 0.765349984
vt 0.130630001 0.767672002
vt 0.133083999 0.767672002
vt 0.133083999 0.765349984
vt 0.142900005 0.765349984
vt 0.142900005 0.767672002
vt 0.108543001 0.760869026
vt 0.108543001 0.767414987
vt 0.110996999 0.767672002
vt 0.110996999 0.760996997
vt 0.108543001 0.754321992
vt 0.119372003 0.760869026
vt 0.119157001 0.767414987
vt 0.119585998 0.754321992
vt 0.110996999 0.754321992
vt 0.108543001 0.751999974
vt 0.110996999 0.751999974
vt 0.120812997 0.751179993
vt 0.128175005 0.747354984
vt 0.128175005 0.749677002
vt 0.130630001 0.745848
vt 0.130630001 0.748170018
vt 0.120812997 0.723371029
vt 0.120812997 0.723371029
vt 0.110996999 0.723371029
vt 0.110996999 0.723371029
vt 0.108543001 0.723371029
vt 0.108543001 0.723371029
vt 0.110996999 0.725692987
vt 0.108543001 0.725692987
vt 0.120812997 0.723371029
vt 0.120812997 0.725692987
vt 0.0992039964 0.813795984
vt 0.107326999 0.813795984
vt 0.108543001 0.811474025
vt 0.0992039964 0.811473012
vt 0.108543001 0.793247998
vt 0.0968080014 0.811473012
vt 0.0968080014 0.813794971
vt 0.0968080014 0.793246984
vt 0.0992039964 0.793246984
vt 0.107326999 0.790925026
vt 0.0968080014 0.790924013
vt 0.0992039964 0.790925026
vt 0.0972819999 0.762320995
vt 0.0972819999 0.762320995
vt 0.0972819999 0.759998024
vt 0.0972819999 0.759998024
vt 0.358828008 0.795669019
vt 0.368687004 0.795669019
vt 0.368687004 0.777442992
vt 0.358828008 0.777442992
vt 0.169808999 0.804125011
vt 0.172262996 0.804125011
vt 0.172262996 0.78589797
vt 0.169808999 0.78589797
vt 0.0998089984 0.759998024
vt 0.107170999 0.756747007
vt 0.0998089984 0.757676005
vt 0.107170999 0.759069026
vt 0.109624997 0.756385028
vt 0.109624997 0.758708
vt 0.137551993 0.790544987
vt 0.130633995 0.790544987
vt 0.130630001 0.792867005
vt 0.137548 0.792867005
vt 0.144470006 0.790544987
vt 0.130630001 0.811092973
vt 0.144465998 0.792867005
vt 0.137548 0.811092973
vt 0.130633995 0.813416004
vt 0.144465998 0.811092973
vt 0.137551993 0.813416004
vt 0.144470006 0.813416004
vt 0.0972819999 0.759998024
vt 0.0899719968 0.762322009
vt 0.0972819999 0.762320995
vt 0.0899719968 0.759998977
vt 0.0875379965 0.762322009
vt 0.0875379965 0.759998977
vt 0.403001994 0.709622025
vt 0.412818015 0.709513009
vt 0.412818015 0.706369996
vt 0.403001994 0.707298994
vt 0.0972819999 0.782869995
vt 0.0972819999 0.782869995
vt 0.0972819999 0.780547023
vt 0.0972819999 0.780547023
vt 0.172262996 0.804125011
vt 0.172262996 0.804125011
vt 0.172262996 0.78589797
vt 0.172262996 0.78589797
vt 0.133083999 0.767672002
vt 0.142900005 0.767672002
vt 0.142900005 0.767672002
vt 0.133083999 0.767672002
vt 0.130630001 0.767672002
vt 0.130630001 0.767672002
vt 0.378448009 0.777442992
vt 0.368687004 0.777442992
vt 0.368687004 0.795669973
vt 0.378448009 0.795669019
vt 0.402916014 0.77837199
vt 0.412732005 0.779300988
vt 0.412732005 0.776157975
vt 0.402916014 0.776049018
vt 0.130630001 0.736720979
vt 0.130630001 0.739042997
vt 0.133083999 0.739042997
vt 0.133083999 0.736720979
vt 0.130630001 0.730174005
vt 0.141672999 0.736720979
vt 0.142900005 0.739862978
vt 0.150261998 0.741366029
vt 0.150261998 0.743687987
vt 0.152715996 0.742873013
vt 0.152715996 0.745194972
vt 0.141458005 0.730174005
vt 0.133083999 0.730045974
vt 0.130630001 0.723627985
vt 0.141243994 0.723627985
vt 0.133083999 0.723371029
vt 0.565092981 0.845444977
vt 0.565092981 0.843122005
vt 0.545834005 0.843122005
vt 0.545834005 0.845444977
vt 0.108543001 0.736464024
vt 0.106089003 0.738785982
vt 0.108543001 0.738785982
vt 0.106089003 0.736464024
vt 0.108543001 0.72991699
vt 0.0868299976 0.738785982
vt 0.106089003 0.72991699
vt 0.108543001 0.723371029
vt 0.106089003 0.723371029
vt 0.0868299976 0.736464024
vt 0.0843759999 0.738785982
vt 0.0843759999 0.736464024
vt 0.0868299976 0.72991699
vt 0.0868299976 0.723371029
vt 0.0843759999 0.72991699
vt 0.0843759999 0.723371029
vt 0.174718007 0.800170004
vt 0.174718007 0.793034017
vt 0.172262996 0.793034971
vt 0.172262996 0.800170004
vt 0.0870210007 0.79092598
vt 0.0843759999 0.790926993
vt 0.0843759999 0.793250024
vt 0.0870210007 0.793249011
vt 0.0961920023 0.790924013
vt 0.0949760005 0.793246984
vt 0.0870210007 0.811474979
vt 0.0843759999 0.811475992
vt 0.0843759999 0.81379801
vt 0.0870210007 0.81379801
vt 0.0949760005 0.811473012
vt 0.0961920023 0.813794971
vt 0.162447006 0.796301007
vt 0.169808999 0.791656017
vt 0.169808999 0.789333999
vt 0.162447006 0.793159008
vt 0.0777219981 0.718019009
vt 0.0850839987 0.716625988
vt 0.0777219981 0.71569699
vt 0.0850839987 0.718948007
vt 0.0875379965 0.716987014
vt 0.0875379965 0.719308972
vt 0.174718007 0.793034017
vt 0.174718007 0.78589797
vt 0.172262996 0.785898983
vt 0.172262996 0.793034017
vt 0.129254997 0.72714299
vt 0.129254997 0.733923018
vt 0.131708995 0.733923018
vt 0.131708995 0.72714299
vt 0.119441003 0.759636998
vt 0.126803994 0.758708
vt 0.126803994 0.756385028
vt 0.119441003 0.757314026
vt 0.129258007 0.752857029
vt 0.129258007 0.759636998
vt 0.131712005 0.759635985
vt 0.131712005 0.752857029
vt 0.0972819999 0.780547023
vt 0.0899719968 0.782869995
vt 0.0972819999 0.782869995
vt 0.0899719968 0.780547976
vt 0.0875379965 0.782871008
vt 0.0875379965 0.780547976
vt 0.162533 0.726513028
vt 0.169894993 0.730337977
vt 0.169894993 0.728016019
vt 0.162533 0.723371029
vt 0.109624997 0.74764502
vt 0.116986997 0.748574018
vt 0.116986997 0.746250987
vt 0.109624997 0.745321989
vt 0.0437380001 0.76206398
vt 0.0437380001 0.759741008
vt 0.0412839986 0.759741008
vt 0.0412839986 0.76206398
vt 0.0654510036 0.76206398
vt 0.0654510036 0.759741008
vt 0.0629969984 0.759741008
vt 0.0629969984 0.76206398
vt 0.0868299976 0.790924013
vt 0.0868299976 0.788601995
vt 0.0843759999 0.788601995
vt 0.0843759999 0.790924013
vt 0.108543001 0.790924013
vt 0.108543001 0.788601995
vt 0.106089003 0.788601995
vt 0.106089003 0.790924013
vt 0.152631 0.769994974
vt 0.152631 0.767672002
vt 0.150178999 0.767672002
vt 0.150178999 0.769994974
vt 0.152631 0.788221002
vt 0.140373006 0.769994974
vt 0.140373006 0.767673016
vt 0.140373006 0.788221002
vt 0.150178999 0.788221002
vt 0.152631 0.79054302
vt 0.140373006 0.790543973
vt 0.150178999 0.79054302
vt 0.106089003 0.767414987
vt 0.108543001 0.767414987
vt 0.108543001 0.767414987
vt 0.106089003 0.767414987
vt 0.0868299976 0.767414987
vt 0.0868299976 0.767414987
vt 0.0843759999 0.767414987
vt 0.0843759999 0.767414987
vt 0.57772702 0.706619978
vt 0.621523976 0.803735971
vt 0.57772702 0.706619978
vt 0.644348979 0.809527993
vt 0.121546 0.719842017
vt 0.134794995 0.811628997
vt 0.121546 0.719842017
vt 0.135094002 0.808417976
vt 0.121546 0.719842017
vt 0.134626999 0.812207997
vt 0.121546 0.719842017
vt 0.140185997 0.810797989
vt 0.121546 0.719842017
vt 0.134495005 0.813226998
vt 0.121546 0.719842017
vt 0.134794995 0.810015976
vt 0.121546 0.719842017
vt 0.132145002 0.813226998
vt 0.121546 0.719842017
vt 0.134495005 0.810015976
vt 0.121546 0.719842017
vt 0.137323007 0.811733007
vt 0.121546 0.719842017
vt 0.142872006 0.81663698
vt 0.138988003 0.810146987
vt 0.137323007 0.808595002
vt 0.121546 0.719842017
vt 0.142872006 0.817507982
vt 0.401109993 0.716063976
vt 0.451496989 0.802664995
vt 0.401109993 0.716063976
vt 0.444907993 0.810956001
vt 0.401109993 0.716063976
vt 0.446110994 0.813180983
vt 0.401109993 0.716063976
vt 0.450289011 0.810786009
vt 0.129572004 0.885340989
vt 0.133889005 0.880313993
vt 0.116742 0.770933986
vt 0.129572004 0.885340989
vt 0.116742 0.770933986
vt 0.125974998 0.882631004
vt 0.136473998 0.889980972
vt 0.141991004 0.88717097
vt 0.116742 0.770933986
vt 0.136473998 0.889980972
vt 0.116742 0.770933986
vt 0.136047006 0.878507018
vt 0.116742 0.770933986
vt 0.123153001 0.882631004
vt 0.129572004 0.876365006
vt 0.116742 0.770933986
vt 0.129572004 0.876365006
vt 0.136047006 0.882275999
vt 0.129929006 0.882668972
vt 0.123153001 0.882291019
vt 0.123153001 0.882631004
vt 0.129929006 0.882668972
vt 0.135327995 0.881798983
vt 0.116742 0.770933986
vt 0.141991004 0.886125028
vt 0.135528997 0.880475998
vt 0.116742 0.770933986
vt 0.135528997 0.880475998
vt 0.129108995 0.886520982
vt 0.129497007 0.887202024
vt 0.132291004 0.88686198
vt 0.116742 0.770933986
vt 0.141631007 0.886627972
vt 0.141631007 0.886627972
vt 0.136611998 0.891196012
vt 0.116742 0.770933986
vt 0.116742 0.770933986
vt 0.129108995 0.889873981
vt 0.141644001 0.877641022
vt 0.116742 0.770933986
vt 0.129469007 0.886520982
vn -0.996122 0.083465 0.027838
vn -0.999620 0.027185 -0.004502
vn -0.999963 0.008003 -0.003069
vn -0.996122 0.083465 0.027838
vn -0.999963 0.008003 -0.003069
vn -0.998936 -0.017563 -0.042632
vn 0.153436 -0.032792 0.987614
vn 0.153436 -0.032792 0.987614
vn 0.148993 0.010102 0.988787
vn 0.153436 -0.032792 0.987614
vn 0.148993 0.010102 0.988787
vn 0.148993 0.010102 0.988787
vn 0.999976 0.000163 -0.006981
vn 0.999711 0.000390 -0.024037
vn 0.999913 0.003042 -0.012851
vn 0.996474 0.011144 -0.083161
vn 0.999913 0.003042 -0.012851
vn 0.998286 -0.000687 -0.058521
vn 0.999976 0.000163 -0.006981
vn 0.999913 0.003042 -0.012851
vn 0.999979 -0.002134 -0.006164
vn 0.030980 -0.004743 -0.999509
vn 0.009457 -0.016377 -0.999821
vn 0.022037 0.011804 -0.999687
vn 0.030980 -0.004743 -0.999509
vn 0.022037 0.011804 -0.999687
vn 0.053631 0.005454 -0.998546
vn 0.009457 -0.016377 -0.999821
vn 0.030980 -0.004743 -0.999509
vn 0.040082 0.032931 -0.998654
vn 0.014444 0.019748 -0.999701
vn 0.018665 -0.019955 -0.999627
vn 0.014563 0.006049 -0.999876
vn 0.049383 -0.011889 -0.998709
vn 0.040325 0.005558 -0.999171
vn 0.999976 0.000163 -0.006981
vn 0.999945 0.004928 -0.009254
vn 0.999700 -0.001651 -0.024438
vn 0.999711 0.000390 -0.024037
vn 0.996474 0.011144 -0.083161
vn 0.996603 0.005236 -0.082188
vn -0.999847 -0.013541 0.011113
vn -0.999829 -0.005071 0.017791
vn -0.999836 -0.004453 0.017572
vn -0.999863 -0.011424 0.012004
vn -0.999974 -0.006397 -0.003262
vn -0.999874 -0.009307 0.012894
vn -0.999842 -0.003834 0.017353
vn -0.998820 -0.021487 -0.043556
vn -0.999998 -0.001965 0.000020
vn -0.999912 0.007667 -0.010828
vn -0.999963 0.008003 -0.003069
vn -0.998936 -0.017563 -0.042632
vn -0.985773 -0.090647 -0.141544
vn -0.985773 -0.090647 -0.141544
vn -0.982901 -0.112042 -0.146125
vn -0.982901 -0.112042 -0.146125
vn -0.996507 0.081382 0.018749
vn -0.999828 -0.009373 -0.016007
vn -0.999984 -0.001795 -0.005344
vn -0.999648 0.025518 -0.007305
vn -0.999969 0.005782 0.005320
vn -0.999991 0.003717 -0.001906
vn -0.999620 0.027185 -0.004502
vn -0.999943 0.003883 -0.009915
vn -0.996507 0.081382 0.018749
vn -0.996122 0.083465 0.027838
vn 0.024532 0.991994 -0.123876
vn 0.021406 0.999018 0.038794
vn 0.008052 0.999034 0.043211
vn 0.010818 0.993552 -0.112858
vn -0.010103 0.998524 0.053359
vn 0.013320 0.963827 -0.266197
vn 0.027008 0.958662 -0.283262
vn -0.014116 0.972125 -0.234038
vn -0.012238 0.995750 -0.091281
vn -0.014902 0.998141 0.059097
vn -0.027852 0.975332 -0.218978
vn -0.021589 0.996502 -0.080732
vn -0.153915 -0.097241 0.983287
vn -0.226009 -0.164853 0.960075
vn -0.442697 -0.147399 0.884473
vn -0.442697 -0.147399 0.884473
vn 0.000120 0.999505 0.031467
vn -0.050443 0.977348 -0.205539
vn 0.053927 0.973656 -0.221555
vn 0.000120 0.999505 0.031467
vn 0.070721 0.027888 0.997106
vn 0.177173 -0.104698 0.978595
vn -0.153915 -0.097241 0.983287
vn -0.012420 0.030578 0.999455
vn 0.996603 0.005236 -0.082188
vn 0.987584 0.034365 -0.153287
vn 0.996474 0.011144 -0.083161
vn 0.988476 0.030496 -0.148272
vn 0.988574 0.035478 -0.146503
vn 0.991139 0.028847 -0.129660
vn 0.431527 0.045278 0.900963
vn 0.486474 0.010428 0.873633
vn 0.250802 0.015250 0.967918
vn 0.224690 0.046862 0.973303
vn 0.374430 0.079903 0.923806
vn -0.251880 0.000585 0.967758
vn 0.198610 0.077901 0.976978
vn -0.230489 0.035122 0.972441
vn -0.486530 -0.017958 0.873479
vn -0.208862 0.069367 0.975482
vn -0.455481 0.022012 0.889973
vn -0.423142 0.061920 0.903945
vn -0.256394 -0.824408 0.504593
vn -0.178012 -0.848331 0.498644
vn -0.256394 -0.824408 0.504593
vn -0.178012 -0.848331 0.498644
vn -0.098429 -0.866527 0.489329
vn -0.098429 -0.866527 0.489329
vn 0.999990 0.004218 0.001287
vn 0.998798 0.018232 0.045503
vn 0.997051 0.025952 0.072226
vn 0.999929 0.005652 0.010509
vn 0.517517 -0.165801 0.839456
vn 0.517517 -0.165801 0.839456
vn 0.269923 -0.176106 0.946640
vn 0.177173 -0.104698 0.978595
vn 0.177173 -0.104698 0.978595
vn 0.269923 -0.176106 0.946640
vn -0.226009 -0.164853 0.960075
vn -0.153915 -0.097241 0.983287
vn 0.999700 -0.001651 -0.024438
vn 0.999519 -0.009794 -0.029415
vn 0.996603 0.005236 -0.082188
vn 0.999810 -0.002433 -0.019336
vn 0.999945 0.004928 -0.009254
vn 0.999945 0.004927 -0.009254
vn -0.011747 -0.993328 0.114720
vn -0.011747 -0.993328 0.114720
vn -0.011747 -0.993328 0.114720
vn -0.011747 -0.993328 0.114720
vn -0.999296 0.037500 0.001416
vn -0.997689 0.013491 0.066589
vn -0.998517 0.005171 0.054188
vn -0.999796 0.013039 0.015418
vn 0.999974 0.002894 -0.006604
vn 0.999979 -0.002134 -0.006164
vn 0.999913 0.003042 -0.012851
vn 0.999963 0.004242 -0.007417
vn 0.999998 -0.000520 0.002124
vn 0.998696 -0.002442 -0.050984
vn 0.998286 -0.000687 -0.058521
vn 0.989686 0.012285 -0.142726
vn 0.988496 0.022229 -0.149607
vn 0.987883 0.043051 -0.149111
vn 0.986806 0.042575 -0.156208
vn 0.999972 0.004096 -0.006194
vn 0.999996 0.001788 -0.002035
vn 0.999931 -0.006492 0.009837
vn 0.999981 0.005548 -0.002644
vn 0.999993 -0.000472 0.003596
vn -0.006582 0.011063 0.999917
vn 0.000062 0.010008 0.999950
vn 0.000062 0.010008 0.999950
vn -0.006582 0.011063 0.999917
vn 0.026326 -0.009533 -0.999608
vn 0.017866 -0.002697 -0.999837
vn 0.045273 -0.023532 -0.998697
vn 0.009915 0.006037 -0.999933
vn 0.041404 0.008757 -0.999104
vn 0.022037 0.011804 -0.999687
vn 0.021808 0.003598 -0.999756
vn 0.051750 -0.008491 -0.998624
vn 0.029937 -0.004468 -0.999542
vn 0.028972 0.019401 -0.999392
vn 0.053631 0.005454 -0.998546
vn 0.064409 0.017178 -0.997776
vn -0.022223 0.002544 -0.999750
vn -0.060906 0.003851 -0.998136
vn -0.046723 0.006662 -0.998886
vn -0.129630 0.008125 -0.991529
vn -0.043481 -0.898830 -0.436136
vn -0.043481 -0.898830 -0.436136
vn -0.043481 -0.898830 -0.436136
vn -0.043481 -0.898830 -0.436136
vn 0.134811 0.866200 0.481169
vn 0.059804 0.851430 0.521047
vn 0.059804 0.851430 0.521047
vn 0.134811 0.866200 0.481169
vn 0.208816 0.874530 0.437713
vn 0.208816 0.874530 0.437713
vn -0.202621 0.918104 0.340632
vn -0.144414 0.961391 0.234250
vn -0.144414 0.961391 0.234250
vn -0.202621 0.918104 0.340632
vn -0.257469 0.859596 0.441367
vn -0.257469 0.859596 0.441367
vn -0.997689 0.013491 0.066589
vn -0.990635 -0.029996 0.133202
vn -0.989412 -0.032188 0.141518
vn -0.998517 0.005171 0.054188
vn -0.996122 0.083465 0.027838
vn -0.985237 0.151925 0.078915
vn -0.996507 0.081382 0.018749
vn -0.985237 0.151925 0.078915
vn -0.984954 0.155017 0.076387
vn -0.984954 0.155017 0.076387
vn 0.137274 -0.913600 -0.382743
vn 0.164452 -0.879080 -0.447408
vn 0.164452 -0.879080 -0.447408
vn 0.137274 -0.913600 -0.382743
vn -0.098020 0.897314 -0.430373
vn -0.098020 0.897314 -0.430373
vn -0.098020 0.897314 -0.430373
vn -0.050443 0.977348 -0.205539
vn 0.986514 -0.141178 -0.082817
vn 0.985763 -0.148102 -0.079604
vn 0.985763 -0.148102 -0.079604
vn 0.996548 -0.069428 -0.045527
vn 0.053927 0.973656 -0.221555
vn 0.076393 0.785215 -0.614493
vn 0.076393 0.785215 -0.614493
vn 0.104090 0.882003 -0.459604
vn 0.217257 -0.871714 0.439220
vn 0.163164 -0.863297 0.477593
vn 0.217257 -0.871714 0.439220
vn 0.163164 -0.863297 0.477593
vn 0.108341 -0.851022 0.513832
vn 0.108341 -0.851022 0.513832
vn 0.998798 0.018232 0.045503
vn 0.989154 0.069031 0.129651
vn 0.989154 0.069031 0.129651
vn 0.997051 0.025952 0.072226
vn -0.994877 -0.022768 0.098497
vn -0.987593 -0.033984 0.153317
vn -0.988006 -0.032692 0.150917
vn -0.985354 -0.033991 0.167102
vn 0.069912 -0.046795 0.996455
vn 0.069912 -0.046795 0.996455
vn 0.069912 -0.046795 0.996455
vn 0.069912 -0.046795 0.996455
vn 0.153436 -0.032792 0.987614
vn 0.154046 -0.064211 0.985975
vn 0.154046 -0.064211 0.985975
vn 0.153436 -0.032792 0.987614
vn -0.177807 0.371208 0.911367
vn -0.177807 0.371208 0.911367
vn -0.177807 0.371208 0.911367
vn -0.177807 0.371208 0.911367
vn 0.145290 0.021543 0.989155
vn 0.148993 0.010102 0.988787
vn 0.148993 0.010102 0.988787
vn 0.145290 0.021543 0.989155
vn 0.008188 -0.983213 -0.182277
vn 0.010509 -0.982950 -0.183570
vn 0.010555 -0.994147 -0.107522
vn 0.008217 -0.994175 -0.107466
vn -0.040724 -0.983314 -0.177299
vn 0.008199 -0.999453 -0.032041
vn 0.010538 -0.999469 -0.030839
vn -0.020735 -0.999402 -0.027658
vn -0.030815 -0.994230 -0.102748
vn -0.087226 -0.981012 -0.173228
vn -0.047315 -0.998637 -0.022052
vn -0.067480 -0.992902 -0.097943
vn 0.014563 0.006049 -0.999876
vn 0.050797 0.032900 -0.998167
vn 0.040325 0.005558 -0.999171
vn 0.021349 0.046194 -0.998704
vn 0.014444 0.019748 -0.999701
vn 0.012488 0.058249 -0.998224
vn 0.040082 0.032931 -0.998654
vn 0.033092 0.057034 -0.997824
vn 0.006707 0.008953 0.999937
vn 0.006707 0.008953 0.999937
vn 0.000062 0.010008 0.999950
vn 0.000062 0.010008 0.999950
vn -0.999943 0.003883 -0.009915
vn -0.999912 0.007667 -0.010828
vn -0.999963 0.008003 -0.003069
vn -0.999620 0.027185 -0.004502
vn 0.988496 0.022229 -0.149607
vn 0.987584 0.034365 -0.153287
vn 0.988574 0.035478 -0.146503
vn 0.986806 0.042575 -0.156208
vn 0.018665 -0.019955 -0.999627
vn 0.049383 -0.011889 -0.998709
vn 0.045273 -0.023532 -0.998697
vn 0.017866 -0.002697 -0.999837
vn 0.009457 -0.016377 -0.999821
vn 0.018665 -0.019955 -0.999627
vn 0.017866 -0.002697 -0.999837
vn 0.022037 0.011804 -0.999687
vn -0.012420 0.030578 0.999455
vn -0.015866 0.023863 0.999589
vn -0.015866 0.023863 0.999589
vn -0.015866 0.023863 0.999589
vn 0.149960 0.018305 0.988523
vn 0.070721 0.027888 0.997106
vn 0.149960 0.018305 0.988523
vn 0.149960 0.018305 0.988523
vn 0.996548 -0.069428 -0.045527
vn 0.998798 0.018232 0.045503
vn 0.999990 0.004218 0.001287
vn 0.999965 0.002783 -0.007934
vn -0.994877 -0.022768 0.098497
vn -0.999502 -0.011432 0.029408
vn -0.999796 0.013039 0.015418
vn -0.998517 0.005171 0.054188
vn -0.988006 -0.032692 0.150917
vn -0.987593 -0.033984 0.153317
vn -0.988640 -0.033978 0.146413
vn -0.988006 -0.032692 0.150917
vn -0.988640 -0.033978 0.146413
vn -0.990391 -0.031385 0.134691
vn -0.133126 0.000456 -0.991099
vn -0.133126 0.000456 -0.991099
vn -0.133126 0.000456 -0.991099
vn -0.133126 0.000456 -0.991099
vn -0.133126 0.000456 -0.991099
vn -0.133126 0.000456 -0.991099
vn 0.076393 0.785215 -0.614493
vn 0.046089 0.661630 -0.748412
vn 0.046089 0.661630 -0.748412
vn 0.076393 0.785215 -0.614493
vn 0.046089 0.661630 -0.748412
vn 0.076393 0.785215 -0.614493
vn 0.985763 -0.148102 -0.079604
vn 0.984954 -0.155017 -0.076387
vn 0.984954 -0.155017 -0.076387
vn 0.985763 -0.148102 -0.079604
vn 0.985763 -0.148102 -0.079604
vn 0.164452 -0.879080 -0.447408
vn 0.164452 -0.879080 -0.447408
vn 0.190625 -0.839188 -0.509338
vn 0.164452 -0.879080 -0.447408
vn 0.190625 -0.839188 -0.509338
vn 0.190625 -0.839188 -0.509338
vn -0.990635 -0.029996 0.133202
vn -0.989625 -0.049397 0.134913
vn -0.988272 -0.042985 0.146526
vn -0.989412 -0.032188 0.141518
vn -0.988272 -0.042985 0.146526
vn -0.988640 -0.033978 0.146413
vn -0.987593 -0.033984 0.153317
vn -0.989412 -0.032188 0.141518
vn 0.989154 0.069031 0.129651
vn 0.989154 0.069031 0.129651
vn 0.987818 0.091883 0.125595
vn 0.987818 0.091883 0.125595
f 3/3/3 2/2/2 1/1/1
f 6/6/6 5/5/5 4/4/4
f 9/9/9 8/8/8 7/7/7
f 12/12/12 11/11/11 10/10/10
f 15/15/15 14/14/14 13/13/13
f 14/14/14 17/17/17 16/16/16
f 17/17/17 18/18/18 16/16/16
f 21/21/21 20/20/20 19/19/19
f 24/24/24 23/23/23 22/22/22
f 27/27/27 26/26/26 25/25/25
f 30/30/30 29/29/29 28/28/28
f 31/31/31 30/30/30 28/28/28
f 31/31/31 28/28/28 32/32/32
f 33/33/33 31/31/31 32/32/32
f 33/33/33 32/32/32 34/34/34
f 35/35/35 33/33/33 34/34/34
f 38/38/38 37/37/37 36/36/36
f 39/39/39 38/38/38 36/36/36
f 39/39/39 40/40/40 38/38/38
f 40/40/40 41/41/41 38/38/38
f 44/44/44 43/43/43 42/42/42
f 45/45/45 44/44/44 42/42/42
f 45/45/45 42/42/42 46/46/46
f 45/45/45 47/47/47 44/44/44
f 47/47/47 48/48/48 44/44/44
f 49/49/49 47/47/47 45/45/45
f 50/50/50 45/45/45 46/46/46
f 50/50/50 49/49/49 45/45/45
f 50/50/50 46/46/46 51/51/51
f 52/52/52 50/50/50 51/51/51
f 52/52/52 53/53/53 50/50/50
f 53/53/53 49/49/49 50/50/50
f 53/53/53 54/54/54 49/49/49
f 54/54/54 55/55/55 49/49/49
f 54/54/54 56/56/56 55/55/55
f 56/56/56 57/57/57 55/55/55
f 60/60/60 59/59/59 58/58/58
f 61/61/61 60/60/60 58/58/58
f 62/62/62 60/60/60 61/61/61
f 63/63/63 62/62/62 61/61/61
f 61/61/61 64/64/64 63/63/63
f 64/64/64 65/65/65 63/63/63
f 61/61/61 66/66/66 64/64/64
f 66/66/66 67/67/67 64/64/64
f 70/70/70 69/69/69 68/68/68
f 71/71/71 70/70/70 68/68/68
f 72/72/72 70/70/70 71/71/71
f 73/73/73 71/71/71 68/68/68
f 74/74/74 73/73/73 68/68/68
f 73/73/73 75/75/75 71/71/71
f 76/76/76 72/72/72 71/71/71
f 75/75/75 76/76/76 71/71/71
f 77/77/77 72/72/72 76/76/76
f 75/75/75 78/78/78 76/76/76
f 79/79/79 77/77/77 76/76/76
f 78/78/78 79/79/79 76/76/76
f 82/82/82 81/81/81 80/80/80
f 83/83/83 82/82/82 80/80/80
f 86/86/86 85/85/85 84/84/84
f 87/87/87 86/86/86 84/84/84
f 90/90/90 89/89/89 88/88/88
f 91/91/91 90/90/90 88/88/88
f 94/94/94 93/93/93 92/92/92
f 93/93/93 95/95/95 92/92/92
f 93/93/93 96/96/96 95/95/95
f 96/96/96 97/97/97 95/95/95
f 100/100/100 99/99/99 98/98/98
f 101/101/101 100/100/100 98/98/98
f 101/101/101 98/98/98 102/102/102
f 103/103/103 100/100/100 101/101/101
f 104/104/104 101/101/101 102/102/102
f 105/105/105 103/103/103 101/101/101
f 105/105/105 101/101/101 104/104/104
f 106/106/106 103/103/103 105/105/105
f 107/107/107 105/105/105 104/104/104
f 108/108/108 106/106/106 105/105/105
f 108/108/108 105/105/105 107/107/107
f 109/109/109 108/108/108 107/107/107
f 112/112/112 111/111/111 110/110/110
f 111/111/111 113/113/113 110/110/110
f 111/111/111 114/114/114 113/113/113
f 114/114/114 115/115/115 113/113/113
f 118/118/118 117/117/117 116/116/116
f 119/119/119 118/118/118 116/116/116
f 122/122/122 121/121/121 120/120/120
f 123/123/123 122/122/122 120/120/120
f 126/126/126 125/125/125 124/124/124
f 127/127/127 126/126/126 124/124/124
f 130/130/130 129/129/129 128/128/128
f 129/129/129 131/131/131 128/128/128
f 128/128/128 131/131/131 132/132/132
f 131/131/131 133/133/133 132/132/132
f 136/136/136 135/135/135 134/134/134
f 137/137/137 136/136/136 134/134/134
f 140/140/140 139/139/139 138/138/138
f 141/141/141 140/140/140 138/138/138
f 144/144/144 143/143/143 142/142/142
f 145/145/145 144/144/144 142/142/142
f 145/145/145 142/142/142 146/146/146
f 145/145/145 147/147/147 144/144/144
f 147/147/147 148/148/148 144/144/144
f 147/147/147 149/149/149 148/148/148
f 149/149/149 150/150/150 148/148/148
f 149/149/149 151/151/151 150/150/150
f 151/151/151 152/152/152 150/150/150
f 153/153/153 147/147/147 145/145/145
f 154/154/154 145/145/145 146/146/146
f 154/154/154 153/153/153 145/145/145
f 154/154/154 146/146/146 155/155/155
f 156/156/156 153/153/153 154/154/154
f 157/157/157 154/154/154 155/155/155
f 157/157/157 156/156/156 154/154/154
f 160/160/160 159/159/159 158/158/158
f 161/161/161 160/160/160 158/158/158
f 164/164/164 163/163/163 162/162/162
f 163/163/163 165/165/165 162/162/162
f 162/162/162 165/165/165 166/166/166
f 163/163/163 167/167/167 165/165/165
f 165/165/165 168/168/168 166/166/166
f 166/166/166 168/168/168 169/169/169
f 168/168/168 170/170/170 169/169/169
f 167/167/167 171/171/171 165/165/165
f 165/165/165 171/171/171 168/168/168
f 167/167/167 172/172/172 171/171/171
f 172/172/172 173/173/173 171/171/171
f 168/168/168 174/174/174 170/170/170
f 171/171/171 174/174/174 168/168/168
f 171/171/171 173/173/173 174/174/174
f 174/174/174 175/175/175 170/170/170
f 173/173/173 176/176/176 174/174/174
f 174/174/174 176/176/176 175/175/175
f 176/176/176 177/177/177 175/175/175
f 180/180/180 179/179/179 178/178/178
f 181/181/181 180/180/180 178/178/178
f 184/184/184 183/183/183 182/182/182
f 185/185/185 184/184/184 182/182/182
f 185/185/185 182/182/182 186/186/186
f 187/187/187 185/185/185 186/186/186
f 190/190/190 189/189/189 188/188/188
f 191/191/191 190/190/190 188/188/188
f 191/191/191 188/188/188 192/192/192
f 193/193/193 191/191/191 192/192/192
f 196/196/196 195/195/195 194/194/194
f 197/197/197 196/196/196 194/194/194
f 200/200/200 199/199/199 198/198/198
f 199/199/199 201/201/201 198/198/198
f 199/199/199 202/202/202 201/201/201
f 202/202/202 203/203/203 201/201/201
f 206/206/206 205/205/205 204/204/204
f 207/207/207 206/206/206 204/204/204
f 210/210/210 209/209/209 208/208/208
f 211/211/211 210/210/210 208/208/208
f 214/214/214 213/213/213 212/212/212
f 215/215/215 214/214/214 212/212/212
f 218/218/218 217/217/217 216/216/216
f 219/219/219 218/218/218 216/216/216
f 222/222/222 221/221/221 220/220/220
f 221/221/221 223/223/223 220/220/220
f 221/221/221 224/224/224 223/223/223
f 224/224/224 225/225/225 223/223/223
f 228/228/228 227/227/227 226/226/226
f 229/229/229 228/228/228 226/226/226
f 232/232/232 231/231/231 230/230/230
f 233/233/233 232/232/232 230/230/230
f 236/236/236 235/235/235 234/234/234
f 237/237/237 236/236/236 234/234/234
f 240/240/240 239/239/239 238/238/238
f 241/241/241 240/240/240 238/238/238
f 244/244/244 243/243/243 242/242/242
f 245/245/245 244/244/244 242/242/242
f 248/248/248 247/247/247 246/246/246
f 249/249/249 248/248/248 246/246/246
f 252/252/252 251/251/251 250/250/250
f 253/253/253 252/252/252 250/250/250
f 253/253/253 250/250/250 254/254/254
f 253/253/253 255/255/255 252/252/252
f 255/255/255 256/256/256 252/252/252
f 257/257/257 255/255/255 253/253/253
f 258/258/258 253/253/253 254/254/254
f 258/258/258 257/257/257 253/253/253
f 258/258/258 254/254/254 259/259/259
f 260/260/260 257/257/257 258/258/258
f 261/261/261 258/258/258 259/259/259
f 261/261/261 260/260/260 258/258/258
f 264/264/264 263/263/263 262/262/262
f 263/263/263 265/265/265 262/262/262
f 262/262/262 265/265/265 266/266/266
f 265/265/265 267/267/267 266/266/266
f 266/266/266 267/267/267 268/268/268
f 267/267/267 269/269/269 268/268/268
f 272/272/272 271/271/271 270/270/270
f 273/273/273 272/272/272 270/270/270
f 276/276/276 275/275/275 274/274/274
f 277/277/277 276/276/276 274/274/274
f 280/280/280 279/279/279 278/278/278
f 281/281/281 280/280/280 278/278/278
f 284/284/284 283/283/283 282/282/282
f 285/285/285 284/284/284 282/282/282
f 288/288/288 287/287/287 286/286/286
f 289/289/289 288/288/288 286/286/286
f 292/292/292 291/291/291 290/290/290
f 293/293/293 292/292/292 290/290/290
f 296/296/296 295/295/295 294/294/294
f 297/297/297 296/296/296 294/294/294
f 300/300/300 299/299/299 298/298/298
f 301/301/301 300/300/300 298/298/298
f 304/304/304 303/303/303 302/302/302
f 305/305/305 304/304/304 302/302/302
f 308/308/308 307/307/307 306/306/306
f 311/311/311 310/310/310 309/309/309
f 314/314/314 313/313/313 312/312/312
f 317/317/317 316/316/316 315/315/315
f 320/320/320 319/319/319 318/318/318
f 323/323/323 322/322/322 321/321/321
f 326/326/326 325/325/325 324/324/324
f 328/328/328 326/326/326 327/327/327
f 331/331/331 330/330/330 329/329/329
f 334/334/334 333/333/333 332/332/332
f 337/337/337 336/336/336 335/335/335
f 338/338/338 337/337/337 335/335/335
f 341/341/341 340/340/340 339/339/339
f 342/342/342 341/341/341 339/339/339
f 345/345/345 344/344/344 343/343/343
f 346/346/346 345/345/345 343/343/343
