g Model_0
v -8.000000 -12.000000 0.000000
v -5.320492 -1.999993 0.000000
v 8.000000 -12.000000 0.000000
v 11.999998 -8.000000 0.000000
v 2.000013 5.320512 0.000000
v 12.000001 7.999999 0.000000
v 2.000013 5.320512 0.000000
v 11.999998 -8.000000 0.000000
v 8.000000 -12.000000 0.000000
v -5.320492 -1.999993 0.000000
v 12.000001 12.000000 0.400000
v 0.000013 8.784615 0.400000
v 0.000013 8.784615 -1.000000
v 12.000001 12.000000 -1.000000
v 12.000001 8.000000 0.400000
v 0.000013 8.784615 0.400000
v 12.000001 12.000000 0.400000
v 2.000013 5.320512 0.400000
v -8.784594 0.000007 0.400000
v -5.320492 -1.999993 0.400000
v -12.000000 -12.000000 0.400000
v -8.000000 -11.999999 0.400000
v 12.000001 8.000000 -1.000000
v 2.000013 5.320512 -1.000000
v 2.000013 5.320512 0.400000
v 12.000001 8.000000 0.400000
v 0.000013 8.784615 0.400000
v -8.784594 0.000007 -1.000000
v 0.000013 8.784615 -1.000000
v -8.784594 0.000007 0.400000
v -12.000000 -12.000000 -1.000000
v -12.000000 -12.000000 0.400000
v 2.000013 5.320512 -1.000000
v -5.320492 -1.999993 0.400000
v 2.000013 5.320512 0.400000
v -5.320492 -1.999993 -1.000000
v -8.000000 -11.999999 0.400000
v -8.000000 -11.999999 -1.000000
v 11.999998 -7.999999 -1.000000
v 11.999998 -7.999999 0.400000
v 9.999998 -8.535898 0.400000
v 9.999998 -8.535898 -1.000000
v 9.999998 -8.535898 -1.000000
v 9.999998 -8.535898 0.400000
v 8.535900 -10.000000 0.400000
v 8.535900 -10.000000 -1.000000
v 8.000000 -12.000000 0.400000
v 8.000000 -12.000000 -1.000000
v 11.999998 -7.999999 0.400000
v 12.000000 -11.999999 0.400000
v 8.000000 -12.000000 0.400000
v 9.999998 -8.535898 0.400000
v 8.535900 -10.000000 0.400000
vt -0.0264379997 -0.939126015
vt -0.0272100009 -0.200372994
vt 1.02785695 1.89825499
vt 1.00179005 -0.634570003
vt 0.000814999978 1.46864498
vt -0.00188999996 1.76725698
vt 0 0.532285988
vt 1 0.517641008
vt 1 0.482358009
vt 0 0.467714012
vt 0.992541015 0.0136919999
vt 0.992541015 0.00967200007
vt 0.992322028 0.00967200007
vt 0.992322028 0.0136919999
vt 0.990190983 0.0207509995
vt 0.988776982 0.0181620009
vt 0.989748001 0.0216739997
vt 0.989381015 0.0178239997
vt 0.988776982 0.0141070001
vt 0.989381015 0.0144450003
vt 0.989748001 0.0105950003
vt 0.990190983 0.0115179997
vt 0.990633011 0.0135840001
vt 0.990633011 0.0169120003
vt 0.990851998 0.0169120003
vt 0.990851998 0.0135840001
vt 0.992102981 0.0182039998
vt 0.991883993 0.0149870003
vt 0.991883993 0.0182039998
vt 0.992102981 0.0149870003
vt 0.991883993 0.0109660001
vt 0.992102981 0.0109660001
vt 0.992322028 0.0168890003
vt 0.992102981 0.0142999999
vt 0.992102981 0.0168890003
vt 0.992322028 0.0142999999
vt 0.992102981 0.010973
vt 0.992322028 0.010973
vt 0.991070986 0.0129530001
vt 0.991289973 0.0129530001
vt 0.991289973 0.0122830002
vt 0.991070986 0.0122830002
vt 0.991070986 0.0122830002
vt 0.990851998 0.0122830002
vt 0.990851998 0.0128189996
vt 0.991070986 0.0128189996
vt 0.990851998 0.0134889996
vt 0.991070986 0.0134889996
vt 0.991883993 0.0109780002
vt 0.991258979 0.0109780002
vt 0.991258979 0.0122830002
vt 0.991801023 0.0116299996
vt 0.991572022 0.012108
vn 0.000000 0.000000 1.000000
vn 0.000000 0.000000 1.000000
vn 0.000000 0.000000 1.000000
vn 0.000000 0.000000 1.000000
vn 0.000000 0.000000 1.000000
vn 0.000000 0.000000 1.000000
vn 0.000000 0.000000 1.000000
vn 0.000000 0.000000 1.000000
vn 0.000000 0.000000 1.000000
vn 0.000000 0.000000 1.000000
vn -0.258819 0.965926 0.000000
vn -0.500000 0.866025 0.000000
vn -0.500000 0.866025 0.000000
vn -0.258819 0.965926 0.000000
vn 0.000000 0.000000 1.000000
vn 0.000000 0.000000 1.000000
vn 0.000000 0.000000 1.000000
vn 0.000000 0.000000 1.000000
vn 0.000000 0.000000 1.000000
vn 0.000000 0.000000 1.000000
vn 0.000000 0.000000 1.000000
vn 0.000000 0.000000 1.000000
vn 0.258819 -0.965926 0.000000
vn 0.500000 -0.866025 0.000000
vn 0.500000 -0.866025 0.000000
vn 0.258819 -0.965926 0.000000
vn -0.500000 0.866025 0.000000
vn -0.866025 0.500000 0.000000
vn -0.500000 0.866025 0.000000
vn -0.866025 0.500000 0.000000
vn -0.965926 0.258820 0.000000
vn -0.965926 0.258820 0.000000
vn 0.500000 -0.866025 0.000000
vn 0.866025 -0.500001 0.000000
vn 0.500000 -0.866025 0.000000
vn 0.866025 -0.500001 0.000000
vn 0.965925 -0.258820 0.000000
vn 0.965925 -0.258820 0.000000
vn -0.258819 0.965926 0.000000
vn -0.258819 0.965926 0.000000
vn -0.500001 0.866025 0.000000
vn -0.500001 0.866025 0.000000
vn -0.500001 0.866025 0.000000
vn -0.500001 0.866025 0.000000
vn -0.866026 0.500000 0.000000
vn -0.866026 0.500000 0.000000
vn -0.965926 0.258820 0.000000
vn -0.965926 0.258820 0.000000
vn 0.000000 0.000000 1.000000
vn 0.000000 0.000000 1.000000
vn 0.000000 0.000000 1.000000
vn 0.000000 0.000000 1.000000
vn 0.000000 0.000000 1.000000
g Model_0_0
f 3/3/3 2/2/2 1/1/1
f 6/6/6 5/5/5 4/4/4
f 9/9/9 8/8/8 7/7/7
f 10/10/10 9/9/9 7/7/7
f 13/13/13 12/12/12 11/11/11
f 14/14/14 13/13/13 11/11/11
f 17/17/17 16/16/16 15/15/15
f 16/16/16 18/18/18 15/15/15
f 16/16/16 19/19/19 18/18/18
f 19/19/19 20/20/20 18/18/18
f 19/19/19 21/21/21 20/20/20
f 21/21/21 22/22/22 20/20/20
f 25/25/25 24/24/24 23/23/23
f 26/26/26 25/25/25 23/23/23
f 29/29/29 28/28/28 27/27/27
f 28/28/28 30/30/30 27/27/27
f 28/28/28 31/31/31 30/30/30
f 31/31/31 32/32/32 30/30/30
f 35/35/35 34/34/34 33/33/33
f 34/34/34 36/36/36 33/33/33
f 34/34/34 37/37/37 36/36/36
f 37/37/37 38/38/38 36/36/36
f 41/41/41 40/40/40 39/39/39
f 42/42/42 41/41/41 39/39/39
f 45/45/45 44/44/44 43/43/43
f 46/46/46 45/45/45 43/43/43
f 47/47/47 45/45/45 46/46/46
f 48/48/48 47/47/47 46/46/46
f 51/51/51 50/50/50 49/49/49
f 49/49/49 52/52/52 51/51/51
f 52/52/52 53/53/53 51/51/51