# generated by LodBaker -- retail ships no LODGroup for this prop
v 12 12 0 1 1 1
v 8 8 0 1 1 1
v 8 12 0 1 1 1
v 12 8 0 1 1 1
v -8 -8 0 1 1 1
v -8 8 0 1 1 1
v 8 -8 0 1 1 1
v -12 8 0 1 1 1
v -8 12 0 1 1 1
v -12 12 0 1 1 1
v -12 -12 0 1 1 1
v -12 -8 0 1 1 1
v -8 -12 0 1 1 1
v 12 -8 0 1 1 1
v 8 -12 0 1 1 1
v 12 -12 0 1 1 1
v 12 8 0 1 1 1
v 8 -8 0 1 1 1
v 8 8 0 1 1 1
v 12 -8 0 1 1 1
v 8 12 0 1 1 1
v -8 8 0 1 1 1
v -8 12 0 1 1 1
v 8 8 0 1 1 1
v 8 -8 0 1 1 1
v -8 -12 0 1 1 1
v -8 -8 0 1 1 1
v 8 -12 0 1 1 1
v -8 8 0 1 1 1
v -12 -8 0 1 1 1
v -12 8 0 1 1 1
v -8 -8 0 1 1 1
vt 0.602008 0.974597
vt 0.546172 0.91876
vt 0.602008 0.91876
vt 0.546172 0.974597
vt 0.490335 0.862924
vt 0.546172 0.862924
vt 0.490335 0.91876
vt 0.546172 0.807087
vt 0.602008 0.862924
vt 0.602008 0.807087
vt 0.434499 0.807087
vt 0.490335 0.807087
vt 0.434499 0.862924
vt 0.490335 0.974597
vt 0.434499 0.91876
vt 0.434499 0.974597
vt 0.721884 0.839263
vt 0.279271 0.23686898
vt 0.721884 0.23686898
vt 0.279271 0.839263
vt 0.72391 0.23332101
vt 0.275231 0.843988
vt 0.275232 0.23332101
vt 0.72391 0.843988
vt 0.721667 0.23779601
vt 0.278333 0.837795
vt 0.278333 0.23779601
vt 0.721667 0.837796
vt 0.722502 0.840641
vt 0.278437 0.240744
vt 0.722502 0.240744
vt 0.278437 0.840641
vn -1.5259255E-05 -1.5259255E-05 1
vn -1.5259255E-05 -1.5259255E-05 1
vn -1.5259255E-05 -1.5259255E-05 1
vn -1.5259255E-05 -1.5259255E-05 1
vn -1.5259255E-05 -1.5259255E-05 1
vn -1.5259255E-05 -1.5259255E-05 1
vn -1.5259255E-05 -1.5259255E-05 1
vn -1.5259255E-05 -1.5259255E-05 1
vn -1.5259255E-05 -1.5259255E-05 1
vn -1.5259255E-05 -1.5259255E-05 1
vn -1.5259255E-05 -1.5259255E-05 1
vn -1.5259255E-05 -1.5259255E-05 1
vn -1.5259255E-05 -1.5259255E-05 1
vn -1.5259255E-05 -1.5259255E-05 1
vn -1.5259255E-05 -1.5259255E-05 1
vn -1.5259255E-05 -1.5259255E-05 1
vn -1.5259255E-05 -1.5259255E-05 1
vn -1.5259255E-05 -1.5259255E-05 1
vn -1.5259255E-05 -1.5259255E-05 1
vn -1.5259255E-05 -1.5259255E-05 1
vn -1.5259255E-05 -1.5259255E-05 1
vn -1.5259255E-05 -1.5259255E-05 1
vn -1.5259255E-05 -1.5259255E-05 1
vn -1.5259255E-05 -1.5259255E-05 1
vn -1.5259255E-05 -1.5259255E-05 1
vn -1.5259255E-05 -1.5259255E-05 1
vn -1.5259255E-05 -1.5259255E-05 1
vn -1.5259255E-05 -1.5259255E-05 1
vn -1.5259255E-05 -1.5259255E-05 1
vn -1.5259255E-05 -1.5259255E-05 1
vn -1.5259255E-05 -1.5259255E-05 1
vn -1.5259255E-05 -1.5259255E-05 1
f 3/3/3 2/2/2 1/1/1
f 1/1/1 2/2/2 4/4/4
f 6/6/6 5/5/5 2/2/2
f 2/2/2 5/5/5 7/7/7
f 9/9/9 8/8/8 6/6/6
f 10/10/10 8/8/8 9/9/9
f 12/12/12 11/11/11 5/5/5
f 5/5/5 11/11/11 13/13/13
f 7/7/7 15/15/15 14/14/14
f 14/14/14 15/15/15 16/16/16
f 19/19/19 18/18/18 17/17/17
f 17/17/17 18/18/18 20/20/20
f 23/23/23 22/22/22 21/21/21
f 21/21/21 22/22/22 24/24/24
f 27/27/27 26/26/26 25/25/25
f 25/25/25 26/26/26 28/28/28
f 31/31/31 30/30/30 29/29/29
f 29/29/29 30/30/30 32/32/32
