g Model_0
v -8 11.999999 -1
v -8.53590012 9.99999905 0.400000006
v -8 11.999999 0.400000006
v -8.53590012 9.99999905 -1
v -10 8.53589916 0.400000006
v -10 8.53589916 -1
v -12 7.99999905 0.400000006
v -12 7.99999905 -1
v -12 11.999999 0.400000006
v -8 11.999999 0.400000006
v -8.53590012 9.99999905 0.400000006
v -10 8.53589916 0.400000006
v -12 7.99999905 0.400000006
v 8 11.999999 -1
v 8 11.999999 0.400000006
v 8.53590012 9.99999905 0.400000006
v 8.53590012 9.99999905 -1
v 10 8.53589916 0.400000006
v 10 8.53589916 -1
v 12 7.99999905 0.400000006
v 12 7.99999905 -1
v 8 11.999999 0.400000006
v 12 11.999999 0.400000006
v 12 7.99999905 0.400000006
v 10 8.53589916 0.400000006
v 8.53590012 9.99999905 0.400000006
v 12.000001 -12.000001 0.400000006
v 12.000001 -12.000001 -1
v -11.999999 -12.000001 -1
v -11.999999 -12.000001 0.400000006
v 12.000001 -8.00000095 0.400000006
v 12.000001 -12.000001 0.400000006
v -11.999999 -12.000001 0.400000006
v -11.999999 -8.00000095 0.400000006
v 12.000001 -8.00000095 -1
v 12.000001 -8.00000095 0.400000006
v -11.999999 -8.00000095 0.400000006
v -11.999999 -8.00000095 -1
v 8 8 0
v 8 12 0
v 12 12 0
v 12 8 0
v -8 -8 0
v 8 -8 0
v -8 8 0
v -12 8 0
v -8 12 0
v -12 12 0
v 8 -8 0
v 8 8 0
v 12 8 0
v 12 -8 0
v -8 8 0
v -8 12 0
v 8 12 0
v 8 8 0
v -12 -8 0
v -12 8 0
v -8 8 0
v -8 -8 0
vt 0.992442012 0.092226997
vt 0.992442012 0.092226997
vt 0.992442012 0.092226997
vt 0.992442012 0.092226997
vt 0.992442012 0.092226997
vt 0.992442012 0.092226997
vt 0.992442012 0.092226997
vt 0.992442012 0.092226997
vt 0.992442012 0.092226997
vt 0.992442012 0.092226997
vt 0.992442012 0.092226997
vt 0.992442012 0.092226997
vt 0.992442012 0.092226997
vt 0.992442012 0.092226997
vt 0.992442012 0.092226997
vt 0.992442012 0.092226997
vt 0.992442012 0.092226997
vt 0.992442012 0.092226997
vt 0.992442012 0.092226997
vt 0.992442012 0.092226997
vt 0.992442012 0.092226997
vt 0.992442012 0.092226997
vt 0.992442012 0.092226997
vt 0.992442012 0.092226997
vt 0.992442012 0.092226997
vt 0.992442012 0.092226997
vt 0.992442012 0.092226997
vt 0.992442012 0.092226997
vt 0.992442012 0.092226997
vt 0.992442012 0.092226997
vt 0.992442012 0.092226997
vt 0.992442012 0.092226997
vt 0.992442012 0.092226997
vt 0.992442012 0.092226997
vt 0.992442012 0.092226997
vt 0.992442012 0.092226997
vt 0.992442012 0.092226997
vt 0.992442012 0.092226997
vt 0.546172023 0.0812399983
vt 0.602007985 0.0812399983
vt 0.602007985 0.0254030004
vt 0.546172023 0.0254030004
vt 0.490334988 0.137076005
vt 0.490334988 0.0812399983
vt 0.546172023 0.137076005
vt 0.546172023 0.192912996
vt 0.602007985 0.137076005
vt 0.602007985 0.192912996
vt 0.279271007 0.763131022
vt 0.721884012 0.763131022
vt 0.721884012 0.160736993
vt 0.279271007 0.160736993
vt 0.275231004 0.156011999
vt 0.275231987 0.766678989
vt 0.723909974 0.766678989
vt 0.723909974 0.156011999
vt 0.278436989 0.759256005
vt 0.722501993 0.759256005
vt 0.722501993 0.159358993
vt 0.278436989 0.159358993
vn 0.965925634 -0.258819818 0
vn 0.866025269 -0.500000358 0
vn 0.965925634 -0.258819818 0
vn 0.866025269 -0.500000358 0
vn 0.500000358 -0.866025269 0
vn 0.500000358 -0.866025269 0
vn 0.258819818 -0.965925634 0
vn 0.258819818 -0.965925634 0
vn -0 0 1
vn -0 0 1
vn -0 0 1
vn -0 0 1
vn -0 0 1
vn -0.965925634 -0.258819818 0
vn -0.965925634 -0.258819818 0
vn -0.866025269 -0.500000358 0
vn -0.866025269 -0.500000358 0
vn -0.500000358 -0.866025269 0
vn -0.500000358 -0.866025269 0
vn -0.258819818 -0.965925634 0
vn -0.258819818 -0.965925634 0
vn -0 0 1
vn -0 0 1
vn -0 0 1
vn -0 0 1
vn -0 0 1
vn -0 -1 0
vn -0 -1 0
vn -0 -1 0
vn -0 -1 0
vn -0 0 1
vn -0 0 1
vn -0 0 1
vn -0 0 1
vn -0 1 0
vn -0 1 0
vn -0 1 0
vn -0 1 0
vn -0 0 1
vn -0 0 1
vn -0 0 1
vn -0 0 1
vn -0 0 1
vn -0 0 1
vn -0 0 1
vn -0 0 1
vn -0 0 1
vn -0 0 1
vn -0 0 1
vn -0 0 1
vn -0 0 1
vn -0 0 1
vn -0 0 1
vn -0 0 1
vn -0 0 1
vn -0 0 1
vn -0 0 1
vn -0 0 1
vn -0 0 1
vn -0 0 1
g Model_0_0
f 3/3/3 2/2/2 1/1/1
f 2/2/2 4/4/4 1/1/1
f 2/2/2 5/5/5 4/4/4
f 5/5/5 6/6/6 4/4/4
f 5/5/5 7/7/7 6/6/6
f 7/7/7 8/8/8 6/6/6
f 11/11/11 10/10/10 9/9/9
f 9/9/9 12/12/12 11/11/11
f 9/9/9 13/13/13 12/12/12
f 16/16/16 15/15/15 14/14/14
f 17/17/17 16/16/16 14/14/14
f 18/18/18 16/16/16 17/17/17
f 19/19/19 18/18/18 17/17/17
f 20/20/20 18/18/18 19/19/19
f 21/21/21 20/20/20 19/19/19
f 24/24/24 23/23/23 22/22/22
f 22/22/22 25/25/25 24/24/24
f 22/22/22 26/26/26 25/25/25
f 29/29/29 28/28/28 27/27/27
f 30/30/30 29/29/29 27/27/27
f 33/33/33 32/32/32 31/31/31
f 34/34/34 33/33/33 31/31/31
f 37/37/37 36/36/36 35/35/35
f 38/38/38 37/37/37 35/35/35
f 41/41/41 40/40/40 39/39/39
f 42/42/42 41/41/41 39/39/39
f 44/44/44 39/39/39 43/43/43
f 39/39/39 45/45/45 43/43/43
f 45/45/45 47/47/47 46/46/46
f 47/47/47 48/48/48 46/46/46
f 51/51/51 50/50/50 49/49/49
f 52/52/52 51/51/51 49/49/49
f 55/55/55 54/54/54 53/53/53
f 56/56/56 55/55/55 53/53/53
f 59/59/59 58/58/58 57/57/57
f 60/60/60 59/59/59 57/57/57
