g Model_0
v -8 12 0
v -9 12 -1
v -8 14 -1
v -8 12 0
v 8 14 -1
v 8 12 0
v 9 12 -1
v 8 12 0
v -8 11.999999 -1
v -8.53590012 9.99999905 0.400000006
v -8 11.999999 0.400000006
v -8.53590012 9.99999905 -1
v -10 8.53589916 0.400000006
v -10 8.53589916 -1
v -12 7.99999905 0.400000006
v -12 7.99999905 -1
v -12 11.999999 0.400000006
v -8 11.999999 0.400000006
v -8.53590012 9.99999905 0.400000006
v -10 8.53589916 0.400000006
v -12 7.99999905 0.400000006
v 8 11.999999 -1
v 8 11.999999 0.400000006
v 8.53590012 9.99999905 0.400000006
v 8.53590012 9.99999905 -1
v 10 8.53589916 0.400000006
v 10 8.53589916 -1
v 12 7.99999905 0.400000006
v 12 7.99999905 -1
v 8 11.999999 0.400000006
v 12 11.999999 0.400000006
v 12 7.99999905 0.400000006
v 10 8.53589916 0.400000006
v 8.53590012 9.99999905 0.400000006
v 12.000001 -12.000001 0.400000006
v 12.000001 -12.000001 -1
v -11.999999 -12.000001 -1
v -11.999999 -12.000001 0.400000006
v 12.000001 -8.00000095 0.400000006
v 12.000001 -12.000001 0.400000006
v -11.999999 -12.000001 0.400000006
v -11.999999 -8.00000095 0.400000006
v 12.000001 -8.00000095 -1
v 12.000001 -8.00000095 0.400000006
v -11.999999 -8.00000095 0.400000006
v -11.999999 -8.00000095 -1
v 8 8 0
v 8 12 0
v 12 12 0
v 12 8 0
v -12 8 0
v -12 12 0
v -8 12 0
v -8 8 0
v -8 8 0
v -8 12 0
v 8 12 0
v 8 8 0
v -12 11.999999 0.400000006
v -12 11.999999 -1
v -8 11.999999 -1
v -8 11.999999 0.400000006
v 12 11.999999 0.400000006
v 8 11.999999 0.400000006
v 8 11.999999 -1
v 12 11.999999 -1
v 8 -8 0
v 12 8 0
v 12 -8 0
v 8 8 0
v -8 -8 0
v -8 8 0
v -12 -8 0
v -12 8 0
vt 0.827260017 0.120816998
vt 0.840237975 0.124421
vt 0.892145991 0.120816998
vt 0.827260017 0.120816998
vt 0.892145991 0.0631399974
vt 0.827260017 0.0631399974
vt 0.840237021 0.0595350005
vt 0.827260017 0.0631399974
vt 0.991473019 0.0967309996
vt 0.991473019 0.0967309996
vt 0.991473019 0.0967309996
vt 0.991473019 0.0967309996
vt 0.991473019 0.0967309996
vt 0.991473019 0.0967309996
vt 0.991473019 0.0967309996
vt 0.991473019 0.0967309996
vt 0.991473019 0.0967309996
vt 0.991473019 0.0967309996
vt 0.991473019 0.0967309996
vt 0.991473019 0.0967309996
vt 0.991473019 0.0967309996
vt 0.991473019 0.0967309996
vt 0.991473019 0.0967309996
vt 0.991473019 0.0967309996
vt 0.991473019 0.0967309996
vt 0.991473019 0.0967309996
vt 0.991473019 0.0967309996
vt 0.991473019 0.0967309996
vt 0.991473019 0.0967309996
vt 0.991473019 0.0967309996
vt 0.991473019 0.0967309996
vt 0.991473019 0.0967309996
vt 0.991473019 0.0967309996
vt 0.991473019 0.0967309996
vt 0.991473019 0.0967309996
vt 0.991473019 0.0967309996
vt 0.991473019 0.0967309996
vt 0.991473019 0.0967309996
vt 0.991473019 0.0967309996
vt 0.991473019 0.0967309996
vt 0.991473019 0.0967309996
vt 0.991473019 0.0967309996
vt 0.991473019 0.0967309996
vt 0.991473019 0.0967309996
vt 0.991473019 0.0967309996
vt 0.991473019 0.0967309996
vt 0.546172023 0.0812399983
vt 0.602007985 0.0812399983
vt 0.602007985 0.0254030004
vt 0.546172023 0.0254030004
vt 0.546172023 0.192912996
vt 0.602007985 0.192912996
vt 0.602007985 0.137076005
vt 0.546172023 0.137076005
vt 0.275231004 0.156011999
vt 0.275231987 0.766678989
vt 0.723909974 0.766678989
vt 0.723909974 0.156011999
vt 0.991473019 0.0967309996
vt 0.991473019 0.0967309996
vt 0.991473019 0.0967309996
vt 0.991473019 0.0967309996
vt 0.991473019 0.0967309996
vt 0.991473019 0.0967309996
vt 0.991473019 0.0967309996
vt 0.991473019 0.0967309996
vt 8.19999987E-05 0.37470001
vt 0.999917984 0.249720007
vt 8.19999987E-05 0.249720007
vt 0.999917984 0.37470001
vt 8.19999987E-05 0.874617994
vt 0.999917984 0.874617994
vt 8.19999987E-05 0.999597013
vt 0.999917984 0.999598026
vn -0.356822103 0.417774588 0.835549176
vn -0.666666687 0.333333343 0.666666687
vn -0.356822103 0.417774588 0.835549176
vn -0.17988418 0.210612074 0.960876763
vn 0.356822103 0.417774588 0.835549176
vn 0.17988418 0.210612074 0.960876763
vn 0.666666687 0.333333343 0.666666687
vn 0.356822103 0.417774588 0.835549176
vn 0.965925634 -0.258819818 0
vn 0.866025269 -0.500000358 0
vn 0.965925634 -0.258819818 0
vn 0.866025269 -0.500000358 0
vn 0.500000358 -0.866025269 0
vn 0.500000358 -0.866025269 0
vn 0.258819818 -0.965925634 0
vn 0.258819818 -0.965925634 0
vn -0 0 1
vn -0 0 1
vn -0 0 1
vn -0 0 1
vn -0 0 1
vn -0.965925634 -0.258819818 0
vn -0.965925634 -0.258819818 0
vn -0.866025269 -0.500000358 0
vn -0.866025269 -0.500000358 0
vn -0.500000358 -0.866025269 0
vn -0.500000358 -0.866025269 0
vn -0.258819818 -0.965925634 0
vn -0.258819818 -0.965925634 0
vn -0 0 1
vn -0 0 1
vn -0 0 1
vn -0 0 1
vn -0 0 1
vn -0 -1 0
vn -0 -1 0
vn -0 -1 0
vn -0 -1 0
vn -0 0 1
vn -0 0 1
vn -0 0 1
vn -0 0 1
vn -0 1 0
vn -0 1 0
vn -0 1 0
vn -0 1 0
vn -0 0 1
vn -0 0.152696595 0.988273203
vn -0 0 1
vn -0 0 1
vn -0 0 1
vn -0 0 1
vn -0 0.152696595 0.988273203
vn -0 0 1
vn -0 0 1
vn -0 0.152696595 0.988273203
vn -0 0.152696595 0.988273203
vn -0 0 1
vn -0 1 0
vn -0 1 0
vn -0 1 0
vn -0 1 0
vn -0 1 0
vn -0 1 0
vn -0 1 0
vn -0 1 0
vn -0 0 1
vn -0 0 1
vn -0 0 1
vn -0 0 1
vn -0 0 1
vn -0 0 1
vn -0 0 1
vn -0 0 1
g Model_0_0
f 3/3/3 2/2/2 1/1/1
f 5/5/5 3/3/3 4/4/4
f 6/6/6 5/5/5 4/4/4
f 8/8/8 7/7/7 5/5/5
f 11/11/11 10/10/10 9/9/9
f 10/10/10 12/12/12 9/9/9
f 10/10/10 13/13/13 12/12/12
f 13/13/13 14/14/14 12/12/12
f 13/13/13 15/15/15 14/14/14
f 15/15/15 16/16/16 14/14/14
f 19/19/19 18/18/18 17/17/17
f 17/17/17 20/20/20 19/19/19
f 17/17/17 21/21/21 20/20/20
f 24/24/24 23/23/23 22/22/22
f 25/25/25 24/24/24 22/22/22
f 26/26/26 24/24/24 25/25/25
f 27/27/27 26/26/26 25/25/25
f 28/28/28 26/26/26 27/27/27
f 29/29/29 28/28/28 27/27/27
f 32/32/32 31/31/31 30/30/30
f 30/30/30 33/33/33 32/32/32
f 30/30/30 34/34/34 33/33/33
f 37/37/37 36/36/36 35/35/35
f 38/38/38 37/37/37 35/35/35
f 41/41/41 40/40/40 39/39/39
f 42/42/42 41/41/41 39/39/39
f 45/45/45 44/44/44 43/43/43
f 46/46/46 45/45/45 43/43/43
f 49/49/49 48/48/48 47/47/47
f 50/50/50 49/49/49 47/47/47
f 53/53/53 52/52/52 51/51/51
f 54/54/54 53/53/53 51/51/51
f 57/57/57 56/56/56 55/55/55
f 58/58/58 57/57/57 55/55/55
f 61/61/61 60/60/60 59/59/59
f 62/62/62 61/61/61 59/59/59
f 65/65/65 64/64/64 63/63/63
f 66/66/66 65/65/65 63/63/63
g Model_0_1
f 69/69/69 68/68/68 67/67/67
f 68/68/68 70/70/70 67/67/67
f 67/67/67 70/70/70 71/71/71
f 70/70/70 72/72/72 71/71/71
f 71/71/71 72/72/72 73/73/73
f 72/72/72 74/74/74 73/73/73
