v 2.250001 3.000003 4.625000
v 2.250001 3.000003 3.125000
v 0.250000 3.000000 4.625000
v 0.250000 3.500000 4.625000
v 2.250000 3.500003 3.125000
v 2.250000 3.500003 4.625000
v 0.000000 2.000000 4.625000
v 0.000000 -2.000000 4.625000
v 0.000000 -4.000000 4.625000
v 2.000000 -4.000000 5.875000
v -2.000000 -4.000000 5.875000
v 2.000000 -4.250000 5.875000
v -2.000000 -4.250000 5.875000
v 2.000000 -4.250000 6.125000
v 2.000000 -4.250000 5.875000
v 2.250000 -4.250000 6.125000
v 2.000000 -4.250000 5.875000
v 2.000000 -4.250000 4.875000
v 2.250000 -4.250000 4.625000
v 2.000000 -4.250000 4.625000
v 0.000000 -4.250000 4.625000
v -2.000000 -4.250000 4.875000
v 2.000000 -4.250000 4.875000
v 2.250000 -4.000000 6.125000
v -2.000000 -4.000000 6.125000
v 2.000000 -4.000000 5.875000
v 2.000000 -4.000000 4.875000
v 2.250000 -4.000000 4.875000
v 2.000000 4.000000 5.875000
v -2.000000 4.000000 6.125000
v 2.250000 4.000000 6.125000
v 2.250000 4.000000 4.875000
v 2.000000 4.000000 4.875000
v 2.250000 4.250000 6.125000
v 2.000000 4.250000 5.875000
v 2.000000 4.250000 4.875000
v -2.000000 -2.000000 4.875000
v -2.250000 -4.000000 4.875000
v -2.250000 -0.125000 4.875000
v -2.000000 4.000000 4.875000
v -2.000000 4.250000 4.875000
v 0.000000 2.000000 4.875000
v -2.000000 2.000000 4.875000
v -2.250000 4.000000 4.875000
v -2.250000 0.125000 4.875000
v -2.000000 0.125000 4.875000
v -2.250000 0.125000 4.875000
v -2.250000 4.000000 4.875000
v -2.000000 2.000000 4.875000
v -2.000000 4.000000 4.875000
v 0.000000 2.000000 4.875000
v -2.000000 4.250000 4.875000
v 2.000000 4.250000 4.875000
v 2.000000 4.000000 4.875000
v 2.250000 4.000000 4.875000
v 2.250000 4.000000 4.875000
v 2.250000 -4.000000 4.875000
v 0.000000 -2.000000 4.875000
v 2.000000 -4.000000 4.875000
v 2.000000 -4.250000 4.875000
v 2.000000 4.250000 5.875000
v -2.000000 4.250000 5.875000
v 2.000000 4.000000 5.875000
v 2.000000 -4.000000 5.875000
v -2.000000 -4.000000 6.125000
v -2.000000 -4.000000 5.875000
v -2.250000 -4.000000 4.875000
v -2.250000 -4.000000 5.875000
v -2.000000 -4.000000 4.875000
v 2.000000 -4.250000 4.875000
v -2.000000 -4.250000 4.875000
v 0.000000 -2.000000 4.875000
v 2.000000 -4.250000 5.875000
v -2.000000 -4.000000 5.875000
v -2.000000 -4.250000 5.875000
v -2.000000 -0.125000 5.875000
v -2.250000 -4.000000 5.875000
v -2.250000 -0.125000 5.875000
v 2.000000 4.000000 5.875000
v -2.000000 4.250000 5.875000
v -2.000000 4.000000 5.875000
v -2.250000 0.125000 5.875000
v -2.250000 4.000000 5.875000
v -2.000000 0.125000 5.875000
v 2.250000 4.000000 6.125000
v 2.250000 4.000000 4.875000
v 2.000000 4.000000 5.875000
v -2.000000 4.000000 5.875000
v -2.000000 4.000000 6.125000
v 2.000000 4.000000 5.875000
v -2.000000 4.000000 4.875000
v -2.250000 4.000000 5.875000
v -2.250000 4.000000 4.875000
v -2.250000 4.250000 4.625000
v -2.250000 0.125000 4.875000
v -2.250000 -4.250000 4.625000
v -2.250000 4.250000 4.625000
v -2.000000 4.000000 4.625000
v 2.000000 4.000000 4.625000
v 2.000000 -4.000000 5.875000
v 2.250000 -4.000000 4.875000
v 2.250000 -4.000000 6.125000
v -2.000000 -2.000000 4.875000
v -2.250000 -0.125000 4.875000
v -2.000000 -0.125000 4.875000
v -2.000000 -4.000000 4.875000
v -2.250000 -4.000000 4.875000
v 0.000000 -2.000000 4.875000
v -2.000000 -4.250000 4.875000
v 2.250001 -3.000003 4.625000
v 0.250000 -3.000000 4.625000
v 2.250001 -3.000003 3.125000
v 0.250000 -3.500000 4.625000
v 2.250000 -3.500003 4.625000
v 2.250000 -3.500003 3.125000
v -2.250000 0.125000 4.875000
v -2.250000 4.250000 4.625000
v -2.250000 4.000000 4.875000
v 2.250000 4.250000 4.625000
v 2.000000 0.125000 4.625000
v 2.000000 -0.125000 4.625000
v -2.250000 -4.250000 4.625000
v -2.250000 -0.125000 4.875000
v -2.250000 -4.000000 4.875000
v 2.000000 4.000000 4.625000
v 2.000000 0.125000 4.625000
v 2.250000 4.250000 4.625000
v 2.000000 -0.125000 4.625000
v 0.000000 -4.000000 4.625000
v 2.000000 4.000000 4.625000
v 0.000000 2.000000 4.625000
v -2.000000 4.000000 4.625000
v 2.000000 -4.000000 4.625000
v 2.250000 -4.250000 4.625000
v 2.000000 -4.250000 4.625000
v 0.000000 -4.250000 4.625000
v 0.000000 -4.000000 4.625000
v 2.000000 -4.000000 4.625000
v -2.250000 -4.250000 4.625000
v -2.000000 -2.000000 4.625000
v 0.000000 -2.000000 4.625000
v 2.000000 -0.125000 4.625000
v 2.250000 -4.250000 4.625000
v 2.250000 4.250000 4.625000
v -2.250000 4.250000 4.625000
v 2.000000 4.000000 4.625000
v 2.250000 4.250000 4.625000
v -2.250000 4.000000 6.125000
v -2.250000 -4.000000 6.125000
v -2.250000 0.125000 5.875000
v -2.000000 -4.000000 6.125000
v -2.000000 4.000000 6.125000
v -2.000000 -0.125000 5.875000
v 2.250001 3.000003 3.125000
v 0.250000 3.500000 4.625000
v 0.250000 3.000000 4.625000
v 2.250000 3.500003 3.125000
v -2.000000 4.000000 4.625000
v -2.000000 2.000000 4.625000
v 0.000000 2.000000 4.625000
v -2.250000 4.250000 4.625000
v -2.000000 2.000000 -0.125000
v 0.000000 -2.000000 4.625000
v 0.000000 2.000000 -0.125000
v -2.000000 -2.000000 4.625000
v 0.000000 2.000000 4.875000
v -2.000000 2.000000 4.625000
v -2.000000 2.000000 4.875000
v 0.000000 2.000000 4.625000
v 2.000000 -4.000000 4.875000
v 2.000000 -4.000000 5.875000
v 2.000000 -4.250000 4.875000
v 2.000000 -4.250000 5.875000
v -2.000000 4.250000 6.125000
v -2.250000 4.000000 6.125000
v -2.250000 4.250000 6.125000
v -2.000000 4.000000 6.125000
v 2.000000 4.250000 6.125000
v -2.000000 -4.000000 6.125000
v -2.250000 -4.000000 6.125000
v -2.250000 -4.250000 6.125000
v 2.000000 -4.250000 6.125000
v 0.000000 2.000000 0.125000
v -2.000000 -2.000000 4.875000
v -2.000000 2.000000 0.125000
v 0.000000 -2.000000 4.875000
v 0.000000 2.000000 4.875000
v 0.000000 -2.000000 4.625000
v 0.000000 2.000000 4.625000
v 0.000000 -2.000000 4.875000
v 0.000000 -2.000000 4.875000
v 0.000000 -4.000000 4.625000
v 0.000000 -4.000000 4.875000
v 0.000000 -2.000000 4.625000
v 0.000000 2.000000 -0.125000
v 0.000000 2.000000 0.125000
v 2.250000 4.250000 4.625000
v 2.250000 4.250000 6.125000
v 2.000000 4.250000 4.875000
v -2.000000 4.250000 4.875000
v 2.000000 4.250000 4.875000
v -2.250000 4.250000 4.625000
v 2.000000 4.250000 6.125000
v 2.000000 4.250000 5.875000
v -2.000000 4.250000 6.125000
v -2.000000 -4.000000 6.125000
v 2.250000 -4.000000 6.125000
v 2.000000 -4.250000 6.125000
v 2.250000 -4.250000 6.125000
v -2.000000 2.000000 0.125000
v -2.000000 -2.000000 4.875000
v -2.000000 2.000000 -0.125000
v -2.000000 -2.000000 4.625000
v 2.000000 4.000000 4.875000
v 2.000000 4.250000 5.875000
v 2.000000 4.000000 5.875000
v 2.000000 4.250000 4.875000
v -2.000000 -4.250000 5.875000
v -2.250000 -4.250000 6.125000
v 2.000000 -4.250000 6.125000
v -2.250000 -4.250000 5.875000
v -2.000000 -4.250000 4.875000
v -2.250000 -4.250000 4.625000
v 0.000000 -4.250000 4.625000
v -2.250000 4.250000 4.625000
v -2.000000 4.250000 4.875000
v -2.000000 4.250000 5.875000
v -2.250000 4.250000 6.125000
v -2.000000 4.250000 6.125000
v 2.000000 4.250000 5.875000
v -2.000000 -4.250000 4.875000
v -2.000000 -4.250000 5.875000
v -2.000000 -4.000000 4.875000
v -2.000000 -4.000000 5.875000
v -2.000000 -4.000000 6.125000
v -2.000000 -0.125000 5.875000
v -2.000000 4.000000 6.125000
v -2.000000 0.125000 5.875000
v -2.000000 4.000000 5.875000
v -2.000000 0.125000 4.875000
v -2.000000 -0.125000 4.875000
v -2.000000 -2.000000 4.625000
v -2.000000 -2.000000 4.875000
v -2.000000 2.000000 4.625000
v -2.000000 2.000000 4.875000
v -2.000000 4.250000 4.875000
v -2.000000 4.250000 5.875000
v -2.000000 4.000000 4.875000
v 2.000000 4.250000 6.125000
v 2.250000 4.000000 6.125000
v -2.000000 4.000000 6.125000
v 2.250000 4.250000 6.125000
v -2.250000 4.250000 4.625000
v -2.250000 4.250000 6.125000
v -2.250000 4.000000 4.875000
v -2.250000 4.000000 5.875000
v -2.250000 4.000000 6.125000
v -2.250000 0.125000 5.875000
v -2.250000 -0.125000 4.875000
v -2.250000 0.125000 4.875000
v -2.250000 -4.250000 4.625000
v -2.250000 -0.125000 5.875000
v -2.250000 -4.000000 6.125000
v -2.250000 -4.000000 5.875000
v -2.250000 -4.250000 6.125000
v -2.250000 -4.250000 5.875000
v -2.250000 -4.000000 4.875000
v -2.250000 0.125000 4.875000
v -2.000000 0.125000 5.875000
v -2.250000 0.125000 5.875000
v -2.000000 0.125000 4.875000
v -2.000000 -0.125000 5.875000
v -2.250000 -0.125000 4.875000
v -2.250000 -0.125000 5.875000
v -2.000000 -0.125000 4.875000
v 0.250000 -3.500000 4.625000
v 2.250001 -3.000003 3.125000
v 0.250000 -3.000000 4.625000
v 2.250000 -3.500003 3.125000
v -2.000000 -2.000000 4.625000
v -2.000000 2.000000 4.625000
v -2.250000 4.250000 4.625000
v -2.250000 -4.250000 4.625000
vt 0.261929005 0.41672501
vt 0.26147899 0.416276008
vt 0.26147899 0.417174011
vt 0.261321008 0.417174011
vt 0.261321008 0.416276008
vt 0.260870993 0.41672501
vt 0.800886989 0.368865013
vt 0.799730003 0.368910998
vt 0.799435019 0.368950009
vt 0.797329009 0.367996007
vt 0.79946202 0.368892998
vt 0.797137976 0.368137002
vt 0.799458981 0.368894011
vt 0.796998978 0.368018001
vt 0.797137976 0.368137002
vt 0.796459019 0.368023992
vt 0.797137976 0.368137002
vt 0.798730016 0.368972987
vt 0.798812985 0.369390994
vt 0.798940003 0.369183987
vt 0.799408019 0.368993014
vt 0.799561024 0.368972987
vt 0.798730016 0.368972987
vt 0.796893001 0.367657989
vt 0.799459994 0.368891001
vt 0.797329009 0.367996007
vt 0.798718989 0.368703991
vt 0.798514009 0.368633986
vt 0.803089023 0.367707998
vt 0.800987005 0.368840009
vt 0.73299402 0.323819011
vt 0.802016973 0.368431985
vt 0.801827013 0.368526012
vt 0.803578973 0.367534995
vt 0.803351998 0.367805004
vt 0.80183202 0.368761986
vt 0.79964 0.368921995
vt 0.799556017 0.368972987
vt 0.800215006 0.36888501
vt 0.800895989 0.368984997
vt 0.800884008 0.368934005
vt 0.80092299 0.368755013
vt 0.800803006 0.368865013
vt 0.800900996 0.368930995
vt 0.800230026 0.36888501
vt 0.80023098 0.368887007
vt 0.800230026 0.36888501
vt 0.800900996 0.368930995
vt 0.800803006 0.368865013
vt 0.800895989 0.368984997
vt 0.80092299 0.368755013
vt 0.800884008 0.368934005
vt 0.80183202 0.368761986
vt 0.801827013 0.368526012
vt 0.802016973 0.368431985
vt 0.802016973 0.368431985
vt 0.798514009 0.368633986
vt 0.799612999 0.368876994
vt 0.798718989 0.368703991
vt 0.798730016 0.368972987
vt 0.803351998 0.367805004
vt 0.800988019 0.368842989
vt 0.803089023 0.367707998
vt 0.797329009 0.367996007
vt 0.799459994 0.368891001
vt 0.79946202 0.368892998
vt 0.799556017 0.368972987
vt 0.799465001 0.368894994
vt 0.799564004 0.368995011
vt 0.798730016 0.368972987
vt 0.799561024 0.368972987
vt 0.799612999 0.368876994
vt 0.797137976 0.368137002
vt 0.79946202 0.368892998
vt 0.799458981 0.368894011
vt 0.800221026 0.368880987
vt 0.799465001 0.368894994
vt 0.800221026 0.368882
vt 0.803089023 0.367707998
vt 0.800988019 0.368842989
vt 0.800985992 0.368842989
vt 0.800225019 0.368882
vt 0.800981998 0.368844002
vt 0.800225019 0.368880987
vt 0.73299402 0.323819011
vt 0.802016973 0.368431985
vt 0.803089023 0.367707998
vt 0.800985992 0.368842989
vt 0.800987005 0.368840009
vt 0.803089023 0.367707998
vt 0.800895989 0.368984997
vt 0.800981998 0.368844002
vt 0.800900996 0.368930995
vt 0.800889015 0.368889987
vt 0.800230026 0.36888501
vt 0.799556017 0.368956
vt 0.800889015 0.368889987
vt 0.800881982 0.368806005
vt 0.801452994 0.369087994
vt 0.797329009 0.367996007
vt 0.798514009 0.368633986
vt 0.796893001 0.367657989
vt 0.79964 0.368921995
vt 0.800215006 0.36888501
vt 0.800215006 0.368887991
vt 0.799564004 0.368995011
vt 0.799556017 0.368972987
vt 0.799612999 0.368876994
vt 0.799561024 0.368972987
vt 0.26087001 0.41672501
vt 0.260421008 0.416276008
vt 0.260421008 0.417174011
vt 0.260262012 0.416276008
vt 0.259813011 0.41672501
vt 0.260262012 0.417174011
vt 0.800230026 0.36888501
vt 0.800889015 0.368889987
vt 0.800900996 0.368930995
vt 0.801738977 0.369147986
vt 0.800503016 0.369540006
vt 0.800305009 0.369578004
vt 0.799556017 0.368956
vt 0.800215006 0.36888501
vt 0.799556017 0.368972987
vt 0.801452994 0.369087994
vt 0.800503016 0.369540006
vt 0.801738977 0.369147986
vt 0.800305009 0.369578004
vt 0.799435019 0.368950009
vt 0.801452994 0.369087994
vt 0.800886989 0.368865013
vt 0.800881982 0.368806005
vt 0.799122989 0.369363993
vt 0.798812985 0.369390994
vt 0.798940003 0.369183987
vt 0.799408019 0.368993014
vt 0.799435019 0.368950009
vt 0.799122989 0.369363993
vt 0.799556017 0.368956
vt 0.799637973 0.368914008
vt 0.79965198 0.368932009
vt 0.800305009 0.369578004
vt 0.798812985 0.369390994
vt 0.801738977 0.369147986
vt 0.800889015 0.368889987
vt 0.801452994 0.369087994
vt 0.801738977 0.369147986
vt 0.800983012 0.368842006
vt 0.799463987 0.368892014
vt 0.800225019 0.368882
vt 0.799459994 0.368891001
vt 0.800987005 0.368840009
vt 0.800221026 0.368880987
vt 0.26147899 0.416276008
vt 0.261321008 0.417174011
vt 0.26147899 0.417174011
vt 0.261321008 0.416276008
vt 0.800881982 0.368806005
vt 0.800809979 0.368856013
vt 0.800886989 0.368865013
vt 0.800889015 0.368889987
vt 0.799676001 0.368887007
vt 0.79965198 0.368932009
vt 0.799682975 0.368889004
vt 0.799637973 0.368914008
vt 0.80092299 0.368755013
vt 0.800809979 0.368856013
vt 0.800803006 0.368865013
vt 0.800886989 0.368865013
vt 0.798718989 0.368703991
vt 0.797329009 0.367996007
vt 0.798730016 0.368972987
vt 0.797137976 0.368137002
vt 0.800989985 0.368840009
vt 0.800983012 0.368842006
vt 0.800985992 0.368842006
vt 0.800987005 0.368840009
vt 0.803323984 0.36768499
vt 0.799459994 0.368891001
vt 0.799463987 0.368892014
vt 0.799461007 0.368892998
vt 0.796998978 0.368018001
vt 0.799679995 0.368883014
vt 0.79964 0.368921995
vt 0.799678981 0.368892014
vt 0.799612999 0.368876994
vt 0.80092299 0.368755013
vt 0.799730003 0.368910998
vt 0.800886989 0.368865013
vt 0.799694002 0.368833989
vt 0.799612999 0.368876994
vt 0.798575997 0.369690001
vt 0.798575997 0.369769007
vt 0.79965198 0.368932009
vt 0.799682975 0.368889004
vt 0.799679995 0.368883014
vt 0.801738977 0.369147986
vt 0.803578973 0.367534995
vt 0.80183202 0.368761986
vt 0.800884008 0.368934005
vt 0.80183202 0.368761986
vt 0.800889015 0.368889987
vt 0.803323984 0.36768499
vt 0.803351998 0.367805004
vt 0.800989985 0.368840009
vt 0.799459994 0.368891001
vt 0.796893001 0.367657989
vt 0.796998978 0.368018001
vt 0.796459019 0.368023992
vt 0.799678981 0.368892014
vt 0.79964 0.368921995
vt 0.799676001 0.368887007
vt 0.799637973 0.368914008
vt 0.801827013 0.368526012
vt 0.803351998 0.367805004
vt 0.803089023 0.367707998
vt 0.80183202 0.368761986
vt 0.799458981 0.368894011
vt 0.799461007 0.368892998
vt 0.796998978 0.368018001
vt 0.799462974 0.368896008
vt 0.799561024 0.368972987
vt 0.799556017 0.368956
vt 0.799408019 0.368993014
vt 0.800889015 0.368889987
vt 0.800884008 0.368934005
vt 0.800988019 0.368842989
vt 0.800985992 0.368842006
vt 0.800989985 0.368840009
vt 0.803351998 0.367805004
vt 0.799561024 0.368972987
vt 0.799458981 0.368894011
vt 0.799564004 0.368995011
vt 0.79946202 0.368892998
vt 0.799459994 0.368891001
vt 0.800221026 0.368880987
vt 0.800987005 0.368840009
vt 0.800225019 0.368880987
vt 0.800985992 0.368842989
vt 0.80023098 0.368887007
vt 0.800215006 0.368887991
vt 0.799637973 0.368914008
vt 0.79964 0.368921995
vt 0.800809979 0.368856013
vt 0.800803006 0.368865013
vt 0.800884008 0.368934005
vt 0.800988019 0.368842989
vt 0.800895989 0.368984997
vt 0.803323984 0.36768499
vt 0.803303003 0.367403001
vt 0.800987005 0.368840009
vt 0.803578973 0.367534995
vt 0.800889015 0.368889987
vt 0.800985992 0.368842006
vt 0.800900996 0.368930995
vt 0.800981998 0.368844002
vt 0.800983012 0.368842006
vt 0.800225019 0.368882
vt 0.800215006 0.36888501
vt 0.800230026 0.36888501
vt 0.799556017 0.368956
vt 0.800221026 0.368882
vt 0.799463987 0.368892014
vt 0.799465001 0.368894994
vt 0.799461007 0.368892998
vt 0.799462974 0.368896008
vt 0.799556017 0.368972987
vt 0.800230026 0.36888501
vt 0.800225019 0.368880987
vt 0.800225019 0.368882
vt 0.80023098 0.368887007
vt 0.800221026 0.368880987
vt 0.800215006 0.36888501
vt 0.800221026 0.368882
vt 0.800215006 0.368887991
vt 0.260262012 0.416276008
vt 0.260421008 0.417174011
vt 0.260421008 0.416276008
vt 0.260262012 0.417174011
vt 0.799637973 0.368914008
vt 0.800809979 0.368856013
vt 0.800889015 0.368889987
vt 0.799556017 0.368956
vn 0.000000 -1.000000 0.000000
vn 0.000000 -1.000000 0.000000
vn 0.000000 -1.000000 0.000000
vn 0.000000 1.000000 0.000000
vn 0.000000 1.000000 0.000000
vn 0.000000 1.000000 0.000000
vn 0.000000 1.000000 0.000000
vn 0.000000 1.000000 0.000000
vn 0.000000 1.000000 0.000000
vn 0.000000 0.000000 -1.000000
vn 0.000000 0.000000 -1.000000
vn 0.000000 0.000000 -1.000000
vn 0.000000 -1.000000 0.000000
vn 0.000000 -1.000000 0.000000
vn 0.000000 -1.000000 0.000000
vn 0.000000 -1.000000 0.000000
vn 0.000000 -1.000000 0.000000
vn 0.000000 -1.000000 0.000000
vn 0.000000 -1.000000 0.000000
vn 0.000000 -1.000000 0.000000
vn 0.000000 -1.000000 0.000000
vn 0.000000 -1.000000 0.000000
vn 0.000000 -1.000000 0.000000
vn 0.000000 1.000000 0.000000
vn 0.000000 1.000000 0.000000
vn 0.000000 1.000000 0.000000
vn 0.000000 1.000000 0.000000
vn 0.000000 1.000000 0.000000
vn 0.000000 -1.000000 0.000000
vn 0.000000 -1.000000 0.000000
vn 0.000000 -1.000000 0.000000
vn 0.000000 -1.000000 0.000000
vn 0.000000 -1.000000 0.000000
vn 0.000000 1.000000 0.000000
vn 0.000000 1.000000 0.000000
vn 0.000000 1.000000 0.000000
vn 0.000000 0.000000 1.000000
vn 0.000000 0.000000 1.000000
vn 0.000000 0.000000 1.000000
vn 0.000000 0.000000 1.000000
vn 0.000000 0.000000 1.000000
vn 0.000000 0.000000 1.000000
vn 0.000000 0.000000 1.000000
vn 0.000000 0.000000 1.000000
vn 0.000000 0.000000 1.000000
vn 0.000000 0.000000 1.000000
vn 0.000000 0.000000 1.000000
vn 0.000000 0.000000 1.000000
vn 0.000000 0.000000 1.000000
vn 0.000000 0.000000 1.000000
vn 0.000000 0.000000 1.000000
vn 0.000000 0.000000 1.000000
vn 0.000000 0.000000 1.000000
vn 0.000000 0.000000 1.000000
vn 0.000000 0.000000 1.000000
vn 0.000000 0.000000 1.000000
vn 0.000000 0.000000 1.000000
vn 0.000000 0.000000 1.000000
vn 0.000000 0.000000 1.000000
vn 0.000000 0.000000 1.000000
vn 0.000000 0.000000 -1.000000
vn 0.000000 0.000000 -1.000000
vn 0.000000 0.000000 -1.000000
vn 0.000000 1.000000 0.000000
vn 0.000000 1.000000 0.000000
vn 0.000000 1.000000 0.000000
vn 0.000000 1.000000 0.000000
vn 0.000000 1.000000 0.000000
vn 0.000000 1.000000 0.000000
vn 0.000000 0.000000 1.000000
vn 0.000000 0.000000 1.000000
vn 0.000000 0.000000 1.000000
vn 0.000000 0.000000 -1.000000
vn 0.000000 0.000000 -1.000000
vn 0.000000 0.000000 -1.000000
vn 0.000000 0.000000 -1.000000
vn 0.000000 0.000000 -1.000000
vn 0.000000 0.000000 -1.000000
vn 0.000000 0.000000 -1.000000
vn 0.000000 0.000000 -1.000000
vn 0.000000 0.000000 -1.000000
vn 0.000000 0.000000 -1.000000
vn 0.000000 0.000000 -1.000000
vn 0.000000 0.000000 -1.000000
vn 0.000000 -1.000000 0.000000
vn 0.000000 -1.000000 0.000000
vn 0.000000 -1.000000 0.000000
vn 0.000000 -1.000000 0.000000
vn 0.000000 -1.000000 0.000000
vn 0.000000 -1.000000 0.000000
vn 0.000000 -1.000000 0.000000
vn 0.000000 -1.000000 0.000000
vn 0.000000 -1.000000 0.000000
vn -1.000000 0.000000 0.000000
vn -1.000000 0.000000 0.000000
vn -1.000000 0.000000 0.000000
vn 0.000000 0.000000 -1.000000
vn 0.000000 0.000000 -1.000000
vn 0.000000 0.000000 -1.000000
vn 0.000000 1.000000 0.000000
vn 0.000000 1.000000 0.000000
vn 0.000000 1.000000 0.000000
vn 0.000000 0.000000 1.000000
vn 0.000000 0.000000 1.000000
vn 0.000000 0.000000 1.000000
vn 0.000000 0.000000 1.000000
vn 0.000000 0.000000 1.000000
vn 0.000000 0.000000 1.000000
vn 0.000000 0.000000 1.000000
vn 0.000000 1.000000 0.000000
vn 0.000000 1.000000 0.000000
vn 0.000000 1.000000 0.000000
vn 0.000000 -1.000000 0.000000
vn 0.000000 -1.000000 0.000000
vn 0.000000 -1.000000 0.000000
vn -1.000000 0.000000 0.000000
vn -1.000000 0.000000 0.000000
vn -1.000000 0.000000 0.000000
vn 0.000000 0.000000 -1.000000
vn 0.000000 0.000000 -1.000000
vn 0.000000 0.000000 -1.000000
vn -1.000000 0.000000 0.000000
vn -1.000000 0.000000 0.000000
vn -1.000000 0.000000 0.000000
vn 0.000000 0.000000 -1.000000
vn 0.000000 0.000000 -1.000000
vn 0.000000 0.000000 -1.000000
vn 0.000000 0.000000 -1.000000
vn 0.000000 0.000000 -1.000000
vn 0.000000 0.000000 -1.000000
vn 0.000000 0.000000 -1.000000
vn 0.000000 0.000000 -1.000000
vn 0.000000 0.000000 -1.000000
vn 0.000000 0.000000 -1.000000
vn 0.000000 0.000000 -1.000000
vn 0.000000 0.000000 -1.000000
vn 0.000000 0.000000 -1.000000
vn 0.000000 0.000000 -1.000000
vn 0.000000 0.000000 -1.000000
vn 0.000000 0.000000 -1.000000
vn 0.000000 0.000000 -1.000000
vn 0.000000 0.000000 -1.000000
vn 0.000000 0.000000 -1.000000
vn 0.000000 0.000000 -1.000000
vn 0.000000 0.000000 -1.000000
vn 0.000000 0.000000 -1.000000
vn 0.000000 0.000000 -1.000000
vn -1.000000 0.000000 0.000000
vn -1.000000 0.000000 0.000000
vn -1.000000 0.000000 0.000000
vn 1.000000 0.000000 0.000000
vn 1.000000 0.000000 0.000000
vn 1.000000 0.000000 0.000000
vn -0.600000 0.000000 -0.800000
vn -0.600000 0.000000 -0.800000
vn -0.600000 0.000000 -0.800000
vn -0.600000 0.000000 -0.800000
vn 0.000000 0.000000 -1.000000
vn 0.000000 0.000000 -1.000000
vn 0.000000 0.000000 -1.000000
vn 0.000000 0.000000 -1.000000
vn 0.000000 -0.764911 -0.644136
vn 0.000000 -0.764911 -0.644136
vn 0.000000 -0.764911 -0.644136
vn 0.000000 -0.764911 -0.644136
vn 0.000000 -1.000000 0.000000
vn 0.000000 -1.000000 0.000000
vn 0.000000 -1.000000 0.000000
vn 0.000000 -1.000000 0.000000
vn -1.000000 0.000000 0.000000
vn -1.000000 0.000000 0.000000
vn -1.000000 0.000000 0.000000
vn -1.000000 0.000000 0.000000
vn 0.000000 0.000000 1.000000
vn 0.000000 0.000000 1.000000
vn 0.000000 0.000000 1.000000
vn 0.000000 0.000000 1.000000
vn 0.000000 0.000000 1.000000
vn 0.000000 0.000000 1.000000
vn 0.000000 0.000000 1.000000
vn 0.000000 0.000000 1.000000
vn 0.000000 0.000000 1.000000
vn 0.000000 0.764911 0.644136
vn 0.000000 0.764911 0.644136
vn 0.000000 0.764911 0.644136
vn 0.000000 0.764911 0.644136
vn -1.000000 0.000000 0.000000
vn -1.000000 0.000000 0.000000
vn -1.000000 0.000000 0.000000
vn -1.000000 0.000000 0.000000
vn 1.000000 0.000000 0.000000
vn 1.000000 0.000000 0.000000
vn 1.000000 0.000000 0.000000
vn 1.000000 0.000000 0.000000
vn 1.000000 0.000000 0.000000
vn 1.000000 0.000000 0.000000
vn 0.000000 1.000000 0.000000
vn 0.000000 1.000000 0.000000
vn 0.000000 1.000000 0.000000
vn 0.000000 1.000000 0.000000
vn 0.000000 1.000000 0.000000
vn 0.000000 1.000000 0.000000
vn 0.000000 1.000000 0.000000
vn 0.000000 1.000000 0.000000
vn 0.000000 1.000000 0.000000
vn 0.000000 0.000000 1.000000
vn 0.000000 0.000000 1.000000
vn 0.000000 0.000000 1.000000
vn 0.000000 0.000000 1.000000
vn -1.000000 0.000000 0.000000
vn -1.000000 0.000000 0.000000
vn -1.000000 0.000000 0.000000
vn -1.000000 0.000000 0.000000
vn -1.000000 0.000000 0.000000
vn -1.000000 0.000000 0.000000
vn -1.000000 0.000000 0.000000
vn -1.000000 0.000000 0.000000
vn 0.000000 -1.000000 0.000000
vn 0.000000 -1.000000 0.000000
vn 0.000000 -1.000000 0.000000
vn 0.000000 -1.000000 0.000000
vn 0.000000 -1.000000 0.000000
vn 0.000000 -1.000000 0.000000
vn 0.000000 -1.000000 0.000000
vn 0.000000 1.000000 0.000000
vn 0.000000 1.000000 0.000000
vn 0.000000 1.000000 0.000000
vn 0.000000 1.000000 0.000000
vn 0.000000 1.000000 0.000000
vn 0.000000 1.000000 0.000000
vn 1.000000 0.000000 0.000000
vn 1.000000 0.000000 0.000000
vn 1.000000 0.000000 0.000000
vn 1.000000 0.000000 0.000000
vn 1.000000 0.000000 0.000000
vn 1.000000 0.000000 0.000000
vn 1.000000 0.000000 0.000000
vn 1.000000 0.000000 0.000000
vn 1.000000 0.000000 0.000000
vn 1.000000 0.000000 0.000000
vn 1.000000 0.000000 0.000000
vn 1.000000 0.000000 0.000000
vn 1.000000 0.000000 0.000000
vn 1.000000 0.000000 0.000000
vn 1.000000 0.000000 0.000000
vn 1.000000 0.000000 0.000000
vn 1.000000 0.000000 0.000000
vn 1.000000 0.000000 0.000000
vn 0.000000 0.000000 1.000000
vn 0.000000 0.000000 1.000000
vn 0.000000 0.000000 1.000000
vn 0.000000 0.000000 1.000000
vn -1.000000 0.000000 0.000000
vn -1.000000 0.000000 0.000000
vn -1.000000 0.000000 0.000000
vn -1.000000 0.000000 0.000000
vn -1.000000 0.000000 0.000000
vn -1.000000 0.000000 0.000000
vn -1.000000 0.000000 0.000000
vn -1.000000 0.000000 0.000000
vn -1.000000 0.000000 0.000000
vn -1.000000 0.000000 0.000000
vn -1.000000 0.000000 0.000000
vn -1.000000 0.000000 0.000000
vn -1.000000 0.000000 0.000000
vn -1.000000 0.000000 0.000000
vn -1.000000 0.000000 0.000000
vn 0.000000 1.000000 0.000000
vn 0.000000 1.000000 0.000000
vn 0.000000 1.000000 0.000000
vn 0.000000 1.000000 0.000000
vn 0.000000 -1.000000 0.000000
vn 0.000000 -1.000000 0.000000
vn 0.000000 -1.000000 0.000000
vn 0.000000 -1.000000 0.000000
vn -0.600000 0.000000 -0.800000
vn -0.600000 0.000000 -0.800000
vn -0.600000 0.000000 -0.800000
vn -0.600000 0.000000 -0.800000
vn 0.000000 0.000000 -1.000000
vn 0.000000 0.000000 -1.000000
vn 0.000000 0.000000 -1.000000
vn 0.000000 0.000000 -1.000000
f 3/3/3 2/2/2 1/1/1
f 6/6/6 5/5/5 4/4/4
f 9/9/9 8/8/8 7/7/7
f 12/12/12 11/11/11 10/10/10
f 15/15/15 14/14/14 13/13/13
f 14/14/14 17/17/17 16/16/16
f 17/17/17 18/18/18 16/16/16
f 18/18/18 19/19/19 16/16/16
f 20/20/20 19/19/19 18/18/18
f 18/18/18 21/21/21 20/20/20
f 23/23/23 22/22/22 21/21/21
f 26/26/26 25/25/25 24/24/24
f 26/26/26 28/28/28 27/27/27
f 31/31/31 30/30/30 29/29/29
f 33/33/33 32/32/32 29/29/29
f 36/36/36 35/35/35 34/34/34
f 39/39/39 38/38/38 37/37/37
f 42/42/42 41/41/41 40/40/40
f 40/40/40 44/44/44 43/43/43
f 46/46/46 43/43/43 45/45/45
f 49/49/49 48/48/48 47/47/47
f 51/51/51 50/50/50 49/49/49
f 51/51/51 53/53/53 52/52/52
f 54/54/54 53/53/53 51/51/51
f 51/51/51 55/55/55 54/54/54
f 51/51/51 57/57/57 56/56/56
f 51/51/51 58/58/58 57/57/57
f 57/57/57 58/58/58 59/59/59
f 58/58/58 60/60/60 59/59/59
f 63/63/63 62/62/62 61/61/61
f 66/66/66 65/65/65 64/64/64
f 68/68/68 66/66/66 67/67/67
f 67/67/67 66/66/66 69/69/69
f 72/72/72 71/71/71 70/70/70
f 75/75/75 74/74/74 73/73/73
f 77/77/77 76/76/76 74/74/74
f 78/78/78 76/76/76 77/77/77
f 81/81/81 80/80/80 79/79/79
f 83/83/83 81/81/81 82/82/82
f 82/82/82 81/81/81 84/84/84
f 87/87/87 86/86/86 85/85/85
f 90/90/90 89/89/89 88/88/88
f 88/88/88 92/92/92 91/91/91
f 91/91/91 92/92/92 93/93/93
f 96/96/96 95/95/95 94/94/94
f 99/99/99 98/98/98 97/97/97
f 102/102/102 101/101/101 100/100/100
f 105/105/105 104/104/104 103/103/103
f 103/103/103 107/107/107 106/106/106
f 103/103/103 106/106/106 108/108/108
f 106/106/106 109/109/109 108/108/108
f 112/112/112 111/111/111 110/110/110
f 115/115/115 114/114/114 113/113/113
f 118/118/118 117/117/117 116/116/116
f 121/121/121 120/120/120 119/119/119
f 124/124/124 123/123/123 122/122/122
f 127/127/127 126/126/126 125/125/125
f 129/129/129 126/126/126 128/128/128
f 129/129/129 130/130/130 126/126/126
f 129/129/129 131/131/131 130/130/130
f 131/131/131 132/132/132 130/130/130
f 128/128/128 133/133/133 129/129/129
f 128/128/128 134/134/134 133/133/133
f 133/133/133 134/134/134 135/135/135
f 135/135/135 136/136/136 133/133/133
f 138/138/138 136/136/136 137/137/137
f 136/136/136 139/139/139 137/137/137
f 137/137/137 139/139/139 140/140/140
f 141/141/141 137/137/137 140/140/140
f 144/144/144 143/143/143 142/142/142
f 147/147/147 146/146/146 145/145/145
f 150/150/150 149/149/149 148/148/148
f 153/153/153 152/152/152 151/151/151
f 156/156/156 155/155/155 154/154/154
f 154/154/154 155/155/155 157/157/157
f 160/160/160 159/159/159 158/158/158
f 158/158/158 159/159/159 161/161/161
f 164/164/164 163/163/163 162/162/162
f 162/162/162 163/163/163 165/165/165
f 168/168/168 167/167/167 166/166/166
f 166/166/166 167/167/167 169/169/169
f 172/172/172 171/171/171 170/170/170
f 173/173/173 171/171/171 172/172/172
f 176/176/176 175/175/175 174/174/174
f 177/177/177 174/174/174 175/175/175
f 177/177/177 178/178/178 174/174/174
f 179/179/179 177/177/177 175/175/175
f 175/175/175 180/180/180 179/179/179
f 179/179/179 180/180/180 181/181/181
f 181/181/181 182/182/182 179/179/179
f 185/185/185 184/184/184 183/183/183
f 183/183/183 184/184/184 186/186/186
f 189/189/189 188/188/188 187/187/187
f 187/187/187 188/188/188 190/190/190
f 193/193/193 192/192/192 191/191/191
f 191/191/191 192/192/192 194/194/194
f 194/194/194 195/195/195 191/191/191
f 191/191/191 195/195/195 196/196/196
f 199/199/199 198/198/198 197/197/197
f 201/201/201 197/197/197 200/200/200
f 200/200/200 197/197/197 202/202/202
f 198/198/198 204/204/204 203/203/203
f 204/204/204 205/205/205 203/203/203
f 208/208/208 207/207/207 206/206/206
f 209/209/209 207/207/207 208/208/208
f 212/212/212 211/211/211 210/210/210
f 213/213/213 211/211/211 212/212/212
f 216/216/216 215/215/215 214/214/214
f 214/214/214 215/215/215 217/217/217
f 220/220/220 219/219/219 218/218/218
f 221/221/221 218/218/218 219/219/219
f 218/218/218 221/221/221 222/222/222
f 221/221/221 223/223/223 222/222/222
f 224/224/224 222/222/222 223/223/223
f 227/227/227 226/226/226 225/225/225
f 225/225/225 228/228/228 227/227/227
f 227/227/227 228/228/228 229/229/229
f 227/227/227 229/229/229 230/230/230
f 233/233/233 232/232/232 231/231/231
f 234/234/234 232/232/232 233/233/233
f 234/234/234 236/236/236 235/235/235
f 238/238/238 237/237/237 236/236/236
f 239/239/239 237/237/237 238/238/238
f 238/238/238 236/236/236 240/240/240
f 241/241/241 240/240/240 236/236/236
f 242/242/242 240/240/240 241/241/241
f 243/243/243 242/242/242 241/241/241
f 242/242/242 244/244/244 240/240/240
f 240/240/240 244/244/244 245/245/245
f 247/247/247 239/239/239 246/246/246
f 246/246/246 239/239/239 248/248/248
f 251/251/251 250/250/250 249/249/249
f 249/249/249 250/250/250 252/252/252
f 255/255/255 254/254/254 253/253/253
f 255/255/255 256/256/256 254/254/254
f 254/254/254 256/256/256 257/257/257
f 256/256/256 258/258/258 257/257/257
f 258/258/258 260/260/260 259/259/259
f 261/261/261 259/259/259 260/260/260
f 262/262/262 258/258/258 259/259/259
f 262/262/262 263/263/263 258/258/258
f 264/264/264 263/263/263 262/262/262
f 263/263/263 264/264/264 265/265/265
f 264/264/264 266/266/266 265/265/265
f 266/266/266 267/267/267 261/261/261
f 264/264/264 267/267/267 266/266/266
f 270/270/270 269/269/269 268/268/268
f 268/268/268 269/269/269 271/271/271
f 274/274/274 273/273/273 272/272/272
f 272/272/272 273/273/273 275/275/275
f 278/278/278 277/277/277 276/276/276
f 276/276/276 277/277/277 279/279/279
f 282/282/282 281/281/281 280/280/280
f 282/282/282 280/280/280 283/283/283
