v -14.250000 10.000000 0.000000
v -14.250000 5.000000 -5.000000
v -14.250000 10.000000 -5.000000
v 13.750000 8.500000 1.000000
v 14.250000 4.500000 1.000000
v 13.750000 3.000000 1.000000
v 4.250000 -3.500000 2.750000
v 4.250000 -1.000000 2.750000
v 4.250000 -4.500000 4.250000
v -4.750000 -4.500000 -0.000000
v -13.750000 -4.500000 1.000000
v -13.750000 -4.500000 -0.000000
v -4.750000 -4.500000 4.250000
v -13.750000 -4.500000 4.250000
v -4.750000 -4.500000 -0.000000
v -4.750000 -1.000000 2.750000
v -4.750000 -4.500000 4.250000
v -4.750000 -3.500000 2.750000
v -13.750000 8.500000 1.000000
v -14.250000 3.000000 1.000000
v -14.250000 8.500000 1.000000
v 14.250000 10.000000 5.750000
v 14.250000 3.000000 3.750000
v 14.250000 2.000000 3.750000
v 14.250000 3.000000 1.000000
v 14.250000 2.000000 1.000000
v 13.750000 -4.500000 -0.000000
v 13.750000 8.500000 0.000000
v 13.750000 2.000000 1.000000
v 13.750000 8.500000 1.000000
v 13.750000 3.000000 1.000000
v 4.750000 4.500000 4.750000
v -4.750000 4.500000 4.750000
v 1.250000 4.500000 5.750000
v -4.750000 4.500000 5.750000
v -1.250000 4.500000 5.750000
v 4.750000 4.500000 4.750000
v -13.750000 -4.500000 4.750000
v -4.750000 4.500000 4.750000
v -4.750000 4.500000 4.750000
v -13.750000 9.500000 4.750000
v -4.750000 9.500000 4.750000
v -4.750000 4.500000 4.750000
v 4.250000 -1.000000 -0.000000
v -4.250000 -3.500000 -0.000000
v -4.250000 -1.000000 -0.000000
v -4.250000 10.000000 -5.000000
v -4.250000 5.000000 5.750000
v -4.250000 10.000000 5.750000
v -14.250000 5.000000 -5.000000
v -14.250000 8.500000 1.000000
v -14.250000 3.000000 1.000000
v -14.250000 8.500000 1.000000
v -14.250000 5.000000 -5.000000
v -14.250000 10.000000 0.000000
v 14.250000 3.000000 1.000000
v 13.750000 3.000000 1.000000
v 14.250000 4.500000 1.000000
v 14.250000 8.500000 1.000000
v 13.750000 8.500000 1.000000
v 4.250000 4.500000 4.250000
v 4.250000 -4.500000 4.250000
v 4.250000 -1.000000 2.750000
v 4.250000 -3.500000 2.750000
v 4.250000 -4.500000 -0.000000
v 4.250000 -3.500000 -0.000000
v -14.250000 -5.000000 -0.000000
v -14.250000 -5.000000 -5.000000
v -14.250000 -1.000000 1.000000
v -14.250000 2.000000 3.750000
v -14.250000 -5.000000 5.750000
v -14.250000 -3.500000 3.750000
v -14.250000 2.000000 3.750000
v -14.250000 10.000000 5.750000
v -14.250000 -5.000000 5.750000
v -14.250000 -3.500000 3.750000
v -14.250000 -5.000000 2.750000
v -14.250000 -3.500000 2.750000
v -4.750000 -4.500000 4.250000
v -4.750000 -1.000000 2.750000
v -4.750000 9.500000 4.250000
v -4.750000 -3.500000 2.750000
v -4.750000 -4.500000 -0.000000
v -4.750000 -3.500000 -0.000000
v -13.750000 3.000000 1.000000
v -14.250000 3.000000 1.000000
v -13.750000 8.500000 1.000000
v 14.250000 -5.000000 -5.000000
v 14.250000 -3.500000 1.000000
v 14.250000 -4.500000 -5.000000
v 14.250000 3.000000 3.750000
v 14.250000 10.000000 5.750000
v 14.250000 8.500000 3.750000
v 14.250000 2.000000 3.750000
v 14.250000 3.000000 3.750000
v 14.250000 3.000000 1.000000
v 13.750000 3.000000 1.000000
v 13.750000 2.000000 3.750000
v 13.750000 2.000000 1.000000
v 13.750000 9.500000 4.250000
v 13.750000 8.500000 1.000000
v 13.750000 9.500000 0.000000
v 13.750000 2.000000 4.250000
v 13.750000 8.500000 3.750000
v 13.750000 2.000000 3.750000
v 13.750000 3.000000 3.750000
v 13.750000 3.000000 1.000000
v 13.750000 8.500000 0.000000
v 13.750000 9.500000 0.000000
v 13.750000 8.500000 1.000000
v 13.750000 9.500000 4.250000
v 13.750000 8.500000 3.750000
v 13.750000 8.500000 1.000000
v 13.750000 8.500000 3.750000
v 13.750000 2.000000 4.250000
v 13.750000 3.000000 3.750000
v -14.250000 -3.500000 1.000000
v -13.750000 -3.500000 1.000000
v -14.250000 -3.500000 2.750000
v 4.250000 10.000000 -5.000000
v 4.250000 5.000000 1.000000
v 4.250000 5.000000 -5.000000
v 4.250000 5.000000 5.750000
v 4.250000 5.000000 2.750000
v 4.250000 10.000000 5.750000
v -13.750000 2.000000 1.000000
v -14.250000 -1.000000 1.000000
v -14.250000 2.000000 1.000000
v 13.750000 3.000000 1.000000
v 13.750000 2.000000 1.000000
v 13.750000 8.500000 0.000000
v 13.750000 -3.500000 1.000000
v 13.750000 -4.500000 -0.000000
v 13.750000 -4.500000 4.250000
v 13.750000 -3.500000 3.750000
v 13.750000 2.000000 4.250000
v 13.750000 2.000000 3.750000
v -13.750000 8.500000 3.750000
v -13.750000 9.500000 4.250000
v -13.750000 8.500000 1.000000
v -13.750000 2.000000 3.750000
v -13.750000 -4.500000 4.250000
v -13.750000 -3.500000 3.750000
v -13.750000 -4.500000 1.000000
v -13.750000 -3.500000 1.000000
v -13.750000 3.000000 3.750000
v -13.750000 2.000000 1.000000
v -13.750000 3.000000 1.000000
v -13.750000 2.000000 3.750000
v -13.750000 9.500000 4.250000
v -13.750000 3.000000 3.750000
v -13.750000 8.500000 1.000000
v -13.750000 9.500000 0.000000
v -13.750000 8.500000 0.000000
v -13.750000 8.500000 3.750000
v -13.750000 3.000000 3.750000
v -13.750000 9.500000 4.250000
v -4.750000 4.500000 5.750000
v -4.250000 5.000000 5.750000
v -1.250000 4.500000 5.750000
v 1.250000 5.000000 5.750000
v 4.250000 5.000000 5.750000
v 1.250000 4.500000 5.750000
v -1.250000 4.500000 5.750000
v -4.250000 5.000000 5.750000
v -1.250000 5.000000 5.750000
v -4.750000 9.500000 5.750000
v -4.750000 4.500000 5.750000
v 4.250000 5.000000 5.750000
v 4.750000 4.500000 5.750000
v 1.250000 4.500000 5.750000
v 4.250000 5.000000 5.750000
v 4.750000 9.500000 5.750000
v 4.750000 4.500000 5.750000
v -4.750000 9.500000 5.750000
v -4.250000 10.000000 5.750000
v -4.250000 5.000000 5.750000
v -13.750000 9.500000 5.750000
v -14.250000 10.000000 5.750000
v 4.250000 10.000000 5.750000
v 4.750000 9.500000 5.750000
v 4.250000 5.000000 5.750000
v -13.750000 9.500000 5.750000
v -4.250000 10.000000 5.750000
v -4.750000 9.500000 5.750000
v 1.250000 4.500000 2.750000
v 1.250000 5.000000 1.000000
v 1.250000 5.000000 2.750000
v 4.750000 4.500000 4.750000
v 1.250000 4.500000 5.750000
v 4.750000 4.500000 5.750000
v -4.750000 4.500000 4.750000
v -1.250000 4.500000 5.750000
v 13.750000 -4.500000 4.750000
v 4.750000 4.500000 4.750000
v 13.750000 9.500000 4.750000
v 13.750000 9.500000 4.750000
v 4.750000 4.500000 4.750000
v 4.750000 9.500000 4.750000
v -13.750000 -4.500000 4.750000
v 4.750000 4.500000 4.750000
v 13.750000 -4.500000 4.750000
v 4.250000 -3.500000 -0.000000
v 4.750000 -1.000000 -0.000000
v 4.750000 -3.500000 -0.000000
v 13.750000 8.500000 0.000000
v 4.750000 9.500000 0.000000
v 13.750000 8.500000 0.000000
v 4.750000 9.500000 0.000000
v 13.750000 9.500000 0.000000
v 1.250000 4.500000 0.000000
v -1.250000 5.000000 0.000000
v 1.250000 5.000000 0.000000
v 13.750000 -4.500000 -0.000000
v 4.750000 -1.000000 -0.000000
v 13.750000 8.500000 0.000000
v 4.250000 -3.500000 -0.000000
v 4.250000 -1.000000 -0.000000
v 4.750000 -1.000000 -0.000000
v 4.750000 -3.500000 -0.000000
v 13.750000 -4.500000 -0.000000
v 4.750000 -4.500000 -0.000000
v -13.750000 9.500000 0.000000
v -4.750000 9.500000 0.000000
v -13.750000 8.500000 0.000000
v -4.750000 -1.000000 -0.000000
v -13.750000 -4.500000 -0.000000
v -4.750000 -3.500000 -0.000000
v -4.750000 -4.500000 -0.000000
v -4.750000 -1.000000 -0.000000
v -13.750000 8.500000 0.000000
v -4.750000 9.500000 0.000000
v -4.250000 -3.500000 -0.000000
v 4.250000 -1.000000 -0.000000
v 4.250000 -3.500000 -0.000000
v -14.250000 -3.500000 1.000000
v -14.250000 -5.000000 -0.000000
v -14.250000 -1.000000 1.000000
v 13.750000 -4.500000 4.250000
v 13.750000 2.000000 4.250000
v 4.750000 -4.500000 4.250000
v 4.750000 9.500000 4.250000
v 13.750000 2.000000 4.250000
v 13.750000 2.000000 4.250000
v 13.750000 9.500000 4.250000
v -4.250000 5.000000 -5.000000
v -4.250000 5.000000 5.750000
v -4.250000 10.000000 -5.000000
v -4.250000 5.000000 -5.000000
v -1.250000 5.000000 0.000000
v -4.250000 5.000000 5.750000
v 4.250000 5.000000 1.000000
v 1.250000 5.000000 0.000000
v 4.250000 5.000000 -5.000000
v 1.250000 5.000000 0.000000
v 4.250000 5.000000 1.000000
v 1.250000 5.000000 1.000000
v 1.250000 5.000000 5.750000
v -1.250000 5.000000 2.750000
v 1.250000 5.000000 2.750000
v -1.250000 5.000000 2.750000
v -4.250000 5.000000 5.750000
v -1.250000 5.000000 0.000000
v 4.250000 10.000000 -5.000000
v 14.250000 10.000000 5.750000
v 4.250000 10.000000 5.750000
v 14.250000 10.000000 -5.000000
v -4.250000 -4.500000 4.250000
v 4.250000 -4.500000 -0.000000
v 4.250000 -4.500000 4.250000
v -4.250000 -4.500000 -0.000000
v 4.250000 -3.500000 2.750000
v 4.750000 -3.500000 -0.000000
v 4.750000 -3.500000 2.750000
v 4.250000 -3.500000 -0.000000
v -13.750000 9.500000 4.750000
v -13.750000 -4.500000 5.750000
v -13.750000 9.500000 5.750000
v -13.750000 -4.500000 4.750000
v 14.250000 8.500000 3.750000
v 13.750000 8.500000 1.000000
v 13.750000 8.500000 3.750000
v 14.250000 8.500000 1.000000
v -4.750000 -3.500000 -0.000000
v -4.250000 -3.500000 2.750000
v -4.750000 -3.500000 2.750000
v -4.250000 -3.500000 -0.000000
v 13.750000 -3.500000 1.000000
v 14.250000 2.000000 1.000000
v 14.250000 -3.500000 1.000000
v 13.750000 2.000000 1.000000
v -13.750000 8.500000 3.750000
v -14.250000 8.500000 1.000000
v -14.250000 8.500000 3.750000
v -13.750000 8.500000 1.000000
v -4.250000 -1.000000 2.750000
v -4.250000 -4.500000 4.250000
v -4.250000 4.500000 4.250000
v -4.250000 -3.500000 2.750000
v -4.250000 -4.500000 -0.000000
v -4.250000 -3.500000 -0.000000
v 13.750000 -3.500000 3.750000
v 14.250000 -3.500000 1.000000
v 14.250000 -3.500000 3.750000
v 13.750000 -3.500000 1.000000
v 13.750000 2.000000 3.750000
v 14.250000 2.000000 1.000000
v 13.750000 2.000000 1.000000
v 14.250000 2.000000 3.750000
v 1.250000 5.000000 1.000000
v 4.250000 5.000000 2.750000
v 1.250000 5.000000 2.750000
v 4.250000 5.000000 1.000000
v 1.250000 4.500000 2.750000
v -4.250000 4.500000 4.250000
v 4.250000 4.500000 4.250000
v -1.250000 4.500000 2.750000
v -4.250000 4.500000 0.000000
v -1.250000 4.500000 0.000000
v -14.250000 3.000000 1.000000
v -13.750000 3.000000 3.750000
v -14.250000 3.000000 3.750000
v -13.750000 3.000000 1.000000
v 13.750000 9.500000 4.250000
v 4.750000 9.500000 0.000000
v 4.750000 9.500000 4.250000
v 13.750000 9.500000 0.000000
v -14.250000 -3.500000 2.750000
v -13.750000 -3.500000 3.750000
v -14.250000 -3.500000 3.750000
v -13.750000 -3.500000 1.000000
v -4.750000 9.500000 4.250000
v -13.750000 9.500000 0.000000
v -13.750000 9.500000 4.250000
v -4.750000 9.500000 0.000000
v -13.750000 2.000000 1.000000
v -14.250000 2.000000 3.750000
v -13.750000 2.000000 3.750000
v -14.250000 2.000000 1.000000
v 4.750000 -4.500000 4.250000
v 13.750000 -4.500000 -0.000000
v 13.750000 -4.500000 4.250000
v 4.750000 -4.500000 -0.000000
v 4.250000 5.000000 1.000000
v 4.250000 10.000000 -5.000000
v 4.250000 10.000000 5.750000
v 4.250000 5.000000 2.750000
v 13.750000 3.000000 3.750000
v 14.250000 3.000000 1.000000
v 14.250000 3.000000 3.750000
v 13.750000 3.000000 1.000000
v -13.750000 -3.500000 1.000000
v -13.750000 -4.500000 -0.000000
v -13.750000 -4.500000 1.000000
v -13.750000 2.000000 1.000000
v -13.750000 8.500000 0.000000
v -13.750000 3.000000 1.000000
v -13.750000 8.500000 1.000000
v -13.750000 2.000000 1.000000
v -13.750000 -3.500000 1.000000
v -14.250000 -1.000000 1.000000
v -14.250000 -3.500000 1.000000
v 1.250000 4.500000 2.750000
v -1.250000 5.000000 2.750000
v -1.250000 4.500000 2.750000
v 1.250000 5.000000 2.750000
v 4.250000 -3.500000 2.750000
v 4.750000 -1.000000 2.750000
v 4.250000 -1.000000 2.750000
v 4.750000 -3.500000 2.750000
v -4.750000 -1.000000 2.750000
v -4.250000 -3.500000 2.750000
v -4.250000 -1.000000 2.750000
v -4.750000 -3.500000 2.750000
v 4.750000 -1.000000 2.750000
v 4.250000 -1.000000 -0.000000
v 4.250000 -1.000000 2.750000
v 4.750000 -1.000000 -0.000000
v -1.250000 5.000000 2.750000
v -1.250000 4.500000 0.000000
v -1.250000 4.500000 2.750000
v -1.250000 5.000000 0.000000
v 1.250000 4.500000 2.750000
v 1.250000 4.500000 0.000000
v 1.250000 5.000000 1.000000
v 1.250000 5.000000 0.000000
v -4.750000 9.500000 4.750000
v -13.750000 9.500000 5.750000
v -4.750000 9.500000 5.750000
v -13.750000 9.500000 4.750000
v -13.750000 -4.500000 4.750000
v 13.750000 -4.500000 5.750000
v -13.750000 -4.500000 5.750000
v 13.750000 -4.500000 4.750000
v 4.750000 9.500000 4.750000
v 4.750000 4.500000 5.750000
v 4.750000 9.500000 5.750000
v 4.750000 4.500000 4.750000
v -4.750000 -4.500000 4.250000
v -13.750000 9.500000 4.250000
v -13.750000 -4.500000 4.250000
v -4.750000 9.500000 4.250000
v -14.250000 -5.000000 2.750000
v -14.250000 -3.500000 1.000000
v -14.250000 -3.500000 2.750000
v -14.250000 -5.000000 -0.000000
v -4.750000 4.500000 5.750000
v -4.750000 9.500000 4.750000
v -4.750000 9.500000 5.750000
v -4.750000 4.500000 4.750000
v 4.250000 4.500000 4.250000
v -4.250000 -4.500000 4.250000
v 4.250000 -4.500000 4.250000
v -4.250000 4.500000 4.250000
v 14.250000 3.000000 3.750000
v 13.750000 8.500000 3.750000
v 13.750000 3.000000 3.750000
v 14.250000 8.500000 3.750000
v 13.750000 -3.500000 3.750000
v 14.250000 2.000000 3.750000
v 13.750000 2.000000 3.750000
v 14.250000 -3.500000 3.750000
v -14.250000 2.000000 3.750000
v -13.750000 -3.500000 3.750000
v -13.750000 2.000000 3.750000
v -14.250000 -3.500000 3.750000
v -13.750000 8.500000 3.750000
v -14.250000 3.000000 3.750000
v -13.750000 3.000000 3.750000
v -14.250000 8.500000 3.750000
v 1.250000 4.500000 5.750000
v -1.250000 5.000000 5.750000
v 1.250000 5.000000 5.750000
v -1.250000 4.500000 5.750000
v -4.250000 -1.000000 2.750000
v -4.750000 -1.000000 -0.000000
v -4.750000 -1.000000 2.750000
v -4.250000 -1.000000 -0.000000
v 13.750000 -4.500000 4.750000
v 13.750000 9.500000 5.750000
v 13.750000 -4.500000 5.750000
v 13.750000 9.500000 4.750000
v 13.750000 9.500000 4.750000
v 4.750000 9.500000 5.750000
v 13.750000 9.500000 5.750000
v 4.750000 9.500000 4.750000
v -4.250000 5.000000 5.750000
v -1.250000 5.000000 2.750000
v -1.250000 5.000000 5.750000
v 1.250000 5.000000 5.750000
v 4.250000 5.000000 5.750000
v 1.250000 5.000000 2.750000
v 4.250000 5.000000 2.750000
v 4.750000 9.500000 0.000000
v 4.750000 -1.000000 2.750000
v 4.750000 9.500000 4.250000
v 4.750000 -1.000000 -0.000000
v 4.750000 -4.500000 4.250000
v 4.750000 9.500000 4.250000
v 4.750000 -3.500000 2.750000
v 4.750000 -4.500000 -0.000000
v 4.750000 -3.500000 -0.000000
v 4.250000 4.500000 4.250000
v 4.250000 -1.000000 2.750000
v 4.250000 4.500000 0.000000
v 4.250000 -1.000000 -0.000000
v -14.250000 -5.000000 -5.000000
v -14.250000 -5.000000 -0.000000
v 14.250000 -5.000000 -5.000000
v 14.250000 -5.000000 5.750000
v -14.250000 -5.000000 2.750000
v -14.250000 -5.000000 5.750000
v -14.250000 -5.000000 -5.000000
v -14.250000 5.000000 -5.000000
v -14.250000 -1.000000 1.000000
v -14.250000 2.000000 1.000000
v -14.250000 5.000000 -5.000000
v -14.250000 3.000000 1.000000
v -14.250000 2.000000 1.000000
v -14.250000 2.000000 3.750000
v -14.250000 10.000000 0.000000
v -14.250000 8.500000 3.750000
v -14.250000 8.500000 1.000000
v -14.250000 10.000000 5.750000
v -14.250000 3.000000 3.750000
v -14.250000 2.000000 3.750000
v -14.250000 3.000000 1.000000
v -4.750000 9.500000 0.000000
v -4.750000 -1.000000 2.750000
v -4.750000 -1.000000 -0.000000
v -4.750000 9.500000 4.250000
v -4.250000 -1.000000 2.750000
v -4.250000 4.500000 0.000000
v -4.250000 -1.000000 -0.000000
v -4.250000 4.500000 4.250000
v 14.250000 4.500000 1.000000
v 14.250000 8.500000 1.000000
v 14.250000 4.500000 -5.000000
v 14.250000 10.000000 -5.000000
v 14.250000 10.000000 5.750000
v 14.250000 8.500000 3.750000
v 14.250000 2.000000 3.750000
v 14.250000 -5.000000 5.750000
v 14.250000 -3.500000 3.750000
v 14.250000 -5.000000 5.750000
v 14.250000 -3.500000 1.000000
v 14.250000 -5.000000 -5.000000
v 14.250000 -3.500000 3.750000
v 14.250000 4.500000 1.000000
v 14.250000 4.500000 -5.000000
v 14.250000 3.000000 1.000000
v 14.250000 2.000000 1.000000
v 14.250000 -4.500000 -5.000000
v 14.250000 -3.500000 1.000000
v 1.250000 4.500000 2.750000
v 4.250000 4.500000 0.000000
v 1.250000 4.500000 0.000000
v 4.250000 4.500000 4.250000
v 4.250000 10.000000 5.750000
v 13.750000 9.500000 5.750000
v 4.750000 9.500000 5.750000
v 14.250000 10.000000 5.750000
v 13.750000 -4.500000 5.750000
v 14.250000 -5.000000 5.750000
v -14.250000 -5.000000 5.750000
v -13.750000 -4.500000 5.750000
v -14.250000 10.000000 5.750000
v -13.750000 9.500000 5.750000
v -14.250000 10.000000 -5.000000
v -4.250000 10.000000 -5.000000
v -14.250000 10.000000 0.000000
v -4.250000 10.000000 5.750000
v -14.250000 10.000000 5.750000
v -4.250000 -4.500000 -0.000000
v 4.250000 -3.500000 -0.000000
v 4.250000 -4.500000 -0.000000
v -4.250000 -3.500000 -0.000000
v 4.250000 -1.000000 -0.000000
v 1.250000 4.500000 0.000000
v 4.250000 4.500000 0.000000
v -1.250000 4.500000 0.000000
v -1.250000 5.000000 0.000000
v -4.250000 -1.000000 -0.000000
v -4.250000 4.500000 0.000000
v -4.750000 -3.500000 -0.000000
v -4.250000 -1.000000 -0.000000
v -4.250000 -3.500000 -0.000000
v -4.750000 -1.000000 -0.000000
v 1.250000 5.000000 0.000000
v -4.250000 5.000000 -5.000000
v 4.250000 5.000000 -5.000000
v -1.250000 5.000000 0.000000
vt 0.138210833 0.783050001
vt 0.0882654786 0.733104646
vt 0.0882654786 0.783050001
vt 0.581162453 0.741729319
vt 0.631107807 0.741729319
vt 0.631107807 0.691783965
vt 0.858601511 0.771244109
vt 0.858601511 0.721298754
vt 0.908546865 0.771244109
vt 0.858601511 0.721298754
vt 0.908546865 0.721298754
vt 0.908546865 0.721298754
vt 0.858601511 0.771244109
vt 0.908546865 0.771244109
vt 0.858601511 0.721298754
vt 0.858601511 0.721298754
vt 0.908546865 0.771244109
vt 0.858601511 0.771244109
vt 0.631107807 0.741729319
vt 0.581162453 0.741729319
vt 0.581162453 0.741729319
vt 0.138210833 0.783050001
vt 0.0882654786 0.733104646
vt 0.0882654786 0.783050001
vt 0.138210833 0.733104646
vt 0.0882654786 0.733104646
vt 0.908546865 0.721298754
vt 0.858601511 0.721298754
vt 0.908546865 0.771244109
vt 0.858601511 0.771244109
vt 0.908546865 0.771244109
vt 0.138210833 0.733104646
vt 0.0882654786 0.733104646
vt 0.138210833 0.783050001
vt 0.0882654786 0.783050001
vt 0.138210833 0.783050001
vt 0.317005098 0.786001503
vt 0.336785674 0.73660183
vt 0.331820488 0.783842504
vt 0.331820488 0.783842504
vt 0.365728199 0.76874578
vt 0.360536098 0.77773881
vt 0.331820488 0.783842504
vt 0.141392112 0.316946149
vt 0.191337466 0.366891503
vt 0.191337466 0.316946149
vt 0.138210833 0.783050001
vt 0.0882654786 0.783050001
vt 0.138210833 0.783050001
vt 0.0882654786 0.733104646
vt 0.0882654786 0.783050001
vt 0.138210833 0.783050001
vt 0.0882654786 0.783050001
vt 0.0882654786 0.733104646
vt 0.138210833 0.783050001
vt 0.631107807 0.741729319
vt 0.631107807 0.691783965
vt 0.631107807 0.741729319
vt 0.631107807 0.741729319
vt 0.581162453 0.741729319
vt 0.858601511 0.771244109
vt 0.908546865 0.771244109
vt 0.858601511 0.721298754
vt 0.858601511 0.771244109
vt 0.908546865 0.721298754
vt 0.858601511 0.721298754
vt 0.0882654786 0.733104646
vt 0.0882654786 0.783050001
vt 0.138210833 0.783050001
vt 0.0882654786 0.733104646
vt 0.138210833 0.783050001
vt 0.0882654786 0.783050001
vt 0.0882654786 0.733104646
vt 0.0882654786 0.783050001
vt 0.138210833 0.783050001
vt 0.0882654786 0.783050001
vt 0.138210833 0.733104646
vt 0.0882654786 0.733104646
vt 0.908546865 0.771244109
vt 0.858601511 0.721298754
vt 0.858601511 0.771244109
vt 0.858601511 0.771244109
vt 0.908546865 0.721298754
vt 0.858601511 0.721298754
vt 0.581162453 0.691783965
vt 0.581162453 0.741729319
vt 0.631107807 0.741729319
vt 0.138210833 0.783050001
vt 0.138210833 0.733104646
vt 0.0882654786 0.783050001
vt 0.0882654786 0.733104646
vt 0.138210833 0.783050001
vt 0.0882654786 0.783050001
vt 0.0882654786 0.783050001
vt 0.0882654786 0.733104646
vt 0.138210833 0.733104646
vt 0.858601511 0.721298754
vt 0.908546865 0.721298754
vt 0.908546865 0.721298754
vt 0.858601511 0.771244109
vt 0.908546865 0.721298754
vt 0.858601511 0.721298754
vt 0.908546865 0.771244109
vt 0.858601511 0.721298754
vt 0.908546865 0.721298754
vt 0.858601511 0.771244109
vt 0.858601511 0.721298754
vt 0.908546865 0.721298754
vt 0.858601511 0.721298754
vt 0.908546865 0.721298754
vt 0.858601511 0.771244109
vt 0.858601511 0.721298754
vt 0.908546865 0.721298754
vt 0.858601511 0.721298754
vt 0.908546865 0.771244109
vt 0.858601511 0.771244109
vt 0.631107807 0.691783965
vt 0.581162453 0.691783965
vt 0.631107807 0.691783965
vt 0.0882654786 0.783050001
vt 0.138210833 0.733104646
vt 0.0882654786 0.733104646
vt 0.138210833 0.783050001
vt 0.138210833 0.733104646
vt 0.0882654786 0.783050001
vt 0.631107807 0.691783965
vt 0.631107807 0.741729319
vt 0.631107807 0.741729319
vt 0.908546865 0.771244109
vt 0.908546865 0.771244109
vt 0.858601511 0.721298754
vt 0.908546865 0.771244109
vt 0.908546865 0.721298754
vt 0.908546865 0.771244109
vt 0.858601511 0.771244109
vt 0.858601511 0.771244109
vt 0.858601511 0.721298754
vt 0.858601511 0.771244109
vt 0.908546865 0.771244109
vt 0.858601511 0.771244109
vt 0.858601511 0.771244109
vt 0.858601511 0.771244109
vt 0.858601511 0.721298754
vt 0.858601511 0.721298754
vt 0.908546865 0.721298754
vt 0.858601511 0.721298754
vt 0.858601511 0.721298754
vt 0.908546865 0.721298754
vt 0.858601511 0.771244109
vt 0.908546865 0.771244109
vt 0.858601511 0.721298754
vt 0.858601511 0.771244109
vt 0.908546865 0.721298754
vt 0.858601511 0.721298754
vt 0.858601511 0.771244109
vt 0.858601511 0.721298754
vt 0.908546865 0.771244109
vt 0.0882654786 0.783050001
vt 0.138210833 0.733104646
vt 0.0882654786 0.733104646
vt 0.138210833 0.783050001
vt 0.138210833 0.733104646
vt 0.0882654786 0.783050001
vt 0.0882654786 0.733104646
vt 0.138210833 0.733104646
vt 0.138210833 0.733104646
vt 0.0882654786 0.783050001
vt 0.0882654786 0.783050001
vt 0.138210833 0.733104646
vt 0.138210833 0.783050001
vt 0.0882654786 0.783050001
vt 0.138210833 0.733104646
vt 0.0882654786 0.733104646
vt 0.138210833 0.783050001
vt 0.0882654786 0.783050001
vt 0.138210833 0.783050001
vt 0.138210833 0.733104646
vt 0.0882654786 0.733104646
vt 0.0882654786 0.783050001
vt 0.0882654786 0.783050001
vt 0.0882654786 0.733104646
vt 0.138210833 0.733104646
vt 0.0882654786 0.733104646
vt 0.138210833 0.783050001
vt 0.0882654786 0.783050001
vt 0.631107807 0.741729319
vt 0.581162453 0.741729319
vt 0.581162453 0.741729319
vt 0.138210833 0.733104646
vt 0.138210833 0.783050001
vt 0.138210833 0.783050001
vt 0.0882654786 0.733104646
vt 0.138210833 0.783050001
vt 0.356656373 0.740825474
vt 0.317005098 0.786001503
vt 0.317141891 0.7584185
vt 0.317141891 0.7584185
vt 0.317005098 0.786001503
vt 0.318227351 0.76874584
vt 0.336785674 0.73660183
vt 0.317005098 0.786001503
vt 0.356656373 0.740825474
vt 0.191337466 0.316946149
vt 0.141392112 0.366891503
vt 0.141392112 0.316946149
vt 0.191337466 0.316946149
vt 0.141392112 0.366891503
vt 0.191337466 0.316946149
vt 0.141392112 0.366891503
vt 0.191337466 0.366891503
vt 0.141392112 0.316946149
vt 0.191337466 0.366891503
vt 0.191337466 0.316946149
vt 0.191337466 0.366891503
vt 0.141392112 0.366891503
vt 0.191337466 0.316946149
vt 0.191337466 0.316946149
vt 0.141392112 0.316946149
vt 0.141392112 0.366891503
vt 0.141392112 0.316946149
vt 0.191337466 0.366891503
vt 0.191337466 0.316946149
vt 0.141392112 0.366891503
vt 0.191337466 0.366891503
vt 0.141392112 0.366891503
vt 0.141392112 0.316946149
vt 0.141392112 0.366891503
vt 0.141392112 0.366891503
vt 0.141392112 0.316946149
vt 0.141392112 0.316946149
vt 0.141392112 0.366891503
vt 0.191337466 0.366891503
vt 0.191337466 0.366891503
vt 0.141392112 0.316946149
vt 0.191337466 0.316946149
vt 0.138210833 0.783050001
vt 0.138210833 0.733104646
vt 0.0882654786 0.783050001
vt 0.312541902 0.174141526
vt 0.332412541 0.169917881
vt 0.305593431 0.18185854
vt 0.350970864 0.202061832
vt 0.332412541 0.169917881
vt 0.332412541 0.169917881
vt 0.352056324 0.191734493
vt 0.138210833 0.733104646
vt 0.0882654786 0.783050001
vt 0.138210833 0.783050001
vt 0.0882654786 0.783050001
vt 0.0882654786 0.733104646
vt 0.138210833 0.783050001
vt 0.0882654786 0.783050001
vt 0.138210833 0.733104646
vt 0.138210833 0.783050001
vt 0.138210833 0.733104646
vt 0.0882654786 0.783050001
vt 0.138210833 0.783050001
vt 0.138210833 0.783050001
vt 0.0882654786 0.783050001
vt 0.0882654786 0.733104646
vt 0.0882654786 0.783050001
vt 0.138210833 0.783050001
vt 0.0882654786 0.733104646
vt 0.0882654786 0.733104646
vt 0.0882654786 0.783050001
vt 0.138210833 0.783050001
vt 0.0882654786 0.783050001
vt 0.908546865 0.771244109
vt 0.858601511 0.721298754
vt 0.858601511 0.771244109
vt 0.908546865 0.721298754
vt 0.631107807 0.741729319
vt 0.581162453 0.691783965
vt 0.581162453 0.741729319
vt 0.631107807 0.691783965
vt 0.138210833 0.733104646
vt 0.0882654786 0.783050001
vt 0.138210833 0.783050001
vt 0.0882654786 0.733104646
vt 0.631107807 0.741729319
vt 0.581162453 0.691783965
vt 0.581162453 0.741729319
vt 0.631107807 0.691783965
vt 0.631107807 0.691783965
vt 0.581162453 0.741729319
vt 0.631107807 0.741729319
vt 0.581162453 0.691783965
vt 0.631107807 0.691783965
vt 0.581162453 0.741729319
vt 0.631107807 0.741729319
vt 0.581162453 0.691783965
vt 0.631107807 0.741729319
vt 0.581162453 0.691783965
vt 0.581162453 0.741729319
vt 0.631107807 0.691783965
vt 0.858601511 0.771244109
vt 0.858601511 0.771244109
vt 0.908546865 0.771244109
vt 0.858601511 0.721298754
vt 0.858601511 0.721298754
vt 0.908546865 0.721298754
vt 0.631107807 0.741729319
vt 0.581162453 0.691783965
vt 0.581162453 0.741729319
vt 0.631107807 0.691783965
vt 0.581162453 0.741729319
vt 0.631107807 0.691783965
vt 0.581162453 0.691783965
vt 0.631107807 0.741729319
vt 0.138210833 0.733104646
vt 0.0882654786 0.783050001
vt 0.138210833 0.783050001
vt 0.0882654786 0.733104646
vt 0.858601511 0.771244109
vt 0.858601511 0.771244109
vt 0.908546865 0.771244109
vt 0.858601511 0.721298754
vt 0.858601511 0.721298754
vt 0.908546865 0.721298754
vt 0.631107807 0.691783965
vt 0.581162453 0.741729319
vt 0.631107807 0.741729319
vt 0.581162453 0.691783965
vt 0.908546865 0.771244109
vt 0.858601511 0.721298754
vt 0.858601511 0.771244109
vt 0.908546865 0.721298754
vt 0.631107807 0.691783965
vt 0.581162453 0.741729319
vt 0.631107807 0.741729319
vt 0.581162453 0.691783965
vt 0.908546865 0.771244109
vt 0.858601511 0.721298754
vt 0.858601511 0.771244109
vt 0.908546865 0.721298754
vt 0.631107807 0.691783965
vt 0.581162453 0.741729319
vt 0.631107807 0.741729319
vt 0.581162453 0.691783965
vt 0.908546865 0.771244109
vt 0.858601511 0.721298754
vt 0.858601511 0.771244109
vt 0.908546865 0.721298754
vt 0.138210833 0.733104646
vt 0.0882654786 0.783050001
vt 0.0882654786 0.783050001
vt 0.138210833 0.733104646
vt 0.631107807 0.741729319
vt 0.581162453 0.691783965
vt 0.581162453 0.741729319
vt 0.631107807 0.691783965
vt 0.908546865 0.771244109
vt 0.858601511 0.721298754
vt 0.858601511 0.771244109
vt 0.908546865 0.771244109
vt 0.908546865 0.721298754
vt 0.908546865 0.771244109
vt 0.908546865 0.771244109
vt 0.631107807 0.691783965
vt 0.581162453 0.691783965
vt 0.631107807 0.741729319
vt 0.581162453 0.741729319
vt 0.631107807 0.691783965
vt 0.581162453 0.741729319
vt 0.631107807 0.741729319
vt 0.581162453 0.691783965
vt 0.631107807 0.691783965
vt 0.581162453 0.741729319
vt 0.631107807 0.741729319
vt 0.581162453 0.691783965
vt 0.631107807 0.691783965
vt 0.581162453 0.741729319
vt 0.631107807 0.741729319
vt 0.581162453 0.691783965
vt 0.631107807 0.741729319
vt 0.581162453 0.691783965
vt 0.581162453 0.741729319
vt 0.631107807 0.691783965
vt 0.631107807 0.741729319
vt 0.581162453 0.691783965
vt 0.581162453 0.741729319
vt 0.631107807 0.691783965
vt 0.631107807 0.741729319
vt 0.631107807 0.691783965
vt 0.581162453 0.741729319
vt 0.581162453 0.691783965
vt 0.138210833 0.733104646
vt 0.0882654786 0.783050001
vt 0.138210833 0.783050001
vt 0.0882654786 0.733104646
vt 0.138210833 0.733104646
vt 0.0882654786 0.783050001
vt 0.138210833 0.783050001
vt 0.0882654786 0.733104646
vt 0.138210833 0.733104646
vt 0.0882654786 0.783050001
vt 0.138210833 0.783050001
vt 0.0882654786 0.733104646
vt 0.341899037 0.174141526
vt 0.303470016 0.202061892
vt 0.332412541 0.169917881
vt 0.308662117 0.211054862
vt 0.138210833 0.783050001
vt 0.138210833 0.783050001
vt 0.0882654786 0.783050001
vt 0.138210833 0.733104646
vt 0.138210833 0.783050001
vt 0.0882654786 0.733104646
vt 0.0882654786 0.783050001
vt 0.138210833 0.733104646
vt 0.350292206 0.203901529
vt 0.304148734 0.184788227
vt 0.32722044 0.169372201
vt 0.32722044 0.219317555
vt 0.631107807 0.691783965
vt 0.581162453 0.741729319
vt 0.631107807 0.741729319
vt 0.581162453 0.691783965
vt 0.631107807 0.691783965
vt 0.581162453 0.741729319
vt 0.631107807 0.741729319
vt 0.581162453 0.691783965
vt 0.631107807 0.691783965
vt 0.581162453 0.741729319
vt 0.631107807 0.741729319
vt 0.581162453 0.691783965
vt 0.631107807 0.691783965
vt 0.581162453 0.741729319
vt 0.631107807 0.741729319
vt 0.581162453 0.691783965
vt 0.138210833 0.733104646
vt 0.0882654786 0.783050001
vt 0.138210833 0.783050001
vt 0.0882654786 0.733104646
vt 0.631107807 0.741729319
vt 0.581162453 0.691783965
vt 0.581162453 0.741729319
vt 0.631107807 0.691783965
vt 0.138210833 0.733104646
vt 0.0882654786 0.783050001
vt 0.138210833 0.783050001
vt 0.0882654786 0.733104646
vt 0.138210833 0.733104646
vt 0.0882654786 0.783050001
vt 0.138210833 0.783050001
vt 0.0882654786 0.733104646
vt 0.138210833 0.783050001
vt 0.0882654786 0.783050001
vt 0.138210833 0.783050001
vt 0.138210833 0.783050001
vt 0.0882654786 0.783050001
vt 0.0882654786 0.733104646
vt 0.0882654786 0.733104646
vt 0.908546865 0.721298754
vt 0.858601511 0.771244109
vt 0.908546865 0.771244109
vt 0.858601511 0.721298754
vt 0.858601511 0.771244109
vt 0.908546865 0.771244109
vt 0.858601511 0.721298754
vt 0.858601511 0.721298754
vt 0.908546865 0.721298754
vt 0.858601511 0.771244109
vt 0.858601511 0.721298754
vt 0.858601511 0.721298754
vt 0.908546865 0.721298754
vt 0.0882654786 0.783050001
vt 0.138210833 0.783050001
vt 0.138210833 0.783050001
vt 0.138210833 0.783050001
vt 0.0882654786 0.783050001
vt 0.0882654786 0.783050001
vt 0.0882654786 0.783050001
vt 0.138210833 0.783050001
vt 0.138210833 0.783050001
vt 0.138210833 0.733104646
vt 0.138210833 0.783050001
vt 0.0882654786 0.783050001
vt 0.138210833 0.733104646
vt 0.0882654786 0.733104646
vt 0.0882654786 0.733104646
vt 0.0882654786 0.733104646
vt 0.138210833 0.733104646
vt 0.0882654786 0.783050001
vt 0.0882654786 0.783050001
vt 0.0882654786 0.733104646
vt 0.0882654786 0.783050001
vt 0.858601511 0.721298754
vt 0.858601511 0.721298754
vt 0.908546865 0.721298754
vt 0.858601511 0.771244109
vt 0.858601511 0.771244109
vt 0.908546865 0.721298754
vt 0.858601511 0.721298754
vt 0.908546865 0.771244109
vt 0.0882654786 0.783050001
vt 0.138210833 0.783050001
vt 0.138210833 0.783050001
vt 0.138210833 0.783050001
vt 0.138210833 0.783050001
vt 0.0882654786 0.783050001
vt 0.0882654786 0.783050001
vt 0.0882654786 0.783050001
vt 0.0882654786 0.733104646
vt 0.0882654786 0.783050001
vt 0.138210833 0.733104646
vt 0.138210833 0.783050001
vt 0.0882654786 0.733104646
vt 0.138210833 0.783050001
vt 0.0882654786 0.783050001
vt 0.138210833 0.783050001
vt 0.138210833 0.783050001
vt 0.138210833 0.783050001
vt 0.138210833 0.783050001
vt 0.858601511 0.771244109
vt 0.908546865 0.721298754
vt 0.858601511 0.721298754
vt 0.908546865 0.771244109
vt 0.0882654786 0.783050001
vt 0.0882654786 0.783050001
vt 0.0882654786 0.733104646
vt 0.138210833 0.783050001
vt 0.0882654786 0.783050001
vt 0.138210833 0.783050001
vt 0.0882654786 0.783050001
vt 0.0882654786 0.733104646
vt 0.0882654786 0.783050001
vt 0.0882654786 0.733104646
vt 0.138210833 0.783050001
vt 0.138210833 0.733104646
vt 0.138210833 0.733104646
vt 0.0882654786 0.783050001
vt 0.138210833 0.783050001
vt 0.141392112 0.366891503
vt 0.191337466 0.316946149
vt 0.141392112 0.316946149
vt 0.191337466 0.366891503
vt 0.141392112 0.316946149
vt 0.141392112 0.316946149
vt 0.191337466 0.316946149
vt 0.191337466 0.316946149
vt 0.191337466 0.366891503
vt 0.191337466 0.316946149
vt 0.191337466 0.366891503
vt 0.141392112 0.366891503
vt 0.191337466 0.316946149
vt 0.191337466 0.366891503
vt 0.141392112 0.316946149
vt 0.138210833 0.733104646
vt 0.0882654786 0.783050001
vt 0.138210833 0.783050001
vt 0.0882654786 0.733104646
vn -1.000000 0.000000 0.000000
vn -1.000000 0.000000 0.000000
vn -1.000000 0.000000 0.000000
vn 0.000000 -0.000000 1.000000
vn 0.000000 -0.000000 1.000000
vn 0.000000 -0.000000 1.000000
vn -1.000000 0.000000 0.000000
vn -1.000000 0.000000 0.000000
vn -1.000000 0.000000 0.000000
vn 0.000000 1.000000 0.000000
vn 0.000000 1.000000 0.000000
vn 0.000000 1.000000 0.000000
vn 0.000000 1.000000 0.000000
vn 0.000000 1.000000 0.000000
vn 0.000000 1.000000 0.000000
vn -1.000000 0.000000 0.000000
vn -1.000000 0.000000 0.000000
vn -1.000000 0.000000 0.000000
vn 0.000000 -0.000000 1.000000
vn 0.000000 -0.000000 1.000000
vn 0.000000 -0.000000 1.000000
vn 1.000000 0.000000 0.000000
vn 1.000000 0.000000 0.000000
vn 1.000000 0.000000 0.000000
vn 1.000000 0.000000 0.000000
vn 1.000000 0.000000 0.000000
vn -1.000000 0.000000 0.000000
vn -1.000000 0.000000 0.000000
vn -1.000000 0.000000 0.000000
vn -1.000000 0.000000 0.000000
vn -1.000000 0.000000 0.000000
vn 0.000000 -1.000000 -0.000000
vn 0.000000 -1.000000 -0.000000
vn 0.000000 -1.000000 -0.000000
vn 0.000000 -1.000000 -0.000000
vn 0.000000 -1.000000 -0.000000
vn 0.000000 -0.000000 1.000000
vn 0.000000 -0.000000 1.000000
vn 0.000000 -0.000000 1.000000
vn 0.000000 -0.000000 1.000000
vn 0.000000 -0.000000 1.000000
vn 0.000000 -0.000000 1.000000
vn 0.000000 -0.000000 1.000000
vn 0.000000 -0.000000 1.000000
vn 0.000000 -0.000000 1.000000
vn 0.000000 -0.000000 1.000000
vn 1.000000 0.000000 0.000000
vn 1.000000 0.000000 0.000000
vn 1.000000 0.000000 0.000000
vn -1.000000 0.000000 0.000000
vn -1.000000 0.000000 0.000000
vn -1.000000 0.000000 0.000000
vn -1.000000 0.000000 0.000000
vn -1.000000 0.000000 0.000000
vn -1.000000 0.000000 0.000000
vn 0.000000 -0.000000 1.000000
vn 0.000000 -0.000000 1.000000
vn 0.000000 -0.000000 1.000000
vn 0.000000 -0.000000 1.000000
vn 0.000000 -0.000000 1.000000
vn -1.000000 0.000000 0.000000
vn -1.000000 0.000000 0.000000
vn -1.000000 0.000000 0.000000
vn -1.000000 0.000000 0.000000
vn -1.000000 0.000000 0.000000
vn -1.000000 0.000000 0.000000
vn -1.000000 0.000000 0.000000
vn -1.000000 0.000000 0.000000
vn -1.000000 0.000000 0.000000
vn -1.000000 0.000000 0.000000
vn -1.000000 0.000000 0.000000
vn -1.000000 0.000000 0.000000
vn -1.000000 0.000000 0.000000
vn -1.000000 0.000000 0.000000
vn -1.000000 0.000000 0.000000
vn -1.000000 0.000000 0.000000
vn -1.000000 0.000000 0.000000
vn -1.000000 0.000000 0.000000
vn -1.000000 0.000000 0.000000
vn -1.000000 0.000000 0.000000
vn -1.000000 0.000000 0.000000
vn -1.000000 0.000000 0.000000
vn -1.000000 0.000000 0.000000
vn -1.000000 0.000000 0.000000
vn 0.000000 -0.000000 1.000000
vn 0.000000 -0.000000 1.000000
vn 0.000000 -0.000000 1.000000
vn 1.000000 0.000000 0.000000
vn 1.000000 0.000000 0.000000
vn 1.000000 0.000000 0.000000
vn 1.000000 0.000000 0.000000
vn 1.000000 0.000000 0.000000
vn 1.000000 0.000000 0.000000
vn 1.000000 0.000000 0.000000
vn 1.000000 0.000000 0.000000
vn 1.000000 0.000000 0.000000
vn -1.000000 0.000000 0.000000
vn -1.000000 0.000000 0.000000
vn -1.000000 0.000000 0.000000
vn -1.000000 0.000000 0.000000
vn -1.000000 0.000000 0.000000
vn -1.000000 0.000000 0.000000
vn -1.000000 0.000000 0.000000
vn -1.000000 0.000000 0.000000
vn -1.000000 0.000000 0.000000
vn -1.000000 0.000000 0.000000
vn -1.000000 0.000000 0.000000
vn -1.000000 0.000000 0.000000
vn -1.000000 0.000000 0.000000
vn -1.000000 0.000000 0.000000
vn -1.000000 0.000000 0.000000
vn -1.000000 0.000000 0.000000
vn -1.000000 0.000000 0.000000
vn -1.000000 0.000000 0.000000
vn -1.000000 0.000000 0.000000
vn -1.000000 0.000000 0.000000
vn 0.000000 1.000000 0.000000
vn 0.000000 1.000000 0.000000
vn 0.000000 1.000000 0.000000
vn -1.000000 0.000000 0.000000
vn -1.000000 0.000000 0.000000
vn -1.000000 0.000000 0.000000
vn -1.000000 0.000000 0.000000
vn -1.000000 0.000000 0.000000
vn -1.000000 0.000000 0.000000
vn 0.000000 -0.000000 1.000000
vn 0.000000 -0.000000 1.000000
vn 0.000000 -0.000000 1.000000
vn -1.000000 0.000000 0.000000
vn -1.000000 0.000000 0.000000
vn -1.000000 0.000000 0.000000
vn -1.000000 0.000000 0.000000
vn -1.000000 0.000000 0.000000
vn -1.000000 0.000000 0.000000
vn -1.000000 0.000000 0.000000
vn -1.000000 0.000000 0.000000
vn -1.000000 0.000000 0.000000
vn 1.000000 0.000000 0.000000
vn 1.000000 0.000000 0.000000
vn 1.000000 0.000000 0.000000
vn 1.000000 0.000000 0.000000
vn 1.000000 0.000000 0.000000
vn 1.000000 0.000000 0.000000
vn 1.000000 0.000000 0.000000
vn 1.000000 0.000000 0.000000
vn 1.000000 0.000000 0.000000
vn 1.000000 0.000000 0.000000
vn 1.000000 0.000000 0.000000
vn 1.000000 0.000000 0.000000
vn 1.000000 0.000000 0.000000
vn 1.000000 0.000000 0.000000
vn 1.000000 0.000000 0.000000
vn 1.000000 0.000000 0.000000
vn 1.000000 0.000000 0.000000
vn 1.000000 0.000000 0.000000
vn 1.000000 0.000000 0.000000
vn 1.000000 0.000000 0.000000
vn 0.000000 -0.000000 1.000000
vn 0.000000 -0.000000 1.000000
vn 0.000000 -0.000000 1.000000
vn 0.000000 -0.000000 1.000000
vn 0.000000 -0.000000 1.000000
vn 0.000000 -0.000000 1.000000
vn 0.000000 -0.000000 1.000000
vn 0.000000 -0.000000 1.000000
vn 0.000000 -0.000000 1.000000
vn 0.000000 -0.000000 1.000000
vn 0.000000 -0.000000 1.000000
vn 0.000000 -0.000000 1.000000
vn 0.000000 -0.000000 1.000000
vn 0.000000 -0.000000 1.000000
vn 0.000000 -0.000000 1.000000
vn 0.000000 -0.000000 1.000000
vn 0.000000 -0.000000 1.000000
vn 0.000000 -0.000000 1.000000
vn 0.000000 -0.000000 1.000000
vn 0.000000 -0.000000 1.000000
vn 0.000000 -0.000000 1.000000
vn 0.000000 -0.000000 1.000000
vn 0.000000 -0.000000 1.000000
vn 0.000000 -0.000000 1.000000
vn 0.000000 -0.000000 1.000000
vn 0.000000 -0.000000 1.000000
vn 0.000000 -0.000000 1.000000
vn 0.000000 -0.000000 1.000000
vn -1.000000 0.000000 0.000000
vn -1.000000 0.000000 0.000000
vn -1.000000 0.000000 0.000000
vn 0.000000 -1.000000 -0.000000
vn 0.000000 -1.000000 -0.000000
vn 0.000000 -1.000000 -0.000000
vn 0.000000 -1.000000 -0.000000
vn 0.000000 -1.000000 -0.000000
vn 0.000000 -0.000000 1.000000
vn 0.000000 -0.000000 1.000000
vn 0.000000 -0.000000 1.000000
vn 0.000000 -0.000000 1.000000
vn 0.000000 -0.000000 1.000000
vn 0.000000 -0.000000 1.000000
vn 0.000000 -0.000000 1.000000
vn 0.000000 -0.000000 1.000000
vn 0.000000 -0.000000 1.000000
vn 0.000000 -0.000000 1.000000
vn 0.000000 -0.000000 1.000000
vn 0.000000 -0.000000 1.000000
vn 0.000000 -0.000000 1.000000
vn 0.000000 -0.000000 1.000000
vn 0.000000 -0.000000 1.000000
vn 0.000000 -0.000000 1.000000
vn 0.000000 -0.000000 1.000000
vn 0.000000 -0.000000 1.000000
vn 0.000000 -0.000000 1.000000
vn 0.000000 -0.000000 1.000000
vn 0.000000 -0.000000 1.000000
vn 0.000000 -0.000000 1.000000
vn 0.000000 -0.000000 1.000000
vn 0.000000 -0.000000 1.000000
vn 0.000000 -0.000000 1.000000
vn 0.000000 -0.000000 1.000000
vn 0.000000 -0.000000 1.000000
vn 0.000000 -0.000000 1.000000
vn 0.000000 -0.000000 1.000000
vn 0.000000 -0.000000 1.000000
vn 0.000000 -0.000000 1.000000
vn 0.000000 -0.000000 1.000000
vn 0.000000 -0.000000 1.000000
vn 0.000000 -0.000000 1.000000
vn 0.000000 -0.000000 1.000000
vn 0.000000 -0.000000 1.000000
vn 0.000000 -0.000000 1.000000
vn 0.000000 -0.000000 1.000000
vn 0.000000 -0.000000 1.000000
vn 0.000000 -0.000000 1.000000
vn 0.000000 -0.000000 1.000000
vn 0.000000 -0.000000 1.000000
vn -1.000000 0.000000 0.000000
vn -1.000000 0.000000 0.000000
vn -1.000000 0.000000 0.000000
vn 0.000000 0.000000 -1.000000
vn 0.000000 0.000000 -1.000000
vn 0.000000 0.000000 -1.000000
vn 0.000000 0.000000 -1.000000
vn 0.000000 0.000000 -1.000000
vn 0.000000 0.000000 -1.000000
vn 0.000000 0.000000 -1.000000
vn 1.000000 0.000000 0.000000
vn 1.000000 0.000000 0.000000
vn 1.000000 0.000000 0.000000
vn 0.000000 1.000000 0.000000
vn 0.000000 1.000000 0.000000
vn 0.000000 1.000000 0.000000
vn 0.000000 1.000000 0.000000
vn 0.000000 1.000000 0.000000
vn 0.000000 1.000000 0.000000
vn 0.000000 1.000000 0.000000
vn 0.000000 1.000000 0.000000
vn 0.000000 1.000000 0.000000
vn 0.000000 1.000000 0.000000
vn 0.000000 1.000000 0.000000
vn 0.000000 1.000000 0.000000
vn 0.000000 1.000000 0.000000
vn 0.000000 1.000000 0.000000
vn 0.000000 1.000000 0.000000
vn 0.000000 1.000000 0.000000
vn 0.000000 1.000000 0.000000
vn 0.000000 1.000000 0.000000
vn 0.000000 1.000000 0.000000
vn 0.000000 1.000000 0.000000
vn 0.000000 1.000000 0.000000
vn 0.000000 1.000000 0.000000
vn 0.000000 1.000000 0.000000
vn 0.000000 1.000000 0.000000
vn 0.000000 1.000000 0.000000
vn 0.000000 1.000000 0.000000
vn 0.000000 1.000000 0.000000
vn 1.000000 0.000000 0.000000
vn 1.000000 0.000000 0.000000
vn 1.000000 0.000000 0.000000
vn 1.000000 0.000000 0.000000
vn 0.000000 -1.000000 -0.000000
vn 0.000000 -1.000000 -0.000000
vn 0.000000 -1.000000 -0.000000
vn 0.000000 -1.000000 -0.000000
vn 0.000000 1.000000 0.000000
vn 0.000000 1.000000 0.000000
vn 0.000000 1.000000 0.000000
vn 0.000000 1.000000 0.000000
vn 0.000000 -0.000000 1.000000
vn 0.000000 -0.000000 1.000000
vn 0.000000 -0.000000 1.000000
vn 0.000000 -0.000000 1.000000
vn 0.000000 -1.000000 -0.000000
vn 0.000000 -1.000000 -0.000000
vn 0.000000 -1.000000 -0.000000
vn 0.000000 -1.000000 -0.000000
vn 1.000000 0.000000 0.000000
vn 1.000000 0.000000 0.000000
vn 1.000000 0.000000 0.000000
vn 1.000000 0.000000 0.000000
vn 1.000000 0.000000 0.000000
vn 1.000000 0.000000 0.000000
vn 0.000000 1.000000 0.000000
vn 0.000000 1.000000 0.000000
vn 0.000000 1.000000 0.000000
vn 0.000000 1.000000 0.000000
vn 0.000000 -1.000000 -0.000000
vn 0.000000 -1.000000 -0.000000
vn 0.000000 -1.000000 -0.000000
vn 0.000000 -1.000000 -0.000000
vn 0.000000 1.000000 0.000000
vn 0.000000 1.000000 0.000000
vn 0.000000 1.000000 0.000000
vn 0.000000 1.000000 0.000000
vn 0.000000 -1.000000 -0.000000
vn 0.000000 -1.000000 -0.000000
vn 0.000000 -1.000000 -0.000000
vn 0.000000 -1.000000 -0.000000
vn 0.000000 -1.000000 -0.000000
vn 0.000000 -1.000000 -0.000000
vn 0.000000 1.000000 0.000000
vn 0.000000 1.000000 0.000000
vn 0.000000 1.000000 0.000000
vn 0.000000 1.000000 0.000000
vn 0.000000 -1.000000 -0.000000
vn 0.000000 -1.000000 -0.000000
vn 0.000000 -1.000000 -0.000000
vn 0.000000 -1.000000 -0.000000
vn 0.000000 1.000000 0.000000
vn 0.000000 1.000000 0.000000
vn 0.000000 1.000000 0.000000
vn 0.000000 1.000000 0.000000
vn 0.000000 -1.000000 -0.000000
vn 0.000000 -1.000000 -0.000000
vn 0.000000 -1.000000 -0.000000
vn 0.000000 -1.000000 -0.000000
vn 0.000000 -1.000000 -0.000000
vn 0.000000 -1.000000 -0.000000
vn 0.000000 -1.000000 -0.000000
vn 0.000000 -1.000000 -0.000000
vn 0.000000 1.000000 0.000000
vn 0.000000 1.000000 0.000000
vn 0.000000 1.000000 0.000000
vn 0.000000 1.000000 0.000000
vn -1.000000 0.000000 0.000000
vn -1.000000 0.000000 0.000000
vn -1.000000 0.000000 0.000000
vn -1.000000 0.000000 0.000000
vn 0.000000 1.000000 0.000000
vn 0.000000 1.000000 0.000000
vn 0.000000 1.000000 0.000000
vn 0.000000 1.000000 0.000000
vn 1.000000 0.000000 0.000000
vn 1.000000 0.000000 0.000000
vn 1.000000 0.000000 0.000000
vn 1.000000 0.000000 0.000000
vn 1.000000 0.000000 0.000000
vn 1.000000 0.000000 0.000000
vn 1.000000 0.000000 0.000000
vn 0.000000 -0.000000 1.000000
vn 0.000000 -0.000000 1.000000
vn 0.000000 -0.000000 1.000000
vn 0.000000 -0.000000 1.000000
vn 0.000000 0.000000 -1.000000
vn 0.000000 0.000000 -1.000000
vn 0.000000 0.000000 -1.000000
vn 0.000000 0.000000 -1.000000
vn 0.000000 0.000000 -1.000000
vn 0.000000 0.000000 -1.000000
vn 0.000000 0.000000 -1.000000
vn 0.000000 0.000000 -1.000000
vn 0.000000 0.000000 -1.000000
vn 0.000000 0.000000 -1.000000
vn 0.000000 0.000000 -1.000000
vn 0.000000 0.000000 -1.000000
vn 0.000000 -1.000000 -0.000000
vn 0.000000 -1.000000 -0.000000
vn 0.000000 -1.000000 -0.000000
vn 0.000000 -1.000000 -0.000000
vn 1.000000 0.000000 0.000000
vn 1.000000 0.000000 0.000000
vn 1.000000 0.000000 0.000000
vn 1.000000 0.000000 0.000000
vn -1.000000 0.000000 0.000000
vn -1.000000 0.000000 0.000000
vn -1.000000 0.000000 0.000000
vn -1.000000 0.000000 0.000000
vn 0.000000 -1.000000 -0.000000
vn 0.000000 -1.000000 -0.000000
vn 0.000000 -1.000000 -0.000000
vn 0.000000 -1.000000 -0.000000
vn 0.000000 1.000000 0.000000
vn 0.000000 1.000000 0.000000
vn 0.000000 1.000000 0.000000
vn 0.000000 1.000000 0.000000
vn 1.000000 0.000000 0.000000
vn 1.000000 0.000000 0.000000
vn 1.000000 0.000000 0.000000
vn 1.000000 0.000000 0.000000
vn 0.000000 0.000000 -1.000000
vn 0.000000 0.000000 -1.000000
vn 0.000000 0.000000 -1.000000
vn 0.000000 0.000000 -1.000000
vn -1.000000 0.000000 0.000000
vn -1.000000 0.000000 0.000000
vn -1.000000 0.000000 0.000000
vn -1.000000 0.000000 0.000000
vn -1.000000 0.000000 0.000000
vn -1.000000 0.000000 0.000000
vn -1.000000 0.000000 0.000000
vn -1.000000 0.000000 0.000000
vn 0.000000 0.000000 -1.000000
vn 0.000000 0.000000 -1.000000
vn 0.000000 0.000000 -1.000000
vn 0.000000 0.000000 -1.000000
vn 0.000000 0.000000 -1.000000
vn 0.000000 0.000000 -1.000000
vn 0.000000 0.000000 -1.000000
vn 0.000000 0.000000 -1.000000
vn 0.000000 0.000000 -1.000000
vn 0.000000 0.000000 -1.000000
vn 0.000000 0.000000 -1.000000
vn 0.000000 0.000000 -1.000000
vn 0.000000 0.000000 -1.000000
vn 0.000000 0.000000 -1.000000
vn 0.000000 0.000000 -1.000000
vn 0.000000 0.000000 -1.000000
vn 0.000000 0.000000 -1.000000
vn 0.000000 0.000000 -1.000000
vn 0.000000 0.000000 -1.000000
vn 0.000000 0.000000 -1.000000
vn 0.000000 -0.000000 1.000000
vn 0.000000 -0.000000 1.000000
vn 0.000000 -0.000000 1.000000
vn 0.000000 -0.000000 1.000000
vn 0.000000 -1.000000 -0.000000
vn 0.000000 -1.000000 -0.000000
vn 0.000000 -1.000000 -0.000000
vn 0.000000 -1.000000 -0.000000
vn -1.000000 0.000000 0.000000
vn -1.000000 0.000000 0.000000
vn -1.000000 0.000000 0.000000
vn -1.000000 0.000000 0.000000
vn 0.000000 -1.000000 -0.000000
vn 0.000000 -1.000000 -0.000000
vn 0.000000 -1.000000 -0.000000
vn 0.000000 -1.000000 -0.000000
vn 0.000000 1.000000 0.000000
vn 0.000000 1.000000 0.000000
vn 0.000000 1.000000 0.000000
vn 0.000000 1.000000 0.000000
vn 0.000000 1.000000 0.000000
vn 0.000000 1.000000 0.000000
vn 0.000000 1.000000 0.000000
vn 1.000000 0.000000 0.000000
vn 1.000000 0.000000 0.000000
vn 1.000000 0.000000 0.000000
vn 1.000000 0.000000 0.000000
vn 1.000000 0.000000 0.000000
vn 1.000000 0.000000 0.000000
vn 1.000000 0.000000 0.000000
vn 1.000000 0.000000 0.000000
vn 1.000000 0.000000 0.000000
vn -1.000000 0.000000 0.000000
vn -1.000000 0.000000 0.000000
vn -1.000000 0.000000 0.000000
vn -1.000000 0.000000 0.000000
vn 0.000000 -1.000000 -0.000000
vn 0.000000 -1.000000 -0.000000
vn 0.000000 -1.000000 -0.000000
vn 0.000000 -1.000000 -0.000000
vn 0.000000 -1.000000 -0.000000
vn 0.000000 -1.000000 -0.000000
vn -1.000000 0.000000 0.000000
vn -1.000000 0.000000 0.000000
vn -1.000000 0.000000 0.000000
vn -1.000000 0.000000 0.000000
vn -1.000000 0.000000 0.000000
vn -1.000000 0.000000 0.000000
vn -1.000000 0.000000 0.000000
vn -1.000000 0.000000 0.000000
vn -1.000000 0.000000 0.000000
vn -1.000000 0.000000 0.000000
vn -1.000000 0.000000 0.000000
vn -1.000000 0.000000 0.000000
vn -1.000000 0.000000 0.000000
vn -1.000000 0.000000 0.000000
vn -1.000000 0.000000 0.000000
vn -1.000000 0.000000 0.000000
vn -1.000000 0.000000 0.000000
vn -1.000000 0.000000 0.000000
vn -1.000000 0.000000 0.000000
vn 1.000000 0.000000 0.000000
vn 1.000000 0.000000 0.000000
vn 1.000000 0.000000 0.000000
vn 1.000000 0.000000 0.000000
vn 1.000000 0.000000 0.000000
vn 1.000000 0.000000 0.000000
vn 1.000000 0.000000 0.000000
vn 1.000000 0.000000 0.000000
vn 1.000000 0.000000 0.000000
vn 1.000000 0.000000 0.000000
vn 1.000000 0.000000 0.000000
vn 1.000000 0.000000 0.000000
vn 1.000000 0.000000 0.000000
vn 1.000000 0.000000 0.000000
vn 1.000000 0.000000 0.000000
vn 1.000000 0.000000 0.000000
vn 1.000000 0.000000 0.000000
vn 1.000000 0.000000 0.000000
vn 1.000000 0.000000 0.000000
vn 1.000000 0.000000 0.000000
vn 1.000000 0.000000 0.000000
vn 1.000000 0.000000 0.000000
vn 1.000000 0.000000 0.000000
vn 0.000000 -1.000000 -0.000000
vn 0.000000 -1.000000 -0.000000
vn 0.000000 -1.000000 -0.000000
vn 0.000000 -1.000000 -0.000000
vn 0.000000 -0.000000 1.000000
vn 0.000000 -0.000000 1.000000
vn 0.000000 -0.000000 1.000000
vn 0.000000 -0.000000 1.000000
vn 0.000000 -0.000000 1.000000
vn 0.000000 -0.000000 1.000000
vn 0.000000 -0.000000 1.000000
vn 0.000000 -0.000000 1.000000
vn 0.000000 -0.000000 1.000000
vn 0.000000 -0.000000 1.000000
vn 0.000000 1.000000 0.000000
vn 0.000000 1.000000 0.000000
vn 0.000000 1.000000 0.000000
vn 0.000000 1.000000 0.000000
vn 0.000000 1.000000 0.000000
vn 0.000000 -0.000000 1.000000
vn 0.000000 -0.000000 1.000000
vn 0.000000 -0.000000 1.000000
vn 0.000000 -0.000000 1.000000
vn 0.000000 -0.000000 1.000000
vn 0.000000 -0.000000 1.000000
vn 0.000000 -0.000000 1.000000
vn 0.000000 -0.000000 1.000000
vn 0.000000 -0.000000 1.000000
vn 0.000000 -0.000000 1.000000
vn 0.000000 -0.000000 1.000000
vn 0.000000 -0.000000 1.000000
vn 0.000000 -0.000000 1.000000
vn 0.000000 -0.000000 1.000000
vn 0.000000 -0.000000 1.000000
vn 0.000000 1.000000 0.000000
vn 0.000000 1.000000 0.000000
vn 0.000000 1.000000 0.000000
vn 0.000000 1.000000 0.000000
f 3/3/3 2/2/2 1/1/1
f 6/6/6 5/5/5 4/4/4
f 9/9/9 8/8/8 7/7/7
f 12/12/12 11/11/11 10/10/10
f 14/14/14 13/13/13 11/11/11
f 15/15/15 11/11/11 13/13/13
f 18/18/18 17/17/17 16/16/16
f 21/21/21 20/20/20 19/19/19
f 24/24/24 23/23/23 22/22/22
f 26/26/26 25/25/25 24/24/24
f 29/29/29 28/28/28 27/27/27
f 28/28/28 31/31/31 30/30/30
f 34/34/34 33/33/33 32/32/32
f 33/33/33 36/36/36 35/35/35
f 39/39/39 38/38/38 37/37/37
f 41/41/41 38/38/38 40/40/40
f 41/41/41 43/43/43 42/42/42
f 46/46/46 45/45/45 44/44/44
f 49/49/49 48/48/48 47/47/47
f 52/52/52 51/51/51 50/50/50
f 55/55/55 54/54/54 53/53/53
f 58/58/58 57/57/57 56/56/56
f 60/60/60 58/58/58 59/59/59
f 63/63/63 62/62/62 61/61/61
f 65/65/65 62/62/62 64/64/64
f 66/66/66 65/65/65 64/64/64
f 69/69/69 68/68/68 67/67/67
f 72/72/72 71/71/71 70/70/70
f 75/75/75 74/74/74 73/73/73
f 77/77/77 75/75/75 76/76/76
f 78/78/78 77/77/77 76/76/76
f 81/81/81 80/80/80 79/79/79
f 83/83/83 79/79/79 82/82/82
f 84/84/84 83/83/83 82/82/82
f 87/87/87 86/86/86 85/85/85
f 90/90/90 89/89/89 88/88/88
f 93/93/93 92/92/92 91/91/91
f 96/96/96 95/95/95 94/94/94
f 99/99/99 98/98/98 97/97/97
f 102/102/102 101/101/101 100/100/100
f 100/100/100 104/104/104 103/103/103
f 103/103/103 106/106/106 105/105/105
f 107/107/107 105/105/105 106/106/106
f 110/110/110 109/109/109 108/108/108
f 113/113/113 112/112/112 111/111/111
f 116/116/116 115/115/115 114/114/114
f 119/119/119 118/118/118 117/117/117
f 122/122/122 121/121/121 120/120/120
f 125/125/125 124/124/124 123/123/123
f 128/128/128 127/127/127 126/126/126
f 131/131/131 130/130/130 129/129/129
f 130/130/130 133/133/133 132/132/132
f 134/134/134 132/132/132 133/133/133
f 135/135/135 132/132/132 134/134/134
f 136/136/136 135/135/135 134/134/134
f 137/137/137 135/135/135 136/136/136
f 140/140/140 139/139/139 138/138/138
f 142/142/142 141/141/141 139/139/139
f 141/141/141 142/142/142 143/143/143
f 144/144/144 143/143/143 142/142/142
f 145/145/145 143/143/143 144/144/144
f 147/147/147 146/146/146 141/141/141
f 148/148/148 146/146/146 147/147/147
f 151/151/151 150/150/150 149/149/149
f 153/153/153 150/150/150 152/152/152
f 154/154/154 153/153/153 152/152/152
f 157/157/157 156/156/156 155/155/155
f 160/160/160 159/159/159 158/158/158
f 163/163/163 162/162/162 161/161/161
f 166/166/166 165/165/165 164/164/164
f 168/168/168 165/165/165 167/167/167
f 171/171/171 170/170/170 169/169/169
f 174/174/174 173/173/173 172/172/172
f 177/177/177 176/176/176 175/175/175
f 176/176/176 179/179/179 178/178/178
f 182/182/182 181/181/181 180/180/180
f 185/185/185 184/184/184 183/183/183
f 188/188/188 187/187/187 186/186/186
f 191/191/191 190/190/190 189/189/189
f 193/193/193 192/192/192 190/190/190
f 196/196/196 195/195/195 194/194/194
f 199/199/199 198/198/198 197/197/197
f 202/202/202 201/201/201 200/200/200
f 205/205/205 204/204/204 203/203/203
f 207/207/207 204/204/204 206/206/206
f 210/210/210 209/209/209 208/208/208
f 213/213/213 212/212/212 211/211/211
f 216/216/216 215/215/215 214/214/214
f 219/219/219 218/218/218 217/217/217
f 221/221/221 219/219/219 220/220/220
f 222/222/222 221/221/221 220/220/220
f 225/225/225 224/224/224 223/223/223
f 225/225/225 227/227/227 226/226/226
f 227/227/227 228/228/228 226/226/226
f 229/229/229 228/228/228 227/227/227
f 232/232/232 231/231/231 230/230/230
f 235/235/235 234/234/234 233/233/233
f 238/238/238 237/237/237 236/236/236
f 241/241/241 240/240/240 239/239/239
f 243/243/243 241/241/241 242/242/242
f 245/245/245 244/244/244 242/242/242
f 248/248/248 247/247/247 246/246/246
f 251/251/251 250/250/250 249/249/249
f 254/254/254 253/253/253 252/252/252
f 257/257/257 256/256/256 255/255/255
f 260/260/260 259/259/259 258/258/258
f 263/263/263 262/262/262 261/261/261
f 266/266/266 265/265/265 264/264/264
f 264/264/264 265/265/265 267/267/267
f 270/270/270 269/269/269 268/268/268
f 268/268/268 269/269/269 271/271/271
f 274/274/274 273/273/273 272/272/272
f 272/272/272 273/273/273 275/275/275
f 278/278/278 277/277/277 276/276/276
f 276/276/276 277/277/277 279/279/279
f 282/282/282 281/281/281 280/280/280
f 280/280/280 281/281/281 283/283/283
f 286/286/286 285/285/285 284/284/284
f 284/284/284 285/285/285 287/287/287
f 290/290/290 289/289/289 288/288/288
f 288/288/288 289/289/289 291/291/291
f 294/294/294 293/293/293 292/292/292
f 292/292/292 293/293/293 295/295/295
f 298/298/298 297/297/297 296/296/296
f 296/296/296 297/297/297 299/299/299
f 300/300/300 299/299/299 297/297/297
f 301/301/301 299/299/299 300/300/300
f 304/304/304 303/303/303 302/302/302
f 302/302/302 303/303/303 305/305/305
f 308/308/308 307/307/307 306/306/306
f 306/306/306 307/307/307 309/309/309
f 312/312/312 311/311/311 310/310/310
f 310/310/310 311/311/311 313/313/313
f 316/316/316 315/315/315 314/314/314
f 317/317/317 314/314/314 315/315/315
f 318/318/318 317/317/317 315/315/315
f 319/319/319 317/317/317 318/318/318
f 322/322/322 321/321/321 320/320/320
f 320/320/320 321/321/321 323/323/323
f 326/326/326 325/325/325 324/324/324
f 324/324/324 325/325/325 327/327/327
f 330/330/330 329/329/329 328/328/328
f 331/331/331 328/328/328 329/329/329
f 334/334/334 333/333/333 332/332/332
f 332/332/332 333/333/333 335/335/335
f 338/338/338 337/337/337 336/336/336
f 336/336/336 337/337/337 339/339/339
f 342/342/342 341/341/341 340/340/340
f 340/340/340 341/341/341 343/343/343
f 346/346/346 345/345/345 344/344/344
f 347/347/347 346/346/346 344/344/344
f 350/350/350 349/349/349 348/348/348
f 348/348/348 349/349/349 351/351/351
f 354/354/354 353/353/353 352/352/352
f 352/352/352 353/353/353 355/355/355
f 356/356/356 355/355/355 353/353/353
f 357/357/357 355/355/355 356/356/356
f 357/357/357 356/356/356 358/358/358
f 361/361/361 360/360/360 359/359/359
f 360/360/360 361/361/361 362/362/362
f 365/365/365 364/364/364 363/363/363
f 363/363/363 364/364/364 366/366/366
f 369/369/369 368/368/368 367/367/367
f 367/367/367 368/368/368 370/370/370
f 373/373/373 372/372/372 371/371/371
f 371/371/371 372/372/372 374/374/374
f 377/377/377 376/376/376 375/375/375
f 375/375/375 376/376/376 378/378/378
f 381/381/381 380/380/380 379/379/379
f 379/379/379 380/380/380 382/382/382
f 385/385/385 384/384/384 383/383/383
f 384/384/384 385/385/385 386/386/386
f 389/389/389 388/388/388 387/387/387
f 387/387/387 388/388/388 390/390/390
f 393/393/393 392/392/392 391/391/391
f 391/391/391 392/392/392 394/394/394
f 397/397/397 396/396/396 395/395/395
f 395/395/395 396/396/396 398/398/398
f 401/401/401 400/400/400 399/399/399
f 399/399/399 400/400/400 402/402/402
f 405/405/405 404/404/404 403/403/403
f 403/403/403 404/404/404 406/406/406
f 409/409/409 408/408/408 407/407/407
f 407/407/407 408/408/408 410/410/410
f 413/413/413 412/412/412 411/411/411
f 411/411/411 412/412/412 414/414/414
f 417/417/417 416/416/416 415/415/415
f 415/415/415 416/416/416 418/418/418
f 421/421/421 420/420/420 419/419/419
f 419/419/419 420/420/420 422/422/422
f 425/425/425 424/424/424 423/423/423
f 423/423/423 424/424/424 426/426/426
f 429/429/429 428/428/428 427/427/427
f 427/427/427 428/428/428 430/430/430
f 433/433/433 432/432/432 431/431/431
f 431/431/431 432/432/432 434/434/434
f 437/437/437 436/436/436 435/435/435
f 435/435/435 436/436/436 438/438/438
f 441/441/441 440/440/440 439/439/439
f 439/439/439 440/440/440 442/442/442
f 445/445/445 444/444/444 443/443/443
f 443/443/443 444/444/444 446/446/446
f 449/449/449 448/448/448 447/447/447
f 450/450/450 448/448/448 449/449/449
f 452/452/452 450/450/450 451/451/451
f 452/452/452 451/451/451 453/453/453
f 456/456/456 455/455/455 454/454/454
f 457/457/457 454/454/454 455/455/455
f 459/459/459 458/458/458 455/455/455
f 460/460/460 455/455/455 458/458/458
f 461/461/461 460/460/460 458/458/458
f 462/462/462 460/460/460 461/461/461
f 465/465/465 464/464/464 463/463/463
f 466/466/466 464/464/464 465/465/465
f 469/469/469 468/468/468 467/467/467
f 468/468/468 469/469/469 470/470/470
f 468/468/468 470/470/470 471/471/471
f 472/472/472 471/471/471 470/470/470
f 475/475/475 474/474/474 473/473/473
f 475/475/475 476/476/476 474/474/474
f 479/479/479 478/478/478 477/477/477
f 479/479/479 480/480/480 478/478/478
f 483/483/483 482/482/482 481/481/481
f 481/481/481 482/482/482 484/484/484
f 482/482/482 485/485/485 484/484/484
f 484/484/484 485/485/485 486/486/486
f 487/487/487 486/486/486 485/485/485
f 490/490/490 489/489/489 488/488/488
f 488/488/488 489/489/489 491/491/491
f 494/494/494 493/493/493 492/492/492
f 493/493/493 495/495/495 492/492/492
f 498/498/498 497/497/497 496/496/496
f 498/498/498 499/499/499 497/497/497
f 499/499/499 500/500/500 497/497/497
f 497/497/497 500/500/500 501/501/501
f 503/503/503 502/502/502 500/500/500
f 504/504/504 502/502/502 503/503/503
f 507/507/507 506/506/506 505/505/505
f 506/506/506 508/508/508 505/505/505
f 511/511/511 510/510/510 509/509/509
f 510/510/510 511/511/511 512/512/512
f 510/510/510 512/512/512 513/513/513
f 514/514/514 513/513/513 512/512/512
f 517/517/517 516/516/516 515/515/515
f 516/516/516 518/518/518 515/515/515
f 521/521/521 520/520/520 519/519/519
f 519/519/519 520/520/520 522/522/522
f 520/520/520 523/523/523 522/522/522
f 522/522/522 523/523/523 524/524/524
f 525/525/525 524/524/524 523/523/523
f 526/526/526 525/525/525 523/523/523
f 527/527/527 525/525/525 526/526/526
f 528/528/528 527/527/527 526/526/526
f 531/531/531 530/530/530 529/529/529
f 530/530/530 531/531/531 532/532/532
f 532/532/532 531/531/531 533/533/533
f 536/536/536 535/535/535 534/534/534
f 534/534/534 535/535/535 537/537/537
f 540/540/540 539/539/539 538/538/538
f 539/539/539 541/541/541 538/538/538
f 542/542/542 541/541/541 539/539/539
f 541/541/541 543/543/543 538/538/538
f 544/544/544 543/543/543 541/541/541
f 547/547/547 546/546/546 545/545/545
f 548/548/548 545/545/545 546/546/546
f 551/551/551 550/550/550 549/549/549
f 549/549/549 550/550/550 552/552/552
