v -0.467457 0.155819 0.051940
v -0.467457 0.155819 -0.051940
v 0.467457 0.155819 -0.051940
v 0.467457 0.155819 0.051940
v 0.467457 -0.155819 -0.051940
v -0.467457 -0.155819 -0.051940
v -0.467457 -0.155819 0.551940
v 0.467457 -0.155819 0.551940
v 0.467457 -0.047897 0.051940
v -0.467457 -0.047897 0.051940
v -0.467457 0.155819 0.051940
v 0.467457 0.155819 0.051940
v -0.467457 0.155819 0.350483
v -0.467457 -0.047897 0.350483
v -0.467457 -0.047897 0.253396
v -0.467457 0.155819 0.253396
v -0.467457 -0.047897 0.551940
v -0.467457 -0.155819 0.551940
v -0.467457 -0.155819 -0.051940
v -0.467457 -0.047897 0.051940
v -0.467457 0.155819 -0.051940
v -0.467457 0.155819 0.051940
v 0.467457 -0.155819 0.551940
v -0.467457 -0.155819 0.551940
v -0.467457 -0.047897 0.551940
v 0.467457 -0.047897 0.551940
v 0.467457 -0.047897 0.051940
v 0.467457 0.155819 0.051940
v 0.467457 0.155819 -0.051940
v 0.467457 -0.155819 -0.051940
v 0.467457 -0.155819 0.551940
v 0.467457 -0.047897 0.551940
v 0.467457 0.155819 0.253396
v 0.467457 -0.047897 0.253396
v 0.467457 -0.047897 0.350483
v 0.467457 0.155819 0.350483
v -0.467457 -0.047897 0.350483
v -0.467457 0.155819 0.350483
v 0.467457 0.155819 0.350483
v 0.467457 -0.047897 0.350483
v 0.467457 0.155819 0.253396
v 0.467457 0.155819 0.350483
v -0.467457 0.155819 0.350483
v -0.467457 0.155819 0.253396
v 0.467457 -0.047897 0.253396
v 0.467457 0.155819 0.253396
v -0.467457 0.155819 0.253396
v -0.467457 -0.047897 0.253396
v -0.467457 -0.155819 -0.051940
v 0.467457 -0.155819 -0.051940
v 0.467457 0.155819 -0.051940
v -0.467457 0.155819 -0.051940
v 0.113645 0.095409 0.157898
v 0.034673 0.095409 0.157898
v 0.034672 0.016437 0.157898
v 0.113645 0.016437 0.157898
v 0.034672 0.095409 0.606768
v 0.044544 0.085538 0.606768
v 0.044544 0.026309 0.606768
v 0.034672 0.016437 0.606768
v 0.113645 0.095409 0.157898
v 0.113645 0.016437 0.157898
v 0.113645 0.016437 0.606768
v 0.113645 0.095409 0.606768
v 0.113645 0.016437 0.157898
v 0.034672 0.016437 0.157898
v 0.034672 0.016437 0.606768
v 0.113645 0.016437 0.606768
v 0.034672 0.016437 0.157898
v 0.034673 0.095409 0.157898
v 0.034672 0.095409 0.606768
v 0.034672 0.016437 0.606768
v 0.113645 0.095409 0.606768
v 0.034672 0.095409 0.606768
v 0.034673 0.095409 0.157898
v 0.113645 0.095409 0.157898
v 0.396753 0.095409 0.157898
v 0.317780 0.095409 0.157898
v 0.317780 0.016437 0.157898
v 0.396753 0.016437 0.157898
v 0.396753 0.095409 0.157898
v 0.396753 0.016437 0.157898
v 0.396753 0.016437 0.606768
v 0.396753 0.095409 0.606768
v 0.396753 0.016437 0.157898
v 0.317780 0.016437 0.157898
v 0.317780 0.016437 0.606768
v 0.396753 0.016437 0.606768
v 0.317780 0.016437 0.157898
v 0.317780 0.095409 0.157898
v 0.317780 0.095409 0.606768
v 0.317780 0.016437 0.606768
v 0.396753 0.095409 0.606768
v 0.317780 0.095409 0.606768
v 0.317780 0.095409 0.157898
v 0.396753 0.095409 0.157898
v 0.257230 0.095409 0.157898
v 0.178258 0.095409 0.157898
v 0.178258 0.016437 0.157898
v 0.257230 0.016437 0.157898
v 0.178258 0.095409 0.606768
v 0.188129 0.085538 0.606768
v 0.188129 0.026309 0.606768
v 0.178258 0.016437 0.606768
v 0.257230 0.095409 0.157898
v 0.257230 0.016437 0.157898
v 0.257230 0.016437 0.606768
v 0.257230 0.095409 0.606768
v 0.257230 0.016437 0.157898
v 0.178258 0.016437 0.157898
v 0.178258 0.016437 0.606768
v 0.257230 0.016437 0.606768
v 0.178258 0.016437 0.157898
v 0.178258 0.095409 0.157898
v 0.178258 0.095409 0.606768
v 0.178258 0.016437 0.606768
v 0.257230 0.095409 0.606768
v 0.178258 0.095409 0.606768
v 0.178258 0.095409 0.157898
v 0.257230 0.095409 0.157898
v -0.113618 0.095409 0.157898
v -0.113618 0.016437 0.157898
v -0.034646 0.016437 0.157898
v -0.034646 0.095409 0.157898
v -0.034646 0.016437 0.606768
v -0.044518 0.026309 0.606768
v -0.044518 0.085538 0.606768
v -0.034646 0.095409 0.606768
v -0.113618 0.095409 0.157898
v -0.113618 0.095409 0.606768
v -0.113618 0.016437 0.606768
v -0.113618 0.016437 0.157898
v -0.113618 0.016437 0.157898
v -0.113618 0.016437 0.606768
v -0.034646 0.016437 0.606768
v -0.034646 0.016437 0.157898
v -0.034646 0.016437 0.157898
v -0.034646 0.016437 0.606768
v -0.034646 0.095409 0.606768
v -0.034646 0.095409 0.157898
v -0.113618 0.095409 0.606768
v -0.113618 0.095409 0.157898
v -0.034646 0.095409 0.157898
v -0.034646 0.095409 0.606768
v -0.396753 0.095409 0.157898
v -0.396753 0.016437 0.157898
v -0.317780 0.016437 0.157898
v -0.317780 0.095409 0.157898
v -0.317780 0.016437 0.606768
v -0.327652 0.026309 0.606768
v -0.327652 0.085538 0.606768
v -0.317780 0.095409 0.606768
v -0.386881 0.085538 0.606768
v -0.396753 0.095409 0.606768
v -0.396753 0.095409 0.157898
v -0.396753 0.095409 0.606768
v -0.396753 0.016437 0.606768
v -0.396753 0.016437 0.157898
v -0.396753 0.016437 0.157898
v -0.396753 0.016437 0.606768
v -0.317780 0.016437 0.606768
v -0.317780 0.016437 0.157898
v -0.317780 0.016437 0.157898
v -0.317780 0.016437 0.606768
v -0.317780 0.095409 0.606768
v -0.317780 0.095409 0.157898
v -0.396753 0.095409 0.606768
v -0.396753 0.095409 0.157898
v -0.317780 0.095409 0.157898
v -0.317780 0.095409 0.606768
v -0.253332 0.095409 0.157898
v -0.253332 0.016437 0.157898
v -0.174360 0.016437 0.157898
v -0.174360 0.095409 0.157898
v -0.174360 0.016437 0.606768
v -0.184232 0.085538 0.606768
v -0.174360 0.095409 0.606768
v -0.184232 0.026309 0.606768
v -0.253332 0.016437 0.606768
v -0.243461 0.026309 0.606768
v -0.253332 0.095409 0.157898
v -0.253332 0.095409 0.606768
v -0.253332 0.016437 0.606768
v -0.253332 0.016437 0.157898
v -0.253332 0.016437 0.157898
v -0.253332 0.016437 0.606768
v -0.174360 0.016437 0.606768
v -0.174360 0.016437 0.157898
v -0.174360 0.016437 0.157898
v -0.174360 0.016437 0.606768
v -0.174360 0.095409 0.606768
v -0.174360 0.095409 0.157898
v -0.253332 0.095409 0.606768
v -0.253332 0.095409 0.157898
v -0.174360 0.095409 0.157898
v -0.174360 0.095409 0.606768
v 0.327652 0.085538 0.606768
v 0.327652 0.085538 0.356768
v 0.327652 0.026309 0.356768
v 0.327652 0.026309 0.606768
v 0.396753 0.095409 0.606768
v 0.386881 0.085538 0.606768
v 0.327652 0.085538 0.606768
v 0.317780 0.095409 0.606768
v 0.327652 0.026309 0.606768
v 0.317780 0.016437 0.606768
v 0.386881 0.026309 0.606768
v 0.396753 0.016437 0.606768
v 0.386881 0.085538 0.606768
v 0.396753 0.095409 0.606768
v 0.386881 0.085538 0.356768
v 0.386881 0.026309 0.356768
v 0.327652 0.026309 0.356768
v 0.327652 0.085538 0.356768
v 0.327652 0.026309 0.606768
v 0.327652 0.026309 0.356768
v 0.386881 0.026309 0.356768
v 0.386881 0.026309 0.606768
v 0.386881 0.085538 0.606768
v 0.386881 0.085538 0.356768
v 0.327652 0.085538 0.356768
v 0.327652 0.085538 0.606768
v 0.386881 0.026309 0.606768
v 0.386881 0.026309 0.356768
v 0.386881 0.085538 0.356768
v 0.386881 0.085538 0.606768
v 0.188129 0.085538 0.606768
v 0.188129 0.085538 0.356768
v 0.188129 0.026309 0.356768
v 0.188129 0.026309 0.606768
v 0.178258 0.016437 0.606768
v 0.188129 0.026309 0.606768
v 0.247358 0.026309 0.606768
v 0.257230 0.016437 0.606768
v 0.247359 0.085538 0.606768
v 0.257230 0.095409 0.606768
v 0.257230 0.095409 0.606768
v 0.247359 0.085538 0.606768
v 0.188129 0.085538 0.606768
v 0.178258 0.095409 0.606768
v 0.247359 0.085538 0.356768
v 0.247358 0.026309 0.356768
v 0.188129 0.026309 0.356768
v 0.188129 0.085538 0.356768
v 0.188129 0.026309 0.606768
v 0.188129 0.026309 0.356768
v 0.247358 0.026309 0.356768
v 0.247358 0.026309 0.606768
v 0.247359 0.085538 0.606768
v 0.247359 0.085538 0.356768
v 0.188129 0.085538 0.356768
v 0.188129 0.085538 0.606768
v 0.247358 0.026309 0.606768
v 0.247358 0.026309 0.356768
v 0.247359 0.085538 0.356768
v 0.247359 0.085538 0.606768
v 0.044544 0.085538 0.606768
v 0.044544 0.085538 0.356768
v 0.044544 0.026309 0.356768
v 0.044544 0.026309 0.606768
v 0.034672 0.016437 0.606768
v 0.044544 0.026309 0.606768
v 0.103773 0.026309 0.606768
v 0.113645 0.016437 0.606768
v 0.113645 0.095409 0.606768
v 0.103773 0.085538 0.606768
v 0.044544 0.085538 0.606768
v 0.034672 0.095409 0.606768
v 0.113645 0.016437 0.606768
v 0.103773 0.026309 0.606768
v 0.103773 0.085538 0.606768
v 0.113645 0.095409 0.606768
v 0.103773 0.085538 0.356768
v 0.103773 0.026309 0.356768
v 0.044544 0.026309 0.356768
v 0.044544 0.085538 0.356768
v 0.044544 0.026309 0.606768
v 0.044544 0.026309 0.356768
v 0.103773 0.026309 0.356768
v 0.103773 0.026309 0.606768
v 0.103773 0.085538 0.606768
v 0.103773 0.085538 0.356768
v 0.044544 0.085538 0.356768
v 0.044544 0.085538 0.606768
v 0.103773 0.026309 0.606768
v 0.103773 0.026309 0.356768
v 0.103773 0.085538 0.356768
v 0.103773 0.085538 0.606768
v -0.044518 0.026309 0.606768
v -0.044518 0.026309 0.356768
v -0.044518 0.085538 0.356768
v -0.044518 0.085538 0.606768
v -0.113618 0.016437 0.606768
v -0.103747 0.026309 0.606768
v -0.044518 0.026309 0.606768
v -0.034646 0.016437 0.606768
v -0.034646 0.095409 0.606768
v -0.044518 0.085538 0.606768
v -0.103747 0.085538 0.606768
v -0.113618 0.095409 0.606768
v -0.113618 0.095409 0.606768
v -0.103747 0.085538 0.606768
v -0.103747 0.026309 0.606768
v -0.113618 0.016437 0.606768
v -0.103747 0.085538 0.356768
v -0.044518 0.085538 0.356768
v -0.044518 0.026309 0.356768
v -0.103747 0.026309 0.356768
v -0.103747 0.026309 0.606768
v -0.103747 0.026309 0.356768
v -0.044518 0.026309 0.356768
v -0.044518 0.026309 0.606768
v -0.044518 0.085538 0.606768
v -0.044518 0.085538 0.356768
v -0.103747 0.085538 0.356768
v -0.103747 0.085538 0.606768
v -0.103747 0.085538 0.606768
v -0.103747 0.085538 0.356768
v -0.103747 0.026309 0.356768
v -0.103747 0.026309 0.606768
v -0.184232 0.026309 0.606768
v -0.184232 0.026309 0.356768
v -0.184232 0.085538 0.356768
v -0.184232 0.085538 0.606768
v -0.174360 0.095409 0.606768
v -0.184232 0.085538 0.606768
v -0.243461 0.085538 0.606768
v -0.253332 0.095409 0.606768
v -0.253332 0.095409 0.606768
v -0.243461 0.085538 0.606768
v -0.243461 0.026309 0.606768
v -0.253332 0.016437 0.606768
v -0.243461 0.085538 0.356768
v -0.184232 0.085538 0.356768
v -0.184232 0.026309 0.356768
v -0.243461 0.026309 0.356768
v -0.243461 0.026309 0.606768
v -0.243461 0.026309 0.356768
v -0.184232 0.026309 0.356768
v -0.184232 0.026309 0.606768
v -0.184232 0.085538 0.606768
v -0.184232 0.085538 0.356768
v -0.243461 0.085538 0.356768
v -0.243461 0.085538 0.606768
v -0.243461 0.085538 0.606768
v -0.243461 0.085538 0.356768
v -0.243461 0.026309 0.356768
v -0.243461 0.026309 0.606768
v -0.327652 0.026309 0.606768
v -0.327652 0.026309 0.356768
v -0.327652 0.085538 0.356768
v -0.327652 0.085538 0.606768
v -0.396753 0.016437 0.606768
v -0.386881 0.026309 0.606768
v -0.327652 0.026309 0.606768
v -0.317780 0.016437 0.606768
v -0.396753 0.095409 0.606768
v -0.386881 0.085538 0.606768
v -0.386881 0.026309 0.606768
v -0.396753 0.016437 0.606768
v -0.386881 0.085538 0.356768
v -0.327652 0.085538 0.356768
v -0.327652 0.026309 0.356768
v -0.386881 0.026309 0.356768
v -0.386881 0.026309 0.606768
v -0.386881 0.026309 0.356768
v -0.327652 0.026309 0.356768
v -0.327652 0.026309 0.606768
v -0.327652 0.085538 0.606768
v -0.327652 0.085538 0.356768
v -0.386881 0.085538 0.356768
v -0.386881 0.085538 0.606768
v -0.386881 0.085538 0.606768
v -0.386881 0.085538 0.356768
v -0.386881 0.026309 0.356768
v -0.386881 0.026309 0.606768
v 0.467457 -0.047897 0.551940
v 0.467457 -0.047897 0.253396
v 0.467457 -0.047897 0.051940
v 0.467457 -0.047897 0.350483
v -0.467457 -0.047897 0.253396
v -0.467457 -0.047897 0.551940
v -0.467457 -0.047897 0.051940
v -0.467457 -0.047897 0.350483
vt 0.805616021 0.480958998
vt 0.805616021 0.480958998
vt 0.805616021 0.480958998
vt 0.805616021 0.480958998
vt 0.805616021 0.480958998
vt 0.805616021 0.480958998
vt 0.805616021 0.480958998
vt 0.805616021 0.480958998
vt 0.805616021 0.480958998
vt 0.805616021 0.480958998
vt 0.805616021 0.480958998
vt 0.805616021 0.480958998
vt 0.805616021 0.480958998
vt 0.805616021 0.480958998
vt 0.805616021 0.480958998
vt 0.805616021 0.480958998
vt 0.805616021 0.480958998
vt 0.805616021 0.480958998
vt 0.805616021 0.480958998
vt 0.805616021 0.480958998
vt 0.805616021 0.480958998
vt 0.805616021 0.480958998
vt 0.805616021 0.480958998
vt 0.805616021 0.480958998
vt 0.805616021 0.480958998
vt 0.805616021 0.480958998
vt 0.805616021 0.480958998
vt 0.805616021 0.480958998
vt 0.805616021 0.480958998
vt 0.805616021 0.480958998
vt 0.805616021 0.480958998
vt 0.805616021 0.480958998
vt 0.805616021 0.480958998
vt 0.805616021 0.480958998
vt 0.805616021 0.480958998
vt 0.805616021 0.480958998
vt 0.805616021 0.480958998
vt 0.805616021 0.480958998
vt 0.805616021 0.480958998
vt 0.805616021 0.480958998
vt 0.805616021 0.480958998
vt 0.805616021 0.480958998
vt 0.805616021 0.480958998
vt 0.805616021 0.480958998
vt 0.805616021 0.480958998
vt 0.805616021 0.480958998
vt 0.805616021 0.480958998
vt 0.805616021 0.480958998
vt 0.805616021 0.480958998
vt 0.805616021 0.480958998
vt 0.805616021 0.480958998
vt 0.805616021 0.480958998
vt 0.445387006 0.217419997
vt 0.445387006 0.235090002
vt 0.457168013 0.235090002
vt 0.457168013 0.217419997
vt 0.437741995 0.641453981
vt 0.437741995 0.641453981
vt 0.444665998 0.641453981
vt 0.444665998 0.641453981
vt 0.451590002 0.312429011
vt 0.444665998 0.312429011
vt 0.444665998 0.641453981
vt 0.451590002 0.641453981
vt 0.437741995 0.312429011
vt 0.430817991 0.312429011
vt 0.430819005 0.641453981
vt 0.437741995 0.641453981
vt 0.444665998 0.312429011
vt 0.437741995 0.312429011
vt 0.437741995 0.641453981
vt 0.444665998 0.641453981
vt 0.423895001 0.641453981
vt 0.430819005 0.641453981
vt 0.430817991 0.312429011
vt 0.423895001 0.312429011
vt 0.643545985 0.289927989
vt 0.643545985 0.307597995
vt 0.655326009 0.307597995
vt 0.655326009 0.289927989
vt 0.680939019 0.328173995
vt 0.67117399 0.328173995
vt 0.67117399 0.515029013
vt 0.680939019 0.515029013
vt 0.67117399 0.328173995
vt 0.66140902 0.328173995
vt 0.66140902 0.515029013
vt 0.67117399 0.515029013
vt 0.66140902 0.328173995
vt 0.651643991 0.328173995
vt 0.651643991 0.515029013
vt 0.66140902 0.515029013
vt 0.641879022 0.515029013
vt 0.651643991 0.515029013
vt 0.651643991 0.328173995
vt 0.641879022 0.328173995
vt 0.517445028 0.275516003
vt 0.517445028 0.293186992
vt 0.529224992 0.293186992
vt 0.529224992 0.275516003
vt 0.546117008 0.53143698
vt 0.546117008 0.53143698
vt 0.555095017 0.53143698
vt 0.555095017 0.53143698
vt 0.546117008 0.433975995
vt 0.537138999 0.433975995
vt 0.537138999 0.53143698
vt 0.546117008 0.53143698
vt 0.537138999 0.433975995
vt 0.528160989 0.433975995
vt 0.528160989 0.53143698
vt 0.537138999 0.53143698
vt 0.555095017 0.433975995
vt 0.546117008 0.433975995
vt 0.546117008 0.53143698
vt 0.555095017 0.53143698
vt 0.555095017 0.53143698
vt 0.564073026 0.531436026
vt 0.564073026 0.433975995
vt 0.555095017 0.433975995
vt 0.304154992 0.199135005
vt 0.315934986 0.199135005
vt 0.315934986 0.216805995
vt 0.304154992 0.216805995
vt 0.300767004 0.631236017
vt 0.300767004 0.631236017
vt 0.304464996 0.631236017
vt 0.304464996 0.631236017
vt 0.297069013 0.154781997
vt 0.297069997 0.631236017
vt 0.300767004 0.631236017
vt 0.300767004 0.154781997
vt 0.304464012 0.154781997
vt 0.304464996 0.631236017
vt 0.308162004 0.631236017
vt 0.308162004 0.154781997
vt 0.300767004 0.154781997
vt 0.300767004 0.631236017
vt 0.304464996 0.631236017
vt 0.304464012 0.154781997
vt 0.311859995 0.631236017
vt 0.311859995 0.154781997
vt 0.308162004 0.154781997
vt 0.308162004 0.631236017
vt 0.075011 0.227957994
vt 0.0867919996 0.227957994
vt 0.0867919996 0.245628998
vt 0.075011 0.245628998
vt 0.0373490006 0.747560978
vt 0.0373490006 0.747560978
vt 0.0546839982 0.747560024
vt 0.0546839982 0.747560024
vt 0.0720190033 0.747560024
vt 0.0720190033 0.747560024
vt 0.0200130008 0.252440006
vt 0.0200139992 0.747560978
vt 0.0373490006 0.747560978
vt 0.0373490006 0.252440006
vt 0.0720190033 0.252438992
vt 0.0720190033 0.747560024
vt 0.0893549994 0.747560024
vt 0.089354001 0.252438992
vt 0.0373490006 0.252440006
vt 0.0373490006 0.747560978
vt 0.0546839982 0.747560024
vt 0.0546839982 0.252438992
vt 0.0720190033 0.747560024
vt 0.0720190033 0.252438992
vt 0.0546839982 0.252438992
vt 0.0546839982 0.747560978
vt 0.205796003 0.261105001
vt 0.217575997 0.261105001
vt 0.217575997 0.278775007
vt 0.205796003 0.278775007
vt 0.178334996 0.546741009
vt 0.182852998 0.546741009
vt 0.182852998 0.546741009
vt 0.178334996 0.546741009
vt 0.173816994 0.546741009
vt 0.173816994 0.546741009
vt 0.182852998 0.444036007
vt 0.182852998 0.546741009
vt 0.187370002 0.546741009
vt 0.187370002 0.444036007
vt 0.173816994 0.444036007
vt 0.173816994 0.546741009
vt 0.178334996 0.546741009
vt 0.178334996 0.444036007
vt 0.178334996 0.444036007
vt 0.178334996 0.546741009
vt 0.182852998 0.546741009
vt 0.182852998 0.444036007
vt 0.173816994 0.546741009
vt 0.173816994 0.444036007
vt 0.169299006 0.444036007
vt 0.169299006 0.546741009
vt 0.651643991 0.515029013
vt 0.651643991 0.515029013
vt 0.66140902 0.515029013
vt 0.66140902 0.515029013
vt 0.641879022 0.515029013
vt 0.641879022 0.515029013
vt 0.651643991 0.515029013
vt 0.651643991 0.515029013
vt 0.66140902 0.515029013
vt 0.66140902 0.515029013
vt 0.67117399 0.515029013
vt 0.67117399 0.515029013
vt 0.680939019 0.515029013
vt 0.680939019 0.515029013
vt 0.474588007 0.790383995
vt 0.486368001 0.790383995
vt 0.486368001 0.772714019
vt 0.474588007 0.772714019
vt 0.66140902 0.515029013
vt 0.66140902 0.515029013
vt 0.67117399 0.515029013
vt 0.67117399 0.515029013
vt 0.641879022 0.515029013
vt 0.641879022 0.515029013
vt 0.651643991 0.515029013
vt 0.651643991 0.515029013
vt 0.67117399 0.515029013
vt 0.67117399 0.515029013
vt 0.680939019 0.515029013
vt 0.680939019 0.515029013
vt 0.546117008 0.53143698
vt 0.546117008 0.53143698
vt 0.555095017 0.53143698
vt 0.555095017 0.53143698
vt 0.528160989 0.53143698
vt 0.528160989 0.53143698
vt 0.537138999 0.53143698
vt 0.537138999 0.53143698
vt 0.546117008 0.53143698
vt 0.546117008 0.53143698
vt 0.555095017 0.53143698
vt 0.555095017 0.53143698
vt 0.564073026 0.531436026
vt 0.564073026 0.531436026
vt 0.488999009 0.725531995
vt 0.500779986 0.725531995
vt 0.500779986 0.70786202
vt 0.488999009 0.70786202
vt 0.528160989 0.53143698
vt 0.528160989 0.53143698
vt 0.537138999 0.53143698
vt 0.537138999 0.53143698
vt 0.555095017 0.53143698
vt 0.555095017 0.53143698
vt 0.564073026 0.531436026
vt 0.564073026 0.531436026
vt 0.537138999 0.53143698
vt 0.537138999 0.53143698
vt 0.546117008 0.53143698
vt 0.546117008 0.53143698
vt 0.437741995 0.641453981
vt 0.437741995 0.641453981
vt 0.444665998 0.641453981
vt 0.444665998 0.641453981
vt 0.430819005 0.641453981
vt 0.430819005 0.641453981
vt 0.437741995 0.641453981
vt 0.437741995 0.641453981
vt 0.423895001 0.641453981
vt 0.423895001 0.641453981
vt 0.430819005 0.641453981
vt 0.430819005 0.641453981
vt 0.444665998 0.641453981
vt 0.444665998 0.641453981
vt 0.451590002 0.641453981
vt 0.451590002 0.641453981
vt 0.455110013 0.640414
vt 0.466890007 0.640414
vt 0.466890007 0.622744024
vt 0.455110013 0.622744024
vt 0.430819005 0.641453981
vt 0.430819005 0.641453981
vt 0.437741995 0.641453981
vt 0.437741995 0.641453981
vt 0.423895001 0.641453981
vt 0.423895001 0.641453981
vt 0.430819005 0.641453981
vt 0.430819005 0.641453981
vt 0.444665998 0.641453981
vt 0.444665998 0.641453981
vt 0.451590002 0.641453981
vt 0.451590002 0.641453981
vt 0.300767004 0.631236017
vt 0.300767004 0.631236017
vt 0.304464996 0.631236017
vt 0.304464996 0.631236017
vt 0.304464996 0.631236017
vt 0.304464996 0.631236017
vt 0.308162004 0.631236017
vt 0.308162004 0.631236017
vt 0.308162004 0.631236017
vt 0.308162004 0.631236017
vt 0.311859995 0.631236017
vt 0.311859995 0.631236017
vt 0.297069997 0.631236017
vt 0.297069997 0.631236017
vt 0.300767004 0.631236017
vt 0.300767004 0.631236017
vt 0.278950989 0.758678973
vt 0.278950989 0.741007984
vt 0.290731996 0.741007984
vt 0.290731996 0.758678973
vt 0.304464996 0.631236017
vt 0.304464996 0.631236017
vt 0.308162004 0.631236017
vt 0.308162004 0.631236017
vt 0.308162004 0.631236017
vt 0.308162004 0.631236017
vt 0.311859995 0.631236017
vt 0.311859995 0.631236017
vt 0.297069997 0.631236017
vt 0.297069997 0.631236017
vt 0.300767004 0.631236017
vt 0.300767004 0.631236017
vt 0.178334996 0.546741009
vt 0.178334996 0.546741009
vt 0.182852998 0.546741009
vt 0.182852998 0.546741009
vt 0.169299006 0.546741009
vt 0.169299006 0.546741009
vt 0.173816994 0.546741009
vt 0.173816994 0.546741009
vt 0.182852998 0.546741009
vt 0.182852998 0.546741009
vt 0.187370002 0.546741009
vt 0.187370002 0.546741009
vt 0.406132996 0.631856978
vt 0.406132996 0.614187002
vt 0.41791299 0.614187002
vt 0.41791299 0.631856978
vt 0.173816994 0.546741009
vt 0.173816994 0.546741009
vt 0.178334996 0.546741009
vt 0.178334996 0.546741009
vt 0.169299006 0.546741009
vt 0.169299006 0.546741009
vt 0.173816994 0.546741009
vt 0.173816994 0.546741009
vt 0.182852998 0.546741009
vt 0.182852998 0.546741009
vt 0.187370002 0.546741009
vt 0.187370002 0.546741009
vt 0.0373490006 0.747560978
vt 0.0373490006 0.747560978
vt 0.0546839982 0.747560024
vt 0.0546839982 0.747560024
vt 0.0720190033 0.747560024
vt 0.0720190033 0.747560024
vt 0.0893549994 0.747560024
vt 0.0893549994 0.747560024
vt 0.0200139992 0.747560978
vt 0.0200139992 0.747560978
vt 0.0373490006 0.747560978
vt 0.0373490006 0.747560978
vt 0.0498079993 0.82209003
vt 0.0498079993 0.804418981
vt 0.0615880005 0.804418981
vt 0.0615880005 0.82209003
vt 0.0720190033 0.747560024
vt 0.0720190033 0.747560024
vt 0.0893549994 0.747560024
vt 0.0893549994 0.747560024
vt 0.0546839982 0.747560978
vt 0.0546839982 0.747560978
vt 0.0720190033 0.747560024
vt 0.0720190033 0.747560024
vt 0.0200139992 0.747560978
vt 0.0200139992 0.747560978
vt 0.0373490006 0.747560978
vt 0.0373490006 0.747560978
vt 0.805616021 0.480958998
vt 0.805616021 0.480958998
vt 0.805616021 0.480958998
vt 0.805616021 0.480958998
vt 0.805616021 0.480958998
vt 0.805616021 0.480958998
vt 0.805616021 0.480958998
vt 0.805616021 0.480958998
vn 0.000000 1.000000 0.000000
vn 0.000000 1.000000 0.000000
vn 0.000000 1.000000 0.000000
vn 0.000000 1.000000 0.000000
vn 0.000000 -1.000000 -0.000000
vn 0.000000 -1.000000 -0.000000
vn 0.000000 -1.000000 -0.000000
vn 0.000000 -1.000000 -0.000000
vn 0.000000 -0.000000 1.000000
vn 0.000000 -0.000000 1.000000
vn 0.000000 -0.000000 1.000000
vn 0.000000 -0.000000 1.000000
vn -1.000000 0.000000 0.000000
vn -1.000000 0.000000 0.000000
vn -1.000000 0.000000 0.000000
vn -1.000000 0.000000 0.000000
vn -1.000000 0.000000 0.000000
vn -1.000000 0.000000 0.000000
vn -1.000000 0.000000 0.000000
vn -1.000000 0.000000 0.000000
vn -1.000000 0.000000 0.000000
vn -1.000000 0.000000 0.000000
vn 0.000000 -0.000000 1.000000
vn 0.000000 -0.000000 1.000000
vn 0.000000 -0.000000 1.000000
vn 0.000000 -0.000000 1.000000
vn 1.000000 0.000000 0.000000
vn 1.000000 0.000000 0.000000
vn 1.000000 0.000000 0.000000
vn 1.000000 0.000000 0.000000
vn 1.000000 0.000000 0.000000
vn 1.000000 0.000000 0.000000
vn 1.000000 0.000000 0.000000
vn 1.000000 0.000000 0.000000
vn 1.000000 0.000000 0.000000
vn 1.000000 0.000000 0.000000
vn 0.000000 -0.000000 1.000000
vn 0.000000 -0.000000 1.000000
vn 0.000000 -0.000000 1.000000
vn 0.000000 -0.000000 1.000000
vn 0.000000 1.000000 0.000000
vn 0.000000 1.000000 0.000000
vn 0.000000 1.000000 0.000000
vn 0.000000 1.000000 0.000000
vn 0.000000 0.000000 -1.000000
vn 0.000000 0.000000 -1.000000
vn 0.000000 0.000000 -1.000000
vn 0.000000 0.000000 -1.000000
vn 0.000000 0.000000 -1.000000
vn 0.000000 0.000000 -1.000000
vn 0.000000 0.000000 -1.000000
vn 0.000000 0.000000 -1.000000
vn 0.000000 0.000000 -1.000000
vn 0.000000 0.000000 -1.000000
vn 0.000000 0.000000 -1.000000
vn 0.000000 0.000000 -1.000000
vn 0.000000 -0.000000 1.000000
vn 0.000000 -0.000000 1.000000
vn 0.000000 -0.000000 1.000000
vn 0.000000 -0.000000 1.000000
vn 1.000000 0.000000 0.000000
vn 1.000000 0.000000 0.000000
vn 1.000000 0.000000 0.000000
vn 1.000000 0.000000 0.000000
vn 0.000000 -1.000000 -0.000000
vn 0.000000 -1.000000 -0.000000
vn 0.000000 -1.000000 -0.000000
vn 0.000000 -1.000000 -0.000000
vn -1.000000 0.000000 0.000000
vn -1.000000 0.000000 0.000000
vn -1.000000 0.000000 0.000000
vn -1.000000 0.000000 0.000000
vn 0.000000 1.000000 0.000000
vn 0.000000 1.000000 0.000000
vn 0.000000 1.000000 0.000000
vn 0.000000 1.000000 0.000000
vn 0.000000 0.000000 -1.000000
vn 0.000000 0.000000 -1.000000
vn 0.000000 0.000000 -1.000000
vn 0.000000 0.000000 -1.000000
vn 1.000000 0.000000 0.000000
vn 1.000000 0.000000 0.000000
vn 1.000000 0.000000 0.000000
vn 1.000000 0.000000 0.000000
vn 0.000000 -1.000000 -0.000000
vn 0.000000 -1.000000 -0.000000
vn 0.000000 -1.000000 -0.000000
vn 0.000000 -1.000000 -0.000000
vn -1.000000 0.000000 0.000000
vn -1.000000 0.000000 0.000000
vn -1.000000 0.000000 0.000000
vn -1.000000 0.000000 0.000000
vn 0.000000 1.000000 0.000000
vn 0.000000 1.000000 0.000000
vn 0.000000 1.000000 0.000000
vn 0.000000 1.000000 0.000000
vn 0.000000 0.000000 -1.000000
vn 0.000000 0.000000 -1.000000
vn 0.000000 0.000000 -1.000000
vn 0.000000 0.000000 -1.000000
vn 0.000000 -0.000000 1.000000
vn 0.000000 -0.000000 1.000000
vn 0.000000 -0.000000 1.000000
vn 0.000000 -0.000000 1.000000
vn 1.000000 0.000000 0.000000
vn 1.000000 0.000000 0.000000
vn 1.000000 0.000000 0.000000
vn 1.000000 0.000000 0.000000
vn 0.000000 -1.000000 -0.000000
vn 0.000000 -1.000000 -0.000000
vn 0.000000 -1.000000 -0.000000
vn 0.000000 -1.000000 -0.000000
vn -1.000000 0.000000 0.000000
vn -1.000000 0.000000 0.000000
vn -1.000000 0.000000 0.000000
vn -1.000000 0.000000 0.000000
vn 0.000000 1.000000 0.000000
vn 0.000000 1.000000 0.000000
vn 0.000000 1.000000 0.000000
vn 0.000000 1.000000 0.000000
vn 0.000000 0.000000 -1.000000
vn 0.000000 0.000000 -1.000000
vn 0.000000 0.000000 -1.000000
vn 0.000000 0.000000 -1.000000
vn 0.000000 -0.000000 1.000000
vn 0.000000 -0.000000 1.000000
vn 0.000000 -0.000000 1.000000
vn 0.000000 -0.000000 1.000000
vn -1.000000 0.000000 0.000000
vn -1.000000 0.000000 0.000000
vn -1.000000 0.000000 0.000000
vn -1.000000 0.000000 0.000000
vn 0.000000 -1.000000 -0.000000
vn 0.000000 -1.000000 -0.000000
vn 0.000000 -1.000000 -0.000000
vn 0.000000 -1.000000 -0.000000
vn 1.000000 0.000000 0.000000
vn 1.000000 0.000000 0.000000
vn 1.000000 0.000000 0.000000
vn 1.000000 0.000000 0.000000
vn 0.000000 1.000000 0.000000
vn 0.000000 1.000000 0.000000
vn 0.000000 1.000000 0.000000
vn 0.000000 1.000000 0.000000
vn 0.000000 0.000000 -1.000000
vn 0.000000 0.000000 -1.000000
vn 0.000000 0.000000 -1.000000
vn 0.000000 0.000000 -1.000000
vn 0.000000 -0.000000 1.000000
vn 0.000000 -0.000000 1.000000
vn 0.000000 -0.000000 1.000000
vn 0.000000 -0.000000 1.000000
vn 0.000000 -0.000000 1.000000
vn 0.000000 -0.000000 1.000000
vn -1.000000 0.000000 0.000000
vn -1.000000 0.000000 0.000000
vn -1.000000 0.000000 0.000000
vn -1.000000 0.000000 0.000000
vn 0.000000 -1.000000 -0.000000
vn 0.000000 -1.000000 -0.000000
vn 0.000000 -1.000000 -0.000000
vn 0.000000 -1.000000 -0.000000
vn 1.000000 0.000000 0.000000
vn 1.000000 0.000000 0.000000
vn 1.000000 0.000000 0.000000
vn 1.000000 0.000000 0.000000
vn 0.000000 1.000000 0.000000
vn 0.000000 1.000000 0.000000
vn 0.000000 1.000000 0.000000
vn 0.000000 1.000000 0.000000
vn 0.000000 0.000000 -1.000000
vn 0.000000 0.000000 -1.000000
vn 0.000000 0.000000 -1.000000
vn 0.000000 0.000000 -1.000000
vn 0.000000 -0.000000 1.000000
vn 0.000000 -0.000000 1.000000
vn 0.000000 -0.000000 1.000000
vn 0.000000 -0.000000 1.000000
vn 0.000000 -0.000000 1.000000
vn 0.000000 -0.000000 1.000000
vn -1.000000 0.000000 0.000000
vn -1.000000 0.000000 0.000000
vn -1.000000 0.000000 0.000000
vn -1.000000 0.000000 0.000000
vn 0.000000 -1.000000 -0.000000
vn 0.000000 -1.000000 -0.000000
vn 0.000000 -1.000000 -0.000000
vn 0.000000 -1.000000 -0.000000
vn 1.000000 0.000000 0.000000
vn 1.000000 0.000000 0.000000
vn 1.000000 0.000000 0.000000
vn 1.000000 0.000000 0.000000
vn 0.000000 1.000000 0.000000
vn 0.000000 1.000000 0.000000
vn 0.000000 1.000000 0.000000
vn 0.000000 1.000000 0.000000
vn 1.000000 0.000000 0.000000
vn 1.000000 0.000000 0.000000
vn 1.000000 0.000000 0.000000
vn 1.000000 0.000000 0.000000
vn 0.000000 -0.000000 1.000000
vn 0.000000 -0.000000 1.000000
vn 0.000000 -0.000000 1.000000
vn 0.000000 -0.000000 1.000000
vn 0.000000 -0.000000 1.000000
vn 0.000000 -0.000000 1.000000
vn 0.000000 -0.000000 1.000000
vn 0.000000 -0.000000 1.000000
vn 0.000000 -0.000000 1.000000
vn 0.000000 -0.000000 1.000000
vn 0.000000 -0.000000 1.000000
vn 0.000000 -0.000000 1.000000
vn 0.000000 -0.000000 1.000000
vn 0.000000 -0.000000 1.000000
vn 0.000000 1.000000 0.000000
vn 0.000000 1.000000 0.000000
vn 0.000000 1.000000 0.000000
vn 0.000000 1.000000 0.000000
vn 0.000000 -1.000000 -0.000000
vn 0.000000 -1.000000 -0.000000
vn 0.000000 -1.000000 -0.000000
vn 0.000000 -1.000000 -0.000000
vn -1.000000 0.000000 0.000000
vn -1.000000 0.000000 0.000000
vn -1.000000 0.000000 0.000000
vn -1.000000 0.000000 0.000000
vn 1.000000 0.000000 0.000000
vn 1.000000 0.000000 0.000000
vn 1.000000 0.000000 0.000000
vn 1.000000 0.000000 0.000000
vn 0.000000 -0.000000 1.000000
vn 0.000000 -0.000000 1.000000
vn 0.000000 -0.000000 1.000000
vn 0.000000 -0.000000 1.000000
vn 0.000000 -0.000000 1.000000
vn 0.000000 -0.000000 1.000000
vn 0.000000 -0.000000 1.000000
vn 0.000000 -0.000000 1.000000
vn 0.000000 -0.000000 1.000000
vn 0.000000 -0.000000 1.000000
vn 0.000000 -0.000000 1.000000
vn 0.000000 -0.000000 1.000000
vn 0.000000 -0.000000 1.000000
vn 0.000000 -0.000000 1.000000
vn 0.000000 1.000000 0.000000
vn 0.000000 1.000000 0.000000
vn 0.000000 1.000000 0.000000
vn 0.000000 1.000000 0.000000
vn 0.000000 -1.000000 -0.000000
vn 0.000000 -1.000000 -0.000000
vn 0.000000 -1.000000 -0.000000
vn 0.000000 -1.000000 -0.000000
vn -1.000000 0.000000 0.000000
vn -1.000000 0.000000 0.000000
vn -1.000000 0.000000 0.000000
vn -1.000000 0.000000 0.000000
vn 1.000000 0.000000 0.000000
vn 1.000000 0.000000 0.000000
vn 1.000000 0.000000 0.000000
vn 1.000000 0.000000 0.000000
vn 0.000000 -0.000000 1.000000
vn 0.000000 -0.000000 1.000000
vn 0.000000 -0.000000 1.000000
vn 0.000000 -0.000000 1.000000
vn 0.000000 -0.000000 1.000000
vn 0.000000 -0.000000 1.000000
vn 0.000000 -0.000000 1.000000
vn 0.000000 -0.000000 1.000000
vn 0.000000 -0.000000 1.000000
vn 0.000000 -0.000000 1.000000
vn 0.000000 -0.000000 1.000000
vn 0.000000 -0.000000 1.000000
vn 0.000000 -0.000000 1.000000
vn 0.000000 -0.000000 1.000000
vn 0.000000 -0.000000 1.000000
vn 0.000000 -0.000000 1.000000
vn 0.000000 1.000000 0.000000
vn 0.000000 1.000000 0.000000
vn 0.000000 1.000000 0.000000
vn 0.000000 1.000000 0.000000
vn 0.000000 -1.000000 -0.000000
vn 0.000000 -1.000000 -0.000000
vn 0.000000 -1.000000 -0.000000
vn 0.000000 -1.000000 -0.000000
vn -1.000000 0.000000 0.000000
vn -1.000000 0.000000 0.000000
vn -1.000000 0.000000 0.000000
vn -1.000000 0.000000 0.000000
vn -1.000000 0.000000 0.000000
vn -1.000000 0.000000 0.000000
vn -1.000000 0.000000 0.000000
vn -1.000000 0.000000 0.000000
vn 0.000000 -0.000000 1.000000
vn 0.000000 -0.000000 1.000000
vn 0.000000 -0.000000 1.000000
vn 0.000000 -0.000000 1.000000
vn 0.000000 -0.000000 1.000000
vn 0.000000 -0.000000 1.000000
vn 0.000000 -0.000000 1.000000
vn 0.000000 -0.000000 1.000000
vn 0.000000 -0.000000 1.000000
vn 0.000000 -0.000000 1.000000
vn 0.000000 -0.000000 1.000000
vn 0.000000 -0.000000 1.000000
vn 0.000000 -0.000000 1.000000
vn 0.000000 -0.000000 1.000000
vn 0.000000 -0.000000 1.000000
vn 0.000000 -0.000000 1.000000
vn 0.000000 1.000000 0.000000
vn 0.000000 1.000000 0.000000
vn 0.000000 1.000000 0.000000
vn 0.000000 1.000000 0.000000
vn 0.000000 -1.000000 -0.000000
vn 0.000000 -1.000000 -0.000000
vn 0.000000 -1.000000 -0.000000
vn 0.000000 -1.000000 -0.000000
vn 1.000000 0.000000 0.000000
vn 1.000000 0.000000 0.000000
vn 1.000000 0.000000 0.000000
vn 1.000000 0.000000 0.000000
vn -1.000000 0.000000 0.000000
vn -1.000000 0.000000 0.000000
vn -1.000000 0.000000 0.000000
vn -1.000000 0.000000 0.000000
vn 0.000000 -0.000000 1.000000
vn 0.000000 -0.000000 1.000000
vn 0.000000 -0.000000 1.000000
vn 0.000000 -0.000000 1.000000
vn 0.000000 -0.000000 1.000000
vn 0.000000 -0.000000 1.000000
vn 0.000000 -0.000000 1.000000
vn 0.000000 -0.000000 1.000000
vn 0.000000 -0.000000 1.000000
vn 0.000000 -0.000000 1.000000
vn 0.000000 -0.000000 1.000000
vn 0.000000 -0.000000 1.000000
vn 0.000000 1.000000 0.000000
vn 0.000000 1.000000 0.000000
vn 0.000000 1.000000 0.000000
vn 0.000000 1.000000 0.000000
vn 0.000000 -1.000000 -0.000000
vn 0.000000 -1.000000 -0.000000
vn 0.000000 -1.000000 -0.000000
vn 0.000000 -1.000000 -0.000000
vn 1.000000 0.000000 0.000000
vn 1.000000 0.000000 0.000000
vn 1.000000 0.000000 0.000000
vn 1.000000 0.000000 0.000000
vn -1.000000 0.000000 0.000000
vn -1.000000 0.000000 0.000000
vn -1.000000 0.000000 0.000000
vn -1.000000 0.000000 0.000000
vn 0.000000 -0.000000 1.000000
vn 0.000000 -0.000000 1.000000
vn 0.000000 -0.000000 1.000000
vn 0.000000 -0.000000 1.000000
vn 0.000000 -0.000000 1.000000
vn 0.000000 -0.000000 1.000000
vn 0.000000 -0.000000 1.000000
vn 0.000000 -0.000000 1.000000
vn 0.000000 -0.000000 1.000000
vn 0.000000 -0.000000 1.000000
vn 0.000000 -0.000000 1.000000
vn 0.000000 -0.000000 1.000000
vn 0.000000 1.000000 0.000000
vn 0.000000 1.000000 0.000000
vn 0.000000 1.000000 0.000000
vn 0.000000 1.000000 0.000000
vn 0.000000 -1.000000 -0.000000
vn 0.000000 -1.000000 -0.000000
vn 0.000000 -1.000000 -0.000000
vn 0.000000 -1.000000 -0.000000
vn 1.000000 0.000000 0.000000
vn 1.000000 0.000000 0.000000
vn 1.000000 0.000000 0.000000
vn 1.000000 0.000000 0.000000
vn 0.000000 1.000000 0.000000
vn 0.000000 1.000000 0.000000
vn 0.000000 1.000000 0.000000
vn 0.000000 1.000000 0.000000
vn 0.000000 1.000000 0.000000
vn 0.000000 1.000000 0.000000
vn 0.000000 1.000000 0.000000
vn 0.000000 1.000000 0.000000
f 3/3/3 2/2/2 1/1/1
f 4/4/4 3/3/3 1/1/1
f 7/7/7 6/6/6 5/5/5
f 8/8/8 7/7/7 5/5/5
f 11/11/11 10/10/10 9/9/9
f 12/12/12 11/11/11 9/9/9
f 15/15/15 14/14/14 13/13/13
f 13/13/13 16/16/16 15/15/15
f 19/19/19 18/18/18 17/17/17
f 17/17/17 20/20/20 19/19/19
f 20/20/20 21/21/21 19/19/19
f 20/20/20 22/22/22 21/21/21
f 25/25/25 24/24/24 23/23/23
f 26/26/26 25/25/25 23/23/23
f 29/29/29 28/28/28 27/27/27
f 30/30/30 29/29/29 27/27/27
f 27/27/27 31/31/31 30/30/30
f 32/32/32 31/31/31 27/27/27
f 35/35/35 34/34/34 33/33/33
f 33/33/33 36/36/36 35/35/35
f 39/39/39 38/38/38 37/37/37
f 40/40/40 39/39/39 37/37/37
f 43/43/43 42/42/42 41/41/41
f 44/44/44 43/43/43 41/41/41
f 47/47/47 46/46/46 45/45/45
f 48/48/48 47/47/47 45/45/45
f 51/51/51 50/50/50 49/49/49
f 52/52/52 51/51/51 49/49/49
f 55/55/55 54/54/54 53/53/53
f 56/56/56 55/55/55 53/53/53
f 59/59/59 58/58/58 57/57/57
f 60/60/60 59/59/59 57/57/57
f 63/63/63 62/62/62 61/61/61
f 64/64/64 63/63/63 61/61/61
f 67/67/67 66/66/66 65/65/65
f 68/68/68 67/67/67 65/65/65
f 71/71/71 70/70/70 69/69/69
f 72/72/72 71/71/71 69/69/69
f 75/75/75 74/74/74 73/73/73
f 76/76/76 75/75/75 73/73/73
f 79/79/79 78/78/78 77/77/77
f 80/80/80 79/79/79 77/77/77
f 83/83/83 82/82/82 81/81/81
f 84/84/84 83/83/83 81/81/81
f 87/87/87 86/86/86 85/85/85
f 88/88/88 87/87/87 85/85/85
f 91/91/91 90/90/90 89/89/89
f 92/92/92 91/91/91 89/89/89
f 95/95/95 94/94/94 93/93/93
f 96/96/96 95/95/95 93/93/93
f 99/99/99 98/98/98 97/97/97
f 100/100/100 99/99/99 97/97/97
f 103/103/103 102/102/102 101/101/101
f 104/104/104 103/103/103 101/101/101
f 107/107/107 106/106/106 105/105/105
f 108/108/108 107/107/107 105/105/105
f 111/111/111 110/110/110 109/109/109
f 112/112/112 111/111/111 109/109/109
f 115/115/115 114/114/114 113/113/113
f 116/116/116 115/115/115 113/113/113
f 119/119/119 118/118/118 117/117/117
f 120/120/120 119/119/119 117/117/117
f 123/123/123 122/122/122 121/121/121
f 124/124/124 123/123/123 121/121/121
f 127/127/127 126/126/126 125/125/125
f 128/128/128 127/127/127 125/125/125
f 131/131/131 130/130/130 129/129/129
f 132/132/132 131/131/131 129/129/129
f 135/135/135 134/134/134 133/133/133
f 136/136/136 135/135/135 133/133/133
f 139/139/139 138/138/138 137/137/137
f 140/140/140 139/139/139 137/137/137
f 143/143/143 142/142/142 141/141/141
f 144/144/144 143/143/143 141/141/141
f 147/147/147 146/146/146 145/145/145
f 148/148/148 147/147/147 145/145/145
f 151/151/151 150/150/150 149/149/149
f 152/152/152 151/151/151 149/149/149
f 153/153/153 151/151/151 152/152/152
f 154/154/154 153/153/153 152/152/152
f 157/157/157 156/156/156 155/155/155
f 158/158/158 157/157/157 155/155/155
f 161/161/161 160/160/160 159/159/159
f 162/162/162 161/161/161 159/159/159
f 165/165/165 164/164/164 163/163/163
f 166/166/166 165/165/165 163/163/163
f 169/169/169 168/168/168 167/167/167
f 170/170/170 169/169/169 167/167/167
f 173/173/173 172/172/172 171/171/171
f 174/174/174 173/173/173 171/171/171
f 177/177/177 176/176/176 175/175/175
f 176/176/176 178/178/178 175/175/175
f 175/175/175 178/178/178 179/179/179
f 178/178/178 180/180/180 179/179/179
f 183/183/183 182/182/182 181/181/181
f 184/184/184 183/183/183 181/181/181
f 187/187/187 186/186/186 185/185/185
f 188/188/188 187/187/187 185/185/185
f 191/191/191 190/190/190 189/189/189
f 192/192/192 191/191/191 189/189/189
f 195/195/195 194/194/194 193/193/193
f 196/196/196 195/195/195 193/193/193
f 199/199/199 198/198/198 197/197/197
f 200/200/200 199/199/199 197/197/197
f 203/203/203 202/202/202 201/201/201
f 204/204/204 203/203/203 201/201/201
f 205/205/205 203/203/203 204/204/204
f 206/206/206 205/205/205 204/204/204
f 207/207/207 205/205/205 206/206/206
f 208/208/208 207/207/207 206/206/206
f 209/209/209 207/207/207 208/208/208
f 210/210/210 209/209/209 208/208/208
f 213/213/213 212/212/212 211/211/211
f 214/214/214 213/213/213 211/211/211
f 217/217/217 216/216/216 215/215/215
f 218/218/218 217/217/217 215/215/215
f 221/221/221 220/220/220 219/219/219
f 222/222/222 221/221/221 219/219/219
f 225/225/225 224/224/224 223/223/223
f 226/226/226 225/225/225 223/223/223
f 229/229/229 228/228/228 227/227/227
f 230/230/230 229/229/229 227/227/227
f 233/233/233 232/232/232 231/231/231
f 234/234/234 233/233/233 231/231/231
f 235/235/235 233/233/233 234/234/234
f 236/236/236 235/235/235 234/234/234
f 239/239/239 238/238/238 237/237/237
f 240/240/240 239/239/239 237/237/237
f 243/243/243 242/242/242 241/241/241
f 244/244/244 243/243/243 241/241/241
f 247/247/247 246/246/246 245/245/245
f 248/248/248 247/247/247 245/245/245
f 251/251/251 250/250/250 249/249/249
f 252/252/252 251/251/251 249/249/249
f 255/255/255 254/254/254 253/253/253
f 256/256/256 255/255/255 253/253/253
f 259/259/259 258/258/258 257/257/257
f 260/260/260 259/259/259 257/257/257
f 263/263/263 262/262/262 261/261/261
f 264/264/264 263/263/263 261/261/261
f 267/267/267 266/266/266 265/265/265
f 268/268/268 267/267/267 265/265/265
f 271/271/271 270/270/270 269/269/269
f 272/272/272 271/271/271 269/269/269
f 275/275/275 274/274/274 273/273/273
f 276/276/276 275/275/275 273/273/273
f 279/279/279 278/278/278 277/277/277
f 280/280/280 279/279/279 277/277/277
f 283/283/283 282/282/282 281/281/281
f 284/284/284 283/283/283 281/281/281
f 287/287/287 286/286/286 285/285/285
f 288/288/288 287/287/287 285/285/285
f 291/291/291 290/290/290 289/289/289
f 292/292/292 291/291/291 289/289/289
f 295/295/295 294/294/294 293/293/293
f 296/296/296 295/295/295 293/293/293
f 299/299/299 298/298/298 297/297/297
f 300/300/300 299/299/299 297/297/297
f 303/303/303 302/302/302 301/301/301
f 304/304/304 303/303/303 301/301/301
f 307/307/307 306/306/306 305/305/305
f 308/308/308 307/307/307 305/305/305
f 311/311/311 310/310/310 309/309/309
f 312/312/312 311/311/311 309/309/309
f 315/315/315 314/314/314 313/313/313
f 316/316/316 315/315/315 313/313/313
f 319/319/319 318/318/318 317/317/317
f 320/320/320 319/319/319 317/317/317
f 323/323/323 322/322/322 321/321/321
f 324/324/324 323/323/323 321/321/321
f 327/327/327 326/326/326 325/325/325
f 328/328/328 327/327/327 325/325/325
f 331/331/331 330/330/330 329/329/329
f 332/332/332 331/331/331 329/329/329
f 335/335/335 334/334/334 333/333/333
f 336/336/336 335/335/335 333/333/333
f 339/339/339 338/338/338 337/337/337
f 340/340/340 339/339/339 337/337/337
f 343/343/343 342/342/342 341/341/341
f 344/344/344 343/343/343 341/341/341
f 347/347/347 346/346/346 345/345/345
f 348/348/348 347/347/347 345/345/345
f 351/351/351 350/350/350 349/349/349
f 352/352/352 351/351/351 349/349/349
f 355/355/355 354/354/354 353/353/353
f 356/356/356 355/355/355 353/353/353
f 359/359/359 358/358/358 357/357/357
f 360/360/360 359/359/359 357/357/357
f 363/363/363 362/362/362 361/361/361
f 364/364/364 363/363/363 361/361/361
f 367/367/367 366/366/366 365/365/365
f 368/368/368 367/367/367 365/365/365
f 371/371/371 370/370/370 369/369/369
f 372/372/372 371/371/371 369/369/369
f 375/375/375 374/374/374 373/373/373
f 376/376/376 375/375/375 373/373/373
f 379/379/379 378/378/378 377/377/377
f 378/378/378 380/380/380 377/377/377
f 381/381/381 378/378/378 379/379/379
f 382/382/382 377/377/377 380/380/380
f 383/383/383 381/381/381 379/379/379
f 384/384/384 382/382/382 380/380/380
f 384/384/384 381/381/381 383/383/383
f 382/382/382 384/384/384 383/383/383
