v -0.035666 0.028430 0.415202
v -0.035666 0.028430 0.303945
v -0.035666 0.099763 0.303945
v -0.035666 0.028430 0.415202
v -0.035666 0.099763 0.415202
v -0.035666 0.099763 0.415202
v -0.035666 0.099763 0.303945
v 0.035666 0.099763 0.303945
v -0.035666 0.099763 0.415202
v 0.035666 0.099763 0.303945
v 0.035666 0.099763 0.415202
v 0.035666 0.099763 0.415202
v 0.035666 0.099763 0.303945
v 0.035666 0.028430 0.303945
v 0.035666 0.099763 0.415202
v 0.035666 0.028430 0.415202
v 0.035666 0.028430 0.415202
v 0.035666 0.028430 0.303945
v -0.035666 0.028430 0.303945
v 0.035666 0.028430 0.415202
v -0.035666 0.028430 0.303945
v -0.035666 0.028430 0.415202
v -0.030255 -0.075544 0.650400
v -0.030255 0.027887 0.446911
v -0.030255 0.082044 0.473909
v -0.030255 -0.075544 0.650400
v -0.030255 0.082044 0.473909
v -0.030255 -0.021387 0.677399
v -0.030255 -0.021387 0.677399
v -0.030255 0.082044 0.473909
v 0.030255 0.082044 0.473909
v -0.030255 -0.021387 0.677399
v 0.030255 0.082044 0.473909
v 0.030255 -0.021387 0.677399
v 0.030255 -0.021387 0.677399
v 0.030255 0.082044 0.473909
v 0.030255 0.027887 0.446911
v 0.030255 -0.021387 0.677399
v 0.030255 0.027887 0.446911
v 0.030255 -0.075544 0.650400
v 0.030255 -0.075544 0.650400
v 0.030255 0.027887 0.446911
v -0.030255 0.027887 0.446911
v 0.030255 -0.075544 0.650400
v -0.030255 0.027887 0.446911
v -0.030255 -0.075544 0.650400
v -0.172039 -0.208428 0.061474
v -0.041423 -0.169190 0.082364
v 0.041423 -0.169190 0.082364
v -0.172039 -0.208428 0.061474
v 0.172038 -0.208429 0.061474
v 0.041423 -0.031088 0.082364
v 0.172038 0.208428 0.051940
v 0.172038 0.208428 0.051940
v -0.041423 -0.031088 0.082364
v -0.172038 0.208428 0.051940
v -0.041423 -0.169190 0.082364
v -0.172039 -0.208428 0.061474
v 0.172038 0.208428 0.051940
v -0.041423 -0.031088 0.082364
v -0.172038 0.208428 0.051940
v 0.172038 -0.208429 0.061474
v 0.041423 -0.169190 0.082364
v 0.041423 -0.031088 0.082364
v -0.041423 -0.031088 0.281857
v -0.041423 0.032076 0.445072
v -0.041423 -0.040297 0.477865
v 0.041423 -0.031088 0.082364
v -0.041423 -0.031088 0.281857
v -0.041423 -0.031088 0.082364
v 0.041423 -0.031088 0.281857
v -0.041423 -0.031088 0.281857
v 0.041423 -0.031088 0.281857
v -0.041423 0.032076 0.445072
v 0.041423 0.032076 0.445072
v 0.041423 -0.169190 0.082364
v 0.041423 -0.031088 0.281857
v 0.041423 -0.031088 0.082364
v 0.041423 -0.169190 0.082364
v 0.041423 -0.169190 0.281857
v 0.041423 0.032076 0.445072
v 0.041423 -0.040297 0.477865
v -0.041423 -0.169190 0.281857
v -0.041423 -0.040297 0.477865
v 0.041423 -0.040297 0.477865
v -0.035666 0.028430 0.303945
v 0.035666 0.028430 0.303945
v 0.035666 0.099763 0.303945
v -0.035666 0.099763 0.303945
v -0.073713 -0.048619 0.522437
v -0.073713 -0.025807 0.376787
v -0.073713 0.119843 0.399600
v -0.073713 0.097030 0.545250
v -0.073713 0.097030 0.545250
v -0.073713 0.119843 0.399600
v 0.073713 0.119843 0.399600
v 0.073713 0.097030 0.545250
v 0.073713 0.097030 0.545250
v 0.073713 0.119843 0.399600
v 0.073713 -0.025807 0.376787
v 0.073713 -0.048619 0.522437
v 0.073713 -0.048619 0.522437
v 0.073713 -0.025807 0.376787
v -0.073713 -0.025807 0.376787
v -0.073713 -0.048619 0.522437
v -0.073713 -0.025807 0.376787
v 0.073713 -0.025807 0.376787
v 0.073713 0.119843 0.399600
v -0.073713 0.119843 0.399600
v 0.073713 -0.048619 0.522437
v -0.073713 -0.048619 0.522437
v -0.073713 0.097030 0.545250
v 0.073713 0.097030 0.545250
v -0.134428 -0.060428 0.212488
v -0.134428 -0.060428 0.178030
v -0.134428 0.208428 0.178030
v -0.134428 0.208428 0.212488
v -0.134428 0.208428 0.212488
v -0.134428 0.208428 0.178030
v 0.134428 0.208428 0.178030
v 0.134428 0.208428 0.212488
v 0.134428 0.208428 0.212488
v 0.134428 0.208428 0.178030
v 0.134428 -0.060428 0.178030
v 0.134428 -0.060428 0.212488
v 0.134428 -0.060428 0.212488
v 0.134428 -0.060428 0.178030
v -0.134428 -0.060428 0.178030
v -0.134428 -0.060428 0.212488
v -0.134428 -0.060428 0.178030
v 0.134428 -0.060428 0.178030
v 0.134428 0.208428 0.178030
v -0.134428 0.208428 0.178030
v 0.134428 -0.060428 0.212488
v -0.134428 -0.060428 0.212488
v -0.134428 0.208428 0.212488
v 0.134428 0.208428 0.212488
v 0.030255 -0.075544 0.650400
v -0.030255 -0.075544 0.650400
v -0.030255 -0.021387 0.677399
v 0.030255 -0.021387 0.677399
v 0.172038 0.208428 -0.051940
v -0.172038 0.208429 -0.051940
v -0.172038 -0.208428 -0.051940
v 0.172038 -0.208428 -0.051940
v 0.172038 0.208428 -0.051940
v 0.172038 -0.208428 -0.051940
v 0.172038 -0.208429 0.061474
v 0.172038 0.208428 0.051940
v 0.172038 -0.208428 -0.051940
v -0.172038 -0.208428 -0.051940
v -0.172039 -0.208428 0.061474
v 0.172038 -0.208429 0.061474
v -0.172038 -0.208428 -0.051940
v -0.172038 0.208429 -0.051940
v -0.172038 0.208428 0.051940
v -0.172039 -0.208428 0.061474
v 0.172038 0.208428 0.051940
v -0.172038 0.208428 0.051940
v -0.172038 0.208429 -0.051940
v 0.172038 0.208428 -0.051940
v -0.041423 -0.031088 0.082364
v -0.041423 -0.169190 0.281857
v -0.041423 -0.169190 0.082364
v -0.041423 -0.031088 0.281857
v -0.041423 -0.040297 0.477865
v -0.041423 -0.169190 0.082364
v 0.041423 -0.169190 0.281857
v 0.041423 -0.169190 0.082364
v -0.041423 -0.169190 0.281857
v 0.041423 -0.040297 0.477865
vt 0.223132998 0.66524601
vt 0.218300998 0.660223007
vt 0.218049005 0.660468996
vt 0.223132998 0.66524601
vt 0.213122994 0.665096998
vt 0.213122994 0.665096998
vt 0.218049005 0.660468996
vt 0.217828006 0.660228014
vt 0.213122994 0.665096998
vt 0.217828006 0.660228014
vt 0.213159993 0.655375004
vt 0.213159993 0.655375004
vt 0.217828006 0.660228014
vt 0.218075007 0.660027027
vt 0.213159993 0.655375004
vt 0.222984001 0.655375004
vt 0.222984001 0.655375004
vt 0.218075007 0.660027027
vt 0.218300998 0.660223007
vt 0.222984001 0.655375004
vt 0.218300998 0.660223007
vt 0.223132998 0.66524601
vt 0.678081989 0.701761007
vt 0.684319019 0.695954978
vt 0.675915003 0.696578979
vt 0.678081989 0.701761007
vt 0.675915003 0.696578979
vt 0.681945026 0.703005016
vt 0.681945026 0.703005016
vt 0.675915003 0.696578979
vt 0.678676009 0.70282501
vt 0.681945026 0.703005016
vt 0.678676009 0.70282501
vt 0.682914019 0.698767006
vt 0.682914019 0.698767006
vt 0.678676009 0.70282501
vt 0.684319019 0.703978002
vt 0.682914019 0.698767006
vt 0.684319019 0.703978002
vt 0.678932011 0.698206007
vt 0.678932011 0.698206007
vt 0.684319019 0.703978002
vt 0.684319019 0.695954978
vt 0.678932011 0.698206007
vt 0.684319019 0.695954978
vt 0.678081989 0.701761007
vt 0.71945101 0.271265
vt 0.715345025 0.279403001
vt 0.711154997 0.276362985
vt 0.71945101 0.271265
vt 0.715951025 0.252368003
vt 0.71390599 0.277891994
vt 0.712014973 0.269526988
vt 0.712014973 0.269526988
vt 0.713339984 0.280407012
vt 0.715269029 0.271952003
vt 0.715345025 0.279403001
vt 0.71945101 0.271265
vt 0.712014973 0.269526988
vt 0.713339984 0.280407012
vt 0.715269029 0.271952003
vt 0.715951025 0.252368003
vt 0.711154997 0.276362985
vt 0.71390599 0.277891994
vt 0.217533007 0.179563999
vt 0.217319995 0.206398994
vt 0.211348996 0.213205993
vt 0.222780004 0.143305004
vt 0.217533007 0.179563999
vt 0.222213998 0.145818993
vt 0.220004007 0.181812003
vt 0.217533007 0.179563999
vt 0.220004007 0.181812003
vt 0.217319995 0.206398994
vt 0.220813006 0.215948001
vt 0.220028996 0.141774997
vt 0.220004007 0.181812003
vt 0.222780004 0.143305004
vt 0.220028996 0.141774997
vt 0.215675995 0.174989
vt 0.220813006 0.215948001
vt 0.211348996 0.238328993
vt 0.220021993 0.174686998
vt 0.211348996 0.213205993
vt 0.211348996 0.238328993
vt 0.218300998 0.660223007
vt 0.218075007 0.660027027
vt 0.217828006 0.660228014
vt 0.218049005 0.660468996
vt 0.211342007 0.100491002
vt 0.211342007 0.100491002
vt 0.211342007 0.100491002
vt 0.211342007 0.100491002
vt 0.211342007 0.100491002
vt 0.211342007 0.100491002
vt 0.211342007 0.100491002
vt 0.211342007 0.100491002
vt 0.211342007 0.100491002
vt 0.211342007 0.100491002
vt 0.211342007 0.100491002
vt 0.211342007 0.100491002
vt 0.211342007 0.100491002
vt 0.211342007 0.100491002
vt 0.211342007 0.100491002
vt 0.211342007 0.100491002
vt 0.211342007 0.100491002
vt 0.211342007 0.100491002
vt 0.211342007 0.100491002
vt 0.211342007 0.100491002
vt 0.211342007 0.100491002
vt 0.211342007 0.100491002
vt 0.211342007 0.100491002
vt 0.211342007 0.100491002
vt 0.71191299 0.756898999
vt 0.71191299 0.756898999
vt 0.71191299 0.756898999
vt 0.71191299 0.756898999
vt 0.71191299 0.756898999
vt 0.71191299 0.756898999
vt 0.71191299 0.756898999
vt 0.71191299 0.756898999
vt 0.71191299 0.756898999
vt 0.71191299 0.756898999
vt 0.71191299 0.756898999
vt 0.71191299 0.756898999
vt 0.71191299 0.756898999
vt 0.71191299 0.756898999
vt 0.71191299 0.756898999
vt 0.71191299 0.756898999
vt 0.71191299 0.756898999
vt 0.71191299 0.756898999
vt 0.71191299 0.756898999
vt 0.71191299 0.756898999
vt 0.71191299 0.756898999
vt 0.71191299 0.756898999
vt 0.71191299 0.756898999
vt 0.71191299 0.756898999
vt 0.678932011 0.698206007
vt 0.678081989 0.701761007
vt 0.681945026 0.703005016
vt 0.682914019 0.698767006
vt 0.710820019 0.263882011
vt 0.715309024 0.269515991
vt 0.720763028 0.262905002
vt 0.718500018 0.235084996
vt 0.710820019 0.263882011
vt 0.718500018 0.235084996
vt 0.715951025 0.252368003
vt 0.712014973 0.269526988
vt 0.718500018 0.235084996
vt 0.720763028 0.262905002
vt 0.71945101 0.271265
vt 0.715951025 0.252368003
vt 0.720763028 0.262905002
vt 0.715309024 0.269515991
vt 0.715269029 0.271952003
vt 0.71945101 0.271265
vt 0.712014973 0.269526988
vt 0.715269029 0.271952003
vt 0.715309024 0.269515991
vt 0.710820019 0.263882011
vt 0.222213998 0.145818993
vt 0.220021993 0.174686998
vt 0.224218994 0.144814998
vt 0.217533007 0.179563999
vt 0.211348996 0.213205993
vt 0.224218994 0.144814998
vt 0.215675995 0.174989
vt 0.220028996 0.141774997
vt 0.220021993 0.174686998
vt 0.211348996 0.238328993
vn -1.000000 0.000000 0.000000
vn -1.000000 0.000000 0.000000
vn -1.000000 0.000000 0.000000
vn -1.000000 0.000000 0.000000
vn -1.000000 0.000000 0.000000
vn 0.000000 1.000000 0.000000
vn 0.000000 1.000000 0.000000
vn 0.000000 1.000000 0.000000
vn 0.000000 1.000000 0.000000
vn 0.000000 1.000000 0.000000
vn 0.000000 1.000000 0.000000
vn 1.000000 0.000000 0.000000
vn 1.000000 0.000000 0.000000
vn 1.000000 0.000000 0.000000
vn 1.000000 0.000000 0.000000
vn 1.000000 0.000000 0.000000
vn 0.000000 -1.000000 -0.000000
vn 0.000000 -1.000000 -0.000000
vn 0.000000 -1.000000 -0.000000
vn 0.000000 -1.000000 -0.000000
vn 0.000000 -1.000000 -0.000000
vn 0.000000 -1.000000 -0.000000
vn -1.000000 0.000000 0.000000
vn -1.000000 0.000000 0.000000
vn -1.000000 0.000000 0.000000
vn -1.000000 0.000000 0.000000
vn -1.000000 0.000000 0.000000
vn -1.000000 0.000000 0.000000
vn 0.000000 0.891453 0.453113
vn 0.000000 0.891453 0.453113
vn 0.000000 0.891453 0.453113
vn 0.000000 0.891453 0.453113
vn 0.000000 0.891453 0.453113
vn 0.000000 0.891453 0.453113
vn 1.000000 0.000000 0.000000
vn 1.000000 0.000000 0.000000
vn 1.000000 0.000000 0.000000
vn 1.000000 0.000000 0.000000
vn 1.000000 0.000000 0.000000
vn 1.000000 0.000000 0.000000
vn 0.000000 -0.891452 -0.453115
vn 0.000000 -0.891452 -0.453115
vn 0.000000 -0.891452 -0.453115
vn 0.000000 -0.891452 -0.453115
vn 0.000000 -0.891452 -0.453115
vn 0.000000 -0.891452 -0.453115
vn -0.093442 -0.234879 0.967523
vn -0.093442 -0.234879 0.967523
vn 0.093442 -0.234880 0.967523
vn -0.093442 -0.234879 0.967523
vn 0.093442 -0.234880 0.967523
vn 0.090622 0.071854 0.993290
vn 0.090622 0.071854 0.993290
vn 0.090622 0.071854 0.993290
vn -0.090621 0.071854 0.993290
vn -0.090621 0.071854 0.993290
vn -0.093442 -0.234879 0.967523
vn -0.093442 -0.234879 0.967523
vn 0.090622 0.071854 0.993290
vn -0.090621 0.071854 0.993290
vn -0.090621 0.071854 0.993290
vn 0.093442 -0.234880 0.967523
vn 0.093442 -0.234880 0.967523
vn 0.090622 0.071854 0.993290
vn -1.000000 0.000000 0.000000
vn -1.000000 0.000000 0.000000
vn -1.000000 0.000000 0.000000
vn 0.000000 1.000000 0.000000
vn 0.000000 0.983005 -0.183577
vn 0.000000 1.000000 0.000000
vn 0.000000 0.983005 -0.183577
vn 0.000000 0.983005 -0.183577
vn 0.000000 0.983005 -0.183577
vn 0.000000 0.932599 -0.360915
vn 0.000000 0.932599 -0.360915
vn 1.000000 0.000000 0.000000
vn 1.000000 0.000000 0.000000
vn 1.000000 0.000000 0.000000
vn 1.000000 0.000000 0.000000
vn 1.000000 0.000000 0.000000
vn 1.000000 0.000000 0.000000
vn 1.000000 0.000000 0.000000
vn 0.000000 -0.958002 0.286763
vn 0.000000 -0.835534 0.549439
vn 0.000000 -0.835534 0.549439
vn 0.000000 0.000000 -1.000000
vn 0.000000 0.000000 -1.000000
vn 0.000000 0.000000 -1.000000
vn 0.000000 0.000000 -1.000000
vn -1.000000 0.000000 0.000000
vn -1.000000 0.000000 0.000000
vn -1.000000 0.000000 0.000000
vn -1.000000 0.000000 0.000000
vn 0.000000 0.987955 0.154742
vn 0.000000 0.987955 0.154742
vn 0.000000 0.987955 0.154742
vn 0.000000 0.987955 0.154742
vn 1.000000 0.000000 0.000000
vn 1.000000 0.000000 0.000000
vn 1.000000 0.000000 0.000000
vn 1.000000 0.000000 0.000000
vn 0.000000 -0.987956 -0.154736
vn 0.000000 -0.987956 -0.154736
vn 0.000000 -0.987956 -0.154736
vn 0.000000 -0.987956 -0.154736
vn 0.000000 0.154742 -0.987955
vn 0.000000 0.154742 -0.987955
vn 0.000000 0.154742 -0.987955
vn 0.000000 0.154742 -0.987955
vn 0.000000 -0.154743 0.987955
vn 0.000000 -0.154743 0.987955
vn 0.000000 -0.154743 0.987955
vn 0.000000 -0.154743 0.987955
vn -1.000000 0.000000 0.000000
vn -1.000000 0.000000 0.000000
vn -1.000000 0.000000 0.000000
vn -1.000000 0.000000 0.000000
vn 0.000000 1.000000 0.000000
vn 0.000000 1.000000 0.000000
vn 0.000000 1.000000 0.000000
vn 0.000000 1.000000 0.000000
vn 1.000000 0.000000 0.000000
vn 1.000000 0.000000 0.000000
vn 1.000000 0.000000 0.000000
vn 1.000000 0.000000 0.000000
vn 0.000000 -1.000000 -0.000000
vn 0.000000 -1.000000 -0.000000
vn 0.000000 -1.000000 -0.000000
vn 0.000000 -1.000000 -0.000000
vn 0.000000 0.000000 -1.000000
vn 0.000000 0.000000 -1.000000
vn 0.000000 0.000000 -1.000000
vn 0.000000 0.000000 -1.000000
vn 0.000000 -0.000000 1.000000
vn 0.000000 -0.000000 1.000000
vn 0.000000 -0.000000 1.000000
vn 0.000000 -0.000000 1.000000
vn 0.000000 -0.446162 0.894952
vn 0.000000 -0.446162 0.894952
vn 0.000000 -0.446162 0.894952
vn 0.000000 -0.446162 0.894952
vn 0.000000 0.000000 -1.000000
vn 0.000000 0.000000 -1.000000
vn 0.000000 0.000000 -1.000000
vn 0.000000 0.000000 -1.000000
vn 1.000000 0.000000 0.000000
vn 1.000000 0.000000 0.000000
vn 1.000000 0.000000 0.000000
vn 1.000000 0.000000 0.000000
vn 0.000000 -1.000000 -0.000000
vn 0.000000 -1.000000 -0.000000
vn 0.000000 -1.000000 -0.000000
vn 0.000000 -1.000000 -0.000000
vn -1.000000 0.000000 0.000000
vn -1.000000 0.000000 0.000000
vn -1.000000 0.000000 0.000000
vn -1.000000 0.000000 0.000000
vn 0.000000 1.000000 0.000000
vn 0.000000 1.000000 0.000000
vn 0.000000 1.000000 0.000000
vn 0.000000 1.000000 0.000000
vn -1.000000 0.000000 0.000000
vn -1.000000 0.000000 0.000000
vn -1.000000 0.000000 0.000000
vn -1.000000 0.000000 0.000000
vn -1.000000 0.000000 0.000000
vn 0.000000 -1.000000 -0.000000
vn 0.000000 -0.958002 0.286763
vn 0.000000 -1.000000 -0.000000
vn 0.000000 -0.958002 0.286763
vn 0.000000 -0.835534 0.549439
f 3/3/3 2/2/2 1/1/1
f 5/5/5 3/3/3 4/4/4
f 8/8/8 7/7/7 6/6/6
f 11/11/11 10/10/10 9/9/9
f 14/14/14 13/13/13 12/12/12
f 16/16/16 14/14/14 15/15/15
f 19/19/19 18/18/18 17/17/17
f 22/22/22 21/21/21 20/20/20
f 25/25/25 24/24/24 23/23/23
f 28/28/28 27/27/27 26/26/26
f 31/31/31 30/30/30 29/29/29
f 34/34/34 33/33/33 32/32/32
f 37/37/37 36/36/36 35/35/35
f 40/40/40 39/39/39 38/38/38
f 43/43/43 42/42/42 41/41/41
f 46/46/46 45/45/45 44/44/44
f 49/49/49 48/48/48 47/47/47
f 51/51/51 49/49/49 50/50/50
f 53/53/53 52/52/52 51/51/51
f 55/55/55 52/52/52 54/54/54
f 57/57/57 55/55/55 56/56/56
f 58/58/58 57/57/57 56/56/56
f 61/61/61 60/60/60 59/59/59
f 64/64/64 63/63/63 62/62/62
f 67/67/67 66/66/66 65/65/65
f 70/70/70 69/69/69 68/68/68
f 72/72/72 71/71/71 68/68/68
f 72/72/72 74/74/74 73/73/73
f 74/74/74 75/75/75 73/73/73
f 78/78/78 77/77/77 76/76/76
f 77/77/77 80/80/80 79/79/79
f 77/77/77 81/81/81 80/80/80
f 81/81/81 82/82/82 80/80/80
f 85/85/85 84/84/84 83/83/83
f 88/88/88 87/87/87 86/86/86
f 89/89/89 88/88/88 86/86/86
f 92/92/92 91/91/91 90/90/90
f 93/93/93 92/92/92 90/90/90
f 96/96/96 95/95/95 94/94/94
f 97/97/97 96/96/96 94/94/94
f 100/100/100 99/99/99 98/98/98
f 101/101/101 100/100/100 98/98/98
f 104/104/104 103/103/103 102/102/102
f 105/105/105 104/104/104 102/102/102
f 108/108/108 107/107/107 106/106/106
f 109/109/109 108/108/108 106/106/106
f 112/112/112 111/111/111 110/110/110
f 113/113/113 112/112/112 110/110/110
f 116/116/116 115/115/115 114/114/114
f 117/117/117 116/116/116 114/114/114
f 120/120/120 119/119/119 118/118/118
f 121/121/121 120/120/120 118/118/118
f 124/124/124 123/123/123 122/122/122
f 125/125/125 124/124/124 122/122/122
f 128/128/128 127/127/127 126/126/126
f 129/129/129 128/128/128 126/126/126
f 132/132/132 131/131/131 130/130/130
f 133/133/133 132/132/132 130/130/130
f 136/136/136 135/135/135 134/134/134
f 137/137/137 136/136/136 134/134/134
f 140/140/140 139/139/139 138/138/138
f 141/141/141 140/140/140 138/138/138
f 144/144/144 143/143/143 142/142/142
f 145/145/145 144/144/144 142/142/142
f 148/148/148 147/147/147 146/146/146
f 149/149/149 148/148/148 146/146/146
f 152/152/152 151/151/151 150/150/150
f 153/153/153 152/152/152 150/150/150
f 156/156/156 155/155/155 154/154/154
f 157/157/157 156/156/156 154/154/154
f 160/160/160 159/159/159 158/158/158
f 161/161/161 160/160/160 158/158/158
f 164/164/164 163/163/163 162/162/162
f 163/163/163 165/165/165 162/162/162
f 163/163/163 166/166/166 165/165/165
f 169/169/169 168/168/168 167/167/167
f 168/168/168 170/170/170 167/167/167
f 168/168/168 171/171/171 170/170/170
