v 0.330392 0.314720 -0.004849
v -0.193945 0.359647 -0.004849
v -0.238872 -0.164690 -0.004849
v 0.285465 -0.209617 -0.004849
v 0.330392 0.314720 0.051993
v 0.285464 -0.209617 0.051993
v -0.238872 -0.164690 0.051993
v -0.193945 0.359647 0.051993
v 0.330392 0.314720 -0.004849
v 0.285465 -0.209617 -0.004849
v 0.285464 -0.209617 0.051993
v 0.330392 0.314720 0.051993
v 0.285465 -0.209617 -0.004849
v -0.238872 -0.164690 -0.004849
v -0.238872 -0.164690 0.051993
v 0.285464 -0.209617 0.051993
v -0.238872 -0.164690 -0.004849
v -0.193945 0.359647 -0.004849
v -0.193945 0.359647 0.051993
v -0.238872 -0.164690 0.051993
v 0.330392 0.314720 0.051993
v -0.193945 0.359647 0.051993
v -0.193945 0.359647 -0.004849
v 0.330392 0.314720 -0.004849
v 0.149923 0.254266 -0.028421
v -0.373173 0.196662 -0.028421
v -0.315568 -0.326434 -0.028421
v 0.207527 -0.268829 -0.028421
v 0.149923 0.254266 0.028421
v 0.207527 -0.268830 0.028421
v -0.315569 -0.326434 0.028421
v -0.373173 0.196662 0.028421
v 0.149923 0.254266 -0.028421
v 0.207527 -0.268829 -0.028421
v 0.207527 -0.268830 0.028421
v 0.149923 0.254266 0.028421
v 0.207527 -0.268829 -0.028421
v -0.315568 -0.326434 -0.028421
v -0.315569 -0.326434 0.028421
v 0.207527 -0.268830 0.028421
v -0.315568 -0.326434 -0.028421
v -0.373173 0.196662 -0.028421
v -0.373173 0.196662 0.028421
v -0.315569 -0.326434 0.028421
v 0.149923 0.254266 0.028421
v -0.373173 0.196662 0.028421
v -0.373173 0.196662 -0.028421
v 0.149923 0.254266 -0.028421
vt 0.821493983 0.513198018
vt 0.821493983 0.473242015
vt 0.788636982 0.473242015
vt 0.788636982 0.513198018
vt 0.854351997 0.433286995
vt 0.821493983 0.433286995
vt 0.821493983 0.473242015
vt 0.854351997 0.473242015
vt 0.857900977 0.473242015
vt 0.857900977 0.513007998
vt 0.861450016 0.513007998
vt 0.861450016 0.473242015
vt 0.861450016 0.473242015
vt 0.861450016 0.433477014
vt 0.857900977 0.433477014
vt 0.857900977 0.473242015
vt 0.861450016 0.473242015
vt 0.861450016 0.513007998
vt 0.864998996 0.513007998
vt 0.864998996 0.473242015
vt 0.854351997 0.473242015
vt 0.854351997 0.513007998
vt 0.857900977 0.513007998
vt 0.857900977 0.473242015
vt 0.0888409987 0.455078006
vt 0.0888409987 0.477214992
vt 0.107045002 0.477214992
vt 0.107045002 0.455078006
vt 0.0888409987 0.43294099
vt 0.0706359968 0.43294099
vt 0.0706359968 0.455078006
vt 0.0888409987 0.455078006
vt 0.112943999 0.455078006
vt 0.112943999 0.477109998
vt 0.114910997 0.477109998
vt 0.114910997 0.455078006
vt 0.109012 0.455078006
vt 0.109012 0.433046013
vt 0.107045002 0.433046013
vt 0.107045002 0.455078006
vt 0.110978 0.433046013
vt 0.110978 0.455078006
vt 0.112943999 0.455078006
vt 0.112943999 0.433046013
vt 0.114910997 0.455078006
vt 0.114910997 0.433046013
vt 0.112943999 0.433046013
vt 0.112943999 0.455078006
vn 0.000000 -0.000000 -1.000000
vn 0.000000 -0.000000 -1.000000
vn 0.000000 -0.000000 -1.000000
vn 0.000000 -0.000000 -1.000000
vn 0.000000 0.000000 1.000000
vn 0.000000 0.000000 1.000000
vn 0.000000 0.000000 1.000000
vn 0.000000 0.000000 1.000000
vn 0.996349 -0.085372 0.000009
vn 0.996349 -0.085371 0.000018
vn 0.996349 -0.085372 0.000009
vn 0.996349 -0.085372 -0.000000
vn -0.085371 -0.996349 -0.000000
vn -0.085371 -0.996349 -0.000000
vn -0.085371 -0.996349 -0.000000
vn -0.085371 -0.996349 -0.000000
vn -0.996349 0.085371 0.000000
vn -0.996349 0.085371 0.000000
vn -0.996349 0.085371 0.000000
vn -0.996349 0.085371 0.000000
vn 0.085371 0.996349 0.000000
vn 0.085371 0.996349 0.000000
vn 0.085371 0.996349 0.000000
vn 0.085371 0.996349 0.000000
vn 0.000000 -0.000000 -1.000000
vn 0.000000 -0.000000 -1.000000
vn 0.000000 -0.000000 -1.000000
vn 0.000000 -0.000000 -1.000000
vn 0.000000 0.000000 1.000000
vn 0.000000 0.000000 1.000000
vn 0.000000 0.000000 1.000000
vn 0.000000 0.000000 1.000000
vn 0.993991 0.109460 0.000000
vn 0.993991 0.109460 0.000000
vn 0.993991 0.109460 0.000000
vn 0.993991 0.109460 0.000000
vn 0.109461 -0.993991 -0.000008
vn 0.109462 -0.993991 -0.000000
vn 0.109461 -0.993991 -0.000008
vn 0.109460 -0.993991 -0.000018
vn -0.993991 -0.109460 -0.000009
vn -0.993991 -0.109461 -0.000000
vn -0.993991 -0.109460 -0.000009
vn -0.993991 -0.109459 -0.000018
vn -0.109460 0.993991 0.000000
vn -0.109460 0.993991 0.000000
vn -0.109460 0.993991 0.000000
vn -0.109460 0.993991 0.000000
f 3/3/3 2/2/2 1/1/1
f 4/4/4 3/3/3 1/1/1
f 7/7/7 6/6/6 5/5/5
f 8/8/8 7/7/7 5/5/5
f 11/11/11 10/10/10 9/9/9
f 12/12/12 11/11/11 9/9/9
f 15/15/15 14/14/14 13/13/13
f 16/16/16 15/15/15 13/13/13
f 19/19/19 18/18/18 17/17/17
f 20/20/20 19/19/19 17/17/17
f 23/23/23 22/22/22 21/21/21
f 24/24/24 23/23/23 21/21/21
f 27/27/27 26/26/26 25/25/25
f 28/28/28 27/27/27 25/25/25
f 31/31/31 30/30/30 29/29/29
f 32/32/32 31/31/31 29/29/29
f 35/35/35 34/34/34 33/33/33
f 36/36/36 35/35/35 33/33/33
f 39/39/39 38/38/38 37/37/37
f 40/40/40 39/39/39 37/37/37
f 43/43/43 42/42/42 41/41/41
f 44/44/44 43/43/43 41/41/41
f 47/47/47 46/46/46 45/45/45
f 48/48/48 47/47/47 45/45/45
