v 3.000000 0.500000 0.000000
v 2.500000 0.500000 2.750000
v 2.500000 0.500000 0.000000
v -3.500000 4.500000 5.250000
v -3.500000 -4.500000 4.750000
v -3.500000 4.500000 4.750000
v -3.500000 -4.500000 5.250000
v -3.500000 -4.500000 4.750000
v -3.500000 4.500000 5.250000
v -2.500000 -3.000000 1.000000
v -2.500000 -3.500000 3.750000
v -2.500000 -3.000000 3.750000
v -2.500000 -3.500000 -0.000000
v -2.500000 -3.500000 3.750000
v 2.500000 -0.500000 2.750000
v 3.000000 -0.500000 1.000000
v 2.500000 -0.500000 1.000000
v 2.500000 -3.500000 5.250000
v 3.500000 -4.500000 5.250000
v -3.500000 -4.500000 5.250000
v 2.000000 3.500000 3.750000
v -2.500000 3.500000 4.250000
v 2.500000 3.500000 4.250000
v 2.500000 3.500000 4.250000
v 2.000000 3.500000 1.000000
v 2.500000 -3.000000 1.000000
v 2.500000 -3.500000 -0.000000
v 2.500000 -0.500000 1.000000
v -3.000000 -4.000000 4.750000
v -3.000000 3.000000 3.750000
v -3.000000 4.000000 4.750000
v 3.000000 3.000000 0.000000
v 2.500000 3.000000 0.000000
v 3.000000 3.000000 2.750000
v 2.000000 4.000000 3.750000
v -3.000000 4.000000 4.750000
v -2.000000 4.000000 3.750000
v 2.000000 3.500000 3.750000
v 2.000000 4.000000 1.000000
v 2.000000 4.000000 3.750000
v 3.000000 -4.000000 4.750000
v 2.000000 -4.000000 4.750000
v 3.500000 -4.500000 4.750000
v 2.000000 -4.000000 4.750000
v -3.500000 -4.500000 4.750000
v -3.000000 4.000000 4.750000
v -3.500000 4.500000 4.750000
v 3.000000 -4.000000 4.750000
v 3.500000 -4.000000 4.750000
v 3.000000 0.500000 4.750000
v 3.500000 4.500000 4.750000
v 3.000000 4.000000 4.750000
v 3.000000 0.500000 2.750000
v 2.500000 0.500000 2.750000
v 3.000000 0.500000 0.000000
v 2.500000 -3.500000 -0.000000
v 2.500000 -3.000000 1.000000
v 2.500000 -3.500000 4.250000
v 2.500000 -3.500000 4.250000
v 2.500000 -3.000000 1.000000
v 2.500000 -3.000000 3.750000
v 2.500000 -0.500000 1.000000
v 2.500000 -3.500000 -0.000000
v 2.500000 0.500000 0.000000
v -2.500000 -3.500000 5.250000
v -2.500000 -3.500000 4.750000
v 2.500000 -3.500000 5.250000
v -2.500000 -3.500000 4.250000
v -2.500000 -3.500000 3.750000
v -2.000000 -3.500000 3.750000
v 3.500000 4.500000 4.750000
v -3.000000 4.000000 4.750000
v 3.000000 4.000000 4.750000
v 2.500000 -3.500000 5.250000
v -2.500000 -3.500000 4.750000
v 2.500000 -3.500000 4.750000
v -2.500000 3.500000 4.250000
v 2.000000 3.500000 3.750000
v -2.000000 3.500000 3.750000
v 2.500000 -3.500000 4.250000
v 2.500000 -3.000000 3.750000
v 2.500000 -0.500000 3.750000
v 2.500000 3.500000 4.250000
v 2.500000 -3.500000 4.250000
v 2.500000 0.500000 2.750000
v 2.500000 3.000000 2.750000
v 2.500000 -0.500000 2.750000
v 2.500000 -0.500000 1.000000
v 2.500000 0.500000 0.000000
v 2.500000 3.500000 0.000000
v 2.500000 3.000000 0.000000
v -2.500000 3.500000 4.750000
v -2.500000 -3.500000 4.750000
v -2.500000 3.500000 5.250000
v -2.500000 3.500000 4.250000
v -2.000000 3.500000 3.750000
v -2.000000 3.500000 1.000000
v 3.000000 3.000000 2.750000
v 2.500000 3.000000 0.000000
v 2.500000 3.000000 2.750000
v 3.000000 -0.500000 1.000000
v 3.000000 0.500000 2.750000
v 3.000000 0.500000 0.000000
v 2.000000 3.500000 1.000000
v 2.000000 4.000000 1.000000
v 2.000000 3.500000 3.750000
v -2.500000 -3.500000 3.750000
v -2.000000 -3.500000 1.000000
v -2.000000 -3.500000 3.750000
v 2.000000 -3.500000 3.750000
v -2.500000 -3.500000 4.250000
v 2.000000 -3.500000 1.000000
v 2.500000 -3.500000 4.250000
v -2.500000 -3.500000 4.250000
v 2.000000 4.000000 1.000000
v 3.000000 4.000000 -6.000000
v 3.000000 4.000000 2.750000
v 2.500000 3.500000 4.250000
v 2.500000 3.000000 2.750000
v 2.500000 3.500000 0.000000
v 2.500000 3.000000 0.000000
v -2.000000 3.500000 0.000000
v 2.500000 3.500000 0.000000
v 3.000000 -4.000000 4.750000
v 2.000000 -4.000000 3.750000
v 2.000000 -4.000000 4.750000
v 3.000000 4.000000 -6.000000
v 3.000000 3.000000 0.000000
v 3.000000 4.000000 2.750000
v -3.000000 4.000000 4.750000
v 3.500000 4.500000 4.750000
v -3.500000 4.500000 4.750000
v -2.500000 3.500000 5.250000
v -2.500000 -3.500000 4.750000
v -2.500000 -3.500000 5.250000
v -1.900000 -3.400000 3.650000
v 1.900000 -3.400000 3.650000
v -1.900000 -3.400000 3.850000
v -2.400000 3.100000 3.850000
v -2.400000 2.900000 3.650000
v -2.400000 -2.900000 3.650000
v 3.100000 3.100000 2.850000
v 3.100000 2.900000 2.650000
v 3.100000 0.600000 2.650000
v 3.100000 2.900000 2.650000
v 3.100000 3.100000 2.850000
v 3.100000 3.100000 -0.100000
v 3.100000 -3.100000 3.850000
v 2.400000 -2.900000 3.850000
v 3.100000 -0.400000 3.850000
v 3.100000 3.100000 2.850000
v 3.100000 0.600000 2.650000
v 3.100000 0.400000 2.850000
v 3.100000 -0.600000 1.100000
v 3.100000 -2.900000 0.900000
v 3.100000 -2.900000 1.100000
v 2.400000 -2.900000 1.100000
v 2.400000 -3.100000 0.900000
v 2.400000 -0.400000 0.900000
v 2.400000 -0.400000 1.100000
v 2.400000 -0.600000 1.100000
v -2.100000 -4.100000 0.900000
v -1.900000 -4.100000 1.100000
v 1.900000 -4.100000 0.900000
v 2.400000 0.600000 -0.100000
v 2.400000 0.600000 2.650000
v 2.400000 0.400000 -0.100000
v -3.100000 -2.900000 3.650000
v -3.100000 -3.100000 3.850000
v -3.100000 -3.100000 3.650000
v 2.100000 4.100000 3.850000
v -1.900000 3.400000 3.850000
v -1.900000 4.100000 3.850000
v 2.400000 -0.400000 0.900000
v 3.100000 -2.900000 0.900000
v 3.100000 -0.400000 0.900000
v 2.400000 -0.400000 0.900000
v 2.400000 -3.100000 0.900000
v 3.100000 -2.900000 0.900000
v 2.400000 -2.900000 3.850000
v 3.100000 -3.100000 3.850000
v 2.400000 -3.100000 3.850000
v -2.100000 -4.100000 0.900000
v 1.900000 -3.400000 0.900000
v -2.100000 -3.400000 0.900000
v 2.400000 -2.900000 3.850000
v 2.400000 -3.100000 3.850000
v 2.400000 -2.900000 3.650000
v -2.100000 3.400000 0.900000
v -1.900000 3.400000 1.100000
v 1.900000 3.400000 0.900000
v 3.100000 2.900000 -0.100000
v 3.100000 2.900000 2.650000
v 3.100000 3.100000 -0.100000
v 3.100000 -0.400000 3.850000
v 2.400000 -2.900000 3.850000
v 2.400000 -0.400000 3.850000
v 3.100000 3.100000 2.850000
v 3.100000 0.400000 2.850000
v 2.400000 3.100000 2.850000
v 3.100000 -0.400000 0.900000
v 2.400000 -0.400000 1.100000
v 2.400000 -0.400000 0.900000
v -1.900000 -4.100000 1.100000
v -2.100000 -4.100000 0.900000
v -2.100000 -4.100000 3.850000
v 2.400000 -3.100000 0.900000
v 3.100000 -3.100000 3.650000
v 3.100000 -3.100000 0.900000
v 1.900000 -4.100000 0.900000
v -1.900000 -4.100000 1.100000
v 1.900000 -4.100000 1.100000
v -2.100000 -4.100000 3.850000
v -1.900000 -4.100000 3.650000
v -1.900000 -4.100000 3.850000
v 3.100000 -3.100000 0.900000
v 3.100000 -2.900000 0.900000
v 2.400000 -3.100000 0.900000
v -3.100000 3.100000 3.850000
v -2.400000 2.900000 3.850000
v -3.100000 -3.100000 3.850000
v 2.100000 -3.400000 3.850000
v -1.900000 -4.100000 3.850000
v -1.900000 -3.400000 3.850000
v 2.400000 3.100000 2.850000
v 3.100000 0.400000 2.850000
v 2.400000 0.400000 2.850000
v -1.900000 -4.100000 3.850000
v 2.100000 -3.400000 3.850000
v 2.100000 -4.100000 3.850000
v -2.100000 -3.400000 3.850000
v -1.900000 -3.400000 3.850000
v -2.100000 -4.100000 3.850000
v -3.100000 -2.900000 0.900000
v -3.100000 2.900000 1.100000
v -3.100000 -2.900000 1.100000
v -3.100000 2.900000 0.900000
v -3.100000 2.900000 1.100000
v 2.400000 0.600000 2.650000
v 2.400000 0.400000 2.850000
v 2.400000 0.400000 -0.100000
v 1.900000 4.100000 0.900000
v 2.100000 3.400000 0.900000
v 2.100000 4.100000 0.900000
v 1.900000 3.400000 0.900000
v -1.900000 3.400000 1.100000
v 1.900000 3.400000 1.100000
v -2.100000 3.400000 3.850000
v -1.900000 3.400000 3.650000
v -1.900000 3.400000 3.850000
v 3.100000 -3.100000 0.900000
v 3.100000 -2.900000 1.100000
v 3.100000 -2.900000 0.900000
v -2.100000 3.400000 0.900000
v -2.100000 3.400000 3.850000
v -1.900000 3.400000 1.100000
v -2.400000 3.100000 3.850000
v -2.400000 2.900000 3.850000
v -3.100000 3.100000 3.850000
v -2.400000 2.900000 1.100000
v -2.400000 -2.900000 0.900000
v -2.400000 -2.900000 1.100000
v -1.900000 -3.400000 3.850000
v -2.100000 -3.400000 3.850000
v -1.900000 -3.400000 3.650000
v 1.900000 -3.400000 0.900000
v 2.100000 -4.100000 0.900000
v 2.100000 -3.400000 0.900000
v 2.400000 -2.900000 1.100000
v 2.400000 -0.400000 0.900000
v 2.400000 -0.600000 1.100000
v -2.100000 3.400000 0.900000
v 1.900000 4.100000 0.900000
v -2.100000 4.100000 0.900000
v 3.100000 3.100000 -0.100000
v 2.400000 3.100000 2.850000
v 2.400000 3.100000 -0.100000
v 3.100000 3.100000 2.850000
v 2.400000 3.100000 2.850000
v -2.400000 -3.100000 3.850000
v -3.100000 -3.100000 3.850000
v -2.400000 2.900000 3.850000
v -3.100000 -3.100000 0.900000
v -2.400000 -3.100000 3.650000
v -2.400000 -3.100000 0.900000
v -3.100000 -3.100000 3.850000
v -3.100000 -3.100000 3.650000
v -2.400000 -3.100000 3.850000
v -1.900000 4.100000 3.650000
v 1.900000 4.100000 3.650000
v -1.900000 4.100000 3.850000
v -2.400000 2.900000 3.850000
v -2.400000 3.100000 3.850000
v -2.400000 2.900000 3.650000
v -1.900000 3.400000 3.850000
v 2.100000 4.100000 3.850000
v 2.100000 3.400000 3.850000
v -2.100000 4.100000 3.850000
v -1.900000 4.100000 3.850000
v -2.100000 3.400000 3.850000
v -3.100000 2.900000 3.650000
v -3.100000 -3.100000 3.850000
v -3.100000 -2.900000 3.650000
v -3.100000 3.100000 3.850000
v -3.100000 -3.100000 3.850000
v -3.100000 2.900000 1.100000
v -3.100000 3.100000 0.900000
v -3.100000 2.900000 0.900000
v -3.100000 -2.900000 1.100000
v -3.100000 -3.100000 0.900000
v -3.100000 -3.100000 3.650000
v -3.100000 -2.900000 3.650000
v -3.100000 3.100000 0.900000
v -3.100000 2.900000 1.100000
v -3.100000 -2.900000 0.900000
v 1.900000 3.400000 0.900000
v 1.900000 3.400000 1.100000
v 2.100000 3.400000 0.900000
v 3.100000 0.600000 2.650000
v 2.400000 0.600000 -0.100000
v 3.100000 0.600000 -0.100000
v -1.900000 -3.400000 1.100000
v 1.900000 -3.400000 0.900000
v 1.900000 -3.400000 1.100000
v -2.400000 -2.900000 0.900000
v -3.100000 -3.100000 0.900000
v -2.400000 -3.100000 0.900000
v -2.400000 2.900000 3.650000
v -2.400000 -2.900000 3.650000
v -2.400000 2.900000 3.850000
v 1.900000 -4.100000 0.900000
v 1.900000 -4.100000 1.100000
v 2.100000 -4.100000 0.900000
v 2.400000 0.600000 2.650000
v 2.400000 0.600000 -0.100000
v 3.100000 0.600000 2.650000
v 1.900000 4.100000 1.100000
v -1.900000 4.100000 1.100000
v 1.900000 4.100000 0.900000
v -1.900000 4.100000 3.850000
v -2.100000 4.100000 3.850000
v -1.900000 4.100000 3.650000
v 3.500000 4.500000 4.750000
v 3.500000 -4.000000 4.750000
v 3.500000 4.500000 5.250000
v 3.500000 -4.500000 5.250000
v 3.500000 -4.500000 4.750000
v -2.500000 -3.500000 -0.000000
v -2.500000 -3.000000 1.000000
v -2.500000 3.500000 0.000000
v -2.500000 3.000000 1.000000
v 2.000000 -3.500000 1.000000
v 2.500000 -3.500000 -0.000000
v 2.500000 -3.500000 4.250000
v -2.500000 -3.500000 -0.000000
v -2.000000 -3.500000 1.000000
v -2.500000 -3.500000 3.750000
v 3.000000 0.500000 0.000000
v 3.000000 4.000000 -6.000000
v 3.000000 -4.000000 -6.000000
v 3.000000 -3.000000 1.000000
v 3.000000 -0.500000 1.000000
v 3.000000 4.000000 -6.000000
v 3.000000 3.000000 0.000000
v 3.000000 -4.000000 -6.000000
v 3.000000 -4.000000 4.750000
v 3.000000 -3.000000 3.750000
v 3.000000 4.000000 2.750000
v 3.000000 3.000000 2.750000
v 3.000000 4.000000 4.750000
v 3.000000 0.500000 4.750000
v 3.000000 0.500000 2.750000
v 3.000000 -0.500000 3.750000
v 3.000000 -4.000000 4.750000
v 2.000000 3.500000 1.000000
v -2.000000 3.500000 1.000000
v 2.000000 4.000000 1.000000
v -2.000000 4.000000 1.000000
v -2.500000 3.500000 4.250000
v -2.000000 3.500000 1.000000
v -2.500000 3.500000 0.000000
v -2.000000 3.500000 0.000000
v 2.000000 3.500000 1.000000
v 2.500000 3.500000 0.000000
v 2.500000 3.500000 4.250000
v 2.500000 -0.500000 3.750000
v 3.000000 -0.500000 3.750000
v 2.500000 -0.500000 2.750000
v 3.000000 -0.500000 1.000000
v -2.500000 -3.500000 4.750000
v 2.500000 3.500000 4.750000
v 2.500000 -3.500000 4.750000
v -2.500000 3.500000 4.750000
v -2.500000 3.000000 3.750000
v -3.000000 3.000000 1.000000
v -3.000000 3.000000 3.750000
v -2.500000 3.000000 1.000000
v -2.000000 4.000000 3.750000
v 2.000000 3.500000 3.750000
v 2.000000 4.000000 3.750000
v -2.000000 3.500000 3.750000
v -2.500000 -3.000000 1.000000
v -3.000000 -3.000000 1.000000
v -2.500000 3.000000 1.000000
v -3.000000 3.000000 1.000000
v 3.000000 -3.000000 3.750000
v 2.500000 -0.500000 3.750000
v 2.500000 -3.000000 3.750000
v 3.000000 -0.500000 3.750000
v -2.000000 -4.000000 3.750000
v -2.000000 -4.000000 1.000000
v -3.000000 -4.000000 4.750000
v -3.000000 -4.000000 -6.000000
v 2.000000 -4.000000 1.000000
v 3.000000 -4.000000 -6.000000
v -2.500000 3.500000 4.250000
v 2.500000 -3.500000 4.250000
v 2.500000 3.500000 4.250000
v -2.500000 -3.500000 4.250000
v 2.500000 3.500000 4.750000
v -2.500000 3.500000 4.750000
v 2.500000 3.500000 5.250000
v -2.500000 3.500000 5.250000
v 2.500000 -3.000000 3.750000
v 3.000000 -3.000000 1.000000
v 3.000000 -3.000000 3.750000
v 2.500000 -3.000000 1.000000
v 2.000000 -4.000000 1.000000
v -2.000000 -4.000000 1.000000
v 2.000000 -3.500000 1.000000
v -2.000000 -3.500000 1.000000
v 2.000000 -4.000000 3.750000
v 2.000000 -4.000000 1.000000
v 2.000000 -3.500000 3.750000
v 2.000000 -3.500000 1.000000
v 3.000000 -0.500000 1.000000
v 2.500000 -3.000000 1.000000
v 2.500000 -0.500000 1.000000
v 3.000000 -3.000000 1.000000
v -2.000000 4.000000 3.750000
v -2.000000 3.500000 1.000000
v -2.000000 3.500000 3.750000
v -2.000000 4.000000 1.000000
v 3.500000 4.500000 5.250000
v -3.500000 4.500000 4.750000
v 3.500000 4.500000 4.750000
v -3.500000 4.500000 5.250000
v -3.000000 -4.000000 4.750000
v -3.500000 -4.500000 4.750000
v 2.000000 -4.000000 4.750000
v -3.000000 4.000000 4.750000
v 2.500000 -3.500000 4.750000
v 2.500000 3.500000 4.750000
v 2.500000 -3.500000 5.250000
v 2.500000 3.500000 5.250000
v 3.000000 0.500000 2.750000
v 2.500000 3.000000 2.750000
v 2.500000 0.500000 2.750000
v 3.000000 3.000000 2.750000
v -3.000000 4.000000 -6.000000
v -3.000000 -3.000000 1.000000
v -3.000000 -4.000000 -6.000000
v -3.000000 3.000000 1.000000
v -3.000000 4.000000 1.000000
v 3.000000 -4.000000 -6.000000
v 2.000000 -4.000000 1.000000
v 3.000000 -4.000000 4.750000
v 2.000000 -4.000000 3.750000
v 2.000000 -4.000000 4.750000
v -2.000000 -4.000000 3.750000
v -3.000000 -4.000000 4.750000
v -3.000000 3.000000 3.750000
v -3.000000 3.000000 1.000000
v -3.000000 4.000000 1.000000
v -3.000000 4.000000 4.750000
v -3.000000 -4.000000 4.750000
v -3.000000 -3.000000 3.750000
v -3.000000 -3.000000 1.000000
v -3.000000 -4.000000 -6.000000
v -3.000000 4.000000 -6.000000
v -2.000000 4.000000 1.000000
v -3.000000 4.000000 1.000000
v 3.000000 4.000000 -6.000000
v -2.000000 4.000000 1.000000
v -2.000000 4.000000 3.750000
v 2.000000 4.000000 1.000000
v -3.000000 4.000000 4.750000
v -3.000000 4.000000 1.000000
v 3.000000 4.000000 2.750000
v 2.000000 4.000000 3.750000
v 3.000000 4.000000 4.750000
v 3.000000 4.000000 2.750000
v -2.500000 -3.500000 -0.000000
v 2.500000 0.500000 0.000000
v 2.500000 -3.500000 -0.000000
v -2.000000 3.500000 0.000000
v -2.500000 3.500000 0.000000
v 2.500000 3.000000 0.000000
v 3.000000 3.000000 0.000000
v 3.000000 0.500000 0.000000
v -2.500000 -3.000000 1.000000
v -2.500000 -3.000000 3.750000
v -3.000000 -3.000000 1.000000
v -3.000000 -3.000000 3.750000
v -2.000000 -3.500000 3.750000
v 2.000000 -4.000000 3.750000
v 2.000000 -3.500000 3.750000
v -2.000000 -4.000000 3.750000
v -2.000000 -3.500000 3.750000
v -2.000000 -4.000000 1.000000
v -2.000000 -4.000000 3.750000
v -2.000000 -3.500000 1.000000
v 3.500000 -4.500000 4.750000
v -3.500000 -4.500000 4.750000
v 3.500000 -4.500000 5.250000
v -3.500000 -4.500000 5.250000
v -2.500000 -3.500000 4.250000
v -2.500000 3.000000 3.750000
v -2.500000 -3.000000 3.750000
v -2.500000 -3.500000 3.750000
v -2.500000 -3.500000 4.250000
v -2.500000 3.500000 4.250000
v -2.500000 3.000000 1.000000
v -2.500000 3.500000 0.000000
v -2.500000 3.000000 3.750000
v -3.000000 -3.000000 3.750000
v -2.500000 -3.000000 3.750000
v -3.000000 3.000000 3.750000
v 2.400000 0.400000 -0.100000
v 3.100000 0.400000 2.850000
v 3.100000 0.400000 -0.100000
v 2.400000 0.400000 2.850000
v 2.400000 -3.100000 3.850000
v 2.400000 -2.900000 1.100000
v 2.400000 -2.900000 3.650000
v 2.400000 -3.100000 0.900000
v 2.400000 -0.600000 3.650000
v 3.100000 -2.900000 3.650000
v 3.100000 -0.600000 3.650000
v 2.400000 -2.900000 3.650000
v 1.900000 -3.400000 3.650000
v 2.100000 -3.400000 3.850000
v -1.900000 -3.400000 3.850000
v 2.100000 -3.400000 0.900000
v 1.900000 -3.400000 1.100000
v 1.900000 -3.400000 0.900000
v -2.400000 -3.100000 0.900000
v -2.400000 -3.100000 3.650000
v -2.400000 -2.900000 1.100000
v -2.400000 -2.900000 3.650000
v 2.400000 -3.100000 0.900000
v 2.400000 -3.100000 3.850000
v 3.100000 -3.100000 3.650000
v 3.100000 -3.100000 3.850000
v 2.100000 3.400000 0.900000
v 1.900000 4.100000 0.900000
v 1.900000 3.400000 0.900000
v -2.100000 3.400000 0.900000
v 2.400000 -0.600000 1.100000
v 2.400000 -0.400000 3.850000
v 2.400000 -0.600000 3.650000
v 2.400000 -0.600000 3.850000
v 3.100000 -2.900000 3.650000
v 2.400000 -2.900000 1.100000
v 3.100000 -2.900000 1.100000
v 2.400000 -2.900000 3.650000
v -1.900000 -3.400000 3.650000
v -1.900000 -3.400000 1.100000
v -1.900000 -4.100000 3.650000
v -1.900000 -4.100000 1.100000
v 2.400000 -0.600000 1.100000
v 2.400000 -0.400000 0.900000
v 2.400000 -0.400000 3.850000
v 2.400000 -0.400000 1.100000
v 2.400000 -0.600000 3.650000
v 2.400000 -2.900000 3.850000
v 3.100000 -0.600000 3.650000
v 3.100000 -0.600000 1.100000
v 2.400000 -0.600000 3.650000
v 2.400000 -0.600000 1.100000
v -2.400000 -3.100000 3.850000
v -2.400000 -2.900000 3.650000
v -2.400000 -3.100000 3.650000
v -2.400000 2.900000 3.850000
v -2.400000 3.100000 3.850000
v -2.400000 -3.100000 0.900000
v -2.400000 -2.900000 1.100000
v -2.400000 -2.900000 0.900000
v -2.400000 2.900000 1.100000
v -2.400000 2.900000 3.650000
v -2.400000 3.100000 0.900000
v -2.400000 -2.900000 0.900000
v 1.900000 4.100000 0.900000
v 2.100000 4.100000 0.900000
v 1.900000 4.100000 1.100000
v 1.900000 4.100000 3.650000
v 2.100000 4.100000 3.850000
v -1.900000 4.100000 3.850000
v 3.100000 -2.900000 1.100000
v 2.400000 -0.600000 1.100000
v 3.100000 -0.600000 1.100000
v 2.400000 -2.900000 1.100000
v 3.100000 -3.100000 3.850000
v 3.100000 -2.900000 3.650000
v 3.100000 -3.100000 3.650000
v 3.100000 -0.400000 3.850000
v 3.100000 -0.600000 3.650000
v 3.100000 -0.600000 1.100000
v 3.100000 -0.400000 0.900000
v 3.100000 -2.900000 0.900000
v -2.100000 -3.400000 3.850000
v -2.100000 -4.100000 3.850000
v -2.100000 -3.400000 0.900000
v -2.100000 -4.100000 0.900000
v 3.100000 0.400000 -0.100000
v 3.100000 0.600000 2.650000
v 3.100000 0.600000 -0.100000
v 3.100000 0.400000 2.850000
v 3.100000 -0.400000 3.850000
v 3.100000 -0.600000 3.650000
v 3.100000 -2.900000 3.650000
v 3.100000 -3.100000 3.850000
v -2.400000 3.100000 3.850000
v -3.100000 3.100000 3.850000
v -2.400000 3.100000 0.900000
v -3.100000 3.100000 0.900000
v 1.900000 -4.100000 3.650000
v 1.900000 -4.100000 1.100000
v 1.900000 -3.400000 3.650000
v 1.900000 -3.400000 1.100000
v 2.400000 3.100000 2.850000
v 2.400000 2.900000 2.650000
v 2.400000 3.100000 -0.100000
v 2.400000 2.900000 -0.100000
v -1.900000 -4.100000 3.650000
v 1.900000 -3.400000 3.650000
v -1.900000 -3.400000 3.650000
v 1.900000 -4.100000 3.650000
v -1.900000 -3.400000 1.100000
v -1.900000 -3.400000 3.650000
v -2.100000 -3.400000 3.850000
v -2.100000 -3.400000 0.900000
v 1.900000 -3.400000 0.900000
v -3.100000 -2.900000 3.650000
v -2.400000 -2.900000 3.650000
v -3.100000 2.900000 3.650000
v -2.400000 2.900000 3.650000
v -2.100000 -4.100000 0.900000
v 1.900000 -4.100000 0.900000
v 1.900000 -3.400000 0.900000
v 2.100000 -4.100000 0.900000
v -2.400000 -3.100000 3.650000
v -3.100000 -3.100000 3.850000
v -2.400000 -3.100000 3.850000
v -3.100000 -3.100000 0.900000
v -3.100000 -3.100000 3.650000
v -2.400000 -3.100000 0.900000
v 2.400000 2.900000 2.650000
v 2.400000 0.400000 2.850000
v 2.400000 0.600000 2.650000
v 2.400000 3.100000 2.850000
v 3.100000 -3.100000 0.900000
v 3.100000 -3.100000 3.650000
v 3.100000 -2.900000 1.100000
v 3.100000 -2.900000 3.650000
v 1.900000 -3.400000 1.100000
v -1.900000 -4.100000 1.100000
v -1.900000 -3.400000 1.100000
v 1.900000 -4.100000 1.100000
v -1.900000 3.400000 3.650000
v 1.900000 4.100000 3.650000
v -1.900000 4.100000 3.650000
v 1.900000 3.400000 3.650000
v -1.900000 3.400000 3.850000
v 1.900000 3.400000 3.650000
v -1.900000 3.400000 3.650000
v 2.100000 3.400000 3.850000
v 2.100000 3.400000 0.900000
v 1.900000 3.400000 1.100000
v 1.900000 4.100000 3.650000
v 1.900000 3.400000 1.100000
v 1.900000 4.100000 1.100000
v 1.900000 3.400000 3.650000
v -1.900000 3.400000 3.650000
v -1.900000 4.100000 1.100000
v -1.900000 3.400000 1.100000
v -1.900000 4.100000 3.650000
v 1.900000 4.100000 1.100000
v -1.900000 3.400000 1.100000
v -1.900000 4.100000 1.100000
v 1.900000 3.400000 1.100000
v -3.100000 3.100000 3.850000
v -2.400000 -3.100000 3.850000
v -3.100000 -3.100000 3.850000
v -2.400000 3.100000 3.850000
v 2.100000 3.400000 0.900000
v 2.100000 4.100000 3.850000
v 2.100000 4.100000 0.900000
v 2.100000 3.400000 3.850000
v 2.100000 -4.100000 0.900000
v 2.100000 -3.400000 3.850000
v 2.100000 -3.400000 0.900000
v 2.100000 -4.100000 3.850000
v -2.400000 -2.900000 3.650000
v -3.100000 -2.900000 1.100000
v -2.400000 -2.900000 1.100000
v -3.100000 -2.900000 3.650000
v 2.400000 -0.600000 3.850000
v 3.100000 -0.400000 3.850000
v 2.400000 -2.900000 3.850000
v 2.400000 -0.400000 3.850000
v 3.100000 -0.400000 0.900000
v 2.400000 -0.400000 3.850000
v 2.400000 -0.400000 0.900000
v 3.100000 -0.400000 3.850000
v 2.400000 -0.400000 1.100000
v -3.100000 -2.900000 1.100000
v -3.100000 -3.100000 3.650000
v -3.100000 -3.100000 0.900000
v -3.100000 -2.900000 0.900000
v -3.100000 2.900000 3.650000
v -2.400000 2.900000 1.100000
v -3.100000 2.900000 1.100000
v -2.400000 2.900000 3.650000
v -2.400000 -2.900000 1.100000
v -3.100000 2.900000 1.100000
v -2.400000 2.900000 1.100000
v -3.100000 -2.900000 1.100000
v 2.400000 2.900000 2.650000
v 3.100000 0.600000 2.650000
v 3.100000 2.900000 2.650000
v 2.400000 0.600000 2.650000
v -2.100000 4.100000 0.900000
v -2.100000 3.400000 3.850000
v -2.100000 3.400000 0.900000
v -2.100000 4.100000 3.850000
v -2.100000 4.100000 3.850000
v -1.900000 4.100000 1.100000
v -1.900000 4.100000 3.650000
v -2.100000 4.100000 0.900000
v 1.900000 4.100000 0.900000
v 2.400000 2.900000 2.650000
v 3.100000 2.900000 -0.100000
v 2.400000 2.900000 -0.100000
v 3.100000 2.900000 2.650000
v 3.100000 0.400000 -0.100000
v 2.400000 0.600000 -0.100000
v 2.400000 0.400000 -0.100000
v 3.100000 0.600000 -0.100000
v 3.100000 3.100000 -0.100000
v 2.400000 2.900000 -0.100000
v 3.100000 2.900000 -0.100000
v 2.400000 3.100000 -0.100000
v 1.900000 -4.100000 3.650000
v 2.100000 -4.100000 0.900000
v 1.900000 -4.100000 1.100000
v 2.100000 -4.100000 3.850000
v -1.900000 -4.100000 3.850000
v -1.900000 -4.100000 3.650000
v -3.100000 2.900000 0.900000
v -3.100000 -3.100000 0.900000
v -2.400000 -2.900000 0.900000
v -3.100000 -2.900000 0.900000
v -3.100000 3.100000 0.900000
v -2.400000 3.100000 0.900000
v 2.400000 -0.600000 3.850000
v 2.400000 -2.900000 3.650000
v 2.400000 -0.600000 3.650000
v 2.400000 -2.900000 3.850000
v -3.500000 -4.500000 5.250000
v -2.500000 3.500000 5.250000
v -2.500000 -3.500000 5.250000
v 2.500000 -3.500000 5.250000
v -3.500000 4.500000 5.250000
v 3.500000 4.500000 5.250000
v 2.500000 3.500000 5.250000
v 3.500000 -4.500000 5.250000
vt 0.618326187 0.742108405
vt 0.623861074 0.761880159
vt 0.621293902 0.74735707
vt 0.122863129 0.804197967
vt 0.11558561 0.83501482
vt 0.122915372 0.804046154
vt 0.115492687 0.838252962
vt 0.11558561 0.83501482
vt 0.122863129 0.804197967
vt 0.872752964 0.668494821
vt 0.876105309 0.677576244
vt 0.875065863 0.678020775
vt 0.872484088 0.665768027
vt 0.876105309 0.677576244
vt 0.617446065 0.724242568
vt 0.614131451 0.711336195
vt 0.613982379 0.712584436
vt 0.113787487 0.803889334
vt 0.11385332 0.801731646
vt 0.115492687 0.838252962
vt 0.882978976 0.657706082
vt 0.88180685 0.665357232
vt 0.882379115 0.658311009
vt 0.882379115 0.658311009
vt 0.890290201 0.64805007
vt 0.868239403 0.649876773
vt 0.869654179 0.651313901
vt 0.874415338 0.644375801
vt 0.115737632 0.828650773
vt 0.123529628 0.802578688
vt 0.123096719 0.803591132
vt 0.640855849 0.748310864
vt 0.637080669 0.75027144
vt 0.629682422 0.760888755
vt 0.12404494 0.79422611
vt 0.123096719 0.803591132
vt 0.123247489 0.802051663
vt 0.622545958 0.725914717
vt 0.630307615 0.715550542
vt 0.623208046 0.726017475
vt 0.113785341 0.80043292
vt 0.112668321 0.800959945
vt 0.113842681 0.801413476
vt 0.112668321 0.800959945
vt 0.11558561 0.83501482
vt 0.123096719 0.803591132
vt 0.122915372 0.804046154
vt 0.113785341 0.80043292
vt 0.114055946 0.801133037
vt 0.118989304 0.797504365
vt 0.122735783 0.796740353
vt 0.123013511 0.795935929
vt 0.624016404 0.761549473
vt 0.623861074 0.761880159
vt 0.618326187 0.742108405
vt 0.869654179 0.651313901
vt 0.868239403 0.649876773
vt 0.875186682 0.661610246
vt 0.875186682 0.661610246
vt 0.868239403 0.649876773
vt 0.87443465 0.661242247
vt 0.874415338 0.644375801
vt 0.869654179 0.651313901
vt 0.875526071 0.641943753
vt 0.115648344 0.828226745
vt 0.11553736 0.825387836
vt 0.113787487 0.803889334
vt 0.876646459 0.67637378
vt 0.876105309 0.677576244
vt 0.877175272 0.678216279
vt 0.122735783 0.796740353
vt 0.123096719 0.803591132
vt 0.123013511 0.795935929
vt 0.113787487 0.803889334
vt 0.11553736 0.825387836
vt 0.113623157 0.804828346
vt 0.88180685 0.665357232
vt 0.882978976 0.657706082
vt 0.882463038 0.665507793
vt 0.875186682 0.661610246
vt 0.87443465 0.661242247
vt 0.878209174 0.65918982
vt 0.882379115 0.658311009
vt 0.875186682 0.661610246
vt 0.878093243 0.656466842
vt 0.884018838 0.655957401
vt 0.877879024 0.656033933
vt 0.874415338 0.644375801
vt 0.875526071 0.641943753
vt 0.890366554 0.646331787
vt 0.891312838 0.644858122
vt 0.122627184 0.805814326
vt 0.11553736 0.825387836
vt 0.122621909 0.805289745
vt 0.88180685 0.665357232
vt 0.882463038 0.665507793
vt 0.889184713 0.661386907
vt 0.629682422 0.760888755
vt 0.637080669 0.75027144
vt 0.62978667 0.761370718
vt 0.114968315 0.77954483
vt 0.118652478 0.792553425
vt 0.112962261 0.773112357
vt 0.629857242 0.716258705
vt 0.630307615 0.715550542
vt 0.622545958 0.725914717
vt 0.876105309 0.677576244
vt 0.870846868 0.667529404
vt 0.877175272 0.678216279
vt 0.87407726 0.661188841
vt 0.876646459 0.67637378
vt 0.868105531 0.652021408
vt 0.875186682 0.661610246
vt 0.876646459 0.67637378
vt 0.131144509 0.783759177
vt 0.170808151 0.733469844
vt 0.125282928 0.791416526
vt 0.882379115 0.658311009
vt 0.884018838 0.655957401
vt 0.890366554 0.646331787
vt 0.162720665 0.20460242
vt 0.159122691 0.220013201
vt 0.161774352 0.206076086
vt 0.113785341 0.80043292
vt 0.113349184 0.798104286
vt 0.112668321 0.800959945
vt 0.170808151 0.733469844
vt 0.135491893 0.779314816
vt 0.125282928 0.791416526
vt 0.123096719 0.803591132
vt 0.122735783 0.796740353
vt 0.122915372 0.804046154
vt 0.122621909 0.805289745
vt 0.11553736 0.825387836
vt 0.115648344 0.828226745
vt 0.594971716 0.767774224
vt 0.646858931 0.767774224
vt 0.594971716 0.71588701
vt 0.594971716 0.767774224
vt 0.646858931 0.71588701
vt 0.646858931 0.767774224
vt 0.594971716 0.767774224
vt 0.646858931 0.71588701
vt 0.646858931 0.767774224
vt 0.646858931 0.71588701
vt 0.594971716 0.767774224
vt 0.594971716 0.767774224
vt 0.594971716 0.767774224
vt 0.646858931 0.71588701
vt 0.646858931 0.767774224
vt 0.640221953 0.724286079
vt 0.635817111 0.724204063
vt 0.635696709 0.721524358
vt 0.594971716 0.767774224
vt 0.646858931 0.71588701
vt 0.594971716 0.71588701
vt 0.646858931 0.71588701
vt 0.594971716 0.767774224
vt 0.646858931 0.767774224
vt 0.646858931 0.71588701
vt 0.594971716 0.71588701
vt 0.646858931 0.767774224
vt 0.594971716 0.767774224
vt 0.594971716 0.71588701
vt 0.635151744 0.715889513
vt 0.62922132 0.726055205
vt 0.636401892 0.717756867
vt 0.646858931 0.71588701
vt 0.594971716 0.767774224
vt 0.646858931 0.767774224
vt 0.594971716 0.767774224
vt 0.646858931 0.767774224
vt 0.646858931 0.71588701
vt 0.646858931 0.767774224
vt 0.646858931 0.71588701
vt 0.594971716 0.767774224
vt 0.646858931 0.767774224
vt 0.594971716 0.767774224
vt 0.646858931 0.71588701
vt 0.646858931 0.71588701
vt 0.594971716 0.767774224
vt 0.646858931 0.767774224
vt 0.646858931 0.767774224
vt 0.646858931 0.71588701
vt 0.594971716 0.767774224
vt 0.594971716 0.71588701
vt 0.594971716 0.767774224
vt 0.646858931 0.71588701
vt 0.646858931 0.767774224
vt 0.594971716 0.767774224
vt 0.594971716 0.71588701
vt 0.640264452 0.724955797
vt 0.637781441 0.717531323
vt 0.640892088 0.725275993
vt 0.646858931 0.767774224
vt 0.646858931 0.71588701
vt 0.594971716 0.767774224
vt 0.640221953 0.724286079
vt 0.635696709 0.721524358
vt 0.646856427 0.725003958
vt 0.646858931 0.767774224
vt 0.594971716 0.767774224
vt 0.594971716 0.767774224
vt 0.594971716 0.767774224
vt 0.646858931 0.767774224
vt 0.646858931 0.767774224
vt 0.646858931 0.767774224
vt 0.594971716 0.767774224
vt 0.594971716 0.767774224
vt 0.594971716 0.71588701
vt 0.594971716 0.767774224
vt 0.646858931 0.71588701
vt 0.646858931 0.767774224
vt 0.594971716 0.71588701
vt 0.646858931 0.71588701
vt 0.646858931 0.767774224
vt 0.646858931 0.71588701
vt 0.594971716 0.767774224
vt 0.594971716 0.767774224
vt 0.646858931 0.71588701
vt 0.646858931 0.767774224
vt 0.594971716 0.767774224
vt 0.646858931 0.767774224
vt 0.646858931 0.71588701
vt 0.646856427 0.725003958
vt 0.635696709 0.721524358
vt 0.632650733 0.717853785
vt 0.646858931 0.767774224
vt 0.594971716 0.767774224
vt 0.646858931 0.767774224
vt 0.646858931 0.767774224
vt 0.646858931 0.71588701
vt 0.594971716 0.767774224
vt 0.594971716 0.71588701
vt 0.594971716 0.767774224
vt 0.646858931 0.71588701
vt 0.594971716 0.767774224
vt 0.646858931 0.767774224
vt 0.646858931 0.71588701
vt 0.594971716 0.767774224
vt 0.594971716 0.767774224
vt 0.646858931 0.71588701
vt 0.594971716 0.767774224
vt 0.646858931 0.767774224
vt 0.594971716 0.71588701
vt 0.594971716 0.767774224
vt 0.646858931 0.71588701
vt 0.646858931 0.767774224
vt 0.594971716 0.71588701
vt 0.646858931 0.71588701
vt 0.646858931 0.767774224
vt 0.594971716 0.767774224
vt 0.594971716 0.767774224
vt 0.646858931 0.767774224
vt 0.646858931 0.767774224
vt 0.594971716 0.767774224
vt 0.646858931 0.767774224
vt 0.646858931 0.71588701
vt 0.594971716 0.767774224
vt 0.594971716 0.767774224
vt 0.646858931 0.71588701
vt 0.594971716 0.71588701
vt 0.594971716 0.71588701
vt 0.594971716 0.767774224
vt 0.646858931 0.71588701
vt 0.646858931 0.71588701
vt 0.594971716 0.767774224
vt 0.646858931 0.767774224
vt 0.646858931 0.71588701
vt 0.646858931 0.767774224
vt 0.594971716 0.71588701
vt 0.646858931 0.767774224
vt 0.646858931 0.71588701
vt 0.594971716 0.767774224
vt 0.640892088 0.725275993
vt 0.646856427 0.725003958
vt 0.641648889 0.725279212
vt 0.640221953 0.724286079
vt 0.646856427 0.725003958
vt 0.594971716 0.767774224
vt 0.646858931 0.767774224
vt 0.646858931 0.71588701
vt 0.646858931 0.767774224
vt 0.594971716 0.767774224
vt 0.594971716 0.767774224
vt 0.646858931 0.71588701
vt 0.646858931 0.71588701
vt 0.594971716 0.71588701
vt 0.594971716 0.767774224
vt 0.646858931 0.767774224
vt 0.594971716 0.71588701
vt 0.594971716 0.71588701
vt 0.594971716 0.767774224
vt 0.646858931 0.71588701
vt 0.646858931 0.767774224
vt 0.594971716 0.767774224
vt 0.646858931 0.767774224
vt 0.646858931 0.767774224
vt 0.646858931 0.71588701
vt 0.594971716 0.767774224
vt 0.646858931 0.767774224
vt 0.594971716 0.767774224
vt 0.646858931 0.71588701
vt 0.646858931 0.767774224
vt 0.594971716 0.767774224
vt 0.594971716 0.767774224
vt 0.646858931 0.767774224
vt 0.594971716 0.767774224
vt 0.646858931 0.71588701
vt 0.594971716 0.767774224
vt 0.594971716 0.71588701
vt 0.646858931 0.71588701
vt 0.646858931 0.767774224
vt 0.594971716 0.767774224
vt 0.594971716 0.71588701
vt 0.646858931 0.767774224
vt 0.646858931 0.71588701
vt 0.594971716 0.767774224
vt 0.635817111 0.724204063
vt 0.635151744 0.715889513
vt 0.59497416 0.715889454
vt 0.594971716 0.767774224
vt 0.646858931 0.71588701
vt 0.594971716 0.71588701
vt 0.646858931 0.71588701
vt 0.594971716 0.767774224
vt 0.646858931 0.767774224
vt 0.594971716 0.767774224
vt 0.646858931 0.767774224
vt 0.594971716 0.71588701
vt 0.646858931 0.767774224
vt 0.646858931 0.71588701
vt 0.594971716 0.767774224
vt 0.62922132 0.726055205
vt 0.635151744 0.715889513
vt 0.635817111 0.724204063
vt 0.594971716 0.71588701
vt 0.594971716 0.767774224
vt 0.646858931 0.71588701
vt 0.594971716 0.71588701
vt 0.594971716 0.767774224
vt 0.646858931 0.71588701
vt 0.122735783 0.796740353
vt 0.114055946 0.801133037
vt 0.122646973 0.797006369
vt 0.11385332 0.801731646
vt 0.113842681 0.801413476
vt 0.872484088 0.665768027
vt 0.872752964 0.668494821
vt 0.887537956 0.660779417
vt 0.887656748 0.662811756
vt 0.868105531 0.652021408
vt 0.869654179 0.651313901
vt 0.875186682 0.661610246
vt 0.872484088 0.665768027
vt 0.870846868 0.667529404
vt 0.876105309 0.677576244
vt 0.112962261 0.773112357
vt 0.170808151 0.733469844
vt 0.0696895421 0.745589137
vt 0.107111886 0.784932554
vt 0.114968315 0.77954483
vt 0.170808151 0.733469844
vt 0.135491893 0.779314816
vt 0.0696895421 0.745589137
vt 0.113785341 0.80043292
vt 0.114499316 0.797632337
vt 0.125282928 0.791416526
vt 0.124318466 0.791892707
vt 0.123013511 0.795935929
vt 0.118989304 0.797504365
vt 0.118652478 0.792553425
vt 0.118494138 0.795438766
vt 0.113785341 0.80043292
vt 0.629857242 0.716258705
vt 0.628751695 0.729595542
vt 0.630307615 0.715550542
vt 0.629863679 0.729933202
vt 0.88180685 0.665357232
vt 0.889184713 0.661386907
vt 0.887537956 0.660779417
vt 0.887714863 0.660268903
vt 0.890290201 0.64805007
vt 0.890366554 0.646331787
vt 0.882379115 0.658311009
vt 0.617776155 0.727398455
vt 0.617657244 0.727230132
vt 0.617446065 0.724242568
vt 0.614131451 0.711336195
vt 0.400773466 0.763379991
vt 0.407010376 0.73774004
vt 0.398859262 0.742820501
vt 0.407863259 0.743806481
vt 0.622144043 0.733744323
vt 0.62770772 0.731830359
vt 0.622692764 0.734370053
vt 0.62722373 0.731020391
vt 0.622410595 0.733843029
vt 0.622545958 0.725914717
vt 0.623208046 0.726017475
vt 0.62203002 0.733716428
vt 0.612320006 0.736703455
vt 0.611888707 0.737696171
vt 0.62722373 0.731020391
vt 0.62770772 0.731830359
vt 0.613662422 0.729423702
vt 0.617776155 0.727398455
vt 0.614001691 0.729450881
vt 0.617657244 0.727230132
vt 0.117642269 0.817470491
vt 0.110446528 0.804558873
vt 0.115737632 0.828650773
vt 0.0878048986 0.816516817
vt 0.107785389 0.787789822
vt 0.0696895421 0.745589137
vt 0.373342514 0.194097638
vt 0.366722345 0.190350652
vt 0.373914778 0.187051415
vt 0.368182123 0.205114186
vt 0.121774271 0.799747884
vt 0.122627184 0.805814326
vt 0.122042999 0.798885047
vt 0.122621909 0.805289745
vt 0.614001691 0.729450881
vt 0.606275022 0.716723919
vt 0.613662422 0.729423702
vt 0.607806385 0.718085408
vt 0.606948495 0.719581187
vt 0.609609663 0.736350238
vt 0.607672513 0.720230043
vt 0.610413909 0.735738039
vt 0.61251229 0.729895651
vt 0.606948495 0.719581187
vt 0.613644242 0.729397476
vt 0.607672513 0.720230043
vt 0.614131451 0.711336195
vt 0.607806385 0.718085408
vt 0.613982379 0.712584436
vt 0.606275022 0.716723919
vt 0.622410595 0.733843029
vt 0.628751695 0.729595542
vt 0.62203002 0.733716428
vt 0.629863679 0.729933202
vt 0.122646973 0.797006369
vt 0.122915372 0.804046154
vt 0.122735783 0.796740353
vt 0.122863129 0.804197967
vt 0.115737632 0.828650773
vt 0.11558561 0.83501482
vt 0.112668321 0.800959945
vt 0.123096719 0.803591132
vt 0.113623157 0.804828346
vt 0.121774271 0.799747884
vt 0.113787487 0.803889334
vt 0.122042999 0.798885047
vt 0.624016404 0.761549473
vt 0.62978667 0.761370718
vt 0.623861074 0.761880159
vt 0.629682422 0.760888755
vt 0.158965603 0.809182405
vt 0.112725571 0.805904806
vt 0.0878048986 0.816516817
vt 0.128544584 0.800038993
vt 0.129880682 0.799715936
vt 0.0696895421 0.745589137
vt 0.107785389 0.787789822
vt 0.113785341 0.80043292
vt 0.113349184 0.798104286
vt 0.112668321 0.800959945
vt 0.117642269 0.817470491
vt 0.115737632 0.828650773
vt 0.123529628 0.802578688
vt 0.128544584 0.800038993
vt 0.129880682 0.799715936
vt 0.123096719 0.803591132
vt 0.115737632 0.828650773
vt 0.114550367 0.817547321
vt 0.112725571 0.805904806
vt 0.0878048986 0.816516817
vt 0.158965603 0.809182405
vt 0.130700544 0.798141837
vt 0.129880682 0.799715936
vt 0.170808151 0.733469844
vt 0.130700544 0.798141837
vt 0.123247489 0.802051663
vt 0.131144509 0.783759177
vt 0.123096719 0.803591132
vt 0.129880682 0.799715936
vt 0.125282928 0.791416526
vt 0.12404494 0.79422611
vt 0.123013511 0.795935929
vt 0.125282928 0.791416526
vt 0.143891886 0.225512326
vt 0.146933869 0.201688051
vt 0.141061977 0.211058199
vt 0.159122691 0.220013201
vt 0.158945784 0.220523715
vt 0.162720665 0.20460242
vt 0.166495815 0.202641845
vt 0.143966183 0.196439385
vt 0.612320006 0.736703455
vt 0.614632905 0.74622941
vt 0.611888707 0.737696171
vt 0.613713503 0.749338686
vt 0.616742253 0.746424913
vt 0.61251229 0.729895651
vt 0.613644242 0.729397476
vt 0.616805375 0.749261856
vt 0.616742253 0.746424913
vt 0.609609663 0.736350238
vt 0.616805375 0.749261856
vt 0.610413909 0.735738039
vt 0.113842681 0.801413476
vt 0.11558561 0.83501482
vt 0.11385332 0.801731646
vt 0.115492687 0.838252962
vt 0.876646459 0.67637378
vt 0.882577002 0.665535688
vt 0.875065863 0.678020775
vt 0.876105309 0.677576244
vt 0.876646459 0.67637378
vt 0.88180685 0.665357232
vt 0.887656748 0.662811756
vt 0.887537956 0.660779417
vt 0.622144043 0.733744323
vt 0.613713503 0.749338686
vt 0.614632905 0.74622941
vt 0.622692764 0.734370053
vt 0.646858931 0.767774224
vt 0.594971716 0.71588701
vt 0.594971716 0.767774224
vt 0.646858931 0.71588701
vt 0.594971716 0.767774224
vt 0.646858931 0.71588701
vt 0.646858931 0.71588701
vt 0.594971716 0.767774224
vt 0.646858931 0.71588701
vt 0.594971716 0.767774224
vt 0.646858931 0.767774224
vt 0.594971716 0.71588701
vt 0.646858931 0.767774224
vt 0.646858931 0.767774224
vt 0.594971716 0.71588701
vt 0.646858931 0.767774224
vt 0.594971716 0.767774224
vt 0.594971716 0.767774224
vt 0.646858931 0.767774224
vt 0.646858931 0.71588701
vt 0.594971716 0.767774224
vt 0.594971716 0.71588701
vt 0.646858931 0.767774224
vt 0.646858931 0.71588701
vt 0.594971716 0.767774224
vt 0.594971716 0.71588701
vt 0.594971716 0.767774224
vt 0.646858931 0.71588701
vt 0.646858931 0.71588701
vt 0.646858931 0.767774224
vt 0.594971716 0.767774224
vt 0.646858931 0.767774224
vt 0.594971716 0.71588701
vt 0.646858931 0.71588701
vt 0.646858931 0.71588701
vt 0.594971716 0.767774224
vt 0.646858931 0.767774224
vt 0.594971716 0.71588701
vt 0.594971716 0.71588701
vt 0.594971716 0.767774224
vt 0.646858931 0.71588701
vt 0.646858931 0.767774224
vt 0.594971716 0.767774224
vt 0.646858931 0.767774224
vt 0.646858931 0.767774224
vt 0.646858931 0.767774224
vt 0.646858931 0.767774224
vt 0.594971716 0.71588701
vt 0.594971716 0.71588701
vt 0.594971716 0.767774224
vt 0.646858931 0.71588701
vt 0.646858931 0.767774224
vt 0.646858931 0.767774224
vt 0.646858931 0.767774224
vt 0.594971716 0.767774224
vt 0.594971716 0.71588701
vt 0.594971716 0.767774224
vt 0.646858931 0.767774224
vt 0.594971716 0.767774224
vt 0.594971716 0.767774224
vt 0.594971716 0.767774224
vt 0.646858931 0.71588701
vt 0.594971716 0.767774224
vt 0.646858931 0.71588701
vt 0.594971716 0.767774224
vt 0.646858931 0.767774224
vt 0.594971716 0.767774224
vt 0.646858931 0.767774224
vt 0.646858931 0.767774224
vt 0.594971716 0.71588701
vt 0.646858931 0.71588701
vt 0.594971716 0.767774224
vt 0.646858931 0.767774224
vt 0.594971716 0.71588701
vt 0.646858931 0.767774224
vt 0.646858931 0.767774224
vt 0.594971716 0.767774224
vt 0.594971716 0.767774224
vt 0.646858931 0.71588701
vt 0.594971716 0.767774224
vt 0.594971716 0.767774224
vt 0.646858931 0.71588701
vt 0.646858931 0.71588701
vt 0.594971716 0.71588701
vt 0.646858931 0.767774224
vt 0.594971716 0.767774224
vt 0.646858931 0.767774224
vt 0.646858931 0.767774224
vt 0.594971716 0.767774224
vt 0.646858931 0.767774224
vt 0.594971716 0.767774224
vt 0.646858931 0.71588701
vt 0.646858931 0.767774224
vt 0.646858931 0.767774224
vt 0.646858931 0.71588701
vt 0.594971716 0.71588701
vt 0.646858931 0.767774224
vt 0.594971716 0.767774224
vt 0.594971716 0.71588701
vt 0.594971716 0.767774224
vt 0.646858931 0.71588701
vt 0.646858931 0.767774224
vt 0.646858931 0.767774224
vt 0.646858931 0.767774224
vt 0.646858931 0.767774224
vt 0.594971716 0.767774224
vt 0.646858931 0.71588701
vt 0.594971716 0.767774224
vt 0.646858931 0.767774224
vt 0.594971716 0.71588701
vt 0.594971716 0.767774224
vt 0.646858931 0.71588701
vt 0.594971716 0.767774224
vt 0.594971716 0.767774224
vt 0.646858931 0.71588701
vt 0.594971716 0.71588701
vt 0.594971716 0.767774224
vt 0.646858931 0.71588701
vt 0.646858931 0.767774224
vt 0.646858931 0.767774224
vt 0.646858931 0.71588701
vt 0.646858931 0.71588701
vt 0.594971716 0.767774224
vt 0.594971716 0.767774224
vt 0.646858931 0.71588701
vt 0.594971716 0.71588701
vt 0.646858931 0.767774224
vt 0.646858931 0.71588701
vt 0.594971716 0.767774224
vt 0.637733161 0.724571705
vt 0.632650733 0.717853785
vt 0.62922132 0.726055205
vt 0.646856427 0.725003958
vt 0.646858931 0.767774224
vt 0.646858931 0.71588701
vt 0.594971716 0.767774224
vt 0.594971716 0.71588701
vt 0.646858931 0.71588701
vt 0.594971716 0.767774224
vt 0.646858931 0.767774224
vt 0.594971716 0.71588701
vt 0.646858931 0.71588701
vt 0.594971716 0.767774224
vt 0.646858931 0.767774224
vt 0.594971716 0.71588701
vt 0.646858931 0.71588701
vt 0.646858931 0.71588701
vt 0.646858931 0.767774224
vt 0.594971716 0.767774224
vt 0.594971716 0.767774224
vt 0.646858931 0.71588701
vt 0.646858931 0.71588701
vt 0.594971716 0.767774224
vt 0.646858931 0.767774224
vt 0.594971716 0.71588701
vt 0.646858931 0.71588701
vt 0.594971716 0.767774224
vt 0.646858931 0.767774224
vt 0.594971716 0.71588701
vt 0.646858931 0.71588701
vt 0.594971716 0.767774224
vt 0.646858931 0.767774224
vt 0.594971716 0.71588701
vt 0.594971716 0.767774224
vt 0.594971716 0.767774224
vt 0.646858931 0.767774224
vt 0.646858931 0.767774224
vt 0.646858931 0.767774224
vt 0.594971716 0.71588701
vt 0.594971716 0.767774224
vt 0.646858931 0.71588701
vt 0.646858931 0.767774224
vt 0.594971716 0.71588701
vt 0.594971716 0.767774224
vt 0.646858931 0.71588701
vt 0.646858931 0.71588701
vt 0.594971716 0.767774224
vt 0.646858931 0.767774224
vt 0.594971716 0.71588701
vt 0.646858931 0.767774224
vt 0.646858931 0.767774224
vt 0.646858931 0.71588701
vt 0.594971716 0.767774224
vt 0.646858931 0.767774224
vt 0.594971716 0.71588701
vt 0.594971716 0.767774224
vt 0.646858931 0.71588701
vt 0.594971716 0.767774224
vt 0.646858931 0.71588701
vt 0.594971716 0.71588701
vt 0.594971716 0.767774224
vt 0.646858931 0.767774224
vt 0.646858931 0.71588701
vt 0.594971716 0.767774224
vt 0.646858931 0.767774224
vt 0.594971716 0.71588701
vt 0.646858931 0.71588701
vt 0.594971716 0.767774224
vt 0.646858931 0.767774224
vt 0.594971716 0.71588701
vt 0.637733161 0.724571705
vt 0.635817111 0.724204063
vt 0.637781441 0.717531323
vt 0.62922132 0.726055205
vt 0.646858931 0.767774224
vt 0.594971716 0.71588701
vt 0.594971716 0.767774224
vt 0.646858931 0.71588701
vt 0.594971716 0.767774224
vt 0.594971716 0.767774224
vt 0.646858931 0.71588701
vt 0.594971716 0.767774224
vt 0.646858931 0.71588701
vt 0.637733161 0.724571705
vt 0.640264452 0.724955797
vt 0.641673565 0.725278497
vt 0.637781441 0.717531323
vt 0.646858931 0.71588701
vt 0.594971716 0.767774224
vt 0.646858931 0.767774224
vt 0.594971716 0.71588701
vt 0.646858931 0.71588701
vt 0.594971716 0.767774224
vt 0.646858931 0.767774224
vt 0.594971716 0.71588701
vt 0.646858931 0.71588701
vt 0.594971716 0.767774224
vt 0.646858931 0.71588701
vt 0.594971716 0.767774224
vt 0.646858931 0.71588701
vt 0.646858931 0.767774224
vt 0.646858931 0.71588701
vt 0.594971716 0.767774224
vt 0.646858931 0.71588701
vt 0.646858931 0.71588701
vt 0.646858931 0.767774224
vt 0.594971716 0.767774224
vt 0.646858931 0.71588701
vt 0.594971716 0.767774224
vt 0.646858931 0.767774224
vt 0.594971716 0.71588701
vt 0.115492687 0.838252962
vt 0.122621909 0.805289745
vt 0.115648344 0.828226745
vt 0.113787487 0.803889334
vt 0.122863129 0.804197967
vt 0.122646973 0.797006369
vt 0.122042999 0.798885047
vt 0.11385332 0.801731646
vn 0.000000 1.000000 0.000000
vn 0.000000 1.000000 0.000000
vn 0.000000 1.000000 0.000000
vn -1.000000 0.000000 0.000000
vn -1.000000 0.000000 0.000000
vn -1.000000 0.000000 0.000000
vn -1.000000 0.000000 0.000000
vn -1.000000 0.000000 0.000000
vn -1.000000 0.000000 0.000000
vn 1.000000 0.000000 0.000000
vn 1.000000 0.000000 0.000000
vn 1.000000 0.000000 0.000000
vn 1.000000 0.000000 0.000000
vn 1.000000 0.000000 0.000000
vn 0.000000 -1.000000 -0.000000
vn 0.000000 -1.000000 -0.000000
vn 0.000000 -1.000000 -0.000000
vn 0.000000 -0.000000 1.000000
vn 0.000000 -0.000000 1.000000
vn 0.000000 -0.000000 1.000000
vn 0.000000 -1.000000 -0.000000
vn 0.000000 -1.000000 -0.000000
vn 0.000000 -1.000000 -0.000000
vn 0.000000 -1.000000 -0.000000
vn 0.000000 -1.000000 -0.000000
vn -1.000000 0.000000 0.000000
vn -1.000000 0.000000 0.000000
vn -1.000000 0.000000 0.000000
vn -1.000000 0.000000 0.000000
vn -1.000000 0.000000 0.000000
vn -1.000000 0.000000 0.000000
vn 0.000000 -1.000000 -0.000000
vn 0.000000 -1.000000 -0.000000
vn 0.000000 -1.000000 -0.000000
vn 0.000000 1.000000 0.000000
vn 0.000000 1.000000 0.000000
vn 0.000000 1.000000 0.000000
vn -1.000000 0.000000 0.000000
vn -1.000000 0.000000 0.000000
vn -1.000000 0.000000 0.000000
vn 0.000000 0.000000 -1.000000
vn 0.000000 0.000000 -1.000000
vn 0.000000 0.000000 -1.000000
vn 0.000000 0.000000 -1.000000
vn 0.000000 0.000000 -1.000000
vn 0.000000 0.000000 -1.000000
vn 0.000000 0.000000 -1.000000
vn 0.000000 0.000000 -1.000000
vn 0.000000 0.000000 -1.000000
vn 0.000000 0.000000 -1.000000
vn 0.000000 0.000000 -1.000000
vn 0.000000 0.000000 -1.000000
vn 0.000000 1.000000 0.000000
vn 0.000000 1.000000 0.000000
vn 0.000000 1.000000 0.000000
vn -1.000000 0.000000 0.000000
vn -1.000000 0.000000 0.000000
vn -1.000000 0.000000 0.000000
vn -1.000000 0.000000 0.000000
vn -1.000000 0.000000 0.000000
vn -1.000000 0.000000 0.000000
vn -1.000000 0.000000 0.000000
vn -1.000000 0.000000 0.000000
vn -1.000000 0.000000 0.000000
vn 0.000000 1.000000 0.000000
vn 0.000000 1.000000 0.000000
vn 0.000000 1.000000 0.000000
vn 0.000000 1.000000 0.000000
vn 0.000000 1.000000 0.000000
vn 0.000000 1.000000 0.000000
vn 0.000000 0.000000 -1.000000
vn 0.000000 0.000000 -1.000000
vn 0.000000 0.000000 -1.000000
vn 0.000000 1.000000 0.000000
vn 0.000000 1.000000 0.000000
vn 0.000000 1.000000 0.000000
vn 0.000000 -1.000000 -0.000000
vn 0.000000 -1.000000 -0.000000
vn 0.000000 -1.000000 -0.000000
vn -1.000000 0.000000 0.000000
vn -1.000000 0.000000 0.000000
vn -1.000000 0.000000 0.000000
vn -1.000000 0.000000 0.000000
vn -1.000000 0.000000 0.000000
vn -1.000000 0.000000 0.000000
vn -1.000000 0.000000 0.000000
vn -1.000000 0.000000 0.000000
vn -1.000000 0.000000 0.000000
vn -1.000000 0.000000 0.000000
vn -1.000000 0.000000 0.000000
vn -1.000000 0.000000 0.000000
vn 1.000000 0.000000 0.000000
vn 1.000000 0.000000 0.000000
vn 1.000000 0.000000 0.000000
vn 0.000000 -1.000000 -0.000000
vn 0.000000 -1.000000 -0.000000
vn 0.000000 -1.000000 -0.000000
vn 0.000000 -1.000000 -0.000000
vn 0.000000 -1.000000 -0.000000
vn 0.000000 -1.000000 -0.000000
vn 1.000000 0.000000 0.000000
vn 1.000000 0.000000 0.000000
vn 1.000000 0.000000 0.000000
vn -1.000000 0.000000 0.000000
vn -1.000000 0.000000 0.000000
vn -1.000000 0.000000 0.000000
vn 0.000000 1.000000 0.000000
vn 0.000000 1.000000 0.000000
vn 0.000000 1.000000 0.000000
vn 0.000000 1.000000 0.000000
vn 0.000000 1.000000 0.000000
vn 0.000000 1.000000 0.000000
vn 0.000000 1.000000 0.000000
vn 0.000000 1.000000 0.000000
vn 0.000000 1.000000 0.000000
vn 0.000000 1.000000 0.000000
vn 0.000000 1.000000 0.000000
vn -1.000000 0.000000 0.000000
vn -1.000000 0.000000 0.000000
vn -1.000000 0.000000 0.000000
vn 0.000000 -0.000000 1.000000
vn 0.000000 -0.000000 1.000000
vn 0.000000 -0.000000 1.000000
vn 0.000000 -1.000000 -0.000000
vn 0.000000 -1.000000 -0.000000
vn 0.000000 -1.000000 -0.000000
vn 1.000000 0.000000 0.000000
vn 1.000000 0.000000 0.000000
vn 1.000000 0.000000 0.000000
vn 0.000000 0.000000 -1.000000
vn 0.000000 0.000000 -1.000000
vn 0.000000 0.000000 -1.000000
vn 1.000000 0.000000 0.000000
vn 1.000000 0.000000 0.000000
vn 1.000000 0.000000 0.000000
vn 0.000000 1.000000 0.000000
vn 0.000000 1.000000 0.000000
vn 0.000000 1.000000 0.000000
vn 1.000000 0.000000 0.000000
vn 1.000000 0.000000 0.000000
vn 1.000000 0.000000 0.000000
vn 1.000000 0.000000 0.000000
vn 1.000000 0.000000 0.000000
vn 1.000000 0.000000 0.000000
vn 1.000000 0.000000 0.000000
vn 1.000000 0.000000 0.000000
vn 1.000000 0.000000 0.000000
vn 0.000000 -0.000000 1.000000
vn 0.000000 -0.000000 1.000000
vn 0.000000 -0.000000 1.000000
vn 1.000000 0.000000 0.000000
vn 1.000000 0.000000 0.000000
vn 1.000000 0.000000 0.000000
vn 1.000000 0.000000 0.000000
vn 1.000000 0.000000 0.000000
vn 1.000000 0.000000 0.000000
vn -1.000000 0.000000 0.000000
vn -1.000000 0.000000 0.000000
vn -1.000000 0.000000 0.000000
vn -1.000000 0.000000 0.000000
vn -1.000000 0.000000 0.000000
vn 0.000000 -1.000000 -0.000000
vn 0.000000 -1.000000 -0.000000
vn 0.000000 -1.000000 -0.000000
vn -1.000000 0.000000 0.000000
vn -1.000000 0.000000 0.000000
vn -1.000000 0.000000 0.000000
vn -1.000000 0.000000 0.000000
vn -1.000000 0.000000 0.000000
vn -1.000000 0.000000 0.000000
vn 0.000000 -0.000000 1.000000
vn 0.000000 -0.000000 1.000000
vn 0.000000 -0.000000 1.000000
vn 0.000000 0.000000 -1.000000
vn 0.000000 0.000000 -1.000000
vn 0.000000 0.000000 -1.000000
vn 0.000000 0.000000 -1.000000
vn 0.000000 0.000000 -1.000000
vn 0.000000 0.000000 -1.000000
vn 0.000000 -0.000000 1.000000
vn 0.000000 -0.000000 1.000000
vn 0.000000 -0.000000 1.000000
vn 0.000000 0.000000 -1.000000
vn 0.000000 0.000000 -1.000000
vn 0.000000 0.000000 -1.000000
vn -1.000000 0.000000 0.000000
vn -1.000000 0.000000 0.000000
vn -1.000000 0.000000 0.000000
vn 0.000000 -1.000000 -0.000000
vn 0.000000 -1.000000 -0.000000
vn 0.000000 -1.000000 -0.000000
vn 1.000000 0.000000 0.000000
vn 1.000000 0.000000 0.000000
vn 1.000000 0.000000 0.000000
vn 0.000000 -0.000000 1.000000
vn 0.000000 -0.000000 1.000000
vn 0.000000 -0.000000 1.000000
vn 0.000000 -0.000000 1.000000
vn 0.000000 -0.000000 1.000000
vn 0.000000 -0.000000 1.000000
vn 0.000000 1.000000 0.000000
vn 0.000000 1.000000 0.000000
vn 0.000000 1.000000 0.000000
vn 0.000000 -1.000000 -0.000000
vn 0.000000 -1.000000 -0.000000
vn 0.000000 -1.000000 -0.000000
vn 0.000000 -1.000000 -0.000000
vn 0.000000 -1.000000 -0.000000
vn 0.000000 -1.000000 -0.000000
vn 0.000000 -1.000000 -0.000000
vn 0.000000 -1.000000 -0.000000
vn 0.000000 -1.000000 -0.000000
vn 0.000000 -1.000000 -0.000000
vn 0.000000 -1.000000 -0.000000
vn 0.000000 -1.000000 -0.000000
vn 0.000000 0.000000 -1.000000
vn 0.000000 0.000000 -1.000000
vn 0.000000 0.000000 -1.000000
vn 0.000000 -0.000000 1.000000
vn 0.000000 -0.000000 1.000000
vn 0.000000 -0.000000 1.000000
vn 0.000000 -0.000000 1.000000
vn 0.000000 -0.000000 1.000000
vn 0.000000 -0.000000 1.000000
vn 0.000000 -0.000000 1.000000
vn 0.000000 -0.000000 1.000000
vn 0.000000 -0.000000 1.000000
vn 0.000000 -0.000000 1.000000
vn 0.000000 -0.000000 1.000000
vn 0.000000 -0.000000 1.000000
vn 0.000000 -0.000000 1.000000
vn 0.000000 -0.000000 1.000000
vn 0.000000 -0.000000 1.000000
vn -1.000000 0.000000 0.000000
vn -1.000000 0.000000 0.000000
vn -1.000000 0.000000 0.000000
vn -1.000000 0.000000 0.000000
vn -1.000000 0.000000 0.000000
vn -1.000000 0.000000 0.000000
vn -1.000000 0.000000 0.000000
vn -1.000000 0.000000 0.000000
vn 0.000000 0.000000 -1.000000
vn 0.000000 0.000000 -1.000000
vn 0.000000 0.000000 -1.000000
vn 0.000000 -1.000000 -0.000000
vn 0.000000 -1.000000 -0.000000
vn 0.000000 -1.000000 -0.000000
vn 0.000000 -1.000000 -0.000000
vn 0.000000 -1.000000 -0.000000
vn 0.000000 -1.000000 -0.000000
vn 1.000000 0.000000 0.000000
vn 1.000000 0.000000 0.000000
vn 1.000000 0.000000 0.000000
vn 0.000000 -1.000000 -0.000000
vn 0.000000 -1.000000 -0.000000
vn 0.000000 -1.000000 -0.000000
vn 0.000000 -0.000000 1.000000
vn 0.000000 -0.000000 1.000000
vn 0.000000 -0.000000 1.000000
vn 1.000000 0.000000 0.000000
vn 1.000000 0.000000 0.000000
vn 1.000000 0.000000 0.000000
vn 0.000000 1.000000 0.000000
vn 0.000000 1.000000 0.000000
vn 0.000000 1.000000 0.000000
vn 0.000000 0.000000 -1.000000
vn 0.000000 0.000000 -1.000000
vn 0.000000 0.000000 -1.000000
vn -1.000000 0.000000 0.000000
vn -1.000000 0.000000 0.000000
vn -1.000000 0.000000 0.000000
vn 0.000000 0.000000 -1.000000
vn 0.000000 0.000000 -1.000000
vn 0.000000 0.000000 -1.000000
vn 0.000000 1.000000 0.000000
vn 0.000000 1.000000 0.000000
vn 0.000000 1.000000 0.000000
vn 0.000000 1.000000 0.000000
vn 0.000000 1.000000 0.000000
vn 0.000000 -0.000000 1.000000
vn 0.000000 -0.000000 1.000000
vn 0.000000 -0.000000 1.000000
vn 0.000000 -1.000000 -0.000000
vn 0.000000 -1.000000 -0.000000
vn 0.000000 -1.000000 -0.000000
vn 0.000000 -1.000000 -0.000000
vn 0.000000 -1.000000 -0.000000
vn 0.000000 -1.000000 -0.000000
vn 0.000000 1.000000 0.000000
vn 0.000000 1.000000 0.000000
vn 0.000000 1.000000 0.000000
vn 1.000000 0.000000 0.000000
vn 1.000000 0.000000 0.000000
vn 1.000000 0.000000 0.000000
vn 0.000000 -0.000000 1.000000
vn 0.000000 -0.000000 1.000000
vn 0.000000 -0.000000 1.000000
vn 0.000000 -0.000000 1.000000
vn 0.000000 -0.000000 1.000000
vn 0.000000 -0.000000 1.000000
vn -1.000000 0.000000 0.000000
vn -1.000000 0.000000 0.000000
vn -1.000000 0.000000 0.000000
vn -1.000000 0.000000 0.000000
vn -1.000000 0.000000 0.000000
vn -1.000000 0.000000 0.000000
vn -1.000000 0.000000 0.000000
vn -1.000000 0.000000 0.000000
vn -1.000000 0.000000 0.000000
vn -1.000000 0.000000 0.000000
vn -1.000000 0.000000 0.000000
vn -1.000000 0.000000 0.000000
vn -1.000000 0.000000 0.000000
vn -1.000000 0.000000 0.000000
vn -1.000000 0.000000 0.000000
vn 0.000000 -1.000000 -0.000000
vn 0.000000 -1.000000 -0.000000
vn 0.000000 -1.000000 -0.000000
vn 0.000000 1.000000 0.000000
vn 0.000000 1.000000 0.000000
vn 0.000000 1.000000 0.000000
vn 0.000000 1.000000 0.000000
vn 0.000000 1.000000 0.000000
vn 0.000000 1.000000 0.000000
vn 0.000000 0.000000 -1.000000
vn 0.000000 0.000000 -1.000000
vn 0.000000 0.000000 -1.000000
vn 1.000000 0.000000 0.000000
vn 1.000000 0.000000 0.000000
vn 1.000000 0.000000 0.000000
vn 0.000000 -1.000000 -0.000000
vn 0.000000 -1.000000 -0.000000
vn 0.000000 -1.000000 -0.000000
vn 0.000000 1.000000 0.000000
vn 0.000000 1.000000 0.000000
vn 0.000000 1.000000 0.000000
vn 0.000000 1.000000 0.000000
vn 0.000000 1.000000 0.000000
vn 0.000000 1.000000 0.000000
vn 0.000000 1.000000 0.000000
vn 0.000000 1.000000 0.000000
vn 0.000000 1.000000 0.000000
vn 1.000000 0.000000 0.000000
vn 1.000000 0.000000 0.000000
vn 1.000000 0.000000 0.000000
vn 1.000000 0.000000 0.000000
vn 1.000000 0.000000 0.000000
vn 1.000000 0.000000 0.000000
vn 1.000000 0.000000 0.000000
vn 1.000000 0.000000 0.000000
vn 1.000000 0.000000 0.000000
vn 0.000000 1.000000 0.000000
vn 0.000000 1.000000 0.000000
vn 0.000000 1.000000 0.000000
vn 0.000000 1.000000 0.000000
vn 0.000000 1.000000 0.000000
vn 0.000000 1.000000 0.000000
vn 1.000000 0.000000 0.000000
vn 1.000000 0.000000 0.000000
vn 1.000000 0.000000 0.000000
vn 1.000000 0.000000 0.000000
vn 1.000000 0.000000 0.000000
vn 1.000000 0.000000 0.000000
vn 1.000000 0.000000 0.000000
vn 1.000000 0.000000 0.000000
vn 1.000000 0.000000 0.000000
vn 1.000000 0.000000 0.000000
vn 1.000000 0.000000 0.000000
vn 1.000000 0.000000 0.000000
vn 1.000000 0.000000 0.000000
vn 1.000000 0.000000 0.000000
vn 1.000000 0.000000 0.000000
vn 1.000000 0.000000 0.000000
vn 1.000000 0.000000 0.000000
vn 0.000000 -0.000000 1.000000
vn 0.000000 -0.000000 1.000000
vn 0.000000 -0.000000 1.000000
vn 0.000000 -0.000000 1.000000
vn 0.000000 -1.000000 -0.000000
vn 0.000000 -1.000000 -0.000000
vn 0.000000 -1.000000 -0.000000
vn 0.000000 -1.000000 -0.000000
vn 0.000000 -1.000000 -0.000000
vn 0.000000 -1.000000 -0.000000
vn 0.000000 -1.000000 -0.000000
vn 0.000000 -1.000000 -0.000000
vn 0.000000 -1.000000 -0.000000
vn 0.000000 -1.000000 -0.000000
vn 0.000000 -1.000000 -0.000000
vn 0.000000 -0.000000 1.000000
vn 0.000000 -0.000000 1.000000
vn 0.000000 -0.000000 1.000000
vn 0.000000 -0.000000 1.000000
vn 0.000000 -1.000000 -0.000000
vn 0.000000 -1.000000 -0.000000
vn 0.000000 -1.000000 -0.000000
vn 0.000000 -1.000000 -0.000000
vn 0.000000 0.000000 -1.000000
vn 0.000000 0.000000 -1.000000
vn 0.000000 0.000000 -1.000000
vn 0.000000 0.000000 -1.000000
vn 0.000000 -0.000000 1.000000
vn 0.000000 -0.000000 1.000000
vn 0.000000 -0.000000 1.000000
vn 0.000000 -0.000000 1.000000
vn 0.000000 0.000000 -1.000000
vn 0.000000 0.000000 -1.000000
vn 0.000000 0.000000 -1.000000
vn 0.000000 0.000000 -1.000000
vn 0.000000 -1.000000 -0.000000
vn 0.000000 -1.000000 -0.000000
vn 0.000000 -1.000000 -0.000000
vn 0.000000 -1.000000 -0.000000
vn 0.000000 -1.000000 -0.000000
vn 0.000000 -1.000000 -0.000000
vn 0.000000 0.000000 -1.000000
vn 0.000000 0.000000 -1.000000
vn 0.000000 0.000000 -1.000000
vn 0.000000 0.000000 -1.000000
vn 0.000000 -1.000000 -0.000000
vn 0.000000 -1.000000 -0.000000
vn 0.000000 -1.000000 -0.000000
vn 0.000000 -1.000000 -0.000000
vn 0.000000 1.000000 0.000000
vn 0.000000 1.000000 0.000000
vn 0.000000 1.000000 0.000000
vn 0.000000 1.000000 0.000000
vn 0.000000 -0.000000 1.000000
vn 0.000000 -0.000000 1.000000
vn 0.000000 -0.000000 1.000000
vn 0.000000 -0.000000 1.000000
vn -1.000000 0.000000 0.000000
vn -1.000000 0.000000 0.000000
vn -1.000000 0.000000 0.000000
vn -1.000000 0.000000 0.000000
vn 0.000000 -0.000000 1.000000
vn 0.000000 -0.000000 1.000000
vn 0.000000 -0.000000 1.000000
vn 0.000000 -0.000000 1.000000
vn 1.000000 0.000000 0.000000
vn 1.000000 0.000000 0.000000
vn 1.000000 0.000000 0.000000
vn 1.000000 0.000000 0.000000
vn 0.000000 1.000000 0.000000
vn 0.000000 1.000000 0.000000
vn 0.000000 1.000000 0.000000
vn 0.000000 1.000000 0.000000
vn 0.000000 0.000000 -1.000000
vn 0.000000 0.000000 -1.000000
vn 0.000000 0.000000 -1.000000
vn 0.000000 0.000000 -1.000000
vn -1.000000 0.000000 0.000000
vn -1.000000 0.000000 0.000000
vn -1.000000 0.000000 0.000000
vn -1.000000 0.000000 0.000000
vn 0.000000 0.000000 -1.000000
vn 0.000000 0.000000 -1.000000
vn 0.000000 0.000000 -1.000000
vn 0.000000 0.000000 -1.000000
vn -1.000000 0.000000 0.000000
vn -1.000000 0.000000 0.000000
vn -1.000000 0.000000 0.000000
vn -1.000000 0.000000 0.000000
vn -1.000000 0.000000 0.000000
vn 0.000000 -1.000000 -0.000000
vn 0.000000 -1.000000 -0.000000
vn 0.000000 -1.000000 -0.000000
vn 0.000000 -1.000000 -0.000000
vn 0.000000 -1.000000 -0.000000
vn 0.000000 -1.000000 -0.000000
vn 0.000000 -1.000000 -0.000000
vn -1.000000 0.000000 0.000000
vn -1.000000 0.000000 0.000000
vn -1.000000 0.000000 0.000000
vn -1.000000 0.000000 0.000000
vn -1.000000 0.000000 0.000000
vn -1.000000 0.000000 0.000000
vn -1.000000 0.000000 0.000000
vn -1.000000 0.000000 0.000000
vn 0.000000 1.000000 0.000000
vn 0.000000 1.000000 0.000000
vn 0.000000 1.000000 0.000000
vn 0.000000 1.000000 0.000000
vn 0.000000 1.000000 0.000000
vn 0.000000 1.000000 0.000000
vn 0.000000 1.000000 0.000000
vn 0.000000 1.000000 0.000000
vn 0.000000 1.000000 0.000000
vn 0.000000 1.000000 0.000000
vn 0.000000 1.000000 0.000000
vn 0.000000 1.000000 0.000000
vn 0.000000 1.000000 0.000000
vn 0.000000 -0.000000 1.000000
vn 0.000000 -0.000000 1.000000
vn 0.000000 -0.000000 1.000000
vn 0.000000 -0.000000 1.000000
vn 0.000000 -0.000000 1.000000
vn 0.000000 -0.000000 1.000000
vn 0.000000 -0.000000 1.000000
vn 0.000000 -0.000000 1.000000
vn 0.000000 1.000000 0.000000
vn 0.000000 1.000000 0.000000
vn 0.000000 1.000000 0.000000
vn 0.000000 1.000000 0.000000
vn 0.000000 0.000000 -1.000000
vn 0.000000 0.000000 -1.000000
vn 0.000000 0.000000 -1.000000
vn 0.000000 0.000000 -1.000000
vn 1.000000 0.000000 0.000000
vn 1.000000 0.000000 0.000000
vn 1.000000 0.000000 0.000000
vn 1.000000 0.000000 0.000000
vn 0.000000 -1.000000 -0.000000
vn 0.000000 -1.000000 -0.000000
vn 0.000000 -1.000000 -0.000000
vn 0.000000 -1.000000 -0.000000
vn 1.000000 0.000000 0.000000
vn 1.000000 0.000000 0.000000
vn 1.000000 0.000000 0.000000
vn 1.000000 0.000000 0.000000
vn 1.000000 0.000000 0.000000
vn 1.000000 0.000000 0.000000
vn 1.000000 0.000000 0.000000
vn 1.000000 0.000000 0.000000
vn 0.000000 0.000000 -1.000000
vn 0.000000 0.000000 -1.000000
vn 0.000000 0.000000 -1.000000
vn 0.000000 0.000000 -1.000000
vn 0.000000 -1.000000 -0.000000
vn 0.000000 -1.000000 -0.000000
vn 0.000000 -1.000000 -0.000000
vn 0.000000 -1.000000 -0.000000
vn -1.000000 0.000000 0.000000
vn -1.000000 0.000000 0.000000
vn -1.000000 0.000000 0.000000
vn -1.000000 0.000000 0.000000
vn 0.000000 0.000000 -1.000000
vn 0.000000 0.000000 -1.000000
vn 0.000000 0.000000 -1.000000
vn 0.000000 0.000000 -1.000000
vn 0.000000 1.000000 0.000000
vn 0.000000 1.000000 0.000000
vn 0.000000 1.000000 0.000000
vn 0.000000 1.000000 0.000000
vn 0.000000 1.000000 0.000000
vn 0.000000 1.000000 0.000000
vn 1.000000 0.000000 0.000000
vn 1.000000 0.000000 0.000000
vn 1.000000 0.000000 0.000000
vn 1.000000 0.000000 0.000000
vn 0.000000 -1.000000 -0.000000
vn 0.000000 -1.000000 -0.000000
vn 0.000000 -1.000000 -0.000000
vn 0.000000 -1.000000 -0.000000
vn 0.000000 0.000000 -1.000000
vn 0.000000 0.000000 -1.000000
vn 0.000000 0.000000 -1.000000
vn 0.000000 0.000000 -1.000000
vn -1.000000 0.000000 0.000000
vn -1.000000 0.000000 0.000000
vn -1.000000 0.000000 0.000000
vn -1.000000 0.000000 0.000000
vn 0.000000 1.000000 0.000000
vn 0.000000 1.000000 0.000000
vn 0.000000 1.000000 0.000000
vn 0.000000 1.000000 0.000000
vn 1.000000 0.000000 0.000000
vn 1.000000 0.000000 0.000000
vn 1.000000 0.000000 0.000000
vn 1.000000 0.000000 0.000000
vn -1.000000 0.000000 0.000000
vn -1.000000 0.000000 0.000000
vn -1.000000 0.000000 0.000000
vn -1.000000 0.000000 0.000000
vn -1.000000 0.000000 0.000000
vn -1.000000 0.000000 0.000000
vn 0.000000 -1.000000 -0.000000
vn 0.000000 -1.000000 -0.000000
vn 0.000000 -1.000000 -0.000000
vn 0.000000 -1.000000 -0.000000
vn 1.000000 0.000000 0.000000
vn 1.000000 0.000000 0.000000
vn 1.000000 0.000000 0.000000
vn 1.000000 0.000000 0.000000
vn 1.000000 0.000000 0.000000
vn 1.000000 0.000000 0.000000
vn 1.000000 0.000000 0.000000
vn 1.000000 0.000000 0.000000
vn 1.000000 0.000000 0.000000
vn 1.000000 0.000000 0.000000
vn 1.000000 0.000000 0.000000
vn 1.000000 0.000000 0.000000
vn 0.000000 1.000000 0.000000
vn 0.000000 1.000000 0.000000
vn 0.000000 1.000000 0.000000
vn 0.000000 1.000000 0.000000
vn 0.000000 1.000000 0.000000
vn 0.000000 1.000000 0.000000
vn 0.000000 -0.000000 1.000000
vn 0.000000 -0.000000 1.000000
vn 0.000000 -0.000000 1.000000
vn 0.000000 -0.000000 1.000000
vn 1.000000 0.000000 0.000000
vn 1.000000 0.000000 0.000000
vn 1.000000 0.000000 0.000000
vn 1.000000 0.000000 0.000000
vn 1.000000 0.000000 0.000000
vn 1.000000 0.000000 0.000000
vn 1.000000 0.000000 0.000000
vn 1.000000 0.000000 0.000000
vn -1.000000 0.000000 0.000000
vn -1.000000 0.000000 0.000000
vn -1.000000 0.000000 0.000000
vn -1.000000 0.000000 0.000000
vn 1.000000 0.000000 0.000000
vn 1.000000 0.000000 0.000000
vn 1.000000 0.000000 0.000000
vn 1.000000 0.000000 0.000000
vn 1.000000 0.000000 0.000000
vn 1.000000 0.000000 0.000000
vn 1.000000 0.000000 0.000000
vn 1.000000 0.000000 0.000000
vn 0.000000 1.000000 0.000000
vn 0.000000 1.000000 0.000000
vn 0.000000 1.000000 0.000000
vn 0.000000 1.000000 0.000000
vn -1.000000 0.000000 0.000000
vn -1.000000 0.000000 0.000000
vn -1.000000 0.000000 0.000000
vn -1.000000 0.000000 0.000000
vn -1.000000 0.000000 0.000000
vn -1.000000 0.000000 0.000000
vn -1.000000 0.000000 0.000000
vn -1.000000 0.000000 0.000000
vn 0.000000 0.000000 -1.000000
vn 0.000000 0.000000 -1.000000
vn 0.000000 0.000000 -1.000000
vn 0.000000 0.000000 -1.000000
vn 0.000000 1.000000 0.000000
vn 0.000000 1.000000 0.000000
vn 0.000000 1.000000 0.000000
vn 0.000000 1.000000 0.000000
vn 0.000000 1.000000 0.000000
vn 0.000000 0.000000 -1.000000
vn 0.000000 0.000000 -1.000000
vn 0.000000 0.000000 -1.000000
vn 0.000000 0.000000 -1.000000
vn 0.000000 0.000000 -1.000000
vn 0.000000 0.000000 -1.000000
vn 0.000000 0.000000 -1.000000
vn 0.000000 0.000000 -1.000000
vn 0.000000 -1.000000 -0.000000
vn 0.000000 -1.000000 -0.000000
vn 0.000000 -1.000000 -0.000000
vn 0.000000 -1.000000 -0.000000
vn 0.000000 -1.000000 -0.000000
vn 0.000000 -1.000000 -0.000000
vn -1.000000 0.000000 0.000000
vn -1.000000 0.000000 0.000000
vn -1.000000 0.000000 0.000000
vn -1.000000 0.000000 0.000000
vn 1.000000 0.000000 0.000000
vn 1.000000 0.000000 0.000000
vn 1.000000 0.000000 0.000000
vn 1.000000 0.000000 0.000000
vn 0.000000 -0.000000 1.000000
vn 0.000000 -0.000000 1.000000
vn 0.000000 -0.000000 1.000000
vn 0.000000 -0.000000 1.000000
vn 0.000000 0.000000 -1.000000
vn 0.000000 0.000000 -1.000000
vn 0.000000 0.000000 -1.000000
vn 0.000000 0.000000 -1.000000
vn 0.000000 -1.000000 -0.000000
vn 0.000000 -1.000000 -0.000000
vn 0.000000 -1.000000 -0.000000
vn 0.000000 -1.000000 -0.000000
vn 0.000000 -1.000000 -0.000000
vn 0.000000 -1.000000 -0.000000
vn -1.000000 0.000000 0.000000
vn -1.000000 0.000000 0.000000
vn -1.000000 0.000000 0.000000
vn -1.000000 0.000000 0.000000
vn 1.000000 0.000000 0.000000
vn 1.000000 0.000000 0.000000
vn 1.000000 0.000000 0.000000
vn 1.000000 0.000000 0.000000
vn 0.000000 -0.000000 1.000000
vn 0.000000 -0.000000 1.000000
vn 0.000000 -0.000000 1.000000
vn 0.000000 -0.000000 1.000000
vn 0.000000 -0.000000 1.000000
vn 0.000000 -0.000000 1.000000
vn 0.000000 -0.000000 1.000000
vn 0.000000 -0.000000 1.000000
vn 1.000000 0.000000 0.000000
vn 1.000000 0.000000 0.000000
vn 1.000000 0.000000 0.000000
vn 1.000000 0.000000 0.000000
vn 1.000000 0.000000 0.000000
vn 1.000000 0.000000 0.000000
vn 1.000000 0.000000 0.000000
vn 1.000000 0.000000 0.000000
vn 0.000000 1.000000 0.000000
vn 0.000000 1.000000 0.000000
vn 0.000000 1.000000 0.000000
vn 0.000000 1.000000 0.000000
vn 0.000000 -0.000000 1.000000
vn 0.000000 -0.000000 1.000000
vn 0.000000 -0.000000 1.000000
vn 0.000000 -0.000000 1.000000
vn 0.000000 1.000000 0.000000
vn 0.000000 1.000000 0.000000
vn 0.000000 1.000000 0.000000
vn 0.000000 1.000000 0.000000
vn 0.000000 1.000000 0.000000
vn -1.000000 0.000000 0.000000
vn -1.000000 0.000000 0.000000
vn -1.000000 0.000000 0.000000
vn -1.000000 0.000000 0.000000
vn 0.000000 -1.000000 -0.000000
vn 0.000000 -1.000000 -0.000000
vn 0.000000 -1.000000 -0.000000
vn 0.000000 -1.000000 -0.000000
vn 0.000000 -0.000000 1.000000
vn 0.000000 -0.000000 1.000000
vn 0.000000 -0.000000 1.000000
vn 0.000000 -0.000000 1.000000
vn 0.000000 0.000000 -1.000000
vn 0.000000 0.000000 -1.000000
vn 0.000000 0.000000 -1.000000
vn 0.000000 0.000000 -1.000000
vn -1.000000 0.000000 0.000000
vn -1.000000 0.000000 0.000000
vn -1.000000 0.000000 0.000000
vn -1.000000 0.000000 0.000000
vn 0.000000 1.000000 0.000000
vn 0.000000 1.000000 0.000000
vn 0.000000 1.000000 0.000000
vn 0.000000 1.000000 0.000000
vn 0.000000 1.000000 0.000000
vn 0.000000 -1.000000 -0.000000
vn 0.000000 -1.000000 -0.000000
vn 0.000000 -1.000000 -0.000000
vn 0.000000 -1.000000 -0.000000
vn 0.000000 0.000000 -1.000000
vn 0.000000 0.000000 -1.000000
vn 0.000000 0.000000 -1.000000
vn 0.000000 0.000000 -1.000000
vn 0.000000 0.000000 -1.000000
vn 0.000000 0.000000 -1.000000
vn 0.000000 0.000000 -1.000000
vn 0.000000 0.000000 -1.000000
vn 0.000000 -1.000000 -0.000000
vn 0.000000 -1.000000 -0.000000
vn 0.000000 -1.000000 -0.000000
vn 0.000000 -1.000000 -0.000000
vn 0.000000 -1.000000 -0.000000
vn 0.000000 -1.000000 -0.000000
vn 0.000000 0.000000 -1.000000
vn 0.000000 0.000000 -1.000000
vn 0.000000 0.000000 -1.000000
vn 0.000000 0.000000 -1.000000
vn 0.000000 0.000000 -1.000000
vn 0.000000 0.000000 -1.000000
vn -1.000000 0.000000 0.000000
vn -1.000000 0.000000 0.000000
vn -1.000000 0.000000 0.000000
vn -1.000000 0.000000 0.000000
vn 0.000000 -0.000000 1.000000
vn 0.000000 -0.000000 1.000000
vn 0.000000 -0.000000 1.000000
vn 0.000000 -0.000000 1.000000
vn 0.000000 -0.000000 1.000000
vn 0.000000 -0.000000 1.000000
vn 0.000000 -0.000000 1.000000
vn 0.000000 -0.000000 1.000000
f 3/3/3 2/2/2 1/1/1
f 6/6/6 5/5/5 4/4/4
f 9/9/9 8/8/8 7/7/7
f 12/12/12 11/11/11 10/10/10
f 14/14/14 13/13/13 10/10/10
f 17/17/17 16/16/16 15/15/15
f 20/20/20 19/19/19 18/18/18
f 23/23/23 22/22/22 21/21/21
f 25/25/25 24/24/24 21/21/21
f 28/28/28 27/27/27 26/26/26
f 31/31/31 30/30/30 29/29/29
f 34/34/34 33/33/33 32/32/32
f 37/37/37 36/36/36 35/35/35
f 40/40/40 39/39/39 38/38/38
f 43/43/43 42/42/42 41/41/41
f 45/45/45 44/44/44 43/43/43
f 45/45/45 47/47/47 46/46/46
f 49/49/49 43/43/43 48/48/48
f 48/48/48 50/50/50 49/49/49
f 49/49/49 50/50/50 51/51/51
f 50/50/50 52/52/52 51/51/51
f 55/55/55 54/54/54 53/53/53
f 58/58/58 57/57/57 56/56/56
f 61/61/61 60/60/60 59/59/59
f 64/64/64 63/63/63 62/62/62
f 67/67/67 66/66/66 65/65/65
f 70/70/70 69/69/69 68/68/68
f 73/73/73 72/72/72 71/71/71
f 76/76/76 75/75/75 74/74/74
f 79/79/79 78/78/78 77/77/77
f 82/82/82 81/81/81 80/80/80
f 84/84/84 83/83/83 82/82/82
f 82/82/82 83/83/83 85/85/85
f 85/85/85 83/83/83 86/86/86
f 87/87/87 82/82/82 85/85/85
f 85/85/85 88/88/88 87/87/87
f 85/85/85 89/89/89 88/88/88
f 91/91/91 86/86/86 90/90/90
f 94/94/94 93/93/93 92/92/92
f 97/97/97 96/96/96 95/95/95
f 100/100/100 99/99/99 98/98/98
f 103/103/103 102/102/102 101/101/101
f 106/106/106 105/105/105 104/104/104
f 109/109/109 108/108/108 107/107/107
f 109/109/109 111/111/111 110/110/110
f 110/110/110 113/113/113 112/112/112
f 110/110/110 114/114/114 113/113/113
f 117/117/117 116/116/116 115/115/115
f 120/120/120 119/119/119 118/118/118
f 123/123/123 122/122/122 121/121/121
f 126/126/126 125/125/125 124/124/124
f 129/129/129 128/128/128 127/127/127
f 132/132/132 131/131/131 130/130/130
f 135/135/135 134/134/134 133/133/133
f 138/138/138 137/137/137 136/136/136
f 141/141/141 140/140/140 139/139/139
f 144/144/144 143/143/143 142/142/142
f 147/147/147 146/146/146 145/145/145
f 150/150/150 149/149/149 148/148/148
f 153/153/153 152/152/152 151/151/151
f 156/156/156 155/155/155 154/154/154
f 159/159/159 158/158/158 157/157/157
f 159/159/159 161/161/161 160/160/160
f 164/164/164 163/163/163 162/162/162
f 167/167/167 166/166/166 165/165/165
f 170/170/170 169/169/169 168/168/168
f 173/173/173 172/172/172 171/171/171
f 176/176/176 175/175/175 174/174/174
f 179/179/179 178/178/178 177/177/177
f 182/182/182 181/181/181 180/180/180
f 185/185/185 184/184/184 183/183/183
f 188/188/188 187/187/187 186/186/186
f 191/191/191 190/190/190 189/189/189
f 194/194/194 193/193/193 192/192/192
f 197/197/197 196/196/196 195/195/195
f 200/200/200 199/199/199 198/198/198
f 203/203/203 202/202/202 201/201/201
f 206/206/206 205/205/205 204/204/204
f 209/209/209 208/208/208 207/207/207
f 212/212/212 211/211/211 210/210/210
f 214/214/214 213/213/213 211/211/211
f 213/213/213 214/214/214 215/215/215
f 218/218/218 217/217/217 216/216/216
f 221/221/221 220/220/220 219/219/219
f 224/224/224 223/223/223 222/222/222
f 227/227/227 226/226/226 225/225/225
f 230/230/230 229/229/229 228/228/228
f 228/228/228 232/232/232 231/231/231
f 233/233/233 228/228/228 231/231/231
f 236/236/236 235/235/235 234/234/234
f 238/238/238 237/237/237 236/236/236
f 241/241/241 240/240/240 239/239/239
f 244/244/244 243/243/243 242/242/242
f 247/247/247 246/246/246 245/245/245
f 249/249/249 248/248/248 246/246/246
f 248/248/248 249/249/249 250/250/250
f 253/253/253 252/252/252 251/251/251
f 256/256/256 255/255/255 254/254/254
f 259/259/259 258/258/258 257/257/257
f 262/262/262 261/261/261 260/260/260
f 265/265/265 264/264/264 263/263/263
f 268/268/268 267/267/267 266/266/266
f 271/271/271 270/270/270 269/269/269
f 274/274/274 273/273/273 272/272/272
f 277/277/277 276/276/276 275/275/275
f 275/275/275 279/279/279 278/278/278
f 282/282/282 281/281/281 280/280/280
f 285/285/285 284/284/284 283/283/283
f 287/287/287 284/284/284 286/286/286
f 287/287/287 288/288/288 286/286/286
f 291/291/291 290/290/290 289/289/289
f 294/294/294 293/293/293 292/292/292
f 297/297/297 296/296/296 295/295/295
f 295/295/295 299/299/299 298/298/298
f 300/300/300 295/295/295 298/298/298
f 303/303/303 302/302/302 301/301/301
f 305/305/305 304/304/304 301/301/301
f 304/304/304 306/306/306 301/301/301
f 307/307/307 301/301/301 304/304/304
f 306/306/306 304/304/304 307/307/307
f 306/306/306 301/301/301 307/307/307
f 306/306/306 307/307/307 308/308/308
f 308/308/308 310/310/310 309/309/309
f 312/312/312 309/309/309 311/311/311
f 315/315/315 314/314/314 313/313/313
f 318/318/318 317/317/317 316/316/316
f 321/321/321 320/320/320 319/319/319
f 324/324/324 323/323/323 322/322/322
f 327/327/327 326/326/326 325/325/325
f 330/330/330 329/329/329 328/328/328
f 333/333/333 332/332/332 331/331/331
f 336/336/336 335/335/335 334/334/334
f 339/339/339 338/338/338 337/337/337
f 342/342/342 341/341/341 340/340/340
f 345/345/345 344/344/344 343/343/343
f 344/344/344 345/345/345 346/346/346
f 347/347/347 344/344/344 346/346/346
f 350/350/350 349/349/349 348/348/348
f 351/351/351 349/349/349 350/350/350
f 354/354/354 353/353/353 352/352/352
f 353/353/353 355/355/355 352/352/352
f 356/356/356 352/352/352 355/355/355
f 357/357/357 356/356/356 355/355/355
f 360/360/360 359/359/359 358/358/358
f 361/361/361 360/360/360 358/358/358
f 362/362/362 361/361/361 358/358/358
f 364/364/364 358/358/358 363/363/363
f 366/366/366 365/365/365 361/361/361
f 367/367/367 366/366/366 361/361/361
f 369/369/369 364/364/364 368/368/368
f 369/369/369 368/368/368 370/370/370
f 371/371/371 369/369/369 370/370/370
f 369/369/369 371/371/371 372/372/372
f 362/362/362 372/372/372 373/373/373
f 372/372/372 371/371/371 373/373/373
f 367/367/367 373/373/373 374/374/374
f 374/374/374 373/373/373 371/371/371
f 377/377/377 376/376/376 375/375/375
f 378/378/378 376/376/376 377/377/377
f 381/381/381 380/380/380 379/379/379
f 382/382/382 380/380/380 381/381/381
f 382/382/382 383/383/383 380/380/380
f 384/384/384 383/383/383 382/382/382
f 384/384/384 385/385/385 383/383/383
f 388/388/388 387/387/387 386/386/386
f 387/387/387 388/388/388 389/389/389
f 392/392/392 391/391/391 390/390/390
f 390/390/390 391/391/391 393/393/393
f 396/396/396 395/395/395 394/394/394
f 394/394/394 395/395/395 397/397/397
f 400/400/400 399/399/399 398/398/398
f 398/398/398 399/399/399 401/401/401
f 404/404/404 403/403/403 402/402/402
f 405/405/405 403/403/403 404/404/404
f 408/408/408 407/407/407 406/406/406
f 406/406/406 407/407/407 409/409/409
f 412/412/412 411/411/411 410/410/410
f 412/412/412 413/413/413 411/411/411
f 414/414/414 411/411/411 413/413/413
f 415/415/415 414/414/414 413/413/413
f 418/418/418 417/417/417 416/416/416
f 416/416/416 417/417/417 419/419/419
f 422/422/422 421/421/421 420/420/420
f 423/423/423 421/421/421 422/422/422
f 426/426/426 425/425/425 424/424/424
f 424/424/424 425/425/425 427/427/427
f 430/430/430 429/429/429 428/428/428
f 431/431/431 429/429/429 430/430/430
f 434/434/434 433/433/433 432/432/432
f 435/435/435 433/433/433 434/434/434
f 438/438/438 437/437/437 436/436/436
f 436/436/436 437/437/437 439/439/439
f 442/442/442 441/441/441 440/440/440
f 440/440/440 441/441/441 443/443/443
f 446/446/446 445/445/445 444/444/444
f 444/444/444 445/445/445 447/447/447
f 450/450/450 449/449/449 448/448/448
f 448/448/448 449/449/449 451/451/451
f 454/454/454 453/453/453 452/452/452
f 455/455/455 453/453/453 454/454/454
f 458/458/458 457/457/457 456/456/456
f 456/456/456 457/457/457 459/459/459
f 462/462/462 461/461/461 460/460/460
f 461/461/461 463/463/463 460/460/460
f 464/464/464 460/460/460 463/463/463
f 467/467/467 466/466/466 465/465/465
f 468/468/468 466/466/466 467/467/467
f 470/470/470 468/468/468 469/469/469
f 469/469/469 471/471/471 470/470/470
f 474/474/474 473/473/473 472/472/472
f 474/474/474 472/472/472 475/475/475
f 472/472/472 477/477/477 476/476/476
f 478/478/478 476/476/476 477/477/477
f 476/476/476 478/478/478 479/479/479
f 482/482/482 481/481/481 480/480/480
f 480/480/480 484/484/484 483/483/483
f 485/485/485 484/484/484 482/482/482
f 486/486/486 483/483/483 484/484/484
f 485/485/485 488/488/488 487/487/487
f 490/490/490 489/489/489 486/486/486
f 487/487/487 491/491/491 490/490/490
f 492/492/492 490/490/490 491/491/491
f 495/495/495 494/494/494 493/493/493
f 493/493/493 494/494/494 496/496/496
f 497/497/497 493/493/493 496/496/496
f 498/498/498 496/496/496 494/494/494
f 499/499/499 498/498/498 494/494/494
f 500/500/500 499/499/499 494/494/494
f 503/503/503 502/502/502 501/501/501
f 504/504/504 502/502/502 503/503/503
f 507/507/507 506/506/506 505/505/505
f 505/505/505 506/506/506 508/508/508
f 511/511/511 510/510/510 509/509/509
f 509/509/509 510/510/510 512/512/512
f 515/515/515 514/514/514 513/513/513
f 516/516/516 514/514/514 515/515/515
f 519/519/519 518/518/518 517/517/517
f 519/519/519 521/521/521 520/520/520
f 521/521/521 518/518/518 522/522/522
f 523/523/523 522/522/522 518/518/518
f 524/524/524 522/522/522 523/523/523
f 527/527/527 526/526/526 525/525/525
f 525/525/525 526/526/526 528/528/528
f 531/531/531 530/530/530 529/529/529
f 529/529/529 530/530/530 532/532/532
f 535/535/535 534/534/534 533/533/533
f 533/533/533 534/534/534 536/536/536
f 539/539/539 538/538/538 537/537/537
f 537/537/537 538/538/538 540/540/540
f 543/543/543 542/542/542 541/541/541
f 544/544/544 541/541/541 542/542/542
f 545/545/545 541/541/541 544/544/544
f 545/545/545 544/544/544 546/546/546
f 549/549/549 548/548/548 547/547/547
f 548/548/548 549/549/549 550/550/550
f 553/553/553 552/552/552 551/551/551
f 552/552/552 553/553/553 554/554/554
f 557/557/557 556/556/556 555/555/555
f 556/556/556 557/557/557 558/558/558
f 561/561/561 560/560/560 559/559/559
f 562/562/562 560/560/560 561/561/561
f 565/565/565 564/564/564 563/563/563
f 563/563/563 564/564/564 566/566/566
f 569/569/569 568/568/568 567/567/567
f 570/570/570 568/568/568 569/569/569
f 573/573/573 572/572/572 571/571/571
f 571/571/571 575/575/575 574/574/574
f 574/574/574 575/575/575 573/573/573
f 575/575/575 576/576/576 573/573/573
f 579/579/579 578/578/578 577/577/577
f 580/580/580 578/578/578 579/579/579
f 583/583/583 582/582/582 581/581/581
f 584/584/584 581/581/581 582/582/582
f 581/581/581 582/582/582 585/585/585
f 586/586/586 582/582/582 581/581/581
f 587/587/587 582/582/582 586/586/586
f 587/587/587 586/586/586 588/588/588
f 590/590/590 589/589/589 585/585/585
f 591/591/591 585/585/585 589/589/589
f 592/592/592 591/591/591 589/589/589
f 595/595/595 594/594/594 593/593/593
f 595/595/595 596/596/596 594/594/594
f 594/594/594 596/596/596 597/597/597
f 598/598/598 597/597/597 596/596/596
f 601/601/601 600/600/600 599/599/599
f 599/599/599 600/600/600 602/602/602
f 605/605/605 604/604/604 603/603/603
f 603/603/603 604/604/604 606/606/606
f 604/604/604 607/607/607 603/603/603
f 607/607/607 608/608/608 606/606/606
f 609/609/609 606/606/606 607/607/607
f 609/609/609 606/606/606 608/608/608
f 608/608/608 609/609/609 607/607/607
f 610/610/610 609/609/609 608/608/608
f 613/613/613 612/612/612 611/611/611
f 614/614/614 612/612/612 613/613/613
f 617/617/617 616/616/616 615/615/615
f 615/615/615 616/616/616 618/618/618
f 621/621/621 620/620/620 619/619/619
f 622/622/622 620/620/620 619/619/619
f 625/625/625 624/624/624 623/623/623
f 626/626/626 624/624/624 625/625/625
f 629/629/629 628/628/628 627/627/627
f 630/630/630 628/628/628 629/629/629
f 633/633/633 632/632/632 631/631/631
f 634/634/634 632/632/632 633/633/633
f 637/637/637 636/636/636 635/635/635
f 635/635/635 636/636/636 638/638/638
f 641/641/641 640/640/640 639/639/639
f 641/641/641 639/639/639 642/642/642
f 643/643/643 642/642/642 639/639/639
f 646/646/646 645/645/645 644/644/644
f 647/647/647 645/645/645 646/646/646
f 650/650/650 649/649/649 648/648/648
f 649/649/649 650/650/650 651/651/651
f 654/654/654 653/653/653 652/652/652
f 652/652/652 656/656/656 655/655/655
f 654/654/654 656/656/656 657/657/657
f 657/657/657 656/656/656 655/655/655
f 660/660/660 659/659/659 658/658/658
f 661/661/661 658/658/658 659/659/659
f 664/664/664 663/663/663 662/662/662
f 663/663/663 664/664/664 665/665/665
f 668/668/668 667/667/667 666/666/666
f 666/666/666 667/667/667 669/669/669
f 672/672/672 671/671/671 670/670/670
f 670/670/670 671/671/671 673/673/673
f 676/676/676 675/675/675 674/674/674
f 674/674/674 675/675/675 677/677/677
f 678/678/678 677/677/677 675/675/675
f 679/679/679 678/678/678 675/675/675
f 682/682/682 681/681/681 680/680/680
f 680/680/680 681/681/681 683/683/683
f 686/686/686 685/685/685 684/684/684
f 684/684/684 685/685/685 687/687/687
f 690/690/690 689/689/689 688/688/688
f 688/688/688 689/689/689 691/691/691
f 694/694/694 693/693/693 692/692/692
f 692/692/692 693/693/693 695/695/695
f 698/698/698 697/697/697 696/696/696
f 696/696/696 697/697/697 699/699/699
f 702/702/702 701/701/701 700/700/700
f 700/700/700 701/701/701 703/703/703
f 706/706/706 705/705/705 704/704/704
f 704/704/704 705/705/705 707/707/707
f 710/710/710 709/709/709 708/708/708
f 711/711/711 708/708/708 709/709/709
f 714/714/714 713/713/713 712/712/712
f 712/712/712 713/713/713 715/715/715
f 716/716/716 715/715/715 712/712/712
f 715/715/715 716/716/716 713/713/713
f 719/719/719 718/718/718 717/717/717
f 719/719/719 717/717/717 720/720/720
f 723/723/723 722/722/722 721/721/721
f 721/721/721 722/722/722 724/724/724
f 727/727/727 726/726/726 725/725/725
f 725/725/725 726/726/726 728/728/728
f 731/731/731 730/730/730 729/729/729
f 729/729/729 730/730/730 732/732/732
f 735/735/735 734/734/734 733/733/733
f 733/733/733 734/734/734 736/736/736
f 739/739/739 738/738/738 737/737/737
f 737/737/737 738/738/738 740/740/740
f 741/741/741 740/740/740 738/738/738
f 744/744/744 743/743/743 742/742/742
f 742/742/742 743/743/743 745/745/745
f 748/748/748 747/747/747 746/746/746
f 746/746/746 747/747/747 749/749/749
f 752/752/752 751/751/751 750/750/750
f 750/750/750 751/751/751 753/753/753
f 756/756/756 755/755/755 754/754/754
f 755/755/755 757/757/757 754/754/754
f 758/758/758 754/754/754 757/757/757
f 759/759/759 754/754/754 758/758/758
f 762/762/762 761/761/761 760/760/760
f 763/763/763 762/762/762 761/761/761
f 762/762/762 763/763/763 764/764/764
f 764/764/764 765/765/765 760/760/760
f 765/765/765 762/762/762 764/764/764
f 762/762/762 760/760/760 765/765/765
f 768/768/768 767/767/767 766/766/766
f 766/766/766 767/767/767 769/769/769
f 769/769/769 768/768/768 767/767/767
f 772/772/772 771/771/771 770/770/770
f 773/773/773 772/772/772 770/770/770
f 774/774/774 770/770/770 771/771/771
f 775/775/775 774/774/774 771/771/771
f 776/776/776 775/775/775 771/771/771
f 776/776/776 773/773/773 777/777/777
f 775/775/775 776/776/776 777/777/777
