v -0.980601 -1.770704 1.120376
v -0.737324 -1.179354 1.816504
v -0.981423 -1.456957 1.116054
v -0.720672 -1.415702 1.857052
v -0.737324 -1.179354 1.816504
v -0.720672 -1.415702 1.857052
v -0.681549 -0.994905 2.145725
v -0.681549 -0.994905 2.145725
v -0.690197 -1.287212 2.096065
v -0.939340 -1.268413 2.087434
v -0.681549 -0.994905 2.145725
v -0.919323 -0.963715 2.174335
v 0.895438 0.937900 1.871056
v 0.834711 0.785520 2.119877
v 0.791267 0.373444 2.153715
v 0.895438 0.937900 1.871056
v 0.872135 0.689037 1.875965
v 0.792020 -0.096943 1.925961
v 0.750039 -0.049121 2.170833
v 0.731269 -0.310702 2.133200
v 0.792020 -0.096943 1.925961
v 0.731269 -0.310702 2.133200
v 0.774438 -0.343114 1.886020
v 0.690133 -0.808173 2.103562
v 0.716090 -1.096658 1.819936
v 0.774438 -0.343114 1.886020
v 0.731269 -0.310702 2.133200
v 0.690133 -0.808173 2.103562
v 0.702067 -1.326699 1.841167
v 0.716090 -1.096658 1.819936
v 0.690133 -0.808173 2.103562
v 0.976959 -1.458102 1.100548
v 0.702067 -1.326699 1.841167
v 0.981904 -1.769900 1.137303
v 0.702067 -1.326699 1.841167
v 0.690133 -0.808173 2.103562
v 0.659481 -1.220545 2.060565
v -0.720672 -1.415702 1.857052
v -0.690197 -1.287212 2.096065
v -0.681549 -0.994905 2.145725
v -0.992095 -0.373428 1.687126
v -1.239753 -0.389880 1.722462
v -1.243388 -0.424596 1.970013
v -0.992095 -0.373428 1.687126
v -1.243388 -0.424596 1.970013
v -0.993414 -0.425223 1.973595
v -0.737324 -1.179354 1.816504
v -0.681549 -0.994905 2.145725
v -0.919323 -0.963715 2.174335
v -0.737324 -1.179354 1.816504
v -0.919323 -0.963715 2.174335
v -0.967835 -1.165618 1.894043
v 1.239198 -1.475965 -0.165259
v 1.231824 -1.756167 -0.140273
v 1.231510 -1.757049 0.109725
v 1.236154 -1.484469 0.084578
v 1.244375 -0.291973 -0.124904
v 1.225657 -1.464429 1.108763
v 1.232126 -1.771549 1.012759
v 1.229577 -0.343676 1.127295
v 1.241331 -0.300477 0.124933
v 1.246172 -0.048298 -0.094817
v 1.238895 -0.077878 1.153347
v 1.244681 -0.052478 0.155143
v 1.249010 1.242374 -0.073221
v 1.240500 1.124715 1.152377
v 1.247519 1.238193 0.176740
v 1.249097 1.493295 -0.075008
v 1.241760 1.462873 1.027106
v 1.248069 1.488157 0.180921
v 1.222071 2.826620 -0.175131
v 1.231080 2.873796 0.845609
v 1.226394 2.896645 0.095161
v -1.228160 1.459343 -0.099371
v -1.239695 2.817386 -0.149605
v -1.237397 2.890157 0.098376
v -1.213261 1.493713 0.170597
v -1.227487 1.209391 -0.094490
v -1.215924 1.476354 1.015376
v -1.229561 2.876099 0.849014
v -1.221362 1.127987 1.136437
v -1.213429 1.243716 0.169342
v -1.228353 -0.078299 -0.109301
v -1.231252 -0.084588 1.100381
v -1.219486 -0.037625 0.099139
v -1.231606 -0.329541 -0.130215
v -1.231728 -0.330896 1.089153
v -1.220989 -0.290116 0.094534
v -1.224808 -1.513241 -0.082259
v -1.228280 -1.457060 1.155573
v -1.230285 -1.505877 0.107524
v -1.242198 -1.774491 1.055857
v -1.232021 -1.767959 -0.123447
v -1.231491 -1.766466 0.126548
v -1.231243 -2.730059 -0.117706
v -1.230683 -2.766448 0.132515
v -1.242198 -1.774491 1.055857
v -1.229100 -2.753779 0.882742
v -0.989710 2.818324 -0.152197
v -1.239695 2.817386 -0.149605
v -1.228160 1.459343 -0.099371
v -0.978167 1.459982 -0.101112
v 0.972086 2.825682 -0.172539
v -1.227487 1.209391 -0.094490
v 0.999098 1.493465 -0.075454
v 1.222071 2.826620 -0.175131
v 1.249097 1.493295 -0.075008
v -0.962983 1.244802 -0.080208
v -1.228353 -0.078299 -0.109301
v 0.998930 1.243468 -0.076709
v 1.249010 1.242374 -0.073221
v -0.968341 -0.042087 -0.130550
v -1.231606 -0.329541 -0.130215
v 0.994704 -0.042020 -0.122330
v 1.246172 -0.048298 -0.094817
v -0.972409 -0.293586 -0.156854
v -1.224808 -1.513241 -0.082259
v 0.991868 -0.287179 -0.156229
v 1.244375 -0.291973 -0.124904
v -0.974837 -1.511952 -0.085887
v -1.232021 -1.767959 -0.123447
v -0.980090 -1.755113 -0.143042
v 0.992069 -1.473998 -0.149105
v 1.239198 -1.475965 -0.165259
v 0.981824 -1.756048 -0.140586
v 1.231824 -1.756167 -0.140273
v 1.226394 2.896645 0.095161
v 1.231080 2.873796 0.845609
v 0.981852 2.875393 0.972132
v 0.980959 2.898203 0.124999
v -0.980022 2.870931 0.984247
v 0.972086 2.825682 -0.172539
v 1.222071 2.826620 -0.175131
v -0.989710 2.818324 -0.152197
v -0.980958 2.898204 0.124999
v -1.229561 2.876099 0.849014
v -1.239695 2.817386 -0.149605
v -1.237397 2.890157 0.098376
v -0.980601 -1.770704 1.120376
v -0.978836 -2.752834 1.007209
v -1.229100 -2.753779 0.882742
v -1.242198 -1.774491 1.055857
v -0.980239 -1.405996 0.108190
v -0.981423 -1.456957 1.116054
v -0.982148 -0.335478 1.099400
v -0.969146 -0.287280 0.100750
v -0.981274 -0.085514 1.103534
v -0.969487 -0.037293 0.098248
v -0.971368 1.127655 1.138056
v -0.963496 1.143548 0.169286
v -0.970917 1.465915 1.137782
v -0.963329 1.393544 0.170541
v 0.985723 -1.383794 0.079588
v 0.976959 -1.458102 1.100548
v -0.981423 -1.456957 1.116054
v -0.980239 -1.405996 0.108190
v 0.992755 -0.284677 0.093757
v 0.985723 -1.383794 0.079588
v -0.980239 -1.405996 0.108190
v -0.969146 -0.287280 0.100750
v 0.992414 -0.034690 0.091255
v -0.969487 -0.037293 0.098248
v 0.998416 1.142212 0.172785
v -0.963496 1.143548 0.169286
v 0.998584 1.392209 0.174040
v -0.963329 1.393544 0.170541
v -1.231252 -0.084588 1.100381
v -1.239753 -0.389880 1.722462
v -1.231728 -0.330896 1.089153
v -1.239630 -0.142303 1.757182
v -1.243388 -0.424596 1.970013
v -1.243265 -0.177019 2.004733
v -0.980022 2.870931 0.984247
v -1.215924 1.476354 1.015376
v -1.229561 2.876099 0.849014
v -0.970917 1.465915 1.137782
v 0.981852 2.875393 0.972132
v 0.990957 1.463307 1.150484
v 1.231080 2.873796 0.845609
v 1.241760 1.462873 1.027106
v 0.976959 -1.458102 1.100548
v 0.981904 -1.769900 1.137303
v -0.980601 -1.770704 1.120376
v -0.981423 -1.456957 1.116054
v 1.232126 -1.771549 1.012759
v 0.960794 -1.119618 1.865684
v 1.225657 -1.464429 1.108763
v 0.939395 -1.368482 1.855251
v 0.934837 -0.831133 2.149309
v 0.904184 -1.243505 2.106312
v 1.019142 -0.366073 1.931768
v 0.975972 -0.333662 2.178948
v 0.994737 -0.071121 2.217081
v 1.036718 -0.118943 1.972208
v 1.229577 -0.343676 1.127295
v 1.238895 -0.077878 1.153347
v -0.982148 -0.335478 1.099400
v -0.981423 -1.456957 1.116054
v -1.228280 -1.457060 1.155573
v -1.231728 -0.330896 1.089153
v 1.229577 -0.343676 1.127295
v 1.225657 -1.464429 1.108763
v 0.976959 -1.458102 1.100548
v 0.979598 -0.342749 1.124142
v -0.971368 1.127655 1.138056
v -0.981274 -0.085514 1.103534
v -1.231252 -0.084588 1.100381
v -1.221362 1.127987 1.136437
v 1.240500 1.124715 1.152377
v 1.238895 -0.077878 1.153347
v 0.980472 -0.092785 1.128275
v 0.990506 1.125047 1.150759
v 0.980472 -0.092785 1.128275
v 0.792020 -0.096943 1.925961
v 0.774438 -0.343114 1.886020
v 0.979598 -0.342749 1.124142
v -1.242198 -1.774491 1.055857
v -0.720672 -1.415702 1.857052
v -0.980601 -1.770704 1.120376
v -0.967612 -1.415610 1.896045
v -0.690197 -1.287212 2.096065
v -0.939340 -1.268413 2.087434
v 1.232126 -1.771549 1.012759
v 1.232809 -2.751822 0.877514
v 0.983075 -2.751274 1.003043
v 0.981904 -1.769900 1.137303
v 0.992755 -0.284677 0.093757
v 0.976959 -1.458102 1.100548
v 0.985723 -1.383794 0.079588
v 0.979598 -0.342749 1.124142
v 0.992414 -0.034690 0.091255
v 0.980472 -0.092785 1.128275
v 0.998416 1.142212 0.172785
v 0.990506 1.125047 1.150759
v 0.998584 1.392209 0.174040
v 0.990957 1.463307 1.150484
v 0.981904 -1.769900 1.137303
v 0.983075 -2.751274 1.003043
v -0.978836 -2.752834 1.007209
v -0.980601 -1.770704 1.120376
v 1.231510 -1.757049 0.109725
v 1.232809 -2.751822 0.877514
v 1.232126 -1.771549 1.012759
v 1.231226 -2.764490 0.127287
v 1.231824 -1.756167 -0.140273
v 1.230666 -2.728100 -0.122934
v -0.963329 1.393544 0.170541
v -0.970917 1.465915 1.137782
v 0.990957 1.463307 1.150484
v 0.998584 1.392209 0.174040
v 0.979598 -0.342749 1.124142
v 0.774438 -0.343114 1.886020
v 1.019142 -0.366073 1.931768
v 1.229577 -0.343676 1.127295
v 0.990506 1.125047 1.150759
v 0.872135 0.689037 1.875965
v 1.116833 0.667037 1.922212
v 1.240500 1.124715 1.152377
v 1.140136 0.915900 1.917304
v 1.079409 0.763519 2.166125
v 0.834711 0.785520 2.119877
v 0.895438 0.937900 1.871056
v 1.241760 1.462873 1.027106
v 0.990957 1.463307 1.150484
v -0.988633 0.892709 1.870584
v -0.992348 0.697332 2.095604
v -1.242321 0.697959 2.092022
v -1.238607 0.893335 1.867002
v -0.970917 1.465915 1.137782
v -1.215924 1.476354 1.015376
v 0.990957 1.463307 1.150484
v 0.895438 0.937900 1.871056
v 0.872135 0.689037 1.875965
v 0.990506 1.125047 1.150759
v -1.215924 1.476354 1.015376
v -1.238730 0.645758 1.832281
v -1.221362 1.127987 1.136437
v -1.238607 0.893335 1.867002
v -1.242906 0.283433 2.060289
v -1.242321 0.697959 2.092022
v -1.239630 -0.142303 1.757182
v -1.243265 -0.177019 2.004733
v 1.238895 -0.077878 1.153347
v 1.036718 -0.118943 1.972208
v 0.792020 -0.096943 1.925961
v 0.980472 -0.092785 1.128275
v -1.228280 -1.457060 1.155573
v -0.967612 -1.415610 1.896045
v -1.242198 -1.774491 1.055857
v -0.967835 -1.165618 1.894043
v -0.939340 -1.268413 2.087434
v -0.919323 -0.963715 2.174335
v -1.221362 1.127987 1.136437
v -1.238730 0.645758 1.832281
v -0.988757 0.645132 1.835863
v -0.971368 1.127655 1.138056
v -1.231728 -0.330896 1.089153
v -1.239753 -0.389880 1.722462
v -0.992095 -0.373428 1.687126
v -0.982148 -0.335478 1.099400
v 1.225657 -1.464429 1.108763
v 0.960794 -1.119618 1.865684
v 0.716090 -1.096658 1.819936
v 0.976959 -1.458102 1.100548
v -0.982148 -0.335478 1.099400
v -0.992095 -0.373428 1.687126
v -0.989657 -0.142930 1.760765
v -0.981274 -0.085514 1.103534
v -0.981423 -1.456957 1.116054
v -0.737324 -1.179354 1.816504
v -0.967835 -1.165618 1.894043
v -1.228280 -1.457060 1.155573
v 0.981904 -1.769900 1.137303
v 0.939395 -1.368482 1.855251
v 1.232126 -1.771549 1.012759
v 0.702067 -1.326699 1.841167
v 0.904184 -1.243505 2.106312
v 0.659481 -1.220545 2.060565
v -0.971368 1.127655 1.138056
v -0.988757 0.645132 1.835863
v -0.988633 0.892709 1.870584
v -0.970917 1.465915 1.137782
v 1.240500 1.124715 1.152377
v 1.140136 0.915900 1.917304
v 1.241760 1.462873 1.027106
v 1.116833 0.667037 1.922212
v 1.079409 0.763519 2.166125
v 1.035965 0.351444 2.199963
v 0.994737 -0.071121 2.217081
v 1.036718 -0.118943 1.972208
v -0.981274 -0.085514 1.103534
v -0.989657 -0.142930 1.760765
v -1.239630 -0.142303 1.757182
v -1.231252 -0.084588 1.100381
v 0.934837 -0.831133 2.149309
v 0.904184 -1.243505 2.106312
v 0.659481 -1.220545 2.060565
v 0.690133 -0.808173 2.103562
v 0.731269 -0.310702 2.133200
v 0.975972 -0.333662 2.178948
v 0.994737 -0.071121 2.217081
v 0.750039 -0.049121 2.170833
v -0.993291 -0.177645 2.008316
v -0.993414 -0.425223 1.973595
v -1.243388 -0.424596 1.970013
v -1.243265 -0.177019 2.004733
v -0.992348 0.697332 2.095604
v -1.242906 0.283433 2.060289
v -1.242321 0.697959 2.092022
v -0.992933 0.282807 2.063871
v -0.993291 -0.177645 2.008316
v -1.243265 -0.177019 2.004733
v 1.079409 0.763519 2.166125
v 0.791267 0.373444 2.153715
v 0.834711 0.785520 2.119877
v 1.035965 0.351444 2.199963
v 0.994737 -0.071121 2.217081
v 0.750039 -0.049121 2.170833
v 0.960794 -1.119618 1.865684
v 1.019142 -0.366073 1.931768
v 0.774438 -0.343114 1.886020
v 0.716090 -1.096658 1.819936
v 1.036718 -0.118943 1.972208
v 1.116833 0.667037 1.922212
v 0.872135 0.689037 1.875965
v 0.792020 -0.096943 1.925961
v -0.989657 -0.142930 1.760765
v -0.988757 0.645132 1.835863
v -1.238730 0.645758 1.832281
v -1.239630 -0.142303 1.757182
v -0.981244 -2.729860 -0.118237
v -1.231243 -2.730059 -0.117706
v -1.230683 -2.766448 0.132515
v -0.980684 -2.766249 0.131984
v 0.980667 -2.728299 -0.122403
v -0.978836 -2.752834 1.007209
v -1.229100 -2.753779 0.882742
v 0.983075 -2.751274 1.003043
v 0.981227 -2.764689 0.127818
v 1.230666 -2.728100 -0.122934
v 1.232809 -2.751822 0.877514
v 1.231226 -2.764490 0.127287
v 0.981824 -1.756048 -0.140586
v 1.230666 -2.728100 -0.122934
v 1.231824 -1.756167 -0.140273
v 0.980667 -2.728299 -0.122403
v -0.980090 -1.755113 -0.143042
v -0.981244 -2.729860 -0.118237
v -1.232021 -1.767959 -0.123447
v -1.231243 -2.730059 -0.117706
v 0.872135 0.689037 1.875965
v 0.791267 0.373444 2.153715
v 0.750039 -0.049121 2.170833
v 0.792020 -0.096943 1.925961
v -0.989657 -0.142930 1.760765
v -0.992095 -0.373428 1.687126
v -0.993414 -0.425223 1.973595
v -0.993291 -0.177645 2.008316
v -0.988757 0.645132 1.835863
v -0.989657 -0.142930 1.760765
v -0.993291 -0.177645 2.008316
v -0.992933 0.282807 2.063871
v -0.988633 0.892709 1.870584
v -0.988757 0.645132 1.835863
v -0.992933 0.282807 2.063871
v -0.992348 0.697332 2.095604
vt 0.102733001 0.732424021
vt 0.103551999 0.732061982
vt 0.102733001 0.732165992
vt 0.103551999 0.732321024
vt 0.103551999 0.732061982
vt 0.099454999 0.732722998
vt 0.0894490033 0.647937
vt 0.0943130031 0.73269397
vt 0.0943130031 0.732436001
vt 0.0940399989 0.732436001
vt 0.0943130031 0.73269397
vt 0.0940399989 0.73269397
vt 0.0991270021 0.736162007
vt 0.101248004 0.735903978
vt 0.101248004 0.735646009
vt 0.0991270021 0.736162007
vt 0.108335003 0.735727012
vt 0.107515998 0.737318993
vt 0.0964550003 0.734183013
vt 0.0894490033 0.647937
vt 0.107515998 0.737318993
vt 0.0894490033 0.647937
vt 0.103542 0.733798027
vt 0.0894490033 0.647937
vt 0.101905003 0.735647976
vt 0.103542 0.733798027
vt 0.0964550003 0.733923972
vt 0.0894490033 0.647937
vt 0.0991849974 0.734749973
vt 0.102459997 0.731194019
vt 0.101905003 0.735647976
vt 0.101640999 0.731090009
vt 0.102459997 0.730934978
vt 0.101640999 0.730831981
vt 0.0991849974 0.734749973
vt 0.101905003 0.735647976
vt 0.0964550003 0.73269397
vt 0.099454999 0.732722998
vt 0.0943130031 0.732436001
vt 0.0894490033 0.647937
vt 0.0894490033 0.647937
vt 0.103814997 0.736078978
vt 0.0989120007 0.729129016
vt 0.0894490033 0.647937
vt 0.0989120007 0.729129016
vt 0.0940399989 0.733883977
vt 0.103551999 0.732061982
vt 0.0943130031 0.73269397
vt 0.0991849974 0.72793901
vt 0.103551999 0.732061982
vt 0.0991849974 0.72793901
vt 0.104098 0.732424021
vt 0.130630001 0.765349984
vt 0.130630001 0.767672002
vt 0.133083999 0.767672002
vt 0.133083999 0.765349984
vt 0.130630001 0.753358006
vt 0.142900005 0.765349984
vt 0.142900005 0.767672002
vt 0.142900005 0.753358006
vt 0.133083999 0.753358006
vt 0.130630001 0.751034975
vt 0.142900005 0.751034975
vt 0.133083999 0.751034975
vt 0.130630001 0.739042997
vt 0.142900005 0.739862978
vt 0.133083999 0.739042997
vt 0.130630001 0.736720979
vt 0.141672999 0.736720979
vt 0.133083999 0.736720979
vt 0.130630001 0.723627985
vt 0.141243994 0.723627985
vt 0.133083999 0.723371029
vt 0.108543001 0.754321992
vt 0.108543001 0.767414987
vt 0.110996999 0.767672002
vt 0.110996999 0.754321992
vt 0.108543001 0.751999974
vt 0.119585998 0.754321992
vt 0.119157001 0.767414987
vt 0.120812997 0.751179993
vt 0.110996999 0.751999974
vt 0.108543001 0.740007997
vt 0.120812997 0.740007997
vt 0.110996999 0.740007997
vt 0.108543001 0.737685025
vt 0.120812997 0.737685025
vt 0.110996999 0.737685025
vt 0.108543001 0.725692987
vt 0.120812997 0.725692987
vt 0.110996999 0.725692987
vt 0.120812997 0.723371029
vt 0.108543001 0.723371029
vt 0.110996999 0.723371029
vt 0.108543001 0.723371029
vt 0.110996999 0.723371029
vt 0.120812997 0.723371029
vt 0.120812997 0.723371029
vt 0.0868299976 0.723371029
vt 0.0843759999 0.723371029
vt 0.0843759999 0.736464024
vt 0.0868299976 0.736464024
vt 0.106089003 0.723371029
vt 0.0843759999 0.738785982
vt 0.106089003 0.736464024
vt 0.108543001 0.723371029
vt 0.108543001 0.736464024
vt 0.0868299976 0.738785982
vt 0.0843759999 0.750778019
vt 0.106089003 0.738785982
vt 0.108543001 0.738785982
vt 0.0868299976 0.750778019
vt 0.0843759999 0.753100991
vt 0.106089003 0.750778019
vt 0.108543001 0.750778019
vt 0.0868299976 0.753100991
vt 0.0843759999 0.765093029
vt 0.106089003 0.753100991
vt 0.108543001 0.753100991
vt 0.0868299976 0.765093029
vt 0.0843759999 0.767414987
vt 0.0868299976 0.767414987
vt 0.106089003 0.765093029
vt 0.108543001 0.765093029
vt 0.106089003 0.767414987
vt 0.108543001 0.767414987
vt 0.0992039964 0.813795984
vt 0.107326999 0.813795984
vt 0.108543001 0.811474025
vt 0.0992039964 0.811473012
vt 0.108543001 0.793247998
vt 0.0968080014 0.811473012
vt 0.0968080014 0.813794971
vt 0.0968080014 0.793246984
vt 0.0992039964 0.793246984
vt 0.107326999 0.790925026
vt 0.0968080014 0.790924013
vt 0.0992039964 0.790925026
vt 0.0972819999 0.762320995
vt 0.0972819999 0.762320995
vt 0.0972819999 0.759998024
vt 0.0972819999 0.759998024
vt 0.403001994 0.734070003
vt 0.412818015 0.734999001
vt 0.412818015 0.723007023
vt 0.403001994 0.723007023
vt 0.412818015 0.720685005
vt 0.403001994 0.720685005
vt 0.412818015 0.709513009
vt 0.403001994 0.709622025
vt 0.412818015 0.706369996
vt 0.403001994 0.707298994
vt 0.358828008 0.795669019
vt 0.368687004 0.795669019
vt 0.368687004 0.777442992
vt 0.358828008 0.777442992
vt 0.565092981 0.829737008
vt 0.565092981 0.818674028
vt 0.545834005 0.818674028
vt 0.545834005 0.829737008
vt 0.565092981 0.832059026
vt 0.545834005 0.832059026
vt 0.565092981 0.843122005
vt 0.545834005 0.843122005
vt 0.565092981 0.845444977
vt 0.545834005 0.845444977
vt 0.098093003 0.729386985
vt 0.0989120007 0.729129016
vt 0.098093003 0.729129016
vt 0.0989120007 0.729386985
vt 0.0991849974 0.729129016
vt 0.0991849974 0.729386985
vt 0.144465998 0.811092973
vt 0.130633995 0.813416004
vt 0.144470006 0.813416004
vt 0.130630001 0.811092973
vt 0.144465998 0.792867005
vt 0.130630001 0.792867005
vt 0.144470006 0.790544987
vt 0.130633995 0.790544987
vt 0.169808999 0.804125011
vt 0.172262996 0.804125011
vt 0.172262996 0.78589797
vt 0.169808999 0.78589797
vt 0.100548998 0.732464015
vt 0.101368003 0.73210299
vt 0.100548998 0.732205987
vt 0.101368003 0.732361019
vt 0.101640999 0.732061982
vt 0.101640999 0.732321024
vt 0.101368003 0.730871975
vt 0.101640999 0.730831981
vt 0.101640999 0.730574012
vt 0.101368003 0.730614007
vt 0.100548998 0.730871975
vt 0.100548998 0.730614007
vt 0.150198996 0.802537024
vt 0.150198996 0.790544987
vt 0.147744998 0.790544987
vt 0.147744998 0.802537024
vt 0.144470006 0.790544987
vt 0.144470006 0.802537024
vt 0.146925002 0.802537024
vt 0.146925002 0.790544987
vt 0.167355001 0.796301007
vt 0.167355001 0.807473004
vt 0.169808999 0.807473004
vt 0.169808999 0.796301007
vt 0.172349006 0.752768993
vt 0.172349006 0.741596997
vt 0.169894993 0.741596997
vt 0.169894993 0.752768993
vt 0.102723002 0.734055996
vt 0.103542 0.734055996
vt 0.103542 0.733798027
vt 0.102723002 0.733798027
vt 0.100267999 0.732464015
vt 0.099454999 0.732722998
vt 0.100267999 0.732722998
vt 0.099454999 0.732464015
vt 0.0991849974 0.732722998
vt 0.0991849974 0.732464015
vt 0.0972819999 0.782869995
vt 0.0972819999 0.782869995
vt 0.0972819999 0.780547023
vt 0.0972819999 0.780547023
vt 0.402916014 0.76266402
vt 0.412732005 0.750671983
vt 0.402916014 0.751600981
vt 0.412732005 0.76266402
vt 0.402916014 0.764985979
vt 0.412732005 0.764985979
vt 0.402916014 0.776049018
vt 0.412732005 0.776157975
vt 0.402916014 0.77837199
vt 0.412732005 0.779300988
vt 0.172262996 0.804125011
vt 0.172262996 0.804125011
vt 0.172262996 0.78589797
vt 0.172262996 0.78589797
vt 0.133083999 0.767672002
vt 0.142900005 0.767672002
vt 0.142900005 0.767672002
vt 0.133083999 0.767672002
vt 0.130630001 0.767672002
vt 0.130630001 0.767672002
vt 0.378448009 0.777442992
vt 0.368687004 0.777442992
vt 0.368687004 0.795669973
vt 0.378448009 0.795669019
vt 0.103814997 0.732464015
vt 0.103814997 0.733237982
vt 0.104088001 0.733237982
vt 0.104088001 0.732464015
vt 0.108880997 0.73693198
vt 0.108880997 0.736138999
vt 0.108608 0.736138999
vt 0.108608 0.73693198
vt 0.0991270021 0.735903978
vt 0.0988330022 0.735903978
vt 0.0988330022 0.73616302
vt 0.0991270021 0.736162007
vt 0.100147001 0.735903978
vt 0.100011997 0.736162007
vt 0.0991270021 0.738189995
vt 0.0988330022 0.738189995
vt 0.0988330022 0.738448024
vt 0.0991270021 0.738448024
vt 0.100011997 0.738188982
vt 0.100147001 0.738448024
vt 0.107515998 0.736501992
vt 0.108335003 0.735984981
vt 0.108335003 0.735727012
vt 0.107515998 0.736151993
vt 0.102748998 0.731832981
vt 0.103703998 0.731058002
vt 0.102885999 0.731482983
vt 0.103703998 0.73131597
vt 0.103977002 0.730889976
vt 0.103977002 0.731149018
vt 0.103703998 0.730241001
vt 0.103977002 0.730241001
vt 0.103823997 0.727536976
vt 0.103823997 0.728304982
vt 0.104097001 0.728304982
vt 0.104097001 0.727536976
vt 0.098093003 0.727795005
vt 0.0989120007 0.727639973
vt 0.098093003 0.727536976
vt 0.0989120007 0.727899015
vt 0.0991849974 0.727680981
vt 0.0991849974 0.72793901
vt 0.108880997 0.736138999
vt 0.108880997 0.735345006
vt 0.108608 0.735345006
vt 0.108608 0.736138999
vt 0.104088001 0.736853004
vt 0.104088001 0.736078978
vt 0.103814997 0.736078978
vt 0.103814997 0.736853004
vt 0.103823997 0.728810012
vt 0.103823997 0.729564011
vt 0.104097001 0.729564011
vt 0.104097001 0.728810012
vt 0.102733001 0.729386985
vt 0.103551999 0.729386985
vt 0.103551999 0.729129016
vt 0.102733001 0.729129016
vt 0.103825003 0.731670022
vt 0.103825003 0.732424021
vt 0.104098 0.732424021
vt 0.104098 0.731670022
vt 0.100267999 0.734749973
vt 0.099454999 0.735008001
vt 0.100267999 0.735008001
vt 0.099454999 0.734749973
vt 0.0991849974 0.735008001
vt 0.0991849974 0.734749973
vt 0.107525997 0.728739977
vt 0.108344004 0.729165018
vt 0.108344004 0.728906989
vt 0.107525997 0.728390992
vt 0.105342001 0.730225027
vt 0.106160998 0.730391979
vt 0.105205998 0.729875028
vt 0.106160998 0.730650008
vt 0.106434003 0.730560005
vt 0.106434003 0.730817974
vt 0.106434003 0.731427014
vt 0.106160998 0.731467009
vt 0.104088001 0.734490991
vt 0.104088001 0.733723998
vt 0.103814997 0.733723998
vt 0.103814997 0.734490991
vt 0.0967279971 0.73269397
vt 0.0967279971 0.732436001
vt 0.0964550003 0.732436001
vt 0.0964550003 0.73269397
vt 0.0964550003 0.733923972
vt 0.0967279971 0.733923972
vt 0.0967279971 0.734183013
vt 0.0964550003 0.734183013
vt 0.0943130031 0.734143019
vt 0.0943130031 0.733883977
vt 0.0940399989 0.733883977
vt 0.0940399989 0.734143019
vt 0.0991059989 0.735903978
vt 0.0988330022 0.735646009
vt 0.0988330022 0.735903978
vt 0.0991059989 0.735646009
vt 0.0991059989 0.734996021
vt 0.0988330022 0.734996021
vt 0.101521 0.735903978
vt 0.101248004 0.735646009
vt 0.101248004 0.735903978
vt 0.101521 0.735646009
vt 0.101521 0.735036016
vt 0.101248004 0.735036016
vt 0.101631999 0.735647976
vt 0.101631999 0.736878991
vt 0.101905003 0.736878991
vt 0.101905003 0.735647976
vt 0.107789002 0.737318993
vt 0.107789002 0.736501992
vt 0.107515998 0.736501992
vt 0.107515998 0.737318993
vt 0.107243001 0.736501992
vt 0.107243001 0.737318993
vt 0.107515998 0.737318993
vt 0.107515998 0.736501992
vt 0.152631 0.769994974
vt 0.152631 0.767672002
vt 0.150178999 0.767672002
vt 0.150178999 0.769994974
vt 0.152631 0.788221002
vt 0.140373006 0.769994974
vt 0.140373006 0.767673016
vt 0.140373006 0.788221002
vt 0.150178999 0.788221002
vt 0.152631 0.79054302
vt 0.140373006 0.790543973
vt 0.150178999 0.79054302
vt 0.106089003 0.767414987
vt 0.108543001 0.767414987
vt 0.108543001 0.767414987
vt 0.106089003 0.767414987
vt 0.0868299976 0.767414987
vt 0.0868299976 0.767414987
vt 0.0843759999 0.767414987
vt 0.0843759999 0.767414987
vt 0.0894490033 0.647937
vt 0.101248004 0.735646009
vt 0.0894490033 0.647937
vt 0.107515998 0.737318993
vt 0.0894490033 0.647937
vt 0.103551999 0.729129016
vt 0.0894490033 0.647937
vt 0.0943130031 0.733883977
vt 0.0894490033 0.647937
vt 0.107243001 0.737318993
vt 0.0894490033 0.647937
vt 0.0991059989 0.734996021
vt 0.0988330022 0.738189995
vt 0.108344004 0.728906989
vt 0.0894490033 0.647937
vt 0.0991059989 0.735646009
vn 0.943247 0.002875 -0.332081
vn 0.969010 0.010326 -0.246807
vn 0.986281 -0.000852 -0.165074
vn 0.969010 0.010326 -0.246807
vn 0.969010 0.010326 -0.246807
vn 0.969010 0.010326 -0.246807
vn 0.987029 0.017694 -0.159562
vn 0.017016 -0.223731 0.974502
vn 0.009697 -0.575683 0.817615
vn 0.009697 -0.575683 0.817615
vn 0.017016 -0.223731 0.974502
vn 0.017016 -0.223731 0.974502
vn -0.986177 0.063587 -0.153006
vn -0.978793 0.088002 -0.184989
vn -0.978793 0.088002 -0.184989
vn -0.986177 0.063587 -0.153006
vn -0.983897 0.071743 -0.163703
vn -0.975394 0.081379 -0.204902
vn -0.978292 0.093153 -0.185113
vn -0.978296 0.095071 -0.184113
vn -0.975394 0.081379 -0.204902
vn -0.978296 0.095071 -0.184113
vn -0.975425 0.082661 -0.204240
vn -0.978750 0.083200 -0.187422
vn -0.969354 0.048616 -0.240811
vn -0.975425 0.082661 -0.204240
vn -0.978296 0.095071 -0.184113
vn -0.978750 0.083200 -0.187422
vn -0.962665 0.026815 -0.269363
vn -0.969354 0.048616 -0.240811
vn -0.978750 0.083200 -0.187422
vn -0.983608 -0.008428 -0.180125
vn -0.962665 0.026815 -0.269363
vn -0.938515 -0.021153 -0.344590
vn -0.962665 0.026815 -0.269363
vn -0.978750 0.083200 -0.187422
vn -0.978591 0.074554 -0.191835
vn 0.969010 0.010326 -0.246807
vn 0.987029 0.017694 -0.159562
vn 0.987029 0.017694 -0.159562
vn 0.020522 -0.992639 -0.119359
vn 0.020522 -0.992639 -0.119359
vn 0.021196 -0.986940 -0.159687
vn 0.020522 -0.992639 -0.119359
vn 0.021196 -0.986940 -0.159687
vn 0.021196 -0.986940 -0.159687
vn -0.049176 0.895684 -0.441964
vn -0.038930 0.846973 -0.530209
vn -0.038930 0.846973 -0.530209
vn -0.049176 0.895684 -0.441964
vn -0.038930 0.846973 -0.530209
vn -0.049176 0.895684 -0.441964
vn 0.999874 -0.012973 0.009170
vn 0.999936 -0.010951 0.002886
vn 0.999986 -0.004775 0.002391
vn 0.999939 -0.006912 0.008598
vn 0.999913 -0.008163 0.010400
vn 0.990999 -0.032801 0.129790
vn 0.991574 -0.031292 0.125707
vn 0.995440 -0.037538 0.087694
vn 0.999885 -0.011516 0.009905
vn 0.999949 -0.006921 0.007353
vn 0.995603 -0.036741 0.086172
vn 0.999921 -0.010297 0.007239
vn 0.999984 -0.001797 0.005441
vn 0.998891 -0.005639 0.046749
vn 0.999980 -0.001756 0.006108
vn 0.999967 0.007948 -0.001713
vn 0.998982 -0.001152 0.045087
vn 0.999978 0.006476 0.001284
vn 0.999817 0.017191 -0.008380
vn 0.999932 0.011605 0.001366
vn 0.999890 0.014398 -0.003507
vn -0.998974 -0.005989 0.044890
vn -0.999304 -0.011362 0.035529
vn -0.999739 -0.012309 0.019258
vn -0.999752 -0.004229 0.021887
vn -0.998684 0.000239 0.051279
vn -0.999968 0.000422 -0.007955
vn -0.999908 -0.013253 0.002981
vn -0.999902 0.007105 -0.012097
vn -0.999751 0.003900 0.021979
vn -0.998935 0.004158 0.045955
vn -0.999929 0.004497 -0.011010
vn -0.999829 0.004860 0.017852
vn -0.999601 0.004288 0.027926
vn -0.999952 0.003016 -0.009290
vn -0.999942 0.003812 0.010121
vn -0.999959 0.009093 0.000330
vn -0.993975 -0.001862 0.109594
vn -0.999928 0.011847 -0.002145
vn -0.994006 -0.004876 0.109216
vn -0.999957 0.008019 -0.004731
vn -0.999946 0.009080 -0.004958
vn -0.999997 -0.000796 0.002124
vn -0.999992 -0.003682 -0.001645
vn -0.994006 -0.004876 0.109216
vn -0.999964 -0.006568 -0.005414
vn -0.003313 -0.046155 -0.998929
vn -0.008542 -0.037345 -0.999266
vn 0.009800 -0.045866 -0.998900
vn 0.007314 -0.047161 -0.998861
vn -0.001125 -0.064416 -0.997922
vn 0.005707 -0.014532 -0.999878
vn 0.003339 -0.042975 -0.999071
vn -0.004167 -0.073866 -0.997259
vn 0.001850 -0.037490 -0.999295
vn 0.005539 -0.008436 -0.999949
vn -0.060688 0.060014 -0.996351
vn 0.020177 0.005034 -0.999784
vn 0.034973 0.012406 -0.999311
vn -0.029089 0.069476 -0.997159
vn -0.080287 0.022582 -0.996516
vn 0.046320 0.077981 -0.995878
vn 0.090069 0.076956 -0.992958
vn -0.043564 0.033349 -0.998494
vn -0.053638 0.073192 -0.995874
vn 0.033827 0.057615 -0.997766
vn 0.074351 0.071051 -0.994698
vn -0.034750 0.051646 -0.998061
vn -0.045485 0.090008 -0.994902
vn -0.026903 0.062663 -0.997672
vn -0.008346 0.003940 -0.999957
vn -0.000753 -0.022280 -0.999751
vn -0.012315 -0.001534 -0.999923
vn -0.016242 -0.038374 -0.999131
vn 0.000345 0.994114 -0.108340
vn 0.015387 0.999475 0.028511
vn 0.007171 0.999556 0.028926
vn -0.000884 0.993766 -0.111484
vn -0.007483 0.999593 0.027539
vn -0.008922 0.968286 -0.249686
vn -0.014702 0.969881 -0.243134
vn -0.003469 0.963511 -0.267648
vn -0.005538 0.992588 -0.121401
vn -0.013921 0.999572 0.025738
vn -0.003797 0.960272 -0.279039
vn -0.008965 0.991711 -0.128174
vn -0.117229 -0.067118 0.990834
vn -0.175152 -0.133644 0.975429
vn -0.341909 -0.138258 0.929507
vn -0.341909 -0.138258 0.929507
vn 0.999966 -0.004554 0.006845
vn 0.986281 -0.000852 -0.165074
vn 0.999927 -0.004941 0.011060
vn 0.999950 -0.002830 0.009580
vn 0.999911 -0.005779 0.012021
vn 0.999931 -0.004088 0.011022
vn 0.999903 -0.003485 0.013521
vn 0.999952 -0.004066 0.008872
vn 0.999880 -0.001694 0.015417
vn 0.999967 -0.001064 0.008016
vn -0.004663 0.998090 0.061603
vn 0.048039 0.983434 -0.174788
vn -0.032512 0.988594 -0.147054
vn -0.004663 0.998090 0.061603
vn 0.006316 0.003452 0.999974
vn 0.009081 -0.003109 0.999954
vn 0.009081 -0.003109 0.999954
vn 0.006316 0.003452 0.999974
vn 0.002232 -0.027302 0.999625
vn 0.002232 -0.027302 0.999625
vn -0.000439 -0.034816 0.999394
vn -0.000439 -0.034816 0.999394
vn -0.001787 -0.005022 0.999986
vn -0.001787 -0.005022 0.999986
vn -0.999929 0.004497 -0.011010
vn -0.999907 0.002441 -0.013415
vn -0.999952 0.003016 -0.009290
vn -0.999903 0.002463 -0.013720
vn -0.999894 0.002507 -0.014331
vn -0.999894 0.002507 -0.014330
vn -0.235423 0.110146 0.965631
vn -0.457428 0.097108 0.883929
vn -0.457428 0.097108 0.883929
vn -0.235423 0.110146 0.965631
vn 0.228124 0.119838 0.966229
vn 0.228124 0.119838 0.966229
vn 0.444392 0.116340 0.888246
vn 0.444392 0.116340 0.888246
vn -0.011719 0.023402 0.999657
vn 0.150872 -0.062076 0.986602
vn -0.117229 -0.067118 0.990834
vn 0.029415 0.051279 0.998251
vn 0.935092 -0.059368 0.349398
vn 0.964932 -0.093314 0.245354
vn 0.990999 -0.032801 0.129790
vn 0.956472 -0.093911 0.276302
vn 0.978815 -0.091839 0.182993
vn 0.978815 -0.091838 0.182993
vn 0.974824 -0.090782 0.203657
vn 0.978298 -0.095057 0.184112
vn 0.978294 -0.093139 0.185111
vn 0.974804 -0.089501 0.204320
vn 0.995440 -0.037538 0.087694
vn 0.995603 -0.036741 0.086172
vn 0.059154 0.036980 0.997564
vn 0.029415 0.051279 0.998251
vn 0.059154 0.036980 0.997564
vn 0.059154 0.036980 0.997564
vn -0.023059 -0.018764 0.999558
vn -0.023059 -0.018764 0.999558
vn -0.011719 0.023402 0.999657
vn -0.023059 -0.018764 0.999558
vn -0.009613 -0.029003 0.999533
vn -0.009613 -0.029003 0.999533
vn -0.009613 -0.029003 0.999533
vn -0.009613 -0.029003 0.999533
vn -0.052176 -0.008625 0.998601
vn -0.052176 -0.008625 0.998601
vn -0.052176 -0.008625 0.998601
vn -0.052176 -0.008625 0.998601
vn -0.995770 0.022116 -0.089184
vn -0.975394 0.081379 -0.204902
vn -0.975425 0.082661 -0.204240
vn -0.995764 0.021254 -0.089454
vn -0.014296 -0.909068 0.416402
vn -0.006696 -0.877773 0.479030
vn -0.014296 -0.909068 0.416402
vn -0.006696 -0.877773 0.479030
vn 0.009697 -0.575683 0.817615
vn 0.009697 -0.575683 0.817615
vn 0.732145 -0.115893 0.671217
vn 0.443604 -0.121572 0.887939
vn 0.226259 -0.126677 0.965795
vn 0.150872 -0.062076 0.986602
vn -0.999933 0.002825 -0.011235
vn -0.983608 -0.008428 -0.180125
vn -0.999936 0.004544 -0.010392
vn -0.995764 0.021254 -0.089454
vn -0.999933 0.004109 -0.010832
vn -0.995770 0.022116 -0.089184
vn -0.999953 0.004089 -0.008782
vn -0.998809 0.015772 -0.046182
vn -0.999968 0.001066 -0.007979
vn -0.997716 0.020101 -0.064488
vn 0.150872 -0.062076 0.986602
vn 0.226259 -0.126677 0.965795
vn -0.175152 -0.133644 0.975429
vn -0.117229 -0.067118 0.990834
vn 0.999986 -0.004775 0.002391
vn 0.999999 0.000279 -0.001330
vn 0.991574 -0.031292 0.125707
vn 1.000000 -0.000229 -0.000938
vn 0.999936 -0.010951 0.002886
vn 1.000000 -0.000738 -0.000547
vn -0.001306 -0.997287 0.073603
vn -0.001306 -0.997287 0.073603
vn -0.001306 -0.997287 0.073603
vn -0.001306 -0.997287 0.073603
vn -0.045588 -0.998606 -0.026608
vn -0.045588 -0.998606 -0.026608
vn -0.045588 -0.998606 -0.026608
vn -0.045588 -0.998606 -0.026608
vn 0.010738 -0.859052 -0.511776
vn 0.010738 -0.859052 -0.511776
vn 0.010738 -0.859052 -0.511776
vn 0.010738 -0.859052 -0.511776
vn 0.051751 0.839416 0.541020
vn -0.021114 0.854886 0.518387
vn -0.021114 0.854886 0.518387
vn 0.051751 0.839416 0.541020
vn 0.124303 0.818858 0.560375
vn 0.124303 0.818858 0.560375
vn -0.069082 0.781024 0.620669
vn -0.007501 0.755133 0.655529
vn -0.007501 0.755133 0.655529
vn -0.069082 0.781024 0.620669
vn -0.130270 0.802480 0.582284
vn -0.130270 0.802480 0.582284
vn -0.997716 0.020101 -0.064488
vn -0.986177 0.063587 -0.153006
vn -0.983897 0.071743 -0.163703
vn -0.998809 0.015772 -0.046182
vn -0.999968 0.000422 -0.007955
vn -0.999853 0.003738 -0.016755
vn -0.999902 0.007105 -0.012097
vn -0.999829 0.004353 -0.017968
vn -0.999894 0.002507 -0.014329
vn -0.999894 0.002507 -0.014328
vn -0.999903 0.002463 -0.013720
vn -0.999894 0.002507 -0.014330
vn 0.009792 0.999492 0.030328
vn 0.009792 0.999492 0.030328
vn 0.009792 0.999492 0.030328
vn 0.009792 0.999492 0.030328
vn -0.993975 -0.001862 0.109594
vn -0.969725 -0.011406 0.243932
vn -0.994006 -0.004876 0.109216
vn -0.969725 -0.011406 0.243932
vn -0.988307 0.012002 0.152002
vn -0.988307 0.012002 0.152002
vn 0.004345 -0.822258 -0.569099
vn 0.004345 -0.822258 -0.569099
vn 0.004345 -0.822258 -0.569099
vn 0.004345 -0.822258 -0.569099
vn 0.019815 -0.996691 -0.078834
vn 0.020522 -0.992639 -0.119359
vn 0.020522 -0.992639 -0.119359
vn 0.019815 -0.996691 -0.078834
vn 0.097912 0.910879 -0.400889
vn 0.097912 0.910879 -0.400889
vn 0.097912 0.910879 -0.400889
vn 0.048039 0.983434 -0.174788
vn 0.999927 -0.004941 0.011060
vn 0.999905 -0.008178 0.011064
vn 0.999906 -0.006288 0.012152
vn 0.999911 -0.005779 0.012021
vn -0.032512 0.988594 -0.147054
vn -0.049176 0.895684 -0.441964
vn -0.049176 0.895684 -0.441964
vn -0.058917 0.935201 -0.349181
vn 0.033208 -0.871514 0.489245
vn -0.069471 -0.888745 0.453107
vn 0.033208 -0.871514 0.489245
vn -0.069471 -0.888745 0.453107
vn -0.171307 -0.895181 0.411466
vn -0.171307 -0.895181 0.411466
vn 0.999903 -0.003485 0.013521
vn 0.999850 -0.002446 0.017158
vn 0.999825 -0.002416 0.018573
vn 0.999880 -0.001694 0.015417
vn 0.998891 -0.005639 0.046749
vn 0.986465 -0.050788 0.155906
vn 0.998982 -0.001152 0.045087
vn 0.984156 -0.063218 0.165650
vn 0.978793 -0.088002 0.184988
vn 0.978793 -0.088002 0.184988
vn 0.978294 -0.093139 0.185111
vn 0.974804 -0.089501 0.204320
vn 0.001918 0.996180 0.087307
vn 0.001918 0.996180 0.087307
vn 0.001918 0.996180 0.087307
vn 0.001918 0.996180 0.087307
vn -0.189296 -0.065369 0.979742
vn -0.191005 -0.087742 0.977660
vn -0.191005 -0.087742 0.977660
vn -0.189296 -0.065369 0.979742
vn -0.191156 -0.084898 0.977881
vn -0.191156 -0.084898 0.977881
vn -0.188258 -0.034800 0.981503
vn -0.188258 -0.034800 0.981503
vn -0.014534 -0.129316 0.991497
vn -0.014539 -0.138860 0.990205
vn -0.014539 -0.138860 0.990205
vn -0.014534 -0.129316 0.991497
vn -0.014477 -0.076301 0.996980
vn -0.014506 -0.098054 0.995075
vn -0.014477 -0.076301 0.996980
vn -0.014506 -0.098054 0.995075
vn -0.014534 -0.129316 0.991497
vn -0.014534 -0.129316 0.991497
vn -0.176200 0.098998 0.979364
vn -0.178351 0.078207 0.980854
vn -0.176200 0.098998 0.979364
vn -0.178351 0.078207 0.980854
vn -0.188258 -0.034800 0.981503
vn -0.188258 -0.034800 0.981503
vn 0.189752 0.071184 -0.979248
vn 0.189752 0.071184 -0.979248
vn 0.189752 0.071184 -0.979248
vn 0.189752 0.071184 -0.979248
vn 0.178110 -0.080538 -0.980709
vn 0.178110 -0.080538 -0.980709
vn 0.178110 -0.080538 -0.980709
vn 0.178110 -0.080538 -0.980709
vn 0.014503 0.094839 -0.995387
vn 0.014503 0.094839 -0.995387
vn 0.014503 0.094839 -0.995387
vn 0.014503 0.094839 -0.995387
vn 0.000482 -0.989590 -0.143915
vn 0.000482 -0.989590 -0.143914
vn -0.000606 -0.997941 -0.064139
vn 0.000025 -0.997929 -0.064320
vn 0.000482 -0.989590 -0.143917
vn -0.000431 -0.999877 0.015687
vn -0.001690 -0.999870 0.016049
vn 0.002088 -0.999875 0.015681
vn 0.001289 -0.997928 -0.064324
vn 0.000482 -0.989590 -0.143918
vn 0.003348 -0.999866 0.016038
vn 0.001921 -0.997939 -0.064147
vn -0.012315 -0.001534 -0.999923
vn -0.000433 -0.018268 -0.999833
vn -0.016242 -0.038374 -0.999131
vn -0.000433 -0.020171 -0.999796
vn -0.026903 0.062663 -0.997672
vn -0.020046 -0.018915 -0.999620
vn -0.045485 0.090008 -0.994902
vn -0.039651 -0.015749 -0.999089
vn -0.983897 0.071743 -0.163703
vn -0.978793 0.088002 -0.184989
vn -0.978292 0.093153 -0.185113
vn -0.975394 0.081379 -0.204902
vn 0.999906 -0.006288 0.012152
vn 0.999905 -0.008178 0.011064
vn 0.999941 -0.007194 0.008109
vn 0.999925 -0.004851 0.011219
vn 0.999850 -0.002446 0.017158
vn 0.999906 -0.006288 0.012152
vn 0.999925 -0.004851 0.011219
vn 0.999894 -0.002508 0.014328
vn 0.999825 -0.002416 0.018573
vn 0.999850 -0.002446 0.017158
vn 0.999894 -0.002508 0.014328
vn 0.999894 -0.002509 0.014328
f 3/3/3 2/2/2 1/1/1
f 5/5/5 4/4/4 1/1/1
f 5/5/5 7/7/7 6/6/6
f 10/10/10 9/9/9 8/8/8
f 12/12/12 10/10/10 11/11/11
f 15/15/15 14/14/14 13/13/13
f 17/17/17 15/15/15 16/16/16
f 20/20/20 19/19/19 18/18/18
f 23/23/23 22/22/22 21/21/21
f 25/25/25 24/24/24 23/23/23
f 28/28/28 27/27/27 26/26/26
f 31/31/31 30/30/30 29/29/29
f 33/33/33 30/30/30 32/32/32
f 34/34/34 33/33/33 32/32/32
f 37/37/37 36/36/36 35/35/35
f 40/40/40 39/39/39 38/38/38
f 43/43/43 42/42/42 41/41/41
f 46/46/46 45/45/45 44/44/44
f 49/49/49 48/48/48 47/47/47
f 52/52/52 51/51/51 50/50/50
f 55/55/55 54/54/54 53/53/53
f 56/56/56 55/55/55 53/53/53
f 56/56/56 53/53/53 57/57/57
f 56/56/56 58/58/58 55/55/55
f 58/58/58 59/59/59 55/55/55
f 60/60/60 58/58/58 56/56/56
f 61/61/61 56/56/56 57/57/57
f 61/61/61 60/60/60 56/56/56
f 61/61/61 57/57/57 62/62/62
f 63/63/63 60/60/60 61/61/61
f 64/64/64 61/61/61 62/62/62
f 64/64/64 63/63/63 61/61/61
f 64/64/64 62/62/62 65/65/65
f 66/66/66 63/63/63 64/64/64
f 67/67/67 64/64/64 65/65/65
f 67/67/67 66/66/66 64/64/64
f 67/67/67 65/65/65 68/68/68
f 69/69/69 66/66/66 67/67/67
f 70/70/70 67/67/67 68/68/68
f 70/70/70 69/69/69 67/67/67
f 70/70/70 68/68/68 71/71/71
f 72/72/72 69/69/69 70/70/70
f 73/73/73 70/70/70 71/71/71
f 73/73/73 72/72/72 70/70/70
f 76/76/76 75/75/75 74/74/74
f 77/77/77 76/76/76 74/74/74
f 77/77/77 74/74/74 78/78/78
f 77/77/77 79/79/79 76/76/76
f 79/79/79 80/80/80 76/76/76
f 81/81/81 79/79/79 77/77/77
f 82/82/82 77/77/77 78/78/78
f 82/82/82 81/81/81 77/77/77
f 82/82/82 78/78/78 83/83/83
f 84/84/84 81/81/81 82/82/82
f 85/85/85 82/82/82 83/83/83
f 85/85/85 84/84/84 82/82/82
f 85/85/85 83/83/83 86/86/86
f 87/87/87 84/84/84 85/85/85
f 88/88/88 85/85/85 86/86/86
f 88/88/88 87/87/87 85/85/85
f 88/88/88 86/86/86 89/89/89
f 90/90/90 87/87/87 88/88/88
f 91/91/91 88/88/88 89/89/89
f 91/91/91 90/90/90 88/88/88
f 92/92/92 90/90/90 91/91/91
f 91/91/91 89/89/89 93/93/93
f 94/94/94 92/92/92 91/91/91
f 94/94/94 91/91/91 93/93/93
f 93/93/93 95/95/95 94/94/94
f 95/95/95 96/96/96 94/94/94
f 94/94/94 96/96/96 97/97/97
f 96/96/96 98/98/98 97/97/97
f 101/101/101 100/100/100 99/99/99
f 102/102/102 101/101/101 99/99/99
f 102/102/102 99/99/99 103/103/103
f 104/104/104 101/101/101 102/102/102
f 105/105/105 102/102/102 103/103/103
f 105/105/105 103/103/103 106/106/106
f 107/107/107 105/105/105 106/106/106
f 108/108/108 104/104/104 102/102/102
f 108/108/108 102/102/102 105/105/105
f 109/109/109 104/104/104 108/108/108
f 110/110/110 105/105/105 107/107/107
f 110/110/110 108/108/108 105/105/105
f 111/111/111 110/110/110 107/107/107
f 112/112/112 109/109/109 108/108/108
f 112/112/112 108/108/108 110/110/110
f 113/113/113 109/109/109 112/112/112
f 114/114/114 110/110/110 111/111/111
f 114/114/114 112/112/112 110/110/110
f 115/115/115 114/114/114 111/111/111
f 116/116/116 113/113/113 112/112/112
f 116/116/116 112/112/112 114/114/114
f 117/117/117 113/113/113 116/116/116
f 118/118/118 114/114/114 115/115/115
f 118/118/118 116/116/116 114/114/114
f 119/119/119 118/118/118 115/115/115
f 120/120/120 117/117/117 116/116/116
f 120/120/120 116/116/116 118/118/118
f 121/121/121 117/117/117 120/120/120
f 122/122/122 121/121/121 120/120/120
f 123/123/123 118/118/118 119/119/119
f 123/123/123 120/120/120 118/118/118
f 122/122/122 120/120/120 123/123/123
f 124/124/124 123/123/123 119/119/119
f 125/125/125 122/122/122 123/123/123
f 125/125/125 123/123/123 124/124/124
f 126/126/126 125/125/125 124/124/124
f 129/129/129 128/128/128 127/127/127
f 130/130/130 129/129/129 127/127/127
f 131/131/131 129/129/129 130/130/130
f 132/132/132 130/130/130 127/127/127
f 133/133/133 132/132/132 127/127/127
f 132/132/132 134/134/134 130/130/130
f 135/135/135 131/131/131 130/130/130
f 134/134/134 135/135/135 130/130/130
f 136/136/136 131/131/131 135/135/135
f 134/134/134 137/137/137 135/135/135
f 138/138/138 136/136/136 135/135/135
f 137/137/137 138/138/138 135/135/135
f 141/141/141 140/140/140 139/139/139
f 142/142/142 141/141/141 139/139/139
f 145/145/145 144/144/144 143/143/143
f 146/146/146 145/145/145 143/143/143
f 147/147/147 145/145/145 146/146/146
f 148/148/148 147/147/147 146/146/146
f 149/149/149 147/147/147 148/148/148
f 150/150/150 149/149/149 148/148/148
f 151/151/151 149/149/149 150/150/150
f 152/152/152 151/151/151 150/150/150
f 155/155/155 154/154/154 153/153/153
f 156/156/156 155/155/155 153/153/153
f 159/159/159 158/158/158 157/157/157
f 160/160/160 159/159/159 157/157/157
f 160/160/160 157/157/157 161/161/161
f 162/162/162 160/160/160 161/161/161
f 162/162/162 161/161/161 163/163/163
f 164/164/164 162/162/162 163/163/163
f 164/164/164 163/163/163 165/165/165
f 166/166/166 164/164/164 165/165/165
f 169/169/169 168/168/168 167/167/167
f 168/168/168 170/170/170 167/167/167
f 168/168/168 171/171/171 170/170/170
f 171/171/171 172/172/172 170/170/170
f 175/175/175 174/174/174 173/173/173
f 174/174/174 176/176/176 173/173/173
f 173/173/173 176/176/176 177/177/177
f 176/176/176 178/178/178 177/177/177
f 177/177/177 178/178/178 179/179/179
f 178/178/178 180/180/180 179/179/179
f 183/183/183 182/182/182 181/181/181
f 184/184/184 183/183/183 181/181/181
f 187/187/187 186/186/186 185/185/185
f 186/186/186 188/188/188 185/185/185
f 186/186/186 189/189/189 188/188/188
f 189/189/189 190/190/190 188/188/188
f 189/189/189 186/186/186 191/191/191
f 192/192/192 189/189/189 191/191/191
f 193/193/193 192/192/192 191/191/191
f 194/194/194 193/193/193 191/191/191
f 194/194/194 191/191/191 195/195/195
f 196/196/196 194/194/194 195/195/195
f 199/199/199 198/198/198 197/197/197
f 200/200/200 199/199/199 197/197/197
f 203/203/203 202/202/202 201/201/201
f 204/204/204 203/203/203 201/201/201
f 207/207/207 206/206/206 205/205/205
f 208/208/208 207/207/207 205/205/205
f 211/211/211 210/210/210 209/209/209
f 212/212/212 211/211/211 209/209/209
f 215/215/215 214/214/214 213/213/213
f 216/216/216 215/215/215 213/213/213
f 219/219/219 218/218/218 217/217/217
f 218/218/218 220/220/220 217/217/217
f 218/218/218 221/221/221 220/220/220
f 221/221/221 222/222/222 220/220/220
f 225/225/225 224/224/224 223/223/223
f 226/226/226 225/225/225 223/223/223
f 229/229/229 228/228/228 227/227/227
f 228/228/228 230/230/230 227/227/227
f 227/227/227 230/230/230 231/231/231
f 230/230/230 232/232/232 231/231/231
f 231/231/231 232/232/232 233/233/233
f 232/232/232 234/234/234 233/233/233
f 233/233/233 234/234/234 235/235/235
f 234/234/234 236/236/236 235/235/235
f 239/239/239 238/238/238 237/237/237
f 240/240/240 239/239/239 237/237/237
f 243/243/243 242/242/242 241/241/241
f 242/242/242 244/244/244 241/241/241
f 241/241/241 244/244/244 245/245/245
f 244/244/244 246/246/246 245/245/245
f 249/249/249 248/248/248 247/247/247
f 250/250/250 249/249/249 247/247/247
f 253/253/253 252/252/252 251/251/251
f 254/254/254 253/253/253 251/251/251
f 257/257/257 256/256/256 255/255/255
f 258/258/258 257/257/257 255/255/255
f 261/261/261 260/260/260 259/259/259
f 262/262/262 261/261/261 259/259/259
f 262/262/262 259/259/259 263/263/263
f 264/264/264 262/262/262 263/263/263
f 267/267/267 266/266/266 265/265/265
f 268/268/268 267/267/267 265/265/265
f 268/268/268 265/265/265 269/269/269
f 270/270/270 268/268/268 269/269/269
f 273/273/273 272/272/272 271/271/271
f 274/274/274 273/273/273 271/271/271
f 277/277/277 276/276/276 275/275/275
f 276/276/276 278/278/278 275/275/275
f 276/276/276 279/279/279 278/278/278
f 279/279/279 280/280/280 278/278/278
f 279/279/279 276/276/276 281/281/281
f 282/282/282 279/279/279 281/281/281
f 285/285/285 284/284/284 283/283/283
f 286/286/286 285/285/285 283/283/283
f 289/289/289 288/288/288 287/287/287
f 288/288/288 290/290/290 287/287/287
f 288/288/288 291/291/291 290/290/290
f 291/291/291 292/292/292 290/290/290
f 295/295/295 294/294/294 293/293/293
f 296/296/296 295/295/295 293/293/293
f 299/299/299 298/298/298 297/297/297
f 300/300/300 299/299/299 297/297/297
f 303/303/303 302/302/302 301/301/301
f 304/304/304 303/303/303 301/301/301
f 307/307/307 306/306/306 305/305/305
f 308/308/308 307/307/307 305/305/305
f 311/311/311 310/310/310 309/309/309
f 312/312/312 311/311/311 309/309/309
f 315/315/315 314/314/314 313/313/313
f 314/314/314 316/316/316 313/313/313
f 314/314/314 317/317/317 316/316/316
f 317/317/317 318/318/318 316/316/316
f 321/321/321 320/320/320 319/319/319
f 322/322/322 321/321/321 319/319/319
f 325/325/325 324/324/324 323/323/323
f 324/324/324 326/326/326 323/323/323
f 324/324/324 327/327/327 326/326/326
f 327/327/327 328/328/328 326/326/326
f 326/326/326 328/328/328 329/329/329
f 330/330/330 326/326/326 329/329/329
f 333/333/333 332/332/332 331/331/331
f 334/334/334 333/333/333 331/331/331
f 337/337/337 336/336/336 335/335/335
f 338/338/338 337/337/337 335/335/335
f 339/339/339 338/338/338 335/335/335
f 340/340/340 339/339/339 335/335/335
f 339/339/339 340/340/340 341/341/341
f 342/342/342 339/339/339 341/341/341
f 345/345/345 344/344/344 343/343/343
f 346/346/346 345/345/345 343/343/343
f 349/349/349 348/348/348 347/347/347
f 348/348/348 350/350/350 347/347/347
f 350/350/350 348/348/348 351/351/351
f 348/348/348 352/352/352 351/351/351
f 355/355/355 354/354/354 353/353/353
f 354/354/354 356/356/356 353/353/353
f 356/356/356 354/354/354 357/357/357
f 354/354/354 358/358/358 357/357/357
f 361/361/361 360/360/360 359/359/359
f 362/362/362 361/361/361 359/359/359
f 365/365/365 364/364/364 363/363/363
f 366/366/366 365/365/365 363/363/363
f 369/369/369 368/368/368 367/367/367
f 370/370/370 369/369/369 367/367/367
f 373/373/373 372/372/372 371/371/371
f 374/374/374 373/373/373 371/371/371
f 374/374/374 371/371/371 375/375/375
f 374/374/374 376/376/376 373/373/373
f 376/376/376 377/377/377 373/373/373
f 378/378/378 376/376/376 374/374/374
f 379/379/379 374/374/374 375/375/375
f 379/379/379 378/378/378 374/374/374
f 379/379/379 375/375/375 380/380/380
f 381/381/381 378/378/378 379/379/379
f 382/382/382 379/379/379 380/380/380
f 382/382/382 381/381/381 379/379/379
f 385/385/385 384/384/384 383/383/383
f 384/384/384 386/386/386 383/383/383
f 383/383/383 386/386/386 387/387/387
f 386/386/386 388/388/388 387/387/387
f 387/387/387 388/388/388 389/389/389
f 388/388/388 390/390/390 389/389/389
f 393/393/393 392/392/392 391/391/391
f 394/394/394 393/393/393 391/391/391
f 397/397/397 396/396/396 395/395/395
f 398/398/398 397/397/397 395/395/395
f 401/401/401 400/400/400 399/399/399
f 402/402/402 401/401/401 399/399/399
f 405/405/405 404/404/404 403/403/403
f 406/406/406 405/405/405 403/403/403
