g Model_0
v -3.500000 3.500000 4.250000
v 1.250001 3.499999 2.750000
v -1.249999 3.499999 2.750000
v -3.500000 3.500000 0.000000
v -1.249999 3.499999 0.000000
v -1.159118 3.399999 2.642947
v 1.343945 3.399999 2.842947
v 1.159118 3.399999 2.642947
v -1.343945 3.399999 2.842947
v -1.343945 3.399999 -0.046324
v -1.159118 3.399999 -0.046324
v 1.159118 4.099999 2.642947
v -1.343945 4.099999 2.842947
v -1.159118 4.099999 2.642947
v -0.000000 -4.499998 6.750000
v 4.500002 -4.499998 5.056834
v -0.000000 -4.499998 6.250000
v -3.500000 3.500000 4.250000
v -1.249999 3.499999 2.750000
v -3.500000 3.500000 0.000000
v 1.250001 3.499999 2.750000
v 3.500002 3.499998 4.250000
v 3.500002 3.499998 0.000000
v 1.250001 3.499999 0.000000
v 3.999998 -4.000002 4.750000
v -4.000001 -3.999999 4.750000
v -0.000000 -4.000003 6.250000
v 1.343945 3.399999 2.842947
v -1.159118 3.399999 2.642947
v -1.343945 3.399999 2.842947
v 1.159118 3.399999 2.642947
v 1.343945 3.399999 -0.046324
v 1.159118 3.399999 -0.046324
v -1.343945 4.099999 2.842947
v 1.159118 4.099999 2.642947
v 1.343945 4.099999 2.842947
v -1.159118 4.099999 2.642947
v -1.343945 4.099999 -0.046324
v -1.159118 4.099999 -0.046324
v 4.500002 -4.499998 4.556834
v -0.000000 -4.499998 6.250000
v 4.500002 -4.499998 5.056834
v -0.000000 -4.499998 6.750000
v -4.499995 -4.500005 5.056834
v -4.499995 -4.500005 4.556834
v -0.000006 4.499998 6.250000
v -4.500009 4.499991 5.056834
v -4.500009 4.499991 4.556834
v 4.500002 4.499998 5.056834
v -0.000006 4.499998 6.750000
v 4.500002 4.499998 4.556834
v -0.000006 4.499998 6.250000
v -0.000006 4.499998 6.750000
v -4.500009 4.499991 5.056834
v 3.499998 -3.500002 4.250000
v 3.500002 3.499998 0.000000
v 3.500002 3.499998 4.250000
v 3.499998 -3.500002 0.000000
v 4.000002 3.999998 4.750000
v 4.000000 -4.000000 -5.000000
v 3.999998 -4.000002 4.750000
v 4.000000 4.000000 -5.000000
v 3.499998 -3.500002 0.000000
v -3.500001 -3.499999 4.250000
v -3.500001 -3.499999 0.000000
v 3.499998 -3.500002 4.250000
v 1.250001 3.999999 2.750000
v -0.000000 3.999998 6.250000
v -1.249999 3.999999 2.750000
v -4.000000 4.000000 4.750000
v -1.249999 3.999999 0.000000
v -1.249999 3.999999 2.750000
v -1.249999 3.499999 0.000000
v -1.249999 3.499999 2.750000
v -1.249999 3.999999 0.000000
v -1.249999 3.499999 2.750000
v 1.250001 3.999999 2.750000
v -1.249999 3.999999 2.750000
v 1.250001 3.499999 2.750000
v 1.250001 3.499999 2.750000
v 1.250001 3.999999 0.000000
v 1.250001 3.999999 2.750000
v 1.250001 3.499999 0.000000
v 3.499998 -3.500002 4.250000
v -3.500000 3.500000 4.250000
v -3.500001 -3.499999 4.250000
v 3.500002 3.499998 4.250000
v -3.500000 3.500000 0.000000
v -3.500001 -3.499999 4.250000
v -3.500000 3.500000 4.250000
v -3.500001 -3.499999 0.000000
v -4.000000 -3.999999 -5.000000
v -4.000000 4.000000 4.750000
v -4.000001 -3.999999 4.750000
v -3.999998 4.000001 -5.000000
v -4.000000 -3.999999 -5.000000
v 3.999998 -4.000002 4.750000
v 4.000000 -4.000000 -5.000000
v -4.000001 -3.999999 4.750000
v 4.000000 4.000000 -5.000000
v 4.000002 3.999998 4.750000
v 1.250001 3.999999 0.000000
v -1.249999 3.999999 0.000000
v -3.999998 4.000001 -5.000000
v -4.000000 4.000000 4.750000
v -1.343945 4.099999 -0.046324
v -1.343945 3.399999 2.842947
v -1.343945 3.399999 -0.046324
v -1.343945 4.099999 2.842947
v -1.159118 3.399999 2.642947
v -1.159118 4.099999 -0.046324
v -1.159118 3.399999 -0.046324
v -1.159118 4.099999 2.642947
v 1.343945 3.399999 -0.046324
v 1.343945 4.099999 2.842947
v 1.343945 4.099999 -0.046324
v 1.343945 3.399999 2.842947
v 1.159118 4.099999 2.642947
v 1.159118 3.399999 -0.046324
v 1.159118 4.099999 -0.046324
v 1.159118 3.399999 2.642947
v -1.159118 4.099999 2.642947
v 1.159118 3.399999 2.642947
v 1.159118 4.099999 2.642947
v -1.159118 3.399999 2.642947
v -1.343945 4.099999 2.842947
v 1.343945 3.399999 2.842947
v -1.343945 3.399999 2.842947
v 1.343945 4.099999 2.842947
v 1.159118 4.099999 -0.046324
v 1.343945 3.399999 -0.046324
v 1.343945 4.099999 -0.046324
v 1.159118 3.399999 -0.046324
v -1.343945 4.099999 -0.046324
v -1.159118 3.399999 -0.046324
v -1.159118 4.099999 -0.046324
v -1.343945 3.399999 -0.046324
v 4.500002 4.499998 5.056834
v -0.000000 -4.499998 6.750000
v -0.000006 4.499998 6.750000
v 4.500002 -4.499998 5.056834
v -0.000000 -4.499998 6.250000
v -4.500009 4.499991 4.556834
v -4.499995 -4.500005 4.556834
v -0.000006 4.499998 6.250000
v 4.500002 -4.499998 5.056834
v 4.500002 4.499998 4.556834
v 4.500002 -4.499998 4.556834
v 4.500002 4.499998 5.056834
v -0.000000 -4.499998 6.750000
v -4.500009 4.499991 5.056834
v -0.000006 4.499998 6.750000
v -4.499995 -4.500005 5.056834
v -4.500009 4.499991 5.056834
v -4.499995 -4.500005 4.556834
v -4.500009 4.499991 4.556834
v -4.499995 -4.500005 5.056834
v -0.000006 4.499998 6.250000
v 4.500002 -4.499998 4.556834
v 4.500002 4.499998 4.556834
v -0.000000 -4.499998 6.250000
v -3.500000 3.500000 0.000000
v -1.249999 3.499999 0.000000
v -3.500001 -3.499999 0.000000
v 3.499998 -3.500002 0.000000
v 1.250001 3.499999 0.000000
v 3.500002 3.499998 0.000000
v -1.249999 3.999999 0.000000
v 1.250001 3.999999 0.000000
v 1.250001 3.999999 2.750000
v 4.000002 3.999998 4.750000
v -0.000000 3.999998 6.250000
v 1.250001 3.999999 0.000000
v 1.343945 4.099999 2.842947
v 1.159118 4.099999 2.642947
v 1.343945 4.099999 -0.046324
v 1.159118 4.099999 -0.046324
vt 0.896988869 0.793832898
vt 0.896988869 0.795960307
vt 0.839690447 0.733754575
vt 0.896988869 0.793832898
vt 0.896988869 0.794896603
vt 0.709616184 0.790781856
vt 0.641609848 0.722775519
vt 0.709616184 0.722775519
vt 0.709616184 0.722775519
vt 0.709616184 0.790781856
vt 0.641609848 0.790781856
vt 0.709616184 0.790781856
vt 0.641609848 0.722775519
vt 0.709616184 0.722775519
vt 0.332837701 0.663403392
vt 0.332837701 0.720288932
vt 0.389723301 0.720288932
vt 0.896988869 0.793832898
vt 0.839690447 0.733754575
vt 0.896988869 0.793832898
vt 0.896988869 0.795960307
vt 0.896988869 0.798087716
vt 0.896988869 0.798087716
vt 0.896988869 0.795960307
vt 0.11304754 0.730973244
vt 0.124393821 0.730973244
vt 0.124393821 0.730973244
vt 0.641609848 0.722775519
vt 0.709616184 0.790781856
vt 0.709616184 0.722775519
vt 0.709616184 0.722775519
vt 0.641609848 0.790781856
vt 0.709616184 0.790781856
vt 0.641609848 0.722775519
vt 0.709616184 0.790781856
vt 0.709616184 0.722775519
vt 0.709616184 0.722775519
vt 0.641609848 0.790781856
vt 0.709616184 0.790781856
vt 0.389723301 0.720288932
vt 0.389723301 0.720288932
vt 0.332837701 0.720288932
vt 0.332837701 0.663403392
vt 0.389723301 0.720288932
vt 0.332837701 0.720288932
vt 0.389723301 0.720288932
vt 0.332837701 0.720288932
vt 0.389723301 0.720288932
vt 0.389723301 0.720288932
vt 0.332837701 0.663403392
vt 0.332837701 0.720288932
vt 0.389723301 0.720288932
vt 0.332837701 0.663403392
vt 0.332837701 0.720288932
vt 0.902662039 0.798087716
vt 0.896988869 0.798087716
vt 0.896988869 0.798087716
vt 0.902662039 0.798087716
vt 0.0901281834 0.730973244
vt 0.112820685 0.765011966
vt 0.112820685 0.730973244
vt 0.0901281834 0.765011966
vt 0.902662039 0.798087716
vt 0.902662039 0.793832898
vt 0.902662039 0.793832898
vt 0.902662039 0.798087716
vt 0.0900147557 0.730803072
vt 0.11304754 0.7727983
vt 0.11304754 0.7727983
vt 0.11304754 0.7823717
vt 0.11304754 0.7727983
vt 0.593446255 0.768333316
vt 0.604792476 0.768333316
vt 0.604792476 0.768333316
vt 0.593446255 0.768333316
vt 0.593446255 0.768333316
vt 0.604792476 0.76939702
vt 0.547494054 0.707191288
vt 0.547494054 0.707191288
vt 0.604792476 0.76939702
vt 0.593446255 0.76939702
vt 0.593446255 0.76939702
vt 0.604792476 0.76939702
vt 0.409765035 0.328802526
vt 0.404091865 0.324547708
vt 0.409765035 0.324547708
vt 0.404091865 0.328802526
vt 0.896988869 0.793832898
vt 0.902662039 0.793832898
vt 0.896988869 0.793832898
vt 0.902662039 0.793832898
vt 0.135966957 0.730973244
vt 0.158659399 0.765011966
vt 0.158659399 0.730973244
vt 0.135966957 0.765011966
vt 0.124393821 0.765011966
vt 0.11304754 0.730973244
vt 0.11304754 0.765011966
vt 0.124393821 0.730973244
vt 0.135739982 0.765352368
vt 0.11304754 0.765352368
vt 0.11304754 0.771734595
vt 0.11304754 0.7727983
vt 0.135739982 0.7823717
vt 0.11304754 0.7823717
vt 0.709616184 0.790781856
vt 0.641609848 0.722775519
vt 0.641609848 0.790781856
vt 0.709616184 0.722775519
vt 0.709616184 0.722775519
vt 0.641609848 0.790781856
vt 0.709616184 0.790781856
vt 0.641609848 0.722775519
vt 0.709616184 0.790781856
vt 0.641609848 0.722775519
vt 0.641609848 0.790781856
vt 0.709616184 0.722775519
vt 0.709616184 0.722775519
vt 0.641609848 0.790781856
vt 0.709616184 0.790781856
vt 0.641609848 0.722775519
vt 0.709616184 0.722775519
vt 0.641609848 0.790781856
vt 0.709616184 0.790781856
vt 0.641609848 0.722775519
vt 0.709616184 0.790781856
vt 0.641609848 0.722775519
vt 0.641609848 0.790781856
vt 0.709616184 0.722775519
vt 0.709616184 0.722775519
vt 0.641609848 0.790781856
vt 0.709616184 0.790781856
vt 0.641609848 0.722775519
vt 0.709616184 0.722775519
vt 0.641609848 0.790781856
vt 0.709616184 0.790781856
vt 0.641609848 0.722775519
vt 0.332837701 0.720288932
vt 0.332837701 0.720288932
vt 0.389723301 0.720288932
vt 0.389723301 0.720288932
vt 0.389723301 0.663403392
vt 0.332837701 0.720288932
vt 0.389723301 0.720288932
vt 0.332837701 0.663403392
vt 0.389723301 0.663403392
vt 0.332837701 0.720288932
vt 0.389723301 0.720288932
vt 0.332837701 0.663403392
vt 0.389723301 0.720288932
vt 0.389723301 0.720288932
vt 0.332837701 0.720288932
vt 0.332837701 0.720288932
vt 0.389723301 0.663403392
vt 0.332837701 0.720288932
vt 0.389723301 0.720288932
vt 0.332837701 0.663403392
vt 0.389723301 0.663403392
vt 0.332837701 0.720288932
vt 0.389723301 0.720288932
vt 0.332837701 0.663403392
vt 0.135507271 0.283227026
vt 0.135507271 0.284290731
vt 0.141180441 0.283227026
vt 0.141180441 0.287481844
vt 0.135507271 0.285354435
vt 0.135507271 0.287481844
vt 0.12416105 0.284290731
vt 0.12416105 0.285354435
vt 0.11304754 0.771734595
vt 0.11304754 0.765352368
vt 0.11304754 0.765352368
vt 0.11304754 0.771734595
vt 0.709616184 0.722775519
vt 0.709616184 0.790781856
vt 0.709616184 0.790781856
vt 0.641609848 0.790781856
vn 0.000000 -1.000000 0.000000
vn 0.000000 -1.000000 0.000000
vn 0.000000 -1.000000 0.000000
vn 0.000000 -1.000000 0.000000
vn 0.000000 -1.000000 0.000000
vn 0.000000 -1.000000 0.000000
vn 0.000000 -1.000000 0.000000
vn 0.000000 -1.000000 0.000000
vn 0.000000 -1.000000 0.000000
vn 0.000000 -1.000000 0.000000
vn 0.000000 -1.000000 0.000000
vn 0.000000 1.000000 0.000000
vn 0.000000 1.000000 0.000000
vn 0.000000 1.000000 0.000000
vn 0.000000 -1.000000 0.000000
vn 0.000000 -1.000000 0.000000
vn 0.000000 -1.000000 0.000000
vn 0.000000 -1.000000 0.000000
vn 0.000000 -1.000000 0.000000
vn 0.000000 -1.000000 0.000000
vn 0.000000 -1.000000 0.000000
vn 0.000000 -1.000000 0.000000
vn 0.000000 -1.000000 0.000000
vn 0.000000 -1.000000 0.000000
vn 0.000000 -1.000000 0.000000
vn 0.000000 -1.000000 0.000000
vn 0.000000 -1.000000 0.000000
vn 0.000000 -1.000000 0.000000
vn 0.000000 -1.000000 0.000000
vn 0.000000 -1.000000 0.000000
vn 0.000000 -1.000000 0.000000
vn 0.000000 -1.000000 0.000000
vn 0.000000 -1.000000 0.000000
vn 0.000000 1.000000 0.000000
vn 0.000000 1.000000 0.000000
vn 0.000000 1.000000 0.000000
vn 0.000000 1.000000 0.000000
vn 0.000000 1.000000 0.000000
vn 0.000000 1.000000 0.000000
vn 0.000000 -1.000000 0.000000
vn 0.000000 -1.000000 0.000000
vn 0.000000 -1.000000 0.000000
vn 0.000000 -1.000000 0.000000
vn 0.000000 -1.000000 0.000000
vn 0.000000 -1.000000 0.000000
vn 0.000000 1.000000 0.000000
vn 0.000000 1.000000 0.000000
vn 0.000000 1.000000 0.000000
vn 0.000000 1.000000 0.000000
vn 0.000000 1.000000 0.000000
vn 0.000000 1.000000 0.000000
vn 0.000000 1.000000 0.000000
vn 0.000000 1.000000 0.000000
vn 0.000000 1.000000 0.000000
vn -1.000000 0.000000 0.000000
vn -1.000000 0.000000 0.000000
vn -1.000000 0.000000 0.000000
vn -1.000000 0.000000 0.000000
vn 1.000000 0.000000 0.000000
vn 1.000000 0.000000 0.000000
vn 1.000000 0.000000 0.000000
vn 1.000000 0.000000 0.000000
vn 0.000000 1.000000 0.000000
vn 0.000000 1.000000 0.000000
vn 0.000000 1.000000 0.000000
vn 0.000000 1.000000 0.000000
vn 0.000000 1.000000 0.000000
vn 0.000000 1.000000 0.000000
vn 0.000000 1.000000 0.000000
vn 0.000000 1.000000 0.000000
vn 0.000000 1.000000 0.000000
vn 1.000000 0.000000 0.000000
vn 1.000000 0.000000 0.000000
vn 1.000000 0.000000 0.000000
vn 1.000000 0.000000 0.000000
vn 0.000000 0.000000 -1.000000
vn 0.000000 0.000000 -1.000000
vn 0.000000 0.000000 -1.000000
vn 0.000000 0.000000 -1.000000
vn -1.000000 0.000000 0.000000
vn -1.000000 0.000000 0.000000
vn -1.000000 0.000000 0.000000
vn -1.000000 0.000000 0.000000
vn 0.000000 0.000000 -1.000000
vn 0.000000 0.000000 -1.000000
vn 0.000000 0.000000 -1.000000
vn 0.000000 0.000000 -1.000000
vn 1.000000 0.000000 0.000000
vn 1.000000 0.000000 0.000000
vn 1.000000 0.000000 0.000000
vn 1.000000 0.000000 0.000000
vn -1.000000 0.000000 0.000000
vn -1.000000 0.000000 0.000000
vn -1.000000 0.000000 0.000000
vn -1.000000 0.000000 0.000000
vn 0.000000 -1.000000 0.000000
vn 0.000000 -1.000000 0.000000
vn 0.000000 -1.000000 0.000000
vn 0.000000 -1.000000 0.000000
vn 0.000000 1.000000 0.000000
vn 0.000000 1.000000 0.000000
vn 0.000000 1.000000 0.000000
vn 0.000000 1.000000 0.000000
vn 0.000000 1.000000 0.000000
vn 0.000000 1.000000 0.000000
vn -1.000000 0.000000 0.000000
vn -1.000000 0.000000 0.000000
vn -1.000000 0.000000 0.000000
vn -1.000000 0.000000 0.000000
vn 1.000000 0.000000 0.000000
vn 1.000000 0.000000 0.000000
vn 1.000000 0.000000 0.000000
vn 1.000000 0.000000 0.000000
vn 1.000000 0.000000 0.000000
vn 1.000000 0.000000 0.000000
vn 1.000000 0.000000 0.000000
vn 1.000000 0.000000 0.000000
vn -1.000000 0.000000 0.000000
vn -1.000000 0.000000 0.000000
vn -1.000000 0.000000 0.000000
vn -1.000000 0.000000 0.000000
vn 0.000000 0.000000 -1.000000
vn 0.000000 0.000000 -1.000000
vn 0.000000 0.000000 -1.000000
vn 0.000000 0.000000 -1.000000
vn 0.000000 0.000000 1.000000
vn 0.000000 0.000000 1.000000
vn 0.000000 0.000000 1.000000
vn 0.000000 0.000000 1.000000
vn 0.000000 0.000000 -1.000000
vn 0.000000 0.000000 -1.000000
vn 0.000000 0.000000 -1.000000
vn 0.000000 0.000000 -1.000000
vn 0.000000 0.000000 -1.000000
vn 0.000000 0.000000 -1.000000
vn 0.000000 0.000000 -1.000000
vn 0.000000 0.000000 -1.000000
vn 0.352156 0.000000 0.935941
vn 0.000000 0.000000 1.000000
vn 0.000000 0.000000 1.000000
vn 0.352156 0.000000 0.935941
vn 0.124445 0.000000 -0.992227
vn 0.352157 0.000000 -0.935941
vn 0.352157 0.000000 -0.935941
vn -0.124445 0.000000 -0.992227
vn 1.000000 0.000000 0.000000
vn 1.000000 0.000000 0.000000
vn 1.000000 0.000000 0.000000
vn 1.000000 0.000000 0.000000
vn 0.000000 0.000000 1.000000
vn -0.352157 0.000000 0.935941
vn 0.000000 0.000000 1.000000
vn -0.352157 0.000000 0.935941
vn -1.000000 0.000000 0.000000
vn -1.000000 0.000000 0.000000
vn -1.000000 0.000000 0.000000
vn -1.000000 0.000000 0.000000
vn -0.124445 0.000000 -0.992227
vn -0.352156 0.000000 -0.935941
vn -0.352156 0.000000 -0.935941
vn 0.124445 0.000000 -0.992227
vn 0.000000 0.000000 1.000000
vn 0.000000 0.000000 1.000000
vn 0.000000 0.000000 1.000000
vn 0.000000 0.000000 1.000000
vn 0.000000 0.000000 1.000000
vn 0.000000 0.000000 1.000000
vn 0.000000 0.000000 1.000000
vn 0.000000 0.000000 1.000000
vn 0.000000 1.000000 0.000000
vn 0.000000 1.000000 0.000000
vn 0.000000 1.000000 0.000000
vn 0.000000 1.000000 0.000000
vn 0.000000 1.000000 0.000000
vn 0.000000 1.000000 0.000000
vn 0.000000 1.000000 0.000000
vn 0.000000 1.000000 0.000000
g Model_0_0
f 3/3/3 2/2/2 1/1/1
f 5/5/5 3/3/3 4/4/4
f 8/8/8 7/7/7 6/6/6
f 10/10/10 6/6/6 9/9/9
f 11/11/11 6/6/6 10/10/10
f 14/14/14 13/13/13 12/12/12
f 17/17/17 16/16/16 15/15/15
f 20/20/20 19/19/19 18/18/18
f 22/22/22 18/18/18 21/21/21
f 23/23/23 22/22/22 21/21/21
f 23/23/23 21/21/21 24/24/24
f 27/27/27 26/26/26 25/25/25
f 30/30/30 29/29/29 28/28/28
f 32/32/32 28/28/28 31/31/31
f 32/32/32 31/31/31 33/33/33
f 36/36/36 35/35/35 34/34/34
f 38/38/38 34/34/34 37/37/37
f 38/38/38 37/37/37 39/39/39
f 42/42/42 41/41/41 40/40/40
f 44/44/44 41/41/41 43/43/43
f 45/45/45 41/41/41 44/44/44
f 48/48/48 47/47/47 46/46/46
f 50/50/50 49/49/49 46/46/46
f 51/51/51 46/46/46 49/49/49
f 54/54/54 53/53/53 52/52/52
f 57/57/57 56/56/56 55/55/55
f 55/55/55 56/56/56 58/58/58
f 61/61/61 60/60/60 59/59/59
f 59/59/59 60/60/60 62/62/62
f 65/65/65 64/64/64 63/63/63
f 63/63/63 64/64/64 66/66/66
f 69/69/69 68/68/68 67/67/67
f 68/68/68 69/69/69 70/70/70
f 71/71/71 70/70/70 69/69/69
f 74/74/74 73/73/73 72/72/72
f 72/72/72 73/73/73 75/75/75
f 78/78/78 77/77/77 76/76/76
f 76/76/76 77/77/77 79/79/79
f 82/82/82 81/81/81 80/80/80
f 80/80/80 81/81/81 83/83/83
f 86/86/86 85/85/85 84/84/84
f 84/84/84 85/85/85 87/87/87
f 90/90/90 89/89/89 88/88/88
f 88/88/88 89/89/89 91/91/91
f 94/94/94 93/93/93 92/92/92
f 92/92/92 93/93/93 95/95/95
f 98/98/98 97/97/97 96/96/96
f 96/96/96 97/97/97 99/99/99
f 102/102/102 101/101/101 100/100/100
f 103/103/103 102/102/102 100/100/100
f 104/104/104 103/103/103 100/100/100
f 105/105/105 103/103/103 104/104/104
f 108/108/108 107/107/107 106/106/106
f 106/106/106 107/107/107 109/109/109
f 112/112/112 111/111/111 110/110/110
f 110/110/110 111/111/111 113/113/113
f 116/116/116 115/115/115 114/114/114
f 114/114/114 115/115/115 117/117/117
f 120/120/120 119/119/119 118/118/118
f 118/118/118 119/119/119 121/121/121
f 124/124/124 123/123/123 122/122/122
f 122/122/122 123/123/123 125/125/125
f 128/128/128 127/127/127 126/126/126
f 126/126/126 127/127/127 129/129/129
f 132/132/132 131/131/131 130/130/130
f 130/130/130 131/131/131 133/133/133
f 136/136/136 135/135/135 134/134/134
f 134/134/134 135/135/135 137/137/137
f 140/140/140 139/139/139 138/138/138
f 138/138/138 139/139/139 141/141/141
f 144/144/144 143/143/143 142/142/142
f 142/142/142 143/143/143 145/145/145
f 148/148/148 147/147/147 146/146/146
f 146/146/146 147/147/147 149/149/149
f 152/152/152 151/151/151 150/150/150
f 150/150/150 151/151/151 153/153/153
f 156/156/156 155/155/155 154/154/154
f 154/154/154 155/155/155 157/157/157
f 160/160/160 159/159/159 158/158/158
f 158/158/158 159/159/159 161/161/161
f 164/164/164 163/163/163 162/162/162
f 164/164/164 165/165/165 163/163/163
f 166/166/166 163/163/163 165/165/165
f 167/167/167 166/166/166 165/165/165
f 168/168/168 163/163/163 166/166/166
f 169/169/169 168/168/168 166/166/166
f 172/172/172 171/171/171 170/170/170
f 171/171/171 173/173/173 170/170/170
f 176/176/176 175/175/175 174/174/174
f 177/177/177 175/175/175 176/176/176