g Model_0
v -2.45837402 0.0999979973 -0.0751049966
v -2.45837498 -0.100001998 -0.0751049966
v 2.45837402 -0.0999979973 -0.0751049966
v 2.45837402 0.100001998 -0.0751049966
v -2.45837307 0.0999979973 2.42489505
v 2.45837498 0.100001998 2.42489505
v 2.45837307 -0.0999979973 2.42489505
v -2.45837402 -0.100001998 2.42489505
v -2.45837402 0.0999979973 -0.0751049966
v 2.45837402 0.100001998 -0.0751049966
v 2.45837498 0.100001998 2.42489505
v -2.45837307 0.0999979973 2.42489505
v 2.45837402 0.100001998 -0.0751049966
v 2.45837402 -0.0999979973 -0.0751049966
v 2.45837307 -0.0999979973 2.42489505
v 2.45837498 0.100001998 2.42489505
v 2.45837402 -0.0999979973 -0.0751049966
v -2.45837498 -0.100001998 -0.0751049966
v -2.45837402 -0.100001998 2.42489505
v 2.45837307 -0.0999979973 2.42489505
v -2.45837307 0.0999979973 2.42489505
v -2.45837402 -0.100001998 2.42489505
v -2.45837498 -0.100001998 -0.0751049966
v -2.45837402 0.0999979973 -0.0751049966
v 2.50000095 -0.738484979 1.974895
v 2.50000095 -0.738484979 1.87489498
v -2.49999905 -0.738489985 1.87489498
v -2.49999905 -0.738489985 1.974895
v -2.49999905 -0.738489985 1.974895
v -2.49999905 -0.738489985 1.87489498
v -2.50000095 0.738484979 1.87489498
v -2.50000095 0.738484979 1.974895
v -2.50000095 0.738484979 1.974895
v -2.50000095 0.738484979 1.87489498
v 2.49999905 0.738489985 1.87489498
v 2.49999905 0.738489985 1.974895
v 2.49999905 0.738489985 1.974895
v 2.49999905 0.738489985 1.87489498
v 2.50000095 -0.738484979 1.87489498
v 2.50000095 -0.738484979 1.974895
v 2.50000095 -0.738484979 1.87489498
v 2.49999905 0.738489985 1.87489498
v -2.50000095 0.738484979 1.87489498
v -2.49999905 -0.738489985 1.87489498
v 2.49999905 0.738489985 1.974895
v 2.50000095 -0.738484979 1.974895
v -2.49999905 -0.738489985 1.974895
v -2.50000095 0.738484979 1.974895
v 2.50000095 -0.738484979 0.474895
v 2.50000095 -0.738484979 0.374895006
v -2.49999905 -0.738489985 0.374895006
v -2.49999905 -0.738489985 0.474895
v -2.49999905 -0.738489985 0.474895
v -2.49999905 -0.738489985 0.374895006
v -2.50000095 0.738484979 0.374895006
v -2.50000095 0.738484979 0.474895
v -2.50000095 0.738484979 0.474895
v -2.50000095 0.738484979 0.374895006
v 2.49999905 0.738489985 0.374895006
v 2.49999905 0.738489985 0.474895
v 2.49999905 0.738489985 0.474895
v 2.49999905 0.738489985 0.374895006
v 2.50000095 -0.738484979 0.374895006
v 2.50000095 -0.738484979 0.474895
v 2.50000095 -0.738484979 0.374895006
v 2.49999905 0.738489985 0.374895006
v -2.50000095 0.738484979 0.374895006
v -2.49999905 -0.738489985 0.374895006
v 2.49999905 0.738489985 0.474895
v 2.50000095 -0.738484979 0.474895
v -2.49999905 -0.738489985 0.474895
v -2.50000095 0.738484979 0.474895
v 2.50000095 -0.738484979 1.224895
v 2.50000095 -0.738484979 1.12489498
v -2.49999905 -0.738489985 1.12489498
v -2.49999905 -0.738489985 1.224895
v -2.49999905 -0.738489985 1.224895
v -2.49999905 -0.738489985 1.12489498
v -2.50000095 0.738484979 1.12489498
v -2.50000095 0.738484979 1.224895
v -2.50000095 0.738484979 1.224895
v -2.50000095 0.738484979 1.12489498
v 2.49999905 0.738489985 1.12489498
v 2.49999905 0.738489985 1.224895
v 2.49999905 0.738489985 1.224895
v 2.49999905 0.738489985 1.12489498
v 2.50000095 -0.738484979 1.12489498
v 2.50000095 -0.738484979 1.224895
v 2.50000095 -0.738484979 1.12489498
v 2.49999905 0.738489985 1.12489498
v -2.50000095 0.738484979 1.12489498
v -2.49999905 -0.738489985 1.12489498
v 2.49999905 0.738489985 1.224895
v 2.50000095 -0.738484979 1.224895
v -2.49999905 -0.738489985 1.224895
v -2.50000095 0.738484979 1.224895
vt 0.777577996 0.513473988
vt 0.780713975 0.513473988
vt 0.780713975 0.43769601
vt 0.777577996 0.43769601
vt 0.777577996 0.513473988
vt 0.777577996 0.43769601
vt 0.774442971 0.43769601
vt 0.774442971 0.513473988
vt 0.626590014 0.43769601
vt 0.626590014 0.513473988
vt 0.665784001 0.513473988
vt 0.665784001 0.43769601
vt 0.69520998 0.513473988
vt 0.692074001 0.513473988
vt 0.692074001 0.552004993
vt 0.69520998 0.552004993
vt 0.704976976 0.513473988
vt 0.704976976 0.43769601
vt 0.665784001 0.43769601
vt 0.665784001 0.513473988
vt 0.698705971 0.552004993
vt 0.70184201 0.552004993
vt 0.70184201 0.513473988
vt 0.698705971 0.513473988
vt 0.204990998 0.605293989
vt 0.206559002 0.605293989
vt 0.206559002 0.528231978
vt 0.204990998 0.528231978
vt 0.0900610015 0.550994992
vt 0.0916289985 0.550994992
vt 0.0916289985 0.528231978
vt 0.0900610015 0.528231978
vt 0.126119003 0.528231978
vt 0.124551997 0.528231978
vt 0.124551997 0.605293989
vt 0.126119003 0.605293989
vt 0.0787260011 0.550994992
vt 0.0802939981 0.550994992
vt 0.0802939981 0.528231978
vt 0.0787260011 0.528231978
vt 0.093197003 0.605293989
vt 0.116351999 0.605293989
vt 0.116351999 0.528231978
vt 0.093197003 0.528231978
vt 0.155545995 0.452452987
vt 0.132390007 0.452452987
vt 0.132390007 0.529515028
vt 0.155545995 0.529515028
vt 0.130823001 0.605293989
vt 0.132390007 0.605293989
vt 0.132390007 0.528231978
vt 0.130823001 0.528231978
vt 0.093197003 0.528231978
vt 0.0916289985 0.528231978
vt 0.0916289985 0.550994992
vt 0.093197003 0.550994992
vt 0.116351999 0.605293989
vt 0.117919996 0.605293989
vt 0.117919996 0.528231978
vt 0.116351999 0.528231978
vt 0.124551997 0.528231978
vt 0.122984 0.528231978
vt 0.122984 0.550994992
vt 0.124551997 0.550994992
vt 0.0540030003 0.605293989
vt 0.0771579966 0.605293989
vt 0.0771579966 0.528231978
vt 0.0540030003 0.528231978
vt 0.178700998 0.452452987
vt 0.155545995 0.452452987
vt 0.155545995 0.529515028
vt 0.178700998 0.529515028
vt 0.117919996 0.605293989
vt 0.119488001 0.605293989
vt 0.119488001 0.528231978
vt 0.117919996 0.528231978
vt 0.0771579966 0.550994992
vt 0.0787260011 0.550994992
vt 0.0787260011 0.528231978
vt 0.0771579966 0.528231978
vt 0.129254997 0.605293989
vt 0.130823001 0.605293989
vt 0.130823001 0.528231978
vt 0.129254997 0.528231978
vt 0.0802939981 0.550994992
vt 0.0818620026 0.550994992
vt 0.0818620026 0.528231978
vt 0.0802939981 0.528231978
vt 0.155545995 0.606576979
vt 0.178700998 0.606576979
vt 0.178700998 0.529515028
vt 0.155545995 0.529515028
vt 0.201856002 0.452452987
vt 0.178700998 0.452452987
vt 0.178700998 0.529515028
vt 0.201856002 0.529515028
vn -0 0 -1
vn -0 0 -1
vn -0 0 -1
vn -0 0 -1
vn -0 0 1
vn -0 0 1
vn -0 0 1
vn -0 0 1
vn -0 1 0
vn -0 1 0
vn -0 1 0
vn -0 1 0
vn 1 0 0
vn 1 0 0
vn 1 0 0
vn 1 0 0
vn -0 -1 0
vn -0 -1 0
vn -0 -1 0
vn -0 -1 0
vn -1 0 0
vn -1 0 0
vn -1 0 0
vn -1 0 0
vn -0 -1 0
vn -0 -1 0
vn -0 -1 0
vn -0 -1 0
vn -1 0 0
vn -1 0 0
vn -1 0 0
vn -1 0 0
vn -0 1 0
vn -0 1 0
vn -0 1 0
vn -0 1 0
vn 1 0 0
vn 1 0 0
vn 1 0 0
vn 1 0 0
vn -0 0 -1
vn -0 0 -1
vn -0 0 -1
vn -0 0 -1
vn -0 0 1
vn -0 0 1
vn -0 0 1
vn -0 0 1
vn -0 -1 0
vn -0 -1 0
vn -0 -1 0
vn -0 -1 0
vn -1 0 0
vn -1 0 0
vn -1 0 0
vn -1 0 0
vn -0 1 0
vn -0 1 0
vn -0 1 0
vn -0 1 0
vn 1 0 0
vn 1 0 0
vn 1 0 0
vn 1 0 0
vn -0 0 -1
vn -0 0 -1
vn -0 0 -1
vn -0 0 -1
vn -0 0 1
vn -0 0 1
vn -0 0 1
vn -0 0 1
vn -0 -1 0
vn -0 -1 0
vn -0 -1 0
vn -0 -1 0
vn -1 0 0
vn -1 0 0
vn -1 0 0
vn -1 0 0
vn -0 1 0
vn -0 1 0
vn -0 1 0
vn -0 1 0
vn 1 0 0
vn 1 0 0
vn 1 0 0
vn 1 0 0
vn -0 0 -1
vn -0 0 -1
vn -0 0 -1
vn -0 0 -1
vn -0 0 1
vn -0 0 1
vn -0 0 1
vn -0 0 1
g Model_0_0
f 3/3/3 2/2/2 1/1/1
f 4/4/4 3/3/3 1/1/1
f 7/7/7 6/6/6 5/5/5
f 8/8/8 7/7/7 5/5/5
f 11/11/11 10/10/10 9/9/9
f 12/12/12 11/11/11 9/9/9
f 15/15/15 14/14/14 13/13/13
f 16/16/16 15/15/15 13/13/13
f 19/19/19 18/18/18 17/17/17
f 20/20/20 19/19/19 17/17/17
f 23/23/23 22/22/22 21/21/21
f 24/24/24 23/23/23 21/21/21
f 27/27/27 26/26/26 25/25/25
f 28/28/28 27/27/27 25/25/25
f 31/31/31 30/30/30 29/29/29
f 32/32/32 31/31/31 29/29/29
f 35/35/35 34/34/34 33/33/33
f 36/36/36 35/35/35 33/33/33
f 39/39/39 38/38/38 37/37/37
f 40/40/40 39/39/39 37/37/37
f 43/43/43 42/42/42 41/41/41
f 44/44/44 43/43/43 41/41/41
f 47/47/47 46/46/46 45/45/45
f 48/48/48 47/47/47 45/45/45
f 51/51/51 50/50/50 49/49/49
f 52/52/52 51/51/51 49/49/49
f 55/55/55 54/54/54 53/53/53
f 56/56/56 55/55/55 53/53/53
f 59/59/59 58/58/58 57/57/57
f 60/60/60 59/59/59 57/57/57
f 63/63/63 62/62/62 61/61/61
f 64/64/64 63/63/63 61/61/61
f 67/67/67 66/66/66 65/65/65
f 68/68/68 67/67/67 65/65/65
f 71/71/71 70/70/70 69/69/69
f 72/72/72 71/71/71 69/69/69
f 75/75/75 74/74/74 73/73/73
f 76/76/76 75/75/75 73/73/73
f 79/79/79 78/78/78 77/77/77
f 80/80/80 79/79/79 77/77/77
f 83/83/83 82/82/82 81/81/81
f 84/84/84 83/83/83 81/81/81
f 87/87/87 86/86/86 85/85/85
f 88/88/88 87/87/87 85/85/85
f 91/91/91 90/90/90 89/89/89
f 92/92/92 91/91/91 89/89/89
f 95/95/95 94/94/94 93/93/93
f 96/96/96 95/95/95 93/93/93
