v -16.750000 8.500000 0.999997
v -16.750000 7.500000 0.999997
v -16.750000 7.500001 3.749997
v -16.750000 5.250000 0.999998
v -16.750000 2.500000 0.999999
v -16.750000 2.500001 1.999999
v -16.750000 2.500002 5.249999
v -16.750000 5.250001 3.749998
v -16.750000 8.500002 5.249997
v -16.750000 7.500001 3.749997
v -16.750000 8.500000 0.999997
v -16.750000 2.500001 1.999999
v -16.750000 2.500002 5.249999
v -16.750000 5.250000 0.999998
v -7.750000 8.500000 0.999997
v -16.750000 8.500000 0.999997
v -16.750000 8.500002 5.249997
v -7.750000 8.500000 0.999997
v -16.750000 8.500002 5.249997
v -7.750000 8.500002 5.249997
v -16.750000 2.500001 1.999999
v -16.750000 2.500000 0.999999
v -7.750000 2.500000 0.999999
v -24.500000 -11.999999 2.000005
v -21.500000 -11.999999 2.000005
v 22.000000 -11.999999 2.000005
v -16.750000 -7.500000 1.000003
v -16.750000 -8.500000 1.000003
v -16.750000 -8.499998 5.250003
v -29.500000 9.000000 0.999996
v -29.500000 -9.000000 1.000004
v -29.500000 -8.999999 2.000004
v -29.500000 9.000000 0.999996
v -29.500000 -8.999999 2.000004
v -29.500000 9.000001 1.999996
v -7.750000 -2.499998 5.250001
v -7.750000 -2.500000 1.000001
v -16.750000 -2.500000 1.000001
v -7.750000 -2.499998 5.250001
v -16.750000 -2.500000 1.000001
v -16.750000 -2.499998 5.250001
v -17.250000 11.500000 0.999995
v 22.000000 11.500000 0.999995
v -7.250000 9.000000 0.999996
v -16.750000 9.000000 0.999996
v -18.250000 9.000000 0.999996
v -7.250000 9.000000 0.999996
v -17.250000 11.500000 0.999995
v -20.500000 -8.500000 1.000003
v -21.500000 -8.500000 1.000003
v -21.500000 -2.500000 1.000001
v -18.250000 -9.000000 1.000004
v -21.500000 -2.500000 1.000001
v -20.500000 -9.000000 1.000004
v -24.500000 11.500000 0.999995
v -17.250000 11.500000 0.999995
v -18.250000 9.000000 0.999996
v -24.500000 -11.500000 1.000005
v -22.000000 -9.000000 1.000004
v -16.750000 -9.000000 1.000004
v -7.250000 -9.000000 1.000004
v -22.000000 9.000000 0.999996
v -24.500000 11.500000 0.999995
v 22.000000 -11.500000 1.000005
v -7.250000 9.000000 0.999996
v 22.000000 11.500000 0.999995
v 37.000000 -3.000000 1.000001
v -20.500000 9.000000 0.999996
v -24.500000 11.500000 0.999995
v -18.250000 8.500000 0.999997
v -18.250000 9.000000 0.999996
v -18.250000 8.500000 0.999997
v -20.500000 8.500000 0.999997
v -20.500000 9.000000 0.999996
v -21.500000 4.250000 0.999998
v -17.250000 2.500000 0.999999
v -17.250000 -2.000000 1.000001
v -17.250000 -5.250000 1.000002
v -21.500000 -2.500000 1.000001
v -24.500000 -11.500000 1.000005
v -29.500000 9.000000 0.999996
v -29.500000 -9.000000 1.000004
v 22.000000 -11.500000 1.000005
v -7.250000 -9.000000 1.000004
v -22.000000 -9.000000 1.000004
v -20.500000 -9.000000 1.000004
v -24.500000 -11.500000 1.000005
v -18.250000 -9.000000 1.000004
v -16.750000 -9.000000 1.000004
v 22.000000 11.500000 0.999995
v 37.000000 2.500000 0.999999
v 37.000000 -3.000000 1.000001
v -17.250000 5.250000 0.999998
v -17.250000 2.500000 0.999999
v -18.250000 8.500000 0.999997
v -21.500000 4.250000 0.999998
v -21.500000 8.500000 0.999997
v -20.500000 8.500000 0.999997
v -17.250000 2.500000 0.999999
v -17.250000 2.000000 0.999999
v -17.250000 -2.000000 1.000001
v -7.750000 -2.500000 1.000001
v -7.750000 -2.499998 5.250001
v -7.750000 -8.499998 5.250003
v -7.750000 -2.500000 1.000001
v -7.750000 -8.499998 5.250003
v -7.750000 -8.500000 1.000003
v -15.750000 2.000001 1.999999
v -15.750000 2.000000 0.999999
v -17.250000 2.000000 0.999999
v -20.500000 8.500001 3.749997
v -20.500000 8.500000 0.999997
v -21.500000 8.500000 0.999997
v -24.500000 9.999996 -10.000004
v -27.000000 8.999996 -10.000004
v -27.000000 -9.000004 -9.999996
v -24.500000 9.999996 -10.000004
v -24.500000 -10.000004 -9.999996
v 22.000000 9.999996 -10.000004
v -21.500000 8.500002 5.249997
v -21.500000 8.500000 0.999997
v -21.500000 4.250000 0.999998
v 22.000000 -11.499999 2.000005
v -21.500000 -11.499999 2.000005
v -24.500000 -11.499999 2.000005
v -17.250000 -7.500000 1.000003
v -17.250000 -7.499999 3.750003
v -17.250000 -8.500000 1.000003
v -17.250000 7.500000 0.999997
v -17.250000 8.500000 0.999997
v -17.250000 8.500002 5.249997
v 37.500000 -3.000001 -1.999999
v 37.500000 -2.999999 2.000001
v 37.500000 2.500001 1.999999
v 37.500000 -3.000001 -1.999999
v 37.500000 2.500001 1.999999
v 37.500000 2.499999 -2.000001
v -7.750000 -8.500000 1.000003
v -7.750000 -8.499998 5.250003
v -16.750000 -8.499998 5.250003
v -7.750000 -8.500000 1.000003
v -16.750000 -8.499998 5.250003
v -16.750000 -8.500000 1.000003
v -17.250000 -1.999998 5.250001
v -17.250000 -2.000000 1.000001
v -15.750000 -2.000000 1.000001
v -15.750000 -2.000000 1.000001
v -15.750000 -1.999999 2.000001
v -17.250000 -1.999998 5.250001
v 37.500000 2.500001 1.999999
v 37.500000 -2.999999 2.000001
v 37.000000 2.500001 1.999999
v -24.500000 -11.999999 2.000005
v -30.000000 -8.999999 2.000004
v -29.500000 -8.999999 2.000004
v -29.500000 -8.999999 2.000004
v -24.500000 -11.499999 2.000005
v -21.500000 -11.999999 2.000005
v -21.500000 -11.499999 2.000005
v 22.000000 -11.999999 2.000005
v 22.000000 -11.499999 2.000005
v 37.000000 -2.999999 2.000001
v 37.500000 -2.999999 2.000001
v 37.000000 2.500001 1.999999
v -30.000000 -8.999999 2.000004
v -30.000000 9.000001 1.999996
v -29.500000 -8.999999 2.000004
v -29.500000 9.000001 1.999996
v -29.500000 -8.999999 2.000004
v -24.500000 11.500001 1.999995
v -24.500000 12.000001 1.999995
v -11.750000 11.500001 1.999995
v -11.750000 12.000001 1.999995
v 22.000000 11.500001 1.999995
v 22.000000 11.500001 1.999995
v 22.000000 12.000001 1.999995
v 37.000000 2.500001 1.999999
v 37.500000 2.500001 1.999999
v -17.250000 11.500000 0.999995
v -24.500000 11.500000 0.999995
v 22.000000 11.500001 1.999995
v -24.500000 11.500001 1.999995
v -11.750000 11.500001 1.999995
v 22.000000 11.500001 1.999995
v 22.000000 12.000001 1.999995
v -11.750000 12.000001 1.999995
v -24.500000 12.000001 1.999995
v -15.750000 9.000003 6.749996
v -15.750000 9.000004 9.499996
v -16.750000 9.000000 0.999996
v -30.000000 8.999999 -2.000004
v -30.000000 -9.000001 -1.999996
v -29.053583 -9.000002 -4.523773
v -27.000000 8.999996 -10.000004
v -29.053583 8.999998 -4.523781
v -30.000000 8.999999 -2.000004
v -24.500000 11.369054 -4.523782
v -27.000000 8.999996 -10.000004
v -24.500000 9.999996 -10.000004
v -7.750000 8.500002 5.249997
v -16.750000 8.500002 5.249997
v -16.750000 2.500002 5.249999
v -7.750000 2.500002 5.249999
v -24.500000 -11.369058 -4.523772
v -29.053583 -9.000002 -4.523773
v -30.000000 -9.000001 -1.999996
v -24.500000 -12.000001 -1.999995
v 22.000000 -12.000001 -1.999995
v 37.500000 -3.000001 -1.999999
v 34.500000 -3.000004 -9.999999
v 22.000000 -10.000004 -9.999996
v -24.500000 -10.000004 -9.999996
v -24.500000 -11.369058 -4.523772
v -24.500000 -12.000001 -1.999995
v -24.500000 11.369054 -4.523782
v -24.500000 9.999996 -10.000004
v 22.000000 9.999996 -10.000004
v 22.000000 11.999999 -2.000005
v 37.500000 2.499999 -2.000001
v 34.500000 2.499996 -10.000001
v 22.000000 11.999999 -2.000005
v -24.500000 11.999999 -2.000005
v -24.500000 11.369054 -4.523782
v -29.053583 8.999998 -4.523781
v -30.000000 8.999999 -2.000004
v -7.750000 2.500000 0.999999
v -7.750000 2.500002 5.249999
v -16.750000 2.500001 1.999999
v -16.750000 2.500002 5.249999
v -18.250000 8.500000 0.999997
v -18.250000 9.000000 0.999996
v -18.250000 9.000001 3.749996
v -18.250000 8.500001 3.749997
v -16.750000 -2.500000 1.000001
v -16.750000 -5.250000 1.000002
v -16.750000 -5.249999 3.750002
v -16.750000 -2.499998 5.250001
v -16.750000 -7.499999 3.750003
v -16.750000 -8.499998 5.250003
v -16.750000 -7.500000 1.000003
v -21.500000 8.500004 10.499997
v -21.500000 -8.499996 10.500003
v -21.500000 -8.499995 11.500003
v -21.500000 8.500005 11.499997
v -24.500000 -11.500000 1.000005
v -29.500000 -8.999999 2.000004
v -29.500000 -9.000000 1.000004
v -24.500000 -11.499999 2.000005
v 22.000000 -11.500000 1.000005
v 22.000000 -11.499999 2.000005
v 37.000000 -3.000000 1.000001
v 37.000000 -2.999999 2.000001
v -21.500000 -8.499996 10.000003
v -21.500000 -8.499998 5.750003
v -16.750000 -8.499998 5.750003
v -15.750000 -8.499997 6.750003
v -7.750000 -8.499998 5.750003
v -7.750000 -8.499997 6.750003
v -15.750000 -8.499996 9.500003
v -12.750000 -8.499997 6.750003
v -12.750000 -8.499996 9.500003
v -11.750000 -8.499997 6.750003
v -11.750000 -8.499996 9.500003
v -8.750000 -8.499997 6.750003
v -8.750000 -8.499996 9.500003
v -7.250000 -8.499996 9.500003
v -7.250000 -8.499996 10.000003
v -17.250000 -5.250000 1.000002
v -16.750000 -5.250000 1.000002
v -16.750000 -7.500000 1.000003
v -17.250000 -7.500000 1.000003
v -21.500000 -2.500000 1.000001
v -17.250000 -8.500000 1.000003
v -18.250000 -8.500000 1.000003
v -18.250000 -9.000000 1.000004
v -18.250000 8.500000 0.999997
v -17.250000 8.500000 0.999997
v -17.250000 7.500000 0.999997
v -17.250000 5.250000 0.999998
v -16.750000 5.250000 0.999998
v -16.750000 7.500000 0.999997
v -16.750000 -2.500000 1.000001
v -7.750000 -2.500000 1.000001
v -7.750000 -8.500000 1.000003
v -16.750000 -8.500000 1.000003
v -16.750000 -8.500000 1.000003
v -16.750000 -5.250000 1.000002
v -16.750000 -2.500000 1.000001
v -16.750000 -7.500000 1.000003
v -16.750000 8.500000 0.999997
v -7.750000 8.500000 0.999997
v -7.750000 2.500000 0.999999
v -16.750000 2.500000 0.999999
v -16.750000 2.500000 0.999999
v -16.750000 7.500000 0.999997
v -16.750000 8.500000 0.999997
v -16.750000 5.250000 0.999998
v -21.500000 -8.499998 5.250003
v -21.500000 -8.500000 1.000003
v -20.500000 -8.500000 1.000003
v -20.500000 -8.499999 3.750003
v -20.500000 -8.499999 3.750003
v -18.250000 -8.499999 3.750003
v -21.500000 -8.499998 5.250003
v -17.250000 -8.499998 5.250003
v -17.250000 -8.500000 1.000003
v -18.250000 -8.500000 1.000003
v -11.750000 8.500004 9.499997
v -11.750000 8.500003 6.749997
v -12.750000 8.500003 6.749997
v -12.750000 8.500004 9.499997
v -7.250000 8.500004 9.999997
v -8.750000 8.500004 9.499997
v -12.750000 8.500004 9.999997
v -7.250000 8.500004 9.499997
v -8.750000 8.500003 6.749997
v -7.750000 8.500003 6.749997
v -15.750000 8.500004 9.499997
v -15.750000 8.500004 9.999997
v -21.500000 8.500004 9.999997
v -15.750000 8.500003 6.749997
v -21.500000 8.500002 5.749997
v -16.750000 8.500002 5.749997
v -7.750000 8.500002 5.749997
v -15.750000 8.500003 6.749997
v -8.750000 8.500003 6.749997
v -7.750000 8.500003 6.749997
v -11.750000 8.500003 6.749997
v -12.750000 8.500003 6.749997
v -12.750000 2.000001 3.749999
v -12.750000 2.000001 1.999999
v -15.750000 2.000001 1.999999
v -17.250000 2.000002 5.249999
v -17.250000 2.000000 0.999999
v -12.250000 2.000002 5.249999
v -12.250000 2.000001 3.749999
v -11.750000 2.000002 5.749999
v -11.750000 2.000002 5.249999
v -17.250000 2.000002 5.749999
v -22.000000 9.000005 11.499996
v -22.000000 9.000000 0.999996
v -20.500000 9.000000 0.999996
v -20.500000 9.000001 3.749996
v -20.500000 9.000001 3.749996
v -18.250000 9.000001 3.749996
v -22.000000 9.000005 11.499996
v -15.750000 9.000004 9.499996
v -12.750000 9.000004 9.499996
v -11.750000 9.000004 9.499996
v -11.750000 9.000003 6.749996
v -12.750000 9.000003 6.749996
v -15.750000 9.000003 6.749996
v -7.250000 9.000001 3.749996
v -7.250000 9.000003 6.749996
v -8.750000 9.000003 6.749996
v -8.750000 9.000004 9.499996
v -6.750000 9.000004 9.499996
v -15.750000 9.000005 11.499996
v -6.750000 9.000005 11.999996
v -12.750000 9.000005 11.999996
v -7.250000 9.000001 3.749996
v -7.250000 9.000000 0.999996
v -7.250000 9.000000 0.999996
v -15.750000 9.000003 6.749996
v -16.750000 9.000000 0.999996
v -18.250000 9.000001 3.749996
v -18.250000 9.000000 0.999996
v -15.750000 9.000004 9.499996
v -7.250000 8.500004 10.499997
v -7.250000 8.500005 11.999997
v -7.250000 -8.499995 12.000003
v -7.250000 -8.499996 10.500003
v -16.750000 5.250000 0.999998
v -16.750000 5.250001 3.749998
v -17.250000 5.250001 3.749998
v -17.250000 5.250000 0.999998
v -16.750000 2.500000 0.999999
v -16.750000 2.500001 1.999999
v -17.250000 2.500001 1.999999
v -17.250000 2.500000 0.999999
v -17.250000 8.500002 5.249997
v -17.250000 8.500000 0.999997
v -18.250000 8.500000 0.999997
v -18.250000 8.500001 3.749997
v -18.250000 8.500001 3.749997
v -20.500000 8.500001 3.749997
v -17.250000 8.500002 5.249997
v -21.500000 8.500002 5.249997
v -21.500000 8.500000 0.999997
v -20.500000 8.500000 0.999997
v -20.500000 8.500001 3.749997
v -20.500000 9.000001 3.749996
v -20.500000 9.000000 0.999996
v -30.000000 8.999999 -2.000004
v -24.500000 12.000001 1.999995
v -30.000000 9.000001 1.999996
v -24.500000 11.999999 -2.000005
v 22.000000 11.999999 -2.000005
v 22.000000 12.000001 1.999995
v 37.500000 2.500001 1.999999
v 37.500000 2.499999 -2.000001
v 22.000000 -10.000004 -9.999996
v 34.500000 -3.000004 -9.999999
v 34.500000 2.499996 -10.000001
v 22.000000 9.999996 -10.000004
v -24.500000 -10.000004 -9.999996
v -20.500000 -8.500000 1.000003
v -20.500000 -9.000000 1.000004
v -20.500000 -8.999999 3.750004
v -20.500000 -8.499999 3.750003
v -21.500000 -2.500000 1.000001
v -21.500000 -8.500000 1.000003
v -21.500000 -8.499998 5.250003
v -21.500000 8.500002 5.249997
v -21.500000 4.250000 0.999998
v -7.250000 9.000000 0.999996
v -7.250000 -9.000000 1.000004
v -7.250000 -8.999997 6.750004
v -7.250000 -7.499997 6.750003
v -6.750000 -7.499996 9.500003
v -7.250000 7.500003 6.749997
v -7.250000 9.000003 6.749996
v -6.750000 9.000004 9.499996
v -6.750000 7.500004 9.499997
v -6.750000 9.000005 11.999996
v -6.750000 -8.999996 9.500004
v -6.750000 -8.999995 12.000004
v -29.500000 9.000000 0.999996
v -29.500000 9.000001 1.999996
v -24.500000 11.500001 1.999995
v -24.500000 11.500000 0.999995
v 22.000000 11.500001 1.999995
v 22.000000 11.500000 0.999995
v -17.250000 11.500000 0.999995
v 37.000000 2.500001 1.999999
v 37.000000 2.500000 0.999999
v -16.750000 7.500001 3.749997
v -16.750000 7.500000 0.999997
v -17.250000 7.500000 0.999997
v -17.250000 7.500001 3.749997
v -7.750000 -2.499998 5.250001
v -16.750000 -2.499998 5.250001
v -16.750000 -8.499998 5.250003
v -7.750000 -8.499998 5.250003
v -16.750000 -7.500000 1.000003
v -16.750000 -7.499999 3.750003
v -17.250000 -7.499999 3.750003
v -17.250000 -7.500000 1.000003
v -17.250000 -8.499998 5.250003
v -17.250000 -8.500000 1.000003
v -17.250000 -7.499999 3.750003
v -17.250000 -1.999998 5.250001
v -17.250000 -5.249999 3.750002
v -17.250000 -5.249999 3.750002
v -17.250000 -5.250000 1.000002
v -17.250000 -1.999998 5.250001
v -17.250000 -2.000000 1.000001
v -17.250000 -1.999998 5.750001
v -17.250000 2.000002 5.749999
v -17.250000 2.000002 5.249999
v -17.250000 -1.999998 5.250001
v -17.250000 2.000002 5.249999
v -17.250000 2.000000 0.999999
v -17.250000 5.250001 3.749998
v -17.250000 8.500002 5.249997
v -17.250000 7.500001 3.749997
v -17.250000 7.500000 0.999997
v -17.250000 2.000000 0.999999
v -17.250000 2.500000 0.999999
v -17.250000 5.250001 3.749998
v -17.250000 5.250000 0.999998
v -11.750000 -1.999998 5.750001
v -17.250000 -2.000000 1.000001
v -17.250000 2.000000 0.999999
v -11.750000 2.000002 5.749999
v -15.750000 -8.999995 11.500004
v -12.750000 -8.999995 12.000004
v -6.750000 -8.999995 12.000004
v -15.750000 -8.999996 9.500004
v -17.250000 -8.999995 11.500004
v -15.750000 -8.999997 6.750004
v -22.000000 -8.999995 11.500004
v -20.500000 -8.999999 3.750004
v -12.750000 -8.999997 6.750004
v -18.250000 -8.999999 3.750004
v -12.750000 -8.999996 9.500004
v -11.750000 -8.999996 9.500004
v -11.750000 -8.999997 6.750004
v -8.750000 -8.999996 9.500004
v -6.750000 -8.999996 9.500004
v -7.250000 -8.999997 6.750004
v -8.750000 -8.999997 6.750004
v -7.250000 -8.999997 6.750004
v -7.250000 -9.000000 1.000004
v -16.750000 -9.000000 1.000004
v -12.750000 -8.999997 6.750004
v -18.250000 -9.000000 1.000004
v -18.250000 -8.999999 3.750004
v -12.750000 -8.999997 6.750004
v -8.750000 -8.999997 6.750004
v -7.250000 -8.999997 6.750004
v -11.750000 -8.999997 6.750004
v -17.250000 -5.249999 3.750002
v -17.250000 -7.499999 3.750003
v -16.750000 -7.499999 3.750003
v -16.750000 -5.249999 3.750002
v -21.500000 -8.499998 5.250003
v -17.250000 -8.499998 5.250003
v -17.250000 -1.999998 5.250001
v -17.250000 2.000002 5.249999
v -17.250000 8.500002 5.249997
v -21.500000 8.500002 5.249997
v -17.250000 5.250001 3.749998
v -16.750000 5.250001 3.749998
v -16.750000 7.500001 3.749997
v -17.250000 7.500001 3.749997
v -20.500000 8.500001 3.749997
v -18.250000 8.500001 3.749997
v -18.250000 9.000001 3.749996
v -20.500000 9.000001 3.749996
v -20.500000 -8.999999 3.750004
v -18.250000 -8.999999 3.750004
v -18.250000 -8.499999 3.750003
v -20.500000 -8.499999 3.750003
v -21.500000 -8.499995 11.500003
v -21.500000 -8.499996 10.500003
v -7.250000 -8.499996 10.500003
v -15.750000 -8.499995 11.500003
v -7.250000 -8.499995 12.000003
v -12.750000 -8.499995 12.000003
v -24.500000 -12.000001 -1.999995
v -30.000000 -9.000001 -1.999996
v -30.000000 -8.999999 2.000004
v -24.500000 -11.999999 2.000005
v 22.000000 -11.999999 2.000005
v 22.000000 -12.000001 -1.999995
v 37.500000 -3.000001 -1.999999
v 37.500000 -2.999999 2.000001
v -15.750000 -1.999999 2.000001
v -12.750000 -1.999999 2.000001
v -17.250000 -1.999998 5.250001
v -12.750000 -1.999999 3.750001
v -12.250000 -1.999999 3.750001
v -12.250000 -1.999998 5.250001
v -17.250000 -1.999998 5.750001
v -11.750000 -1.999998 5.250001
v -11.750000 -1.999998 5.750001
v -30.000000 9.000001 1.999996
v -30.000000 -8.999999 2.000004
v -30.000000 -9.000001 -1.999996
v -30.000000 8.999999 -2.000004
v -7.250000 7.500003 6.749997
v -7.250000 -7.499997 6.750003
v -7.750000 -7.499997 6.750003
v -7.750000 7.500003 6.749997
v 37.000000 2.500000 0.999999
v 37.000000 2.500001 1.999999
v 37.000000 -2.999999 2.000001
v 37.000000 -3.000000 1.000001
v -15.750000 -8.999997 6.750004
v -15.750000 -8.999996 9.500004
v -15.750000 -8.499996 9.500003
v -15.750000 -8.499997 6.750003
v -7.750000 7.500003 6.749997
v -7.250000 7.500004 9.499997
v -6.750000 7.500004 9.499997
v -7.250000 7.500003 6.749997
v -8.750000 8.500003 6.749997
v -11.750000 8.500003 6.749997
v -11.750000 9.000003 6.749996
v -8.750000 9.000003 6.749996
v -8.750000 -8.999997 6.750004
v -11.750000 -8.999997 6.750004
v -11.750000 -8.499997 6.750003
v -8.750000 -8.499997 6.750003
v -12.750000 8.500003 6.749997
v -15.750000 8.500003 6.749997
v -15.750000 9.000003 6.749996
v -12.750000 9.000003 6.749996
v -12.750000 -8.999997 6.750004
v -15.750000 -8.999997 6.750004
v -15.750000 -8.499997 6.750003
v -12.750000 -8.499997 6.750003
v -20.500000 -8.999999 3.750004
v -20.500000 -9.000000 1.000004
v -22.000000 -9.000000 1.000004
v -22.000000 -8.999995 11.500004
v -8.750000 9.000003 6.749996
v -8.750000 9.000004 9.499996
v -8.750000 8.500004 9.499997
v -8.750000 8.500003 6.749997
v -12.750000 -8.499997 6.750003
v -12.750000 -8.499996 9.500003
v -12.750000 -8.999996 9.500004
v -12.750000 -8.999997 6.750004
v -8.750000 -8.499997 6.750003
v -8.750000 -8.499996 9.500003
v -8.750000 -8.999996 9.500004
v -8.750000 -8.999997 6.750004
v -11.750000 8.500003 6.749997
v -11.750000 8.500004 9.499997
v -11.750000 9.000004 9.499996
v -11.750000 9.000003 6.749996
v -7.250000 -7.499997 6.750003
v -6.750000 -7.499996 9.500003
v -7.250000 -7.499996 9.500003
v -7.750000 -7.499997 6.750003
v -11.750000 -8.999997 6.750004
v -11.750000 -8.999996 9.500004
v -11.750000 -8.499996 9.500003
v -11.750000 -8.499997 6.750003
v -15.750000 8.500003 6.749997
v -15.750000 8.500004 9.499997
v -15.750000 9.000004 9.499996
v -15.750000 9.000003 6.749996
v -12.750000 9.000003 6.749996
v -12.750000 9.000004 9.499996
v -12.750000 8.500004 9.499997
v -12.750000 8.500003 6.749997
v -21.500000 8.500004 9.999997
v -21.500000 8.500002 5.749997
v -21.500000 -8.499998 5.750003
v -21.500000 -8.499996 10.000003
v -7.750000 2.500000 0.999999
v -7.750000 8.500000 0.999997
v -7.750000 8.500002 5.249997
v -7.750000 2.500002 5.249999
v -7.250000 8.500004 9.999997
v -7.250000 -8.499996 10.000003
v -7.250000 -8.499996 9.500003
v -7.250000 -7.499996 9.500003
v -7.750000 -7.499997 6.750003
v -7.250000 7.500004 9.499997
v -7.250000 8.500004 9.499997
v -7.750000 8.500003 6.749997
v -7.750000 -8.499997 6.750003
v -7.750000 -8.499998 5.750003
v -7.750000 -6.749998 5.750003
v -7.750000 7.500003 6.749997
v -7.750000 8.500002 5.749997
v -8.750000 8.500004 9.499997
v -8.750000 9.000004 9.499996
v -11.750000 9.000004 9.499996
v -11.750000 8.500004 9.499997
v -15.750000 8.500004 9.499997
v -12.750000 8.500004 9.499997
v -12.750000 9.000004 9.499996
v -15.750000 9.000004 9.499996
v -7.250000 -7.499996 9.500003
v -6.750000 -7.499996 9.500003
v -6.750000 7.500004 9.499997
v -7.250000 7.500004 9.499997
v -8.750000 -8.999996 9.500004
v -8.750000 -8.499996 9.500003
v -11.750000 -8.499996 9.500003
v -11.750000 -8.999996 9.500004
v -12.750000 -8.999996 9.500004
v -12.750000 -8.499996 9.500003
v -15.750000 -8.499996 9.500003
v -15.750000 -8.999996 9.500004
v -18.250000 -9.000000 1.000004
v -18.250000 -8.500000 1.000003
v -18.250000 -8.499999 3.750003
v -18.250000 -8.999999 3.750004
v -21.500000 -8.499996 10.000003
v -7.250000 -8.499996 10.000003
v -7.250000 8.500004 9.999997
v -12.750000 8.500004 9.999997
v -15.750000 8.500004 9.999997
v -21.500000 8.500004 9.999997
v -7.250000 8.500005 11.999997
v -7.250000 8.500004 10.499997
v -21.500000 8.500004 10.499997
v -15.750000 8.500005 11.499997
v -21.500000 8.500005 11.499997
v -12.750000 8.500005 11.999997
v -22.000000 9.000000 0.999996
v -22.000000 9.000005 11.499996
v -22.000000 -8.999995 11.500004
v -22.000000 -9.000000 1.000004
v -21.500000 -8.499996 10.500003
v -21.500000 8.500004 10.499997
v -7.250000 8.500004 10.499997
v -7.250000 -8.499996 10.500003
v -24.500000 -10.000004 -9.999996
v -27.000000 -9.000004 -9.999996
v -29.053583 -9.000002 -4.523773
v -24.500000 -11.369058 -4.523772
v 37.500000 2.499999 -2.000001
v 34.500000 2.499996 -10.000001
v 34.500000 -3.000004 -9.999999
v 37.500000 -3.000001 -1.999999
v -29.053583 -9.000002 -4.523773
v -27.000000 -9.000004 -9.999996
v -30.000000 8.999999 -2.000004
v -27.000000 8.999996 -10.000004
v -17.250000 -5.250000 1.000002
v -17.250000 -5.249999 3.750002
v -16.750000 -5.249999 3.750002
v -16.750000 -5.250000 1.000002
v -15.750000 -8.999995 11.500004
v -17.250000 -8.999995 11.500004
v -21.500000 -8.499995 11.500003
v -22.000000 -8.999995 11.500004
v -22.000000 9.000005 11.499996
v -15.750000 -8.499995 11.500003
v -21.500000 8.500005 11.499997
v -12.750000 -8.999995 12.000004
v -12.750000 -8.499995 12.000003
v -7.250000 -8.499995 12.000003
v -6.750000 -8.999995 12.000004
v -15.750000 8.500005 11.499997
v -15.750000 9.000005 11.499996
v -7.250000 8.500005 11.999997
v -6.750000 9.000005 11.999996
v -12.750000 9.000005 11.999996
v -12.750000 8.500005 11.999997
v -16.750000 -8.499998 5.750003
v -21.500000 -8.499998 5.750003
v -17.250000 -1.999998 5.750001
v -7.750000 -8.499998 5.750003
v -21.500000 8.500002 5.749997
v -7.750000 -6.749998 5.750003
v -17.250000 2.000002 5.749999
v -11.750000 -1.999998 5.750001
v -16.750000 8.500002 5.749997
v -11.750000 2.000002 5.749999
v -7.750000 8.500002 5.749997
vt 0.839770019 0.751891971
vt 0.839770973 0.751891971
vt 0.836077988 0.740172029
vt 0.839766979 0.751896024
vt 0.839767992 0.75189501
vt 0.839767992 0.75189501
vt 0.836077988 0.740172029
vt 0.836077988 0.740172029
vt 0.836077988 0.740172029
vt 0.836077988 0.740172029
vt 0.839770019 0.751891971
vt 0.839767992 0.75189501
vt 0.836077988 0.740172029
vt 0.839766979 0.751896024
vt 0.839769006 0.751893997
vt 0.839770019 0.751891971
vt 0.836077988 0.740172029
vt 0.839769006 0.751893997
vt 0.836077988 0.740172029
vt 0.836077988 0.740172029
vt 0.836077988 0.740172029
vt 0.839767992 0.75189501
vt 0.839769006 0.751893997
vt 0.574344993 0.200197995
vt 0.575091004 0.200663999
vt 0.607537985 0.228805006
vt 0.839734018 0.751924992
vt 0.839734972 0.751924992
vt 0.836076021 0.740173995
vt 0.603012979 0.247536004
vt 0.601893008 0.246365994
vt 0.601899981 0.246415004
vt 0.603012979 0.247536004
vt 0.601899981 0.246415004
vt 0.603093028 0.247532994
vt 0.836076021 0.740173995
vt 0.839736998 0.751923978
vt 0.839738011 0.751923025
vt 0.836076021 0.740173995
vt 0.839738011 0.751923025
vt 0.836076021 0.740173995
vt 0.108277999 0.315126002
vt 0.146202996 0.335271001
vt 0.109222002 0.314213008
vt 0.108126 0.315046012
vt 0.107772999 0.315041989
vt 0.109222002 0.314213008
vt 0.108277999 0.315126002
vt 0.106762998 0.315254986
vt 0.106810004 0.315302014
vt 0.107166 0.315398991
vt 0.107032999 0.31568101
vt 0.107166 0.315398991
vt 0.106606998 0.315192997
vt 0.106604002 0.314801991
vt 0.108277999 0.315126002
vt 0.107772999 0.315041989
vt 0.105811998 0.31409201
vt 0.105962001 0.314675987
vt 0.107306004 0.316026002
vt 0.107345 0.31823501
vt 0.106715001 0.31478101
vt 0.106604002 0.314801991
vt 0.140282005 0.341425002
vt 0.109222002 0.314213008
vt 0.146202996 0.335271001
vt 0.154052004 0.346193999
vt 0.107217997 0.314933002
vt 0.106604002 0.314801991
vt 0.107639 0.315099001
vt 0.107772999 0.315041989
vt 0.107639 0.315099001
vt 0.107265003 0.315019995
vt 0.107217997 0.314933002
vt 0.107348002 0.315207988
vt 0.107385002 0.315333992
vt 0.107327998 0.315474004
vt 0.107138999 0.315497994
vt 0.107166 0.315398991
vt 0.105811998 0.31409201
vt 0.104951002 0.313944012
vt 0.103831001 0.312774003
vt 0.140282005 0.341425002
vt 0.107345 0.31823501
vt 0.105962001 0.314675987
vt 0.106606998 0.315192997
vt 0.105811998 0.31409201
vt 0.107032999 0.31568101
vt 0.107306004 0.316026002
vt 0.146202996 0.335271001
vt 0.153380007 0.348396987
vt 0.154052004 0.346193999
vt 0.107459001 0.315201014
vt 0.107385002 0.315333992
vt 0.107639 0.315099001
vt 0.107348002 0.315207988
vt 0.107280999 0.315039009
vt 0.107265003 0.315019995
vt 0.107385002 0.315333992
vt 0.107340001 0.315414011
vt 0.107327998 0.315474004
vt 0.839736998 0.751923978
vt 0.836076021 0.740173995
vt 0.836076021 0.740173995
vt 0.839736998 0.751923978
vt 0.836076021 0.740173995
vt 0.839735985 0.751923978
vt 0.836079001 0.740172029
vt 0.839756012 0.751883984
vt 0.839756012 0.751914978
vt 0.836076975 0.740171015
vt 0.839748979 0.751882017
vt 0.839751005 0.75188297
vt 0.870660007 0.205979005
vt 0.87016499 0.206056997
vt 0.869854987 0.205390006
vt 0.870660007 0.205979005
vt 0.870009005 0.205997005
vt 0.906400979 0.229741007
vt 0.836077988 0.740172029
vt 0.839751005 0.75188297
vt 0.839756012 0.751896977
vt 0.637898982 0.275651008
vt 0.604591012 0.248585999
vt 0.603932977 0.247850001
vt 0.839733005 0.751924992
vt 0.836076021 0.740173995
vt 0.839731991 0.751927972
vt 0.839771986 0.751891017
vt 0.839776993 0.75188899
vt 0.836077988 0.740172029
vt 0.64369297 0.23624
vt 0.622684002 0.233852997
vt 0.624988019 0.234175995
vt 0.64369297 0.23624
vt 0.624988019 0.234175995
vt 0.64894098 0.235982999
vt 0.839735985 0.751923978
vt 0.836076021 0.740173995
vt 0.836076021 0.740173995
vt 0.839735985 0.751923978
vt 0.836076021 0.740173995
vt 0.839734972 0.751924992
vt 0.836077988 0.740173995
vt 0.839754999 0.751919985
vt 0.839753985 0.751932979
vt 0.839753985 0.751932979
vt 0.839757025 0.751933992
vt 0.836077988 0.740173995
vt 0.608385026 0.267381012
vt 0.606082022 0.267057002
vt 0.606670976 0.267334998
vt 0.557743013 0.233401999
vt 0.555652976 0.231904
vt 0.555782974 0.231657997
vt 0.555782974 0.231657997
vt 0.557816029 0.233092993
vt 0.558489025 0.233868003
vt 0.558474004 0.233829007
vt 0.590936005 0.262008995
vt 0.591781974 0.260892987
vt 0.606073022 0.265848994
vt 0.606082022 0.267057002
vt 0.606670976 0.267334998
vt 0.555652976 0.231904
vt 0.557116985 0.232618004
vt 0.555782974 0.231657997
vt 0.55697602 0.232776001
vt 0.555782974 0.231657997
vt 0.558655977 0.233622
vt 0.558825016 0.233475
vt 0.562058985 0.233677
vt 0.562268972 0.23364
vt 0.598693013 0.253383011
vt 0.598693013 0.253383011
vt 0.599596977 0.252097011
vt 0.606670976 0.267334998
vt 0.608385026 0.267381012
vt 0.606339991 0.248717993
vt 0.604665995 0.248392999
vt 0.644810021 0.268139988
vt 0.604772985 0.248379007
vt 0.608175993 0.248434007
vt 0.644810021 0.268139988
vt 0.616199017 0.218893006
vt 0.578871012 0.200435996
vt 0.575426996 0.200270995
vt 0.0889990032 0.760915995
vt 0.088992998 0.760912001
vt 0.111077003 0.701690018
vt 0.846445978 0.228128001
vt 0.845660985 0.226842999
vt 0.846689999 0.227552995
vt 0.87016499 0.206056997
vt 0.869373977 0.205654994
vt 0.846445978 0.228128001
vt 0.870243013 0.205713004
vt 0.87016499 0.206056997
vt 0.870660007 0.205979005
vt 0.369619012 0.141126007
vt 0.369619012 0.141124994
vt 0.369617999 0.141127005
vt 0.369619012 0.141126007
vt 0.847253978 0.228551
vt 0.846689999 0.227552995
vt 0.845660985 0.226842999
vt 0.846634984 0.22823
vt 0.879885018 0.256332994
vt 0.89456898 0.262066007
vt 0.915060997 0.235183001
vt 0.905853987 0.228126004
vt 0.870009005 0.205997005
vt 0.869390011 0.205677003
vt 0.846634984 0.22823
vt 0.84810698 0.228587002
vt 0.870660007 0.205979005
vt 0.906400979 0.229741007
vt 0.888145983 0.247024998
vt 0.89981699 0.261808991
vt 0.91594398 0.236300007
vt 0.888145983 0.247024998
vt 0.847689986 0.228321001
vt 0.84810698 0.228587002
vt 0.847236991 0.228529006
vt 0.846445978 0.228128001
vt 0.839769006 0.751893997
vt 0.836077988 0.740172029
vt 0.836077988 0.740172029
vt 0.836077988 0.740172029
vt 0.652642012 0.821067989
vt 0.652737021 0.821026981
vt 0.621290028 0.721834004
vt 0.621288002 0.721834004
vt 0.839738011 0.751923025
vt 0.839738011 0.751923025
vt 0.836076021 0.740173995
vt 0.836076021 0.740173995
vt 0.836076021 0.740173995
vt 0.836076021 0.740173995
vt 0.839734018 0.751924992
vt 0.0889490023 0.760876
vt 0.0888919979 0.760953009
vt 0.0888950005 0.760945976
vt 0.0889479965 0.76087898
vt 0.603874028 0.247684002
vt 0.601899981 0.246415004
vt 0.601893008 0.246365994
vt 0.603932977 0.247850001
vt 0.63834399 0.27501601
vt 0.637898982 0.275651008
vt 0.652113974 0.279785991
vt 0.65219003 0.280607015
vt 0.907079995 0.735571027
vt 0.907079995 0.735570014
vt 0.907079995 0.735570014
vt 0.907078981 0.735571027
vt 0.907082021 0.735572994
vt 0.907082021 0.735572994
vt 0.907078981 0.735571027
vt 0.907081008 0.73557198
vt 0.907079995 0.735571027
vt 0.907081008 0.73557198
vt 0.907079995 0.735571027
vt 0.907082021 0.735572994
vt 0.907081008 0.73557198
vt 0.907081008 0.73557198
vt 0.907081008 0.73557198
vt 0.107138999 0.315497994
vt 0.107129 0.315513015
vt 0.107083 0.315537006
vt 0.107070997 0.315542996
vt 0.107166 0.315398991
vt 0.107058004 0.315575987
vt 0.107051998 0.315589994
vt 0.107032999 0.31568101
vt 0.107639 0.315099001
vt 0.107588999 0.315104991
vt 0.107537001 0.315129995
vt 0.107459001 0.315201014
vt 0.107478 0.315187007
vt 0.107520998 0.315140009
vt 0.107124001 0.315519989
vt 0.107111998 0.315526009
vt 0.107109003 0.315528005
vt 0.107086003 0.315537006
vt 0.107086003 0.315537006
vt 0.107129 0.315513015
vt 0.107124001 0.315519989
vt 0.107083 0.315537006
vt 0.107515998 0.315140992
vt 0.107497998 0.315162987
vt 0.107496001 0.315165013
vt 0.107486002 0.315178007
vt 0.107486002 0.315178007
vt 0.107520998 0.315140009
vt 0.107515998 0.315140992
vt 0.107478 0.315187007
vt 0.836075008 0.740172982
vt 0.839712024 0.751905024
vt 0.839707971 0.751900971
vt 0.836073995 0.740172982
vt 0.836073995 0.740172982
vt 0.836076021 0.740173995
vt 0.836075008 0.740172982
vt 0.836076021 0.740173995
vt 0.839731991 0.751927972
vt 0.839731991 0.751928985
vt 0.907082975 0.735566974
vt 0.907083988 0.735566974
vt 0.907083988 0.735566974
vt 0.907082975 0.735566974
vt 0.907083988 0.735567987
vt 0.907083988 0.735566974
vt 0.907082975 0.735566974
vt 0.907083988 0.735567987
vt 0.907083988 0.735567987
vt 0.907083988 0.735567987
vt 0.907082021 0.73556602
vt 0.907082021 0.73556602
vt 0.907082975 0.735566974
vt 0.907082021 0.735566974
vt 0.907082021 0.735567987
vt 0.907082021 0.735566974
vt 0.907083988 0.735567987
vt 0.907082021 0.735566974
vt 0.907083988 0.735567987
vt 0.907083988 0.735567987
vt 0.907083988 0.735566974
vt 0.907083988 0.735566974
vt 0.836081028 0.740172982
vt 0.836081028 0.740171015
vt 0.836079001 0.740172029
vt 0.836079001 0.740172982
vt 0.839756012 0.751914978
vt 0.836081028 0.740173995
vt 0.836081982 0.740172982
vt 0.836080015 0.740175009
vt 0.836081028 0.740175009
vt 0.836079001 0.740172982
vt 0.0889469981 0.760881007
vt 0.109665997 0.701425016
vt 0.110169001 0.701577008
vt 0.0889569968 0.760908008
vt 0.0889569968 0.760908008
vt 0.0889829993 0.760914028
vt 0.0889469981 0.760881007
vt 0.088992998 0.760912001
vt 0.0890040025 0.760924995
vt 0.0890059993 0.760924995
vt 0.0890230015 0.760927022
vt 0.0890209973 0.760926008
vt 0.0889990032 0.760915995
vt 0.0890429989 0.760930002
vt 0.0890310034 0.760941029
vt 0.0890299976 0.760937989
vt 0.0890149996 0.760933995
vt 0.0890149996 0.760932982
vt 0.088992998 0.760903001
vt 0.089011997 0.760927975
vt 0.0890029967 0.760915995
vt 0.0890429989 0.760930002
vt 0.112173997 0.700856984
vt 0.112173997 0.700856984
vt 0.0889990032 0.760915995
vt 0.111077003 0.701690018
vt 0.0889829993 0.760914028
vt 0.110725001 0.701686025
vt 0.088992998 0.760912001
vt 0.0890100002 0.760924995
vt 0.0890109986 0.760927022
vt 0.0889730006 0.760986984
vt 0.0889699981 0.76098597
vt 0.652527988 0.821129978
vt 0.621285975 0.721840978
vt 0.621285975 0.721841991
vt 0.652514994 0.821139991
vt 0.836642027 0.70588702
vt 0.836642027 0.705937028
vt 0.836667001 0.705937028
vt 0.836667001 0.70588702
vt 0.836077988 0.740172029
vt 0.839776993 0.75188899
vt 0.839780986 0.751887977
vt 0.836079001 0.740171015
vt 0.836079001 0.740171015
vt 0.836076975 0.740171015
vt 0.836077988 0.740172029
vt 0.836077988 0.740172029
vt 0.839751005 0.75188297
vt 0.652378023 0.82101202
vt 0.621276021 0.721831977
vt 0.621272027 0.721828997
vt 0.652345002 0.820950985
vt 0.595570028 0.202301994
vt 0.575426996 0.200270995
vt 0.573719978 0.199414
vt 0.596813977 0.202496007
vt 0.637270987 0.221200004
vt 0.616199017 0.218893006
vt 0.624988019 0.234175995
vt 0.64894098 0.235982999
vt 0.905853987 0.228126004
vt 0.915060997 0.235183001
vt 0.91594398 0.236300007
vt 0.906400979 0.229741007
vt 0.870009005 0.205997005
vt 0.652024984 0.821178019
vt 0.651915014 0.821133971
vt 0.621248007 0.721844971
vt 0.621254027 0.721849024
vt 0.839740992 0.751913011
vt 0.839712024 0.751905024
vt 0.836075008 0.740172982
vt 0.836077988 0.740172029
vt 0.839756012 0.751896977
vt 0.112173997 0.700856984
vt 0.110296004 0.704878986
vt 0.0889960006 0.761004984
vt 0.0890000015 0.761000991
vt 0.0889829993 0.760990977
vt 0.0890280008 0.760946989
vt 0.0890310034 0.760941029
vt 0.0890149996 0.760932982
vt 0.0890169963 0.760933995
vt 0.089011997 0.760927975
vt 0.0889810026 0.760990024
vt 0.088973999 0.760987997
vt 0.603012979 0.247536004
vt 0.603093028 0.247532994
vt 0.604772985 0.248379007
vt 0.604665995 0.248392999
vt 0.644810021 0.268139988
vt 0.644264996 0.268862009
vt 0.606339991 0.248717993
vt 0.652787983 0.282092988
vt 0.651441991 0.281989008
vt 0.621286988 0.721839011
vt 0.652558982 0.821097016
vt 0.652570009 0.821089029
vt 0.621286988 0.721837997
vt 0.369594991 0.141148001
vt 0.369596004 0.141148001
vt 0.369594008 0.141148999
vt 0.369594991 0.141148999
vt 0.652249992 0.821376026
vt 0.621268988 0.721855998
vt 0.621267974 0.721857011
vt 0.652242005 0.821380019
vt 0.836076021 0.740173995
vt 0.839731991 0.751927972
vt 0.836076021 0.740173995
vt 0.836077988 0.740173995
vt 0.836076975 0.740173995
vt 0.836076975 0.740173995
vt 0.839739025 0.751922011
vt 0.836077988 0.740173995
vt 0.839754999 0.751919985
vt 0.866044998 0.678864002
vt 0.866055012 0.678851008
vt 0.866051018 0.678848028
vt 0.866041005 0.678861022
vt 0.836079001 0.740172982
vt 0.839756012 0.751914978
vt 0.836077988 0.740172029
vt 0.836077988 0.740172029
vt 0.836077988 0.740172029
vt 0.839771986 0.751891017
vt 0.839756012 0.751914978
vt 0.839758992 0.751908004
vt 0.836077988 0.740172029
vt 0.839766026 0.751896977
vt 0.103753999 0.392031014
vt 0.103725001 0.392008007
vt 0.103726 0.392004013
vt 0.103758998 0.392028987
vt 0.0889419988 0.760975003
vt 0.0889599994 0.760981977
vt 0.088973999 0.760987997
vt 0.0889509991 0.76097101
vt 0.0889289975 0.760969996
vt 0.0889569968 0.760972977
vt 0.0888959989 0.760942996
vt 0.0889239982 0.760931015
vt 0.088978 0.760993004
vt 0.0889459997 0.760953009
vt 0.0889689997 0.76098001
vt 0.0889699981 0.760981023
vt 0.0889799967 0.760994971
vt 0.0889820009 0.76098901
vt 0.0889810026 0.760990024
vt 0.0889960006 0.761004984
vt 0.0889939964 0.761003971
vt 0.0889960006 0.761004984
vt 0.110296004 0.704878986
vt 0.110257998 0.702669024
vt 0.088978 0.760993004
vt 0.109985001 0.702324986
vt 0.0889459997 0.760953009
vt 0.088978 0.760993004
vt 0.0889939964 0.761003971
vt 0.0889960006 0.761004984
vt 0.0889799967 0.760994971
vt 0.621272027 0.721855998
vt 0.621267974 0.721857011
vt 0.621268988 0.721855998
vt 0.621271014 0.721855998
vt 0.369583011 0.141140997
vt 0.369590014 0.141148999
vt 0.369612992 0.141150996
vt 0.369623005 0.141139001
vt 0.369617999 0.141121998
vt 0.369608998 0.141120002
vt 0.621285975 0.721841991
vt 0.621285975 0.721840978
vt 0.621286988 0.721839011
vt 0.621286988 0.721837997
vt 0.621276021 0.721831977
vt 0.621288002 0.721834004
vt 0.621290028 0.721834004
vt 0.621272027 0.721828997
vt 0.621248007 0.721844971
vt 0.621263981 0.721861005
vt 0.621263981 0.721858978
vt 0.621254027 0.721849024
vt 0.0888950005 0.760945976
vt 0.0888919979 0.760953009
vt 0.0889699981 0.76098597
vt 0.0889419988 0.76097703
vt 0.0889730006 0.760986984
vt 0.0889580026 0.760981023
vt 0.595758975 0.202405006
vt 0.594784975 0.201017007
vt 0.572255015 0.198699996
vt 0.574344993 0.200197995
vt 0.607537985 0.228805006
vt 0.629009008 0.230508
vt 0.64369297 0.23624
vt 0.622684002 0.233852997
vt 0.839757025 0.751933992
vt 0.836077988 0.740175009
vt 0.836077988 0.740173995
vt 0.836079001 0.740175009
vt 0.836079001 0.740176022
vt 0.836079001 0.740176022
vt 0.836077988 0.740173995
vt 0.836079001 0.740176022
vt 0.836080015 0.740176022
vt 0.573719978 0.199414
vt 0.572255015 0.198699996
vt 0.594784975 0.201017007
vt 0.595570028 0.202301994
vt 0.647964001 0.687160015
vt 0.647937 0.687214017
vt 0.647935987 0.687210023
vt 0.64796102 0.687161028
vt 0.651441991 0.281989008
vt 0.652787983 0.282092988
vt 0.65219003 0.280607015
vt 0.652113974 0.279785991
vt 0.647894025 0.687186003
vt 0.647886992 0.687183976
vt 0.647894979 0.687186003
vt 0.647902012 0.687184989
vt 0.64796102 0.687161028
vt 0.64795202 0.687150002
vt 0.647952974 0.687147021
vt 0.647964001 0.687160015
vt 0.647962987 0.687153995
vt 0.647956014 0.687143981
vt 0.647958994 0.687139988
vt 0.647966981 0.687151015
vt 0.64793098 0.687216997
vt 0.647916973 0.687207997
vt 0.647917986 0.687204003
vt 0.64793098 0.68721199
vt 0.647953987 0.687143028
vt 0.647937 0.687137008
vt 0.647934973 0.687129021
vt 0.647957027 0.687138975
vt 0.647913992 0.68720597
vt 0.647894025 0.687186003
vt 0.647902012 0.687184989
vt 0.647916973 0.687201977
vt 0.0889239982 0.760931015
vt 0.109559 0.701837003
vt 0.108914003 0.701318979
vt 0.0888959989 0.760942996
vt 0.647966981 0.687151015
vt 0.647951007 0.687147021
vt 0.64795202 0.687147021
vt 0.647962987 0.687153995
vt 0.647916973 0.687201977
vt 0.647907019 0.687192976
vt 0.647904992 0.687192976
vt 0.647913992 0.68720597
vt 0.64793098 0.68721199
vt 0.647918999 0.687201977
vt 0.647917986 0.687201977
vt 0.64793098 0.687216997
vt 0.647956014 0.687143981
vt 0.64794302 0.687139988
vt 0.647942007 0.687138021
vt 0.647958994 0.687139988
vt 0.647937 0.687214017
vt 0.647918999 0.687204003
vt 0.647921026 0.68720299
vt 0.647935987 0.687210023
vt 0.647916973 0.687207997
vt 0.647907019 0.68719399
vt 0.647907972 0.68719399
vt 0.647917986 0.687204003
vt 0.647937 0.687137008
vt 0.647933006 0.687130988
vt 0.647929013 0.687125027
vt 0.647934973 0.687129021
vt 0.647957027 0.687138975
vt 0.647940993 0.687138021
vt 0.647940993 0.687138975
vt 0.647953987 0.687143028
vt 0.907082975 0.735566974
vt 0.907082021 0.735567987
vt 0.907079995 0.735570014
vt 0.907079995 0.735571027
vt 0.839769006 0.751893997
vt 0.839769006 0.751893997
vt 0.836077988 0.740172029
vt 0.836077988 0.740172029
vt 0.907083988 0.735567987
vt 0.907081008 0.73557198
vt 0.907081008 0.73557198
vt 0.907081008 0.73557198
vt 0.907082021 0.735572994
vt 0.907083988 0.735567987
vt 0.907083988 0.735567987
vt 0.907083988 0.735567987
vt 0.907082021 0.735572994
vt 0.907082021 0.735572994
vt 0.907082021 0.73557198
vt 0.907083988 0.735569
vt 0.907083988 0.735567987
vt 0.64795202 0.687147021
vt 0.647951007 0.687147021
vt 0.647942007 0.687138021
vt 0.64794302 0.687139988
vt 0.647933006 0.687130988
vt 0.647940993 0.687138975
vt 0.647940993 0.687138021
vt 0.647929013 0.687125027
vt 0.647921026 0.68720299
vt 0.647918999 0.687204003
vt 0.647952974 0.687147021
vt 0.64795202 0.687150002
vt 0.647917986 0.687201977
vt 0.647918999 0.687201977
vt 0.647907972 0.68719399
vt 0.647907019 0.68719399
vt 0.647904992 0.687192976
vt 0.647907019 0.687192976
vt 0.647894979 0.687186003
vt 0.647886992 0.687183976
vt 0.652215004 0.821478009
vt 0.652227998 0.821413994
vt 0.621263981 0.721858978
vt 0.621263981 0.721861005
vt 0.369619995 0.141174003
vt 0.369625002 0.141191006
vt 0.36965701 0.141138002
vt 0.369646013 0.141129002
vt 0.369639009 0.141122997
vt 0.369646013 0.141136006
vt 0.0890109986 0.760927022
vt 0.0890100002 0.760924995
vt 0.0889490023 0.760876
vt 0.0889939964 0.760903001
vt 0.0889479965 0.76087898
vt 0.0890019983 0.760914028
vt 0.109665997 0.701425016
vt 0.0889469981 0.760881007
vt 0.0888959989 0.760942996
vt 0.108914003 0.701318979
vt 0.378506005 0.842118025
vt 0.378562987 0.842042029
vt 0.378623992 0.842091024
vt 0.378583997 0.842151999
vt 0.870009005 0.205997005
vt 0.869854987 0.205390006
vt 0.868825972 0.204679996
vt 0.869390011 0.205677003
vt 0.89981699 0.261808991
vt 0.91594398 0.236300007
vt 0.915060997 0.235183001
vt 0.89456898 0.262066007
vt 0.846689999 0.227552995
vt 0.869854987 0.205390006
vt 0.846445978 0.228128001
vt 0.87016499 0.206056997
vt 0.652289987 0.821349025
vt 0.621272027 0.721855998
vt 0.621271014 0.721855998
vt 0.652283013 0.821358979
vt 0.0889419988 0.760975003
vt 0.0889289975 0.760969996
vt 0.0888950005 0.760945976
vt 0.0888959989 0.760942996
vt 0.0889469981 0.760881007
vt 0.0889419988 0.76097703
vt 0.0889479965 0.76087898
vt 0.0889599994 0.760981977
vt 0.0889580026 0.760981023
vt 0.0889730006 0.760986984
vt 0.088973999 0.760987997
vt 0.0889939964 0.760903001
vt 0.088992998 0.760903001
vt 0.0890109986 0.760927022
vt 0.089011997 0.760927975
vt 0.0890029967 0.760915995
vt 0.0890019983 0.760914028
vt 0.114798002 0.321938992
vt 0.114804 0.321936011
vt 0.114802003 0.321920007
vt 0.114822999 0.321963012
vt 0.114827 0.321904004
vt 0.114826001 0.321960986
vt 0.114812002 0.321907014
vt 0.114822 0.321933001
vt 0.114827 0.321898013
vt 0.114827 0.321931005
vt 0.11485 0.321913004
vn 1.000000 0.000000 0.000000
vn 1.000000 0.000000 0.000000
vn 1.000000 0.000000 0.000000
vn 1.000000 0.000000 0.000000
vn 1.000000 0.000000 0.000000
vn 1.000000 0.000000 0.000000
vn 1.000000 0.000000 0.000000
vn 1.000000 0.000000 0.000000
vn 1.000000 0.000000 0.000000
vn 1.000000 0.000000 0.000000
vn 1.000000 0.000000 0.000000
vn 1.000000 0.000000 0.000000
vn 1.000000 0.000000 0.000000
vn 1.000000 0.000000 0.000000
vn 0.000000 -1.000000 0.000000
vn 0.000000 -1.000000 0.000000
vn 0.000000 -1.000000 0.000000
vn 0.000000 -1.000000 0.000000
vn 0.000000 -1.000000 0.000000
vn 0.000000 -1.000000 0.000000
vn 0.000000 1.000000 -0.000000
vn 0.000000 1.000000 -0.000000
vn 0.000000 1.000000 -0.000000
vn 0.000000 1.000000 -0.000000
vn 0.000000 1.000000 -0.000000
vn 0.000000 1.000000 -0.000000
vn 1.000000 0.000000 0.000000
vn 1.000000 0.000000 0.000000
vn 1.000000 0.000000 0.000000
vn 1.000000 0.000000 0.000000
vn 1.000000 0.000000 0.000000
vn 1.000000 0.000000 0.000000
vn 1.000000 0.000000 0.000000
vn 1.000000 0.000000 0.000000
vn 1.000000 0.000000 0.000000
vn 0.000000 -1.000000 0.000000
vn 0.000000 -1.000000 0.000000
vn 0.000000 -1.000000 0.000000
vn 0.000000 -1.000000 0.000000
vn 0.000000 -1.000000 0.000000
vn 0.000000 -1.000000 0.000000
vn 0.000000 0.000000 1.000000
vn 0.000000 0.000000 1.000000
vn 0.000000 0.000000 1.000000
vn 0.000000 0.000000 1.000000
vn 0.000000 0.000000 1.000000
vn 0.000000 0.000000 1.000000
vn 0.000000 0.000000 1.000000
vn 0.000000 0.000000 1.000000
vn 0.000000 0.000000 1.000000
vn 0.000000 0.000000 1.000000
vn 0.000000 0.000000 1.000000
vn 0.000000 0.000000 1.000000
vn 0.000000 0.000000 1.000000
vn 0.000000 0.000000 1.000000
vn 0.000000 0.000000 1.000000
vn 0.000000 0.000000 1.000000
vn 0.000000 0.000000 1.000000
vn 0.000000 0.000000 1.000000
vn 0.000000 0.000000 1.000000
vn 0.000000 0.000000 1.000000
vn 0.000000 0.000000 1.000000
vn 0.000000 0.000000 1.000000
vn 0.000000 0.000000 1.000000
vn 0.000000 0.000000 1.000000
vn 0.000000 0.000000 1.000000
vn 0.000000 0.000000 1.000000
vn 0.000000 0.000000 1.000000
vn 0.000000 0.000000 1.000000
vn 0.000000 0.000000 1.000000
vn 0.000000 0.000000 1.000000
vn 0.000000 0.000000 1.000000
vn 0.000000 0.000000 1.000000
vn 0.000000 0.000000 1.000000
vn 0.000000 0.000000 1.000000
vn 0.000000 0.000000 1.000000
vn -0.230696 0.000000 0.973026
vn 0.000000 0.000000 1.000000
vn 0.000000 0.000000 1.000000
vn 0.000000 0.000000 1.000000
vn 0.000000 0.000000 1.000000
vn 0.000000 0.000000 1.000000
vn 0.000000 0.000000 1.000000
vn 0.000000 0.000000 1.000000
vn 0.000000 0.000000 1.000000
vn 0.000000 0.000000 1.000000
vn 0.000000 0.000000 1.000000
vn 0.000000 0.000000 1.000000
vn 0.000000 0.000000 1.000000
vn 0.000000 0.000000 1.000000
vn 0.000000 0.000000 1.000000
vn 0.000000 0.000000 1.000000
vn 0.000000 0.000000 1.000000
vn 0.000000 0.000000 1.000000
vn 0.000000 0.000000 1.000000
vn 0.000000 0.000000 1.000000
vn 0.000000 0.000000 1.000000
vn 0.000000 0.000000 1.000000
vn 0.000000 0.000000 1.000000
vn -0.230696 0.000000 0.973026
vn -0.230696 0.000000 0.973026
vn -1.000000 0.000000 0.000000
vn -1.000000 0.000000 0.000000
vn -1.000000 0.000000 0.000000
vn -1.000000 0.000000 0.000000
vn -1.000000 0.000000 0.000000
vn -1.000000 0.000000 0.000000
vn 0.000000 -1.000000 0.000000
vn 0.000000 -1.000000 0.000000
vn 0.000000 -1.000000 0.000000
vn 0.000000 -1.000000 0.000000
vn 0.000000 -1.000000 0.000000
vn 0.000000 -1.000000 0.000000
vn 0.000000 -0.000000 -1.000000
vn 0.000000 -0.000000 -1.000000
vn 0.000000 -0.000000 -1.000000
vn 0.000000 -0.000000 -1.000000
vn 0.000000 -0.000000 -1.000000
vn 0.000000 -0.000000 -1.000000
vn 1.000000 0.000000 0.000000
vn 1.000000 0.000000 0.000000
vn 1.000000 0.000000 0.000000
vn -0.169300 0.985565 -0.000000
vn 0.000000 1.000000 -0.000000
vn 0.114084 0.993471 -0.000000
vn -1.000000 0.000000 0.000000
vn -1.000000 0.000000 0.000000
vn -1.000000 0.000000 0.000000
vn -1.000000 0.000000 0.000000
vn -1.000000 0.000000 0.000000
vn -1.000000 0.000000 0.000000
vn 0.983954 -0.000000 -0.178425
vn 1.000000 0.000000 0.000000
vn 1.000000 0.000000 0.000000
vn 0.983954 -0.000000 -0.178425
vn 1.000000 0.000000 0.000000
vn 0.983954 -0.000000 -0.178425
vn 0.000000 1.000000 -0.000000
vn 0.000000 1.000000 -0.000000
vn 0.000000 1.000000 -0.000000
vn 0.000000 1.000000 -0.000000
vn 0.000000 1.000000 -0.000000
vn 0.000000 1.000000 -0.000000
vn 0.000000 1.000000 -0.000000
vn 0.000000 1.000000 -0.000000
vn 0.000000 1.000000 -0.000000
vn 0.000000 1.000000 -0.000000
vn 0.000000 1.000000 -0.000000
vn 0.000000 1.000000 -0.000000
vn 0.000000 0.000000 1.000000
vn 0.000000 0.000000 1.000000
vn 0.000000 0.000000 1.000000
vn 0.000000 0.000000 1.000000
vn 0.000000 0.000000 1.000000
vn 0.000000 0.000000 1.000000
vn 0.000000 0.000000 1.000000
vn 0.000000 0.000000 1.000000
vn 0.000000 0.000000 1.000000
vn 0.000000 0.000000 1.000000
vn 0.000000 0.000000 1.000000
vn 0.000000 0.000000 1.000000
vn 0.000000 0.000000 1.000000
vn 0.000000 0.000000 1.000000
vn 0.000000 0.000000 1.000000
vn 0.000000 0.000000 1.000000
vn 0.000000 0.000000 1.000000
vn 0.000000 0.000000 1.000000
vn 0.000000 0.000000 1.000000
vn 0.000000 0.000000 1.000000
vn 0.000000 0.000000 1.000000
vn 0.000000 0.000000 1.000000
vn 0.000000 0.000000 1.000000
vn 0.000000 0.000000 1.000000
vn 0.000000 0.000000 1.000000
vn 0.000000 0.000000 1.000000
vn 0.000000 0.000000 1.000000
vn 0.000000 0.000000 1.000000
vn 0.000000 0.000000 1.000000
vn 0.000000 -1.000000 0.000000
vn 0.152697 -0.988273 0.000000
vn -0.132205 -0.991222 0.000000
vn 0.000000 1.000000 -0.000000
vn 0.000000 1.000000 -0.000000
vn 0.000000 1.000000 -0.000000
vn 0.180189 0.983632 -0.000000
vn 0.000000 1.000000 -0.000000
vn -0.122552 0.992462 -0.000000
vn 0.000000 1.000000 -0.000000
vn 0.000000 1.000000 -0.000000
vn 0.000000 1.000000 -0.000000
vn -0.963823 -0.000000 -0.266544
vn -0.983954 -0.000000 -0.178425
vn -0.936329 -0.000000 -0.351124
vn -0.217876 0.971057 -0.097871
vn -0.303615 0.943606 -0.132005
vn -0.323723 0.943775 -0.067017
vn -0.181634 0.956505 -0.228269
vn -0.217876 0.971057 -0.097871
vn -0.216750 0.950743 -0.221602
vn 0.000000 -0.000000 -1.000000
vn 0.000000 -0.000000 -1.000000
vn 0.000000 -0.000000 -1.000000
vn 0.000000 -0.000000 -1.000000
vn -0.227297 -0.947860 -0.223378
vn -0.442706 -0.875765 -0.192478
vn -0.472726 -0.875758 -0.097863
vn -0.194962 -0.976616 -0.090615
vn 0.170814 -0.972246 -0.159875
vn 0.496704 -0.862223 -0.099282
vn 0.486358 -0.851127 -0.197583
vn 0.251246 -0.940842 -0.227359
vn -0.144104 -0.962480 -0.229926
vn -0.227297 -0.947860 -0.223378
vn -0.194962 -0.976616 -0.090615
vn -0.181634 0.956505 -0.228269
vn -0.216750 0.950743 -0.221602
vn 0.174987 0.955926 -0.235765
vn 0.178851 0.976673 -0.118841
vn 0.518151 0.849361 -0.100525
vn 0.508489 0.837512 -0.200031
vn 0.178851 0.976673 -0.118841
vn -0.244044 0.963108 -0.113429
vn -0.181634 0.956505 -0.228269
vn -0.303615 0.943606 -0.132005
vn -0.323723 0.943775 -0.067017
vn 0.000000 1.000000 -0.000000
vn 0.000000 1.000000 -0.000000
vn 0.000000 1.000000 -0.000000
vn 0.000000 1.000000 -0.000000
vn -1.000000 0.000000 0.000000
vn -1.000000 0.000000 0.000000
vn -1.000000 0.000000 0.000000
vn -1.000000 0.000000 0.000000
vn 1.000000 0.000000 0.000000
vn 1.000000 0.000000 0.000000
vn 1.000000 0.000000 0.000000
vn 1.000000 0.000000 0.000000
vn 1.000000 0.000000 0.000000
vn 1.000000 0.000000 0.000000
vn 1.000000 0.000000 0.000000
vn 1.000000 0.000000 0.000000
vn 1.000000 0.000000 0.000000
vn 1.000000 0.000000 0.000000
vn 1.000000 0.000000 0.000000
vn 0.229753 0.973249 -0.000000
vn 0.447214 0.894427 -0.000000
vn 0.447214 0.894427 -0.000000
vn 0.114084 0.993471 -0.000000
vn -0.169300 0.985565 -0.000000
vn -0.169300 0.985565 -0.000000
vn -0.493013 0.870022 -0.000000
vn -0.493013 0.870022 -0.000000
vn 0.000000 1.000000 -0.000000
vn 0.000000 1.000000 -0.000000
vn 0.000000 1.000000 -0.000000
vn 0.000000 1.000000 -0.000000
vn 0.000000 1.000000 -0.000000
vn 0.000000 1.000000 -0.000000
vn 0.000000 1.000000 -0.000000
vn 0.000000 1.000000 -0.000000
vn 0.000000 1.000000 -0.000000
vn 0.000000 1.000000 -0.000000
vn 0.000000 1.000000 -0.000000
vn 0.000000 1.000000 -0.000000
vn 0.000000 1.000000 -0.000000
vn 0.000000 1.000000 -0.000000
vn 0.000000 1.000000 -0.000000
vn 0.000000 0.000000 1.000000
vn 0.000000 0.000000 1.000000
vn 0.000000 0.000000 1.000000
vn 0.000000 0.000000 1.000000
vn 0.000000 0.000000 1.000000
vn 0.000000 0.000000 1.000000
vn 0.000000 0.000000 1.000000
vn 0.000000 0.000000 1.000000
vn 0.000000 0.000000 1.000000
vn 0.000000 0.000000 1.000000
vn 0.000000 0.000000 1.000000
vn 0.000000 0.000000 1.000000
vn 0.000000 0.000000 1.000000
vn 0.000000 0.000000 1.000000
vn 0.000000 0.000000 1.000000
vn 0.000000 0.000000 1.000000
vn 0.000000 0.000000 1.000000
vn 0.000000 0.000000 1.000000
vn 0.000000 1.000000 -0.000000
vn 0.000000 1.000000 -0.000000
vn 0.000000 1.000000 -0.000000
vn 0.000000 1.000000 -0.000000
vn 0.000000 0.000000 1.000000
vn 0.000000 0.000000 1.000000
vn 0.000000 0.000000 1.000000
vn 0.000000 0.000000 1.000000
vn 0.000000 1.000000 -0.000000
vn 0.000000 1.000000 -0.000000
vn 0.000000 1.000000 -0.000000
vn 0.000000 1.000000 -0.000000
vn 0.000000 1.000000 -0.000000
vn 0.000000 1.000000 -0.000000
vn 0.000000 1.000000 -0.000000
vn 0.000000 1.000000 -0.000000
vn 0.000000 1.000000 -0.000000
vn 0.000000 1.000000 -0.000000
vn 0.000000 1.000000 -0.000000
vn 0.000000 1.000000 -0.000000
vn 0.000000 1.000000 -0.000000
vn 0.000000 1.000000 -0.000000
vn 0.000000 -1.000000 0.000000
vn 0.000000 -1.000000 0.000000
vn 0.000000 -1.000000 0.000000
vn 0.000000 -1.000000 0.000000
vn 0.000000 -1.000000 0.000000
vn 0.000000 -1.000000 0.000000
vn 0.000000 -1.000000 0.000000
vn 0.000000 -1.000000 0.000000
vn 0.000000 -1.000000 0.000000
vn 0.000000 -1.000000 0.000000
vn 0.000000 -1.000000 0.000000
vn 0.000000 -1.000000 0.000000
vn 0.000000 -1.000000 0.000000
vn 0.000000 -1.000000 0.000000
vn 0.000000 -1.000000 0.000000
vn 0.000000 -1.000000 0.000000
vn 0.000000 -1.000000 0.000000
vn 0.000000 1.000000 -0.000000
vn 0.000000 1.000000 -0.000000
vn 0.000000 1.000000 -0.000000
vn 0.000000 1.000000 -0.000000
vn 0.000000 1.000000 -0.000000
vn 0.000000 -1.000000 0.000000
vn 0.000000 -1.000000 0.000000
vn 0.000000 -1.000000 0.000000
vn 0.000000 -1.000000 0.000000
vn 0.000000 -1.000000 0.000000
vn 0.000000 -1.000000 0.000000
vn 0.000000 -1.000000 0.000000
vn 0.000000 -1.000000 0.000000
vn 0.000000 -1.000000 0.000000
vn 0.000000 -1.000000 0.000000
vn 0.000000 1.000000 -0.000000
vn 0.000000 1.000000 -0.000000
vn 0.000000 1.000000 -0.000000
vn 0.000000 1.000000 -0.000000
vn 0.000000 1.000000 -0.000000
vn 0.000000 1.000000 -0.000000
vn 0.000000 1.000000 -0.000000
vn 0.000000 1.000000 -0.000000
vn 0.000000 1.000000 -0.000000
vn 0.000000 1.000000 -0.000000
vn 0.000000 1.000000 -0.000000
vn 0.000000 1.000000 -0.000000
vn 0.000000 1.000000 -0.000000
vn 0.000000 1.000000 -0.000000
vn 0.000000 1.000000 -0.000000
vn 0.000000 1.000000 -0.000000
vn 0.000000 1.000000 -0.000000
vn 0.000000 1.000000 -0.000000
vn 0.000000 1.000000 -0.000000
vn 0.000000 1.000000 -0.000000
vn 0.000000 1.000000 -0.000000
vn 0.000000 1.000000 -0.000000
vn 0.000000 1.000000 -0.000000
vn 0.000000 1.000000 -0.000000
vn 0.000000 1.000000 -0.000000
vn 0.000000 1.000000 -0.000000
vn 0.000000 1.000000 -0.000000
vn 0.000000 1.000000 -0.000000
vn 0.000000 1.000000 -0.000000
vn -1.000000 0.000000 0.000000
vn -1.000000 0.000000 0.000000
vn -1.000000 0.000000 0.000000
vn -1.000000 0.000000 0.000000
vn 0.000000 1.000000 -0.000000
vn 0.000000 1.000000 -0.000000
vn 0.000000 1.000000 -0.000000
vn 0.000000 1.000000 -0.000000
vn 0.000000 1.000000 -0.000000
vn 0.000000 1.000000 -0.000000
vn 0.000000 1.000000 -0.000000
vn 0.000000 1.000000 -0.000000
vn 0.000000 -1.000000 0.000000
vn 0.000000 -1.000000 0.000000
vn 0.000000 -1.000000 0.000000
vn 0.000000 -1.000000 0.000000
vn 0.000000 -1.000000 0.000000
vn 0.000000 -1.000000 0.000000
vn 0.000000 -1.000000 0.000000
vn 0.000000 -1.000000 0.000000
vn 0.000000 -1.000000 0.000000
vn 1.000000 0.000000 0.000000
vn 1.000000 0.000000 0.000000
vn 1.000000 0.000000 0.000000
vn 1.000000 0.000000 0.000000
vn -0.323723 0.943775 -0.067017
vn -0.122552 0.992462 -0.000000
vn -0.478852 0.877896 -0.000000
vn -0.244044 0.963108 -0.113429
vn 0.178851 0.976673 -0.118841
vn 0.180189 0.983632 -0.000000
vn 0.522562 0.852601 -0.000000
vn 0.518151 0.849361 -0.100525
vn 0.000000 -0.000000 -1.000000
vn 0.000000 -0.000000 -1.000000
vn 0.000000 -0.000000 -1.000000
vn 0.000000 -0.000000 -1.000000
vn 0.000000 -0.000000 -1.000000
vn 1.000000 0.000000 0.000000
vn 1.000000 0.000000 0.000000
vn 1.000000 0.000000 0.000000
vn 1.000000 0.000000 0.000000
vn 1.000000 0.000000 0.000000
vn 1.000000 0.000000 0.000000
vn 1.000000 0.000000 0.000000
vn 1.000000 0.000000 0.000000
vn 1.000000 0.000000 0.000000
vn 1.000000 0.000000 0.000000
vn 1.000000 0.000000 0.000000
vn 0.998208 -0.000000 -0.059843
vn 0.998208 -0.000000 -0.059843
vn 0.998993 -0.000000 -0.044857
vn 0.998208 -0.000000 -0.059843
vn 0.995959 -0.000000 -0.089806
vn 0.995959 -0.000000 -0.089806
vn 0.998208 -0.000000 -0.059843
vn 1.000000 0.000000 0.000000
vn 0.995959 -0.000000 -0.089806
vn 1.000000 0.000000 0.000000
vn 0.447214 -0.894427 0.000000
vn 0.447214 -0.894427 0.000000
vn 0.229753 -0.973249 0.000000
vn 0.152697 -0.988273 0.000000
vn -0.132205 -0.991222 0.000000
vn -0.266934 -0.963715 0.000000
vn 0.000000 -1.000000 0.000000
vn -0.514496 -0.857493 0.000000
vn -0.514496 -0.857493 0.000000
vn 0.000000 -1.000000 0.000000
vn 0.000000 -1.000000 0.000000
vn 0.000000 -1.000000 0.000000
vn 0.000000 -1.000000 0.000000
vn 0.000000 -0.000000 -1.000000
vn 0.000000 -0.000000 -1.000000
vn 0.000000 -0.000000 -1.000000
vn 0.000000 -0.000000 -1.000000
vn 0.000000 1.000000 -0.000000
vn 0.000000 1.000000 -0.000000
vn 0.000000 1.000000 -0.000000
vn 0.000000 1.000000 -0.000000
vn -1.000000 0.000000 0.000000
vn -1.000000 0.000000 0.000000
vn -1.000000 0.000000 0.000000
vn -1.000000 0.000000 0.000000
vn -1.000000 0.000000 0.000000
vn -1.000000 0.000000 0.000000
vn -1.000000 0.000000 0.000000
vn -1.000000 0.000000 0.000000
vn -1.000000 0.000000 0.000000
vn 1.000000 0.000000 0.000000
vn 1.000000 0.000000 0.000000
vn 1.000000 0.000000 0.000000
vn 1.000000 0.000000 0.000000
vn -1.000000 0.000000 0.000000
vn -1.000000 0.000000 0.000000
vn -1.000000 0.000000 0.000000
vn -1.000000 0.000000 0.000000
vn -1.000000 0.000000 0.000000
vn -1.000000 0.000000 0.000000
vn -1.000000 0.000000 0.000000
vn -1.000000 0.000000 0.000000
vn -1.000000 0.000000 0.000000
vn -1.000000 0.000000 0.000000
vn -0.230696 0.000000 0.973026
vn -0.230696 0.000000 0.973026
vn -0.230696 0.000000 0.973026
vn -0.136128 0.000000 0.990691
vn 0.000000 -1.000000 0.000000
vn 0.000000 -1.000000 0.000000
vn 0.000000 -1.000000 0.000000
vn 0.000000 -1.000000 0.000000
vn 0.000000 -1.000000 0.000000
vn 0.000000 -1.000000 0.000000
vn 0.000000 -1.000000 0.000000
vn 0.000000 -1.000000 0.000000
vn 0.000000 -1.000000 0.000000
vn 0.000000 -1.000000 0.000000
vn 0.000000 -1.000000 0.000000
vn 0.000000 -1.000000 0.000000
vn 0.000000 -1.000000 0.000000
vn 0.000000 -1.000000 0.000000
vn 0.000000 -1.000000 0.000000
vn 0.000000 -1.000000 0.000000
vn 0.000000 -1.000000 0.000000
vn 0.000000 -1.000000 0.000000
vn 0.000000 -1.000000 0.000000
vn 0.000000 -1.000000 0.000000
vn 0.000000 -1.000000 0.000000
vn 0.000000 -1.000000 0.000000
vn 0.000000 -1.000000 0.000000
vn 0.000000 1.000000 -0.000000
vn 0.000000 1.000000 -0.000000
vn 0.000000 1.000000 -0.000000
vn 0.000000 1.000000 -0.000000
vn 0.000000 -0.000000 -1.000000
vn 0.000000 -0.000000 -1.000000
vn 0.000000 -0.000000 -1.000000
vn 0.000000 -0.000000 -1.000000
vn 0.000000 -0.000000 -1.000000
vn 0.000000 -0.000000 -1.000000
vn 0.000000 -0.000000 -1.000000
vn 0.000000 -0.000000 -1.000000
vn 0.000000 -0.000000 -1.000000
vn 0.000000 -0.000000 -1.000000
vn 0.000000 -0.000000 -1.000000
vn 0.000000 -0.000000 -1.000000
vn 0.000000 -0.000000 -1.000000
vn 0.000000 -0.000000 -1.000000
vn 0.000000 -0.000000 -1.000000
vn 0.000000 -0.000000 -1.000000
vn 0.000000 -0.000000 -1.000000
vn 0.000000 -0.000000 -1.000000
vn 0.000000 -0.000000 -1.000000
vn 0.000000 -0.000000 -1.000000
vn 0.000000 -0.000000 -1.000000
vn 0.000000 -0.000000 -1.000000
vn 0.000000 1.000000 -0.000000
vn 0.000000 1.000000 -0.000000
vn 0.000000 1.000000 -0.000000
vn 0.000000 1.000000 -0.000000
vn 0.000000 1.000000 -0.000000
vn 0.000000 1.000000 -0.000000
vn -0.194962 -0.976616 -0.090615
vn -0.472726 -0.875758 -0.097863
vn -0.478852 -0.877896 0.000000
vn -0.247087 -0.968993 0.000000
vn 0.172646 -0.984984 0.000000
vn 0.170814 -0.972246 -0.159875
vn 0.496704 -0.862223 -0.099282
vn 0.502135 -0.864789 0.000000
vn 0.000000 1.000000 -0.000000
vn 0.000000 1.000000 -0.000000
vn 0.000000 1.000000 -0.000000
vn 0.000000 1.000000 -0.000000
vn 0.000000 1.000000 -0.000000
vn 0.000000 1.000000 -0.000000
vn 0.000000 1.000000 -0.000000
vn 0.000000 1.000000 -0.000000
vn 0.000000 1.000000 -0.000000
vn -1.000000 0.000000 0.000000
vn -1.000000 0.000000 0.000000
vn -0.983954 -0.000000 -0.178425
vn -0.963823 -0.000000 -0.266544
vn 0.000000 0.000000 1.000000
vn 0.000000 0.000000 1.000000
vn 0.000000 0.000000 1.000000
vn 0.000000 0.000000 1.000000
vn -1.000000 0.000000 0.000000
vn -1.000000 0.000000 0.000000
vn -1.000000 0.000000 0.000000
vn -1.000000 0.000000 0.000000
vn 1.000000 0.000000 0.000000
vn 1.000000 0.000000 0.000000
vn 1.000000 0.000000 0.000000
vn 1.000000 0.000000 0.000000
vn 0.000000 -1.000000 0.000000
vn 0.000000 -1.000000 0.000000
vn 0.000000 -1.000000 0.000000
vn 0.000000 -1.000000 0.000000
vn 0.000000 0.000000 1.000000
vn 0.000000 0.000000 1.000000
vn 0.000000 0.000000 1.000000
vn 0.000000 0.000000 1.000000
vn 0.000000 0.000000 1.000000
vn 0.000000 0.000000 1.000000
vn 0.000000 0.000000 1.000000
vn 0.000000 0.000000 1.000000
vn 0.000000 0.000000 1.000000
vn 0.000000 0.000000 1.000000
vn 0.000000 0.000000 1.000000
vn 0.000000 0.000000 1.000000
vn 0.000000 0.000000 1.000000
vn 0.000000 0.000000 1.000000
vn 0.000000 0.000000 1.000000
vn 0.000000 0.000000 1.000000
vn 0.000000 -1.000000 0.000000
vn 0.000000 -1.000000 0.000000
vn 0.000000 -1.000000 0.000000
vn 0.000000 -1.000000 0.000000
vn -1.000000 0.000000 0.000000
vn -1.000000 0.000000 0.000000
vn -1.000000 0.000000 0.000000
vn -1.000000 0.000000 0.000000
vn -1.000000 0.000000 0.000000
vn -1.000000 0.000000 0.000000
vn -1.000000 0.000000 0.000000
vn -1.000000 0.000000 0.000000
vn -1.000000 0.000000 0.000000
vn -1.000000 0.000000 0.000000
vn -1.000000 0.000000 0.000000
vn -1.000000 0.000000 0.000000
vn 1.000000 0.000000 0.000000
vn 1.000000 0.000000 0.000000
vn 1.000000 0.000000 0.000000
vn 1.000000 0.000000 0.000000
vn 0.000000 1.000000 -0.000000
vn 0.000000 1.000000 -0.000000
vn 0.000000 1.000000 -0.000000
vn 0.000000 1.000000 -0.000000
vn 1.000000 0.000000 0.000000
vn 1.000000 0.000000 0.000000
vn 1.000000 0.000000 0.000000
vn 1.000000 0.000000 0.000000
vn 1.000000 0.000000 0.000000
vn 1.000000 0.000000 0.000000
vn 1.000000 0.000000 0.000000
vn 1.000000 0.000000 0.000000
vn -1.000000 0.000000 0.000000
vn -1.000000 0.000000 0.000000
vn -1.000000 0.000000 0.000000
vn -1.000000 0.000000 0.000000
vn 1.000000 0.000000 0.000000
vn 1.000000 0.000000 0.000000
vn 1.000000 0.000000 0.000000
vn 1.000000 0.000000 0.000000
vn -1.000000 0.000000 0.000000
vn -1.000000 0.000000 0.000000
vn -1.000000 0.000000 0.000000
vn -1.000000 0.000000 0.000000
vn -1.000000 0.000000 0.000000
vn -1.000000 0.000000 0.000000
vn -0.998208 0.000000 0.059843
vn -0.998208 0.000000 0.059843
vn -0.998993 0.000000 0.044857
vn -0.998208 0.000000 0.059843
vn -0.995959 0.000000 0.089806
vn -0.995959 0.000000 0.089806
vn -0.995959 0.000000 0.089806
vn -1.000000 0.000000 0.000000
vn -1.000000 0.000000 0.000000
vn -0.998993 0.000000 0.044857
vn -1.000000 0.000000 0.000000
vn 0.000000 -0.000000 -1.000000
vn 0.000000 -0.000000 -1.000000
vn 0.000000 -0.000000 -1.000000
vn 0.000000 -0.000000 -1.000000
vn 0.000000 -0.000000 -1.000000
vn 0.000000 -0.000000 -1.000000
vn 0.000000 -0.000000 -1.000000
vn 0.000000 -0.000000 -1.000000
vn 0.000000 -0.000000 -1.000000
vn 0.000000 -0.000000 -1.000000
vn 0.000000 -0.000000 -1.000000
vn 0.000000 -0.000000 -1.000000
vn 0.000000 -0.000000 -1.000000
vn 0.000000 -0.000000 -1.000000
vn 0.000000 -0.000000 -1.000000
vn 0.000000 -0.000000 -1.000000
vn 0.000000 -0.000000 -1.000000
vn 0.000000 -0.000000 -1.000000
vn 0.000000 -0.000000 -1.000000
vn 0.000000 -0.000000 -1.000000
vn -1.000000 0.000000 0.000000
vn -1.000000 0.000000 0.000000
vn -1.000000 0.000000 0.000000
vn -1.000000 0.000000 0.000000
vn 0.000000 -0.000000 -1.000000
vn 0.000000 -0.000000 -1.000000
vn 0.000000 -0.000000 -1.000000
vn 0.000000 -0.000000 -1.000000
vn 0.000000 -0.000000 -1.000000
vn 0.000000 -0.000000 -1.000000
vn 0.000000 -1.000000 0.000000
vn 0.000000 -1.000000 0.000000
vn 0.000000 -1.000000 0.000000
vn 0.000000 -1.000000 0.000000
vn 0.000000 -1.000000 0.000000
vn 0.000000 -1.000000 0.000000
vn -1.000000 0.000000 0.000000
vn -1.000000 0.000000 0.000000
vn -1.000000 0.000000 0.000000
vn -1.000000 0.000000 0.000000
vn 0.000000 0.000000 1.000000
vn 0.000000 0.000000 1.000000
vn 0.000000 0.000000 1.000000
vn 0.000000 0.000000 1.000000
vn -0.144104 -0.962480 -0.229926
vn -0.423140 -0.885903 -0.190076
vn -0.442706 -0.875765 -0.192478
vn -0.227297 -0.947860 -0.223378
vn 0.983954 -0.000000 -0.178425
vn 0.936329 -0.000000 -0.351123
vn 0.936329 -0.000000 -0.351123
vn 0.983954 -0.000000 -0.178425
vn -0.936329 -0.000000 -0.351124
vn -0.936329 -0.000000 -0.351123
vn -0.963823 -0.000000 -0.266544
vn -0.936329 -0.000000 -0.351123
vn 0.000000 -1.000000 0.000000
vn 0.000000 -1.000000 0.000000
vn 0.000000 -1.000000 0.000000
vn 0.000000 -1.000000 0.000000
vn -0.054966 0.000000 0.998488
vn 0.000000 0.000000 1.000000
vn 0.000000 0.000000 1.000000
vn 0.000000 0.000000 1.000000
vn 0.000000 0.000000 1.000000
vn -0.082481 0.000000 0.996593
vn 0.000000 0.000000 1.000000
vn -0.054966 0.000000 0.998488
vn -0.082481 0.000000 0.996593
vn 0.000000 0.000000 1.000000
vn 0.000000 0.000000 1.000000
vn -0.054966 0.000000 0.998488
vn -0.082481 0.000000 0.996593
vn 0.000000 0.000000 1.000000
vn 0.000000 0.000000 1.000000
vn -0.054966 0.000000 0.998488
vn -0.082481 0.000000 0.996593
vn 0.000000 0.000000 1.000000
vn 0.000000 0.000000 1.000000
vn 0.000000 0.000000 1.000000
vn 0.000000 0.000000 1.000000
vn 0.000000 0.000000 1.000000
vn 0.000000 0.000000 1.000000
vn 0.000000 0.000000 1.000000
vn -0.230696 0.000000 0.973026
vn 0.000000 0.000000 1.000000
vn -0.136128 0.000000 0.990691
vn 0.000000 0.000000 1.000000
f 3/3/3 2/2/2 1/1/1
f 6/6/6 5/5/5 4/4/4
f 4/4/4 8/8/8 7/7/7
f 8/8/8 9/9/9 7/7/7
f 8/8/8 10/10/10 9/9/9
f 10/10/10 11/11/11 9/9/9
f 14/14/14 13/13/13 12/12/12
f 17/17/17 16/16/16 15/15/15
f 20/20/20 19/19/19 18/18/18
f 23/23/23 22/22/22 21/21/21
f 26/26/26 25/25/25 24/24/24
f 29/29/29 28/28/28 27/27/27
f 32/32/32 31/31/31 30/30/30
f 35/35/35 34/34/34 33/33/33
f 38/38/38 37/37/37 36/36/36
f 41/41/41 40/40/40 39/39/39
f 44/44/44 43/43/43 42/42/42
f 42/42/42 46/46/46 45/45/45
f 48/48/48 45/45/45 47/47/47
f 51/51/51 50/50/50 49/49/49
f 53/53/53 49/49/49 52/52/52
f 52/52/52 49/49/49 54/54/54
f 57/57/57 56/56/56 55/55/55
f 59/59/59 55/55/55 58/58/58
f 61/61/61 60/60/60 58/58/58
f 63/63/63 59/59/59 62/62/62
f 65/65/65 61/61/61 64/64/64
f 66/66/66 65/65/65 64/64/64
f 66/66/66 64/64/64 67/67/67
f 69/69/69 62/62/62 68/68/68
f 69/69/69 68/68/68 70/70/70
f 69/69/69 72/72/72 71/71/71
f 72/72/72 74/74/74 73/73/73
f 72/72/72 73/73/73 75/75/75
f 72/72/72 75/75/75 76/76/76
f 75/75/75 78/78/78 77/77/77
f 75/75/75 79/79/79 78/78/78
f 69/69/69 81/81/81 80/80/80
f 81/81/81 82/82/82 80/80/80
f 84/84/84 80/80/80 83/83/83
f 86/86/86 85/85/85 80/80/80
f 88/88/88 86/86/86 87/87/87
f 89/89/89 88/88/88 87/87/87
f 92/92/92 91/91/91 90/90/90
f 95/95/95 94/94/94 93/93/93
f 98/98/98 97/97/97 96/96/96
f 100/100/100 99/99/99 96/96/96
f 96/96/96 101/101/101 100/100/100
f 104/104/104 103/103/103 102/102/102
f 107/107/107 106/106/106 105/105/105
f 110/110/110 109/109/109 108/108/108
f 113/113/113 112/112/112 111/111/111
f 116/116/116 115/115/115 114/114/114
f 118/118/118 116/116/116 117/117/117
f 118/118/118 117/117/117 119/119/119
f 122/122/122 121/121/121 120/120/120
f 125/125/125 124/124/124 123/123/123
f 128/128/128 127/127/127 126/126/126
f 131/131/131 130/130/130 129/129/129
f 134/134/134 133/133/133 132/132/132
f 137/137/137 136/136/136 135/135/135
f 140/140/140 139/139/139 138/138/138
f 143/143/143 142/142/142 141/141/141
f 146/146/146 145/145/145 144/144/144
f 149/149/149 148/148/148 147/147/147
f 152/152/152 151/151/151 150/150/150
f 155/155/155 154/154/154 153/153/153
f 157/157/157 156/156/156 153/153/153
f 157/157/157 153/153/153 158/158/158
f 158/158/158 159/159/159 157/157/157
f 159/159/159 158/158/158 160/160/160
f 161/161/161 159/159/159 160/160/160
f 162/162/162 161/161/161 160/160/160
f 162/162/162 160/160/160 163/163/163
f 163/163/163 164/164/164 162/162/162
f 167/167/167 166/166/166 165/165/165
f 166/166/166 169/169/169 168/168/168
f 166/166/166 168/168/168 170/170/170
f 171/171/171 166/166/166 170/170/170
f 171/171/171 170/170/170 172/172/172
f 172/172/172 173/173/173 171/171/171
f 173/173/173 172/172/172 174/174/174
f 176/176/176 173/173/173 175/175/175
f 176/176/176 175/175/175 177/177/177
f 178/178/178 176/176/176 177/177/177
f 181/181/181 180/180/180 179/179/179
f 184/184/184 183/183/183 182/182/182
f 187/187/187 186/186/186 185/185/185
f 190/190/190 189/189/189 188/188/188
f 193/193/193 192/192/192 191/191/191
f 196/196/196 195/195/195 194/194/194
f 198/198/198 195/195/195 197/197/197
f 199/199/199 198/198/198 197/197/197
f 202/202/202 201/201/201 200/200/200
f 203/203/203 202/202/202 200/200/200
f 206/206/206 205/205/205 204/204/204
f 207/207/207 206/206/206 204/204/204
f 210/210/210 209/209/209 208/208/208
f 211/211/211 210/210/210 208/208/208
f 212/212/212 211/211/211 208/208/208
f 208/208/208 213/213/213 212/212/212
f 208/208/208 214/214/214 213/213/213
f 217/217/217 216/216/216 215/215/215
f 215/215/215 218/218/218 217/217/217
f 218/218/218 219/219/219 217/217/217
f 219/219/219 220/220/220 217/217/217
f 223/223/223 222/222/222 221/221/221
f 223/223/223 224/224/224 222/222/222
f 224/224/224 225/225/225 222/222/222
f 228/228/228 227/227/227 226/226/226
f 228/228/228 229/229/229 227/227/227
f 232/232/232 231/231/231 230/230/230
f 233/233/233 232/232/232 230/230/230
f 236/236/236 235/235/235 234/234/234
f 236/236/236 234/234/234 237/237/237
f 238/238/238 236/236/236 237/237/237
f 238/238/238 237/237/237 239/239/239
f 240/240/240 238/238/238 239/239/239
f 243/243/243 242/242/242 241/241/241
f 244/244/244 243/243/243 241/241/241
f 247/247/247 246/246/246 245/245/245
f 246/246/246 248/248/248 245/245/245
f 249/249/249 245/245/245 248/248/248
f 248/248/248 250/250/250 249/249/249
f 249/249/249 250/250/250 251/251/251
f 250/250/250 252/252/252 251/251/251
f 255/255/255 254/254/254 253/253/253
f 253/253/253 256/256/256 255/255/255
f 257/257/257 255/255/255 256/256/256
f 256/256/256 258/258/258 257/257/257
f 253/253/253 259/259/259 256/256/256
f 256/256/256 260/260/260 258/258/258
f 253/253/253 261/261/261 259/259/259
f 262/262/262 260/260/260 261/261/261
f 260/260/260 262/262/262 258/258/258
f 261/261/261 263/263/263 262/262/262
f 253/253/253 263/263/263 261/261/261
f 262/262/262 264/264/264 258/258/258
f 258/258/258 264/264/264 265/265/265
f 253/253/253 265/265/265 263/263/263
f 265/265/265 266/266/266 258/258/258
f 253/253/253 266/266/266 265/265/265
f 253/253/253 267/267/267 266/266/266
f 270/270/270 269/269/269 268/268/268
f 268/268/268 271/271/271 270/270/270
f 268/268/268 272/272/272 271/271/271
f 272/272/272 273/273/273 271/271/271
f 272/272/272 274/274/274 273/273/273
f 272/272/272 275/275/275 274/274/274
f 278/278/278 277/277/277 276/276/276
f 276/276/276 279/279/279 278/278/278
f 278/278/278 279/279/279 280/280/280
f 280/280/280 281/281/281 278/278/278
f 284/284/284 283/283/283 282/282/282
f 282/282/282 285/285/285 284/284/284
f 288/288/288 287/287/287 286/286/286
f 287/287/287 289/289/289 286/286/286
f 292/292/292 291/291/291 290/290/290
f 290/290/290 293/293/293 292/292/292
f 296/296/296 295/295/295 294/294/294
f 295/295/295 297/297/297 294/294/294
f 300/300/300 299/299/299 298/298/298
f 298/298/298 301/301/301 300/300/300
f 304/304/304 303/303/303 302/302/302
f 303/303/303 304/304/304 305/305/305
f 303/303/303 305/305/305 306/306/306
f 306/306/306 307/307/307 303/303/303
f 310/310/310 309/309/309 308/308/308
f 308/308/308 311/311/311 310/310/310
f 312/312/312 311/311/311 308/308/308
f 312/312/312 308/308/308 313/313/313
f 312/312/312 314/314/314 311/311/311
f 313/313/313 315/315/315 312/312/312
f 315/315/315 313/313/313 316/316/316
f 317/317/317 315/315/315 316/316/316
f 311/311/311 314/314/314 318/318/318
f 314/314/314 319/319/319 318/318/318
f 318/318/318 319/319/319 320/320/320
f 321/321/321 318/318/318 320/320/320
f 321/321/321 320/320/320 322/322/322
f 317/317/317 321/321/321 322/322/322
f 317/317/317 322/322/322 323/323/323
f 323/323/323 324/324/324 317/317/317
f 327/327/327 326/326/326 325/325/325
f 326/326/326 328/328/328 325/325/325
f 328/328/328 329/329/329 325/325/325
f 332/332/332 331/331/331 330/330/330
f 332/332/332 330/330/330 333/333/333
f 332/332/332 333/333/333 334/334/334
f 330/330/330 335/335/335 333/333/333
f 330/330/330 336/336/336 335/335/335
f 337/337/337 333/333/333 335/335/335
f 335/335/335 338/338/338 337/337/337
f 337/337/337 339/339/339 333/333/333
f 342/342/342 341/341/341 340/340/340
f 340/340/340 343/343/343 342/342/342
f 346/346/346 345/345/345 344/344/344
f 346/346/346 347/347/347 345/345/345
f 346/346/346 348/348/348 347/347/347
f 346/346/346 349/349/349 348/348/348
f 348/348/348 349/349/349 350/350/350
f 351/351/351 348/348/348 350/350/350
f 352/352/352 351/351/351 350/350/350
f 350/350/350 353/353/353 352/352/352
f 354/354/354 353/353/353 350/350/350
f 350/350/350 355/355/355 354/354/354
f 346/346/346 356/356/356 349/349/349
f 355/355/355 356/356/356 354/354/354
f 346/346/346 357/357/357 356/356/356
f 356/356/356 357/357/357 354/354/354
f 346/346/346 358/358/358 357/357/357
f 358/358/358 359/359/359 357/357/357
f 358/358/358 360/360/360 359/359/359
f 362/362/362 361/361/361 354/354/354
f 364/364/364 361/361/361 363/363/363
f 364/364/364 363/363/363 365/365/365
f 365/365/365 367/367/367 366/366/366
f 366/366/366 368/368/368 365/365/365
f 371/371/371 370/370/370 369/369/369
f 372/372/372 371/371/371 369/369/369
f 375/375/375 374/374/374 373/373/373
f 376/376/376 375/375/375 373/373/373
f 379/379/379 378/378/378 377/377/377
f 380/380/380 379/379/379 377/377/377
f 383/383/383 382/382/382 381/381/381
f 381/381/381 384/384/384 383/383/383
f 387/387/387 386/386/386 385/385/385
f 386/386/386 387/387/387 388/388/388
f 386/386/386 388/388/388 389/389/389
f 392/392/392 391/391/391 390/390/390
f 393/393/393 392/392/392 390/390/390
f 396/396/396 395/395/395 394/394/394
f 395/395/395 397/397/397 394/394/394
f 398/398/398 397/397/397 395/395/395
f 395/395/395 399/399/399 398/398/398
f 399/399/399 400/400/400 398/398/398
f 400/400/400 401/401/401 398/398/398
f 404/404/404 403/403/403 402/402/402
f 402/402/402 405/405/405 404/404/404
f 402/402/402 406/406/406 405/405/405
f 409/409/409 408/408/408 407/407/407
f 410/410/410 409/409/409 407/407/407
f 413/413/413 412/412/412 411/411/411
f 411/411/411 414/414/414 413/413/413
f 411/411/411 415/415/415 414/414/414
f 418/418/418 417/417/417 416/416/416
f 416/416/416 419/419/419 418/418/418
f 419/419/419 420/420/420 418/418/418
f 416/416/416 421/421/421 419/419/419
f 416/416/416 422/422/422 421/421/421
f 422/422/422 423/423/423 421/421/421
f 423/423/423 424/424/424 421/421/421
f 424/424/424 423/423/423 425/425/425
f 420/420/420 424/424/424 425/425/425
f 420/420/420 426/426/426 418/418/418
f 420/420/420 425/425/425 427/427/427
f 427/427/427 426/426/426 420/420/420
f 430/430/430 429/429/429 428/428/428
f 431/431/431 430/430/430 428/428/428
f 432/432/432 430/430/430 431/431/431
f 434/434/434 433/433/433 432/432/432
f 435/435/435 432/432/432 433/433/433
f 436/436/436 435/435/435 433/433/433
f 439/439/439 438/438/438 437/437/437
f 440/440/440 439/439/439 437/437/437
f 443/443/443 442/442/442 441/441/441
f 444/444/444 443/443/443 441/441/441
f 447/447/447 446/446/446 445/445/445
f 448/448/448 447/447/447 445/445/445
f 451/451/451 450/450/450 449/449/449
f 449/449/449 452/452/452 451/451/451
f 452/452/452 453/453/453 451/451/451
f 456/456/456 455/455/455 454/454/454
f 456/456/456 457/457/457 455/455/455
f 460/460/460 459/459/459 458/458/458
f 461/461/461 460/460/460 458/458/458
f 464/464/464 463/463/463 462/462/462
f 462/462/462 465/465/465 464/464/464
f 465/465/465 466/466/466 464/464/464
f 465/465/465 467/467/467 466/466/466
f 470/470/470 469/469/469 468/468/468
f 469/469/469 470/470/470 471/471/471
f 474/474/474 473/473/473 472/472/472
f 475/475/475 474/474/474 472/472/472
f 478/478/478 477/477/477 476/476/476
f 478/478/478 476/476/476 479/479/479
f 479/479/479 476/476/476 480/480/480
f 480/480/480 481/481/481 479/479/479
f 481/481/481 480/480/480 482/482/482
f 483/483/483 481/481/481 482/482/482
f 483/483/483 484/484/484 481/481/481
f 484/484/484 483/483/483 485/485/485
f 478/478/478 479/479/479 486/486/486
f 487/487/487 486/486/486 484/484/484
f 478/478/478 486/486/486 487/487/487
f 488/488/488 487/487/487 484/484/484
f 478/478/478 487/487/487 489/489/489
f 489/489/489 490/490/490 478/478/478
f 490/490/490 489/489/489 491/491/491
f 489/489/489 492/492/492 491/491/491
f 495/495/495 494/494/494 493/493/493
f 493/493/493 496/496/496 495/495/495
f 497/497/497 495/495/495 496/496/496
f 496/496/496 498/498/498 497/497/497
f 501/501/501 500/500/500 499/499/499
f 500/500/500 502/502/502 499/499/499
f 505/505/505 504/504/504 503/503/503
f 506/506/506 505/505/505 503/503/503
f 509/509/509 508/508/508 507/507/507
f 507/507/507 510/510/510 509/509/509
f 507/507/507 511/511/511 510/510/510
f 507/507/507 512/512/512 511/511/511
f 515/515/515 514/514/514 513/513/513
f 516/516/516 515/515/515 513/513/513
f 519/519/519 518/518/518 517/517/517
f 520/520/520 519/519/519 517/517/517
f 523/523/523 522/522/522 521/521/521
f 524/524/524 523/523/523 521/521/521
f 527/527/527 526/526/526 525/525/525
f 525/525/525 528/528/528 527/527/527
f 528/528/528 529/529/529 527/527/527
f 528/528/528 530/530/530 529/529/529
f 533/533/533 532/532/532 531/531/531
f 534/534/534 533/533/533 531/531/531
f 535/535/535 534/534/534 531/531/531
f 531/531/531 536/536/536 535/535/535
f 535/535/535 536/536/536 537/537/537
f 538/538/538 535/535/535 537/537/537
f 541/541/541 540/540/540 539/539/539
f 541/541/541 542/542/542 540/540/540
f 541/541/541 543/543/543 542/542/542
f 541/541/541 544/544/544 543/543/543
f 541/541/541 545/545/545 544/544/544
f 545/545/545 546/546/546 544/544/544
f 545/545/545 547/547/547 546/546/546
f 550/550/550 549/549/549 548/548/548
f 551/551/551 550/550/550 548/548/548
f 554/554/554 553/553/553 552/552/552
f 555/555/555 554/554/554 552/552/552
f 558/558/558 557/557/557 556/556/556
f 559/559/559 558/558/558 556/556/556
f 562/562/562 561/561/561 560/560/560
f 563/563/563 562/562/562 560/560/560
f 566/566/566 565/565/565 564/564/564
f 567/567/567 566/566/566 564/564/564
f 570/570/570 569/569/569 568/568/568
f 571/571/571 570/570/570 568/568/568
f 574/574/574 573/573/573 572/572/572
f 575/575/575 574/574/574 572/572/572
f 578/578/578 577/577/577 576/576/576
f 579/579/579 578/578/578 576/576/576
f 582/582/582 581/581/581 580/580/580
f 583/583/583 582/582/582 580/580/580
f 586/586/586 585/585/585 584/584/584
f 584/584/584 587/587/587 586/586/586
f 590/590/590 589/589/589 588/588/588
f 591/591/591 590/590/590 588/588/588
f 594/594/594 593/593/593 592/592/592
f 595/595/595 594/594/594 592/592/592
f 598/598/598 597/597/597 596/596/596
f 599/599/599 598/598/598 596/596/596
f 602/602/602 601/601/601 600/600/600
f 603/603/603 602/602/602 600/600/600
f 606/606/606 605/605/605 604/604/604
f 607/607/607 606/606/606 604/604/604
f 610/610/610 609/609/609 608/608/608
f 611/611/611 610/610/610 608/608/608
f 614/614/614 613/613/613 612/612/612
f 615/615/615 614/614/614 612/612/612
f 618/618/618 617/617/617 616/616/616
f 619/619/619 618/618/618 616/616/616
f 622/622/622 621/621/621 620/620/620
f 623/623/623 622/622/622 620/620/620
f 626/626/626 625/625/625 624/624/624
f 627/627/627 626/626/626 624/624/624
f 630/630/630 629/629/629 628/628/628
f 628/628/628 631/631/631 630/630/630
f 630/630/630 631/631/631 632/632/632
f 628/628/628 633/633/633 631/631/631
f 628/628/628 634/634/634 633/633/633
f 633/633/633 634/634/634 635/635/635
f 636/636/636 630/630/630 632/632/632
f 637/637/637 636/636/636 632/632/632
f 632/632/632 638/638/638 637/637/637
f 639/639/639 633/633/633 635/635/635
f 632/632/632 639/639/639 638/638/638
f 639/639/639 635/635/635 640/640/640
f 639/639/639 640/640/640 638/638/638
f 643/643/643 642/642/642 641/641/641
f 644/644/644 643/643/643 641/641/641
f 647/647/647 646/646/646 645/645/645
f 648/648/648 647/647/647 645/645/645
f 651/651/651 650/650/650 649/649/649
f 652/652/652 651/651/651 649/649/649
f 655/655/655 654/654/654 653/653/653
f 656/656/656 655/655/655 653/653/653
f 659/659/659 658/658/658 657/657/657
f 660/660/660 659/659/659 657/657/657
f 663/663/663 662/662/662 661/661/661
f 664/664/664 663/663/663 661/661/661
f 667/667/667 666/666/666 665/665/665
f 665/665/665 668/668/668 667/667/667
f 665/665/665 669/669/669 668/668/668
f 665/665/665 670/670/670 669/669/669
f 673/673/673 672/672/672 671/671/671
f 671/671/671 674/674/674 673/673/673
f 673/673/673 674/674/674 675/675/675
f 671/671/671 676/676/676 674/674/674
f 679/679/679 678/678/678 677/677/677
f 680/680/680 679/679/679 677/677/677
f 683/683/683 682/682/682 681/681/681
f 684/684/684 683/683/683 681/681/681
f 687/687/687 686/686/686 685/685/685
f 688/688/688 687/687/687 685/685/685
f 691/691/691 690/690/690 689/689/689
f 692/692/692 691/691/691 689/689/689
f 695/695/695 694/694/694 693/693/693
f 695/695/695 696/696/696 694/694/694
f 699/699/699 698/698/698 697/697/697
f 700/700/700 699/699/699 697/697/697
f 703/703/703 702/702/702 701/701/701
f 703/703/703 704/704/704 702/702/702
f 703/703/703 705/705/705 704/704/704
f 701/701/701 706/706/706 703/703/703
f 705/705/705 703/703/703 707/707/707
f 701/701/701 708/708/708 706/706/706
f 708/708/708 709/709/709 706/706/706
f 710/710/710 709/709/709 708/708/708
f 710/710/710 708/708/708 711/711/711
f 705/705/705 707/707/707 712/712/712
f 712/712/712 713/713/713 705/705/705
f 711/711/711 714/714/714 710/710/710
f 714/714/714 711/711/711 715/715/715
f 716/716/716 713/713/713 712/712/712
f 715/715/715 716/716/716 714/714/714
f 717/717/717 716/716/716 712/712/712
f 716/716/716 717/717/717 714/714/714
f 720/720/720 719/719/719 718/718/718
f 720/720/720 718/718/718 721/721/721
f 720/720/720 722/722/722 719/719/719
f 721/721/721 723/723/723 720/720/720
f 722/722/722 720/720/720 724/724/724
f 725/725/725 720/720/720 723/723/723
f 724/724/724 726/726/726 722/722/722
f 723/723/723 727/727/727 725/725/725
f 726/726/726 724/724/724 727/727/727
f 727/727/727 723/723/723 728/728/728
f 728/728/728 726/726/726 727/727/727
