g Model_0
v -1.732051 0.999999 -1.130288
v -1.000001 1.732050 -1.130288
v -1.000001 1.732050 10.869712
v -1.732051 0.999999 10.869712
v -2.000000 -0.000001 -1.130288
v 0.000000 1.999999 10.869712
v 0.000000 2.000000 -1.130288
v -2.000000 -0.000001 10.869712
v -1.732050 -1.000001 -1.130288
v 0.999999 1.732050 10.869712
v 1.000000 1.732051 -1.130288
v -1.732050 -1.000001 10.869712
v -0.999999 -1.732051 -1.130288
v 1.732050 0.999999 10.869712
v 1.732051 1.000000 -1.130288
v -0.999999 -1.732051 10.869712
v 0.000001 -2.000000 -1.130288
v 1.999999 0.000000 10.869712
v 2.000000 0.000000 -1.130288
v -0.000001 -1.999999 10.869712
v 1.000000 -1.732051 -1.130288
v 1.732049 -1.000000 10.869712
v 1.732051 -1.000000 -1.130288
v 0.999999 -1.732050 10.869712
v 1.673032 0.965925 11.387350
v 1.931850 0.000000 11.387350
v 1.673031 -0.965926 11.387350
v 0.965925 -1.673032 11.387350
v -0.000001 -1.931851 11.387350
v -0.965926 -1.673032 11.387350
v 0.965925 1.673032 11.387350
v -1.673032 -0.965925 11.387350
v 0.000000 1.931851 11.387350
v -1.931851 0.000000 11.387350
v -0.965926 1.673032 11.387350
v -1.673032 0.965925 11.387350
v -0.866025 -1.499999 11.869712
v -1.500000 -0.866025 11.869712
v -1.732051 0.000000 11.869712
v -1.500000 0.866025 11.869712
v -0.866025 1.499999 11.869712
v 0.000000 1.732050 11.869712
v -0.000001 -1.732050 11.869712
v 0.866025 1.499999 11.869712
v 0.866024 -1.499999 11.869712
v 1.499999 0.866025 11.869712
v 1.499999 -0.866025 11.869712
v 1.732049 0.000000 11.869712
v 0.000000 1.414213 12.283925
v 0.707106 1.224744 12.283925
v 1.224744 0.707106 12.283925
v 1.414212 0.000000 12.283925
v 1.224744 -0.707107 12.283925
v 0.707106 -1.224744 12.283925
v -0.707107 1.224744 12.283925
v -0.000001 -1.414213 12.283925
v -1.224745 0.707106 12.283925
v -0.707107 -1.224744 12.283925
v -1.414213 0.000000 12.283925
v -1.224745 -0.707106 12.283925
v 0.499999 -0.866024 12.601763
v -0.000001 -0.999999 12.601763
v -0.500000 -0.866024 12.601763
v -0.866025 -0.499999 12.601763
v -1.000000 0.000000 12.601763
v -0.866025 0.500000 12.601763
v 0.866024 -0.500000 12.601763
v -0.500000 0.866025 12.601763
v 0.999999 0.000000 12.601763
v 0.000000 0.999999 12.601763
v 0.866024 0.499999 12.601763
v 0.499999 0.866025 12.601763
v -0.448287 0.258819 12.801563
v -0.258819 0.448287 12.801563
v 0.000000 0.517637 12.801563
v 0.258818 0.448287 12.801563
v -0.000001 0.000000 12.869712
v -0.517638 0.000000 12.801563
v 0.448287 0.258819 12.801563
v 0.517637 0.000000 12.801563
v -0.448287 -0.258819 12.801563
v 0.448287 -0.258819 12.801563
v -0.258819 -0.448287 12.801563
v 0.258818 -0.448287 12.801563
v 0.000000 -0.517637 12.801563
vt 0 0
vt 0 0
vt 0 0
vt 0 0
vt 0 0
vt 0 0
vt 0 0
vt 0 0
vt 0 0
vt 0 0
vt 0 0
vt 0 0
vt 0 0
vt 0 0
vt 0 0
vt 0 0
vt 0 0
vt 0 0
vt 0 0
vt 0 0
vt 0 0
vt 0 0
vt 0 0
vt 0 0
vt 0 0
vt 0 0
vt 0 0
vt 0 0
vt 0 0
vt 0 0
vt 0 0
vt 0 0
vt 0 0
vt 0 0
vt 0 0
vt 0 0
vt 0 0
vt 0 0
vt 0 0
vt 0 0
vt 0 0
vt 0 0
vt 0 0
vt 0 0
vt 0 0
vt 0 0
vt 0 0
vt 0 0
vt 0 0
vt 0 0
vt 0 0
vt 0 0
vt 0 0
vt 0 0
vt 0 0
vt 0 0
vt 0 0
vt 0 0
vt 0 0
vt 0 0
vt 0 0
vt 0 0
vt 0 0
vt 0 0
vt 0 0
vt 0 0
vt 0 0
vt 0 0
vt 0 0
vt 0 0
vt 0 0
vt 0 0
vt 0 0
vt 0 0
vt 0 0
vt 0 0
vt 0 0
vt 0 0
vt 0 0
vt 0 0
vt 0 0
vt 0 0
vt 0 0
vt 0 0
vt 0 0
vn -0.866026 0.500000 0.000000
vn -0.500000 0.866025 0.000000
vn -0.498929 0.864170 0.065422
vn -0.864170 0.498929 0.065422
vn -1.000000 0.000000 0.000000
vn 0.000000 0.997858 0.065422
vn 0.000000 1.000000 0.000000
vn -0.997858 0.000000 0.065422
vn -0.866025 -0.500001 0.000000
vn 0.498929 0.864170 0.065421
vn 0.500000 0.866025 0.000000
vn -0.864170 -0.498929 0.065422
vn -0.500000 -0.866026 0.000000
vn 0.864170 0.498929 0.065422
vn 0.866025 0.500000 0.000000
vn -0.498929 -0.864170 0.065422
vn 0.000000 -1.000000 0.000000
vn 0.997858 0.000000 0.065422
vn 1.000000 0.000000 0.000000
vn 0.000000 -0.997858 0.065422
vn 0.500000 -0.866025 0.000000
vn 0.864170 -0.498929 0.065422
vn 0.866025 -0.500000 0.000000
vn 0.498929 -0.864170 0.065421
vn 0.836452 0.482926 0.259096
vn 0.965851 0.000000 0.259096
vn 0.836452 -0.482926 0.259096
vn 0.482926 -0.836452 0.259096
vn 0.000000 -0.965851 0.259096
vn -0.482926 -0.836452 0.259097
vn 0.482926 0.836452 0.259096
vn -0.836452 -0.482926 0.259096
vn 0.000000 0.965852 0.259096
vn -0.965852 0.000000 0.259096
vn -0.482926 0.836452 0.259096
vn -0.836452 0.482926 0.259096
vn -0.432887 -0.749782 0.500436
vn -0.749782 -0.432887 0.500435
vn -0.865774 0.000000 0.500435
vn -0.749782 0.432887 0.500435
vn -0.432887 0.749782 0.500436
vn 0.000000 0.865774 0.500436
vn 0.000000 -0.865774 0.500436
vn 0.432887 0.749782 0.500436
vn 0.432887 -0.749782 0.500436
vn 0.749782 0.432887 0.500436
vn 0.749782 -0.432887 0.500436
vn 0.865774 0.000000 0.500435
vn 0.000000 0.706689 0.707524
vn 0.353345 0.612011 0.707524
vn 0.612011 0.353344 0.707524
vn 0.706689 0.000000 0.707524
vn 0.612011 -0.353345 0.707524
vn 0.353344 -0.612011 0.707524
vn -0.353345 0.612011 0.707524
vn 0.000000 -0.706689 0.707524
vn -0.612011 0.353345 0.707524
vn -0.353345 -0.612011 0.707524
vn -0.706689 0.000000 0.707524
vn -0.612011 -0.353345 0.707524
vn 0.249775 -0.432623 0.866285
vn 0.000000 -0.499549 0.866285
vn -0.249775 -0.432622 0.866285
vn -0.432623 -0.249775 0.866285
vn -0.499550 0.000000 0.866285
vn -0.432623 0.249775 0.866285
vn 0.432622 -0.249775 0.866285
vn -0.249775 0.432623 0.866285
vn 0.499550 0.000000 0.866285
vn 0.000000 0.499550 0.866285
vn 0.432623 0.249775 0.866285
vn 0.249775 0.432623 0.866285
vn -0.223890 0.129263 0.966004
vn -0.129263 0.223890 0.966004
vn 0.000000 0.258525 0.966004
vn 0.129263 0.223890 0.966004
vn 0.000000 0.000000 1.000000
vn -0.258525 0.000000 0.966004
vn 0.223890 0.129263 0.966004
vn 0.258525 0.000000 0.966004
vn -0.223890 -0.129263 0.966004
vn 0.223889 -0.129263 0.966004
vn -0.129263 -0.223890 0.966004
vn 0.129263 -0.223890 0.966004
vn 0.000000 -0.258526 0.966004
g Model_0_0
f 3/3/3 2/2/2 1/1/1
f 4/4/4 3/3/3 1/1/1
f 4/4/4 1/1/1 5/5/5
f 3/3/3 6/6/6 2/2/2
f 6/6/6 7/7/7 2/2/2
f 8/8/8 4/4/4 5/5/5
f 8/8/8 5/5/5 9/9/9
f 6/6/6 10/10/10 7/7/7
f 10/10/10 11/11/11 7/7/7
f 12/12/12 8/8/8 9/9/9
f 12/12/12 9/9/9 13/13/13
f 10/10/10 14/14/14 11/11/11
f 14/14/14 15/15/15 11/11/11
f 16/16/16 12/12/12 13/13/13
f 16/16/16 13/13/13 17/17/17
f 14/14/14 18/18/18 15/15/15
f 18/18/18 19/19/19 15/15/15
f 20/20/20 16/16/16 17/17/17
f 20/20/20 17/17/17 21/21/21
f 18/18/18 22/22/22 19/19/19
f 22/22/22 23/23/23 19/19/19
f 24/24/24 21/21/21 23/23/23
f 24/24/24 20/20/20 21/21/21
f 22/22/22 24/24/24 23/23/23
f 25/25/25 14/14/14 10/10/10
f 26/26/26 18/18/18 14/14/14
f 25/25/25 26/26/26 14/14/14
f 27/27/27 22/22/22 18/18/18
f 26/26/26 27/27/27 18/18/18
f 28/28/28 24/24/24 22/22/22
f 27/27/27 28/28/28 22/22/22
f 29/29/29 20/20/20 24/24/24
f 28/28/28 29/29/29 24/24/24
f 30/30/30 16/16/16 20/20/20
f 29/29/29 30/30/30 20/20/20
f 31/31/31 25/25/25 10/10/10
f 31/31/31 10/10/10 6/6/6
f 30/30/30 32/32/32 16/16/16
f 32/32/32 12/12/12 16/16/16
f 33/33/33 31/31/31 6/6/6
f 33/33/33 6/6/6 3/3/3
f 32/32/32 34/34/34 12/12/12
f 34/34/34 8/8/8 12/12/12
f 35/35/35 33/33/33 3/3/3
f 35/35/35 3/3/3 4/4/4
f 36/36/36 4/4/4 8/8/8
f 34/34/34 36/36/36 8/8/8
f 36/36/36 35/35/35 4/4/4
f 37/37/37 30/30/30 29/29/29
f 38/38/38 32/32/32 30/30/30
f 37/37/37 38/38/38 30/30/30
f 39/39/39 34/34/34 32/32/32
f 38/38/38 39/39/39 32/32/32
f 40/40/40 36/36/36 34/34/34
f 39/39/39 40/40/40 34/34/34
f 41/41/41 35/35/35 36/36/36
f 40/40/40 41/41/41 36/36/36
f 42/42/42 33/33/33 35/35/35
f 41/41/41 42/42/42 35/35/35
f 43/43/43 37/37/37 29/29/29
f 43/43/43 29/29/29 28/28/28
f 42/42/42 44/44/44 33/33/33
f 44/44/44 31/31/31 33/33/33
f 45/45/45 43/43/43 28/28/28
f 45/45/45 28/28/28 27/27/27
f 44/44/44 46/46/46 31/31/31
f 46/46/46 25/25/25 31/31/31
f 47/47/47 45/45/45 27/27/27
f 47/47/47 27/27/27 26/26/26
f 48/48/48 26/26/26 25/25/25
f 46/46/46 48/48/48 25/25/25
f 48/48/48 47/47/47 26/26/26
f 49/49/49 42/42/42 41/41/41
f 50/50/50 44/44/44 42/42/42
f 49/49/49 50/50/50 42/42/42
f 51/51/51 46/46/46 44/44/44
f 50/50/50 51/51/51 44/44/44
f 52/52/52 48/48/48 46/46/46
f 51/51/51 52/52/52 46/46/46
f 53/53/53 47/47/47 48/48/48
f 52/52/52 53/53/53 48/48/48
f 54/54/54 45/45/45 47/47/47
f 53/53/53 54/54/54 47/47/47
f 55/55/55 49/49/49 41/41/41
f 55/55/55 41/41/41 40/40/40
f 54/54/54 56/56/56 45/45/45
f 56/56/56 43/43/43 45/45/45
f 57/57/57 55/55/55 40/40/40
f 57/57/57 40/40/40 39/39/39
f 56/56/56 58/58/58 43/43/43
f 58/58/58 37/37/37 43/43/43
f 59/59/59 57/57/57 39/39/39
f 59/59/59 39/39/39 38/38/38
f 60/60/60 38/38/38 37/37/37
f 58/58/58 60/60/60 37/37/37
f 60/60/60 59/59/59 38/38/38
f 61/61/61 54/54/54 53/53/53
f 62/62/62 56/56/56 54/54/54
f 61/61/61 62/62/62 54/54/54
f 63/63/63 58/58/58 56/56/56
f 62/62/62 63/63/63 56/56/56
f 64/64/64 60/60/60 58/58/58
f 63/63/63 64/64/64 58/58/58
f 65/65/65 59/59/59 60/60/60
f 64/64/64 65/65/65 60/60/60
f 66/66/66 57/57/57 59/59/59
f 65/65/65 66/66/66 59/59/59
f 67/67/67 61/61/61 53/53/53
f 67/67/67 53/53/53 52/52/52
f 66/66/66 68/68/68 57/57/57
f 68/68/68 55/55/55 57/57/57
f 69/69/69 67/67/67 52/52/52
f 69/69/69 52/52/52 51/51/51
f 68/68/68 70/70/70 55/55/55
f 70/70/70 49/49/49 55/55/55
f 71/71/71 69/69/69 51/51/51
f 71/71/71 51/51/51 50/50/50
f 72/72/72 50/50/50 49/49/49
f 70/70/70 72/72/72 49/49/49
f 72/72/72 71/71/71 50/50/50
f 73/73/73 66/66/66 65/65/65
f 74/74/74 68/68/68 66/66/66
f 73/73/73 74/74/74 66/66/66
f 75/75/75 70/70/70 68/68/68
f 74/74/74 75/75/75 68/68/68
f 76/76/76 72/72/72 70/70/70
f 75/75/75 76/76/76 70/70/70
f 77/77/77 75/75/75 74/74/74
f 77/77/77 74/74/74 73/73/73
f 77/77/77 76/76/76 75/75/75
f 77/77/77 73/73/73 78/78/78
f 78/78/78 73/73/73 65/65/65
f 77/77/77 79/79/79 76/76/76
f 76/76/76 79/79/79 72/72/72
f 79/79/79 71/71/71 72/72/72
f 78/78/78 65/65/65 64/64/64
f 79/79/79 80/80/80 71/71/71
f 77/77/77 80/80/80 79/79/79
f 80/80/80 69/69/69 71/71/71
f 81/81/81 78/78/78 64/64/64
f 77/77/77 78/78/78 81/81/81
f 81/81/81 64/64/64 63/63/63
f 80/80/80 82/82/82 69/69/69
f 77/77/77 82/82/82 80/80/80
f 82/82/82 67/67/67 69/69/69
f 83/83/83 81/81/81 63/63/63
f 77/77/77 81/81/81 83/83/83
f 83/83/83 63/63/63 62/62/62
f 82/82/82 84/84/84 67/67/67
f 77/77/77 84/84/84 82/82/82
f 84/84/84 61/61/61 67/67/67
f 85/85/85 62/62/62 61/61/61
f 85/85/85 83/83/83 62/62/62
f 77/77/77 83/83/83 85/85/85
f 84/84/84 85/85/85 61/61/61
f 77/77/77 85/85/85 84/84/84