g Model_0
v -1.73205101 0.999998987 -1.130288
v -1.00000095 1.73204994 -1.130288
v -1.00000095 1.73204994 10.8697119
v -1.73205101 0.999998987 10.8697119
v -2 -9.99999997E-07 -1.130288
v -0 1.99999905 10.8697119
v -0 2 -1.130288
v -2 -9.99999997E-07 10.8697119
v -1.73204994 -1.00000095 -1.130288
v 0.999998987 1.73204994 10.8697119
v 1 1.73205101 -1.130288
v -1.73204994 -1.00000095 10.8697119
v -0.999998987 -1.73205101 -1.130288
v 1.73204994 0.999998987 10.8697119
v 1.73205101 1 -1.130288
v -0.999998987 -1.73205101 10.8697119
v 9.99999997E-07 -2 -1.130288
v 1.99999905 0 10.8697119
v 2 0 -1.130288
v -9.99999997E-07 -1.99999905 10.8697119
v 1 -1.73205101 -1.130288
v 1.73204899 -1 10.8697119
v 1.73205101 -1 -1.130288
v 0.999998987 -1.73204994 10.8697119
v 1.67303205 0.965924978 11.3873501
v 1.93184996 0 11.3873501
v 1.67303097 -0.965925992 11.3873501
v 0.965924978 -1.67303205 11.3873501
v -9.99999997E-07 -1.93185103 11.3873501
v -0.965925992 -1.67303205 11.3873501
v 0.965924978 1.67303205 11.3873501
v -1.67303205 -0.965924978 11.3873501
v -0 1.93185103 11.3873501
v -1.93185103 0 11.3873501
v -0.965925992 1.67303205 11.3873501
v -1.67303205 0.965924978 11.3873501
v -0.866024971 -1.49999905 11.8697119
v -1.5 -0.866024971 11.8697119
v -1.73205101 0 11.8697119
v -1.5 0.866024971 11.8697119
v -0.866024971 1.49999905 11.8697119
v -0 1.73204994 11.8697119
v -9.99999997E-07 -1.73204994 11.8697119
v 0.866024971 1.49999905 11.8697119
v 0.866024017 -1.49999905 11.8697119
v 1.49999905 0.866024971 11.8697119
v 1.49999905 -0.866024971 11.8697119
v 1.73204899 0 11.8697119
v -0 1.41421294 12.2839251
v 0.707105994 1.22474396 12.2839251
v 1.22474396 0.707105994 12.2839251
v 1.41421199 0 12.2839251
v 1.22474396 -0.707107008 12.2839251
v 0.707105994 -1.22474396 12.2839251
v -0.707107008 1.22474396 12.2839251
v -9.99999997E-07 -1.41421294 12.2839251
v -1.22474504 0.707105994 12.2839251
v -0.707107008 -1.22474396 12.2839251
v -1.41421294 0 12.2839251
v -1.22474504 -0.707105994 12.2839251
v 0.499998987 -0.866024017 12.6017628
v -9.99999997E-07 -0.999998987 12.6017628
v -0.5 -0.866024017 12.6017628
v -0.866024971 -0.499998987 12.6017628
v -1 0 12.6017628
v -0.866024971 0.5 12.6017628
v 0.866024017 -0.5 12.6017628
v -0.5 0.866024971 12.6017628
v 0.999998987 0 12.6017628
v -0 0.999998987 12.6017628
v 0.866024017 0.499998987 12.6017628
v 0.499998987 0.866024971 12.6017628
v -0.44828701 0.258819014 12.8015633
v -0.258819014 0.44828701 12.8015633
v -0 0.517637014 12.8015633
v 0.258818001 0.44828701 12.8015633
v -9.99999997E-07 0 12.8697119
v -0.517638028 0 12.8015633
v 0.44828701 0.258819014 12.8015633
v 0.517637014 0 12.8015633
v -0.44828701 -0.258819014 12.8015633
v 0.44828701 -0.258819014 12.8015633
v -0.258819014 -0.44828701 12.8015633
v 0.258818001 -0.44828701 12.8015633
v -0 -0.517637014 12.8015633
vt 0 0
vt 0 0
vt 0 0
vt 0 0
vt 0 0
vt 0 0
vt 0 0
vt 0 0
vt 0 0
vt 0 0
vt 0 0
vt 0 0
vt 0 0
vt 0 0
vt 0 0
vt 0 0
vt 0 0
vt 0 0
vt 0 0
vt 0 0
vt 0 0
vt 0 0
vt 0 0
vt 0 0
vt 0 0
vt 0 0
vt 0 0
vt 0 0
vt 0 0
vt 0 0
vt 0 0
vt 0 0
vt 0 0
vt 0 0
vt 0 0
vt 0 0
vt 0 0
vt 0 0
vt 0 0
vt 0 0
vt 0 0
vt 0 0
vt 0 0
vt 0 0
vt 0 0
vt 0 0
vt 0 0
vt 0 0
vt 0 0
vt 0 0
vt 0 0
vt 0 0
vt 0 0
vt 0 0
vt 0 0
vt 0 0
vt 0 0
vt 0 0
vt 0 0
vt 0 0
vt 0 0
vt 0 0
vt 0 0
vt 0 0
vt 0 0
vt 0 0
vt 0 0
vt 0 0
vt 0 0
vt 0 0
vt 0 0
vt 0 0
vt 0 0
vt 0 0
vt 0 0
vt 0 0
vt 0 0
vt 0 0
vt 0 0
vt 0 0
vt 0 0
vt 0 0
vt 0 0
vt 0 0
vt 0 0
vn -0.866025627 0.499999702 0
vn -0.500000298 0.866025269 0
vn -0.498929083 0.864170015 0.0654218867
vn -0.864170253 0.498928517 0.065422222
vn -1 0 0
vn -0 0.997857749 0.0654215291
vn -0 1 0
vn -0.99785763 0 0.0654222965
vn -0.86602509 -0.500000596 0
vn 0.498928875 0.864170074 0.0654214621
vn 0.50000006 0.866025448 0
vn -0.864169836 -0.498929232 0.065422222
vn -0.499999583 -0.866025686 0
vn 0.864170194 0.498928785 0.0654217154
vn 0.866025448 0.50000006 0
vn -0.498928607 -0.864170253 0.065422006
vn -0 -1 0
vn 0.99785763 0 0.0654219985
vn 1 0 0
vn -0 -0.99785763 0.0654216483
vn 0.50000006 -0.866025448 0
vn 0.864170015 -0.498928994 0.0654217675
vn 0.866025329 -0.500000179 0
vn 0.498928845 -0.864170194 0.0654214919
vn 0.836452067 0.482925504 0.259096205
vn 0.965851545 0 0.259096354
vn 0.836451888 -0.482925802 0.259096205
vn 0.482925683 -0.836452007 0.259096146
vn -0 -0.965851545 0.259096414
vn -0.482925743 -0.836451828 0.259096533
vn 0.482925922 0.836452007 0.259095967
vn -0.836451828 -0.482925892 0.259096265
vn -0 0.965851545 0.259096205
vn -0.965851545 0 0.259096026
vn -0.482925832 0.836451828 0.259096444
vn -0.836452007 0.482925624 0.259096265
vn -0.432886958 -0.749781966 0.50043565
vn -0.749782026 -0.432887018 0.500435472
vn -0.865773916 0 0.500435412
vn -0.749782085 0.432887018 0.500435472
vn -0.432886809 0.749782026 0.50043565
vn -0 0.865773618 0.500435829
vn -0 -0.865773618 0.500435829
vn 0.432886928 0.749781847 0.500435889
vn 0.43288669 -0.749782085 0.50043565
vn 0.749782085 0.432886481 0.500435829
vn 0.749782085 -0.432886839 0.500435531
vn 0.865773797 0 0.500435472
vn -0 0.706689358 0.707524002
vn 0.353344768 0.612010717 0.707524121
vn 0.612010956 0.353344411 0.70752418
vn 0.706689477 0 0.707523942
vn 0.612010837 -0.353344738 0.707524061
vn 0.35334447 -0.612011075 0.707524002
vn -0.353344649 0.612011075 0.707523942
vn -0 -0.706689239 0.70752418
vn -0.612010777 0.353344738 0.707524121
vn -0.353344738 -0.612010717 0.707524121
vn -0.706689119 0 0.70752424
vn -0.612010658 -0.353344619 0.7075243
vn 0.24977462 -0.43262279 0.866285324
vn -0 -0.499549419 0.866285384
vn -0.249774903 -0.432622433 0.866285324
vn -0.432622552 -0.249774933 0.866285324
vn -0.499549538 0 0.866285324
vn -0.432622612 0.249774933 0.866285324
vn 0.432622433 -0.249775037 0.866285324
vn -0.249774665 0.432622701 0.866285324
vn 0.499549747 0 0.866285145
vn -0 0.499549657 0.866285324
vn 0.432622731 0.249774843 0.866285205
vn 0.249774903 0.432622612 0.866285324
vn -0.223889515 0.129262909 0.966004491
vn -0.129262537 0.223889604 0.966004491
vn -0 0.258525461 0.966004491
vn 0.129262626 0.223889679 0.966004491
vn -0 0 1
vn -0.258525312 0 0.966004491
vn 0.22388956 0.129262835 0.966004491
vn 0.258525461 0 0.966004491
vn -0.223889649 -0.129263043 0.966004491
vn 0.223889425 -0.129262909 0.966004491
vn -0.12926282 -0.223889738 0.966004491
vn 0.129262611 -0.223889858 0.966004491
vn -0 -0.25852555 0.966004491
g Model_0_0
f 3/3/3 2/2/2 1/1/1
f 4/4/4 3/3/3 1/1/1
f 4/4/4 1/1/1 5/5/5
f 3/3/3 6/6/6 2/2/2
f 6/6/6 7/7/7 2/2/2
f 8/8/8 4/4/4 5/5/5
f 8/8/8 5/5/5 9/9/9
f 6/6/6 10/10/10 7/7/7
f 10/10/10 11/11/11 7/7/7
f 12/12/12 8/8/8 9/9/9
f 12/12/12 9/9/9 13/13/13
f 10/10/10 14/14/14 11/11/11
f 14/14/14 15/15/15 11/11/11
f 16/16/16 12/12/12 13/13/13
f 16/16/16 13/13/13 17/17/17
f 14/14/14 18/18/18 15/15/15
f 18/18/18 19/19/19 15/15/15
f 20/20/20 16/16/16 17/17/17
f 20/20/20 17/17/17 21/21/21
f 18/18/18 22/22/22 19/19/19
f 22/22/22 23/23/23 19/19/19
f 24/24/24 21/21/21 23/23/23
f 24/24/24 20/20/20 21/21/21
f 22/22/22 24/24/24 23/23/23
f 25/25/25 14/14/14 10/10/10
f 26/26/26 18/18/18 14/14/14
f 25/25/25 26/26/26 14/14/14
f 27/27/27 22/22/22 18/18/18
f 26/26/26 27/27/27 18/18/18
f 28/28/28 24/24/24 22/22/22
f 27/27/27 28/28/28 22/22/22
f 29/29/29 20/20/20 24/24/24
f 28/28/28 29/29/29 24/24/24
f 30/30/30 16/16/16 20/20/20
f 29/29/29 30/30/30 20/20/20
f 31/31/31 25/25/25 10/10/10
f 31/31/31 10/10/10 6/6/6
f 30/30/30 32/32/32 16/16/16
f 32/32/32 12/12/12 16/16/16
f 33/33/33 31/31/31 6/6/6
f 33/33/33 6/6/6 3/3/3
f 32/32/32 34/34/34 12/12/12
f 34/34/34 8/8/8 12/12/12
f 35/35/35 33/33/33 3/3/3
f 35/35/35 3/3/3 4/4/4
f 36/36/36 4/4/4 8/8/8
f 34/34/34 36/36/36 8/8/8
f 36/36/36 35/35/35 4/4/4
f 37/37/37 30/30/30 29/29/29
f 38/38/38 32/32/32 30/30/30
f 37/37/37 38/38/38 30/30/30
f 39/39/39 34/34/34 32/32/32
f 38/38/38 39/39/39 32/32/32
f 40/40/40 36/36/36 34/34/34
f 39/39/39 40/40/40 34/34/34
f 41/41/41 35/35/35 36/36/36
f 40/40/40 41/41/41 36/36/36
f 42/42/42 33/33/33 35/35/35
f 41/41/41 42/42/42 35/35/35
f 43/43/43 37/37/37 29/29/29
f 43/43/43 29/29/29 28/28/28
f 42/42/42 44/44/44 33/33/33
f 44/44/44 31/31/31 33/33/33
f 45/45/45 43/43/43 28/28/28
f 45/45/45 28/28/28 27/27/27
f 44/44/44 46/46/46 31/31/31
f 46/46/46 25/25/25 31/31/31
f 47/47/47 45/45/45 27/27/27
f 47/47/47 27/27/27 26/26/26
f 48/48/48 26/26/26 25/25/25
f 46/46/46 48/48/48 25/25/25
f 48/48/48 47/47/47 26/26/26
f 49/49/49 42/42/42 41/41/41
f 50/50/50 44/44/44 42/42/42
f 49/49/49 50/50/50 42/42/42
f 51/51/51 46/46/46 44/44/44
f 50/50/50 51/51/51 44/44/44
f 52/52/52 48/48/48 46/46/46
f 51/51/51 52/52/52 46/46/46
f 53/53/53 47/47/47 48/48/48
f 52/52/52 53/53/53 48/48/48
f 54/54/54 45/45/45 47/47/47
f 53/53/53 54/54/54 47/47/47
f 55/55/55 49/49/49 41/41/41
f 55/55/55 41/41/41 40/40/40
f 54/54/54 56/56/56 45/45/45
f 56/56/56 43/43/43 45/45/45
f 57/57/57 55/55/55 40/40/40
f 57/57/57 40/40/40 39/39/39
f 56/56/56 58/58/58 43/43/43
f 58/58/58 37/37/37 43/43/43
f 59/59/59 57/57/57 39/39/39
f 59/59/59 39/39/39 38/38/38
f 60/60/60 38/38/38 37/37/37
f 58/58/58 60/60/60 37/37/37
f 60/60/60 59/59/59 38/38/38
f 61/61/61 54/54/54 53/53/53
f 62/62/62 56/56/56 54/54/54
f 61/61/61 62/62/62 54/54/54
f 63/63/63 58/58/58 56/56/56
f 62/62/62 63/63/63 56/56/56
f 64/64/64 60/60/60 58/58/58
f 63/63/63 64/64/64 58/58/58
f 65/65/65 59/59/59 60/60/60
f 64/64/64 65/65/65 60/60/60
f 66/66/66 57/57/57 59/59/59
f 65/65/65 66/66/66 59/59/59
f 67/67/67 61/61/61 53/53/53
f 67/67/67 53/53/53 52/52/52
f 66/66/66 68/68/68 57/57/57
f 68/68/68 55/55/55 57/57/57
f 69/69/69 67/67/67 52/52/52
f 69/69/69 52/52/52 51/51/51
f 68/68/68 70/70/70 55/55/55
f 70/70/70 49/49/49 55/55/55
f 71/71/71 69/69/69 51/51/51
f 71/71/71 51/51/51 50/50/50
f 72/72/72 50/50/50 49/49/49
f 70/70/70 72/72/72 49/49/49
f 72/72/72 71/71/71 50/50/50
f 73/73/73 66/66/66 65/65/65
f 74/74/74 68/68/68 66/66/66
f 73/73/73 74/74/74 66/66/66
f 75/75/75 70/70/70 68/68/68
f 74/74/74 75/75/75 68/68/68
f 76/76/76 72/72/72 70/70/70
f 75/75/75 76/76/76 70/70/70
f 77/77/77 75/75/75 74/74/74
f 77/77/77 74/74/74 73/73/73
f 77/77/77 76/76/76 75/75/75
f 77/77/77 73/73/73 78/78/78
f 78/78/78 73/73/73 65/65/65
f 77/77/77 79/79/79 76/76/76
f 76/76/76 79/79/79 72/72/72
f 79/79/79 71/71/71 72/72/72
f 78/78/78 65/65/65 64/64/64
f 79/79/79 80/80/80 71/71/71
f 77/77/77 80/80/80 79/79/79
f 80/80/80 69/69/69 71/71/71
f 81/81/81 78/78/78 64/64/64
f 77/77/77 78/78/78 81/81/81
f 81/81/81 64/64/64 63/63/63
f 80/80/80 82/82/82 69/69/69
f 77/77/77 82/82/82 80/80/80
f 82/82/82 67/67/67 69/69/69
f 83/83/83 81/81/81 63/63/63
f 77/77/77 81/81/81 83/83/83
f 83/83/83 63/63/63 62/62/62
f 82/82/82 84/84/84 67/67/67
f 77/77/77 84/84/84 82/82/82
f 84/84/84 61/61/61 67/67/67
f 85/85/85 62/62/62 61/61/61
f 85/85/85 83/83/83 62/62/62
f 77/77/77 83/83/83 85/85/85
f 84/84/84 85/85/85 61/61/61
f 77/77/77 85/85/85 84/84/84
