# generated by LodBaker -- retail ships no LODGroup for this prop
v 5.196152 3 6.869712 1 1 1
v -3.000003 5.196151 -1 1 1 1
v 0 6 -1 1 1 1
v -5.196154 2.999997 -1 1 1 1
v 3 5.196153 -1 1 1 1
v -6 -2E-06 -1 1 1 1
v 5.196152 3 -1 1 1 1
v -5.196151 -3.000001 -1 1 1 1
v 6 0 -1 1 1 1
v -2.999998 -5.196152 -1 1 1 1
v 5.196152 -3 -1 1 1 1
v 1E-06 -5.999999 -1 1 1 1
v 3 -5.196151 -1 1 1 1
vt 0 1
vt 0 1
vt 0 1
vt 0 1
vt 0 1
vt 0 1
vt 0 1
vt 0 1
vt 0 1
vt 0 1
vt 0 1
vt 0 1
vt 0 1
vn 0.27385494 0.15811081 0.94868565
vn -0.50002205 0.86601275 -2.0844354E-05
vn 0 1 -1.5259022E-05
vn -0.8660412 0.49997267 -2.0844036E-05
vn 0.49999732 0.8660269 2.0844192E-05
vn -1 0 -1.5259022E-05
vn 0.8660269 0.49999732 2.0844192E-05
vn -0.8660307 -0.49999073 -6.253436E-05
vn 1 0 -1.5259022E-05
vn -0.49999073 -0.8660307 -6.253436E-05
vn 0.86601275 -0.50002205 -2.0844354E-05
vn 0 -1 -1.5259022E-05
vn 0.49997267 -0.8660412 -2.0844036E-05
f 3/3/3 2/2/2 1/1/1
f 2/2/2 4/4/4 1/1/1
f 5/5/5 3/3/3 1/1/1
f 4/4/4 6/6/6 1/1/1
f 7/7/7 5/5/5 1/1/1
f 6/6/6 8/8/8 1/1/1
f 9/9/9 7/7/7 1/1/1
f 8/8/8 10/10/10 1/1/1
f 11/11/11 9/9/9 1/1/1
f 10/10/10 12/12/12 1/1/1
f 13/13/13 11/11/11 1/1/1
f 12/12/12 13/13/13 1/1/1
