g XMAS_Skirt_00_0
v -2.41564345 -4.18402004 0.199999809
v 2.41564488 -4.18401909 0.199999809
v 7.5304132E-07 -4.83128929 0.199999809
v -4.18401814 -2.41564584 0.200000033
v -4.83128929 -1.81794167E-06 0.200000033
v 2.41564465 4.18402004 0.200000286
v 4.83128929 2.23517418E-07 0.200000033
v 4.18401909 -2.41564488 0.200000033
v 4.18401957 2.41564512 0.200000033
v 2.35369217E-08 4.83128929 0.200000286
v -2.41564751 4.18401861 0.200000286
v -4.18402052 2.41564274 0.200000033
v 4.83128929 2.38418579E-07 -0.200000033
v 2.41564488 -4.18401909 -0.200000286
v 4.18401909 -2.41564488 -0.200000033
v -2.41564751 4.18401909 -0.199999809
v 2.35369217E-08 4.83129025 -0.199999809
v 2.41564465 4.18402004 -0.199999809
v 4.18401957 2.41564512 -0.200000033
v -2.41564345 -4.18401957 -0.200000286
v 7.5304132E-07 -4.83128929 -0.200000286
v -4.18402052 2.41564274 -0.200000033
v -4.83128929 -1.8030405E-06 -0.200000033
v -4.18401814 -2.41564584 -0.200000033
v 3.60341334 0.965533376 0.250000119
v 3.85370469 1.03259909 0.250000119
v 4.32945728 6.01700265E-07 0.25000006
v 3.74941921 2.16472983 0.250000209
v 4.56848288 6.55651093E-07 0.25000006
v 3.9564209 2.28424311 0.250000209
v 3.85370564 -1.03259683 0.25
v 3.6034143 -0.965531111 0.25
v 2.82110643 2.82110953 0.250000209
v 2.63787985 2.63788366 0.250000209
v 3.7494204 -2.16472793 0.25
v 3.95642233 -2.28424048 0.25
v 2.16472626 3.74942088 0.250000209
v 2.28423882 3.95642328 0.250000477
v 2.82110858 -2.82110715 0.25
v 2.63788295 -2.63788104 0.25
v 1.0325948 3.85370588 0.250000209
v 0.96552968 3.60341477 0.250000209
v 2.16472936 -3.74941921 0.25
v 2.28424239 -3.95642138 0.25
v -2.10572989E-06 4.32945776 0.25
v -2.14375859E-06 4.56848335 0.250000477
v 1.03259861 -3.85370564 0.25
v 0.965532959 -3.60341382 0.25
v -1.03259885 3.85370564 0.250000209
v -0.965533435 3.60341382 0.250000209
v 1.72723708E-06 -4.32945776 0.25
v 1.74436923E-06 -4.56848335 0.25
v -2.16472983 3.7494185 0.250000209
v -2.28424287 3.95642138 0.250000477
v -1.03259528 -3.85370636 0.25
v -0.965530097 -3.60341477 0.25
v -2.82110929 2.82110643 0.250000209
v -2.63788295 2.63788104 0.250000209
v -2.16472673 -3.74942088 0.25
v -2.28423929 -3.95642328 0.25
v -3.7494204 2.16472793 0.250000209
v -3.95642233 2.28424001 0.250000209
v -2.82110643 -2.82110953 0.25
v -2.6378808 -2.63788366 0.25
v -3.85370564 1.03259623 0.250000119
v -3.6034143 0.965530813 0.250000119
v -3.74941921 -2.16472983 0.25
v -3.95642138 -2.28424239 0.25
v -4.32945728 -1.72649095E-06 0.25000006
v -4.56848288 -1.81794167E-06 0.25000006
v -3.85370469 -1.03259873 0.25
v -3.60341334 -0.965532899 0.25
v 4.18401957 2.41564512 0.200000033
v 2.41564465 4.18402004 0.200000286
v 2.41564465 4.18402004 -0.199999809
v 2.35369217E-08 4.83128929 0.200000286
v 4.18401957 2.41564512 -0.200000033
v 2.35369217E-08 4.83129025 -0.199999809
v 4.83128929 2.23517418E-07 0.200000033
v -2.41564751 4.18401909 -0.199999809
v 4.83128929 2.38418579E-07 -0.200000033
v -2.41564751 4.18401861 0.200000286
v 4.18401909 -2.41564488 0.200000033
v -4.18402052 2.41564274 -0.200000033
v 4.18401909 -2.41564488 -0.200000033
v -4.18402052 2.41564274 0.200000033
v 2.41564488 -4.18401909 0.199999809
v -4.83128929 -1.8030405E-06 -0.200000033
v 2.41564488 -4.18401909 -0.200000286
v -4.83128929 -1.81794167E-06 0.200000033
v 7.5304132E-07 -4.83128929 0.199999809
v -4.18401814 -2.41564584 -0.200000033
v 7.5304132E-07 -4.83128929 -0.200000286
v -4.18401814 -2.41564584 0.200000033
v -2.41564345 -4.18402004 0.199999809
v -2.41564345 -4.18401957 -0.200000286
vt 0.440941125 0.647646964
vt 0.440941125 0.647646964
vt 0.440941125 0.647646964
vt 0.440941125 0.647646964
vt 0.440941125 0.647646964
vt 0.440941125 0.647646964
vt 0.440941125 0.647646964
vt 0.440941125 0.647646964
vt 0.440941125 0.647646964
vt 0.440941125 0.647646964
vt 0.440941125 0.647646964
vt 0.440941125 0.647646964
vt 0.440941125 0.647646964
vt 0.440941125 0.647646964
vt 0.440941125 0.647646964
vt 0.440941125 0.647646964
vt 0.440941125 0.647646964
vt 0.440941125 0.647646964
vt 0.440941125 0.647646964
vt 0.440941125 0.647646964
vt 0.440941125 0.647646964
vt 0.440941125 0.647646964
vt 0.440941125 0.647646964
vt 0.440941125 0.647646964
vt 0.519686162 0.121039391
vt 0.519686162 0.121039391
vt 0.519686162 0.121039391
vt 0.519686162 0.121039391
vt 0.519686162 0.121039391
vt 0.519686162 0.121039391
vt 0.519686162 0.121039391
vt 0.519686162 0.121039391
vt 0.519686162 0.121039391
vt 0.519686162 0.121039391
vt 0.519686162 0.121039361
vt 0.519686162 0.121039391
vt 0.519686162 0.121039391
vt 0.519686162 0.121039391
vt 0.519686162 0.121039391
vt 0.519686162 0.12103942
vt 0.519686162 0.121039391
vt 0.519686162 0.121039391
vt 0.519686162 0.121039391
vt 0.519686162 0.121039391
vt 0.519686162 0.121039391
vt 0.519686162 0.121039391
vt 0.519686162 0.121039391
vt 0.519686162 0.121039391
vt 0.519686162 0.121039391
vt 0.519686162 0.121039391
vt 0.519686162 0.121039391
vt 0.519686162 0.121039391
vt 0.519686162 0.121039391
vt 0.519686162 0.121039391
vt 0.519686162 0.121039391
vt 0.519686162 0.121039391
vt 0.519686162 0.121039391
vt 0.519686162 0.121039391
vt 0.519686222 0.12103942
vt 0.519686222 0.12103942
vt 0.519686162 0.121039391
vt 0.519686162 0.121039391
vt 0.519686162 0.121039391
vt 0.519686162 0.121039391
vt 0.519686162 0.121039391
vt 0.519686162 0.121039391
vt 0.519686162 0.121039391
vt 0.519686162 0.121039391
vt 0.519686222 0.121039391
vt 0.519686162 0.121039391
vt 0.519686162 0.121039391
vt 0.519686162 0.121039391
vt 0.440941125 0.647646964
vt 0.440941125 0.647646964
vt 0.440941125 0.647646964
vt 0.440941125 0.647646964
vt 0.440941125 0.647646964
vt 0.440941125 0.647646964
vt 0.440941125 0.647646964
vt 0.440941125 0.647646964
vt 0.440941125 0.647646964
vt 0.440941125 0.647646964
vt 0.440941125 0.647646964
vt 0.440941125 0.647646964
vt 0.440941125 0.647646964
vt 0.440941125 0.647646964
vt 0.440941125 0.647646964
vt 0.440941125 0.647646964
vt 0.440941125 0.647646964
vt 0.440941125 0.647646964
vt 0.440941125 0.647646964
vt 0.440941125 0.647646964
vt 0.440941125 0.647646964
vt 0.440941125 0.647646964
vt 0.440941125 0.647646964
vt 0.440941125 0.647646964
vn -0 0 1
vn -0 0 1
vn -0 0 1
vn -0 0 1
vn -0 0 1
vn -0 0 1
vn -0 0 1
vn -0 0 1
vn -0 0 1
vn -0 0 1
vn -0 0 1
vn -0 0 1
vn -0 0 -1
vn -0 0 -1
vn -0 0 -1
vn -0 0 -1
vn -0 0 -1
vn -0 0 -1
vn -0 0 -1
vn -0 0 -1
vn -0 0 -1
vn -0 0 -1
vn -0 0 -1
vn -0 0 -1
vn -0 0 1
vn -0 0 1
vn -0 0 1
vn -0 0 1
vn -0 0 1
vn -0 0 1
vn -0 0 1
vn -0 0 1
vn -0 0 1
vn -0 0 1
vn -0 0 1
vn -0 0 1
vn -0 0 1
vn -0 0 1
vn -0 0 1
vn -0 0 1
vn -0 0 1
vn -0 0 1
vn -0 0 1
vn -0 0 1
vn -0 0 1
vn -0 0 1
vn -0 0 1
vn -0 0 1
vn -0 0 1
vn -0 0 1
vn -0 0 1
vn -0 0 1
vn -0 0 1
vn -0 0 1
vn -0 0 1
vn -0 0 1
vn -0 0 1
vn -0 0 1
vn -0 0 1
vn -0 0 1
vn -0 0 1
vn -0 0 1
vn -0 0 1
vn -0 0 1
vn -0 0 1
vn -0 0 1
vn -0 0 1
vn -0 0 1
vn -0 0 1
vn -0 0 1
vn -0 0 1
vn -0 0 1
vn 0.818110466 0.575061083 0
vn 0.499999911 0.866025507 0
vn 0.49999997 0.866025448 0
vn -0 1 0
vn 0.907072783 0.420973927 0
vn -0 1 0
vn 0.996035039 0.0889621973 0
vn -0.420974225 0.907072544 0
vn 0.99603492 -0.0889622942 0
vn -0.57506156 0.818110108 0
vn 0.907072783 -0.420973986 0
vn -0.818110943 0.575060487 0
vn 0.818110466 -0.575061083 0
vn -0.907072961 0.42097342 0
vn 0.575061083 -0.818110466 0
vn -0.996035039 0.088961862 0
vn 0.420973957 -0.907072663 0
vn -0.99603492 -0.088962689 0
vn 0.0889624134 -0.99603492 0
vn -0.907072544 -0.420974225 0
vn -0.0889621377 -0.996035039 0
vn -0.818110228 -0.575061262 0
vn -0.420973778 -0.907072783 0
vn -0.575060964 -0.818110585 0
g XMAS_Skirt_00_0_0
f 3/3/3 2/2/2 1/1/1
f 1/1/1 2/2/2 4/4/4
f 4/4/4 2/2/2 5/5/5
f 6/6/6 5/5/5 2/2/2
f 7/7/7 6/6/6 2/2/2
f 8/8/8 7/7/7 2/2/2
f 9/9/9 6/6/6 7/7/7
f 10/10/10 5/5/5 6/6/6
f 11/11/11 5/5/5 10/10/10
f 12/12/12 5/5/5 11/11/11
f 15/15/15 14/14/14 13/13/13
f 14/14/14 16/16/16 13/13/13
f 17/17/17 13/13/13 16/16/16
f 18/18/18 13/13/13 17/17/17
f 19/19/19 13/13/13 18/18/18
f 20/20/20 16/16/16 14/14/14
f 21/21/21 20/20/20 14/14/14
f 16/16/16 20/20/20 22/22/22
f 22/22/22 20/20/20 23/23/23
f 24/24/24 23/23/23 20/20/20
f 27/27/27 26/26/26 25/25/25
f 25/25/25 26/26/26 28/28/28
f 29/29/29 26/26/26 27/27/27
f 26/26/26 30/30/30 28/28/28
f 31/31/31 29/29/29 27/27/27
f 32/32/32 31/31/31 27/27/27
f 30/30/30 33/33/33 28/28/28
f 28/28/28 33/33/33 34/34/34
f 35/35/35 31/31/31 32/32/32
f 36/36/36 31/31/31 35/35/35
f 34/34/34 33/33/33 37/37/37
f 33/33/33 38/38/38 37/37/37
f 39/39/39 36/36/36 35/35/35
f 40/40/40 39/39/39 35/35/35
f 41/41/41 37/37/37 38/38/38
f 42/42/42 37/37/37 41/41/41
f 43/43/43 39/39/39 40/40/40
f 44/44/44 39/39/39 43/43/43
f 45/45/45 42/42/42 41/41/41
f 46/46/46 45/45/45 41/41/41
f 47/47/47 44/44/44 43/43/43
f 48/48/48 47/47/47 43/43/43
f 49/49/49 45/45/45 46/46/46
f 50/50/50 45/45/45 49/49/49
f 51/51/51 47/47/47 48/48/48
f 52/52/52 47/47/47 51/51/51
f 53/53/53 50/50/50 49/49/49
f 54/54/54 53/53/53 49/49/49
f 55/55/55 52/52/52 51/51/51
f 56/56/56 55/55/55 51/51/51
f 57/57/57 53/53/53 54/54/54
f 58/58/58 53/53/53 57/57/57
f 55/55/55 56/56/56 59/59/59
f 60/60/60 55/55/55 59/59/59
f 61/61/61 58/58/58 57/57/57
f 62/62/62 61/61/61 57/57/57
f 60/60/60 59/59/59 63/63/63
f 59/59/59 64/64/64 63/63/63
f 65/65/65 61/61/61 62/62/62
f 66/66/66 61/61/61 65/65/65
f 64/64/64 67/67/67 63/63/63
f 63/63/63 67/67/67 68/68/68
f 69/69/69 66/66/66 65/65/65
f 70/70/70 69/69/69 65/65/65
f 68/68/68 67/67/67 71/71/71
f 71/71/71 69/69/69 70/70/70
f 67/67/67 72/72/72 71/71/71
f 72/72/72 69/69/69 71/71/71
f 75/75/75 74/74/74 73/73/73
f 74/74/74 75/75/75 76/76/76
f 77/77/77 75/75/75 73/73/73
f 75/75/75 78/78/78 76/76/76
f 77/77/77 73/73/73 79/79/79
f 78/78/78 80/80/80 76/76/76
f 81/81/81 77/77/77 79/79/79
f 80/80/80 82/82/82 76/76/76
f 81/81/81 79/79/79 83/83/83
f 80/80/80 84/84/84 82/82/82
f 85/85/85 81/81/81 83/83/83
f 84/84/84 86/86/86 82/82/82
f 85/85/85 83/83/83 87/87/87
f 84/84/84 88/88/88 86/86/86
f 89/89/89 85/85/85 87/87/87
f 88/88/88 90/90/90 86/86/86
f 89/89/89 87/87/87 91/91/91
f 88/88/88 92/92/92 90/90/90
f 93/93/93 89/89/89 91/91/91
f 92/92/92 94/94/94 90/90/90
f 91/91/91 95/95/95 93/93/93
f 92/92/92 96/96/96 94/94/94
f 95/95/95 96/96/96 93/93/93
f 96/96/96 95/95/95 94/94/94
