# generated by LodBaker -- retail ships no LODGroup for this prop
v -1 -2.5 2.214444 1 1 1
v -1 -2.5 2.464444 1 1 1
v 1 -2.5 2.214444 1 1 1
v 1 -2.5 2.464444 1 1 1
v 1 -2.5 2.214444 1 1 1
v 1 -2.294525 2.214444 1 1 1
v -1 -2.5 2.214444 1 1 1
v -1 -2.294525 2.214444 1 1 1
v 1 3.5 -0.038571 1 1 1
v -1 3.5 -0.038571 1 1 1
v 1.244771 3.5 -0.038571 1 1 1
v 1 3.5 -0.038571 1 1 1
v 1.244771 -2.294525 2.214444 1 1 1
v 1 -2.294525 2.214444 1 1 1
v 1 3.5 -0.038571 1 1 1
v 1 3.5 0.211429 1 1 1
v -1 3.5 -0.038571 1 1 1
v -1 3.5 0.211429 1 1 1
v 1 3.5 0.211429 1 1 1
v 1 -2.5 2.464444 1 1 1
v -1 3.5 0.211429 1 1 1
v -1 -2.5 2.464444 1 1 1
v -1 -1.5 3.422444 1 1 1
v -1.244771 -1.5 3.422444 1 1 1
v -1 -1.5 2.714444 1 1 1
v -1.244771 -1.5 2.714444 1 1 1
v 1.244771 -1.5 3.422444 1 1 1
v 1 -1.5 3.422444 1 1 1
v 1.244771 -1.5 2.714444 1 1 1
v 1 -1.5 2.714444 1 1 1
v -1 3.5 -0.038571 1 1 1
v -1 3.5 0.211429 1 1 1
v -1.244771 3.5 -0.038571 1 1 1
v -1.244771 3.5 0.461429 1 1 1
v -1 3.5 0.461429 1 1 1
v 1.244771 -2.294525 -0.285556 1 1 1
v 1.244771 -2.294525 2.214444 1 1 1
v 1 -2.294525 -0.285556 1 1 1
v 1 -2.294525 2.214444 1 1 1
v -1.244771 -2.294525 2.214444 1 1 1
v -1 3.5 -0.038571 1 1 1
v -1.244771 3.5 -0.038571 1 1 1
v -1 -2.294525 2.214444 1 1 1
v 1 -2.5 -0.285556 1 1 1
v 1 -2.5 2.214444 1 1 1
v 1.244771 -2.5 -0.285556 1 1 1
v 1 -2.5 2.464444 1 1 1
v 1.244771 -2.5 3.422444 1 1 1
v 1 -2.5 3.422444 1 1 1
v 1 -1.5 2.714444 1 1 1
v 1 3.5 0.461429 1 1 1
v 1.244771 -1.5 2.714444 1 1 1
v 1.244771 3.5 0.461429 1 1 1
v -1 3.5 0.461429 1 1 1
v -1.244771 -1.5 2.714444 1 1 1
v -1.244771 3.5 0.461429 1 1 1
v -1 -1.5 2.714444 1 1 1
v 1 3.5 0.461429 1 1 1
v 1 3.5 0.211429 1 1 1
v 1.244771 3.5 0.461429 1 1 1
v 1.244771 3.5 -0.038571 1 1 1
v 1 3.5 -0.038571 1 1 1
v -1 -2.5 2.214444 1 1 1
v -1 -2.5 -0.285556 1 1 1
v -1.244771 -2.5 -0.285556 1 1 1
v -1 -2.5 2.464444 1 1 1
v -1 -2.5 3.422444 1 1 1
v -1.244771 -2.5 3.422444 1 1 1
v -1 -2.294525 -0.285556 1 1 1
v -1 -2.294525 2.214444 1 1 1
v -1.244771 -2.294525 -0.285556 1 1 1
v -1.244771 -2.294525 2.214444 1 1 1
v 1.244771 -2.294525 2.714444 1 1 1
v 1 -2.294525 2.714444 1 1 1
v 1.244771 -1.713747 2.714444 1 1 1
v 1 -1.713747 2.714444 1 1 1
v 1 -2.294525 -0.285556 1 1 1
v 1 -2.294525 2.214444 1 1 1
v 1 -2.5 -0.285556 1 1 1
v 1 -2.5 2.214444 1 1 1
v -1 -2.5 -0.285556 1 1 1
v -1 -2.5 2.214444 1 1 1
v -1 -2.294525 -0.285556 1 1 1
v -1 -2.294525 2.214444 1 1 1
v -1.244771 -1.713747 2.714444 1 1 1
v -1 -1.713747 2.714444 1 1 1
v -1.244771 -2.294525 2.714444 1 1 1
v -1 -2.294525 2.714444 1 1 1
v -1 -1.713747 3.214444 1 1 1
v -1.244771 -1.713747 3.214444 1 1 1
v -1 -2.294525 3.214444 1 1 1
v -1.244771 -2.294525 3.214444 1 1 1
v -1 3.5 0.461429 1 1 1
v -1 3.5 0.211429 1 1 1
v -1 -1.5 2.714444 1 1 1
v -1 -1.713747 2.714444 1 1 1
v -1 -2.5 2.464444 1 1 1
v -1 -1.713747 3.214444 1 1 1
v -1 -1.5 3.422444 1 1 1
v -1 -2.5 3.422444 1 1 1
v -1 -2.294525 3.214444 1 1 1
v -1 -2.294525 2.714444 1 1 1
v 1 -2.294525 3.214444 1 1 1
v 1 -2.294525 2.714444 1 1 1
v 1.244771 -2.294525 3.214444 1 1 1
v 1.244771 -2.294525 2.714444 1 1 1
v -1 -1.713747 3.214444 1 1 1
v -1 -1.713747 2.714444 1 1 1
v -1.244771 -1.713747 3.214444 1 1 1
v -1.244771 -1.713747 2.714444 1 1 1
v -1.244771 -2.294525 3.214444 1 1 1
v -1.244771 -2.294525 2.714444 1 1 1
v -1 -2.294525 3.214444 1 1 1
v -1 -2.294525 2.714444 1 1 1
v 1.244771 -1.713747 3.214444 1 1 1
v 1.244771 -1.713747 2.714444 1 1 1
v 1 -1.713747 3.214444 1 1 1
v 1 -1.713747 2.714444 1 1 1
v -1.244771 -1.5 3.422444 1 1 1
v -1 -1.5 3.422444 1 1 1
v -1.244771 -2.5 3.422444 1 1 1
v -1 -2.5 3.422444 1 1 1
v 1 -1.5 3.422444 1 1 1
v 1.244771 -1.5 3.422444 1 1 1
v 1 -2.5 3.422444 1 1 1
v 1.244771 -2.5 3.422444 1 1 1
v 1 -1.713747 3.214444 1 1 1
v 1 -2.294525 3.214444 1 1 1
v 1.244771 -1.713747 3.214444 1 1 1
v 1.244771 -2.294525 3.214444 1 1 1
v 1.244771 -2.294525 2.214444 1 1 1
v 1.244771 -2.294525 -0.285556 1 1 1
v 1.244771 -2.5 -0.285556 1 1 1
v 1.244771 -2.294525 2.714444 1 1 1
v 1.244771 -2.294525 3.214444 1 1 1
v 1.244771 -2.5 3.422444 1 1 1
v 1.244771 -1.713747 2.714444 1 1 1
v 1.244771 -1.713747 3.214444 1 1 1
v 1.244771 -1.5 3.422444 1 1 1
v 1.244771 -1.5 2.714444 1 1 1
v 1.244771 3.5 0.461429 1 1 1
v 1.244771 3.5 -0.038571 1 1 1
v 1 -2.5 2.464444 1 1 1
v 1 3.5 0.211429 1 1 1
v 1 3.5 0.461429 1 1 1
v 1 -1.5 2.714444 1 1 1
v 1 -1.713747 2.714444 1 1 1
v 1 -1.713747 3.214444 1 1 1
v 1 -1.5 3.422444 1 1 1
v 1 -2.5 3.422444 1 1 1
v 1 -2.294525 3.214444 1 1 1
v 1 -2.294525 2.714444 1 1 1
v -1.244771 -1.5 2.714444 1 1 1
v -1.244771 3.5 -0.038571 1 1 1
v -1.244771 3.5 0.461429 1 1 1
v -1.244771 -2.294525 2.214444 1 1 1
v -1.244771 -1.713747 2.714444 1 1 1
v -1.244771 -1.713747 3.214444 1 1 1
v -1.244771 -1.5 3.422444 1 1 1
v -1.244771 -2.5 3.422444 1 1 1
v -1.244771 -2.294525 3.214444 1 1 1
v -1.244771 -2.5 -0.285556 1 1 1
v -1.244771 -2.294525 2.714444 1 1 1
v -1.244771 -2.294525 -0.285556 1 1 1
vt 0.871382 0.35583502
vt 0.871382 0.35413098
vt 0.886037 0.35583502
vt 0.886037 0.35413098
vt 0.940377 0.37012202
vt 0.940377 0.37141103
vt 0.925722 0.37012202
vt 0.925722 0.37141103
vt 0.940377 0.413754
vt 0.925722 0.413754
vt 0.230038 0.729208
vt 0.228245 0.729208
vt 0.230038 0.686865
vt 0.228245 0.686865
vt 0.912578 0.371202
vt 0.910746 0.371202
vt 0.912578 0.357574
vt 0.910746 0.357574
vt 0.942171 0.413754
vt 0.942171 0.370996
vt 0.956826 0.413754
vt 0.956826 0.370996
vt 0.215383 0.68557596
vt 0.21359 0.68557596
vt 0.215383 0.68075204
vt 0.21359 0.68075204
vt 0.181326 0.68159103
vt 0.179533 0.68159103
vt 0.181326 0.67676604
vt 0.179533 0.67676604
vt 0.200445 0.673028
vt 0.198613 0.673028
vt 0.200445 0.67136
vt 0.196781 0.67136
vt 0.196781 0.673028
vt 0.182832 0.688324
vt 0.182832 0.67128897
vt 0.184626 0.688324
vt 0.184626 0.67128897
vt 0.211796 0.686865
vt 0.21359 0.729208
vt 0.211796 0.729208
vt 0.21359 0.686865
vt 0.173904 0.688324
vt 0.173904 0.67128897
vt 0.175697 0.688324
vt 0.173904 0.669585
vt 0.175697 0.66305697
vt 0.173904 0.66305697
vt 0.194183 0.688324
vt 0.194183 0.652299
vt 0.195977 0.688324
vt 0.195977 0.652299
vt 0.200445 0.688324
vt 0.202238 0.652299
vt 0.202238 0.688324
vt 0.200445 0.652299
vt 0.196781 0.686656
vt 0.198613 0.686656
vt 0.196781 0.688324
vt 0.200445 0.688324
vt 0.200445 0.686656
vt 0.159249 0.67128897
vt 0.159249 0.688324
vt 0.157455 0.688324
vt 0.159249 0.669585
vt 0.159249 0.66305697
vt 0.157455 0.66305697
vt 0.175697 0.688324
vt 0.175697 0.67128897
vt 0.177491 0.688324
vt 0.177491 0.67128897
vt 0.211796 0.674932
vt 0.21359 0.674932
vt 0.211796 0.678843
vt 0.21359 0.678843
vt 0.177491 0.688324
vt 0.177491 0.67128897
vt 0.178997 0.688324
vt 0.178997 0.67128897
vt 0.181326 0.688324
vt 0.181326 0.67128897
vt 0.182832 0.688324
vt 0.182832 0.67128897
vt 0.21359 0.676841
vt 0.215383 0.676841
vt 0.21359 0.68075204
vt 0.215383 0.68075204
vt 0.215383 0.67710996
vt 0.217177 0.67710996
vt 0.215383 0.68075204
vt 0.217177 0.68075204
vt 0.187622 0.642733
vt 0.189259 0.64197004
vt 0.189264 0.680071
vt 0.189966 0.681373
vt 0.194183 0.68540096
vt 0.18669 0.682899
vt 0.184626 0.682231
vt 0.187907 0.688324
vt 0.188595 0.686437
vt 0.191871 0.68491197
vt 0.215383 0.67710996
vt 0.215383 0.673703
vt 0.217177 0.67710996
vt 0.217177 0.673703
vt 0.21359 0.676841
vt 0.21359 0.673434
vt 0.215383 0.676841
vt 0.215383 0.673434
vt 0.179533 0.67676604
vt 0.179533 0.67335904
vt 0.181326 0.67676604
vt 0.181326 0.67335904
vt 0.217177 0.68557596
vt 0.217177 0.68216896
vt 0.21897 0.68557596
vt 0.21897 0.68216896
vt 0.179533 0.68159103
vt 0.181326 0.68159103
vt 0.179533 0.688324
vt 0.181326 0.688324
vt 0.211796 0.678843
vt 0.21359 0.678843
vt 0.211796 0.68557596
vt 0.21359 0.68557596
vt 0.217177 0.681934
vt 0.217177 0.68557596
vt 0.215383 0.681934
vt 0.215383 0.68557596
vt 0.202944 0.68972397
vt 0.184626 0.68972397
vt 0.184626 0.688324
vt 0.206608 0.68972397
vt 0.210272 0.68972397
vt 0.211796 0.688324
vt 0.206608 0.693681
vt 0.210272 0.693681
vt 0.211796 0.695138
vt 0.206608 0.695138
vt 0.190099 0.729208
vt 0.186435 0.729208
vt 0.211796 0.644893
vt 0.206872 0.688324
vt 0.205234 0.68756104
vt 0.206877 0.650223
vt 0.207578 0.648921
vt 0.204302 0.647395
vt 0.202238 0.648063
vt 0.205519 0.64197004
vt 0.206208 0.643857
vt 0.209484 0.645382
vt 0.162643 0.695138
vt 0.182816 0.729208
vt 0.179152 0.729208
vt 0.166307 0.68972397
vt 0.162643 0.693681
vt 0.158979 0.693681
vt 0.157455 0.695138
vt 0.157455 0.688324
vt 0.158979 0.68972397
vt 0.184626 0.688324
vt 0.162643 0.68972397
vt 0.184626 0.68972397
vn 0 -1 -1.5259022E-05
vn 0 -1 -1.5259022E-05
vn 0 -1 -1.5259022E-05
vn 0 -1 -1.5259022E-05
vn 0 0 -1
vn 0 0 -1
vn 0 0 -1
vn 0 0 -1
vn 0 0 -1
vn 0 0 -1
vn 0 0 -1
vn 0 0 -1
vn 0 0 -1
vn 0 0 -1
vn 0 1 -1.5259022E-05
vn 0 1 -1.5259022E-05
vn 0 1 -1.5259022E-05
vn 0 1 -1.5259022E-05
vn -1.5259255E-05 -1.5259255E-05 1
vn -1.5259255E-05 -1.5259255E-05 1
vn -1.5259255E-05 -1.5259255E-05 1
vn -1.5259255E-05 -1.5259255E-05 1
vn 0 1 -1.5259022E-05
vn 0 1 -1.5259022E-05
vn 0 1 -1.5259022E-05
vn 0 1 -1.5259022E-05
vn 0 1 -1.5259022E-05
vn 0 1 -1.5259022E-05
vn 0 1 -1.5259022E-05
vn 0 1 -1.5259022E-05
vn 0 1 -1.5259022E-05
vn 0 1 -1.5259022E-05
vn 0 1 -1.5259022E-05
vn 0 1 -1.5259022E-05
vn 0 1 -1.5259022E-05
vn 0 1 -1.5259022E-05
vn 0 1 -1.5259022E-05
vn 0 1 -1.5259022E-05
vn 0 1 -1.5259022E-05
vn 0 0 -1
vn 0 0 -1
vn 0 0 -1
vn 0 0 -1
vn 0 -1 -1.5259022E-05
vn 0 -1 -1.5259022E-05
vn 0 -1 -1.5259022E-05
vn 0 -1 -1.5259022E-05
vn 0 -1 -1.5259022E-05
vn 0 -1 -1.5259022E-05
vn -1.8504332E-05 0.24254005 0.97014135
vn -1.5259255E-05 -1.5259255E-05 1
vn -1.8504332E-05 0.24254005 0.97014135
vn -1.5259255E-05 -1.5259255E-05 1
vn -1.5259255E-05 -1.5259255E-05 1
vn -1.8504332E-05 0.24254005 0.97014135
vn -1.5259255E-05 -1.5259255E-05 1
vn -1.8504332E-05 0.24254005 0.97014135
vn 0 1 -1.5259022E-05
vn 0 1 -1.5259022E-05
vn 0 1 -1.5259022E-05
vn 0 1 -1.5259022E-05
vn 0 1 -1.5259022E-05
vn 0 -1 -1.5259022E-05
vn 0 -1 -1.5259022E-05
vn 0 -1 -1.5259022E-05
vn 0 -1 -1.5259022E-05
vn 0 -1 -1.5259022E-05
vn 0 -1 -1.5259022E-05
vn 0 1 -1.5259022E-05
vn 0 1 -1.5259022E-05
vn 0 1 -1.5259022E-05
vn 0 1 -1.5259022E-05
vn -1.5259255E-05 -1.5259255E-05 1
vn -1.5259255E-05 -1.5259255E-05 1
vn -1.5259255E-05 -1.5259255E-05 1
vn -1.5259255E-05 -1.5259255E-05 1
vn -1 0 -1.5259022E-05
vn -1 0 -1.5259022E-05
vn -1 0 -1.5259022E-05
vn -1 0 -1.5259022E-05
vn 1 0 -1.5259022E-05
vn 1 0 -1.5259022E-05
vn 1 0 -1.5259022E-05
vn 1 0 -1.5259022E-05
vn -1.5259255E-05 -1.5259255E-05 1
vn -1.5259255E-05 -1.5259255E-05 1
vn -1.5259255E-05 -1.5259255E-05 1
vn -1.5259255E-05 -1.5259255E-05 1
vn 0 0 -1
vn 0 0 -1
vn 0 0 -1
vn 0 0 -1
vn 1 0 -1.5259022E-05
vn 1 0 -1.5259022E-05
vn 1 0 -1.5259022E-05
vn 1 0 -1.5259022E-05
vn 1 0 -1.5259022E-05
vn 1 0 -1.5259022E-05
vn 1 0 -1.5259022E-05
vn 1 0 -1.5259022E-05
vn 1 0 -1.5259022E-05
vn 1 0 -1.5259022E-05
vn 0 1 -1.5259022E-05
vn 0 1 -1.5259022E-05
vn 0 1 -1.5259022E-05
vn 0 1 -1.5259022E-05
vn 0 -1 -1.5259022E-05
vn 0 -1 -1.5259022E-05
vn 0 -1 -1.5259022E-05
vn 0 -1 -1.5259022E-05
vn 0 1 -1.5259022E-05
vn 0 1 -1.5259022E-05
vn 0 1 -1.5259022E-05
vn 0 1 -1.5259022E-05
vn 0 -1 -1.5259022E-05
vn 0 -1 -1.5259022E-05
vn 0 -1 -1.5259022E-05
vn 0 -1 -1.5259022E-05
vn -1.5259255E-05 -1.5259255E-05 1
vn -1.5259255E-05 -1.5259255E-05 1
vn -1.5259255E-05 -1.5259255E-05 1
vn -1.5259255E-05 -1.5259255E-05 1
vn -1.5259255E-05 -1.5259255E-05 1
vn -1.5259255E-05 -1.5259255E-05 1
vn -1.5259255E-05 -1.5259255E-05 1
vn -1.5259255E-05 -1.5259255E-05 1
vn 0 0 -1
vn 0 0 -1
vn 0 0 -1
vn 0 0 -1
vn 1 0 -1.5259022E-05
vn 1 0 -1.5259022E-05
vn 1 0 -1.5259022E-05
vn 1 0 -1.5259022E-05
vn 1 0 -1.5259022E-05
vn 1 0 -1.5259022E-05
vn 1 0 -1.5259022E-05
vn 1 0 -1.5259022E-05
vn 1 0 -1.5259022E-05
vn 1 0 -1.5259022E-05
vn 1 0 -1.5259022E-05
vn 1 0 -1.5259022E-05
vn -1 0 -1.5259022E-05
vn -1 0 -1.5259022E-05
vn -1 0 -1.5259022E-05
vn -1 0 -1.5259022E-05
vn -1 0 -1.5259022E-05
vn -1 0 -1.5259022E-05
vn -1 0 -1.5259022E-05
vn -1 0 -1.5259022E-05
vn -1 0 -1.5259022E-05
vn -1 0 -1.5259022E-05
vn -1 0 -1.5259022E-05
vn -1 0 -1.5259022E-05
vn -1 0 -1.5259022E-05
vn -1 0 -1.5259022E-05
vn -1 0 -1.5259022E-05
vn -1 0 -1.5259022E-05
vn -1 0 -1.5259022E-05
vn -1 0 -1.5259022E-05
vn -1 0 -1.5259022E-05
vn -1 0 -1.5259022E-05
vn -1 0 -1.5259022E-05
vn -1 0 -1.5259022E-05
f 3/3/3 2/2/2 1/1/1
f 3/3/3 4/4/4 2/2/2
f 7/7/7 6/6/6 5/5/5
f 6/6/6 7/7/7 8/8/8
f 9/9/9 6/6/6 8/8/8
f 9/9/9 8/8/8 10/10/10
f 13/13/13 12/12/12 11/11/11
f 13/13/13 14/14/14 12/12/12
f 17/17/17 16/16/16 15/15/15
f 17/17/17 18/18/18 16/16/16
f 21/21/21 20/20/20 19/19/19
f 20/20/20 21/21/21 22/22/22
f 25/25/25 24/24/24 23/23/23
f 25/25/25 26/26/26 24/24/24
f 29/29/29 28/28/28 27/27/27
f 29/29/29 30/30/30 28/28/28
f 33/33/33 32/32/32 31/31/31
f 33/33/33 34/34/34 32/32/32
f 32/32/32 34/34/34 35/35/35
f 38/38/38 37/37/37 36/36/36
f 38/38/38 39/39/39 37/37/37
f 42/42/42 41/41/41 40/40/40
f 40/40/40 41/41/41 43/43/43
f 46/46/46 45/45/45 44/44/44
f 46/46/46 47/47/47 45/45/45
f 46/46/46 48/48/48 47/47/47
f 47/47/47 48/48/48 49/49/49
f 52/52/52 51/51/51 50/50/50
f 52/52/52 53/53/53 51/51/51
f 56/56/56 55/55/55 54/54/54
f 55/55/55 57/57/57 54/54/54
f 60/60/60 59/59/59 58/58/58
f 60/60/60 61/61/61 59/59/59
f 59/59/59 61/61/61 62/62/62
f 65/65/65 64/64/64 63/63/63
f 63/63/63 66/66/66 65/65/65
f 65/65/65 66/66/66 67/67/67
f 65/65/65 67/67/67 68/68/68
f 71/71/71 70/70/70 69/69/69
f 71/71/71 72/72/72 70/70/70
f 75/75/75 74/74/74 73/73/73
f 75/75/75 76/76/76 74/74/74
f 79/79/79 78/78/78 77/77/77
f 79/79/79 80/80/80 78/78/78
f 83/83/83 82/82/82 81/81/81
f 83/83/83 84/84/84 82/82/82
f 87/87/87 86/86/86 85/85/85
f 87/87/87 88/88/88 86/86/86
f 91/91/91 90/90/90 89/89/89
f 91/91/91 92/92/92 90/90/90
f 95/95/95 94/94/94 93/93/93
f 96/96/96 94/94/94 95/95/95
f 97/97/97 94/94/94 96/96/96
f 96/96/96 95/95/95 98/98/98
f 98/98/98 95/95/95 99/99/99
f 98/98/98 99/99/99 100/100/100
f 98/98/98 100/100/100 101/101/101
f 97/97/97 96/96/96 102/102/102
f 100/100/100 102/102/102 101/101/101
f 100/100/100 97/97/97 102/102/102
f 105/105/105 104/104/104 103/103/103
f 105/105/105 106/106/106 104/104/104
f 109/109/109 108/108/108 107/107/107
f 109/109/109 110/110/110 108/108/108
f 113/113/113 112/112/112 111/111/111
f 113/113/113 114/114/114 112/112/112
f 117/117/117 116/116/116 115/115/115
f 117/117/117 118/118/118 116/116/116
f 121/121/121 120/120/120 119/119/119
f 121/121/121 122/122/122 120/120/120
f 125/125/125 124/124/124 123/123/123
f 125/125/125 126/126/126 124/124/124
f 129/129/129 128/128/128 127/127/127
f 129/129/129 130/130/130 128/128/128
f 133/133/133 132/132/132 131/131/131
f 134/134/134 133/133/133 131/131/131
f 133/133/133 134/134/134 135/135/135
f 133/133/133 135/135/135 136/136/136
f 134/134/134 131/131/131 137/137/137
f 138/138/138 136/136/136 135/135/135
f 138/138/138 139/139/139 136/136/136
f 138/138/138 140/140/140 139/139/139
f 137/137/137 140/140/140 138/138/138
f 131/131/131 140/140/140 137/137/137
f 140/140/140 131/131/131 141/141/141
f 142/142/142 141/141/141 131/131/131
f 145/145/145 144/144/144 143/143/143
f 145/145/145 143/143/143 146/146/146
f 143/143/143 147/147/147 146/146/146
f 148/148/148 146/146/146 147/147/147
f 148/148/148 149/149/149 146/146/146
f 149/149/149 148/148/148 150/150/150
f 150/150/150 148/148/148 151/151/151
f 150/150/150 151/151/151 143/143/143
f 147/147/147 143/143/143 152/152/152
f 152/152/152 143/143/143 151/151/151
f 155/155/155 154/154/154 153/153/153
f 156/156/156 153/153/153 154/154/154
f 153/153/153 156/156/156 157/157/157
f 158/158/158 153/153/153 157/157/157
f 158/158/158 159/159/159 153/153/153
f 160/160/160 159/159/159 158/158/158
f 161/161/161 160/160/160 158/158/158
f 161/161/161 162/162/162 160/160/160
f 161/161/161 163/163/163 162/162/162
f 156/156/156 163/163/163 157/157/157
f 162/162/162 163/163/163 156/156/156
f 162/162/162 156/156/156 164/164/164
