v -0.142835 1.556224 -0.175315
v 0.447537 1.280268 -0.367212
v 0.505282 0.862204 0.398845
v -0.136093 1.036877 0.329961
v -0.656793 0.920627 0.209409
v -1.014901 1.148584 -0.437577
v -0.582864 1.563183 -0.822892
v -1.292089 0.550000 -0.328234
v -1.138172 1.116892 -1.604365
v -1.436526 0.550000 -2.046012
v 0.399358 1.232646 -1.006356
v 1.006161 0.550000 -1.604446
v 1.234259 0.651444 -0.205326
v 0.447537 1.280268 -0.367212
v -0.142835 1.556224 -0.175315
v -0.582864 1.563183 -0.822892
v -0.263680 1.132267 -1.697113
v 1.006161 0.550000 -1.604446
v -1.138172 1.116892 -1.604365
v -0.070669 0.550000 -2.183763
v -1.436526 0.550000 -2.046012
v 0.447537 1.280268 -0.367212
v 1.234259 0.651444 -0.205326
v 0.941046 0.651444 0.913230
v 0.505282 0.862204 0.398845
v -0.099987 0.712514 1.175934
v -0.136093 1.036877 0.329961
v -1.112668 0.671750 0.895124
v -0.656793 0.920627 0.209409
v -1.292089 0.550000 -0.328234
v -2.086018 0.149261 -2.816055
v -1.436526 0.550000 -2.046012
v -1.884111 0.149261 -0.414791
v -1.600154 0.550000 1.462749
v -2.314752 0.149261 2.088806
v -1.112668 0.671750 0.895124
v -0.099987 0.712514 1.175934
v -0.213798 0.550000 1.846924
v -2.314752 0.149261 2.088806
v 0.941046 0.651444 0.913230
v -0.376778 0.149261 2.625840
v 1.663814 0.550000 1.803256
v 2.247915 0.149261 2.564796
v 1.234259 0.651444 -0.205326
v 1.957027 0.550000 0.684700
v 2.247915 0.149261 2.564796
v 2.657794 0.149261 1.001179
v 1.748570 0.550000 -0.631425
v 2.366395 0.149261 -0.838619
v 1.006161 0.550000 -1.604446
v 1.328588 0.149261 -2.198794
v -0.070669 0.550000 -2.183763
v -0.176700 0.149260 -3.008615
v -1.436526 0.550000 -2.046012
v -2.086018 0.149261 -2.816055
vt 0.0669022202 0.746078253
vt 0.0669022202 0.746078253
vt 0.0669022202 0.746078253
vt 0.0669022202 0.746078253
vt 0.0669022202 0.746078253
vt 0.0669022202 0.746078253
vt 0.0669022202 0.746078253
vt 0.0669022202 0.746078253
vt 0.0669022202 0.746078253
vt 0.0669022202 0.746078253
vt 0.0669022202 0.746078253
vt 0.0669022202 0.746078253
vt 0.0669022202 0.746078253
vt 0.0669022202 0.746078253
vt 0.0669022202 0.746078253
vt 0.0669022202 0.746078253
vt 0.0669022202 0.746078253
vt 0.0669022202 0.746078253
vt 0.0669022202 0.746078253
vt 0.0669022202 0.746078253
vt 0.0669022202 0.746078253
vt 0.0669022202 0.746078253
vt 0.0669022202 0.746078253
vt 0.0669022202 0.746078253
vt 0.0669022202 0.746078253
vt 0.0669022202 0.746078253
vt 0.0669022202 0.746078253
vt 0.0669022202 0.746078253
vt 0.0669022202 0.746078253
vt 0.0669022202 0.746078253
vt 0.0669022202 0.746078253
vt 0.0669022202 0.746078253
vt 0.0669022202 0.746078253
vt 0.0669022202 0.746078253
vt 0.0669022202 0.746078253
vt 0.0669022202 0.746078253
vt 0.0669022202 0.746078253
vt 0.0669022202 0.746078253
vt 0.0669022202 0.746078253
vt 0.0669022202 0.746078253
vt 0.0669022202 0.746078253
vt 0.0669022202 0.746078253
vt 0.0669022202 0.746078253
vt 0.0669022202 0.746078253
vt 0.0669022202 0.746078253
vt 0.0669022202 0.746078253
vt 0.0669022202 0.746078253
vt 0.0669022202 0.746078253
vt 0.0669022202 0.746078253
vt 0.0669022202 0.746078253
vt 0.0669022202 0.746078253
vt 0.0669022202 0.746078253
vt 0.0669022202 0.746078253
vt 0.0669022202 0.746078253
vt 0.0669022202 0.746078253
vn -0.135938 0.814829 0.563537
vn 0.490811 0.779816 0.388576
vn 0.308601 0.760661 0.571104
vn -0.081320 0.694478 0.714903
vn -0.502043 0.632298 0.590044
vn -0.721047 0.620523 0.308290
vn -0.580862 0.789502 0.198208
vn -0.853767 0.440401 0.277722
vn -0.862261 0.501067 0.073744
vn -0.902592 0.423165 0.079117
vn 0.455618 0.839994 -0.294657
vn 0.654196 0.742686 -0.142989
vn 0.654196 0.742686 -0.142989
vn 0.528374 0.840284 -0.121424
vn 0.322705 0.934029 -0.153137
vn 0.170870 0.930184 -0.324901
vn 0.129713 0.791960 -0.596636
vn 0.375891 0.728648 -0.572519
vn -0.078107 0.738016 -0.670247
vn 0.171373 0.707140 -0.685991
vn -0.083695 0.630817 -0.771405
vn 0.452222 0.857126 0.246638
vn 0.452222 0.857126 0.246638
vn 0.304356 0.909347 0.283645
vn 0.316743 0.905964 0.280896
vn 0.002715 0.950348 0.311178
vn -0.026628 0.950216 0.310452
vn -0.309504 0.933323 0.181975
vn -0.324560 0.930921 0.167475
vn -0.495094 0.868729 -0.013844
vn -0.564672 0.823948 0.047480
vn -0.564672 0.823948 0.047480
vn -0.558443 0.829304 -0.019916
vn -0.307641 0.939593 0.150073
vn -0.548555 0.830773 -0.094356
vn -0.192764 0.979160 0.063931
vn 0.033249 0.973655 0.225591
vn -0.030639 0.942343 0.333244
vn -0.120306 0.892774 0.434144
vn 0.069077 0.994149 0.083042
vn -0.058295 0.892614 0.447037
vn 0.186308 0.954995 0.230813
vn 0.010680 0.888255 0.459227
vn 0.139051 0.989788 -0.031377
vn 0.337153 0.941424 0.007024
vn 0.452054 0.884084 0.118499
vn 0.481667 0.875353 0.041872
vn 0.341012 0.927513 -0.153072
vn 0.484323 0.851211 -0.202165
vn 0.323505 0.878123 -0.352483
vn 0.327087 0.856224 -0.399868
vn 0.122649 0.886388 -0.446401
vn 0.068217 0.893897 -0.443052
vn -0.043572 0.900803 -0.432037
vn -0.043572 0.900803 -0.432037
f 3/3/3 2/2/2 1/1/1
f 3/3/3 1/1/1 4/4/4
f 4/4/4 1/1/1 5/5/5
f 6/6/6 5/5/5 1/1/1
f 6/6/6 1/1/1 7/7/7
f 6/6/6 8/8/8 5/5/5
f 7/7/7 9/9/9 6/6/6
f 6/6/6 9/9/9 8/8/8
f 9/9/9 10/10/10 8/8/8
f 13/13/13 12/12/12 11/11/11
f 14/14/14 13/13/13 11/11/11
f 14/14/14 11/11/11 15/15/15
f 16/16/16 15/15/15 11/11/11
f 17/17/17 16/16/16 11/11/11
f 17/17/17 11/11/11 18/18/18
f 16/16/16 17/17/17 19/19/19
f 20/20/20 17/17/17 18/18/18
f 19/19/19 17/17/17 21/21/21
f 17/17/17 20/20/20 21/21/21
f 24/24/24 23/23/23 22/22/22
f 25/25/25 24/24/24 22/22/22
f 24/24/24 25/25/25 26/26/26
f 25/25/25 27/27/27 26/26/26
f 26/26/26 27/27/27 28/28/28
f 27/27/27 29/29/29 28/28/28
f 30/30/30 28/28/28 29/29/29
f 32/32/32 31/31/31 30/30/30
f 31/31/31 33/33/33 30/30/30
f 30/30/30 33/33/33 34/34/34
f 33/33/33 35/35/35 34/34/34
f 30/30/30 34/34/34 36/36/36
f 36/36/36 34/34/34 37/37/37
f 34/34/34 38/38/38 37/37/37
f 34/34/34 39/39/39 38/38/38
f 37/37/37 38/38/38 40/40/40
f 39/39/39 41/41/41 38/38/38
f 38/38/38 42/42/42 40/40/40
f 38/38/38 41/41/41 42/42/42
f 41/41/41 43/43/43 42/42/42
f 40/40/40 42/42/42 44/44/44
f 42/42/42 45/45/45 44/44/44
f 42/42/42 46/46/46 45/45/45
f 46/46/46 47/47/47 45/45/45
f 45/45/45 48/48/48 44/44/44
f 45/45/45 47/47/47 48/48/48
f 47/47/47 49/49/49 48/48/48
f 48/48/48 50/50/50 44/44/44
f 48/48/48 49/49/49 50/50/50
f 49/49/49 51/51/51 50/50/50
f 50/50/50 51/51/51 52/52/52
f 51/51/51 53/53/53 52/52/52
f 52/52/52 53/53/53 54/54/54
f 53/53/53 55/55/55 54/54/54
