# generated by LodBaker -- retail ships no LODGroup for this prop
v -0.060914226 -0.06091421 -0.88 1 1 1
v -0.06091421 0.060914226 -0.88 1 1 1
v -0.060914226 -0.06091421 0.887261 1 1 1
v -0.16822815 -0.37985465 -1.138412 1 1 1
v -0.7391753 -0.37985456 -1.202945 1 1 1
v -0.8119775 -0.37985456 -1.138412 1 1 1
v -0.24103035 -0.37985465 -1.202945 1 1 1
v -0.16822815 -0.37985465 -1.567579 1 1 1
v -0.24103035 -0.37985465 -1.202945 1 1 1
v -0.16822815 -0.37985465 -1.138412 1 1 1
v -0.24103035 -0.37985465 -1.503046 1 1 1
v -0.8119775 -0.37985456 -1.567579 1 1 1
v -0.24103035 -0.37985465 -1.503046 1 1 1
v -0.16822815 -0.37985465 -1.567579 1 1 1
v -0.7391753 -0.37985456 -1.503046 1 1 1
v 0.81197745 -0.1398548 -1.567579 1 1 1
v 0.8119774 -0.3798548 -1.138412 1 1 1
v 0.81197745 -0.1398548 -1.138412 1 1 1
v 0.8119774 -0.3798548 -1.567579 1 1 1
v 0.16822803 -0.3798547 -1.138412 1 1 1
v 0.7391752 -0.3798548 -1.202945 1 1 1
v 0.24103023 -0.3798547 -1.202945 1 1 1
v 0.8119774 -0.3798548 -1.138412 1 1 1
v 0.16822803 -0.3798547 -1.567579 1 1 1
v 0.16822807 -0.13985471 -1.138412 1 1 1
v 0.16822803 -0.3798547 -1.138412 1 1 1
v 0.16822807 -0.13985471 -1.567579 1 1 1
v 0.16822807 -0.13985471 -1.567579 1 1 1
v 0.81197745 -0.1398548 -1.138412 1 1 1
v 0.16822807 -0.13985471 -1.138412 1 1 1
v 0.81197745 -0.1398548 -1.567579 1 1 1
v 0.81197745 -0.1398548 -1.138412 1 1 1
v 0.16822803 -0.3798547 -1.138412 1 1 1
v 0.8119774 -0.3798548 -1.567579 1 1 1
v 0.81197745 -0.1398548 -1.567579 1 1 1
v 0.16822803 -0.3798547 -1.567579 1 1 1
v 0.24103023 -0.3798547 -1.202945 1 1 1
v 0.7391752 -0.25779593 -1.202945 1 1 1
v 0.24103025 -0.25779584 -1.202945 1 1 1
v 0.7391752 -0.3798548 -1.202945 1 1 1
v 0.24103023 -0.3798547 -1.202945 1 1 1
v 0.24103023 -0.3798547 -1.503046 1 1 1
v 0.16822803 -0.3798547 -1.138412 1 1 1
v 0.8119774 -0.3798548 -1.567579 1 1 1
v 0.24103023 -0.3798547 -1.503046 1 1 1
v 0.7391752 -0.3798548 -1.503046 1 1 1
v 0.8119774 -0.3798548 -1.138412 1 1 1
v 0.7391752 -0.3798548 -1.503046 1 1 1
v 0.7391752 -0.3798548 -1.202945 1 1 1
v 0.7391752 -0.25779593 -1.503046 1 1 1
v 0.24103025 -0.25779584 -1.202945 1 1 1
v 0.7391752 -0.25779593 -1.202945 1 1 1
v 0.24103025 -0.25779584 -1.503046 1 1 1
v 0.24103023 -0.3798547 -1.503046 1 1 1
v 0.24103025 -0.25779584 -1.202945 1 1 1
v 0.24103025 -0.25779584 -1.503046 1 1 1
v 0.24103023 -0.3798547 -1.202945 1 1 1
v 0.7391752 -0.3798548 -1.503046 1 1 1
v 0.24103025 -0.25779584 -1.503046 1 1 1
v 0.7391752 -0.25779593 -1.503046 1 1 1
v 0.24103023 -0.3798547 -1.503046 1 1 1
v 0.7391752 -0.3798548 -1.202945 1 1 1
v 0.7391752 -0.25779593 -1.503046 1 1 1
v 0.7391752 -0.25779593 -1.202945 1 1 1
v 0.7391752 -0.3798548 -1.503046 1 1 1
v 0.44091418 -0.18091428 -1.42 1 1 1
v 0.5609142 -0.18091431 -1.42 1 1 1
v 0.5609142 -0.18091431 -1.3 1 1 1
v 0.44091418 -0.18091428 -1.3 1 1 1
v -0.81197745 -0.13985457 -1.567579 1 1 1
v -0.8119775 -0.37985456 -1.138412 1 1 1
v -0.8119775 -0.37985456 -1.567579 1 1 1
v -0.81197745 -0.13985457 -1.138412 1 1 1
v -0.1682281 -0.13985465 -1.138412 1 1 1
v -0.1682281 -0.13985465 -1.567579 1 1 1
v -0.16822815 -0.37985465 -1.138412 1 1 1
v -0.1682281 -0.13985465 -1.567579 1 1 1
v -0.81197745 -0.13985457 -1.138412 1 1 1
v -0.81197745 -0.13985457 -1.567579 1 1 1
v -0.1682281 -0.13985465 -1.138412 1 1 1
v -0.81197745 -0.13985457 -1.138412 1 1 1
v -0.16822815 -0.37985465 -1.138412 1 1 1
v -0.8119775 -0.37985456 -1.567579 1 1 1
v -0.81197745 -0.13985457 -1.567579 1 1 1
v -0.24103035 -0.37985465 -1.202945 1 1 1
v -0.7391753 -0.2577957 -1.202945 1 1 1
v -0.7391753 -0.37985456 -1.202945 1 1 1
v -0.24103034 -0.25779578 -1.202945 1 1 1
v -0.8119775 -0.37985456 -1.138412 1 1 1
v -0.7391753 -0.37985456 -1.503046 1 1 1
v -0.7391753 -0.37985456 -1.202945 1 1 1
v -0.7391753 -0.2577957 -1.503046 1 1 1
v -0.24103034 -0.25779578 -1.202945 1 1 1
v -0.24103034 -0.25779578 -1.503046 1 1 1
v -0.7391753 -0.2577957 -1.202945 1 1 1
v -0.24103035 -0.37985465 -1.503046 1 1 1
v -0.24103034 -0.25779578 -1.202945 1 1 1
v -0.24103035 -0.37985465 -1.202945 1 1 1
v -0.24103034 -0.25779578 -1.503046 1 1 1
v -0.7391753 -0.37985456 -1.503046 1 1 1
v -0.24103034 -0.25779578 -1.503046 1 1 1
v -0.24103035 -0.37985465 -1.503046 1 1 1
v -0.7391753 -0.2577957 -1.503046 1 1 1
v -0.7391753 -0.37985456 -1.202945 1 1 1
v -0.7391753 -0.2577957 -1.503046 1 1 1
v -0.7391753 -0.37985456 -1.503046 1 1 1
v -0.7391753 -0.2577957 -1.202945 1 1 1
vt 0.8230261 0.28562152
vt 0.8230504 0.2856717
vt 0.76199853 0.31542432
vt 0.23475432 0.26759857
vt 0.30841196 0.19394094
vt 0.23475432 0.19394094
vt 0.30841196 0.26759857
vt 0.23475432 0.26759857
vt 0.30841196 0.19394094
vt 0.23475432 0.19394094
vt 0.30841196 0.26759857
vt 0.23475432 0.26759857
vt 0.30841196 0.19394094
vt 0.23475432 0.19394094
vt 0.30841196 0.26759857
vt 0.23475432 0.26759857
vt 0.30841196 0.19394094
vt 0.23475432 0.19394094
vt 0.30841196 0.26759857
vt 0.23475432 0.26759857
vt 0.30841196 0.19394094
vt 0.23475432 0.19394094
vt 0.30841196 0.26759857
vt 0.23475432 0.26759857
vt 0.30841196 0.19394094
vt 0.23475432 0.19394094
vt 0.30841196 0.26759857
vt 0.23475432 0.26759857
vt 0.30841196 0.19394094
vt 0.23475432 0.19394094
vt 0.30841196 0.26759857
vt 0.23475432 0.26759857
vt 0.30841196 0.19394094
vt 0.30841196 0.19394094
vt 0.23475432 0.19394094
vt 0.30841196 0.26759857
vt 0.23475432 0.26759857
vt 0.30841196 0.19394094
vt 0.23475432 0.19394094
vt 0.30841196 0.26759857
vt 0.30841196 0.19394094
vt 0.23475432 0.19394094
vt 0.30841196 0.26759857
vt 0.23475432 0.26759857
vt 0.30841196 0.19394094
vt 0.23475432 0.19394094
vt 0.23475432 0.26759857
vt 0.30841196 0.19394094
vt 0.23475432 0.19394094
vt 0.6846244 0.7983575
vt 0.758282 0.72469985
vt 0.6846244 0.72469985
vt 0.758282 0.7983575
vt 0.23475432 0.26759857
vt 0.30841196 0.19394094
vt 0.23475432 0.19394094
vt 0.30841196 0.26759857
vt 0.23475432 0.26759857
vt 0.30841196 0.19394094
vt 0.23475432 0.19394094
vt 0.30841196 0.26759857
vt 0.23475432 0.26759857
vt 0.30841196 0.19394094
vt 0.23475432 0.19394094
vt 0.30841196 0.26759857
vt 0.82291025 0.2857089
vt 0.8229102 0.2857089
vt 0.8229102 0.2857089
vt 0.82291025 0.2857089
vt 0.23475432 0.26759857
vt 0.30841196 0.19394094
vt 0.23475432 0.19394094
vt 0.30841196 0.26759857
vt 0.30841196 0.19394094
vt 0.23475432 0.19394094
vt 0.30841196 0.26759857
vt 0.23475432 0.26759857
vt 0.30841196 0.19394094
vt 0.23475432 0.19394094
vt 0.30841196 0.26759857
vt 0.23475432 0.26759857
vt 0.30841196 0.19394094
vt 0.30841196 0.19394094
vt 0.30841196 0.26759857
vt 0.23475432 0.26759857
vt 0.30841196 0.19394094
vt 0.23475432 0.19394094
vt 0.30841196 0.26759857
vt 0.23475432 0.26759857
vt 0.30841196 0.19394094
vt 0.30841196 0.26759857
vt 0.6846244 0.7983575
vt 0.758282 0.72469985
vt 0.6846244 0.72469985
vt 0.758282 0.7983575
vt 0.23475432 0.26759857
vt 0.30841196 0.19394094
vt 0.23475432 0.19394094
vt 0.30841196 0.26759857
vt 0.23475432 0.26759857
vt 0.30841196 0.19394094
vt 0.23475432 0.19394094
vt 0.30841196 0.26759857
vt 0.23475432 0.26759857
vt 0.30841196 0.19394094
vt 0.23475432 0.19394094
vt 0.30841196 0.26759857
vn 0 -1 -1.5259022E-05
vn -1 0 -1.5259022E-05
vn 0 -1 -1.5259022E-05
vn 0 -1 -1.5259022E-05
vn 0 -1 -1.5259022E-05
vn 0 -1 -1.5259022E-05
vn 0 -1 -1.5259022E-05
vn 0 -1 -1.5259022E-05
vn 0 -1 -1.5259022E-05
vn 0 -1 -1.5259022E-05
vn 0 -1 -1.5259022E-05
vn 0 -1 -1.5259022E-05
vn 0 -1 -1.5259022E-05
vn 0 -1 -1.5259022E-05
vn 0 -1 -1.5259022E-05
vn 1 0 -1.5259022E-05
vn 1 0 -1.5259022E-05
vn 1 0 -1.5259022E-05
vn 1 0 -1.5259022E-05
vn 0 -1 -1.5259022E-05
vn 0 -1 -1.5259022E-05
vn 0 -1 -1.5259022E-05
vn 0 -1 -1.5259022E-05
vn -1 0 -1.5259022E-05
vn -1 0 -1.5259022E-05
vn -1 0 -1.5259022E-05
vn -1 0 -1.5259022E-05
vn 0 1 -1.5259022E-05
vn 0 1 -1.5259022E-05
vn 0 1 -1.5259022E-05
vn 0 1 -1.5259022E-05
vn -1.5259255E-05 -1.5259255E-05 1
vn -1.5259255E-05 -1.5259255E-05 1
vn 0 0 -1
vn 0 0 -1
vn 0 0 -1
vn 0 0 -1
vn 0 0 -1
vn 0 0 -1
vn 0 0 -1
vn 0 -1 -1.5259022E-05
vn 0 -1 -1.5259022E-05
vn 0 -1 -1.5259022E-05
vn 0 -1 -1.5259022E-05
vn 0 -1 -1.5259022E-05
vn 0 -1 -1.5259022E-05
vn 0 -1 -1.5259022E-05
vn 0 -1 -1.5259022E-05
vn 0 -1 -1.5259022E-05
vn 0 -1 -1.5259022E-05
vn 0 -1 -1.5259022E-05
vn 0 -1 -1.5259022E-05
vn 0 -1 -1.5259022E-05
vn 1 0 -1.5259022E-05
vn 1 0 -1.5259022E-05
vn 1 0 -1.5259022E-05
vn 1 0 -1.5259022E-05
vn -1.5259255E-05 -1.5259255E-05 1
vn -1.5259255E-05 -1.5259255E-05 1
vn -1.5259255E-05 -1.5259255E-05 1
vn -1.5259255E-05 -1.5259255E-05 1
vn -1 0 -1.5259022E-05
vn -1 0 -1.5259022E-05
vn -1 0 -1.5259022E-05
vn -1 0 -1.5259022E-05
vn -1 0 -1.5259022E-05
vn 1 0 -1.5259022E-05
vn 1 0 -1.5259022E-05
vn -1 0 -1.5259022E-05
vn -1 0 -1.5259022E-05
vn -1 0 -1.5259022E-05
vn -1 0 -1.5259022E-05
vn -1 0 -1.5259022E-05
vn 1 0 -1.5259022E-05
vn 1 0 -1.5259022E-05
vn 1 0 -1.5259022E-05
vn 0 1 -1.5259022E-05
vn 0 1 -1.5259022E-05
vn 0 1 -1.5259022E-05
vn 0 1 -1.5259022E-05
vn -1.5259255E-05 -1.5259255E-05 1
vn -1.5259255E-05 -1.5259255E-05 1
vn 0 0 -1
vn 0 0 -1
vn 0 0 -1
vn 0 0 -1
vn 0 0 -1
vn 0 0 -1
vn 0 -1 -1.5259022E-05
vn 0 -1 -1.5259022E-05
vn 0 -1 -1.5259022E-05
vn 0 -1 -1.5259022E-05
vn 0 -1 -1.5259022E-05
vn 0 -1 -1.5259022E-05
vn 0 -1 -1.5259022E-05
vn -1 0 -1.5259022E-05
vn -1 0 -1.5259022E-05
vn -1 0 -1.5259022E-05
vn -1 0 -1.5259022E-05
vn -1.5259255E-05 -1.5259255E-05 1
vn -1.5259255E-05 -1.5259255E-05 1
vn -1.5259255E-05 -1.5259255E-05 1
vn -1.5259255E-05 -1.5259255E-05 1
vn 1 0 -1.5259022E-05
vn 1 0 -1.5259022E-05
vn 1 0 -1.5259022E-05
vn 1 0 -1.5259022E-05
f 3/3/3 2/2/2 1/1/1
f 3/3/3 1/1/1 2/2/2
f 6/6/6 5/5/5 4/4/4
f 5/5/5 7/7/7 4/4/4
f 10/10/10 9/9/9 8/8/8
f 9/9/9 11/11/11 8/8/8
f 14/14/14 13/13/13 12/12/12
f 13/13/13 15/15/15 12/12/12
f 18/18/18 17/17/17 16/16/16
f 17/17/17 19/19/19 16/16/16
f 22/22/22 21/21/21 20/20/20
f 21/21/21 23/23/23 20/20/20
f 26/26/26 25/25/25 24/24/24
f 25/25/25 27/27/27 24/24/24
f 30/30/30 29/29/29 28/28/28
f 29/29/29 31/31/31 28/28/28
f 30/30/30 33/33/33 32/32/32
f 33/33/33 23/23/23 32/32/32
f 35/35/35 34/34/34 28/28/28
f 34/34/34 36/36/36 28/28/28
f 39/39/39 38/38/38 37/37/37
f 38/38/38 40/40/40 37/37/37
f 42/42/42 41/41/41 24/24/24
f 41/41/41 43/43/43 24/24/24
f 46/46/46 45/45/45 44/44/44
f 45/45/45 36/36/36 44/44/44
f 49/49/49 48/48/48 47/47/47
f 48/48/48 19/19/19 47/47/47
f 52/52/52 51/51/51 50/50/50
f 51/51/51 53/53/53 50/50/50
f 56/56/56 55/55/55 54/54/54
f 55/55/55 57/57/57 54/54/54
f 60/60/60 59/59/59 58/58/58
f 59/59/59 61/61/61 58/58/58
f 64/64/64 63/63/63 62/62/62
f 63/63/63 65/65/65 62/62/62
f 68/68/68 67/67/67 66/66/66
f 69/69/69 68/68/68 66/66/66
f 72/72/72 71/71/71 70/70/70
f 71/71/71 73/73/73 70/70/70
f 75/75/75 74/74/74 8/8/8
f 74/74/74 76/76/76 8/8/8
f 79/79/79 78/78/78 77/77/77
f 78/78/78 80/80/80 77/77/77
f 6/6/6 82/82/82 81/81/81
f 82/82/82 80/80/80 81/81/81
f 14/14/14 83/83/83 77/77/77
f 83/83/83 84/84/84 77/77/77
f 87/87/87 86/86/86 85/85/85
f 86/86/86 88/88/88 85/85/85
f 72/72/72 90/90/90 89/89/89
f 90/90/90 91/91/91 89/89/89
f 94/94/94 93/93/93 92/92/92
f 93/93/93 95/95/95 92/92/92
f 98/98/98 97/97/97 96/96/96
f 97/97/97 99/99/99 96/96/96
f 102/102/102 101/101/101 100/100/100
f 101/101/101 103/103/103 100/100/100
f 106/106/106 105/105/105 104/104/104
f 105/105/105 107/107/107 104/104/104
