v -0.125000 -0.125000 6.263742
v -0.125000 0.125000 6.074461
v -0.125000 0.744567 6.308960
v -0.125000 -0.125000 6.263742
v -0.125000 0.686963 6.562989
v 0.125000 0.125000 6.074461
v 0.125000 0.686963 6.562989
v 0.125000 0.744567 6.308960
v -0.125000 -0.125000 -0.000000
v -0.125000 0.125000 0.000000
v -0.125000 0.125000 6.074461
v -0.125000 -0.125000 -0.000000
v -0.125000 0.125000 6.074461
v -0.125000 -0.125000 6.263742
v 0.125000 0.125000 0.000000
v 0.125000 -0.125000 -0.000000
v 0.125000 -0.125000 6.263742
v -0.125000 0.744567 6.308960
v -0.125000 1.409859 6.417558
v -0.125000 1.409859 6.678036
v -0.125000 0.744567 6.308960
v -0.125000 1.409859 6.678036
v -0.125000 0.686963 6.562989
v 0.125000 1.409859 6.678036
v 0.125000 1.409859 6.417558
v 0.125000 0.744567 6.308960
v 0.125000 1.409859 6.678036
v 0.125000 0.744567 6.308960
v 0.125000 0.686963 6.562989
v 0.125000 0.125000 6.074461
v 0.125000 -0.125000 6.263742
v 0.125000 0.125000 0.000000
v 0.125000 -0.125000 6.263742
v 0.125000 -0.125000 -0.000000
v -0.125000 -0.125000 -0.000000
v -0.125000 -0.125000 6.263742
v 0.125000 0.744567 6.308960
v 0.125000 1.409859 6.417558
v -0.125000 1.409859 6.417558
v -0.125000 0.744567 6.308960
v -0.125000 0.686963 6.562989
v -0.125000 1.409859 6.678036
v 0.125000 1.409859 6.678036
v 0.125000 0.686963 6.562989
v -0.300000 1.329907 6.735192
v -0.300000 1.329907 6.360403
v -0.300000 2.348543 6.360403
v -0.300000 2.348543 6.735192
v -0.300000 2.348543 6.735192
v -0.300000 2.348543 6.360403
v 0.300000 2.348543 6.360403
v 0.300000 2.348543 6.735192
v 0.300000 2.348543 6.735192
v 0.300000 2.348543 6.360403
v 0.300000 1.329907 6.360403
v 0.300000 1.329907 6.735192
v 0.300000 1.329907 6.735192
v 0.300000 1.329907 6.360403
v -0.300000 1.329907 6.360403
v -0.300000 1.329907 6.735192
v -0.300000 1.329907 6.360403
v 0.300000 1.329907 6.360403
v 0.300000 2.348543 6.360403
v -0.300000 2.348543 6.360403
v 0.300000 1.329907 6.735192
v -0.300000 1.329907 6.735192
v -0.300000 2.348543 6.735192
v 0.300000 2.348543 6.735192
v 0.125000 0.125000 6.074461
v 0.125000 0.744567 6.308960
v -0.125000 0.744567 6.308960
v -0.125000 0.125000 6.074461
v -0.125000 -0.125000 6.263742
v -0.125000 0.686963 6.562989
v 0.125000 0.686963 6.562989
v 0.125000 -0.125000 6.263742
v -0.125000 0.125000 6.074461
v -0.125000 0.125000 0.000000
v 0.125000 0.125000 0.000000
v 0.125000 0.125000 6.074461
vt 0.273701817 0.726148605
vt 0.145982981 0.627871871
vt 0.232816413 0.879018545
vt 0.273701817 0.726148605
vt 0.168387115 0.605173588
vt 0.196779937 0.855809331
vt 0.232816413 0.726148605
vt 0.237435877 0.609577775
vt 0.192618638 0.859164715
vt 0.204685807 0.857274413
vt 0.145982981 0.627871871
vt 0.192618638 0.859164715
vt 0.145982981 0.627871871
vt 0.273701817 0.726148605
vt 0.267935038 0.852564573
vt 0.280241668 0.852564573
vt 0.280241728 0.618609548
vt 0.232816413 0.879018545
vt 0.204685807 0.605200052
vt 0.202168584 0.595363081
vt 0.232816413 0.879018545
vt 0.202168584 0.595363081
vt 0.168387115 0.605173588
vt 0.204685807 0.595363081
vt 0.204685807 0.605395317
vt 0.237435877 0.609577775
vt 0.204685807 0.595363081
vt 0.237435877 0.609577775
vt 0.232816413 0.726148605
vt 0.196779937 0.855809331
vt 0.280241728 0.618609548
vt 0.267935038 0.852564573
vt 0.292548358 0.829318166
vt 0.292548358 0.595363081
vt 0.280241728 0.595363081
vt 0.280241728 0.829318166
vt 0.372531295 0.62019825
vt 0.372531295 0.646148145
vt 0.384837925 0.646148145
vt 0.384837925 0.62019825
vt 0.359004319 0.77188611
vt 0.359004319 0.800043702
vt 0.371310949 0.800043702
vt 0.371310949 0.77188611
vt 0.243464291 0.323500395
vt 0.261913896 0.323500395
vt 0.261913896 0.284268141
vt 0.243464291 0.284268141
vt 0.309920192 0.330485582
vt 0.328369796 0.330485582
vt 0.328369796 0.307376862
vt 0.309920192 0.307376862
vt 0.292690933 0.169442296
vt 0.311140537 0.169442296
vt 0.311140537 0.130209982
vt 0.292690933 0.130209982
vt 0.309920192 0.307376862
vt 0.328369796 0.307376862
vt 0.328369796 0.284268141
vt 0.309920192 0.284268141
vt 0.292690873 0.246137381
vt 0.322226822 0.246137381
vt 0.322226822 0.207239032
vt 0.292690873 0.207239032
vt 0.268077612 0.323271513
vt 0.297613561 0.323271513
vt 0.297613561 0.284268141
vt 0.268077612 0.284268141
vt 0.353541344 0.847195983
vt 0.353541344 0.726148605
vt 0.31362161 0.726148605
vt 0.31362161 0.847195983
vt 0.273701817 0.726148605
vt 0.273701817 0.887758851
vt 0.31362161 0.887758851
vt 0.31362161 0.726148605
vt 0.304854989 0.829318166
vt 0.304855049 0.595363081
vt 0.292548418 0.595363081
vt 0.292548358 0.829318166
vn -1.000000 0.000000 0.000000
vn -1.000000 0.000000 0.000000
vn -1.000000 0.000000 0.000000
vn -1.000000 0.000000 0.000000
vn -1.000000 0.000000 0.000000
vn 1.000000 0.000000 0.000000
vn 1.000000 0.000000 0.000000
vn 1.000000 0.000000 0.000000
vn -1.000000 0.000000 0.000000
vn -1.000000 0.000000 0.000000
vn -1.000000 0.000000 0.000000
vn -1.000000 0.000000 0.000000
vn -1.000000 0.000000 0.000000
vn -1.000000 0.000000 0.000000
vn 1.000000 0.000000 0.000000
vn 1.000000 0.000000 0.000000
vn 1.000000 0.000000 0.000000
vn -1.000000 0.000000 0.000000
vn -1.000000 0.000000 0.000000
vn -1.000000 0.000000 0.000000
vn -1.000000 0.000000 0.000000
vn -1.000000 0.000000 0.000000
vn -1.000000 0.000000 0.000000
vn 1.000000 0.000000 0.000000
vn 1.000000 0.000000 0.000000
vn 1.000000 0.000000 0.000000
vn 1.000000 0.000000 0.000000
vn 1.000000 0.000000 0.000000
vn 1.000000 0.000000 0.000000
vn 1.000000 0.000000 0.000000
vn 1.000000 0.000000 0.000000
vn 1.000000 0.000000 0.000000
vn 0.000000 -1.000000 -0.000000
vn 0.000000 -1.000000 -0.000000
vn 0.000000 -1.000000 -0.000000
vn 0.000000 -1.000000 -0.000000
vn 0.000000 0.258835 -0.965921
vn 0.000000 0.161100 -0.986938
vn 0.000000 0.161100 -0.986938
vn 0.000000 0.258835 -0.965921
vn 0.000000 -0.252693 0.967546
vn 0.000000 -0.157169 0.987572
vn 0.000000 -0.157169 0.987572
vn 0.000000 -0.252693 0.967546
vn -1.000000 0.000000 0.000000
vn -1.000000 0.000000 0.000000
vn -1.000000 0.000000 0.000000
vn -1.000000 0.000000 0.000000
vn 0.000000 1.000000 0.000000
vn 0.000000 1.000000 0.000000
vn 0.000000 1.000000 0.000000
vn 0.000000 1.000000 0.000000
vn 1.000000 0.000000 0.000000
vn 1.000000 0.000000 0.000000
vn 1.000000 0.000000 0.000000
vn 1.000000 0.000000 0.000000
vn 0.000000 -1.000000 -0.000000
vn 0.000000 -1.000000 -0.000000
vn 0.000000 -1.000000 -0.000000
vn 0.000000 -1.000000 -0.000000
vn 0.000000 0.000000 -1.000000
vn 0.000000 0.000000 -1.000000
vn 0.000000 0.000000 -1.000000
vn 0.000000 0.000000 -1.000000
vn 0.000000 -0.000000 1.000000
vn 0.000000 -0.000000 1.000000
vn 0.000000 -0.000000 1.000000
vn 0.000000 -0.000000 1.000000
vn 0.000000 0.353983 -0.935252
vn 0.000000 0.258835 -0.965921
vn 0.000000 0.258835 -0.965921
vn 0.000000 0.353983 -0.935252
vn 0.000000 -0.345810 0.938305
vn 0.000000 -0.252693 0.967546
vn 0.000000 -0.252693 0.967546
vn 0.000000 -0.345810 0.938305
vn 0.000000 1.000000 0.000000
vn 0.000000 1.000000 0.000000
vn 0.000000 1.000000 0.000000
vn 0.000000 1.000000 0.000000
f 3/3/3 2/2/2 1/1/1
f 5/5/5 3/3/3 4/4/4
f 8/8/8 7/7/7 6/6/6
f 11/11/11 10/10/10 9/9/9
f 14/14/14 13/13/13 12/12/12
f 17/17/17 16/16/16 15/15/15
f 20/20/20 19/19/19 18/18/18
f 23/23/23 22/22/22 21/21/21
f 26/26/26 25/25/25 24/24/24
f 29/29/29 28/28/28 27/27/27
f 29/29/29 31/31/31 30/30/30
f 30/30/30 31/31/31 32/32/32
f 35/35/35 34/34/34 33/33/33
f 36/36/36 35/35/35 33/33/33
f 39/39/39 38/38/38 37/37/37
f 40/40/40 39/39/39 37/37/37
f 43/43/43 42/42/42 41/41/41
f 44/44/44 43/43/43 41/41/41
f 47/47/47 46/46/46 45/45/45
f 48/48/48 47/47/47 45/45/45
f 51/51/51 50/50/50 49/49/49
f 52/52/52 51/51/51 49/49/49
f 55/55/55 54/54/54 53/53/53
f 56/56/56 55/55/55 53/53/53
f 59/59/59 58/58/58 57/57/57
f 60/60/60 59/59/59 57/57/57
f 63/63/63 62/62/62 61/61/61
f 64/64/64 63/63/63 61/61/61
f 67/67/67 66/66/66 65/65/65
f 68/68/68 67/67/67 65/65/65
f 71/71/71 70/70/70 69/69/69
f 72/72/72 71/71/71 69/69/69
f 75/75/75 74/74/74 73/73/73
f 76/76/76 75/75/75 73/73/73
f 79/79/79 78/78/78 77/77/77
f 80/80/80 79/79/79 77/77/77
