g Model_0
v 1.353165 0.781250 1.062500
v 1.562500 0.000000 1.062500
v 1.562500 0.000000 1.187500
v 1.353165 0.781250 1.187500
v 0.781250 1.353165 1.062500
v 0.781250 1.353165 1.187500
v 0.000000 1.562500 1.062500
v 0.000000 1.562500 1.187500
v -0.781251 1.353164 1.062500
v -0.781251 1.353164 1.187500
v 1.562500 0.000000 1.062500
v 1.353165 -0.781250 1.187500
v 1.562500 0.000000 1.187500
v 1.353165 -0.781250 1.062500
v 0.781250 -1.353165 1.187500
v 0.781250 -1.353165 1.062500
v 0.000000 -1.562500 1.187500
v 0.000000 -1.562500 1.062500
v -0.781250 -1.353165 1.187500
v -0.781250 -1.353165 1.062500
v -1.353164 -0.781250 1.187500
v -1.353164 -0.781250 1.062500
v -1.353164 -0.781250 1.062500
v -1.562500 -0.000001 1.187500
v -1.353164 -0.781250 1.187500
v -1.562500 -0.000001 1.062500
v -1.353165 0.781249 1.187500
v -1.353165 0.781249 1.062500
v -0.781251 1.353164 1.187500
v -0.781251 1.353164 1.062500
v 1.353165 0.781250 1.187500
v 1.562500 0.000000 1.187500
v 1.353165 -0.781250 1.187500
v 0.781250 1.353165 1.187500
v 0.781250 -1.353165 1.187500
v 0.000000 1.562500 1.187500
v 0.000000 -1.562500 1.187500
v -0.781251 1.353164 1.187500
v -0.781250 -1.353165 1.187500
v -1.353164 -0.781250 1.187500
v -1.353165 0.781249 1.187500
v -1.562500 -0.000001 1.187500
v 1.353165 -0.781250 1.062500
v 1.562500 0.000000 1.062500
v 1.353165 0.781250 1.062500
v 0.781250 -1.353165 1.062500
v 0.781250 1.353165 1.062500
v 0.000000 -1.562500 1.062500
v 0.000000 1.562500 1.062500
v -0.781250 -1.353165 1.062500
v -0.781251 1.353164 1.062500
v -1.353164 -0.781250 1.062500
v -1.353165 0.781249 1.062500
v -1.562500 -0.000001 1.062500
v 0.383398 -1.136406 1.125000
v 0.383398 -1.136406 0.000000
v 0.423839 -1.287332 0.000000
v 0.423839 -1.287332 1.125000
v 0.423839 -1.287332 1.125000
v 0.423839 -1.287332 0.000000
v 0.272913 -1.327772 0.000000
v 0.272913 -1.327772 1.125000
v 0.272913 -1.327772 1.125000
v 0.272913 -1.327772 0.000000
v 0.232472 -1.176846 0.000000
v 0.232472 -1.176846 1.125000
v 0.232472 -1.176846 1.125000
v 0.232472 -1.176846 0.000000
v 0.383398 -1.136406 0.000000
v 0.383398 -1.136406 1.125000
v 0.383398 -1.136406 0.000000
v 0.232472 -1.176846 0.000000
v 0.272913 -1.327772 0.000000
v 0.423839 -1.287332 0.000000
v 1.136405 0.383399 1.125000
v 1.136405 0.383399 0.000000
v 1.287331 0.423840 0.000000
v 1.287331 0.423840 1.125000
v 1.287331 0.423840 1.125000
v 1.287331 0.423840 0.000000
v 1.327772 0.272914 0.000000
v 1.327772 0.272914 1.125000
v 1.327772 0.272914 1.125000
v 1.327772 0.272914 0.000000
v 1.176846 0.232474 0.000000
v 1.176846 0.232474 1.125000
v 1.176846 0.232474 1.125000
v 1.176846 0.232474 0.000000
v 1.136405 0.383399 0.000000
v 1.136405 0.383399 1.125000
v 1.136405 0.383399 0.000000
v 1.176846 0.232474 0.000000
v 1.327772 0.272914 0.000000
v 1.287331 0.423840 0.000000
v -0.383400 1.136405 1.125000
v -0.383400 1.136405 0.000000
v -0.423841 1.287331 0.000000
v -0.423841 1.287331 1.125000
v -0.423841 1.287331 1.125000
v -0.423841 1.287331 0.000000
v -0.272915 1.327772 0.000000
v -0.272915 1.327772 1.125000
v -0.272915 1.327772 1.125000
v -0.272915 1.327772 0.000000
v -0.232474 1.176846 0.000000
v -0.232474 1.176846 1.125000
v -0.232474 1.176846 1.125000
v -0.232474 1.176846 0.000000
v -0.383400 1.136405 0.000000
v -0.383400 1.136405 1.125000
v -0.383400 1.136405 0.000000
v -0.232474 1.176846 0.000000
v -0.272915 1.327772 0.000000
v -0.423841 1.287331 0.000000
v -1.136405 -0.383401 1.125000
v -1.136405 -0.383401 0.000000
v -1.287331 -0.423842 0.000000
v -1.287331 -0.423842 1.125000
v -1.287331 -0.423842 1.125000
v -1.287331 -0.423842 0.000000
v -1.327772 -0.272916 0.000000
v -1.327772 -0.272916 1.125000
v -1.327772 -0.272916 1.125000
v -1.327772 -0.272916 0.000000
v -1.176846 -0.232475 0.000000
v -1.176846 -0.232475 1.125000
v -1.176846 -0.232475 1.125000
v -1.176846 -0.232475 0.000000
v -1.136405 -0.383401 0.000000
v -1.136405 -0.383401 1.125000
v -1.136405 -0.383401 0.000000
v -1.176846 -0.232475 0.000000
v -1.327772 -0.272916 0.000000
v -1.287331 -0.423842 0.000000
vt 0.878287971 0.432792991
vt 0.878287971 0.418377995
vt 0.870361984 0.418377995
vt 0.870361984 0.432792991
vt 0.878287971 0.457760006
vt 0.870361984 0.457760006
vt 0.878287971 0.486589998
vt 0.870361984 0.486589998
vt 0.878287971 0.511557996
vt 0.870361984 0.511557996
vt 0.870361984 0.525973022
vt 0.862434983 0.511557996
vt 0.862434983 0.525973022
vt 0.870361984 0.511557996
vt 0.862434983 0.486589998
vt 0.870361984 0.486589998
vt 0.862434983 0.457760006
vt 0.870361984 0.457760006
vt 0.862434983 0.432792991
vt 0.870361984 0.432792991
vt 0.862434983 0.418377995
vt 0.870361984 0.418377995
vt 0.886214972 0.497143
vt 0.878287971 0.472175002
vt 0.878287971 0.497143
vt 0.886214972 0.472175002
vt 0.878287971 0.44334501
vt 0.886214972 0.44334501
vt 0.878287971 0.418377995
vt 0.886214972 0.418377995
vt 0.792374015 0.418377995
vt 0.741086006 0.418377995
vt 0.696668983 0.432792991
vt 0.836790979 0.432792991
vt 0.671024024 0.457760006
vt 0.862434983 0.457760006
vt 0.671024024 0.486589998
vt 0.862434983 0.486589998
vt 0.696668983 0.511557996
vt 0.741086006 0.525973022
vt 0.836790979 0.511557996
vt 0.792374015 0.525973022
vt 0.696668983 0.619153023
vt 0.741086006 0.633567989
vt 0.792374015 0.633567989
vt 0.671024024 0.594186008
vt 0.836790979 0.619153023
vt 0.671024024 0.565356016
vt 0.862434983 0.594186008
vt 0.696668983 0.540387988
vt 0.862434983 0.565356016
vt 0.741086006 0.525973022
vt 0.836790979 0.540387988
vt 0.792374015 0.525973022
vt 0.316296011 0.525281012
vt 0.316296011 0.57328701
vt 0.323114991 0.57328701
vt 0.323114991 0.525281012
vt 0.36402899 0.57328701
vt 0.36402899 0.525281012
vt 0.35721001 0.525281012
vt 0.35721001 0.57328701
vt 0.289020002 0.57328701
vt 0.289020002 0.525281012
vt 0.282200992 0.525281012
vt 0.282200992 0.57328701
vt 0.336753011 0.57328701
vt 0.336753011 0.525281012
vt 0.329934001 0.525281012
vt 0.329934001 0.57328701
vt 0.261743993 0.532782018
vt 0.268563002 0.532782018
vt 0.268563002 0.525281012
vt 0.261743993 0.525281012
vt 0.316296011 0.525281012
vt 0.316296011 0.57328701
vt 0.323114991 0.57328701
vt 0.323114991 0.525281012
vt 0.36402899 0.57328701
vt 0.36402899 0.525281012
vt 0.35721001 0.525281012
vt 0.35721001 0.57328701
vt 0.289020002 0.57328701
vt 0.289020002 0.525281012
vt 0.282200992 0.525281012
vt 0.282200992 0.57328701
vt 0.336753011 0.57328701
vt 0.336753011 0.525281012
vt 0.329934001 0.525281012
vt 0.329934001 0.57328701
vt 0.261743993 0.532782018
vt 0.268563002 0.532782018
vt 0.268563002 0.525281012
vt 0.261743993 0.525281012
vt 0.316296011 0.525281012
vt 0.316296011 0.57328701
vt 0.323114991 0.57328701
vt 0.323114991 0.525281012
vt 0.36402899 0.57328701
vt 0.36402899 0.525281012
vt 0.35721001 0.525281012
vt 0.35721001 0.57328701
vt 0.289020002 0.57328701
vt 0.289020002 0.525281012
vt 0.282200992 0.525281012
vt 0.282200992 0.57328701
vt 0.336753011 0.57328701
vt 0.336753011 0.525281012
vt 0.329934001 0.525281012
vt 0.329934001 0.57328701
vt 0.261743993 0.532782018
vt 0.268563002 0.532782018
vt 0.268563002 0.525281012
vt 0.261743993 0.525281012
vt 0.316296011 0.525281012
vt 0.316296011 0.57328701
vt 0.323114991 0.57328701
vt 0.323114991 0.525281012
vt 0.36402899 0.57328701
vt 0.36402899 0.525281012
vt 0.35721001 0.525281012
vt 0.35721001 0.57328701
vt 0.289020002 0.57328701
vt 0.289020002 0.525281012
vt 0.282200992 0.525281012
vt 0.282200992 0.57328701
vt 0.336753011 0.57328701
vt 0.336753011 0.525281012
vt 0.329934001 0.525281012
vt 0.329934001 0.57328701
vt 0.261743993 0.532782018
vt 0.268563002 0.532782018
vt 0.268563002 0.525281012
vt 0.261743993 0.525281012
vn 0.866025 0.500000 0.000000
vn 1.000000 0.000000 0.000000
vn 1.000000 0.000000 0.000000
vn 0.866025 0.500000 0.000000
vn 0.500000 0.866025 0.000000
vn 0.500000 0.866025 0.000000
vn 0.000000 1.000000 0.000000
vn 0.000000 1.000000 0.000000
vn -0.500001 0.866025 0.000000
vn -0.500001 0.866025 0.000000
vn 1.000000 0.000000 0.000000
vn 0.866025 -0.500000 0.000000
vn 1.000000 0.000000 0.000000
vn 0.866025 -0.500000 0.000000
vn 0.500000 -0.866025 0.000000
vn 0.500000 -0.866025 0.000000
vn 0.000000 -1.000000 0.000000
vn 0.000000 -1.000000 0.000000
vn -0.500000 -0.866025 0.000000
vn -0.500000 -0.866025 0.000000
vn -0.866025 -0.500000 0.000000
vn -0.866025 -0.500000 0.000000
vn -0.866025 -0.500000 0.000000
vn -1.000000 0.000000 0.000000
vn -0.866025 -0.500000 0.000000
vn -1.000000 0.000000 0.000000
vn -0.866026 0.499999 0.000000
vn -0.866026 0.499999 0.000000
vn -0.500001 0.866025 0.000000
vn -0.500001 0.866025 0.000000
vn 0.000000 0.000000 1.000000
vn 0.000000 0.000000 1.000000
vn 0.000000 0.000000 1.000000
vn 0.000000 0.000000 1.000000
vn 0.000000 0.000000 1.000000
vn 0.000000 0.000000 1.000000
vn 0.000000 0.000000 1.000000
vn 0.000000 0.000000 1.000000
vn 0.000000 0.000000 1.000000
vn 0.000000 0.000000 1.000000
vn 0.000000 0.000000 1.000000
vn 0.000000 0.000000 1.000000
vn 0.000000 0.000000 -1.000000
vn 0.000000 0.000000 -1.000000
vn 0.000000 0.000000 -1.000000
vn 0.000000 0.000000 -1.000000
vn 0.000000 0.000000 -1.000000
vn 0.000000 0.000000 -1.000000
vn 0.000000 0.000000 -1.000000
vn 0.000000 0.000000 -1.000000
vn 0.000000 0.000000 -1.000000
vn 0.000000 0.000000 -1.000000
vn 0.000000 0.000000 -1.000000
vn 0.000000 0.000000 -1.000000
vn 0.965925 0.258822 0.000000
vn 0.965925 0.258822 0.000000
vn 0.965925 0.258822 0.000000
vn 0.965925 0.258822 0.000000
vn 0.258816 -0.965927 0.000000
vn 0.258816 -0.965927 0.000000
vn 0.258816 -0.965927 0.000000
vn 0.258816 -0.965927 0.000000
vn -0.965925 -0.258822 0.000000
vn -0.965925 -0.258822 0.000000
vn -0.965925 -0.258822 0.000000
vn -0.965925 -0.258822 0.000000
vn -0.258817 0.965926 0.000000
vn -0.258817 0.965926 0.000000
vn -0.258817 0.965926 0.000000
vn -0.258817 0.965926 0.000000
vn 0.000000 0.000000 -1.000000
vn 0.000000 0.000000 -1.000000
vn 0.000000 0.000000 -1.000000
vn 0.000000 0.000000 -1.000000
vn -0.258822 0.965925 0.000000
vn -0.258822 0.965925 0.000000
vn -0.258822 0.965925 0.000000
vn -0.258822 0.965925 0.000000
vn 0.965925 0.258822 0.000000
vn 0.965925 0.258822 0.000000
vn 0.965925 0.258822 0.000000
vn 0.965925 0.258822 0.000000
vn 0.258816 -0.965927 0.000000
vn 0.258816 -0.965927 0.000000
vn 0.258816 -0.965927 0.000000
vn 0.258816 -0.965927 0.000000
vn -0.965925 -0.258824 0.000000
vn -0.965925 -0.258824 0.000000
vn -0.965925 -0.258824 0.000000
vn -0.965925 -0.258824 0.000000
vn 0.000000 0.000000 -1.000000
vn 0.000000 0.000000 -1.000000
vn 0.000000 0.000000 -1.000000
vn 0.000000 0.000000 -1.000000
vn -0.965925 -0.258822 0.000000
vn -0.965925 -0.258822 0.000000
vn -0.965925 -0.258822 0.000000
vn -0.965925 -0.258822 0.000000
vn -0.258822 0.965925 0.000000
vn -0.258822 0.965925 0.000000
vn -0.258822 0.965925 0.000000
vn -0.258822 0.965925 0.000000
vn 0.965925 0.258822 0.000000
vn 0.965925 0.258822 0.000000
vn 0.965925 0.258822 0.000000
vn 0.965925 0.258822 0.000000
vn 0.258822 -0.965925 0.000000
vn 0.258822 -0.965925 0.000000
vn 0.258822 -0.965925 0.000000
vn 0.258822 -0.965925 0.000000
vn 0.000000 0.000000 -1.000000
vn 0.000000 0.000000 -1.000000
vn 0.000000 0.000000 -1.000000
vn 0.000000 0.000000 -1.000000
vn 0.258822 -0.965925 0.000000
vn 0.258822 -0.965925 0.000000
vn 0.258822 -0.965925 0.000000
vn 0.258822 -0.965925 0.000000
vn -0.965925 -0.258822 0.000000
vn -0.965925 -0.258822 0.000000
vn -0.965925 -0.258822 0.000000
vn -0.965925 -0.258822 0.000000
vn -0.258822 0.965925 0.000000
vn -0.258822 0.965925 0.000000
vn -0.258822 0.965925 0.000000
vn -0.258822 0.965925 0.000000
vn 0.965925 0.258822 0.000000
vn 0.965925 0.258822 0.000000
vn 0.965925 0.258822 0.000000
vn 0.965925 0.258822 0.000000
vn 0.000000 0.000000 -1.000000
vn 0.000000 0.000000 -1.000000
vn 0.000000 0.000000 -1.000000
vn 0.000000 0.000000 -1.000000
g Model_0_0
f 3/3/3 2/2/2 1/1/1
f 4/4/4 3/3/3 1/1/1
f 4/4/4 1/1/1 5/5/5
f 6/6/6 4/4/4 5/5/5
f 6/6/6 5/5/5 7/7/7
f 8/8/8 6/6/6 7/7/7
f 8/8/8 7/7/7 9/9/9
f 10/10/10 8/8/8 9/9/9
f 13/13/13 12/12/12 11/11/11
f 12/12/12 14/14/14 11/11/11
f 12/12/12 15/15/15 14/14/14
f 15/15/15 16/16/16 14/14/14
f 15/15/15 17/17/17 16/16/16
f 17/17/17 18/18/18 16/16/16
f 17/17/17 19/19/19 18/18/18
f 19/19/19 20/20/20 18/18/18
f 19/19/19 21/21/21 20/20/20
f 21/21/21 22/22/22 20/20/20
f 25/25/25 24/24/24 23/23/23
f 24/24/24 26/26/26 23/23/23
f 24/24/24 27/27/27 26/26/26
f 27/27/27 28/28/28 26/26/26
f 27/27/27 29/29/29 28/28/28
f 29/29/29 30/30/30 28/28/28
f 33/33/33 32/32/32 31/31/31
f 31/31/31 34/34/34 33/33/33
f 34/34/34 35/35/35 33/33/33
f 34/34/34 36/36/36 35/35/35
f 36/36/36 37/37/37 35/35/35
f 36/36/36 38/38/38 37/37/37
f 38/38/38 39/39/39 37/37/37
f 38/38/38 40/40/40 39/39/39
f 38/38/38 41/41/41 40/40/40
f 41/41/41 42/42/42 40/40/40
f 45/45/45 44/44/44 43/43/43
f 43/43/43 46/46/46 45/45/45
f 46/46/46 47/47/47 45/45/45
f 46/46/46 48/48/48 47/47/47
f 48/48/48 49/49/49 47/47/47
f 48/48/48 50/50/50 49/49/49
f 50/50/50 51/51/51 49/49/49
f 50/50/50 52/52/52 51/51/51
f 52/52/52 53/53/53 51/51/51
f 52/52/52 54/54/54 53/53/53
f 57/57/57 56/56/56 55/55/55
f 58/58/58 57/57/57 55/55/55
f 61/61/61 60/60/60 59/59/59
f 62/62/62 61/61/61 59/59/59
f 65/65/65 64/64/64 63/63/63
f 66/66/66 65/65/65 63/63/63
f 69/69/69 68/68/68 67/67/67
f 70/70/70 69/69/69 67/67/67
f 73/73/73 72/72/72 71/71/71
f 74/74/74 73/73/73 71/71/71
f 77/77/77 76/76/76 75/75/75
f 78/78/78 77/77/77 75/75/75
f 81/81/81 80/80/80 79/79/79
f 82/82/82 81/81/81 79/79/79
f 85/85/85 84/84/84 83/83/83
f 86/86/86 85/85/85 83/83/83
f 89/89/89 88/88/88 87/87/87
f 90/90/90 89/89/89 87/87/87
f 93/93/93 92/92/92 91/91/91
f 94/94/94 93/93/93 91/91/91
f 97/97/97 96/96/96 95/95/95
f 98/98/98 97/97/97 95/95/95
f 101/101/101 100/100/100 99/99/99
f 102/102/102 101/101/101 99/99/99
f 105/105/105 104/104/104 103/103/103
f 106/106/106 105/105/105 103/103/103
f 109/109/109 108/108/108 107/107/107
f 110/110/110 109/109/109 107/107/107
f 113/113/113 112/112/112 111/111/111
f 114/114/114 113/113/113 111/111/111
f 117/117/117 116/116/116 115/115/115
f 118/118/118 117/117/117 115/115/115
f 121/121/121 120/120/120 119/119/119
f 122/122/122 121/121/121 119/119/119
f 125/125/125 124/124/124 123/123/123
f 126/126/126 125/125/125 123/123/123
f 129/129/129 128/128/128 127/127/127
f 130/130/130 129/129/129 127/127/127
f 133/133/133 132/132/132 131/131/131
f 134/134/134 133/133/133 131/131/131