v -1.104338 -0.127821 2.148438
v -0.000000 0.509769 1.898437
v -1.104338 -0.127821 1.898438
v -0.000000 0.509769 2.148437
v -1.104338 -0.127821 2.148438
v 1.104338 -1.403000 2.148438
v -0.000000 -2.040590 1.898438
v 1.104338 -1.403000 1.898438
v -0.000000 -2.040590 2.148438
v 1.104338 -1.403000 2.148438
v 3.261432 3.867188 0.141868
v 3.261434 3.007812 2.148436
v 3.261434 4.726562 1.289061
v 3.261430 -4.726564 1.289064
v 3.261430 -4.296876 2.148439
v 3.261432 -3.867187 0.141871
v -3.261434 -4.726561 1.289064
v -3.261432 -3.867187 0.141871
v -3.261434 -4.296873 2.148439
v -3.261431 3.007813 2.148436
v -3.261430 3.867189 0.141868
v -3.261431 4.726563 1.289061
v 0.500000 -0.046732 1.398438
v 0.500000 -1.796732 0.291870
v 0.500000 0.203268 0.291869
v 0.500000 -1.546732 1.398438
v 1.322546 -0.046732 1.398438
v 0.500000 0.203268 0.291869
v 1.322546 0.203268 0.291869
v 0.500000 -0.046732 1.398438
v 0.500000 -1.546732 1.398438
v 1.322546 -1.796732 0.291870
v 0.500000 -1.796732 0.291870
v 1.322546 -1.546732 1.398438
v 1.322546 -0.046732 1.398438
v 0.500000 -1.546732 1.398438
v 0.500000 -0.046732 1.398438
v 1.322546 -1.546732 1.398438
v 3.261434 3.007812 2.148436
v 3.261432 3.867188 0.141868
v 3.261432 -3.867187 0.141871
v 3.261430 -4.296876 2.148439
v 3.261432 3.867188 0.141868
v -3.261431 4.726563 1.289061
v -3.261430 3.867189 0.141868
v 3.261434 4.726562 1.289061
v -3.261431 4.726563 1.289061
v 3.261434 3.007812 2.148436
v -3.261431 3.007813 2.148436
v 3.261434 4.726562 1.289061
v -3.261434 -4.726561 1.289064
v 3.261430 -4.296876 2.148439
v 3.261430 -4.726564 1.289064
v -3.261434 -4.296873 2.148439
v 3.261430 -4.726564 1.289064
v -3.261432 -3.867187 0.141871
v -3.261434 -4.726561 1.289064
v 3.261432 -3.867187 0.141871
v 3.261432 -3.867187 0.141871
v -3.261430 3.867189 0.141868
v -3.261432 -3.867187 0.141871
v 3.261432 3.867188 0.141868
v -3.261434 -4.296873 2.148439
v -3.261432 -3.867187 0.141871
v -3.261431 3.007813 2.148436
v -3.261430 3.867189 0.141868
v -0.000000 0.509769 2.148437
v 1.104338 -0.127821 1.898438
v -0.000000 0.509769 1.898437
v 1.104338 -0.127821 2.148438
v 1.104338 -0.127821 2.148438
v 1.104338 -1.403000 1.898438
v 1.104338 -0.127821 1.898438
v 1.104338 -1.403000 2.148438
v 1.222546 2.507813 0.391868
v 1.222546 -2.976564 1.898439
v 1.222546 -2.726564 0.391870
v 1.222546 2.757813 1.898436
v -1.104338 -1.403000 2.148438
v -1.104338 -0.127821 1.898438
v -1.104338 -1.403000 1.898438
v -1.104338 -0.127821 2.148438
v -0.000000 -2.040590 2.148438
v -1.104338 -1.403000 1.898438
v -0.000000 -2.040590 1.898438
v -1.104338 -1.403000 2.148438
v -1.222546 -2.726564 0.391870
v -1.222546 2.757813 1.898436
v -1.222546 2.507813 0.391868
v -1.222546 -2.976564 1.898439
v 1.222546 -2.726564 0.391870
v -1.222546 2.507813 0.391868
v 1.222546 2.507813 0.391868
v -1.222546 -2.726564 0.391870
v -1.222546 2.507813 0.391868
v 1.222546 2.757813 1.898436
v 1.222546 2.507813 0.391868
v -1.222546 2.757813 1.898436
v 1.222546 -2.976564 1.898439
v -1.222546 -2.726564 0.391870
v 1.222546 -2.726564 0.391870
v -1.222546 -2.976564 1.898439
v -1.104338 -1.403000 1.898438
v -1.222546 -2.976564 1.898439
v -0.000000 -2.040590 1.898438
v -1.104338 -0.127821 1.898438
v -1.222546 2.757813 1.898436
v -0.000000 0.509769 1.898437
v 1.222546 2.757813 1.898436
v 1.104338 -0.127821 1.898438
v 1.222546 -2.976564 1.898439
v 1.104338 -1.403000 1.898438
v -3.261434 -4.296873 2.148439
v -1.104338 -1.403000 2.148438
v -0.000000 -2.040590 2.148438
v -1.104338 -0.127821 2.148438
v -3.261431 3.007813 2.148436
v -0.000000 0.509769 2.148437
v 3.261434 3.007812 2.148436
v 1.104338 -0.127821 2.148438
v 3.261430 -4.296876 2.148439
v 1.104338 -1.403000 2.148438
vt 0.414517999 0.253077507
vt 0.424050391 0.210108161
vt 0.411646962 0.243261278
vt 0.429941654 0.20982933
vt 0.414517999 0.253077507
vt 0.389774799 0.164048672
vt 0.380242348 0.207017958
vt 0.392645836 0.173864901
vt 0.374351144 0.207296848
vt 0.389774799 0.164048672
vt 0.117378615 0.763164937
vt 0.117378615 0.743201733
vt 0.117378615 0.743201733
vt 0.130687445 0.743201733
vt 0.130687445 0.743201733
vt 0.130687445 0.763164937
vt 0.157571256 0.743201733
vt 0.144262433 0.743201733
vt 0.157571256 0.743201733
vt 0.157571256 0.763164937
vt 0.144262433 0.763164937
vt 0.157571256 0.763164937
vt 0.66528523 0.249791086
vt 0.643317997 0.262103289
vt 0.674877882 0.262103289
vt 0.651542604 0.247516751
vt 0.671445012 0.237909675
vt 0.674877882 0.262103289
vt 0.685192466 0.252135634
vt 0.66528523 0.249791086
vt 0.651542604 0.247516751
vt 0.631047547 0.251080066
vt 0.643317997 0.262103289
vt 0.647113085 0.237092778
vt 0.671445012 0.237909675
vt 0.651542604 0.247516751
vt 0.66528523 0.249791086
vt 0.647113085 0.237092778
vt 0.117378615 0.743201733
vt 0.117378615 0.763164937
vt 0.130687445 0.763164937
vt 0.130687445 0.743201733
vt 0.144129336 0.763364613
vt 0.130820543 0.783327818
vt 0.144129336 0.783327818
vt 0.130820543 0.763364613
vt 0.130820543 0.783327818
vt 0.130820543 0.763364613
vt 0.130820543 0.783327818
vt 0.130820543 0.763364613
vt 0.144129336 0.743201733
vt 0.130820543 0.743201733
vt 0.130820543 0.743201733
vt 0.144129336 0.743201733
vt 0.130820543 0.743201733
vt 0.144129336 0.763164937
vt 0.144129336 0.743201733
vt 0.130820543 0.763164937
vt 0.130687445 0.763364613
vt 0.117378615 0.783327818
vt 0.130687445 0.783327818
vt 0.117378615 0.763364613
vt 0.157571256 0.743201733
vt 0.144262433 0.743201733
vt 0.157571256 0.763164937
vt 0.144262433 0.763164937
vt 0.429941654 0.20982933
vt 0.414034009 0.174521446
vt 0.424050391 0.210108161
vt 0.416556001 0.164048672
vt 0.416556001 0.164048672
vt 0.392645836 0.173864901
vt 0.414034009 0.174521446
vt 0.389774799 0.164048672
vt 0.588083446 0.698143721
vt 0.579755664 0.759398818
vt 0.588083446 0.759398818
vt 0.579755664 0.698143721
vt 0.387736797 0.253077507
vt 0.411646962 0.243261278
vt 0.390258789 0.242604673
vt 0.414517999 0.253077507
vt 0.374351144 0.207296848
vt 0.390258789 0.242604673
vt 0.380242348 0.207017958
vt 0.387736797 0.253077507
vt 0.579755604 0.698143721
vt 0.571427882 0.759398818
vt 0.579755664 0.759398818
vt 0.571427882 0.698143721
vt 0.40400669 0.722946882
vt 0.390491039 0.78420198
vt 0.40400669 0.78420198
vt 0.390491039 0.722946882
vt 0.544396579 0.785517514
vt 0.552724361 0.759398818
vt 0.544396579 0.759398818
vt 0.552724361 0.785517514
vt 0.552724361 0.759398818
vt 0.561052144 0.785517514
vt 0.561052144 0.759398818
vt 0.552724361 0.785517514
vt 0.377628773 0.767393053
vt 0.376975387 0.78420198
vt 0.383733183 0.774203837
vt 0.377628773 0.753771484
vt 0.376975387 0.722946882
vt 0.383733183 0.7469607
vt 0.390490979 0.722946882
vt 0.389837593 0.753771484
vt 0.390491039 0.78420198
vt 0.389837593 0.767393053
vt 0.157571256 0.763364613
vt 0.152298748 0.769966364
vt 0.153460398 0.773346186
vt 0.149975419 0.769966364
vt 0.144262433 0.763364613
vt 0.148813769 0.773346245
vt 0.144262433 0.783327818
vt 0.149975419 0.776726067
vt 0.157571256 0.783327818
vt 0.152298748 0.776726067
vn 0.500000 -0.866025 0.000000
vn 0.500000 -0.866025 0.000000
vn 0.500000 -0.866025 0.000000
vn 0.500000 -0.866025 0.000000
vn 0.500000 -0.866025 0.000000
vn -0.500000 0.866025 -0.000000
vn -0.500000 0.866025 -0.000000
vn -0.500000 0.866025 -0.000000
vn -0.500000 0.866025 -0.000000
vn -0.500000 0.866025 -0.000000
vn 1.000000 0.000000 0.000000
vn 1.000000 0.000000 0.000000
vn 1.000000 0.000000 0.000000
vn 1.000000 0.000000 0.000000
vn 1.000000 0.000000 0.000000
vn 1.000000 0.000000 0.000000
vn -1.000000 0.000000 0.000000
vn -1.000000 0.000000 0.000000
vn -1.000000 0.000000 0.000000
vn -1.000000 0.000000 0.000000
vn -1.000000 0.000000 0.000000
vn -1.000000 0.000000 0.000000
vn -1.000000 0.000000 0.000000
vn -1.000000 0.000000 0.000000
vn -1.000000 0.000000 0.000000
vn -1.000000 0.000000 0.000000
vn 0.000000 0.975417 0.220369
vn 0.000000 0.975417 0.220369
vn 0.000000 0.975417 0.220369
vn 0.000000 0.975417 0.220369
vn 0.000000 -0.975416 0.220370
vn 0.000000 -0.975416 0.220370
vn 0.000000 -0.975416 0.220370
vn 0.000000 -0.975416 0.220370
vn 0.000000 0.000000 1.000000
vn 0.000000 0.000000 1.000000
vn 0.000000 0.000000 1.000000
vn 0.000000 0.000000 1.000000
vn 1.000000 0.000000 0.000000
vn 1.000000 0.000000 0.000000
vn 1.000000 0.000000 0.000000
vn 1.000000 0.000000 0.000000
vn 0.000000 0.800342 -0.599544
vn 0.000000 0.800342 -0.599544
vn 0.000000 0.800342 -0.599544
vn 0.000000 0.800342 -0.599544
vn 0.000000 0.447214 0.894427
vn 0.000000 0.183598 0.983001
vn 0.000000 0.114085 0.993471
vn 0.000000 0.447214 0.894427
vn 0.000000 -0.894427 0.447214
vn 0.000000 -0.894427 0.447214
vn 0.000000 -0.894427 0.447214
vn 0.000000 -0.894427 0.447214
vn 0.000000 -0.800341 -0.599544
vn 0.000000 -0.800341 -0.599544
vn 0.000000 -0.800342 -0.599544
vn 0.000000 -0.800341 -0.599545
vn 0.000000 -0.000000 -1.000000
vn 0.000000 -0.000000 -1.000000
vn 0.000000 -0.000000 -1.000000
vn 0.000000 -0.000000 -1.000000
vn -1.000000 0.000000 0.000000
vn -1.000000 0.000000 0.000000
vn -1.000000 0.000000 0.000000
vn -1.000000 0.000000 0.000000
vn -0.500000 -0.866025 0.000000
vn -0.500000 -0.866025 0.000000
vn -0.500000 -0.866025 0.000000
vn -0.500000 -0.866025 0.000000
vn -1.000000 0.000000 0.000000
vn -1.000000 0.000000 0.000000
vn -1.000000 0.000000 0.000000
vn -1.000000 0.000000 0.000000
vn -1.000000 0.000000 0.000000
vn -1.000000 0.000000 0.000000
vn -1.000000 0.000000 0.000000
vn -1.000000 0.000000 0.000000
vn 1.000000 0.000000 0.000000
vn 1.000000 0.000000 0.000000
vn 1.000000 0.000000 0.000000
vn 1.000000 0.000000 0.000000
vn 0.500000 0.866025 -0.000000
vn 0.500000 0.866025 -0.000000
vn 0.500000 0.866025 -0.000000
vn 0.500000 0.866025 -0.000000
vn 1.000000 0.000000 0.000000
vn 1.000000 0.000000 0.000000
vn 1.000000 0.000000 0.000000
vn 1.000000 0.000000 0.000000
vn 0.000000 0.000000 1.000000
vn 0.000000 0.000000 1.000000
vn 0.000000 0.000000 1.000000
vn 0.000000 0.000000 1.000000
vn 0.000000 -0.986510 0.163702
vn 0.000000 -0.986510 0.163702
vn 0.000000 -0.986510 0.163702
vn 0.000000 -0.986510 0.163702
vn 0.000000 0.986510 0.163701
vn 0.000000 0.986510 0.163701
vn 0.000000 0.986510 0.163701
vn 0.000000 0.986510 0.163701
vn 0.000000 -0.000000 -1.000000
vn 0.000000 -0.000000 -1.000000
vn 0.000000 -0.000000 -1.000000
vn 0.000000 -0.000000 -1.000000
vn 0.000000 -0.000000 -1.000000
vn 0.000000 -0.000000 -1.000000
vn 0.000000 -0.000000 -1.000000
vn 0.000000 -0.000000 -1.000000
vn 0.000000 -0.000000 -1.000000
vn 0.000000 -0.000000 -1.000000
vn 0.000000 0.000000 1.000000
vn 0.000000 0.000000 1.000000
vn 0.000000 0.000000 1.000000
vn 0.000000 0.000000 1.000000
vn 0.000000 0.114085 0.993471
vn 0.000000 0.000000 1.000000
vn 0.000000 0.183598 0.983001
vn 0.000000 0.000000 1.000000
vn 0.000000 0.000000 1.000000
vn 0.000000 0.000000 1.000000
f 3/3/3 2/2/2 1/1/1
f 5/5/5 2/2/2 4/4/4
f 8/8/8 7/7/7 6/6/6
f 10/10/10 7/7/7 9/9/9
f 13/13/13 12/12/12 11/11/11
f 16/16/16 15/15/15 14/14/14
f 19/19/19 18/18/18 17/17/17
f 22/22/22 21/21/21 20/20/20
f 25/25/25 24/24/24 23/23/23
f 23/23/23 24/24/24 26/26/26
f 29/29/29 28/28/28 27/27/27
f 27/27/27 28/28/28 30/30/30
f 33/33/33 32/32/32 31/31/31
f 31/31/31 32/32/32 34/34/34
f 37/37/37 36/36/36 35/35/35
f 35/35/35 36/36/36 38/38/38
f 41/41/41 40/40/40 39/39/39
f 42/42/42 41/41/41 39/39/39
f 45/45/45 44/44/44 43/43/43
f 43/43/43 44/44/44 46/46/46
f 49/49/49 48/48/48 47/47/47
f 47/47/47 48/48/48 50/50/50
f 53/53/53 52/52/52 51/51/51
f 51/51/51 52/52/52 54/54/54
f 57/57/57 56/56/56 55/55/55
f 55/55/55 56/56/56 58/58/58
f 61/61/61 60/60/60 59/59/59
f 59/59/59 60/60/60 62/62/62
f 65/65/65 64/64/64 63/63/63
f 64/64/64 65/65/65 66/66/66
f 69/69/69 68/68/68 67/67/67
f 67/67/67 68/68/68 70/70/70
f 73/73/73 72/72/72 71/71/71
f 71/71/71 72/72/72 74/74/74
f 77/77/77 76/76/76 75/75/75
f 75/75/75 76/76/76 78/78/78
f 81/81/81 80/80/80 79/79/79
f 79/79/79 80/80/80 82/82/82
f 85/85/85 84/84/84 83/83/83
f 83/83/83 84/84/84 86/86/86
f 89/89/89 88/88/88 87/87/87
f 87/87/87 88/88/88 90/90/90
f 93/93/93 92/92/92 91/91/91
f 91/91/91 92/92/92 94/94/94
f 97/97/97 96/96/96 95/95/95
f 95/95/95 96/96/96 98/98/98
f 101/101/101 100/100/100 99/99/99
f 99/99/99 100/100/100 102/102/102
f 105/105/105 104/104/104 103/103/103
f 104/104/104 106/106/106 103/103/103
f 106/106/106 104/104/104 107/107/107
f 108/108/108 106/106/106 107/107/107
f 109/109/109 108/108/108 107/107/107
f 108/108/108 109/109/109 110/110/110
f 104/104/104 105/105/105 111/111/111
f 109/109/109 111/111/111 110/110/110
f 105/105/105 112/112/112 111/111/111
f 112/112/112 110/110/110 111/111/111
f 115/115/115 114/114/114 113/113/113
f 116/116/116 113/113/113 114/114/114
f 117/117/117 113/113/113 116/116/116
f 118/118/118 117/117/117 116/116/116
f 117/117/117 118/118/118 119/119/119
f 118/118/118 120/120/120 119/119/119
f 115/115/115 113/113/113 121/121/121
f 120/120/120 121/121/121 119/119/119
f 115/115/115 121/121/121 122/122/122
f 121/121/121 120/120/120 122/122/122
