g Model_0
v -1.875 0.0999979973 -1
v -1.875 -0.100001998 -1
v 1.875 -0.0999979973 -1
v 1.875 0.100001998 -1
v -1.87499905 0.0999979973 1
v 1.87500095 0.100001998 1
v 1.875 -0.0999979973 1
v -1.875 -0.100001998 1
v 1.875 0.100001998 -1
v 1.875 -0.0999979973 -1
v 1.875 -0.0999979973 1
v 1.87500095 0.100001998 1
v 1.875 -0.0999979973 -1
v -1.875 -0.100001998 -1
v -1.875 -0.100001998 1
v 1.875 -0.0999979973 1
v -1.87499905 0.0999979973 1
v -1.875 -0.100001998 1
v -1.875 -0.100001998 -1
v -1.875 0.0999979973 -1
v -1.77499902 0.0999979973 0.899999976
v -1.77499902 0.0395769998 0.899999976
v 1.77500105 0.0395799987 0.899999976
v 1.77500105 0.100001 0.899999976
v -1.77499998 0.0395769998 -0.899999976
v 1.77499998 0.0395799987 -0.899999976
v 1.77500105 0.0395799987 0.899999976
v -1.77499902 0.0395769998 0.899999976
v 1.77500105 0.100001 0.899999976
v 1.77500105 0.0395799987 0.899999976
v 1.77499998 0.0395799987 -0.899999976
v 1.77499998 0.100001998 -0.899999976
v -1.77499998 0.0999979973 -0.899999976
v -1.77499998 0.0395769998 -0.899999976
v -1.77499902 0.0395769998 0.899999976
v -1.77499902 0.0999979973 0.899999976
v 1.77499998 0.100001998 -0.899999976
v 1.77499998 0.0395799987 -0.899999976
v -1.77499998 0.0395769998 -0.899999976
v -1.77499998 0.0999979973 -0.899999976
v -1.58763802 0.0759780034 -0.930004001
v -1.58763802 0.0759780034 -0.980004013
v -1.58763802 0.125977993 -0.980004013
v -1.58763802 0.125977993 -0.930004001
v -1.58763802 0.125977993 -0.930004001
v -1.58763802 0.125977993 -0.980004013
v -1.53763795 0.125977993 -0.980004013
v -1.53763795 0.125977993 -0.930004001
v -1.53763795 0.125977993 -0.930004001
v -1.53763795 0.125977993 -0.980004013
v -1.53763795 0.0759780034 -0.980004013
v -1.53763795 0.0759780034 -0.930004001
v -1.53763795 0.0759780034 -0.980004013
v -1.53763795 0.125977993 -0.980004013
v -1.58763802 0.125977993 -0.980004013
v -1.58763802 0.0759780034 -0.980004013
v -1.53763795 0.125977993 -0.930004001
v -1.53763795 0.0759780034 -0.930004001
v -1.58763802 0.0759780034 -0.930004001
v -1.58763802 0.125977993 -0.930004001
v -1.75799799 0.0759780034 -0.930004001
v -1.75799799 0.0759780034 -0.980004013
v -1.75799799 0.125977993 -0.980004013
v -1.75799799 0.125977993 -0.930004001
v -1.75799799 0.125977993 -0.930004001
v -1.75799799 0.125977993 -0.980004013
v -1.70799899 0.125977993 -0.980004013
v -1.70799899 0.125977993 -0.930004001
v -1.70799899 0.125977993 -0.930004001
v -1.70799899 0.125977993 -0.980004013
v -1.70799899 0.0759780034 -0.980004013
v -1.70799899 0.0759780034 -0.930004001
v -1.70799899 0.0759780034 -0.980004013
v -1.70799899 0.125977993 -0.980004013
v -1.75799799 0.125977993 -0.980004013
v -1.75799799 0.0759780034 -0.980004013
v -1.70799899 0.125977993 -0.930004001
v -1.70799899 0.0759780034 -0.930004001
v -1.75799799 0.0759780034 -0.930004001
v -1.75799799 0.125977993 -0.930004001
v -1.67208195 0.0759780034 -0.930004001
v -1.67208195 0.0759780034 -0.980004013
v -1.67208195 0.125977993 -0.980004013
v -1.67208195 0.125977993 -0.930004001
v -1.67208195 0.125977993 -0.930004001
v -1.67208195 0.125977993 -0.980004013
v -1.622082 0.125977993 -0.980004013
v -1.622082 0.125977993 -0.930004001
v -1.622082 0.125977993 -0.930004001
v -1.622082 0.125977993 -0.980004013
v -1.622082 0.0759780034 -0.980004013
v -1.622082 0.0759780034 -0.930004001
v -1.622082 0.0759780034 -0.980004013
v -1.622082 0.125977993 -0.980004013
v -1.67208195 0.125977993 -0.980004013
v -1.67208195 0.0759780034 -0.980004013
v -1.622082 0.125977993 -0.930004001
v -1.622082 0.0759780034 -0.930004001
v -1.67208195 0.0759780034 -0.930004001
v -1.67208195 0.125977993 -0.930004001
v -1.875 0.0999979973 -1
v -1.77499998 0.0999979973 -0.899999976
v -1.77499902 0.0999979973 0.899999976
v -1.87499905 0.0999979973 1
v 1.875 0.100001998 -1
v 1.77500105 0.100001 0.899999976
v 1.77499998 0.100001998 -0.899999976
v 1.87500095 0.100001998 1
vt 0.192167997 0.803065002
vt 0.196783006 0.803065002
vt 0.196783006 0.704505026
vt 0.192167997 0.704505026
vt 0.187552005 0.704505026
vt 0.187552005 0.803065002
vt 0.192167997 0.803065002
vt 0.192167997 0.704505026
vt 0.155243993 0.797807992
vt 0.150628999 0.797807992
vt 0.150628999 0.85037303
vt 0.155243993 0.85037303
vt 0.0998580009 0.704505026
vt 0.0998580009 0.803065002
vt 0.146013007 0.803065002
vt 0.146013007 0.704505026
vt 0.146013007 0.85037303
vt 0.150628999 0.85037303
vt 0.150628999 0.797807992
vt 0.146013007 0.797807992
vt 0.198177993 0.797807992
vt 0.199571997 0.797807992
vt 0.199571997 0.704505026
vt 0.198177993 0.704505026
vt 0.101741001 0.244074002
vt 0.101741001 0.337377012
vt 0.143279999 0.337377012
vt 0.143279999 0.244074002
vt 0.155243993 0.845116973
vt 0.156637996 0.845116973
vt 0.156637996 0.797807992
vt 0.155243993 0.797807992
vt 0.158032998 0.797807992
vt 0.156637996 0.797807992
vt 0.156637996 0.845116973
vt 0.158032998 0.845116973
vt 0.196783006 0.797807992
vt 0.198177993 0.797807992
vt 0.198177993 0.704505026
vt 0.196783006 0.704505026
vt 0.385185987 0.543334007
vt 0.385185987 0.544647992
vt 0.386339992 0.544647992
vt 0.386339992 0.543334007
vt 0.388648003 0.543334007
vt 0.388648003 0.544647992
vt 0.389802009 0.544647992
vt 0.389802009 0.543334007
vt 0.384032011 0.543334007
vt 0.384032011 0.544647992
vt 0.385185987 0.544647992
vt 0.385185987 0.543334007
vt 0.397879004 0.543334007
vt 0.397879004 0.544647992
vt 0.39903301 0.544647992
vt 0.39903301 0.543334007
vt 0.39210999 0.543334007
vt 0.39210999 0.544647992
vt 0.393263012 0.544647992
vt 0.393263012 0.543334007
vt 0.889379025 0.496111006
vt 0.889379025 0.49742499
vt 0.89053297 0.49742499
vt 0.89053297 0.496111006
vt 0.898609996 0.496111006
vt 0.898609996 0.49742499
vt 0.899764001 0.49742499
vt 0.899764001 0.496111006
vt 0.895147979 0.49742499
vt 0.896301985 0.49742499
vt 0.896301985 0.496111006
vt 0.895147979 0.496111006
vt 0.903226018 0.496111006
vt 0.903226018 0.49742499
vt 0.90437901 0.49742499
vt 0.90437901 0.496111006
vt 0.900918007 0.496111006
vt 0.900918007 0.49742499
vt 0.902072012 0.49742499
vt 0.902072012 0.496111006
vt 0.571772993 0.572848976
vt 0.571772993 0.57416302
vt 0.572926998 0.57416302
vt 0.572926998 0.572848976
vt 0.578696012 0.572848976
vt 0.578696012 0.57416302
vt 0.579850018 0.57416302
vt 0.579850018 0.572848976
vt 0.575235009 0.57416302
vt 0.576389015 0.57416302
vt 0.576389015 0.572848976
vt 0.575235009 0.572848976
vt 0.584465981 0.57416302
vt 0.584465981 0.572848976
vt 0.583311975 0.572848976
vt 0.583311975 0.57416302
vt 0.585619986 0.572848976
vt 0.585619986 0.57416302
vt 0.586772978 0.57416302
vt 0.586772978 0.572848976
vt 0.053704001 0.704505026
vt 0.0560120009 0.707132995
vt 0.0975510031 0.707132995
vt 0.0998580009 0.704505026
vt 0.053704001 0.803065002
vt 0.0975510031 0.80043602
vt 0.0560120009 0.80043602
vt 0.0998580009 0.803065002
vn -0 0 -1
vn -0 0 -1
vn -0 0 -1
vn -0 0 -1
vn -0 0 1
vn -0 0 1
vn -0 0 1
vn -0 0 1
vn 1 0 0
vn 1 0 0
vn 1 0 0
vn 1 0 0
vn -0 -1 0
vn -0 -1 0
vn -0 -1 0
vn -0 -1 0
vn -1 0 0
vn -1 0 0
vn -1 0 0
vn -1 0 0
vn -0 0 -1
vn -0 0 -1
vn -0 0 -1
vn -0 0 -1
vn -0 1 0
vn -0 1 0
vn -0 1 0
vn -0 1 0
vn -1 0 0
vn -1 0 0
vn -1 0 0
vn -1 0 0
vn 1 0 0
vn 1 0 0
vn 1 0 0
vn 1 0 0
vn -0 0 1
vn -0 0 1
vn -0 0 1
vn -0 0 1
vn -1 0 0
vn -1 0 0
vn -1 0 0
vn -1 0 0
vn -0 1 0
vn -0 1 0
vn -0 1 0
vn -0 1 0
vn 1 0 0
vn 1 0 0
vn 1 0 0
vn 1 0 0
vn -0 0 -1
vn -0 0 -1
vn -0 0 -1
vn -0 0 -1
vn -0 0 1
vn -0 0 1
vn -0 0 1
vn -0 0 1
vn -1 0 0
vn -1 0 0
vn -1 0 0
vn -1 0 0
vn -0 1 0
vn -0 1 0
vn -0 1 0
vn -0 1 0
vn 1 0 0
vn 1 0 0
vn 1 0 0
vn 1 0 0
vn -0 0 -1
vn -0 0 -1
vn -0 0 -1
vn -0 0 -1
vn -0 0 1
vn -0 0 1
vn -0 0 1
vn -0 0 1
vn -1 0 0
vn -1 0 0
vn -1 0 0
vn -1 0 0
vn -0 1 0
vn -0 1 0
vn -0 1 0
vn -0 1 0
vn 1 0 0
vn 1 0 0
vn 1 0 0
vn 1 0 0
vn -0 0 -1
vn -0 0 -1
vn -0 0 -1
vn -0 0 -1
vn -0 0 1
vn -0 0 1
vn -0 0 1
vn -0 0 1
vn -0 1 0
vn -0 1 0
vn -0 1 0
vn -0 1 0
vn -0 1 0
vn -0 1 0
vn -0 1 0
vn -0 1 0
g Model_0_0
f 3/3/3 2/2/2 1/1/1
f 4/4/4 3/3/3 1/1/1
f 7/7/7 6/6/6 5/5/5
f 8/8/8 7/7/7 5/5/5
f 11/11/11 10/10/10 9/9/9
f 12/12/12 11/11/11 9/9/9
f 15/15/15 14/14/14 13/13/13
f 16/16/16 15/15/15 13/13/13
f 19/19/19 18/18/18 17/17/17
f 20/20/20 19/19/19 17/17/17
f 23/23/23 22/22/22 21/21/21
f 24/24/24 23/23/23 21/21/21
f 27/27/27 26/26/26 25/25/25
f 28/28/28 27/27/27 25/25/25
f 31/31/31 30/30/30 29/29/29
f 32/32/32 31/31/31 29/29/29
f 35/35/35 34/34/34 33/33/33
f 36/36/36 35/35/35 33/33/33
f 39/39/39 38/38/38 37/37/37
f 40/40/40 39/39/39 37/37/37
f 43/43/43 42/42/42 41/41/41
f 44/44/44 43/43/43 41/41/41
f 47/47/47 46/46/46 45/45/45
f 48/48/48 47/47/47 45/45/45
f 51/51/51 50/50/50 49/49/49
f 52/52/52 51/51/51 49/49/49
f 55/55/55 54/54/54 53/53/53
f 56/56/56 55/55/55 53/53/53
f 59/59/59 58/58/58 57/57/57
f 60/60/60 59/59/59 57/57/57
f 63/63/63 62/62/62 61/61/61
f 64/64/64 63/63/63 61/61/61
f 67/67/67 66/66/66 65/65/65
f 68/68/68 67/67/67 65/65/65
f 71/71/71 70/70/70 69/69/69
f 72/72/72 71/71/71 69/69/69
f 75/75/75 74/74/74 73/73/73
f 76/76/76 75/75/75 73/73/73
f 79/79/79 78/78/78 77/77/77
f 80/80/80 79/79/79 77/77/77
f 83/83/83 82/82/82 81/81/81
f 84/84/84 83/83/83 81/81/81
f 87/87/87 86/86/86 85/85/85
f 88/88/88 87/87/87 85/85/85
f 91/91/91 90/90/90 89/89/89
f 92/92/92 91/91/91 89/89/89
f 95/95/95 94/94/94 93/93/93
f 96/96/96 95/95/95 93/93/93
f 99/99/99 98/98/98 97/97/97
f 100/100/100 99/99/99 97/97/97
f 103/103/103 102/102/102 101/101/101
f 104/104/104 103/103/103 101/101/101
f 101/101/101 102/102/102 105/105/105
f 106/106/106 103/103/103 104/104/104
f 102/102/102 107/107/107 105/105/105
f 108/108/108 106/106/106 104/104/104
f 105/105/105 107/107/107 108/108/108
f 107/107/107 106/106/106 108/108/108
