g Model_0
v -0.403324008 0.450199008 0.233864993
v -0.403324008 0.450199008 0.157300994
v -0.403324008 0.526763976 0.157300994
v -0.403324008 0.526763976 0.233864993
v -0.403324008 0.526763976 0.233864993
v -0.403324008 0.526763976 0.157300994
v -0.326759011 0.526763976 0.157300994
v -0.326759011 0.526763976 0.233864993
v -0.326759011 0.526763976 0.233864993
v -0.326759011 0.526763976 0.157300994
v -0.326759011 0.450199008 0.157300994
v -0.326759011 0.450199008 0.233864993
v -0.326759011 0.450199008 0.157300994
v -0.326759011 0.526763976 0.157300994
v -0.403324008 0.526763976 0.157300994
v -0.403324008 0.450199008 0.157300994
v -0.326759011 0.526763976 0.233864993
v -0.326759011 0.450199008 0.233864993
v -0.403324008 0.450199008 0.233864993
v -0.403324008 0.526763976 0.233864993
v 0.5 -0.5 1.12821805
v 0.5 -0.5 -0.0217819996
v -0.5 -0.5 -0.0217819996
v -0.5 -0.5 1.12821805
v -0.5 -0.5 1.12821805
v -0.5 -0.5 -0.0217819996
v -0.5 0.5 -0.0217819996
v -0.5 0.5 1.12821805
v 0.5 0.5 1.12821805
v 0.5 0.5 -0.0217819996
v 0.5 -0.5 -0.0217819996
v 0.5 -0.5 1.12821805
v 0.5 -0.5 -0.0217819996
v 0.5 0.5 -0.0217819996
v -0.5 0.5 -0.0217819996
v -0.5 -0.5 -0.0217819996
v 0.5 0.5 1.12821805
v 0.5 -0.5 1.12821805
v -0.5 -0.5 1.12821805
v -0.5 0.5 1.12821805
v 0.424950004 0.5 0.259124011
v 0.424950004 0.446031988 0.259124011
v -0.424950004 0.446031004 0.259124011
v -0.424950004 0.5 0.259124011
v -0.424950004 0.446031004 1.05316806
v -0.424950004 0.446031004 0.259124011
v 0.424950004 0.446031988 0.259124011
v 0.424950004 0.446031988 1.05316806
v 0.424950004 0.5 1.05316806
v 0.424950004 0.446031988 1.05316806
v 0.424950004 0.446031988 0.259124011
v 0.424950004 0.5 0.259124011
v -0.424950004 0.5 1.05316806
v -0.424950004 0.446031004 1.05316806
v 0.424950004 0.446031988 1.05316806
v 0.424950004 0.5 1.05316806
v -0.424950004 0.5 0.259124011
v -0.424950004 0.446031004 0.259124011
v -0.424950004 0.446031004 1.05316806
v -0.424950004 0.5 1.05316806
v -0.252000004 0.187944993 1.52405798
v 0.211731002 0.187944993 1.03643799
v 0.211731002 0.255237013 1.03643799
v -0.252000004 0.255237013 1.52405798
v -0.252000004 0.255237013 1.52405798
v 0.211731002 0.255237013 1.03643799
v 0.26049301 0.255237013 1.082811
v -0.203237996 0.255237013 1.57043099
v -0.203237996 0.255237013 1.57043099
v 0.26049301 0.255237013 1.082811
v 0.26049301 0.187944993 1.082811
v -0.203237996 0.187944993 1.57043099
v -0.203237996 0.187944993 1.57043099
v 0.26049301 0.187944993 1.082811
v 0.211731002 0.187944993 1.03643799
v -0.252000004 0.187944993 1.52405798
v -0.203237996 0.187944993 1.57043099
v -0.252000004 0.187944993 1.52405798
v -0.252000004 0.255237013 1.52405798
v -0.203237996 0.255237013 1.57043099
v 0.372545004 0.187944993 1.70063901
v 0.189753994 0.187944993 1.05302203
v 0.189753994 0.255237013 1.05302203
v 0.372545004 0.255237013 1.70063901
v 0.372545004 0.255237013 1.70063901
v 0.189753994 0.255237013 1.05302203
v 0.254514992 0.255237013 1.03474295
v 0.437307 0.255237013 1.68235898
v 0.437307 0.255237013 1.68235898
v 0.254514992 0.255237013 1.03474295
v 0.254514992 0.187944993 1.03474295
v 0.437307 0.187944993 1.68235898
v 0.437307 0.187944993 1.68235898
v 0.254514992 0.187944993 1.03474295
v 0.189753994 0.187944993 1.05302203
v 0.372545004 0.187944993 1.70063901
v 0.437307 0.187944993 1.68235898
v 0.372545004 0.187944993 1.70063901
v 0.372545004 0.255237013 1.70063901
v 0.437307 0.255237013 1.68235898
v 0.5 0.5 1.12821805
v 0.424950004 0.5 1.05316806
v 0.424950004 0.5 0.259124011
v 0.5 0.5 -0.0217819996
v -0.5 0.5 1.12821805
v -0.424950004 0.5 0.259124011
v -0.424950004 0.5 1.05316806
v -0.5 0.5 -0.0217819996
vt 0.72033602 0.272572011
vt 0.72033602 0.275424004
vt 0.723137021 0.275424004
vt 0.723137021 0.272572011
vt 0.72033602 0.235320002
vt 0.72033602 0.238171995
vt 0.723137021 0.238171995
vt 0.723137021 0.235320002
vt 0.725937009 0.270143986
vt 0.725937009 0.267291993
vt 0.723137021 0.267291993
vt 0.723137021 0.270143986
vt 0.723137021 0.270143986
vt 0.723137021 0.267291993
vt 0.72033602 0.267291993
vt 0.72033602 0.270143986
vt 0.723137021 0.270143986
vt 0.723137021 0.272996008
vt 0.725937009 0.272996008
vt 0.725937009 0.270143986
vt 0.154854998 0.82505399
vt 0.191431001 0.82505399
vt 0.191431001 0.787801027
vt 0.154854998 0.787801027
vt 0.118277997 0.787801027
vt 0.154854998 0.787801027
vt 0.154854998 0.750549018
vt 0.118277997 0.750549018
vt 0.191431001 0.82505399
vt 0.228008002 0.82505399
vt 0.228008002 0.787801027
vt 0.191431001 0.787801027
vt 0.191431001 0.787801027
vt 0.191431001 0.750549018
vt 0.154854998 0.750549018
vt 0.154854998 0.787801027
vt 0.154854998 0.713295996
vt 0.154854998 0.750549018
vt 0.191431001 0.750549018
vt 0.191431001 0.713295996
vt 0.228062004 0.748006999
vt 0.226088002 0.748006999
vt 0.226088002 0.779667974
vt 0.228062004 0.779667974
vt 0.758114994 0.747318029
vt 0.787159026 0.747318029
vt 0.787159026 0.715656996
vt 0.758114994 0.715656996
vt 0.229982004 0.787801027
vt 0.228008002 0.787801027
vt 0.228008002 0.817381024
vt 0.229982004 0.817381024
vt 0.229764 0.713295996
vt 0.227789998 0.713295996
vt 0.227789998 0.74495697
vt 0.229764 0.74495697
vt 0.230036005 0.748006999
vt 0.228062004 0.748006999
vt 0.228062004 0.77758801
vt 0.230036005 0.77758801
vt 0.274105012 0.301241994
vt 0.274105012 0.165131003
vt 0.258922011 0.165131003
vt 0.258922011 0.301241994
vt 0.243737996 0.301241994
vt 0.243737996 0.165131003
vt 0.228554994 0.165131003
vt 0.228554994 0.301241994
vt 0.304471999 0.296393007
vt 0.304471999 0.165131003
vt 0.289288998 0.165131003
vt 0.289288998 0.296393007
vt 0.213370994 0.301241994
vt 0.213370994 0.165131003
vt 0.198186994 0.165131003
vt 0.198186994 0.301241994
vt 0.334298015 0.165131003
vt 0.319656014 0.165131003
vt 0.319656014 0.178742006
vt 0.334298015 0.178742006
vt 0.319656014 0.296393007
vt 0.319656014 0.165131003
vt 0.304471999 0.165131003
vt 0.304471999 0.296393007
vt 0.258922011 0.301241994
vt 0.258922011 0.165131003
vt 0.243737996 0.165131003
vt 0.243737996 0.301241994
vt 0.289288998 0.301241994
vt 0.289288998 0.165131003
vt 0.274105012 0.165131003
vt 0.274105012 0.301241994
vt 0.228554994 0.301241994
vt 0.228554994 0.165131003
vt 0.213370994 0.165131003
vt 0.213370994 0.301241994
vt 0.334298015 0.178742006
vt 0.319656014 0.178742006
vt 0.319656014 0.192352995
vt 0.334298015 0.192352995
vt 0.154854998 0.713295996
vt 0.152109995 0.71609199
vt 0.152109995 0.745671988
vt 0.154854998 0.750549018
vt 0.118277997 0.713295996
vt 0.121022999 0.745671988
vt 0.121022999 0.71609199
vt 0.118277997 0.750549018
vn -1 0 0
vn -1 0 0
vn -1 0 0
vn -1 0 0
vn -0 1 0
vn -0 1 0
vn -0 1 0
vn -0 1 0
vn 1 0 0
vn 1 0 0
vn 1 0 0
vn 1 0 0
vn -0 0 -1
vn -0 0 -1
vn -0 0 -1
vn -0 0 -1
vn -0 0 1
vn -0 0 1
vn -0 0 1
vn -0 0 1
vn -0 -1 0
vn -0 -1 0
vn -0 -1 0
vn -0 -1 0
vn -1 0 0
vn -1 0 0
vn -1 0 0
vn -1 0 0
vn 1 0 0
vn 1 0 0
vn 1 0 0
vn 1 0 0
vn -0 0 -1
vn -0 0 -1
vn -0 0 -1
vn -0 0 -1
vn -0 0 1
vn -0 0 1
vn -0 0 1
vn -0 0 1
vn -0 0 1
vn -0 0 1
vn -0 0 1
vn -0 0 1
vn -0 1 0
vn -0 1 0
vn -0 1 0
vn -0 1 0
vn -1 0 0
vn -1 0 0
vn -1 0 0
vn -1 0 0
vn -0 0 -1
vn -0 0 -1
vn -0 0 -1
vn -0 0 -1
vn 1 0 0
vn 1 0 0
vn 1 0 0
vn 1 0 0
vn -0.72463423 0 -0.689133644
vn -0.72463423 0 -0.689133644
vn -0.72463423 0 -0.689133644
vn -0.72463423 0 -0.689133644
vn -0 1 0
vn -0 1 0
vn -0 1 0
vn -0 1 0
vn 0.72463423 0 0.689133644
vn 0.72463423 0 0.689133644
vn 0.72463423 0 0.689133644
vn 0.72463423 0 0.689133644
vn -0 -1 0
vn -0 -1 0
vn -0 -1 0
vn -0 -1 0
vn -0.689132869 0 0.724635005
vn -0.689132869 0 0.724635005
vn -0.689132869 0 0.724635005
vn -0.689132869 0 0.724635005
vn -0.962399304 0 0.27163884
vn -0.962399304 0 0.27163884
vn -0.962399304 0 0.27163884
vn -0.962399304 0 0.27163884
vn -0 1 0
vn -0 1 0
vn -0 1 0
vn -0 1 0
vn 0.962398827 0 -0.271640599
vn 0.962398827 0 -0.271640599
vn 0.962398827 0 -0.271640599
vn 0.962398827 0 -0.271640599
vn -0 -1 0
vn -0 -1 0
vn -0 -1 0
vn -0 -1 0
vn 0.271650434 0 0.962395966
vn 0.271650434 0 0.962395966
vn 0.271650434 0 0.962395966
vn 0.271650434 0 0.962395966
vn -0 1 0
vn -0 1 0
vn -0 1 0
vn -0 1 0
vn -0 1 0
vn -0 1 0
vn -0 1 0
vn -0 1 0
g Model_0_0
f 3/3/3 2/2/2 1/1/1
f 4/4/4 3/3/3 1/1/1
f 7/7/7 6/6/6 5/5/5
f 8/8/8 7/7/7 5/5/5
f 11/11/11 10/10/10 9/9/9
f 12/12/12 11/11/11 9/9/9
f 15/15/15 14/14/14 13/13/13
f 16/16/16 15/15/15 13/13/13
f 19/19/19 18/18/18 17/17/17
f 20/20/20 19/19/19 17/17/17
f 23/23/23 22/22/22 21/21/21
f 24/24/24 23/23/23 21/21/21
f 27/27/27 26/26/26 25/25/25
f 28/28/28 27/27/27 25/25/25
f 31/31/31 30/30/30 29/29/29
f 32/32/32 31/31/31 29/29/29
f 35/35/35 34/34/34 33/33/33
f 36/36/36 35/35/35 33/33/33
f 39/39/39 38/38/38 37/37/37
f 40/40/40 39/39/39 37/37/37
f 43/43/43 42/42/42 41/41/41
f 44/44/44 43/43/43 41/41/41
f 47/47/47 46/46/46 45/45/45
f 48/48/48 47/47/47 45/45/45
f 51/51/51 50/50/50 49/49/49
f 52/52/52 51/51/51 49/49/49
f 55/55/55 54/54/54 53/53/53
f 56/56/56 55/55/55 53/53/53
f 59/59/59 58/58/58 57/57/57
f 60/60/60 59/59/59 57/57/57
f 63/63/63 62/62/62 61/61/61
f 64/64/64 63/63/63 61/61/61
f 67/67/67 66/66/66 65/65/65
f 68/68/68 67/67/67 65/65/65
f 71/71/71 70/70/70 69/69/69
f 72/72/72 71/71/71 69/69/69
f 75/75/75 74/74/74 73/73/73
f 76/76/76 75/75/75 73/73/73
f 79/79/79 78/78/78 77/77/77
f 80/80/80 79/79/79 77/77/77
f 83/83/83 82/82/82 81/81/81
f 84/84/84 83/83/83 81/81/81
f 87/87/87 86/86/86 85/85/85
f 88/88/88 87/87/87 85/85/85
f 91/91/91 90/90/90 89/89/89
f 92/92/92 91/91/91 89/89/89
f 95/95/95 94/94/94 93/93/93
f 96/96/96 95/95/95 93/93/93
f 99/99/99 98/98/98 97/97/97
f 100/100/100 99/99/99 97/97/97
f 103/103/103 102/102/102 101/101/101
f 104/104/104 103/103/103 101/101/101
f 101/101/101 102/102/102 105/105/105
f 106/106/106 103/103/103 104/104/104
f 102/102/102 107/107/107 105/105/105
f 108/108/108 106/106/106 104/104/104
f 105/105/105 107/107/107 108/108/108
f 107/107/107 106/106/106 108/108/108
