g Model_0
v 1.99999547 3.5830276 2.55100775
v 1.24999535 4.00000238 0
v 2.99999499 4.00000334 0
v -4.60731326E-06 3.19231987 4.14326239
v 0.999996006 3.58302784 2.55100822
v -1.00000405 3.58302498 2.55100822
v -2.00000358 3.58302522 2.55100846
v -1.25000465 3.99999857 0
v -3.00000405 3.99999785 0
v 0.999996006 3.58302784 2.55100822
v -4.60731326E-06 3.19231987 4.14326239
v -1.00000405 3.58302498 2.55100822
v 1.99999547 3.5830276 2.55100775
v 1.24999535 4.00000238 0
v 2.99999499 4.00000334 0
v 2.99999452 4.00000381 -1.5
v -1.25000465 3.99999857 0
v -3.00000596 3.99999547 -1.5
v -3.00000405 3.99999785 0
v -2.50000334 3.49999857 0
v -1.50000274 3.09062195 2.46418428
v -1.25000393 3.49999857 0
v -4.46850709E-06 2.7867403 3.56403446
v -1.00000322 3.09062099 2.46418405
v 0.999996722 3.09062386 2.46418405
v 1.4999963 3.0906229 2.46418381
v 1.24999607 3.50000238 0
v 2.49999571 3.50000238 0
v -1.50000274 3.09062195 2.46418428
v -1.00000322 3.09062099 2.46418405
v -1.25000393 3.49999857 0
v -4.46850709E-06 2.7867403 3.56403446
v 0.999996722 3.09062386 2.46418405
v -2.99999547 -4.00000286 0
v -3.00000596 3.99999547 -1.5
v -3.00000405 3.99999785 0
v -2.99999404 -4.00000477 -1.5
v 3.00000548 -3.99999547 0
v 2.99999452 4.00000381 -1.5
v 3.00000477 -3.9999969 -1.5
v 2.99999499 4.00000334 0
v -1.25000393 3.49999857 0
v -1.00000405 3.58302498 2.55100822
v -1.25000465 3.99999857 0
v -1.00000322 3.09062099 2.46418405
v 1.24999607 3.50000238 0
v 0.999996006 3.58302784 2.55100822
v 0.999996722 3.09062386 2.46418405
v 1.24999535 4.00000238 0
v -3.00000405 3.99999785 0
v -1.99999619 -3.48302722 2.55100799
v -2.99999547 -4.00000286 0
v -2.00000358 3.58302522 2.55100846
v -4.60731326E-06 3.19231987 4.14326239
v 4.45551677E-06 -3.09231806 4.14326096
v 3.00000477 -3.9999969 -1.5
v -2.99999547 -4.00000286 0
v 3.00000548 -3.99999547 0
v -2.99999404 -4.00000477 -1.5
v -1.99999619 -3.48302722 2.55100799
v 3.00000548 -3.99999547 0
v -2.99999547 -4.00000286 0
v 2.00000477 -3.48302293 2.55100822
v 4.45551677E-06 -3.09231806 4.14326096
v 2.49999571 3.50000238 0
v 1.50000405 -2.99061966 2.46418428
v 2.50000477 -3.49999619 0
v 1.4999963 3.0906229 2.46418381
v 4.31671015E-06 -2.68673801 3.56403303
v -4.46850709E-06 2.7867403 3.56403446
v 0.999996006 3.58302784 2.55100822
v -1.00000322 3.09062099 2.46418405
v 0.999996722 3.09062386 2.46418405
v -1.00000405 3.58302498 2.55100822
v 1.99999547 3.5830276 2.55100775
v 4.45551677E-06 -3.09231806 4.14326096
v -4.60731326E-06 3.19231987 4.14326239
v 2.00000477 -3.48302293 2.55100822
v 2.99999499 4.00000334 0
v 3.00000548 -3.99999547 0
v -1.50000274 3.09062195 2.46418428
v 4.31671015E-06 -2.68673801 3.56403303
v -4.46850709E-06 2.7867403 3.56403446
v -1.4999969 -2.99062252 2.46418381
v -2.50000334 3.49999857 0
v -2.49999619 -3.50000191 0
v -1.81108069 -3.22706795 2.16378927
v -6.18713617 -4.19258022 -1.580948
v -6.13537216 -4.38576508 -1.580948
v -1.86284459 -3.03388286 2.16378927
v -1.93970144 -3.26153183 2.31301737
v -6.13537216 -4.38576508 -1.580948
v -6.26399326 -4.42022896 -1.4317199
v -1.81108069 -3.22706795 2.16378927
v -1.99146545 -3.06834698 2.31301737
v -6.26399326 -4.42022896 -1.4317199
v -6.31575727 -4.22704411 -1.4317199
v -1.93970144 -3.26153183 2.31301737
v -1.99146545 -3.06834698 2.31301737
v -6.18713617 -4.19258022 -1.580948
v -1.86284459 -3.03388286 2.16378927
v -6.31575727 -4.22704411 -1.4317199
v -6.18714857 4.19256115 -1.580948
v -1.81109047 3.22706223 2.16378927
v -6.13538551 4.385746 -1.580948
v -1.86285388 3.03387713 2.16378927
v -6.13538551 4.385746 -1.580948
v -1.93971145 3.26152611 2.31301737
v -6.26400661 4.42020988 -1.4317199
v -1.81109047 3.22706223 2.16378927
v -1.93971145 3.26152611 2.31301737
v -6.31576967 4.22702503 -1.4317199
v -6.26400661 4.42020988 -1.4317199
v -1.99147475 3.06834078 2.31301737
v -1.99147475 3.06834078 2.31301737
v -6.18714857 4.19256115 -1.580948
v -6.31576967 4.22702503 -1.4317199
v -1.86285388 3.03387713 2.16378927
v 6.18714857 -4.19256115 -1.580948
v 1.81109047 -3.22706223 2.16378927
v 6.13538551 -4.385746 -1.580948
v 1.86285388 -3.03387713 2.16378927
v 6.13538551 -4.385746 -1.580948
v 1.93971145 -3.26152611 2.31301737
v 6.26400661 -4.42020988 -1.4317199
v 1.81109047 -3.22706223 2.16378927
v 1.93971145 -3.26152611 2.31301737
v 6.31576967 -4.22702503 -1.4317199
v 6.26400661 -4.42020988 -1.4317199
v 1.99147475 -3.06834078 2.31301737
v 1.99147475 -3.06834078 2.31301737
v 6.18714857 -4.19256115 -1.580948
v 6.31576967 -4.22702503 -1.4317199
v 1.86285388 -3.03387713 2.16378927
v 1.81108069 3.22706795 2.16378927
v 6.18713617 4.19258022 -1.580948
v 6.13537216 4.38576508 -1.580948
v 1.86284459 3.03388286 2.16378927
v 1.93970144 3.26153183 2.31301737
v 6.13537216 4.38576508 -1.580948
v 6.26399326 4.42022896 -1.4317199
v 1.81108069 3.22706795 2.16378927
v 1.99146545 3.06834698 2.31301737
v 6.26399326 4.42022896 -1.4317199
v 6.31575727 4.22704411 -1.4317199
v 1.93970144 3.26153183 2.31301737
v 1.99146545 3.06834698 2.31301737
v 6.18713617 4.19258022 -1.580948
v 1.86284459 3.03388286 2.16378927
v 6.31575727 4.22704411 -1.4317199
v -2.50000334 3.49999857 0
v -1.25000393 3.49999857 0
v -2.49999619 -3.50000191 0
v 2.50000477 -3.49999619 0
v 1.24999607 3.50000238 0
v 2.49999571 3.50000238 0
v -1.25000465 3.99999857 0
v 1.24999535 4.00000238 0
v -2.49999619 -3.50000191 0
v 2.50000477 -3.49999619 0
v -1.4999969 -2.99062252 2.46418381
v 1.50000405 -2.99061966 2.46418428
v 4.31671015E-06 -2.68673801 3.56403303
vt 0.181027621 0.74458307
vt 0.174389422 0.74458307
vt 0.181027621 0.74458307
vt 0.181027621 0.74458307
vt 0.14526993 0.744406044
vt 0.173651844 0.74458307
vt 0.169226408 0.74458307
vt 0.173651844 0.74458307
vt 0.169226408 0.74458307
vt 0.14526993 0.744406044
vt 0.181027621 0.74458307
vt 0.173651844 0.74458307
vt 0.181027621 0.74458307
vt 0.174389422 0.74458307
vt 0.181027621 0.74458307
vt 0.181027621 0.779986739
vt 0.173651844 0.74458307
vt 0.169226408 0.779986739
vt 0.169226408 0.74458307
vt 0.287835687 0.264280021
vt 0.287835687 0.264280021
vt 0.287835687 0.262067318
vt 0.287835687 0.264280021
vt 0.222338945 0.197367132
vt 0.287835687 0.260960937
vt 0.287835687 0.259854555
vt 0.287835687 0.260960937
vt 0.287835687 0.259854555
vt 0.287835687 0.264280021
vt 0.222338945 0.197367132
vt 0.287835687 0.262067318
vt 0.287835687 0.264280021
vt 0.287835687 0.260960937
vt 0.145387948 0.74458307
vt 0.168990374 0.779986739
vt 0.168990374 0.74458307
vt 0.145387948 0.779986739
vt 0.216667295 0.779986739
vt 0.193064868 0.74458307
vt 0.193064868 0.779986739
vt 0.216667295 0.74458307
vt 0.33251518 0.207742393
vt 0.338415802 0.207742393
vt 0.338415802 0.207742393
vt 0.33251518 0.207742393
vt 0.33251518 0.206636012
vt 0.338415802 0.206636012
vt 0.33251518 0.206636012
vt 0.338415802 0.206636012
vt 0.168990374 0.74458307
vt 0.145387948 0.74458307
vt 0.145387948 0.74458307
vt 0.168990374 0.74458307
vt 0.168990374 0.74458307
vt 0.145387948 0.74458307
vt 0.192828834 0.798042595
vt 0.169226408 0.780340791
vt 0.169226408 0.798042595
vt 0.192828834 0.780340791
vt 0.169226408 0.780340791
vt 0.169226408 0.798042595
vt 0.169226408 0.780340791
vt 0.169226408 0.798042595
vt 0.169226408 0.780340791
vt 0.287835687 0.259854555
vt 0.281935126 0.259854555
vt 0.281935126 0.259854555
vt 0.287835687 0.259854555
vt 0.281935126 0.259854555
vt 0.287835687 0.259854555
vt 0.33251518 0.206636012
vt 0.338415802 0.207742393
vt 0.267018437 0.143042207
vt 0.267018437 0.143042207
vt 0.216667295 0.74458307
vt 0.216667295 0.779986739
vt 0.216667295 0.74458307
vt 0.216667295 0.779986739
vt 0.216667295 0.74458307
vt 0.216667295 0.779986739
vt 0.287835687 0.264280021
vt 0.281935126 0.264280021
vt 0.287835687 0.264280021
vt 0.281935126 0.264280021
vt 0.287835687 0.264280021
vt 0.281935126 0.264280021
vt 0.753879547 0.732524037
vt 0.723079264 0.763324261
vt 0.753879547 0.763324261
vt 0.723079264 0.732524037
vt 0.753879547 0.732524037
vt 0.723079264 0.763324261
vt 0.753879547 0.763324261
vt 0.723079264 0.732524037
vt 0.753879547 0.732524037
vt 0.723079264 0.763324261
vt 0.753879547 0.763324261
vt 0.723079264 0.732524037
vt 0.723079264 0.732524037
vt 0.753879547 0.763324261
vt 0.753879547 0.732524037
vt 0.723079264 0.763324261
vt 0.753879547 0.732524037
vt 0.723079264 0.763324261
vt 0.753879547 0.763324261
vt 0.723079264 0.732524037
vt 0.753879547 0.732524037
vt 0.723079264 0.763324261
vt 0.753879547 0.763324261
vt 0.723079264 0.732524037
vt 0.723079264 0.732524037
vt 0.753879547 0.763324261
vt 0.753879547 0.732524037
vt 0.723079264 0.763324261
vt 0.723079264 0.732524037
vt 0.753879547 0.763324261
vt 0.753879547 0.732524037
vt 0.723079264 0.763324261
vt 0.753879547 0.732524037
vt 0.723079264 0.763324261
vt 0.753879547 0.763324261
vt 0.723079264 0.732524037
vt 0.753879547 0.732524037
vt 0.723079264 0.763324261
vt 0.753879547 0.763324261
vt 0.723079264 0.732524037
vt 0.723079264 0.732524037
vt 0.753879547 0.763324261
vt 0.753879547 0.732524037
vt 0.723079264 0.763324261
vt 0.723079264 0.732524037
vt 0.753879547 0.763324261
vt 0.753879547 0.732524037
vt 0.723079264 0.763324261
vt 0.753879547 0.732524037
vt 0.723079264 0.763324261
vt 0.753879547 0.763324261
vt 0.723079264 0.732524037
vt 0.753879547 0.732524037
vt 0.723079264 0.763324261
vt 0.753879547 0.763324261
vt 0.723079264 0.732524037
vt 0.753879547 0.732524037
vt 0.723079264 0.763324261
vt 0.753879547 0.763324261
vt 0.723079264 0.732524037
vt 0.723079264 0.732524037
vt 0.753879547 0.763324261
vt 0.753879547 0.732524037
vt 0.723079264 0.763324261
vt 0.797373056 0.191508353
vt 0.797373056 0.18929565
vt 0.791472495 0.191508353
vt 0.791472495 0.187082887
vt 0.797373056 0.188189268
vt 0.797373056 0.187082887
vt 0.803273678 0.18929565
vt 0.803273678 0.188189268
vt 0.281935126 0.264280021
vt 0.281935126 0.259854555
vt 0.281935126 0.264280021
vt 0.281935126 0.259854555
vt 0.281935126 0.259854555
vn -0 0.982339323 0.187108204
vn -0 0.996720374 0.0809224918
vn -0 0.996720374 0.080922544
vn -0 0.971189201 0.23830995
vn -0 0.97709775 0.212791041
vn -0 0.977097869 0.212790206
vn -0 0.982339561 0.187107116
vn -0 0.99790287 0.0647292063
vn -0 0.996720374 0.0809221119
vn -0 0.97709775 0.212791041
vn -0 0.971189201 0.23830995
vn -0 0.977097869 0.212790206
vn -0 0.982339323 0.187108204
vn -0 0.996720374 0.0809224918
vn -0 0.996720374 0.080922544
vn -0 1 0
vn -0 0.99790287 0.0647292063
vn -0 1 0
vn -0 0.996720374 0.0809221119
vn -0 -0.986479461 -0.163884521
vn -0 -0.980147481 -0.198269978
vn -0 -0.986479461 -0.16388461
vn -0 -0.963885725 -0.266315907
vn -0 -0.972607017 -0.232455581
vn -0 -0.97260654 -0.232457742
vn -0 -0.980146945 -0.198272511
vn -0 -0.986479342 -0.163885564
vn -0 -0.986479342 -0.163885668
vn -0 -0.980147481 -0.198269978
vn -0 -0.972607017 -0.232455581
vn -0 -0.986479461 -0.16388461
vn -0 -0.963885725 -0.266315907
vn -0 -0.97260654 -0.232457742
vn -0.99233669 0 0.123563014
vn -1 0 0
vn -0.968983352 0 0.247126237
vn -1 0 0
vn 0.99233681 0 0.123562939
vn 1 0 0
vn 1 0 0
vn 0.968983352 0 0.247125864
vn 0.995167732 0.00864790753 -0.0978083462
vn 0.995167732 0.00864790753 -0.0978083462
vn 0.995232284 0 -0.097533226
vn 0.995028675 0.0172951669 -0.0980761275
vn -0.995167732 0.00864635222 -0.0978083163
vn -0.995167732 0.00864635222 -0.0978083163
vn -0.995028675 0.0172920562 -0.0980760977
vn -0.995232284 0 -0.0975332037
vn -0.968983352 0 0.247126237
vn -0.804473937 0 0.593987942
vn -0.99233669 0 0.123563014
vn -0.804474115 0 0.593987763
vn -0.62284559 0 0.782344818
vn -0.622845173 0 0.782345116
vn -0 -1 0
vn -0 -0.997786283 0.0665013194
vn -0 -0.991115808 0.133001715
vn -0 -1 0
vn -0 -0.977294147 0.211887315
vn -0 -0.991115808 0.133001715
vn -0 -0.997786283 0.0665013194
vn -0 -0.975834966 0.218508989
vn -0 -0.971188962 0.238310382
vn -0.92660749 0 -0.376030147
vn -0.843208611 0 -0.53758651
vn -0.92660749 0 -0.376030117
vn -0.727552354 0 -0.686052203
vn -0.591311097 0 -0.806443572
vn -0.591311216 0 -0.806443572
vn -0 0.173648313 -0.98480773
vn -0 0.173648313 -0.98480773
vn -0 0.173648313 -0.98480773
vn -0 0.173648313 -0.98480773
vn 0.748297095 0 0.663363814
vn 0.62284565 0 0.782344699
vn 0.622845829 0 0.782344639
vn 0.854240119 0 0.519878805
vn 0.968983352 0 0.247125864
vn 0.99233681 0 0.123562939
vn 0.727552533 0 -0.686052024
vn 0.591311216 0 -0.806443453
vn 0.591311872 0 -0.806442916
vn 0.843208551 0 -0.53758651
vn 0.92660749 0 -0.376030147
vn 0.92660749 0 -0.376030087
vn 0.619740367 0.16606009 -0.767037034
vn 0.619740367 0.16606009 -0.767037034
vn 0.619740069 0.16606085 -0.767037153
vn 0.619740725 0.166059345 -0.767036974
vn 0.258819699 -0.965925634 0
vn 0.258819699 -0.965925634 0
vn 0.258819342 -0.965925694 0
vn 0.258820027 -0.965925634 0
vn -0.619740605 -0.166059986 0.767036915
vn -0.619740605 -0.166059986 0.767036915
vn -0.619740605 -0.166060075 0.767036915
vn -0.619740546 -0.166059896 0.767036974
vn -0.258820176 0.965925515 0
vn -0.258820176 0.965925515 0
vn -0.258820653 0.965925395 0
vn -0.258819729 0.965925634 0
vn 0.619741201 -0.166057497 -0.767036915
vn 0.619741201 -0.166057497 -0.767036915
vn 0.619741321 -0.16605705 -0.767036974
vn 0.619741142 -0.166057929 -0.767036915
vn 0.25881806 0.965926051 0
vn 0.25881806 0.965926051 0
vn 0.258818001 0.965926051 0
vn 0.25881812 0.965926051 0
vn -0.619741261 0.166057616 0.767036915
vn -0.619741261 0.166057616 0.767036915
vn -0.619741321 0.166057855 0.767036796
vn -0.619741201 0.166057363 0.767036974
vn -0.258817583 -0.96592617 0
vn -0.258817583 -0.96592617 0
vn -0.258817613 -0.96592617 0
vn -0.258817554 -0.96592617 0
vn -0.619741201 0.166057497 -0.767036915
vn -0.619741201 0.166057497 -0.767036915
vn -0.619741321 0.16605705 -0.767036974
vn -0.619741142 0.166057929 -0.767036915
vn -0.25881806 -0.965926051 0
vn -0.25881806 -0.965926051 0
vn -0.258818001 -0.965926051 0
vn -0.25881812 -0.965926051 0
vn 0.619741261 -0.166057616 0.767036915
vn 0.619741261 -0.166057616 0.767036915
vn 0.619741321 -0.166057855 0.767036796
vn 0.619741201 -0.166057363 0.767036974
vn 0.258817583 0.96592617 0
vn 0.258817583 0.96592617 0
vn 0.258817613 0.96592617 0
vn 0.258817554 0.96592617 0
vn -0.619740367 -0.16606009 -0.767037034
vn -0.619740367 -0.16606009 -0.767037034
vn -0.619740069 -0.16606085 -0.767037153
vn -0.619740725 -0.166059345 -0.767036974
vn -0.258819699 0.965925634 0
vn -0.258819699 0.965925634 0
vn -0.258819342 0.965925694 0
vn -0.258820027 0.965925634 0
vn 0.619740605 0.166059986 0.767036915
vn 0.619740605 0.166059986 0.767036915
vn 0.619740605 0.166060075 0.767036915
vn 0.619740546 0.166059896 0.767036974
vn 0.258820176 -0.965925515 0
vn 0.258820176 -0.965925515 0
vn 0.258820653 -0.965925395 0
vn 0.258819729 -0.965925634 0
vn -0 0 1
vn -0 0 1
vn -0 0 1
vn -0 0 1
vn -0 0 1
vn -0 0 1
vn -0 0 1
vn -0 0 1
vn -0 0.979296088 -0.202433005
vn -0 0.979296207 -0.202432856
vn -0 0.974627018 -0.223834991
vn -0 0.972115695 -0.234501436
vn -0 0.963885546 -0.26631701
g Model_0_0
f 3/3/3 2/2/2 1/1/1
f 1/1/1 5/5/5 4/4/4
f 7/7/7 4/4/4 6/6/6
f 8/8/8 7/7/7 6/6/6
f 9/9/9 7/7/7 8/8/8
f 12/12/12 11/11/11 10/10/10
f 14/14/14 10/10/10 13/13/13
f 16/16/16 14/14/14 15/15/15
f 16/16/16 17/17/17 14/14/14
f 16/16/16 18/18/18 17/17/17
f 19/19/19 17/17/17 18/18/18
f 22/22/22 21/21/21 20/20/20
f 21/21/21 24/24/24 23/23/23
f 26/26/26 23/23/23 25/25/25
f 27/27/27 26/26/26 25/25/25
f 28/28/28 26/26/26 27/27/27
f 31/31/31 30/30/30 29/29/29
f 33/33/33 32/32/32 30/30/30
f 36/36/36 35/35/35 34/34/34
f 34/34/34 35/35/35 37/37/37
f 40/40/40 39/39/39 38/38/38
f 38/38/38 39/39/39 41/41/41
f 44/44/44 43/43/43 42/42/42
f 42/42/42 43/43/43 45/45/45
f 48/48/48 47/47/47 46/46/46
f 46/46/46 47/47/47 49/49/49
f 52/52/52 51/51/51 50/50/50
f 50/50/50 51/51/51 53/53/53
f 51/51/51 54/54/54 53/53/53
f 55/55/55 54/54/54 51/51/51
f 58/58/58 57/57/57 56/56/56
f 56/56/56 57/57/57 59/59/59
f 62/62/62 61/61/61 60/60/60
f 63/63/63 60/60/60 61/61/61
f 60/60/60 63/63/63 64/64/64
f 67/67/67 66/66/66 65/65/65
f 65/65/65 66/66/66 68/68/68
f 66/66/66 69/69/69 68/68/68
f 68/68/68 69/69/69 70/70/70
f 73/73/73 72/72/72 71/71/71
f 71/71/71 72/72/72 74/74/74
f 77/77/77 76/76/76 75/75/75
f 75/75/75 76/76/76 78/78/78
f 75/75/75 78/78/78 79/79/79
f 79/79/79 78/78/78 80/80/80
f 83/83/83 82/82/82 81/81/81
f 81/81/81 82/82/82 84/84/84
f 81/81/81 84/84/84 85/85/85
f 85/85/85 84/84/84 86/86/86
f 89/89/89 88/88/88 87/87/87
f 87/87/87 88/88/88 90/90/90
f 93/93/93 92/92/92 91/91/91
f 91/91/91 92/92/92 94/94/94
f 97/97/97 96/96/96 95/95/95
f 95/95/95 96/96/96 98/98/98
f 101/101/101 100/100/100 99/99/99
f 99/99/99 100/100/100 102/102/102
f 105/105/105 104/104/104 103/103/103
f 103/103/103 104/104/104 106/106/106
f 109/109/109 108/108/108 107/107/107
f 107/107/107 108/108/108 110/110/110
f 113/113/113 112/112/112 111/111/111
f 111/111/111 112/112/112 114/114/114
f 117/117/117 116/116/116 115/115/115
f 115/115/115 116/116/116 118/118/118
f 121/121/121 120/120/120 119/119/119
f 119/119/119 120/120/120 122/122/122
f 125/125/125 124/124/124 123/123/123
f 123/123/123 124/124/124 126/126/126
f 129/129/129 128/128/128 127/127/127
f 127/127/127 128/128/128 130/130/130
f 133/133/133 132/132/132 131/131/131
f 131/131/131 132/132/132 134/134/134
f 137/137/137 136/136/136 135/135/135
f 135/135/135 136/136/136 138/138/138
f 141/141/141 140/140/140 139/139/139
f 139/139/139 140/140/140 142/142/142
f 145/145/145 144/144/144 143/143/143
f 143/143/143 144/144/144 146/146/146
f 149/149/149 148/148/148 147/147/147
f 147/147/147 148/148/148 150/150/150
f 153/153/153 152/152/152 151/151/151
f 153/153/153 154/154/154 152/152/152
f 155/155/155 152/152/152 154/154/154
f 156/156/156 155/155/155 154/154/154
f 157/157/157 152/152/152 155/155/155
f 158/158/158 157/157/157 155/155/155
f 161/161/161 160/160/160 159/159/159
f 160/160/160 161/161/161 162/162/162
f 162/162/162 161/161/161 163/163/163
