v -0.287538 -0.474471 0.625010
v -0.287538 -0.474471 0.000000
v -0.287538 0.474471 0.000000
v -0.287538 0.474471 0.625010
v -0.287538 0.474471 0.625010
v -0.287538 0.474471 0.000000
v 0.287538 0.474471 0.000000
v 0.287538 0.474471 0.625010
v 0.287538 0.474471 0.625010
v 0.287538 0.474471 0.000000
v 0.287538 -0.474471 0.000000
v 0.287538 -0.474471 0.625010
v 0.287538 -0.474471 0.625010
v 0.287538 -0.474471 0.000000
v -0.287538 -0.474471 0.000000
v -0.287538 -0.474471 0.625010
v -0.287538 -0.474471 0.000000
v 0.287538 -0.474471 0.000000
v 0.287538 0.474471 0.000000
v -0.287538 0.474471 0.000000
v 0.287538 -0.474471 0.625010
v -0.287538 -0.474471 0.625010
v -0.287538 0.474471 0.625010
v 0.287538 0.474471 0.625010
vt 0.840539992 0.620625973
vt 0.725861013 0.620625973
vt 0.725861013 0.788064003
vt 0.840539992 0.788064003
vt 0.831377983 0.788064003
vt 0.831377983 0.907612026
vt 0.936895013 0.907612026
vt 0.936895013 0.788064003
vt 0.611181021 0.788064003
vt 0.725861013 0.788064003
vt 0.725861013 0.620625973
vt 0.611181021 0.620625973
vt 0.946057022 0.788064003
vt 0.946057022 0.66851598
vt 0.840539992 0.66851598
vt 0.840539992 0.788064003
vt 0.611181021 0.955501974
vt 0.716699004 0.955501974
vt 0.716699004 0.788064003
vt 0.611181021 0.788064003
vt 0.831377983 0.788064003
vt 0.725861013 0.788064003
vt 0.725861013 0.955501974
vt 0.831377983 0.955501974
vn -1.000000 0.000000 0.000000
vn -1.000000 0.000000 0.000000
vn -1.000000 0.000000 0.000000
vn -1.000000 0.000000 0.000000
vn 0.000000 1.000000 0.000000
vn 0.000000 1.000000 0.000000
vn 0.000000 1.000000 0.000000
vn 0.000000 1.000000 0.000000
vn 1.000000 0.000000 0.000000
vn 1.000000 0.000000 0.000000
vn 1.000000 0.000000 0.000000
vn 1.000000 0.000000 0.000000
vn 0.000000 -1.000000 0.000000
vn 0.000000 -1.000000 0.000000
vn 0.000000 -1.000000 0.000000
vn 0.000000 -1.000000 0.000000
vn 0.000000 0.000000 -1.000000
vn 0.000000 0.000000 -1.000000
vn 0.000000 0.000000 -1.000000
vn 0.000000 0.000000 -1.000000
vn 0.000000 0.000000 1.000000
vn 0.000000 0.000000 1.000000
vn 0.000000 0.000000 1.000000
vn 0.000000 0.000000 1.000000
f 3/3/3 2/2/2 1/1/1
f 4/4/4 3/3/3 1/1/1
f 7/7/7 6/6/6 5/5/5
f 8/8/8 7/7/7 5/5/5
f 11/11/11 10/10/10 9/9/9
f 12/12/12 11/11/11 9/9/9
f 15/15/15 14/14/14 13/13/13
f 16/16/16 15/15/15 13/13/13
f 19/19/19 18/18/18 17/17/17
f 20/20/20 19/19/19 17/17/17
f 23/23/23 22/22/22 21/21/21
f 24/24/24 23/23/23 21/21/21
