v -0.500000 -0.500000 10.186345
v -0.500000 -0.500000 -1.000000
v -0.500000 0.500000 -1.000000
v -0.500000 0.500000 10.186345
v -0.500000 0.500000 10.186345
v -0.500000 0.500000 -1.000000
v 0.500000 0.500000 -1.000000
v 0.500000 0.500000 10.186345
v 0.500000 0.500000 10.186345
v 0.500000 0.500000 -1.000000
v 0.500000 -0.500000 -1.000000
v 0.500000 -0.500000 10.186345
v 0.500000 -0.500000 10.186345
v 0.500000 -0.500000 -1.000000
v -0.500000 -0.500000 -1.000000
v -0.500000 -0.500000 10.186345
v -2.000000 -0.000000 8.688208
v -1.732050 3.000000 9.420258
v -3.464101 -0.000000 9.420258
v -1.000000 1.732051 8.688208
v 0.000000 -0.000000 8.420258
v -1.000001 -1.732050 8.688208
v -3.464101 -0.000000 9.420258
v -1.732051 -3.000000 9.420258
v 0.999999 -1.732051 8.688208
v -1.732051 -3.000000 9.420258
v 1.732050 -3.000000 9.420258
v 2.000000 -0.000000 8.688208
v 1.732050 -3.000000 9.420258
v 3.464101 -0.000000 9.420258
v 1.000000 1.732051 8.688208
v 3.464101 -0.000000 9.420258
v 1.732051 3.000000 9.420258
v 1.732051 3.000000 9.420258
v -1.732050 3.000000 9.420258
v -3.464101 -0.000000 9.420258
v -1.732050 3.000000 9.420258
v -2.000000 3.464101 11.119712
v -4.000000 -0.000000 11.119712
v -1.732051 3.000000 12.869712
v -3.464101 -0.000000 12.869712
v -1.732050 3.000000 9.420258
v 1.732051 3.000000 9.420258
v 2.000000 3.464101 11.119712
v -2.000000 3.464101 11.119712
v 1.732051 3.000000 12.869712
v -1.732051 3.000000 12.869712
v 1.732051 3.000000 9.420258
v 3.464101 -0.000000 9.420258
v 4.000000 -0.000001 11.119712
v 2.000000 3.464101 11.119712
v 3.464101 -0.000001 12.869712
v 1.732051 3.000000 12.869712
v 3.464101 -0.000000 9.420258
v 1.732050 -3.000000 9.420258
v 1.999999 -3.464102 11.119712
v 4.000000 -0.000001 11.119712
v 1.732050 -3.000000 12.869712
v 3.464101 -0.000001 12.869712
v 1.732050 -3.000000 9.420258
v -1.732051 -3.000000 9.420258
v -2.000001 -3.464101 11.119712
v 1.999999 -3.464102 11.119712
v -1.732051 -2.999999 12.869712
v 1.732050 -3.000000 12.869712
v -1.732051 -3.000000 9.420258
v -3.464101 -0.000000 9.420258
v -4.000000 -0.000000 11.119712
v -2.000001 -3.464101 11.119712
v -3.464101 -0.000000 12.869712
v -1.732051 -2.999999 12.869712
v -1.413558 1.060004 9.237749
v -3.359097 3.005542 -1.030630
v -3.700603 3.347048 -0.901221
v -1.755065 1.401510 9.367159
v -1.755065 1.401510 9.367159
v -3.700603 3.347048 -0.901221
v -3.347050 3.700601 -0.901221
v -1.401511 1.755064 9.367159
v -1.401511 1.755064 9.367159
v -3.347050 3.700601 -0.901221
v -3.005544 3.359095 -1.030630
v -1.060005 1.413558 9.237749
v -1.060005 1.413558 9.237749
v -3.005544 3.359095 -1.030630
v -3.359097 3.005542 -1.030630
v -1.413558 1.060004 9.237749
v -1.060003 -1.413559 9.237749
v -3.005538 -3.359099 -1.030630
v -3.347044 -3.700606 -0.901221
v -1.401509 -1.755066 9.367159
v -1.401509 -1.755066 9.367159
v -3.347044 -3.700606 -0.901221
v -3.700598 -3.347053 -0.901221
v -1.755062 -1.401513 9.367159
v -1.755062 -1.401513 9.367159
v -3.700598 -3.347053 -0.901221
v -3.359092 -3.005546 -1.030630
v -1.413557 -1.060006 9.237749
v -1.413557 -1.060006 9.237749
v -3.359092 -3.005546 -1.030630
v -3.005538 -3.359099 -1.030630
v -1.060003 -1.413559 9.237749
v 1.413560 -1.060002 9.237749
v 3.359102 -3.005536 -1.030630
v 3.700608 -3.347042 -0.901221
v 1.755067 -1.401508 9.367159
v 1.755067 -1.401508 9.367159
v 3.700608 -3.347042 -0.901221
v 3.347056 -3.700596 -0.901221
v 1.401514 -1.755062 9.367159
v 1.401514 -1.755062 9.367159
v 3.347056 -3.700596 -0.901221
v 3.005549 -3.359091 -1.030630
v 1.060007 -1.413556 9.237749
v 1.060007 -1.413556 9.237749
v 3.005549 -3.359091 -1.030630
v 3.359102 -3.005536 -1.030630
v 1.413560 -1.060002 9.237749
v 1.060001 1.413561 9.237749
v 3.005534 3.359104 -1.030630
v 3.347039 3.700611 -0.901221
v 1.401506 1.755068 9.367159
v 1.401506 1.755068 9.367159
v 3.347039 3.700611 -0.901221
v 3.700593 3.347059 -0.901221
v 1.755060 1.401516 9.367159
v 1.755060 1.401516 9.367159
v 3.700593 3.347059 -0.901221
v 3.359088 3.005552 -1.030630
v 1.413555 1.060008 9.237749
v 1.413555 1.060008 9.237749
v 3.359088 3.005552 -1.030630
v 3.005534 3.359104 -1.030630
v 1.060001 1.413561 9.237749
v 1.732050 -3.000000 12.869712
v -1.732051 -2.999999 12.869712
v -1.000000 -1.732050 13.601762
v 0.999999 -1.732051 13.601762
v 3.464101 -0.000001 12.869712
v -1.999999 -0.000000 13.601762
v -3.464101 -0.000000 12.869712
v 2.000000 -0.000000 13.601762
v 1.732051 3.000000 12.869712
v 0.000000 -0.000001 13.869712
v -1.000000 1.732050 13.601762
v -1.732051 3.000000 12.869712
v 1.000000 1.732050 13.601762
vt 0 0
vt 0 0
vt 0 0
vt 0 0
vt 0 0
vt 0 0
vt 0 0
vt 0 0
vt 0 0
vt 0 0
vt 0 0
vt 0 0
vt 0 0
vt 0 0
vt 0 0
vt 0 0
vt 0 0
vt 0 0
vt 0 0
vt 0 0
vt 0 0
vt 0 0
vt 0 0
vt 0 0
vt 0 0
vt 0 0
vt 0 0
vt 0 0
vt 0 0
vt 0 0
vt 0 0
vt 0 0
vt 0 0
vt 0 0
vt 0 0
vt 0 0
vt 0 0
vt 0 0
vt 0 0
vt 0 0
vt 0 0
vt 0 0
vt 0 0
vt 0 0
vt 0 0
vt 0 0
vt 0 0
vt 0 0
vt 0 0
vt 0 0
vt 0 0
vt 0 0
vt 0 0
vt 0 0
vt 0 0
vt 0 0
vt 0 0
vt 0 0
vt 0 0
vt 0 0
vt 0 0
vt 0 0
vt 0 0
vt 0 0
vt 0 0
vt 0 0
vt 0 0
vt 0 0
vt 0 0
vt 0 0
vt 0 0
vt 0 0
vt 0 0
vt 0 0
vt 0 0
vt 0 0
vt 0 0
vt 0 0
vt 0 0
vt 0 0
vt 0 0
vt 0 0
vt 0 0
vt 0 0
vt 0 0
vt 0 0
vt 0 0
vt 0 0
vt 0 0
vt 0 0
vt 0 0
vt 0 0
vt 0 0
vt 0 0
vt 0 0
vt 0 0
vt 0 0
vt 0 0
vt 0 0
vt 0 0
vt 0 0
vt 0 0
vt 0 0
vt 0 0
vt 0 0
vt 0 0
vt 0 0
vt 0 0
vt 0 0
vt 0 0
vt 0 0
vt 0 0
vt 0 0
vt 0 0
vt 0 0
vt 0 0
vt 0 0
vt 0 0
vt 0 0
vt 0 0
vt 0 0
vt 0 0
vt 0 0
vt 0 0
vt 0 0
vt 0 0
vt 0 0
vt 0 0
vt 0 0
vt 0 0
vt 0 0
vt 0 0
vt 0 0
vt 0 0
vt 0 0
vt 0 0
vt 0 0
vt 0 0
vt 0 0
vt 0 0
vt 0 0
vt 0 0
vt 0 0
vt 0 0
vt 0 0
vt 0 0
vt 0 0
vt 0 0
vn -1.000000 0.000000 0.000000
vn -1.000000 0.000000 0.000000
vn -1.000000 0.000000 0.000000
vn -1.000000 0.000000 0.000000
vn 0.000000 1.000000 0.000000
vn 0.000000 1.000000 0.000000
vn 0.000000 1.000000 0.000000
vn 0.000000 1.000000 0.000000
vn 1.000000 0.000000 0.000000
vn 1.000000 0.000000 0.000000
vn 1.000000 0.000000 0.000000
vn 1.000000 0.000000 0.000000
vn 0.000000 -1.000000 -0.000000
vn 0.000000 -1.000000 -0.000000
vn 0.000000 -1.000000 -0.000000
vn 0.000000 -1.000000 -0.000000
vn -0.291667 0.000000 -0.956520
vn -0.475718 0.462175 -0.748389
vn -0.638114 0.180896 -0.748389
vn -0.145833 0.252591 -0.956520
vn 0.000000 0.000000 -1.000000
vn -0.145833 -0.252591 -0.956520
vn -0.638115 -0.180896 -0.748389
vn -0.475718 -0.462175 -0.748389
vn 0.145833 -0.252591 -0.956520
vn -0.162397 -0.643071 -0.748389
vn 0.162397 -0.643071 -0.748389
vn 0.291666 0.000000 -0.956520
vn 0.475718 -0.462175 -0.748389
vn 0.638114 -0.180896 -0.748389
vn 0.145833 0.252591 -0.956520
vn 0.638114 0.180896 -0.748389
vn 0.475718 0.462175 -0.748389
vn 0.162397 0.643071 -0.748389
vn -0.162397 0.643071 -0.748389
vn -0.685800 0.395947 -0.610660
vn -0.685800 0.395947 -0.610660
vn -0.866020 0.499997 -0.003678
vn -0.866020 0.499997 -0.003678
vn -0.837089 0.483293 0.256340
vn -0.837089 0.483293 0.256340
vn 0.000000 0.791893 -0.610659
vn 0.000000 0.791893 -0.610659
vn 0.000000 0.999993 -0.003677
vn 0.000000 0.999993 -0.003677
vn 0.000000 0.966587 0.256339
vn 0.000000 0.966587 0.256339
vn 0.685800 0.395947 -0.610660
vn 0.685800 0.395947 -0.610660
vn 0.866020 0.499996 -0.003677
vn 0.866020 0.499996 -0.003677
vn 0.837089 0.483293 0.256340
vn 0.837089 0.483293 0.256340
vn 0.685800 -0.395947 -0.610660
vn 0.685800 -0.395947 -0.610660
vn 0.866019 -0.499997 -0.003678
vn 0.866019 -0.499997 -0.003678
vn 0.837089 -0.483294 0.256340
vn 0.837089 -0.483294 0.256340
vn 0.000000 -0.791893 -0.610660
vn 0.000000 -0.791893 -0.610660
vn 0.000000 -0.999993 -0.003677
vn 0.000000 -0.999993 -0.003677
vn 0.000000 -0.966587 0.256340
vn 0.000000 -0.966587 0.256340
vn -0.685800 -0.395946 -0.610660
vn -0.685800 -0.395946 -0.610660
vn -0.866020 -0.499996 -0.003677
vn -0.866020 -0.499996 -0.003677
vn -0.837089 -0.483293 0.256340
vn -0.837089 -0.483293 0.256340
vn -0.707106 -0.707107 -0.000000
vn -0.707106 -0.707107 -0.000000
vn -0.707106 -0.707107 -0.000000
vn -0.707106 -0.707107 -0.000000
vn -0.683013 0.683013 0.258819
vn -0.683013 0.683013 0.258819
vn -0.683013 0.683013 0.258819
vn -0.683013 0.683013 0.258819
vn 0.707107 0.707107 0.000000
vn 0.707107 0.707107 0.000000
vn 0.707107 0.707107 0.000000
vn 0.707107 0.707107 0.000000
vn 0.683013 -0.683012 -0.258819
vn 0.683013 -0.683012 -0.258819
vn 0.683013 -0.683012 -0.258819
vn 0.683013 -0.683012 -0.258819
vn 0.707108 -0.707106 -0.000000
vn 0.707108 -0.707106 -0.000000
vn 0.707108 -0.707106 -0.000000
vn 0.707108 -0.707106 -0.000000
vn -0.683012 -0.683013 0.258819
vn -0.683012 -0.683013 0.258819
vn -0.683012 -0.683013 0.258819
vn -0.683012 -0.683013 0.258819
vn -0.707108 0.707105 0.000000
vn -0.707108 0.707105 0.000000
vn -0.707108 0.707105 0.000000
vn -0.707108 0.707105 0.000000
vn 0.683011 0.683014 -0.258819
vn 0.683011 0.683014 -0.258819
vn 0.683011 0.683014 -0.258819
vn 0.683011 0.683014 -0.258819
vn 0.707106 0.707107 0.000000
vn 0.707106 0.707107 0.000000
vn 0.707106 0.707107 0.000000
vn 0.707106 0.707107 0.000000
vn 0.683014 -0.683011 0.258819
vn 0.683014 -0.683011 0.258819
vn 0.683014 -0.683011 0.258819
vn 0.683014 -0.683011 0.258819
vn -0.707105 -0.707108 -0.000000
vn -0.707105 -0.707108 -0.000000
vn -0.707105 -0.707108 -0.000000
vn -0.707105 -0.707108 -0.000000
vn -0.683014 0.683011 -0.258819
vn -0.683014 0.683011 -0.258819
vn -0.683014 0.683011 -0.258819
vn -0.683014 0.683011 -0.258819
vn -0.707109 0.707104 0.000000
vn -0.707109 0.707104 0.000000
vn -0.707109 0.707104 0.000000
vn -0.707109 0.707104 0.000000
vn 0.683011 0.683015 0.258819
vn 0.683011 0.683015 0.258819
vn 0.683011 0.683015 0.258819
vn 0.683011 0.683015 0.258819
vn 0.707109 -0.707104 -0.000000
vn 0.707109 -0.707104 -0.000000
vn 0.707109 -0.707104 -0.000000
vn 0.707109 -0.707104 -0.000000
vn -0.683011 -0.683014 -0.258819
vn -0.683011 -0.683014 -0.258819
vn -0.683011 -0.683014 -0.258819
vn -0.683011 -0.683014 -0.258819
vn 0.223607 -0.387298 0.894427
vn -0.223607 -0.387298 0.894427
vn -0.145833 -0.252591 0.956520
vn 0.145833 -0.252591 0.956520
vn 0.447213 -0.000000 0.894427
vn -0.291666 -0.000000 0.956520
vn -0.447213 -0.000000 0.894427
vn 0.291666 -0.000000 0.956520
vn 0.223607 0.387298 0.894427
vn 0.000000 -0.000000 1.000000
vn -0.145833 0.252590 0.956520
vn -0.223607 0.387298 0.894428
vn 0.145833 0.252590 0.956520
f 3/3/3 2/2/2 1/1/1
f 4/4/4 3/3/3 1/1/1
f 7/7/7 6/6/6 5/5/5
f 8/8/8 7/7/7 5/5/5
f 11/11/11 10/10/10 9/9/9
f 12/12/12 11/11/11 9/9/9
f 15/15/15 14/14/14 13/13/13
f 16/16/16 15/15/15 13/13/13
f 19/19/19 18/18/18 17/17/17
f 18/18/18 20/20/20 17/17/17
f 17/17/17 20/20/20 21/21/21
f 22/22/22 17/17/17 21/21/21
f 23/23/23 17/17/17 22/22/22
f 24/24/24 23/23/23 22/22/22
f 25/25/25 22/22/22 21/21/21
f 26/26/26 22/22/22 25/25/25
f 27/27/27 26/26/26 25/25/25
f 28/28/28 25/25/25 21/21/21
f 29/29/29 25/25/25 28/28/28
f 30/30/30 29/29/29 28/28/28
f 31/31/31 28/28/28 21/21/21
f 20/20/20 31/31/31 21/21/21
f 32/32/32 28/28/28 31/31/31
f 33/33/33 32/32/32 31/31/31
f 34/34/34 31/31/31 20/20/20
f 35/35/35 34/34/34 20/20/20
f 38/38/38 37/37/37 36/36/36
f 39/39/39 38/38/38 36/36/36
f 40/40/40 38/38/38 39/39/39
f 41/41/41 40/40/40 39/39/39
f 44/44/44 43/43/43 42/42/42
f 45/45/45 44/44/44 42/42/42
f 46/46/46 44/44/44 45/45/45
f 47/47/47 46/46/46 45/45/45
f 50/50/50 49/49/49 48/48/48
f 51/51/51 50/50/50 48/48/48
f 52/52/52 50/50/50 51/51/51
f 53/53/53 52/52/52 51/51/51
f 56/56/56 55/55/55 54/54/54
f 57/57/57 56/56/56 54/54/54
f 58/58/58 56/56/56 57/57/57
f 59/59/59 58/58/58 57/57/57
f 62/62/62 61/61/61 60/60/60
f 63/63/63 62/62/62 60/60/60
f 64/64/64 62/62/62 63/63/63
f 65/65/65 64/64/64 63/63/63
f 68/68/68 67/67/67 66/66/66
f 69/69/69 68/68/68 66/66/66
f 70/70/70 68/68/68 69/69/69
f 71/71/71 70/70/70 69/69/69
f 74/74/74 73/73/73 72/72/72
f 75/75/75 74/74/74 72/72/72
f 78/78/78 77/77/77 76/76/76
f 79/79/79 78/78/78 76/76/76
f 82/82/82 81/81/81 80/80/80
f 83/83/83 82/82/82 80/80/80
f 86/86/86 85/85/85 84/84/84
f 87/87/87 86/86/86 84/84/84
f 90/90/90 89/89/89 88/88/88
f 91/91/91 90/90/90 88/88/88
f 94/94/94 93/93/93 92/92/92
f 95/95/95 94/94/94 92/92/92
f 98/98/98 97/97/97 96/96/96
f 99/99/99 98/98/98 96/96/96
f 102/102/102 101/101/101 100/100/100
f 103/103/103 102/102/102 100/100/100
f 106/106/106 105/105/105 104/104/104
f 107/107/107 106/106/106 104/104/104
f 110/110/110 109/109/109 108/108/108
f 111/111/111 110/110/110 108/108/108
f 114/114/114 113/113/113 112/112/112
f 115/115/115 114/114/114 112/112/112
f 118/118/118 117/117/117 116/116/116
f 119/119/119 118/118/118 116/116/116
f 122/122/122 121/121/121 120/120/120
f 123/123/123 122/122/122 120/120/120
f 126/126/126 125/125/125 124/124/124
f 127/127/127 126/126/126 124/124/124
f 130/130/130 129/129/129 128/128/128
f 131/131/131 130/130/130 128/128/128
f 134/134/134 133/133/133 132/132/132
f 135/135/135 134/134/134 132/132/132
f 138/138/138 137/137/137 136/136/136
f 139/139/139 138/138/138 136/136/136
f 139/139/139 136/136/136 140/140/140
f 138/138/138 141/141/141 137/137/137
f 141/141/141 142/142/142 137/137/137
f 143/143/143 139/139/139 140/140/140
f 143/143/143 140/140/140 144/144/144
f 145/145/145 138/138/138 139/139/139
f 145/145/145 141/141/141 138/138/138
f 145/145/145 139/139/139 143/143/143
f 141/141/141 146/146/146 142/142/142
f 145/145/145 146/146/146 141/141/141
f 146/146/146 147/147/147 142/142/142
f 148/148/148 144/144/144 147/147/147
f 148/148/148 143/143/143 144/144/144
f 145/145/145 143/143/143 148/148/148
f 146/146/146 148/148/148 147/147/147
f 145/145/145 148/148/148 146/146/146
