g Model_0_Alive
v -0.125 0.125 6.07446051
v -0.125 0.125 0
v 0.125 0.125 0
v 0.125 0.125 6.07446051
v -0.125 -0.125 6.58010006
v -0.125 -0.125 0
v -0.125 0.125 0
v -0.125 0.125 6.07446051
v -0.125 0.125 6.33493853
v -0.125 0.125 6.58010006
v -0.125 0.744567454 6.30896044
v -0.125 0.686962664 6.56298876
v -0.125 1.40985918 6.67803574
v -0.125 1.40985918 6.41755772
v -0.125 0.125 6.58010006
v -0.125 0.125 6.33493853
v 0.125 0.125 6.33493853
v 0.125 0.125 6.58010006
v 0.125 -0.125 6.58010006
v -0.125 -0.125 6.58010006
v -0.125 0.125 6.58010006
v 0.125 0.125 6.58010006
v 0.125 -0.125 6.58010006
v 0.125 0.125 0
v 0.125 -0.125 0
v 0.125 0.125 6.07446051
v 0.125 0.125 6.33493853
v 0.125 0.125 6.58010006
v 0.125 0.744567454 6.30896044
v 0.125 0.686962664 6.56298876
v 0.125 1.40985918 6.67803574
v 0.125 1.40985918 6.41755772
v -0.125 0.125 6.33493853
v 0.125 0.686962664 6.56298876
v 0.125 0.125 6.33493853
v -0.125 0.686962664 6.56298876
v 0.125 1.40985918 6.67803574
v -0.125 1.40985918 6.67803574
v 0.125 0.125 6.07446051
v -0.125 0.744567454 6.30896044
v -0.125 0.125 6.07446051
v 0.125 0.744567454 6.30896044
v -0.125 1.40985918 6.41755772
v 0.125 1.40985918 6.41755772
v -0.125 8.9098587 6.41755772
v 0.125 8.9098587 6.41755772
v -0.125 -0.125 6.58010006
v 0.125 -0.125 6.58010006
v 0.125 -0.125 0
v -0.125 -0.125 0
v -0.125 1.40985918 6.67803574
v -0.125 8.9098587 6.67803574
v 0.125 8.9098587 6.67803574
v 0.125 1.40985918 6.67803574
v 0.125 1.40985918 6.67803574
v 0.125 8.9098587 6.67803574
v 0.125 8.9098587 6.41755772
v 0.125 1.40985918 6.41755772
v -0.125 1.40985918 6.41755772
v -0.125 8.9098587 6.41755772
v -0.125 8.9098587 6.67803574
v -0.125 1.40985918 6.67803574
v -0.125 8.9098587 6.67803574
v -0.125 8.9098587 6.41755772
v 0.125 8.9098587 6.41755772
v 0.125 8.9098587 6.67803574
v -0.523460746 2.52237082 6.78532076
v -0.48036477 2.52237082 6.28532076
v -0.48036477 3.02237129 6.28532076
v -0.523460746 3.02237129 6.78532076
v -0.523460746 3.02237129 6.78532076
v -0.48036477 3.02237129 6.28532076
v -0.205344856 3.02237129 6.28532076
v -0.205344856 3.02237129 6.78532076
v -0.205344856 2.52237082 6.78532076
v -0.205344856 2.52237082 6.28532076
v -0.48036477 2.52237082 6.28532076
v -0.523460746 2.52237082 6.78532076
v -0.48036477 2.52237082 6.28532076
v -0.205344856 2.52237082 6.28532076
v -0.205344856 3.02237129 6.28532076
v -0.48036477 3.02237129 6.28532076
v -0.205344856 2.52237082 6.78532076
v -0.523460746 2.52237082 6.78532076
v -0.523460746 3.02237129 6.78532076
v -0.205344856 3.02237129 6.78532076
v -0.272601068 2.42821264 6.91054058
v -0.272601068 2.42821264 6.16054058
v -0.272601068 4.40901279 6.16054058
v -0.272601068 4.40901279 6.91054058
v -0.272601068 4.40901279 6.91054058
v -0.272601068 4.40901279 6.16054058
v -0.0226010829 4.40901279 6.16054058
v -0.0226010829 4.40901279 6.91054058
v -0.0226010829 4.40901279 6.91054058
v -0.0226010829 4.40901279 6.16054058
v -0.0226010829 2.42821264 6.16054058
v -0.0226010829 2.42821264 6.91054058
v -0.0226010829 2.42821264 6.91054058
v -0.0226010829 2.42821264 6.16054058
v -0.272601068 2.42821264 6.16054058
v -0.272601068 2.42821264 6.91054058
v -0.272601068 2.42821264 6.16054058
v -0.0226010829 2.42821264 6.16054058
v -0.0226010829 4.40901279 6.16054058
v -0.272601068 4.40901279 6.16054058
v -0.0226010829 2.42821264 6.91054058
v -0.272601068 2.42821264 6.91054058
v -0.272601068 4.40901279 6.91054058
v -0.0226010829 4.40901279 6.91054058
v -0.523460746 3.77464247 6.78532076
v -0.48036477 3.77464247 6.28532076
v -0.48036477 4.27464294 6.28532076
v -0.523460746 4.27464294 6.78532076
v -0.523460746 4.27464294 6.78532076
v -0.48036477 4.27464294 6.28532076
v -0.205344856 4.27464294 6.28532076
v -0.205344856 4.27464294 6.78532076
v -0.205344856 3.77464247 6.78532076
v -0.205344856 3.77464247 6.28532076
v -0.48036477 3.77464247 6.28532076
v -0.523460746 3.77464247 6.78532076
v -0.48036477 3.77464247 6.28532076
v -0.205344856 3.77464247 6.28532076
v -0.205344856 4.27464294 6.28532076
v -0.48036477 4.27464294 6.28532076
v -0.205344856 3.77464247 6.78532076
v -0.523460746 3.77464247 6.78532076
v -0.523460746 4.27464294 6.78532076
v -0.205344856 4.27464294 6.78532076
v -0.523460746 3.14869785 6.78532076
v -0.48036477 3.14869785 6.28532076
v -0.48036477 3.64869833 6.28532076
v -0.523460746 3.64869833 6.78532076
v -0.523460746 3.64869833 6.78532076
v -0.48036477 3.64869833 6.28532076
v -0.205344856 3.64869833 6.28532076
v -0.205344856 3.64869833 6.78532076
v -0.205344856 3.14869785 6.78532076
v -0.205344856 3.14869785 6.28532076
v -0.48036477 3.14869785 6.28532076
v -0.523460746 3.14869785 6.78532076
v -0.48036477 3.14869785 6.28532076
v -0.205344856 3.14869785 6.28532076
v -0.205344856 3.64869833 6.28532076
v -0.48036477 3.64869833 6.28532076
v -0.205344856 3.14869785 6.78532076
v -0.523460746 3.14869785 6.78532076
v -0.523460746 3.64869833 6.78532076
v -0.205344856 3.64869833 6.78532076
v -0.523460746 6.52237082 6.78532076
v -0.48036477 6.52237082 6.28532076
v -0.48036477 7.02237129 6.28532076
v -0.523460746 7.02237129 6.78532076
v -0.523460746 7.02237129 6.78532076
v -0.48036477 7.02237129 6.28532076
v -0.205344856 7.02237129 6.28532076
v -0.205344856 7.02237129 6.78532076
v -0.205344856 6.52237082 6.78532076
v -0.205344856 6.52237082 6.28532076
v -0.48036477 6.52237082 6.28532076
v -0.523460746 6.52237082 6.78532076
v -0.48036477 6.52237082 6.28532076
v -0.205344856 6.52237082 6.28532076
v -0.205344856 7.02237129 6.28532076
v -0.48036477 7.02237129 6.28532076
v -0.205344856 6.52237082 6.78532076
v -0.523460746 6.52237082 6.78532076
v -0.523460746 7.02237129 6.78532076
v -0.205344856 7.02237129 6.78532076
v -0.272601068 6.42821264 6.91054058
v -0.272601068 6.42821264 6.16054058
v -0.272601068 8.40901279 6.16054058
v -0.272601068 8.40901279 6.91054058
v -0.272601068 8.40901279 6.91054058
v -0.272601068 8.40901279 6.16054058
v -0.0226010829 8.40901279 6.16054058
v -0.0226010829 8.40901279 6.91054058
v -0.0226010829 8.40901279 6.91054058
v -0.0226010829 8.40901279 6.16054058
v -0.0226010829 6.42821264 6.16054058
v -0.0226010829 6.42821264 6.91054058
v -0.0226010829 6.42821264 6.91054058
v -0.0226010829 6.42821264 6.16054058
v -0.272601068 6.42821264 6.16054058
v -0.272601068 6.42821264 6.91054058
v -0.272601068 6.42821264 6.16054058
v -0.0226010829 6.42821264 6.16054058
v -0.0226010829 8.40901279 6.16054058
v -0.272601068 8.40901279 6.16054058
v -0.0226010829 6.42821264 6.91054058
v -0.272601068 6.42821264 6.91054058
v -0.272601068 8.40901279 6.91054058
v -0.0226010829 8.40901279 6.91054058
v -0.523460746 7.77464247 6.78532076
v -0.48036477 7.77464247 6.28532076
v -0.48036477 8.27464294 6.28532076
v -0.523460746 8.27464294 6.78532076
v -0.523460746 8.27464294 6.78532076
v -0.48036477 8.27464294 6.28532076
v -0.205344856 8.27464294 6.28532076
v -0.205344856 8.27464294 6.78532076
v -0.205344856 7.77464247 6.78532076
v -0.205344856 7.77464247 6.28532076
v -0.48036477 7.77464247 6.28532076
v -0.523460746 7.77464247 6.78532076
v -0.48036477 7.77464247 6.28532076
v -0.205344856 7.77464247 6.28532076
v -0.205344856 8.27464294 6.28532076
v -0.48036477 8.27464294 6.28532076
v -0.205344856 7.77464247 6.78532076
v -0.523460746 7.77464247 6.78532076
v -0.523460746 8.27464294 6.78532076
v -0.205344856 8.27464294 6.78532076
v -0.523460746 7.14869785 6.78532076
v -0.48036477 7.14869785 6.28532076
v -0.48036477 7.64869833 6.28532076
v -0.523460746 7.64869833 6.78532076
v -0.523460746 7.64869833 6.78532076
v -0.48036477 7.64869833 6.28532076
v -0.205344856 7.64869833 6.28532076
v -0.205344856 7.64869833 6.78532076
v -0.205344856 7.14869785 6.78532076
v -0.205344856 7.14869785 6.28532076
v -0.48036477 7.14869785 6.28532076
v -0.523460746 7.14869785 6.78532076
v -0.48036477 7.14869785 6.28532076
v -0.205344856 7.14869785 6.28532076
v -0.205344856 7.64869833 6.28532076
v -0.48036477 7.64869833 6.28532076
v -0.205344856 7.14869785 6.78532076
v -0.523460746 7.14869785 6.78532076
v -0.523460746 7.64869833 6.78532076
v -0.205344856 7.64869833 6.78532076
v -0.125 0.125 0
v -0.125 -0.125 0
v 0.125 -0.125 0
v 0.125 0.125 0
vt 0.114316076 0.790360451
vt 0.114316076 0.704606831
vt 0.109805226 0.704606831
vt 0.109805197 0.790360451
vt 0.0498691499 0.710216165
vt 0.0731770843 0.801300347
vt 0.0776001662 0.800607502
vt 0.0560832918 0.716522515
vt 0.0551606417 0.712916911
vt 0.0542922318 0.70952332
vt 0.0662142634 0.711559474
vt 0.0642952919 0.70820272
vt 0.0766775012 0.704606831
vt 0.0776001662 0.708212435
vt 0.136844099 0.750627995
vt 0.141267657 0.750627995
vt 0.141267657 0.747098684
vt 0.136844099 0.747098684
vt 0.136844099 0.750627995
vt 0.136844099 0.747098684
vt 0.132359535 0.747098684
vt 0.132359535 0.750627995
vt 0.105294347 0.705989361
vt 0.100783467 0.798881173
vt 0.105294317 0.798881173
vt 0.100783497 0.713127553
vt 0.100783497 0.709450305
vt 0.100783497 0.705989361
vt 0.089604333 0.709817052
vt 0.0906437337 0.706230938
vt 0.0776001662 0.704606831
vt 0.0776001662 0.70828402
vt 0.134163886 0.761075079
vt 0.138674766 0.769309342
vt 0.138674766 0.761075079
vt 0.134163886 0.769309342
vt 0.138674766 0.779630184
vt 0.134163886 0.779630184
vt 0.139122069 0.704606831
vt 0.143632919 0.713709831
vt 0.143632919 0.704606831
vt 0.139122069 0.713709831
vt 0.143632919 0.723221481
vt 0.139122069 0.723221481
vt 0.143632919 0.723221481
vt 0.139122069 0.723221481
vt 0.105294347 0.797498524
vt 0.109805197 0.797498524
vt 0.109805197 0.704606831
vt 0.105294347 0.704606831
vt 0.134163886 0.779630184
vt 0.134163886 0.779630184
vt 0.138674766 0.779630184
vt 0.138674766 0.779630184
vt 0.0776001662 0.704606831
vt 0.0776001662 0.704606831
vt 0.0776001662 0.70828402
vt 0.0776001662 0.70828402
vt 0.0776001662 0.708212435
vt 0.0776001662 0.708212435
vt 0.0766775012 0.704606831
vt 0.0766775012 0.704606831
vt 0.138674766 0.779630184
vt 0.0766775012 0.704606831
vt 0.143632919 0.723221481
vt 0.0776001662 0.70828402
vt 0.718418121 0.222499385
vt 0.718418121 0.234515145
vt 0.73079133 0.234515145
vt 0.73079133 0.222499385
vt 0.386035681 0.352364421
vt 0.387102157 0.364338636
vt 0.393907934 0.364338636
vt 0.393907934 0.352364421
vt 0.410743505 0.352364421
vt 0.410743505 0.364338577
vt 0.417549282 0.364338577
vt 0.418615729 0.352364421
vt 0.410743505 0.376312733
vt 0.417549282 0.376312733
vt 0.417549282 0.364338577
vt 0.410743505 0.364338577
vt 0.418615729 0.334862947
vt 0.410743505 0.334862947
vt 0.410743505 0.346837163
vt 0.418615729 0.346837163
vt 0.373662472 0.352364421
vt 0.392183691 0.352364421
vt 0.392183691 0.304927528
vt 0.373662472 0.304927588
vt 0.4045569 0.304927528
vt 0.4045569 0.322888792
vt 0.410743505 0.322888792
vt 0.410743505 0.304927528
vt 0.373662472 0.304927528
vt 0.355102688 0.304927588
vt 0.355102688 0.352364421
vt 0.373662472 0.352364421
vt 0.410743505 0.340850055
vt 0.410743505 0.322888792
vt 0.4045569 0.322888792
vt 0.4045569 0.340850055
vt 0.398370296 0.304927528
vt 0.392183691 0.304927528
vt 0.392183691 0.352364421
vt 0.398370296 0.352364421
vt 0.398370296 0.352364421
vt 0.4045569 0.352364421
vt 0.4045569 0.304927528
vt 0.398370296 0.304927528
vt 0.626581132 0.768732727
vt 0.626581132 0.756716907
vt 0.614207923 0.756716907
vt 0.614207983 0.768732727
vt 0.418615729 0.334862947
vt 0.419682175 0.346837103
vt 0.426487952 0.346837103
vt 0.426487952 0.334862947
vt 0.418615729 0.352364421
vt 0.418615729 0.364338577
vt 0.425421506 0.364338577
vt 0.426487952 0.352364421
vt 0.425421506 0.364338577
vt 0.418615729 0.364338577
vt 0.418615729 0.376312733
vt 0.425421506 0.376312733
vt 0.418615729 0.304927528
vt 0.410743505 0.304927528
vt 0.410743505 0.316901743
vt 0.418615729 0.316901743
vt 0.863228083 0.671124101
vt 0.863228083 0.683139801
vt 0.875601292 0.683139801
vt 0.875601292 0.671124101
vt 0.418615729 0.322888792
vt 0.419682175 0.334862947
vt 0.426487952 0.334862947
vt 0.426487952 0.322888792
vt 0.418615729 0.304927528
vt 0.418615729 0.316901684
vt 0.425421447 0.316901684
vt 0.426487952 0.304927528
vt 0.393907934 0.364338636
vt 0.387102157 0.364338636
vt 0.387102157 0.376312792
vt 0.393907934 0.376312792
vt 0.418615729 0.322888792
vt 0.410743505 0.322888792
vt 0.410743505 0.334862947
vt 0.418615729 0.334862947
vt 0.718418121 0.222499385
vt 0.718418121 0.234515145
vt 0.73079133 0.234515145
vt 0.73079133 0.222499385
vt 0.386035681 0.352364421
vt 0.387102157 0.364338636
vt 0.393907934 0.364338636
vt 0.393907934 0.352364421
vt 0.410743505 0.352364421
vt 0.410743505 0.364338577
vt 0.417549282 0.364338577
vt 0.418615729 0.352364421
vt 0.410743505 0.376312733
vt 0.417549282 0.376312733
vt 0.417549282 0.364338577
vt 0.410743505 0.364338577
vt 0.418615729 0.334862947
vt 0.410743505 0.334862947
vt 0.410743505 0.346837163
vt 0.418615729 0.346837163
vt 0.373662472 0.352364421
vt 0.392183691 0.352364421
vt 0.392183691 0.304927528
vt 0.373662472 0.304927588
vt 0.4045569 0.304927528
vt 0.4045569 0.322888792
vt 0.410743505 0.322888792
vt 0.410743505 0.304927528
vt 0.373662472 0.304927528
vt 0.355102688 0.304927588
vt 0.355102688 0.352364421
vt 0.373662472 0.352364421
vt 0.410743505 0.340850055
vt 0.410743505 0.322888792
vt 0.4045569 0.322888792
vt 0.4045569 0.340850055
vt 0.398370296 0.304927528
vt 0.392183691 0.304927528
vt 0.392183691 0.352364421
vt 0.398370296 0.352364421
vt 0.398370296 0.352364421
vt 0.4045569 0.352364421
vt 0.4045569 0.304927528
vt 0.398370296 0.304927528
vt 0.626581132 0.768732727
vt 0.626581132 0.756716907
vt 0.614207923 0.756716907
vt 0.614207983 0.768732727
vt 0.418615729 0.334862947
vt 0.419682175 0.346837103
vt 0.426487952 0.346837103
vt 0.426487952 0.334862947
vt 0.418615729 0.352364421
vt 0.418615729 0.364338577
vt 0.425421506 0.364338577
vt 0.426487952 0.352364421
vt 0.425421506 0.364338577
vt 0.418615729 0.364338577
vt 0.418615729 0.376312733
vt 0.425421506 0.376312733
vt 0.418615729 0.304927528
vt 0.410743505 0.304927528
vt 0.410743505 0.316901743
vt 0.418615729 0.316901743
vt 0.863228083 0.671124101
vt 0.863228083 0.683139801
vt 0.875601292 0.683139801
vt 0.875601292 0.671124101
vt 0.418615729 0.322888792
vt 0.419682175 0.334862947
vt 0.426487952 0.334862947
vt 0.426487952 0.322888792
vt 0.418615729 0.304927528
vt 0.418615729 0.316901684
vt 0.425421447 0.316901684
vt 0.426487952 0.304927528
vt 0.393907934 0.364338636
vt 0.387102157 0.364338636
vt 0.387102157 0.376312792
vt 0.393907934 0.376312792
vt 0.418615729 0.322888792
vt 0.410743505 0.322888792
vt 0.410743505 0.334862947
vt 0.418615729 0.334862947
vt 0.109805226 0.704606831
vt 0.0776001662 0.800607502
vt 0.105294347 0.704606831
vt 0.105294317 0.798881173
vn -0 1 0
vn -0 1 0
vn -0 1 0
vn -0 1 0
vn -1 0 0
vn -1 0 0
vn -1 0 0
vn -1 0 0
vn -1 0 0
vn -1 0 0
vn -1 0 0
vn -1 0 0
vn -1 0 0
vn -1 0 0
vn -0 1 0
vn -0 1 0
vn -0 1 0
vn -0 1 0
vn -0 0 1
vn -0 0 1
vn -0 0 1
vn -0 0 1
vn 1 0 0
vn 1 0 0
vn 1 0 0
vn 1 0 0
vn 1 0 0
vn 1 0 0
vn 1 0 0
vn 1 0 0
vn 1 0 0
vn 1 0 0
vn -0 -0.376027316 0.926608622
vn -0 -0.268335223 0.963325679
vn -0 -0.376027316 0.926608622
vn -0 -0.268335223 0.963325679
vn -0 -0.0788299665 0.996888101
vn -0 -0.0788299665 0.996888101
vn -0 0.353983223 -0.935251772
vn -0 0.258835226 -0.965921521
vn -0 0.353983223 -0.935251772
vn -0 0.258835226 -0.965921521
vn -0 0.0808145404 -0.996729136
vn -0 0.0808145404 -0.996729136
vn -0 0 -1
vn -0 0 -1
vn -0 -1 0
vn -0 -1 0
vn -0 -1 0
vn -0 -1 0
vn -0 -0.0788299665 0.996888101
vn -0 0 1
vn -0 0 1
vn -0 -0.0788299665 0.996888101
vn 1 0 0
vn 1 0 0
vn 1 0 0
vn 1 0 0
vn -1 0 0
vn -1 0 0
vn -1 0 0
vn -1 0 0
vn -0 1 0
vn -0 1 0
vn -0 1 0
vn -0 1 0
vn -0.996306062 0 -0.0858735666
vn -0.996306062 0 -0.0858735666
vn -0.996306062 0 -0.0858735666
vn -0.996306062 0 -0.0858735666
vn -0 1 0
vn -0 1 0
vn -0 1 0
vn -0 1 0
vn -0 -1 0
vn -0 -1 0
vn -0 -1 0
vn -0 -1 0
vn -0 0 -1
vn -0 0 -1
vn -0 0 -1
vn -0 0 -1
vn -0 0 1
vn -0 0 1
vn -0 0 1
vn -0 0 1
vn -1 0 0
vn -1 0 0
vn -1 0 0
vn -1 0 0
vn -0 1 0
vn -0 1 0
vn -0 1 0
vn -0 1 0
vn 1 0 0
vn 1 0 0
vn 1 0 0
vn 1 0 0
vn -0 -1 0
vn -0 -1 0
vn -0 -1 0
vn -0 -1 0
vn -0 0 -1
vn -0 0 -1
vn -0 0 -1
vn -0 0 -1
vn -0 0 1
vn -0 0 1
vn -0 0 1
vn -0 0 1
vn -0.996306062 0 -0.0858735666
vn -0.996306062 0 -0.0858735666
vn -0.996306062 0 -0.0858735666
vn -0.996306062 0 -0.0858735666
vn -0 1 0
vn -0 1 0
vn -0 1 0
vn -0 1 0
vn -0 -1 0
vn -0 -1 0
vn -0 -1 0
vn -0 -1 0
vn -0 0 -1
vn -0 0 -1
vn -0 0 -1
vn -0 0 -1
vn -0 0 1
vn -0 0 1
vn -0 0 1
vn -0 0 1
vn -0.996306062 0 -0.0858735666
vn -0.996306062 0 -0.0858735666
vn -0.996306062 0 -0.0858735666
vn -0.996306062 0 -0.0858735666
vn -0 1 0
vn -0 1 0
vn -0 1 0
vn -0 1 0
vn -0 -1 0
vn -0 -1 0
vn -0 -1 0
vn -0 -1 0
vn -0 0 -1
vn -0 0 -1
vn -0 0 -1
vn -0 0 -1
vn -0 0 1
vn -0 0 1
vn -0 0 1
vn -0 0 1
vn -0.996306062 0 -0.0858735666
vn -0.996306062 0 -0.0858735666
vn -0.996306062 0 -0.0858735666
vn -0.996306062 0 -0.0858735666
vn -0 1 0
vn -0 1 0
vn -0 1 0
vn -0 1 0
vn -0 -1 0
vn -0 -1 0
vn -0 -1 0
vn -0 -1 0
vn -0 0 -1
vn -0 0 -1
vn -0 0 -1
vn -0 0 -1
vn -0 0 1
vn -0 0 1
vn -0 0 1
vn -0 0 1
vn -1 0 0
vn -1 0 0
vn -1 0 0
vn -1 0 0
vn -0 1 0
vn -0 1 0
vn -0 1 0
vn -0 1 0
vn 1 0 0
vn 1 0 0
vn 1 0 0
vn 1 0 0
vn -0 -1 0
vn -0 -1 0
vn -0 -1 0
vn -0 -1 0
vn -0 0 -1
vn -0 0 -1
vn -0 0 -1
vn -0 0 -1
vn -0 0 1
vn -0 0 1
vn -0 0 1
vn -0 0 1
vn -0.996306062 0 -0.0858735666
vn -0.996306062 0 -0.0858735666
vn -0.996306062 0 -0.0858735666
vn -0.996306062 0 -0.0858735666
vn -0 1 0
vn -0 1 0
vn -0 1 0
vn -0 1 0
vn -0 -1 0
vn -0 -1 0
vn -0 -1 0
vn -0 -1 0
vn -0 0 -1
vn -0 0 -1
vn -0 0 -1
vn -0 0 -1
vn -0 0 1
vn -0 0 1
vn -0 0 1
vn -0 0 1
vn -0.996306062 0 -0.0858735666
vn -0.996306062 0 -0.0858735666
vn -0.996306062 0 -0.0858735666
vn -0.996306062 0 -0.0858735666
vn -0 1 0
vn -0 1 0
vn -0 1 0
vn -0 1 0
vn -0 -1 0
vn -0 -1 0
vn -0 -1 0
vn -0 -1 0
vn -0 0 -1
vn -0 0 -1
vn -0 0 -1
vn -0 0 -1
vn -0 0 1
vn -0 0 1
vn -0 0 1
vn -0 0 1
vn -0 0 -1
vn -0 0 -1
vn -0 0 -1
vn -0 0 -1
g Model_0_Alive_0
f 3/3/3 2/2/2 1/1/1
f 4/4/4 3/3/3 1/1/1
f 7/7/7 6/6/6 5/5/5
f 8/8/8 7/7/7 5/5/5
f 5/5/5 9/9/9 8/8/8
f 10/10/10 9/9/9 5/5/5
f 11/11/11 8/8/8 9/9/9
f 12/12/12 11/11/11 9/9/9
f 12/12/12 13/13/13 11/11/11
f 13/13/13 14/14/14 11/11/11
f 17/17/17 16/16/16 15/15/15
f 18/18/18 17/17/17 15/15/15
f 21/21/21 20/20/20 19/19/19
f 22/22/22 21/21/21 19/19/19
f 25/25/25 24/24/24 23/23/23
f 24/24/24 26/26/26 23/23/23
f 23/23/23 26/26/26 27/27/27
f 28/28/28 23/23/23 27/27/27
f 27/27/27 26/26/26 29/29/29
f 30/30/30 27/27/27 29/29/29
f 30/30/30 29/29/29 31/31/31
f 29/29/29 32/32/32 31/31/31
f 35/35/35 34/34/34 33/33/33
f 34/34/34 36/36/36 33/33/33
f 34/34/34 37/37/37 36/36/36
f 37/37/37 38/38/38 36/36/36
f 41/41/41 40/40/40 39/39/39
f 40/40/40 42/42/42 39/39/39
f 40/40/40 43/43/43 42/42/42
f 43/43/43 44/44/44 42/42/42
f 43/43/43 45/45/45 44/44/44
f 45/45/45 46/46/46 44/44/44
f 49/49/49 48/48/48 47/47/47
f 50/50/50 49/49/49 47/47/47
f 53/53/53 52/52/52 51/51/51
f 54/54/54 53/53/53 51/51/51
f 57/57/57 56/56/56 55/55/55
f 58/58/58 57/57/57 55/55/55
f 61/61/61 60/60/60 59/59/59
f 62/62/62 61/61/61 59/59/59
f 65/65/65 64/64/64 63/63/63
f 66/66/66 65/65/65 63/63/63
f 69/69/69 68/68/68 67/67/67
f 70/70/70 69/69/69 67/67/67
f 73/73/73 72/72/72 71/71/71
f 74/74/74 73/73/73 71/71/71
f 77/77/77 76/76/76 75/75/75
f 78/78/78 77/77/77 75/75/75
f 81/81/81 80/80/80 79/79/79
f 82/82/82 81/81/81 79/79/79
f 85/85/85 84/84/84 83/83/83
f 86/86/86 85/85/85 83/83/83
f 89/89/89 88/88/88 87/87/87
f 90/90/90 89/89/89 87/87/87
f 93/93/93 92/92/92 91/91/91
f 94/94/94 93/93/93 91/91/91
f 97/97/97 96/96/96 95/95/95
f 98/98/98 97/97/97 95/95/95
f 101/101/101 100/100/100 99/99/99
f 102/102/102 101/101/101 99/99/99
f 105/105/105 104/104/104 103/103/103
f 106/106/106 105/105/105 103/103/103
f 109/109/109 108/108/108 107/107/107
f 110/110/110 109/109/109 107/107/107
f 113/113/113 112/112/112 111/111/111
f 114/114/114 113/113/113 111/111/111
f 117/117/117 116/116/116 115/115/115
f 118/118/118 117/117/117 115/115/115
f 121/121/121 120/120/120 119/119/119
f 122/122/122 121/121/121 119/119/119
f 125/125/125 124/124/124 123/123/123
f 126/126/126 125/125/125 123/123/123
f 129/129/129 128/128/128 127/127/127
f 130/130/130 129/129/129 127/127/127
f 133/133/133 132/132/132 131/131/131
f 134/134/134 133/133/133 131/131/131
f 137/137/137 136/136/136 135/135/135
f 138/138/138 137/137/137 135/135/135
f 141/141/141 140/140/140 139/139/139
f 142/142/142 141/141/141 139/139/139
f 145/145/145 144/144/144 143/143/143
f 146/146/146 145/145/145 143/143/143
f 149/149/149 148/148/148 147/147/147
f 150/150/150 149/149/149 147/147/147
f 153/153/153 152/152/152 151/151/151
f 154/154/154 153/153/153 151/151/151
f 157/157/157 156/156/156 155/155/155
f 158/158/158 157/157/157 155/155/155
f 161/161/161 160/160/160 159/159/159
f 162/162/162 161/161/161 159/159/159
f 165/165/165 164/164/164 163/163/163
f 166/166/166 165/165/165 163/163/163
f 169/169/169 168/168/168 167/167/167
f 170/170/170 169/169/169 167/167/167
f 173/173/173 172/172/172 171/171/171
f 174/174/174 173/173/173 171/171/171
f 177/177/177 176/176/176 175/175/175
f 178/178/178 177/177/177 175/175/175
f 181/181/181 180/180/180 179/179/179
f 182/182/182 181/181/181 179/179/179
f 185/185/185 184/184/184 183/183/183
f 186/186/186 185/185/185 183/183/183
f 189/189/189 188/188/188 187/187/187
f 190/190/190 189/189/189 187/187/187
f 193/193/193 192/192/192 191/191/191
f 194/194/194 193/193/193 191/191/191
f 197/197/197 196/196/196 195/195/195
f 198/198/198 197/197/197 195/195/195
f 201/201/201 200/200/200 199/199/199
f 202/202/202 201/201/201 199/199/199
f 205/205/205 204/204/204 203/203/203
f 206/206/206 205/205/205 203/203/203
f 209/209/209 208/208/208 207/207/207
f 210/210/210 209/209/209 207/207/207
f 213/213/213 212/212/212 211/211/211
f 214/214/214 213/213/213 211/211/211
f 217/217/217 216/216/216 215/215/215
f 218/218/218 217/217/217 215/215/215
f 221/221/221 220/220/220 219/219/219
f 222/222/222 221/221/221 219/219/219
f 225/225/225 224/224/224 223/223/223
f 226/226/226 225/225/225 223/223/223
f 229/229/229 228/228/228 227/227/227
f 230/230/230 229/229/229 227/227/227
f 233/233/233 232/232/232 231/231/231
f 234/234/234 233/233/233 231/231/231
f 237/237/237 236/236/236 235/235/235
f 238/238/238 237/237/237 235/235/235
