v 1.688519 -1.185697 -0.250000
v 1.688519 -5.255773 -0.250000
v 1.688519 -5.255773 0.250000
v 1.688519 5.248868 0.250000
v 1.688519 1.178792 -0.250000
v 1.688519 -5.255773 0.250000
v 1.688519 5.248868 0.250000
v 1.688519 -1.185697 -0.250000
v 1.688519 5.248868 -0.250000
v 1.688519 1.178792 -0.250000
v -1.406242 -5.342371 0.511607
v -1.406242 -5.342371 -0.302084
v -1.593742 -5.342372 -0.302084
v -1.593742 -5.342372 -0.302084
v -1.593742 -5.342372 0.578414
v -1.406242 -5.342371 0.511607
v -1.406250 5.154870 0.511607
v -1.406250 5.154870 -0.302084
v -1.593750 5.154870 -0.302084
v -1.593750 5.154870 -0.302084
v -1.593750 5.154870 0.578414
v -1.406250 5.154870 0.511607
v -1.593750 5.154870 0.578414
v -0.937500 5.154870 0.822916
v -1.406250 5.154870 0.511607
v 0.937500 5.154870 0.822916
v 0.937500 5.154870 1.010416
v -0.937500 5.154870 1.010416
v -1.593750 5.154870 0.578414
v -0.937500 5.154870 1.010416
v -0.937500 5.154870 0.822916
v 1.406250 5.342370 0.511607
v 1.406250 5.342370 -0.302084
v 1.593750 5.342370 -0.302084
v 1.593750 5.342370 -0.302084
v 1.593750 5.342370 0.578414
v 1.406250 5.342370 0.511607
v 1.406258 -5.154868 0.511607
v 1.406258 -5.154868 -0.302084
v 1.593758 -5.154867 -0.302084
v 1.593758 -5.154867 -0.302084
v 1.593758 -5.154867 0.578414
v 1.406258 -5.154868 0.511607
v 1.593758 -5.154867 0.578414
v 0.937508 -5.154868 0.822916
v 1.406258 -5.154868 0.511607
v -0.937492 -5.154871 0.822916
v -0.937492 -5.154871 1.010416
v 0.937508 -5.154868 1.010416
v 1.593758 -5.154867 0.578414
v 0.937508 -5.154868 1.010416
v 0.937508 -5.154868 0.822916
v -1.593742 -5.342372 0.578414
v -1.593742 -5.154872 0.578414
v -0.937492 -5.154871 1.010416
v -1.593742 -5.342372 0.578414
v -0.937492 -5.154871 1.010416
v -0.937492 -5.342371 1.010416
v -1.688519 5.248868 0.250000
v -1.688519 5.248868 -0.250000
v 1.688519 5.248868 -0.250000
v 1.688519 5.248868 0.250000
v -1.593750 5.154870 -0.302084
v -1.593750 5.342370 -0.302084
v -1.593750 5.342370 0.578414
v -1.593750 5.154870 0.578414
v 1.688519 -5.255773 0.250000
v 1.688519 -5.255773 -0.250000
v -1.688519 -5.255773 -0.250000
v -1.688519 -5.255773 0.250000
v -1.688519 1.178792 -0.250000
v 1.688519 1.178792 -0.250000
v 1.688519 5.248868 -0.250000
v -1.688519 5.248868 -0.250000
v 1.688519 -5.255773 0.250000
v -1.688519 -5.255773 0.250000
v -1.688519 5.248868 0.250000
v 1.688519 5.248868 0.250000
v -1.688519 5.248868 0.250000
v -1.688519 -5.255773 0.250000
v -1.688519 -5.255773 -0.250000
v -1.688519 -1.185697 -0.250000
v -1.688519 -1.185697 -0.250000
v -1.688519 1.178792 -0.250000
v -1.688519 5.248868 0.250000
v -1.688519 5.248868 -0.250000
v -1.688519 -5.255773 -0.250000
v 1.688519 -5.255773 -0.250000
v 1.688519 -1.185697 -0.250000
v -1.688519 -1.185697 -0.250000
v -1.688519 1.178792 -0.250000
v -1.438519 0.678792 -0.750000
v 1.438519 0.678792 -0.750000
v 1.688519 1.178792 -0.250000
v -1.438519 -0.685697 -0.750000
v 1.438519 -0.685697 -0.750000
v 1.438519 0.678792 -0.750000
v -1.438519 0.678792 -0.750000
v 1.688519 -1.185697 -0.250000
v 1.438519 -0.685697 -0.750000
v -1.438519 -0.685697 -0.750000
v -1.688519 -1.185697 -0.250000
v 1.688519 1.178792 -0.250000
v 1.438519 0.678792 -0.750000
v 1.438519 -0.685697 -0.750000
v 1.688519 -1.185697 -0.250000
v -1.688519 -1.185697 -0.250000
v -1.438519 -0.685697 -0.750000
v -1.438519 0.678792 -0.750000
v -1.688519 1.178792 -0.250000
v -0.070312 5.178307 0.910540
v -0.070312 5.178307 -0.302084
v -0.070312 5.318932 -0.302084
v -0.070312 5.318932 0.910540
v -0.070312 5.318932 0.910540
v -0.070312 5.318932 -0.302084
v 0.070312 5.318932 -0.302084
v 0.070312 5.318932 0.910540
v 0.070312 5.318932 0.910540
v 0.070312 5.318932 -0.302084
v 0.070312 5.178307 -0.302084
v 0.070312 5.178307 0.910540
v 0.070312 5.178307 0.910540
v 0.070312 5.178307 -0.302084
v -0.070312 5.178307 -0.302084
v -0.070312 5.178307 0.910540
v 0.679688 5.178307 0.910540
v 0.679688 5.178307 -0.302084
v 0.679688 5.318932 -0.302084
v 0.679688 5.318932 0.910540
v 0.679688 5.318932 0.910540
v 0.679688 5.318932 -0.302084
v 0.820312 5.318932 -0.302084
v 0.820312 5.318932 0.910540
v 0.820312 5.318932 0.910540
v 0.820312 5.318932 -0.302084
v 0.820312 5.178307 -0.302084
v 0.820312 5.178307 0.910540
v 0.820312 5.178307 0.910540
v 0.820312 5.178307 -0.302084
v 0.679688 5.178307 -0.302084
v 0.679688 5.178307 0.910540
v -0.679688 5.178307 0.910540
v -0.679688 5.318932 0.910540
v -0.679688 5.318932 -0.302084
v -0.679688 5.178307 -0.302084
v -0.679688 5.318932 0.910540
v -0.820312 5.318932 0.910540
v -0.820312 5.318932 -0.302084
v -0.679688 5.318932 -0.302084
v -0.820312 5.318932 0.910540
v -0.820312 5.178307 0.910540
v -0.820312 5.178307 -0.302084
v -0.820312 5.318932 -0.302084
v -0.820312 5.178307 0.910540
v -0.679688 5.178307 0.910540
v -0.679688 5.178307 -0.302084
v -0.820312 5.178307 -0.302084
v 1.406250 5.154870 0.511607
v 1.406250 5.154870 -0.302084
v 1.406250 5.342370 -0.302084
v 1.406250 5.342370 0.511607
v -1.593742 -5.342372 -0.302084
v -1.593742 -5.154872 -0.302084
v -1.593742 -5.154872 0.578414
v -1.593742 -5.342372 0.578414
v -0.937500 5.342370 1.010416
v -0.937500 5.154870 1.010416
v -1.593750 5.154870 0.578414
v -1.593750 5.342370 0.578414
v -1.406250 5.154870 0.511607
v -1.406250 5.342370 0.511607
v -1.406250 5.342370 -0.302084
v -1.406250 5.154870 -0.302084
v 1.593758 -5.342367 0.578414
v 1.593758 -5.342367 -0.302084
v 1.406258 -5.342368 -0.302084
v 1.406258 -5.342368 0.511607
v 0.937508 -5.342368 0.822916
v 0.937508 -5.342368 1.010416
v -0.937492 -5.342371 0.822916
v -0.937492 -5.342371 1.010416
v -1.593742 -5.342372 0.578414
v -1.406242 -5.342371 0.511607
v 1.593750 5.342370 -0.302084
v 1.593750 5.154870 -0.302084
v 1.593750 5.154870 0.578414
v 1.593750 5.342370 0.578414
v 1.593750 5.154870 0.578414
v 1.593750 5.154870 -0.302084
v 1.406250 5.154870 -0.302084
v 1.406250 5.154870 0.511607
v 1.406250 5.154870 0.511607
v 0.937500 5.154870 0.822916
v 1.593750 5.154870 0.578414
v 0.937500 5.154870 1.010416
v -0.937500 5.342370 0.822916
v -1.406250 5.342370 0.511607
v -1.406250 5.154870 0.511607
v -0.937500 5.154870 0.822916
v 0.937500 5.342370 1.010416
v 0.937500 5.154870 1.010416
v -0.937500 5.154870 1.010416
v -0.937500 5.342370 1.010416
v -1.593750 5.342370 0.578414
v -1.593750 5.342370 -0.302084
v -1.406250 5.342370 -0.302084
v -1.406250 5.342370 0.511607
v -0.937500 5.342370 0.822916
v -0.937500 5.342370 1.010416
v 0.937500 5.342370 0.822916
v 0.937500 5.342370 1.010416
v 1.593750 5.342370 0.578414
v 1.406250 5.342370 0.511607
v 1.406250 5.342370 0.511607
v 0.937500 5.342370 0.822916
v 0.937500 5.154870 0.822916
v 1.406250 5.154870 0.511607
v 0.937500 5.342370 0.822916
v -0.937500 5.342370 0.822916
v -0.937500 5.154870 0.822916
v 0.937500 5.154870 0.822916
v 1.406250 5.342370 -0.302084
v 1.406250 5.154870 -0.302084
v 1.593750 5.154870 -0.302084
v 1.593750 5.342370 -0.302084
v 0.679688 5.318932 -0.302084
v 0.679688 5.178307 -0.302084
v 0.820312 5.178307 -0.302084
v 0.820312 5.318932 -0.302084
v -0.070312 5.318932 -0.302084
v -0.070312 5.178307 -0.302084
v 0.070312 5.178307 -0.302084
v 0.070312 5.318932 -0.302084
v -0.679688 5.318932 -0.302084
v -0.820312 5.318932 -0.302084
v -0.820312 5.178307 -0.302084
v -0.679688 5.178307 -0.302084
v -1.406250 5.342370 -0.302084
v -1.593750 5.342370 -0.302084
v -1.593750 5.154870 -0.302084
v -1.406250 5.154870 -0.302084
v 0.070320 -5.178307 0.910540
v 0.070320 -5.178307 -0.302084
v 0.070321 -5.318932 -0.302084
v 0.070321 -5.318932 0.910540
v 0.070321 -5.318932 0.910540
v 0.070321 -5.318932 -0.302084
v -0.070304 -5.318932 -0.302084
v -0.070304 -5.318932 0.910540
v -0.070304 -5.318932 0.910540
v -0.070304 -5.318932 -0.302084
v -0.070305 -5.178307 -0.302084
v -0.070305 -5.178307 0.910540
v -0.070305 -5.178307 0.910540
v -0.070305 -5.178307 -0.302084
v 0.070320 -5.178307 -0.302084
v 0.070320 -5.178307 0.910540
v -0.679680 -5.178308 0.910540
v -0.679680 -5.178308 -0.302084
v -0.679679 -5.318933 -0.302084
v -0.679679 -5.318933 0.910540
v -0.679679 -5.318933 0.910540
v -0.679679 -5.318933 -0.302084
v -0.820304 -5.318933 -0.302084
v -0.820304 -5.318933 0.910540
v -0.820304 -5.318933 0.910540
v -0.820304 -5.318933 -0.302084
v -0.820305 -5.178308 -0.302084
v -0.820305 -5.178308 0.910540
v -0.820305 -5.178308 0.910540
v -0.820305 -5.178308 -0.302084
v -0.679680 -5.178308 -0.302084
v -0.679680 -5.178308 0.910540
v 0.679695 -5.178306 0.910540
v 0.679696 -5.318931 0.910540
v 0.679696 -5.318931 -0.302084
v 0.679695 -5.178306 -0.302084
v 0.679696 -5.318931 0.910540
v 0.820321 -5.318931 0.910540
v 0.820321 -5.318931 -0.302084
v 0.679696 -5.318931 -0.302084
v 0.820321 -5.318931 0.910540
v 0.820320 -5.178306 0.910540
v 0.820320 -5.178306 -0.302084
v 0.820321 -5.318931 -0.302084
v 0.820320 -5.178306 0.910540
v 0.679695 -5.178306 0.910540
v 0.679695 -5.178306 -0.302084
v 0.820320 -5.178306 -0.302084
v -1.406242 -5.154871 0.511607
v -1.406242 -5.154871 -0.302084
v -1.406242 -5.342371 -0.302084
v -1.406242 -5.342371 0.511607
v -1.593742 -5.154872 0.578414
v -1.593742 -5.154872 -0.302084
v -1.406242 -5.154871 -0.302084
v -1.406242 -5.154871 0.511607
v -1.406242 -5.154871 0.511607
v -0.937492 -5.154871 0.822916
v -1.593742 -5.154872 0.578414
v -0.937492 -5.154871 1.010416
v 1.593750 5.342370 0.578414
v 1.593750 5.154870 0.578414
v 0.937500 5.154870 1.010416
v 0.937500 5.342370 1.010416
v 1.406258 -5.154868 0.511607
v 1.406258 -5.342368 0.511607
v 1.406258 -5.342368 -0.302084
v 1.406258 -5.154868 -0.302084
v 0.937508 -5.342368 1.010416
v 0.937508 -5.154868 1.010416
v 1.593758 -5.154867 0.578414
v 1.593758 -5.342367 0.578414
v 0.937508 -5.342368 0.822916
v 1.406258 -5.342368 0.511607
v 1.406258 -5.154868 0.511607
v 0.937508 -5.154868 0.822916
v -0.937492 -5.342371 1.010416
v -0.937492 -5.154871 1.010416
v 0.937508 -5.154868 1.010416
v 0.937508 -5.342368 1.010416
v -1.406242 -5.342371 0.511607
v -0.937492 -5.342371 0.822916
v -0.937492 -5.154871 0.822916
v -1.406242 -5.154871 0.511607
v -0.937492 -5.342371 0.822916
v 0.937508 -5.342368 0.822916
v 0.937508 -5.154868 0.822916
v -0.937492 -5.154871 0.822916
v -1.406242 -5.342371 -0.302084
v -1.406242 -5.154871 -0.302084
v -1.593742 -5.154872 -0.302084
v -1.593742 -5.342372 -0.302084
v -0.679679 -5.318933 -0.302084
v -0.679680 -5.178308 -0.302084
v -0.820305 -5.178308 -0.302084
v -0.820304 -5.318933 -0.302084
v 0.070321 -5.318932 -0.302084
v 0.070320 -5.178307 -0.302084
v -0.070305 -5.178307 -0.302084
v -0.070304 -5.318932 -0.302084
v 0.679696 -5.318931 -0.302084
v 0.820321 -5.318931 -0.302084
v 0.820320 -5.178306 -0.302084
v 0.679695 -5.178306 -0.302084
v 1.406258 -5.342368 -0.302084
v 1.593758 -5.342367 -0.302084
v 1.593758 -5.154867 -0.302084
v 1.406258 -5.154868 -0.302084
v 1.593758 -5.154867 -0.302084
v 1.593758 -5.342367 -0.302084
v 1.593758 -5.342367 0.578414
v 1.593758 -5.154867 0.578414
vt 0.230830997 0.600930989
vt 0.230830997 0.600930989
vt 0.230830997 0.511012018
vt 0.140911996 0.511012018
vt 0.230830997 0.600930989
vt 0.230830997 0.511012018
vt 0.140911996 0.511012018
vt 0.230830997 0.600930989
vt 0.140911996 0.600930989
vt 0.230830997 0.600930989
vt 0.857838988 0.477025002
vt 0.777575016 0.557287991
vt 0.857838988 0.557287991
vt 0.857838988 0.557287991
vt 0.777575016 0.557287991
vt 0.857838988 0.477025002
vt 0.777575016 0.557287991
vt 0.857838988 0.557287991
vt 0.857838988 0.477025002
vt 0.857838988 0.477025002
vt 0.857838988 0.557287991
vt 0.777575016 0.557287991
vt 0.857838988 0.557287991
vt 0.777575016 0.557287991
vt 0.777575016 0.557287991
vt 0.777575016 0.557287991
vt 0.857838988 0.477025002
vt 0.857838988 0.477025002
vt 0.857838988 0.557287991
vt 0.857838988 0.477025002
vt 0.777575016 0.557287991
vt 0.857838988 0.477025002
vt 0.777575016 0.557287991
vt 0.857838988 0.557287991
vt 0.857838988 0.557287991
vt 0.777575016 0.557287991
vt 0.857838988 0.477025002
vt 0.777575016 0.557287991
vt 0.857838988 0.557287991
vt 0.857838988 0.477025002
vt 0.857838988 0.477025002
vt 0.857838988 0.557287991
vt 0.777575016 0.557287991
vt 0.857838988 0.557287991
vt 0.777575016 0.557287991
vt 0.777575016 0.557287991
vt 0.777575016 0.557287991
vt 0.857838988 0.477025002
vt 0.857838988 0.477025002
vt 0.857838988 0.557287991
vt 0.857838988 0.477025002
vt 0.777575016 0.557287991
vt 0.857838988 0.477025002
vt 0.777575016 0.477025002
vt 0.857838988 0.557287991
vt 0.857838988 0.477025002
vt 0.857838988 0.557287991
vt 0.857838988 0.477025002
vt 0.140911996 0.511012018
vt 0.140911996 0.600930989
vt 0.230830997 0.600930989
vt 0.230830997 0.511012018
vt 0.857838988 0.557287991
vt 0.857838988 0.477025002
vt 0.857838988 0.557287991
vt 0.857838988 0.477025002
vt 0.140911996 0.511012018
vt 0.140911996 0.600930989
vt 0.230830997 0.600930989
vt 0.230830997 0.511012018
vt 0.140911996 0.511012018
vt 0.140911996 0.600930989
vt 0.230830997 0.600930989
vt 0.230830997 0.511012018
vt 0.140911996 0.511012018
vt 0.140911996 0.600930989
vt 0.230830997 0.600930989
vt 0.230830997 0.511012018
vt 0.230830997 0.511012018
vt 0.140911996 0.511012018
vt 0.140911996 0.600930989
vt 0.230830997 0.600930989
vt 0.230830997 0.600930989
vt 0.230830997 0.600930989
vt 0.230830997 0.511012018
vt 0.230830997 0.600930989
vt 0.140911996 0.511012018
vt 0.140911996 0.600930989
vt 0.230830997 0.600930989
vt 0.230830997 0.511012018
vt 0.140911996 0.511012018
vt 0.140911996 0.600930989
vt 0.230830997 0.600930989
vt 0.230830997 0.511012018
vt 0.140911996 0.511012018
vt 0.140911996 0.600930989
vt 0.230830997 0.600930989
vt 0.230830997 0.511012018
vt 0.140911996 0.511012018
vt 0.140911996 0.600930989
vt 0.230830997 0.600930989
vt 0.230830997 0.511012018
vt 0.140911996 0.511012018
vt 0.140911996 0.600930989
vt 0.230830997 0.600930989
vt 0.230830997 0.511012018
vt 0.140911996 0.511012018
vt 0.140911996 0.600930989
vt 0.230830997 0.600930989
vt 0.230830997 0.511012018
vt 0.777575016 0.477025002
vt 0.777575016 0.557287991
vt 0.857838988 0.557287991
vt 0.857838988 0.477025002
vt 0.777575016 0.477025002
vt 0.777575016 0.557287991
vt 0.857838988 0.557287991
vt 0.857838988 0.477025002
vt 0.777575016 0.477025002
vt 0.777575016 0.557287991
vt 0.857838988 0.557287991
vt 0.857838988 0.477025002
vt 0.777575016 0.477025002
vt 0.777575016 0.557287991
vt 0.857838988 0.557287991
vt 0.857838988 0.477025002
vt 0.777575016 0.477025002
vt 0.777575016 0.557287991
vt 0.857838988 0.557287991
vt 0.857838988 0.477025002
vt 0.777575016 0.477025002
vt 0.777575016 0.557287991
vt 0.857838988 0.557287991
vt 0.857838988 0.477025002
vt 0.777575016 0.477025002
vt 0.777575016 0.557287991
vt 0.857838988 0.557287991
vt 0.857838988 0.477025002
vt 0.777575016 0.477025002
vt 0.777575016 0.557287991
vt 0.857838988 0.557287991
vt 0.857838988 0.477025002
vt 0.777575016 0.477025002
vt 0.777575016 0.557287991
vt 0.857838988 0.557287991
vt 0.857838988 0.477025002
vt 0.777575016 0.477025002
vt 0.777575016 0.557287991
vt 0.857838988 0.557287991
vt 0.857838988 0.477025002
vt 0.777575016 0.477025002
vt 0.777575016 0.557287991
vt 0.857838988 0.557287991
vt 0.857838988 0.477025002
vt 0.777575016 0.477025002
vt 0.777575016 0.557287991
vt 0.857838988 0.557287991
vt 0.857838988 0.477025002
vt 0.777575016 0.477025002
vt 0.777575016 0.557287991
vt 0.857838988 0.557287991
vt 0.857838988 0.477025002
vt 0.777575016 0.557287991
vt 0.857838988 0.557287991
vt 0.777575016 0.557287991
vt 0.857838988 0.557287991
vt 0.777575016 0.477025002
vt 0.777575016 0.557287991
vt 0.777575016 0.477025002
vt 0.777575016 0.557287991
vt 0.777575016 0.477025002
vt 0.777575016 0.557287991
vt 0.857838988 0.557287991
vt 0.857838988 0.477025002
vt 0.857838988 0.477025002
vt 0.857838988 0.557287991
vt 0.857838988 0.477025002
vt 0.777575016 0.477025002
vt 0.857838988 0.477025002
vt 0.777575016 0.557287991
vt 0.857838988 0.477025002
vt 0.777575016 0.557287991
vt 0.777575016 0.557287991
vt 0.857838988 0.477025002
vt 0.777575016 0.557287991
vt 0.857838988 0.557287991
vt 0.777575016 0.557287991
vt 0.857838988 0.557287991
vt 0.857838988 0.557287991
vt 0.777575016 0.557287991
vt 0.857838988 0.557287991
vt 0.857838988 0.477025002
vt 0.857838988 0.477025002
vt 0.777575016 0.557287991
vt 0.857838988 0.557287991
vt 0.857838988 0.477025002
vt 0.777575016 0.477025002
vt 0.777575016 0.557287991
vt 0.857838988 0.557287991
vt 0.857838988 0.477025002
vt 0.777575016 0.477025002
vt 0.777575016 0.557287991
vt 0.857838988 0.557287991
vt 0.857838988 0.477025002
vt 0.857838988 0.477025002
vt 0.857838988 0.557287991
vt 0.857838988 0.477025002
vt 0.777575016 0.477025002
vt 0.857838988 0.477025002
vt 0.777575016 0.557287991
vt 0.857838988 0.477025002
vt 0.777575016 0.557287991
vt 0.777575016 0.557287991
vt 0.857838988 0.477025002
vt 0.777575016 0.477025002
vt 0.777575016 0.557287991
vt 0.857838988 0.557287991
vt 0.857838988 0.477025002
vt 0.777575016 0.477025002
vt 0.777575016 0.557287991
vt 0.857838988 0.557287991
vt 0.857838988 0.477025002
vt 0.777575016 0.477025002
vt 0.777575016 0.557287991
vt 0.857838988 0.557287991
vt 0.857838988 0.477025002
vt 0.777575016 0.477025002
vt 0.777575016 0.557287991
vt 0.857838988 0.557287991
vt 0.857838988 0.477025002
vt 0.777575016 0.477025002
vt 0.777575016 0.557287991
vt 0.857838988 0.557287991
vt 0.857838988 0.477025002
vt 0.777575016 0.477025002
vt 0.777575016 0.557287991
vt 0.857838988 0.557287991
vt 0.857838988 0.477025002
vt 0.777575016 0.477025002
vt 0.777575016 0.557287991
vt 0.857838988 0.557287991
vt 0.857838988 0.477025002
vt 0.777575016 0.477025002
vt 0.777575016 0.557287991
vt 0.857838988 0.557287991
vt 0.857838988 0.477025002
vt 0.777575016 0.477025002
vt 0.777575016 0.557287991
vt 0.857838988 0.557287991
vt 0.857838988 0.477025002
vt 0.777575016 0.477025002
vt 0.777575016 0.557287991
vt 0.857838988 0.557287991
vt 0.857838988 0.477025002
vt 0.777575016 0.477025002
vt 0.777575016 0.557287991
vt 0.857838988 0.557287991
vt 0.857838988 0.477025002
vt 0.777575016 0.477025002
vt 0.777575016 0.557287991
vt 0.857838988 0.557287991
vt 0.857838988 0.477025002
vt 0.777575016 0.477025002
vt 0.777575016 0.557287991
vt 0.857838988 0.557287991
vt 0.857838988 0.477025002
vt 0.777575016 0.477025002
vt 0.777575016 0.557287991
vt 0.857838988 0.557287991
vt 0.857838988 0.477025002
vt 0.777575016 0.477025002
vt 0.777575016 0.557287991
vt 0.857838988 0.557287991
vt 0.857838988 0.477025002
vt 0.777575016 0.477025002
vt 0.777575016 0.557287991
vt 0.857838988 0.557287991
vt 0.857838988 0.477025002
vt 0.777575016 0.477025002
vt 0.777575016 0.557287991
vt 0.857838988 0.557287991
vt 0.857838988 0.477025002
vt 0.777575016 0.477025002
vt 0.777575016 0.557287991
vt 0.857838988 0.557287991
vt 0.857838988 0.477025002
vt 0.777575016 0.477025002
vt 0.777575016 0.557287991
vt 0.857838988 0.557287991
vt 0.857838988 0.477025002
vt 0.777575016 0.477025002
vt 0.777575016 0.557287991
vt 0.857838988 0.557287991
vt 0.857838988 0.477025002
vt 0.857838988 0.557287991
vt 0.777575016 0.557287991
vt 0.857838988 0.557287991
vt 0.857838988 0.477025002
vt 0.857838988 0.477025002
vt 0.777575016 0.557287991
vt 0.857838988 0.557287991
vt 0.857838988 0.477025002
vt 0.857838988 0.477025002
vt 0.777575016 0.477025002
vt 0.857838988 0.557287991
vt 0.857838988 0.477025002
vt 0.777575016 0.477025002
vt 0.777575016 0.557287991
vt 0.857838988 0.557287991
vt 0.857838988 0.477025002
vt 0.777575016 0.477025002
vt 0.777575016 0.557287991
vt 0.777575016 0.477025002
vt 0.777575016 0.557287991
vt 0.777575016 0.477025002
vt 0.777575016 0.557287991
vt 0.857838988 0.557287991
vt 0.857838988 0.477025002
vt 0.777575016 0.477025002
vt 0.777575016 0.557287991
vt 0.857838988 0.557287991
vt 0.857838988 0.477025002
vt 0.777575016 0.477025002
vt 0.777575016 0.557287991
vt 0.857838988 0.557287991
vt 0.857838988 0.477025002
vt 0.777575016 0.477025002
vt 0.777575016 0.557287991
vt 0.857838988 0.557287991
vt 0.857838988 0.477025002
vt 0.777575016 0.477025002
vt 0.777575016 0.557287991
vt 0.857838988 0.557287991
vt 0.857838988 0.477025002
vt 0.777575016 0.477025002
vt 0.777575016 0.557287991
vt 0.857838988 0.557287991
vt 0.857838988 0.477025002
vt 0.777575016 0.477025002
vt 0.777575016 0.557287991
vt 0.857838988 0.557287991
vt 0.857838988 0.477025002
vt 0.777575016 0.477025002
vt 0.777575016 0.557287991
vt 0.857838988 0.557287991
vt 0.857838988 0.477025002
vt 0.777575016 0.477025002
vt 0.777575016 0.557287991
vt 0.857838988 0.557287991
vt 0.857838988 0.477025002
vt 0.857838988 0.557287991
vt 0.857838988 0.477025002
vt 0.857838988 0.557287991
vt 0.857838988 0.477025002
vn 0.993471 0.000000 -0.114084
vn 1.000000 0.000000 0.000000
vn 1.000000 0.000000 0.000000
vn 1.000000 0.000000 0.000000
vn 0.988273 0.000000 -0.152697
vn 1.000000 0.000000 0.000000
vn 1.000000 0.000000 0.000000
vn 0.993471 0.000000 -0.114084
vn 1.000000 0.000000 0.000000
vn 0.988273 0.000000 -0.152697
vn 0.000000 -1.000000 -0.000000
vn 0.000000 -1.000000 -0.000000
vn 0.000000 -1.000000 -0.000000
vn 0.000000 -1.000000 -0.000000
vn 0.000000 -1.000000 -0.000000
vn 0.000000 -1.000000 -0.000000
vn 0.000000 -1.000000 -0.000000
vn 0.000000 -1.000000 -0.000000
vn 0.000000 -1.000000 -0.000000
vn 0.000000 -1.000000 -0.000000
vn 0.000000 -1.000000 -0.000000
vn 0.000000 -1.000000 -0.000000
vn 0.000000 -1.000000 -0.000000
vn 0.000000 -1.000000 -0.000000
vn 0.000000 -1.000000 -0.000000
vn 0.000000 -1.000000 -0.000000
vn 0.000000 -1.000000 -0.000000
vn 0.000000 -1.000000 -0.000000
vn 0.000000 -1.000000 -0.000000
vn 0.000000 -1.000000 -0.000000
vn 0.000000 -1.000000 -0.000000
vn 0.000000 1.000000 0.000000
vn 0.000000 1.000000 0.000000
vn 0.000000 1.000000 0.000000
vn 0.000000 1.000000 0.000000
vn 0.000000 1.000000 0.000000
vn 0.000000 1.000000 0.000000
vn 0.000000 1.000000 0.000000
vn 0.000000 1.000000 0.000000
vn 0.000000 1.000000 0.000000
vn 0.000000 1.000000 0.000000
vn 0.000000 1.000000 0.000000
vn 0.000000 1.000000 0.000000
vn 0.000000 1.000000 0.000000
vn 0.000000 1.000000 0.000000
vn 0.000000 1.000000 0.000000
vn 0.000000 1.000000 0.000000
vn 0.000000 1.000000 0.000000
vn 0.000000 1.000000 0.000000
vn 0.000000 1.000000 0.000000
vn 0.000000 1.000000 0.000000
vn 0.000000 1.000000 0.000000
vn -0.549846 -0.000000 0.835266
vn -0.549846 -0.000000 0.835266
vn -0.286997 -0.000000 0.957932
vn -0.549846 -0.000000 0.835266
vn -0.286997 -0.000000 0.957932
vn -0.286997 -0.000000 0.957932
vn 0.000000 1.000000 0.000000
vn 0.000000 1.000000 0.000000
vn 0.000000 1.000000 0.000000
vn 0.000000 1.000000 0.000000
vn -1.000000 0.000000 0.000000
vn -1.000000 0.000000 0.000000
vn -1.000000 0.000000 0.000000
vn -1.000000 0.000000 0.000000
vn 0.000000 -1.000000 -0.000000
vn 0.000000 -1.000000 -0.000000
vn 0.000000 -1.000000 -0.000000
vn 0.000000 -1.000000 -0.000000
vn 0.000000 0.382683 -0.923880
vn 0.000000 0.382683 -0.923880
vn 0.000000 0.000000 -1.000000
vn 0.000000 0.000000 -1.000000
vn 0.000000 -0.000000 1.000000
vn 0.000000 -0.000000 1.000000
vn 0.000000 -0.000000 1.000000
vn 0.000000 -0.000000 1.000000
vn -1.000000 0.000000 0.000000
vn -1.000000 0.000000 0.000000
vn -1.000000 0.000000 0.000000
vn -0.988273 0.000000 -0.152697
vn -0.988273 0.000000 -0.152697
vn -0.988273 0.000000 -0.152697
vn -1.000000 0.000000 0.000000
vn -1.000000 0.000000 0.000000
vn 0.000000 0.000000 -1.000000
vn 0.000000 0.000000 -1.000000
vn 0.000000 -0.382683 -0.923880
vn 0.000000 -0.382683 -0.923880
vn 0.000000 0.382683 -0.923880
vn 0.000000 0.382683 -0.923880
vn 0.000000 0.382683 -0.923880
vn 0.000000 0.382683 -0.923880
vn 0.000000 -0.382683 -0.923880
vn 0.000000 -0.382683 -0.923880
vn 0.000000 0.382683 -0.923880
vn 0.000000 0.382683 -0.923880
vn 0.000000 -0.382683 -0.923880
vn 0.000000 -0.382683 -0.923880
vn 0.000000 -0.382683 -0.923880
vn 0.000000 -0.382683 -0.923880
vn 0.988273 0.000000 -0.152697
vn 0.894427 0.000000 -0.447214
vn 0.894427 0.000000 -0.447214
vn 0.993471 0.000000 -0.114084
vn -0.988273 0.000000 -0.152697
vn -0.894427 0.000000 -0.447214
vn -0.894427 0.000000 -0.447214
vn -0.988273 0.000000 -0.152697
vn -1.000000 0.000000 0.000000
vn -1.000000 0.000000 0.000000
vn -1.000000 0.000000 0.000000
vn -1.000000 0.000000 0.000000
vn 0.000000 1.000000 0.000000
vn 0.000000 1.000000 0.000000
vn 0.000000 1.000000 0.000000
vn 0.000000 1.000000 0.000000
vn 1.000000 0.000000 0.000000
vn 1.000000 0.000000 0.000000
vn 1.000000 0.000000 0.000000
vn 1.000000 0.000000 0.000000
vn 0.000000 -1.000000 -0.000000
vn 0.000000 -1.000000 -0.000000
vn 0.000000 -1.000000 -0.000000
vn 0.000000 -1.000000 -0.000000
vn -1.000000 0.000000 0.000000
vn -1.000000 0.000000 0.000000
vn -1.000000 0.000000 0.000000
vn -1.000000 0.000000 0.000000
vn 0.000000 1.000000 0.000000
vn 0.000000 1.000000 0.000000
vn 0.000000 1.000000 0.000000
vn 0.000000 1.000000 0.000000
vn 1.000000 0.000000 0.000000
vn 1.000000 0.000000 0.000000
vn 1.000000 0.000000 0.000000
vn 1.000000 0.000000 0.000000
vn 0.000000 -1.000000 -0.000000
vn 0.000000 -1.000000 -0.000000
vn 0.000000 -1.000000 -0.000000
vn 0.000000 -1.000000 -0.000000
vn 1.000000 0.000000 0.000000
vn 1.000000 0.000000 0.000000
vn 1.000000 0.000000 0.000000
vn 1.000000 0.000000 0.000000
vn 0.000000 1.000000 0.000000
vn 0.000000 1.000000 0.000000
vn 0.000000 1.000000 0.000000
vn 0.000000 1.000000 0.000000
vn -1.000000 0.000000 0.000000
vn -1.000000 0.000000 0.000000
vn -1.000000 0.000000 0.000000
vn -1.000000 0.000000 0.000000
vn 0.000000 -1.000000 -0.000000
vn 0.000000 -1.000000 -0.000000
vn 0.000000 -1.000000 -0.000000
vn 0.000000 -1.000000 -0.000000
vn -1.000000 0.000000 0.000000
vn -1.000000 0.000000 0.000000
vn -1.000000 0.000000 0.000000
vn -1.000000 0.000000 0.000000
vn -1.000000 0.000000 0.000000
vn -1.000000 0.000000 0.000000
vn -1.000000 0.000000 0.000000
vn -1.000000 0.000000 0.000000
vn -0.286997 -0.000000 0.957932
vn -0.286997 -0.000000 0.957932
vn -0.549846 -0.000000 0.835266
vn -0.549846 -0.000000 0.835266
vn 1.000000 0.000000 0.000000
vn 1.000000 0.000000 0.000000
vn 1.000000 0.000000 0.000000
vn 1.000000 0.000000 0.000000
vn 0.000000 -1.000000 -0.000000
vn 0.000000 -1.000000 -0.000000
vn 0.000000 -1.000000 -0.000000
vn 0.000000 -1.000000 -0.000000
vn 0.000000 -1.000000 -0.000000
vn 0.000000 -1.000000 -0.000000
vn 0.000000 -1.000000 -0.000000
vn 0.000000 -1.000000 -0.000000
vn 0.000000 -1.000000 -0.000000
vn 0.000000 -1.000000 -0.000000
vn 1.000000 0.000000 0.000000
vn 1.000000 0.000000 0.000000
vn 1.000000 0.000000 0.000000
vn 1.000000 0.000000 0.000000
vn 0.000000 -1.000000 -0.000000
vn 0.000000 -1.000000 -0.000000
vn 0.000000 -1.000000 -0.000000
vn 0.000000 -1.000000 -0.000000
vn 0.000000 -1.000000 -0.000000
vn 0.000000 -1.000000 -0.000000
vn 0.000000 -1.000000 -0.000000
vn 0.000000 -1.000000 -0.000000
vn 0.288941 0.000000 -0.957347
vn 0.553234 0.000000 -0.833026
vn 0.553234 0.000000 -0.833026
vn 0.288941 0.000000 -0.957347
vn 0.286997 -0.000000 0.957932
vn 0.286997 -0.000000 0.957932
vn -0.286997 -0.000000 0.957932
vn -0.286997 -0.000000 0.957932
vn 0.000000 1.000000 0.000000
vn 0.000000 1.000000 0.000000
vn 0.000000 1.000000 0.000000
vn 0.000000 1.000000 0.000000
vn 0.000000 1.000000 0.000000
vn 0.000000 1.000000 0.000000
vn 0.000000 1.000000 0.000000
vn 0.000000 1.000000 0.000000
vn 0.000000 1.000000 0.000000
vn 0.000000 1.000000 0.000000
vn -0.553234 0.000000 -0.833026
vn -0.288941 0.000000 -0.957347
vn -0.288941 0.000000 -0.957347
vn -0.553234 0.000000 -0.833026
vn -0.288941 0.000000 -0.957347
vn 0.288941 0.000000 -0.957347
vn 0.288941 0.000000 -0.957347
vn -0.288941 0.000000 -0.957347
vn 0.000000 0.000000 -1.000000
vn 0.000000 0.000000 -1.000000
vn 0.000000 0.000000 -1.000000
vn 0.000000 0.000000 -1.000000
vn 0.000000 0.000000 -1.000000
vn 0.000000 0.000000 -1.000000
vn 0.000000 0.000000 -1.000000
vn 0.000000 0.000000 -1.000000
vn 0.000000 0.000000 -1.000000
vn 0.000000 0.000000 -1.000000
vn 0.000000 0.000000 -1.000000
vn 0.000000 0.000000 -1.000000
vn 0.000000 0.000000 -1.000000
vn 0.000000 0.000000 -1.000000
vn 0.000000 0.000000 -1.000000
vn 0.000000 0.000000 -1.000000
vn 0.000000 0.000000 -1.000000
vn 0.000000 0.000000 -1.000000
vn 0.000000 0.000000 -1.000000
vn 0.000000 0.000000 -1.000000
vn 1.000000 0.000000 0.000000
vn 1.000000 0.000000 0.000000
vn 1.000000 0.000000 0.000000
vn 1.000000 0.000000 0.000000
vn 0.000000 -1.000000 -0.000000
vn 0.000000 -1.000000 -0.000000
vn 0.000000 -1.000000 -0.000000
vn 0.000000 -1.000000 -0.000000
vn -1.000000 0.000000 0.000000
vn -1.000000 0.000000 0.000000
vn -1.000000 0.000000 0.000000
vn -1.000000 0.000000 0.000000
vn 0.000000 1.000000 0.000000
vn 0.000000 1.000000 0.000000
vn 0.000000 1.000000 0.000000
vn 0.000000 1.000000 0.000000
vn 1.000000 0.000000 0.000000
vn 1.000000 0.000000 0.000000
vn 1.000000 0.000000 0.000000
vn 1.000000 0.000000 0.000000
vn 0.000000 -1.000000 -0.000000
vn 0.000000 -1.000000 -0.000000
vn 0.000000 -1.000000 -0.000000
vn 0.000000 -1.000000 -0.000000
vn -1.000000 0.000000 0.000000
vn -1.000000 0.000000 0.000000
vn -1.000000 0.000000 0.000000
vn -1.000000 0.000000 0.000000
vn 0.000000 1.000000 0.000000
vn 0.000000 1.000000 0.000000
vn 0.000000 1.000000 0.000000
vn 0.000000 1.000000 0.000000
vn -1.000000 0.000000 0.000000
vn -1.000000 0.000000 0.000000
vn -1.000000 0.000000 0.000000
vn -1.000000 0.000000 0.000000
vn 0.000000 -1.000000 -0.000000
vn 0.000000 -1.000000 -0.000000
vn 0.000000 -1.000000 -0.000000
vn 0.000000 -1.000000 -0.000000
vn 1.000000 0.000000 0.000000
vn 1.000000 0.000000 0.000000
vn 1.000000 0.000000 0.000000
vn 1.000000 0.000000 0.000000
vn 0.000000 1.000000 0.000000
vn 0.000000 1.000000 0.000000
vn 0.000000 1.000000 0.000000
vn 0.000000 1.000000 0.000000
vn 1.000000 0.000000 0.000000
vn 1.000000 0.000000 0.000000
vn 1.000000 0.000000 0.000000
vn 1.000000 0.000000 0.000000
vn 0.000000 1.000000 0.000000
vn 0.000000 1.000000 0.000000
vn 0.000000 1.000000 0.000000
vn 0.000000 1.000000 0.000000
vn 0.000000 1.000000 0.000000
vn 0.000000 1.000000 0.000000
vn 0.000000 1.000000 0.000000
vn 0.000000 1.000000 0.000000
vn 0.549846 -0.000000 0.835266
vn 0.549846 -0.000000 0.835266
vn 0.286997 -0.000000 0.957932
vn 0.286997 -0.000000 0.957932
vn -1.000000 0.000000 0.000000
vn -1.000000 0.000000 0.000000
vn -1.000000 0.000000 0.000000
vn -1.000000 0.000000 0.000000
vn 0.286997 -0.000000 0.957932
vn 0.286997 -0.000000 0.957932
vn 0.549846 -0.000000 0.835266
vn 0.549846 -0.000000 0.835266
vn -0.288941 0.000000 -0.957347
vn -0.553234 0.000000 -0.833026
vn -0.553234 0.000000 -0.833026
vn -0.288941 0.000000 -0.957347
vn -0.286997 -0.000000 0.957932
vn -0.286997 -0.000000 0.957932
vn 0.286997 -0.000000 0.957932
vn 0.286997 -0.000000 0.957932
vn 0.553234 0.000000 -0.833026
vn 0.288941 0.000000 -0.957347
vn 0.288941 0.000000 -0.957347
vn 0.553234 0.000000 -0.833026
vn 0.288941 0.000000 -0.957347
vn -0.288941 0.000000 -0.957347
vn -0.288941 0.000000 -0.957347
vn 0.288941 0.000000 -0.957347
vn 0.000000 0.000000 -1.000000
vn 0.000000 0.000000 -1.000000
vn 0.000000 0.000000 -1.000000
vn 0.000000 0.000000 -1.000000
vn 0.000000 0.000000 -1.000000
vn 0.000000 0.000000 -1.000000
vn 0.000000 0.000000 -1.000000
vn 0.000000 0.000000 -1.000000
vn 0.000000 0.000000 -1.000000
vn 0.000000 0.000000 -1.000000
vn 0.000000 0.000000 -1.000000
vn 0.000000 0.000000 -1.000000
vn 0.000000 0.000000 -1.000000
vn 0.000000 0.000000 -1.000000
vn 0.000000 0.000000 -1.000000
vn 0.000000 0.000000 -1.000000
vn 0.000000 0.000000 -1.000000
vn 0.000000 0.000000 -1.000000
vn 0.000000 0.000000 -1.000000
vn 0.000000 0.000000 -1.000000
vn 1.000000 0.000000 0.000000
vn 1.000000 0.000000 0.000000
vn 1.000000 0.000000 0.000000
vn 1.000000 0.000000 0.000000
f 3/3/3 2/2/2 1/1/1
f 1/1/1 5/5/5 4/4/4
f 8/8/8 7/7/7 6/6/6
f 10/10/10 9/9/9 7/7/7
f 13/13/13 12/12/12 11/11/11
f 16/16/16 15/15/15 14/14/14
f 19/19/19 18/18/18 17/17/17
f 22/22/22 21/21/21 20/20/20
f 25/25/25 24/24/24 23/23/23
f 27/27/27 24/24/24 26/26/26
f 24/24/24 27/27/27 28/28/28
f 31/31/31 30/30/30 29/29/29
f 34/34/34 33/33/33 32/32/32
f 37/37/37 36/36/36 35/35/35
f 40/40/40 39/39/39 38/38/38
f 43/43/43 42/42/42 41/41/41
f 46/46/46 45/45/45 44/44/44
f 48/48/48 45/45/45 47/47/47
f 45/45/45 48/48/48 49/49/49
f 52/52/52 51/51/51 50/50/50
f 55/55/55 54/54/54 53/53/53
f 58/58/58 57/57/57 56/56/56
f 61/61/61 60/60/60 59/59/59
f 62/62/62 61/61/61 59/59/59
f 65/65/65 64/64/64 63/63/63
f 66/66/66 65/65/65 63/63/63
f 69/69/69 68/68/68 67/67/67
f 70/70/70 69/69/69 67/67/67
f 73/73/73 72/72/72 71/71/71
f 74/74/74 73/73/73 71/71/71
f 77/77/77 76/76/76 75/75/75
f 78/78/78 77/77/77 75/75/75
f 81/81/81 80/80/80 79/79/79
f 79/79/79 82/82/82 81/81/81
f 85/85/85 84/84/84 83/83/83
f 85/85/85 86/86/86 84/84/84
f 89/89/89 88/88/88 87/87/87
f 90/90/90 89/89/89 87/87/87
f 93/93/93 92/92/92 91/91/91
f 94/94/94 93/93/93 91/91/91
f 97/97/97 96/96/96 95/95/95
f 98/98/98 97/97/97 95/95/95
f 101/101/101 100/100/100 99/99/99
f 102/102/102 101/101/101 99/99/99
f 105/105/105 104/104/104 103/103/103
f 106/106/106 105/105/105 103/103/103
f 109/109/109 108/108/108 107/107/107
f 110/110/110 109/109/109 107/107/107
f 113/113/113 112/112/112 111/111/111
f 114/114/114 113/113/113 111/111/111
f 117/117/117 116/116/116 115/115/115
f 118/118/118 117/117/117 115/115/115
f 121/121/121 120/120/120 119/119/119
f 122/122/122 121/121/121 119/119/119
f 125/125/125 124/124/124 123/123/123
f 126/126/126 125/125/125 123/123/123
f 129/129/129 128/128/128 127/127/127
f 130/130/130 129/129/129 127/127/127
f 133/133/133 132/132/132 131/131/131
f 134/134/134 133/133/133 131/131/131
f 137/137/137 136/136/136 135/135/135
f 138/138/138 137/137/137 135/135/135
f 141/141/141 140/140/140 139/139/139
f 142/142/142 141/141/141 139/139/139
f 145/145/145 144/144/144 143/143/143
f 146/146/146 145/145/145 143/143/143
f 149/149/149 148/148/148 147/147/147
f 150/150/150 149/149/149 147/147/147
f 153/153/153 152/152/152 151/151/151
f 154/154/154 153/153/153 151/151/151
f 157/157/157 156/156/156 155/155/155
f 158/158/158 157/157/157 155/155/155
f 161/161/161 160/160/160 159/159/159
f 162/162/162 161/161/161 159/159/159
f 165/165/165 164/164/164 163/163/163
f 166/166/166 165/165/165 163/163/163
f 169/169/169 168/168/168 167/167/167
f 170/170/170 169/169/169 167/167/167
f 173/173/173 172/172/172 171/171/171
f 174/174/174 173/173/173 171/171/171
f 177/177/177 176/176/176 175/175/175
f 175/175/175 178/178/178 177/177/177
f 175/175/175 179/179/179 178/178/178
f 175/175/175 180/180/180 179/179/179
f 180/180/180 181/181/181 179/179/179
f 181/181/181 180/180/180 182/182/182
f 181/181/181 182/182/182 183/183/183
f 184/184/184 181/181/181 183/183/183
f 187/187/187 186/186/186 185/185/185
f 188/188/188 187/187/187 185/185/185
f 191/191/191 190/190/190 189/189/189
f 189/189/189 192/192/192 191/191/191
f 195/195/195 194/194/194 193/193/193
f 195/195/195 196/196/196 194/194/194
f 199/199/199 198/198/198 197/197/197
f 200/200/200 199/199/199 197/197/197
f 203/203/203 202/202/202 201/201/201
f 204/204/204 203/203/203 201/201/201
f 207/207/207 206/206/206 205/205/205
f 205/205/205 208/208/208 207/207/207
f 205/205/205 209/209/209 208/208/208
f 205/205/205 210/210/210 209/209/209
f 210/210/210 211/211/211 209/209/209
f 211/211/211 210/210/210 212/212/212
f 211/211/211 212/212/212 213/213/213
f 214/214/214 211/211/211 213/213/213
f 217/217/217 216/216/216 215/215/215
f 218/218/218 217/217/217 215/215/215
f 221/221/221 220/220/220 219/219/219
f 222/222/222 221/221/221 219/219/219
f 225/225/225 224/224/224 223/223/223
f 226/226/226 225/225/225 223/223/223
f 229/229/229 228/228/228 227/227/227
f 230/230/230 229/229/229 227/227/227
f 233/233/233 232/232/232 231/231/231
f 234/234/234 233/233/233 231/231/231
f 237/237/237 236/236/236 235/235/235
f 238/238/238 237/237/237 235/235/235
f 241/241/241 240/240/240 239/239/239
f 242/242/242 241/241/241 239/239/239
f 245/245/245 244/244/244 243/243/243
f 246/246/246 245/245/245 243/243/243
f 249/249/249 248/248/248 247/247/247
f 250/250/250 249/249/249 247/247/247
f 253/253/253 252/252/252 251/251/251
f 254/254/254 253/253/253 251/251/251
f 257/257/257 256/256/256 255/255/255
f 258/258/258 257/257/257 255/255/255
f 261/261/261 260/260/260 259/259/259
f 262/262/262 261/261/261 259/259/259
f 265/265/265 264/264/264 263/263/263
f 266/266/266 265/265/265 263/263/263
f 269/269/269 268/268/268 267/267/267
f 270/270/270 269/269/269 267/267/267
f 273/273/273 272/272/272 271/271/271
f 274/274/274 273/273/273 271/271/271
f 277/277/277 276/276/276 275/275/275
f 278/278/278 277/277/277 275/275/275
f 281/281/281 280/280/280 279/279/279
f 282/282/282 281/281/281 279/279/279
f 285/285/285 284/284/284 283/283/283
f 286/286/286 285/285/285 283/283/283
f 289/289/289 288/288/288 287/287/287
f 290/290/290 289/289/289 287/287/287
f 293/293/293 292/292/292 291/291/291
f 294/294/294 293/293/293 291/291/291
f 297/297/297 296/296/296 295/295/295
f 295/295/295 298/298/298 297/297/297
f 301/301/301 300/300/300 299/299/299
f 301/301/301 302/302/302 300/300/300
f 305/305/305 304/304/304 303/303/303
f 306/306/306 305/305/305 303/303/303
f 309/309/309 308/308/308 307/307/307
f 310/310/310 309/309/309 307/307/307
f 313/313/313 312/312/312 311/311/311
f 314/314/314 313/313/313 311/311/311
f 317/317/317 316/316/316 315/315/315
f 318/318/318 317/317/317 315/315/315
f 321/321/321 320/320/320 319/319/319
f 322/322/322 321/321/321 319/319/319
f 325/325/325 324/324/324 323/323/323
f 326/326/326 325/325/325 323/323/323
f 329/329/329 328/328/328 327/327/327
f 330/330/330 329/329/329 327/327/327
f 333/333/333 332/332/332 331/331/331
f 334/334/334 333/333/333 331/331/331
f 337/337/337 336/336/336 335/335/335
f 338/338/338 337/337/337 335/335/335
f 341/341/341 340/340/340 339/339/339
f 342/342/342 341/341/341 339/339/339
f 345/345/345 344/344/344 343/343/343
f 346/346/346 345/345/345 343/343/343
f 349/349/349 348/348/348 347/347/347
f 350/350/350 349/349/349 347/347/347
f 353/353/353 352/352/352 351/351/351
f 354/354/354 353/353/353 351/351/351
