g Model_0
v 8 -12 -1
v 8 12.0000019 -1
v 7.99999905 11.9999952 4.3999958
v 7.99999905 -12.0000067 4.3999958
v 6.92820406 11.9999886 8.3999958
v 6.92820406 -12.0000134 8.3999958
v 4.00000381 11.9999847 11.3281994
v 4.00000381 -12.0000172 11.3281994
v -0 11.9999828 12.3999987
v -0 -12.0000191 12.3999987
v -4 11.9999847 11.3282013
v -4 -12.0000172 11.3282013
v -6.92820311 11.9999886 8.39999962
v -6.92820311 -12.0000134 8.39999962
v -7.99999905 11.9999952 4.4000001
v -7.99999905 -12.0000067 4.4000001
v -8 12.0000019 -0.999997973
v -8 -12 -0.999997973
v 12 -12 -1.00000095
v 11.9999981 11.9999952 4.3999958
v 12 12.0000019 -1.00000095
v 11.9999981 -12.0000067 4.3999958
v 10.4521332 11.9999886 10.1344566
v 10.4521332 -12.0000134 10.1344566
v 6.0000062 11.9999847 14.526762
v 6.0000062 -12.0000172 14.526762
v -9.99999997E-07 11.9999828 16.3999977
v -9.99999997E-07 -12.0000191 16.3999977
v -6 11.9999847 14.5267658
v -6 -12.0000172 14.5267658
v -10.4521313 11.9999886 10.1344624
v -10.4521313 -12.0000134 10.1344624
v -11.9999971 11.9999952 4.400002
v -11.9999971 -12.0000067 4.400002
v -12.000001 12.0000019 -0.999997973
v -12.000001 -12 -0.999997973
v 7.99999905 11.9999952 4.3999958
v 8 12.0000019 -1
v 12 12.0000019 -1.00000095
v 11.9999981 11.9999952 4.3999958
v 6.92820406 11.9999886 8.3999958
v 10.4521332 11.9999886 10.1344566
v 4.00000381 11.9999847 11.3281994
v 6.0000062 11.9999847 14.526762
v -0 11.9999828 12.3999987
v -9.99999997E-07 11.9999828 16.3999977
v -4 11.9999847 11.3282013
v -6 11.9999847 14.5267658
v -6.92820311 11.9999886 8.39999962
v -10.4521313 11.9999886 10.1344624
v -7.99999905 11.9999952 4.4000001
v -11.9999971 11.9999952 4.400002
v -8 12.0000019 -0.999997973
v -12.000001 12.0000019 -0.999997973
vt 0 0
vt 0 0
vt 0 0
vt 0 0
vt 0 0
vt 0 0
vt 0 0
vt 0 0
vt 0 0
vt 0 0
vt 0 0
vt 0 0
vt 0 0
vt 0 0
vt 0 0
vt 0 0
vt 0 0
vt 0 0
vt 0 0
vt 0 0
vt 0 0
vt 0 0
vt 0 0
vt 0 0
vt 0 0
vt 0 0
vt 0 0
vt 0 0
vt 0 0
vt 0 0
vt 0 0
vt 0 0
vt 0 0
vt 0 0
vt 0 0
vt 0 0
vt 0 0
vt 0 0
vt 0 0
vt 0 0
vt 0 0
vt 0 0
vt 0 0
vt 0 0
vt 0 0
vt 0 0
vt 0 0
vt 0 0
vt 0 0
vt 0 0
vt 0 0
vt 0 0
vt 0 0
vt 0 0
vn -1 0 0
vn -1 0 0
vn -0.991444886 0 -0.130526081
vn -0.991444886 0 -0.130526081
vn -0.866025686 0 -0.499999583
vn -0.866025686 0 -0.499999583
vn -0.500000417 0 -0.866025269
vn -0.500000417 0 -0.866025269
vn -0 0 -1
vn -0 0 -1
vn 0.499999911 0 -0.866025448
vn 0.499999911 0 -0.866025448
vn 0.866025329 0 -0.500000119
vn 0.866025329 0 -0.500000119
vn 0.991444886 0 -0.1305262
vn 0.991444886 0 -0.1305262
vn 1 0 0
vn 1 0 0
vn 1 0 0
vn 0.991324306 0 0.131438941
vn 1 0 0
vn 0.991324306 0 0.131438941
vn 0.86386621 0 0.503721297
vn 0.86386621 0 0.503721297
vn 0.514672458 0 0.857386887
vn 0.514672458 0 0.857386887
vn -0 0 1
vn -0 0 1
vn -0.514672101 0 0.857387125
vn -0.514672101 0 0.857387125
vn -0.863866031 0 0.503721654
vn -0.863866031 0 0.503721654
vn -0.991324186 0 0.131439194
vn -0.991324186 0 0.131439194
vn -1 0 0
vn -1 0 0
vn -0 1 0
vn -0 1 0
vn -0 1 0
vn -0 1 0
vn -0 1 0
vn -0 1 0
vn -0 1 0
vn -0 1 0
vn -0 1 0
vn -0 1 0
vn -0 1 0
vn -0 1 0
vn -0 1 0
vn -0 1 0
vn -0 1 0
vn -0 1 0
vn -0 1 0
vn -0 1 0
g Model_0_0
f 3/3/3 2/2/2 1/1/1
f 4/4/4 3/3/3 1/1/1
f 5/5/5 3/3/3 4/4/4
f 6/6/6 5/5/5 4/4/4
f 7/7/7 5/5/5 6/6/6
f 8/8/8 7/7/7 6/6/6
f 9/9/9 7/7/7 8/8/8
f 10/10/10 9/9/9 8/8/8
f 11/11/11 9/9/9 10/10/10
f 12/12/12 11/11/11 10/10/10
f 13/13/13 11/11/11 12/12/12
f 14/14/14 13/13/13 12/12/12
f 15/15/15 13/13/13 14/14/14
f 16/16/16 15/15/15 14/14/14
f 17/17/17 15/15/15 16/16/16
f 18/18/18 17/17/17 16/16/16
f 21/21/21 20/20/20 19/19/19
f 20/20/20 22/22/22 19/19/19
f 20/20/20 23/23/23 22/22/22
f 23/23/23 24/24/24 22/22/22
f 23/23/23 25/25/25 24/24/24
f 25/25/25 26/26/26 24/24/24
f 25/25/25 27/27/27 26/26/26
f 27/27/27 28/28/28 26/26/26
f 27/27/27 29/29/29 28/28/28
f 29/29/29 30/30/30 28/28/28
f 29/29/29 31/31/31 30/30/30
f 31/31/31 32/32/32 30/30/30
f 31/31/31 33/33/33 32/32/32
f 33/33/33 34/34/34 32/32/32
f 33/33/33 35/35/35 34/34/34
f 35/35/35 36/36/36 34/34/34
f 39/39/39 38/38/38 37/37/37
f 40/40/40 39/39/39 37/37/37
f 40/40/40 37/37/37 41/41/41
f 42/42/42 40/40/40 41/41/41
f 42/42/42 41/41/41 43/43/43
f 44/44/44 42/42/42 43/43/43
f 44/44/44 43/43/43 45/45/45
f 46/46/46 44/44/44 45/45/45
f 46/46/46 45/45/45 47/47/47
f 48/48/48 46/46/46 47/47/47
f 48/48/48 47/47/47 49/49/49
f 50/50/50 48/48/48 49/49/49
f 50/50/50 49/49/49 51/51/51
f 52/52/52 50/50/50 51/51/51
f 52/52/52 51/51/51 53/53/53
f 54/54/54 52/52/52 53/53/53
