v -1.530734 0.000002 3.771638
v -1.325654 0.765369 3.771637
v -0.000001 0.000002 4.000000
v -2.828427 0.000002 3.121320
v -2.449489 1.414215 3.121319
v -1.530734 0.000002 3.771638
v -1.325654 0.765369 3.771637
v -0.765367 1.325656 3.771637
v -0.000001 0.000002 4.000000
v -2.449489 1.414215 3.121319
v -1.414213 2.449491 3.121319
v -1.325654 0.765369 3.771637
v -0.765367 1.325656 3.771637
v 0.000000 1.530735 3.771637
v -0.000001 0.000002 4.000000
v -1.414213 2.449491 3.121319
v 0.000000 2.828428 3.121318
v -0.765367 1.325656 3.771637
v 0.000000 1.530735 3.771637
v 0.765366 1.325656 3.771637
v -0.000001 0.000002 4.000000
v 0.000000 2.828428 3.121318
v 1.414213 2.449491 3.121319
v 0.000000 1.530735 3.771637
v 0.765366 1.325656 3.771637
v 1.325654 0.765369 3.771637
v -0.000001 0.000002 4.000000
v 1.414213 2.449491 3.121319
v 2.449489 1.414215 3.121319
v 0.765366 1.325656 3.771637
v 1.325654 0.765369 3.771637
v 1.530733 0.000002 3.771638
v -0.000001 0.000002 4.000000
v 2.449489 1.414215 3.121319
v 2.828426 0.000002 3.121320
v 1.325654 0.765369 3.771637
v 1.530733 0.000002 3.771638
v 1.325653 -0.765364 3.771638
v -0.000001 0.000002 4.000000
v 2.828426 0.000002 3.121320
v 2.449489 -1.414211 3.121321
v 1.530733 0.000002 3.771638
v 1.325653 -0.765364 3.771638
v 0.765366 -1.325652 3.771639
v -0.000001 0.000002 4.000000
v 2.449489 -1.414211 3.121321
v 1.414213 -2.449487 3.121321
v 1.325653 -0.765364 3.771638
v 0.765366 -1.325652 3.771639
v 0.000000 -1.530731 3.771639
v -0.000001 0.000002 4.000000
v 1.414213 -2.449487 3.121321
v -0.000001 -2.828425 3.121322
v 0.765366 -1.325652 3.771639
v 0.000000 -1.530731 3.771639
v -0.765367 -1.325652 3.771639
v -0.000001 0.000002 4.000000
v -0.000001 -2.828425 3.121322
v -1.414214 -2.449487 3.121321
v 0.000000 -1.530731 3.771639
v -0.765367 -1.325652 3.771639
v -1.325654 -0.765364 3.771638
v -0.000001 0.000002 4.000000
v -1.414214 -2.449487 3.121321
v -2.449490 -1.414211 3.121321
v -0.765367 -1.325652 3.771639
v -1.325654 -0.765364 3.771638
v -1.530734 0.000002 3.771638
v -0.000001 0.000002 4.000000
v -2.449490 -1.414211 3.121321
v -2.828427 0.000002 3.121320
v -1.325654 -0.765364 3.771638
v 5.166398 1.125513 -0.903754
v 5.036989 1.608476 -0.903754
v 5.016104 1.602881 -0.656621
v 5.166398 1.125513 -0.903754
v 5.145514 1.119918 -0.656621
v 5.036989 1.608476 -0.903754
v 5.999239 1.866312 -0.816599
v 5.978354 1.860715 -0.569465
v 5.036989 1.608476 -0.903754
v 5.016104 1.602881 -0.656621
v 5.999239 1.866312 -0.816599
v 6.128649 1.383348 -0.816599
v 6.107764 1.377753 -0.569465
v 5.999239 1.866312 -0.816599
v 5.978354 1.860715 -0.569465
v 6.128649 1.383348 -0.816599
v 5.166398 1.125513 -0.903754
v 5.145514 1.119918 -0.656621
v 6.128649 1.383348 -0.816599
v 6.107764 1.377753 -0.569465
v 3.911474 3.557923 -0.903755
v 3.557921 3.911477 -0.903755
v 3.542633 3.896188 -0.656622
v 3.911474 3.557923 -0.903755
v 3.896186 3.542635 -0.656622
v 3.557921 3.911477 -0.903755
v 4.262337 4.615892 -0.816601
v 4.247048 4.600605 -0.569467
v 3.557921 3.911477 -0.903755
v 3.542633 3.896188 -0.656622
v 4.262337 4.615892 -0.816601
v 4.615891 4.262340 -0.816601
v 4.600602 4.247050 -0.569467
v 4.262337 4.615892 -0.816601
v 4.247048 4.600605 -0.569467
v 4.615891 4.262340 -0.816601
v 3.911474 3.557923 -0.903755
v 3.896186 3.542635 -0.656622
v 4.615891 4.262340 -0.816601
v 4.600602 4.247050 -0.569467
v 1.608473 5.036990 -0.903756
v 1.125510 5.166398 -0.903756
v 1.119914 5.145514 -0.656623
v 1.608473 5.036990 -0.903756
v 1.602877 5.016105 -0.656623
v 1.125510 5.166398 -0.903756
v 1.383344 6.128649 -0.816602
v 1.377748 6.107763 -0.569468
v 1.125510 5.166398 -0.903756
v 1.377748 6.107763 -0.569468
v 1.119914 5.145514 -0.656623
v 1.383344 6.128649 -0.816602
v 1.866307 5.999239 -0.816602
v 1.860710 5.978355 -0.569468
v 1.383344 6.128649 -0.816602
v 1.377748 6.107763 -0.569468
v 1.866307 5.999239 -0.816602
v 1.608473 5.036990 -0.903756
v 1.602877 5.016105 -0.656623
v 1.866307 5.999239 -0.816602
v 1.602877 5.016105 -0.656623
v 1.860710 5.978355 -0.569468
v -1.125517 5.166397 -0.903756
v -1.608479 5.036986 -0.903756
v -1.602884 5.016102 -0.656623
v -1.125517 5.166397 -0.903756
v -1.119920 5.145513 -0.656623
v -1.608479 5.036986 -0.903756
v -1.866315 5.999238 -0.816602
v -1.860718 5.978353 -0.569468
v -1.608479 5.036986 -0.903756
v -1.602884 5.016102 -0.656623
v -1.866315 5.999238 -0.816602
v -1.383352 6.128647 -0.816602
v -1.377756 6.107762 -0.569468
v -1.866315 5.999238 -0.816602
v -1.860718 5.978353 -0.569468
v -1.383352 6.128647 -0.816602
v -1.125517 5.166397 -0.903756
v -1.119920 5.145513 -0.656623
v -1.383352 6.128647 -0.816602
v -1.377756 6.107762 -0.569468
v -3.557926 3.911472 -0.903755
v -3.911479 3.557918 -0.903755
v -3.896191 3.542630 -0.656622
v -3.557926 3.911472 -0.903755
v -3.542638 3.896184 -0.656622
v -3.911479 3.557918 -0.903755
v -4.615896 4.262333 -0.816601
v -4.600607 4.247046 -0.569467
v -3.911479 3.557918 -0.903755
v -4.600607 4.247046 -0.569467
v -3.896191 3.542630 -0.656622
v -4.615896 4.262333 -0.816601
v -4.262343 4.615888 -0.816601
v -4.247054 4.600598 -0.569467
v -4.615896 4.262333 -0.816601
v -4.600607 4.247046 -0.569467
v -4.262343 4.615888 -0.816601
v -3.557926 3.911472 -0.903755
v -3.542638 3.896184 -0.656622
v -4.262343 4.615888 -0.816601
v -3.542638 3.896184 -0.656622
v -4.247054 4.600598 -0.569467
v -5.036991 1.608471 -0.903754
v -5.166399 1.125507 -0.903754
v -5.145515 1.119912 -0.656621
v -5.036991 1.608471 -0.903754
v -5.016106 1.602875 -0.656621
v -5.166399 1.125507 -0.903754
v -6.128650 1.383340 -0.816599
v -6.107765 1.377745 -0.569465
v -5.166399 1.125507 -0.903754
v -5.145515 1.119912 -0.656621
v -6.128650 1.383340 -0.816599
v -5.999241 1.866304 -0.816599
v -5.978356 1.860708 -0.569465
v -6.128650 1.383340 -0.816599
v -6.107765 1.377745 -0.569465
v -5.999241 1.866304 -0.816599
v -5.036991 1.608471 -0.903754
v -5.016106 1.602875 -0.656621
v -5.999241 1.866304 -0.816599
v -5.978356 1.860708 -0.569465
v -5.166396 -1.125523 -0.903752
v -5.036986 -1.608485 -0.903752
v -5.016102 -1.602888 -0.656619
v -5.166396 -1.125523 -0.903752
v -5.145512 -1.119926 -0.656619
v -5.036986 -1.608485 -0.903752
v -5.999236 -1.866320 -0.816597
v -5.978351 -1.860724 -0.569463
v -5.036986 -1.608485 -0.903752
v -5.016102 -1.602888 -0.656619
v -5.999236 -1.866320 -0.816597
v -6.128646 -1.383358 -0.816597
v -6.107761 -1.377761 -0.569463
v -5.999236 -1.866320 -0.816597
v -5.978351 -1.860724 -0.569463
v -6.128646 -1.383358 -0.816597
v -5.166396 -1.125523 -0.903752
v -5.145512 -1.119926 -0.656619
v -6.128646 -1.383358 -0.816597
v -6.107761 -1.377761 -0.569463
v -3.911469 -3.557930 -0.903751
v -3.557915 -3.911483 -0.903751
v -3.542626 -3.896193 -0.656618
v -3.911469 -3.557930 -0.903751
v -3.896181 -3.542641 -0.656618
v -3.557915 -3.911483 -0.903751
v -4.262330 -4.615900 -0.816595
v -4.247041 -4.600610 -0.569461
v -3.557915 -3.911483 -0.903751
v -3.542626 -3.896193 -0.656618
v -4.262330 -4.615900 -0.816595
v -4.615883 -4.262346 -0.816595
v -4.600595 -4.247057 -0.569462
v -4.262330 -4.615900 -0.816595
v -4.247041 -4.600610 -0.569461
v -4.615883 -4.262346 -0.816595
v -3.911469 -3.557930 -0.903751
v -3.896181 -3.542641 -0.656618
v -4.615883 -4.262346 -0.816595
v -4.600595 -4.247057 -0.569462
v -1.608467 -5.036993 -0.903750
v -1.125504 -5.166401 -0.903750
v -1.119907 -5.145516 -0.656617
v -1.608467 -5.036993 -0.903750
v -1.602870 -5.016108 -0.656617
v -1.125504 -5.166401 -0.903750
v -1.383336 -6.128653 -0.816594
v -1.377740 -6.107767 -0.569460
v -1.125504 -5.166401 -0.903750
v -1.377740 -6.107767 -0.569460
v -1.119907 -5.145516 -0.656617
v -1.383336 -6.128653 -0.816594
v -1.866299 -5.999243 -0.816594
v -1.860703 -5.978358 -0.569460
v -1.383336 -6.128653 -0.816594
v -1.377740 -6.107767 -0.569460
v -1.866299 -5.999243 -0.816594
v -1.608467 -5.036993 -0.903750
v -1.602870 -5.016108 -0.656617
v -1.866299 -5.999243 -0.816594
v -1.602870 -5.016108 -0.656617
v -1.860703 -5.978358 -0.569460
v 1.125525 -5.166397 -0.903750
v 1.608487 -5.036985 -0.903750
v 1.602891 -5.016100 -0.656617
v 1.125525 -5.166397 -0.903750
v 1.119929 -5.145512 -0.656617
v 1.608487 -5.036985 -0.903750
v 1.866324 -5.999235 -0.816594
v 1.860728 -5.978350 -0.569460
v 1.608487 -5.036985 -0.903750
v 1.602891 -5.016100 -0.656617
v 1.866324 -5.999235 -0.816594
v 1.383362 -6.128645 -0.816594
v 1.377765 -6.107760 -0.569460
v 1.866324 -5.999235 -0.816594
v 1.860728 -5.978350 -0.569460
v 1.383362 -6.128645 -0.816594
v 1.125525 -5.166397 -0.903750
v 1.119929 -5.145512 -0.656617
v 1.383362 -6.128645 -0.816594
v 1.377765 -6.107760 -0.569460
v 3.557931 -3.911469 -0.903751
v 3.911484 -3.557915 -0.903751
v 3.896195 -3.542625 -0.656618
v 3.557931 -3.911469 -0.903751
v 3.542642 -3.896179 -0.656618
v 3.911484 -3.557915 -0.903751
v 4.615901 -4.262329 -0.816595
v 4.600612 -4.247039 -0.569462
v 3.911484 -3.557915 -0.903751
v 4.600612 -4.247039 -0.569462
v 3.896195 -3.542625 -0.656618
v 4.615901 -4.262329 -0.816595
v 4.262349 -4.615883 -0.816595
v 4.247060 -4.600594 -0.569461
v 4.615901 -4.262329 -0.816595
v 4.600612 -4.247039 -0.569462
v 4.262349 -4.615883 -0.816595
v 3.557931 -3.911469 -0.903751
v 3.542642 -3.896179 -0.656618
v 4.262349 -4.615883 -0.816595
v 3.542642 -3.896179 -0.656618
v 4.247060 -4.600594 -0.569461
v 5.036993 -1.608464 -0.903752
v 5.166401 -1.125500 -0.903752
v 5.145516 -1.119904 -0.656619
v 5.036993 -1.608464 -0.903752
v 5.016108 -1.602867 -0.656619
v 5.166401 -1.125500 -0.903752
v 6.128652 -1.383332 -0.816597
v 6.107767 -1.377735 -0.569463
v 5.166401 -1.125500 -0.903752
v 5.145516 -1.119904 -0.656619
v 6.128652 -1.383332 -0.816597
v 5.999244 -1.866295 -0.816597
v 5.978359 -1.860699 -0.569463
v 6.128652 -1.383332 -0.816597
v 6.107767 -1.377735 -0.569463
v 5.999244 -1.866295 -0.816597
v 5.036993 -1.608464 -0.903752
v 5.016108 -1.602867 -0.656619
v 5.999244 -1.866295 -0.816597
v 5.978359 -1.860699 -0.569463
v -4.000000 0.000001 1.000000
v -3.464101 2.000001 0.999999
v -3.200412 1.847760 2.148049
v -3.695518 0.000001 2.148050
v -3.695518 0.000001 2.148050
v -3.200412 1.847760 2.148049
v -2.449489 1.414215 3.121319
v -2.828427 0.000002 3.121320
v -3.464101 2.000001 0.999999
v -2.000000 3.464102 0.999998
v -1.847759 3.200413 2.148048
v -3.200412 1.847760 2.148049
v -3.200412 1.847760 2.148049
v -1.847759 3.200413 2.148048
v -1.414213 2.449491 3.121319
v -2.449489 1.414215 3.121319
v -2.000000 3.464102 0.999998
v 0.000000 4.000000 0.999998
v 0.000000 3.695519 2.148048
v -1.847759 3.200413 2.148048
v -1.847759 3.200413 2.148048
v 0.000000 3.695519 2.148048
v 0.000000 2.828428 3.121318
v -1.414213 2.449491 3.121319
v 0.000000 4.000000 0.999998
v 1.999999 3.464102 0.999998
v 1.847759 3.200413 2.148048
v 0.000000 3.695519 2.148048
v 0.000000 3.695519 2.148048
v 1.847759 3.200413 2.148048
v 1.414213 2.449491 3.121319
v 0.000000 2.828428 3.121318
v 1.999999 3.464102 0.999998
v 3.464100 2.000001 0.999999
v 3.200412 1.847760 2.148049
v 1.847759 3.200413 2.148048
v 1.847759 3.200413 2.148048
v 3.200412 1.847760 2.148049
v 2.449489 1.414215 3.121319
v 1.414213 2.449491 3.121319
v 3.464100 2.000001 0.999999
v 3.999999 0.000001 1.000000
v 3.695517 0.000001 2.148050
v 3.200412 1.847760 2.148049
v 3.200412 1.847760 2.148049
v 3.695517 0.000001 2.148050
v 2.828426 0.000002 3.121320
v 2.449489 1.414215 3.121319
v 3.999999 0.000001 1.000000
v 3.464100 -1.999999 1.000001
v 3.200412 -1.847758 2.148051
v 3.695517 0.000001 2.148050
v 3.695517 0.000001 2.148050
v 3.200412 -1.847758 2.148051
v 2.449489 -1.414211 3.121321
v 2.828426 0.000002 3.121320
v 3.464100 -1.999999 1.000001
v 1.999999 -3.464100 1.000002
v 1.847759 -3.200411 2.148052
v 3.200412 -1.847758 2.148051
v 3.200412 -1.847758 2.148051
v 1.847759 -3.200411 2.148052
v 1.414213 -2.449487 3.121321
v 2.449489 -1.414211 3.121321
v 1.999999 -3.464100 1.000002
v -0.000001 -3.999998 1.000002
v 0.000000 -3.695517 2.148052
v 1.847759 -3.200411 2.148052
v 1.847759 -3.200411 2.148052
v 0.000000 -3.695517 2.148052
v -0.000001 -2.828425 3.121322
v 1.414213 -2.449487 3.121321
v -0.000001 -3.999998 1.000002
v -2.000000 -3.464100 1.000002
v -1.847759 -3.200411 2.148052
v 0.000000 -3.695517 2.148052
v 0.000000 -3.695517 2.148052
v -1.847759 -3.200411 2.148052
v -1.414214 -2.449487 3.121321
v -0.000001 -2.828425 3.121322
v -2.000000 -3.464100 1.000002
v -3.464101 -1.999998 1.000001
v -3.200413 -1.847758 2.148051
v -1.847759 -3.200411 2.148052
v -1.847759 -3.200411 2.148052
v -3.200413 -1.847758 2.148051
v -2.449490 -1.414211 3.121321
v -1.414214 -2.449487 3.121321
v -3.464101 -1.999998 1.000001
v -4.000000 0.000001 1.000000
v -3.695518 0.000001 2.148050
v -3.200413 -1.847758 2.148051
v -3.200413 -1.847758 2.148051
v -3.695518 0.000001 2.148050
v -2.828427 0.000002 3.121320
v -2.449490 -1.414211 3.121321
v 6.928204 4.000001 -0.500002
v 8.000000 0.000001 0.500000
v 6.928204 4.000001 0.499998
v 4.000000 6.928204 -0.500004
v 4.000000 6.928204 0.499996
v 0.000000 8.000002 -0.500005
v 0.000000 8.000002 0.499995
v -4.000005 6.928201 -0.500004
v -4.000005 6.928201 0.499996
v -6.928205 3.999997 -0.500002
v -6.928205 3.999997 0.499998
v -8.000000 -0.000002 -0.500000
v -8.000000 -0.000002 0.500000
v -6.928202 -4.000001 -0.499998
v 8.000000 0.000001 -0.500000
v 8.000000 0.000001 0.500000
v 6.928204 -3.999999 0.500002
v 6.928204 -3.999999 -0.499998
v 4.000001 -6.928202 0.500004
v 4.000001 -6.928202 -0.499996
v 0.000002 -7.999999 0.500005
v 0.000002 -7.999999 -0.499995
v -3.999998 -6.928203 0.500004
v -3.999998 -6.928203 -0.499996
v -6.928202 -4.000001 0.500002
v -8.000000 -0.000002 0.500000
v 8.000000 0.000001 0.500000
v 4.000000 0.000001 1.000000
v 3.464102 2.000001 0.999999
v 6.928204 -3.999999 0.500002
v 8.000000 0.000001 0.500000
v 3.464102 -1.999999 1.000001
v 4.000001 -6.928202 0.500004
v 2.000000 -3.464100 1.000002
v 0.000002 -7.999999 0.500005
v 0.000001 -3.999999 1.000002
v -3.999998 -6.928203 0.500004
v -1.999999 -3.464101 1.000002
v -6.928202 -4.000001 0.500002
v -3.464101 -2.000000 1.000001
v -8.000000 -0.000002 0.500000
v -8.000000 -0.000002 0.500000
v -4.000000 -0.000000 1.000000
v 8.000000 0.000001 0.500000
v 6.928204 4.000001 0.499998
v 2.000000 3.464103 0.999998
v 4.000000 6.928204 0.499996
v 0.000000 4.000001 0.999998
v 0.000000 8.000002 0.499995
v -2.000003 3.464102 0.999998
v -4.000005 6.928201 0.499996
v -3.464103 1.999999 0.999999
v -6.928205 3.999997 0.499998
v -8.000000 -0.000002 0.500000
v 6.128649 1.383348 -0.816599
v 5.999239 1.866312 -0.816599
v 5.036989 1.608476 -0.903754
v 5.166398 1.125513 -0.903754
v 4.615891 4.262340 -0.816601
v 4.262337 4.615892 -0.816601
v 3.557921 3.911477 -0.903755
v 3.911474 3.557923 -0.903755
v 1.866307 5.999239 -0.816602
v 1.383344 6.128649 -0.816602
v 1.125510 5.166398 -0.903756
v 1.608473 5.036990 -0.903756
v -1.383352 6.128647 -0.816602
v -1.866315 5.999238 -0.816602
v -1.608479 5.036986 -0.903756
v -1.125517 5.166397 -0.903756
v -4.262343 4.615888 -0.816601
v -4.615896 4.262333 -0.816601
v -3.911479 3.557918 -0.903755
v -3.557926 3.911472 -0.903755
v -5.999241 1.866304 -0.816599
v -6.128650 1.383340 -0.816599
v -5.166399 1.125507 -0.903754
v -5.036991 1.608471 -0.903754
v -6.128646 -1.383358 -0.816597
v -5.999236 -1.866320 -0.816597
v -5.036986 -1.608485 -0.903752
v -5.166396 -1.125523 -0.903752
v -4.615883 -4.262346 -0.816595
v -4.262330 -4.615900 -0.816595
v -3.557915 -3.911483 -0.903751
v -3.911469 -3.557930 -0.903751
v -1.866299 -5.999243 -0.816594
v -1.383336 -6.128653 -0.816594
v -1.125504 -5.166401 -0.903750
v -1.608467 -5.036993 -0.903750
v 1.383362 -6.128645 -0.816594
v 1.866324 -5.999235 -0.816594
v 1.608487 -5.036985 -0.903750
v 1.125525 -5.166397 -0.903750
v 4.262349 -4.615883 -0.816595
v 4.615901 -4.262329 -0.816595
v 3.911484 -3.557915 -0.903751
v 3.557931 -3.911469 -0.903751
v 5.999244 -1.866295 -0.816597
v 6.128652 -1.383332 -0.816597
v 5.166401 -1.125500 -0.903752
v 5.036993 -1.608464 -0.903752
v -6.928205 3.999997 -0.500002
v -2.000003 3.464100 -1.000002
v -4.000005 6.928201 -0.500004
v -3.464103 1.999997 -1.000001
v -8.000000 -0.000002 -0.500000
v -4.000000 -0.000002 -1.000000
v -6.928202 -4.000001 -0.499998
v -3.464101 -2.000002 -0.999999
v -3.999998 -6.928203 -0.499996
v -1.999999 -3.464103 -0.999998
v 0.000002 -7.999999 -0.499995
v 0.000000 3.999999 -1.000002
v 0.000000 8.000002 -0.500005
v 0.000001 -4.000001 -0.999998
v 4.000001 -6.928202 -0.499996
v 2.000000 3.464101 -1.000002
v 4.000000 6.928204 -0.500004
v 2.000000 -3.464102 -0.999998
v 6.928204 -3.999999 -0.499998
v 3.464102 1.999999 -1.000001
v 6.928204 4.000001 -0.500002
v 3.464102 -2.000001 -0.999999
v 8.000000 0.000001 -0.500000
v 4.000000 -0.000001 -1.000000
vt 0.836142004 0.385156006
vt 0.952493012 0.501506984
vt 0.952493012 0.385156006
vt 0.836142004 0.385156006
vt 0.836142004 0.501506984
vt 0.952493012 0.385156006
vt 0.836142004 0.385156006
vt 0.952493012 0.501506984
vt 0.952493012 0.385156006
vt 0.836142004 0.385156006
vt 0.836142004 0.501506984
vt 0.952493012 0.385156006
vt 0.836142004 0.385156006
vt 0.952493012 0.501506984
vt 0.952493012 0.385156006
vt 0.836142004 0.385156006
vt 0.836142004 0.501506984
vt 0.952493012 0.385156006
vt 0.836142004 0.385156006
vt 0.952493012 0.501506984
vt 0.952493012 0.385156006
vt 0.836142004 0.385156006
vt 0.836142004 0.501506984
vt 0.952493012 0.385156006
vt 0.836142004 0.385156006
vt 0.952493012 0.501506984
vt 0.952493012 0.385156006
vt 0.836142004 0.385156006
vt 0.836142004 0.501506984
vt 0.952493012 0.385156006
vt 0.836142004 0.385156006
vt 0.952493012 0.501506984
vt 0.952493012 0.385156006
vt 0.836142004 0.385156006
vt 0.836142004 0.501506984
vt 0.952493012 0.385156006
vt 0.836142004 0.385156006
vt 0.952493012 0.501506984
vt 0.952493012 0.385156006
vt 0.836142004 0.385156006
vt 0.836142004 0.501506984
vt 0.952493012 0.385156006
vt 0.836142004 0.385156006
vt 0.952493012 0.501506984
vt 0.952493012 0.385156006
vt 0.836142004 0.385156006
vt 0.836142004 0.501506984
vt 0.952493012 0.385156006
vt 0.836142004 0.385156006
vt 0.952493012 0.501506984
vt 0.952493012 0.385156006
vt 0.836142004 0.385156006
vt 0.836142004 0.501506984
vt 0.952493012 0.385156006
vt 0.836142004 0.385156006
vt 0.952493012 0.501506984
vt 0.952493012 0.385156006
vt 0.836142004 0.385156006
vt 0.836142004 0.501506984
vt 0.952493012 0.385156006
vt 0.836142004 0.385156006
vt 0.952493012 0.501506984
vt 0.952493012 0.385156006
vt 0.836142004 0.385156006
vt 0.836142004 0.501506984
vt 0.952493012 0.385156006
vt 0.836142004 0.385156006
vt 0.952493012 0.501506984
vt 0.952493012 0.385156006
vt 0.836142004 0.385156006
vt 0.836142004 0.501506984
vt 0.952493012 0.385156006
vt 0.86758101 0.491941988
vt 0.865966976 0.502107978
vt 0.857959986 0.509944022
vt 0.86758101 0.491941988
vt 0.85808301 0.485282004
vt 0.865966976 0.502107978
vt 0.883831978 0.503283978
vt 0.893329978 0.509944022
vt 0.865966976 0.502107978
vt 0.857959986 0.509944022
vt 0.883831978 0.503283978
vt 0.885446012 0.493117988
vt 0.893453002 0.485282004
vt 0.883831978 0.503283978
vt 0.893329978 0.509944022
vt 0.885446012 0.493117988
vt 0.86758101 0.491941988
vt 0.85808301 0.485282004
vt 0.885446012 0.493117988
vt 0.893453002 0.485282004
vt 0.832017004 0.406910002
vt 0.830402017 0.417075992
vt 0.822395027 0.424912006
vt 0.832017004 0.406910002
vt 0.822519004 0.400249004
vt 0.830402017 0.417075992
vt 0.848267019 0.418251991
vt 0.857765973 0.424912006
vt 0.830402017 0.417075992
vt 0.822395027 0.424912006
vt 0.848267019 0.418251991
vt 0.849882007 0.408084989
vt 0.857888997 0.400249004
vt 0.848267019 0.418251991
vt 0.857765973 0.424912006
vt 0.849882007 0.408084989
vt 0.832017004 0.406910002
vt 0.822519004 0.400249004
vt 0.849882007 0.408084989
vt 0.857888997 0.400249004
vt 0.83988601 0.500322998
vt 0.850051999 0.501936972
vt 0.857888997 0.509944022
vt 0.83988601 0.500322998
vt 0.833226025 0.509820998
vt 0.850051999 0.501936972
vt 0.851227999 0.484073013
vt 0.857888997 0.474574
vt 0.850051999 0.501936972
vt 0.857888997 0.474574
vt 0.857888997 0.509944022
vt 0.851227999 0.484073013
vt 0.841062009 0.482457995
vt 0.833226025 0.474451005
vt 0.851227999 0.484073013
vt 0.857888997 0.474574
vt 0.841062009 0.482457995
vt 0.83988601 0.500322998
vt 0.833226025 0.509820998
vt 0.841062009 0.482457995
vt 0.833226025 0.509820998
vt 0.833226025 0.474451005
vt 0.796451986 0.481112003
vt 0.794838011 0.491277993
vt 0.786831021 0.499114007
vt 0.796451986 0.481112003
vt 0.786953986 0.474451005
vt 0.794838011 0.491277993
vt 0.812703013 0.492453992
vt 0.822201014 0.499114007
vt 0.794838011 0.491277993
vt 0.786831021 0.499114007
vt 0.812703013 0.492453992
vt 0.814316988 0.48228699
vt 0.822323978 0.474451005
vt 0.812703013 0.492453992
vt 0.822201014 0.499114007
vt 0.814316988 0.48228699
vt 0.796451986 0.481112003
vt 0.786953986 0.474451005
vt 0.814316988 0.48228699
vt 0.822323978 0.474451005
vt 0.90069598 0.459338993
vt 0.89052999 0.457724005
vt 0.882694006 0.449716985
vt 0.90069598 0.459338993
vt 0.907356977 0.449840009
vt 0.89052999 0.457724005
vt 0.889353991 0.475589007
vt 0.882694006 0.485087007
vt 0.89052999 0.457724005
vt 0.882694006 0.485087007
vt 0.882694006 0.449716985
vt 0.889353991 0.475589007
vt 0.89951998 0.477203012
vt 0.907356977 0.485210001
vt 0.889353991 0.475589007
vt 0.882694006 0.485087007
vt 0.89951998 0.477203012
vt 0.90069598 0.459338993
vt 0.907356977 0.449840009
vt 0.89951998 0.477203012
vt 0.907356977 0.449840009
vt 0.907356977 0.485210001
vt 0.848267019 0.467720002
vt 0.849882007 0.457552999
vt 0.857888997 0.449716985
vt 0.848267019 0.467720002
vt 0.857765973 0.474379987
vt 0.849882007 0.457552999
vt 0.832017004 0.456378013
vt 0.822519004 0.449716985
vt 0.849882007 0.457552999
vt 0.857888997 0.449716985
vt 0.832017004 0.456378013
vt 0.830402017 0.466544002
vt 0.822395027 0.474379987
vt 0.832017004 0.456378013
vt 0.822519004 0.449716985
vt 0.830402017 0.466544002
vt 0.848267019 0.467720002
vt 0.857765973 0.474379987
vt 0.830402017 0.466544002
vt 0.822395027 0.474379987
vt 0.812703013 0.442986012
vt 0.814316988 0.432819009
vt 0.822323978 0.424982995
vt 0.812703013 0.442986012
vt 0.822201014 0.449645996
vt 0.814316988 0.432819009
vt 0.796451986 0.431643993
vt 0.786953986 0.424982995
vt 0.814316988 0.432819009
vt 0.822323978 0.424982995
vt 0.796451986 0.431643993
vt 0.794838011 0.441810012
vt 0.786831021 0.449645996
vt 0.796451986 0.431643993
vt 0.786953986 0.424982995
vt 0.794838011 0.441810012
vt 0.812703013 0.442986012
vt 0.822201014 0.449645996
vt 0.794838011 0.441810012
vt 0.786831021 0.449645996
vt 0.848267019 0.442986012
vt 0.849882007 0.432819009
vt 0.857888997 0.424982995
vt 0.848267019 0.442986012
vt 0.857765973 0.449645996
vt 0.849882007 0.432819009
vt 0.832017004 0.431643993
vt 0.822519004 0.424982995
vt 0.849882007 0.432819009
vt 0.857888997 0.424982995
vt 0.832017004 0.431643993
vt 0.830402017 0.441810012
vt 0.822395027 0.449645996
vt 0.832017004 0.431643993
vt 0.822519004 0.424982995
vt 0.830402017 0.441810012
vt 0.848267019 0.442986012
vt 0.857765973 0.449645996
vt 0.830402017 0.441810012
vt 0.822395027 0.449645996
vt 0.875962019 0.459338993
vt 0.86579603 0.457724005
vt 0.857959986 0.449716985
vt 0.875962019 0.459338993
vt 0.882623017 0.449840009
vt 0.86579603 0.457724005
vt 0.86461997 0.475589007
vt 0.857959986 0.485087007
vt 0.86579603 0.457724005
vt 0.857959986 0.485087007
vt 0.857959986 0.449716985
vt 0.86461997 0.475589007
vt 0.874786019 0.477203012
vt 0.882623017 0.485211015
vt 0.86461997 0.475589007
vt 0.857959986 0.485087007
vt 0.874786019 0.477203012
vt 0.875962019 0.459338993
vt 0.882623017 0.449840009
vt 0.874786019 0.477203012
vt 0.882623017 0.449840009
vt 0.882623017 0.485211015
vt 0.812703013 0.418251991
vt 0.814316988 0.408086002
vt 0.822323978 0.400249004
vt 0.812703013 0.418251991
vt 0.822201014 0.424912006
vt 0.814316988 0.408086002
vt 0.796451986 0.406910002
vt 0.786953986 0.400249004
vt 0.814316988 0.408086002
vt 0.822323978 0.400249004
vt 0.796451986 0.406910002
vt 0.794838011 0.417075992
vt 0.786831021 0.424912006
vt 0.796451986 0.406910002
vt 0.786953986 0.400249004
vt 0.794838011 0.417075992
vt 0.812703013 0.418251991
vt 0.822201014 0.424912006
vt 0.794838011 0.417075992
vt 0.786831021 0.424912006
vt 0.86461997 0.426120996
vt 0.874786019 0.427735001
vt 0.882623017 0.435741991
vt 0.86461997 0.426120996
vt 0.857959986 0.435618997
vt 0.874786019 0.427735001
vt 0.875962019 0.409871012
vt 0.882623017 0.400371999
vt 0.874786019 0.427735001
vt 0.882623017 0.400371999
vt 0.882623017 0.435741991
vt 0.875962019 0.409871012
vt 0.86579603 0.408255994
vt 0.857959986 0.400249004
vt 0.875962019 0.409871012
vt 0.882623017 0.400371999
vt 0.86579603 0.408255994
vt 0.86461997 0.426120996
vt 0.857959986 0.435618997
vt 0.86579603 0.408255994
vt 0.857959986 0.435618997
vt 0.857959986 0.400249004
vt 0.796451986 0.456378013
vt 0.794838011 0.466544002
vt 0.786831021 0.474379987
vt 0.796451986 0.456378013
vt 0.786953986 0.449716985
vt 0.794838011 0.466544002
vt 0.812703013 0.467720002
vt 0.822201014 0.474379987
vt 0.794838011 0.466544002
vt 0.786831021 0.474379987
vt 0.812703013 0.467720002
vt 0.814316988 0.457552999
vt 0.822323978 0.449716985
vt 0.812703013 0.467720002
vt 0.822201014 0.474379987
vt 0.814316988 0.457552999
vt 0.796451986 0.456378013
vt 0.786953986 0.449716985
vt 0.814316988 0.457552999
vt 0.822323978 0.449716985
vt 0.836142004 0.385156006
vt 0.836142004 0.501506984
vt 0.952493012 0.501506984
vt 0.952493012 0.385156006
vt 0.836142004 0.385156006
vt 0.836142004 0.501506984
vt 0.952493012 0.501506984
vt 0.952493012 0.385156006
vt 0.836142004 0.385156006
vt 0.836142004 0.501506984
vt 0.952493012 0.501506984
vt 0.952493012 0.385156006
vt 0.836142004 0.385156006
vt 0.836142004 0.501506984
vt 0.952493012 0.501506984
vt 0.952493012 0.385156006
vt 0.836142004 0.385156006
vt 0.836142004 0.501506984
vt 0.952493012 0.501506984
vt 0.952493012 0.385156006
vt 0.836142004 0.385156006
vt 0.836142004 0.501506984
vt 0.952493012 0.501506984
vt 0.952493012 0.385156006
vt 0.836142004 0.385156006
vt 0.836142004 0.501506984
vt 0.952493012 0.501506984
vt 0.952493012 0.385156006
vt 0.836142004 0.385156006
vt 0.836142004 0.501506984
vt 0.952493012 0.501506984
vt 0.952493012 0.385156006
vt 0.836142004 0.385156006
vt 0.836142004 0.501506984
vt 0.952493012 0.501506984
vt 0.952493012 0.385156006
vt 0.836142004 0.385156006
vt 0.836142004 0.501506984
vt 0.952493012 0.501506984
vt 0.952493012 0.385156006
vt 0.836142004 0.385156006
vt 0.836142004 0.501506984
vt 0.952493012 0.501506984
vt 0.952493012 0.385156006
vt 0.836142004 0.385156006
vt 0.836142004 0.501506984
vt 0.952493012 0.501506984
vt 0.952493012 0.385156006
vt 0.836142004 0.385156006
vt 0.836142004 0.501506984
vt 0.952493012 0.501506984
vt 0.952493012 0.385156006
vt 0.836142004 0.385156006
vt 0.836142004 0.501506984
vt 0.952493012 0.501506984
vt 0.952493012 0.385156006
vt 0.836142004 0.385156006
vt 0.836142004 0.501506984
vt 0.952493012 0.501506984
vt 0.952493012 0.385156006
vt 0.836142004 0.385156006
vt 0.836142004 0.501506984
vt 0.952493012 0.501506984
vt 0.952493012 0.385156006
vt 0.836142004 0.385156006
vt 0.836142004 0.501506984
vt 0.952493012 0.501506984
vt 0.952493012 0.385156006
vt 0.836142004 0.385156006
vt 0.836142004 0.501506984
vt 0.952493012 0.501506984
vt 0.952493012 0.385156006
vt 0.836142004 0.385156006
vt 0.836142004 0.501506984
vt 0.952493012 0.501506984
vt 0.952493012 0.385156006
vt 0.836142004 0.385156006
vt 0.836142004 0.501506984
vt 0.952493012 0.501506984
vt 0.952493012 0.385156006
vt 0.836142004 0.385156006
vt 0.836142004 0.501506984
vt 0.952493012 0.501506984
vt 0.952493012 0.385156006
vt 0.836142004 0.385156006
vt 0.836142004 0.501506984
vt 0.952493012 0.501506984
vt 0.952493012 0.385156006
vt 0.836142004 0.385156006
vt 0.836142004 0.501506984
vt 0.952493012 0.501506984
vt 0.952493012 0.385156006
vt 0.836142004 0.385156006
vt 0.836142004 0.501506984
vt 0.952493012 0.501506984
vt 0.952493012 0.385156006
vt 0.165172994 0.49614799
vt 0.167309001 0.503265977
vt 0.167016 0.495626003
vt 0.161606997 0.490530014
vt 0.162940994 0.489156991
vt 0.155708998 0.487448007
vt 0.156177998 0.485592008
vt 0.149059996 0.487728
vt 0.148537993 0.485886008
vt 0.143441007 0.491293997
vt 0.142068997 0.489960015
vt 0.140358999 0.497191995
vt 0.138503 0.496722996
vt 0.140637994 0.503840983
vt 0.165453002 0.502797008
vt 0.167309001 0.503265977
vt 0.163743004 0.510029018
vt 0.162370995 0.508695006
vt 0.157273993 0.514104009
vt 0.156752005 0.512260973
vt 0.149633005 0.514397025
vt 0.150103003 0.512540996
vt 0.142869994 0.510832012
vt 0.144205004 0.509459019
vt 0.138796002 0.504361987
vt 0.138503 0.496722996
vt 0.167309001 0.503265977
vt 0.208534002 0.514900029
vt 0.208534002 0.485087991
vt 0.163743004 0.510029018
vt 0.167309001 0.503265977
vt 0.193628997 0.540717006
vt 0.157273993 0.514104009
vt 0.167811006 0.555622995
vt 0.149633005 0.514397025
vt 0.137999997 0.555622995
vt 0.142869994 0.510832012
vt 0.112182997 0.540715992
vt 0.138796002 0.504361987
vt 0.0972779989 0.514899015
vt 0.138503 0.496722996
vt 0.138503 0.496722996
vt 0.0972789973 0.485087991
vt 0.167309001 0.503265977
vt 0.167016 0.495626003
vt 0.193627998 0.459271997
vt 0.162940994 0.489156991
vt 0.167811006 0.444368005
vt 0.156177998 0.485592008
vt 0.138001993 0.444368005
vt 0.148537993 0.485886008
vt 0.112185001 0.459271997
vt 0.142068997 0.489960015
vt 0.138503 0.496722996
vt 0.885446012 0.493117988
vt 0.883831978 0.503283978
vt 0.865966976 0.502107978
vt 0.86758101 0.491941988
vt 0.849882007 0.408084989
vt 0.848267019 0.418251991
vt 0.830402017 0.417075992
vt 0.832017004 0.406910002
vt 0.841062009 0.482457995
vt 0.851227999 0.484073013
vt 0.850051999 0.501936972
vt 0.83988601 0.500322998
vt 0.814316988 0.48228699
vt 0.812703013 0.492453992
vt 0.794838011 0.491277993
vt 0.796451986 0.481112003
vt 0.89951998 0.477203012
vt 0.889353991 0.475589007
vt 0.89052999 0.457724005
vt 0.90069598 0.459338993
vt 0.830402017 0.466544002
vt 0.832017004 0.456378013
vt 0.849882007 0.457552999
vt 0.848267019 0.467720002
vt 0.794838011 0.441810012
vt 0.796451986 0.431643993
vt 0.814316988 0.432819009
vt 0.812703013 0.442986012
vt 0.830402017 0.441810012
vt 0.832017004 0.431643993
vt 0.849882007 0.432819009
vt 0.848267019 0.442986012
vt 0.874786019 0.477203012
vt 0.86461997 0.475589007
vt 0.86579603 0.457724005
vt 0.875962019 0.459338993
vt 0.794838011 0.417075992
vt 0.796451986 0.406910002
vt 0.814316988 0.408086002
vt 0.812703013 0.418251991
vt 0.86579603 0.408255994
vt 0.875962019 0.409871012
vt 0.874786019 0.427735001
vt 0.86461997 0.426120996
vt 0.814316988 0.457552999
vt 0.812703013 0.467720002
vt 0.794838011 0.466544002
vt 0.796451986 0.456378013
vt 0.143441007 0.491293997
vt 0.151038006 0.493766993
vt 0.149059996 0.487728
vt 0.148173004 0.495534003
vt 0.140358999 0.497191995
vt 0.146576002 0.498497993
vt 0.140637994 0.503840983
vt 0.146675006 0.501861989
vt 0.144205004 0.509459019
vt 0.148443997 0.504727006
vt 0.150103003 0.512540996
vt 0.154403999 0.493665993
vt 0.155708998 0.487448007
vt 0.151408002 0.50632298
vt 0.156752005 0.512260973
vt 0.157368004 0.495261997
vt 0.161606997 0.490530014
vt 0.154773995 0.506223977
vt 0.162370995 0.508695006
vt 0.159135997 0.498126
vt 0.165172994 0.49614799
vt 0.157638997 0.50445497
vt 0.165453002 0.502797008
vt 0.159235999 0.50149101
vn -0.301070 0.000001 0.953602
vn -0.260735 0.150536 0.953602
vn 0.000000 0.000001 1.000000
vn -0.607252 0.000000 0.794509
vn -0.525896 0.303627 0.794509
vn -0.301070 0.000001 0.953602
vn -0.260735 0.150536 0.953602
vn -0.150535 0.260735 0.953602
vn 0.000000 0.000001 1.000000
vn -0.525896 0.303627 0.794509
vn -0.303626 0.525896 0.794509
vn -0.260735 0.150536 0.953602
vn -0.150535 0.260735 0.953602
vn 0.000000 0.301071 0.953602
vn 0.000000 0.000001 1.000000
vn -0.303626 0.525896 0.794509
vn 0.000000 0.607253 0.794509
vn -0.150535 0.260735 0.953602
vn 0.000000 0.301071 0.953602
vn 0.150535 0.260735 0.953602
vn 0.000000 0.000001 1.000000
vn 0.000000 0.607253 0.794509
vn 0.303626 0.525896 0.794509
vn 0.000000 0.301071 0.953602
vn 0.150535 0.260735 0.953602
vn 0.260735 0.150536 0.953602
vn 0.000000 0.000001 1.000000
vn 0.303626 0.525896 0.794509
vn 0.525896 0.303626 0.794509
vn 0.150535 0.260735 0.953602
vn 0.260735 0.150536 0.953602
vn 0.301070 0.000001 0.953602
vn 0.000000 0.000001 1.000000
vn 0.525896 0.303626 0.794509
vn 0.607252 0.000000 0.794509
vn 0.260735 0.150536 0.953602
vn 0.301070 0.000001 0.953602
vn 0.260735 -0.150535 0.953602
vn 0.000000 0.000001 1.000000
vn 0.607252 0.000000 0.794509
vn 0.525896 -0.303626 0.794509
vn 0.301070 0.000001 0.953602
vn 0.260735 -0.150535 0.953602
vn 0.150535 -0.260734 0.953602
vn 0.000000 0.000001 1.000000
vn 0.525896 -0.303626 0.794509
vn 0.303626 -0.525895 0.794510
vn 0.260735 -0.150535 0.953602
vn 0.150535 -0.260734 0.953602
vn 0.000000 -0.301070 0.953602
vn 0.000000 0.000001 1.000000
vn 0.303626 -0.525895 0.794510
vn 0.000000 -0.607252 0.794510
vn 0.150535 -0.260734 0.953602
vn 0.000000 -0.301070 0.953602
vn -0.150535 -0.260734 0.953602
vn 0.000000 0.000001 1.000000
vn 0.000000 -0.607252 0.794510
vn -0.303626 -0.525895 0.794509
vn 0.000000 -0.301070 0.953602
vn -0.150535 -0.260734 0.953602
vn -0.260735 -0.150535 0.953602
vn 0.000000 0.000001 1.000000
vn -0.303626 -0.525895 0.794509
vn -0.525896 -0.303626 0.794509
vn -0.150535 -0.260734 0.953602
vn -0.260735 -0.150535 0.953602
vn -0.301070 0.000001 0.953602
vn 0.000000 0.000001 1.000000
vn -0.525896 -0.303626 0.794509
vn -0.607252 0.000000 0.794509
vn -0.260735 -0.150535 0.953602
vn -0.962250 -0.257834 -0.087155
vn -0.962250 -0.257834 -0.087155
vn -0.962250 -0.257834 -0.087155
vn -0.962250 -0.257834 -0.087155
vn -0.962250 -0.257834 -0.087155
vn -0.258820 0.965926 -0.000001
vn -0.258820 0.965926 -0.000001
vn -0.258820 0.965926 -0.000001
vn -0.258820 0.965926 -0.000001
vn -0.258820 0.965926 -0.000001
vn 0.962250 0.257835 0.087158
vn 0.962250 0.257835 0.087158
vn 0.962250 0.257835 0.087158
vn 0.962250 0.257835 0.087158
vn 0.962250 0.257835 0.087158
vn 0.258820 -0.965926 0.000001
vn 0.258820 -0.965926 0.000001
vn 0.258820 -0.965926 0.000001
vn 0.258820 -0.965926 0.000001
vn 0.258820 -0.965926 0.000001
vn -0.704416 -0.704416 -0.087155
vn -0.704416 -0.704416 -0.087155
vn -0.704416 -0.704416 -0.087155
vn -0.704416 -0.704416 -0.087155
vn -0.704416 -0.704416 -0.087155
vn -0.707107 0.707106 -0.000000
vn -0.707107 0.707106 -0.000000
vn -0.707107 0.707106 -0.000000
vn -0.707107 0.707106 -0.000000
vn -0.707107 0.707106 -0.000000
vn 0.704415 0.704416 0.087156
vn 0.704415 0.704416 0.087156
vn 0.704415 0.704416 0.087156
vn 0.704415 0.704416 0.087156
vn 0.704415 0.704416 0.087156
vn 0.707107 -0.707107 0.000000
vn 0.707107 -0.707107 0.000000
vn 0.707107 -0.707107 0.000000
vn 0.707107 -0.707107 0.000000
vn 0.707107 -0.707107 0.000000
vn -0.257833 -0.962250 -0.087157
vn -0.257833 -0.962250 -0.087157
vn -0.257833 -0.962250 -0.087157
vn -0.257833 -0.962250 -0.087157
vn -0.257833 -0.962250 -0.087157
vn -0.965926 0.258819 -0.000000
vn -0.965926 0.258819 -0.000000
vn -0.965926 0.258819 -0.000000
vn -0.965926 0.258819 -0.000000
vn -0.965926 0.258819 -0.000000
vn -0.965926 0.258819 -0.000000
vn 0.257833 0.962250 0.087158
vn 0.257833 0.962250 0.087158
vn 0.257833 0.962250 0.087158
vn 0.257833 0.962250 0.087158
vn 0.257833 0.962250 0.087158
vn 0.965926 -0.258819 0.000000
vn 0.965926 -0.258819 0.000000
vn 0.965926 -0.258819 0.000000
vn 0.965926 -0.258819 0.000000
vn 0.965926 -0.258819 0.000000
vn 0.965926 -0.258819 0.000000
vn 0.257836 -0.962250 -0.087153
vn 0.257836 -0.962250 -0.087153
vn 0.257836 -0.962250 -0.087153
vn 0.257836 -0.962250 -0.087153
vn 0.257836 -0.962250 -0.087153
vn -0.965926 -0.258820 0.000000
vn -0.965926 -0.258820 0.000000
vn -0.965926 -0.258820 0.000000
vn -0.965926 -0.258820 0.000000
vn -0.965926 -0.258820 0.000000
vn -0.257834 0.962250 0.087159
vn -0.257834 0.962250 0.087159
vn -0.257834 0.962250 0.087159
vn -0.257834 0.962250 0.087159
vn -0.257834 0.962250 0.087159
vn 0.965925 0.258821 -0.000000
vn 0.965925 0.258821 -0.000000
vn 0.965925 0.258821 -0.000000
vn 0.965925 0.258821 -0.000000
vn 0.965925 0.258821 -0.000000
vn 0.704417 -0.704416 -0.087154
vn 0.704417 -0.704416 -0.087154
vn 0.704417 -0.704416 -0.087154
vn 0.704417 -0.704416 -0.087154
vn 0.704417 -0.704416 -0.087154
vn -0.707106 -0.707107 0.000000
vn -0.707106 -0.707107 0.000000
vn -0.707106 -0.707107 0.000000
vn -0.707106 -0.707107 0.000000
vn -0.707106 -0.707107 0.000000
vn -0.707106 -0.707107 0.000000
vn -0.704416 0.704416 0.087156
vn -0.704416 0.704416 0.087156
vn -0.704416 0.704416 0.087156
vn -0.704416 0.704416 0.087156
vn -0.704416 0.704416 0.087156
vn 0.707106 0.707107 -0.000000
vn 0.707106 0.707107 -0.000000
vn 0.707106 0.707107 -0.000000
vn 0.707106 0.707107 -0.000000
vn 0.707106 0.707107 -0.000000
vn 0.707106 0.707107 -0.000000
vn 0.962251 -0.257832 -0.087155
vn 0.962251 -0.257832 -0.087155
vn 0.962251 -0.257832 -0.087155
vn 0.962251 -0.257832 -0.087155
vn 0.962251 -0.257832 -0.087155
vn -0.258818 -0.965926 0.000001
vn -0.258818 -0.965926 0.000001
vn -0.258818 -0.965926 0.000001
vn -0.258818 -0.965926 0.000001
vn -0.258818 -0.965926 0.000001
vn -0.962250 0.257834 0.087157
vn -0.962250 0.257834 0.087157
vn -0.962250 0.257834 0.087157
vn -0.962250 0.257834 0.087157
vn -0.962250 0.257834 0.087157
vn 0.258818 0.965926 -0.000001
vn 0.258818 0.965926 -0.000001
vn 0.258818 0.965926 -0.000001
vn 0.258818 0.965926 -0.000001
vn 0.258818 0.965926 -0.000001
vn 0.962250 0.257836 -0.087154
vn 0.962250 0.257836 -0.087154
vn 0.962250 0.257836 -0.087154
vn 0.962250 0.257836 -0.087154
vn 0.962250 0.257836 -0.087154
vn 0.258821 -0.965925 0.000001
vn 0.258821 -0.965925 0.000001
vn 0.258821 -0.965925 0.000001
vn 0.258821 -0.965925 0.000001
vn 0.258821 -0.965925 0.000001
vn -0.962250 -0.257835 0.087157
vn -0.962250 -0.257835 0.087157
vn -0.962250 -0.257835 0.087157
vn -0.962250 -0.257835 0.087157
vn -0.962250 -0.257835 0.087157
vn -0.258820 0.965926 -0.000001
vn -0.258820 0.965926 -0.000001
vn -0.258820 0.965926 -0.000001
vn -0.258820 0.965926 -0.000001
vn -0.258820 0.965926 -0.000001
vn 0.704414 0.704418 -0.087156
vn 0.704414 0.704418 -0.087156
vn 0.704414 0.704418 -0.087156
vn 0.704414 0.704418 -0.087156
vn 0.704414 0.704418 -0.087156
vn 0.707108 -0.707106 0.000000
vn 0.707108 -0.707106 0.000000
vn 0.707108 -0.707106 0.000000
vn 0.707108 -0.707106 0.000000
vn 0.707108 -0.707106 0.000000
vn -0.704416 -0.704416 0.087156
vn -0.704416 -0.704416 0.087156
vn -0.704416 -0.704416 0.087156
vn -0.704416 -0.704416 0.087156
vn -0.704416 -0.704416 0.087156
vn -0.707108 0.707105 -0.000000
vn -0.707108 0.707105 -0.000000
vn -0.707108 0.707105 -0.000000
vn -0.707108 0.707105 -0.000000
vn -0.707108 0.707105 -0.000000
vn 0.257832 0.962251 -0.087157
vn 0.257832 0.962251 -0.087157
vn 0.257832 0.962251 -0.087157
vn 0.257832 0.962251 -0.087157
vn 0.257832 0.962251 -0.087157
vn 0.965926 -0.258817 0.000000
vn 0.965926 -0.258817 0.000000
vn 0.965926 -0.258817 0.000000
vn 0.965926 -0.258817 0.000000
vn 0.965926 -0.258817 0.000000
vn 0.965926 -0.258817 0.000000
vn -0.257834 -0.962250 0.087157
vn -0.257834 -0.962250 0.087157
vn -0.257834 -0.962250 0.087157
vn -0.257834 -0.962250 0.087157
vn -0.257834 -0.962250 0.087157
vn -0.965926 0.258818 -0.000000
vn -0.965926 0.258818 -0.000000
vn -0.965926 0.258818 -0.000000
vn -0.965926 0.258818 -0.000000
vn -0.965926 0.258818 -0.000000
vn -0.965926 0.258818 -0.000000
vn -0.257838 0.962249 -0.087158
vn -0.257838 0.962249 -0.087158
vn -0.257838 0.962249 -0.087158
vn -0.257838 0.962249 -0.087158
vn -0.257838 0.962249 -0.087158
vn 0.965925 0.258822 -0.000000
vn 0.965925 0.258822 -0.000000
vn 0.965925 0.258822 -0.000000
vn 0.965925 0.258822 -0.000000
vn 0.965925 0.258822 -0.000000
vn 0.257836 -0.962250 0.087156
vn 0.257836 -0.962250 0.087156
vn 0.257836 -0.962250 0.087156
vn 0.257836 -0.962250 0.087156
vn 0.257836 -0.962250 0.087156
vn -0.965925 -0.258822 0.000000
vn -0.965925 -0.258822 0.000000
vn -0.965925 -0.258822 0.000000
vn -0.965925 -0.258822 0.000000
vn -0.965925 -0.258822 0.000000
vn -0.704417 0.704415 -0.087158
vn -0.704417 0.704415 -0.087158
vn -0.704417 0.704415 -0.087158
vn -0.704417 0.704415 -0.087158
vn -0.704417 0.704415 -0.087158
vn 0.707105 0.707108 -0.000000
vn 0.707105 0.707108 -0.000000
vn 0.707105 0.707108 -0.000000
vn 0.707105 0.707108 -0.000000
vn 0.707105 0.707108 -0.000000
vn 0.707105 0.707108 -0.000000
vn 0.704419 -0.704413 0.087158
vn 0.704419 -0.704413 0.087158
vn 0.704419 -0.704413 0.087158
vn 0.704419 -0.704413 0.087158
vn 0.704419 -0.704413 0.087158
vn -0.707105 -0.707108 0.000000
vn -0.707105 -0.707108 0.000000
vn -0.707105 -0.707108 0.000000
vn -0.707105 -0.707108 0.000000
vn -0.707105 -0.707108 0.000000
vn -0.707105 -0.707108 0.000000
vn -0.962251 0.257831 -0.087157
vn -0.962251 0.257831 -0.087157
vn -0.962251 0.257831 -0.087157
vn -0.962251 0.257831 -0.087157
vn -0.962251 0.257831 -0.087157
vn 0.258816 0.965927 -0.000001
vn 0.258816 0.965927 -0.000001
vn 0.258816 0.965927 -0.000001
vn 0.258816 0.965927 -0.000001
vn 0.258816 0.965927 -0.000001
vn 0.962251 -0.257831 0.087158
vn 0.962251 -0.257831 0.087158
vn 0.962251 -0.257831 0.087158
vn 0.962251 -0.257831 0.087158
vn 0.962251 -0.257831 0.087158
vn -0.258817 -0.965926 0.000001
vn -0.258817 -0.965926 0.000001
vn -0.258817 -0.965926 0.000001
vn -0.258817 -0.965926 0.000001
vn -0.258817 -0.965926 0.000001
vn -0.966583 0.000000 0.256354
vn -0.837085 0.483292 0.256354
vn -0.762059 0.439975 0.475066
vn -0.879950 0.000000 0.475066
vn -0.879950 0.000000 0.475066
vn -0.762059 0.439975 0.475066
vn -0.525896 0.303627 0.794509
vn -0.607252 0.000000 0.794509
vn -0.837085 0.483292 0.256354
vn -0.483292 0.837086 0.256353
vn -0.439975 0.762059 0.475066
vn -0.762059 0.439975 0.475066
vn -0.762059 0.439975 0.475066
vn -0.439975 0.762059 0.475066
vn -0.303626 0.525896 0.794509
vn -0.525896 0.303627 0.794509
vn -0.483292 0.837086 0.256353
vn 0.000000 0.966583 0.256353
vn 0.000000 0.879950 0.475066
vn -0.439975 0.762059 0.475066
vn -0.439975 0.762059 0.475066
vn 0.000000 0.879950 0.475066
vn 0.000000 0.607253 0.794509
vn -0.303626 0.525896 0.794509
vn 0.000000 0.966583 0.256353
vn 0.483292 0.837086 0.256353
vn 0.439975 0.762059 0.475066
vn 0.000000 0.879950 0.475066
vn 0.000000 0.879950 0.475066
vn 0.439975 0.762059 0.475066
vn 0.303626 0.525896 0.794509
vn 0.000000 0.607253 0.794509
vn 0.483292 0.837086 0.256353
vn 0.837086 0.483292 0.256353
vn 0.762059 0.439975 0.475066
vn 0.439975 0.762059 0.475066
vn 0.439975 0.762059 0.475066
vn 0.762059 0.439975 0.475066
vn 0.525896 0.303626 0.794509
vn 0.303626 0.525896 0.794509
vn 0.837086 0.483292 0.256353
vn 0.966583 0.000000 0.256353
vn 0.879950 0.000000 0.475066
vn 0.762059 0.439975 0.475066
vn 0.762059 0.439975 0.475066
vn 0.879950 0.000000 0.475066
vn 0.607252 0.000000 0.794509
vn 0.525896 0.303626 0.794509
vn 0.966583 0.000000 0.256353
vn 0.837086 -0.483291 0.256354
vn 0.762059 -0.439975 0.475067
vn 0.879950 0.000000 0.475066
vn 0.879950 0.000000 0.475066
vn 0.762059 -0.439975 0.475067
vn 0.525896 -0.303626 0.794509
vn 0.607252 0.000000 0.794509
vn 0.837086 -0.483291 0.256354
vn 0.483292 -0.837085 0.256354
vn 0.439975 -0.762059 0.475067
vn 0.762059 -0.439975 0.475067
vn 0.762059 -0.439975 0.475067
vn 0.439975 -0.762059 0.475067
vn 0.303626 -0.525895 0.794510
vn 0.525896 -0.303626 0.794509
vn 0.483292 -0.837085 0.256354
vn 0.000000 -0.966583 0.256354
vn 0.000000 -0.879950 0.475067
vn 0.439975 -0.762059 0.475067
vn 0.439975 -0.762059 0.475067
vn 0.000000 -0.879950 0.475067
vn 0.000000 -0.607252 0.794510
vn 0.303626 -0.525895 0.794510
vn 0.000000 -0.966583 0.256354
vn -0.483292 -0.837085 0.256354
vn -0.439975 -0.762059 0.475067
vn 0.000000 -0.879950 0.475067
vn 0.000000 -0.879950 0.475067
vn -0.439975 -0.762059 0.475067
vn -0.303626 -0.525895 0.794509
vn 0.000000 -0.607252 0.794510
vn -0.483292 -0.837085 0.256354
vn -0.837086 -0.483291 0.256354
vn -0.762059 -0.439975 0.475067
vn -0.439975 -0.762059 0.475067
vn -0.439975 -0.762059 0.475067
vn -0.762059 -0.439975 0.475067
vn -0.525896 -0.303626 0.794509
vn -0.303626 -0.525895 0.794509
vn -0.837086 -0.483291 0.256354
vn -0.966583 0.000000 0.256354
vn -0.879950 0.000000 0.475066
vn -0.762059 -0.439975 0.475067
vn -0.762059 -0.439975 0.475067
vn -0.879950 0.000000 0.475066
vn -0.607252 0.000000 0.794509
vn -0.525896 -0.303626 0.794509
vn 0.866025 0.500000 -0.000000
vn 1.000000 0.000000 0.000000
vn 0.866025 0.500000 -0.000000
vn 0.500000 0.866025 -0.000001
vn 0.500000 0.866025 -0.000001
vn 0.000000 1.000000 -0.000001
vn 0.000000 1.000000 -0.000001
vn -0.500001 0.866025 -0.000001
vn -0.500001 0.866025 -0.000001
vn -0.866026 0.500000 -0.000000
vn -0.866026 0.500000 -0.000000
vn -1.000000 0.000000 0.000000
vn -1.000000 0.000000 0.000000
vn -0.866025 -0.500000 0.000000
vn 1.000000 0.000000 0.000000
vn 1.000000 0.000000 0.000000
vn 0.866025 -0.500000 0.000000
vn 0.866025 -0.500000 0.000000
vn 0.500000 -0.866025 0.000001
vn 0.500000 -0.866025 0.000001
vn 0.000000 -1.000000 0.000001
vn 0.000000 -1.000000 0.000001
vn -0.500000 -0.866026 0.000001
vn -0.500000 -0.866026 0.000001
vn -0.866025 -0.500000 0.000000
vn -1.000000 0.000000 0.000000
vn 0.124035 0.000001 0.992278
vn 0.124035 0.000001 0.992278
vn 0.107417 0.062018 0.992278
vn 0.107417 -0.062017 0.992278
vn 0.124035 0.000001 0.992278
vn 0.107417 -0.062017 0.992278
vn 0.062017 -0.107417 0.992278
vn 0.062017 -0.107417 0.992278
vn 0.000000 -0.124034 0.992278
vn 0.000000 -0.124034 0.992278
vn -0.062017 -0.107417 0.992278
vn -0.062017 -0.107417 0.992278
vn -0.107417 -0.062017 0.992278
vn -0.107417 -0.062017 0.992278
vn -0.124035 0.000001 0.992278
vn -0.124035 0.000001 0.992278
vn -0.124035 0.000001 0.992278
vn 0.124035 0.000001 0.992278
vn 0.107417 0.062018 0.992278
vn 0.062017 0.107418 0.992278
vn 0.062017 0.107418 0.992278
vn 0.000000 0.124035 0.992278
vn 0.000000 0.124035 0.992278
vn -0.062017 0.107418 0.992278
vn -0.062017 0.107418 0.992278
vn -0.107417 0.062018 0.992278
vn -0.107417 0.062018 0.992278
vn -0.124035 0.000001 0.992278
vn 0.084185 0.022557 -0.996195
vn 0.084185 0.022557 -0.996195
vn 0.084185 0.022557 -0.996195
vn 0.084185 0.022557 -0.996195
vn 0.061628 0.061627 -0.996195
vn 0.061628 0.061627 -0.996195
vn 0.061628 0.061627 -0.996195
vn 0.061628 0.061627 -0.996195
vn 0.022557 0.084185 -0.996195
vn 0.022557 0.084185 -0.996195
vn 0.022557 0.084185 -0.996195
vn 0.022557 0.084185 -0.996195
vn -0.022557 0.084185 -0.996195
vn -0.022557 0.084185 -0.996195
vn -0.022557 0.084185 -0.996195
vn -0.022557 0.084185 -0.996195
vn -0.061628 0.061627 -0.996195
vn -0.061628 0.061627 -0.996195
vn -0.061628 0.061627 -0.996195
vn -0.061628 0.061627 -0.996195
vn -0.084185 0.022557 -0.996195
vn -0.084185 0.022557 -0.996195
vn -0.084185 0.022557 -0.996195
vn -0.084185 0.022557 -0.996195
vn -0.084185 -0.022558 -0.996195
vn -0.084185 -0.022558 -0.996195
vn -0.084185 -0.022558 -0.996195
vn -0.084185 -0.022558 -0.996195
vn -0.061628 -0.061629 -0.996195
vn -0.061628 -0.061629 -0.996195
vn -0.061628 -0.061629 -0.996195
vn -0.061628 -0.061629 -0.996195
vn -0.022557 -0.084186 -0.996195
vn -0.022557 -0.084186 -0.996195
vn -0.022557 -0.084186 -0.996195
vn -0.022557 -0.084186 -0.996195
vn 0.022558 -0.084186 -0.996195
vn 0.022558 -0.084186 -0.996195
vn 0.022558 -0.084186 -0.996195
vn 0.022558 -0.084186 -0.996195
vn 0.061628 -0.061628 -0.996195
vn 0.061628 -0.061628 -0.996195
vn 0.061628 -0.061628 -0.996195
vn 0.061628 -0.061628 -0.996195
vn 0.084185 -0.022558 -0.996195
vn 0.084185 -0.022558 -0.996195
vn 0.084185 -0.022558 -0.996195
vn 0.084185 -0.022558 -0.996195
vn -0.107417 0.062017 -0.992278
vn -0.024845 0.043032 -0.998765
vn -0.062017 0.107417 -0.992278
vn -0.053798 0.031060 -0.998069
vn -0.124035 -0.000001 -0.992278
vn -0.082817 -0.000001 -0.996565
vn -0.107417 -0.062018 -0.992278
vn -0.043032 -0.024845 -0.998765
vn -0.062017 -0.107418 -0.992278
vn -0.024845 -0.043033 -0.998765
vn 0.000000 -0.124035 -0.992278
vn 0.000000 0.049689 -0.998765
vn 0.000000 0.124034 -0.992278
vn 0.000000 -0.049690 -0.998765
vn 0.062017 -0.107418 -0.992278
vn 0.024845 0.043032 -0.998765
vn 0.062017 0.107417 -0.992278
vn 0.024845 -0.043033 -0.998765
vn 0.107417 -0.062018 -0.992278
vn 0.043032 0.024844 -0.998765
vn 0.107417 0.062017 -0.992278
vn 0.053798 -0.031061 -0.998069
vn 0.124035 -0.000001 -0.992278
vn 0.082817 -0.000001 -0.996565
f 3/3/3 2/2/2 1/1/1
f 2/2/2 5/5/5 4/4/4
f 6/6/6 2/2/2 4/4/4
f 9/9/9 8/8/8 7/7/7
f 8/8/8 11/11/11 10/10/10
f 12/12/12 8/8/8 10/10/10
f 15/15/15 14/14/14 13/13/13
f 14/14/14 17/17/17 16/16/16
f 18/18/18 14/14/14 16/16/16
f 21/21/21 20/20/20 19/19/19
f 20/20/20 23/23/23 22/22/22
f 24/24/24 20/20/20 22/22/22
f 27/27/27 26/26/26 25/25/25
f 26/26/26 29/29/29 28/28/28
f 30/30/30 26/26/26 28/28/28
f 33/33/33 32/32/32 31/31/31
f 32/32/32 35/35/35 34/34/34
f 36/36/36 32/32/32 34/34/34
f 39/39/39 38/38/38 37/37/37
f 38/38/38 41/41/41 40/40/40
f 42/42/42 38/38/38 40/40/40
f 45/45/45 44/44/44 43/43/43
f 44/44/44 47/47/47 46/46/46
f 48/48/48 44/44/44 46/46/46
f 51/51/51 50/50/50 49/49/49
f 50/50/50 53/53/53 52/52/52
f 54/54/54 50/50/50 52/52/52
f 57/57/57 56/56/56 55/55/55
f 56/56/56 59/59/59 58/58/58
f 60/60/60 56/56/56 58/58/58
f 63/63/63 62/62/62 61/61/61
f 62/62/62 65/65/65 64/64/64
f 66/66/66 62/62/62 64/64/64
f 69/69/69 68/68/68 67/67/67
f 68/68/68 71/71/71 70/70/70
f 72/72/72 68/68/68 70/70/70
f 75/75/75 74/74/74 73/73/73
f 77/77/77 75/75/75 76/76/76
f 80/80/80 79/79/79 78/78/78
f 82/82/82 80/80/80 81/81/81
f 85/85/85 84/84/84 83/83/83
f 87/87/87 85/85/85 86/86/86
f 90/90/90 89/89/89 88/88/88
f 92/92/92 90/90/90 91/91/91
f 95/95/95 94/94/94 93/93/93
f 97/97/97 95/95/95 96/96/96
f 100/100/100 99/99/99 98/98/98
f 102/102/102 100/100/100 101/101/101
f 105/105/105 104/104/104 103/103/103
f 107/107/107 105/105/105 106/106/106
f 110/110/110 109/109/109 108/108/108
f 112/112/112 110/110/110 111/111/111
f 115/115/115 114/114/114 113/113/113
f 117/117/117 115/115/115 116/116/116
f 120/120/120 119/119/119 118/118/118
f 123/123/123 122/122/122 121/121/121
f 126/126/126 125/125/125 124/124/124
f 128/128/128 126/126/126 127/127/127
f 131/131/131 130/130/130 129/129/129
f 134/134/134 133/133/133 132/132/132
f 137/137/137 136/136/136 135/135/135
f 139/139/139 137/137/137 138/138/138
f 142/142/142 141/141/141 140/140/140
f 144/144/144 142/142/142 143/143/143
f 147/147/147 146/146/146 145/145/145
f 149/149/149 147/147/147 148/148/148
f 152/152/152 151/151/151 150/150/150
f 154/154/154 152/152/152 153/153/153
f 157/157/157 156/156/156 155/155/155
f 159/159/159 157/157/157 158/158/158
f 162/162/162 161/161/161 160/160/160
f 165/165/165 164/164/164 163/163/163
f 168/168/168 167/167/167 166/166/166
f 170/170/170 168/168/168 169/169/169
f 173/173/173 172/172/172 171/171/171
f 176/176/176 175/175/175 174/174/174
f 179/179/179 178/178/178 177/177/177
f 181/181/181 179/179/179 180/180/180
f 184/184/184 183/183/183 182/182/182
f 186/186/186 184/184/184 185/185/185
f 189/189/189 188/188/188 187/187/187
f 191/191/191 189/189/189 190/190/190
f 194/194/194 193/193/193 192/192/192
f 196/196/196 194/194/194 195/195/195
f 199/199/199 198/198/198 197/197/197
f 201/201/201 199/199/199 200/200/200
f 204/204/204 203/203/203 202/202/202
f 206/206/206 204/204/204 205/205/205
f 209/209/209 208/208/208 207/207/207
f 211/211/211 209/209/209 210/210/210
f 214/214/214 213/213/213 212/212/212
f 216/216/216 214/214/214 215/215/215
f 219/219/219 218/218/218 217/217/217
f 221/221/221 219/219/219 220/220/220
f 224/224/224 223/223/223 222/222/222
f 226/226/226 224/224/224 225/225/225
f 229/229/229 228/228/228 227/227/227
f 231/231/231 229/229/229 230/230/230
f 234/234/234 233/233/233 232/232/232
f 236/236/236 234/234/234 235/235/235
f 239/239/239 238/238/238 237/237/237
f 241/241/241 239/239/239 240/240/240
f 244/244/244 243/243/243 242/242/242
f 247/247/247 246/246/246 245/245/245
f 250/250/250 249/249/249 248/248/248
f 252/252/252 250/250/250 251/251/251
f 255/255/255 254/254/254 253/253/253
f 258/258/258 257/257/257 256/256/256
f 261/261/261 260/260/260 259/259/259
f 263/263/263 261/261/261 262/262/262
f 266/266/266 265/265/265 264/264/264
f 268/268/268 266/266/266 267/267/267
f 271/271/271 270/270/270 269/269/269
f 273/273/273 271/271/271 272/272/272
f 276/276/276 275/275/275 274/274/274
f 278/278/278 276/276/276 277/277/277
f 281/281/281 280/280/280 279/279/279
f 283/283/283 281/281/281 282/282/282
f 286/286/286 285/285/285 284/284/284
f 289/289/289 288/288/288 287/287/287
f 292/292/292 291/291/291 290/290/290
f 294/294/294 292/292/292 293/293/293
f 297/297/297 296/296/296 295/295/295
f 300/300/300 299/299/299 298/298/298
f 303/303/303 302/302/302 301/301/301
f 305/305/305 303/303/303 304/304/304
f 308/308/308 307/307/307 306/306/306
f 310/310/310 308/308/308 309/309/309
f 313/313/313 312/312/312 311/311/311
f 315/315/315 313/313/313 314/314/314
f 318/318/318 317/317/317 316/316/316
f 320/320/320 318/318/318 319/319/319
f 323/323/323 322/322/322 321/321/321
f 324/324/324 323/323/323 321/321/321
f 327/327/327 326/326/326 325/325/325
f 328/328/328 327/327/327 325/325/325
f 331/331/331 330/330/330 329/329/329
f 332/332/332 331/331/331 329/329/329
f 335/335/335 334/334/334 333/333/333
f 336/336/336 335/335/335 333/333/333
f 339/339/339 338/338/338 337/337/337
f 340/340/340 339/339/339 337/337/337
f 343/343/343 342/342/342 341/341/341
f 344/344/344 343/343/343 341/341/341
f 347/347/347 346/346/346 345/345/345
f 348/348/348 347/347/347 345/345/345
f 351/351/351 350/350/350 349/349/349
f 352/352/352 351/351/351 349/349/349
f 355/355/355 354/354/354 353/353/353
f 356/356/356 355/355/355 353/353/353
f 359/359/359 358/358/358 357/357/357
f 360/360/360 359/359/359 357/357/357
f 363/363/363 362/362/362 361/361/361
f 364/364/364 363/363/363 361/361/361
f 367/367/367 366/366/366 365/365/365
f 368/368/368 367/367/367 365/365/365
f 371/371/371 370/370/370 369/369/369
f 372/372/372 371/371/371 369/369/369
f 375/375/375 374/374/374 373/373/373
f 376/376/376 375/375/375 373/373/373
f 379/379/379 378/378/378 377/377/377
f 380/380/380 379/379/379 377/377/377
f 383/383/383 382/382/382 381/381/381
f 384/384/384 383/383/383 381/381/381
f 387/387/387 386/386/386 385/385/385
f 388/388/388 387/387/387 385/385/385
f 391/391/391 390/390/390 389/389/389
f 392/392/392 391/391/391 389/389/389
f 395/395/395 394/394/394 393/393/393
f 396/396/396 395/395/395 393/393/393
f 399/399/399 398/398/398 397/397/397
f 400/400/400 399/399/399 397/397/397
f 403/403/403 402/402/402 401/401/401
f 404/404/404 403/403/403 401/401/401
f 407/407/407 406/406/406 405/405/405
f 408/408/408 407/407/407 405/405/405
f 411/411/411 410/410/410 409/409/409
f 412/412/412 411/411/411 409/409/409
f 415/415/415 414/414/414 413/413/413
f 416/416/416 415/415/415 413/413/413
f 419/419/419 418/418/418 417/417/417
f 419/419/419 417/417/417 420/420/420
f 421/421/421 419/419/419 420/420/420
f 421/421/421 420/420/420 422/422/422
f 423/423/423 421/421/421 422/422/422
f 423/423/423 422/422/422 424/424/424
f 425/425/425 423/423/423 424/424/424
f 425/425/425 424/424/424 426/426/426
f 427/427/427 425/425/425 426/426/426
f 427/427/427 426/426/426 428/428/428
f 429/429/429 427/427/427 428/428/428
f 429/429/429 428/428/428 430/430/430
f 432/432/432 431/431/431 417/417/417
f 432/432/432 433/433/433 431/431/431
f 433/433/433 434/434/434 431/431/431
f 433/433/433 435/435/435 434/434/434
f 435/435/435 436/436/436 434/434/434
f 435/435/435 437/437/437 436/436/436
f 437/437/437 438/438/438 436/436/436
f 437/437/437 439/439/439 438/438/438
f 439/439/439 440/440/440 438/438/438
f 439/439/439 441/441/441 440/440/440
f 441/441/441 430/430/430 440/440/440
f 441/441/441 442/442/442 430/430/430
f 445/445/445 444/444/444 443/443/443
f 447/447/447 444/444/444 446/446/446
f 444/444/444 448/448/448 446/446/446
f 446/446/446 448/448/448 449/449/449
f 448/448/448 450/450/450 449/449/449
f 449/449/449 450/450/450 451/451/451
f 450/450/450 452/452/452 451/451/451
f 451/451/451 452/452/452 453/453/453
f 452/452/452 454/454/454 453/453/453
f 453/453/453 454/454/454 455/455/455
f 454/454/454 456/456/456 455/455/455
f 455/455/455 456/456/456 457/457/457
f 456/456/456 459/459/459 458/458/458
f 461/461/461 445/445/445 460/460/460
f 462/462/462 445/445/445 461/461/461
f 463/463/463 462/462/462 461/461/461
f 464/464/464 462/462/462 463/463/463
f 465/465/465 464/464/464 463/463/463
f 466/466/466 464/464/464 465/465/465
f 467/467/467 466/466/466 465/465/465
f 468/468/468 466/466/466 467/467/467
f 469/469/469 468/468/468 467/467/467
f 459/459/459 468/468/468 469/469/469
f 470/470/470 459/459/459 469/469/469
f 473/473/473 472/472/472 471/471/471
f 474/474/474 473/473/473 471/471/471
f 477/477/477 476/476/476 475/475/475
f 478/478/478 477/477/477 475/475/475
f 481/481/481 480/480/480 479/479/479
f 482/482/482 481/481/481 479/479/479
f 485/485/485 484/484/484 483/483/483
f 486/486/486 485/485/485 483/483/483
f 489/489/489 488/488/488 487/487/487
f 490/490/490 489/489/489 487/487/487
f 493/493/493 492/492/492 491/491/491
f 494/494/494 493/493/493 491/491/491
f 497/497/497 496/496/496 495/495/495
f 498/498/498 497/497/497 495/495/495
f 501/501/501 500/500/500 499/499/499
f 502/502/502 501/501/501 499/499/499
f 505/505/505 504/504/504 503/503/503
f 506/506/506 505/505/505 503/503/503
f 509/509/509 508/508/508 507/507/507
f 510/510/510 509/509/509 507/507/507
f 513/513/513 512/512/512 511/511/511
f 514/514/514 513/513/513 511/511/511
f 517/517/517 516/516/516 515/515/515
f 518/518/518 517/517/517 515/515/515
f 521/521/521 520/520/520 519/519/519
f 520/520/520 522/522/522 519/519/519
f 519/519/519 522/522/522 523/523/523
f 522/522/522 524/524/524 523/523/523
f 523/523/523 524/524/524 525/525/525
f 526/526/526 524/524/524 522/522/522
f 524/524/524 526/526/526 525/525/525
f 526/526/526 522/522/522 520/520/520
f 525/525/525 526/526/526 527/527/527
f 526/526/526 528/528/528 527/527/527
f 528/528/528 526/526/526 520/520/520
f 527/527/527 528/528/528 529/529/529
f 530/530/530 520/520/520 521/521/521
f 528/528/528 520/520/520 530/530/530
f 531/531/531 530/530/530 521/521/521
f 528/528/528 532/532/532 529/529/529
f 532/532/532 528/528/528 530/530/530
f 529/529/529 532/532/532 533/533/533
f 534/534/534 530/530/530 531/531/531
f 532/532/532 530/530/530 534/534/534
f 535/535/535 534/534/534 531/531/531
f 532/532/532 536/536/536 533/533/533
f 536/536/536 532/532/532 534/534/534
f 533/533/533 536/536/536 537/537/537
f 538/538/538 534/534/534 535/535/535
f 536/536/536 534/534/534 538/538/538
f 539/539/539 538/538/538 535/535/535
f 536/536/536 540/540/540 537/537/537
f 540/540/540 536/536/536 538/538/538
f 537/537/537 540/540/540 541/541/541
f 542/542/542 538/538/538 539/539/539
f 541/541/541 542/542/542 539/539/539
f 540/540/540 542/542/542 541/541/541
f 538/538/538 542/542/542 540/540/540
