g Model_0
v 1.62379754 -0.9375 2.75000024
v -1.1920929E-07 -2.48352706E-07 3.04999995
v 1.87499988 1.48987169E-08 2.75000024
v -1.87500012 -7.74852992E-07 2.65000033
v -1.1920929E-07 -2.48352706E-07 2.95000005
v -1.62379837 0.937499166 2.65000033
v -1.6237973 -0.937500477 2.65000033
v -1.1920929E-07 -2.48352706E-07 2.95000005
v -1.87500012 -7.74852992E-07 2.65000033
v 1.87499988 1.48987169E-08 2.75000024
v -1.1920929E-07 -2.48352706E-07 3.04999995
v 1.62379754 0.9375 2.75000024
v 1.62379754 0.9375 2.75000024
v -1.1920929E-07 -2.48352706E-07 3.04999995
v 0.93750006 1.62379766 2.75000024
v -0.937499523 -1.62379777 2.65000033
v -1.1920929E-07 -2.48352706E-07 2.95000005
v -1.6237973 -0.937500477 2.65000033
v 1.36594025E-08 1.875 2.75000024
v -1.1920929E-07 -2.48352706E-07 3.04999995
v -0.937501013 1.62379694 2.75000024
v 0.93750006 1.62379766 2.75000024
v -1.1920929E-07 -2.48352706E-07 3.04999995
v 1.36594025E-08 1.875 2.75000024
v 2.96776477E-07 -1.875 2.65000033
v -1.1920929E-07 -2.48352706E-07 2.95000005
v -0.937499523 -1.62379777 2.65000033
v -0.937501013 1.62379694 2.75000024
v -1.1920929E-07 -2.48352706E-07 3.04999995
v -1.62379837 0.937499166 2.75000024
v 0.937500179 -1.62379766 2.65000033
v -1.1920929E-07 -2.48352706E-07 2.95000005
v 2.96776477E-07 -1.875 2.65000033
v -1.62379837 0.937499166 2.75000024
v -1.1920929E-07 -2.48352706E-07 3.04999995
v -1.87500012 -7.74852992E-07 2.75000024
v 1.62379754 -0.9375 2.65000033
v -1.1920929E-07 -2.48352706E-07 2.95000005
v 0.937500179 -1.62379766 2.65000033
v -1.87500012 -7.74852992E-07 2.75000024
v -1.1920929E-07 -2.48352706E-07 3.04999995
v -1.6237973 -0.937500477 2.75000024
v 1.87499988 1.48987169E-08 2.65000033
v -1.1920929E-07 -2.48352706E-07 2.95000005
v 1.62379754 -0.9375 2.65000033
v 1.62379754 0.9375 2.65000033
v -1.1920929E-07 -2.48352706E-07 2.95000005
v 1.87499988 1.48987169E-08 2.65000033
v -1.6237973 -0.937500477 2.75000024
v -1.1920929E-07 -2.48352706E-07 3.04999995
v -0.937499523 -1.62379777 2.75000024
v 0.93750006 1.62379766 2.65000033
v -1.1920929E-07 -2.48352706E-07 2.95000005
v 1.62379754 0.9375 2.65000033
v -0.937501013 1.62379694 2.65000033
v -1.1920929E-07 -2.48352706E-07 2.95000005
v 1.36594025E-08 1.875 2.65000033
v 1.36594025E-08 1.875 2.65000033
v -1.1920929E-07 -2.48352706E-07 2.95000005
v 0.93750006 1.62379766 2.65000033
v 2.96776477E-07 -1.875 2.75000024
v -1.1920929E-07 -2.48352706E-07 3.04999995
v 0.937500179 -1.62379766 2.75000024
v -1.62379837 0.937499166 2.65000033
v -1.1920929E-07 -2.48352706E-07 2.95000005
v -0.937501013 1.62379694 2.65000033
v 0.937500179 -1.62379766 2.75000024
v -1.1920929E-07 -2.48352706E-07 3.04999995
v 1.62379754 -0.9375 2.75000024
v -0.937499523 -1.62379777 2.75000024
v -1.1920929E-07 -2.48352706E-07 3.04999995
v 2.96776477E-07 -1.875 2.75000024
v 0.0625 0.0624999627 0
v -0.0624999963 0.0624999925 0
v -0.0625000149 -0.0625000075 0
v 0.0625 0.0624999627 0
v -0.0625000149 -0.0625000075 0
v 0.0625 -0.0625000224 0
v 1.36594025E-08 1.875 2.65000033
v 0.93750006 1.62379766 2.65000033
v 0.93750006 1.62379766 2.75000024
v 1.36594025E-08 1.875 2.75000024
v 0.93750006 1.62379766 2.65000033
v 1.62379754 0.9375 2.65000033
v 1.62379754 0.9375 2.75000024
v 0.93750006 1.62379766 2.75000024
v 1.62379754 0.9375 2.65000033
v 1.87499988 1.48987169E-08 2.65000033
v 1.87499988 1.48987169E-08 2.75000024
v 1.62379754 0.9375 2.75000024
v 1.87499988 1.48987169E-08 2.65000033
v 1.62379754 -0.9375 2.65000033
v 1.62379754 -0.9375 2.75000024
v 1.87499988 1.48987169E-08 2.75000024
v 1.62379754 -0.9375 2.65000033
v 0.937500179 -1.62379766 2.65000033
v 0.937500179 -1.62379766 2.75000024
v 1.62379754 -0.9375 2.75000024
v 0.937500179 -1.62379766 2.65000033
v 2.96776477E-07 -1.875 2.65000033
v 2.96776477E-07 -1.875 2.75000024
v 0.937500179 -1.62379766 2.75000024
v 2.96776477E-07 -1.875 2.65000033
v -0.937499523 -1.62379777 2.65000033
v -0.937499523 -1.62379777 2.75000024
v 2.96776477E-07 -1.875 2.75000024
v -0.937499523 -1.62379777 2.65000033
v -1.6237973 -0.937500477 2.65000033
v -1.6237973 -0.937500477 2.75000024
v -0.937499523 -1.62379777 2.75000024
v -1.6237973 -0.937500477 2.65000033
v -1.87500012 -7.74852992E-07 2.65000033
v -1.87500012 -7.74852992E-07 2.75000024
v -1.6237973 -0.937500477 2.75000024
v -1.87500012 -7.74852992E-07 2.65000033
v -1.62379837 0.937499166 2.65000033
v -1.62379837 0.937499166 2.75000024
v -1.87500012 -7.74852992E-07 2.75000024
v -0.937501013 1.62379694 2.65000033
v 1.36594025E-08 1.875 2.65000033
v 1.36594025E-08 1.875 2.75000024
v -0.937501013 1.62379694 2.75000024
v -1.62379837 0.937499166 2.65000033
v -0.937501013 1.62379694 2.65000033
v -0.937501013 1.62379694 2.75000024
v -1.62379837 0.937499166 2.75000024
v 0.0625 0.0624999627 0
v 0.0625 -0.0625000224 0
v 0.0624999441 -0.0625000671 3
v 0.0625000298 0.0624999329 3
v 0.0625 -0.0625000224 0
v -0.0625000149 -0.0625000075 0
v -0.0625000298 -0.0625000075 3
v 0.0624999441 -0.0625000671 3
v -0.0625000149 -0.0625000075 0
v -0.0624999963 0.0624999925 0
v -0.0625 0.0624999776 3
v -0.0625000298 -0.0625000075 3
v 0.0625000298 0.0624999329 3
v -0.0625 0.0624999776 3
v -0.0624999963 0.0624999925 0
v 0.0625 0.0624999627 0
vt -0.925112069 0.584372878
vt 2.45913291 0.730103374
vt -0.928840816 0.877860427
vt -0.928840816 0.877860427
vt 2.45913291 0.730103374
vt -0.925112069 0.584372878
vt -0.928840816 0.877860427
vt 2.45913291 0.730103374
vt -0.925112069 0.584372878
vt -0.925112009 0.584372997
vt 2.45913291 0.730103374
vt -0.928840816 0.877860427
vt -0.925112069 0.584373116
vt 2.45913291 0.730103433
vt -0.928840697 0.877860427
vt -0.928840816 0.877860427
vt 2.45913291 0.730103374
vt -0.925112069 0.584372878
vt -0.925112069 0.584372878
vt 2.45913291 0.730103374
vt -0.928840756 0.877860427
vt -0.925112128 0.584372878
vt 2.45913291 0.730103254
vt -0.928840697 0.877860427
vt -0.928840816 0.877860427
vt 2.45913291 0.730103374
vt -0.925112069 0.584372878
vt -0.928840816 0.877860427
vt 2.45913291 0.730103374
vt -0.925112069 0.584372997
vt -0.928840816 0.877860427
vt 2.45913291 0.730103374
vt -0.925112069 0.584372878
vt -0.928840816 0.877860427
vt 2.45913291 0.730103374
vt -0.925112069 0.584372878
vt -0.925112069 0.584372878
vt 2.45913291 0.730103374
vt -0.928840816 0.877860427
vt -0.928840816 0.877860427
vt 2.45913291 0.730103374
vt -0.925112069 0.584372878
vt -0.928840816 0.877860427
vt 2.45913291 0.730103374
vt -0.925112069 0.584372878
vt -0.925112009 0.584372878
vt 2.45913291 0.730103254
vt -0.928840637 0.877860546
vt -0.928840816 0.877860427
vt 2.45913291 0.730103374
vt -0.925112069 0.584372878
vt -0.928840697 0.877860487
vt 2.45913291 0.730103254
vt -0.925112009 0.584372878
vt -0.928840816 0.877860367
vt 2.45913291 0.730103195
vt -0.925112069 0.584372878
vt -0.928840637 0.877860546
vt 2.45913291 0.730103493
vt -0.925112009 0.584372759
vt -0.928840816 0.877860427
vt 2.45913291 0.730103374
vt -0.925112069 0.584372878
vt -0.928840697 0.877860427
vt 2.45913291 0.730103195
vt -0.925112069 0.584372878
vt -0.925112069 0.584372878
vt 2.45913291 0.730103374
vt -0.928840816 0.877860427
vt -0.928840816 0.877860427
vt 2.45913291 0.730103374
vt -0.925112069 0.584372878
vt 0.298206687 0.257199258
vt 0.298477948 0.256792367
vt 0.298206687 0.256792367
vt 0.298206687 0.257199258
vt 0.298206687 0.256792367
vt 0.270808488 0.256792367
vt 0.167228758 0.72800982
vt 0.167228758 0.788498998
vt 0.227717936 0.788498998
vt 0.227717936 0.72800982
vt 0.167228758 0.72800982
vt 0.167228758 0.788498998
vt 0.227717936 0.788498998
vt 0.227717936 0.72800982
vt 0.167228758 0.72800982
vt 0.167228758 0.788498998
vt 0.227717936 0.788498998
vt 0.227717936 0.72800982
vt 0.167228758 0.72800982
vt 0.167228758 0.788498998
vt 0.227717936 0.788498998
vt 0.227717936 0.72800982
vt 0.167228758 0.72800982
vt 0.167228758 0.788498998
vt 0.227717936 0.788498998
vt 0.227717936 0.72800982
vt 0.167228758 0.72800982
vt 0.167228758 0.788498998
vt 0.227717936 0.788498998
vt 0.227717936 0.72800982
vt 0.167228758 0.72800982
vt 0.167228758 0.788498998
vt 0.227717936 0.788498998
vt 0.227717936 0.72800982
vt 0.167228758 0.72800982
vt 0.167228758 0.788498998
vt 0.227717936 0.788498998
vt 0.227717936 0.72800982
vt 0.167228758 0.72800982
vt 0.167228758 0.788498998
vt 0.227717936 0.788498998
vt 0.227717936 0.72800982
vt 0.167228758 0.72800982
vt 0.167228758 0.788498998
vt 0.227717936 0.788498998
vt 0.227717936 0.72800982
vt 0.167228758 0.72800982
vt 0.167228758 0.788498998
vt 0.227717936 0.788498998
vt 0.227717936 0.72800982
vt 0.167228758 0.72800982
vt 0.167228758 0.788498998
vt 0.227717936 0.788498998
vt 0.227717936 0.72800982
vt 0.357165128 0.24998337
vt 0.384292036 0.249983341
vt 0.384292036 0.209292948
vt 0.357165098 0.209292948
vt 0.384563327 0.249983341
vt 0.411690235 0.249983341
vt 0.411690235 0.209292948
vt 0.384563327 0.209292978
vt 0.411961496 0.209292948
vt 0.411961496 0.249983341
vt 0.439088464 0.249983341
vt 0.439088464 0.209292948
vt 0.384563327 0.250390232
vt 0.384563327 0.291080654
vt 0.411690235 0.291080654
vt 0.411690235 0.250390232
vn 0.136823699 -0.0789951682 0.987440705
vn -0 0 1
vn 0.157990366 0 0.987440705
vn 0.157990366 0 -0.987440705
vn -0 0 -1
vn 0.136823684 -0.0789951086 -0.987440705
vn 0.136823654 0.0789952576 -0.987440705
vn -0 0 -1
vn 0.157990366 0 -0.987440705
vn 0.157990366 0 0.987440705
vn -0 0 1
vn 0.136823669 0.0789951682 0.987440705
vn 0.136823669 0.0789951682 0.987440705
vn -0 0 1
vn 0.0789951757 0.136823654 0.987440705
vn 0.0789951682 0.136823714 -0.987440705
vn -0 0 -1
vn 0.136823654 0.0789952576 -0.987440705
vn -0 0.157990336 0.987440705
vn -0 0 1
vn -0.0789952278 0.136823639 0.987440705
vn 0.0789951757 0.136823654 0.987440705
vn -0 0 1
vn -0 0.157990336 0.987440705
vn -0 0.157990396 -0.987440705
vn -0 0 -1
vn 0.0789951682 0.136823714 -0.987440705
vn -0.0789952278 0.136823639 0.987440705
vn -0 0 1
vn -0.136823684 0.0789951086 0.987440705
vn -0.0789952055 0.136823669 -0.987440705
vn -0 0 -1
vn -0 0.157990396 -0.987440705
vn -0.136823684 0.0789951086 0.987440705
vn -0 0 1
vn -0.157990366 0 0.987440705
vn -0.136823699 0.0789951757 -0.987440705
vn -0 0 -1
vn -0.0789952055 0.136823669 -0.987440705
vn -0.157990366 0 0.987440705
vn -0 0 1
vn -0.136823654 -0.0789952502 0.987440705
vn -0.157990366 0 -0.987440705
vn -0 0 -1
vn -0.136823699 0.0789951757 -0.987440705
vn -0.136823669 -0.0789951682 -0.987440705
vn -0 0 -1
vn -0.157990366 0 -0.987440705
vn -0.136823654 -0.0789952502 0.987440705
vn -0 0 1
vn -0.0789951608 -0.136823714 0.987440705
vn -0.0789951757 -0.136823654 -0.987440705
vn -0 0 -1
vn -0.136823669 -0.0789951682 -0.987440705
vn 0.0789952278 -0.136823639 -0.987440705
vn -0 0 -1
vn -0 -0.157990351 -0.987440705
vn -0 -0.157990351 -0.987440705
vn -0 0 -1
vn -0.0789951757 -0.136823654 -0.987440705
vn -0 -0.157990396 0.987440705
vn -0 0 1
vn 0.078995198 -0.136823669 0.987440705
vn 0.136823684 -0.0789951086 -0.987440705
vn -0 0 -1
vn 0.0789952278 -0.136823639 -0.987440705
vn 0.078995198 -0.136823669 0.987440705
vn -0 0 1
vn 0.136823699 -0.0789951682 0.987440705
vn -0.0789951608 -0.136823714 0.987440705
vn -0 0 1
vn -0 -0.157990396 0.987440705
vn -0 0 -1
vn -0 0 -1
vn -0 0 -1
vn -0 0 -1
vn -0 0 -1
vn -0 0 -1
vn -0 1 0
vn 0.50000006 0.866025448 0
vn 0.50000006 0.866025448 0
vn -0 1 0
vn 0.50000006 0.866025448 0
vn 0.866025448 0.49999997 0
vn 0.866025448 0.49999997 0
vn 0.50000006 0.866025448 0
vn 0.866025448 0.49999997 0
vn 1 0 0
vn 1 0 0
vn 0.866025448 0.49999997 0
vn 1 0 0
vn 0.866025507 -0.499999911 0
vn 0.866025507 -0.499999911 0
vn 1 0 0
vn 0.866025507 -0.499999911 0
vn 0.50000006 -0.866025329 0
vn 0.50000006 -0.866025329 0
vn 0.866025507 -0.499999911 0
vn 0.50000006 -0.866025329 0
vn -0 -1 0
vn -0 -1 0
vn 0.50000006 -0.866025329 0
vn -0 -1 0
vn -0.499999851 -0.866025507 0
vn -0.499999851 -0.866025507 0
vn -0 -1 0
vn -0.499999851 -0.866025507 0
vn -0.866025269 -0.500000417 0
vn -0.866025269 -0.500000417 0
vn -0.499999851 -0.866025507 0
vn -0.866025269 -0.500000417 0
vn -1 0 0
vn -1 0 0
vn -0.866025269 -0.500000417 0
vn -1 0 0
vn -0.866025686 0.499999583 0
vn -0.866025686 0.499999583 0
vn -1 0 0
vn -0.500000298 0.866025269 0
vn -0 1 0
vn -0 1 0
vn -0.500000298 0.866025269 0
vn -0.866025686 0.499999583 0
vn -0.500000298 0.866025269 0
vn -0.500000298 0.866025269 0
vn -0.866025686 0.499999583 0
vn 1 0 0
vn 1 0 0
vn 1 0 0
vn 1 0 0
vn -0 -1 0
vn -0 -1 0
vn -0 -1 0
vn -0 -1 0
vn -1 0 0
vn -1 0 0
vn -1 0 0
vn -1 0 0
vn -0 1 0
vn -0 1 0
vn -0 1 0
vn -0 1 0
g Model_0_0
f 3/3/3 2/2/2 1/1/1
f 6/6/6 5/5/5 4/4/4
f 9/9/9 8/8/8 7/7/7
f 12/12/12 11/11/11 10/10/10
f 15/15/15 14/14/14 13/13/13
f 18/18/18 17/17/17 16/16/16
f 21/21/21 20/20/20 19/19/19
f 24/24/24 23/23/23 22/22/22
f 27/27/27 26/26/26 25/25/25
f 30/30/30 29/29/29 28/28/28
f 33/33/33 32/32/32 31/31/31
f 36/36/36 35/35/35 34/34/34
f 39/39/39 38/38/38 37/37/37
f 42/42/42 41/41/41 40/40/40
f 45/45/45 44/44/44 43/43/43
f 48/48/48 47/47/47 46/46/46
f 51/51/51 50/50/50 49/49/49
f 54/54/54 53/53/53 52/52/52
f 57/57/57 56/56/56 55/55/55
f 60/60/60 59/59/59 58/58/58
f 63/63/63 62/62/62 61/61/61
f 66/66/66 65/65/65 64/64/64
f 69/69/69 68/68/68 67/67/67
f 72/72/72 71/71/71 70/70/70
f 75/75/75 74/74/74 73/73/73
f 78/78/78 77/77/77 76/76/76
f 81/81/81 80/80/80 79/79/79
f 82/82/82 81/81/81 79/79/79
f 85/85/85 84/84/84 83/83/83
f 86/86/86 85/85/85 83/83/83
f 89/89/89 88/88/88 87/87/87
f 90/90/90 89/89/89 87/87/87
f 93/93/93 92/92/92 91/91/91
f 94/94/94 93/93/93 91/91/91
f 97/97/97 96/96/96 95/95/95
f 98/98/98 97/97/97 95/95/95
f 101/101/101 100/100/100 99/99/99
f 102/102/102 101/101/101 99/99/99
f 105/105/105 104/104/104 103/103/103
f 106/106/106 105/105/105 103/103/103
f 109/109/109 108/108/108 107/107/107
f 110/110/110 109/109/109 107/107/107
f 113/113/113 112/112/112 111/111/111
f 114/114/114 113/113/113 111/111/111
f 117/117/117 116/116/116 115/115/115
f 118/118/118 117/117/117 115/115/115
f 121/121/121 120/120/120 119/119/119
f 122/122/122 121/121/121 119/119/119
f 125/125/125 124/124/124 123/123/123
f 126/126/126 125/125/125 123/123/123
f 129/129/129 128/128/128 127/127/127
f 130/130/130 129/129/129 127/127/127
f 133/133/133 132/132/132 131/131/131
f 134/134/134 133/133/133 131/131/131
f 137/137/137 136/136/136 135/135/135
f 138/138/138 137/137/137 135/135/135
f 141/141/141 140/140/140 139/139/139
f 142/142/142 141/141/141 139/139/139
