# generated by LodBaker -- retail ships no LODGroup for this prop
v -1.230958 2.125 0.833332 1 1 1
v -0.980958 2.124999 -1.000001 1 1 1
v -1.230958 2.124999 -1.000001 1 1 1
v -0.980958 2.125 0.833332 1 1 1
v 1.230958 2.374999 -1.000001 1 1 1
v 1.230958 1.875 -0.750001 1 1 1
v 1.230958 2.375 0.833332 1 1 1
v -1.230958 2.374999 -1.000001 1 1 1
v -1.230958 2.125 0.833332 1 1 1
v -1.230958 2.124999 -1.000001 1 1 1
v -1.230958 2.375 0.833332 1 1 1
v -1.30597 1.932578 -3.662999 1 1 1
v -1.192572 2.236285 -3.817095 1 1 1
v -1.08711 2.009277 -3.756369 1 1 1
v -1.411431 2.159585 -3.723726 1 1 1
v 1.104944 2.08535 -3.514101 1 1 1
v 1.216384 2.41992 -3.325743 1 1 1
v 1.133452 2.179611 -3.284314 1 1 1
v 1.187875 2.325658 -3.55553 1 1 1
v 0.980958 2.374999 -1.750001 1 1 1
v 1.230958 2.124999 -1.750001 1 1 1
v 1.230958 2.374999 -1.750001 1 1 1
v 0.980958 2.124999 -1.750001 1 1 1
v -0.564528 2.277843 -1.44774 1 1 1
v 0.564528 2.277846 3.026953 1 1 1
v -0.564528 2.277846 3.026953 1 1 1
v 0.564528 2.277843 -1.44774 1 1 1
v 1.230958 -0.125002 -3.5 1 1 1
v 1.230958 1.274999 -1.750001 1 1 1
v 1.230958 1.274998 -3.250001 1 1 1
v 1.230958 1.875 -0.750001 1 1 1
v 1.230958 2.124999 -1.750001 1 1 1
v 1.230958 2.374999 -1.750001 1 1 1
v 1.230958 2.374999 -1.000001 1 1 1
v 1.424375 2.244707 -3.551664 1 1 1
v 1.369952 2.098661 -3.280448 1 1 1
v 1.452883 2.338969 -3.321878 1 1 1
v -1.449118 2.019371 -3.927244 1 1 1
v -1.192572 2.236285 -3.817095 1 1 1
v -1.411431 2.159585 -3.723726 1 1 1
v -1.230259 2.09607 -4.020614 1 1 1
v -1.230958 2.374999 -1.750001 1 1 1
v -0.980958 2.374999 -1.000001 1 1 1
v -1.230958 2.374999 -1.000001 1 1 1
v -0.980958 2.374999 -1.750001 1 1 1
v 1.230958 2.375 0.833332 1 1 1
v 0.980958 2.374999 -1.750001 1 1 1
v 1.230958 2.374999 -1.000001 1 1 1
v 1.230958 2.374999 -1.750001 1 1 1
v -1.230958 2.375 0.833332 1 1 1
v 1.230958 2.375002 3.499999 1 1 1
v -1.230958 2.375002 3.499999 1 1 1
v 1.230958 2.125002 3.499999 1 1 1
v 1.230958 1.875002 2.999999 1 1 1
v -1.449118 2.019371 -3.927244 1 1 1
v -1.411431 2.159585 -3.723726 1 1 1
v -1.30597 1.932578 -3.662999 1 1 1
v -1.230958 1.274998 -3.250001 1 1 1
v -1.230958 -0.125002 -3.5 1 1 1
v -1.230958 1.274999 -1.750001 1 1 1
v -1.230958 0.774999 -1 1 1 1
v -1.230958 2.124999 -1.000001 1 1 1
v -1.230958 2.124999 -1.750001 1 1 1
v -1.230958 2.374999 -1.000001 1 1 1
v -1.230958 2.374999 -1.750001 1 1 1
v -1.230958 0.775 0.833333 1 1 1
v -1.230958 -0.124998 3.5 1 1 1
v -1.230958 2.375002 3.499999 1 1 1
v -1.230958 2.125 0.833332 1 1 1
v -1.230958 2.375 0.833332 1 1 1
v 1.424375 2.244707 -3.551664 1 1 1
v 1.187875 2.325658 -3.55553 1 1 1
v 1.104944 2.08535 -3.514101 1 1 1
v 1.230958 -0.125002 -3.5 1 1 1
v 0.980958 1.274998 -3.500001 1 1 1
v -0.980958 1.274998 -3.500001 1 1 1
v -1.230958 -0.125002 -3.5 1 1 1
v -1.449118 2.019371 -3.927244 1 1 1
v -1.124797 1.869063 -3.959888 1 1 1
v -1.230259 2.09607 -4.020614 1 1 1
v 1.230958 2.375002 3.499999 1 1 1
v 1.230958 2.375 0.833332 1 1 1
v 1.230958 2.125002 3.499999 1 1 1
v -1.230958 2.375002 3.499999 1 1 1
v 1.230958 2.375002 3.499999 1 1 1
v -0.980958 2.125002 3.499999 1 1 1
v -0.980958 0.775002 3.5 1 1 1
v 0.980958 2.125002 3.499999 1 1 1
v 1.230958 2.125002 3.499999 1 1 1
v -1.230958 -0.124998 3.5 1 1 1
v 0.980958 0.775002 3.5 1 1 1
v 1.230958 -0.124998 3.5 1 1 1
v 1.187875 2.325658 -3.55553 1 1 1
v 1.452883 2.338969 -3.321878 1 1 1
v 1.216384 2.41992 -3.325743 1 1 1
v 1.424375 2.244707 -3.551664 1 1 1
v -0.980958 0.775002 3.25 1 1 1
v -0.980958 0.775002 3.5 1 1 1
v -0.980958 2.125002 3.249999 1 1 1
v -0.980958 2.125002 3.499999 1 1 1
v -1.230958 -0.125002 -3.5 1 1 1
v -1.230958 -0.124998 3.5 1 1 1
v 1.230958 -0.125002 -3.5 1 1 1
v 1.230958 -0.124998 3.5 1 1 1
v 0.980958 1.274998 -3.250001 1 1 1
v 1.230958 1.274999 -1.750001 1 1 1
v 0.980958 1.274999 -1.750001 1 1 1
v 1.230958 1.274998 -3.250001 1 1 1
v -0.980958 1.274998 -3.250001 1 1 1
v 0.980958 1.274998 -3.500001 1 1 1
v 0.980958 1.274998 -3.250001 1 1 1
v -0.980958 1.274998 -3.500001 1 1 1
v -0.980958 1.274999 -1.750001 1 1 1
v -1.230958 1.274998 -3.250001 1 1 1
v -0.980958 1.274998 -3.250001 1 1 1
v -1.230958 1.274999 -1.750001 1 1 1
v -0.980958 1.274998 -3.250001 1 1 1
v -1.124797 1.869063 -3.959888 1 1 1
v -0.980958 1.274998 -3.500001 1 1 1
v -1.08711 2.009277 -3.756369 1 1 1
v 0.980958 1.274998 -3.250001 1 1 1
v 1.104944 2.08535 -3.514101 1 1 1
v 1.133452 2.179611 -3.284314 1 1 1
v 0.980958 1.274998 -3.500001 1 1 1
v 0.980958 1.274998 -3.250001 1 1 1
v 1.369952 2.098661 -3.280448 1 1 1
v 1.230958 1.274998 -3.250001 1 1 1
v 1.133452 2.179611 -3.284314 1 1 1
v -1.08711 2.009277 -3.756369 1 1 1
v -1.230958 1.274998 -3.250001 1 1 1
v -1.30597 1.932578 -3.662999 1 1 1
v -0.980958 1.274998 -3.250001 1 1 1
v -1.230958 2.124999 -1.750001 1 1 1
v -1.230958 1.274999 -1.750001 1 1 1
v -0.980958 2.124999 -1.750001 1 1 1
v -0.980958 1.274999 -1.750001 1 1 1
v 0.980958 1.274999 -1.750001 1 1 1
v 0.980958 2.124999 -1.750001 1 1 1
v 1.230958 2.124999 -1.750001 1 1 1
v 1.230958 1.274999 -1.750001 1 1 1
v -0.980958 0.374999 -1.75 1 1 1
v -0.980958 1.274998 -3.250001 1 1 1
v -0.980958 0.374998 -3.25 1 1 1
v -0.980958 1.274999 -1.750001 1 1 1
v -0.980958 0.374998 -3.25 1 1 1
v 0.980958 1.274998 -3.250001 1 1 1
v 0.980958 0.374998 -3.25 1 1 1
v -0.980958 1.274998 -3.250001 1 1 1
v 0.980958 0.374998 -3.25 1 1 1
v 0.980958 1.274999 -1.750001 1 1 1
v 0.980958 0.374999 -1.75 1 1 1
v 0.980958 1.274998 -3.250001 1 1 1
v -0.980958 0.374998 -3.25 1 1 1
v 0.980958 0.374999 -1.75 1 1 1
v -0.980958 0.374999 -1.75 1 1 1
v 0.980958 0.374998 -3.25 1 1 1
v 0.980958 0.374999 -1.75 1 1 1
v -0.980958 1.274999 -1.750001 1 1 1
v -0.980958 0.374999 -1.75 1 1 1
v 0.980958 1.274999 -1.750001 1 1 1
v 1.230958 0.864809 -0.750001 1 1 1
v 1.230958 -0.124998 3.5 1 1 1
v 1.230958 0.864811 2.999999 1 1 1
v -0.980958 0.775 0.833333 1 1 1
v -1.230958 0.774999 -1 1 1 1
v -0.980958 0.774999 -1 1 1 1
v -1.230958 0.775 0.833333 1 1 1
v -0.980958 2.125 0.833332 1 1 1
v -0.980958 0.774999 -1 1 1 1
v -0.980958 2.124999 -1.000001 1 1 1
v -0.980958 0.775 0.833333 1 1 1
v -0.980958 0.775 0.833333 1 1 1
v -1.230958 2.125 0.833332 1 1 1
v -1.230958 0.775 0.833333 1 1 1
v -0.980958 2.125 0.833332 1 1 1
v -0.980958 2.374999 -1.000001 1 1 1
v -1.230958 2.375 0.833332 1 1 1
v -0.980958 0.774999 -1 1 1 1
v -1.230958 2.124999 -1.000001 1 1 1
v -0.980958 2.124999 -1.000001 1 1 1
v -1.230958 0.774999 -1 1 1 1
v -0.980958 0.775002 3.25 1 1 1
v 0.980958 2.125002 3.249999 1 1 1
v 0.980958 0.775002 3.25 1 1 1
v -0.980958 2.125002 3.249999 1 1 1
v -0.980958 2.125002 3.249999 1 1 1
v 0.980958 2.125002 3.499999 1 1 1
v 0.980958 2.125002 3.249999 1 1 1
v -0.980958 2.125002 3.499999 1 1 1
v 0.980958 0.775002 3.25 1 1 1
v -0.980958 0.775002 3.5 1 1 1
v -0.980958 0.775002 3.25 1 1 1
v 0.980958 0.775002 3.5 1 1 1
v 0.980958 2.125002 3.499999 1 1 1
v 0.980958 0.775002 3.5 1 1 1
v 0.980958 2.125002 3.249999 1 1 1
v 0.980958 0.775002 3.25 1 1 1
v 0.980958 1.875002 2.999999 1 1 1
v 1.230958 1.875002 2.999999 1 1 1
v 0.980958 1.875 0.833332 1 1 1
v 1.230958 1.875 -0.750001 1 1 1
v 1.230958 0.864811 2.999999 1 1 1
v 1.230958 1.875002 2.999999 1 1 1
v 0.980958 1.875002 2.999999 1 1 1
v 0.980958 1.875 0.833332 1 1 1
v 0.980958 0.864811 2.999999 1 1 1
v 0.980958 0.864809 0.833333 1 1 1
v 1.230958 1.875 -0.750001 1 1 1
v 1.230958 0.864809 -0.750001 1 1 1
v 1.230958 0.864809 -0.750001 1 1 1
v 1.230958 0.864811 2.999999 1 1 1
v 0.980958 0.864809 0.833333 1 1 1
v 0.980958 0.864811 2.999999 1 1 1
v 1.230958 0.864811 2.999999 1 1 1
v 1.230958 1.875002 2.999999 1 1 1
v 0.980958 1.875002 2.999999 1 1 1
v 0.980958 0.864811 2.999999 1 1 1
v -1.08711 2.009277 -3.756369 1 1 1
v -1.230259 2.09607 -4.020614 1 1 1
v -1.124797 1.869063 -3.959888 1 1 1
v -1.192572 2.236285 -3.817095 1 1 1
v 1.216384 2.41992 -3.325743 1 1 1
v 1.369952 2.098661 -3.280448 1 1 1
v 1.133452 2.179611 -3.284314 1 1 1
v 1.452883 2.338969 -3.321878 1 1 1
v 0.980958 2.124999 -1.750001 1 1 1
v -0.980958 2.374999 -1.750001 1 1 1
v -0.980958 2.124999 -1.750001 1 1 1
v 0.980958 2.374999 -1.750001 1 1 1
v -1.230958 2.374999 -1.750001 1 1 1
v -1.230958 2.124999 -1.750001 1 1 1
v -0.980958 2.374999 -1.750001 1 1 1
v 1.110554 1.128661 1.444204 1 1 1
v 0.367961 1.563188 1.440009 1 1 1
v 0.338086 1.190595 1.443883 1 1 1
v 0.368116 1.567062 1.813797 1 1 1
v 1.140585 1.505128 1.814118 1 1 1
v 0.338241 1.194469 1.817671 1 1 1
v 1.10262 1.032976 2.076658 1 1 1
v 0.37642 1.671962 2.070336 1 1 1
v 0.330151 1.09491 2.076337 1 1 1
v 0.37666 1.677964 2.64924 1 1 1
v 1.149129 1.61603 2.649561 1 1 1
v 0.330391 1.100911 2.655241 1 1 1
v -0.502186 1.417079 0.310126 1 1 1
v -1.115949 1.279623 0.110451 1 1 1
v -0.50208 1.282379 0.108929 1 1 1
v -0.500956 1.040791 0.124983 1 1 1
v -1.114824 1.038035 0.126505 1 1 1
v -0.500956 1.040791 0.124983 1 1 1
v -1.114824 1.038035 0.126505 1 1 1
v -0.499937 0.933902 0.342233 1 1 1
v -0.500042 1.068602 0.54343 1 1 1
v -1.115035 1.307434 0.528898 1 1 1
v -1.115035 1.307434 0.528898 1 1 1
v -0.501166 1.31019 0.527376 1 1 1
v -0.501166 1.31019 0.527376 1 1 1
v -1.115035 1.307434 0.528898 1 1 1
v -1.114824 1.038035 0.126505 1 1 1
v -1.115949 1.279623 0.110451 1 1 1
v 1.007853 0.745374 -3.560154 1 1 1
v 0.43368 1.052524 -3.402163 1 1 1
v 0.411295 0.798798 -3.400898 1 1 1
v 1.037303 0.999101 -3.436228 1 1 1
v 1.014918 0.745374 -3.434963 1 1 1
v 0.819272 -0.123396 1.665039 1 1 1
v 0.608499 -0.173483 3.653502 1 1 1
v 0.723133 -0.334114 3.658597 1 1 1
v 0.704638 0.037235 1.659945 1 1 1
v 0.882711 -0.219605 3.678396 1 1 1
v 0.864215 0.151745 1.679744 1 1 1
v 0.978849 -0.008887 1.684838 1 1 1
v 0.768077 -0.058973 3.673302 1 1 1
v 0.723133 -0.334114 3.658597 1 1 1
v 0.768077 -0.058973 3.673302 1 1 1
v 0.882711 -0.219605 3.678396 1 1 1
v 0.608499 -0.173483 3.653502 1 1 1
v 0.978849 -0.008887 1.684838 1 1 1
v 0.723133 -0.334114 3.658597 1 1 1
v 0.882711 -0.219605 3.678396 1 1 1
v 0.819272 -0.123396 1.665039 1 1 1
v 0.704638 0.037235 1.659945 1 1 1
v 0.608499 -0.173483 3.653502 1 1 1
v 0.864215 0.151745 1.679744 1 1 1
v -1.257363 -0.189678 -3.52913 1 1 1
v -1.263515 0.071977 -3.182782 1 1 1
v -1.25733 -0.187393 -3.18108 1 1 1
v -1.263548 0.069693 -3.530832 1 1 1
v 1.257597 0.12981 -3.531466 1 1 1
v -1.263548 0.069693 -3.530832 1 1 1
v 1.263782 -0.129561 -3.529764 1 1 1
v -1.257363 -0.189678 -3.52913 1 1 1
v 1.263815 -0.127276 -3.181714 1 1 1
v 1.257597 0.12981 -3.531466 1 1 1
v 1.263782 -0.129561 -3.529764 1 1 1
v 1.25763 0.132095 -3.183416 1 1 1
v -1.263515 0.071977 -3.182782 1 1 1
v 1.25763 0.132095 -3.183416 1 1 1
v -1.25733 -0.187393 -3.18108 1 1 1
v 1.263815 -0.127276 -3.181714 1 1 1
v 1.263782 -0.129561 -3.529764 1 1 1
v -1.25733 -0.187393 -3.18108 1 1 1
v 1.263815 -0.127276 -3.181714 1 1 1
v -1.257363 -0.189678 -3.52913 1 1 1
v -1.263548 0.069693 -3.530832 1 1 1
v 1.25763 0.132095 -3.183416 1 1 1
v -1.263515 0.071977 -3.182782 1 1 1
v 1.257597 0.12981 -3.531466 1 1 1
v 1.259107 -0.177202 3.522992 1 1 1
v 1.262067 0.082485 3.175125 1 1 1
v 1.258279 -0.176937 3.174936 1 1 1
v 1.262895 0.08222 3.523181 1 1 1
v -1.25869 0.119041 3.529208 1 1 1
v 1.262895 0.08222 3.523181 1 1 1
v -1.262479 -0.140381 3.52902 1 1 1
v 1.259107 -0.177202 3.522992 1 1 1
v -1.263307 -0.140116 3.180964 1 1 1
v -1.25869 0.119041 3.529208 1 1 1
v -1.262479 -0.140381 3.52902 1 1 1
v -1.259519 0.119306 3.181152 1 1 1
v 1.262067 0.082485 3.175125 1 1 1
v -1.259519 0.119306 3.181152 1 1 1
v 1.258279 -0.176937 3.174936 1 1 1
v -1.263307 -0.140116 3.180964 1 1 1
v -1.262479 -0.140381 3.52902 1 1 1
v 1.258279 -0.176937 3.174936 1 1 1
v -1.263307 -0.140116 3.180964 1 1 1
v 1.259107 -0.177202 3.522992 1 1 1
v 1.262895 0.08222 3.523181 1 1 1
v -1.259519 0.119306 3.181152 1 1 1
v 1.262067 0.082485 3.175125 1 1 1
v -1.25869 0.119041 3.529208 1 1 1
v -0.417297 0.781143 -3.401975 1 1 1
v -0.417297 1.035858 -3.401976 1 1 1
v -1.024236 0.781143 -3.527365 1 1 1
v -1.024236 0.781143 -3.401975 1 1 1
v -1.024236 1.035858 -3.401976 1 1 1
v -0.496425 1.646043 -0.681281 1 1 1
v -1.111028 1.29464 -0.536016 1 1 1
v -0.497204 1.296675 -0.528246 1 1 1
v -0.501863 1.25452 -0.149196 1 1 1
v -1.115687 1.252485 -0.156966 1 1 1
v -0.501863 1.25452 -0.149196 1 1 1
v -1.115687 1.252485 -0.156966 1 1 1
v -0.505742 1.561733 0.076819 1 1 1
v -0.504962 1.9111 -0.076215 1 1 1
v -1.114128 1.95122 -0.463035 1 1 1
v -1.114128 1.95122 -0.463035 1 1 1
v -0.500304 1.953255 -0.455265 1 1 1
v -0.500304 1.953255 -0.455265 1 1 1
v -1.114128 1.95122 -0.463035 1 1 1
v -1.115687 1.252485 -0.156966 1 1 1
v -1.111028 1.29464 -0.536016 1 1 1
vt 0.403473 0.25344402
vt 0.402379 0.253304
vt 0.379997 0.30427098
vt 0.403555 0.25359
vt 0.101815 0.21182501
vt 0.101933 0.21182501
vt 0.106484 0.21270198
vt 0.091109 0.24367303
vt 0.115482 0.19090497
vt 0.096587 0.19896299
vt 0.09663 0.199278
vt 0.108711 0.16727799
vt 0.097029 0.263376
vt 0.108168 0.16588801
vt 0.109691 0.167301
vt 0.109601 0.167027
vt 0.097029 0.263376
vt 0.108077 0.16586399
vt 0.11049 0.16720903
vt 0.108916 0.125382
vt 0.107983 0.12480199
vt 0.105251 0.125382
vt 0.108821 0.125382
vt 0.618334 0.78454196
vt 0.618334 0.78454196
vt 0.618334 0.78454196
vt 0.618334 0.78454196
vt 0.085644 0.24156702
vt 0.08166 0.245906
vt 0.08166 0.24229002
vt 0.07924 0.24879903
vt 0.07924 0.245906
vt 0.078529 0.245906
vt 0.078529 0.24879903
vt 0.078529 0.242271
vt 0.07924 0.24281502
vt 0.078529 0.24299401
vt 0.099767 0.242271
vt 0.100478 0.24299401
vt 0.099767 0.24299401
vt 0.100478 0.242271
vt 0.099767 0.245906
vt 0.100478 0.24879903
vt 0.099767 0.24879903
vt 0.100478 0.245906
vt 0.106774 0.254102
vt 0.106062 0.245906
vt 0.106774 0.24879903
vt 0.106774 0.245906
vt 0.099767 0.254102
vt 0.106774 0.26181602
vt 0.099767 0.26181602
vt 0.101933 0.21397698
vt 0.101933 0.21397698
vt 0.09276 0.242271
vt 0.09276 0.24299401
vt 0.092048 0.24281502
vt 0.089629 0.24229002
vt 0.085644 0.24156702
vt 0.089629 0.245906
vt 0.088206 0.24879903
vt 0.092048 0.24879903
vt 0.092048 0.245906
vt 0.09276 0.24879903
vt 0.09276 0.245906
vt 0.088206 0.254102
vt 0.085644 0.26181602
vt 0.09276 0.26181602
vt 0.092048 0.254102
vt 0.09276 0.254102
vt 0.099767 0.24156702
vt 0.099055 0.24156702
vt 0.099055 0.24083501
vt 0.099767 0.23430598
vt 0.099055 0.23834902
vt 0.093471 0.23834902
vt 0.09276 0.23430598
vt 0.09276 0.24156702
vt 0.093471 0.24083501
vt 0.093471 0.24156702
vt 0.078529 0.26181602
vt 0.078529 0.254102
vt 0.07924 0.26181602
vt 0.092651 0.24156702
vt 0.085644 0.24156702
vt 0.09194 0.24084401
vt 0.09194 0.23578298
vt 0.086356 0.24084401
vt 0.085644 0.24084401
vt 0.092651 0.23433697
vt 0.086356 0.23578298
vt 0.085644 0.23433697
vt 0.106062 0.242271
vt 0.106774 0.24299401
vt 0.106062 0.24299401
vt 0.106774 0.242271
vt 0.359172 0.11384702
vt 0.359883 0.11384702
vt 0.359172 0.118909
vt 0.359883 0.118909
vt 0.09276 0.26181602
vt 0.09276 0.24156702
vt 0.099767 0.26181602
vt 0.099767 0.24156702
vt 0.103315 0.231534
vt 0.104027 0.23514998
vt 0.103315 0.23514998
vt 0.104027 0.231534
vt 0.08422 0.235892
vt 0.084932 0.24156702
vt 0.08422 0.24156702
vt 0.084932 0.235892
vt 0.086356 0.23433697
vt 0.085644 0.230721
vt 0.086356 0.230721
vt 0.085644 0.23433697
vt 0.09009 0.23182303
vt 0.089394 0.234186
vt 0.089394 0.23167199
vt 0.09009 0.23433697
vt 0.087052 0.234186
vt 0.086356 0.23182303
vt 0.087052 0.23167199
vt 0.086356 0.23433697
vt 0.088682 0.23433697
vt 0.089394 0.23186803
vt 0.089394 0.23433697
vt 0.088682 0.23186803
vt 0.087763 0.23186803
vt 0.087052 0.23433697
vt 0.087052 0.23186803
vt 0.087763 0.23433697
vt 0.099767 0.23514998
vt 0.102181 0.23514998
vt 0.099767 0.23587298
vt 0.102181 0.23587298
vt 0.102181 0.241548
vt 0.099767 0.241548
vt 0.099767 0.242271
vt 0.102181 0.242271
vt 0.443224 0.25581002
vt 0.440662 0.252194
vt 0.443224 0.252194
vt 0.440662 0.25581002
vt 0.45023 0.282476
vt 0.447669 0.276801
vt 0.45023 0.276801
vt 0.447669 0.282476
vt 0.430985 0.251382
vt 0.433547 0.25499803
vt 0.430985 0.25499803
vt 0.433547 0.251382
vt 0.575022 0.29594398
vt 0.57422 0.297224
vt 0.57422 0.29594398
vt 0.575022 0.297224
vt 0.445634 0.26220798
vt 0.443077 0.25653303
vt 0.445634 0.25653303
vt 0.443077 0.26220798
vt 0.084221 0.24879903
vt 0.085644 0.26181602
vt 0.084221 0.26181602
vt 0.414386 0.133686
vt 0.413675 0.12838203
vt 0.414386 0.12838203
vt 0.413675 0.133686
vt 0.410928 0.115957975
vt 0.41477 0.121261
vt 0.410928 0.121261
vt 0.41477 0.115957975
vt 0.410216 0.109519005
vt 0.409505 0.11341703
vt 0.409505 0.109519005
vt 0.410216 0.11341703
vt 0.097047 0.19896299
vt 0.097089 0.199278
vt 0.390411 0.11488199
vt 0.389699 0.110976994
vt 0.390411 0.110976994
vt 0.389699 0.11488199
vt 0.334384 0.12350798
vt 0.329404 0.11783302
vt 0.334384 0.11783302
vt 0.329404 0.12350798
vt 0.334384 0.11783302
vt 0.335095 0.12350798
vt 0.334384 0.12350798
vt 0.335095 0.11783302
vt 0.33652 0.12350798
vt 0.335808 0.11783302
vt 0.33652 0.11783302
vt 0.335808 0.12350798
vt 0.335808 0.11783302
vt 0.335808 0.112770975
vt 0.33652 0.11783302
vt 0.33652 0.112770975
vt 0.311669 0.22492301
vt 0.311669 0.22492301
vt 0.311669 0.21720898
vt 0.311669 0.211905
vt 0.085644 0.23578298
vt 0.085644 0.24084401
vt 0.374944 0.18077302
vt 0.374944 0.17949802
vt 0.375767 0.18077302
vt 0.375767 0.17949802
vt 0.374944 0.178621
vt 0.375767 0.178621
vt 0.31665 0.211905
vt 0.31665 0.22492301
vt 0.31665 0.21720898
vt 0.31665 0.22492301
vt 0.318073 0.19888997
vt 0.318073 0.203951
vt 0.318073 0.203951
vt 0.318073 0.19888997
vt 0.097029 0.263376
vt 0.108892 0.16711998
vt 0.108375 0.166183
vt 0.109781 0.167301
vt 0.11049 0.167301
vt 0.108375 0.16588801
vt 0.097029 0.263376
vt 0.106996 0.167301
vt 0.094703 0.225757
vt 0.094703 0.225757
vt 0.107983 0.12404603
vt 0.108821 0.125382
vt 0.10705 0.125382
vt 0.107983 0.123950005
vt 0.108078 0.125382
vt 0.629033 0.239995
vt 0.629033 0.239995
vt 0.629033 0.239995
vt 0.629033 0.239995
vt 0.629033 0.239995
vt 0.629033 0.239995
vt 0.629033 0.239995
vt 0.629033 0.239995
vt 0.629033 0.239995
vt 0.629033 0.239995
vt 0.629033 0.239995
vt 0.629033 0.239995
vt 0.591743 0.30856198
vt 0.596004 0.28413397
vt 0.596004 0.30856198
vt 0.598135 0.30856198
vt 0.598135 0.28413397
vt 0.606659 0.28413397
vt 0.606659 0.30856198
vt 0.604528 0.28413397
vt 0.600266 0.28413397
vt 0.598135 0.30856198
vt 0.589612 0.28413397
vt 0.589612 0.30856198
vt 0.598135 0.28413397
vt 0.606659 0.30113
vt 0.61404 0.306085
vt 0.610349 0.30856198
vt 0.119904 0.741746
vt 0.119904 0.741746
vt 0.119904 0.741746
vt 0.119904 0.741746
vt 0.119904 0.741746
vt 0.889901 0.714063
vt 0.902443 0.775882
vt 0.889901 0.776393
vt 0.902443 0.713552
vt 0.877359 0.713552
vt 0.889901 0.776393
vt 0.877359 0.775882
vt 0.889901 0.714063
vt 0.9402 0.770262
vt 0.927614 0.776393
vt 0.927614 0.770262
vt 0.9402 0.776393
vt 0.902443 0.714063
vt 0.915029 0.776393
vt 0.902443 0.776393
vt 0.915029 0.714063
vt 0.915029 0.714063
vt 0.915029 0.776393
vt 0.927614 0.714063
vt 0.603017 0.289486
vt 0.597457 0.284729
vt 0.603017 0.284729
vt 0.597457 0.289486
vt 0.586336 0.294244
vt 0.586336 0.25977498
vt 0.591897 0.294244
vt 0.591897 0.25977498
vt 0.597457 0.289486
vt 0.603017 0.294244
vt 0.597457 0.294244
vt 0.603017 0.289486
vt 0.597457 0.25977498
vt 0.597457 0.294244
vt 0.591897 0.25977498
vt 0.591897 0.294244
vt 0.584902 0.25977498
vt 0.577442 0.294244
vt 0.577442 0.25977498
vt 0.584902 0.294244
vt 0.576008 0.25977498
vt 0.568549 0.294244
vt 0.568549 0.25977498
vt 0.576008 0.294244
vt 0.615715 0.328394
vt 0.612386 0.32554603
vt 0.615715 0.32554603
vt 0.612386 0.328394
vt 0.605728 0.33124202
vt 0.605728 0.310606
vt 0.609057 0.33124202
vt 0.609057 0.310606
vt 0.612386 0.328394
vt 0.615715 0.33124202
vt 0.612386 0.33124202
vt 0.615715 0.328394
vt 0.612386 0.310606
vt 0.612386 0.33124202
vt 0.609057 0.310606
vt 0.609057 0.33124202
vt 0.604869 0.310606
vt 0.600403 0.33124202
vt 0.600403 0.310605
vt 0.604869 0.33124202
vt 0.599545 0.310606
vt 0.595079 0.33124202
vt 0.595079 0.310605
vt 0.599545 0.33124202
vt 0.119904 0.741746
vt 0.119904 0.741746
vt 0.119904 0.741746
vt 0.119904 0.741746
vt 0.119904 0.741746
vt 0.591743 0.30856198
vt 0.596004 0.28413397
vt 0.596004 0.30856198
vt 0.598135 0.30856198
vt 0.598135 0.28413397
vt 0.606659 0.28413397
vt 0.606659 0.30856198
vt 0.604528 0.28413397
vt 0.600266 0.28413397
vt 0.598135 0.30856198
vt 0.589612 0.28413397
vt 0.589612 0.30856198
vt 0.598135 0.28413397
vt 0.606659 0.30113
vt 0.61404 0.306085
vt 0.610349 0.30856198
vn 0 -1 -1.5259022E-05
vn 0 -1 -1.5259022E-05
vn 0 -1 -1.5259022E-05
vn 0 -1 -1.5259022E-05
vn 1 0 -1.5259022E-05
vn 1 0 -1.5259022E-05
vn 1 0 -1.5259022E-05
vn -1 0 -1.5259022E-05
vn -1 0 -1.5259022E-05
vn -1 0 -1.5259022E-05
vn -1 0 -1.5259022E-05
vn 0.16693547 0.46225998 0.87088937
vn 0.25679636 0.3592746 0.89720535
vn 0.16693547 0.46225998 0.87088937
vn 0.25679636 0.3592746 0.89720535
vn -0.9700742 0.24273698 0.0058950717
vn -0.94600606 0.32378122 -0.015434102
vn -0.9700742 0.24273698 0.0058950717
vn -0.94600606 0.32378122 -0.015434102
vn 0 -3.051851E-05 -1
vn 0 -3.051851E-05 -1
vn 0 -3.051851E-05 -1
vn 0 -3.051851E-05 -1
vn -1 0 -1.5259022E-05
vn 1 0 -1.5259022E-05
vn -1 0 -1.5259022E-05
vn 0 -3.051851E-05 -1
vn 1 0 -1.5259022E-05
vn 1 0 -1.5259022E-05
vn 0.9985387 -0.053261817 -0.009146846
vn 1 0 -1.5259022E-05
vn 1 0 -1.5259022E-05
vn 1 0 -1.5259022E-05
vn 1 0 -1.5259022E-05
vn 0.9459933 -0.32381663 0.015474078
vn 0.9701405 -0.24246998 -0.005968834
vn 0.9459933 -0.32381663 0.015474078
vn -0.4592431 0.76894504 -0.4447689
vn -0.4592431 0.76894504 -0.4447689
vn -0.4592431 0.76894504 -0.4447689
vn -0.4592431 0.76894504 -0.4447689
vn 0 1 -1.5259022E-05
vn 0 1 -1.5259022E-05
vn 0 1 -1.5259022E-05
vn 0 1 -1.5259022E-05
vn 0 1 -1.5259022E-05
vn 0 1 -1.5259022E-05
vn 0 1 -1.5259022E-05
vn 0 1 -1.5259022E-05
vn 0 1 -1.5259022E-05
vn 0 1 -1.5259022E-05
vn 0 1 -1.5259022E-05
vn 1 0 -1.5259022E-05
vn 1 0 -1.5259022E-05
vn -0.87544984 -0.30681926 0.37342942
vn -0.87544984 -0.30681926 0.37342942
vn -0.9486692 -0.1997456 0.24521092
vn -0.9989265 -0.028753217 0.03631901
vn -1 0 -1.5259022E-05
vn -1 0 -1.5259022E-05
vn -1 0 -1.5259022E-05
vn -1 0 -1.5259022E-05
vn -1 0 -1.5259022E-05
vn -1 0 -1.5259022E-05
vn -1 0 -1.5259022E-05
vn -1 0 -1.5259022E-05
vn -1 0 -1.5259022E-05
vn -1 0 -1.5259022E-05
vn -1 0 -1.5259022E-05
vn -1 0 -1.5259022E-05
vn -0.037647624 -0.15711756 -0.98686206
vn -0.037647624 -0.15711756 -0.98686206
vn -0.016272644 -0.08706694 -0.9960695
vn 0 -3.051851E-05 -1
vn 0.0017213534 -0.005533042 -0.99998325
vn -0.020740587 -0.211355 -0.9771893
vn 0 -3.051851E-05 -1
vn -0.25682643 -0.35930756 -0.8971835
vn -0.1602736 -0.48859084 -0.85766613
vn -0.25682643 -0.35930756 -0.8971835
vn 1 0 -1.5259022E-05
vn 1 0 -1.5259022E-05
vn 1 0 -1.5259022E-05
vn -1.5259255E-05 -1.5259255E-05 1
vn -1.5259255E-05 -1.5259255E-05 1
vn -1.5259255E-05 -1.5259255E-05 1
vn -1.5259255E-05 -1.5259255E-05 1
vn -1.5259255E-05 -1.5259255E-05 1
vn -1.5259255E-05 -1.5259255E-05 1
vn -1.5259255E-05 -1.5259255E-05 1
vn -1.5259255E-05 -1.5259255E-05 1
vn -1.5259255E-05 -1.5259255E-05 1
vn 0.3034827 0.8677551 -0.39357236
vn 0.3034827 0.8677551 -0.39357236
vn 0.3034827 0.8677551 -0.39357236
vn 0.3034827 0.8677551 -0.39357236
vn 1 0 -1.5259022E-05
vn 1 0 -1.5259022E-05
vn 1 0 -1.5259022E-05
vn 1 0 -1.5259022E-05
vn 0 -1 -1.5259022E-05
vn 0 -1 -1.5259022E-05
vn 0 -1 -1.5259022E-05
vn 0 -1 -1.5259022E-05
vn 0 1 -1.5259022E-05
vn 0 1 -1.5259022E-05
vn 0 1 -1.5259022E-05
vn 0 1 -1.5259022E-05
vn 0 1 -1.5259022E-05
vn 0 1 -1.5259022E-05
vn 0 1 -1.5259022E-05
vn 0 1 -1.5259022E-05
vn 0 1 -1.5259022E-05
vn 0 1 -1.5259022E-05
vn 0 1 -1.5259022E-05
vn 0 1 -1.5259022E-05
vn 0.99702775 0.05170249 -0.05711915
vn 0.946273 0.20813902 -0.247478
vn 0.9881267 0.10309001 -0.11392125
vn 0.946273 0.20813902 -0.247478
vn -0.9966865 0.08018814 0.013628218
vn -0.9700742 0.24273698 0.0058950717
vn -0.9700742 0.24273698 0.0058950717
vn -0.98676926 0.15982535 0.027243653
vn -0.00085561274 0.01883928 0.99982214
vn 0.018015612 0.09760295 0.99506235
vn -0.0016641067 0.037704524 0.99928755
vn 0.018015612 0.09760295 0.99506235
vn 0.16693547 0.46225998 0.87088937
vn 0.07378373 0.5562593 0.8277268
vn 0.16693547 0.46225998 0.87088937
vn 0.038583584 0.29095575 0.9559582
vn 0 -3.051851E-05 -1
vn 0 -3.051851E-05 -1
vn 0 -3.051851E-05 -1
vn 0 -3.051851E-05 -1
vn 0 -3.051851E-05 -1
vn 0 -3.051851E-05 -1
vn 0 -3.051851E-05 -1
vn 0 -3.051851E-05 -1
vn 1 0 -1.5259022E-05
vn 0.99702775 0.05170249 -0.05711915
vn 1 0 -1.5259022E-05
vn 1 0 -1.5259022E-05
vn -1.5259255E-05 -1.5259255E-05 1
vn -0.00085561274 0.01883928 0.99982214
vn -1.5259255E-05 -1.5259255E-05 1
vn 0.038583584 0.29095575 0.9559582
vn -1 0 -1.5259022E-05
vn -1 0 -1.5259022E-05
vn -1 0 -1.5259022E-05
vn -0.9966865 0.08018814 0.013628218
vn 0 1 -1.5259022E-05
vn 0 1 -1.5259022E-05
vn 0 1 -1.5259022E-05
vn 0 1 -1.5259022E-05
vn 0 -3.051851E-05 -1
vn 0 -3.051851E-05 -1
vn 0 -3.051851E-05 -1
vn 0 -3.051851E-05 -1
vn 1 0 -1.5259022E-05
vn 1 0 -1.5259022E-05
vn 1 0 -1.5259022E-05
vn 0 1 -1.5259022E-05
vn 0 1 -1.5259022E-05
vn 0 1 -1.5259022E-05
vn 0 1 -1.5259022E-05
vn -1 0 -1.5259022E-05
vn -1 0 -1.5259022E-05
vn -1 0 -1.5259022E-05
vn -1 0 -1.5259022E-05
vn 0 -3.051851E-05 -1
vn 0 -3.051851E-05 -1
vn 0 -3.051851E-05 -1
vn 0 -3.051851E-05 -1
vn 0 1 -1.5259022E-05
vn 0 1 -1.5259022E-05
vn -1.5259255E-05 -1.5259255E-05 1
vn -1.5259255E-05 -1.5259255E-05 1
vn -1.5259255E-05 -1.5259255E-05 1
vn -1.5259255E-05 -1.5259255E-05 1
vn -1.5259255E-05 -1.5259255E-05 1
vn -1.5259255E-05 -1.5259255E-05 1
vn -1.5259255E-05 -1.5259255E-05 1
vn -1.5259255E-05 -1.5259255E-05 1
vn 0 -1 -1.5259022E-05
vn 0 -1 -1.5259022E-05
vn 0 -1 -1.5259022E-05
vn 0 -1 -1.5259022E-05
vn 0 1 -1.5259022E-05
vn 0 1 -1.5259022E-05
vn 0 1 -1.5259022E-05
vn 0 1 -1.5259022E-05
vn -1 0 -1.5259022E-05
vn -1 0 -1.5259022E-05
vn -1 0 -1.5259022E-05
vn -1 0 -1.5259022E-05
vn 0 -1 -1.5259022E-05
vn 0 -1 -1.5259022E-05
vn 0 -1 -1.5259022E-05
vn 0 -1 -1.5259022E-05
vn 1 0 -1.5259022E-05
vn 1 0 -1.5259022E-05
vn 1 0 -1.5259022E-05
vn 1 0 -1.5259022E-05
vn 1 0 -1.5259022E-05
vn 1 0 -1.5259022E-05
vn -1.5259255E-05 -1.5259255E-05 1
vn -1.5259255E-05 -1.5259255E-05 1
vn 0 1 -1.5259022E-05
vn 0 1 -1.5259022E-05
vn 0 1 -1.5259022E-05
vn 0 1 -1.5259022E-05
vn 0 -3.051851E-05 -1
vn 0 -3.051851E-05 -1
vn 0 -3.051851E-05 -1
vn 0 -3.051851E-05 -1
vn 0.946273 0.20813902 -0.247478
vn 0.8754617 0.30679137 -0.37342435
vn 0.946273 0.20813902 -0.247478
vn 0.8754617 0.30679137 -0.37342435
vn 0.03762951 0.15713525 0.98685986
vn 0.018015612 0.09760295 0.99506235
vn 0.018015612 0.09760295 0.99506235
vn 0.03762951 0.15713525 0.98685986
vn 0 -3.051851E-05 -1
vn 0 -3.051851E-05 -1
vn 0 -3.051851E-05 -1
vn 0 -3.051851E-05 -1
vn 0 -3.051851E-05 -1
vn 0 -3.051851E-05 -1
vn 0 -3.051851E-05 -1
vn -0.00040096568 -0.010332759 -0.9999466
vn -0.00040096568 -0.010332759 -0.9999466
vn -0.00040096568 -0.010332759 -0.9999466
vn 0.00038554386 0.010348117 0.99994636
vn 0.99680054 -0.079928786 0.0004109606
vn 0.00038554386 0.010348117 0.99994636
vn -0.0004009779 -0.010363918 -0.9999462
vn -0.0004009779 -0.010363918 -0.9999462
vn -0.0004009779 -0.010363918 -0.9999462
vn 0.00038554386 0.010348117 0.99994636
vn 0.99680054 -0.079928786 0.0004109606
vn 0.00038554386 0.010348117 0.99994636
vn -0.0051416466 0.8309623 -0.556305
vn -0.0051416466 0.8309623 -0.556305
vn -0.0051416466 0.8309623 -0.556305
vn -0.0021476187 -0.06628238 -0.9977986
vn -0.0021476187 -0.06628238 -0.9977986
vn 0.0029071122 -0.8972631 -0.44148657
vn 0.0029071122 -0.8972631 -0.44148657
vn 0.0029071122 -0.8972631 -0.44148657
vn 0.005077699 -0.8309495 0.55632466
vn 0.0021638921 0.06630072 0.9977973
vn -0.0029686363 0.8972752 0.44146165
vn -0.0029686363 0.8972752 0.44146165
vn 0.0021638921 0.06630072 0.9977973
vn -0.9999869 -0.004501876 0.0024430251
vn -0.9999869 -0.004501876 0.0024430251
vn -0.9999868 -0.0045020143 0.00247383
vn -0.056330204 0 -0.9984122
vn -0.9945368 0.0880052 0.0561391
vn -0.9945368 0.0880052 0.0561391
vn 0.9945351 -0.08802396 -0.056139983
vn 0.9945351 -0.08802396 -0.056139983
vn -0.80836904 -0.58006114 -0.10034187
vn -0.80836904 -0.58006114 -0.10034187
vn -0.80836904 -0.58006114 -0.10034187
vn -0.80836904 -0.58006114 -0.10034187
vn 0.8083681 0.5800541 0.100390114
vn 0.8083681 0.5800541 0.100390114
vn 0.8083681 0.5800541 0.100390114
vn 0.8083681 0.5800541 0.100390114
vn -0.09659478 -0.037387602 0.99462134
vn -0.09659478 -0.037387602 0.99462134
vn -0.09659478 -0.037387602 0.99462134
vn -0.09659478 -0.037387602 0.99462134
vn 0.58669645 -0.8077928 -0.057079297
vn 0.58669645 -0.8077928 -0.057079297
vn 0.58669645 -0.8077928 -0.057079297
vn 0.58669645 -0.8077928 -0.057079297
vn -0.5867715 0.8077383 0.057080228
vn -0.5867715 0.8077383 0.057080228
vn -0.5867715 0.8077383 0.057080228
vn -0.9997154 -0.02385445 0.00020307995
vn -0.9997154 -0.02385445 0.00020307995
vn -0.9997154 -0.02385445 0.00020307995
vn -0.9997154 -0.02385445 0.00020307995
vn 0.09119402 -0.0043632556 -0.99582356
vn -0.08959146 -0.008648596 -0.9959411
vn 0.09119402 -0.0043632556 -0.99582356
vn -0.08959146 -0.008648596 -0.9959411
vn 0.99971575 0.02383921 -0.00023432677
vn 0.99971575 0.02383921 -0.00023432677
vn 0.99971575 0.02383921 -0.00023432677
vn 0.99971575 0.02383921 -0.00023432677
vn 0.08957481 0.008665303 0.99594235
vn -0.09121054 0.004346596 0.99582213
vn 0.08957481 0.008665303 0.99594235
vn -0.09121054 0.004346596 0.99582213
vn 0.023812372 -0.999695 0.0065543177
vn 0.023813114 -0.9996947 0.006585958
vn 0.023812372 -0.999695 0.0065543177
vn 0.023813114 -0.9996947 0.006585958
vn -0.02386062 0.9996938 -0.006554619
vn -0.02386062 0.9996938 -0.006554619
vn -0.02386062 0.9996938 -0.006554619
vn -0.02386062 0.9996938 -0.006554619
vn 0.9998903 -0.014616665 -0.002374005
vn 0.9998903 -0.014616665 -0.002374005
vn 0.9998903 -0.014616665 -0.002374005
vn 0.9998903 -0.014616665 -0.002374005
vn -0.088967435 0.0005466171 0.9960344
vn 0.09186983 -0.0020784705 0.9957689
vn -0.088967435 0.0005466171 0.9960344
vn 0.09186983 -0.0020784705 0.9957689
vn -0.999891 0.014569899 0.002405002
vn -0.999891 0.014569899 0.002405002
vn -0.999891 0.014569899 0.002405002
vn -0.999891 0.014569899 0.002405002
vn -0.091922335 0.0020619018 -0.9957641
vn 0.08891813 -0.00059631217 -0.99603873
vn -0.091922335 0.0020619018 -0.9957641
vn 0.08891813 -0.00059631217 -0.99603873
vn -0.014593157 -0.99989325 -0.0007590794
vn -0.014593157 -0.99989325 -0.0007590794
vn -0.014593157 -0.99989325 -0.0007590794
vn -0.014593157 -0.99989325 -0.0007590794
vn 0.014577442 0.9998934 0.0007590678
vn 0.014577442 0.9998934 0.0007590678
vn 0.014577442 0.9998934 0.0007590678
vn 0.014577442 0.9998934 0.0007590678
vn 1 0 -1.5259022E-05
vn 1 0 -1.5259022E-05
vn 0 -3.051851E-05 -1
vn -1 0 -1.5259022E-05
vn -1 0 -1.5259022E-05
vn 0.012907492 -0.40122944 -0.9158867
vn 0.012907492 -0.40122944 -0.9158867
vn 0.012907492 -0.40122944 -0.9158867
vn 0.004670643 -0.9938665 -0.11048786
vn 0.004670643 -0.9938665 -0.11048786
vn -0.008261896 -0.5926861 0.8053912
vn -0.008261896 -0.5926861 0.8053912
vn -0.008261896 -0.5926861 0.8053912
vn -0.012927888 0.4012123 0.9158939
vn -0.004721506 0.9938698 0.110456266
vn 0.008240333 0.5927001 -0.80538106
vn 0.008240333 0.5927001 -0.80538106
vn -0.004721506 0.9938698 0.110456266
vn -0.999914 -0.0032863456 -0.012695783
vn -0.999914 -0.0032863456 -0.012695783
vn -0.999914 -0.0032863456 -0.012695783
f 3/3/3 2/2/2 1/1/1
f 1/1/1 2/2/2 4/4/4
f 7/7/7 6/6/6 5/5/5
f 10/10/10 9/9/9 8/8/8
f 8/8/8 9/9/9 11/11/11
f 14/14/14 13/13/13 12/12/12
f 12/12/12 13/13/13 15/15/15
f 18/18/18 17/17/17 16/16/16
f 16/16/16 17/17/17 19/19/19
f 22/22/22 21/21/21 20/20/20
f 20/20/20 21/21/21 23/23/23
f 26/26/26 25/25/25 24/24/24
f 24/24/24 25/25/25 27/27/27
f 30/30/30 29/29/29 28/28/28
f 29/29/29 32/32/32 31/31/31
f 32/32/32 33/33/33 31/31/31
f 31/31/31 33/33/33 34/34/34
f 28/28/28 35/35/35 30/30/30
f 30/30/30 35/35/35 36/36/36
f 36/36/36 35/35/35 37/37/37
f 40/40/40 39/39/39 38/38/38
f 38/38/38 39/39/39 41/41/41
f 44/44/44 43/43/43 42/42/42
f 42/42/42 43/43/43 45/45/45
f 43/43/43 46/46/46 45/45/45
f 45/45/45 46/46/46 47/47/47
f 46/46/46 48/48/48 47/47/47
f 47/47/47 48/48/48 49/49/49
f 50/50/50 46/46/46 43/43/43
f 50/50/50 51/51/51 46/46/46
f 52/52/52 51/51/51 50/50/50
f 54/54/54 7/7/7 53/53/53
f 54/54/54 6/6/6 7/7/7
f 57/57/57 56/56/56 55/55/55
f 58/58/58 57/57/57 55/55/55
f 59/59/59 58/58/58 55/55/55
f 59/59/59 60/60/60 58/58/58
f 59/59/59 61/61/61 60/60/60
f 61/61/61 62/62/62 60/60/60
f 60/60/60 62/62/62 63/63/63
f 62/62/62 64/64/64 63/63/63
f 63/63/63 64/64/64 65/65/65
f 59/59/59 66/66/66 61/61/61
f 67/67/67 66/66/66 59/59/59
f 67/67/67 68/68/68 66/66/66
f 66/66/66 68/68/68 69/69/69
f 69/69/69 68/68/68 70/70/70
f 73/73/73 72/72/72 71/71/71
f 74/74/74 73/73/73 71/71/71
f 75/75/75 73/73/73 74/74/74
f 74/74/74 76/76/76 75/75/75
f 77/77/77 76/76/76 74/74/74
f 77/77/77 78/78/78 76/76/76
f 76/76/76 78/78/78 79/79/79
f 79/79/79 78/78/78 80/80/80
f 83/83/83 82/82/82 81/81/81
f 86/86/86 85/85/85 84/84/84
f 87/87/87 86/86/86 84/84/84
f 88/88/88 85/85/85 86/86/86
f 89/89/89 85/85/85 88/88/88
f 90/90/90 87/87/87 84/84/84
f 91/91/91 89/89/89 88/88/88
f 90/90/90 91/91/91 87/87/87
f 92/92/92 89/89/89 91/91/91
f 90/90/90 92/92/92 91/91/91
f 95/95/95 94/94/94 93/93/93
f 93/93/93 94/94/94 96/96/96
f 99/99/99 98/98/98 97/97/97
f 99/99/99 100/100/100 98/98/98
f 103/103/103 102/102/102 101/101/101
f 104/104/104 102/102/102 103/103/103
f 107/107/107 106/106/106 105/105/105
f 105/105/105 106/106/106 108/108/108
f 111/111/111 110/110/110 109/109/109
f 109/109/109 110/110/110 112/112/112
f 115/115/115 114/114/114 113/113/113
f 113/113/113 114/114/114 116/116/116
f 119/119/119 118/118/118 117/117/117
f 117/117/117 118/118/118 120/120/120
f 123/123/123 122/122/122 121/121/121
f 121/121/121 122/122/122 124/124/124
f 127/127/127 126/126/126 125/125/125
f 125/125/125 126/126/126 128/128/128
f 131/131/131 130/130/130 129/129/129
f 129/129/129 130/130/130 132/132/132
f 135/135/135 134/134/134 133/133/133
f 136/136/136 134/134/134 135/135/135
f 136/136/136 135/135/135 137/137/137
f 137/137/137 135/135/135 138/138/138
f 138/138/138 139/139/139 137/137/137
f 137/137/137 139/139/139 140/140/140
f 143/143/143 142/142/142 141/141/141
f 141/141/141 142/142/142 144/144/144
f 147/147/147 146/146/146 145/145/145
f 145/145/145 146/146/146 148/148/148
f 151/151/151 150/150/150 149/149/149
f 149/149/149 150/150/150 152/152/152
f 155/155/155 154/154/154 153/153/153
f 153/153/153 154/154/154 156/156/156
f 159/159/159 158/158/158 157/157/157
f 157/157/157 158/158/158 160/160/160
f 31/31/31 28/28/28 29/29/29
f 161/161/161 28/28/28 31/31/31
f 161/161/161 162/162/162 28/28/28
f 163/163/163 162/162/162 161/161/161
f 166/166/166 165/165/165 164/164/164
f 164/164/164 165/165/165 167/167/167
f 170/170/170 169/169/169 168/168/168
f 168/168/168 169/169/169 171/171/171
f 174/174/174 173/173/173 172/172/172
f 172/172/172 173/173/173 175/175/175
f 177/177/177 176/176/176 8/8/8
f 180/180/180 179/179/179 178/178/178
f 178/178/178 179/179/179 181/181/181
f 184/184/184 183/183/183 182/182/182
f 182/182/182 183/183/183 185/185/185
f 188/188/188 187/187/187 186/186/186
f 186/186/186 187/187/187 189/189/189
f 192/192/192 191/191/191 190/190/190
f 190/190/190 191/191/191 193/193/193
f 196/196/196 195/195/195 194/194/194
f 197/197/197 195/195/195 196/196/196
f 200/200/200 199/199/199 198/198/198
f 200/200/200 201/201/201 199/199/199
f 203/203/203 89/89/89 202/202/202
f 202/202/202 89/89/89 92/92/92
f 206/206/206 205/205/205 204/204/204
f 207/207/207 205/205/205 206/206/206
f 207/207/207 208/208/208 205/205/205
f 209/209/209 208/208/208 207/207/207
f 212/212/212 211/211/211 210/210/210
f 213/213/213 211/211/211 212/212/212
f 216/216/216 215/215/215 214/214/214
f 216/216/216 214/214/214 217/217/217
f 220/220/220 219/219/219 218/218/218
f 218/218/218 219/219/219 221/221/221
f 224/224/224 223/223/223 222/222/222
f 222/222/222 223/223/223 225/225/225
f 228/228/228 227/227/227 226/226/226
f 226/226/226 227/227/227 229/229/229
f 231/231/231 230/230/230 228/228/228
f 228/228/228 230/230/230 232/232/232
f 235/235/235 234/234/234 233/233/233
f 238/238/238 237/237/237 236/236/236
f 237/237/237 238/238/238 233/233/233
f 233/233/233 238/238/238 235/235/235
f 236/236/236 237/237/237 234/234/234
f 234/234/234 237/237/237 233/233/233
f 241/241/241 240/240/240 239/239/239
f 244/244/244 243/243/243 242/242/242
f 243/243/243 244/244/244 239/239/239
f 239/239/239 244/244/244 241/241/241
f 242/242/242 243/243/243 240/240/240
f 240/240/240 243/243/243 239/239/239
f 247/247/247 246/246/246 245/245/245
f 249/249/249 246/246/246 248/248/248
f 248/248/248 246/246/246 247/247/247
f 252/252/252 251/251/251 250/250/250
f 254/254/254 251/251/251 253/253/253
f 253/253/253 251/251/251 252/252/252
f 246/246/246 255/255/255 245/245/245
f 245/245/245 255/255/255 256/256/256
f 257/257/257 254/254/254 253/253/253
f 260/260/260 259/259/259 258/258/258
f 263/263/263 262/262/262 261/261/261
f 265/265/265 261/261/261 264/264/264
f 265/265/265 263/263/263 261/261/261
f 262/262/262 264/264/264 261/261/261
f 268/268/268 267/267/267 266/266/266
f 266/266/266 267/267/267 269/269/269
f 272/272/272 271/271/271 270/270/270
f 270/270/270 271/271/271 273/273/273
f 276/276/276 275/275/275 274/274/274
f 274/274/274 275/275/275 277/277/277
f 280/280/280 279/279/279 278/278/278
f 278/278/278 279/279/279 281/281/281
f 283/283/283 275/275/275 282/282/282
f 282/282/282 275/275/275 284/284/284
f 287/287/287 286/286/286 285/285/285
f 285/285/285 286/286/286 288/288/288
f 291/291/291 290/290/290 289/289/289
f 292/292/292 290/290/290 291/291/291
f 295/295/295 294/294/294 293/293/293
f 293/293/293 294/294/294 296/296/296
f 299/299/299 298/298/298 297/297/297
f 300/300/300 298/298/298 299/299/299
f 303/303/303 302/302/302 301/301/301
f 301/301/301 302/302/302 304/304/304
f 307/307/307 306/306/306 305/305/305
f 305/305/305 306/306/306 308/308/308
f 311/311/311 310/310/310 309/309/309
f 309/309/309 310/310/310 312/312/312
f 315/315/315 314/314/314 313/313/313
f 316/316/316 314/314/314 315/315/315
f 319/319/319 318/318/318 317/317/317
f 317/317/317 318/318/318 320/320/320
f 323/323/323 322/322/322 321/321/321
f 324/324/324 322/322/322 323/323/323
f 327/327/327 326/326/326 325/325/325
f 325/325/325 326/326/326 328/328/328
f 331/331/331 330/330/330 329/329/329
f 329/329/329 330/330/330 332/332/332
f 335/335/335 334/334/334 333/333/333
f 337/337/337 335/335/335 336/336/336
f 335/335/335 333/333/333 336/336/336
f 335/335/335 337/337/337 334/334/334
f 340/340/340 339/339/339 338/338/338
f 342/342/342 339/339/339 341/341/341
f 341/341/341 339/339/339 340/340/340
f 345/345/345 344/344/344 343/343/343
f 347/347/347 344/344/344 346/346/346
f 346/346/346 344/344/344 345/345/345
f 339/339/339 348/348/348 338/338/338
f 338/338/338 348/348/348 349/349/349
f 350/350/350 347/347/347 346/346/346
f 353/353/353 352/352/352 351/351/351
