g Model_0
v -0.664988995 0.662635028 2.1990869
v -0.664988995 0.662635028 2.05908704
v -0.768517017 1.04900503 2.05908704
v -0.768517017 1.04900503 2.1990869
v -0.768517017 1.04900503 2.1990869
v -0.768517017 1.04900503 2.05908704
v -0.479768991 1.12637496 2.05908704
v -0.479768991 1.12637496 2.1990869
v -0.479768991 1.12637496 2.1990869
v -0.479768991 1.12637496 2.05908704
v -0.376240999 0.740005016 2.05908704
v -0.376240999 0.740005016 2.1990869
v -0.664988995 0.662635028 2.05908704
v -0.376240999 0.740005016 2.05908704
v -0.479768991 1.12637496 2.05908704
v -0.768517017 1.04900503 2.05908704
v -0.376240999 0.740005016 2.1990869
v -0.664988995 0.662635028 2.1990869
v -0.768517017 1.04900503 2.1990869
v -0.479768991 1.12637496 2.1990869
v -0.400000989 0 2.5
v -0.800001025 9.99999997E-07 2.5
v -0.800000012 1.00000095 2.5
v -0.399998993 1.10000002 2.5
v 0.399998993 0 2.5
v 0.400000989 1.10000002 2.5
v 0.799998999 -9.99999997E-07 2.5
v 0.800000012 0.999998987 2.5
v -0.400000989 0 0
v -0.800000012 9.99999997E-07 0
v -0.800001025 9.99999997E-07 2.5
v -0.400000989 0 2.5
v 0.399998993 0 0
v 0.399998993 0 2.5
v 0.800000012 -9.99999997E-07 0
v 0.799998999 -9.99999997E-07 2.5
v -0.800000012 9.99999997E-07 0
v -0.800000012 1.00000095 0
v -0.800000012 1.00000095 2.5
v -0.800001025 9.99999997E-07 2.5
v 0.400000989 1.10000002 0
v 0.800001025 0.999998987 0
v 0.800000012 0.999998987 2.5
v 0.400000989 1.10000002 2.5
v -0.399998993 1.10000002 0
v -0.399998993 1.10000002 2.5
v -0.800000012 1.00000095 0
v -0.800000012 1.00000095 2.5
v 0.799998999 -9.99999997E-07 2.5
v 0.800000012 0.999998987 2.5
v 0.800001025 0.999998987 0
v 0.800000012 -9.99999997E-07 0
v -0.319999993 0.744678974 0.559517026
v -0.319999993 0.744678974 0.279516995
v -0.319999993 1.14467895 0.279516995
v -0.319999993 1.14467895 0.559517026
v -0.319999993 1.14467895 0.559517026
v -0.319999993 1.14467895 0.279516995
v 0.319999993 1.14467895 0.279516995
v 0.319999993 1.14467895 0.559517026
v 0.319999993 1.14467895 0.559517026
v 0.319999993 1.14467895 0.279516995
v 0.319999993 0.744678974 0.279516995
v 0.319999993 0.744678974 0.559517026
v -0.319999993 0.744678974 0.279516995
v 0.319999993 0.744678974 0.279516995
v 0.319999993 1.14467895 0.279516995
v -0.319999993 1.14467895 0.279516995
v 0.319999993 0.744678974 0.559517026
v -0.319999993 0.744678974 0.559517026
v -0.319999993 1.14467895 0.559517026
v 0.319999993 1.14467895 0.559517026
v -0.664988995 0.662635028 2.012748
v -0.664988995 0.662635028 1.87274802
v -0.768517017 1.04900503 1.87274802
v -0.768517017 1.04900503 2.012748
v -0.768517017 1.04900503 2.012748
v -0.768517017 1.04900503 1.87274802
v -0.479768991 1.12637496 1.87274802
v -0.479768991 1.12637496 2.012748
v -0.479768991 1.12637496 2.012748
v -0.479768991 1.12637496 1.87274802
v -0.376240999 0.740005016 1.87274802
v -0.376240999 0.740005016 2.012748
v -0.664988995 0.662635028 1.87274802
v -0.376240999 0.740005016 1.87274802
v -0.479768991 1.12637496 1.87274802
v -0.768517017 1.04900503 1.87274802
v -0.376240999 0.740005016 2.012748
v -0.664988995 0.662635028 2.012748
v -0.768517017 1.04900503 2.012748
v -0.479768991 1.12637496 2.012748
v -0.664988995 0.662635028 1.82347798
v -0.664988995 0.662635028 1.683478
v -0.768517017 1.04900503 1.683478
v -0.768517017 1.04900503 1.82347798
v -0.768517017 1.04900503 1.82347798
v -0.768517017 1.04900503 1.683478
v -0.479768991 1.12637496 1.683478
v -0.479768991 1.12637496 1.82347798
v -0.479768991 1.12637496 1.82347798
v -0.479768991 1.12637496 1.683478
v -0.376240999 0.740005016 1.683478
v -0.376240999 0.740005016 1.82347798
v -0.664988995 0.662635028 1.683478
v -0.376240999 0.740005016 1.683478
v -0.479768991 1.12637496 1.683478
v -0.768517017 1.04900503 1.683478
v -0.376240999 0.740005016 1.82347798
v -0.664988995 0.662635028 1.82347798
v -0.768517017 1.04900503 1.82347798
v -0.479768991 1.12637496 1.82347798
v -0.664988995 0.662635028 1.63713801
v -0.664988995 0.662635028 1.49713898
v -0.768517017 1.04900503 1.49713898
v -0.768517017 1.04900503 1.63713801
v -0.768517017 1.04900503 1.63713801
v -0.768517017 1.04900503 1.49713898
v -0.479768991 1.12637496 1.49713898
v -0.479768991 1.12637496 1.63713801
v -0.479768991 1.12637496 1.63713801
v -0.479768991 1.12637496 1.49713898
v -0.376240999 0.740005016 1.49713898
v -0.376240999 0.740005016 1.63713801
v -0.664988995 0.662635028 1.49713898
v -0.376240999 0.740005016 1.49713898
v -0.479768991 1.12637496 1.49713898
v -0.768517017 1.04900503 1.49713898
v -0.376240999 0.740005016 1.63713801
v -0.664988995 0.662635028 1.63713801
v -0.768517017 1.04900503 1.63713801
v -0.479768991 1.12637496 1.63713801
v -0.664988995 0.662635028 1.45819199
v -0.664988995 0.662635028 1.31819296
v -0.768517017 1.04900503 1.31819296
v -0.768517017 1.04900503 1.45819199
v -0.768517017 1.04900503 1.45819199
v -0.768517017 1.04900503 1.31819296
v -0.479768991 1.12637496 1.31819296
v -0.479768991 1.12637496 1.45819199
v -0.479768991 1.12637496 1.45819199
v -0.479768991 1.12637496 1.31819296
v -0.376240999 0.740005016 1.31819296
v -0.376240999 0.740005016 1.45819199
v -0.664988995 0.662635028 1.31819296
v -0.376240999 0.740005016 1.31819296
v -0.479768991 1.12637496 1.31819296
v -0.768517017 1.04900503 1.31819296
v -0.376240999 0.740005016 1.45819199
v -0.664988995 0.662635028 1.45819199
v -0.768517017 1.04900503 1.45819199
v -0.479768991 1.12637496 1.45819199
v -0.664988995 0.662635028 1.27185297
v -0.664988995 0.662635028 1.13185298
v -0.768517017 1.04900503 1.13185298
v -0.768517017 1.04900503 1.27185297
v -0.768517017 1.04900503 1.27185297
v -0.768517017 1.04900503 1.13185298
v -0.479768991 1.12637496 1.13185298
v -0.479768991 1.12637496 1.27185297
v -0.479768991 1.12637496 1.27185297
v -0.479768991 1.12637496 1.13185298
v -0.376240999 0.740005016 1.13185298
v -0.376240999 0.740005016 1.27185297
v -0.664988995 0.662635028 1.13185298
v -0.376240999 0.740005016 1.13185298
v -0.479768991 1.12637496 1.13185298
v -0.768517017 1.04900503 1.13185298
v -0.376240999 0.740005016 1.27185297
v -0.664988995 0.662635028 1.27185297
v -0.768517017 1.04900503 1.27185297
v -0.479768991 1.12637496 1.27185297
v -0.664988995 0.662635028 1.08258295
v -0.664988995 0.662635028 0.942583025
v -0.768517017 1.04900503 0.942583025
v -0.768517017 1.04900503 1.08258295
v -0.768517017 1.04900503 1.08258295
v -0.768517017 1.04900503 0.942583025
v -0.479768991 1.12637496 0.942583025
v -0.479768991 1.12637496 1.08258295
v -0.479768991 1.12637496 1.08258295
v -0.479768991 1.12637496 0.942583025
v -0.376240999 0.740005016 0.942583025
v -0.376240999 0.740005016 1.08258295
v -0.664988995 0.662635028 0.942583025
v -0.376240999 0.740005016 0.942583025
v -0.479768991 1.12637496 0.942583025
v -0.768517017 1.04900503 0.942583025
v -0.376240999 0.740005016 1.08258295
v -0.664988995 0.662635028 1.08258295
v -0.768517017 1.04900503 1.08258295
v -0.479768991 1.12637496 1.08258295
v -0.664988995 0.662635028 0.896243989
v -0.664988995 0.662635028 0.756244004
v -0.768517017 1.04900503 0.756244004
v -0.768517017 1.04900503 0.896243989
v -0.768517017 1.04900503 0.896243989
v -0.768517017 1.04900503 0.756244004
v -0.479768991 1.12637496 0.756244004
v -0.479768991 1.12637496 0.896243989
v -0.479768991 1.12637496 0.896243989
v -0.479768991 1.12637496 0.756244004
v -0.376240999 0.740005016 0.756244004
v -0.376240999 0.740005016 0.896243989
v -0.664988995 0.662635028 0.756244004
v -0.376240999 0.740005016 0.756244004
v -0.479768991 1.12637496 0.756244004
v -0.768517017 1.04900503 0.756244004
v -0.376240999 0.740005016 0.896243989
v -0.664988995 0.662635028 0.896243989
v -0.768517017 1.04900503 0.896243989
v -0.479768991 1.12637496 0.896243989
vt 0.683642983 0.347303003
vt 0.68680799 0.347303003
vt 0.68680799 0.339442015
vt 0.683642983 0.339442015
vt 0.668295026 0.348450989
vt 0.671459973 0.348450989
vt 0.671459973 0.342590988
vt 0.668295026 0.342590988
vt 0.720247984 0.318966001
vt 0.723412991 0.318966001
vt 0.723412991 0.311105013
vt 0.720247984 0.311105013
vt 0.738224983 0.339248002
vt 0.731467009 0.339248002
vt 0.731467009 0.347119987
vt 0.738224983 0.347119987
vt 0.71796298 0.323698997
vt 0.711205006 0.323698997
vt 0.711205006 0.331571013
vt 0.71796298 0.331571013
vt 0.258444011 0.264196992
vt 0.258444011 0.25632599
vt 0.235835999 0.25632599
vt 0.233576 0.264196992
vt 0.258444011 0.279940009
vt 0.233576 0.279940009
vt 0.258444011 0.287811011
vt 0.235835999 0.287811011
vt 0.242617995 0.20713
vt 0.233576 0.20713
vt 0.233576 0.25632599
vt 0.242617995 0.25632599
vt 0.260704011 0.20713
vt 0.260704011 0.25632599
vt 0.269746989 0.20713
vt 0.269746989 0.25632599
vt 0.269746989 0.305521011
vt 0.291859001 0.305521011
vt 0.291859001 0.25632599
vt 0.269746989 0.25632599
vt 0.247740999 0.749341011
vt 0.256249994 0.749341011
vt 0.256249994 0.700145006
vt 0.247740999 0.700145006
vt 0.229932994 0.749341011
vt 0.229932994 0.700145006
vt 0.220634997 0.749341011
vt 0.220634997 0.700145006
vt 0.327473998 0.20713
vt 0.305361986 0.20713
vt 0.305361986 0.25632599
vt 0.327473998 0.25632599
vt 0.807407022 0.705267012
vt 0.801077008 0.705267012
vt 0.801077008 0.712965012
vt 0.807407022 0.712965012
vt 0.807821989 0.705072999
vt 0.814152002 0.705072999
vt 0.814152002 0.692672014
vt 0.807821989 0.692672014
vt 0.801077008 0.720664024
vt 0.807407022 0.720664024
vt 0.807407022 0.712965012
vt 0.801077008 0.712965012
vt 0.803362012 0.705267012
vt 0.803362012 0.692672014
vt 0.794318974 0.692672014
vt 0.794318974 0.705267012
vt 0.763163984 0.692672014
vt 0.763163984 0.705267012
vt 0.772207022 0.705267012
vt 0.772207022 0.692672014
vt 0.74998498 0.29538399
vt 0.746819973 0.29538399
vt 0.746819973 0.303245008
vt 0.74998498 0.303245008
vt 0.751312971 0.325515985
vt 0.748148024 0.325515985
vt 0.748148024 0.331377
vt 0.751312971 0.331377
vt 0.744983017 0.339237988
vt 0.748148024 0.339237988
vt 0.748148024 0.331377
vt 0.744983017 0.331377
vt 0.731467009 0.339248002
vt 0.724708021 0.339248002
vt 0.724708021 0.347119987
vt 0.731467009 0.347119987
vt 0.731467009 0.323505998
vt 0.724708021 0.323505998
vt 0.724708021 0.331377
vt 0.731467009 0.331377
vt 0.744983017 0.347097993
vt 0.748148024 0.347097993
vt 0.748148024 0.339237988
vt 0.744983017 0.339237988
vt 0.656086981 0.342590988
vt 0.652921975 0.342590988
vt 0.652921975 0.348450989
vt 0.656086981 0.348450989
vt 0.746819973 0.311105013
vt 0.74998498 0.311105013
vt 0.74998498 0.303245008
vt 0.746819973 0.303245008
vt 0.71796298 0.339442015
vt 0.711205006 0.339442015
vt 0.711205006 0.347312987
vt 0.71796298 0.347312987
vt 0.68680799 0.323698997
vt 0.680050015 0.323698997
vt 0.680050015 0.331571013
vt 0.68680799 0.331571013
vt 0.683215022 0.339442015
vt 0.680050015 0.339442015
vt 0.680050015 0.347303003
vt 0.683215022 0.347303003
vt 0.656086981 0.348450989
vt 0.659251988 0.348450989
vt 0.659251988 0.342590988
vt 0.656086981 0.342590988
vt 0.721127987 0.346958011
vt 0.724292994 0.346958011
vt 0.724292994 0.339096993
vt 0.721127987 0.339096993
vt 0.744983017 0.339248002
vt 0.738224983 0.339248002
vt 0.738224983 0.347119987
vt 0.744983017 0.347119987
vt 0.738224983 0.331377
vt 0.731467009 0.331377
vt 0.731467009 0.339248002
vt 0.738224983 0.339248002
vt 0.74998498 0.277631015
vt 0.746819973 0.277631015
vt 0.746819973 0.285492003
vt 0.74998498 0.285492003
vt 0.751312971 0.339237988
vt 0.748148024 0.339237988
vt 0.748148024 0.345097989
vt 0.751312971 0.345097989
vt 0.746819973 0.269769996
vt 0.74998498 0.269769996
vt 0.74998498 0.261909992
vt 0.746819973 0.261909992
vt 0.744983017 0.331377
vt 0.738224983 0.331377
vt 0.738224983 0.339248002
vt 0.744983017 0.339248002
vt 0.71796298 0.331571013
vt 0.711205006 0.331571013
vt 0.711205006 0.339442015
vt 0.71796298 0.339442015
vt 0.747720003 0.323495001
vt 0.75088501 0.323495001
vt 0.75088501 0.315634012
vt 0.747720003 0.315634012
vt 0.674624979 0.342590988
vt 0.671459973 0.342590988
vt 0.671459973 0.348450989
vt 0.674624979 0.348450989
vt 0.748148024 0.323516011
vt 0.744983017 0.323516011
vt 0.744983017 0.331377
vt 0.748148024 0.331377
vt 0.744983017 0.323505998
vt 0.738224983 0.323505998
vt 0.738224983 0.331377
vt 0.744983017 0.331377
vt 0.731467009 0.331377
vt 0.724708021 0.331377
vt 0.724708021 0.339248002
vt 0.731467009 0.339248002
vt 0.74998498 0.287523001
vt 0.746819973 0.287523001
vt 0.746819973 0.29538399
vt 0.74998498 0.29538399
vt 0.751312971 0.333377004
vt 0.748148024 0.333377004
vt 0.748148024 0.339237988
vt 0.751312971 0.339237988
vt 0.744554996 0.323495001
vt 0.747720003 0.323495001
vt 0.747720003 0.315634012
vt 0.744554996 0.315634012
vt 0.744554996 0.315634012
vt 0.737797022 0.315634012
vt 0.737797022 0.323505998
vt 0.744554996 0.323505998
vt 0.738224983 0.323505998
vt 0.731467009 0.323505998
vt 0.731467009 0.331377
vt 0.738224983 0.331377
vt 0.721127987 0.339096993
vt 0.71796298 0.339096993
vt 0.71796298 0.346958011
vt 0.721127987 0.346958011
vt 0.674624979 0.348450989
vt 0.677789986 0.348450989
vt 0.677789986 0.342590988
vt 0.674624979 0.342590988
vt 0.746819973 0.277631015
vt 0.74998498 0.277631015
vt 0.74998498 0.269769996
vt 0.746819973 0.269769996
vt 0.68680799 0.331571013
vt 0.680050015 0.331571013
vt 0.680050015 0.339442015
vt 0.68680799 0.339442015
vt 0.737797022 0.315634012
vt 0.731038988 0.315634012
vt 0.731038988 0.323505998
vt 0.737797022 0.323505998
vn -0.965925515 -0.258820206 0
vn -0.965925515 -0.258820206 0
vn -0.965925515 -0.258820206 0
vn -0.965925515 -0.258820206 0
vn -0.258819431 0.965925694 0
vn -0.258819431 0.965925694 0
vn -0.258819431 0.965925694 0
vn -0.258819431 0.965925694 0
vn 0.965925634 0.258820176 0
vn 0.965925634 0.258820176 0
vn 0.965925634 0.258820176 0
vn 0.965925634 0.258820176 0
vn -0 0 -1
vn -0 0 -1
vn -0 0 -1
vn -0 0 -1
vn -0 0 1
vn -0 0 1
vn -0 0 1
vn -0 0 1
vn -0 0 1
vn -0 0 1
vn -0 0 1
vn -0 0 1
vn -0 0 1
vn -0 0 1
vn -0 0 1
vn -0 0 1
vn -0 -1 0
vn -0 -1 0
vn -0 -1 0
vn -0 -1 0
vn -0 -1 0
vn -0 -1 0
vn -0 -1 0
vn -0 -1 0
vn -1 0 0
vn -1 0 0
vn -1 0 0
vn -1 0 0
vn 0.122184612 0.992507398 0
vn 0.242538258 0.970141828 0
vn 0.242538258 0.970141828 0
vn 0.122184612 0.992507398 0
vn -0.122181892 0.992507756 0
vn -0.122181892 0.992507756 0
vn -0.242532939 0.970143199 0
vn -0.242532939 0.970143199 0
vn 1 0 0
vn 1 0 0
vn 1 0 0
vn 1 0 0
vn -1 0 0
vn -1 0 0
vn -1 0 0
vn -1 0 0
vn -0 1 0
vn -0 1 0
vn -0 1 0
vn -0 1 0
vn 1 0 0
vn 1 0 0
vn 1 0 0
vn 1 0 0
vn -0 0 -1
vn -0 0 -1
vn -0 0 -1
vn -0 0 -1
vn -0 0 1
vn -0 0 1
vn -0 0 1
vn -0 0 1
vn -0.965925515 -0.258820206 0
vn -0.965925515 -0.258820206 0
vn -0.965925515 -0.258820206 0
vn -0.965925515 -0.258820206 0
vn -0.258819431 0.965925694 0
vn -0.258819431 0.965925694 0
vn -0.258819431 0.965925694 0
vn -0.258819431 0.965925694 0
vn 0.965925515 0.258820176 0
vn 0.965925515 0.258820176 0
vn 0.965925515 0.258820176 0
vn 0.965925515 0.258820176 0
vn -0 0 -1
vn -0 0 -1
vn -0 0 -1
vn -0 0 -1
vn -0 0 1
vn -0 0 1
vn -0 0 1
vn -0 0 1
vn -0.965925515 -0.258820206 0
vn -0.965925515 -0.258820206 0
vn -0.965925515 -0.258820206 0
vn -0.965925515 -0.258820206 0
vn -0.258819431 0.965925694 0
vn -0.258819431 0.965925694 0
vn -0.258819431 0.965925694 0
vn -0.258819431 0.965925694 0
vn 0.965925515 0.258820176 0
vn 0.965925515 0.258820176 0
vn 0.965925515 0.258820176 0
vn 0.965925515 0.258820176 0
vn -0 0 -1
vn -0 0 -1
vn -0 0 -1
vn -0 0 -1
vn -0 0 1
vn -0 0 1
vn -0 0 1
vn -0 0 1
vn -0.965925515 -0.258820206 0
vn -0.965925515 -0.258820206 0
vn -0.965925515 -0.258820206 0
vn -0.965925515 -0.258820206 0
vn -0.258819431 0.965925694 0
vn -0.258819431 0.965925694 0
vn -0.258819431 0.965925694 0
vn -0.258819431 0.965925694 0
vn 0.965925515 0.258820176 0
vn 0.965925515 0.258820176 0
vn 0.965925515 0.258820176 0
vn 0.965925515 0.258820176 0
vn -0 0 -1
vn -0 0 -1
vn -0 0 -1
vn -0 0 -1
vn -0 0 1
vn -0 0 1
vn -0 0 1
vn -0 0 1
vn -0.965925515 -0.258820206 0
vn -0.965925515 -0.258820206 0
vn -0.965925515 -0.258820206 0
vn -0.965925515 -0.258820206 0
vn -0.258819431 0.965925694 0
vn -0.258819431 0.965925694 0
vn -0.258819431 0.965925694 0
vn -0.258819431 0.965925694 0
vn 0.965925515 0.258820176 0
vn 0.965925515 0.258820176 0
vn 0.965925515 0.258820176 0
vn 0.965925515 0.258820176 0
vn -0 0 -1
vn -0 0 -1
vn -0 0 -1
vn -0 0 -1
vn -0 0 1
vn -0 0 1
vn -0 0 1
vn -0 0 1
vn -0.965925515 -0.258820206 0
vn -0.965925515 -0.258820206 0
vn -0.965925515 -0.258820206 0
vn -0.965925515 -0.258820206 0
vn -0.258819431 0.965925694 0
vn -0.258819431 0.965925694 0
vn -0.258819431 0.965925694 0
vn -0.258819431 0.965925694 0
vn 0.965925515 0.258820176 0
vn 0.965925515 0.258820176 0
vn 0.965925515 0.258820176 0
vn 0.965925515 0.258820176 0
vn -0 0 -1
vn -0 0 -1
vn -0 0 -1
vn -0 0 -1
vn -0 0 1
vn -0 0 1
vn -0 0 1
vn -0 0 1
vn -0.965925515 -0.258820206 0
vn -0.965925515 -0.258820206 0
vn -0.965925515 -0.258820206 0
vn -0.965925515 -0.258820206 0
vn -0.258819431 0.965925694 0
vn -0.258819431 0.965925694 0
vn -0.258819431 0.965925694 0
vn -0.258819431 0.965925694 0
vn 0.965925515 0.258820176 0
vn 0.965925515 0.258820176 0
vn 0.965925515 0.258820176 0
vn 0.965925515 0.258820176 0
vn -0 0 -1
vn -0 0 -1
vn -0 0 -1
vn -0 0 -1
vn -0 0 1
vn -0 0 1
vn -0 0 1
vn -0 0 1
vn -0.965925515 -0.258820206 0
vn -0.965925515 -0.258820206 0
vn -0.965925515 -0.258820206 0
vn -0.965925515 -0.258820206 0
vn -0.258819431 0.965925694 0
vn -0.258819431 0.965925694 0
vn -0.258819431 0.965925694 0
vn -0.258819431 0.965925694 0
vn 0.965925515 0.258820176 0
vn 0.965925515 0.258820176 0
vn 0.965925515 0.258820176 0
vn 0.965925515 0.258820176 0
vn -0 0 -1
vn -0 0 -1
vn -0 0 -1
vn -0 0 -1
vn -0 0 1
vn -0 0 1
vn -0 0 1
vn -0 0 1
g Model_0_0
f 3/3/3 2/2/2 1/1/1
f 4/4/4 3/3/3 1/1/1
f 7/7/7 6/6/6 5/5/5
f 8/8/8 7/7/7 5/5/5
f 11/11/11 10/10/10 9/9/9
f 12/12/12 11/11/11 9/9/9
f 15/15/15 14/14/14 13/13/13
f 16/16/16 15/15/15 13/13/13
f 19/19/19 18/18/18 17/17/17
f 20/20/20 19/19/19 17/17/17
f 23/23/23 22/22/22 21/21/21
f 24/24/24 23/23/23 21/21/21
f 24/24/24 21/21/21 25/25/25
f 26/26/26 24/24/24 25/25/25
f 26/26/26 25/25/25 27/27/27
f 28/28/28 26/26/26 27/27/27
f 31/31/31 30/30/30 29/29/29
f 32/32/32 31/31/31 29/29/29
f 32/32/32 29/29/29 33/33/33
f 34/34/34 32/32/32 33/33/33
f 34/34/34 33/33/33 35/35/35
f 36/36/36 34/34/34 35/35/35
f 39/39/39 38/38/38 37/37/37
f 40/40/40 39/39/39 37/37/37
f 43/43/43 42/42/42 41/41/41
f 44/44/44 43/43/43 41/41/41
f 44/44/44 41/41/41 45/45/45
f 46/46/46 44/44/44 45/45/45
f 46/46/46 45/45/45 47/47/47
f 48/48/48 46/46/46 47/47/47
f 51/51/51 50/50/50 49/49/49
f 52/52/52 51/51/51 49/49/49
f 55/55/55 54/54/54 53/53/53
f 56/56/56 55/55/55 53/53/53
f 59/59/59 58/58/58 57/57/57
f 60/60/60 59/59/59 57/57/57
f 63/63/63 62/62/62 61/61/61
f 64/64/64 63/63/63 61/61/61
f 67/67/67 66/66/66 65/65/65
f 68/68/68 67/67/67 65/65/65
f 71/71/71 70/70/70 69/69/69
f 72/72/72 71/71/71 69/69/69
f 75/75/75 74/74/74 73/73/73
f 76/76/76 75/75/75 73/73/73
f 79/79/79 78/78/78 77/77/77
f 80/80/80 79/79/79 77/77/77
f 83/83/83 82/82/82 81/81/81
f 84/84/84 83/83/83 81/81/81
f 87/87/87 86/86/86 85/85/85
f 88/88/88 87/87/87 85/85/85
f 91/91/91 90/90/90 89/89/89
f 92/92/92 91/91/91 89/89/89
f 95/95/95 94/94/94 93/93/93
f 96/96/96 95/95/95 93/93/93
f 99/99/99 98/98/98 97/97/97
f 100/100/100 99/99/99 97/97/97
f 103/103/103 102/102/102 101/101/101
f 104/104/104 103/103/103 101/101/101
f 107/107/107 106/106/106 105/105/105
f 108/108/108 107/107/107 105/105/105
f 111/111/111 110/110/110 109/109/109
f 112/112/112 111/111/111 109/109/109
f 115/115/115 114/114/114 113/113/113
f 116/116/116 115/115/115 113/113/113
f 119/119/119 118/118/118 117/117/117
f 120/120/120 119/119/119 117/117/117
f 123/123/123 122/122/122 121/121/121
f 124/124/124 123/123/123 121/121/121
f 127/127/127 126/126/126 125/125/125
f 128/128/128 127/127/127 125/125/125
f 131/131/131 130/130/130 129/129/129
f 132/132/132 131/131/131 129/129/129
f 135/135/135 134/134/134 133/133/133
f 136/136/136 135/135/135 133/133/133
f 139/139/139 138/138/138 137/137/137
f 140/140/140 139/139/139 137/137/137
f 143/143/143 142/142/142 141/141/141
f 144/144/144 143/143/143 141/141/141
f 147/147/147 146/146/146 145/145/145
f 148/148/148 147/147/147 145/145/145
f 151/151/151 150/150/150 149/149/149
f 152/152/152 151/151/151 149/149/149
f 155/155/155 154/154/154 153/153/153
f 156/156/156 155/155/155 153/153/153
f 159/159/159 158/158/158 157/157/157
f 160/160/160 159/159/159 157/157/157
f 163/163/163 162/162/162 161/161/161
f 164/164/164 163/163/163 161/161/161
f 167/167/167 166/166/166 165/165/165
f 168/168/168 167/167/167 165/165/165
f 171/171/171 170/170/170 169/169/169
f 172/172/172 171/171/171 169/169/169
f 175/175/175 174/174/174 173/173/173
f 176/176/176 175/175/175 173/173/173
f 179/179/179 178/178/178 177/177/177
f 180/180/180 179/179/179 177/177/177
f 183/183/183 182/182/182 181/181/181
f 184/184/184 183/183/183 181/181/181
f 187/187/187 186/186/186 185/185/185
f 188/188/188 187/187/187 185/185/185
f 191/191/191 190/190/190 189/189/189
f 192/192/192 191/191/191 189/189/189
f 195/195/195 194/194/194 193/193/193
f 196/196/196 195/195/195 193/193/193
f 199/199/199 198/198/198 197/197/197
f 200/200/200 199/199/199 197/197/197
f 203/203/203 202/202/202 201/201/201
f 204/204/204 203/203/203 201/201/201
f 207/207/207 206/206/206 205/205/205
f 208/208/208 207/207/207 205/205/205
f 211/211/211 210/210/210 209/209/209
f 212/212/212 211/211/211 209/209/209
