v -0.800000 0.000001 2.500000
v -0.800000 0.000001 0.000000
v -0.800000 1.000001 0.000000
v -0.800000 1.000001 2.500000
v -0.800000 1.000001 2.500000
v -0.800000 1.000001 0.000000
v 0.800000 1.000001 0.000000
v 0.800000 1.000001 2.500000
v 0.800000 1.000001 2.500000
v 0.800000 1.000001 0.000000
v 0.800000 0.000001 0.000000
v 0.800000 0.000001 2.500000
v 0.800000 0.000001 2.500000
v 0.800000 0.000001 0.000000
v -0.800000 0.000001 0.000000
v -0.800000 0.000001 2.500000
v 0.800000 0.000001 2.500000
v -0.800000 0.000001 2.500000
v -0.800000 1.000001 2.500000
v 0.800000 1.000001 2.500000
vt 0.257982999 0.260104001
vt 0.257982999 0.169667006
vt 0.214917004 0.169667006
vt 0.214917004 0.260104001
vt 0.0903310031 0.770352006
vt 0.0903310031 0.860789001
vt 0.159235001 0.860789001
vt 0.159235001 0.770352006
vt 0.257982999 0.350540996
vt 0.257982999 0.260104001
vt 0.214917004 0.260104001
vt 0.214917004 0.350540996
vt 0.146013007 0.169667006
vt 0.146013007 0.260104001
vt 0.214917004 0.260104001
vt 0.214917004 0.169667006
vt 0.146013007 0.260104001
vt 0.146013007 0.317984015
vt 0.189078003 0.317984015
vt 0.189078003 0.260104001
vn -1.000000 0.000000 0.000000
vn -1.000000 0.000000 0.000000
vn -1.000000 0.000000 0.000000
vn -1.000000 0.000000 0.000000
vn 0.000000 1.000000 0.000000
vn 0.000000 1.000000 0.000000
vn 0.000000 1.000000 0.000000
vn 0.000000 1.000000 0.000000
vn 1.000000 0.000000 0.000000
vn 1.000000 0.000000 0.000000
vn 1.000000 0.000000 0.000000
vn 1.000000 0.000000 0.000000
vn 0.000000 -1.000000 -0.000000
vn 0.000000 -1.000000 -0.000000
vn 0.000000 -1.000000 -0.000000
vn 0.000000 -1.000000 -0.000000
vn 0.000000 -0.000000 1.000000
vn 0.000000 -0.000000 1.000000
vn 0.000000 -0.000000 1.000000
vn 0.000000 -0.000000 1.000000
f 3/3/3 2/2/2 1/1/1
f 4/4/4 3/3/3 1/1/1
f 7/7/7 6/6/6 5/5/5
f 8/8/8 7/7/7 5/5/5
f 11/11/11 10/10/10 9/9/9
f 12/12/12 11/11/11 9/9/9
f 15/15/15 14/14/14 13/13/13
f 16/16/16 15/15/15 13/13/13
f 19/19/19 18/18/18 17/17/17
f 20/20/20 19/19/19 17/17/17
