g Model_0
v 1.88035345 -0.151885509 3.83743
v 3.8647747 -0.0802459717 3.598809
v 3.61994219 0.125695705 1.62456357
v 1.63552105 0.0540561676 1.86318469
v -3.99999976 0.100002386 4
v 3.99999976 -0.0999976173 4
v 3.99999976 0.0999976173 -4
v -3.99999976 -0.100002386 -4
v -2.95767283 0.147043705 -0.0697029829
v -3.30520153 0.0877370834 1.89897835
v -1.34268451 -0.0917725563 2.24001122
v -0.995155811 -0.0324664116 0.271329761
v 2.01230192 -0.239048004 -0.833096266
v 3.02479029 0.058825016 -2.53196001
v 1.30752563 0.0492200851 -3.5570991
v 0.29503727 -0.248652935 -1.85823524
v -0.540984929 -0.0469880104 -3.2713449
v -2.12580824 0.170403957 -2.0708971
v -0.923090875 0.118984699 -0.473766088
v 0.661732316 -0.0984072685 -1.67421401
v -0.874163449 0.0534582138 4.75916481
v 0.718983948 0.0717449188 3.55022049
v -0.490066111 0.0811433792 1.95707607
v -2.08321357 0.0628566742 3.16602039
vt 0.179001957 0.430713713
vt 0.0267338436 0.172800928
vt 0.285183698 0.0211556554
vt 0.43745172 0.2790685
vt 0.999999881 1
vt 0 0.999999762
vt 1.1920929E-07 0
vt 1 2.38418522E-07
vt 0.324070334 0.486130953
vt 0.524682879 0.263360679
vt 0.747338295 0.463649333
vt 0.54672569 0.686419606
vt 0.985209644 0.82536459
vt 0.728602648 0.976902485
vt 0.575109661 0.719614983
vt 0.831716597 0.568076909
vt 0.297321051 0.966847181
vt 0.0257660635 0.844215751
vt 0.149621904 0.571234465
vt 0.42117691 0.693865895
vt 0.725713134 0.00508186128
vt 0.992679358 0.141479701
vt 0.85612464 0.408638954
vt 0.589158416 0.272241175
vn 0.0230730027 -0.994039178 -0.106553681
vn 0.0230730027 -0.994039178 -0.106553681
vn 0.0230730027 -0.994039178 -0.106553681
vn 0.0230730027 -0.994039178 -0.106553681
vn -0 -1 0
vn -0 -1 0
vn -0 -1 0
vn -0 -1 0
vn -0.0832930803 -0.99552238 -0.0446936563
vn -0.0832930803 -0.99552238 -0.0446936563
vn -0.0832930803 -0.99552238 -0.0446936563
vn -0.0832930803 -0.99552238 -0.0446936563
vn 0.0804196894 -0.988835156 -0.125450492
vn 0.0804196894 -0.988835156 -0.125450492
vn 0.0804196894 -0.988835156 -0.125450492
vn 0.0804196894 -0.988835156 -0.125450492
vn -0.102232412 -0.993742526 0.0449926667
vn -0.102232412 -0.993742526 0.0449926667
vn -0.102232412 -0.993742526 0.0449926667
vn -0.102232412 -0.993742526 0.0449926667
vn 0.00444278773 -0.99994719 -0.00927066896
vn 0.00444278773 -0.99994719 -0.00927066896
vn 0.00444278773 -0.99994719 -0.00927066896
vn 0.00444278773 -0.99994719 -0.00927066896
g Model_0_0
f 3/3/3 2/2/2 1/1/1
f 4/4/4 3/3/3 1/1/1
f 7/7/7 6/6/6 5/5/5
f 8/8/8 7/7/7 5/5/5
f 11/11/11 10/10/10 9/9/9
f 12/12/12 11/11/11 9/9/9
f 15/15/15 14/14/14 13/13/13
f 16/16/16 15/15/15 13/13/13
f 19/19/19 18/18/18 17/17/17
f 20/20/20 19/19/19 17/17/17
f 23/23/23 22/22/22 21/21/21
f 24/24/24 23/23/23 21/21/21
