g Model_0
v -0.639257491 0.0184677541 1.68682516
v 0.147739545 -0.597179711 1.64665186
v 0.432095617 -0.177435026 0.784702957
v -0.354901403 0.438212454 0.824876308
v -1.52884567 -0.10750775 1.41352689
v -1.49684441 0.116806842 -0.0051532113
v 0.0306199323 0.0161513127 0.104742378
v 0.0417378694 0.0241245385 1.51138699
v 0.0417378694 0.0241245385 1.51138699
v 0.0306199323 0.0161513127 0.104742378
v -0.100001276 -1.5 -0.100000001
v 0.100000001 -1.5 1.60000086
v -1.5 -1.5 1.50000083
v -1.52884567 -0.10750775 1.41352689
v 0.0417378694 0.0241245385 1.51138699
v 0.100000001 -1.5 1.60000086
vt 0.311143398 0.441651285
vt 0.503654957 0.232290447
vt 0.713015795 0.424802005
vt 0.520504236 0.634162843
vt 0.214833632 0.332609713
vt 0.214833707 0.715708554
vt 0.597932756 0.715708554
vt 0.597932577 0.332609653
vt 0.475225091 0.279643387
vt 0.475225091 0.575400233
vt 0.824790478 0.575400114
vt 0.824790359 0.279643327
vt 0.267833471 0.0163997579
vt 0.267833531 0.328599215
vt 0.636833012 0.328599125
vt 0.636832952 0.0163996238
vn -0.547519267 -0.666927695 -0.505400956
vn -0.547519267 -0.666927695 -0.505400956
vn -0.547519267 -0.666927695 -0.505400956
vn -0.547519267 -0.666927695 -0.505400956
vn -0.0150805097 0.996976256 0.0762292147
vn -0.0150805097 0.996976256 0.0762292147
vn -0.0150805097 0.996976256 0.0762292147
vn -0.0150805097 0.996976256 0.0762292147
vn 0.99747926 -0.0211530477 -0.0677317008
vn 0.99747926 -0.0211530477 -0.0677317008
vn 0.99747926 -0.0211530477 -0.0677317008
vn 0.99747926 -0.0211530477 -0.0677317008
vn -0.0645727217 0.0578764714 0.996233165
vn -0.0645727217 0.0578764714 0.996233165
vn -0.0645727217 0.0578764714 0.996233165
vn -0.0645727217 0.0578764714 0.996233165
g Model_0_0
f 3/3/3 2/2/2 1/1/1
f 4/4/4 3/3/3 1/1/1
f 7/7/7 6/6/6 5/5/5
f 8/8/8 7/7/7 5/5/5
f 11/11/11 10/10/10 9/9/9
f 12/12/12 11/11/11 9/9/9
f 15/15/15 14/14/14 13/13/13
f 16/16/16 15/15/15 13/13/13
