g Model_0
v 1.880353 -0.151885 3.837430
v 3.864774 -0.080246 3.598809
v 3.619941 0.125696 1.624564
v 1.635521 0.054056 1.863185
v -3.999999 0.100002 4.000000
v 3.999999 -0.099998 4.000000
v 3.999999 0.099998 -4.000000
v -3.999999 -0.100002 -4.000000
v -2.957672 0.147044 -0.069703
v -3.305201 0.087737 1.898978
v -1.342684 -0.091773 2.240011
v -0.995156 -0.032466 0.271330
v 2.012301 -0.239048 -0.833096
v 3.024790 0.058825 -2.531960
v 1.307525 0.049220 -3.557099
v 0.295037 -0.248653 -1.858235
v -0.540985 -0.046988 -3.271345
v -2.125808 0.170404 -2.070897
v -0.923091 0.118985 -0.473766
v 0.661732 -0.098407 -1.674214
v -0.874163 0.053458 4.759165
v 0.718984 0.071745 3.550220
v -0.490066 0.081143 1.957076
v -2.083213 0.062857 3.166020
vt 0.179001957 0.430713713
vt 0.0267338436 0.172800928
vt 0.285183698 0.0211556554
vt 0.43745172 0.2790685
vt 0.999999881 1
vt 0 0.999999762
vt 1.1920929E-07 0
vt 1 2.38418522E-07
vt 0.324070334 0.486130953
vt 0.524682879 0.263360679
vt 0.747338295 0.463649333
vt 0.54672569 0.686419606
vt 0.985209644 0.82536459
vt 0.728602648 0.976902485
vt 0.575109661 0.719614983
vt 0.831716597 0.568076909
vt 0.297321051 0.966847181
vt 0.0257660635 0.844215751
vt 0.149621904 0.571234465
vt 0.42117691 0.693865895
vt 0.725713134 0.00508186128
vt 0.992679358 0.141479701
vt 0.85612464 0.408638954
vt 0.589158416 0.272241175
vn 0.023073 -0.994039 -0.106554
vn 0.023073 -0.994039 -0.106554
vn 0.023073 -0.994039 -0.106554
vn 0.023073 -0.994039 -0.106554
vn 0.000000 -1.000000 0.000000
vn 0.000000 -1.000000 0.000000
vn 0.000000 -1.000000 0.000000
vn 0.000000 -1.000000 0.000000
vn -0.083293 -0.995522 -0.044694
vn -0.083293 -0.995522 -0.044694
vn -0.083293 -0.995522 -0.044694
vn -0.083293 -0.995522 -0.044694
vn 0.080420 -0.988835 -0.125451
vn 0.080420 -0.988835 -0.125451
vn 0.080420 -0.988835 -0.125451
vn 0.080420 -0.988835 -0.125451
vn -0.102232 -0.993743 0.044993
vn -0.102232 -0.993743 0.044993
vn -0.102232 -0.993743 0.044993
vn -0.102232 -0.993743 0.044993
vn 0.004443 -0.999947 -0.009271
vn 0.004443 -0.999947 -0.009271
vn 0.004443 -0.999947 -0.009271
vn 0.004443 -0.999947 -0.009271
g Model_0_0
f 3/3/3 2/2/2 1/1/1
f 4/4/4 3/3/3 1/1/1
f 7/7/7 6/6/6 5/5/5
f 8/8/8 7/7/7 5/5/5
f 11/11/11 10/10/10 9/9/9
f 12/12/12 11/11/11 9/9/9
f 15/15/15 14/14/14 13/13/13
f 16/16/16 15/15/15 13/13/13
f 19/19/19 18/18/18 17/17/17
f 20/20/20 19/19/19 17/17/17
f 23/23/23 22/22/22 21/21/21
f 24/24/24 23/23/23 21/21/21