g Model_0
v -0.047546 0.115756 0.750839
v 0.733993 -0.077933 1.343866
v 1.345895 -0.025129 0.554697
v 0.564356 0.168560 -0.038330
v -1.999999 0.050001 2.000000
v 1.999999 -0.049999 2.000000
v 1.999999 0.049999 -2.000000
v -1.999999 -0.050001 -2.000000
v -0.541131 0.235300 0.387440
v -1.527738 0.072390 0.395481
v -1.505693 -0.011951 1.391674
v -0.519086 0.150960 1.383633
v 0.421589 0.023130 -1.568552
v -0.565133 -0.097711 -1.460032
v -0.480121 0.087342 -0.480988
v 0.506601 0.208184 -0.589507
vt 0.601084173 0.370583445
vt 0.639348507 0.0305379555
vt 0.979394019 0.0688024387
vt 0.941129506 0.408847898
vt 0.999999881 1
vt 0 0.999999762
vt 1.1920929E-07 0
vt 1 2.38418522E-07
vt 0.16165483 0.448763847
vt 0.0264850557 0.151252955
vt 0.323996007 0.0160832405
vt 0.459165722 0.313594162
vt 0.0279316306 0.946481109
vt 0.0664037764 0.642111897
vt 0.370772958 0.680584073
vt 0.332300842 0.984953284
vn -0.121539 -0.979641 -0.159787
vn -0.121539 -0.979641 -0.159787
vn -0.121539 -0.979641 -0.159787
vn -0.121539 -0.979641 -0.159787
vn 0.000000 -1.000000 0.000000
vn 0.000000 -1.000000 0.000000
vn 0.000000 -1.000000 0.000000
vn 0.000000 -1.000000 0.000000
vn 0.161613 -0.983029 -0.086802
vn 0.161613 -0.983029 -0.086802
vn 0.161613 -0.983029 -0.086802
vn 0.161613 -0.983029 -0.086802
vn 0.138391 -0.975270 0.172324
vn 0.138391 -0.975270 0.172324
vn 0.138391 -0.975270 0.172324
vn 0.138391 -0.975270 0.172324
g Model_0_0
f 3/3/3 2/2/2 1/1/1
f 4/4/4 3/3/3 1/1/1
f 7/7/7 6/6/6 5/5/5
f 8/8/8 7/7/7 5/5/5
f 11/11/11 10/10/10 9/9/9
f 12/12/12 11/11/11 9/9/9
f 15/15/15 14/14/14 13/13/13
f 16/16/16 15/15/15 13/13/13