g Model_0
v -0.100717 0.105320 2.075093
v -0.509046 0.500874 1.252412
v 0.053299 -0.100041 0.684372
v 0.461629 -0.495594 1.507053
v 0.331981 -0.416149 3.853521
v -0.001746 -0.154624 4.759187
v -0.523079 0.594623 4.350725
v -0.189352 0.333098 3.445059
v 0.360430 -0.581478 3.028427
v -0.222821 0.062844 3.523066
v -0.462297 0.508327 2.660398
v 0.120954 -0.135995 2.165759
v -1.500000 0.100001 5.000000
v -1.500000 -0.100001 0.000000
v 0.100000 0.099999 0.000000
v -0.100000 -0.099999 5.000000
v 0.100000 0.099999 0.000000
v -0.100000 -1.500001 0.000000
v 0.100000 -1.499999 5.000000
v -0.100000 -0.099999 5.000000
vt 0.672448158 0.262817025
vt 0.453546882 0.144547075
vt 0.334631175 0.364360809
vt 0.553532422 0.48263073
vt 0.643762052 0.684517622
vt 0.39606601 0.717113972
vt 0.428292066 0.964959383
vt 0.675988138 0.932363033
vt 0.686889887 0.557310998
vt 0.494677842 0.397577792
vt 0.334871382 0.589921594
vt 0.527083516 0.74965477
vt 0.875 0.999999762
vt 0.874999881 0
vt 0.500000119 2.98023224E-08
vt 0.500000238 0.999999762
vt 0.499999881 0
vt 0.125 0
vt 0.125000328 1
vt 0.500000179 1
vn 0.719051 0.694578 -0.022933
vn 0.719051 0.694578 -0.022933
vn 0.719051 0.694578 -0.022933
vn 0.719051 0.694578 -0.022933
vn 0.785391 0.608468 0.113703
vn 0.785391 0.608468 0.113703
vn 0.785391 0.608468 0.113703
vn 0.785391 0.608468 0.113703
vn 0.776189 0.621606 0.105529
vn 0.776189 0.621606 0.105529
vn 0.776189 0.621606 0.105529
vn 0.776189 0.621606 0.105529
vn 0.000000 1.000000 0.000000
vn 0.000000 1.000000 0.000000
vn 0.000000 1.000000 0.000000
vn 0.000000 1.000000 0.000000
vn 1.000000 0.000000 0.000000
vn 1.000000 0.000000 0.000000
vn 1.000000 0.000000 0.000000
vn 1.000000 0.000000 0.000000
g Model_0_0
f 3/3/3 2/2/2 1/1/1
f 4/4/4 3/3/3 1/1/1
f 7/7/7 6/6/6 5/5/5
f 8/8/8 7/7/7 5/5/5
f 11/11/11 10/10/10 9/9/9
f 12/12/12 11/11/11 9/9/9
f 15/15/15 14/14/14 13/13/13
f 16/16/16 15/15/15 13/13/13
f 19/19/19 18/18/18 17/17/17
f 20/20/20 19/19/19 17/17/17