v -1.528846 -0.107508 1.413527
v -1.496844 0.116807 -0.005153
v 0.030620 0.016151 0.104742
v 0.041738 0.024125 1.511387
v 0.041738 0.024125 1.511387
v 0.030620 0.016151 0.104742
v -0.100001 -1.500000 -0.100000
v 0.100000 -1.500000 1.600001
v -1.500000 -1.500000 1.500001
v -1.528846 -0.107508 1.413527
v 0.041738 0.024125 1.511387
v 0.100000 -1.500000 1.600001
vt 0.214834005 0.332610011
vt 0.214834005 0.715708971
vt 0.597932994 0.715708971
vt 0.597932994 0.332610011
vt 0.475225002 0.279642999
vt 0.475225002 0.575399995
vt 0.824790001 0.575399995
vt 0.824790001 0.279642999
vt 0.267832994 0.0164000001
vt 0.267834008 0.328599006
vt 0.636833012 0.328599006
vt 0.636833012 0.0164000001
vn -0.015081 0.996976 0.076229
vn -0.015081 0.996976 0.076229
vn -0.015081 0.996976 0.076229
vn -0.015081 0.996976 0.076229
vn 0.997479 -0.021153 -0.067732
vn 0.997479 -0.021153 -0.067732
vn 0.997479 -0.021153 -0.067732
vn 0.997479 -0.021153 -0.067732
vn -0.064573 0.057877 0.996233
vn -0.064573 0.057877 0.996233
vn -0.064573 0.057877 0.996233
vn -0.064573 0.057877 0.996233
f 3/3/3 2/2/2 1/1/1
f 4/4/4 3/3/3 1/1/1
f 7/7/7 6/6/6 5/5/5
f 8/8/8 7/7/7 5/5/5
f 11/11/11 10/10/10 9/9/9
f 12/12/12 11/11/11 9/9/9
