g Model_0
v -0.0475460738 0.115756005 0.750838637
v 0.733993053 -0.0779328793 1.34386563
v 1.34589565 -0.0251285583 0.554697156
v 0.564356506 0.168560326 -0.0383298583
v -1.99999976 0.0500011295 1.99999964
v 1.99999988 -0.0499987602 2
v 1.99999976 0.0499988236 -1.99999952
v -1.99999976 -0.0500013232 -2
v -0.541130781 0.235300541 0.387440085
v -1.52773881 0.0723895207 0.395480514
v -1.50569379 -0.0119507089 1.3916738
v -0.519085705 0.150960296 1.38363314
v 0.421589375 0.0231299251 -1.56855154
v -0.565132856 -0.0977114737 -1.46003234
v -0.480120838 0.087342158 -0.480987817
v 0.506601453 0.208183557 -0.589507222
vt 0.601084173 0.370583445
vt 0.639348507 0.0305379555
vt 0.979394019 0.0688024387
vt 0.941129506 0.408847898
vt 0.999999881 1
vt 0 0.999999762
vt 1.1920929E-07 0
vt 1 2.38418522E-07
vt 0.16165483 0.448763847
vt 0.0264850557 0.151252955
vt 0.323996007 0.0160832405
vt 0.459165722 0.313594162
vt 0.0279316306 0.946481109
vt 0.0664037764 0.642111897
vt 0.370772958 0.680584073
vt 0.332300842 0.984953284
vn -0.121538796 -0.979640961 -0.159787402
vn -0.121538796 -0.979640961 -0.159787402
vn -0.121538796 -0.979640961 -0.159787402
vn -0.121538796 -0.979640961 -0.159787402
vn -0 -1 0
vn -0 -1 0
vn -0 -1 0
vn -0 -1 0
vn 0.161612689 -0.983029425 -0.0868021324
vn 0.161612689 -0.983029425 -0.0868021324
vn 0.161612689 -0.983029425 -0.0868021324
vn 0.161612689 -0.983029425 -0.0868021324
vn 0.138391003 -0.97527051 0.172323585
vn 0.138391003 -0.97527051 0.172323585
vn 0.138391003 -0.97527051 0.172323585
vn 0.138391003 -0.97527051 0.172323585
g Model_0_0
f 3/3/3 2/2/2 1/1/1
f 4/4/4 3/3/3 1/1/1
f 7/7/7 6/6/6 5/5/5
f 8/8/8 7/7/7 5/5/5
f 11/11/11 10/10/10 9/9/9
f 12/12/12 11/11/11 9/9/9
f 15/15/15 14/14/14 13/13/13
f 16/16/16 15/15/15 13/13/13
