g Model_0
v -0.100716688 0.105320446 2.07509327
v -0.509046137 0.500873923 1.25241196
v 0.0532991588 -0.100040585 0.684371889
v 0.461628556 -0.495594054 1.50705326
v 0.331980973 -0.41614902 3.85352087
v -0.0017464757 -0.15462403 4.75918674
v -0.523079097 0.594623148 4.35072517
v -0.189351797 0.333098352 3.44505906
v 0.360429823 -0.58147794 3.02842665
v -0.222821131 0.0628442839 3.52306604
v -0.462297112 0.508327484 2.66039753
v 0.120953828 -0.135994688 2.16575861
v -1.5 0.100000598 5
v -1.5 -0.100000598 0
v 0.0999999419 0.0999994054 0
v -0.100000061 -0.0999994054 5
v 0.0999999419 0.0999994054 0
v -0.100000061 -1.5000006 0
v 0.0999999419 -1.4999994 5
v -0.100000061 -0.0999994054 5
vt 0.672448158 0.262817025
vt 0.453546882 0.144547075
vt 0.334631175 0.364360809
vt 0.553532422 0.48263073
vt 0.643762052 0.684517622
vt 0.39606601 0.717113972
vt 0.428292066 0.964959383
vt 0.675988138 0.932363033
vt 0.686889887 0.557310998
vt 0.494677842 0.397577792
vt 0.334871382 0.589921594
vt 0.527083516 0.74965477
vt 0.875 0.999999762
vt 0.874999881 0
vt 0.500000119 2.98023224E-08
vt 0.500000238 0.999999762
vt 0.499999881 0
vt 0.125 0
vt 0.125000328 1
vt 0.500000179 1
vn 0.719051301 0.694578409 -0.0229334608
vn 0.719051301 0.694578409 -0.0229334608
vn 0.719051301 0.694578409 -0.0229334608
vn 0.719051301 0.694578409 -0.0229334608
vn 0.785390556 0.608468056 0.113702834
vn 0.785390556 0.608468056 0.113702834
vn 0.785390556 0.608468056 0.113702834
vn 0.785390556 0.608468056 0.113702834
vn 0.776189268 0.621605933 0.10552875
vn 0.776189268 0.621605933 0.10552875
vn 0.776189268 0.621605933 0.10552875
vn 0.776189268 0.621605933 0.10552875
vn -0 1 0
vn -0 1 0
vn -0 1 0
vn -0 1 0
vn 1 0 0
vn 1 0 0
vn 1 0 0
vn 1 0 0
g Model_0_0
f 3/3/3 2/2/2 1/1/1
f 4/4/4 3/3/3 1/1/1
f 7/7/7 6/6/6 5/5/5
f 8/8/8 7/7/7 5/5/5
f 11/11/11 10/10/10 9/9/9
f 12/12/12 11/11/11 9/9/9
f 15/15/15 14/14/14 13/13/13
f 16/16/16 15/15/15 13/13/13
f 19/19/19 18/18/18 17/17/17
f 20/20/20 19/19/19 17/17/17
