# generated by LodBaker -- retail ships no LODGroup for this prop
v -0.914999 0.5 0.125 1 1 1
v -1.034999 -0.375 2.6 1 1 1
v -1.034999 -0.375 -0 1 1 1
v -0.914999 0.5 2.475 1 1 1
v 1.034999 -0.375 -0 1 1 1
v 0.909999 0.5 2.475 1 1 1
v 0.909999 0.5 0.125 1 1 1
v 1.034999 -0.375 2.6 1 1 1
v -1.034999 -0.375 -0 1 1 1
v 1.034999 -0.375 2.6 1 1 1
v 1.034999 -0.375 -0 1 1 1
v -1.034999 -0.375 2.6 1 1 1
v 0.909999 0.5 0.125 1 1 1
v -1.034999 -0.375 -0 1 1 1
v -0.914999 0.5 0.125 1 1 1
v -0.914999 0.5 2.475 1 1 1
v -1.034999 -0.375 2.6 1 1 1
v 0.909999 0.5 2.475 1 1 1
v -0.914999 -0.25 0.125 1 1 1
v 0.909999 0.5 0.125 1 1 1
v 0.909999 -0.25 0.125 1 1 1
v -0.914999 0.5 0.125 1 1 1
v 0.909999 -0.25 0.125 1 1 1
v 0.909999 0.5 2.475 1 1 1
v 0.909999 -0.25 2.475 1 1 1
v 0.909999 0.5 0.125 1 1 1
v 0.909999 -0.25 2.475 1 1 1
v -0.914999 0.5 2.475 1 1 1
v -0.914999 -0.25 2.475 1 1 1
v 0.909999 0.5 2.475 1 1 1
v -0.914999 -0.25 2.475 1 1 1
v -0.914999 -0.25 0.125 1 1 1
v -0.914999 -0.25 2.475 1 1 1
v -0.914999 0.5 0.125 1 1 1
v -0.914999 -0.25 0.125 1 1 1
v -0.914999 0.5 2.475 1 1 1
vt 0.337334 0.43835402
vt 0.289599 0.48608798
vt 0.289599 0.43835402
vt 0.337334 0.48608798
vt 0.337334 0.43835402
vt 0.289599 0.48608798
vt 0.289599 0.43835402
vt 0.337334 0.48608798
vt 0.337334 0.43835402
vt 0.289599 0.48608798
vt 0.289599 0.43835402
vt 0.337334 0.48608798
vt 0.337334 0.43835402
vt 0.289599 0.48608798
vt 0.337334 0.48608798
vt 0.337334 0.43835402
vt 0.289599 0.43835402
vt 0.337334 0.48608798
vt 0.748179 0.47664303
vt 0.748179 0.428909
vt 0.748179 0.428909
vt 0.748179 0.47664303
vt 0.700445 0.428909
vt 0.700445 0.47664303
vt 0.700445 0.47664303
vt 0.700445 0.428909
vt 0.748179 0.47664303
vt 0.748179 0.428909
vt 0.748179 0.428909
vt 0.748179 0.47664303
vt 0.700445 0.47664303
vt 0.700445 0.428909
vt 0.748179 0.47664303
vt 0.748179 0.428909
vt 0.748179 0.428909
vt 0.748179 0.47664303
vn 0 1 -1.5259022E-05
vn -1 0 -1.5259022E-05
vn -1 0 -1.5259022E-05
vn 0 1 -1.5259022E-05
vn 1 0 -1.5259022E-05
vn 0 1 -1.5259022E-05
vn 0 1 -1.5259022E-05
vn 1 0 -1.5259022E-05
vn 0 -1 -1.5259022E-05
vn 0 -1 -1.5259022E-05
vn 0 -1 -1.5259022E-05
vn 0 -1 -1.5259022E-05
vn 0 1 -1.5259022E-05
vn 0 0 -1
vn 0 1 -1.5259022E-05
vn 0 1 -1.5259022E-05
vn -1.5259255E-05 -1.5259255E-05 1
vn 0 1 -1.5259022E-05
vn -1.5259255E-05 -1.5259255E-05 1
vn -1.5259255E-05 -1.5259255E-05 1
vn -1.5259255E-05 -1.5259255E-05 1
vn -1.5259255E-05 -1.5259255E-05 1
vn -1 0 -1.5259022E-05
vn -1 0 -1.5259022E-05
vn -1 0 -1.5259022E-05
vn -1 0 -1.5259022E-05
vn 0 0 -1
vn 0 0 -1
vn 0 0 -1
vn 0 0 -1
vn 0 1 -1.5259022E-05
vn 0 1 -1.5259022E-05
vn 1 0 -1.5259022E-05
vn 1 0 -1.5259022E-05
vn 1 0 -1.5259022E-05
vn 1 0 -1.5259022E-05
f 3/3/3 2/2/2 1/1/1
f 1/1/1 2/2/2 4/4/4
f 7/7/7 6/6/6 5/5/5
f 5/5/5 6/6/6 8/8/8
f 11/11/11 10/10/10 9/9/9
f 9/9/9 10/10/10 12/12/12
f 11/11/11 14/14/14 13/13/13
f 13/13/13 14/14/14 15/15/15
f 17/17/17 10/10/10 16/16/16
f 16/16/16 10/10/10 18/18/18
f 21/21/21 20/20/20 19/19/19
f 19/19/19 20/20/20 22/22/22
f 25/25/25 24/24/24 23/23/23
f 23/23/23 24/24/24 26/26/26
f 29/29/29 28/28/28 27/27/27
f 27/27/27 28/28/28 30/30/30
f 32/32/32 31/31/31 21/21/21
f 21/21/21 31/31/31 27/27/27
f 35/35/35 34/34/34 33/33/33
f 33/33/33 34/34/34 36/36/36
