g Model_0
v -1.034999 -0.375000 2.600000
v -1.034999 -0.375000 -0.000000
v -1.034999 0.500000 0.000000
v -1.034999 0.500000 2.600000
v 1.034999 0.500000 0.000000
v 0.909999 0.500000 0.125000
v -0.914999 0.500000 0.125000
v -1.034999 0.500000 0.000000
v 1.034999 0.500000 2.600000
v 1.034999 0.500000 0.000000
v 1.034999 -0.375000 -0.000000
v 1.034999 -0.375000 2.600000
v 1.034999 -0.375000 2.600000
v 1.034999 -0.375000 -0.000000
v -1.034999 -0.375000 -0.000000
v -1.034999 -0.375000 2.600000
v -1.034999 -0.375000 -0.000000
v 1.034999 -0.375000 -0.000000
v 1.034999 0.500000 0.000000
v -1.034999 0.500000 0.000000
v 1.034999 -0.375000 2.600000
v -1.034999 -0.375000 2.600000
v -1.034999 0.500000 2.600000
v 1.034999 0.500000 2.600000
v 0.909999 0.500000 0.125000
v 0.909999 -0.250000 0.125000
v -0.914999 -0.250000 0.125000
v -0.914999 0.500000 0.125000
v 0.909999 0.500000 2.475000
v 0.909999 -0.250000 2.475000
v 0.909999 -0.250000 0.125000
v 0.909999 0.500000 0.125000
v -0.914999 0.500000 2.475000
v -0.914999 -0.250000 2.475000
v 0.909999 -0.250000 2.475000
v 0.909999 0.500000 2.475000
v -0.914999 -0.250000 2.475000
v -0.914999 -0.250000 0.125000
v 0.909999 -0.250000 0.125000
v 0.909999 -0.250000 2.475000
v -1.034999 0.500000 0.000000
v -0.914999 0.500000 0.125000
v -0.914999 0.500000 2.475000
v -1.034999 0.500000 2.600000
v -1.034999 0.500000 2.600000
v -0.914999 0.500000 2.475000
v 0.909999 0.500000 2.475000
v 1.034999 0.500000 2.600000
v 1.034999 0.500000 2.600000
v 0.909999 0.500000 2.475000
v 0.909999 0.500000 0.125000
v 1.034999 0.500000 0.000000
v -0.914999 0.500000 0.125000
v -0.914999 -0.250000 0.125000
v -0.914999 -0.250000 2.475000
v -0.914999 0.500000 2.475000
v -0.966058 0.159672 2.344400
v -0.966058 0.159672 2.219400
v 0.966058 0.159672 2.219400
v 0.966058 0.159672 2.344400
v -0.966058 0.034672 2.219400
v 0.966058 0.034672 2.219400
v 0.966058 0.159672 2.219400
v -0.966058 0.159672 2.219400
v 0.966058 0.034672 2.344400
v -0.966058 0.034672 2.344400
v -0.966058 0.159672 2.344400
v 0.966058 0.159672 2.344400
v 0.966058 0.034672 2.344400
v 0.966058 0.034672 2.219400
v -0.966058 0.034672 2.219400
v -0.966058 0.034672 2.344400
v -0.966058 0.437500 0.921314
v -0.966058 0.437500 0.796314
v 0.966058 0.437500 0.796314
v 0.966058 0.437500 0.921314
v -0.966058 -0.323534 0.796314
v 0.966058 -0.323534 0.796314
v 0.966058 0.437500 0.796314
v -0.966058 0.437500 0.796314
v 0.966058 -0.323534 0.921314
v -0.966058 -0.323534 0.921314
v -0.966058 0.437500 0.921314
v 0.966058 0.437500 0.921314
vt 0.289599001 0.513912022
vt 0.289599001 0.561645985
vt 0.337334007 0.561645985
vt 0.337334007 0.513912022
vt 0.337334007 0.561645985
vt 0.337334007 0.561645985
vt 0.337334007 0.513912022
vt 0.337334007 0.513912022
vt 0.289599001 0.513912022
vt 0.289599001 0.561645985
vt 0.337334007 0.561645985
vt 0.337334007 0.513912022
vt 0.289599001 0.513912022
vt 0.289599001 0.561645985
vt 0.337334007 0.561645985
vt 0.337334007 0.513912022
vt 0.289599001 0.513912022
vt 0.289599001 0.561645985
vt 0.337334007 0.561645985
vt 0.337334007 0.513912022
vt 0.289599001 0.513912022
vt 0.289599001 0.561645985
vt 0.337334007 0.561645985
vt 0.337334007 0.513912022
vt 0.748179018 0.571090996
vt 0.748179018 0.571090996
vt 0.748179018 0.523356974
vt 0.748179018 0.523356974
vt 0.700444996 0.523356974
vt 0.700444996 0.523356974
vt 0.700444996 0.571090996
vt 0.700444996 0.571090996
vt 0.748179018 0.571090996
vt 0.748179018 0.571090996
vt 0.748179018 0.523356974
vt 0.748179018 0.523356974
vt 0.700444996 0.523356974
vt 0.700444996 0.571090996
vt 0.748179018 0.571090996
vt 0.748179018 0.523356974
vt 0.337334007 0.561645985
vt 0.337334007 0.561645985
vt 0.337334007 0.513912022
vt 0.337334007 0.513912022
vt 0.337334007 0.561645985
vt 0.337334007 0.561645985
vt 0.337334007 0.513912022
vt 0.337334007 0.513912022
vt 0.289599001 0.513912022
vt 0.289599001 0.513912022
vt 0.289599001 0.561645985
vt 0.289599001 0.561645985
vt 0.748179018 0.571090996
vt 0.748179018 0.571090996
vt 0.748179018 0.523356974
vt 0.748179018 0.523356974
vt 0.266813993 0.510015011
vt 0.266813993 0.510015011
vt 0.266813993 0.510015011
vt 0.266813993 0.510015011
vt 0.266813993 0.510015011
vt 0.266813993 0.510015011
vt 0.266813993 0.510015011
vt 0.266813993 0.510015011
vt 0.266813993 0.510015011
vt 0.266813993 0.510015011
vt 0.266813993 0.510015011
vt 0.266813993 0.510015011
vt 0.266813993 0.510015011
vt 0.266813993 0.510015011
vt 0.266813993 0.510015011
vt 0.266813993 0.510015011
vt 0.61154598 0.425013006
vt 0.61154598 0.425013006
vt 0.61154598 0.425013006
vt 0.61154598 0.425013006
vt 0.61154598 0.425013006
vt 0.61154598 0.425013006
vt 0.61154598 0.425013006
vt 0.61154598 0.425013006
vt 0.61154598 0.425013006
vt 0.61154598 0.425013006
vt 0.61154598 0.425013006
vt 0.61154598 0.425013006
vn -1.000000 0.000000 0.000000
vn -1.000000 0.000000 0.000000
vn -1.000000 0.000000 0.000000
vn -1.000000 0.000000 0.000000
vn 0.000000 1.000000 0.000000
vn 0.000000 1.000000 0.000000
vn 0.000000 1.000000 0.000000
vn 0.000000 1.000000 0.000000
vn 1.000000 0.000000 0.000000
vn 1.000000 0.000000 0.000000
vn 1.000000 0.000000 0.000000
vn 1.000000 0.000000 0.000000
vn 0.000000 -1.000000 -0.000000
vn 0.000000 -1.000000 -0.000000
vn 0.000000 -1.000000 -0.000000
vn 0.000000 -1.000000 -0.000000
vn 0.000000 0.000000 -1.000000
vn 0.000000 0.000000 -1.000000
vn 0.000000 0.000000 -1.000000
vn 0.000000 0.000000 -1.000000
vn 0.000000 -0.000000 1.000000
vn 0.000000 -0.000000 1.000000
vn 0.000000 -0.000000 1.000000
vn 0.000000 -0.000000 1.000000
vn 0.000000 -0.000000 1.000000
vn 0.000000 -0.000000 1.000000
vn 0.000000 -0.000000 1.000000
vn 0.000000 -0.000000 1.000000
vn -1.000000 0.000000 0.000000
vn -1.000000 0.000000 0.000000
vn -1.000000 0.000000 0.000000
vn -1.000000 0.000000 0.000000
vn 0.000000 0.000000 -1.000000
vn 0.000000 0.000000 -1.000000
vn 0.000000 0.000000 -1.000000
vn 0.000000 0.000000 -1.000000
vn 0.000000 1.000000 0.000000
vn 0.000000 1.000000 0.000000
vn 0.000000 1.000000 0.000000
vn 0.000000 1.000000 0.000000
vn 0.000000 1.000000 0.000000
vn 0.000000 1.000000 0.000000
vn 0.000000 1.000000 0.000000
vn 0.000000 1.000000 0.000000
vn 0.000000 1.000000 0.000000
vn 0.000000 1.000000 0.000000
vn 0.000000 1.000000 0.000000
vn 0.000000 1.000000 0.000000
vn 0.000000 1.000000 0.000000
vn 0.000000 1.000000 0.000000
vn 0.000000 1.000000 0.000000
vn 0.000000 1.000000 0.000000
vn 1.000000 0.000000 0.000000
vn 1.000000 0.000000 0.000000
vn 1.000000 0.000000 0.000000
vn 1.000000 0.000000 0.000000
vn 0.000000 1.000000 0.000000
vn 0.000000 1.000000 0.000000
vn 0.000000 1.000000 0.000000
vn 0.000000 1.000000 0.000000
vn 0.000000 0.000000 -1.000000
vn 0.000000 0.000000 -1.000000
vn 0.000000 0.000000 -1.000000
vn 0.000000 0.000000 -1.000000
vn 0.000000 -0.000000 1.000000
vn 0.000000 -0.000000 1.000000
vn 0.000000 -0.000000 1.000000
vn 0.000000 -0.000000 1.000000
vn 0.000000 -1.000000 -0.000000
vn 0.000000 -1.000000 -0.000000
vn 0.000000 -1.000000 -0.000000
vn 0.000000 -1.000000 -0.000000
vn 0.000000 1.000000 0.000000
vn 0.000000 1.000000 0.000000
vn 0.000000 1.000000 0.000000
vn 0.000000 1.000000 0.000000
vn 0.000000 0.000000 -1.000000
vn 0.000000 0.000000 -1.000000
vn 0.000000 0.000000 -1.000000
vn 0.000000 0.000000 -1.000000
vn 0.000000 -0.000000 1.000000
vn 0.000000 -0.000000 1.000000
vn 0.000000 -0.000000 1.000000
vn 0.000000 -0.000000 1.000000
g Model_0_0
f 3/3/3 2/2/2 1/1/1
f 4/4/4 3/3/3 1/1/1
f 7/7/7 6/6/6 5/5/5
f 8/8/8 7/7/7 5/5/5
f 11/11/11 10/10/10 9/9/9
f 12/12/12 11/11/11 9/9/9
f 15/15/15 14/14/14 13/13/13
f 16/16/16 15/15/15 13/13/13
f 19/19/19 18/18/18 17/17/17
f 20/20/20 19/19/19 17/17/17
f 23/23/23 22/22/22 21/21/21
f 24/24/24 23/23/23 21/21/21
f 27/27/27 26/26/26 25/25/25
f 28/28/28 27/27/27 25/25/25
f 31/31/31 30/30/30 29/29/29
f 32/32/32 31/31/31 29/29/29
f 35/35/35 34/34/34 33/33/33
f 36/36/36 35/35/35 33/33/33
f 39/39/39 38/38/38 37/37/37
f 40/40/40 39/39/39 37/37/37
f 43/43/43 42/42/42 41/41/41
f 44/44/44 43/43/43 41/41/41
f 47/47/47 46/46/46 45/45/45
f 48/48/48 47/47/47 45/45/45
f 51/51/51 50/50/50 49/49/49
f 52/52/52 51/51/51 49/49/49
f 55/55/55 54/54/54 53/53/53
f 56/56/56 55/55/55 53/53/53
f 59/59/59 58/58/58 57/57/57
f 60/60/60 59/59/59 57/57/57
f 63/63/63 62/62/62 61/61/61
f 64/64/64 63/63/63 61/61/61
f 67/67/67 66/66/66 65/65/65
f 68/68/68 67/67/67 65/65/65
f 71/71/71 70/70/70 69/69/69
f 72/72/72 71/71/71 69/69/69
f 75/75/75 74/74/74 73/73/73
f 76/76/76 75/75/75 73/73/73
f 79/79/79 78/78/78 77/77/77
f 80/80/80 79/79/79 77/77/77
f 83/83/83 82/82/82 81/81/81
f 84/84/84 83/83/83 81/81/81