g Model_0
v -1.500000 -1.500000 0.000000
v 1.500000 -1.500000 0.000000
v 1.500000 1.500000 0.000000
v -1.500000 1.500000 0.000000
v -1.500000 -1.500000 0.000000
v -1.500000 1.500000 0.000000
v 1.500000 1.500000 0.000000
v 1.500000 -1.500000 0.000000
vt 9.99999975E-05 9.99999975E-05
vt 0.999899983 9.99999975E-05
vt 0.999899983 0.999899983
vt 9.99999975E-05 0.999899983
vt 9.99999975E-05 9.99999975E-05
vt 9.99999975E-05 0.999899983
vt 0.999899983 0.999899983
vt 0.999899983 9.99999975E-05
vn 0.000000 0.000000 -1.000000
vn 0.000000 0.000000 -1.000000
vn 0.000000 0.000000 -1.000000
vn 0.000000 0.000000 -1.000000
vn 0.000000 0.000000 1.000000
vn 0.000000 0.000000 1.000000
vn 0.000000 0.000000 1.000000
vn 0.000000 0.000000 1.000000
g Model_0_0
f 3/3/3 2/2/2 1/1/1
f 4/4/4 3/3/3 1/1/1
f 7/7/7 6/6/6 5/5/5
f 8/8/8 7/7/7 5/5/5