g Model_0
v -0.763121 0.000000 1.250000
v -0.660882 -0.381561 0.000000
v -0.660882 -0.381561 1.250000
v 0.763121 0.000000 1.250000
v 0.660882 0.381560 0.000000
v 0.660882 0.381560 1.250000
v 0.664363 -0.443130 2.315774
v 0.664363 -0.443130 0.625000
v 0.726863 -0.334877 0.625000
v 0.664363 -0.443130 2.315774
v 0.726863 -0.334877 0.625000
v 0.726863 -0.334877 2.315774
v 0.726863 -0.334877 2.315774
v 0.726863 -0.334877 0.625000
v 0.835116 -0.397377 0.625000
v 0.726863 -0.334877 2.315774
v 0.835116 -0.397377 0.625000
v 0.835116 -0.397377 2.315774
v 0.835116 -0.397377 2.315774
v 0.835116 -0.397377 0.625000
v 0.772616 -0.505630 0.625000
v 0.835116 -0.397377 2.315774
v 0.772616 -0.505630 0.625000
v 0.772616 -0.505630 2.315774
v 0.772616 -0.505630 2.315774
v 0.772616 -0.505630 0.625000
v 0.664363 -0.443130 0.625000
v 0.772616 -0.505630 2.315774
v 0.664363 -0.443130 0.625000
v 0.664363 -0.443130 2.315774
v 0.664363 0.443130 2.315774
v 0.726863 0.334877 2.315774
v 0.726863 0.334877 0.625000
v 0.664363 0.443130 2.315774
v 0.726863 0.334877 0.625000
v 0.664363 0.443130 0.625000
v 0.726863 0.334877 2.315774
v 0.835116 0.397377 2.315774
v 0.835116 0.397377 0.625000
v 0.726863 0.334877 2.315774
v 0.835116 0.397377 0.625000
v 0.726863 0.334877 0.625000
v 0.835116 0.397377 2.315774
v 0.772616 0.505630 2.315774
v 0.772616 0.505630 0.625000
v 0.835116 0.397377 2.315774
v 0.772616 0.505630 0.625000
v 0.835116 0.397377 0.625000
v 0.772616 0.505630 2.315774
v 0.664363 0.443130 2.315774
v 0.664363 0.443130 0.625000
v 0.772616 0.505630 2.315774
v 0.664363 0.443130 0.625000
v 0.772616 0.505630 0.625000
v -0.664363 -0.443130 2.315774
v -0.726863 -0.334877 2.315774
v -0.726863 -0.334877 0.625000
v -0.664363 -0.443130 2.315774
v -0.726863 -0.334877 0.625000
v -0.664363 -0.443130 0.625000
v -0.726863 -0.334877 2.315774
v -0.835116 -0.397377 2.315774
v -0.835116 -0.397377 0.625000
v -0.726863 -0.334877 2.315774
v -0.835116 -0.397377 0.625000
v -0.726863 -0.334877 0.625000
v -0.835116 -0.397377 2.315774
v -0.772616 -0.505630 2.315774
v -0.772616 -0.505630 0.625000
v -0.835116 -0.397377 2.315774
v -0.772616 -0.505630 0.625000
v -0.835116 -0.397377 0.625000
v -0.772616 -0.505630 2.315774
v -0.664363 -0.443130 2.315774
v -0.664363 -0.443130 0.625000
v -0.772616 -0.505630 2.315774
v -0.664363 -0.443130 0.625000
v -0.772616 -0.505630 0.625000
v -0.664363 0.443130 2.315774
v -0.664363 0.443130 0.625000
v -0.726863 0.334877 0.625000
v -0.664363 0.443130 2.315774
v -0.726863 0.334877 0.625000
v -0.726863 0.334877 2.315774
v -0.726863 0.334877 2.315774
v -0.726863 0.334877 0.625000
v -0.835116 0.397377 0.625000
v -0.726863 0.334877 2.315774
v -0.835116 0.397377 0.625000
v -0.835116 0.397377 2.315774
v -0.835116 0.397377 2.315774
v -0.835116 0.397377 0.625000
v -0.772616 0.505630 0.625000
v -0.835116 0.397377 2.315774
v -0.772616 0.505630 0.625000
v -0.772616 0.505630 2.315774
v -0.772616 0.505630 2.315774
v -0.772616 0.505630 0.625000
v -0.664363 0.443130 0.625000
v -0.772616 0.505630 2.315774
v -0.664363 0.443130 0.625000
v -0.664363 0.443130 2.315774
v 0.000001 -0.692320 2.625000
v 0.000001 -0.692320 2.375000
v -0.999999 -0.692320 2.250000
v -0.999999 -0.692320 2.500000
v -0.999999 -0.692320 2.500000
v -0.999999 -0.692320 2.250000
v -1.000001 0.692319 2.250000
v -1.000001 0.692319 2.500000
v -0.000001 0.692320 2.625000
v -0.000001 0.692320 2.375000
v 0.999999 0.692320 2.250000
v 0.999999 0.692320 2.500000
v 0.999999 0.692320 2.500000
v 0.999999 0.692320 2.250000
v 1.000001 -0.692319 2.250000
v 1.000001 -0.692319 2.500000
v 0.000001 -0.692320 2.375000
v -0.000001 0.692320 2.375000
v -1.000001 0.692319 2.250000
v -0.999999 -0.692320 2.250000
v -0.000001 0.692320 2.625000
v 0.000001 -0.692320 2.625000
v -0.999999 -0.692320 2.500000
v -1.000001 0.692319 2.500000
v 1.000001 -0.692319 2.500000
v 1.000001 -0.692319 2.250000
v 0.000001 -0.692320 2.375000
v 0.000001 -0.692320 2.625000
v -1.000001 0.692319 2.500000
v -1.000001 0.692319 2.250000
v -0.000001 0.692320 2.375000
v -0.000001 0.692320 2.625000
v 1.000001 -0.692319 2.250000
v 0.999999 0.692320 2.250000
v -0.000001 0.692320 2.375000
v 0.000001 -0.692320 2.375000
v 0.999999 0.692320 2.500000
v 1.000001 -0.692319 2.500000
v 0.000001 -0.692320 2.625000
v -0.000001 0.692320 2.625000
v -0.763121 0.000000 1.250000
v -0.763121 0.000000 0.000000
v -0.660882 -0.381561 0.000000
v -0.660882 0.381560 1.250000
v -0.660882 0.381560 0.000000
v -0.381561 0.660882 1.250000
v -0.381561 0.660882 0.000000
v 0.000000 0.763121 1.250000
v 0.000000 0.763121 0.000000
v 0.381561 0.660882 1.250000
v 0.381561 0.660882 0.000000
v 0.660882 0.381560 1.250000
v 0.660882 0.381560 0.000000
v -0.660882 -0.381561 1.250000
v -0.660882 -0.381561 0.000000
v -0.381560 -0.660882 0.000000
v -0.381560 -0.660882 1.250000
v 0.000000 -0.763121 0.000000
v 0.000000 -0.763121 1.250000
v 0.381561 -0.660882 0.000000
v 0.381561 -0.660882 1.250000
v 0.660882 -0.381561 0.000000
v 0.660882 -0.381561 1.250000
v 0.763121 0.000000 0.000000
v 0.763121 0.000000 1.250000
v 0.660882 0.381560 0.000000
v -0.660882 -0.381561 1.250000
v -0.853175 -0.492581 1.250000
v -0.985161 0.000000 1.250000
v -0.381560 -0.660882 1.250000
v -0.763121 0.000000 1.250000
v -0.492580 -0.853175 1.250000
v -0.853175 0.492580 1.250000
v 0.000000 -0.763121 1.250000
v -0.660882 0.381560 1.250000
v 0.000000 -0.985161 1.250000
v -0.492581 0.853174 1.250000
v 0.381561 -0.660882 1.250000
v -0.381561 0.660882 1.250000
v 0.492581 -0.853175 1.250000
v 0.000000 0.985161 1.250000
v 0.660882 -0.381561 1.250000
v 0.000000 0.763121 1.250000
v 0.853175 -0.492581 1.250000
v 0.492581 0.853175 1.250000
v 0.763121 0.000000 1.250000
v 0.381561 0.660882 1.250000
v 0.985161 0.000000 1.250000
v 0.853175 0.492581 1.250000
v 0.660882 0.381560 1.250000
v -0.492581 0.853174 0.000000
v 0.000000 0.985161 1.250000
v -0.492581 0.853174 1.250000
v 0.000000 0.985161 0.000000
v -0.853175 0.492580 0.000000
v 0.492581 0.853175 1.250000
v -0.853175 0.492580 1.250000
v 0.492581 0.853175 0.000000
v -0.985161 0.000000 0.000000
v 0.853175 0.492581 1.250000
v -0.985161 0.000000 1.250000
v 0.853175 0.492581 0.000000
v -0.853175 -0.492581 0.000000
v 0.985161 0.000000 1.250000
v -0.853175 -0.492581 1.250000
v 0.985161 0.000000 0.000000
v -0.492580 -0.853175 0.000000
v 0.853175 -0.492581 1.250000
v -0.492580 -0.853175 1.250000
v 0.853175 -0.492581 0.000000
v 0.000000 -0.985161 0.000000
v 0.492581 -0.853175 1.250000
v 0.000000 -0.985161 1.250000
v 0.492581 -0.853175 0.000000
vt 0.751110017 0.769459009
vt 0.753525019 0.768450975
vt 0.750995994 0.768006027
vt 0.75642103 0.767576993
vt 0.754006982 0.768588006
vt 0.756536007 0.769032001
vt 0.762354016 0.304977
vt 0.766092002 0.222377002
vt 0.766322017 0.221434996
vt 0.762354016 0.304977
vt 0.766322017 0.221434996
vt 0.762223005 0.306327999
vt 0.762223005 0.306327999
vt 0.766322017 0.221434996
vt 0.766461015 0.222395003
vt 0.762223005 0.306327999
vt 0.766461015 0.222395003
vt 0.762223005 0.304971009
vt 0.762223005 0.304971009
vt 0.766461015 0.222395003
vt 0.766260028 0.222736001
vt 0.762223005 0.304971009
vt 0.766260028 0.222736001
vt 0.762310028 0.304522008
vt 0.762310028 0.304522008
vt 0.766260028 0.222736001
vt 0.766092002 0.222377002
vt 0.762310028 0.304522008
vt 0.766092002 0.222377002
vt 0.762354016 0.304977
vt 0.758885026 0.256406993
vt 0.758879006 0.253461987
vt 0.757281005 0.256781012
vt 0.758885026 0.256406993
vt 0.757281005 0.256781012
vt 0.75571698 0.254882991
vt 0.758879006 0.253461987
vt 0.755789995 0.253461987
vt 0.758957982 0.254987001
vt 0.758879006 0.253461987
vt 0.758957982 0.254987001
vt 0.757281005 0.256781012
vt 0.755789995 0.253461987
vt 0.755795002 0.256406993
vt 0.757393003 0.253087997
vt 0.755789995 0.253461987
vt 0.757393003 0.253087997
vt 0.758957982 0.254987001
vt 0.755795002 0.256406993
vt 0.758885026 0.256406993
vt 0.75571698 0.254882991
vt 0.755795002 0.256406993
vt 0.75571698 0.254882991
vt 0.757393003 0.253087997
vt 0.762211025 0.254987001
vt 0.760533988 0.256781012
vt 0.762131989 0.253461987
vt 0.762211025 0.254987001
vt 0.762131989 0.253461987
vt 0.759042978 0.253461987
vt 0.760533988 0.256781012
vt 0.758970022 0.254882991
vt 0.762138009 0.256406993
vt 0.760533988 0.256781012
vt 0.762138009 0.256406993
vt 0.762131989 0.253461987
vt 0.758970022 0.254882991
vt 0.760645986 0.253087997
vt 0.759047985 0.256406993
vt 0.758970022 0.254882991
vt 0.759047985 0.256406993
vt 0.762138009 0.256406993
vt 0.760645986 0.253087997
vt 0.762211025 0.254987001
vt 0.759042978 0.253461987
vt 0.760645986 0.253087997
vt 0.759042978 0.253461987
vt 0.759047985 0.256406993
vt 0.730565012 0.254987001
vt 0.733732998 0.253461987
vt 0.730643988 0.253461987
vt 0.730565012 0.254987001
vt 0.730643988 0.253461987
vt 0.732241988 0.256781012
vt 0.732241988 0.256781012
vt 0.730643988 0.253461987
vt 0.730638027 0.256406993
vt 0.732241988 0.256781012
vt 0.730638027 0.256406993
vt 0.733806014 0.254882991
vt 0.733806014 0.254882991
vt 0.730638027 0.256406993
vt 0.733727992 0.256406993
vt 0.733806014 0.254882991
vt 0.733727992 0.256406993
vt 0.732129991 0.253087997
vt 0.732129991 0.253087997
vt 0.733727992 0.256406993
vt 0.733732998 0.253461987
vt 0.732129991 0.253087997
vt 0.733732998 0.253461987
vt 0.730565012 0.254987001
vt 0.30628401 0.398517996
vt 0.30628401 0.483422995
vt 0.391189992 0.483422995
vt 0.391189992 0.398517996
vt 0.30628401 0.398517996
vt 0.30628401 0.483422995
vt 0.391189992 0.483422995
vt 0.391189992 0.398517996
vt 0.30628401 0.398517996
vt 0.30628401 0.483422995
vt 0.391189992 0.483422995
vt 0.391189992 0.398517996
vt 0.30628401 0.398517996
vt 0.30628401 0.483422995
vt 0.391189992 0.483422995
vt 0.391189992 0.398517996
vt 0.30628401 0.398517996
vt 0.30628401 0.483422995
vt 0.391189992 0.483422995
vt 0.391189992 0.398517996
vt 0.30628401 0.398517996
vt 0.30628401 0.483422995
vt 0.391189992 0.483422995
vt 0.391189992 0.398517996
vt 0.30628401 0.398517996
vt 0.30628401 0.483422995
vt 0.391189992 0.483422995
vt 0.391189992 0.398517996
vt 0.30628401 0.398517996
vt 0.30628401 0.483422995
vt 0.391189992 0.483422995
vt 0.391189992 0.398517996
vt 0.30628401 0.398517996
vt 0.30628401 0.483422995
vt 0.391189992 0.483422995
vt 0.391189992 0.398517996
vt 0.30628401 0.398517996
vt 0.30628401 0.483422995
vt 0.391189992 0.483422995
vt 0.391189992 0.398517996
vt 0.751110017 0.769459009
vt 0.753524005 0.768573999
vt 0.753525019 0.768450975
vt 0.751935005 0.770659029
vt 0.753588021 0.768683016
vt 0.753251016 0.771287024
vt 0.753697991 0.768751025
vt 0.754705012 0.771174014
vt 0.753827989 0.768755019
vt 0.755908012 0.770349026
vt 0.753939986 0.768693984
vt 0.756536007 0.769032001
vt 0.754006982 0.768588006
vt 0.750995994 0.768006027
vt 0.753525019 0.768450975
vt 0.753589988 0.768347979
vt 0.751627028 0.766689003
vt 0.753704011 0.76829201
vt 0.752830982 0.765865028
vt 0.753835022 0.768298984
vt 0.754283011 0.765751004
vt 0.75394702 0.768356979
vt 0.755594015 0.766375005
vt 0.754010022 0.768464029
vt 0.75642103 0.767576993
vt 0.754006982 0.768588006
vt 0.750995994 0.768006027
vt 0.750195026 0.767850995
vt 0.750338972 0.769725978
vt 0.751627028 0.766689003
vt 0.751110017 0.769459009
vt 0.751010001 0.766153991
vt 0.751401007 0.77127701
vt 0.752830982 0.765865028
vt 0.751935005 0.770659029
vt 0.752564013 0.765093029
vt 0.753095984 0.772089005
vt 0.754283011 0.765751004
vt 0.753251016 0.771287024
vt 0.754436016 0.764949977
vt 0.754971981 0.771946013
vt 0.755594015 0.766375005
vt 0.754705012 0.771174014
vt 0.756128013 0.765758991
vt 0.75652498 0.770883977
vt 0.75642103 0.767576993
vt 0.755908012 0.770349026
vt 0.757193029 0.76730901
vt 0.757339001 0.76918602
vt 0.756536007 0.769032001
vt 0.749525011 0.784341991
vt 0.754971981 0.771946013
vt 0.753095984 0.772089005
vt 0.758005977 0.784341991
vt 0.742182016 0.780101001
vt 0.75652498 0.770883977
vt 0.751401007 0.77127701
vt 0.765349984 0.780102015
vt 0.737944007 0.77275598
vt 0.757339001 0.76918602
vt 0.750338972 0.769725978
vt 0.76959002 0.772755027
vt 0.737946987 0.764276981
vt 0.757193029 0.76730901
vt 0.750195026 0.767850995
vt 0.769586027 0.764275014
vt 0.74218899 0.756936014
vt 0.756128013 0.765758991
vt 0.751010001 0.766153991
vt 0.76534301 0.756936014
vt 0.749530017 0.752700984
vt 0.754436016 0.764949977
vt 0.752564013 0.765093029
vt 0.758002996 0.752700984
vn 1.000000 0.000000 0.000000
vn 0.866025 0.500001 0.000000
vn 0.866025 0.500001 0.000000
vn -1.000000 0.000000 0.000000
vn -0.866026 -0.500000 0.000000
vn -0.866026 -0.500000 0.000000
vn -0.866025 0.500001 0.000000
vn -0.866025 0.500001 0.000000
vn -0.866025 0.500001 0.000000
vn -0.866025 0.500001 0.000000
vn -0.866025 0.500001 0.000000
vn -0.866025 0.500001 0.000000
vn 0.500001 0.866025 0.000000
vn 0.500001 0.866025 0.000000
vn 0.500001 0.866025 0.000000
vn 0.500001 0.866025 0.000000
vn 0.500001 0.866025 0.000000
vn 0.500001 0.866025 0.000000
vn 0.866025 -0.500001 0.000000
vn 0.866025 -0.500001 0.000000
vn 0.866025 -0.500001 0.000000
vn 0.866025 -0.500001 0.000000
vn 0.866025 -0.500001 0.000000
vn 0.866025 -0.500001 0.000000
vn -0.500001 -0.866025 0.000000
vn -0.500001 -0.866025 0.000000
vn -0.500001 -0.866025 0.000000
vn -0.500001 -0.866025 0.000000
vn -0.500001 -0.866025 0.000000
vn -0.500001 -0.866025 0.000000
vn -0.866025 -0.500001 0.000000
vn -0.866025 -0.500001 0.000000
vn -0.866025 -0.500001 0.000000
vn -0.866025 -0.500001 0.000000
vn -0.866025 -0.500001 0.000000
vn -0.866025 -0.500001 0.000000
vn 0.500001 -0.866025 0.000000
vn 0.500001 -0.866025 0.000000
vn 0.500001 -0.866025 0.000000
vn 0.500001 -0.866025 0.000000
vn 0.500001 -0.866025 0.000000
vn 0.500001 -0.866025 0.000000
vn 0.866025 0.500001 0.000000
vn 0.866025 0.500001 0.000000
vn 0.866025 0.500001 0.000000
vn 0.866025 0.500001 0.000000
vn 0.866025 0.500001 0.000000
vn 0.866025 0.500001 0.000000
vn -0.500001 0.866025 0.000000
vn -0.500001 0.866025 0.000000
vn -0.500001 0.866025 0.000000
vn -0.500001 0.866025 0.000000
vn -0.500001 0.866025 0.000000
vn -0.500001 0.866025 0.000000
vn 0.866025 0.500001 0.000000
vn 0.866025 0.500001 0.000000
vn 0.866025 0.500001 0.000000
vn 0.866025 0.500001 0.000000
vn 0.866025 0.500001 0.000000
vn 0.866025 0.500001 0.000000
vn -0.500001 0.866025 0.000000
vn -0.500001 0.866025 0.000000
vn -0.500001 0.866025 0.000000
vn -0.500001 0.866025 0.000000
vn -0.500001 0.866025 0.000000
vn -0.500001 0.866025 0.000000
vn -0.866025 -0.500001 0.000000
vn -0.866025 -0.500001 0.000000
vn -0.866025 -0.500001 0.000000
vn -0.866025 -0.500001 0.000000
vn -0.866025 -0.500001 0.000000
vn -0.866025 -0.500001 0.000000
vn 0.500001 -0.866025 0.000000
vn 0.500001 -0.866025 0.000000
vn 0.500001 -0.866025 0.000000
vn 0.500001 -0.866025 0.000000
vn 0.500001 -0.866025 0.000000
vn 0.500001 -0.866025 0.000000
vn 0.866025 -0.500001 0.000000
vn 0.866025 -0.500001 0.000000
vn 0.866025 -0.500001 0.000000
vn 0.866025 -0.500001 0.000000
vn 0.866025 -0.500001 0.000000
vn 0.866025 -0.500001 0.000000
vn -0.500001 -0.866025 0.000000
vn -0.500001 -0.866025 0.000000
vn -0.500001 -0.866025 0.000000
vn -0.500001 -0.866025 0.000000
vn -0.500001 -0.866025 0.000000
vn -0.500001 -0.866025 0.000000
vn -0.866025 0.500001 0.000000
vn -0.866025 0.500001 0.000000
vn -0.866025 0.500001 0.000000
vn -0.866025 0.500001 0.000000
vn -0.866025 0.500001 0.000000
vn -0.866025 0.500001 0.000000
vn 0.500001 0.866025 0.000000
vn 0.500001 0.866025 0.000000
vn 0.500001 0.866025 0.000000
vn 0.500001 0.866025 0.000000
vn 0.500001 0.866025 0.000000
vn 0.500001 0.866025 0.000000
vn 0.000000 -1.000000 0.000000
vn 0.000000 -1.000000 0.000000
vn 0.000000 -1.000000 0.000000
vn 0.000000 -1.000000 0.000000
vn -1.000000 0.000000 0.000000
vn -1.000000 0.000000 0.000000
vn -1.000000 0.000000 0.000000
vn -1.000000 0.000000 0.000000
vn 0.000000 1.000000 0.000000
vn 0.000000 1.000000 0.000000
vn 0.000000 1.000000 0.000000
vn 0.000000 1.000000 0.000000
vn 1.000000 0.000000 0.000000
vn 1.000000 0.000000 0.000000
vn 1.000000 0.000000 0.000000
vn 1.000000 0.000000 0.000000
vn 0.000000 0.000000 -1.000000
vn 0.000000 0.000000 -1.000000
vn 0.124035 0.000000 -0.992278
vn 0.124035 0.000000 -0.992278
vn 0.000000 0.000000 1.000000
vn 0.000000 0.000000 1.000000
vn -0.124035 0.000000 0.992278
vn -0.124035 0.000000 0.992278
vn 0.000000 -1.000000 0.000000
vn 0.000000 -1.000000 0.000000
vn 0.000000 -1.000000 0.000000
vn 0.000000 -1.000000 0.000000
vn 0.000000 1.000000 0.000000
vn 0.000000 1.000000 0.000000
vn 0.000000 1.000000 0.000000
vn 0.000000 1.000000 0.000000
vn -0.124035 0.000000 -0.992278
vn -0.124035 0.000000 -0.992278
vn 0.000000 0.000000 -1.000000
vn 0.000000 0.000000 -1.000000
vn 0.124035 0.000000 0.992278
vn 0.124035 0.000000 0.992278
vn 0.000000 0.000000 1.000000
vn 0.000000 0.000000 1.000000
vn 1.000000 0.000000 0.000000
vn 1.000000 0.000000 0.000000
vn 0.866025 0.500001 0.000000
vn 0.866026 -0.500000 0.000000
vn 0.866026 -0.500000 0.000000
vn 0.500001 -0.866025 0.000000
vn 0.500001 -0.866025 0.000000
vn 0.000000 -1.000000 0.000000
vn 0.000000 -1.000000 0.000000
vn -0.500001 -0.866025 0.000000
vn -0.500001 -0.866025 0.000000
vn -0.866026 -0.500000 0.000000
vn -0.866026 -0.500000 0.000000
vn 0.866025 0.500001 0.000000
vn 0.866025 0.500001 0.000000
vn 0.500000 0.866026 0.000000
vn 0.500000 0.866026 0.000000
vn 0.000000 1.000000 0.000000
vn 0.000000 1.000000 0.000000
vn -0.500000 0.866025 0.000000
vn -0.500000 0.866025 0.000000
vn -0.866025 0.500000 0.000000
vn -0.866025 0.500000 0.000000
vn -1.000000 0.000000 0.000000
vn -1.000000 0.000000 0.000000
vn -0.866026 -0.500000 0.000000
vn 0.000000 0.000000 1.000000
vn 0.000000 0.000000 1.000000
vn 0.000000 0.000000 1.000000
vn 0.000000 0.000000 1.000000
vn 0.000000 0.000000 1.000000
vn 0.000000 0.000000 1.000000
vn 0.000000 0.000000 1.000000
vn 0.000000 0.000000 1.000000
vn 0.000000 0.000000 1.000000
vn 0.000000 0.000000 1.000000
vn 0.000000 0.000000 1.000000
vn 0.000000 0.000000 1.000000
vn 0.000000 0.000000 1.000000
vn 0.000000 0.000000 1.000000
vn 0.000000 0.000000 1.000000
vn 0.000000 0.000000 1.000000
vn 0.000000 0.000000 1.000000
vn 0.000000 0.000000 1.000000
vn 0.000000 0.000000 1.000000
vn 0.000000 0.000000 1.000000
vn 0.000000 0.000000 1.000000
vn 0.000000 0.000000 1.000000
vn 0.000000 0.000000 1.000000
vn 0.000000 0.000000 1.000000
vn -0.500000 0.866025 0.000000
vn 0.000000 1.000000 0.000000
vn -0.500000 0.866025 0.000000
vn 0.000000 1.000000 0.000000
vn -0.866026 0.500000 0.000000
vn 0.499999 0.866026 0.000000
vn -0.866026 0.500000 0.000000
vn 0.499999 0.866026 0.000000
vn -1.000000 0.000000 0.000000
vn 0.866026 0.499999 0.000000
vn -1.000000 0.000000 0.000000
vn 0.866026 0.499999 0.000000
vn -0.866025 -0.500000 0.000000
vn 1.000000 0.000000 0.000000
vn -0.866025 -0.500000 0.000000
vn 1.000000 0.000000 0.000000
vn -0.499999 -0.866026 0.000000
vn 0.866026 -0.499999 0.000000
vn -0.499999 -0.866026 0.000000
vn 0.866026 -0.499999 0.000000
vn 0.000000 -1.000000 0.000000
vn 0.499999 -0.866026 0.000000
vn 0.000000 -1.000000 0.000000
vn 0.499999 -0.866026 0.000000
g Model_0_0
f 3/3/3 2/2/2 1/1/1
f 6/6/6 5/5/5 4/4/4
f 9/9/9 8/8/8 7/7/7
f 12/12/12 11/11/11 10/10/10
f 15/15/15 14/14/14 13/13/13
f 18/18/18 17/17/17 16/16/16
f 21/21/21 20/20/20 19/19/19
f 24/24/24 23/23/23 22/22/22
f 27/27/27 26/26/26 25/25/25
f 30/30/30 29/29/29 28/28/28
f 33/33/33 32/32/32 31/31/31
f 36/36/36 35/35/35 34/34/34
f 39/39/39 38/38/38 37/37/37
f 42/42/42 41/41/41 40/40/40
f 45/45/45 44/44/44 43/43/43
f 48/48/48 47/47/47 46/46/46
f 51/51/51 50/50/50 49/49/49
f 54/54/54 53/53/53 52/52/52
f 57/57/57 56/56/56 55/55/55
f 60/60/60 59/59/59 58/58/58
f 63/63/63 62/62/62 61/61/61
f 66/66/66 65/65/65 64/64/64
f 69/69/69 68/68/68 67/67/67
f 72/72/72 71/71/71 70/70/70
f 75/75/75 74/74/74 73/73/73
f 78/78/78 77/77/77 76/76/76
f 81/81/81 80/80/80 79/79/79
f 84/84/84 83/83/83 82/82/82
f 87/87/87 86/86/86 85/85/85
f 90/90/90 89/89/89 88/88/88
f 93/93/93 92/92/92 91/91/91
f 96/96/96 95/95/95 94/94/94
f 99/99/99 98/98/98 97/97/97
f 102/102/102 101/101/101 100/100/100
f 105/105/105 104/104/104 103/103/103
f 106/106/106 105/105/105 103/103/103
f 109/109/109 108/108/108 107/107/107
f 110/110/110 109/109/109 107/107/107
f 113/113/113 112/112/112 111/111/111
f 114/114/114 113/113/113 111/111/111
f 117/117/117 116/116/116 115/115/115
f 118/118/118 117/117/117 115/115/115
f 121/121/121 120/120/120 119/119/119
f 122/122/122 121/121/121 119/119/119
f 125/125/125 124/124/124 123/123/123
f 126/126/126 125/125/125 123/123/123
f 129/129/129 128/128/128 127/127/127
f 130/130/130 129/129/129 127/127/127
f 133/133/133 132/132/132 131/131/131
f 134/134/134 133/133/133 131/131/131
f 137/137/137 136/136/136 135/135/135
f 138/138/138 137/137/137 135/135/135
f 141/141/141 140/140/140 139/139/139
f 142/142/142 141/141/141 139/139/139
f 145/145/145 144/144/144 143/143/143
f 143/143/143 144/144/144 146/146/146
f 144/144/144 147/147/147 146/146/146
f 146/146/146 147/147/147 148/148/148
f 147/147/147 149/149/149 148/148/148
f 148/148/148 149/149/149 150/150/150
f 149/149/149 151/151/151 150/150/150
f 150/150/150 151/151/151 152/152/152
f 151/151/151 153/153/153 152/152/152
f 152/152/152 153/153/153 154/154/154
f 153/153/153 155/155/155 154/154/154
f 158/158/158 157/157/157 156/156/156
f 159/159/159 158/158/158 156/156/156
f 160/160/160 158/158/158 159/159/159
f 161/161/161 160/160/160 159/159/159
f 162/162/162 160/160/160 161/161/161
f 163/163/163 162/162/162 161/161/161
f 164/164/164 162/162/162 163/163/163
f 165/165/165 164/164/164 163/163/163
f 166/166/166 164/164/164 165/165/165
f 167/167/167 166/166/166 165/165/165
f 168/168/168 166/166/166 167/167/167
f 171/171/171 170/170/170 169/169/169
f 169/169/169 170/170/170 172/172/172
f 173/173/173 171/171/171 169/169/169
f 170/170/170 174/174/174 172/172/172
f 175/175/175 171/171/171 173/173/173
f 172/172/172 174/174/174 176/176/176
f 177/177/177 175/175/175 173/173/173
f 174/174/174 178/178/178 176/176/176
f 179/179/179 175/175/175 177/177/177
f 176/176/176 178/178/178 180/180/180
f 181/181/181 179/179/179 177/177/177
f 178/178/178 182/182/182 180/180/180
f 183/183/183 179/179/179 181/181/181
f 180/180/180 182/182/182 184/184/184
f 185/185/185 183/183/183 181/181/181
f 182/182/182 186/186/186 184/184/184
f 187/187/187 183/183/183 185/185/185
f 184/184/184 186/186/186 188/188/188
f 189/189/189 187/187/187 185/185/185
f 186/186/186 190/190/190 188/188/188
f 191/191/191 187/187/187 189/189/189
f 188/188/188 190/190/190 192/192/192
f 192/192/192 191/191/191 189/189/189
f 190/190/190 191/191/191 192/192/192
f 195/195/195 194/194/194 193/193/193
f 194/194/194 196/196/196 193/193/193
f 195/195/195 193/193/193 197/197/197
f 194/194/194 198/198/198 196/196/196
f 199/199/199 195/195/195 197/197/197
f 198/198/198 200/200/200 196/196/196
f 199/199/199 197/197/197 201/201/201
f 198/198/198 202/202/202 200/200/200
f 203/203/203 199/199/199 201/201/201
f 202/202/202 204/204/204 200/200/200
f 203/203/203 201/201/201 205/205/205
f 202/202/202 206/206/206 204/204/204
f 207/207/207 203/203/203 205/205/205
f 206/206/206 208/208/208 204/204/204
f 207/207/207 205/205/205 209/209/209
f 206/206/206 210/210/210 208/208/208
f 211/211/211 207/207/207 209/209/209
f 210/210/210 212/212/212 208/208/208
f 211/211/211 209/209/209 213/213/213
f 210/210/210 214/214/214 212/212/212
f 215/215/215 211/211/211 213/213/213
f 214/214/214 216/216/216 212/212/212
f 215/215/215 213/213/213 216/216/216
f 214/214/214 215/215/215 216/216/216