# generated by LodBaker -- retail ships no LODGroup for this prop
v 0.3 0.889758 -2E-06 1 1 1
v -0.3 0.444879 -0.770552 1 1 1
v 0.3 0.444879 -0.770553 1 1 1
v -0.3 0.444879 0.770554 1 1 1
v 0.3 0.444879 0.770553 1 1 1
v 0.3 0.444879 -0.770553 1 1 1
v -0.3 0.444879 -0.770552 1 1 1
v 0.3 -0.444879 -0.770553 1 1 1
v -0.3 -0.889758 -0 1 1 1
v 0.3 -0.889758 -2E-06 1 1 1
v 0.3 -0.889758 -2E-06 1 1 1
v -0.3 -0.889758 -0 1 1 1
v 0.3 -0.444879 0.770552 1 1 1
v -0.3 0.444879 0.770554 1 1 1
v 0.3 0.444879 0.770553 1 1 1
v -0.3 0.444879 0.770554 1 1 1
v -0.3 -0.889758 -0 1 1 1
v -0.3 0.444879 -0.770552 1 1 1
v 0.3 -0.269305 0.466449 1 1 1
v 0.3 0.53861 -2E-06 1 1 1
v 0.193786 0.53861 -2E-06 1 1 1
v 0.193786 -0.269305 0.466449 1 1 1
v 0.193786 -0.53861 -2E-06 1 1 1
v 0.193786 -0.269305 0.466449 1 1 1
v 0.193786 -0 -0.538611 1 1 1
v 0.193786 0.53861 -2E-06 1 1 1
v 0.3 -0.53861 -2E-06 1 1 1
v 0.3 -0.269305 0.466449 1 1 1
v 0.193786 -0.269305 0.466449 1 1 1
v 0.193786 -0.53861 -2E-06 1 1 1
v 0.3 -0 -0.538611 1 1 1
v 0.193786 -0 -0.538611 1 1 1
v 0.3 0.53861 -2E-06 1 1 1
v 0.193786 -0 -0.538611 1 1 1
v 0.193786 0.53861 -2E-06 1 1 1
v 0.3 0.889758 -2E-06 1 1 1
v 0.3 0.444879 -0.770553 1 1 1
v 0.3 0.53861 -2E-06 1 1 1
v 0.3 -0 -0.538611 1 1 1
v 0.3 -0.269305 0.466449 1 1 1
v 0.3 -0.444879 -0.770553 1 1 1
v 0.3 0.444879 0.770553 1 1 1
v 0.3 -0.889758 -2E-06 1 1 1
v 0.3 -0.444879 0.770552 1 1 1
v 0.3 -0.53861 -2E-06 1 1 1
vt 0.296591 0.11881
vt 0.280396 0.10061002
vt 0.296591 0.10061002
vt 0.280396 0.143673
vt 0.296591 0.143673
vt 0.236118 0.10061002
vt 0.252312 0.10061002
vt 0.236118 0.11881
vt 0.252312 0.143673
vt 0.236118 0.143673
vt 0.222113 0.143673
vt 0.205918 0.143673
vt 0.222113 0.11881
vt 0.205918 0.10061002
vt 0.222113 0.10061002
vt 0.258528 0.150334
vt 0.298706 0.16187298
vt 0.269293 0.19339699
vt 0.224979 0.11760497
vt 0.224979 0.143673
vt 0.222113 0.143673
vt 0.222113 0.11760497
vt 0.669179 0.144647
vt 0.687857 0.12462801
vt 0.687857 0.17931998
vt 0.720208 0.15930098
vt 0.233251 0.12458998
vt 0.233251 0.113572
vt 0.236118 0.113572
vt 0.236118 0.12458998
vt 0.233251 0.143673
vt 0.236118 0.143673
vt 0.233251 0.12163699
vt 0.230384 0.143673
vt 0.230384 0.12163699
vt 0.205918 0.16187298
vt 0.2229 0.143673
vt 0.215073 0.16450202
vt 0.232878 0.153485
vt 0.232878 0.18358499
vt 0.246096 0.150334
vt 0.212134 0.18673497
vt 0.252312 0.175197
vt 0.235331 0.19339699
vt 0.243157 0.17256802
vn 0 1 -1.5259022E-05
vn 0 0.500013 -0.86601794
vn 0 0.500013 -0.86601794
vn -2.0844192E-05 0.49999732 0.8660269
vn -2.0844192E-05 0.49999732 0.8660269
vn 0 0.500013 -0.86601794
vn 0 0.500013 -0.86601794
vn 0 -0.500013 -0.86601794
vn 0 -1 -1.5259022E-05
vn 0 -1 -1.5259022E-05
vn 0 -1 -1.5259022E-05
vn 0 -1 -1.5259022E-05
vn -2.0844513E-05 -0.5000467 0.86599845
vn -2.0844192E-05 0.49999732 0.8660269
vn -2.0844192E-05 0.49999732 0.8660269
vn -1 0 -1.5259022E-05
vn -1 0 -1.5259022E-05
vn -1 0 -1.5259022E-05
vn 0 0.500013 -0.86601794
vn 0 -1 -1.5259022E-05
vn 0 -1 -1.5259022E-05
vn 0 0.500013 -0.86601794
vn 1 0 -1.5259022E-05
vn 1 0 -1.5259022E-05
vn 1 0 -1.5259022E-05
vn 1 0 -1.5259022E-05
vn 0 1 -1.5259022E-05
vn 0 0.500013 -0.86601794
vn 0 0.500013 -0.86601794
vn 0 1 -1.5259022E-05
vn -1.5259255E-05 -1.5259255E-05 1
vn -1.5259255E-05 -1.5259255E-05 1
vn 0 -1 -1.5259022E-05
vn -1.5259255E-05 -1.5259255E-05 1
vn 0 -1 -1.5259022E-05
vn 1 0 -1.5259022E-05
vn 1 0 -1.5259022E-05
vn 1 0 -1.5259022E-05
vn 1 0 -1.5259022E-05
vn 1 0 -1.5259022E-05
vn 1 0 -1.5259022E-05
vn 1 0 -1.5259022E-05
vn 1 0 -1.5259022E-05
vn 1 0 -1.5259022E-05
vn 1 0 -1.5259022E-05
f 3/3/3 2/2/2 1/1/1
f 2/2/2 4/4/4 1/1/1
f 1/1/1 4/4/4 5/5/5
f 8/8/8 7/7/7 6/6/6
f 9/9/9 7/7/7 8/8/8
f 10/10/10 9/9/9 8/8/8
f 13/13/13 12/12/12 11/11/11
f 14/14/14 12/12/12 13/13/13
f 15/15/15 14/14/14 13/13/13
f 18/18/18 17/17/17 16/16/16
f 21/21/21 20/20/20 19/19/19
f 21/21/21 19/19/19 22/22/22
f 25/25/25 24/24/24 23/23/23
f 26/26/26 24/24/24 25/25/25
f 29/29/29 28/28/28 27/27/27
f 29/29/29 27/27/27 30/30/30
f 30/30/30 27/27/27 31/31/31
f 30/30/30 31/31/31 32/32/32
f 34/34/34 31/31/31 33/33/33
f 34/34/34 33/33/33 35/35/35
f 38/38/38 37/37/37 36/36/36
f 39/39/39 37/37/37 38/38/38
f 38/38/38 36/36/36 40/40/40
f 39/39/39 41/41/41 37/37/37
f 40/40/40 36/36/36 42/42/42
f 39/39/39 43/43/43 41/41/41
f 40/40/40 42/42/42 44/44/44
f 45/45/45 43/43/43 39/39/39
f 40/40/40 44/44/44 45/45/45
f 45/45/45 44/44/44 43/43/43
