g Model_0
v -0.371443838 0.126147673 2.5490942
v -0 0.126147673 1.91153479
v 0.371443838 0.126147673 2.5490942
v 0.600000024 -0.0261476673 2.67986155
v -0 -0.026147671 1.64999998
v -0.600000024 -0.0261476673 2.67986131
v 0.0499999635 0.0499999635 0
v 0.0499999635 -0.0500000305 0
v 0.0499999337 -0.0500000603 2.58551192
v 0.0499999933 0.0499999337 2.58551192
v 0.0499999635 -0.0500000305 0
v -0.0500000305 -0.0500000305 0
v -0.0500000603 -0.0500000305 2.58551192
v 0.0499999337 -0.0500000603 2.58551192
v -0.0500000305 -0.0500000305 0
v -0.0500000305 0.0499999933 0
v -0.0500000305 0.0499999635 2.58551192
v -0.0500000603 -0.0500000305 2.58551192
v 0.0499999933 0.0499999337 2.58551192
v -0.0500000305 0.0499999635 2.58551192
v -0.0500000305 0.0499999933 0
v 0.0499999635 0.0499999635 0
v -0.600000024 0.126147673 2.67986155
v 0.600000024 0.126147673 2.67986155
v 0.600000024 -0.0261476673 2.67986155
v -0.600000024 -0.0261476673 2.67986131
v 0.0499999933 0.0499999337 2.58551192
v 0.0499999337 -0.0500000603 2.58551192
v -0.0500000603 -0.0500000305 2.58551192
v -0.0500000305 0.0499999635 2.58551192
v -0.600000024 -0.0261476673 2.67986131
v -0 -0.026147671 1.64999998
v -0 0.126147673 1.64999998
v -0.600000024 0.126147673 2.67986155
v 0.600000024 0.126147673 2.67986155
v -0 0.126147673 1.64999998
v -0 -0.026147671 1.64999998
v 0.600000024 -0.0261476673 2.67986155
v 0.0499999635 0.0499999635 0
v -0.0500000305 0.0499999933 0
v -0.0500000305 -0.0500000305 0
v 0.0499999635 -0.0500000305 0
v -0.600000024 0.126147673 2.67986155
v -0.371443838 0.126147673 2.5490942
v 0.371443838 0.126147673 2.5490942
v -0 0.126147673 1.64999998
v 0.600000024 0.126147673 2.67986155
v -0 0.126147673 1.91153479
vt 0.670087457 0.496496975
vt 0.713623643 0.520111322
vt 0.713623703 0.472229242
vt 0.168640673 0.59970808
vt 0.168640673 0.522363424
vt 0.0983158648 0.560508013
vt 0.412704051 0.389546961
vt 0.405921638 0.389546961
vt 0.405921638 0.551523805
vt 0.41270411 0.551523805
vt 0.399139166 0.389546961
vt 0.392356694 0.389546961
vt 0.392356694 0.557326436
vt 0.399139166 0.557326436
vt 0.405921638 0.389546961
vt 0.399139166 0.389546961
vt 0.399139166 0.551523805
vt 0.405921638 0.551523805
vt 0.385574222 0.557326436
vt 0.392356694 0.557326436
vt 0.392356694 0.389546961
vt 0.385574222 0.389546961
vt 0.158311307 0.59970808
vt 0.158311307 0.677578688
vt 0.168640673 0.677578688
vt 0.168640673 0.59970808
vt 0.305429876 0.520604551
vt 0.312212288 0.520604551
vt 0.312212288 0.514115334
vt 0.305429876 0.514115334
vt 0.0983158648 0.674377859
vt 0.098315835 0.59970814
vt 0.0879864693 0.59970814
vt 0.0879864991 0.674377859
vt 0.0983158648 0.59970814
vt 0.0983158648 0.674377859
vt 0.108645231 0.674377859
vt 0.108645201 0.59970814
vt 0.385574222 0.389546961
vt 0.399139166 0.389546961
vt 0.392356694 0.389546961
vt 0.405921638 0.389546961
vt 0.0279910266 0.561563492
vt 0.0458500981 0.561429441
vt 0.0893863142 0.537161708
vt 0.098315835 0.59970814
vt 0.0983158648 0.522363424
vt 0.0893862844 0.585043788
vn -0 1 0
vn -0 1 0
vn -0 1 0
vn -0 -1 0
vn -0 -1 0
vn -0 -1 0
vn 1 0 0
vn 1 0 0
vn 1 0 0
vn 1 0 0
vn -0 -1 0
vn -0 -1 0
vn -0 -1 0
vn -0 -1 0
vn -1 0 0
vn -1 0 0
vn -1 0 0
vn -1 0 0
vn -0 1 0
vn -0 1 0
vn -0 1 0
vn -0 1 0
vn -0 0 1
vn -0 0 1
vn -0 0 1
vn -0 0 1
vn -0 0 1
vn -0 0 1
vn -0 0 1
vn -0 0 1
vn -0.864053488 0 -0.503399909
vn -0.864053488 0 -0.503399909
vn -0.864053488 0 -0.503399909
vn -0.864053488 0 -0.503399909
vn 0.864053607 0 -0.503399909
vn 0.864053607 0 -0.503399909
vn 0.864053607 0 -0.503399909
vn 0.864053607 0 -0.503399909
vn -0 0 -1
vn -0 0 -1
vn -0 0 -1
vn -0 0 -1
vn -0 1 0
vn -0 1 0
vn -0 1 0
vn -0 1 0
vn -0 1 0
vn -0 1 0
g Model_0_0
f 3/3/3 2/2/2 1/1/1
f 6/6/6 5/5/5 4/4/4
f 9/9/9 8/8/8 7/7/7
f 10/10/10 9/9/9 7/7/7
f 13/13/13 12/12/12 11/11/11
f 14/14/14 13/13/13 11/11/11
f 17/17/17 16/16/16 15/15/15
f 18/18/18 17/17/17 15/15/15
f 21/21/21 20/20/20 19/19/19
f 22/22/22 21/21/21 19/19/19
f 25/25/25 24/24/24 23/23/23
f 26/26/26 25/25/25 23/23/23
f 29/29/29 28/28/28 27/27/27
f 30/30/30 29/29/29 27/27/27
f 33/33/33 32/32/32 31/31/31
f 34/34/34 33/33/33 31/31/31
f 37/37/37 36/36/36 35/35/35
f 38/38/38 37/37/37 35/35/35
f 41/41/41 40/40/40 39/39/39
f 42/42/42 41/41/41 39/39/39
f 45/45/45 44/44/44 43/43/43
f 43/43/43 44/44/44 46/46/46
f 47/47/47 45/45/45 43/43/43
f 44/44/44 48/48/48 46/46/46
f 48/48/48 45/45/45 47/47/47
f 46/46/46 48/48/48 47/47/47
