g Grass_00_LOD_0
v 0.748494983 -0.0725493133 -0.996798277
v 1.11504018 1.09032047 -0.785173297
v -0.122459561 1.09032047 1.35823965
v -0.489004791 -0.0725492164 1.14661479
v 0.400094807 -0.0593584515 0.938139439
v 0.100194186 0.892080367 1.111287
v -0.912305474 0.892080307 -0.642414629
v -0.612404883 -0.0593585297 -0.815562248
v -1.125 -0.065953888 -0.136196971
v -1.125 0.991200328 -0.520969689
v 1.12499988 0.991200328 -0.52096957
v 1.125 -0.065953888 -0.136196911
vt 7.07006984E-05 7.08000298E-05
vt 7.07801591E-05 1.00000012
vt 0.999929368 1.00000012
vt 0.999929309 7.07006984E-05
vt 7.07006984E-05 7.08000298E-05
vt 7.07801591E-05 1.00000012
vt 0.999929368 1.00000012
vt 0.999929309 7.07006984E-05
vt 7.07006984E-05 7.08000298E-05
vt 7.07801591E-05 1.00000012
vt 0.999929368 1.00000012
vt 0.999929309 7.07006984E-05
vn 0.326064795 0.839693606 -0.434276909
vn 0.330102682 0.914889991 -0.232397467
vn -0.036210537 0.914889991 0.402076125
vn -0.213062122 0.839693666 0.499518692
vn 0.182547212 0.885176241 0.427948087
vn 0.032362029 0.932950854 0.358546317
vn -0.294329196 0.932950735 -0.207299873
vn -0.279340118 0.885176241 -0.372064799
vn -0.501896441 0.862791896 -0.0607472286
vn -0.34738639 0.923816562 -0.160890594
vn 0.34738633 0.923816562 -0.160890549
vn 0.501896143 0.862791955 -0.0607472062
g Grass_00_LOD_0_0
f 3/3/3 2/2/2 1/1/1
f 4/4/4 3/3/3 1/1/1
f 7/7/7 6/6/6 5/5/5
f 8/8/8 7/7/7 5/5/5
f 11/11/11 10/10/10 9/9/9
f 12/12/12 11/11/11 9/9/9
