v 0.450565338 11.969218975540128 -6.941341428272818
v -5.45147133 6.74256587360919 -1.4313481588673447
v 1.08136702 10.359632972853548 0.602454734855412
v 2.66580868 6.181424736750132 -5.312483577605287
v 0.317576647 9.091152290273797 -1.2742224845785464
v -3.57391167 6.119016694790653 -2.2131292333227766
v -4.42488956 4.176051324299808 4.2662649606995044
v -0.126649618 7.458251648191962 0.9386045449184118
v 3.2480731 2.08411993578819 0.7127795417183027
v -0.659508944 7.355337024908471 5.929300345227228
v 6.10041237 8.055947222946024 -1.5588245876556504
v -0.746553898 10.395696901044673 -1.4566164961049066
v -5.45147133 6.74256587360919 -1.4313481588673447
v 1.08136702 10.359632972853548 0.602454734855412
v 2.00337481 4.655887890190942 4.574550204400546
v 7.90541124 9.882540952121841 -0.9354432970049807
v 0.450565338 11.969218975540128 -6.941341428272818
v 5.50862789 8.506289734376448 0.4575887481349984
v 2.66580868 6.181424736750132 -5.312483577605287
v 0.317576647 9.091152290273797 -1.2742224845785464
v -0.731092274 8.443880742416818 3.5569429474176006
v -3.57391167 6.119016694790653 -2.2131292333227766
v -3.14463615 9.612899663901272 3.73866833642938
v 1.40363836 9.755975243564247 0.8392643680095153
v 3.42080927 8.231841910894 5.022916487631034
v 4.3213172 6.537802429975916 -1.4024813640358746
v 4.3213172 6.537802429975916 -1.4024813640358746
v -2.24412775 7.9188606629831915 -2.6867299852377107
v 1.40363836 9.755975243564247 0.8392643680095153
v -3.14463615 9.612899663901272 3.73866833642938
v -5.8130765 10.082745657977071 -2.2084825147064016
v -4.42488956 4.176051324299808 4.2662649606995044
v -0.126649618 7.458251648191962 0.9386045449184118
v 1.85988617 7.990815459465758 -5.76196685468749
v 3.2480731 2.08411993578819 0.7127795417183027
v 0.000645637512 11.165665592596831 -4.522287626913432
v -6.52501488 8.457822774986031 -1.573379145341741
v -1.72180545 9.236426767847309 0.9441253664048331
v 3.92540073 7.128968309124589 0.4561260568193664
v -2.60025978 4.421125511513765 3.405034339391004
v -1.72180545 9.236426767847309 0.9441253664048331
v 3.92540073 7.128968309124589 0.4561260568193664
v -6.52501488 8.457822774986031 -1.573379145341741
v -2.98357558 11.255676947901375 -6.433507723631728
v -1.51554978 9.648546734203661 1.249162170380495
v -8.23117638 6.965537669173276 1.0664845045451534
v 0.232649803 3.8509700570010907 5.206871832884948
v 0.232649803 3.8509700570010907 5.206871832884948
v 5.48025084 8.141108345729123 -2.2931199152916797
v -1.51554978 9.648546734203661 1.249162170380495
v -2.98357558 11.255676947901375 -6.433507723631728
v -8.01818466 7.170792015238966 -0.7310308978251688
v -0.746553898 10.395696901044673 -1.4566164961049066
v -0.659508944 7.355337024908471 5.929300345227228
v -1.25826216 7.871401263276296 -8.2191565417081
v 6.10041237 8.055947222946024 -1.5588245876556504
v -0.75460577 10.063982411058278 -7.004578378322385
v -1.08113134 8.850476597461268 0.7317819094171062
v -4.86173916 3.1544614143738037 -1.186792384762373
v 2.09682417 4.62252609591866 5.469245245749133
v 2.09682417 4.62252609591866 5.469245245749133
v 6.20395947 11.532048802603194 -0.34854203281143553
v -1.08113134 8.850476597461268 0.7317819094171062
v -0.75460577 10.063982411058278 -7.004578378322385
v -3.56813765 12.181952838504966 4.478691548900759
v 4.00885773 6.146221813478218 5.788074661872172
v 1.35201216 8.536897826759429 -0.22513149409355376
v -5.36139488 8.088558747561454 -4.013194284387195
v 2.21560097 2.052827032534548 -2.7038116514158115
v 1.35201216 8.536897826759429 -0.22513149409355376
v -5.36139488 8.088558747561454 -4.013194284387195
v 4.00885773 6.146221813478218 5.788074661872172
v 0.483157635 12.974766728131858 -6.066910691649257
v -0.717988968 15.947497656624593 0.10373002261590865
v -6.13639116 12.755068577850103 -0.2672420375198236
v 6.06726742 14.447474589837125 0.3623949567463944
v -0.552282631 14.227776439555448 6.162064200875977
v -1.84561181 13.392961139447063 5.507521707069657
v 1.36451161 14.239139448200573 -0.4834362057377592
v 4.34055758 9.072615104924388 1.2350376141804427
v -5.08027554 16.0801868061326 -1.8933100905977454
v 1.10589409 11.759839851610058 -6.1657922734863515
v 0.187925816 10.016104354977491 -5.141268999413699
v -0.312141538 10.324889610418797 0.1725114565035817
v -5.02311134 9.809614436868173 -0.8271909727573235
v 4.15994072 7.46567391053699 -0.4654880051119367
v -1.0510962 7.259184902427942 3.8485910905445873
v 5.15786791 17.334578212046896 1.3619708262991734
v -1.03377295 15.091263781246804 -1.0896057239334282
v 2.61035776 12.131696605879878 -5.389456406594556
v -1.92165709 14.938947597134511 5.879439793659332
v -4.46916723 9.73606610096744 -0.8719879182345339
v 3.24936175 10.277605002250725 3.8803814230542866
v -0.236171961 11.482656915088482 -0.9505008418127615
v 3.77427864 8.86191342833961 -3.6643440498369086
v -4.2862196 10.148593817727832 3.380309313585732
v -3.76130152 8.732900283816262 -4.164417589305562
v 1.0794661 10.022129401508508 6.363159926933149
v -0.00435304642 11.643955845796967 -0.13896836870593288
v 6.11488199 11.153865330276908 -0.5086654016013372
v -5.23601913 7.576170206969043 1.3325770299738762
v -0.200602531 8.707906195737468 -5.53924818456059
v 3.33907795 11.271445600146158 5.1037037597185915
v 0.380527139 12.155179681142986 -0.38712051831682925
v 4.87968636 9.334331481267293 -2.4775657423812945
v -4.34175205 10.987618462042647 3.615384500462956
v -2.80114293 9.050503463163507 -3.965886191637113
v -4.20400906 8.360064779192928 0.7885167906944088
v 0.623824358 10.849768112480506 -0.3370223872200029
v 1.27770102 10.480994330595507 4.632231006372222
v -0.0360591412 7.380350961548723 -4.615006221833563
v 5.44565058 9.501281002951446 -0.7712914171556668
v -1.46548533 13.539232019174468 5.954642460792443
v 0.947638273 15.299566425289033 -0.22583716789655733
v 5.76083088 11.746816476144117 1.4725887651133416
v -5.77076912 14.455408860415774 -1.3530665853059956
v 1.45554876 12.662994317385719 -5.835119090984929
v -6.02794743 12.884901754370837 -0.5718257111967622
v 1.17053223 12.643911270991389 0.5371432173815927
v -0.428284228 7.71112082725462 4.623419896294897
v 0.635909081 14.051063602045966 -6.593083129679772
v 6.23557329 8.877283144929653 -1.3978387071884764
v -4.90657234 11.364887301385188 -3.911824118886541
v 0.0924007893 14.665447268159678 -0.016917743121760656
v -3.44397616 12.48011064121241 4.944960167071487
v 3.83151174 11.850706964561091 -5.415992365569798
v 5.29410791 12.965930304388314 3.4407919303882335
v -2.32475066 17.757578975231706 4.386341726349327
v 0.979368925 18.753863013472824 -0.046701548888635445
v 3.6317656 14.834166838357882 1.825382129757787
v -4.18494368 19.62984325831074 -2.077515664234003
v 1.77157259 16.70643392143745 -4.638474070825618
v -1.61271071 4.525873515487797 -5.601443888438527
v -4.8254447 3.0678634922020764 0.6699035126717007
v -0.986550927 6.370744570767833 -0.2619710553931303
v 4.35903025 6.105149798046297 -2.1750313617992316
v 1.14629638 4.647139774760608 4.0963162743110555
v 2.81692243 2.7650002291335642 3.4804659210330606
v 4.57498074 5.313001281834271 -4.406219881125373
v 0.0516728163 7.111277479096666 -0.7916595572023618
v -5.25095081 4.3140534528666405 2.1824793537761136
v -3.49289227 6.862054025567283 -5.704206448382256
v -4.53092384 16.935045137223657 -3.2610411622684796
v 0.0971500874 16.819067332400657 -0.20385708048143306
v -2.97947502 14.913513744989162 3.28394152894099
v 1.88560247 15.393169761712857 -5.2582765215391545
v 3.43705058 13.371635469478022 1.2867065296707962
v 4.98760319 10.680745378192487 -1.911748299810593
v -0.707650661 13.468234614099854 -2.1991615172131413
v -2.07969236 8.777119156775786 -5.228595375088313
v 1.25141311 14.78665218284685 3.692568679600775
v -5.81588268 12.883027881430396 0.3757215173227745
v 5.75089455 16.587224975863492 -2.6256339844167775
v -1.47536349 14.098149976555044 -1.6199626149814426
v -0.423809052 11.129271940171087 -7.853188666633924
v 1.55325198 13.599979059729295 5.4514594350393715
v -4.62145138 8.142028974037318 0.22390503282189927
v 5.11075974 10.072057089623126 -0.47370873238697875
v -0.81699872 13.253145896457646 -1.3711037483450306
v -0.29293251 11.039808831556053 -7.083569469462879
v -1.35229349 10.728624500663155 4.906097212544665
v -6.75598574 11.69637714259616 -1.7037638235314307
v -3.68154788 6.247577510421204 3.207856633993118
v 3.50686598 5.311107606882745 1.5874536489335627
v -0.0391384363 8.444957802700456 -0.8332494839399349
v -5.06131887 7.764525944046557 -3.7897494841920585
v 2.12709546 6.8280565305083085 -5.410151389251405
v 4.41897726 16.67830112948091 -0.8290974571092785
v -1.36364508 16.391859121593857 -1.3456324736000838
v -0.211148739 13.104225249297087 -5.294565923201143
v -0.556193471 16.58072561997038 4.407623129866222
v -5.1863203 13.00665263978671 -0.05784708652647419
v -3.39374733 11.667648529803259 4.183955643266443
v -0.554562211 10.33497173364779 -1.1532342510178812
v 3.52125216 8.52771331793241 2.248892924474176
v -6.46567345 8.901018076317497 -2.3043750402461836
v 0.449326754 5.7610814244466155 -4.239436569037955
v 3.64074945 11.575391095068971 -2.680786695017739
v -1.84036171 11.711759164598767 -0.8111101302496259
v -2.81131506 9.456902088434338 -5.449468882429613
v 1.15643775 10.4370251370043 3.9796236367994484
v -5.29562616 8.3185370803697 1.2109407393872653
v -5.1179924 11.722737095545597 0.8967929713451639
v -1.00587702 7.442932226500627 3.918438423567573
v -0.251142621 9.966102981809316 -0.053773057068813565
v -2.36246133 10.305663831634337 -4.860290287071321
v 1.74965429 6.025858962589561 -1.838643395848547
v 5.78874683 5.405874988818049 0.09296647964643504
v -0.440666199 4.220989344685616 -6.865508958001253
v -1.16349018 7.728974272659481 -1.1595566524823377
v -1.13989592 6.3144095034903245 6.1409699887576785
v -7.36930847 5.129523859357687 -0.8175069714903952
v 2.29614162 10.073980295463986 4.033494139237561
v -0.81444633 11.628288721330174 -1.0496772885276615
v 0.627941608 6.493779691211516 -2.688958534330624
v -4.15984821 14.146150066461363 3.4668421084208116
v -5.8280468 10.56594758220848 -3.255611755147423
v 4.16507006 14.65868562084052 -1.1066167201261903
v -2.37562275 13.158955388570444 -0.5913400759665016
v -1.53181887 10.853531528945018 -6.172449753403973
v -0.046159029 12.011401668624957 5.617694190630563
v -5.74304771 8.206246596728986 0.5518586543522781
v -0.731981695 13.483814102733996 6.631973609987911
v -0.770591021 15.143177968089747 -1.239444698902943
v 6.20915079 13.090738050000612 -0.8101885892939067
v -7.98139429 11.784758278059403 -0.03964938123985085
v -1.04026127 11.391681225325943 -7.481811137721422
v -1.45348227 7.302752170098439 4.457533989099444
v 3.42117119 5.3263576003937745 -0.03907106355021477
v -0.514915228 8.22023014042955 -0.8487062536651389
v -5.95442438 7.735834127126301 -0.6121780896062688
v -1.07977009 5.759440037421921 -5.108781499255576
v -4.66791058 17.420522959783366 -1.345785681848976
v 0.28635931 18.44695535265369 0.5518198474130537
v -1.4101131 16.166129081702415 4.537400658478361
v 1.18524551 17.21195769030589 -4.631426956960262
v 4.44304323 15.957559012224342 1.2517597333678077
v 4.90850639 18.553125655144814 -2.512912299970217
v -1.5491488 17.145403498632035 1.4513020243680055
v -4.3996563 16.886838608223893 -4.917224105746697
v 3.81334114 13.260747506537356 5.394796436250187
v -5.49482155 11.594461459616443 2.990483680473333
v -7.11339474 16.423231529827678 0.9171044159426867
v -0.0202572346 18.10119123160936 0.7409562078284581
v -0.0115731955 15.23592484626897 6.692433959907223
v -1.42986059 16.1230062421704 -6.133562951543842
v 5.67196083 14.935696658611551 -0.3582315855784536
v -2.03642178 2.763952847093358 5.178162561655524
v 3.6862154 3.4721683655605795 1.2581534125112002
v -0.948512733 5.042179825524977 0.28329708237385465
v -5.90423155 2.759970017813078 -0.46899293174792567
v -0.181592703 3.468184826280216 -4.389001998892134
v -1.99738109 15.211136023213735 7.289903924737153
v -0.0588212013 14.996647028605738 0.10176772687348652
v 5.03169346 11.227942434836704 2.4282975771659205
v -7.4912529 14.575455740539025 -0.13249998793857864
v -0.4621768 10.592263052162078 -4.994106599509999
v 3.61782551 12.183251803576713 -1.7367752073179623
v -2.35987139 9.95384652605264 1.255334070925777
v -4.15125179 9.050979230455058 -4.805223514530221
v 2.62061119 7.483732075948768 5.585365230765244
v -5.14846563 4.351459952827061 2.516916093552715
v -6.78567219 6.509803926295422 -1.848441273355243
v -3.20539236 4.979077522375711 7.021441141430698
v -0.387285888 8.572143044397787 1.8060180162056951
v 2.05022836 7.1454899372456016 -5.3053030153151735
v 5.63050699 5.614763543326084 3.564580829471128
v -4.87506437 21.187140086605545 -2.679945896227641
v 0.389194012 18.171873899610237 1.9206631854676948
v -4.76182652 13.9263519627067 3.6586952266004555
v 4.34107304 19.860395582031085 -4.36435027507908
v 4.45431185 12.599606558132086 1.9742906077490767
v -1.86721659 15.84519288312364 5.613190424384949
v 0.818039656 15.168852048071093 0.8187142185309969
v 2.71136236 11.147499120100962 3.143342029286662
v -4.17547798 16.953344573895343 -0.7735751569851019
v 0.403100967 12.255654610873306 -3.243422589083655
v 0.893934727 14.955002277560368 -4.702159741654011
v -1.00268292 16.669130803764897 1.2215018000894253
v -5.85909176 13.774534115560828 -0.2617604531040393
v 5.25233936 15.303860127468255 2.0189155357242594
v -1.50068665 14.123391965468679 6.459314560274165
v -4.4686389 12.52384815357766 -0.9609511093558262
v -0.22634232 14.334717132071162 2.2780414416432215
v -1.13898587 10.004429892504618 4.825294369357563
v 1.40520144 15.802728431803935 -2.913337471965191
v 4.73485279 13.283308270730737 2.8729087237486346
v -5.03559303 14.802736856888268 -3.2152003641503235
v -0.144493818 18.01344934553595 0.9323503591488073
v -2.97301483 14.517913705998852 5.622173264994354
v 3.45422387 16.72041095662217 -5.134855478570053
v 5.5168004 16.435587705732708 3.702517910574577
v -4.04259825 17.14350442656131 6.1267258801615805
v 1.35156465 16.68683474092587 0.7361023136289123
v 4.76411343 13.176637326629193 5.628445286797029
v -5.13475704 15.893057602548566 -3.2214072622183867
v 3.67195392 11.926190502616734 -3.719685715582395
v 4.44757938 10.77437221237406 4.203235248174674
v 1.05526555 14.389264296180631 1.2120941140240742
v 4.02778339 12.832121245305997 -2.8193395690030902
v -2.61072493 11.944981972432707 4.968178404858141
v -3.03052044 14.002732005364718 -2.0543968823198764
v -0.689744949 13.960752678321187 -5.190798611971061
v 0.00426673889 15.492534122934934 1.7965010839770337
v -5.42358971 11.933577513759912 2.310068542378521
v 6.78986168 14.461642298039477 -0.33500030799436514
v 2.05601621 12.434463233477763 7.165867476355901
v 5.07550907 16.062688858507844 -1.4859959249648567
v -0.337389112 16.6276002269365 1.4354930299307767
v -2.41626859 16.045560555076065 -3.727236510970671
v 3.03389573 13.253174400838446 5.359953938432754
v -4.45788097 13.236047997406631 3.11871120242614
v 6.53684998 10.21534983464503 1.9509125521670299
v 0.00537765026 10.980375941207019 1.2347255077768375
v 1.25249577 9.985137721358281 -4.541818723251582
v 0.518074512 7.671520293149341 6.939720408955534
v -4.76628017 7.441306699862364 0.4469889185370668
v -4.62583256 11.198625670336906 3.466109364260865
v 1.18435705 14.140751876447506 0.5694620934629151
v 3.34631991 13.97745407174651 6.651976868735224
v -0.879745483 9.42773029045451 -4.363275513086121
v 7.0924077 12.20656158186457 -1.1774075386120306
v -3.40837598 7.321099030069296 5.034390742906862
v 5.66742516 4.346450118955649 4.725938934363589
v 2.04029155 7.421447291846878 -0.18822950286578513
v -4.17254877 5.948541393082134 -4.213769397716476
v 4.90325165 2.9738934319685506 -4.522221676259996
v -3.16640949 16.889254778581563 6.023874018242306
v 0.751378775 18.700308361355827 -0.3810410071709229
v 6.30797195 17.34886072150491 3.650908974781926
v -5.34840441 14.81368507517497 -3.0900451238859348
v 4.12597752 15.273291918098465 -5.463009937346377
v 5.63219404 12.77375720018381 2.8573963282778583
v 1.2017796 15.92630502198961 -0.13285708252762077
v 1.5507226 11.645008159452864 -3.7597614679650047
v -0.290903568 16.71115412983058 5.839132975327258
v -4.37237406 15.582406089099639 -0.7780257719159802
v 6.23132563 12.24335288622057 1.795324450234783
v 1.350703 14.967181235300929 -0.5632114487850414
v 2.24888182 11.49665160929148 -4.729019523804935
v -0.00557363033 14.568091174324671 5.336252565752196
v -3.98801756 13.821389897395406 -1.1880927182878531
v 2.78541088 12.559899728071235 4.767364501318523
v 1.57018447 13.026533769890891 -1.3422214405740638
v 6.2623105 9.898600705671704 -1.8182131110050286
v -4.10452509 12.402342726714549 1.1934457462558492
v -0.627624989 9.741042724314918 -5.392131616067507
v 1.23892641 20.359325145913598 6.032041294078761
v -0.165508032 18.94032910009845 -1.076985557889171
v 6.50667286 18.93949363523348 -1.5589242799812124
v -5.32977247 15.032268051595246 2.4700789866157127
v -0.062025547 13.612435540914863 -5.120887547444371
v -1.06580901 9.219862935106198 4.959376358769958
v 1.89841139 10.368336065283806 -0.9511394152558663
v 6.22158146 6.763651979766743 1.347214842854536
v -4.59188557 9.836865445843978 -2.5738988543281627
v 2.69550538 7.3806535405044285 -6.186060130243397
v -4.50711298 10.213799984173459 0.8325391127914202
v 2.00035524 11.31569829401584 0.5481706156348968
v 2.11725998 7.496929439889941 5.154935659848846
v 0.219958782 11.168545519710316 -5.8119198043099765
v 6.8443327 8.451674445426725 -1.4895232532524783
v 6.14583635 7.965626780895146 -0.3673548114015576
v 1.49878287 3.659156295055152 -5.631077299501526
v -0.181490064 6.498062902802848 -0.7462811363050639
v 1.0440793 6.136325991358406 5.633338103965505
v -3.60297441 1.8298558555184337 0.369615432865444
v 2.60208082 2.643754654405265 -4.918222602316153
v -4.39555645 4.0782129715124515 -2.35512323512798
v 0.357519269 5.564929252276005 -0.18920623367390887
v 5.19876909 2.8390914784777674 2.0617975213491757
v -1.79886901 4.273549325584987 4.624897598537592
v -3.49299145 12.305508839687517 -3.8230953227685323
v 0.475945473 15.545616167212964 -0.9041330149497064
v -2.68393087 14.485457885698272 3.2707098330989273
v 3.77984691 12.479564744438873 -4.706063760047118
v 4.58890724 14.659513890449736 2.3877421058205077
v 4.61446238 15.882715709766828 2.052588036488188
v 0.319871664 16.297392044839917 -1.0781505930827238
v 3.32681131 14.574657861452572 -4.441701634507519
v -1.7145822 14.63244494422193 3.5593000765272063
v -3.00223255 13.324386995907467 -2.934991034468852
v 0.347882271 16.67390943156357 -7.507685993996327
v -0.0299839973 14.687613591317643 0.133275029384097
v -6.63786983 12.570441769262208 -1.6350841135547245
v 7.38063955 12.790310469185634 -1.8555227989922418
v 0.394885659 8.686843666884343 4.017078731449156
v -4.7054987 11.30239390797721 2.8982130763182967
v 1.81936562 10.37419924820193 -1.0841388687680575
v 2.66101027 4.9240061199406835 3.1881557968310834
v -3.22029972 12.591951222907976 -6.467250821728116
v 4.14620972 6.213562494871322 -6.177308101215203
v 6.66685009 10.475688793941458 -4.566578565439744
v -0.381552219 11.549934687830056 -1.9649321100795478
v -2.00021434 7.050560969447774 -6.905817818400154
v 3.81881237 11.588463042320855 4.356306577608412
v -4.84825277 8.163334307826922 2.017066374647883
v 5.26817417 4.899862744795752 2.057593213400334
v 2.45893621 4.654930934392253 -5.664227641698485
v -0.457184076 6.096059566590476 -0.7626526944436813
v -2.12694931 3.1959439545978094 4.80202514823726
v -4.93618584 2.9510126141941826 -2.9197971268619822
v -0.774274349 2.925306808338784 -6.361339666073638
v -5.70293999 5.033931080300811 0.7736566038216861
v 0.373577833 6.577772014365098 -0.44222499191574116
v 6.46493721 3.1708393034610727 -1.4332462094557183
v 1.53627062 5.279463815423262 5.701751016439816
v -1.97944415 15.048724874697646 4.114119031280729
v 0.725483894 16.5057355823255 -1.007498113160296
v 5.10742569 14.585149063813036 1.5195808156740547
v -4.55911875 14.389443055214874 -2.81436111698061
v 2.52775216 13.925867244330345 -5.408898732587133
v 0.501877308 18.236005638828146 -5.294335822642672
v 0.118914366 17.957830947099684 0.2553315819512531
v -4.38926888 15.934507537953973 -0.7665163983054998
v 5.46098804 16.71275544990247 -0.71155909893454
v 0.569841206 14.41125924902874 3.8162617514027395
v -1.29928422 3.8809623417968773 -5.877133951695242
v -5.24130392 6.391000344322416 1.2327803839066345
v -0.176658273 8.651917490644154 -1.278796486723305
v 6.00206137 6.444458508536411 -2.7339750591186442
v 2.06004095 8.954496271061918 4.3759392764832645
v 7.20490122 13.626966534437248 0.7705754374904311
v 0.569425344 14.20171547522033 -0.24491075022706862
v 2.17176199 13.720930121949943 -6.114809094048386
v 0.948958039 10.39291970841114 5.299468467395968
v -4.08418131 10.486883395923705 -1.5859171411431359
vt 1 1
vt 0.5 1
vt 0.75 0.479880184
vt 0 1
vt 0.25 0.479880184
vt 1.49011612E-08 0
vt 0.5 0
vt 0.75 0.479880184
vt 1 2.98023224E-08
vt 0 1
vt 1.49011612E-08 0
vt 0.25 0.479880184
vt 0.5 1
vt 0.75 0.479880184
vt 0.5 0
vt 1 2.98023224E-08
vt 1 1
vt 0.5 1
vt 0 1
vt 0.25 0.479880184
vt 0.5 2.98023224E-08
vt 1.49011612E-08 0
vt 0 1
vt 0.25 0.479880184
vt 1.49011612E-08 0
vt 0.5 2.98023224E-08
vt 0.5 2.98023224E-08
vt 0.5 1
vt 0.25 0.479880184
vt 0 1
vt 0.5 1
vt 0.5 0
vt 0.75 0.479880184
vt 1 1
vt 1 2.98023224E-08
vt 0 1
vt 1.49011612E-08 0
vt 0.25 0.479880184
vt 0.5 1
vt 0.5 2.98023224E-08
vt 0.25 0.479880184
vt 0.5 1
vt 1.49011612E-08 0
vt 0.5 1
vt 0.75 0.479880184
vt 0.5 0
vt 1 2.98023224E-08
vt 1 2.98023224E-08
vt 1 1
vt 0.75 0.479880184
vt 0.5 1
vt 0.5 1
vt 0.25 0.479880184
vt 0 1
vt 0.5 2.98023224E-08
vt 1.49011612E-08 0
vt 0 1
vt 0.25 0.479880184
vt 1.49011612E-08 0
vt 0.5 2.98023224E-08
vt 0.5 2.98023224E-08
vt 0.5 1
vt 0.25 0.479880184
vt 0 1
vt 0 1
vt 1.49011612E-08 0
vt 0.25 0.479880184
vt 0.5 1
vt 0.5 2.98023224E-08
vt 0.25 0.479880184
vt 0.5 1
vt 1.49011612E-08 0
vt 0 1
vt 0.25 0.479880184
vt 1.49011612E-08 0
vt 0.5 1
vt 0.5 2.98023224E-08
vt 0 1
vt 0.25 0.479880184
vt 1.49011612E-08 0
vt 0.5 1
vt 0.5 2.98023224E-08
vt 0.5 1
vt 0.75 0.479880184
vt 0.5 0
vt 1 1
vt 1 2.98023224E-08
vt 0 1
vt 0.25 0.479880184
vt 1.49011612E-08 0
vt 0.5 1
vt 0.5 2.98023224E-08
vt 0 1
vt 0.25 0.479880184
vt 1.49011612E-08 0
vt 0.5 1
vt 0.5 2.98023224E-08
vt 0 1
vt 0.25 0.479880184
vt 1.49011612E-08 0
vt 0.5 1
vt 0.5 2.98023224E-08
vt 0 1
vt 0.25 0.479880184
vt 1.49011612E-08 0
vt 0.5 1
vt 0.5 2.98023224E-08
vt 0 1
vt 0.25 0.479880184
vt 1.49011612E-08 0
vt 0.5 1
vt 0.5 2.98023224E-08
vt 0 1
vt 0.25 0.479880184
vt 1.49011612E-08 0
vt 0.5 1
vt 0.5 2.98023224E-08
vt 0.5 1
vt 0.75 0.479880184
vt 0.5 0
vt 1 1
vt 1 2.98023224E-08
vt 0.5 1
vt 0.75 0.479880184
vt 0.5 0
vt 1 1
vt 1 2.98023224E-08
vt 0 1
vt 0.25 0.479880184
vt 1.49011612E-08 0
vt 0.5 1
vt 0.5 2.98023224E-08
vt 0.5 1
vt 0.5 0
vt 0.75 0.479880184
vt 1 1
vt 1 2.98023224E-08
vt 0 1
vt 1.49011612E-08 0
vt 0.25 0.479880184
vt 0.5 1
vt 0.5 2.98023224E-08
vt 0 1
vt 0.25 0.479880184
vt 1.49011612E-08 0
vt 0.5 1
vt 0.5 2.98023224E-08
vt 0 1
vt 0.25 0.479880184
vt 1.49011612E-08 0
vt 0.5 1
vt 0.5 2.98023224E-08
vt 0 1
vt 0.25 0.479880184
vt 1.49011612E-08 0
vt 0.5 1
vt 0.5 2.98023224E-08
vt 0 1
vt 0.25 0.479880184
vt 1.49011612E-08 0
vt 0.5 1
vt 0.5 2.98023224E-08
vt 0.5 1
vt 0.5 0
vt 0.75 0.479880184
vt 1 1
vt 1 2.98023224E-08
vt 0 1
vt 0.25 0.479880184
vt 1.49011612E-08 0
vt 0.5 1
vt 0.5 2.98023224E-08
vt 0 1
vt 0.25 0.479880184
vt 1.49011612E-08 0
vt 0.5 1
vt 0.5 2.98023224E-08
vt 0.5 1
vt 0.75 0.479880184
vt 0.5 0
vt 1 1
vt 1 2.98023224E-08
vt 0 1
vt 1.49011612E-08 0
vt 0.25 0.479880184
vt 0.5 1
vt 0.5 2.98023224E-08
vt 0.5 1
vt 0.5 0
vt 0.75 0.479880184
vt 1 1
vt 1 2.98023224E-08
vt 0 1
vt 0.25 0.479880184
vt 1.49011612E-08 0
vt 0.5 1
vt 0.5 2.98023224E-08
vt 0 1
vt 0.25 0.479880184
vt 1.49011612E-08 0
vt 0.5 1
vt 0.5 2.98023224E-08
vt 0 1
vt 0.25 0.479880184
vt 1.49011612E-08 0
vt 0.5 1
vt 0.5 2.98023224E-08
vt 0.5 1
vt 0.5 0
vt 0.75 0.479880184
vt 1 1
vt 1 2.98023224E-08
vt 0 1
vt 0.25 0.479880184
vt 1.49011612E-08 0
vt 0.5 1
vt 0.5 2.98023224E-08
vt 0 1
vt 0.25 0.479880184
vt 1.49011612E-08 0
vt 0.5 1
vt 0.5 2.98023224E-08
vt 0 1
vt 0.25 0.479880184
vt 1.49011612E-08 0
vt 0.5 1
vt 0.5 2.98023224E-08
vt 0 1
vt 1.49011612E-08 0
vt 0.25 0.479880184
vt 0.5 1
vt 0.5 2.98023224E-08
vt 0.5 1
vt 0.75 0.479880184
vt 0.5 0
vt 1 1
vt 1 2.98023224E-08
vt 0.5 1
vt 0.75 0.479880184
vt 0.5 0
vt 1 1
vt 1 2.98023224E-08
vt 0.5 1
vt 0.5 0
vt 0.75 0.479880184
vt 1 1
vt 1 2.98023224E-08
vt 0 1
vt 0.25 0.479880184
vt 1.49011612E-08 0
vt 0.5 1
vt 0.5 2.98023224E-08
vt 0 1
vt 0.25 0.479880184
vt 1.49011612E-08 0
vt 0.5 1
vt 0.5 2.98023224E-08
vt 0.5 1
vt 0.75 0.479880184
vt 0.5 0
vt 1 1
vt 1 2.98023224E-08
vt 0 1
vt 0.25 0.479880184
vt 1.49011612E-08 0
vt 0.5 1
vt 0.5 2.98023224E-08
vt 0.5 1
vt 0.75 0.479880184
vt 0.5 0
vt 1 1
vt 1 2.98023224E-08
vt 0 1
vt 0.25 0.479880184
vt 1.49011612E-08 0
vt 0.5 1
vt 0.5 2.98023224E-08
vt 0 1
vt 0.25 0.479880184
vt 1.49011612E-08 0
vt 0.5 1
vt 0.5 2.98023224E-08
vt 0 1
vt 0.25 0.479880184
vt 1.49011612E-08 0
vt 0.5 1
vt 0.5 2.98023224E-08
vt 0 1
vt 0.25 0.479880184
vt 1.49011612E-08 0
vt 0.5 1
vt 0.5 2.98023224E-08
vt 0 1
vt 0.25 0.479880184
vt 1.49011612E-08 0
vt 0.5 1
vt 0.5 2.98023224E-08
vt 0 1
vt 0.25 0.479880184
vt 1.49011612E-08 0
vt 0.5 1
vt 0.5 2.98023224E-08
vt 0.5 1
vt 0.5 0
vt 0.75 0.479880184
vt 1 1
vt 1 2.98023224E-08
vt 0 1
vt 0.25 0.479880184
vt 1.49011612E-08 0
vt 0.5 1
vt 0.5 2.98023224E-08
vt 0 1
vt 0.25 0.479880184
vt 1.49011612E-08 0
vt 0.5 1
vt 0.5 2.98023224E-08
vt 0 1
vt 0.25 0.479880184
vt 1.49011612E-08 0
vt 0.5 1
vt 0.5 2.98023224E-08
vt 0.5 1
vt 0.75 0.479880184
vt 0.5 0
vt 1 1
vt 1 2.98023224E-08
vt 0.5 1
vt 0.75 0.479880184
vt 0.5 0
vt 1 1
vt 1 2.98023224E-08
vt 0.5 1
vt 0.75 0.479880184
vt 0.5 0
vt 1 1
vt 1 2.98023224E-08
vt 0.5 1
vt 0.75 0.479880184
vt 0.5 0
vt 1 1
vt 1 2.98023224E-08
vt 0 1
vt 1.49011612E-08 0
vt 0.25 0.479880184
vt 0.5 1
vt 0.5 2.98023224E-08
vt 0 1
vt 1.49011612E-08 0
vt 0.25 0.479880184
vt 0.5 1
vt 0.5 2.98023224E-08
vt 0 1
vt 0.25 0.479880184
vt 1.49011612E-08 0
vt 0.5 1
vt 0.5 2.98023224E-08
vt 0.5 1
vt 0.75 0.479880184
vt 0.5 0
vt 1 1
vt 1 2.98023224E-08
vt 0 1
vt 0.25 0.479880184
vt 1.49011612E-08 0
vt 0.5 1
vt 0.5 2.98023224E-08
vt 0 1
vt 0.25 0.479880184
vt 1.49011612E-08 0
vt 0.5 1
vt 0.5 2.98023224E-08
vt 0 1
vt 0.25 0.479880184
vt 1.49011612E-08 0
vt 0.5 1
vt 0.5 2.98023224E-08
vt 0.5 1
vt 0.5 0
vt 0.75 0.479880184
vt 1 1
vt 1 2.98023224E-08
vt 0.5 1
vt 0.5 0
vt 0.75 0.479880184
vt 1 1
vt 1 2.98023224E-08
vt 0.5 1
vt 0.75 0.479880184
vt 0.5 0
vt 1 1
vt 1 2.98023224E-08
vt 0.5 1
vt 0.75 0.479880184
vt 0.5 0
vt 1 1
vt 1 2.98023224E-08
vt 0.5 1
vt 0.5 0
vt 0.75 0.479880184
vt 1 1
vt 1 2.98023224E-08
vt 0 1
vt 0.25 0.479880184
vt 1.49011612E-08 0
vt 0.5 1
vt 0.5 2.98023224E-08
vn 0.06221140666170354 0.27235628463756656 -0.9601832091322953
vn -0.8374320078804177 -0.500339856100117 -0.219926489025506
vn 0.8388842803111954 0.2790409787719016 0.46734280395956346
vn 0.37725503666640214 -0.5405832157285055 -0.7519630470857325
vn 0.1988936332398854 -0.5690953010055888 -0.7978545362595842
vn -0.6247291471606761 -0.6783381193566792 -0.38674395730966243
vn -0.522561771751783 -0.6878050403582798 0.5038386856538336
vn -0.046691737695386405 -0.9370792927848246 0.3459801738031796
vn 0.3783100866959419 -0.921948777177336 0.0830176521308801
vn -0.1009759626685816 -0.4052397007721908 0.9086168828946657
vn 0.9257708768707434 -0.29503483672944275 -0.23643757876870125
vn -0.44334186720705226 0.2349647828692943 -0.8650084043479288
vn -0.8374010718151262 -0.5004125728608035 -0.21987883446505022
vn 0.8388777381416572 0.27904117174826 0.4673544317963567
vn 0.2739281718776422 -0.7306574504496924 0.6253823204681501
vn 0.9929631138650202 -0.014801907160249752 -0.11749535330344921
vn 0.06232919065373234 0.27235341173863536 -0.9601763854140425
vn 0.9620862159982804 -0.2607792443755595 0.07990180654417274
vn 0.3774172725524013 -0.5404941981465647 -0.7519456257928551
vn 0.19890680669670138 -0.5691017232371203 -0.7978466712710288
vn -0.18511863036064216 -0.39393396797180974 0.900303905118369
vn -0.6246974574606787 -0.678337241251113 -0.3867966827339558
vn -0.6416584699669062 -0.07901452820766147 0.7629096357052056
vn 0.8488908380362788 -0.1475367351125973 0.5075601017518807
vn 0.5405308228589735 -0.27945280070395967 0.7935569051543274
vn 0.7564788819557101 -0.6061407809021038 -0.24562787887865417
vn 0.7565268963118837 -0.6061108738891339 -0.2455537898507345
vn -0.5509923735118325 -0.5110089648409555 -0.6597554411931534
vn 0.8488657294461719 -0.14760485114842464 0.5075822901651218
vn -0.6417162330608085 -0.07896302305164388 0.7628663822825014
vn -0.9346970760141489 0.013321070497456513 -0.3551956153606095
vn -0.5226145379369197 -0.6877520537070289 0.5038562864138383
vn -0.04666291611790276 -0.9370566469043079 0.34604539117264477
vn 0.2915632633469788 -0.3149875705059199 -0.9032019120292196
vn 0.37831221683335364 -0.921948559521483 0.08301036194895321
vn 0.00019097323877193188 0.2496022356329401 -0.9683484328981281
vn -0.947447379632592 -0.22391269242379352 -0.2284875685871399
vn -0.8172370164532997 -0.36237861390814624 0.4481131543712146
vn 0.8036248723134473 -0.5877673286987468 0.09336290437606945
vn -0.3696104868980346 -0.793143063410304 0.4840580222856721
vn -0.8172140088738823 -0.36239795609359055 0.4481394706109541
vn 0.8036217801539585 -0.5877720427024836 0.09335984297080147
vn -0.9474445762395958 -0.22395071909699157 -0.22846192323911055
vn -0.4142419877357682 0.17429853478443746 -0.8933216645580235
vn -0.7595780668231865 -0.17611300007919642 0.6261192950263196
vn -0.9313858980701388 -0.34344218043474073 0.1206970487390304
vn 0.028897772457560478 -0.7628523303608554 0.6459266528097469
vn 0.028935812400809332 -0.7628510560045122 0.6459264548797375
vn 0.8804279592606191 -0.298619311367067 -0.3683383165390758
vn -0.7596111956531378 -0.17618482018213877 0.6260588954529739
vn -0.41417647913096817 0.17439705730063762 -0.8933328106252189
vn -0.9395449398405348 -0.33153803529478637 -0.08566117657911955
vn -0.44338386252998396 0.2349961066366106 -0.8649783698530426
vn -0.10105197146491586 -0.40525942099696777 0.9085996372199673
vn -0.1465642083066002 -0.24802369889209724 -0.9576028287506996
vn 0.9257657817379964 -0.29501823864702975 -0.23647823626845782
vn -0.10704452454325841 0.009091839293444677 -0.9942126574448596
vn -0.6215378274539499 -0.6607917483952906 0.42076714973547896
vn -0.5733029509352294 -0.8072953182276129 -0.1399928413053148
vn 0.2637743907096009 -0.6762396395310395 0.6878393858545094
vn 0.26372079079625294 -0.6762710722717306 0.6878290349427266
vn 0.9693810016709422 0.23946948506295243 -0.054358433781014244
vn -0.6215764558958411 -0.6608474193530833 0.4206226311200286
vn -0.10712484098984262 0.009111985531415616 -0.9942038222429926
vn -0.582271850754309 0.35613201282686896 0.7308416252917145
vn 0.49950523235479455 -0.4801122371939145 0.7211010765120498
vn 0.674371586995822 -0.7298089060659854 -0.11225828824414763
vn -0.7698109014480973 -0.27441477607801923 -0.5762705151937919
vn 0.2550993143141978 -0.9153856792513354 -0.31143763108846906
vn 0.6743904838268789 -0.7297779140560672 -0.1123462125740063
vn -0.7698746756812958 -0.2744191950520761 -0.5761832079569745
vn 0.49942727177791 -0.4801961035006953 0.721099231997388
vn 0.07129174676885817 0.43908473044226254 -0.8956126876809477
vn -0.11985185377232827 0.9926412547270842 0.017287931084320977
vn -0.9115703378476198 0.40922159521278867 -0.03971404245197079
vn 0.8056082284831607 0.5904911691733504 0.048120279805014834
vn -0.07371194613071366 0.56419045665733 0.8223476622538769
vn -0.27436383377106205 0.5043902819773557 0.8187276288029178
vn 0.3046250952917387 0.9463390944653637 -0.10791603034292262
vn 0.9421456583946295 -0.2013224320807033 0.2680127547510767
vn -0.6236168044612778 0.746383116828642 -0.2324098192991555
vn 0.16996569797813257 0.2704395736553095 -0.9476149526637603
vn 0.03646158255296782 0.0030877585013770695 -0.9993302851135707
vn -0.6470185580302059 0.67342217894555 0.35758852675769787
vn -0.986028678329106 -0.037455036039466406 -0.16231009145410102
vn 0.8501116318773507 -0.517937306410318 -0.0951375844514252
vn -0.2171295759361075 -0.5662851125526025 0.795094911664697
vn 0.5687315038010914 0.8086958618302608 0.15018481828320943
vn -0.19472005784335744 0.9591321517751077 -0.20530371283718002
vn 0.4106896146874765 0.3353517956781753 -0.8478639121482145
vn -0.24279994303161354 0.6239377924009087 0.7427986395233407
vn -0.979841667312093 -0.05791893350652651 -0.1911954605646389
vn 0.6410339751848361 0.05478899737297822 0.7655544451086356
vn -0.13292310067860155 0.8344097742928892 -0.5348754788457553
vn 0.7012812855852202 -0.21143904873125802 -0.6808069382428189
vn -0.7848510582084003 0.02726410370978735 0.6190843925330828
vn -0.6538326956732288 -0.22024315094033572 -0.7238755145275682
vn 0.1672350625190735 0.0034189240763365567 0.9859111242005548
vn -0.0026858740622023747 0.9964425872732668 -0.08423156385037597
vn 0.9793832759514218 0.1848251932266908 -0.08153555503813834
vn -0.8842147169024099 -0.4093009582719972 0.22502679833925568
vn -0.03533341733749838 -0.22703276554410273 -0.9732459468133688
vn 0.535951075165105 0.20414163308809416 0.8191963370703594
vn 0.17119576926058538 0.9697164784103686 -0.17418943735677433
vn 0.8851067481516939 -0.12071403308086567 -0.4494598609371982
vn -0.7569668416192917 0.1722315920530753 0.6303471102398877
vn -0.5661900336270054 -0.1918552208611837 -0.8016360895379879
vn -0.9177097557755269 -0.358007391201191 0.1721612964627647
vn 0.563691283584068 0.7678083116444122 -0.3045037493711746
vn 0.2646543990067404 0.0996059560551551 0.9591854370270221
vn -0.0068068793202572895 -0.49367638810346837 -0.8696190489076429
vn 0.9860674532235996 -0.0903091870005418 -0.13969691634544168
vn -0.2069483595826587 0.49980129673233475 0.841053529955569
vn 0.17587025080207014 0.9835206278600893 -0.041914549460927944
vn 0.9295734368848565 0.2818486848218747 0.2376016504619767
vn -0.778283189695551 0.6008063004594378 -0.18250223550839803
vn 0.22126690739295582 0.40486633763803836 -0.8872002053315357
vn -0.8987408205418026 0.43012825977823976 -0.08517404318212453
vn 0.39799614587973636 0.8990131466860463 0.18268669888782044
vn -0.08274907445137435 -0.4421234124507974 0.8931290381799839
vn 0.08188790779156603 0.52181962783664 -0.8491163916460162
vn 0.961077765913745 -0.17304621642937928 -0.21537069170553588
vn -0.7640643498957344 0.212504950464505 -0.6091365325167151
vn 0.019795039912214398 0.9997974806851275 -0.0036268458122385694
vn -0.5284523633649173 0.3805536893854348 0.7588919482700864
vn 0.556292590850981 0.26865502245123546 -0.7863606248255498
vn 0.7589074366926034 0.42514401661208273 0.49326673075690725
vn -0.2524242469393201 0.842287223211304 0.4762711760878546
vn 0.1111771373512039 0.9937866769973832 -0.005261630250261511
vn 0.5750325010012387 0.7653850124062666 0.28900416186643335
vn -0.3909908821556722 0.8996963738290361 -0.19409421678662264
vn 0.21231452405953094 0.8036981944629648 -0.5558702682194337
vn -0.20161776171246545 -0.6845904313246155 -0.7004899852966012
vn -0.5695122329711624 -0.8181711945173712 0.07906777446101862
vn -0.2617032164078403 -0.9626488730664988 -0.0694159470553495
vn 0.6989117615547356 -0.6244552093002632 -0.34868042838424546
vn 0.1677129582142537 -0.7829238319899751 0.5990848328485353
vn 0.33100289143894474 -0.850348915276047 0.4090767753709668
vn 0.5795692629916618 -0.5937926338728688 -0.5581306095831183
vn 0.01721948538437082 -0.9642930031936715 -0.2642773038208676
vn -0.6530134664512302 -0.7070854278746477 0.2712998531526964
vn -0.4726988144146341 -0.4247484155565892 -0.7721040178195981
vn -0.5089654624415197 0.7789655103787273 -0.36628799008716983
vn 0.014242813622658683 0.9994535814884263 -0.029827515988895784
vn -0.45017806731175075 0.7423865444727186 0.49618739030462355
vn 0.2427962280931602 0.6945817427278537 -0.6772046915762412
vn 0.6896344321461114 0.6765577159276899 0.2582131038836285
vn 0.9262771615972948 0.1264069293151162 -0.3550097296193189
vn -0.16980081293947247 0.8322538020686154 -0.5277511656713114
vn -0.3611399216637517 -0.21242787681321137 -0.9079935870551787
vn 0.20275136613083605 0.7753104006708466 0.5981518754828837
vn -0.8944647141756772 0.44338798499818116 0.05779247229420761
vn 0.6298700844674632 0.7214996430358672 -0.287579453007455
vn -0.3175180753203841 0.8818472234426624 -0.34860829931501336
vn -0.053337975404784944 0.1421359759240201 -0.9884090371540748
vn 0.23129267836878786 0.5360890760269316 0.8118572531532765
vn -0.9268687976455302 -0.3726890885757513 0.044911860434686944
vn 0.9956326678819851 0.014074657223917956 -0.09229027397418244
vn -0.22544111807270661 0.8977800315181356 -0.3783745727310751
vn -0.04083725017741115 0.14513985052026054 -0.9885680263840745
vn -0.2629632295100018 0.14172837896947865 0.954339251273023
vn -0.94212669878544 0.23659266676143134 -0.23753145785424512
vn -0.5978765544770801 -0.6093229823415365 0.5208350303090514
vn 0.5780544803342909 -0.7729098595536915 0.26165505301856057
vn -0.02217086908636726 -0.8812452653813808 -0.472138999455515
vn -0.754699353645274 -0.33334014526102546 -0.5650780770519807
vn 0.3212468794231227 -0.4789831109044647 -0.816930610229037
vn 0.5489385710284284 0.8294944814799533 -0.10298228212450225
vn -0.20438747449060204 0.9578918583655586 -0.2016654356808077
vn -0.03440250409906821 0.5054968149883605 -0.862142353528892
vn -0.07007630601128054 0.8287938247119571 0.5551487255277988
vn -0.8650794597507693 0.5015416192033589 -0.009671221442520934
vn -0.601815548868276 0.2956518871423511 0.7418948758210573
vn -0.4192007287454356 0.2532334028825781 -0.8718621408707948
vn 0.7948753265467446 -0.33238150375725894 0.5076374210076215
vn -0.9301176912064194 -0.15810064986657385 -0.33148946441268246
vn 0.07467789634258455 -0.7050963829864287 -0.7051682795597813
vn 0.7604172612403801 0.3290664490380549 -0.5598936157210269
vn -0.6968689114672517 0.648113016398278 -0.3071208853294952
vn -0.45673381763479287 -0.08818664486588462 -0.8852216307208304
vn 0.27748450938502545 0.10492618165619635 0.9549831639638483
vn -0.9312413275220189 -0.29564691536096965 0.21303166748765687
vn -0.9349600457713132 0.3146903879449197 0.16376712901672227
vn -0.21019279116094294 -0.5341960035929517 0.8188123229955027
vn -0.9694262859759757 -0.1308340969894187 -0.2075936297765159
vn -0.4363880567765457 0.056427172935092015 -0.8979874375832567
vn 0.3711366716137635 -0.8427893963814564 -0.38982509453656017
vn 0.7832044170674847 -0.6216370651830039 0.012577769144136358
vn -0.04905290962954682 -0.643196335483637 -0.7641284486768547
vn -0.4151434068307626 -0.8102419986788311 -0.4137195370560607
vn -0.1572354726591557 -0.5082489004474943 0.8467349416030763
vn -0.8306994388844893 -0.5490461227657889 -0.0921238151231758
vn 0.4946878000646792 0.015890594290864164 0.8689254683114376
vn -0.3875922577082073 0.7748238844457298 -0.49941985328687616
vn 0.1407670183416291 -0.7856465747858838 -0.6024484260701626
vn -0.6098799261571 0.6079550854726152 0.5083670816630392
vn -0.8699127085568059 0.084500560923847 -0.48591309376772
vn 0.656323559431232 0.7340560195115831 -0.17435924281301693
vn -0.5944137565974429 0.7904381220062557 -0.14791842767870214
vn -0.23876472468071813 0.13299235657127434 -0.9619274605404295
vn -0.007653413514314643 0.33710757753465564 0.9414350250709259
vn -0.9505270226029152 -0.2968839719170888 0.09142366499091169
vn -0.09721380556675117 0.4628155710525261 0.8811079520686179
vn -0.14410704377422134 0.9620283214675706 -0.23180739554410942
vn 0.889204019238956 0.44256184614729094 -0.11599665729661322
vn -0.9758966149367171 0.21817927367165996 -0.004858137005465684
vn -0.1354842436409977 0.18112501152550772 -0.9740830303033265
vn -0.2687899439903783 -0.4986829343823111 0.8240553967819743
vn 0.5906564230722342 -0.8068956142285238 -0.006667654931595829
vn -0.25264625752492553 -0.8733322388434887 -0.4164860971932539
vn -0.9304195714723461 -0.3537915082292503 -0.09566080558979337
vn -0.16050769127373085 -0.6304566841191818 -0.7594482539919509
vn -0.5262749542226439 0.8366719416401981 -0.1517060797396559
vn 0.033823880781157195 0.9973004643599541 0.06517460300087939
vn -0.18113693907041273 0.7921261803801571 0.5828597804451295
vn 0.1369964857665898 0.8335324168060403 -0.5352155388449463
vn 0.5894920544202666 0.7905089370866956 0.16611664023039935
vn 0.482376253595098 0.8404308494240542 -0.2469597888400469
vn -0.2078611766221873 0.9585758321495633 0.19474625868553133
vn -0.4613024097015638 0.7220455636164138 -0.5156067211212302
vn 0.5176142417788541 0.44258786679253315 0.7322509657731678
vn -0.8511294388019706 0.24701167279000727 0.46321044019983487
vn -0.7388257547474524 0.6671283342022475 0.0952695640086152
vn -0.002464694953899791 0.9958404679155093 0.09108066611857697
vn -0.001368537358996066 0.6162174280775582 0.7875748906859439
vn -0.16279484601927366 0.6970584380807353 -0.6982888886485354
vn 0.7535070272997587 0.6557144382426213 -0.04759974044093263
vn -0.22306504296984586 -0.7927356018000434 0.5672849832699471
vn 0.4849723063760785 -0.8587324637363022 0.1654702927224326
vn -0.18757456535120107 -0.9806509302251474 0.05603155791035011
vn -0.6311532429795613 -0.7740313989848004 -0.050209334411196335
vn -0.02306055461705947 -0.8297797352884941 -0.5576143844318496
vn -0.21755310514012827 0.5676245054676642 0.7940233417453659
vn -0.011726735387908364 0.9997238516243794 0.02036428664250607
vn 0.8795805640748511 0.2146936489700378 0.42455231526126097
vn -0.8533282388359668 0.5211542029615107 -0.01513979988835921
vn -0.09152594796152139 0.11720533283203637 -0.9888811408887707
vn 0.7918907451975822 0.47789541905851224 -0.3801644592979555
vn -0.8827457664166746 -0.017264908137760087 0.4695336354516389
vn -0.6465420801392893 -0.14774342384787315 -0.7484351804390735
vn 0.39325724723971467 -0.37765945723648214 0.8382851972051562
vn -0.6398439900081448 -0.7019682343269864 0.3127942877456528
vn -0.8642774084500089 -0.4445012445322787 -0.23546380794549276
vn -0.34810542889161633 -0.5452564900842012 0.7625732557579248
vn -0.1659038328135188 -0.6116245138969078 0.7735576075885721
vn 0.32220832319855086 -0.44857466139444563 -0.8336441504721525
vn 0.7057719392727486 -0.5497184197594863 0.44687316848555264
vn -0.39015319489122025 0.8954074423504244 -0.2145367024535547
vn 0.046334928440295284 0.9724369425176389 0.22851579208750306
vn -0.6637307923990308 0.5472126386591915 0.5099213305138351
vn 0.37349084264404936 0.8482347652546905 -0.3755028275184598
vn 0.8066123730899624 0.4706998939011674 0.3575165583013029
vn -0.22455727005220563 0.7028582100859065 0.6749550866402418
vn 0.15438582028710066 0.9758395790761676 0.15460315133504643
vn 0.6295350994130872 0.2663487821429644 0.7298930639880847
vn -0.5125238989870097 0.8534032296235986 -0.09498516007863894
vn 0.10147861056085354 0.5680128961891902 -0.8167395186725124
vn 0.129758460109795 0.7192525341671288 -0.6825236509631722
vn -0.14629136801973674 0.97305803425307 0.1782046509451003
vn -0.8400646764670179 0.5411871579347388 -0.037520653497570305
vn 0.6792453158148027 0.6859060226850809 0.2610722677497208
vn -0.19215242231724003 0.5280401432746799 0.8271946891077534
vn -0.8558500523893561 0.4833670387606361 -0.18405703916153301
vn -0.04621538514850584 0.8842444806766231 0.46473200510455975
vn -0.22972443270845655 0.0008815641237544904 0.9732553148385441
vn 0.21155104247677545 0.873447837861972 -0.4385601794066984
vn 0.7354473712614479 0.5099382836833839 0.44618394294132824
vn -0.6569108035937615 0.6265314806922964 -0.41943593053447037
vn -0.017927627936732544 0.9931403394873798 0.11554594860683831
vn -0.38109034112561624 0.5791598766084338 0.7206552499133445
vn 0.37812847846469366 0.7355900250049964 -0.5620730992381016
vn 0.5964249947562229 0.6957534118152015 0.4002554379112747
vn -0.39466632697441223 0.6973930249937013 0.5982319441844117
vn 0.19698317664648993 0.974524810966449 0.10723348790869597
vn 0.5933091600610723 0.3956542167108035 0.7010292300514905
vn -0.6073815313258717 0.6970286812941399 -0.38110194549174287
vn 0.6591636623219321 0.3458208326781809 -0.6677658406658037
vn 0.7211010514082982 0.12548530064119234 0.6813712005807382
vn 0.22576711110742437 0.9390340400834813 0.2593150267660991
vn 0.7098753184972203 0.4991123364699419 -0.49695463351495744
vn -0.4395812680556452 0.32739497950806 0.8364094907206086
vn -0.5586972620433882 0.7378438123334288 -0.37873985529185267
vn -0.1050436040566542 0.6032076241266535 -0.7906367076238409
vn 0.000718250843109094 0.950462873807235 0.31083727194437016
vn -0.8742198639194706 0.3116340047844859 0.3723222751738141
vn 0.8350275209139217 0.548662257408623 -0.04121609651123844
vn 0.26219230546274613 0.3104037942530035 0.9137311855625094
vn 0.6308590001693829 0.7535853826533441 -0.18473221959501082
vn -0.049725160685084174 0.9761214517827129 0.21145760748776912
vn -0.3220900443802816 0.8058574098821095 -0.4968418644289208
vn 0.4355521522730513 0.4670445472427582 0.76952174338424
vn -0.704211037030458 0.5112078965575587 0.49270001199683716
vn 0.9577527797285426 0.031554045465102085 0.28585652893896984
vn 0.003474570146400812 0.6218199240107191 0.7831525454632715
vn 0.26582473901182174 -0.0032003620300228154 -0.9640160609721051
vn 0.07057018818452064 -0.3172972550251174 0.9456967275470116
vn -0.8780580819281073 -0.47141465145640754 0.08235430257713922
vn -0.78362423455256 0.20305000453915653 0.5871147712999247
vn 0.2726681907702608 0.9531373469676983 0.13107728848831957
vn 0.39642251910157533 0.47117723996200866 0.787934765631613
vn -0.1960110717818734 -0.12748815425546972 -0.9722789878751135
vn 0.9430717145376302 0.2934413117594436 -0.15655011271778638
vn -0.5130606748913947 -0.40327425112658133 0.7577193558688345
vn 0.6096985105520291 -0.6080821051620536 0.5084327680355804
vn 0.6194839986816034 -0.7829264665279737 -0.057146508095184574
vn -0.580996608292221 -0.5641253133452511 -0.5866903544426633
vn 0.5061933954167664 -0.7251551250649027 -0.4668171923018161
vn -0.32697910947715486 0.711410830242929 0.6220765970349579
vn 0.0859173705751051 0.9953475382992939 -0.0436060022817461
vn 0.6094658940726271 0.7100196574812226 0.3527370266253612
vn -0.6829348913164157 0.6147345757565105 -0.3945900855217962
vn 0.4774638715324811 0.6102453870500407 -0.632162019553026
vn 0.8164691225466817 0.4021309165501547 0.4143294557262184
vn 0.19869598692291068 0.9798145693760973 -0.021984413093447543
vn 0.35348406829436274 0.37500467414483885 -0.8569833766366706
vn -0.03264410129089547 0.753981328804218 0.6560842312276185
vn -0.6129614176108427 0.7825506553298137 -0.10905398829655516
vn 0.9081201334165 0.32688641854409856 0.2616545292079053
vn 0.26082486797144155 0.9592337465937659 -0.10881639418473264
vn 0.41292251712255074 0.2747715020899268 -0.8683292097427232
vn -0.0007672308312927221 0.6502774326229995 0.7596964340959431
vn -0.7058926844691373 0.6763717589833433 -0.21032537094400408
vn 0.4576412825518103 0.42062875482329243 0.7833491604132481
vn 0.4284452215552832 0.8259772129208486 -0.3663281805457389
vn 0.9602022191219431 -0.015558819793768434 -0.27887205223887335
vn -0.837075701424903 0.4899434195165991 0.24343318540492526
vn -0.11547646733756378 -0.04765046836866195 -0.9921666283218177
vn 0.1028235363812445 0.8595716030994427 0.5005636617964883
vn -0.018346905444142404 0.9926573636658484 -0.1195606516400414
vn 0.5827479470063218 0.8005809405073282 -0.13955281421855614
vn -0.6889917371272587 0.6506216781170343 0.3193459223702984
vn -0.00989928527046445 0.5764064370054872 -0.8171031902579831
vn -0.20765342786793986 -0.1520676308715903 0.9663102449709389
vn 0.8808941139514535 0.17095185307386065 -0.44136268978731874
vn 0.8712153891914628 -0.45321357136586216 0.1886298077340069
vn -0.8719360474718948 -0.031028109957605264 -0.4886356367596907
vn 0.3723330900098469 -0.36186647167963365 -0.854646550778655
vn -0.9822903427233541 0.04661330734424608 0.18147419147324043
vn 0.8144187025574181 0.5356666069270144 0.22312208126492353
vn 0.34661184310647497 -0.40970388979175965 0.8438026741530477
vn 0.03699990471901766 0.19701264286201314 -0.9797025189328179
vn 0.954096990533327 -0.21576193229441407 -0.20771548143513302
vn 0.9478043745426906 -0.31377853432282593 -0.0566559705234861
vn 0.17409213984330765 -0.7362974713217766 -0.6538791635844774
vn -0.05069579602660965 -0.9767819298464071 -0.20815138190931426
vn 0.15110878285492013 -0.559126283450458 0.8151956421000929
vn -0.40317728585498 -0.9141877585615069 0.041337855131824655
vn 0.28205800928683217 -0.7975839733995719 -0.5332007921724237
vn -0.5678163155840826 -0.7648954999061326 -0.3041701924578823
vn 0.08024011162472462 -0.9958708863286501 -0.04245824124290561
vn 0.5721253607321409 -0.7881398157453676 0.22695418578201107
vn -0.23742378186027138 -0.7557047830220405 0.6103607365523908
vn -0.6162411856023797 0.40670252130847434 -0.6744181642932694
vn 0.08437102559227506 0.98344889129545 -0.16034278359270795
vn -0.43527253951106415 0.7274278923702608 0.5304587427400449
vn 0.5792248972352425 0.3799317314711883 -0.7212145296956571
vn 0.6591923760955847 0.6692187289838027 0.3429456284526181
vn 0.5951960462993775 0.7587088083678273 0.2647689758537823
vn 0.0499831896975136 0.9844238014908663 -0.16855699275299738
vn 0.4625951505074288 0.6361038093111416 -0.6175578276622069
vn -0.28158604435659973 0.7609047517595563 0.5845795569238894
vn -0.5606002532873204 0.620801487089342 -0.5480263402810617
vn 0.034528960088275384 0.6640199169439688 -0.7469171980995931
vn -0.00392249387483704 0.9995855248871424 0.02852003642875881
vn -0.9088146354219655 0.3520128104436466 -0.22392619258676563
vn 0.9105679633149751 0.3442153727045087 -0.2288706214836542
vn 0.09309023545546108 -0.3094015588259375 0.9463640332657018
vn -0.8287360773879453 0.22930124094941717 0.5105070566943215
vn 0.8459208846831583 0.17399796138010976 -0.5041255461612995
vn 0.40568203606427194 -0.7739806184901331 0.48618524022884296
vn -0.41956906109825703 0.3376444138265689 -0.8425900858548241
vn 0.4966721370857024 -0.4535800230385615 -0.7399878045907645
vn 0.8235462117129195 0.058766231904550825 -0.5641969223250334
vn -0.15073278374983096 0.6122106610428341 -0.7761943921521997
vn -0.2574529429358268 -0.3795096026404054 -0.8886452856328017
vn 0.635702811779474 0.26444166790344886 0.7252258540428027
vn -0.8715183553071592 -0.33010431720476674 0.36261121897354365
vn 0.6917351698396871 -0.669708566736102 0.2701719645839207
vn 0.3010677459568283 -0.6544941128090599 -0.6935385127321745
vn -0.11415147517983949 -0.9750337727160061 -0.19046937490698654
vn -0.24745889649645908 -0.7916294611290893 0.5586473760944579
vn -0.5431497280189412 -0.775702863872991 -0.3213618520176129
vn -0.08105012034548291 -0.7411665852826393 -0.6664105122613649
vn -0.7501936040194432 -0.6533431030960222 0.10174647966971283
vn 0.10759890296576692 -0.9859979451537059 -0.1273990903940572
vn 0.6796271668460226 -0.7179369724149612 -0.15057694951249273
vn 0.20322098330637903 -0.6244361196019873 0.754175552825999
vn -0.29079490976675654 0.7417004407825933 0.6044160624906079
vn 0.10951421442734108 0.9822794608339362 -0.15209765830595004
vn 0.7265518441523343 0.6522374905135733 0.21612189552981118
vn -0.6582452230354384 0.6337492371577005 -0.4062943892709554
vn 0.35372706107725044 0.5494205635504085 -0.7569770211899451
vn 0.05114609450990975 0.8400806076540106 -0.5400450441028523
vn 0.014910344373528195 0.9993729949539742 0.03211383794233921
vn -0.5914596776837787 0.799695247443334 -0.10326161382985266
vn 0.6289316483671501 0.773127167162851 -0.08197173340197385
vn 0.09721428825575985 0.7526799534258047 0.6511699239598329
vn -0.15139264670400138 -0.7129522244944698 -0.6846746615089132
vn -0.8086417655503232 -0.5566818024053504 0.19027313493603457
vn -0.09466496633109099 -0.7222929580940767 -0.6850776794183576
vn 0.8010882198056164 -0.4744635736761638 -0.3648862580902604
vn 0.4162294128331415 -0.21131331319344543 0.8843640424394171
vn 0.8891456366034274 0.4476262578076195 0.09513553610629663
vn 0.13403475324733888 0.9892961542821288 -0.057687121998892206
vn 0.2903364337146165 0.49743364256590783 -0.8174744806423567
vn 0.17582382244197173 0.07278959853697534 0.9817268753613299
vn -0.9264703222765607 0.11044987450437865 -0.3597965635782713
f 3/3/3 2/2/2 1/1/1
f 6/6/6 5/5/5 4/4/4
f 9/9/9 8/8/8 7/7/7
f 12/12/12 11/11/11 10/10/10
f 15/15/15 14/14/14 13/13/13
f 16/16/16 14/14/14 15/15/15
f 17/17/17 14/14/14 16/16/16
f 20/20/20 19/19/19 18/18/18
f 20/20/20 18/18/18 21/21/21
f 20/20/20 21/21/21 22/22/22
f 25/25/25 24/24/24 23/23/23
f 26/26/26 24/24/24 25/25/25
f 29/29/29 28/28/28 27/27/27
f 29/29/29 30/30/30 28/28/28
f 33/33/33 32/32/32 31/31/31
f 33/33/33 31/31/31 34/34/34
f 33/33/33 34/34/34 35/35/35
f 38/38/38 37/37/37 36/36/36
f 38/38/38 36/36/36 39/39/39
f 42/42/42 41/41/41 40/40/40
f 40/40/40 41/41/41 43/43/43
f 46/46/46 45/45/45 44/44/44
f 47/47/47 45/45/45 46/46/46
f 50/50/50 49/49/49 48/48/48
f 50/50/50 51/51/51 49/49/49
f 54/54/54 53/53/53 52/52/52
f 52/52/52 53/53/53 55/55/55
f 55/55/55 53/53/53 56/56/56
f 59/59/59 58/58/58 57/57/57
f 60/60/60 58/58/58 59/59/59
f 63/63/63 62/62/62 61/61/61
f 63/63/63 64/64/64 62/62/62
f 67/67/67 66/66/66 65/65/65
f 67/67/67 65/65/65 68/68/68
f 71/71/71 70/70/70 69/69/69
f 69/69/69 70/70/70 72/72/72
f 75/75/75 74/74/74 73/73/73
f 73/73/73 74/74/74 76/76/76
f 77/77/77 74/74/74 75/75/75
f 76/76/76 74/74/74 77/77/77
f 80/80/80 79/79/79 78/78/78
f 78/78/78 79/79/79 81/81/81
f 82/82/82 79/79/79 80/80/80
f 81/81/81 79/79/79 82/82/82
f 85/85/85 84/84/84 83/83/83
f 83/83/83 84/84/84 86/86/86
f 87/87/87 84/84/84 85/85/85
f 86/86/86 84/84/84 87/87/87
f 90/90/90 89/89/89 88/88/88
f 88/88/88 89/89/89 91/91/91
f 92/92/92 89/89/89 90/90/90
f 91/91/91 89/89/89 92/92/92
f 95/95/95 94/94/94 93/93/93
f 93/93/93 94/94/94 96/96/96
f 97/97/97 94/94/94 95/95/95
f 96/96/96 94/94/94 97/97/97
f 100/100/100 99/99/99 98/98/98
f 98/98/98 99/99/99 101/101/101
f 102/102/102 99/99/99 100/100/100
f 101/101/101 99/99/99 102/102/102
f 105/105/105 104/104/104 103/103/103
f 103/103/103 104/104/104 106/106/106
f 107/107/107 104/104/104 105/105/105
f 106/106/106 104/104/104 107/107/107
f 110/110/110 109/109/109 108/108/108
f 108/108/108 109/109/109 111/111/111
f 112/112/112 109/109/109 110/110/110
f 111/111/111 109/109/109 112/112/112
f 115/115/115 114/114/114 113/113/113
f 113/113/113 114/114/114 116/116/116
f 117/117/117 114/114/114 115/115/115
f 116/116/116 114/114/114 117/117/117
f 120/120/120 119/119/119 118/118/118
f 118/118/118 119/119/119 121/121/121
f 122/122/122 119/119/119 120/120/120
f 121/121/121 119/119/119 122/122/122
f 125/125/125 124/124/124 123/123/123
f 123/123/123 124/124/124 126/126/126
f 127/127/127 124/124/124 125/125/125
f 126/126/126 124/124/124 127/127/127
f 130/130/130 129/129/129 128/128/128
f 128/128/128 129/129/129 131/131/131
f 132/132/132 129/129/129 130/130/130
f 131/131/131 129/129/129 132/132/132
f 135/135/135 134/134/134 133/133/133
f 135/135/135 133/133/133 136/136/136
f 135/135/135 137/137/137 134/134/134
f 135/135/135 136/136/136 137/137/137
f 140/140/140 139/139/139 138/138/138
f 140/140/140 138/138/138 141/141/141
f 140/140/140 142/142/142 139/139/139
f 140/140/140 141/141/141 142/142/142
f 145/145/145 144/144/144 143/143/143
f 143/143/143 144/144/144 146/146/146
f 147/147/147 144/144/144 145/145/145
f 146/146/146 144/144/144 147/147/147
f 150/150/150 149/149/149 148/148/148
f 148/148/148 149/149/149 151/151/151
f 152/152/152 149/149/149 150/150/150
f 151/151/151 149/149/149 152/152/152
f 155/155/155 154/154/154 153/153/153
f 153/153/153 154/154/154 156/156/156
f 157/157/157 154/154/154 155/155/155
f 156/156/156 154/154/154 157/157/157
f 160/160/160 159/159/159 158/158/158
f 158/158/158 159/159/159 161/161/161
f 162/162/162 159/159/159 160/160/160
f 161/161/161 159/159/159 162/162/162
f 165/165/165 164/164/164 163/163/163
f 165/165/165 163/163/163 166/166/166
f 165/165/165 167/167/167 164/164/164
f 165/165/165 166/166/166 167/167/167
f 170/170/170 169/169/169 168/168/168
f 168/168/168 169/169/169 171/171/171
f 172/172/172 169/169/169 170/170/170
f 171/171/171 169/169/169 172/172/172
f 175/175/175 174/174/174 173/173/173
f 173/173/173 174/174/174 176/176/176
f 177/177/177 174/174/174 175/175/175
f 176/176/176 174/174/174 177/177/177
f 180/180/180 179/179/179 178/178/178
f 178/178/178 179/179/179 181/181/181
f 182/182/182 179/179/179 180/180/180
f 181/181/181 179/179/179 182/182/182
f 185/185/185 184/184/184 183/183/183
f 185/185/185 183/183/183 186/186/186
f 185/185/185 187/187/187 184/184/184
f 185/185/185 186/186/186 187/187/187
f 190/190/190 189/189/189 188/188/188
f 190/190/190 188/188/188 191/191/191
f 190/190/190 192/192/192 189/189/189
f 190/190/190 191/191/191 192/192/192
f 195/195/195 194/194/194 193/193/193
f 193/193/193 194/194/194 196/196/196
f 197/197/197 194/194/194 195/195/195
f 196/196/196 194/194/194 197/197/197
f 200/200/200 199/199/199 198/198/198
f 198/198/198 199/199/199 201/201/201
f 202/202/202 199/199/199 200/200/200
f 201/201/201 199/199/199 202/202/202
f 205/205/205 204/204/204 203/203/203
f 203/203/203 204/204/204 206/206/206
f 207/207/207 204/204/204 205/205/205
f 206/206/206 204/204/204 207/207/207
f 210/210/210 209/209/209 208/208/208
f 210/210/210 208/208/208 211/211/211
f 210/210/210 212/212/212 209/209/209
f 210/210/210 211/211/211 212/212/212
f 215/215/215 214/214/214 213/213/213
f 213/213/213 214/214/214 216/216/216
f 217/217/217 214/214/214 215/215/215
f 216/216/216 214/214/214 217/217/217
f 220/220/220 219/219/219 218/218/218
f 218/218/218 219/219/219 221/221/221
f 222/222/222 219/219/219 220/220/220
f 221/221/221 219/219/219 222/222/222
f 225/225/225 224/224/224 223/223/223
f 223/223/223 224/224/224 226/226/226
f 227/227/227 224/224/224 225/225/225
f 226/226/226 224/224/224 227/227/227
f 230/230/230 229/229/229 228/228/228
f 230/230/230 228/228/228 231/231/231
f 230/230/230 232/232/232 229/229/229
f 230/230/230 231/231/231 232/232/232
f 235/235/235 234/234/234 233/233/233
f 233/233/233 234/234/234 236/236/236
f 237/237/237 234/234/234 235/235/235
f 236/236/236 234/234/234 237/237/237
f 240/240/240 239/239/239 238/238/238
f 238/238/238 239/239/239 241/241/241
f 242/242/242 239/239/239 240/240/240
f 241/241/241 239/239/239 242/242/242
f 245/245/245 244/244/244 243/243/243
f 245/245/245 243/243/243 246/246/246
f 245/245/245 247/247/247 244/244/244
f 245/245/245 246/246/246 247/247/247
f 250/250/250 249/249/249 248/248/248
f 248/248/248 249/249/249 251/251/251
f 252/252/252 249/249/249 250/250/250
f 251/251/251 249/249/249 252/252/252
f 255/255/255 254/254/254 253/253/253
f 253/253/253 254/254/254 256/256/256
f 257/257/257 254/254/254 255/255/255
f 256/256/256 254/254/254 257/257/257
f 260/260/260 259/259/259 258/258/258
f 258/258/258 259/259/259 261/261/261
f 262/262/262 259/259/259 260/260/260
f 261/261/261 259/259/259 262/262/262
f 265/265/265 264/264/264 263/263/263
f 263/263/263 264/264/264 266/266/266
f 267/267/267 264/264/264 265/265/265
f 266/266/266 264/264/264 267/267/267
f 270/270/270 269/269/269 268/268/268
f 268/268/268 269/269/269 271/271/271
f 272/272/272 269/269/269 270/270/270
f 271/271/271 269/269/269 272/272/272
f 275/275/275 274/274/274 273/273/273
f 273/273/273 274/274/274 276/276/276
f 277/277/277 274/274/274 275/275/275
f 276/276/276 274/274/274 277/277/277
f 280/280/280 279/279/279 278/278/278
f 278/278/278 279/279/279 281/281/281
f 282/282/282 279/279/279 280/280/280
f 281/281/281 279/279/279 282/282/282
f 285/285/285 284/284/284 283/283/283
f 283/283/283 284/284/284 286/286/286
f 287/287/287 284/284/284 285/285/285
f 286/286/286 284/284/284 287/287/287
f 290/290/290 289/289/289 288/288/288
f 288/288/288 289/289/289 291/291/291
f 292/292/292 289/289/289 290/290/290
f 291/291/291 289/289/289 292/292/292
f 295/295/295 294/294/294 293/293/293
f 293/293/293 294/294/294 296/296/296
f 297/297/297 294/294/294 295/295/295
f 296/296/296 294/294/294 297/297/297
f 300/300/300 299/299/299 298/298/298
f 298/298/298 299/299/299 301/301/301
f 302/302/302 299/299/299 300/300/300
f 301/301/301 299/299/299 302/302/302
f 305/305/305 304/304/304 303/303/303
f 305/305/305 303/303/303 306/306/306
f 305/305/305 307/307/307 304/304/304
f 305/305/305 306/306/306 307/307/307
f 310/310/310 309/309/309 308/308/308
f 308/308/308 309/309/309 311/311/311
f 312/312/312 309/309/309 310/310/310
f 311/311/311 309/309/309 312/312/312
f 315/315/315 314/314/314 313/313/313
f 313/313/313 314/314/314 316/316/316
f 317/317/317 314/314/314 315/315/315
f 316/316/316 314/314/314 317/317/317
f 320/320/320 319/319/319 318/318/318
f 318/318/318 319/319/319 321/321/321
f 322/322/322 319/319/319 320/320/320
f 321/321/321 319/319/319 322/322/322
f 325/325/325 324/324/324 323/323/323
f 323/323/323 324/324/324 326/326/326
f 327/327/327 324/324/324 325/325/325
f 326/326/326 324/324/324 327/327/327
f 330/330/330 329/329/329 328/328/328
f 328/328/328 329/329/329 331/331/331
f 332/332/332 329/329/329 330/330/330
f 331/331/331 329/329/329 332/332/332
f 335/335/335 334/334/334 333/333/333
f 333/333/333 334/334/334 336/336/336
f 337/337/337 334/334/334 335/335/335
f 336/336/336 334/334/334 337/337/337
f 340/340/340 339/339/339 338/338/338
f 338/338/338 339/339/339 341/341/341
f 342/342/342 339/339/339 340/340/340
f 341/341/341 339/339/339 342/342/342
f 345/345/345 344/344/344 343/343/343
f 345/345/345 343/343/343 346/346/346
f 345/345/345 347/347/347 344/344/344
f 345/345/345 346/346/346 347/347/347
f 350/350/350 349/349/349 348/348/348
f 350/350/350 348/348/348 351/351/351
f 350/350/350 352/352/352 349/349/349
f 350/350/350 351/351/351 352/352/352
f 355/355/355 354/354/354 353/353/353
f 353/353/353 354/354/354 356/356/356
f 357/357/357 354/354/354 355/355/355
f 356/356/356 354/354/354 357/357/357
f 360/360/360 359/359/359 358/358/358
f 358/358/358 359/359/359 361/361/361
f 362/362/362 359/359/359 360/360/360
f 361/361/361 359/359/359 362/362/362
f 365/365/365 364/364/364 363/363/363
f 363/363/363 364/364/364 366/366/366
f 367/367/367 364/364/364 365/365/365
f 366/366/366 364/364/364 367/367/367
f 370/370/370 369/369/369 368/368/368
f 368/368/368 369/369/369 371/371/371
f 372/372/372 369/369/369 370/370/370
f 371/371/371 369/369/369 372/372/372
f 375/375/375 374/374/374 373/373/373
f 373/373/373 374/374/374 376/376/376
f 377/377/377 374/374/374 375/375/375
f 376/376/376 374/374/374 377/377/377
f 380/380/380 379/379/379 378/378/378
f 380/380/380 378/378/378 381/381/381
f 380/380/380 382/382/382 379/379/379
f 380/380/380 381/381/381 382/382/382
f 385/385/385 384/384/384 383/383/383
f 385/385/385 383/383/383 386/386/386
f 385/385/385 387/387/387 384/384/384
f 385/385/385 386/386/386 387/387/387
f 390/390/390 389/389/389 388/388/388
f 388/388/388 389/389/389 391/391/391
f 392/392/392 389/389/389 390/390/390
f 391/391/391 389/389/389 392/392/392
f 395/395/395 394/394/394 393/393/393
f 393/393/393 394/394/394 396/396/396
f 397/397/397 394/394/394 395/395/395
f 396/396/396 394/394/394 397/397/397
f 400/400/400 399/399/399 398/398/398
f 400/400/400 398/398/398 401/401/401
f 400/400/400 402/402/402 399/399/399
f 400/400/400 401/401/401 402/402/402
f 405/405/405 404/404/404 403/403/403
f 403/403/403 404/404/404 406/406/406
f 407/407/407 404/404/404 405/405/405
f 406/406/406 404/404/404 407/407/407
