v 0.397851288 1.5482649609671624 0.09633943302100227
v 0.346256554 1.5879920833758456 0.29782224265431284
v 0.520202577 1.706874642184106 0.31892495551672884
v 0.57179755 1.6671472797753963 0.11744219078345655
v 0.57179755 1.6671472797753963 0.11744219078345655
v 0.520202577 1.706874642184106 0.31892495551672884
v 0.411040604 1.8775330068366327 0.2573217363103342
v 0.462635636 1.8378058844279375 0.055838837177011595
v 0.462635636 1.8378058844279375 0.055838837177011595
v 0.411040604 1.8775330068366327 0.2573217363103342
v 0.23709473 1.758650808028435 0.23621912744788381
v 0.288689345 1.7189235656197213 0.0347362133145753
v 0.288689345 1.7189235656197213 0.0347362133145753
v 0.23709473 1.758650808028435 0.23621912744788381
v 0.346256554 1.5879920833758456 0.29782224265431284
v 0.397851288 1.5482649609671624 0.09633943302100227
v 0.346256554 1.5879920833758456 0.29782224265431284
v 0.23709473 1.758650808028435 0.23621912744788381
v 0.411040604 1.8775330068366327 0.2573217363103342
v 0.520202577 1.706874642184106 0.31892495551672884
v 0.288689345 1.7189235656197213 0.0347362133145753
v 0.397851288 1.5482649609671624 0.09633943302100227
v 0.57179755 1.6671472797753963 0.11744219078345655
v 0.462635636 1.8378058844279375 0.055838837177011595
v 0.623577952 0.558657287938086 1.2122578278170413
v 0.645226777 0.4040009569456309 1.069260089383471
v 0.536867797 0.5190938274807435 0.9283788749910897
v 0.515218854 0.6737500984731747 1.0713764934246521
v 0.515218854 0.6737500984731747 1.0713764934246521
v 0.536867797 0.5190938274807435 0.9283788749910897
v 0.717492402 0.6066760011954271 0.8610014061708926
v 0.695843458 0.7613323911878739 1.0039990226044386
v 0.695843458 0.7613323911878739 1.0039990226044386
v 0.717492402 0.6066760011954271 0.8610014061708926
v 0.82585144 0.49158313066031406 1.0018826185632732
v 0.804202616 0.6462394016527465 1.144880246996837
v 0.804202616 0.6462394016527465 1.144880246996837
v 0.82585144 0.49158313066031406 1.0018826185632732
v 0.645226777 0.4040009569456309 1.069260089383471
v 0.623577952 0.558657287938086 1.2122578278170413
v 0.645226777 0.4040009569456309 1.069260089383471
v 0.82585144 0.49158313066031406 1.0018826185632732
v 0.717492402 0.6066760011954271 0.8610014061708926
v 0.536867797 0.5190938274807435 0.9283788749910897
v 0.804202616 0.6462394016527465 1.144880246996837
v 0.623577952 0.558657287938086 1.2122578278170413
v 0.515218854 0.6737500984731747 1.0713764934246521
v 0.695843458 0.7613323911878739 1.0039990226044386
v 0.839400172 1.2838293451680902 -0.27780649181955896
v 0.73999697 1.1566307764879895 -0.1407841993191508
v 0.725619614 1.0071056863469336 -0.2900191802801774
v 0.825022638 1.1343042650270194 -0.42704159178060297
v 0.825022638 1.1343042650270194 -0.42704159178060297
v 0.725619614 1.0071056863469336 -0.2900191802801774
v 0.912027597 0.9277435289547565 -0.22846139134633747
v 1.01143074 1.0549419826348059 -0.3654839518467662
v 1.01143074 1.0549419826348059 -0.3654839518467662
v 0.912027597 0.9277435289547565 -0.22846139134633747
v 0.926404953 1.0772684940957946 -0.07922641828529506
v 1.0258081 1.204467192775914 -0.21624870288571965
v 1.0258081 1.204467192775914 -0.21624870288571965
v 0.926404953 1.0772684940957946 -0.07922641828529506
v 0.73999697 1.1566307764879895 -0.1407841993191508
v 0.839400172 1.2838293451680902 -0.27780649181955896
v 0.73999697 1.1566307764879895 -0.1407841993191508
v 0.926404953 1.0772684940957946 -0.07922641828529506
v 0.912027597 0.9277435289547565 -0.22846139134633747
v 0.725619614 1.0071056863469336 -0.2900191802801774
v 1.0258081 1.204467192775914 -0.21624870288571965
v 0.839400172 1.2838293451680902 -0.27780649181955896
v 0.825022638 1.1343042650270194 -0.42704159178060297
v 1.01143074 1.0549419826348059 -0.3654839518467662
v -1.1939491 0.6713230816543672 -0.5175978347420305
v -0.993001103 0.6770699323615552 -0.4510964475791203
v -0.963824809 0.8592456988779055 -0.5550016280166227
v -1.16477275 0.8534987881706771 -0.6215032531795568
v -1.16477275 0.8534987881706771 -0.6215032531795568
v -0.963824809 0.8592456988779055 -0.5550016280166227
v -1.02385998 0.9670164174804186 -0.38290602237400045
v -1.2248081 0.9612698047732303 -0.44940764753697465
v -1.2248081 0.9612698047732303 -0.44940764753697465
v -1.02385998 0.9670164174804186 -0.38290602237400045
v -1.05303621 0.7848407709640765 -0.2790009019365223
v -1.25398433 0.779093800256864 -0.34550234909942446
v -1.25398433 0.779093800256864 -0.34550234909942446
v -1.05303621 0.7848407709640765 -0.2790009019365223
v -0.993001103 0.6770699323615552 -0.4510964475791203
v -1.1939491 0.6713230816543672 -0.5175978347420305
v -0.993001103 0.6770699323615552 -0.4510964475791203
v -1.05303621 0.7848407709640765 -0.2790009019365223
v -1.02385998 0.9670164174804186 -0.38290602237400045
v -0.963824809 0.8592456988779055 -0.5550016280166227
v -1.25398433 0.779093800256864 -0.34550234909942446
v -1.1939491 0.6713230816543672 -0.5175978347420305
v -1.16477275 0.8534987881706771 -0.6215032531795568
v -1.2248081 0.9612698047732303 -0.44940764753697465
v -0.0195653066 1.364042243554756 -0.7421648949875334
v 0.139587313 1.237477118615264 -0.8012183069167415
v 0.00481020659 1.121773507584118 -0.9164719338562862
v -0.154342473 1.248338512523602 -0.8574184629270541
v -0.154342473 1.248338512523602 -0.8574184629270541
v 0.00481020659 1.121773507584118 -0.9164719338562862
v 0.0414317995 1.2459893417650372 -1.0839978030543636
v -0.117721103 1.372554466704529 -1.0249443921251555
v -0.117721103 1.372554466704529 -1.0249443921251555
v 0.0414317995 1.2459893417650372 -1.0839978030543636
v 0.176208854 1.3616927227961368 -0.9687442931148034
v 0.0170562398 1.4882579577356516 -0.9096908211856022
v 0.0170562398 1.4882579577356516 -0.9096908211856022
v 0.176208854 1.3616927227961368 -0.9687442931148034
v 0.139587313 1.237477118615264 -0.8012183069167415
v -0.0195653066 1.364042243554756 -0.7421648949875334
v 0.139587313 1.237477118615264 -0.8012183069167415
v 0.176208854 1.3616927227961368 -0.9687442931148034
v 0.0414317995 1.2459893417650372 -1.0839978030543636
v 0.00481020659 1.121773507584118 -0.9164719338562862
v 0.0170562398 1.4882579577356516 -0.9096908211856022
v -0.0195653066 1.364042243554756 -0.7421648949875334
v -0.154342473 1.248338512523602 -0.8574184629270541
v -0.117721103 1.372554466704529 -1.0249443921251555
v -1.09407258 1.2295236373418925 0.3880988419471711
v -0.884650648 1.205531091422995 0.3680384824754943
v -0.865628719 1.1954421983696755 0.5786849621332462
v -1.07505059 1.2194349842886292 0.5987455006049148
v -1.07505059 1.2194349842886292 0.5987455006049148
v -0.865628719 1.1954421983696755 0.5786849621332462
v -0.890452802 0.9853037300846432 0.5708621183161346
v -1.09987473 1.0092963950036047 0.5909228357878434
v -1.09987473 1.0092963950036047 0.5909228357878434
v -0.890452802 0.9853037300846432 0.5708621183161346
v -0.909474611 0.995392445137963 0.36021581665843044
v -1.11889648 1.0193850480568598 0.38027611713009163
v -1.11889648 1.0193850480568598 0.38027611713009163
v -0.909474611 0.995392445137963 0.36021581665843044
v -0.884650648 1.205531091422995 0.3680384824754943
v -1.09407258 1.2295236373418925 0.3880988419471711
v -0.884650648 1.205531091422995 0.3680384824754943
v -0.909474611 0.995392445137963 0.36021581665843044
v -0.890452802 0.9853037300846432 0.5708621183161346
v -0.865628719 1.1954421983696755 0.5786849621332462
v -1.11889648 1.0193850480568598 0.38027611713009163
v -1.09407258 1.2295236373418925 0.3880988419471711
v -1.07505059 1.2194349842886292 0.5987455006049148
v -1.09987473 1.0092963950036047 0.5909228357878434
v -0.183140501 1.0774503112761287 0.941591601746218
v -0.187127188 1.242762605717586 0.8093359487653348
v -0.0899749547 1.3617195612847766 0.9550969053666941
v -0.0859883502 1.1964073868433593 1.087352735347585
v -0.0859883502 1.1964073868433593 1.087352735347585
v -0.0899749547 1.3617195612847766 0.9550969053666941
v 0.0981237665 1.3037822830085641 0.8770087976592496
v 0.102110609 1.1384702185671702 1.0092646926401345
v 0.102110609 1.1384702185671702 1.0092646926401345
v 0.0981237665 1.3037822830085641 0.8770087976592496
v 0.000971714035 1.1848256774414285 0.7312479010578514
v 0.00495837629 1.0195132629999393 0.8635034350387347
v 0.00495837629 1.0195132629999393 0.8635034350387347
v 0.000971714035 1.1848256774414285 0.7312479010578514
v -0.187127188 1.242762605717586 0.8093359487653348
v -0.183140501 1.0774503112761287 0.941591601746218
v -0.187127188 1.242762605717586 0.8093359487653348
v 0.000971714035 1.1848256774414285 0.7312479010578514
v 0.0981237665 1.3037822830085641 0.8770087976592496
v -0.0899749547 1.3617195612847766 0.9550969053666941
v 0.00495837629 1.0195132629999393 0.8635034350387347
v -0.183140501 1.0774503112761287 0.941591601746218
v -0.0859883502 1.1964073868433593 1.087352735347585
v 0.102110609 1.1384702185671702 1.0092646926401345
vt 0.931104362 0.767214537
vt 0.931104362 0.765110254
vt 0.92917788 0.765185893
vt 0.92917788 0.767290175
vt 0.924790144 0.774540663
vt 0.926782668 0.774540126
vt 0.926782668 0.772415638
vt 0.924790144 0.772416115
vt 0.926906943 0.768116832
vt 0.926906884 0.766012549
vt 0.924980462 0.765936852
vt 0.924980462 0.768041193
vt 0.92491436 0.772415102
vt 0.926906943 0.772415638
vt 0.926906943 0.77029109
vt 0.92491436 0.770290554
vt 0.924962103 0.770290554
vt 0.924962103 0.768165946
vt 0.922978997 0.768162012
vt 0.922978997 0.77028662
vt 0.929121196 0.767294109
vt 0.929121196 0.769418716
vt 0.931104362 0.769414842
vt 0.931104362 0.767290175
vt 0.135967895 0.19769758
vt 0.137792811 0.197872937
vt 0.137792811 0.195793211
vt 0.135967895 0.195617855
vt 0.135911211 0.200091541
vt 0.133966431 0.200007737
vt 0.133966431 0.202097654
vt 0.135911211 0.202181399
vt 0.133696958 0.196444571
vt 0.131872043 0.196619928
vt 0.131872043 0.198699534
vt 0.133696899 0.198524237
vt 0.133696958 0.200879514
vt 0.131752118 0.200963318
vt 0.131752118 0.203053236
vt 0.133696958 0.202969432
vt 0.129836783 0.196724594
vt 0.129836783 0.198720992
vt 0.131598458 0.198380768
vt 0.131598458 0.19638437
vt 0.129836783 0.198723137
vt 0.129836783 0.196726739
vt 0.128075108 0.196386516
vt 0.128075108 0.198382914
vt 0.368401468 0.781219602
vt 0.370280862 0.781271279
vt 0.370280862 0.779151976
vt 0.368401468 0.779100239
vt 0.379825532 0.776044905
vt 0.378173649 0.775972903
vt 0.378173649 0.778093994
vt 0.379825532 0.778165996
vt 0.378051579 0.778183281
vt 0.376172185 0.778235018
vt 0.376172185 0.780354321
vt 0.378051579 0.780302584
vt 0.378051579 0.775990188
vt 0.376399696 0.776062191
vt 0.376399696 0.778183281
vt 0.378051579 0.778111279
vt 0.368510067 0.783346295
vt 0.36700809 0.784078598
vt 0.36700809 0.785888016
vt 0.368510067 0.785155714
vt 0.372302175 0.778200209
vt 0.373804212 0.778932512
vt 0.373804212 0.777123034
vt 0.372302175 0.776390731
vt 0.134448469 0.818890572
vt 0.134448469 0.816794157
vt 0.132549167 0.816689014
vt 0.132549167 0.818785429
vt 0.128344864 0.814517975
vt 0.129635692 0.814288616
vt 0.129635692 0.812185049
vt 0.128344864 0.812414408
vt 0.138578117 0.815877199
vt 0.138578117 0.817973614
vt 0.140477419 0.817868471
vt 0.140477419 0.815772057
vt 0.128123194 0.821076334
vt 0.129414022 0.821305752
vt 0.129414022 0.819202185
vt 0.128123194 0.818972766
vt 0.129119933 0.814673781
vt 0.129119933 0.816778481
vt 0.1308074 0.816622734
vt 0.1308074 0.814517975
vt 0.130811781 0.825269222
vt 0.130811781 0.823164463
vt 0.129124343 0.823008716
vt 0.129124343 0.825113475
vt 0.631486773 0.766585946
vt 0.631486773 0.764768481
vt 0.629961252 0.765476823
vt 0.629961252 0.767294288
vt 0.633180678 0.773716271
vt 0.633180678 0.771666884
vt 0.631341636 0.771883249
vt 0.631341636 0.773932636
vt 0.629961252 0.767294288
vt 0.629961252 0.765476823
vt 0.628435671 0.764768481
vt 0.628435671 0.766585946
vt 0.631237447 0.775779784
vt 0.631237447 0.77782917
vt 0.633076429 0.778045535
vt 0.633076429 0.775996149
vt 0.631486773 0.766691089
vt 0.633051813 0.767128706
vt 0.633051813 0.765124679
vt 0.631486773 0.764687121
vt 0.636848748 0.764745176
vt 0.635283709 0.765182734
vt 0.635283709 0.767186761
vt 0.636848748 0.766749144
vt 0.650487304 0.229851484
vt 0.650238454 0.231238008
vt 0.652203858 0.231238008
vt 0.652452707 0.229851484
vt 0.643867731 0.234831452
vt 0.645783126 0.234973431
vt 0.645783126 0.232911706
vt 0.643867731 0.232769728
vt 0.647899926 0.231461883
vt 0.648148775 0.232848406
vt 0.650114179 0.232848406
vt 0.649865329 0.231461883
vt 0.645955086 0.226391077
vt 0.64403975 0.226533055
vt 0.64403975 0.22859478
vt 0.645955086 0.228452802
vt 0.650238454 0.231238008
vt 0.650452733 0.232848406
vt 0.652418137 0.232848406
vt 0.652203858 0.231238008
vt 0.649865329 0.231461883
vt 0.650079608 0.229851484
vt 0.648114204 0.229851484
vt 0.647899926 0.231461883
vt 0.354998976 0.281949878
vt 0.354580432 0.280632913
vt 0.352660447 0.280632913
vt 0.353079051 0.281949878
vt 0.344679207 0.276711762
vt 0.344679207 0.274711609
vt 0.34305355 0.275126636
vt 0.34305355 0.277126789
vt 0.352241904 0.280282199
vt 0.352660447 0.278965235
vt 0.350740522 0.278965235
vt 0.350321919 0.280282199
vt 0.344575018 0.28109026
vt 0.344574988 0.279090106
vt 0.342949331 0.278675079
vt 0.342949331 0.280675232
vt 0.354580432 0.280632913
vt 0.354911 0.278965235
vt 0.352991015 0.278965235
vt 0.352660447 0.280632913
vt 0.350321919 0.280282199
vt 0.350652486 0.281949878
vt 0.352572411 0.281949878
vt 0.352241904 0.280282199
vn 0.5155368371777551 -0.8059653887326161 0.29093222866818963
vn 0.5155368371777551 -0.8059653887326161 0.29093222866818963
vn 0.5155368371777551 -0.8059653887326161 0.29093222866818963
vn 0.5155368371777551 -0.8059653887326161 0.29093222866818963
vn 0.8214914648926182 0.5614438441771915 0.09966234466496308
vn 0.8214914648926182 0.5614438441771915 0.09966234466496308
vn 0.8214914648926182 0.5614438441771915 0.09966234466496308
vn 0.8214914648926182 0.5614438441771915 0.09966234466496308
vn -0.5155366146554519 0.805965710929741 -0.2909317304027069
vn -0.5155366146554519 0.805965710929741 -0.2909317304027069
vn -0.5155366146554519 0.805965710929741 -0.2909317304027069
vn -0.5155366146554519 0.805965710929741 -0.2909317304027069
vn -0.8214921421011951 -0.5614430049950584 -0.09966149009576705
vn -0.8214921421011951 -0.5614430049950584 -0.09966149009576705
vn -0.8214921421011951 -0.5614430049950584 -0.09966149009576705
vn -0.8214921421011951 -0.5614430049950584 -0.09966149009576705
vn -0.24366539994042447 0.1876192256706371 0.9515388583923535
vn -0.24366539994042447 0.1876192256706371 0.9515388583923535
vn -0.24366539994042447 0.1876192256706371 0.9515388583923535
vn -0.24366539994042447 0.1876192256706371 0.9515388583923535
vn 0.24366540503897746 -0.18761972159643284 -0.951538759302672
vn 0.24366540503897746 -0.18761972159643284 -0.951538759302672
vn 0.24366540503897746 -0.18761972159643284 -0.951538759302672
vn 0.24366540503897746 -0.18761972159643284 -0.951538759302672
vn -0.8530319679343649 -0.41362279757352494 0.31820220459556137
vn -0.8530319679343649 -0.41362279757352494 0.31820220459556137
vn -0.8530319679343649 -0.41362279757352494 0.31820220459556137
vn -0.8530319679343649 -0.41362279757352494 0.31820220459556137
vn -0.511745149734733 0.5435466513774289 -0.665337462870805
vn -0.511745149734733 0.5435466513774289 -0.665337462870805
vn -0.511745149734733 0.5435466513774289 -0.665337462870805
vn -0.511745149734733 0.5435466513774289 -0.665337462870805
vn 0.8530319050960781 0.413622767197249 -0.31820241253680986
vn 0.8530319050960781 0.413622767197249 -0.31820241253680986
vn 0.8530319050960781 0.413622767197249 -0.31820241253680986
vn 0.8530319050960781 0.413622767197249 -0.31820241253680986
vn 0.5117450242511854 -0.543547124157514 0.6653371731492611
vn 0.5117450242511854 -0.543547124157514 0.6653371731492611
vn 0.5117450242511854 -0.543547124157514 0.6653371731492611
vn 0.5117450242511854 -0.543547124157514 0.6653371731492611
vn 0.10224054256272712 -0.7303923770214046 -0.6753323974499531
vn 0.10224054256272712 -0.7303923770214046 -0.6753323974499531
vn 0.10224054256272712 -0.7303923770214046 -0.6753323974499531
vn 0.10224054256272712 -0.7303923770214046 -0.6753323974499531
vn -0.10224048733270093 0.7303924110974013 0.6753323689571651
vn -0.10224048733270093 0.7303924110974013 0.6753323689571651
vn -0.10224048733270093 0.7303924110974013 0.6753323689571651
vn -0.10224048733270093 0.7303924110974013 0.6753323689571651
vn -0.8803447919492892 0.3748020319193761 -0.29071718930408924
vn -0.8803447919492892 0.3748020319193761 -0.29071718930408924
vn -0.8803447919492892 0.3748020319193761 -0.29071718930408924
vn -0.8803447919492892 0.3748020319193761 -0.29071718930408924
vn -0.06790039926581033 -0.7061597702187454 -0.7047892697141128
vn -0.06790039926581033 -0.7061597702187454 -0.7047892697141128
vn -0.06790039926581033 -0.7061597702187454 -0.7047892697141128
vn -0.06790039926581033 -0.7061597702187454 -0.7047892697141128
vn 0.8803448074202119 -0.374801829505996 0.290717403413054
vn 0.8803448074202119 -0.374801829505996 0.290717403413054
vn 0.8803448074202119 -0.374801829505996 0.290717403413054
vn 0.8803448074202119 -0.374801829505996 0.290717403413054
vn 0.06789970674460748 0.706159178157036 0.7047899296446962
vn 0.06789970674460748 0.706159178157036 0.7047899296446962
vn 0.06789970674460748 0.706159178157036 0.7047899296446962
vn 0.06789970674460748 0.706159178157036 0.7047899296446962
vn -0.46944947589577796 -0.6007182179410697 0.6471126735081648
vn -0.46944947589577796 -0.6007182179410697 0.6471126735081648
vn -0.46944947589577796 -0.6007182179410697 0.6471126735081648
vn -0.46944947589577796 -0.6007182179410697 0.6471126735081648
vn 0.469449191501833 0.6007183553516305 -0.647112752263396
vn 0.469449191501833 0.6007183553516305 -0.647112752263396
vn 0.469449191501833 0.6007183553516305 -0.647112752263396
vn 0.469449191501833 0.6007183553516305 -0.647112752263396
vn 0.2835269116497167 -0.5089670781750358 -0.8127515018161092
vn 0.2835269116497167 -0.5089670781750358 -0.8127515018161092
vn 0.2835269116497167 -0.5089670781750358 -0.8127515018161092
vn 0.2835269116497167 -0.5089670781750358 -0.8127515018161092
vn 0.1377909010693495 0.8603581819513979 -0.490711184233437
vn 0.1377909010693495 0.8603581819513979 -0.490711184233437
vn 0.1377909010693495 0.8603581819513979 -0.490711184233437
vn 0.1377909010693495 0.8603581819513979 -0.490711184233437
vn -0.28352672296050024 0.5089665186354783 0.812751918038562
vn -0.28352672296050024 0.5089665186354783 0.812751918038562
vn -0.28352672296050024 0.5089665186354783 0.812751918038562
vn -0.28352672296050024 0.5089665186354783 0.812751918038562
vn -0.1377898322815881 -0.8603582082517145 0.4907114382340311
vn -0.1377898322815881 -0.8603582082517145 0.4907114382340311
vn -0.1377898322815881 -0.8603582082517145 0.4907114382340311
vn -0.1377898322815881 -0.8603582082517145 0.4907114382340311
vn 0.9490134071852083 0.027140374490376477 0.3140652051011768
vn 0.9490134071852083 0.027140374490376477 0.3140652051011768
vn 0.9490134071852083 0.027140374490376477 0.3140652051011768
vn 0.9490134071852083 0.027140374490376477 0.3140652051011768
vn -0.9490132376825618 -0.027140862678025426 -0.3140656751005338
vn -0.9490132376825618 -0.027140862678025426 -0.3140656751005338
vn -0.9490132376825618 -0.027140862678025426 -0.3140656751005338
vn -0.9490132376825618 -0.027140862678025426 -0.3140656751005338
vn -0.17295132309994532 -0.5866313888033583 0.7911709382356139
vn -0.17295132309994532 -0.5866313888033583 0.7911709382356139
vn -0.17295132309994532 -0.5866313888033583 0.7911709382356139
vn -0.17295132309994532 -0.5866313888033583 0.7911709382356139
vn -0.6365091577062204 -0.5464311924113979 -0.5443060206501261
vn -0.6365091577062204 -0.5464311924113979 -0.5443060206501261
vn -0.6365091577062204 -0.5464311924113979 -0.5443060206501261
vn -0.6365091577062204 -0.5464311924113979 -0.5443060206501261
vn 0.17295176093878933 0.5866314767300008 -0.7911707773279739
vn 0.17295176093878933 0.5866314767300008 -0.7911707773279739
vn 0.17295176093878933 0.5866314767300008 -0.7911707773279739
vn 0.17295176093878933 0.5866314767300008 -0.7911707773279739
vn 0.6365098877313429 0.5464310338012864 0.544305326190265
vn 0.6365098877313429 0.5464310338012864 0.544305326190265
vn 0.6365098877313429 0.5464310338012864 0.544305326190265
vn 0.6365098877313429 0.5464310338012864 0.544305326190265
vn 0.7516270676848784 -0.5977266846257192 -0.27888987362358164
vn 0.7516270676848784 -0.5977266846257192 -0.27888987362358164
vn 0.7516270676848784 -0.5977266846257192 -0.27888987362358164
vn 0.7516270676848784 -0.5977266846257192 -0.27888987362358164
vn -0.7516269653830482 0.5977264729855425 0.2788906029276236
vn -0.7516269653830482 0.5977264729855425 0.2788906029276236
vn -0.7516269653830482 0.5977264729855425 0.2788906029276236
vn -0.7516269653830482 0.5977264729855425 0.2788906029276236
vn 0.11723621282852588 0.9924166383407923 0.03694436825803585
vn 0.11723621282852588 0.9924166383407923 0.03694436825803585
vn 0.11723621282852588 0.9924166383407923 0.03694436825803585
vn 0.11723621282852588 0.9924166383407923 0.03694436825803585
vn 0.08983527847746602 -0.04764611929654394 0.9948162996537883
vn 0.08983527847746602 -0.04764611929654394 0.9948162996537883
vn 0.08983527847746602 -0.04764611929654394 0.9948162996537883
vn 0.08983527847746602 -0.04764611929654394 0.9948162996537883
vn -0.11723606716714573 -0.9924166666023974 -0.03694407131011032
vn -0.11723606716714573 -0.9924166666023974 -0.03694407131011032
vn -0.11723606716714573 -0.9924166666023974 -0.03694407131011032
vn -0.11723606716714573 -0.9924166666023974 -0.03694407131011032
vn -0.08983396937360633 0.0476455951612185 -0.9948164429724287
vn -0.08983396937360633 0.0476455951612185 -0.9948164429724287
vn -0.08983396937360633 0.0476455951612185 -0.9948164429724287
vn -0.08983396937360633 0.0476455951612185 -0.9948164429724287
vn 0.9890326286852895 -0.11330930726075884 -0.09473890586212866
vn 0.9890326286852895 -0.11330930726075884 -0.09473890586212866
vn 0.9890326286852895 -0.11330930726075884 -0.09473890586212866
vn 0.9890326286852895 -0.11330930726075884 -0.09473890586212866
vn -0.9890326464683491 0.11330933129806355 0.09473869146552194
vn -0.9890326464683491 0.11330933129806355 0.09473869146552194
vn -0.9890326464683491 0.11330933129806355 0.09473869146552194
vn -0.9890326464683491 0.11330933129806355 0.09473869146552194
vn -0.888330370598506 0.2736182682564509 0.3687847555806258
vn -0.888330370598506 0.2736182682564509 0.3687847555806258
vn -0.888330370598506 0.2736182682564509 0.3687847555806258
vn -0.888330370598506 0.2736182682564509 0.3687847555806258
vn 0.45881907390851423 0.5617963583118482 0.6883820953549553
vn 0.45881907390851423 0.5617963583118482 0.6883820953549553
vn 0.45881907390851423 0.5617963583118482 0.6883820953549553
vn 0.45881907390851423 0.5617963583118482 0.6883820953549553
vn 0.8883303400902375 -0.27361790185949864 -0.3687851009153823
vn 0.8883303400902375 -0.27361790185949864 -0.3687851009153823
vn 0.8883303400902375 -0.27361790185949864 -0.3687851009153823
vn 0.8883303400902375 -0.27361790185949864 -0.3687851009153823
vn -0.45881852715415716 -0.5617953088770192 -0.688383316230038
vn -0.45881852715415716 -0.5617953088770192 -0.688383316230038
vn -0.45881852715415716 -0.5617953088770192 -0.688383316230038
vn -0.45881852715415716 -0.5617953088770192 -0.688383316230038
vn -0.018827466374827993 0.7807169456508694 -0.624601134551869
vn -0.018827466374827993 0.7807169456508694 -0.624601134551869
vn -0.018827466374827993 0.7807169456508694 -0.624601134551869
vn -0.018827466374827993 0.7807169456508694 -0.624601134551869
vn 0.01882757253716215 -0.7807169440898397 0.6246011333029903
vn 0.01882757253716215 -0.7807169440898397 0.6246011333029903
vn 0.01882757253716215 -0.7807169440898397 0.6246011333029903
vn 0.01882757253716215 -0.7807169440898397 0.6246011333029903
f 3/3/3 2/2/2 1/1/1
f 4/4/4 3/3/3 1/1/1
f 7/7/7 6/6/6 5/5/5
f 8/8/8 7/7/7 5/5/5
f 11/11/11 10/10/10 9/9/9
f 12/12/12 11/11/11 9/9/9
f 15/15/15 14/14/14 13/13/13
f 16/16/16 15/15/15 13/13/13
f 19/19/19 18/18/18 17/17/17
f 20/20/20 19/19/19 17/17/17
f 23/23/23 22/22/22 21/21/21
f 24/24/24 23/23/23 21/21/21
f 27/27/27 26/26/26 25/25/25
f 28/28/28 27/27/27 25/25/25
f 31/31/31 30/30/30 29/29/29
f 32/32/32 31/31/31 29/29/29
f 35/35/35 34/34/34 33/33/33
f 36/36/36 35/35/35 33/33/33
f 39/39/39 38/38/38 37/37/37
f 40/40/40 39/39/39 37/37/37
f 43/43/43 42/42/42 41/41/41
f 44/44/44 43/43/43 41/41/41
f 47/47/47 46/46/46 45/45/45
f 48/48/48 47/47/47 45/45/45
f 51/51/51 50/50/50 49/49/49
f 52/52/52 51/51/51 49/49/49
f 55/55/55 54/54/54 53/53/53
f 56/56/56 55/55/55 53/53/53
f 59/59/59 58/58/58 57/57/57
f 60/60/60 59/59/59 57/57/57
f 63/63/63 62/62/62 61/61/61
f 64/64/64 63/63/63 61/61/61
f 67/67/67 66/66/66 65/65/65
f 68/68/68 67/67/67 65/65/65
f 71/71/71 70/70/70 69/69/69
f 72/72/72 71/71/71 69/69/69
f 75/75/75 74/74/74 73/73/73
f 76/76/76 75/75/75 73/73/73
f 79/79/79 78/78/78 77/77/77
f 80/80/80 79/79/79 77/77/77
f 83/83/83 82/82/82 81/81/81
f 84/84/84 83/83/83 81/81/81
f 87/87/87 86/86/86 85/85/85
f 88/88/88 87/87/87 85/85/85
f 91/91/91 90/90/90 89/89/89
f 92/92/92 91/91/91 89/89/89
f 95/95/95 94/94/94 93/93/93
f 96/96/96 95/95/95 93/93/93
f 99/99/99 98/98/98 97/97/97
f 100/100/100 99/99/99 97/97/97
f 103/103/103 102/102/102 101/101/101
f 104/104/104 103/103/103 101/101/101
f 107/107/107 106/106/106 105/105/105
f 108/108/108 107/107/107 105/105/105
f 111/111/111 110/110/110 109/109/109
f 112/112/112 111/111/111 109/109/109
f 115/115/115 114/114/114 113/113/113
f 116/116/116 115/115/115 113/113/113
f 119/119/119 118/118/118 117/117/117
f 120/120/120 119/119/119 117/117/117
f 123/123/123 122/122/122 121/121/121
f 124/124/124 123/123/123 121/121/121
f 127/127/127 126/126/126 125/125/125
f 128/128/128 127/127/127 125/125/125
f 131/131/131 130/130/130 129/129/129
f 132/132/132 131/131/131 129/129/129
f 135/135/135 134/134/134 133/133/133
f 136/136/136 135/135/135 133/133/133
f 139/139/139 138/138/138 137/137/137
f 140/140/140 139/139/139 137/137/137
f 143/143/143 142/142/142 141/141/141
f 144/144/144 143/143/143 141/141/141
f 147/147/147 146/146/146 145/145/145
f 148/148/148 147/147/147 145/145/145
f 151/151/151 150/150/150 149/149/149
f 152/152/152 151/151/151 149/149/149
f 155/155/155 154/154/154 153/153/153
f 156/156/156 155/155/155 153/153/153
f 159/159/159 158/158/158 157/157/157
f 160/160/160 159/159/159 157/157/157
f 163/163/163 162/162/162 161/161/161
f 164/164/164 163/163/163 161/161/161
f 167/167/167 166/166/166 165/165/165
f 168/168/168 167/167/167 165/165/165
