# 3d_glasses (gear rip -> Godot: Z negated + winding reversed)
v 0.210512 -0.073453 -0.092116
v 0.210512 -0.153969 -0.118108
v 0.210512 -0.153971 -0.071421
v 0.210512 -0.073452 -0.138803
v 0.210512 0.070991 -0.092116
v 0.210512 0.070992 -0.138803
v 0.210512 0.138161 0.009908
v 0.210512 0.138163 -0.138803
v 0.210512 0.204076 0.009908
v 0.210512 0.204078 -0.138803
v -0.210512 -0.073452 -0.138803
v -0.210512 -0.153971 -0.071421
v -0.210512 -0.153969 -0.118108
v -0.210512 -0.073453 -0.092116
v -0.210512 0.070992 -0.138803
v -0.210512 0.070991 -0.092116
v -0.210512 0.137535 -0.138803
v -0.210512 0.137534 0.009427
v -0.210512 0.204078 -0.138803
v -0.210512 0.204076 0.009908
v 0.210512 -0.073453 -0.092116
v 0.210512 -0.153971 -0.071421
v 0.210512 -0.153969 -0.118108
v 0.210512 -0.073452 -0.138803
v 0.210512 0.070991 -0.092116
v 0.210512 0.070992 -0.138803
v 0.210512 0.138161 0.009908
v 0.210512 0.138163 -0.138803
v 0.210512 0.204076 0.009908
v 0.210512 0.204078 -0.138803
v -0.210512 -0.073452 -0.138803
v -0.210512 -0.153969 -0.118108
v -0.210512 -0.153971 -0.071421
v -0.210512 -0.073453 -0.092116
v -0.210512 0.070992 -0.138803
v -0.210512 0.070991 -0.092116
v -0.210512 0.137535 -0.138803
v -0.210512 0.137534 0.009427
v -0.210512 0.204078 -0.138803
v -0.210512 0.204076 0.009908
v 0.210512 0.204078 -0.138803
v 0.186266 0.204078 -0.104762
v 0.186266 0.204076 -0.024133
v 0.210512 0.204076 0.009908
v 0.056798 0.204076 -0.024133
v 0.042232 0.204078 -0.138803
v 0.042232 0.204076 0.009908
v 0.056798 0.204078 -0.104762
v -0.000000 0.204078 -0.138803
v -0.000000 0.204076 -0.047467
v -0.042232 0.204078 -0.138803
v -0.042232 0.204076 0.009908
v -0.056798 0.204076 -0.024133
v -0.056798 0.204078 -0.104762
v -0.186266 0.204076 -0.024133
v -0.210512 0.204078 -0.138803
v -0.210512 0.204076 0.009908
v -0.186266 0.204078 -0.104762
v 0.210512 0.204078 -0.138803
v 0.210512 0.204076 0.009908
v 0.186266 0.204076 -0.024133
v 0.186266 0.204078 -0.104762
v 0.056798 0.204076 -0.024133
v 0.042232 0.204078 -0.138803
v 0.042232 0.204076 0.009908
v 0.056798 0.204078 -0.104762
v -0.000000 0.204078 -0.138803
v -0.000000 0.204076 -0.047467
v -0.042232 0.204078 -0.138803
v -0.042232 0.204076 0.009908
v -0.056798 0.204076 -0.024133
v -0.056798 0.204078 -0.104762
v -0.186266 0.204076 -0.024133
v -0.210512 0.204078 -0.138803
v -0.210512 0.204076 0.009908
v -0.186266 0.204078 -0.104762
vt 0 0
vt 0 0
vt 0 0
vt 0 0
vt 0 0
vt 0 0
vt 0 0
vt 0 0
vt 0 0
vt 0 0
vt 0 0
vt 0 0
vt 0 0
vt 0 0
vt 0 0
vt 0 0
vt 0 0
vt 0 0
vt 0 0
vt 0 0
vt 0 0
vt 0 0
vt 0 0
vt 0 0
vt 0 0
vt 0 0
vt 0 0
vt 0 0
vt 0 0
vt 0 0
vt 0 0
vt 0 0
vt 0 0
vt 0 0
vt 0 0
vt 0 0
vt 0 0
vt 0 0
vt 0 0
vt 0 0
vt 0 0
vt 0 0
vt 0 0
vt 0 0
vt 0 0
vt 0 0
vt 0 0
vt 0 0
vt 0 0
vt 0 0
vt 0 0
vt 0 0
vt 0 0
vt 0 0
vt 0 0
vt 0 0
vt 0 0
vt 0 0
vt 0 0
vt 0 0
vt 0 0
vt 0 0
vt 0 0
vt 0 0
vt 0 0
vt 0 0
vt 0 0
vt 0 0
vt 0 0
vt 0 0
vt 0 0
vt 0 0
vt 0 0
vt 0 0
vt 0 0
vt 0 0
vn -1.000000 0.000000 -0.000000
vn -1.000000 0.000000 -0.000000
vn -1.000000 0.000000 -0.000000
vn -1.000000 0.000000 -0.000000
vn -1.000000 0.000000 -0.000000
vn -1.000000 0.000000 -0.000000
vn -1.000000 0.000000 -0.000000
vn -1.000000 0.000000 -0.000000
vn -1.000000 0.000000 -0.000000
vn -1.000000 0.000000 -0.000000
vn 1.000000 0.000000 -0.000000
vn 1.000000 0.000000 -0.000000
vn 1.000000 0.000000 -0.000000
vn 1.000000 0.000000 -0.000000
vn 1.000000 0.000000 -0.000000
vn 1.000000 0.000000 -0.000000
vn 1.000000 0.000000 -0.000000
vn 1.000000 0.000000 -0.000000
vn 1.000000 0.000000 -0.000000
vn 1.000000 0.000000 -0.000000
vn 1.000000 0.000000 -0.000000
vn 1.000000 0.000000 -0.000000
vn 1.000000 0.000000 -0.000000
vn 1.000000 0.000000 -0.000000
vn 1.000000 0.000000 -0.000000
vn 1.000000 0.000000 -0.000000
vn 1.000000 0.000000 -0.000000
vn 1.000000 0.000000 -0.000000
vn 1.000000 0.000000 -0.000000
vn 1.000000 0.000000 -0.000000
vn -1.000000 0.000000 -0.000000
vn -1.000000 0.000000 -0.000000
vn -1.000000 0.000000 -0.000000
vn -1.000000 0.000000 -0.000000
vn -1.000000 0.000000 -0.000000
vn -1.000000 0.000000 -0.000000
vn -1.000000 0.000000 -0.000000
vn -1.000000 0.000000 -0.000000
vn -1.000000 0.000000 -0.000000
vn -1.000000 0.000000 -0.000000
vn -0.000000 1.000000 -0.000000
vn -0.000000 1.000000 -0.000000
vn -0.000000 1.000000 -0.000000
vn -0.000000 1.000000 -0.000000
vn -0.000000 1.000000 -0.000000
vn -0.000000 1.000000 -0.000000
vn -0.000000 1.000000 -0.000000
vn -0.000000 1.000000 -0.000000
vn -0.000000 1.000000 -0.000000
vn -0.000000 1.000000 -0.000000
vn -0.000000 1.000000 -0.000000
vn -0.000000 1.000000 -0.000000
vn -0.000000 1.000000 -0.000000
vn -0.000000 1.000000 -0.000000
vn -0.000000 1.000000 -0.000000
vn -0.000000 1.000000 -0.000000
vn -0.000000 1.000000 -0.000000
vn -0.000000 1.000000 -0.000000
vn -0.000000 -1.000000 -0.000000
vn -0.000000 -1.000000 -0.000000
vn -0.000000 -1.000000 -0.000000
vn -0.000000 -1.000000 -0.000000
vn -0.000000 -1.000000 -0.000000
vn -0.000000 -1.000000 -0.000000
vn -0.000000 -1.000000 -0.000000
vn -0.000000 -1.000000 -0.000000
vn -0.000000 -1.000000 -0.000000
vn -0.000000 -1.000000 -0.000000
vn -0.000000 -1.000000 -0.000000
vn -0.000000 -1.000000 -0.000000
vn -0.000000 -1.000000 -0.000000
vn -0.000000 -1.000000 -0.000000
vn -0.000000 -1.000000 -0.000000
vn -0.000000 -1.000000 -0.000000
vn -0.000000 -1.000000 -0.000000
vn -0.000000 -1.000000 -0.000000
f 1/1/1 2/2/2 3/3/3
f 1/1/1 4/4/4 2/2/2
f 5/5/5 4/4/4 1/1/1
f 5/5/5 6/6/6 4/4/4
f 7/7/7 6/6/6 5/5/5
f 7/7/7 8/8/8 6/6/6
f 9/9/9 8/8/8 7/7/7
f 9/9/9 10/10/10 8/8/8
f 11/11/11 12/12/12 13/13/13
f 11/11/11 14/14/14 12/12/12
f 15/15/15 14/14/14 11/11/11
f 15/15/15 16/16/16 14/14/14
f 17/17/17 16/16/16 15/15/15
f 17/17/17 18/18/18 16/16/16
f 19/19/19 18/18/18 17/17/17
f 19/19/19 20/20/20 18/18/18
f 21/21/21 22/22/22 23/23/23
f 21/21/21 23/23/23 24/24/24
f 25/25/25 21/21/21 24/24/24
f 25/25/25 24/24/24 26/26/26
f 27/27/27 25/25/25 26/26/26
f 27/27/27 26/26/26 28/28/28
f 29/29/29 27/27/27 28/28/28
f 29/29/29 28/28/28 30/30/30
f 31/31/31 32/32/32 33/33/33
f 31/31/31 33/33/33 34/34/34
f 35/35/35 31/31/31 34/34/34
f 35/35/35 34/34/34 36/36/36
f 37/37/37 35/35/35 36/36/36
f 37/37/37 36/36/36 38/38/38
f 39/39/39 37/37/37 38/38/38
f 39/39/39 38/38/38 40/40/40
f 41/41/41 42/42/42 43/43/43
f 41/41/41 43/43/43 44/44/44
f 44/44/44 43/43/43 45/45/45
f 46/46/46 42/42/42 41/41/41
f 44/44/44 45/45/45 47/47/47
f 46/46/46 48/48/48 42/42/42
f 47/47/47 45/45/45 48/48/48
f 47/47/47 48/48/48 46/46/46
f 49/49/49 47/47/47 46/46/46
f 49/49/49 50/50/50 47/47/47
f 51/51/51 50/50/50 49/49/49
f 51/51/51 52/52/52 50/50/50
f 51/51/51 53/53/53 52/52/52
f 51/51/51 54/54/54 53/53/53
f 52/52/52 53/53/53 55/55/55
f 56/56/56 54/54/54 51/51/51
f 52/52/52 55/55/55 57/57/57
f 56/56/56 58/58/58 54/54/54
f 57/57/57 55/55/55 58/58/58
f 57/57/57 58/58/58 56/56/56
f 59/59/59 60/60/60 61/61/61
f 59/59/59 61/61/61 62/62/62
f 60/60/60 63/63/63 61/61/61
f 64/64/64 59/59/59 62/62/62
f 60/60/60 65/65/65 63/63/63
f 64/64/64 62/62/62 66/66/66
f 65/65/65 66/66/66 63/63/63
f 65/65/65 64/64/64 66/66/66
f 67/67/67 64/64/64 65/65/65
f 67/67/67 65/65/65 68/68/68
f 69/69/69 67/67/67 68/68/68
f 69/69/69 68/68/68 70/70/70
f 69/69/69 70/70/70 71/71/71
f 69/69/69 71/71/71 72/72/72
f 70/70/70 73/73/73 71/71/71
f 74/74/74 69/69/69 72/72/72
f 70/70/70 75/75/75 73/73/73
f 74/74/74 72/72/72 76/76/76
f 75/75/75 74/74/74 76/76/76
f 75/75/75 76/76/76 73/73/73
