# anniversary_0_purple_hat (gear rip -> Godot: Z negated + winding reversed)
v -0.750155 -0.101801 -0.221139
v -0.587590 -0.203603 -0.211139
v -0.670321 -0.203603 -0.211139
v -0.587590 -0.101801 -0.211139
v -0.670321 -0.000000 -0.211139
v -0.587590 -0.000000 -0.211139
v -0.670321 0.203603 -0.211139
v -0.587590 0.203603 -0.211139
v -0.587590 0.101801 -0.211139
v -0.750155 0.101801 -0.221139
v -0.587590 -0.000000 -0.211139
v -0.670321 -0.000000 -0.211139
v -0.670321 0.203603 0.196066
v -0.587590 0.203603 0.196066
v -0.587590 0.203603 0.094265
v -0.750155 0.213603 0.094265
v -0.587590 0.203603 -0.007537
v -0.670321 0.203603 -0.007537
v -0.670321 0.203603 -0.007537
v -0.587590 0.203603 -0.007537
v -0.587590 0.203603 -0.109338
v -0.750155 0.213603 -0.109338
v -0.587590 0.203603 -0.211139
v -0.670321 0.203603 -0.211139
v -0.670321 -0.203603 0.196066
v -0.587590 -0.203603 0.196066
v -0.587590 -0.101801 0.196066
v -0.750155 -0.101801 0.206066
v -0.587590 0.000000 0.196066
v -0.670321 0.000000 0.196066
v -0.670321 0.000000 0.196066
v -0.587590 0.000000 0.196066
v -0.587590 0.101802 0.196066
v -0.750155 0.101802 0.206066
v -0.587590 0.203603 0.196066
v -0.670321 0.203603 0.196066
v -0.750155 -0.213603 -0.109338
v -0.587590 -0.203603 -0.007537
v -0.670321 -0.203603 -0.007537
v -0.587590 -0.203603 -0.109338
v -0.670321 -0.203603 -0.211139
v -0.587590 -0.203603 -0.211139
v -0.670321 -0.203603 -0.007537
v -0.587590 -0.203603 -0.007537
v -0.587590 -0.203603 0.094265
v -0.750155 -0.213603 0.094265
v -0.587590 -0.203603 0.196066
v -0.670321 -0.203603 0.196066
v -0.750155 -0.101801 -0.221139
v -0.670321 -0.203603 -0.211139
v -0.587590 -0.203603 -0.211139
v -0.587590 -0.101801 -0.211139
v -0.670321 -0.000000 -0.211139
v -0.587590 -0.000000 -0.211139
v -0.670321 0.203603 -0.211139
v -0.587590 0.101801 -0.211139
v -0.587590 0.203603 -0.211139
v -0.750155 0.101801 -0.221139
v -0.587590 -0.000000 -0.211139
v -0.670321 -0.000000 -0.211139
v -0.670321 0.203603 0.196066
v -0.587590 0.203603 0.094265
v -0.587590 0.203603 0.196066
v -0.750155 0.213603 0.094265
v -0.587590 0.203603 -0.007537
v -0.670321 0.203603 -0.007537
v -0.670321 0.203603 -0.007537
v -0.587590 0.203603 -0.109338
v -0.587590 0.203603 -0.007537
v -0.750155 0.213603 -0.109338
v -0.587590 0.203603 -0.211139
v -0.670321 0.203603 -0.211139
v -0.670321 -0.203603 0.196066
v -0.587590 -0.101801 0.196066
v -0.587590 -0.203603 0.196066
v -0.750155 -0.101801 0.206066
v -0.587590 0.000000 0.196066
v -0.670321 0.000000 0.196066
v -0.670321 0.000000 0.196066
v -0.587590 0.101802 0.196066
v -0.587590 0.000000 0.196066
v -0.750155 0.101802 0.206066
v -0.587590 0.203603 0.196066
v -0.670321 0.203603 0.196066
v -0.750155 -0.213603 -0.109338
v -0.670321 -0.203603 -0.007537
v -0.587590 -0.203603 -0.007537
v -0.587590 -0.203603 -0.109338
v -0.670321 -0.203603 -0.211139
v -0.587590 -0.203603 -0.211139
v -0.670321 -0.203603 -0.007537
v -0.587590 -0.203603 0.094265
v -0.587590 -0.203603 -0.007537
v -0.750155 -0.213603 0.094265
v -0.587590 -0.203603 0.196066
v -0.670321 -0.203603 0.196066
vt 0.499890774 0.640950143
vt 0.00081294775 8.00490379E-05
vt 8.00490379E-05 0.324692011
vt 0.500111699 0.00120723248
vt 0.999919891 0.32503736
vt 0.999411285 0.000424742699
vt 0.999919891 0.32503736
vt 0.999411225 0.000424742699
vt 0.500111699 0.00120729208
vt 0.499890774 0.640950143
vt 0.000813007355 8.00490379E-05
vt 8.00490379E-05 0.324692041
vt 0.999919951 0.324692369
vt 0.999292374 8.00490379E-05
vt 0.499993235 0.00104546547
vt 0.500006557 0.640788376
vt 0.000694155693 0.000100970268
vt 8.00490379E-05 0.3247132
vt 0.999919951 0.324692518
vt 0.999292493 8.00490379E-05
vt 0.499993294 0.00104546547
vt 0.500006676 0.640788376
vt 0.000694155693 0.000101029873
vt 8.00490379E-05 0.324713349
vt 0.999919891 0.32503745
vt 0.999411225 0.00042482579
vt 0.500111759 0.00120730873
vt 0.499890864 0.640950143
vt 0.00081286981 8.00479611E-05
vt 8.00479611E-05 0.3246921
vt 0.999919951 0.324692428
vt 0.999299109 8.00372145E-05
vt 0.499999851 0.0010350371
vt 0.49999997 0.640778065
vt 0.000700746954 8.01833812E-05
vt 8.00372145E-05 0.324692518
vt 0.500006557 0.640788138
vt 0.000694060174 0.00010086703
vt 8.00378475E-05 0.324713141
vt 0.499993265 0.00104534253
vt 0.999919951 0.324692369
vt 0.999292374 8.00378475E-05
vt 0.999919951 0.324692279
vt 0.999292493 8.00378475E-05
vt 0.499993265 0.00104541553
vt 0.500006676 0.640788138
vt 0.000694023562 0.000100940117
vt 8.00378475E-05 0.32471332
vt 0.499890774 0.640950143
vt 8.00490379E-05 0.324692011
vt 0.00081294775 8.00490379E-05
vt 0.500111699 0.00120723248
vt 0.999919891 0.32503736
vt 0.999411285 0.000424742699
vt 0.999919891 0.32503736
vt 0.500111699 0.00120729208
vt 0.999411225 0.000424742699
vt 0.499890774 0.640950143
vt 0.000813007355 8.00490379E-05
vt 8.00490379E-05 0.324692041
vt 0.999919951 0.324692369
vt 0.499993235 0.00104546547
vt 0.999292374 8.00490379E-05
vt 0.500006557 0.640788376
vt 0.000694155693 0.000100970268
vt 8.00490379E-05 0.3247132
vt 0.999919951 0.324692518
vt 0.499993294 0.00104546547
vt 0.999292493 8.00490379E-05
vt 0.500006676 0.640788376
vt 0.000694155693 0.000101029873
vt 8.00490379E-05 0.324713349
vt 0.999919891 0.32503745
vt 0.500111759 0.00120730873
vt 0.999411225 0.00042482579
vt 0.499890864 0.640950143
vt 0.00081286981 8.00479611E-05
vt 8.00479611E-05 0.3246921
vt 0.999919951 0.324692428
vt 0.499999851 0.0010350371
vt 0.999299109 8.00372145E-05
vt 0.49999997 0.640778065
vt 0.000700746954 8.01833812E-05
vt 8.00372145E-05 0.324692518
vt 0.500006557 0.640788138
vt 8.00378475E-05 0.324713141
vt 0.000694060174 0.00010086703
vt 0.499993265 0.00104534253
vt 0.999919951 0.324692369
vt 0.999292374 8.00378475E-05
vt 0.999919951 0.324692279
vt 0.499993265 0.00104541553
vt 0.999292493 8.00378475E-05
vt 0.500006676 0.640788138
vt 0.000694023562 0.000100940117
vt 8.00378475E-05 0.32471332
vn 0.040733 -0.000000 -0.999170
vn 0.040711 -0.033085 -0.998623
vn 0.040711 -0.033085 -0.998623
vn 0.040733 -0.000000 -0.999170
vn 0.040733 -0.000000 -0.999170
vn 0.040733 -0.000000 -0.999170
vn 0.040711 0.033084 -0.998623
vn 0.040711 0.033084 -0.998623
vn 0.040733 -0.000000 -0.999170
vn 0.040733 -0.000000 -0.999170
vn 0.040733 -0.000000 -0.999170
vn 0.040733 -0.000000 -0.999170
vn 0.040711 0.998623 0.033084
vn 0.040711 0.998623 0.033084
vn 0.040734 0.999170 -0.000000
vn 0.040734 0.999170 -0.000000
vn 0.040734 0.999170 -0.000000
vn 0.040734 0.999170 -0.000000
vn 0.040734 0.999170 -0.000000
vn 0.040734 0.999170 -0.000000
vn 0.040733 0.999170 -0.000000
vn 0.040733 0.999170 -0.000000
vn 0.040711 0.998623 -0.033085
vn 0.040711 0.998623 -0.033085
vn 0.040711 -0.033084 0.998623
vn 0.040711 -0.033084 0.998623
vn 0.040733 0.000000 0.999170
vn 0.040733 0.000000 0.999170
vn 0.040733 0.000000 0.999170
vn 0.040733 0.000000 0.999170
vn 0.040733 0.000000 0.999170
vn 0.040733 0.000000 0.999170
vn 0.040733 0.000000 0.999170
vn 0.040733 0.000000 0.999170
vn 0.040711 0.033085 0.998623
vn 0.040711 0.033085 0.998623
vn 0.040733 -0.999170 0.000000
vn 0.040733 -0.999170 0.000000
vn 0.040733 -0.999170 0.000000
vn 0.040733 -0.999170 0.000000
vn 0.040711 -0.998623 -0.033084
vn 0.040711 -0.998623 -0.033084
vn 0.040733 -0.999170 0.000000
vn 0.040733 -0.999170 0.000000
vn 0.040733 -0.999170 0.000000
vn 0.040733 -0.999170 0.000000
vn 0.040711 -0.998623 0.033085
vn 0.040711 -0.998623 0.033085
vn -0.040733 0.000000 0.999170
vn -0.040711 0.033085 0.998623
vn -0.040711 0.033085 0.998623
vn -0.040733 0.000000 0.999170
vn -0.040733 0.000000 0.999170
vn -0.040733 0.000000 0.999170
vn -0.040711 -0.033084 0.998623
vn -0.040733 0.000000 0.999170
vn -0.040711 -0.033084 0.998623
vn -0.040733 0.000000 0.999170
vn -0.040733 0.000000 0.999170
vn -0.040733 0.000000 0.999170
vn -0.040711 -0.998623 -0.033084
vn -0.040734 -0.999170 0.000000
vn -0.040711 -0.998623 -0.033084
vn -0.040734 -0.999170 0.000000
vn -0.040734 -0.999170 0.000000
vn -0.040734 -0.999170 0.000000
vn -0.040734 -0.999170 0.000000
vn -0.040733 -0.999170 0.000000
vn -0.040734 -0.999170 0.000000
vn -0.040733 -0.999170 0.000000
vn -0.040711 -0.998623 0.033085
vn -0.040711 -0.998623 0.033085
vn -0.040711 0.033084 -0.998623
vn -0.040733 -0.000000 -0.999170
vn -0.040711 0.033084 -0.998623
vn -0.040733 -0.000000 -0.999170
vn -0.040733 -0.000000 -0.999170
vn -0.040733 -0.000000 -0.999170
vn -0.040733 -0.000000 -0.999170
vn -0.040733 -0.000000 -0.999170
vn -0.040733 -0.000000 -0.999170
vn -0.040733 -0.000000 -0.999170
vn -0.040711 -0.033085 -0.998623
vn -0.040711 -0.033085 -0.998623
vn -0.040733 0.999170 -0.000000
vn -0.040733 0.999170 -0.000000
vn -0.040733 0.999170 -0.000000
vn -0.040733 0.999170 -0.000000
vn -0.040711 0.998623 0.033084
vn -0.040711 0.998623 0.033084
vn -0.040733 0.999170 -0.000000
vn -0.040733 0.999170 -0.000000
vn -0.040733 0.999170 -0.000000
vn -0.040733 0.999170 -0.000000
vn -0.040711 0.998623 -0.033085
vn -0.040711 0.998623 -0.033085
f 1/1/1 2/2/2 3/3/3
f 1/1/1 4/4/4 2/2/2
f 5/5/5 4/4/4 1/1/1
f 5/5/5 6/6/6 4/4/4
f 7/7/7 8/8/8 9/9/9
f 7/7/7 9/9/9 10/10/10
f 10/10/10 9/9/9 11/11/11
f 10/10/10 11/11/11 12/12/12
f 13/13/13 14/14/14 15/15/15
f 13/13/13 15/15/15 16/16/16
f 16/16/16 15/15/15 17/17/17
f 16/16/16 17/17/17 18/18/18
f 19/19/19 20/20/20 21/21/21
f 19/19/19 21/21/21 22/22/22
f 22/22/22 21/21/21 23/23/23
f 22/22/22 23/23/23 24/24/24
f 25/25/25 26/26/26 27/27/27
f 25/25/25 27/27/27 28/28/28
f 28/28/28 27/27/27 29/29/29
f 28/28/28 29/29/29 30/30/30
f 31/31/31 32/32/32 33/33/33
f 31/31/31 33/33/33 34/34/34
f 34/34/34 33/33/33 35/35/35
f 34/34/34 35/35/35 36/36/36
f 37/37/37 38/38/38 39/39/39
f 37/37/37 40/40/40 38/38/38
f 41/41/41 40/40/40 37/37/37
f 41/41/41 42/42/42 40/40/40
f 43/43/43 44/44/44 45/45/45
f 43/43/43 45/45/45 46/46/46
f 46/46/46 45/45/45 47/47/47
f 46/46/46 47/47/47 48/48/48
f 49/49/49 50/50/50 51/51/51
f 49/49/49 51/51/51 52/52/52
f 53/53/53 49/49/49 52/52/52
f 53/53/53 52/52/52 54/54/54
f 55/55/55 56/56/56 57/57/57
f 55/55/55 58/58/58 56/56/56
f 58/58/58 59/59/59 56/56/56
f 58/58/58 60/60/60 59/59/59
f 61/61/61 62/62/62 63/63/63
f 61/61/61 64/64/64 62/62/62
f 64/64/64 65/65/65 62/62/62
f 64/64/64 66/66/66 65/65/65
f 67/67/67 68/68/68 69/69/69
f 67/67/67 70/70/70 68/68/68
f 70/70/70 71/71/71 68/68/68
f 70/70/70 72/72/72 71/71/71
f 73/73/73 74/74/74 75/75/75
f 73/73/73 76/76/76 74/74/74
f 76/76/76 77/77/77 74/74/74
f 76/76/76 78/78/78 77/77/77
f 79/79/79 80/80/80 81/81/81
f 79/79/79 82/82/82 80/80/80
f 82/82/82 83/83/83 80/80/80
f 82/82/82 84/84/84 83/83/83
f 85/85/85 86/86/86 87/87/87
f 85/85/85 87/87/87 88/88/88
f 89/89/89 85/85/85 88/88/88
f 89/89/89 88/88/88 90/90/90
f 91/91/91 92/92/92 93/93/93
f 91/91/91 94/94/94 92/92/92
f 94/94/94 95/95/95 92/92/92
f 94/94/94 96/96/96 95/95/95
