# anniversary_1_rainbow_hat (gear rip -> Godot: Z negated + winding reversed)
v -0.636461 0.213508 0.206529
v -0.627091 -0.001309 0.206120
v -0.617721 -0.216125 0.205711
v -0.645840 0.213508 -0.008287
v -0.636461 0.213508 0.206529
v -0.583552 0.215820 0.204219
v -0.602310 0.215820 -0.225414
v -0.655219 0.213508 -0.223104
v -1.082610 -0.020806 0.010782
v -0.859535 0.096351 0.108656
v -0.868914 0.096351 -0.106161
v -0.645840 0.213508 -0.008287
v -0.636461 0.213508 0.206529
v -0.655219 0.213508 -0.223104
v -1.082610 -0.020806 0.010782
v -0.868914 0.096351 -0.106161
v -0.859544 -0.118465 -0.106570
v -0.645849 -0.001309 -0.223513
v -0.655219 0.213508 -0.223104
v -0.636479 -0.216125 -0.223922
v -1.082610 -0.020806 0.010782
v -0.859544 -0.118465 -0.106570
v -0.850165 -0.118465 0.108247
v -0.627100 -0.216125 -0.009106
v -0.636479 -0.216125 -0.223922
v -0.617721 -0.216125 0.205711
v -1.082610 -0.020806 0.010782
v -0.850165 -0.118465 0.108247
v -0.859535 0.096351 0.108656
v -0.627091 -0.001309 0.206120
v -0.617721 -0.216125 0.205711
v -0.636461 0.213508 0.206529
v -0.583552 0.215820 0.204219
v -0.564812 -0.213813 0.203401
v -0.583570 -0.213813 -0.226232
v -0.602310 0.215820 -0.225414
v -0.583570 -0.213813 -0.226232
v -0.564812 -0.213813 0.203401
v -0.617721 -0.216125 0.205711
v -0.627100 -0.216125 -0.009106
v -0.636479 -0.216125 -0.223922
v -0.655219 0.213508 -0.223104
v -0.602310 0.215820 -0.225414
v -0.583570 -0.213813 -0.226232
v -0.636479 -0.216125 -0.223922
v -0.617721 -0.216125 0.205711
v -0.564812 -0.213813 0.203401
v -0.583552 0.215820 0.204219
v -0.636461 0.213508 0.206529
vt 3.1709671E-05 0.246558815
vt 0.999932408 0.2465588
vt 1.99983311 0.246558785
vt 0.999932408 4.96655703E-05
vt 1.99983311 4.96804714E-05
vt 1.99983311 0.246558815
vt 3.1709671E-05 0.246558815
vt 3.1709671E-05 4.96506691E-05
vt 1.00010324 0.999914646
vt 1.49991775 0.49999997
vt 0.500103414 0.5
vt 0.999917984 8.53538513E-05
vt 1.99973238 8.52942467E-05
vt 0.000103592873 8.5413456E-05
vt 1.00010324 0.999914646
vt 1.50010335 0.5
vt 0.500103354 0.5
vt 0.999932408 4.96655703E-05
vt 1.99983311 4.96804714E-05
vt 3.1709671E-05 4.96506691E-05
vt 1.00010324 0.999914646
vt 1.50010335 0.5
vt 0.500103354 0.5
vt 1.00010347 8.5413456E-05
vt 2.00010347 8.5413456E-05
vt 0.000103473663 8.5413456E-05
vt 1.00010312 0.999914646
vt 1.50010324 0.500007272
vt 0.500103354 0.500007331
vt 1.00010347 9.9927187E-05
vt 2.00010347 9.98675823E-05
vt 0.000103592873 9.99867916E-05
vt 7.37905502E-05 0.99992919
vt 1.99993241 0.999929309
vt 1.99993241 7.06911087E-05
vt 7.37905502E-05 7.06911087E-05
vt 1.99983311 4.96506691E-05
vt 3.1709671E-05 4.96506691E-05
vt 3.1709671E-05 0.246558815
vt 0.999932408 0.2465588
vt 1.99983311 0.246558785
vt 1.99983311 4.96804714E-05
vt 1.99983311 0.246558815
vt 3.1709671E-05 0.246558815
vt 3.1709671E-05 4.96506691E-05
vt 1.99983311 0.246558785
vt 1.99983311 4.96506691E-05
vt 3.1709671E-05 4.96506691E-05
vt 3.1709671E-05 0.246558815
vn -0.043620 -0.000000 -0.999048
vn -0.043620 -0.000000 -0.999048
vn -0.043620 -0.000000 -0.999048
vn -0.264374 0.964351 0.011543
vn -0.264374 0.964351 0.011543
vn -0.043578 0.999048 0.001902
vn -0.043578 0.999048 0.001902
vn -0.264374 0.964351 0.011543
vn -0.471940 0.881390 0.020605
vn -0.471940 0.881390 0.020605
vn -0.471940 0.881390 0.020605
vn -0.264374 0.964351 0.011543
vn -0.264374 0.964351 0.011543
vn -0.264374 0.964351 0.011543
vn -0.471977 -0.018909 -0.881408
vn -0.471977 -0.018909 -0.881408
vn -0.471977 -0.018909 -0.881408
vn -0.371844 -0.014452 -0.928183
vn -0.153582 -0.004817 -0.988124
vn -0.190640 -0.006446 -0.981639
vn -0.393399 -0.919208 0.017176
vn -0.393399 -0.919208 0.017176
vn -0.393399 -0.919208 0.017176
vn -0.223986 -0.974543 0.009780
vn -0.179400 -0.983745 0.007833
vn -0.104400 -0.994525 0.004558
vn -0.393361 -0.018909 0.919190
vn -0.393361 -0.018909 0.919190
vn -0.393361 -0.018909 0.919190
vn -0.393361 -0.018909 0.919190
vn -0.104359 -0.006446 0.994519
vn -0.179359 -0.009697 0.983736
vn 0.998097 0.043619 -0.043578
vn 0.998097 0.043619 -0.043578
vn 0.998097 0.043619 -0.043578
vn 0.998097 0.043619 -0.043578
vn 0.043578 -0.999048 -0.001902
vn 0.043578 -0.999048 -0.001902
vn -0.104400 -0.994525 0.004558
vn -0.223986 -0.974543 0.009780
vn -0.179400 -0.983745 0.007833
vn -0.153582 -0.004817 -0.988124
vn -0.043620 -0.000000 -0.999048
vn -0.043620 -0.000000 -0.999048
vn -0.190640 -0.006446 -0.981639
vn -0.104359 -0.006446 0.994519
vn 0.043620 0.000000 0.999048
vn 0.043620 0.000000 0.999048
vn -0.179359 -0.009697 0.983736
f 1/1/1 2/2/2 3/3/3
f 4/4/4 5/5/5 6/6/6
f 6/6/6 7/7/7 4/4/4
f 7/7/7 8/8/8 4/4/4
f 9/9/9 10/10/10 11/11/11
f 10/10/10 12/12/12 11/11/11
f 10/10/10 13/13/13 12/12/12
f 11/11/11 12/12/12 14/14/14
f 15/15/15 16/16/16 17/17/17
f 16/16/16 18/18/18 17/17/17
f 16/16/16 19/19/19 18/18/18
f 17/17/17 18/18/18 20/20/20
f 20/20/20 18/18/18 19/19/19
f 21/21/21 22/22/22 23/23/23
f 22/22/22 24/24/24 23/23/23
f 22/22/22 25/25/25 24/24/24
f 23/23/23 24/24/24 26/26/26
f 27/27/27 28/28/28 29/29/29
f 28/28/28 30/30/30 29/29/29
f 28/28/28 31/31/31 30/30/30
f 29/29/29 30/30/30 32/32/32
f 33/33/33 34/34/34 35/35/35
f 33/33/33 35/35/35 36/36/36
f 37/37/37 38/38/38 39/39/39
f 39/39/39 40/40/40 37/37/37
f 40/40/40 41/41/41 37/37/37
f 42/42/42 43/43/43 44/44/44
f 44/44/44 45/45/45 42/42/42
f 46/46/46 47/47/47 48/48/48
f 48/48/48 49/49/49 46/46/46
