# astronaut_hat (gear rip -> Godot: Z negated + winding reversed)
v -0.167089 -0.268238 0.111513
v -0.167089 -0.290339 0.000405
v -0.167089 -0.268238 -0.110703
v -0.167089 -0.205301 0.205706
v -0.167089 -0.205301 -0.204896
v -0.167089 -0.111108 0.268644
v -0.167089 -0.111108 -0.267833
v -0.167089 0.000000 0.290745
v -0.167089 -0.000000 -0.289934
v -0.167089 0.111108 0.268644
v -0.167089 0.111108 -0.267833
v -0.167088 0.205301 0.205706
v -0.167089 0.205301 -0.204896
v -0.167088 0.268239 0.111513
v -0.167088 0.268239 -0.110703
v -0.167088 0.290340 0.000405
v -0.167088 0.205301 0.205706
v -0.167088 0.268239 0.111513
v -0.300297 0.350471 0.145575
v -0.300298 0.268239 0.268644
v -0.167089 0.111108 0.268644
v -0.300297 0.379347 0.000405
v -0.167088 0.290340 0.000405
v -0.300298 0.145170 0.350876
v -0.167089 0.000000 0.290745
v -0.300297 0.350471 -0.144765
v -0.167088 0.268239 -0.110703
v -0.300298 0.000000 0.379752
v -0.167089 -0.111108 0.268644
v -0.300298 0.268239 -0.267834
v -0.167089 0.205301 -0.204896
v -0.300298 -0.145169 0.350876
v -0.167089 -0.205301 0.205706
v -0.300298 0.145170 -0.350066
v -0.167089 0.111108 -0.267833
v -0.300298 -0.000000 -0.378942
v -0.167089 -0.000000 -0.289934
v -0.300298 -0.145170 -0.350065
v -0.457428 0.198704 -0.351163
v -0.167089 -0.111108 -0.267833
v -0.457428 0.290340 -0.289934
v -0.614559 0.145170 -0.350066
v -0.300298 -0.268239 -0.267833
v -0.167089 -0.205301 -0.204896
v -0.457427 0.379347 -0.156725
v -0.614559 0.268239 -0.267834
v -0.457427 0.410602 0.000405
v -0.457428 -0.290339 -0.289934
v -0.457428 -0.198704 -0.351163
v -0.300298 -0.350471 -0.144764
v -0.167089 -0.268238 -0.110703
v -0.614559 0.350471 -0.144765
v -0.457427 0.379347 0.157536
v -0.614559 -0.268239 -0.267833
v -0.614559 -0.145170 -0.350065
v -0.457428 -0.379347 -0.156725
v -0.300298 -0.379347 0.000405
v -0.167089 -0.290339 0.000405
v -0.614559 0.379347 0.000405
v -0.457428 0.290340 0.290745
v -0.614559 -0.350471 -0.144764
v -0.457428 -0.410602 0.000405
v -0.300298 -0.350470 0.145575
v -0.167089 -0.268238 0.111513
v -0.614559 0.350471 0.145575
v -0.457428 0.157131 0.379752
v -0.614559 -0.379347 0.000405
v -0.457428 -0.379347 0.157536
v -0.300298 -0.268238 0.268644
v -0.457428 0.000000 0.411007
v -0.614559 0.268239 0.268644
v -0.457428 -0.290339 0.290745
v -0.457428 -0.157130 0.379752
v -0.614559 -0.350470 0.145575
v -0.614559 0.145170 0.350876
v -0.614559 0.000000 0.379752
v -0.614559 -0.268238 0.268644
v -0.614559 -0.145169 0.350876
v -0.747768 -0.268238 0.111513
v -0.747768 -0.205301 0.205706
v -0.747768 -0.111108 0.268644
v -0.747768 0.000000 0.290745
v -0.747768 0.111108 0.268644
v -0.747768 0.205301 0.205706
v -0.747768 -0.290339 0.000405
v -0.747768 0.268239 0.111513
v -0.747768 -0.268238 -0.110703
v -0.747768 0.290340 0.000405
v -0.747768 -0.205301 -0.204896
v -0.747768 0.268239 -0.110703
v -0.747768 -0.111108 -0.267833
v -0.614559 0.000000 -0.378942
v -0.747768 0.205301 -0.204896
v -0.747768 0.000000 -0.289934
v -0.747768 0.111108 -0.267833
v -0.836775 -0.145170 -0.059726
v -0.836775 -0.111108 -0.110703
v -0.868030 0.000000 0.000405
v -0.836775 -0.157130 0.000405
v -0.836775 -0.060131 -0.144764
v -0.836775 -0.145169 0.060537
v -0.836775 0.000000 -0.156725
v -0.836775 -0.111108 0.111513
v -0.836775 0.060131 -0.144764
v -0.836775 -0.060131 0.145575
v -0.836775 0.111108 -0.110703
v -0.836775 0.000000 0.157536
v -0.836775 0.145170 -0.059726
v -0.836775 0.060132 0.145575
v -0.836775 0.157131 0.000405
v -0.836775 0.111108 0.111513
v -0.836775 0.145170 0.060536
vt 0 0
vt 0 0
vt 0 0
vt 0 0
vt 0 0
vt 0 0
vt 0 0
vt 0 0
vt 0 0
vt 0 0
vt 0 0
vt 0 0
vt 0 0
vt 0 0
vt 0 0
vt 0 0
vt 0 0
vt 0 0
vt 0 0
vt 0 0
vt 0 0
vt 0 0
vt 0 0
vt 0 0
vt 0 0
vt 0 0
vt 0 0
vt 0 0
vt 0 0
vt 0 0
vt 0 0
vt 0 0
vt 0 0
vt 0 0
vt 0 0
vt 0 0
vt 0 0
vt 0 0
vt 0 0
vt 0 0
vt 0 0
vt 0 0
vt 0 0
vt 0 0
vt 0 0
vt 0 0
vt 0 0
vt 0 0
vt 0 0
vt 0 0
vt 0 0
vt 0 0
vt 0 0
vt 0 0
vt 0 0
vt 0 0
vt 0 0
vt 0 0
vt 0 0
vt 0 0
vt 0 0
vt 0 0
vt 0 0
vt 0 0
vt 0 0
vt 0 0
vt 0 0
vt 0 0
vt 0 0
vt 0 0
vt 0 0
vt 0 0
vt 0 0
vt 0 0
vt 0 0
vt 0 0
vt 0 0
vt 0 0
vt 0 0
vt 0 0
vt 0 0
vt 0 0
vt 0 0
vt 0 0
vt 0 0
vt 0 0
vt 0 0
vt 0 0
vt 0 0
vt 0 0
vt 0 0
vt 0 0
vt 0 0
vt 0 0
vt 0 0
vt 0 0
vt 0 0
vt 0 0
vt 0 0
vt 0 0
vt 0 0
vt 0 0
vt 0 0
vt 0 0
vt 0 0
vt 0 0
vt 0 0
vt 0 0
vt 0 0
vt 0 0
vt 0 0
vt 0 0
vn 1.000000 -0.000000 -0.000000
vn 1.000000 -0.000000 -0.000000
vn 1.000000 -0.000000 -0.000000
vn 1.000000 -0.000000 -0.000000
vn 1.000000 -0.000000 -0.000000
vn 1.000000 -0.000000 -0.000000
vn 1.000000 -0.000000 -0.000000
vn 1.000000 -0.000000 -0.000000
vn 1.000000 -0.000000 -0.000000
vn 1.000000 -0.000000 -0.000000
vn 1.000000 -0.000000 -0.000000
vn 1.000000 -0.000000 -0.000000
vn 1.000000 -0.000000 -0.000000
vn 1.000000 -0.000000 -0.000000
vn 1.000000 -0.000000 -0.000000
vn 1.000000 -0.000000 -0.000000
vn 0.555571 0.587937 0.587937
vn 0.555570 0.768178 0.318190
vn 0.383160 0.853371 0.353477
vn 0.383161 0.653141 0.653141
vn 0.555570 0.318190 0.768178
vn 0.383159 0.923682 -0.000000
vn 0.555569 0.831470 -0.000000
vn 0.383160 0.353477 0.853371
vn 0.555569 0.000000 0.831470
vn 0.383159 0.853371 -0.353478
vn 0.555570 0.768178 -0.318190
vn 0.383159 0.000000 0.923682
vn 0.555569 -0.318191 0.768178
vn 0.383160 0.653141 -0.653142
vn 0.555572 0.587936 -0.587938
vn 0.383159 -0.353478 0.853371
vn 0.555569 -0.587939 0.587937
vn 0.442417 0.403047 -0.801137
vn 0.555573 0.318188 -0.768176
vn 0.555573 -0.000000 -0.831468
vn 0.555573 -0.000000 -0.831468
vn 0.442416 -0.403049 -0.801137
vn 0.000000 0.555569 -0.831470
vn 0.555570 -0.318191 -0.768178
vn 0.000000 0.707107 -0.707107
vn -0.442417 0.403047 -0.801137
vn 0.383159 -0.653142 -0.653142
vn 0.555570 -0.587938 -0.587938
vn 0.000000 0.923880 -0.382683
vn -0.383159 0.653142 -0.653142
vn 0.000000 1.000000 -0.000000
vn -0.000000 -0.707107 -0.707107
vn -0.000000 -0.555571 -0.831469
vn 0.383160 -0.853371 -0.353478
vn 0.555571 -0.768177 -0.318189
vn -0.383158 0.853372 -0.353478
vn 0.000000 0.923880 0.382682
vn -0.383159 -0.653142 -0.653142
vn -0.442416 -0.403049 -0.801137
vn -0.000000 -0.923879 -0.382684
vn 0.383161 -0.923681 -0.000000
vn 0.555572 -0.831468 -0.000000
vn -0.383158 0.923683 0.000000
vn 0.000000 0.707107 0.707107
vn -0.383160 -0.853371 -0.353478
vn -0.000000 -1.000000 0.000000
vn 0.383161 -0.853370 0.353479
vn 0.555570 -0.768178 0.318190
vn -0.383159 0.853371 0.353477
vn 0.000000 0.382682 0.923880
vn -0.383161 -0.923681 0.000000
vn -0.000000 -0.923879 0.382685
vn 0.383160 -0.653142 0.653142
vn 0.000000 0.000000 1.000000
vn -0.383160 0.653142 0.653142
vn -0.000000 -0.707106 0.707108
vn -0.000000 -0.382683 0.923880
vn -0.383161 -0.853370 0.353479
vn -0.383159 0.353478 0.853371
vn -0.383158 0.000000 0.923683
vn -0.383160 -0.653142 0.653142
vn -0.383159 -0.353478 0.853371
vn -0.707629 -0.652798 0.270398
vn -0.707629 -0.499632 0.499630
vn -0.707629 -0.270399 0.652799
vn -0.707629 0.000000 0.706584
vn -0.707629 0.270399 0.652798
vn -0.707629 0.499631 0.499630
vn -0.707630 -0.706583 0.000000
vn -0.707629 0.652798 0.270399
vn -0.707630 -0.652799 -0.270397
vn -0.707629 0.706584 0.000000
vn -0.707629 -0.499630 -0.499631
vn -0.707629 0.652798 -0.270399
vn -0.707629 -0.270398 -0.652799
vn -0.555573 -0.000000 -0.831468
vn -0.707630 0.499628 -0.499631
vn -0.707631 0.000000 -0.706583
vn -0.707631 0.270397 -0.652798
vn -0.924082 -0.353102 -0.146258
vn -0.924082 -0.270251 -0.270252
vn -1.000000 0.000000 0.000000
vn -0.924082 -0.382194 0.000000
vn -0.924082 -0.146258 -0.353101
vn -0.924082 -0.353101 0.146259
vn -0.924082 0.000000 -0.382193
vn -0.924082 -0.270252 0.270251
vn -0.924082 0.146259 -0.353102
vn -0.924082 -0.146260 0.353100
vn -0.924082 0.270250 -0.270253
vn -0.924082 0.000000 0.382193
vn -0.924082 0.353100 -0.146260
vn -0.924082 0.146261 0.353100
vn -0.924082 0.382193 0.000000
vn -0.924082 0.270253 0.270251
vn -0.924082 0.353100 0.146260
f 1/1/1 2/2/2 3/3/3
f 3/3/3 4/4/4 1/1/1
f 3/3/3 5/5/5 4/4/4
f 5/5/5 6/6/6 4/4/4
f 5/5/5 7/7/7 6/6/6
f 7/7/7 8/8/8 6/6/6
f 7/7/7 9/9/9 8/8/8
f 9/9/9 10/10/10 8/8/8
f 9/9/9 11/11/11 10/10/10
f 11/11/11 12/12/12 10/10/10
f 11/11/11 13/13/13 12/12/12
f 13/13/13 14/14/14 12/12/12
f 13/13/13 15/15/15 14/14/14
f 15/15/15 16/16/16 14/14/14
f 17/17/17 18/18/18 19/19/19
f 17/17/17 19/19/19 20/20/20
f 21/21/21 17/17/17 20/20/20
f 18/18/18 22/22/22 19/19/19
f 18/18/18 23/23/23 22/22/22
f 21/21/21 20/20/20 24/24/24
f 25/25/25 21/21/21 24/24/24
f 23/23/23 26/26/26 22/22/22
f 23/23/23 27/27/27 26/26/26
f 25/25/25 24/24/24 28/28/28
f 29/29/29 25/25/25 28/28/28
f 27/27/27 30/30/30 26/26/26
f 27/27/27 31/31/31 30/30/30
f 29/29/29 28/28/28 32/32/32
f 33/33/33 29/29/29 32/32/32
f 31/31/31 34/34/34 30/30/30
f 31/31/31 35/35/35 34/34/34
f 35/35/35 36/36/36 34/34/34
f 35/35/35 37/37/37 36/36/36
f 37/37/37 38/38/38 36/36/36
f 30/30/30 34/34/34 39/39/39
f 37/37/37 40/40/40 38/38/38
f 30/30/30 39/39/39 41/41/41
f 26/26/26 30/30/30 41/41/41
f 41/41/41 39/39/39 42/42/42
f 40/40/40 43/43/43 38/38/38
f 40/40/40 44/44/44 43/43/43
f 26/26/26 41/41/41 45/45/45
f 22/22/22 26/26/26 45/45/45
f 41/41/41 42/42/42 46/46/46
f 45/45/45 41/41/41 46/46/46
f 22/22/22 45/45/45 47/47/47
f 19/19/19 22/22/22 47/47/47
f 38/38/38 43/43/43 48/48/48
f 38/38/38 48/48/48 49/49/49
f 44/44/44 50/50/50 43/43/43
f 44/44/44 51/51/51 50/50/50
f 45/45/45 46/46/46 52/52/52
f 47/47/47 45/45/45 52/52/52
f 19/19/19 47/47/47 53/53/53
f 20/20/20 19/19/19 53/53/53
f 49/49/49 48/48/48 54/54/54
f 49/49/49 54/54/54 55/55/55
f 43/43/43 56/56/56 48/48/48
f 43/43/43 50/50/50 56/56/56
f 51/51/51 57/57/57 50/50/50
f 51/51/51 58/58/58 57/57/57
f 47/47/47 52/52/52 59/59/59
f 53/53/53 47/47/47 59/59/59
f 20/20/20 53/53/53 60/60/60
f 24/24/24 20/20/20 60/60/60
f 48/48/48 61/61/61 54/54/54
f 48/48/48 56/56/56 61/61/61
f 50/50/50 62/62/62 56/56/56
f 50/50/50 57/57/57 62/62/62
f 58/58/58 63/63/63 57/57/57
f 58/58/58 64/64/64 63/63/63
f 53/53/53 59/59/59 65/65/65
f 60/60/60 53/53/53 65/65/65
f 24/24/24 60/60/60 66/66/66
f 28/28/28 24/24/24 66/66/66
f 56/56/56 67/67/67 61/61/61
f 56/56/56 62/62/62 67/67/67
f 57/57/57 68/68/68 62/62/62
f 57/57/57 63/63/63 68/68/68
f 64/64/64 69/69/69 63/63/63
f 64/64/64 33/33/33 69/69/69
f 33/33/33 32/32/32 69/69/69
f 32/32/32 28/28/28 70/70/70
f 28/28/28 66/66/66 70/70/70
f 66/66/66 60/60/60 71/71/71
f 60/60/60 65/65/65 71/71/71
f 63/63/63 69/69/69 72/72/72
f 63/63/63 72/72/72 68/68/68
f 69/69/69 32/32/32 73/73/73
f 32/32/32 70/70/70 73/73/73
f 69/69/69 73/73/73 72/72/72
f 62/62/62 68/68/68 74/74/74
f 62/62/62 74/74/74 67/67/67
f 70/70/70 66/66/66 75/75/75
f 66/66/66 71/71/71 75/75/75
f 73/73/73 70/70/70 76/76/76
f 70/70/70 75/75/75 76/76/76
f 68/68/68 72/72/72 77/77/77
f 68/68/68 77/77/77 74/74/74
f 72/72/72 73/73/73 78/78/78
f 73/73/73 76/76/76 78/78/78
f 72/72/72 78/78/78 77/77/77
f 67/67/67 74/74/74 79/79/79
f 74/74/74 77/77/77 80/80/80
f 74/74/74 80/80/80 79/79/79
f 77/77/77 78/78/78 81/81/81
f 77/77/77 81/81/81 80/80/80
f 78/78/78 76/76/76 82/82/82
f 78/78/78 82/82/82 81/81/81
f 76/76/76 75/75/75 83/83/83
f 76/76/76 83/83/83 82/82/82
f 75/75/75 71/71/71 84/84/84
f 75/75/75 84/84/84 83/83/83
f 67/67/67 79/79/79 85/85/85
f 61/61/61 67/67/67 85/85/85
f 71/71/71 86/86/86 84/84/84
f 71/71/71 65/65/65 86/86/86
f 61/61/61 85/85/85 87/87/87
f 54/54/54 61/61/61 87/87/87
f 65/65/65 88/88/88 86/86/86
f 65/65/65 59/59/59 88/88/88
f 54/54/54 87/87/87 89/89/89
f 55/55/55 54/54/54 89/89/89
f 59/59/59 90/90/90 88/88/88
f 59/59/59 52/52/52 90/90/90
f 55/55/55 89/89/89 91/91/91
f 92/92/92 55/55/55 91/91/91
f 52/52/52 93/93/93 90/90/90
f 52/52/52 46/46/46 93/93/93
f 92/92/92 91/91/91 94/94/94
f 42/42/42 92/92/92 94/94/94
f 46/46/46 42/42/42 95/95/95
f 46/46/46 95/95/95 93/93/93
f 42/42/42 94/94/94 95/95/95
f 89/89/89 87/87/87 96/96/96
f 91/91/91 89/89/89 97/97/97
f 89/89/89 96/96/96 97/97/97
f 97/97/97 96/96/96 98/98/98
f 87/87/87 99/99/99 96/96/96
f 96/96/96 99/99/99 98/98/98
f 87/87/87 85/85/85 99/99/99
f 91/91/91 97/97/97 100/100/100
f 94/94/94 91/91/91 100/100/100
f 100/100/100 97/97/97 98/98/98
f 85/85/85 101/101/101 99/99/99
f 99/99/99 101/101/101 98/98/98
f 85/85/85 79/79/79 101/101/101
f 94/94/94 100/100/100 102/102/102
f 95/95/95 94/94/94 102/102/102
f 102/102/102 100/100/100 98/98/98
f 79/79/79 103/103/103 101/101/101
f 101/101/101 103/103/103 98/98/98
f 79/79/79 80/80/80 103/103/103
f 95/95/95 102/102/102 104/104/104
f 104/104/104 102/102/102 98/98/98
f 103/103/103 105/105/105 98/98/98
f 80/80/80 105/105/105 103/103/103
f 106/106/106 104/104/104 98/98/98
f 93/93/93 95/95/95 104/104/104
f 93/93/93 104/104/104 106/106/106
f 80/80/80 81/81/81 105/105/105
f 90/90/90 93/93/93 106/106/106
f 81/81/81 107/107/107 105/105/105
f 105/105/105 107/107/107 98/98/98
f 81/81/81 82/82/82 107/107/107
f 90/90/90 106/106/106 108/108/108
f 108/108/108 106/106/106 98/98/98
f 88/88/88 90/90/90 108/108/108
f 82/82/82 109/109/109 107/107/107
f 107/107/107 109/109/109 98/98/98
f 82/82/82 83/83/83 109/109/109
f 88/88/88 108/108/108 110/110/110
f 110/110/110 108/108/108 98/98/98
f 86/86/86 88/88/88 110/110/110
f 83/83/83 111/111/111 109/109/109
f 109/109/109 111/111/111 98/98/98
f 83/83/83 84/84/84 111/111/111
f 84/84/84 86/86/86 112/112/112
f 86/86/86 110/110/110 112/112/112
f 112/112/112 110/110/110 98/98/98
f 84/84/84 112/112/112 111/111/111
f 111/111/111 112/112/112 98/98/98
