# athensaprix_hood_hat (gear rip -> Godot: Z negated + winding reversed)
v -0.593577 0.169078 0.142329
v -0.609928 0.087415 -0.280445
v -0.578591 0.169078 -0.262813
v -0.593577 0.169078 0.142329
v -0.609928 -0.087407 -0.280445
v -0.593577 -0.169069 0.142329
v -0.593577 -0.169069 0.142329
v -0.578591 -0.169069 -0.262813
v -0.334357 0.165438 0.211196
v -0.180254 0.202138 0.211196
v -0.156540 0.087415 0.227099
v -0.334357 0.165438 0.211196
v -0.335644 0.087415 0.227099
v -0.593577 0.169078 0.142329
v -0.335644 -0.087407 0.227099
v -0.593577 0.169078 0.142329
v -0.593577 -0.169069 0.142329
v -0.156540 -0.087407 0.227099
v -0.335644 -0.163249 0.209027
v -0.593577 -0.169069 0.142329
v -0.180288 -0.199831 0.209027
v -0.330996 -0.216213 0.095642
v -0.593577 -0.169069 0.142329
v -0.185741 -0.270959 0.097841
v -0.185336 -0.273796 -0.075430
v -0.340462 -0.224409 -0.077146
v -0.593577 -0.169069 0.142329
v -0.321010 -0.207565 -0.224091
v -0.188152 -0.267964 -0.231631
v -0.491896 -0.179788 -0.236056
v -0.578591 -0.169069 -0.262813
v -0.593577 -0.169069 0.142329
v -0.705097 -0.074857 0.166728
v -0.645646 -0.202363 0.190030
v -0.638129 -0.074857 0.248648
v -0.705097 0.074866 0.166728
v -0.638129 0.074866 0.248648
v -0.645646 0.202372 0.190030
v -0.736174 0.122151 0.050033
v -0.670166 0.213023 0.099304
v -0.645646 0.202372 0.190030
v -0.506172 0.184064 0.247242
v -0.498737 0.230220 0.185538
v -0.506171 0.000004 0.283053
v -0.506171 0.106119 0.274640
v -0.736174 -0.122142 0.050033
v -0.670166 -0.213014 0.099304
v -0.645646 -0.202363 0.190030
v -0.506172 -0.184055 0.247242
v -0.498737 -0.230212 0.185538
v -0.506171 -0.106111 0.274640
v -0.668572 0.213023 -0.073484
v -0.730715 0.121425 -0.146239
v -0.520203 0.248809 0.095643
v -0.645646 0.202372 0.190030
v -0.668572 -0.213014 -0.073484
v -0.730715 -0.121416 -0.146239
v -0.520203 -0.248800 0.095643
v -0.645646 -0.202363 0.190030
v -0.328209 -0.229018 0.201445
v -0.349675 -0.276578 0.095643
v -0.335644 -0.165537 0.291322
v -0.684362 -0.098772 -0.303269
v -0.684362 0.098780 -0.303269
v -0.639552 -0.213014 -0.263253
v -0.639552 0.213023 -0.263253
v -0.529669 -0.256997 -0.077146
v -0.510397 -0.240153 -0.238636
v -0.529669 0.257005 -0.077146
v -0.510397 0.240161 -0.238636
v -0.385439 -0.284774 -0.077146
v -0.339689 -0.267930 -0.224091
v -0.385440 0.284783 -0.077146
v -0.339689 0.267939 -0.224091
v -0.205922 -0.335480 -0.079357
v -0.216357 -0.329281 -0.231631
v -0.206211 -0.332464 0.093913
v -0.206774 -0.270971 0.201445
v -0.170747 -0.184055 0.291322
v -0.335643 -0.123542 0.291322
v -0.156540 -0.080049 0.308962
v -0.335643 -0.036556 0.281652
v -0.335643 0.036565 0.281652
v -0.156540 0.080058 0.308962
v -0.335643 0.123551 0.291322
v -0.170747 0.184064 0.291322
v -0.335644 0.165546 0.291322
v -0.328209 0.229027 0.201445
v -0.206595 0.271059 0.201445
v -0.349675 0.276586 0.095643
v -0.206033 0.332439 0.093927
v -0.205744 0.335456 -0.079344
v -0.216178 0.329257 -0.231631
v -0.578591 0.169078 -0.262813
v -0.491896 0.179796 -0.236056
v -0.593577 0.169078 0.142329
v -0.340462 0.224418 -0.077146
v -0.593577 0.169078 0.142329
v -0.321010 0.207574 -0.224091
v -0.330996 0.216221 0.095643
v -0.185157 0.273772 -0.075416
v -0.187973 0.267940 -0.231631
v -0.185562 0.270934 0.097854
v -0.180254 0.202138 0.211196
v -0.180254 0.202138 0.211196
v -0.334357 0.165438 0.211196
v -0.593577 0.169078 0.142329
v -0.321010 -0.207565 -0.224091
v -0.188152 -0.267964 -0.231631
v -0.216357 -0.329281 -0.231631
v -0.339689 -0.267930 -0.224091
v -0.491896 -0.179788 -0.236056
v -0.510397 -0.240153 -0.238636
v -0.578591 -0.169069 -0.262813
v -0.639552 -0.213014 -0.263253
v -0.609928 -0.087407 -0.280445
v -0.684362 -0.098772 -0.303269
v -0.684362 0.098780 -0.303269
v -0.609928 0.087415 -0.280445
v -0.639552 0.213023 -0.263253
v -0.578591 0.169078 -0.262813
v -0.510397 0.240161 -0.238636
v -0.491896 0.179796 -0.236056
v -0.339689 0.267939 -0.224091
v -0.321010 0.207574 -0.224091
v -0.216178 0.329257 -0.231631
v -0.187973 0.267940 -0.231631
v -0.205744 0.335456 -0.079344
v -0.187973 0.267940 -0.231631
v -0.216178 0.329257 -0.231631
v -0.185157 0.273772 -0.075416
v -0.206033 0.332439 0.093927
v -0.185562 0.270934 0.097854
v -0.206595 0.271059 0.201445
v -0.180254 0.202138 0.211196
v -0.170747 0.184064 0.291322
v -0.156540 0.087415 0.227099
v -0.156540 0.080058 0.308962
v -0.156540 -0.087407 0.227099
v -0.156540 -0.080049 0.308962
v -0.170747 -0.184055 0.291322
v -0.180288 -0.199831 0.209027
v -0.206774 -0.270971 0.201445
v -0.185741 -0.270959 0.097841
v -0.206211 -0.332464 0.093913
v -0.185336 -0.273796 -0.075430
v -0.205922 -0.335480 -0.079357
v -0.188152 -0.267964 -0.231631
v -0.216357 -0.329281 -0.231631
vt 0.380273461 0.731196105
vt 0.380273461 0.731196105
vt 0.380273461 0.731196105
vt 0.380273461 0.731196105
vt 0.380273461 0.731196105
vt 0.380273461 0.731196105
vt 0.380273461 0.731196105
vt 0.380273461 0.731196105
vt 0.380273461 0.731196105
vt 0.380273461 0.731196105
vt 0.380273461 0.731196105
vt 0.380273461 0.731196105
vt 0.380273461 0.731196105
vt 0.380273461 0.731196105
vt 0.380273461 0.731196105
vt 0.380273461 0.731196105
vt 0.380273461 0.731196105
vt 0.380273461 0.731196105
vt 0.380273461 0.731196105
vt 0.380273461 0.731196105
vt 0.380273461 0.731196105
vt 0.380273461 0.731196105
vt 0.380273461 0.731196105
vt 0.380273461 0.731196105
vt 0.380273461 0.731196105
vt 0.380273461 0.731196105
vt 0.380273461 0.731196105
vt 0.380273461 0.731196105
vt 0.380273461 0.731196105
vt 0.380273461 0.731196105
vt 0.380273461 0.731196105
vt 0.380273461 0.731196105
vt 0.380273461 0.731196105
vt 0.380273461 0.731196105
vt 0.380273461 0.731196105
vt 0.380273461 0.731196105
vt 0.380273461 0.731196105
vt 0.380273461 0.731196105
vt 0.380273461 0.731196105
vt 0.380273461 0.731196105
vt 0.380273461 0.731196105
vt 0.380273461 0.731196105
vt 0.380273461 0.731196105
vt 0.380273461 0.731196105
vt 0.380273461 0.731196105
vt 0.380273461 0.731196105
vt 0.380273461 0.731196105
vt 0.380273461 0.731196105
vt 0.380273461 0.731196105
vt 0.380273461 0.731196105
vt 0.380273461 0.731196105
vt 0.380273461 0.731196105
vt 0.380273461 0.731196105
vt 0.380273461 0.731196105
vt 0.380273461 0.731196105
vt 0.380273461 0.731196105
vt 0.380273461 0.731196105
vt 0.380273461 0.731196105
vt 0.380273461 0.731196105
vt 0.380273461 0.731196105
vt 0.380273461 0.731196105
vt 0.380273461 0.731196105
vt 0.380273461 0.731196105
vt 0.380273461 0.731196105
vt 0.380273461 0.731196105
vt 0.380273461 0.731196105
vt 0.380273461 0.731196105
vt 0.380273461 0.731196105
vt 0.380273461 0.731196105
vt 0.380273461 0.731196105
vt 0.380273461 0.731196105
vt 0.380273461 0.731196105
vt 0.380273461 0.731196105
vt 0.380273461 0.731196105
vt 0.380273461 0.731196105
vt 0.380273461 0.731196105
vt 0.380273461 0.731196105
vt 0.380273461 0.731196105
vt 0.380273461 0.731196105
vt 0.380273461 0.731196105
vt 0.380273461 0.731196105
vt 0.380273461 0.731196105
vt 0.380273461 0.731196105
vt 0.380273461 0.731196105
vt 0.380273461 0.731196105
vt 0.380273461 0.731196105
vt 0.380273461 0.731196105
vt 0.380273461 0.731196105
vt 0.380273461 0.731196105
vt 0.380273461 0.731196105
vt 0.380273461 0.731196105
vt 0.380273461 0.731196105
vt 0.380273461 0.731196105
vt 0.380273461 0.731196105
vt 0.380273461 0.731196105
vt 0.380273461 0.731196105
vt 0.380273461 0.731196105
vt 0.380273461 0.731196105
vt 0.380273461 0.731196105
vt 0.380273461 0.731196105
vt 0.380273461 0.731196105
vt 0.380273461 0.731196105
vt 0.380273461 0.731196105
vt 0.380273461 0.731196105
vt 0.380273461 0.731196105
vt 0.380273461 0.731196105
vt 0.380273461 0.731196105
vt 0.380273461 0.731196105
vt 0.380273461 0.731196105
vt 0.380273461 0.731196105
vt 0.380273461 0.731196105
vt 0.380273461 0.731196105
vt 0.380273461 0.731196105
vt 0.380273461 0.731196105
vt 0.380273461 0.731196105
vt 0.380273461 0.731196105
vt 0.380273461 0.731196105
vt 0.380273461 0.731196105
vt 0.380273461 0.731196105
vt 0.380273461 0.731196105
vt 0.380273461 0.731196105
vt 0.380273461 0.731196105
vt 0.380273461 0.731196105
vt 0.380273461 0.731196105
vt 0.380273461 0.731196105
vt 0.380273461 0.731196105
vt 0.380273461 0.731196105
vt 0.380273461 0.731196105
vt 0.380273461 0.731196105
vt 0.380273461 0.731196105
vt 0.380273461 0.731196105
vt 0.380273461 0.731196105
vt 0.380273461 0.731196105
vt 0.380273461 0.731196105
vt 0.380273461 0.731196105
vt 0.380273461 0.731196105
vt 0.380273461 0.731196105
vt 0.380273461 0.731196105
vt 0.380273461 0.731196105
vt 0.380273461 0.731196105
vt 0.380273461 0.731196105
vt 0.380273461 0.731196105
vt 0.380273461 0.731196105
vt 0.380273461 0.731196105
vt 0.380273461 0.731196105
vt 0.380273461 0.731196105
vt 0.380273461 0.731196105
vt 0.380273461 0.731196105
vt 0.380273461 0.731196105
vn 0.921972 -0.387255 -0.001291
vn 0.982622 -0.185605 -0.002153
vn 0.930560 -0.364518 0.034420
vn 0.992240 -0.123483 -0.014524
vn 0.992240 0.123483 -0.014524
vn 0.982622 0.185605 -0.002153
vn 0.852485 0.522579 0.013405
vn 0.930560 0.364518 0.034420
vn 0.094078 -0.177216 -0.979665
vn 0.190357 -0.521397 -0.831811
vn 0.007825 -0.082980 -0.996520
vn 0.132779 -0.528802 -0.838295
vn 0.142529 -0.100824 -0.984642
vn 0.271168 -0.311370 -0.910778
vn 0.146406 0.077450 -0.986188
vn 0.292591 -0.066106 -0.953950
vn 0.277647 0.113330 -0.953975
vn 0.011931 0.128309 -0.991662
vn 0.127876 0.536797 -0.833964
vn 0.241029 0.425679 -0.872182
vn 0.203740 0.676816 -0.707397
vn 0.244750 0.935761 -0.253869
vn 0.196144 0.929028 -0.313744
vn 0.342371 0.897203 -0.278943
vn 0.343898 0.938685 0.024568
vn 0.234229 0.971343 0.040378
vn 0.158318 0.981242 -0.109997
vn 0.290097 0.951451 0.102884
vn 0.414956 0.909456 0.026475
vn 0.172657 0.983241 0.058533
vn 0.121331 0.992602 0.004488
vn 0.344184 0.934761 -0.088088
vn -0.891999 -0.171923 0.418066
vn -0.576215 -0.494012 0.651098
vn -0.504087 -0.154392 0.849741
vn -0.858778 0.171894 0.482651
vn -0.449078 0.179280 0.875321
vn -0.576215 0.494012 0.651098
vn -0.949934 0.275379 0.147617
vn -0.661445 0.727134 0.183758
vn -0.473126 0.705698 0.527391
vn -0.176295 0.602415 0.778471
vn -0.111101 0.900470 0.420488
vn -0.114648 0.000000 0.993406
vn -0.146022 0.117261 0.982307
vn -0.956341 -0.275535 0.097427
vn -0.661445 -0.727134 0.183758
vn -0.473126 -0.705698 0.527391
vn -0.176295 -0.602414 0.778471
vn -0.111101 -0.900470 0.420488
vn -0.146022 -0.117261 0.982307
vn -0.569955 0.821318 -0.024266
vn -0.955657 0.245883 -0.162054
vn -0.206146 0.970986 0.121202
vn -0.390470 0.782029 0.485761
vn -0.569955 -0.821318 -0.024266
vn -0.924981 -0.344071 -0.161321
vn -0.206146 -0.970986 0.121202
vn -0.390470 -0.782029 0.485761
vn -0.127007 -0.818803 0.559849
vn -0.232440 -0.938014 0.257102
vn -0.099710 -0.432369 0.896167
vn -0.942144 -0.150052 -0.299748
vn -0.925006 0.225763 -0.305607
vn -0.567779 -0.807049 -0.162167
vn -0.567779 0.807050 -0.162167
vn -0.233261 -0.971776 -0.035237
vn -0.171607 -0.975879 -0.134949
vn -0.233261 0.971776 -0.035237
vn -0.171607 0.975879 -0.134949
vn -0.205186 -0.977923 -0.039571
vn -0.290049 -0.949491 -0.119745
vn -0.205046 0.977952 -0.039564
vn -0.289657 0.949613 -0.119722
vn -0.339633 -0.940336 -0.020441
vn -0.445665 -0.895180 -0.005905
vn -0.348868 -0.903299 0.249684
vn -0.281663 -0.785323 0.551303
vn -0.102169 -0.442894 0.890734
vn -0.073456 0.012180 0.997224
vn -0.121560 -0.012449 0.992506
vn -0.072467 0.028269 0.996970
vn -0.085605 -0.023551 0.996051
vn -0.111738 0.016625 0.993599
vn -0.073456 -0.012180 0.997224
vn -0.102186 0.442864 0.890746
vn -0.099710 0.432369 0.896167
vn -0.127039 0.818786 0.559866
vn -0.281611 0.785445 0.551154
vn -0.232253 0.938088 0.257002
vn -0.348362 0.903577 0.249385
vn -0.339097 0.940529 -0.020446
vn -0.444958 0.895532 -0.005968
vn 0.121331 -0.992602 0.004488
vn 0.172657 -0.983241 0.058533
vn 0.159343 -0.981663 -0.104633
vn 0.234023 -0.971392 0.040372
vn 0.344709 -0.934994 -0.083435
vn 0.289700 -0.951573 0.102872
vn 0.246155 -0.938229 -0.243175
vn 0.343341 -0.938889 0.024565
vn 0.414307 -0.909751 0.026496
vn 0.342805 -0.900392 -0.267915
vn 0.206848 -0.682638 -0.700871
vn 0.263230 -0.854641 -0.447548
vn 0.156898 -0.622953 -0.766363
vn 0.200501 -0.928901 -0.311355
vn -0.011110 0.005794 -0.999921
vn -0.046875 0.021562 -0.998668
vn -0.049888 0.018966 -0.998575
vn 0.033746 0.003863 -0.999423
vn 0.148531 -0.017621 -0.988751
vn 0.175139 -0.074967 -0.981685
vn 0.187169 -0.134753 -0.973041
vn 0.195733 -0.186040 -0.962849
vn 0.258477 -0.091838 -0.961642
vn 0.305742 -0.101159 -0.946725
vn 0.301886 0.067400 -0.950958
vn 0.246267 0.122489 -0.961431
vn 0.195733 0.186040 -0.962849
vn 0.187169 0.134753 -0.973041
vn 0.175138 0.074968 -0.981685
vn 0.148531 0.017621 -0.988751
vn 0.033767 -0.003857 -0.999422
vn -0.011074 -0.005781 -0.999922
vn -0.049833 -0.018945 -0.998578
vn -0.046827 -0.021540 -0.998671
vn 0.936092 0.350141 -0.033654
vn 0.928899 0.366369 -0.054031
vn 0.905653 0.416593 -0.079010
vn 0.948734 0.316039 -0.004787
vn 0.945254 0.319221 0.067774
vn 0.932439 0.338253 0.127051
vn 0.929342 0.351095 0.114264
vn 0.950566 0.309351 0.026953
vn 0.973016 0.228680 -0.030741
vn 0.993692 0.110309 -0.020220
vn 0.998938 0.045893 0.004125
vn 0.996397 -0.083292 -0.016014
vn 0.997607 -0.068858 0.006188
vn 0.973354 -0.226519 -0.035650
vn 0.952816 -0.302714 0.022483
vn 0.932378 -0.343986 0.111106
vn 0.933988 -0.333738 0.127615
vn 0.945244 -0.319227 0.067882
vn 0.948734 -0.316039 -0.004788
vn 0.936092 -0.350140 -0.033660
vn 0.928899 -0.366369 -0.054040
vn 0.905651 -0.416595 -0.079022
f 1/1/1 2/2/2 3/3/3
f 4/4/4 5/5/5 2/2/2
f 4/4/4 6/6/6 5/5/5
f 7/7/7 8/8/8 5/5/5
f 9/9/9 10/10/10 11/11/11
f 12/12/12 11/11/11 13/13/13
f 13/13/13 14/14/14 12/12/12
f 15/15/15 13/13/13 11/11/11
f 15/15/15 16/16/16 13/13/13
f 15/15/15 17/17/17 16/16/16
f 15/15/15 11/11/11 18/18/18
f 19/19/19 15/15/15 18/18/18
f 20/20/20 15/15/15 19/19/19
f 19/19/19 18/18/18 21/21/21
f 22/22/22 19/19/19 21/21/21
f 22/22/22 23/23/23 19/19/19
f 22/22/22 21/21/21 24/24/24
f 22/22/22 24/24/24 25/25/25
f 22/22/22 25/25/25 26/26/26
f 26/26/26 27/27/27 22/22/22
f 28/28/28 26/26/26 25/25/25
f 28/28/28 25/25/25 29/29/29
f 30/30/30 26/26/26 28/28/28
f 31/31/31 27/27/27 30/30/30
f 30/30/30 32/32/32 26/26/26
f 33/33/33 34/34/34 35/35/35
f 35/35/35 36/36/36 33/33/33
f 35/35/35 37/37/37 36/36/36
f 37/37/37 38/38/38 36/36/36
f 33/33/33 36/36/36 39/39/39
f 36/36/36 40/40/40 39/39/39
f 36/36/36 41/41/41 40/40/40
f 37/37/37 42/42/42 41/41/41
f 41/41/41 42/42/42 43/43/43
f 35/35/35 44/44/44 37/37/37
f 37/37/37 45/45/45 42/42/42
f 37/37/37 44/44/44 45/45/45
f 33/33/33 39/39/39 46/46/46
f 33/33/33 46/46/46 47/47/47
f 33/33/33 47/47/47 48/48/48
f 35/35/35 48/48/48 49/49/49
f 48/48/48 50/50/50 49/49/49
f 35/35/35 51/51/51 44/44/44
f 35/35/35 49/49/49 51/51/51
f 39/39/39 40/40/40 52/52/52
f 46/46/46 39/39/39 53/53/53
f 39/39/39 52/52/52 53/53/53
f 52/52/52 40/40/40 54/54/54
f 55/55/55 54/54/54 40/40/40
f 55/55/55 43/43/43 54/54/54
f 46/46/46 56/56/56 47/47/47
f 46/46/46 53/53/53 57/57/57
f 46/46/46 57/57/57 56/56/56
f 56/56/56 58/58/58 47/47/47
f 59/59/59 47/47/47 58/58/58
f 59/59/59 58/58/58 50/50/50
f 49/49/49 50/50/50 60/60/60
f 50/50/50 58/58/58 61/61/61
f 50/50/50 61/61/61 60/60/60
f 49/49/49 60/60/60 62/62/62
f 51/51/51 49/49/49 62/62/62
f 53/53/53 63/63/63 57/57/57
f 53/53/53 64/64/64 63/63/63
f 57/57/57 63/63/63 65/65/65
f 57/57/57 65/65/65 56/56/56
f 53/53/53 66/66/66 64/64/64
f 53/53/53 52/52/52 66/66/66
f 65/65/65 67/67/67 56/56/56
f 56/56/56 67/67/67 58/58/58
f 65/65/65 68/68/68 67/67/67
f 66/66/66 52/52/52 69/69/69
f 66/66/66 69/69/69 70/70/70
f 52/52/52 54/54/54 69/69/69
f 58/58/58 67/67/67 71/71/71
f 68/68/68 71/71/71 67/67/67
f 68/68/68 72/72/72 71/71/71
f 58/58/58 71/71/71 61/61/61
f 70/70/70 69/69/69 73/73/73
f 54/54/54 73/73/73 69/69/69
f 70/70/70 73/73/73 74/74/74
f 72/72/72 75/75/75 71/71/71
f 61/61/61 71/71/71 75/75/75
f 72/72/72 76/76/76 75/75/75
f 61/61/61 75/75/75 77/77/77
f 61/61/61 77/77/77 78/78/78
f 61/61/61 78/78/78 60/60/60
f 60/60/60 78/78/78 79/79/79
f 60/60/60 79/79/79 62/62/62
f 80/80/80 62/62/62 79/79/79
f 51/51/51 62/62/62 80/80/80
f 80/80/80 79/79/79 81/81/81
f 51/51/51 80/80/80 82/82/82
f 80/80/80 81/81/81 82/82/82
f 51/51/51 82/82/82 44/44/44
f 83/83/83 82/82/82 81/81/81
f 44/44/44 82/82/82 83/83/83
f 83/83/83 81/81/81 84/84/84
f 45/45/45 44/44/44 83/83/83
f 83/83/83 84/84/84 85/85/85
f 45/45/45 83/83/83 85/85/85
f 85/85/85 84/84/84 86/86/86
f 45/45/45 85/85/85 87/87/87
f 85/85/85 86/86/86 87/87/87
f 45/45/45 87/87/87 42/42/42
f 88/88/88 87/87/87 86/86/86
f 42/42/42 87/87/87 88/88/88
f 88/88/88 86/86/86 89/89/89
f 42/42/42 88/88/88 43/43/43
f 90/90/90 88/88/88 89/89/89
f 43/43/43 88/88/88 90/90/90
f 90/90/90 89/89/89 91/91/91
f 43/43/43 90/90/90 54/54/54
f 54/54/54 90/90/90 73/73/73
f 90/90/90 91/91/91 92/92/92
f 90/90/90 92/92/92 73/73/73
f 74/74/74 73/73/73 92/92/92
f 74/74/74 92/92/92 93/93/93
f 94/94/94 95/95/95 96/96/96
f 95/95/95 97/97/97 98/98/98
f 95/95/95 99/99/99 97/97/97
f 100/100/100 96/96/96 97/97/97
f 99/99/99 101/101/101 97/97/97
f 100/100/100 97/97/97 101/101/101
f 99/99/99 102/102/102 101/101/101
f 100/100/100 101/101/101 103/103/103
f 100/100/100 103/103/103 104/104/104
f 100/100/100 105/105/105 106/106/106
f 106/106/106 107/107/107 100/100/100
f 108/108/108 109/109/109 110/110/110
f 108/108/108 110/110/110 111/111/111
f 112/112/112 108/108/108 111/111/111
f 112/112/112 111/111/111 113/113/113
f 114/114/114 112/112/112 113/113/113
f 114/114/114 113/113/113 115/115/115
f 116/116/116 114/114/114 115/115/115
f 116/116/116 115/115/115 117/117/117
f 118/118/118 116/116/116 117/117/117
f 118/118/118 119/119/119 116/116/116
f 119/119/119 118/118/118 120/120/120
f 119/119/119 120/120/120 121/121/121
f 121/121/121 120/120/120 122/122/122
f 121/121/121 122/122/122 123/123/123
f 123/123/123 122/122/122 124/124/124
f 123/123/123 124/124/124 125/125/125
f 125/125/125 124/124/124 126/126/126
f 125/125/125 126/126/126 127/127/127
f 128/128/128 129/129/129 130/130/130
f 128/128/128 131/131/131 129/129/129
f 132/132/132 131/131/131 128/128/128
f 132/132/132 133/133/133 131/131/131
f 134/134/134 133/133/133 132/132/132
f 134/134/134 135/135/135 133/133/133
f 135/135/135 134/134/134 136/136/136
f 137/137/137 135/135/135 136/136/136
f 137/137/137 136/136/136 138/138/138
f 139/139/139 137/137/137 138/138/138
f 139/139/139 138/138/138 140/140/140
f 139/139/139 140/140/140 141/141/141
f 139/139/139 141/141/141 142/142/142
f 142/142/142 141/141/141 143/143/143
f 144/144/144 142/142/142 143/143/143
f 144/144/144 143/143/143 145/145/145
f 146/146/146 144/144/144 145/145/145
f 146/146/146 145/145/145 147/147/147
f 148/148/148 146/146/146 147/147/147
f 148/148/148 147/147/147 149/149/149
