# backpack_bandit_backpack (gear rip -> Godot: Z negated + winding reversed)
v -0.225000 -0.066965 -0.529866
v -0.225000 0.333035 -0.529866
v -0.175000 0.333035 -0.529866
v -0.175000 -0.066965 -0.529866
v 0.137500 -0.355579 0.206666
v 0.137500 -0.290427 0.181070
v -0.137500 -0.290427 0.181070
v -0.137500 -0.355579 0.206666
v -0.337500 -0.267542 0.175530
v 0.337500 -0.267542 0.175530
v 0.337500 -0.096876 0.203924
v -0.337500 -0.096876 0.203924
v 0.201102 -0.337800 -0.469648
v 0.201102 -0.220725 -0.443316
v 0.201102 -0.311486 -0.039779
v 0.201102 -0.428561 -0.066111
v -0.137500 -0.424815 0.026076
v -0.137500 -0.359663 0.000480
v 0.137500 -0.359663 0.000480
v 0.137500 -0.424815 0.026076
v 0.337500 -0.333464 -0.017274
v -0.337500 -0.333464 -0.017274
v -0.337500 -0.097307 -0.017274
v 0.337500 -0.097307 -0.017274
v -0.043898 -0.337800 -0.469648
v -0.043898 -0.220725 -0.443316
v -0.043898 -0.311486 -0.039779
v -0.043898 -0.428561 -0.066111
v 0.043898 -0.337800 -0.469648
v 0.043898 -0.220725 -0.443316
v 0.201102 -0.220725 -0.443316
v 0.201102 -0.337800 -0.469648
v -0.043898 -0.428561 -0.066111
v -0.043898 -0.311486 -0.039779
v -0.201102 -0.311486 -0.039779
v -0.201102 -0.428561 -0.066111
v -0.245000 -0.318500 0.224797
v -0.307500 -0.298500 0.224797
v -0.307500 -0.387369 -0.014844
v -0.245000 -0.407369 -0.014844
v -0.245000 -0.297156 -0.504866
v -0.307500 -0.277156 -0.504866
v 0.245000 -0.297156 -0.504866
v 0.245000 -0.407369 -0.014844
v 0.245000 -0.318500 0.224797
v 0.307500 -0.387369 -0.014844
v 0.307500 -0.277156 -0.504866
v 0.307500 -0.298500 0.224797
v -0.307500 -0.049449 0.265222
v -0.307500 -0.387369 -0.014844
v -0.307500 -0.298500 0.224797
v -0.307500 -0.051061 -0.504866
v -0.307500 -0.277156 -0.504866
v 0.175000 0.288290 -0.114890
v 0.225000 0.288290 -0.114890
v 0.225000 -0.072389 0.142686
v 0.175000 -0.072389 0.142686
v -0.137500 -0.290427 0.181070
v -0.137500 -0.359663 0.000480
v -0.137500 -0.424815 0.026076
v -0.137500 -0.355579 0.206666
v 0.043898 -0.311486 -0.039779
v 0.043898 -0.220725 -0.443316
v 0.043898 -0.337800 -0.469648
v 0.043898 -0.428561 -0.066111
v -0.201102 -0.337800 -0.469648
v -0.201102 -0.220725 -0.443316
v -0.043898 -0.220725 -0.443316
v -0.043898 -0.337800 -0.469648
v -0.337500 -0.096876 0.203924
v 0.337500 -0.096876 0.203924
v 0.337500 -0.097307 -0.017274
v -0.337500 -0.097307 -0.017274
v -0.175000 -0.066965 -0.529866
v -0.175000 -0.066965 -0.479866
v -0.225000 -0.066965 -0.479866
v -0.225000 -0.066965 -0.529866
v 0.175000 -0.066965 -0.529866
v 0.175000 0.333035 -0.529866
v 0.225000 0.333035 -0.529866
v 0.225000 -0.066965 -0.529866
v -0.225000 0.283035 -0.479866
v -0.175000 0.283035 -0.479866
v -0.175000 0.288290 -0.114890
v -0.225000 0.288290 -0.114890
v 0.175000 0.283035 -0.479866
v 0.225000 0.283035 -0.479866
v 0.225000 0.288290 -0.114890
v 0.175000 0.288290 -0.114890
v -0.225000 -0.066965 -0.479866
v -0.175000 -0.066965 -0.479866
v -0.175000 0.283035 -0.479866
v -0.225000 0.283035 -0.479866
v 0.225000 0.327780 -0.084222
v 0.225000 0.333035 -0.529866
v 0.175000 0.333035 -0.529866
v 0.175000 0.327780 -0.084222
v 0.175000 -0.066965 -0.479866
v 0.225000 -0.066965 -0.479866
v 0.225000 0.283035 -0.479866
v 0.175000 0.283035 -0.479866
v 0.225000 0.327780 -0.084222
v 0.175000 0.327780 -0.084222
v 0.175000 -0.072389 0.192686
v 0.225000 -0.072389 0.192686
v 0.225000 -0.066965 -0.529866
v 0.225000 -0.066965 -0.479866
v 0.175000 -0.066965 -0.479866
v 0.175000 -0.066965 -0.529866
v -0.307500 -0.049449 0.265222
v 0.307500 -0.049449 0.265222
v 0.307500 -0.051061 -0.504866
v -0.307500 -0.051061 -0.504866
v -0.175000 0.327780 -0.084222
v -0.175000 0.333035 -0.529866
v -0.225000 0.333035 -0.529866
v -0.225000 0.327780 -0.084222
v -0.225000 0.288290 -0.114890
v -0.175000 0.288290 -0.114890
v -0.175000 -0.072389 0.142686
v -0.225000 -0.072389 0.142686
v -0.175000 0.327780 -0.084222
v -0.225000 0.327780 -0.084222
v -0.225000 -0.072389 0.192686
v -0.175000 -0.072389 0.192686
v -0.337500 -0.267542 0.175530
v -0.337500 -0.096876 0.203924
v -0.337500 -0.097307 -0.017274
v -0.337500 -0.333464 -0.017274
v 0.337500 -0.097307 -0.017274
v 0.337500 -0.096876 0.203924
v 0.337500 -0.267542 0.175530
v 0.337500 -0.333464 -0.017274
v -0.201102 -0.311486 -0.039779
v -0.201102 -0.220725 -0.443316
v -0.201102 -0.337800 -0.469648
v -0.201102 -0.428561 -0.066111
v 0.201102 -0.428561 -0.066111
v 0.201102 -0.311486 -0.039779
v 0.043898 -0.311486 -0.039779
v 0.043898 -0.428561 -0.066111
v -0.337500 -0.333464 -0.017274
v 0.337500 -0.333464 -0.017274
v 0.337500 -0.267542 0.175530
v -0.337500 -0.267542 0.175530
v -0.137500 -0.355579 0.206666
v -0.137500 -0.424815 0.026076
v 0.137500 -0.424815 0.026076
v 0.137500 -0.355579 0.206666
v -0.201102 -0.428561 -0.066111
v -0.201102 -0.337800 -0.469648
v -0.043898 -0.337800 -0.469648
v -0.043898 -0.428561 -0.066111
v 0.043898 -0.428561 -0.066111
v 0.043898 -0.337800 -0.469648
v 0.201102 -0.337800 -0.469648
v 0.201102 -0.428561 -0.066111
v 0.137500 -0.424815 0.026076
v 0.137500 -0.359663 0.000480
v 0.137500 -0.290427 0.181070
v 0.137500 -0.355579 0.206666
v -0.307500 -0.298500 0.224797
v -0.245000 -0.318500 0.224797
v -0.307500 -0.049449 0.265222
v 0.307500 -0.049449 0.265222
v 0.245000 -0.318500 0.224797
v 0.307500 -0.298500 0.224797
v 0.307500 -0.277156 -0.504866
v 0.245000 -0.297156 -0.504866
v 0.307500 -0.051061 -0.504866
v -0.307500 -0.051061 -0.504866
v -0.245000 -0.297156 -0.504866
v -0.307500 -0.277156 -0.504866
v 0.307500 -0.298500 0.224797
v 0.307500 -0.387369 -0.014844
v 0.307500 -0.049449 0.265222
v 0.307500 -0.051061 -0.504866
v 0.307500 -0.277156 -0.504866
v 0.175000 0.327780 -0.084222
v 0.175000 -0.072389 0.142686
v 0.175000 -0.072389 0.192686
v 0.175000 0.288290 -0.114890
v 0.175000 0.283035 -0.479866
v 0.175000 0.333035 -0.529866
v 0.175000 -0.066965 -0.529866
v 0.175000 -0.066965 -0.479866
v -0.225000 0.327780 -0.084222
v -0.225000 -0.072389 0.142686
v -0.225000 -0.072389 0.192686
v -0.225000 0.288290 -0.114890
v -0.225000 0.283035 -0.479866
v -0.225000 0.333035 -0.529866
v -0.225000 -0.066965 -0.529866
v -0.225000 -0.066965 -0.479866
v 0.225000 -0.066965 -0.529866
v 0.225000 0.283035 -0.479866
v 0.225000 -0.066965 -0.479866
v 0.225000 0.333035 -0.529866
v 0.225000 0.327780 -0.084222
v 0.225000 0.288290 -0.114890
v 0.225000 -0.072389 0.142686
v 0.225000 -0.072389 0.192686
v -0.175000 -0.066965 -0.529866
v -0.175000 0.283035 -0.479866
v -0.175000 -0.066965 -0.479866
v -0.175000 0.333035 -0.529866
v -0.175000 0.327780 -0.084222
v -0.175000 0.288290 -0.114890
v -0.175000 -0.072389 0.142686
v -0.175000 -0.072389 0.192686
vt 0.74967587 0.26072675
vt 0.74967587 0.260727227
vt 0.749676347 0.260727227
vt 0.749676347 0.26072675
vt 0.234719276 0.749676347
vt 0.234719276 0.74967587
vt 0.2347188 0.74967587
vt 0.2347188 0.749676347
vt 0.2347188 0.749676347
vt 0.234719276 0.749676347
vt 0.234719276 0.74967587
vt 0.2347188 0.74967587
vt 0.2347188 0.74967587
vt 0.2347188 0.749676347
vt 0.234719276 0.749676347
vt 0.234719276 0.74967587
vt 0.234719276 0.749676347
vt 0.234719276 0.74967587
vt 0.2347188 0.74967587
vt 0.2347188 0.749676347
vt 0.234719276 0.74967587
vt 0.2347188 0.74967587
vt 0.2347188 0.749676347
vt 0.234719276 0.749676347
vt 0.2347188 0.74967587
vt 0.2347188 0.749676347
vt 0.234719276 0.749676347
vt 0.234719276 0.74967587
vt 0.234719276 0.749676347
vt 0.234719276 0.74967587
vt 0.2347188 0.74967587
vt 0.2347188 0.749676347
vt 0.234719276 0.749676347
vt 0.234719276 0.74967587
vt 0.2347188 0.74967587
vt 0.2347188 0.749676347
vt 0.765281081 0.74967587
vt 0.765280604 0.749676347
vt 0.765281081 0.749676347
vt 0.765280604 0.74967587
vt 0.765280604 0.749676347
vt 0.765281081 0.749676347
vt 0.765281081 0.749676347
vt 0.765280604 0.74967587
vt 0.765281081 0.74967587
vt 0.765280604 0.749676347
vt 0.765280604 0.749676347
vt 0.765281081 0.749676347
vt 0.765280962 0.74967593
vt 0.765280604 0.749676168
vt 0.765280724 0.74967593
vt 0.765281081 0.749676168
vt 0.765280843 0.749676347
vt 0.749676347 0.26072675
vt 0.74967587 0.26072675
vt 0.74967587 0.260727227
vt 0.749676347 0.260727227
vt 0.234719276 0.74967587
vt 0.2347188 0.74967587
vt 0.2347188 0.749676347
vt 0.234719276 0.749676347
vt 0.234719276 0.74967587
vt 0.2347188 0.74967587
vt 0.2347188 0.749676347
vt 0.234719276 0.749676347
vt 0.234719276 0.749676347
vt 0.234719276 0.74967587
vt 0.2347188 0.74967587
vt 0.2347188 0.749676347
vt 0.2347188 0.749676347
vt 0.234719276 0.749676347
vt 0.234719276 0.74967587
vt 0.2347188 0.74967587
vt 0.749676347 0.26072675
vt 0.74967587 0.26072675
vt 0.74967587 0.260727227
vt 0.749676347 0.260727227
vt 0.74967587 0.26072675
vt 0.74967587 0.260727227
vt 0.749676347 0.260727227
vt 0.749676347 0.26072675
vt 0.749676347 0.26072675
vt 0.74967587 0.26072675
vt 0.74967587 0.260727227
vt 0.749676347 0.260727227
vt 0.749676347 0.26072675
vt 0.74967587 0.26072675
vt 0.74967587 0.260727227
vt 0.749676347 0.260727227
vt 0.749676347 0.26072675
vt 0.74967587 0.26072675
vt 0.74967587 0.260727227
vt 0.749676347 0.260727227
vt 0.749676347 0.26072675
vt 0.74967587 0.26072675
vt 0.74967587 0.260727227
vt 0.749676347 0.260727227
vt 0.749676347 0.26072675
vt 0.74967587 0.26072675
vt 0.74967587 0.260727227
vt 0.749676347 0.260727227
vt 0.749676347 0.26072675
vt 0.74967587 0.26072675
vt 0.74967587 0.260727227
vt 0.749676347 0.260727227
vt 0.749676347 0.26072675
vt 0.74967587 0.26072675
vt 0.74967587 0.260727227
vt 0.749676347 0.260727227
vt 0.765281081 0.749675989
vt 0.765280604 0.749676228
vt 0.765280604 0.749675989
vt 0.765280843 0.74967587
vt 0.749676347 0.26072675
vt 0.74967587 0.26072675
vt 0.74967587 0.260727227
vt 0.749676347 0.260727227
vt 0.749676347 0.26072675
vt 0.74967587 0.26072675
vt 0.74967587 0.260727227
vt 0.749676347 0.260727227
vt 0.749676347 0.26072675
vt 0.74967587 0.26072675
vt 0.74967587 0.260727227
vt 0.749676347 0.260727227
vt 0.2347188 0.74967587
vt 0.2347188 0.749676347
vt 0.234719276 0.749676347
vt 0.234719276 0.74967587
vt 0.234719276 0.74967587
vt 0.2347188 0.74967587
vt 0.2347188 0.749676347
vt 0.234719276 0.749676347
vt 0.234719276 0.74967587
vt 0.2347188 0.74967587
vt 0.2347188 0.749676347
vt 0.234719276 0.749676347
vt 0.234719276 0.749676347
vt 0.234719276 0.74967587
vt 0.2347188 0.74967587
vt 0.2347188 0.749676347
vt 0.2347188 0.749676347
vt 0.234719276 0.749676347
vt 0.234719276 0.74967587
vt 0.2347188 0.74967587
vt 0.234719276 0.74967587
vt 0.2347188 0.74967587
vt 0.2347188 0.749676347
vt 0.234719276 0.749676347
vt 0.234719276 0.74967587
vt 0.2347188 0.74967587
vt 0.2347188 0.749676347
vt 0.234719276 0.749676347
vt 0.234719276 0.74967587
vt 0.2347188 0.74967587
vt 0.2347188 0.749676347
vt 0.234719276 0.749676347
vt 0.234719276 0.749676347
vt 0.234719276 0.74967587
vt 0.2347188 0.74967587
vt 0.2347188 0.749676347
vt 0.765281081 0.749676347
vt 0.765280604 0.74967587
vt 0.765280604 0.74967587
vt 0.765280604 0.74967587
vt 0.765281081 0.749676347
vt 0.765281081 0.74967587
vt 0.765280604 0.749676228
vt 0.765280604 0.749675989
vt 0.765280843 0.749676347
vt 0.765281081 0.749676228
vt 0.765280843 0.74967587
vt 0.765281081 0.749675989
vt 0.765280604 0.749676168
vt 0.765280724 0.74967593
vt 0.765280843 0.749676347
vt 0.765281081 0.749676168
vt 0.765280962 0.74967593
vt 0.749676108 0.260727227
vt 0.749676347 0.260726988
vt 0.749676287 0.260727167
vt 0.749676287 0.26072681
vt 0.749676108 0.26072675
vt 0.74967593 0.260727167
vt 0.74967587 0.260726988
vt 0.74967593 0.26072681
vt 0.749676108 0.260727227
vt 0.749676347 0.260726988
vt 0.749676287 0.260727167
vt 0.749676287 0.26072681
vt 0.749676108 0.26072675
vt 0.74967593 0.260727167
vt 0.74967587 0.260726988
vt 0.74967593 0.26072681
vt 0.749676287 0.260727167
vt 0.749676287 0.26072681
vt 0.749676347 0.260726988
vt 0.749676108 0.260727227
vt 0.74967593 0.260727167
vt 0.749676108 0.26072675
vt 0.74967593 0.26072681
vt 0.74967587 0.260726988
vt 0.749676287 0.260727167
vt 0.749676287 0.26072681
vt 0.749676347 0.260726988
vt 0.749676108 0.260727227
vt 0.74967593 0.260727167
vt 0.749676108 0.26072675
vt 0.74967593 0.26072681
vt 0.74967587 0.260726988
vn -0.000000 0.000000 -1.000000
vn -0.000000 0.000000 -1.000000
vn -0.000000 0.000000 -1.000000
vn -0.000000 0.000000 -1.000000
vn -0.000000 0.365662 0.930748
vn -0.000000 0.365662 0.930748
vn -0.000000 0.365662 0.930748
vn -0.000000 0.365662 0.930748
vn -0.000000 -0.164117 0.986441
vn -0.000000 -0.164117 0.986441
vn -0.000000 -0.164117 0.986441
vn -0.000000 -0.164117 0.986441
vn 1.000000 0.000000 -0.000000
vn 1.000000 0.000000 -0.000000
vn 1.000000 0.000000 -0.000000
vn 1.000000 0.000000 -0.000000
vn -0.000000 -0.365662 -0.930748
vn -0.000000 -0.365662 -0.930748
vn -0.000000 -0.365662 -0.930748
vn -0.000000 -0.365662 -0.930748
vn -0.000000 0.000000 -1.000000
vn -0.000000 0.000000 -1.000000
vn -0.000000 0.000000 -1.000000
vn -0.000000 0.000000 -1.000000
vn 1.000000 0.000000 -0.000000
vn 1.000000 0.000000 -0.000000
vn 1.000000 0.000000 -0.000000
vn 1.000000 0.000000 -0.000000
vn -0.000000 0.219432 -0.975628
vn -0.000000 0.219432 -0.975628
vn -0.000000 0.219432 -0.975628
vn -0.000000 0.219432 -0.975628
vn -0.000000 -0.219433 0.975628
vn -0.000000 -0.219433 0.975628
vn -0.000000 -0.219433 0.975628
vn -0.000000 -0.219433 0.975628
vn -0.145228 -0.927665 0.344016
vn -0.287378 -0.898054 0.333035
vn -0.304147 -0.950459 0.064204
vn -0.123124 -0.992368 0.006817
vn -0.200713 -0.955774 -0.214967
vn -0.298014 -0.931297 -0.209462
vn 0.150730 -0.964481 -0.216926
vn 0.123122 -0.984348 0.126098
vn 0.193407 -0.919902 0.341137
vn 0.304148 -0.950459 0.064204
vn 0.298016 -0.931296 -0.209462
vn 0.287377 -0.898055 0.333035
vn -1.000000 0.000000 -0.000000
vn -1.000000 0.000000 -0.000000
vn -1.000000 0.000000 -0.000000
vn -1.000000 0.000000 -0.000000
vn -1.000000 0.000000 -0.000000
vn -0.000000 -0.581161 -0.813789
vn -0.000000 -0.581160 -0.813789
vn -0.000000 -0.581161 -0.813789
vn -0.000000 -0.581161 -0.813789
vn -1.000000 0.000000 -0.000000
vn -1.000000 0.000000 -0.000000
vn -1.000000 0.000000 -0.000000
vn -1.000000 0.000000 -0.000000
vn -1.000000 0.000000 -0.000000
vn -1.000000 0.000000 -0.000000
vn -1.000000 0.000000 -0.000000
vn -1.000000 0.000000 -0.000000
vn -0.000000 0.219432 -0.975628
vn -0.000000 0.219432 -0.975628
vn -0.000000 0.219432 -0.975628
vn -0.000000 0.219432 -0.975628
vn -0.000000 0.999998 -0.001951
vn -0.000000 0.999998 -0.001951
vn -0.000000 0.999998 -0.001951
vn -0.000000 0.999998 -0.001951
vn -0.000000 -1.000000 -0.000000
vn -0.000000 -1.000000 -0.000000
vn -0.000000 -1.000000 -0.000000
vn -0.000000 -1.000000 -0.000000
vn -0.000000 0.000000 -1.000000
vn -0.000000 0.000000 -1.000000
vn -0.000000 0.000000 -1.000000
vn -0.000000 0.000000 -1.000000
vn -0.000000 -0.999896 0.014397
vn -0.000000 -0.999896 0.014397
vn -0.000000 -0.999896 0.014397
vn -0.000000 -0.999896 0.014397
vn -0.000000 -0.999896 0.014397
vn -0.000000 -0.999896 0.014397
vn -0.000000 -0.999896 0.014397
vn -0.000000 -0.999896 0.014397
vn -0.000000 0.000000 1.000000
vn -0.000000 0.000000 1.000000
vn -0.000000 0.000000 1.000000
vn -0.000000 0.000000 1.000000
vn -0.000000 0.999931 0.011791
vn -0.000000 0.999931 0.011791
vn -0.000000 0.999931 0.011791
vn -0.000000 0.999931 0.011791
vn -0.000000 0.000000 1.000000
vn -0.000000 0.000000 1.000000
vn -0.000000 0.000000 1.000000
vn -0.000000 0.000000 1.000000
vn -0.000000 0.569026 0.822320
vn -0.000000 0.569026 0.822320
vn -0.000000 0.569026 0.822320
vn -0.000000 0.569026 0.822320
vn -0.000000 -1.000000 -0.000000
vn -0.000000 -1.000000 -0.000000
vn -0.000000 -1.000000 -0.000000
vn -0.000000 -1.000000 -0.000000
vn -0.000000 0.999998 -0.002093
vn -0.000000 0.999998 -0.002093
vn -0.000000 0.999998 -0.002093
vn -0.000000 0.999998 -0.002093
vn -0.000000 0.999931 0.011791
vn -0.000000 0.999931 0.011791
vn -0.000000 0.999931 0.011791
vn -0.000000 0.999931 0.011791
vn -0.000000 -0.581161 -0.813789
vn -0.000000 -0.581161 -0.813789
vn -0.000000 -0.581161 -0.813789
vn -0.000000 -0.581161 -0.813789
vn -0.000000 0.569026 0.822320
vn -0.000000 0.569026 0.822320
vn -0.000000 0.569026 0.822320
vn -0.000000 0.569026 0.822320
vn -1.000000 0.000000 -0.000000
vn -1.000000 0.000000 -0.000000
vn -1.000000 0.000000 -0.000000
vn -1.000000 0.000000 -0.000000
vn 1.000000 0.000000 -0.000000
vn 1.000000 0.000000 -0.000000
vn 1.000000 0.000000 -0.000000
vn 1.000000 0.000000 -0.000000
vn -1.000000 0.000000 -0.000000
vn -1.000000 0.000000 -0.000000
vn -1.000000 0.000000 -0.000000
vn -1.000000 0.000000 -0.000000
vn -0.000000 -0.219433 0.975628
vn -0.000000 -0.219433 0.975628
vn -0.000000 -0.219433 0.975628
vn -0.000000 -0.219433 0.975627
vn -0.000000 -0.946221 0.323522
vn -0.000000 -0.946221 0.323522
vn -0.000000 -0.946221 0.323522
vn -0.000000 -0.946221 0.323522
vn -0.000000 -0.933730 0.357979
vn -0.000000 -0.933730 0.357979
vn -0.000000 -0.933730 0.357979
vn -0.000000 -0.933729 0.357979
vn -0.000000 -0.975628 -0.219433
vn -0.000000 -0.975628 -0.219433
vn -0.000000 -0.975628 -0.219433
vn -0.000000 -0.975628 -0.219433
vn -0.000000 -0.975628 -0.219433
vn -0.000000 -0.975628 -0.219433
vn -0.000000 -0.975628 -0.219433
vn -0.000000 -0.975628 -0.219433
vn 1.000000 0.000000 -0.000000
vn 1.000000 0.000000 -0.000000
vn 1.000000 0.000000 -0.000000
vn 1.000000 0.000000 -0.000000
vn -0.051203 -0.160008 0.985787
vn -0.017073 -0.152438 0.988166
vn -0.025610 -0.154348 0.987684
vn 0.017073 -0.152438 0.988166
vn 0.025610 -0.154348 0.987684
vn 0.051203 -0.160008 0.985787
vn -0.000000 0.000000 -1.000000
vn -0.000000 0.000000 -1.000000
vn -0.000000 0.000000 -1.000000
vn -0.000000 0.000000 -1.000000
vn -0.000000 0.000000 -1.000000
vn -0.000000 0.000000 -1.000000
vn 1.000000 0.000000 -0.000000
vn 1.000000 0.000000 -0.000000
vn 1.000000 0.000000 -0.000000
vn 1.000000 0.000000 -0.000000
vn 1.000000 0.000000 -0.000000
vn -1.000000 0.000000 -0.000000
vn -1.000000 0.000000 -0.000000
vn -1.000000 0.000000 -0.000000
vn -1.000000 0.000000 -0.000000
vn -1.000000 0.000000 -0.000000
vn -1.000000 0.000000 -0.000000
vn -1.000000 0.000000 -0.000000
vn -1.000000 0.000000 -0.000000
vn -1.000000 0.000000 -0.000000
vn -1.000000 0.000000 -0.000000
vn -1.000000 0.000000 -0.000000
vn -1.000000 0.000000 -0.000000
vn -1.000000 0.000000 -0.000000
vn -1.000000 0.000000 -0.000000
vn -1.000000 0.000000 -0.000000
vn -1.000000 0.000000 -0.000000
vn 1.000000 0.000000 -0.000000
vn 1.000000 0.000000 -0.000000
vn 1.000000 0.000000 -0.000000
vn 1.000000 0.000000 -0.000000
vn 1.000000 0.000000 -0.000000
vn 1.000000 0.000000 -0.000000
vn 1.000000 0.000000 -0.000000
vn 1.000000 0.000000 -0.000000
vn 1.000000 0.000000 -0.000000
vn 1.000000 0.000000 -0.000000
vn 1.000000 0.000000 -0.000000
vn 1.000000 0.000000 -0.000000
vn 1.000000 0.000000 -0.000000
vn 1.000000 0.000000 -0.000000
vn 1.000000 0.000000 -0.000000
vn 1.000000 0.000000 -0.000000
f 1/1/1 2/2/2 3/3/3
f 1/1/1 3/3/3 4/4/4
f 5/5/5 6/6/6 7/7/7
f 5/5/5 7/7/7 8/8/8
f 9/9/9 10/10/10 11/11/11
f 9/9/9 11/11/11 12/12/12
f 13/13/13 14/14/14 15/15/15
f 13/13/13 15/15/15 16/16/16
f 17/17/17 18/18/18 19/19/19
f 17/17/17 19/19/19 20/20/20
f 21/21/21 22/22/22 23/23/23
f 21/21/21 23/23/23 24/24/24
f 25/25/25 26/26/26 27/27/27
f 25/25/25 27/27/27 28/28/28
f 29/29/29 30/30/30 31/31/31
f 29/29/29 31/31/31 32/32/32
f 33/33/33 34/34/34 35/35/35
f 33/33/33 35/35/35 36/36/36
f 37/37/37 38/38/38 39/39/39
f 37/37/37 39/39/39 40/40/40
f 41/41/41 40/40/40 39/39/39
f 41/41/41 39/39/39 42/42/42
f 40/40/40 41/41/41 43/43/43
f 37/37/37 40/40/40 44/44/44
f 40/40/40 43/43/43 44/44/44
f 37/37/37 44/44/44 45/45/45
f 43/43/43 46/46/46 44/44/44
f 45/45/45 44/44/44 46/46/46
f 43/43/43 47/47/47 46/46/46
f 45/45/45 46/46/46 48/48/48
f 49/49/49 50/50/50 51/51/51
f 52/52/52 50/50/50 49/49/49
f 50/50/50 52/52/52 53/53/53
f 54/54/54 55/55/55 56/56/56
f 54/54/54 56/56/56 57/57/57
f 58/58/58 59/59/59 60/60/60
f 58/58/58 60/60/60 61/61/61
f 62/62/62 63/63/63 64/64/64
f 62/62/62 64/64/64 65/65/65
f 66/66/66 67/67/67 68/68/68
f 66/66/66 68/68/68 69/69/69
f 70/70/70 71/71/71 72/72/72
f 70/70/70 72/72/72 73/73/73
f 74/74/74 75/75/75 76/76/76
f 74/74/74 76/76/76 77/77/77
f 78/78/78 79/79/79 80/80/80
f 78/78/78 80/80/80 81/81/81
f 82/82/82 83/83/83 84/84/84
f 82/82/82 84/84/84 85/85/85
f 86/86/86 87/87/87 88/88/88
f 86/86/86 88/88/88 89/89/89
f 90/90/90 91/91/91 92/92/92
f 90/90/90 92/92/92 93/93/93
f 94/94/94 95/95/95 96/96/96
f 94/94/94 96/96/96 97/97/97
f 98/98/98 99/99/99 100/100/100
f 98/98/98 100/100/100 101/101/101
f 102/102/102 103/103/103 104/104/104
f 102/102/102 104/104/104 105/105/105
f 106/106/106 107/107/107 108/108/108
f 106/106/106 108/108/108 109/109/109
f 110/110/110 111/111/111 112/112/112
f 110/110/110 112/112/112 113/113/113
f 114/114/114 115/115/115 116/116/116
f 114/114/114 116/116/116 117/117/117
f 118/118/118 119/119/119 120/120/120
f 118/118/118 120/120/120 121/121/121
f 122/122/122 123/123/123 124/124/124
f 122/122/122 124/124/124 125/125/125
f 126/126/126 127/127/127 128/128/128
f 126/126/126 128/128/128 129/129/129
f 130/130/130 131/131/131 132/132/132
f 130/130/130 132/132/132 133/133/133
f 134/134/134 135/135/135 136/136/136
f 134/134/134 136/136/136 137/137/137
f 138/138/138 139/139/139 140/140/140
f 138/138/138 140/140/140 141/141/141
f 142/142/142 143/143/143 144/144/144
f 142/142/142 144/144/144 145/145/145
f 146/146/146 147/147/147 148/148/148
f 146/146/146 148/148/148 149/149/149
f 150/150/150 151/151/151 152/152/152
f 150/150/150 152/152/152 153/153/153
f 154/154/154 155/155/155 156/156/156
f 154/154/154 156/156/156 157/157/157
f 158/158/158 159/159/159 160/160/160
f 158/158/158 160/160/160 161/161/161
f 162/162/162 163/163/163 164/164/164
f 165/165/165 164/164/164 163/163/163
f 166/166/166 165/165/165 163/163/163
f 165/165/165 166/166/166 167/167/167
f 168/168/168 169/169/169 170/170/170
f 171/171/171 170/170/170 169/169/169
f 172/172/172 171/171/171 169/169/169
f 171/171/171 172/172/172 173/173/173
f 174/174/174 175/175/175 176/176/176
f 177/177/177 176/176/176 175/175/175
f 177/177/177 175/175/175 178/178/178
f 179/179/179 180/180/180 181/181/181
f 179/179/179 182/182/182 180/180/180
f 179/179/179 183/183/183 182/182/182
f 179/179/179 184/184/184 183/183/183
f 183/183/183 184/184/184 185/185/185
f 186/186/186 183/183/183 185/185/185
f 187/187/187 188/188/188 189/189/189
f 187/187/187 190/190/190 188/188/188
f 187/187/187 191/191/191 190/190/190
f 187/187/187 192/192/192 191/191/191
f 191/191/191 192/192/192 193/193/193
f 194/194/194 191/191/191 193/193/193
f 195/195/195 196/196/196 197/197/197
f 198/198/198 196/196/196 195/195/195
f 198/198/198 199/199/199 196/196/196
f 196/196/196 199/199/199 200/200/200
f 200/200/200 199/199/199 201/201/201
f 201/201/201 199/199/199 202/202/202
f 203/203/203 204/204/204 205/205/205
f 206/206/206 204/204/204 203/203/203
f 206/206/206 207/207/207 204/204/204
f 204/204/204 207/207/207 208/208/208
f 208/208/208 207/207/207 209/209/209
f 209/209/209 207/207/207 210/210/210
