# balaclava_bandit_mask (gear rip -> Godot: Z negated + winding reversed)
v -0.641383 0.200797 -0.207796
v -0.641383 0.200797 0.193798
v -0.548356 0.209459 0.199717
v -0.548356 0.209459 -0.219202
v -0.329438 0.209459 0.199717
v -0.329438 0.209459 -0.219202
v -0.443066 -0.158465 -0.219202
v -0.561879 -0.158465 -0.219202
v -0.561880 -0.158465 -0.142378
v -0.343066 -0.158465 -0.142378
v -0.548356 0.209459 -0.219202
v -0.329438 0.209459 -0.219202
v -0.443066 0.158465 -0.219202
v -0.561879 0.158465 -0.219202
v -0.641383 0.200797 -0.207796
v -0.575508 0.091333 -0.219202
v -0.641383 -0.200797 -0.207796
v -0.575508 -0.091332 -0.219202
v -0.561879 -0.158465 -0.219202
v -0.548356 -0.209459 -0.219202
v -0.443066 -0.158465 -0.219202
v -0.329438 -0.209459 -0.219202
v -0.443066 0.158465 -0.219202
v -0.343066 0.158465 -0.142378
v -0.561879 0.158465 -0.142378
v -0.561879 0.158465 -0.219202
v -0.561879 0.158465 -0.219202
v -0.561879 0.158465 -0.142378
v -0.575508 0.091333 -0.142378
v -0.575508 0.091333 -0.219202
v -0.575508 -0.091332 -0.142378
v -0.575508 -0.091332 -0.219202
v -0.561880 -0.158465 -0.142378
v -0.561879 -0.158465 -0.219202
v -0.329782 0.218628 -0.227842
v -0.238359 0.201043 -0.210258
v -0.238359 -0.201043 -0.210258
v -0.329782 -0.218627 -0.227842
v -0.434159 0.095330 -0.227842
v -0.448384 0.165401 -0.227842
v -0.434159 0.218628 -0.227842
v -0.434159 -0.095330 -0.227842
v -0.448384 -0.165401 -0.227842
v -0.434159 -0.218627 -0.227842
v -0.548356 -0.209459 -0.219202
v -0.329438 -0.209459 -0.219202
v -0.329438 -0.209459 0.199716
v -0.548356 -0.209459 0.199716
v -0.641383 -0.200797 -0.207796
v -0.641383 -0.200797 0.193798
v -0.334159 -0.218627 0.209412
v -0.279782 -0.218627 0.209412
v -0.348385 -0.165401 0.209412
v -0.334159 -0.062062 0.209412
v -0.279782 0.218627 0.209413
v -0.334159 0.062062 0.209413
v -0.238359 -0.201043 0.191828
v -0.238359 0.201043 0.191829
v -0.348385 0.165401 0.209413
v -0.334159 0.218627 0.209413
v -0.575508 -0.091332 -0.142378
v -0.343066 -0.158465 -0.142378
v -0.561880 -0.158465 -0.142378
v -0.329438 -0.091332 -0.142378
v -0.329438 0.091332 -0.142378
v -0.575508 0.091333 -0.142378
v -0.561879 0.158465 -0.142378
v -0.343066 0.158465 -0.142378
v -0.329438 0.209459 0.199717
v -0.548356 -0.209459 0.199716
v -0.329438 -0.209459 0.199716
v -0.548356 0.209459 0.199717
v -0.641383 0.200797 0.193798
v -0.641383 -0.200797 0.193798
v -0.292282 -0.218627 0.100099
v -0.434159 -0.218627 -0.227842
v -0.329782 -0.218627 -0.227842
v -0.238359 -0.201043 -0.210258
v -0.334159 -0.218627 0.209412
v -0.238359 -0.201043 0.091307
v -0.279782 -0.218627 0.209412
v -0.238359 -0.201043 0.191828
v -0.238359 0.201043 0.191829
v -0.206873 0.109314 0.100099
v -0.238359 0.201043 0.091307
v -0.238359 -0.201043 0.191828
v -0.206873 0.109314 -0.118529
v -0.238359 0.201043 -0.210258
v -0.206873 -0.109314 0.100099
v -0.238359 -0.201043 0.091307
v -0.206873 -0.109314 -0.118529
v -0.238359 -0.201043 -0.210258
v -0.292282 0.218627 0.100099
v -0.238359 0.201043 0.191829
v -0.238359 0.201043 0.091307
v -0.279782 0.218627 0.209413
v -0.238359 0.201043 -0.210258
v -0.334159 0.218627 0.209413
v -0.329782 0.218628 -0.227842
v -0.434159 0.218628 -0.227842
v -0.676826 0.122306 0.112564
v -0.641383 -0.200797 0.193798
v -0.641383 0.200797 0.193798
v -0.641383 0.200797 -0.207796
v -0.676826 -0.122306 0.112564
v -0.641383 -0.200797 -0.207796
v -0.676826 -0.122306 -0.132049
v -0.676826 0.122307 -0.132049
v -0.434159 -0.218627 -0.227842
v -0.334159 -0.218627 0.209412
v -0.379865 -0.168787 0.156630
v -0.348385 -0.165401 0.209412
v -0.457068 -0.168787 -0.179966
v -0.390848 -0.127694 0.156630
v -0.448384 -0.165401 -0.227842
v -0.468050 -0.127694 -0.179966
v -0.434159 -0.095330 -0.227842
v -0.457068 -0.073597 -0.179966
v -0.334159 -0.062062 0.209412
v -0.379865 -0.047913 0.156630
v -0.379865 0.047913 0.156630
v -0.334159 0.062062 0.209413
v -0.390848 0.127694 0.156630
v -0.348385 0.165401 0.209413
v -0.434159 0.095330 -0.227842
v -0.457068 0.073598 -0.179966
v -0.468050 0.127695 -0.179966
v -0.448384 0.165401 -0.227842
v -0.457068 0.168787 -0.179966
v -0.434159 0.218628 -0.227842
v -0.379865 0.168787 0.156630
v -0.334159 0.218627 0.209413
vt 0.378750741 0.764216244
vt 0.378748864 0.764222682
vt 0.37874949 0.764224112
vt 0.378752738 0.764215469
vt 0.378752381 0.764230728
vt 0.378761292 0.764214575
vt 0.378740519 0.764209449
vt 0.378743649 0.764212489
vt 0.378744662 0.76421088
vt 0.378742665 0.764203727
vt 0.378752738 0.764215469
vt 0.378761292 0.764214575
vt 0.378755778 0.764212549
vt 0.378751695 0.764214158
vt 0.378750741 0.764216244
vt 0.378749728 0.76421386
vt 0.3787435 0.764214694
vt 0.378745526 0.764212906
vt 0.378743649 0.764212489
vt 0.378742218 0.764213204
vt 0.378740519 0.764209449
vt 0.378735334 0.76420939
vt 0.378755778 0.764212549
vt 0.378755957 0.764206827
vt 0.378751308 0.76421231
vt 0.378751695 0.764214158
vt 0.378751695 0.764214158
vt 0.378751308 0.76421231
vt 0.378749996 0.764212012
vt 0.378749728 0.76421386
vt 0.378745973 0.764211237
vt 0.378745526 0.764212906
vt 0.378744662 0.76421088
vt 0.378743649 0.764212489
vt 0.11826165 0.754387677
vt 0.118262962 0.754387021
vt 0.118264809 0.754379988
vt 0.118263915 0.754378736
vt 0.118258312 0.75438565
vt 0.118258849 0.754387558
vt 0.118259981 0.754388392
vt 0.118259922 0.754378974
vt 0.118261352 0.754377425
vt 0.118262842 0.754377246
vt 0.378742218 0.764213204
vt 0.378735334 0.76420939
vt 0.37873593 0.764226198
vt 0.378741413 0.764222145
vt 0.3787435 0.764214694
vt 0.378742725 0.76422137
vt 0.118273512 0.754380584
vt 0.118272915 0.75438112
vt 0.118274584 0.754381299
vt 0.11827524 0.75438422
vt 0.118270591 0.754390061
vt 0.118274167 0.754388332
vt 0.118272379 0.754381478
vt 0.118270293 0.754389465
vt 0.1182722 0.754390776
vt 0.118270829 0.754390836
vt 0.378745973 0.764211237
vt 0.378742665 0.764203727
vt 0.378744662 0.76421088
vt 0.378745705 0.764202774
vt 0.378753722 0.7642048
vt 0.378749996 0.764212012
vt 0.378751308 0.76421231
vt 0.378755957 0.764206827
vt 0.378752381 0.764230728
vt 0.378741413 0.764222145
vt 0.37873593 0.764226198
vt 0.37874949 0.764224112
vt 0.378748864 0.764222682
vt 0.378742725 0.76422137
vt 0.118271604 0.75437969
vt 0.118262842 0.754377246
vt 0.118263915 0.754378736
vt 0.118264809 0.754379988
vt 0.118273512 0.754380584
vt 0.118270829 0.754380763
vt 0.118272915 0.75438112
vt 0.118272379 0.754381478
vt 0.118270293 0.754389465
vt 0.11826928 0.754387319
vt 0.118268564 0.754389346
vt 0.118272379 0.754381478
vt 0.118264928 0.754386008
vt 0.118262962 0.754387021
vt 0.118270472 0.754382789
vt 0.118270829 0.754380763
vt 0.118266061 0.754381835
vt 0.118264809 0.754379988
vt 0.118268743 0.754390657
vt 0.118270293 0.754389465
vt 0.118268564 0.754389346
vt 0.118270591 0.754390061
vt 0.118262962 0.754387021
vt 0.118270829 0.754390836
vt 0.11826165 0.754387677
vt 0.118259981 0.754388392
vt 0.378748 0.764221311
vt 0.378742725 0.76422137
vt 0.378748864 0.764222682
vt 0.378750741 0.764216244
vt 0.378744006 0.764220417
vt 0.3787435 0.764214694
vt 0.378744692 0.764216244
vt 0.378749102 0.764217198
vt 0.118262842 0.754377246
vt 0.118273512 0.754380584
vt 0.118276075 0.754379332
vt 0.118274584 0.754381299
vt 0.118260875 0.754375398
vt 0.118277743 0.754380405
vt 0.118261352 0.754377425
vt 0.118258968 0.754376054
vt 0.118259922 0.754378974
vt 0.118257478 0.754378617
vt 0.11827524 0.75438422
vt 0.11827822 0.754384816
vt 0.118277267 0.754389465
vt 0.118274167 0.754388332
vt 0.118274584 0.75439316
vt 0.1182722 0.754390776
vt 0.118258312 0.75438565
vt 0.118256226 0.754384816
vt 0.118256226 0.754387558
vt 0.118258849 0.754387558
vt 0.118257478 0.754388988
vt 0.118259981 0.754388392
vt 0.118272498 0.75439322
vt 0.118270829 0.754390836
vn -0.092712 0.995693 0.000001
vn -0.092712 0.995693 0.000001
vn -0.061867 0.998084 0.000001
vn -0.030933 0.999521 0.000001
vn 0.000000 1.000000 0.000001
vn 0.000000 1.000000 0.000001
vn 0.000000 1.000000 0.000001
vn 0.000000 1.000000 0.000001
vn 0.000000 1.000000 0.000001
vn 0.000000 1.000000 0.000001
vn -0.041630 0.011041 -0.999072
vn 0.000000 0.000001 -1.000000
vn 0.000000 0.000001 -1.000000
vn -0.084495 0.019743 -0.996228
vn -0.141248 0.019712 -0.989778
vn -0.156559 0.008689 -0.987630
vn -0.148605 -0.014783 -0.988786
vn -0.149521 -0.013031 -0.988673
vn -0.084496 -0.019742 -0.996228
vn -0.041630 -0.011039 -0.999072
vn 0.000000 0.000001 -1.000000
vn 0.000000 0.000001 -1.000000
vn -0.000000 -1.000000 -0.000001
vn -0.000000 -1.000000 -0.000001
vn -0.000000 -1.000000 -0.000001
vn -0.000000 -1.000000 -0.000001
vn 0.980010 -0.198950 -0.000000
vn 0.980010 -0.198950 -0.000000
vn 0.991086 -0.133227 -0.000000
vn 0.997779 -0.066613 -0.000000
vn 0.997779 0.066613 0.000000
vn 0.991086 0.133226 0.000000
vn 0.980010 0.198950 0.000000
vn 0.980010 0.198950 0.000000
vn 0.075879 0.000001 -0.997117
vn 0.188877 0.000001 -0.982001
vn 0.188877 0.000001 -0.982001
vn 0.037885 0.000001 -0.999282
vn 0.000000 0.000001 -1.000000
vn 0.000000 0.000001 -1.000000
vn 0.000000 0.000001 -1.000000
vn 0.000000 0.000001 -1.000000
vn 0.000000 0.000001 -1.000000
vn 0.000000 0.000001 -1.000000
vn -0.030934 -0.999521 -0.000001
vn -0.000000 -1.000000 -0.000001
vn -0.000000 -1.000000 -0.000001
vn -0.061868 -0.998084 -0.000001
vn -0.092713 -0.995693 -0.000001
vn -0.092713 -0.995693 -0.000001
vn -0.000000 -0.000001 1.000000
vn 0.099179 -0.000001 0.995070
vn -0.000000 -0.000001 1.000000
vn -0.000000 -0.000001 1.000000
vn 0.132616 -0.000001 0.991167
vn -0.000000 -0.000001 1.000000
vn 0.390757 -0.000001 0.920494
vn 0.390757 -0.000001 0.920494
vn -0.000000 -0.000001 1.000000
vn -0.000000 -0.000001 1.000000
vn 0.000000 0.000001 -1.000000
vn 0.000000 0.000001 -1.000000
vn 0.000000 0.000001 -1.000000
vn 0.000000 0.000001 -1.000000
vn 0.000000 0.000001 -1.000000
vn 0.000000 0.000001 -1.000000
vn 0.000000 0.000001 -1.000000
vn 0.000000 0.000001 -1.000000
vn -0.000000 -0.000001 1.000000
vn -0.031763 -0.000001 0.999495
vn -0.000000 -0.000001 1.000000
vn -0.031763 -0.000001 0.999495
vn -0.063495 -0.000001 0.997982
vn -0.063495 -0.000001 0.997982
vn 0.171870 -0.985075 -0.009396
vn -0.000000 -1.000000 -0.000001
vn 0.096923 -0.995230 -0.011084
vn 0.251953 -0.967676 -0.011052
vn -0.000000 -1.000000 -0.000001
vn 0.310032 -0.950726 -0.000001
vn 0.191025 -0.981342 -0.021845
vn 0.342762 -0.939177 -0.021455
vn 0.971785 0.166785 0.166786
vn 0.982067 0.133313 0.133313
vn 0.945830 0.324662 0.000000
vn 0.968795 -0.110849 0.221696
vn 0.988926 0.132741 -0.066370
vn 0.968795 0.110848 -0.221696
vn 0.988926 -0.132741 0.066370
vn 0.945830 -0.324662 -0.000000
vn 0.982067 -0.133313 -0.133313
vn 0.971784 -0.166786 -0.166786
vn 0.171871 0.985075 -0.009394
vn 0.342763 0.939177 -0.021453
vn 0.310032 0.950726 0.000001
vn 0.191026 0.981342 -0.021843
vn 0.251953 0.967676 -0.011050
vn 0.000000 1.000000 0.000001
vn 0.096923 0.995230 -0.011082
vn 0.000000 1.000000 0.000001
vn -0.980027 0.142620 0.138585
vn -0.950267 -0.142494 0.276925
vn -0.954093 0.214803 0.208726
vn -0.951007 0.215382 -0.221802
vn -0.971337 -0.213806 0.103878
vn -0.946975 -0.285663 -0.147089
vn -0.980674 -0.085453 -0.176002
vn -0.978713 0.142976 -0.147237
vn -0.883169 -0.464854 0.062629
vn -0.845470 -0.396523 0.357700
vn -0.845075 -0.397303 0.357769
vn -0.812730 -0.115987 0.570978
vn -0.929280 -0.363358 -0.066398
vn -0.781360 -0.006371 0.624049
vn -0.947395 -0.114741 -0.298793
vn -0.915327 0.032285 -0.401415
vn -0.874366 0.116221 -0.471143
vn -0.889998 0.058111 -0.452246
vn -0.748191 0.050894 0.661529
vn -0.748191 0.050893 0.661529
vn -0.751009 -0.033925 0.659420
vn -0.745148 -0.067849 0.663439
vn -0.781360 0.006371 0.624049
vn -0.812730 0.115987 0.570978
vn -0.882621 -0.087208 -0.461924
vn -0.882621 -0.087208 -0.461925
vn -0.915327 -0.032284 -0.401415
vn -0.947395 0.114741 -0.298793
vn -0.929280 0.363359 -0.066398
vn -0.883169 0.464854 0.062630
vn -0.845075 0.397304 0.357769
vn -0.845470 0.396523 0.357701
f 1/1/1 2/2/2 3/3/3
f 1/1/1 3/3/3 4/4/4
f 4/4/4 3/3/3 5/5/5
f 4/4/4 5/5/5 6/6/6
f 7/7/7 8/8/8 9/9/9
f 7/7/7 9/9/9 10/10/10
f 11/11/11 12/12/12 13/13/13
f 11/11/11 13/13/13 14/14/14
f 14/14/14 15/15/15 11/11/11
f 16/16/16 15/15/15 14/14/14
f 15/15/15 16/16/16 17/17/17
f 17/17/17 16/16/16 18/18/18
f 17/17/17 18/18/18 19/19/19
f 17/17/17 19/19/19 20/20/20
f 21/21/21 20/20/20 19/19/19
f 21/21/21 22/22/22 20/20/20
f 23/23/23 24/24/24 25/25/25
f 23/23/23 25/25/25 26/26/26
f 27/27/27 28/28/28 29/29/29
f 27/27/27 29/29/29 30/30/30
f 30/30/30 29/29/29 31/31/31
f 30/30/30 31/31/31 32/32/32
f 32/32/32 31/31/31 33/33/33
f 32/32/32 33/33/33 34/34/34
f 35/35/35 36/36/36 37/37/37
f 35/35/35 37/37/37 38/38/38
f 38/38/38 39/39/39 35/35/35
f 35/35/35 39/39/39 40/40/40
f 41/41/41 35/35/35 40/40/40
f 39/39/39 38/38/38 42/42/42
f 42/42/42 38/38/38 43/43/43
f 43/43/43 38/38/38 44/44/44
f 45/45/45 46/46/46 47/47/47
f 45/45/45 47/47/47 48/48/48
f 49/49/49 45/45/45 48/48/48
f 49/49/49 48/48/48 50/50/50
f 51/51/51 52/52/52 53/53/53
f 52/52/52 54/54/54 53/53/53
f 55/55/55 54/54/54 52/52/52
f 54/54/54 55/55/55 56/56/56
f 55/55/55 52/52/52 57/57/57
f 55/55/55 57/57/57 58/58/58
f 56/56/56 55/55/55 59/59/59
f 59/59/59 55/55/55 60/60/60
f 61/61/61 62/62/62 63/63/63
f 62/62/62 61/61/61 64/64/64
f 64/64/64 61/61/61 65/65/65
f 66/66/66 65/65/65 61/61/61
f 67/67/67 65/65/65 66/66/66
f 65/65/65 67/67/67 68/68/68
f 69/69/69 70/70/70 71/71/71
f 69/69/69 72/72/72 70/70/70
f 73/73/73 70/70/70 72/72/72
f 70/70/70 73/73/73 74/74/74
f 75/75/75 76/76/76 77/77/77
f 75/75/75 77/77/77 78/78/78
f 76/76/76 75/75/75 79/79/79
f 75/75/75 78/78/78 80/80/80
f 79/79/79 75/75/75 81/81/81
f 75/75/75 80/80/80 82/82/82
f 75/75/75 82/82/82 81/81/81
f 83/83/83 84/84/84 85/85/85
f 86/86/86 84/84/84 83/83/83
f 87/87/87 85/85/85 84/84/84
f 88/88/88 85/85/85 87/87/87
f 86/86/86 89/89/89 84/84/84
f 87/87/87 84/84/84 89/89/89
f 90/90/90 89/89/89 86/86/86
f 91/91/91 88/88/88 87/87/87
f 87/87/87 89/89/89 91/91/91
f 89/89/89 90/90/90 91/91/91
f 91/91/91 92/92/92 88/88/88
f 92/92/92 91/91/91 90/90/90
f 93/93/93 94/94/94 95/95/95
f 93/93/93 96/96/96 94/94/94
f 97/97/97 93/93/93 95/95/95
f 93/93/93 98/98/98 96/96/96
f 97/97/97 99/99/99 93/93/93
f 93/93/93 100/100/100 98/98/98
f 100/100/100 93/93/93 99/99/99
f 101/101/101 102/102/102 103/103/103
f 104/104/104 101/101/101 103/103/103
f 101/101/101 105/105/105 102/102/102
f 105/105/105 106/106/106 102/102/102
f 105/105/105 107/107/107 106/106/106
f 104/104/104 106/106/106 107/107/107
f 107/107/107 105/105/105 101/101/101
f 104/104/104 108/108/108 101/101/101
f 107/107/107 101/101/101 108/108/108
f 104/104/104 107/107/107 108/108/108
f 109/109/109 110/110/110 111/111/111
f 112/112/112 111/111/111 110/110/110
f 109/109/109 111/111/111 113/113/113
f 112/112/112 114/114/114 111/111/111
f 115/115/115 109/109/109 113/113/113
f 115/115/115 113/113/113 116/116/116
f 117/117/117 115/115/115 116/116/116
f 117/117/117 116/116/116 118/118/118
f 119/119/119 114/114/114 112/112/112
f 119/119/119 120/120/120 114/114/114
f 119/119/119 121/121/121 120/120/120
f 119/119/119 122/122/122 121/121/121
f 122/122/122 123/123/123 121/121/121
f 122/122/122 124/124/124 123/123/123
f 125/125/125 117/117/117 118/118/118
f 125/125/125 118/118/118 126/126/126
f 125/125/125 126/126/126 127/127/127
f 125/125/125 127/127/127 128/128/128
f 128/128/128 127/127/127 129/129/129
f 128/128/128 129/129/129 130/130/130
f 124/124/124 131/131/131 123/123/123
f 130/130/130 129/129/129 131/131/131
f 124/124/124 132/132/132 131/131/131
f 130/130/130 131/131/131 132/132/132
