# belgiuminfantry_vest_vest (gear rip -> Godot: Z negated + winding reversed)
v -0.783743 0.270000 0.150002
v -0.783742 0.270000 0.210002
v -0.783742 0.370000 0.210002
v -0.783743 0.370000 0.150002
v -0.783743 0.270000 -0.159998
v -0.783743 0.370000 -0.159998
v -0.783743 0.270000 -0.219998
v -0.783743 0.370000 -0.219998
v -0.783743 0.270000 -0.159998
v -0.783743 0.270000 -0.219998
v -0.723743 0.233695 -0.219998
v -0.723743 0.233695 -0.159998
v -0.783743 0.270000 0.150002
v -0.555521 0.110952 -0.159999
v -0.555521 0.110952 -0.219999
v -0.399400 -0.009371 -0.160000
v -0.399400 -0.009371 -0.220000
v -0.269910 -0.175667 -0.160000
v -0.269910 -0.175667 -0.220000
v -0.723743 0.233695 0.150002
v -0.152521 -0.339544 -0.160000
v -0.783742 0.270000 0.210002
v -0.723743 0.233694 0.210002
v -0.555520 0.110951 0.210001
v -0.555520 0.110951 0.150001
v -0.399400 -0.009371 0.210000
v -0.399400 -0.009371 0.150000
v -0.269909 -0.175668 0.210000
v -0.269910 -0.175668 0.150000
v -0.152521 -0.339544 0.210000
v -0.152521 -0.339544 0.150000
v -0.125897 -0.399544 0.210000
v -0.125897 -0.399544 0.150000
v -0.125898 -0.399544 -0.160001
v -0.152521 -0.339544 -0.220000
v -0.125898 -0.399544 -0.220001
v -0.723743 0.233695 0.150002
v -0.723743 0.233695 -0.159998
v -0.723743 0.333695 -0.159998
v -0.723743 0.333695 0.150002
v -0.723743 0.333695 -0.219998
v -0.783743 0.270000 -0.219998
v -0.783743 0.370000 -0.219998
v -0.723743 0.233695 -0.219998
v -0.555521 0.110952 -0.219999
v -0.530521 0.185952 -0.219999
v -0.399400 -0.009371 -0.220000
v -0.349401 0.040629 -0.220000
v -0.269910 -0.175667 -0.220000
v -0.194910 -0.150667 -0.220000
v -0.152521 -0.339544 -0.220000
v -0.052521 -0.339544 -0.220001
v -0.125898 -0.399544 -0.220001
v -0.025898 -0.399544 -0.220001
v -0.269910 -0.175667 -0.160000
v -0.152521 -0.339544 -0.160000
v -0.052521 -0.339544 -0.160001
v -0.194910 -0.150667 -0.160000
v -0.399400 -0.009371 -0.160000
v -0.349400 0.040629 -0.160000
v -0.555521 0.110952 -0.159999
v -0.530521 0.185952 -0.159999
v -0.723743 0.233695 -0.159998
v -0.723743 0.333695 -0.159998
v -0.723743 0.233694 0.210002
v -0.783742 0.370000 0.210002
v -0.783742 0.270000 0.210002
v -0.723743 0.333695 0.210002
v -0.530520 0.185951 0.210001
v -0.555520 0.110951 0.210001
v -0.349400 0.040629 0.210000
v -0.399400 -0.009371 0.210000
v -0.194909 -0.150668 0.210000
v -0.269909 -0.175668 0.210000
v -0.052521 -0.339544 0.210000
v -0.152521 -0.339544 0.210000
v -0.025897 -0.399544 0.209999
v -0.125897 -0.399544 0.210000
v -0.783743 0.370000 0.150002
v -0.783742 0.370000 0.210002
v -0.723743 0.333695 0.210002
v -0.723743 0.333695 0.150002
v -0.783743 0.370000 -0.159998
v -0.530520 0.185952 0.150001
v -0.530520 0.185951 0.210001
v -0.349400 0.040629 0.150000
v -0.349400 0.040629 0.210000
v -0.194909 -0.150668 0.150000
v -0.194909 -0.150668 0.210000
v -0.723743 0.333695 -0.159998
v -0.052521 -0.339544 0.150000
v -0.783743 0.370000 -0.219998
v -0.723743 0.333695 -0.219998
v -0.530521 0.185952 -0.219999
v -0.530521 0.185952 -0.159999
v -0.349401 0.040629 -0.220000
v -0.349400 0.040629 -0.160000
v -0.194910 -0.150667 -0.220000
v -0.194910 -0.150667 -0.160000
v -0.052521 -0.339544 -0.220001
v -0.052521 -0.339544 -0.160001
v -0.025898 -0.399544 -0.220001
v -0.025897 -0.399544 -0.160001
v -0.025897 -0.399544 0.149999
v -0.052521 -0.339544 0.210000
v -0.025897 -0.399544 0.209999
v -0.194909 -0.150668 0.150000
v -0.052521 -0.339544 0.150000
v -0.152521 -0.339544 0.150000
v -0.269910 -0.175668 0.150000
v -0.349400 0.040629 0.150000
v -0.399400 -0.009371 0.150000
v -0.530520 0.185952 0.150001
v -0.555520 0.110951 0.150001
v -0.723743 0.333695 0.150002
v -0.723743 0.233695 0.150002
v -0.125898 -0.399544 -0.160001
v -0.125898 -0.399544 -0.220001
v -0.025898 -0.399544 -0.220001
v -0.025897 -0.399544 -0.160001
v -0.025897 -0.399544 0.149999
v -0.125897 -0.399544 0.150000
v -0.125897 -0.399544 0.210000
v -0.025897 -0.399544 0.209999
v -0.152521 -0.339544 0.150000
v -0.052521 -0.339544 0.150000
v -0.052521 -0.339544 -0.160001
v -0.152521 -0.339544 -0.160000
v -0.026052 -0.400000 -0.220001
v -0.026052 -0.400000 -0.160001
v -0.126052 -0.400000 -0.160000
v -0.126052 -0.400000 -0.220001
v -0.026052 0.400000 -0.159999
v -0.026052 0.400000 -0.219999
v -0.126052 0.400000 -0.219999
v -0.126052 0.400000 -0.159999
v -0.126051 0.400000 0.150001
v -0.026051 0.400000 0.150001
v -0.026051 0.400000 0.210001
v -0.126051 0.400000 0.210001
v -0.026052 0.340000 -0.219999
v -0.026052 -0.400000 -0.220001
v -0.126052 -0.400000 -0.220001
v -0.126052 0.340000 -0.219999
v -0.026052 0.400000 -0.219999
v -0.126052 0.400000 -0.219999
v -0.126052 0.340000 -0.159999
v -0.126052 -0.400000 -0.220001
v -0.126052 -0.400000 -0.160000
v -0.126052 0.340000 -0.219999
v -0.126052 0.400000 -0.159999
v -0.126052 0.400000 -0.219999
v -0.126051 0.340000 0.150001
v -0.126051 0.400000 0.150001
v -0.126051 0.400000 0.210001
v -0.126051 0.340000 0.210001
v -0.126051 -0.400000 0.150000
v -0.126051 -0.400000 0.210000
v -0.026051 -0.400000 0.149999
v -0.026051 -0.400000 0.209999
v -0.126051 -0.400000 0.210000
v -0.126051 -0.400000 0.150000
v -0.026051 0.340000 0.210001
v -0.026051 0.400000 0.210001
v -0.126051 0.400000 0.210001
v -0.126051 0.340000 0.210001
v -0.026051 -0.400000 0.209999
v -0.126051 -0.400000 0.210000
v -0.026051 0.340000 0.150001
v -0.026051 -0.400000 0.149999
v -0.126051 -0.400000 0.150000
v -0.126051 0.340000 0.150001
v -0.026051 0.340000 0.210001
v -0.026051 0.400000 0.150001
v -0.026051 0.400000 0.210001
v -0.026051 0.340000 0.150001
v -0.026051 -0.400000 0.209999
v -0.026051 -0.400000 0.149999
v -0.026052 0.340000 -0.159999
v -0.026052 0.400000 -0.159999
v -0.026052 0.400000 -0.219999
v -0.026052 0.340000 -0.219999
v -0.026052 -0.400000 -0.160001
v -0.026052 -0.400000 -0.220001
v -0.026052 -0.400000 -0.160001
v -0.026052 0.340000 -0.159999
v -0.126052 0.340000 -0.159999
v -0.126052 -0.400000 -0.160000
v -0.126052 0.340000 -0.159999
v -0.026052 0.340000 -0.159999
v -0.026051 0.340000 0.150001
v -0.126051 0.340000 0.150001
v -0.783743 -0.270000 -0.159999
v -0.783743 -0.270000 -0.219999
v -0.783743 -0.370000 -0.219999
v -0.783743 -0.370000 -0.159999
v -0.783743 -0.270000 0.150001
v -0.783743 -0.370000 0.150001
v -0.783743 -0.270000 0.210001
v -0.783743 -0.370000 0.210001
v -0.783743 -0.270000 0.150001
v -0.783743 -0.270000 0.210001
v -0.723743 -0.233695 0.210001
v -0.723743 -0.233695 0.150001
v -0.783743 -0.270000 -0.159999
v -0.555520 -0.110952 0.150001
v -0.555520 -0.110952 0.210001
v -0.399400 0.009371 0.150002
v -0.399400 0.009371 0.210002
v -0.269909 0.175667 0.150001
v -0.269909 0.175667 0.210001
v -0.723743 -0.233695 -0.159999
v -0.152521 0.339544 0.150001
v -0.783743 -0.270000 -0.219999
v -0.723743 -0.233694 -0.219999
v -0.555521 -0.110951 -0.219999
v -0.555521 -0.110951 -0.159999
v -0.399400 0.009371 -0.219998
v -0.399400 0.009371 -0.159998
v -0.269910 0.175668 -0.219999
v -0.269910 0.175668 -0.159999
v -0.152521 0.339544 -0.219999
v -0.152521 0.339544 -0.159999
v -0.125898 0.399544 -0.219999
v -0.125897 0.399544 -0.159999
v -0.125897 0.399544 0.150001
v -0.152521 0.339544 0.210001
v -0.125897 0.399544 0.210001
v -0.723743 -0.233695 -0.159999
v -0.723743 -0.233695 0.150001
v -0.723743 -0.333695 0.150001
v -0.723743 -0.333695 -0.159999
v -0.723743 -0.333695 0.210001
v -0.783743 -0.270000 0.210001
v -0.783743 -0.370000 0.210001
v -0.723743 -0.233695 0.210001
v -0.555520 -0.110952 0.210001
v -0.530520 -0.185952 0.210001
v -0.399400 0.009371 0.210002
v -0.349400 -0.040629 0.210001
v -0.269909 0.175667 0.210001
v -0.194909 0.150667 0.210001
v -0.152521 0.339544 0.210001
v -0.052521 0.339544 0.210001
v -0.125897 0.399544 0.210001
v -0.025897 0.399544 0.210001
v -0.269909 0.175667 0.150001
v -0.152521 0.339544 0.150001
v -0.052521 0.339544 0.150001
v -0.194909 0.150667 0.150001
v -0.399400 0.009371 0.150002
v -0.349400 -0.040629 0.150001
v -0.555520 -0.110952 0.150001
v -0.530520 -0.185952 0.150001
v -0.723743 -0.233695 0.150001
v -0.723743 -0.333695 0.150001
v -0.723743 -0.233694 -0.219999
v -0.783743 -0.370000 -0.219999
v -0.783743 -0.270000 -0.219999
v -0.723743 -0.333695 -0.219999
v -0.530521 -0.185951 -0.219999
v -0.555521 -0.110951 -0.219999
v -0.349401 -0.040629 -0.219999
v -0.399400 0.009371 -0.219998
v -0.194910 0.150668 -0.219999
v -0.269910 0.175668 -0.219999
v -0.052521 0.339544 -0.219999
v -0.152521 0.339544 -0.219999
v -0.025898 0.399544 -0.219999
v -0.125898 0.399544 -0.219999
v -0.783743 -0.370000 -0.159999
v -0.783743 -0.370000 -0.219999
v -0.723743 -0.333695 -0.219999
v -0.723743 -0.333695 -0.159999
v -0.783743 -0.370000 0.150001
v -0.530521 -0.185951 -0.159999
v -0.530521 -0.185951 -0.219999
v -0.349400 -0.040629 -0.159999
v -0.349401 -0.040629 -0.219999
v -0.194910 0.150668 -0.159999
v -0.194910 0.150668 -0.219999
v -0.723743 -0.333695 0.150001
v -0.052521 0.339544 -0.159999
v -0.783743 -0.370000 0.210001
v -0.723743 -0.333695 0.210001
v -0.530520 -0.185952 0.210001
v -0.530520 -0.185952 0.150001
v -0.349400 -0.040629 0.210001
v -0.349400 -0.040629 0.150001
v -0.194909 0.150667 0.210001
v -0.194909 0.150667 0.150001
v -0.052521 0.339544 0.210001
v -0.052521 0.339544 0.150001
v -0.025897 0.399544 0.210001
v -0.025897 0.399544 0.150001
v -0.025897 0.399544 -0.159999
v -0.052521 0.339544 -0.219999
v -0.025898 0.399544 -0.219999
v -0.194910 0.150668 -0.159999
v -0.052521 0.339544 -0.159999
v -0.152521 0.339544 -0.159999
v -0.269910 0.175668 -0.159999
v -0.349400 -0.040629 -0.159999
v -0.399400 0.009371 -0.159998
v -0.530521 -0.185951 -0.159999
v -0.555521 -0.110951 -0.159999
v -0.723743 -0.333695 -0.159999
v -0.723743 -0.233695 -0.159999
v -0.125897 0.399544 0.150001
v -0.125897 0.399544 0.210001
v -0.025897 0.399544 0.210001
v -0.025897 0.399544 0.150001
v -0.025897 0.399544 -0.159999
v -0.125897 0.399544 -0.159999
v -0.125898 0.399544 -0.219999
v -0.025898 0.399544 -0.219999
v -0.152521 0.339544 -0.159999
v -0.052521 0.339544 -0.159999
v -0.052521 0.339544 0.150001
v -0.152521 0.339544 0.150001
v -0.026051 0.400000 0.210001
v -0.026051 0.400000 0.150001
v -0.126051 0.400000 0.150001
v -0.126051 0.400000 0.210001
v -0.026052 0.400000 -0.159999
v -0.026052 0.400000 -0.219999
v -0.126052 0.400000 -0.219999
v -0.126052 0.400000 -0.159999
v 0.026257 0.200000 -0.160000
v 0.026257 0.200000 -0.300000
v -0.183580 0.200000 -0.299999
v -0.203580 0.200000 -0.159999
v 0.026257 0.200000 -0.300000
v 0.026257 -0.200000 -0.300000
v -0.183580 -0.200000 -0.300000
v -0.183580 0.200000 -0.299999
v 0.026257 -0.200000 -0.300000
v 0.026257 -0.200000 -0.160000
v -0.203580 -0.200000 -0.160000
v -0.183580 -0.200000 -0.300000
v 0.026257 -0.200000 -0.160000
v 0.026257 0.200000 -0.160000
v -0.203580 0.200000 -0.159999
v -0.203580 -0.200000 -0.160000
v 0.026257 0.200000 -0.300000
v 0.026257 0.200000 -0.160000
v 0.026257 -0.200000 -0.160000
v 0.026257 -0.200000 -0.300000
v -0.183580 -0.200000 -0.300000
v -0.203580 -0.200000 -0.160000
v -0.203580 0.200000 -0.159999
v -0.183580 0.200000 -0.299999
vt 0.86137557 0.254128873
vt 0.86137557 0.254128873
vt 0.86137557 0.254128873
vt 0.86137557 0.254128873
vt 0.86137557 0.254128873
vt 0.86137557 0.254128873
vt 0.86137557 0.254128873
vt 0.86137557 0.254128873
vt 0.86137557 0.254128873
vt 0.86137557 0.254128873
vt 0.86137557 0.254128873
vt 0.86137557 0.254128873
vt 0.86137557 0.254128873
vt 0.86137557 0.254128873
vt 0.86137557 0.254128873
vt 0.86137557 0.254128873
vt 0.86137557 0.254128873
vt 0.86137557 0.254128873
vt 0.86137557 0.254128873
vt 0.86137557 0.254128873
vt 0.86137557 0.254128873
vt 0.86137557 0.254128873
vt 0.86137557 0.254128873
vt 0.86137557 0.254128873
vt 0.86137557 0.254128873
vt 0.86137557 0.254128873
vt 0.86137557 0.254128873
vt 0.86137557 0.254128873
vt 0.86137557 0.254128873
vt 0.86137557 0.254128873
vt 0.86137557 0.254128873
vt 0.86137557 0.254128873
vt 0.86137557 0.254128873
vt 0.86137557 0.254128873
vt 0.86137557 0.254128873
vt 0.86137557 0.254128873
vt 0.86137557 0.254128873
vt 0.86137557 0.254128873
vt 0.86137557 0.254128873
vt 0.86137557 0.254128873
vt 0.86137557 0.254128873
vt 0.86137557 0.254128873
vt 0.86137557 0.254128873
vt 0.86137557 0.254128873
vt 0.86137557 0.254128873
vt 0.86137557 0.254128873
vt 0.86137557 0.254128873
vt 0.86137557 0.254128873
vt 0.86137557 0.254128873
vt 0.86137557 0.254128873
vt 0.86137557 0.254128873
vt 0.86137557 0.254128873
vt 0.86137557 0.254128873
vt 0.86137557 0.254128873
vt 0.86137557 0.254128873
vt 0.86137557 0.254128873
vt 0.86137557 0.254128873
vt 0.86137557 0.254128873
vt 0.86137557 0.254128873
vt 0.86137557 0.254128873
vt 0.86137557 0.254128873
vt 0.86137557 0.254128873
vt 0.86137557 0.254128873
vt 0.86137557 0.254128873
vt 0.86137557 0.254128873
vt 0.86137557 0.254128873
vt 0.86137557 0.254128873
vt 0.86137557 0.254128873
vt 0.86137557 0.254128873
vt 0.86137557 0.254128873
vt 0.86137557 0.254128873
vt 0.86137557 0.254128873
vt 0.86137557 0.254128873
vt 0.86137557 0.254128873
vt 0.86137557 0.254128873
vt 0.86137557 0.254128873
vt 0.86137557 0.254128873
vt 0.86137557 0.254128873
vt 0.86137557 0.254128873
vt 0.86137557 0.254128873
vt 0.86137557 0.254128873
vt 0.86137557 0.254128873
vt 0.86137557 0.254128873
vt 0.86137557 0.254128873
vt 0.86137557 0.254128873
vt 0.86137557 0.254128873
vt 0.86137557 0.254128873
vt 0.86137557 0.254128873
vt 0.86137557 0.254128873
vt 0.86137557 0.254128873
vt 0.86137557 0.254128873
vt 0.86137557 0.254128873
vt 0.86137557 0.254128873
vt 0.86137557 0.254128873
vt 0.86137557 0.254128873
vt 0.86137557 0.254128873
vt 0.86137557 0.254128873
vt 0.86137557 0.254128873
vt 0.86137557 0.254128873
vt 0.86137557 0.254128873
vt 0.86137557 0.254128873
vt 0.86137557 0.254128873
vt 0.86137557 0.254128873
vt 0.86137557 0.254128873
vt 0.86137557 0.254128873
vt 0.86137557 0.254128873
vt 0.86137557 0.254128873
vt 0.86137557 0.254128873
vt 0.86137557 0.254128873
vt 0.86137557 0.254128873
vt 0.86137557 0.254128873
vt 0.86137557 0.254128873
vt 0.86137557 0.254128873
vt 0.86137557 0.254128873
vt 0.86137557 0.254128873
vt 0.86137557 0.254128873
vt 0.86137557 0.254128873
vt 0.86137557 0.254128873
vt 0.86137557 0.254128873
vt 0.86137557 0.254128873
vt 0.86137557 0.254128873
vt 0.86137557 0.254128873
vt 0.86137557 0.254128873
vt 0.86137557 0.254128873
vt 0.86137557 0.254128873
vt 0.86137557 0.254128873
vt 0.86137557 0.254128873
vt 0.86137557 0.254128873
vt 0.86137557 0.254128873
vt 0.86137557 0.254128873
vt 0.86137557 0.254128873
vt 0.86137557 0.254128873
vt 0.86137557 0.254128873
vt 0.86137557 0.254128873
vt 0.86137557 0.254128873
vt 0.86137557 0.254128873
vt 0.86137557 0.254128873
vt 0.86137557 0.254128873
vt 0.86137557 0.254128873
vt 0.86137557 0.254128873
vt 0.86137557 0.254128873
vt 0.86137557 0.254128873
vt 0.86137557 0.254128873
vt 0.86137557 0.254128873
vt 0.86137557 0.254128873
vt 0.86137557 0.254128873
vt 0.86137557 0.254128873
vt 0.86137557 0.254128873
vt 0.86137557 0.254128873
vt 0.86137557 0.254128873
vt 0.86137557 0.254128873
vt 0.86137557 0.254128873
vt 0.86137557 0.254128873
vt 0.86137557 0.254128873
vt 0.86137557 0.254128873
vt 0.86137557 0.254128873
vt 0.86137557 0.254128873
vt 0.86137557 0.254128873
vt 0.86137557 0.254128873
vt 0.86137557 0.254128873
vt 0.86137557 0.254128873
vt 0.86137557 0.254128873
vt 0.86137557 0.254128873
vt 0.86137557 0.254128873
vt 0.86137557 0.254128873
vt 0.86137557 0.254128873
vt 0.86137557 0.254128873
vt 0.86137557 0.254128873
vt 0.86137557 0.254128873
vt 0.86137557 0.254128873
vt 0.86137557 0.254128873
vt 0.86137557 0.254128873
vt 0.86137557 0.254128873
vt 0.86137557 0.254128873
vt 0.86137557 0.254128873
vt 0.86137557 0.254128873
vt 0.86137557 0.254128873
vt 0.86137557 0.254128873
vt 0.86137557 0.254128873
vt 0.86137557 0.254128873
vt 0.86137557 0.254128873
vt 0.86137557 0.254128873
vt 0.86137557 0.254128873
vt 0.86137557 0.254128873
vt 0.86137557 0.254128873
vt 0.86137557 0.254128873
vt 0.86137557 0.254128873
vt 0.86137557 0.254128873
vt 0.86137557 0.254128873
vt 0.86137557 0.254128873
vt 0.86137557 0.254128873
vt 0.86137557 0.254128873
vt 0.86137557 0.254128873
vt 0.86137557 0.254128873
vt 0.86137557 0.254128873
vt 0.86137557 0.254128873
vt 0.86137557 0.254128873
vt 0.86137557 0.254128873
vt 0.86137557 0.254128873
vt 0.86137557 0.254128873
vt 0.86137557 0.254128873
vt 0.86137557 0.254128873
vt 0.86137557 0.254128873
vt 0.86137557 0.254128873
vt 0.86137557 0.254128873
vt 0.86137557 0.254128873
vt 0.86137557 0.254128873
vt 0.86137557 0.254128873
vt 0.86137557 0.254128873
vt 0.86137557 0.254128873
vt 0.86137557 0.254128873
vt 0.86137557 0.254128873
vt 0.86137557 0.254128873
vt 0.86137557 0.254128873
vt 0.86137557 0.254128873
vt 0.86137557 0.254128873
vt 0.86137557 0.254128873
vt 0.86137557 0.254128873
vt 0.86137557 0.254128873
vt 0.86137557 0.254128873
vt 0.86137557 0.254128873
vt 0.86137557 0.254128873
vt 0.86137557 0.254128873
vt 0.86137557 0.254128873
vt 0.86137557 0.254128873
vt 0.86137557 0.254128873
vt 0.86137557 0.254128873
vt 0.86137557 0.254128873
vt 0.86137557 0.254128873
vt 0.86137557 0.254128873
vt 0.86137557 0.254128873
vt 0.86137557 0.254128873
vt 0.86137557 0.254128873
vt 0.86137557 0.254128873
vt 0.86137557 0.254128873
vt 0.86137557 0.254128873
vt 0.86137557 0.254128873
vt 0.86137557 0.254128873
vt 0.86137557 0.254128873
vt 0.86137557 0.254128873
vt 0.86137557 0.254128873
vt 0.86137557 0.254128873
vt 0.86137557 0.254128873
vt 0.86137557 0.254128873
vt 0.86137557 0.254128873
vt 0.86137557 0.254128873
vt 0.86137557 0.254128873
vt 0.86137557 0.254128873
vt 0.86137557 0.254128873
vt 0.86137557 0.254128873
vt 0.86137557 0.254128873
vt 0.86137557 0.254128873
vt 0.86137557 0.254128873
vt 0.86137557 0.254128873
vt 0.86137557 0.254128873
vt 0.86137557 0.254128873
vt 0.86137557 0.254128873
vt 0.86137557 0.254128873
vt 0.86137557 0.254128873
vt 0.86137557 0.254128873
vt 0.86137557 0.254128873
vt 0.86137557 0.254128873
vt 0.86137557 0.254128873
vt 0.86137557 0.254128873
vt 0.86137557 0.254128873
vt 0.86137557 0.254128873
vt 0.86137557 0.254128873
vt 0.86137557 0.254128873
vt 0.86137557 0.254128873
vt 0.86137557 0.254128873
vt 0.86137557 0.254128873
vt 0.86137557 0.254128873
vt 0.86137557 0.254128873
vt 0.86137557 0.254128873
vt 0.86137557 0.254128873
vt 0.86137557 0.254128873
vt 0.86137557 0.254128873
vt 0.86137557 0.254128873
vt 0.86137557 0.254128873
vt 0.86137557 0.254128873
vt 0.86137557 0.254128873
vt 0.86137557 0.254128873
vt 0.86137557 0.254128873
vt 0.86137557 0.254128873
vt 0.86137557 0.254128873
vt 0.86137557 0.254128873
vt 0.86137557 0.254128873
vt 0.86137557 0.254128873
vt 0.86137557 0.254128873
vt 0.86137557 0.254128873
vt 0.86137557 0.254128873
vt 0.86137557 0.254128873
vt 0.86137557 0.254128873
vt 0.86137557 0.254128873
vt 0.86137557 0.254128873
vt 0.86137557 0.254128873
vt 0.86137557 0.254128873
vt 0.86137557 0.254128873
vt 0.86137557 0.254128873
vt 0.86137557 0.254128873
vt 0.86137557 0.254128873
vt 0.86137557 0.254128873
vt 0.86137557 0.254128873
vt 0.86137557 0.254128873
vt 0.86137557 0.254128873
vt 0.86137557 0.254128873
vt 0.86137557 0.254128873
vt 0.86137557 0.254128873
vt 0.86137557 0.254128873
vt 0.86137557 0.254128873
vt 0.86137557 0.254128873
vt 0.86137557 0.254128873
vt 0.86137557 0.254128873
vt 0.86137557 0.254128873
vt 0.86137557 0.254128873
vt 0.86137557 0.254128873
vt 0.86137557 0.254128873
vt 0.86137557 0.254128873
vt 0.86137557 0.254128873
vt 0.86137557 0.254128873
vt 0.86137557 0.254128873
vt 0.86137557 0.254128873
vt 0.86137557 0.254128873
vt 0.86137557 0.254128873
vt 0.86137557 0.254128873
vt 0.86137557 0.254128873
vt 0.86137557 0.254128873
vt 0.86137557 0.254128873
vt 0.620750546 0.213503942
vt 0.620750546 0.213503942
vt 0.620750546 0.213503942
vt 0.620750546 0.213503942
vt 0.620750546 0.213503942
vt 0.620750546 0.213503942
vt 0.620750546 0.213503942
vt 0.620750546 0.213503942
vt 0.620750546 0.213503942
vt 0.620750546 0.213503942
vt 0.620750546 0.213503942
vt 0.620750546 0.213503942
vt 0.620750546 0.213503942
vt 0.620750546 0.213503942
vt 0.620750546 0.213503942
vt 0.620750546 0.213503942
vt 0.620750546 0.213503942
vt 0.620750546 0.213503942
vt 0.620750546 0.213503942
vt 0.620750546 0.213503942
vt 0.620750546 0.213503942
vt 0.620750546 0.213503942
vt 0.620750546 0.213503942
vt 0.620750546 0.213503942
vn -1.000000 -0.000000 0.000002
vn -1.000000 -0.000000 0.000002
vn -1.000000 -0.000000 0.000002
vn -1.000000 -0.000000 0.000002
vn -1.000000 -0.000000 0.000002
vn -1.000000 -0.000000 0.000002
vn -1.000000 -0.000000 0.000002
vn -1.000000 -0.000000 0.000002
vn -0.517692 -0.855567 -0.000000
vn -0.517692 -0.855567 -0.000000
vn -0.554074 -0.832467 -0.000000
vn -0.542051 -0.840345 -0.000000
vn -0.517692 -0.855567 -0.000000
vn -0.599987 -0.800010 -0.000000
vn -0.599987 -0.800010 -0.000000
vn -0.705344 -0.708865 0.000000
vn -0.705344 -0.708865 0.000000
vn -0.801140 -0.598477 0.000000
vn -0.801140 -0.598477 0.000000
vn -0.542051 -0.840345 -0.000000
vn -0.884436 -0.466662 0.000001
vn -0.517692 -0.855567 -0.000000
vn -0.554074 -0.832467 -0.000000
vn -0.599987 -0.800010 -0.000000
vn -0.599987 -0.800010 -0.000000
vn -0.705344 -0.708865 0.000000
vn -0.705344 -0.708865 0.000000
vn -0.801140 -0.598477 0.000000
vn -0.801140 -0.598477 0.000000
vn -0.868011 -0.496544 0.000001
vn -0.884436 -0.466662 0.000001
vn -0.914054 -0.405593 0.000001
vn -0.914054 -0.405593 0.000001
vn -0.914054 -0.405593 0.000001
vn -0.868011 -0.496544 0.000001
vn -0.914054 -0.405593 0.000001
vn 1.000000 0.000000 -0.000002
vn 1.000000 0.000000 -0.000002
vn 1.000000 0.000000 -0.000002
vn 1.000000 0.000000 -0.000002
vn -0.000002 0.000001 -1.000000
vn -0.000002 0.000001 -1.000000
vn -0.000002 0.000001 -1.000000
vn -0.000002 0.000001 -1.000000
vn -0.000002 0.000001 -1.000000
vn -0.000002 0.000001 -1.000000
vn -0.000002 0.000001 -1.000000
vn -0.000002 0.000001 -1.000000
vn -0.000002 0.000001 -1.000000
vn -0.000002 0.000001 -1.000000
vn -0.000002 0.000001 -1.000000
vn -0.000002 0.000001 -1.000000
vn -0.000002 0.000001 -1.000000
vn -0.000002 0.000001 -1.000000
vn 0.000002 -0.000001 1.000000
vn 0.000002 -0.000001 1.000000
vn 0.000002 -0.000001 1.000000
vn 0.000002 -0.000001 1.000000
vn 0.000002 -0.000001 1.000000
vn 0.000002 -0.000001 1.000000
vn 0.000002 -0.000001 1.000000
vn 0.000002 -0.000001 1.000000
vn 0.000002 -0.000001 1.000000
vn 0.000002 -0.000001 1.000000
vn 0.000002 -0.000001 1.000000
vn 0.000002 -0.000001 1.000000
vn 0.000002 -0.000001 1.000000
vn 0.000002 -0.000001 1.000000
vn 0.000002 -0.000001 1.000000
vn 0.000002 -0.000001 1.000000
vn 0.000002 -0.000001 1.000000
vn 0.000002 -0.000001 1.000000
vn 0.000002 -0.000001 1.000000
vn 0.000002 -0.000001 1.000000
vn 0.000002 -0.000001 1.000000
vn 0.000002 -0.000001 1.000000
vn 0.000002 -0.000001 1.000000
vn 0.000002 -0.000001 1.000000
vn 0.517692 0.855567 0.000000
vn 0.517692 0.855567 0.000000
vn 0.563383 0.826196 0.000000
vn 0.548318 0.836270 0.000000
vn 0.517692 0.855567 0.000000
vn 0.616655 0.787234 0.000000
vn 0.616655 0.787234 0.000000
vn 0.705981 0.708230 -0.000000
vn 0.705981 0.708230 -0.000000
vn 0.788355 0.615220 -0.000000
vn 0.788355 0.615220 -0.000000
vn 0.548318 0.836270 0.000000
vn 0.880635 0.473795 -0.000001
vn 0.517692 0.855567 0.000000
vn 0.563383 0.826196 0.000000
vn 0.616655 0.787234 0.000000
vn 0.616655 0.787234 0.000000
vn 0.705981 0.708230 -0.000000
vn 0.705981 0.708230 -0.000000
vn 0.788355 0.615220 -0.000000
vn 0.788355 0.615220 -0.000000
vn 0.861895 0.507087 -0.000001
vn 0.880635 0.473795 -0.000001
vn 0.914054 0.405593 -0.000001
vn 0.914054 0.405593 -0.000001
vn 0.914054 0.405593 -0.000001
vn 0.861895 0.507086 -0.000001
vn 0.914054 0.405593 -0.000001
vn -0.000002 0.000001 -1.000000
vn -0.000002 0.000001 -1.000000
vn -0.000002 0.000001 -1.000000
vn -0.000002 0.000001 -1.000000
vn -0.000002 0.000001 -1.000000
vn -0.000002 0.000001 -1.000000
vn -0.000002 0.000001 -1.000000
vn -0.000002 0.000001 -1.000000
vn -0.000002 0.000001 -1.000000
vn -0.000002 0.000001 -1.000000
vn -0.000000 -1.000000 -0.000001
vn -0.000000 -1.000000 -0.000001
vn -0.000000 -1.000000 -0.000001
vn -0.000000 -1.000000 -0.000001
vn -0.000000 -1.000000 -0.000001
vn -0.000000 -1.000000 -0.000001
vn -0.000000 -1.000000 -0.000001
vn -0.000000 -1.000000 -0.000001
vn 0.000000 1.000000 0.000001
vn 0.000000 1.000000 0.000001
vn 0.000000 1.000000 0.000001
vn 0.000000 1.000000 0.000001
vn -0.000000 -1.000000 -0.000001
vn -0.000000 -1.000000 -0.000001
vn -0.000000 -1.000000 -0.000001
vn -0.000000 -1.000000 -0.000001
vn 0.000000 1.000000 0.000001
vn 0.000000 1.000000 0.000001
vn 0.000000 1.000000 0.000001
vn 0.000000 1.000000 0.000001
vn 0.000000 1.000000 0.000001
vn 0.000000 1.000000 0.000001
vn 0.000000 1.000000 0.000001
vn 0.000000 1.000000 0.000001
vn -0.000002 0.000001 -1.000000
vn -0.000002 0.000001 -1.000000
vn -0.000002 0.000001 -1.000000
vn -0.000002 0.000001 -1.000000
vn -0.000002 0.000001 -1.000000
vn -0.000002 0.000001 -1.000000
vn -1.000000 -0.000000 0.000002
vn -1.000000 -0.000000 0.000002
vn -1.000000 -0.000000 0.000002
vn -1.000000 -0.000000 0.000002
vn -1.000000 -0.000000 0.000002
vn -1.000000 -0.000000 0.000002
vn -1.000000 -0.000000 0.000002
vn -1.000000 -0.000000 0.000002
vn -1.000000 -0.000000 0.000002
vn -1.000000 -0.000000 0.000002
vn -1.000000 -0.000000 0.000002
vn -1.000000 -0.000000 0.000002
vn -0.000000 -1.000000 -0.000001
vn -0.000000 -1.000000 -0.000001
vn -0.000000 -1.000000 -0.000001
vn -0.000000 -1.000000 -0.000001
vn 0.000002 -0.000001 1.000000
vn 0.000002 -0.000001 1.000000
vn 0.000002 -0.000001 1.000000
vn 0.000002 -0.000001 1.000000
vn 0.000002 -0.000001 1.000000
vn 0.000002 -0.000001 1.000000
vn -0.000002 0.000001 -1.000000
vn -0.000002 0.000001 -1.000000
vn -0.000002 0.000001 -1.000000
vn -0.000002 0.000001 -1.000000
vn 1.000000 0.000000 -0.000002
vn 1.000000 0.000000 -0.000002
vn 1.000000 0.000000 -0.000002
vn 1.000000 0.000000 -0.000002
vn 1.000000 0.000000 -0.000002
vn 1.000000 0.000000 -0.000002
vn 1.000000 0.000000 -0.000002
vn 1.000000 0.000000 -0.000002
vn 1.000000 0.000000 -0.000002
vn 1.000000 0.000000 -0.000002
vn 1.000000 0.000000 -0.000002
vn 1.000000 0.000000 -0.000002
vn 0.000002 -0.000001 1.000000
vn 0.000002 -0.000001 1.000000
vn 0.000002 -0.000001 1.000000
vn 0.000002 -0.000001 1.000000
vn -0.000000 -1.000000 -0.000001
vn -0.000000 -1.000000 -0.000001
vn -0.000000 -1.000000 -0.000001
vn -0.000000 -1.000000 -0.000001
vn -1.000000 -0.000000 0.000002
vn -1.000000 -0.000000 0.000002
vn -1.000000 -0.000000 0.000002
vn -1.000000 -0.000000 0.000002
vn -1.000000 -0.000000 0.000002
vn -1.000000 -0.000000 0.000002
vn -1.000000 -0.000000 0.000002
vn -1.000000 -0.000000 0.000002
vn -0.517692 0.855567 0.000002
vn -0.517692 0.855567 0.000002
vn -0.554074 0.832468 0.000002
vn -0.542051 0.840346 0.000002
vn -0.517692 0.855567 0.000002
vn -0.599987 0.800010 0.000002
vn -0.599987 0.800010 0.000002
vn -0.705344 0.708865 0.000002
vn -0.705344 0.708865 0.000002
vn -0.801140 0.598477 0.000002
vn -0.801140 0.598477 0.000002
vn -0.542051 0.840346 0.000002
vn -0.884436 0.466662 0.000002
vn -0.517692 0.855567 0.000002
vn -0.554074 0.832468 0.000002
vn -0.599987 0.800010 0.000002
vn -0.599987 0.800010 0.000002
vn -0.705344 0.708865 0.000002
vn -0.705344 0.708865 0.000002
vn -0.801140 0.598477 0.000002
vn -0.801140 0.598477 0.000002
vn -0.868011 0.496544 0.000002
vn -0.884436 0.466662 0.000002
vn -0.914054 0.405593 0.000002
vn -0.914054 0.405593 0.000002
vn -0.914054 0.405593 0.000002
vn -0.868011 0.496544 0.000002
vn -0.914054 0.405593 0.000002
vn 1.000000 0.000000 -0.000002
vn 1.000000 0.000000 -0.000002
vn 1.000000 0.000000 -0.000002
vn 1.000000 0.000000 -0.000002
vn 0.000002 -0.000001 1.000000
vn 0.000002 -0.000001 1.000000
vn 0.000002 -0.000001 1.000000
vn 0.000002 -0.000001 1.000000
vn 0.000002 -0.000001 1.000000
vn 0.000002 -0.000001 1.000000
vn 0.000002 -0.000001 1.000000
vn 0.000002 -0.000001 1.000000
vn 0.000002 -0.000001 1.000000
vn 0.000002 -0.000001 1.000000
vn 0.000002 -0.000001 1.000000
vn 0.000002 -0.000001 1.000000
vn 0.000002 -0.000001 1.000000
vn 0.000002 -0.000001 1.000000
vn -0.000002 0.000001 -1.000000
vn -0.000002 0.000001 -1.000000
vn -0.000002 0.000001 -1.000000
vn -0.000002 0.000001 -1.000000
vn -0.000002 0.000001 -1.000000
vn -0.000002 0.000001 -1.000000
vn -0.000002 0.000001 -1.000000
vn -0.000002 0.000001 -1.000000
vn -0.000002 0.000001 -1.000000
vn -0.000002 0.000001 -1.000000
vn -0.000002 0.000001 -1.000000
vn -0.000002 0.000001 -1.000000
vn -0.000002 0.000001 -1.000000
vn -0.000002 0.000001 -1.000000
vn -0.000002 0.000001 -1.000000
vn -0.000002 0.000001 -1.000000
vn -0.000002 0.000001 -1.000000
vn -0.000002 0.000001 -1.000000
vn -0.000002 0.000001 -1.000000
vn -0.000002 0.000001 -1.000000
vn -0.000002 0.000001 -1.000000
vn -0.000002 0.000001 -1.000000
vn -0.000002 0.000001 -1.000000
vn -0.000002 0.000001 -1.000000
vn 0.517692 -0.855567 -0.000002
vn 0.517692 -0.855567 -0.000002
vn 0.563383 -0.826196 -0.000002
vn 0.548317 -0.836270 -0.000002
vn 0.517692 -0.855567 -0.000002
vn 0.616655 -0.787234 -0.000002
vn 0.616655 -0.787234 -0.000002
vn 0.705981 -0.708230 -0.000002
vn 0.705981 -0.708230 -0.000002
vn 0.788355 -0.615220 -0.000002
vn 0.788355 -0.615220 -0.000002
vn 0.548317 -0.836270 -0.000002
vn 0.880635 -0.473795 -0.000002
vn 0.517692 -0.855567 -0.000002
vn 0.563383 -0.826196 -0.000002
vn 0.616655 -0.787234 -0.000002
vn 0.616655 -0.787234 -0.000002
vn 0.705981 -0.708231 -0.000002
vn 0.705981 -0.708231 -0.000002
vn 0.788355 -0.615220 -0.000002
vn 0.788355 -0.615220 -0.000002
vn 0.861895 -0.507087 -0.000002
vn 0.880635 -0.473795 -0.000002
vn 0.914054 -0.405593 -0.000002
vn 0.914054 -0.405593 -0.000002
vn 0.914054 -0.405593 -0.000002
vn 0.861895 -0.507087 -0.000002
vn 0.914054 -0.405593 -0.000002
vn 0.000002 -0.000001 1.000000
vn 0.000002 -0.000001 1.000000
vn 0.000002 -0.000001 1.000000
vn 0.000002 -0.000001 1.000000
vn 0.000002 -0.000001 1.000000
vn 0.000002 -0.000001 1.000000
vn 0.000002 -0.000001 1.000000
vn 0.000002 -0.000001 1.000000
vn 0.000002 -0.000001 1.000000
vn 0.000002 -0.000001 1.000000
vn 0.000000 1.000000 0.000001
vn 0.000000 1.000000 0.000001
vn 0.000000 1.000000 0.000001
vn 0.000000 1.000000 0.000001
vn 0.000000 1.000000 0.000001
vn 0.000000 1.000000 0.000001
vn 0.000000 1.000000 0.000001
vn 0.000000 1.000000 0.000001
vn -0.000000 -1.000000 -0.000001
vn -0.000000 -1.000000 -0.000001
vn -0.000000 -1.000000 -0.000001
vn -0.000000 -1.000000 -0.000001
vn 0.000000 1.000000 0.000001
vn 0.000000 1.000000 0.000001
vn 0.000000 1.000000 0.000001
vn 0.000000 1.000000 0.000001
vn 0.000000 1.000000 0.000001
vn 0.000000 1.000000 0.000001
vn 0.000000 1.000000 0.000001
vn 0.000000 1.000000 0.000001
vn 0.000000 1.000000 0.000001
vn 0.000000 1.000000 0.000001
vn 0.000000 1.000000 0.000001
vn 0.000000 1.000000 0.000001
vn -0.000002 0.000001 -1.000000
vn -0.000002 0.000001 -1.000000
vn -0.000002 0.000001 -1.000000
vn -0.000002 0.000001 -1.000000
vn -0.000000 -1.000000 -0.000001
vn -0.000000 -1.000000 -0.000001
vn -0.000000 -1.000000 -0.000001
vn -0.000000 -1.000000 -0.000001
vn 0.000002 -0.000001 1.000000
vn 0.000002 -0.000001 1.000000
vn 0.000002 -0.000001 1.000000
vn 0.000002 -0.000001 1.000000
vn 1.000000 0.000000 -0.000002
vn 1.000000 0.000000 -0.000002
vn 1.000000 0.000000 -0.000002
vn 1.000000 0.000000 -0.000002
vn -0.989950 0.000000 -0.141420
vn -0.989950 0.000000 -0.141420
vn -0.989950 0.000000 -0.141420
vn -0.989950 0.000000 -0.141420
f 1/1/1 2/2/2 3/3/3
f 1/1/1 3/3/3 4/4/4
f 4/4/4 5/5/5 1/1/1
f 4/4/4 6/6/6 5/5/5
f 6/6/6 7/7/7 5/5/5
f 6/6/6 8/8/8 7/7/7
f 9/9/9 10/10/10 11/11/11
f 9/9/9 11/11/11 12/12/12
f 12/12/12 13/13/13 9/9/9
f 11/11/11 14/14/14 12/12/12
f 11/11/11 15/15/15 14/14/14
f 15/15/15 16/16/16 14/14/14
f 15/15/15 17/17/17 16/16/16
f 17/17/17 18/18/18 16/16/16
f 17/17/17 19/19/19 18/18/18
f 12/12/12 20/20/20 13/13/13
f 19/19/19 21/21/21 18/18/18
f 20/20/20 22/22/22 13/13/13
f 20/20/20 23/23/23 22/22/22
f 20/20/20 24/24/24 23/23/23
f 20/20/20 25/25/25 24/24/24
f 25/25/25 26/26/26 24/24/24
f 25/25/25 27/27/27 26/26/26
f 27/27/27 28/28/28 26/26/26
f 27/27/27 29/29/29 28/28/28
f 29/29/29 30/30/30 28/28/28
f 29/29/29 31/31/31 30/30/30
f 31/31/31 32/32/32 30/30/30
f 31/31/31 33/33/33 32/32/32
f 33/33/33 31/31/31 21/21/21
f 33/33/33 21/21/21 34/34/34
f 35/35/35 34/34/34 21/21/21
f 19/19/19 35/35/35 21/21/21
f 35/35/35 36/36/36 34/34/34
f 37/37/37 38/38/38 39/39/39
f 37/37/37 39/39/39 40/40/40
f 41/41/41 42/42/42 43/43/43
f 41/41/41 44/44/44 42/42/42
f 41/41/41 45/45/45 44/44/44
f 41/41/41 46/46/46 45/45/45
f 46/46/46 47/47/47 45/45/45
f 46/46/46 48/48/48 47/47/47
f 48/48/48 49/49/49 47/47/47
f 48/48/48 50/50/50 49/49/49
f 50/50/50 51/51/51 49/49/49
f 50/50/50 52/52/52 51/51/51
f 52/52/52 53/53/53 51/51/51
f 52/52/52 54/54/54 53/53/53
f 55/55/55 56/56/56 57/57/57
f 55/55/55 57/57/57 58/58/58
f 59/59/59 55/55/55 58/58/58
f 59/59/59 58/58/58 60/60/60
f 61/61/61 59/59/59 60/60/60
f 61/61/61 60/60/60 62/62/62
f 63/63/63 61/61/61 62/62/62
f 63/63/63 62/62/62 64/64/64
f 65/65/65 66/66/66 67/67/67
f 65/65/65 68/68/68 66/66/66
f 65/65/65 69/69/69 68/68/68
f 65/65/65 70/70/70 69/69/69
f 70/70/70 71/71/71 69/69/69
f 70/70/70 72/72/72 71/71/71
f 72/72/72 73/73/73 71/71/71
f 72/72/72 74/74/74 73/73/73
f 74/74/74 75/75/75 73/73/73
f 74/74/74 76/76/76 75/75/75
f 76/76/76 77/77/77 75/75/75
f 76/76/76 78/78/78 77/77/77
f 79/79/79 80/80/80 81/81/81
f 79/79/79 81/81/81 82/82/82
f 82/82/82 83/83/83 79/79/79
f 81/81/81 84/84/84 82/82/82
f 81/81/81 85/85/85 84/84/84
f 85/85/85 86/86/86 84/84/84
f 85/85/85 87/87/87 86/86/86
f 87/87/87 88/88/88 86/86/86
f 87/87/87 89/89/89 88/88/88
f 82/82/82 90/90/90 83/83/83
f 89/89/89 91/91/91 88/88/88
f 90/90/90 92/92/92 83/83/83
f 90/90/90 93/93/93 92/92/92
f 90/90/90 94/94/94 93/93/93
f 90/90/90 95/95/95 94/94/94
f 95/95/95 96/96/96 94/94/94
f 95/95/95 97/97/97 96/96/96
f 97/97/97 98/98/98 96/96/96
f 97/97/97 99/99/99 98/98/98
f 99/99/99 100/100/100 98/98/98
f 99/99/99 101/101/101 100/100/100
f 101/101/101 102/102/102 100/100/100
f 101/101/101 103/103/103 102/102/102
f 91/91/91 103/103/103 101/101/101
f 91/91/91 104/104/104 103/103/103
f 105/105/105 104/104/104 91/91/91
f 89/89/89 105/105/105 91/91/91
f 105/105/105 106/106/106 104/104/104
f 107/107/107 108/108/108 109/109/109
f 107/107/107 109/109/109 110/110/110
f 111/111/111 107/107/107 110/110/110
f 111/111/111 110/110/110 112/112/112
f 113/113/113 111/111/111 112/112/112
f 113/113/113 112/112/112 114/114/114
f 115/115/115 113/113/113 114/114/114
f 115/115/115 114/114/114 116/116/116
f 117/117/117 118/118/118 119/119/119
f 117/117/117 119/119/119 120/120/120
f 121/121/121 117/117/117 120/120/120
f 121/121/121 122/122/122 117/117/117
f 121/121/121 123/123/123 122/122/122
f 121/121/121 124/124/124 123/123/123
f 125/125/125 126/126/126 127/127/127
f 125/125/125 127/127/127 128/128/128
f 129/129/129 130/130/130 131/131/131
f 129/129/129 131/131/131 132/132/132
f 133/133/133 134/134/134 135/135/135
f 133/133/133 135/135/135 136/136/136
f 133/133/133 136/136/136 137/137/137
f 133/133/133 137/137/137 138/138/138
f 139/139/139 138/138/138 137/137/137
f 139/139/139 137/137/137 140/140/140
f 141/141/141 142/142/142 143/143/143
f 141/141/141 143/143/143 144/144/144
f 145/145/145 141/141/141 144/144/144
f 145/145/145 144/144/144 146/146/146
f 147/147/147 148/148/148 149/149/149
f 147/147/147 150/150/150 148/148/148
f 151/151/151 150/150/150 147/147/147
f 151/151/151 152/152/152 150/150/150
f 151/151/151 147/147/147 153/153/153
f 151/151/151 153/153/153 154/154/154
f 155/155/155 154/154/154 153/153/153
f 155/155/155 153/153/153 156/156/156
f 156/156/156 153/153/153 157/157/157
f 156/156/156 157/157/157 158/158/158
f 159/159/159 160/160/160 161/161/161
f 159/159/159 161/161/161 162/162/162
f 163/163/163 164/164/164 165/165/165
f 163/163/163 165/165/165 166/166/166
f 167/167/167 163/163/163 166/166/166
f 167/167/167 166/166/166 168/168/168
f 169/169/169 170/170/170 171/171/171
f 169/169/169 171/171/171 172/172/172
f 173/173/173 174/174/174 175/175/175
f 173/173/173 176/176/176 174/174/174
f 177/177/177 176/176/176 173/173/173
f 177/177/177 178/178/178 176/176/176
f 179/179/179 174/174/174 176/176/176
f 179/179/179 180/180/180 174/174/174
f 179/179/179 181/181/181 180/180/180
f 179/179/179 182/182/182 181/181/181
f 183/183/183 182/182/182 179/179/179
f 183/183/183 184/184/184 182/182/182
f 185/185/185 186/186/186 187/187/187
f 185/185/185 187/187/187 188/188/188
f 189/189/189 190/190/190 191/191/191
f 189/189/189 191/191/191 192/192/192
f 193/193/193 194/194/194 195/195/195
f 193/193/193 195/195/195 196/196/196
f 196/196/196 197/197/197 193/193/193
f 196/196/196 198/198/198 197/197/197
f 198/198/198 199/199/199 197/197/197
f 198/198/198 200/200/200 199/199/199
f 201/201/201 202/202/202 203/203/203
f 201/201/201 203/203/203 204/204/204
f 204/204/204 205/205/205 201/201/201
f 203/203/203 206/206/206 204/204/204
f 203/203/203 207/207/207 206/206/206
f 207/207/207 208/208/208 206/206/206
f 207/207/207 209/209/209 208/208/208
f 209/209/209 210/210/210 208/208/208
f 209/209/209 211/211/211 210/210/210
f 204/204/204 212/212/212 205/205/205
f 211/211/211 213/213/213 210/210/210
f 212/212/212 214/214/214 205/205/205
f 212/212/212 215/215/215 214/214/214
f 212/212/212 216/216/216 215/215/215
f 212/212/212 217/217/217 216/216/216
f 217/217/217 218/218/218 216/216/216
f 217/217/217 219/219/219 218/218/218
f 219/219/219 220/220/220 218/218/218
f 219/219/219 221/221/221 220/220/220
f 221/221/221 222/222/222 220/220/220
f 221/221/221 223/223/223 222/222/222
f 223/223/223 224/224/224 222/222/222
f 223/223/223 225/225/225 224/224/224
f 225/225/225 223/223/223 213/213/213
f 225/225/225 213/213/213 226/226/226
f 227/227/227 226/226/226 213/213/213
f 211/211/211 227/227/227 213/213/213
f 227/227/227 228/228/228 226/226/226
f 229/229/229 230/230/230 231/231/231
f 229/229/229 231/231/231 232/232/232
f 233/233/233 234/234/234 235/235/235
f 233/233/233 236/236/236 234/234/234
f 233/233/233 237/237/237 236/236/236
f 233/233/233 238/238/238 237/237/237
f 238/238/238 239/239/239 237/237/237
f 238/238/238 240/240/240 239/239/239
f 240/240/240 241/241/241 239/239/239
f 240/240/240 242/242/242 241/241/241
f 242/242/242 243/243/243 241/241/241
f 242/242/242 244/244/244 243/243/243
f 244/244/244 245/245/245 243/243/243
f 244/244/244 246/246/246 245/245/245
f 247/247/247 248/248/248 249/249/249
f 247/247/247 249/249/249 250/250/250
f 251/251/251 247/247/247 250/250/250
f 251/251/251 250/250/250 252/252/252
f 253/253/253 251/251/251 252/252/252
f 253/253/253 252/252/252 254/254/254
f 255/255/255 253/253/253 254/254/254
f 255/255/255 254/254/254 256/256/256
f 257/257/257 258/258/258 259/259/259
f 257/257/257 260/260/260 258/258/258
f 257/257/257 261/261/261 260/260/260
f 257/257/257 262/262/262 261/261/261
f 262/262/262 263/263/263 261/261/261
f 262/262/262 264/264/264 263/263/263
f 264/264/264 265/265/265 263/263/263
f 264/264/264 266/266/266 265/265/265
f 266/266/266 267/267/267 265/265/265
f 266/266/266 268/268/268 267/267/267
f 268/268/268 269/269/269 267/267/267
f 268/268/268 270/270/270 269/269/269
f 271/271/271 272/272/272 273/273/273
f 271/271/271 273/273/273 274/274/274
f 274/274/274 275/275/275 271/271/271
f 273/273/273 276/276/276 274/274/274
f 273/273/273 277/277/277 276/276/276
f 277/277/277 278/278/278 276/276/276
f 277/277/277 279/279/279 278/278/278
f 279/279/279 280/280/280 278/278/278
f 279/279/279 281/281/281 280/280/280
f 274/274/274 282/282/282 275/275/275
f 281/281/281 283/283/283 280/280/280
f 282/282/282 284/284/284 275/275/275
f 282/282/282 285/285/285 284/284/284
f 282/282/282 286/286/286 285/285/285
f 282/282/282 287/287/287 286/286/286
f 287/287/287 288/288/288 286/286/286
f 287/287/287 289/289/289 288/288/288
f 289/289/289 290/290/290 288/288/288
f 289/289/289 291/291/291 290/290/290
f 291/291/291 292/292/292 290/290/290
f 291/291/291 293/293/293 292/292/292
f 293/293/293 294/294/294 292/292/292
f 293/293/293 295/295/295 294/294/294
f 283/283/283 295/295/295 293/293/293
f 283/283/283 296/296/296 295/295/295
f 297/297/297 296/296/296 283/283/283
f 281/281/281 297/297/297 283/283/283
f 297/297/297 298/298/298 296/296/296
f 299/299/299 300/300/300 301/301/301
f 299/299/299 301/301/301 302/302/302
f 303/303/303 299/299/299 302/302/302
f 303/303/303 302/302/302 304/304/304
f 305/305/305 303/303/303 304/304/304
f 305/305/305 304/304/304 306/306/306
f 307/307/307 305/305/305 306/306/306
f 307/307/307 306/306/306 308/308/308
f 309/309/309 310/310/310 311/311/311
f 309/309/309 311/311/311 312/312/312
f 313/313/313 309/309/309 312/312/312
f 313/313/313 314/314/314 309/309/309
f 313/313/313 315/315/315 314/314/314
f 313/313/313 316/316/316 315/315/315
f 317/317/317 318/318/318 319/319/319
f 317/317/317 319/319/319 320/320/320
f 321/321/321 322/322/322 323/323/323
f 321/321/321 323/323/323 324/324/324
f 325/325/325 326/326/326 327/327/327
f 325/325/325 327/327/327 328/328/328
f 329/329/329 330/330/330 331/331/331
f 329/329/329 331/331/331 332/332/332
f 333/333/333 334/334/334 335/335/335
f 333/333/333 335/335/335 336/336/336
f 337/337/337 338/338/338 339/339/339
f 337/337/337 339/339/339 340/340/340
f 341/341/341 342/342/342 343/343/343
f 341/341/341 343/343/343 344/344/344
f 345/345/345 346/346/346 347/347/347
f 345/345/345 347/347/347 348/348/348
f 349/349/349 350/350/350 351/351/351
f 349/349/349 351/351/351 352/352/352
