# belgiumacid_visor_mask (gear rip -> Godot: Z negated + winding reversed)
v -0.220000 -0.220000 -0.230000
v -0.220000 -0.220000 0.210000
v -0.660000 -0.220000 0.210000
v -0.660000 -0.220000 -0.230000
v -0.220000 -0.220000 0.210000
v -0.220000 0.220000 0.210000
v -0.660000 0.220000 0.210000
v -0.660000 -0.220000 0.210000
v -0.220000 0.220000 0.210000
v -0.220000 0.220000 -0.230000
v -0.660000 0.220000 -0.230000
v -0.660000 0.220000 0.210000
v -0.220000 0.220000 -0.230000
v -0.220000 -0.220000 -0.230000
v -0.660000 -0.220000 -0.230000
v -0.660000 0.220000 -0.230000
v -0.220000 -0.220000 0.210000
v -0.220000 -0.220000 -0.230000
v -0.220000 0.220000 -0.230000
v -0.220000 0.220000 0.210000
v -0.660000 0.220000 0.210000
v -0.660000 0.220000 -0.230000
v -0.660000 -0.220000 -0.230000
v -0.660000 -0.220000 0.210000
v -0.406000 0.240000 -0.250000
v -0.494000 0.200000 -0.250000
v -0.494000 0.240000 -0.250000
v -0.406000 0.200000 -0.250000
v -0.494000 0.180000 -0.250000
v -0.406000 0.180000 -0.250000
v -0.406000 0.200000 -0.210000
v -0.406000 0.180000 -0.210000
v -0.406000 0.180000 -0.250000
v -0.406000 0.200000 -0.250000
v -0.406000 0.240000 -0.250000
v -0.406000 0.240000 -0.210000
v -0.406000 0.200000 0.190000
v -0.406000 0.240000 0.190000
v -0.406000 0.200000 0.230000
v -0.406000 0.240000 0.230000
v -0.406000 -0.200000 0.190000
v -0.406000 -0.200000 0.230000
v -0.406000 -0.240000 0.190000
v -0.406000 -0.240000 0.230000
v -0.406000 -0.200000 -0.210000
v -0.406000 -0.240000 -0.210000
v -0.406000 -0.200000 -0.250000
v -0.406000 -0.240000 -0.250000
v -0.406000 -0.180000 -0.210000
v -0.406000 -0.180000 -0.250000
v -0.494000 0.240000 -0.210000
v -0.494000 0.240000 -0.250000
v -0.494000 0.200000 -0.250000
v -0.494000 0.200000 -0.210000
v -0.494000 0.240000 0.190000
v -0.494000 0.180000 -0.210000
v -0.494000 0.180000 -0.250000
v -0.494000 0.200000 0.190000
v -0.494000 0.240000 0.230000
v -0.494000 0.200000 0.230000
v -0.494000 -0.200000 0.230000
v -0.494000 -0.200000 0.190000
v -0.494000 -0.240000 0.230000
v -0.494000 -0.240000 0.190000
v -0.494000 -0.240000 -0.210000
v -0.494000 -0.200000 -0.210000
v -0.494000 -0.240000 -0.250000
v -0.494000 -0.200000 -0.250000
v -0.494000 -0.180000 -0.250000
v -0.494000 -0.180000 -0.210000
v -0.406000 0.240000 -0.210000
v -0.406000 0.240000 -0.250000
v -0.494000 0.240000 -0.250000
v -0.494000 0.240000 -0.210000
v -0.406000 0.240000 0.190000
v -0.494000 0.240000 0.190000
v -0.406000 0.240000 0.230000
v -0.494000 0.240000 0.230000
v -0.406000 0.200000 0.230000
v -0.406000 0.240000 0.230000
v -0.494000 0.240000 0.230000
v -0.494000 0.200000 0.230000
v -0.406000 -0.200000 0.230000
v -0.494000 -0.200000 0.230000
v -0.406000 -0.240000 0.230000
v -0.494000 -0.240000 0.230000
v -0.406000 -0.240000 0.190000
v -0.406000 -0.240000 0.230000
v -0.494000 -0.240000 0.230000
v -0.494000 -0.240000 0.190000
v -0.406000 -0.240000 -0.210000
v -0.494000 -0.240000 -0.210000
v -0.406000 -0.240000 -0.250000
v -0.494000 -0.240000 -0.250000
v -0.406000 -0.200000 -0.250000
v -0.406000 -0.240000 -0.250000
v -0.494000 -0.240000 -0.250000
v -0.494000 -0.200000 -0.250000
v -0.406000 -0.180000 -0.250000
v -0.494000 -0.180000 -0.250000
v -0.323079 -0.180000 -0.260000
v -0.323079 -0.180000 -0.210000
v -0.585386 -0.180000 -0.210000
v -0.585386 -0.180000 -0.260000
v -0.323079 0.180000 -0.210000
v -0.323079 0.180000 -0.260000
v -0.585386 0.180000 -0.260000
v -0.585386 0.180000 -0.210000
v -0.323079 0.000000 -0.224221
v -0.323079 0.180000 -0.260000
v -0.323079 0.180000 -0.210000
v -0.323079 0.000000 -0.274221
v -0.323079 -0.180000 -0.210000
v -0.323079 -0.180000 -0.260000
v -0.585386 0.000000 -0.224221
v -0.585386 -0.180000 -0.260000
v -0.585386 -0.180000 -0.210000
v -0.585386 0.000000 -0.274221
v -0.585386 0.180000 -0.210000
v -0.585386 0.180000 -0.260000
v -0.352479 0.000000 -0.274221
v -0.352479 0.147000 -0.250000
v -0.352479 0.147000 -0.260000
v -0.352479 0.000000 -0.264221
v -0.352479 -0.147000 -0.260000
v -0.352479 -0.147000 -0.250000
v -0.352479 0.000000 -0.264221
v -0.352479 -0.147000 -0.250000
v -0.555986 -0.147000 -0.250000
v -0.555986 0.000000 -0.264221
v -0.352479 0.147000 -0.250000
v -0.555986 0.147000 -0.250000
v -0.555986 -0.147000 -0.260000
v -0.555986 -0.147000 -0.250000
v -0.352479 -0.147000 -0.250000
v -0.352479 -0.147000 -0.260000
v -0.555986 0.000000 -0.274221
v -0.555986 -0.147000 -0.250000
v -0.555986 -0.147000 -0.260000
v -0.555986 0.000000 -0.264221
v -0.555986 0.147000 -0.260000
v -0.555986 0.147000 -0.250000
v -0.352479 0.147000 -0.260000
v -0.352479 0.147000 -0.250000
v -0.555986 0.147000 -0.250000
v -0.555986 0.147000 -0.260000
v -0.260000 -0.190000 0.090000
v -0.260000 -0.190000 -0.110000
v -0.320000 -0.190000 -0.110000
v -0.320000 -0.190000 0.090000
v -0.260000 -0.190000 -0.110000
v -0.260000 -0.250000 -0.110000
v -0.320000 -0.250000 -0.110000
v -0.320000 -0.190000 -0.110000
v -0.260000 -0.250000 -0.110000
v -0.260000 -0.280000 0.090000
v -0.320000 -0.280000 0.090000
v -0.320000 -0.250000 -0.110000
v -0.260000 -0.280000 0.090000
v -0.260000 -0.190000 0.090000
v -0.320000 -0.190000 0.090000
v -0.320000 -0.280000 0.090000
v -0.260000 -0.190000 -0.110000
v -0.260000 -0.190000 0.090000
v -0.260000 -0.280000 0.090000
v -0.260000 -0.250000 -0.110000
v -0.320000 -0.250000 -0.110000
v -0.320000 -0.280000 0.090000
v -0.320000 -0.190000 0.090000
v -0.320000 -0.190000 -0.110000
v -0.260000 0.191985 0.090000
v -0.320000 0.191985 0.090000
v -0.320000 0.191985 -0.110000
v -0.260000 0.191985 -0.110000
v -0.260000 0.191985 -0.110000
v -0.320000 0.191985 -0.110000
v -0.320000 0.251985 -0.110000
v -0.260000 0.251985 -0.110000
v -0.260000 0.251985 -0.110000
v -0.320000 0.251985 -0.110000
v -0.320000 0.281985 0.090000
v -0.260000 0.281985 0.090000
v -0.260000 0.281985 0.090000
v -0.320000 0.281985 0.090000
v -0.320000 0.191985 0.090000
v -0.260000 0.191985 0.090000
v -0.260000 0.191985 -0.110000
v -0.260000 0.251985 -0.110000
v -0.260000 0.281985 0.090000
v -0.260000 0.191985 0.090000
v -0.320000 0.251985 -0.110000
v -0.320000 0.191985 -0.110000
v -0.320000 0.191985 0.090000
v -0.320000 0.281985 0.090000
v -0.323079 0.180000 -0.260000
v -0.555986 0.147000 -0.260000
v -0.585386 0.180000 -0.260000
v -0.352479 0.147000 -0.260000
v -0.555986 0.000000 -0.274221
v -0.323079 0.000000 -0.274221
v -0.585386 0.000000 -0.274221
v -0.352479 0.000000 -0.274221
v -0.555986 -0.147000 -0.260000
v -0.323079 -0.180000 -0.260000
v -0.585386 -0.180000 -0.260000
v -0.352479 -0.147000 -0.260000
vt 0.30475691 0.676491857
vt 0.30475691 0.654176116
vt 0.28354153 0.654176116
vt 0.28354153 0.676491857
vt 0.281612903 0.698807597
vt 0.302828223 0.698807597
vt 0.302828223 0.676491857
vt 0.281612903 0.676491857
vt 0.281612903 0.676491857
vt 0.260397524 0.676491857
vt 0.260397524 0.698807597
vt 0.281612903 0.698807597
vt 0.239182174 0.698807597
vt 0.260397524 0.698807597
vt 0.260397524 0.676491857
vt 0.239182174 0.676491857
vt 0.262326211 0.676491857
vt 0.28354153 0.676491857
vt 0.28354153 0.654176116
vt 0.262326211 0.654176116
vt 0.260397524 0.654176116
vt 0.239182174 0.654176116
vt 0.239182174 0.676491857
vt 0.260397524 0.676491857
vt 0.822595 0.725440979
vt 0.824523687 0.720977783
vt 0.822595 0.720977783
vt 0.824523687 0.725440979
vt 0.825970173 0.720977783
vt 0.825970173 0.725440979
vt 0.793665051 0.706269741
vt 0.793665051 0.707791209
vt 0.795593739 0.707791209
vt 0.795593679 0.706269741
vt 0.795593679 0.704241037
vt 0.793665051 0.704241037
vt 0.7743783 0.706269741
vt 0.7743783 0.704241037
vt 0.772449672 0.706269741
vt 0.772449672 0.704241037
vt 0.774378359 0.726556778
vt 0.772449672 0.726556778
vt 0.774378359 0.728585482
vt 0.772449672 0.728585482
vt 0.793665051 0.726556778
vt 0.793665051 0.728585482
vt 0.795593739 0.726556778
vt 0.795593739 0.728585482
vt 0.793665051 0.724528074
vt 0.795593739 0.724528074
vt 0.797522366 0.704241037
vt 0.795593739 0.704241037
vt 0.795593739 0.706269741
vt 0.797522366 0.706269741
vt 0.816809058 0.704241037
vt 0.797522366 0.707791209
vt 0.795593739 0.707791209
vt 0.816809058 0.706269741
vt 0.818737745 0.704241037
vt 0.818737745 0.706269741
vt 0.818737745 0.726556778
vt 0.816809058 0.726556778
vt 0.818737745 0.728585482
vt 0.816809058 0.728585482
vt 0.797522366 0.728585482
vt 0.797522366 0.726556778
vt 0.795593739 0.728585482
vt 0.795593739 0.726556778
vt 0.795593739 0.724528074
vt 0.797522366 0.724528074
vt 0.844581842 0.752929926
vt 0.844581842 0.750901222
vt 0.840338826 0.750901222
vt 0.840338826 0.752929926
vt 0.844581842 0.773216963
vt 0.840338826 0.773216963
vt 0.844581842 0.775245667
vt 0.840338826 0.775245667
vt 0.838024378 0.748872519
vt 0.838024378 0.750901222
vt 0.842267513 0.750901222
vt 0.842267513 0.748872519
vt 0.838024378 0.728585482
vt 0.842267513 0.728585482
vt 0.838024378 0.726556778
vt 0.842267513 0.726556778
vt 0.840338826 0.752929926
vt 0.840338826 0.750901222
vt 0.836095691 0.750901222
vt 0.836095691 0.752929926
vt 0.840338826 0.773216963
vt 0.836095691 0.773216963
vt 0.840338826 0.775245667
vt 0.836095691 0.775245667
vt 0.820666432 0.725440979
vt 0.822595 0.725440979
vt 0.822595 0.720977783
vt 0.820666432 0.720977783
vt 0.818737745 0.725440979
vt 0.818737745 0.720977783
vt 0.373322219 0.388770759
vt 0.375733048 0.388770759
vt 0.375733048 0.376988709
vt 0.373322219 0.376988709
vt 0.373958319 0.325373709
vt 0.376369148 0.325373709
vt 0.376369148 0.313591599
vt 0.373958319 0.313591599
vt 0.373581558 0.368620217
vt 0.375733048 0.360251844
vt 0.373322219 0.360251844
vt 0.375992388 0.368620217
vt 0.373322219 0.376988709
vt 0.375733048 0.376988709
vt 0.37154749 0.321960032
vt 0.37369898 0.313591599
vt 0.371288151 0.313591599
vt 0.373958319 0.321960032
vt 0.371288151 0.330328405
vt 0.37369898 0.330328405
vt 0.323888421 0.344630778
vt 0.323146909 0.351325572
vt 0.323629081 0.351325572
vt 0.323406249 0.344630778
vt 0.323629051 0.337936103
vt 0.323146909 0.337936103
vt 0.646080375 0.332687885
vt 0.646080375 0.32599315
vt 0.637714446 0.32599315
vt 0.637714446 0.332687885
vt 0.646080375 0.339382678
vt 0.637714446 0.339382678
vt 0.358679146 0.335780919
vt 0.359161288 0.335780919
vt 0.359161288 0.326981127
vt 0.358679146 0.326981127
vt 0.323146909 0.344630778
vt 0.322405368 0.351325572
vt 0.32288754 0.351325572
vt 0.322664738 0.344630778
vt 0.32288754 0.337936103
vt 0.322405368 0.337936103
vt 0.359161288 0.335780919
vt 0.359643489 0.335780919
vt 0.359643489 0.326981127
vt 0.359161288 0.326981127
vt 0 0
vt 0 0
vt 0 0
vt 0 0
vt 0.83710593 0.223228261
vt 0.83710593 0.223228261
vt 0.83710593 0.223228261
vt 0.83710593 0.223228261
vt 0.83710593 0.223228261
vt 0.83710593 0.223228261
vt 0.83710593 0.223228261
vt 0.83710593 0.223228261
vt 0.83710593 0.223228261
vt 0.83710593 0.223228261
vt 0.83710593 0.223228261
vt 0.83710593 0.223228261
vt 0.83710593 0.223228261
vt 0.83710593 0.223228261
vt 0.83710593 0.223228261
vt 0.83710593 0.223228261
vt 0.83710593 0.223228261
vt 0.83710593 0.223228261
vt 0.83710593 0.223228261
vt 0.83710593 0.223228261
vt 0.83710593 0.223228261
vt 0.83710593 0.223228261
vt 0.83710593 0.223228261
vt 0.83710593 0.223228261
vt 0.83710593 0.223228261
vt 0.83710593 0.223228261
vt 0.83710593 0.223228261
vt 0.83710593 0.223228261
vt 0.83710593 0.223228261
vt 0.83710593 0.223228261
vt 0.83710593 0.223228261
vt 0.83710593 0.223228261
vt 0.83710593 0.223228261
vt 0.83710593 0.223228261
vt 0.83710593 0.223228261
vt 0.83710593 0.223228261
vt 0.83710593 0.223228261
vt 0.83710593 0.223228261
vt 0.83710593 0.223228261
vt 0.83710593 0.223228261
vt 0.83710593 0.223228261
vt 0.83710593 0.223228261
vt 0.83710593 0.223228261
vt 0.83710593 0.223228261
vt 0.358679146 0.330328405
vt 0.348895639 0.328654706
vt 0.347478062 0.330328405
vt 0.357261568 0.328654706
vt 0.348895639 0.321960032
vt 0.358679146 0.321960032
vt 0.347478062 0.321960032
vt 0.357261568 0.321960032
vt 0.348895639 0.315265298
vt 0.358679146 0.313591599
vt 0.347478062 0.313591599
vt 0.357261568 0.315265298
vn -0.000000 -1.000000 -0.000001
vn -0.000000 -1.000000 -0.000001
vn -0.000000 -1.000000 -0.000001
vn -0.000000 -1.000000 -0.000001
vn -0.000000 -0.000001 1.000000
vn -0.000000 -0.000001 1.000000
vn -0.000000 -0.000001 1.000000
vn -0.000000 -0.000001 1.000000
vn 0.000000 1.000000 0.000001
vn 0.000000 1.000000 0.000001
vn 0.000000 1.000000 0.000001
vn 0.000000 1.000000 0.000001
vn 0.000000 0.000001 -1.000000
vn 0.000000 0.000001 -1.000000
vn 0.000000 0.000001 -1.000000
vn 0.000000 0.000001 -1.000000
vn 1.000000 -0.000000 -0.000000
vn 1.000000 -0.000000 -0.000000
vn 1.000000 -0.000000 -0.000000
vn 1.000000 -0.000000 -0.000000
vn -1.000000 0.000000 0.000000
vn -1.000000 0.000000 0.000000
vn -1.000000 0.000000 0.000000
vn -1.000000 0.000000 0.000000
vn 0.000000 0.000001 -1.000000
vn 0.000000 0.000001 -1.000000
vn 0.000000 0.000001 -1.000000
vn 0.000000 0.000001 -1.000000
vn 0.000000 0.000001 -1.000000
vn 0.000000 0.000001 -1.000000
vn 1.000000 -0.000000 -0.000000
vn 1.000000 -0.000000 -0.000000
vn 1.000000 -0.000000 -0.000000
vn 1.000000 -0.000000 -0.000000
vn 1.000000 -0.000000 -0.000000
vn 1.000000 -0.000000 -0.000000
vn 1.000000 -0.000000 -0.000000
vn 1.000000 -0.000000 -0.000000
vn 1.000000 -0.000000 -0.000000
vn 1.000000 -0.000000 -0.000000
vn 1.000000 -0.000000 -0.000000
vn 1.000000 -0.000000 -0.000000
vn 1.000000 -0.000000 -0.000000
vn 1.000000 -0.000000 -0.000000
vn 1.000000 -0.000000 -0.000000
vn 1.000000 -0.000000 -0.000000
vn 1.000000 -0.000000 -0.000000
vn 1.000000 -0.000000 -0.000000
vn 1.000000 -0.000000 -0.000000
vn 1.000000 -0.000000 -0.000000
vn -1.000000 0.000000 0.000000
vn -1.000000 0.000000 0.000000
vn -1.000000 0.000000 0.000000
vn -1.000000 0.000000 0.000000
vn -1.000000 0.000000 0.000000
vn -1.000000 0.000000 0.000000
vn -1.000000 0.000000 0.000000
vn -1.000000 0.000000 0.000000
vn -1.000000 0.000000 0.000000
vn -1.000000 0.000000 0.000000
vn -1.000000 0.000000 0.000000
vn -1.000000 0.000000 0.000000
vn -1.000000 0.000000 0.000000
vn -1.000000 0.000000 0.000000
vn -1.000000 0.000000 0.000000
vn -1.000000 0.000000 0.000000
vn -1.000000 0.000000 0.000000
vn -1.000000 0.000000 0.000000
vn -1.000000 0.000000 0.000000
vn -1.000000 0.000000 0.000000
vn 0.000000 1.000000 0.000001
vn 0.000000 1.000000 0.000001
vn 0.000000 1.000000 0.000001
vn 0.000000 1.000000 0.000001
vn 0.000000 1.000000 0.000001
vn 0.000000 1.000000 0.000001
vn 0.000000 1.000000 0.000001
vn 0.000000 1.000000 0.000001
vn -0.000000 -0.000001 1.000000
vn -0.000000 -0.000001 1.000000
vn -0.000000 -0.000001 1.000000
vn -0.000000 -0.000001 1.000000
vn -0.000000 -0.000001 1.000000
vn -0.000000 -0.000001 1.000000
vn -0.000000 -0.000001 1.000000
vn -0.000000 -0.000001 1.000000
vn -0.000000 -1.000000 -0.000001
vn -0.000000 -1.000000 -0.000001
vn -0.000000 -1.000000 -0.000001
vn -0.000000 -1.000000 -0.000001
vn -0.000000 -1.000000 -0.000001
vn -0.000000 -1.000000 -0.000001
vn -0.000000 -1.000000 -0.000001
vn -0.000000 -1.000000 -0.000001
vn 0.000000 0.000001 -1.000000
vn 0.000000 0.000001 -1.000000
vn 0.000000 0.000001 -1.000000
vn 0.000000 0.000001 -1.000000
vn 0.000000 0.000001 -1.000000
vn 0.000000 0.000001 -1.000000
vn -0.000000 -1.000000 -0.000001
vn -0.000000 -1.000000 -0.000001
vn -0.000000 -1.000000 -0.000001
vn -0.000000 -1.000000 -0.000001
vn 0.000000 1.000000 0.000001
vn 0.000000 1.000000 0.000001
vn 0.000000 1.000000 0.000001
vn 0.000000 1.000000 0.000001
vn 1.000000 -0.000000 -0.000000
vn 1.000000 -0.000000 -0.000000
vn 1.000000 -0.000000 -0.000000
vn 1.000000 -0.000000 -0.000000
vn 1.000000 -0.000000 -0.000000
vn 1.000000 -0.000000 -0.000000
vn -1.000000 0.000000 0.000000
vn -1.000000 0.000000 0.000000
vn -1.000000 0.000000 0.000000
vn -1.000000 0.000000 0.000000
vn -1.000000 0.000000 0.000000
vn -1.000000 0.000000 0.000000
vn -1.000000 0.000000 0.000000
vn -1.000000 0.000000 0.000000
vn -1.000000 0.000000 0.000000
vn -1.000000 0.000000 0.000000
vn -1.000000 0.000000 0.000000
vn -1.000000 0.000000 0.000000
vn 0.000000 0.000001 -1.000000
vn 0.000000 -0.096292 -0.995353
vn 0.000000 -0.096292 -0.995353
vn 0.000000 0.000001 -1.000000
vn 0.000000 0.096294 -0.995353
vn 0.000000 0.096294 -0.995353
vn 0.000000 1.000000 0.000001
vn 0.000000 1.000000 0.000001
vn 0.000000 1.000000 0.000001
vn 0.000000 1.000000 0.000001
vn 1.000000 -0.000000 -0.000000
vn 1.000000 -0.000000 -0.000000
vn 1.000000 -0.000000 -0.000000
vn 1.000000 -0.000000 -0.000000
vn 1.000000 -0.000000 -0.000000
vn 1.000000 -0.000000 -0.000000
vn -0.000000 -1.000000 -0.000001
vn -0.000000 -1.000000 -0.000001
vn -0.000000 -1.000000 -0.000001
vn -0.000000 -1.000000 -0.000001
vn 0.000000 1.000000 0.000001
vn 0.000000 1.000000 0.000001
vn 0.000000 1.000000 0.000001
vn 0.000000 1.000000 0.000001
vn 0.000000 0.000001 -1.000000
vn 0.000000 0.000001 -1.000000
vn 0.000000 0.000001 -1.000000
vn 0.000000 0.000001 -1.000000
vn -0.000000 -0.988936 -0.148341
vn -0.000000 -0.988936 -0.148341
vn -0.000000 -0.988936 -0.148341
vn -0.000000 -0.988936 -0.148341
vn -0.000000 -0.000001 1.000000
vn -0.000000 -0.000001 1.000000
vn -0.000000 -0.000001 1.000000
vn -0.000000 -0.000001 1.000000
vn 1.000000 -0.000000 -0.000000
vn 1.000000 -0.000000 -0.000000
vn 1.000000 -0.000000 -0.000000
vn 1.000000 -0.000000 -0.000000
vn -1.000000 0.000000 0.000000
vn -1.000000 0.000000 0.000000
vn -1.000000 0.000000 0.000000
vn -1.000000 0.000000 0.000000
vn -0.000000 -1.000000 -0.000001
vn -0.000000 -1.000000 -0.000001
vn -0.000000 -1.000000 -0.000001
vn -0.000000 -1.000000 -0.000001
vn 0.000000 0.000001 -1.000000
vn 0.000000 0.000001 -1.000000
vn 0.000000 0.000001 -1.000000
vn 0.000000 0.000001 -1.000000
vn 0.000000 0.988936 -0.148340
vn 0.000000 0.988936 -0.148340
vn 0.000000 0.988936 -0.148340
vn 0.000000 0.988936 -0.148340
vn -0.000000 -0.000001 1.000000
vn -0.000000 -0.000001 1.000000
vn -0.000000 -0.000001 1.000000
vn -0.000000 -0.000001 1.000000
vn 1.000000 -0.000000 -0.000000
vn 1.000000 -0.000000 -0.000000
vn 1.000000 -0.000000 -0.000000
vn 1.000000 -0.000000 -0.000000
vn -1.000000 0.000000 0.000000
vn -1.000000 0.000000 0.000000
vn -1.000000 0.000000 0.000000
vn -1.000000 0.000000 0.000000
vn -0.017158 0.030573 -0.999385
vn 0.019311 0.034410 -0.999221
vn 0.017158 0.030573 -0.999385
vn -0.019311 0.034410 -0.999221
vn 0.048757 0.000001 -0.998811
vn -0.048757 0.000001 -0.998811
vn 0.048757 0.000001 -0.998811
vn -0.048757 0.000001 -0.998811
vn 0.019311 -0.034408 -0.999221
vn -0.017158 -0.030571 -0.999385
vn 0.017158 -0.030571 -0.999385
vn -0.019311 -0.034408 -0.999221
f 1/1/1 2/2/2 3/3/3
f 1/1/1 3/3/3 4/4/4
f 5/5/5 6/6/6 7/7/7
f 5/5/5 7/7/7 8/8/8
f 9/9/9 10/10/10 11/11/11
f 9/9/9 11/11/11 12/12/12
f 13/13/13 14/14/14 15/15/15
f 13/13/13 15/15/15 16/16/16
f 17/17/17 18/18/18 19/19/19
f 17/17/17 19/19/19 20/20/20
f 21/21/21 22/22/22 23/23/23
f 21/21/21 23/23/23 24/24/24
f 25/25/25 26/26/26 27/27/27
f 25/25/25 28/28/28 26/26/26
f 28/28/28 29/29/29 26/26/26
f 28/28/28 30/30/30 29/29/29
f 31/31/31 32/32/32 33/33/33
f 31/31/31 33/33/33 34/34/34
f 31/31/31 34/34/34 35/35/35
f 31/31/31 35/35/35 36/36/36
f 37/37/37 31/31/31 36/36/36
f 37/37/37 36/36/36 38/38/38
f 38/38/38 39/39/39 37/37/37
f 38/38/38 40/40/40 39/39/39
f 39/39/39 41/41/41 37/37/37
f 39/39/39 42/42/42 41/41/41
f 42/42/42 43/43/43 41/41/41
f 42/42/42 44/44/44 43/43/43
f 43/43/43 45/45/45 41/41/41
f 43/43/43 46/46/46 45/45/45
f 46/46/46 47/47/47 45/45/45
f 46/46/46 48/48/48 47/47/47
f 47/47/47 49/49/49 45/45/45
f 47/47/47 50/50/50 49/49/49
f 51/51/51 52/52/52 53/53/53
f 51/51/51 53/53/53 54/54/54
f 55/55/55 51/51/51 54/54/54
f 53/53/53 56/56/56 54/54/54
f 53/53/53 57/57/57 56/56/56
f 55/55/55 54/54/54 58/58/58
f 58/58/58 59/59/59 55/55/55
f 58/58/58 60/60/60 59/59/59
f 58/58/58 61/61/61 60/60/60
f 58/58/58 62/62/62 61/61/61
f 62/62/62 63/63/63 61/61/61
f 62/62/62 64/64/64 63/63/63
f 62/62/62 65/65/65 64/64/64
f 62/62/62 66/66/66 65/65/65
f 66/66/66 67/67/67 65/65/65
f 66/66/66 68/68/68 67/67/67
f 66/66/66 69/69/69 68/68/68
f 66/66/66 70/70/70 69/69/69
f 71/71/71 72/72/72 73/73/73
f 71/71/71 73/73/73 74/74/74
f 75/75/75 71/71/71 74/74/74
f 75/75/75 74/74/74 76/76/76
f 76/76/76 77/77/77 75/75/75
f 76/76/76 78/78/78 77/77/77
f 79/79/79 80/80/80 81/81/81
f 79/79/79 81/81/81 82/82/82
f 82/82/82 83/83/83 79/79/79
f 82/82/82 84/84/84 83/83/83
f 84/84/84 85/85/85 83/83/83
f 84/84/84 86/86/86 85/85/85
f 87/87/87 88/88/88 89/89/89
f 87/87/87 89/89/89 90/90/90
f 90/90/90 91/91/91 87/87/87
f 90/90/90 92/92/92 91/91/91
f 92/92/92 93/93/93 91/91/91
f 92/92/92 94/94/94 93/93/93
f 95/95/95 96/96/96 97/97/97
f 95/95/95 97/97/97 98/98/98
f 98/98/98 99/99/99 95/95/95
f 98/98/98 100/100/100 99/99/99
f 101/101/101 102/102/102 103/103/103
f 101/101/101 103/103/103 104/104/104
f 105/105/105 106/106/106 107/107/107
f 105/105/105 107/107/107 108/108/108
f 109/109/109 110/110/110 111/111/111
f 109/109/109 112/112/112 110/110/110
f 113/113/113 112/112/112 109/109/109
f 113/113/113 114/114/114 112/112/112
f 115/115/115 116/116/116 117/117/117
f 115/115/115 118/118/118 116/116/116
f 119/119/119 118/118/118 115/115/115
f 119/119/119 120/120/120 118/118/118
f 121/121/121 122/122/122 123/123/123
f 121/121/121 124/124/124 122/122/122
f 125/125/125 124/124/124 121/121/121
f 125/125/125 126/126/126 124/124/124
f 127/127/127 128/128/128 129/129/129
f 127/127/127 129/129/129 130/130/130
f 131/131/131 127/127/127 130/130/130
f 131/131/131 130/130/130 132/132/132
f 133/133/133 134/134/134 135/135/135
f 133/133/133 135/135/135 136/136/136
f 137/137/137 138/138/138 139/139/139
f 137/137/137 140/140/140 138/138/138
f 141/141/141 140/140/140 137/137/137
f 141/141/141 142/142/142 140/140/140
f 143/143/143 144/144/144 145/145/145
f 143/143/143 145/145/145 146/146/146
f 147/147/147 148/148/148 149/149/149
f 147/147/147 149/149/149 150/150/150
f 151/151/151 152/152/152 153/153/153
f 151/151/151 153/153/153 154/154/154
f 155/155/155 156/156/156 157/157/157
f 155/155/155 157/157/157 158/158/158
f 159/159/159 160/160/160 161/161/161
f 159/159/159 161/161/161 162/162/162
f 163/163/163 164/164/164 165/165/165
f 163/163/163 165/165/165 166/166/166
f 167/167/167 168/168/168 169/169/169
f 167/167/167 169/169/169 170/170/170
f 171/171/171 172/172/172 173/173/173
f 171/171/171 173/173/173 174/174/174
f 175/175/175 176/176/176 177/177/177
f 175/175/175 177/177/177 178/178/178
f 179/179/179 180/180/180 181/181/181
f 179/179/179 181/181/181 182/182/182
f 183/183/183 184/184/184 185/185/185
f 183/183/183 185/185/185 186/186/186
f 187/187/187 188/188/188 189/189/189
f 187/187/187 189/189/189 190/190/190
f 191/191/191 192/192/192 193/193/193
f 191/191/191 193/193/193 194/194/194
f 195/195/195 196/196/196 197/197/197
f 195/195/195 198/198/198 196/196/196
f 197/197/197 196/196/196 199/199/199
f 200/200/200 198/198/198 195/195/195
f 197/197/197 199/199/199 201/201/201
f 200/200/200 202/202/202 198/198/198
f 201/201/201 199/199/199 203/203/203
f 204/204/204 202/202/202 200/200/200
f 201/201/201 203/203/203 205/205/205
f 204/204/204 206/206/206 202/202/202
f 205/205/205 203/203/203 206/206/206
f 205/205/205 206/206/206 204/204/204
