# belgiuminfantry_hat_hat (gear rip -> Godot: Z negated + winding reversed)
v -0.666821 0.220000 -0.220000
v -0.750415 0.222238 -0.264000
v -0.683985 0.138164 -0.290400
v -0.666821 0.220000 0.220000
v -0.683985 0.138163 0.290400
v -0.750415 0.222237 0.264000
v -0.666821 -0.242000 -0.000000
v -0.666821 -0.220000 0.220000
v -0.989903 -0.220000 0.220000
v -0.989903 -0.242000 -0.000000
v -0.666821 -0.220000 -0.220000
v -0.989903 -0.220000 -0.220000
v -0.666821 0.110000 0.242000
v -0.666821 0.220000 0.220000
v -0.989903 0.220000 0.220000
v -0.989903 0.110000 0.242000
v -0.666821 -0.000000 0.264000
v -0.989903 -0.000000 0.264000
v -0.666821 -0.220000 0.220000
v -0.989903 -0.220000 0.220000
v -0.666821 0.242000 0.000000
v -0.666821 0.220000 -0.220000
v -0.989903 0.220000 -0.220000
v -0.989903 0.242000 0.000000
v -0.666821 0.220000 0.220000
v -0.989903 0.220000 0.220000
v -0.666821 0.000000 -0.264000
v -0.666821 -0.220000 -0.220000
v -0.989903 -0.220000 -0.220000
v -0.989903 0.000000 -0.264000
v -0.666821 0.110000 -0.242000
v -0.989903 0.110000 -0.242000
v -0.666821 0.220000 -0.220000
v -0.989903 0.220000 -0.220000
v -0.989903 -0.000000 0.264000
v -0.989903 -0.242000 -0.000000
v -0.989903 -0.220000 0.220000
v -0.989903 0.000000 -0.000000
v -0.989903 -0.220000 -0.220000
v -0.989903 0.110000 0.242000
v -0.989903 0.000000 -0.264000
v -0.989903 0.121000 0.000000
v -0.989903 0.220000 0.220000
v -0.989903 0.110000 -0.242000
v -0.989903 0.242000 0.000000
v -0.989903 0.220000 -0.220000
v -0.666821 0.220000 0.220000
v -0.750415 0.222237 0.264000
v -0.774232 0.262563 0.000000
v -0.666821 0.242000 0.000000
v -0.750415 0.222238 -0.264000
v -0.666821 0.220000 -0.220000
v -0.606054 -0.264000 -0.264000
v -0.686054 -0.290400 -0.000000
v -0.686054 -0.264000 -0.264000
v -0.606054 -0.290400 -0.000000
v -0.686054 -0.264000 0.264000
v -0.606054 -0.264000 0.264000
v -0.724345 0.297871 0.264000
v -0.774232 0.262563 0.000000
v -0.750415 0.222237 0.264000
v -0.738267 0.334022 0.000000
v -0.750415 0.222238 -0.264000
v -0.724345 0.297871 -0.264000
v -0.606054 -0.264000 0.264000
v -0.666821 -0.000000 0.316800
v -0.686054 -0.264000 0.264000
v -0.586821 -0.000000 0.316800
v -0.683985 0.138163 0.290400
v -0.616060 0.166803 0.290400
v -0.750415 0.222237 0.264000
v -0.724345 0.297871 0.264000
v -0.586821 0.000000 -0.316800
v -0.606054 -0.264000 -0.264000
v -0.686054 -0.264000 -0.264000
v -0.666821 0.000000 -0.316800
v -0.616060 0.166803 -0.290400
v -0.683985 0.138164 -0.290400
v -0.724345 0.297871 -0.264000
v -0.750415 0.222238 -0.264000
v -0.666821 0.220000 0.220000
v -0.666821 0.110000 0.242000
v -0.683985 0.138163 0.290400
v -0.666821 -0.000000 0.264000
v -0.666821 -0.000000 0.316800
v -0.666821 -0.220000 0.220000
v -0.686054 -0.264000 0.264000
v -0.666821 -0.242000 -0.000000
v -0.686054 -0.290400 -0.000000
v -0.666821 -0.220000 -0.220000
v -0.686054 -0.264000 -0.264000
v -0.666821 0.000000 -0.264000
v -0.666821 0.000000 -0.316800
v -0.666821 0.110000 -0.242000
v -0.683985 0.138164 -0.290400
v -0.666821 0.220000 -0.220000
v -0.856821 0.040000 -0.210000
v -0.856821 0.040000 -0.310000
v -1.056821 0.028000 -0.310000
v -1.056821 0.028000 -0.210000
v -0.856821 0.040000 -0.310000
v -0.856821 -0.040000 -0.310000
v -1.056821 -0.028000 -0.310000
v -1.056821 0.028000 -0.310000
v -0.856821 -0.040000 -0.310000
v -0.856821 -0.040000 -0.210000
v -1.056821 -0.028000 -0.210000
v -1.056821 -0.028000 -0.310000
v -0.856821 -0.040000 -0.210000
v -0.856821 0.040000 -0.210000
v -1.056821 0.028000 -0.210000
v -1.056821 -0.028000 -0.210000
v -0.856821 0.040000 -0.310000
v -0.856821 0.040000 -0.210000
v -0.856821 -0.040000 -0.210000
v -0.856821 -0.040000 -0.310000
v -1.056821 -0.028000 -0.310000
v -1.056821 -0.028000 -0.210000
v -1.056821 0.028000 -0.210000
v -1.056821 0.028000 -0.310000
v -0.615058 0.215966 -0.220000
v -0.724345 0.297871 -0.264000
v -0.738267 0.334022 0.000000
v -0.616060 0.166803 -0.290400
v -0.615058 0.237966 0.000000
v -0.724345 0.297871 0.264000
v -0.615058 0.215966 0.220000
v -0.616060 0.166803 0.290400
v -0.586821 0.110000 0.242000
v -0.586821 -0.000000 0.316800
v -0.586821 0.121000 0.000000
v -0.586821 -0.000000 0.264000
v -0.606054 -0.264000 0.264000
v -0.586821 0.110000 -0.242000
v -0.586821 -0.220000 0.220000
v -0.606054 -0.290400 -0.000000
v -0.586821 0.000000 -0.000000
v -0.586821 0.000000 -0.264000
v -0.586821 0.000000 -0.316800
v -0.586821 -0.242000 -0.000000
v -0.606054 -0.264000 -0.264000
v -0.586821 -0.220000 -0.220000
vt 0.115625054 0.275000095
vt 0.115625054 0.275000095
vt 0.115625054 0.275000095
vt 0.115625054 0.275000095
vt 0.115625054 0.275000095
vt 0.115625054 0.275000095
vt 0.400000036 0.434375048
vt 0.400000036 0.434375048
vt 0.400000036 0.434375048
vt 0.400000036 0.434375048
vt 0.400000036 0.434375048
vt 0.400000036 0.434375048
vt 0.400000036 0.434375048
vt 0.400000036 0.434375048
vt 0.400000036 0.434375048
vt 0.400000036 0.434375048
vt 0.400000036 0.434375048
vt 0.400000036 0.434375048
vt 0.400000036 0.434375048
vt 0.400000036 0.434375048
vt 0.400000036 0.434375048
vt 0.400000036 0.434375048
vt 0.400000036 0.434375048
vt 0.400000036 0.434375048
vt 0.400000036 0.434375048
vt 0.400000036 0.434375048
vt 0.400000036 0.434375048
vt 0.400000036 0.434375048
vt 0.400000036 0.434375048
vt 0.400000036 0.434375048
vt 0.400000036 0.434375048
vt 0.400000036 0.434375048
vt 0.400000036 0.434375048
vt 0.400000036 0.434375048
vt 0.400000036 0.434375048
vt 0.400000036 0.434375048
vt 0.400000036 0.434375048
vt 0.400000036 0.434375048
vt 0.400000036 0.434375048
vt 0.400000036 0.434375048
vt 0.400000036 0.434375048
vt 0.400000036 0.434375048
vt 0.400000036 0.434375048
vt 0.400000036 0.434375048
vt 0.400000036 0.434375048
vt 0.400000036 0.434375048
vt 0.115625054 0.275000095
vt 0.115625054 0.275000095
vt 0.115625054 0.275000095
vt 0.115625054 0.275000095
vt 0.115625054 0.275000095
vt 0.115625054 0.275000095
vt 0.115625054 0.275000095
vt 0.115625054 0.275000095
vt 0.115625054 0.275000095
vt 0.115625054 0.275000095
vt 0.115625054 0.275000095
vt 0.115625054 0.275000095
vt 0.115625054 0.275000095
vt 0.115625054 0.275000095
vt 0.115625054 0.275000095
vt 0.115625054 0.275000095
vt 0.115625054 0.275000095
vt 0.115625054 0.275000095
vt 0.115625054 0.275000095
vt 0.115625054 0.275000095
vt 0.115625054 0.275000095
vt 0.115625054 0.275000095
vt 0.115625054 0.275000095
vt 0.115625054 0.275000095
vt 0.115625054 0.275000095
vt 0.115625054 0.275000095
vt 0.115625054 0.275000095
vt 0.115625054 0.275000095
vt 0.115625054 0.275000095
vt 0.115625054 0.275000095
vt 0.115625054 0.275000095
vt 0.115625054 0.275000095
vt 0.115625054 0.275000095
vt 0.115625054 0.275000095
vt 0.115625054 0.275000095
vt 0.115625054 0.275000095
vt 0.115625054 0.275000095
vt 0.115625054 0.275000095
vt 0.115625054 0.275000095
vt 0.115625054 0.275000095
vt 0.115625054 0.275000095
vt 0.115625054 0.275000095
vt 0.115625054 0.275000095
vt 0.115625054 0.275000095
vt 0.115625054 0.275000095
vt 0.115625054 0.275000095
vt 0.115625054 0.275000095
vt 0.115625054 0.275000095
vt 0.115625054 0.275000095
vt 0.115625054 0.275000095
vt 0.120312542 0.728124976
vt 0.120312542 0.728124976
vt 0.120312542 0.728124976
vt 0.120312542 0.728124976
vt 0.120312542 0.728124976
vt 0.120312542 0.728124976
vt 0.120312542 0.728124976
vt 0.120312542 0.728124976
vt 0.120312542 0.728124976
vt 0.120312542 0.728124976
vt 0.120312542 0.728124976
vt 0.120312542 0.728124976
vt 0.120312542 0.728124976
vt 0.120312542 0.728124976
vt 0.120312542 0.728124976
vt 0.120312542 0.728124976
vt 0.120312542 0.728124976
vt 0.120312542 0.728124976
vt 0.120312542 0.728124976
vt 0.120312542 0.728124976
vt 0.120312542 0.728124976
vt 0.120312542 0.728124976
vt 0.120312542 0.728124976
vt 0.120312542 0.728124976
vt 0.115625054 0.275000095
vt 0.115625054 0.275000095
vt 0.115625054 0.275000095
vt 0.115625054 0.275000095
vt 0.115625054 0.275000095
vt 0.115625054 0.275000095
vt 0.115625054 0.275000095
vt 0.115625054 0.275000095
vt 0.115625054 0.275000095
vt 0.115625054 0.275000095
vt 0.115625054 0.275000095
vt 0.115625054 0.275000095
vt 0.115625054 0.275000095
vt 0.115625054 0.275000095
vt 0.115625054 0.275000095
vt 0.115625054 0.275000095
vt 0.115625054 0.275000095
vt 0.115625054 0.275000095
vt 0.115625054 0.275000095
vt 0.115625054 0.275000095
vt 0.115625054 0.275000095
vt 0.115625054 0.275000095
vn -0.401173 -0.547566 0.734324
vn -0.401173 -0.547566 0.734324
vn -0.401173 -0.547566 0.734324
vn -0.401174 -0.547565 -0.734324
vn -0.401174 -0.547565 -0.734324
vn -0.401174 -0.547565 -0.734324
vn 0.000000 -1.000000 -0.000000
vn 0.000000 -0.995037 0.099503
vn 0.000000 -0.995037 0.099503
vn 0.000000 -1.000000 -0.000000
vn 0.000000 -0.995037 -0.099505
vn 0.000000 -0.995037 -0.099505
vn 0.000000 0.196115 0.980581
vn 0.000000 0.196115 0.980581
vn 0.000000 0.196115 0.980581
vn 0.000000 0.196115 0.980581
vn 0.000000 0.000000 1.000000
vn 0.000000 0.000000 1.000000
vn 0.000000 -0.196117 0.980580
vn 0.000000 -0.196117 0.980580
vn 0.000000 1.000000 -0.000000
vn -0.000000 0.995037 -0.099503
vn -0.000000 0.995037 -0.099503
vn 0.000000 1.000000 -0.000000
vn 0.000000 0.995037 0.099505
vn 0.000000 0.995037 0.099505
vn 0.000000 0.000000 -1.000000
vn 0.000000 -0.196115 -0.980581
vn 0.000000 -0.196115 -0.980581
vn 0.000000 0.000000 -1.000000
vn 0.000000 0.196117 -0.980580
vn 0.000000 0.196117 -0.980580
vn 0.000000 0.196117 -0.980580
vn 0.000000 0.196117 -0.980580
vn -1.000000 0.000000 -0.000000
vn -1.000000 0.000000 -0.000000
vn -1.000000 0.000000 -0.000000
vn -1.000000 0.000000 -0.000000
vn -1.000000 0.000000 -0.000000
vn -1.000000 0.000000 -0.000000
vn -1.000000 0.000000 -0.000000
vn -1.000000 0.000000 -0.000000
vn -1.000000 0.000000 -0.000000
vn -1.000000 0.000000 -0.000000
vn -1.000000 0.000000 -0.000000
vn -1.000000 0.000000 -0.000000
vn -0.144747 -0.982243 -0.119362
vn -0.144747 -0.982243 -0.119362
vn -0.145789 -0.989316 -0.000000
vn -0.145789 -0.989316 -0.000000
vn -0.144746 -0.982243 0.119360
vn -0.144746 -0.982243 0.119360
vn 0.000000 -0.995037 -0.099505
vn 0.000000 -1.000000 -0.000000
vn 0.000000 -0.995037 -0.099505
vn 0.000000 -1.000000 -0.000000
vn 0.000000 -0.995037 0.099503
vn 0.000000 -0.995037 0.099503
vn -0.914614 0.385723 0.121241
vn -0.921411 0.388590 -0.000000
vn -0.914614 0.385723 0.121241
vn -0.921411 0.388590 -0.000000
vn -0.914613 0.385724 -0.121241
vn -0.914613 0.385724 -0.121241
vn 0.000000 -0.196117 0.980580
vn -0.016318 -0.015433 0.999748
vn 0.000000 -0.196117 0.980580
vn -0.016318 -0.015433 0.999748
vn -0.086508 0.146511 0.985419
vn -0.086508 0.146511 0.985419
vn -0.140634 0.126771 0.981912
vn -0.140634 0.126771 0.981912
vn -0.016318 -0.015431 -0.999748
vn 0.000000 -0.196115 -0.980581
vn 0.000000 -0.196115 -0.980581
vn -0.016318 -0.015431 -0.999748
vn -0.086508 0.146513 -0.985419
vn -0.086508 0.146513 -0.985419
vn -0.140634 0.126773 -0.981912
vn -0.140634 0.126773 -0.981912
vn -0.951329 -0.060438 -0.302194
vn -0.971863 -0.078282 -0.222160
vn -0.971863 -0.078282 -0.222160
vn -0.988265 -0.011982 -0.152276
vn -0.988265 -0.011982 -0.152276
vn -0.969456 0.223377 -0.101283
vn -0.969456 0.223377 -0.101283
vn -0.929318 0.369281 -0.000000
vn -0.929318 0.369281 -0.000000
vn -0.969456 0.223377 0.101283
vn -0.969456 0.223377 0.101283
vn -0.988265 -0.011982 0.152276
vn -0.988265 -0.011982 0.152276
vn -0.971862 -0.078283 0.222160
vn -0.971862 -0.078283 0.222160
vn -0.951328 -0.060439 0.302194
vn -0.059892 0.998205 -0.000000
vn -0.059892 0.998205 -0.000000
vn -0.059892 0.998205 -0.000000
vn -0.059892 0.998205 -0.000000
vn 0.000000 0.000000 -1.000000
vn 0.000000 0.000000 -1.000000
vn 0.000000 0.000000 -1.000000
vn 0.000000 0.000000 -1.000000
vn -0.059892 -0.998205 -0.000000
vn -0.059892 -0.998205 -0.000000
vn -0.059892 -0.998205 -0.000000
vn -0.059892 -0.998205 -0.000000
vn 0.000000 0.000000 1.000000
vn 0.000000 0.000000 1.000000
vn 0.000000 0.000000 1.000000
vn 0.000000 0.000000 1.000000
vn 1.000000 0.000000 -0.000000
vn 1.000000 0.000000 -0.000000
vn 1.000000 0.000000 -0.000000
vn 1.000000 0.000000 -0.000000
vn -1.000000 0.000000 -0.000000
vn -1.000000 0.000000 -0.000000
vn -1.000000 0.000000 -0.000000
vn -1.000000 0.000000 -0.000000
vn 0.834173 0.514119 -0.199589
vn 0.643209 0.718158 -0.265577
vn 0.616942 0.787009 -0.000000
vn 0.881597 0.364862 -0.299436
vn 0.837886 0.545845 -0.000000
vn 0.643209 0.718158 0.265578
vn 0.834173 0.514119 0.199590
vn 0.881597 0.364861 0.299436
vn 0.978898 0.171621 0.110931
vn 0.982385 0.033274 0.183880
vn 0.992212 0.124564 -0.000000
vn 0.995612 0.016663 0.092082
vn 0.969456 -0.223377 0.101283
vn 0.978898 0.171622 -0.110931
vn 0.986479 -0.149262 0.067678
vn 0.929318 -0.369281 -0.000000
vn 1.000000 0.000000 -0.000000
vn 0.995612 0.016663 -0.092082
vn 0.982385 0.033274 -0.183880
vn 0.982183 -0.187928 -0.000000
vn 0.969456 -0.223377 -0.101283
vn 0.986479 -0.149262 -0.067678
f 1/1/1 2/2/2 3/3/3
f 4/4/4 5/5/5 6/6/6
f 7/7/7 8/8/8 9/9/9
f 7/7/7 9/9/9 10/10/10
f 11/11/11 7/7/7 10/10/10
f 11/11/11 10/10/10 12/12/12
f 13/13/13 14/14/14 15/15/15
f 13/13/13 15/15/15 16/16/16
f 17/17/17 13/13/13 16/16/16
f 17/17/17 16/16/16 18/18/18
f 19/19/19 17/17/17 18/18/18
f 19/19/19 18/18/18 20/20/20
f 21/21/21 22/22/22 23/23/23
f 21/21/21 23/23/23 24/24/24
f 25/25/25 21/21/21 24/24/24
f 25/25/25 24/24/24 26/26/26
f 27/27/27 28/28/28 29/29/29
f 27/27/27 29/29/29 30/30/30
f 31/31/31 27/27/27 30/30/30
f 31/31/31 30/30/30 32/32/32
f 33/33/33 31/31/31 32/32/32
f 33/33/33 32/32/32 34/34/34
f 35/35/35 36/36/36 37/37/37
f 35/35/35 38/38/38 36/36/36
f 38/38/38 39/39/39 36/36/36
f 40/40/40 38/38/38 35/35/35
f 38/38/38 41/41/41 39/39/39
f 40/40/40 42/42/42 38/38/38
f 42/42/42 41/41/41 38/38/38
f 43/43/43 42/42/42 40/40/40
f 42/42/42 44/44/44 41/41/41
f 43/43/43 45/45/45 42/42/42
f 45/45/45 44/44/44 42/42/42
f 45/45/45 46/46/46 44/44/44
f 47/47/47 48/48/48 49/49/49
f 47/47/47 49/49/49 50/50/50
f 50/50/50 49/49/49 51/51/51
f 50/50/50 51/51/51 52/52/52
f 53/53/53 54/54/54 55/55/55
f 53/53/53 56/56/56 54/54/54
f 56/56/56 57/57/57 54/54/54
f 56/56/56 58/58/58 57/57/57
f 59/59/59 60/60/60 61/61/61
f 59/59/59 62/62/62 60/60/60
f 62/62/62 63/63/63 60/60/60
f 62/62/62 64/64/64 63/63/63
f 65/65/65 66/66/66 67/67/67
f 65/65/65 68/68/68 66/66/66
f 68/68/68 69/69/69 66/66/66
f 68/68/68 70/70/70 69/69/69
f 70/70/70 71/71/71 69/69/69
f 70/70/70 72/72/72 71/71/71
f 73/73/73 74/74/74 75/75/75
f 73/73/73 75/75/75 76/76/76
f 77/77/77 73/73/73 76/76/76
f 77/77/77 76/76/76 78/78/78
f 79/79/79 77/77/77 78/78/78
f 79/79/79 78/78/78 80/80/80
f 81/81/81 82/82/82 83/83/83
f 84/84/84 83/83/83 82/82/82
f 84/84/84 85/85/85 83/83/83
f 86/86/86 85/85/85 84/84/84
f 86/86/86 87/87/87 85/85/85
f 88/88/88 87/87/87 86/86/86
f 88/88/88 89/89/89 87/87/87
f 90/90/90 89/89/89 88/88/88
f 90/90/90 91/91/91 89/89/89
f 92/92/92 91/91/91 90/90/90
f 92/92/92 93/93/93 91/91/91
f 94/94/94 93/93/93 92/92/92
f 94/94/94 95/95/95 93/93/93
f 96/96/96 95/95/95 94/94/94
f 97/97/97 98/98/98 99/99/99
f 97/97/97 99/99/99 100/100/100
f 101/101/101 102/102/102 103/103/103
f 101/101/101 103/103/103 104/104/104
f 105/105/105 106/106/106 107/107/107
f 105/105/105 107/107/107 108/108/108
f 109/109/109 110/110/110 111/111/111
f 109/109/109 111/111/111 112/112/112
f 113/113/113 114/114/114 115/115/115
f 113/113/113 115/115/115 116/116/116
f 117/117/117 118/118/118 119/119/119
f 117/117/117 119/119/119 120/120/120
f 121/121/121 122/122/122 123/123/123
f 121/121/121 124/124/124 122/122/122
f 121/121/121 123/123/123 125/125/125
f 125/125/125 123/123/123 126/126/126
f 125/125/125 126/126/126 127/127/127
f 127/127/127 126/126/126 128/128/128
f 127/127/127 128/128/128 129/129/129
f 129/129/129 125/125/125 127/127/127
f 129/129/129 128/128/128 130/130/130
f 131/131/131 121/121/121 125/125/125
f 129/129/129 131/131/131 125/125/125
f 129/129/129 130/130/130 132/132/132
f 132/132/132 131/131/131 129/129/129
f 132/132/132 130/130/130 133/133/133
f 121/121/121 134/134/134 124/124/124
f 131/131/131 134/134/134 121/121/121
f 132/132/132 133/133/133 135/135/135
f 135/135/135 133/133/133 136/136/136
f 132/132/132 137/137/137 131/131/131
f 137/137/137 134/134/134 131/131/131
f 135/135/135 137/137/137 132/132/132
f 138/138/138 124/124/124 134/134/134
f 137/137/137 138/138/138 134/134/134
f 138/138/138 139/139/139 124/124/124
f 135/135/135 136/136/136 140/140/140
f 135/135/135 140/140/140 137/137/137
f 140/140/140 138/138/138 137/137/137
f 140/140/140 136/136/136 141/141/141
f 142/142/142 141/141/141 139/139/139
f 142/142/142 139/139/139 138/138/138
f 140/140/140 142/142/142 138/138/138
f 140/140/140 141/141/141 142/142/142
