# biohazard_hood_mask (gear rip -> Godot: Z negated + winding reversed)
v -0.230000 0.210000 -0.220000
v -0.422249 0.210000 -0.220000
v -0.650000 0.210000 -0.220000
v -0.374139 0.205494 -0.255290
v -0.257197 0.197761 -0.250740
v -0.254522 0.171026 -0.364907
v -0.371465 0.178758 -0.369457
v -0.371465 0.178758 -0.369457
v -0.254522 0.171026 -0.364907
v -0.263087 0.057089 -0.338426
v -0.380029 0.064822 -0.342977
v -0.382704 0.091557 -0.228810
v -0.265761 0.083825 -0.224259
v -0.257197 0.197761 -0.250740
v -0.374139 0.205494 -0.255290
v -0.257197 0.197761 -0.250740
v -0.265761 0.083825 -0.224259
v -0.263087 0.057089 -0.338426
v -0.254522 0.171026 -0.364907
v -0.382704 0.091557 -0.228810
v -0.374139 0.205494 -0.255290
v -0.371465 0.178758 -0.369457
v -0.380029 0.064822 -0.342977
v -0.374139 -0.205494 -0.255290
v -0.371465 -0.178758 -0.369457
v -0.254522 -0.171026 -0.364907
v -0.257197 -0.197761 -0.250740
v -0.371465 -0.178758 -0.369457
v -0.380029 -0.064822 -0.342977
v -0.263087 -0.057089 -0.338426
v -0.254522 -0.171026 -0.364907
v -0.382704 -0.091558 -0.228810
v -0.374139 -0.205494 -0.255290
v -0.257197 -0.197761 -0.250740
v -0.265761 -0.083825 -0.224259
v -0.257197 -0.197761 -0.250740
v -0.254522 -0.171026 -0.364907
v -0.263087 -0.057089 -0.338426
v -0.265761 -0.083825 -0.224259
v -0.382704 -0.091558 -0.228810
v -0.380029 -0.064822 -0.342977
v -0.371465 -0.178758 -0.369457
v -0.374139 -0.205494 -0.255290
v -0.413431 0.117187 -0.095000
v -0.236486 0.117187 -0.095000
v -0.255098 0.078125 -0.353395
v -0.394819 0.078125 -0.353395
v -0.394819 0.078125 -0.353395
v -0.255098 0.078125 -0.353395
v -0.255098 -0.078125 -0.353395
v -0.394819 -0.078125 -0.353395
v -0.394819 -0.078125 -0.353395
v -0.255098 -0.078125 -0.353395
v -0.236486 -0.117188 -0.095000
v -0.413431 -0.117188 -0.095000
v -0.236486 0.117187 -0.095000
v -0.236486 -0.117188 -0.095000
v -0.255098 -0.078125 -0.353395
v -0.255098 0.078125 -0.353395
v -0.413431 -0.117188 -0.095000
v -0.413431 0.117187 -0.095000
v -0.394819 0.078125 -0.353395
v -0.394819 -0.078125 -0.353395
v -0.650000 0.210000 -0.220000
v -0.650000 0.210000 0.200000
v -0.230000 0.210000 0.200000
v -0.230000 0.210000 -0.220000
v -0.650000 -0.210000 0.200000
v -0.650000 -0.210000 -0.220000
v -0.230000 -0.210000 -0.220000
v -0.230000 -0.210000 0.200000
v -0.230000 0.210000 0.200000
v -0.230000 -0.210000 0.200000
v -0.230000 -0.210000 -0.220000
v -0.230000 -0.164578 -0.220000
v -0.230000 0.210000 -0.220000
v -0.650000 0.210000 0.200000
v -0.650000 -0.210000 0.200000
v -0.230000 -0.210000 0.200000
v -0.230000 0.210000 0.200000
v -0.650000 -0.210000 -0.220000
v -0.650000 -0.210000 0.200000
v -0.650000 0.210000 0.200000
v -0.650000 0.210000 -0.220000
v -0.447249 -0.149940 -0.220000
v -0.551263 -0.149940 -0.220000
v -0.551263 0.149940 -0.220000
v -0.447249 0.149940 -0.220000
v -0.230000 0.210000 -0.220000
v -0.230000 -0.164578 -0.220000
v -0.447249 -0.149940 -0.220000
v -0.230000 -0.210000 -0.220000
v -0.422249 0.210000 -0.220000
v -0.650000 -0.210000 -0.220000
v -0.447249 0.149940 -0.220000
v -0.551263 -0.149940 -0.220000
v -0.650000 0.210000 -0.220000
v -0.551263 0.149940 -0.220000
vt 0.788861036 0.898065746
vt 0.788861036 0.873922765
vt 0.788861036 0.825636864
vt 0.224312395 0.286293417
vt 0.224312395 0.286293417
vt 0.224312395 0.286293417
vt 0.224312395 0.286293417
vt 0.224312395 0.286293417
vt 0.224312395 0.286293417
vt 0.224312395 0.286293417
vt 0.224312395 0.286293417
vt 0.224312395 0.286293417
vt 0.224312395 0.286293417
vt 0.224312395 0.286293417
vt 0.224312395 0.286293417
vt 0.224312395 0.286293417
vt 0.224312395 0.286293417
vt 0.224312395 0.286293417
vt 0.224312395 0.286293417
vt 0.224312395 0.286293417
vt 0.224312395 0.286293417
vt 0.224312395 0.286293417
vt 0.224312395 0.286293417
vt 0.224312395 0.286293417
vt 0.224312395 0.286293417
vt 0.224312395 0.286293417
vt 0.224312395 0.286293417
vt 0.224312395 0.286293417
vt 0.224312395 0.286293417
vt 0.224312395 0.286293417
vt 0.224312395 0.286293417
vt 0.224312395 0.286293417
vt 0.224312395 0.286293417
vt 0.224312395 0.286293417
vt 0.224312395 0.286293417
vt 0.224312395 0.286293417
vt 0.224312395 0.286293417
vt 0.224312395 0.286293417
vt 0.224312395 0.286293417
vt 0.224312395 0.286293417
vt 0.224312395 0.286293417
vt 0.224312395 0.286293417
vt 0.224312395 0.286293417
vt 0.224312395 0.286293417
vt 0.224312395 0.286293417
vt 0.224312395 0.286293417
vt 0.224312395 0.286293417
vt 0.224312395 0.286293417
vt 0.224312395 0.286293417
vt 0.224312395 0.286293417
vt 0.224312395 0.286293417
vt 0.224312395 0.286293417
vt 0.224312395 0.286293417
vt 0.224312395 0.286293417
vt 0.224312395 0.286293417
vt 0.224312395 0.286293417
vt 0.224312395 0.286293417
vt 0.224312395 0.286293417
vt 0.224312395 0.286293417
vt 0.224312395 0.286293417
vt 0.224312395 0.286293417
vt 0.224312395 0.286293417
vt 0.224312395 0.286293417
vt 0.788861036 0.825636864
vt 0.716432095 0.825636864
vt 0.716432095 0.898065746
vt 0.788861036 0.898065746
vt 0.788861036 0.825636864
vt 0.716432095 0.825636864
vt 0.716432095 0.898065746
vt 0.788861036 0.898065746
vt 0.716432095 0.825636864
vt 0.716432095 0.898065746
vt 0.788861036 0.898065746
vt 0.788861036 0.873922765
vt 0.788861036 0.825636864
vt 0.788861036 0.825636864
vt 0.716432095 0.825636864
vt 0.716432095 0.898065746
vt 0.788861036 0.898065746
vt 0.788861036 0.825636864
vt 0.716432095 0.825636864
vt 0.716432095 0.898065746
vt 0.788861036 0.898065746
vt 0.683040738 0.297809958
vt 0.666945398 0.313905299
vt 0.683040738 0.297809958
vt 0.691088378 0.289762318
vt 0.297734946 0.789369047
vt 0.249448985 0.837655008
vt 0.265544266 0.821559668
vt 0.225306004 0.861797988
vt 0.297734946 0.789369047
vt 0.297734946 0.789369047
vt 0.281639606 0.805464327
vt 0.281639606 0.805464327
vt 0.297734946 0.789369047
vt 0.289687246 0.797416687
vn -0.000000 -0.000000 -1.000000
vn -0.000000 -0.000000 -1.000000
vn -0.000000 -0.000000 -1.000000
vn 0.073022 0.971438 -0.225779
vn 0.073022 0.971438 -0.225779
vn 0.073022 0.971438 -0.225779
vn 0.073022 0.971438 -0.225779
vn 0.022803 -0.227950 -0.973406
vn 0.022803 -0.227950 -0.973406
vn 0.022803 -0.227950 -0.973406
vn 0.022803 -0.227950 -0.973406
vn -0.022803 0.227950 0.973406
vn -0.022803 0.227950 0.973406
vn -0.022803 0.227950 0.973406
vn -0.022803 0.227950 0.973406
vn 0.997070 -0.065931 0.038797
vn 0.997070 -0.065931 0.038797
vn 0.997070 -0.065931 0.038797
vn 0.997070 -0.065931 0.038797
vn -0.997070 0.065931 -0.038797
vn -0.997070 0.065931 -0.038797
vn -0.997070 0.065931 -0.038797
vn -0.997070 0.065931 -0.038797
vn 0.073021 -0.971438 -0.225778
vn 0.073021 -0.971438 -0.225778
vn 0.073021 -0.971438 -0.225778
vn 0.073021 -0.971438 -0.225778
vn 0.022803 0.227950 -0.973406
vn 0.022803 0.227950 -0.973406
vn 0.022803 0.227950 -0.973406
vn 0.022803 0.227950 -0.973406
vn -0.022803 -0.227950 0.973406
vn -0.022803 -0.227950 0.973406
vn -0.022803 -0.227950 0.973406
vn -0.022803 -0.227950 0.973406
vn 0.997070 0.065931 0.038797
vn 0.997070 0.065931 0.038797
vn 0.997070 0.065931 0.038797
vn 0.997070 0.065931 0.038797
vn -0.997070 -0.065931 -0.038797
vn -0.997070 -0.065931 -0.038797
vn -0.997070 -0.065931 -0.038797
vn -0.997070 -0.065931 -0.038797
vn 0.000000 0.988765 -0.149475
vn 0.000000 0.988765 -0.149475
vn 0.000000 0.988765 -0.149475
vn 0.000000 0.988765 -0.149475
vn -0.000000 -0.000000 -1.000000
vn -0.000000 -0.000000 -1.000000
vn -0.000000 -0.000000 -1.000000
vn -0.000000 -0.000000 -1.000000
vn -0.000000 -0.988765 -0.149475
vn -0.000000 -0.988765 -0.149475
vn -0.000000 -0.988765 -0.149475
vn -0.000000 -0.988765 -0.149475
vn 0.997416 -0.000000 -0.071843
vn 0.997416 -0.000000 -0.071843
vn 0.997416 -0.000000 -0.071843
vn 0.997416 -0.000000 -0.071843
vn -0.997416 0.000000 -0.071843
vn -0.997416 0.000000 -0.071843
vn -0.997416 0.000000 -0.071843
vn -0.997416 0.000000 -0.071843
vn 0.000000 1.000000 -0.000000
vn 0.000000 1.000000 -0.000000
vn 0.000000 1.000000 -0.000000
vn 0.000000 1.000000 -0.000000
vn -0.000000 -1.000000 0.000000
vn -0.000000 -1.000000 0.000000
vn -0.000000 -1.000000 0.000000
vn -0.000000 -1.000000 0.000000
vn 1.000000 -0.000000 -0.000000
vn 1.000000 -0.000000 -0.000000
vn 1.000000 -0.000000 -0.000000
vn 1.000000 -0.000000 -0.000000
vn 1.000000 -0.000000 -0.000000
vn 0.000000 0.000000 1.000000
vn 0.000000 0.000000 1.000000
vn 0.000000 0.000000 1.000000
vn 0.000000 0.000000 1.000000
vn -1.000000 0.000000 0.000000
vn -1.000000 0.000000 0.000000
vn -1.000000 0.000000 0.000000
vn -1.000000 0.000000 0.000000
vn -0.000000 -0.000000 -1.000000
vn -0.000000 -0.000000 -1.000000
vn -0.000000 -0.000000 -1.000000
vn -0.000000 -0.000000 -1.000000
vn -0.000000 -0.000000 -1.000000
vn -0.000000 -0.000000 -1.000000
vn -0.000000 -0.000000 -1.000000
vn -0.000000 -0.000000 -1.000000
vn -0.000000 -0.000000 -1.000000
vn -0.000000 -0.000000 -1.000000
vn -0.000000 -0.000000 -1.000000
vn -0.000000 -0.000000 -1.000000
vn -0.000000 -0.000000 -1.000000
vn -0.000000 -0.000000 -1.000000
f 1/1/1 2/2/2 3/3/3
f 4/4/4 5/5/5 6/6/6
f 4/4/4 6/6/6 7/7/7
f 8/8/8 9/9/9 10/10/10
f 8/8/8 10/10/10 11/11/11
f 12/12/12 13/13/13 14/14/14
f 12/12/12 14/14/14 15/15/15
f 16/16/16 17/17/17 18/18/18
f 16/16/16 18/18/18 19/19/19
f 20/20/20 21/21/21 22/22/22
f 20/20/20 22/22/22 23/23/23
f 24/24/24 25/25/25 26/26/26
f 24/24/24 26/26/26 27/27/27
f 28/28/28 29/29/29 30/30/30
f 28/28/28 30/30/30 31/31/31
f 32/32/32 33/33/33 34/34/34
f 32/32/32 34/34/34 35/35/35
f 36/36/36 37/37/37 38/38/38
f 36/36/36 38/38/38 39/39/39
f 40/40/40 41/41/41 42/42/42
f 40/40/40 42/42/42 43/43/43
f 44/44/44 45/45/45 46/46/46
f 44/44/44 46/46/46 47/47/47
f 48/48/48 49/49/49 50/50/50
f 48/48/48 50/50/50 51/51/51
f 52/52/52 53/53/53 54/54/54
f 52/52/52 54/54/54 55/55/55
f 56/56/56 57/57/57 58/58/58
f 56/56/56 58/58/58 59/59/59
f 60/60/60 61/61/61 62/62/62
f 60/60/60 62/62/62 63/63/63
f 64/64/64 65/65/65 66/66/66
f 66/66/66 67/67/67 64/64/64
f 68/68/68 69/69/69 70/70/70
f 68/68/68 70/70/70 71/71/71
f 72/72/72 73/73/73 74/74/74
f 74/74/74 75/75/75 72/72/72
f 75/75/75 76/76/76 72/72/72
f 77/77/77 78/78/78 79/79/79
f 77/77/77 79/79/79 80/80/80
f 81/81/81 82/82/82 83/83/83
f 81/81/81 83/83/83 84/84/84
f 85/85/85 86/86/86 87/87/87
f 85/85/85 87/87/87 88/88/88
f 89/89/89 90/90/90 91/91/91
f 91/91/91 90/90/90 92/92/92
f 91/91/91 93/93/93 89/89/89
f 92/92/92 94/94/94 91/91/91
f 91/91/91 95/95/95 93/93/93
f 94/94/94 96/96/96 91/91/91
f 97/97/97 93/93/93 95/95/95
f 94/94/94 97/97/97 96/96/96
f 95/95/95 98/98/98 97/97/97
f 98/98/98 96/96/96 97/97/97
