# blueknight_helmet_hat (gear rip -> Godot: Z negated + winding reversed)
v -0.264932 -0.118251 -2.856282
v -0.409255 -0.606858 -2.182765
v -0.409255 0.268133 -1.850281
v -0.264932 0.443399 -2.642863
v -0.264932 0.443399 -2.642863
v -0.409255 0.268133 -1.850281
v 0.396775 0.268133 -1.850281
v 0.252452 0.443399 -2.642863
v 0.252452 0.443399 -2.642863
v 0.396775 0.268133 -1.850281
v 0.396775 -0.606858 -2.182765
v 0.252452 -0.118251 -2.856282
v 0.252452 -0.118251 -2.856282
v 0.396775 -0.606858 -2.182765
v -0.409255 -0.606858 -2.182765
v -0.264932 -0.118251 -2.856282
v 0.252452 -0.118251 -2.856282
v -0.264932 -0.118251 -2.856282
v -0.264932 0.443399 -2.642863
v 0.252452 0.443399 -2.642863
v -0.162786 0.592533 -3.302925
v -0.085058 -0.134050 -2.804296
v -0.165822 0.100074 -2.496511
v -0.271101 0.550902 -2.722277
v -0.271101 0.550902 -2.722277
v -0.165822 0.100074 -2.496511
v 0.153342 0.100074 -2.496511
v 0.258621 0.550902 -2.722277
v 0.258621 0.550902 -2.722277
v 0.153342 0.100074 -2.496511
v 0.072578 -0.134050 -2.804296
v 0.150306 0.592533 -3.302925
v 0.150306 0.592533 -3.302925
v 0.072578 -0.134050 -2.804296
v -0.085058 -0.134050 -2.804296
v -0.162786 0.592533 -3.302925
v 0.150306 0.592533 -3.302925
v 0.219514 1.511407 -3.124876
v 0.360073 1.004411 -2.494624
v 0.258621 0.550902 -2.722277
v 0.360073 1.004411 -2.494624
v 0.404251 1.249405 -1.873407
v -0.416731 1.249405 -1.873407
v -0.372553 1.004411 -2.494624
v -0.271101 0.550902 -2.722277
v -0.372553 1.004411 -2.494624
v -0.231994 1.511407 -3.124876
v -0.162786 0.592533 -3.302925
v -0.162786 0.592533 -3.302925
v -0.231994 1.511407 -3.124876
v 0.219514 1.511407 -3.124876
v 0.150306 0.592533 -3.302925
v 0.258621 0.550902 -2.722277
v 0.360073 1.004411 -2.494624
v -0.372553 1.004411 -2.494624
v -0.271101 0.550902 -2.722277
v -0.214618 1.909953 -2.379196
v -0.130939 1.564698 -1.364187
v 0.118459 1.564698 -1.364187
v 0.202138 1.909953 -2.379196
v 0.219514 1.511407 -3.124876
v 0.202138 1.909953 -2.379196
v 0.404251 1.249405 -1.873407
v 0.360073 1.004411 -2.494624
v -0.372553 1.004411 -2.494624
v -0.416731 1.249405 -1.873407
v -0.214618 1.909953 -2.379196
v -0.231994 1.511407 -3.124876
v -0.231994 1.511407 -3.124876
v -0.214618 1.909953 -2.379196
v 0.202138 1.909953 -2.379196
v 0.219514 1.511407 -3.124876
v 0.118459 1.564698 -1.364187
v 0.044829 1.790225 -0.957287
v 0.129940 1.751871 -0.730146
v 0.264888 1.080647 -1.192467
v 0.404251 1.249405 -1.873407
v 0.264888 1.080647 -1.192467
v -0.277368 1.080647 -1.192467
v -0.416731 1.249405 -1.873407
v 0.202138 1.909953 -2.379196
v 0.118459 1.564698 -1.364187
v 0.264888 1.080647 -1.192467
v 0.404251 1.249405 -1.873407
v -0.416731 1.249405 -1.873407
v -0.277368 1.080647 -1.192467
v -0.130939 1.564698 -1.364187
v -0.214618 1.909953 -2.379196
v -0.057309 1.790225 -0.957287
v -0.025614 2.201305 -1.193061
v 0.013134 2.201305 -1.193061
v 0.044829 1.790225 -0.957287
v -0.277368 1.080647 -1.192467
v -0.142420 1.751871 -0.730146
v -0.057309 1.790225 -0.957287
v -0.130939 1.564698 -1.364187
v -0.130939 1.564698 -1.364187
v -0.057309 1.790225 -0.957287
v 0.044829 1.790225 -0.957287
v 0.118459 1.564698 -1.364187
v 0.264888 1.080647 -1.192467
v 0.129940 1.751871 -0.730146
v -0.142420 1.751871 -0.730146
v -0.277368 1.080647 -1.192467
v 0.013134 2.201305 -1.193061
v -0.025614 2.201305 -1.193061
v -0.064853 2.142537 -1.070266
v 0.052373 2.142537 -1.070266
v 0.129940 1.751871 -0.730146
v 0.052373 2.142537 -1.070266
v -0.064853 2.142537 -1.070266
v -0.142420 1.751871 -0.730146
v 0.044829 1.790225 -0.957287
v 0.013134 2.201305 -1.193061
v 0.052373 2.142537 -1.070266
v 0.129940 1.751871 -0.730146
v -0.142420 1.751871 -0.730146
v -0.064853 2.142537 -1.070266
v -0.025614 2.201305 -1.193061
v -0.057309 1.790225 -0.957287
v 0.818455 -0.254061 -0.884591
v 0.862632 -0.290006 -0.874918
v 0.862632 0.793572 -0.874918
v 0.818455 0.754827 -0.884591
v -0.818455 0.754827 -1.210916
v -0.862632 0.793572 -1.122755
v 0.862632 0.793572 -1.122755
v 0.818455 0.754827 -1.210916
v -0.818455 -0.254061 -0.884591
v 0.818455 -0.254061 -0.884591
v 0.818455 0.754827 -0.884591
v -0.818455 0.754827 -0.884591
v 0.818455 -0.329717 -2.513841
v -0.818455 -0.329717 -2.513841
v -0.818455 0.754827 -2.513841
v 0.818455 0.754827 -2.513841
v -0.890995 -0.670458 -2.672460
v -0.890995 -0.986566 -2.040999
v -0.920320 -0.173268 -1.701936
v -0.920320 0.142840 -2.333397
v 0.920320 0.142840 -2.333397
v 0.920320 -0.173268 -1.701936
v 0.890995 -0.986566 -2.040999
v 0.890995 -0.670458 -2.672460
v -0.000000 -0.952789 -2.781359
v -0.000000 -1.268897 -2.219007
v -0.890995 -0.986566 -2.040999
v -0.890995 -0.670458 -2.672460
v -0.000000 -1.268897 -2.219007
v 0.890995 -0.986566 -2.040999
v 0.920320 -0.173268 -1.701936
v -0.000000 -0.173268 -1.771045
v -0.920320 0.142840 -2.333397
v -0.920320 -0.173268 -1.701936
v -0.000000 -0.173268 -1.771045
v 0.920320 0.142840 -2.333397
v 0.920320 -0.173268 -1.701936
v -0.890995 -0.144203 -1.299024
v -0.890995 -0.142782 -2.333440
v 0.890995 -0.142782 -2.333440
v 0.890995 -0.144203 -1.299024
v -0.890995 -0.838912 -1.300044
v -0.890995 -0.839899 -0.829569
v -0.890995 0.129932 -0.828171
v -0.890995 -0.144203 -1.299024
v -0.890995 -0.142782 -2.333440
v -0.890995 0.132340 -2.333062
v -0.000000 -1.027013 -1.300044
v -0.000000 -1.028000 -0.829569
v -0.890995 -0.839899 -0.829569
v -0.890995 -0.838912 -1.300044
v 0.890995 -0.142782 -2.333440
v -0.890995 -0.142782 -2.333440
v -0.890995 0.132340 -2.333062
v 0.890995 0.132340 -2.333062
v -0.890995 0.129932 -0.828171
v 0.890995 0.129932 -0.828171
v 0.890995 0.132340 -2.333062
v -0.890995 0.132340 -2.333062
v -0.000000 -1.028000 -0.829569
v 0.890995 -0.839899 -0.829569
v 0.890995 0.129932 -0.828171
v -0.890995 0.129932 -0.828171
v -0.890995 -0.839899 -0.829569
v 0.890995 0.129932 -0.828171
v 0.890995 -0.839899 -0.829569
v 0.890995 -0.838912 -1.300044
v 0.890995 -0.144203 -1.299024
v 0.890995 -0.142782 -2.333440
v 0.890995 0.132340 -2.333062
v -0.963669 -0.090916 -2.360944
v -0.963669 -0.162842 -2.233009
v -0.963669 -0.037579 -2.162585
v -0.963669 0.034347 -2.290520
v -0.963669 0.034347 -2.290520
v -0.963669 -0.037579 -2.162585
v 0.963669 -0.037579 -2.162585
v 0.963669 0.034347 -2.290520
v 0.963669 0.034347 -2.290520
v 0.963669 -0.037579 -2.162585
v 0.963669 -0.162842 -2.233009
v 0.963669 -0.090916 -2.360944
v 0.963669 -0.090916 -2.360944
v 0.963669 -0.162842 -2.233009
v -0.963669 -0.162842 -2.233009
v -0.963669 -0.090916 -2.360944
v -0.963669 -0.162842 -2.233009
v 0.963669 -0.162842 -2.233009
v 0.963669 -0.037579 -2.162585
v -0.963669 -0.037579 -2.162585
v 0.963669 -0.090916 -2.360944
v -0.963669 -0.090916 -2.360944
v -0.963669 0.034347 -2.290520
v 0.963669 0.034347 -2.290520
v -0.890995 -0.144203 -1.299024
v 0.890995 -0.144203 -1.299024
v 0.890995 -0.838912 -1.300044
v -0.000000 -1.027013 -1.300044
v -0.890995 -0.838912 -1.300044
v 0.890995 -0.838912 -1.300044
v 0.890995 -0.839899 -0.829569
v -0.000000 -1.028000 -0.829569
v -0.000000 -1.027013 -1.300044
v -0.890995 -0.986566 -2.040999
v -0.000000 -1.268897 -2.219007
v -0.000000 -0.173268 -1.771045
v -0.920320 -0.173268 -1.701936
v 0.890995 -0.670458 -2.672460
v 0.890995 -0.986566 -2.040999
v -0.000000 -1.268897 -2.219007
v -0.000000 -0.952789 -2.781359
v -0.920320 0.142840 -2.333397
v 0.920320 0.142840 -2.333397
v 0.890995 -0.670458 -2.672460
v -0.000000 -0.952789 -2.781359
v -0.890995 -0.670458 -2.672460
v 0.818455 -0.329717 -2.513841
v 0.818455 -0.291889 -1.210916
v -0.818455 -0.291889 -1.210917
v -0.818455 -0.329717 -2.513841
v 0.818455 0.754827 -2.513841
v 0.818455 0.754827 -1.210916
v 0.818455 -0.291889 -1.210916
v 0.818455 -0.329717 -2.513841
v -0.818455 0.754827 -2.513841
v -0.818455 0.754827 -1.210916
v 0.818455 0.754827 -1.210916
v 0.818455 0.754827 -2.513841
v -0.818455 -0.329717 -2.513841
v -0.818455 -0.291889 -1.210917
v -0.818455 0.754827 -1.210916
v -0.818455 0.754827 -2.513841
v -0.862632 -0.330634 -1.122755
v -0.862632 -0.290006 -0.874918
v -0.862632 0.793572 -0.874918
v -0.862632 0.793572 -1.122755
v -0.862632 0.793572 -1.122755
v -0.862632 0.793572 -0.874918
v 0.862632 0.793572 -0.874918
v 0.862632 0.793572 -1.122755
v 0.862632 0.793572 -1.122755
v 0.862632 0.793572 -0.874918
v 0.862632 -0.290006 -0.874918
v 0.862632 -0.330634 -1.122755
v -0.818455 -0.291889 -1.210917
v -0.862632 -0.330634 -1.122755
v -0.862632 0.793572 -1.122755
v -0.818455 0.754827 -1.210916
v -0.818455 0.754827 -0.884591
v -0.862632 0.793572 -0.874918
v -0.862632 -0.290006 -0.874918
v -0.818455 -0.254061 -0.884591
v 0.818455 0.754827 -1.210916
v 0.862632 0.793572 -1.122755
v 0.862632 -0.330634 -1.122755
v 0.818455 -0.291889 -1.210916
v 0.818455 0.754827 -0.884591
v 0.862632 0.793572 -0.874918
v -0.862632 0.793572 -0.874918
v -0.818455 0.754827 -0.884591
vt 0.32043463 0.162396193
vt 0.431819677 0.191037595
vt 0.431819677 0.0660021901
vt 0.32043463 0.082136929
vt 0.047323525 0.340191305
vt 0.155580223 0.359483778
vt 0.155580223 0.251737058
vt 0.047323525 0.271029532
vt 0.28137213 0.0821369588
vt 0.169987053 0.0660021901
vt 0.169987023 0.191037595
vt 0.28137213 0.162396252
vt 0.05078125 0.197288394
vt 0.146878436 0.216580868
vt 0.146878421 0.108834147
vt 0.05078125 0.128126621
vt 0.396814227 0.307811499
vt 0.46779418 0.307811499
vt 0.46779418 0.233541369
vt 0.396814227 0.233541369
vt 0.660618603 0.90500623
vt 0.763324857 0.910024524
vt 0.763360441 0.86529541
vt 0.715721607 0.861337543
vt 0.818855226 0.941288412
vt 0.810458839 0.915490448
vt 0.785004318 0.915490448
vt 0.776607931 0.941288412
vt 0.876830339 0.63845396
vt 0.924402297 0.634501576
vt 0.924366832 0.589835286
vt 0.821804643 0.594846487
vt 0.621959209 0.556840301
vt 0.626692176 0.600742877
vt 0.636290789 0.600742877
vt 0.641023755 0.556840301
vt 0.821804643 0.594846487
vt 0.748546958 0.674452424
vt 0.840901494 0.698247492
vt 0.876830339 0.63845396
vt 0.914333701 0.669422448
vt 0.911598504 0.705987215
vt 0.96242708 0.705987215
vt 0.959691882 0.669422448
vt 0.715721607 0.861337543
vt 0.679742336 0.801459968
vt 0.587258041 0.825288475
vt 0.660618603 0.90500623
vt 0.641023755 0.556840301
vt 0.645237923 0.502631843
vt 0.617745042 0.502631843
vt 0.621959209 0.556840301
vt 0.776607931 0.941288412
vt 0.768516719 0.985666931
vt 0.826946437 0.985666931
vt 0.818855226 0.941288412
vt 0.591310263 0.547316194
vt 0.596405625 0.607137084
vt 0.611591697 0.607137084
vt 0.61668694 0.547316194
vt 0.748546958 0.674452424
vt 0.763311565 0.769351542
vt 0.861664414 0.771844864
vt 0.840901494 0.698247492
vt 0.679742336 0.801459968
vt 0.700534463 0.727759242
vt 0.60204339 0.730256021
vt 0.587258041 0.825288475
vt 0.590252161 0.502631843
vt 0.591310263 0.547316194
vt 0.61668694 0.547316194
vt 0.617745042 0.502631843
vt 0.86626178 0.8373124
vt 0.873225927 0.88911128
vt 0.8931669 0.907847941
vt 0.924402356 0.821041763
vt 0.911598504 0.705987215
vt 0.920226812 0.747582376
vt 0.953798771 0.747582376
vt 0.96242708 0.705987215
vt 0.763311565 0.769351542
vt 0.86626178 0.8373124
vt 0.924402356 0.821041763
vt 0.861664414 0.771844864
vt 0.700534463 0.727759242
vt 0.7633605 0.678493202
vt 0.705138206 0.662199676
vt 0.60204339 0.730256021
vt 0.568892837 0.580250978
vt 0.564544439 0.524457455
vt 0.559228718 0.524457455
vt 0.554880381 0.580250978
vt 0.7633605 0.678493202
vt 0.732081234 0.591565013
vt 0.712112188 0.610328019
vt 0.705138206 0.662199676
vt 0.596405625 0.607137084
vt 0.600888968 0.631529331
vt 0.607108355 0.631529331
vt 0.611591697 0.607137084
vt 0.930202246 0.896507025
vt 0.939629793 0.943873763
vt 0.958657146 0.943873763
vt 0.968084574 0.896507025
vt 0.565579414 0.619313478
vt 0.560263634 0.619313478
vt 0.554880381 0.635575771
vt 0.570962667 0.635575771
vt 0.939629793 0.943873763
vt 0.94504869 0.969141245
vt 0.95323813 0.969141245
vt 0.958657146 0.943873763
vt 0.873225927 0.88911128
vt 0.818043232 0.895526767
vt 0.832351089 0.902998328
vt 0.8931669 0.907847941
vt 0.732081234 0.591565013
vt 0.67117995 0.596421421
vt 0.656852067 0.603903532
vt 0.712112188 0.610328019
vt 0.426866055 0.438162655
vt 0.433728814 0.438044846
vt 0.383003354 0.355746508
vt 0.379880846 0.358457863
vt 0.263901234 0.325439066
vt 0.265920877 0.333874404
vt 0.394053042 0.335059553
vt 0.39737016 0.325439095
vt 0.227113605 0.419009089
vt 0.426866055 0.438162655
vt 0.379880846 0.358457863
vt 0.277637482 0.355117112
vt 0.142732888 0.628705025
vt 0.142732918 0.726227403
vt 0.199201018 0.726227403
vt 0.199200988 0.628705025
vt 0.689455152 0.175446033
vt 0.794000268 0.18359375
vt 0.794000387 0.0363554955
vt 0.689455211 0.0282077789
vt 0.559625387 0.191406131
vt 0.664170444 0.183258533
vt 0.664170504 0.0360202789
vt 0.559625387 0.0441678762
vt 0.899017632 0.388004065
vt 0.872402668 0.388004065
vt 0.865576923 0.433311522
vt 0.89530021 0.433311522
vt 0.651289284 0.388942868
vt 0.664662242 0.431055009
vt 0.701316655 0.432441056
vt 0.700573266 0.388942838
vt 0.809198081 0.188477755
vt 0.855164945 0.188477755
vt 0.85070467 0.11946559
vt 0.809198081 0.0504534841
vt 0.855164886 0.0504534319
vt 0.803472161 0.319210678
vt 0.849161625 0.319210678
vt 0.849161625 0.23023507
vt 0.803472102 0.2302351
vt 0.770993829 0.398598254
vt 0.770987749 0.417325765
vt 0.802403212 0.417320758
vt 0.793497324 0.398595333
vt 0.793491244 0.360874414
vt 0.802403212 0.360872298
vt 0.826344669 0.391057044
vt 0.845087826 0.391057044
vt 0.844449699 0.354299366
vt 0.825706542 0.354299366
vt 0.920965254 0.143399
vt 0.920965314 0.441094875
vt 0.961142361 0.441094875
vt 0.961142302 0.143399
vt 0.643681169 0.319714159
vt 0.643681169 0.227981716
vt 0.575070858 0.227981731
vt 0.575070858 0.319714159
vt 0.670751393 0.271937966
vt 0.678434908 0.314323336
vt 0.718065441 0.314323336
vt 0.718065441 0.229552597
vt 0.678434908 0.229552597
vt 0.631219745 0.344629049
vt 0.583915532 0.344621509
vt 0.583924711 0.372820675
vt 0.617809653 0.372825086
vt 0.617800474 0.429623842
vt 0.631219804 0.429627001
vt 0.474592835 0.949261904
vt 0.474592894 0.973780751
vt 0.495917708 0.973780632
vt 0.495917648 0.949261904
vt 0.464726239 0.605511904
vt 0.443688899 0.605511904
vt 0.443688899 0.927489281
vt 0.464726239 0.927489281
vt 0.453267992 0.949261904
vt 0.453267962 0.97378087
vt 0.474592835 0.973780632
vt 0.474592835 0.949261904
vt 0.49609375 0.604646325
vt 0.476201415 0.604646325
vt 0.476201415 0.926623821
vt 0.49609375 0.926623821
vt 0.402549028 0.934947371
vt 0.402549028 0.612969935
vt 0.381902754 0.612969935
vt 0.381902814 0.934947371
vt 0.414267778 0.605157375
vt 0.414267838 0.927134871
vt 0.434429407 0.927134871
vt 0.434429348 0.605157375
vt 0.751959443 0.428017229
vt 0.751959443 0.346284389
vt 0.724105477 0.346284389
vt 0.716565728 0.387150824
vt 0.724105477 0.428017259
vt 0.825706542 0.427814722
vt 0.844449699 0.427814722
vt 0.845087826 0.391057044
vt 0.826344669 0.391057044
vt 0.664662242 0.346830666
vt 0.651289284 0.388942868
vt 0.700573266 0.388942838
vt 0.701316655 0.34544462
vt 0.89530021 0.342696607
vt 0.865576923 0.342696637
vt 0.872402668 0.388004065
vt 0.899017632 0.388004065
vt 0.785945833 0.323450565
vt 0.785945773 0.222367823
vt 0.743947387 0.223978311
vt 0.729444921 0.272909194
vt 0.743947387 0.321840107
vt 0.395828933 0.508616209
vt 0.363995135 0.508616209
vt 0.363995135 0.581249177
vt 0.395828933 0.581249177
vt 0.312139153 0.611675501
vt 0.312137902 0.56079179
vt 0.254060119 0.56079179
vt 0.251962483 0.611675501
vt 0.228367016 0.499779373
vt 0.179629773 0.499779373
vt 0.179629758 0.613566637
vt 0.228366986 0.613566637
vt 0.0309576467 0.509817243
vt 0.033828143 0.579448223
vt 0.113303706 0.579448223
vt 0.11330542 0.509817243
vt 0.198037803 0.400775164
vt 0.221128523 0.418121874
vt 0.274561614 0.35166204
vt 0.265920877 0.333874404
vt 0.265920877 0.333874404
vt 0.274561614 0.35166204
vt 0.383003354 0.355746508
vt 0.394053042 0.335059553
vt 0.394053042 0.335059553
vt 0.383003354 0.355746508
vt 0.433728814 0.438044846
vt 0.463077605 0.42170009
vt 0.193908989 0.391188145
vt 0.198037803 0.400775164
vt 0.265920877 0.333874404
vt 0.263901234 0.325439066
vt 0.277637482 0.355117112
vt 0.274561614 0.35166204
vt 0.221128523 0.418121874
vt 0.227113605 0.419009089
vt 0.39737016 0.325439095
vt 0.394053042 0.335059553
vt 0.463077605 0.42170009
vt 0.470153451 0.409557283
vt 0.379880846 0.358457863
vt 0.383003354 0.355746508
vt 0.274561614 0.35166204
vt 0.277637482 0.355117112
vn -0.984236 0.062823 -0.165329
vn -0.984236 0.062823 -0.165329
vn -0.984236 0.062823 -0.165329
vn -0.984236 0.062823 -0.165329
vn -0.000000 0.976412 0.215916
vn -0.000000 0.976412 0.215916
vn -0.000000 0.976412 0.215916
vn -0.000000 0.976412 0.215916
vn 0.984236 0.062823 -0.165329
vn 0.984236 0.062823 -0.165329
vn 0.984236 0.062823 -0.165329
vn 0.984236 0.062823 -0.165329
vn -0.000000 -0.809435 -0.587209
vn -0.000000 -0.809435 -0.587209
vn -0.000000 -0.809435 -0.587209
vn -0.000000 -0.809435 -0.587209
vn -0.000000 0.355206 -0.934788
vn -0.000000 0.355206 -0.934788
vn -0.000000 0.355206 -0.934788
vn -0.000000 0.355206 -0.934788
vn -0.958337 -0.242159 -0.151489
vn -0.958337 -0.242159 -0.151489
vn -0.958337 -0.242159 -0.151489
vn -0.958337 -0.242159 -0.151489
vn -0.000000 0.447773 0.894147
vn -0.000000 0.447773 0.894147
vn -0.000000 0.447773 0.894147
vn -0.000000 0.447773 0.894147
vn 0.958337 -0.242159 -0.151489
vn 0.958337 -0.242159 -0.151489
vn 0.958337 -0.242159 -0.151489
vn 0.958337 -0.242159 -0.151489
vn -0.000000 -0.565838 -0.824517
vn -0.000000 -0.565838 -0.824517
vn -0.000000 -0.565838 -0.824517
vn -0.000000 -0.565838 -0.824517
vn 0.972904 -0.054564 -0.224680
vn 0.972904 -0.054564 -0.224680
vn 0.972904 -0.054564 -0.224680
vn 0.972904 -0.054564 -0.224680
vn -0.000000 -0.930269 0.366878
vn -0.000000 -0.930269 0.366878
vn -0.000000 -0.930269 0.366878
vn -0.000000 -0.930269 0.366878
vn -0.972904 -0.054564 -0.224680
vn -0.972904 -0.054564 -0.224680
vn -0.972904 -0.054564 -0.224680
vn -0.972904 -0.054564 -0.224680
vn -0.000000 0.190230 -0.981740
vn -0.000000 0.190230 -0.981740
vn -0.000000 0.190230 -0.981740
vn -0.000000 0.190230 -0.981740
vn -0.000000 -0.448631 0.893717
vn -0.000000 -0.448631 0.893717
vn -0.000000 -0.448631 0.893717
vn -0.000000 -0.448631 0.893717
vn -0.000000 0.946730 0.322029
vn -0.000000 0.946730 0.322029
vn -0.000000 0.946730 0.322029
vn -0.000000 0.946730 0.322029
vn 0.977236 0.183919 -0.105751
vn 0.977236 0.183919 -0.105751
vn 0.977236 0.183919 -0.105751
vn 0.977236 0.183919 -0.105751
vn -0.977236 0.183919 -0.105751
vn -0.977236 0.183919 -0.105751
vn -0.977236 0.183919 -0.105751
vn -0.977236 0.183919 -0.105751
vn -0.000000 0.881935 -0.471371
vn -0.000000 0.881935 -0.471371
vn -0.000000 0.881935 -0.471371
vn -0.000000 0.881935 -0.471371
vn 0.937588 0.328542 -0.113966
vn 0.937588 0.328542 -0.113966
vn 0.937588 0.328542 -0.113966
vn 0.937588 0.328542 -0.113966
vn -0.000000 -0.970636 -0.240554
vn -0.000000 -0.970636 -0.240554
vn -0.000000 -0.970636 -0.240554
vn -0.000000 -0.970636 -0.240554
vn 0.879942 0.410006 0.239992
vn 0.879942 0.410006 0.239992
vn 0.879942 0.410006 0.239992
vn 0.879942 0.410006 0.239992
vn -0.879942 0.410006 0.239992
vn -0.879942 0.410006 0.239992
vn -0.879942 0.410006 0.239992
vn -0.879942 0.410006 0.239992
vn -0.000000 -0.497523 -0.867451
vn -0.000000 -0.497523 -0.867451
vn -0.000000 -0.497523 -0.867451
vn -0.000000 -0.497523 -0.867451
vn -0.937588 0.328543 -0.113966
vn -0.937588 0.328543 -0.113966
vn -0.937588 0.328543 -0.113966
vn -0.937588 0.328543 -0.113966
vn -0.000000 0.874640 -0.484774
vn -0.000000 0.874640 -0.484774
vn -0.000000 0.874640 -0.484774
vn -0.000000 0.874640 -0.484774
vn -0.000000 -0.567241 0.823552
vn -0.000000 -0.567241 0.823552
vn -0.000000 -0.567241 0.823552
vn -0.000000 -0.567241 0.823552
vn -0.000000 0.902018 0.431697
vn -0.000000 0.902018 0.431697
vn -0.000000 0.902018 0.431697
vn -0.000000 0.902018 0.431697
vn -0.000000 0.656629 0.754214
vn -0.000000 0.656629 0.754214
vn -0.000000 0.656629 0.754214
vn -0.000000 0.656629 0.754214
vn 0.920823 -0.136825 -0.365191
vn 0.920823 -0.136825 -0.365191
vn 0.920823 -0.136825 -0.365191
vn 0.920823 -0.136825 -0.365191
vn -0.920823 -0.136825 -0.365191
vn -0.920823 -0.136825 -0.365191
vn -0.920823 -0.136825 -0.365191
vn -0.920823 -0.136825 -0.365191
vn -0.213879 0.000000 0.976860
vn -0.213879 0.000000 0.976860
vn -0.213879 0.000000 0.976860
vn -0.213879 0.000000 0.976860
vn -0.000000 0.915491 -0.402339
vn -0.000000 0.915491 -0.402339
vn -0.000000 0.915491 -0.402339
vn -0.000000 0.915491 -0.402339
vn -0.000000 0.000000 1.000000
vn -0.000000 0.000000 1.000000
vn -0.000000 0.000000 1.000000
vn -0.000000 0.000000 1.000000
vn -0.000000 0.000000 -1.000000
vn -0.000000 0.000000 -1.000000
vn -0.000000 0.000000 -1.000000
vn -0.000000 0.000000 -1.000000
vn -0.999444 -0.029815 -0.014925
vn -0.999444 -0.029815 -0.014925
vn -0.999444 -0.029815 -0.014925
vn -0.999444 -0.029815 -0.014925
vn 0.999444 -0.029815 -0.014925
vn 0.999444 -0.029815 -0.014925
vn 0.999444 -0.029815 -0.014925
vn 0.999444 -0.029815 -0.014925
vn -0.334861 -0.832708 -0.440983
vn -0.334861 -0.832708 -0.440983
vn -0.334861 -0.832708 -0.440983
vn -0.334861 -0.832708 -0.440983
vn -0.066756 -0.379436 0.922807
vn -0.066756 -0.379436 0.922807
vn -0.066756 -0.379436 0.922807
vn -0.066756 -0.379436 0.922807
vn -0.000000 0.883727 0.468002
vn -0.000000 0.883727 0.468002
vn -0.000000 0.883727 0.468002
vn -0.000000 0.883727 0.468002
vn -0.000000 0.883727 0.468002
vn -0.000000 -0.999999 -0.001374
vn -0.000000 -0.999999 -0.001374
vn -0.000000 -0.999999 -0.001374
vn -0.000000 -0.999999 -0.001374
vn -1.000000 0.000000 -0.000000
vn -1.000000 0.000000 -0.000000
vn -1.000000 0.000000 -0.000000
vn -1.000000 0.000000 -0.000000
vn -1.000000 0.000000 -0.000000
vn -1.000000 0.000000 -0.000000
vn -0.206560 -0.978432 -0.002052
vn -0.206560 -0.978432 -0.002052
vn -0.206560 -0.978432 -0.002052
vn -0.206560 -0.978432 -0.002052
vn -0.000000 0.001374 -0.999999
vn -0.000000 0.001374 -0.999999
vn -0.000000 0.001374 -0.999999
vn -0.000000 0.001374 -0.999999
vn -0.000000 0.999999 0.001600
vn -0.000000 0.999999 0.001600
vn -0.000000 0.999999 0.001600
vn -0.000000 0.999999 0.001600
vn -0.000000 -0.001314 0.999999
vn -0.000000 -0.001314 0.999999
vn -0.000000 -0.001314 0.999999
vn -0.000000 -0.001314 0.999999
vn -0.000000 -0.001314 0.999999
vn 1.000000 0.000000 -0.000000
vn 1.000000 0.000000 -0.000000
vn 1.000000 0.000000 -0.000000
vn 1.000000 0.000000 -0.000000
vn 1.000000 0.000000 -0.000000
vn 1.000000 0.000000 -0.000000
vn -1.000000 0.000000 -0.000000
vn -1.000000 0.000000 -0.000000
vn -1.000000 0.000000 -0.000000
vn -1.000000 0.000000 -0.000000
vn -0.000000 0.871685 0.490067
vn -0.000000 0.871685 0.490067
vn -0.000000 0.871685 0.490067
vn -0.000000 0.871685 0.490067
vn 1.000000 0.000000 -0.000000
vn 1.000000 0.000000 -0.000000
vn 1.000000 0.000000 -0.000000
vn 1.000000 0.000000 -0.000000
vn -0.000000 -0.871685 -0.490067
vn -0.000000 -0.871685 -0.490067
vn -0.000000 -0.871685 -0.490067
vn -0.000000 -0.871685 -0.490067
vn -0.000000 -0.490067 0.871685
vn -0.000000 -0.490067 0.871685
vn -0.000000 -0.490067 0.871685
vn -0.000000 -0.490067 0.871685
vn -0.000000 0.490067 -0.871685
vn -0.000000 0.490067 -0.871685
vn -0.000000 0.490067 -0.871685
vn -0.000000 0.490067 -0.871685
vn -0.000000 0.001293 -0.999999
vn -0.000000 0.001293 -0.999999
vn -0.000000 0.001293 -0.999999
vn -0.000000 0.001293 -0.999999
vn -0.000000 0.001293 -0.999999
vn 0.206560 -0.978432 -0.002052
vn 0.206560 -0.978432 -0.002052
vn 0.206560 -0.978432 -0.002052
vn 0.206560 -0.978432 -0.002052
vn 0.066756 -0.379436 0.922807
vn 0.066756 -0.379436 0.922807
vn 0.066756 -0.379436 0.922807
vn 0.066756 -0.379436 0.922807
vn 0.334861 -0.832708 -0.440983
vn 0.334861 -0.832708 -0.440983
vn 0.334861 -0.832708 -0.440983
vn 0.334861 -0.832708 -0.440983
vn -0.000000 0.381213 -0.924487
vn -0.000000 0.381213 -0.924487
vn -0.000000 0.381213 -0.924487
vn -0.000000 0.381213 -0.924487
vn -0.000000 0.381213 -0.924487
vn -0.000000 -0.999579 0.029021
vn -0.000000 -0.999579 0.029021
vn -0.000000 -0.999579 0.029021
vn -0.000000 -0.999579 0.029021
vn 1.000000 0.000000 -0.000000
vn 1.000000 0.000000 -0.000000
vn 1.000000 0.000000 -0.000000
vn 1.000000 0.000000 -0.000000
vn -0.000000 1.000000 -0.000000
vn -0.000000 1.000000 -0.000000
vn -0.000000 1.000000 -0.000000
vn -0.000000 1.000000 -0.000000
vn -1.000000 0.000000 -0.000000
vn -1.000000 0.000000 -0.000000
vn -1.000000 0.000000 -0.000000
vn -1.000000 0.000000 -0.000000
vn -1.000000 0.000000 -0.000000
vn -1.000000 0.000000 -0.000000
vn -1.000000 0.000000 -0.000000
vn -1.000000 0.000000 -0.000000
vn -0.000000 1.000000 -0.000000
vn -0.000000 1.000000 -0.000000
vn -0.000000 1.000000 -0.000000
vn -0.000000 1.000000 -0.000000
vn 1.000000 0.000000 -0.000000
vn 1.000000 0.000000 -0.000000
vn 1.000000 0.000000 -0.000000
vn 1.000000 0.000000 -0.000000
vn -0.894035 0.000000 -0.447996
vn -0.894035 0.000000 -0.447996
vn -0.894035 0.000000 -0.447996
vn -0.894035 0.000000 -0.447996
vn 0.213879 0.000000 0.976860
vn 0.213879 0.000000 0.976860
vn 0.213879 0.000000 0.976860
vn 0.213879 0.000000 0.976860
vn 0.894035 0.000000 -0.447996
vn 0.894035 0.000000 -0.447996
vn 0.894035 0.000000 -0.447996
vn 0.894035 0.000000 -0.447996
vn -0.000000 -0.242209 0.970224
vn -0.000000 -0.242209 0.970224
vn -0.000000 -0.242209 0.970224
vn -0.000000 -0.242209 0.970224
f 1/1/1 2/2/2 3/3/3
f 1/1/1 3/3/3 4/4/4
f 5/5/5 6/6/6 7/7/7
f 5/5/5 7/7/7 8/8/8
f 9/9/9 10/10/10 11/11/11
f 9/9/9 11/11/11 12/12/12
f 13/13/13 14/14/14 15/15/15
f 13/13/13 15/15/15 16/16/16
f 17/17/17 18/18/18 19/19/19
f 17/17/17 19/19/19 20/20/20
f 21/21/21 22/22/22 23/23/23
f 21/21/21 23/23/23 24/24/24
f 25/25/25 26/26/26 27/27/27
f 25/25/25 27/27/27 28/28/28
f 29/29/29 30/30/30 31/31/31
f 29/29/29 31/31/31 32/32/32
f 33/33/33 34/34/34 35/35/35
f 33/33/33 35/35/35 36/36/36
f 37/37/37 38/38/38 39/39/39
f 37/37/37 39/39/39 40/40/40
f 41/41/41 42/42/42 43/43/43
f 41/41/41 43/43/43 44/44/44
f 45/45/45 46/46/46 47/47/47
f 45/45/45 47/47/47 48/48/48
f 49/49/49 50/50/50 51/51/51
f 49/49/49 51/51/51 52/52/52
f 53/53/53 54/54/54 55/55/55
f 53/53/53 55/55/55 56/56/56
f 57/57/57 58/58/58 59/59/59
f 57/57/57 59/59/59 60/60/60
f 61/61/61 62/62/62 63/63/63
f 61/61/61 63/63/63 64/64/64
f 65/65/65 66/66/66 67/67/67
f 65/65/65 67/67/67 68/68/68
f 69/69/69 70/70/70 71/71/71
f 69/69/69 71/71/71 72/72/72
f 73/73/73 74/74/74 75/75/75
f 73/73/73 75/75/75 76/76/76
f 77/77/77 78/78/78 79/79/79
f 77/77/77 79/79/79 80/80/80
f 81/81/81 82/82/82 83/83/83
f 81/81/81 83/83/83 84/84/84
f 85/85/85 86/86/86 87/87/87
f 85/85/85 87/87/87 88/88/88
f 89/89/89 90/90/90 91/91/91
f 89/89/89 91/91/91 92/92/92
f 93/93/93 94/94/94 95/95/95
f 93/93/93 95/95/95 96/96/96
f 97/97/97 98/98/98 99/99/99
f 97/97/97 99/99/99 100/100/100
f 101/101/101 102/102/102 103/103/103
f 101/101/101 103/103/103 104/104/104
f 105/105/105 106/106/106 107/107/107
f 105/105/105 107/107/107 108/108/108
f 109/109/109 110/110/110 111/111/111
f 109/109/109 111/111/111 112/112/112
f 113/113/113 114/114/114 115/115/115
f 113/113/113 115/115/115 116/116/116
f 117/117/117 118/118/118 119/119/119
f 117/117/117 119/119/119 120/120/120
f 121/121/121 122/122/122 123/123/123
f 121/121/121 123/123/123 124/124/124
f 125/125/125 126/126/126 127/127/127
f 125/125/125 127/127/127 128/128/128
f 129/129/129 130/130/130 131/131/131
f 129/129/129 131/131/131 132/132/132
f 133/133/133 134/134/134 135/135/135
f 133/133/133 135/135/135 136/136/136
f 137/137/137 138/138/138 139/139/139
f 137/137/137 139/139/139 140/140/140
f 141/141/141 142/142/142 143/143/143
f 141/141/141 143/143/143 144/144/144
f 145/145/145 146/146/146 147/147/147
f 145/145/145 147/147/147 148/148/148
f 149/149/149 150/150/150 151/151/151
f 149/149/149 151/151/151 152/152/152
f 153/153/153 154/154/154 155/155/155
f 156/156/156 153/153/153 155/155/155
f 155/155/155 157/157/157 156/156/156
f 158/158/158 159/159/159 160/160/160
f 158/158/158 160/160/160 161/161/161
f 162/162/162 163/163/163 164/164/164
f 164/164/164 165/165/165 162/162/162
f 164/164/164 166/166/166 165/165/165
f 164/164/164 167/167/167 166/166/166
f 168/168/168 169/169/169 170/170/170
f 168/168/168 170/170/170 171/171/171
f 172/172/172 173/173/173 174/174/174
f 172/172/172 174/174/174 175/175/175
f 176/176/176 177/177/177 178/178/178
f 176/176/176 178/178/178 179/179/179
f 180/180/180 181/181/181 182/182/182
f 182/182/182 183/183/183 180/180/180
f 183/183/183 184/184/184 180/180/180
f 185/185/185 186/186/186 187/187/187
f 187/187/187 188/188/188 185/185/185
f 188/188/188 189/189/189 185/185/185
f 189/189/189 190/190/190 185/185/185
f 191/191/191 192/192/192 193/193/193
f 191/191/191 193/193/193 194/194/194
f 195/195/195 196/196/196 197/197/197
f 195/195/195 197/197/197 198/198/198
f 199/199/199 200/200/200 201/201/201
f 199/199/199 201/201/201 202/202/202
f 203/203/203 204/204/204 205/205/205
f 203/203/203 205/205/205 206/206/206
f 207/207/207 208/208/208 209/209/209
f 207/207/207 209/209/209 210/210/210
f 211/211/211 212/212/212 213/213/213
f 211/211/211 213/213/213 214/214/214
f 215/215/215 216/216/216 217/217/217
f 217/217/217 218/218/218 215/215/215
f 218/218/218 219/219/219 215/215/215
f 220/220/220 221/221/221 222/222/222
f 220/220/220 222/222/222 223/223/223
f 224/224/224 225/225/225 226/226/226
f 224/224/224 226/226/226 227/227/227
f 228/228/228 229/229/229 230/230/230
f 228/228/228 230/230/230 231/231/231
f 232/232/232 233/233/233 234/234/234
f 234/234/234 235/235/235 232/232/232
f 235/235/235 236/236/236 232/232/232
f 237/237/237 238/238/238 239/239/239
f 237/237/237 239/239/239 240/240/240
f 241/241/241 242/242/242 243/243/243
f 241/241/241 243/243/243 244/244/244
f 245/245/245 246/246/246 247/247/247
f 245/245/245 247/247/247 248/248/248
f 249/249/249 250/250/250 251/251/251
f 249/249/249 251/251/251 252/252/252
f 253/253/253 254/254/254 255/255/255
f 253/253/253 255/255/255 256/256/256
f 257/257/257 258/258/258 259/259/259
f 257/257/257 259/259/259 260/260/260
f 261/261/261 262/262/262 263/263/263
f 261/261/261 263/263/263 264/264/264
f 265/265/265 266/266/266 267/267/267
f 265/265/265 267/267/267 268/268/268
f 269/269/269 270/270/270 271/271/271
f 269/269/269 271/271/271 272/272/272
f 273/273/273 274/274/274 275/275/275
f 273/273/273 275/275/275 276/276/276
f 277/277/277 278/278/278 279/279/279
f 277/277/277 279/279/279 280/280/280
