# bucket_mask (gear rip -> Godot: Z negated + winding reversed)
v -0.138827 -0.164578 0.121946
v -0.190013 -0.224638 0.121946
v -0.138827 -0.224638 0.121946
v -0.190013 -0.224638 0.121946
v -0.218620 -0.224638 0.063698
v -0.190013 -0.224638 0.063698
v -0.218620 0.224638 0.226403
v -0.218620 0.164578 0.121946
v -0.218620 0.224638 0.121946
v -0.218620 -0.164578 0.121946
v -0.218620 -0.224638 0.226403
v -0.218620 -0.224638 0.121946
v -0.218620 -0.164578 0.121946
v -0.190013 -0.164578 0.063698
v -0.218620 -0.164578 0.063698
v -0.138827 -0.164578 0.121946
v -0.190013 -0.164578 -0.060167
v -0.138827 -0.164578 -0.118415
v -0.218620 -0.164578 0.121946
v -0.218620 0.164578 0.121946
v -0.218620 0.224638 0.226403
v -0.218620 0.164578 -0.118415
v -0.218620 -0.224638 -0.222872
v -0.218620 0.224638 -0.222872
v -0.218620 0.164578 -0.118415
v -0.218620 0.224638 -0.118415
v -0.190013 0.224638 0.063698
v -0.138827 0.224638 -0.060167
v -0.190013 0.224638 -0.060167
v -0.218620 0.164578 -0.060167
v -0.218620 -0.164578 -0.118415
v -0.218620 0.164578 -0.118415
v -0.218620 -0.224638 0.226403
v -0.722715 -0.224638 0.226403
v -0.218620 -0.224638 0.121946
v -0.218620 -0.224638 -0.060167
v -0.218620 -0.224638 -0.118415
v -0.190013 -0.224638 -0.060167
v -0.722715 -0.224638 0.226403
v -0.218620 -0.224638 0.063698
v -0.722715 -0.224638 -0.222872
v -0.722715 -0.224638 0.226403
v -0.722715 -0.164578 -0.222872
v -0.722715 -0.224638 -0.222872
v -0.218620 0.164578 -0.060167
v -0.218620 0.164578 0.063698
v -0.218620 -0.164578 0.063698
v -0.218620 -0.224638 0.121946
v -0.722715 -0.224638 0.226403
v -0.218620 -0.224638 0.063698
v -0.722715 0.224638 -0.222872
v -0.569158 0.030242 -0.222872
v -0.722715 -0.164578 -0.222872
v -0.569158 0.164578 -0.222872
v -0.428732 0.224638 -0.222872
v -0.190013 0.164578 -0.060167
v -0.138827 0.164578 0.121946
v -0.190013 0.164578 0.063698
v -0.722715 -0.164578 -0.222872
v -0.569158 -0.164578 -0.222872
v -0.722715 -0.224638 -0.222872
v -0.455884 -0.164578 -0.222872
v -0.218620 -0.224638 -0.222872
v -0.455884 0.030242 -0.222872
v -0.455884 -0.030242 -0.222872
v -0.569158 -0.030242 -0.222872
v -0.569158 0.030242 -0.222872
v -0.569158 0.164578 -0.222872
v -0.428732 0.224638 -0.222872
v -0.455884 0.164578 -0.222872
v -0.455884 0.030242 -0.222872
v -0.455884 -0.030242 -0.222872
v -0.569158 -0.030242 -0.222872
v -0.569158 0.164578 -0.222872
v -0.569158 0.030242 -0.222872
v -0.722715 0.224638 -0.222872
v -0.190013 -0.224638 -0.060167
v -0.218620 -0.224638 -0.118415
v -0.138827 -0.224638 -0.118415
v -0.138827 0.164578 0.121946
v -0.138827 0.224638 -0.060167
v -0.138827 0.224638 0.121946
v -0.190013 0.224638 0.063698
v -0.138827 0.224638 0.121946
v -0.138827 0.224638 -0.060167
v -0.138827 -0.164578 0.121946
v -0.190013 -0.164578 0.063698
v -0.218620 -0.164578 0.121946
v -0.190013 -0.224638 -0.060167
v -0.138827 -0.224638 0.121946
v -0.190013 -0.224638 0.063698
v -0.190013 -0.224638 -0.060167
v -0.138827 -0.224638 -0.118415
v -0.138827 -0.224638 0.121946
v -0.190013 -0.224638 0.063698
v -0.190013 -0.224638 0.121946
v -0.218620 -0.224638 -0.222872
v -0.455884 -0.164578 -0.222872
v -0.455884 -0.030242 -0.222872
v -0.138827 0.224638 -0.118415
v -0.190013 0.224638 -0.060167
v -0.138827 0.224638 -0.060167
v -0.455884 -0.164578 -0.222872
v -0.722715 -0.224638 -0.222872
v -0.569158 -0.164578 -0.222872
v -0.190013 0.164578 -0.060167
v -0.138827 0.164578 -0.118415
v -0.138827 0.164578 0.121946
v -0.190013 0.164578 0.063698
v -0.218620 0.164578 0.121946
v -0.218620 0.164578 0.063698
v -0.218620 -0.224638 0.121946
v -0.218620 -0.224638 0.063698
v -0.190013 -0.224638 0.121946
v -0.318620 0.234638 0.236403
v -0.268620 0.234638 0.236403
v -0.268620 0.234638 -0.232872
v -0.318620 0.234638 -0.232872
v -0.318620 0.234638 -0.232872
v -0.268620 0.234638 -0.232872
v -0.268620 -0.234638 -0.232872
v -0.318620 -0.234638 -0.232872
v -0.318620 -0.234638 -0.232872
v -0.268620 -0.234638 -0.232872
v -0.268620 -0.234638 0.236403
v -0.318620 -0.234638 0.236403
v -0.318620 -0.234638 0.236403
v -0.268620 -0.234638 0.236403
v -0.268620 0.234638 0.236403
v -0.318620 0.234638 0.236403
v -0.268620 0.234638 0.236403
v -0.268620 -0.234638 0.236403
v -0.268620 -0.234638 -0.232872
v -0.268620 0.234638 -0.232872
v -0.318620 -0.234638 0.236403
v -0.318620 0.234638 0.236403
v -0.318620 0.234638 -0.232872
v -0.318620 -0.234638 -0.232872
v -0.672715 0.234638 0.236403
v -0.622715 0.234638 0.236403
v -0.622715 0.234638 -0.232872
v -0.672715 0.234638 -0.232872
v -0.672715 0.234638 -0.232872
v -0.622715 0.234638 -0.232872
v -0.622715 -0.234638 -0.232872
v -0.672715 -0.234638 -0.232872
v -0.672715 -0.234638 -0.232872
v -0.622715 -0.234638 -0.232872
v -0.622715 -0.234638 0.236403
v -0.672715 -0.234638 0.236403
v -0.672715 -0.234638 0.236403
v -0.622715 -0.234638 0.236403
v -0.622715 0.234638 0.236403
v -0.672715 0.234638 0.236403
v -0.622715 0.234638 0.236403
v -0.622715 -0.234638 0.236403
v -0.622715 -0.234638 -0.232872
v -0.622715 0.234638 -0.232872
v -0.672715 -0.234638 0.236403
v -0.672715 0.234638 0.236403
v -0.672715 0.234638 -0.232872
v -0.672715 -0.234638 -0.232872
v -0.218620 0.164578 -0.060167
v -0.190013 0.164578 -0.060167
v -0.218620 0.224638 -0.060167
v -0.190013 0.224638 -0.060167
v -0.218620 0.224638 0.121946
v -0.722715 0.224638 0.226403
v -0.218620 0.224638 0.226403
v -0.218620 0.224638 0.063698
v -0.428732 0.224638 -0.222872
v -0.218620 0.224638 -0.118415
v -0.218620 0.224638 -0.222872
v -0.218620 0.224638 -0.060167
v -0.218620 0.224638 0.063698
v -0.722715 0.224638 0.226403
v -0.722715 0.224638 -0.222872
v -0.218620 0.224638 0.121946
v -0.190013 0.224638 0.063698
v -0.138827 0.224638 0.121946
v -0.218620 -0.164578 -0.060167
v -0.218620 -0.224638 0.063698
v -0.218620 -0.224638 -0.060167
v -0.218620 -0.164578 0.063698
v -0.218620 0.164578 -0.060167
v -0.218620 -0.164578 -0.118415
v -0.218620 0.164578 -0.118415
v -0.218620 -0.224638 -0.222872
v -0.218620 -0.224638 -0.118415
v -0.218620 -0.164578 -0.060167
v -0.190013 -0.164578 -0.060167
v -0.218620 -0.164578 -0.118415
v -0.138827 -0.164578 -0.118415
v -0.455884 0.164578 -0.222872
v -0.455884 0.164578 -0.157159
v -0.569158 0.164578 -0.222872
v -0.569158 0.164578 -0.157159
v -0.190013 0.224638 0.063698
v -0.190013 0.224638 -0.060167
v -0.190013 0.164578 0.063698
v -0.190013 0.164578 -0.060167
v -0.138827 0.224638 0.121946
v -0.218620 0.164578 0.121946
v -0.138827 0.164578 0.121946
v -0.218620 0.224638 0.121946
v -0.190013 -0.164578 0.063698
v -0.190013 -0.164578 -0.060167
v -0.190013 -0.224638 0.063698
v -0.190013 -0.224638 -0.060167
v -0.138827 -0.164578 0.121946
v -0.218620 -0.164578 0.121946
v -0.190013 -0.224638 0.121946
v -0.218620 -0.224638 0.121946
v -0.722715 0.224638 0.226403
v -0.722715 -0.164578 -0.222872
v -0.722715 -0.224638 0.226403
v -0.722715 0.224638 -0.222872
v -0.569158 0.164578 -0.157159
v -0.455884 0.164578 -0.157159
v -0.569158 0.030242 -0.157159
v -0.455884 0.030242 -0.157159
v -0.218620 0.224638 0.063698
v -0.218620 0.164578 0.063698
v -0.218620 0.224638 -0.060167
v -0.218620 0.164578 -0.060167
v -0.138827 0.224638 -0.060167
v -0.138827 0.164578 -0.118415
v -0.138827 0.224638 -0.118415
v -0.138827 0.164578 0.121946
v -0.722715 -0.164578 -0.222872
v -0.569158 -0.030242 -0.222872
v -0.569158 -0.164578 -0.222872
v -0.569158 0.030242 -0.222872
v -0.218620 -0.224638 -0.060167
v -0.722715 -0.224638 -0.222872
v -0.218620 -0.224638 -0.118415
v -0.218620 -0.224638 -0.222872
v -0.218620 -0.164578 0.063698
v -0.218620 0.164578 0.063698
v -0.218620 -0.164578 0.121946
v -0.218620 0.164578 0.121946
v -0.138827 -0.224638 -0.118415
v -0.218620 -0.164578 -0.118415
v -0.138827 -0.164578 -0.118415
v -0.218620 -0.224638 -0.118415
v -0.218620 0.164578 0.063698
v -0.190013 0.224638 0.063698
v -0.190013 0.164578 0.063698
v -0.218620 0.224638 0.063698
v -0.455884 -0.030242 -0.222872
v -0.455884 -0.030242 -0.157159
v -0.569158 -0.030242 -0.222872
v -0.569158 -0.030242 -0.157159
v -0.218620 -0.224638 -0.060167
v -0.190013 -0.224638 -0.060167
v -0.218620 -0.164578 -0.060167
v -0.190013 -0.164578 -0.060167
v -0.218620 -0.164578 0.063698
v -0.190013 -0.164578 0.063698
v -0.218620 -0.224638 0.063698
v -0.190013 -0.224638 0.063698
v -0.138827 -0.224638 0.121946
v -0.138827 -0.224638 -0.118415
v -0.138827 -0.164578 0.121946
v -0.138827 -0.164578 -0.118415
v -0.218620 0.164578 -0.118415
v -0.190013 0.164578 -0.060167
v -0.218620 0.164578 -0.060167
v -0.138827 0.164578 -0.118415
v -0.722715 0.224638 0.226403
v -0.218620 -0.224638 0.226403
v -0.218620 0.224638 0.226403
v -0.722715 -0.224638 0.226403
v -0.428732 0.224638 -0.222872
v -0.218620 0.224638 -0.222872
v -0.455884 0.164578 -0.222872
v -0.455884 0.030242 -0.222872
v -0.218620 -0.224638 -0.222872
v -0.138827 0.224638 -0.118415
v -0.218620 0.224638 -0.118415
v -0.190013 0.224638 -0.060167
v -0.218620 0.224638 -0.060167
v -0.569158 -0.164578 -0.157159
v -0.455884 -0.030242 -0.157159
v -0.455884 -0.164578 -0.157159
v -0.569158 -0.030242 -0.157159
v -0.455884 0.164578 -0.222872
v -0.455884 0.030242 -0.157159
v -0.455884 0.164578 -0.157159
v -0.455884 0.030242 -0.222872
v -0.569158 0.030242 -0.222872
v -0.569158 0.164578 -0.157159
v -0.569158 0.030242 -0.157159
v -0.569158 0.164578 -0.222872
v -0.455884 -0.164578 -0.222872
v -0.569158 -0.164578 -0.157159
v -0.455884 -0.164578 -0.157159
v -0.569158 -0.164578 -0.222872
v -0.455884 0.030242 -0.222872
v -0.569158 0.030242 -0.157159
v -0.455884 0.030242 -0.157159
v -0.569158 0.030242 -0.222872
v -0.455884 -0.030242 -0.222872
v -0.455884 -0.164578 -0.157159
v -0.455884 -0.030242 -0.157159
v -0.455884 -0.164578 -0.222872
v -0.569158 -0.164578 -0.222872
v -0.569158 -0.030242 -0.157159
v -0.569158 -0.164578 -0.157159
v -0.569158 -0.030242 -0.222872
v -0.138827 0.164578 -0.118415
v -0.218620 0.224638 -0.118415
v -0.138827 0.224638 -0.118415
v -0.218620 0.164578 -0.118415
vt 0.287087619 0.536118686
vt 0.150286585 0.536118686
vt 0.150286585 0.536118686
vt 0.287087619 0.536118686
vt 0.150286585 0.536118686
vt 0.150286585 0.536118686
vt 0.150286585 0.399317652
vt 0.287087619 0.536118686
vt 0.287087619 0.399317652
vt 0.287087619 0.399317652
vt 0.150286585 0.536118686
vt 0.287087619 0.536118686
vt 0.150286585 0.399317652
vt 0.287087619 0.399317652
vt 0.287087619 0.399317652
vt 0.150286585 0.536118686
vt 0.150286585 0.536118686
vt 0.287087619 0.536118686
vt 0.287087619 0.399317652
vt 0.287087619 0.536118686
vt 0.150286585 0.399317652
vt 0.287087619 0.399317652
vt 0.150286585 0.399317652
vt 0.150286585 0.536118686
vt 0.287087619 0.399317652
vt 0.287087619 0.536118686
vt 0.287087619 0.536118686
vt 0.150286585 0.399317652
vt 0.150286585 0.536118686
vt 0.287087619 0.536118686
vt 0.150286585 0.399317652
vt 0.287087619 0.399317652
vt 0.287087619 0.536118686
vt 0.287087619 0.399317652
vt 0.150286585 0.536118686
vt 0.287087619 0.399317652
vt 0.287087619 0.536118686
vt 0.287087619 0.399317652
vt 0.287087619 0.399317652
vt 0.287087619 0.536118686
vt 0.150286585 0.399317652
vt 0.150286585 0.399317652
vt 0.287087619 0.399317652
vt 0.287087619 0.399317652
vt 0.287087619 0.536118686
vt 0.150286585 0.536118686
vt 0.150286585 0.399317652
vt 0.150286585 0.536118686
vt 0.287087619 0.399317652
vt 0.287087619 0.536118686
vt 0.150286585 0.399317652
vt 0.287087619 0.536118686
vt 0.287087619 0.399317652
vt 0.287087619 0.399317652
vt 0.150286585 0.536118686
vt 0.150286585 0.399317652
vt 0.287087619 0.536118686
vt 0.150286585 0.536118686
vt 0.150286585 0.399317652
vt 0.150286585 0.536118686
vt 0.287087619 0.399317652
vt 0.150286585 0.536118686
vt 0.287087619 0.536118686
vt 0.150286585 0.536118686
vt 0.150286585 0.399317652
vt 0.287087619 0.399317652
vt 0.150286585 0.399317652
vt 0.287087619 0.399317652
vt 0.150286585 0.536118686
vt 0.287087619 0.536118686
vt 0.150286585 0.536118686
vt 0.150286585 0.399317652
vt 0.287087619 0.399317652
vt 0.287087619 0.399317652
vt 0.287087619 0.536118686
vt 0.150286585 0.399317652
vt 0.287087619 0.399317652
vt 0.287087619 0.536118686
vt 0.150286585 0.536118686
vt 0.150286585 0.536118686
vt 0.150286585 0.399317652
vt 0.150286585 0.399317652
vt 0.287087619 0.536118686
vt 0.150286585 0.536118686
vt 0.150286585 0.399317652
vt 0.150286585 0.536118686
vt 0.287087619 0.399317652
vt 0.150286585 0.399317652
vt 0.287087619 0.399317652
vt 0.287087619 0.536118686
vt 0.150286585 0.399317652
vt 0.287087619 0.399317652
vt 0.150286585 0.536118686
vt 0.287087619 0.536118686
vt 0.150286585 0.399317652
vt 0.287087619 0.399317652
vt 0.287087619 0.536118686
vt 0.150286585 0.536118686
vt 0.150286585 0.399317652
vt 0.287087619 0.536118686
vt 0.150286585 0.536118686
vt 0.150286585 0.536118686
vt 0.150286585 0.536118686
vt 0.287087619 0.399317652
vt 0.150286585 0.536118686
vt 0.150286585 0.399317652
vt 0.150286585 0.536118686
vt 0.287087619 0.536118686
vt 0.150286585 0.536118686
vt 0.287087619 0.399317652
vt 0.150286585 0.399317652
vt 0.287087619 0.399317652
vt 0.150286585 0.536118686
vt 0.287087619 0.536118686
vt 0.768180549 0.334682047
vt 0.768180549 0.480850518
vt 0.91434902 0.480850518
vt 0.91434902 0.334682047
vt 0.768180549 0.334682047
vt 0.768180549 0.480850518
vt 0.91434902 0.480850518
vt 0.91434902 0.334682047
vt 0.768180549 0.334682047
vt 0.768180549 0.480850518
vt 0.91434902 0.480850518
vt 0.91434902 0.334682047
vt 0.768180549 0.334682047
vt 0.768180549 0.480850518
vt 0.91434902 0.480850518
vt 0.91434902 0.334682047
vt 0.768180549 0.334682047
vt 0.768180549 0.480850518
vt 0.91434902 0.480850518
vt 0.91434902 0.334682047
vt 0.768180549 0.334682047
vt 0.768180549 0.480850518
vt 0.91434902 0.480850518
vt 0.91434902 0.334682047
vt 0.768180549 0.334682047
vt 0.768180549 0.480850518
vt 0.91434902 0.480850518
vt 0.91434902 0.334682047
vt 0.768180549 0.334682047
vt 0.768180549 0.480850518
vt 0.91434902 0.480850518
vt 0.91434902 0.334682047
vt 0.768180549 0.334682047
vt 0.768180549 0.480850518
vt 0.91434902 0.480850518
vt 0.91434902 0.334682047
vt 0.768180549 0.334682047
vt 0.768180549 0.480850518
vt 0.91434902 0.480850518
vt 0.91434902 0.334682047
vt 0.768180549 0.334682047
vt 0.768180549 0.480850518
vt 0.91434902 0.480850518
vt 0.91434902 0.334682047
vt 0.768180549 0.334682047
vt 0.768180549 0.480850518
vt 0.91434902 0.480850518
vt 0.91434902 0.334682047
vt 0.150286585 0.399317652
vt 0.150286585 0.536118686
vt 0.287087619 0.399317652
vt 0.287087619 0.536118686
vt 0.287087619 0.536118686
vt 0.150286585 0.399317652
vt 0.150286585 0.536118686
vt 0.287087619 0.399317652
vt 0.287087619 0.399317652
vt 0.287087619 0.536118686
vt 0.287087619 0.536118686
vt 0.287087619 0.536118686
vt 0.287087619 0.399317652
vt 0.150286585 0.399317652
vt 0.287087619 0.399317652
vt 0.287087619 0.536118686
vt 0.287087619 0.536118686
vt 0.150286585 0.536118686
vt 0.287087619 0.536118686
vt 0.150286585 0.399317652
vt 0.150286585 0.536118686
vt 0.150286585 0.399317652
vt 0.287087619 0.536118686
vt 0.150286585 0.399317652
vt 0.287087619 0.399317652
vt 0.150286585 0.399317652
vt 0.287087619 0.399317652
vt 0.150286585 0.399317652
vt 0.150286585 0.536118686
vt 0.287087619 0.399317652
vt 0.287087619 0.536118686
vt 0.150286585 0.399317652
vt 0.150286585 0.536118686
vt 0.287087619 0.399317652
vt 0.287087619 0.536118686
vt 0.150286585 0.536118686
vt 0.287087619 0.536118686
vt 0.150286585 0.399317652
vt 0.287087619 0.399317652
vt 0.287087619 0.536118686
vt 0.150286585 0.399317652
vt 0.150286585 0.536118686
vt 0.287087619 0.399317652
vt 0.150286585 0.536118686
vt 0.287087619 0.536118686
vt 0.150286585 0.399317652
vt 0.287087619 0.399317652
vt 0.287087619 0.536118686
vt 0.287087619 0.399317652
vt 0.150286585 0.536118686
vt 0.150286585 0.399317652
vt 0.150286585 0.536118686
vt 0.287087619 0.399317652
vt 0.150286585 0.399317652
vt 0.287087619 0.536118686
vt 0.150286585 0.399317652
vt 0.150286585 0.536118686
vt 0.287087619 0.399317652
vt 0.287087619 0.536118686
vt 0.150286585 0.399317652
vt 0.150286585 0.536118686
vt 0.287087619 0.399317652
vt 0.287087619 0.536118686
vt 0.150286585 0.399317652
vt 0.287087619 0.536118686
vt 0.287087619 0.399317652
vt 0.150286585 0.536118686
vt 0.287087619 0.399317652
vt 0.287087619 0.536118686
vt 0.287087619 0.536118686
vt 0.287087619 0.536118686
vt 0.287087619 0.399317652
vt 0.150286585 0.399317652
vt 0.287087619 0.536118686
vt 0.150286585 0.536118686
vt 0.150286585 0.399317652
vt 0.150286585 0.536118686
vt 0.287087619 0.399317652
vt 0.287087619 0.536118686
vt 0.287087619 0.536118686
vt 0.150286585 0.399317652
vt 0.150286585 0.536118686
vt 0.287087619 0.399317652
vt 0.287087619 0.399317652
vt 0.150286585 0.536118686
vt 0.287087619 0.536118686
vt 0.150286585 0.399317652
vt 0.150286585 0.399317652
vt 0.150286585 0.536118686
vt 0.287087619 0.399317652
vt 0.287087619 0.536118686
vt 0.150286585 0.399317652
vt 0.150286585 0.536118686
vt 0.287087619 0.399317652
vt 0.287087619 0.536118686
vt 0.150286585 0.399317652
vt 0.150286585 0.536118686
vt 0.287087619 0.399317652
vt 0.287087619 0.536118686
vt 0.150286585 0.399317652
vt 0.150286585 0.536118686
vt 0.287087619 0.399317652
vt 0.287087619 0.536118686
vt 0.150286585 0.399317652
vt 0.150286585 0.399317652
vt 0.287087619 0.399317652
vt 0.150286585 0.536118686
vt 0.287087619 0.399317652
vt 0.150286585 0.536118686
vt 0.287087619 0.536118686
vt 0.150286585 0.399317652
vt 0.150286585 0.399317652
vt 0.150286585 0.536118686
vt 0.150286585 0.399317652
vt 0.150286585 0.536118686
vt 0.287087619 0.536118686
vt 0.287087619 0.536118686
vt 0.287087619 0.399317652
vt 0.150286585 0.536118686
vt 0.150286585 0.399317652
vt 0.287087619 0.399317652
vt 0.150286585 0.536118686
vt 0.287087619 0.536118686
vt 0.150286585 0.399317652
vt 0.287087619 0.399317652
vt 0.150286585 0.536118686
vt 0.287087619 0.536118686
vt 0.150286585 0.399317652
vt 0.287087619 0.399317652
vt 0.150286585 0.536118686
vt 0.287087619 0.536118686
vt 0.150286585 0.399317652
vt 0.287087619 0.399317652
vt 0.150286585 0.536118686
vt 0.287087619 0.536118686
vt 0.150286585 0.399317652
vt 0.287087619 0.399317652
vt 0.150286585 0.536118686
vt 0.287087619 0.536118686
vt 0.150286585 0.399317652
vt 0.287087619 0.399317652
vt 0.150286585 0.536118686
vt 0.287087619 0.536118686
vt 0.150286585 0.399317652
vt 0.287087619 0.399317652
vt 0.150286585 0.536118686
vt 0.287087619 0.536118686
vt 0.150286585 0.399317652
vt 0.287087619 0.536118686
vt 0.150286585 0.399317652
vt 0.150286585 0.536118686
vt 0.287087619 0.399317652
vn 0.000000 0.000000 1.000000
vn 0.000000 0.000000 1.000000
vn 0.000000 0.000000 1.000000
vn -0.000000 -1.000000 0.000000
vn -0.000000 -1.000000 0.000000
vn -0.000000 -1.000000 0.000000
vn 1.000000 -0.000000 -0.000000
vn 1.000000 -0.000000 -0.000000
vn 1.000000 -0.000000 -0.000000
vn 1.000000 -0.000000 -0.000000
vn 1.000000 -0.000000 -0.000000
vn 1.000000 -0.000000 -0.000000
vn 0.000000 1.000000 -0.000000
vn 0.000000 1.000000 -0.000000
vn 0.000000 1.000000 -0.000000
vn 0.000000 1.000000 -0.000000
vn 0.000000 1.000000 -0.000000
vn 0.000000 1.000000 -0.000000
vn 1.000000 -0.000000 -0.000000
vn 1.000000 -0.000000 -0.000000
vn 1.000000 -0.000000 -0.000000
vn 1.000000 -0.000000 -0.000000
vn 1.000000 -0.000000 -0.000000
vn 1.000000 -0.000000 -0.000000
vn 1.000000 -0.000000 -0.000000
vn 1.000000 -0.000000 -0.000000
vn 0.000000 1.000000 -0.000000
vn 0.000000 1.000000 -0.000000
vn 0.000000 1.000000 -0.000000
vn 1.000000 -0.000000 -0.000000
vn 1.000000 -0.000000 -0.000000
vn 1.000000 -0.000000 -0.000000
vn -0.000000 -1.000000 0.000000
vn -0.000000 -1.000000 0.000000
vn -0.000000 -1.000000 0.000000
vn -0.000000 -1.000000 0.000000
vn -0.000000 -1.000000 0.000000
vn -0.000000 -1.000000 0.000000
vn -0.000000 -1.000000 0.000000
vn -0.000000 -1.000000 0.000000
vn -0.000000 -1.000000 0.000000
vn -1.000000 0.000000 0.000000
vn -1.000000 0.000000 0.000000
vn -1.000000 0.000000 0.000000
vn 1.000000 -0.000000 -0.000000
vn 1.000000 -0.000000 -0.000000
vn 1.000000 -0.000000 -0.000000
vn -0.000000 -1.000000 0.000000
vn -0.000000 -1.000000 0.000000
vn -0.000000 -1.000000 0.000000
vn -0.000000 -0.000000 -1.000000
vn -0.000000 -0.000000 -1.000000
vn -0.000000 -0.000000 -1.000000
vn -0.000000 -0.000000 -1.000000
vn -0.000000 -0.000000 -1.000000
vn -0.000000 -1.000000 0.000000
vn -0.000000 -1.000000 0.000000
vn -0.000000 -1.000000 0.000000
vn -0.000000 -0.000000 -1.000000
vn -0.000000 -0.000000 -1.000000
vn -0.000000 -0.000000 -1.000000
vn -0.000000 -0.000000 -1.000000
vn -0.000000 -0.000000 -1.000000
vn -0.000000 -0.000000 -1.000000
vn -0.000000 -0.000000 -1.000000
vn -0.000000 -0.000000 -1.000000
vn -0.000000 -0.000000 -1.000000
vn -0.000000 -0.000000 -1.000000
vn -0.000000 -0.000000 -1.000000
vn -0.000000 -0.000000 -1.000000
vn -0.000000 -0.000000 -1.000000
vn -0.000000 -0.000000 -1.000000
vn -0.000000 -0.000000 -1.000000
vn -0.000000 -0.000000 -1.000000
vn -0.000000 -0.000000 -1.000000
vn -0.000000 -0.000000 -1.000000
vn -0.000000 -1.000000 0.000000
vn -0.000000 -1.000000 0.000000
vn -0.000000 -1.000000 0.000000
vn 1.000000 -0.000000 -0.000000
vn 1.000000 -0.000000 -0.000000
vn 1.000000 -0.000000 -0.000000
vn 0.000000 1.000000 -0.000000
vn 0.000000 1.000000 -0.000000
vn 0.000000 1.000000 -0.000000
vn 0.000000 1.000000 -0.000000
vn 0.000000 1.000000 -0.000000
vn 0.000000 1.000000 -0.000000
vn -0.000000 -1.000000 0.000000
vn -0.000000 -1.000000 0.000000
vn -0.000000 -1.000000 0.000000
vn -0.000000 -1.000000 0.000000
vn -0.000000 -1.000000 0.000000
vn -0.000000 -1.000000 0.000000
vn -0.000000 -1.000000 0.000000
vn -0.000000 -1.000000 0.000000
vn -0.000000 -0.000000 -1.000000
vn -0.000000 -0.000000 -1.000000
vn -0.000000 -0.000000 -1.000000
vn 0.000000 1.000000 -0.000000
vn 0.000000 1.000000 -0.000000
vn 0.000000 1.000000 -0.000000
vn -0.000000 -0.000000 -1.000000
vn -0.000000 -0.000000 -1.000000
vn -0.000000 -0.000000 -1.000000
vn -0.000000 -1.000000 0.000000
vn -0.000000 -1.000000 0.000000
vn -0.000000 -1.000000 0.000000
vn -0.000000 -1.000000 0.000000
vn -0.000000 -1.000000 0.000000
vn -0.000000 -1.000000 0.000000
vn -0.000000 -1.000000 0.000000
vn -0.000000 -1.000000 0.000000
vn -0.000000 -1.000000 0.000000
vn 0.000000 1.000000 -0.000000
vn 0.000000 1.000000 -0.000000
vn 0.000000 1.000000 -0.000000
vn 0.000000 1.000000 -0.000000
vn -0.000000 -0.000000 -1.000000
vn -0.000000 -0.000000 -1.000000
vn -0.000000 -0.000000 -1.000000
vn -0.000000 -0.000000 -1.000000
vn -0.000000 -1.000000 0.000000
vn -0.000000 -1.000000 0.000000
vn -0.000000 -1.000000 0.000000
vn -0.000000 -1.000000 0.000000
vn 0.000000 0.000000 1.000000
vn 0.000000 0.000000 1.000000
vn 0.000000 0.000000 1.000000
vn 0.000000 0.000000 1.000000
vn 1.000000 -0.000000 -0.000000
vn 1.000000 -0.000000 -0.000000
vn 1.000000 -0.000000 -0.000000
vn 1.000000 -0.000000 -0.000000
vn -1.000000 0.000000 0.000000
vn -1.000000 0.000000 0.000000
vn -1.000000 0.000000 0.000000
vn -1.000000 0.000000 0.000000
vn 0.000000 1.000000 -0.000000
vn 0.000000 1.000000 -0.000000
vn 0.000000 1.000000 -0.000000
vn 0.000000 1.000000 -0.000000
vn -0.000000 -0.000000 -1.000000
vn -0.000000 -0.000000 -1.000000
vn -0.000000 -0.000000 -1.000000
vn -0.000000 -0.000000 -1.000000
vn -0.000000 -1.000000 0.000000
vn -0.000000 -1.000000 0.000000
vn -0.000000 -1.000000 0.000000
vn -0.000000 -1.000000 0.000000
vn 0.000000 0.000000 1.000000
vn 0.000000 0.000000 1.000000
vn 0.000000 0.000000 1.000000
vn 0.000000 0.000000 1.000000
vn 1.000000 -0.000000 -0.000000
vn 1.000000 -0.000000 -0.000000
vn 1.000000 -0.000000 -0.000000
vn 1.000000 -0.000000 -0.000000
vn -1.000000 0.000000 0.000000
vn -1.000000 0.000000 0.000000
vn -1.000000 0.000000 0.000000
vn -1.000000 0.000000 0.000000
vn 0.000000 0.000000 1.000000
vn 0.000000 0.000000 1.000000
vn 0.000000 0.000000 1.000000
vn 0.000000 0.000000 1.000000
vn 0.000000 1.000000 -0.000000
vn 0.000000 1.000000 -0.000000
vn 0.000000 1.000000 -0.000000
vn 0.000000 1.000000 -0.000000
vn 0.000000 1.000000 -0.000000
vn 0.000000 1.000000 -0.000000
vn 0.000000 1.000000 -0.000000
vn 0.000000 1.000000 -0.000000
vn 0.000000 1.000000 -0.000000
vn 0.000000 1.000000 -0.000000
vn 0.000000 1.000000 -0.000000
vn 0.000000 1.000000 -0.000000
vn 0.000000 1.000000 -0.000000
vn 0.000000 1.000000 -0.000000
vn 1.000000 -0.000000 -0.000000
vn 1.000000 -0.000000 -0.000000
vn 1.000000 -0.000000 -0.000000
vn 1.000000 -0.000000 -0.000000
vn 1.000000 -0.000000 -0.000000
vn 1.000000 -0.000000 -0.000000
vn 1.000000 -0.000000 -0.000000
vn 1.000000 -0.000000 -0.000000
vn 1.000000 -0.000000 -0.000000
vn 0.000000 1.000000 -0.000000
vn 0.000000 1.000000 -0.000000
vn 0.000000 1.000000 -0.000000
vn 0.000000 1.000000 -0.000000
vn -0.000000 -1.000000 0.000000
vn -0.000000 -1.000000 0.000000
vn -0.000000 -1.000000 0.000000
vn -0.000000 -1.000000 0.000000
vn -1.000000 0.000000 0.000000
vn -1.000000 0.000000 0.000000
vn -1.000000 0.000000 0.000000
vn -1.000000 0.000000 0.000000
vn 0.000000 0.000000 1.000000
vn 0.000000 0.000000 1.000000
vn 0.000000 0.000000 1.000000
vn 0.000000 0.000000 1.000000
vn -1.000000 0.000000 0.000000
vn -1.000000 0.000000 0.000000
vn -1.000000 0.000000 0.000000
vn -1.000000 0.000000 0.000000
vn 0.000000 0.000000 1.000000
vn 0.000000 0.000000 1.000000
vn 0.000000 0.000000 1.000000
vn 0.000000 0.000000 1.000000
vn -1.000000 0.000000 0.000000
vn -1.000000 0.000000 0.000000
vn -1.000000 0.000000 0.000000
vn -1.000000 0.000000 0.000000
vn -0.000000 -0.000000 -1.000000
vn -0.000000 -0.000000 -1.000000
vn -0.000000 -0.000000 -1.000000
vn -0.000000 -0.000000 -1.000000
vn 1.000000 -0.000000 -0.000000
vn 1.000000 -0.000000 -0.000000
vn 1.000000 -0.000000 -0.000000
vn 1.000000 -0.000000 -0.000000
vn 1.000000 -0.000000 -0.000000
vn 1.000000 -0.000000 -0.000000
vn 1.000000 -0.000000 -0.000000
vn 1.000000 -0.000000 -0.000000
vn -0.000000 -0.000000 -1.000000
vn -0.000000 -0.000000 -1.000000
vn -0.000000 -0.000000 -1.000000
vn -0.000000 -0.000000 -1.000000
vn -0.000000 -1.000000 0.000000
vn -0.000000 -1.000000 0.000000
vn -0.000000 -1.000000 0.000000
vn -0.000000 -1.000000 0.000000
vn 1.000000 -0.000000 -0.000000
vn 1.000000 -0.000000 -0.000000
vn 1.000000 -0.000000 -0.000000
vn 1.000000 -0.000000 -0.000000
vn -0.000000 -0.000000 -1.000000
vn -0.000000 -0.000000 -1.000000
vn -0.000000 -0.000000 -1.000000
vn -0.000000 -0.000000 -1.000000
vn -0.000000 -0.000000 -1.000000
vn -0.000000 -0.000000 -1.000000
vn -0.000000 -0.000000 -1.000000
vn -0.000000 -0.000000 -1.000000
vn -0.000000 -1.000000 0.000000
vn -0.000000 -1.000000 0.000000
vn -0.000000 -1.000000 0.000000
vn -0.000000 -1.000000 0.000000
vn 0.000000 0.000000 1.000000
vn 0.000000 0.000000 1.000000
vn 0.000000 0.000000 1.000000
vn 0.000000 0.000000 1.000000
vn -0.000000 -0.000000 -1.000000
vn -0.000000 -0.000000 -1.000000
vn -0.000000 -0.000000 -1.000000
vn -0.000000 -0.000000 -1.000000
vn 1.000000 -0.000000 -0.000000
vn 1.000000 -0.000000 -0.000000
vn 1.000000 -0.000000 -0.000000
vn 1.000000 -0.000000 -0.000000
vn -0.000000 -1.000000 0.000000
vn -0.000000 -1.000000 0.000000
vn -0.000000 -1.000000 0.000000
vn -0.000000 -1.000000 0.000000
vn 0.000000 0.000000 1.000000
vn 0.000000 0.000000 1.000000
vn 0.000000 0.000000 1.000000
vn 0.000000 0.000000 1.000000
vn -0.000000 -0.000000 -1.000000
vn -0.000000 -0.000000 -1.000000
vn -0.000000 -0.000000 -1.000000
vn -0.000000 -0.000000 -1.000000
vn -0.000000 -0.000000 -1.000000
vn 0.000000 1.000000 -0.000000
vn 0.000000 1.000000 -0.000000
vn 0.000000 1.000000 -0.000000
vn 0.000000 1.000000 -0.000000
vn -0.000000 -0.000000 -1.000000
vn -0.000000 -0.000000 -1.000000
vn -0.000000 -0.000000 -1.000000
vn -0.000000 -0.000000 -1.000000
vn -1.000000 0.000000 0.000000
vn -1.000000 0.000000 0.000000
vn -1.000000 0.000000 0.000000
vn -1.000000 0.000000 0.000000
vn 1.000000 -0.000000 -0.000000
vn 1.000000 -0.000000 -0.000000
vn 1.000000 -0.000000 -0.000000
vn 1.000000 -0.000000 -0.000000
vn 0.000000 1.000000 -0.000000
vn 0.000000 1.000000 -0.000000
vn 0.000000 1.000000 -0.000000
vn 0.000000 1.000000 -0.000000
vn 0.000000 1.000000 -0.000000
vn 0.000000 1.000000 -0.000000
vn 0.000000 1.000000 -0.000000
vn 0.000000 1.000000 -0.000000
vn -1.000000 0.000000 0.000000
vn -1.000000 0.000000 0.000000
vn -1.000000 0.000000 0.000000
vn -1.000000 0.000000 0.000000
vn 1.000000 -0.000000 -0.000000
vn 1.000000 -0.000000 -0.000000
vn 1.000000 -0.000000 -0.000000
vn 1.000000 -0.000000 -0.000000
vn -0.000000 -0.000000 -1.000000
vn -0.000000 -0.000000 -1.000000
vn -0.000000 -0.000000 -1.000000
vn -0.000000 -0.000000 -1.000000
f 1/1/1 2/2/2 3/3/3
f 4/4/4 5/5/5 6/6/6
f 7/7/7 8/8/8 9/9/9
f 10/10/10 7/7/7 11/11/11
f 12/12/12 10/10/10 11/11/11
f 13/13/13 14/14/14 15/15/15
f 16/16/16 17/17/17 14/14/14
f 17/17/17 16/16/16 18/18/18
f 19/19/19 20/20/20 21/21/21
f 22/22/22 23/23/23 24/24/24
f 25/25/25 24/24/24 26/26/26
f 27/27/27 28/28/28 29/29/29
f 30/30/30 31/31/31 32/32/32
f 33/33/33 34/34/34 35/35/35
f 36/36/36 37/37/37 38/38/38
f 39/39/39 36/36/36 40/40/40
f 41/41/41 36/36/36 39/39/39
f 42/42/42 43/43/43 44/44/44
f 45/45/45 46/46/46 47/47/47
f 48/48/48 49/49/49 50/50/50
f 51/51/51 52/52/52 53/53/53
f 54/54/54 51/51/51 55/55/55
f 56/56/56 57/57/57 58/58/58
f 59/59/59 60/60/60 61/61/61
f 62/62/62 63/63/63 61/61/61
f 64/64/64 63/63/63 65/65/65
f 64/64/64 66/66/66 67/67/67
f 68/68/68 69/69/69 70/70/70
f 71/71/71 72/72/72 73/73/73
f 74/74/74 75/75/75 76/76/76
f 77/77/77 78/78/78 79/79/79
f 80/80/80 81/81/81 82/82/82
f 83/83/83 84/84/84 85/85/85
f 86/86/86 87/87/87 88/88/88
f 89/89/89 90/90/90 91/91/91
f 92/92/92 93/93/93 94/94/94
f 95/95/95 94/94/94 96/96/96
f 97/97/97 98/98/98 99/99/99
f 100/100/100 101/101/101 102/102/102
f 103/103/103 104/104/104 105/105/105
f 106/106/106 107/107/107 108/108/108
f 109/109/109 108/108/108 110/110/110
f 109/109/109 110/110/110 111/111/111
f 112/112/112 113/113/113 114/114/114
f 115/115/115 116/116/116 117/117/117
f 115/115/115 117/117/117 118/118/118
f 119/119/119 120/120/120 121/121/121
f 119/119/119 121/121/121 122/122/122
f 123/123/123 124/124/124 125/125/125
f 123/123/123 125/125/125 126/126/126
f 127/127/127 128/128/128 129/129/129
f 127/127/127 129/129/129 130/130/130
f 131/131/131 132/132/132 133/133/133
f 131/131/131 133/133/133 134/134/134
f 135/135/135 136/136/136 137/137/137
f 135/135/135 137/137/137 138/138/138
f 139/139/139 140/140/140 141/141/141
f 139/139/139 141/141/141 142/142/142
f 143/143/143 144/144/144 145/145/145
f 143/143/143 145/145/145 146/146/146
f 147/147/147 148/148/148 149/149/149
f 147/147/147 149/149/149 150/150/150
f 151/151/151 152/152/152 153/153/153
f 151/151/151 153/153/153 154/154/154
f 155/155/155 156/156/156 157/157/157
f 155/155/155 157/157/157 158/158/158
f 159/159/159 160/160/160 161/161/161
f 159/159/159 161/161/161 162/162/162
f 163/163/163 164/164/164 165/165/165
f 165/165/165 164/164/164 166/166/166
f 167/167/167 168/168/168 169/169/169
f 170/170/170 168/168/168 167/167/167
f 171/171/171 172/172/172 173/173/173
f 172/172/172 171/171/171 174/174/174
f 171/171/171 175/175/175 174/174/174
f 176/176/176 175/175/175 171/171/171
f 176/176/176 171/171/171 177/177/177
f 175/175/175 178/178/178 179/179/179
f 179/179/179 178/178/178 180/180/180
f 181/181/181 182/182/182 183/183/183
f 181/181/181 184/184/184 182/182/182
f 185/185/185 184/184/184 181/181/181
f 185/185/185 181/181/181 186/186/186
f 187/187/187 186/186/186 188/188/188
f 188/188/188 186/186/186 189/189/189
f 190/190/190 191/191/191 192/192/192
f 191/191/191 193/193/193 192/192/192
f 194/194/194 195/195/195 196/196/196
f 196/196/196 195/195/195 197/197/197
f 198/198/198 199/199/199 200/200/200
f 200/200/200 199/199/199 201/201/201
f 202/202/202 203/203/203 204/204/204
f 205/205/205 203/203/203 202/202/202
f 206/206/206 207/207/207 208/208/208
f 208/208/208 207/207/207 209/209/209
f 210/210/210 211/211/211 212/212/212
f 213/213/213 212/212/212 211/211/211
f 214/214/214 215/215/215 216/216/216
f 215/215/215 214/214/214 217/217/217
f 218/218/218 219/219/219 220/220/220
f 220/220/220 219/219/219 221/221/221
f 222/222/222 223/223/223 224/224/224
f 223/223/223 225/225/225 224/224/224
f 226/226/226 227/227/227 228/228/228
f 226/226/226 229/229/229 227/227/227
f 230/230/230 231/231/231 232/232/232
f 231/231/231 230/230/230 233/233/233
f 234/234/234 235/235/235 236/236/236
f 236/236/236 235/235/235 237/237/237
f 238/238/238 239/239/239 240/240/240
f 241/241/241 240/240/240 239/239/239
f 242/242/242 243/243/243 244/244/244
f 245/245/245 243/243/243 242/242/242
f 246/246/246 247/247/247 248/248/248
f 249/249/249 247/247/247 246/246/246
f 250/250/250 251/251/251 252/252/252
f 252/252/252 251/251/251 253/253/253
f 254/254/254 255/255/255 256/256/256
f 256/256/256 255/255/255 257/257/257
f 258/258/258 259/259/259 260/260/260
f 260/260/260 259/259/259 261/261/261
f 262/262/262 263/263/263 264/264/264
f 264/264/264 263/263/263 265/265/265
f 266/266/266 267/267/267 268/268/268
f 269/269/269 267/267/267 266/266/266
f 270/270/270 271/271/271 272/272/272
f 273/273/273 271/271/271 270/270/270
f 274/274/274 275/275/275 276/276/276
f 275/275/275 277/277/277 276/276/276
f 278/278/278 277/277/277 275/275/275
f 279/279/279 280/280/280 281/281/281
f 282/282/282 281/281/281 280/280/280
f 283/283/283 284/284/284 285/285/285
f 286/286/286 284/284/284 283/283/283
f 287/287/287 288/288/288 289/289/289
f 290/290/290 288/288/288 287/287/287
f 291/291/291 292/292/292 293/293/293
f 294/294/294 292/292/292 291/291/291
f 295/295/295 296/296/296 297/297/297
f 298/298/298 296/296/296 295/295/295
f 299/299/299 300/300/300 301/301/301
f 302/302/302 300/300/300 299/299/299
f 303/303/303 304/304/304 305/305/305
f 306/306/306 304/304/304 303/303/303
f 307/307/307 308/308/308 309/309/309
f 310/310/310 308/308/308 307/307/307
f 311/311/311 312/312/312 313/313/313
f 314/314/314 312/312/312 311/311/311
