# carpat_lastman_backpack_backpack (gear rip -> Godot: Z negated + winding reversed)
v -0.191427 -0.301231 0.195000
v -0.124036 -0.302959 0.195000
v -0.124036 -0.302959 0.275000
v -0.191427 -0.301231 0.275000
v -0.185349 -0.266763 0.300000
v -0.119695 -0.278339 0.300000
v -0.027661 0.243609 0.300000
v -0.093315 0.255185 0.300001
v -0.251003 -0.255186 0.300000
v -0.158969 0.266762 0.300001
v -0.316656 -0.243610 0.300000
v -0.224623 0.278339 0.300001
v -0.224623 0.278339 0.300001
v -0.220282 0.302959 0.275001
v -0.220282 0.302959 0.195001
v -0.224623 0.278339 0.170001
v -0.316656 -0.243610 0.300000
v -0.316657 -0.243609 0.170000
v -0.320998 -0.268230 0.275000
v -0.320998 -0.268230 0.195000
v -0.087238 0.289654 0.275001
v -0.023320 0.268229 0.275000
v -0.023320 0.268229 0.195000
v -0.087238 0.289654 0.195001
v -0.027662 0.243609 0.170000
v -0.023320 0.268229 0.195000
v -0.023320 0.268229 0.275000
v -0.027661 0.243609 0.300000
v -0.119695 -0.278339 0.170000
v -0.119695 -0.278339 0.300000
v -0.124036 -0.302959 0.195000
v -0.124036 -0.302959 0.275000
v -0.152892 0.301230 0.195001
v -0.158969 0.266762 0.170001
v -0.224623 0.278339 0.170001
v -0.220282 0.302959 0.195001
v -0.251003 -0.255186 0.170000
v -0.257080 -0.289654 0.195000
v -0.320998 -0.268230 0.195000
v -0.316657 -0.243609 0.170000
v -0.257080 -0.289654 0.275000
v -0.251003 -0.255186 0.300000
v -0.316656 -0.243610 0.300000
v -0.320998 -0.268230 0.275000
v -0.087238 0.289654 0.275001
v -0.093315 0.255185 0.300001
v -0.027661 0.243609 0.300000
v -0.023320 0.268229 0.275000
v -0.093315 0.255186 0.170001
v -0.027662 0.243609 0.170000
v -0.119695 -0.278339 0.170000
v -0.185349 -0.266762 0.170000
v -0.158969 0.266762 0.170001
v -0.251003 -0.255186 0.170000
v -0.224623 0.278339 0.170001
v -0.316657 -0.243609 0.170000
v 0.027840 -0.430000 -0.150000
v 0.027841 -0.430000 -0.050000
v -0.072160 -0.430000 -0.050000
v -0.072160 -0.430000 -0.150000
v 0.027840 -0.330000 -0.150000
v -0.072160 -0.330000 -0.150000
v -0.072160 -0.330000 -0.050000
v 0.027840 -0.330000 -0.050000
v -0.072160 -0.430000 -0.150000
v -0.072160 -0.330000 -0.150000
v 0.027840 -0.330000 -0.150000
v 0.027840 -0.430000 -0.150000
v -0.072160 -0.430000 -0.050000
v -0.072160 -0.330000 -0.050000
v -0.072160 -0.330000 -0.150000
v -0.072160 -0.430000 -0.150000
v 0.027841 -0.430000 -0.050000
v 0.027840 -0.330000 -0.050000
v -0.072160 -0.330000 -0.050000
v -0.072160 -0.430000 -0.050000
v 0.027840 -0.430000 -0.150000
v 0.027840 -0.330000 -0.150000
v 0.027840 -0.330000 -0.050000
v 0.027841 -0.430000 -0.050000
v 0.027841 -0.430000 0.050000
v 0.027841 -0.330000 0.050000
v 0.027841 -0.330000 0.150000
v 0.027841 -0.430000 0.150000
v 0.027841 -0.430000 0.150000
v 0.027841 -0.330000 0.150000
v -0.072159 -0.330000 0.150000
v -0.072159 -0.430000 0.150000
v -0.072159 -0.430000 0.150000
v -0.072159 -0.330000 0.150000
v -0.072159 -0.330000 0.050000
v -0.072159 -0.430000 0.050000
v -0.072159 -0.430000 0.050000
v -0.072159 -0.330000 0.050000
v 0.027841 -0.330000 0.050000
v 0.027841 -0.430000 0.050000
v 0.027841 -0.330000 0.050000
v -0.072159 -0.330000 0.050000
v -0.072159 -0.330000 0.150000
v 0.027841 -0.330000 0.150000
v 0.027841 -0.430000 0.050000
v 0.027841 -0.430000 0.150000
v -0.072159 -0.430000 0.150000
v -0.072159 -0.430000 0.050000
v -0.052159 -0.390000 0.050000
v 0.007841 -0.390000 0.050000
v 0.007841 -0.370000 0.050000
v -0.052159 -0.370000 0.050000
v -0.052160 -0.390000 -0.190000
v -0.052160 -0.390000 -0.210000
v 0.007840 -0.390000 -0.210000
v 0.007840 -0.390000 -0.190000
v -0.052159 -0.390000 0.050000
v 0.007841 -0.390000 0.050000
v 0.007841 -0.370000 0.050000
v 0.007840 -0.370000 -0.190000
v -0.052160 -0.370000 -0.190000
v -0.052159 -0.370000 0.050000
v -0.052159 -0.370000 0.050000
v -0.052160 -0.390000 -0.190000
v -0.052159 -0.390000 0.050000
v -0.052160 -0.370000 -0.190000
v -0.052160 -0.390000 -0.210000
v -0.052160 -0.370000 -0.210000
v -0.052160 0.360000 -0.209999
v -0.052160 0.360000 -0.189999
v -0.052160 0.380000 -0.209999
v -0.052160 0.380000 -0.189999
v -0.052159 0.380000 0.170001
v -0.052159 0.360000 0.170001
v -0.052159 0.380000 0.190001
v -0.052159 0.360000 0.190001
v -0.052159 -0.370000 0.190000
v -0.052159 -0.370000 0.170000
v -0.052159 -0.390000 0.190000
v -0.052159 -0.390000 0.170000
v -0.052159 -0.390000 0.150000
v -0.052159 -0.370000 0.150000
v 0.007841 -0.390000 0.050000
v 0.007840 -0.370000 -0.190000
v 0.007841 -0.370000 0.050000
v 0.007840 -0.390000 -0.190000
v 0.007840 -0.370000 -0.210000
v 0.007840 -0.390000 -0.210000
v 0.007840 0.360000 -0.190000
v 0.007840 0.360000 -0.210000
v 0.007840 0.380000 -0.190000
v 0.007840 0.380000 -0.210000
v 0.007841 0.360000 0.170000
v 0.007841 0.380000 0.170000
v 0.007841 0.360000 0.190000
v 0.007841 0.380000 0.190000
v 0.007841 -0.370000 0.170000
v 0.007841 -0.370000 0.190000
v 0.007841 -0.390000 0.170000
v 0.007841 -0.390000 0.190000
v 0.007841 -0.370000 0.150000
v 0.007841 -0.390000 0.150000
v -0.052160 -0.390000 -0.210000
v 0.007840 -0.370000 -0.210000
v 0.007840 -0.390000 -0.210000
v -0.052160 -0.370000 -0.210000
v 0.007840 0.360000 -0.210000
v -0.052160 0.360000 -0.209999
v 0.007840 0.380000 -0.210000
v -0.052160 0.380000 -0.209999
v 0.007840 -0.370000 -0.190000
v 0.007840 0.360000 -0.190000
v -0.052160 0.360000 -0.189999
v -0.052160 -0.370000 -0.190000
v 0.007840 0.380000 -0.190000
v 0.007840 0.380000 -0.210000
v -0.052160 0.380000 -0.209999
v -0.052160 0.380000 -0.189999
v 0.007841 0.380000 0.170000
v -0.052159 0.380000 0.170001
v 0.007841 0.380000 0.190000
v -0.052159 0.380000 0.190001
v 0.007840 0.360000 -0.190000
v 0.007841 0.360000 0.170000
v -0.052159 0.360000 0.170001
v -0.052160 0.360000 -0.189999
v 0.007841 0.360000 0.190000
v 0.007841 0.380000 0.190000
v -0.052159 0.380000 0.190001
v -0.052159 0.360000 0.190001
v 0.007841 -0.370000 0.190000
v -0.052159 -0.370000 0.190000
v 0.007841 -0.390000 0.190000
v -0.052159 -0.390000 0.190000
v 0.007841 0.360000 0.170000
v 0.007841 -0.370000 0.170000
v -0.052159 -0.370000 0.170000
v -0.052159 0.360000 0.170001
v 0.007841 -0.390000 0.170000
v 0.007841 -0.390000 0.190000
v -0.052159 -0.390000 0.190000
v -0.052159 -0.390000 0.170000
v 0.007841 -0.390000 0.150000
v -0.052159 -0.390000 0.150000
v 0.007841 -0.370000 0.150000
v 0.007841 -0.390000 0.150000
v -0.052159 -0.390000 0.150000
v -0.052159 -0.370000 0.150000
v 0.007841 -0.370000 0.170000
v 0.007841 -0.370000 0.150000
v -0.052159 -0.370000 0.150000
v -0.052159 -0.370000 0.170000
v -0.832159 0.052237 0.092001
v -0.832159 -0.052237 0.092001
v -0.782159 -0.124237 0.160001
v -0.782159 0.124236 0.160001
v -0.782160 -0.124236 -0.179999
v -0.782160 0.124237 -0.179999
v -0.712160 0.124237 -0.179999
v -0.712160 -0.124236 -0.179999
v -0.832160 -0.052236 -0.111999
v -0.832160 0.052237 -0.111999
v -0.782160 0.124237 -0.179999
v -0.782160 -0.124236 -0.179999
v -0.782159 -0.180000 0.104897
v -0.782160 -0.180000 -0.124894
v -0.712160 -0.180000 -0.124895
v -0.712159 -0.180000 0.104897
v -0.832160 0.108000 -0.056894
v -0.832159 0.108000 0.036897
v -0.782159 0.180000 0.104897
v -0.782160 0.180000 -0.124894
v -0.832159 0.108000 0.036897
v -0.832160 0.108000 -0.056894
v -0.832160 0.052237 -0.111999
v -0.832159 0.052237 0.092001
v -0.832160 -0.052236 -0.111999
v -0.832159 -0.052237 0.092001
v -0.832159 -0.108000 0.036897
v -0.832160 -0.108000 -0.056894
v -0.782160 0.124237 -0.179999
v -0.782160 0.180000 -0.124894
v -0.782159 0.180000 0.104897
v -0.782159 0.124236 0.160001
v -0.782160 -0.124236 -0.179999
v -0.782159 -0.124237 0.160001
v -0.782160 -0.180000 -0.124894
v -0.782159 -0.180000 0.104897
v -0.712160 0.124237 -0.179999
v -0.712160 0.180000 -0.124894
v -0.712159 0.180000 0.104897
v -0.712159 0.124236 0.160001
v -0.712160 -0.124236 -0.179999
v -0.712159 -0.124237 0.160001
v -0.712160 -0.180000 -0.124895
v -0.712159 -0.180000 0.104897
v -0.782160 0.180000 -0.124894
v -0.782159 0.180000 0.104897
v -0.712159 0.180000 0.104897
v -0.712160 0.180000 -0.124894
v -0.782159 0.124236 0.160001
v -0.782159 -0.124237 0.160001
v -0.712159 -0.124237 0.160001
v -0.712159 0.124236 0.160001
v -0.832159 -0.052237 0.092001
v -0.832159 -0.108000 0.036897
v -0.782159 -0.180000 0.104897
v -0.782159 -0.124237 0.160001
v -0.782159 0.124236 0.160001
v -0.782159 0.180000 0.104897
v -0.832159 0.108000 0.036897
v -0.832159 0.052237 0.092001
v -0.782160 0.180000 -0.124894
v -0.782160 0.124237 -0.179999
v -0.832160 0.052237 -0.111999
v -0.832160 0.108000 -0.056894
v -0.782160 -0.124236 -0.179999
v -0.782160 -0.180000 -0.124894
v -0.832160 -0.108000 -0.056894
v -0.832160 -0.052236 -0.111999
v -0.782159 -0.124237 0.160001
v -0.782159 -0.180000 0.104897
v -0.712159 -0.180000 0.104897
v -0.712159 -0.124237 0.160001
v -0.712159 0.124236 0.160001
v -0.712159 0.180000 0.104897
v -0.782159 0.180000 0.104897
v -0.782159 0.124236 0.160001
v -0.712160 0.180000 -0.124894
v -0.712160 0.124237 -0.179999
v -0.782160 0.124237 -0.179999
v -0.782160 0.180000 -0.124894
v -0.712160 -0.124236 -0.179999
v -0.712160 -0.180000 -0.124895
v -0.782160 -0.180000 -0.124894
v -0.782160 -0.124236 -0.179999
v -0.832159 -0.108000 0.036897
v -0.832160 -0.108000 -0.056894
v -0.782160 -0.180000 -0.124894
v -0.782159 -0.180000 0.104897
v -0.220282 0.302959 0.275001
v -0.224623 0.278339 0.300001
v -0.158969 0.266762 0.300001
v -0.152891 0.301230 0.275001
v -0.152891 0.301230 0.275001
v -0.158969 0.266762 0.300001
v -0.093315 0.255185 0.300001
v -0.087238 0.289654 0.275001
v -0.124036 -0.302959 0.275000
v -0.119695 -0.278339 0.300000
v -0.185349 -0.266763 0.300000
v -0.191427 -0.301231 0.275000
v -0.191427 -0.301231 0.275000
v -0.185349 -0.266763 0.300000
v -0.251003 -0.255186 0.300000
v -0.257080 -0.289654 0.275000
v -0.119695 -0.278339 0.170000
v -0.124036 -0.302959 0.195000
v -0.191427 -0.301231 0.195000
v -0.185349 -0.266762 0.170000
v -0.185349 -0.266762 0.170000
v -0.191427 -0.301231 0.195000
v -0.257080 -0.289654 0.195000
v -0.251003 -0.255186 0.170000
v -0.023320 0.268229 0.195000
v -0.027662 0.243609 0.170000
v -0.093315 0.255186 0.170001
v -0.087238 0.289654 0.195001
v -0.087238 0.289654 0.195001
v -0.093315 0.255186 0.170001
v -0.158969 0.266762 0.170001
v -0.152892 0.301230 0.195001
v -0.220282 0.302959 0.275001
v -0.152891 0.301230 0.275001
v -0.152892 0.301230 0.195001
v -0.220282 0.302959 0.195001
v -0.152891 0.301230 0.275001
v -0.087238 0.289654 0.275001
v -0.087238 0.289654 0.195001
v -0.152892 0.301230 0.195001
v -0.320998 -0.268230 0.195000
v -0.257080 -0.289654 0.195000
v -0.257080 -0.289654 0.275000
v -0.320998 -0.268230 0.275000
v -0.257080 -0.289654 0.195000
v -0.191427 -0.301231 0.195000
v -0.191427 -0.301231 0.275000
v -0.257080 -0.289654 0.275000
v -0.284500 -0.087817 0.199645
v -0.281957 -0.073395 0.235000
v -0.284500 -0.087817 0.270356
v -0.290640 -0.122635 0.185000
v -0.290640 -0.122635 0.285000
v -0.296779 -0.157453 0.199645
v -0.296779 -0.157454 0.270356
v -0.299322 -0.171876 0.235000
v -0.328866 -0.166666 0.235000
v -0.326323 -0.152244 0.270356
v -0.336171 -0.150508 0.270356
v -0.338715 -0.164930 0.235000
v -0.290640 -0.122635 0.285000
v -0.284500 -0.087817 0.270356
v -0.314045 -0.082608 0.270356
v -0.320184 -0.117426 0.285000
v -0.281957 -0.073395 0.235000
v -0.284500 -0.087817 0.199645
v -0.314045 -0.082608 0.199645
v -0.311502 -0.068185 0.235001
v -0.290640 -0.122635 0.185000
v -0.296779 -0.157453 0.199645
v -0.326323 -0.152244 0.199645
v -0.320184 -0.117426 0.185000
v -0.299322 -0.171876 0.235000
v -0.296779 -0.157454 0.270356
v -0.326323 -0.152244 0.270356
v -0.328866 -0.166666 0.235000
v -0.284500 -0.087817 0.270356
v -0.281957 -0.073395 0.235000
v -0.311502 -0.068185 0.235001
v -0.314045 -0.082608 0.270356
v -0.284500 -0.087817 0.199645
v -0.290640 -0.122635 0.185000
v -0.320184 -0.117426 0.185000
v -0.314045 -0.082608 0.199645
v -0.296779 -0.157453 0.199645
v -0.299322 -0.171876 0.235000
v -0.328866 -0.166666 0.235000
v -0.326323 -0.152244 0.199645
v -0.296779 -0.157454 0.270356
v -0.290640 -0.122635 0.285000
v -0.320184 -0.117426 0.285000
v -0.326323 -0.152244 0.270356
v -0.323893 -0.080871 0.270356
v -0.321350 -0.066449 0.235001
v -0.323893 -0.080871 0.199645
v -0.330032 -0.115689 0.285000
v -0.330032 -0.115689 0.185000
v -0.336172 -0.150508 0.199645
v -0.336171 -0.150508 0.270356
v -0.338715 -0.164930 0.235000
v -0.314045 -0.082608 0.270356
v -0.311502 -0.068185 0.235001
v -0.321350 -0.066449 0.235001
v -0.323893 -0.080871 0.270356
v -0.314045 -0.082608 0.199645
v -0.320184 -0.117426 0.185000
v -0.330032 -0.115689 0.185000
v -0.323893 -0.080871 0.199645
v -0.326323 -0.152244 0.199645
v -0.328866 -0.166666 0.235000
v -0.338715 -0.164930 0.235000
v -0.336172 -0.150508 0.199645
v -0.326323 -0.152244 0.270356
v -0.320184 -0.117426 0.285000
v -0.330032 -0.115689 0.285000
v -0.336171 -0.150508 0.270356
v -0.320184 -0.117426 0.285000
v -0.314045 -0.082608 0.270356
v -0.323893 -0.080871 0.270356
v -0.330032 -0.115689 0.285000
v -0.311502 -0.068185 0.235001
v -0.314045 -0.082608 0.199645
v -0.323893 -0.080871 0.199645
v -0.321350 -0.066449 0.235001
v -0.320184 -0.117426 0.185000
v -0.326323 -0.152244 0.199645
v -0.336172 -0.150508 0.199645
v -0.330032 -0.115689 0.185000
v -0.263893 0.039129 0.199645
v -0.261350 0.053551 0.235001
v -0.263893 0.039129 0.270356
v -0.270032 0.004311 0.185001
v -0.270032 0.004311 0.285001
v -0.276172 -0.030508 0.199645
v -0.276171 -0.030508 0.270356
v -0.278715 -0.044930 0.235000
v -0.332829 0.051284 0.199645
v -0.375291 0.040821 0.217323
v -0.374020 0.048032 0.235001
v -0.330286 0.065706 0.235001
v -0.278715 -0.044930 0.235000
v -0.347651 -0.032774 0.235001
v -0.345108 -0.018352 0.199645
v -0.276172 -0.030508 0.199645
v -0.270032 0.004311 0.285001
v -0.338969 0.016466 0.285001
v -0.345108 -0.018352 0.270356
v -0.276171 -0.030508 0.270356
v -0.263893 0.039129 0.270356
v -0.332829 0.051284 0.270356
v -0.338969 0.016466 0.285001
v -0.270032 0.004311 0.285001
v -0.263893 0.039129 0.199645
v -0.332829 0.051284 0.199645
v -0.330286 0.065706 0.235001
v -0.261350 0.053551 0.235001
v -0.276172 -0.030508 0.199645
v -0.345108 -0.018352 0.199645
v -0.338969 0.016466 0.185001
v -0.270032 0.004311 0.185001
v -0.276171 -0.030508 0.270356
v -0.345108 -0.018352 0.270356
v -0.347651 -0.032774 0.235001
v -0.278715 -0.044930 0.235000
v -0.261350 0.053551 0.235001
v -0.330286 0.065706 0.235001
v -0.332829 0.051284 0.270356
v -0.263893 0.039129 0.270356
v -0.270032 0.004311 0.185001
v -0.338969 0.016466 0.185001
v -0.332829 0.051284 0.199645
v -0.263893 0.039129 0.199645
v -0.378361 0.023412 0.260001
v -0.407905 0.028621 0.260001
v -0.410975 0.011212 0.252678
v -0.381431 0.006003 0.252678
v -0.345108 -0.018352 0.199645
v -0.381431 0.006003 0.217323
v -0.378361 0.023412 0.210001
v -0.338969 0.016466 0.185001
v -0.345108 -0.018352 0.270356
v -0.381431 0.006003 0.252678
v -0.382702 -0.001208 0.235001
v -0.347651 -0.032774 0.235001
v -0.330286 0.065706 0.235001
v -0.374020 0.048032 0.235001
v -0.375291 0.040821 0.252678
v -0.332829 0.051284 0.270356
v -0.338969 0.016466 0.185001
v -0.378361 0.023412 0.210001
v -0.375291 0.040821 0.217323
v -0.332829 0.051284 0.199645
v -0.347651 -0.032774 0.235001
v -0.382702 -0.001208 0.235001
v -0.381431 0.006003 0.217323
v -0.345108 -0.018352 0.199645
v -0.338969 0.016466 0.285001
v -0.378361 0.023412 0.260001
v -0.381431 0.006003 0.252678
v -0.345108 -0.018352 0.270356
v -0.332829 0.051284 0.270356
v -0.375291 0.040821 0.252678
v -0.378361 0.023412 0.260001
v -0.338969 0.016466 0.285001
v -0.403564 0.053242 0.235001
v -0.413412 0.054978 0.235001
v -0.414684 0.047767 0.252678
v -0.404836 0.046030 0.252678
v -0.375291 0.040821 0.252678
v -0.404836 0.046030 0.252678
v -0.407905 0.028621 0.260001
v -0.378361 0.023412 0.260001
v -0.375291 0.040821 0.217323
v -0.404836 0.046030 0.217323
v -0.403564 0.053242 0.235001
v -0.374020 0.048032 0.235001
v -0.381431 0.006003 0.217323
v -0.410975 0.011212 0.217323
v -0.407905 0.028621 0.210001
v -0.378361 0.023412 0.210001
v -0.381431 0.006003 0.252678
v -0.410975 0.011212 0.252678
v -0.412246 0.004001 0.235001
v -0.382702 -0.001208 0.235001
v -0.374020 0.048032 0.235001
v -0.403564 0.053242 0.235001
v -0.404836 0.046030 0.252678
v -0.375291 0.040821 0.252678
v -0.378361 0.023412 0.210001
v -0.407905 0.028621 0.210001
v -0.404836 0.046030 0.217323
v -0.375291 0.040821 0.217323
v -0.382702 -0.001208 0.235001
v -0.412246 0.004001 0.235001
v -0.410975 0.011212 0.217323
v -0.381431 0.006003 0.217323
v -0.414684 0.047767 0.252678
v -0.413412 0.054978 0.235001
v -0.414684 0.047767 0.217323
v -0.417753 0.030358 0.260001
v -0.417753 0.030358 0.210001
v -0.420823 0.012949 0.217323
v -0.420823 0.012949 0.252678
v -0.422095 0.005738 0.235001
v -0.407905 0.028621 0.210001
v -0.417753 0.030358 0.210001
v -0.414684 0.047767 0.217323
v -0.404836 0.046030 0.217323
v -0.412246 0.004001 0.235001
v -0.422095 0.005738 0.235001
v -0.420823 0.012949 0.217323
v -0.410975 0.011212 0.217323
v -0.407905 0.028621 0.260001
v -0.417753 0.030358 0.260001
v -0.420823 0.012949 0.252678
v -0.410975 0.011212 0.252678
v -0.404836 0.046030 0.252678
v -0.414684 0.047767 0.252678
v -0.417753 0.030358 0.260001
v -0.407905 0.028621 0.260001
v -0.404836 0.046030 0.217323
v -0.414684 0.047767 0.217323
v -0.413412 0.054978 0.235001
v -0.403564 0.053242 0.235001
v -0.410975 0.011212 0.217323
v -0.420823 0.012949 0.217323
v -0.417753 0.030358 0.210001
v -0.407905 0.028621 0.210001
v -0.410975 0.011212 0.252678
v -0.420823 0.012949 0.252678
v -0.422095 0.005738 0.235001
v -0.412246 0.004001 0.235001
vt 0.516393423 0.255952239
vt 0.516393423 0.255952239
vt 0.516393423 0.255952239
vt 0.516393423 0.255952239
vt 0.516393423 0.255952239
vt 0.516393423 0.255952239
vt 0.516393423 0.255952239
vt 0.516393423 0.255952239
vt 0.516393423 0.255952239
vt 0.516393423 0.255952239
vt 0.516393423 0.255952239
vt 0.516393423 0.255952239
vt 0.516393423 0.255952239
vt 0.516393423 0.255952239
vt 0.516393423 0.255952239
vt 0.516393423 0.255952239
vt 0.516393423 0.255952239
vt 0.516393423 0.255952239
vt 0.516393423 0.255952239
vt 0.516393423 0.255952239
vt 0.516393423 0.255952239
vt 0.516393423 0.255952239
vt 0.516393423 0.255952239
vt 0.516393423 0.255952239
vt 0.516393423 0.255952239
vt 0.516393423 0.255952239
vt 0.516393423 0.255952239
vt 0.516393423 0.255952239
vt 0.516393423 0.255952239
vt 0.516393423 0.255952239
vt 0.516393423 0.255952239
vt 0.516393423 0.255952239
vt 0.516393423 0.255952239
vt 0.516393423 0.255952239
vt 0.516393423 0.255952239
vt 0.516393423 0.255952239
vt 0.516393423 0.255952239
vt 0.516393423 0.255952239
vt 0.516393423 0.255952239
vt 0.516393423 0.255952239
vt 0.516393423 0.255952239
vt 0.516393423 0.255952239
vt 0.516393423 0.255952239
vt 0.516393423 0.255952239
vt 0.516393423 0.255952239
vt 0.516393423 0.255952239
vt 0.516393423 0.255952239
vt 0.516393423 0.255952239
vt 0.516393423 0.255952239
vt 0.516393423 0.255952239
vt 0.516393423 0.255952239
vt 0.516393423 0.255952239
vt 0.516393423 0.255952239
vt 0.516393423 0.255952239
vt 0.516393423 0.255952239
vt 0.516393423 0.255952239
vt 6.42657396E-05 0.158794418
vt 0.167224258 0.158794567
vt 0.167224258 0.317396075
vt 6.42657396E-05 0.317396075
vt 6.42657396E-05 0.158794418
vt 6.42657396E-05 0.317396075
vt 0.167224258 0.317396075
vt 0.167224258 0.158794567
vt 6.42657396E-05 0.317396075
vt 6.42657396E-05 0.317396075
vt 6.42657396E-05 0.158794418
vt 6.42657396E-05 0.158794418
vt 0.167224258 0.317396075
vt 0.167224258 0.317396075
vt 6.42657396E-05 0.317396075
vt 6.42657396E-05 0.317396075
vt 0.167224258 0.158794567
vt 0.167224258 0.158794567
vt 0.167224258 0.317396075
vt 0.167224258 0.317396075
vt 6.42657396E-05 0.158794418
vt 6.42657396E-05 0.158794418
vt 0.167224258 0.158794567
vt 0.167224258 0.158794567
vt 6.42657396E-05 0.158794418
vt 6.42657396E-05 0.158794418
vt 0.167224258 0.158794567
vt 0.167224258 0.158794567
vt 0.167224258 0.158794567
vt 0.167224258 0.158794567
vt 0.167224258 0.317396075
vt 0.167224258 0.317396075
vt 0.167224258 0.317396075
vt 0.167224258 0.317396075
vt 6.42657396E-05 0.317396075
vt 6.42657396E-05 0.317396075
vt 6.42657396E-05 0.317396075
vt 6.42657396E-05 0.317396075
vt 6.42657396E-05 0.158794418
vt 6.42657396E-05 0.158794418
vt 6.42657396E-05 0.158794418
vt 6.42657396E-05 0.317396075
vt 0.167224258 0.317396075
vt 0.167224258 0.158794567
vt 6.42657396E-05 0.158794418
vt 0.167224258 0.158794567
vt 0.167224258 0.317396075
vt 6.42657396E-05 0.317396075
vt 6.42657396E-05 0.317396075
vt 6.42657396E-05 0.158794418
vt 6.42657396E-05 0.158794418
vt 6.42657396E-05 0.317396075
vt 6.42657396E-05 0.317396075
vt 6.42657396E-05 0.317396075
vt 6.42657396E-05 0.158794418
vt 6.42657396E-05 0.158794418
vt 6.42657396E-05 0.317396075
vt 6.42657396E-05 0.158794418
vt 6.42657396E-05 0.158794418
vt 6.42657396E-05 0.158794418
vt 6.42657396E-05 0.317396075
vt 6.42657396E-05 0.317396075
vt 6.42657396E-05 0.317396075
vt 6.42657396E-05 0.317396075
vt 6.42657396E-05 0.317396075
vt 6.42657396E-05 0.317396075
vt 6.42657396E-05 0.317396075
vt 6.42657396E-05 0.317396075
vt 6.42657396E-05 0.317396075
vt 6.42657396E-05 0.317396075
vt 6.42657396E-05 0.317396075
vt 6.42657396E-05 0.317396075
vt 6.42657396E-05 0.317396075
vt 6.42657396E-05 0.317396075
vt 6.42657396E-05 0.317396075
vt 6.42657396E-05 0.317396075
vt 6.42657396E-05 0.317396075
vt 6.42657396E-05 0.317396075
vt 6.42657396E-05 0.317396075
vt 6.42657396E-05 0.317396075
vt 6.42657396E-05 0.317396075
vt 6.42657396E-05 0.317396075
vt 6.42657396E-05 0.158794418
vt 6.42657396E-05 0.158794418
vt 6.42657396E-05 0.158794418
vt 6.42657396E-05 0.158794418
vt 6.42657396E-05 0.158794418
vt 6.42657396E-05 0.158794418
vt 6.42657396E-05 0.158794418
vt 6.42657396E-05 0.158794418
vt 6.42657396E-05 0.158794418
vt 6.42657396E-05 0.158794418
vt 6.42657396E-05 0.158794418
vt 6.42657396E-05 0.158794418
vt 6.42657396E-05 0.158794418
vt 6.42657396E-05 0.158794418
vt 6.42657396E-05 0.158794418
vt 6.42657396E-05 0.158794418
vt 6.42657396E-05 0.158794418
vt 6.42657396E-05 0.158794418
vt 6.42657396E-05 0.158794418
vt 6.42657396E-05 0.158794418
vt 6.42657396E-05 0.317396075
vt 6.42657396E-05 0.158794418
vt 6.42657396E-05 0.158794418
vt 6.42657396E-05 0.317396075
vt 6.42657396E-05 0.158794418
vt 6.42657396E-05 0.317396075
vt 6.42657396E-05 0.158794418
vt 6.42657396E-05 0.317396075
vt 6.42657396E-05 0.158794418
vt 6.42657396E-05 0.158794418
vt 6.42657396E-05 0.317396075
vt 6.42657396E-05 0.317396075
vt 6.42657396E-05 0.158794418
vt 6.42657396E-05 0.158794418
vt 6.42657396E-05 0.317396075
vt 6.42657396E-05 0.317396075
vt 6.42657396E-05 0.158794418
vt 6.42657396E-05 0.317396075
vt 6.42657396E-05 0.158794418
vt 6.42657396E-05 0.317396075
vt 6.42657396E-05 0.158794418
vt 6.42657396E-05 0.158794418
vt 6.42657396E-05 0.317396075
vt 6.42657396E-05 0.317396075
vt 6.42657396E-05 0.158794418
vt 6.42657396E-05 0.158794418
vt 6.42657396E-05 0.317396075
vt 6.42657396E-05 0.317396075
vt 6.42657396E-05 0.158794418
vt 6.42657396E-05 0.317396075
vt 6.42657396E-05 0.158794418
vt 6.42657396E-05 0.317396075
vt 6.42657396E-05 0.158794418
vt 6.42657396E-05 0.158794418
vt 6.42657396E-05 0.317396075
vt 6.42657396E-05 0.317396075
vt 6.42657396E-05 0.158794418
vt 6.42657396E-05 0.158794418
vt 6.42657396E-05 0.317396075
vt 6.42657396E-05 0.317396075
vt 6.42657396E-05 0.158794418
vt 6.42657396E-05 0.317396075
vt 6.42657396E-05 0.158794418
vt 6.42657396E-05 0.158794418
vt 6.42657396E-05 0.317396075
vt 6.42657396E-05 0.317396075
vt 6.42657396E-05 0.158794418
vt 6.42657396E-05 0.158794418
vt 6.42657396E-05 0.317396075
vt 6.42657396E-05 0.317396075
vt 0.25816381 0.857142925
vt 0.74183619 0.857142925
vt 0.845101714 0.984126985
vt 0.154898256 0.984126925
vt 0.845101714 0.984126985
vt 0.154898256 0.984126925
vt 0.154898226 0.857142925
vt 0.845101774 0.857142925
vt 0.74183619 0.984126925
vt 0.25816372 0.984126985
vt 0.154898286 0.857142925
vt 0.845101714 0.857142925
vt 0.162071884 0.857142925
vt 0.837928176 0.857142925
vt 0.837928116 0.984127045
vt 0.162071839 0.984127045
vt 0.270119667 0.984126985
vt 0.729880452 0.984127045
vt 0.837928116 0.857142925
vt 0.162071839 0.857142925
vt 6.42657396E-05 0.857078612
vt 6.42657396E-05 0.857078612
vt 6.42657396E-05 0.857078612
vt 6.42657396E-05 0.857078612
vt 6.42657396E-05 0.857078552
vt 6.42657396E-05 0.857078612
vt 6.42657396E-05 0.857078612
vt 6.42657396E-05 0.857078612
vt 6.42657396E-05 0.857078612
vt 6.42657396E-05 0.857078612
vt 6.42657396E-05 0.857078671
vt 6.42657396E-05 0.857078612
vt 6.42657396E-05 0.857078612
vt 6.42657396E-05 0.857078612
vt 6.42657396E-05 0.857078671
vt 6.42657396E-05 0.857078612
vt 6.42657396E-05 0.857078671
vt 6.42657396E-05 0.857078612
vt 6.42657396E-05 0.857078671
vt 6.42657396E-05 0.857078671
vt 6.42657396E-05 0.857078671
vt 6.42657396E-05 0.857078671
vt 6.42657396E-05 0.857078671
vt 6.42657396E-05 0.857078612
vt 0.162071884 0.984127045
vt 0.837928176 0.984127045
vt 0.837928116 0.857142925
vt 0.162071839 0.857142925
vt 0.154898286 0.857142925
vt 0.845101714 0.857142925
vt 0.845101774 0.984126985
vt 0.154898241 0.984126985
vt 0.74183619 0.857142925
vt 1 0.857142925
vt 1 0.945467353
vt 0.845101714 0.984126985
vt 0.154898256 0.984126925
vt 0 0.945467412
vt 0 0.857142925
vt 0.25816381 0.857142925
vt 0.162071839 0.857142925
vt 0.154898286 0.857142925
vt 0.25816372 0.984126985
vt 0.270119667 0.984126985
vt 0.845101714 0.857142925
vt 1 0.895802498
vt 1 0.984126985
vt 0.74183619 0.984126925
vt 0.845101714 0.857142925
vt 1 0.857142925
vt 1 0.984126985
vt 0.845101774 0.984126985
vt 0.154898241 0.984126985
vt 0 0.984126985
vt 0 0.857142925
vt 0.154898286 0.857142925
vt 0.162071839 0.857142925
vt 0.154898226 0.857142925
vt 0.154898256 0.984126925
vt 0.162071884 0.984127045
vt 0.845101774 0.857142925
vt 1 0.857142985
vt 1 0.984126985
vt 0.845101714 0.984126985
vt 0.270119548 0.857142925
vt 0.729880452 0.857142925
vt 0.837928116 0.984127045
vt 0.162071839 0.984127045
vt 0.516393423 0.255952239
vt 0.516393423 0.255952239
vt 0.516393423 0.255952239
vt 0.516393423 0.255952239
vt 0.516393423 0.255952239
vt 0.516393423 0.255952239
vt 0.516393423 0.255952239
vt 0.516393423 0.255952239
vt 0.516393423 0.255952239
vt 0.516393423 0.255952239
vt 0.516393423 0.255952239
vt 0.516393423 0.255952239
vt 0.516393423 0.255952239
vt 0.516393423 0.255952239
vt 0.516393423 0.255952239
vt 0.516393423 0.255952239
vt 0.516393423 0.255952239
vt 0.516393423 0.255952239
vt 0.516393423 0.255952239
vt 0.516393423 0.255952239
vt 0.516393423 0.255952239
vt 0.516393423 0.255952239
vt 0.516393423 0.255952239
vt 0.516393423 0.255952239
vt 0.516393423 0.255952239
vt 0.516393423 0.255952239
vt 0.516393423 0.255952239
vt 0.516393423 0.255952239
vt 0.516393423 0.255952239
vt 0.516393423 0.255952239
vt 0.516393423 0.255952239
vt 0.516393423 0.255952239
vt 0.516393423 0.255952239
vt 0.516393423 0.255952239
vt 0.516393423 0.255952239
vt 0.516393423 0.255952239
vt 0.516393423 0.255952239
vt 0.516393423 0.255952239
vt 0.516393423 0.255952239
vt 0.516393423 0.255952239
vt 0.516393423 0.255952239
vt 0.516393423 0.255952239
vt 0.516393423 0.255952239
vt 0.516393423 0.255952239
vt 0.516393423 0.255952239
vt 0.516393423 0.255952239
vt 0.516393423 0.255952239
vt 0.516393423 0.255952239
vt 0.918032765 0.333333373
vt 0.918032765 0.333333373
vt 0.918032765 0.333333373
vt 0.918032765 0.333333373
vt 0.918032765 0.333333373
vt 0.918032765 0.333333373
vt 0.918032765 0.333333373
vt 0.918032765 0.333333373
vt 0.918032765 0.365079403
vt 0.918032765 0.365079403
vt 0.918032765 0.365079403
vt 0.918032765 0.365079403
vt 0.918032765 0.333333373
vt 0.918032765 0.333333373
vt 0.918032765 0.333333373
vt 0.918032765 0.333333373
vt 0.918032765 0.333333373
vt 0.918032765 0.333333373
vt 0.918032765 0.333333373
vt 0.918032765 0.333333373
vt 0.918032765 0.333333373
vt 0.918032765 0.333333373
vt 0.918032765 0.333333373
vt 0.918032765 0.333333373
vt 0.918032765 0.333333373
vt 0.918032765 0.333333373
vt 0.918032765 0.333333373
vt 0.918032765 0.333333373
vt 0.918032765 0.333333373
vt 0.918032765 0.333333373
vt 0.918032765 0.333333373
vt 0.918032765 0.333333373
vt 0.918032765 0.333333373
vt 0.918032765 0.333333373
vt 0.918032765 0.333333373
vt 0.918032765 0.333333373
vt 0.918032765 0.333333373
vt 0.918032765 0.333333373
vt 0.918032765 0.333333373
vt 0.918032765 0.333333373
vt 0.918032765 0.333333373
vt 0.918032765 0.333333373
vt 0.918032765 0.333333373
vt 0.918032765 0.333333373
vt 0.918032765 0.365079403
vt 0.918032765 0.365079403
vt 0.918032765 0.365079403
vt 0.918032765 0.365079403
vt 0.918032765 0.365079403
vt 0.918032765 0.365079403
vt 0.918032765 0.365079403
vt 0.918032765 0.365079403
vt 0.918032765 0.365079403
vt 0.918032765 0.365079403
vt 0.918032765 0.365079403
vt 0.918032765 0.365079403
vt 0.918032765 0.365079403
vt 0.918032765 0.365079403
vt 0.918032765 0.365079403
vt 0.918032765 0.365079403
vt 0.918032765 0.365079403
vt 0.918032765 0.365079403
vt 0.918032765 0.365079403
vt 0.918032765 0.365079403
vt 0.918032765 0.365079403
vt 0.918032765 0.365079403
vt 0.918032765 0.365079403
vt 0.918032765 0.365079403
vt 0.918032765 0.365079403
vt 0.918032765 0.365079403
vt 0.918032765 0.365079403
vt 0.918032765 0.365079403
vt 0.918032765 0.365079403
vt 0.918032765 0.365079403
vt 0.918032765 0.365079403
vt 0.918032765 0.365079403
vt 0.918032765 0.365079403
vt 0.918032765 0.365079403
vt 0.918032765 0.365079403
vt 0.918032765 0.365079403
vt 0.770491779 0.365079403
vt 0.770491779 0.365079403
vt 0.770491779 0.365079403
vt 0.770491779 0.365079403
vt 0.770491779 0.365079403
vt 0.770491779 0.365079403
vt 0.770491779 0.365079403
vt 0.770491779 0.365079403
vt 0.770491779 0.365079403
vt 0.770491779 0.365079403
vt 0.770491779 0.365079403
vt 0.770491779 0.365079403
vt 0.770491779 0.365079403
vt 0.770491779 0.365079403
vt 0.770491779 0.365079403
vt 0.770491779 0.365079403
vt 0.770491779 0.365079403
vt 0.770491779 0.365079403
vt 0.770491779 0.365079403
vt 0.770491779 0.365079403
vt 0.770491779 0.365079403
vt 0.770491779 0.365079403
vt 0.770491779 0.365079403
vt 0.770491779 0.365079403
vt 0.770491779 0.365079403
vt 0.770491779 0.365079403
vt 0.770491779 0.365079403
vt 0.770491779 0.365079403
vt 0.770491779 0.365079403
vt 0.770491779 0.365079403
vt 0.770491779 0.365079403
vt 0.770491779 0.365079403
vt 0.770491779 0.365079403
vt 0.770491779 0.365079403
vt 0.770491779 0.365079403
vt 0.770491779 0.365079403
vt 0.770491779 0.365079403
vt 0.770491779 0.365079403
vt 0.770491779 0.365079403
vt 0.770491779 0.365079403
vt 0.770491779 0.365079403
vt 0.770491779 0.365079403
vt 0.770491779 0.365079403
vt 0.770491779 0.365079403
vt 0.770491779 0.365079403
vt 0.770491779 0.365079403
vt 0.770491779 0.365079403
vt 0.770491779 0.365079403
vt 0.770491779 0.365079403
vt 0.770491779 0.365079403
vt 0.770491779 0.365079403
vt 0.770491779 0.365079403
vt 0.770491779 0.365079403
vt 0.770491779 0.365079403
vt 0.770491779 0.365079403
vt 0.770491779 0.365079403
vt 0.770491779 0.365079403
vt 0.770491779 0.365079403
vt 0.770491779 0.365079403
vt 0.770491779 0.365079403
vt 0.770491779 0.365079403
vt 0.770491779 0.365079403
vt 0.770491779 0.365079403
vt 0.770491779 0.365079403
vt 0.770491779 0.365079403
vt 0.770491779 0.365079403
vt 0.770491779 0.365079403
vt 0.770491779 0.365079403
vt 0.770491779 0.365079403
vt 0.770491779 0.365079403
vt 0.770491779 0.365079403
vt 0.770491779 0.365079403
vt 0.770491779 0.365079403
vt 0.770491779 0.365079403
vt 0.770491779 0.365079403
vt 0.770491779 0.365079403
vt 0.901640058 0.365079403
vt 0.901640058 0.365079403
vt 0.901640058 0.365079403
vt 0.901640058 0.365079403
vt 0.770491779 0.365079403
vt 0.770491779 0.365079403
vt 0.770491779 0.365079403
vt 0.770491779 0.365079403
vt 0.770491779 0.365079403
vt 0.770491779 0.365079403
vt 0.770491779 0.365079403
vt 0.770491779 0.365079403
vt 0.770491779 0.365079403
vt 0.770491779 0.365079403
vt 0.770491779 0.365079403
vt 0.770491779 0.365079403
vt 0.770491779 0.365079403
vt 0.770491779 0.365079403
vt 0.770491779 0.365079403
vt 0.770491779 0.365079403
vt 0.770491779 0.365079403
vt 0.770491779 0.365079403
vt 0.770491779 0.365079403
vt 0.770491779 0.365079403
vt 0.770491779 0.365079403
vt 0.770491779 0.365079403
vt 0.770491779 0.365079403
vt 0.770491779 0.365079403
vt 0.770491779 0.365079403
vt 0.770491779 0.365079403
vt 0.770491779 0.365079403
vt 0.770491779 0.365079403
vt 0.901640058 0.365079403
vt 0.901640058 0.365079403
vt 0.901640058 0.365079403
vt 0.901640058 0.365079403
vt 0.901640058 0.365079403
vt 0.901640058 0.365079403
vt 0.901640058 0.365079403
vt 0.901640058 0.365079403
vt 0.901640058 0.365079403
vt 0.901640058 0.365079403
vt 0.901640058 0.365079403
vt 0.901640058 0.365079403
vt 0.901640058 0.365079403
vt 0.901640058 0.365079403
vt 0.901640058 0.365079403
vt 0.901640058 0.365079403
vt 0.901640058 0.365079403
vt 0.901640058 0.365079403
vt 0.901640058 0.365079403
vt 0.901640058 0.365079403
vt 0.901640058 0.365079403
vt 0.901640058 0.365079403
vt 0.901640058 0.365079403
vt 0.901640058 0.365079403
vt 0.901640058 0.365079403
vt 0.901640058 0.365079403
vt 0.901640058 0.365079403
vt 0.901640058 0.365079403
vt 0.901640058 0.365079403
vt 0.901640058 0.365079403
vt 0.901640058 0.365079403
vt 0.901640058 0.365079403
vt 0.901640058 0.365079403
vt 0.901640058 0.365079403
vt 0.901640058 0.365079403
vt 0.901640058 0.365079403
vn -0.025640 -0.999671 -0.000001
vn -0.025640 -0.999671 -0.000001
vn -0.025640 -0.999671 -0.000001
vn -0.025640 -0.999671 -0.000001
vn 0.000002 -0.000001 1.000000
vn 0.000002 -0.000001 1.000000
vn 0.000002 -0.000001 1.000000
vn 0.000002 -0.000001 1.000000
vn 0.000002 -0.000001 1.000000
vn 0.000002 -0.000001 1.000000
vn 0.000002 -0.000001 1.000000
vn 0.000002 -0.000001 1.000000
vn -0.984808 0.173648 0.000002
vn -0.984808 0.173648 0.000002
vn -0.984808 0.173648 0.000002
vn -0.984808 0.173648 0.000002
vn -0.984808 0.173648 0.000002
vn -0.984808 0.173648 0.000002
vn -0.984808 0.173648 0.000002
vn -0.984808 0.173648 0.000002
vn 0.317814 0.948153 0.000001
vn 0.317814 0.948153 0.000001
vn 0.317814 0.948153 0.000001
vn 0.317814 0.948153 0.000001
vn 0.984808 -0.173648 -0.000002
vn 0.984808 -0.173648 -0.000002
vn 0.984808 -0.173648 -0.000002
vn 0.984808 -0.173648 -0.000002
vn 0.984808 -0.173648 -0.000002
vn 0.984808 -0.173648 -0.000002
vn 0.984808 -0.173648 -0.000002
vn 0.984808 -0.173648 -0.000002
vn 0.063808 0.638062 -0.767337
vn 0.063808 0.638062 -0.767337
vn 0.063808 0.638062 -0.767337
vn 0.063808 0.638062 -0.767337
vn -0.158270 -0.621404 -0.767338
vn -0.158270 -0.621404 -0.767338
vn -0.158270 -0.621404 -0.767338
vn -0.158270 -0.621404 -0.767338
vn -0.158268 -0.621406 0.767337
vn -0.158268 -0.621406 0.767337
vn -0.158268 -0.621406 0.767337
vn -0.158268 -0.621406 0.767337
vn 0.158270 0.621404 0.767338
vn 0.158270 0.621404 0.767338
vn 0.158270 0.621404 0.767338
vn 0.158270 0.621404 0.767338
vn -0.000002 0.000001 -1.000000
vn -0.000002 0.000001 -1.000000
vn -0.000002 0.000001 -1.000000
vn -0.000002 0.000001 -1.000000
vn -0.000002 0.000001 -1.000000
vn -0.000002 0.000001 -1.000000
vn -0.000002 0.000001 -1.000000
vn -0.000002 0.000001 -1.000000
vn 0.000000 -1.000000 -0.000001
vn 0.000000 -1.000000 -0.000001
vn 0.000000 -1.000000 -0.000001
vn 0.000000 -1.000000 -0.000001
vn -0.000000 1.000000 0.000001
vn -0.000000 1.000000 0.000001
vn -0.000000 1.000000 0.000001
vn -0.000000 1.000000 0.000001
vn -0.000002 0.000001 -1.000000
vn -0.000002 0.000001 -1.000000
vn -0.000002 0.000001 -1.000000
vn -0.000002 0.000001 -1.000000
vn -1.000000 -0.000000 0.000002
vn -1.000000 -0.000000 0.000002
vn -1.000000 -0.000000 0.000002
vn -1.000000 -0.000000 0.000002
vn 0.000002 -0.000001 1.000000
vn 0.000002 -0.000001 1.000000
vn 0.000002 -0.000001 1.000000
vn 0.000002 -0.000001 1.000000
vn 1.000000 0.000000 -0.000002
vn 1.000000 0.000000 -0.000002
vn 1.000000 0.000000 -0.000002
vn 1.000000 0.000000 -0.000002
vn 1.000000 0.000000 -0.000002
vn 1.000000 0.000000 -0.000002
vn 1.000000 0.000000 -0.000002
vn 1.000000 0.000000 -0.000002
vn 0.000002 -0.000001 1.000000
vn 0.000002 -0.000001 1.000000
vn 0.000002 -0.000001 1.000000
vn 0.000002 -0.000001 1.000000
vn -1.000000 -0.000000 0.000002
vn -1.000000 -0.000000 0.000002
vn -1.000000 -0.000000 0.000002
vn -1.000000 -0.000000 0.000002
vn -0.000002 0.000001 -1.000000
vn -0.000002 0.000001 -1.000000
vn -0.000002 0.000001 -1.000000
vn -0.000002 0.000001 -1.000000
vn -0.000000 1.000000 0.000001
vn -0.000000 1.000000 0.000001
vn -0.000000 1.000000 0.000001
vn -0.000000 1.000000 0.000001
vn 0.000000 -1.000000 -0.000001
vn 0.000000 -1.000000 -0.000001
vn 0.000000 -1.000000 -0.000001
vn 0.000000 -1.000000 -0.000001
vn 0.000002 -0.000001 1.000000
vn 0.000002 -0.000001 1.000000
vn 0.000002 -0.000001 1.000000
vn 0.000002 -0.000001 1.000000
vn 0.000000 -1.000000 -0.000001
vn 0.000000 -1.000000 -0.000001
vn 0.000000 -1.000000 -0.000001
vn 0.000000 -1.000000 -0.000001
vn 0.000000 -1.000000 -0.000001
vn 0.000000 -1.000000 -0.000001
vn -0.000000 1.000000 0.000001
vn -0.000000 1.000000 0.000001
vn -0.000000 1.000000 0.000001
vn -0.000000 1.000000 0.000001
vn -1.000000 -0.000000 0.000002
vn -1.000000 -0.000000 0.000002
vn -1.000000 -0.000000 0.000002
vn -1.000000 -0.000000 0.000002
vn -1.000000 -0.000000 0.000002
vn -1.000000 -0.000000 0.000002
vn -1.000000 -0.000000 0.000002
vn -1.000000 -0.000000 0.000002
vn -1.000000 -0.000000 0.000002
vn -1.000000 -0.000000 0.000002
vn -1.000000 -0.000000 0.000002
vn -1.000000 -0.000000 0.000002
vn -1.000000 -0.000000 0.000002
vn -1.000000 -0.000000 0.000002
vn -1.000000 -0.000000 0.000002
vn -1.000000 -0.000000 0.000002
vn -1.000000 -0.000000 0.000002
vn -1.000000 -0.000000 0.000002
vn -1.000000 -0.000000 0.000002
vn -1.000000 -0.000000 0.000002
vn 1.000000 0.000000 -0.000002
vn 1.000000 0.000000 -0.000002
vn 1.000000 0.000000 -0.000002
vn 1.000000 0.000000 -0.000002
vn 1.000000 0.000000 -0.000002
vn 1.000000 0.000000 -0.000002
vn 1.000000 0.000000 -0.000002
vn 1.000000 0.000000 -0.000002
vn 1.000000 0.000000 -0.000002
vn 1.000000 0.000000 -0.000002
vn 1.000000 0.000000 -0.000002
vn 1.000000 0.000000 -0.000002
vn 1.000000 0.000000 -0.000002
vn 1.000000 0.000000 -0.000002
vn 1.000000 0.000000 -0.000002
vn 1.000000 0.000000 -0.000002
vn 1.000000 0.000000 -0.000002
vn 1.000000 0.000000 -0.000002
vn 1.000000 0.000000 -0.000002
vn 1.000000 0.000000 -0.000002
vn -0.000002 0.000001 -1.000000
vn -0.000002 0.000001 -1.000000
vn -0.000002 0.000001 -1.000000
vn -0.000002 0.000001 -1.000000
vn -0.000002 0.000001 -1.000000
vn -0.000002 0.000001 -1.000000
vn -0.000002 0.000001 -1.000000
vn -0.000002 0.000001 -1.000000
vn 0.000002 -0.000001 1.000000
vn 0.000002 -0.000001 1.000000
vn 0.000002 -0.000001 1.000000
vn 0.000002 -0.000001 1.000000
vn -0.000000 1.000000 0.000001
vn -0.000000 1.000000 0.000001
vn -0.000000 1.000000 0.000001
vn -0.000000 1.000000 0.000001
vn -0.000000 1.000000 0.000001
vn -0.000000 1.000000 0.000001
vn -0.000000 1.000000 0.000001
vn -0.000000 1.000000 0.000001
vn 0.000000 -1.000000 -0.000001
vn 0.000000 -1.000000 -0.000001
vn 0.000000 -1.000000 -0.000001
vn 0.000000 -1.000000 -0.000001
vn 0.000002 -0.000001 1.000000
vn 0.000002 -0.000001 1.000000
vn 0.000002 -0.000001 1.000000
vn 0.000002 -0.000001 1.000000
vn 0.000002 -0.000001 1.000000
vn 0.000002 -0.000001 1.000000
vn 0.000002 -0.000001 1.000000
vn 0.000002 -0.000001 1.000000
vn -0.000002 0.000001 -1.000000
vn -0.000002 0.000001 -1.000000
vn -0.000002 0.000001 -1.000000
vn -0.000002 0.000001 -1.000000
vn 0.000000 -1.000000 -0.000001
vn 0.000000 -1.000000 -0.000001
vn 0.000000 -1.000000 -0.000001
vn 0.000000 -1.000000 -0.000001
vn 0.000000 -1.000000 -0.000001
vn 0.000000 -1.000000 -0.000001
vn -0.000002 0.000001 -1.000000
vn -0.000002 0.000001 -1.000000
vn -0.000002 0.000001 -1.000000
vn -0.000002 0.000001 -1.000000
vn -0.000000 1.000000 0.000001
vn -0.000000 1.000000 0.000001
vn -0.000000 1.000000 0.000001
vn -0.000000 1.000000 0.000001
vn -0.805650 -0.000001 0.592392
vn -0.805650 -0.000001 0.592392
vn -0.805650 -0.000001 0.592392
vn -0.805650 -0.000001 0.592392
vn -0.000002 0.000001 -1.000000
vn -0.000002 0.000001 -1.000000
vn -0.000002 0.000001 -1.000000
vn -0.000002 0.000001 -1.000000
vn -0.805652 0.000001 -0.592389
vn -0.805652 0.000001 -0.592389
vn -0.805652 0.000001 -0.592389
vn -0.805652 0.000001 -0.592389
vn 0.000000 -1.000000 -0.000001
vn 0.000000 -1.000000 -0.000001
vn 0.000000 -1.000000 -0.000001
vn 0.000000 -1.000000 -0.000001
vn -0.821370 0.570396 0.000002
vn -0.821370 0.570396 0.000002
vn -0.821370 0.570396 0.000002
vn -0.821370 0.570396 0.000002
vn -1.000000 -0.000000 0.000002
vn -1.000000 -0.000000 0.000002
vn -1.000000 -0.000000 0.000002
vn -1.000000 -0.000000 0.000002
vn -1.000000 -0.000000 0.000002
vn -1.000000 -0.000000 0.000002
vn -1.000000 -0.000000 0.000002
vn -1.000000 -0.000000 0.000002
vn 1.000000 0.000000 -0.000002
vn 1.000000 0.000000 -0.000002
vn 1.000000 0.000000 -0.000002
vn 1.000000 0.000000 -0.000002
vn 1.000000 0.000000 -0.000002
vn 1.000000 0.000000 -0.000002
vn 1.000000 0.000000 -0.000002
vn 1.000000 0.000000 -0.000002
vn 1.000000 0.000000 -0.000002
vn 1.000000 0.000000 -0.000002
vn 1.000000 0.000000 -0.000002
vn 1.000000 0.000000 -0.000002
vn 1.000000 0.000000 -0.000002
vn 1.000000 0.000000 -0.000002
vn 1.000000 0.000000 -0.000002
vn 1.000000 0.000000 -0.000002
vn -0.000000 1.000000 0.000001
vn -0.000000 1.000000 0.000001
vn -0.000000 1.000000 0.000001
vn -0.000000 1.000000 0.000001
vn 0.000002 -0.000001 1.000000
vn 0.000002 -0.000001 1.000000
vn 0.000002 -0.000001 1.000000
vn 0.000002 -0.000001 1.000000
vn -0.892573 -0.316936 0.320726
vn -0.892573 -0.316936 0.320726
vn -0.892573 -0.316936 0.320726
vn -0.892573 -0.316936 0.320726
vn -0.892573 0.316935 0.320727
vn -0.892573 0.316935 0.320727
vn -0.892573 0.316935 0.320727
vn -0.892573 0.316935 0.320727
vn -0.892574 0.316937 -0.320724
vn -0.892574 0.316937 -0.320724
vn -0.892574 0.316937 -0.320724
vn -0.892574 0.316937 -0.320724
vn -0.892574 -0.316935 -0.320724
vn -0.892574 -0.316935 -0.320724
vn -0.892574 -0.316935 -0.320724
vn -0.892574 -0.316935 -0.320724
vn 0.000001 -0.702892 0.711296
vn 0.000001 -0.702892 0.711296
vn 0.000001 -0.702892 0.711296
vn 0.000001 -0.702892 0.711296
vn 0.000001 0.702891 0.711298
vn 0.000001 0.702891 0.711298
vn 0.000001 0.702891 0.711298
vn 0.000001 0.702891 0.711298
vn -0.000001 0.702892 -0.711296
vn -0.000001 0.702892 -0.711296
vn -0.000001 0.702892 -0.711296
vn -0.000001 0.702892 -0.711296
vn -0.000001 -0.702891 -0.711298
vn -0.000001 -0.702891 -0.711298
vn -0.000001 -0.702891 -0.711298
vn -0.000001 -0.702891 -0.711298
vn -0.821370 -0.570396 0.000001
vn -0.821370 -0.570396 0.000001
vn -0.821370 -0.570396 0.000001
vn -0.821370 -0.570396 0.000001
vn 0.063810 0.638060 0.767338
vn 0.063810 0.638060 0.767338
vn 0.063810 0.638060 0.767338
vn 0.063810 0.638060 0.767338
vn 0.100932 0.572407 0.813734
vn 0.100932 0.572407 0.813734
vn 0.100932 0.572407 0.813734
vn 0.100932 0.572407 0.813734
vn -0.063808 -0.638061 0.767337
vn -0.063808 -0.638061 0.767337
vn -0.063808 -0.638061 0.767337
vn -0.063808 -0.638061 0.767337
vn -0.100929 -0.572408 0.813734
vn -0.100929 -0.572408 0.813734
vn -0.100929 -0.572408 0.813734
vn -0.100929 -0.572408 0.813734
vn -0.063810 -0.638060 -0.767338
vn -0.063810 -0.638060 -0.767338
vn -0.063810 -0.638060 -0.767338
vn -0.063810 -0.638060 -0.767338
vn -0.100932 -0.572407 -0.813734
vn -0.100932 -0.572407 -0.813734
vn -0.100932 -0.572407 -0.813734
vn -0.100932 -0.572407 -0.813734
vn 0.158268 0.621406 -0.767337
vn 0.158268 0.621406 -0.767337
vn 0.158268 0.621406 -0.767337
vn 0.158268 0.621406 -0.767337
vn 0.100930 0.572408 -0.813733
vn 0.100930 0.572408 -0.813733
vn 0.100930 0.572408 -0.813733
vn 0.100930 0.572408 -0.813733
vn 0.025640 0.999671 0.000001
vn 0.025640 0.999671 0.000001
vn 0.025640 0.999671 0.000001
vn 0.025640 0.999671 0.000001
vn 0.173648 0.984808 0.000001
vn 0.173648 0.984808 0.000001
vn 0.173648 0.984808 0.000001
vn 0.173648 0.984808 0.000001
vn -0.317814 -0.948153 -0.000001
vn -0.317814 -0.948153 -0.000001
vn -0.317814 -0.948153 -0.000001
vn -0.317814 -0.948153 -0.000001
vn -0.173648 -0.984808 -0.000001
vn -0.173648 -0.984808 -0.000001
vn -0.173648 -0.984808 -0.000001
vn -0.173648 -0.984808 -0.000001
vn 0.984808 -0.173648 -0.000002
vn 0.984808 -0.173648 -0.000002
vn 0.984808 -0.173648 -0.000002
vn 0.984808 -0.173648 -0.000002
vn 0.984808 -0.173648 -0.000002
vn 0.984808 -0.173648 -0.000002
vn 0.984808 -0.173648 -0.000002
vn 0.984808 -0.173648 -0.000002
vn -0.160429 -0.909844 0.382684
vn -0.160429 -0.909844 0.382684
vn -0.160429 -0.909844 0.382684
vn -0.160429 -0.909844 0.382684
vn 0.066454 0.376869 0.923880
vn 0.066454 0.376869 0.923880
vn 0.066454 0.376869 0.923880
vn 0.066454 0.376869 0.923880
vn 0.160429 0.909844 -0.382683
vn 0.160429 0.909844 -0.382683
vn 0.160429 0.909844 -0.382683
vn 0.160429 0.909844 -0.382683
vn -0.066454 -0.376868 -0.923880
vn -0.066454 -0.376868 -0.923880
vn -0.066454 -0.376868 -0.923880
vn -0.066454 -0.376868 -0.923880
vn -0.160429 -0.909844 0.382683
vn -0.160429 -0.909844 0.382683
vn -0.160429 -0.909844 0.382683
vn -0.160429 -0.909844 0.382683
vn 0.160431 0.909843 0.382685
vn 0.160431 0.909843 0.382685
vn 0.160431 0.909843 0.382685
vn 0.160431 0.909843 0.382685
vn 0.066451 0.376871 -0.923879
vn 0.066451 0.376871 -0.923879
vn 0.066451 0.376871 -0.923879
vn 0.066451 0.376871 -0.923879
vn -0.160431 -0.909843 -0.382684
vn -0.160431 -0.909843 -0.382684
vn -0.160431 -0.909843 -0.382684
vn -0.160431 -0.909843 -0.382684
vn -0.066451 -0.376871 0.923879
vn -0.066451 -0.376871 0.923879
vn -0.066451 -0.376871 0.923879
vn -0.066451 -0.376871 0.923879
vn -0.984808 0.173648 0.000002
vn -0.984808 0.173648 0.000002
vn -0.984808 0.173648 0.000002
vn -0.984808 0.173648 0.000002
vn -0.984808 0.173648 0.000002
vn -0.984808 0.173648 0.000002
vn -0.984808 0.173648 0.000002
vn -0.984808 0.173648 0.000002
vn 0.160431 0.909843 0.382685
vn 0.160431 0.909843 0.382685
vn 0.160431 0.909843 0.382685
vn 0.160431 0.909843 0.382685
vn 0.066450 0.376871 -0.923879
vn 0.066450 0.376871 -0.923879
vn 0.066450 0.376871 -0.923879
vn 0.066450 0.376871 -0.923879
vn -0.160430 -0.909843 -0.382685
vn -0.160430 -0.909843 -0.382685
vn -0.160430 -0.909843 -0.382685
vn -0.160430 -0.909843 -0.382685
vn -0.066449 -0.376871 0.923879
vn -0.066449 -0.376871 0.923879
vn -0.066449 -0.376871 0.923879
vn -0.066449 -0.376871 0.923879
vn 0.066454 0.376869 0.923879
vn 0.066454 0.376869 0.923879
vn 0.066454 0.376869 0.923879
vn 0.066454 0.376869 0.923879
vn 0.160430 0.909844 -0.382683
vn 0.160430 0.909844 -0.382683
vn 0.160430 0.909844 -0.382683
vn 0.160430 0.909844 -0.382683
vn -0.066454 -0.376869 -0.923880
vn -0.066454 -0.376869 -0.923880
vn -0.066454 -0.376869 -0.923880
vn -0.066454 -0.376869 -0.923880
vn 0.984808 -0.173648 -0.000002
vn 0.984808 -0.173648 -0.000002
vn 0.984808 -0.173648 -0.000002
vn 0.984808 -0.173648 -0.000002
vn 0.984808 -0.173648 -0.000002
vn 0.984808 -0.173648 -0.000002
vn 0.984808 -0.173648 -0.000002
vn 0.984808 -0.173648 -0.000002
vn -0.353520 0.874755 -0.331402
vn -0.353520 0.874755 -0.331402
vn -0.353520 0.874755 -0.331402
vn -0.353520 0.874755 -0.331402
vn -0.160431 -0.909843 -0.382685
vn -0.160431 -0.909843 -0.382685
vn -0.160431 -0.909843 -0.382685
vn -0.160431 -0.909843 -0.382685
vn -0.066451 -0.376871 0.923879
vn -0.066451 -0.376871 0.923879
vn -0.066451 -0.376871 0.923879
vn -0.066451 -0.376871 0.923879
vn 0.066453 0.376869 0.923880
vn 0.066453 0.376869 0.923880
vn 0.066453 0.376869 0.923880
vn 0.066453 0.376869 0.923880
vn 0.160429 0.909844 -0.382683
vn 0.160429 0.909844 -0.382683
vn 0.160429 0.909844 -0.382683
vn 0.160429 0.909844 -0.382683
vn -0.066454 -0.376868 -0.923880
vn -0.066454 -0.376868 -0.923880
vn -0.066454 -0.376868 -0.923880
vn -0.066454 -0.376868 -0.923880
vn -0.160429 -0.909844 0.382683
vn -0.160429 -0.909844 0.382683
vn -0.160429 -0.909844 0.382683
vn -0.160429 -0.909844 0.382683
vn 0.160431 0.909843 0.382685
vn 0.160431 0.909843 0.382685
vn 0.160431 0.909843 0.382685
vn 0.160431 0.909843 0.382685
vn 0.066451 0.376871 -0.923879
vn 0.066451 0.376871 -0.923879
vn 0.066451 0.376871 -0.923879
vn 0.066451 0.376871 -0.923879
vn -0.066451 -0.376871 0.923879
vn -0.066451 -0.376871 0.923879
vn -0.066451 -0.376871 0.923879
vn -0.066451 -0.376871 0.923879
vn -0.550000 -0.239535 -0.800077
vn -0.550000 -0.239535 -0.800077
vn -0.550000 -0.239535 -0.800077
vn -0.550000 -0.239535 -0.800077
vn -0.631383 -0.701090 0.331403
vn -0.631383 -0.701090 0.331403
vn -0.631383 -0.701090 0.331403
vn -0.631383 -0.701090 0.331403
vn -0.353519 0.874754 0.331405
vn -0.353519 0.874754 0.331405
vn -0.353519 0.874754 0.331405
vn -0.353519 0.874754 0.331405
vn -0.434905 0.413202 -0.800076
vn -0.434905 0.413202 -0.800076
vn -0.434905 0.413202 -0.800076
vn -0.434905 0.413202 -0.800076
vn -0.631384 -0.701090 -0.331403
vn -0.631384 -0.701090 -0.331403
vn -0.631384 -0.701090 -0.331403
vn -0.631384 -0.701090 -0.331403
vn -0.549998 -0.239537 0.800078
vn -0.549998 -0.239537 0.800078
vn -0.549998 -0.239537 0.800078
vn -0.549998 -0.239537 0.800078
vn -0.434903 0.413200 0.800078
vn -0.434903 0.413200 0.800078
vn -0.434903 0.413200 0.800078
vn -0.434903 0.413200 0.800078
vn 0.160430 0.909843 0.382684
vn 0.160430 0.909843 0.382684
vn 0.160430 0.909843 0.382684
vn 0.160430 0.909843 0.382684
vn 0.066453 0.376869 0.923880
vn 0.066453 0.376869 0.923880
vn 0.066453 0.376869 0.923880
vn 0.066453 0.376869 0.923880
vn 0.160430 0.909844 -0.382683
vn 0.160430 0.909844 -0.382683
vn 0.160430 0.909844 -0.382683
vn 0.160430 0.909844 -0.382683
vn -0.066454 -0.376869 -0.923880
vn -0.066454 -0.376869 -0.923880
vn -0.066454 -0.376869 -0.923880
vn -0.066454 -0.376869 -0.923880
vn -0.160430 -0.909844 0.382683
vn -0.160430 -0.909844 0.382683
vn -0.160430 -0.909844 0.382683
vn -0.160430 -0.909844 0.382683
vn 0.160431 0.909843 0.382685
vn 0.160431 0.909843 0.382685
vn 0.160431 0.909843 0.382685
vn 0.160431 0.909843 0.382685
vn 0.066451 0.376871 -0.923879
vn 0.066451 0.376871 -0.923879
vn 0.066451 0.376871 -0.923879
vn 0.066451 0.376871 -0.923879
vn -0.160430 -0.909843 -0.382685
vn -0.160430 -0.909843 -0.382685
vn -0.160430 -0.909843 -0.382685
vn -0.160430 -0.909843 -0.382685
vn -0.984808 0.173647 0.000002
vn -0.984808 0.173647 0.000002
vn -0.984808 0.173647 0.000002
vn -0.984808 0.173647 0.000002
vn -0.984808 0.173647 0.000002
vn -0.984808 0.173647 0.000002
vn -0.984808 0.173647 0.000002
vn -0.984808 0.173647 0.000002
vn 0.066451 0.376871 -0.923879
vn 0.066451 0.376871 -0.923879
vn 0.066451 0.376871 -0.923879
vn 0.066451 0.376871 -0.923879
vn -0.160430 -0.909843 -0.382685
vn -0.160430 -0.909843 -0.382685
vn -0.160430 -0.909843 -0.382685
vn -0.160430 -0.909843 -0.382685
vn -0.066452 -0.376871 0.923879
vn -0.066452 -0.376871 0.923879
vn -0.066452 -0.376871 0.923879
vn -0.066452 -0.376871 0.923879
vn 0.066455 0.376869 0.923880
vn 0.066455 0.376869 0.923880
vn 0.066455 0.376869 0.923880
vn 0.066455 0.376869 0.923880
vn 0.160429 0.909844 -0.382683
vn 0.160429 0.909844 -0.382683
vn 0.160429 0.909844 -0.382683
vn 0.160429 0.909844 -0.382683
vn -0.066454 -0.376869 -0.923880
vn -0.066454 -0.376869 -0.923880
vn -0.066454 -0.376869 -0.923880
vn -0.066454 -0.376869 -0.923880
vn -0.160430 -0.909844 0.382683
vn -0.160430 -0.909844 0.382683
vn -0.160430 -0.909844 0.382683
vn -0.160430 -0.909844 0.382683
f 1/1/1 2/2/2 3/3/3
f 1/1/1 3/3/3 4/4/4
f 5/5/5 6/6/6 7/7/7
f 5/5/5 7/7/7 8/8/8
f 9/9/9 5/5/5 8/8/8
f 9/9/9 8/8/8 10/10/10
f 11/11/11 9/9/9 10/10/10
f 11/11/11 10/10/10 12/12/12
f 13/13/13 14/14/14 15/15/15
f 15/15/15 16/16/16 13/13/13
f 16/16/16 17/17/17 13/13/13
f 16/16/16 18/18/18 17/17/17
f 18/18/18 19/19/19 17/17/17
f 18/18/18 20/20/20 19/19/19
f 21/21/21 22/22/22 23/23/23
f 21/21/21 23/23/23 24/24/24
f 25/25/25 26/26/26 27/27/27
f 27/27/27 28/28/28 25/25/25
f 28/28/28 29/29/29 25/25/25
f 28/28/28 30/30/30 29/29/29
f 30/30/30 31/31/31 29/29/29
f 30/30/30 32/32/32 31/31/31
f 33/33/33 34/34/34 35/35/35
f 33/33/33 35/35/35 36/36/36
f 37/37/37 38/38/38 39/39/39
f 37/37/37 39/39/39 40/40/40
f 41/41/41 42/42/42 43/43/43
f 41/41/41 43/43/43 44/44/44
f 45/45/45 46/46/46 47/47/47
f 45/45/45 47/47/47 48/48/48
f 49/49/49 50/50/50 51/51/51
f 49/49/49 51/51/51 52/52/52
f 53/53/53 49/49/49 52/52/52
f 53/53/53 52/52/52 54/54/54
f 55/55/55 53/53/53 54/54/54
f 55/55/55 54/54/54 56/56/56
f 57/57/57 58/58/58 59/59/59
f 57/57/57 59/59/59 60/60/60
f 61/61/61 62/62/62 63/63/63
f 61/61/61 63/63/63 64/64/64
f 65/65/65 66/66/66 67/67/67
f 65/65/65 67/67/67 68/68/68
f 69/69/69 70/70/70 71/71/71
f 69/69/69 71/71/71 72/72/72
f 73/73/73 74/74/74 75/75/75
f 73/73/73 75/75/75 76/76/76
f 77/77/77 78/78/78 79/79/79
f 77/77/77 79/79/79 80/80/80
f 81/81/81 82/82/82 83/83/83
f 81/81/81 83/83/83 84/84/84
f 85/85/85 86/86/86 87/87/87
f 85/85/85 87/87/87 88/88/88
f 89/89/89 90/90/90 91/91/91
f 89/89/89 91/91/91 92/92/92
f 93/93/93 94/94/94 95/95/95
f 93/93/93 95/95/95 96/96/96
f 97/97/97 98/98/98 99/99/99
f 97/97/97 99/99/99 100/100/100
f 101/101/101 102/102/102 103/103/103
f 101/101/101 103/103/103 104/104/104
f 105/105/105 106/106/106 107/107/107
f 105/105/105 107/107/107 108/108/108
f 109/109/109 110/110/110 111/111/111
f 109/109/109 111/111/111 112/112/112
f 113/113/113 109/109/109 112/112/112
f 113/113/113 112/112/112 114/114/114
f 115/115/115 116/116/116 117/117/117
f 115/115/115 117/117/117 118/118/118
f 119/119/119 120/120/120 121/121/121
f 119/119/119 122/122/122 120/120/120
f 122/122/122 123/123/123 120/120/120
f 122/122/122 124/124/124 123/123/123
f 122/122/122 125/125/125 124/124/124
f 122/122/122 126/126/126 125/125/125
f 126/126/126 127/127/127 125/125/125
f 126/126/126 128/128/128 127/127/127
f 126/126/126 129/129/129 128/128/128
f 126/126/126 130/130/130 129/129/129
f 130/130/130 131/131/131 129/129/129
f 130/130/130 132/132/132 131/131/131
f 130/130/130 133/133/133 132/132/132
f 130/130/130 134/134/134 133/133/133
f 134/134/134 135/135/135 133/133/133
f 134/134/134 136/136/136 135/135/135
f 134/134/134 137/137/137 136/136/136
f 134/134/134 138/138/138 137/137/137
f 139/139/139 140/140/140 141/141/141
f 139/139/139 142/142/142 140/140/140
f 142/142/142 143/143/143 140/140/140
f 142/142/142 144/144/144 143/143/143
f 143/143/143 145/145/145 140/140/140
f 143/143/143 146/146/146 145/145/145
f 146/146/146 147/147/147 145/145/145
f 146/146/146 148/148/148 147/147/147
f 147/147/147 149/149/149 145/145/145
f 147/147/147 150/150/150 149/149/149
f 150/150/150 151/151/151 149/149/149
f 150/150/150 152/152/152 151/151/151
f 151/151/151 153/153/153 149/149/149
f 151/151/151 154/154/154 153/153/153
f 154/154/154 155/155/155 153/153/153
f 154/154/154 156/156/156 155/155/155
f 155/155/155 157/157/157 153/153/153
f 155/155/155 158/158/158 157/157/157
f 159/159/159 160/160/160 161/161/161
f 159/159/159 162/162/162 160/160/160
f 162/162/162 163/163/163 160/160/160
f 162/162/162 164/164/164 163/163/163
f 164/164/164 165/165/165 163/163/163
f 164/164/164 166/166/166 165/165/165
f 167/167/167 168/168/168 169/169/169
f 167/167/167 169/169/169 170/170/170
f 171/171/171 172/172/172 173/173/173
f 171/171/171 173/173/173 174/174/174
f 174/174/174 175/175/175 171/171/171
f 174/174/174 176/176/176 175/175/175
f 176/176/176 177/177/177 175/175/175
f 176/176/176 178/178/178 177/177/177
f 179/179/179 180/180/180 181/181/181
f 179/179/179 181/181/181 182/182/182
f 183/183/183 184/184/184 185/185/185
f 183/183/183 185/185/185 186/186/186
f 186/186/186 187/187/187 183/183/183
f 186/186/186 188/188/188 187/187/187
f 188/188/188 189/189/189 187/187/187
f 188/188/188 190/190/190 189/189/189
f 191/191/191 192/192/192 193/193/193
f 191/191/191 193/193/193 194/194/194
f 195/195/195 196/196/196 197/197/197
f 195/195/195 197/197/197 198/198/198
f 198/198/198 199/199/199 195/195/195
f 198/198/198 200/200/200 199/199/199
f 201/201/201 202/202/202 203/203/203
f 201/201/201 203/203/203 204/204/204
f 205/205/205 206/206/206 207/207/207
f 205/205/205 207/207/207 208/208/208
f 209/209/209 210/210/210 211/211/211
f 209/209/209 211/211/211 212/212/212
f 213/213/213 214/214/214 215/215/215
f 213/213/213 215/215/215 216/216/216
f 217/217/217 218/218/218 219/219/219
f 217/217/217 219/219/219 220/220/220
f 221/221/221 222/222/222 223/223/223
f 221/221/221 223/223/223 224/224/224
f 225/225/225 226/226/226 227/227/227
f 225/225/225 227/227/227 228/228/228
f 229/229/229 230/230/230 231/231/231
f 231/231/231 232/232/232 229/229/229
f 231/231/231 233/233/233 232/232/232
f 233/233/233 234/234/234 232/232/232
f 233/233/233 235/235/235 234/234/234
f 233/233/233 236/236/236 235/235/235
f 237/237/237 238/238/238 239/239/239
f 239/239/239 240/240/240 237/237/237
f 240/240/240 241/241/241 237/237/237
f 240/240/240 242/242/242 241/241/241
f 242/242/242 243/243/243 241/241/241
f 242/242/242 244/244/244 243/243/243
f 245/245/245 246/246/246 247/247/247
f 247/247/247 248/248/248 245/245/245
f 248/248/248 249/249/249 245/245/245
f 248/248/248 250/250/250 249/249/249
f 250/250/250 251/251/251 249/249/249
f 250/250/250 252/252/252 251/251/251
f 253/253/253 254/254/254 255/255/255
f 253/253/253 255/255/255 256/256/256
f 257/257/257 258/258/258 259/259/259
f 257/257/257 259/259/259 260/260/260
f 261/261/261 262/262/262 263/263/263
f 261/261/261 263/263/263 264/264/264
f 265/265/265 266/266/266 267/267/267
f 265/265/265 267/267/267 268/268/268
f 269/269/269 270/270/270 271/271/271
f 269/269/269 271/271/271 272/272/272
f 273/273/273 274/274/274 275/275/275
f 273/273/273 275/275/275 276/276/276
f 277/277/277 278/278/278 279/279/279
f 277/277/277 279/279/279 280/280/280
f 281/281/281 282/282/282 283/283/283
f 281/281/281 283/283/283 284/284/284
f 285/285/285 286/286/286 287/287/287
f 285/285/285 287/287/287 288/288/288
f 289/289/289 290/290/290 291/291/291
f 289/289/289 291/291/291 292/292/292
f 293/293/293 294/294/294 295/295/295
f 293/293/293 295/295/295 296/296/296
f 297/297/297 298/298/298 299/299/299
f 297/297/297 299/299/299 300/300/300
f 301/301/301 302/302/302 303/303/303
f 301/301/301 303/303/303 304/304/304
f 305/305/305 306/306/306 307/307/307
f 305/305/305 307/307/307 308/308/308
f 309/309/309 310/310/310 311/311/311
f 309/309/309 311/311/311 312/312/312
f 313/313/313 314/314/314 315/315/315
f 313/313/313 315/315/315 316/316/316
f 317/317/317 318/318/318 319/319/319
f 317/317/317 319/319/319 320/320/320
f 321/321/321 322/322/322 323/323/323
f 321/321/321 323/323/323 324/324/324
f 325/325/325 326/326/326 327/327/327
f 325/325/325 327/327/327 328/328/328
f 329/329/329 330/330/330 331/331/331
f 329/329/329 331/331/331 332/332/332
f 333/333/333 334/334/334 335/335/335
f 333/333/333 335/335/335 336/336/336
f 337/337/337 338/338/338 339/339/339
f 337/337/337 339/339/339 340/340/340
f 341/341/341 342/342/342 343/343/343
f 341/341/341 343/343/343 344/344/344
f 345/345/345 346/346/346 347/347/347
f 347/347/347 348/348/348 345/345/345
f 347/347/347 349/349/349 348/348/348
f 349/349/349 350/350/350 348/348/348
f 349/349/349 351/351/351 350/350/350
f 351/351/351 352/352/352 350/350/350
f 353/353/353 354/354/354 355/355/355
f 353/353/353 355/355/355 356/356/356
f 357/357/357 358/358/358 359/359/359
f 357/357/357 359/359/359 360/360/360
f 361/361/361 362/362/362 363/363/363
f 361/361/361 363/363/363 364/364/364
f 365/365/365 366/366/366 367/367/367
f 365/365/365 367/367/367 368/368/368
f 369/369/369 370/370/370 371/371/371
f 369/369/369 371/371/371 372/372/372
f 373/373/373 374/374/374 375/375/375
f 373/373/373 375/375/375 376/376/376
f 377/377/377 378/378/378 379/379/379
f 377/377/377 379/379/379 380/380/380
f 381/381/381 382/382/382 383/383/383
f 381/381/381 383/383/383 384/384/384
f 385/385/385 386/386/386 387/387/387
f 385/385/385 387/387/387 388/388/388
f 389/389/389 390/390/390 391/391/391
f 391/391/391 392/392/392 389/389/389
f 391/391/391 393/393/393 392/392/392
f 393/393/393 394/394/394 392/392/392
f 394/394/394 395/395/395 392/392/392
f 394/394/394 396/396/396 395/395/395
f 397/397/397 398/398/398 399/399/399
f 397/397/397 399/399/399 400/400/400
f 401/401/401 402/402/402 403/403/403
f 401/401/401 403/403/403 404/404/404
f 405/405/405 406/406/406 407/407/407
f 405/405/405 407/407/407 408/408/408
f 409/409/409 410/410/410 411/411/411
f 409/409/409 411/411/411 412/412/412
f 413/413/413 414/414/414 415/415/415
f 413/413/413 415/415/415 416/416/416
f 417/417/417 418/418/418 419/419/419
f 417/417/417 419/419/419 420/420/420
f 421/421/421 422/422/422 423/423/423
f 421/421/421 423/423/423 424/424/424
f 425/425/425 426/426/426 427/427/427
f 427/427/427 428/428/428 425/425/425
f 427/427/427 429/429/429 428/428/428
f 429/429/429 430/430/430 428/428/428
f 429/429/429 431/431/431 430/430/430
f 431/431/431 432/432/432 430/430/430
f 433/433/433 434/434/434 435/435/435
f 433/433/433 435/435/435 436/436/436
f 437/437/437 438/438/438 439/439/439
f 437/437/437 439/439/439 440/440/440
f 441/441/441 442/442/442 443/443/443
f 441/441/441 443/443/443 444/444/444
f 445/445/445 446/446/446 447/447/447
f 445/445/445 447/447/447 448/448/448
f 449/449/449 450/450/450 451/451/451
f 449/449/449 451/451/451 452/452/452
f 453/453/453 454/454/454 455/455/455
f 453/453/453 455/455/455 456/456/456
f 457/457/457 458/458/458 459/459/459
f 457/457/457 459/459/459 460/460/460
f 461/461/461 462/462/462 463/463/463
f 461/461/461 463/463/463 464/464/464
f 465/465/465 466/466/466 467/467/467
f 465/465/465 467/467/467 468/468/468
f 469/469/469 470/470/470 471/471/471
f 469/469/469 471/471/471 472/472/472
f 473/473/473 474/474/474 475/475/475
f 473/473/473 475/475/475 476/476/476
f 477/477/477 478/478/478 479/479/479
f 477/477/477 479/479/479 480/480/480
f 481/481/481 482/482/482 483/483/483
f 481/481/481 483/483/483 484/484/484
f 485/485/485 486/486/486 487/487/487
f 485/485/485 487/487/487 488/488/488
f 489/489/489 490/490/490 491/491/491
f 489/489/489 491/491/491 492/492/492
f 493/493/493 494/494/494 495/495/495
f 493/493/493 495/495/495 496/496/496
f 497/497/497 498/498/498 499/499/499
f 497/497/497 499/499/499 500/500/500
f 501/501/501 502/502/502 503/503/503
f 501/501/501 503/503/503 504/504/504
f 505/505/505 506/506/506 507/507/507
f 505/505/505 507/507/507 508/508/508
f 509/509/509 510/510/510 511/511/511
f 509/509/509 511/511/511 512/512/512
f 513/513/513 514/514/514 515/515/515
f 513/513/513 515/515/515 516/516/516
f 517/517/517 518/518/518 519/519/519
f 517/517/517 519/519/519 520/520/520
f 521/521/521 522/522/522 523/523/523
f 521/521/521 523/523/523 524/524/524
f 525/525/525 526/526/526 527/527/527
f 525/525/525 527/527/527 528/528/528
f 529/529/529 530/530/530 531/531/531
f 529/529/529 531/531/531 532/532/532
f 533/533/533 534/534/534 535/535/535
f 535/535/535 536/536/536 533/533/533
f 535/535/535 537/537/537 536/536/536
f 537/537/537 538/538/538 536/536/536
f 538/538/538 539/539/539 536/536/536
f 538/538/538 540/540/540 539/539/539
f 541/541/541 542/542/542 543/543/543
f 541/541/541 543/543/543 544/544/544
f 545/545/545 546/546/546 547/547/547
f 545/545/545 547/547/547 548/548/548
f 549/549/549 550/550/550 551/551/551
f 549/549/549 551/551/551 552/552/552
f 553/553/553 554/554/554 555/555/555
f 553/553/553 555/555/555 556/556/556
f 557/557/557 558/558/558 559/559/559
f 557/557/557 559/559/559 560/560/560
f 561/561/561 562/562/562 563/563/563
f 561/561/561 563/563/563 564/564/564
f 565/565/565 566/566/566 567/567/567
f 565/565/565 567/567/567 568/568/568
