# coalition_captain_hat_hat (gear rip -> Godot: Z negated + winding reversed)
v -0.023474 0.189184 -0.249100
v -0.021391 0.185912 -0.226207
v -0.021391 0.219635 -0.221526
v -0.023474 0.222908 -0.244419
v -0.023474 0.222908 -0.244419
v -0.021391 0.219635 -0.221526
v 0.021391 0.219635 -0.221526
v 0.023474 0.222908 -0.244419
v -0.025558 0.226180 -0.267313
v 0.025558 0.226180 -0.267313
v 0.023474 0.222908 -0.244419
v 0.021391 0.219635 -0.221526
v 0.021391 0.185912 -0.226207
v 0.023474 0.189184 -0.249100
v -0.021391 0.185912 -0.226207
v 0.021391 0.185912 -0.226207
v 0.021391 0.219635 -0.221526
v -0.021391 0.219635 -0.221526
v -0.207456 -0.209439 -0.173126
v -0.203922 -0.205893 -0.141410
v -0.203922 0.201951 -0.141410
v -0.207456 0.205473 -0.175037
v -0.000000 0.207081 -0.181784
v 0.203922 0.201951 -0.141410
v 0.207456 0.205473 -0.175037
v -0.000000 0.201951 -0.141410
v -0.207456 0.205473 -0.175037
v -0.203922 0.201951 -0.141410
v 0.207456 0.205473 -0.175037
v 0.203922 0.201951 -0.141410
v 0.203922 -0.205893 -0.141410
v 0.207456 -0.209439 -0.173126
v -0.000000 -0.209439 -0.175037
v -0.203922 -0.205893 -0.141410
v -0.207456 -0.209439 -0.173126
v -0.000000 -0.205893 -0.141410
v 0.207456 -0.209439 -0.173126
v 0.203922 -0.205893 -0.141410
v -0.000000 -0.226169 -0.333647
v -0.224128 -0.226169 -0.322722
v -0.224128 0.222087 -0.333647
v -0.000000 0.231277 -0.372221
v 0.224128 -0.226169 -0.322722
v 0.224128 0.222087 -0.333647
v -0.228459 -0.230430 -0.158959
v -0.228459 -0.230430 -0.105999
v -0.228459 0.226488 -0.105999
v -0.228459 0.226488 -0.158959
v -0.176204 0.350877 -0.158959
v -0.176204 0.350877 -0.105999
v 0.228459 0.226488 -0.105999
v 0.176204 0.350877 -0.105999
v -0.176204 0.350877 -0.105999
v -0.228459 0.226488 -0.105999
v -0.228459 -0.230430 -0.105999
v 0.228459 -0.230430 -0.105999
v 0.228459 0.226488 -0.158959
v 0.228459 -0.230430 -0.105999
v 0.228459 -0.230430 -0.158959
v 0.228459 0.226488 -0.105999
v 0.176204 0.350877 -0.105999
v 0.176204 0.350877 -0.158959
v 0.228459 -0.230430 -0.158959
v 0.228459 -0.230430 -0.105999
v -0.228459 -0.230430 -0.105999
v -0.228459 -0.230430 -0.158959
v 0.228459 -0.230430 -0.158959
v -0.228459 -0.230430 -0.158959
v -0.228459 0.226488 -0.158959
v 0.228459 0.226488 -0.158959
v 0.176204 0.350877 -0.158959
v -0.176204 0.350877 -0.158959
v -0.176204 0.350877 -0.158959
v -0.176204 0.350877 -0.105999
v 0.176204 0.350877 -0.105999
v 0.176204 0.350877 -0.158959
v 0.023474 0.222908 -0.244419
v 0.060335 0.222908 -0.244419
v 0.064874 0.226180 -0.267313
v 0.025558 0.226180 -0.267313
v 0.069412 0.229453 -0.290206
v 0.027642 0.229453 -0.290206
v 0.101137 0.229453 -0.290206
v 0.094734 0.226180 -0.267313
v -0.027642 0.195730 -0.294887
v -0.069412 0.229453 -0.290206
v -0.027642 0.229453 -0.290206
v -0.069412 0.195730 -0.294887
v -0.101137 0.229453 -0.290206
v -0.101137 0.195730 -0.294887
v 0.064874 0.226180 -0.267313
v 0.060335 0.222908 -0.244419
v 0.060335 0.189184 -0.249100
v 0.064874 0.192457 -0.271993
v 0.069412 0.229453 -0.290206
v 0.101137 0.229453 -0.290206
v 0.101137 0.195730 -0.294887
v 0.069412 0.195730 -0.294887
v 0.027642 0.229453 -0.290206
v 0.027642 0.195730 -0.294887
v -0.064874 0.192457 -0.271993
v -0.060335 0.189184 -0.249100
v -0.060335 0.222908 -0.244419
v -0.064874 0.226180 -0.267313
v 0.023474 0.189184 -0.249100
v 0.060335 0.189184 -0.249100
v 0.060335 0.222908 -0.244419
v 0.023474 0.222908 -0.244419
v -0.023474 0.222908 -0.244419
v -0.060335 0.222908 -0.244419
v -0.060335 0.189184 -0.249100
v -0.023474 0.189184 -0.249100
v -0.025558 0.226180 -0.267313
v -0.060335 0.222908 -0.244419
v -0.023474 0.222908 -0.244419
v -0.064874 0.226180 -0.267313
v -0.027642 0.229453 -0.290206
v -0.069412 0.229453 -0.290206
v -0.094734 0.226180 -0.267313
v -0.101137 0.229453 -0.290206
v 0.101137 0.229453 -0.290206
v 0.094734 0.226180 -0.267313
v 0.094734 0.192457 -0.271993
v 0.101137 0.195730 -0.294887
v -0.101137 0.195730 -0.294887
v -0.094734 0.192457 -0.271993
v -0.094734 0.226180 -0.267313
v -0.101137 0.229453 -0.290206
v -0.064874 0.226180 -0.267313
v -0.094734 0.226180 -0.267313
v -0.094734 0.192457 -0.271993
v -0.064874 0.192457 -0.271993
v 0.064874 0.192457 -0.271993
v 0.094734 0.192457 -0.271993
v 0.094734 0.226180 -0.267313
v 0.064874 0.226180 -0.267313
v 0.027642 0.229453 -0.290206
v 0.027642 0.195730 -0.294887
v 0.025558 0.192457 -0.271993
v 0.025558 0.226180 -0.267313
v 0.025558 0.226180 -0.267313
v 0.025558 0.192457 -0.271993
v -0.025558 0.192457 -0.271993
v -0.025558 0.226180 -0.267313
v -0.025558 0.226180 -0.267313
v -0.025558 0.192457 -0.271993
v -0.027642 0.195730 -0.294887
v -0.027642 0.229453 -0.290206
v 0.224128 -0.226169 -0.322722
v 0.207456 -0.209439 -0.173126
v -0.000000 -0.209439 -0.175037
v -0.000000 -0.226169 -0.333647
v -0.207456 -0.209439 -0.173126
v -0.224128 -0.226169 -0.322722
v -0.224128 0.222087 -0.333647
v -0.207456 0.205473 -0.175037
v -0.000000 0.207081 -0.181784
v -0.000000 0.231277 -0.372221
v 0.207456 0.205473 -0.175037
v 0.224128 0.222087 -0.333647
v 0.224128 0.222087 -0.333647
v 0.207456 0.205473 -0.175037
v 0.207456 -0.209439 -0.173126
v 0.224128 -0.226169 -0.322722
v -0.224128 -0.226169 -0.322722
v -0.207456 -0.209439 -0.173126
v -0.207456 0.205473 -0.175037
v -0.224128 0.222087 -0.333647
vt 0.223926172 0.211305603
vt 0.223926187 0.210092604
vt 0.222331673 0.210079908
vt 0.222331673 0.211292922
vt 0.221218005 0.213518187
vt 0.222331673 0.213411465
vt 0.222331673 0.210419789
vt 0.221218005 0.210313052
vt 0.220104337 0.21362491
vt 0.220104337 0.21020633
vt 0.219729573 0.242174566
vt 0.219729573 0.240961552
vt 0.218135089 0.240974247
vt 0.218135089 0.242187262
vt 0.221327454 0.240961552
vt 0.221327454 0.243953228
vt 0.222929895 0.243953228
vt 0.222929895 0.240961552
vt 0.305481851 0.235279471
vt 0.294186294 0.235640198
vt 0.29289335 0.289146334
vt 0.304835379 0.29012242
vt 0.196165144 0.319394141
vt 0.210551441 0.292456657
vt 0.198588848 0.291794926
vt 0.21055156 0.319394082
vt 0.198588908 0.346993357
vt 0.21055156 0.346331567
vt 0.301304877 0.292074591
vt 0.289362848 0.293050677
vt 0.290655792 0.346556813
vt 0.301951349 0.34691754
vt 0.22539103 0.319955975
vt 0.214737833 0.347533792
vt 0.226036966 0.347556025
vt 0.213445961 0.320632964
vt 0.223389864 0.292432636
vt 0.21215421 0.293732077
vt 0.704890668 0.765703142
vt 0.678877294 0.765696287
vt 0.678877294 0.822224438
vt 0.704890668 0.823407412
vt 0.730904043 0.765696287
vt 0.730904043 0.822224438
vt 0.832571387 0.313394904
vt 0.839150071 0.313400328
vt 0.838965535 0.253435731
vt 0.832386851 0.253430367
vt 0.832571387 0.239152476
vt 0.839150071 0.23915787
vt 0.805270076 0.178823963
vt 0.79891634 0.165250495
vt 0.756066442 0.165250495
vt 0.749712825 0.178823963
vt 0.749712825 0.239152476
vt 0.805270076 0.239152476
vt 0.825623631 0.299122453
vt 0.832386851 0.239152476
vt 0.825808167 0.23915787
vt 0.832202315 0.299117029
vt 0.832386851 0.313394904
vt 0.825808167 0.313400328
vt 0.829154134 0.239152476
vt 0.835733056 0.239152476
vt 0.835733056 0.178795055
vt 0.829154134 0.178795055
vt 0.749712825 0.165250495
vt 0.694155455 0.165250495
vt 0.694155455 0.225607291
vt 0.749712825 0.225607291
vt 0.743359089 0.239187166
vt 0.700509191 0.239187166
vt 0.835733056 0.225347206
vt 0.842305303 0.225347206
vt 0.842305303 0.178795055
vt 0.835733056 0.178795055
vt 0.221218005 0.210313052
vt 0.221218005 0.210313052
vt 0.220104337 0.21020633
vt 0.220104337 0.21020633
vt 0.218990684 0.210099623
vt 0.218990684 0.210099623
vt 0.218990684 0.210099623
vt 0.220104337 0.21020633
vt 0.219729573 0.24459359
vt 0.221327454 0.24459359
vt 0.221327454 0.24459359
vt 0.219729573 0.24459359
vt 0.221327454 0.24459359
vt 0.219729573 0.24459359
vt 0.219729573 0.24338758
vt 0.219729573 0.242174566
vt 0.218135089 0.242187262
vt 0.218135089 0.243400276
vt 0.221327454 0.240961552
vt 0.221327454 0.240961552
vt 0.219729573 0.240961552
vt 0.219729573 0.240961552
vt 0.221327454 0.240961552
vt 0.219729573 0.240961552
vt 0.223926187 0.212518632
vt 0.223926172 0.211305603
vt 0.222331673 0.211292922
vt 0.222331673 0.212505922
vt 0.218135089 0.242187262
vt 0.218135089 0.242187262
vt 0.219729573 0.242174566
vt 0.219729573 0.242174566
vt 0.222331673 0.211292922
vt 0.222331673 0.211292922
vt 0.223926172 0.211305603
vt 0.223926172 0.211305603
vt 0.220104337 0.21362491
vt 0.221218005 0.213518187
vt 0.221218005 0.213518187
vt 0.220104337 0.21362491
vt 0.218990684 0.213731647
vt 0.218990684 0.213731647
vt 0.220104337 0.21362491
vt 0.218990684 0.213731647
vt 0.219729573 0.244600594
vt 0.219729573 0.24338758
vt 0.218135089 0.243400276
vt 0.218135089 0.24461329
vt 0.223926187 0.213731647
vt 0.223926187 0.212518632
vt 0.222331673 0.212505922
vt 0.222331673 0.213718936
vt 0.222331673 0.212505922
vt 0.222331673 0.212505922
vt 0.223926187 0.212518632
vt 0.223926187 0.212518632
vt 0.218135089 0.243400276
vt 0.218135089 0.243400276
vt 0.219729573 0.24338758
vt 0.219729573 0.24338758
vt 0.218990684 0.210099623
vt 0.218990684 0.210099623
vt 0.220104337 0.21020633
vt 0.220104337 0.21020633
vt 0.220104337 0.21020633
vt 0.220104337 0.21020633
vt 0.220104337 0.21362491
vt 0.220104337 0.21362491
vt 0.220104337 0.21362491
vt 0.220104337 0.21362491
vt 0.218990684 0.213731647
vt 0.218990684 0.213731647
vt 0.676166713 0.765730977
vt 0.664931059 0.767030418
vt 0.666932225 0.794553757
vt 0.678877294 0.793876708
vt 0.667578161 0.822153807
vt 0.678877294 0.822176099
vt 0.62816745 0.82225287
vt 0.640130103 0.821591139
vt 0.637706339 0.793991923
vt 0.623319924 0.793991923
vt 0.640130043 0.766392708
vt 0.62816745 0.765730977
vt 0.754788101 0.765696287
vt 0.742846072 0.766672373
vt 0.743492544 0.821515322
vt 0.754788101 0.821875989
vt 0.758318603 0.709516585
vt 0.747023046 0.709877253
vt 0.746376574 0.764720201
vt 0.758318603 0.765696287
vn -0.995965 -0.012338 0.088885
vn -0.995965 -0.012338 0.088885
vn -0.995965 -0.012338 0.088885
vn -0.995965 -0.012338 0.088885
vn -0.000000 0.989936 0.141515
vn -0.000000 0.989935 0.141524
vn -0.000000 0.989935 0.141524
vn -0.000000 0.989936 0.141515
vn -0.000000 0.989936 0.141516
vn -0.000000 0.989936 0.141516
vn 0.995965 -0.012338 0.088885
vn 0.995965 -0.012338 0.088885
vn 0.995965 -0.012338 0.088885
vn 0.995965 -0.012338 0.088885
vn -0.000000 -0.137488 0.990503
vn -0.000000 -0.137488 0.990503
vn -0.000000 -0.137488 0.990503
vn -0.000000 -0.137488 0.990503
vn -0.994198 0.000800 0.107558
vn -0.994199 0.000000 0.107558
vn -0.994199 0.000000 0.107558
vn -0.994198 0.000800 0.107558
vn -0.000000 0.993194 0.116472
vn 0.001975 0.993221 0.116222
vn 0.007281 0.993168 0.116469
vn -0.000000 0.993223 0.116222
vn -0.007281 0.993168 0.116469
vn -0.001975 0.993221 0.116222
vn 0.994198 0.000800 0.107558
vn 0.994199 0.000000 0.107558
vn 0.994199 0.000000 0.107558
vn 0.994198 0.000800 0.107558
vn -0.000000 -0.994170 0.107826
vn -0.000000 -0.994162 0.107898
vn 0.001602 -0.994169 0.107825
vn -0.000000 -0.994162 0.107898
vn -0.001602 -0.994169 0.107825
vn -0.000000 -0.994162 0.107898
vn -0.000000 -0.054572 -0.998510
vn -0.108499 -0.054250 -0.992615
vn -0.108499 -0.054250 -0.992615
vn -0.000000 -0.054572 -0.998510
vn 0.108499 -0.054250 -0.992615
vn 0.108499 -0.054250 -0.992615
vn -1.000000 0.000000 -0.000000
vn -1.000000 0.000000 -0.000000
vn -0.980294 0.197543 -0.000000
vn -0.980294 0.197543 -0.000000
vn -0.921953 0.387301 -0.000000
vn -0.921953 0.387301 -0.000000
vn -0.000000 0.000000 1.000000
vn -0.000000 0.000000 1.000000
vn -0.000000 0.000000 1.000000
vn -0.000000 0.000000 1.000000
vn -0.000000 0.000000 1.000000
vn -0.000000 0.000000 1.000000
vn 0.980294 0.197543 -0.000000
vn 1.000000 0.000000 -0.000000
vn 1.000000 0.000000 -0.000000
vn 0.980294 0.197543 -0.000000
vn 0.921953 0.387301 -0.000000
vn 0.921953 0.387301 -0.000000
vn -0.000000 -1.000000 -0.000000
vn -0.000000 -1.000000 -0.000000
vn -0.000000 -1.000000 -0.000000
vn -0.000000 -1.000000 -0.000000
vn -0.000000 0.000000 -1.000000
vn -0.000000 0.000000 -1.000000
vn -0.000000 0.000000 -1.000000
vn -0.000000 0.000000 -1.000000
vn -0.000000 0.000000 -1.000000
vn -0.000000 0.000000 -1.000000
vn -0.000000 1.000000 -0.000000
vn -0.000000 1.000000 -0.000000
vn -0.000000 1.000000 -0.000000
vn -0.000000 1.000000 -0.000000
vn -0.000000 0.989936 0.141515
vn -0.000000 0.989937 0.141511
vn -0.000000 0.989935 0.141520
vn -0.000000 0.989936 0.141516
vn -0.000000 0.989935 0.141524
vn -0.000000 0.989935 0.141524
vn -0.000000 0.989935 0.141524
vn -0.000000 0.989935 0.141524
vn -0.000000 0.137488 -0.990504
vn -0.000000 0.137488 -0.990504
vn -0.000000 0.137488 -0.990504
vn -0.000000 0.137488 -0.990504
vn -0.000000 0.137488 -0.990504
vn -0.000000 0.137488 -0.990504
vn 0.981282 -0.026477 0.190750
vn 0.981282 -0.026477 0.190750
vn 0.981282 -0.026477 0.190750
vn 0.981282 -0.026477 0.190750
vn -0.000000 0.137488 -0.990504
vn -0.000000 0.137488 -0.990504
vn -0.000000 0.137488 -0.990504
vn -0.000000 0.137488 -0.990504
vn -0.000000 0.137488 -0.990504
vn -0.000000 0.137488 -0.990504
vn -0.981282 -0.026477 0.190750
vn -0.981282 -0.026477 0.190750
vn -0.981282 -0.026477 0.190750
vn -0.981282 -0.026477 0.190750
vn -0.000000 -0.137488 0.990503
vn -0.000000 -0.137488 0.990503
vn -0.000000 -0.137488 0.990503
vn -0.000000 -0.137488 0.990503
vn -0.000000 -0.137488 0.990503
vn -0.000000 -0.137488 0.990503
vn -0.000000 -0.137488 0.990503
vn -0.000000 -0.137488 0.990503
vn -0.000000 0.989936 0.141516
vn -0.000000 0.989937 0.141511
vn -0.000000 0.989936 0.141515
vn -0.000000 0.989935 0.141520
vn -0.000000 0.989935 0.141524
vn -0.000000 0.989935 0.141524
vn -0.000000 0.989935 0.141524
vn -0.000000 0.989935 0.141524
vn 0.963742 -0.036687 0.264303
vn 0.963742 -0.036687 0.264303
vn 0.963742 -0.036687 0.264303
vn 0.963742 -0.036687 0.264303
vn -0.963742 -0.036687 0.264303
vn -0.963742 -0.036687 0.264303
vn -0.963742 -0.036687 0.264303
vn -0.963742 -0.036687 0.264303
vn -0.000000 -0.137488 0.990504
vn -0.000000 -0.137488 0.990504
vn -0.000000 -0.137488 0.990504
vn -0.000000 -0.137488 0.990504
vn -0.000000 -0.137488 0.990504
vn -0.000000 -0.137488 0.990504
vn -0.000000 -0.137488 0.990504
vn -0.000000 -0.137488 0.990504
vn -0.995965 0.012338 -0.088885
vn -0.995965 0.012338 -0.088885
vn -0.995965 0.012338 -0.088885
vn -0.995965 0.012338 -0.088885
vn -0.000000 0.137488 -0.990504
vn -0.000000 0.137488 -0.990504
vn -0.000000 0.137488 -0.990504
vn -0.000000 0.137488 -0.990504
vn 0.995965 0.012338 -0.088885
vn 0.995965 0.012338 -0.088885
vn 0.995965 0.012338 -0.088885
vn 0.995965 0.012338 -0.088885
vn -0.003205 -0.994173 0.107753
vn -0.001602 -0.994169 0.107825
vn -0.000000 -0.994170 0.107826
vn -0.000000 -0.994178 0.107753
vn 0.001602 -0.994169 0.107825
vn 0.003205 -0.994173 0.107753
vn -0.012587 0.993086 0.116713
vn -0.007281 0.993168 0.116469
vn -0.000000 0.993194 0.116472
vn -0.000000 0.993165 0.116722
vn 0.007281 0.993168 0.116469
vn 0.012587 0.993086 0.116713
vn 0.994197 0.001599 0.107558
vn 0.994198 0.000800 0.107558
vn 0.994198 0.000800 0.107558
vn 0.994197 0.001599 0.107558
vn -0.994197 0.001599 0.107558
vn -0.994198 0.000800 0.107558
vn -0.994198 0.000800 0.107558
vn -0.994197 0.001599 0.107558
f 1/1/1 2/2/2 3/3/3
f 1/1/1 3/3/3 4/4/4
f 5/5/5 6/6/6 7/7/7
f 5/5/5 7/7/7 8/8/8
f 9/9/9 5/5/5 8/8/8
f 9/9/9 8/8/8 10/10/10
f 11/11/11 12/12/12 13/13/13
f 11/11/11 13/13/13 14/14/14
f 15/15/15 16/16/16 17/17/17
f 15/15/15 17/17/17 18/18/18
f 19/19/19 20/20/20 21/21/21
f 19/19/19 21/21/21 22/22/22
f 23/23/23 24/24/24 25/25/25
f 23/23/23 26/26/26 24/24/24
f 27/27/27 26/26/26 23/23/23
f 27/27/27 28/28/28 26/26/26
f 29/29/29 30/30/30 31/31/31
f 29/29/29 31/31/31 32/32/32
f 33/33/33 34/34/34 35/35/35
f 33/33/33 36/36/36 34/34/34
f 37/37/37 36/36/36 33/33/33
f 37/37/37 38/38/38 36/36/36
f 39/39/39 40/40/40 41/41/41
f 39/39/39 41/41/41 42/42/42
f 43/43/43 39/39/39 42/42/42
f 43/43/43 42/42/42 44/44/44
f 45/45/45 46/46/46 47/47/47
f 45/45/45 47/47/47 48/48/48
f 47/47/47 49/49/49 48/48/48
f 47/47/47 50/50/50 49/49/49
f 51/51/51 52/52/52 53/53/53
f 51/51/51 53/53/53 54/54/54
f 55/55/55 51/51/51 54/54/54
f 55/55/55 56/56/56 51/51/51
f 57/57/57 58/58/58 59/59/59
f 57/57/57 60/60/60 58/58/58
f 57/57/57 61/61/61 60/60/60
f 57/57/57 62/62/62 61/61/61
f 63/63/63 64/64/64 65/65/65
f 63/63/63 65/65/65 66/66/66
f 67/67/67 68/68/68 69/69/69
f 67/67/67 69/69/69 70/70/70
f 69/69/69 71/71/71 70/70/70
f 69/69/69 72/72/72 71/71/71
f 73/73/73 74/74/74 75/75/75
f 73/73/73 75/75/75 76/76/76
f 77/77/77 78/78/78 79/79/79
f 77/77/77 79/79/79 80/80/80
f 80/80/80 79/79/79 81/81/81
f 80/80/80 81/81/81 82/82/82
f 79/79/79 83/83/83 81/81/81
f 79/79/79 84/84/84 83/83/83
f 85/85/85 86/86/86 87/87/87
f 85/85/85 88/88/88 86/86/86
f 88/88/88 89/89/89 86/86/86
f 88/88/88 90/90/90 89/89/89
f 91/91/91 92/92/92 93/93/93
f 91/91/91 93/93/93 94/94/94
f 95/95/95 96/96/96 97/97/97
f 95/95/95 97/97/97 98/98/98
f 99/99/99 95/95/95 98/98/98
f 99/99/99 98/98/98 100/100/100
f 101/101/101 102/102/102 103/103/103
f 101/101/101 103/103/103 104/104/104
f 105/105/105 106/106/106 107/107/107
f 105/105/105 107/107/107 108/108/108
f 109/109/109 110/110/110 111/111/111
f 109/109/109 111/111/111 112/112/112
f 113/113/113 114/114/114 115/115/115
f 113/113/113 116/116/116 114/114/114
f 117/117/117 116/116/116 113/113/113
f 117/117/117 118/118/118 116/116/116
f 118/118/118 119/119/119 116/116/116
f 118/118/118 120/120/120 119/119/119
f 121/121/121 122/122/122 123/123/123
f 121/121/121 123/123/123 124/124/124
f 125/125/125 126/126/126 127/127/127
f 125/125/125 127/127/127 128/128/128
f 129/129/129 130/130/130 131/131/131
f 129/129/129 131/131/131 132/132/132
f 133/133/133 134/134/134 135/135/135
f 133/133/133 135/135/135 136/136/136
f 137/137/137 138/138/138 139/139/139
f 137/137/137 139/139/139 140/140/140
f 141/141/141 142/142/142 143/143/143
f 141/141/141 143/143/143 144/144/144
f 145/145/145 146/146/146 147/147/147
f 145/145/145 147/147/147 148/148/148
f 149/149/149 150/150/150 151/151/151
f 149/149/149 151/151/151 152/152/152
f 152/152/152 151/151/151 153/153/153
f 152/152/152 153/153/153 154/154/154
f 155/155/155 156/156/156 157/157/157
f 155/155/155 157/157/157 158/158/158
f 158/158/158 157/157/157 159/159/159
f 158/158/158 159/159/159 160/160/160
f 161/161/161 162/162/162 163/163/163
f 161/161/161 163/163/163 164/164/164
f 165/165/165 166/166/166 167/167/167
f 165/165/165 167/167/167 168/168/168
