# corinthian_helmet_hat (gear rip -> Godot: Z negated + winding reversed)
v 0.225000 0.000000 0.150000
v 0.280545 -0.015204 0.217211
v 0.225000 -0.225000 0.150000
v 0.280545 -0.015204 0.217211
v 0.275000 -0.275000 0.225000
v 0.225000 -0.225000 0.150000
v -0.225000 0.000000 0.150000
v -0.225000 -0.225000 0.150000
v -0.280545 -0.015204 0.217211
v -0.225000 -0.225000 0.150000
v -0.275000 -0.275000 0.225000
v -0.280545 -0.015204 0.217211
v -0.300000 -0.025000 -0.250000
v -0.300000 0.025000 -0.250000
v -0.259808 0.025000 -0.400000
v -0.259808 -0.025000 -0.400000
v -0.259808 -0.025000 -0.400000
v -0.259808 0.025000 -0.400000
v -0.150000 0.025000 -0.509808
v -0.150000 -0.025000 -0.509808
v -0.150000 -0.025000 -0.509808
v -0.150000 0.025000 -0.509808
v -0.000000 0.025000 -0.550000
v -0.000000 -0.025000 -0.550000
v -0.000000 -0.025000 -0.550000
v -0.000000 0.025000 -0.550000
v 0.150000 0.025000 -0.509808
v 0.150000 -0.025000 -0.509808
v 0.150000 -0.025000 -0.509808
v 0.150000 0.025000 -0.509808
v 0.259808 0.025000 -0.400000
v 0.259808 -0.025000 -0.400000
v 0.259808 -0.025000 -0.400000
v 0.259808 0.025000 -0.400000
v 0.300000 0.025000 -0.250000
v 0.300000 -0.025000 -0.250000
v 0.259808 0.025000 -0.400000
v -0.000000 0.025000 -0.250000
v 0.300000 0.025000 -0.250000
v -0.000000 0.025000 -0.400000
v -0.300000 0.025000 -0.250000
v 0.150000 0.025000 -0.509808
v -0.259808 0.025000 -0.400000
v -0.000000 0.025000 -0.509808
v -0.000000 0.025000 -0.550000
v -0.150000 0.025000 -0.509808
v 0.259808 -0.025000 -0.400000
v 0.300000 -0.025000 -0.250000
v -0.000000 -0.025000 -0.250000
v -0.000000 -0.025000 -0.400000
v -0.300000 -0.025000 -0.250000
v 0.150000 -0.025000 -0.509808
v -0.259808 -0.025000 -0.400000
v -0.000000 -0.025000 -0.509808
v -0.000000 -0.025000 -0.550000
v -0.150000 -0.025000 -0.509808
v -0.300000 0.025000 -0.250000
v -0.300000 -0.025000 -0.250000
v -0.000000 -0.025000 -0.250000
v -0.000000 0.025000 -0.250000
v -0.000000 0.025000 -0.250000
v -0.000000 -0.025000 -0.250000
v 0.300000 -0.025000 -0.250000
v 0.300000 0.025000 -0.250000
v -0.538745 -0.012500 -0.241429
v -0.538745 0.012500 -0.241429
v -0.466567 0.012500 -0.563583
v -0.466567 -0.012500 -0.563583
v -0.269373 0.012500 -0.760778
v -0.269373 -0.012500 -0.760778
v -0.269373 -0.012500 -0.760778
v -0.269373 0.012500 -0.760778
v -0.000000 0.012500 -0.832956
v -0.000000 -0.012500 -0.832956
v 0.269373 0.012500 -0.760778
v 0.269373 -0.012500 -0.760778
v 0.269373 -0.012500 -0.760778
v 0.269373 0.012500 -0.760778
v 0.466567 0.012500 -0.563583
v 0.466567 -0.012500 -0.563583
v 0.538745 0.012500 -0.241429
v 0.538745 -0.012500 -0.241429
v 0.466567 0.012500 -0.563583
v -0.000000 0.012500 -0.294211
v 0.538745 0.012500 -0.241429
v -0.000000 0.012500 -0.563583
v -0.538745 0.012500 -0.241429
v 0.269373 0.012500 -0.760778
v -0.466567 0.012500 -0.563583
v -0.000000 0.012500 -0.760778
v -0.000000 0.012500 -0.832956
v -0.269373 0.012500 -0.760778
v 0.466567 -0.012500 -0.563583
v 0.538745 -0.012500 -0.241429
v -0.000000 -0.012500 -0.294211
v -0.000000 -0.012500 -0.563583
v -0.538745 -0.012500 -0.241429
v 0.269373 -0.012500 -0.760778
v -0.466567 -0.012500 -0.563583
v -0.000000 -0.012500 -0.760778
v -0.000000 -0.012500 -0.832956
v -0.269373 -0.012500 -0.760778
v -0.538745 0.012500 -0.241429
v -0.538745 -0.012500 -0.241429
v -0.000000 -0.012500 -0.294211
v -0.000000 0.012500 -0.294211
v -0.000000 0.012500 -0.294211
v -0.000000 -0.012500 -0.294211
v 0.538745 -0.012500 -0.241429
v 0.538745 0.012500 -0.241429
v 0.225000 0.000000 -0.225000
v 0.225000 0.225000 -0.225000
v 0.225000 0.225000 0.225000
v 0.225000 0.000000 0.150000
v 0.225000 -0.225000 0.150000
v 0.225000 -0.225000 -0.225000
v -0.225000 0.225000 0.225000
v -0.225000 0.225000 -0.225000
v -0.225000 0.000000 -0.225000
v -0.225000 0.000000 0.150000
v -0.225000 -0.225000 0.150000
v -0.225000 -0.225000 -0.225000
v 0.009995 -0.225000 -0.275000
v 0.225000 -0.225000 -0.225000
v 0.225000 -0.225000 0.150000
v 0.009999 -0.225000 0.150000
v -0.009999 -0.225000 0.150000
v -0.009995 -0.225000 -0.275000
v -0.225000 -0.225000 0.150000
v -0.225000 -0.225000 -0.225000
v 0.027871 0.215325 -0.026119
v 0.195892 0.215325 -0.046131
v 0.164180 0.215325 -0.090841
v 0.053439 0.215325 -0.076472
v -0.164180 0.215325 -0.090841
v -0.195892 0.215325 -0.046131
v -0.027871 0.215325 -0.026119
v -0.053439 0.215325 -0.076472
v 0.009944 0.225000 0.296685
v 0.027871 0.225000 -0.026119
v 0.009999 0.225000 -0.275000
v 0.053439 0.225000 -0.076472
v 0.164180 0.225000 -0.090841
v 0.225000 0.225000 -0.225000
v 0.195892 0.225000 -0.046131
v 0.225000 0.225000 0.225000
v 0.009944 0.225000 0.296685
v -0.009999 0.225000 -0.275000
v -0.009944 0.225000 0.296685
v -0.009944 0.225000 0.296685
v -0.027871 0.225000 -0.026119
v -0.053439 0.225000 -0.076472
v -0.195892 0.225000 -0.046131
v -0.225000 0.225000 0.225000
v -0.225000 0.225000 -0.225000
v -0.164180 0.225000 -0.090841
v 0.027871 0.225000 -0.026119
v 0.027871 0.215325 -0.026119
v 0.053439 0.215325 -0.076472
v 0.053439 0.225000 -0.076472
v 0.053439 0.225000 -0.076472
v 0.053439 0.215325 -0.076472
v 0.164180 0.215325 -0.090841
v 0.164180 0.225000 -0.090841
v 0.164180 0.225000 -0.090841
v 0.164180 0.215325 -0.090841
v 0.195892 0.215325 -0.046131
v 0.195892 0.225000 -0.046131
v 0.195892 0.225000 -0.046131
v 0.195892 0.215325 -0.046131
v 0.027871 0.215325 -0.026119
v 0.027871 0.225000 -0.026119
v -0.164180 0.225000 -0.090841
v -0.164180 0.215325 -0.090841
v -0.053439 0.215325 -0.076472
v -0.053439 0.225000 -0.076472
v -0.053439 0.225000 -0.076472
v -0.053439 0.215325 -0.076472
v -0.027871 0.215325 -0.026119
v -0.027871 0.225000 -0.026119
v -0.027871 0.225000 -0.026119
v -0.027871 0.215325 -0.026119
v -0.195892 0.215325 -0.046131
v -0.195892 0.225000 -0.046131
v -0.195892 0.225000 -0.046131
v -0.195892 0.215325 -0.046131
v -0.164180 0.215325 -0.090841
v -0.164180 0.225000 -0.090841
v 0.019014 0.231935 0.385730
v 0.286416 0.234344 0.303903
v 0.225000 0.225000 0.225000
v 0.009944 0.225000 0.296685
v -0.009944 0.225000 0.296685
v -0.019014 0.231935 0.385730
v -0.225000 0.225000 0.225000
v -0.286416 0.234344 0.303903
v 0.225000 0.000000 0.150000
v 0.225000 0.225000 0.225000
v 0.280545 -0.015204 0.217211
v 0.286416 0.234344 0.303903
v -0.225000 0.000000 0.150000
v -0.280545 -0.015204 0.217211
v -0.225000 0.225000 0.225000
v -0.286416 0.234344 0.303903
v 0.225000 -0.225000 0.150000
v 0.275000 -0.275000 0.225000
v 0.009999 -0.275000 0.225000
v 0.009999 -0.225000 0.150000
v -0.009999 -0.275000 0.225000
v -0.009999 -0.225000 0.150000
v -0.275000 -0.275000 0.225000
v -0.225000 -0.225000 0.150000
v -0.125543 -0.000000 -0.443687
v -0.000000 -0.113508 -0.499675
v -0.125543 -0.113508 -0.443687
v -0.000000 -0.000000 -0.499837
v -0.125543 0.113508 -0.443687
v 0.125543 -0.113508 -0.443687
v -0.000000 0.113508 -0.499675
v 0.125543 -0.000000 -0.443687
v 0.125543 0.113508 -0.443687
v -0.225000 0.000000 -0.225000
v -0.255013 -0.250000 -0.243687
v -0.225000 -0.225000 -0.225000
v -0.255013 -0.000000 -0.243687
v -0.225000 0.225000 -0.225000
v -0.255013 0.250000 -0.243687
v -0.009995 -0.225000 -0.275000
v -0.225000 -0.225000 -0.225000
v -0.012826 -0.250000 -0.299675
v -0.255013 -0.250000 -0.243687
v 0.225000 -0.225000 -0.225000
v 0.255013 -0.250000 -0.243687
v 0.255013 -0.000000 -0.243687
v 0.225000 0.000000 -0.225000
v 0.255013 0.250000 -0.243687
v 0.225000 0.225000 -0.225000
v 0.009995 -0.225000 -0.275000
v 0.012826 -0.250000 -0.299675
v 0.225000 -0.225000 -0.225000
v 0.255013 -0.250000 -0.243687
v -0.009999 0.225000 -0.275000
v -0.012830 0.250000 -0.299675
v -0.225000 0.225000 -0.225000
v -0.255013 0.250000 -0.243687
v 0.009999 0.225000 -0.275000
v 0.225000 0.225000 -0.225000
v 0.012830 0.250000 -0.299675
v 0.255013 0.250000 -0.243687
v -0.009995 -0.225000 -0.275000
v -0.012826 -0.250000 -0.299675
v 0.012826 -0.250000 -0.299675
v 0.009995 -0.225000 -0.275000
v 0.009999 0.225000 -0.275000
v 0.012830 0.250000 -0.299675
v -0.012830 0.250000 -0.299675
v -0.009999 0.225000 -0.275000
v -0.255013 -0.000000 -0.243687
v -0.221754 -0.200496 -0.343687
v -0.255013 -0.250000 -0.243687
v -0.221754 -0.000000 -0.343687
v -0.255013 0.250000 -0.243687
v -0.125543 -0.113508 -0.443687
v -0.221754 0.200496 -0.343687
v -0.125543 -0.000000 -0.443687
v -0.125543 0.113508 -0.443687
v -0.255013 -0.250000 -0.243687
v -0.221754 -0.200496 -0.343687
v -0.012826 -0.250000 -0.299675
v -0.000000 -0.200496 -0.399675
v -0.125543 -0.113508 -0.443687
v -0.000000 -0.113508 -0.499675
v 0.125543 -0.113508 -0.443687
v 0.012826 -0.250000 -0.299675
v 0.221754 -0.200496 -0.343687
v 0.255013 -0.250000 -0.243687
v -0.255013 0.250000 -0.243687
v -0.012830 0.250000 -0.299675
v -0.221754 0.200496 -0.343687
v -0.000000 0.200496 -0.399675
v -0.125543 0.113508 -0.443687
v -0.000000 0.113508 -0.499675
v 0.125543 0.113508 -0.443687
v 0.012830 0.250000 -0.299675
v 0.221754 0.200496 -0.343687
v 0.255013 0.250000 -0.243687
v 0.255013 -0.000000 -0.243687
v 0.221754 0.200496 -0.343687
v 0.255013 0.250000 -0.243687
v 0.221754 -0.000000 -0.343687
v 0.255013 -0.250000 -0.243687
v 0.125543 0.113508 -0.443687
v 0.221754 -0.200496 -0.343687
v 0.125543 -0.000000 -0.443687
v 0.125543 -0.113508 -0.443687
v -0.280545 -0.015204 0.217211
v -0.275000 -0.275000 0.225000
v -0.012821 -0.019127 0.222463
v -0.286416 0.234344 0.303903
v -0.009999 -0.275000 0.225000
v -0.019014 0.231935 0.385730
v 0.009999 -0.275000 0.225000
v 0.012821 -0.019127 0.222463
v 0.019014 0.231935 0.385730
v 0.275000 -0.275000 0.225000
v 0.286416 0.234344 0.303903
v 0.280545 -0.015204 0.217211
vt 0.280237079 0.732090294
vt 0.285193622 0.731050253
vt 0.280072272 0.719202876
vt 0.285193622 0.731050253
vt 0.285158277 0.716252565
vt 0.280072272 0.719202876
vt 0.205123663 0.725879192
vt 0.2052885 0.712991714
vt 0.20016712 0.724839091
vt 0.2052885 0.712991714
vt 0.200202525 0.710041404
vt 0.20016712 0.724839091
vt -0.509447098 0.102569252
vt -0.509447098 0.225376248
vt 1.49055278 0.225376248
vt 1.49055278 0.102569252
vt -0.509447098 0.102569252
vt -0.509447098 0.225376248
vt 1.49055278 0.225376248
vt 1.49055278 0.102569252
vt -0.509447098 0.102569252
vt -0.509447098 0.225376248
vt 1.49055278 0.225376248
vt 1.49055278 0.102569252
vt -0.509447098 0.102569252
vt -0.509447098 0.225376248
vt 1.49055278 0.225376248
vt 1.49055278 0.102569252
vt -0.509447098 0.102569252
vt -0.509447098 0.225376248
vt 1.49055278 0.225376248
vt 1.49055278 0.102569252
vt -0.509447098 0.102569252
vt -0.509447098 0.225376248
vt 1.49055278 0.225376248
vt 1.49055278 0.102569252
vt -2.45228767 0.254551262
vt 0.989233136 0.00887306035
vt -2.98508573 0.00895702839
vt 0.989572585 0.254478514
vt 4.96355057 0.0087890625
vt -0.997338355 0.434316099
vt 4.43143177 0.254405797
vt 0.989821434 0.434274077
vt 0.989912033 0.500083983
vt 2.97698021 0.434232086
vt 4.431458 0.254403412
vt 4.96355057 0.00878590345
vt 0.98923254 0.00887620449
vt 0.989597917 0.254481733
vt -2.98508596 0.00896662474
vt 2.97702432 0.434232056
vt -2.45226145 0.254559934
vt 0.989866138 0.434277356
vt 0.98996377 0.500087142
vt -0.997293234 0.434322476
vt -0.509447098 0.102569252
vt -0.509447157 0.225376278
vt 1.49055278 0.225376248
vt 1.49055278 0.102569252
vt -0.509447098 0.102569252
vt -0.509447098 0.225376248
vt 1.49055266 0.225376278
vt 1.4905529 0.102569252
vt 0.74826926 0.676032066
vt 0.748231828 0.677045345
vt 0.761850238 0.676888824
vt 0.760397553 0.673150539
vt 0.768249631 0.67701894
vt 0.768494666 0.6762833
vt 0.733656168 0.686172605
vt 0.733656228 0.687647343
vt 0.75010699 0.687647343
vt 0.75010699 0.686172605
vt 0.766557753 0.687647343
vt 0.766557753 0.686172605
vt 0.668301105 0.67459476
vt 0.668437064 0.675069213
vt 0.67254746 0.676636696
vt 0.673274636 0.673150539
vt 0.682359219 0.675200284
vt 0.682196021 0.674453378
vt 0.72337091 0.733490586
vt 0.707202852 0.705486655
vt 0.704034805 0.737822831
vt 0.72337091 0.705486655
vt 0.704034805 0.673150539
vt 0.735206723 0.721654713
vt 0.72337091 0.677482724
vt 0.735206723 0.705486655
vt 0.739538908 0.705486655
vt 0.735206723 0.689318657
vt 0.684469163 0.733490586
vt 0.703805208 0.737822831
vt 0.700637221 0.705486655
vt 0.684469163 0.705486655
vt 0.703805208 0.673150539
vt 0.67263335 0.721654713
vt 0.684469163 0.677482724
vt 0.67263335 0.705486655
vt 0.668301105 0.705486655
vt 0.67263335 0.689318538
vt 0.73312813 0.769787073
vt 0.73312813 0.768290043
vt 0.700714648 0.768290043
vt 0.700714648 0.769787073
vt 0.700714648 0.769787073
vt 0.700714648 0.768290043
vt 0.668301105 0.768290043
vt 0.668301105 0.769787014
vt 0.258781016 0.732060254
vt 0.258743346 0.744854331
vt 0.28430438 0.745020986
vt 0.280237079 0.732090294
vt 0.280072272 0.719202876
vt 0.258769333 0.719262481
vt 0.201056361 0.738809884
vt 0.226617455 0.738643229
vt 0.226579756 0.725849152
vt 0.205123663 0.725879192
vt 0.2052885 0.712991714
vt 0.226591468 0.713051319
vt 0.301400304 0.67761302
vt 0.313673854 0.675024152
vt 0.313683391 0.653546154
vt 0.301413476 0.653501034
vt 0.300265908 0.653500915
vt 0.300274074 0.677611947
vt 0.28799665 0.653542459
vt 0.288000107 0.67502588
vt 0.814698994 0.653929651
vt 0.815900147 0.664014399
vt 0.818583667 0.662111104
vt 0.817721248 0.655464351
vt 0.687873363 0.658266604
vt 0.685189903 0.656363249
vt 0.68398875 0.666448057
vt 0.687011003 0.664913416
vt 0.272752047 0.714039564
vt 0.273792148 0.695328891
vt 0.272750139 0.680998683
vt 0.275279105 0.692407131
vt 0.281696796 0.691511989
vt 0.285211444 0.683648109
vt 0.283543348 0.694100857
vt 0.285261214 0.709878087
vt 0.272752047 0.714039564
vt 0.271600008 0.680997491
vt 0.271593153 0.714039445
vt 0.271593153 0.714039445
vt 0.270555913 0.695328414
vt 0.269070208 0.69240582
vt 0.260805011 0.694100261
vt 0.259085834 0.709874988
vt 0.259137452 0.683650196
vt 0.262650847 0.691511869
vt 0.215463459 0.648913145
vt 0.215463459 0.648364782
vt 0.212262809 0.648364782
vt 0.212262809 0.648913145
vt 0.20455882 0.649373412
vt 0.204515934 0.649060249
vt 0.201050192 0.648364782
vt 0.200829536 0.650060773
vt 0.200829536 0.650060773
vt 0.201050192 0.648364782
vt 0.199567914 0.649072409
vt 0.199602783 0.649372578
vt 0.234607875 0.648943424
vt 0.234607875 0.648364782
vt 0.224487513 0.648364782
vt 0.224487513 0.648943424
vt 0.208002746 0.650081456
vt 0.20810163 0.648364782
vt 0.204739928 0.64906776
vt 0.204759598 0.649389863
vt 0.21217218 0.648913145
vt 0.21217218 0.648364782
vt 0.20897156 0.648364782
vt 0.20897153 0.648913145
vt 0.244951874 0.648943424
vt 0.244951874 0.648364782
vt 0.234831482 0.648364782
vt 0.234831482 0.648943424
vt 0.209274948 0.649371028
vt 0.209231913 0.649087191
vt 0.20810163 0.648364782
vt 0.208002746 0.650081456
vt 0.273276985 0.719221592
vt 0.28882575 0.714490056
vt 0.285261214 0.709878087
vt 0.272752047 0.714039564
vt 0.271593153 0.714039445
vt 0.271066904 0.719221473
vt 0.259085834 0.709874988
vt 0.25551945 0.714485645
vt 0.280237079 0.732090294
vt 0.28430438 0.745020986
vt 0.285193622 0.731050253
vt 0.290024459 0.745276868
vt 0.205123663 0.725879192
vt 0.20016712 0.724839091
vt 0.201056361 0.738809884
vt 0.195336312 0.739065766
vt 0.313683391 0.653546154
vt 0.316541314 0.648409843
vt 0.301413238 0.648364782
vt 0.301413476 0.653501034
vt 0.300267577 0.648364902
vt 0.300265908 0.653500915
vt 0.285140872 0.648405015
vt 0.28799665 0.653542459
vt 0.249877274 0.654876053
vt 0.257764101 0.64836657
vt 0.249878719 0.648364782
vt 0.257763892 0.654875815
vt 0.249879211 0.66138643
vt 0.265648544 0.6483652
vt 0.257763654 0.661385059
vt 0.265650511 0.654875576
vt 0.265649021 0.661386847
vt 0.226579756 0.725849152
vt 0.228605956 0.711622655
vt 0.226591468 0.713051319
vt 0.22859782 0.725846529
vt 0.226617455 0.738643229
vt 0.228635788 0.740067244
vt 0.300274074 0.677611947
vt 0.288000107 0.67502588
vt 0.300092638 0.679597139
vt 0.286204159 0.676732838
vt 0.258769333 0.719262481
vt 0.256754816 0.717833757
vt 0.256762981 0.732057631
vt 0.258781016 0.732060254
vt 0.256724954 0.746278405
vt 0.258743346 0.744854331
vt 0.301400304 0.67761302
vt 0.30158335 0.679596543
vt 0.313673854 0.675024152
vt 0.315470457 0.67672962
vt 0.271600008 0.680997491
vt 0.27141428 0.678976417
vt 0.259137452 0.683650196
vt 0.257300615 0.681922734
vt 0.272750139 0.680998683
vt 0.285211444 0.683648109
vt 0.272934198 0.678975642
vt 0.287047863 0.681919694
vt 0.300274074 0.677611947
vt 0.300092638 0.679597139
vt 0.30158335 0.679596543
vt 0.301400304 0.67761302
vt 0.272750139 0.680998683
vt 0.272934198 0.678975642
vt 0.27141428 0.678976417
vt 0.271600008 0.680997491
vt 0.22859782 0.725846529
vt 0.234609127 0.714425504
vt 0.228605956 0.711622655
vt 0.234611481 0.7258389
vt 0.228635788 0.740067244
vt 0.242521137 0.719364464
vt 0.234634548 0.737251163
vt 0.242526501 0.725829005
vt 0.242536217 0.732293427
vt 0.286204159 0.676732838
vt 0.288125217 0.6831429
vt 0.300092638 0.679597139
vt 0.300840199 0.68592
vt 0.293352783 0.69095397
vt 0.300843239 0.693440318
vt 0.308331728 0.6909495
vt 0.30158335 0.679596543
vt 0.313553035 0.683137596
vt 0.315470457 0.67672962
vt 0.257300615 0.681922734
vt 0.27141428 0.678976417
vt 0.259227276 0.675398648
vt 0.272172332 0.672540009
vt 0.26453644 0.667434752
vt 0.272170305 0.664889932
vt 0.279805601 0.667431474
vt 0.272934198 0.678975642
vt 0.285119057 0.675394356
vt 0.287047863 0.681919694
vt 0.256762981 0.732057631
vt 0.250726223 0.743462265
vt 0.256724954 0.746278405
vt 0.25074929 0.732050002
vt 0.256754816 0.717833757
vt 0.242824554 0.738504589
vt 0.250751644 0.720636606
vt 0.24283427 0.732040107
vt 0.242839694 0.725575566
vt 0.322253168 0.708280742
vt 0.321750224 0.693329751
vt 0.306668639 0.708377361
vt 0.322937846 0.723474264
vt 0.306493521 0.693488836
vt 0.307012081 0.72579515
vt 0.305346429 0.693488717
vt 0.305171847 0.7083776
vt 0.304827869 0.725794852
vt 0.290089846 0.693330109
vt 0.288902283 0.723473907
vt 0.2895872 0.708280861
vn 0.770833 0.000000 -0.637037
vn 0.770833 0.000000 -0.637037
vn 0.770833 0.000000 -0.637038
vn 0.820748 -0.034614 -0.570241
vn 0.820748 -0.034614 -0.570241
vn 0.820748 -0.034614 -0.570241
vn -0.770833 0.000000 -0.637037
vn -0.770833 0.000000 -0.637037
vn -0.770833 0.000000 -0.637037
vn -0.820748 -0.034614 -0.570241
vn -0.820748 -0.034614 -0.570241
vn -0.820748 -0.034614 -0.570241
vn -0.965926 0.000000 -0.258819
vn -0.965926 0.000000 -0.258819
vn -0.866025 0.000000 -0.500000
vn -0.866025 0.000000 -0.500000
vn -0.866025 0.000000 -0.500000
vn -0.866025 0.000000 -0.500000
vn -0.500000 0.000000 -0.866025
vn -0.500000 0.000000 -0.866025
vn -0.500000 0.000000 -0.866025
vn -0.500000 0.000000 -0.866025
vn -0.000000 0.000000 -1.000000
vn -0.000000 0.000000 -1.000000
vn -0.000000 0.000000 -1.000000
vn -0.000000 0.000000 -1.000000
vn 0.500000 0.000000 -0.866025
vn 0.500000 0.000000 -0.866025
vn 0.500000 0.000000 -0.866025
vn 0.500000 0.000000 -0.866025
vn 0.866025 0.000000 -0.500000
vn 0.866025 0.000000 -0.500000
vn 0.866025 0.000000 -0.500000
vn 0.866025 0.000000 -0.500000
vn 0.965926 0.000000 -0.258819
vn 0.965926 0.000000 -0.258819
vn -0.000000 1.000000 -0.000000
vn -0.000000 1.000000 -0.000000
vn -0.000000 1.000000 -0.000000
vn -0.000000 1.000000 -0.000000
vn -0.000000 1.000000 -0.000000
vn -0.000000 1.000000 -0.000000
vn -0.000000 1.000000 -0.000000
vn -0.000000 1.000000 -0.000000
vn -0.000000 1.000000 -0.000000
vn -0.000000 1.000000 -0.000000
vn -0.000000 -1.000000 -0.000000
vn -0.000000 -1.000000 -0.000000
vn -0.000000 -1.000000 -0.000000
vn -0.000000 -1.000000 -0.000000
vn -0.000000 -1.000000 -0.000000
vn -0.000000 -1.000000 -0.000000
vn -0.000000 -1.000000 -0.000000
vn -0.000000 -1.000000 -0.000000
vn -0.000000 -1.000000 -0.000000
vn -0.000000 -1.000000 -0.000000
vn -0.000000 0.000000 1.000000
vn -0.000000 0.000000 1.000000
vn -0.000000 0.000000 1.000000
vn -0.000000 0.000000 1.000000
vn -0.000000 0.000000 1.000000
vn -0.000000 0.000000 1.000000
vn -0.000000 0.000000 1.000000
vn -0.000000 0.000000 1.000000
vn -0.975808 0.000000 -0.218629
vn -0.975808 0.000000 -0.218629
vn -0.887698 0.000000 -0.460426
vn -0.887698 0.000000 -0.460426
vn -0.500000 0.000000 -0.866025
vn -0.500000 0.000000 -0.866025
vn -0.500000 0.000000 -0.866025
vn -0.500000 0.000000 -0.866025
vn -0.000000 0.000000 -1.000000
vn -0.000000 0.000000 -1.000000
vn 0.500000 0.000000 -0.866025
vn 0.500000 0.000000 -0.866025
vn 0.500000 0.000000 -0.866025
vn 0.500000 0.000000 -0.866025
vn 0.887698 0.000000 -0.460426
vn 0.887698 0.000000 -0.460426
vn 0.975808 0.000000 -0.218629
vn 0.975808 0.000000 -0.218629
vn -0.000000 1.000000 -0.000000
vn -0.000000 1.000000 -0.000000
vn -0.000000 1.000000 -0.000000
vn -0.000000 1.000000 -0.000000
vn -0.000000 1.000000 -0.000000
vn -0.000000 1.000000 -0.000000
vn -0.000000 1.000000 -0.000000
vn -0.000000 1.000000 -0.000000
vn -0.000000 1.000000 -0.000000
vn -0.000000 1.000000 -0.000000
vn -0.000000 -1.000000 -0.000000
vn -0.000000 -1.000000 -0.000000
vn -0.000000 -1.000000 -0.000000
vn -0.000000 -1.000000 -0.000000
vn -0.000000 -1.000000 -0.000000
vn -0.000000 -1.000000 -0.000000
vn -0.000000 -1.000000 -0.000000
vn -0.000000 -1.000000 -0.000000
vn -0.000000 -1.000000 -0.000000
vn -0.000000 -1.000000 -0.000000
vn 0.097504 0.000000 0.995235
vn 0.097504 0.000000 0.995235
vn 0.097504 0.000000 0.995235
vn 0.097504 0.000000 0.995235
vn -0.097504 0.000000 0.995235
vn -0.097504 0.000000 0.995235
vn -0.097504 0.000000 0.995235
vn -0.097504 0.000000 0.995235
vn 1.000000 0.000000 -0.000000
vn 1.000000 0.000000 -0.000000
vn 1.000000 0.000000 -0.000000
vn 1.000000 0.000000 -0.000000
vn 1.000000 0.000000 -0.000000
vn 1.000000 0.000000 -0.000000
vn -1.000000 0.000000 -0.000000
vn -1.000000 0.000000 -0.000000
vn -1.000000 0.000000 -0.000000
vn -1.000000 0.000000 -0.000000
vn -1.000000 0.000000 -0.000000
vn -1.000000 0.000000 -0.000000
vn -0.000000 -1.000000 -0.000000
vn -0.000000 -1.000000 -0.000000
vn -0.000000 -1.000000 -0.000000
vn -0.000000 -1.000000 -0.000000
vn -0.000000 -1.000000 -0.000000
vn -0.000000 -1.000000 -0.000000
vn -0.000000 -1.000000 -0.000000
vn -0.000000 -1.000000 -0.000000
vn -0.000000 1.000000 0.000000
vn -0.000000 1.000000 0.000000
vn -0.000000 1.000000 0.000000
vn -0.000000 1.000000 0.000000
vn -0.000000 1.000000 0.000001
vn -0.000000 1.000000 0.000001
vn -0.000000 1.000000 0.000001
vn -0.000000 1.000000 0.000001
vn -0.000000 1.000000 -0.000000
vn -0.000000 1.000000 -0.000000
vn -0.000000 1.000000 -0.000000
vn -0.000000 1.000000 -0.000000
vn -0.000000 1.000000 -0.000000
vn -0.000000 1.000000 -0.000000
vn -0.000000 1.000000 -0.000000
vn -0.000000 1.000000 -0.000000
vn -0.000000 1.000000 -0.000000
vn -0.000000 1.000000 -0.000000
vn -0.000000 1.000000 -0.000000
vn -0.000000 1.000000 -0.000000
vn -0.000000 1.000000 -0.000000
vn -0.000000 1.000000 -0.000000
vn -0.000000 1.000000 -0.000000
vn -0.000000 1.000000 -0.000000
vn -0.000000 1.000000 -0.000000
vn -0.000000 1.000000 -0.000000
vn 0.891634 0.000000 0.452757
vn 0.891634 0.000000 0.452757
vn 0.891634 0.000000 0.452757
vn 0.891634 0.000000 0.452757
vn 0.128669 0.000000 0.991688
vn 0.128669 0.000000 0.991688
vn 0.128669 0.000000 0.991688
vn 0.128669 0.000000 0.991688
vn -0.815660 0.000000 0.578532
vn -0.815660 0.000000 0.578532
vn -0.815660 0.000000 0.578532
vn -0.815660 0.000000 0.578532
vn -0.118270 0.000000 -0.992982
vn -0.118270 0.000000 -0.992982
vn -0.118270 0.000000 -0.992982
vn -0.118270 0.000000 -0.992982
vn -0.128669 0.000000 0.991688
vn -0.128669 0.000000 0.991688
vn -0.128669 0.000000 0.991688
vn -0.128669 0.000000 0.991688
vn -0.891634 0.000000 0.452757
vn -0.891634 0.000000 0.452757
vn -0.891634 0.000000 0.452757
vn -0.891634 0.000000 0.452757
vn 0.118270 0.000000 -0.992982
vn 0.118270 0.000000 -0.992982
vn 0.118270 0.000000 -0.992982
vn 0.118270 0.000000 -0.992982
vn 0.815660 0.000000 0.578532
vn 0.815660 0.000000 0.578532
vn 0.815660 0.000000 0.578532
vn 0.815660 0.000000 0.578532
vn -0.000000 0.996981 -0.077650
vn -0.036370 0.995317 -0.089558
vn -0.025031 0.996862 -0.075092
vn -0.000000 0.996981 -0.077650
vn -0.000000 0.996981 -0.077650
vn -0.000000 0.996981 -0.077650
vn 0.025031 0.996862 -0.075092
vn 0.036370 0.995317 -0.089558
vn 0.777044 0.199048 -0.597145
vn 0.777044 0.199048 -0.597145
vn 0.777044 0.199048 -0.597145
vn 0.762372 0.196288 -0.616652
vn -0.777044 0.199048 -0.597145
vn -0.777044 0.199048 -0.597145
vn -0.777044 0.199048 -0.597145
vn -0.762372 0.196288 -0.616652
vn -0.000000 -0.832050 -0.554700
vn -0.000000 -0.832050 -0.554700
vn -0.000000 -0.832050 -0.554700
vn -0.000000 -0.832050 -0.554700
vn -0.000000 -0.832050 -0.554700
vn -0.000000 -0.832050 -0.554700
vn -0.000000 -0.832050 -0.554700
vn -0.000000 -0.832050 -0.554700
vn -0.600833 0.000000 -0.799375
vn -0.000000 -0.261101 -0.965311
vn -0.540196 -0.207176 -0.815638
vn -0.000000 0.000000 -1.000000
vn -0.540197 0.207175 -0.815638
vn 0.540196 -0.207176 -0.815638
vn -0.000000 0.261101 -0.965311
vn 0.600833 0.000000 -0.799375
vn 0.540197 0.207175 -0.815638
vn -0.528560 0.000000 0.848896
vn -0.528560 0.000000 0.848896
vn -0.528560 0.000000 0.848896
vn -0.528560 0.000000 0.848896
vn -0.528560 0.000000 0.848896
vn -0.528560 0.000000 0.848896
vn 0.161210 -0.702466 0.693219
vn 0.161210 -0.702466 0.693219
vn 0.161210 -0.702466 0.693219
vn 0.159370 -0.706642 0.689390
vn 0.528560 0.000000 0.848896
vn 0.528560 0.000000 0.848896
vn 0.528560 0.000000 0.848896
vn 0.528560 0.000000 0.848896
vn 0.528560 0.000000 0.848896
vn 0.528559 0.000000 0.848896
vn -0.161210 -0.702466 0.693219
vn -0.161210 -0.702466 0.693219
vn -0.161210 -0.702466 0.693219
vn -0.159370 -0.706642 0.689390
vn 0.161213 0.702467 0.693218
vn 0.161213 0.702467 0.693218
vn 0.161213 0.702467 0.693218
vn 0.159372 0.706644 0.689387
vn -0.161213 0.702467 0.693218
vn -0.161213 0.702467 0.693218
vn -0.161213 0.702467 0.693218
vn -0.159372 0.706644 0.689387
vn -0.000000 -0.702466 0.711717
vn -0.000000 -0.702466 0.711717
vn -0.000000 -0.702466 0.711717
vn -0.000000 -0.702466 0.711717
vn -0.000000 0.702467 0.711717
vn -0.000000 0.702467 0.711717
vn -0.000000 0.702467 0.711717
vn -0.000000 0.702467 0.711717
vn -0.948896 0.000000 -0.315589
vn -0.750679 -0.335726 -0.569008
vn -0.814648 -0.364281 -0.451273
vn -0.860834 0.000000 -0.508885
vn -0.814652 0.364275 -0.451271
vn -0.540196 -0.207176 -0.815638
vn -0.750681 0.335722 -0.569007
vn -0.600833 0.000000 -0.799375
vn -0.540197 0.207175 -0.815638
vn -0.814648 -0.364281 -0.451273
vn -0.750679 -0.335726 -0.569008
vn -0.103496 -0.883810 -0.456255
vn -0.000000 -0.797034 -0.603934
vn -0.540196 -0.207176 -0.815638
vn -0.000000 -0.261101 -0.965311
vn 0.540196 -0.207176 -0.815638
vn 0.103496 -0.883810 -0.456255
vn 0.750679 -0.335726 -0.569008
vn 0.814648 -0.364281 -0.451273
vn -0.814652 0.364275 -0.451271
vn -0.103495 0.883809 -0.456257
vn -0.750681 0.335722 -0.569007
vn -0.000000 0.797031 -0.603938
vn -0.540197 0.207175 -0.815638
vn -0.000000 0.261101 -0.965311
vn 0.540197 0.207175 -0.815638
vn 0.103495 0.883809 -0.456257
vn 0.750681 0.335722 -0.569007
vn 0.814652 0.364275 -0.451271
vn 0.948896 0.000000 -0.315589
vn 0.750681 0.335722 -0.569007
vn 0.814652 0.364275 -0.451271
vn 0.860835 0.000000 -0.508885
vn 0.814648 -0.364281 -0.451273
vn 0.540197 0.207175 -0.815638
vn 0.750679 -0.335726 -0.569008
vn 0.600833 0.000000 -0.799375
vn 0.540196 -0.207176 -0.815638
vn -0.021675 -0.157364 0.987303
vn -0.009986 0.020144 0.999747
vn -0.072032 -0.252866 0.964816
vn -0.156788 -0.451469 0.878404
vn -0.000000 0.009914 0.999951
vn -0.203170 -0.537316 0.818544
vn -0.000000 0.009914 0.999951
vn 0.072032 -0.252866 0.964816
vn 0.203170 -0.537316 0.818544
vn 0.009986 0.020144 0.999747
vn 0.156788 -0.451469 0.878404
vn 0.021675 -0.157364 0.987303
f 1/1/1 2/2/2 3/3/3
f 4/4/4 5/5/5 6/6/6
f 7/7/7 8/8/8 9/9/9
f 10/10/10 11/11/11 12/12/12
f 13/13/13 14/14/14 15/15/15
f 13/13/13 15/15/15 16/16/16
f 17/17/17 18/18/18 19/19/19
f 17/17/17 19/19/19 20/20/20
f 21/21/21 22/22/22 23/23/23
f 21/21/21 23/23/23 24/24/24
f 25/25/25 26/26/26 27/27/27
f 25/25/25 27/27/27 28/28/28
f 29/29/29 30/30/30 31/31/31
f 29/29/29 31/31/31 32/32/32
f 33/33/33 34/34/34 35/35/35
f 33/33/33 35/35/35 36/36/36
f 37/37/37 38/38/38 39/39/39
f 37/37/37 40/40/40 38/38/38
f 41/41/41 38/38/38 40/40/40
f 42/42/42 40/40/40 37/37/37
f 41/41/41 40/40/40 43/43/43
f 42/42/42 44/44/44 40/40/40
f 43/43/43 40/40/40 44/44/44
f 42/42/42 45/45/45 44/44/44
f 43/43/43 44/44/44 46/46/46
f 44/44/44 45/45/45 46/46/46
f 47/47/47 48/48/48 49/49/49
f 47/47/47 49/49/49 50/50/50
f 51/51/51 50/50/50 49/49/49
f 52/52/52 47/47/47 50/50/50
f 51/51/51 53/53/53 50/50/50
f 52/52/52 50/50/50 54/54/54
f 53/53/53 54/54/54 50/50/50
f 52/52/52 54/54/54 55/55/55
f 53/53/53 56/56/56 54/54/54
f 54/54/54 56/56/56 55/55/55
f 57/57/57 58/58/58 59/59/59
f 57/57/57 59/59/59 60/60/60
f 61/61/61 62/62/62 63/63/63
f 61/61/61 63/63/63 64/64/64
f 65/65/65 66/66/66 67/67/67
f 65/65/65 67/67/67 68/68/68
f 68/68/68 67/67/67 69/69/69
f 68/68/68 69/69/69 70/70/70
f 71/71/71 72/72/72 73/73/73
f 71/71/71 73/73/73 74/74/74
f 74/74/74 73/73/73 75/75/75
f 74/74/74 75/75/75 76/76/76
f 77/77/77 78/78/78 79/79/79
f 77/77/77 79/79/79 80/80/80
f 80/80/80 79/79/79 81/81/81
f 80/80/80 81/81/81 82/82/82
f 83/83/83 84/84/84 85/85/85
f 83/83/83 86/86/86 84/84/84
f 87/87/87 84/84/84 86/86/86
f 88/88/88 86/86/86 83/83/83
f 87/87/87 86/86/86 89/89/89
f 88/88/88 90/90/90 86/86/86
f 89/89/89 86/86/86 90/90/90
f 88/88/88 91/91/91 90/90/90
f 89/89/89 90/90/90 92/92/92
f 90/90/90 91/91/91 92/92/92
f 93/93/93 94/94/94 95/95/95
f 93/93/93 95/95/95 96/96/96
f 97/97/97 96/96/96 95/95/95
f 98/98/98 93/93/93 96/96/96
f 97/97/97 99/99/99 96/96/96
f 98/98/98 96/96/96 100/100/100
f 99/99/99 100/100/100 96/96/96
f 98/98/98 100/100/100 101/101/101
f 99/99/99 102/102/102 100/100/100
f 100/100/100 102/102/102 101/101/101
f 103/103/103 104/104/104 105/105/105
f 103/103/103 105/105/105 106/106/106
f 107/107/107 108/108/108 109/109/109
f 107/107/107 109/109/109 110/110/110
f 111/111/111 112/112/112 113/113/113
f 111/111/111 113/113/113 114/114/114
f 115/115/115 111/111/111 114/114/114
f 115/115/115 116/116/116 111/111/111
f 117/117/117 118/118/118 119/119/119
f 117/117/117 119/119/119 120/120/120
f 119/119/119 121/121/121 120/120/120
f 119/119/119 122/122/122 121/121/121
f 123/123/123 124/124/124 125/125/125
f 123/123/123 125/125/125 126/126/126
f 127/127/127 123/123/123 126/126/126
f 127/127/127 128/128/128 123/123/123
f 129/129/129 128/128/128 127/127/127
f 129/129/129 130/130/130 128/128/128
f 131/131/131 132/132/132 133/133/133
f 131/131/131 133/133/133 134/134/134
f 135/135/135 136/136/136 137/137/137
f 135/135/135 137/137/137 138/138/138
f 139/139/139 140/140/140 141/141/141
f 140/140/140 142/142/142 141/141/141
f 141/141/141 142/142/142 143/143/143
f 141/141/141 143/143/143 144/144/144
f 144/144/144 143/143/143 145/145/145
f 146/146/146 144/144/144 145/145/145
f 146/146/146 145/145/145 140/140/140
f 146/146/146 140/140/140 147/147/147
f 147/147/147 141/141/141 148/148/148
f 147/147/147 148/148/148 149/149/149
f 150/150/150 148/148/148 151/151/151
f 148/148/148 152/152/152 151/151/151
f 149/149/149 151/151/151 153/153/153
f 149/149/149 153/153/153 154/154/154
f 155/155/155 152/152/152 148/148/148
f 154/154/154 153/153/153 155/155/155
f 155/155/155 156/156/156 152/152/152
f 153/153/153 156/156/156 155/155/155
f 157/157/157 158/158/158 159/159/159
f 157/157/157 159/159/159 160/160/160
f 161/161/161 162/162/162 163/163/163
f 161/161/161 163/163/163 164/164/164
f 165/165/165 166/166/166 167/167/167
f 165/165/165 167/167/167 168/168/168
f 169/169/169 170/170/170 171/171/171
f 169/169/169 171/171/171 172/172/172
f 173/173/173 174/174/174 175/175/175
f 173/173/173 175/175/175 176/176/176
f 177/177/177 178/178/178 179/179/179
f 177/177/177 179/179/179 180/180/180
f 181/181/181 182/182/182 183/183/183
f 181/181/181 183/183/183 184/184/184
f 185/185/185 186/186/186 187/187/187
f 185/185/185 187/187/187 188/188/188
f 189/189/189 190/190/190 191/191/191
f 192/192/192 189/189/189 191/191/191
f 193/193/193 189/189/189 192/192/192
f 193/193/193 194/194/194 189/189/189
f 193/193/193 195/195/195 194/194/194
f 195/195/195 196/196/196 194/194/194
f 197/197/197 198/198/198 199/199/199
f 198/198/198 200/200/200 199/199/199
f 201/201/201 202/202/202 203/203/203
f 202/202/202 204/204/204 203/203/203
f 205/205/205 206/206/206 207/207/207
f 205/205/205 207/207/207 208/208/208
f 208/208/208 207/207/207 209/209/209
f 208/208/208 209/209/209 210/210/210
f 210/210/210 209/209/209 211/211/211
f 210/210/210 211/211/211 212/212/212
f 213/213/213 214/214/214 215/215/215
f 213/213/213 216/216/216 214/214/214
f 217/217/217 216/216/216 213/213/213
f 218/218/218 214/214/214 216/216/216
f 217/217/217 219/219/219 216/216/216
f 218/218/218 216/216/216 220/220/220
f 220/220/220 216/216/216 219/219/219
f 220/220/220 219/219/219 221/221/221
f 222/222/222 223/223/223 224/224/224
f 222/222/222 225/225/225 223/223/223
f 226/226/226 225/225/225 222/222/222
f 226/226/226 227/227/227 225/225/225
f 228/228/228 229/229/229 230/230/230
f 229/229/229 231/231/231 230/230/230
f 232/232/232 233/233/233 234/234/234
f 232/232/232 234/234/234 235/235/235
f 235/235/235 234/234/234 236/236/236
f 235/235/235 236/236/236 237/237/237
f 238/238/238 239/239/239 240/240/240
f 239/239/239 241/241/241 240/240/240
f 242/242/242 243/243/243 244/244/244
f 243/243/243 245/245/245 244/244/244
f 246/246/246 247/247/247 248/248/248
f 247/247/247 249/249/249 248/248/248
f 250/250/250 251/251/251 252/252/252
f 250/250/250 252/252/252 253/253/253
f 254/254/254 255/255/255 256/256/256
f 254/254/254 256/256/256 257/257/257
f 258/258/258 259/259/259 260/260/260
f 258/258/258 261/261/261 259/259/259
f 262/262/262 261/261/261 258/258/258
f 261/261/261 263/263/263 259/259/259
f 262/262/262 264/264/264 261/261/261
f 261/261/261 265/265/265 263/263/263
f 264/264/264 265/265/265 261/261/261
f 264/264/264 266/266/266 265/265/265
f 267/267/267 268/268/268 269/269/269
f 268/268/268 270/270/270 269/269/269
f 268/268/268 271/271/271 270/270/270
f 271/271/271 272/272/272 270/270/270
f 270/270/270 272/272/272 273/273/273
f 269/269/269 270/270/270 274/274/274
f 275/275/275 270/270/270 273/273/273
f 274/274/274 270/270/270 275/275/275
f 276/276/276 274/274/274 275/275/275
f 277/277/277 278/278/278 279/279/279
f 278/278/278 280/280/280 279/279/279
f 279/279/279 280/280/280 281/281/281
f 280/280/280 282/282/282 281/281/281
f 283/283/283 282/282/282 280/280/280
f 284/284/284 280/280/280 278/278/278
f 285/285/285 283/283/283 280/280/280
f 285/285/285 280/280/280 284/284/284
f 286/286/286 285/285/285 284/284/284
f 287/287/287 288/288/288 289/289/289
f 287/287/287 290/290/290 288/288/288
f 291/291/291 290/290/290 287/287/287
f 290/290/290 292/292/292 288/288/288
f 291/291/291 293/293/293 290/290/290
f 290/290/290 294/294/294 292/292/292
f 293/293/293 294/294/294 290/290/290
f 293/293/293 295/295/295 294/294/294
f 296/296/296 297/297/297 298/298/298
f 299/299/299 296/296/296 298/298/298
f 297/297/297 300/300/300 298/298/298
f 301/301/301 299/299/299 298/298/298
f 302/302/302 298/298/298 300/300/300
f 303/303/303 301/301/301 298/298/298
f 302/302/302 303/303/303 298/298/298
f 303/303/303 304/304/304 301/301/301
f 302/302/302 305/305/305 303/303/303
f 306/306/306 304/304/304 303/303/303
f 305/305/305 307/307/307 303/303/303
f 307/307/307 306/306/306 303/303/303
