# crown_hat (gear rip -> Godot: Z negated + winding reversed)
v 0.029239 0.202631 -0.157867
v 0.029239 0.202631 -0.198956
v 0.029239 0.144701 -0.198956
v 0.029239 0.144701 -0.157867
v -0.144552 -0.144950 -0.157867
v -0.202482 -0.144950 -0.157867
v -0.202482 -0.087020 -0.157867
v -0.144552 -0.087020 -0.157867
v -0.086622 -0.202880 -0.157867
v -0.144552 -0.202880 -0.157867
v -0.086622 -0.144950 -0.157867
v 0.087169 0.144701 -0.198956
v 0.087169 0.144701 -0.157867
v 0.029239 0.144701 -0.157867
v 0.029239 0.144701 -0.198956
v 0.058204 0.144701 -0.221569
v -0.028692 0.144701 -0.198956
v -0.028692 0.144701 -0.157867
v -0.086622 0.144701 -0.157867
v -0.086622 0.144701 -0.198956
v -0.057657 0.144701 -0.221569
v 0.145099 0.144701 -0.157867
v 0.145099 0.144701 -0.091855
v -0.144552 0.144701 -0.091855
v -0.144552 0.144701 -0.157867
v -0.202482 0.144701 -0.157867
v -0.144552 0.144701 -0.198956
v -0.202482 0.144701 -0.198956
v -0.144552 0.144701 -0.221569
v 0.203029 0.144701 -0.198956
v 0.203029 0.144701 -0.157867
v 0.145099 0.144701 -0.198956
v 0.145099 0.144701 -0.221569
v -0.144552 0.144701 -0.157867
v 0.087169 0.144701 -0.157867
v 0.145099 0.144701 -0.157867
v 0.029239 0.144701 -0.157867
v -0.028692 0.144701 -0.157867
v -0.086622 0.144701 -0.157867
v -0.144552 -0.029089 -0.157867
v -0.202482 -0.029089 -0.157867
v -0.202482 0.028841 -0.157867
v -0.144552 0.028841 -0.157867
v -0.086622 -0.144950 -0.157867
v -0.086622 -0.144950 -0.198956
v -0.086622 -0.202880 -0.198956
v -0.086622 -0.202880 -0.157867
v -0.144552 0.086771 -0.157867
v -0.202482 0.086771 -0.157867
v -0.202482 0.144701 -0.157867
v -0.144552 0.144701 -0.157867
v -0.086622 0.144701 -0.157867
v -0.144552 0.202631 -0.157867
v -0.086622 0.202631 -0.157867
v 0.145099 0.144701 -0.157867
v 0.087169 0.144701 -0.157867
v 0.087169 0.202631 -0.157867
v 0.145099 0.202631 -0.157867
v 0.203029 0.086771 -0.157867
v 0.145099 0.086771 -0.157867
v 0.203029 0.144701 -0.157867
v 0.029239 0.144701 -0.157867
v -0.028692 0.144701 -0.157867
v -0.028692 0.202631 -0.157867
v 0.029239 0.202631 -0.157867
v -0.144552 0.144701 -0.157867
v -0.144552 0.202631 -0.198956
v -0.144552 0.202631 -0.157867
v -0.144552 0.144701 -0.198956
v -0.144552 0.144701 -0.221569
v -0.144552 0.086771 -0.157867
v -0.144552 0.144701 -0.091855
v -0.144552 0.028841 -0.198956
v -0.144552 0.086771 -0.198956
v -0.144552 0.057806 -0.221569
v -0.144552 0.028841 -0.157867
v -0.144552 -0.029089 -0.157867
v -0.144552 -0.087020 -0.157867
v -0.144552 -0.144950 -0.157867
v -0.144552 -0.144950 -0.091855
v -0.144552 -0.087020 -0.198956
v -0.144552 -0.029089 -0.198956
v -0.144552 -0.058055 -0.221569
v -0.144552 -0.202880 -0.157867
v -0.144552 -0.144950 -0.198956
v -0.144552 -0.202880 -0.198956
v -0.144552 -0.144950 -0.221569
v 0.203029 0.144701 -0.198956
v 0.203029 0.202631 -0.198956
v 0.203029 0.202631 -0.091855
v 0.203029 0.144701 -0.157867
v 0.203029 0.086771 -0.157867
v 0.203029 0.028841 -0.157867
v 0.203029 0.028841 -0.198956
v 0.203029 0.086771 -0.198956
v 0.203029 0.057806 -0.221569
v 0.203029 -0.029089 -0.157867
v 0.203029 -0.087020 -0.157867
v 0.203029 -0.087020 -0.198956
v 0.203029 -0.029089 -0.198956
v 0.203029 -0.058055 -0.221569
v 0.203029 -0.144950 -0.157867
v 0.203029 -0.202880 -0.091855
v 0.203029 -0.202880 -0.198956
v 0.203029 -0.144950 -0.198956
v 0.145099 0.202631 -0.091855
v 0.145099 0.144701 -0.091855
v 0.145099 -0.144950 -0.091855
v -0.202482 0.202631 -0.091855
v -0.144552 0.202631 -0.157867
v -0.202482 0.202631 -0.198956
v -0.144552 0.202631 -0.198956
v 0.203029 0.202631 -0.091855
v 0.145099 0.202631 -0.157867
v 0.203029 0.202631 -0.198956
v 0.145099 0.202631 -0.198956
v -0.086622 0.202631 -0.157867
v -0.028692 0.202631 -0.157867
v -0.086622 0.202631 -0.198956
v -0.028692 0.202631 -0.198956
v -0.057657 0.202631 -0.221569
v 0.029239 0.202631 -0.157867
v 0.087169 0.202631 -0.157867
v 0.029239 0.202631 -0.198956
v 0.087169 0.202631 -0.198956
v 0.058204 0.202631 -0.221569
v 0.145099 0.028841 -0.157867
v 0.145099 0.028841 -0.198956
v 0.203029 0.028841 -0.198956
v 0.203029 0.028841 -0.157867
v 0.145099 -0.202880 -0.157867
v 0.087169 -0.202880 -0.157867
v 0.087169 -0.144950 -0.157867
v 0.145099 -0.144950 -0.157867
v 0.203029 -0.144950 -0.157867
v 0.145099 -0.087020 -0.157867
v 0.203029 -0.087020 -0.157867
v 0.029239 -0.202880 -0.157867
v -0.028692 -0.202880 -0.157867
v -0.028692 -0.144950 -0.157867
v 0.029239 -0.144950 -0.157867
v 0.145099 -0.144950 -0.157867
v 0.145099 -0.202880 -0.198956
v 0.145099 -0.202880 -0.157867
v 0.145099 -0.144950 -0.198956
v 0.145099 -0.144950 -0.221569
v 0.145099 -0.087020 -0.157867
v 0.145099 -0.144950 -0.091855
v 0.145099 0.144701 -0.091855
v 0.145099 -0.029089 -0.157867
v 0.145099 -0.029089 -0.198956
v 0.145099 -0.087020 -0.198956
v 0.145099 -0.058055 -0.221569
v 0.145099 0.028841 -0.157867
v 0.145099 0.086771 -0.157867
v 0.145099 0.144701 -0.157867
v 0.145099 0.086771 -0.198956
v 0.145099 0.028841 -0.198956
v 0.145099 0.057806 -0.221569
v 0.145099 0.202631 -0.157867
v 0.145099 0.144701 -0.198956
v 0.145099 0.202631 -0.198956
v 0.145099 0.144701 -0.221569
v 0.203029 -0.029089 -0.157867
v 0.145099 -0.029089 -0.157867
v 0.145099 0.028841 -0.157867
v 0.203029 0.028841 -0.157867
v 0.029239 0.202631 -0.198956
v 0.058204 0.202631 -0.221569
v 0.058204 0.144701 -0.221569
v 0.029239 0.144701 -0.198956
v -0.202482 0.028841 -0.157867
v -0.202482 0.028841 -0.198956
v -0.144552 0.028841 -0.198956
v -0.144552 0.028841 -0.157867
v 0.087169 -0.202880 -0.157867
v 0.087169 -0.202880 -0.198956
v 0.087169 -0.144950 -0.198956
v 0.087169 -0.144950 -0.157867
v 0.203029 -0.029089 -0.157867
v 0.203029 -0.029089 -0.198956
v 0.145099 -0.029089 -0.198956
v 0.145099 -0.029089 -0.157867
v -0.144552 -0.144950 -0.157867
v -0.202482 -0.144950 -0.198956
v -0.202482 -0.144950 -0.157867
v -0.144552 -0.144950 -0.198956
v -0.144552 -0.144950 -0.221569
v -0.144552 -0.144950 -0.091855
v 0.087169 -0.144950 -0.091855
v 0.145099 -0.144950 -0.157867
v -0.086622 -0.144950 -0.157867
v -0.028692 -0.144950 -0.157867
v -0.086622 -0.144950 -0.198956
v -0.028692 -0.144950 -0.198956
v -0.057657 -0.144950 -0.221569
v 0.029239 -0.144950 -0.157867
v 0.087169 -0.144950 -0.157867
v 0.029239 -0.144950 -0.198956
v 0.087169 -0.144950 -0.198956
v 0.058204 -0.144950 -0.221569
v 0.203029 -0.144950 -0.157867
v 0.145099 -0.144950 -0.198956
v 0.203029 -0.144950 -0.198956
v 0.145099 -0.144950 -0.221569
v 0.203029 -0.202880 -0.198956
v 0.203029 -0.202880 -0.091855
v 0.087169 -0.202880 -0.091855
v 0.145099 -0.202880 -0.157867
v 0.145099 -0.202880 -0.198956
v -0.202482 -0.202880 -0.091855
v -0.144552 -0.202880 -0.157867
v -0.202482 -0.202880 -0.198956
v -0.144552 -0.202880 -0.198956
v 0.087169 -0.202880 -0.198956
v 0.087169 -0.202880 -0.157867
v 0.029239 -0.202880 -0.157867
v 0.029239 -0.202880 -0.198956
v 0.058204 -0.202880 -0.221569
v -0.028692 -0.202880 -0.198956
v -0.028692 -0.202880 -0.157867
v -0.086622 -0.202880 -0.157867
v -0.086622 -0.202880 -0.198956
v -0.057657 -0.202880 -0.221569
v -0.144552 -0.202880 -0.157867
v 0.087169 -0.202880 -0.157867
v 0.145099 -0.202880 -0.157867
v 0.029239 -0.202880 -0.157867
v -0.028692 -0.202880 -0.157867
v -0.086622 -0.202880 -0.157867
v -0.028692 0.144701 -0.157867
v -0.028692 0.144701 -0.198956
v -0.028692 0.202631 -0.198956
v -0.028692 0.202631 -0.157867
v -0.144552 0.086771 -0.157867
v -0.144552 0.086771 -0.198956
v -0.202482 0.086771 -0.198956
v -0.202482 0.086771 -0.157867
v 0.145099 -0.087020 -0.157867
v 0.145099 -0.087020 -0.198956
v 0.203029 -0.087020 -0.198956
v 0.203029 -0.087020 -0.157867
v 0.029239 -0.144950 -0.157867
v 0.029239 -0.144950 -0.198956
v 0.029239 -0.202880 -0.198956
v 0.029239 -0.202880 -0.157867
v -0.202482 -0.087020 -0.157867
v -0.202482 -0.087020 -0.198956
v -0.144552 -0.087020 -0.198956
v -0.144552 -0.087020 -0.157867
v -0.202482 0.202631 -0.198956
v -0.202482 0.144701 -0.198956
v -0.202482 0.144701 -0.157867
v -0.202482 0.202631 -0.091855
v -0.202482 0.086771 -0.157867
v -0.202482 0.028841 -0.157867
v -0.202482 0.086771 -0.198956
v -0.202482 0.028841 -0.198956
v -0.202482 0.057806 -0.221569
v -0.202482 -0.029089 -0.157867
v -0.202482 -0.087020 -0.157867
v -0.202482 -0.029089 -0.198956
v -0.202482 -0.087020 -0.198956
v -0.202482 -0.058055 -0.221569
v -0.202482 -0.144950 -0.157867
v -0.202482 -0.202880 -0.091855
v -0.202482 -0.144950 -0.198956
v -0.202482 -0.202880 -0.198956
v -0.144552 0.144701 -0.091855
v 0.145099 0.144701 -0.091855
v 0.145099 0.202631 -0.091855
v -0.202482 0.202631 -0.091855
v -0.202482 -0.202880 -0.091855
v -0.144552 -0.144950 -0.091855
v 0.087169 -0.144950 -0.091855
v 0.087169 -0.202880 -0.091855
v 0.145099 -0.144950 -0.091855
v 0.203029 0.202631 -0.091855
v 0.203029 -0.202880 -0.091855
v -0.086622 0.202631 -0.157867
v -0.086622 0.202631 -0.198956
v -0.086622 0.144701 -0.198956
v -0.086622 0.144701 -0.157867
v 0.203029 0.086771 -0.157867
v 0.203029 0.086771 -0.198956
v 0.145099 0.086771 -0.198956
v 0.145099 0.086771 -0.157867
v -0.028692 -0.202880 -0.157867
v -0.028692 -0.202880 -0.198956
v -0.028692 -0.144950 -0.198956
v -0.028692 -0.144950 -0.157867
v 0.087169 0.144701 -0.157867
v 0.087169 0.144701 -0.198956
v 0.087169 0.202631 -0.198956
v 0.087169 0.202631 -0.157867
v -0.144552 -0.029089 -0.157867
v -0.144552 -0.029089 -0.198956
v -0.202482 -0.029089 -0.198956
v -0.202482 -0.029089 -0.157867
v 0.203029 0.086771 -0.198956
v 0.203029 0.057806 -0.221569
v 0.145099 0.057806 -0.221569
v 0.145099 0.086771 -0.198956
v -0.086622 -0.144950 -0.198956
v -0.057657 -0.144950 -0.221569
v -0.057657 -0.202880 -0.221569
v -0.086622 -0.202880 -0.198956
v 0.087169 -0.202880 -0.198956
v 0.058204 -0.202880 -0.221569
v 0.058204 -0.144950 -0.221569
v 0.087169 -0.144950 -0.198956
v -0.144552 -0.029089 -0.198956
v -0.144552 -0.058055 -0.221569
v -0.202482 -0.058055 -0.221569
v -0.202482 -0.029089 -0.198956
v -0.086622 0.202631 -0.198956
v -0.057657 0.202631 -0.221569
v -0.057657 0.144701 -0.221569
v -0.086622 0.144701 -0.198956
v -0.202482 0.202631 -0.198956
v -0.144552 0.144701 -0.221569
v -0.202482 0.144701 -0.198956
v -0.144552 0.202631 -0.198956
v 0.145099 0.028841 -0.198956
v 0.145099 0.057806 -0.221569
v 0.203029 0.057806 -0.221569
v 0.203029 0.028841 -0.198956
v -0.202482 -0.202880 -0.198956
v -0.144552 -0.144950 -0.221569
v -0.144552 -0.202880 -0.198956
v -0.202482 -0.144950 -0.198956
v -0.202482 0.028841 -0.198956
v -0.202482 0.057806 -0.221569
v -0.144552 0.057806 -0.221569
v -0.144552 0.028841 -0.198956
v -0.028692 -0.202880 -0.198956
v -0.057657 -0.202880 -0.221569
v -0.057657 -0.144950 -0.221569
v -0.028692 -0.144950 -0.198956
v 0.203029 0.144701 -0.198956
v 0.145099 0.144701 -0.221569
v 0.203029 0.202631 -0.198956
v 0.145099 0.202631 -0.198956
v -0.144552 0.086771 -0.198956
v -0.144552 0.057806 -0.221569
v -0.202482 0.057806 -0.221569
v -0.202482 0.086771 -0.198956
v -0.202482 -0.087020 -0.198956
v -0.202482 -0.058055 -0.221569
v -0.144552 -0.058055 -0.221569
v -0.144552 -0.087020 -0.198956
v -0.028692 0.144701 -0.198956
v -0.057657 0.144701 -0.221569
v -0.057657 0.202631 -0.221569
v -0.028692 0.202631 -0.198956
v 0.145099 -0.087020 -0.198956
v 0.145099 -0.058055 -0.221569
v 0.203029 -0.058055 -0.221569
v 0.203029 -0.087020 -0.198956
v 0.145099 -0.202880 -0.198956
v 0.145099 -0.144950 -0.221569
v 0.203029 -0.202880 -0.198956
v 0.203029 -0.144950 -0.198956
v 0.203029 -0.029089 -0.198956
v 0.203029 -0.058055 -0.221569
v 0.145099 -0.058055 -0.221569
v 0.145099 -0.029089 -0.198956
v 0.087169 0.144701 -0.198956
v 0.058204 0.144701 -0.221569
v 0.058204 0.202631 -0.221569
v 0.087169 0.202631 -0.198956
v 0.029239 -0.144950 -0.198956
v 0.058204 -0.144950 -0.221569
v 0.058204 -0.202880 -0.221569
v 0.029239 -0.202880 -0.198956
vt 0 0
vt 0 0
vt 0 0
vt 0 0
vt 0 0
vt 0 0
vt 0 0
vt 0 0
vt 0 0
vt 0 0
vt 0 0
vt 0 0
vt 0 0
vt 0 0
vt 0 0
vt 0 0
vt 0 0
vt 0 0
vt 0 0
vt 0 0
vt 0 0
vt 0 0
vt 0 0
vt 0 0
vt 0 0
vt 0 0
vt 0 0
vt 0 0
vt 0 0
vt 0 0
vt 0 0
vt 0 0
vt 0 0
vt 0 0
vt 0 0
vt 0 0
vt 0 0
vt 0 0
vt 0 0
vt 0 0
vt 0 0
vt 0 0
vt 0 0
vt 0 0
vt 0 0
vt 0 0
vt 0 0
vt 0 0
vt 0 0
vt 0 0
vt 0 0
vt 0 0
vt 0 0
vt 0 0
vt 0 0
vt 0 0
vt 0 0
vt 0 0
vt 0 0
vt 0 0
vt 0 0
vt 0 0
vt 0 0
vt 0 0
vt 0 0
vt 0 0
vt 0 0
vt 0 0
vt 0 0
vt 0 0
vt 0 0
vt 0 0
vt 0 0
vt 0 0
vt 0 0
vt 0 0
vt 0 0
vt 0 0
vt 0 0
vt 0 0
vt 0 0
vt 0 0
vt 0 0
vt 0 0
vt 0 0
vt 0 0
vt 0 0
vt 0 0
vt 0 0
vt 0 0
vt 0 0
vt 0 0
vt 0 0
vt 0 0
vt 0 0
vt 0 0
vt 0 0
vt 0 0
vt 0 0
vt 0 0
vt 0 0
vt 0 0
vt 0 0
vt 0 0
vt 0 0
vt 0 0
vt 0 0
vt 0 0
vt 0 0
vt 0 0
vt 0 0
vt 0 0
vt 0 0
vt 0 0
vt 0 0
vt 0 0
vt 0 0
vt 0 0
vt 0 0
vt 0 0
vt 0 0
vt 0 0
vt 0 0
vt 0 0
vt 0 0
vt 0 0
vt 0 0
vt 0 0
vt 0 0
vt 0 0
vt 0 0
vt 0 0
vt 0 0
vt 0 0
vt 0 0
vt 0 0
vt 0 0
vt 0 0
vt 0 0
vt 0 0
vt 0 0
vt 0 0
vt 0 0
vt 0 0
vt 0 0
vt 0 0
vt 0 0
vt 0 0
vt 0 0
vt 0 0
vt 0 0
vt 0 0
vt 0 0
vt 0 0
vt 0 0
vt 0 0
vt 0 0
vt 0 0
vt 0 0
vt 0 0
vt 0 0
vt 0 0
vt 0 0
vt 0 0
vt 0 0
vt 0 0
vt 0 0
vt 0 0
vt 0 0
vt 0 0
vt 0 0
vt 0 0
vt 0 0
vt 0 0
vt 0 0
vt 0 0
vt 0 0
vt 0 0
vt 0 0
vt 0 0
vt 0 0
vt 0 0
vt 0 0
vt 0 0
vt 0 0
vt 0 0
vt 0 0
vt 0 0
vt 0 0
vt 0 0
vt 0 0
vt 0 0
vt 0 0
vt 0 0
vt 0 0
vt 0 0
vt 0 0
vt 0 0
vt 0 0
vt 0 0
vt 0 0
vt 0 0
vt 0 0
vt 0 0
vt 0 0
vt 0 0
vt 0 0
vt 0 0
vt 0 0
vt 0 0
vt 0 0
vt 0 0
vt 0 0
vt 0 0
vt 0 0
vt 0 0
vt 0 0
vt 0 0
vt 0 0
vt 0 0
vt 0 0
vt 0 0
vt 0 0
vt 0 0
vt 0 0
vt 0 0
vt 0 0
vt 0 0
vt 0 0
vt 0 0
vt 0 0
vt 0 0
vt 0 0
vt 0 0
vt 0 0
vt 0 0
vt 0 0
vt 0 0
vt 0 0
vt 0 0
vt 0 0
vt 0 0
vt 0 0
vt 0 0
vt 0 0
vt 0 0
vt 0 0
vt 0 0
vt 0 0
vt 0 0
vt 0 0
vt 0 0
vt 0 0
vt 0 0
vt 0 0
vt 0 0
vt 0 0
vt 0 0
vt 0 0
vt 0 0
vt 0 0
vt 0 0
vt 0 0
vt 0 0
vt 0 0
vt 0 0
vt 0 0
vt 0 0
vt 0 0
vt 0 0
vt 0 0
vt 0 0
vt 0 0
vt 0 0
vt 0 0
vt 0 0
vt 0 0
vt 0 0
vt 0 0
vt 0 0
vt 0 0
vt 0 0
vt 0 0
vt 0 0
vt 0 0
vt 0 0
vt 0 0
vt 0 0
vt 0 0
vt 0 0
vt 0 0
vt 0 0
vt 0 0
vt 0 0
vt 0 0
vt 0 0
vt 0 0
vt 0 0
vt 0 0
vt 0 0
vt 0 0
vt 0 0
vt 0 0
vt 0 0
vt 0 0
vt 0 0
vt 0 0
vt 0 0
vt 0 0
vt 0 0
vt 0 0
vt 0 0
vt 0 0
vt 0 0
vt 0 0
vt 0 0
vt 0 0
vt 0 0
vt 0 0
vt 0 0
vt 0 0
vt 0 0
vt 0 0
vt 0 0
vt 0 0
vt 0 0
vt 0 0
vt 0 0
vt 0 0
vt 0 0
vt 0 0
vt 0 0
vt 0 0
vt 0 0
vt 0 0
vt 0 0
vt 0 0
vt 0 0
vt 0 0
vt 0 0
vt 0 0
vt 0 0
vt 0 0
vt 0 0
vt 0 0
vt 0 0
vt 0 0
vt 0 0
vt 0 0
vt 0 0
vt 0 0
vt 0 0
vt 0 0
vt 0 0
vt 0 0
vt 0 0
vt 0 0
vt 0 0
vt 0 0
vt 0 0
vt 0 0
vt 0 0
vt 0 0
vt 0 0
vt 0 0
vt 0 0
vt 0 0
vt 0 0
vt 0 0
vt 0 0
vt 0 0
vt 0 0
vt 0 0
vt 0 0
vt 0 0
vn -1.000000 0.000000 -0.000000
vn -1.000000 0.000000 -0.000000
vn -1.000000 0.000000 -0.000000
vn -1.000000 0.000000 -0.000000
vn -0.000000 0.000000 -1.000000
vn -0.000000 0.000000 -1.000000
vn -0.000000 0.000000 -1.000000
vn -0.000000 0.000000 -1.000000
vn -0.000000 0.000000 -1.000000
vn -0.000000 0.000000 -1.000000
vn -0.000000 0.000000 -1.000000
vn -0.000000 -1.000000 -0.000000
vn -0.000000 -1.000000 -0.000000
vn -0.000000 -1.000000 -0.000000
vn -0.000000 -1.000000 -0.000000
vn -0.000000 -1.000000 -0.000000
vn -0.000000 -1.000000 -0.000000
vn -0.000000 -1.000000 -0.000000
vn -0.000000 -1.000000 -0.000000
vn -0.000000 -1.000000 -0.000000
vn -0.000000 -1.000000 -0.000000
vn -0.000000 -1.000000 -0.000000
vn -0.000000 -1.000000 -0.000000
vn -0.000000 -1.000000 -0.000000
vn -0.000000 -1.000000 -0.000000
vn -0.000000 -1.000000 -0.000000
vn -0.000000 -1.000000 -0.000000
vn -0.000000 -1.000000 -0.000000
vn -0.000000 -1.000000 -0.000000
vn -0.000000 -1.000000 -0.000000
vn -0.000000 -1.000000 -0.000000
vn -0.000000 -1.000000 -0.000000
vn -0.000000 -1.000000 -0.000000
vn -0.000000 1.000000 -0.000000
vn -0.000000 1.000000 -0.000000
vn -0.000000 1.000000 -0.000000
vn -0.000000 1.000000 -0.000000
vn -0.000000 1.000000 -0.000000
vn -0.000000 1.000000 -0.000000
vn -0.000000 0.000000 -1.000000
vn -0.000000 0.000000 -1.000000
vn -0.000000 0.000000 -1.000000
vn -0.000000 0.000000 -1.000000
vn -1.000000 0.000000 -0.000000
vn -1.000000 0.000000 -0.000000
vn -1.000000 0.000000 -0.000000
vn -1.000000 0.000000 -0.000000
vn -0.000000 0.000000 -1.000000
vn -0.000000 0.000000 -1.000000
vn -0.000000 0.000000 -1.000000
vn -0.000000 0.000000 -1.000000
vn -0.000000 0.000000 -1.000000
vn -0.000000 0.000000 -1.000000
vn -0.000000 0.000000 -1.000000
vn -0.000000 0.000000 -1.000000
vn -0.000000 0.000000 -1.000000
vn -0.000000 0.000000 -1.000000
vn -0.000000 0.000000 -1.000000
vn -0.000000 0.000000 -1.000000
vn -0.000000 0.000000 -1.000000
vn -0.000000 0.000000 -1.000000
vn -0.000000 0.000000 -1.000000
vn -0.000000 0.000000 -1.000000
vn -0.000000 0.000000 -1.000000
vn -0.000000 0.000000 -1.000000
vn 1.000000 0.000000 -0.000000
vn 1.000000 0.000000 -0.000000
vn 1.000000 0.000000 -0.000000
vn 1.000000 0.000000 -0.000000
vn 1.000000 0.000000 -0.000000
vn 1.000000 0.000000 -0.000000
vn 1.000000 0.000000 -0.000000
vn 1.000000 0.000000 -0.000000
vn 1.000000 0.000000 -0.000000
vn 1.000000 0.000000 -0.000000
vn 1.000000 0.000000 -0.000000
vn 1.000000 0.000000 -0.000000
vn 1.000000 0.000000 -0.000000
vn 1.000000 0.000000 -0.000000
vn 1.000000 0.000000 -0.000000
vn 1.000000 0.000000 -0.000000
vn 1.000000 0.000000 -0.000000
vn 1.000000 0.000000 -0.000000
vn 1.000000 0.000000 -0.000000
vn 1.000000 0.000000 -0.000000
vn 1.000000 0.000000 -0.000000
vn 1.000000 0.000000 -0.000000
vn 1.000000 0.000000 -0.000000
vn 1.000000 0.000000 -0.000000
vn 1.000000 0.000000 -0.000000
vn 1.000000 0.000000 -0.000000
vn 1.000000 0.000000 -0.000000
vn 1.000000 0.000000 -0.000000
vn 1.000000 0.000000 -0.000000
vn 1.000000 0.000000 -0.000000
vn 1.000000 0.000000 -0.000000
vn 1.000000 0.000000 -0.000000
vn 1.000000 0.000000 -0.000000
vn 1.000000 0.000000 -0.000000
vn 1.000000 0.000000 -0.000000
vn 1.000000 0.000000 -0.000000
vn 1.000000 0.000000 -0.000000
vn 1.000000 0.000000 -0.000000
vn 1.000000 0.000000 -0.000000
vn 1.000000 0.000000 -0.000000
vn -0.000000 1.000000 -0.000000
vn -0.000000 1.000000 -0.000000
vn -0.000000 1.000000 -0.000000
vn -0.000000 1.000000 -0.000000
vn -0.000000 1.000000 -0.000000
vn -0.000000 1.000000 -0.000000
vn -0.000000 1.000000 -0.000000
vn -0.000000 1.000000 -0.000000
vn -0.000000 1.000000 -0.000000
vn -0.000000 1.000000 -0.000000
vn -0.000000 1.000000 -0.000000
vn -0.000000 1.000000 -0.000000
vn -0.000000 1.000000 -0.000000
vn -0.000000 1.000000 -0.000000
vn -0.000000 1.000000 -0.000000
vn -0.000000 1.000000 -0.000000
vn -0.000000 1.000000 -0.000000
vn -0.000000 1.000000 -0.000000
vn -0.000000 1.000000 -0.000000
vn -0.000000 1.000000 -0.000000
vn -0.000000 1.000000 -0.000000
vn -0.000000 -1.000000 -0.000000
vn -0.000000 -1.000000 -0.000000
vn -0.000000 -1.000000 -0.000000
vn -0.000000 -1.000000 -0.000000
vn -0.000000 0.000000 -1.000000
vn -0.000000 0.000000 -1.000000
vn -0.000000 0.000000 -1.000000
vn -0.000000 0.000000 -1.000000
vn -0.000000 0.000000 -1.000000
vn -0.000000 0.000000 -1.000000
vn -0.000000 0.000000 -1.000000
vn -0.000000 0.000000 -1.000000
vn -0.000000 0.000000 -1.000000
vn -0.000000 0.000000 -1.000000
vn -0.000000 0.000000 -1.000000
vn -1.000000 0.000000 -0.000000
vn -1.000000 0.000000 -0.000000
vn -1.000000 0.000000 -0.000000
vn -1.000000 0.000000 -0.000000
vn -1.000000 0.000000 -0.000000
vn -1.000000 0.000000 -0.000000
vn -1.000000 0.000000 -0.000000
vn -1.000000 0.000000 -0.000000
vn -1.000000 0.000000 -0.000000
vn -1.000000 0.000000 -0.000000
vn -1.000000 0.000000 -0.000000
vn -1.000000 0.000000 -0.000000
vn -1.000000 0.000000 -0.000000
vn -1.000000 0.000000 -0.000000
vn -1.000000 0.000000 -0.000000
vn -1.000000 0.000000 -0.000000
vn -1.000000 0.000000 -0.000000
vn -1.000000 0.000000 -0.000000
vn -1.000000 0.000000 -0.000000
vn -1.000000 0.000000 -0.000000
vn -1.000000 0.000000 -0.000000
vn -1.000000 0.000000 -0.000000
vn -0.000000 0.000000 -1.000000
vn -0.000000 0.000000 -1.000000
vn -0.000000 0.000000 -1.000000
vn -0.000000 0.000000 -1.000000
vn -0.615375 0.000000 -0.788234
vn -0.615375 0.000000 -0.788234
vn -0.615375 0.000000 -0.788234
vn -0.615375 0.000000 -0.788234
vn -0.000000 -1.000000 -0.000000
vn -0.000000 -1.000000 -0.000000
vn -0.000000 -1.000000 -0.000000
vn -0.000000 -1.000000 -0.000000
vn 1.000000 0.000000 -0.000000
vn 1.000000 0.000000 -0.000000
vn 1.000000 0.000000 -0.000000
vn 1.000000 0.000000 -0.000000
vn -0.000000 1.000000 -0.000000
vn -0.000000 1.000000 -0.000000
vn -0.000000 1.000000 -0.000000
vn -0.000000 1.000000 -0.000000
vn -0.000000 1.000000 -0.000000
vn -0.000000 1.000000 -0.000000
vn -0.000000 1.000000 -0.000000
vn -0.000000 1.000000 -0.000000
vn -0.000000 1.000000 -0.000000
vn -0.000000 1.000000 -0.000000
vn -0.000000 1.000000 -0.000000
vn -0.000000 1.000000 -0.000000
vn -0.000000 1.000000 -0.000000
vn -0.000000 1.000000 -0.000000
vn -0.000000 1.000000 -0.000000
vn -0.000000 1.000000 -0.000000
vn -0.000000 1.000000 -0.000000
vn -0.000000 1.000000 -0.000000
vn -0.000000 1.000000 -0.000000
vn -0.000000 1.000000 -0.000000
vn -0.000000 1.000000 -0.000000
vn -0.000000 1.000000 -0.000000
vn -0.000000 1.000000 -0.000000
vn -0.000000 1.000000 -0.000000
vn -0.000000 1.000000 -0.000000
vn -0.000000 1.000000 -0.000000
vn -0.000000 -1.000000 -0.000000
vn -0.000000 -1.000000 -0.000000
vn -0.000000 -1.000000 -0.000000
vn -0.000000 -1.000000 -0.000000
vn -0.000000 -1.000000 -0.000000
vn -0.000000 -1.000000 -0.000000
vn -0.000000 -1.000000 -0.000000
vn -0.000000 -1.000000 -0.000000
vn -0.000000 -1.000000 -0.000000
vn -0.000000 -1.000000 -0.000000
vn -0.000000 -1.000000 -0.000000
vn -0.000000 -1.000000 -0.000000
vn -0.000000 -1.000000 -0.000000
vn -0.000000 -1.000000 -0.000000
vn -0.000000 -1.000000 -0.000000
vn -0.000000 -1.000000 -0.000000
vn -0.000000 -1.000000 -0.000000
vn -0.000000 -1.000000 -0.000000
vn -0.000000 -1.000000 -0.000000
vn -0.000000 1.000000 -0.000000
vn -0.000000 1.000000 -0.000000
vn -0.000000 1.000000 -0.000000
vn -0.000000 1.000000 -0.000000
vn -0.000000 1.000000 -0.000000
vn -0.000000 1.000000 -0.000000
vn 1.000000 0.000000 -0.000000
vn 1.000000 0.000000 -0.000000
vn 1.000000 0.000000 -0.000000
vn 1.000000 0.000000 -0.000000
vn -0.000000 1.000000 -0.000000
vn -0.000000 1.000000 -0.000000
vn -0.000000 1.000000 -0.000000
vn -0.000000 1.000000 -0.000000
vn -0.000000 -1.000000 -0.000000
vn -0.000000 -1.000000 -0.000000
vn -0.000000 -1.000000 -0.000000
vn -0.000000 -1.000000 -0.000000
vn -1.000000 0.000000 -0.000000
vn -1.000000 0.000000 -0.000000
vn -1.000000 0.000000 -0.000000
vn -1.000000 0.000000 -0.000000
vn -0.000000 -1.000000 -0.000000
vn -0.000000 -1.000000 -0.000000
vn -0.000000 -1.000000 -0.000000
vn -0.000000 -1.000000 -0.000000
vn -1.000000 0.000000 -0.000000
vn -1.000000 0.000000 -0.000000
vn -1.000000 0.000000 -0.000000
vn -1.000000 0.000000 -0.000000
vn -1.000000 0.000000 -0.000000
vn -1.000000 0.000000 -0.000000
vn -1.000000 0.000000 -0.000000
vn -1.000000 0.000000 -0.000000
vn -1.000000 0.000000 -0.000000
vn -1.000000 0.000000 -0.000000
vn -1.000000 0.000000 -0.000000
vn -1.000000 0.000000 -0.000000
vn -1.000000 0.000000 -0.000000
vn -1.000000 0.000000 -0.000000
vn -1.000000 0.000000 -0.000000
vn -1.000000 0.000000 -0.000000
vn -1.000000 0.000000 -0.000000
vn -1.000000 0.000000 -0.000000
vn -0.000000 0.000000 1.000000
vn -0.000000 0.000000 1.000000
vn -0.000000 0.000000 1.000000
vn -0.000000 0.000000 1.000000
vn -0.000000 0.000000 1.000000
vn -0.000000 0.000000 1.000000
vn -0.000000 0.000000 1.000000
vn -0.000000 0.000000 1.000000
vn -0.000000 0.000000 1.000000
vn -0.000000 0.000000 1.000000
vn -0.000000 0.000000 1.000000
vn -1.000000 0.000000 -0.000000
vn -1.000000 0.000000 -0.000000
vn -1.000000 0.000000 -0.000000
vn -1.000000 0.000000 -0.000000
vn -0.000000 1.000000 -0.000000
vn -0.000000 1.000000 -0.000000
vn -0.000000 1.000000 -0.000000
vn -0.000000 1.000000 -0.000000
vn 1.000000 0.000000 -0.000000
vn 1.000000 0.000000 -0.000000
vn 1.000000 0.000000 -0.000000
vn 1.000000 0.000000 -0.000000
vn 1.000000 0.000000 -0.000000
vn 1.000000 0.000000 -0.000000
vn 1.000000 0.000000 -0.000000
vn 1.000000 0.000000 -0.000000
vn -0.000000 1.000000 -0.000000
vn -0.000000 1.000000 -0.000000
vn -0.000000 1.000000 -0.000000
vn -0.000000 1.000000 -0.000000
vn -0.000000 0.615375 -0.788234
vn -0.000000 0.615375 -0.788234
vn -0.000000 0.615375 -0.788234
vn -0.000000 0.615375 -0.788234
vn -0.615375 0.000000 -0.788234
vn -0.615375 0.000000 -0.788234
vn -0.615375 0.000000 -0.788234
vn -0.615375 0.000000 -0.788234
vn 0.615375 0.000000 -0.788234
vn 0.615375 0.000000 -0.788234
vn 0.615375 0.000000 -0.788234
vn 0.615375 0.000000 -0.788234
vn -0.000000 0.615362 -0.788245
vn -0.000000 0.615362 -0.788245
vn -0.000000 0.615362 -0.788245
vn -0.000000 0.615362 -0.788245
vn -0.615375 0.000000 -0.788234
vn -0.615375 0.000000 -0.788234
vn -0.615375 0.000000 -0.788234
vn -0.615375 0.000000 -0.788234
vn -0.188140 0.188140 -0.963954
vn -0.188140 0.188140 -0.963954
vn -0.363629 0.000000 -0.931544
vn -0.000000 0.363629 -0.931544
vn -0.000000 -0.615375 -0.788234
vn -0.000000 -0.615375 -0.788234
vn -0.000000 -0.615375 -0.788234
vn -0.000000 -0.615375 -0.788234
vn -0.188140 -0.188140 -0.963954
vn -0.188140 -0.188140 -0.963954
vn -0.000000 -0.363629 -0.931544
vn -0.363629 0.000000 -0.931544
vn -0.000000 -0.615375 -0.788234
vn -0.000000 -0.615375 -0.788234
vn -0.000000 -0.615375 -0.788234
vn -0.000000 -0.615375 -0.788234
vn 0.615375 0.000000 -0.788234
vn 0.615375 0.000000 -0.788234
vn 0.615375 0.000000 -0.788234
vn 0.615375 0.000000 -0.788234
vn 0.363629 0.000000 -0.931544
vn 0.188140 0.188140 -0.963954
vn 0.188140 0.188140 -0.963954
vn -0.000000 0.363629 -0.931544
vn -0.000000 0.615375 -0.788234
vn -0.000000 0.615375 -0.788234
vn -0.000000 0.615375 -0.788234
vn -0.000000 0.615375 -0.788234
vn -0.000000 -0.615375 -0.788234
vn -0.000000 -0.615375 -0.788234
vn -0.000000 -0.615375 -0.788234
vn -0.000000 -0.615375 -0.788234
vn 0.615375 0.000000 -0.788234
vn 0.615375 0.000000 -0.788234
vn 0.615375 0.000000 -0.788234
vn 0.615375 0.000000 -0.788234
vn -0.000000 -0.615375 -0.788234
vn -0.000000 -0.615375 -0.788234
vn -0.000000 -0.615375 -0.788234
vn -0.000000 -0.615375 -0.788234
vn -0.000000 -0.363629 -0.931544
vn 0.188140 -0.188140 -0.963954
vn 0.188140 -0.188140 -0.963954
vn 0.363629 0.000000 -0.931544
vn -0.000000 0.615362 -0.788245
vn -0.000000 0.615362 -0.788245
vn -0.000000 0.615362 -0.788245
vn -0.000000 0.615362 -0.788245
vn 0.615375 0.000000 -0.788234
vn 0.615375 0.000000 -0.788234
vn 0.615375 0.000000 -0.788234
vn 0.615375 0.000000 -0.788234
vn -0.615375 0.000000 -0.788234
vn -0.615375 0.000000 -0.788234
vn -0.615375 0.000000 -0.788234
vn -0.615375 0.000000 -0.788234
f 1/1/1 2/2/2 3/3/3
f 1/1/1 3/3/3 4/4/4
f 5/5/5 6/6/6 7/7/7
f 5/5/5 7/7/7 8/8/8
f 9/9/9 10/10/10 5/5/5
f 9/9/9 5/5/5 11/11/11
f 12/12/12 13/13/13 14/14/14
f 14/14/14 15/15/15 12/12/12
f 15/15/15 16/16/16 12/12/12
f 17/17/17 18/18/18 19/19/19
f 19/19/19 20/20/20 17/17/17
f 20/20/20 21/21/21 17/17/17
f 22/22/22 23/23/23 24/24/24
f 24/24/24 25/25/25 22/22/22
f 26/26/26 27/27/27 25/25/25
f 26/26/26 28/28/28 27/27/27
f 28/28/28 29/29/29 27/27/27
f 22/22/22 30/30/30 31/31/31
f 22/22/22 32/32/32 30/30/30
f 32/32/32 33/33/33 30/30/30
f 34/34/34 35/35/35 36/36/36
f 34/34/34 37/37/37 35/35/35
f 34/34/34 38/38/38 37/37/37
f 34/34/34 39/39/39 38/38/38
f 40/40/40 41/41/41 42/42/42
f 40/40/40 42/42/42 43/43/43
f 44/44/44 45/45/45 46/46/46
f 44/44/44 46/46/46 47/47/47
f 48/48/48 49/49/49 50/50/50
f 48/48/48 50/50/50 51/51/51
f 52/52/52 51/51/51 53/53/53
f 52/52/52 53/53/53 54/54/54
f 55/55/55 56/56/56 57/57/57
f 55/55/55 57/57/57 58/58/58
f 59/59/59 60/60/60 55/55/55
f 59/59/59 55/55/55 61/61/61
f 62/62/62 63/63/63 64/64/64
f 62/62/62 64/64/64 65/65/65
f 66/66/66 67/67/67 68/68/68
f 66/66/66 69/69/69 67/67/67
f 69/69/69 70/70/70 67/67/67
f 71/71/71 66/66/66 72/72/72
f 73/73/73 71/71/71 72/72/72
f 74/74/74 71/71/71 73/73/73
f 73/73/73 75/75/75 74/74/74
f 76/76/76 73/73/73 72/72/72
f 77/77/77 76/76/76 72/72/72
f 78/78/78 77/77/77 72/72/72
f 79/79/79 78/78/78 72/72/72
f 72/72/72 80/80/80 79/79/79
f 78/78/78 81/81/81 77/77/77
f 82/82/82 77/77/77 81/81/81
f 81/81/81 83/83/83 82/82/82
f 84/84/84 85/85/85 79/79/79
f 84/84/84 86/86/86 85/85/85
f 86/86/86 87/87/87 85/85/85
f 88/88/88 89/89/89 90/90/90
f 91/91/91 88/88/88 90/90/90
f 92/92/92 91/91/91 90/90/90
f 93/93/93 92/92/92 90/90/90
f 93/93/93 94/94/94 92/92/92
f 95/95/95 92/92/92 94/94/94
f 94/94/94 96/96/96 95/95/95
f 97/97/97 93/93/93 90/90/90
f 98/98/98 97/97/97 90/90/90
f 98/98/98 99/99/99 97/97/97
f 100/100/100 97/97/97 99/99/99
f 99/99/99 101/101/101 100/100/100
f 102/102/102 98/98/98 90/90/90
f 102/102/102 90/90/90 103/103/103
f 103/103/103 104/104/104 102/102/102
f 105/105/105 102/102/102 104/104/104
f 106/106/106 107/107/107 108/108/108
f 109/109/109 106/106/106 110/110/110
f 110/110/110 111/111/111 109/109/109
f 110/110/110 112/112/112 111/111/111
f 106/106/106 113/113/113 110/110/110
f 114/114/114 110/110/110 113/113/113
f 113/113/113 115/115/115 114/114/114
f 115/115/115 116/116/116 114/114/114
f 114/114/114 117/117/117 110/110/110
f 114/114/114 118/118/118 117/117/117
f 119/119/119 117/117/117 118/118/118
f 118/118/118 120/120/120 119/119/119
f 120/120/120 121/121/121 119/119/119
f 114/114/114 122/122/122 118/118/118
f 114/114/114 123/123/123 122/122/122
f 124/124/124 122/122/122 123/123/123
f 123/123/123 125/125/125 124/124/124
f 125/125/125 126/126/126 124/124/124
f 127/127/127 128/128/128 129/129/129
f 127/127/127 129/129/129 130/130/130
f 131/131/131 132/132/132 133/133/133
f 131/131/131 133/133/133 134/134/134
f 135/135/135 134/134/134 136/136/136
f 135/135/135 136/136/136 137/137/137
f 138/138/138 139/139/139 140/140/140
f 138/138/138 140/140/140 141/141/141
f 142/142/142 143/143/143 144/144/144
f 142/142/142 145/145/145 143/143/143
f 145/145/145 146/146/146 143/143/143
f 147/147/147 142/142/142 148/148/148
f 148/148/148 149/149/149 147/147/147
f 149/149/149 150/150/150 147/147/147
f 150/150/150 151/151/151 147/147/147
f 151/151/151 152/152/152 147/147/147
f 151/151/151 153/153/153 152/152/152
f 149/149/149 154/154/154 150/150/150
f 149/149/149 155/155/155 154/154/154
f 149/149/149 156/156/156 155/155/155
f 155/155/155 157/157/157 154/154/154
f 157/157/157 158/158/158 154/154/154
f 157/157/157 159/159/159 158/158/158
f 160/160/160 161/161/161 156/156/156
f 160/160/160 162/162/162 161/161/161
f 162/162/162 163/163/163 161/161/161
f 164/164/164 165/165/165 166/166/166
f 164/164/164 166/166/166 167/167/167
f 168/168/168 169/169/169 170/170/170
f 168/168/168 170/170/170 171/171/171
f 172/172/172 173/173/173 174/174/174
f 172/172/172 174/174/174 175/175/175
f 176/176/176 177/177/177 178/178/178
f 176/176/176 178/178/178 179/179/179
f 180/180/180 181/181/181 182/182/182
f 180/180/180 182/182/182 183/183/183
f 184/184/184 185/185/185 186/186/186
f 184/184/184 187/187/187 185/185/185
f 187/187/187 188/188/188 185/185/185
f 184/184/184 189/189/189 190/190/190
f 190/190/190 108/108/108 184/184/184
f 108/108/108 191/191/191 184/184/184
f 191/191/191 192/192/192 184/184/184
f 191/191/191 193/193/193 192/192/192
f 194/194/194 192/192/192 193/193/193
f 193/193/193 195/195/195 194/194/194
f 195/195/195 196/196/196 194/194/194
f 191/191/191 197/197/197 193/193/193
f 191/191/191 198/198/198 197/197/197
f 199/199/199 197/197/197 198/198/198
f 198/198/198 200/200/200 199/199/199
f 200/200/200 201/201/201 199/199/199
f 202/202/202 203/203/203 191/191/191
f 202/202/202 204/204/204 203/203/203
f 204/204/204 205/205/205 203/203/203
f 206/206/206 207/207/207 208/208/208
f 208/208/208 209/209/209 206/206/206
f 209/209/209 210/210/210 206/206/206
f 208/208/208 211/211/211 209/209/209
f 212/212/212 209/209/209 211/211/211
f 211/211/211 213/213/213 212/212/212
f 213/213/213 214/214/214 212/212/212
f 215/215/215 216/216/216 217/217/217
f 217/217/217 218/218/218 215/215/215
f 218/218/218 219/219/219 215/215/215
f 220/220/220 221/221/221 222/222/222
f 222/222/222 223/223/223 220/220/220
f 223/223/223 224/224/224 220/220/220
f 225/225/225 226/226/226 227/227/227
f 225/225/225 228/228/228 226/226/226
f 225/225/225 229/229/229 228/228/228
f 225/225/225 230/230/230 229/229/229
f 231/231/231 232/232/232 233/233/233
f 231/231/231 233/233/233 234/234/234
f 235/235/235 236/236/236 237/237/237
f 235/235/235 237/237/237 238/238/238
f 239/239/239 240/240/240 241/241/241
f 239/239/239 241/241/241 242/242/242
f 243/243/243 244/244/244 245/245/245
f 243/243/243 245/245/245 246/246/246
f 247/247/247 248/248/248 249/249/249
f 247/247/247 249/249/249 250/250/250
f 251/251/251 252/252/252 253/253/253
f 254/254/254 251/251/251 253/253/253
f 254/254/254 253/253/253 255/255/255
f 254/254/254 255/255/255 256/256/256
f 255/255/255 257/257/257 256/256/256
f 257/257/257 258/258/258 256/256/256
f 257/257/257 259/259/259 258/258/258
f 254/254/254 256/256/256 260/260/260
f 254/254/254 260/260/260 261/261/261
f 260/260/260 262/262/262 261/261/261
f 262/262/262 263/263/263 261/261/261
f 262/262/262 264/264/264 263/263/263
f 254/254/254 261/261/261 265/265/265
f 266/266/266 254/254/254 265/265/265
f 266/266/266 265/265/265 267/267/267
f 267/267/267 268/268/268 266/266/266
f 269/269/269 270/270/270 271/271/271
f 271/271/271 272/272/272 269/269/269
f 272/272/272 273/273/273 269/269/269
f 274/274/274 269/269/269 273/273/273
f 275/275/275 274/274/274 273/273/273
f 273/273/273 276/276/276 275/275/275
f 277/277/277 275/275/275 276/276/276
f 277/277/277 278/278/278 271/271/271
f 277/277/277 276/276/276 279/279/279
f 279/279/279 278/278/278 277/277/277
f 280/280/280 281/281/281 282/282/282
f 280/280/280 282/282/282 283/283/283
f 284/284/284 285/285/285 286/286/286
f 284/284/284 286/286/286 287/287/287
f 288/288/288 289/289/289 290/290/290
f 288/288/288 290/290/290 291/291/291
f 292/292/292 293/293/293 294/294/294
f 292/292/292 294/294/294 295/295/295
f 296/296/296 297/297/297 298/298/298
f 296/296/296 298/298/298 299/299/299
f 300/300/300 301/301/301 302/302/302
f 300/300/300 302/302/302 303/303/303
f 304/304/304 305/305/305 306/306/306
f 304/304/304 306/306/306 307/307/307
f 308/308/308 309/309/309 310/310/310
f 308/308/308 310/310/310 311/311/311
f 312/312/312 313/313/313 314/314/314
f 312/312/312 314/314/314 315/315/315
f 316/316/316 317/317/317 318/318/318
f 316/316/316 318/318/318 319/319/319
f 320/320/320 321/321/321 322/322/322
f 323/323/323 321/321/321 320/320/320
f 324/324/324 325/325/325 326/326/326
f 324/324/324 326/326/326 327/327/327
f 328/328/328 329/329/329 330/330/330
f 331/331/331 329/329/329 328/328/328
f 332/332/332 333/333/333 334/334/334
f 332/332/332 334/334/334 335/335/335
f 336/336/336 337/337/337 338/338/338
f 336/336/336 338/338/338 339/339/339
f 340/340/340 341/341/341 342/342/342
f 342/342/342 341/341/341 343/343/343
f 344/344/344 345/345/345 346/346/346
f 344/344/344 346/346/346 347/347/347
f 348/348/348 349/349/349 350/350/350
f 348/348/348 350/350/350 351/351/351
f 352/352/352 353/353/353 354/354/354
f 352/352/352 354/354/354 355/355/355
f 356/356/356 357/357/357 358/358/358
f 356/356/356 358/358/358 359/359/359
f 360/360/360 361/361/361 362/362/362
f 362/362/362 361/361/361 363/363/363
f 364/364/364 365/365/365 366/366/366
f 364/364/364 366/366/366 367/367/367
f 368/368/368 369/369/369 370/370/370
f 368/368/368 370/370/370 371/371/371
f 372/372/372 373/373/373 374/374/374
f 372/372/372 374/374/374 375/375/375
