# detective_hat (gear rip -> Godot: Z negated + winding reversed)
v -0.642785 0.227475 0.222418
v -0.574604 0.175952 0.420463
v -0.528557 0.175952 0.394300
v -0.642785 0.227475 0.222418
v -0.589902 0.227475 0.219553
v -0.895591 0.109663 0.070448
v -0.851777 0.109663 0.068075
v -0.855027 0.125759 0.008091
v -0.898841 0.125759 0.010465
v -0.878938 0.008738 -0.022015
v -0.856723 0.008738 -0.023218
v -0.858420 -0.108284 -0.054528
v -0.902233 -0.108284 -0.052154
v -0.902233 -0.108284 -0.052154
v -0.858420 -0.108284 -0.054528
v -0.855170 -0.124380 0.005455
v -0.898983 -0.124380 0.007829
v -0.875688 -0.007359 0.037968
v -0.853474 -0.007359 0.036765
v -0.851777 0.109663 0.068075
v -0.895591 0.109663 0.070448
v -0.898983 -0.124380 0.007829
v -0.875688 -0.007359 0.037968
v -0.878938 0.008738 -0.022015
v -0.902233 -0.108284 -0.052154
v -0.875688 -0.007359 0.037968
v -0.895591 0.109663 0.070448
v -0.898841 0.125759 0.010465
v -0.878938 0.008738 -0.022015
v -0.898983 -0.124380 0.007829
v -0.855170 -0.124380 0.005455
v -0.853474 -0.007359 0.036765
v -0.875688 -0.007359 0.037968
v -0.898841 0.125759 0.010465
v -0.855027 0.125759 0.008091
v -0.856723 0.008738 -0.023218
v -0.878938 0.008738 -0.022015
v -0.642785 0.227475 0.222418
v -0.589902 0.227475 0.219553
v -0.614515 0.227475 -0.234732
v -0.667398 0.227475 -0.231866
v -0.667398 -0.227475 -0.231866
v -0.661495 -0.175952 -0.320361
v -0.608612 -0.175952 -0.323227
v -0.614515 -0.227475 -0.234731
v -0.667398 -0.227475 -0.231866
v -0.614515 -0.227475 -0.234731
v -0.589903 -0.227475 0.219553
v -0.642786 -0.227475 0.222418
v -0.642786 -0.227475 0.222418
v -0.574604 -0.175952 0.420463
v -0.574604 0.175952 0.420463
v -0.642785 0.227475 0.222418
v -0.589902 0.227475 0.219553
v -0.589903 -0.227475 0.219553
v -0.614515 -0.227475 -0.234731
v -0.614515 0.227475 -0.234732
v -0.642786 -0.227475 0.222418
v -0.761294 -0.205240 0.206571
v -0.783501 -0.205240 -0.203308
v -0.667398 -0.227475 -0.231866
v -0.761294 -0.205240 0.206571
v -0.852311 -0.135587 0.141747
v -0.866981 -0.135587 -0.129030
v -0.783501 -0.205240 -0.203308
v -0.667398 0.227475 -0.231866
v -0.783501 0.205240 -0.203308
v -0.761294 0.205240 0.206571
v -0.642785 0.227475 0.222418
v -0.642785 0.227475 0.222418
v -0.761294 0.205240 0.206571
v -0.761294 -0.205240 0.206571
v -0.642786 -0.227475 0.222418
v -0.667398 -0.227475 -0.231866
v -0.783501 -0.205240 -0.203308
v -0.783501 0.205240 -0.203308
v -0.667398 0.227475 -0.231866
v -0.852311 -0.135587 0.141747
v -0.852311 0.135587 0.141747
v -0.866981 0.135587 -0.129030
v -0.866981 -0.135587 -0.129030
v -0.783501 0.205240 -0.203308
v -0.866981 0.135587 -0.129030
v -0.852311 0.135587 0.141747
v -0.761294 0.205240 0.206571
v -0.761294 0.205240 0.206571
v -0.852311 0.135587 0.141747
v -0.852311 -0.135587 0.141747
v -0.761294 -0.205240 0.206571
v -0.783501 -0.205240 -0.203308
v -0.866981 -0.135587 -0.129030
v -0.866981 0.135587 -0.129030
v -0.783501 0.205240 -0.203308
v -0.661495 0.175952 -0.320361
v -0.608612 0.175952 -0.323227
v -0.608612 -0.175952 -0.323227
v -0.661495 -0.175952 -0.320361
v -0.614515 -0.227475 -0.234731
v -0.608612 -0.175952 -0.323227
v -0.608612 0.175952 -0.323227
v -0.614515 0.227475 -0.234732
v -0.667398 0.227475 -0.231866
v -0.661495 0.175952 -0.320361
v -0.661495 -0.175952 -0.320361
v -0.667398 -0.227475 -0.231866
v -0.614515 0.227475 -0.234732
v -0.608612 0.175952 -0.323227
v -0.661495 0.175952 -0.320361
v -0.667398 0.227475 -0.231866
v -0.574604 -0.175952 0.420463
v -0.528557 -0.175952 0.394300
v -0.528557 0.175952 0.394300
v -0.574604 0.175952 0.420463
v -0.589903 -0.227475 0.219553
v -0.528557 -0.175952 0.394300
v -0.574604 -0.175952 0.420463
v -0.642786 -0.227475 0.222418
v -0.589902 0.227475 0.219553
v -0.528557 0.175952 0.394300
v -0.528557 -0.175952 0.394300
v -0.589903 -0.227475 0.219553
vt 0.665712237 0.333432585
vt 0.665712237 0.426890284
vt 0.759169936 0.426890284
vt 0.665712237 0.333432585
vt 0.759169936 0.333432585
vt 0.22811988 0.525900602
vt 0.22811988 0.619358301
vt 0.321577579 0.619358301
vt 0.321577579 0.525900602
vt 0.22811988 0.525900602
vt 0.22811988 0.619358301
vt 0.321577579 0.619358301
vt 0.321577579 0.525900602
vt 0.22811988 0.525900602
vt 0.22811988 0.619358301
vt 0.321577579 0.619358301
vt 0.321577579 0.525900602
vt 0.22811988 0.525900602
vt 0.22811988 0.619358301
vt 0.321577579 0.619358301
vt 0.321577579 0.525900602
vt 0.22811988 0.525900602
vt 0.22811988 0.619358301
vt 0.321577579 0.619358301
vt 0.321577579 0.525900602
vt 0.22811988 0.525900602
vt 0.22811988 0.619358301
vt 0.321577579 0.619358301
vt 0.321577579 0.525900602
vt 0.22811988 0.525900602
vt 0.22811988 0.619358301
vt 0.321577579 0.619358301
vt 0.321577579 0.525900602
vt 0.22811988 0.525900602
vt 0.22811988 0.619358301
vt 0.321577579 0.619358301
vt 0.321577579 0.525900602
vt 0.665712237 0.333432585
vt 0.665712237 0.426890284
vt 0.759169936 0.426890284
vt 0.759169936 0.333432585
vt 0.665712237 0.333432585
vt 0.665712237 0.426890284
vt 0.759169936 0.426890284
vt 0.759169936 0.333432585
vt 0.665712237 0.333432585
vt 0.665712237 0.426890284
vt 0.759169936 0.426890284
vt 0.759169936 0.333432585
vt 0.665712237 0.333432585
vt 0.665712237 0.426890284
vt 0.759169936 0.426890284
vt 0.759169936 0.333432585
vt 0.665712237 0.333432585
vt 0.665712237 0.426890284
vt 0.759169936 0.426890284
vt 0.759169936 0.333432585
vt 0.665712237 0.333432585
vt 0.665712237 0.426890284
vt 0.759169936 0.426890284
vt 0.759169936 0.333432585
vt 0.665712237 0.333432585
vt 0.665712237 0.426890284
vt 0.759169936 0.426890284
vt 0.759169936 0.333432585
vt 0.665712237 0.333432585
vt 0.665712237 0.426890284
vt 0.759169936 0.426890284
vt 0.759169936 0.333432585
vt 0.665712237 0.333432585
vt 0.665712237 0.426890284
vt 0.759169936 0.426890284
vt 0.759169936 0.333432585
vt 0.665712237 0.333432585
vt 0.665712237 0.426890284
vt 0.759169936 0.426890284
vt 0.759169936 0.333432585
vt 0.665712237 0.333432585
vt 0.665712237 0.426890284
vt 0.759169936 0.426890284
vt 0.759169936 0.333432585
vt 0.665712237 0.333432585
vt 0.665712237 0.426890284
vt 0.759169936 0.426890284
vt 0.759169936 0.333432585
vt 0.665712237 0.333432585
vt 0.665712237 0.426890284
vt 0.759169936 0.426890284
vt 0.759169936 0.333432585
vt 0.665712237 0.333432585
vt 0.665712237 0.426890284
vt 0.759169936 0.426890284
vt 0.759169936 0.333432585
vt 0.665712237 0.333432585
vt 0.665712237 0.426890284
vt 0.759169936 0.426890284
vt 0.759169936 0.333432585
vt 0.665712237 0.333432585
vt 0.665712237 0.426890284
vt 0.759169936 0.426890284
vt 0.759169936 0.333432585
vt 0.665712237 0.333432585
vt 0.665712237 0.426890284
vt 0.759169936 0.426890284
vt 0.759169936 0.333432585
vt 0.665712237 0.333432585
vt 0.665712237 0.426890284
vt 0.759169936 0.426890284
vt 0.759169936 0.333432585
vt 0.665712237 0.333432585
vt 0.665712237 0.426890284
vt 0.759169936 0.426890284
vt 0.759169936 0.333432585
vt 0.665712237 0.333432585
vt 0.665712237 0.426890284
vt 0.759169936 0.426890284
vt 0.759169936 0.333432585
vt 0.665712237 0.333432585
vt 0.665712237 0.426890284
vt 0.759169936 0.426890284
vt 0.759169936 0.333432585
vn -0.038638 0.995606 0.085300
vn 0.071211 0.967487 0.242688
vn 0.071211 0.967487 0.242688
vn -0.038638 0.995606 0.085300
vn 0.035899 0.991838 0.122343
vn 0.014002 0.965926 0.258440
vn 0.014002 0.965926 0.258440
vn 0.014002 0.965926 0.258440
vn 0.014002 0.965926 0.258440
vn -0.052256 0.258819 -0.964511
vn -0.052256 0.258819 -0.964511
vn -0.052256 0.258819 -0.964511
vn -0.052256 0.258819 -0.964511
vn -0.014002 -0.965926 -0.258440
vn -0.014002 -0.965926 -0.258440
vn -0.014002 -0.965926 -0.258440
vn -0.014002 -0.965926 -0.258440
vn 0.052256 -0.258819 0.964511
vn 0.052256 -0.258819 0.964511
vn 0.052256 -0.258819 0.964511
vn 0.052256 -0.258819 0.964511
vn -0.980529 0.169778 0.098682
vn -0.998536 0.000000 0.054099
vn -0.998536 0.000000 0.054099
vn -0.980529 0.169778 0.098682
vn -0.998536 0.000000 0.054099
vn -0.985451 -0.169778 0.007832
vn -0.985451 -0.169778 0.007832
vn -0.998536 0.000000 0.054099
vn 0.052256 -0.258819 0.964511
vn 0.052256 -0.258819 0.964511
vn 0.052256 -0.258819 0.964511
vn 0.052256 -0.258819 0.964511
vn -0.052256 0.258819 -0.964511
vn -0.052256 0.258819 -0.964511
vn -0.052256 0.258819 -0.964511
vn -0.052256 0.258819 -0.964511
vn -0.038638 0.995606 0.085300
vn 0.035899 0.991838 0.122343
vn -0.014155 0.965164 -0.261263
vn -0.073554 0.982580 -0.170665
vn -0.073555 -0.982580 -0.170665
vn -0.027324 -0.863083 -0.504323
vn -0.027324 -0.863083 -0.504323
vn -0.014155 -0.965164 -0.261263
vn -0.073555 -0.982580 -0.170665
vn -0.014155 -0.965164 -0.261263
vn 0.035898 -0.991838 0.122343
vn -0.038638 -0.995606 0.085300
vn -0.945535 0.000000 0.325521
vn -0.945535 0.000000 0.325521
vn -0.945535 0.000000 0.325521
vn -0.945535 0.000000 0.325521
vn 0.980879 -0.000000 -0.194618
vn 0.980879 -0.000000 -0.194618
vn 0.999981 -0.000000 0.006239
vn 0.999981 -0.000000 0.006239
vn -0.038638 -0.995606 0.085300
vn -0.416289 -0.908953 0.022554
vn -0.416289 -0.908953 0.022554
vn -0.073555 -0.982580 -0.170665
vn -0.416289 -0.908953 0.022554
vn -0.622425 -0.781953 0.033722
vn -0.622425 -0.781953 0.033722
vn -0.416289 -0.908953 0.022554
vn -0.073554 0.982580 -0.170665
vn -0.416289 0.908953 0.022554
vn -0.416289 0.908953 0.022554
vn -0.038638 0.995606 0.085300
vn -0.132542 0.000000 0.991177
vn -0.367115 0.000000 0.930175
vn -0.367115 0.000000 0.930175
vn -0.132542 0.000000 0.991177
vn -0.238853 -0.000000 -0.971056
vn -0.465462 -0.000000 -0.885068
vn -0.465462 -0.000000 -0.885068
vn -0.238853 -0.000000 -0.971056
vn -0.998536 0.000000 0.054099
vn -0.998536 0.000000 0.054099
vn -0.998536 0.000000 0.054099
vn -0.998536 0.000000 0.054099
vn -0.416289 0.908953 0.022554
vn -0.622425 0.781953 0.033722
vn -0.622425 0.781953 0.033722
vn -0.416289 0.908953 0.022554
vn -0.367115 0.000000 0.930175
vn -0.580122 0.000000 0.814530
vn -0.580122 0.000000 0.814530
vn -0.367115 0.000000 0.930175
vn -0.465462 -0.000000 -0.885068
vn -0.664728 0.000000 -0.747086
vn -0.664728 0.000000 -0.747086
vn -0.465462 -0.000000 -0.885068
vn -0.054099 -0.000000 -0.998536
vn -0.054099 -0.000000 -0.998536
vn -0.054099 -0.000000 -0.998536
vn -0.054099 -0.000000 -0.998536
vn 0.999981 -0.000000 0.006239
vn 0.997783 -0.000000 0.066554
vn 0.997783 -0.000000 0.066554
vn 0.999981 -0.000000 0.006239
vn -0.997783 0.000000 -0.066554
vn -0.997783 0.000000 -0.066554
vn -0.997783 0.000000 -0.066554
vn -0.997783 0.000000 -0.066554
vn -0.014155 0.965164 -0.261263
vn -0.027323 0.863083 -0.504323
vn -0.027323 0.863083 -0.504323
vn -0.073554 0.982580 -0.170665
vn 0.494016 0.000000 0.869453
vn 0.494016 0.000000 0.869453
vn 0.494016 0.000000 0.869453
vn 0.494016 0.000000 0.869453
vn 0.035898 -0.991838 0.122343
vn 0.071211 -0.967487 0.242688
vn 0.071211 -0.967487 0.242688
vn -0.038638 -0.995606 0.085300
vn 0.980879 -0.000000 -0.194618
vn 0.943549 -0.000000 -0.331234
vn 0.943549 -0.000000 -0.331234
vn 0.980879 -0.000000 -0.194618
f 1/1/1 2/2/2 3/3/3
f 4/4/4 3/3/3 5/5/5
f 6/6/6 7/7/7 8/8/8
f 6/6/6 8/8/8 9/9/9
f 10/10/10 11/11/11 12/12/12
f 10/10/10 12/12/12 13/13/13
f 14/14/14 15/15/15 16/16/16
f 14/14/14 16/16/16 17/17/17
f 18/18/18 19/19/19 20/20/20
f 18/18/18 20/20/20 21/21/21
f 22/22/22 23/23/23 24/24/24
f 22/22/22 24/24/24 25/25/25
f 26/26/26 27/27/27 28/28/28
f 26/26/26 28/28/28 29/29/29
f 30/30/30 31/31/31 32/32/32
f 30/30/30 32/32/32 33/33/33
f 34/34/34 35/35/35 36/36/36
f 34/34/34 36/36/36 37/37/37
f 38/38/38 39/39/39 40/40/40
f 38/38/38 40/40/40 41/41/41
f 42/42/42 43/43/43 44/44/44
f 42/42/42 44/44/44 45/45/45
f 46/46/46 47/47/47 48/48/48
f 46/46/46 48/48/48 49/49/49
f 50/50/50 51/51/51 52/52/52
f 50/50/50 52/52/52 53/53/53
f 54/54/54 55/55/55 56/56/56
f 54/54/54 56/56/56 57/57/57
f 58/58/58 59/59/59 60/60/60
f 58/58/58 60/60/60 61/61/61
f 62/62/62 63/63/63 64/64/64
f 62/62/62 64/64/64 65/65/65
f 66/66/66 67/67/67 68/68/68
f 66/66/66 68/68/68 69/69/69
f 70/70/70 71/71/71 72/72/72
f 70/70/70 72/72/72 73/73/73
f 74/74/74 75/75/75 76/76/76
f 74/74/74 76/76/76 77/77/77
f 78/78/78 79/79/79 80/80/80
f 78/78/78 80/80/80 81/81/81
f 82/82/82 83/83/83 84/84/84
f 82/82/82 84/84/84 85/85/85
f 86/86/86 87/87/87 88/88/88
f 86/86/86 88/88/88 89/89/89
f 90/90/90 91/91/91 92/92/92
f 90/90/90 92/92/92 93/93/93
f 94/94/94 95/95/95 96/96/96
f 94/94/94 96/96/96 97/97/97
f 98/98/98 99/99/99 100/100/100
f 98/98/98 100/100/100 101/101/101
f 102/102/102 103/103/103 104/104/104
f 102/102/102 104/104/104 105/105/105
f 106/106/106 107/107/107 108/108/108
f 106/106/106 108/108/108 109/109/109
f 110/110/110 111/111/111 112/112/112
f 110/110/110 112/112/112 113/113/113
f 114/114/114 115/115/115 116/116/116
f 114/114/114 116/116/116 117/117/117
f 118/118/118 119/119/119 120/120/120
f 118/118/118 120/120/120 121/121/121
