# ducky_vest (gear rip -> Godot: Z negated + winding reversed)
v 0.109906 0.188733 -0.122762
v -0.110922 0.188733 -0.122762
v -0.093692 0.201344 -0.231999
v -0.093692 0.201344 -0.231999
v 0.092676 0.201344 -0.231999
v -0.092102 0.336585 -0.020763
v 0.091085 0.336585 -0.020763
v 0.109906 0.363597 -0.122762
v -0.092102 0.336585 -0.020763
v -0.110922 0.363597 -0.122762
v 0.456258 0.031901 0.011227
v 0.455092 0.045221 -0.133373
v 0.445309 0.157045 -0.077632
v 0.446023 0.148884 0.010962
v 0.446023 0.148884 0.010962
v 0.445309 0.157045 -0.077632
v 0.373583 0.150770 -0.077632
v 0.374297 0.142609 0.010962
v 0.374297 0.142609 0.010962
v 0.373583 0.150770 -0.077632
v 0.383366 0.038946 -0.133373
v 0.384531 0.025626 0.011227
v 0.464867 -0.066504 -0.121406
v 0.465668 -0.075667 -0.021946
v 0.474873 -0.180874 -0.080741
v 0.474435 -0.175870 -0.135062
v 0.446023 0.148884 0.010962
v 0.374297 0.142609 0.010962
v 0.384531 0.025626 0.011227
v 0.456258 0.031901 0.011227
v 0.373583 0.150770 -0.077632
v 0.445309 0.157045 -0.077632
v 0.455092 0.045221 -0.133373
v 0.383366 0.038946 -0.133373
v 0.403147 -0.187149 -0.080741
v 0.402709 -0.182145 -0.135062
v 0.474435 -0.175870 -0.135062
v 0.474873 -0.180874 -0.080741
v 0.465668 -0.075667 -0.021946
v 0.393942 -0.081942 -0.021946
v 0.403147 -0.187149 -0.080741
v 0.474873 -0.180874 -0.080741
v 0.393141 -0.072780 -0.121406
v 0.464867 -0.066504 -0.121406
v 0.474435 -0.175870 -0.135062
v 0.402709 -0.182145 -0.135062
v 0.393942 -0.081942 -0.021946
v 0.393141 -0.072780 -0.121406
v 0.402709 -0.182145 -0.135062
v 0.403147 -0.187149 -0.080741
v 0.384531 0.025626 0.011227
v 0.383366 0.038946 -0.133373
v 0.393141 -0.072780 -0.121406
v 0.393942 -0.081942 -0.021946
v 0.383366 0.038946 -0.133373
v 0.455092 0.045221 -0.133373
v 0.464867 -0.066504 -0.121406
v 0.393141 -0.072780 -0.121406
v 0.456258 0.031901 0.011227
v 0.384531 0.025626 0.011227
v 0.393942 -0.081942 -0.021946
v 0.465668 -0.075667 -0.021946
v 0.455092 0.045221 -0.133373
v 0.456258 0.031901 0.011227
v 0.465668 -0.075667 -0.021946
v 0.464867 -0.066504 -0.121406
v -0.456258 0.031901 0.011227
v -0.446023 0.148884 0.010962
v -0.445309 0.157045 -0.077632
v -0.455092 0.045221 -0.133373
v -0.446023 0.148884 0.010962
v -0.374297 0.142609 0.010962
v -0.373583 0.150770 -0.077632
v -0.445309 0.157045 -0.077632
v -0.374297 0.142609 0.010962
v -0.384531 0.025626 0.011227
v -0.383366 0.038946 -0.133373
v -0.373583 0.150770 -0.077632
v -0.464867 -0.066504 -0.121406
v -0.474435 -0.175870 -0.135062
v -0.474873 -0.180874 -0.080741
v -0.465668 -0.075667 -0.021946
v -0.446023 0.148884 0.010962
v -0.456258 0.031901 0.011227
v -0.384531 0.025626 0.011227
v -0.374297 0.142609 0.010962
v -0.373583 0.150770 -0.077632
v -0.383366 0.038946 -0.133373
v -0.455092 0.045221 -0.133373
v -0.445309 0.157045 -0.077632
v -0.403147 -0.187149 -0.080741
v -0.474873 -0.180874 -0.080741
v -0.474435 -0.175870 -0.135062
v -0.402709 -0.182145 -0.135062
v -0.465668 -0.075667 -0.021946
v -0.474873 -0.180874 -0.080741
v -0.403147 -0.187149 -0.080741
v -0.393942 -0.081942 -0.021946
v -0.393141 -0.072780 -0.121406
v -0.402709 -0.182145 -0.135062
v -0.474435 -0.175870 -0.135062
v -0.464867 -0.066504 -0.121406
v -0.393942 -0.081942 -0.021946
v -0.403147 -0.187149 -0.080741
v -0.402709 -0.182145 -0.135062
v -0.393141 -0.072780 -0.121406
v -0.384531 0.025626 0.011227
v -0.393942 -0.081942 -0.021946
v -0.393141 -0.072780 -0.121406
v -0.383366 0.038946 -0.133373
v -0.383366 0.038946 -0.133373
v -0.393141 -0.072780 -0.121406
v -0.464867 -0.066504 -0.121406
v -0.455092 0.045221 -0.133373
v -0.456258 0.031901 0.011227
v -0.465668 -0.075667 -0.021946
v -0.393942 -0.081942 -0.021946
v -0.384531 0.025626 0.011227
v -0.455092 0.045221 -0.133373
v -0.464867 -0.066504 -0.121406
v -0.465668 -0.075667 -0.021946
v -0.456258 0.031901 0.011227
v -0.424453 -0.245538 0.099912
v -0.424453 0.228915 0.099912
v -0.424453 0.228915 -0.099912
v -0.424453 -0.245538 -0.099912
v -0.424453 0.228915 0.099912
v 0.424453 0.228915 0.099912
v 0.424453 0.228915 -0.099912
v -0.424453 0.228915 -0.099912
v 0.424453 0.228915 0.099912
v 0.424453 -0.245538 0.099912
v 0.424453 -0.245538 -0.099912
v 0.424453 0.228915 -0.099912
v 0.424453 -0.245538 0.099912
v -0.424453 -0.245538 0.099912
v -0.424453 -0.245538 -0.099912
v 0.424453 -0.245538 -0.099912
v -0.424453 -0.245538 -0.099912
v -0.324453 -0.145538 -0.099912
v 0.324453 -0.145538 -0.099912
v 0.424453 -0.245538 -0.099912
v -0.424453 0.228915 -0.099912
v -0.324453 0.128915 -0.099912
v -0.324453 -0.145538 -0.099912
v -0.424453 -0.245538 -0.099912
v 0.324453 -0.145538 0.099912
v 0.324453 -0.145538 -0.099912
v -0.324453 -0.145538 -0.099912
v -0.324453 -0.145538 0.099912
v -0.424453 -0.245538 0.099912
v -0.324453 -0.145538 0.099912
v -0.324453 0.128915 0.099912
v -0.424453 0.228915 0.099912
v 0.424453 0.228915 0.099912
v 0.324453 0.128915 0.099912
v 0.324453 -0.145538 0.099912
v 0.424453 -0.245538 0.099912
v 0.424453 0.228915 -0.099912
v 0.324453 0.128915 -0.099912
v -0.324453 0.128915 -0.099912
v -0.424453 0.228915 -0.099912
v 0.424453 -0.245538 0.099912
v 0.324453 -0.145538 0.099912
v -0.324453 -0.145538 0.099912
v -0.424453 -0.245538 0.099912
v 0.424453 -0.245538 -0.099912
v 0.324453 -0.145538 -0.099912
v 0.324453 0.128915 -0.099912
v 0.424453 0.228915 -0.099912
v -0.424453 0.228915 0.099912
v -0.324453 0.128915 0.099912
v 0.324453 0.128915 0.099912
v 0.424453 0.228915 0.099912
v 0.324453 0.128915 0.099912
v 0.324453 0.128915 -0.099912
v 0.324453 -0.145538 -0.099912
v 0.324453 -0.145538 0.099912
v -0.324453 0.128915 0.099912
v -0.324453 0.128915 -0.099912
v 0.324453 0.128915 -0.099912
v 0.324453 0.128915 0.099912
v -0.324453 -0.145538 0.099912
v -0.324453 -0.145538 -0.099912
v -0.324453 0.128915 -0.099912
v -0.324453 0.128915 0.099912
v 0.092676 0.337749 -0.231999
v 0.092676 0.201344 -0.231999
v -0.093692 0.201344 -0.231999
v -0.093692 0.337749 -0.231999
v -0.092102 0.336585 -0.020763
v -0.092102 0.202508 -0.020763
v 0.091085 0.202508 -0.020763
v 0.091085 0.336585 -0.020763
v 0.109906 0.363597 -0.122762
v 0.109906 0.188733 -0.122762
v 0.092676 0.201344 -0.231999
v 0.092676 0.337749 -0.231999
v -0.110922 0.363597 -0.122762
v 0.109906 0.363597 -0.122762
v 0.092676 0.337749 -0.231999
v -0.093692 0.337749 -0.231999
v -0.110922 0.188733 -0.122762
v -0.110922 0.363597 -0.122762
v -0.093692 0.337749 -0.231999
v -0.093692 0.201344 -0.231999
v -0.092102 0.202508 -0.020763
v -0.092102 0.336585 -0.020763
v -0.110922 0.363597 -0.122762
v -0.110922 0.188733 -0.122762
v 0.091085 0.336585 -0.020763
v 0.091085 0.202508 -0.020763
v 0.109906 0.188733 -0.122762
v 0.109906 0.363597 -0.122762
v 0.091085 0.202508 -0.020763
v -0.092102 0.202508 -0.020763
v -0.110922 0.188733 -0.122762
v 0.109906 0.188733 -0.122762
v -0.065770 0.319668 -0.072611
v -0.052254 0.455826 -0.098165
v -0.052254 0.455826 -0.114601
v -0.065770 0.319668 -0.139415
v -0.000508 0.466335 -0.098165
v 0.051237 0.455826 -0.098165
v 0.051237 0.455826 -0.114601
v -0.000508 0.466335 -0.114601
v 0.051237 0.455826 -0.098165
v 0.064753 0.319668 -0.072611
v 0.064753 0.319668 -0.139415
v 0.051237 0.455826 -0.114601
v -0.052254 0.455826 -0.114601
v -0.000508 0.466335 -0.114601
v -0.000508 0.319668 -0.161779
v -0.065770 0.319668 -0.139415
v 0.051237 0.455826 -0.114601
v 0.064753 0.319668 -0.139415
v -0.000508 0.319668 -0.161779
v -0.000508 0.466335 -0.114601
v 0.064753 0.319668 -0.072611
v 0.051237 0.455826 -0.098165
v -0.000508 0.319668 -0.050247
v -0.000508 0.466335 -0.098165
v -0.052254 0.455826 -0.098165
v -0.000508 0.466335 -0.098165
v -0.000508 0.466335 -0.114601
v -0.052254 0.455826 -0.114601
v 0.031237 0.345831 -0.205050
v 0.031237 0.353279 -0.175989
v 0.061237 0.353279 -0.175989
v 0.061237 0.345831 -0.205050
v -0.062254 0.345831 -0.205050
v -0.062254 0.353279 -0.175989
v -0.032254 0.353279 -0.175989
v -0.032254 0.345831 -0.205050
v -0.052254 0.455826 -0.098165
v -0.000508 0.319668 -0.050247
v -0.000508 0.466335 -0.098165
v -0.065770 0.319668 -0.072611
vt 0.146374106 0.76025176
vt 0.146374106 0.859826684
vt 0.24594903 0.859826684
vt 0.24594903 0.859826684
vt 0.24594903 0.76025176
vt 0.146374106 0.76025176
vt 0.146374106 0.859826684
vt 0.24594903 0.859826684
vt 0.146374106 0.76025176
vt 0.24594903 0.76025176
vt 0.234688312 0.76795578
vt 0.234688312 0.703303814
vt 0.170036346 0.703303814
vt 0.170036346 0.76795578
vt 0.234688312 0.76795578
vt 0.234688312 0.703303814
vt 0.170036346 0.703303814
vt 0.170036346 0.76795578
vt 0.234688312 0.76795578
vt 0.234688312 0.703303814
vt 0.170036346 0.703303814
vt 0.170036346 0.76795578
vt 0.234688312 0.76795578
vt 0.234688312 0.703303814
vt 0.170036346 0.703303814
vt 0.170036346 0.76795578
vt 0.234688312 0.76795578
vt 0.234688312 0.703303814
vt 0.170036346 0.703303814
vt 0.170036346 0.76795578
vt 0.234688312 0.76795578
vt 0.234688312 0.703303814
vt 0.170036346 0.703303814
vt 0.170036346 0.76795578
vt 0.234688312 0.76795578
vt 0.234688312 0.703303814
vt 0.170036346 0.703303814
vt 0.170036346 0.76795578
vt 0.234688312 0.76795578
vt 0.234688312 0.703303814
vt 0.170036346 0.703303814
vt 0.170036346 0.76795578
vt 0.234688312 0.76795578
vt 0.234688312 0.703303814
vt 0.170036346 0.703303814
vt 0.170036346 0.76795578
vt 0.234688312 0.76795578
vt 0.234688312 0.703303814
vt 0.170036346 0.703303814
vt 0.170036346 0.76795578
vt 0.234688312 0.76795578
vt 0.234688312 0.703303814
vt 0.170036346 0.703303814
vt 0.170036346 0.76795578
vt 0.234688312 0.76795578
vt 0.234688312 0.703303814
vt 0.170036346 0.703303814
vt 0.170036346 0.76795578
vt 0.234688312 0.76795578
vt 0.234688312 0.703303814
vt 0.170036346 0.703303814
vt 0.170036346 0.76795578
vt 0.234688312 0.76795578
vt 0.234688312 0.703303814
vt 0.170036346 0.703303814
vt 0.170036346 0.76795578
vt 0.234688312 0.76795578
vt 0.234688312 0.703303814
vt 0.170036346 0.703303814
vt 0.170036346 0.76795578
vt 0.234688312 0.76795578
vt 0.234688312 0.703303814
vt 0.170036346 0.703303814
vt 0.170036346 0.76795578
vt 0.234688312 0.76795578
vt 0.234688312 0.703303814
vt 0.170036346 0.703303814
vt 0.170036346 0.76795578
vt 0.234688312 0.76795578
vt 0.234688312 0.703303814
vt 0.170036346 0.703303814
vt 0.170036346 0.76795578
vt 0.234688312 0.76795578
vt 0.234688312 0.703303814
vt 0.170036346 0.703303814
vt 0.170036346 0.76795578
vt 0.234688312 0.76795578
vt 0.234688312 0.703303814
vt 0.170036346 0.703303814
vt 0.170036346 0.76795578
vt 0.234688312 0.76795578
vt 0.234688312 0.703303814
vt 0.170036346 0.703303814
vt 0.170036346 0.76795578
vt 0.234688312 0.76795578
vt 0.234688312 0.703303814
vt 0.170036346 0.703303814
vt 0.170036346 0.76795578
vt 0.234688312 0.76795578
vt 0.234688312 0.703303814
vt 0.170036346 0.703303814
vt 0.170036346 0.76795578
vt 0.234688312 0.76795578
vt 0.234688312 0.703303814
vt 0.170036346 0.703303814
vt 0.170036346 0.76795578
vt 0.234688312 0.76795578
vt 0.234688312 0.703303814
vt 0.170036346 0.703303814
vt 0.170036346 0.76795578
vt 0.234688312 0.76795578
vt 0.234688312 0.703303814
vt 0.170036346 0.703303814
vt 0.170036346 0.76795578
vt 0.234688312 0.76795578
vt 0.234688312 0.703303814
vt 0.170036346 0.703303814
vt 0.170036346 0.76795578
vt 0.234688312 0.76795578
vt 0.234688312 0.703303814
vt 0.170036346 0.703303814
vt 0.170036346 0.76795578
vt 0.146374106 0.76025176
vt 0.146374106 0.859826684
vt 0.24594903 0.859826684
vt 0.24594903 0.76025176
vt 0.146374106 0.76025176
vt 0.146374106 0.859826684
vt 0.24594903 0.859826684
vt 0.24594903 0.76025176
vt 0.146374106 0.76025176
vt 0.146374106 0.859826684
vt 0.24594903 0.859826684
vt 0.24594903 0.76025176
vt 0.146374106 0.76025176
vt 0.146374106 0.859826684
vt 0.24594903 0.859826684
vt 0.24594903 0.76025176
vt 0.146374106 0.76025176
vt 0.146374106 0.859826684
vt 0.24594903 0.859826684
vt 0.24594903 0.76025176
vt 0.146374106 0.76025176
vt 0.146374106 0.859826684
vt 0.24594903 0.859826684
vt 0.24594903 0.76025176
vt 0.146374106 0.76025176
vt 0.146374106 0.859826684
vt 0.24594903 0.859826684
vt 0.24594903 0.76025176
vt 0.146374106 0.76025176
vt 0.146374106 0.859826684
vt 0.24594903 0.859826684
vt 0.24594903 0.76025176
vt 0.146374106 0.76025176
vt 0.146374106 0.859826684
vt 0.24594903 0.859826684
vt 0.24594903 0.76025176
vt 0.146374106 0.76025176
vt 0.146374106 0.859826684
vt 0.24594903 0.859826684
vt 0.24594903 0.76025176
vt 0.146374106 0.76025176
vt 0.146374106 0.859826684
vt 0.24594903 0.859826684
vt 0.24594903 0.76025176
vt 0.146374106 0.76025176
vt 0.146374106 0.859826684
vt 0.24594903 0.859826684
vt 0.24594903 0.76025176
vt 0.146374106 0.76025176
vt 0.146374106 0.859826684
vt 0.24594903 0.859826684
vt 0.24594903 0.76025176
vt 0.146374106 0.76025176
vt 0.146374106 0.859826684
vt 0.24594903 0.859826684
vt 0.24594903 0.76025176
vt 0.146374106 0.76025176
vt 0.146374106 0.859826684
vt 0.24594903 0.859826684
vt 0.24594903 0.76025176
vt 0.146374106 0.76025176
vt 0.146374106 0.859826684
vt 0.24594903 0.859826684
vt 0.24594903 0.76025176
vt 0.146374106 0.76025176
vt 0.146374106 0.859826684
vt 0.24594903 0.859826684
vt 0.24594903 0.76025176
vt 0.146374106 0.76025176
vt 0.146374106 0.859826684
vt 0.24594903 0.859826684
vt 0.24594903 0.76025176
vt 0.146374106 0.76025176
vt 0.146374106 0.859826684
vt 0.24594903 0.859826684
vt 0.24594903 0.76025176
vt 0.146374106 0.76025176
vt 0.146374106 0.859826684
vt 0.24594903 0.859826684
vt 0.24594903 0.76025176
vt 0.146374106 0.76025176
vt 0.146374106 0.859826684
vt 0.24594903 0.859826684
vt 0.24594903 0.76025176
vt 0.146374106 0.76025176
vt 0.146374106 0.859826684
vt 0.24594903 0.859826684
vt 0.24594903 0.76025176
vt 0.146374106 0.76025176
vt 0.146374106 0.859826684
vt 0.24594903 0.859826684
vt 0.24594903 0.76025176
vt 0.146374106 0.76025176
vt 0.146374106 0.859826684
vt 0.24594903 0.859826684
vt 0.24594903 0.76025176
vt 0.152574897 0.18977958
vt 0.152574897 0.289354503
vt 0.25214982 0.289354503
vt 0.25214982 0.18977958
vt 0.152574897 0.18977958
vt 0.152574897 0.289354503
vt 0.25214982 0.289354503
vt 0.25214982 0.18977958
vt 0.152574897 0.18977958
vt 0.152574897 0.289354503
vt 0.25214982 0.289354503
vt 0.25214982 0.18977958
vt 0.25214982 0.18977958
vt 0.152574897 0.18977958
vt 0.152574897 0.289354503
vt 0.25214982 0.289354503
vt 0.152574897 0.18977958
vt 0.152574897 0.289354503
vt 0.25214982 0.289354503
vt 0.25214982 0.18977958
vt 0.25214982 0.289354503
vt 0.25214982 0.18977958
vt 0.152574897 0.289354503
vt 0.152574897 0.18977958
vt 0.152574897 0.18977958
vt 0.152574897 0.289354503
vt 0.25214982 0.289354503
vt 0.25214982 0.18977958
vt 0.69825387 0.115380108
vt 0.69825387 0.165147662
vt 0.748021424 0.165147662
vt 0.748021424 0.115380108
vt 0.69825387 0.214935124
vt 0.748021424 0.214935124
vt 0.748021424 0.16516757
vt 0.69825387 0.16516757
vt 0.152574897 0.18977958
vt 0.25214982 0.289354503
vt 0.25214982 0.18977958
vt 0.152574897 0.289354503
vn -0.000000 -0.999954 0.009651
vn -0.000000 -0.999954 0.009651
vn -0.000000 -0.993402 -0.114683
vn -0.000000 -0.993402 -0.114683
vn -0.000000 -0.993402 -0.114683
vn -0.000000 0.966677 0.255997
vn -0.000000 0.966677 0.255997
vn -0.000000 0.999912 0.013267
vn -0.000000 0.966677 0.255997
vn -0.000000 0.999912 0.013267
vn 0.996195 0.087156 -0.000000
vn 0.996195 0.087156 -0.000000
vn 0.996195 0.087156 -0.000000
vn 0.996195 0.087156 -0.000000
vn -0.086786 0.991962 0.092079
vn -0.086786 0.991962 0.092079
vn -0.086786 0.991962 0.092079
vn -0.086786 0.991962 0.092079
vn -0.996195 -0.087156 -0.000000
vn -0.996195 -0.087156 -0.000000
vn -0.996195 -0.087156 -0.000000
vn -0.996195 -0.087156 -0.000000
vn 0.996195 0.087156 -0.000000
vn 0.996195 0.087156 -0.000000
vn 0.996195 0.087156 -0.000000
vn 0.996195 0.087156 -0.000000
vn -0.000000 0.002248 0.999997
vn -0.000000 0.002248 0.999997
vn 0.012943 -0.146801 0.989081
vn 0.012943 -0.146801 0.989081
vn -0.038763 0.443066 -0.895651
vn -0.038763 0.443066 -0.895651
vn -0.015372 0.175704 -0.984323
vn -0.015372 0.175704 -0.984323
vn 0.086786 -0.991962 -0.092079
vn 0.086786 -0.991962 -0.092079
vn 0.086786 -0.991962 -0.092079
vn 0.086786 -0.991962 -0.092079
vn 0.034183 -0.390711 0.919878
vn 0.034183 -0.390711 0.919878
vn 0.042395 -0.484575 0.873722
vn 0.042395 -0.484575 0.873722
vn -0.000761 0.008697 -0.999962
vn -0.000761 0.008697 -0.999962
vn -0.010759 0.122974 -0.992352
vn -0.010759 0.122974 -0.992352
vn -0.996195 -0.087156 -0.000000
vn -0.996195 -0.087156 -0.000000
vn -0.996195 -0.087156 -0.000000
vn -0.996195 -0.087156 -0.000000
vn -0.996195 -0.087156 -0.000000
vn -0.996195 -0.087156 -0.000000
vn -0.996195 -0.087156 -0.000000
vn -0.996195 -0.087156 -0.000000
vn -0.015372 0.175704 -0.984323
vn -0.015372 0.175704 -0.984323
vn -0.000761 0.008697 -0.999962
vn -0.000761 0.008697 -0.999962
vn 0.012943 -0.146801 0.989081
vn 0.012943 -0.146801 0.989081
vn 0.034183 -0.390711 0.919878
vn 0.034183 -0.390711 0.919878
vn 0.996195 0.087156 -0.000000
vn 0.996195 0.087156 -0.000000
vn 0.996195 0.087156 -0.000000
vn 0.996195 0.087156 -0.000000
vn -0.996195 0.087156 -0.000000
vn -0.996195 0.087156 -0.000000
vn -0.996195 0.087156 -0.000000
vn -0.996195 0.087156 -0.000000
vn 0.086786 0.991962 0.092079
vn 0.086786 0.991962 0.092079
vn 0.086786 0.991962 0.092079
vn 0.086786 0.991962 0.092079
vn 0.996195 -0.087156 -0.000000
vn 0.996195 -0.087156 -0.000000
vn 0.996195 -0.087156 -0.000000
vn 0.996195 -0.087156 -0.000000
vn -0.996195 0.087156 -0.000000
vn -0.996195 0.087156 -0.000000
vn -0.996195 0.087156 -0.000000
vn -0.996195 0.087156 -0.000000
vn -0.000000 0.002248 0.999997
vn -0.012943 -0.146801 0.989081
vn -0.012943 -0.146801 0.989081
vn -0.000000 0.002248 0.999997
vn 0.038763 0.443066 -0.895651
vn 0.015372 0.175704 -0.984323
vn 0.015372 0.175704 -0.984323
vn 0.038763 0.443066 -0.895651
vn -0.086786 -0.991962 -0.092079
vn -0.086786 -0.991962 -0.092079
vn -0.086786 -0.991962 -0.092079
vn -0.086786 -0.991962 -0.092079
vn -0.034183 -0.390711 0.919878
vn -0.042395 -0.484575 0.873722
vn -0.042395 -0.484575 0.873722
vn -0.034183 -0.390711 0.919878
vn 0.000761 0.008697 -0.999962
vn 0.010759 0.122974 -0.992352
vn 0.010759 0.122974 -0.992352
vn 0.000761 0.008697 -0.999962
vn 0.996195 -0.087156 -0.000000
vn 0.996195 -0.087156 -0.000000
vn 0.996195 -0.087156 -0.000000
vn 0.996195 -0.087156 -0.000000
vn 0.996195 -0.087156 -0.000000
vn 0.996195 -0.087156 -0.000000
vn 0.996195 -0.087156 -0.000000
vn 0.996195 -0.087156 -0.000000
vn 0.015372 0.175704 -0.984323
vn 0.000761 0.008697 -0.999962
vn 0.000761 0.008697 -0.999962
vn 0.015372 0.175704 -0.984323
vn -0.012943 -0.146801 0.989081
vn -0.034183 -0.390711 0.919878
vn -0.034183 -0.390711 0.919878
vn -0.012943 -0.146801 0.989081
vn -0.996195 0.087156 -0.000000
vn -0.996195 0.087156 -0.000000
vn -0.996195 0.087156 -0.000000
vn -0.996195 0.087156 -0.000000
vn -1.000000 0.000000 -0.000000
vn -1.000000 0.000000 -0.000000
vn -1.000000 0.000000 -0.000000
vn -1.000000 0.000000 -0.000000
vn -0.000000 1.000000 -0.000000
vn -0.000000 1.000000 -0.000000
vn -0.000000 1.000000 -0.000000
vn -0.000000 1.000000 -0.000000
vn 1.000000 0.000000 -0.000000
vn 1.000000 0.000000 -0.000000
vn 1.000000 0.000000 -0.000000
vn 1.000000 0.000000 -0.000000
vn -0.000000 -1.000000 -0.000000
vn -0.000000 -1.000000 -0.000000
vn -0.000000 -1.000000 -0.000000
vn -0.000000 -1.000000 -0.000000
vn -0.000000 0.000000 -1.000000
vn -0.000000 0.000000 -1.000000
vn -0.000000 0.000000 -1.000000
vn -0.000000 0.000000 -1.000000
vn -0.000000 0.000000 -1.000000
vn -0.000000 0.000000 -1.000000
vn -0.000000 0.000000 -1.000000
vn -0.000000 0.000000 -1.000000
vn -0.000000 1.000000 -0.000000
vn -0.000000 1.000000 -0.000000
vn -0.000000 1.000000 -0.000000
vn -0.000000 1.000000 -0.000000
vn -0.000000 0.000000 1.000000
vn -0.000000 0.000000 1.000000
vn -0.000000 0.000000 1.000000
vn -0.000000 0.000000 1.000000
vn -0.000000 0.000000 1.000000
vn -0.000000 0.000000 1.000000
vn -0.000000 0.000000 1.000000
vn -0.000000 0.000000 1.000000
vn -0.000000 0.000000 -1.000000
vn -0.000000 0.000000 -1.000000
vn -0.000000 0.000000 -1.000000
vn -0.000000 0.000000 -1.000000
vn -0.000000 0.000000 1.000000
vn -0.000000 0.000000 1.000000
vn -0.000000 0.000000 1.000000
vn -0.000000 0.000000 1.000000
vn -0.000000 0.000000 -1.000000
vn -0.000000 0.000000 -1.000000
vn -0.000000 0.000000 -1.000000
vn -0.000000 0.000000 -1.000000
vn -0.000000 0.000000 1.000000
vn -0.000000 0.000000 1.000000
vn -0.000000 0.000000 1.000000
vn -0.000000 0.000000 1.000000
vn -1.000000 0.000000 -0.000000
vn -1.000000 0.000000 -0.000000
vn -1.000000 0.000000 -0.000000
vn -1.000000 0.000000 -0.000000
vn -0.000000 -1.000000 -0.000000
vn -0.000000 -1.000000 -0.000000
vn -0.000000 -1.000000 -0.000000
vn -0.000000 -1.000000 -0.000000
vn 1.000000 0.000000 -0.000000
vn 1.000000 0.000000 -0.000000
vn 1.000000 0.000000 -0.000000
vn 1.000000 0.000000 -0.000000
vn -0.000000 0.000000 -1.000000
vn -0.000000 0.000000 -1.000000
vn -0.000000 0.000000 -1.000000
vn -0.000000 0.000000 -1.000000
vn -0.000000 0.000000 1.000000
vn -0.000000 0.000000 1.000000
vn -0.000000 0.000000 1.000000
vn -0.000000 0.000000 1.000000
vn 0.999915 0.000000 0.013012
vn 0.999915 0.000000 0.013012
vn 0.987788 0.000000 -0.155804
vn 0.987788 0.000000 -0.155804
vn -0.000000 0.999912 0.013267
vn -0.000000 0.999912 0.013267
vn -0.000000 0.973129 -0.230260
vn -0.000000 0.973129 -0.230260
vn -0.999915 0.000000 0.013012
vn -0.999915 0.000000 0.013012
vn -0.987788 0.000000 -0.155804
vn -0.987788 0.000000 -0.155804
vn -0.983399 0.000000 0.181455
vn -0.983399 0.000000 0.181455
vn -0.999915 0.000000 0.013012
vn -0.999915 0.000000 0.013012
vn 0.983399 0.000000 0.181455
vn 0.983399 0.000000 0.181455
vn 0.999915 0.000000 0.013012
vn 0.999915 0.000000 0.013012
vn -0.000000 -0.991003 0.133836
vn -0.000000 -0.991003 0.133836
vn -0.000000 -0.999954 0.009651
vn -0.000000 -0.999954 0.009651
vn -0.995109 0.098781 -0.000000
vn -0.995109 0.098781 -0.000000
vn -0.995109 0.098781 -0.000000
vn -0.995109 0.098781 -0.000000
vn -0.000000 1.000000 -0.000000
vn 0.199026 0.979994 -0.000000
vn 0.199026 0.979994 -0.000000
vn -0.000000 1.000000 -0.000000
vn 0.995109 0.098781 -0.000000
vn 0.995109 0.098781 -0.000000
vn 0.995109 0.098781 -0.000000
vn 0.995109 0.098781 -0.000000
vn -0.191686 0.255492 -0.947618
vn -0.000000 0.306212 -0.951963
vn -0.000000 0.260320 -0.965522
vn -0.317600 0.200427 -0.926801
vn 0.191686 0.255492 -0.947618
vn 0.317600 0.200427 -0.926801
vn -0.000000 0.260320 -0.965522
vn -0.000000 0.306212 -0.951963
vn 0.317275 0.205259 0.925854
vn 0.191947 0.260090 0.946314
vn -0.000000 0.265018 0.964244
vn -0.000000 0.310560 0.950554
vn -0.199026 0.979994 -0.000000
vn -0.000000 1.000000 -0.000000
vn -0.000000 1.000000 -0.000000
vn -0.199026 0.979994 -0.000000
vn -0.000000 0.968691 -0.248271
vn -0.000000 0.968691 -0.248271
vn -0.000000 0.968691 -0.248271
vn -0.000000 0.968691 -0.248271
vn -0.000000 0.968691 -0.248271
vn -0.000000 0.968691 -0.248271
vn -0.000000 0.968691 -0.248271
vn -0.000000 0.968691 -0.248271
vn -0.191947 0.260090 0.946314
vn -0.000000 0.265018 0.964244
vn -0.000000 0.310560 0.950554
vn -0.317275 0.205259 0.925854
f 1/1/1 2/2/2 3/3/3
f 1/1/1 4/4/4 5/5/5
f 6/6/6 7/7/7 8/8/8
f 9/9/9 8/8/8 10/10/10
f 11/11/11 12/12/12 13/13/13
f 11/11/11 13/13/13 14/14/14
f 15/15/15 16/16/16 17/17/17
f 15/15/15 17/17/17 18/18/18
f 19/19/19 20/20/20 21/21/21
f 19/19/19 21/21/21 22/22/22
f 23/23/23 24/24/24 25/25/25
f 23/23/23 25/25/25 26/26/26
f 27/27/27 28/28/28 29/29/29
f 27/27/27 29/29/29 30/30/30
f 31/31/31 32/32/32 33/33/33
f 31/31/31 33/33/33 34/34/34
f 35/35/35 36/36/36 37/37/37
f 35/35/35 37/37/37 38/38/38
f 39/39/39 40/40/40 41/41/41
f 39/39/39 41/41/41 42/42/42
f 43/43/43 44/44/44 45/45/45
f 43/43/43 45/45/45 46/46/46
f 47/47/47 48/48/48 49/49/49
f 47/47/47 49/49/49 50/50/50
f 51/51/51 52/52/52 53/53/53
f 51/51/51 53/53/53 54/54/54
f 55/55/55 56/56/56 57/57/57
f 55/55/55 57/57/57 58/58/58
f 59/59/59 60/60/60 61/61/61
f 59/59/59 61/61/61 62/62/62
f 63/63/63 64/64/64 65/65/65
f 63/63/63 65/65/65 66/66/66
f 67/67/67 68/68/68 69/69/69
f 67/67/67 69/69/69 70/70/70
f 71/71/71 72/72/72 73/73/73
f 71/71/71 73/73/73 74/74/74
f 75/75/75 76/76/76 77/77/77
f 75/75/75 77/77/77 78/78/78
f 79/79/79 80/80/80 81/81/81
f 79/79/79 81/81/81 82/82/82
f 83/83/83 84/84/84 85/85/85
f 83/83/83 85/85/85 86/86/86
f 87/87/87 88/88/88 89/89/89
f 87/87/87 89/89/89 90/90/90
f 91/91/91 92/92/92 93/93/93
f 91/91/91 93/93/93 94/94/94
f 95/95/95 96/96/96 97/97/97
f 95/95/95 97/97/97 98/98/98
f 99/99/99 100/100/100 101/101/101
f 99/99/99 101/101/101 102/102/102
f 103/103/103 104/104/104 105/105/105
f 103/103/103 105/105/105 106/106/106
f 107/107/107 108/108/108 109/109/109
f 107/107/107 109/109/109 110/110/110
f 111/111/111 112/112/112 113/113/113
f 111/111/111 113/113/113 114/114/114
f 115/115/115 116/116/116 117/117/117
f 115/115/115 117/117/117 118/118/118
f 119/119/119 120/120/120 121/121/121
f 119/119/119 121/121/121 122/122/122
f 123/123/123 124/124/124 125/125/125
f 123/123/123 125/125/125 126/126/126
f 127/127/127 128/128/128 129/129/129
f 127/127/127 129/129/129 130/130/130
f 131/131/131 132/132/132 133/133/133
f 131/131/131 133/133/133 134/134/134
f 135/135/135 136/136/136 137/137/137
f 135/135/135 137/137/137 138/138/138
f 139/139/139 140/140/140 141/141/141
f 139/139/139 141/141/141 142/142/142
f 143/143/143 144/144/144 145/145/145
f 143/143/143 145/145/145 146/146/146
f 147/147/147 148/148/148 149/149/149
f 147/147/147 149/149/149 150/150/150
f 151/151/151 152/152/152 153/153/153
f 151/151/151 153/153/153 154/154/154
f 155/155/155 156/156/156 157/157/157
f 155/155/155 157/157/157 158/158/158
f 159/159/159 160/160/160 161/161/161
f 159/159/159 161/161/161 162/162/162
f 163/163/163 164/164/164 165/165/165
f 163/163/163 165/165/165 166/166/166
f 167/167/167 168/168/168 169/169/169
f 167/167/167 169/169/169 170/170/170
f 171/171/171 172/172/172 173/173/173
f 171/171/171 173/173/173 174/174/174
f 175/175/175 176/176/176 177/177/177
f 175/175/175 177/177/177 178/178/178
f 179/179/179 180/180/180 181/181/181
f 179/179/179 181/181/181 182/182/182
f 183/183/183 184/184/184 185/185/185
f 183/183/183 185/185/185 186/186/186
f 187/187/187 188/188/188 189/189/189
f 187/187/187 189/189/189 190/190/190
f 191/191/191 192/192/192 193/193/193
f 191/191/191 193/193/193 194/194/194
f 195/195/195 196/196/196 197/197/197
f 195/195/195 197/197/197 198/198/198
f 199/199/199 200/200/200 201/201/201
f 199/199/199 201/201/201 202/202/202
f 203/203/203 204/204/204 205/205/205
f 203/203/203 205/205/205 206/206/206
f 207/207/207 208/208/208 209/209/209
f 207/207/207 209/209/209 210/210/210
f 211/211/211 212/212/212 213/213/213
f 211/211/211 213/213/213 214/214/214
f 215/215/215 216/216/216 217/217/217
f 215/215/215 217/217/217 218/218/218
f 219/219/219 220/220/220 221/221/221
f 219/219/219 221/221/221 222/222/222
f 223/223/223 224/224/224 225/225/225
f 223/223/223 225/225/225 226/226/226
f 227/227/227 228/228/228 229/229/229
f 227/227/227 229/229/229 230/230/230
f 231/231/231 232/232/232 233/233/233
f 231/231/231 233/233/233 234/234/234
f 235/235/235 236/236/236 237/237/237
f 235/235/235 237/237/237 238/238/238
f 239/239/239 240/240/240 241/241/241
f 241/241/241 240/240/240 242/242/242
f 243/243/243 244/244/244 245/245/245
f 243/243/243 245/245/245 246/246/246
f 247/247/247 248/248/248 249/249/249
f 247/247/247 249/249/249 250/250/250
f 251/251/251 252/252/252 253/253/253
f 251/251/251 253/253/253 254/254/254
f 255/255/255 256/256/256 257/257/257
f 258/258/258 256/256/256 255/255/255
