# ei_acoustic_sash_backpack (gear rip -> Godot: Z negated + winding reversed)
v -0.158839 -0.286801 -0.230252
v -0.158839 -0.286801 -0.186686
v -0.158839 -0.286801 0.098098
v -0.055784 -0.075102 -0.186686
v -0.025192 -0.287364 -0.186686
v -0.176508 -0.132439 -0.186686
v -0.334761 0.224507 -0.186686
v -0.379878 0.098704 -0.186686
v -0.763029 0.397249 -0.186687
v -0.763029 0.263601 -0.186687
v -0.025192 -0.287364 0.098099
v -0.025192 -0.287364 -0.230252
v -0.448325 -0.032230 0.300423
v -0.392799 0.026716 0.324821
v -0.392799 0.026716 0.300423
v -0.448325 -0.032230 0.325283
v -0.447705 -0.052986 0.325283
v -0.445907 -0.113175 0.325186
v -0.445907 -0.113175 0.300423
v -0.386960 -0.168701 0.324899
v -0.386960 -0.168701 0.300423
v -0.306016 -0.166283 0.324681
v -0.306016 -0.166283 0.300423
v -0.250489 -0.107336 0.300423
v -0.250489 -0.107336 0.324868
v -0.252908 -0.026392 0.300423
v -0.250489 -0.107336 0.324868
v -0.250489 -0.107336 0.300423
v -0.252908 -0.026392 0.325080
v -0.311854 0.029135 0.300423
v -0.311854 0.029135 0.325182
v -0.392799 0.026716 0.324821
v -0.392799 0.026716 0.300423
v -0.252908 -0.026392 0.300423
v -0.250489 -0.107336 0.300423
v -0.306016 -0.166283 0.300423
v -0.311854 0.029135 0.300423
v -0.386960 -0.168701 0.300423
v -0.392799 0.026716 0.300423
v -0.445907 -0.113175 0.300423
v -0.448325 -0.032230 0.300423
v -0.008890 -0.057239 0.325277
v 0.052959 -0.164581 0.325273
v 0.005625 -0.296427 0.325273
v -0.096715 -0.406376 0.325273
v -0.092316 -0.004953 0.325279
v -0.180485 0.022793 0.325278
v -0.176105 -0.072147 0.325017
v -0.224834 -0.463027 0.325275
v -0.186848 -0.022357 0.325118
v -0.188613 -0.105598 0.324947
v -0.207157 -0.123135 0.324905
v -0.231238 -0.124552 0.324883
v -0.221044 0.055332 0.325276
v -0.336328 -0.409022 0.325279
v -0.195410 -0.005922 0.325174
v -0.214530 0.023182 0.325179
v -0.237215 0.044089 0.325224
v -0.261639 0.125663 0.325276
v -0.264548 0.062554 0.325211
v -0.304052 0.165141 0.325278
v -0.306066 0.067361 0.325206
v -0.250489 -0.107336 0.324868
v -0.306016 -0.166283 0.324681
v -0.386960 -0.168701 0.324899
v -0.394539 -0.329434 0.325280
v -0.350860 0.185451 0.325281
v -0.341014 0.058789 0.325139
v -0.445907 -0.113175 0.325186
v -0.430510 -0.245358 0.325280
v -0.392799 0.026716 0.324821
v -0.466953 -0.208611 0.325278
v -0.415271 0.151051 0.325001
v -0.442282 0.086561 0.324860
v -0.447705 -0.052986 0.325283
v -0.484496 0.071681 0.324757
v -0.448325 -0.032230 0.325283
v -0.587051 0.046794 0.325291
v -0.539504 0.097875 0.324783
v -0.551187 -0.167674 0.325278
v -0.588742 -0.123690 0.325280
v -0.621717 -0.057423 0.325282
v -0.614498 0.061497 0.174487
v -0.556474 0.123836 0.173885
v -0.556474 0.123836 0.324680
v -0.614498 0.061497 0.325283
v -0.614498 0.061497 0.249885
v -0.653745 -0.056488 0.325283
v -0.653745 -0.056488 0.174487
v -0.615860 -0.132622 0.325283
v -0.615860 -0.132622 0.174487
v -0.573343 -0.182417 0.325283
v -0.573343 -0.182418 0.174487
v -0.483001 -0.226322 0.325283
v -0.483000 -0.226322 0.174487
v -0.446927 -0.262697 0.325283
v -0.446927 -0.262697 0.174487
v -0.408852 -0.351694 0.325283
v -0.408851 -0.351694 0.174487
v -0.344288 -0.439966 0.325283
v -0.344288 -0.439966 0.174487
v -0.218052 -0.501112 0.325283
v -0.218052 -0.501112 0.174487
v -0.074395 -0.437589 0.325283
v -0.074395 -0.437589 0.174487
v 0.038024 -0.316812 0.325283
v 0.038024 -0.316812 0.174487
v 0.091099 -0.168975 0.325283
v 0.091099 -0.168975 0.174487
v 0.021072 -0.047441 0.325283
v 0.021072 -0.047441 0.174487
v 0.021072 -0.047441 0.249885
v -0.071596 0.010637 0.325283
v -0.071596 0.010637 0.174487
v -0.165116 0.040068 0.325283
v -0.165115 0.040068 0.174487
v -0.205151 0.072186 0.325283
v -0.205151 0.072186 0.174487
v -0.248290 0.146927 0.325283
v -0.248290 0.146926 0.174487
v -0.296218 0.191538 0.325283
v -0.296218 0.191538 0.174487
v -0.352925 0.216143 0.325283
v -0.352925 0.216143 0.174487
v -0.429989 0.174986 0.324982
v -0.429989 0.174986 0.174186
v -0.458453 0.107025 0.324831
v -0.458453 0.107025 0.174035
v -0.494493 0.094322 0.324680
v -0.494493 0.094322 0.173885
v -0.556474 0.123836 0.173885
v -0.556474 0.123836 0.324680
v -0.074395 -0.437589 0.174487
v -0.344288 -0.439966 0.174487
v -0.218052 -0.501112 0.174487
v -0.408851 -0.351694 0.174487
v -0.165115 0.040068 0.174487
v -0.446927 -0.262697 0.174487
v 0.038024 -0.316812 0.174487
v -0.071596 0.010637 0.174487
v 0.021072 -0.047441 0.174487
v 0.091099 -0.168975 0.174487
v -0.205151 0.072186 0.174487
v -0.483000 -0.226322 0.174487
v -0.458453 0.107025 0.174035
v -0.248290 0.146926 0.174487
v -0.296218 0.191538 0.174487
v -0.429989 0.174986 0.174186
v -0.352925 0.216143 0.174487
v -0.494493 0.094322 0.173885
v -0.573343 -0.182418 0.174487
v -0.615860 -0.132622 0.174487
v -0.614498 0.061497 0.174487
v -0.653745 -0.056488 0.174487
v -0.556474 0.123836 0.173885
v -0.221490 -0.218704 0.337283
v -0.221490 -0.218704 0.325283
v -0.207766 -0.231479 0.325283
v -0.207766 -0.231479 0.337283
v -0.207766 -0.231479 0.337283
v -0.207766 -0.231479 0.325283
v -0.215431 -0.239713 0.325283
v -0.215431 -0.239713 0.337283
v -0.207766 -0.231479 0.325283
v -0.221490 -0.218704 0.325283
v -0.229155 -0.226938 0.325283
v -0.215431 -0.239713 0.325283
v -0.937917 0.448143 0.337282
v -0.221490 -0.218704 0.337283
v -0.229155 -0.226938 0.337283
v -0.945582 0.439908 0.337282
v -1.043846 0.531372 0.314927
v -1.036181 0.539607 0.314927
v -0.208715 -0.204979 0.325283
v -0.194991 -0.217754 0.325283
v -0.194991 -0.217754 0.337283
v -0.208716 -0.204979 0.337283
v -0.194991 -0.217754 0.337283
v -0.194991 -0.217754 0.325283
v -0.202656 -0.225989 0.325283
v -0.202656 -0.225989 0.337283
v -0.208715 -0.204979 0.325283
v -0.216380 -0.213214 0.325283
v -0.202656 -0.225989 0.325283
v -0.194991 -0.217754 0.325283
v -0.195941 -0.191254 0.337283
v -0.195941 -0.191254 0.325283
v -0.182216 -0.204029 0.325283
v -0.182216 -0.204029 0.337283
v -0.182216 -0.204029 0.337283
v -0.182216 -0.204029 0.325283
v -0.189881 -0.212264 0.325283
v -0.189881 -0.212264 0.337283
v -0.182216 -0.204029 0.325283
v -0.195941 -0.191254 0.325283
v -0.203606 -0.199489 0.325283
v -0.189881 -0.212264 0.325283
v -0.912367 0.475592 0.337282
v -0.195941 -0.191254 0.337283
v -0.203606 -0.199489 0.337283
v -0.920032 0.467358 0.337282
v -1.018297 0.558822 0.314928
v -1.010632 0.567056 0.314928
v -0.183166 -0.177530 0.337283
v -0.183166 -0.177530 0.325283
v -0.169441 -0.190305 0.325283
v -0.169441 -0.190305 0.337283
v -0.169441 -0.190305 0.337283
v -0.169441 -0.190305 0.325283
v -0.177106 -0.198539 0.325283
v -0.177106 -0.198539 0.337283
v -0.169441 -0.190305 0.325283
v -0.183166 -0.177530 0.325283
v -0.190831 -0.185764 0.325283
v -0.177106 -0.198539 0.325283
v -0.899593 0.489317 0.337282
v -0.183166 -0.177530 0.337283
v -0.190831 -0.185764 0.337283
v -0.907258 0.481082 0.337282
v -1.005522 0.572546 0.314928
v -0.997857 0.580781 0.314928
v -0.221490 -0.218704 0.337283
v -0.207766 -0.231479 0.337283
v -0.215431 -0.239713 0.337283
v -0.229155 -0.226938 0.337283
v -0.215431 -0.239713 0.337283
v -0.215431 -0.239713 0.325283
v -0.229155 -0.226938 0.325283
v -0.229155 -0.226938 0.337283
v -0.208716 -0.204979 0.337283
v -0.216380 -0.213214 0.337283
v -0.932807 0.453633 0.337282
v -0.925142 0.461868 0.337282
v -1.031071 0.545097 0.314927
v -1.023407 0.553332 0.314928
v -0.202656 -0.225989 0.325283
v -0.216380 -0.213214 0.325283
v -0.216380 -0.213214 0.337283
v -0.202656 -0.225989 0.337283
v -0.194991 -0.217754 0.337283
v -0.202656 -0.225989 0.337283
v -0.216380 -0.213214 0.337283
v -0.208716 -0.204979 0.337283
v -0.195941 -0.191254 0.337283
v -0.182216 -0.204029 0.337283
v -0.189881 -0.212264 0.337283
v -0.203606 -0.199489 0.337283
v -0.189881 -0.212264 0.337283
v -0.189881 -0.212264 0.325283
v -0.203606 -0.199489 0.325283
v -0.203606 -0.199489 0.337283
v -0.183166 -0.177530 0.337283
v -0.169441 -0.190305 0.337283
v -0.177106 -0.198539 0.337283
v -0.190831 -0.185764 0.337283
v -0.177106 -0.198539 0.337283
v -0.177106 -0.198539 0.325283
v -0.190831 -0.185764 0.325283
v -0.190831 -0.185764 0.337283
v -0.221490 -0.218704 0.325283
v -0.221490 -0.218704 0.337283
v -0.229155 -0.226938 0.337283
v -0.229155 -0.226938 0.325283
v -0.208716 -0.204979 0.337283
v -0.216380 -0.213214 0.337283
v -0.216380 -0.213214 0.325283
v -0.208715 -0.204979 0.325283
v -0.195941 -0.191254 0.325283
v -0.195941 -0.191254 0.337283
v -0.203606 -0.199489 0.337283
v -0.203606 -0.199489 0.325283
v -0.183166 -0.177530 0.325283
v -0.183166 -0.177530 0.337283
v -0.190831 -0.185764 0.337283
v -0.190831 -0.185764 0.325283
v -0.894947 0.550701 0.315854
v -0.891373 0.547374 0.286316
v -0.871103 0.528507 0.291524
v -0.874678 0.531833 0.321062
v -0.982632 0.408687 0.291524
v -1.002901 0.427554 0.286316
v -1.006476 0.430880 0.315854
v -0.986206 0.412013 0.321062
v -0.984170 0.454844 0.315854
v -0.963900 0.435977 0.321062
v -0.986206 0.412013 0.321062
v -1.006476 0.430880 0.315854
v -0.927867 0.581342 0.276939
v -0.907597 0.562475 0.282147
v -0.911171 0.565802 0.311685
v -0.931441 0.584669 0.306477
v -1.019125 0.442655 0.282147
v -1.039395 0.461522 0.276939
v -1.042969 0.464848 0.306477
v -1.022699 0.445981 0.311685
v -1.020663 0.488812 0.306477
v -1.000394 0.469945 0.311685
v -1.022699 0.445981 0.311685
v -1.042969 0.464848 0.306477
v -0.964360 0.615310 0.267562
v -0.944091 0.596443 0.272770
v -0.947665 0.599770 0.302308
v -0.967935 0.618637 0.297100
v -1.059193 0.479949 0.302308
v -1.055619 0.476622 0.272770
v -1.075889 0.495490 0.267562
v -1.079463 0.498816 0.297100
v -1.057157 0.522781 0.297100
v -1.036887 0.503913 0.302308
v -1.059193 0.479949 0.302308
v -1.079463 0.498816 0.297100
v -0.931441 0.584669 0.306477
v -0.911171 0.565802 0.311685
v -0.933477 0.541838 0.311685
v -0.953747 0.560705 0.306477
v -0.911171 0.565802 0.311685
v -0.907597 0.562475 0.282147
v -0.929903 0.538511 0.282147
v -0.933477 0.541838 0.311685
v -0.996820 0.466619 0.282147
v -1.000394 0.469945 0.311685
v -1.019125 0.442655 0.282147
v -1.022699 0.445981 0.311685
v -1.042969 0.464848 0.306477
v -1.039395 0.461522 0.276939
v -1.017089 0.485486 0.276939
v -1.020663 0.488812 0.306477
v -0.950172 0.557378 0.276939
v -0.953747 0.560705 0.306477
v -0.927867 0.581342 0.276939
v -0.931441 0.584669 0.306477
v -0.933477 0.541838 0.311685
v -0.935394 0.543622 0.331216
v -0.955663 0.562489 0.326007
v -0.953747 0.560705 0.306477
v -0.955663 0.562489 0.326007
v -0.935394 0.543622 0.331216
v -1.002310 0.471730 0.331216
v -1.022580 0.490597 0.326007
v -1.000394 0.469945 0.311685
v -1.020663 0.488812 0.306477
v -1.022580 0.490597 0.326007
v -1.002310 0.471730 0.331216
v -0.933477 0.541838 0.311685
v -1.000394 0.469945 0.311685
v -1.002310 0.471730 0.331216
v -0.935394 0.543622 0.331216
v -1.020663 0.488812 0.306477
v -0.953747 0.560705 0.306477
v -0.955663 0.562489 0.326007
v -1.022580 0.490597 0.326007
v -0.894947 0.550701 0.315854
v -0.874678 0.531833 0.321062
v -0.896983 0.507869 0.321062
v -0.917253 0.526737 0.315854
v -0.871103 0.528507 0.291524
v -0.891373 0.547374 0.286316
v -0.913679 0.523410 0.286316
v -0.893409 0.504543 0.291524
v -0.980596 0.451518 0.286316
v -0.960326 0.432651 0.291524
v -1.002901 0.427554 0.286316
v -0.982632 0.408687 0.291524
v -0.874678 0.531833 0.321062
v -0.871103 0.528507 0.291524
v -0.893409 0.504543 0.291524
v -0.896983 0.507869 0.321062
v -0.960326 0.432651 0.291524
v -0.963900 0.435977 0.321062
v -0.982632 0.408687 0.291524
v -0.986206 0.412013 0.321062
v -1.006476 0.430880 0.315854
v -1.002901 0.427554 0.286316
v -0.980596 0.451518 0.286316
v -0.984170 0.454844 0.315854
v -0.913679 0.523410 0.286316
v -0.917253 0.526737 0.315854
v -0.891373 0.547374 0.286316
v -0.894947 0.550701 0.315854
v -0.963900 0.435977 0.321062
v -0.984170 0.454844 0.315854
v -0.986077 0.456619 0.335299
v -0.965807 0.437752 0.340507
v -0.967935 0.618637 0.297100
v -0.947665 0.599770 0.302308
v -0.969970 0.575806 0.302308
v -0.990240 0.594673 0.297100
v -0.944091 0.596443 0.272770
v -0.964360 0.615310 0.267562
v -0.986666 0.591346 0.267562
v -0.966396 0.572479 0.272770
v -1.053583 0.519454 0.267562
v -1.033313 0.500587 0.272770
v -1.075889 0.495490 0.267562
v -1.055619 0.476622 0.272770
v -0.947665 0.599770 0.302308
v -0.944091 0.596443 0.272770
v -0.966396 0.572479 0.272770
v -0.969970 0.575806 0.302308
v -1.033313 0.500587 0.272770
v -1.036887 0.503913 0.302308
v -1.055619 0.476622 0.272770
v -1.059193 0.479949 0.302308
v -1.079463 0.498816 0.297100
v -1.075889 0.495490 0.267562
v -1.053583 0.519454 0.267562
v -1.057157 0.522781 0.297100
v -0.986666 0.591346 0.267562
v -0.990240 0.594673 0.297100
v -0.964360 0.615310 0.267562
v -0.967935 0.618637 0.297100
v -0.896983 0.507869 0.321062
v -0.898890 0.509644 0.340507
v -0.919160 0.528511 0.335299
v -0.917253 0.526737 0.315854
v -0.919160 0.528511 0.335299
v -0.898890 0.509644 0.340507
v -0.965807 0.437752 0.340507
v -0.986077 0.456619 0.335299
v -0.992147 0.596447 0.316545
v -0.971877 0.577580 0.321753
v -1.038794 0.505688 0.321753
v -1.059064 0.524555 0.316545
v -0.969970 0.575806 0.302308
v -0.971877 0.577580 0.321753
v -0.992147 0.596447 0.316545
v -0.990240 0.594673 0.297100
v -0.896983 0.507869 0.321062
v -0.963900 0.435977 0.321062
v -0.965807 0.437752 0.340507
v -0.898890 0.509644 0.340507
v -1.036887 0.503913 0.302308
v -1.057157 0.522781 0.297100
v -1.059064 0.524555 0.316545
v -1.038794 0.505688 0.321753
v -0.969970 0.575806 0.302308
v -1.036887 0.503913 0.302308
v -1.038794 0.505688 0.321753
v -0.971877 0.577580 0.321753
v -0.984170 0.454844 0.315854
v -0.917253 0.526737 0.315854
v -0.919160 0.528511 0.335299
v -0.986077 0.456619 0.335299
v -1.057157 0.522781 0.297100
v -0.990240 0.594673 0.297100
v -0.992147 0.596447 0.316545
v -1.059064 0.524555 0.316545
v -0.145178 -0.182199 0.331949
v -0.145178 -0.182199 0.289283
v -0.221778 -0.264495 0.289283
v -0.221778 -0.264495 0.331949
v -0.262952 -0.226170 0.289283
v -0.186351 -0.143875 0.289283
v -0.186351 -0.143875 0.331949
v -0.262952 -0.226170 0.331949
v -0.186351 -0.143875 0.331949
v -0.145178 -0.182199 0.331949
v -0.221778 -0.264495 0.331949
v -0.262952 -0.226170 0.331949
v -0.186351 -0.143875 0.289283
v -0.145178 -0.182199 0.289283
v -0.145178 -0.182199 0.331949
v -0.186351 -0.143875 0.331949
v -0.262952 -0.226170 0.331949
v -0.221778 -0.264495 0.331949
v -0.221778 -0.264495 0.289283
v -0.262952 -0.226170 0.289283
v -0.262952 -0.226170 0.289283
v -0.221778 -0.264495 0.289283
v -0.145178 -0.182199 0.289283
v -0.186351 -0.143875 0.289283
v -0.416797 -0.006175 0.289283
v -0.442322 -0.033598 0.289283
v -0.442322 -0.033598 0.331949
v -0.416797 -0.006175 0.331949
v -0.391271 0.021248 0.289283
v -0.391271 0.021248 0.331949
v -0.983934 0.612454 0.265115
v -0.982744 0.611346 0.252337
v -0.873485 0.509535 0.276838
v -0.874057 0.510067 0.289616
v -0.987879 0.616126 0.307392
v -0.878001 0.513738 0.331893
v -0.836924 0.457573 0.331948
v -0.836924 0.457573 0.289282
v -0.836971 0.457617 0.276504
v -1.063423 0.526589 0.265185
v -1.067368 0.530260 0.307462
v -1.079607 0.517578 0.307392
v -1.075662 0.513906 0.265115
v -1.062233 0.525481 0.252407
v -1.074472 0.512798 0.252337
v -0.847653 0.446046 0.289282
v -0.847653 0.446046 0.331948
v -0.836924 0.457573 0.331948
v -0.836924 0.457573 0.289282
v -0.836971 0.457617 0.276504
v -0.847700 0.446090 0.276504
v -0.957665 0.428150 0.331893
v -0.898704 0.391200 0.331948
v -0.909433 0.379673 0.331948
v -0.968394 0.416624 0.331893
v -1.067368 0.530260 0.307462
v -1.079607 0.517578 0.307392
v -0.999653 0.603010 0.307462
v -0.987879 0.616126 0.307392
v -0.878001 0.513738 0.331893
v -0.888730 0.502211 0.331893
v -0.836924 0.457573 0.331948
v -0.847653 0.446046 0.331948
v -0.909433 0.379673 0.289282
v -0.909480 0.379717 0.276504
v -0.963879 0.412420 0.276838
v -0.964450 0.412952 0.289616
v -0.909433 0.379673 0.331948
v -0.968394 0.416624 0.331893
v -1.079607 0.517578 0.307392
v -1.075662 0.513906 0.265115
v -1.074472 0.512798 0.252337
v -0.873179 0.418623 0.289282
v -0.847653 0.446046 0.289282
v -0.847700 0.446090 0.276504
v -0.873226 0.418667 0.276504
v -0.898704 0.391200 0.289282
v -0.898751 0.391244 0.276504
v -0.884214 0.498008 0.276838
v -0.847700 0.446090 0.276504
v -0.836971 0.457617 0.276504
v -0.873485 0.509535 0.276838
v -0.994518 0.598231 0.252407
v -0.982744 0.611346 0.252337
v -1.062233 0.525481 0.252407
v -1.074472 0.512798 0.252337
v -0.963879 0.412420 0.276838
v -0.953150 0.423947 0.276838
v -0.909480 0.379717 0.276504
v -0.898751 0.391244 0.276504
v -0.836798 0.435942 0.331948
v -0.391271 0.021248 0.331949
v -0.416797 -0.006175 0.331949
v -0.862323 0.408519 0.331948
v -0.847653 0.446046 0.331948
v -0.442322 -0.033598 0.331949
v -0.873179 0.418623 0.331948
v -0.887849 0.381096 0.331948
v -0.898704 0.391200 0.331948
v -0.887848 0.381096 0.289282
v -0.442322 -0.033598 0.289283
v -0.416797 -0.006175 0.289283
v -0.862323 0.408519 0.289282
v -0.898704 0.391200 0.289282
v -0.391271 0.021248 0.289283
v -0.873179 0.418623 0.289282
v -0.836798 0.435942 0.289282
v -0.847653 0.446046 0.289282
v -0.442322 -0.033598 0.331949
v -0.442322 -0.033598 0.289283
v -0.887848 0.381096 0.289282
v -0.887849 0.381096 0.331948
v -0.898704 0.391200 0.289282
v -0.898704 0.391200 0.331948
v -0.836798 0.435942 0.331948
v -0.847653 0.446046 0.331948
v -0.847653 0.446046 0.289282
v -0.836798 0.435942 0.289282
v -0.391271 0.021248 0.331949
v -0.391271 0.021248 0.289283
v -0.186848 -0.022357 0.325118
v -0.176105 -0.072147 0.325017
v -0.188613 -0.105598 0.324947
v -0.195410 -0.005922 0.325174
v -0.207157 -0.123135 0.324905
v -0.214530 0.023182 0.325179
v -0.231238 -0.124552 0.324883
v -0.237215 0.044089 0.325224
v -0.250489 -0.107336 0.324868
v -0.252908 -0.026392 0.325080
v -0.264548 0.062554 0.325211
v -0.311854 0.029135 0.325182
v -0.306066 0.067361 0.325206
v -0.341014 0.058789 0.325139
v -0.392799 0.026716 0.324821
v -0.996820 0.466619 0.282147
v -1.039395 0.461522 0.276939
v -1.019125 0.442655 0.282147
v -1.017089 0.485486 0.276939
v -0.929903 0.538511 0.282147
v -0.950172 0.557378 0.276939
v -0.927867 0.581342 0.276939
v -0.907597 0.562475 0.282147
v -1.044982 0.577321 0.305165
v -0.995708 0.599339 0.265185
v -0.999653 0.603010 0.307462
v -1.041038 0.573649 0.262887
v -0.994518 0.598231 0.252407
v -1.039848 0.572542 0.250109
v -1.062233 0.525481 0.252407
v -1.063423 0.526589 0.265185
v -1.067368 0.530260 0.307462
v -0.898704 0.391200 0.331948
v -0.909433 0.379673 0.289282
v -0.909433 0.379673 0.331948
v -0.898704 0.391200 0.289282
v -0.898751 0.391244 0.276504
v -0.909480 0.379717 0.276504
v -0.995708 0.599339 0.265185
v -0.987879 0.616126 0.307392
v -0.999653 0.603010 0.307462
v -0.983934 0.612454 0.265115
v -0.994518 0.598231 0.252407
v -0.982744 0.611346 0.252337
v -0.808559 0.312593 0.287806
v -0.808559 0.263601 0.165108
v -0.808559 0.263601 -0.230253
v -0.808558 0.397249 -0.230253
v -0.808559 0.366705 0.287806
v -0.808559 0.397249 0.165108
v -0.763029 0.397249 0.165108
v -0.763030 0.366705 0.287806
v -0.808559 0.366705 0.287806
v -0.808559 0.397249 0.165108
v -0.763029 0.397249 -0.186687
v -0.763029 0.397249 -0.230253
v -0.808558 0.397249 -0.230253
v -0.334761 0.224507 -0.186686
v -0.334761 0.224507 -0.230253
v -0.055784 -0.075102 -0.186686
v -0.055784 -0.075102 -0.230252
v -0.025192 -0.287364 -0.186686
v -0.025192 -0.287364 -0.230252
v -0.025192 -0.330574 -0.230252
v -0.025192 -0.330574 0.098099
v -0.025192 -0.287364 0.098099
v -0.067989 -0.287364 0.189075
v -0.067990 -0.330574 0.189075
v -0.158839 -0.330011 -0.230252
v -0.025192 -0.330574 -0.230252
v -0.025192 -0.287364 -0.230252
v -0.055784 -0.075102 -0.230252
v -0.158839 -0.286801 -0.230252
v -0.176508 -0.132439 -0.230252
v -0.334761 0.224507 -0.230253
v -0.379878 0.098704 -0.230253
v -0.763029 0.397249 -0.230253
v -0.763029 0.263601 -0.230253
v -0.808558 0.397249 -0.230253
v -0.808559 0.263601 -0.230253
v -0.808559 0.263601 0.165108
v -0.808559 0.312593 0.287806
v -0.763030 0.312593 0.287806
v -0.763030 0.263601 0.165108
v -0.763029 0.263601 -0.186687
v -0.808559 0.263601 -0.230253
v -0.763029 0.263601 -0.230253
v -0.379878 0.098704 -0.230253
v -0.379878 0.098704 -0.186686
v -0.176508 -0.132439 -0.230252
v -0.176508 -0.132439 -0.186686
v -0.158839 -0.286801 -0.230252
v -0.158839 -0.286801 -0.186686
v -0.158839 -0.330011 -0.230252
v -0.158839 -0.286801 0.098098
v -0.158839 -0.330011 0.098098
v -0.116042 -0.330011 0.189075
v -0.116042 -0.286801 0.189075
v -0.763029 0.397249 -0.186687
v -0.763029 0.263601 -0.186687
v -0.763030 0.263601 0.165108
v -0.763030 0.312593 0.287806
v -0.763030 0.366705 0.287806
v -0.763029 0.397249 0.165108
v -0.025192 -0.330574 0.098099
v -0.025192 -0.330574 -0.230252
v -0.158839 -0.330011 -0.230252
v -0.158839 -0.330011 0.098098
v -0.116042 -0.330011 0.189075
v -0.067990 -0.330574 0.189075
v -0.158839 -0.286801 0.098098
v -0.158839 -0.286801 -0.186686
v -0.025192 -0.287364 -0.186686
v -0.025192 -0.287364 0.098099
v -0.116042 -0.286801 0.189075
v -0.067989 -0.287364 0.189075
v -0.820926 0.432873 -0.178494
v -0.820926 0.432874 0.125701
v -0.820366 0.234855 0.125701
v -0.820366 0.234855 -0.178494
v -0.820926 0.432874 0.125701
v -0.756968 0.434608 0.125701
v -0.756408 0.236590 0.125701
v -0.820366 0.234855 0.125701
v -0.756968 0.434608 0.125701
v -0.756968 0.434608 -0.178494
v -0.756407 0.236589 -0.178494
v -0.756408 0.236590 0.125701
v -0.756968 0.434608 -0.178494
v -0.820926 0.432873 -0.178494
v -0.820366 0.234855 -0.178494
v -0.756407 0.236589 -0.178494
v -0.820926 0.432874 0.125701
v -0.820926 0.432873 -0.178494
v -0.756968 0.434608 -0.178494
v -0.756968 0.434608 0.125701
v -0.756408 0.236590 0.125701
v -0.756407 0.236589 -0.178494
v -0.820366 0.234855 -0.178494
v -0.820366 0.234855 0.125701
v -0.621717 -0.057423 0.325282
v -0.653745 -0.056488 0.325283
v -0.614498 0.061497 0.325283
v -0.615860 -0.132622 0.325283
v -0.587051 0.046794 0.325291
v -0.588742 -0.123690 0.325280
v -0.556474 0.123836 0.324680
v -0.573343 -0.182417 0.325283
v -0.539504 0.097875 0.324783
v -0.551187 -0.167674 0.325278
v -0.494493 0.094322 0.324680
v -0.483001 -0.226322 0.325283
v -0.484496 0.071681 0.324757
v -0.466953 -0.208611 0.325278
v -0.458453 0.107025 0.324831
v -0.446927 -0.262697 0.325283
v -0.442282 0.086561 0.324860
v -0.430510 -0.245358 0.325280
v -0.429989 0.174986 0.324982
v -0.408852 -0.351694 0.325283
v -0.415271 0.151051 0.325001
v -0.394539 -0.329434 0.325280
v -0.352925 0.216143 0.325283
v -0.350860 0.185451 0.325281
v -0.304052 0.165141 0.325278
v -0.296218 0.191538 0.325283
v -0.261639 0.125663 0.325276
v -0.248290 0.146927 0.325283
v -0.221044 0.055332 0.325276
v -0.205151 0.072186 0.325283
v -0.180485 0.022793 0.325278
v -0.165116 0.040068 0.325283
v -0.092316 -0.004953 0.325279
v -0.071596 0.010637 0.325283
v -0.008890 -0.057239 0.325277
v 0.021072 -0.047441 0.325283
v 0.052959 -0.164581 0.325273
v 0.091099 -0.168975 0.325283
v 0.038024 -0.316812 0.325283
v 0.005625 -0.296427 0.325273
v -0.074395 -0.437589 0.325283
v -0.096715 -0.406376 0.325273
v -0.218052 -0.501112 0.325283
v -0.224834 -0.463027 0.325275
v -0.344288 -0.439966 0.325283
v -0.336328 -0.409022 0.325279
v -0.918682 0.460977 0.276838
v -0.884214 0.498008 0.276838
v -0.994518 0.598231 0.252407
v -0.847700 0.446090 0.276504
v -1.039848 0.572542 0.250109
v -0.873226 0.418667 0.276504
v -1.062233 0.525481 0.252407
v -0.898751 0.391244 0.276504
v -0.953150 0.423947 0.276838
v -0.923198 0.465181 0.331893
v -0.999653 0.603010 0.307462
v -0.888730 0.502211 0.331893
v -1.044982 0.577321 0.305165
v -0.847653 0.446046 0.331948
v -1.067368 0.530260 0.307462
v -0.873179 0.418623 0.331948
v -0.957665 0.428150 0.331893
v -0.898704 0.391200 0.331948
vt 0 0
vt 0 0
vt 0 0
vt 0 0
vt 0 0
vt 0 0
vt 0 0
vt 0 0
vt 0 0
vt 0 0
vt 0 0
vt 0 0
vt 0.25 0.75
vt 0.25 0.75
vt 0.25 0.75
vt 0.25 0.75
vt 0.25 0.75
vt 0.25 0.75
vt 0.25 0.75
vt 0.25 0.75
vt 0.25 0.75
vt 0.25 0.75
vt 0.25 0.75
vt 0.25 0.75
vt 0.25 0.75
vt 0.25 0.25
vt 0.25 0.25
vt 0.25 0.25
vt 0.25 0.25
vt 0.25 0.25
vt 0.25 0.25
vt 0.25 0.25
vt 0.25 0.25
vt 0.25 0.25
vt 0.25 0.25
vt 0.25 0.25
vt 0.25 0.25
vt 0.25 0.25
vt 0.25 0.25
vt 0.25 0.25
vt 0.25 0.25
vt 0.249999985 0.75000006
vt 0.24999997 0.75
vt 0.249999955 0.75
vt 0.24999997 0.74999994
vt 0.24999997 0.74999994
vt 0.249999985 0.75
vt 0.25 0.75
vt 0.249999985 0.74999994
vt 0.25 0.75
vt 0.25 0.75
vt 0.25 0.75
vt 0.25 0.75
vt 0.249999985 0.75
vt 0.25 0.749999881
vt 0.25 0.75
vt 0.25 0.75
vt 0.25 0.75
vt 0.25 0.74999994
vt 0.25 0.75
vt 0.25000003 0.75000006
vt 0.25 0.75
vt 0.25 0.75
vt 0.25 0.75
vt 0.25 0.75
vt 0.25000003 0.75000006
vt 0.249999985 0.75
vt 0.25 0.75
vt 0.25 0.75
vt 0.25000003 0.75000006
vt 0.25 0.75
vt 0.249999985 0.75000006
vt 0.25 0.75
vt 0.25 0.75
vt 0.25 0.75
vt 0.25000003 0.750000119
vt 0.25 0.75
vt 0.25 0.75000006
vt 0.25 0.750000119
vt 0.25000003 0.750000119
vt 0.25 0.75
vt 0.249999985 0.75000006
vt 0.75 0.75
vt 0.75 0.75
vt 0.75 0.75
vt 0.75 0.75
vt 0.75 0.75
vt 0.75 0.75
vt 0.75 0.75
vt 0.75 0.75
vt 0.75 0.75
vt 0.75 0.75
vt 0.75 0.75
vt 0.75 0.75
vt 0.75 0.75
vt 0.75 0.75
vt 0.75 0.75
vt 0.75 0.75
vt 0.75 0.75
vt 0.75 0.75
vt 0.75 0.75
vt 0.75 0.75
vt 0.75 0.75
vt 0.75 0.75
vt 0.75 0.75
vt 0.75 0.75
vt 0.75 0.75
vt 0.75 0.75
vt 0.75 0.75
vt 0.75 0.75
vt 0.75 0.75
vt 0.75 0.75
vt 0.75 0.75
vt 0.75 0.75
vt 0.75 0.75
vt 0.75 0.75
vt 0.75 0.75
vt 0.75 0.75
vt 0.75 0.75
vt 0.75 0.75
vt 0.75 0.75
vt 0.75 0.75
vt 0.75 0.75
vt 0.75 0.75
vt 0.75 0.75
vt 0.75 0.75
vt 0.75 0.75
vt 0.75 0.75
vt 0.75 0.75
vt 0.75 0.75
vt 0.75 0.75
vt 0.75 0.75
vt 0.75 0.75
vt 0.75 0.75
vt 0.75 0.75
vt 0.75 0.75
vt 0.75 0.75
vt 0.75 0.75
vt 0.75 0.75
vt 0.75 0.75
vt 0.75 0.75
vt 0.75 0.75
vt 0.75 0.75
vt 0.75 0.75
vt 0.75 0.75
vt 0.75 0.75
vt 0.75 0.75
vt 0.75 0.75
vt 0.75 0.75
vt 0.75 0.75
vt 0.75 0.75
vt 0.75 0.75
vt 0.75 0.75
vt 0.75 0.75
vt 0.75 0.75
vt 0.25 0.25
vt 0.25 0.25
vt 0.25 0.25
vt 0.25 0.25
vt 0.25 0.25
vt 0.25 0.25
vt 0.25 0.25
vt 0.25 0.25
vt 0.25 0.25
vt 0.25 0.25
vt 0.25 0.25
vt 0.25 0.25
vt 0.75 0.25
vt 0.75 0.25
vt 0.75 0.25
vt 0.75 0.25
vt 0.75 0.25
vt 0.75 0.25
vt 0.25 0.25
vt 0.25 0.25
vt 0.25 0.25
vt 0.25 0.25
vt 0.25 0.25
vt 0.25 0.25
vt 0.25 0.25
vt 0.25 0.25
vt 0.25 0.25
vt 0.25 0.25
vt 0.25 0.25
vt 0.25 0.25
vt 0.25 0.25
vt 0.25 0.25
vt 0.25 0.25
vt 0.25 0.25
vt 0.25 0.25
vt 0.25 0.25
vt 0.25 0.25
vt 0.25 0.25
vt 0.25 0.25
vt 0.25 0.25
vt 0.25 0.25
vt 0.25 0.25
vt 0.75 0.25
vt 0.75 0.25
vt 0.75 0.25
vt 0.75 0.25
vt 0.75 0.25
vt 0.75 0.25
vt 0.25 0.25
vt 0.25 0.25
vt 0.25 0.25
vt 0.25 0.25
vt 0.25 0.25
vt 0.25 0.25
vt 0.25 0.25
vt 0.25 0.25
vt 0.25 0.25
vt 0.25 0.25
vt 0.25 0.25
vt 0.25 0.25
vt 0.75 0.25
vt 0.75 0.25
vt 0.75 0.25
vt 0.75 0.25
vt 0.75 0.25
vt 0.75 0.25
vt 0.25 0.25
vt 0.25 0.25
vt 0.25 0.25
vt 0.25 0.25
vt 0.25 0.25
vt 0.25 0.25
vt 0.25 0.25
vt 0.25 0.25
vt 0.75 0.25
vt 0.75 0.25
vt 0.75 0.25
vt 0.75 0.25
vt 0.75 0.25
vt 0.75 0.25
vt 0.25 0.25
vt 0.25 0.25
vt 0.25 0.25
vt 0.25 0.25
vt 0.25 0.25
vt 0.25 0.25
vt 0.25 0.25
vt 0.25 0.25
vt 0.25 0.25
vt 0.25 0.25
vt 0.25 0.25
vt 0.25 0.25
vt 0.25 0.25
vt 0.25 0.25
vt 0.25 0.25
vt 0.25 0.25
vt 0.25 0.25
vt 0.25 0.25
vt 0.25 0.25
vt 0.25 0.25
vt 0.25 0.25
vt 0.25 0.25
vt 0.25 0.25
vt 0.25 0.25
vt 0.25 0.25
vt 0.25 0.25
vt 0.25 0.25
vt 0.25 0.25
vt 0.25 0.25
vt 0.25 0.25
vt 0.25 0.25
vt 0.25 0.25
vt 0.25 0.25
vt 0.25 0.25
vt 0.25 0.25
vt 0.25 0.25
vt 0.25 0.25
vt 0.25 0.25
vt 0.25 0.25
vt 0.25 0.25
vt 0.75 0.25
vt 0.75 0.25
vt 0.75 0.25
vt 0.75 0.25
vt 0.75 0.25
vt 0.75 0.25
vt 0.75 0.25
vt 0.75 0.25
vt 0.75 0.25
vt 0.75 0.25
vt 0.75 0.25
vt 0.75 0.25
vt 0.75 0.25
vt 0.75 0.25
vt 0.75 0.25
vt 0.75 0.25
vt 0.75 0.25
vt 0.75 0.25
vt 0.75 0.25
vt 0.75 0.25
vt 0.75 0.25
vt 0.75 0.25
vt 0.75 0.25
vt 0.75 0.25
vt 0.75 0.25
vt 0.75 0.25
vt 0.75 0.25
vt 0.75 0.25
vt 0.75 0.25
vt 0.75 0.25
vt 0.75 0.25
vt 0.75 0.25
vt 0.75 0.25
vt 0.75 0.25
vt 0.75 0.25
vt 0.75 0.25
vt 0.75 0.25
vt 0.75 0.25
vt 0.75 0.25
vt 0.75 0.25
vt 0.75 0.25
vt 0.75 0.25
vt 0.75 0.25
vt 0.75 0.25
vt 0.75 0.25
vt 0.75 0.25
vt 0.75 0.25
vt 0.75 0.25
vt 0.75 0.25
vt 0.75 0.25
vt 0.75 0.25
vt 0.75 0.25
vt 0.75 0.25
vt 0.75 0.25
vt 0.75 0.25
vt 0.75 0.25
vt 0.25 0.25
vt 0.25 0.25
vt 0.25 0.25
vt 0.25 0.25
vt 0.25 0.25
vt 0.25 0.25
vt 0.25 0.25
vt 0.25 0.25
vt 0.25 0.25
vt 0.25 0.25
vt 0.25 0.25
vt 0.25 0.25
vt 0.25 0.25
vt 0.25 0.25
vt 0.25 0.25
vt 0.25 0.25
vt 0.25 0.25
vt 0.25 0.25
vt 0.25 0.25
vt 0.25 0.25
vt 0.75 0.25
vt 0.75 0.25
vt 0.75 0.25
vt 0.75 0.25
vt 0.75 0.25
vt 0.75 0.25
vt 0.75 0.25
vt 0.75 0.25
vt 0.75 0.25
vt 0.75 0.25
vt 0.75 0.25
vt 0.75 0.25
vt 0.75 0.25
vt 0.75 0.25
vt 0.75 0.25
vt 0.75 0.25
vt 0.75 0.25
vt 0.75 0.25
vt 0.75 0.25
vt 0.75 0.25
vt 0.75 0.25
vt 0.75 0.25
vt 0.75 0.25
vt 0.75 0.25
vt 0.75 0.25
vt 0.75 0.25
vt 0.75 0.25
vt 0.75 0.25
vt 0.25 0.25
vt 0.25 0.25
vt 0.25 0.25
vt 0.25 0.25
vt 0.75 0.25
vt 0.75 0.25
vt 0.75 0.25
vt 0.75 0.25
vt 0.75 0.25
vt 0.75 0.25
vt 0.75 0.25
vt 0.75 0.25
vt 0.75 0.25
vt 0.75 0.25
vt 0.75 0.25
vt 0.75 0.25
vt 0.75 0.25
vt 0.75 0.25
vt 0.75 0.25
vt 0.75 0.25
vt 0.75 0.25
vt 0.75 0.25
vt 0.75 0.25
vt 0.75 0.25
vt 0.75 0.25
vt 0.75 0.25
vt 0.75 0.25
vt 0.75 0.25
vt 0.75 0.25
vt 0.75 0.25
vt 0.75 0.25
vt 0.75 0.25
vt 0.25 0.25
vt 0.25 0.25
vt 0.25 0.25
vt 0.25 0.25
vt 0.25 0.25
vt 0.25 0.25
vt 0.25 0.25
vt 0.25 0.25
vt 0.25 0.25
vt 0.25 0.25
vt 0.25 0.25
vt 0.25 0.25
vt 0.25 0.25
vt 0.25 0.25
vt 0.25 0.25
vt 0.25 0.25
vt 0.25 0.25
vt 0.25 0.25
vt 0.25 0.25
vt 0.25 0.25
vt 0.25 0.25
vt 0.25 0.25
vt 0.25 0.25
vt 0.25 0.25
vt 0.25 0.25
vt 0.25 0.25
vt 0.25 0.25
vt 0.25 0.25
vt 0.25 0.25
vt 0.25 0.25
vt 0.25 0.25
vt 0.25 0.25
vt 0.25 0.25
vt 0.25 0.25
vt 0.25 0.25
vt 0.25 0.25
vt 0.25 0.24999997
vt 0.25 0.24999997
vt 0.25 0.24999997
vt 0.25 0.24999997
vt 0.25 0.24999997
vt 0.25 0.24999997
vt 0.25 0.24999997
vt 0.25 0.24999997
vt 0.25 0.24999997
vt 0.25 0.24999997
vt 0.25 0.24999997
vt 0.25 0.24999997
vt 0.25 0.24999997
vt 0.25 0.24999997
vt 0.25 0.24999997
vt 0.25 0.24999997
vt 0.25 0.24999997
vt 0.25 0.24999997
vt 0.25 0.24999997
vt 0.25 0.24999997
vt 0.25 0.24999997
vt 0.25 0.24999997
vt 0.25 0.24999997
vt 0.25 0.24999997
vt 0.75 0.75
vt 0.75 0.75
vt 0.75 0.75
vt 0.75 0.75
vt 0.75 0.75
vt 0.75 0.75
vt 0.75 0.75
vt 0.75 0.75
vt 0.75 0.75
vt 0.75 0.75
vt 0.75 0.75
vt 0.75 0.75
vt 0.75 0.75
vt 0.75 0.75
vt 0.75 0.75
vt 0.75 0.75
vt 0.75 0.75
vt 0.75 0.75
vt 0.75 0.75
vt 0.75 0.75
vt 0.75 0.75
vt 0.75 0.75
vt 0.75 0.75
vt 0.75 0.75
vt 0.75 0.75
vt 0.75 0.75
vt 0.75 0.75
vt 0.75 0.75
vt 0.75 0.75
vt 0.75 0.75
vt 0.75 0.75
vt 0.75 0.75
vt 0.75 0.75
vt 0.75 0.75
vt 0.75 0.75
vt 0.75 0.75
vt 0.75 0.75
vt 0.75 0.75
vt 0.75 0.75
vt 0.75 0.75
vt 0.75 0.75
vt 0.75 0.75
vt 0.75 0.75
vt 0.75 0.75
vt 0.75 0.75
vt 0.75 0.75
vt 0.75 0.75
vt 0.75 0.75
vt 0.25 0.75
vt 0.25 0.75
vt 0.25 0.75
vt 0.25 0.75
vt 0.25 0.75
vt 0.25 0.75
vt 0.75 0.75
vt 0.75 0.75
vt 0.75 0.75
vt 0.75 0.75
vt 0.75 0.75
vt 0.75 0.75
vt 0.75 0.75
vt 0.75 0.75
vt 0.75 0.75
vt 0.75 0.75
vt 0.75 0.75
vt 0.75 0.75
vt 0.25 0.25
vt 0.25 0.25
vt 0.25 0.25
vt 0.25 0.25
vt 0.25 0.25
vt 0.25 0.25
vt 0.25 0.25
vt 0.25 0.25
vt 0.25 0.25
vt 0.75 0.75
vt 0.75 0.75
vt 0.75 0.75
vt 0.75 0.75
vt 0.75 0.75
vt 0.75 0.75
vt 0.75 0.75
vt 0.75 0.75
vt 0.75 0.75
vt 0.75 0.75
vt 0.75 0.75
vt 0.75 0.75
vt 0.75 0.75
vt 0.75 0.75
vt 0.75 0.75
vt 0.75 0.75
vt 0.75 0.75
vt 0.75 0.75
vt 0.75 0.75
vt 0.75 0.75
vt 0.75 0.75
vt 0.25 0.25
vt 0.25 0.25
vt 0.25 0.25
vt 0.25 0.25
vt 0.25 0.25
vt 0.25 0.25
vt 0.25 0.25
vt 0.25 0.25
vt 0.25 0.25
vt 0.25 0.25
vt 0.25 0.25
vt 0.25 0.25
vt 0.25 0.25
vt 0.25 0.25
vt 0.25 0.25
vt 0.75 0.25
vt 0.75 0.25
vt 0.75 0.25
vt 0.75 0.25
vt 0.75 0.25
vt 0.75 0.25
vt 0.75 0.25
vt 0.75 0.25
vt 0.25 0.75
vt 0.25 0.75
vt 0.25 0.75
vt 0.25 0.75
vt 0.25 0.75
vt 0.25 0.75
vt 0.25 0.75
vt 0.25 0.75
vt 0.25 0.75
vt 0.75 0.75
vt 0.75 0.75
vt 0.75 0.75
vt 0.75 0.75
vt 0.75 0.75
vt 0.75 0.75
vt 0.75 0.75
vt 0.75 0.75
vt 0.75 0.75
vt 0.75 0.75
vt 0.75 0.75
vt 0.75 0.75
vt 0 0
vt 0 0
vt 0 0
vt 0 0
vt 0 0
vt 0 0
vt 0 0
vt 0 0
vt 0 0
vt 0 0
vt 0 0
vt 0 0
vt 0 0
vt 0 0
vt 0 0
vt 0 0
vt 0 0
vt 0 0
vt 0 0
vt 0 0
vt 0 0
vt 0 0
vt 0 0
vt 0 0
vt 0 0
vt 0 0
vt 0 0
vt 0 0
vt 0 0
vt 0 0
vt 0 0
vt 0 0
vt 0 0
vt 0 0
vt 0 0
vt 0 0
vt 0 0
vt 0 0
vt 0 0
vt 0 0
vt 0 0
vt 0 0
vt 0 0
vt 0 0
vt 0 0
vt 0 0
vt 0 0
vt 0 0
vt 0 0
vt 0 0
vt 0 0
vt 0 0
vt 0 0
vt 0 0
vt 0 0
vt 0 0
vt 0 0
vt 0 0
vt 0 0
vt 0 0
vt 0 0
vt 0 0
vt 0 0
vt 0 0
vt 0 0
vt 0 0
vt 0 0
vt 0 0
vt 0 0
vt 0 0
vt 0 0
vt 0 0
vt 0.25 0.25
vt 0.25 0.25
vt 0.25 0.25
vt 0.25 0.25
vt 0.25 0.25
vt 0.25 0.25
vt 0.25 0.25
vt 0.25 0.25
vt 0.25 0.25
vt 0.25 0.25
vt 0.25 0.25
vt 0.25 0.25
vt 0.25 0.25
vt 0.25 0.25
vt 0.25 0.25
vt 0.25 0.25
vt 0.25 0.25
vt 0.25 0.25
vt 0.25 0.25
vt 0.25 0.25
vt 0.25 0.25
vt 0.25 0.25
vt 0.25 0.25
vt 0.25 0.25
vt 0.75 0.75000006
vt 0.75 0.75
vt 0.75 0.75
vt 0.75 0.75
vt 0.75 0.75000006
vt 0.75 0.75
vt 0.75 0.75
vt 0.75 0.75
vt 0.75 0.750000119
vt 0.75 0.750000119
vt 0.75 0.75
vt 0.75 0.75
vt 0.75 0.750000119
vt 0.75 0.75000006
vt 0.75 0.75
vt 0.75 0.75
vt 0.75 0.75
vt 0.75 0.75000006
vt 0.75 0.75
vt 0.75 0.75
vt 0.75 0.75
vt 0.75 0.75000006
vt 0.75 0.75
vt 0.75 0.75
vt 0.75 0.75000006
vt 0.75 0.75
vt 0.75 0.74999994
vt 0.75 0.75
vt 0.75 0.75
vt 0.75 0.75
vt 0.75 0.75
vt 0.75 0.75
vt 0.75 0.74999994
vt 0.75 0.75
vt 0.75 0.75000006
vt 0.75 0.75
vt 0.75 0.75
vt 0.75 0.75
vt 0.75 0.75
vt 0.74999994 0.75
vt 0.75 0.75
vt 0.75 0.74999994
vt 0.75 0.75
vt 0.75 0.74999994
vt 0.75 0.75
vt 0.75 0.749999881
vt 0.25 0.75
vt 0.25 0.75
vt 0.25 0.75
vt 0.25 0.75
vt 0.25 0.75
vt 0.25 0.75
vt 0.25 0.75
vt 0.25 0.75
vt 0.25 0.75
vt 0.25 0.75
vt 0.25 0.75
vt 0.25 0.75
vt 0.25 0.75
vt 0.25 0.75
vt 0.25 0.75
vt 0.25 0.75
vt 0.25 0.75
vt 0.25 0.75
vn 0.000001 -0.000000 -1.000000
vn 0.000001 -0.000000 -1.000000
vn 0.000001 -0.000000 -1.000000
vn 0.000001 -0.000000 -1.000000
vn 0.000001 -0.000000 -1.000000
vn 0.000001 -0.000000 -1.000000
vn 0.000001 -0.000000 -1.000000
vn 0.000001 -0.000000 -1.000000
vn 0.000001 -0.000000 -1.000000
vn 0.000001 -0.000000 -1.000000
vn 0.000001 -0.000000 -1.000000
vn 0.000001 -0.000000 -1.000000
vn 0.987448 -0.157946 0.000001
vn 0.410105 -0.912038 0.000001
vn 0.410105 -0.912038 0.000001
vn 0.934896 -0.354921 0.000001
vn 0.999554 0.029865 0.000001
vn 0.959559 0.281508 0.000001
vn 0.912039 0.410105 0.000000
vn 0.354921 0.934896 -0.000000
vn 0.354921 0.934896 -0.000000
vn -0.410105 0.912038 -0.000001
vn -0.410105 0.912038 -0.000001
vn -0.934896 0.354921 -0.000001
vn -0.934896 0.354921 -0.000001
vn -0.912038 -0.410105 -0.000000
vn -0.934896 0.354921 -0.000001
vn -0.934896 0.354921 -0.000001
vn -0.912038 -0.410105 -0.000000
vn -0.354921 -0.934896 0.000000
vn -0.354921 -0.934896 0.000000
vn 0.410105 -0.912038 0.000001
vn 0.410105 -0.912038 0.000001
vn 0.000001 -0.000000 -1.000000
vn 0.000001 -0.000000 -1.000000
vn 0.000001 -0.000000 -1.000000
vn 0.000001 -0.000000 -1.000000
vn 0.000001 -0.000000 -1.000000
vn 0.000001 -0.000000 -1.000000
vn 0.000001 -0.000000 -1.000000
vn 0.000001 -0.000000 -1.000000
vn 0.000001 -0.000000 -1.000000
vn 0.000001 -0.000000 -1.000000
vn 0.000001 -0.000000 -1.000000
vn -0.002185 -0.000340 -0.999998
vn 0.000001 -0.000000 -1.000000
vn -0.002458 -0.000909 -0.999997
vn -0.005580 -0.000161 -0.999984
vn -0.001785 0.000740 -0.999998
vn 0.000001 -0.000598 -1.000000
vn -0.002734 0.000621 -0.999996
vn -0.001360 0.000093 -0.999999
vn -0.000475 -0.000388 -1.000000
vn 0.000001 -0.000374 -1.000000
vn -0.000078 0.001355 -0.999999
vn -0.000529 -0.000000 -1.000000
vn -0.000529 -0.000738 -1.000000
vn -0.000358 -0.000555 -1.000000
vn 0.000001 -0.000000 -1.000000
vn 0.000001 -0.000222 -1.000000
vn 0.000001 -0.000000 -1.000000
vn -0.000299 -0.000000 -1.000000
vn -0.002244 0.000578 -0.999997
vn -0.001998 0.002559 -0.999995
vn 0.003909 0.002004 -0.999990
vn 0.001899 0.000668 -0.999998
vn -0.002220 -0.000556 -0.999997
vn -0.002616 -0.001028 -0.999996
vn 0.004546 0.000481 -0.999990
vn 0.000428 -0.000000 -1.000000
vn -0.001667 -0.000681 -0.999998
vn 0.001210 -0.000000 -0.999999
vn -0.002003 -0.000695 -0.999998
vn 0.000001 -0.000701 -1.000000
vn 0.004838 -0.000000 -0.999988
vn 0.001261 0.002230 -0.999997
vn 0.001363 0.002843 -0.999995
vn 0.001491 0.002704 -0.999995
vn 0.001731 0.004390 -0.999989
vn 0.000001 -0.000000 -1.000000
vn 0.000001 -0.000000 -1.000000
vn 0.000001 -0.000000 -1.000000
vn -0.860091 0.510141 -0.000001
vn -0.731981 0.681325 -0.000001
vn -0.731981 0.681325 -0.000001
vn -0.860091 0.510141 -0.000001
vn -0.860091 0.510141 -0.000001
vn -0.997795 0.066365 -0.000001
vn -0.978647 -0.205547 -0.000001
vn -0.856053 -0.516889 -0.000000
vn -0.810825 -0.585289 -0.000000
vn -0.665168 -0.746694 -0.000000
vn -0.555308 -0.831645 -0.000000
vn -0.534813 -0.844970 -0.000000
vn -0.626954 -0.779056 -0.000000
vn -0.792285 -0.610152 -0.000000
vn -0.863183 -0.504890 -0.000000
vn -0.887058 -0.461659 -0.000000
vn -0.849426 -0.527708 -0.000000
vn -0.701872 -0.712303 -0.000000
vn -0.574791 -0.818301 -0.000000
vn -0.169705 -0.985495 0.000000
vn 0.135375 -0.990794 0.000000
vn 0.523085 -0.852281 0.000001
vn 0.634292 -0.773094 0.000001
vn 0.816521 -0.577316 0.000001
vn 0.887543 -0.460725 0.000001
vn 0.997944 -0.064093 0.000001
vn 0.970816 0.239824 0.000001
vn 0.775050 0.631900 0.000000
vn 0.660226 0.751067 0.000000
vn 0.720107 0.693863 0.000000
vn 0.457395 0.889264 0.000000
vn 0.379879 0.925036 -0.000000
vn 0.415042 0.909802 0.000000
vn 0.525251 0.850947 0.000000
vn 0.716805 0.697274 0.000000
vn 0.798152 0.602456 0.000000
vn 0.812482 0.582986 0.000000
vn 0.750284 0.661116 0.000000
vn 0.594520 0.804081 0.000000
vn 0.498870 0.866677 0.000000
vn 0.118782 0.992920 -0.000000
vn -0.198867 0.980027 -0.000000
vn -0.655091 0.755550 -0.000001
vn -0.813641 0.581368 -0.000001
vn -0.785418 0.618966 -0.000001
vn -0.572597 0.819837 -0.000001
vn 0.052742 0.998608 -0.000000
vn 0.052742 0.998608 -0.000000
vn 0.429929 0.902863 0.000000
vn 0.429929 0.902863 0.000000
vn -0.000001 0.000000 1.000000
vn -0.000001 0.000000 1.000000
vn -0.000001 0.000000 1.000000
vn -0.000001 0.000000 1.000000
vn -0.000001 0.000000 1.000000
vn -0.000001 0.000000 1.000000
vn -0.000001 0.000000 1.000000
vn -0.000001 0.000000 1.000000
vn -0.000001 0.000000 1.000000
vn -0.000001 0.000000 1.000000
vn 0.000824 -0.000082 1.000000
vn 0.001272 -0.001192 0.999998
vn 0.002280 0.000225 0.999997
vn 0.001744 0.001423 0.999997
vn 0.001756 0.002280 0.999996
vn 0.001797 0.002521 0.999995
vn 0.001641 0.003784 0.999991
vn -0.001177 -0.002239 0.999997
vn -0.001332 -0.001660 0.999998
vn -0.002169 -0.000509 0.999998
vn -0.002568 -0.002091 0.999995
vn -0.000001 0.000000 1.000000
vn -0.002988 -0.006274 0.999976
vn 0.681324 0.731982 0.000000
vn 0.681324 0.731982 0.000000
vn 0.681324 0.731982 0.000000
vn 0.681324 0.731982 0.000000
vn 0.731981 -0.681325 0.000001
vn 0.731981 -0.681325 0.000001
vn 0.731981 -0.681325 0.000001
vn 0.731981 -0.681325 0.000001
vn -0.000001 0.000000 1.000000
vn -0.000001 0.000000 1.000000
vn -0.000001 0.000000 1.000000
vn -0.000001 0.000000 1.000000
vn -0.056622 0.052704 -0.997004
vn 0.000001 -0.000000 -1.000000
vn 0.000001 -0.000000 -1.000000
vn -0.056622 0.052704 -0.997004
vn -0.112904 0.105092 -0.988033
vn -0.112904 0.105092 -0.988033
vn 0.681325 0.731981 0.000000
vn 0.681325 0.731981 0.000000
vn 0.681325 0.731981 0.000000
vn 0.681325 0.731981 0.000000
vn 0.731980 -0.681326 0.000001
vn 0.731980 -0.681326 0.000001
vn 0.731980 -0.681326 0.000001
vn 0.731980 -0.681326 0.000001
vn -0.000001 0.000000 1.000000
vn -0.000001 0.000000 1.000000
vn -0.000001 0.000000 1.000000
vn -0.000001 0.000000 1.000000
vn 0.681325 0.731981 0.000000
vn 0.681325 0.731981 0.000000
vn 0.681325 0.731981 0.000000
vn 0.681325 0.731981 0.000000
vn 0.731982 -0.681324 0.000001
vn 0.731982 -0.681324 0.000001
vn 0.731982 -0.681324 0.000001
vn 0.731982 -0.681324 0.000001
vn -0.000001 0.000000 1.000000
vn -0.000001 0.000000 1.000000
vn -0.000001 0.000000 1.000000
vn -0.000001 0.000000 1.000000
vn -0.056622 0.052704 -0.997004
vn 0.000001 -0.000000 -1.000000
vn 0.000001 -0.000000 -1.000000
vn -0.056622 0.052704 -0.997004
vn -0.112904 0.105092 -0.988033
vn -0.112904 0.105092 -0.988033
vn 0.681325 0.731981 0.000000
vn 0.681325 0.731981 0.000000
vn 0.681325 0.731981 0.000000
vn 0.681325 0.731981 0.000000
vn 0.731982 -0.681324 0.000001
vn 0.731982 -0.681324 0.000001
vn 0.731982 -0.681324 0.000001
vn 0.731982 -0.681324 0.000001
vn -0.000001 0.000000 1.000000
vn -0.000001 0.000000 1.000000
vn -0.000001 0.000000 1.000000
vn -0.000001 0.000000 1.000000
vn -0.056622 0.052703 -0.997004
vn 0.000001 -0.000000 -1.000000
vn 0.000001 -0.000000 -1.000000
vn -0.056622 0.052703 -0.997004
vn -0.112905 0.105091 -0.988033
vn -0.112905 0.105091 -0.988033
vn 0.000001 -0.000000 -1.000000
vn 0.000001 -0.000000 -1.000000
vn 0.000001 -0.000000 -1.000000
vn 0.000001 -0.000000 -1.000000
vn -0.681325 -0.731981 -0.000000
vn -0.681325 -0.731981 -0.000000
vn -0.681325 -0.731981 -0.000000
vn -0.681325 -0.731981 -0.000000
vn 0.000001 -0.000000 -1.000000
vn 0.000001 -0.000000 -1.000000
vn -0.037735 0.035124 -0.998670
vn -0.075471 0.070248 -0.994671
vn -0.112905 0.105091 -0.988033
vn -0.112905 0.105091 -0.988033
vn -0.681325 -0.731981 -0.000000
vn -0.681324 -0.731982 -0.000000
vn -0.681325 -0.731981 -0.000000
vn -0.681325 -0.731981 -0.000000
vn 0.000001 -0.000000 -1.000000
vn 0.000001 -0.000000 -1.000000
vn 0.000001 -0.000000 -1.000000
vn 0.000001 -0.000000 -1.000000
vn 0.000001 -0.000000 -1.000000
vn 0.000001 -0.000000 -1.000000
vn 0.000001 -0.000000 -1.000000
vn 0.000001 -0.000000 -1.000000
vn -0.681325 -0.731981 -0.000000
vn -0.681325 -0.731981 -0.000000
vn -0.681325 -0.731981 -0.000000
vn -0.681325 -0.731981 -0.000000
vn 0.000001 -0.000000 -1.000000
vn 0.000001 -0.000000 -1.000000
vn 0.000001 -0.000000 -1.000000
vn 0.000001 -0.000000 -1.000000
vn -0.681325 -0.731981 -0.000000
vn -0.681325 -0.731981 -0.000000
vn -0.681325 -0.731981 -0.000000
vn -0.681325 -0.731981 -0.000000
vn -0.731980 0.681326 -0.000001
vn -0.731980 0.681326 -0.000001
vn -0.731980 0.681326 -0.000001
vn -0.731980 0.681326 -0.000001
vn -0.731981 0.681325 -0.000001
vn -0.731987 0.681318 -0.000001
vn -0.731981 0.681325 -0.000001
vn -0.731975 0.681332 -0.000001
vn -0.731981 0.681325 -0.000001
vn -0.731981 0.681325 -0.000001
vn -0.731981 0.681325 -0.000001
vn -0.731981 0.681325 -0.000001
vn -0.731982 0.681324 -0.000001
vn -0.731982 0.681324 -0.000001
vn -0.731982 0.681324 -0.000001
vn -0.731982 0.681324 -0.000001
vn 0.681325 0.731981 0.000000
vn 0.681325 0.731981 0.000000
vn 0.681325 0.731981 0.000000
vn 0.681326 0.731980 0.000000
vn -0.681325 -0.731981 -0.000000
vn -0.681325 -0.731981 -0.000000
vn -0.681325 -0.731981 -0.000000
vn -0.681326 -0.731980 -0.000000
vn -0.127107 0.118310 -0.984808
vn -0.127107 0.118310 -0.984808
vn -0.127107 0.118310 -0.984808
vn -0.127106 0.118310 -0.984808
vn 0.681324 0.731982 0.000000
vn 0.681325 0.731981 0.000000
vn 0.681324 0.731982 0.000000
vn 0.681324 0.731982 0.000000
vn -0.681324 -0.731982 -0.000000
vn -0.681325 -0.731981 -0.000000
vn -0.681324 -0.731982 -0.000000
vn -0.681324 -0.731982 -0.000000
vn -0.127106 0.118310 -0.984808
vn -0.127106 0.118310 -0.984808
vn -0.127106 0.118310 -0.984808
vn -0.127106 0.118310 -0.984808
vn 0.681325 0.731981 0.000000
vn 0.681326 0.731980 0.000000
vn 0.681325 0.731981 0.000000
vn 0.681324 0.731982 0.000000
vn -0.681325 -0.731981 -0.000000
vn -0.681326 -0.731980 -0.000000
vn -0.681325 -0.731981 -0.000000
vn -0.681324 -0.731982 -0.000000
vn -0.127106 0.118310 -0.984808
vn -0.127106 0.118310 -0.984808
vn -0.127106 0.118310 -0.984808
vn -0.127106 0.118310 -0.984808
vn -0.127106 0.118310 -0.984808
vn -0.127106 0.118310 -0.984808
vn -0.127106 0.118310 -0.984808
vn -0.127106 0.118310 -0.984808
vn 0.720860 -0.670975 -0.173649
vn 0.720859 -0.670975 -0.173650
vn 0.720860 -0.670974 -0.173649
vn 0.722451 -0.672454 -0.160840
vn 0.720861 -0.670974 -0.173648
vn 0.721869 -0.671912 -0.165647
vn 0.720861 -0.670973 -0.173648
vn 0.720861 -0.670973 -0.173648
vn -0.720861 0.670974 0.173647
vn -0.720861 0.670974 0.173647
vn -0.720861 0.670974 0.173647
vn -0.722451 0.672454 0.160841
vn -0.720861 0.670974 0.173647
vn -0.721869 0.671912 0.165647
vn -0.720861 0.670974 0.173647
vn -0.720861 0.670974 0.173647
vn 0.681324 0.731982 0.000000
vn 0.681325 0.731981 0.000000
vn 0.681324 0.731982 0.000000
vn 0.681324 0.731982 0.000000
vn -0.127106 0.118310 -0.984808
vn -0.127107 0.118310 -0.984808
vn -0.127106 0.118310 -0.984808
vn -0.127106 0.118310 -0.984808
vn -0.681324 -0.731982 -0.000000
vn -0.681325 -0.731981 -0.000000
vn -0.681324 -0.731982 -0.000000
vn -0.681324 -0.731982 -0.000000
vn 0.722451 -0.672454 -0.160840
vn 0.721869 -0.671912 -0.165647
vn 0.724608 -0.674462 -0.141578
vn 0.724608 -0.674462 -0.141579
vn -0.722451 0.672454 0.160841
vn -0.721869 0.671912 0.165647
vn -0.724608 0.674461 0.141581
vn -0.724608 0.674462 0.141582
vn -0.127106 0.118310 -0.984808
vn -0.127106 0.118310 -0.984808
vn -0.127106 0.118310 -0.984808
vn -0.127106 0.118310 -0.984808
vn 0.127107 -0.118311 0.984808
vn 0.127107 -0.118311 0.984808
vn 0.127107 -0.118311 0.984808
vn 0.127107 -0.118310 0.984808
vn 0.127106 -0.118310 0.984808
vn 0.127106 -0.118310 0.984808
vn 0.127107 -0.118310 0.984808
vn 0.127107 -0.118311 0.984808
vn 0.720861 -0.670974 -0.173646
vn 0.720861 -0.670974 -0.173646
vn 0.720861 -0.670974 -0.173646
vn 0.722458 -0.672460 -0.160784
vn 0.720861 -0.670974 -0.173647
vn 0.721873 -0.671916 -0.165611
vn 0.720861 -0.670974 -0.173647
vn 0.720862 -0.670974 -0.173646
vn -0.720861 0.670974 0.173646
vn -0.720862 0.670973 0.173647
vn -0.720861 0.670974 0.173646
vn -0.722458 0.672460 0.160784
vn -0.720861 0.670974 0.173647
vn -0.721873 0.671916 0.165611
vn -0.720861 0.670974 0.173647
vn -0.720861 0.670974 0.173647
vn -0.681325 -0.731981 -0.000000
vn -0.681326 -0.731980 -0.000000
vn -0.681325 -0.731981 -0.000000
vn -0.681324 -0.731982 -0.000000
vn -0.127106 0.118310 -0.984808
vn -0.127106 0.118310 -0.984808
vn -0.127106 0.118310 -0.984808
vn -0.127106 0.118310 -0.984808
vn 0.127106 -0.118310 0.984808
vn 0.127106 -0.118310 0.984808
vn 0.127106 -0.118310 0.984808
vn 0.127106 -0.118310 0.984808
vn 0.127106 -0.118310 0.984808
vn 0.127106 -0.118310 0.984808
vn 0.127106 -0.118310 0.984808
vn 0.127106 -0.118310 0.984808
vn 0.720861 -0.670974 -0.173649
vn 0.720861 -0.670974 -0.173649
vn 0.720861 -0.670974 -0.173649
vn 0.722458 -0.672460 -0.160786
vn 0.720861 -0.670974 -0.173649
vn 0.721873 -0.671916 -0.165614
vn 0.720861 -0.670974 -0.173649
vn 0.720861 -0.670974 -0.173649
vn -0.720861 0.670973 0.173650
vn -0.720861 0.670974 0.173649
vn -0.720861 0.670973 0.173650
vn -0.722458 0.672460 0.160786
vn -0.720861 0.670974 0.173650
vn -0.721873 0.671916 0.165613
vn -0.720861 0.670974 0.173649
vn -0.720861 0.670974 0.173649
vn 0.681325 0.731981 0.000000
vn 0.681325 0.731981 0.000000
vn 0.681325 0.731981 0.000000
vn 0.681325 0.731981 0.000000
vn -0.127106 0.118310 -0.984808
vn -0.127107 0.118310 -0.984808
vn -0.127106 0.118310 -0.984808
vn -0.127106 0.118310 -0.984808
vn -0.127106 0.118310 -0.984808
vn -0.127106 0.118310 -0.984808
vn -0.127106 0.118310 -0.984808
vn -0.127106 0.118310 -0.984808
vn 0.681325 0.731981 0.000000
vn 0.681325 0.731981 0.000000
vn 0.681325 0.731981 0.000000
vn 0.681324 0.731982 0.000000
vn 0.722458 -0.672460 -0.160784
vn 0.721873 -0.671916 -0.165611
vn 0.724623 -0.674475 -0.141439
vn 0.724623 -0.674475 -0.141440
vn -0.681324 -0.731982 -0.000000
vn -0.681323 -0.731982 -0.000000
vn -0.681324 -0.731982 -0.000000
vn -0.681325 -0.731981 -0.000000
vn 0.722458 -0.672460 -0.160786
vn 0.721873 -0.671916 -0.165614
vn 0.724622 -0.674475 -0.141441
vn 0.724622 -0.674475 -0.141440
vn -0.722458 0.672460 0.160784
vn -0.721873 0.671916 0.165611
vn -0.724623 0.674475 0.141439
vn -0.724622 0.674475 0.141440
vn -0.722458 0.672460 0.160786
vn -0.721873 0.671916 0.165613
vn -0.724623 0.674476 0.141438
vn -0.724623 0.674476 0.141438
vn 0.731981 -0.681325 0.000001
vn 0.731981 -0.681325 0.000001
vn 0.731981 -0.681325 0.000001
vn 0.731981 -0.681325 0.000001
vn -0.731981 0.681325 -0.000001
vn -0.731981 0.681325 -0.000001
vn -0.731981 0.681325 -0.000001
vn -0.731981 0.681325 -0.000001
vn 0.000001 -0.000000 -1.000000
vn 0.000001 -0.000000 -1.000000
vn 0.000001 -0.000000 -1.000000
vn 0.000001 -0.000000 -1.000000
vn 0.681325 0.731981 0.000000
vn 0.681325 0.731981 0.000000
vn 0.681325 0.731981 0.000000
vn 0.681325 0.731981 0.000000
vn -0.681325 -0.731981 -0.000000
vn -0.681325 -0.731981 -0.000000
vn -0.681325 -0.731981 -0.000000
vn -0.681325 -0.731981 -0.000000
vn -0.000001 0.000000 1.000000
vn -0.000001 0.000000 1.000000
vn -0.000001 0.000000 1.000000
vn -0.000001 0.000000 1.000000
vn 0.731981 -0.681325 0.000001
vn 0.731981 -0.681325 0.000001
vn 0.731981 -0.681325 0.000001
vn 0.731981 -0.681325 0.000001
vn 0.731981 -0.681325 0.000001
vn 0.731981 -0.681325 0.000001
vn 0.681725 0.731608 0.000000
vn 0.681725 0.731608 0.000000
vn 0.753464 0.657480 -0.003344
vn 0.751260 0.659974 -0.006522
vn 0.681723 0.731611 0.000000
vn 0.747709 0.663902 -0.012875
vn 0.811733 0.583888 -0.012818
vn 0.816921 0.576733 -0.004435
vn 0.817958 0.575278 0.000000
vn -0.816125 0.562308 0.133226
vn -0.816117 0.562301 0.133307
vn -0.712682 0.688434 0.134697
vn -0.712698 0.688449 0.134536
vn -0.816141 0.562322 0.133068
vn -0.712707 0.688455 0.134457
vn 0.731982 -0.681324 0.000001
vn 0.731982 -0.681324 0.000001
vn 0.731982 -0.681324 0.000001
vn 0.731982 -0.681324 0.000001
vn 0.731982 -0.681324 0.000001
vn 0.731981 -0.681325 0.000001
vn -0.044355 0.041286 -0.998162
vn 0.000001 -0.000000 -1.000000
vn 0.000001 -0.000000 -1.000000
vn -0.074148 0.068588 -0.994886
vn -0.111240 0.101733 -0.988573
vn -0.111293 0.102309 -0.988507
vn -0.109443 0.103684 -0.988571
vn -0.110023 0.103690 -0.988506
vn -0.073723 0.069050 -0.994885
vn -0.044355 0.041286 -0.998162
vn 0.000001 -0.000000 -1.000000
vn 0.000001 -0.000000 -1.000000
vn -0.516767 -0.856115 -0.004436
vn -0.515241 -0.857045 -0.000000
vn -0.597135 -0.802133 -0.003343
vn -0.599811 -0.800110 -0.007077
vn -0.524276 -0.851452 -0.012819
vn -0.604014 -0.796856 -0.013704
vn -0.672321 -0.740258 -0.001663
vn -0.672272 -0.740304 -0.000554
vn -0.672271 -0.740305 -0.000000
vn 0.731981 -0.681325 0.000001
vn 0.731982 -0.681324 0.000001
vn 0.731981 -0.681325 0.000001
vn 0.731981 -0.681325 0.000001
vn 0.731982 -0.681324 0.000001
vn 0.731982 -0.681324 0.000001
vn 0.043865 -0.040830 0.998203
vn -0.002461 0.002290 0.999994
vn -0.000001 0.000000 1.000000
vn 0.074138 -0.069429 0.994828
vn 0.110001 -0.104281 0.988446
vn 0.110645 -0.104248 0.988377
vn 0.111874 -0.102247 0.988448
vn 0.111894 -0.102890 0.988379
vn 0.074556 -0.068975 0.994829
vn 0.043865 -0.040830 0.998203
vn -0.000001 0.000000 1.000000
vn -0.002461 0.002290 0.999994
vn 0.000001 -0.000000 -1.000000
vn 0.000001 -0.000000 -1.000000
vn 0.000001 -0.000000 -1.000000
vn 0.000001 -0.000000 -1.000000
vn 0.000001 -0.000000 -1.000000
vn 0.000001 -0.000000 -1.000000
vn 0.000001 -0.000000 -1.000000
vn 0.000001 -0.000000 -1.000000
vn 0.000001 -0.000000 -1.000000
vn -0.000001 0.000000 1.000000
vn -0.000001 0.000000 1.000000
vn -0.000001 0.000000 1.000000
vn -0.000001 0.000000 1.000000
vn -0.000001 0.000000 1.000000
vn -0.000001 0.000000 1.000000
vn -0.000001 0.000000 1.000000
vn -0.000001 0.000000 1.000000
vn -0.000001 0.000000 1.000000
vn -0.681325 -0.731981 -0.000000
vn -0.681325 -0.731981 -0.000000
vn -0.681324 -0.731982 -0.000000
vn -0.681324 -0.731982 -0.000000
vn -0.681324 -0.731982 -0.000000
vn -0.681324 -0.731982 -0.000000
vn 0.681324 0.731982 0.000000
vn 0.681324 0.731982 0.000000
vn 0.681324 0.731982 0.000000
vn 0.681325 0.731982 0.000000
vn 0.681325 0.731981 0.000000
vn 0.681325 0.731981 0.000000
vn 0.000001 -0.000598 -1.000000
vn -0.005580 -0.000161 -0.999984
vn -0.002734 0.000621 -0.999996
vn -0.000529 -0.000000 -1.000000
vn -0.001360 0.000093 -0.999999
vn -0.000529 -0.000738 -1.000000
vn -0.000475 -0.000388 -1.000000
vn -0.000358 -0.000555 -1.000000
vn -0.002244 0.000578 -0.999997
vn 0.000001 -0.000445 -1.000000
vn 0.000001 -0.000222 -1.000000
vn -0.001023 -0.001004 -0.999999
vn -0.000299 -0.000000 -1.000000
vn -0.002616 -0.001028 -0.999996
vn -0.001667 -0.000681 -0.999998
vn 0.127107 -0.118311 0.984808
vn 0.127107 -0.118311 0.984808
vn 0.127107 -0.118310 0.984808
vn 0.127107 -0.118311 0.984808
vn 0.127106 -0.118311 0.984808
vn 0.127107 -0.118311 0.984808
vn 0.127106 -0.118311 0.984808
vn 0.127106 -0.118311 0.984808
vn -0.725286 0.675138 0.134718
vn -0.619269 0.773794 0.133227
vn -0.619261 0.773786 0.133306
vn -0.725302 0.675153 0.134559
vn -0.619284 0.773809 0.133069
vn -0.725310 0.675160 0.134480
vn -0.816141 0.562322 0.133068
vn -0.816125 0.562308 0.133226
vn -0.816117 0.562301 0.133307
vn 0.731982 -0.681324 0.000001
vn 0.731982 -0.681324 0.000001
vn 0.731982 -0.681324 0.000001
vn 0.731982 -0.681324 0.000001
vn 0.731982 -0.681324 0.000001
vn 0.731982 -0.681324 0.000001
vn -0.619269 0.773794 0.133227
vn -0.737691 0.661565 0.134697
vn -0.619261 0.773786 0.133306
vn -0.737707 0.661580 0.134537
vn -0.619284 0.773809 0.133069
vn -0.737715 0.661588 0.134457
vn -1.000000 0.000001 -0.000001
vn -1.000000 0.000001 -0.000001
vn -1.000000 0.000001 -0.000001
vn -1.000000 0.000001 -0.000001
vn -1.000000 0.000001 -0.000001
vn -1.000000 0.000001 -0.000001
vn 0.000001 0.991592 -0.129407
vn 0.000001 0.966508 -0.256637
vn 0.000001 0.966508 -0.256637
vn 0.000001 0.997913 -0.064566
vn 0.126751 0.991935 -0.000000
vn 0.126751 0.991935 -0.000000
vn 0.000001 1.000000 -0.000000
vn 0.566471 0.824082 0.000000
vn 0.566471 0.824082 0.000000
vn 0.901987 0.431763 0.000000
vn 0.901987 0.431763 0.000000
vn 0.989773 0.142650 0.000001
vn 0.998864 0.047658 0.000001
vn 1.000000 -0.000001 0.000001
vn 0.988203 -0.000001 -0.153153
vn 0.973086 -0.000001 -0.230444
vn 0.893791 -0.000001 -0.448484
vn 0.893791 -0.000001 -0.448484
vn -0.000001 0.000000 1.000000
vn -0.000001 0.000000 1.000000
vn -0.000001 0.000000 1.000000
vn -0.000001 0.000000 1.000000
vn -0.000001 0.000000 1.000000
vn -0.000001 0.000000 1.000000
vn -0.000001 0.000000 1.000000
vn -0.000001 0.000000 1.000000
vn -0.000001 0.000000 1.000000
vn -0.000001 0.000000 1.000000
vn -0.000001 0.000000 1.000000
vn -0.000001 0.000000 1.000000
vn -0.000001 -0.991116 -0.133001
vn -0.000001 -0.920029 -0.391849
vn -0.000001 -0.920029 -0.391849
vn -0.000001 -0.979803 -0.199963
vn -0.100374 -0.994950 0.000000
vn -0.000001 -1.000000 0.000000
vn -0.201810 -0.979425 0.000000
vn -0.587382 -0.809310 -0.000000
vn -0.587382 -0.809310 -0.000000
vn -0.913997 -0.405721 -0.000000
vn -0.913997 -0.405721 -0.000000
vn -0.998377 -0.056954 -0.000001
vn -0.993512 -0.113723 -0.000001
vn -1.000000 0.000001 -0.000001
vn -0.988202 0.000001 -0.153154
vn -0.973085 0.000001 -0.230445
vn -0.893790 0.000001 -0.448485
vn -0.893790 0.000001 -0.448485
vn 1.000000 -0.000001 0.000001
vn 1.000000 -0.000001 0.000001
vn 1.000000 -0.000001 0.000001
vn 1.000000 -0.000001 0.000001
vn 1.000000 -0.000001 0.000001
vn 1.000000 -0.000001 0.000001
vn -0.006092 -0.999981 0.000942
vn -0.004215 -0.999991 0.000000
vn -0.004215 -0.999991 0.000000
vn -0.004215 -0.999991 -0.001057
vn -0.007968 -0.999966 0.001884
vn -0.011721 -0.999914 0.005882
vn 0.004215 0.999991 0.000704
vn 0.004215 0.999991 -0.000000
vn 0.004215 0.999991 -0.000000
vn 0.006717 0.999977 -0.001256
vn 0.007968 0.999966 -0.001884
vn 0.011720 0.999914 -0.005881
vn -0.999996 -0.002828 -0.000001
vn -0.999996 -0.002828 -0.000001
vn -0.999996 -0.002828 -0.000001
vn -0.999996 -0.002828 -0.000001
vn 0.000001 -0.000000 -1.000000
vn 0.000001 -0.000000 -1.000000
vn 0.000001 -0.000000 -1.000000
vn 0.000001 -0.000000 -1.000000
vn 0.999996 0.002829 0.000001
vn 0.999996 0.002829 0.000001
vn 0.999996 0.002829 0.000001
vn 0.999996 0.002829 0.000001
vn -0.000001 0.000000 1.000000
vn -0.000001 0.000000 1.000000
vn -0.000001 0.000000 1.000000
vn -0.000001 0.000000 1.000000
vn -0.027107 0.999633 -0.000000
vn -0.027107 0.999633 -0.000000
vn -0.027107 0.999633 -0.000000
vn -0.027107 0.999633 -0.000000
vn 0.027110 -0.999632 0.000000
vn 0.027110 -0.999632 0.000000
vn 0.027110 -0.999632 0.000000
vn 0.027110 -0.999632 0.000000
vn 0.000001 -0.000000 -1.000000
vn 0.000001 -0.000000 -1.000000
vn 0.001019 0.002070 -0.999997
vn 0.000001 -0.000000 -1.000000
vn 0.001491 0.002704 -0.999995
vn 0.000001 -0.000000 -1.000000
vn 0.002201 0.005866 -0.999980
vn 0.000001 -0.000000 -1.000000
vn 0.001731 0.004390 -0.999989
vn 0.000001 -0.000000 -1.000000
vn 0.000001 0.001790 -0.999998
vn 0.000001 -0.000000 -1.000000
vn 0.001261 0.002230 -0.999997
vn 0.001210 -0.000000 -0.999999
vn 0.000001 -0.000000 -1.000000
vn 0.000001 -0.000000 -1.000000
vn 0.000001 -0.000701 -1.000000
vn 0.000428 -0.000000 -1.000000
vn -0.001022 -0.000000 -0.999999
vn 0.000001 -0.000000 -1.000000
vn -0.002003 -0.000695 -0.999998
vn 0.001899 0.000668 -0.999998
vn -0.001741 -0.000000 -0.999998
vn -0.002220 -0.000556 -0.999997
vn 0.000001 -0.000000 -1.000000
vn 0.000001 -0.000000 -1.000000
vn 0.000001 -0.000000 -1.000000
vn 0.000001 -0.000000 -1.000000
vn 0.000001 -0.000374 -1.000000
vn 0.000001 -0.000000 -1.000000
vn -0.002458 -0.000909 -0.999997
vn 0.000001 -0.000000 -1.000000
vn 0.000001 -0.000000 -1.000000
vn 0.000001 -0.000000 -1.000000
vn 0.000001 -0.000000 -1.000000
vn 0.000001 -0.000000 -1.000000
vn 0.000001 -0.000000 -1.000000
vn 0.000001 -0.000000 -1.000000
vn 0.000001 -0.000000 -1.000000
vn 0.000001 -0.000000 -1.000000
vn 0.000001 -0.000000 -1.000000
vn -0.002185 -0.000340 -0.999998
vn 0.000001 -0.000000 -1.000000
vn -0.001785 0.000740 -0.999998
vn 0.000001 -0.000000 -1.000000
vn -0.000078 0.001355 -0.999999
vn 0.053641 -0.049932 0.997311
vn 0.043865 -0.040830 0.998203
vn 0.110001 -0.104281 0.988446
vn -0.002461 0.002290 0.999994
vn 0.110091 -0.102484 0.988624
vn -0.003691 0.003435 0.999987
vn 0.111874 -0.102247 0.988448
vn -0.002461 0.002290 0.999994
vn 0.043865 -0.040830 0.998203
vn -0.055188 0.051372 -0.997154
vn -0.109443 0.103684 -0.988571
vn -0.044355 0.041286 -0.998162
vn -0.109542 0.101972 -0.988738
vn 0.000001 -0.000000 -1.000000
vn -0.111240 0.101733 -0.988573
vn 0.000001 -0.000000 -1.000000
vn -0.044355 0.041286 -0.998162
vn 0.000001 -0.000000 -1.000000
f 1/1/1 2/2/2 3/3/3
f 4/4/4 5/5/5 2/2/2
f 2/2/2 6/6/6 4/4/4
f 6/6/6 7/7/7 4/4/4
f 6/6/6 8/8/8 7/7/7
f 8/8/8 9/9/9 7/7/7
f 8/8/8 10/10/10 9/9/9
f 11/11/11 5/5/5 12/12/12
f 13/13/13 14/14/14 15/15/15
f 13/13/13 16/16/16 14/14/14
f 17/17/17 16/16/16 13/13/13
f 18/18/18 17/17/17 13/13/13
f 13/13/13 19/19/19 18/18/18
f 19/19/19 20/20/20 18/18/18
f 19/19/19 21/21/21 20/20/20
f 21/21/21 22/22/22 20/20/20
f 21/21/21 23/23/23 22/22/22
f 24/24/24 22/22/22 23/23/23
f 24/24/24 25/25/25 22/22/22
f 26/26/26 27/27/27 28/28/28
f 26/26/26 29/29/29 27/27/27
f 30/30/30 29/29/29 26/26/26
f 30/30/30 31/31/31 29/29/29
f 30/30/30 32/32/32 31/31/31
f 30/30/30 33/33/33 32/32/32
f 34/34/34 35/35/35 36/36/36
f 36/36/36 37/37/37 34/34/34
f 36/36/36 38/38/38 37/37/37
f 38/38/38 39/39/39 37/37/37
f 38/38/38 40/40/40 39/39/39
f 40/40/40 41/41/41 39/39/39
f 42/42/42 43/43/43 44/44/44
f 44/44/44 45/45/45 42/42/42
f 45/45/45 46/46/46 42/42/42
f 45/45/45 47/47/47 46/46/46
f 45/45/45 48/48/48 47/47/47
f 48/48/48 45/45/45 49/49/49
f 48/48/48 50/50/50 47/47/47
f 49/49/49 51/51/51 48/48/48
f 49/49/49 52/52/52 51/51/51
f 49/49/49 53/53/53 52/52/52
f 50/50/50 54/54/54 47/47/47
f 49/49/49 55/55/55 53/53/53
f 50/50/50 56/56/56 54/54/54
f 56/56/56 57/57/57 54/54/54
f 57/57/57 58/58/58 54/54/54
f 58/58/58 59/59/59 54/54/54
f 58/58/58 60/60/60 59/59/59
f 60/60/60 61/61/61 59/59/59
f 60/60/60 62/62/62 61/61/61
f 55/55/55 63/63/63 53/53/53
f 55/55/55 64/64/64 63/63/63
f 55/55/55 65/65/65 64/64/64
f 55/55/55 66/66/66 65/65/65
f 62/62/62 67/67/67 61/61/61
f 62/62/62 68/68/68 67/67/67
f 66/66/66 69/69/69 65/65/65
f 66/66/66 70/70/70 69/69/69
f 68/68/68 71/71/71 67/67/67
f 70/70/70 72/72/72 69/69/69
f 71/71/71 73/73/73 67/67/67
f 71/71/71 74/74/74 73/73/73
f 72/72/72 75/75/75 69/69/69
f 71/71/71 76/76/76 74/74/74
f 72/72/72 77/77/77 75/75/75
f 76/76/76 71/71/71 77/77/77
f 72/72/72 78/78/78 77/77/77
f 77/77/77 78/78/78 76/76/76
f 78/78/78 79/79/79 76/76/76
f 72/72/72 80/80/80 78/78/78
f 80/80/80 81/81/81 78/78/78
f 81/81/81 82/82/82 78/78/78
f 83/83/83 84/84/84 85/85/85
f 83/83/83 85/85/85 86/86/86
f 83/83/83 86/86/86 87/87/87
f 88/88/88 87/87/87 86/86/86
f 88/88/88 83/83/83 87/87/87
f 88/88/88 89/89/89 83/83/83
f 90/90/90 89/89/89 88/88/88
f 90/90/90 91/91/91 89/89/89
f 92/92/92 91/91/91 90/90/90
f 92/92/92 93/93/93 91/91/91
f 94/94/94 93/93/93 92/92/92
f 94/94/94 95/95/95 93/93/93
f 96/96/96 95/95/95 94/94/94
f 96/96/96 97/97/97 95/95/95
f 98/98/98 97/97/97 96/96/96
f 98/98/98 99/99/99 97/97/97
f 100/100/100 99/99/99 98/98/98
f 100/100/100 101/101/101 99/99/99
f 102/102/102 101/101/101 100/100/100
f 102/102/102 103/103/103 101/101/101
f 103/103/103 102/102/102 104/104/104
f 103/103/103 104/104/104 105/105/105
f 105/105/105 104/104/104 106/106/106
f 105/105/105 106/106/106 107/107/107
f 108/108/108 107/107/107 106/106/106
f 108/108/108 109/109/109 107/107/107
f 110/110/110 109/109/109 108/108/108
f 110/110/110 111/111/111 109/109/109
f 110/110/110 112/112/112 111/111/111
f 113/113/113 112/112/112 110/110/110
f 113/113/113 111/111/111 112/112/112
f 113/113/113 114/114/114 111/111/111
f 115/115/115 114/114/114 113/113/113
f 115/115/115 116/116/116 114/114/114
f 117/117/117 116/116/116 115/115/115
f 117/117/117 118/118/118 116/116/116
f 118/118/118 117/117/117 119/119/119
f 118/118/118 119/119/119 120/120/120
f 120/120/120 119/119/119 121/121/121
f 120/120/120 121/121/121 122/122/122
f 122/122/122 121/121/121 123/123/123
f 122/122/122 123/123/123 124/124/124
f 125/125/125 124/124/124 123/123/123
f 125/125/125 126/126/126 124/124/124
f 127/127/127 126/126/126 125/125/125
f 127/127/127 128/128/128 126/126/126
f 129/129/129 128/128/128 127/127/127
f 129/129/129 130/130/130 128/128/128
f 131/131/131 130/130/130 129/129/129
f 131/131/131 129/129/129 132/132/132
f 133/133/133 134/134/134 135/135/135
f 134/134/134 133/133/133 136/136/136
f 133/133/133 137/137/137 136/136/136
f 136/136/136 137/137/137 138/138/138
f 139/139/139 137/137/137 133/133/133
f 137/137/137 139/139/139 140/140/140
f 140/140/140 139/139/139 141/141/141
f 142/142/142 141/141/141 139/139/139
f 137/137/137 143/143/143 138/138/138
f 138/138/138 143/143/143 144/144/144
f 144/144/144 143/143/143 145/145/145
f 146/146/146 145/145/145 143/143/143
f 147/147/147 145/145/145 146/146/146
f 145/145/145 147/147/147 148/148/148
f 148/148/148 147/147/147 149/149/149
f 144/144/144 145/145/145 150/150/150
f 144/144/144 150/150/150 151/151/151
f 151/151/151 150/150/150 152/152/152
f 152/152/152 150/150/150 153/153/153
f 152/152/152 153/153/153 154/154/154
f 153/153/153 150/150/150 155/155/155
f 156/156/156 157/157/157 158/158/158
f 156/156/156 158/158/158 159/159/159
f 160/160/160 161/161/161 162/162/162
f 160/160/160 162/162/162 163/163/163
f 164/164/164 165/165/165 166/166/166
f 164/164/164 166/166/166 167/167/167
f 168/168/168 169/169/169 170/170/170
f 168/168/168 170/170/170 171/171/171
f 168/168/168 171/171/171 172/172/172
f 168/168/168 172/172/172 173/173/173
f 174/174/174 175/175/175 176/176/176
f 174/174/174 176/176/176 177/177/177
f 178/178/178 179/179/179 180/180/180
f 178/178/178 180/180/180 181/181/181
f 182/182/182 183/183/183 184/184/184
f 182/182/182 184/184/184 185/185/185
f 186/186/186 187/187/187 188/188/188
f 186/186/186 188/188/188 189/189/189
f 190/190/190 191/191/191 192/192/192
f 190/190/190 192/192/192 193/193/193
f 194/194/194 195/195/195 196/196/196
f 194/194/194 196/196/196 197/197/197
f 198/198/198 199/199/199 200/200/200
f 198/198/198 200/200/200 201/201/201
f 198/198/198 201/201/201 202/202/202
f 198/198/198 202/202/202 203/203/203
f 204/204/204 205/205/205 206/206/206
f 204/204/204 206/206/206 207/207/207
f 208/208/208 209/209/209 210/210/210
f 208/208/208 210/210/210 211/211/211
f 212/212/212 213/213/213 214/214/214
f 212/212/212 214/214/214 215/215/215
f 216/216/216 217/217/217 218/218/218
f 216/216/216 218/218/218 219/219/219
f 216/216/216 219/219/219 220/220/220
f 216/216/216 220/220/220 221/221/221
f 222/222/222 223/223/223 224/224/224
f 222/222/222 224/224/224 225/225/225
f 226/226/226 227/227/227 228/228/228
f 226/226/226 228/228/228 229/229/229
f 230/230/230 231/231/231 232/232/232
f 230/230/230 232/232/232 233/233/233
f 233/233/233 232/232/232 234/234/234
f 233/233/233 234/234/234 235/235/235
f 236/236/236 237/237/237 238/238/238
f 236/236/236 238/238/238 239/239/239
f 240/240/240 241/241/241 242/242/242
f 240/240/240 242/242/242 243/243/243
f 244/244/244 245/245/245 246/246/246
f 244/244/244 246/246/246 247/247/247
f 248/248/248 249/249/249 250/250/250
f 248/248/248 250/250/250 251/251/251
f 252/252/252 253/253/253 254/254/254
f 252/252/252 254/254/254 255/255/255
f 256/256/256 257/257/257 258/258/258
f 256/256/256 258/258/258 259/259/259
f 260/260/260 261/261/261 262/262/262
f 260/260/260 262/262/262 263/263/263
f 264/264/264 265/265/265 266/266/266
f 264/264/264 266/266/266 267/267/267
f 268/268/268 269/269/269 270/270/270
f 268/268/268 270/270/270 271/271/271
f 272/272/272 273/273/273 274/274/274
f 272/272/272 274/274/274 275/275/275
f 276/276/276 277/277/277 278/278/278
f 276/276/276 278/278/278 279/279/279
f 280/280/280 281/281/281 282/282/282
f 280/280/280 282/282/282 283/283/283
f 284/284/284 285/285/285 286/286/286
f 284/284/284 286/286/286 287/287/287
f 288/288/288 289/289/289 290/290/290
f 288/288/288 290/290/290 291/291/291
f 292/292/292 293/293/293 294/294/294
f 292/292/292 294/294/294 295/295/295
f 296/296/296 297/297/297 298/298/298
f 296/296/296 298/298/298 299/299/299
f 300/300/300 301/301/301 302/302/302
f 300/300/300 302/302/302 303/303/303
f 304/304/304 305/305/305 306/306/306
f 304/304/304 306/306/306 307/307/307
f 308/308/308 309/309/309 310/310/310
f 308/308/308 310/310/310 311/311/311
f 312/312/312 313/313/313 314/314/314
f 312/312/312 314/314/314 315/315/315
f 316/316/316 317/317/317 318/318/318
f 316/316/316 318/318/318 319/319/319
f 319/319/319 318/318/318 320/320/320
f 319/319/319 320/320/320 321/321/321
f 321/321/321 320/320/320 322/322/322
f 321/321/321 322/322/322 323/323/323
f 324/324/324 325/325/325 326/326/326
f 324/324/324 326/326/326 327/327/327
f 327/327/327 326/326/326 328/328/328
f 327/327/327 328/328/328 329/329/329
f 329/329/329 328/328/328 330/330/330
f 329/329/329 330/330/330 331/331/331
f 332/332/332 333/333/333 334/334/334
f 332/332/332 334/334/334 335/335/335
f 336/336/336 337/337/337 338/338/338
f 336/336/336 338/338/338 339/339/339
f 340/340/340 341/341/341 342/342/342
f 340/340/340 342/342/342 343/343/343
f 344/344/344 345/345/345 346/346/346
f 344/344/344 346/346/346 347/347/347
f 348/348/348 349/349/349 350/350/350
f 348/348/348 350/350/350 351/351/351
f 352/352/352 353/353/353 354/354/354
f 352/352/352 354/354/354 355/355/355
f 356/356/356 357/357/357 358/358/358
f 356/356/356 358/358/358 359/359/359
f 359/359/359 358/358/358 360/360/360
f 359/359/359 360/360/360 361/361/361
f 361/361/361 360/360/360 362/362/362
f 361/361/361 362/362/362 363/363/363
f 364/364/364 365/365/365 366/366/366
f 364/364/364 366/366/366 367/367/367
f 367/367/367 366/366/366 368/368/368
f 367/367/367 368/368/368 369/369/369
f 369/369/369 368/368/368 370/370/370
f 369/369/369 370/370/370 371/371/371
f 372/372/372 373/373/373 374/374/374
f 372/372/372 374/374/374 375/375/375
f 375/375/375 374/374/374 376/376/376
f 375/375/375 376/376/376 377/377/377
f 377/377/377 376/376/376 378/378/378
f 377/377/377 378/378/378 379/379/379
f 380/380/380 381/381/381 382/382/382
f 380/380/380 382/382/382 383/383/383
f 384/384/384 385/385/385 386/386/386
f 384/384/384 386/386/386 387/387/387
f 388/388/388 389/389/389 390/390/390
f 388/388/388 390/390/390 391/391/391
f 391/391/391 390/390/390 392/392/392
f 391/391/391 392/392/392 393/393/393
f 393/393/393 392/392/392 394/394/394
f 393/393/393 394/394/394 395/395/395
f 396/396/396 397/397/397 398/398/398
f 396/396/396 398/398/398 399/399/399
f 399/399/399 398/398/398 400/400/400
f 399/399/399 400/400/400 401/401/401
f 401/401/401 400/400/400 402/402/402
f 401/401/401 402/402/402 403/403/403
f 404/404/404 405/405/405 406/406/406
f 404/404/404 406/406/406 407/407/407
f 407/407/407 406/406/406 408/408/408
f 407/407/407 408/408/408 409/409/409
f 409/409/409 408/408/408 410/410/410
f 409/409/409 410/410/410 411/411/411
f 412/412/412 413/413/413 414/414/414
f 412/412/412 414/414/414 415/415/415
f 416/416/416 417/417/417 418/418/418
f 416/416/416 418/418/418 419/419/419
f 420/420/420 421/421/421 422/422/422
f 420/420/420 422/422/422 423/423/423
f 424/424/424 425/425/425 426/426/426
f 424/424/424 426/426/426 427/427/427
f 428/428/428 429/429/429 430/430/430
f 428/428/428 430/430/430 431/431/431
f 432/432/432 433/433/433 434/434/434
f 432/432/432 434/434/434 435/435/435
f 436/436/436 437/437/437 438/438/438
f 436/436/436 438/438/438 439/439/439
f 440/440/440 441/441/441 442/442/442
f 440/440/440 442/442/442 443/443/443
f 444/444/444 445/445/445 446/446/446
f 444/444/444 446/446/446 447/447/447
f 448/448/448 449/449/449 450/450/450
f 448/448/448 450/450/450 451/451/451
f 452/452/452 453/453/453 454/454/454
f 452/452/452 454/454/454 455/455/455
f 456/456/456 457/457/457 458/458/458
f 456/456/456 458/458/458 459/459/459
f 460/460/460 461/461/461 462/462/462
f 460/460/460 462/462/462 463/463/463
f 464/464/464 465/465/465 466/466/466
f 464/464/464 466/466/466 467/467/467
f 468/468/468 469/469/469 470/470/470
f 468/468/468 470/470/470 471/471/471
f 472/472/472 473/473/473 474/474/474
f 474/474/474 475/475/475 472/472/472
f 475/475/475 476/476/476 472/472/472
f 475/475/475 477/477/477 476/476/476
f 478/478/478 479/479/479 480/480/480
f 478/478/478 480/480/480 481/481/481
f 481/481/481 482/482/482 478/478/478
f 481/481/481 483/483/483 482/482/482
f 484/484/484 483/483/483 481/481/481
f 484/484/484 481/481/481 485/485/485
f 485/485/485 481/481/481 480/480/480
f 485/485/485 480/480/480 486/486/486
f 487/487/487 488/488/488 489/489/489
f 487/487/487 489/489/489 490/490/490
f 490/490/490 491/491/491 487/487/487
f 490/490/490 492/492/492 491/491/491
f 493/493/493 494/494/494 495/495/495
f 493/493/493 495/495/495 496/496/496
f 493/493/493 496/496/496 497/497/497
f 493/493/493 497/497/497 498/498/498
f 499/499/499 500/500/500 501/501/501
f 499/499/499 501/501/501 502/502/502
f 503/503/503 499/499/499 502/502/502
f 503/503/503 502/502/502 504/504/504
f 505/505/505 506/506/506 507/507/507
f 505/505/505 507/507/507 508/508/508
f 508/508/508 507/507/507 509/509/509
f 508/508/508 509/509/509 510/510/510
f 511/511/511 512/512/512 513/513/513
f 511/511/511 513/513/513 514/514/514
f 515/515/515 511/511/511 514/514/514
f 515/515/515 514/514/514 516/516/516
f 514/514/514 517/517/517 516/516/516
f 514/514/514 518/518/518 517/517/517
f 518/518/518 514/514/514 513/513/513
f 518/518/518 513/513/513 519/519/519
f 520/520/520 521/521/521 522/522/522
f 520/520/520 522/522/522 523/523/523
f 524/524/524 520/520/520 523/523/523
f 524/524/524 523/523/523 525/525/525
f 526/526/526 527/527/527 528/528/528
f 526/526/526 528/528/528 529/529/529
f 530/530/530 526/526/526 529/529/529
f 530/530/530 529/529/529 531/531/531
f 532/532/532 533/533/533 534/534/534
f 532/532/532 534/534/534 535/535/535
f 535/535/535 534/534/534 536/536/536
f 535/535/535 536/536/536 537/537/537
f 538/538/538 539/539/539 540/540/540
f 538/538/538 540/540/540 541/541/541
f 542/542/542 538/538/538 541/541/541
f 541/541/541 540/540/540 543/543/543
f 542/542/542 541/541/541 544/544/544
f 541/541/541 543/543/543 545/545/545
f 544/544/544 541/541/541 545/545/545
f 544/544/544 545/545/545 546/546/546
f 547/547/547 548/548/548 549/549/549
f 547/547/547 549/549/549 550/550/550
f 551/551/551 547/547/547 550/550/550
f 550/550/550 549/549/549 552/552/552
f 551/551/551 550/550/550 553/553/553
f 550/550/550 552/552/552 554/554/554
f 553/553/553 550/550/550 554/554/554
f 553/553/553 554/554/554 555/555/555
f 556/556/556 557/557/557 558/558/558
f 556/556/556 558/558/558 559/559/559
f 559/559/559 558/558/558 560/560/560
f 559/559/559 560/560/560 561/561/561
f 562/562/562 563/563/563 564/564/564
f 562/562/562 564/564/564 565/565/565
f 566/566/566 562/562/562 565/565/565
f 566/566/566 565/565/565 567/567/567
f 568/568/568 569/569/569 570/570/570
f 570/570/570 571/571/571 568/568/568
f 570/570/570 572/572/572 571/571/571
f 572/572/572 573/573/573 571/571/571
f 572/572/572 574/574/574 573/573/573
f 574/574/574 575/575/575 573/573/573
f 574/574/574 576/576/576 575/575/575
f 576/576/576 577/577/577 575/575/575
f 577/577/577 578/578/578 575/575/575
f 577/577/577 579/579/579 578/578/578
f 579/579/579 580/580/580 578/578/578
f 579/579/579 581/581/581 580/580/580
f 579/579/579 582/582/582 581/581/581
f 583/583/583 584/584/584 585/585/585
f 583/583/583 586/586/586 584/584/584
f 587/587/587 586/586/586 583/583/583
f 587/587/587 588/588/588 586/586/586
f 589/589/589 588/588/588 587/587/587
f 589/589/589 587/587/587 590/590/590
f 591/591/591 592/592/592 593/593/593
f 591/591/591 594/594/594 592/592/592
f 594/594/594 595/595/595 592/592/592
f 594/594/594 596/596/596 595/595/595
f 594/594/594 597/597/597 596/596/596
f 594/594/594 598/598/598 597/597/597
f 598/598/598 594/594/594 591/591/591
f 598/598/598 591/591/591 599/599/599
f 600/600/600 601/601/601 602/602/602
f 600/600/600 603/603/603 601/601/601
f 601/601/601 603/603/603 604/604/604
f 601/601/601 604/604/604 605/605/605
f 606/606/606 607/607/607 608/608/608
f 606/606/606 609/609/609 607/607/607
f 609/609/609 606/606/606 610/610/610
f 609/609/609 610/610/610 611/611/611
f 612/612/612 613/613/613 614/614/614
f 614/614/614 615/615/615 612/612/612
f 615/615/615 616/616/616 612/612/612
f 615/615/615 617/617/617 616/616/616
f 618/618/618 619/619/619 620/620/620
f 618/618/618 620/620/620 621/621/621
f 622/622/622 618/618/618 621/621/621
f 623/623/623 622/622/622 621/621/621
f 621/621/621 624/624/624 623/623/623
f 623/623/623 625/625/625 622/622/622
f 623/623/623 626/626/626 625/625/625
f 626/626/626 627/627/627 625/625/625
f 626/626/626 628/628/628 627/627/627
f 628/628/628 629/629/629 627/627/627
f 628/628/628 630/630/630 629/629/629
f 630/630/630 631/631/631 632/632/632
f 632/632/632 633/633/633 630/630/630
f 632/632/632 634/634/634 633/633/633
f 632/632/632 635/635/635 634/634/634
f 636/636/636 637/637/637 638/638/638
f 638/638/638 639/639/639 636/636/636
f 639/639/639 640/640/640 636/636/636
f 639/639/639 641/641/641 640/640/640
f 639/639/639 642/642/642 641/641/641
f 642/642/642 643/643/643 641/641/641
f 642/642/642 644/644/644 643/643/643
f 644/644/644 645/645/645 643/643/643
f 644/644/644 646/646/646 645/645/645
f 646/646/646 647/647/647 645/645/645
f 648/648/648 649/649/649 650/650/650
f 648/648/648 650/650/650 651/651/651
f 648/648/648 651/651/651 652/652/652
f 653/653/653 648/648/648 652/652/652
f 652/652/652 654/654/654 653/653/653
f 652/652/652 655/655/655 654/654/654
f 652/652/652 656/656/656 655/655/655
f 656/656/656 657/657/657 655/655/655
f 656/656/656 658/658/658 657/657/657
f 658/658/658 659/659/659 657/657/657
f 658/658/658 660/660/660 659/659/659
f 661/661/661 659/659/659 662/662/662
f 662/662/662 663/663/663 661/661/661
f 662/662/662 664/664/664 663/663/663
f 662/662/662 665/665/665 664/664/664
f 666/666/666 667/667/667 668/668/668
f 668/668/668 669/669/669 666/666/666
f 669/669/669 670/670/670 666/666/666
f 670/670/670 671/671/671 666/666/666
f 672/672/672 673/673/673 674/674/674
f 674/674/674 675/675/675 672/672/672
f 675/675/675 676/676/676 672/672/672
f 676/676/676 677/677/677 672/672/672
f 678/678/678 679/679/679 680/680/680
f 680/680/680 681/681/681 678/678/678
f 681/681/681 682/682/682 678/678/678
f 681/681/681 683/683/683 682/682/682
f 684/684/684 685/685/685 686/686/686
f 684/684/684 686/686/686 687/687/687
f 688/688/688 689/689/689 690/690/690
f 688/688/688 690/690/690 691/691/691
f 692/692/692 693/693/693 694/694/694
f 692/692/692 694/694/694 695/695/695
f 696/696/696 697/697/697 698/698/698
f 696/696/696 698/698/698 699/699/699
f 700/700/700 701/701/701 702/702/702
f 700/700/700 702/702/702 703/703/703
f 704/704/704 705/705/705 706/706/706
f 704/704/704 706/706/706 707/707/707
f 708/708/708 709/709/709 710/710/710
f 711/711/711 709/709/709 708/708/708
f 710/710/710 712/712/712 708/708/708
f 711/711/711 708/708/708 713/713/713
f 712/712/712 710/710/710 714/714/714
f 715/715/715 711/711/711 713/713/713
f 716/716/716 712/712/712 714/714/714
f 715/715/715 713/713/713 717/717/717
f 716/716/716 714/714/714 718/718/718
f 719/719/719 715/715/715 717/717/717
f 718/718/718 720/720/720 716/716/716
f 719/719/719 717/717/717 721/721/721
f 720/720/720 718/718/718 722/722/722
f 723/723/723 719/719/719 721/721/721
f 724/724/724 720/720/720 722/722/722
f 723/723/723 721/721/721 725/725/725
f 724/724/724 722/722/722 726/726/726
f 727/727/727 723/723/723 725/725/725
f 728/728/728 724/724/724 726/726/726
f 727/727/727 725/725/725 729/729/729
f 728/728/728 726/726/726 730/730/730
f 731/731/731 728/728/728 730/730/730
f 732/732/732 731/731/731 730/730/730
f 732/732/732 730/730/730 733/733/733
f 734/734/734 732/732/732 733/733/733
f 734/734/734 733/733/733 735/735/735
f 736/736/736 734/734/734 735/735/735
f 736/736/736 735/735/735 737/737/737
f 738/738/738 736/736/736 737/737/737
f 738/738/738 737/737/737 739/739/739
f 740/740/740 738/738/738 739/739/739
f 740/740/740 739/739/739 741/741/741
f 742/742/742 740/740/740 741/741/741
f 742/742/742 741/741/741 743/743/743
f 744/744/744 742/742/742 743/743/743
f 743/743/743 745/745/745 744/744/744
f 744/744/744 745/745/745 746/746/746
f 746/746/746 747/747/747 744/744/744
f 746/746/746 748/748/748 747/747/747
f 748/748/748 749/749/749 747/747/747
f 748/748/748 750/750/750 749/749/749
f 750/750/750 751/751/751 749/749/749
f 750/750/750 752/752/752 751/751/751
f 752/752/752 753/753/753 751/751/751
f 752/752/752 729/729/729 753/753/753
f 752/752/752 727/727/727 729/729/729
f 754/754/754 755/755/755 756/756/756
f 757/757/757 755/755/755 754/754/754
f 754/754/754 756/756/756 758/758/758
f 757/757/757 754/754/754 759/759/759
f 754/754/754 758/758/758 760/760/760
f 761/761/761 759/759/759 754/754/754
f 754/754/754 760/760/760 762/762/762
f 761/761/761 754/754/754 762/762/762
f 763/763/763 764/764/764 765/765/765
f 763/763/763 766/766/766 764/764/764
f 767/767/767 763/763/763 765/765/765
f 763/763/763 768/768/768 766/766/766
f 767/767/767 769/769/769 763/763/763
f 763/763/763 770/770/770 768/768/768
f 771/771/771 763/763/763 769/769/769
f 771/771/771 770/770/770 763/763/763
