# ei_moai_head_mask (gear rip -> Godot: Z negated + winding reversed)
v -0.442697 -0.044692 -0.412457
v -0.446511 -0.132483 -0.323857
v -0.471511 -0.083515 -0.323857
v -0.471511 -0.083515 -0.323857
v -0.471511 -0.067192 -0.323857
v -0.471511 0.112357 -0.323857
v -0.446511 0.161324 -0.323857
v -0.442697 0.073534 -0.412457
v -0.471511 0.112357 -0.323857
v -0.471511 0.096034 -0.323857
v -0.899756 0.259260 0.077080
v -0.898006 0.259260 0.244475
v -0.856197 0.287726 0.244475
v -0.899756 -0.230419 0.077080
v -0.857947 -0.281385 0.077080
v -0.856198 -0.258885 0.244474
v -0.471511 -0.083515 -0.323857
v -0.446511 -0.132483 -0.323857
v -0.703113 -0.132483 -0.192100
v -0.446511 -0.132483 -0.323857
v -0.703113 -0.230419 -0.192100
v -0.446511 -0.230419 -0.323857
v -0.471511 -0.083515 -0.323857
v -0.703113 -0.083515 -0.192099
v -0.471511 -0.067192 -0.323857
v -0.703113 -0.044692 -0.192099
v -0.318210 -0.132483 -0.327236
v -0.446511 -0.132483 -0.323857
v -0.199910 -0.230419 -0.330615
v -0.264060 -0.085192 -0.328925
v -0.231985 -0.083515 -0.329770
v -0.199910 -0.083515 -0.330615
v -0.231985 -0.067192 -0.329770
v -0.264060 -0.067192 -0.343923
v -0.231985 0.096034 -0.329770
v -0.264060 -0.067192 -0.343923
v -0.264060 0.096034 -0.343923
v -0.199909 0.259260 -0.330614
v -0.296135 -0.067192 -0.328081
v -0.264060 -0.067192 -0.343923
v -0.264060 0.114034 -0.328925
v -0.264060 0.096034 -0.343923
v -0.318210 0.112357 -0.327236
v -0.296135 0.096034 -0.328080
v -0.264060 -0.067192 -0.343923
v -0.264060 0.096034 -0.343923
v -0.264060 0.096034 -0.343923
v -0.296135 0.112357 -0.328080
v -0.318210 0.161324 -0.327236
v -0.446511 0.259260 -0.323857
v -0.446511 0.161324 -0.323857
v -0.339396 -0.044692 -0.415835
v -0.446511 -0.132483 -0.323857
v -0.442697 -0.044692 -0.412457
v -0.446511 0.161324 -0.323857
v -0.703113 0.161324 -0.192099
v -0.703113 0.259260 -0.192099
v -0.471511 0.112357 -0.323857
v -0.446511 0.161324 -0.323857
v -0.471511 0.112357 -0.323857
v -0.703113 0.112356 -0.192099
v -0.471511 0.096034 -0.323857
v -0.703113 0.073534 -0.192099
v -0.339396 0.073534 -0.415835
v -0.446511 0.161324 -0.323857
v -0.442697 0.073534 -0.412457
v -0.442697 -0.044692 -0.412457
v -0.442697 0.073534 -0.412457
v -0.899756 0.259260 0.077080
v -0.856197 0.287726 0.244475
v -0.857947 0.310226 0.077080
v -0.899756 -0.230419 0.077080
v -0.856198 -0.258885 0.244474
v -0.898007 -0.230419 0.244474
v -0.318210 0.112357 -0.327236
v -0.339396 0.073534 -0.415835
v -0.318210 0.161324 -0.327236
v -0.339396 -0.044692 -0.415835
v -0.318210 -0.132483 -0.327236
v -0.342972 -0.230419 -0.010584
v -0.361969 -0.230419 0.234018
v -0.361969 -0.258886 0.234018
v -0.342972 -0.281385 -0.010584
v -0.700833 0.259260 0.077107
v -0.899756 0.259260 0.077080
v -0.857947 0.310226 0.077080
v -0.700833 0.310226 0.077107
v -0.462259 0.259260 0.000557
v -0.462259 0.310226 0.000557
v -0.342971 0.259260 -0.010584
v -0.342971 0.310226 -0.010584
v -0.442697 0.073534 -0.412457
v -0.442697 -0.044692 -0.412457
v -0.699299 -0.022192 -0.280699
v -0.699299 0.051034 -0.280699
v -0.860206 -0.067192 -0.255726
v -0.703113 -0.230419 -0.267100
v -0.860227 -0.230419 -0.242126
v -0.860227 0.259260 -0.242126
v -0.703113 0.259260 -0.267099
v -0.471511 -0.067192 -0.323857
v -0.703113 -0.044692 -0.192099
v -0.699299 -0.022192 -0.280699
v -0.442697 -0.044692 -0.412457
v -0.471511 0.096034 -0.323857
v -0.442697 0.073534 -0.412457
v -0.699299 0.051034 -0.280699
v -0.703113 0.073534 -0.192099
v -0.898006 0.259260 0.244475
v -0.699084 0.287726 0.244501
v -0.856197 0.287726 0.244475
v -0.898007 -0.230419 0.244474
v -0.699084 -0.258885 0.244501
v -0.856198 -0.258885 0.244474
v -0.333876 0.112356 0.229744
v -0.361969 -0.230419 0.234018
v -0.361969 -0.258886 0.234018
v -0.305783 0.112356 0.225470
v -0.209598 -0.230419 0.216922
v -0.209597 0.259260 0.216922
v -0.330783 0.161324 0.225470
v -0.305783 0.259260 0.225471
v -0.333876 0.259260 0.229745
v -0.333876 0.161324 0.229744
v -0.361969 0.259260 0.234019
v -0.361969 0.287726 0.234019
v -0.902036 -0.230419 -0.192126
v -0.860206 -0.067192 -0.255726
v -0.860227 -0.230419 -0.242126
v -0.860227 0.259260 -0.242126
v -0.902036 0.259260 -0.192126
v -0.860206 -0.067192 -0.255726
v -0.899756 0.259260 0.077080
v -0.899756 -0.230419 0.077080
v -0.898007 -0.230419 0.244474
v -0.898006 0.259260 0.244475
v -0.462259 -0.230419 0.000557
v -0.342972 -0.230419 -0.010584
v -0.342972 -0.281385 -0.010584
v -0.462259 -0.281385 0.000557
v -0.700833 -0.230419 0.077106
v -0.700833 -0.281385 0.077106
v -0.857947 -0.281385 0.077080
v -0.899756 -0.230419 0.077080
v -0.342971 0.259260 -0.010584
v -0.342971 0.310226 -0.010584
v -0.361969 0.287726 0.234019
v -0.361969 0.259260 0.234019
v -0.330783 0.161324 0.225470
v -0.333876 0.161324 0.229744
v -0.333876 0.112356 0.229744
v -0.333876 0.259260 0.229745
v -0.361969 -0.230419 0.234018
v -0.342972 -0.230419 -0.010584
v -0.209598 -0.230419 0.216922
v -0.199910 -0.230419 -0.330615
v -0.446511 -0.230419 -0.323857
v -0.462259 -0.230419 0.000557
v -0.703113 -0.230419 -0.192100
v -0.700833 -0.230419 0.077106
v -0.899756 -0.230419 0.077080
v -0.902036 -0.230419 -0.192126
v -0.860227 -0.230419 -0.242126
v -0.703113 -0.230419 -0.267100
v -0.703113 0.259260 -0.192099
v -0.703113 0.161324 -0.192099
v -0.703113 0.259260 -0.267099
v -0.699299 0.051034 -0.280699
v -0.703113 0.112356 -0.192099
v -0.703113 0.073534 -0.192099
v -0.703113 -0.083515 -0.192099
v -0.699299 -0.022192 -0.280699
v -0.703113 -0.044692 -0.192099
v -0.703113 -0.132483 -0.192100
v -0.703113 -0.230419 -0.267100
v -0.703113 -0.230419 -0.192100
v -0.342972 -0.281385 -0.010584
v -0.361969 -0.258886 0.234018
v -0.462259 -0.281385 0.000557
v -0.699084 -0.258885 0.244501
v -0.700833 -0.281385 0.077106
v -0.856198 -0.258885 0.244474
v -0.857947 -0.281385 0.077080
v -0.333876 0.259260 0.229745
v -0.342971 0.259260 -0.010584
v -0.361969 0.259260 0.234019
v -0.305783 0.259260 0.225471
v -0.209597 0.259260 0.216922
v -0.199909 0.259260 -0.330614
v -0.446511 0.259260 -0.323857
v -0.462259 0.259260 0.000557
v -0.703113 0.259260 -0.192099
v -0.700833 0.259260 0.077107
v -0.899756 0.259260 0.077080
v -0.902036 0.259260 -0.192126
v -0.860227 0.259260 -0.242126
v -0.703113 0.259260 -0.267099
v -0.462259 0.310226 0.000557
v -0.361969 0.287726 0.234019
v -0.342971 0.310226 -0.010584
v -0.699084 0.287726 0.244501
v -0.700833 0.310226 0.077107
v -0.856197 0.287726 0.244475
v -0.857947 0.310226 0.077080
v -0.199910 -0.083515 -0.330615
v -0.208229 -0.177652 -0.268985
v -0.199910 -0.230419 -0.330615
v -0.209598 -0.230419 0.216922
v -0.208229 0.206493 -0.268985
v -0.199909 0.259260 -0.330614
v -0.209597 0.259260 0.216922
v -0.205053 -0.177652 0.200596
v -0.205053 0.206493 0.200596
vt 1.39527428 1.57717216
vt 1.39527428 1.33078074
vt 1.32425964 1.4031297
vt 1.32425964 1.4031297
vt 1.30167425 1.42824137
vt 1.41785991 1.50482309
vt 1.48887444 1.57717216
vt 1.48887455 1.33078074
vt 1.41785991 1.50482309
vt 1.39527428 1.47971129
vt 1.75843477 1.57313049
vt 1.68385828 1.79757965
vt 1.75843477 1.82312167
vt 1.28674769 0.299027801
vt 1.3919189 0.299027681
vt 1.32940173 0.0675201416
vt 0.880838275 -0.207542539
vt 0.981643438 -0.161502123
vt 0.981749892 -0.676930428
vt 0.981643438 -0.161502123
vt 1.18334937 -0.676930428
vt 1.1832428 -0.161502123
vt 0.880838275 -0.207542539
vt 0.880950212 -0.676930428
vt 0.847238183 -0.207542539
vt 0.801034331 -0.676930428
vt 0.981667161 0.0758793354
vt 0.981643438 -0.161502123
vt 1.18329048 0.313260674
vt 0.88433218 0.194570065
vt 0.880885243 0.25391531
vt 0.880891263 0.313260674
vt 0.847285271 0.25391531
vt 0.847260952 0.199449539
vt 0.511286318 0.253915429
vt 0.847260952 0.199449539
vt 0.511261761 0.199449599
vt 0.175293207 0.313260823
vt 0.847273588 0.1352247
vt 0.847260952 0.199449539
vt 0.474227548 0.194570005
vt 0.511261761 0.199449599
vt 0.477668464 0.0758792758
vt 0.511274397 0.13522476
vt 0.847260952 0.199449539
vt 0.511261761 0.199449599
vt 0.511261761 0.199449599
vt 0.477674425 0.13522476
vt 0.376868784 0.0758792758
vt 0.175245583 -0.161502182
vt 0.376845002 -0.161502182
vt 0.800837755 0.0656863451
vt 0.981643438 -0.161502123
vt 0.800819159 -0.125654519
vt 0.376845002 -0.161502182
vt 0.376951575 -0.676930428
vt 0.175352216 -0.676930428
vt 0.477639258 -0.207542717
vt 0.376845002 -0.161502182
vt 0.477639258 -0.207542717
vt 0.477751374 -0.676930189
vt 0.511239111 -0.207542598
vt 0.557667136 -0.676930428
vt 0.557470322 0.0656862855
vt 0.376845002 -0.161502182
vt 0.557452023 -0.125654399
vt 0.800819159 -0.125654519
vt 0.557452023 -0.125654399
vt 1.28674769 0.302997708
vt 1.28674769 0.0675201416
vt 1.18334937 0.283585668
vt 1.75859118 1.57313025
vt 1.75859118 1.32318306
vt 1.68385828 1.34873998
vt -0.0960932374 1.78802538
vt -0.2569049 1.70735431
vt -0.0960933566 1.88977718
vt -0.25690496 1.46168804
vt -0.096093297 1.2792654
vt 1.19676077 1.33078074
vt 1.19676077 1.63738322
vt 1.25535834 1.63738322
vt 1.30167425 1.33078086
vt 1.84504938 -0.262423992
vt 1.84509683 0.103907943
vt 1.95000029 0.0269104242
vt 1.94996285 -0.262425184
vt 1.84508657 -0.726691961
vt 1.95000005 -0.726693034
vt 1.84507203 -0.949998736
vt 1.94998527 -0.949999809
vt 0.557452023 -0.125654399
vt 0.800819159 -0.125654519
vt 0.754609823 -0.641082525
vt 0.603874564 -0.641082525
vt 0.847237587 -0.945536613
vt 1.18325686 -0.652531147
vt 1.18325353 -0.949999928
vt 0.175256252 -0.949999809
vt 0.17525959 -0.652530909
vt 1.68385851 1.82266295
vt 1.68385828 1.32318294
vt 1.54476476 1.40990269
vt 1.56767297 1.95000017
vt 0.0430092812 1.40676117
vt -0.0731858015 1.2792654
vt -0.0960932374 1.81926298
vt 0.0430092216 1.9061377
vt -0.891416907 0.269299269
vt -0.949945569 -0.100349486
vt -0.949999809 0.191606522
vt 0.116579533 0.269299299
vt 0.175245583 -0.100349247
vt 0.175191283 0.191606432
vt -0.588992596 -0.790690303
vt 0.116608024 -0.737587214
vt 0.175205588 -0.737587214
vt -0.588996053 -0.843793511
vt 0.116594791 -0.949999809
vt -0.891401529 -0.94999969
vt -0.689804196 -0.797336459
vt -0.891394854 -0.843793273
vt -0.891391516 -0.790690303
vt -0.689792275 -0.790690541
vt -0.891388178 -0.737587094
vt -0.949985504 -0.737587094
vt 1.308007 0.0675200224
vt 1.18334937 -0.271653175
vt 1.20843458 0.0675200224
vt 1.20843434 -0.949999571
vt 1.30800653 -0.94999969
vt 1.18334937 -0.271653175
vt 1.61189532 -0.94999969
vt 1.61189532 0.067519784
vt 1.84504938 0.067519784
vt 1.8450489 -0.950000048
vt 0.15465647 0.492606193
vt 0.154644489 0.269299537
vt 0.0497310162 0.269299299
vt 0.0497430563 0.492606014
vt 0.154613405 0.956874192
vt 0.0497000515 0.956874073
vt 0.0497339964 1.24620962
vt 0.154656291 1.32320642
vt 0.0497000217 1.6298089
vt 0.154613614 1.6298089
vt 0.108297467 1.32320666
vt 0.0497000217 1.32320642
vt 0.15465647 0.371051222
vt 0.162974715 0.371051222
vt 0.162974715 0.269299299
vt 0.162974715 0.574555159
vt 0.175245583 0.65319103
vt 0.476141572 0.609783709
vt 0.201423883 0.442350179
vt 0.868324101 0.313260794
vt 0.868324041 0.793153167
vt 0.461328357 0.833260477
vt 0.636851907 1.27910638
vt 0.331209689 1.2828449
vt 0.340959311 1.65461135
vt 0.646601439 1.65087247
vt 0.737151563 1.57031107
vt 0.77573514 1.27547002
vt 1.19676065 1.76346087
vt 1.19676054 1.55995703
vt 1.05818915 1.76346087
vt 1.03254235 1.33078074
vt 1.19676077 1.45820522
vt 1.19676077 1.37753415
vt 1.03254259 1.63603663
vt 0.868324161 1.76346087
vt 1.03254247 1.71670747
vt 1.03254259 1.53428459
vt 0.893970847 1.33078074
vt 1.03254235 1.33078074
vt -0.244071245 1.2792654
vt 0.0497000217 1.19715214
vt -0.25690496 1.05566406
vt 0.0496999025 0.559680939
vt -0.183184326 0.593234718
vt 0.00587457418 0.269299269
vt -0.227009594 0.302852958
vt -0.94345516 1.32348537
vt -0.649096906 1.31420565
vt -0.949999869 1.27077127
vt -0.936910331 1.37619972
vt -0.923821032 1.48162782
vt -0.256905079 1.61077881
vt -0.256905079 1.13085532
vt -0.663910449 1.09071326
vt -0.488382757 0.644852281
vt -0.794032216 0.641088963
vt -0.784282207 0.269299269
vt -0.478632867 0.273062766
vt -0.388080657 0.353636444
vt -0.349496096 0.648499966
vt 1.54476476 0.536877871
vt 1.85131431 0.395264387
vt 1.55759859 0.313260794
vt 1.85131431 1.03278303
vt 1.6184864 0.999346375
vt 1.80748868 1.32318282
vt 1.57466054 1.28974676
vt 1.54476452 1.0255245
vt 1.42976344 1.22113395
vt 1.54476452 1.33078039
vt 0.868324518 1.33078074
vt 1.42976332 0.422907233
vt 1.54476452 0.313260794
vt 0.868324101 0.313260913
vt 0.899107695 1.22113419
vt 0.899107456 0.422907323
vn -0.796296 -0.133962 -0.589887
vn -0.567987 -0.151298 -0.809012
vn -0.683873 -0.123740 -0.719031
vn -0.737396 -0.100072 -0.668007
vn -0.687754 0.000001 -0.725944
vn -0.683873 0.123741 -0.719031
vn -0.601344 0.202800 -0.772824
vn -0.722515 0.100815 -0.683965
vn -0.737396 0.100073 -0.668007
vn -0.687754 0.000001 -0.725944
vn -0.382628 0.923476 0.028060
vn -0.603309 0.797483 0.006305
vn -0.382630 0.917501 0.108568
vn -0.925407 -0.377524 0.033135
vn -0.800731 -0.591174 0.096658
vn -0.710027 -0.702247 0.052068
vn -0.586040 -0.150873 -0.796112
vn -0.355592 -0.305114 -0.883436
vn -0.468416 -0.068809 -0.880824
vn -0.469575 -0.123587 -0.874200
vn -0.456775 0.000001 -0.889583
vn -0.174015 0.000430 -0.984743
vn -0.683873 -0.123740 -0.719031
vn -0.494479 0.000001 -0.869189
vn -0.687754 0.000001 -0.725944
vn -0.494479 0.000001 -0.869189
vn -0.029328 -0.116770 -0.992726
vn -0.257982 -0.279803 -0.924746
vn -0.027469 -0.000033 -0.999623
vn -0.025892 -0.200452 -0.979361
vn -0.026325 0.000001 -0.999653
vn -0.026326 0.000001 -0.999653
vn 0.138498 -0.119147 -0.983169
vn 0.214853 -0.312415 -0.925330
vn 0.185830 0.099057 -0.977576
vn 0.395840 -0.196388 -0.897074
vn 0.385592 0.296153 -0.873849
vn -0.027469 0.000035 -0.999623
vn -0.192199 -0.117195 -0.974333
vn -0.255795 -0.312323 -0.914890
vn -0.025602 0.200453 -0.979369
vn 0.137329 0.418106 -0.897958
vn -0.038236 0.000001 -0.999269
vn -0.236800 0.097439 -0.966660
vn -0.434485 -0.193445 -0.879660
vn -0.423595 0.291664 -0.857613
vn -0.177609 0.417996 -0.890918
vn -0.032350 0.000001 -0.999477
vn -0.029046 0.116772 -0.992734
vn -0.247999 -0.000322 -0.968760
vn -0.210902 0.336039 -0.917932
vn -0.027063 -0.477190 -0.878384
vn -0.138730 -0.416332 -0.898566
vn -0.101318 -0.452891 -0.885790
vn -0.471775 0.156701 -0.867683
vn -0.465711 0.051568 -0.883433
vn -0.456775 0.000001 -0.889582
vn -0.586041 0.150874 -0.796111
vn -0.332709 0.358456 -0.872247
vn -0.683873 0.123741 -0.719031
vn -0.494479 0.000001 -0.869189
vn -0.687754 0.000001 -0.725944
vn -0.494479 0.000001 -0.869190
vn -0.029228 0.360858 -0.932163
vn -0.138730 0.416333 -0.898566
vn -0.121581 0.599063 -0.791418
vn -0.146448 -0.180021 -0.972700
vn -0.261456 0.180949 -0.948102
vn -0.968224 0.248809 0.025228
vn -0.710026 0.702247 0.052069
vn -0.800731 0.591174 0.096659
vn -0.382629 -0.923476 0.028059
vn -0.382630 -0.917501 0.108567
vn -0.603309 -0.797482 0.006304
vn 0.972581 0.000000 -0.232564
vn 0.972581 0.000000 -0.232564
vn 0.972581 0.000000 -0.232564
vn 0.972581 0.000000 -0.232564
vn 0.972581 0.000000 -0.232563
vn 0.996997 -0.000000 0.077434
vn 0.996997 -0.000000 0.077434
vn 0.996997 -0.000000 0.077434
vn 0.996997 -0.000000 0.077434
vn -0.102940 0.000001 -0.994688
vn 0.000000 0.000001 -1.000000
vn 0.000000 0.000001 -1.000000
vn -0.205880 0.000001 -0.978577
vn -0.235914 0.000001 -0.971774
vn -0.164697 0.000001 -0.986344
vn -0.092990 0.000001 -0.995667
vn -0.092990 0.000001 -0.995667
vn -0.606408 0.083594 -0.790747
vn -0.529455 -0.086523 -0.843914
vn -0.304976 -0.014169 -0.952255
vn -0.239584 0.023268 -0.970597
vn -0.382125 -0.020656 -0.923880
vn -0.146364 -0.064871 -0.987101
vn -0.492624 -0.065016 -0.867810
vn -0.389923 0.040961 -0.919936
vn -0.156741 0.055380 -0.986086
vn -0.259137 -0.915863 -0.306664
vn -0.255285 -0.927603 -0.272731
vn -0.259137 -0.915863 -0.306664
vn -0.148548 -0.815341 -0.559601
vn -0.259136 0.915864 -0.306662
vn -0.148547 0.815342 -0.559599
vn -0.259136 0.915864 -0.306662
vn -0.255284 0.927604 -0.272729
vn -0.000067 -0.000001 1.000000
vn 0.019951 -0.004573 0.999791
vn -0.000000 -0.000001 1.000000
vn -0.000089 -0.000001 1.000000
vn 0.020314 0.001797 0.999792
vn -0.000000 -0.000001 1.000000
vn 0.082447 0.015616 0.996473
vn 0.080917 0.003715 0.996714
vn 0.031080 -0.000001 0.999517
vn 0.110187 0.019562 0.993718
vn 0.100017 0.002927 0.994981
vn 0.075653 0.000858 0.997134
vn 0.109875 0.009262 0.993902
vn 0.119472 -0.027449 0.992458
vn 0.150386 -0.017271 0.988477
vn 0.073068 -0.010684 0.997270
vn 0.069973 -0.010685 0.997492
vn 0.031080 -0.000001 0.999517
vn -0.950744 -0.012659 -0.309720
vn -0.460512 -0.017954 -0.887472
vn -0.492624 -0.065016 -0.867810
vn -0.389923 0.040961 -0.919936
vn -0.910410 0.008396 -0.413622
vn -0.791068 -0.008001 -0.611676
vn -0.992119 0.122177 0.027796
vn -0.977643 -0.206366 0.040346
vn -0.999945 0.000000 0.010450
vn -0.999945 0.000000 0.010450
vn -0.164697 0.000001 -0.986344
vn -0.092990 0.000001 -0.995667
vn -0.092990 0.000001 -0.995667
vn -0.235914 0.000001 -0.971774
vn -0.154620 0.000001 -0.987974
vn -0.154620 0.000001 -0.987974
vn 0.000000 0.000001 -1.000000
vn 0.000000 0.000001 -1.000000
vn 0.996997 -0.000000 0.077434
vn 0.996997 -0.000000 0.077434
vn 0.996997 -0.000000 0.077434
vn 0.996997 -0.000000 0.077434
vn 0.810131 -0.000001 0.586249
vn 0.810131 -0.000001 0.586249
vn 0.810131 -0.000001 0.586249
vn 0.810131 -0.000001 0.586249
vn -0.000000 -1.000000 -0.000001
vn -0.000000 -1.000000 -0.000001
vn -0.000000 -1.000000 -0.000001
vn -0.000000 -1.000000 -0.000001
vn -0.000000 -1.000000 -0.000001
vn -0.000000 -1.000000 -0.000001
vn -0.000000 -1.000000 -0.000001
vn -0.000000 -1.000000 -0.000001
vn -0.210814 -0.977524 0.002202
vn -0.000000 -1.000000 -0.000001
vn -0.000000 -1.000000 -0.000001
vn -0.000000 -1.000000 -0.000001
vn 1.000000 -0.000000 -0.000000
vn 0.999752 0.005062 0.021684
vn 0.999910 0.007593 0.011017
vn 0.999338 0.005062 0.036019
vn 0.999075 -0.000000 0.043009
vn 0.999075 -0.000000 0.043009
vn 0.999075 -0.000000 0.043009
vn 0.999338 -0.005062 0.036019
vn 0.999075 -0.000000 0.043009
vn 0.999752 -0.005063 0.021684
vn 0.999910 -0.007593 0.011017
vn 1.000000 -0.000000 -0.000000
vn 0.009564 -0.994697 0.102407
vn 0.006416 -0.994583 0.103747
vn 0.020014 -0.992784 0.118232
vn 0.016825 -0.990927 0.133344
vn 0.015733 -0.988932 0.147530
vn -0.211218 -0.971714 0.105633
vn -0.000000 -0.989031 0.147709
vn 0.000000 1.000000 0.000001
vn 0.000000 1.000000 0.000001
vn 0.000000 1.000000 0.000001
vn 0.000000 1.000000 0.000001
vn 0.000000 1.000000 0.000001
vn 0.000000 1.000000 0.000001
vn 0.000000 1.000000 0.000001
vn 0.000000 1.000000 0.000001
vn 0.000000 1.000000 0.000001
vn 0.000000 1.000000 0.000001
vn -0.210814 0.977524 0.002204
vn 0.000000 1.000000 0.000001
vn 0.000000 1.000000 0.000001
vn 0.000000 1.000000 0.000001
vn 0.020015 0.992784 0.118234
vn 0.006416 0.994583 0.103749
vn 0.009565 0.994696 0.102408
vn 0.016826 0.990927 0.133345
vn 0.015733 0.988932 0.147532
vn -0.211218 0.971714 0.105634
vn 0.000000 0.989031 0.147711
vn 0.991011 -0.000000 0.133779
vn 0.998992 0.007230 0.044310
vn 0.995220 0.061396 0.075940
vn 0.995460 0.014570 0.094054
vn 0.998473 -0.008680 0.054554
vn 0.995220 -0.061396 0.075939
vn 0.990321 -0.010929 0.138363
vn 0.991041 -0.019990 0.132051
vn 0.997848 0.019940 0.062459
f 1/1/1 2/2/2 3/3/3
f 1/1/1 4/4/4 5/5/5
f 6/6/6 7/7/7 8/8/8
f 9/9/9 8/8/8 10/10/10
f 11/11/11 12/12/12 13/13/13
f 14/14/14 15/15/15 16/16/16
f 17/17/17 18/18/18 19/19/19
f 20/20/20 21/21/21 19/19/19
f 20/20/20 22/22/22 21/21/21
f 23/23/23 19/19/19 24/24/24
f 25/25/25 23/23/23 24/24/24
f 25/25/25 24/24/24 26/26/26
f 27/27/27 22/22/22 28/28/28
f 27/27/27 29/29/29 22/22/22
f 27/27/27 30/30/30 29/29/29
f 29/29/29 30/30/30 31/31/31
f 29/29/29 31/31/31 32/32/32
f 31/31/31 33/33/33 32/32/32
f 31/31/31 30/30/30 33/33/33
f 33/33/33 30/30/30 34/34/34
f 33/33/33 35/35/35 32/32/32
f 35/35/35 33/33/33 36/36/36
f 35/35/35 36/36/36 37/37/37
f 32/32/32 35/35/35 38/38/38
f 30/30/30 27/27/27 39/39/39
f 39/39/39 40/40/40 30/30/30
f 41/41/41 38/38/38 35/35/35
f 41/41/41 35/35/35 42/42/42
f 43/43/43 39/39/39 27/27/27
f 44/44/44 39/39/39 43/43/43
f 44/44/44 45/45/45 39/39/39
f 44/44/44 46/46/46 45/45/45
f 44/44/44 41/41/41 47/47/47
f 44/44/44 43/43/43 48/48/48
f 48/48/48 41/41/41 44/44/44
f 49/49/49 48/48/48 43/43/43
f 49/49/49 41/41/41 48/48/48
f 38/38/38 41/41/41 49/49/49
f 38/38/38 49/49/49 50/50/50
f 50/50/50 49/49/49 51/51/51
f 52/52/52 27/27/27 53/53/53
f 52/52/52 53/53/53 54/54/54
f 50/50/50 55/55/55 56/56/56
f 50/50/50 56/56/56 57/57/57
f 58/58/58 56/56/56 59/59/59
f 60/60/60 61/61/61 56/56/56
f 62/62/62 61/61/61 60/60/60
f 62/62/62 63/63/63 61/61/61
f 64/64/64 65/65/65 49/49/49
f 64/64/64 66/66/66 65/65/65
f 64/64/64 52/52/52 67/67/67
f 64/64/64 67/67/67 68/68/68
f 69/69/69 70/70/70 71/71/71
f 72/72/72 73/73/73 74/74/74
f 75/75/75 76/76/76 77/77/77
f 76/76/76 75/75/75 78/78/78
f 78/78/78 75/75/75 79/79/79
f 80/80/80 81/81/81 82/82/82
f 80/80/80 82/82/82 83/83/83
f 84/84/84 85/85/85 86/86/86
f 84/84/84 86/86/86 87/87/87
f 88/88/88 84/84/84 87/87/87
f 88/88/88 87/87/87 89/89/89
f 90/90/90 88/88/88 89/89/89
f 90/90/90 89/89/89 91/91/91
f 92/92/92 93/93/93 94/94/94
f 92/92/92 94/94/94 95/95/95
f 96/96/96 95/95/95 94/94/94
f 97/97/97 96/96/96 94/94/94
f 97/97/97 98/98/98 96/96/96
f 99/99/99 95/95/95 96/96/96
f 95/95/95 99/99/99 100/100/100
f 101/101/101 102/102/102 103/103/103
f 101/101/101 103/103/103 104/104/104
f 105/105/105 106/106/106 107/107/107
f 105/105/105 107/107/107 108/108/108
f 109/109/109 110/110/110 111/111/111
f 112/112/112 110/110/110 109/109/109
f 110/110/110 112/112/112 113/113/113
f 113/113/113 112/112/112 114/114/114
f 113/113/113 115/115/115 110/110/110
f 116/116/116 115/115/115 113/113/113
f 116/116/116 113/113/113 117/117/117
f 115/115/115 116/116/116 118/118/118
f 118/118/118 116/116/116 119/119/119
f 120/120/120 118/118/118 119/119/119
f 121/121/121 115/115/115 118/118/118
f 118/118/118 120/120/120 121/121/121
f 121/121/121 120/120/120 122/122/122
f 121/121/121 122/122/122 123/123/123
f 124/124/124 110/110/110 115/115/115
f 123/123/123 125/125/125 124/124/124
f 125/125/125 110/110/110 124/124/124
f 110/110/110 125/125/125 126/126/126
f 127/127/127 128/128/128 129/129/129
f 130/130/130 128/128/128 131/131/131
f 131/131/131 132/132/132 127/127/127
f 127/127/127 133/133/133 131/131/131
f 134/134/134 133/133/133 127/127/127
f 135/135/135 133/133/133 134/134/134
f 133/133/133 135/135/135 136/136/136
f 137/137/137 138/138/138 139/139/139
f 137/137/137 139/139/139 140/140/140
f 141/141/141 137/137/137 140/140/140
f 141/141/141 140/140/140 142/142/142
f 141/141/141 142/142/142 143/143/143
f 141/141/141 143/143/143 144/144/144
f 145/145/145 146/146/146 147/147/147
f 145/145/145 147/147/147 148/148/148
f 149/149/149 150/150/150 151/151/151
f 149/149/149 152/152/152 150/150/150
f 153/153/153 154/154/154 155/155/155
f 155/155/155 154/154/154 156/156/156
f 156/156/156 154/154/154 157/157/157
f 158/158/158 157/157/157 154/154/154
f 157/157/157 158/158/158 159/159/159
f 160/160/160 159/159/159 158/158/158
f 161/161/161 159/159/159 160/160/160
f 162/162/162 159/159/159 161/161/161
f 163/163/163 159/159/159 162/162/162
f 159/159/159 163/163/163 164/164/164
f 165/165/165 166/166/166 167/167/167
f 167/167/167 166/166/166 168/168/168
f 168/168/168 166/166/166 169/169/169
f 168/168/168 169/169/169 170/170/170
f 171/171/171 172/172/172 173/173/173
f 172/172/172 171/171/171 174/174/174
f 172/172/172 174/174/174 175/175/175
f 175/175/175 174/174/174 176/176/176
f 177/177/177 178/178/178 179/179/179
f 178/178/178 180/180/180 179/179/179
f 179/179/179 180/180/180 181/181/181
f 182/182/182 181/181/181 180/180/180
f 181/181/181 182/182/182 183/183/183
f 184/184/184 185/185/185 186/186/186
f 187/187/187 185/185/185 184/184/184
f 188/188/188 185/185/185 187/187/187
f 189/189/189 185/185/185 188/188/188
f 190/190/190 185/185/185 189/189/189
f 185/185/185 190/190/190 191/191/191
f 192/192/192 191/191/191 190/190/190
f 191/191/191 192/192/192 193/193/193
f 193/193/193 192/192/192 194/194/194
f 192/192/192 195/195/195 194/194/194
f 195/195/195 192/192/192 196/196/196
f 196/196/196 192/192/192 197/197/197
f 198/198/198 199/199/199 200/200/200
f 199/199/199 198/198/198 201/201/201
f 202/202/202 201/201/201 198/198/198
f 201/201/201 202/202/202 203/203/203
f 203/203/203 202/202/202 204/204/204
f 205/205/205 206/206/206 207/207/207
f 207/207/207 206/206/206 208/208/208
f 209/209/209 206/206/206 205/205/205
f 210/210/210 209/209/209 205/205/205
f 209/209/209 210/210/210 211/211/211
f 208/208/208 206/206/206 212/212/212
f 212/212/212 211/211/211 208/208/208
f 209/209/209 211/211/211 213/213/213
f 213/213/213 206/206/206 209/209/209
f 212/212/212 213/213/213 211/211/211
f 212/212/212 206/206/206 213/213/213
