# ei_shark_tooth_necklace_vest (gear rip -> Godot: Z negated + winding reversed)
v -0.642795 -0.066175 -0.217645
v -0.624073 -0.072886 -0.189276
v -0.642795 -0.066175 -0.189276
v -0.624073 -0.072886 -0.217645
v -0.626406 0.123970 -0.207191
v -0.567249 0.000000 -0.160649
v -0.567250 0.000000 -0.207192
v -0.626406 0.123970 -0.160649
v -0.739336 0.198210 -0.207191
v -0.740042 0.198486 -0.160648
v -0.784794 0.198935 -0.207191
v -0.784794 0.198935 -0.048687
v -0.740042 0.198486 -0.048687
v -0.740042 0.096337 0.136214
v -0.784793 0.096474 0.136572
v -0.655996 -0.057680 -0.181749
v -0.655996 -0.057680 -0.214844
v -0.594773 -0.081678 -0.214844
v -0.594773 -0.081678 -0.181749
v -0.619015 0.101363 -0.187335
v -0.553221 0.124632 -0.208228
v -0.553221 0.124632 -0.193699
v -0.619015 0.101363 -0.219017
v -0.658680 0.074397 -0.215789
v -0.658680 0.074397 -0.188098
v -0.619152 -0.018738 -0.227089
v -0.637890 0.000000 -0.215405
v -0.637890 0.000000 -0.227089
v -0.619152 -0.018738 -0.215405
v -0.727897 0.094721 0.051054
v -0.727897 -0.094721 0.051054
v -0.792572 -0.097038 0.051054
v -0.792572 0.097038 0.051054
v -0.594773 0.081679 -0.214844
v -0.644550 0.000000 -0.221145
v -0.655996 0.057681 -0.214844
v -0.552157 0.035441 -0.214844
v -0.491935 0.000000 -0.221146
v -0.552157 -0.035440 -0.214844
v -0.594773 -0.081678 -0.214844
v -0.655996 -0.057680 -0.214844
v -0.619015 0.101363 -0.219017
v -0.650357 0.153579 -0.213667
v -0.553221 0.124632 -0.208228
v -0.658680 0.074397 -0.215789
v -0.706416 0.121036 -0.213054
v -0.650357 0.153579 -0.190220
v -0.553221 0.124632 -0.193699
v -0.553221 0.124632 -0.208228
v -0.650357 0.153579 -0.213667
v -0.716911 0.130733 -0.215788
v -0.692503 0.172021 -0.187335
v -0.716911 0.130733 -0.188098
v -0.692503 0.172021 -0.219016
v -0.644259 0.220771 -0.208228
v -0.644259 0.220771 -0.193698
v -0.743096 -0.205921 -0.190220
v -0.644259 -0.220770 -0.208228
v -0.644259 -0.220770 -0.193699
v -0.743096 -0.205921 -0.213667
v -0.650357 -0.153579 -0.190220
v -0.553221 -0.124632 -0.208228
v -0.553221 -0.124632 -0.193699
v -0.650357 -0.153578 -0.213667
v -0.619152 0.018739 -0.227089
v -0.637890 0.000000 -0.215405
v -0.619152 0.018739 -0.215405
v -0.637890 0.000000 -0.227089
v -0.740042 -0.198486 -0.048688
v -0.739641 -0.079870 0.093420
v -0.740042 -0.096337 0.136214
v -0.739641 -0.154284 -0.048688
v -0.740042 -0.198486 -0.160649
v -0.739641 -0.154283 -0.160649
v -0.779962 -0.152606 -0.190832
v -0.716911 -0.130732 -0.215789
v -0.779962 -0.152606 -0.213055
v -0.716911 -0.130732 -0.188098
v -0.706416 -0.121035 -0.190832
v -0.658680 -0.074397 -0.188098
v -0.658680 -0.074397 -0.215789
v -0.706416 -0.121035 -0.213055
v -0.692503 0.172021 -0.219016
v -0.743096 0.205922 -0.213666
v -0.644259 0.220771 -0.208228
v -0.716911 0.130733 -0.215788
v -0.779962 0.152606 -0.213054
v -0.706416 0.121036 -0.213054
v -0.706416 0.121036 -0.190832
v -0.650357 0.153579 -0.190220
v -0.650357 0.153579 -0.213667
v -0.739336 0.198210 -0.207191
v -0.784794 0.158116 -0.207191
v -0.784794 0.198935 -0.207191
v -0.739641 0.154284 -0.207191
v -0.626406 0.123970 -0.207191
v -0.666507 0.104307 -0.207191
v -0.613792 0.000000 -0.207192
v -0.567250 0.000000 -0.207192
v -0.626406 -0.123969 -0.207192
v -0.666507 -0.104306 -0.207192
v -0.739641 -0.154283 -0.207192
v -0.739336 -0.198209 -0.207192
v -0.784794 -0.158115 -0.207191
v -0.784794 -0.198935 -0.207192
v -0.619152 -0.018738 -0.227089
v -0.637890 0.000000 -0.227089
v -0.619152 0.018739 -0.227089
v -0.600413 0.000000 -0.227089
v -0.743096 0.205922 -0.190219
v -0.743096 0.205922 -0.213666
v -0.779962 0.152606 -0.213054
v -0.779962 0.152606 -0.190832
v -0.731781 0.098051 0.143919
v -0.731781 -0.098051 0.143919
v -0.727897 -0.094721 0.051054
v -0.727897 0.094721 0.051054
v -0.792572 -0.097038 0.051054
v -0.796515 -0.098051 0.143919
v -0.796515 0.098051 0.143919
v -0.792572 0.097038 0.051054
v -0.627691 0.000000 -0.187715
v -0.642794 0.066176 -0.189276
v -0.642795 0.066176 -0.217645
v -0.627691 0.000000 -0.226668
v -0.642795 -0.066175 -0.217645
v -0.642795 -0.066175 -0.189276
v -0.552157 -0.035440 -0.181749
v -0.594773 -0.081678 -0.181749
v -0.594773 -0.081678 -0.214844
v -0.552157 -0.035440 -0.214844
v -0.491935 0.000000 -0.181750
v -0.491935 0.000000 -0.221146
v -0.594773 0.081679 -0.214844
v -0.655996 0.057681 -0.181749
v -0.594773 0.081679 -0.181749
v -0.655996 0.057681 -0.214844
v -0.642795 0.066176 -0.217645
v -0.642794 0.066176 -0.189276
v -0.624073 0.072887 -0.189276
v -0.624073 0.072887 -0.217645
v -0.706416 0.121036 -0.190832
v -0.706416 0.121036 -0.213054
v -0.658680 0.074397 -0.215789
v -0.658680 0.074397 -0.188098
v -0.740042 0.198486 -0.160648
v -0.739641 0.154284 -0.160648
v -0.626406 0.123970 -0.160649
v -0.666507 0.104307 -0.160649
v -0.613792 0.000000 -0.160649
v -0.567249 0.000000 -0.160649
v -0.626406 -0.123969 -0.160649
v -0.666507 -0.104306 -0.160649
v -0.739641 -0.154283 -0.160649
v -0.740042 -0.198486 -0.160649
v -0.692503 -0.172021 -0.187336
v -0.716911 -0.130732 -0.215789
v -0.716911 -0.130732 -0.188098
v -0.692503 -0.172021 -0.219017
v -0.644259 -0.220770 -0.208228
v -0.644259 -0.220770 -0.193699
v -0.491935 0.000000 -0.181750
v -0.491935 0.000000 -0.221146
v -0.552157 0.035441 -0.214844
v -0.552156 0.035441 -0.181749
v -0.594773 0.081679 -0.214844
v -0.594773 0.081679 -0.181749
v -0.731781 -0.098051 0.143919
v -0.792572 -0.097038 0.051054
v -0.727897 -0.094721 0.051054
v -0.796515 -0.098051 0.143919
v -0.553221 -0.124632 -0.208228
v -0.650357 -0.153578 -0.213667
v -0.619015 -0.101362 -0.219017
v -0.658680 -0.074397 -0.215789
v -0.706416 -0.121035 -0.213055
v -0.743096 -0.205921 -0.190220
v -0.779962 -0.152606 -0.190832
v -0.779962 -0.152606 -0.213055
v -0.743096 -0.205921 -0.213667
v -0.740042 0.198486 -0.160648
v -0.739641 0.154284 -0.048687
v -0.739641 0.154284 -0.160648
v -0.740042 0.198486 -0.048687
v -0.739641 0.079870 0.093421
v -0.740042 0.096337 0.136214
v -0.553221 -0.124632 -0.193699
v -0.619015 -0.101362 -0.187336
v -0.650357 -0.153579 -0.190220
v -0.658680 -0.074397 -0.188098
v -0.706416 -0.121035 -0.190832
v -0.644259 -0.220770 -0.208228
v -0.743096 -0.205921 -0.213667
v -0.692503 -0.172021 -0.219017
v -0.716911 -0.130732 -0.215789
v -0.779962 -0.152606 -0.213055
v -0.600413 0.000000 -0.227089
v -0.619152 0.018739 -0.227089
v -0.619152 0.018739 -0.215405
v -0.600413 0.000000 -0.215405
v -0.650357 -0.153579 -0.190220
v -0.706416 -0.121035 -0.190832
v -0.706416 -0.121035 -0.213055
v -0.650357 -0.153578 -0.213667
v -0.644259 -0.220770 -0.193699
v -0.692503 -0.172021 -0.187336
v -0.743096 -0.205921 -0.190220
v -0.716911 -0.130732 -0.188098
v -0.779962 -0.152606 -0.190832
v -0.731781 -0.098051 0.143919
v -0.796515 0.098051 0.143919
v -0.796515 -0.098051 0.143919
v -0.731781 0.098051 0.143919
v -0.731781 0.098051 0.143919
v -0.727897 0.094721 0.051054
v -0.792572 0.097038 0.051054
v -0.796515 0.098051 0.143919
v -0.624073 -0.072886 -0.217645
v -0.642795 -0.066175 -0.217645
v -0.627691 0.000000 -0.226668
v -0.608031 0.000000 -0.224939
v -0.624073 0.072887 -0.217645
v -0.642795 0.066176 -0.217645
v -0.600413 0.000000 -0.215405
v -0.619152 -0.018738 -0.215405
v -0.619152 -0.018738 -0.227089
v -0.600413 0.000000 -0.227089
v -0.650357 0.153579 -0.190220
v -0.619015 0.101363 -0.187335
v -0.553221 0.124632 -0.193699
v -0.658680 0.074397 -0.188098
v -0.706416 0.121036 -0.190832
v -0.739641 -0.079870 0.093420
v -0.784794 -0.158115 -0.048688
v -0.784794 -0.081043 0.096470
v -0.739641 -0.154284 -0.048688
v -0.739641 -0.154283 -0.160649
v -0.784794 -0.158115 -0.207191
v -0.739641 -0.154283 -0.207192
v -0.666507 -0.104306 -0.207192
v -0.666507 -0.104306 -0.160649
v -0.613792 0.000000 -0.160649
v -0.613792 0.000000 -0.207192
v -0.613792 0.000000 -0.160649
v -0.666507 0.104307 -0.207191
v -0.613792 0.000000 -0.207192
v -0.666507 0.104307 -0.160649
v -0.739641 0.154284 -0.160648
v -0.739641 0.154284 -0.207191
v -0.784794 0.158116 -0.207191
v -0.784794 0.158116 -0.048687
v -0.739641 0.154284 -0.048687
v -0.739641 0.079870 0.093421
v -0.784794 0.081043 0.096470
v -0.594773 -0.081678 -0.181749
v -0.644550 0.000000 -0.181749
v -0.655996 -0.057680 -0.181749
v -0.552157 -0.035440 -0.181749
v -0.552156 0.035441 -0.181749
v -0.491935 0.000000 -0.181750
v -0.594773 0.081679 -0.181749
v -0.655996 0.057681 -0.181749
v -0.743096 0.205922 -0.190219
v -0.692503 0.172021 -0.187335
v -0.644259 0.220771 -0.193698
v -0.716911 0.130733 -0.188098
v -0.779962 0.152606 -0.190832
v -0.784794 -0.081043 0.096470
v -0.784794 -0.198935 -0.048688
v -0.784793 -0.096475 0.136571
v -0.784794 -0.158115 -0.048688
v -0.784794 -0.158115 -0.207191
v -0.784794 -0.198935 -0.207192
v -0.608031 0.000000 -0.187715
v -0.624073 0.072887 -0.217645
v -0.624073 0.072887 -0.189276
v -0.608031 0.000000 -0.224939
v -0.624073 -0.072886 -0.217645
v -0.624073 -0.072886 -0.189276
v -0.644550 0.000000 -0.181749
v -0.655996 -0.057680 -0.214844
v -0.655996 -0.057680 -0.181749
v -0.644550 0.000000 -0.221145
v -0.655996 0.057681 -0.214844
v -0.655996 0.057681 -0.181749
v -0.553221 -0.124632 -0.208228
v -0.619015 -0.101362 -0.187336
v -0.553221 -0.124632 -0.193699
v -0.619015 -0.101362 -0.219017
v -0.658680 -0.074397 -0.215789
v -0.658680 -0.074397 -0.188098
v -0.784794 -0.198935 -0.048688
v -0.740042 -0.096337 0.136214
v -0.784793 -0.096475 0.136571
v -0.740042 -0.198486 -0.048688
v -0.740042 -0.198486 -0.160649
v -0.784794 -0.198935 -0.207192
v -0.739336 -0.198209 -0.207192
v -0.626406 -0.123969 -0.160649
v -0.626406 -0.123969 -0.207192
v -0.567249 0.000000 -0.160649
v -0.567250 0.000000 -0.207192
v -0.644259 0.220771 -0.208228
v -0.743096 0.205922 -0.213666
v -0.743096 0.205922 -0.190219
v -0.644259 0.220771 -0.193698
v -0.779962 0.152606 -0.190832
v -0.716911 0.130733 -0.215788
v -0.716911 0.130733 -0.188098
v -0.779962 0.152606 -0.213054
v -0.784794 0.158116 -0.048687
v -0.784794 0.198935 -0.207191
v -0.784794 0.158116 -0.207191
v -0.784794 0.198935 -0.048687
v -0.784794 0.081043 0.096470
v -0.784793 0.096474 0.136572
vt 0.360978842 0.280390441
vt 0.360978842 0.280390441
vt 0.360978842 0.280390441
vt 0.360978842 0.280390441
vt 0.263327837 0.216391727
vt 0.263327837 0.216391727
vt 0.263327837 0.216391727
vt 0.263327837 0.216391727
vt 0.263327837 0.216391727
vt 0.263327837 0.216391727
vt 0.263327837 0.216391727
vt 0.263327837 0.216391727
vt 0.263327837 0.216391727
vt 0.263327837 0.216391727
vt 0.263327837 0.216391727
vt 0.250323832 0.739273012
vt 0.250323832 0.739273012
vt 0.250323832 0.739273012
vt 0.250323832 0.739273012
vt 0.250323832 0.739273012
vt 0.250323832 0.739273012
vt 0.250323832 0.739273012
vt 0.250323832 0.739273012
vt 0.250323832 0.739273012
vt 0.250323832 0.739273012
vt 0.70481497 0.262680113
vt 0.70481497 0.262680113
vt 0.70481497 0.262680113
vt 0.70481497 0.262680113
vt 0.735493064 0.249180913
vt 0.735493064 0.249180913
vt 0.735493064 0.249180913
vt 0.735493064 0.249180913
vt 0.250323832 0.739273012
vt 0.250323832 0.739273012
vt 0.250323832 0.739273012
vt 0.250323832 0.739273012
vt 0.250323832 0.739273012
vt 0.250323832 0.739273012
vt 0.250323832 0.739273012
vt 0.250323832 0.739273012
vt 0.250323832 0.739273012
vt 0.250323832 0.739273012
vt 0.250323832 0.739273012
vt 0.250323832 0.739273012
vt 0.250323832 0.739273012
vt 0.250323832 0.739273012
vt 0.250323832 0.739273012
vt 0.250323832 0.739273012
vt 0.250323832 0.739273012
vt 0.250323832 0.739273012
vt 0.250323832 0.739273012
vt 0.250323832 0.739273012
vt 0.250323832 0.739273012
vt 0.250323832 0.739273012
vt 0.250323832 0.739273012
vt 0.250323832 0.739273012
vt 0.250323832 0.739273012
vt 0.250323832 0.739273012
vt 0.250323832 0.739273012
vt 0.250323832 0.739273012
vt 0.250323832 0.739273012
vt 0.250323832 0.739273012
vt 0.250323832 0.739273012
vt 0.70481497 0.262680113
vt 0.70481497 0.262680113
vt 0.70481497 0.262680113
vt 0.70481497 0.262680113
vt 0.263327837 0.216391727
vt 0.263327837 0.216391727
vt 0.263327837 0.216391727
vt 0.263327837 0.216391727
vt 0.263327837 0.216391727
vt 0.263327837 0.216391727
vt 0.250323832 0.739273012
vt 0.250323832 0.739273012
vt 0.250323832 0.739273012
vt 0.250323832 0.739273012
vt 0.250323832 0.739273012
vt 0.250323832 0.739273012
vt 0.250323832 0.739273012
vt 0.250323832 0.739273012
vt 0.250323832 0.739273012
vt 0.250323832 0.739273012
vt 0.250323832 0.739273012
vt 0.250323832 0.739273012
vt 0.250323832 0.739273012
vt 0.250323832 0.739273012
vt 0.250323832 0.739273012
vt 0.250323832 0.739273012
vt 0.250323832 0.739273012
vt 0.263327837 0.216391727
vt 0.263327837 0.216391727
vt 0.263327837 0.216391727
vt 0.263327837 0.216391727
vt 0.263327837 0.216391727
vt 0.263327837 0.216391727
vt 0.263327837 0.216391727
vt 0.263327837 0.216391727
vt 0.263327837 0.216391727
vt 0.263327837 0.216391727
vt 0.263327837 0.216391727
vt 0.263327837 0.216391727
vt 0.263327837 0.216391727
vt 0.263327837 0.216391727
vt 0.70481497 0.262680113
vt 0.70481497 0.262680113
vt 0.70481497 0.262680113
vt 0.70481497 0.262680113
vt 0.250323832 0.739273012
vt 0.250323832 0.739273012
vt 0.250323832 0.739273012
vt 0.250323832 0.739273012
vt 0.735493064 0.249180913
vt 0.735493064 0.249180913
vt 0.735493064 0.249180913
vt 0.735493064 0.249180913
vt 0.735493064 0.249180913
vt 0.735493064 0.249180913
vt 0.735493064 0.249180913
vt 0.735493064 0.249180913
vt 0.360978842 0.280390441
vt 0.360978842 0.280390441
vt 0.360978842 0.280390441
vt 0.360978842 0.280390441
vt 0.360978842 0.280390441
vt 0.360978842 0.280390441
vt 0.250323832 0.739273012
vt 0.250323832 0.739273012
vt 0.250323832 0.739273012
vt 0.250323832 0.739273012
vt 0.250323832 0.739273012
vt 0.250323832 0.739273012
vt 0.250323832 0.739273012
vt 0.250323832 0.739273012
vt 0.250323832 0.739273012
vt 0.250323832 0.739273012
vt 0.360978842 0.280390441
vt 0.360978842 0.280390441
vt 0.360978842 0.280390441
vt 0.360978842 0.280390441
vt 0.250323832 0.739273012
vt 0.250323832 0.739273012
vt 0.250323832 0.739273012
vt 0.250323832 0.739273012
vt 0.263327837 0.216391727
vt 0.263327837 0.216391727
vt 0.263327837 0.216391727
vt 0.263327837 0.216391727
vt 0.263327837 0.216391727
vt 0.263327837 0.216391727
vt 0.263327837 0.216391727
vt 0.263327837 0.216391727
vt 0.263327837 0.216391727
vt 0.263327837 0.216391727
vt 0.250323832 0.739273012
vt 0.250323832 0.739273012
vt 0.250323832 0.739273012
vt 0.250323832 0.739273012
vt 0.250323832 0.739273012
vt 0.250323832 0.739273012
vt 0.250323832 0.739273012
vt 0.250323832 0.739273012
vt 0.250323832 0.739273012
vt 0.250323832 0.739273012
vt 0.250323832 0.739273012
vt 0.250323832 0.739273012
vt 0.735493064 0.249180913
vt 0.735493064 0.249180913
vt 0.735493064 0.249180913
vt 0.735493064 0.249180913
vt 0.250323832 0.739273012
vt 0.250323832 0.739273012
vt 0.250323832 0.739273012
vt 0.250323832 0.739273012
vt 0.250323832 0.739273012
vt 0.250323832 0.739273012
vt 0.250323832 0.739273012
vt 0.250323832 0.739273012
vt 0.250323832 0.739273012
vt 0.263327837 0.216391727
vt 0.263327837 0.216391727
vt 0.263327837 0.216391727
vt 0.263327837 0.216391727
vt 0.263327837 0.216391727
vt 0.263327837 0.216391727
vt 0.250323832 0.739273012
vt 0.250323832 0.739273012
vt 0.250323832 0.739273012
vt 0.250323832 0.739273012
vt 0.250323832 0.739273012
vt 0.250323832 0.739273012
vt 0.250323832 0.739273012
vt 0.250323832 0.739273012
vt 0.250323832 0.739273012
vt 0.250323832 0.739273012
vt 0.70481497 0.262680113
vt 0.70481497 0.262680113
vt 0.70481497 0.262680113
vt 0.70481497 0.262680113
vt 0.250323832 0.739273012
vt 0.250323832 0.739273012
vt 0.250323832 0.739273012
vt 0.250323832 0.739273012
vt 0.250323832 0.739273012
vt 0.250323832 0.739273012
vt 0.250323832 0.739273012
vt 0.250323832 0.739273012
vt 0.250323832 0.739273012
vt 0.735493064 0.249180913
vt 0.735493064 0.249180913
vt 0.735493064 0.249180913
vt 0.735493064 0.249180913
vt 0.735493064 0.249180913
vt 0.735493064 0.249180913
vt 0.735493064 0.249180913
vt 0.735493064 0.249180913
vt 0.360978842 0.280390441
vt 0.360978842 0.280390441
vt 0.360978842 0.280390441
vt 0.360978842 0.280390441
vt 0.360978842 0.280390441
vt 0.360978842 0.280390441
vt 0.70481497 0.262680113
vt 0.70481497 0.262680113
vt 0.70481497 0.262680113
vt 0.70481497 0.262680113
vt 0.250323832 0.739273012
vt 0.250323832 0.739273012
vt 0.250323832 0.739273012
vt 0.250323832 0.739273012
vt 0.250323832 0.739273012
vt 0.263327837 0.216391727
vt 0.263327837 0.216391727
vt 0.263327837 0.216391727
vt 0.263327837 0.216391727
vt 0.263327837 0.216391727
vt 0.263327837 0.216391727
vt 0.263327837 0.216391727
vt 0.263327837 0.216391727
vt 0.263327837 0.216391727
vt 0.263327837 0.216391727
vt 0.263327837 0.216391727
vt 0.263327837 0.216391727
vt 0.263327837 0.216391727
vt 0.263327837 0.216391727
vt 0.263327837 0.216391727
vt 0.263327837 0.216391727
vt 0.263327837 0.216391727
vt 0.263327837 0.216391727
vt 0.263327837 0.216391727
vt 0.263327837 0.216391727
vt 0.263327837 0.216391727
vt 0.263327837 0.216391727
vt 0.250323832 0.739273012
vt 0.250323832 0.739273012
vt 0.250323832 0.739273012
vt 0.250323832 0.739273012
vt 0.250323832 0.739273012
vt 0.250323832 0.739273012
vt 0.250323832 0.739273012
vt 0.250323832 0.739273012
vt 0.250323832 0.739273012
vt 0.250323832 0.739273012
vt 0.250323832 0.739273012
vt 0.250323832 0.739273012
vt 0.250323832 0.739273012
vt 0.263327837 0.216391727
vt 0.263327837 0.216391727
vt 0.263327837 0.216391727
vt 0.263327837 0.216391727
vt 0.263327837 0.216391727
vt 0.263327837 0.216391727
vt 0.360978842 0.280390441
vt 0.360978842 0.280390441
vt 0.360978842 0.280390441
vt 0.360978842 0.280390441
vt 0.360978842 0.280390441
vt 0.360978842 0.280390441
vt 0.250323832 0.739273012
vt 0.250323832 0.739273012
vt 0.250323832 0.739273012
vt 0.250323832 0.739273012
vt 0.250323832 0.739273012
vt 0.250323832 0.739273012
vt 0.250323832 0.739273012
vt 0.250323832 0.739273012
vt 0.250323832 0.739273012
vt 0.250323832 0.739273012
vt 0.250323832 0.739273012
vt 0.250323832 0.739273012
vt 0.263327837 0.216391727
vt 0.263327837 0.216391727
vt 0.263327837 0.216391727
vt 0.263327837 0.216391727
vt 0.263327837 0.216391727
vt 0.263327837 0.216391727
vt 0.263327837 0.216391727
vt 0.263327837 0.216391727
vt 0.263327837 0.216391727
vt 0.263327837 0.216391727
vt 0.263327837 0.216391727
vt 0.250323832 0.739273012
vt 0.250323832 0.739273012
vt 0.250323832 0.739273012
vt 0.250323832 0.739273012
vt 0.250323832 0.739273012
vt 0.250323832 0.739273012
vt 0.250323832 0.739273012
vt 0.250323832 0.739273012
vt 0.263327837 0.216391727
vt 0.263327837 0.216391727
vt 0.263327837 0.216391727
vt 0.263327837 0.216391727
vt 0.263327837 0.216391727
vt 0.263327837 0.216391727
vn -0.337429 -0.941351 -0.000001
vn -0.337429 -0.941351 -0.000001
vn -0.337428 -0.941351 -0.000001
vn -0.337429 -0.941351 -0.000001
vn 0.811239 0.584714 -0.000001
vn 0.902511 0.430666 -0.000001
vn 0.902511 0.430666 -0.000001
vn 0.689260 0.724513 0.001154
vn 0.384745 0.923022 -0.000811
vn 0.150604 0.988594 -0.000604
vn 0.012994 0.999912 -0.002849
vn 0.009138 0.968255 0.249799
vn 0.009713 0.968279 0.249683
vn 0.007666 0.875168 0.483759
vn 0.006551 0.875061 0.483969
vn -0.364949 -0.931028 -0.000001
vn -0.364949 -0.931028 -0.000001
vn -0.364949 -0.931028 -0.000001
vn -0.364948 -0.931028 -0.000001
vn 0.451545 -0.892248 -0.000002
vn 0.333436 -0.942773 -0.000002
vn 0.333436 -0.942773 -0.000002
vn 0.451545 -0.892248 -0.000002
vn 0.562203 -0.826999 -0.000002
vn 0.562203 -0.826999 -0.000002
vn -0.707103 -0.707111 0.000000
vn -0.707103 -0.707111 0.000000
vn -0.707103 -0.707111 0.000000
vn -0.707103 -0.707111 0.000000
vn -0.000002 0.000001 -1.000000
vn -0.000002 0.000001 -1.000000
vn -0.000002 0.000001 -1.000000
vn -0.000002 0.000001 -1.000000
vn 0.005391 0.073652 -0.997269
vn 0.003617 0.000001 -0.999993
vn -0.039499 0.100767 -0.994126
vn 0.025193 0.110962 -0.993505
vn -0.000002 0.000001 -1.000000
vn 0.025193 -0.110959 -0.993506
vn 0.005391 -0.073649 -0.997270
vn -0.039499 -0.100764 -0.994126
vn -0.001601 0.100971 -0.994888
vn -0.010510 0.077157 -0.996964
vn 0.103396 0.162600 -0.981260
vn -0.067427 0.033808 -0.997151
vn -0.028174 0.029736 -0.999161
vn 0.285591 0.958352 0.000001
vn 0.285591 0.958352 0.000001
vn 0.285591 0.958352 0.000001
vn 0.285591 0.958352 0.000001
vn 0.860828 -0.508896 -0.000002
vn 0.791801 -0.610779 -0.000002
vn 0.860828 -0.508896 -0.000002
vn 0.791801 -0.610779 -0.000002
vn 0.710783 -0.703411 -0.000002
vn 0.710783 -0.703411 -0.000002
vn -0.148570 -0.988902 -0.000001
vn -0.148570 -0.988902 -0.000001
vn -0.148570 -0.988902 -0.000001
vn -0.148570 -0.988902 -0.000001
vn 0.285591 -0.958352 -0.000002
vn 0.285591 -0.958352 -0.000002
vn 0.285591 -0.958352 -0.000002
vn 0.285591 -0.958352 -0.000002
vn -0.707103 0.707111 0.000002
vn -0.707103 0.707111 0.000002
vn -0.707103 0.707111 0.000002
vn -0.707103 0.707111 0.000002
vn 0.999950 -0.009379 0.003422
vn 0.999941 -0.009534 0.005134
vn 0.999935 -0.009998 0.005522
vn 0.999958 -0.009070 0.001581
vn 0.999959 -0.009070 -0.000002
vn 0.999959 -0.009070 -0.000002
vn -0.327750 0.944764 0.000002
vn -0.327750 0.944764 0.000002
vn -0.327750 0.944764 0.000002
vn -0.327750 0.944764 0.000002
vn -0.698835 0.715283 0.000002
vn -0.698835 0.715283 0.000002
vn -0.698835 0.715283 0.000002
vn -0.698835 0.715283 0.000002
vn -0.044054 0.091252 -0.994853
vn -0.042105 0.065718 -0.996949
vn 0.025098 0.192271 -0.981021
vn -0.075404 0.001880 -0.997151
vn -0.038153 0.014910 -0.999161
vn -0.502055 0.864836 0.000002
vn -0.502055 0.864836 0.000002
vn -0.502055 0.864836 0.000002
vn -0.502055 0.864836 0.000002
vn -0.000002 0.000001 -1.000000
vn -0.000002 0.000001 -1.000000
vn -0.000002 0.000001 -1.000000
vn -0.000002 0.000001 -1.000000
vn -0.000002 0.000001 -1.000000
vn -0.000002 0.000001 -1.000000
vn -0.000002 0.000001 -1.000000
vn -0.000002 0.000001 -1.000000
vn -0.000002 0.000001 -1.000000
vn -0.000002 0.000001 -1.000000
vn -0.000002 0.000001 -1.000000
vn -0.000002 0.000001 -1.000000
vn -0.000002 0.000001 -1.000000
vn -0.000002 0.000001 -1.000000
vn -0.000002 0.000001 -1.000000
vn -0.000002 0.000001 -1.000000
vn -0.000002 0.000001 -1.000000
vn -0.000002 0.000001 -1.000000
vn -0.822516 0.568742 0.000002
vn -0.822516 0.568742 0.000002
vn -0.822516 0.568742 0.000002
vn -0.822516 0.568742 0.000002
vn 0.999126 -0.000000 0.041793
vn 0.999126 -0.000000 0.041793
vn 0.999126 -0.000000 0.041793
vn 0.999126 -0.000000 0.041793
vn -0.999100 0.000000 -0.042414
vn -0.999100 0.000000 -0.042414
vn -0.999100 0.000000 -0.042414
vn -0.999100 0.000000 -0.042414
vn -1.000000 -0.000000 0.000002
vn -0.974929 -0.222518 0.000001
vn -0.974929 -0.222518 0.000001
vn -1.000000 -0.000000 0.000002
vn -0.974929 0.222518 0.000002
vn -0.974929 0.222518 0.000002
vn 0.665663 -0.746252 -0.000002
vn 0.735319 -0.677721 -0.000002
vn 0.735319 -0.677721 -0.000002
vn 0.588884 -0.808217 -0.000002
vn 0.507192 -0.861833 -0.000002
vn 0.507192 -0.861833 -0.000002
vn -0.364948 0.931028 0.000002
vn -0.364948 0.931028 0.000002
vn -0.364948 0.931028 0.000002
vn -0.364948 0.931028 0.000002
vn -0.337428 0.941351 0.000002
vn -0.337428 0.941351 0.000002
vn -0.337428 0.941351 0.000002
vn -0.337427 0.941352 0.000002
vn -0.698836 -0.715282 0.000000
vn -0.698836 -0.715282 0.000000
vn -0.698836 -0.715282 0.000000
vn -0.698836 -0.715282 0.000000
vn 0.000002 -0.000001 1.000000
vn 0.000002 -0.000001 1.000000
vn 0.000002 -0.000001 1.000000
vn 0.000002 -0.000001 1.000000
vn 0.000002 -0.000001 1.000000
vn 0.000002 -0.000001 1.000000
vn 0.000002 -0.000001 1.000000
vn 0.000002 -0.000001 1.000000
vn 0.000002 -0.000001 1.000000
vn 0.000002 -0.000001 1.000000
vn 0.791801 0.610779 -0.000000
vn 0.860827 0.508897 -0.000001
vn 0.860827 0.508897 -0.000001
vn 0.791801 0.610779 -0.000000
vn 0.710784 0.703410 -0.000000
vn 0.710784 0.703410 -0.000000
vn 0.507192 0.861833 0.000000
vn 0.507192 0.861833 0.000000
vn 0.588885 0.808217 0.000000
vn 0.665664 0.746252 -0.000000
vn 0.735319 0.677721 -0.000000
vn 0.735319 0.677721 -0.000000
vn 0.017889 -0.999584 -0.022617
vn 0.017889 -0.999584 -0.022617
vn 0.035771 -0.998771 -0.034314
vn -0.000000 -0.999940 -0.010910
vn 0.103397 -0.162596 -0.981260
vn -0.010510 -0.077154 -0.996964
vn -0.001601 -0.100968 -0.994888
vn -0.067427 -0.033805 -0.997151
vn -0.028175 -0.029733 -0.999161
vn -0.822516 -0.568742 0.000001
vn -0.822516 -0.568742 0.000001
vn -0.822516 -0.568742 0.000001
vn -0.822516 -0.568742 0.000001
vn 0.999959 0.009070 -0.000002
vn 0.999958 0.009070 0.001581
vn 0.999959 0.009070 -0.000002
vn 0.999950 0.009379 0.003423
vn 0.999941 0.009534 0.005135
vn 0.999935 0.009998 0.005522
vn 0.063261 -0.092863 0.993667
vn 0.011515 -0.062042 0.998007
vn -0.001730 -0.051276 0.998683
vn -0.034222 -0.030367 0.998953
vn -0.028170 -0.029736 0.999161
vn 0.025097 -0.192269 -0.981021
vn -0.042105 -0.065716 -0.996950
vn -0.044054 -0.091250 -0.994853
vn -0.075404 -0.001877 -0.997151
vn -0.038153 -0.014907 -0.999161
vn 0.707103 0.707111 -0.000000
vn 0.707103 0.707111 -0.000000
vn 0.707103 0.707111 -0.000000
vn 0.707103 0.707111 -0.000000
vn -0.502055 -0.864836 -0.000000
vn -0.502055 -0.864836 -0.000000
vn -0.502055 -0.864836 -0.000000
vn -0.502055 -0.864836 -0.000000
vn 0.018192 -0.111690 0.993577
vn -0.015752 -0.061407 0.997989
vn -0.023234 -0.045903 0.998676
vn -0.043894 -0.012904 0.998953
vn -0.038150 -0.014910 0.999161
vn 0.000002 -0.000001 1.000000
vn 0.000002 -0.000001 1.000000
vn 0.000002 -0.000001 1.000000
vn 0.000002 -0.000001 1.000000
vn 0.017890 0.999584 -0.022614
vn 0.035771 0.998771 -0.034311
vn 0.017890 0.999584 -0.022614
vn 0.000000 0.999941 -0.010907
vn 0.021144 -0.121792 -0.992330
vn -0.044782 -0.124919 -0.991156
vn 0.021302 0.000001 -0.999773
vn 0.087590 0.000001 -0.996157
vn 0.021144 0.121795 -0.992330
vn -0.044781 0.124922 -0.991155
vn 0.707103 -0.707111 -0.000002
vn 0.707103 -0.707111 -0.000002
vn 0.707103 -0.707111 -0.000002
vn 0.707103 -0.707111 -0.000002
vn -0.001730 0.051272 0.998683
vn 0.011516 0.062039 0.998007
vn 0.063261 0.092859 0.993668
vn -0.034222 0.030364 0.998953
vn -0.028171 0.029733 0.999161
vn -0.064759 0.882704 -0.465446
vn -0.076903 0.967794 -0.239708
vn -0.054542 0.881909 -0.468255
vn -0.082127 0.967752 -0.238143
vn -0.285442 0.958396 0.000002
vn -0.084560 0.996418 0.000002
vn -0.335436 0.942063 0.000002
vn -0.752047 0.659110 0.000002
vn -0.752047 0.659109 0.000002
vn -0.892496 0.451055 0.000002
vn -0.892496 0.451056 0.000002
vn -0.892496 -0.451055 0.000001
vn -0.752047 -0.659109 0.000000
vn -0.892496 -0.451056 0.000001
vn -0.752047 -0.659109 0.000000
vn -0.285442 -0.958396 -0.000001
vn -0.335437 -0.942063 -0.000001
vn -0.084560 -0.996418 -0.000001
vn -0.076903 -0.967794 -0.239711
vn -0.082127 -0.967751 -0.238146
vn -0.064760 -0.882702 -0.465449
vn -0.054543 -0.881907 -0.468257
vn 0.000002 -0.000001 1.000000
vn 0.000002 -0.000001 1.000000
vn 0.000002 -0.000001 1.000000
vn 0.000002 -0.000001 1.000000
vn 0.000002 -0.000001 1.000000
vn 0.000002 -0.000001 1.000000
vn 0.000002 -0.000001 1.000000
vn 0.000002 -0.000001 1.000000
vn -0.023234 0.045900 0.998676
vn -0.015752 0.061404 0.997989
vn 0.018192 0.111688 0.993577
vn -0.043895 0.012901 0.998953
vn -0.038150 0.014908 0.999161
vn -1.000000 -0.000000 0.000002
vn -1.000000 -0.000000 0.000002
vn -1.000000 -0.000000 0.000002
vn -1.000000 -0.000000 0.000002
vn -1.000000 -0.000000 0.000002
vn -1.000000 -0.000000 0.000002
vn 1.000000 0.000000 -0.000002
vn 0.976627 0.214943 -0.000001
vn 0.976627 0.214943 -0.000001
vn 1.000000 0.000000 -0.000002
vn 0.976627 -0.214943 -0.000002
vn 0.976627 -0.214943 -0.000002
vn -1.000000 -0.000000 0.000002
vn -0.980876 0.194634 0.000002
vn -0.980876 0.194634 0.000002
vn -1.000000 -0.000000 0.000002
vn -0.980876 -0.194634 0.000001
vn -0.980876 -0.194634 0.000001
vn 0.333436 0.942773 0.000001
vn 0.451546 0.892248 0.000001
vn 0.333436 0.942773 0.000001
vn 0.451546 0.892248 0.000001
vn 0.562204 0.826998 0.000000
vn 0.562204 0.826998 0.000000
vn 0.009137 -0.968255 0.249796
vn 0.007666 -0.875169 0.483756
vn 0.006551 -0.875062 0.483966
vn 0.009712 -0.968280 0.249680
vn 0.150603 -0.988594 -0.000607
vn 0.012994 -0.999912 -0.002852
vn 0.384745 -0.923022 -0.000814
vn 0.689260 -0.724514 0.001152
vn 0.811239 -0.584714 -0.000002
vn 0.902511 -0.430667 -0.000002
vn 0.902511 -0.430667 -0.000002
vn -0.148568 0.988902 0.000002
vn -0.148568 0.988902 0.000002
vn -0.148568 0.988902 0.000002
vn -0.148568 0.988902 0.000002
vn -0.327751 -0.944764 -0.000001
vn -0.327751 -0.944764 -0.000001
vn -0.327751 -0.944764 -0.000001
vn -0.327751 -0.944764 -0.000001
vn -1.000000 -0.000000 0.000002
vn -1.000000 -0.000000 0.000002
vn -1.000000 -0.000000 0.000002
vn -1.000000 -0.000000 0.000002
vn -1.000000 -0.000000 0.000002
vn -1.000000 -0.000000 0.000002
f 1/1/1 2/2/2 3/3/3
f 1/1/1 4/4/4 2/2/2
f 5/5/5 6/6/6 7/7/7
f 5/5/5 8/8/8 6/6/6
f 8/8/8 5/5/5 9/9/9
f 8/8/8 9/9/9 10/10/10
f 11/11/11 10/10/10 9/9/9
f 12/12/12 10/10/10 11/11/11
f 13/13/13 10/10/10 12/12/12
f 12/12/12 14/14/14 13/13/13
f 12/12/12 15/15/15 14/14/14
f 16/16/16 17/17/17 18/18/18
f 16/16/16 18/18/18 19/19/19
f 20/20/20 21/21/21 22/22/22
f 20/20/20 23/23/23 21/21/21
f 24/24/24 23/23/23 20/20/20
f 24/24/24 20/20/20 25/25/25
f 26/26/26 27/27/27 28/28/28
f 26/26/26 29/29/29 27/27/27
f 30/30/30 31/31/31 32/32/32
f 30/30/30 32/32/32 33/33/33
f 34/34/34 35/35/35 36/36/36
f 37/37/37 35/35/35 34/34/34
f 35/35/35 37/37/37 38/38/38
f 35/35/35 38/38/38 39/39/39
f 39/39/39 40/40/40 35/35/35
f 40/40/40 41/41/41 35/35/35
f 42/42/42 43/43/43 44/44/44
f 43/43/43 42/42/42 45/45/45
f 43/43/43 45/45/45 46/46/46
f 47/47/47 48/48/48 49/49/49
f 47/47/47 49/49/49 50/50/50
f 51/51/51 52/52/52 53/53/53
f 51/51/51 54/54/54 52/52/52
f 55/55/55 52/52/52 54/54/54
f 55/55/55 56/56/56 52/52/52
f 57/57/57 58/58/58 59/59/59
f 57/57/57 60/60/60 58/58/58
f 61/61/61 62/62/62 63/63/63
f 61/61/61 64/64/64 62/62/62
f 65/65/65 66/66/66 67/67/67
f 65/65/65 68/68/68 66/66/66
f 69/69/69 70/70/70 71/71/71
f 72/72/72 70/70/70 69/69/69
f 73/73/73 72/72/72 69/69/69
f 72/72/72 73/73/73 74/74/74
f 75/75/75 76/76/76 77/77/77
f 75/75/75 78/78/78 76/76/76
f 79/79/79 80/80/80 81/81/81
f 79/79/79 81/81/81 82/82/82
f 83/83/83 84/84/84 85/85/85
f 84/84/84 83/83/83 86/86/86
f 84/84/84 86/86/86 87/87/87
f 88/88/88 89/89/89 90/90/90
f 88/88/88 90/90/90 91/91/91
f 92/92/92 93/93/93 94/94/94
f 92/92/92 95/95/95 93/93/93
f 96/96/96 95/95/95 92/92/92
f 97/97/97 95/95/95 96/96/96
f 96/96/96 98/98/98 97/97/97
f 99/99/99 98/98/98 96/96/96
f 98/98/98 99/99/99 100/100/100
f 98/98/98 100/100/100 101/101/101
f 101/101/101 100/100/100 102/102/102
f 103/103/103 102/102/102 100/100/100
f 102/102/102 103/103/103 104/104/104
f 104/104/104 103/103/103 105/105/105
f 106/106/106 107/107/107 108/108/108
f 106/106/106 108/108/108 109/109/109
f 110/110/110 111/111/111 112/112/112
f 110/110/110 112/112/112 113/113/113
f 114/114/114 115/115/115 116/116/116
f 114/114/114 116/116/116 117/117/117
f 118/118/118 119/119/119 120/120/120
f 118/118/118 120/120/120 121/121/121
f 122/122/122 123/123/123 124/124/124
f 122/122/122 124/124/124 125/125/125
f 126/126/126 122/122/122 125/125/125
f 126/126/126 127/127/127 122/122/122
f 128/128/128 129/129/129 130/130/130
f 128/128/128 130/130/130 131/131/131
f 131/131/131 132/132/132 128/128/128
f 131/131/131 133/133/133 132/132/132
f 134/134/134 135/135/135 136/136/136
f 134/134/134 137/137/137 135/135/135
f 138/138/138 139/139/139 140/140/140
f 138/138/138 140/140/140 141/141/141
f 142/142/142 143/143/143 144/144/144
f 142/142/142 144/144/144 145/145/145
f 146/146/146 147/147/147 148/148/148
f 149/149/149 148/148/148 147/147/147
f 149/149/149 150/150/150 148/148/148
f 148/148/148 150/150/150 151/151/151
f 151/151/151 150/150/150 152/152/152
f 152/152/152 150/150/150 153/153/153
f 153/153/153 154/154/154 152/152/152
f 152/152/152 154/154/154 155/155/155
f 156/156/156 157/157/157 158/158/158
f 156/156/156 159/159/159 157/157/157
f 160/160/160 159/159/159 156/156/156
f 160/160/160 156/156/156 161/161/161
f 162/162/162 163/163/163 164/164/164
f 162/162/162 164/164/164 165/165/165
f 165/165/165 164/164/164 166/166/166
f 165/165/165 166/166/166 167/167/167
f 168/168/168 169/169/169 170/170/170
f 168/168/168 171/171/171 169/169/169
f 172/172/172 173/173/173 174/174/174
f 175/175/175 174/174/174 173/173/173
f 175/175/175 173/173/173 176/176/176
f 177/177/177 178/178/178 179/179/179
f 177/177/177 179/179/179 180/180/180
f 181/181/181 182/182/182 183/183/183
f 184/184/184 182/182/182 181/181/181
f 182/182/182 184/184/184 185/185/185
f 185/185/185 184/184/184 186/186/186
f 187/187/187 188/188/188 189/189/189
f 190/190/190 189/189/189 188/188/188
f 190/190/190 191/191/191 189/189/189
f 192/192/192 193/193/193 194/194/194
f 195/195/195 194/194/194 193/193/193
f 195/195/195 193/193/193 196/196/196
f 197/197/197 198/198/198 199/199/199
f 197/197/197 199/199/199 200/200/200
f 201/201/201 202/202/202 203/203/203
f 201/201/201 203/203/203 204/204/204
f 205/205/205 206/206/206 207/207/207
f 208/208/208 207/207/207 206/206/206
f 208/208/208 209/209/209 207/207/207
f 210/210/210 211/211/211 212/212/212
f 213/213/213 211/211/211 210/210/210
f 214/214/214 215/215/215 216/216/216
f 214/214/214 216/216/216 217/217/217
f 218/218/218 219/219/219 220/220/220
f 218/218/218 220/220/220 221/221/221
f 222/222/222 221/221/221 220/220/220
f 222/222/222 220/220/220 223/223/223
f 224/224/224 225/225/225 226/226/226
f 224/224/224 226/226/226 227/227/227
f 228/228/228 229/229/229 230/230/230
f 231/231/231 229/229/229 228/228/228
f 231/231/231 228/228/228 232/232/232
f 233/233/233 234/234/234 235/235/235
f 233/233/233 236/236/236 234/234/234
f 237/237/237 234/234/234 236/236/236
f 238/238/238 234/234/234 237/237/237
f 239/239/239 238/238/238 237/237/237
f 237/237/237 240/240/240 239/239/239
f 237/237/237 241/241/241 240/240/240
f 240/240/240 241/241/241 242/242/242
f 240/240/240 242/242/242 243/243/243
f 244/244/244 245/245/245 246/246/246
f 244/244/244 247/247/247 245/245/245
f 245/245/245 247/247/247 248/248/248
f 245/245/245 248/248/248 249/249/249
f 249/249/249 248/248/248 250/250/250
f 250/250/250 248/248/248 251/251/251
f 251/251/251 248/248/248 252/252/252
f 251/251/251 252/252/252 253/253/253
f 251/251/251 253/253/253 254/254/254
f 255/255/255 256/256/256 257/257/257
f 258/258/258 256/256/256 255/255/255
f 258/258/258 259/259/259 256/256/256
f 259/259/259 258/258/258 260/260/260
f 256/256/256 259/259/259 261/261/261
f 256/256/256 261/261/261 262/262/262
f 263/263/263 264/264/264 265/265/265
f 266/266/266 264/264/264 263/263/263
f 266/266/266 263/263/263 267/267/267
f 268/268/268 269/269/269 270/270/270
f 271/271/271 269/269/269 268/268/268
f 269/269/269 271/271/271 272/272/272
f 269/269/269 272/272/272 273/273/273
f 274/274/274 275/275/275 276/276/276
f 274/274/274 277/277/277 275/275/275
f 274/274/274 278/278/278 277/277/277
f 274/274/274 279/279/279 278/278/278
f 280/280/280 281/281/281 282/282/282
f 280/280/280 283/283/283 281/281/281
f 284/284/284 283/283/283 280/280/280
f 284/284/284 280/280/280 285/285/285
f 286/286/286 287/287/287 288/288/288
f 286/286/286 289/289/289 287/287/287
f 287/287/287 289/289/289 290/290/290
f 287/287/287 290/290/290 291/291/291
f 292/292/292 293/293/293 294/294/294
f 292/292/292 295/295/295 293/293/293
f 292/292/292 296/296/296 295/295/295
f 297/297/297 296/296/296 292/292/292
f 298/298/298 296/296/296 297/297/297
f 298/298/298 299/299/299 296/296/296
f 298/298/298 300/300/300 299/299/299
f 300/300/300 301/301/301 299/299/299
f 300/300/300 302/302/302 301/301/301
f 303/303/303 304/304/304 305/305/305
f 303/303/303 305/305/305 306/306/306
f 307/307/307 308/308/308 309/309/309
f 307/307/307 310/310/310 308/308/308
f 311/311/311 312/312/312 313/313/313
f 311/311/311 314/314/314 312/312/312
f 311/311/311 315/315/315 314/314/314
f 314/314/314 315/315/315 316/316/316
