# eskimo_hat_hat (gear rip -> Godot: Z negated + winding reversed)
v -0.432935 -0.275670 -0.083097
v -0.635856 -0.207145 0.237100
v -0.698897 -0.253549 -0.083097
v -0.432935 -0.229425 0.237100
v -0.166974 -0.253550 -0.083097
v -0.208625 -0.207145 0.200136
v -0.142623 0.000001 -0.083097
v -0.208625 -0.207145 0.200136
v -0.166974 -0.253550 -0.083097
v -0.208625 0.000001 0.200136
v -0.166974 0.253551 -0.083097
v -0.208625 0.207147 0.200136
v -0.723248 0.000001 -0.083097
v -0.635856 0.207147 0.237100
v -0.698897 0.253551 -0.083097
v -0.657246 0.000001 0.237100
v -0.698897 -0.253549 -0.083097
v -0.635856 -0.207145 0.237100
v -0.208625 0.000001 0.200136
v -0.208625 0.207147 0.200136
v -0.432935 0.229427 0.237100
v -0.432935 0.000001 0.237100
v -0.208625 -0.207145 0.200136
v -0.635856 0.207147 0.237100
v -0.432935 -0.229425 0.237100
v -0.657246 0.000001 0.237100
v -0.635856 -0.207145 0.237100
v -0.208625 0.207147 0.200136
v -0.166974 0.253551 -0.083097
v -0.432935 0.275672 -0.083097
v -0.432935 0.229427 0.237100
v -0.698897 0.253551 -0.083097
v -0.635856 0.207147 0.237100
v -0.432935 0.275672 -0.083097
v -0.698897 0.253551 -0.247141
v -0.698897 0.253551 -0.083097
v -0.432935 0.275672 -0.247141
v -0.166974 0.253551 -0.083097
v -0.166974 0.253551 -0.247141
v -0.166974 -0.253550 -0.247141
v -0.166974 -0.253550 -0.083097
v -0.432935 -0.275670 -0.083097
v -0.432935 -0.275670 -0.247141
v -0.698897 -0.253549 -0.083097
v -0.698897 -0.253549 -0.247141
v -0.698897 -0.253549 -0.247141
v -0.698897 -0.253549 -0.083097
v -0.723248 0.000001 -0.083097
v -0.723248 0.000001 -0.247141
v -0.698897 0.253551 -0.083097
v -0.698897 0.253551 -0.247141
v -0.166974 0.253551 -0.247141
v -0.166974 0.253551 -0.083097
v -0.142623 0.000001 -0.083097
v -0.142623 0.000001 -0.247141
v -0.166974 -0.253550 -0.083097
v -0.166974 -0.253550 -0.247141
v -0.217767 0.000001 -0.247325
v -0.241955 0.176368 -0.162014
v -0.241955 0.176368 -0.247325
v -0.217767 0.000001 -0.162014
v -0.241955 -0.176366 -0.247325
v -0.241955 -0.176366 -0.162014
v -0.432935 0.193595 -0.247325
v -0.623916 0.176368 -0.162014
v -0.597058 0.176368 -0.247325
v -0.432935 0.193595 -0.162014
v -0.241955 0.176368 -0.247325
v -0.241955 0.176368 -0.162014
v -0.621246 0.000001 -0.247325
v -0.623916 -0.176366 -0.162014
v -0.597059 -0.176366 -0.247325
v -0.648104 0.000001 -0.162014
v -0.597058 0.176368 -0.247325
v -0.623916 0.176368 -0.162014
v -0.597059 -0.176366 -0.247325
v -0.623916 -0.176366 -0.162014
v -0.432935 -0.193593 -0.162014
v -0.432935 -0.193593 -0.247325
v -0.241955 -0.176366 -0.162014
v -0.241955 -0.176366 -0.247325
v -0.241955 0.176368 -0.162014
v -0.217767 0.000001 -0.162014
v -0.241955 -0.176366 -0.162014
v -0.432935 0.193595 -0.162014
v -0.432935 -0.193593 -0.162014
v -0.623916 0.176368 -0.162014
v -0.623916 -0.176366 -0.162014
v -0.648104 0.000001 -0.162014
v -0.241955 -0.176366 -0.247325
v -0.166974 -0.253550 -0.247141
v -0.432935 -0.275670 -0.247141
v -0.432935 -0.193593 -0.247325
v -0.217767 0.000001 -0.247325
v -0.698897 -0.253549 -0.247141
v -0.142623 0.000001 -0.247141
v -0.597059 -0.176366 -0.247325
v -0.241955 0.176368 -0.247325
v -0.723248 0.000001 -0.247141
v -0.166974 0.253551 -0.247141
v -0.621246 0.000001 -0.247325
v -0.432935 0.193595 -0.247325
v -0.698897 0.253551 -0.247141
v -0.432935 0.275672 -0.247141
v -0.597058 0.176368 -0.247325
vt 0.643355012 0.445854783
vt 0.64336884 0.445845395
vt 0.643355012 0.445845395
vt 0.64336884 0.445854783
vt 0.643355012 0.445864171
vt 0.64336729 0.445864171
vt 0.643350661 0.445897102
vt 0.64336288 0.44588843
vt 0.643350661 0.44588843
vt 0.64336288 0.445897102
vt 0.643350661 0.445905775
vt 0.64336288 0.445905775
vt 0.643321276 0.445896268
vt 0.643307447 0.44590494
vt 0.643321276 0.44590494
vt 0.643307447 0.445896268
vt 0.643321276 0.445887595
vt 0.643307447 0.445887595
vt 0.643350661 0.445879251
vt 0.643350661 0.445870548
vt 0.643340945 0.445869625
vt 0.643340945 0.445879251
vt 0.643350661 0.445887923
vt 0.64333123 0.445870548
vt 0.643340945 0.445888847
vt 0.64333123 0.445879251
vt 0.64333123 0.445887923
vt 0.64335227 0.44588843
vt 0.643364549 0.44588843
vt 0.643364549 0.445879012
vt 0.643350661 0.445879012
vt 0.643364549 0.445869625
vt 0.643350661 0.445869625
vt 0.3581312 0.505691826
vt 0.358095407 0.505747974
vt 0.3581312 0.505747974
vt 0.358095407 0.505691826
vt 0.3581312 0.505635619
vt 0.358095407 0.505635619
vt 0.357877433 0.505838513
vt 0.357913226 0.505838513
vt 0.357913226 0.505782366
vt 0.357877433 0.505782366
vt 0.357913226 0.505726159
vt 0.357877433 0.505726159
vt 0.357999355 0.505732536
vt 0.357963562 0.505732536
vt 0.357963562 0.505786061
vt 0.357999355 0.505786061
vt 0.357963562 0.505839646
vt 0.357999355 0.505839646
vt 0.357963026 0.505732536
vt 0.357927412 0.505732536
vt 0.357927948 0.505786061
vt 0.357963562 0.505786061
vt 0.357927412 0.505839646
vt 0.357963026 0.505839646
vt 0.358133674 0.505785227
vt 0.358115047 0.50582242
vt 0.358133674 0.50582242
vt 0.358115047 0.505785227
vt 0.358133674 0.505747974
vt 0.358115047 0.505747974
vt 0.358017981 0.505772829
vt 0.357999384 0.505813181
vt 0.358018011 0.505807519
vt 0.357999355 0.505772829
vt 0.358018011 0.505732536
vt 0.357999384 0.505732536
vt 0.358095944 0.505785227
vt 0.358114511 0.505747974
vt 0.358095407 0.505747974
vt 0.358115047 0.505785227
vt 0.358095407 0.50582242
vt 0.358114511 0.50582242
vt 0.357910305 0.505641341
vt 0.357891679 0.505635679
vt 0.357891679 0.505676031
vt 0.357910305 0.505676031
vt 0.357891679 0.505716324
vt 0.357910305 0.505716324
vt 0.470384181 0.235637426
vt 0.470345378 0.235635698
vt 0.470307499 0.235644102
vt 0.470391661 0.235677302
vt 0.470307499 0.235684633
vt 0.470391661 0.235717773
vt 0.470315009 0.235724449
vt 0.470353812 0.235726178
vt 0.357832581 0.505531311
vt 0.357817143 0.505514145
vt 0.357807517 0.505569756
vt 0.357825369 0.505571187
vt 0.357871354 0.505529284
vt 0.357807517 0.505626142
vt 0.357872725 0.505513489
vt 0.357826173 0.505606055
vt 0.357909292 0.50553745
vt 0.357862234 0.505635679
vt 0.357927412 0.505523026
vt 0.357864082 0.505614221
vt 0.35790956 0.505577981
vt 0.357917815 0.505635023
vt 0.357927412 0.505579412
vt 0.357902855 0.505612195
vn 0.001932 -0.996960 0.077886
vn -0.093184 -0.984049 0.151542
vn -0.088293 -0.993192 0.075992
vn 0.003854 -0.987845 0.155397
vn 0.092165 -0.992593 0.079144
vn 0.100857 -0.982310 0.157784
vn 0.995381 -0.000000 0.095999
vn 0.980310 -0.051816 0.190547
vn 0.992648 -0.074064 0.095735
vn 0.981628 -0.000000 0.190804
vn 0.992648 0.074064 0.095735
vn 0.980310 0.051815 0.190547
vn -0.994714 0.000000 0.102687
vn -0.974318 0.096735 0.203341
vn -0.990055 0.096674 0.102206
vn -0.978909 0.000000 0.204299
vn -0.990055 -0.096673 0.102206
vn -0.974318 -0.096734 0.203341
vn 0.162595 -0.000000 0.986693
vn 0.162595 -0.000000 0.986693
vn 0.081569 -0.000000 0.996668
vn 0.081569 -0.000000 0.996668
vn 0.162595 -0.000000 0.986693
vn 0.000000 0.000000 1.000000
vn 0.081569 -0.000000 0.996668
vn 0.000000 0.000000 1.000000
vn 0.000000 0.000000 1.000000
vn 0.100857 0.982309 0.157784
vn 0.092166 0.992593 0.079144
vn 0.001932 0.996960 0.077886
vn 0.003855 0.987845 0.155397
vn -0.088292 0.993192 0.075992
vn -0.093183 0.984049 0.151542
vn 0.001932 0.996960 0.077886
vn -0.082887 0.996559 0.000000
vn -0.088292 0.993192 0.075992
vn 0.000000 1.000000 -0.000000
vn 0.092166 0.992593 0.079144
vn 0.082888 0.996559 -0.000000
vn 0.082887 -0.996559 -0.000000
vn 0.092165 -0.992593 0.079144
vn 0.001932 -0.996960 0.077886
vn -0.000000 -1.000000 -0.000000
vn -0.088293 -0.993192 0.075992
vn -0.082888 -0.996559 0.000000
vn -0.995420 -0.095598 0.000000
vn -0.990055 -0.096673 0.102206
vn -0.994714 0.000000 0.102687
vn -1.000000 0.000000 0.000000
vn -0.990055 0.096674 0.102206
vn -0.995420 0.095599 0.000000
vn 0.995420 0.095598 -0.000000
vn 0.992648 0.074064 0.095735
vn 0.995381 -0.000000 0.095999
vn 1.000000 -0.000000 -0.000000
vn 0.992648 -0.074064 0.095735
vn 0.995420 -0.095599 -0.000000
vn -1.000000 0.000000 0.000000
vn -0.990726 -0.135872 0.000000
vn -0.990726 -0.135872 0.000000
vn -1.000000 0.000000 0.000000
vn -0.990726 0.135873 0.000000
vn -0.990726 0.135873 0.000000
vn 0.003376 -0.999965 0.007633
vn 0.096562 -0.995211 0.015200
vn 0.096562 -0.995211 0.015200
vn 0.003376 -0.999965 0.007633
vn -0.089840 -0.995956 0.000000
vn -0.089840 -0.995956 0.000000
vn 0.953848 -0.000000 0.300291
vn 0.945790 0.129709 0.297754
vn 0.945790 0.129709 0.297754
vn 0.953848 -0.000000 0.300291
vn 0.945789 -0.129710 0.297754
vn 0.945789 -0.129710 0.297754
vn 0.096563 0.995211 0.015200
vn 0.096563 0.995211 0.015200
vn 0.003377 0.999965 0.007633
vn 0.003377 0.999965 0.007633
vn -0.089839 0.995956 0.000000
vn -0.089839 0.995956 0.000000
vn 0.000000 -0.000000 -1.000000
vn 0.000000 -0.000000 -1.000000
vn 0.000000 -0.000000 -1.000000
vn 0.000000 -0.000000 -1.000000
vn 0.000000 -0.000000 -1.000000
vn 0.000000 -0.000000 -1.000000
vn 0.000000 -0.000000 -1.000000
vn 0.000000 -0.000000 -1.000000
vn 0.001158 -0.001110 -0.999999
vn 0.001158 -0.001110 -0.999999
vn -0.000000 -0.002201 -0.999998
vn -0.000000 -0.002201 -0.999998
vn 0.002316 -0.000000 -0.999997
vn -0.000865 -0.001091 -0.999999
vn 0.002316 -0.000000 -0.999997
vn -0.000865 -0.001091 -0.999999
vn 0.001158 0.001110 -0.999999
vn -0.001731 0.000000 -0.999999
vn 0.001158 0.001110 -0.999999
vn -0.001731 0.000000 -0.999999
vn 0.000000 0.002201 -0.999998
vn -0.000865 0.001091 -0.999999
vn 0.000000 0.002201 -0.999998
vn -0.000865 0.001091 -0.999999
f 1/1/1 2/2/2 3/3/3
f 1/1/1 4/4/4 2/2/2
f 5/5/5 4/4/4 1/1/1
f 5/5/5 6/6/6 4/4/4
f 7/7/7 8/8/8 9/9/9
f 7/7/7 10/10/10 8/8/8
f 11/11/11 10/10/10 7/7/7
f 11/11/11 12/12/12 10/10/10
f 13/13/13 14/14/14 15/15/15
f 13/13/13 16/16/16 14/14/14
f 17/17/17 16/16/16 13/13/13
f 17/17/17 18/18/18 16/16/16
f 19/19/19 20/20/20 21/21/21
f 19/19/19 21/21/21 22/22/22
f 23/23/23 19/19/19 22/22/22
f 22/22/22 21/21/21 24/24/24
f 23/23/23 22/22/22 25/25/25
f 22/22/22 24/24/24 26/26/26
f 25/25/25 22/22/22 26/26/26
f 25/25/25 26/26/26 27/27/27
f 28/28/28 29/29/29 30/30/30
f 28/28/28 30/30/30 31/31/31
f 31/31/31 30/30/30 32/32/32
f 31/31/31 32/32/32 33/33/33
f 34/34/34 35/35/35 36/36/36
f 34/34/34 37/37/37 35/35/35
f 38/38/38 37/37/37 34/34/34
f 38/38/38 39/39/39 37/37/37
f 40/40/40 41/41/41 42/42/42
f 40/40/40 42/42/42 43/43/43
f 43/43/43 42/42/42 44/44/44
f 43/43/43 44/44/44 45/45/45
f 46/46/46 47/47/47 48/48/48
f 46/46/46 48/48/48 49/49/49
f 49/49/49 48/48/48 50/50/50
f 49/49/49 50/50/50 51/51/51
f 52/52/52 53/53/53 54/54/54
f 52/52/52 54/54/54 55/55/55
f 55/55/55 54/54/54 56/56/56
f 55/55/55 56/56/56 57/57/57
f 58/58/58 59/59/59 60/60/60
f 58/58/58 61/61/61 59/59/59
f 62/62/62 61/61/61 58/58/58
f 62/62/62 63/63/63 61/61/61
f 64/64/64 65/65/65 66/66/66
f 64/64/64 67/67/67 65/65/65
f 68/68/68 67/67/67 64/64/64
f 68/68/68 69/69/69 67/67/67
f 70/70/70 71/71/71 72/72/72
f 70/70/70 73/73/73 71/71/71
f 74/74/74 73/73/73 70/70/70
f 74/74/74 75/75/75 73/73/73
f 76/76/76 77/77/77 78/78/78
f 76/76/76 78/78/78 79/79/79
f 79/79/79 78/78/78 80/80/80
f 79/79/79 80/80/80 81/81/81
f 82/82/82 83/83/83 84/84/84
f 84/84/84 85/85/85 82/82/82
f 84/84/84 86/86/86 85/85/85
f 86/86/86 87/87/87 85/85/85
f 86/86/86 88/88/88 87/87/87
f 88/88/88 89/89/89 87/87/87
f 90/90/90 91/91/91 92/92/92
f 90/90/90 92/92/92 93/93/93
f 94/94/94 91/91/91 90/90/90
f 93/93/93 92/92/92 95/95/95
f 94/94/94 96/96/96 91/91/91
f 93/93/93 95/95/95 97/97/97
f 98/98/98 96/96/96 94/94/94
f 97/97/97 95/95/95 99/99/99
f 98/98/98 100/100/100 96/96/96
f 97/97/97 99/99/99 101/101/101
f 102/102/102 100/100/100 98/98/98
f 101/101/101 99/99/99 103/103/103
f 102/102/102 104/104/104 100/100/100
f 101/101/101 103/103/103 105/105/105
f 105/105/105 104/104/104 102/102/102
f 105/105/105 103/103/103 104/104/104
