# explorer_hat_hat (gear rip -> Godot: Z negated + winding reversed)
v -0.707135 0.217380 0.457554
v -0.780975 0.261161 0.400320
v -0.761973 0.211674 0.400320
v -0.683866 0.250881 0.457554
v -0.780975 0.261161 0.400320
v -0.667149 0.201272 0.503184
v -0.614139 0.201272 0.503184
v -0.667149 0.201272 0.503184
v -0.667149 -0.201274 0.503184
v -0.667149 0.201272 0.503184
v -0.614139 -0.201274 0.503184
v -0.614139 -0.400320 0.400320
v -0.667149 -0.400320 0.400320
v -0.885132 0.169868 0.169870
v -0.985132 -0.000001 0.000001
v -0.885132 -0.169870 0.169870
v -0.885132 -0.169870 0.169870
v -0.985132 -0.000001 0.000001
v -0.885132 -0.169870 -0.169869
v -0.885132 -0.169870 -0.169869
v -0.985132 -0.000001 0.000001
v -0.885132 0.169868 -0.169869
v -0.985132 -0.000001 0.000001
v -0.885132 0.169868 0.169870
v -0.761973 0.211674 -0.400318
v -0.780975 0.261161 -0.400318
v -0.707135 0.217380 -0.457553
v -0.780975 0.261161 -0.400318
v -0.683866 0.250881 -0.457553
v -0.667149 0.201272 -0.503182
v -0.667149 0.201272 -0.503182
v -0.614139 0.201272 -0.503182
v -0.667149 0.201272 -0.503182
v -0.614139 -0.201274 -0.503182
v -0.667149 -0.201274 -0.503182
v -0.667149 -0.400320 -0.400318
v -0.614139 -0.400320 -0.400318
v -0.730134 0.198924 0.198925
v -0.679236 0.204130 0.204131
v -0.679236 0.204130 -0.204130
v -0.730134 0.198924 -0.198924
v -0.730134 0.198924 -0.198924
v -0.679236 0.204130 -0.204130
v -0.679236 -0.204132 -0.204130
v -0.730134 -0.198926 -0.198924
v -0.730134 -0.198926 -0.198924
v -0.679236 -0.204132 -0.204130
v -0.679236 -0.204132 0.204131
v -0.730134 -0.198926 0.198925
v -0.730134 -0.198926 0.198925
v -0.679236 -0.204132 0.204131
v -0.679236 0.204130 0.204131
v -0.730134 0.198924 0.198925
v -0.679236 0.204130 0.204131
v -0.679236 -0.204132 0.204131
v -0.679236 -0.204132 -0.204130
v -0.679236 0.204130 -0.204130
v -0.730134 -0.198926 0.198925
v -0.730134 0.198924 0.198925
v -0.730134 0.198924 -0.198924
v -0.730134 -0.198926 -0.198924
v -0.667149 0.201272 0.201274
v -0.885132 0.169868 0.169870
v -0.885132 -0.169870 0.169870
v -0.667149 -0.201274 0.201274
v -0.667149 -0.201274 0.201274
v -0.667149 0.201272 0.503184
v -0.667149 0.201272 0.201274
v -0.667149 -0.201274 0.503184
v -0.667149 -0.400320 0.400320
v -0.667149 -0.503184 0.201274
v -0.667149 -0.201274 -0.201272
v -0.667149 -0.503184 -0.201272
v -0.667149 -0.201274 -0.503182
v -0.667149 -0.400320 -0.400318
v -0.667149 0.201272 -0.201272
v -0.667149 0.201272 -0.503182
v -0.614139 0.201272 0.201274
v -0.614139 0.201272 0.503184
v -0.614139 -0.201274 0.503184
v -0.614139 -0.201274 0.201274
v -0.614139 -0.503184 0.201274
v -0.614139 -0.400320 0.400320
v -0.614139 -0.503184 -0.201272
v -0.614139 -0.201274 -0.201272
v -0.614139 0.201272 -0.201272
v -0.614139 -0.400320 -0.400318
v -0.614139 0.201272 -0.503182
v -0.614139 -0.201274 -0.503182
v -0.614139 -0.503184 0.201274
v -0.614139 -0.400320 0.400320
v -0.667149 -0.400320 0.400320
v -0.667149 -0.503184 0.201274
v -0.667149 -0.503184 -0.201272
v -0.614139 -0.503184 -0.201272
v -0.614139 -0.400320 -0.400318
v -0.667149 -0.400320 -0.400318
v -0.877003 0.224287 -0.201272
v -0.780975 0.261161 -0.400318
v -0.761973 0.211674 -0.400318
v -0.858000 0.174800 -0.201272
v -0.858000 0.174800 0.201274
v -0.877003 0.224287 0.201274
v -0.780975 0.261161 0.400320
v -0.761973 0.211674 0.400320
v -0.704962 0.260788 0.201274
v -0.780975 0.261161 0.400320
v -0.683866 0.250881 0.457554
v -0.877003 0.224287 0.201274
v -0.704962 0.260788 0.201274
v -0.877003 0.224287 -0.201272
v -0.704962 0.260788 -0.201272
v -0.780975 0.261161 -0.400318
v -0.683866 0.250881 -0.457553
v -0.704962 0.260788 -0.201272
v -0.614139 0.201272 -0.503182
v -0.614139 0.201272 -0.201272
v -0.704962 0.260788 -0.201272
v -0.614139 0.201272 0.201274
v -0.614139 0.201272 0.503184
v -0.704962 0.260788 0.201274
v -0.728231 0.227287 -0.201272
v -0.761973 0.211674 -0.400318
v -0.707135 0.217380 -0.457553
v -0.858000 0.174800 -0.201272
v -0.728231 0.227287 -0.201272
v -0.858000 0.174800 0.201274
v -0.728231 0.227287 0.201274
v -0.761973 0.211674 0.400320
v -0.707135 0.217380 0.457554
v -0.728231 0.227287 0.201274
v -0.667149 0.201272 0.503184
v -0.667149 0.201272 0.201274
v -0.728231 0.227287 0.201274
v -0.667149 0.201272 -0.201272
v -0.667149 0.201272 -0.503182
v -0.728231 0.227287 -0.201272
v -0.667149 -0.201274 0.201274
v -0.885132 -0.169870 0.169870
v -0.885132 -0.169870 -0.169869
v -0.667149 -0.201274 -0.201272
v -0.667149 -0.201274 -0.201272
v -0.885132 -0.169870 -0.169869
v -0.885132 0.169868 -0.169869
v -0.667149 0.201272 -0.201272
v -0.667149 0.201272 -0.201272
v -0.885132 0.169868 -0.169869
v -0.885132 0.169868 0.169870
v -0.667149 0.201272 0.201274
vt 0.618852735 0.503550828
vt 0.625377893 0.48971507
vt 0.616110563 0.48979035
vt 0.628120005 0.503475547
vt 0.625377893 0.48971507
vt 0.621594846 0.517311275
vt 0.630862117 0.517235994
vt 0.621594846 0.517311275
vt 0.621594787 0.568815351
vt 0.621594846 0.517311275
vt 0.630862117 0.56874007
vt 0.625377893 0.592153251
vt 0.616110563 0.592228532
vt 0.691281438 0.493313819
vt 0.691281438 0.493313819
vt 0.691281438 0.536781967
vt 0.799941659 0.536781967
vt 0.799941659 0.536781967
vt 0.799941659 0.493313819
vt 0.65809226 0.537799716
vt 0.65809226 0.537799716
vt 0.65809226 0.493783683
vt 0.65809226 0.493313819
vt 0.65809226 0.536781967
vt 0.733166754 0.48971507
vt 0.723895311 0.48971507
vt 0.730488777 0.502609074
vt 0.723895311 0.48971507
vt 0.721217334 0.502609074
vt 0.72781074 0.515503109
vt 0.72781074 0.515503109
vt 0.718539357 0.515503109
vt 0.72781074 0.515503109
vt 0.718539357 0.567656338
vt 0.72781074 0.567656338
vt 0.733166814 0.593444407
vt 0.723895311 0.593444407
vt 0.296201319 0.442258894
vt 0.277229279 0.441117108
vt 0.277229279 0.530656576
vt 0.296201319 0.52951479
vt 0.220313162 0.52951479
vt 0.239285201 0.530656576
vt 0.239285201 0.441117108
vt 0.220313162 0.442258894
vt 0.277229279 0.442258894
vt 0.25825724 0.441117108
vt 0.25825724 0.530656576
vt 0.277229279 0.52951479
vt 0.239285201 0.52951479
vt 0.25825724 0.530656576
vt 0.25825724 0.441117108
vt 0.239285201 0.442258894
vt 0.220313162 0.530656576
vt 0.220313162 0.441117108
vt 0.119405933 0.441117108
vt 0.119405933 0.530656576
vt 0.119405933 0.530656636
vt 0.119405933 0.617912471
vt 0.217739612 0.617912471
vt 0.217739612 0.530656576
vt 0.718539357 0.48971507
vt 0.691281438 0.493313819
vt 0.691281438 0.536781967
vt 0.718539298 0.541219175
vt 0.698049903 0.398446888
vt 0.651227355 0.359331965
vt 0.651227415 0.398446888
vt 0.698049903 0.359331965
vt 0.721202075 0.372658849
vt 0.733166814 0.398446888
vt 0.698049903 0.450600147
vt 0.733166814 0.450600147
vt 0.698049903 0.48971507
vt 0.721202075 0.476388186
vt 0.651227415 0.450600177
vt 0.651227474 0.48971507
vt 0.768283606 0.450600177
vt 0.768283725 0.48971507
vt 0.815106153 0.48971507
vt 0.815106153 0.450600147
vt 0.850223064 0.450600147
vt 0.838258266 0.476388186
vt 0.850223064 0.398446888
vt 0.815106153 0.398446888
vt 0.768283606 0.398446888
vt 0.838258266 0.372658849
vt 0.768283606 0.359331965
vt 0.815106153 0.359331965
vt 0.813000798 0.568800032
vt 0.811104894 0.592153251
vt 0.820372224 0.592228532
vt 0.822268009 0.568875313
vt 0.822268009 0.517371237
vt 0.813000798 0.517295957
vt 0.811104894 0.48971507
vt 0.820372224 0.48979035
vt 0.809208989 0.517295957
vt 0.811104894 0.48971507
vt 0.801837564 0.48979035
vt 0.799941659 0.517371237
vt 0.799941659 0.568875313
vt 0.809208989 0.568800032
vt 0.811104894 0.592153251
vt 0.801837564 0.592228532
vt 0.75072521 0.450600177
vt 0.745131493 0.476388186
vt 0.756707609 0.483051628
vt 0.733166814 0.450600177
vt 0.75072521 0.450600177
vt 0.733166814 0.398446918
vt 0.75072521 0.398446918
vt 0.745131493 0.372658879
vt 0.756707549 0.365995407
vt 0.75072521 0.398446918
vt 0.768283606 0.359331965
vt 0.768283606 0.398446888
vt 0.75072521 0.398446918
vt 0.768283606 0.450600177
vt 0.768283725 0.48971507
vt 0.75072521 0.450600177
vt 0.633669019 0.450600177
vt 0.628075242 0.476388186
vt 0.639651358 0.483051628
vt 0.616110563 0.450600177
vt 0.633669019 0.450600177
vt 0.616110563 0.398446918
vt 0.633669019 0.398446918
vt 0.628075242 0.372658879
vt 0.639651299 0.365995407
vt 0.633669019 0.398446918
vt 0.651227355 0.359331965
vt 0.651227415 0.398446888
vt 0.633669019 0.398446918
vt 0.651227415 0.450600177
vt 0.651227474 0.48971507
vt 0.633669019 0.450600177
vt 0.77268374 0.541219175
vt 0.799941659 0.536781967
vt 0.799941659 0.493313819
vt 0.77268374 0.48971507
vt 0.630862117 0.541868329
vt 0.65809226 0.537799716
vt 0.65809226 0.493783683
vt 0.630862117 0.48971507
vt 0.68535012 0.48971507
vt 0.65809226 0.493313819
vt 0.65809226 0.536781967
vt 0.68535012 0.541219175
vn -0.614229 0.166984 0.771258
vn -0.703557 -0.094284 0.704357
vn -0.763505 -0.293180 0.575418
vn -0.371205 0.494781 0.785747
vn -0.601653 0.028791 0.798238
vn -0.319930 0.580737 0.748592
vn -0.000000 0.363310 0.931668
vn -0.222185 0.403311 0.887679
vn 0.000000 -0.236239 0.971695
vn -0.000000 0.363310 0.931668
vn 0.000000 -0.236239 0.971695
vn 0.000000 -0.707107 0.707107
vn 0.000000 -0.707107 0.707107
vn -0.923209 0.271741 0.271741
vn -0.981286 0.000000 0.192557
vn -0.923209 -0.271741 0.271741
vn -0.923209 -0.271741 0.271741
vn -0.981286 -0.192557 -0.000000
vn -0.923209 -0.271741 -0.271741
vn -0.923209 -0.271741 -0.271741
vn -0.981286 -0.000000 -0.192557
vn -0.923209 0.271741 -0.271741
vn -0.981286 0.192557 -0.000000
vn -0.923209 0.271741 0.271741
vn -0.763505 -0.293180 -0.575418
vn -0.703557 -0.094284 -0.704357
vn -0.614229 0.166984 -0.771258
vn -0.601653 0.028791 -0.798238
vn -0.371205 0.494781 -0.785747
vn -0.319930 0.580737 -0.748592
vn -0.222185 0.403311 -0.887679
vn -0.000000 0.363310 -0.931668
vn -0.000000 0.363310 -0.931668
vn 0.000000 -0.236239 -0.971695
vn 0.000000 -0.236239 -0.971695
vn 0.000000 -0.707107 -0.707107
vn 0.000000 -0.707107 -0.707107
vn -0.101755 0.994809 -0.000000
vn -0.101755 0.994809 -0.000000
vn -0.101755 0.994809 -0.000000
vn -0.101755 0.994809 -0.000000
vn -0.101755 0.000000 -0.994809
vn -0.101755 0.000000 -0.994809
vn -0.101755 0.000000 -0.994809
vn -0.101755 0.000000 -0.994809
vn -0.101755 -0.994809 -0.000000
vn -0.101755 -0.994809 -0.000000
vn -0.101755 -0.994809 -0.000000
vn -0.101755 -0.994809 -0.000000
vn -0.101755 0.000000 0.994809
vn -0.101755 0.000000 0.994809
vn -0.101755 0.000000 0.994809
vn -0.101755 0.000000 0.994809
vn 1.000000 0.000000 -0.000000
vn 1.000000 0.000000 -0.000000
vn 1.000000 0.000000 -0.000000
vn 1.000000 0.000000 -0.000000
vn -1.000000 0.000000 -0.000000
vn -1.000000 0.000000 -0.000000
vn -1.000000 0.000000 -0.000000
vn -1.000000 0.000000 -0.000000
vn -0.142593 0.000000 0.989781
vn -0.142593 0.000000 0.989781
vn -0.142593 0.000000 0.989781
vn -0.142593 0.000000 0.989781
vn -1.000000 0.000000 -0.000000
vn -1.000000 0.000000 -0.000000
vn -1.000000 0.000000 -0.000000
vn -1.000000 0.000000 -0.000000
vn -1.000000 0.000000 -0.000000
vn -1.000000 0.000000 -0.000000
vn -1.000000 0.000000 -0.000000
vn -1.000000 0.000000 -0.000000
vn -1.000000 0.000000 -0.000000
vn -1.000000 0.000000 -0.000000
vn -1.000000 0.000000 -0.000000
vn -1.000000 0.000000 -0.000000
vn 1.000000 0.000000 -0.000000
vn 1.000000 0.000000 -0.000000
vn 1.000000 0.000000 -0.000000
vn 1.000000 0.000000 -0.000000
vn 1.000000 0.000000 -0.000000
vn 1.000000 0.000000 -0.000000
vn 1.000000 0.000000 -0.000000
vn 1.000000 0.000000 -0.000000
vn 1.000000 0.000000 -0.000000
vn 1.000000 0.000000 -0.000000
vn 1.000000 0.000000 -0.000000
vn 1.000000 0.000000 -0.000000
vn 0.000000 -0.971695 0.236239
vn 0.000000 -0.707107 0.707107
vn 0.000000 -0.707107 0.707107
vn 0.000000 -0.971695 0.236239
vn 0.000000 -0.971695 -0.236239
vn 0.000000 -0.971695 -0.236239
vn 0.000000 -0.707107 -0.707107
vn 0.000000 -0.707107 -0.707107
vn -0.907117 -0.348326 -0.236239
vn -0.763505 -0.293180 -0.575418
vn -0.763505 -0.293180 -0.575418
vn -0.907117 -0.348326 -0.236239
vn -0.907117 -0.348326 0.236239
vn -0.907117 -0.348326 0.236239
vn -0.763505 -0.293180 0.575418
vn -0.763505 -0.293180 0.575418
vn 0.099699 0.994956 -0.011065
vn -0.060721 0.997840 -0.025060
vn 0.417091 0.908843 0.006369
vn -0.207374 0.977425 -0.040447
vn -0.134975 0.990770 -0.012486
vn -0.207468 0.977870 0.026962
vn -0.110351 0.993753 0.016678
vn -0.060721 0.997840 0.025060
vn 0.417091 0.908843 -0.006369
vn 0.234509 0.972051 0.011091
vn 0.579725 0.814812 -0.000000
vn 0.558728 0.829340 0.004262
vn 0.442854 0.896581 -0.004745
vn 0.556080 0.831123 -0.003197
vn 0.579725 0.814812 -0.000000
vn 0.405301 0.914161 0.006355
vn 0.088275 -0.996032 0.011265
vn 0.267166 -0.963175 0.030259
vn -0.210276 -0.977463 0.018718
vn 0.374948 -0.927035 0.004577
vn 0.321797 -0.946688 0.015105
vn 0.374950 -0.927040 -0.003051
vn 0.303724 -0.952547 -0.020159
vn 0.267166 -0.963175 -0.030259
vn -0.210276 -0.977463 -0.018718
vn -0.048115 -0.998778 -0.011310
vn -0.373662 -0.927565 -0.000000
vn -0.385797 -0.922583 -0.001103
vn -0.262589 -0.964807 -0.013975
vn -0.387309 -0.921949 0.000827
vn -0.373662 -0.927565 -0.000000
vn -0.216805 -0.976035 0.018740
vn -0.142593 -0.989781 -0.000000
vn -0.142593 -0.989781 -0.000000
vn -0.142593 -0.989781 -0.000000
vn -0.142593 -0.989781 -0.000000
vn -0.142593 0.000000 -0.989781
vn -0.142593 0.000000 -0.989781
vn -0.142593 0.000000 -0.989781
vn -0.142593 0.000000 -0.989781
vn -0.142593 0.989781 -0.000000
vn -0.142593 0.989781 -0.000000
vn -0.142593 0.989781 -0.000000
vn -0.142593 0.989781 -0.000000
f 1/1/1 2/2/2 3/3/3
f 4/4/4 5/5/5 1/1/1
f 6/6/6 4/4/4 1/1/1
f 7/7/7 4/4/4 8/8/8
f 9/9/9 7/7/7 10/10/10
f 9/9/9 11/11/11 7/7/7
f 9/9/9 12/12/12 11/11/11
f 9/9/9 13/13/13 12/12/12
f 14/14/14 15/15/15 16/16/16
f 17/17/17 18/18/18 19/19/19
f 20/20/20 21/21/21 22/22/22
f 22/22/22 23/23/23 24/24/24
f 25/25/25 26/26/26 27/27/27
f 27/27/27 28/28/28 29/29/29
f 27/27/27 29/29/29 30/30/30
f 31/31/31 29/29/29 32/32/32
f 33/33/33 32/32/32 34/34/34
f 33/33/33 34/34/34 35/35/35
f 34/34/34 36/36/36 35/35/35
f 34/34/34 37/37/37 36/36/36
f 38/38/38 39/39/39 40/40/40
f 38/38/38 40/40/40 41/41/41
f 42/42/42 43/43/43 44/44/44
f 42/42/42 44/44/44 45/45/45
f 46/46/46 47/47/47 48/48/48
f 46/46/46 48/48/48 49/49/49
f 50/50/50 51/51/51 52/52/52
f 50/50/50 52/52/52 53/53/53
f 54/54/54 55/55/55 56/56/56
f 54/54/54 56/56/56 57/57/57
f 58/58/58 59/59/59 60/60/60
f 58/58/58 60/60/60 61/61/61
f 62/62/62 63/63/63 64/64/64
f 62/62/62 64/64/64 65/65/65
f 66/66/66 67/67/67 68/68/68
f 66/66/66 69/69/69 67/67/67
f 66/66/66 70/70/70 69/69/69
f 66/66/66 71/71/71 70/70/70
f 72/72/72 71/71/71 66/66/66
f 72/72/72 73/73/73 71/71/71
f 74/74/74 73/73/73 72/72/72
f 74/74/74 75/75/75 73/73/73
f 76/76/76 74/74/74 72/72/72
f 76/76/76 77/77/77 74/74/74
f 78/78/78 79/79/79 80/80/80
f 78/78/78 80/80/80 81/81/81
f 80/80/80 82/82/82 81/81/81
f 80/80/80 83/83/83 82/82/82
f 81/81/81 82/82/82 84/84/84
f 78/78/78 81/81/81 85/85/85
f 81/81/81 84/84/84 85/85/85
f 78/78/78 85/85/85 86/86/86
f 85/85/85 84/84/84 87/87/87
f 85/85/85 88/88/88 86/86/86
f 85/85/85 87/87/87 89/89/89
f 85/85/85 89/89/89 88/88/88
f 90/90/90 91/91/91 92/92/92
f 90/90/90 92/92/92 93/93/93
f 94/94/94 90/90/90 93/93/93
f 94/94/94 95/95/95 90/90/90
f 94/94/94 96/96/96 95/95/95
f 94/94/94 97/97/97 96/96/96
f 98/98/98 99/99/99 100/100/100
f 98/98/98 100/100/100 101/101/101
f 102/102/102 98/98/98 101/101/101
f 102/102/102 103/103/103 98/98/98
f 102/102/102 104/104/104 103/103/103
f 102/102/102 105/105/105 104/104/104
f 106/106/106 107/107/107 108/108/108
f 109/109/109 107/107/107 110/110/110
f 110/110/110 111/111/111 109/109/109
f 112/112/112 111/111/111 110/110/110
f 112/112/112 113/113/113 111/111/111
f 114/114/114 113/113/113 115/115/115
f 116/116/116 114/114/114 117/117/117
f 117/117/117 114/114/114 118/118/118
f 117/117/117 118/118/118 119/119/119
f 119/119/119 108/108/108 120/120/120
f 119/119/119 118/118/118 121/121/121
f 121/121/121 108/108/108 119/119/119
f 122/122/122 123/123/123 124/124/124
f 125/125/125 123/123/123 126/126/126
f 126/126/126 127/127/127 125/125/125
f 128/128/128 127/127/127 126/126/126
f 128/128/128 129/129/129 127/127/127
f 130/130/130 129/129/129 131/131/131
f 132/132/132 130/130/130 133/133/133
f 133/133/133 130/130/130 134/134/134
f 133/133/133 134/134/134 135/135/135
f 135/135/135 124/124/124 136/136/136
f 135/135/135 134/134/134 137/137/137
f 137/137/137 124/124/124 135/135/135
f 138/138/138 139/139/139 140/140/140
f 138/138/138 140/140/140 141/141/141
f 142/142/142 143/143/143 144/144/144
f 142/142/142 144/144/144 145/145/145
f 146/146/146 147/147/147 148/148/148
f 146/146/146 148/148/148 149/149/149
