# fighter_jet_hat_hat (gear rip -> Godot: Z negated + winding reversed)
v -0.477612 -0.009213 -0.231000
v -0.609475 -0.124858 -0.231000
v -0.627045 -0.027639 -0.231000
v -0.627045 0.027639 -0.115677
v -0.609475 0.124858 -0.115677
v -0.609475 0.124858 -0.231000
v -0.627045 -0.027639 -0.231000
v -0.627045 0.027639 -0.231000
v -0.627045 -0.027639 -0.115677
v -0.609475 -0.124858 -0.231000
v -0.627045 0.027639 -0.115677
v -0.609475 0.124858 -0.231000
v -0.627045 0.027639 -0.231000
v -0.221240 0.220500 -0.115500
v -0.207093 0.220500 0.220500
v -0.221240 0.172807 -0.115500
v -0.207093 -0.220500 0.220500
v -0.221240 -0.172807 -0.115500
v -0.591880 -0.220500 0.220500
v -0.221240 -0.220500 -0.115500
v -0.207093 -0.220500 0.220500
v -0.599989 0.220500 -0.220500
v -0.221240 0.220500 -0.115500
v -0.242276 0.220500 -0.220500
v -0.221240 -0.172807 -0.115500
v -0.207093 -0.220500 0.220500
v -0.221240 -0.220500 -0.115500
v -0.221240 0.172807 -0.115500
v -0.207093 0.220500 0.220500
v -0.238162 0.143242 0.080045
v -0.238162 -0.143242 0.080045
v -0.238162 -0.143242 -0.210000
v -0.238162 -0.107431 -0.262500
v -0.383081 -0.027083 -0.262500
v -0.383081 0.027083 -0.262500
v -0.328613 0.107431 -0.262500
v -0.238162 0.107431 -0.262500
v -0.238162 -0.107431 -0.262500
v -0.383081 0.027083 -0.262500
v -0.238162 0.107431 -0.262500
v -0.383081 -0.027083 -0.262500
v -0.328613 -0.107431 -0.262500
v -0.477612 0.009213 -0.231000
v -0.425348 0.124858 -0.231000
v -0.425348 0.027639 -0.231000
v -0.627045 0.027639 -0.231000
v -0.609475 0.124858 -0.231000
v -0.627045 -0.027639 -0.231000
v -0.477612 -0.009213 -0.231000
v -0.425348 -0.124858 -0.231000
v -0.425348 -0.027639 -0.231000
v -0.609475 -0.124858 -0.231000
v -0.573991 -0.195128 -0.231000
v -0.460094 -0.195128 -0.231000
v -0.693031 0.202374 0.197212
v -0.693031 -0.202374 0.197212
v -0.591880 -0.220500 0.220500
v -0.693031 0.202374 0.197212
v -0.591879 0.220500 0.220500
v -0.238162 0.143242 0.080045
v -0.431387 0.036111 0.080045
v -0.431387 -0.036111 0.080045
v -0.358764 -0.143242 0.080045
v -0.238162 -0.143242 0.080045
v -0.238162 0.143242 0.080045
v -0.431387 -0.036111 0.080045
v -0.238162 -0.143242 0.080045
v -0.431387 0.036111 0.080045
v -0.358763 0.143242 0.080045
v -0.460094 -0.195128 -0.115677
v -0.609475 -0.124858 -0.115677
v -0.573991 -0.195128 -0.115677
v -0.425348 -0.124858 -0.115677
v -0.609475 -0.124858 -0.115677
v -0.477612 -0.009213 -0.115677
v -0.627045 -0.027639 -0.115677
v -0.477612 0.009213 -0.115677
v -0.627045 0.027639 -0.115677
v -0.609475 0.124858 -0.115677
v -0.425348 0.124858 -0.115677
v -0.425348 0.027639 -0.115677
v -0.460094 0.195128 -0.115677
v -0.573991 0.195128 -0.115677
v -0.609475 -0.124858 -0.231000
v -0.609475 -0.124858 -0.115677
v -0.627045 -0.027639 -0.115677
v -0.477612 -0.009213 -0.115677
v -0.425348 -0.124858 -0.115677
v -0.425348 -0.027639 -0.115677
v -0.477612 0.009213 -0.231000
v -0.609475 0.124858 -0.231000
v -0.425348 0.124858 -0.231000
v -0.489167 0.225181 0.224948
v -0.489167 0.225181 -0.225304
v -0.542187 0.225181 -0.225304
v -0.542187 0.225181 0.224948
v -0.489167 0.225181 -0.225304
v -0.489167 -0.225181 -0.225304
v -0.542187 -0.225181 -0.225304
v -0.542187 0.225181 -0.225304
v -0.489167 -0.225181 -0.225304
v -0.489167 -0.225180 0.224948
v -0.542187 -0.225180 0.224948
v -0.542187 -0.225181 -0.225304
v -0.489167 -0.225180 0.224948
v -0.489167 0.225181 0.224948
v -0.542187 0.225181 0.224948
v -0.542187 -0.225180 0.224948
v -0.489167 0.225181 -0.225304
v -0.489167 0.225181 0.224948
v -0.489167 -0.225180 0.224948
v -0.489167 -0.225181 -0.225304
v -0.542187 -0.225181 -0.225304
v -0.542187 -0.225180 0.224948
v -0.542187 0.225181 0.224948
v -0.542187 0.225181 -0.225304
v -0.693031 0.202374 0.197212
v -0.591879 0.220500 0.220500
v -0.599989 0.220500 -0.220500
v -0.693031 0.202374 -0.207536
v -0.599989 0.220500 -0.220500
v -0.599989 0.172807 -0.220500
v -0.693031 0.202374 -0.207536
v -0.693031 -0.202374 -0.207536
v -0.599989 -0.172807 -0.115500
v -0.599989 -0.172807 -0.220500
v -0.599989 0.172807 -0.220500
v -0.599989 0.172807 -0.115500
v -0.358764 -0.143242 -0.210000
v -0.238162 -0.143242 -0.210000
v -0.238162 -0.143242 0.080045
v -0.358764 -0.143242 0.080045
v -0.599989 -0.172807 -0.115500
v -0.221240 -0.172807 -0.115500
v -0.242276 -0.172807 -0.220500
v -0.599989 -0.172807 -0.220500
v -0.693031 -0.202374 -0.207536
v -0.599989 -0.172807 -0.220500
v -0.599989 -0.220500 -0.220500
v -0.599989 0.172807 -0.220500
v -0.221240 -0.172807 -0.115500
v -0.221240 -0.220500 -0.115500
v -0.242276 -0.220500 -0.220500
v -0.242276 -0.172807 -0.220500
v -0.599989 -0.220500 -0.220500
v -0.591880 -0.220500 0.220500
v -0.693031 -0.202374 0.197212
v -0.693031 -0.202374 -0.207536
v -0.477612 -0.009213 -0.231000
v -0.477612 0.009213 -0.231000
v -0.477612 0.009213 -0.115677
v -0.477612 -0.009213 -0.115677
v -0.207093 0.220500 0.220500
v -0.221240 0.220500 -0.115500
v -0.599989 0.220500 -0.220500
v -0.591879 0.220500 0.220500
v -0.431387 -0.036111 -0.210000
v -0.431387 0.036111 -0.210000
v -0.383081 0.027083 -0.262500
v -0.383081 -0.027083 -0.262500
v -0.460094 -0.195128 -0.231000
v -0.425348 -0.124858 -0.231000
v -0.425348 -0.124858 -0.115677
v -0.460094 -0.195128 -0.115677
v -0.242276 0.172807 -0.220500
v -0.221240 0.172807 -0.115500
v -0.599989 0.172807 -0.115500
v -0.599989 0.172807 -0.220500
v -0.477612 -0.009213 -0.115677
v -0.425348 -0.027639 -0.115677
v -0.425348 -0.027639 -0.231000
v -0.477612 -0.009213 -0.231000
v -0.599989 0.220500 -0.220500
v -0.242276 0.220500 -0.220500
v -0.242276 0.172807 -0.220500
v -0.599989 0.172807 -0.220500
v -0.591880 -0.220500 0.220500
v -0.599989 -0.220500 -0.220500
v -0.221240 -0.220500 -0.115500
v -0.242276 -0.220500 -0.220500
v -0.221240 -0.172807 -0.115500
v -0.599989 -0.172807 -0.115500
v -0.599989 0.172807 -0.115500
v -0.221240 0.172807 -0.115500
v -0.358763 0.143242 0.080045
v -0.238162 0.143242 0.080045
v -0.238162 0.143242 -0.210000
v -0.358763 0.143242 -0.210000
v -0.591879 0.220500 0.220500
v -0.591880 -0.220500 0.220500
v -0.207093 -0.220500 0.220500
v -0.207093 0.220500 0.220500
v -0.238162 0.143242 -0.210000
v -0.238162 0.107431 -0.262500
v -0.328613 0.107431 -0.262500
v -0.358763 0.143242 -0.210000
v -0.573991 0.195128 -0.115677
v -0.460094 0.195128 -0.115677
v -0.460094 0.195128 -0.231000
v -0.573991 0.195128 -0.231000
v -0.693031 0.202374 0.197212
v -0.693031 0.202374 -0.207536
v -0.693031 -0.202374 -0.207536
v -0.693031 -0.202374 0.197212
v -0.238162 0.143242 0.080045
v -0.238162 -0.143242 -0.210000
v -0.238162 0.143242 -0.210000
v -0.238162 0.107431 -0.262500
v -0.238162 -0.107431 -0.262500
v -0.431387 -0.036111 -0.210000
v -0.358764 -0.143242 -0.210000
v -0.358764 -0.143242 0.080045
v -0.431387 -0.036111 0.080045
v -0.431387 0.036111 -0.210000
v -0.431387 -0.036111 -0.210000
v -0.431387 -0.036111 0.080045
v -0.431387 0.036111 0.080045
v -0.425348 0.027639 -0.115677
v -0.477612 0.009213 -0.115677
v -0.477612 0.009213 -0.231000
v -0.425348 0.027639 -0.231000
v -0.242276 0.172807 -0.220500
v -0.242276 0.220500 -0.220500
v -0.221240 0.220500 -0.115500
v -0.221240 0.172807 -0.115500
v -0.358763 0.143242 -0.210000
v -0.431387 0.036111 -0.210000
v -0.431387 0.036111 0.080045
v -0.358763 0.143242 0.080045
v -0.573991 -0.195128 -0.115677
v -0.609475 -0.124858 -0.115677
v -0.609475 -0.124858 -0.231000
v -0.573991 -0.195128 -0.231000
v -0.573991 -0.195128 -0.231000
v -0.460094 -0.195128 -0.231000
v -0.460094 -0.195128 -0.115677
v -0.573991 -0.195128 -0.115677
v -0.238162 -0.143242 -0.210000
v -0.358764 -0.143242 -0.210000
v -0.328613 -0.107431 -0.262500
v -0.238162 -0.107431 -0.262500
v -0.599989 -0.172807 -0.220500
v -0.242276 -0.172807 -0.220500
v -0.242276 -0.220500 -0.220500
v -0.599989 -0.220500 -0.220500
v -0.425348 -0.027639 -0.115677
v -0.425348 -0.124858 -0.115677
v -0.425348 -0.124858 -0.231000
v -0.425348 -0.027639 -0.231000
v -0.425348 0.124858 -0.115677
v -0.425348 0.027639 -0.115677
v -0.425348 0.027639 -0.231000
v -0.425348 0.124858 -0.231000
v -0.609475 0.124858 -0.115677
v -0.573991 0.195128 -0.115677
v -0.573991 0.195128 -0.231000
v -0.609475 0.124858 -0.231000
v -0.358763 0.143242 -0.210000
v -0.328613 0.107431 -0.262500
v -0.383081 0.027083 -0.262500
v -0.431387 0.036111 -0.210000
v -0.358764 -0.143242 -0.210000
v -0.431387 -0.036111 -0.210000
v -0.383081 -0.027083 -0.262500
v -0.328613 -0.107431 -0.262500
v -0.425348 0.124858 -0.231000
v -0.609475 0.124858 -0.231000
v -0.573991 0.195128 -0.231000
v -0.460094 0.195128 -0.231000
v -0.460094 0.195128 -0.115677
v -0.425348 0.124858 -0.115677
v -0.425348 0.124858 -0.231000
v -0.460094 0.195128 -0.231000
vt 0.910915256 0.834630966
vt 0.910915256 0.746113777
vt 0.822398067 0.746113777
vt 0.822398067 0.746113777
vt 0.822398067 0.746113777
vt 0.822398067 0.834630966
vt 0.910915256 0.834630966
vt 0.910915256 0.834630966
vt 0.822398067 0.746113777
vt 0.910915256 0.834630966
vt 0.822398067 0.746113777
vt 0.822398067 0.834630966
vt 0.910915256 0.834630966
vt 0.1801337 0.664907932
vt 0.1801337 0.753425121
vt 0.1801337 0.664907932
vt 0.268650889 0.753425121
vt 0.1801337 0.664907932
vt 0.268650889 0.753425121
vt 0.1801337 0.753425121
vt 0.1801337 0.753425121
vt 0.268650889 0.753425121
vt 0.1801337 0.753425121
vt 0.1801337 0.753425121
vt 0.1801337 0.664907932
vt 0.268650889 0.753425121
vt 0.268650889 0.664907932
vt 0.1801337 0.664907932
vt 0.1801337 0.753425121
vt 0.226888582 0.155454934
vt 0.315405756 0.155454934
vt 0.315405756 0.0669377446
vt 0.226888582 0.155454934
vt 0.315405756 0.0669377446
vt 0.315405756 0.0669377446
vt 0.315405756 0.0669377446
vt 0.226888582 0.0669377446
vt 0.226888582 0.155454934
vt 0.315405756 0.0669377446
vt 0.226888582 0.0669377446
vt 0.315405756 0.0669377446
vt 0.315405756 0.155454934
vt 0.910915256 0.834630966
vt 0.910915256 0.746113777
vt 0.910915256 0.834630966
vt 0.822398067 0.746113777
vt 0.822398067 0.746113777
vt 0.822398067 0.746113777
vt 0.910915256 0.834630966
vt 0.910915256 0.834630966
vt 0.910915256 0.834630966
vt 0.910915256 0.746113777
vt 0.910915256 0.834630966
vt 0.822398067 0.834630966
vt 0.268650889 0.753425121
vt 0.268650889 0.664907932
vt 0.1801337 0.664907932
vt 0.268650889 0.753425121
vt 0.1801337 0.753425121
vt 0.226888582 0.155454934
vt 0.315405756 0.0669377446
vt 0.315405756 0.0669377446
vt 0.315405756 0.0669377446
vt 0.226888582 0.0669377446
vt 0.226888582 0.155454934
vt 0.315405756 0.0669377446
vt 0.226888582 0.0669377446
vt 0.315405756 0.0669377446
vt 0.315405756 0.155454934
vt 0.82576704 0.807309389
vt 0.849719644 0.831261992
vt 0.835361123 0.82166791
vt 0.822398067 0.790372372
vt 0.849719644 0.831261992
vt 0.835361123 0.759076834
vt 0.866656661 0.834630966
vt 0.849719644 0.749482751
vt 0.907546282 0.807309389
vt 0.910915256 0.790372372
vt 0.883593678 0.749482751
vt 0.866656661 0.746113777
vt 0.897952199 0.759076834
vt 0.907546282 0.773435354
vt 0.910915256 0.834630966
vt 0.910915256 0.746113777
vt 0.822398067 0.746113777
vt 0.835361123 0.759076834
vt 0.822398067 0.790372372
vt 0.82576704 0.773435354
vt 0.910915256 0.834630966
vt 0.822398067 0.746113777
vt 0.910915256 0.746113777
vt 0.631468594 0.136851251
vt 0.631468594 0.287325561
vt 0.781942904 0.287325561
vt 0.781942904 0.136851251
vt 0.631468594 0.136851251
vt 0.631468594 0.287325561
vt 0.781942904 0.287325561
vt 0.781942904 0.136851251
vt 0.631468594 0.136851251
vt 0.631468594 0.287325561
vt 0.781942904 0.287325561
vt 0.781942904 0.136851251
vt 0.631468594 0.136851251
vt 0.631468594 0.287325561
vt 0.781942904 0.287325561
vt 0.781942904 0.136851251
vt 0.631468594 0.136851251
vt 0.631468594 0.287325561
vt 0.781942904 0.287325561
vt 0.781942904 0.136851251
vt 0.631468594 0.136851251
vt 0.631468594 0.287325561
vt 0.781942904 0.287325561
vt 0.781942904 0.136851251
vt 0.268650889 0.664907932
vt 0.1801337 0.664907932
vt 0.1801337 0.753425121
vt 0.268650889 0.753425121
vt 0.1801337 0.664907932
vt 0.1801337 0.753425121
vt 0.268650889 0.664907932
vt 0.268650889 0.753425121
vt 0.268650889 0.664907932
vt 0.1801337 0.664907932
vt 0.1801337 0.753425121
vt 0.268650889 0.753425121
vt 0.315405756 0.0669377446
vt 0.226888582 0.0669377446
vt 0.226888582 0.155454934
vt 0.315405756 0.155454934
vt 0.1801337 0.753425121
vt 0.268650889 0.753425121
vt 0.268650889 0.664907932
vt 0.1801337 0.664907932
vt 0.268650889 0.753425121
vt 0.1801337 0.753425121
vt 0.1801337 0.753425121
vt 0.1801337 0.753425121
vt 0.1801337 0.753425121
vt 0.268650889 0.753425121
vt 0.268650889 0.664907932
vt 0.1801337 0.664907932
vt 0.1801337 0.664907932
vt 0.1801337 0.753425121
vt 0.268650889 0.753425121
vt 0.268650889 0.664907932
vt 0.822398067 0.834630966
vt 0.910915256 0.834630966
vt 0.910915256 0.746113777
vt 0.822398067 0.746113777
vt 0.1801337 0.664907932
vt 0.1801337 0.753425121
vt 0.268650889 0.753425121
vt 0.268650889 0.664907932
vt 0.315405756 0.0669377446
vt 0.226888582 0.0669377446
vt 0.226888582 0.155454934
vt 0.315405756 0.155454934
vt 0.822398067 0.834630966
vt 0.910915256 0.834630966
vt 0.910915256 0.746113777
vt 0.822398067 0.746113777
vt 0.1801337 0.664907932
vt 0.1801337 0.753425121
vt 0.268650889 0.753425121
vt 0.268650889 0.664907932
vt 0.910915256 0.746113777
vt 0.822398067 0.746113777
vt 0.822398067 0.834630966
vt 0.910915256 0.834630966
vt 0.268650889 0.664907932
vt 0.1801337 0.664907932
vt 0.1801337 0.753425121
vt 0.268650889 0.753425121
vt 0.268650889 0.753425121
vt 0.268650889 0.664907932
vt 0.1801337 0.753425121
vt 0.1801337 0.664907932
vt 0.1801337 0.753425121
vt 0.268650889 0.753425121
vt 0.268650889 0.664907932
vt 0.1801337 0.664907932
vt 0.315405756 0.0669377446
vt 0.226888582 0.0669377446
vt 0.226888582 0.155454934
vt 0.315405756 0.155454934
vt 0.268650889 0.753425121
vt 0.268650889 0.664907932
vt 0.1801337 0.664907932
vt 0.1801337 0.753425121
vt 0.226888582 0.0669377446
vt 0.226888582 0.155454934
vt 0.315405756 0.155454934
vt 0.315405756 0.0669377446
vt 0.910915256 0.746113777
vt 0.822398067 0.746113777
vt 0.822398067 0.834630966
vt 0.910915256 0.834630966
vt 0.268650889 0.753425121
vt 0.268650889 0.664907932
vt 0.1801337 0.664907932
vt 0.1801337 0.753425121
vt 0.226888582 0.155454934
vt 0.315405756 0.0669377446
vt 0.315405756 0.0669377446
vt 0.315405756 0.155454934
vt 0.226888582 0.155454934
vt 0.315405756 0.0669377446
vt 0.226888582 0.0669377446
vt 0.226888582 0.155454934
vt 0.315405756 0.155454934
vt 0.315405756 0.0669377446
vt 0.226888582 0.0669377446
vt 0.226888582 0.155454934
vt 0.315405756 0.155454934
vt 0.910915256 0.746113777
vt 0.822398067 0.746113777
vt 0.822398067 0.834630966
vt 0.910915256 0.834630966
vt 0.268650889 0.664907932
vt 0.1801337 0.664907932
vt 0.1801337 0.753425121
vt 0.268650889 0.753425121
vt 0.315405756 0.0669377446
vt 0.226888582 0.0669377446
vt 0.226888582 0.155454934
vt 0.315405756 0.155454934
vt 0.910915256 0.746113777
vt 0.822398067 0.746113777
vt 0.822398067 0.834630966
vt 0.910915256 0.834630966
vt 0.822398067 0.834630966
vt 0.910915256 0.834630966
vt 0.910915256 0.746113777
vt 0.822398067 0.746113777
vt 0.315405756 0.0669377446
vt 0.226888582 0.0669377446
vt 0.226888582 0.155454934
vt 0.315405756 0.155454934
vt 0.268650889 0.664907932
vt 0.1801337 0.664907932
vt 0.1801337 0.753425121
vt 0.268650889 0.753425121
vt 0.910915256 0.746113777
vt 0.822398067 0.746113777
vt 0.822398067 0.834630966
vt 0.910915256 0.834630966
vt 0.910915256 0.746113777
vt 0.822398067 0.746113777
vt 0.822398067 0.834630966
vt 0.910915256 0.834630966
vt 0.910915256 0.746113777
vt 0.822398067 0.746113777
vt 0.822398067 0.834630966
vt 0.910915256 0.834630966
vt 0.226888582 0.0669377446
vt 0.226888582 0.155454934
vt 0.315405756 0.155454934
vt 0.315405756 0.0669377446
vt 0.315405756 0.0669377446
vt 0.226888582 0.0669377446
vt 0.226888582 0.155454934
vt 0.315405756 0.155454934
vt 0.910915256 0.746113777
vt 0.822398067 0.746113777
vt 0.822398067 0.834630966
vt 0.910915256 0.834630966
vt 0.910915256 0.746113777
vt 0.822398067 0.746113777
vt 0.822398067 0.834630966
vt 0.910915256 0.834630966
vn -0.000000 -0.000000 -1.000000
vn -0.000000 -0.000000 -1.000000
vn -0.000000 -0.000000 -1.000000
vn -0.996007 0.089279 0.000000
vn -0.948223 0.317606 0.000000
vn -0.948223 0.317606 0.000000
vn -0.996007 -0.089278 0.000000
vn -0.996007 0.089279 0.000000
vn -0.996007 -0.089278 0.000000
vn -0.948223 -0.317605 0.000000
vn -0.996007 0.089279 0.000000
vn -0.948223 0.317606 0.000000
vn -0.996007 0.089279 0.000000
vn 0.992820 -0.000000 -0.119614
vn 0.999115 -0.000000 -0.042067
vn 0.995593 -0.000000 -0.093776
vn 0.999115 -0.000000 -0.042067
vn 0.995593 -0.000000 -0.093776
vn -0.092193 -0.995741 0.000884
vn -0.000000 -1.000000 0.000000
vn -0.000000 -1.000000 0.000000
vn -0.061432 0.998111 0.000589
vn 0.000000 1.000000 -0.000000
vn 0.000000 1.000000 -0.000000
vn 0.995593 -0.000000 -0.093776
vn 0.999115 -0.000000 -0.042067
vn 0.992820 -0.000000 -0.119614
vn 0.995593 -0.000000 -0.093776
vn 0.999115 -0.000000 -0.042067
vn 1.000000 -0.000000 -0.000000
vn 1.000000 -0.000000 -0.000000
vn 1.000000 -0.000000 -0.000000
vn -0.000000 -0.000000 -1.000000
vn -0.000000 -0.000000 -1.000000
vn -0.000000 -0.000000 -1.000000
vn -0.000000 -0.000000 -1.000000
vn -0.000000 -0.000000 -1.000000
vn -0.000000 -0.000000 -1.000000
vn -0.000000 -0.000000 -1.000000
vn -0.000000 -0.000000 -1.000000
vn -0.000000 -0.000000 -1.000000
vn -0.000000 -0.000000 -1.000000
vn -0.000000 -0.000000 -1.000000
vn -0.000000 -0.000000 -1.000000
vn -0.000000 -0.000000 -1.000000
vn -0.000000 -0.000000 -1.000000
vn -0.000000 -0.000000 -1.000000
vn -0.000000 -0.000000 -1.000000
vn -0.000000 -0.000000 -1.000000
vn -0.000000 -0.000000 -1.000000
vn -0.000000 -0.000000 -1.000000
vn -0.000000 -0.000000 -1.000000
vn -0.000000 -0.000000 -1.000000
vn -0.000000 -0.000000 -1.000000
vn -0.224356 0.000000 0.974507
vn -0.224356 0.000000 0.974507
vn -0.112900 0.000000 0.993606
vn -0.224356 0.000000 0.974507
vn -0.112900 0.000000 0.993606
vn 0.000000 0.000000 1.000000
vn 0.000000 0.000000 1.000000
vn 0.000000 0.000000 1.000000
vn 0.000000 0.000000 1.000000
vn 0.000000 0.000000 1.000000
vn 0.000000 0.000000 1.000000
vn 0.000000 0.000000 1.000000
vn 0.000000 0.000000 1.000000
vn 0.000000 0.000000 1.000000
vn 0.000000 0.000000 1.000000
vn 0.000000 0.000000 1.000000
vn 0.000000 0.000000 1.000000
vn 0.000000 0.000000 1.000000
vn 0.000000 0.000000 1.000000
vn 0.000000 0.000000 1.000000
vn 0.000000 0.000000 1.000000
vn 0.000000 0.000000 1.000000
vn 0.000000 0.000000 1.000000
vn 0.000000 0.000000 1.000000
vn 0.000000 0.000000 1.000000
vn 0.000000 0.000000 1.000000
vn 0.000000 0.000000 1.000000
vn 0.000000 0.000000 1.000000
vn 0.000000 0.000000 1.000000
vn -0.948223 -0.317605 0.000000
vn -0.948223 -0.317605 0.000000
vn -0.996007 -0.089278 0.000000
vn 0.000000 0.000000 1.000000
vn 0.000000 0.000000 1.000000
vn 0.000000 0.000000 1.000000
vn -0.000000 -0.000000 -1.000000
vn -0.000000 -0.000000 -1.000000
vn -0.000000 -0.000000 -1.000000
vn 0.000000 1.000000 -0.000000
vn 0.000000 1.000000 -0.000000
vn 0.000000 1.000000 -0.000000
vn 0.000000 1.000000 -0.000000
vn -0.000000 -0.000000 -1.000000
vn -0.000000 -0.000000 -1.000000
vn -0.000000 -0.000000 -1.000000
vn -0.000000 -0.000000 -1.000000
vn -0.000000 -1.000000 0.000000
vn -0.000000 -1.000000 0.000000
vn -0.000000 -1.000000 0.000000
vn -0.000000 -1.000000 0.000000
vn 0.000000 0.000000 1.000000
vn 0.000000 0.000000 1.000000
vn 0.000000 0.000000 1.000000
vn 0.000000 0.000000 1.000000
vn 1.000000 -0.000000 -0.000000
vn 1.000000 -0.000000 -0.000000
vn 1.000000 -0.000000 -0.000000
vn 1.000000 -0.000000 -0.000000
vn -1.000000 0.000000 0.000000
vn -1.000000 0.000000 0.000000
vn -1.000000 0.000000 0.000000
vn -1.000000 0.000000 0.000000
vn -0.183600 0.982999 0.001761
vn -0.092192 0.995741 0.000884
vn -0.061432 0.998111 0.000589
vn -0.183600 0.982999 0.001761
vn -0.069169 -0.000000 -0.997605
vn -0.092200 -0.000000 -0.995741
vn -0.138006 -0.000000 -0.990431
vn -0.138006 -0.000000 -0.990431
vn 1.000000 -0.000000 -0.000000
vn 1.000000 -0.000000 -0.000000
vn 1.000000 -0.000000 -0.000000
vn 1.000000 -0.000000 -0.000000
vn -0.000000 -0.955541 -0.294858
vn -0.000000 -0.955541 -0.294858
vn -0.000000 -1.000000 0.000000
vn -0.000000 -1.000000 0.000000
vn 0.000000 1.000000 -0.000000
vn 0.000000 1.000000 -0.000000
vn 0.000000 1.000000 -0.000000
vn 0.000000 1.000000 -0.000000
vn -0.138006 -0.000000 -0.990431
vn -0.092200 -0.000000 -0.995741
vn -0.069169 -0.000000 -0.997605
vn -0.092200 -0.000000 -0.995741
vn 0.995593 -0.000000 -0.093776
vn 0.992820 -0.000000 -0.119614
vn 0.980516 -0.000000 -0.196437
vn 0.980516 -0.000000 -0.196437
vn -0.061433 -0.998111 0.000589
vn -0.092193 -0.995741 0.000884
vn -0.183600 -0.982999 0.001761
vn -0.183600 -0.982999 0.001761
vn 1.000000 -0.000000 -0.000000
vn 1.000000 -0.000000 -0.000000
vn 1.000000 -0.000000 -0.000000
vn 1.000000 -0.000000 -0.000000
vn 0.000000 1.000000 -0.000000
vn 0.000000 1.000000 -0.000000
vn -0.061432 0.998111 0.000589
vn -0.092192 0.995741 0.000884
vn -0.861251 -0.155135 -0.483920
vn -0.861251 0.155136 -0.483920
vn -0.699156 0.218264 -0.680839
vn -0.699156 -0.218264 -0.680839
vn 0.896402 -0.443241 -0.000000
vn 0.973756 -0.227594 -0.000000
vn 0.973756 -0.227594 -0.000000
vn 0.896402 -0.443241 -0.000000
vn -0.000000 -1.000000 0.000000
vn -0.000000 -1.000000 0.000000
vn -0.000000 -1.000000 0.000000
vn -0.000000 -1.000000 0.000000
vn 0.332497 0.943104 -0.000000
vn 0.332497 0.943104 -0.000000
vn 0.332497 0.943104 -0.000000
vn 0.332497 0.943104 -0.000000
vn -0.069169 -0.000000 -0.997605
vn -0.000000 -0.000000 -1.000000
vn -0.000000 -0.000000 -1.000000
vn -0.092200 -0.000000 -0.995741
vn -0.092193 -0.995741 0.000884
vn -0.061433 -0.998111 0.000589
vn -0.000000 -1.000000 0.000000
vn -0.000000 -1.000000 0.000000
vn -0.000000 -0.000000 -1.000000
vn -0.000000 -0.000000 -1.000000
vn -0.000000 -0.000000 -1.000000
vn -0.000000 -0.000000 -1.000000
vn 0.000000 1.000000 -0.000000
vn 0.000000 1.000000 -0.000000
vn 0.000000 0.955541 -0.294858
vn 0.000000 0.955541 -0.294858
vn -0.112900 0.000000 0.993606
vn -0.112900 0.000000 0.993606
vn 0.000000 0.000000 1.000000
vn 0.000000 0.000000 1.000000
vn 0.000000 0.955541 -0.294858
vn 0.000000 0.826118 -0.563497
vn -0.338807 0.675253 -0.655166
vn -0.238424 0.854743 -0.461051
vn 0.000000 1.000000 -0.000000
vn 0.000000 1.000000 -0.000000
vn 0.000000 1.000000 -0.000000
vn 0.000000 1.000000 -0.000000
vn -1.000000 0.000000 0.000000
vn -1.000000 0.000000 0.000000
vn -1.000000 0.000000 0.000000
vn -1.000000 0.000000 0.000000
vn 1.000000 -0.000000 -0.000000
vn 1.000000 -0.000000 -0.000000
vn 1.000000 -0.000000 -0.000000
vn 1.000000 -0.000000 -0.000000
vn 1.000000 -0.000000 -0.000000
vn -0.901007 -0.362087 -0.238913
vn -0.776240 -0.526212 -0.347205
vn -0.827735 -0.561120 0.000000
vn -0.955964 -0.293484 0.000000
vn -0.945897 0.207036 -0.249830
vn -0.945897 -0.207036 -0.249830
vn -0.955964 -0.293484 0.000000
vn -0.955964 0.293484 0.000000
vn 0.332497 -0.943104 -0.000000
vn 0.332497 -0.943104 -0.000000
vn 0.332497 -0.943104 -0.000000
vn 0.332497 -0.943104 -0.000000
vn 0.980516 -0.000000 -0.196437
vn 0.980516 -0.000000 -0.196437
vn 0.992820 -0.000000 -0.119614
vn 0.995593 -0.000000 -0.093776
vn -0.776240 0.526212 -0.347205
vn -0.901007 0.362088 -0.238913
vn -0.955964 0.293484 0.000000
vn -0.827734 0.561120 0.000000
vn -0.892647 -0.450755 0.000000
vn -0.948223 -0.317605 0.000000
vn -0.948223 -0.317605 0.000000
vn -0.892647 -0.450755 0.000000
vn -0.000000 -1.000000 0.000000
vn -0.000000 -1.000000 0.000000
vn -0.000000 -1.000000 0.000000
vn -0.000000 -1.000000 0.000000
vn -0.000000 -0.955541 -0.294858
vn -0.238425 -0.854743 -0.461051
vn -0.338808 -0.675253 -0.655166
vn -0.000000 -0.826118 -0.563497
vn -0.092200 -0.000000 -0.995741
vn -0.000000 -0.000000 -1.000000
vn -0.000000 -0.000000 -1.000000
vn -0.069169 -0.000000 -0.997605
vn 1.000000 -0.000000 -0.000000
vn 0.973756 -0.227594 -0.000000
vn 0.973756 -0.227594 -0.000000
vn 1.000000 -0.000000 -0.000000
vn 0.973756 0.227593 -0.000000
vn 1.000000 -0.000000 -0.000000
vn 1.000000 -0.000000 -0.000000
vn 0.973756 0.227593 -0.000000
vn -0.948223 0.317606 0.000000
vn -0.892647 0.450756 0.000000
vn -0.892647 0.450756 0.000000
vn -0.948223 0.317606 0.000000
vn -0.554960 0.691107 -0.463023
vn -0.338807 0.675253 -0.655166
vn -0.699156 0.218264 -0.680839
vn -0.798073 0.359369 -0.483666
vn -0.554961 -0.691107 -0.463023
vn -0.798073 -0.359369 -0.483666
vn -0.699156 -0.218264 -0.680839
vn -0.338808 -0.675253 -0.655166
vn -0.000000 -0.000000 -1.000000
vn -0.000000 -0.000000 -1.000000
vn -0.000000 -0.000000 -1.000000
vn -0.000000 -0.000000 -1.000000
vn 0.896402 0.443241 -0.000000
vn 0.973756 0.227593 -0.000000
vn 0.973756 0.227593 -0.000000
vn 0.896402 0.443241 -0.000000
f 1/1/1 2/2/2 3/3/3
f 4/4/4 5/5/5 6/6/6
f 7/7/7 4/4/4 8/8/8
f 7/7/7 9/9/9 4/4/4
f 10/10/10 9/9/9 7/7/7
f 11/11/11 12/12/12 13/13/13
f 14/14/14 15/15/15 16/16/16
f 17/17/17 18/18/18 16/16/16
f 19/19/19 20/20/20 21/21/21
f 22/22/22 23/23/23 24/24/24
f 25/25/25 26/26/26 27/27/27
f 26/26/26 28/28/28 29/29/29
f 30/30/30 31/31/31 32/32/32
f 33/33/33 34/34/34 35/35/35
f 36/36/36 37/37/37 35/35/35
f 38/38/38 39/39/39 40/40/40
f 41/41/41 38/38/38 42/42/42
f 43/43/43 44/44/44 45/45/45
f 43/43/43 46/46/46 47/47/47
f 48/48/48 46/46/46 43/43/43
f 48/48/48 43/43/43 49/49/49
f 50/50/50 49/49/49 51/51/51
f 49/49/49 50/50/50 52/52/52
f 53/53/53 52/52/52 50/50/50
f 53/53/53 50/50/50 54/54/54
f 55/55/55 56/56/56 57/57/57
f 58/58/58 57/57/57 59/59/59
f 60/60/60 61/61/61 62/62/62
f 63/63/63 64/64/64 62/62/62
f 65/65/65 66/66/66 67/67/67
f 68/68/68 65/65/65 69/69/69
f 70/70/70 71/71/71 72/72/72
f 70/70/70 73/73/73 74/74/74
f 75/75/75 74/74/74 73/73/73
f 75/75/75 76/76/76 74/74/74
f 76/76/76 75/75/75 77/77/77
f 76/76/76 77/77/77 78/78/78
f 77/77/77 79/79/79 78/78/78
f 77/77/77 80/80/80 79/79/79
f 80/80/80 77/77/77 81/81/81
f 82/82/82 79/79/79 80/80/80
f 82/82/82 83/83/83 79/79/79
f 84/84/84 85/85/85 86/86/86
f 87/87/87 88/88/88 89/89/89
f 90/90/90 91/91/91 92/92/92
f 93/93/93 94/94/94 95/95/95
f 93/93/93 95/95/95 96/96/96
f 97/97/97 98/98/98 99/99/99
f 97/97/97 99/99/99 100/100/100
f 101/101/101 102/102/102 103/103/103
f 101/101/101 103/103/103 104/104/104
f 105/105/105 106/106/106 107/107/107
f 105/105/105 107/107/107 108/108/108
f 109/109/109 110/110/110 111/111/111
f 109/109/109 111/111/111 112/112/112
f 113/113/113 114/114/114 115/115/115
f 113/113/113 115/115/115 116/116/116
f 117/117/117 118/118/118 119/119/119
f 117/117/117 119/119/119 120/120/120
f 121/121/121 122/122/122 123/123/123
f 122/122/122 124/124/124 123/123/123
f 125/125/125 126/126/126 127/127/127
f 125/125/125 127/127/127 128/128/128
f 129/129/129 130/130/130 131/131/131
f 129/129/129 131/131/131 132/132/132
f 133/133/133 134/134/134 135/135/135
f 133/133/133 135/135/135 136/136/136
f 137/137/137 138/138/138 139/139/139
f 140/140/140 138/138/138 137/137/137
f 141/141/141 142/142/142 143/143/143
f 141/141/141 143/143/143 144/144/144
f 145/145/145 146/146/146 147/147/147
f 145/145/145 147/147/147 148/148/148
f 149/149/149 150/150/150 151/151/151
f 149/149/149 151/151/151 152/152/152
f 153/153/153 154/154/154 155/155/155
f 153/153/153 155/155/155 156/156/156
f 157/157/157 158/158/158 159/159/159
f 157/157/157 159/159/159 160/160/160
f 161/161/161 162/162/162 163/163/163
f 161/161/161 163/163/163 164/164/164
f 165/165/165 166/166/166 167/167/167
f 165/165/165 167/167/167 168/168/168
f 169/169/169 170/170/170 171/171/171
f 169/169/169 171/171/171 172/172/172
f 173/173/173 174/174/174 175/175/175
f 173/173/173 175/175/175 176/176/176
f 177/177/177 178/178/178 179/179/179
f 180/180/180 179/179/179 178/178/178
f 181/181/181 182/182/182 183/183/183
f 181/181/181 183/183/183 184/184/184
f 185/185/185 186/186/186 187/187/187
f 185/185/185 187/187/187 188/188/188
f 189/189/189 190/190/190 191/191/191
f 189/189/189 191/191/191 192/192/192
f 193/193/193 194/194/194 195/195/195
f 193/193/193 195/195/195 196/196/196
f 197/197/197 198/198/198 199/199/199
f 197/197/197 199/199/199 200/200/200
f 201/201/201 202/202/202 203/203/203
f 201/201/201 203/203/203 204/204/204
f 205/205/205 206/206/206 207/207/207
f 208/208/208 207/207/207 206/206/206
f 208/208/208 206/206/206 209/209/209
f 210/210/210 211/211/211 212/212/212
f 210/210/210 212/212/212 213/213/213
f 214/214/214 215/215/215 216/216/216
f 214/214/214 216/216/216 217/217/217
f 218/218/218 219/219/219 220/220/220
f 218/218/218 220/220/220 221/221/221
f 222/222/222 223/223/223 224/224/224
f 222/222/222 224/224/224 225/225/225
f 226/226/226 227/227/227 228/228/228
f 226/226/226 228/228/228 229/229/229
f 230/230/230 231/231/231 232/232/232
f 230/230/230 232/232/232 233/233/233
f 234/234/234 235/235/235 236/236/236
f 234/234/234 236/236/236 237/237/237
f 238/238/238 239/239/239 240/240/240
f 238/238/238 240/240/240 241/241/241
f 242/242/242 243/243/243 244/244/244
f 242/242/242 244/244/244 245/245/245
f 246/246/246 247/247/247 248/248/248
f 246/246/246 248/248/248 249/249/249
f 250/250/250 251/251/251 252/252/252
f 250/250/250 252/252/252 253/253/253
f 254/254/254 255/255/255 256/256/256
f 254/254/254 256/256/256 257/257/257
f 258/258/258 259/259/259 260/260/260
f 258/258/258 260/260/260 261/261/261
f 262/262/262 263/263/263 264/264/264
f 262/262/262 264/264/264 265/265/265
f 266/266/266 267/267/267 268/268/268
f 266/266/266 268/268/268 269/269/269
f 270/270/270 271/271/271 272/272/272
f 270/270/270 272/272/272 273/273/273
