# halloskullmask_mask (gear rip -> Godot: Z negated + winding reversed)
v -0.001669 -0.002259 -0.003542
v -0.001369 -0.002259 -0.003668
v -0.001172 -0.002259 -0.003409
v -0.000823 -0.002259 -0.003306
v -0.000550 -0.002259 -0.003483
v -0.000311 -0.002259 -0.003261
v -0.000887 -0.001777 -0.002877
v -0.000622 -0.001777 -0.002654
v -0.000323 -0.001777 -0.002828
v 0.001172 -0.002259 -0.003409
v 0.001369 -0.002259 -0.003668
v 0.001669 -0.002259 -0.003542
v 0.000311 -0.002259 -0.003261
v 0.000550 -0.002259 -0.003483
v 0.000823 -0.002259 -0.003306
v 0.000323 -0.001777 -0.002828
v 0.000622 -0.001777 -0.002654
v 0.000887 -0.001777 -0.002877
v -0.000343 -0.002214 -0.004380
v -0.000511 -0.002139 -0.004459
v -0.000733 -0.002139 -0.004867
v -0.000620 -0.002214 -0.004889
v -0.001727 -0.002214 -0.004556
v -0.001619 -0.002139 -0.004600
v -0.001081 -0.002139 -0.004343
v -0.001055 -0.002214 -0.004235
v -0.000511 -0.002139 -0.004459
v -0.001081 -0.002139 -0.004343
v -0.001619 -0.002139 -0.004600
v -0.000733 -0.002139 -0.004867
v -0.001746 -0.002139 -0.005074
v -0.001422 -0.002139 -0.005315
v -0.001055 -0.002214 -0.004235
v -0.001081 -0.002139 -0.004343
v -0.000511 -0.002139 -0.004459
v -0.000343 -0.002214 -0.004380
v -0.001886 -0.002214 -0.005149
v -0.001746 -0.002139 -0.005074
v -0.001619 -0.002139 -0.004600
v -0.001727 -0.002214 -0.004556
v -0.001481 -0.002214 -0.005450
v -0.001422 -0.002139 -0.005315
v -0.001746 -0.002139 -0.005074
v -0.001886 -0.002214 -0.005149
v -0.000620 -0.002214 -0.004889
v -0.000733 -0.002139 -0.004867
v -0.001422 -0.002139 -0.005315
v -0.001481 -0.002214 -0.005450
v -0.001866 -0.002294 -0.005403
v -0.001543 -0.002294 -0.005905
v -0.000322 -0.002294 -0.004891
v -0.000516 -0.002294 -0.004596
v -0.000516 -0.002294 -0.004596
v -0.000322 -0.002294 -0.004891
v -0.000322 -0.002146 -0.004891
v -0.000516 -0.002146 -0.004596
v -0.001543 -0.002294 -0.005905
v -0.001866 -0.002294 -0.005403
v -0.001866 -0.002146 -0.005403
v -0.001543 -0.002146 -0.005905
v -0.000322 -0.002294 -0.004891
v -0.001543 -0.002294 -0.005905
v -0.001543 -0.002146 -0.005905
v -0.000322 -0.002146 -0.004891
v -0.001866 -0.002294 -0.005403
v -0.000516 -0.002294 -0.004596
v -0.000516 -0.002146 -0.004596
v -0.001866 -0.002146 -0.005403
v -0.000427 -0.002214 -0.003559
v -0.000000 -0.002214 -0.003810
v -0.000000 -0.002214 -0.003130
v -0.002126 -0.002214 -0.003430
v -0.001727 -0.002214 -0.004556
v -0.001055 -0.002214 -0.004235
v -0.000307 -0.002214 -0.004060
v -0.000427 -0.002214 -0.003559
v -0.000000 -0.002214 -0.004319
v -0.000343 -0.002214 -0.004380
v -0.000000 -0.002214 -0.006505
v -0.000000 -0.002214 -0.004319
v -0.000343 -0.002214 -0.004380
v -0.000620 -0.002214 -0.004889
v -0.001481 -0.002214 -0.005450
v -0.002126 -0.002214 -0.006505
v -0.001886 -0.002214 -0.005149
v -0.002126 -0.002214 -0.003430
v -0.001727 -0.002214 -0.004556
v -0.002126 -0.002214 -0.003430
v -0.000000 -0.002214 -0.003130
v -0.000000 -0.000088 -0.003130
v -0.002126 -0.000088 -0.003430
v -0.002126 0.002038 -0.006505
v -0.002126 -0.002214 -0.006505
v -0.002126 -0.002214 -0.003430
v -0.002126 0.000312 -0.004045
v -0.002126 -0.000088 -0.003430
v -0.002126 0.002038 -0.004045
v -0.000000 0.002038 -0.006505
v -0.002126 0.002038 -0.006505
v -0.002126 0.002038 -0.004045
v -0.000000 0.002038 -0.004045
v 0.002126 0.002038 -0.004045
v 0.002126 0.002038 -0.006505
v -0.002126 0.000312 -0.004045
v -0.002126 -0.000088 -0.003430
v -0.000000 -0.000088 -0.003130
v -0.000000 0.000512 -0.004045
v -0.000000 0.002038 -0.004045
v -0.002126 0.002038 -0.004045
v -0.002126 0.000312 -0.004045
v -0.000000 0.000512 -0.004045
v -0.001584 -0.002259 -0.002864
v -0.001259 -0.002259 -0.002984
v -0.001259 -0.001777 -0.002984
v -0.001584 -0.001777 -0.002864
v -0.001669 -0.002259 -0.003542
v -0.001805 -0.002259 -0.003131
v -0.001805 -0.001777 -0.003131
v -0.001669 -0.001777 -0.003542
v -0.000823 -0.002259 -0.003306
v -0.000887 -0.002259 -0.002877
v -0.000887 -0.001777 -0.002877
v -0.000823 -0.001777 -0.003306
v -0.000622 -0.002259 -0.002654
v -0.000323 -0.002259 -0.002828
v -0.000323 -0.001777 -0.002828
v -0.000622 -0.001777 -0.002654
v -0.001259 -0.002259 -0.002984
v -0.001584 -0.002259 -0.002864
v -0.001805 -0.002259 -0.003131
v -0.001172 -0.002259 -0.003409
v -0.001669 -0.002259 -0.003542
v -0.001259 -0.001777 -0.002984
v -0.001259 -0.002259 -0.002984
v -0.001172 -0.002259 -0.003409
v -0.001172 -0.001777 -0.003409
v -0.001805 -0.002259 -0.003131
v -0.001584 -0.002259 -0.002864
v -0.001584 -0.001777 -0.002864
v -0.001805 -0.001777 -0.003131
v -0.000323 -0.001777 -0.002828
v -0.000323 -0.002259 -0.002828
v -0.000311 -0.002259 -0.003261
v -0.000311 -0.001777 -0.003261
v -0.000323 -0.002259 -0.002828
v -0.000622 -0.002259 -0.002654
v -0.000887 -0.002259 -0.002877
v -0.000311 -0.002259 -0.003261
v -0.000823 -0.002259 -0.003306
v -0.000887 -0.002259 -0.002877
v -0.000622 -0.002259 -0.002654
v -0.000622 -0.001777 -0.002654
v -0.000887 -0.001777 -0.002877
v -0.000823 -0.001777 -0.003306
v -0.000550 -0.001777 -0.003483
v -0.000550 -0.002259 -0.003483
v -0.000823 -0.002259 -0.003306
v -0.001669 -0.001777 -0.003542
v -0.001369 -0.001777 -0.003668
v -0.001369 -0.002259 -0.003668
v -0.001669 -0.002259 -0.003542
v -0.001369 -0.001777 -0.003668
v -0.001172 -0.001777 -0.003409
v -0.001172 -0.002259 -0.003409
v -0.001369 -0.002259 -0.003668
v -0.000550 -0.001777 -0.003483
v -0.000311 -0.001777 -0.003261
v -0.000311 -0.002259 -0.003261
v -0.000550 -0.002259 -0.003483
v -0.001805 -0.001777 -0.003131
v -0.001584 -0.001777 -0.002864
v -0.001259 -0.001777 -0.002984
v -0.001172 -0.001777 -0.003409
v -0.001669 -0.001777 -0.003542
v -0.001369 -0.001777 -0.003668
v -0.000323 -0.001777 -0.002828
v -0.000311 -0.001777 -0.003261
v -0.000887 -0.001777 -0.002877
v -0.000823 -0.001777 -0.003306
v -0.000550 -0.001777 -0.003483
v -0.000307 -0.002214 -0.004060
v -0.000225 -0.002139 -0.003994
v -0.000286 -0.002139 -0.003748
v -0.000427 -0.002214 -0.003559
v -0.000427 -0.002214 -0.003559
v -0.000286 -0.002139 -0.003748
v -0.000000 -0.002139 -0.003903
v -0.000000 -0.002214 -0.003810
v -0.000000 0.002038 -0.006505
v -0.002126 -0.002214 -0.006505
v -0.002126 0.002038 -0.006505
v -0.000000 -0.002214 -0.006505
v 0.002126 -0.002214 -0.006505
v 0.002126 0.002038 -0.006505
v -0.000000 -0.002214 -0.004319
v -0.000000 -0.002139 -0.004178
v -0.000225 -0.002139 -0.003994
v -0.000307 -0.002214 -0.004060
v -0.000286 -0.002139 -0.003748
v -0.000225 -0.002139 -0.003994
v -0.000000 -0.002139 -0.004178
v -0.000000 -0.002139 -0.003903
v 0.000343 -0.002214 -0.004380
v 0.000620 -0.002214 -0.004889
v 0.000733 -0.002139 -0.004867
v 0.000511 -0.002139 -0.004459
v 0.001727 -0.002214 -0.004556
v 0.001055 -0.002214 -0.004235
v 0.001081 -0.002139 -0.004343
v 0.001619 -0.002139 -0.004600
v 0.001619 -0.002139 -0.004600
v 0.001081 -0.002139 -0.004343
v 0.000511 -0.002139 -0.004459
v 0.000733 -0.002139 -0.004867
v 0.001746 -0.002139 -0.005074
v 0.001422 -0.002139 -0.005315
v 0.001055 -0.002214 -0.004235
v 0.000343 -0.002214 -0.004380
v 0.000511 -0.002139 -0.004459
v 0.001081 -0.002139 -0.004343
v 0.001886 -0.002214 -0.005149
v 0.001727 -0.002214 -0.004556
v 0.001619 -0.002139 -0.004600
v 0.001746 -0.002139 -0.005074
v 0.001481 -0.002214 -0.005450
v 0.001886 -0.002214 -0.005149
v 0.001746 -0.002139 -0.005074
v 0.001422 -0.002139 -0.005315
v 0.000620 -0.002214 -0.004889
v 0.001481 -0.002214 -0.005450
v 0.001422 -0.002139 -0.005315
v 0.000733 -0.002139 -0.004867
v 0.001866 -0.002294 -0.005403
v 0.000516 -0.002294 -0.004596
v 0.000322 -0.002294 -0.004891
v 0.001543 -0.002294 -0.005905
v 0.000516 -0.002294 -0.004596
v 0.000516 -0.002146 -0.004596
v 0.000322 -0.002146 -0.004891
v 0.000322 -0.002294 -0.004891
v 0.001543 -0.002294 -0.005905
v 0.001543 -0.002146 -0.005905
v 0.001866 -0.002146 -0.005403
v 0.001866 -0.002294 -0.005403
v 0.000322 -0.002294 -0.004891
v 0.000322 -0.002146 -0.004891
v 0.001543 -0.002146 -0.005905
v 0.001543 -0.002294 -0.005905
v 0.001866 -0.002294 -0.005403
v 0.001866 -0.002146 -0.005403
v 0.000516 -0.002146 -0.004596
v 0.000516 -0.002294 -0.004596
v 0.001727 -0.002214 -0.004556
v 0.001886 -0.002214 -0.005149
v 0.002126 -0.002214 -0.003430
v 0.002126 -0.002214 -0.006505
v 0.001481 -0.002214 -0.005450
v -0.000000 -0.002214 -0.006505
v 0.000620 -0.002214 -0.004889
v 0.000343 -0.002214 -0.004380
v -0.000000 -0.002214 -0.004319
v -0.000000 -0.002214 -0.003130
v -0.000000 -0.002214 -0.003810
v 0.000427 -0.002214 -0.003559
v 0.002126 -0.002214 -0.003430
v 0.001727 -0.002214 -0.004556
v 0.001055 -0.002214 -0.004235
v 0.000427 -0.002214 -0.003559
v 0.000307 -0.002214 -0.004060
v -0.000000 -0.002214 -0.004319
v 0.000343 -0.002214 -0.004380
v 0.002126 -0.002214 -0.003430
v 0.002126 -0.000088 -0.003430
v -0.000000 -0.000088 -0.003130
v -0.000000 -0.002214 -0.003130
v 0.002126 -0.000088 -0.003430
v 0.002126 -0.002214 -0.003430
v 0.002126 -0.002214 -0.006505
v 0.002126 0.000312 -0.004045
v 0.002126 0.002038 -0.006505
v 0.002126 0.002038 -0.004045
v 0.002126 0.000312 -0.004045
v -0.000000 0.000512 -0.004045
v -0.000000 -0.000088 -0.003130
v 0.002126 -0.000088 -0.003430
v -0.000000 0.002038 -0.004045
v -0.000000 0.000512 -0.004045
v 0.002126 0.000312 -0.004045
v 0.002126 0.002038 -0.004045
v 0.001584 -0.002259 -0.002864
v 0.001584 -0.001777 -0.002864
v 0.001259 -0.001777 -0.002984
v 0.001259 -0.002259 -0.002984
v 0.001669 -0.002259 -0.003542
v 0.001669 -0.001777 -0.003542
v 0.001805 -0.001777 -0.003131
v 0.001805 -0.002259 -0.003131
v 0.000823 -0.002259 -0.003306
v 0.000823 -0.001777 -0.003306
v 0.000887 -0.001777 -0.002877
v 0.000887 -0.002259 -0.002877
v 0.000622 -0.002259 -0.002654
v 0.000622 -0.001777 -0.002654
v 0.000323 -0.001777 -0.002828
v 0.000323 -0.002259 -0.002828
v 0.001805 -0.002259 -0.003131
v 0.001584 -0.002259 -0.002864
v 0.001259 -0.002259 -0.002984
v 0.001172 -0.002259 -0.003409
v 0.001669 -0.002259 -0.003542
v 0.001259 -0.001777 -0.002984
v 0.001172 -0.001777 -0.003409
v 0.001172 -0.002259 -0.003409
v 0.001259 -0.002259 -0.002984
v 0.001805 -0.002259 -0.003131
v 0.001805 -0.001777 -0.003131
v 0.001584 -0.001777 -0.002864
v 0.001584 -0.002259 -0.002864
v 0.000323 -0.001777 -0.002828
v 0.000311 -0.001777 -0.003261
v 0.000311 -0.002259 -0.003261
v 0.000323 -0.002259 -0.002828
v 0.000887 -0.002259 -0.002877
v 0.000622 -0.002259 -0.002654
v 0.000323 -0.002259 -0.002828
v 0.000311 -0.002259 -0.003261
v 0.000823 -0.002259 -0.003306
v 0.000887 -0.002259 -0.002877
v 0.000887 -0.001777 -0.002877
v 0.000622 -0.001777 -0.002654
v 0.000622 -0.002259 -0.002654
v 0.000823 -0.001777 -0.003306
v 0.000823 -0.002259 -0.003306
v 0.000550 -0.002259 -0.003483
v 0.000550 -0.001777 -0.003483
v 0.001669 -0.001777 -0.003542
v 0.001669 -0.002259 -0.003542
v 0.001369 -0.002259 -0.003668
v 0.001369 -0.001777 -0.003668
v 0.001369 -0.001777 -0.003668
v 0.001369 -0.002259 -0.003668
v 0.001172 -0.002259 -0.003409
v 0.001172 -0.001777 -0.003409
v 0.000550 -0.001777 -0.003483
v 0.000550 -0.002259 -0.003483
v 0.000311 -0.002259 -0.003261
v 0.000311 -0.001777 -0.003261
v 0.001259 -0.001777 -0.002984
v 0.001584 -0.001777 -0.002864
v 0.001805 -0.001777 -0.003131
v 0.001172 -0.001777 -0.003409
v 0.001669 -0.001777 -0.003542
v 0.001369 -0.001777 -0.003668
v 0.000887 -0.001777 -0.002877
v 0.000311 -0.001777 -0.003261
v 0.000323 -0.001777 -0.002828
v 0.000823 -0.001777 -0.003306
v 0.000550 -0.001777 -0.003483
v 0.000307 -0.002214 -0.004060
v 0.000427 -0.002214 -0.003559
v 0.000286 -0.002139 -0.003748
v 0.000225 -0.002139 -0.003994
v 0.000427 -0.002214 -0.003559
v -0.000000 -0.002214 -0.003810
v -0.000000 -0.002139 -0.003903
v 0.000286 -0.002139 -0.003748
v -0.000000 -0.002214 -0.004319
v 0.000307 -0.002214 -0.004060
v 0.000225 -0.002139 -0.003994
v -0.000000 -0.002139 -0.004178
v 0.000286 -0.002139 -0.003748
v -0.000000 -0.002139 -0.003903
v -0.000000 -0.002139 -0.004178
v 0.000225 -0.002139 -0.003994
vt 0.597175598 0.0165623911
vt 0.597175598 0.0192207284
vt 0.597175777 0.0192207284
vt 0.597175598 0.0165623911
vt 0.597175598 0.0192207284
vt 0.597175777 0.0192207284
vt 0.597175598 0.0192207284
vt 0.597175598 0.0205042548
vt 0.599330962 0.0165623911
vt 0.597175777 0.0192207284
vt 0.597175598 0.0192207284
vt 0.597175598 0.0165623911
vt 0.597175777 0.0192207284
vt 0.597175598 0.0192207284
vt 0.597175598 0.0165623911
vt 0.599330962 0.0165623911
vt 0.597175598 0.0205042548
vt 0.597175598 0.0192207284
vt 0.57455945 0.023631528
vt 0.57455945 0.023631528
vt 0.57455945 0.023631528
vt 0.57455945 0.023631528
vt 0.57455945 0.023631528
vt 0.57455945 0.023631528
vt 0.57455945 0.023631528
vt 0.57455945 0.023631528
vt 0.895373404 0.115898982
vt 0.895373404 0.115898982
vt 0.895373404 0.115898982
vt 0.895373404 0.115898982
vt 0.895373404 0.115898982
vt 0.895373404 0.115898982
vt 0.57455945 0.023631528
vt 0.57455945 0.023631528
vt 0.57455945 0.023631528
vt 0.57455945 0.023631528
vt 0.57455945 0.023631528
vt 0.57455945 0.023631528
vt 0.57455945 0.023631528
vt 0.57455945 0.023631528
vt 0.57455945 0.023631528
vt 0.57455945 0.023631528
vt 0.57455945 0.023631528
vt 0.57455945 0.023631528
vt 0.57455945 0.023631528
vt 0.57455945 0.023631528
vt 0.57455945 0.023631528
vt 0.57455945 0.023631528
vt 0.598411024 0.0220570434
vt 0.598411024 0.0220570434
vt 0.598411024 0.0220570434
vt 0.598411024 0.0220570434
vt 0.598411024 0.0220570434
vt 0.598411024 0.0220570434
vt 0.598411024 0.0220570434
vt 0.598411024 0.0220570434
vt 0.598411024 0.0220570434
vt 0.598411024 0.0220570434
vt 0.598411024 0.0220570434
vt 0.598411024 0.0220570434
vt 0.598411024 0.0220570434
vt 0.598411024 0.0220570434
vt 0.598411024 0.0220570434
vt 0.598411024 0.0220570434
vt 0.598411024 0.0220570434
vt 0.598411024 0.0220570434
vt 0.598411024 0.0220570434
vt 0.598411024 0.0220570434
vt 0.782972455 0.021224197
vt 0.784037411 0.0218133554
vt 0.784037411 0.0201002471
vt 0.777427197 0.020801235
vt 0.778667092 0.0234341137
vt 0.780757427 0.0226821713
vt 0.783317983 0.0222384296
vt 0.782972455 0.021224197
vt 0.784037411 0.02281975
vt 0.782971084 0.023022037
vt 0.783355772 0.0141516784
vt 0.784037411 0.02281975
vt 0.782971084 0.023022037
vt 0.783355772 0.0141516784
vt 0.783355772 0.0141516784
vt 0.783355772 0.0141516784
vt 0.783355772 0.0141516784
vt 0.777427197 0.020801235
vt 0.778667092 0.0234341137
vt 0.783355772 0.0141516784
vt 0.783355772 0.0141516784
vt 0.783355772 0.0141516784
vt 0.783355772 0.0141516784
vt 0.783355772 0.0141516784
vt 0.783355772 0.0141516784
vt 0.783355772 0.0141516784
vt 0.783355772 0.0141516784
vt 0.783355772 0.0141516784
vt 0.783355772 0.0141516784
vt 0.783355772 0.0141516784
vt 0.783355772 0.0141516784
vt 0.783355772 0.0141516784
vt 0.783355772 0.0141516784
vt 0.783355772 0.0141516784
vt 0.783355772 0.0141516784
vt 0.779451489 0.00972283166
vt 0.776751816 0.00972283166
vt 0.776751816 0.0208586454
vt 0.779451489 0.0208586454
vt 0.788785994 0.0208586454
vt 0.788785994 0.00972283725
vt 0.779451489 0.00972283166
vt 0.779451489 0.0208586454
vt 0.595020175 0.0205042548
vt 0.595020175 0.0217877775
vt 0.597175598 0.0217877775
vt 0.597175598 0.0205042548
vt 0.597175598 0.0192207284
vt 0.597175777 0.0218790323
vt 0.599330962 0.0218790323
vt 0.599330962 0.0192207284
vt 0.597175598 0.0192207284
vt 0.597175777 0.0218790323
vt 0.599330962 0.0218790323
vt 0.599330962 0.0192207284
vt 0.595020175 0.0205042548
vt 0.595020175 0.0217877775
vt 0.597175598 0.0217877775
vt 0.597175598 0.0205042548
vt 0.594874501 0.0192207284
vt 0.596025169 0.0192207284
vt 0.597175598 0.0192207284
vt 0.597175777 0.0192207284
vt 0.597175598 0.0165623911
vt 0.599330962 0.0165623911
vt 0.597175598 0.0165623911
vt 0.597175777 0.0192207284
vt 0.599330962 0.0192207284
vt 0.595020175 0.0192207284
vt 0.595020175 0.0205042548
vt 0.597175598 0.0205042548
vt 0.597175598 0.0192207284
vt 0.599330962 0.0165623911
vt 0.597175598 0.0165623911
vt 0.597175777 0.0192207284
vt 0.599330962 0.0192207284
vt 0.594874501 0.0192207284
vt 0.596025169 0.0192207284
vt 0.597175598 0.0192207284
vt 0.597175777 0.0192207284
vt 0.597175598 0.0165623911
vt 0.595020175 0.0192207284
vt 0.595020175 0.0205042548
vt 0.597175598 0.0205042548
vt 0.597175598 0.0192207284
vt 0.599330962 0.0192207284
vt 0.599330962 0.0192207284
vt 0.597175598 0.0192207284
vt 0.597175598 0.0192207284
vt 0.599330962 0.0192207284
vt 0.599330962 0.0192207284
vt 0.597175598 0.0192207284
vt 0.597175598 0.0192207284
vt 0.599330962 0.0192207284
vt 0.599330962 0.0192207284
vt 0.597175777 0.0192207284
vt 0.597175598 0.0192207284
vt 0.599330962 0.0192207284
vt 0.599330962 0.0192207284
vt 0.597175777 0.0192207284
vt 0.597175598 0.0192207284
vt 0.599330962 0.0218790323
vt 0.597175598 0.0205042548
vt 0.599330962 0.0165623911
vt 0.599330962 0.0192207284
vt 0.599330962 0.0192207284
vt 0.599330962 0.0192207284
vt 0.599330962 0.0165623911
vt 0.599330962 0.0192207284
vt 0.597175598 0.0192207284
vt 0.599330962 0.0192207284
vt 0.599330962 0.0192207284
vt 0.570972264 0.0221211929
vt 0.570972264 0.0221211929
vt 0.570145369 0.0196945686
vt 0.570145369 0.0196945686
vt 0.570145369 0.0196945686
vt 0.570145369 0.0196945686
vt 0.572693408 0.0211041737
vt 0.572693408 0.0211041737
vt 0.783355772 0.0141516784
vt 0.783355772 0.0141516784
vt 0.783355772 0.0141516784
vt 0.783355772 0.0141516784
vt 0.783355772 0.0141516784
vt 0.783355772 0.0141516784
vt 0.572693408 0.0235120449
vt 0.572693408 0.0235120449
vt 0.570972264 0.0221211929
vt 0.570972264 0.0221211929
vt 0.869278729 0.132820517
vt 0.870105565 0.135247141
vt 0.871826768 0.136638001
vt 0.871826768 0.134230122
vt 0.57455945 0.023631528
vt 0.57455945 0.023631528
vt 0.57455945 0.023631528
vt 0.57455945 0.023631528
vt 0.57455945 0.023631528
vt 0.57455945 0.023631528
vt 0.57455945 0.023631528
vt 0.57455945 0.023631528
vt 0.895373404 0.115898982
vt 0.895373404 0.115898982
vt 0.895373404 0.115898982
vt 0.895373404 0.115898982
vt 0.895373404 0.115898982
vt 0.895373404 0.115898982
vt 0.57455945 0.023631528
vt 0.57455945 0.023631528
vt 0.57455945 0.023631528
vt 0.57455945 0.023631528
vt 0.57455945 0.023631528
vt 0.57455945 0.023631528
vt 0.57455945 0.023631528
vt 0.57455945 0.023631528
vt 0.57455945 0.023631528
vt 0.57455945 0.023631528
vt 0.57455945 0.023631528
vt 0.57455945 0.023631528
vt 0.57455945 0.023631528
vt 0.57455945 0.023631528
vt 0.57455945 0.023631528
vt 0.57455945 0.023631528
vt 0.598411024 0.0220570434
vt 0.598411024 0.0220570434
vt 0.598411024 0.0220570434
vt 0.598411024 0.0220570434
vt 0.598411024 0.0220570434
vt 0.598411024 0.0220570434
vt 0.598411024 0.0220570434
vt 0.598411024 0.0220570434
vt 0.598411024 0.0220570434
vt 0.598411024 0.0220570434
vt 0.598411024 0.0220570434
vt 0.598411024 0.0220570434
vt 0.598411024 0.0220570434
vt 0.598411024 0.0220570434
vt 0.598411024 0.0220570434
vt 0.598411024 0.0220570434
vt 0.598411024 0.0220570434
vt 0.598411024 0.0220570434
vt 0.598411024 0.0220570434
vt 0.598411024 0.0220570434
vt 0.778667092 0.0234341137
vt 0.783355772 0.0141516784
vt 0.777427197 0.020801235
vt 0.783355772 0.0141516784
vt 0.783355772 0.0141516784
vt 0.783355772 0.0141516784
vt 0.783355772 0.0141516784
vt 0.782971084 0.023022037
vt 0.784037411 0.02281975
vt 0.784037411 0.0201002471
vt 0.784037411 0.0218133554
vt 0.782972455 0.021224197
vt 0.777427197 0.020801235
vt 0.778667092 0.0234341137
vt 0.780757427 0.0226821713
vt 0.782972455 0.021224197
vt 0.783317983 0.0222384296
vt 0.784037411 0.02281975
vt 0.782971084 0.023022037
vt 0.783355772 0.0141516784
vt 0.783355772 0.0141516784
vt 0.783355772 0.0141516784
vt 0.783355772 0.0141516784
vt 0.783355772 0.0141516784
vt 0.783355772 0.0141516784
vt 0.783355772 0.0141516784
vt 0.783355772 0.0141516784
vt 0.783355772 0.0141516784
vt 0.783355772 0.0141516784
vt 0.779451489 0.00972283166
vt 0.779451489 0.0208586454
vt 0.776751816 0.0208586454
vt 0.776751816 0.00972283166
vt 0.788785994 0.0208586454
vt 0.779451489 0.0208586454
vt 0.779451489 0.00972283166
vt 0.788785994 0.00972283725
vt 0.595020175 0.0205042548
vt 0.597175598 0.0205042548
vt 0.597175598 0.0217877775
vt 0.595020175 0.0217877775
vt 0.597175598 0.0192207284
vt 0.599330962 0.0192207284
vt 0.599330962 0.0218790323
vt 0.597175777 0.0218790323
vt 0.597175598 0.0192207284
vt 0.599330962 0.0192207284
vt 0.599330962 0.0218790323
vt 0.597175777 0.0218790323
vt 0.595020175 0.0205042548
vt 0.597175598 0.0205042548
vt 0.597175598 0.0217877775
vt 0.595020175 0.0217877775
vt 0.597175598 0.0192207284
vt 0.596025169 0.0192207284
vt 0.594874501 0.0192207284
vt 0.597175777 0.0192207284
vt 0.597175598 0.0165623911
vt 0.599330962 0.0165623911
vt 0.599330962 0.0192207284
vt 0.597175777 0.0192207284
vt 0.597175598 0.0165623911
vt 0.595020175 0.0192207284
vt 0.597175598 0.0192207284
vt 0.597175598 0.0205042548
vt 0.595020175 0.0205042548
vt 0.599330962 0.0165623911
vt 0.599330962 0.0192207284
vt 0.597175777 0.0192207284
vt 0.597175598 0.0165623911
vt 0.597175598 0.0192207284
vt 0.596025169 0.0192207284
vt 0.594874501 0.0192207284
vt 0.597175777 0.0192207284
vt 0.597175598 0.0165623911
vt 0.595020175 0.0192207284
vt 0.597175598 0.0192207284
vt 0.597175598 0.0205042548
vt 0.595020175 0.0205042548
vt 0.599330962 0.0192207284
vt 0.597175598 0.0192207284
vt 0.597175598 0.0192207284
vt 0.599330962 0.0192207284
vt 0.599330962 0.0192207284
vt 0.597175598 0.0192207284
vt 0.597175598 0.0192207284
vt 0.599330962 0.0192207284
vt 0.599330962 0.0192207284
vt 0.597175598 0.0192207284
vt 0.597175777 0.0192207284
vt 0.599330962 0.0192207284
vt 0.599330962 0.0192207284
vt 0.597175598 0.0192207284
vt 0.597175777 0.0192207284
vt 0.599330962 0.0192207284
vt 0.599330962 0.0165623911
vt 0.597175598 0.0205042548
vt 0.599330962 0.0218790323
vt 0.599330962 0.0192207284
vt 0.599330962 0.0192207284
vt 0.599330962 0.0192207284
vt 0.597175598 0.0192207284
vt 0.599330962 0.0192207284
vt 0.599330962 0.0165623911
vt 0.599330962 0.0192207284
vt 0.599330962 0.0192207284
vt 0.570972264 0.0221211929
vt 0.570145369 0.0196945686
vt 0.570145369 0.0196945686
vt 0.570972264 0.0221211929
vt 0.570145369 0.0196945686
vt 0.572693408 0.0211041737
vt 0.572693408 0.0211041737
vt 0.570145369 0.0196945686
vt 0.572693408 0.0235120449
vt 0.570972264 0.0221211929
vt 0.570972264 0.0221211929
vt 0.572693408 0.0235120449
vt 0.869278729 0.132820517
vt 0.871826768 0.134230122
vt 0.871826768 0.136638001
vt 0.870105565 0.135247141
vn 0.000007 -1.000000 0.000002
vn 0.000007 -1.000000 0.000002
vn 0.000007 -1.000000 0.000002
vn 0.000007 -1.000000 0.000001
vn 0.000007 -1.000000 0.000001
vn 0.000007 -1.000000 0.000001
vn -0.000006 1.000000 0.000001
vn -0.000006 1.000000 0.000001
vn -0.000006 1.000000 0.000001
vn -0.000007 -1.000000 0.000002
vn -0.000007 -1.000000 0.000002
vn -0.000007 -1.000000 0.000002
vn -0.000007 -1.000000 0.000001
vn -0.000007 -1.000000 0.000001
vn -0.000007 -1.000000 0.000001
vn 0.000006 1.000000 0.000001
vn 0.000006 1.000000 0.000001
vn 0.000006 1.000000 0.000001
vn -0.494267 -0.826654 0.268969
vn -0.494267 -0.826654 0.268969
vn -0.494267 -0.826654 0.268969
vn -0.494267 -0.826654 0.268969
vn 0.282653 -0.755850 -0.590592
vn 0.282653 -0.755850 -0.590592
vn 0.282653 -0.755850 -0.590592
vn 0.282653 -0.755850 -0.590592
vn -0.000000 -1.000000 -0.000000
vn -0.000000 -1.000000 -0.000000
vn -0.000000 -1.000000 -0.000000
vn -0.000000 -1.000000 -0.000000
vn -0.000000 -1.000000 -0.000000
vn -0.000000 -1.000000 -0.000000
vn -0.111699 -0.829757 -0.546833
vn -0.111699 -0.829757 -0.546833
vn -0.111699 -0.829757 -0.546833
vn -0.111699 -0.829757 -0.546833
vn 0.523958 -0.840169 -0.139942
vn 0.523958 -0.840169 -0.139942
vn 0.523958 -0.840169 -0.139942
vn 0.523958 -0.840169 -0.139942
vn 0.276733 -0.886264 0.371423
vn 0.276733 -0.886264 0.371423
vn 0.276733 -0.886264 0.371423
vn 0.276733 -0.886264 0.371423
vn -0.371675 -0.732307 0.570600
vn -0.371675 -0.732307 0.570600
vn -0.371675 -0.732307 0.570600
vn -0.371675 -0.732307 0.570600
vn -0.000000 -1.000000 0.000000
vn -0.000000 -1.000000 0.000000
vn -0.000000 -1.000000 0.000000
vn -0.000000 -1.000000 0.000000
vn 0.835920 0.000000 0.548851
vn 0.835920 0.000000 0.548851
vn 0.835920 0.000000 0.548851
vn 0.835920 0.000000 0.548851
vn -0.840887 0.000000 -0.541211
vn -0.840887 0.000000 -0.541211
vn -0.840887 0.000000 -0.541211
vn -0.840887 0.000000 -0.541211
vn 0.638871 0.000000 -0.769314
vn 0.638871 0.000000 -0.769314
vn 0.638871 0.000000 -0.769314
vn 0.638871 0.000000 -0.769314
vn -0.513291 0.000000 0.858215
vn -0.513291 0.000000 0.858215
vn -0.513291 0.000000 0.858215
vn -0.513291 0.000000 0.858215
vn 0.000001 -1.000000 -0.000000
vn 0.000001 -1.000000 -0.000000
vn 0.000001 -1.000000 -0.000000
vn 0.000001 -1.000000 -0.000000
vn 0.000001 -1.000000 -0.000000
vn 0.000001 -1.000000 -0.000000
vn 0.000001 -1.000000 0.000001
vn 0.000001 -1.000000 0.000001
vn 0.000001 -1.000000 0.000001
vn 0.000001 -1.000000 0.000001
vn 0.000001 -1.000000 -0.000000
vn 0.000001 -1.000000 -0.000000
vn 0.000001 -1.000000 -0.000000
vn 0.000001 -1.000000 -0.000000
vn 0.000001 -1.000000 -0.000000
vn 0.000001 -1.000000 -0.000000
vn 0.000001 -1.000000 -0.000000
vn 0.000001 -1.000000 -0.000000
vn 0.000001 -1.000000 -0.000000
vn -0.139703 0.000000 0.990193
vn -0.139703 0.000000 0.990193
vn -0.139703 0.000000 0.990193
vn -0.139703 0.000000 0.990193
vn -1.000000 0.000000 -0.000000
vn -1.000000 0.000000 -0.000000
vn -1.000000 0.000000 -0.000000
vn -1.000000 0.000000 -0.000000
vn -1.000000 0.000000 -0.000000
vn -1.000000 0.000000 -0.000000
vn -0.000000 1.000000 0.000001
vn -0.000000 1.000000 0.000001
vn -0.000000 1.000000 0.000001
vn -0.000000 1.000000 0.000001
vn -0.000000 1.000000 0.000001
vn -0.000000 1.000000 0.000001
vn -0.077726 0.834528 0.545456
vn -0.077726 0.834528 0.545456
vn -0.077726 0.834528 0.545456
vn -0.077726 0.834528 0.545456
vn -0.000000 0.000000 1.000000
vn -0.000000 0.000000 1.000000
vn -0.000000 0.000000 1.000000
vn -0.000000 0.000000 1.000000
vn 0.346537 0.000000 0.938036
vn 0.346537 0.000000 0.938036
vn 0.346537 0.000000 0.938036
vn 0.346537 0.000000 0.938036
vn -0.948863 0.000000 -0.315688
vn -0.948863 0.000000 -0.315688
vn -0.948863 0.000000 -0.315688
vn -0.948863 0.000000 -0.315688
vn -0.989266 0.000000 -0.146123
vn -0.989266 0.000000 -0.146123
vn -0.989266 0.000000 -0.146123
vn -0.989266 0.000000 -0.146123
vn 0.504160 0.000000 0.863610
vn 0.504160 0.000000 0.863610
vn 0.504160 0.000000 0.863610
vn 0.504160 0.000000 0.863610
vn 0.000007 -1.000000 0.000002
vn 0.000007 -1.000000 0.000002
vn 0.000007 -1.000000 0.000002
vn 0.000007 -1.000000 0.000002
vn 0.000007 -1.000000 0.000002
vn 0.979583 0.000000 0.201038
vn 0.979583 0.000000 0.201038
vn 0.979583 0.000000 0.201038
vn 0.979583 0.000000 0.201038
vn -0.769128 0.000000 0.639095
vn -0.769128 0.000000 0.639095
vn -0.769128 0.000000 0.639095
vn -0.769128 0.000000 0.639095
vn 0.999611 0.000000 0.027881
vn 0.999611 0.000000 0.027881
vn 0.999611 0.000000 0.027881
vn 0.999611 0.000000 0.027881
vn 0.000007 -1.000000 0.000001
vn 0.000007 -1.000000 0.000001
vn 0.000007 -1.000000 0.000001
vn 0.000007 -1.000000 0.000001
vn 0.000007 -1.000000 0.000001
vn -0.646466 0.000000 0.762943
vn -0.646466 0.000000 0.762943
vn -0.646466 0.000000 0.762943
vn -0.646466 0.000000 0.762943
vn -0.542998 0.000000 -0.839734
vn -0.542998 0.000000 -0.839734
vn -0.542998 0.000000 -0.839734
vn -0.542998 0.000000 -0.839734
vn -0.388931 0.000000 -0.921267
vn -0.388931 0.000000 -0.921267
vn -0.388931 0.000000 -0.921267
vn -0.388931 0.000000 -0.921267
vn 0.797457 0.000000 -0.603376
vn 0.797457 0.000000 -0.603376
vn 0.797457 0.000000 -0.603376
vn 0.797457 0.000000 -0.603376
vn 0.680567 0.000000 -0.732686
vn 0.680567 0.000000 -0.732686
vn 0.680567 0.000000 -0.732686
vn 0.680567 0.000000 -0.732686
vn -0.000006 1.000000 0.000000
vn -0.000006 1.000000 0.000000
vn -0.000006 1.000000 0.000000
vn -0.000006 1.000000 0.000000
vn -0.000006 1.000000 0.000000
vn -0.000006 1.000000 0.000000
vn -0.000006 1.000000 0.000001
vn -0.000006 1.000000 0.000001
vn -0.000006 1.000000 0.000001
vn -0.000006 1.000000 0.000001
vn -0.000006 1.000000 0.000001
vn 0.605135 -0.782488 0.146711
vn 0.605135 -0.782488 0.146711
vn 0.605135 -0.782488 0.146711
vn 0.605135 -0.782488 0.146711
vn -0.321436 -0.759821 -0.565111
vn -0.321436 -0.759821 -0.565111
vn -0.321436 -0.759821 -0.565111
vn -0.321436 -0.759821 -0.565111
vn -0.000000 0.000000 -1.000000
vn -0.000000 0.000000 -1.000000
vn -0.000000 0.000000 -1.000000
vn -0.000000 0.000000 -1.000000
vn -0.000000 0.000000 -1.000000
vn -0.000000 0.000000 -1.000000
vn 0.368962 -0.817439 0.442335
vn 0.368962 -0.817439 0.442335
vn 0.368962 -0.817439 0.442335
vn 0.368962 -0.817439 0.442335
vn -0.000000 -1.000000 -0.000001
vn -0.000000 -1.000000 -0.000001
vn -0.000000 -1.000000 -0.000001
vn -0.000000 -1.000000 -0.000001
vn 0.494267 -0.826654 0.268969
vn 0.494267 -0.826654 0.268969
vn 0.494267 -0.826654 0.268969
vn 0.494267 -0.826654 0.268969
vn -0.282653 -0.755850 -0.590592
vn -0.282653 -0.755850 -0.590592
vn -0.282653 -0.755850 -0.590592
vn -0.282653 -0.755850 -0.590592
vn -0.000000 -1.000000 -0.000000
vn -0.000000 -1.000000 -0.000000
vn -0.000000 -1.000000 -0.000000
vn -0.000000 -1.000000 -0.000000
vn -0.000000 -1.000000 -0.000000
vn -0.000000 -1.000000 -0.000000
vn 0.111699 -0.829758 -0.546833
vn 0.111699 -0.829758 -0.546833
vn 0.111699 -0.829758 -0.546833
vn 0.111699 -0.829758 -0.546833
vn -0.523958 -0.840169 -0.139942
vn -0.523958 -0.840169 -0.139942
vn -0.523958 -0.840169 -0.139942
vn -0.523958 -0.840169 -0.139942
vn -0.276733 -0.886264 0.371424
vn -0.276733 -0.886264 0.371424
vn -0.276733 -0.886264 0.371424
vn -0.276733 -0.886264 0.371424
vn 0.371675 -0.732307 0.570600
vn 0.371675 -0.732307 0.570600
vn 0.371675 -0.732307 0.570600
vn 0.371675 -0.732307 0.570600
vn -0.000000 -1.000000 0.000000
vn -0.000000 -1.000000 0.000000
vn -0.000000 -1.000000 0.000000
vn -0.000000 -1.000000 0.000000
vn -0.835920 0.000000 0.548851
vn -0.835920 0.000000 0.548851
vn -0.835920 0.000000 0.548851
vn -0.835920 0.000000 0.548851
vn 0.840887 0.000000 -0.541211
vn 0.840887 0.000000 -0.541211
vn 0.840887 0.000000 -0.541211
vn 0.840887 0.000000 -0.541211
vn -0.638871 0.000000 -0.769314
vn -0.638871 0.000000 -0.769314
vn -0.638871 0.000000 -0.769314
vn -0.638871 0.000000 -0.769314
vn 0.513291 0.000000 0.858215
vn 0.513291 0.000000 0.858215
vn 0.513291 0.000000 0.858215
vn 0.513291 0.000000 0.858215
vn -0.000001 -1.000000 -0.000000
vn -0.000001 -1.000000 -0.000000
vn -0.000001 -1.000000 -0.000000
vn -0.000001 -1.000000 -0.000000
vn -0.000001 -1.000000 -0.000000
vn -0.000001 -1.000000 -0.000000
vn -0.000001 -1.000000 -0.000000
vn -0.000001 -1.000000 -0.000000
vn -0.000001 -1.000000 -0.000000
vn -0.000001 -1.000000 -0.000000
vn -0.000001 -1.000000 -0.000000
vn -0.000001 -1.000000 -0.000000
vn -0.000001 -1.000000 -0.000000
vn -0.000001 -1.000000 -0.000000
vn -0.000001 -1.000000 -0.000000
vn -0.000001 -1.000000 0.000001
vn -0.000001 -1.000000 0.000001
vn -0.000001 -1.000000 0.000001
vn -0.000001 -1.000000 0.000001
vn 0.139703 0.000000 0.990193
vn 0.139703 0.000000 0.990193
vn 0.139703 0.000000 0.990193
vn 0.139703 0.000000 0.990193
vn 1.000000 0.000000 -0.000000
vn 1.000000 0.000000 -0.000000
vn 1.000000 0.000000 -0.000000
vn 1.000000 0.000000 -0.000000
vn 1.000000 0.000000 -0.000000
vn 1.000000 0.000000 -0.000000
vn 0.077726 0.834528 0.545456
vn 0.077726 0.834528 0.545456
vn 0.077726 0.834528 0.545456
vn 0.077726 0.834528 0.545456
vn 0.000000 0.000000 1.000000
vn 0.000000 0.000000 1.000000
vn 0.000000 0.000000 1.000000
vn 0.000000 0.000000 1.000000
vn -0.346537 0.000000 0.938036
vn -0.346537 0.000000 0.938036
vn -0.346537 0.000000 0.938036
vn -0.346537 0.000000 0.938036
vn 0.948863 0.000000 -0.315688
vn 0.948863 0.000000 -0.315688
vn 0.948863 0.000000 -0.315688
vn 0.948863 0.000000 -0.315688
vn 0.989266 0.000000 -0.146123
vn 0.989266 0.000000 -0.146123
vn 0.989266 0.000000 -0.146123
vn 0.989266 0.000000 -0.146123
vn -0.504160 0.000000 0.863610
vn -0.504160 0.000000 0.863610
vn -0.504160 0.000000 0.863610
vn -0.504160 0.000000 0.863610
vn -0.000007 -1.000000 0.000002
vn -0.000007 -1.000000 0.000002
vn -0.000007 -1.000000 0.000002
vn -0.000007 -1.000000 0.000002
vn -0.000007 -1.000000 0.000002
vn -0.979583 0.000000 0.201038
vn -0.979583 0.000000 0.201038
vn -0.979583 0.000000 0.201038
vn -0.979583 0.000000 0.201038
vn 0.769128 0.000000 0.639095
vn 0.769128 0.000000 0.639095
vn 0.769128 0.000000 0.639095
vn 0.769128 0.000000 0.639095
vn -0.999611 0.000000 0.027881
vn -0.999611 0.000000 0.027881
vn -0.999611 0.000000 0.027881
vn -0.999611 0.000000 0.027881
vn -0.000007 -1.000000 0.000001
vn -0.000007 -1.000000 0.000001
vn -0.000007 -1.000000 0.000001
vn -0.000007 -1.000000 0.000001
vn -0.000007 -1.000000 0.000001
vn 0.646466 0.000000 0.762943
vn 0.646466 0.000000 0.762943
vn 0.646466 0.000000 0.762943
vn 0.646466 0.000000 0.762943
vn 0.542998 0.000000 -0.839734
vn 0.542998 0.000000 -0.839734
vn 0.542998 0.000000 -0.839734
vn 0.542998 0.000000 -0.839734
vn 0.388932 0.000000 -0.921267
vn 0.388932 0.000000 -0.921267
vn 0.388932 0.000000 -0.921267
vn 0.388932 0.000000 -0.921267
vn -0.797457 0.000000 -0.603376
vn -0.797457 0.000000 -0.603376
vn -0.797457 0.000000 -0.603376
vn -0.797457 0.000000 -0.603376
vn -0.680567 0.000000 -0.732686
vn -0.680567 0.000000 -0.732686
vn -0.680567 0.000000 -0.732686
vn -0.680567 0.000000 -0.732686
vn 0.000006 1.000000 0.000000
vn 0.000006 1.000000 0.000000
vn 0.000006 1.000000 0.000000
vn 0.000006 1.000000 0.000000
vn 0.000006 1.000000 0.000000
vn 0.000006 1.000000 0.000000
vn 0.000006 1.000000 0.000001
vn 0.000006 1.000000 0.000001
vn 0.000006 1.000000 0.000001
vn 0.000006 1.000000 0.000001
vn 0.000006 1.000000 0.000001
vn -0.605135 -0.782488 0.146711
vn -0.605135 -0.782488 0.146711
vn -0.605135 -0.782488 0.146711
vn -0.605135 -0.782488 0.146711
vn 0.321436 -0.759821 -0.565111
vn 0.321436 -0.759821 -0.565111
vn 0.321436 -0.759821 -0.565111
vn 0.321436 -0.759821 -0.565111
vn -0.368962 -0.817439 0.442335
vn -0.368962 -0.817439 0.442335
vn -0.368962 -0.817439 0.442335
vn -0.368962 -0.817439 0.442335
vn -0.000000 -1.000000 -0.000001
vn -0.000000 -1.000000 -0.000001
vn -0.000000 -1.000000 -0.000001
vn -0.000000 -1.000000 -0.000001
f 1/1/1 2/2/2 3/3/3
f 4/4/4 5/5/5 6/6/6
f 7/7/7 8/8/8 9/9/9
f 10/10/10 11/11/11 12/12/12
f 13/13/13 14/14/14 15/15/15
f 16/16/16 17/17/17 18/18/18
f 19/19/19 20/20/20 21/21/21
f 19/19/19 21/21/21 22/22/22
f 23/23/23 24/24/24 25/25/25
f 23/23/23 25/25/25 26/26/26
f 27/27/27 28/28/28 29/29/29
f 29/29/29 30/30/30 27/27/27
f 29/29/29 31/31/31 30/30/30
f 31/31/31 32/32/32 30/30/30
f 33/33/33 34/34/34 35/35/35
f 33/33/33 35/35/35 36/36/36
f 37/37/37 38/38/38 39/39/39
f 37/37/37 39/39/39 40/40/40
f 41/41/41 42/42/42 43/43/43
f 41/41/41 43/43/43 44/44/44
f 45/45/45 46/46/46 47/47/47
f 45/45/45 47/47/47 48/48/48
f 49/49/49 50/50/50 51/51/51
f 49/49/49 51/51/51 52/52/52
f 53/53/53 54/54/54 55/55/55
f 53/53/53 55/55/55 56/56/56
f 57/57/57 58/58/58 59/59/59
f 57/57/57 59/59/59 60/60/60
f 61/61/61 62/62/62 63/63/63
f 61/61/61 63/63/63 64/64/64
f 65/65/65 66/66/66 67/67/67
f 65/65/65 67/67/67 68/68/68
f 69/69/69 70/70/70 71/71/71
f 71/71/71 72/72/72 69/69/69
f 73/73/73 69/69/69 72/72/72
f 73/73/73 74/74/74 69/69/69
f 75/75/75 76/76/76 74/74/74
f 74/74/74 77/77/77 75/75/75
f 74/74/74 78/78/78 77/77/77
f 79/79/79 80/80/80 81/81/81
f 81/81/81 82/82/82 79/79/79
f 82/82/82 83/83/83 79/79/79
f 84/84/84 79/79/79 83/83/83
f 84/84/84 83/83/83 85/85/85
f 86/86/86 84/84/84 85/85/85
f 85/85/85 87/87/87 86/86/86
f 88/88/88 89/89/89 90/90/90
f 88/88/88 90/90/90 91/91/91
f 92/92/92 93/93/93 94/94/94
f 94/94/94 95/95/95 92/92/92
f 94/94/94 96/96/96 95/95/95
f 95/95/95 97/97/97 92/92/92
f 98/98/98 99/99/99 100/100/100
f 98/98/98 100/100/100 101/101/101
f 98/98/98 101/101/101 102/102/102
f 98/98/98 102/102/102 103/103/103
f 104/104/104 105/105/105 106/106/106
f 104/104/104 106/106/106 107/107/107
f 108/108/108 109/109/109 110/110/110
f 108/108/108 110/110/110 111/111/111
f 112/112/112 113/113/113 114/114/114
f 112/112/112 114/114/114 115/115/115
f 116/116/116 117/117/117 118/118/118
f 116/116/116 118/118/118 119/119/119
f 120/120/120 121/121/121 122/122/122
f 120/120/120 122/122/122 123/123/123
f 124/124/124 125/125/125 126/126/126
f 124/124/124 126/126/126 127/127/127
f 128/128/128 129/129/129 130/130/130
f 130/130/130 131/131/131 128/128/128
f 130/130/130 132/132/132 131/131/131
f 133/133/133 134/134/134 135/135/135
f 133/133/133 135/135/135 136/136/136
f 137/137/137 138/138/138 139/139/139
f 137/137/137 139/139/139 140/140/140
f 141/141/141 142/142/142 143/143/143
f 141/141/141 143/143/143 144/144/144
f 145/145/145 146/146/146 147/147/147
f 147/147/147 148/148/148 145/145/145
f 147/147/147 149/149/149 148/148/148
f 150/150/150 151/151/151 152/152/152
f 150/150/150 152/152/152 153/153/153
f 154/154/154 155/155/155 156/156/156
f 154/154/154 156/156/156 157/157/157
f 158/158/158 159/159/159 160/160/160
f 158/158/158 160/160/160 161/161/161
f 162/162/162 163/163/163 164/164/164
f 162/162/162 164/164/164 165/165/165
f 166/166/166 167/167/167 168/168/168
f 166/166/166 168/168/168 169/169/169
f 170/170/170 171/171/171 172/172/172
f 172/172/172 173/173/173 170/170/170
f 173/173/173 174/174/174 170/170/170
f 173/173/173 175/175/175 174/174/174
f 176/176/176 177/177/177 178/178/178
f 177/177/177 179/179/179 178/178/178
f 177/177/177 180/180/180 179/179/179
f 181/181/181 182/182/182 183/183/183
f 181/181/181 183/183/183 184/184/184
f 185/185/185 186/186/186 187/187/187
f 185/185/185 187/187/187 188/188/188
f 189/189/189 190/190/190 191/191/191
f 189/189/189 192/192/192 190/190/190
f 189/189/189 193/193/193 192/192/192
f 189/189/189 194/194/194 193/193/193
f 195/195/195 196/196/196 197/197/197
f 195/195/195 197/197/197 198/198/198
f 199/199/199 200/200/200 201/201/201
f 199/199/199 201/201/201 202/202/202
f 203/203/203 204/204/204 205/205/205
f 203/203/203 205/205/205 206/206/206
f 207/207/207 208/208/208 209/209/209
f 207/207/207 209/209/209 210/210/210
f 211/211/211 212/212/212 213/213/213
f 213/213/213 214/214/214 211/211/211
f 214/214/214 215/215/215 211/211/211
f 214/214/214 216/216/216 215/215/215
f 217/217/217 218/218/218 219/219/219
f 217/217/217 219/219/219 220/220/220
f 221/221/221 222/222/222 223/223/223
f 221/221/221 223/223/223 224/224/224
f 225/225/225 226/226/226 227/227/227
f 225/225/225 227/227/227 228/228/228
f 229/229/229 230/230/230 231/231/231
f 229/229/229 231/231/231 232/232/232
f 233/233/233 234/234/234 235/235/235
f 233/233/233 235/235/235 236/236/236
f 237/237/237 238/238/238 239/239/239
f 237/237/237 239/239/239 240/240/240
f 241/241/241 242/242/242 243/243/243
f 241/241/241 243/243/243 244/244/244
f 245/245/245 246/246/246 247/247/247
f 245/245/245 247/247/247 248/248/248
f 249/249/249 250/250/250 251/251/251
f 249/249/249 251/251/251 252/252/252
f 253/253/253 254/254/254 255/255/255
f 254/254/254 256/256/256 255/255/255
f 254/254/254 257/257/257 256/256/256
f 258/258/258 256/256/256 257/257/257
f 258/258/258 257/257/257 259/259/259
f 258/258/258 259/259/259 260/260/260
f 260/260/260 261/261/261 258/258/258
f 262/262/262 263/263/263 264/264/264
f 264/264/264 265/265/265 262/262/262
f 265/265/265 264/264/264 266/266/266
f 264/264/264 267/267/267 266/266/266
f 267/267/267 268/268/268 269/269/269
f 269/269/269 270/270/270 267/267/267
f 270/270/270 271/271/271 267/267/267
f 272/272/272 273/273/273 274/274/274
f 272/272/272 274/274/274 275/275/275
f 276/276/276 277/277/277 278/278/278
f 278/278/278 279/279/279 276/276/276
f 278/278/278 280/280/280 279/279/279
f 280/280/280 281/281/281 279/279/279
f 282/282/282 283/283/283 284/284/284
f 282/282/282 284/284/284 285/285/285
f 286/286/286 287/287/287 288/288/288
f 286/286/286 288/288/288 289/289/289
f 290/290/290 291/291/291 292/292/292
f 290/290/290 292/292/292 293/293/293
f 294/294/294 295/295/295 296/296/296
f 294/294/294 296/296/296 297/297/297
f 298/298/298 299/299/299 300/300/300
f 298/298/298 300/300/300 301/301/301
f 302/302/302 303/303/303 304/304/304
f 302/302/302 304/304/304 305/305/305
f 306/306/306 307/307/307 308/308/308
f 308/308/308 309/309/309 306/306/306
f 309/309/309 310/310/310 306/306/306
f 311/311/311 312/312/312 313/313/313
f 311/311/311 313/313/313 314/314/314
f 315/315/315 316/316/316 317/317/317
f 315/315/315 317/317/317 318/318/318
f 319/319/319 320/320/320 321/321/321
f 319/319/319 321/321/321 322/322/322
f 323/323/323 324/324/324 325/325/325
f 325/325/325 326/326/326 323/323/323
f 326/326/326 327/327/327 323/323/323
f 328/328/328 329/329/329 330/330/330
f 328/328/328 330/330/330 331/331/331
f 332/332/332 333/333/333 334/334/334
f 332/332/332 334/334/334 335/335/335
f 336/336/336 337/337/337 338/338/338
f 336/336/336 338/338/338 339/339/339
f 340/340/340 341/341/341 342/342/342
f 340/340/340 342/342/342 343/343/343
f 344/344/344 345/345/345 346/346/346
f 344/344/344 346/346/346 347/347/347
f 348/348/348 349/349/349 350/350/350
f 350/350/350 351/351/351 348/348/348
f 350/350/350 352/352/352 351/351/351
f 352/352/352 353/353/353 351/351/351
f 354/354/354 355/355/355 356/356/356
f 354/354/354 357/357/357 355/355/355
f 357/357/357 358/358/358 355/355/355
f 359/359/359 360/360/360 361/361/361
f 359/359/359 361/361/361 362/362/362
f 363/363/363 364/364/364 365/365/365
f 363/363/363 365/365/365 366/366/366
f 367/367/367 368/368/368 369/369/369
f 367/367/367 369/369/369 370/370/370
f 371/371/371 372/372/372 373/373/373
f 371/371/371 373/373/373 374/374/374
