# halloween_cape_backpack (gear rip -> Godot: Z negated + winding reversed)
v -0.787947 0.222875 0.236433
v -0.787947 0.222876 0.171165
v -0.787947 0.222876 -0.210427
v -0.787947 -0.156380 0.236432
v -0.787947 -0.156379 0.171164
v -0.787947 -0.156379 -0.145160
v -0.734866 -0.362267 0.236432
v -0.653934 -0.456654 0.236431
v -0.653934 0.456652 0.236433
v -0.734866 0.362265 0.236433
v -0.787947 -0.222877 0.236432
v -0.787947 0.222875 0.236433
v -0.787947 0.222875 0.236433
v -0.787947 -0.156380 0.236432
v -0.787947 -0.222877 0.236432
v -0.787947 0.156378 0.236433
v -0.787947 0.222875 0.236433
v -0.734866 0.362266 0.171165
v -0.787947 0.222876 0.171165
v -0.734866 0.362265 0.236433
v -0.653934 0.456652 0.236433
v -0.653934 0.456653 0.171165
v -0.787947 0.156378 0.236433
v -0.787947 0.222876 -0.210427
v -0.787947 0.156379 0.171165
v -0.787947 -0.156379 0.171164
v -0.787947 -0.156380 0.236432
v -0.787947 0.156379 -0.145159
v -0.787947 -0.156379 -0.145160
v -0.787947 -0.222876 -0.210428
v -0.787947 -0.222877 0.236432
v -0.787947 -0.222876 0.171164
v -0.734866 -0.362267 0.236432
v -0.734866 -0.362266 0.171164
v -0.653934 -0.456653 0.171163
v -0.653934 -0.456654 0.236431
v -0.720941 0.222876 0.171165
v -0.720941 0.156379 0.171165
v -0.720941 0.156379 -0.145159
v -0.720941 0.222876 -0.210427
v -0.720941 -0.156379 -0.145160
v -0.720941 -0.222876 -0.210428
v -0.720941 -0.156379 0.171164
v -0.720941 -0.222876 0.171164
v -0.720941 0.222876 -0.210427
v -0.720941 -0.222876 -0.210428
v -0.787947 -0.222876 -0.210428
v -0.787947 0.222876 -0.210427
v -0.787947 0.222876 0.171165
v -0.720941 0.222876 0.171165
v -0.720941 0.222876 -0.210427
v -0.787947 0.222876 -0.210427
v -0.720941 -0.222876 0.171164
v -0.787947 -0.222876 0.171164
v -0.787947 -0.222876 -0.210428
v -0.720941 -0.222876 -0.210428
v -0.787947 0.156379 -0.145159
v -0.787947 -0.156379 -0.145160
v -0.720941 -0.156379 -0.145160
v -0.720941 0.156379 -0.145159
v -0.787947 0.156379 0.171165
v -0.787947 0.156379 -0.145159
v -0.720941 0.156379 -0.145159
v -0.720941 0.156379 0.171165
v -0.787947 -0.156379 -0.145160
v -0.787947 -0.156379 0.171164
v -0.720941 -0.156379 0.171164
v -0.720941 -0.156379 -0.145160
v -0.653934 0.456653 0.171165
v 0.313269 0.502318 0.272277
v 0.214936 0.251159 0.254091
v 0.214936 -0.251159 0.254090
v 0.313269 -0.000000 0.272276
v -0.653934 -0.456653 0.171163
v 0.313269 -0.502318 0.272275
v -0.720941 0.222876 0.171165
v -0.734866 0.362266 0.171165
v -0.787947 0.222876 0.171165
v -0.720941 -0.222876 0.171164
v -0.734866 -0.362266 0.171164
v -0.787947 -0.222876 0.171164
v -0.720941 0.156379 0.171165
v -0.720941 -0.156379 0.171164
v -0.787947 0.156379 0.171165
v -0.787947 -0.156379 0.171164
v -0.653934 -0.456654 0.236431
v 0.296376 -0.502318 0.335319
v 0.198043 -0.251159 0.317135
v 0.198043 0.251159 0.317136
v 0.296376 -0.000000 0.335320
v -0.653934 0.456652 0.236433
v 0.296376 0.502318 0.335321
v 0.198043 -0.251159 0.317135
v 0.296376 -0.502318 0.335319
v 0.313269 -0.502318 0.272275
v 0.214936 -0.251159 0.254090
v 0.296376 -0.000000 0.335320
v 0.313269 -0.000000 0.272276
v 0.198043 0.251159 0.317136
v 0.214936 0.251159 0.254091
v 0.296376 0.502318 0.335321
v 0.313269 0.502318 0.272277
v -0.653934 -0.456653 0.171163
v 0.313269 -0.502318 0.272275
v 0.296376 -0.502318 0.335319
v -0.653934 -0.456654 0.236431
v -0.653934 0.456652 0.236433
v 0.296376 0.502318 0.335321
v 0.313269 0.502318 0.272277
v -0.653934 0.456653 0.171165
vt 0.969545007 0.028105
vt 0.970207989 0.028105
vt 0.974089026 0.028105
vt 0.969545007 0.0242529996
vt 0.970207989 0.0242529996
vt 0.973425984 0.0242529996
vt 0.860594988 0.951267004
vt 0.954545975 0.876964986
vt 0.0454550013 0.876966
vt 0.139405996 0.951268017
vt 0.721848011 1
vt 0.278153986 1
vt 0.278153986 1
vt 0.655658007 1
vt 0.721848011 1
vt 0.34434399 1
vt 0.969545007 0.028105
vt 0.970207989 0.0295199994
vt 0.970207989 0.028105
vt 0.969545007 0.0295199994
vt 0.969545007 0.0304790009
vt 0.970209002 0.0304790009
vt 0.969545007 0.0274289995
vt 0.974089026 0.028105
vt 0.970207989 0.0274289995
vt 0.970207989 0.0242529996
vt 0.969545007 0.0242529996
vt 0.973425984 0.0274289995
vt 0.973425984 0.0242529996
vt 0.974089026 0.0235779993
vt 0.969545007 0.0235779993
vt 0.970207989 0.0235779993
vt 0.969545007 0.0221619997
vt 0.970207989 0.0221619997
vt 0.970207989 0.0212040003
vt 0.969545007 0.0212040003
vt 0.959339023 0.0213699993
vt 0.959339023 0.0220449995
vt 0.962487996 0.0220449995
vt 0.963137984 0.0213699993
vt 0.962487996 0.0252219997
vt 0.963137984 0.025897
vt 0.959339023 0.0252219997
vt 0.959339023 0.025897
vt 0.974768996 0.0257300008
vt 0.974768996 0.0212040003
vt 0.974089026 0.0212040003
vt 0.974089026 0.0257300008
vt 0.969545007 0.0213699993
vt 0.96886301 0.0213699993
vt 0.96886301 0.0252449997
vt 0.969545007 0.0252449997
vt 0.963137984 0.0252449997
vt 0.963819027 0.0252449997
vt 0.963819027 0.0213699993
vt 0.963137984 0.0213699993
vt 0.96450001 0.0213699993
vt 0.96450001 0.0245459992
vt 0.96517998 0.0245459992
vt 0.96517998 0.0213699993
vt 0.963819027 0.0213699993
vt 0.963819027 0.0245830007
vt 0.96450001 0.0245830007
vt 0.96450001 0.0213699993
vt 0.968182027 0.0213699993
vt 0.968182027 0.0245830007
vt 0.96886301 0.0245830007
vt 0.96886301 0.0213699993
vt 0.987048984 0.0336420015
vt 0.988294005 0.00955700036
vt 0.981442988 0.0120160002
vt 0.967741013 0.0120160002
vt 0.97459197 0.00955700036
vt 0.962135971 0.0336420015
vt 0.960889995 0.00955700036
vt 0.980672002 0.0353019983
vt 0.984474003 0.0356470011
vt 0.980672002 0.0369619988
vt 0.968513012 0.0353019983
vt 0.964709997 0.0356470011
vt 0.968513012 0.0369619988
vt 0.978857994 0.0353019983
vt 0.970326006 0.0353019983
vt 0.978857994 0.0369619988
vt 0.970326006 0.0369619988
vt 1.00572705 0.926337004
vt 1.05629802 -0.0493730009
vt 0.778149009 0.0519910008
vt 0.221849993 0.0519919991
vt 0.499998987 -0.0493719988
vt -0.00572500005 0.926338017
vt -0.0562999994 -0.0493710004
vt 0.979762018 0.0176289994
vt 0.979785979 0.0201789998
vt 0.980449021 0.0201789998
vt 0.980425 0.0176289994
vt 0.979785979 0.0150779998
vt 0.980449021 0.0150779998
vt 0.979762018 0.0125270002
vt 0.980425 0.0125270002
vt 0.979785979 0.00997599959
vt 0.980449021 0.00997599959
vt 0.98042202 0.0300609991
vt 0.98042202 0.0201789998
vt 0.979766011 0.0202830005
vt 0.979762018 0.0299929995
vt 0.979102015 0.0212719999
vt 0.979106009 0.0309820008
vt 0.979762018 0.0310859997
vt 0.979762018 0.0212040003
vn -0.000001 0.000002 -1.000000
vn -0.000001 0.000002 -1.000000
vn -0.000001 0.000002 -1.000000
vn -0.000001 0.000002 -1.000000
vn -0.000001 0.000002 -1.000000
vn -0.000001 0.000002 -1.000000
vn 0.000001 -0.000002 1.000000
vn -0.072703 0.008027 0.997321
vn -0.049120 -0.008033 0.998761
vn 0.000001 -0.000002 1.000000
vn 0.000001 -0.000002 1.000000
vn 0.000001 -0.000002 1.000000
vn -0.000001 0.000002 -1.000000
vn -0.000001 0.000002 -1.000000
vn -0.000001 0.000002 -1.000000
vn -0.000001 0.000002 -1.000000
vn -0.983497 0.180925 0.000001
vn -0.859591 0.510983 0.000002
vn -0.934532 0.355878 0.000001
vn -0.859591 0.510983 0.000002
vn -0.759142 0.650925 0.000002
vn -0.759142 0.650925 0.000002
vn -1.000000 -0.000000 0.000001
vn -1.000000 -0.000000 0.000001
vn -1.000000 -0.000000 0.000001
vn -1.000000 -0.000000 0.000001
vn -1.000000 -0.000000 0.000001
vn -1.000000 -0.000000 0.000001
vn -1.000000 -0.000000 0.000001
vn -1.000000 -0.000000 0.000001
vn -0.992727 -0.120391 0.000000
vn -0.992727 -0.120391 0.000000
vn -0.859591 -0.510983 -0.000000
vn -0.859591 -0.510983 -0.000000
vn -0.759142 -0.650925 -0.000001
vn -0.759142 -0.650925 -0.000001
vn 1.000000 0.000000 -0.000001
vn 1.000000 0.000000 -0.000001
vn 1.000000 0.000000 -0.000001
vn 1.000000 0.000000 -0.000001
vn 1.000000 0.000000 -0.000001
vn 1.000000 0.000000 -0.000001
vn 1.000000 0.000000 -0.000001
vn 1.000000 0.000000 -0.000001
vn -0.000001 0.000002 -1.000000
vn -0.000001 0.000002 -1.000000
vn -0.000001 0.000002 -1.000000
vn -0.000001 0.000002 -1.000000
vn -0.000000 1.000000 0.000002
vn -0.000000 1.000000 0.000002
vn -0.000000 1.000000 0.000002
vn -0.000000 1.000000 0.000002
vn 0.000000 -1.000000 -0.000002
vn 0.000000 -1.000000 -0.000002
vn 0.000000 -1.000000 -0.000002
vn 0.000000 -1.000000 -0.000002
vn 0.000001 -0.000002 1.000000
vn 0.000001 -0.000002 1.000000
vn 0.000001 -0.000002 1.000000
vn 0.000001 -0.000002 1.000000
vn 0.000000 -1.000000 -0.000002
vn 0.000000 -1.000000 -0.000002
vn 0.000000 -1.000000 -0.000002
vn 0.000000 -1.000000 -0.000002
vn -0.000000 1.000000 0.000002
vn -0.000000 1.000000 0.000002
vn -0.000000 1.000000 0.000002
vn -0.000000 1.000000 0.000002
vn 0.058562 0.006386 -0.998263
vn 0.102432 0.031884 -0.994229
vn 0.126544 0.010639 -0.991904
vn 0.118668 -0.007975 -0.992902
vn 0.181849 0.000002 -0.983326
vn 0.039538 -0.006383 -0.999198
vn 0.102432 -0.031881 -0.994229
vn -0.000001 0.000002 -1.000000
vn -0.000001 0.000002 -1.000000
vn -0.000001 0.000002 -1.000000
vn -0.000001 0.000002 -1.000000
vn -0.000001 0.000002 -1.000000
vn -0.000001 0.000002 -1.000000
vn -0.000001 0.000002 -1.000000
vn -0.000001 0.000002 -1.000000
vn -0.000001 0.000002 -1.000000
vn -0.000001 0.000002 -1.000000
vn -0.072703 0.008027 0.997321
vn -0.101921 0.032080 0.994275
vn -0.126136 0.010702 0.991955
vn -0.118185 -0.008029 0.992959
vn -0.181839 -0.000002 0.983328
vn -0.049120 -0.008033 0.998761
vn -0.101921 -0.032084 0.994275
vn 0.965925 -0.000000 0.258822
vn 0.897790 0.368918 0.240566
vn 0.897790 0.368918 0.240566
vn 0.965925 -0.000000 0.258822
vn 0.965925 -0.000000 0.258822
vn 0.965925 -0.000000 0.258822
vn 0.965925 -0.000000 0.258822
vn 0.965925 -0.000000 0.258822
vn 0.897791 -0.368918 0.240565
vn 0.897791 -0.368918 0.240565
vn -0.046931 -0.998879 -0.006181
vn -0.046931 -0.998879 -0.006181
vn -0.046931 -0.998879 -0.006181
vn -0.046931 -0.998879 -0.006181
vn -0.046932 0.998879 -0.006177
vn -0.046932 0.998879 -0.006177
vn -0.046932 0.998879 -0.006177
vn -0.046932 0.998879 -0.006177
f 1/1/1 2/2/2 3/3/3
f 4/4/4 5/5/5 6/6/6
f 7/7/7 8/8/8 9/9/9
f 9/9/9 10/10/10 7/7/7
f 10/10/10 11/11/11 7/7/7
f 10/10/10 12/12/12 11/11/11
f 13/13/13 14/14/14 15/15/15
f 13/13/13 16/16/16 14/14/14
f 17/17/17 18/18/18 19/19/19
f 17/17/17 20/20/20 18/18/18
f 18/18/18 20/20/20 21/21/21
f 18/18/18 21/21/21 22/22/22
f 23/23/23 17/17/17 24/24/24
f 25/25/25 23/23/23 24/24/24
f 26/26/26 23/23/23 25/25/25
f 26/26/26 27/27/27 23/23/23
f 28/28/28 25/25/25 24/24/24
f 29/29/29 28/28/28 24/24/24
f 29/29/29 24/24/24 30/30/30
f 29/29/29 31/31/31 27/27/27
f 30/30/30 32/32/32 29/29/29
f 32/32/32 31/31/31 29/29/29
f 32/32/32 33/33/33 31/31/31
f 32/32/32 34/34/34 33/33/33
f 35/35/35 33/33/33 34/34/34
f 35/35/35 36/36/36 33/33/33
f 37/37/37 38/38/38 39/39/39
f 40/40/40 37/37/37 39/39/39
f 40/40/40 39/39/39 41/41/41
f 42/42/42 40/40/40 41/41/41
f 42/42/42 41/41/41 43/43/43
f 43/43/43 44/44/44 42/42/42
f 45/45/45 46/46/46 47/47/47
f 45/45/45 47/47/47 48/48/48
f 49/49/49 50/50/50 51/51/51
f 49/49/49 51/51/51 52/52/52
f 53/53/53 54/54/54 55/55/55
f 53/53/53 55/55/55 56/56/56
f 57/57/57 58/58/58 59/59/59
f 57/57/57 59/59/59 60/60/60
f 61/61/61 62/62/62 63/63/63
f 61/61/61 63/63/63 64/64/64
f 65/65/65 66/66/66 67/67/67
f 65/65/65 67/67/67 68/68/68
f 69/69/69 70/70/70 71/71/71
f 71/71/71 72/72/72 69/69/69
f 72/72/72 71/71/71 73/73/73
f 74/74/74 69/69/69 72/72/72
f 72/72/72 75/75/75 74/74/74
f 69/69/69 74/74/74 76/76/76
f 76/76/76 77/77/77 69/69/69
f 76/76/76 78/78/78 77/77/77
f 79/79/79 76/76/76 74/74/74
f 74/74/74 80/80/80 79/79/79
f 80/80/80 81/81/81 79/79/79
f 79/79/79 82/82/82 76/76/76
f 79/79/79 83/83/83 82/82/82
f 84/84/84 82/82/82 83/83/83
f 83/83/83 85/85/85 84/84/84
f 86/86/86 87/87/87 88/88/88
f 88/88/88 89/89/89 86/86/86
f 89/89/89 88/88/88 90/90/90
f 91/91/91 86/86/86 89/89/89
f 89/89/89 92/92/92 91/91/91
f 93/93/93 94/94/94 95/95/95
f 93/93/93 95/95/95 96/96/96
f 97/97/97 93/93/93 96/96/96
f 97/97/97 96/96/96 98/98/98
f 99/99/99 97/97/97 98/98/98
f 99/99/99 98/98/98 100/100/100
f 101/101/101 99/99/99 100/100/100
f 101/101/101 100/100/100 102/102/102
f 103/103/103 104/104/104 105/105/105
f 103/103/103 105/105/105 106/106/106
f 107/107/107 108/108/108 109/109/109
f 107/107/107 109/109/109 110/110/110
