# harp_backpack (gear rip -> Godot: Z negated + winding reversed)
v 0.102634 -0.198295 0.442322
v 0.102634 -0.248295 0.442322
v 0.175393 -0.248295 -0.435283
v 0.175393 -0.248295 -0.435283
v 0.175393 -0.198295 -0.435283
v 0.052824 -0.248295 0.437965
v 0.052824 -0.198295 0.437965
v 0.125584 -0.198295 -0.439641
v 0.052824 -0.248295 0.437965
v 0.125584 -0.198295 -0.439641
v 0.125584 -0.248295 -0.439641
v 0.042964 -0.229545 0.329956
v 0.030525 -0.229545 0.328697
v 0.088753 -0.229545 -0.373622
v 0.042964 -0.229545 0.329956
v 0.088753 -0.229545 -0.373622
v 0.101191 -0.229545 -0.372363
v 0.030525 -0.229545 0.328697
v 0.030525 -0.217045 0.328697
v 0.088753 -0.217045 -0.373622
v 0.030525 -0.229545 0.328697
v 0.088753 -0.217045 -0.373622
v 0.088753 -0.229545 -0.373622
v -0.006865 -0.229545 0.325825
v -0.019304 -0.229545 0.324566
v 0.038924 -0.229545 -0.377753
v -0.006865 -0.229545 0.325825
v 0.038924 -0.229545 -0.377753
v 0.051362 -0.229545 -0.376494
v -0.019304 -0.229545 0.324566
v -0.019304 -0.217045 0.324566
v 0.038924 -0.217045 -0.377753
v -0.019304 -0.229545 0.324566
v 0.038924 -0.217045 -0.377753
v 0.038924 -0.229545 -0.377753
v 0.018049 -0.229545 0.327891
v 0.005611 -0.229545 0.326631
v 0.063838 -0.229545 -0.375688
v 0.018049 -0.229545 0.327891
v 0.063838 -0.229545 -0.375688
v 0.076277 -0.229545 -0.374428
v 0.005611 -0.229545 0.326631
v 0.005611 -0.217045 0.326631
v 0.063838 -0.217045 -0.375688
v 0.005611 -0.229545 0.326631
v 0.063838 -0.217045 -0.375688
v 0.063838 -0.229545 -0.375688
v -0.031780 -0.229545 0.323760
v -0.044218 -0.229545 0.322500
v 0.014009 -0.229545 -0.379819
v -0.031780 -0.229545 0.323760
v 0.014009 -0.229545 -0.379819
v 0.026447 -0.229545 -0.378559
v -0.044218 -0.229545 0.322500
v -0.044218 -0.217045 0.322500
v 0.014009 -0.217045 -0.379819
v -0.044218 -0.229545 0.322500
v 0.014009 -0.217045 -0.379819
v 0.014009 -0.229545 -0.379819
v -0.077402 -0.217045 0.268889
v -0.077402 -0.229545 0.268889
v -0.032773 -0.229545 -0.269416
v -0.032773 -0.229545 -0.269416
v -0.032773 -0.217045 -0.269416
v -0.089841 -0.229545 0.267630
v -0.089841 -0.217045 0.267630
v -0.045211 -0.217045 -0.270676
v -0.089841 -0.229545 0.267630
v -0.045211 -0.217045 -0.270676
v -0.045211 -0.229545 -0.270676
v -0.052488 -0.229545 0.270955
v -0.064926 -0.229545 0.269695
v -0.010905 -0.229545 -0.381884
v -0.052488 -0.229545 0.270955
v -0.010905 -0.229545 -0.381884
v 0.001533 -0.229545 -0.380625
v -0.064926 -0.229545 0.269695
v -0.064926 -0.217045 0.269695
v -0.010905 -0.217045 -0.381884
v -0.064926 -0.229545 0.269695
v -0.010905 -0.217045 -0.381884
v -0.010905 -0.229545 -0.381884
v -0.091844 -0.229545 0.140507
v -0.104283 -0.229545 0.139248
v -0.070126 -0.229545 -0.272741
v -0.091844 -0.229545 0.140507
v -0.070126 -0.229545 -0.272741
v -0.057687 -0.229545 -0.271482
v -0.104283 -0.217045 0.139248
v -0.091844 -0.217045 0.140507
v -0.057687 -0.217045 -0.271482
v -0.104283 -0.217045 0.139248
v -0.057687 -0.217045 -0.271482
v -0.070126 -0.217045 -0.272741
v -0.141673 -0.229545 0.136376
v -0.154112 -0.229545 0.135117
v -0.124291 -0.229545 -0.224564
v -0.141673 -0.229545 0.136376
v -0.124291 -0.229545 -0.224564
v -0.111853 -0.229545 -0.223304
v -0.154112 -0.217045 0.135117
v -0.141673 -0.217045 0.136376
v -0.111853 -0.217045 -0.223304
v -0.154112 -0.217045 0.135117
v -0.111853 -0.217045 -0.223304
v -0.124291 -0.217045 -0.224564
v -0.166588 -0.229545 0.134310
v -0.179026 -0.229545 0.133051
v -0.149206 -0.229545 -0.226629
v -0.166588 -0.229545 0.134310
v -0.149206 -0.229545 -0.226629
v -0.136768 -0.229545 -0.225370
v -0.179026 -0.217045 0.133051
v -0.166588 -0.217045 0.134310
v -0.136768 -0.217045 -0.225370
v -0.179026 -0.217045 0.133051
v -0.136768 -0.217045 -0.225370
v -0.149206 -0.217045 -0.226629
v -0.181985 -0.229545 0.017454
v -0.194424 -0.229545 0.016195
v -0.174121 -0.229545 -0.228695
v -0.181985 -0.229545 0.017454
v -0.174121 -0.229545 -0.228695
v -0.161682 -0.229545 -0.227436
v -0.194424 -0.217045 0.016195
v -0.181985 -0.217045 0.017454
v -0.161682 -0.217045 -0.227436
v -0.194424 -0.217045 0.016195
v -0.161682 -0.217045 -0.227436
v -0.174121 -0.217045 -0.228695
v -0.206900 -0.229545 0.015388
v -0.219338 -0.229545 0.014129
v -0.199035 -0.229545 -0.230761
v -0.206900 -0.229545 0.015388
v -0.199035 -0.229545 -0.230761
v -0.186597 -0.229545 -0.229501
v -0.219338 -0.217045 0.014129
v -0.206900 -0.217045 0.015388
v -0.186597 -0.217045 -0.229501
v -0.219338 -0.217045 0.014129
v -0.186597 -0.217045 -0.229501
v -0.199035 -0.217045 -0.230761
v -0.231814 -0.229545 0.013323
v -0.244253 -0.229545 0.012063
v -0.223950 -0.229545 -0.232826
v -0.231814 -0.229545 0.013323
v -0.223950 -0.229545 -0.232826
v -0.211511 -0.229545 -0.231567
v -0.244253 -0.217045 0.012063
v -0.231814 -0.217045 0.013323
v -0.211511 -0.217045 -0.231567
v -0.244253 -0.217045 0.012063
v -0.211511 -0.217045 -0.231567
v -0.223950 -0.217045 -0.232826
v -0.256729 -0.217045 0.011257
v -0.256729 -0.229545 0.011257
v -0.236426 -0.229545 -0.233632
v -0.236426 -0.229545 -0.233632
v -0.236426 -0.217045 -0.233632
v -0.269167 -0.229545 0.009998
v -0.269167 -0.217045 0.009998
v -0.248864 -0.217045 -0.234892
v -0.269167 -0.229545 0.009998
v -0.248864 -0.217045 -0.234892
v -0.248864 -0.229545 -0.234892
v 0.118535 -0.160795 0.471393
v 0.118535 -0.285795 0.471393
v 0.118535 -0.285795 0.408893
v 0.118535 -0.160795 0.408893
v 0.118535 -0.285795 0.471393
v -0.006465 -0.285795 0.471393
v -0.006465 -0.285795 0.408893
v 0.118535 -0.285795 0.408893
v -0.006465 -0.285795 0.471393
v -0.006465 -0.160795 0.471393
v -0.006465 -0.160795 0.408893
v -0.006465 -0.285795 0.408893
v -0.006465 -0.160795 0.471393
v 0.118535 -0.160795 0.471393
v 0.118535 -0.160795 0.408893
v -0.006465 -0.160795 0.408893
v 0.118535 -0.285795 0.471393
v 0.118535 -0.160795 0.471393
v -0.006465 -0.160795 0.471393
v -0.006465 -0.285795 0.471393
v 0.118535 -0.160795 0.408893
v -0.301511 -0.160795 -0.191107
v -0.426511 -0.160795 -0.191107
v -0.006465 -0.160795 0.408893
v -0.426511 -0.160795 -0.191107
v -0.401511 -0.160795 -0.266107
v -0.401511 -0.285795 -0.266107
v -0.426511 -0.285795 -0.191107
v -0.006465 -0.285795 0.408893
v -0.426511 -0.285795 -0.191107
v -0.301511 -0.285795 -0.191107
v 0.118535 -0.285795 0.408893
v -0.006465 -0.160795 0.408893
v -0.426511 -0.160795 -0.191107
v -0.426511 -0.285795 -0.191107
v -0.006465 -0.285795 0.408893
v 0.118535 -0.285795 0.408893
v -0.301511 -0.285795 -0.191107
v -0.301511 -0.160795 -0.191107
v 0.118535 -0.160795 0.408893
v -0.401511 -0.285795 -0.266107
v -0.401511 -0.160795 -0.266107
v -0.301511 -0.160795 -0.291107
v -0.301511 -0.285795 -0.291107
v -0.202224 -0.160795 -0.167512
v -0.068965 -0.160795 -0.176574
v -0.093965 -0.160795 -0.244875
v -0.200798 -0.160795 -0.252574
v -0.301511 -0.160795 -0.191107
v -0.301511 -0.160795 -0.291107
v -0.401511 -0.160795 -0.266107
v -0.426511 -0.160795 -0.191107
v -0.426511 -0.285795 -0.191107
v -0.401511 -0.285795 -0.266107
v -0.301511 -0.285795 -0.291107
v -0.301511 -0.285795 -0.191107
v -0.068965 -0.160795 -0.176574
v 0.013058 -0.160795 -0.332378
v -0.039975 -0.160795 -0.385411
v -0.093965 -0.160795 -0.244875
v -0.200798 -0.160795 -0.252574
v -0.093965 -0.160795 -0.244875
v -0.093965 -0.285795 -0.244875
v -0.200797 -0.285795 -0.252574
v -0.200797 -0.285795 -0.252574
v -0.093965 -0.285795 -0.244875
v -0.068965 -0.285795 -0.176574
v -0.202224 -0.285795 -0.167512
v -0.202224 -0.285795 -0.167512
v -0.068965 -0.285795 -0.176574
v -0.068965 -0.160795 -0.176574
v -0.202224 -0.160795 -0.167512
v -0.039975 -0.285795 -0.385411
v 0.091644 -0.285795 -0.481097
v 0.091644 -0.285795 -0.381097
v 0.013058 -0.285795 -0.332378
v -0.068965 -0.285795 -0.176574
v 0.013058 -0.285795 -0.332378
v 0.013058 -0.160795 -0.332378
v -0.068965 -0.160795 -0.176574
v -0.093965 -0.285795 -0.244875
v -0.039975 -0.285795 -0.385411
v 0.013058 -0.285795 -0.332378
v -0.068965 -0.285795 -0.176574
v -0.093965 -0.160795 -0.244875
v -0.039975 -0.160795 -0.385411
v -0.039975 -0.285795 -0.385411
v -0.093965 -0.285795 -0.244875
v 0.091644 -0.160795 -0.381097
v 0.191644 -0.160795 -0.381097
v 0.191644 -0.160795 -0.481097
v 0.091644 -0.160795 -0.481097
v -0.039975 -0.160795 -0.385411
v 0.091644 -0.160795 -0.481097
v 0.091644 -0.285795 -0.481097
v -0.039975 -0.285795 -0.385411
v 0.013058 -0.160795 -0.332378
v 0.091644 -0.160795 -0.381097
v 0.091644 -0.160795 -0.481097
v -0.039975 -0.160795 -0.385411
v 0.013058 -0.285795 -0.332378
v 0.091644 -0.285795 -0.381097
v 0.091644 -0.160795 -0.381097
v 0.013058 -0.160795 -0.332378
v 0.191644 -0.285795 -0.381097
v 0.191644 -0.285795 -0.481097
v 0.191644 -0.160795 -0.481097
v 0.191644 -0.160795 -0.381097
v 0.091644 -0.285795 -0.381097
v 0.191644 -0.285795 -0.381097
v 0.191644 -0.160795 -0.381097
v 0.091644 -0.160795 -0.381097
v 0.091644 -0.285795 -0.481097
v 0.191644 -0.285795 -0.481097
v 0.191644 -0.285795 -0.381097
v 0.091644 -0.285795 -0.381097
v 0.091644 -0.160795 -0.481097
v 0.191644 -0.160795 -0.481097
v 0.191644 -0.285795 -0.481097
v 0.091644 -0.285795 -0.481097
v -0.301511 -0.285795 -0.191107
v -0.202224 -0.285795 -0.167512
v -0.202224 -0.160795 -0.167512
v -0.301511 -0.160795 -0.191107
v -0.301511 -0.285795 -0.291107
v -0.200797 -0.285795 -0.252574
v -0.202224 -0.285795 -0.167512
v -0.301511 -0.285795 -0.191107
v -0.301511 -0.160795 -0.291107
v -0.200798 -0.160795 -0.252574
v -0.200797 -0.285795 -0.252574
v -0.301511 -0.285795 -0.291107
v -0.301511 -0.160795 -0.191107
v -0.202224 -0.160795 -0.167512
v -0.200798 -0.160795 -0.252574
v -0.301511 -0.160795 -0.291107
v 0.102634 -0.248295 0.442322
v 0.052824 -0.248295 0.437965
v 0.125584 -0.248295 -0.439641
v 0.175393 -0.248295 -0.435283
v 0.052824 -0.198295 0.437965
v 0.102634 -0.198295 0.442322
v 0.175393 -0.198295 -0.435283
v 0.125584 -0.198295 -0.439641
v 0.042964 -0.217045 0.329956
v 0.042964 -0.229545 0.329956
v 0.101191 -0.229545 -0.372363
v 0.101191 -0.217045 -0.372363
v 0.030525 -0.217045 0.328697
v 0.042964 -0.217045 0.329956
v 0.101191 -0.217045 -0.372363
v 0.088753 -0.217045 -0.373622
v -0.006865 -0.217045 0.325825
v -0.006865 -0.229545 0.325825
v 0.051362 -0.229545 -0.376494
v 0.051362 -0.217045 -0.376494
v -0.019304 -0.217045 0.324566
v -0.006865 -0.217045 0.325825
v 0.051362 -0.217045 -0.376494
v 0.038924 -0.217045 -0.377753
v 0.018049 -0.217045 0.327891
v 0.018049 -0.229545 0.327891
v 0.076277 -0.229545 -0.374428
v 0.076277 -0.217045 -0.374428
v 0.005611 -0.217045 0.326631
v 0.018049 -0.217045 0.327891
v 0.076277 -0.217045 -0.374428
v 0.063838 -0.217045 -0.375688
v -0.031780 -0.217045 0.323760
v -0.031780 -0.229545 0.323760
v 0.026447 -0.229545 -0.378559
v 0.026447 -0.217045 -0.378559
v -0.044218 -0.217045 0.322500
v -0.031780 -0.217045 0.323760
v 0.026447 -0.217045 -0.378559
v 0.014009 -0.217045 -0.379819
v -0.077402 -0.229545 0.268889
v -0.089841 -0.229545 0.267630
v -0.045211 -0.229545 -0.270676
v -0.032773 -0.229545 -0.269416
v -0.089841 -0.217045 0.267630
v -0.077402 -0.217045 0.268889
v -0.032773 -0.217045 -0.269416
v -0.045211 -0.217045 -0.270676
v -0.052488 -0.217045 0.270955
v -0.052488 -0.229545 0.270955
v 0.001533 -0.229545 -0.380625
v 0.001533 -0.217045 -0.380625
v -0.064926 -0.217045 0.269695
v -0.052488 -0.217045 0.270955
v 0.001533 -0.217045 -0.380625
v -0.010905 -0.217045 -0.381884
v -0.091844 -0.217045 0.140507
v -0.091844 -0.229545 0.140507
v -0.057687 -0.229545 -0.271482
v -0.057687 -0.217045 -0.271482
v -0.104283 -0.229545 0.139248
v -0.104283 -0.217045 0.139248
v -0.070126 -0.217045 -0.272741
v -0.070126 -0.229545 -0.272741
v -0.116759 -0.217045 0.138442
v -0.116759 -0.229545 0.138442
v -0.086939 -0.229545 -0.221239
v -0.086939 -0.217045 -0.221239
v -0.116759 -0.229545 0.138442
v -0.129197 -0.229545 0.137182
v -0.099377 -0.229545 -0.222498
v -0.086939 -0.229545 -0.221239
v -0.129197 -0.229545 0.137182
v -0.129197 -0.217045 0.137182
v -0.099377 -0.217045 -0.222498
v -0.099377 -0.229545 -0.222498
v -0.129197 -0.217045 0.137182
v -0.116759 -0.217045 0.138442
v -0.086939 -0.217045 -0.221239
v -0.099377 -0.217045 -0.222498
v -0.141673 -0.217045 0.136376
v -0.141673 -0.229545 0.136376
v -0.111853 -0.229545 -0.223304
v -0.111853 -0.217045 -0.223304
v -0.154112 -0.229545 0.135117
v -0.154112 -0.217045 0.135117
v -0.124291 -0.217045 -0.224564
v -0.124291 -0.229545 -0.224564
v -0.166588 -0.217045 0.134310
v -0.166588 -0.229545 0.134310
v -0.136768 -0.229545 -0.225370
v -0.136768 -0.217045 -0.225370
v -0.179026 -0.229545 0.133051
v -0.179026 -0.217045 0.133051
v -0.149206 -0.217045 -0.226629
v -0.149206 -0.229545 -0.226629
v -0.181985 -0.217045 0.017454
v -0.181985 -0.229545 0.017454
v -0.161682 -0.229545 -0.227436
v -0.161682 -0.217045 -0.227436
v -0.194424 -0.229545 0.016195
v -0.194424 -0.217045 0.016195
v -0.174121 -0.217045 -0.228695
v -0.174121 -0.229545 -0.228695
v -0.206900 -0.217045 0.015388
v -0.206900 -0.229545 0.015388
v -0.186597 -0.229545 -0.229501
v -0.186597 -0.217045 -0.229501
v -0.219338 -0.229545 0.014129
v -0.219338 -0.217045 0.014129
v -0.199035 -0.217045 -0.230761
v -0.199035 -0.229545 -0.230761
v -0.231814 -0.217045 0.013323
v -0.231814 -0.229545 0.013323
v -0.211511 -0.229545 -0.231567
v -0.211511 -0.217045 -0.231567
v -0.244253 -0.229545 0.012063
v -0.244253 -0.217045 0.012063
v -0.223950 -0.217045 -0.232826
v -0.223950 -0.229545 -0.232826
v -0.256729 -0.229545 0.011257
v -0.269167 -0.229545 0.009998
v -0.248864 -0.229545 -0.234892
v -0.236426 -0.229545 -0.233632
v -0.269167 -0.217045 0.009998
v -0.256729 -0.217045 0.011257
v -0.236426 -0.217045 -0.233632
v -0.248864 -0.217045 -0.234892
vt 0.76753211 0.737809837
vt 0.763453007 0.731275737
vt 0.773821712 0.738351882
vt 0.773821712 0.738351882
vt 0.773821712 0.728592396
vt 0.771345854 0.728748202
vt 0.774752975 0.736247599
vt 0.767354488 0.731198192
vt 0.771345854 0.728748202
vt 0.767354488 0.731198192
vt 0.764415503 0.738904059
vt 0.260310739 0.188953817
vt 0.260665834 0.189818799
vt 0.259532452 0.188990295
vt 0.260310739 0.188953817
vt 0.259532452 0.188990295
vt 0.259532452 0.190019429
vt 0.260665834 0.189818799
vt 0.259729803 0.190107167
vt 0.260282576 0.189350545
vt 0.260665834 0.189818799
vt 0.260282576 0.189350545
vt 0.259532452 0.188990295
vt 0.260629117 0.192152083
vt 0.259764075 0.192507207
vt 0.26059261 0.191373765
vt 0.260629117 0.192152083
vt 0.26059261 0.191373765
vt 0.259563506 0.191373765
vt 0.259764075 0.192507207
vt 0.259475768 0.191571176
vt 0.260232359 0.19212395
vt 0.259764075 0.192507207
vt 0.260232359 0.19212395
vt 0.26059261 0.191373765
vt 0.260310739 0.192517102
vt 0.260665834 0.193382204
vt 0.259532452 0.192553639
vt 0.260310739 0.192517102
vt 0.259532452 0.192553639
vt 0.259532452 0.193582714
vt 0.260665834 0.193382204
vt 0.259729803 0.193670452
vt 0.260282576 0.19291389
vt 0.260665834 0.193382204
vt 0.260282576 0.19291389
vt 0.259532452 0.192553639
vt 0.260629117 0.190952122
vt 0.259764075 0.191307127
vt 0.26059261 0.190173805
vt 0.260629117 0.190952122
vt 0.26059261 0.190173805
vt 0.259563506 0.190173805
vt 0.259764075 0.191307127
vt 0.259475768 0.190371156
vt 0.260232359 0.19092387
vt 0.259764075 0.191307127
vt 0.260232359 0.19092387
vt 0.26059261 0.190173805
vt 0.26101175 0.19458884
vt 0.260595351 0.193940341
vt 0.261593401 0.194598675
vt 0.261593401 0.194598675
vt 0.261593401 0.193707407
vt 0.261379302 0.193680465
vt 0.261721253 0.19442898
vt 0.261002243 0.193954766
vt 0.261379302 0.193680465
vt 0.261002243 0.193954766
vt 0.260733128 0.194659173
vt 0.259475768 0.194021881
vt 0.260308385 0.193680465
vt 0.259508908 0.194772422
vt 0.259475768 0.194021881
vt 0.259508908 0.194772422
vt 0.260502309 0.194772422
vt 0.260308385 0.193680465
vt 0.260585368 0.194580972
vt 0.259856373 0.194048226
vt 0.260308385 0.193680465
vt 0.259856373 0.194048226
vt 0.259508908 0.194772422
vt 0.253924787 0.186401904
vt 0.253917933 0.186562717
vt 0.252825737 0.235473096
vt 0.253924787 0.186401904
vt 0.252825737 0.235473096
vt 0.252808154 0.235357106
vt 0.253921092 0.18660742
vt 0.253924787 0.186535895
vt 0.252835453 0.235321522
vt 0.253921092 0.18660742
vt 0.252835453 0.235321522
vt 0.252855182 0.235378087
vt 0.255936503 0.186545908
vt 0.255937278 0.186619341
vt 0.254949689 0.226588547
vt 0.255936503 0.186545908
vt 0.254949689 0.226588547
vt 0.25497359 0.226531684
vt 0.255943477 0.186571419
vt 0.255943477 0.186401904
vt 0.254999846 0.226571023
vt 0.255943477 0.186571419
vt 0.254999846 0.226571023
vt 0.254975557 0.226692021
vt 0.256940216 0.186545908
vt 0.25694102 0.186619341
vt 0.255953431 0.226588547
vt 0.256940216 0.186545908
vt 0.255953431 0.226588547
vt 0.255977273 0.226531684
vt 0.256947219 0.186571419
vt 0.256947219 0.186401904
vt 0.256003559 0.226571023
vt 0.256947219 0.186571419
vt 0.256003559 0.226571023
vt 0.25597927 0.226692021
vt 0.259465814 0.186401904
vt 0.259452045 0.186598957
vt 0.25867638 0.209369838
vt 0.259465814 0.186401904
vt 0.25867638 0.209369838
vt 0.258656293 0.209228575
vt 0.259458214 0.186657846
vt 0.259465814 0.186578155
vt 0.258687526 0.209183097
vt 0.259458214 0.186657846
vt 0.258687526 0.209183097
vt 0.258711725 0.209246159
vt 0.258634061 0.186577737
vt 0.258636087 0.186657846
vt 0.257807106 0.209248245
vt 0.258634061 0.186577737
vt 0.257807106 0.209248245
vt 0.257835627 0.20918709
vt 0.258646339 0.186599493
vt 0.258646339 0.186401904
vt 0.257863611 0.209234536
vt 0.258646339 0.186599493
vt 0.257863611 0.209234536
vt 0.257833749 0.20937413
vt 0.257784873 0.186577737
vt 0.25778687 0.186657786
vt 0.256957144 0.209247231
vt 0.257784873 0.186577737
vt 0.256957144 0.209247231
vt 0.256985664 0.209186018
vt 0.257797152 0.186599493
vt 0.257797152 0.186401904
vt 0.257013649 0.209233582
vt 0.257797152 0.186599493
vt 0.257013649 0.209233582
vt 0.256983787 0.209373116
vt 0.261109471 0.190187275
vt 0.261376858 0.190612853
vt 0.26070416 0.190156519
vt 0.26070416 0.190156519
vt 0.26070416 0.190783679
vt 0.260862082 0.190780938
vt 0.260639071 0.190287292
vt 0.261123776 0.190615952
vt 0.260862082 0.190780938
vt 0.261123776 0.190615952
vt 0.261313379 0.190117061
vt 0.241084442 0.702021897
vt 0.241084442 0.751103044
vt 0.290165603 0.751103044
vt 0.290165603 0.702021897
vt 0.241084442 0.702021897
vt 0.241084442 0.751103044
vt 0.290165603 0.751103044
vt 0.290165603 0.702021897
vt 0.241084442 0.702021897
vt 0.241084442 0.751103044
vt 0.290165603 0.751103044
vt 0.290165603 0.702021897
vt 0.241084442 0.702021897
vt 0.241084442 0.751103044
vt 0.290165603 0.751103044
vt 0.290165603 0.702021897
vt 0.241084442 0.702021897
vt 0.241084442 0.751103044
vt 0.290165603 0.751103044
vt 0.290165603 0.702021897
vt 0.241084442 0.702021897
vt 0.241084442 0.751103044
vt 0.290165603 0.751103044
vt 0.290165603 0.702021897
vt 0.241084442 0.702021897
vt 0.241084442 0.751103044
vt 0.290165603 0.751103044
vt 0.290165603 0.702021897
vt 0.241084442 0.702021897
vt 0.241084442 0.751103044
vt 0.290165603 0.751103044
vt 0.290165603 0.702021897
vt 0.241084442 0.702021897
vt 0.241084442 0.751103044
vt 0.290165603 0.751103044
vt 0.290165603 0.702021897
vt 0.737178147 0.100459456
vt 0.737178147 0.149540603
vt 0.786259294 0.149540603
vt 0.786259294 0.100459456
vt 0.241084442 0.702021897
vt 0.241084442 0.751103044
vt 0.290165603 0.751103044
vt 0.290165603 0.702021897
vt 0.241084442 0.702021897
vt 0.241084442 0.751103044
vt 0.290165603 0.751103044
vt 0.290165603 0.702021897
vt 0.241084442 0.702021897
vt 0.241084442 0.751103044
vt 0.290165603 0.751103044
vt 0.290165603 0.702021897
vt 0.241084442 0.702021897
vt 0.241084442 0.751103044
vt 0.290165603 0.751103044
vt 0.290165603 0.702021897
vt 0.241084442 0.702021897
vt 0.241084442 0.751103044
vt 0.290165603 0.751103044
vt 0.290165603 0.702021897
vt 0.241084442 0.702021897
vt 0.241084442 0.751103044
vt 0.290165603 0.751103044
vt 0.290165603 0.702021897
vt 0.241084442 0.702021897
vt 0.241084442 0.751103044
vt 0.290165603 0.751103044
vt 0.290165603 0.702021897
vt 0.737178147 0.100459456
vt 0.737178147 0.149540603
vt 0.786259294 0.149540603
vt 0.786259294 0.100459456
vt 0.241084442 0.702021897
vt 0.241084442 0.751103044
vt 0.290165603 0.751103044
vt 0.290165603 0.702021897
vt 0.737178147 0.100459456
vt 0.737178147 0.149540603
vt 0.786259294 0.149540603
vt 0.786259294 0.100459456
vt 0.241084442 0.702021897
vt 0.241084442 0.751103044
vt 0.290165603 0.751103044
vt 0.290165603 0.702021897
vt 0.241084442 0.702021897
vt 0.241084442 0.751103044
vt 0.290165603 0.751103044
vt 0.290165603 0.702021897
vt 0.241084442 0.702021897
vt 0.241084442 0.751103044
vt 0.290165603 0.751103044
vt 0.290165603 0.702021897
vt 0.241084442 0.702021897
vt 0.241084442 0.751103044
vt 0.290165603 0.751103044
vt 0.290165603 0.702021897
vt 0.241084442 0.702021897
vt 0.241084442 0.751103044
vt 0.290165603 0.751103044
vt 0.290165603 0.702021897
vt 0.737178147 0.100459456
vt 0.737178147 0.149540603
vt 0.786259294 0.149540603
vt 0.786259294 0.100459456
vt 0.241084442 0.702021897
vt 0.241084442 0.751103044
vt 0.290165603 0.751103044
vt 0.290165603 0.702021897
vt 0.737178147 0.100459456
vt 0.737178147 0.149540603
vt 0.786259294 0.149540603
vt 0.786259294 0.100459456
vt 0.241084442 0.702021897
vt 0.241084442 0.751103044
vt 0.290165603 0.751103044
vt 0.290165603 0.702021897
vt 0.241084442 0.702021897
vt 0.241084442 0.751103044
vt 0.290165603 0.751103044
vt 0.290165603 0.702021897
vt 0.737178147 0.100459456
vt 0.737178147 0.149540603
vt 0.786259294 0.149540603
vt 0.786259294 0.100459456
vt 0.241084442 0.702021897
vt 0.241084442 0.751103044
vt 0.290165603 0.751103044
vt 0.290165603 0.702021897
vt 0.241084442 0.702021897
vt 0.241084442 0.751103044
vt 0.290165603 0.751103044
vt 0.290165603 0.702021897
vt 0.241084442 0.702021897
vt 0.241084442 0.751103044
vt 0.290165603 0.751103044
vt 0.290165603 0.702021897
vt 0.763453007 0.731275737
vt 0.771345854 0.728748202
vt 0.764415503 0.738904059
vt 0.773821712 0.738351882
vt 0.774752975 0.736247599
vt 0.76753211 0.737809837
vt 0.773821712 0.728592396
vt 0.767354488 0.731198192
vt 0.259475768 0.18925792
vt 0.260310739 0.188953817
vt 0.259532452 0.190019429
vt 0.260496795 0.190003872
vt 0.259729803 0.190107167
vt 0.259475768 0.18925792
vt 0.260496795 0.190003872
vt 0.260282576 0.189350545
vt 0.260325015 0.191317141
vt 0.260629117 0.192152083
vt 0.259563506 0.191373765
vt 0.259579033 0.192338169
vt 0.259475768 0.191571176
vt 0.260325015 0.191317141
vt 0.259579033 0.192338169
vt 0.260232359 0.19212395
vt 0.259475768 0.192821264
vt 0.260310739 0.192517102
vt 0.259532452 0.193582714
vt 0.260496795 0.193567216
vt 0.259729803 0.193670452
vt 0.259475768 0.192821264
vt 0.260496795 0.193567216
vt 0.260282576 0.19291389
vt 0.260325015 0.190117061
vt 0.260629117 0.190952122
vt 0.259563506 0.190173805
vt 0.259579033 0.191138089
vt 0.259475768 0.190371156
vt 0.260325015 0.190117061
vt 0.259579033 0.191138089
vt 0.260232359 0.19092387
vt 0.260595351 0.193940341
vt 0.261379302 0.193680465
vt 0.260733128 0.194659173
vt 0.261593401 0.194598675
vt 0.261721253 0.19442898
vt 0.26101175 0.19458884
vt 0.261593401 0.193707407
vt 0.261002243 0.193954766
vt 0.259767622 0.194824874
vt 0.259475768 0.194021881
vt 0.260502309 0.194772422
vt 0.260487527 0.193841755
vt 0.260585368 0.194580972
vt 0.259767622 0.194824874
vt 0.260487527 0.193841755
vt 0.259856373 0.194048226
vt 0.253924787 0.186535895
vt 0.253924787 0.186401904
vt 0.252808154 0.235357106
vt 0.252835453 0.235321522
vt 0.253917933 0.186562717
vt 0.253921092 0.18660742
vt 0.252855182 0.235378087
vt 0.252825737 0.235473096
vt 0.254939765 0.186546087
vt 0.254939765 0.186401904
vt 0.253958642 0.226489961
vt 0.253984898 0.226529479
vt 0.254939765 0.186401904
vt 0.254931539 0.186571062
vt 0.253934741 0.226546824
vt 0.253958642 0.226489961
vt 0.254931539 0.186571062
vt 0.254935384 0.186619341
vt 0.25396052 0.226650298
vt 0.253934741 0.226546824
vt 0.254935384 0.186619341
vt 0.254939765 0.186546087
vt 0.253984898 0.226529479
vt 0.25396052 0.226650298
vt 0.255943477 0.186401904
vt 0.255936503 0.186545908
vt 0.25497359 0.226531684
vt 0.254999846 0.226571023
vt 0.255937278 0.186619341
vt 0.255943477 0.186571419
vt 0.254975557 0.226692021
vt 0.254949689 0.226588547
vt 0.256947219 0.186401904
vt 0.256940216 0.186545908
vt 0.255977273 0.226531684
vt 0.256003559 0.226571023
vt 0.25694102 0.186619341
vt 0.256947219 0.186571419
vt 0.25597927 0.226692021
vt 0.255953431 0.226588547
vt 0.259465814 0.186578155
vt 0.259465814 0.186401904
vt 0.258656293 0.209228575
vt 0.258687526 0.209183097
vt 0.259452045 0.186598957
vt 0.259458214 0.186657846
vt 0.258711725 0.209246159
vt 0.25867638 0.209369838
vt 0.258646339 0.186401904
vt 0.258634061 0.186577737
vt 0.257835627 0.20918709
vt 0.257863611 0.209234536
vt 0.258636087 0.186657846
vt 0.258646339 0.186599493
vt 0.257833749 0.20937413
vt 0.257807106 0.209248245
vt 0.257797152 0.186401904
vt 0.257784873 0.186577737
vt 0.256985664 0.209186018
vt 0.257013649 0.209233582
vt 0.25778687 0.186657786
vt 0.257797152 0.186599493
vt 0.256983787 0.209373116
vt 0.256957144 0.209247231
vt 0.261376858 0.190612853
vt 0.260862082 0.190780938
vt 0.261313379 0.190117061
vt 0.26070416 0.190156519
vt 0.260639071 0.190287292
vt 0.261109471 0.190187275
vt 0.26070416 0.190783679
vt 0.261123776 0.190615952
vn 0.996581 0.000000 0.082624
vn 0.996581 0.000000 0.082624
vn 0.996581 0.000000 0.082624
vn 0.996581 0.000000 0.082624
vn 0.996581 0.000000 0.082624
vn -0.996581 0.000000 -0.082624
vn -0.996581 0.000000 -0.082624
vn -0.996581 0.000000 -0.082624
vn -0.996581 0.000000 -0.082624
vn -0.996581 0.000000 -0.082624
vn -0.996581 0.000000 -0.082624
vn -0.000000 -1.000000 -0.000000
vn -0.000000 -1.000000 -0.000000
vn -0.000000 -1.000000 -0.000000
vn -0.000000 -1.000000 -0.000000
vn -0.000000 -1.000000 -0.000000
vn -0.000000 -1.000000 -0.000000
vn -0.996581 0.000000 -0.082624
vn -0.996581 0.000000 -0.082624
vn -0.996581 0.000000 -0.082624
vn -0.996581 0.000000 -0.082624
vn -0.996581 0.000000 -0.082624
vn -0.996581 0.000000 -0.082624
vn -0.000000 -1.000000 -0.000000
vn -0.000000 -1.000000 -0.000000
vn -0.000000 -1.000000 -0.000000
vn -0.000000 -1.000000 -0.000000
vn -0.000000 -1.000000 -0.000000
vn -0.000000 -1.000000 -0.000000
vn -0.996581 0.000000 -0.082624
vn -0.996581 0.000000 -0.082624
vn -0.996581 0.000000 -0.082624
vn -0.996581 0.000000 -0.082624
vn -0.996581 0.000000 -0.082624
vn -0.996581 0.000000 -0.082624
vn -0.000000 -1.000000 -0.000000
vn -0.000000 -1.000000 -0.000000
vn -0.000000 -1.000000 -0.000000
vn -0.000000 -1.000000 -0.000000
vn -0.000000 -1.000000 -0.000000
vn -0.000000 -1.000000 -0.000000
vn -0.996581 0.000000 -0.082624
vn -0.996581 0.000000 -0.082624
vn -0.996581 0.000000 -0.082624
vn -0.996581 0.000000 -0.082624
vn -0.996581 0.000000 -0.082624
vn -0.996581 0.000000 -0.082624
vn -0.000000 -1.000000 -0.000000
vn -0.000000 -1.000000 -0.000000
vn -0.000000 -1.000000 -0.000000
vn -0.000000 -1.000000 -0.000000
vn -0.000000 -1.000000 -0.000000
vn -0.000000 -1.000000 -0.000000
vn -0.996581 0.000000 -0.082624
vn -0.996581 0.000000 -0.082624
vn -0.996581 0.000000 -0.082624
vn -0.996581 0.000000 -0.082624
vn -0.996581 0.000000 -0.082624
vn -0.996581 0.000000 -0.082624
vn 0.996581 0.000000 0.082624
vn 0.996581 0.000000 0.082624
vn 0.996581 0.000000 0.082624
vn 0.996581 0.000000 0.082624
vn 0.996581 0.000000 0.082624
vn -0.996581 0.000000 -0.082624
vn -0.996581 0.000000 -0.082624
vn -0.996581 0.000000 -0.082624
vn -0.996581 0.000000 -0.082624
vn -0.996581 0.000000 -0.082624
vn -0.996581 0.000000 -0.082624
vn -0.000000 -1.000000 -0.000000
vn -0.000000 -1.000000 -0.000000
vn -0.000000 -1.000000 -0.000000
vn -0.000000 -1.000000 -0.000000
vn -0.000000 -1.000000 -0.000000
vn -0.000000 -1.000000 -0.000000
vn -0.996581 0.000000 -0.082624
vn -0.996581 0.000000 -0.082624
vn -0.996581 0.000000 -0.082624
vn -0.996581 0.000000 -0.082624
vn -0.996581 0.000000 -0.082624
vn -0.996581 0.000000 -0.082624
vn -0.000000 -1.000000 -0.000000
vn -0.000000 -1.000000 -0.000000
vn -0.000000 -1.000000 -0.000000
vn -0.000000 -1.000000 -0.000000
vn -0.000000 -1.000000 -0.000000
vn -0.000000 -1.000000 -0.000000
vn -0.000000 1.000000 -0.000000
vn -0.000000 1.000000 -0.000000
vn -0.000000 1.000000 -0.000000
vn -0.000000 1.000000 -0.000000
vn -0.000000 1.000000 -0.000000
vn -0.000000 1.000000 -0.000000
vn -0.000000 -1.000000 -0.000000
vn -0.000000 -1.000000 -0.000000
vn -0.000000 -1.000000 -0.000000
vn -0.000000 -1.000000 -0.000000
vn -0.000000 -1.000000 -0.000000
vn -0.000000 -1.000000 -0.000000
vn -0.000000 1.000000 -0.000000
vn -0.000000 1.000000 -0.000000
vn -0.000000 1.000000 -0.000000
vn -0.000000 1.000000 -0.000000
vn -0.000000 1.000000 -0.000000
vn -0.000000 1.000000 -0.000000
vn -0.000000 -1.000000 -0.000000
vn -0.000000 -1.000000 -0.000000
vn -0.000000 -1.000000 -0.000000
vn -0.000000 -1.000000 -0.000000
vn -0.000000 -1.000000 -0.000000
vn -0.000000 -1.000000 -0.000000
vn -0.000000 1.000000 -0.000000
vn -0.000000 1.000000 -0.000000
vn -0.000000 1.000000 -0.000000
vn -0.000000 1.000000 -0.000000
vn -0.000000 1.000000 -0.000000
vn -0.000000 1.000000 -0.000000
vn -0.000000 -1.000000 -0.000000
vn -0.000000 -1.000000 -0.000000
vn -0.000000 -1.000000 -0.000000
vn -0.000000 -1.000000 -0.000000
vn -0.000000 -1.000000 -0.000000
vn -0.000000 -1.000000 -0.000000
vn -0.000000 1.000000 -0.000000
vn -0.000000 1.000000 -0.000000
vn -0.000000 1.000000 -0.000000
vn -0.000000 1.000000 -0.000000
vn -0.000000 1.000000 -0.000000
vn -0.000000 1.000000 -0.000000
vn -0.000000 -1.000000 -0.000000
vn -0.000000 -1.000000 -0.000000
vn -0.000000 -1.000000 -0.000000
vn -0.000000 -1.000000 -0.000000
vn -0.000000 -1.000000 -0.000000
vn -0.000000 -1.000000 -0.000000
vn -0.000000 1.000000 -0.000000
vn -0.000000 1.000000 -0.000000
vn -0.000000 1.000000 -0.000000
vn -0.000000 1.000000 -0.000000
vn -0.000000 1.000000 -0.000000
vn -0.000000 1.000000 -0.000000
vn -0.000000 -1.000000 -0.000000
vn -0.000000 -1.000000 -0.000000
vn -0.000000 -1.000000 -0.000000
vn -0.000000 -1.000000 -0.000000
vn -0.000000 -1.000000 -0.000000
vn -0.000000 -1.000000 -0.000000
vn -0.000000 1.000000 -0.000000
vn -0.000000 1.000000 -0.000000
vn -0.000000 1.000000 -0.000000
vn -0.000000 1.000000 -0.000000
vn -0.000000 1.000000 -0.000000
vn -0.000000 1.000000 -0.000000
vn 0.996581 0.000000 0.082624
vn 0.996581 0.000000 0.082624
vn 0.996581 0.000000 0.082624
vn 0.996581 0.000000 0.082624
vn 0.996581 0.000000 0.082624
vn -0.996581 0.000000 -0.082624
vn -0.996581 0.000000 -0.082624
vn -0.996581 0.000000 -0.082624
vn -0.996581 0.000000 -0.082624
vn -0.996581 0.000000 -0.082624
vn -0.996581 0.000000 -0.082624
vn 1.000000 0.000000 -0.000000
vn 1.000000 0.000000 -0.000000
vn 0.953730 0.000000 -0.300664
vn 0.953730 0.000000 -0.300664
vn -0.000000 -1.000000 -0.000000
vn -0.000000 -1.000000 -0.000000
vn -0.000000 -1.000000 -0.000000
vn -0.000000 -1.000000 -0.000000
vn -1.000000 0.000000 -0.000000
vn -1.000000 0.000000 -0.000000
vn -0.953730 0.000000 0.300664
vn -0.953730 0.000000 0.300664
vn -0.000000 1.000000 -0.000000
vn -0.000000 1.000000 -0.000000
vn -0.000000 1.000000 -0.000000
vn -0.000000 1.000000 -0.000000
vn -0.000000 0.000000 1.000000
vn -0.000000 0.000000 1.000000
vn -0.000000 0.000000 1.000000
vn -0.000000 0.000000 1.000000
vn -0.000000 1.000000 -0.000000
vn -0.000000 1.000000 -0.000000
vn -0.000000 1.000000 -0.000000
vn -0.000000 1.000000 -0.000000
vn -0.948683 0.000000 -0.316228
vn -0.948683 0.000000 -0.316228
vn -0.948683 0.000000 -0.316228
vn -0.948683 0.000000 -0.316228
vn -0.000000 -1.000000 -0.000000
vn -0.000000 -1.000000 -0.000000
vn -0.000000 -1.000000 -0.000000
vn -0.000000 -1.000000 -0.000000
vn -0.953730 0.000000 0.300664
vn -0.819203 0.000000 0.573504
vn -0.819203 0.000000 0.573504
vn -0.953730 0.000000 0.300664
vn 0.953730 0.000000 -0.300664
vn 0.819203 0.000000 -0.573504
vn 0.819203 0.000000 -0.573504
vn 0.953730 0.000000 -0.300664
vn -0.242535 0.000000 -0.970143
vn -0.242535 0.000000 -0.970143
vn 0.060180 0.000000 -0.998187
vn 0.060180 0.000000 -0.998187
vn -0.000000 1.000000 -0.000000
vn -0.000000 1.000000 -0.000000
vn -0.000000 1.000000 -0.000000
vn -0.000000 1.000000 -0.000000
vn -0.000000 1.000000 -0.000000
vn -0.000000 1.000000 -0.000000
vn -0.000000 1.000000 -0.000000
vn -0.000000 1.000000 -0.000000
vn -0.000000 -1.000000 -0.000000
vn -0.000000 -1.000000 -0.000000
vn -0.000000 -1.000000 -0.000000
vn -0.000000 -1.000000 -0.000000
vn -0.000000 1.000000 -0.000000
vn -0.000000 1.000000 -0.000000
vn -0.000000 1.000000 -0.000000
vn -0.000000 1.000000 -0.000000
vn 0.216939 0.000000 -0.976185
vn 0.071881 0.000000 -0.997413
vn 0.071881 0.000000 -0.997413
vn 0.216939 0.000000 -0.976185
vn -0.000000 -1.000000 -0.000000
vn -0.000000 -1.000000 -0.000000
vn -0.000000 -1.000000 -0.000000
vn -0.000000 -1.000000 -0.000000
vn -0.082614 0.000000 0.996582
vn 0.067843 0.000000 0.997696
vn 0.067843 0.000000 0.997696
vn -0.082614 0.000000 0.996582
vn -0.000000 -1.000000 -0.000000
vn -0.000000 -1.000000 -0.000000
vn -0.000000 -1.000000 -0.000000
vn -0.000000 -1.000000 -0.000000
vn 0.884868 0.000000 0.465842
vn 0.731546 0.000000 0.681792
vn 0.731546 0.000000 0.681792
vn 0.884868 0.000000 0.465842
vn -0.000000 -1.000000 -0.000000
vn -0.000000 -1.000000 -0.000000
vn -0.000000 -1.000000 -0.000000
vn -0.000000 -1.000000 -0.000000
vn -0.933483 0.000000 -0.358622
vn -0.793361 0.000000 -0.608751
vn -0.793361 0.000000 -0.608751
vn -0.933483 0.000000 -0.358622
vn -0.000000 1.000000 -0.000000
vn -0.000000 1.000000 -0.000000
vn -0.000000 1.000000 -0.000000
vn -0.000000 1.000000 -0.000000
vn -0.793361 0.000000 -0.608751
vn -0.309159 0.000000 -0.951011
vn -0.309159 0.000000 -0.951011
vn -0.793361 0.000000 -0.608751
vn -0.000000 1.000000 -0.000000
vn -0.000000 1.000000 -0.000000
vn -0.000000 1.000000 -0.000000
vn -0.000000 1.000000 -0.000000
vn 0.731546 0.000000 0.681792
vn 0.273934 0.000000 0.961748
vn 0.273934 0.000000 0.961748
vn 0.731546 0.000000 0.681792
vn 1.000000 0.000000 -0.000000
vn 1.000000 0.000000 -0.000000
vn 1.000000 0.000000 -0.000000
vn 1.000000 0.000000 -0.000000
vn 0.273934 0.000000 0.961748
vn -0.000000 0.000000 1.000000
vn -0.000000 0.000000 1.000000
vn 0.273934 0.000000 0.961748
vn -0.000000 -1.000000 -0.000000
vn -0.000000 -1.000000 -0.000000
vn -0.000000 -1.000000 -0.000000
vn -0.000000 -1.000000 -0.000000
vn -0.309159 0.000000 -0.951011
vn -0.000000 0.000000 -1.000000
vn -0.000000 0.000000 -1.000000
vn -0.309159 0.000000 -0.951011
vn -0.231201 0.000000 0.972906
vn -0.082614 0.000000 0.996582
vn -0.082614 0.000000 0.996582
vn -0.231201 0.000000 0.972906
vn -0.000000 -1.000000 -0.000000
vn -0.000000 -1.000000 -0.000000
vn -0.000000 -1.000000 -0.000000
vn -0.000000 -1.000000 -0.000000
vn 0.060180 0.000000 -0.998187
vn 0.216939 0.000000 -0.976185
vn 0.216939 0.000000 -0.976185
vn 0.060180 0.000000 -0.998187
vn -0.000000 1.000000 -0.000000
vn -0.000000 1.000000 -0.000000
vn -0.000000 1.000000 -0.000000
vn -0.000000 1.000000 -0.000000
vn -0.000000 -1.000000 -0.000000
vn -0.000000 -1.000000 -0.000000
vn -0.000000 -1.000000 -0.000000
vn -0.000000 -1.000000 -0.000000
vn -0.000000 1.000000 -0.000000
vn -0.000000 1.000000 -0.000000
vn -0.000000 1.000000 -0.000000
vn -0.000000 1.000000 -0.000000
vn 0.996581 0.000000 0.082624
vn 0.996581 0.000000 0.082624
vn 0.996581 0.000000 0.082624
vn 0.996581 0.000000 0.082624
vn -0.000000 1.000000 -0.000000
vn -0.000000 1.000000 -0.000000
vn -0.000000 1.000000 -0.000000
vn -0.000000 1.000000 -0.000000
vn 0.996581 0.000000 0.082624
vn 0.996581 0.000000 0.082624
vn 0.996581 0.000000 0.082624
vn 0.996581 0.000000 0.082624
vn -0.000000 1.000000 -0.000000
vn -0.000000 1.000000 -0.000000
vn -0.000000 1.000000 -0.000000
vn -0.000000 1.000000 -0.000000
vn 0.996581 0.000000 0.082624
vn 0.996581 0.000000 0.082624
vn 0.996581 0.000000 0.082624
vn 0.996581 0.000000 0.082624
vn -0.000000 1.000000 -0.000000
vn -0.000000 1.000000 -0.000000
vn -0.000000 1.000000 -0.000000
vn -0.000000 1.000000 -0.000000
vn 0.996581 0.000000 0.082624
vn 0.996581 0.000000 0.082624
vn 0.996581 0.000000 0.082624
vn 0.996581 0.000000 0.082624
vn -0.000000 1.000000 -0.000000
vn -0.000000 1.000000 -0.000000
vn -0.000000 1.000000 -0.000000
vn -0.000000 1.000000 -0.000000
vn -0.000000 -1.000000 -0.000000
vn -0.000000 -1.000000 -0.000000
vn -0.000000 -1.000000 -0.000000
vn -0.000000 -1.000000 -0.000000
vn -0.000000 1.000000 -0.000000
vn -0.000000 1.000000 -0.000000
vn -0.000000 1.000000 -0.000000
vn -0.000000 1.000000 -0.000000
vn 0.996581 0.000000 0.082624
vn 0.996581 0.000000 0.082624
vn 0.996581 0.000000 0.082624
vn 0.996581 0.000000 0.082624
vn -0.000000 1.000000 -0.000000
vn -0.000000 1.000000 -0.000000
vn -0.000000 1.000000 -0.000000
vn -0.000000 1.000000 -0.000000
vn 0.996581 0.000000 0.082624
vn 0.996581 0.000000 0.082624
vn 0.996581 0.000000 0.082624
vn 0.996581 0.000000 0.082624
vn -0.996581 0.000000 -0.082624
vn -0.996581 0.000000 -0.082624
vn -0.996581 0.000000 -0.082624
vn -0.996581 0.000000 -0.082624
vn 0.996581 0.000000 0.082624
vn 0.996581 0.000000 0.082624
vn 0.996581 0.000000 0.082624
vn 0.996581 0.000000 0.082624
vn -0.000000 -1.000000 -0.000000
vn -0.000000 -1.000000 -0.000000
vn -0.000000 -1.000000 -0.000000
vn -0.000000 -1.000000 -0.000000
vn -0.996581 0.000000 -0.082624
vn -0.996581 0.000000 -0.082624
vn -0.996581 0.000000 -0.082624
vn -0.996581 0.000000 -0.082624
vn -0.000000 1.000000 -0.000000
vn -0.000000 1.000000 -0.000000
vn -0.000000 1.000000 -0.000000
vn -0.000000 1.000000 -0.000000
vn 0.996581 0.000000 0.082624
vn 0.996581 0.000000 0.082624
vn 0.996581 0.000000 0.082624
vn 0.996581 0.000000 0.082624
vn -0.996581 0.000000 -0.082624
vn -0.996581 0.000000 -0.082624
vn -0.996581 0.000000 -0.082624
vn -0.996581 0.000000 -0.082624
vn 0.996581 0.000000 0.082624
vn 0.996581 0.000000 0.082624
vn 0.996581 0.000000 0.082624
vn 0.996581 0.000000 0.082624
vn -0.996581 0.000000 -0.082624
vn -0.996581 0.000000 -0.082624
vn -0.996581 0.000000 -0.082624
vn -0.996581 0.000000 -0.082624
vn 0.996581 0.000000 0.082624
vn 0.996581 0.000000 0.082624
vn 0.996581 0.000000 0.082624
vn 0.996581 0.000000 0.082624
vn -0.996581 0.000000 -0.082624
vn -0.996581 0.000000 -0.082624
vn -0.996581 0.000000 -0.082624
vn -0.996581 0.000000 -0.082624
vn 0.996581 0.000000 0.082624
vn 0.996581 0.000000 0.082624
vn 0.996581 0.000000 0.082624
vn 0.996581 0.000000 0.082624
vn -0.996581 0.000000 -0.082624
vn -0.996581 0.000000 -0.082624
vn -0.996581 0.000000 -0.082624
vn -0.996581 0.000000 -0.082624
vn 0.996581 0.000000 0.082624
vn 0.996581 0.000000 0.082624
vn 0.996581 0.000000 0.082624
vn 0.996581 0.000000 0.082624
vn -0.996581 0.000000 -0.082624
vn -0.996581 0.000000 -0.082624
vn -0.996581 0.000000 -0.082624
vn -0.996581 0.000000 -0.082624
vn -0.000000 -1.000000 -0.000000
vn -0.000000 -1.000000 -0.000000
vn -0.000000 -1.000000 -0.000000
vn -0.000000 -1.000000 -0.000000
vn -0.000000 1.000000 -0.000000
vn -0.000000 1.000000 -0.000000
vn -0.000000 1.000000 -0.000000
vn -0.000000 1.000000 -0.000000
f 1/1/1 2/2/2 3/3/3
f 1/1/1 4/4/4 5/5/5
f 6/6/6 7/7/7 8/8/8
f 9/9/9 10/10/10 11/11/11
f 12/12/12 13/13/13 14/14/14
f 15/15/15 16/16/16 17/17/17
f 18/18/18 19/19/19 20/20/20
f 21/21/21 22/22/22 23/23/23
f 24/24/24 25/25/25 26/26/26
f 27/27/27 28/28/28 29/29/29
f 30/30/30 31/31/31 32/32/32
f 33/33/33 34/34/34 35/35/35
f 36/36/36 37/37/37 38/38/38
f 39/39/39 40/40/40 41/41/41
f 42/42/42 43/43/43 44/44/44
f 45/45/45 46/46/46 47/47/47
f 48/48/48 49/49/49 50/50/50
f 51/51/51 52/52/52 53/53/53
f 54/54/54 55/55/55 56/56/56
f 57/57/57 58/58/58 59/59/59
f 60/60/60 61/61/61 62/62/62
f 60/60/60 63/63/63 64/64/64
f 65/65/65 66/66/66 67/67/67
f 68/68/68 69/69/69 70/70/70
f 71/71/71 72/72/72 73/73/73
f 74/74/74 75/75/75 76/76/76
f 77/77/77 78/78/78 79/79/79
f 80/80/80 81/81/81 82/82/82
f 83/83/83 84/84/84 85/85/85
f 86/86/86 87/87/87 88/88/88
f 89/89/89 90/90/90 91/91/91
f 92/92/92 93/93/93 94/94/94
f 95/95/95 96/96/96 97/97/97
f 98/98/98 99/99/99 100/100/100
f 101/101/101 102/102/102 103/103/103
f 104/104/104 105/105/105 106/106/106
f 107/107/107 108/108/108 109/109/109
f 110/110/110 111/111/111 112/112/112
f 113/113/113 114/114/114 115/115/115
f 116/116/116 117/117/117 118/118/118
f 119/119/119 120/120/120 121/121/121
f 122/122/122 123/123/123 124/124/124
f 125/125/125 126/126/126 127/127/127
f 128/128/128 129/129/129 130/130/130
f 131/131/131 132/132/132 133/133/133
f 134/134/134 135/135/135 136/136/136
f 137/137/137 138/138/138 139/139/139
f 140/140/140 141/141/141 142/142/142
f 143/143/143 144/144/144 145/145/145
f 146/146/146 147/147/147 148/148/148
f 149/149/149 150/150/150 151/151/151
f 152/152/152 153/153/153 154/154/154
f 155/155/155 156/156/156 157/157/157
f 155/155/155 158/158/158 159/159/159
f 160/160/160 161/161/161 162/162/162
f 163/163/163 164/164/164 165/165/165
f 166/166/166 167/167/167 168/168/168
f 166/166/166 168/168/168 169/169/169
f 170/170/170 171/171/171 172/172/172
f 170/170/170 172/172/172 173/173/173
f 174/174/174 175/175/175 176/176/176
f 174/174/174 176/176/176 177/177/177
f 178/178/178 179/179/179 180/180/180
f 178/178/178 180/180/180 181/181/181
f 182/182/182 183/183/183 184/184/184
f 182/182/182 184/184/184 185/185/185
f 186/186/186 187/187/187 188/188/188
f 186/186/186 188/188/188 189/189/189
f 190/190/190 191/191/191 192/192/192
f 190/190/190 192/192/192 193/193/193
f 194/194/194 195/195/195 196/196/196
f 194/194/194 196/196/196 197/197/197
f 198/198/198 199/199/199 200/200/200
f 198/198/198 200/200/200 201/201/201
f 202/202/202 203/203/203 204/204/204
f 202/202/202 204/204/204 205/205/205
f 206/206/206 207/207/207 208/208/208
f 206/206/206 208/208/208 209/209/209
f 210/210/210 211/211/211 212/212/212
f 210/210/210 212/212/212 213/213/213
f 214/214/214 215/215/215 216/216/216
f 214/214/214 216/216/216 217/217/217
f 218/218/218 219/219/219 220/220/220
f 218/218/218 220/220/220 221/221/221
f 222/222/222 223/223/223 224/224/224
f 222/222/222 224/224/224 225/225/225
f 226/226/226 227/227/227 228/228/228
f 226/226/226 228/228/228 229/229/229
f 230/230/230 231/231/231 232/232/232
f 230/230/230 232/232/232 233/233/233
f 234/234/234 235/235/235 236/236/236
f 234/234/234 236/236/236 237/237/237
f 238/238/238 239/239/239 240/240/240
f 238/238/238 240/240/240 241/241/241
f 242/242/242 243/243/243 244/244/244
f 242/242/242 244/244/244 245/245/245
f 246/246/246 247/247/247 248/248/248
f 246/246/246 248/248/248 249/249/249
f 250/250/250 251/251/251 252/252/252
f 250/250/250 252/252/252 253/253/253
f 254/254/254 255/255/255 256/256/256
f 254/254/254 256/256/256 257/257/257
f 258/258/258 259/259/259 260/260/260
f 258/258/258 260/260/260 261/261/261
f 262/262/262 263/263/263 264/264/264
f 262/262/262 264/264/264 265/265/265
f 266/266/266 267/267/267 268/268/268
f 266/266/266 268/268/268 269/269/269
f 270/270/270 271/271/271 272/272/272
f 270/270/270 272/272/272 273/273/273
f 274/274/274 275/275/275 276/276/276
f 274/274/274 276/276/276 277/277/277
f 278/278/278 279/279/279 280/280/280
f 278/278/278 280/280/280 281/281/281
f 282/282/282 283/283/283 284/284/284
f 282/282/282 284/284/284 285/285/285
f 286/286/286 287/287/287 288/288/288
f 286/286/286 288/288/288 289/289/289
f 290/290/290 291/291/291 292/292/292
f 290/290/290 292/292/292 293/293/293
f 294/294/294 295/295/295 296/296/296
f 294/294/294 296/296/296 297/297/297
f 298/298/298 299/299/299 300/300/300
f 298/298/298 300/300/300 301/301/301
f 302/302/302 303/303/303 304/304/304
f 302/302/302 304/304/304 305/305/305
f 306/306/306 307/307/307 308/308/308
f 306/306/306 308/308/308 309/309/309
f 310/310/310 311/311/311 312/312/312
f 310/310/310 312/312/312 313/313/313
f 314/314/314 315/315/315 316/316/316
f 314/314/314 316/316/316 317/317/317
f 318/318/318 319/319/319 320/320/320
f 318/318/318 320/320/320 321/321/321
f 322/322/322 323/323/323 324/324/324
f 322/322/322 324/324/324 325/325/325
f 326/326/326 327/327/327 328/328/328
f 326/326/326 328/328/328 329/329/329
f 330/330/330 331/331/331 332/332/332
f 330/330/330 332/332/332 333/333/333
f 334/334/334 335/335/335 336/336/336
f 334/334/334 336/336/336 337/337/337
f 338/338/338 339/339/339 340/340/340
f 338/338/338 340/340/340 341/341/341
f 342/342/342 343/343/343 344/344/344
f 342/342/342 344/344/344 345/345/345
f 346/346/346 347/347/347 348/348/348
f 346/346/346 348/348/348 349/349/349
f 350/350/350 351/351/351 352/352/352
f 350/350/350 352/352/352 353/353/353
f 354/354/354 355/355/355 356/356/356
f 354/354/354 356/356/356 357/357/357
f 358/358/358 359/359/359 360/360/360
f 358/358/358 360/360/360 361/361/361
f 362/362/362 363/363/363 364/364/364
f 362/362/362 364/364/364 365/365/365
f 366/366/366 367/367/367 368/368/368
f 366/366/366 368/368/368 369/369/369
f 370/370/370 371/371/371 372/372/372
f 370/370/370 372/372/372 373/373/373
f 374/374/374 375/375/375 376/376/376
f 374/374/374 376/376/376 377/377/377
f 378/378/378 379/379/379 380/380/380
f 378/378/378 380/380/380 381/381/381
f 382/382/382 383/383/383 384/384/384
f 382/382/382 384/384/384 385/385/385
f 386/386/386 387/387/387 388/388/388
f 386/386/386 388/388/388 389/389/389
f 390/390/390 391/391/391 392/392/392
f 390/390/390 392/392/392 393/393/393
f 394/394/394 395/395/395 396/396/396
f 394/394/394 396/396/396 397/397/397
f 398/398/398 399/399/399 400/400/400
f 398/398/398 400/400/400 401/401/401
f 402/402/402 403/403/403 404/404/404
f 402/402/402 404/404/404 405/405/405
f 406/406/406 407/407/407 408/408/408
f 406/406/406 408/408/408 409/409/409
f 410/410/410 411/411/411 412/412/412
f 410/410/410 412/412/412 413/413/413
f 414/414/414 415/415/415 416/416/416
f 414/414/414 416/416/416 417/417/417
f 418/418/418 419/419/419 420/420/420
f 418/418/418 420/420/420 421/421/421
f 422/422/422 423/423/423 424/424/424
f 422/422/422 424/424/424 425/425/425
f 426/426/426 427/427/427 428/428/428
f 426/426/426 428/428/428 429/429/429
