# hat_aprix_hat (gear rip -> Godot: Z negated + winding reversed)
v -0.697423 0.070488 -0.197527
v -0.822933 0.070488 -0.186126
v -0.774312 0.070488 0.146509
v -0.822933 -0.063816 -0.186126
v -0.697423 -0.063816 -0.197527
v -0.774312 -0.063816 0.146510
v -0.571394 -0.232008 -0.227570
v -0.474787 -0.232008 0.227739
v -0.537287 -0.232008 0.227739
v -0.633894 -0.232008 -0.227570
v -0.537287 -0.232008 0.227739
v -0.474787 -0.232008 0.227739
v -0.474787 0.223301 0.227739
v -0.537287 0.223301 0.227739
v -0.537287 0.223301 0.227739
v -0.474787 0.223301 0.227739
v -0.571394 0.223301 -0.227570
v -0.633894 0.223301 -0.227570
v -0.633894 0.223301 -0.227570
v -0.571394 0.223301 -0.227570
v -0.571394 -0.232008 -0.227570
v -0.633894 -0.232008 -0.227570
v -0.474787 0.223301 0.227739
v -0.474787 -0.232008 0.227739
v -0.571394 -0.232008 -0.227570
v -0.571394 0.223301 -0.227570
v -0.537287 -0.232008 0.227739
v -0.537287 0.223301 0.227739
v -0.633894 0.223301 -0.227570
v -0.633894 -0.232008 -0.227570
v -0.617495 -0.222445 -0.218007
v -0.520888 -0.222445 0.218176
v -0.777419 -0.192007 0.175304
v -0.798807 -0.192007 -0.175134
v -0.777419 -0.192007 0.175304
v -0.520888 -0.222445 0.218176
v -0.520888 0.213738 0.218176
v -0.777419 0.183300 0.175304
v -0.777419 0.183300 0.175304
v -0.520888 0.213738 0.218176
v -0.617495 0.213738 -0.218007
v -0.798807 0.183300 -0.175134
v -0.798807 0.183300 -0.175134
v -0.617495 0.213738 -0.218007
v -0.617495 -0.222445 -0.218007
v -0.798807 -0.192007 -0.175134
v -0.777419 -0.192007 0.175304
v -0.777419 0.183300 0.175304
v -0.798807 0.183300 -0.175134
v -0.798807 -0.192007 -0.175134
v -0.691343 0.209889 0.063187
v -0.691343 -0.218596 0.063187
v -0.628134 -0.225220 0.036808
v -0.628134 0.216512 0.036809
v -0.601953 0.219256 -0.026874
v -0.601953 -0.227964 -0.026874
v -0.628134 -0.225220 -0.090557
v -0.628134 0.216512 -0.090557
v -0.691343 -0.218596 -0.116936
v -0.691343 0.209889 -0.116936
v -0.577333 -0.004354 0.109373
v -0.523079 -0.004353 -0.093105
v -0.664285 0.300549 -0.056875
v -0.682366 0.300549 0.010607
v -0.765743 0.383309 -0.077136
v -0.780363 0.383309 -0.022574
v -0.863951 0.415201 -0.053743
v -0.853718 0.415201 -0.091937
v -0.779811 -0.004354 0.055119
v -0.747548 0.282467 -0.006859
v -0.729466 0.282467 -0.074340
v -0.725557 -0.004353 -0.147359
v -0.729466 -0.291174 -0.074340
v -0.747548 -0.291175 -0.006859
v -0.888712 0.392305 -0.060378
v -0.863951 0.415201 -0.053743
v -0.853718 0.415201 -0.091937
v -0.878479 0.392305 -0.098572
v -0.878478 -0.401012 -0.098573
v -0.853717 -0.423908 -0.091938
v -0.863951 -0.423908 -0.053745
v -0.888712 -0.401012 -0.060380
v -0.780362 -0.392017 -0.022575
v -0.863951 -0.423908 -0.053745
v -0.853717 -0.423908 -0.091938
v -0.765742 -0.392016 -0.077138
v -0.664284 -0.309256 -0.056875
v -0.682366 -0.309256 0.010607
v -0.577333 -0.004354 0.109373
v -0.523079 -0.004353 -0.093105
v -0.654449 0.141162 0.212868
v -0.654449 -0.149869 0.212868
v -0.623023 -0.149869 0.130243
v -0.623023 0.141162 0.130243
v -0.737074 0.141162 0.181443
v -0.654449 0.141162 0.212868
v -0.623023 0.141162 0.130243
v -0.705649 0.141162 0.098818
v -0.737074 -0.149869 0.181443
v -0.654449 -0.149869 0.212868
v -0.654449 0.141162 0.212868
v -0.737074 0.141162 0.181443
v -0.705649 -0.149869 0.098817
v -0.623023 -0.149869 0.130243
v -0.654449 -0.149869 0.212868
v -0.737074 -0.149869 0.181443
v -0.585677 0.126610 0.222836
v -0.585677 -0.135318 0.222836
v -0.552214 -0.135318 0.157737
v -0.554252 0.126610 0.140210
v -0.585677 0.126610 0.222836
v -0.554252 0.126610 0.140210
v -0.636878 0.126610 0.108785
v -0.668303 0.126610 0.191410
v -0.668303 -0.135318 0.191410
v -0.585677 -0.135318 0.222836
v -0.585677 0.126610 0.222836
v -0.668303 0.126610 0.191410
v -0.631346 -0.135318 0.118335
v -0.552214 -0.135318 0.157737
v -0.585677 -0.135318 0.222836
v -0.668303 -0.135318 0.191410
v -0.822933 0.070488 -0.186126
v -0.697423 0.070488 -0.197527
v -0.697423 -0.063816 -0.197527
v -0.822933 -0.063816 -0.186126
v -0.774312 -0.063816 0.146510
v -0.774312 0.070488 0.146509
v -0.822933 0.070488 -0.186126
v -0.822933 -0.063816 -0.186126
v -0.712747 0.055244 -0.175382
v -0.715102 0.055244 -0.201229
v -0.786181 0.055244 -0.194751
v -0.783826 0.055244 -0.168904
v -0.792643 -0.022618 -0.194162
v -0.790288 -0.022618 -0.168315
v -0.770902 -0.022618 -0.170082
v -0.773258 -0.022618 -0.195929
v -0.747411 -0.048572 -0.198284
v -0.745056 -0.048572 -0.172437
v -0.818490 -0.048572 -0.191807
v -0.818490 0.055244 -0.191807
v -0.792643 0.029290 -0.194162
v -0.792643 -0.022618 -0.194162
v -0.773258 -0.022618 -0.195929
v -0.747411 -0.048572 -0.198284
v -0.786181 0.055244 -0.194751
v -0.740949 0.029290 -0.198873
v -0.760334 0.029290 -0.197106
v -0.715102 0.055244 -0.201229
v -0.740949 -0.022618 -0.198873
v -0.715102 -0.048572 -0.201228
v -0.712747 0.055244 -0.175382
v -0.712747 -0.048572 -0.175382
v -0.715102 -0.048572 -0.201228
v -0.715102 0.055244 -0.201229
v -0.818490 -0.048572 -0.191807
v -0.816134 -0.048572 -0.165960
v -0.816134 0.055244 -0.165960
v -0.818490 0.055244 -0.191807
v -0.790288 0.029290 -0.168315
v -0.790288 -0.022618 -0.168315
v -0.792643 -0.022618 -0.194162
v -0.792643 0.029290 -0.194162
v -0.816134 0.055244 -0.165960
v -0.818490 0.055244 -0.191807
v -0.816134 -0.048572 -0.165960
v -0.818490 -0.048572 -0.191807
v -0.747411 -0.048572 -0.198284
v -0.745056 -0.048572 -0.172437
v -0.853718 0.415201 -0.091937
v -0.801116 0.350601 -0.086614
v -0.878479 0.392305 -0.098572
v -0.765743 0.383309 -0.077136
v -0.729466 0.282467 -0.074340
v -0.664285 0.300549 -0.056875
v -0.725557 -0.004353 -0.147359
v -0.523079 -0.004353 -0.093105
v -0.664284 -0.309256 -0.056875
v -0.729466 -0.291174 -0.074340
v -0.765742 -0.392016 -0.077138
v -0.801115 -0.359308 -0.086616
v -0.853717 -0.423908 -0.091938
v -0.878478 -0.401012 -0.098573
v -0.691343 -0.218596 -0.116936
v -0.754551 0.203265 -0.090557
v -0.691343 0.209889 -0.116936
v -0.754551 -0.211972 -0.090557
v -0.780733 -0.209228 -0.026874
v -0.780733 0.200521 -0.026874
v -0.754551 0.203265 0.036809
v -0.754551 -0.211972 0.036808
v -0.691343 -0.218596 0.063187
v -0.691343 0.209889 0.063187
v -0.815736 0.350601 -0.032052
v -0.863951 0.415201 -0.053743
v -0.888712 0.392305 -0.060378
v -0.780363 0.383309 -0.022574
v -0.747548 0.282467 -0.006859
v -0.682366 0.300549 0.010607
v -0.779811 -0.004354 0.055119
v -0.577333 -0.004354 0.109373
v -0.682366 -0.309256 0.010607
v -0.747548 -0.291175 -0.006859
v -0.780362 -0.392017 -0.022575
v -0.815735 -0.359308 -0.032054
v -0.863951 -0.423908 -0.053745
v -0.888712 -0.401012 -0.060380
v -0.691343 0.209889 0.063187
v -0.628134 0.216512 0.036809
v -0.754551 0.203265 0.036809
v -0.780733 0.200521 -0.026874
v -0.601953 0.219256 -0.026874
v -0.628134 0.216512 -0.090557
v -0.754551 0.203265 -0.090557
v -0.691343 0.209889 -0.116936
v -0.754551 -0.211972 0.036808
v -0.628134 -0.225220 0.036808
v -0.691343 -0.218596 0.063187
v -0.601953 -0.227964 -0.026874
v -0.780733 -0.209228 -0.026874
v -0.628134 -0.225220 -0.090557
v -0.754551 -0.211972 -0.090557
v -0.691343 -0.218596 -0.116936
v -0.801116 0.350601 -0.086614
v -0.888712 0.392305 -0.060378
v -0.878479 0.392305 -0.098572
v -0.815736 0.350601 -0.032052
v -0.747548 0.282467 -0.006859
v -0.729466 0.282467 -0.074340
v -0.729466 -0.291174 -0.074340
v -0.815735 -0.359308 -0.032054
v -0.747548 -0.291175 -0.006859
v -0.801115 -0.359308 -0.086616
v -0.878478 -0.401012 -0.098573
v -0.888712 -0.401012 -0.060380
v -0.740949 -0.022618 -0.198873
v -0.738594 0.029290 -0.173026
v -0.740949 0.029290 -0.198873
v -0.738594 -0.022618 -0.173026
v -0.715102 -0.048572 -0.201228
v -0.712747 -0.048572 -0.175382
v -0.760334 0.029290 -0.197106
v -0.783826 0.055244 -0.168904
v -0.786181 0.055244 -0.194751
v -0.757979 0.029290 -0.171260
v -0.738594 0.029290 -0.173026
v -0.740949 0.029290 -0.198873
vt 0.234322682 0.765357554
vt 0.234322682 0.765357554
vt 0.234322682 0.765357554
vt 0.234322682 0.765357554
vt 0.234322682 0.765357554
vt 0.234322682 0.765357554
vt 0.23432 0.765357912
vt 0.23432 0.765357912
vt 0.23432 0.765357912
vt 0.23432 0.765357912
vt 0.23432 0.765357912
vt 0.23432 0.765357912
vt 0.23432 0.765357912
vt 0.23432 0.765357912
vt 0.23432 0.765357912
vt 0.23432 0.765357912
vt 0.23432 0.765357912
vt 0.23432 0.765357912
vt 0.23432 0.765357912
vt 0.23432 0.765357912
vt 0.23432 0.765357912
vt 0.23432 0.765357912
vt 0.23432 0.765357912
vt 0.23432 0.765357912
vt 0.23432 0.765357912
vt 0.23432 0.765357912
vt 0.23432 0.765357912
vt 0.23432 0.765357912
vt 0.23432 0.765357912
vt 0.23432 0.765357912
vt 0.758596301 0.766062498
vt 0.758596301 0.766062498
vt 0.758596301 0.766062498
vt 0.758596301 0.766062498
vt 0.758596301 0.766062498
vt 0.758596301 0.766062498
vt 0.758596301 0.766062498
vt 0.758596301 0.766062498
vt 0.758596301 0.766062498
vt 0.758596301 0.766062498
vt 0.758596301 0.766062498
vt 0.758596301 0.766062498
vt 0.758596301 0.766062498
vt 0.758596301 0.766062498
vt 0.758596301 0.766062498
vt 0.758596301 0.766062498
vt 0.758596301 0.766062498
vt 0.758596301 0.766062498
vt 0.758596301 0.766062498
vt 0.758596301 0.766062498
vt 0.23432 0.765357912
vt 0.23432 0.765357912
vt 0.23432 0.765357912
vt 0.23432 0.765357912
vt 0.23432 0.765357912
vt 0.23432 0.765357912
vt 0.23432 0.765357912
vt 0.23432 0.765357912
vt 0.23432 0.765357912
vt 0.23432 0.765357912
vt 0.754918039 0.258260906
vt 0.754918039 0.258260906
vt 0.754918039 0.258260906
vt 0.754918039 0.258260906
vt 0.754918039 0.258260906
vt 0.754918039 0.258260906
vt 0.754918039 0.258260906
vt 0.754918039 0.258260906
vt 0.754918039 0.258260906
vt 0.754918039 0.258260906
vt 0.754918039 0.258260906
vt 0.754918039 0.258260906
vt 0.754918039 0.258260906
vt 0.754918039 0.258260906
vt 0.754918039 0.258260906
vt 0.754918039 0.258260906
vt 0.754918039 0.258260906
vt 0.754918039 0.258260906
vt 0.754918039 0.258260906
vt 0.754918039 0.258260906
vt 0.754918039 0.258260906
vt 0.754918039 0.258260906
vt 0.754918039 0.258260906
vt 0.754918039 0.258260906
vt 0.754918039 0.258260906
vt 0.754918039 0.258260906
vt 0.754918039 0.258260906
vt 0.754918039 0.258260906
vt 0.754918039 0.258260906
vt 0.754918039 0.258260906
vt 0.23432 0.765357912
vt 0.23432 0.765357912
vt 0.23432 0.765357912
vt 0.23432 0.765357912
vt 0.23432 0.765357912
vt 0.23432 0.765357912
vt 0.23432 0.765357912
vt 0.23432 0.765357912
vt 0.23432 0.765357912
vt 0.23432 0.765357912
vt 0.23432 0.765357912
vt 0.23432 0.765357912
vt 0.23432 0.765357912
vt 0.23432 0.765357912
vt 0.23432 0.765357912
vt 0.23432 0.765357912
vt 0.23432 0.765357912
vt 0.23432 0.765357912
vt 0.23432 0.765357912
vt 0.23432 0.765357912
vt 0.23432 0.765357912
vt 0.23432 0.765357912
vt 0.23432 0.765357912
vt 0.23432 0.765357912
vt 0.23432 0.765357912
vt 0.23432 0.765357912
vt 0.23432 0.765357912
vt 0.23432 0.765357912
vt 0.23432 0.765357912
vt 0.23432 0.765357912
vt 0.23432 0.765357912
vt 0.23432 0.765357912
vt 0.234322682 0.765357554
vt 0.234322682 0.765357554
vt 0.234322682 0.765357554
vt 0.234322682 0.765357554
vt 0.234322682 0.765357554
vt 0.234322682 0.765357554
vt 0.234322682 0.765357554
vt 0.234322682 0.765357554
vt 0.758601069 0.76605773
vt 0.758601069 0.76605773
vt 0.758601069 0.76605773
vt 0.758601069 0.76605773
vt 0.758601069 0.76605773
vt 0.758601069 0.76605773
vt 0.758601069 0.76605773
vt 0.758601069 0.76605773
vt 0.758601069 0.76605773
vt 0.758601069 0.76605773
vt 0.758601069 0.76605773
vt 0.758601069 0.76605773
vt 0.758601069 0.76605773
vt 0.758601069 0.76605773
vt 0.758601069 0.76605773
vt 0.758601069 0.76605773
vt 0.758601069 0.76605773
vt 0.758601069 0.76605773
vt 0.758601069 0.76605773
vt 0.758601069 0.76605773
vt 0.758601069 0.76605773
vt 0.758601069 0.76605773
vt 0.758601069 0.76605773
vt 0.758601069 0.76605773
vt 0.758601069 0.76605773
vt 0.758601069 0.76605773
vt 0.758601069 0.76605773
vt 0.758601069 0.76605773
vt 0.758601069 0.76605773
vt 0.758601069 0.76605773
vt 0.758601069 0.76605773
vt 0.758601069 0.76605773
vt 0.758601069 0.76605773
vt 0.758601069 0.76605773
vt 0.758601069 0.76605773
vt 0.758601069 0.76605773
vt 0.758601069 0.76605773
vt 0.758601069 0.76605773
vt 0.758601069 0.76605773
vt 0.758601069 0.76605773
vt 0.754918039 0.258260906
vt 0.754918039 0.258260906
vt 0.754918039 0.258260906
vt 0.754918039 0.258260906
vt 0.754918039 0.258260906
vt 0.754918039 0.258260906
vt 0.754918039 0.258260906
vt 0.754918039 0.258260906
vt 0.754918039 0.258260906
vt 0.754918039 0.258260906
vt 0.754918039 0.258260906
vt 0.754918039 0.258260906
vt 0.754918039 0.258260906
vt 0.754918039 0.258260906
vt 0.23432 0.765357912
vt 0.23432 0.765357912
vt 0.23432 0.765357912
vt 0.23432 0.765357912
vt 0.23432 0.765357912
vt 0.23432 0.765357912
vt 0.23432 0.765357912
vt 0.23432 0.765357912
vt 0.23432 0.765357912
vt 0.23432 0.765357912
vt 0.754918039 0.258260906
vt 0.754918039 0.258260906
vt 0.754918039 0.258260906
vt 0.754918039 0.258260906
vt 0.754918039 0.258260906
vt 0.754918039 0.258260906
vt 0.754918039 0.258260906
vt 0.754918039 0.258260906
vt 0.754918039 0.258260906
vt 0.754918039 0.258260906
vt 0.754918039 0.258260906
vt 0.754918039 0.258260906
vt 0.754918039 0.258260906
vt 0.754918039 0.258260906
vt 0.23432 0.765357912
vt 0.23432 0.765357912
vt 0.23432 0.765357912
vt 0.23432 0.765357912
vt 0.23432 0.765357912
vt 0.23432 0.765357912
vt 0.23432 0.765357912
vt 0.23432 0.765357912
vt 0.23432 0.765357912
vt 0.23432 0.765357912
vt 0.23432 0.765357912
vt 0.23432 0.765357912
vt 0.23432 0.765357912
vt 0.23432 0.765357912
vt 0.23432 0.765357912
vt 0.23432 0.765357912
vt 0.754918039 0.258260906
vt 0.754918039 0.258260906
vt 0.754918039 0.258260906
vt 0.754918039 0.258260906
vt 0.754918039 0.258260906
vt 0.754918039 0.258260906
vt 0.754918039 0.258260906
vt 0.754918039 0.258260906
vt 0.754918039 0.258260906
vt 0.754918039 0.258260906
vt 0.754918039 0.258260906
vt 0.754918039 0.258260906
vt 0.758601069 0.76605773
vt 0.758601069 0.76605773
vt 0.758601069 0.76605773
vt 0.758601069 0.76605773
vt 0.758601069 0.76605773
vt 0.758601069 0.76605773
vt 0.758601069 0.76605773
vt 0.758601069 0.76605773
vt 0.758601069 0.76605773
vt 0.758601069 0.76605773
vt 0.758601069 0.76605773
vt 0.758601069 0.76605773
vn 0.000000 1.000000 -0.000000
vn 0.000000 1.000000 -0.000000
vn 0.000000 1.000000 -0.000000
vn 0.000000 -1.000000 -0.000000
vn 0.000000 -1.000000 -0.000000
vn 0.000000 -1.000000 -0.000000
vn 0.000000 -1.000000 -0.000000
vn 0.000000 -1.000000 -0.000000
vn 0.000000 -1.000000 -0.000000
vn 0.000000 -1.000000 -0.000000
vn 0.000000 0.000000 1.000000
vn 0.000000 0.000000 1.000000
vn 0.000000 0.000000 1.000000
vn 0.000000 0.000000 1.000000
vn 0.000000 1.000000 -0.000000
vn 0.000000 1.000000 -0.000000
vn 0.000000 1.000000 -0.000000
vn 0.000000 1.000000 -0.000000
vn 0.000000 0.000000 -1.000000
vn 0.000000 0.000000 -1.000000
vn 0.000000 0.000000 -1.000000
vn 0.000000 0.000000 -1.000000
vn 0.978223 0.000000 -0.207558
vn 0.978223 0.000000 -0.207558
vn 0.978223 0.000000 -0.207558
vn 0.978223 0.000000 -0.207558
vn -0.978223 0.000000 0.207558
vn -0.978223 -0.000000 0.207558
vn -0.978223 0.000000 0.207558
vn -0.978223 0.000000 0.207558
vn -0.142785 -0.989580 0.018523
vn -0.122242 -0.992131 0.027074
vn -0.142785 -0.989580 0.018523
vn -0.163257 -0.986533 0.009964
vn -0.164837 0.000000 0.986321
vn -0.164837 0.000000 0.986321
vn -0.164837 0.000000 0.986321
vn -0.164837 0.000000 0.986321
vn -0.142785 0.989580 0.018524
vn -0.122242 0.992131 0.027075
vn -0.142785 0.989580 0.018524
vn -0.163257 0.986533 0.009965
vn -0.230110 0.000000 -0.973165
vn -0.230110 0.000000 -0.973165
vn -0.230110 0.000000 -0.973165
vn -0.230110 0.000000 -0.973165
vn -0.998143 0.000000 0.060920
vn -0.998143 0.000000 0.060920
vn -0.998143 0.000000 0.060920
vn -0.998143 0.000000 0.060920
vn 0.385133 0.000000 0.922861
vn 0.385133 0.000000 0.922861
vn 0.708975 0.000000 0.705234
vn 0.708975 0.000000 0.705234
vn 1.000000 0.000000 -0.000000
vn 1.000000 0.000000 -0.000000
vn 0.798768 0.000000 -0.601639
vn 0.605857 0.000000 -0.795574
vn 0.385133 0.000000 -0.922861
vn 0.385133 0.000000 -0.922861
vn 0.891651 0.384548 0.238918
vn 0.891651 0.384548 0.238918
vn 0.818422 0.531125 0.219297
vn 0.719862 0.666778 0.192888
vn 0.471743 0.872628 0.126405
vn 0.471744 0.872628 0.126405
vn 0.326461 0.941154 0.087477
vn 0.326461 0.941154 0.087477
vn -0.965926 0.000000 -0.258819
vn -0.964586 0.052651 -0.258459
vn -0.964586 0.052651 -0.258460
vn -0.965926 0.000000 -0.258819
vn -0.964586 -0.052651 -0.258461
vn -0.964586 -0.052651 -0.258461
vn -0.643445 0.745824 -0.172407
vn -0.643445 0.745824 -0.172407
vn -0.643445 0.745824 -0.172407
vn -0.643445 0.745825 -0.172407
vn -0.643444 -0.745824 -0.172413
vn -0.643445 -0.745823 -0.172412
vn -0.643444 -0.745824 -0.172413
vn -0.643443 -0.745825 -0.172414
vn 0.471744 -0.872628 0.126403
vn 0.326461 -0.941154 0.087476
vn 0.326462 -0.941154 0.087475
vn 0.471745 -0.872628 0.126403
vn 0.771928 -0.601120 0.206836
vn 0.771928 -0.601121 0.206836
vn 0.891651 -0.384548 0.238916
vn 0.891651 -0.384548 0.238916
vn 0.934679 0.000000 0.355492
vn 0.934679 0.000000 0.355492
vn 0.934679 0.000000 0.355492
vn 0.934679 -0.000000 0.355492
vn 0.000000 1.000000 -0.000000
vn 0.000000 1.000000 -0.000000
vn 0.000000 1.000000 -0.000000
vn 0.000000 1.000000 -0.000000
vn -0.355491 0.000000 0.934680
vn -0.355491 0.000000 0.934680
vn -0.355491 0.000000 0.934680
vn -0.355491 0.000000 0.934680
vn 0.000000 -1.000000 -0.000000
vn 0.000000 -1.000000 -0.000000
vn 0.000000 -1.000000 -0.000000
vn 0.000000 -1.000000 -0.000000
vn 0.913327 0.015549 0.406930
vn 0.889374 0.000000 0.457179
vn 0.913327 0.015549 0.406930
vn 0.934229 0.031046 0.355320
vn 0.000000 1.000000 -0.000000
vn 0.000000 1.000000 -0.000000
vn 0.000000 1.000000 -0.000000
vn 0.000000 1.000000 -0.000000
vn -0.355491 0.000000 0.934680
vn -0.355492 0.000000 0.934679
vn -0.355491 0.000000 0.934680
vn -0.355491 0.000000 0.934680
vn 0.000000 -1.000000 -0.000000
vn 0.000000 -1.000000 -0.000000
vn 0.000000 -1.000000 -0.000000
vn 0.000000 -1.000000 -0.000000
vn -0.090459 0.000000 -0.995900
vn -0.090459 0.000000 -0.995900
vn -0.090459 0.000000 -0.995900
vn -0.090459 0.000000 -0.995900
vn -0.989486 0.000000 0.144630
vn -0.989486 0.000000 0.144630
vn -0.989486 0.000000 0.144630
vn -0.989486 -0.000000 0.144630
vn 0.000000 1.000000 -0.000000
vn 0.000000 1.000000 -0.000000
vn 0.000000 1.000000 -0.000000
vn 0.000000 1.000000 -0.000000
vn 0.000000 1.000000 -0.000000
vn 0.000000 1.000000 -0.000000
vn 0.381104 0.923880 -0.034731
vn 0.381104 0.923880 -0.034731
vn 0.704188 0.707107 -0.064174
vn 0.704188 0.707107 -0.064174
vn -0.090756 0.000000 -0.995873
vn -0.090757 0.000000 -0.995873
vn -0.090755 -0.000000 -0.995873
vn -0.090755 0.000000 -0.995873
vn -0.090757 0.000000 -0.995873
vn -0.090756 0.000000 -0.995873
vn -0.090756 -0.000000 -0.995873
vn -0.090756 0.000000 -0.995873
vn -0.090755 0.000000 -0.995873
vn -0.090756 0.000000 -0.995873
vn -0.090755 0.000000 -0.995873
vn -0.090754 0.000000 -0.995873
vn 0.995873 0.000000 -0.090755
vn 0.995873 0.000000 -0.090756
vn 0.995873 0.000000 -0.090755
vn 0.995873 0.000000 -0.090755
vn -0.995873 -0.000000 0.090756
vn -0.995873 -0.000000 0.090756
vn -0.995873 -0.000000 0.090756
vn -0.995873 -0.000000 0.090756
vn 0.963546 0.252724 -0.087808
vn 0.995873 0.000000 -0.090753
vn 0.995873 0.000000 -0.090754
vn 0.859296 0.505449 -0.078308
vn 0.704189 0.707107 -0.064173
vn 0.704189 0.707107 -0.064174
vn 0.000000 -1.000000 -0.000000
vn 0.000000 -1.000000 -0.000000
vn 0.000000 -1.000000 -0.000000
vn 0.000000 -1.000000 -0.000000
vn 0.192090 0.075794 -0.978446
vn 0.199711 0.067290 -0.977542
vn 0.192089 0.075794 -0.978446
vn 0.216604 0.062183 -0.974277
vn 0.215787 0.118998 -0.969162
vn 0.228125 0.178585 -0.957114
vn 0.226053 0.000000 -0.974115
vn 0.258819 -0.000000 -0.965926
vn 0.228126 -0.178581 -0.957114
vn 0.215791 -0.118990 -0.969162
vn 0.216608 -0.062175 -0.974277
vn 0.199714 -0.067286 -0.977541
vn 0.192089 -0.075794 -0.978446
vn 0.192089 -0.075793 -0.978446
vn -0.385133 0.000000 -0.922861
vn -0.708975 0.000000 -0.705234
vn -0.385133 0.000000 -0.922861
vn -0.708975 0.000000 -0.705234
vn -1.000000 0.000000 -0.000000
vn -1.000000 0.000000 -0.000000
vn -0.708975 0.000000 0.705234
vn -0.708975 0.000000 0.705234
vn -0.385132 0.000000 0.922861
vn -0.385132 0.000000 0.922861
vn -0.315813 0.067286 0.946433
vn -0.322869 0.075794 0.943404
vn -0.322869 0.075794 0.943404
vn -0.299550 0.062175 0.952053
vn -0.296876 0.115353 0.947923
vn -0.280387 0.171542 0.944435
vn -0.289797 0.000000 0.957088
vn -0.258819 0.000000 0.965926
vn -0.280388 -0.171547 0.944433
vn -0.296880 -0.115361 0.947921
vn -0.299554 -0.062183 0.952051
vn -0.315816 -0.067290 0.946431
vn -0.322869 -0.075794 0.943404
vn -0.322869 -0.075794 0.943404
vn -0.104224 0.994554 -0.000000
vn -0.104224 0.994554 -0.000000
vn -0.104224 0.994554 -0.000000
vn -0.104224 0.994554 -0.000000
vn -0.104224 0.994554 -0.000000
vn -0.104224 0.994554 -0.000000
vn -0.104224 0.994554 -0.000000
vn -0.104224 0.994554 -0.000000
vn -0.104224 -0.994554 -0.000000
vn -0.104224 -0.994554 -0.000000
vn -0.104224 -0.994554 -0.000000
vn -0.104224 -0.994554 -0.000000
vn -0.104224 -0.994554 -0.000000
vn -0.104224 -0.994554 -0.000000
vn -0.104224 -0.994554 -0.000000
vn -0.104224 -0.994554 -0.000000
vn -0.564026 -0.811809 -0.151131
vn -0.456251 -0.881413 -0.122253
vn -0.456250 -0.881414 -0.122252
vn -0.564026 -0.811809 -0.151131
vn -0.662047 -0.728166 -0.177396
vn -0.662046 -0.728166 -0.177397
vn -0.662048 0.728165 -0.177394
vn -0.564026 0.811809 -0.151129
vn -0.662048 0.728165 -0.177394
vn -0.564027 0.811809 -0.151129
vn -0.456251 0.881414 -0.122250
vn -0.456251 0.881414 -0.122250
vn -0.963546 -0.252725 0.087808
vn -0.995873 0.000000 0.090754
vn -0.995873 0.000000 0.090754
vn -0.859295 -0.505450 0.078308
vn -0.704188 -0.707107 0.064173
vn -0.704188 -0.707107 0.064174
vn -0.381104 -0.923880 0.034731
vn -0.704189 -0.707107 0.064174
vn -0.704189 -0.707106 0.064173
vn -0.381104 -0.923880 0.034731
vn 0.000000 -1.000000 -0.000000
vn 0.000000 -1.000000 -0.000000
f 1/1/1 2/2/2 3/3/3
f 4/4/4 5/5/5 6/6/6
f 7/7/7 8/8/8 9/9/9
f 7/7/7 9/9/9 10/10/10
f 11/11/11 12/12/12 13/13/13
f 11/11/11 13/13/13 14/14/14
f 15/15/15 16/16/16 17/17/17
f 15/15/15 17/17/17 18/18/18
f 19/19/19 20/20/20 21/21/21
f 19/19/19 21/21/21 22/22/22
f 23/23/23 24/24/24 25/25/25
f 23/23/23 25/25/25 26/26/26
f 27/27/27 28/28/28 29/29/29
f 27/27/27 29/29/29 30/30/30
f 31/31/31 32/32/32 33/33/33
f 31/31/31 33/33/33 34/34/34
f 35/35/35 36/36/36 37/37/37
f 35/35/35 37/37/37 38/38/38
f 39/39/39 40/40/40 41/41/41
f 39/39/39 41/41/41 42/42/42
f 43/43/43 44/44/44 45/45/45
f 43/43/43 45/45/45 46/46/46
f 47/47/47 48/48/48 49/49/49
f 47/47/47 49/49/49 50/50/50
f 51/51/51 52/52/52 53/53/53
f 51/51/51 53/53/53 54/54/54
f 53/53/53 55/55/55 54/54/54
f 53/53/53 56/56/56 55/55/55
f 55/55/55 56/56/56 57/57/57
f 55/55/55 57/57/57 58/58/58
f 58/58/58 57/57/57 59/59/59
f 58/58/58 59/59/59 60/60/60
f 61/61/61 62/62/62 63/63/63
f 61/61/61 63/63/63 64/64/64
f 64/64/64 63/63/63 65/65/65
f 64/64/64 65/65/65 66/66/66
f 65/65/65 67/67/67 66/66/66
f 65/65/65 68/68/68 67/67/67
f 69/69/69 70/70/70 71/71/71
f 69/69/69 71/71/71 72/72/72
f 69/69/69 72/72/72 73/73/73
f 69/69/69 73/73/73 74/74/74
f 75/75/75 76/76/76 77/77/77
f 75/75/75 77/77/77 78/78/78
f 79/79/79 80/80/80 81/81/81
f 79/79/79 81/81/81 82/82/82
f 83/83/83 84/84/84 85/85/85
f 83/83/83 85/85/85 86/86/86
f 87/87/87 83/83/83 86/86/86
f 87/87/87 88/88/88 83/83/83
f 89/89/89 88/88/88 87/87/87
f 89/89/89 87/87/87 90/90/90
f 91/91/91 92/92/92 93/93/93
f 91/91/91 93/93/93 94/94/94
f 95/95/95 96/96/96 97/97/97
f 95/95/95 97/97/97 98/98/98
f 99/99/99 100/100/100 101/101/101
f 99/99/99 101/101/101 102/102/102
f 103/103/103 104/104/104 105/105/105
f 103/103/103 105/105/105 106/106/106
f 107/107/107 108/108/108 109/109/109
f 107/107/107 109/109/109 110/110/110
f 111/111/111 112/112/112 113/113/113
f 111/111/111 113/113/113 114/114/114
f 115/115/115 116/116/116 117/117/117
f 115/115/115 117/117/117 118/118/118
f 119/119/119 120/120/120 121/121/121
f 119/119/119 121/121/121 122/122/122
f 123/123/123 124/124/124 125/125/125
f 123/123/123 125/125/125 126/126/126
f 127/127/127 128/128/128 129/129/129
f 127/127/127 129/129/129 130/130/130
f 131/131/131 132/132/132 133/133/133
f 131/131/131 133/133/133 134/134/134
f 135/135/135 136/136/136 137/137/137
f 135/135/135 137/137/137 138/138/138
f 137/137/137 139/139/139 138/138/138
f 137/137/137 140/140/140 139/139/139
f 141/141/141 142/142/142 143/143/143
f 144/144/144 141/141/141 143/143/143
f 141/141/141 144/144/144 145/145/145
f 141/141/141 145/145/145 146/146/146
f 147/147/147 148/148/148 149/149/149
f 150/150/150 148/148/148 147/147/147
f 148/148/148 150/150/150 151/151/151
f 151/151/151 150/150/150 152/152/152
f 153/153/153 154/154/154 155/155/155
f 153/153/153 155/155/155 156/156/156
f 157/157/157 158/158/158 159/159/159
f 157/157/157 159/159/159 160/160/160
f 161/161/161 162/162/162 163/163/163
f 161/161/161 163/163/163 164/164/164
f 165/165/165 161/161/161 164/164/164
f 165/165/165 164/164/164 166/166/166
f 167/167/167 168/168/168 169/169/169
f 167/167/167 169/169/169 170/170/170
f 171/171/171 172/172/172 173/173/173
f 171/171/171 174/174/174 172/172/172
f 172/172/172 174/174/174 175/175/175
f 176/176/176 175/175/175 174/174/174
f 176/176/176 177/177/177 175/175/175
f 176/176/176 178/178/178 177/177/177
f 177/177/177 178/178/178 179/179/179
f 177/177/177 179/179/179 180/180/180
f 179/179/179 181/181/181 180/180/180
f 182/182/182 180/180/180 181/181/181
f 183/183/183 182/182/182 181/181/181
f 182/182/182 183/183/183 184/184/184
f 185/185/185 186/186/186 187/187/187
f 185/185/185 188/188/188 186/186/186
f 186/186/186 188/188/188 189/189/189
f 186/186/186 189/189/189 190/190/190
f 189/189/189 191/191/191 190/190/190
f 189/189/189 192/192/192 191/191/191
f 191/191/191 192/192/192 193/193/193
f 191/191/191 193/193/193 194/194/194
f 195/195/195 196/196/196 197/197/197
f 196/196/196 195/195/195 198/198/198
f 195/195/195 199/199/199 198/198/198
f 200/200/200 198/198/198 199/199/199
f 201/201/201 200/200/200 199/199/199
f 201/201/201 202/202/202 200/200/200
f 203/203/203 202/202/202 201/201/201
f 203/203/203 201/201/201 204/204/204
f 203/203/203 204/204/204 205/205/205
f 206/206/206 205/205/205 204/204/204
f 207/207/207 205/205/205 206/206/206
f 207/207/207 206/206/206 208/208/208
f 209/209/209 210/210/210 211/211/211
f 210/210/210 212/212/212 211/211/211
f 213/213/213 212/212/212 210/210/210
f 212/212/212 213/213/213 214/214/214
f 212/212/212 214/214/214 215/215/215
f 216/216/216 215/215/215 214/214/214
f 217/217/217 218/218/218 219/219/219
f 218/218/218 217/217/217 220/220/220
f 217/217/217 221/221/221 220/220/220
f 222/222/222 220/220/220 221/221/221
f 223/223/223 222/222/222 221/221/221
f 222/222/222 223/223/223 224/224/224
f 225/225/225 226/226/226 227/227/227
f 225/225/225 228/228/228 226/226/226
f 229/229/229 228/228/228 225/225/225
f 229/229/229 225/225/225 230/230/230
f 231/231/231 232/232/232 233/233/233
f 231/231/231 234/234/234 232/232/232
f 232/232/232 234/234/234 235/235/235
f 232/232/232 235/235/235 236/236/236
f 237/237/237 238/238/238 239/239/239
f 237/237/237 240/240/240 238/238/238
f 240/240/240 237/237/237 241/241/241
f 240/240/240 241/241/241 242/242/242
f 243/243/243 244/244/244 245/245/245
f 243/243/243 246/246/246 244/244/244
f 247/247/247 246/246/246 243/243/243
f 247/247/247 243/243/243 248/248/248
