# hat_gray_5_hat (gear rip -> Godot: Z negated + winding reversed)
v -0.699093 0.096532 -0.198113
v -0.824602 0.074841 -0.186713
v -0.775982 0.096533 0.145923
v -0.824602 -0.059464 -0.186713
v -0.699093 -0.081155 -0.198113
v -0.775982 -0.081155 0.145923
v -0.573064 -0.227656 -0.228156
v -0.476457 -0.227656 0.227153
v -0.538957 -0.227656 0.227153
v -0.635564 -0.227656 -0.228156
v -0.538957 -0.227656 0.227153
v -0.476457 -0.227656 0.227153
v -0.476457 0.227654 0.227153
v -0.538957 0.227654 0.227153
v -0.538957 0.227654 0.227153
v -0.476457 0.227654 0.227153
v -0.573064 0.227654 -0.228156
v -0.635564 0.227654 -0.228156
v -0.635564 0.227654 -0.228156
v -0.573064 0.227654 -0.228156
v -0.573064 -0.227656 -0.228156
v -0.635564 -0.227656 -0.228156
v -0.476457 0.227654 0.227153
v -0.476457 -0.227656 0.227153
v -0.573064 -0.227656 -0.228156
v -0.573064 0.227654 -0.228156
v -0.538957 -0.227656 0.227153
v -0.538957 0.227654 0.227153
v -0.635564 0.227654 -0.228156
v -0.635564 -0.227656 -0.228156
v -0.619165 -0.218092 -0.218593
v -0.522558 -0.218092 0.217590
v -0.779089 -0.187655 0.174717
v -0.800477 -0.187655 -0.175721
v -0.522558 -0.218092 0.217590
v -0.522558 0.218090 0.217590
v -0.779089 0.187653 0.174717
v -0.779089 -0.187655 0.174717
v -0.779089 0.187653 0.174717
v -0.522558 0.218090 0.217590
v -0.619165 0.218090 -0.218593
v -0.800477 0.187653 -0.175721
v -0.619165 0.218090 -0.218593
v -0.619165 -0.218092 -0.218593
v -0.800477 -0.187655 -0.175721
v -0.800477 0.187653 -0.175721
v -0.779089 -0.187655 0.174717
v -0.779089 0.187653 0.174717
v -0.800477 0.187653 -0.175721
v -0.800477 -0.187655 -0.175721
v -0.656118 0.145515 0.212282
v -0.656118 -0.145517 0.212282
v -0.624693 -0.145517 0.129656
v -0.624693 0.145515 0.129656
v -0.738744 0.145515 0.180856
v -0.656118 0.145515 0.212282
v -0.624693 0.145515 0.129656
v -0.707319 0.145514 0.098231
v -0.738744 -0.145517 0.180857
v -0.656118 -0.145517 0.212282
v -0.656118 0.145515 0.212282
v -0.738744 0.145515 0.180856
v -0.624693 -0.145517 0.129656
v -0.656118 -0.145517 0.212282
v -0.738744 -0.145517 0.180857
v -0.707319 -0.145517 0.098231
v -0.587347 0.130963 0.222249
v -0.587347 -0.130965 0.222249
v -0.553883 -0.130965 0.157150
v -0.555922 0.130963 0.139624
v -0.587347 0.130963 0.222249
v -0.555922 0.130963 0.139624
v -0.638547 0.130963 0.108198
v -0.669973 0.130963 0.190824
v -0.587347 -0.130965 0.222249
v -0.587347 0.130963 0.222249
v -0.669973 0.130963 0.190824
v -0.669973 -0.130965 0.190824
v -0.633016 -0.130965 0.117748
v -0.553883 -0.130965 0.157150
v -0.587347 -0.130965 0.222249
v -0.669973 -0.130965 0.190824
v -0.699093 0.096532 -0.198113
v -0.699093 -0.081155 -0.198113
v -0.824602 -0.059464 -0.186713
v -0.824602 0.074841 -0.186713
v -0.775982 -0.081155 0.145923
v -0.775982 0.096533 0.145923
v -0.824602 0.074841 -0.186713
v -0.824602 -0.059464 -0.186713
vt 0.132741451 0.752250373
vt 0.132741451 0.752250373
vt 0.132741451 0.752250373
vt 0.132741451 0.752250373
vt 0.132741451 0.752250373
vt 0.132741451 0.752250373
vt 0.132738769 0.752250731
vt 0.132738769 0.752250731
vt 0.132738769 0.752250731
vt 0.132738769 0.752250731
vt 0.132738769 0.752250731
vt 0.132738769 0.752250731
vt 0.132738769 0.752250731
vt 0.132738769 0.752250731
vt 0.132738769 0.752250731
vt 0.132738769 0.752250731
vt 0.132738769 0.752250731
vt 0.132738769 0.752250731
vt 0.132738769 0.752250731
vt 0.132738769 0.752250731
vt 0.132738769 0.752250731
vt 0.132738769 0.752250731
vt 0.132738769 0.752250731
vt 0.132738769 0.752250731
vt 0.132738769 0.752250731
vt 0.132738769 0.752250731
vt 0.132738769 0.752250731
vt 0.132738769 0.752250731
vt 0.132738769 0.752250731
vt 0.132738769 0.752250731
vt 0.385959744 0.719281197
vt 0.385959744 0.719281197
vt 0.385959744 0.719281197
vt 0.385959744 0.719281197
vt 0.385959744 0.719281197
vt 0.385959744 0.719281197
vt 0.385959744 0.719281197
vt 0.385959744 0.719281197
vt 0.385959744 0.719281197
vt 0.385959744 0.719281197
vt 0.385959744 0.719281197
vt 0.385959744 0.719281197
vt 0.385959744 0.719281197
vt 0.385959744 0.719281197
vt 0.385959744 0.719281197
vt 0.385959744 0.719281197
vt 0.385959744 0.719281197
vt 0.385959744 0.719281197
vt 0.385959744 0.719281197
vt 0.385959744 0.719281197
vt 0.132738769 0.752250731
vt 0.132738769 0.752250731
vt 0.132738769 0.752250731
vt 0.132738769 0.752250731
vt 0.132738769 0.752250731
vt 0.132738769 0.752250731
vt 0.132738769 0.752250731
vt 0.132738769 0.752250731
vt 0.132738769 0.752250731
vt 0.132738769 0.752250731
vt 0.132738769 0.752250731
vt 0.132738769 0.752250731
vt 0.132738769 0.752250731
vt 0.132738769 0.752250731
vt 0.132738769 0.752250731
vt 0.132738769 0.752250731
vt 0.132738769 0.752250731
vt 0.132738769 0.752250731
vt 0.132738769 0.752250731
vt 0.132738769 0.752250731
vt 0.132738769 0.752250731
vt 0.132738769 0.752250731
vt 0.132738769 0.752250731
vt 0.132738769 0.752250731
vt 0.132738769 0.752250731
vt 0.132738769 0.752250731
vt 0.132738769 0.752250731
vt 0.132738769 0.752250731
vt 0.132738769 0.752250731
vt 0.132738769 0.752250731
vt 0.132738769 0.752250731
vt 0.132738769 0.752250731
vt 0.132741451 0.752250373
vt 0.132741451 0.752250373
vt 0.132741451 0.752250373
vt 0.132741451 0.752250373
vt 0.132741451 0.752250373
vt 0.132741451 0.752250373
vt 0.132741451 0.752250373
vt 0.132741451 0.752250373
vn -0.173595 0.984053 -0.038797
vn -0.173595 0.984053 -0.038797
vn -0.173595 0.984053 -0.038797
vn -0.173595 -0.984053 -0.038797
vn -0.173595 -0.984053 -0.038797
vn -0.173595 -0.984053 -0.038797
vn 0.000000 -1.000000 -0.000000
vn 0.000000 -1.000000 -0.000000
vn 0.000000 -1.000000 -0.000000
vn 0.000000 -1.000000 -0.000000
vn 0.000000 0.000000 1.000000
vn 0.000000 0.000000 1.000000
vn 0.000000 0.000000 1.000000
vn 0.000000 0.000000 1.000000
vn 0.000000 1.000000 -0.000000
vn 0.000000 1.000000 -0.000000
vn 0.000000 1.000000 -0.000000
vn 0.000000 1.000000 -0.000000
vn 0.000000 0.000000 -1.000000
vn 0.000000 0.000000 -1.000000
vn 0.000000 0.000000 -1.000000
vn 0.000000 0.000000 -1.000000
vn 0.978223 0.000000 -0.207558
vn 0.978223 0.000000 -0.207558
vn 0.978223 0.000000 -0.207558
vn 0.978223 0.000000 -0.207558
vn -0.978223 -0.000000 0.207558
vn -0.978223 -0.000000 0.207558
vn -0.978223 -0.000000 0.207558
vn -0.978223 -0.000000 0.207558
vn -0.142785 -0.989580 0.018524
vn -0.122242 -0.992131 0.027074
vn -0.142785 -0.989580 0.018524
vn -0.163257 -0.986533 0.009964
vn -0.164837 0.000000 0.986321
vn -0.164837 0.000000 0.986321
vn -0.164837 0.000000 0.986321
vn -0.164837 0.000000 0.986321
vn -0.142785 0.989580 0.018524
vn -0.122242 0.992131 0.027074
vn -0.142785 0.989580 0.018524
vn -0.163256 0.986533 0.009964
vn -0.230110 0.000000 -0.973165
vn -0.230110 0.000000 -0.973165
vn -0.230110 0.000000 -0.973165
vn -0.230110 0.000000 -0.973165
vn -0.998143 0.000000 0.060920
vn -0.998143 0.000000 0.060920
vn -0.998143 0.000000 0.060920
vn -0.998143 0.000000 0.060920
vn 0.934679 0.000000 0.355492
vn 0.934679 0.000000 0.355492
vn 0.934679 0.000000 0.355492
vn 0.934679 0.000000 0.355492
vn 0.000000 1.000000 -0.000000
vn 0.000000 1.000000 -0.000000
vn 0.000000 1.000000 -0.000000
vn 0.000000 1.000000 -0.000000
vn -0.355492 0.000000 0.934679
vn -0.355492 0.000000 0.934679
vn -0.355492 0.000000 0.934679
vn -0.355492 0.000000 0.934679
vn 0.000000 -1.000000 -0.000000
vn 0.000000 -1.000000 -0.000000
vn 0.000000 -1.000000 -0.000000
vn 0.000000 -1.000000 -0.000000
vn 0.913327 0.015549 0.406929
vn 0.889375 0.000000 0.457179
vn 0.913327 0.015549 0.406929
vn 0.934229 0.031046 0.355320
vn 0.000000 1.000000 -0.000000
vn 0.000000 1.000000 -0.000000
vn 0.000000 1.000000 -0.000000
vn 0.000000 1.000000 -0.000000
vn -0.355492 0.000000 0.934679
vn -0.355492 0.000000 0.934679
vn -0.355492 0.000000 0.934679
vn -0.355492 0.000000 0.934679
vn 0.000000 -1.000000 -0.000000
vn 0.000000 -1.000000 -0.000000
vn 0.000000 -1.000000 -0.000000
vn 0.000000 -1.000000 -0.000000
vn -0.090459 0.000000 -0.995900
vn -0.090459 0.000000 -0.995900
vn -0.090459 0.000000 -0.995900
vn -0.090459 0.000000 -0.995900
vn -0.989486 0.000000 0.144630
vn -0.989486 0.000000 0.144630
vn -0.989486 0.000000 0.144630
vn -0.989486 0.000000 0.144630
f 1/1/1 2/2/2 3/3/3
f 4/4/4 5/5/5 6/6/6
f 7/7/7 8/8/8 9/9/9
f 7/7/7 9/9/9 10/10/10
f 11/11/11 12/12/12 13/13/13
f 11/11/11 13/13/13 14/14/14
f 15/15/15 16/16/16 17/17/17
f 15/15/15 17/17/17 18/18/18
f 19/19/19 20/20/20 21/21/21
f 19/19/19 21/21/21 22/22/22
f 23/23/23 24/24/24 25/25/25
f 23/23/23 25/25/25 26/26/26
f 27/27/27 28/28/28 29/29/29
f 27/27/27 29/29/29 30/30/30
f 31/31/31 32/32/32 33/33/33
f 31/31/31 33/33/33 34/34/34
f 35/35/35 36/36/36 37/37/37
f 35/35/35 37/37/37 38/38/38
f 39/39/39 40/40/40 41/41/41
f 39/39/39 41/41/41 42/42/42
f 43/43/43 44/44/44 45/45/45
f 43/43/43 45/45/45 46/46/46
f 47/47/47 48/48/48 49/49/49
f 47/47/47 49/49/49 50/50/50
f 51/51/51 52/52/52 53/53/53
f 51/51/51 53/53/53 54/54/54
f 55/55/55 56/56/56 57/57/57
f 55/55/55 57/57/57 58/58/58
f 59/59/59 60/60/60 61/61/61
f 59/59/59 61/61/61 62/62/62
f 63/63/63 64/64/64 65/65/65
f 63/63/63 65/65/65 66/66/66
f 67/67/67 68/68/68 69/69/69
f 67/67/67 69/69/69 70/70/70
f 71/71/71 72/72/72 73/73/73
f 71/71/71 73/73/73 74/74/74
f 75/75/75 76/76/76 77/77/77
f 75/75/75 77/77/77 78/78/78
f 79/79/79 80/80/80 81/81/81
f 79/79/79 81/81/81 82/82/82
f 83/83/83 84/84/84 85/85/85
f 83/83/83 85/85/85 86/86/86
f 87/87/87 88/88/88 89/89/89
f 87/87/87 89/89/89 90/90/90
