# headlessshoulders_vest (gear rip -> Godot: Z negated + winding reversed)
v -0.607497 -0.532623 0.027279
v -0.711615 -0.563357 0.027279
v -0.775531 -0.582225 0.027279
v -0.775531 0.582225 0.027279
v -0.711615 0.563357 0.027279
v -0.607497 0.532623 0.027279
v -0.692966 -0.243084 -0.227987
v -0.607497 -0.532623 -0.227987
v -0.713241 -0.563837 -0.227987
v -0.928494 -0.312609 -0.227987
v -0.843026 -0.602148 -0.227987
v -0.607497 -0.532623 0.151229
v -0.692966 -0.243084 0.151229
v -0.692966 -0.243084 0.211980
v -0.607497 -0.532623 0.211980
v -0.607497 -0.532623 -0.227987
v -0.692966 -0.243084 -0.227987
v -0.692966 -0.243084 -0.167236
v -0.607497 -0.532623 -0.167236
v -0.756251 -0.261765 -0.143567
v -0.670782 -0.551304 -0.143563
v -0.607497 -0.532623 -0.167236
v -0.692966 -0.243084 -0.167236
v -0.607497 -0.532623 -0.043286
v -0.692966 -0.243084 -0.043286
v -0.692966 -0.243084 0.027279
v -0.607497 -0.532623 0.027279
v -0.670782 -0.551304 -0.143563
v -0.756251 -0.261765 -0.143567
v -0.756251 -0.261765 -0.065455
v -0.670782 -0.551304 -0.065455
v -0.607497 -0.532623 0.151229
v -0.607497 -0.532623 0.211980
v -0.843026 -0.602148 0.211980
v -0.701353 -0.560328 0.151229
v -0.670784 -0.551305 0.127560
v -0.670782 -0.551304 0.049449
v -0.711615 -0.563357 0.027279
v -0.607497 -0.532623 0.027279
v -0.791750 -0.587012 0.151229
v -0.843026 -0.602148 0.151229
v -0.775531 -0.582225 0.027279
v -0.607497 -0.532623 -0.043286
v -0.711615 -0.563357 -0.043286
v -0.670782 -0.551304 -0.065455
v -0.670782 -0.551304 -0.143563
v -0.775531 -0.582225 -0.043286
v -0.791750 -0.587012 -0.167236
v -0.843026 -0.602148 -0.167236
v -0.701353 -0.560328 -0.167236
v -0.607497 -0.532623 -0.167236
v -0.607497 -0.532623 -0.227987
v -0.791750 -0.587012 -0.167236
v -0.713241 -0.563837 -0.227987
v -0.843026 -0.602148 -0.227987
v -0.756251 -0.261765 -0.065455
v -0.692966 -0.243084 -0.043286
v -0.607497 -0.532623 -0.043286
v -0.670782 -0.551304 -0.065455
v -0.756251 -0.261765 0.049449
v -0.670782 -0.551304 0.049449
v -0.607497 -0.532623 0.027279
v -0.692966 -0.243084 0.027279
v -0.670782 -0.551304 0.049449
v -0.756251 -0.261765 0.049449
v -0.756251 -0.261765 0.127560
v -0.670784 -0.551305 0.127560
v -0.756251 -0.261765 0.127560
v -0.692966 -0.243084 0.151229
v -0.607497 -0.532623 0.151229
v -0.670784 -0.551305 0.127560
v -0.791750 -0.587012 0.151229
v -0.784235 -0.568709 0.143126
v -0.716735 -0.548784 0.143126
v -0.701353 -0.560328 0.151229
v -0.701353 -0.560328 0.151229
v -0.716735 -0.548784 0.143126
v -0.724004 -0.550929 0.042281
v -0.711615 -0.563357 0.027279
v -0.692966 -0.243084 -0.167236
v -0.692966 -0.243084 -0.227987
v -0.928494 -0.312609 -0.227987
v -0.756251 -0.261765 -0.143567
v -0.928494 -0.312609 0.211980
v -0.756251 -0.261765 -0.065455
v -0.692966 -0.243084 -0.043286
v -0.756251 -0.261765 0.049449
v -0.692966 -0.243084 0.027279
v -0.756251 -0.261765 0.127560
v -0.692966 -0.243084 0.151229
v -0.692966 -0.243084 0.211980
v -0.772746 -0.565317 0.042281
v -0.724004 -0.550929 0.042281
v -0.716735 -0.548784 0.143126
v -0.784235 -0.568709 0.143126
v -0.784235 -0.568709 -0.159132
v -0.716735 -0.548784 -0.159132
v -0.724004 -0.550929 -0.058288
v -0.772746 -0.565317 -0.058288
v -0.711615 -0.563357 0.027279
v -0.724004 -0.550929 0.042281
v -0.772746 -0.565317 0.042281
v -0.775531 -0.582225 0.027279
v -0.775531 -0.582225 -0.043286
v -0.772746 -0.565317 -0.058288
v -0.724004 -0.550929 -0.058288
v -0.711615 -0.563357 -0.043286
v -0.791750 -0.587012 -0.167236
v -0.784235 -0.568709 -0.159132
v -0.772746 -0.565317 -0.058288
v -0.775531 -0.582225 -0.043286
v -0.701353 -0.560328 -0.167236
v -0.716735 -0.548784 -0.159132
v -0.784235 -0.568709 -0.159132
v -0.791750 -0.587012 -0.167236
v -0.775531 -0.582225 0.027279
v -0.772746 -0.565317 0.042281
v -0.784235 -0.568709 0.143126
v -0.791750 -0.587012 0.151229
v -0.711615 -0.563357 -0.043286
v -0.724004 -0.550929 -0.058288
v -0.716735 -0.548784 -0.159132
v -0.701353 -0.560328 -0.167236
v -0.935339 -0.518574 -0.056730
v -0.850580 -0.480341 -0.042984
v -0.850580 -0.480341 0.026978
v -0.935339 -0.518574 0.040723
v -0.935339 -0.518574 0.040723
v -0.850580 -0.480341 0.026978
v -0.868842 -0.418478 0.026978
v -0.960775 -0.432403 0.040723
v -0.960775 -0.432403 0.040723
v -0.868842 -0.418478 0.026978
v -0.868842 -0.418478 -0.042984
v -0.960775 -0.432403 -0.056730
v -0.960775 -0.432403 -0.056730
v -0.868842 -0.418478 -0.042984
v -0.850580 -0.480341 -0.042984
v -0.935339 -0.518574 -0.056730
v -0.850580 -0.480341 -0.042984
v -0.868842 -0.418478 -0.042984
v -0.868842 -0.418478 0.026978
v -0.850580 -0.480341 0.026978
v -0.960775 -0.432403 -0.056730
v -0.935339 -0.518574 -0.056730
v -0.935339 -0.518574 0.040723
v -0.960775 -0.432403 0.040723
v -0.928494 -0.312609 0.211980
v -0.843026 -0.602148 0.211980
v -0.607497 -0.532623 0.211980
v -0.692966 -0.243084 0.211980
v -0.843026 -0.602148 0.211980
v -0.928494 -0.312609 0.211980
v -0.928494 -0.312609 -0.227987
v -0.843026 -0.602148 -0.227987
v -0.843026 -0.602148 0.151229
v -0.843026 -0.602148 -0.167236
v -0.713241 0.563837 -0.227987
v -0.607497 0.532623 -0.227987
v -0.692966 0.243084 -0.227987
v -0.928494 0.312609 -0.227987
v -0.843026 0.602148 -0.227987
v -0.607497 0.532623 0.151229
v -0.607497 0.532623 0.211980
v -0.692966 0.243084 0.211980
v -0.692966 0.243084 0.151229
v -0.607497 0.532623 -0.227987
v -0.607497 0.532623 -0.167236
v -0.692966 0.243084 -0.167236
v -0.692966 0.243084 -0.227987
v -0.756251 0.261765 -0.143567
v -0.692966 0.243084 -0.167236
v -0.607497 0.532623 -0.167236
v -0.670782 0.551304 -0.143563
v -0.607497 0.532623 -0.043286
v -0.607497 0.532623 0.027279
v -0.692966 0.243084 0.027279
v -0.692966 0.243084 -0.043286
v -0.670782 0.551304 -0.143563
v -0.670782 0.551304 -0.065455
v -0.756251 0.261765 -0.065455
v -0.756251 0.261765 -0.143567
v -0.843026 0.602148 0.151229
v -0.843026 0.602148 0.211980
v -0.607497 0.532623 0.211980
v -0.791750 0.587012 0.151229
v -0.701353 0.560328 0.151229
v -0.607497 0.532623 0.151229
v -0.670784 0.551305 0.127560
v -0.670782 0.551304 0.049449
v -0.711615 0.563357 0.027279
v -0.607497 0.532623 0.027279
v -0.775531 0.582225 0.027279
v -0.775531 0.582225 -0.043286
v -0.843026 0.602148 -0.167236
v -0.791750 0.587012 -0.167236
v -0.711615 0.563357 -0.043286
v -0.607497 0.532623 -0.043286
v -0.670782 0.551304 -0.065455
v -0.670782 0.551304 -0.143563
v -0.701353 0.560328 -0.167236
v -0.791750 0.587012 -0.167236
v -0.843026 0.602148 -0.227987
v -0.607497 0.532623 -0.167236
v -0.713241 0.563837 -0.227987
v -0.607497 0.532623 -0.227987
v -0.756251 0.261765 -0.065455
v -0.670782 0.551304 -0.065455
v -0.607497 0.532623 -0.043286
v -0.692966 0.243084 -0.043286
v -0.756251 0.261765 0.049449
v -0.692966 0.243084 0.027279
v -0.607497 0.532623 0.027279
v -0.670782 0.551304 0.049449
v -0.670782 0.551304 0.049449
v -0.670784 0.551305 0.127560
v -0.756251 0.261765 0.127560
v -0.756251 0.261765 0.049449
v -0.756251 0.261765 0.127560
v -0.670784 0.551305 0.127560
v -0.607497 0.532623 0.151229
v -0.692966 0.243084 0.151229
v -0.791750 0.587012 0.151229
v -0.701353 0.560328 0.151229
v -0.716735 0.548784 0.143126
v -0.784235 0.568709 0.143126
v -0.701353 0.560328 0.151229
v -0.711615 0.563357 0.027279
v -0.724004 0.550929 0.042281
v -0.716735 0.548784 0.143126
v -0.692966 0.243084 -0.227987
v -0.692966 0.243084 -0.167236
v -0.756251 0.261765 -0.143567
v -0.928494 0.312609 -0.227987
v -0.928494 0.312609 0.211980
v -0.756251 0.261765 -0.065455
v -0.692966 0.243084 -0.043286
v -0.756251 0.261765 0.049449
v -0.692966 0.243084 0.027279
v -0.756251 0.261765 0.127560
v -0.692966 0.243084 0.151229
v -0.692966 0.243084 0.211980
v -0.772746 0.565317 0.042281
v -0.784235 0.568709 0.143126
v -0.716735 0.548784 0.143126
v -0.724004 0.550929 0.042281
v -0.784235 0.568709 -0.159132
v -0.772746 0.565317 -0.058288
v -0.724004 0.550929 -0.058288
v -0.716735 0.548784 -0.159132
v -0.711615 0.563357 0.027279
v -0.775531 0.582225 0.027279
v -0.772746 0.565317 0.042281
v -0.724004 0.550929 0.042281
v -0.775531 0.582225 -0.043286
v -0.711615 0.563357 -0.043286
v -0.724004 0.550929 -0.058288
v -0.772746 0.565317 -0.058288
v -0.791750 0.587012 -0.167236
v -0.775531 0.582225 -0.043286
v -0.772746 0.565317 -0.058288
v -0.784235 0.568709 -0.159132
v -0.701353 0.560328 -0.167236
v -0.791750 0.587012 -0.167236
v -0.784235 0.568709 -0.159132
v -0.716735 0.548784 -0.159132
v -0.775531 0.582225 0.027279
v -0.791750 0.587012 0.151229
v -0.784235 0.568709 0.143126
v -0.772746 0.565317 0.042281
v -0.711615 0.563357 -0.043286
v -0.701353 0.560328 -0.167236
v -0.716735 0.548784 -0.159132
v -0.724004 0.550929 -0.058288
v -0.935339 0.518574 -0.056730
v -0.935339 0.518574 0.040723
v -0.850580 0.480341 0.026978
v -0.850580 0.480341 -0.042984
v -0.935339 0.518574 0.040723
v -0.960775 0.432403 0.040723
v -0.868842 0.418478 0.026978
v -0.850580 0.480341 0.026978
v -0.960775 0.432403 0.040723
v -0.960775 0.432403 -0.056730
v -0.868842 0.418478 -0.042984
v -0.868842 0.418478 0.026978
v -0.960775 0.432403 -0.056730
v -0.935339 0.518574 -0.056730
v -0.850580 0.480341 -0.042984
v -0.868842 0.418478 -0.042984
v -0.850580 0.480341 -0.042984
v -0.850580 0.480341 0.026978
v -0.868842 0.418478 0.026978
v -0.868842 0.418478 -0.042984
v -0.960775 0.432403 -0.056730
v -0.960775 0.432403 0.040723
v -0.935339 0.518574 0.040723
v -0.935339 0.518574 -0.056730
v -0.928494 0.312609 0.211980
v -0.692966 0.243084 0.211980
v -0.607497 0.532623 0.211980
v -0.843026 0.602148 0.211980
v -0.928494 0.312609 0.211980
v -0.843026 0.602148 0.211980
v -0.843026 0.602148 0.151229
v -0.843026 0.602148 -0.167236
v -0.843026 0.602148 -0.227987
v -0.928494 0.312609 -0.227987
v -0.659914 -0.047085 -0.232039
v -0.632903 -0.055992 -0.232039
v -0.632903 -0.055992 -0.166638
v -0.659914 -0.047085 -0.166638
v -0.659914 -0.047085 -0.166638
v -0.632903 -0.055992 -0.166638
v -0.617565 -0.000000 -0.166638
v -0.644575 -0.000000 -0.166638
v -0.659914 0.047085 -0.166638
v -0.632903 0.055992 -0.166638
v -0.644575 -0.000000 -0.232039
v -0.632903 -0.055992 -0.232039
v -0.659914 -0.047085 -0.232039
v -0.617565 -0.000000 -0.232039
v -0.632903 0.055992 -0.232039
v -0.659914 0.047085 -0.232039
v -0.632903 -0.055992 -0.232039
v -0.617565 -0.000000 -0.232039
v -0.617565 -0.000000 -0.166638
v -0.632903 -0.055992 -0.166638
v -0.644575 -0.000000 -0.232039
v -0.659914 -0.047085 -0.232039
v -0.659914 -0.047085 -0.166638
v -0.644575 -0.000000 -0.166638
v -0.697487 -0.102005 -0.185127
v -0.697479 -0.102007 -0.213568
v -0.635368 -0.122489 -0.213550
v -0.635376 -0.122486 -0.185109
v -0.635376 -0.122486 -0.185109
v -0.635368 -0.122489 -0.213550
v -0.604692 -0.029461 -0.213550
v -0.604699 -0.029459 -0.185109
v -0.604699 -0.029459 -0.185109
v -0.604692 -0.029461 -0.213550
v -0.666803 -0.008980 -0.213568
v -0.666810 -0.008977 -0.185127
v -0.666810 -0.008977 -0.185127
v -0.666803 -0.008980 -0.213568
v -0.697479 -0.102007 -0.213568
v -0.697487 -0.102005 -0.185127
v -0.697479 -0.102007 -0.213568
v -0.666803 -0.008980 -0.213568
v -0.604692 -0.029461 -0.213550
v -0.635368 -0.122489 -0.213550
v -0.666810 -0.008977 -0.185127
v -0.697487 -0.102005 -0.185127
v -0.635376 -0.122486 -0.185109
v -0.604699 -0.029459 -0.185109
v -0.698078 -0.162820 -0.232039
v -0.671068 -0.171727 -0.232039
v -0.671068 -0.171727 -0.166638
v -0.698078 -0.162820 -0.166638
v -0.698078 -0.162820 -0.166638
v -0.671068 -0.171727 -0.166638
v -0.640391 -0.078700 -0.166638
v -0.667402 -0.069793 -0.166638
v -0.667402 -0.069793 -0.166638
v -0.640391 -0.078700 -0.166638
v -0.640391 -0.078700 -0.232039
v -0.667402 -0.069793 -0.232039
v -0.667402 -0.069793 -0.232039
v -0.640391 -0.078700 -0.232039
v -0.671068 -0.171727 -0.232039
v -0.698078 -0.162820 -0.232039
v -0.671068 -0.171727 -0.232039
v -0.640391 -0.078700 -0.232039
v -0.640391 -0.078700 -0.166638
v -0.671068 -0.171727 -0.166638
v -0.667402 -0.069793 -0.232039
v -0.698078 -0.162820 -0.232039
v -0.698078 -0.162820 -0.166638
v -0.667402 -0.069793 -0.166638
v -0.670919 -0.223661 -0.185109
v -0.670911 -0.223664 -0.213550
v -0.643947 -0.148506 -0.213550
v -0.643955 -0.148503 -0.185109
v -0.643955 -0.148503 -0.185109
v -0.643947 -0.148506 -0.213550
v -0.706058 -0.128024 -0.213568
v -0.706066 -0.128022 -0.185127
v -0.706066 -0.128022 -0.185127
v -0.706058 -0.128024 -0.213568
v -0.736735 -0.221052 -0.213568
v -0.736742 -0.221049 -0.185127
v -0.736735 -0.221052 -0.213568
v -0.706058 -0.128024 -0.213568
v -0.643947 -0.148506 -0.213550
v -0.670911 -0.223664 -0.213550
v -0.706066 -0.128022 -0.185127
v -0.736742 -0.221049 -0.185127
v -0.670919 -0.223661 -0.185109
v -0.643955 -0.148503 -0.185109
v -0.659914 0.047085 -0.232039
v -0.659914 0.047085 -0.166638
v -0.632903 0.055992 -0.166638
v -0.632903 0.055992 -0.232039
v -0.632903 0.055992 -0.232039
v -0.632903 0.055992 -0.166638
v -0.617565 -0.000000 -0.166638
v -0.617565 -0.000000 -0.232039
v -0.644575 -0.000000 -0.232039
v -0.644575 -0.000000 -0.166638
v -0.659914 0.047085 -0.166638
v -0.659914 0.047085 -0.232039
v -0.697487 0.102005 -0.185127
v -0.635376 0.122486 -0.185109
v -0.635368 0.122489 -0.213550
v -0.697479 0.102007 -0.213568
v -0.635376 0.122486 -0.185109
v -0.604699 0.029459 -0.185109
v -0.604692 0.029461 -0.213550
v -0.635368 0.122489 -0.213550
v -0.604699 0.029459 -0.185109
v -0.666810 0.008977 -0.185127
v -0.666803 0.008980 -0.213568
v -0.604692 0.029461 -0.213550
v -0.666810 0.008977 -0.185127
v -0.697487 0.102005 -0.185127
v -0.697479 0.102007 -0.213568
v -0.666803 0.008980 -0.213568
v -0.697479 0.102007 -0.213568
v -0.635368 0.122489 -0.213550
v -0.604692 0.029461 -0.213550
v -0.666803 0.008980 -0.213568
v -0.666810 0.008977 -0.185127
v -0.604699 0.029459 -0.185109
v -0.635376 0.122486 -0.185109
v -0.697487 0.102005 -0.185127
v -0.698078 0.162820 -0.232039
v -0.698078 0.162820 -0.166638
v -0.671068 0.171727 -0.166638
v -0.671068 0.171727 -0.232039
v -0.698078 0.162820 -0.166638
v -0.667402 0.069793 -0.166638
v -0.640391 0.078700 -0.166638
v -0.671068 0.171727 -0.166638
v -0.667402 0.069793 -0.166638
v -0.667402 0.069793 -0.232039
v -0.640391 0.078700 -0.232039
v -0.640391 0.078700 -0.166638
v -0.667402 0.069793 -0.232039
v -0.698078 0.162820 -0.232039
v -0.671068 0.171727 -0.232039
v -0.640391 0.078700 -0.232039
v -0.671068 0.171727 -0.232039
v -0.671068 0.171727 -0.166638
v -0.640391 0.078700 -0.166638
v -0.640391 0.078700 -0.232039
v -0.667402 0.069793 -0.232039
v -0.667402 0.069793 -0.166638
v -0.698078 0.162820 -0.166638
v -0.698078 0.162820 -0.232039
v -0.670919 0.223661 -0.185109
v -0.643955 0.148503 -0.185109
v -0.643947 0.148506 -0.213550
v -0.670911 0.223664 -0.213550
v -0.643955 0.148503 -0.185109
v -0.706066 0.128022 -0.185127
v -0.706058 0.128024 -0.213568
v -0.643947 0.148506 -0.213550
v -0.706066 0.128022 -0.185127
v -0.736742 0.221049 -0.185127
v -0.736735 0.221052 -0.213568
v -0.706058 0.128024 -0.213568
v -0.736735 0.221052 -0.213568
v -0.670911 0.223664 -0.213550
v -0.643947 0.148506 -0.213550
v -0.706058 0.128024 -0.213568
v -0.706066 0.128022 -0.185127
v -0.643955 0.148503 -0.185109
v -0.670919 0.223661 -0.185109
v -0.736742 0.221049 -0.185127
v -0.649466 -0.188996 -0.238554
v -0.649466 -0.231533 -0.238554
v -1.199713 -0.397999 -0.302694
v -1.212103 -0.355462 -0.302694
v -0.945053 -0.330962 0.291890
v -0.649463 -0.244859 0.202458
v -0.649465 -0.202323 0.202458
v -0.649465 0.202323 0.202458
v -0.649466 0.244859 0.202458
v -0.945056 0.330962 0.291885
v -0.903102 0.322352 0.022502
v -0.979270 0.322352 0.022502
v -1.021224 0.330272 0.283913
v -0.945056 0.330272 0.251089
v -1.026173 0.330962 0.324709
v -0.945056 0.330962 0.291885
v -0.649466 0.243940 0.130744
v -0.649466 0.244859 0.202458
v -0.649465 0.202323 0.202458
v -0.649466 0.231533 -0.238554
v -0.649466 0.201403 0.130744
v -0.649466 0.188996 -0.238554
v -0.649465 -0.202323 0.202458
v -0.649466 -0.201548 0.130743
v -0.649466 -0.231533 -0.238554
v -0.649466 -0.188996 -0.238554
v -0.649463 -0.244859 0.202458
v -0.649466 -0.244085 0.130743
v -0.649466 0.188996 -0.238554
v -1.212103 0.355462 -0.302694
v -1.199713 0.397999 -0.302694
v -0.649466 0.231533 -0.238554
v -0.945053 -0.330962 0.291890
v -1.026170 -0.330962 0.324714
v -1.021224 -0.330271 0.283922
v -0.945056 -0.330271 0.251098
v -0.979270 -0.322352 0.022502
v -0.903102 -0.322352 0.022502
v -1.199713 -0.397999 -0.302694
v -1.275881 -0.421112 -0.313974
v -1.288271 -0.376105 -0.313974
v -1.212103 -0.355462 -0.302694
v -0.945056 0.287735 0.251094
v -1.021224 0.287735 0.283918
v -0.991661 0.279815 0.022502
v -0.915493 0.279815 0.022502
v -0.903102 -0.322352 0.022502
v -0.979270 -0.322352 0.022502
v -1.275881 -0.421112 -0.313974
v -1.199713 -0.397999 -0.302694
v -0.945056 -0.287734 0.251098
v -0.945056 0.287735 0.251094
v -0.649466 0.201403 0.130744
v -0.649466 -0.201548 0.130743
v -0.903102 -0.322352 0.022502
v -1.199713 -0.397999 -0.302694
v -0.649466 -0.231533 -0.238554
v -0.649466 -0.244085 0.130743
v -0.945056 -0.330271 0.251098
v -0.649463 -0.244859 0.202458
v -0.945053 -0.330962 0.291890
v -0.649466 0.231533 -0.238554
v -1.199713 0.397999 -0.302694
v -0.903102 0.322352 0.022502
v -0.649466 0.243940 0.130744
v -0.945056 0.330272 0.251089
v -0.649466 0.244859 0.202458
v -0.945056 0.330962 0.291885
v -0.915493 0.279815 0.022502
v -1.212103 0.355462 -0.302694
v -0.649466 0.188996 -0.238554
v -0.649466 0.201403 0.130744
v -0.945056 0.287735 0.251094
v -0.649466 -0.188996 -0.238554
v -1.212103 -0.355462 -0.302694
v -0.915493 -0.279815 0.022502
v -0.649466 -0.201548 0.130743
v -0.945056 -0.287734 0.251098
v -1.288271 -0.376105 -0.313974
v -1.275881 -0.421112 -0.313974
v -0.979270 -0.322352 0.022502
v -0.991661 -0.279815 0.022502
v -1.288271 0.376105 -0.313974
v -0.991661 0.279815 0.022502
v -0.979270 0.322352 0.022502
v -1.275881 0.421112 -0.313974
v -1.021224 -0.287734 0.283922
v -0.991661 -0.279815 0.022502
v -0.979270 -0.322352 0.022502
v -1.021224 -0.330271 0.283922
v -1.021224 0.287735 0.283918
v -1.021224 0.330272 0.283913
v -0.979270 0.322352 0.022502
v -0.991661 0.279815 0.022502
v -1.026170 -0.330962 0.324714
v -1.026173 0.330962 0.324709
v -1.021224 0.330272 0.283913
v -1.021224 0.287735 0.283918
v -1.021224 -0.287734 0.283922
v -1.021224 -0.330271 0.283922
v -0.915493 0.279815 0.022502
v -0.991661 0.279815 0.022502
v -1.288271 0.376105 -0.313974
v -1.212103 0.355462 -0.302694
v -1.199713 0.397999 -0.302694
v -1.275881 0.421112 -0.313974
v -0.979270 0.322352 0.022502
v -0.903102 0.322352 0.022502
v -0.915493 -0.279815 0.022502
v -0.991661 -0.279815 0.022502
v -1.021224 -0.287734 0.283922
v -0.945056 -0.287734 0.251098
v -1.212103 0.355462 -0.302694
v -1.288271 0.376105 -0.313974
v -1.275881 0.421112 -0.313974
v -1.199713 0.397999 -0.302694
v -1.212103 -0.355462 -0.302694
v -1.288271 -0.376105 -0.313974
v -0.991661 -0.279815 0.022502
v -0.915493 -0.279815 0.022502
v -0.945056 0.330962 0.291885
v -1.026173 0.330962 0.324709
v -1.026170 -0.330962 0.324714
v -0.945053 -0.330962 0.291890
v -0.945056 -0.287734 0.251098
v -1.021224 -0.287734 0.283922
v -1.021224 0.287735 0.283918
v -0.945056 0.287735 0.251094
vt 0.228566721 0.425677001
vt 0.228567094 0.503357112
vt 0.228567317 0.55104351
vt 0.228567317 0.55104351
vt 0.228567094 0.503357112
vt 0.228566721 0.425677001
vt 0.0692303777 0.520219922
vt 0.0692303702 0.583219707
vt 0.0810849518 0.583219707
vt 0.0956347138 0.520219862
vt 0.0956346914 0.583219707
vt 0.759330809 0.244609594
vt 0.759330809 0.176730275
vt 0.74846983 0.176730275
vt 0.74846983 0.244609594
vt 0.87533325 0.176730275
vt 0.87533325 0.244609594
vt 0.88619411 0.244609594
vt 0.88619411 0.176730275
vt 0.862080753 0.244567037
vt 0.862080753 0.176959932
vt 0.84878695 0.176730275
vt 0.848787129 0.244337499
vt 0.880940735 0.153405249
vt 0.880940735 0.0855258703
vt 0.868325293 0.0855258703
vt 0.868325293 0.153405249
vt 0.835492373 0.244609594
vt 0.835493028 0.176730275
vt 0.821528494 0.176730275
vt 0.821528494 0.244609594
vt 0.18706952 0.425677299
vt 0.166730449 0.425677478
vt 0.166731387 0.601400495
vt 0.187069908 0.495700955
vt 0.194993824 0.472893924
vt 0.221144885 0.472892702
vt 0.228567094 0.503357112
vt 0.228566721 0.425677001
vt 0.187070221 0.563144803
vt 0.187070444 0.601400375
vt 0.228567317 0.55104351
vt 0.252191484 0.425676852
vt 0.252191871 0.503356993
vt 0.259613812 0.472892433
vt 0.285763502 0.472892284
vt 0.25219211 0.551043332
vt 0.29368934 0.563143969
vt 0.293689519 0.601399601
vt 0.293689042 0.49570021
vt 0.293688685 0.425676554
vt 0.314027756 0.425676405
vt 0.29368934 0.563143969
vt 0.314028174 0.504569471
vt 0.314028621 0.601399481
vt 0.855072737 0.153335273
vt 0.868325293 0.153133094
vt 0.868325293 0.0855258703
vt 0.855072737 0.0857279897
vt 0.862080753 0.176730275
vt 0.862080812 0.244337499
vt 0.87533325 0.244539618
vt 0.87533325 0.176932395
vt 0.821528494 0.244609594
vt 0.821528494 0.176730275
vt 0.807563901 0.176730275
vt 0.807563901 0.244609594
vt 0.835493267 0.244567156
vt 0.84878695 0.244337499
vt 0.84878695 0.176730275
vt 0.835493028 0.176959932
vt 0.84658289 0.14558731
vt 0.843472421 0.14813225
vt 0.843472421 0.163770184
vt 0.84658289 0.166530117
vt 0.874462903 0.145544872
vt 0.871471524 0.14722465
vt 0.871471524 0.168129429
vt 0.874462903 0.171239302
vt 0.187164709 0.424842
vt 0.166771963 0.424835324
vt 0.166747019 0.534323633
vt 0.195103124 0.454263479
vt 0.314433515 0.534371555
vt 0.221323282 0.454271972
vt 0.228771538 0.424855471
vt 0.259893686 0.454284489
vt 0.252458721 0.42486316
vt 0.286114007 0.454292983
vt 0.294065684 0.42487663
vt 0.314458519 0.424883246
vt 0.130784184 0.16196692
vt 0.140636429 0.16196692
vt 0.142105684 0.14106214
vt 0.128461868 0.14106214
vt 0.142105684 0.16196692
vt 0.1557495 0.16196692
vt 0.15428026 0.14106214
vt 0.144428 0.14106214
vt 0.822574496 0.146074638
vt 0.819352508 0.148359165
vt 0.819352508 0.159651324
vt 0.822574496 0.160882279
vt 0.81853801 0.146074638
vt 0.815316021 0.147305593
vt 0.815316021 0.158597752
vt 0.81853801 0.160882279
vt 0.843472421 0.14558731
vt 0.840481043 0.147267148
vt 0.840481043 0.168171927
vt 0.843472421 0.1712818
vt 0.849693179 0.14558731
vt 0.84658289 0.148347184
vt 0.84658289 0.163985059
vt 0.849693179 0.166530058
vt 0.771903813 0.1712818
vt 0.77489531 0.168171927
vt 0.77489531 0.147267148
vt 0.771903813 0.14558731
vt 0.868479967 0.171239302
vt 0.871471524 0.168129489
vt 0.871471524 0.14722465
vt 0.868479967 0.145544872
vt 0.492672265 0.968405008
vt 0.492064029 0.96326375
vt 0.488968134 0.96326375
vt 0.488359898 0.968405008
vt 0.510338366 0.963143229
vt 0.510951221 0.96831727
vt 0.514034688 0.96831727
vt 0.514633417 0.963143229
vt 0.521563709 0.968295336
vt 0.520955503 0.96313262
vt 0.517859578 0.96313262
vt 0.517251372 0.968295336
vt 0.488359898 0.968437791
vt 0.48776114 0.96326375
vt 0.484677702 0.96326375
vt 0.484064847 0.968437791
vt 0.508404613 0.966853619
vt 0.508404613 0.96326375
vt 0.505308747 0.96326375
vt 0.505308747 0.966853619
vt 0.496984601 0.96326375
vt 0.492672265 0.96326375
vt 0.492672265 0.968264103
vt 0.496984601 0.968264103
vt 0.0956347138 0.520219862
vt 0.0956347361 0.583219647
vt 0.122039072 0.583219707
vt 0.122039072 0.520219862
vt 0.166216239 0.425342977
vt 0.166042536 0.599954545
vt 0.313658834 0.600161791
vt 0.313832551 0.425550222
vt 0.187677205 0.425371468
vt 0.293622136 0.425521493
vt 0.0810849518 0.583219707
vt 0.0692303702 0.583219707
vt 0.0692303777 0.520219922
vt 0.0956347138 0.520219862
vt 0.0956346914 0.583219707
vt 0.759330809 0.244609594
vt 0.74846983 0.244609594
vt 0.74846983 0.176730275
vt 0.759330809 0.176730275
vt 0.87533325 0.176730275
vt 0.88619411 0.176730275
vt 0.88619411 0.244609594
vt 0.87533325 0.244609594
vt 0.862080753 0.244567037
vt 0.848787129 0.244337499
vt 0.84878695 0.176730275
vt 0.862080753 0.176959932
vt 0.880940735 0.153405249
vt 0.868325293 0.153405249
vt 0.868325293 0.0855258703
vt 0.880940735 0.0855258703
vt 0.835492373 0.244609594
vt 0.821528494 0.244609594
vt 0.821528494 0.176730275
vt 0.835493028 0.176730275
vt 0.187070444 0.601400375
vt 0.166731387 0.601400495
vt 0.166730449 0.425677478
vt 0.187070221 0.563144803
vt 0.187069908 0.495700955
vt 0.18706952 0.425677299
vt 0.194993824 0.472893924
vt 0.221144885 0.472892702
vt 0.228567094 0.503357112
vt 0.228566721 0.425677001
vt 0.228567317 0.55104351
vt 0.25219211 0.551043332
vt 0.293689519 0.601399601
vt 0.29368934 0.563143969
vt 0.252191871 0.503356993
vt 0.252191484 0.425676852
vt 0.259613812 0.472892433
vt 0.285763502 0.472892284
vt 0.293689042 0.49570021
vt 0.29368934 0.563143969
vt 0.314028621 0.601399481
vt 0.293688685 0.425676554
vt 0.314028174 0.504569471
vt 0.314027756 0.425676405
vt 0.855072737 0.153335273
vt 0.855072737 0.0857279897
vt 0.868325293 0.0855258703
vt 0.868325293 0.153133094
vt 0.862080753 0.176730275
vt 0.87533325 0.176932395
vt 0.87533325 0.244539618
vt 0.862080812 0.244337499
vt 0.821528494 0.244609594
vt 0.807563901 0.244609594
vt 0.807563901 0.176730275
vt 0.821528494 0.176730275
vt 0.835493267 0.244567156
vt 0.835493028 0.176959932
vt 0.84878695 0.176730275
vt 0.84878695 0.244337499
vt 0.84658289 0.14558731
vt 0.84658289 0.166530117
vt 0.843472421 0.163770184
vt 0.843472421 0.14813225
vt 0.874462903 0.145544872
vt 0.874462903 0.171239302
vt 0.871471524 0.168129429
vt 0.871471524 0.14722465
vt 0.166771963 0.424835324
vt 0.187164709 0.424842
vt 0.195103124 0.454263479
vt 0.166747019 0.534323633
vt 0.314433515 0.534371555
vt 0.221323282 0.454271972
vt 0.228771538 0.424855471
vt 0.259893686 0.454284489
vt 0.252458721 0.42486316
vt 0.286114007 0.454292983
vt 0.294065684 0.42487663
vt 0.314458519 0.424883246
vt 0.130784184 0.16196692
vt 0.128461868 0.14106214
vt 0.142105684 0.14106214
vt 0.140636429 0.16196692
vt 0.142105684 0.16196692
vt 0.144428 0.14106214
vt 0.15428026 0.14106214
vt 0.1557495 0.16196692
vt 0.822574496 0.146074638
vt 0.822574496 0.160882279
vt 0.819352508 0.159651324
vt 0.819352508 0.148359165
vt 0.81853801 0.146074638
vt 0.81853801 0.160882279
vt 0.815316021 0.158597752
vt 0.815316021 0.147305593
vt 0.843472421 0.14558731
vt 0.843472421 0.1712818
vt 0.840481043 0.168171927
vt 0.840481043 0.147267148
vt 0.849693179 0.14558731
vt 0.849693179 0.166530058
vt 0.84658289 0.163985059
vt 0.84658289 0.148347184
vt 0.771903813 0.1712818
vt 0.771903813 0.14558731
vt 0.77489531 0.147267148
vt 0.77489531 0.168171927
vt 0.868479967 0.171239302
vt 0.868479967 0.145544872
vt 0.871471524 0.14722465
vt 0.871471524 0.168129489
vt 0.492672265 0.968405008
vt 0.488359898 0.968405008
vt 0.488968134 0.96326375
vt 0.492064029 0.96326375
vt 0.510338366 0.963143229
vt 0.514633417 0.963143229
vt 0.514034688 0.96831727
vt 0.510951221 0.96831727
vt 0.521563709 0.968295336
vt 0.517251372 0.968295336
vt 0.517859578 0.96313262
vt 0.520955503 0.96313262
vt 0.488359898 0.968437791
vt 0.484064847 0.968437791
vt 0.484677702 0.96326375
vt 0.48776114 0.96326375
vt 0.508404613 0.966853619
vt 0.505308747 0.966853619
vt 0.505308747 0.96326375
vt 0.508404613 0.96326375
vt 0.496984601 0.96326375
vt 0.496984601 0.968264103
vt 0.492672265 0.968264103
vt 0.492672265 0.96326375
vt 0.0956347138 0.520219862
vt 0.122039072 0.520219862
vt 0.122039072 0.583219707
vt 0.0956347361 0.583219647
vt 0.166042536 0.599954545
vt 0.166216239 0.425342977
vt 0.187677205 0.425371468
vt 0.293622136 0.425521493
vt 0.313832551 0.425550222
vt 0.313658834 0.600161791
vt 0.852160633 0.129856318
vt 0.862292647 0.129856318
vt 0.862292647 0.101202279
vt 0.852160633 0.101202279
vt 0.870930314 0.190938443
vt 0.858959973 0.187036008
vt 0.852162421 0.21156773
vt 0.864132881 0.21156773
vt 0.870930314 0.232197016
vt 0.858959973 0.236099392
vt 0.882900715 0.21156773
vt 0.877727866 0.236099392
vt 0.889698207 0.232197016
vt 0.870930314 0.21156773
vt 0.877727866 0.187036008
vt 0.889698207 0.190938443
vt 0.862292647 0.129856318
vt 0.876519263 0.129856318
vt 0.876519263 0.101202279
vt 0.862292647 0.101202279
vt 0.794192612 0.208732218
vt 0.7941944 0.22623089
vt 0.82317847 0.22623089
vt 0.823176682 0.208732218
vt 0.892349362 0.642941475
vt 0.904953718 0.64294076
vt 0.904949546 0.6199072
vt 0.89234513 0.619907916
vt 0.89234513 0.619907916
vt 0.904949546 0.6199072
vt 0.904953718 0.594378829
vt 0.892349362 0.594379604
vt 0.891770542 0.508545101
vt 0.879166186 0.50854516
vt 0.879166365 0.537199199
vt 0.891770661 0.53719914
vt 0.854809344 0.677964747
vt 0.867413759 0.677963972
vt 0.867413759 0.643442214
vt 0.854809344 0.643442988
vt 0.767855406 0.551461995
vt 0.767855346 0.594378829
vt 0.796839476 0.594378829
vt 0.796839416 0.551461995
vt 0.796839476 0.508545101
vt 0.796839476 0.551461995
vt 0.825823545 0.551461995
vt 0.825823545 0.508545101
vt 0.736224413 0.187036008
vt 0.736224413 0.197052807
vt 0.765208483 0.197052807
vt 0.765208483 0.187036008
vt 0.768983722 0.272869855
vt 0.781588078 0.272869855
vt 0.781588078 0.229952961
vt 0.768983662 0.229952961
vt 0.736224413 0.279889196
vt 0.748828769 0.279889196
vt 0.748828769 0.251235157
vt 0.736224413 0.251235157
vt 0.806797028 0.226230949
vt 0.794192612 0.22623089
vt 0.794192612 0.269147784
vt 0.806797028 0.269147843
vt 0.736224413 0.197052807
vt 0.736224413 0.222581118
vt 0.765208483 0.222581118
vt 0.765208483 0.197052807
vt 0.881144702 0.178643912
vt 0.881144702 0.144122094
vt 0.852160633 0.144119173
vt 0.852160633 0.178640991
vt 0.896400213 0.562953115
vt 0.909004629 0.56295234
vt 0.909008801 0.537424028
vt 0.896404505 0.537424803
vt 0.891770661 0.53719914
vt 0.904375076 0.53719914
vt 0.904375076 0.50854516
vt 0.891770661 0.508545101
vt 0.89234513 0.677464068
vt 0.904949546 0.677463293
vt 0.904949546 0.642941475
vt 0.89234513 0.64294225
vt 0.825823545 0.551461995
vt 0.825823545 0.594378948
vt 0.854807556 0.594378948
vt 0.854807556 0.551461995
vt 0.738871157 0.50854516
vt 0.738871217 0.551461995
vt 0.767855287 0.551461995
vt 0.767855346 0.508545101
vt 0.736224413 0.222581118
vt 0.736224413 0.251235157
vt 0.746356487 0.251235157
vt 0.746356487 0.222581118
vt 0.746356487 0.222581118
vt 0.746356487 0.251235157
vt 0.760583043 0.251235157
vt 0.760583043 0.222581118
vt 0.794192612 0.208732218
vt 0.823176682 0.208732218
vt 0.823176682 0.187036067
vt 0.794192612 0.187036008
vt 0.883795798 0.537424028
vt 0.883791625 0.560457706
vt 0.896396041 0.560458422
vt 0.896400213 0.537424803
vt 0.883791625 0.560457706
vt 0.883795798 0.585985959
vt 0.896400213 0.585986733
vt 0.896396041 0.560458422
vt 0.904375076 0.508545101
vt 0.904375076 0.53719914
vt 0.916979551 0.53719914
vt 0.916979551 0.508545101
vt 0.784234941 0.637295783
vt 0.784234941 0.680212617
vt 0.796839356 0.680212617
vt 0.796839356 0.637295783
vt 0.767855167 0.551462054
vt 0.738871157 0.551461995
vt 0.738871157 0.594378948
vt 0.767855227 0.594378948
vt 0.796839476 0.594378829
vt 0.825823545 0.594378889
vt 0.825823545 0.551461995
vt 0.796839535 0.551461995
vt 0.82317847 0.222581118
vt 0.852162421 0.222581118
vt 0.852162421 0.212564379
vt 0.82317847 0.212564379
vt 0.902306795 0.187036008
vt 0.902306795 0.229952961
vt 0.914911211 0.229952961
vt 0.914911211 0.187036067
vt 0.902302623 0.235598654
vt 0.902302623 0.264252752
vt 0.914906979 0.264252752
vt 0.914906979 0.235598654
vt 0.848391414 0.265498012
vt 0.848391414 0.222581118
vt 0.835787117 0.222581178
vt 0.835787117 0.265498072
vt 0.82317847 0.212564379
vt 0.852162421 0.212564379
vt 0.852162421 0.187036008
vt 0.82317847 0.187036127
vt 0.852160633 0.101202279
vt 0.823176682 0.101202279
vt 0.823176682 0.144119114
vt 0.852160633 0.144119114
vt 0.825825334 0.652957499
vt 0.825829446 0.678485811
vt 0.838433981 0.678486466
vt 0.838429749 0.652958214
vt 0.867413759 0.643442214
vt 0.867413759 0.672096252
vt 0.880018234 0.672096252
vt 0.880018234 0.643442273
vt 0.822048366 0.676490664
vt 0.822048366 0.633573771
vt 0.809443891 0.633573711
vt 0.809443891 0.676490664
vt 0.796839356 0.594378829
vt 0.767855346 0.594378829
vt 0.767855346 0.637295783
vt 0.796839356 0.637295783
vt 0.767855346 0.551461995
vt 0.796839476 0.551461995
vt 0.796839416 0.508545101
vt 0.767855346 0.50854516
vt 0.789497316 0.158745557
vt 0.785448372 0.159963757
vt 0.785097182 0.217178404
vt 0.789497316 0.217148781
vt 0.886086941 0.14530617
vt 0.917701125 0.136675417
vt 0.917700946 0.132411569
vt 0.917701125 0.0918503478
vt 0.917700946 0.0875865296
vt 0.886087 0.0789555386
vt 0.777288616 0.550860047
vt 0.800383627 0.562179804
vt 0.820354044 0.527785301
vt 0.797259033 0.516465485
vt 0.822849274 0.521123528
vt 0.799754202 0.509803772
vt 0.799051821 0.208931506
vt 0.794767976 0.208839297
vt 0.794767976 0.213103175
vt 0.835733533 0.210175157
vt 0.799051821 0.213195324
vt 0.835733533 0.214438975
vt 0.794767976 0.253664374
vt 0.799051881 0.253586769
vt 0.835733533 0.256592453
vt 0.835733533 0.252328575
vt 0.794767976 0.257928252
vt 0.799051881 0.257850647
vt 0.785097182 0.217178464
vt 0.785097182 0.15877521
vt 0.780696988 0.158745557
vt 0.781048119 0.215960205
vt 0.754193604 0.635990739
vt 0.777288616 0.624670863
vt 0.774794221 0.618009508
vt 0.751699209 0.629329443
vt 0.754823148 0.583613634
vt 0.731728196 0.59493351
vt 0.795885444 0.635989666
vt 0.795885444 0.664732099
vt 0.802491069 0.666933179
vt 0.802491069 0.638190866
vt 0.884577811 0.631539106
vt 0.907211244 0.619058967
vt 0.887663841 0.584763408
vt 0.865030408 0.597243667
vt 0.731728196 0.59493351
vt 0.754823148 0.583613634
vt 0.777288616 0.509803772
vt 0.754193604 0.521123648
vt 0.886086941 0.14530617
vt 0.886087 0.202990651
vt 0.916050076 0.194336772
vt 0.916050076 0.153945357
vt 0.87320894 0.119123526
vt 0.886086941 0.0789555386
vt 0.844122231 0.102696545
vt 0.856651664 0.137436122
vt 0.884683967 0.139181256
vt 0.858133972 0.141488105
vt 0.886086941 0.143013358
vt 0.738728404 0.199057043
vt 0.780696988 0.222805023
vt 0.767817974 0.182633936
vt 0.751263142 0.164319217
vt 0.779293418 0.162577808
vt 0.752741754 0.160266399
vt 0.780696988 0.158745557
vt 0.83130306 0.121810772
vt 0.844122231 0.0789555386
vt 0.794767976 0.110889859
vt 0.811417639 0.143898249
vt 0.844122231 0.140955418
vt 0.794767976 0.176905155
vt 0.844122231 0.208839297
vt 0.831302941 0.165984094
vt 0.811421335 0.143898249
vt 0.844122231 0.146839201
vt 0.809096694 0.690633178
vt 0.815972984 0.690367579
vt 0.815972984 0.635989666
vt 0.809096694 0.636255145
vt 0.815972984 0.635989666
vt 0.815972984 0.690367818
vt 0.822849214 0.690633178
vt 0.822849274 0.636255145
vt 0.858839333 0.741448045
vt 0.823053539 0.740041256
vt 0.822849274 0.747597814
vt 0.858839333 0.749004602
vt 0.858838737 0.639218688
vt 0.858838022 0.63166225
vt 0.822849274 0.633069277
vt 0.823053539 0.640625715
vt 0.865138054 0.749127388
vt 0.865137458 0.631539702
vt 0.858838022 0.63166225
vt 0.858838737 0.639218688
vt 0.858839333 0.741448045
vt 0.858839333 0.749004602
vt 0.865030408 0.597243667
vt 0.887663841 0.584763408
vt 0.907211244 0.509803772
vt 0.884577751 0.522283912
vt 0.799754202 0.62466985
vt 0.822849214 0.635989666
vt 0.800383627 0.562179804
vt 0.777288616 0.550860047
vt 0.822849274 0.544099927
vt 0.845482707 0.556580067
vt 0.865030408 0.522283912
vt 0.842396796 0.509803772
vt 0.802491069 0.638190866
vt 0.802491069 0.666933298
vt 0.809096694 0.664731979
vt 0.809096694 0.635989666
vt 0.842396796 0.619059563
vt 0.865030348 0.631539702
vt 0.845482707 0.556580067
vt 0.822849274 0.544099927
vt 0.932336926 0.509803772
vt 0.907211244 0.509803772
vt 0.90721184 0.627391458
vt 0.932337523 0.627391458
vt 0.890263677 0.631539702
vt 0.865138054 0.631539702
vt 0.865138054 0.733769059
vt 0.890263796 0.733769059
vn 0.283110 -0.959087 -0.000000
vn 0.283110 -0.959087 -0.000000
vn 0.283110 -0.959087 -0.000000
vn 0.283110 0.959087 -0.000000
vn 0.283110 0.959087 -0.000000
vn 0.283110 0.959087 -0.000000
vn 0.000000 0.000000 -1.000000
vn 0.000000 0.000000 -1.000000
vn 0.000000 0.000000 -1.000000
vn 0.000000 0.000000 -1.000000
vn 0.000000 0.000000 -1.000000
vn 0.959087 0.283111 -0.000000
vn 0.959087 0.283111 -0.000000
vn 0.959087 0.283111 -0.000000
vn 0.959087 0.283111 -0.000000
vn 0.959087 0.283111 -0.000000
vn 0.959087 0.283111 -0.000000
vn 0.959087 0.283111 -0.000000
vn 0.959087 0.283111 -0.000000
vn 0.323846 0.095601 0.941267
vn 0.323846 0.095601 0.941267
vn 0.323846 0.095601 0.941267
vn 0.323846 0.095601 0.941267
vn 0.959087 0.283111 -0.000000
vn 0.959087 0.283111 -0.000000
vn 0.959087 0.283111 -0.000000
vn 0.959087 0.283111 -0.000000
vn 0.959087 0.283111 -0.000000
vn 0.959087 0.283111 -0.000000
vn 0.959087 0.283111 -0.000000
vn 0.959087 0.283111 -0.000000
vn 0.283110 -0.959087 -0.000000
vn 0.283110 -0.959087 -0.000000
vn 0.283110 -0.959087 -0.000000
vn 0.283110 -0.959087 -0.000000
vn 0.283110 -0.959087 -0.000000
vn 0.283110 -0.959087 -0.000000
vn 0.283110 -0.959087 -0.000000
vn 0.283110 -0.959087 -0.000000
vn 0.283110 -0.959087 -0.000000
vn 0.283110 -0.959087 -0.000000
vn 0.283110 -0.959087 -0.000000
vn 0.283110 -0.959087 -0.000000
vn 0.283110 -0.959087 -0.000000
vn 0.283110 -0.959087 -0.000000
vn 0.283110 -0.959087 -0.000000
vn 0.283110 -0.959087 -0.000000
vn 0.283110 -0.959087 -0.000000
vn 0.283110 -0.959087 -0.000000
vn 0.283110 -0.959087 -0.000000
vn 0.283110 -0.959087 -0.000000
vn 0.283110 -0.959087 -0.000000
vn 0.283110 -0.959087 -0.000000
vn 0.283110 -0.959087 -0.000000
vn 0.283110 -0.959087 -0.000000
vn 0.305451 0.090165 -0.947929
vn 0.305451 0.090165 -0.947929
vn 0.305451 0.090165 -0.947929
vn 0.305451 0.090165 -0.947929
vn 0.305451 0.090165 0.947929
vn 0.305451 0.090165 0.947929
vn 0.305451 0.090165 0.947929
vn 0.305451 0.090165 0.947929
vn 0.959088 0.283109 -0.000000
vn 0.959088 0.283109 -0.000000
vn 0.959088 0.283109 -0.000000
vn 0.959088 0.283109 -0.000000
vn 0.323818 0.095586 -0.941279
vn 0.323818 0.095586 -0.941279
vn 0.323818 0.095586 -0.941279
vn 0.323818 0.095586 -0.941279
vn 0.131654 -0.446001 -0.885297
vn 0.131654 -0.446001 -0.885297
vn 0.131654 -0.446001 -0.885297
vn 0.131654 -0.446001 -0.885297
vn -0.642256 -0.763498 0.067665
vn -0.642256 -0.763498 0.067665
vn -0.642256 -0.763498 0.067665
vn -0.642256 -0.763498 0.067665
vn -0.283110 0.959087 -0.000000
vn -0.283110 0.959087 -0.000000
vn -0.283110 0.959087 -0.000000
vn -0.283110 0.959087 -0.000000
vn -0.283110 0.959087 -0.000000
vn -0.283110 0.959087 -0.000000
vn -0.283110 0.959087 -0.000000
vn -0.283110 0.959087 -0.000000
vn -0.283110 0.959087 -0.000000
vn -0.283110 0.959087 -0.000000
vn -0.283110 0.959087 -0.000000
vn -0.283110 0.959087 -0.000000
vn 0.283111 -0.959087 -0.000000
vn 0.283111 -0.959087 -0.000000
vn 0.283111 -0.959087 -0.000000
vn 0.283111 -0.959087 -0.000000
vn 0.283111 -0.959087 -0.000000
vn 0.283111 -0.959087 -0.000000
vn 0.283111 -0.959087 -0.000000
vn 0.283111 -0.959087 -0.000000
vn 0.197374 -0.668639 0.716914
vn 0.197374 -0.668639 0.716914
vn 0.197374 -0.668639 0.716914
vn 0.197374 -0.668639 0.716914
vn 0.197374 -0.668639 -0.716914
vn 0.197374 -0.668639 -0.716914
vn 0.197374 -0.668639 -0.716914
vn 0.197374 -0.668639 -0.716914
vn 0.948565 -0.298286 -0.106068
vn 0.948565 -0.298286 -0.106068
vn 0.948565 -0.298286 -0.106068
vn 0.948565 -0.298286 -0.106068
vn 0.131655 -0.446003 0.885296
vn 0.131655 -0.446003 0.885296
vn 0.131655 -0.446003 0.885296
vn 0.131655 -0.446003 0.885296
vn 0.948564 -0.298287 0.106069
vn 0.948564 -0.298287 0.106069
vn 0.948564 -0.298287 0.106069
vn 0.948564 -0.298287 0.106069
vn -0.642256 -0.763498 -0.067666
vn -0.642256 -0.763498 -0.067666
vn -0.642256 -0.763498 -0.067666
vn -0.642256 -0.763498 -0.067666
vn 0.411185 -0.911552 -0.000000
vn 0.411185 -0.911552 -0.000000
vn 0.411185 -0.911552 -0.000000
vn 0.411185 -0.911552 -0.000000
vn 0.141550 0.041784 0.989049
vn 0.141550 0.041784 0.989049
vn 0.141550 0.041784 0.989049
vn 0.141550 0.041784 0.989049
vn -0.149753 0.988723 -0.000000
vn -0.149753 0.988723 -0.000000
vn -0.149753 0.988723 -0.000000
vn -0.149753 0.988723 -0.000000
vn 0.141550 0.041784 -0.989049
vn 0.141550 0.041784 -0.989049
vn 0.141550 0.041784 -0.989049
vn 0.141550 0.041784 -0.989049
vn 0.959087 0.283113 -0.000000
vn 0.959087 0.283113 -0.000000
vn 0.959087 0.283113 -0.000000
vn 0.959087 0.283113 -0.000000
vn -0.959087 -0.283110 -0.000000
vn -0.959087 -0.283110 -0.000000
vn -0.959087 -0.283110 -0.000000
vn -0.959087 -0.283110 -0.000000
vn 0.000000 0.000000 1.000000
vn 0.000000 0.000000 1.000000
vn 0.000000 0.000000 1.000000
vn 0.000000 0.000000 1.000000
vn -0.959087 -0.283111 -0.000000
vn -0.959087 -0.283111 -0.000000
vn -0.959087 -0.283111 -0.000000
vn -0.959087 -0.283111 -0.000000
vn -0.959087 -0.283111 -0.000000
vn -0.959087 -0.283111 -0.000000
vn 0.000000 0.000000 -1.000000
vn 0.000000 0.000000 -1.000000
vn 0.000000 0.000000 -1.000000
vn 0.000000 0.000000 -1.000000
vn 0.000000 0.000000 -1.000000
vn 0.959087 -0.283111 -0.000000
vn 0.959087 -0.283111 -0.000000
vn 0.959087 -0.283111 -0.000000
vn 0.959087 -0.283111 -0.000000
vn 0.959087 -0.283111 -0.000000
vn 0.959087 -0.283111 -0.000000
vn 0.959087 -0.283111 -0.000000
vn 0.959087 -0.283111 -0.000000
vn 0.323846 -0.095601 0.941267
vn 0.323846 -0.095601 0.941267
vn 0.323846 -0.095601 0.941267
vn 0.323846 -0.095601 0.941267
vn 0.959087 -0.283111 -0.000000
vn 0.959087 -0.283111 -0.000000
vn 0.959087 -0.283111 -0.000000
vn 0.959087 -0.283111 -0.000000
vn 0.959087 -0.283111 -0.000000
vn 0.959087 -0.283111 -0.000000
vn 0.959087 -0.283111 -0.000000
vn 0.959087 -0.283111 -0.000000
vn 0.283111 0.959087 -0.000000
vn 0.283111 0.959087 -0.000000
vn 0.283111 0.959087 -0.000000
vn 0.283111 0.959087 -0.000000
vn 0.283111 0.959087 -0.000000
vn 0.283111 0.959087 -0.000000
vn 0.283111 0.959087 -0.000000
vn 0.283110 0.959087 -0.000000
vn 0.283110 0.959087 -0.000000
vn 0.283110 0.959087 -0.000000
vn 0.283110 0.959087 -0.000000
vn 0.283110 0.959087 -0.000000
vn 0.283110 0.959087 -0.000000
vn 0.283110 0.959087 -0.000000
vn 0.283110 0.959087 -0.000000
vn 0.283110 0.959087 -0.000000
vn 0.283110 0.959087 -0.000000
vn 0.283110 0.959087 -0.000000
vn 0.283110 0.959087 -0.000000
vn 0.283110 0.959087 -0.000000
vn 0.283110 0.959087 -0.000000
vn 0.283110 0.959087 -0.000000
vn 0.283110 0.959087 -0.000000
vn 0.283110 0.959087 -0.000000
vn 0.305451 -0.090165 -0.947929
vn 0.305451 -0.090165 -0.947929
vn 0.305451 -0.090165 -0.947929
vn 0.305451 -0.090165 -0.947929
vn 0.305451 -0.090165 0.947929
vn 0.305451 -0.090165 0.947929
vn 0.305451 -0.090165 0.947929
vn 0.305451 -0.090165 0.947929
vn 0.959088 -0.283109 -0.000000
vn 0.959088 -0.283109 -0.000000
vn 0.959088 -0.283109 -0.000000
vn 0.959088 -0.283109 -0.000000
vn 0.323818 -0.095586 -0.941279
vn 0.323818 -0.095586 -0.941279
vn 0.323818 -0.095586 -0.941279
vn 0.323818 -0.095586 -0.941279
vn 0.131654 0.446002 -0.885296
vn 0.131654 0.446002 -0.885296
vn 0.131654 0.446002 -0.885296
vn 0.131654 0.446002 -0.885296
vn -0.642256 0.763498 0.067665
vn -0.642256 0.763498 0.067665
vn -0.642256 0.763498 0.067665
vn -0.642256 0.763498 0.067665
vn -0.283111 -0.959087 -0.000000
vn -0.283111 -0.959087 -0.000000
vn -0.283111 -0.959087 -0.000000
vn -0.283111 -0.959087 -0.000000
vn -0.283111 -0.959087 -0.000000
vn -0.283111 -0.959087 -0.000000
vn -0.283111 -0.959087 -0.000000
vn -0.283111 -0.959087 -0.000000
vn -0.283111 -0.959087 -0.000000
vn -0.283111 -0.959087 -0.000000
vn -0.283111 -0.959087 -0.000000
vn -0.283111 -0.959087 -0.000000
vn 0.283111 0.959087 0.000000
vn 0.283111 0.959087 0.000000
vn 0.283111 0.959087 0.000000
vn 0.283111 0.959087 0.000000
vn 0.283111 0.959087 -0.000000
vn 0.283111 0.959087 -0.000000
vn 0.283111 0.959087 -0.000000
vn 0.283111 0.959087 -0.000000
vn 0.197374 0.668639 0.716914
vn 0.197374 0.668639 0.716914
vn 0.197374 0.668639 0.716914
vn 0.197374 0.668639 0.716914
vn 0.197374 0.668639 -0.716914
vn 0.197374 0.668639 -0.716914
vn 0.197374 0.668639 -0.716914
vn 0.197374 0.668639 -0.716914
vn 0.948565 0.298286 -0.106068
vn 0.948565 0.298286 -0.106068
vn 0.948565 0.298286 -0.106068
vn 0.948565 0.298286 -0.106068
vn 0.131654 0.446003 0.885296
vn 0.131654 0.446003 0.885296
vn 0.131654 0.446003 0.885296
vn 0.131654 0.446003 0.885296
vn 0.948564 0.298287 0.106069
vn 0.948564 0.298287 0.106069
vn 0.948564 0.298287 0.106069
vn 0.948564 0.298287 0.106069
vn -0.642256 0.763498 -0.067666
vn -0.642256 0.763498 -0.067666
vn -0.642256 0.763498 -0.067666
vn -0.642256 0.763498 -0.067666
vn 0.411185 0.911552 -0.000000
vn 0.411185 0.911552 -0.000000
vn 0.411185 0.911552 -0.000000
vn 0.411185 0.911552 -0.000000
vn 0.141550 -0.041784 0.989049
vn 0.141550 -0.041784 0.989049
vn 0.141550 -0.041784 0.989049
vn 0.141550 -0.041784 0.989049
vn -0.149753 -0.988723 -0.000000
vn -0.149753 -0.988723 -0.000000
vn -0.149753 -0.988723 -0.000000
vn -0.149753 -0.988723 -0.000000
vn 0.141550 -0.041784 -0.989049
vn 0.141550 -0.041784 -0.989049
vn 0.141550 -0.041784 -0.989049
vn 0.141550 -0.041784 -0.989049
vn 0.959087 -0.283112 -0.000000
vn 0.959087 -0.283112 -0.000000
vn 0.959087 -0.283112 -0.000000
vn 0.959087 -0.283112 -0.000000
vn -0.959087 0.283111 -0.000000
vn -0.959087 0.283111 -0.000000
vn -0.959087 0.283111 -0.000000
vn -0.959087 0.283111 -0.000000
vn 0.000000 0.000000 1.000000
vn 0.000000 0.000000 1.000000
vn 0.000000 0.000000 1.000000
vn 0.000000 0.000000 1.000000
vn -0.959087 0.283111 -0.000000
vn -0.959087 0.283111 -0.000000
vn -0.959087 0.283111 -0.000000
vn -0.959087 0.283111 -0.000000
vn -0.959087 0.283111 -0.000000
vn -0.959087 0.283111 -0.000000
vn -0.313169 -0.949698 -0.000000
vn -0.313169 -0.949698 -0.000000
vn -0.313169 -0.949698 -0.000000
vn -0.313169 -0.949698 -0.000000
vn 0.000000 0.000000 1.000000
vn 0.000000 0.000000 1.000000
vn 0.000000 0.000000 1.000000
vn 0.000000 0.000000 1.000000
vn 0.000000 0.000000 1.000000
vn 0.000000 0.000000 1.000000
vn 0.000000 0.000000 -1.000000
vn 0.000000 0.000000 -1.000000
vn 0.000000 0.000000 -1.000000
vn 0.000000 0.000000 -1.000000
vn 0.000000 0.000000 -1.000000
vn 0.000000 0.000000 -1.000000
vn 0.964467 -0.264202 -0.000000
vn 0.964467 -0.264202 -0.000000
vn 0.964467 -0.264202 -0.000000
vn 0.964467 -0.264202 -0.000000
vn -0.950823 0.309736 -0.000000
vn -0.950823 0.309736 -0.000000
vn -0.950823 0.309736 -0.000000
vn -0.950823 0.309736 -0.000000
vn -0.313169 -0.949697 -0.000000
vn -0.313169 -0.949697 -0.000000
vn -0.313169 -0.949697 -0.000000
vn -0.313169 -0.949697 -0.000000
vn 0.949697 -0.313169 0.000274
vn 0.949697 -0.313169 0.000274
vn 0.949697 -0.313169 0.000274
vn 0.949697 -0.313169 0.000274
vn 0.313169 0.949697 0.000000
vn 0.313169 0.949697 0.000000
vn 0.313169 0.949697 0.000000
vn 0.313169 0.949697 0.000000
vn -0.949697 0.313169 -0.000278
vn -0.949697 0.313169 -0.000278
vn -0.949697 0.313169 -0.000278
vn -0.949697 0.313169 -0.000278
vn 0.000261 -0.000086 -1.000000
vn 0.000261 -0.000086 -1.000000
vn 0.000261 -0.000086 -1.000000
vn 0.000261 -0.000086 -1.000000
vn -0.000261 0.000086 1.000000
vn -0.000261 0.000086 1.000000
vn -0.000261 0.000086 1.000000
vn -0.000261 0.000086 1.000000
vn -0.313170 -0.949697 -0.000000
vn -0.313170 -0.949697 -0.000000
vn -0.313170 -0.949697 -0.000000
vn -0.313170 -0.949697 -0.000000
vn 0.000000 0.000000 1.000000
vn 0.000000 0.000000 1.000000
vn 0.000000 0.000000 1.000000
vn 0.000000 0.000000 1.000000
vn 0.313170 0.949697 -0.000000
vn 0.313170 0.949697 -0.000000
vn 0.313170 0.949697 -0.000000
vn 0.313170 0.949697 -0.000000
vn 0.000000 0.000000 -1.000000
vn 0.000000 0.000000 -1.000000
vn 0.000000 0.000000 -1.000000
vn 0.000000 0.000000 -1.000000
vn 0.949697 -0.313169 -0.000000
vn 0.949697 -0.313169 -0.000000
vn 0.949697 -0.313169 -0.000000
vn 0.949697 -0.313169 -0.000000
vn -0.949697 0.313169 -0.000000
vn -0.949697 0.313169 -0.000000
vn -0.949697 0.313169 -0.000000
vn -0.949697 0.313169 -0.000000
vn 0.941259 -0.337686 0.000273
vn 0.941259 -0.337686 0.000273
vn 0.941259 -0.337686 0.000273
vn 0.941259 -0.337686 0.000273
vn 0.313169 0.949697 -0.000000
vn 0.313169 0.949697 -0.000000
vn 0.313169 0.949697 -0.000000
vn 0.313169 0.949697 -0.000000
vn -0.949697 0.313169 -0.000276
vn -0.949697 0.313169 -0.000276
vn -0.949697 0.313169 -0.000276
vn -0.949697 0.313169 -0.000276
vn 0.000265 -0.000091 -1.000000
vn 0.000265 -0.000091 -1.000000
vn 0.000265 -0.000091 -1.000000
vn 0.000265 -0.000091 -1.000000
vn -0.000264 0.000091 1.000000
vn -0.000264 0.000091 1.000000
vn -0.000264 0.000091 1.000000
vn -0.000264 0.000091 1.000000
vn -0.313169 0.949698 -0.000000
vn -0.313169 0.949698 -0.000000
vn -0.313169 0.949698 -0.000000
vn -0.313169 0.949698 -0.000000
vn 0.964467 0.264202 -0.000000
vn 0.964467 0.264202 -0.000000
vn 0.964467 0.264202 -0.000000
vn 0.964467 0.264202 -0.000000
vn -0.950823 -0.309736 0.000000
vn -0.950823 -0.309736 0.000000
vn -0.950823 -0.309736 0.000000
vn -0.950823 -0.309736 0.000000
vn -0.313169 0.949697 0.000000
vn -0.313169 0.949697 0.000000
vn -0.313169 0.949697 0.000000
vn -0.313169 0.949697 0.000000
vn 0.949697 0.313169 0.000274
vn 0.949697 0.313169 0.000274
vn 0.949697 0.313169 0.000274
vn 0.949697 0.313169 0.000274
vn 0.313169 -0.949697 -0.000000
vn 0.313169 -0.949697 -0.000000
vn 0.313169 -0.949697 -0.000000
vn 0.313169 -0.949697 -0.000000
vn -0.949697 -0.313170 -0.000278
vn -0.949697 -0.313170 -0.000278
vn -0.949697 -0.313170 -0.000278
vn -0.949697 -0.313170 -0.000278
vn 0.000261 0.000086 -1.000000
vn 0.000261 0.000086 -1.000000
vn 0.000261 0.000086 -1.000000
vn 0.000261 0.000086 -1.000000
vn -0.000261 -0.000086 1.000000
vn -0.000261 -0.000086 1.000000
vn -0.000261 -0.000086 1.000000
vn -0.000261 -0.000086 1.000000
vn -0.313170 0.949697 -0.000000
vn -0.313170 0.949697 -0.000000
vn -0.313170 0.949697 -0.000000
vn -0.313170 0.949697 -0.000000
vn 0.000000 0.000000 1.000000
vn 0.000000 0.000000 1.000000
vn 0.000000 0.000000 1.000000
vn 0.000000 0.000000 1.000000
vn 0.313170 -0.949697 -0.000000
vn 0.313170 -0.949697 -0.000000
vn 0.313170 -0.949697 -0.000000
vn 0.313170 -0.949697 -0.000000
vn 0.000000 0.000000 -1.000000
vn 0.000000 0.000000 -1.000000
vn 0.000000 0.000000 -1.000000
vn 0.000000 0.000000 -1.000000
vn 0.949697 0.313169 -0.000000
vn 0.949697 0.313169 -0.000000
vn 0.949697 0.313169 -0.000000
vn 0.949697 0.313169 -0.000000
vn -0.949697 -0.313169 -0.000000
vn -0.949697 -0.313169 -0.000000
vn -0.949697 -0.313169 -0.000000
vn -0.949697 -0.313169 -0.000000
vn 0.941259 0.337686 0.000273
vn 0.941259 0.337686 0.000273
vn 0.941259 0.337686 0.000273
vn 0.941259 0.337686 0.000273
vn 0.313169 -0.949698 -0.000000
vn 0.313169 -0.949698 -0.000000
vn 0.313169 -0.949698 -0.000000
vn 0.313169 -0.949698 -0.000000
vn -0.949697 -0.313169 -0.000276
vn -0.949697 -0.313169 -0.000276
vn -0.949697 -0.313169 -0.000276
vn -0.949697 -0.313169 -0.000276
vn 0.000264 0.000091 -1.000000
vn 0.000264 0.000091 -1.000000
vn 0.000264 0.000091 -1.000000
vn 0.000264 0.000091 -1.000000
vn -0.000264 -0.000091 1.000000
vn -0.000264 -0.000091 1.000000
vn -0.000264 -0.000091 1.000000
vn -0.000264 -0.000091 1.000000
vn 0.109774 0.015988 -0.993828
vn 0.109774 0.015988 -0.993828
vn 0.109774 0.015988 -0.993828
vn 0.109774 0.015988 -0.993828
vn 0.289581 0.000000 0.957153
vn 0.289581 0.000000 0.957153
vn 0.289581 0.000000 0.957153
vn 0.289581 0.000000 0.957153
vn 0.289581 0.000000 0.957153
vn 0.289581 0.000000 0.957153
vn -0.007228 0.999411 -0.033547
vn -0.007228 0.999411 -0.033547
vn -0.007228 0.999411 -0.033547
vn -0.007228 0.999411 -0.033547
vn -0.007241 0.999823 -0.017349
vn -0.007241 0.999823 -0.017349
vn 1.000000 0.000000 -0.000000
vn 1.000000 0.000000 -0.000000
vn 1.000000 0.000000 -0.000000
vn 1.000000 0.000000 -0.000000
vn 1.000000 0.000000 -0.000000
vn 1.000000 0.000000 -0.000000
vn 1.000000 0.000000 -0.000000
vn 1.000000 0.000000 -0.000000
vn 1.000000 0.000000 -0.000000
vn 1.000000 0.000000 -0.000000
vn 1.000000 0.000000 -0.000000
vn 1.000000 0.000000 -0.000000
vn 0.109774 -0.015988 -0.993828
vn 0.109774 -0.015988 -0.993828
vn 0.109774 -0.015988 -0.993828
vn 0.109774 -0.015988 -0.993828
vn -0.007255 -0.999823 -0.017381
vn -0.007255 -0.999823 -0.017381
vn -0.007255 -0.999823 -0.017381
vn -0.007255 -0.999823 -0.017381
vn -0.007227 -0.999411 -0.033540
vn -0.007227 -0.999411 -0.033540
vn 0.135591 0.038383 -0.990021
vn 0.135591 0.038383 -0.990021
vn 0.135591 0.038383 -0.990021
vn 0.135591 0.038383 -0.990021
vn 0.007147 -0.999424 0.033171
vn 0.007147 -0.999424 0.033171
vn 0.007147 -0.999424 0.033171
vn 0.007147 -0.999424 0.033171
vn 0.138943 -0.981185 0.134057
vn 0.138943 -0.981185 0.134057
vn 0.138943 -0.981185 0.134057
vn 0.138943 -0.981185 0.134057
vn -0.377100 -0.000000 -0.926172
vn -0.377100 -0.000000 -0.926172
vn -0.377100 -0.000000 -0.926172
vn -0.377100 -0.000000 -0.926172
vn 0.294814 -0.955156 -0.027595
vn 0.294814 -0.955156 -0.027595
vn 0.294814 -0.955156 -0.027595
vn 0.294814 -0.955156 -0.027595
vn 0.294814 -0.955156 -0.027595
vn 0.294814 -0.955156 -0.027595
vn 0.294814 -0.955156 -0.027595
vn 0.294975 0.955106 -0.027592
vn 0.294975 0.955106 -0.027592
vn 0.294975 0.955106 -0.027592
vn 0.294975 0.955106 -0.027592
vn 0.294975 0.955106 -0.027592
vn 0.294975 0.955106 -0.027592
vn 0.294975 0.955106 -0.027592
vn -0.288585 -0.957013 0.029054
vn -0.288585 -0.957013 0.029054
vn -0.288585 -0.957013 0.029054
vn -0.288585 -0.957013 0.029054
vn -0.288585 -0.957013 0.029054
vn -0.288392 0.957068 0.029181
vn -0.288392 0.957068 0.029181
vn -0.288392 0.957068 0.029181
vn -0.288392 0.957068 0.029181
vn -0.288392 0.957068 0.029181
vn -0.705592 -0.199737 0.679886
vn -0.705592 -0.199737 0.679886
vn -0.705592 -0.199737 0.679886
vn -0.705592 -0.199737 0.679886
vn -0.705592 0.199737 0.679886
vn -0.705592 0.199737 0.679886
vn -0.705592 0.199737 0.679886
vn -0.705592 0.199737 0.679886
vn -0.980039 -0.142741 -0.138381
vn -0.980039 -0.142741 -0.138381
vn -0.980039 -0.142741 -0.138381
vn -0.980039 -0.142741 -0.138381
vn -0.980039 0.142733 -0.138385
vn -0.980039 0.142733 -0.138385
vn -0.980039 0.142733 -0.138385
vn -0.980039 0.142733 -0.138385
vn -0.992725 0.000000 -0.120400
vn -0.992725 0.000000 -0.120400
vn -0.992725 0.000000 -0.120400
vn -0.992725 0.000000 -0.120400
vn -0.992725 0.000000 -0.120400
vn -0.992725 0.000000 -0.120400
vn -0.122265 -0.981774 -0.145500
vn -0.122265 -0.981774 -0.145500
vn -0.122265 -0.981774 -0.145500
vn -0.122265 -0.981774 -0.145500
vn 0.138943 0.981185 0.134057
vn 0.138943 0.981185 0.134057
vn 0.138943 0.981185 0.134057
vn 0.138943 0.981185 0.134057
vn 0.007146 0.999424 0.033165
vn 0.007146 0.999424 0.033165
vn 0.007146 0.999424 0.033165
vn 0.007146 0.999424 0.033165
vn 0.135590 -0.038383 -0.990021
vn 0.135590 -0.038383 -0.990021
vn 0.135590 -0.038383 -0.990021
vn 0.135590 -0.038383 -0.990021
vn -0.122265 0.981774 -0.145500
vn -0.122265 0.981774 -0.145500
vn -0.122265 0.981774 -0.145500
vn -0.122265 0.981774 -0.145500
vn 0.375103 0.000000 0.926983
vn 0.375103 0.000000 0.926983
vn 0.375103 0.000000 0.926983
vn 0.375103 0.000000 0.926983
vn -0.395758 0.000000 -0.918355
vn -0.395758 0.000000 -0.918355
vn -0.395758 0.000000 -0.918355
vn -0.395758 0.000000 -0.918355
f 1/1/1 2/2/2 3/3/3
f 4/4/4 5/5/5 6/6/6
f 7/7/7 8/8/8 9/9/9
f 9/9/9 10/10/10 7/7/7
f 9/9/9 11/11/11 10/10/10
f 12/12/12 13/13/13 14/14/14
f 12/12/12 14/14/14 15/15/15
f 16/16/16 17/17/17 18/18/18
f 16/16/16 18/18/18 19/19/19
f 20/20/20 21/21/21 22/22/22
f 20/20/20 22/22/22 23/23/23
f 24/24/24 25/25/25 26/26/26
f 24/24/24 26/26/26 27/27/27
f 28/28/28 29/29/29 30/30/30
f 28/28/28 30/30/30 31/31/31
f 32/32/32 33/33/33 34/34/34
f 35/35/35 32/32/32 34/34/34
f 32/32/32 35/35/35 36/36/36
f 37/37/37 36/36/36 35/35/35
f 37/37/37 35/35/35 38/38/38
f 39/39/39 37/37/37 38/38/38
f 40/40/40 35/35/35 34/34/34
f 34/34/34 41/41/41 40/40/40
f 42/42/42 40/40/40 41/41/41
f 42/42/42 43/43/43 39/39/39
f 44/44/44 43/43/43 42/42/42
f 45/45/45 43/43/43 44/44/44
f 46/46/46 45/45/45 44/44/44
f 47/47/47 44/44/44 42/42/42
f 47/47/47 42/42/42 41/41/41
f 48/48/48 47/47/47 41/41/41
f 41/41/41 49/49/49 48/48/48
f 46/46/46 44/44/44 50/50/50
f 51/51/51 46/46/46 50/50/50
f 52/52/52 51/51/51 50/50/50
f 50/50/50 53/53/53 49/49/49
f 50/50/50 54/54/54 52/52/52
f 54/54/54 50/50/50 49/49/49
f 49/49/49 55/55/55 54/54/54
f 56/56/56 57/57/57 58/58/58
f 56/56/56 58/58/58 59/59/59
f 60/60/60 61/61/61 62/62/62
f 60/60/60 62/62/62 63/63/63
f 64/64/64 65/65/65 66/66/66
f 64/64/64 66/66/66 67/67/67
f 68/68/68 69/69/69 70/70/70
f 68/68/68 70/70/70 71/71/71
f 72/72/72 73/73/73 74/74/74
f 72/72/72 74/74/74 75/75/75
f 76/76/76 77/77/77 78/78/78
f 76/76/76 78/78/78 79/79/79
f 80/80/80 81/81/81 82/82/82
f 82/82/82 83/83/83 80/80/80
f 82/82/82 84/84/84 83/83/83
f 84/84/84 85/85/85 83/83/83
f 84/84/84 86/86/86 85/85/85
f 84/84/84 87/87/87 86/86/86
f 87/87/87 88/88/88 86/86/86
f 84/84/84 89/89/89 87/87/87
f 84/84/84 90/90/90 89/89/89
f 84/84/84 91/91/91 90/90/90
f 92/92/92 93/93/93 94/94/94
f 92/92/92 94/94/94 95/95/95
f 96/96/96 97/97/97 98/98/98
f 96/96/96 98/98/98 99/99/99
f 100/100/100 101/101/101 102/102/102
f 100/100/100 102/102/102 103/103/103
f 104/104/104 105/105/105 106/106/106
f 104/104/104 106/106/106 107/107/107
f 108/108/108 109/109/109 110/110/110
f 108/108/108 110/110/110 111/111/111
f 112/112/112 113/113/113 114/114/114
f 112/112/112 114/114/114 115/115/115
f 116/116/116 117/117/117 118/118/118
f 116/116/116 118/118/118 119/119/119
f 120/120/120 121/121/121 122/122/122
f 120/120/120 122/122/122 123/123/123
f 124/124/124 125/125/125 126/126/126
f 124/124/124 126/126/126 127/127/127
f 128/128/128 129/129/129 130/130/130
f 128/128/128 130/130/130 131/131/131
f 132/132/132 133/133/133 134/134/134
f 132/132/132 134/134/134 135/135/135
f 136/136/136 137/137/137 138/138/138
f 136/136/136 138/138/138 139/139/139
f 140/140/140 141/141/141 142/142/142
f 140/140/140 142/142/142 143/143/143
f 144/144/144 145/145/145 146/146/146
f 144/144/144 146/146/146 147/147/147
f 148/148/148 149/149/149 150/150/150
f 148/148/148 150/150/150 151/151/151
f 152/152/152 153/153/153 154/154/154
f 154/154/154 155/155/155 152/152/152
f 155/155/155 156/156/156 152/152/152
f 155/155/155 157/157/157 156/156/156
f 158/158/158 159/159/159 160/160/160
f 160/160/160 161/161/161 158/158/158
f 161/161/161 162/162/162 158/158/158
f 163/163/163 164/164/164 165/165/165
f 163/163/163 165/165/165 166/166/166
f 167/167/167 168/168/168 169/169/169
f 167/167/167 169/169/169 170/170/170
f 171/171/171 172/172/172 173/173/173
f 171/171/171 173/173/173 174/174/174
f 175/175/175 176/176/176 177/177/177
f 175/175/175 177/177/177 178/178/178
f 179/179/179 180/180/180 181/181/181
f 179/179/179 181/181/181 182/182/182
f 183/183/183 184/184/184 185/185/185
f 186/186/186 183/183/183 185/185/185
f 187/187/187 186/186/186 185/185/185
f 187/187/187 185/185/185 188/188/188
f 188/188/188 189/189/189 187/187/187
f 187/187/187 189/189/189 190/190/190
f 191/191/191 187/187/187 190/190/190
f 190/190/190 192/192/192 191/191/191
f 183/183/183 186/186/186 193/193/193
f 183/183/183 193/193/193 194/194/194
f 193/193/193 192/192/192 194/194/194
f 195/195/195 183/183/183 194/194/194
f 194/194/194 196/196/196 195/195/195
f 197/197/197 194/194/194 192/192/192
f 197/197/197 192/192/192 198/198/198
f 197/197/197 198/198/198 199/199/199
f 197/197/197 199/199/199 200/200/200
f 201/201/201 197/197/197 200/200/200
f 195/195/195 202/202/202 201/201/201
f 203/203/203 195/195/195 201/201/201
f 201/201/201 200/200/200 204/204/204
f 201/201/201 205/205/205 203/203/203
f 205/205/205 201/201/201 204/204/204
f 204/204/204 206/206/206 205/205/205
f 207/207/207 208/208/208 209/209/209
f 207/207/207 209/209/209 210/210/210
f 211/211/211 212/212/212 213/213/213
f 211/211/211 213/213/213 214/214/214
f 215/215/215 216/216/216 217/217/217
f 215/215/215 217/217/217 218/218/218
f 219/219/219 220/220/220 221/221/221
f 219/219/219 221/221/221 222/222/222
f 223/223/223 224/224/224 225/225/225
f 223/223/223 225/225/225 226/226/226
f 227/227/227 228/228/228 229/229/229
f 227/227/227 229/229/229 230/230/230
f 231/231/231 232/232/232 233/233/233
f 234/234/234 231/231/231 233/233/233
f 233/233/233 235/235/235 234/234/234
f 233/233/233 236/236/236 235/235/235
f 236/236/236 237/237/237 235/235/235
f 237/237/237 238/238/238 235/235/235
f 237/237/237 239/239/239 238/238/238
f 238/238/238 240/240/240 235/235/235
f 240/240/240 241/241/241 235/235/235
f 241/241/241 242/242/242 235/235/235
f 243/243/243 244/244/244 245/245/245
f 243/243/243 245/245/245 246/246/246
f 247/247/247 248/248/248 249/249/249
f 247/247/247 249/249/249 250/250/250
f 251/251/251 252/252/252 253/253/253
f 251/251/251 253/253/253 254/254/254
f 255/255/255 256/256/256 257/257/257
f 255/255/255 257/257/257 258/258/258
f 259/259/259 260/260/260 261/261/261
f 259/259/259 261/261/261 262/262/262
f 263/263/263 264/264/264 265/265/265
f 263/263/263 265/265/265 266/266/266
f 267/267/267 268/268/268 269/269/269
f 267/267/267 269/269/269 270/270/270
f 271/271/271 272/272/272 273/273/273
f 271/271/271 273/273/273 274/274/274
f 275/275/275 276/276/276 277/277/277
f 275/275/275 277/277/277 278/278/278
f 279/279/279 280/280/280 281/281/281
f 279/279/279 281/281/281 282/282/282
f 283/283/283 284/284/284 285/285/285
f 283/283/283 285/285/285 286/286/286
f 287/287/287 288/288/288 289/289/289
f 287/287/287 289/289/289 290/290/290
f 291/291/291 292/292/292 293/293/293
f 291/291/291 293/293/293 294/294/294
f 295/295/295 296/296/296 297/297/297
f 295/295/295 297/297/297 298/298/298
f 299/299/299 300/300/300 301/301/301
f 299/299/299 301/301/301 302/302/302
f 303/303/303 304/304/304 305/305/305
f 305/305/305 306/306/306 303/303/303
f 306/306/306 307/307/307 303/303/303
f 307/307/307 308/308/308 303/303/303
f 309/309/309 310/310/310 311/311/311
f 309/309/309 311/311/311 312/312/312
f 313/313/313 314/314/314 315/315/315
f 313/313/313 315/315/315 316/316/316
f 317/317/317 316/316/316 315/315/315
f 317/317/317 315/315/315 318/318/318
f 319/319/319 320/320/320 321/321/321
f 319/319/319 322/322/322 320/320/320
f 319/319/319 323/323/323 322/322/322
f 319/319/319 324/324/324 323/323/323
f 325/325/325 326/326/326 327/327/327
f 325/325/325 327/327/327 328/328/328
f 329/329/329 330/330/330 331/331/331
f 329/329/329 331/331/331 332/332/332
f 333/333/333 334/334/334 335/335/335
f 333/333/333 335/335/335 336/336/336
f 337/337/337 338/338/338 339/339/339
f 337/337/337 339/339/339 340/340/340
f 341/341/341 342/342/342 343/343/343
f 341/341/341 343/343/343 344/344/344
f 345/345/345 346/346/346 347/347/347
f 345/345/345 347/347/347 348/348/348
f 349/349/349 350/350/350 351/351/351
f 349/349/349 351/351/351 352/352/352
f 353/353/353 354/354/354 355/355/355
f 353/353/353 355/355/355 356/356/356
f 357/357/357 358/358/358 359/359/359
f 357/357/357 359/359/359 360/360/360
f 361/361/361 362/362/362 363/363/363
f 361/361/361 363/363/363 364/364/364
f 365/365/365 366/366/366 367/367/367
f 365/365/365 367/367/367 368/368/368
f 369/369/369 370/370/370 371/371/371
f 369/369/369 371/371/371 372/372/372
f 373/373/373 374/374/374 375/375/375
f 373/373/373 375/375/375 376/376/376
f 377/377/377 378/378/378 379/379/379
f 377/377/377 379/379/379 380/380/380
f 381/381/381 382/382/382 383/383/383
f 381/381/381 383/383/383 384/384/384
f 385/385/385 386/386/386 387/387/387
f 385/385/385 387/387/387 388/388/388
f 389/389/389 390/390/390 391/391/391
f 389/389/389 391/391/391 392/392/392
f 393/393/393 394/394/394 395/395/395
f 393/393/393 395/395/395 396/396/396
f 397/397/397 398/398/398 399/399/399
f 397/397/397 399/399/399 400/400/400
f 401/401/401 402/402/402 403/403/403
f 401/401/401 403/403/403 404/404/404
f 405/405/405 406/406/406 407/407/407
f 405/405/405 407/407/407 408/408/408
f 409/409/409 410/410/410 411/411/411
f 409/409/409 411/411/411 412/412/412
f 413/413/413 414/414/414 415/415/415
f 413/413/413 415/415/415 416/416/416
f 417/417/417 418/418/418 419/419/419
f 417/417/417 419/419/419 420/420/420
f 421/421/421 422/422/422 423/423/423
f 421/421/421 423/423/423 424/424/424
f 425/425/425 426/426/426 427/427/427
f 425/425/425 427/427/427 428/428/428
f 429/429/429 430/430/430 431/431/431
f 429/429/429 431/431/431 432/432/432
f 433/433/433 434/434/434 435/435/435
f 433/433/433 435/435/435 436/436/436
f 437/437/437 438/438/438 439/439/439
f 437/437/437 439/439/439 440/440/440
f 441/441/441 442/442/442 443/443/443
f 441/441/441 443/443/443 444/444/444
f 445/445/445 446/446/446 447/447/447
f 445/445/445 447/447/447 448/448/448
f 449/449/449 450/450/450 451/451/451
f 449/449/449 451/451/451 452/452/452
f 453/453/453 454/454/454 455/455/455
f 453/453/453 455/455/455 456/456/456
f 457/457/457 458/458/458 459/459/459
f 457/457/457 459/459/459 460/460/460
f 461/461/461 462/462/462 463/463/463
f 461/461/461 463/463/463 464/464/464
f 465/465/465 466/466/466 467/467/467
f 465/465/465 467/467/467 468/468/468
f 469/469/469 470/470/470 471/471/471
f 469/469/469 471/471/471 472/472/472
f 473/473/473 474/474/474 475/475/475
f 473/473/473 475/475/475 476/476/476
f 477/477/477 478/478/478 479/479/479
f 477/477/477 479/479/479 480/480/480
f 481/481/481 482/482/482 483/483/483
f 481/481/481 483/483/483 484/484/484
f 485/485/485 486/486/486 487/487/487
f 487/487/487 488/488/488 485/485/485
f 488/488/488 489/489/489 485/485/485
f 489/489/489 490/490/490 485/485/485
f 491/491/491 492/492/492 493/493/493
f 491/491/491 493/493/493 494/494/494
f 494/494/494 493/493/493 495/495/495
f 494/494/494 495/495/495 496/496/496
f 497/497/497 498/498/498 499/499/499
f 499/499/499 500/500/500 497/497/497
f 499/499/499 501/501/501 500/500/500
f 501/501/501 502/502/502 500/500/500
f 501/501/501 499/499/499 503/503/503
f 503/503/503 504/504/504 501/501/501
f 504/504/504 503/503/503 505/505/505
f 505/505/505 506/506/506 504/504/504
f 503/503/503 507/507/507 505/505/505
f 507/507/507 508/508/508 505/505/505
f 509/509/509 510/510/510 511/511/511
f 509/509/509 511/511/511 512/512/512
f 513/513/513 514/514/514 515/515/515
f 513/513/513 515/515/515 516/516/516
f 516/516/516 515/515/515 517/517/517
f 516/516/516 517/517/517 518/518/518
f 519/519/519 520/520/520 521/521/521
f 519/519/519 521/521/521 522/522/522
f 523/523/523 524/524/524 525/525/525
f 523/523/523 525/525/525 526/526/526
f 527/527/527 528/528/528 529/529/529
f 527/527/527 529/529/529 530/530/530
f 531/531/531 532/532/532 533/533/533
f 531/531/531 533/533/533 534/534/534
f 535/535/535 536/536/536 537/537/537
f 537/537/537 538/538/538 535/535/535
f 538/538/538 539/539/539 535/535/535
f 538/538/538 540/540/540 539/539/539
f 540/540/540 541/541/541 539/539/539
f 542/542/542 543/543/543 544/544/544
f 544/544/544 545/545/545 542/542/542
f 544/544/544 546/546/546 545/545/545
f 546/546/546 547/547/547 545/545/545
f 546/546/546 548/548/548 547/547/547
f 549/549/549 550/550/550 551/551/551
f 551/551/551 552/552/552 549/549/549
f 552/552/552 553/553/553 549/549/549
f 554/554/554 555/555/555 556/556/556
f 556/556/556 557/557/557 554/554/554
f 556/556/556 558/558/558 557/557/557
f 559/559/559 560/560/560 561/561/561
f 559/559/559 561/561/561 562/562/562
f 563/563/563 564/564/564 565/565/565
f 563/563/563 565/565/565 566/566/566
f 567/567/567 568/568/568 569/569/569
f 567/567/567 569/569/569 570/570/570
f 571/571/571 572/572/572 573/573/573
f 571/571/571 573/573/573 574/574/574
f 575/575/575 576/576/576 577/577/577
f 577/577/577 578/578/578 575/575/575
f 578/578/578 579/579/579 575/575/575
f 579/579/579 580/580/580 575/575/575
f 581/581/581 582/582/582 583/583/583
f 581/581/581 583/583/583 584/584/584
f 585/585/585 586/586/586 587/587/587
f 585/585/585 587/587/587 588/588/588
f 589/589/589 590/590/590 591/591/591
f 589/589/589 591/591/591 592/592/592
f 593/593/593 594/594/594 595/595/595
f 593/593/593 595/595/595 596/596/596
f 597/597/597 598/598/598 599/599/599
f 597/597/597 599/599/599 600/600/600
f 601/601/601 602/602/602 603/603/603
f 601/601/601 603/603/603 604/604/604
f 605/605/605 606/606/606 607/607/607
f 605/605/605 607/607/607 608/608/608
