# headlesshood_hat (gear rip -> Godot: Z negated + winding reversed)
v -0.374080 -0.051963 -0.235106
v -0.374080 0.051963 -0.235106
v -0.339656 0.000000 -0.235106
v -0.374080 0.155890 -0.235106
v -0.339656 0.103927 -0.235106
v -0.647880 0.228664 0.212312
v -0.657278 0.228664 -0.235526
v -0.657278 -0.228664 -0.235526
v -0.647880 -0.228664 0.212312
v -0.550888 -0.171839 -0.264480
v -0.206031 -0.171839 -0.236135
v -0.206031 -0.228664 -0.236135
v -0.550888 -0.228664 -0.264480
v -0.206031 0.171839 -0.236135
v -0.206031 0.228664 -0.236135
v -0.206031 0.228664 0.218829
v -0.206031 0.171839 0.218829
v -0.206031 -0.228664 -0.236135
v -0.206031 -0.171839 -0.236135
v -0.206031 -0.171839 0.218829
v -0.206031 -0.228664 0.218829
v -0.557949 0.171839 0.020439
v -0.206031 0.171839 0.020439
v -0.206031 -0.171839 0.020439
v -0.557949 -0.171839 0.020439
v -0.550888 0.228664 -0.264480
v -0.206031 0.228664 -0.236135
v -0.206031 0.171839 -0.236135
v -0.550888 0.171839 -0.264480
v -0.206031 0.171839 -0.236135
v -0.206031 0.171839 0.020439
v -0.557949 0.171839 0.020439
v -0.550888 0.171839 -0.264480
v -0.450613 -0.228664 0.250112
v -0.206031 -0.228664 0.218829
v -0.206031 -0.171839 0.218829
v -0.206031 0.171839 0.218829
v -0.206031 0.228664 0.218829
v -0.450613 0.228664 0.250112
v -0.647880 -0.228664 0.212312
v -0.450613 -0.228664 0.250112
v -0.450613 0.228664 0.250112
v -0.647880 0.228664 0.212312
v -0.414952 0.211647 -0.235106
v -0.392855 0.154204 -0.235106
v -0.503316 0.154204 -0.235106
v -0.646533 0.211647 -0.218896
v -0.646533 0.169345 -0.235106
v -0.550888 0.171839 -0.264480
v -0.557949 0.171839 0.020439
v -0.557949 -0.171839 0.020439
v -0.550888 -0.171839 -0.264480
v -0.550888 -0.171839 -0.264480
v -0.557949 -0.171839 0.020439
v -0.206031 -0.171839 0.020439
v -0.206031 -0.171839 -0.236135
v -0.636214 -0.211647 0.202208
v -0.646533 -0.211647 -0.235106
v -0.374080 -0.211647 -0.235106
v -0.272284 -0.211647 -0.235106
v -0.226347 -0.211647 -0.235106
v -0.226347 -0.211647 0.202208
v -0.657278 0.228664 -0.235526
v -0.550888 0.228664 -0.264480
v -0.550888 0.171839 -0.264480
v -0.550888 -0.171839 -0.264480
v -0.550888 -0.228664 -0.264480
v -0.657278 -0.228664 -0.235526
v -0.226347 0.211647 0.202208
v -0.226347 -0.211647 0.202208
v -0.226347 -0.211647 -0.235106
v -0.226347 0.211647 -0.235106
v -0.206031 0.228664 -0.236135
v -0.550888 0.228664 -0.264480
v -0.657278 0.228664 -0.235526
v -0.206031 0.228664 0.218829
v -0.647880 0.228664 0.212312
v -0.450613 0.228664 0.250112
v -0.206031 0.171839 0.218829
v -0.206031 -0.171839 0.218829
v -0.206031 -0.171839 0.020439
v -0.206031 0.171839 0.020439
v -0.226347 0.211647 0.202208
v -0.226347 0.211647 -0.235106
v -0.272280 0.211647 -0.235106
v -0.374080 0.211647 -0.235106
v -0.414952 0.211647 -0.235106
v -0.646533 0.211647 -0.218896
v -0.636214 0.211647 0.202208
v -0.374080 -0.155890 -0.235106
v -0.374080 -0.051963 -0.235106
v -0.339656 -0.103927 -0.235106
v -0.392855 0.154204 -0.235106
v -0.374080 0.051963 -0.235106
v -0.374080 -0.211647 -0.235106
v -0.374080 0.155890 -0.235106
v -0.414952 0.211647 -0.235106
v -0.374080 0.211647 -0.235106
v -0.392855 -0.154204 -0.235106
v -0.409606 0.029171 -0.235106
v -0.646533 -0.211647 -0.235106
v -0.503316 -0.154204 -0.235106
v -0.646533 -0.169345 -0.235106
v -0.409606 -0.029171 -0.235106
v -0.472056 0.029171 -0.235106
v -0.472056 -0.029171 -0.235106
v -0.503316 0.154204 -0.235106
v -0.646533 -0.056448 -0.235106
v -0.646533 0.169345 -0.235106
v -0.272280 0.155890 -0.235106
v -0.374080 0.155890 -0.235106
v -0.272280 0.211647 -0.235106
v -0.646533 -0.056448 -0.235106
v -0.503316 -0.154204 -0.235106
v -0.472056 -0.029171 -0.235106
v -0.226347 0.211647 -0.235106
v -0.226347 -0.211647 -0.235106
v -0.272280 -0.155893 -0.235106
v -0.272284 -0.211647 -0.235106
v -0.374080 -0.211647 -0.235106
v -0.374080 -0.155890 -0.235106
v -0.503316 0.154204 -0.235106
v -0.490594 0.147614 -0.219651
v -0.466090 0.046498 -0.219651
v -0.472056 0.029171 -0.235106
v -0.472056 0.029171 -0.235106
v -0.466090 0.046498 -0.219651
v -0.417140 0.046498 -0.219651
v -0.409606 0.029171 -0.235106
v -0.657278 -0.228664 -0.235526
v -0.550888 -0.228664 -0.264480
v -0.206031 -0.228664 -0.236135
v -0.206031 -0.228664 0.218829
v -0.647880 -0.228664 0.212312
v -0.450613 -0.228664 0.250112
v -0.490594 0.147614 -0.219651
v -0.404010 0.147614 -0.219651
v -0.417140 0.046498 -0.219651
v -0.466090 0.046498 -0.219651
v -0.466091 -0.046498 -0.219651
v -0.417140 -0.046498 -0.219651
v -0.404010 -0.147614 -0.219651
v -0.490594 -0.147614 -0.219651
v -0.472056 -0.029171 -0.235106
v -0.466091 -0.046498 -0.219651
v -0.490594 -0.147614 -0.219651
v -0.503316 -0.154204 -0.235106
v -0.409606 -0.029171 -0.235106
v -0.417140 -0.046498 -0.219651
v -0.466091 -0.046498 -0.219651
v -0.472056 -0.029171 -0.235106
v -0.392855 0.154204 -0.235106
v -0.404010 0.147614 -0.219651
v -0.490594 0.147614 -0.219651
v -0.503316 0.154204 -0.235106
v -0.409606 0.029171 -0.235106
v -0.417140 0.046498 -0.219651
v -0.404010 0.147614 -0.219651
v -0.392855 0.154204 -0.235106
v -0.503316 -0.154204 -0.235106
v -0.490594 -0.147614 -0.219651
v -0.404010 -0.147614 -0.219651
v -0.392855 -0.154204 -0.235106
v -0.392855 -0.154204 -0.235106
v -0.404010 -0.147614 -0.219651
v -0.417140 -0.046498 -0.219651
v -0.409606 -0.029171 -0.235106
v -0.773375 0.075968 0.081349
v -0.776497 0.075968 -0.067435
v -0.776497 -0.075968 -0.067435
v -0.773375 -0.075968 0.081349
v -0.604210 -0.039584 -0.038763
v -0.776497 -0.075968 -0.067435
v -0.776497 0.075968 -0.067435
v -0.604210 0.039584 -0.038763
v -0.604210 0.039584 -0.038763
v -0.776497 0.075968 -0.067435
v -0.773375 0.075968 0.081349
v -0.602583 0.039584 0.038763
v -0.602583 0.039584 0.038763
v -0.773375 0.075968 0.081349
v -0.773375 -0.075968 0.081349
v -0.602583 -0.039584 0.038763
v -0.602583 -0.039584 0.038763
v -0.773375 -0.075968 0.081349
v -0.776497 -0.075968 -0.067435
v -0.604210 -0.039584 -0.038763
v -0.306704 0.103926 -0.235106
v -0.272280 0.155890 -0.235106
v -0.272280 0.051962 -0.235106
v -0.272280 -0.155893 -0.235106
v -0.272280 0.211647 -0.235106
v -0.272280 0.155890 -0.235106
v -0.272280 -0.051965 -0.235106
v -0.306704 -0.103929 -0.235106
v -0.306704 -0.000002 -0.235106
v -0.306704 0.103926 -0.235106
v -0.311863 0.098730 -0.212125
v -0.289191 0.148096 -0.212125
v -0.272280 0.155890 -0.235106
v -0.374080 -0.155890 -0.235106
v -0.357169 -0.148096 -0.212125
v -0.289191 -0.148099 -0.212125
v -0.272280 -0.155893 -0.235106
v -0.272280 0.155890 -0.235106
v -0.289191 0.148096 -0.212125
v -0.357169 0.148096 -0.212125
v -0.374080 0.155890 -0.235106
v -0.339656 -0.103927 -0.235106
v -0.334497 -0.098731 -0.212125
v -0.357169 -0.148096 -0.212125
v -0.374080 -0.155890 -0.235106
v -0.374080 0.155890 -0.235106
v -0.357169 0.148096 -0.212125
v -0.334497 0.098731 -0.212125
v -0.339656 0.103927 -0.235106
v -0.339656 0.103927 -0.235106
v -0.334497 0.098731 -0.212125
v -0.368401 0.049365 -0.212125
v -0.374080 0.051963 -0.235106
v -0.374080 0.051963 -0.235106
v -0.368401 0.049365 -0.212125
v -0.334497 -0.000000 -0.212125
v -0.339656 0.000000 -0.235106
v -0.339656 0.000000 -0.235106
v -0.334497 -0.000000 -0.212125
v -0.368401 -0.049365 -0.212125
v -0.374080 -0.051963 -0.235106
v -0.374080 -0.051963 -0.235106
v -0.368401 -0.049365 -0.212125
v -0.334497 -0.098731 -0.212125
v -0.339656 -0.103927 -0.235106
v -0.357169 0.148096 -0.212125
v -0.289191 0.148096 -0.212125
v -0.311863 0.098730 -0.212125
v -0.334497 0.098731 -0.212125
v -0.311863 -0.000002 -0.212125
v -0.277959 0.049364 -0.212125
v -0.311863 -0.098733 -0.212125
v -0.277959 -0.049367 -0.212125
v -0.334497 -0.098731 -0.212125
v -0.357169 -0.148096 -0.212125
v -0.289191 -0.148099 -0.212125
v -0.334497 -0.000000 -0.212125
v -0.368401 -0.049365 -0.212125
v -0.368401 0.049365 -0.212125
v -0.272280 -0.155893 -0.235106
v -0.289191 -0.148099 -0.212125
v -0.311863 -0.098733 -0.212125
v -0.306704 -0.103929 -0.235106
v -0.306704 -0.103929 -0.235106
v -0.311863 -0.098733 -0.212125
v -0.277959 -0.049367 -0.212125
v -0.272280 -0.051965 -0.235106
v -0.272280 -0.051965 -0.235106
v -0.277959 -0.049367 -0.212125
v -0.311863 -0.000002 -0.212125
v -0.306704 -0.000002 -0.235106
v -0.306704 -0.000002 -0.235106
v -0.311863 -0.000002 -0.212125
v -0.277959 0.049364 -0.212125
v -0.272280 0.051962 -0.235106
v -0.272280 0.051962 -0.235106
v -0.277959 0.049364 -0.212125
v -0.311863 0.098730 -0.212125
v -0.306704 0.103926 -0.235106
vt 0.214671761 0.494749308
vt 0.246085167 0.4943887
vt 0.230378479 0.494569004
vt 0.277498573 0.494028091
vt 0.261791885 0.494208395
vt 0.840789139 0.12511009
vt 0.793422043 0.12511009
vt 0.793422043 0.180936217
vt 0.840789139 0.180936217
vt 0.781825721 0.174025178
vt 0.745702744 0.173998356
vt 0.745702744 0.180934906
vt 0.781825721 0.180961728
vt 0.917647362 0.180646777
vt 0.923657 0.180646777
vt 0.923657 0.12511009
vt 0.917647362 0.12511009
vt 0.916061759 0.117830455
vt 0.922071278 0.117830455
vt 0.922071278 0.0622937679
vt 0.916061759 0.0622937679
vt 0.918640494 0.223892033
vt 0.918640494 0.180936217
vt 0.882295728 0.180939436
vt 0.882295728 0.223895311
vt 0.781825721 0.125136882
vt 0.745702684 0.12511009
vt 0.745702744 0.13204661
vt 0.781825721 0.132073402
vt 0.914334357 0.0633924603
vt 0.887217045 0.0622937679
vt 0.885911524 0.10522595
vt 0.916061759 0.10522595
vt 0.861765087 0.180936217
vt 0.887515724 0.180936217
vt 0.887515724 0.173999488
vt 0.887515724 0.132046759
vt 0.887515724 0.12511009
vt 0.861765087 0.12511009
vt 0.840789139 0.180936217
vt 0.861765087 0.180936217
vt 0.861765087 0.12511009
vt 0.840789139 0.12511009
vt 0.294640154 0.509949088
vt 0.277252257 0.513757885
vt 0.277290851 0.554014564
vt 0.294971645 0.594401777
vt 0.281913847 0.594371915
vt 0.912432373 0.223895311
vt 0.882295728 0.223895311
vt 0.882295728 0.265848041
vt 0.912432373 0.265848041
vt 0.887515724 0.166847855
vt 0.917647362 0.168068677
vt 0.917647362 0.12511009
vt 0.89051342 0.12511009
vt 0.517664254 0.186810493
vt 0.517249465 0.206646517
vt 0.528200865 0.206646532
vt 0.532292724 0.206646532
vt 0.534139216 0.206646517
vt 0.534139216 0.186810493
vt 0.793422043 0.125113845
vt 0.781825721 0.125136882
vt 0.781825721 0.132073402
vt 0.781825721 0.174025178
vt 0.781825721 0.180961728
vt 0.793422043 0.180938661
vt 0.293642849 0.44001472
vt 0.166517824 0.441548705
vt 0.166517824 0.593396366
vt 0.294380516 0.592301786
vt 0.841146171 0.0657538772
vt 0.804986656 0.0622937679
vt 0.793424428 0.0658282042
vt 0.841146171 0.12129131
vt 0.794418395 0.120495886
vt 0.815280259 0.12511009
vt 0.745702684 0.232637286
vt 0.745702744 0.274590015
vt 0.766683161 0.274590015
vt 0.766683161 0.232637286
vt 0.551028967 0.206646517
vt 0.551028967 0.186810493
vt 0.549291134 0.186810493
vt 0.545225501 0.186810493
vt 0.543447793 0.186810493
vt 0.534139216 0.187108546
vt 0.534554005 0.206646517
vt 0.18325834 0.495109946
vt 0.214671761 0.494749308
vt 0.198965043 0.494929612
vt 0.277252257 0.513757885
vt 0.246085167 0.4943887
vt 0.166468024 0.495302707
vt 0.277498573 0.494028091
vt 0.294640154 0.509949088
vt 0.294624686 0.493831486
vt 0.183877558 0.513938487
vt 0.239402592 0.519935727
vt 0.166563451 0.594595253
vt 0.183916196 0.554195285
vt 0.179370925 0.594570398
vt 0.22173886 0.51997
vt 0.239424467 0.542695165
vt 0.221760705 0.542729318
vt 0.277290851 0.554014564
vt 0.213551804 0.594504237
vt 0.281913847 0.594371915
vt 0.277658612 0.457132608
vt 0.277498573 0.494028091
vt 0.294589341 0.456969678
vt 0.213551804 0.594504237
vt 0.183916196 0.554195285
vt 0.221760705 0.542729318
vt 0.294574231 0.44121325
vt 0.166416273 0.441461295
vt 0.183312356 0.458040595
vt 0.166432366 0.458203018
vt 0.166468024 0.495302707
vt 0.18325834 0.495109946
vt 0.743674099 0.211566061
vt 0.743076622 0.211565182
vt 0.743076622 0.217366338
vt 0.743674099 0.217367217
vt 0.763059139 0.186297044
vt 0.762461662 0.186297044
vt 0.762461662 0.18919453
vt 0.763059139 0.18919453
vt 0.745702684 0.121575654
vt 0.757264912 0.12511009
vt 0.793424428 0.121649951
vt 0.793424428 0.0661125481
vt 0.746696651 0.0669079721
vt 0.767558575 0.0622937679
vt 0.0928190425 0.251583457
vt 0.0811380073 0.251583457
vt 0.0829104334 0.266845822
vt 0.0895143524 0.266845822
vt 0.208740637 0.124172129
vt 0.202136666 0.124172129
vt 0.200366393 0.139434546
vt 0.212047473 0.139434546
vt 0.743076622 0.211565182
vt 0.742479205 0.211566061
vt 0.742479205 0.217367217
vt 0.743076622 0.217366338
vt 0.761864185 0.18919453
vt 0.762461662 0.18919453
vt 0.762461662 0.186297044
vt 0.761864185 0.186297044
vt 0.742479205 0.228294104
vt 0.743076622 0.228294104
vt 0.743076622 0.223169044
vt 0.742479205 0.223169044
vt 0.742479205 0.223169044
vt 0.743076622 0.223168388
vt 0.743076622 0.217367217
vt 0.742479205 0.217367887
vt 0.743076622 0.228294104
vt 0.742479205 0.228294104
vt 0.742479205 0.23341918
vt 0.743076622 0.23341918
vt 0.743076622 0.223168388
vt 0.743674099 0.223169044
vt 0.743674099 0.217367887
vt 0.743076622 0.217367217
vt 0.623429716 0.951429963
vt 0.612583756 0.951429963
vt 0.612583756 0.968326807
vt 0.623429716 0.968326807
vt 0.610159397 0.951429963
vt 0.612811148 0.932006359
vt 0.601737738 0.932006359
vt 0.604389489 0.951429963
vt 0.593016982 0.951581776
vt 0.590664327 0.971094906
vt 0.601510346 0.971094906
vt 0.598668456 0.951581717
vt 0.599086046 0.951581717
vt 0.601737738 0.932006359
vt 0.590664327 0.932006359
vt 0.593316078 0.951581717
vt 0.604579687 0.951429963
vt 0.601737738 0.970943093
vt 0.612583756 0.970943093
vt 0.610231042 0.951429963
vt 0.261934221 0.457283914
vt 0.277658612 0.457132608
vt 0.246209845 0.45743525
vt 0.183312356 0.458040595
vt 0.294589341 0.456969678
vt 0.277658612 0.457132608
vt 0.214761108 0.457737923
vt 0.199036732 0.457889259
vt 0.230485469 0.457586586
vt 0.78619957 0.244612038
vt 0.738907099 0.240803689
vt 0.738907099 0.276984602
vt 0.78619957 0.282697111
vt 0.833492219 0.128797367
vt 0.881972373 0.124635264
vt 0.881972373 0.0583491474
vt 0.833492279 0.0541866571
vt 0.930452526 0.0541866571
vt 0.881972373 0.0583489388
vt 0.881972373 0.124635085
vt 0.930452406 0.128797397
vt 0.78619957 0.0922713429
vt 0.833492219 0.0960795954
vt 0.833492219 0.059899047
vt 0.78619957 0.0541866571
vt 0.78619957 0.282694787
vt 0.833492219 0.276982337
vt 0.83349216 0.240801781
vt 0.78619957 0.244610101
vt 0.78619957 0.244610101
vt 0.83349216 0.240801781
vt 0.83349216 0.20462124
vt 0.78619957 0.206525415
vt 0.78619957 0.206525415
vt 0.83349216 0.20462124
vt 0.833492219 0.1684407
vt 0.78619957 0.168440729
vt 0.78619957 0.168440729
vt 0.833492219 0.1684407
vt 0.833492219 0.132260144
vt 0.78619957 0.130356029
vt 0.78619957 0.130356029
vt 0.833492219 0.132260144
vt 0.833492219 0.0960795954
vt 0.78619957 0.0922713429
vt 0.262449801 0.0458897352
vt 0.0675822496 0.0458897352
vt 0.133478075 0.0846353173
vt 0.196553916 0.0846349299
vt 0.133478075 0.162126482
vt 0.0675822496 0.123380899
vt 0.133478075 0.239617616
vt 0.0675822496 0.200872034
vt 0.196553916 0.239615649
vt 0.262449801 0.278360814
vt 0.0675822496 0.278363198
vt 0.196553916 0.16212526
vt 0.262449801 0.200870425
vt 0.262449801 0.123380095
vt 0.78619957 0.0541866571
vt 0.73890698 0.0598991662
vt 0.73890698 0.0960800722
vt 0.78619957 0.0922717303
vt 0.78619957 0.0922717303
vt 0.73890698 0.0960800722
vt 0.738907039 0.132260978
vt 0.78619957 0.130356818
vt 0.78619957 0.130356818
vt 0.738907039 0.132260978
vt 0.738907039 0.168441892
vt 0.78619957 0.168441892
vt 0.78619957 0.168441892
vt 0.738907039 0.168441892
vt 0.738907039 0.20462279
vt 0.78619957 0.206526965
vt 0.78619957 0.206526965
vt 0.738907039 0.20462279
vt 0.738907099 0.240803689
vt 0.78619957 0.244612038
vn 0.000000 0.000000 -1.000000
vn 0.000000 0.000000 -1.000000
vn 0.000000 0.000000 -1.000000
vn 0.000000 0.000000 -1.000000
vn 0.000000 0.000000 -1.000000
vn -0.999780 -0.000000 0.020982
vn -0.999780 -0.000000 0.020982
vn -0.999780 -0.000000 0.020982
vn -0.999780 -0.000000 0.020982
vn 0.081918 0.000000 -0.996639
vn 0.081918 0.000000 -0.996639
vn 0.081918 0.000000 -0.996639
vn 0.081918 0.000000 -0.996639
vn 1.000000 0.000000 -0.000000
vn 1.000000 0.000000 -0.000000
vn 1.000000 0.000000 -0.000000
vn 1.000000 0.000000 -0.000000
vn 1.000000 0.000000 -0.000000
vn 1.000000 0.000000 -0.000000
vn 1.000000 0.000000 -0.000000
vn 1.000000 0.000000 -0.000000
vn 0.000000 0.000000 -1.000000
vn 0.000000 0.000000 -1.000000
vn 0.000000 0.000000 -1.000000
vn 0.000000 0.000000 -1.000000
vn 0.081918 0.000000 -0.996639
vn 0.081918 0.000000 -0.996639
vn 0.081918 0.000000 -0.996639
vn 0.081918 0.000000 -0.996639
vn 0.000000 -1.000000 -0.000000
vn 0.000000 -1.000000 -0.000000
vn 0.000000 -1.000000 -0.000000
vn 0.000000 -1.000000 -0.000000
vn 0.126872 0.000000 0.991919
vn 0.126872 0.000000 0.991919
vn 0.126872 0.000000 0.991919
vn 0.126872 0.000000 0.991919
vn 0.126872 0.000000 0.991919
vn 0.126872 0.000000 0.991919
vn -0.188193 0.000000 0.982132
vn -0.188193 0.000000 0.982132
vn -0.188193 0.000000 0.982132
vn -0.188193 0.000000 0.982132
vn -0.026386 0.144452 -0.989160
vn -0.026386 0.144452 -0.989160
vn -0.026386 0.144452 -0.989160
vn -0.026386 0.144452 -0.989160
vn -0.026386 0.144452 -0.989160
vn 0.999693 0.000000 0.024772
vn 0.999693 0.000000 0.024772
vn 0.999693 0.000000 0.024772
vn 0.999693 0.000000 0.024772
vn 0.000000 1.000000 -0.000000
vn 0.000000 1.000000 -0.000000
vn 0.000000 1.000000 -0.000000
vn 0.000000 1.000000 -0.000000
vn 0.000000 -1.000000 -0.000000
vn 0.000000 -1.000000 -0.000000
vn 0.000000 -1.000000 -0.000000
vn 0.000000 -1.000000 -0.000000
vn 0.000000 -1.000000 -0.000000
vn 0.000000 -1.000000 -0.000000
vn -0.262599 0.000000 -0.964905
vn -0.262599 0.000000 -0.964905
vn -0.262599 0.000000 -0.964905
vn -0.262599 0.000000 -0.964905
vn -0.262599 0.000000 -0.964905
vn -0.262599 0.000000 -0.964905
vn 1.000000 0.000000 -0.000000
vn 1.000000 0.000000 -0.000000
vn 1.000000 0.000000 -0.000000
vn 1.000000 0.000000 -0.000000
vn 0.000000 1.000000 -0.000000
vn 0.000000 1.000000 -0.000000
vn 0.000000 1.000000 -0.000000
vn 0.000000 1.000000 -0.000000
vn 0.000000 1.000000 -0.000000
vn 0.000000 1.000000 -0.000000
vn 1.000000 0.000000 -0.000000
vn 1.000000 0.000000 -0.000000
vn 1.000000 0.000000 -0.000000
vn 1.000000 0.000000 -0.000000
vn 0.000000 1.000000 -0.000000
vn 0.000000 1.000000 -0.000000
vn 0.000000 1.000000 -0.000000
vn 0.000000 1.000000 -0.000000
vn 0.000000 1.000000 -0.000000
vn 0.000000 1.000000 -0.000000
vn 0.000000 1.000000 -0.000000
vn 0.000000 0.000000 -1.000000
vn 0.000000 0.000000 -1.000000
vn 0.000000 0.000000 -1.000000
vn 0.000000 0.000000 -1.000000
vn 0.000000 0.000000 -1.000000
vn 0.000000 0.000000 -1.000000
vn 0.000000 0.000000 -1.000000
vn 0.000000 0.000000 -1.000000
vn 0.000000 0.000000 -1.000000
vn 0.000000 0.000000 -1.000000
vn 0.000000 0.000000 -1.000000
vn 0.000000 0.000000 -1.000000
vn 0.000000 0.000000 -1.000000
vn 0.000000 0.000000 -1.000000
vn 0.000000 0.000000 -1.000000
vn 0.000000 0.000000 -1.000000
vn 0.000000 0.000000 -1.000000
vn 0.000000 0.000000 -1.000000
vn 0.000000 0.000000 -1.000000
vn 0.000000 0.000000 -1.000000
vn 0.000000 0.000000 -1.000000
vn 0.000000 0.000000 -1.000000
vn 0.000000 0.000000 -1.000000
vn 0.000000 0.000000 -1.000000
vn 0.000000 0.000000 -1.000000
vn 0.000000 0.000000 -1.000000
vn 0.000000 0.000000 -1.000000
vn 0.000000 0.000000 -1.000000
vn 0.000000 0.000000 -1.000000
vn 0.000000 0.000000 -1.000000
vn 0.000000 0.000000 -1.000000
vn 0.000000 0.000000 -1.000000
vn 0.806554 0.198882 -0.556702
vn 0.806554 0.198882 -0.556702
vn 0.806554 0.198882 -0.556702
vn 0.806554 0.198882 -0.556702
vn 0.000000 0.665654 -0.746260
vn 0.000000 0.665654 -0.746260
vn 0.000000 0.665654 -0.746260
vn 0.000000 0.665654 -0.746260
vn 0.000000 -1.000000 -0.000000
vn 0.000000 -1.000000 -0.000000
vn 0.000000 -1.000000 -0.000000
vn 0.000000 -1.000000 -0.000000
vn 0.000000 -1.000000 -0.000000
vn 0.000000 -1.000000 -0.000000
vn 0.000000 0.000000 -1.000000
vn 0.000000 0.000000 -1.000000
vn 0.000000 0.000000 -1.000000
vn 0.000000 0.000000 -1.000000
vn 0.000000 0.000000 -1.000000
vn 0.000000 0.000000 -1.000000
vn 0.000000 0.000000 -1.000000
vn 0.000000 0.000000 -1.000000
vn 0.806554 -0.198882 -0.556702
vn 0.806554 -0.198882 -0.556702
vn 0.806554 -0.198882 -0.556702
vn 0.806554 -0.198882 -0.556702
vn 0.000000 -0.665654 -0.746260
vn 0.000000 -0.665654 -0.746260
vn 0.000000 -0.665654 -0.746260
vn 0.000000 -0.665654 -0.746260
vn 0.000000 -0.919869 -0.392227
vn 0.000000 -0.919869 -0.392227
vn 0.000000 -0.919869 -0.392227
vn 0.000000 -0.919869 -0.392227
vn -0.833168 0.110087 -0.541952
vn -0.833168 0.110087 -0.541952
vn -0.833168 0.110087 -0.541952
vn -0.833168 0.110087 -0.541952
vn 0.000000 0.919869 -0.392227
vn 0.000000 0.919869 -0.392227
vn 0.000000 0.919869 -0.392227
vn 0.000000 0.919869 -0.392227
vn -0.833168 -0.110087 -0.541952
vn -0.833168 -0.110087 -0.541952
vn -0.833168 -0.110087 -0.541952
vn -0.833168 -0.110087 -0.541952
vn -0.999780 -0.000000 0.020981
vn -0.999780 -0.000000 0.020981
vn -0.999780 -0.000000 0.020981
vn -0.999780 -0.000000 0.020981
vn 0.164161 0.000000 -0.986434
vn 0.164161 0.000000 -0.986434
vn 0.164161 0.000000 -0.986434
vn 0.164161 0.000000 -0.986434
vn 0.207317 0.978264 -0.004351
vn 0.207317 0.978264 -0.004351
vn 0.207317 0.978264 -0.004351
vn 0.207317 0.978264 -0.004351
vn 0.241939 0.000000 0.970291
vn 0.241939 0.000000 0.970291
vn 0.241939 0.000000 0.970291
vn 0.241939 0.000000 0.970291
vn 0.207317 -0.978264 -0.004351
vn 0.207317 -0.978264 -0.004351
vn 0.207317 -0.978264 -0.004351
vn 0.207317 -0.978264 -0.004351
vn 0.000000 0.000000 -1.000000
vn 0.000000 0.000000 -1.000000
vn 0.000000 0.000000 -1.000000
vn 0.000000 0.000000 -1.000000
vn 0.000000 0.000000 -1.000000
vn 0.000000 0.000000 -1.000000
vn 0.000000 0.000000 -1.000000
vn 0.000000 0.000000 -1.000000
vn 0.000000 0.000000 -1.000000
vn -0.839040 0.472772 -0.269254
vn -0.839040 0.472772 -0.269254
vn -0.839040 0.472772 -0.269254
vn -0.839040 0.472772 -0.269254
vn 0.000035 0.947018 -0.321182
vn 0.000035 0.947018 -0.321182
vn 0.000035 0.947018 -0.321182
vn 0.000035 0.947018 -0.321182
vn 0.000000 -0.947018 -0.321182
vn 0.000000 -0.947018 -0.321182
vn 0.000000 -0.947018 -0.321182
vn 0.000000 -0.947018 -0.321182
vn 0.839039 -0.472775 -0.269254
vn 0.839039 -0.472775 -0.269254
vn 0.839039 -0.472775 -0.269254
vn 0.839039 -0.472775 -0.269254
vn 0.839039 0.472776 -0.269253
vn 0.839039 0.472776 -0.269253
vn 0.839039 0.472776 -0.269253
vn 0.839039 0.472776 -0.269253
vn 0.796237 -0.536919 -0.278791
vn 0.796237 -0.536919 -0.278791
vn 0.796237 -0.536919 -0.278791
vn 0.796237 -0.536919 -0.278791
vn 0.818194 0.551725 -0.161732
vn 0.818194 0.551725 -0.161732
vn 0.818194 0.551725 -0.161732
vn 0.818194 0.551725 -0.161732
vn 0.818194 -0.551725 -0.161734
vn 0.818194 -0.551725 -0.161734
vn 0.818194 -0.551725 -0.161734
vn 0.818194 -0.551725 -0.161734
vn 0.796238 0.536919 -0.278789
vn 0.796238 0.536919 -0.278789
vn 0.796238 0.536919 -0.278789
vn 0.796238 0.536919 -0.278789
vn 0.000000 0.000000 -1.000000
vn 0.000000 0.000000 -1.000000
vn 0.000000 0.000000 -1.000000
vn 0.000000 0.000000 -1.000000
vn 0.000000 0.000000 -1.000000
vn 0.000000 0.000000 -1.000000
vn 0.000000 0.000000 -1.000000
vn 0.000000 0.000000 -1.000000
vn 0.000000 0.000000 -1.000000
vn 0.000000 0.000000 -1.000000
vn 0.000000 0.000000 -1.000000
vn 0.000000 0.000000 -1.000000
vn 0.000000 0.000000 -1.000000
vn 0.000000 0.000000 -1.000000
vn -0.839041 -0.472772 -0.269253
vn -0.839041 -0.472772 -0.269253
vn -0.839041 -0.472772 -0.269253
vn -0.839041 -0.472772 -0.269253
vn -0.796239 0.536916 -0.278791
vn -0.796239 0.536916 -0.278791
vn -0.796239 0.536916 -0.278791
vn -0.796239 0.536916 -0.278791
vn -0.818197 -0.551722 -0.161732
vn -0.818197 -0.551722 -0.161732
vn -0.818197 -0.551722 -0.161732
vn -0.818197 -0.551722 -0.161732
vn -0.818197 0.551721 -0.161733
vn -0.818197 0.551721 -0.161733
vn -0.818197 0.551721 -0.161733
vn -0.818197 0.551721 -0.161733
vn -0.796240 -0.536916 -0.278789
vn -0.796240 -0.536916 -0.278789
vn -0.796240 -0.536916 -0.278789
vn -0.796240 -0.536916 -0.278789
f 1/1/1 2/2/2 3/3/3
f 2/2/2 4/4/4 5/5/5
f 6/6/6 7/7/7 8/8/8
f 6/6/6 8/8/8 9/9/9
f 10/10/10 11/11/11 12/12/12
f 10/10/10 12/12/12 13/13/13
f 14/14/14 15/15/15 16/16/16
f 14/14/14 16/16/16 17/17/17
f 18/18/18 19/19/19 20/20/20
f 18/18/18 20/20/20 21/21/21
f 22/22/22 23/23/23 24/24/24
f 22/22/22 24/24/24 25/25/25
f 26/26/26 27/27/27 28/28/28
f 26/26/26 28/28/28 29/29/29
f 30/30/30 31/31/31 32/32/32
f 30/30/30 32/32/32 33/33/33
f 34/34/34 35/35/35 36/36/36
f 36/36/36 37/37/37 34/34/34
f 37/37/37 38/38/38 34/34/34
f 38/38/38 39/39/39 34/34/34
f 40/40/40 41/41/41 42/42/42
f 40/40/40 42/42/42 43/43/43
f 44/44/44 45/45/45 46/46/46
f 46/46/46 47/47/47 44/44/44
f 46/46/46 48/48/48 47/47/47
f 49/49/49 50/50/50 51/51/51
f 49/49/49 51/51/51 52/52/52
f 53/53/53 54/54/54 55/55/55
f 53/53/53 55/55/55 56/56/56
f 57/57/57 58/58/58 59/59/59
f 59/59/59 60/60/60 57/57/57
f 60/60/60 61/61/61 57/57/57
f 61/61/61 62/62/62 57/57/57
f 63/63/63 64/64/64 65/65/65
f 65/65/65 66/66/66 63/63/63
f 66/66/66 67/67/67 63/63/63
f 67/67/67 68/68/68 63/63/63
f 69/69/69 70/70/70 71/71/71
f 69/69/69 71/71/71 72/72/72
f 73/73/73 74/74/74 75/75/75
f 75/75/75 76/76/76 73/73/73
f 75/75/75 77/77/77 76/76/76
f 77/77/77 78/78/78 76/76/76
f 79/79/79 80/80/80 81/81/81
f 79/79/79 81/81/81 82/82/82
f 83/83/83 84/84/84 85/85/85
f 85/85/85 86/86/86 83/83/83
f 86/86/86 87/87/87 83/83/83
f 87/87/87 88/88/88 83/83/83
f 88/88/88 89/89/89 83/83/83
f 90/90/90 91/91/91 92/92/92
f 91/91/91 90/90/90 93/93/93
f 94/94/94 91/91/91 93/93/93
f 90/90/90 95/95/95 93/93/93
f 96/96/96 94/94/94 93/93/93
f 96/96/96 93/93/93 97/97/97
f 97/97/97 98/98/98 96/96/96
f 99/99/99 93/93/93 95/95/95
f 100/100/100 93/93/93 99/99/99
f 95/95/95 101/101/101 99/99/99
f 101/101/101 102/102/102 99/99/99
f 101/101/101 103/103/103 102/102/102
f 99/99/99 104/104/104 100/100/100
f 104/104/104 105/105/105 100/100/100
f 104/104/104 106/106/106 105/105/105
f 106/106/106 107/107/107 105/105/105
f 106/106/106 108/108/108 107/107/107
f 108/108/108 109/109/109 107/107/107
f 98/98/98 110/110/110 111/111/111
f 98/98/98 112/112/112 110/110/110
f 113/113/113 114/114/114 103/103/103
f 113/113/113 115/115/115 114/114/114
f 112/112/112 116/116/116 117/117/117
f 117/117/117 118/118/118 112/112/112
f 117/117/117 119/119/119 118/118/118
f 118/118/118 119/119/119 120/120/120
f 118/118/118 120/120/120 121/121/121
f 122/122/122 123/123/123 124/124/124
f 122/122/122 124/124/124 125/125/125
f 126/126/126 127/127/127 128/128/128
f 126/126/126 128/128/128 129/129/129
f 130/130/130 131/131/131 132/132/132
f 132/132/132 133/133/133 130/130/130
f 133/133/133 134/134/134 130/130/130
f 133/133/133 135/135/135 134/134/134
f 136/136/136 137/137/137 138/138/138
f 136/136/136 138/138/138 139/139/139
f 140/140/140 141/141/141 142/142/142
f 140/140/140 142/142/142 143/143/143
f 144/144/144 145/145/145 146/146/146
f 144/144/144 146/146/146 147/147/147
f 148/148/148 149/149/149 150/150/150
f 148/148/148 150/150/150 151/151/151
f 152/152/152 153/153/153 154/154/154
f 152/152/152 154/154/154 155/155/155
f 156/156/156 157/157/157 158/158/158
f 156/156/156 158/158/158 159/159/159
f 160/160/160 161/161/161 162/162/162
f 160/160/160 162/162/162 163/163/163
f 164/164/164 165/165/165 166/166/166
f 164/164/164 166/166/166 167/167/167
f 168/168/168 169/169/169 170/170/170
f 168/168/168 170/170/170 171/171/171
f 172/172/172 173/173/173 174/174/174
f 172/172/172 174/174/174 175/175/175
f 176/176/176 177/177/177 178/178/178
f 176/176/176 178/178/178 179/179/179
f 180/180/180 181/181/181 182/182/182
f 180/180/180 182/182/182 183/183/183
f 184/184/184 185/185/185 186/186/186
f 184/184/184 186/186/186 187/187/187
f 188/188/188 189/189/189 190/190/190
f 191/191/191 189/189/189 192/192/192
f 191/191/191 190/190/190 193/193/193
f 191/191/191 194/194/194 190/190/190
f 195/195/195 194/194/194 191/191/191
f 196/196/196 190/190/190 194/194/194
f 197/197/197 198/198/198 199/199/199
f 197/197/197 199/199/199 200/200/200
f 201/201/201 202/202/202 203/203/203
f 201/201/201 203/203/203 204/204/204
f 205/205/205 206/206/206 207/207/207
f 205/205/205 207/207/207 208/208/208
f 209/209/209 210/210/210 211/211/211
f 209/209/209 211/211/211 212/212/212
f 213/213/213 214/214/214 215/215/215
f 213/213/213 215/215/215 216/216/216
f 217/217/217 218/218/218 219/219/219
f 217/217/217 219/219/219 220/220/220
f 221/221/221 222/222/222 223/223/223
f 221/221/221 223/223/223 224/224/224
f 225/225/225 226/226/226 227/227/227
f 225/225/225 227/227/227 228/228/228
f 229/229/229 230/230/230 231/231/231
f 229/229/229 231/231/231 232/232/232
f 233/233/233 234/234/234 235/235/235
f 235/235/235 236/236/236 233/233/233
f 235/235/235 237/237/237 236/236/236
f 237/237/237 235/235/235 238/238/238
f 237/237/237 239/239/239 236/236/236
f 239/239/239 237/237/237 240/240/240
f 241/241/241 236/236/236 239/239/239
f 242/242/242 241/241/241 239/239/239
f 239/239/239 243/243/243 242/242/242
f 241/241/241 244/244/244 236/236/236
f 245/245/245 244/244/244 241/241/241
f 246/246/246 236/236/236 244/244/244
f 247/247/247 248/248/248 249/249/249
f 247/247/247 249/249/249 250/250/250
f 251/251/251 252/252/252 253/253/253
f 251/251/251 253/253/253 254/254/254
f 255/255/255 256/256/256 257/257/257
f 255/255/255 257/257/257 258/258/258
f 259/259/259 260/260/260 261/261/261
f 259/259/259 261/261/261 262/262/262
f 263/263/263 264/264/264 265/265/265
f 263/263/263 265/265/265 266/266/266
