# hmd_glasses (gear rip -> Godot: Z negated + winding reversed)
v -0.023642 -0.213647 -0.211114
v 0.023642 -0.213647 -0.211114
v 0.023642 -0.213647 -0.087698
v 0.023642 -0.213647 -0.087698
v -0.023642 -0.213647 -0.087698
v 0.216405 -0.213647 -0.041266
v 0.216405 -0.213647 -0.087698
v -0.185205 -0.182447 -0.087698
v -0.216405 0.182434 -0.087698
v -0.185205 0.182434 -0.087698
v -0.216405 -0.213647 -0.087698
v -0.185205 -0.182447 -0.087698
v -0.023642 -0.213647 -0.087698
v -0.023642 -0.182447 -0.087698
v -0.185205 -0.182447 -0.087698
v 0.216405 0.182434 -0.134130
v 0.023642 0.182434 -0.134130
v 0.023642 0.213634 -0.134130
v -0.023642 0.213634 -0.134130
v -0.023642 0.182434 -0.134130
v -0.216405 0.182434 -0.134130
v 0.216405 0.182434 -0.041266
v 0.216405 0.252887 0.005165
v 0.216405 0.182434 0.005165
v 0.216405 0.252887 0.005165
v 0.216405 0.182434 -0.087698
v 0.216405 0.182434 -0.134130
v 0.216405 0.252887 -0.134130
v 0.216405 0.252887 0.005165
v 0.185205 -0.182447 -0.087698
v 0.023642 -0.213647 -0.087698
v 0.023642 -0.182447 -0.087698
v 0.185205 -0.182447 -0.087698
v 0.216405 -0.213647 -0.087698
v 0.216405 0.182434 -0.087698
v 0.185205 0.182434 -0.087698
v 0.185205 -0.182447 -0.087698
v -0.216405 0.182434 -0.087698
v -0.216405 0.182434 -0.134130
v -0.185205 0.182434 -0.087698
v -0.185205 0.182434 -0.087698
v -0.023642 0.182434 -0.134130
v -0.185205 0.182434 -0.041266
v -0.216405 0.182434 0.005165
v -0.216405 0.182434 -0.041266
v -0.185205 0.182434 -0.041266
v 0.185205 0.182434 -0.041266
v -0.023642 0.182434 -0.134130
v 0.023642 0.182434 -0.134130
v -0.185205 0.182434 -0.087698
v -0.185205 0.182434 -0.041266
v 0.023642 -0.182447 -0.087698
v 0.023642 -0.213647 -0.087698
v 0.023642 -0.182447 -0.182756
v 0.023642 -0.182447 -0.182756
v 0.023642 -0.213647 -0.211114
v 0.185205 -0.182447 -0.041266
v 0.216405 0.182434 -0.041266
v 0.185205 0.182434 -0.041266
v 0.216405 -0.213647 -0.041266
v 0.185205 -0.182447 -0.041266
v -0.185205 -0.182447 -0.041266
v -0.185205 -0.182447 -0.041266
v -0.216405 -0.213647 -0.041266
v -0.216405 0.182434 -0.041266
v -0.185205 0.182434 -0.041266
v 0.023642 0.182434 -0.182756
v 0.023642 0.213634 -0.134130
v 0.023642 0.182434 -0.134130
v 0.023642 0.182434 -0.182756
v 0.023642 0.213634 -0.211114
v 0.023642 0.182434 -0.182756
v 0.023642 -0.182447 -0.182756
v 0.023642 -0.213647 -0.211114
v -0.023642 0.182434 -0.134130
v -0.023642 0.213634 -0.134130
v -0.023642 0.182434 -0.182756
v -0.023642 0.182434 -0.182756
v -0.023642 0.213634 -0.211114
v -0.023642 0.182434 -0.182756
v -0.023642 -0.182447 -0.182756
v -0.023642 -0.213647 -0.211114
v -0.023642 -0.182447 -0.182756
v -0.023642 -0.213647 -0.087698
v -0.023642 -0.182447 -0.182756
v -0.023642 -0.182447 -0.087698
v -0.087500 0.420300 -0.192895
v -0.112500 0.420300 -0.192895
v -0.112500 0.426519 -0.168681
v -0.087500 0.426519 -0.168681
v -0.184515 0.428678 -0.110564
v -0.208776 0.422744 -0.111647
v -0.209817 0.422439 -0.086670
v -0.185556 0.428374 -0.085587
v -0.184515 0.428678 -0.013934
v -0.208776 0.422744 -0.015017
v -0.209817 0.422439 0.009959
v -0.185556 0.428374 0.011043
v 0.087500 0.420300 -0.192895
v 0.087500 0.426519 -0.168681
v 0.112500 0.426519 -0.168681
v 0.112500 0.420300 -0.192895
v 0.184515 0.428678 -0.110564
v 0.185556 0.428374 -0.085587
v 0.209817 0.422439 -0.086670
v 0.208776 0.422744 -0.111647
v 0.184515 0.428678 -0.013934
v 0.185556 0.428374 0.011043
v 0.209817 0.422439 0.009959
v 0.208776 0.422744 -0.015017
v -0.216405 -0.213647 -0.087698
v -0.216405 -0.213647 -0.041266
v -0.216405 0.182434 -0.041266
v -0.216405 0.182434 -0.087698
v -0.216405 0.252887 0.005165
v -0.216405 0.182434 0.005165
v 0.216405 0.182434 0.005165
v 0.216405 0.252887 0.005165
v 0.023642 -0.213647 -0.211114
v -0.023642 -0.213647 -0.211114
v -0.023642 0.213634 -0.211114
v 0.023642 0.213634 -0.211114
v -0.185205 -0.182447 -0.041266
v -0.185205 -0.182447 -0.087698
v -0.185205 0.182434 -0.087698
v -0.185205 0.182434 -0.041266
v 0.023642 -0.182447 -0.182756
v -0.023642 -0.182447 -0.182756
v -0.023642 -0.182447 -0.087698
v 0.023642 -0.182447 -0.087698
v -0.185205 -0.182447 -0.041266
v -0.185205 -0.182447 -0.087698
v 0.023642 -0.182447 -0.087698
v -0.023642 0.182434 -0.182756
v 0.023642 0.182434 -0.182756
v 0.023642 0.182434 -0.134130
v -0.023642 0.182434 -0.134130
v -0.185205 0.182434 -0.041266
v 0.023642 0.182434 -0.134130
v 0.185205 0.182434 -0.041266
v 0.185205 0.182434 -0.087698
v 0.216405 0.182434 -0.134130
v 0.216405 0.182434 -0.087698
v -0.216405 0.182434 0.005165
v 0.216405 0.182434 0.005165
v 0.216405 0.182434 -0.041266
v 0.216405 -0.213647 -0.041266
v 0.216405 -0.213647 -0.087698
v 0.216405 0.182434 -0.087698
v 0.216405 0.182434 -0.041266
v -0.023642 0.213634 -0.134130
v 0.023642 0.213634 -0.134130
v 0.023642 0.213634 -0.211114
v -0.023642 0.213634 -0.211114
v -0.216405 0.252887 0.005165
v -0.259832 0.301511 -0.233220
v -0.216405 0.252887 -0.134130
v -0.259832 0.301511 0.104256
v -0.254255 0.410203 -0.229598
v -0.254255 0.410203 0.100634
v 0.216405 0.182434 -0.134130
v 0.023642 0.213634 -0.134130
v 0.216405 0.252887 -0.134130
v -0.216405 0.252887 -0.134130
v -0.216405 0.252887 -0.134130
v -0.023642 0.213634 -0.134130
v -0.216405 0.182434 -0.134130
v 0.259832 0.301511 -0.233220
v 0.254255 0.410203 -0.229598
v 0.254255 0.410203 0.100634
v 0.259832 0.301511 0.104256
v 0.216405 0.252887 -0.134130
v 0.216405 0.252887 0.005165
v 0.259832 0.301511 0.104256
v 0.254255 0.410203 0.100634
v -0.254255 0.410203 0.100634
v -0.259832 0.301511 0.104256
v -0.259832 0.301511 -0.233220
v -0.254255 0.410203 -0.229598
v 0.254255 0.410203 -0.229598
v 0.259832 0.301511 -0.233220
v -0.254255 0.410203 -0.229598
v -0.124757 0.439432 -0.116052
v 0.124757 0.439432 -0.116052
v 0.254255 0.410203 -0.229598
v -0.216405 0.252887 -0.134130
v -0.259832 0.301511 -0.233220
v 0.259832 0.301511 -0.233220
v 0.216405 0.252887 -0.134130
v -0.023642 -0.213647 -0.087698
v -0.216405 -0.213647 -0.041266
v -0.216405 -0.213647 -0.087698
v 0.216405 -0.213647 -0.041266
v 0.216405 0.252887 0.005165
v 0.259832 0.301511 0.104256
v -0.259832 0.301511 0.104256
v -0.216405 0.252887 0.005165
v 0.185205 0.182434 -0.087698
v 0.185205 -0.182447 -0.087698
v 0.185205 -0.182447 -0.041266
v 0.185205 0.182434 -0.041266
v 0.023642 -0.182447 -0.087698
v 0.185205 -0.182447 -0.041266
v 0.185205 -0.182447 -0.087698
v -0.185205 -0.182447 -0.041266
v -0.023642 -0.182447 -0.182756
v 0.023642 -0.182447 -0.182756
v 0.023642 0.182434 -0.182756
v -0.023642 0.182434 -0.182756
v -0.216405 0.252887 0.005165
v -0.216405 0.182434 -0.041266
v -0.216405 0.182434 0.005165
v -0.216405 0.182434 -0.087698
v -0.216405 0.252887 -0.134130
v -0.216405 0.182434 -0.134130
v 0.124757 0.439432 -0.116052
v -0.124757 0.439432 -0.116052
v -0.124757 0.439432 0.045985
v 0.124757 0.439432 0.045985
v -0.254255 0.410203 0.100634
v -0.124757 0.439432 0.045985
v -0.124757 0.439432 -0.116052
v -0.254255 0.410203 -0.229598
v 0.254255 0.410203 0.100634
v 0.124757 0.439432 0.045985
v -0.124757 0.439432 0.045985
v -0.254255 0.410203 0.100634
v 0.254255 0.410203 -0.229598
v 0.124757 0.439432 -0.116052
v 0.124757 0.439432 0.045985
v 0.254255 0.410203 0.100634
vt 0.710494161 0.773548424
vt 0.702814341 0.755007803
vt 0.710494161 0.736467183
vt 0.710494161 0.736467183
vt 0.729034781 0.781228244
vt 0.747575402 0.736467123
vt 0.729034781 0.728787422
vt 0.729034781 0.728787422
vt 0.7063272 0.768118024
vt 0.7063272 0.741897583
vt 0.729034781 0.781228244
vt 0.729034781 0.728787422
vt 0.751742363 0.768118024
vt 0.751742363 0.741897583
vt 0.729034781 0.728787422
vt 0.194022179 0.731866121
vt 0.186342418 0.7133255
vt 0.194022179 0.69478488
vt 0.212562829 0.687105119
vt 0.23110345 0.69478482
vt 0.23878327 0.7133255
vt 0.212562829 0.739545941
vt 0.23878327 0.7133255
vt 0.23110345 0.731866121
vt 0.23878327 0.7133255
vt 0.194022179 0.69478488
vt 0.212562829 0.687105119
vt 0.23110345 0.69478482
vt 0.23878327 0.7133255
vt 0.729034781 0.781228244
vt 0.751742363 0.741897583
vt 0.751742363 0.768118024
vt 0.729034781 0.781228244
vt 0.729034781 0.728787422
vt 0.7063272 0.741897583
vt 0.7063272 0.768118024
vt 0.729034781 0.781228244
vt 0.23110345 0.69478482
vt 0.236787349 0.703291357
vt 0.222596973 0.689100981
vt 0.222596973 0.689100981
vt 0.23878327 0.7133255
vt 0.212562829 0.687105119
vt 0.194022208 0.69478482
vt 0.202528715 0.689100981
vt 0.212562829 0.687105119
vt 0.18833831 0.723359644
vt 0.23878327 0.7133255
vt 0.222596973 0.73755002
vt 0.222596973 0.689100981
vt 0.212562829 0.687105119
vt 0.747575402 0.736467123
vt 0.755255222 0.755007803
vt 0.729034781 0.728787422
vt 0.729034781 0.728787422
vt 0.747575402 0.773548424
vt 0.702814341 0.755007803
vt 0.729034781 0.781228244
vt 0.710494161 0.773548424
vt 0.747575402 0.773548424
vt 0.702814341 0.755007803
vt 0.710494161 0.736467183
vt 0.710494161 0.736467183
vt 0.755255222 0.755007803
vt 0.747575402 0.736467123
vt 0.729034781 0.728787422
vt 0.710494161 0.736467183
vt 0.710494161 0.773548424
vt 0.702814341 0.755007803
vt 0.710494161 0.736467183
vt 0.729034781 0.781228244
vt 0.710494161 0.736467183
vt 0.729034781 0.728787422
vt 0.747575402 0.773548424
vt 0.755255222 0.755007803
vt 0.747575402 0.773548424
vt 0.747575402 0.736467123
vt 0.747575402 0.736467123
vt 0.729034781 0.781228244
vt 0.747575402 0.736467123
vt 0.729034781 0.728787422
vt 0.710494161 0.773548424
vt 0.729034781 0.728787422
vt 0.702814341 0.755007803
vt 0.729034781 0.728787422
vt 0.710494161 0.736467183
vt 0.195091337 0.147492886
vt 0.214687586 0.147492856
vt 0.214687586 0.167089105
vt 0.195091337 0.167089105
vt 0.195091337 0.147492886
vt 0.214687586 0.147492856
vt 0.214687586 0.167089105
vt 0.195091337 0.167089105
vt 0.195091337 0.147492886
vt 0.214687586 0.147492856
vt 0.214687586 0.167089105
vt 0.195091337 0.167089105
vt 0.195091337 0.147492886
vt 0.195091337 0.167089105
vt 0.214687586 0.167089105
vt 0.214687586 0.147492856
vt 0.195091337 0.147492886
vt 0.195091337 0.167089105
vt 0.214687586 0.167089105
vt 0.214687586 0.147492856
vt 0.195091337 0.147492886
vt 0.195091337 0.167089105
vt 0.214687586 0.167089105
vt 0.214687586 0.147492856
vt 0.710494161 0.736467183
vt 0.729034781 0.728787422
vt 0.747575402 0.736467123
vt 0.702814341 0.755007803
vt 0.186342418 0.687105119
vt 0.186342418 0.739545941
vt 0.23878327 0.739545941
vt 0.23878327 0.687105119
vt 0.702814341 0.728787422
vt 0.702814341 0.781228244
vt 0.755255222 0.781228244
vt 0.755255222 0.728787422
vt 0.702814341 0.728787422
vt 0.702814341 0.781228244
vt 0.755255222 0.781228244
vt 0.755255222 0.728787422
vt 0.755255222 0.755007803
vt 0.747575402 0.773548424
vt 0.729034781 0.781228244
vt 0.747575402 0.736467123
vt 0.702814341 0.755007803
vt 0.710494161 0.773548424
vt 0.747575402 0.736467123
vt 0.753259301 0.765041947
vt 0.747575402 0.773548424
vt 0.739068925 0.779232323
vt 0.755255222 0.755007803
vt 0.212562829 0.687105119
vt 0.222596973 0.73755002
vt 0.18833831 0.723359644
vt 0.194022208 0.731866121
vt 0.212562829 0.739545941
vt 0.202528715 0.73755002
vt 0.194022208 0.69478482
vt 0.18833831 0.703291357
vt 0.186342418 0.7133255
vt 0.710494161 0.773548424
vt 0.702814341 0.755007803
vt 0.710494161 0.736467183
vt 0.729034781 0.781228244
vt 0.702814341 0.728787422
vt 0.702814341 0.781228244
vt 0.755255222 0.781228244
vt 0.755255222 0.728787422
vt 0.23110345 0.731866121
vt 0.212562829 0.739545941
vt 0.212562829 0.739545941
vt 0.23110345 0.731866121
vt 0.212562829 0.739545941
vt 0.23110345 0.731866121
vt 0.194022179 0.731866121
vt 0.194022179 0.69478488
vt 0.212562829 0.739545941
vt 0.23110345 0.731866121
vt 0.23110345 0.731866121
vt 0.212562829 0.687105119
vt 0.23878327 0.7133255
vt 0.23110345 0.69478482
vt 0.23110345 0.69478482
vt 0.23878327 0.7133255
vt 0.23878327 0.7133255
vt 0.23110345 0.69478482
vt 0.23878327 0.7133255
vt 0.23878327 0.687105119
vt 0.23878327 0.687105119
vt 0.186342418 0.687105119
vt 0.186342418 0.687105119
vt 0.23110345 0.731866121
vt 0.23110345 0.731866121
vt 0.212562829 0.739545941
vt 0.212562829 0.739545941
vt 0.23110345 0.731866121
vt 0.23110345 0.731866121
vt 0.212562829 0.739545941
vt 0.212562829 0.739545941
vt 0.23110345 0.731866121
vt 0.23110345 0.731866121
vt 0.212562829 0.739545941
vt 0.212562829 0.739545941
vt 0.729034781 0.781228244
vt 0.755255222 0.755007803
vt 0.747575402 0.773548424
vt 0.747575402 0.736467123
vt 0.23878327 0.687105119
vt 0.23878327 0.687105119
vt 0.186342418 0.687105119
vt 0.186342418 0.687105119
vt 0.702814341 0.781228244
vt 0.755255222 0.781228244
vt 0.755255222 0.728787422
vt 0.702814341 0.728787422
vt 0.747575402 0.736467123
vt 0.710494161 0.736467183
vt 0.729034781 0.728787422
vt 0.702814341 0.755007803
vt 0.702814341 0.728787422
vt 0.702814341 0.781228244
vt 0.755255222 0.781228244
vt 0.755255222 0.728787422
vt 0.23110345 0.731866121
vt 0.23110345 0.69478482
vt 0.23878327 0.7133255
vt 0.186342418 0.7133255
vt 0.212562829 0.739545941
vt 0.194022179 0.731866121
vt 0.186342418 0.687105119
vt 0.186342418 0.739545941
vt 0.23878327 0.739545941
vt 0.23878327 0.687105119
vt 0.23110345 0.731866121
vt 0.23110345 0.731866121
vt 0.212562829 0.739545941
vt 0.212562829 0.739545941
vt 0.23878327 0.687105119
vt 0.23878327 0.687105119
vt 0.186342418 0.687105119
vt 0.186342418 0.687105119
vt 0.23110345 0.69478482
vt 0.23110345 0.69478482
vt 0.23878327 0.7133255
vt 0.23878327 0.7133255
vn -0.000000 -1.000000 -0.000000
vn -0.000000 -1.000000 -0.000000
vn -0.000000 -1.000000 -0.000000
vn -0.000000 -1.000000 -0.000000
vn -0.000000 -1.000000 -0.000000
vn -0.000000 -1.000000 -0.000000
vn -0.000000 -1.000000 -0.000000
vn -0.000000 0.000000 -1.000000
vn -0.000000 0.000000 -1.000000
vn -0.000000 0.000000 -1.000000
vn -0.000000 0.000000 -1.000000
vn -0.000000 0.000000 -1.000000
vn -0.000000 0.000000 -1.000000
vn -0.000000 0.000000 -1.000000
vn -0.000000 0.000000 -1.000000
vn -0.000000 0.000000 -1.000000
vn -0.000000 0.000000 -1.000000
vn -0.000000 0.000000 -1.000000
vn -0.000000 0.000000 -1.000000
vn -0.000000 0.000000 -1.000000
vn -0.000000 0.000000 -1.000000
vn 1.000000 0.000000 -0.000000
vn 0.971812 -0.235758 -0.000000
vn 1.000000 0.000000 -0.000000
vn 0.971812 -0.235758 -0.000000
vn 1.000000 0.000000 -0.000000
vn 1.000000 0.000000 -0.000000
vn 0.971812 -0.235758 -0.000000
vn 0.971812 -0.235758 -0.000000
vn -0.000000 0.000000 -1.000000
vn -0.000000 0.000000 -1.000000
vn -0.000000 0.000000 -1.000000
vn -0.000000 0.000000 -1.000000
vn -0.000000 0.000000 -1.000000
vn -0.000000 0.000000 -1.000000
vn -0.000000 0.000000 -1.000000
vn -0.000000 0.000000 -1.000000
vn -0.000000 -1.000000 -0.000000
vn -0.000000 -1.000000 -0.000000
vn -0.000000 -1.000000 -0.000000
vn -0.000000 -1.000000 -0.000000
vn -0.000000 -1.000000 -0.000000
vn -0.000000 -1.000000 -0.000000
vn -0.000000 -1.000000 -0.000000
vn -0.000000 -1.000000 -0.000000
vn -0.000000 -1.000000 -0.000000
vn -0.000000 -1.000000 -0.000000
vn -0.000000 -1.000000 -0.000000
vn -0.000000 -1.000000 -0.000000
vn -0.000000 -1.000000 -0.000000
vn -0.000000 -1.000000 -0.000000
vn 1.000000 0.000000 -0.000000
vn 1.000000 0.000000 -0.000000
vn 1.000000 0.000000 -0.000000
vn 1.000000 0.000000 -0.000000
vn 1.000000 0.000000 -0.000000
vn -0.000000 0.000000 1.000000
vn -0.000000 0.000000 1.000000
vn -0.000000 0.000000 1.000000
vn -0.000000 0.000000 1.000000
vn -0.000000 0.000000 1.000000
vn -0.000000 0.000000 1.000000
vn -0.000000 0.000000 1.000000
vn -0.000000 0.000000 1.000000
vn -0.000000 0.000000 1.000000
vn -0.000000 0.000000 1.000000
vn 1.000000 0.000000 -0.000000
vn 1.000000 0.000000 -0.000000
vn 1.000000 0.000000 -0.000000
vn 1.000000 0.000000 -0.000000
vn 1.000000 0.000000 -0.000000
vn 1.000000 0.000000 -0.000000
vn 1.000000 0.000000 -0.000000
vn 1.000000 0.000000 -0.000000
vn -1.000000 0.000000 -0.000000
vn -1.000000 0.000000 -0.000000
vn -1.000000 0.000000 -0.000000
vn -1.000000 0.000000 -0.000000
vn -1.000000 0.000000 -0.000000
vn -1.000000 0.000000 -0.000000
vn -1.000000 0.000000 -0.000000
vn -1.000000 0.000000 -0.000000
vn -1.000000 0.000000 -0.000000
vn -1.000000 0.000000 -0.000000
vn -1.000000 0.000000 -0.000000
vn -1.000000 0.000000 -0.000000
vn -0.000000 0.968562 -0.248771
vn -0.000000 0.968562 -0.248771
vn -0.000000 0.968562 -0.248771
vn -0.000000 0.968562 -0.248771
vn -0.237690 0.971341 -0.000000
vn -0.237690 0.971341 -0.000000
vn -0.237690 0.971341 -0.000000
vn -0.237690 0.971341 -0.000000
vn -0.237690 0.971341 -0.000000
vn -0.237690 0.971341 -0.000000
vn -0.237690 0.971341 -0.000000
vn -0.237690 0.971341 -0.000000
vn -0.000000 0.968562 -0.248771
vn -0.000000 0.968562 -0.248771
vn -0.000000 0.968562 -0.248771
vn -0.000000 0.968562 -0.248771
vn 0.237690 0.971341 -0.000000
vn 0.237690 0.971341 -0.000000
vn 0.237690 0.971341 -0.000000
vn 0.237690 0.971341 -0.000000
vn 0.237690 0.971341 -0.000000
vn 0.237690 0.971341 -0.000000
vn 0.237690 0.971341 -0.000000
vn 0.237690 0.971341 -0.000000
vn -1.000000 0.000000 -0.000000
vn -1.000000 0.000000 -0.000000
vn -1.000000 0.000000 -0.000000
vn -1.000000 0.000000 -0.000000
vn -0.000000 0.000000 1.000000
vn -0.000000 0.000000 1.000000
vn -0.000000 0.000000 1.000000
vn -0.000000 0.000000 1.000000
vn -0.000000 0.000000 -1.000000
vn -0.000000 0.000000 -1.000000
vn -0.000000 0.000000 -1.000000
vn -0.000000 0.000000 -1.000000
vn 1.000000 0.000000 -0.000000
vn 1.000000 0.000000 -0.000000
vn 1.000000 0.000000 -0.000000
vn 1.000000 0.000000 -0.000000
vn -0.000000 1.000000 -0.000000
vn -0.000000 1.000000 -0.000000
vn -0.000000 1.000000 -0.000000
vn -0.000000 1.000000 -0.000000
vn -0.000000 1.000000 -0.000000
vn -0.000000 1.000000 -0.000000
vn -0.000000 1.000000 -0.000000
vn -0.000000 -1.000000 -0.000000
vn -0.000000 -1.000000 -0.000000
vn -0.000000 -1.000000 -0.000000
vn -0.000000 -1.000000 -0.000000
vn -0.000000 -1.000000 -0.000000
vn -0.000000 -1.000000 -0.000000
vn -0.000000 -1.000000 -0.000000
vn -0.000000 -1.000000 -0.000000
vn -0.000000 -1.000000 -0.000000
vn -0.000000 -1.000000 -0.000000
vn -0.000000 -1.000000 -0.000000
vn -0.000000 -1.000000 -0.000000
vn -0.000000 -1.000000 -0.000000
vn 1.000000 0.000000 -0.000000
vn 1.000000 0.000000 -0.000000
vn 1.000000 0.000000 -0.000000
vn 1.000000 0.000000 -0.000000
vn -0.000000 1.000000 -0.000000
vn -0.000000 1.000000 -0.000000
vn -0.000000 1.000000 -0.000000
vn -0.000000 1.000000 -0.000000
vn -0.971812 -0.235758 -0.000000
vn -0.943130 -0.332424 -0.000000
vn -0.971812 -0.235758 -0.000000
vn -0.943130 -0.332424 -0.000000
vn -0.998686 0.051239 -0.000000
vn -0.998686 0.051239 -0.000000
vn -0.000000 0.000000 -1.000000
vn -0.000000 0.000000 -1.000000
vn -0.000000 0.000000 -1.000000
vn -0.000000 0.000000 -1.000000
vn -0.000000 0.000000 -1.000000
vn -0.000000 0.000000 -1.000000
vn -0.000000 0.000000 -1.000000
vn 0.943130 -0.332424 -0.000000
vn 0.998686 0.051239 -0.000000
vn 0.998686 0.051239 -0.000000
vn 0.943130 -0.332424 -0.000000
vn 0.971812 -0.235758 -0.000000
vn 0.971812 -0.235758 -0.000000
vn -0.000000 0.033301 0.999445
vn -0.000000 0.033301 0.999445
vn -0.000000 0.033301 0.999445
vn -0.000000 0.033301 0.999445
vn -0.000000 0.033301 -0.999445
vn -0.000000 0.033301 -0.999445
vn -0.000000 0.033301 -0.999445
vn -0.000000 0.033301 -0.999445
vn -0.111643 0.985676 -0.126409
vn -0.074318 0.993678 -0.084147
vn 0.074318 0.993678 -0.084147
vn 0.111643 0.985676 -0.126409
vn -0.000000 -0.897743 -0.440520
vn -0.000000 -0.897743 -0.440520
vn -0.000000 -0.897743 -0.440520
vn -0.000000 -0.897743 -0.440520
vn -0.000000 -1.000000 -0.000000
vn -0.000000 -1.000000 -0.000000
vn -0.000000 -1.000000 -0.000000
vn -0.000000 -1.000000 -0.000000
vn -0.000000 -0.897743 0.440520
vn -0.000000 -0.897743 0.440520
vn -0.000000 -0.897743 0.440520
vn -0.000000 -0.897743 0.440520
vn -1.000000 0.000000 -0.000000
vn -1.000000 0.000000 -0.000000
vn -1.000000 0.000000 -0.000000
vn -1.000000 0.000000 -0.000000
vn -0.000000 1.000000 -0.000000
vn -0.000000 1.000000 -0.000000
vn -0.000000 1.000000 -0.000000
vn -0.000000 1.000000 -0.000000
vn -0.000000 0.000000 1.000000
vn -0.000000 0.000000 1.000000
vn -0.000000 0.000000 1.000000
vn -0.000000 0.000000 1.000000
vn -0.971812 -0.235758 -0.000000
vn -1.000000 0.000000 -0.000000
vn -1.000000 0.000000 -0.000000
vn -1.000000 0.000000 -0.000000
vn -0.971812 -0.235758 -0.000000
vn -1.000000 0.000000 -0.000000
vn 0.074318 0.993678 -0.084147
vn -0.074318 0.993678 -0.084147
vn -0.075811 0.983810 0.162393
vn 0.075811 0.983810 0.162393
vn -0.114150 0.962901 0.244521
vn -0.075811 0.983810 0.162393
vn -0.074318 0.993678 -0.084147
vn -0.111643 0.985676 -0.126409
vn 0.114150 0.962901 0.244521
vn 0.075811 0.983810 0.162393
vn -0.075811 0.983810 0.162393
vn -0.114150 0.962901 0.244521
vn 0.111643 0.985676 -0.126409
vn 0.074318 0.993678 -0.084147
vn 0.075811 0.983810 0.162393
vn 0.114150 0.962901 0.244521
f 1/1/1 2/2/2 3/3/3
f 1/1/1 4/4/4 5/5/5
f 6/6/6 5/5/5 4/4/4
f 7/7/7 6/6/6 4/4/4
f 8/8/8 9/9/9 10/10/10
f 11/11/11 9/9/9 12/12/12
f 12/12/12 13/13/13 11/11/11
f 14/14/14 13/13/13 15/15/15
f 16/16/16 17/17/17 18/18/18
f 19/19/19 20/20/20 21/21/21
f 22/22/22 23/23/23 24/24/24
f 25/25/25 22/22/22 26/26/26
f 27/27/27 28/28/28 26/26/26
f 29/29/29 26/26/26 28/28/28
f 30/30/30 31/31/31 32/32/32
f 33/33/33 34/34/34 31/31/31
f 33/33/33 35/35/35 34/34/34
f 36/36/36 35/35/35 37/37/37
f 38/38/38 39/39/39 40/40/40
f 41/41/41 39/39/39 42/42/42
f 43/43/43 44/44/44 45/45/45
f 44/44/44 46/46/46 47/47/47
f 46/46/46 48/48/48 49/49/49
f 50/50/50 48/48/48 51/51/51
f 52/52/52 53/53/53 54/54/54
f 55/55/55 53/53/53 56/56/56
f 57/57/57 58/58/58 59/59/59
f 60/60/60 58/58/58 61/61/61
f 62/62/62 60/60/60 61/61/61
f 60/60/60 63/63/63 64/64/64
f 63/63/63 65/65/65 64/64/64
f 66/66/66 65/65/65 63/63/63
f 67/67/67 68/68/68 69/69/69
f 70/70/70 71/71/71 68/68/68
f 71/71/71 72/72/72 73/73/73
f 71/71/71 73/73/73 74/74/74
f 75/75/75 76/76/76 77/77/77
f 78/78/78 76/76/76 79/79/79
f 80/80/80 79/79/79 81/81/81
f 81/81/81 79/79/79 82/82/82
f 83/83/83 82/82/82 84/84/84
f 85/85/85 84/84/84 86/86/86
f 87/87/87 88/88/88 89/89/89
f 87/87/87 89/89/89 90/90/90
f 91/91/91 92/92/92 93/93/93
f 91/91/91 93/93/93 94/94/94
f 95/95/95 96/96/96 97/97/97
f 95/95/95 97/97/97 98/98/98
f 99/99/99 100/100/100 101/101/101
f 99/99/99 101/101/101 102/102/102
f 103/103/103 104/104/104 105/105/105
f 103/103/103 105/105/105 106/106/106
f 107/107/107 108/108/108 109/109/109
f 107/107/107 109/109/109 110/110/110
f 111/111/111 112/112/112 113/113/113
f 111/111/111 113/113/113 114/114/114
f 115/115/115 116/116/116 117/117/117
f 115/115/115 117/117/117 118/118/118
f 119/119/119 120/120/120 121/121/121
f 119/119/119 121/121/121 122/122/122
f 123/123/123 124/124/124 125/125/125
f 123/123/123 125/125/125 126/126/126
f 127/127/127 128/128/128 129/129/129
f 127/127/127 129/129/129 130/130/130
f 131/131/131 129/129/129 132/132/132
f 133/133/133 129/129/129 131/131/131
f 134/134/134 135/135/135 136/136/136
f 134/134/134 136/136/136 137/137/137
f 138/138/138 139/139/139 140/140/140
f 140/140/140 139/139/139 141/141/141
f 139/139/139 142/142/142 141/141/141
f 141/141/141 142/142/142 143/143/143
f 144/144/144 140/140/140 145/145/145
f 146/146/146 145/145/145 140/140/140
f 147/147/147 148/148/148 149/149/149
f 147/147/147 149/149/149 150/150/150
f 151/151/151 152/152/152 153/153/153
f 151/151/151 153/153/153 154/154/154
f 155/155/155 156/156/156 157/157/157
f 155/155/155 158/158/158 156/156/156
f 158/158/158 159/159/159 156/156/156
f 158/158/158 160/160/160 159/159/159
f 161/161/161 162/162/162 163/163/163
f 164/164/164 163/163/163 162/162/162
f 165/165/165 162/162/162 166/166/166
f 166/166/166 167/167/167 165/165/165
f 168/168/168 169/169/169 170/170/170
f 168/168/168 170/170/170 171/171/171
f 172/172/172 168/168/168 171/171/171
f 172/172/172 171/171/171 173/173/173
f 174/174/174 175/175/175 176/176/176
f 174/174/174 176/176/176 177/177/177
f 178/178/178 179/179/179 180/180/180
f 178/178/178 180/180/180 181/181/181
f 182/182/182 183/183/183 184/184/184
f 182/182/182 184/184/184 185/185/185
f 186/186/186 187/187/187 188/188/188
f 186/186/186 188/188/188 189/189/189
f 190/190/190 191/191/191 192/192/192
f 191/191/191 190/190/190 193/193/193
f 194/194/194 195/195/195 196/196/196
f 194/194/194 196/196/196 197/197/197
f 198/198/198 199/199/199 200/200/200
f 198/198/198 200/200/200 201/201/201
f 202/202/202 203/203/203 204/204/204
f 202/202/202 205/205/205 203/203/203
f 206/206/206 207/207/207 208/208/208
f 206/206/206 208/208/208 209/209/209
f 210/210/210 211/211/211 212/212/212
f 210/210/210 213/213/213 211/211/211
f 210/210/210 214/214/214 213/213/213
f 213/213/213 214/214/214 215/215/215
f 216/216/216 217/217/217 218/218/218
f 216/216/216 218/218/218 219/219/219
f 220/220/220 221/221/221 222/222/222
f 220/220/220 222/222/222 223/223/223
f 224/224/224 225/225/225 226/226/226
f 224/224/224 226/226/226 227/227/227
f 228/228/228 229/229/229 230/230/230
f 228/228/228 230/230/230 231/231/231
