# makeshift_vest_vest (gear rip -> Godot: Z negated + winding reversed)
v -0.721101 0.395900 -0.233427
v -0.721101 0.395900 -0.168159
v -0.413042 0.395900 -0.168159
v -0.201918 0.395900 -0.168160
v -0.201918 0.395900 -0.233428
v -0.201918 0.395899 0.148165
v -0.413041 0.395899 0.148165
v -0.721101 0.395899 0.148166
v -0.721101 0.395900 -0.168159
v -0.721101 0.119643 0.106558
v -0.721101 0.119643 -0.126551
v -0.721101 0.395899 0.148166
v -0.721101 0.340251 0.148166
v -0.201918 -0.395900 0.148164
v -0.201918 -0.395900 0.213432
v -0.721101 -0.395900 0.213433
v -0.721101 -0.395900 0.148165
v -0.413041 -0.395900 0.148164
v -0.201918 -0.395900 0.148164
v -0.788107 -0.119643 0.106558
v -0.788107 -0.119643 -0.126551
v -0.788107 -0.340251 0.213433
v -0.413042 0.395900 -0.168159
v -0.413042 0.340251 -0.168159
v -0.413041 0.340251 0.148165
v -0.413042 0.395900 -0.168159
v -0.413041 0.340251 0.148165
v -0.413041 0.395899 0.148165
v -0.413042 -0.395899 -0.168160
v -0.413041 -0.395900 0.148164
v -0.413041 -0.340251 0.148164
v -0.413042 -0.395899 -0.168160
v -0.413041 -0.340251 0.148164
v -0.413042 -0.340251 -0.168160
v -0.201918 0.395900 -0.168160
v -0.201918 0.395899 0.148165
v -0.201918 0.340251 0.148165
v -0.201918 0.395900 -0.168160
v -0.201918 0.340251 0.148165
v -0.201918 0.340251 -0.168160
v -0.788107 0.395900 0.213434
v -0.788107 -0.340251 0.213433
v -0.788107 -0.395900 0.213433
v -0.201918 -0.395899 -0.168161
v -0.201918 -0.340251 -0.168161
v -0.201918 -0.340251 0.148164
v -0.201918 -0.395899 -0.168161
v -0.201918 -0.340251 0.148164
v -0.201918 -0.395900 0.148164
v -0.413042 -0.340251 -0.168160
v -0.413041 -0.340251 0.148164
v -0.201918 -0.340251 0.148164
v -0.413042 -0.340251 -0.168160
v -0.201918 -0.340251 0.148164
v -0.201918 -0.340251 -0.168161
v -0.201918 -0.340251 0.148164
v -0.413041 -0.340251 0.148164
v -0.413041 0.340251 0.148165
v -0.201918 -0.395900 0.148164
v -0.201918 0.340251 0.148165
v -0.201918 0.395899 0.148165
v -0.000458 -0.216726 0.148164
v -0.000458 0.216726 0.148164
v -0.413041 0.340251 0.148165
v -0.201918 -0.340251 0.148164
v -0.721101 0.395899 0.148166
v -0.413041 0.395899 0.148165
v -0.413041 -0.340251 0.148164
v -0.413041 -0.395900 0.148164
v -0.721101 -0.395900 0.148165
v -0.721101 0.340251 0.148166
v -0.721101 0.395900 -0.168159
v -0.721101 -0.340251 -0.168160
v -0.721101 -0.395899 -0.168160
v -0.721101 0.119643 -0.126551
v -0.788107 0.119643 -0.126551
v -0.788107 -0.119643 -0.126551
v -0.721101 0.119643 -0.126551
v -0.788107 -0.119643 -0.126551
v -0.721101 -0.119643 -0.126552
v -0.832427 0.395629 0.216765
v -0.446336 0.444451 0.254624
v -0.442098 0.440960 0.215911
v -0.828190 0.392138 0.178052
v -0.828190 0.392138 0.178052
v -0.442098 0.440960 0.215911
v -0.397140 0.054591 0.255668
v -0.783231 0.005769 0.217810
v -0.783231 0.005769 0.217810
v -0.397140 0.054591 0.255668
v -0.401377 0.058081 0.294381
v -0.787469 0.009259 0.256523
v -0.787469 0.009259 0.256523
v -0.401377 0.058081 0.294381
v -0.446336 0.444451 0.254624
v -0.832427 0.395629 0.216765
v -0.446336 0.444451 0.254624
v -0.401377 0.058081 0.294381
v -0.397140 0.054591 0.255668
v -0.442098 0.440960 0.215911
v -0.787469 0.009259 0.256523
v -0.832427 0.395629 0.216765
v -0.828190 0.392138 0.178052
v -0.783231 0.005769 0.217810
v -0.443479 0.144891 0.268868
v 0.020758 0.183832 0.243997
v 0.018185 0.184771 0.197425
v -0.446053 0.145830 0.222295
v -0.446053 0.145830 0.222295
v 0.018185 0.184771 0.197425
v 0.056558 -0.280038 0.185936
v -0.407680 -0.318979 0.210807
v -0.407680 -0.318979 0.210807
v 0.056558 -0.280038 0.185936
v 0.059132 -0.280977 0.232509
v -0.405106 -0.319917 0.257379
v -0.405106 -0.319917 0.257379
v 0.059132 -0.280977 0.232509
v 0.020758 0.183832 0.243997
v -0.443479 0.144891 0.268868
v 0.020758 0.183832 0.243997
v 0.059132 -0.280977 0.232509
v 0.056558 -0.280038 0.185936
v 0.018185 0.184771 0.197425
v -0.405106 -0.319917 0.257379
v -0.443479 0.144891 0.268868
v -0.446053 0.145830 0.222295
v -0.407680 -0.318979 0.210807
v -0.272130 -0.167020 -0.262867
v 0.066623 0.027786 -0.249423
v 0.065423 0.027175 -0.210345
v -0.273330 -0.167631 -0.223790
v -0.273330 -0.167631 -0.223790
v 0.065423 0.027175 -0.210345
v -0.129478 0.366139 -0.211027
v -0.468231 0.171333 -0.224472
v -0.468231 0.171333 -0.224472
v -0.129478 0.366139 -0.211027
v -0.128278 0.366751 -0.250105
v -0.467031 0.171944 -0.263549
v -0.467031 0.171944 -0.263549
v -0.128278 0.366751 -0.250105
v 0.066623 0.027786 -0.249423
v -0.272130 -0.167020 -0.262867
v 0.066623 0.027786 -0.249423
v -0.128278 0.366751 -0.250105
v -0.129478 0.366139 -0.211027
v 0.065423 0.027175 -0.210345
v -0.467031 0.171944 -0.263549
v -0.272130 -0.167020 -0.262867
v -0.273330 -0.167631 -0.223790
v -0.468231 0.171333 -0.224472
v -0.834956 -0.145071 0.245972
v -0.804494 -0.463380 0.244085
v -0.734438 -0.477074 0.242769
v -0.764901 -0.158765 0.244656
v -0.764901 -0.158765 0.244656
v -0.734438 -0.477074 0.242769
v -0.734532 -0.481947 -0.268166
v -0.764995 -0.163639 -0.266278
v -0.764995 -0.163639 -0.266278
v -0.734532 -0.481947 -0.268166
v -0.804587 -0.468254 -0.266850
v -0.835050 -0.149945 -0.264963
v -0.835050 -0.149945 -0.264963
v -0.804587 -0.468254 -0.266850
v -0.804494 -0.463380 0.244085
v -0.834956 -0.145071 0.245972
v -0.804494 -0.463380 0.244085
v -0.804587 -0.468254 -0.266850
v -0.734532 -0.481947 -0.268166
v -0.734438 -0.477074 0.242769
v -0.835050 -0.149945 -0.264963
v -0.834956 -0.145071 0.245972
v -0.764901 -0.158765 0.244656
v -0.764995 -0.163639 -0.266278
v -0.661196 -0.441925 -0.263733
v -0.219023 -0.369210 -0.263014
v -0.219411 -0.367175 -0.201364
v -0.661584 -0.439891 -0.202083
v -0.661584 -0.439891 -0.202083
v -0.219411 -0.367175 -0.201364
v -0.292025 0.074530 -0.229876
v -0.734198 0.001814 -0.230595
v -0.734198 0.001814 -0.230595
v -0.292025 0.074530 -0.229876
v -0.291637 0.072495 -0.291526
v -0.733810 -0.000220 -0.292245
v -0.733810 -0.000220 -0.292245
v -0.291637 0.072495 -0.291526
v -0.219023 -0.369210 -0.263014
v -0.661196 -0.441925 -0.263733
v -0.219023 -0.369210 -0.263014
v -0.291637 0.072495 -0.291526
v -0.292025 0.074530 -0.229876
v -0.219411 -0.367175 -0.201364
v -0.733810 -0.000220 -0.292245
v -0.661196 -0.441925 -0.263733
v -0.661584 -0.439891 -0.202083
v -0.734198 0.001814 -0.230595
v -0.661907 0.360014 -0.204893
v -0.287200 0.312544 -0.200459
v -0.286597 0.312759 -0.252451
v -0.661304 0.360229 -0.256886
v -0.661304 0.360229 -0.256886
v -0.286597 0.312759 -0.252451
v -0.334191 -0.062208 -0.243194
v -0.708898 -0.014738 -0.247628
v -0.334191 -0.062208 -0.243194
v -0.286597 0.312759 -0.252451
v -0.287200 0.312544 -0.200459
v -0.334794 -0.062423 -0.191202
v -0.661304 0.360229 -0.256886
v -0.708898 -0.014738 -0.247628
v -0.709501 -0.014953 -0.195636
v -0.661907 0.360014 -0.204893
v -0.627455 0.295489 0.244028
v -0.124057 0.257248 0.232711
v -0.125215 0.258185 0.186078
v -0.628613 0.296426 0.197395
v -0.667064 -0.207034 0.189581
v -0.163666 -0.245275 0.178265
v -0.162509 -0.246212 0.224898
v -0.665907 -0.207971 0.236214
v -0.665907 -0.207971 0.236214
v -0.162509 -0.246212 0.224898
v -0.124057 0.257248 0.232711
v -0.627455 0.295489 0.244028
v -0.124057 0.257248 0.232711
v -0.162509 -0.246212 0.224898
v -0.163666 -0.245275 0.178265
v -0.125215 0.258185 0.186078
v -0.665907 -0.207971 0.236214
v -0.627455 0.295489 0.244028
v -0.628613 0.296426 0.197395
v -0.667064 -0.207034 0.189581
v -0.413042 0.395900 -0.168159
v -0.201918 0.395900 -0.168160
v -0.721101 0.395900 -0.233427
v -0.201918 0.395899 0.148165
v -0.413041 0.395899 0.148165
v -0.721101 0.395899 0.148166
v -0.721100 0.395899 0.213434
v -0.201918 0.395899 0.213433
v -0.201918 0.395899 0.148165
v -0.721101 0.395900 -0.168159
v -0.721101 0.119643 -0.126551
v -0.721101 -0.119643 -0.126552
v -0.721101 -0.340251 -0.168160
v -0.721101 -0.119643 0.106557
v -0.721101 0.340251 0.148166
v -0.721101 0.119643 0.106558
v -0.721101 -0.395900 0.148165
v -0.721101 -0.395900 0.213433
v -0.788107 -0.395900 0.213433
v -0.788108 -0.395899 -0.168159
v -0.721101 -0.395900 0.148165
v -0.201918 -0.395900 0.148164
v -0.721101 -0.395899 -0.168160
v -0.788108 -0.395900 -0.233428
v -0.201919 -0.395899 -0.233429
v -0.201918 -0.395899 -0.168161
v -0.413041 -0.395900 0.148164
v -0.413042 -0.395899 -0.168160
v -0.201919 -0.395899 -0.233429
v -0.788108 0.395900 -0.233427
v -0.788108 -0.395900 -0.233428
v -0.788108 -0.395899 -0.168159
v -0.788107 -0.119643 -0.126551
v -0.788107 -0.395900 0.213433
v -0.788107 -0.340251 0.213433
v -0.788107 0.119643 -0.126551
v -0.788107 0.395900 0.148166
v -0.788107 0.119643 0.106558
v -0.788107 0.395900 0.213434
v -0.788107 -0.119643 0.106558
v -0.788107 0.395900 0.148166
v -0.788107 0.395900 0.213434
v -0.721100 0.395899 0.213434
v -0.721101 0.395899 0.148166
v -0.788108 0.395900 -0.233427
v -0.721101 0.395900 -0.168159
v -0.721101 0.395900 -0.233427
v -0.721101 -0.395900 0.148165
v -0.721101 -0.395899 -0.168160
v -0.721101 -0.119643 0.106557
v -0.721101 -0.340251 -0.168160
v -0.413041 0.340251 0.148165
v -0.413042 0.340251 -0.168159
v -0.201918 0.340251 -0.168160
v -0.201918 0.340251 0.148165
v -0.000458 -0.216726 -0.168161
v -0.000458 -0.216726 -0.233429
v -0.000458 0.216726 -0.233429
v -0.000458 0.216726 -0.168160
v -0.201918 0.395900 -0.168160
v -0.000458 0.216726 -0.168160
v -0.000458 0.216726 -0.233429
v -0.201918 0.395900 -0.233428
v -0.201918 0.395899 0.213433
v -0.000458 0.216726 0.213433
v -0.000458 0.216726 0.148164
v -0.201918 0.395899 0.148165
v -0.201918 -0.395900 0.213432
v -0.000458 -0.216726 0.213432
v -0.000458 0.216726 0.213433
v -0.201918 0.395899 0.213433
v -0.721101 -0.395900 0.213433
v -0.721100 0.395899 0.213434
v -0.721100 0.395899 0.213434
v -0.788107 -0.395900 0.213433
v -0.721101 -0.395900 0.213433
v -0.788107 0.395900 0.213434
v -0.000458 -0.216726 0.213432
v -0.000458 -0.216726 0.148164
v -0.000458 0.216726 0.148164
v -0.000458 0.216726 0.213433
v -0.201918 0.395900 -0.233428
v -0.000458 0.216726 -0.233429
v -0.000458 -0.216726 -0.233429
v -0.201919 -0.395899 -0.233429
v -0.721101 0.395900 -0.233427
v -0.201919 -0.395899 -0.233429
v -0.788108 -0.395900 -0.233428
v -0.721101 0.395900 -0.233427
v -0.788108 0.395900 -0.233427
v -0.201919 -0.395899 -0.233429
v -0.000458 -0.216726 -0.233429
v -0.000458 -0.216726 -0.168161
v -0.201918 -0.395899 -0.168161
v -0.721101 -0.395899 -0.168160
v -0.413042 -0.395899 -0.168160
v -0.413042 -0.340251 -0.168160
v -0.413042 0.340251 -0.168159
v -0.201918 0.340251 -0.168160
v -0.201918 -0.340251 -0.168161
v -0.413042 0.395900 -0.168159
v -0.721101 0.395900 -0.168159
v -0.201918 -0.395899 -0.168161
v -0.000458 -0.216726 -0.168161
v -0.000458 0.216726 -0.168160
v -0.201918 0.395900 -0.168160
v -0.201918 0.395900 -0.168160
v -0.201918 -0.340251 -0.168161
v -0.201918 -0.395899 -0.168161
v -0.201918 0.340251 -0.168160
v -0.201918 -0.395900 0.148164
v -0.000458 -0.216726 0.148164
v -0.000458 -0.216726 0.213432
v -0.201918 -0.395900 0.213432
v -0.721101 0.119643 0.106558
v -0.721101 -0.119643 0.106557
v -0.788107 -0.119643 0.106558
v -0.788107 0.119643 0.106558
v -0.721101 0.119643 0.106558
v -0.788107 0.119643 0.106558
v -0.788107 0.119643 -0.126551
v -0.721101 0.119643 -0.126551
v -0.721101 -0.119643 0.106557
v -0.721101 -0.119643 -0.126552
v -0.788107 -0.119643 -0.126551
v -0.788107 -0.119643 0.106558
vt 0.102185994 0.706814885
vt 0.102185994 0.703885674
vt 0.102185994 0.703885674
vt 0.163707346 0.710468173
vt 0.102185994 0.706814885
vt 0.102185994 0.700956464
vt 0.163707346 0.707538962
vt 0.102185994 0.700956464
vt 0.16451031 0.765047193
vt 0.179080248 0.743192315
vt 0.16451031 0.743192315
vt 0.179080248 0.765047193
vt 0.179080248 0.743192315
vt 0.155778974 0.713397384
vt 0.0962104201 0.706814885
vt 0.0962104201 0.706814885
vt 0.094257623 0.706814885
vt 0.094257623 0.706814885
vt 0.155778974 0.713397384
vt 0.267374128 0.743192315
vt 0.25280419 0.743192315
vt 0.281944066 0.743192315
vt 0.232835472 0.708492041
vt 0.24762398 0.84060514
vt 0.24762398 0.818750143
vt 0.232835472 0.708492041
vt 0.24762398 0.818750143
vt 0.262193978 0.818750143
vt 0.24762398 0.774384737
vt 0.262193978 0.775040388
vt 0.232835472 0.708492041
vt 0.24762398 0.774384737
vt 0.232835472 0.708492041
vt 0.24762398 0.796895266
vt 0.69724828 0.726084471
vt 0.638094306 0.81415987
vt 0.638094306 0.792304873
vt 0.69724828 0.726084471
vt 0.638094306 0.792304873
vt 0.623524308 0.792304873
vt 0.237797111 0.633262038
vt 0.208657235 0.633262038
vt 0.194087297 0.633262038
vt 0.638094306 0.747939467
vt 0.623524308 0.748595119
vt 0.6087358 0.682046771
vt 0.638094306 0.747939467
vt 0.6087358 0.682046771
vt 0.638094306 0.770449996
vt 0.623524308 0.770449996
vt 0.623524308 0.770449996
vt 0.638094306 0.770449996
vt 0.623524308 0.770449996
vt 0.638094306 0.770449996
vt 0.6087358 0.682046771
vt 0.149721801 0.632934213
vt 0.179080248 0.721337318
vt 0.179080248 0.743192315
vt 0.179080248 0.721337318
vt 0.179080248 0.743192315
vt 0.179080248 0.765047193
vt 0.179080248 0.721337318
vt 0.179080248 0.765047193
vt 0.179080248 0.743192315
vt 0.149721801 0.632934213
vt 0.179080248 0.765047193
vt 0.179080248 0.765047193
vt 0.179080248 0.721337318
vt 0.179080248 0.699482441
vt 0.179080248 0.699482441
vt 0.179080248 0.743192315
vt 0.16451031 0.765047193
vt 0.16451031 0.721337318
vt 0.16451028 0.699482441
vt 0.16451031 0.743192315
vt 0.25280419 0.721337318
vt 0.149721801 0.632934213
vt 0.16451031 0.743192315
vt 0.149721801 0.632934213
vt 0.16451031 0.721337318
vt 0.165033072 0.288710892
vt 0.165033072 0.216658056
vt 0.157827795 0.216658056
vt 0.157827795 0.288710892
vt 0.157827795 0.144605219
vt 0.157827795 0.216658056
vt 0.229880631 0.216658056
vt 0.229880631 0.144605219
vt 0.179443687 0.216658056
vt 0.179443687 0.288710892
vt 0.186648965 0.288710892
vt 0.186648965 0.216658056
vt 0.301933497 0.144605219
vt 0.229880631 0.144605219
vt 0.229880631 0.216658056
vt 0.301933497 0.216658056
vt 0.165033102 0.216658056
vt 0.165033072 0.288710892
vt 0.17223838 0.288710892
vt 0.17223838 0.216658056
vt 0.17223838 0.216658056
vt 0.17223838 0.288710892
vt 0.179443687 0.288710892
vt 0.179443657 0.216658056
vt 0.806117654 0.103698105
vt 0.806117654 0.192101747
vt 0.818746805 0.192101747
vt 0.818746805 0.103698105
vt 0.806117654 0.192101747
vt 0.679826736 0.192101747
vt 0.679826736 0.280505389
vt 0.806117654 0.280505389
vt 0.844004989 0.103698105
vt 0.844004989 0.192101717
vt 0.856634021 0.192101717
vt 0.856634021 0.103698105
vt 0.806117654 0.192101717
vt 0.806117654 0.103698105
vt 0.679826736 0.103698105
vt 0.679826856 0.192101747
vt 0.844004989 0.192101806
vt 0.844004989 0.103698105
vt 0.831375837 0.103698105
vt 0.831375837 0.192101747
vt 0.831375837 0.192101717
vt 0.831375837 0.103698105
vt 0.818746805 0.103698105
vt 0.818746805 0.192101747
vt 0.165033072 0.288710892
vt 0.165033072 0.216658056
vt 0.157827795 0.216658056
vt 0.157827795 0.288710892
vt 0.157827795 0.144605219
vt 0.157827795 0.216658056
vt 0.229880631 0.216658056
vt 0.229880631 0.144605219
vt 0.179443687 0.216658056
vt 0.179443687 0.288710892
vt 0.186648965 0.288710892
vt 0.186648965 0.216658056
vt 0.301933497 0.144605219
vt 0.229880631 0.144605219
vt 0.229880631 0.216658056
vt 0.301933497 0.216658056
vt 0.165033102 0.216658056
vt 0.165033072 0.288710892
vt 0.17223838 0.288710892
vt 0.17223838 0.216658056
vt 0.17223838 0.216658056
vt 0.17223838 0.288710892
vt 0.179443687 0.288710892
vt 0.179443657 0.216658056
vt 0.806117654 0.103698105
vt 0.806117654 0.192101747
vt 0.818746805 0.192101747
vt 0.818746805 0.103698105
vt 0.806117654 0.192101747
vt 0.679826736 0.192101747
vt 0.679826736 0.280505389
vt 0.806117654 0.280505389
vt 0.844004989 0.103698105
vt 0.844004989 0.192101717
vt 0.856634021 0.192101717
vt 0.856634021 0.103698105
vt 0.806117654 0.192101717
vt 0.806117654 0.103698105
vt 0.679826736 0.103698105
vt 0.679826856 0.192101747
vt 0.844004989 0.192101806
vt 0.844004989 0.103698105
vt 0.831375837 0.103698105
vt 0.831375837 0.192101747
vt 0.831375837 0.192101717
vt 0.831375837 0.103698105
vt 0.818746805 0.103698105
vt 0.818746805 0.192101747
vt 0.165033072 0.288710892
vt 0.165033072 0.216658056
vt 0.157827795 0.216658056
vt 0.157827795 0.288710892
vt 0.157827795 0.144605219
vt 0.157827795 0.216658056
vt 0.229880631 0.216658056
vt 0.229880631 0.144605219
vt 0.179443687 0.216658056
vt 0.179443687 0.288710892
vt 0.186648965 0.288710892
vt 0.186648965 0.216658056
vt 0.301933497 0.144605219
vt 0.229880631 0.144605219
vt 0.229880631 0.216658056
vt 0.301933497 0.216658056
vt 0.165033102 0.216658056
vt 0.165033072 0.288710892
vt 0.17223838 0.288710892
vt 0.17223838 0.216658056
vt 0.17223838 0.216658056
vt 0.17223838 0.288710892
vt 0.179443687 0.288710892
vt 0.179443657 0.216658056
vt 0.729127049 0.849455059
vt 0.729127049 0.921507895
vt 0.736332357 0.921507895
vt 0.736332357 0.849455059
vt 0.851616859 0.777402222
vt 0.779564023 0.777402222
vt 0.779564023 0.849455059
vt 0.851616859 0.849455059
vt 0.714716494 0.849455059
vt 0.714716434 0.921507895
vt 0.721921802 0.921507895
vt 0.721921802 0.849455059
vt 0.721921802 0.849455059
vt 0.721921802 0.921507895
vt 0.729127049 0.921507895
vt 0.729127049 0.849455059
vt 0.751338184 0.642047763
vt 0.751338184 0.730451465
vt 0.763967335 0.730451465
vt 0.763967335 0.642047763
vt 0.789225519 0.642047763
vt 0.789225519 0.730451405
vt 0.801854551 0.730451405
vt 0.801854551 0.642047763
vt 0.751338184 0.730451405
vt 0.751338184 0.642047763
vt 0.625047266 0.642047763
vt 0.625047386 0.730451465
vt 0.789225519 0.730451465
vt 0.789225519 0.642047763
vt 0.776596367 0.642047763
vt 0.776596367 0.730451465
vt 0.776596367 0.730451405
vt 0.776596367 0.642047763
vt 0.763967335 0.642047763
vt 0.763967335 0.730451465
vt 0.102185994 0.703885674
vt 0.163707346 0.710468173
vt 0.102185994 0.706814885
vt 0.102185994 0.700956464
vt 0.163707346 0.707538962
vt 0.102185994 0.700956464
vt 0.102185994 0.698027253
vt 0.102185994 0.698027253
vt 0.102185994 0.700956464
vt 0.16451031 0.765047193
vt 0.16451031 0.743192315
vt 0.16451031 0.721337318
vt 0.16451031 0.721337318
vt 0.179080248 0.721337318
vt 0.179080248 0.743192315
vt 0.179080248 0.743192315
vt 0.179080248 0.699482441
vt 0.0962104201 0.706814885
vt 0.0962104201 0.698027253
vt 0.0923048258 0.698027253
vt 0.094257623 0.706814885
vt 0.155778974 0.713397384
vt 0.0923048258 0.706814885
vt 0.0903520286 0.698027253
vt 0.0903520286 0.706814885
vt 0.0923048258 0.706814885
vt 0.094257623 0.706814885
vt 0.153826207 0.713397384
vt 0.0903520286 0.706814885
vt 0.238234252 0.699482441
vt 0.238234252 0.765047193
vt 0.25280419 0.765047193
vt 0.25280419 0.743192315
vt 0.281944066 0.765047193
vt 0.281944066 0.743192315
vt 0.25280419 0.721337318
vt 0.267374128 0.699482441
vt 0.267374128 0.721337318
vt 0.281944066 0.699482441
vt 0.267374128 0.743192315
vt 0.108044386 0.700956464
vt 0.108044386 0.698027253
vt 0.102185994 0.698027253
vt 0.102185994 0.700956464
vt 0.108044386 0.706814885
vt 0.102185994 0.703885674
vt 0.102185994 0.706814885
vt 0.179080248 0.699482441
vt 0.16451028 0.699482441
vt 0.179080248 0.721337318
vt 0.16451031 0.721337318
vt 0.6087358 0.682046771
vt 0.623524308 0.792304873
vt 0.6087358 0.682046771
vt 0.638094306 0.792304873
vt 0.16451028 0.699482441
vt 0.149940372 0.699482441
vt 0.149940372 0.765047193
vt 0.16451031 0.765047193
vt 0.238234252 0.676971912
vt 0.238234252 0.676971912
vt 0.238234252 0.69882679
vt 0.238234252 0.69882679
vt 0.238234252 0.633262038
vt 0.238234252 0.633262038
vt 0.238234252 0.655116916
vt 0.238234252 0.655116916
vt 0.194087297 0.69882679
vt 0.194087297 0.69882679
vt 0.237797171 0.69882679
vt 0.237797171 0.69882679
vt 0.194087297 0.69882679
vt 0.237797171 0.69882679
vt 0.237797171 0.69882679
vt 0.194087297 0.633262038
vt 0.194087297 0.69882679
vt 0.237797111 0.633262038
vt 0.193650186 0.699482441
vt 0.179080248 0.699482441
vt 0.179080248 0.765047193
vt 0.193650216 0.765047193
vt 0.237797171 0.765047193
vt 0.237797171 0.765047193
vt 0.237797171 0.699482441
vt 0.237797171 0.699482441
vt 0.237797171 0.765047193
vt 0.237797171 0.699482441
vt 0.194087297 0.699482441
vt 0.237797171 0.765047193
vt 0.194087297 0.765047193
vt 0.149940372 0.69882679
vt 0.149940372 0.69882679
vt 0.16451031 0.69882679
vt 0.16451031 0.69882679
vt 0.16451028 0.699482441
vt 0.16451028 0.699482441
vt 0.16451031 0.721337318
vt 0.16451031 0.743192315
vt 0.16451031 0.743192315
vt 0.16451031 0.721337318
vt 0.16451031 0.765047193
vt 0.16451031 0.765047193
vt 0.179080248 0.69882679
vt 0.179080248 0.69882679
vt 0.238234252 0.676971912
vt 0.238234252 0.676971912
vt 0.238234252 0.676971912
vt 0.16451031 0.721337318
vt 0.179080248 0.69882679
vt 0.16451031 0.743192315
vt 0.179080248 0.69882679
vt 0.179080248 0.69882679
vt 0.193650216 0.69882679
vt 0.193650216 0.69882679
vt 0.149721801 0.632934213
vt 0.179080248 0.743192315
vt 0.149721801 0.632934213
vt 0.267374128 0.743192315
vt 0.149721801 0.632934213
vt 0.267374128 0.721337318
vt 0.149721801 0.632934213
vt 0.16451031 0.743192315
vt 0.149721801 0.632934213
vt 0.179080248 0.721337318
vt 0.149721801 0.632934213
vt 0.25280419 0.743192315
vn 0.000000 1.000000 0.000001
vn 0.000000 1.000000 0.000001
vn 0.000000 1.000000 0.000001
vn 0.174624 0.984635 0.000001
vn 0.355508 0.934673 0.000001
vn -0.000002 0.000001 -1.000000
vn -0.000002 0.000001 -1.000000
vn -0.000002 0.000001 -1.000000
vn 1.000000 0.000000 -0.000002
vn 1.000000 0.000000 -0.000002
vn 1.000000 0.000000 -0.000002
vn 1.000000 0.000000 -0.000002
vn 1.000000 0.000000 -0.000002
vn 0.174624 -0.984635 -0.000002
vn 0.355507 -0.934673 -0.000002
vn -0.000000 -1.000000 -0.000001
vn -0.000002 0.000001 -1.000000
vn -0.000002 0.000001 -1.000000
vn -0.000002 0.000001 -1.000000
vn -1.000000 -0.000000 0.000002
vn -1.000000 -0.000000 0.000002
vn -1.000000 -0.000000 0.000002
vn -1.000000 -0.000000 0.000002
vn -1.000000 -0.000000 0.000002
vn -1.000000 -0.000000 0.000002
vn -1.000000 -0.000000 0.000002
vn -1.000000 -0.000000 0.000002
vn -1.000000 -0.000000 0.000002
vn -1.000000 -0.000000 0.000002
vn -1.000000 -0.000000 0.000002
vn -1.000000 -0.000000 0.000002
vn -1.000000 -0.000000 0.000002
vn -1.000000 -0.000000 0.000002
vn -1.000000 -0.000000 0.000002
vn 1.000000 0.000000 -0.000002
vn 1.000000 0.000000 -0.000002
vn 1.000000 0.000000 -0.000002
vn 1.000000 0.000000 -0.000002
vn 1.000000 0.000000 -0.000002
vn 1.000000 0.000000 -0.000002
vn -0.000002 0.000001 -1.000000
vn -0.000002 0.000001 -1.000000
vn -0.000002 0.000001 -1.000000
vn 1.000000 0.000000 -0.000002
vn 1.000000 0.000000 -0.000002
vn 1.000000 0.000000 -0.000002
vn 1.000000 0.000000 -0.000002
vn 1.000000 0.000000 -0.000002
vn 1.000000 0.000000 -0.000002
vn 0.000000 1.000000 0.000001
vn 0.000000 1.000000 0.000001
vn 0.000000 1.000000 0.000001
vn 0.000000 1.000000 0.000001
vn 0.000000 1.000000 0.000001
vn 0.000000 1.000000 0.000001
vn -0.000002 0.000001 -1.000000
vn -0.000002 0.000001 -1.000000
vn -0.000002 0.000001 -1.000000
vn -0.000002 0.000001 -1.000000
vn -0.000002 0.000001 -1.000000
vn -0.000002 0.000001 -1.000000
vn -0.000002 0.000001 -1.000000
vn -0.000002 0.000001 -1.000000
vn -0.000002 0.000001 -1.000000
vn -0.000002 0.000001 -1.000000
vn -0.000002 0.000001 -1.000000
vn -0.000002 0.000001 -1.000000
vn -0.000002 0.000001 -1.000000
vn -0.000002 0.000001 -1.000000
vn -0.000002 0.000001 -1.000000
vn -0.000002 0.000001 -1.000000
vn -0.000002 0.000001 -1.000000
vn -0.000002 0.000001 -1.000000
vn -0.000002 0.000001 -1.000000
vn 0.000002 -0.000001 1.000000
vn 0.000002 -0.000001 1.000000
vn 0.000002 -0.000001 1.000000
vn 0.000002 -0.000001 1.000000
vn 0.000002 -0.000001 1.000000
vn 0.000002 -0.000001 1.000000
vn -0.114983 0.988150 -0.101682
vn -0.114983 0.988150 -0.101682
vn -0.114983 0.988150 -0.101682
vn -0.114983 0.988150 -0.101682
vn 0.108373 -0.089270 -0.990094
vn 0.108373 -0.089270 -0.990094
vn 0.108373 -0.089270 -0.990094
vn 0.108373 -0.089270 -0.990094
vn 0.114983 -0.988150 0.101682
vn 0.114983 -0.988150 0.101682
vn 0.114983 -0.988150 0.101682
vn 0.114983 -0.988150 0.101682
vn -0.108373 0.089270 0.990094
vn -0.108373 0.089270 0.990094
vn -0.108373 0.089270 0.990094
vn -0.108373 0.089270 0.990094
vn 0.987438 0.124863 0.096824
vn 0.987438 0.124863 0.096824
vn 0.987438 0.124863 0.096824
vn 0.987438 0.124863 0.096824
vn -0.987438 -0.124863 -0.096824
vn -0.987438 -0.124863 -0.096824
vn -0.987438 -0.124863 -0.096824
vn -0.987438 -0.124863 -0.096824
vn -0.082252 0.996307 0.024623
vn -0.082252 0.996307 0.024623
vn -0.082252 0.996307 0.024623
vn -0.082252 0.996307 0.024623
vn -0.055168 0.020119 -0.998274
vn -0.055168 0.020119 -0.998274
vn -0.055168 0.020119 -0.998274
vn -0.055168 0.020119 -0.998274
vn 0.082252 -0.996307 -0.024624
vn 0.082252 -0.996307 -0.024624
vn 0.082252 -0.996307 -0.024624
vn 0.082252 -0.996307 -0.024624
vn 0.055168 -0.020119 0.998274
vn 0.055168 -0.020119 0.998274
vn 0.055168 -0.020119 0.998274
vn 0.055168 -0.020119 0.998274
vn 0.995084 0.083469 -0.053308
vn 0.995084 0.083469 -0.053308
vn 0.995084 0.083469 -0.053308
vn 0.995084 0.083469 -0.053308
vn -0.995083 -0.083469 0.053310
vn -0.995083 -0.083469 0.053310
vn -0.995083 -0.083469 0.053310
vn -0.995083 -0.083469 0.053310
vn 0.498463 -0.866909 0.001746
vn 0.498463 -0.866909 0.001746
vn 0.498463 -0.866909 0.001746
vn 0.498463 -0.866909 0.001746
vn -0.030677 -0.015628 0.999407
vn -0.030677 -0.015628 0.999407
vn -0.030677 -0.015628 0.999407
vn -0.030677 -0.015628 0.999407
vn -0.498463 0.866909 -0.001745
vn -0.498463 0.866909 -0.001745
vn -0.498463 0.866909 -0.001745
vn -0.498463 0.866909 -0.001745
vn 0.030677 0.015628 -0.999407
vn 0.030677 0.015628 -0.999407
vn 0.030677 0.015628 -0.999407
vn 0.030677 0.015628 -0.999407
vn 0.866368 0.498221 0.034386
vn 0.866368 0.498221 0.034386
vn 0.866368 0.498221 0.034386
vn 0.866368 0.498221 0.034386
vn -0.866368 -0.498221 -0.034385
vn -0.866368 -0.498221 -0.034385
vn -0.866368 -0.498221 -0.034385
vn -0.866368 -0.498221 -0.034385
vn 0.017958 -0.004209 0.999830
vn 0.017958 -0.004209 0.999830
vn 0.017958 -0.004209 0.999830
vn 0.017958 -0.004209 0.999830
vn 0.995451 0.095273 -0.001092
vn 0.995451 0.095273 -0.001092
vn 0.995451 0.095273 -0.001092
vn 0.995451 0.095273 -0.001092
vn -0.017958 0.004209 -0.999830
vn -0.017958 0.004209 -0.999830
vn -0.017958 0.004209 -0.999830
vn -0.017958 0.004209 -0.999830
vn -0.995451 -0.095273 0.001091
vn -0.995451 -0.095273 0.001091
vn -0.995451 -0.095273 0.001091
vn -0.995451 -0.095273 0.001091
vn -0.191664 -0.981416 0.009397
vn -0.191664 -0.981416 0.009397
vn -0.191664 -0.981416 0.009397
vn -0.191664 -0.981416 0.009397
vn 0.191663 0.981416 -0.009397
vn 0.191663 0.981416 -0.009397
vn 0.191663 0.981416 -0.009397
vn 0.191663 0.981416 -0.009397
vn 0.162126 -0.986199 0.033561
vn 0.162126 -0.986199 0.033561
vn 0.162126 -0.986199 0.033561
vn 0.162126 -0.986199 0.033561
vn -0.011895 0.062463 0.997976
vn -0.011895 0.062463 0.997976
vn -0.011895 0.062463 0.997976
vn -0.011895 0.062463 0.997976
vn -0.162126 0.986199 -0.033561
vn -0.162126 0.986199 -0.033561
vn -0.162126 0.986199 -0.033561
vn -0.162126 0.986199 -0.033561
vn 0.011895 -0.062463 -0.997976
vn 0.011895 -0.062463 -0.997976
vn 0.011895 -0.062463 -0.997976
vn 0.011895 -0.062463 -0.997976
vn 0.986746 0.162271 0.000846
vn 0.986746 0.162271 0.000846
vn 0.986746 0.162271 0.000846
vn 0.986746 0.162271 0.000846
vn -0.986746 -0.162271 -0.000846
vn -0.986746 -0.162271 -0.000846
vn -0.986746 -0.162271 -0.000846
vn -0.986746 -0.162271 -0.000846
vn 0.125615 0.992064 0.005553
vn 0.125615 0.992064 0.005553
vn 0.125615 0.992064 0.005553
vn 0.125615 0.992064 0.005553
vn 0.008566 -0.025767 -0.999631
vn 0.008566 -0.025767 -0.999631
vn 0.008566 -0.025767 -0.999631
vn 0.008566 -0.025767 -0.999631
vn 0.992015 -0.125644 0.010983
vn 0.992015 -0.125644 0.010983
vn 0.992015 -0.125644 0.010983
vn 0.992015 -0.125644 0.010983
vn -0.992015 0.125644 -0.010982
vn -0.992015 0.125644 -0.010982
vn -0.992015 0.125644 -0.010982
vn -0.992015 0.125644 -0.010982
vn 0.076140 0.996932 0.018126
vn 0.076140 0.996932 0.018126
vn 0.076140 0.996932 0.018126
vn 0.076140 0.996932 0.018126
vn -0.076140 -0.996932 -0.018126
vn -0.076140 -0.996932 -0.018126
vn -0.076140 -0.996932 -0.018126
vn -0.076140 -0.996932 -0.018126
vn 0.021170 -0.017130 0.999629
vn 0.021170 -0.017130 0.999629
vn 0.021170 -0.017130 0.999629
vn 0.021170 -0.017130 0.999629
vn 0.996783 -0.075721 -0.026254
vn 0.996783 -0.075721 -0.026254
vn 0.996783 -0.075721 -0.026254
vn 0.996783 -0.075721 -0.026254
vn -0.996783 0.075721 0.026254
vn -0.996783 0.075721 0.026254
vn -0.996783 0.075721 0.026254
vn -0.996783 0.075721 0.026254
vn 0.000000 1.000000 0.000001
vn 0.174624 0.984635 0.000001
vn 0.000000 1.000000 0.000001
vn 0.174624 0.984635 0.000001
vn 0.000000 1.000000 0.000001
vn 0.000000 1.000000 0.000001
vn 0.000000 1.000000 0.000001
vn 0.235123 0.971966 0.000001
vn 0.174624 0.984635 0.000001
vn 1.000000 0.000000 -0.000002
vn 1.000000 0.000000 -0.000002
vn 1.000000 0.000000 -0.000002
vn 1.000000 0.000000 -0.000002
vn 1.000000 0.000000 -0.000002
vn 1.000000 0.000000 -0.000002
vn 1.000000 0.000000 -0.000002
vn 1.000000 0.000000 -0.000002
vn -0.000000 -1.000000 -0.000001
vn -0.000000 -1.000000 -0.000001
vn -0.000000 -1.000000 -0.000001
vn -0.000000 -1.000000 -0.000001
vn 0.174624 -0.984635 -0.000002
vn -0.000000 -1.000000 -0.000001
vn -0.000000 -1.000000 -0.000001
vn 0.174624 -0.984635 -0.000002
vn 0.174624 -0.984635 -0.000002
vn -0.000000 -1.000000 -0.000001
vn -0.000000 -1.000000 -0.000001
vn 0.174624 -0.984635 -0.000002
vn -1.000000 -0.000000 0.000002
vn -1.000000 -0.000000 0.000002
vn -1.000000 -0.000000 0.000002
vn -1.000000 -0.000000 0.000002
vn -1.000000 -0.000000 0.000002
vn -1.000000 -0.000000 0.000002
vn -1.000000 -0.000000 0.000002
vn -1.000000 -0.000000 0.000002
vn -1.000000 -0.000000 0.000002
vn -1.000000 -0.000000 0.000002
vn -1.000000 -0.000000 0.000002
vn 0.000000 1.000000 0.000001
vn 0.000000 1.000000 0.000001
vn 0.000000 1.000000 0.000001
vn 0.000000 1.000000 0.000001
vn 0.000000 1.000000 0.000001
vn 0.000000 1.000000 0.000001
vn 0.000000 1.000000 0.000001
vn 1.000000 0.000000 -0.000002
vn 1.000000 0.000000 -0.000002
vn 1.000000 0.000000 -0.000002
vn 1.000000 0.000000 -0.000002
vn -0.000000 -1.000000 -0.000001
vn -0.000000 -1.000000 -0.000001
vn -0.000000 -1.000000 -0.000001
vn -0.000000 -1.000000 -0.000001
vn 1.000000 0.000000 -0.000002
vn 1.000000 0.000000 -0.000002
vn 1.000000 0.000000 -0.000002
vn 1.000000 0.000000 -0.000002
vn 0.174624 0.984635 0.000001
vn 0.664567 0.747229 -0.000000
vn 0.664567 0.747229 -0.000000
vn 0.355508 0.934673 0.000001
vn 0.235123 0.971966 0.000001
vn 0.664567 0.747229 -0.000000
vn 0.664567 0.747229 -0.000000
vn 0.174624 0.984635 0.000001
vn 0.000002 -0.000001 1.000000
vn 0.000002 -0.000001 1.000000
vn 0.000002 -0.000001 1.000000
vn 0.000002 -0.000001 1.000000
vn 0.000002 -0.000001 1.000000
vn 0.000002 -0.000001 1.000000
vn 0.000002 -0.000001 1.000000
vn 0.000002 -0.000001 1.000000
vn 0.000002 -0.000001 1.000000
vn 0.000002 -0.000001 1.000000
vn 1.000000 0.000000 -0.000002
vn 1.000000 0.000000 -0.000002
vn 1.000000 0.000000 -0.000002
vn 1.000000 0.000000 -0.000002
vn -0.000002 0.000001 -1.000000
vn -0.000002 0.000001 -1.000000
vn -0.000002 0.000001 -1.000000
vn -0.000002 0.000001 -1.000000
vn -0.000002 0.000001 -1.000000
vn -0.000002 0.000001 -1.000000
vn -0.000002 0.000001 -1.000000
vn -0.000002 0.000001 -1.000000
vn -0.000002 0.000001 -1.000000
vn 0.174624 -0.984635 -0.000002
vn 0.664567 -0.747229 -0.000002
vn 0.664567 -0.747229 -0.000002
vn 0.174624 -0.984635 -0.000002
vn 0.000002 -0.000001 1.000000
vn 0.000002 -0.000001 1.000000
vn 0.000002 -0.000001 1.000000
vn 0.000002 -0.000001 1.000000
vn 0.000002 -0.000001 1.000000
vn 0.000002 -0.000001 1.000000
vn 0.000002 -0.000001 1.000000
vn 0.000002 -0.000001 1.000000
vn 0.000002 -0.000001 1.000000
vn 0.000002 -0.000001 1.000000
vn 0.000002 -0.000001 1.000000
vn 0.000002 -0.000001 1.000000
vn -0.000002 0.000001 -1.000000
vn -0.000002 0.000001 -1.000000
vn -0.000002 0.000001 -1.000000
vn -0.000002 0.000001 -1.000000
vn 0.174624 -0.984635 -0.000002
vn 0.664567 -0.747229 -0.000002
vn 0.664567 -0.747229 -0.000002
vn 0.355507 -0.934673 -0.000002
vn -0.000002 0.000001 -1.000000
vn -0.000002 0.000001 -1.000000
vn -0.000002 0.000001 -1.000000
vn -0.000002 0.000001 -1.000000
vn -0.000000 -1.000000 -0.000001
vn -0.000000 -1.000000 -0.000001
vn -0.000000 -1.000000 -0.000001
vn -0.000000 -1.000000 -0.000001
vn 0.000000 1.000000 0.000001
vn 0.000000 1.000000 0.000001
vn 0.000000 1.000000 0.000001
vn 0.000000 1.000000 0.000001
f 1/1/1 2/2/2 3/3/3
f 4/4/4 5/5/5 1/1/1
f 6/6/6 7/7/7 8/8/8
f 9/9/9 10/10/10 11/11/11
f 9/9/9 12/12/12 13/13/13
f 14/14/14 15/15/15 16/16/16
f 17/17/17 18/18/18 19/19/19
f 20/20/20 21/21/21 22/22/22
f 23/23/23 24/24/24 25/25/25
f 26/26/26 27/27/27 28/28/28
f 29/29/29 30/30/30 31/31/31
f 32/32/32 33/33/33 34/34/34
f 35/35/35 36/36/36 37/37/37
f 38/38/38 39/39/39 40/40/40
f 41/41/41 42/42/42 43/43/43
f 44/44/44 45/45/45 46/46/46
f 47/47/47 48/48/48 49/49/49
f 50/50/50 51/51/51 52/52/52
f 53/53/53 54/54/54 55/55/55
f 56/56/56 57/57/57 58/58/58
f 59/59/59 56/56/56 60/60/60
f 59/59/59 60/60/60 61/61/61
f 62/62/62 59/59/59 61/61/61
f 61/61/61 63/63/63 62/62/62
f 64/64/64 60/60/60 65/65/65
f 66/66/66 67/67/67 64/64/64
f 64/64/64 68/68/68 66/66/66
f 68/68/68 69/69/69 66/66/66
f 69/69/69 70/70/70 66/66/66
f 70/70/70 71/71/71 66/66/66
f 72/72/72 73/73/73 74/74/74
f 75/75/75 76/76/76 77/77/77
f 78/78/78 79/79/79 80/80/80
f 81/81/81 82/82/82 83/83/83
f 81/81/81 83/83/83 84/84/84
f 85/85/85 86/86/86 87/87/87
f 85/85/85 87/87/87 88/88/88
f 89/89/89 90/90/90 91/91/91
f 89/89/89 91/91/91 92/92/92
f 93/93/93 94/94/94 95/95/95
f 93/93/93 95/95/95 96/96/96
f 97/97/97 98/98/98 99/99/99
f 97/97/97 99/99/99 100/100/100
f 101/101/101 102/102/102 103/103/103
f 101/101/101 103/103/103 104/104/104
f 105/105/105 106/106/106 107/107/107
f 105/105/105 107/107/107 108/108/108
f 109/109/109 110/110/110 111/111/111
f 109/109/109 111/111/111 112/112/112
f 113/113/113 114/114/114 115/115/115
f 113/113/113 115/115/115 116/116/116
f 117/117/117 118/118/118 119/119/119
f 117/117/117 119/119/119 120/120/120
f 121/121/121 122/122/122 123/123/123
f 121/121/121 123/123/123 124/124/124
f 125/125/125 126/126/126 127/127/127
f 125/125/125 127/127/127 128/128/128
f 129/129/129 130/130/130 131/131/131
f 129/129/129 131/131/131 132/132/132
f 133/133/133 134/134/134 135/135/135
f 133/133/133 135/135/135 136/136/136
f 137/137/137 138/138/138 139/139/139
f 137/137/137 139/139/139 140/140/140
f 141/141/141 142/142/142 143/143/143
f 141/141/141 143/143/143 144/144/144
f 145/145/145 146/146/146 147/147/147
f 145/145/145 147/147/147 148/148/148
f 149/149/149 150/150/150 151/151/151
f 149/149/149 151/151/151 152/152/152
f 153/153/153 154/154/154 155/155/155
f 153/153/153 155/155/155 156/156/156
f 157/157/157 158/158/158 159/159/159
f 157/157/157 159/159/159 160/160/160
f 161/161/161 162/162/162 163/163/163
f 161/161/161 163/163/163 164/164/164
f 165/165/165 166/166/166 167/167/167
f 165/165/165 167/167/167 168/168/168
f 169/169/169 170/170/170 171/171/171
f 169/169/169 171/171/171 172/172/172
f 173/173/173 174/174/174 175/175/175
f 173/173/173 175/175/175 176/176/176
f 177/177/177 178/178/178 179/179/179
f 177/177/177 179/179/179 180/180/180
f 181/181/181 182/182/182 183/183/183
f 181/181/181 183/183/183 184/184/184
f 185/185/185 186/186/186 187/187/187
f 185/185/185 187/187/187 188/188/188
f 189/189/189 190/190/190 191/191/191
f 189/189/189 191/191/191 192/192/192
f 193/193/193 194/194/194 195/195/195
f 193/193/193 195/195/195 196/196/196
f 197/197/197 198/198/198 199/199/199
f 197/197/197 199/199/199 200/200/200
f 201/201/201 202/202/202 203/203/203
f 201/201/201 203/203/203 204/204/204
f 205/205/205 206/206/206 207/207/207
f 205/205/205 207/207/207 208/208/208
f 209/209/209 210/210/210 211/211/211
f 209/209/209 211/211/211 212/212/212
f 213/213/213 214/214/214 215/215/215
f 213/213/213 215/215/215 216/216/216
f 217/217/217 218/218/218 219/219/219
f 217/217/217 219/219/219 220/220/220
f 221/221/221 222/222/222 223/223/223
f 221/221/221 223/223/223 224/224/224
f 225/225/225 226/226/226 227/227/227
f 225/225/225 227/227/227 228/228/228
f 229/229/229 230/230/230 231/231/231
f 229/229/229 231/231/231 232/232/232
f 233/233/233 234/234/234 235/235/235
f 233/233/233 235/235/235 236/236/236
f 237/237/237 238/238/238 239/239/239
f 240/240/240 238/238/238 237/237/237
f 240/240/240 237/237/237 241/241/241
f 242/242/242 243/243/243 244/244/244
f 244/244/244 245/245/245 242/242/242
f 246/246/246 247/247/247 248/248/248
f 248/248/248 249/249/249 246/246/246
f 249/249/249 248/248/248 250/250/250
f 246/246/246 251/251/251 252/252/252
f 250/250/250 252/252/252 251/251/251
f 250/250/250 251/251/251 253/253/253
f 254/254/254 255/255/255 256/256/256
f 256/256/256 257/257/257 254/254/254
f 254/254/254 257/257/257 258/258/258
f 256/256/256 259/259/259 257/257/257
f 260/260/260 259/259/259 256/256/256
f 259/259/259 260/260/260 261/261/261
f 262/262/262 258/258/258 263/263/263
f 263/263/263 264/264/264 262/262/262
f 264/264/264 259/259/259 265/265/265
f 264/264/264 265/265/265 262/262/262
f 266/266/266 267/267/267 268/268/268
f 268/268/268 269/269/269 266/266/266
f 268/268/268 270/270/270 269/269/269
f 270/270/270 271/271/271 269/269/269
f 269/269/269 272/272/272 266/266/266
f 272/272/272 273/273/273 266/266/266
f 273/273/273 272/272/272 274/274/274
f 275/275/275 273/273/273 274/274/274
f 271/271/271 275/275/275 276/276/276
f 275/275/275 274/274/274 276/276/276
f 277/277/277 278/278/278 279/279/279
f 279/279/279 280/280/280 277/277/277
f 280/280/280 281/281/281 277/277/277
f 280/280/280 282/282/282 281/281/281
f 282/282/282 283/283/283 281/281/281
f 284/284/284 285/285/285 286/286/286
f 285/285/285 287/287/287 286/286/286
f 288/288/288 289/289/289 290/290/290
f 288/288/288 290/290/290 291/291/291
f 292/292/292 293/293/293 294/294/294
f 292/292/292 294/294/294 295/295/295
f 296/296/296 297/297/297 298/298/298
f 296/296/296 298/298/298 299/299/299
f 300/300/300 301/301/301 302/302/302
f 300/300/300 302/302/302 303/303/303
f 304/304/304 305/305/305 306/306/306
f 306/306/306 307/307/307 304/304/304
f 307/307/307 308/308/308 304/304/304
f 307/307/307 309/309/309 308/308/308
f 310/310/310 311/311/311 312/312/312
f 310/310/310 313/313/313 311/311/311
f 314/314/314 315/315/315 316/316/316
f 314/314/314 316/316/316 317/317/317
f 318/318/318 319/319/319 320/320/320
f 320/320/320 321/321/321 318/318/318
f 321/321/321 322/322/322 318/318/318
f 323/323/323 324/324/324 325/325/325
f 324/324/324 326/326/326 325/325/325
f 327/327/327 328/328/328 329/329/329
f 327/327/327 329/329/329 330/330/330
f 331/331/331 332/332/332 333/333/333
f 333/333/333 334/334/334 331/331/331
f 335/335/335 334/334/334 333/333/333
f 333/333/333 336/336/336 335/335/335
f 334/334/334 337/337/337 331/331/331
f 337/337/337 338/338/338 331/331/331
f 339/339/339 340/340/340 341/341/341
f 341/341/341 342/342/342 339/339/339
f 343/343/343 344/344/344 345/345/345
f 343/343/343 346/346/346 344/344/344
f 347/347/347 348/348/348 349/349/349
f 347/347/347 349/349/349 350/350/350
f 351/351/351 352/352/352 353/353/353
f 351/351/351 353/353/353 354/354/354
f 355/355/355 356/356/356 357/357/357
f 355/355/355 357/357/357 358/358/358
f 359/359/359 360/360/360 361/361/361
f 359/359/359 361/361/361 362/362/362
