# navy_hat (gear rip -> Godot: Z negated + winding reversed)
v 0.313237 -0.053309 -0.315384
v 0.444262 -0.053309 -0.241712
v 0.444262 -0.053309 -0.141712
v 0.444262 -0.053309 -0.141712
v 0.313237 -0.213237 -0.169180
v -0.313237 0.053309 -0.315384
v -0.444262 0.053309 -0.241712
v -0.444262 0.053309 -0.141712
v -0.444262 0.053309 -0.141712
v -0.313237 0.213237 -0.169180
v -0.313237 -0.213237 -0.169180
v -0.444262 -0.053309 -0.141712
v -0.444262 -0.053309 -0.241712
v -0.313237 -0.213237 -0.169180
v -0.313237 -0.053309 -0.315384
v 0.213237 0.053309 -0.542057
v 0.213237 0.213237 -0.169180
v 0.313237 0.213237 -0.169180
v 0.313237 0.053309 -0.315384
v 0.313237 -0.213237 -0.169180
v 0.444262 -0.053309 -0.141712
v 0.444262 0.053309 -0.141712
v 0.313237 0.213237 -0.169180
v -0.213237 -0.053309 -0.542057
v -0.213237 -0.213237 -0.169180
v -0.313237 -0.213237 -0.169180
v -0.313237 -0.053309 -0.315384
v 0.213237 -0.213237 -0.169180
v 0.313237 -0.213237 -0.169180
v 0.313237 0.213237 -0.169180
v 0.213237 0.213237 -0.169180
v -0.213237 -0.053309 -0.542057
v -0.313237 -0.053309 -0.315384
v -0.313237 0.053309 -0.315384
v -0.213237 0.053309 -0.542057
v -0.444262 -0.053309 -0.241712
v -0.444262 -0.053309 -0.141712
v -0.444262 0.053309 -0.141712
v -0.444262 0.053309 -0.241712
v 0.444262 0.053309 -0.241712
v 0.444262 0.053309 -0.141712
v 0.444262 -0.053309 -0.141712
v 0.444262 -0.053309 -0.241712
v 0.313237 0.053309 -0.315384
v 0.444262 0.053309 -0.241712
v 0.444262 -0.053309 -0.241712
v 0.313237 -0.053309 -0.315384
v 0.313237 0.213237 -0.169180
v 0.444262 0.053309 -0.141712
v 0.444262 0.053309 -0.241712
v 0.313237 0.053309 -0.315384
v -0.313237 0.213237 -0.169180
v -0.444262 0.053309 -0.141712
v -0.444262 -0.053309 -0.141712
v -0.313237 -0.213237 -0.169180
v -0.313237 -0.053309 -0.315384
v -0.444262 -0.053309 -0.241712
v -0.444262 0.053309 -0.241712
v -0.313237 0.053309 -0.315384
v -0.313237 0.053309 -0.315384
v -0.313237 0.213237 -0.169180
v -0.213237 0.213237 -0.169180
v -0.213237 0.053309 -0.542057
v -0.213237 0.053309 -0.542057
v -0.213237 0.213237 -0.169180
v 0.213237 0.213237 -0.169180
v 0.213237 0.053309 -0.542057
v 0.313237 -0.053309 -0.315384
v 0.313237 -0.213237 -0.169180
v 0.213237 -0.213237 -0.169180
v 0.213237 -0.053309 -0.542057
v 0.213237 -0.053309 -0.542057
v 0.213237 -0.213237 -0.169180
v -0.213237 -0.213237 -0.169180
v -0.213237 -0.053309 -0.542057
v -0.313237 -0.213237 -0.169180
v -0.213237 -0.213237 -0.169180
v -0.213237 0.213237 -0.169180
v -0.313237 0.213237 -0.169180
v -0.213237 -0.213237 -0.169180
v 0.213237 -0.213237 -0.169180
v 0.213237 0.213237 -0.169180
v -0.213237 0.213237 -0.169180
v 0.313237 -0.053309 -0.315384
v 0.213237 -0.053309 -0.542057
v 0.213237 0.053309 -0.542057
v 0.313237 0.053309 -0.315384
v 0.213237 -0.053309 -0.542057
v -0.213237 -0.053309 -0.542057
v -0.213237 0.053309 -0.542057
v 0.213237 0.053309 -0.542057
v -0.444262 0.053309 -0.241712
v -0.459307 0.036091 -0.246538
v -0.459307 0.036091 -0.141712
v -0.444262 0.053309 -0.141712
v 0.444262 0.053309 -0.241712
v 0.459307 0.036091 -0.246538
v 0.323845 0.036091 -0.323766
v 0.313237 0.053309 -0.315384
v -0.213237 0.053309 -0.542057
v -0.220458 0.036091 -0.561379
v -0.323845 0.036091 -0.323766
v -0.313237 0.053309 -0.315384
v -0.444262 0.053309 -0.241712
v -0.313237 0.053309 -0.315384
v -0.323845 0.036091 -0.323766
v -0.459307 0.036091 -0.246538
v 0.213237 0.053309 -0.542057
v 0.313237 0.053309 -0.315384
v 0.323845 0.036091 -0.323766
v 0.220458 0.036091 -0.561379
v -0.213237 0.053309 -0.542057
v 0.213237 0.053309 -0.542057
v 0.220458 0.036091 -0.561379
v -0.220458 0.036091 -0.561379
v 0.444262 0.053309 -0.141712
v 0.459307 0.036091 -0.141712
v 0.459307 0.036091 -0.246538
v 0.444262 0.053309 -0.241712
v 0.444262 -0.053309 -0.241712
v 0.459307 -0.036091 -0.246538
v 0.459307 -0.036091 -0.141712
v 0.444262 -0.053309 -0.141712
v -0.444262 -0.053309 -0.241712
v -0.459307 -0.036091 -0.246538
v -0.323845 -0.036091 -0.323766
v -0.313237 -0.053309 -0.315384
v 0.213237 -0.053309 -0.542057
v 0.220458 -0.036091 -0.561379
v 0.323845 -0.036091 -0.323766
v 0.313237 -0.053309 -0.315384
v 0.444262 -0.053309 -0.241712
v 0.313237 -0.053309 -0.315384
v 0.323845 -0.036091 -0.323766
v 0.459307 -0.036091 -0.246538
v -0.213237 -0.053309 -0.542057
v -0.313237 -0.053309 -0.315384
v -0.323845 -0.036091 -0.323766
v -0.220458 -0.036091 -0.561379
v 0.213237 -0.053309 -0.542057
v -0.213237 -0.053309 -0.542057
v -0.220458 -0.036091 -0.561379
v 0.220458 -0.036091 -0.561379
v -0.444262 -0.053309 -0.141712
v -0.459307 -0.036091 -0.141712
v -0.459307 -0.036091 -0.246538
v -0.444262 -0.053309 -0.241712
v 0.002504 0.111870 -0.413842
v -0.099769 0.051254 -0.552656
v -0.209217 0.051294 -0.552565
v -0.072719 0.132195 -0.367296
v -0.099769 0.051254 -0.552656
v -0.099769 0.038781 -0.555370
v -0.209217 0.038821 -0.555279
v -0.209217 0.051294 -0.552565
vt 0.788846552 0.606700957
vt 0.788846552 0.653507054
vt 0.83565259 0.653507054
vt 0.83565259 0.653507054
vt 0.83565259 0.606700957
vt 0.788846552 0.606700957
vt 0.788846552 0.653507054
vt 0.83565259 0.653507054
vt 0.83565259 0.653507054
vt 0.83565259 0.606700957
vt 0.788846552 0.606700957
vt 0.788846552 0.653507054
vt 0.83565259 0.653507054
vt 0.788846552 0.606700957
vt 0.83565259 0.606700957
vt 0.788846552 0.606700957
vt 0.788846552 0.653507054
vt 0.83565259 0.653507054
vt 0.83565259 0.606700957
vt 0.788846552 0.606700957
vt 0.788846552 0.653507054
vt 0.83565259 0.653507054
vt 0.83565259 0.606700957
vt 0.788846552 0.606700957
vt 0.788846552 0.653507054
vt 0.83565259 0.653507054
vt 0.83565259 0.606700957
vt 0.788846552 0.606700957
vt 0.788846552 0.653507054
vt 0.83565259 0.653507054
vt 0.83565259 0.606700957
vt 0.788846552 0.606700957
vt 0.788846552 0.653507054
vt 0.83565259 0.653507054
vt 0.83565259 0.606700957
vt 0.788846552 0.606700957
vt 0.788846552 0.653507054
vt 0.83565259 0.653507054
vt 0.83565259 0.606700957
vt 0.788846552 0.606700957
vt 0.788846552 0.653507054
vt 0.83565259 0.653507054
vt 0.83565259 0.606700957
vt 0.788846552 0.606700957
vt 0.788846552 0.653507054
vt 0.83565259 0.653507054
vt 0.83565259 0.606700957
vt 0.788846552 0.606700957
vt 0.788846552 0.653507054
vt 0.83565259 0.653507054
vt 0.83565259 0.606700957
vt 0.788846552 0.606700957
vt 0.788846552 0.653507054
vt 0.83565259 0.653507054
vt 0.83565259 0.606700957
vt 0.788846552 0.606700957
vt 0.788846552 0.653507054
vt 0.83565259 0.653507054
vt 0.83565259 0.606700957
vt 0.788846552 0.606700957
vt 0.788846552 0.653507054
vt 0.83565259 0.653507054
vt 0.83565259 0.606700957
vt 0.788846552 0.606700957
vt 0.788846552 0.653507054
vt 0.83565259 0.653507054
vt 0.83565259 0.606700957
vt 0.788846552 0.606700957
vt 0.788846552 0.653507054
vt 0.83565259 0.653507054
vt 0.83565259 0.606700957
vt 0.788846552 0.606700957
vt 0.788846552 0.653507054
vt 0.83565259 0.653507054
vt 0.83565259 0.606700957
vt 0.788846552 0.606700957
vt 0.788846552 0.653507054
vt 0.83565259 0.653507054
vt 0.83565259 0.606700957
vt 0.788846552 0.606700957
vt 0.788846552 0.653507054
vt 0.83565259 0.653507054
vt 0.83565259 0.606700957
vt 0.788846552 0.606700957
vt 0.788846552 0.653507054
vt 0.83565259 0.653507054
vt 0.83565259 0.606700957
vt 0.788846552 0.606700957
vt 0.788846552 0.653507054
vt 0.83565259 0.653507054
vt 0.83565259 0.606700957
vt 0.273012042 0.469262034
vt 0.273012042 0.469262034
vt 0.273012042 0.516068101
vt 0.273012042 0.516068101
vt 0.226206005 0.516068101
vt 0.226206005 0.516068101
vt 0.226206005 0.469262034
vt 0.226206005 0.469262034
vt 0.273012042 0.469262034
vt 0.273012042 0.469262034
vt 0.273012042 0.516068101
vt 0.273012042 0.516068101
vt 0.226206005 0.516068101
vt 0.226206005 0.469262034
vt 0.226206005 0.469262034
vt 0.226206005 0.516068101
vt 0.226206005 0.469262034
vt 0.273012042 0.469262034
vt 0.273012042 0.469262034
vt 0.226206005 0.469262034
vt 0.226206005 0.469262034
vt 0.273012042 0.469262034
vt 0.273012042 0.469262034
vt 0.226206005 0.469262034
vt 0.226206005 0.516068101
vt 0.226206005 0.516068101
vt 0.226206005 0.469262034
vt 0.226206005 0.469262034
vt 0.273012042 0.469262034
vt 0.273012042 0.469262034
vt 0.273012042 0.516068101
vt 0.273012042 0.516068101
vt 0.226206005 0.516068101
vt 0.226206005 0.516068101
vt 0.226206005 0.469262034
vt 0.226206005 0.469262034
vt 0.273012042 0.469262034
vt 0.273012042 0.469262034
vt 0.273012042 0.516068101
vt 0.273012042 0.516068101
vt 0.226206005 0.516068101
vt 0.226206005 0.469262034
vt 0.226206005 0.469262034
vt 0.226206005 0.516068101
vt 0.226206005 0.469262034
vt 0.273012042 0.469262034
vt 0.273012042 0.469262034
vt 0.226206005 0.469262034
vt 0.226206005 0.469262034
vt 0.273012042 0.469262034
vt 0.273012042 0.469262034
vt 0.226206005 0.469262034
vt 0.226206005 0.516068101
vt 0.226206005 0.516068101
vt 0.226206005 0.469262034
vt 0.226206005 0.469262034
vt 0.201566443 0.360368878
vt 0.201566443 0.443358272
vt 0.284555912 0.443358332
vt 0.284555882 0.360368878
vt 0.201566443 0.443358272
vt 0.201566443 0.443358272
vt 0.284555912 0.443358332
vt 0.284555912 0.443358332
vn 0.723976 -0.508120 -0.466554
vn 0.585396 -0.679898 -0.441645
vn 0.585396 -0.679898 -0.441645
vn 0.585396 -0.679898 -0.441645
vn 0.548795 -0.706571 -0.446745
vn -0.667493 0.556158 -0.495118
vn -0.615032 0.675020 -0.407535
vn -0.688736 0.688471 -0.227267
vn -0.688736 0.688471 -0.227267
vn -0.548795 0.706571 -0.446745
vn -0.548795 -0.706571 -0.446745
vn -0.585396 -0.679898 -0.441645
vn -0.585396 -0.679898 -0.441645
vn -0.548795 -0.706571 -0.446745
vn -0.723976 -0.508120 -0.466554
vn 0.328506 0.808514 -0.488250
vn 0.265666 0.858153 -0.439311
vn 0.548795 0.706571 -0.446745
vn 0.564743 0.664801 -0.488984
vn -0.103141 0.000000 0.994667
vn -0.205182 0.000000 0.978724
vn -0.205182 0.000000 0.978724
vn -0.103141 0.000000 0.994667
vn -0.265666 -0.858153 -0.439311
vn -0.265666 -0.858153 -0.439311
vn -0.548795 -0.706571 -0.446745
vn -0.548795 -0.706571 -0.446745
vn -0.000000 0.000000 1.000000
vn -0.103141 0.000000 0.994667
vn -0.103141 0.000000 0.994667
vn -0.000000 0.000000 1.000000
vn -0.914922 0.000000 -0.403630
vn -0.733088 -0.250411 -0.632358
vn -0.746458 0.359396 -0.560031
vn -0.864051 0.330161 -0.380011
vn -1.000000 0.000000 -0.000000
vn -1.000000 0.000000 -0.000000
vn -0.936220 0.351413 -0.000000
vn -0.936220 0.351413 -0.000000
vn 0.936220 0.351413 -0.000000
vn 0.936220 0.351413 -0.000000
vn 1.000000 0.000000 -0.000000
vn 1.000000 0.000000 -0.000000
vn 0.658113 0.208846 -0.723374
vn 0.468526 0.300909 -0.830625
vn 0.490112 0.000000 -0.871660
vn 0.740468 0.000000 -0.672092
vn 0.548795 0.706571 -0.446745
vn 0.688736 0.688471 -0.227267
vn 0.615032 0.675020 -0.407535
vn 0.667493 0.556158 -0.495118
vn 0.103141 0.000000 0.994667
vn 0.205182 0.000000 0.978724
vn 0.205182 0.000000 0.978724
vn 0.103141 0.000000 0.994667
vn -0.740468 0.000000 -0.672092
vn -0.490112 0.000000 -0.871660
vn -0.468526 0.300909 -0.830625
vn -0.658113 0.208846 -0.723374
vn -0.564743 0.664801 -0.488984
vn -0.548795 0.706571 -0.446745
vn -0.265666 0.858153 -0.439311
vn -0.328506 0.808514 -0.488250
vn -0.177497 0.832654 -0.524578
vn -0.265666 0.858153 -0.439311
vn 0.265666 0.858153 -0.439311
vn 0.177497 0.832654 -0.524578
vn 0.548795 -0.706571 -0.446745
vn 0.548795 -0.706571 -0.446745
vn 0.265666 -0.858153 -0.439311
vn 0.265666 -0.858153 -0.439311
vn 0.265666 -0.858153 -0.439311
vn 0.265666 -0.858153 -0.439311
vn -0.265666 -0.858153 -0.439311
vn -0.265666 -0.858153 -0.439311
vn 0.103141 0.000000 0.994667
vn -0.000000 0.000000 1.000000
vn -0.000000 0.000000 1.000000
vn 0.103141 0.000000 0.994667
vn -0.000000 0.000000 1.000000
vn -0.000000 0.000000 1.000000
vn -0.000000 0.000000 1.000000
vn -0.000000 0.000000 1.000000
vn 0.733088 -0.250411 -0.632358
vn 0.914922 0.000000 -0.403630
vn 0.864051 0.330161 -0.380011
vn 0.746458 0.359396 -0.560031
vn -0.000000 0.000000 -1.000000
vn -0.000000 0.000000 -1.000000
vn -0.000000 0.000000 -1.000000
vn -0.000000 0.000000 -1.000000
vn -0.856544 0.490063 -0.161772
vn -0.753017 0.658001 -0.000000
vn -0.753017 0.658001 -0.000000
vn -0.856544 0.490063 -0.161772
vn 0.527419 0.447115 -0.722438
vn 0.403510 0.573924 -0.712594
vn 0.578974 0.619011 -0.530674
vn 0.578073 0.557257 -0.596067
vn -0.767520 0.485491 -0.418583
vn -0.716275 0.623294 -0.313773
vn -0.578974 0.619011 -0.530674
vn -0.667493 0.556158 -0.495118
vn -0.527419 0.447115 -0.722438
vn -0.578073 0.557257 -0.596067
vn -0.578974 0.619011 -0.530674
vn -0.403510 0.573924 -0.712594
vn 0.767520 0.485491 -0.418583
vn 0.667493 0.556158 -0.495118
vn 0.578974 0.619011 -0.530674
vn 0.716275 0.623294 -0.313773
vn -0.177497 0.832654 -0.524578
vn 0.177497 0.832654 -0.524578
vn -0.000000 0.746588 -0.665286
vn -0.000000 0.746588 -0.665286
vn 0.856544 0.490063 -0.161772
vn 0.753017 0.658001 -0.000000
vn 0.753017 0.658001 -0.000000
vn 0.856544 0.490063 -0.161772
vn 0.753017 -0.658001 -0.000000
vn 0.753017 -0.658001 -0.000000
vn 0.753017 -0.658001 -0.000000
vn 0.753017 -0.658001 -0.000000
vn -0.403509 -0.573925 -0.712594
vn -0.403509 -0.573925 -0.712594
vn -0.578974 -0.619011 -0.530674
vn -0.578974 -0.619011 -0.530674
vn 0.716275 -0.623294 -0.313773
vn 0.716275 -0.623294 -0.313773
vn 0.578974 -0.619011 -0.530674
vn 0.578974 -0.619011 -0.530674
vn 0.403510 -0.573924 -0.712595
vn 0.578974 -0.619011 -0.530674
vn 0.578974 -0.619011 -0.530674
vn 0.403510 -0.573924 -0.712595
vn -0.716275 -0.623294 -0.313773
vn -0.578974 -0.619011 -0.530674
vn -0.578974 -0.619011 -0.530674
vn -0.716275 -0.623294 -0.313773
vn -0.000000 -0.746588 -0.665286
vn -0.000000 -0.746588 -0.665286
vn -0.000000 -0.746588 -0.665286
vn -0.000000 -0.746588 -0.665286
vn -0.753017 -0.658001 -0.000000
vn -0.753017 -0.658001 -0.000000
vn -0.753017 -0.658001 -0.000000
vn -0.753017 -0.658001 -0.000000
vn -0.000000 0.916437 -0.400179
vn -0.000000 0.916437 -0.400179
vn -0.000000 0.916437 -0.400179
vn -0.000000 0.916437 -0.400179
vn -0.000000 0.212601 -0.977139
vn -0.000000 0.212601 -0.977139
vn -0.000000 0.212601 -0.977139
vn -0.000000 0.212601 -0.977139
f 1/1/1 2/2/2 3/3/3
f 1/1/1 4/4/4 5/5/5
f 6/6/6 7/7/7 8/8/8
f 6/6/6 9/9/9 10/10/10
f 11/11/11 12/12/12 13/13/13
f 14/14/14 13/13/13 15/15/15
f 16/16/16 17/17/17 18/18/18
f 16/16/16 18/18/18 19/19/19
f 20/20/20 21/21/21 22/22/22
f 20/20/20 22/22/22 23/23/23
f 24/24/24 25/25/25 26/26/26
f 24/24/24 26/26/26 27/27/27
f 28/28/28 29/29/29 30/30/30
f 28/28/28 30/30/30 31/31/31
f 32/32/32 33/33/33 34/34/34
f 32/32/32 34/34/34 35/35/35
f 36/36/36 37/37/37 38/38/38
f 36/36/36 38/38/38 39/39/39
f 40/40/40 41/41/41 42/42/42
f 40/40/40 42/42/42 43/43/43
f 44/44/44 45/45/45 46/46/46
f 44/44/44 46/46/46 47/47/47
f 48/48/48 49/49/49 50/50/50
f 48/48/48 50/50/50 51/51/51
f 52/52/52 53/53/53 54/54/54
f 52/52/52 54/54/54 55/55/55
f 56/56/56 57/57/57 58/58/58
f 56/56/56 58/58/58 59/59/59
f 60/60/60 61/61/61 62/62/62
f 60/60/60 62/62/62 63/63/63
f 64/64/64 65/65/65 66/66/66
f 64/64/64 66/66/66 67/67/67
f 68/68/68 69/69/69 70/70/70
f 68/68/68 70/70/70 71/71/71
f 72/72/72 73/73/73 74/74/74
f 72/72/72 74/74/74 75/75/75
f 76/76/76 77/77/77 78/78/78
f 76/76/76 78/78/78 79/79/79
f 80/80/80 81/81/81 82/82/82
f 80/80/80 82/82/82 83/83/83
f 84/84/84 85/85/85 86/86/86
f 84/84/84 86/86/86 87/87/87
f 88/88/88 89/89/89 90/90/90
f 88/88/88 90/90/90 91/91/91
f 92/92/92 93/93/93 94/94/94
f 92/92/92 94/94/94 95/95/95
f 96/96/96 97/97/97 98/98/98
f 96/96/96 98/98/98 99/99/99
f 100/100/100 101/101/101 102/102/102
f 100/100/100 102/102/102 103/103/103
f 104/104/104 105/105/105 106/106/106
f 104/104/104 106/106/106 107/107/107
f 108/108/108 109/109/109 110/110/110
f 108/108/108 110/110/110 111/111/111
f 112/112/112 113/113/113 114/114/114
f 112/112/112 114/114/114 115/115/115
f 116/116/116 117/117/117 118/118/118
f 116/116/116 118/118/118 119/119/119
f 120/120/120 121/121/121 122/122/122
f 120/120/120 122/122/122 123/123/123
f 124/124/124 125/125/125 126/126/126
f 124/124/124 126/126/126 127/127/127
f 128/128/128 129/129/129 130/130/130
f 128/128/128 130/130/130 131/131/131
f 132/132/132 133/133/133 134/134/134
f 132/132/132 134/134/134 135/135/135
f 136/136/136 137/137/137 138/138/138
f 136/136/136 138/138/138 139/139/139
f 140/140/140 141/141/141 142/142/142
f 140/140/140 142/142/142 143/143/143
f 144/144/144 145/145/145 146/146/146
f 144/144/144 146/146/146 147/147/147
f 148/148/148 149/149/149 150/150/150
f 148/148/148 150/150/150 151/151/151
f 152/152/152 153/153/153 154/154/154
f 152/152/152 154/154/154 155/155/155
