# parrot_vest (gear rip -> Godot: Z negated + winding reversed)
v -1.017985 0.286065 -0.114437
v -0.997914 0.305777 -0.116033
v -0.997914 0.286065 -0.116033
v -1.017985 0.305777 -0.114436
v -1.017985 0.341227 -0.114436
v -0.997914 0.360939 -0.116033
v -0.997914 0.341227 -0.116033
v -1.017985 0.360939 -0.114436
v -0.827694 0.365616 -0.026857
v -0.740959 0.365616 -0.021647
v -0.744953 0.365616 -0.042615
v -0.823701 0.365616 -0.005889
v -0.827694 0.281387 -0.026857
v -0.744953 0.306416 -0.042616
v -0.744953 0.281388 -0.042616
v -0.827694 0.306416 -0.026857
v -0.827694 0.281387 -0.026857
v -0.740959 0.281387 -0.021647
v -0.823701 0.281387 -0.005889
v -0.744953 0.281388 -0.042616
v -0.823701 0.365616 -0.005889
v -0.740959 0.340587 -0.021647
v -0.740959 0.365616 -0.021647
v -0.823701 0.340587 -0.005889
v -0.823701 0.306416 -0.005889
v -0.740959 0.281387 -0.021647
v -0.740959 0.306416 -0.021647
v -0.823701 0.281387 -0.005889
v -0.827694 0.306416 -0.026857
v -0.740959 0.306416 -0.021647
v -0.744953 0.306416 -0.042616
v -0.823701 0.306416 -0.005889
v -0.827694 0.340587 -0.026857
v -0.744953 0.365616 -0.042615
v -0.744953 0.340588 -0.042615
v -0.827694 0.365616 -0.026857
v -0.740959 0.340587 -0.021647
v -0.827694 0.340587 -0.026857
v -0.744953 0.340588 -0.042615
v -0.823701 0.340587 -0.005889
v -1.030277 0.367252 -0.113129
v -1.050042 0.283203 -0.083755
v -1.050042 0.363801 -0.083755
v -1.030277 0.279752 -0.113129
v -0.886231 0.248112 0.115511
v -0.821019 0.248112 -0.008383
v -0.796704 0.274635 0.163489
v -0.846371 0.255788 -0.086739
v -0.917899 0.265176 0.064335
v -0.902353 0.263465 -0.123775
v -0.953531 0.272614 0.015637
v -0.966315 0.271609 -0.118452
v -0.998735 0.280051 -0.008357
v -1.030277 0.279752 -0.113129
v -1.050042 0.283203 -0.083755
v -1.039447 0.283203 -0.028207
v -1.039447 0.283203 -0.028207
v -1.050042 0.363801 -0.083755
v -1.050042 0.283203 -0.083755
v -1.039447 0.363801 -0.028207
v -0.998735 0.280051 -0.008357
v -1.039447 0.363801 -0.028207
v -1.039447 0.283203 -0.028207
v -0.998735 0.366952 -0.008357
v -0.953531 0.272614 0.015637
v -0.953531 0.374390 0.015637
v -0.917899 0.265176 0.064335
v -0.917899 0.381828 0.064335
v -0.886231 0.398892 0.115512
v -0.886231 0.248112 0.115511
v -0.796704 0.372368 0.163489
v -0.796704 0.274635 0.163489
v -0.998735 0.366952 -0.008357
v -1.050042 0.363801 -0.083755
v -1.039447 0.363801 -0.028207
v -1.030277 0.367252 -0.113129
v -0.966315 0.375395 -0.118452
v -0.953531 0.374390 0.015637
v -0.902353 0.383539 -0.123775
v -0.917899 0.381828 0.064335
v -0.846371 0.391216 -0.086739
v -0.886231 0.398892 0.115512
v -0.821019 0.398892 -0.008383
v -0.796704 0.372368 0.163489
v -1.006952 0.323502 -0.097257
v -0.929082 0.360342 -0.116843
v -0.948523 0.323502 -0.194954
v -0.987511 0.360342 -0.019146
v -1.006952 0.323502 -0.097257
v -0.929082 0.286662 -0.116843
v -0.987511 0.286662 -0.019146
v -0.948523 0.323502 -0.194954
v -0.929082 0.360342 -0.116843
v -0.929082 0.286662 -0.116843
v -0.948523 0.323502 -0.194954
v -0.909640 0.323502 -0.038731
v -0.821019 0.398892 -0.008383
v -0.846371 0.255788 -0.086739
v -0.846371 0.391216 -0.086739
v -0.821019 0.248112 -0.008383
v -0.796704 0.372368 0.163489
v -0.796704 0.274635 0.163489
v -0.846371 0.391216 -0.086739
v -0.846371 0.255788 -0.086739
v -0.902353 0.383539 -0.123775
v -0.902353 0.263465 -0.123775
v -0.966315 0.271609 -0.118452
v -0.966315 0.375395 -0.118452
v -1.030277 0.367252 -0.113129
v -1.030277 0.279752 -0.113129
vt 0.815478861 0.169624925
vt 0.811397135 0.174100518
vt 0.815478861 0.174100518
vt 0.811397135 0.169624925
vt 0.819560468 0.169624925
vt 0.815478861 0.174100518
vt 0.819560468 0.174100518
vt 0.815478861 0.169624925
vt 0.30576697 0.227937043
vt 0.310174972 0.209327996
vt 0.30576697 0.209292829
vt 0.310174972 0.227972209
vt 0.341272026 0.202037513
vt 0.346454531 0.183334887
vt 0.341272026 0.183334887
vt 0.346454531 0.202037513
vt 0.310174972 0.209327996
vt 0.314583093 0.227937043
vt 0.314583093 0.209292829
vt 0.310174972 0.227972209
vt 0.324173838 0.190102756
vt 0.318991214 0.208844483
vt 0.324173838 0.208844483
vt 0.318991214 0.190102756
vt 0.324173838 0.171361029
vt 0.318991214 0.190102756
vt 0.324173838 0.190102756
vt 0.318991214 0.171361029
vt 0.318991214 0.227488697
vt 0.323399335 0.20887953
vt 0.318991214 0.208844483
vt 0.323399335 0.227523744
vt 0.346454531 0.202037513
vt 0.341272026 0.220740139
vt 0.346454531 0.220740139
vt 0.341272026 0.202037513
vt 0.314583093 0.209327996
vt 0.318991214 0.227937043
vt 0.318991214 0.209292829
vt 0.314583093 0.227972209
vt 0.335470378 0.761004329
vt 0.354202926 0.743711889
vt 0.337513864 0.743711889
vt 0.356246412 0.761004329
vt 0.283686042 0.657599092
vt 0.325952411 0.723318756
vt 0.325952411 0.62549603
vt 0.317360401 0.769600451
vt 0.238954827 0.691323578
vt 0.290018618 0.79455626
vt 0.232139647 0.704617739
vt 0.269224167 0.795495749
vt 0.225324452 0.717911839
vt 0.248429686 0.796435237
vt 0.206840768 0.798314214
vt 0.211694062 0.744500041
vt 0.296886623 0.698940516
vt 0.313575804 0.678209424
vt 0.296886623 0.678209424
vt 0.313575804 0.698940516
vt 0.295020342 0.710401177
vt 0.313575804 0.698940516
vt 0.296886623 0.698940516
vt 0.315442085 0.710401177
vt 0.294087201 0.716131449
vt 0.316375226 0.716131449
vt 0.293154061 0.72186178
vt 0.317308366 0.72186178
vt 0.32084173 0.739718199
vt 0.289620697 0.739718199
vt 0.315349758 0.757574677
vt 0.295112669 0.757574677
vt 0.203932047 0.709562838
vt 0.196724236 0.678209424
vt 0.198616803 0.69919461
vt 0.212942064 0.678942204
vt 0.221050978 0.679308593
vt 0.206589669 0.714746952
vt 0.229159892 0.679674983
vt 0.209247291 0.719931066
vt 0.23982197 0.689406633
vt 0.226690471 0.733082056
vt 0.243172467 0.707454443
vt 0.243172467 0.74560082
vt 0.29376629 0.196688235
vt 0.306378752 0.183965623
vt 0.29376629 0.171361029
vt 0.306378752 0.209292829
vt 0.318991214 0.196688235
vt 0.306378752 0.183965623
vt 0.306378752 0.209292829
vt 0.318991214 0.171361029
vt 0.341272026 0.196208298
vt 0.327399641 0.203031242
vt 0.341272026 0.215904653
vt 0.327399641 0.183334887
vt 0.684072495 0.758199334
vt 0.71370405 0.739933968
vt 0.685662031 0.739933968
vt 0.715293527 0.758199334
vt 0.689564466 0.796660066
vt 0.709801555 0.796660066
vt 0.715293527 0.785864234
vt 0.743335605 0.785864234
vt 0.716883063 0.774518847
vt 0.741746068 0.774518847
vt 0.740724325 0.765872598
vt 0.717904806 0.765872598
vt 0.718926549 0.757226408
vt 0.739702582 0.757226408
vn -0.079279 0.000001 -0.996852
vn -0.079279 0.000001 -0.996852
vn -0.079279 0.000001 -0.996852
vn -0.079279 0.000001 -0.996852
vn -0.079279 0.000001 -0.996852
vn -0.079279 0.000001 -0.996852
vn -0.079279 0.000001 -0.996852
vn -0.079279 0.000001 -0.996852
vn 0.000000 1.000000 0.000001
vn 0.000000 1.000000 0.000001
vn 0.000000 1.000000 0.000001
vn 0.000000 1.000000 0.000001
vn -0.187095 0.000001 -0.982342
vn -0.187095 0.000001 -0.982342
vn -0.187095 0.000001 -0.982342
vn -0.187095 0.000001 -0.982342
vn -0.000000 -1.000000 -0.000001
vn -0.000000 -1.000000 -0.000001
vn -0.000000 -1.000000 -0.000001
vn -0.000000 -1.000000 -0.000001
vn 0.187094 -0.000001 0.982342
vn 0.187094 -0.000001 0.982342
vn 0.187094 -0.000001 0.982342
vn 0.187094 -0.000001 0.982342
vn 0.187094 -0.000001 0.982342
vn 0.187094 -0.000001 0.982342
vn 0.187094 -0.000001 0.982342
vn 0.187094 -0.000001 0.982342
vn 0.000000 1.000000 0.000001
vn 0.000000 1.000000 0.000001
vn 0.000000 1.000000 0.000001
vn 0.000000 1.000000 0.000001
vn -0.187095 0.000001 -0.982342
vn -0.187095 0.000001 -0.982342
vn -0.187095 0.000001 -0.982342
vn -0.187095 0.000001 -0.982342
vn -0.000000 -1.000000 -0.000001
vn -0.000000 -1.000000 -0.000001
vn -0.000000 -1.000000 -0.000001
vn -0.000000 -1.000000 -0.000001
vn -0.829663 0.000001 -0.558265
vn -0.943344 0.000000 -0.331816
vn -0.997849 0.000000 -0.065549
vn -0.829663 0.000001 -0.558265
vn -0.079017 -0.996754 -0.015409
vn 0.055664 -0.998020 0.029298
vn 0.223583 -0.967555 0.117681
vn -0.197094 -0.978830 -0.055193
vn -0.223834 -0.973910 -0.037370
vn -0.151447 -0.988460 0.003347
vn -0.164860 -0.986243 0.012064
vn -0.140828 -0.989645 0.027742
vn -0.124935 -0.991725 0.029536
vn -0.119861 -0.992028 0.038915
vn -0.100920 -0.994525 0.027107
vn -0.085019 -0.996247 0.016214
vn -0.982292 -0.000000 0.187355
vn -0.997849 0.000000 -0.065549
vn -0.943344 0.000000 -0.331816
vn -0.982292 -0.000000 0.187355
vn -0.448504 -0.000001 0.893781
vn -0.438250 -0.000001 0.898853
vn -0.438250 -0.000001 0.898853
vn -0.458700 -0.000001 0.888591
vn -0.594948 -0.000001 0.803764
vn -0.710276 -0.000001 0.703924
vn -0.829320 -0.000001 0.558774
vn -0.829320 -0.000001 0.558773
vn -0.747030 -0.000001 0.664790
vn -0.617083 -0.000001 0.786898
vn -0.472347 -0.000001 0.881412
vn -0.472347 -0.000001 0.881412
vn -0.124935 0.991725 0.029539
vn -0.100920 0.994525 0.027110
vn -0.085019 0.996247 0.016217
vn -0.119862 0.992028 0.038918
vn -0.140829 0.989645 0.027744
vn -0.164860 0.986243 0.012066
vn -0.151447 0.988460 0.003350
vn -0.223834 0.973911 -0.037368
vn -0.197093 0.978830 -0.055190
vn -0.079015 0.996754 -0.015405
vn 0.055666 0.998019 0.029301
vn 0.223583 0.967554 0.117683
vn -0.467137 0.838888 -0.279376
vn -0.467137 0.838888 -0.279376
vn -0.467137 0.838888 -0.279375
vn -0.467137 0.838887 -0.279376
vn -0.467138 -0.838886 -0.279378
vn -0.467138 -0.838886 -0.279378
vn -0.467138 -0.838886 -0.279379
vn -0.467138 -0.838886 -0.279378
vn 0.970394 0.000000 -0.241526
vn 0.970394 0.000000 -0.241526
vn 0.970394 0.000000 -0.241527
vn 0.970394 0.000000 -0.241525
vn 0.967532 0.000000 -0.252747
vn 0.796314 0.000001 -0.604883
vn 0.796314 0.000001 -0.604883
vn 0.980475 0.000000 -0.196644
vn 0.990140 0.000000 -0.140078
vn 0.990140 0.000000 -0.140078
vn 0.796314 0.000001 -0.604883
vn 0.796314 0.000001 -0.604883
vn 0.248102 0.000001 -0.968734
vn 0.248102 0.000001 -0.968734
vn -0.082935 0.000001 -0.996555
vn -0.082935 0.000001 -0.996555
vn -0.082935 0.000001 -0.996555
vn -0.082935 0.000001 -0.996555
f 1/1/1 2/2/2 3/3/3
f 4/4/4 2/2/2 1/1/1
f 5/5/5 6/6/6 7/7/7
f 8/8/8 6/6/6 5/5/5
f 9/9/9 10/10/10 11/11/11
f 12/12/12 10/10/10 9/9/9
f 13/13/13 14/14/14 15/15/15
f 16/16/16 14/14/14 13/13/13
f 17/17/17 18/18/18 19/19/19
f 20/20/20 18/18/18 17/17/17
f 21/21/21 22/22/22 23/23/23
f 24/24/24 22/22/22 21/21/21
f 25/25/25 26/26/26 27/27/27
f 28/28/28 26/26/26 25/25/25
f 29/29/29 30/30/30 31/31/31
f 32/32/32 30/30/30 29/29/29
f 33/33/33 34/34/34 35/35/35
f 36/36/36 34/34/34 33/33/33
f 37/37/37 38/38/38 39/39/39
f 40/40/40 38/38/38 37/37/37
f 41/41/41 42/42/42 43/43/43
f 44/44/44 42/42/42 41/41/41
f 45/45/45 46/46/46 47/47/47
f 48/48/48 46/46/46 45/45/45
f 49/49/49 48/48/48 45/45/45
f 50/50/50 48/48/48 49/49/49
f 49/49/49 51/51/51 50/50/50
f 50/50/50 51/51/51 52/52/52
f 51/51/51 53/53/53 52/52/52
f 52/52/52 53/53/53 54/54/54
f 53/53/53 55/55/55 54/54/54
f 56/56/56 55/55/55 53/53/53
f 57/57/57 58/58/58 59/59/59
f 60/60/60 58/58/58 57/57/57
f 61/61/61 62/62/62 63/63/63
f 64/64/64 62/62/62 61/61/61
f 65/65/65 64/64/64 61/61/61
f 66/66/66 64/64/64 65/65/65
f 67/67/67 66/66/66 65/65/65
f 68/68/68 66/66/66 67/67/67
f 67/67/67 69/69/69 68/68/68
f 70/70/70 69/69/69 67/67/67
f 70/70/70 71/71/71 69/69/69
f 72/72/72 71/71/71 70/70/70
f 73/73/73 74/74/74 75/75/75
f 76/76/76 74/74/74 73/73/73
f 76/76/76 73/73/73 77/77/77
f 77/77/77 73/73/73 78/78/78
f 77/77/77 78/78/78 79/79/79
f 79/79/79 78/78/78 80/80/80
f 80/80/80 81/81/81 79/79/79
f 82/82/82 81/81/81 80/80/80
f 81/81/81 82/82/82 83/83/83
f 83/83/83 82/82/82 84/84/84
f 85/85/85 86/86/86 87/87/87
f 88/88/88 86/86/86 85/85/85
f 89/89/89 90/90/90 91/91/91
f 92/92/92 90/90/90 89/89/89
f 93/93/93 94/94/94 95/95/95
f 96/96/96 94/94/94 93/93/93
f 97/97/97 98/98/98 99/99/99
f 100/100/100 98/98/98 97/97/97
f 101/101/101 100/100/100 97/97/97
f 102/102/102 100/100/100 101/101/101
f 103/103/103 104/104/104 105/105/105
f 105/105/105 104/104/104 106/106/106
f 106/106/106 107/107/107 105/105/105
f 105/105/105 107/107/107 108/108/108
f 107/107/107 109/109/109 108/108/108
f 110/110/110 109/109/109 107/107/107
