# pirate_hat (gear rip -> Godot: Z negated + winding reversed)
v -0.757384 -0.313237 0.044309
v -0.683712 -0.444262 0.044309
v -0.583712 -0.444262 0.044309
v -0.583712 -0.444262 0.044309
v -0.611180 -0.313237 0.204237
v -0.757384 0.313237 -0.062309
v -0.683712 0.444262 -0.062309
v -0.583712 0.444262 -0.062309
v -0.583712 0.444262 -0.062309
v -0.611180 0.313237 -0.222237
v -0.611180 0.313237 0.204237
v -0.583712 0.444262 0.044309
v -0.683712 0.444262 0.044309
v -0.611180 0.313237 0.204237
v -0.757384 0.313237 0.044309
v -0.689710 -0.121964 -0.193415
v -0.913255 -0.121965 -0.095800
v -0.913255 0.121964 -0.095800
v -0.689710 0.121965 -0.193415
v -0.984057 -0.213237 -0.062310
v -0.611180 -0.213237 -0.222237
v -0.611180 -0.313237 -0.222237
v -0.757384 -0.313237 -0.062309
v -0.611180 -0.313237 0.204237
v -0.583712 -0.444262 0.044309
v -0.583712 -0.444262 -0.062309
v -0.611180 -0.313237 -0.222237
v -0.984057 0.213237 0.044309
v -0.611180 0.213237 0.204237
v -0.611180 0.313237 0.204237
v -0.757384 0.313237 0.044309
v -0.611180 -0.213237 0.204237
v -0.611180 -0.313237 0.204237
v -0.611180 -0.313237 -0.222237
v -0.611180 -0.213237 -0.222237
v -0.984057 0.213237 0.044309
v -0.757384 0.313237 0.044309
v -0.757384 0.313237 -0.062309
v -0.984057 0.213237 -0.062309
v -0.683712 0.444262 0.044309
v -0.583712 0.444262 0.044309
v -0.583712 0.444262 -0.062309
v -0.683712 0.444262 -0.062309
v -0.683712 -0.444262 -0.062309
v -0.583712 -0.444262 -0.062309
v -0.583712 -0.444262 0.044309
v -0.683712 -0.444262 0.044309
v -0.757384 -0.313237 -0.062309
v -0.683712 -0.444262 -0.062309
v -0.683712 -0.444262 0.044309
v -0.757384 -0.313237 0.044309
v -0.611180 -0.313237 -0.222237
v -0.583712 -0.444262 -0.062309
v -0.683712 -0.444262 -0.062309
v -0.757384 -0.313237 -0.062309
v -0.611180 0.313237 -0.222237
v -0.583712 0.444262 -0.062309
v -0.583712 0.444262 0.044309
v -0.611180 0.313237 0.204237
v -0.757384 0.313237 0.044309
v -0.683712 0.444262 0.044309
v -0.683712 0.444262 -0.062309
v -0.757384 0.313237 -0.062309
v -0.757384 0.313237 -0.062309
v -0.611180 0.313237 -0.222237
v -0.611180 0.213237 -0.222237
v -0.984057 0.213237 -0.062309
v -0.984057 0.213237 -0.062309
v -0.611180 0.213237 -0.222237
v -0.611180 -0.213237 -0.222237
v -0.984057 -0.213237 -0.062310
v -0.757384 -0.313237 0.044309
v -0.611180 -0.313237 0.204237
v -0.611180 -0.213237 0.204237
v -0.984057 -0.213237 0.044308
v -0.984057 -0.213237 0.044308
v -0.611180 -0.213237 0.204237
v -0.611180 0.213237 0.204237
v -0.984057 0.213237 0.044309
v -0.611180 0.313237 0.204237
v -0.611180 0.213237 0.204237
v -0.611180 0.213237 -0.222237
v -0.611180 0.313237 -0.222237
v -0.611180 0.213237 0.204237
v -0.611180 -0.213237 0.204237
v -0.611180 -0.213237 -0.222237
v -0.611180 0.213237 -0.222237
v -0.757384 -0.313237 0.044309
v -0.984057 -0.213237 0.044308
v -0.984057 -0.213237 -0.062310
v -0.757384 -0.313237 -0.062309
v -0.984057 -0.213237 0.044308
v -0.984057 0.213237 0.044309
v -0.984057 0.213237 -0.062309
v -0.984057 -0.213237 -0.062310
vt 0.788847029 0.606701016
vt 0.788847029 0.653506994
vt 0.835653007 0.653506994
vt 0.835653007 0.653506994
vt 0.835653007 0.606701016
vt 0.788847029 0.606701016
vt 0.788847029 0.653506994
vt 0.835653007 0.653506994
vt 0.835653007 0.653506994
vt 0.835653007 0.606701016
vt 0.788847029 0.606701016
vt 0.788847029 0.653506994
vt 0.835653007 0.653506994
vt 0.788847029 0.606701016
vt 0.835653007 0.606701016
vt 0.00360599998 0.441581011
vt 0.00360599998 0.997801006
vt 0.559825003 0.997801006
vt 0.559825003 0.441581011
vt 0.788847029 0.606701016
vt 0.788847029 0.653506994
vt 0.835653007 0.653506994
vt 0.835653007 0.606701016
vt 0.788847029 0.606701016
vt 0.788847029 0.653506994
vt 0.835653007 0.653506994
vt 0.835653007 0.606701016
vt 0.788847029 0.606701016
vt 0.788847029 0.653506994
vt 0.835653007 0.653506994
vt 0.835653007 0.606701016
vt 0.788847029 0.606701016
vt 0.788847029 0.653506994
vt 0.835653007 0.653506994
vt 0.835653007 0.606701016
vt 0.788847029 0.606701016
vt 0.788847029 0.653506994
vt 0.835653007 0.653506994
vt 0.835653007 0.606701016
vt 0.788847029 0.606701016
vt 0.788847029 0.653506994
vt 0.835653007 0.653506994
vt 0.835653007 0.606701016
vt 0.788847029 0.606701016
vt 0.788847029 0.653506994
vt 0.835653007 0.653506994
vt 0.835653007 0.606701016
vt 0.788847029 0.606701016
vt 0.788847029 0.653506994
vt 0.835653007 0.653506994
vt 0.835653007 0.606701016
vt 0.788847029 0.606701016
vt 0.788847029 0.653506994
vt 0.835653007 0.653506994
vt 0.835653007 0.606701016
vt 0.788847029 0.606701016
vt 0.788847029 0.653506994
vt 0.835653007 0.653506994
vt 0.835653007 0.606701016
vt 0.788847029 0.606701016
vt 0.788847029 0.653506994
vt 0.835653007 0.653506994
vt 0.835653007 0.606701016
vt 0.788847029 0.606701016
vt 0.788847029 0.653506994
vt 0.835653007 0.653506994
vt 0.835653007 0.606701016
vt 0.788847029 0.606701016
vt 0.788847029 0.653506994
vt 0.835653007 0.653506994
vt 0.835653007 0.606701016
vt 0.788847029 0.606701016
vt 0.788847029 0.653506994
vt 0.835653007 0.653506994
vt 0.835653007 0.606701016
vt 0.788847029 0.606701016
vt 0.788847029 0.653506994
vt 0.835653007 0.653506994
vt 0.835653007 0.606701016
vt 0.788847029 0.606701016
vt 0.788847029 0.653506994
vt 0.835653007 0.653506994
vt 0.835653007 0.606701016
vt 0.788847029 0.606701016
vt 0.788847029 0.653506994
vt 0.835653007 0.653506994
vt 0.835653007 0.606701016
vt 0.788847029 0.606701016
vt 0.788847029 0.653506994
vt 0.835653007 0.653506994
vt 0.835653007 0.606701016
vt 0.788847029 0.606701016
vt 0.788847029 0.653506994
vt 0.835653007 0.653506994
vt 0.835653007 0.606701016
vn -0.466554 -0.723976 0.508119
vn -0.441646 -0.585396 0.679898
vn -0.441646 -0.585396 0.679898
vn -0.441646 -0.585396 0.679898
vn -0.446746 -0.548795 0.706570
vn -0.466553 0.723976 -0.508120
vn -0.441645 0.585396 -0.679899
vn -0.441645 0.585396 -0.679899
vn -0.441645 0.585396 -0.679899
vn -0.446745 0.548795 -0.706571
vn -0.446746 0.548795 0.706571
vn -0.441646 0.585395 0.679898
vn -0.441646 0.585395 0.679898
vn -0.446746 0.548795 0.706571
vn -0.466554 0.723976 0.508120
vn -0.400178 0.000000 -0.916437
vn -0.400178 0.000000 -0.916437
vn -0.400178 0.000000 -0.916437
vn -0.400178 0.000000 -0.916437
vn -0.439311 -0.265665 -0.858154
vn -0.439311 -0.265665 -0.858154
vn -0.446745 -0.548795 -0.706572
vn -0.446745 -0.548795 -0.706572
vn 0.994667 0.103140 0.000001
vn 0.978724 0.205179 0.000001
vn 0.978724 0.205179 0.000001
vn 0.994667 0.103140 0.000001
vn -0.439313 0.265665 0.858153
vn -0.439313 0.265665 0.858153
vn -0.446746 0.548795 0.706571
vn -0.446746 0.548795 0.706571
vn 1.000000 -0.000000 0.000001
vn 0.994667 0.103140 0.000001
vn 0.994667 0.103140 0.000001
vn 1.000000 -0.000000 0.000001
vn -0.403631 0.914922 0.000000
vn -0.632358 0.733087 0.250411
vn -0.632358 0.733088 -0.250411
vn -0.403631 0.914922 0.000000
vn 0.000000 1.000000 0.000001
vn 0.000000 1.000000 0.000001
vn 0.000000 1.000000 0.000001
vn 0.000000 1.000000 0.000001
vn -0.000000 -1.000000 -0.000001
vn -0.000000 -1.000000 -0.000001
vn -0.000000 -1.000000 -0.000001
vn -0.000000 -1.000000 -0.000001
vn -0.672092 -0.740468 -0.000001
vn -0.871660 -0.490112 -0.000001
vn -0.871660 -0.490112 -0.000001
vn -0.672092 -0.740468 -0.000001
vn -0.446745 -0.548795 -0.706572
vn -0.441645 -0.585395 -0.679899
vn -0.441645 -0.585395 -0.679899
vn -0.466553 -0.723976 -0.508121
vn 0.994667 -0.103140 0.000001
vn 0.978724 -0.205179 0.000001
vn 0.978724 -0.205179 0.000001
vn 0.994667 -0.103140 0.000001
vn -0.672092 0.740468 -0.000000
vn -0.871660 0.490112 -0.000001
vn -0.871660 0.490112 -0.000001
vn -0.672092 0.740468 -0.000000
vn -0.446745 0.548795 -0.706571
vn -0.446745 0.548795 -0.706571
vn -0.439311 0.265666 -0.858154
vn -0.439311 0.265666 -0.858154
vn -0.439311 0.265666 -0.858154
vn -0.439311 0.265666 -0.858154
vn -0.439311 -0.265665 -0.858154
vn -0.439311 -0.265665 -0.858154
vn -0.446746 -0.548795 0.706570
vn -0.446746 -0.548795 0.706570
vn -0.439313 -0.265666 0.858153
vn -0.439313 -0.265666 0.858153
vn -0.439313 -0.265666 0.858153
vn -0.439313 -0.265666 0.858153
vn -0.439313 0.265665 0.858153
vn -0.439313 0.265665 0.858153
vn 0.994667 -0.103140 0.000001
vn 1.000000 -0.000000 0.000001
vn 1.000000 -0.000000 0.000001
vn 0.994667 -0.103140 0.000001
vn 1.000000 -0.000000 0.000001
vn 1.000000 -0.000000 0.000001
vn 1.000000 -0.000000 0.000001
vn 1.000000 -0.000000 0.000001
vn -0.632359 -0.733088 0.250410
vn -0.403631 -0.914922 -0.000001
vn -0.403631 -0.914922 -0.000001
vn -0.632358 -0.733087 -0.250412
vn -1.000000 0.000000 -0.000001
vn -1.000000 0.000000 -0.000001
vn -1.000000 0.000000 -0.000001
vn -1.000000 0.000000 -0.000001
f 1/1/1 2/2/2 3/3/3
f 1/1/1 4/4/4 5/5/5
f 6/6/6 7/7/7 8/8/8
f 6/6/6 9/9/9 10/10/10
f 11/11/11 12/12/12 13/13/13
f 14/14/14 13/13/13 15/15/15
f 16/16/16 17/17/17 18/18/18
f 16/16/16 18/18/18 19/19/19
f 20/20/20 21/21/21 22/22/22
f 20/20/20 22/22/22 23/23/23
f 24/24/24 25/25/25 26/26/26
f 24/24/24 26/26/26 27/27/27
f 28/28/28 29/29/29 30/30/30
f 28/28/28 30/30/30 31/31/31
f 32/32/32 33/33/33 34/34/34
f 32/32/32 34/34/34 35/35/35
f 36/36/36 37/37/37 38/38/38
f 36/36/36 38/38/38 39/39/39
f 40/40/40 41/41/41 42/42/42
f 40/40/40 42/42/42 43/43/43
f 44/44/44 45/45/45 46/46/46
f 44/44/44 46/46/46 47/47/47
f 48/48/48 49/49/49 50/50/50
f 48/48/48 50/50/50 51/51/51
f 52/52/52 53/53/53 54/54/54
f 52/52/52 54/54/54 55/55/55
f 56/56/56 57/57/57 58/58/58
f 56/56/56 58/58/58 59/59/59
f 60/60/60 61/61/61 62/62/62
f 60/60/60 62/62/62 63/63/63
f 64/64/64 65/65/65 66/66/66
f 64/64/64 66/66/66 67/67/67
f 68/68/68 69/69/69 70/70/70
f 68/68/68 70/70/70 71/71/71
f 72/72/72 73/73/73 74/74/74
f 72/72/72 74/74/74 75/75/75
f 76/76/76 77/77/77 78/78/78
f 76/76/76 78/78/78 79/79/79
f 80/80/80 81/81/81 82/82/82
f 80/80/80 82/82/82 83/83/83
f 84/84/84 85/85/85 86/86/86
f 84/84/84 86/86/86 87/87/87
f 88/88/88 89/89/89 90/90/90
f 88/88/88 90/90/90 91/91/91
f 92/92/92 93/93/93 94/94/94
f 92/92/92 94/94/94 95/95/95
