# plague_mask_mask (gear rip -> Godot: Z negated + winding reversed)
v -0.655082 -0.212730 -0.239558
v -0.229622 -0.212730 -0.239558
v -0.229622 -0.212730 -0.082710
v -0.655081 -0.212730 -0.082709
v -0.655081 -0.212730 -0.082709
v -0.229622 -0.212730 -0.082710
v -0.229622 0.212730 -0.082710
v -0.655081 0.212730 -0.082709
v -0.655081 0.212730 -0.082709
v -0.229622 0.212730 -0.082710
v -0.229622 0.212730 -0.239558
v -0.655082 0.212730 -0.239558
v -0.655082 0.212730 -0.239558
v -0.229622 0.212730 -0.239558
v -0.229622 -0.212730 -0.239558
v -0.655082 -0.212730 -0.239558
v -0.229622 -0.212730 -0.239558
v -0.229622 0.212730 -0.239558
v -0.229622 0.212730 -0.082710
v -0.229622 -0.212730 -0.082710
v -0.655082 0.212730 -0.239558
v -0.655082 -0.212730 -0.239558
v -0.655081 -0.212730 -0.082709
v -0.655081 0.212730 -0.082709
v -0.498479 -0.206966 -0.114276
v -0.386225 -0.206966 -0.114276
v -0.386224 -0.206966 0.204280
v -0.498479 -0.206966 0.204280
v -0.498479 -0.206966 0.204280
v -0.386224 -0.206966 0.204280
v -0.386224 0.206966 0.204280
v -0.498479 0.206966 0.204280
v -0.498479 0.206966 0.204280
v -0.386224 0.206966 0.204280
v -0.386225 0.206966 -0.114276
v -0.498479 0.206966 -0.114276
v -0.649318 0.056127 -0.114276
v -0.649318 -0.056127 -0.114276
v -0.649318 -0.056127 0.200325
v -0.649318 0.056127 0.200325
v -0.386225 -0.206966 -0.114276
v -0.386225 0.206966 -0.114276
v -0.386224 0.206966 0.204280
v -0.386224 -0.206966 0.204280
v -0.498479 0.206966 -0.114276
v -0.498479 -0.206966 -0.114276
v -0.498479 -0.206966 0.204280
v -0.498479 0.206966 0.204280
v -0.649318 0.056127 0.200325
v -0.649318 -0.056127 0.200325
v -0.446152 -0.056127 0.200324
v -0.446152 0.056127 0.200324
v -0.436442 -0.074250 -0.336773
v -0.250921 -0.111270 -0.145347
v -0.473462 -0.111270 -0.145347
v -0.287941 -0.074250 -0.336773
v -0.282284 -0.057080 -0.453217
v -0.396444 -0.057080 -0.453217
v -0.244539 -0.029985 -0.550000
v -0.304509 -0.029985 -0.550000
v -0.649318 -0.056127 -0.114276
v -0.446152 -0.056127 -0.114276
v -0.446152 -0.056127 0.200324
v -0.649318 -0.056127 0.200325
v -0.446152 0.056127 -0.114276
v -0.649318 0.056127 -0.114276
v -0.649318 0.056127 0.200325
v -0.446152 0.056127 0.200324
v -0.473462 0.111271 -0.145347
v -0.250921 0.111270 -0.145347
v -0.287941 0.074250 -0.336773
v -0.436442 0.074250 -0.336773
v -0.396444 0.057080 -0.453217
v -0.282284 0.057080 -0.453217
v -0.304509 0.029985 -0.550000
v -0.244539 0.029985 -0.550000
v -0.287941 -0.074250 -0.336773
v -0.250921 0.111270 -0.145347
v -0.250921 -0.111270 -0.145347
v -0.287941 0.074250 -0.336773
v -0.282284 0.057080 -0.453217
v -0.282284 -0.057080 -0.453217
v -0.244539 0.029985 -0.550000
v -0.244539 -0.029985 -0.550000
v -0.436442 0.074250 -0.336773
v -0.473462 -0.111270 -0.145347
v -0.473462 0.111271 -0.145347
v -0.436442 -0.074250 -0.336773
v -0.396444 -0.057080 -0.453217
v -0.396444 0.057080 -0.453217
v -0.304509 -0.029985 -0.550000
v -0.304509 0.029985 -0.550000
v -0.304509 0.029985 -0.550000
v -0.244539 0.029985 -0.550000
v -0.244539 -0.029985 -0.550000
v -0.304509 -0.029985 -0.550000
v -0.576888 0.050494 -0.268364
v -0.462584 0.050494 -0.268364
v -0.454503 0.042412 -0.174223
v -0.584970 0.042412 -0.174223
v -0.584970 0.172879 -0.174223
v -0.454503 0.172879 -0.174223
v -0.462584 0.164798 -0.268364
v -0.576888 0.164798 -0.268364
v -0.484734 0.072643 -0.267537
v -0.484734 0.072643 -0.243456
v -0.484734 0.142648 -0.243456
v -0.484734 0.142648 -0.267537
v -0.462584 0.050494 -0.268364
v -0.462584 0.164798 -0.268364
v -0.454503 0.172879 -0.174223
v -0.454503 0.042412 -0.174223
v -0.576888 0.164798 -0.268364
v -0.576888 0.050494 -0.268364
v -0.584970 0.042412 -0.174223
v -0.584970 0.172879 -0.174223
v -0.554739 0.142648 -0.243456
v -0.484734 0.142648 -0.243456
v -0.484734 0.072643 -0.243456
v -0.554739 0.072643 -0.243456
v -0.554739 0.142648 -0.267537
v -0.554739 0.142648 -0.243456
v -0.554739 0.072643 -0.243456
v -0.554739 0.072643 -0.267537
v -0.484734 0.142648 -0.267537
v -0.484734 0.142648 -0.243456
v -0.554739 0.142648 -0.243456
v -0.554739 0.142648 -0.267537
v -0.554739 0.072643 -0.267537
v -0.554739 0.072643 -0.243456
v -0.484734 0.072643 -0.243456
v -0.484734 0.072643 -0.267537
v -0.576888 -0.050494 -0.268364
v -0.584970 -0.042412 -0.174223
v -0.454503 -0.042412 -0.174223
v -0.462584 -0.050494 -0.268364
v -0.584970 -0.172879 -0.174223
v -0.576888 -0.164797 -0.268364
v -0.462584 -0.164798 -0.268364
v -0.454503 -0.172879 -0.174223
v -0.484734 -0.072643 -0.267537
v -0.484734 -0.142648 -0.267537
v -0.484734 -0.142648 -0.243456
v -0.484734 -0.072643 -0.243456
v -0.462584 -0.050494 -0.268364
v -0.454503 -0.042412 -0.174223
v -0.454503 -0.172879 -0.174223
v -0.462584 -0.164798 -0.268364
v -0.576888 -0.164797 -0.268364
v -0.584970 -0.172879 -0.174223
v -0.584970 -0.042412 -0.174223
v -0.576888 -0.050494 -0.268364
v -0.554739 -0.142648 -0.243456
v -0.554739 -0.072643 -0.243456
v -0.484734 -0.072643 -0.243456
v -0.484734 -0.142648 -0.243456
v -0.554739 -0.142648 -0.267537
v -0.554739 -0.072643 -0.267537
v -0.554739 -0.072643 -0.243456
v -0.554739 -0.142648 -0.243456
v -0.484734 -0.142648 -0.267537
v -0.554739 -0.142648 -0.267537
v -0.554739 -0.142648 -0.243456
v -0.484734 -0.142648 -0.243456
v -0.554739 -0.072643 -0.267537
v -0.484734 -0.072643 -0.267537
v -0.484734 -0.072643 -0.243456
v -0.554739 -0.072643 -0.243456
v -0.554739 -0.142648 -0.267537
v -0.462584 -0.164798 -0.268364
v -0.576888 -0.164797 -0.268364
v -0.484734 -0.142648 -0.267537
v -0.554739 -0.072643 -0.267537
v -0.462584 -0.050494 -0.268364
v -0.576888 -0.050494 -0.268364
v -0.484734 -0.072643 -0.267537
v -0.554739 0.142648 -0.267537
v -0.462584 0.164798 -0.268364
v -0.484734 0.142648 -0.267537
v -0.576888 0.164798 -0.268364
v -0.462584 0.050494 -0.268364
v -0.554739 0.072643 -0.267537
v -0.484734 0.072643 -0.267537
v -0.576888 0.050494 -0.268364
vt 0.0731561556 0.772481084
vt 0.0731561854 0.96812886
vt 0.145283073 0.96812886
vt 0.145283014 0.772481084
vt 0.130955219 0.268803835
vt 0.326602936 0.268803835
vt 0.326602876 0.0731560588
vt 0.130955175 0.0731561184
vt 0.361663789 0.96812886
vt 0.361663789 0.772481084
vt 0.289536923 0.772481084
vt 0.289536893 0.96812886
vt 0.268803954 0.576833367
vt 0.268803954 0.772481084
vt 0.4644517 0.772481024
vt 0.464451641 0.576833308
vt 0.347335905 0.464451551
vt 0.347335845 0.268803835
vt 0.27520898 0.268803835
vt 0.27520901 0.464451551
vt 0.145283073 0.772481084
vt 0.145283133 0.9681288
vt 0.217409968 0.9681288
vt 0.217409939 0.772481084
vt 0.753401101 0.395591438
vt 0.791014314 0.395591438
vt 0.791014314 0.270949006
vt 0.753401101 0.270949006
vt 0.793115616 0.270949006
vt 0.830728769 0.270949006
vt 0.830728769 0.108988345
vt 0.793115556 0.108988345
vt 0.715787947 0.395591438
vt 0.753401101 0.395591438
vt 0.753401101 0.270949006
vt 0.715787888 0.270949006
vt 0.828627467 0.270949006
vt 0.791014314 0.270949006
vt 0.791014314 0.394043505
vt 0.828627467 0.394043565
vt 0.793115556 0.270949006
vt 0.793115556 0.108988345
vt 0.686376572 0.108988374
vt 0.686376572 0.270949006
vt 0.579637587 0.108988374
vt 0.579637587 0.270949006
vt 0.686376572 0.270949006
vt 0.686376512 0.108988345
vt 0.866240621 0.270949006
vt 0.828627467 0.270949006
vt 0.828627467 0.350442469
vt 0.866240621 0.350442469
vt 0.223381221 0.685840487
vt 0.319123119 0.606445551
vt 0.206112757 0.605023146
vt 0.298792601 0.686789691
vt 0.300742596 0.735396028
vt 0.242769971 0.734666348
vt 0.319123119 0.777078092
vt 0.288669318 0.776694715
vt 0.647712708 0.394043565
vt 0.715787888 0.394043565
vt 0.715787888 0.270949006
vt 0.647712708 0.270949006
vt 0.647712708 0.270949006
vt 0.579637587 0.270949066
vt 0.579637587 0.394043565
vt 0.647712708 0.394043565
vt 0.319123119 0.777077973
vt 0.432133377 0.775655568
vt 0.411802828 0.695311546
vt 0.336391598 0.69626075
vt 0.355780303 0.64743489
vt 0.413752854 0.646705091
vt 0.401679575 0.605406463
vt 0.432133377 0.605023146
vt 0.253814042 0.254119277
vt 0.348036081 0.176381052
vt 0.235012263 0.176381052
vt 0.329234391 0.254119277
vt 0.320514053 0.302292585
vt 0.26253444 0.302292585
vt 0.30675298 0.343370557
vt 0.276295543 0.343370557
vt 0.111890689 0.683406711
vt 0.206112757 0.605023146
vt 0.0930888951 0.605023205
vt 0.187310994 0.683406711
vt 0.17859064 0.734072149
vt 0.120611086 0.734072149
vt 0.164829582 0.786207199
vt 0.134372145 0.786207199
vt 0.134372145 0.786207199
vt 0.134372145 0.796449304
vt 0.164829582 0.796449304
vt 0.164829582 0.786207199
vt 0.746671438 0.222573742
vt 0.746671438 0.30677706
vt 0.815144897 0.312730491
vt 0.815144897 0.216620341
vt 0.815144897 0.120510176
vt 0.815144897 0.216620281
vt 0.883618355 0.21066688
vt 0.883618355 0.126463547
vt 0.858618259 0.37133038
vt 0.86948657 0.37133038
vt 0.86948657 0.319760382
vt 0.858618259 0.319760382
vt 0.67819792 0.126463607
vt 0.67819792 0.21066694
vt 0.746671438 0.216620341
vt 0.746671438 0.120510176
vt 0.746671438 0.402887225
vt 0.746671438 0.318683863
vt 0.67819792 0.312730491
vt 0.67819792 0.408840597
vt 0.745614469 0.786094606
vt 0.745614469 0.818286419
vt 0.777806222 0.818286419
vt 0.777806222 0.786094606
vt 0.826013207 0.319760382
vt 0.815144897 0.319760382
vt 0.815144897 0.37133038
vt 0.826013207 0.37133038
vt 0.826013327 0.37133038
vt 0.836881638 0.37133038
vt 0.836881638 0.319760382
vt 0.826013207 0.319760382
vt 0.858618259 0.319760382
vt 0.847749949 0.319760382
vt 0.847749949 0.37133038
vt 0.858618259 0.37133038
vt 0.746671438 0.402887166
vt 0.815144897 0.408840537
vt 0.815144897 0.312730491
vt 0.746671438 0.318683863
vt 0.815144897 0.120510176
vt 0.746671438 0.126463577
vt 0.746671438 0.21066691
vt 0.815144897 0.216620311
vt 0.865922809 0.216620311
vt 0.865922809 0.268190324
vt 0.87679112 0.268190324
vt 0.87679112 0.216620311
vt 0.67819792 0.30677706
vt 0.746671438 0.312730491
vt 0.746671438 0.216620341
vt 0.67819792 0.222573742
vt 0.663761377 0.294870257
vt 0.595287919 0.288916826
vt 0.595287919 0.385026932
vt 0.663761377 0.37907356
vt 0.777806222 0.753902853
vt 0.745614469 0.753902853
vt 0.745614469 0.786094606
vt 0.777806222 0.786094606
vt 0.67819792 0.340486884
vt 0.67819792 0.288916826
vt 0.66732955 0.288916826
vt 0.66732955 0.340486884
vt 0.66732955 0.340486884
vt 0.66732955 0.392056882
vt 0.678197861 0.392056882
vt 0.678197861 0.340486884
vt 0.847749949 0.37133038
vt 0.847749949 0.319760382
vt 0.836881638 0.319760382
vt 0.836881638 0.37133038
vt 0.662131906 0.136826828
vt 0.67819792 0.204713508
vt 0.67819792 0.120510176
vt 0.662131906 0.188396856
vt 0.611353874 0.136826828
vt 0.595287919 0.204713508
vt 0.595287919 0.120510176
vt 0.611353934 0.188396856
vt 0.611353993 0.221030161
vt 0.595287919 0.288916826
vt 0.611353993 0.272600174
vt 0.595287919 0.204713508
vt 0.67819792 0.288916826
vt 0.662131906 0.221030161
vt 0.662131906 0.272600174
vt 0.67819792 0.204713508
vn 0.000000 -1.000000 0.000000
vn 0.000000 -1.000000 0.000000
vn 0.000000 -1.000000 0.000000
vn 0.000000 -1.000000 0.000000
vn 0.000000 -0.000000 1.000000
vn 0.000000 -0.000000 1.000000
vn 0.000000 -0.000000 1.000000
vn 0.000000 -0.000000 1.000000
vn -0.000000 1.000000 -0.000000
vn -0.000000 1.000000 -0.000000
vn -0.000000 1.000000 -0.000000
vn -0.000000 1.000000 -0.000000
vn -0.000000 0.000000 -1.000000
vn -0.000000 0.000000 -1.000000
vn -0.000000 0.000000 -1.000000
vn -0.000000 0.000000 -1.000000
vn 1.000000 -0.000000 -0.000001
vn 1.000000 -0.000000 -0.000001
vn 1.000000 -0.000000 -0.000001
vn 1.000000 -0.000000 -0.000001
vn -1.000000 0.000000 0.000001
vn -1.000000 0.000000 0.000001
vn -1.000000 0.000000 0.000001
vn -1.000000 0.000000 0.000001
vn 0.000000 -1.000000 0.000000
vn 0.000000 -1.000000 0.000000
vn 0.000000 -1.000000 0.000000
vn 0.000000 -1.000000 0.000000
vn 0.000000 -0.000000 1.000000
vn 0.000000 -0.000000 1.000000
vn 0.000000 -0.000000 1.000000
vn 0.000000 -0.000000 1.000000
vn -0.000000 1.000000 -0.000000
vn -0.000000 1.000000 -0.000000
vn -0.000000 1.000000 -0.000000
vn -0.000000 1.000000 -0.000000
vn -1.000000 0.000000 0.000001
vn -1.000000 0.000000 0.000001
vn -1.000000 0.000000 0.000001
vn -1.000000 0.000000 0.000001
vn 1.000000 -0.000000 -0.000001
vn 1.000000 -0.000000 -0.000001
vn 1.000000 -0.000000 -0.000001
vn 1.000000 -0.000000 -0.000001
vn -1.000000 0.000000 0.000001
vn -1.000000 0.000000 0.000001
vn -1.000000 0.000000 0.000001
vn -1.000000 0.000000 0.000001
vn 0.000000 -0.000000 1.000000
vn 0.000000 -0.000000 1.000000
vn 0.000000 -0.000000 1.000000
vn 0.000000 -0.000000 1.000000
vn -0.000000 -0.985801 -0.167917
vn -0.000000 -0.981809 -0.189874
vn -0.000000 -0.981809 -0.189874
vn -0.000000 -0.985801 -0.167917
vn -0.000000 -0.978097 -0.208151
vn -0.000000 -0.978097 -0.208151
vn -0.000000 -0.962975 -0.269591
vn -0.000000 -0.962975 -0.269591
vn 0.000000 -1.000000 0.000000
vn 0.000000 -1.000000 0.000000
vn 0.000000 -1.000000 0.000000
vn 0.000000 -1.000000 0.000000
vn -0.000000 1.000000 -0.000000
vn -0.000000 1.000000 -0.000000
vn -0.000000 1.000000 -0.000000
vn -0.000000 1.000000 -0.000000
vn -0.000000 0.981809 -0.189874
vn -0.000000 0.981809 -0.189874
vn -0.000000 0.985801 -0.167917
vn -0.000000 0.985801 -0.167917
vn -0.000000 0.978097 -0.208151
vn -0.000000 0.978097 -0.208151
vn -0.000000 0.962975 -0.269591
vn -0.000000 0.962975 -0.269591
vn 0.997463 -0.000000 -0.071184
vn 0.981808 -0.000000 -0.189874
vn 0.981808 -0.000000 -0.189874
vn 0.997463 -0.000000 -0.071184
vn 0.977989 -0.000000 0.208655
vn 0.977989 -0.000000 0.208655
vn 0.931655 -0.000000 0.363344
vn 0.931655 -0.000000 0.363344
vn -0.966145 0.000000 -0.257998
vn -0.981809 0.000000 -0.189873
vn -0.981809 0.000000 -0.189873
vn -0.966145 0.000000 -0.257998
vn -0.854976 0.000000 -0.518667
vn -0.854976 0.000000 -0.518667
vn -0.725032 0.000000 -0.688715
vn -0.725032 0.000000 -0.688715
vn -0.000000 0.000000 -1.000000
vn -0.000000 0.000000 -1.000000
vn -0.000000 0.000000 -1.000000
vn -0.000000 0.000000 -1.000000
vn -0.000000 -0.996336 -0.085531
vn -0.000000 -0.996336 -0.085531
vn -0.000000 -0.996336 -0.085531
vn -0.000000 -0.996336 -0.085531
vn -0.000000 0.996336 -0.085531
vn -0.000000 0.996336 -0.085531
vn -0.000000 0.996336 -0.085531
vn -0.000000 0.996336 -0.085531
vn -1.000000 0.000000 0.000001
vn -1.000000 0.000000 0.000001
vn -1.000000 0.000000 0.000001
vn -1.000000 0.000000 0.000001
vn 0.996335 -0.000000 -0.085531
vn 0.996335 -0.000000 -0.085531
vn 0.996335 -0.000000 -0.085531
vn 0.996335 -0.000000 -0.085531
vn -0.996336 0.000000 -0.085530
vn -0.996336 0.000000 -0.085530
vn -0.996336 0.000000 -0.085530
vn -0.996336 0.000000 -0.085530
vn -0.000000 0.000000 -1.000000
vn -0.000000 0.000000 -1.000000
vn -0.000000 0.000000 -1.000000
vn -0.000000 0.000000 -1.000000
vn 1.000000 -0.000000 -0.000001
vn 1.000000 -0.000000 -0.000001
vn 1.000000 -0.000000 -0.000001
vn 1.000000 -0.000000 -0.000001
vn 0.000000 -1.000000 0.000000
vn 0.000000 -1.000000 0.000000
vn 0.000000 -1.000000 0.000000
vn 0.000000 -1.000000 0.000000
vn -0.000000 1.000000 -0.000000
vn -0.000000 1.000000 -0.000000
vn -0.000000 1.000000 -0.000000
vn -0.000000 1.000000 -0.000000
vn -0.000000 0.996336 -0.085531
vn -0.000000 0.996336 -0.085531
vn -0.000000 0.996336 -0.085531
vn -0.000000 0.996336 -0.085531
vn -0.000000 -0.996336 -0.085531
vn -0.000000 -0.996336 -0.085531
vn -0.000000 -0.996336 -0.085531
vn -0.000000 -0.996336 -0.085531
vn -1.000000 0.000000 0.000001
vn -1.000000 0.000000 0.000001
vn -1.000000 0.000000 0.000001
vn -1.000000 0.000000 0.000001
vn 0.996335 -0.000000 -0.085531
vn 0.996335 -0.000000 -0.085531
vn 0.996335 -0.000000 -0.085531
vn 0.996335 -0.000000 -0.085531
vn -0.996336 0.000000 -0.085530
vn -0.996336 0.000000 -0.085530
vn -0.996336 0.000000 -0.085530
vn -0.996336 0.000000 -0.085530
vn -0.000000 0.000000 -1.000000
vn -0.000000 0.000000 -1.000000
vn -0.000000 0.000000 -1.000000
vn -0.000000 0.000000 -1.000000
vn 1.000000 -0.000000 -0.000001
vn 1.000000 -0.000000 -0.000001
vn 1.000000 -0.000000 -0.000001
vn 1.000000 -0.000000 -0.000001
vn -0.000000 1.000000 -0.000000
vn -0.000000 1.000000 -0.000000
vn -0.000000 1.000000 -0.000000
vn -0.000000 1.000000 -0.000000
vn 0.000000 -1.000000 0.000000
vn 0.000000 -1.000000 0.000000
vn 0.000000 -1.000000 0.000000
vn 0.000000 -1.000000 0.000000
vn 0.018652 0.018653 -0.999652
vn -0.018653 0.018653 -0.999652
vn 0.018652 0.018653 -0.999652
vn -0.018653 0.018653 -0.999652
vn 0.018652 -0.018652 -0.999652
vn -0.018653 -0.018652 -0.999652
vn 0.018652 -0.018652 -0.999652
vn -0.018653 -0.018652 -0.999652
vn 0.018652 -0.018652 -0.999652
vn -0.018653 -0.018652 -0.999652
vn -0.018653 -0.018652 -0.999652
vn 0.018652 -0.018652 -0.999652
vn -0.018653 0.018653 -0.999652
vn 0.018652 0.018653 -0.999652
vn -0.018653 0.018653 -0.999652
vn 0.018652 0.018653 -0.999652
f 1/1/1 2/2/2 3/3/3
f 1/1/1 3/3/3 4/4/4
f 5/5/5 6/6/6 7/7/7
f 5/5/5 7/7/7 8/8/8
f 9/9/9 10/10/10 11/11/11
f 9/9/9 11/11/11 12/12/12
f 13/13/13 14/14/14 15/15/15
f 13/13/13 15/15/15 16/16/16
f 17/17/17 18/18/18 19/19/19
f 17/17/17 19/19/19 20/20/20
f 21/21/21 22/22/22 23/23/23
f 21/21/21 23/23/23 24/24/24
f 25/25/25 26/26/26 27/27/27
f 25/25/25 27/27/27 28/28/28
f 29/29/29 30/30/30 31/31/31
f 29/29/29 31/31/31 32/32/32
f 33/33/33 34/34/34 35/35/35
f 33/33/33 35/35/35 36/36/36
f 37/37/37 38/38/38 39/39/39
f 37/37/37 39/39/39 40/40/40
f 41/41/41 42/42/42 43/43/43
f 41/41/41 43/43/43 44/44/44
f 45/45/45 46/46/46 47/47/47
f 45/45/45 47/47/47 48/48/48
f 49/49/49 50/50/50 51/51/51
f 49/49/49 51/51/51 52/52/52
f 53/53/53 54/54/54 55/55/55
f 53/53/53 56/56/56 54/54/54
f 53/53/53 57/57/57 56/56/56
f 53/53/53 58/58/58 57/57/57
f 58/58/58 59/59/59 57/57/57
f 58/58/58 60/60/60 59/59/59
f 61/61/61 62/62/62 63/63/63
f 61/61/61 63/63/63 64/64/64
f 65/65/65 66/66/66 67/67/67
f 65/65/65 67/67/67 68/68/68
f 69/69/69 70/70/70 71/71/71
f 69/69/69 71/71/71 72/72/72
f 71/71/71 73/73/73 72/72/72
f 71/71/71 74/74/74 73/73/73
f 74/74/74 75/75/75 73/73/73
f 74/74/74 76/76/76 75/75/75
f 77/77/77 78/78/78 79/79/79
f 77/77/77 80/80/80 78/78/78
f 77/77/77 81/81/81 80/80/80
f 77/77/77 82/82/82 81/81/81
f 82/82/82 83/83/83 81/81/81
f 82/82/82 84/84/84 83/83/83
f 85/85/85 86/86/86 87/87/87
f 85/85/85 88/88/88 86/86/86
f 85/85/85 89/89/89 88/88/88
f 85/85/85 90/90/90 89/89/89
f 90/90/90 91/91/91 89/89/89
f 90/90/90 92/92/92 91/91/91
f 93/93/93 94/94/94 95/95/95
f 93/93/93 95/95/95 96/96/96
f 97/97/97 98/98/98 99/99/99
f 97/97/97 99/99/99 100/100/100
f 101/101/101 102/102/102 103/103/103
f 101/101/101 103/103/103 104/104/104
f 105/105/105 106/106/106 107/107/107
f 105/105/105 107/107/107 108/108/108
f 109/109/109 110/110/110 111/111/111
f 109/109/109 111/111/111 112/112/112
f 113/113/113 114/114/114 115/115/115
f 113/113/113 115/115/115 116/116/116
f 117/117/117 118/118/118 119/119/119
f 117/117/117 119/119/119 120/120/120
f 121/121/121 122/122/122 123/123/123
f 121/121/121 123/123/123 124/124/124
f 125/125/125 126/126/126 127/127/127
f 125/125/125 127/127/127 128/128/128
f 129/129/129 130/130/130 131/131/131
f 129/129/129 131/131/131 132/132/132
f 133/133/133 134/134/134 135/135/135
f 133/133/133 135/135/135 136/136/136
f 137/137/137 138/138/138 139/139/139
f 137/137/137 139/139/139 140/140/140
f 141/141/141 142/142/142 143/143/143
f 141/141/141 143/143/143 144/144/144
f 145/145/145 146/146/146 147/147/147
f 145/145/145 147/147/147 148/148/148
f 149/149/149 150/150/150 151/151/151
f 149/149/149 151/151/151 152/152/152
f 153/153/153 154/154/154 155/155/155
f 153/153/153 155/155/155 156/156/156
f 157/157/157 158/158/158 159/159/159
f 157/157/157 159/159/159 160/160/160
f 161/161/161 162/162/162 163/163/163
f 161/161/161 163/163/163 164/164/164
f 165/165/165 166/166/166 167/167/167
f 165/165/165 167/167/167 168/168/168
f 169/169/169 170/170/170 171/171/171
f 169/169/169 172/172/172 170/170/170
f 173/173/173 169/169/169 171/171/171
f 172/172/172 174/174/174 170/170/170
f 173/173/173 171/171/171 175/175/175
f 172/172/172 176/176/176 174/174/174
f 176/176/176 173/173/173 175/175/175
f 176/176/176 175/175/175 174/174/174
f 177/177/177 178/178/178 179/179/179
f 177/177/177 180/180/180 178/178/178
f 179/179/179 178/178/178 181/181/181
f 182/182/182 180/180/180 177/177/177
f 179/179/179 181/181/181 183/183/183
f 182/182/182 184/184/184 180/180/180
f 183/183/183 181/181/181 184/184/184
f 183/183/183 184/184/184 182/182/182
