# pumpkin_hat (gear rip -> Godot: Z negated + winding reversed)
v -0.523439 -0.101333 -0.332546
v -0.432389 -0.236866 -0.270867
v -0.535918 -0.162367 -0.318640
v -0.169160 0.102887 0.247611
v -0.416071 0.356247 0.142666
v -0.416071 0.146357 0.352556
v -0.182568 0.255381 0.099489
v -0.416071 0.356247 0.142666
v -0.179035 0.251981 -0.113797
v -0.416071 0.356247 0.142666
v -0.416071 0.356247 0.142666
v -0.354343 0.330011 -0.143296
v -0.323966 0.258986 -0.244093
v -0.169160 0.102887 -0.259109
v -0.430144 0.281380 -0.207082
v -0.500738 0.322274 -0.106473
v -0.416071 0.356247 0.142666
v -0.699664 0.256166 -0.108478
v -0.416071 0.356247 0.142666
v -0.416071 0.356247 0.142666
v -0.690305 0.251302 0.099196
v -0.703601 0.102798 0.264633
v -0.416071 0.356247 0.142666
v -0.393211 0.227180 -0.283731
v -0.307957 0.177077 -0.306342
v -0.251441 0.113754 -0.304458
v -0.169160 0.102887 -0.259109
v -0.169160 0.102887 -0.259109
v -0.260010 0.071101 -0.314379
v -0.430144 0.281380 -0.207082
v -0.699664 0.256166 -0.108478
v -0.430144 0.281380 -0.207082
v -0.533152 0.164838 -0.320702
v -0.699664 0.256166 -0.108478
v -0.612901 0.105597 -0.326438
v -0.323966 0.258986 -0.244093
v -0.393211 0.227180 -0.283731
v -0.432389 0.184120 -0.319498
v -0.520673 0.103804 -0.334608
v -0.361782 0.169410 -0.318607
v -0.432389 0.135489 -0.358923
v -0.336820 0.126094 -0.339761
v -0.530428 0.051146 -0.348515
v -0.520673 0.103804 -0.334608
v -0.432389 0.135489 -0.358923
v -0.417328 0.043791 -0.370480
v -0.432389 0.135489 -0.358923
v -0.339436 0.037442 -0.351318
v -0.319528 0.123696 -0.329179
v -0.319528 0.039243 -0.340306
v -0.347009 -0.044285 -0.353018
v -0.494372 -0.002058 -0.364246
v -0.417328 -0.047907 -0.370480
v -0.533194 -0.048675 -0.346453
v -0.432389 -0.139605 -0.358923
v -0.347009 -0.086511 -0.350090
v -0.324716 -0.047144 -0.344355
v -0.324716 -0.089371 -0.341426
v -0.432389 -0.139605 -0.358923
v -0.347009 -0.128738 -0.341892
v -0.369001 -0.171175 -0.321838
v -0.432389 -0.188236 -0.319498
v -0.523439 -0.101333 -0.332546
v -0.341248 -0.169764 -0.308364
v -0.319255 -0.127327 -0.328417
v -0.432389 -0.236866 -0.270867
v -0.432389 -0.139605 -0.358923
v -0.533194 -0.048675 -0.346453
v -0.432389 -0.236866 -0.270867
v -0.523439 -0.101333 -0.332546
v -0.612678 -0.044285 -0.341892
v -0.610562 -0.096346 -0.318462
v -0.398605 -0.218314 -0.295322
v -0.441641 -0.273431 -0.221742
v -0.535918 -0.162367 -0.318640
v -0.398605 -0.218314 -0.295322
v -0.354343 -0.334126 -0.143296
v -0.464820 -0.342576 -0.148343
v -0.535918 -0.162367 -0.318640
v -0.625065 -0.223265 -0.226534
v -0.416071 -0.360363 0.142666
v -0.576573 -0.337103 0.137502
v -0.563729 -0.317762 -0.137002
v -0.535918 -0.162367 -0.318640
v -0.690305 -0.072021 -0.259109
v -0.612678 -0.044285 -0.341892
v -0.690305 -0.218314 -0.147798
v -0.576573 -0.337103 0.137502
v -0.690305 -0.255418 0.099196
v -0.752535 -0.062560 -0.136473
v -0.689909 0.102887 -0.241614
v -0.699664 0.256166 -0.108478
v -0.782221 -0.002058 -0.005749
v -0.690305 -0.255418 0.099196
v -0.699664 0.256166 -0.108478
v -0.530428 0.051146 -0.348515
v -0.533194 -0.048675 -0.346453
v -0.690305 -0.255418 0.099196
v -0.703601 0.102798 0.264633
v -0.699664 0.256166 -0.108478
v -0.690305 0.251302 0.099196
v -0.690305 -0.255418 0.099196
v -0.694507 -0.106416 0.268412
v -0.576573 -0.337103 0.137502
v -0.694507 -0.106416 0.268412
v -0.690305 -0.255418 0.099196
v -0.563860 -0.133975 0.325013
v -0.703601 0.102798 0.264633
v -0.576573 -0.337103 0.137502
v -0.416071 -0.150473 0.352556
v -0.416071 -0.360363 0.142666
v -0.416071 0.146357 0.352556
v -0.416071 -0.150473 0.352556
v -0.703601 0.102798 0.264633
v -0.416071 0.146357 0.352556
v -0.416071 0.356247 0.142666
v -0.169160 -0.107003 -0.259109
v -0.169160 0.102887 -0.259109
v -0.169160 0.102887 0.247611
v -0.169160 -0.255418 0.099196
v -0.184185 -0.260801 -0.110441
v -0.169160 0.102887 0.247611
v -0.180795 -0.109197 0.250018
v -0.416071 -0.150473 0.352556
v -0.169160 0.102887 0.247611
v -0.416071 0.146357 0.352556
v -0.180795 -0.109197 0.250018
v -0.169160 0.102887 0.247611
v -0.416071 -0.150473 0.352556
v -0.169160 -0.255418 0.099196
v -0.416071 -0.360363 0.142666
v -0.416071 -0.360363 0.142666
v -0.184185 -0.260801 -0.110441
v -0.307957 -0.181193 -0.306342
v -0.398605 -0.218314 -0.295322
v -0.275995 -0.154751 -0.300731
v -0.169160 -0.107003 -0.259109
v -0.262729 -0.118820 -0.305733
v -0.251441 -0.040662 -0.315584
v -0.285888 -0.046225 -0.329044
v -0.285888 -0.123433 -0.317918
v -0.240658 -0.006012 -0.309480
v -0.169160 0.102887 -0.259109
v -0.169160 0.102887 -0.259109
v -0.251441 0.036546 -0.315584
v -0.296978 0.067210 -0.326141
v -0.288409 0.032655 -0.327347
v -0.430144 0.281380 -0.207082
v -0.520673 0.103804 -0.334608
v -0.533152 0.164838 -0.320702
v -0.398605 -0.218314 -0.295322
v -0.432389 -0.236866 -0.270867
v -0.369001 -0.171175 -0.321838
v -0.612678 -0.044285 -0.341892
v -0.690305 -0.072021 -0.259109
v -0.612901 0.105597 -0.326438
v -0.169160 0.102887 0.247611
v -0.179035 0.251981 -0.113797
v -0.182568 0.255381 0.099489
v -0.169160 0.102887 0.247611
v -0.169160 0.102887 -0.259109
v -0.740090 -0.063735 -0.057205
v -0.824828 0.019803 0.062005
v -0.862718 0.003122 -0.002251
v -0.702200 -0.047054 0.007050
v -0.802313 0.086174 0.031498
v -0.702200 -0.047054 0.007050
v -0.679685 0.019317 -0.023456
v -0.824828 0.019803 0.062005
v -0.840203 0.069493 -0.032758
v -0.679685 0.019317 -0.023456
v -0.717575 0.002636 -0.087712
v -0.802313 0.086174 0.031498
v -0.840203 0.069493 -0.032758
v -0.740090 -0.063735 -0.057205
v -0.862718 0.003122 -0.002251
v -0.717575 0.002636 -0.087712
v -0.824828 0.019803 0.062005
v -0.840203 0.069493 -0.032758
v -0.862718 0.003122 -0.002251
v -0.802313 0.086174 0.031498
vt 0.270054996 0.480863005
vt 0.243942007 0.467254996
vt 0.262430012 0.478083998
vt 0.239822 0.510251999
vt 0.247767001 0.513081014
vt 0.244705006 0.508264005
vt 0.241368994 0.515591025
vt 0.247767001 0.513081014
vt 0.240558997 0.525440991
vt 0.247767001 0.513081014
vt 0.247767001 0.513081014
vt 0.252489001 0.524089992
vt 0.255477995 0.534676015
vt 0.216415003 0.541271985
vt 0.258396 0.528496027
vt 0.255019993 0.521284997
vt 0.247767001 0.513081014
vt 0.256646007 0.509030998
vt 0.247767001 0.513081014
vt 0.247767001 0.513081014
vt 0.251644999 0.508282006
vt 0.248879999 0.505555987
vt 0.247767001 0.513081014
vt 0.280584008 0.544524014
vt 0.246005997 0.569784999
vt 0.217158005 0.558610976
vt 0.216415003 0.541271985
vt 0.216415003 0.541271985
vt 0.199857995 0.555460989
vt 0.258396 0.528496027
vt 0.256646007 0.509030998
vt 0.258396 0.528496027
vt 0.27659899 0.512364984
vt 0.256646007 0.509030998
vt 0.269993991 0.506115973
vt 0.255477995 0.534676015
vt 0.271681011 0.532031
vt 0.287108988 0.526802003
vt 0.280135989 0.504896998
vt 0.301836997 0.535207987
vt 0.295168012 0.514036
vt 0.315995008 0.520142972
vt 0.280173004 0.497361988
vt 0.280135989 0.504896998
vt 0.295168012 0.514036
vt 0.29698199 0.494856
vt 0.295168012 0.514036
vt 0.316805005 0.490444988
vt 0.323114991 0.520690978
vt 0.324517995 0.491315007
vt 0.305637002 0.465986013
vt 0.282599002 0.489600003
vt 0.289366007 0.47548601
vt 0.275433004 0.486499995
vt 0.274111986 0.462390006
vt 0.296896994 0.454647988
vt 0.311309993 0.460139006
vt 0.302569985 0.448801011
vt 0.274111986 0.462390006
vt 0.284745008 0.444968998
vt 0.263707012 0.444626987
vt 0.258641988 0.459082991
vt 0.270054996 0.480863005
vt 0.267035991 0.432541013
vt 0.288073987 0.432882994
vt 0.243942007 0.467254996
vt 0.274111986 0.462390006
vt 0.275433004 0.486499995
vt 0.243942007 0.467254996
vt 0.270054996 0.480863005
vt 0.267883986 0.492410004
vt 0.264066994 0.488303989
vt 0.240553007 0.452057004
vt 0.242364004 0.479663014
vt 0.262430012 0.478083998
vt 0.240553007 0.452057004
vt 0.236407995 0.487149
vt 0.242979005 0.487760991
vt 0.262430012 0.478083998
vt 0.254103005 0.48743701
vt 0.241492003 0.49840501
vt 0.244874001 0.49833101
vt 0.247235999 0.490240991
vt 0.262430012 0.478083998
vt 0.259496987 0.495784998
vt 0.267883986 0.492410004
vt 0.252184004 0.494019985
vt 0.244874001 0.49833101
vt 0.247655004 0.498937011
vt 0.255481988 0.498885989
vt 0.262378007 0.503201008
vt 0.256646007 0.509030998
vt 0.253107011 0.501999021
vt 0.247655004 0.498937011
vt 0.256646007 0.509030998
vt 0.280173004 0.497361988
vt 0.275433004 0.486499995
vt 0.247655004 0.498937011
vt 0.248879999 0.505555987
vt 0.256646007 0.509030998
vt 0.251644999 0.508282006
vt 0.247655004 0.498937011
vt 0.247442007 0.502846003
vt 0.244874001 0.49833101
vt 0.247442007 0.502846003
vt 0.247655004 0.498937011
vt 0.24526 0.503183007
vt 0.248879999 0.505555987
vt 0.244874001 0.49833101
vt 0.242996007 0.503890991
vt 0.241492003 0.49840501
vt 0.244705006 0.508264005
vt 0.242996007 0.503890991
vt 0.248879999 0.505555987
vt 0.244705006 0.508264005
vt 0.247767001 0.513081014
vt 0.200174004 0.501632988
vt 0.216415003 0.541271985
vt 0.239822 0.510251999
vt 0.235070005 0.501655996
vt 0.227806002 0.494711995
vt 0.239822 0.510251999
vt 0.238268003 0.505913019
vt 0.242996007 0.503890991
vt 0.239822 0.510251999
vt 0.244705006 0.508264005
vt 0.238268003 0.505913019
vt 0.239822 0.510251999
vt 0.242996007 0.503890991
vt 0.235070005 0.501655996
vt 0.241492003 0.49840501
vt 0.241492003 0.49840501
vt 0.227806002 0.494711995
vt 0.199086994 0.461656988
vt 0.240553007 0.452057004
vt 0.194239005 0.474776
vt 0.200174004 0.501632988
vt 0.187464997 0.487830997
vt 0.181075007 0.516032994
vt 0.167733997 0.510774016
vt 0.178531006 0.482731998
vt 0.187129006 0.528173029
vt 0.216415003 0.541271985
vt 0.216415003 0.541271985
vt 0.191145003 0.545286
vt 0.189956993 0.566276014
vt 0.181244001 0.556101024
vt 0.258396 0.528496027
vt 0.280135989 0.504896998
vt 0.27659899 0.512364984
vt 0.240553007 0.452057004
vt 0.243942007 0.467254996
vt 0.263707012 0.444626987
vt 0.156229004 0.288890004
vt 0.259496987 0.495784998
vt 0.269993991 0.506115973
vt 0.239822 0.510251999
vt 0.240558997 0.525440991
vt 0.241368994 0.515591025
vt 0.239822 0.510251999
vt 0.216415003 0.541271985
vt 0.683502018 0.584084988
vt 0.679069996 0.608022988
vt 0.683502018 0.60817498
vt 0.679069996 0.583932996
vt 0.688893974 0.608228981
vt 0.693318009 0.583932996
vt 0.688893974 0.584074974
vt 0.693318009 0.608088017
vt 0.688893974 0.583932996
vt 0.684625983 0.608312011
vt 0.688893974 0.608307004
vt 0.684625983 0.583938003
vt 0.683502018 0.632933974
vt 0.680616021 0.60817498
vt 0.680616021 0.632196009
vt 0.683502018 0.608913004
vt 0.688939989 0.608228981
vt 0.693318009 0.613942027
vt 0.693318009 0.60827899
vt 0.688939989 0.613892972
vn 0.059166 -0.273393 -0.960081
vn 0.144168 -0.614115 -0.775937
vn -0.154954 -0.611847 -0.775649
vn 0.424208 0.346620 0.836602
vn 0.174376 0.856469 0.485853
vn 0.179252 0.499828 0.847373
vn 0.425179 0.840165 0.336668
vn 0.287504 0.851931 0.437670
vn 0.465053 0.844499 -0.265607
vn 0.135347 0.971828 0.192953
vn 0.224409 0.950228 0.216120
vn 0.118898 0.933625 -0.337947
vn 0.323340 0.704477 -0.631794
vn 0.537315 0.242055 -0.807900
vn -0.218456 0.795076 -0.565802
vn -0.212325 0.933941 -0.287527
vn 0.009420 0.999745 -0.020517
vn -0.348442 0.868317 -0.353006
vn -0.101108 0.976629 0.189666
vn -0.191760 0.956928 0.217985
vn -0.382628 0.859983 0.337675
vn -0.344508 0.510558 0.787810
vn -0.214780 0.874514 0.434851
vn 0.004748 0.696235 -0.717798
vn 0.407576 0.601695 -0.686909
vn 0.544723 0.404516 -0.734604
vn 0.537315 0.242055 -0.807900
vn 0.537315 0.242055 -0.807900
vn 0.421347 0.119393 -0.899006
vn -0.218456 0.795076 -0.565802
vn -0.412347 0.817190 -0.402703
vn -0.218456 0.795076 -0.565802
vn -0.359049 0.721408 -0.592161
vn -0.515337 0.756272 -0.403088
vn -0.592065 0.288856 -0.752344
vn 0.323340 0.704477 -0.631794
vn 0.004748 0.696235 -0.717798
vn -0.190642 0.598700 -0.777955
vn -0.311285 0.494805 -0.811338
vn 0.161544 0.571891 -0.804267
vn -0.032113 0.418382 -0.907703
vn 0.308521 0.229878 -0.923023
vn -0.241851 0.168199 -0.955624
vn -0.015899 0.466353 -0.884456
vn -0.096489 0.479957 -0.871970
vn 0.097688 0.090595 -0.991085
vn 0.099747 0.366130 -0.925202
vn 0.376006 0.082343 -0.922951
vn 0.501260 0.104770 -0.858931
vn 0.472819 0.115101 -0.873610
vn 0.269924 -0.033488 -0.962299
vn -0.266026 -0.014467 -0.963857
vn 0.057743 -0.105152 -0.992778
vn -0.240720 -0.227138 -0.943643
vn 0.004647 -0.376084 -0.926574
vn 0.273700 -0.107789 -0.955756
vn 0.354248 -0.064700 -0.932911
vn 0.354264 -0.064709 -0.932904
vn 0.120657 -0.325995 -0.937640
vn 0.310866 -0.458175 -0.832729
vn 0.231671 -0.600643 -0.765217
vn -0.187500 -0.585784 -0.788480
vn -0.137189 -0.414107 -0.899830
vn 0.387163 -0.550244 -0.739822
vn 0.387168 -0.550242 -0.739820
vn -0.073561 -0.669902 -0.738796
vn -0.222793 -0.448145 -0.865754
vn -0.270341 -0.261322 -0.926621
vn -0.240648 -0.647678 -0.722912
vn -0.327152 -0.466179 -0.821978
vn -0.253191 -0.178197 -0.950863
vn -0.454494 -0.427985 -0.781194
vn 0.075498 -0.785560 -0.614162
vn -0.057785 -0.765623 -0.640689
vn -0.250821 -0.688057 -0.680931
vn 0.075498 -0.785560 -0.614162
vn 0.211391 -0.868657 -0.448049
vn -0.105913 -0.912630 -0.394828
vn -0.173881 -0.638622 -0.749618
vn -0.515777 -0.580934 -0.629674
vn 0.185858 -0.982140 -0.029277
vn -0.398421 -0.913431 -0.083089
vn -0.387902 -0.832232 -0.396134
vn -0.173881 -0.638622 -0.749618
vn -0.766935 -0.193565 -0.611836
vn -0.366669 -0.130697 -0.921126
vn -0.776202 -0.577123 -0.253849
vn -0.460075 -0.886940 0.040846
vn -0.753941 -0.645503 0.122061
vn -0.942283 -0.120599 -0.312345
vn -0.860199 0.193966 -0.471630
vn -0.554575 0.623541 -0.551039
vn -0.998662 -0.038085 -0.034993
vn -0.882171 -0.445513 0.152619
vn -0.871765 0.395600 -0.289009
vn -0.186149 0.101475 -0.977267
vn -0.181190 -0.170533 -0.968550
vn -0.922070 -0.319784 0.218003
vn -0.988173 0.066057 0.138388
vn -0.972292 0.231138 -0.034973
vn -0.988728 0.141864 0.047881
vn -0.973669 -0.203447 0.102849
vn -0.998980 -0.043184 0.013219
vn -0.463603 -0.766992 0.443617
vn -0.505733 -0.427348 0.749404
vn -0.820760 -0.540309 0.185523
vn -0.323473 -0.255319 0.911141
vn -0.355353 0.260370 0.897737
vn -0.348037 -0.655159 0.670550
vn 0.059760 -0.579972 0.812442
vn 0.138217 -0.700320 0.700320
vn -0.110451 0.203494 0.972826
vn 0.061857 -0.306390 0.949894
vn -0.368517 0.387718 0.844908
vn -0.112369 0.389609 0.914100
vn -0.105918 0.865466 0.489642
vn 0.998311 -0.053666 -0.022229
vn 0.999453 0.033062 -0.000000
vn 0.999325 0.023081 0.028584
vn 0.997229 -0.071507 0.020517
vn 0.984803 -0.160454 -0.066462
vn 0.999325 0.023081 0.028584
vn 0.990405 -0.052885 0.127675
vn 0.307561 -0.287158 0.907164
vn 0.424208 0.346620 0.836602
vn 0.083087 0.199385 0.976393
vn 0.425190 -0.348359 0.835380
vn 0.424208 0.346620 0.836602
vn 0.229851 -0.490219 0.840746
vn 0.417398 -0.783570 0.460213
vn 0.290772 -0.881279 0.372558
vn 0.240142 -0.963821 0.115672
vn 0.483859 -0.793419 -0.369277
vn 0.411253 -0.685144 -0.601206
vn 0.075498 -0.785560 -0.614162
vn 0.522856 -0.501492 -0.689294
vn 0.527104 -0.229361 -0.818263
vn 0.445330 -0.189592 -0.875064
vn 0.466159 -0.124168 -0.875944
vn 0.432573 -0.147609 -0.889434
vn 0.481365 -0.125019 -0.867559
vn 0.560838 -0.001295 -0.827924
vn 0.537315 0.242055 -0.807900
vn 0.537315 0.242055 -0.807900
vn 0.406862 0.095901 -0.908442
vn 0.291418 0.105435 -0.950767
vn 0.291428 0.105451 -0.950763
vn 0.541542 0.290466 -0.788899
vn 0.243898 0.295158 -0.923794
vn 0.541542 0.290466 -0.788899
vn -0.529994 -0.137820 -0.836727
vn -0.451011 -0.526163 -0.720931
vn -0.529994 -0.137820 -0.836727
vn -0.434900 -0.051528 -0.899003
vn -0.766935 -0.193565 -0.611836
vn -0.592065 0.288856 -0.752344
vn 0.999325 0.023081 0.028584
vn 0.996438 0.084002 0.007428
vn 0.994685 0.101884 0.014852
vn 0.999325 0.023081 0.028584
vn 0.999453 0.033062 -0.000000
vn -0.294548 -0.868307 0.399104
vn -0.294548 -0.868307 0.399104
vn -0.294551 -0.868307 0.399103
vn -0.294546 -0.868307 0.399106
vn 0.495699 0.218228 0.840630
vn 0.495699 0.218228 0.840630
vn 0.495695 0.218225 0.840633
vn 0.495702 0.218232 0.840627
vn 0.294551 0.868307 -0.399103
vn 0.294551 0.868307 -0.399103
vn 0.294551 0.868307 -0.399103
vn 0.294551 0.868307 -0.399103
vn -0.495698 -0.218234 -0.840629
vn -0.495698 -0.218234 -0.840629
vn -0.495698 -0.218234 -0.840629
vn -0.495698 -0.218234 -0.840629
vn -0.817020 0.445449 0.366135
vn -0.817020 0.445449 0.366135
vn -0.817020 0.445449 0.366135
vn -0.817020 0.445449 0.366135
f 1/1/1 2/2/2 3/3/3
f 4/4/4 5/5/5 6/6/6
f 7/7/7 8/8/8 4/4/4
f 7/7/7 9/9/9 10/10/10
f 11/11/11 9/9/9 12/12/12
f 9/9/9 13/13/13 12/12/12
f 9/9/9 14/14/14 13/13/13
f 13/13/13 15/15/15 12/12/12
f 12/12/12 15/15/15 16/16/16
f 16/16/16 17/17/17 12/12/12
f 16/16/16 18/18/18 19/19/19
f 20/20/20 18/18/18 21/21/21
f 22/22/22 23/23/23 21/21/21
f 24/24/24 13/13/13 25/25/25
f 13/13/13 26/26/26 25/25/25
f 13/13/13 27/27/27 26/26/26
f 28/28/28 29/29/29 26/26/26
f 30/30/30 31/31/31 16/16/16
f 32/32/32 33/33/33 31/31/31
f 34/34/34 33/33/33 35/35/35
f 36/36/36 37/37/37 30/30/30
f 37/37/37 38/38/38 30/30/30
f 30/30/30 38/38/38 39/39/39
f 40/40/40 38/38/38 37/37/37
f 41/41/41 38/38/38 40/40/40
f 41/41/41 40/40/40 42/42/42
f 38/38/38 43/43/43 44/44/44
f 45/45/45 43/43/43 38/38/38
f 41/41/41 46/46/46 43/43/43
f 42/42/42 46/46/46 47/47/47
f 42/42/42 48/48/48 46/46/46
f 42/42/42 49/49/49 48/48/48
f 48/48/48 49/49/49 50/50/50
f 46/46/46 48/48/48 51/51/51
f 43/43/43 46/46/46 52/52/52
f 46/46/46 51/51/51 53/53/53
f 52/52/52 54/54/54 43/43/43
f 52/52/52 53/53/53 54/54/54
f 54/54/54 53/53/53 55/55/55
f 53/53/53 51/51/51 56/56/56
f 56/56/56 51/51/51 57/57/57
f 56/56/56 57/57/57 58/58/58
f 56/56/56 59/59/59 53/53/53
f 60/60/60 59/59/59 56/56/56
f 59/59/59 60/60/60 61/61/61
f 61/61/61 62/62/62 55/55/55
f 54/54/54 62/62/62 63/63/63
f 60/60/60 64/64/64 61/61/61
f 65/65/65 64/64/64 60/60/60
f 66/66/66 62/62/62 61/61/61
f 67/67/67 62/62/62 68/68/68
f 62/62/62 69/69/69 70/70/70
f 71/71/71 54/54/54 72/72/72
f 66/66/66 73/73/73 74/74/74
f 69/69/69 74/74/74 75/75/75
f 76/76/76 77/77/77 74/74/74
f 74/74/74 77/77/77 78/78/78
f 74/74/74 78/78/78 79/79/79
f 80/80/80 72/72/72 79/79/79
f 81/81/81 78/78/78 77/77/77
f 81/81/81 82/82/82 78/78/78
f 78/78/78 82/82/82 83/83/83
f 83/83/83 84/84/84 78/78/78
f 80/80/80 84/84/84 83/83/83
f 72/72/72 80/80/80 85/85/85
f 72/72/72 85/85/85 86/86/86
f 83/83/83 87/87/87 80/80/80
f 85/85/85 80/80/80 87/87/87
f 88/88/88 87/87/87 83/83/83
f 89/89/89 87/87/87 88/88/88
f 85/85/85 87/87/87 90/90/90
f 90/90/90 91/91/91 85/85/85
f 35/35/35 85/85/85 91/91/91
f 43/43/43 86/86/86 35/35/35
f 91/91/91 92/92/92 35/35/35
f 90/90/90 87/87/87 93/93/93
f 90/90/90 93/93/93 91/91/91
f 93/93/93 87/87/87 94/94/94
f 91/91/91 93/93/93 95/95/95
f 96/96/96 97/97/97 86/86/86
f 93/93/93 98/98/98 99/99/99
f 99/99/99 100/100/100 93/93/93
f 101/101/101 100/100/100 99/99/99
f 99/99/99 102/102/102 103/103/103
f 104/104/104 105/105/105 106/106/106
f 107/107/107 108/108/108 105/105/105
f 107/107/107 105/105/105 109/109/109
f 109/109/109 110/110/110 107/107/107
f 111/111/111 110/110/110 109/109/109
f 112/112/112 107/107/107 113/113/113
f 112/112/112 114/114/114 107/107/107
f 115/115/115 116/116/116 114/114/114
f 117/117/117 118/118/118 119/119/119
f 117/117/117 120/120/120 121/121/121
f 117/117/117 122/122/122 120/120/120
f 120/120/120 122/122/122 123/123/123
f 124/124/124 125/125/125 126/126/126
f 127/127/127 128/128/128 124/124/124
f 129/129/129 130/130/130 127/127/127
f 131/131/131 130/130/130 129/129/129
f 130/130/130 132/132/132 133/133/133
f 133/133/133 132/132/132 77/77/77
f 134/134/134 133/133/133 77/77/77
f 134/134/134 77/77/77 135/135/135
f 134/134/134 136/136/136 133/133/133
f 133/133/133 136/136/136 137/137/137
f 138/138/138 137/137/137 136/136/136
f 138/138/138 139/139/139 137/137/137
f 138/138/138 140/140/140 139/139/139
f 141/141/141 140/140/140 138/138/138
f 137/137/137 139/139/139 142/142/142
f 137/137/137 142/142/142 143/143/143
f 144/144/144 142/142/142 145/145/145
f 145/145/145 29/29/29 144/144/144
f 145/145/145 146/146/146 29/29/29
f 147/147/147 146/146/146 145/145/145
f 148/148/148 149/149/149 150/150/150
f 151/151/151 152/152/152 153/153/153
f 154/154/154 155/155/155 156/156/156
f 157/157/157 158/158/158 159/159/159
f 160/160/160 161/161/161 158/158/158
f 162/162/162 163/163/163 164/164/164
f 165/165/165 163/163/163 162/162/162
f 166/166/166 167/167/167 168/168/168
f 169/169/169 167/167/167 166/166/166
f 170/170/170 171/171/171 172/172/172
f 173/173/173 171/171/171 170/170/170
f 174/174/174 175/175/175 176/176/176
f 177/177/177 175/175/175 174/174/174
f 178/178/178 179/179/179 180/180/180
f 181/181/181 179/179/179 178/178/178
