# robot_hat (gear rip -> Godot: Z negated + winding reversed)
v -0.229360 -0.229360 -0.218088
v -0.229360 -0.229360 0.240631
v -0.229360 0.229360 0.240631
v -0.229360 0.229360 -0.218088
v -0.229360 0.229360 -0.218088
v -0.229360 0.229360 0.240631
v 0.229360 0.229360 0.240631
v 0.229360 0.229360 -0.218088
v 0.229360 0.229360 -0.218088
v 0.229360 0.229360 0.240631
v 0.229360 -0.229360 0.240631
v 0.229360 -0.229360 -0.218088
v 0.229360 -0.229360 -0.218088
v 0.229360 -0.229360 0.240631
v -0.229360 -0.229360 0.240631
v -0.229360 -0.229360 -0.218088
v -0.229360 -0.229360 0.240631
v 0.229360 -0.229360 0.240631
v 0.229360 0.229360 0.240631
v -0.229360 0.229360 0.240631
v 0.229360 -0.229360 -0.218088
v -0.229360 -0.229360 -0.218088
v -0.229360 0.229360 -0.218088
v 0.229360 0.229360 -0.218088
v -0.158656 -0.252985 -0.122371
v -0.158656 -0.252985 -0.022505
v -0.158656 -0.153119 -0.022505
v -0.158656 -0.153119 -0.122371
v -0.058790 -0.153119 -0.122371
v -0.058790 -0.153119 -0.022505
v -0.058790 -0.252985 -0.022505
v -0.058790 -0.252985 -0.122371
v -0.074703 -0.252985 -0.038418
v -0.074703 -0.285778 -0.038418
v -0.074703 -0.285778 -0.106458
v -0.074703 -0.252985 -0.106458
v -0.158656 -0.252985 -0.022505
v -0.058790 -0.252985 -0.022505
v -0.058790 -0.153119 -0.022505
v -0.158656 -0.153119 -0.022505
v -0.058790 -0.252985 -0.122371
v -0.158656 -0.252985 -0.122371
v -0.158656 -0.153119 -0.122371
v -0.058790 -0.153119 -0.122371
v -0.074703 -0.285778 -0.106458
v -0.074703 -0.285778 -0.038418
v -0.142743 -0.285778 -0.038418
v -0.142743 -0.285778 -0.106458
v -0.074703 -0.252985 -0.106458
v -0.074703 -0.285778 -0.106458
v -0.142743 -0.285778 -0.106458
v -0.142743 -0.252985 -0.106458
v -0.142743 -0.252985 -0.106458
v -0.142743 -0.285778 -0.106458
v -0.142743 -0.285778 -0.038418
v -0.142743 -0.252985 -0.038418
v -0.142743 -0.252985 -0.038418
v -0.142743 -0.285778 -0.038418
v -0.074703 -0.285778 -0.038418
v -0.074703 -0.252985 -0.038418
v 0.158656 -0.252985 -0.122371
v 0.158656 -0.153119 -0.122371
v 0.158656 -0.153119 -0.022505
v 0.158656 -0.252985 -0.022505
v 0.058790 -0.153119 -0.122371
v 0.058790 -0.252985 -0.122371
v 0.058790 -0.252985 -0.022505
v 0.058790 -0.153119 -0.022505
v 0.074703 -0.252985 -0.038418
v 0.074703 -0.252985 -0.106458
v 0.074703 -0.285778 -0.106458
v 0.074703 -0.285778 -0.038418
v 0.158656 -0.252985 -0.022505
v 0.158656 -0.153119 -0.022505
v 0.058790 -0.153119 -0.022505
v 0.058790 -0.252985 -0.022505
v 0.058790 -0.252985 -0.122371
v 0.058790 -0.153119 -0.122371
v 0.158656 -0.153119 -0.122371
v 0.158656 -0.252985 -0.122371
v 0.074703 -0.285778 -0.106458
v 0.142743 -0.285778 -0.106458
v 0.142743 -0.285778 -0.038418
v 0.074703 -0.285778 -0.038418
v 0.074703 -0.252985 -0.106458
v 0.142743 -0.252985 -0.106458
v 0.142743 -0.285778 -0.106458
v 0.074703 -0.285778 -0.106458
v 0.142743 -0.252985 -0.106458
v 0.142743 -0.252985 -0.038418
v 0.142743 -0.285778 -0.038418
v 0.142743 -0.285778 -0.106458
v 0.142743 -0.252985 -0.038418
v 0.074703 -0.252985 -0.038418
v 0.074703 -0.285778 -0.038418
v 0.142743 -0.285778 -0.038418
v -0.161049 -0.245830 0.075891
v -0.161049 -0.245830 0.172502
v -0.161049 -0.149218 0.172502
v -0.161049 -0.149218 0.075891
v 0.161049 -0.245830 0.075891
v 0.115035 -0.245830 0.075891
v 0.115035 -0.149218 0.075891
v 0.161049 -0.149218 0.075891
v 0.161049 -0.149218 0.075891
v 0.161049 -0.149218 0.172502
v 0.161049 -0.245830 0.172502
v 0.161049 -0.245830 0.075891
v -0.115035 -0.245830 0.075891
v -0.115035 -0.245830 0.172502
v -0.161049 -0.245830 0.172502
v -0.161049 -0.245830 0.075891
v 0.115035 -0.245830 0.172502
v 0.161049 -0.245830 0.172502
v 0.161049 -0.149218 0.172502
v 0.115035 -0.149218 0.172502
v -0.115035 -0.245830 0.075891
v -0.161049 -0.245830 0.075891
v -0.161049 -0.149218 0.075891
v -0.115035 -0.149218 0.075891
v 0.115035 -0.245830 0.075891
v 0.069021 -0.245830 0.075891
v 0.069021 -0.149218 0.075891
v 0.115035 -0.149218 0.075891
v 0.069021 -0.245830 0.075891
v 0.023007 -0.245830 0.075891
v 0.023007 -0.149218 0.075891
v 0.069021 -0.149218 0.075891
v 0.023007 -0.245830 0.075891
v -0.023007 -0.245830 0.075891
v -0.023007 -0.149218 0.075891
v 0.023007 -0.149218 0.075891
v -0.023007 -0.245830 0.075891
v -0.069021 -0.245830 0.075891
v -0.069021 -0.149218 0.075891
v -0.023007 -0.149218 0.075891
v -0.069021 -0.245830 0.075891
v -0.115035 -0.245830 0.075891
v -0.115035 -0.149218 0.075891
v -0.069021 -0.149218 0.075891
v -0.161049 -0.245830 0.172502
v -0.115035 -0.245830 0.172502
v -0.115035 -0.149218 0.172502
v -0.161049 -0.149218 0.172502
v -0.115035 -0.245830 0.172502
v -0.069021 -0.245830 0.172502
v -0.069021 -0.149218 0.172502
v -0.115035 -0.149218 0.172502
v -0.069021 -0.245830 0.172502
v -0.023007 -0.245830 0.172502
v -0.023007 -0.149218 0.172502
v -0.069021 -0.149218 0.172502
v -0.023007 -0.245830 0.172502
v 0.023007 -0.245830 0.172502
v 0.023007 -0.149218 0.172502
v -0.023007 -0.149218 0.172502
v 0.023007 -0.245830 0.172502
v 0.069021 -0.245830 0.172502
v 0.069021 -0.149218 0.172502
v 0.023007 -0.149218 0.172502
v 0.069021 -0.245830 0.172502
v 0.115035 -0.245830 0.172502
v 0.115035 -0.149218 0.172502
v 0.069021 -0.149218 0.172502
v 0.161049 -0.245830 0.075891
v 0.161049 -0.245830 0.172502
v 0.115035 -0.245830 0.172502
v 0.115035 -0.245830 0.075891
v 0.115035 -0.245830 0.075891
v 0.115035 -0.245830 0.172502
v 0.069021 -0.245830 0.172502
v 0.069021 -0.245830 0.075891
v 0.069021 -0.245830 0.075891
v 0.069021 -0.245830 0.172502
v 0.023007 -0.245830 0.172502
v 0.023007 -0.245830 0.075891
v 0.023007 -0.245830 0.075891
v 0.023007 -0.245830 0.172502
v -0.023007 -0.245830 0.172502
v -0.023007 -0.245830 0.075891
v -0.023007 -0.245830 0.075891
v -0.023007 -0.245830 0.172502
v -0.069021 -0.245830 0.172502
v -0.069021 -0.245830 0.075891
v -0.069021 -0.245830 0.075891
v -0.069021 -0.245830 0.172502
v -0.115035 -0.245830 0.172502
v -0.115035 -0.245830 0.075891
v -0.241141 0.025664 0.036935
v -0.393661 0.025664 0.036935
v -0.393661 -0.025664 0.036935
v -0.241141 -0.025664 0.036935
v -0.241141 0.065665 -0.054393
v -0.241141 0.065665 0.076936
v -0.109812 0.065665 0.076936
v -0.109812 0.065665 -0.054393
v -0.109812 -0.065665 -0.054393
v -0.109812 -0.065665 0.076936
v -0.241141 -0.065665 0.076936
v -0.241141 -0.065665 -0.054393
v -0.241141 -0.065665 0.076936
v -0.109812 -0.065665 0.076936
v -0.109812 0.065665 0.076936
v -0.241141 0.065665 0.076936
v -0.109812 -0.065665 -0.054393
v -0.241141 -0.065665 -0.054393
v -0.241141 0.065665 -0.054393
v -0.109812 0.065665 -0.054393
v -0.241141 -0.025664 -0.014392
v -0.393661 -0.025664 -0.014392
v -0.393661 0.025664 -0.014392
v -0.241141 0.025664 -0.014392
v -0.241141 0.025664 -0.014392
v -0.393661 0.025664 -0.014392
v -0.393661 0.025664 0.036935
v -0.241141 0.025664 0.036935
v -0.241141 -0.025664 0.036935
v -0.393661 -0.025664 0.036935
v -0.393661 -0.025664 -0.014392
v -0.241141 -0.025664 -0.014392
v -0.381760 -0.040972 -0.029701
v -0.461137 -0.040972 -0.029701
v -0.461137 0.040972 -0.029701
v -0.381760 0.040972 -0.029701
v -0.461137 -0.040972 0.052244
v -0.381760 -0.040972 0.052244
v -0.381760 0.040972 0.052244
v -0.461137 0.040972 0.052244
v -0.381760 -0.040972 -0.029701
v -0.381760 -0.040972 0.052244
v -0.461137 -0.040972 0.052244
v -0.461137 -0.040972 -0.029701
v -0.381760 0.040972 -0.029701
v -0.381760 0.040972 0.052244
v -0.381760 -0.040972 0.052244
v -0.381760 -0.040972 -0.029701
v -0.461137 0.040972 -0.029701
v -0.461137 0.040972 0.052244
v -0.381760 0.040972 0.052244
v -0.381760 0.040972 -0.029701
v -0.461137 -0.040972 -0.029701
v -0.461137 -0.040972 0.052244
v -0.461137 0.040972 0.052244
v -0.461137 0.040972 -0.029701
v -0.327989 -0.064924 -0.053653
v -0.327989 -0.064924 0.076196
v -0.327989 0.064924 0.076196
v -0.327989 0.064924 -0.053653
v -0.327989 0.064924 -0.053653
v -0.327989 0.064924 0.076196
v -0.305235 0.064924 0.076196
v -0.305235 0.064924 -0.053653
v -0.305235 0.064924 -0.053653
v -0.305235 0.064924 0.076196
v -0.305235 -0.064924 0.076196
v -0.305235 -0.064924 -0.053653
v -0.305235 -0.064924 -0.053653
v -0.305235 -0.064924 0.076196
v -0.327989 -0.064924 0.076196
v -0.327989 -0.064924 -0.053653
v -0.327989 -0.064924 0.076196
v -0.305235 -0.064924 0.076196
v -0.305235 0.064924 0.076196
v -0.327989 0.064924 0.076196
v -0.305235 -0.064924 -0.053653
v -0.327989 -0.064924 -0.053653
v -0.327989 0.064924 -0.053653
v -0.305235 0.064924 -0.053653
v -0.371949 -0.053225 -0.041954
v -0.371949 -0.053225 0.064496
v -0.371949 0.053225 0.064496
v -0.371949 0.053225 -0.041954
v -0.371949 0.053225 -0.041954
v -0.371949 0.053225 0.064496
v -0.353295 0.053225 0.064496
v -0.353295 0.053225 -0.041954
v -0.353295 0.053225 -0.041954
v -0.353295 0.053225 0.064496
v -0.353295 -0.053225 0.064496
v -0.353295 -0.053225 -0.041954
v -0.353295 -0.053225 -0.041954
v -0.353295 -0.053225 0.064496
v -0.371949 -0.053225 0.064496
v -0.371949 -0.053225 -0.041954
v -0.371949 -0.053225 0.064496
v -0.353295 -0.053225 0.064496
v -0.353295 0.053225 0.064496
v -0.371949 0.053225 0.064496
v -0.353295 -0.053225 -0.041954
v -0.371949 -0.053225 -0.041954
v -0.371949 0.053225 -0.041954
v -0.353295 0.053225 -0.041954
v -0.282469 -0.053225 -0.041954
v -0.282469 -0.053225 0.064496
v -0.282469 0.053225 0.064496
v -0.282469 0.053225 -0.041954
v -0.282469 0.053225 -0.041954
v -0.282469 0.053225 0.064496
v -0.263815 0.053225 0.064496
v -0.263815 0.053225 -0.041954
v -0.263815 0.053225 -0.041954
v -0.263815 0.053225 0.064496
v -0.263815 -0.053225 0.064496
v -0.263815 -0.053225 -0.041954
v -0.263815 -0.053225 -0.041954
v -0.263815 -0.053225 0.064496
v -0.282469 -0.053225 0.064496
v -0.282469 -0.053225 -0.041954
v -0.282469 -0.053225 0.064496
v -0.263815 -0.053225 0.064496
v -0.263815 0.053225 0.064496
v -0.282469 0.053225 0.064496
v -0.263815 -0.053225 -0.041954
v -0.282469 -0.053225 -0.041954
v -0.282469 0.053225 -0.041954
v -0.263815 0.053225 -0.041954
v 0.241141 0.025664 0.036935
v 0.241141 -0.025664 0.036935
v 0.393661 -0.025664 0.036935
v 0.393661 0.025664 0.036935
v 0.241141 0.065665 -0.054393
v 0.109812 0.065665 -0.054393
v 0.109812 0.065665 0.076936
v 0.241141 0.065665 0.076936
v 0.109812 -0.065665 -0.054393
v 0.241141 -0.065665 -0.054393
v 0.241141 -0.065665 0.076936
v 0.109812 -0.065665 0.076936
v 0.241141 -0.065665 0.076936
v 0.241141 0.065665 0.076936
v 0.109812 0.065665 0.076936
v 0.109812 -0.065665 0.076936
v 0.109812 -0.065665 -0.054393
v 0.109812 0.065665 -0.054393
v 0.241141 0.065665 -0.054393
v 0.241141 -0.065665 -0.054393
v 0.241141 -0.025664 -0.014392
v 0.241141 0.025664 -0.014392
v 0.393661 0.025664 -0.014392
v 0.393661 -0.025664 -0.014392
v 0.241141 0.025664 -0.014392
v 0.241141 0.025664 0.036935
v 0.393661 0.025664 0.036935
v 0.393661 0.025664 -0.014392
v 0.241141 -0.025664 0.036935
v 0.241141 -0.025664 -0.014392
v 0.393661 -0.025664 -0.014392
v 0.393661 -0.025664 0.036935
v 0.381760 -0.040972 -0.029701
v 0.381760 0.040972 -0.029701
v 0.461137 0.040972 -0.029701
v 0.461137 -0.040972 -0.029701
v 0.461137 -0.040972 0.052244
v 0.461137 0.040972 0.052244
v 0.381760 0.040972 0.052244
v 0.381760 -0.040972 0.052244
v 0.381760 -0.040972 -0.029701
v 0.461137 -0.040972 -0.029701
v 0.461137 -0.040972 0.052244
v 0.381760 -0.040972 0.052244
v 0.381760 0.040972 -0.029701
v 0.381760 -0.040972 -0.029701
v 0.381760 -0.040972 0.052244
v 0.381760 0.040972 0.052244
v 0.461137 0.040972 -0.029701
v 0.381760 0.040972 -0.029701
v 0.381760 0.040972 0.052244
v 0.461137 0.040972 0.052244
v 0.461137 -0.040972 -0.029701
v 0.461137 0.040972 -0.029701
v 0.461137 0.040972 0.052244
v 0.461137 -0.040972 0.052244
v 0.327989 -0.064924 -0.053653
v 0.327989 0.064924 -0.053653
v 0.327989 0.064924 0.076196
v 0.327989 -0.064924 0.076196
v 0.327989 0.064924 -0.053653
v 0.305235 0.064924 -0.053653
v 0.305235 0.064924 0.076196
v 0.327989 0.064924 0.076196
v 0.305235 0.064924 -0.053653
v 0.305235 -0.064924 -0.053653
v 0.305235 -0.064924 0.076196
v 0.305235 0.064924 0.076196
v 0.305235 -0.064924 -0.053653
v 0.327989 -0.064924 -0.053653
v 0.327989 -0.064924 0.076196
v 0.305235 -0.064924 0.076196
v 0.327989 -0.064924 0.076196
v 0.327989 0.064924 0.076196
v 0.305235 0.064924 0.076196
v 0.305235 -0.064924 0.076196
v 0.305235 -0.064924 -0.053653
v 0.305235 0.064924 -0.053653
v 0.327989 0.064924 -0.053653
v 0.327989 -0.064924 -0.053653
v 0.371949 -0.053225 -0.041954
v 0.371949 0.053225 -0.041954
v 0.371949 0.053225 0.064496
v 0.371949 -0.053225 0.064496
v 0.371949 0.053225 -0.041954
v 0.353295 0.053225 -0.041954
v 0.353295 0.053225 0.064496
v 0.371949 0.053225 0.064496
v 0.353295 0.053225 -0.041954
v 0.353295 -0.053225 -0.041954
v 0.353295 -0.053225 0.064496
v 0.353295 0.053225 0.064496
v 0.353295 -0.053225 -0.041954
v 0.371949 -0.053225 -0.041954
v 0.371949 -0.053225 0.064496
v 0.353295 -0.053225 0.064496
v 0.371949 -0.053225 0.064496
v 0.371949 0.053225 0.064496
v 0.353295 0.053225 0.064496
v 0.353295 -0.053225 0.064496
v 0.353295 -0.053225 -0.041954
v 0.353295 0.053225 -0.041954
v 0.371949 0.053225 -0.041954
v 0.371949 -0.053225 -0.041954
v 0.282469 -0.053225 -0.041954
v 0.282469 0.053225 -0.041954
v 0.282469 0.053225 0.064496
v 0.282469 -0.053225 0.064496
v 0.282469 0.053225 -0.041954
v 0.263815 0.053225 -0.041954
v 0.263815 0.053225 0.064496
v 0.282469 0.053225 0.064496
v 0.263815 0.053225 -0.041954
v 0.263815 -0.053225 -0.041954
v 0.263815 -0.053225 0.064496
v 0.263815 0.053225 0.064496
v 0.263815 -0.053225 -0.041954
v 0.282469 -0.053225 -0.041954
v 0.282469 -0.053225 0.064496
v 0.263815 -0.053225 0.064496
v 0.282469 -0.053225 0.064496
v 0.282469 0.053225 0.064496
v 0.263815 0.053225 0.064496
v 0.263815 -0.053225 0.064496
v 0.263815 -0.053225 -0.041954
v 0.263815 0.053225 -0.041954
v 0.282469 0.053225 -0.041954
v 0.282469 -0.053225 -0.041954
v 0.241141 0.025664 0.036935
v 0.241141 0.065665 -0.054393
v 0.241141 0.065665 0.076936
v 0.241141 0.025664 -0.014392
v 0.241141 -0.025664 0.036935
v 0.241141 -0.065665 -0.054393
v 0.241141 -0.065665 0.076936
v 0.241141 -0.025664 -0.014392
v -0.241141 0.025664 0.036935
v -0.241141 0.065665 0.076936
v -0.241141 0.065665 -0.054393
v -0.241141 0.025664 -0.014392
v -0.241141 -0.025664 0.036935
v -0.241141 -0.065665 -0.054393
v -0.241141 -0.065665 0.076936
v -0.241141 -0.025664 -0.014392
v 0.074703 -0.252985 -0.106458
v 0.058790 -0.252985 -0.022505
v 0.058790 -0.252985 -0.122371
v 0.074703 -0.252985 -0.038418
v 0.142743 -0.252985 -0.106458
v 0.158656 -0.252985 -0.022505
v 0.158656 -0.252985 -0.122371
v 0.142743 -0.252985 -0.038418
v -0.074703 -0.252985 -0.106458
v -0.058790 -0.252985 -0.022505
v -0.074703 -0.252985 -0.038418
v -0.058790 -0.252985 -0.122371
v -0.158656 -0.252985 -0.022505
v -0.142743 -0.252985 -0.106458
v -0.142743 -0.252985 -0.038418
v -0.158656 -0.252985 -0.122371
vt 0.275547355 0.831770301
vt 0.288937181 0.831770301
vt 0.288937181 0.818319023
vt 0.275547355 0.818319023
vt 0.262157559 0.818319023
vt 0.262157559 0.831770301
vt 0.275547355 0.831770301
vt 0.275547355 0.818319023
vt 0.275547355 0.858672798
vt 0.275547355 0.845221579
vt 0.262157559 0.845221579
vt 0.262157559 0.858672798
vt 0.275547355 0.831770301
vt 0.275547355 0.845221579
vt 0.288937181 0.845221579
vt 0.288937181 0.831770301
vt 0.275547355 0.845221579
vt 0.275547355 0.831770301
vt 0.262157559 0.831770301
vt 0.262157559 0.845221579
vt 0.288937181 0.818319023
vt 0.288937181 0.831770301
vt 0.302326977 0.831770301
vt 0.302326977 0.818319023
vt 0.285602391 0.186735392
vt 0.290287405 0.186735392
vt 0.290287405 0.182028949
vt 0.285602391 0.182028949
vt 0.286133409 0.194847405
vt 0.286133409 0.199553907
vt 0.290818453 0.199553907
vt 0.290818453 0.194847405
vt 0.746724606 0.782429218
vt 0.74518609 0.782429218
vt 0.74518609 0.78563571
vt 0.746724606 0.78563571
vt 0.290818453 0.215396821
vt 0.290818453 0.21069032
vt 0.286133409 0.21069032
vt 0.286133409 0.215396821
vt 0.253611118 0.211319804
vt 0.248926103 0.211319804
vt 0.248926103 0.216026366
vt 0.253611118 0.216026366
vt 0.762173772 0.735577106
vt 0.762173772 0.738783717
vt 0.76536572 0.738783717
vt 0.76536572 0.735577106
vt 0.726833344 0.782525182
vt 0.725294888 0.782525182
vt 0.725294888 0.785731792
vt 0.726833344 0.785731792
vt 0.74518609 0.781626701
vt 0.743647695 0.781626701
vt 0.743647695 0.784833312
vt 0.74518609 0.784833312
vt 0.726833344 0.785731792
vt 0.728371739 0.785731792
vt 0.728371739 0.782525182
vt 0.726833344 0.782525182
vt 0.290287405 0.177322388
vt 0.285602391 0.177322388
vt 0.285602391 0.182028949
vt 0.290287405 0.182028949
vt 0.286133409 0.205983818
vt 0.286133409 0.21069032
vt 0.290818453 0.21069032
vt 0.290818453 0.205983818
vt 0.717771292 0.78540194
vt 0.717771292 0.78219533
vt 0.716232896 0.78219533
vt 0.716232896 0.78540194
vt 0.291916162 0.187485516
vt 0.287231117 0.187485516
vt 0.287231117 0.192192078
vt 0.291916162 0.192192078
vt 0.287231117 0.204570711
vt 0.291916162 0.204570711
vt 0.291916162 0.199864209
vt 0.287231117 0.199864209
vt 0.754539132 0.782359362
vt 0.751347184 0.782359362
vt 0.751347184 0.785565972
vt 0.754539132 0.785565972
vt 0.746724606 0.782429218
vt 0.746724606 0.78563571
vt 0.748263001 0.78563571
vt 0.748263001 0.782429218
vt 0.756077647 0.785565972
vt 0.756077647 0.782359362
vt 0.754539132 0.782359362
vt 0.754539132 0.785565972
vt 0.749871135 0.78563571
vt 0.749871135 0.782429218
vt 0.748332739 0.782429218
vt 0.748332739 0.78563571
vt 0.746445417 0.765166163
vt 0.754051447 0.765166163
vt 0.754051447 0.757525206
vt 0.746445417 0.757525206
vt 0.772220254 0.746740222
vt 0.772220254 0.750379443
vt 0.779826283 0.750379443
vt 0.779826283 0.746740222
vt 0.738839388 0.765166163
vt 0.746445417 0.765166163
vt 0.746445417 0.757525206
vt 0.738839388 0.757525206
vt 0.772220254 0.768575549
vt 0.764614224 0.768575549
vt 0.764614224 0.77221477
vt 0.772220254 0.77221477
vt 0.772220254 0.775853992
vt 0.772220254 0.77221477
vt 0.764614224 0.77221477
vt 0.764614224 0.775853992
vt 0.772220254 0.768575549
vt 0.772220254 0.77221477
vt 0.779826283 0.77221477
vt 0.779826283 0.76857543
vt 0.299564064 0.180066973
vt 0.299564064 0.183706194
vt 0.307170093 0.183706194
vt 0.307170093 0.180066973
vt 0.772220254 0.754018664
vt 0.772220254 0.757657886
vt 0.779826283 0.757657886
vt 0.779826283 0.754018664
vt 0.299564064 0.187345415
vt 0.299564064 0.190984637
vt 0.307170093 0.190984637
vt 0.307170093 0.187345415
vt 0.772220254 0.761297107
vt 0.772220254 0.764936328
vt 0.779826283 0.764936328
vt 0.779826283 0.761297107
vt 0.299564064 0.194623858
vt 0.299564064 0.198263079
vt 0.307170093 0.198263019
vt 0.307170093 0.194623858
vt 0.772220254 0.797689319
vt 0.772220254 0.794050097
vt 0.764614224 0.794050097
vt 0.764614224 0.797689319
vt 0.299564064 0.223737627
vt 0.299564064 0.220098406
vt 0.291958034 0.220098406
vt 0.291958034 0.223737627
vt 0.772220254 0.790410876
vt 0.772220254 0.786771655
vt 0.764614224 0.786771655
vt 0.764614224 0.790410876
vt 0.299564064 0.216459185
vt 0.299564064 0.212819964
vt 0.291958034 0.212819964
vt 0.291958034 0.216459185
vt 0.772220254 0.783132434
vt 0.772220254 0.779493213
vt 0.764614224 0.779493213
vt 0.764614224 0.783132434
vt 0.299564064 0.209180743
vt 0.299564064 0.205541521
vt 0.291958034 0.205541521
vt 0.291958034 0.209180743
vt 0.772220254 0.746740222
vt 0.764614224 0.746740222
vt 0.764614224 0.750379443
vt 0.772220254 0.750379443
vt 0.299564064 0.180066973
vt 0.291958034 0.180066973
vt 0.291958034 0.183706194
vt 0.299564064 0.183706194
vt 0.772220254 0.754018664
vt 0.764614224 0.754018664
vt 0.764614224 0.757657886
vt 0.772220254 0.757657886
vt 0.299564064 0.187345415
vt 0.291958034 0.187345415
vt 0.291958034 0.190984637
vt 0.299564064 0.190984637
vt 0.772220254 0.761297107
vt 0.764614224 0.761297107
vt 0.764614224 0.764936328
vt 0.772220254 0.764936328
vt 0.299564064 0.194623858
vt 0.291958034 0.194623858
vt 0.291958034 0.198263079
vt 0.299564064 0.198263079
vt 0.25809741 0.791145682
vt 0.25809741 0.803208351
vt 0.262138307 0.803208351
vt 0.262138307 0.791145682
vt 0.286202669 0.228852481
vt 0.286202669 0.239239246
vt 0.296541989 0.239239246
vt 0.296541989 0.228852481
vt 0.252821743 0.250044614
vt 0.252821743 0.260431379
vt 0.263161063 0.260431379
vt 0.263161063 0.250044614
vt 0.286202669 0.249626011
vt 0.296541989 0.249626011
vt 0.296541989 0.239239246
vt 0.286202669 0.239239246
vt 0.252821743 0.250044614
vt 0.242482394 0.250044614
vt 0.242482394 0.260431379
vt 0.252821743 0.260431379
vt 0.259939551 0.755937934
vt 0.259939551 0.768000722
vt 0.263980508 0.768000722
vt 0.263980508 0.755937934
vt 0.216854215 0.79168129
vt 0.216854215 0.803744078
vt 0.220895112 0.803744078
vt 0.220895112 0.79168129
vt 0.25809741 0.768292427
vt 0.25809741 0.780355215
vt 0.262138367 0.780355215
vt 0.262138367 0.768292427
vt 0.24472636 0.233362615
vt 0.23847717 0.233362615
vt 0.23847717 0.239843607
vt 0.24472636 0.239843607
vt 0.232227981 0.239843607
vt 0.23847717 0.239843607
vt 0.23847717 0.233362615
vt 0.232227981 0.233362615
vt 0.219729573 0.233362615
vt 0.219729573 0.239843607
vt 0.225978762 0.239843607
vt 0.225978762 0.233362615
vt 0.332597673 0.235864282
vt 0.332597673 0.22938329
vt 0.326146305 0.22938329
vt 0.326146305 0.235864282
vt 0.327988446 0.20705086
vt 0.327988446 0.213531852
vt 0.334237635 0.213531852
vt 0.334237635 0.20705086
vt 0.282492638 0.236399949
vt 0.288944006 0.236399949
vt 0.288944006 0.229919016
vt 0.282492638 0.229919016
vt 0.775920093 0.217947394
vt 0.786142886 0.217947394
vt 0.786142886 0.207677752
vt 0.775920093 0.207677752
vt 0.776694715 0.264312595
vt 0.776694715 0.274582297
vt 0.778486133 0.274582297
vt 0.778486133 0.264312595
vt 0.788876176 0.264195532
vt 0.788876176 0.25392583
vt 0.778653383 0.25392583
vt 0.778653383 0.264195532
vt 0.798046112 0.216096789
vt 0.798046112 0.22636649
vt 0.79983747 0.22636649
vt 0.79983747 0.216096789
vt 0.776694715 0.284851998
vt 0.778486133 0.284851998
vt 0.778486133 0.274582297
vt 0.776694715 0.274582297
vt 0.801628947 0.216096789
vt 0.79983753 0.216096789
vt 0.79983753 0.22636649
vt 0.801628947 0.22636649
vt 0.778653383 0.25392583
vt 0.787034035 0.25392583
vt 0.787034035 0.245506734
vt 0.778653383 0.245506734
vt 0.733464539 0.2750009
vt 0.733464539 0.283419997
vt 0.734933138 0.283419997
vt 0.734933138 0.2750009
vt 0.757974744 0.269013613
vt 0.757974744 0.27743271
vt 0.766355395 0.27743271
vt 0.766355395 0.269013613
vt 0.743313789 0.264731199
vt 0.743313789 0.273150295
vt 0.744782329 0.273150295
vt 0.744782329 0.264731199
vt 0.802197278 0.249761373
vt 0.803665876 0.249761373
vt 0.803665876 0.241342276
vt 0.802197278 0.241342336
vt 0.802331805 0.179816872
vt 0.800863206 0.179816872
vt 0.800863206 0.188235968
vt 0.802331805 0.188235968
vt 0.73297441 0.273150295
vt 0.73297441 0.264731199
vt 0.724593759 0.264731199
vt 0.724593759 0.273150295
vt 0.800779402 0.228987843
vt 0.800779402 0.237406939
vt 0.802248001 0.237406939
vt 0.802248001 0.228987843
vt 0.794523537 0.216096789
vt 0.794523537 0.207677752
vt 0.786142886 0.207677752
vt 0.786142886 0.216096789
vt 0.800728679 0.264195532
vt 0.800728679 0.272614628
vt 0.802197218 0.272614628
vt 0.802197218 0.264195532
vt 0.802197278 0.272614628
vt 0.803665876 0.272614628
vt 0.803665876 0.264195532
vt 0.802197278 0.264195532
vt 0.802443504 0.207677752
vt 0.800974905 0.207677752
vt 0.800974905 0.216096789
vt 0.802443504 0.216096789
vt 0.261666 0.753772974
vt 0.265706956 0.753772974
vt 0.265706956 0.741710186
vt 0.261666 0.741710186
vt 0.307376564 0.250814348
vt 0.297037244 0.250814348
vt 0.297037244 0.261201113
vt 0.307376564 0.261201113
vt 0.273995638 0.236145169
vt 0.263656288 0.236145169
vt 0.263656288 0.246531934
vt 0.273995638 0.246531934
vt 0.317715883 0.256500095
vt 0.317715883 0.24611333
vt 0.307376564 0.24611333
vt 0.307376564 0.256500095
vt 0.284334958 0.246531934
vt 0.284334958 0.256918699
vt 0.294674277 0.256918699
vt 0.294674277 0.246531934
vt 0.261666 0.765835762
vt 0.265706956 0.765835762
vt 0.265706956 0.753772974
vt 0.261666 0.753772974
vt 0.220455527 0.826332808
vt 0.224496484 0.826332808
vt 0.224496484 0.814270139
vt 0.220455527 0.814270139
vt 0.258848906 0.798472047
vt 0.262889862 0.798472047
vt 0.262889862 0.786409259
vt 0.258848906 0.786409259
vt 0.245510012 0.248987585
vt 0.245510012 0.255468577
vt 0.251759231 0.255468577
vt 0.251759231 0.248987585
vt 0.270506799 0.255468577
vt 0.270506799 0.248987585
vt 0.26425761 0.248987585
vt 0.26425761 0.255468577
vt 0.353852689 0.164273292
vt 0.3476035 0.164273292
vt 0.3476035 0.170754284
vt 0.353852689 0.170754284
vt 0.308755994 0.24618271
vt 0.308755994 0.252663702
vt 0.315207362 0.252663702
vt 0.315207362 0.24618271
vt 0.344064474 0.248742193
vt 0.337815285 0.248742193
vt 0.337815285 0.255223185
vt 0.344064474 0.255223185
vt 0.345304787 0.182908684
vt 0.351756155 0.182908684
vt 0.351756155 0.176427752
vt 0.345304787 0.176427752
vt 0.744670093 0.224310845
vt 0.754892886 0.224310845
vt 0.754892886 0.214041144
vt 0.744670093 0.214041144
vt 0.737064064 0.265107363
vt 0.735272646 0.265107363
vt 0.735272646 0.275377065
vt 0.737064064 0.275377065
vt 0.747403383 0.22924605
vt 0.747403383 0.239515692
vt 0.757626176 0.239515692
vt 0.757626176 0.22924605
vt 0.703683138 0.260824949
vt 0.70189172 0.260824949
vt 0.70189172 0.27109465
vt 0.703683138 0.27109465
vt 0.769478619 0.270558923
vt 0.769478619 0.260289282
vt 0.767687201 0.260289282
vt 0.767687201 0.270558923
vt 0.767687261 0.237436026
vt 0.767687261 0.247705728
vt 0.769478679 0.247705728
vt 0.769478679 0.237436026
vt 0.747403383 0.268708378
vt 0.755784035 0.268708378
vt 0.755784035 0.260289282
vt 0.747403383 0.260289282
vt 0.772550404 0.175910622
vt 0.771081805 0.175910622
vt 0.771081805 0.184329718
vt 0.772550404 0.184329718
vt 0.703683138 0.269244045
vt 0.712063789 0.269244045
vt 0.712063789 0.260824949
vt 0.703683138 0.260824949
vt 0.725830376 0.252114147
vt 0.724361777 0.252114147
vt 0.724361777 0.260533243
vt 0.725830376 0.260533243
vt 0.7724666 0.233500689
vt 0.7724666 0.225081593
vt 0.770998001 0.225081593
vt 0.770998001 0.233500689
vt 0.770097673 0.27235201
vt 0.770097673 0.280771106
vt 0.771566272 0.280771106
vt 0.771566272 0.27235201
vt 0.714022458 0.269244045
vt 0.722403109 0.269244045
vt 0.722403109 0.260824949
vt 0.714022458 0.260824949
vt 0.771081805 0.167491525
vt 0.769613206 0.167491525
vt 0.769613206 0.175910622
vt 0.771081805 0.175910622
vt 0.737064064 0.268825442
vt 0.745444715 0.268825442
vt 0.745444715 0.260406345
vt 0.737064064 0.260406345
vt 0.770947218 0.237436026
vt 0.769478679 0.237436026
vt 0.769478679 0.245855123
vt 0.770947218 0.245855123
vt 0.772550404 0.175910562
vt 0.772550404 0.167491525
vt 0.771081805 0.167491525
vt 0.771081805 0.175910562
vt 0.770378947 0.212190539
vt 0.770378947 0.220609635
vt 0.771847546 0.220609635
vt 0.771847546 0.212190539
vt 0.291525066 0.243368298
vt 0.284334958 0.246531934
vt 0.294674277 0.246531934
vt 0.287484169 0.243368298
vt 0.291525066 0.239308804
vt 0.284334958 0.236145169
vt 0.294674277 0.236145169
vt 0.287484169 0.239308804
vt 0.260011852 0.242821485
vt 0.263161063 0.239657849
vt 0.252821743 0.239657849
vt 0.255970925 0.242821485
vt 0.260011852 0.246880978
vt 0.252821743 0.250044614
vt 0.263161063 0.250044614
vt 0.255970925 0.246880978
vt 0.278916895 0.211820364
vt 0.279663444 0.21577692
vt 0.279663444 0.211070359
vt 0.278916895 0.215026915
vt 0.275724977 0.211820364
vt 0.274978429 0.21577692
vt 0.274978429 0.211070359
vt 0.275724977 0.215026915
vt 0.281886041 0.211750567
vt 0.281139493 0.215707123
vt 0.281886041 0.214957178
vt 0.281139493 0.211000621
vt 0.285824537 0.215707123
vt 0.285077959 0.211750567
vt 0.285077959 0.214957178
vt 0.285824537 0.211000621
vn -1.000000 0.000000 -0.000000
vn -1.000000 0.000000 -0.000000
vn -1.000000 0.000000 -0.000000
vn -1.000000 0.000000 -0.000000
vn -0.000000 1.000000 -0.000000
vn -0.000000 1.000000 -0.000000
vn -0.000000 1.000000 -0.000000
vn -0.000000 1.000000 -0.000000
vn 1.000000 0.000000 -0.000000
vn 1.000000 0.000000 -0.000000
vn 1.000000 0.000000 -0.000000
vn 1.000000 0.000000 -0.000000
vn -0.000000 -1.000000 -0.000000
vn -0.000000 -1.000000 -0.000000
vn -0.000000 -1.000000 -0.000000
vn -0.000000 -1.000000 -0.000000
vn -0.000000 0.000000 1.000000
vn -0.000000 0.000000 1.000000
vn -0.000000 0.000000 1.000000
vn -0.000000 0.000000 1.000000
vn -0.000000 0.000000 -1.000000
vn -0.000000 0.000000 -1.000000
vn -0.000000 0.000000 -1.000000
vn -0.000000 0.000000 -1.000000
vn -1.000000 0.000000 -0.000000
vn -1.000000 0.000000 -0.000000
vn -1.000000 0.000000 -0.000000
vn -1.000000 0.000000 -0.000000
vn 1.000000 0.000000 -0.000000
vn 1.000000 0.000000 -0.000000
vn 1.000000 0.000000 -0.000000
vn 1.000000 0.000000 -0.000000
vn 1.000000 0.000000 -0.000000
vn 1.000000 0.000000 -0.000000
vn 1.000000 0.000000 -0.000000
vn 1.000000 0.000000 -0.000000
vn -0.000000 0.000000 1.000000
vn -0.000000 0.000000 1.000000
vn -0.000000 0.000000 1.000000
vn -0.000000 0.000000 1.000000
vn -0.000000 0.000000 -1.000000
vn -0.000000 0.000000 -1.000000
vn -0.000000 0.000000 -1.000000
vn -0.000000 0.000000 -1.000000
vn -0.000000 -1.000000 -0.000000
vn -0.000000 -1.000000 -0.000000
vn -0.000000 -1.000000 -0.000000
vn -0.000000 -1.000000 -0.000000
vn -0.000000 0.000000 -1.000000
vn -0.000000 0.000000 -1.000000
vn -0.000000 0.000000 -1.000000
vn -0.000000 0.000000 -1.000000
vn -1.000000 0.000000 -0.000000
vn -1.000000 0.000000 -0.000000
vn -1.000000 0.000000 -0.000000
vn -1.000000 0.000000 -0.000000
vn -0.000000 0.000000 1.000000
vn -0.000000 0.000000 1.000000
vn -0.000000 0.000000 1.000000
vn -0.000000 0.000000 1.000000
vn 1.000000 0.000000 -0.000000
vn 1.000000 0.000000 -0.000000
vn 1.000000 0.000000 -0.000000
vn 1.000000 0.000000 -0.000000
vn -1.000000 0.000000 -0.000000
vn -1.000000 0.000000 -0.000000
vn -1.000000 0.000000 -0.000000
vn -1.000000 0.000000 -0.000000
vn -1.000000 0.000000 -0.000000
vn -1.000000 0.000000 -0.000000
vn -1.000000 0.000000 -0.000000
vn -1.000000 0.000000 -0.000000
vn -0.000000 0.000000 1.000000
vn -0.000000 0.000000 1.000000
vn -0.000000 0.000000 1.000000
vn -0.000000 0.000000 1.000000
vn -0.000000 0.000000 -1.000000
vn -0.000000 0.000000 -1.000000
vn -0.000000 0.000000 -1.000000
vn -0.000000 0.000000 -1.000000
vn -0.000000 -1.000000 -0.000000
vn -0.000000 -1.000000 -0.000000
vn -0.000000 -1.000000 -0.000000
vn -0.000000 -1.000000 -0.000000
vn -0.000000 0.000000 -1.000000
vn -0.000000 0.000000 -1.000000
vn -0.000000 0.000000 -1.000000
vn -0.000000 0.000000 -1.000000
vn 1.000000 0.000000 -0.000000
vn 1.000000 0.000000 -0.000000
vn 1.000000 0.000000 -0.000000
vn 1.000000 0.000000 -0.000000
vn -0.000000 0.000000 1.000000
vn -0.000000 0.000000 1.000000
vn -0.000000 0.000000 1.000000
vn -0.000000 0.000000 1.000000
vn -1.000000 0.000000 -0.000000
vn -1.000000 0.000000 -0.000000
vn -1.000000 0.000000 -0.000000
vn -1.000000 0.000000 -0.000000
vn -0.000000 0.000000 -1.000000
vn -0.000000 0.000000 -1.000000
vn -0.000000 0.000000 -1.000000
vn -0.000000 0.000000 -1.000000
vn 1.000000 0.000000 -0.000000
vn 1.000000 0.000000 -0.000000
vn 1.000000 0.000000 -0.000000
vn 1.000000 0.000000 -0.000000
vn -0.000000 -1.000000 -0.000000
vn -0.000000 -1.000000 -0.000000
vn -0.000000 -1.000000 -0.000000
vn -0.000000 -1.000000 -0.000000
vn -0.000000 0.000000 1.000000
vn -0.000000 0.000000 1.000000
vn -0.000000 0.000000 1.000000
vn -0.000000 0.000000 1.000000
vn -0.000000 0.000000 -1.000000
vn -0.000000 0.000000 -1.000000
vn -0.000000 0.000000 -1.000000
vn -0.000000 0.000000 -1.000000
vn -0.000000 0.000000 -1.000000
vn -0.000000 0.000000 -1.000000
vn -0.000000 0.000000 -1.000000
vn -0.000000 0.000000 -1.000000
vn -0.000000 0.000000 -1.000000
vn -0.000000 0.000000 -1.000000
vn -0.000000 0.000000 -1.000000
vn -0.000000 0.000000 -1.000000
vn -0.000000 0.000000 -1.000000
vn -0.000000 0.000000 -1.000000
vn -0.000000 0.000000 -1.000000
vn -0.000000 0.000000 -1.000000
vn -0.000000 0.000000 -1.000000
vn -0.000000 0.000000 -1.000000
vn -0.000000 0.000000 -1.000000
vn -0.000000 0.000000 -1.000000
vn -0.000000 0.000000 -1.000000
vn -0.000000 0.000000 -1.000000
vn -0.000000 0.000000 -1.000000
vn -0.000000 0.000000 -1.000000
vn -0.000000 0.000000 1.000000
vn -0.000000 0.000000 1.000000
vn -0.000000 0.000000 1.000000
vn -0.000000 0.000000 1.000000
vn -0.000000 0.000000 1.000000
vn -0.000000 0.000000 1.000000
vn -0.000000 0.000000 1.000000
vn -0.000000 0.000000 1.000000
vn -0.000000 0.000000 1.000000
vn -0.000000 0.000000 1.000000
vn -0.000000 0.000000 1.000000
vn -0.000000 0.000000 1.000000
vn -0.000000 0.000000 1.000000
vn -0.000000 0.000000 1.000000
vn -0.000000 0.000000 1.000000
vn -0.000000 0.000000 1.000000
vn -0.000000 0.000000 1.000000
vn -0.000000 0.000000 1.000000
vn -0.000000 0.000000 1.000000
vn -0.000000 0.000000 1.000000
vn -0.000000 0.000000 1.000000
vn -0.000000 0.000000 1.000000
vn -0.000000 0.000000 1.000000
vn -0.000000 0.000000 1.000000
vn -0.000000 -1.000000 -0.000000
vn -0.000000 -1.000000 -0.000000
vn -0.000000 -1.000000 -0.000000
vn -0.000000 -1.000000 -0.000000
vn -0.000000 -1.000000 -0.000000
vn -0.000000 -1.000000 -0.000000
vn -0.000000 -1.000000 -0.000000
vn -0.000000 -1.000000 -0.000000
vn -0.000000 -1.000000 -0.000000
vn -0.000000 -1.000000 -0.000000
vn -0.000000 -1.000000 -0.000000
vn -0.000000 -1.000000 -0.000000
vn -0.000000 -1.000000 -0.000000
vn -0.000000 -1.000000 -0.000000
vn -0.000000 -1.000000 -0.000000
vn -0.000000 -1.000000 -0.000000
vn -0.000000 -1.000000 -0.000000
vn -0.000000 -1.000000 -0.000000
vn -0.000000 -1.000000 -0.000000
vn -0.000000 -1.000000 -0.000000
vn -0.000000 -1.000000 -0.000000
vn -0.000000 -1.000000 -0.000000
vn -0.000000 -1.000000 -0.000000
vn -0.000000 -1.000000 -0.000000
vn -0.000000 0.000000 1.000000
vn -0.000000 0.000000 1.000000
vn -0.000000 0.000000 1.000000
vn -0.000000 0.000000 1.000000
vn -0.000000 1.000000 -0.000000
vn -0.000000 1.000000 -0.000000
vn -0.000000 1.000000 -0.000000
vn -0.000000 1.000000 -0.000000
vn -0.000000 -1.000000 -0.000000
vn -0.000000 -1.000000 -0.000000
vn -0.000000 -1.000000 -0.000000
vn -0.000000 -1.000000 -0.000000
vn -0.000000 0.000000 1.000000
vn -0.000000 0.000000 1.000000
vn -0.000000 0.000000 1.000000
vn -0.000000 0.000000 1.000000
vn -0.000000 0.000000 -1.000000
vn -0.000000 0.000000 -1.000000
vn -0.000000 0.000000 -1.000000
vn -0.000000 0.000000 -1.000000
vn -0.000000 0.000000 -1.000000
vn -0.000000 0.000000 -1.000000
vn -0.000000 0.000000 -1.000000
vn -0.000000 0.000000 -1.000000
vn -0.000000 1.000000 -0.000000
vn -0.000000 1.000000 -0.000000
vn -0.000000 1.000000 -0.000000
vn -0.000000 1.000000 -0.000000
vn -0.000000 -1.000000 -0.000000
vn -0.000000 -1.000000 -0.000000
vn -0.000000 -1.000000 -0.000000
vn -0.000000 -1.000000 -0.000000
vn -0.000000 0.000000 -1.000000
vn -0.000000 0.000000 -1.000000
vn -0.000000 0.000000 -1.000000
vn -0.000000 0.000000 -1.000000
vn -0.000000 0.000000 1.000000
vn -0.000000 0.000000 1.000000
vn -0.000000 0.000000 1.000000
vn -0.000000 0.000000 1.000000
vn -0.000000 -1.000000 -0.000000
vn -0.000000 -1.000000 -0.000000
vn -0.000000 -1.000000 -0.000000
vn -0.000000 -1.000000 -0.000000
vn 1.000000 0.000000 -0.000000
vn 1.000000 0.000000 -0.000000
vn 1.000000 0.000000 -0.000000
vn 1.000000 0.000000 -0.000000
vn -0.000000 1.000000 -0.000000
vn -0.000000 1.000000 -0.000000
vn -0.000000 1.000000 -0.000000
vn -0.000000 1.000000 -0.000000
vn -1.000000 0.000000 -0.000000
vn -1.000000 0.000000 -0.000000
vn -1.000000 0.000000 -0.000000
vn -1.000000 0.000000 -0.000000
vn -1.000000 0.000000 -0.000000
vn -1.000000 0.000000 -0.000000
vn -1.000000 0.000000 -0.000000
vn -1.000000 0.000000 -0.000000
vn -0.000000 1.000000 -0.000000
vn -0.000000 1.000000 -0.000000
vn -0.000000 1.000000 -0.000000
vn -0.000000 1.000000 -0.000000
vn 1.000000 0.000000 -0.000000
vn 1.000000 0.000000 -0.000000
vn 1.000000 0.000000 -0.000000
vn 1.000000 0.000000 -0.000000
vn -0.000000 -1.000000 -0.000000
vn -0.000000 -1.000000 -0.000000
vn -0.000000 -1.000000 -0.000000
vn -0.000000 -1.000000 -0.000000
vn -0.000000 0.000000 1.000000
vn -0.000000 0.000000 1.000000
vn -0.000000 0.000000 1.000000
vn -0.000000 0.000000 1.000000
vn -0.000000 0.000000 -1.000000
vn -0.000000 0.000000 -1.000000
vn -0.000000 0.000000 -1.000000
vn -0.000000 0.000000 -1.000000
vn -1.000000 0.000000 -0.000000
vn -1.000000 0.000000 -0.000000
vn -1.000000 0.000000 -0.000000
vn -1.000000 0.000000 -0.000000
vn -0.000000 1.000000 -0.000000
vn -0.000000 1.000000 -0.000000
vn -0.000000 1.000000 -0.000000
vn -0.000000 1.000000 -0.000000
vn 1.000000 0.000000 -0.000000
vn 1.000000 0.000000 -0.000000
vn 1.000000 0.000000 -0.000000
vn 1.000000 0.000000 -0.000000
vn -0.000000 -1.000000 -0.000000
vn -0.000000 -1.000000 -0.000000
vn -0.000000 -1.000000 -0.000000
vn -0.000000 -1.000000 -0.000000
vn -0.000000 0.000000 1.000000
vn -0.000000 0.000000 1.000000
vn -0.000000 0.000000 1.000000
vn -0.000000 0.000000 1.000000
vn -0.000000 0.000000 -1.000000
vn -0.000000 0.000000 -1.000000
vn -0.000000 0.000000 -1.000000
vn -0.000000 0.000000 -1.000000
vn -1.000000 0.000000 -0.000000
vn -1.000000 0.000000 -0.000000
vn -1.000000 0.000000 -0.000000
vn -1.000000 0.000000 -0.000000
vn -0.000000 1.000000 -0.000000
vn -0.000000 1.000000 -0.000000
vn -0.000000 1.000000 -0.000000
vn -0.000000 1.000000 -0.000000
vn 1.000000 0.000000 -0.000000
vn 1.000000 0.000000 -0.000000
vn 1.000000 0.000000 -0.000000
vn 1.000000 0.000000 -0.000000
vn -0.000000 -1.000000 -0.000000
vn -0.000000 -1.000000 -0.000000
vn -0.000000 -1.000000 -0.000000
vn -0.000000 -1.000000 -0.000000
vn -0.000000 0.000000 1.000000
vn -0.000000 0.000000 1.000000
vn -0.000000 0.000000 1.000000
vn -0.000000 0.000000 1.000000
vn -0.000000 0.000000 -1.000000
vn -0.000000 0.000000 -1.000000
vn -0.000000 0.000000 -1.000000
vn -0.000000 0.000000 -1.000000
vn -0.000000 0.000000 1.000000
vn -0.000000 0.000000 1.000000
vn -0.000000 0.000000 1.000000
vn -0.000000 0.000000 1.000000
vn -0.000000 1.000000 -0.000000
vn -0.000000 1.000000 -0.000000
vn -0.000000 1.000000 -0.000000
vn -0.000000 1.000000 -0.000000
vn -0.000000 -1.000000 -0.000000
vn -0.000000 -1.000000 -0.000000
vn -0.000000 -1.000000 -0.000000
vn -0.000000 -1.000000 -0.000000
vn -0.000000 0.000000 1.000000
vn -0.000000 0.000000 1.000000
vn -0.000000 0.000000 1.000000
vn -0.000000 0.000000 1.000000
vn -0.000000 0.000000 -1.000000
vn -0.000000 0.000000 -1.000000
vn -0.000000 0.000000 -1.000000
vn -0.000000 0.000000 -1.000000
vn -0.000000 0.000000 -1.000000
vn -0.000000 0.000000 -1.000000
vn -0.000000 0.000000 -1.000000
vn -0.000000 0.000000 -1.000000
vn -0.000000 1.000000 -0.000000
vn -0.000000 1.000000 -0.000000
vn -0.000000 1.000000 -0.000000
vn -0.000000 1.000000 -0.000000
vn -0.000000 -1.000000 -0.000000
vn -0.000000 -1.000000 -0.000000
vn -0.000000 -1.000000 -0.000000
vn -0.000000 -1.000000 -0.000000
vn -0.000000 0.000000 -1.000000
vn -0.000000 0.000000 -1.000000
vn -0.000000 0.000000 -1.000000
vn -0.000000 0.000000 -1.000000
vn -0.000000 0.000000 1.000000
vn -0.000000 0.000000 1.000000
vn -0.000000 0.000000 1.000000
vn -0.000000 0.000000 1.000000
vn -0.000000 -1.000000 -0.000000
vn -0.000000 -1.000000 -0.000000
vn -0.000000 -1.000000 -0.000000
vn -0.000000 -1.000000 -0.000000
vn -1.000000 0.000000 -0.000000
vn -1.000000 0.000000 -0.000000
vn -1.000000 0.000000 -0.000000
vn -1.000000 0.000000 -0.000000
vn -0.000000 1.000000 -0.000000
vn -0.000000 1.000000 -0.000000
vn -0.000000 1.000000 -0.000000
vn -0.000000 1.000000 -0.000000
vn 1.000000 0.000000 -0.000000
vn 1.000000 0.000000 -0.000000
vn 1.000000 0.000000 -0.000000
vn 1.000000 0.000000 -0.000000
vn 1.000000 0.000000 -0.000000
vn 1.000000 0.000000 -0.000000
vn 1.000000 0.000000 -0.000000
vn 1.000000 0.000000 -0.000000
vn -0.000000 1.000000 -0.000000
vn -0.000000 1.000000 -0.000000
vn -0.000000 1.000000 -0.000000
vn -0.000000 1.000000 -0.000000
vn -1.000000 0.000000 -0.000000
vn -1.000000 0.000000 -0.000000
vn -1.000000 0.000000 -0.000000
vn -1.000000 0.000000 -0.000000
vn -0.000000 -1.000000 -0.000000
vn -0.000000 -1.000000 -0.000000
vn -0.000000 -1.000000 -0.000000
vn -0.000000 -1.000000 -0.000000
vn -0.000000 0.000000 1.000000
vn -0.000000 0.000000 1.000000
vn -0.000000 0.000000 1.000000
vn -0.000000 0.000000 1.000000
vn -0.000000 0.000000 -1.000000
vn -0.000000 0.000000 -1.000000
vn -0.000000 0.000000 -1.000000
vn -0.000000 0.000000 -1.000000
vn 1.000000 0.000000 -0.000000
vn 1.000000 0.000000 -0.000000
vn 1.000000 0.000000 -0.000000
vn 1.000000 0.000000 -0.000000
vn -0.000000 1.000000 -0.000000
vn -0.000000 1.000000 -0.000000
vn -0.000000 1.000000 -0.000000
vn -0.000000 1.000000 -0.000000
vn -1.000000 0.000000 -0.000000
vn -1.000000 0.000000 -0.000000
vn -1.000000 0.000000 -0.000000
vn -1.000000 0.000000 -0.000000
vn -0.000000 -1.000000 -0.000000
vn -0.000000 -1.000000 -0.000000
vn -0.000000 -1.000000 -0.000000
vn -0.000000 -1.000000 -0.000000
vn -0.000000 0.000000 1.000000
vn -0.000000 0.000000 1.000000
vn -0.000000 0.000000 1.000000
vn -0.000000 0.000000 1.000000
vn -0.000000 0.000000 -1.000000
vn -0.000000 0.000000 -1.000000
vn -0.000000 0.000000 -1.000000
vn -0.000000 0.000000 -1.000000
vn 1.000000 0.000000 -0.000000
vn 1.000000 0.000000 -0.000000
vn 1.000000 0.000000 -0.000000
vn 1.000000 0.000000 -0.000000
vn -0.000000 1.000000 -0.000000
vn -0.000000 1.000000 -0.000000
vn -0.000000 1.000000 -0.000000
vn -0.000000 1.000000 -0.000000
vn -1.000000 0.000000 -0.000000
vn -1.000000 0.000000 -0.000000
vn -1.000000 0.000000 -0.000000
vn -1.000000 0.000000 -0.000000
vn -0.000000 -1.000000 -0.000000
vn -0.000000 -1.000000 -0.000000
vn -0.000000 -1.000000 -0.000000
vn -0.000000 -1.000000 -0.000000
vn -0.000000 0.000000 1.000000
vn -0.000000 0.000000 1.000000
vn -0.000000 0.000000 1.000000
vn -0.000000 0.000000 1.000000
vn -0.000000 0.000000 -1.000000
vn -0.000000 0.000000 -1.000000
vn -0.000000 0.000000 -1.000000
vn -0.000000 0.000000 -1.000000
vn 1.000000 0.000000 -0.000000
vn 1.000000 0.000000 -0.000000
vn 1.000000 0.000000 -0.000000
vn 1.000000 0.000000 -0.000000
vn 1.000000 0.000000 -0.000000
vn 1.000000 0.000000 -0.000000
vn 1.000000 0.000000 -0.000000
vn 1.000000 0.000000 -0.000000
vn -1.000000 0.000000 -0.000000
vn -1.000000 0.000000 -0.000000
vn -1.000000 0.000000 -0.000000
vn -1.000000 0.000000 -0.000000
vn -1.000000 0.000000 -0.000000
vn -1.000000 0.000000 -0.000000
vn -1.000000 0.000000 -0.000000
vn -1.000000 0.000000 -0.000000
vn -0.000000 -1.000000 -0.000000
vn -0.000000 -1.000000 -0.000000
vn -0.000000 -1.000000 -0.000000
vn -0.000000 -1.000000 -0.000000
vn -0.000000 -1.000000 -0.000000
vn -0.000000 -1.000000 -0.000000
vn -0.000000 -1.000000 -0.000000
vn -0.000000 -1.000000 -0.000000
vn -0.000000 -1.000000 -0.000000
vn -0.000000 -1.000000 -0.000000
vn -0.000000 -1.000000 -0.000000
vn -0.000000 -1.000000 -0.000000
vn -0.000000 -1.000000 -0.000000
vn -0.000000 -1.000000 -0.000000
vn -0.000000 -1.000000 -0.000000
vn -0.000000 -1.000000 -0.000000
f 1/1/1 2/2/2 3/3/3
f 1/1/1 3/3/3 4/4/4
f 5/5/5 6/6/6 7/7/7
f 5/5/5 7/7/7 8/8/8
f 9/9/9 10/10/10 11/11/11
f 9/9/9 11/11/11 12/12/12
f 13/13/13 14/14/14 15/15/15
f 13/13/13 15/15/15 16/16/16
f 17/17/17 18/18/18 19/19/19
f 17/17/17 19/19/19 20/20/20
f 21/21/21 22/22/22 23/23/23
f 21/21/21 23/23/23 24/24/24
f 25/25/25 26/26/26 27/27/27
f 25/25/25 27/27/27 28/28/28
f 29/29/29 30/30/30 31/31/31
f 29/29/29 31/31/31 32/32/32
f 33/33/33 34/34/34 35/35/35
f 33/33/33 35/35/35 36/36/36
f 37/37/37 38/38/38 39/39/39
f 37/37/37 39/39/39 40/40/40
f 41/41/41 42/42/42 43/43/43
f 41/41/41 43/43/43 44/44/44
f 45/45/45 46/46/46 47/47/47
f 45/45/45 47/47/47 48/48/48
f 49/49/49 50/50/50 51/51/51
f 49/49/49 51/51/51 52/52/52
f 53/53/53 54/54/54 55/55/55
f 53/53/53 55/55/55 56/56/56
f 57/57/57 58/58/58 59/59/59
f 57/57/57 59/59/59 60/60/60
f 61/61/61 62/62/62 63/63/63
f 61/61/61 63/63/63 64/64/64
f 65/65/65 66/66/66 67/67/67
f 65/65/65 67/67/67 68/68/68
f 69/69/69 70/70/70 71/71/71
f 69/69/69 71/71/71 72/72/72
f 73/73/73 74/74/74 75/75/75
f 73/73/73 75/75/75 76/76/76
f 77/77/77 78/78/78 79/79/79
f 77/77/77 79/79/79 80/80/80
f 81/81/81 82/82/82 83/83/83
f 81/81/81 83/83/83 84/84/84
f 85/85/85 86/86/86 87/87/87
f 85/85/85 87/87/87 88/88/88
f 89/89/89 90/90/90 91/91/91
f 89/89/89 91/91/91 92/92/92
f 93/93/93 94/94/94 95/95/95
f 93/93/93 95/95/95 96/96/96
f 97/97/97 98/98/98 99/99/99
f 97/97/97 99/99/99 100/100/100
f 101/101/101 102/102/102 103/103/103
f 101/101/101 103/103/103 104/104/104
f 105/105/105 106/106/106 107/107/107
f 105/105/105 107/107/107 108/108/108
f 109/109/109 110/110/110 111/111/111
f 109/109/109 111/111/111 112/112/112
f 113/113/113 114/114/114 115/115/115
f 113/113/113 115/115/115 116/116/116
f 117/117/117 118/118/118 119/119/119
f 117/117/117 119/119/119 120/120/120
f 121/121/121 122/122/122 123/123/123
f 121/121/121 123/123/123 124/124/124
f 125/125/125 126/126/126 127/127/127
f 125/125/125 127/127/127 128/128/128
f 129/129/129 130/130/130 131/131/131
f 129/129/129 131/131/131 132/132/132
f 133/133/133 134/134/134 135/135/135
f 133/133/133 135/135/135 136/136/136
f 137/137/137 138/138/138 139/139/139
f 137/137/137 139/139/139 140/140/140
f 141/141/141 142/142/142 143/143/143
f 141/141/141 143/143/143 144/144/144
f 145/145/145 146/146/146 147/147/147
f 145/145/145 147/147/147 148/148/148
f 149/149/149 150/150/150 151/151/151
f 149/149/149 151/151/151 152/152/152
f 153/153/153 154/154/154 155/155/155
f 153/153/153 155/155/155 156/156/156
f 157/157/157 158/158/158 159/159/159
f 157/157/157 159/159/159 160/160/160
f 161/161/161 162/162/162 163/163/163
f 161/161/161 163/163/163 164/164/164
f 165/165/165 166/166/166 167/167/167
f 165/165/165 167/167/167 168/168/168
f 169/169/169 170/170/170 171/171/171
f 169/169/169 171/171/171 172/172/172
f 173/173/173 174/174/174 175/175/175
f 173/173/173 175/175/175 176/176/176
f 177/177/177 178/178/178 179/179/179
f 177/177/177 179/179/179 180/180/180
f 181/181/181 182/182/182 183/183/183
f 181/181/181 183/183/183 184/184/184
f 185/185/185 186/186/186 187/187/187
f 185/185/185 187/187/187 188/188/188
f 189/189/189 190/190/190 191/191/191
f 189/189/189 191/191/191 192/192/192
f 193/193/193 194/194/194 195/195/195
f 193/193/193 195/195/195 196/196/196
f 197/197/197 198/198/198 199/199/199
f 197/197/197 199/199/199 200/200/200
f 201/201/201 202/202/202 203/203/203
f 201/201/201 203/203/203 204/204/204
f 205/205/205 206/206/206 207/207/207
f 205/205/205 207/207/207 208/208/208
f 209/209/209 210/210/210 211/211/211
f 209/209/209 211/211/211 212/212/212
f 213/213/213 214/214/214 215/215/215
f 213/213/213 215/215/215 216/216/216
f 217/217/217 218/218/218 219/219/219
f 217/217/217 219/219/219 220/220/220
f 221/221/221 222/222/222 223/223/223
f 221/221/221 223/223/223 224/224/224
f 225/225/225 226/226/226 227/227/227
f 225/225/225 227/227/227 228/228/228
f 229/229/229 230/230/230 231/231/231
f 229/229/229 231/231/231 232/232/232
f 233/233/233 234/234/234 235/235/235
f 233/233/233 235/235/235 236/236/236
f 237/237/237 238/238/238 239/239/239
f 237/237/237 239/239/239 240/240/240
f 241/241/241 242/242/242 243/243/243
f 241/241/241 243/243/243 244/244/244
f 245/245/245 246/246/246 247/247/247
f 245/245/245 247/247/247 248/248/248
f 249/249/249 250/250/250 251/251/251
f 249/249/249 251/251/251 252/252/252
f 253/253/253 254/254/254 255/255/255
f 253/253/253 255/255/255 256/256/256
f 257/257/257 258/258/258 259/259/259
f 257/257/257 259/259/259 260/260/260
f 261/261/261 262/262/262 263/263/263
f 261/261/261 263/263/263 264/264/264
f 265/265/265 266/266/266 267/267/267
f 265/265/265 267/267/267 268/268/268
f 269/269/269 270/270/270 271/271/271
f 269/269/269 271/271/271 272/272/272
f 273/273/273 274/274/274 275/275/275
f 273/273/273 275/275/275 276/276/276
f 277/277/277 278/278/278 279/279/279
f 277/277/277 279/279/279 280/280/280
f 281/281/281 282/282/282 283/283/283
f 281/281/281 283/283/283 284/284/284
f 285/285/285 286/286/286 287/287/287
f 285/285/285 287/287/287 288/288/288
f 289/289/289 290/290/290 291/291/291
f 289/289/289 291/291/291 292/292/292
f 293/293/293 294/294/294 295/295/295
f 293/293/293 295/295/295 296/296/296
f 297/297/297 298/298/298 299/299/299
f 297/297/297 299/299/299 300/300/300
f 301/301/301 302/302/302 303/303/303
f 301/301/301 303/303/303 304/304/304
f 305/305/305 306/306/306 307/307/307
f 305/305/305 307/307/307 308/308/308
f 309/309/309 310/310/310 311/311/311
f 309/309/309 311/311/311 312/312/312
f 313/313/313 314/314/314 315/315/315
f 313/313/313 315/315/315 316/316/316
f 317/317/317 318/318/318 319/319/319
f 317/317/317 319/319/319 320/320/320
f 321/321/321 322/322/322 323/323/323
f 321/321/321 323/323/323 324/324/324
f 325/325/325 326/326/326 327/327/327
f 325/325/325 327/327/327 328/328/328
f 329/329/329 330/330/330 331/331/331
f 329/329/329 331/331/331 332/332/332
f 333/333/333 334/334/334 335/335/335
f 333/333/333 335/335/335 336/336/336
f 337/337/337 338/338/338 339/339/339
f 337/337/337 339/339/339 340/340/340
f 341/341/341 342/342/342 343/343/343
f 341/341/341 343/343/343 344/344/344
f 345/345/345 346/346/346 347/347/347
f 345/345/345 347/347/347 348/348/348
f 349/349/349 350/350/350 351/351/351
f 349/349/349 351/351/351 352/352/352
f 353/353/353 354/354/354 355/355/355
f 353/353/353 355/355/355 356/356/356
f 357/357/357 358/358/358 359/359/359
f 357/357/357 359/359/359 360/360/360
f 361/361/361 362/362/362 363/363/363
f 361/361/361 363/363/363 364/364/364
f 365/365/365 366/366/366 367/367/367
f 365/365/365 367/367/367 368/368/368
f 369/369/369 370/370/370 371/371/371
f 369/369/369 371/371/371 372/372/372
f 373/373/373 374/374/374 375/375/375
f 373/373/373 375/375/375 376/376/376
f 377/377/377 378/378/378 379/379/379
f 377/377/377 379/379/379 380/380/380
f 381/381/381 382/382/382 383/383/383
f 381/381/381 383/383/383 384/384/384
f 385/385/385 386/386/386 387/387/387
f 385/385/385 387/387/387 388/388/388
f 389/389/389 390/390/390 391/391/391
f 389/389/389 391/391/391 392/392/392
f 393/393/393 394/394/394 395/395/395
f 393/393/393 395/395/395 396/396/396
f 397/397/397 398/398/398 399/399/399
f 397/397/397 399/399/399 400/400/400
f 401/401/401 402/402/402 403/403/403
f 401/401/401 403/403/403 404/404/404
f 405/405/405 406/406/406 407/407/407
f 405/405/405 407/407/407 408/408/408
f 409/409/409 410/410/410 411/411/411
f 409/409/409 411/411/411 412/412/412
f 413/413/413 414/414/414 415/415/415
f 413/413/413 415/415/415 416/416/416
f 417/417/417 418/418/418 419/419/419
f 417/417/417 419/419/419 420/420/420
f 421/421/421 422/422/422 423/423/423
f 421/421/421 423/423/423 424/424/424
f 425/425/425 426/426/426 427/427/427
f 425/425/425 427/427/427 428/428/428
f 429/429/429 430/430/430 431/431/431
f 429/429/429 431/431/431 432/432/432
f 433/433/433 434/434/434 435/435/435
f 433/433/433 435/435/435 436/436/436
f 437/437/437 438/438/438 439/439/439
f 437/437/437 439/439/439 440/440/440
f 441/441/441 442/442/442 443/443/443
f 441/441/441 443/443/443 444/444/444
f 445/445/445 446/446/446 447/447/447
f 445/445/445 448/448/448 446/446/446
f 449/449/449 445/445/445 447/447/447
f 448/448/448 450/450/450 446/446/446
f 449/449/449 447/447/447 451/451/451
f 448/448/448 452/452/452 450/450/450
f 452/452/452 449/449/449 451/451/451
f 452/452/452 451/451/451 450/450/450
f 453/453/453 454/454/454 455/455/455
f 453/453/453 455/455/455 456/456/456
f 457/457/457 454/454/454 453/453/453
f 456/456/456 455/455/455 458/458/458
f 457/457/457 459/459/459 454/454/454
f 456/456/456 458/458/458 460/460/460
f 460/460/460 459/459/459 457/457/457
f 460/460/460 458/458/458 459/459/459
f 461/461/461 462/462/462 463/463/463
f 461/461/461 464/464/464 462/462/462
f 465/465/465 461/461/461 463/463/463
f 464/464/464 466/466/466 462/462/462
f 465/465/465 463/463/463 467/467/467
f 464/464/464 468/468/468 466/466/466
f 468/468/468 465/465/465 467/467/467
f 468/468/468 467/467/467 466/466/466
f 469/469/469 470/470/470 471/471/471
f 469/469/469 472/472/472 470/470/470
f 471/471/471 470/470/470 473/473/473
f 474/474/474 472/472/472 469/469/469
f 471/471/471 473/473/473 475/475/475
f 474/474/474 476/476/476 472/472/472
f 475/475/475 473/473/473 476/476/476
f 475/475/475 476/476/476 474/474/474
