# skater_skateboard_backpack (gear rip -> Godot: Z negated + winding reversed)
v 0.426062 -0.248699 -0.057623
v -0.141144 -0.248699 0.714326
v -0.210786 -0.248699 0.663155
v -0.359650 -0.248699 0.553774
v -0.429291 -0.248699 0.502604
v 0.356420 -0.248699 -0.108793
v 0.137915 -0.248699 -0.269345
v 0.207557 -0.248699 -0.218174
v 0.356421 -0.178351 -0.108793
v 0.426062 -0.178351 -0.057623
v 0.521494 -0.149884 -0.187502
v 0.207557 -0.178351 -0.218174
v 0.489702 -0.149884 -0.290185
v 0.137915 -0.178351 -0.269345
v 0.233347 -0.149884 -0.399224
v 0.340838 -0.149884 -0.399566
v -0.344067 -0.220232 0.844547
v -0.236576 -0.220232 0.844206
v -0.236576 -0.149884 0.844206
v -0.344067 -0.149884 0.844547
v 0.340838 -0.220232 -0.399566
v 0.233347 -0.220232 -0.399224
v 0.233347 -0.149884 -0.399224
v 0.340838 -0.149884 -0.399566
v 0.521494 -0.220232 -0.187502
v 0.426062 -0.248699 -0.057623
v 0.356420 -0.248699 -0.108793
v 0.207557 -0.248699 -0.218174
v 0.489702 -0.220232 -0.290185
v 0.137915 -0.248699 -0.269345
v 0.233347 -0.220232 -0.399224
v 0.340838 -0.220232 -0.399566
v -0.141144 -0.178351 0.714326
v -0.236576 -0.149884 0.844206
v -0.236576 -0.220232 0.844206
v -0.141144 -0.248699 0.714326
v 0.426062 -0.178351 -0.057623
v 0.426062 -0.248699 -0.057623
v 0.521494 -0.149884 -0.187502
v 0.521494 -0.220232 -0.187502
v -0.429291 -0.248699 0.502604
v -0.524723 -0.220232 0.632483
v -0.524723 -0.149884 0.632483
v -0.429291 -0.178351 0.502604
v 0.137915 -0.248699 -0.269345
v 0.137915 -0.178351 -0.269345
v 0.233347 -0.220232 -0.399224
v 0.233347 -0.149884 -0.399224
v -0.236576 -0.220232 0.844206
v -0.344067 -0.220232 0.844547
v -0.492931 -0.220232 0.735166
v -0.141144 -0.248699 0.714326
v -0.524723 -0.220232 0.632483
v -0.210786 -0.248699 0.663155
v -0.359650 -0.248699 0.553774
v -0.429291 -0.248699 0.502604
v 0.521494 -0.220232 -0.187502
v 0.489702 -0.220232 -0.290185
v 0.489702 -0.149884 -0.290185
v 0.521494 -0.149884 -0.187502
v 0.489702 -0.220232 -0.290185
v 0.340838 -0.220232 -0.399566
v 0.340838 -0.149884 -0.399566
v 0.489702 -0.149884 -0.290185
v -0.524723 -0.220232 0.632483
v -0.492931 -0.220232 0.735166
v -0.492931 -0.149884 0.735166
v -0.524723 -0.149884 0.632483
v -0.492931 -0.220232 0.735166
v -0.344067 -0.220232 0.844547
v -0.344067 -0.149884 0.844547
v -0.492931 -0.149884 0.735166
v -0.492931 -0.149884 0.735166
v -0.344067 -0.149884 0.844547
v -0.236576 -0.149884 0.844206
v -0.141144 -0.178351 0.714326
v -0.524723 -0.149884 0.632483
v -0.210786 -0.178351 0.663155
v -0.359650 -0.178351 0.553774
v -0.429291 -0.178351 0.502604
v -0.210786 -0.178351 0.663155
v -0.141144 -0.178351 0.714326
v 0.426062 -0.178351 -0.057623
v -0.359650 -0.178351 0.553774
v -0.429291 -0.178351 0.502604
v 0.356421 -0.178351 -0.108793
v 0.137915 -0.178351 -0.269345
v 0.207557 -0.178351 -0.218174
v 0.225404 -0.348404 -0.175656
v 0.162870 -0.348404 -0.090549
v 0.149558 -0.229194 -0.088513
v 0.223369 -0.229194 -0.188968
v 0.323824 -0.229194 -0.115157
v 0.250012 -0.229194 -0.014702
v 0.247977 -0.348404 -0.028014
v 0.310511 -0.348404 -0.113121
v 0.310511 -0.348404 -0.113121
v 0.247977 -0.348404 -0.028014
v 0.162870 -0.348404 -0.090549
v 0.225404 -0.348404 -0.175656
v 0.162870 -0.348404 -0.090549
v 0.247977 -0.348404 -0.028014
v 0.250012 -0.229194 -0.014702
v 0.149558 -0.229194 -0.088513
v 0.310511 -0.348404 -0.113121
v 0.225404 -0.348404 -0.175656
v 0.223369 -0.229194 -0.188968
v 0.323824 -0.229194 -0.115157
v 0.095689 -0.335743 -0.236404
v 0.066138 -0.335743 -0.196187
v 0.066138 -0.284441 -0.196187
v 0.095689 -0.284441 -0.236404
v 0.095689 -0.284441 -0.236404
v 0.066138 -0.284441 -0.196187
v 0.377693 -0.284441 0.032734
v 0.407243 -0.284441 -0.007483
v 0.407243 -0.284441 -0.007483
v 0.377693 -0.284441 0.032734
v 0.377693 -0.335743 0.032734
v 0.407243 -0.335743 -0.007483
v 0.407243 -0.335743 -0.007483
v 0.377693 -0.335743 0.032734
v 0.066138 -0.335743 -0.196187
v 0.095689 -0.335743 -0.236404
v 0.066138 -0.335743 -0.196187
v 0.377693 -0.335743 0.032734
v 0.377693 -0.284441 0.032734
v 0.066138 -0.284441 -0.196187
v 0.407243 -0.335743 -0.007483
v 0.095689 -0.335743 -0.236404
v 0.095689 -0.284441 -0.236404
v 0.407243 -0.284441 -0.007483
v 0.381748 -0.363692 -0.060908
v 0.319090 -0.363692 0.024367
v 0.319090 -0.257873 0.024367
v 0.381748 -0.257873 -0.060908
v 0.381748 -0.257873 -0.060908
v 0.319090 -0.257873 0.024367
v 0.356027 -0.257873 0.051507
v 0.418684 -0.257873 -0.033768
v 0.418684 -0.257873 -0.033768
v 0.356027 -0.257873 0.051507
v 0.356027 -0.363692 0.051507
v 0.418684 -0.363692 -0.033768
v 0.418684 -0.363692 -0.033768
v 0.356027 -0.363692 0.051507
v 0.319090 -0.363692 0.024367
v 0.381748 -0.363692 -0.060908
v 0.319090 -0.363692 0.024367
v 0.356027 -0.363692 0.051507
v 0.356027 -0.257873 0.051507
v 0.319090 -0.257873 0.024367
v 0.418684 -0.363692 -0.033768
v 0.381748 -0.363692 -0.060908
v 0.381748 -0.257873 -0.060908
v 0.418684 -0.257873 -0.033768
v 0.154291 -0.363692 -0.228037
v 0.154291 -0.257873 -0.228037
v 0.091634 -0.257873 -0.142762
v 0.091634 -0.363692 -0.142762
v 0.154291 -0.257873 -0.228037
v 0.117355 -0.257873 -0.255177
v 0.054697 -0.257873 -0.169902
v 0.091634 -0.257873 -0.142762
v 0.117355 -0.257873 -0.255177
v 0.117355 -0.363692 -0.255177
v 0.054697 -0.363692 -0.169902
v 0.054697 -0.257873 -0.169902
v 0.117355 -0.363692 -0.255177
v 0.154291 -0.363692 -0.228037
v 0.091634 -0.363692 -0.142762
v 0.054697 -0.363692 -0.169902
v 0.091634 -0.363692 -0.142762
v 0.091634 -0.257873 -0.142762
v 0.054697 -0.257873 -0.169902
v 0.054697 -0.363692 -0.169902
v 0.117355 -0.363692 -0.255177
v 0.117355 -0.257873 -0.255177
v 0.154291 -0.257873 -0.228037
v 0.154291 -0.363692 -0.228037
v -0.246685 -0.348404 0.466842
v -0.309219 -0.348404 0.551949
v -0.322531 -0.229194 0.553984
v -0.248720 -0.229194 0.453530
v -0.148266 -0.229194 0.527341
v -0.222077 -0.229194 0.627796
v -0.224112 -0.348404 0.614483
v -0.161578 -0.348404 0.529376
v -0.161578 -0.348404 0.529376
v -0.224112 -0.348404 0.614483
v -0.309219 -0.348404 0.551949
v -0.246685 -0.348404 0.466842
v -0.309219 -0.348404 0.551949
v -0.224112 -0.348404 0.614483
v -0.222077 -0.229194 0.627796
v -0.322531 -0.229194 0.553984
v -0.161578 -0.348404 0.529376
v -0.246685 -0.348404 0.466842
v -0.248720 -0.229194 0.453530
v -0.148266 -0.229194 0.527341
v -0.376401 -0.335743 0.406094
v -0.405951 -0.335743 0.446310
v -0.405951 -0.284441 0.446310
v -0.376401 -0.284441 0.406094
v -0.376401 -0.284441 0.406094
v -0.405951 -0.284441 0.446310
v -0.094396 -0.284441 0.675232
v -0.064846 -0.284441 0.635015
v -0.064846 -0.284441 0.635015
v -0.094396 -0.284441 0.675232
v -0.094396 -0.335743 0.675232
v -0.064846 -0.335743 0.635015
v -0.064846 -0.335743 0.635015
v -0.094396 -0.335743 0.675232
v -0.405951 -0.335743 0.446310
v -0.376401 -0.335743 0.406094
v -0.405951 -0.335743 0.446310
v -0.094396 -0.335743 0.675232
v -0.094396 -0.284441 0.675232
v -0.405951 -0.284441 0.446310
v -0.064846 -0.335743 0.635015
v -0.376401 -0.335743 0.406094
v -0.376401 -0.284441 0.406094
v -0.064846 -0.284441 0.635015
v -0.090341 -0.363692 0.581589
v -0.152999 -0.363692 0.666864
v -0.152999 -0.257873 0.666864
v -0.090341 -0.257873 0.581589
v -0.090341 -0.257873 0.581589
v -0.152999 -0.257873 0.666864
v -0.116063 -0.257873 0.694004
v -0.053405 -0.257873 0.608729
v -0.053405 -0.257873 0.608729
v -0.116063 -0.257873 0.694004
v -0.116063 -0.363692 0.694004
v -0.053405 -0.363692 0.608729
v -0.053405 -0.363692 0.608729
v -0.116063 -0.363692 0.694004
v -0.152999 -0.363692 0.666864
v -0.090341 -0.363692 0.581589
v -0.152999 -0.363692 0.666864
v -0.116063 -0.363692 0.694004
v -0.116063 -0.257873 0.694004
v -0.152999 -0.257873 0.666864
v -0.053405 -0.363692 0.608729
v -0.090341 -0.363692 0.581589
v -0.090341 -0.257873 0.581589
v -0.053405 -0.257873 0.608729
v -0.317798 -0.363692 0.414461
v -0.317798 -0.257873 0.414461
v -0.380455 -0.257873 0.499736
v -0.380455 -0.363692 0.499736
v -0.317798 -0.257873 0.414461
v -0.354734 -0.257873 0.387321
v -0.417392 -0.257873 0.472596
v -0.380455 -0.257873 0.499736
v -0.354734 -0.257873 0.387321
v -0.354734 -0.363692 0.387321
v -0.417392 -0.363692 0.472596
v -0.417392 -0.257873 0.472596
v -0.354734 -0.363692 0.387321
v -0.317798 -0.363692 0.414461
v -0.380455 -0.363692 0.499736
v -0.417392 -0.363692 0.472596
v -0.380455 -0.363692 0.499736
v -0.380455 -0.257873 0.499736
v -0.417392 -0.257873 0.472596
v -0.417392 -0.363692 0.472596
v -0.354734 -0.363692 0.387321
v -0.354734 -0.257873 0.387321
v -0.317798 -0.257873 0.414461
v -0.317798 -0.363692 0.414461
vt 0.409042358 0.933189869
vt 0.409042358 0.822325885
vt 0.398700953 0.822325885
vt 0.376595467 0.822325885
vt 0.366254061 0.822325945
vt 0.398700953 0.933189869
vt 0.366254032 0.933189869
vt 0.376595467 0.933189869
vt 0.0239300653 0.467175066
vt 0.0142645016 0.467175066
vt 0.0142645016 0.484608829
vt 0.0445909575 0.467175066
vt 0.0239300653 0.491523385
vt 0.0542565361 0.467175066
vt 0.0542565361 0.484608889
vt 0.0445909426 0.491523385
vt 0.487059832 0.873524606
vt 0.487434864 0.84582895
vt 0.46412766 0.84582895
vt 0.463752627 0.873524606
vt 0.421965539 0.944478691
vt 0.421494305 0.979278922
vt 0.450780302 0.979278862
vt 0.451251507 0.944478691
vt 0.409042358 0.951842666
vt 0.409042358 0.933189869
vt 0.398700953 0.933189869
vt 0.376595467 0.933189869
vt 0.398700953 0.959240675
vt 0.366254032 0.933189869
vt 0.366254061 0.951842666
vt 0.376595467 0.959240675
vt 0.321826428 0.836795211
vt 0.324471474 0.822310865
vt 0.31793505 0.822310805
vt 0.315289974 0.836795211
vt 0.321826398 0.922883987
vt 0.315289974 0.922883987
vt 0.324471474 0.937368393
vt 0.31793502 0.937368393
vt 0.33984071 0.945102632
vt 0.343977869 0.96775806
vt 0.354201734 0.96775806
vt 0.350064516 0.945102632
vt 0.33984071 0.810448289
vt 0.350064516 0.810448289
vt 0.343977869 0.787792861
vt 0.354201734 0.787792861
vt 0.409042358 0.803673148
vt 0.398700953 0.796275139
vt 0.376595467 0.796275139
vt 0.409042358 0.822325885
vt 0.366254061 0.803673148
vt 0.398700953 0.822325885
vt 0.376595467 0.822325885
vt 0.366254061 0.822325945
vt 0.421494335 0.83529067
vt 0.421965539 0.870090902
vt 0.451251507 0.870090842
vt 0.450780302 0.83529067
vt 0.421965539 0.870090902
vt 0.421965539 0.944478691
vt 0.451251507 0.944478691
vt 0.451251507 0.870090842
vt 0.487434834 0.960421741
vt 0.487059832 0.932726085
vt 0.463752657 0.932726085
vt 0.46412763 0.960421741
vt 0.487059832 0.932726085
vt 0.487059832 0.873524606
vt 0.463752627 0.873524606
vt 0.463752657 0.932726085
vt 0.0445909724 0.339207947
vt 0.0239300802 0.339207947
vt 0.0142645165 0.346122444
vt 0.0142645165 0.363556206
vt 0.0542565361 0.346122444
vt 0.0239300802 0.363556206
vt 0.0445909724 0.363556206
vt 0.0542565361 0.363556206
vt 0.0239300802 0.363556206
vt 0.0142645165 0.363556206
vt 0.0142645016 0.467175066
vt 0.0445909724 0.363556206
vt 0.0542565361 0.363556206
vt 0.0239300653 0.467175066
vt 0.0542565361 0.467175066
vt 0.0445909575 0.467175066
vt 0.211278647 0.457828969
vt 0.211278647 0.483375221
vt 0.241120726 0.485678554
vt 0.241120726 0.455525637
vt 0.249643981 0.458704174
vt 0.249644011 0.482239068
vt 0.272936255 0.480441213
vt 0.272936285 0.460501969
vt 0.211116299 0.41906935
vt 0.241280869 0.419069409
vt 0.241280869 0.389895916
vt 0.211116329 0.389895916
vt 0.211278647 0.427676022
vt 0.211278647 0.453222215
vt 0.241131276 0.455525637
vt 0.241131276 0.42537266
vt 0.249644041 0.363974869
vt 0.249644041 0.383914113
vt 0.27294454 0.385711968
vt 0.27294454 0.362177014
vt 0.382787436 0.452149153
vt 0.346141607 0.452149093
vt 0.346141607 0.488578975
vt 0.382787436 0.488579035
vt 0.40016529 0.329967499
vt 0.386562884 0.329967499
vt 0.386563003 0.43188107
vt 0.400165379 0.43188107
vt 0.427517354 0.449097097
vt 0.390871644 0.449097097
vt 0.390871704 0.485526919
vt 0.427517474 0.485526919
vt 0.334003627 0.361260474
vt 0.344073474 0.361260474
vt 0.344073474 0.285813272
vt 0.334003568 0.285813272
vt 0.334003568 0.361260474
vt 0.334003568 0.285813272
vt 0.323653758 0.285813272
vt 0.323653758 0.361260474
vt 0.313303888 0.361260474
vt 0.313303888 0.436707616
vt 0.323653698 0.436707616
vt 0.323653698 0.361260474
vt 0.180193618 0.438581377
vt 0.180193618 0.418552667
vt 0.15948607 0.418552667
vt 0.15948607 0.438581347
vt 0.181231752 0.371364802
vt 0.181231752 0.391393453
vt 0.190201774 0.391393483
vt 0.190201774 0.371364802
vt 0.150809228 0.459217846
vt 0.150809228 0.441480696
vt 0.132470846 0.441480696
vt 0.132470846 0.459217846
vt 0.140421987 0.415309221
vt 0.140421987 0.397572011
vt 0.132478237 0.39757207
vt 0.132478207 0.415309221
vt 0.190200165 0.418549538
vt 0.199170187 0.418549538
vt 0.199170247 0.398524016
vt 0.190200225 0.398524016
vt 0.234516323 0.331796378
vt 0.249594226 0.331796378
vt 0.249594226 0.298135072
vt 0.234516323 0.298135072
vt 0.160522595 0.418552667
vt 0.181230083 0.418552667
vt 0.181230083 0.398524016
vt 0.160522595 0.398524016
vt 0.189155415 0.442146599
vt 0.180185392 0.442146599
vt 0.180185392 0.46217525
vt 0.189155415 0.46217528
vt 0.159477845 0.46217531
vt 0.180185392 0.46217528
vt 0.180185392 0.442146599
vt 0.159477845 0.442146659
vt 0.140421987 0.433046401
vt 0.148365736 0.433046401
vt 0.148365736 0.41530925
vt 0.140422016 0.415309221
vt 0.198125497 0.462172121
vt 0.198125497 0.442146599
vt 0.189155474 0.442146599
vt 0.189155415 0.462172151
vt 0.189155415 0.462172151
vt 0.189155415 0.482197672
vt 0.198125497 0.482197672
vt 0.198125497 0.462172151
vt 0.249643981 0.413432181
vt 0.249643981 0.433371425
vt 0.272936285 0.43516928
vt 0.272936285 0.411634356
vt 0.272936285 0.458704174
vt 0.272936285 0.43516928
vt 0.249643981 0.436967075
vt 0.249644011 0.456906319
vt 0.241645545 0.346679151
vt 0.210814044 0.346679151
vt 0.210814074 0.376497626
vt 0.241645575 0.376497626
vt 0.27294454 0.360379189
vt 0.27294457 0.340439945
vt 0.249644041 0.33864212
vt 0.249644041 0.362177014
vt 0.27294454 0.407449037
vt 0.27294454 0.387509763
vt 0.249644041 0.385711968
vt 0.249644041 0.409246862
vt 0.298053563 0.491502166
vt 0.334699214 0.491502225
vt 0.334699214 0.455072403
vt 0.298053563 0.455072403
vt 0.344073474 0.361260474
vt 0.334003568 0.361260474
vt 0.334003568 0.436707675
vt 0.344073474 0.436707675
vt 0.441840351 0.48552686
vt 0.478486001 0.485526919
vt 0.478486001 0.449097097
vt 0.441840351 0.449097097
vt 0.371792078 0.308809847
vt 0.354753792 0.308809847
vt 0.354753792 0.436466962
vt 0.371792138 0.436466902
vt 0.334003568 0.436707675
vt 0.334003568 0.361260474
vt 0.323653758 0.361260474
vt 0.323653758 0.436707675
vt 0.313303888 0.285813272
vt 0.313303888 0.361260474
vt 0.323653758 0.361260474
vt 0.323653698 0.285813272
vt 0.269324064 0.298135072
vt 0.269324064 0.264468461
vt 0.234516323 0.264468461
vt 0.234516323 0.298135072
vt 0.148365736 0.415309191
vt 0.148365736 0.397572041
vt 0.140421987 0.397572011
vt 0.140422016 0.415309191
vt 0.180185333 0.48220396
vt 0.180185333 0.46217531
vt 0.159477845 0.46217531
vt 0.159477845 0.48220399
vt 0.190200165 0.418552667
vt 0.190200165 0.398524016
vt 0.181230083 0.398524016
vt 0.181230143 0.418552667
vt 0.198133722 0.418552697
vt 0.18916364 0.418552667
vt 0.18916364 0.438578218
vt 0.198133722 0.438578218
vt 0.249594226 0.331796348
vt 0.26467213 0.331796378
vt 0.26467216 0.298135072
vt 0.249594226 0.298135072
vt 0.132470846 0.462375164
vt 0.132470876 0.480111003
vt 0.150810599 0.480111003
vt 0.150810599 0.462375164
vt 0.180193618 0.438581347
vt 0.18916364 0.438581347
vt 0.18916364 0.418552697
vt 0.180193618 0.418552667
vt 0.181231752 0.391391963
vt 0.181231752 0.371364802
vt 0.160522595 0.371364802
vt 0.160522595 0.391391963
vt 0.140421987 0.415309221
vt 0.132478207 0.415309221
vt 0.132478207 0.433046401
vt 0.140421987 0.433046401
vt 0.199171796 0.391390324
vt 0.199171796 0.371364802
vt 0.190201774 0.371364802
vt 0.190201774 0.391390324
vt 0.180185392 0.46217531
vt 0.180185392 0.482200831
vt 0.189155415 0.482200831
vt 0.189155415 0.46217531
vn -0.000000 -1.000000 -0.000000
vn -0.000000 -1.000000 -0.000000
vn -0.000000 -1.000000 -0.000000
vn -0.000000 -1.000000 -0.000000
vn -0.000000 -1.000000 -0.000000
vn -0.000000 -1.000000 -0.000000
vn -0.000000 -1.000000 -0.000000
vn -0.000000 -1.000000 -0.000000
vn -0.079671 0.990906 0.108430
vn -0.079671 0.990906 0.108430
vn -0.079671 0.990906 0.108430
vn -0.079671 0.990906 0.108430
vn -0.079671 0.990906 0.108430
vn -0.079671 0.990906 0.108430
vn -0.079671 0.990906 0.108430
vn -0.079671 0.990906 0.108430
vn 0.003180 0.000000 0.999995
vn 0.003180 0.000000 0.999995
vn 0.003180 0.000000 0.999995
vn 0.003180 0.000000 0.999995
vn -0.003180 0.000000 -0.999995
vn -0.003180 0.000000 -0.999995
vn -0.003180 0.000000 -0.999995
vn -0.003180 0.000000 -0.999995
vn 0.079671 -0.990906 -0.108430
vn 0.079671 -0.990906 -0.108430
vn 0.079671 -0.990906 -0.108430
vn 0.079671 -0.990906 -0.108430
vn 0.079671 -0.990906 -0.108430
vn 0.079671 -0.990906 -0.108430
vn 0.079671 -0.990906 -0.108430
vn 0.079671 -0.990906 -0.108430
vn 0.805852 0.000000 0.592117
vn 0.805852 0.000000 0.592117
vn 0.805852 0.000000 0.592117
vn 0.805852 0.000000 0.592117
vn 0.805852 0.000000 0.592117
vn 0.805852 0.000000 0.592117
vn 0.805852 0.000000 0.592117
vn 0.805852 0.000000 0.592117
vn -0.805852 0.000000 -0.592117
vn -0.805852 0.000000 -0.592117
vn -0.805852 0.000000 -0.592117
vn -0.805852 0.000000 -0.592117
vn -0.805852 0.000000 -0.592117
vn -0.805852 0.000000 -0.592117
vn -0.805852 0.000000 -0.592117
vn -0.805852 0.000000 -0.592117
vn -0.079671 -0.990906 0.108430
vn -0.079671 -0.990906 0.108430
vn -0.079671 -0.990906 0.108430
vn -0.079671 -0.990906 0.108430
vn -0.079671 -0.990906 0.108430
vn -0.079671 -0.990906 0.108430
vn -0.079671 -0.990906 0.108430
vn -0.079671 -0.990906 0.108430
vn 0.955263 0.000000 -0.295758
vn 0.955263 0.000000 -0.295758
vn 0.955263 0.000000 -0.295758
vn 0.955263 0.000000 -0.295758
vn 0.592117 0.000000 -0.805852
vn 0.592117 0.000000 -0.805852
vn 0.592117 0.000000 -0.805852
vn 0.592117 0.000000 -0.805852
vn -0.955263 0.000000 0.295758
vn -0.955263 0.000000 0.295758
vn -0.955263 0.000000 0.295758
vn -0.955263 0.000000 0.295758
vn -0.592117 0.000000 0.805852
vn -0.592117 0.000000 0.805852
vn -0.592117 0.000000 0.805852
vn -0.592117 0.000000 0.805852
vn 0.079671 0.990906 -0.108430
vn 0.079671 0.990906 -0.108430
vn 0.079671 0.990906 -0.108430
vn 0.079671 0.990906 -0.108430
vn 0.079671 0.990906 -0.108430
vn 0.079671 0.990906 -0.108430
vn 0.079671 0.990906 -0.108430
vn 0.079671 0.990906 -0.108430
vn -0.000000 1.000000 -0.000000
vn -0.000000 1.000000 -0.000000
vn -0.000000 1.000000 -0.000000
vn -0.000000 1.000000 -0.000000
vn -0.000000 1.000000 -0.000000
vn -0.000000 1.000000 -0.000000
vn -0.000000 1.000000 -0.000000
vn -0.000000 1.000000 -0.000000
vn -0.803293 -0.079626 -0.590237
vn -0.803293 -0.079626 -0.590237
vn -0.803293 -0.079626 -0.590237
vn -0.803293 -0.079626 -0.590237
vn 0.803293 -0.079626 0.590237
vn 0.803293 -0.079626 0.590237
vn 0.803293 -0.079626 0.590237
vn 0.803293 -0.079626 0.590237
vn -0.000000 -1.000000 -0.000000
vn -0.000000 -1.000000 -0.000000
vn -0.000000 -1.000000 -0.000000
vn -0.000000 -1.000000 -0.000000
vn -0.590237 -0.079627 0.803293
vn -0.590237 -0.079627 0.803293
vn -0.590237 -0.079627 0.803293
vn -0.590237 -0.079627 0.803293
vn 0.590237 -0.079626 -0.803293
vn 0.590237 -0.079626 -0.803293
vn 0.590237 -0.079626 -0.803293
vn 0.590237 -0.079626 -0.803293
vn -0.805852 0.000000 -0.592117
vn -0.805852 0.000000 -0.592117
vn -0.805852 0.000000 -0.592117
vn -0.805852 0.000000 -0.592117
vn -0.000000 1.000000 -0.000000
vn -0.000000 1.000000 -0.000000
vn -0.000000 1.000000 -0.000000
vn -0.000000 1.000000 -0.000000
vn 0.805852 0.000000 0.592118
vn 0.805852 0.000000 0.592118
vn 0.805852 0.000000 0.592118
vn 0.805852 0.000000 0.592118
vn -0.000000 -1.000000 -0.000000
vn -0.000000 -1.000000 -0.000000
vn -0.000000 -1.000000 -0.000000
vn -0.000000 -1.000000 -0.000000
vn -0.592117 0.000000 0.805852
vn -0.592117 0.000000 0.805852
vn -0.592117 0.000000 0.805852
vn -0.592117 0.000000 0.805852
vn 0.592117 0.000000 -0.805852
vn 0.592117 0.000000 -0.805852
vn 0.592117 0.000000 -0.805852
vn 0.592117 0.000000 -0.805852
vn -0.805852 0.000000 -0.592117
vn -0.805852 0.000000 -0.592117
vn -0.805852 0.000000 -0.592117
vn -0.805852 0.000000 -0.592117
vn -0.000000 1.000000 -0.000000
vn -0.000000 1.000000 -0.000000
vn -0.000000 1.000000 -0.000000
vn -0.000000 1.000000 -0.000000
vn 0.805852 0.000000 0.592117
vn 0.805852 0.000000 0.592117
vn 0.805852 0.000000 0.592117
vn 0.805852 0.000000 0.592117
vn -0.000000 -1.000000 -0.000000
vn -0.000000 -1.000000 -0.000000
vn -0.000000 -1.000000 -0.000000
vn -0.000000 -1.000000 -0.000000
vn -0.592118 0.000000 0.805851
vn -0.592118 0.000000 0.805851
vn -0.592118 0.000000 0.805851
vn -0.592118 0.000000 0.805851
vn 0.592118 0.000000 -0.805851
vn 0.592118 0.000000 -0.805851
vn 0.592118 0.000000 -0.805851
vn 0.592118 0.000000 -0.805851
vn 0.805852 0.000000 0.592117
vn 0.805852 0.000000 0.592117
vn 0.805852 0.000000 0.592117
vn 0.805852 0.000000 0.592117
vn -0.000000 1.000000 -0.000000
vn -0.000000 1.000000 -0.000000
vn -0.000000 1.000000 -0.000000
vn -0.000000 1.000000 -0.000000
vn -0.805852 0.000000 -0.592117
vn -0.805852 0.000000 -0.592117
vn -0.805852 0.000000 -0.592117
vn -0.805852 0.000000 -0.592117
vn -0.000000 -1.000000 -0.000000
vn -0.000000 -1.000000 -0.000000
vn -0.000000 -1.000000 -0.000000
vn -0.000000 -1.000000 -0.000000
vn -0.592118 0.000000 0.805851
vn -0.592118 0.000000 0.805851
vn -0.592118 0.000000 0.805851
vn -0.592118 0.000000 0.805851
vn 0.592118 0.000000 -0.805851
vn 0.592118 0.000000 -0.805851
vn 0.592118 0.000000 -0.805851
vn 0.592118 0.000000 -0.805851
vn -0.803293 -0.079626 -0.590237
vn -0.803293 -0.079626 -0.590237
vn -0.803293 -0.079626 -0.590237
vn -0.803293 -0.079626 -0.590237
vn 0.803293 -0.079626 0.590237
vn 0.803293 -0.079626 0.590237
vn 0.803293 -0.079626 0.590237
vn 0.803293 -0.079626 0.590237
vn -0.000000 -1.000000 -0.000000
vn -0.000000 -1.000000 -0.000000
vn -0.000000 -1.000000 -0.000000
vn -0.000000 -1.000000 -0.000000
vn -0.590237 -0.079626 0.803293
vn -0.590237 -0.079626 0.803293
vn -0.590237 -0.079626 0.803293
vn -0.590237 -0.079626 0.803293
vn 0.590237 -0.079627 -0.803293
vn 0.590237 -0.079627 -0.803293
vn 0.590237 -0.079627 -0.803293
vn 0.590237 -0.079627 -0.803293
vn -0.805851 0.000000 -0.592118
vn -0.805851 0.000000 -0.592118
vn -0.805851 0.000000 -0.592118
vn -0.805851 0.000000 -0.592118
vn -0.000000 1.000000 -0.000000
vn -0.000000 1.000000 -0.000000
vn -0.000000 1.000000 -0.000000
vn -0.000000 1.000000 -0.000000
vn 0.805852 0.000000 0.592117
vn 0.805852 0.000000 0.592117
vn 0.805852 0.000000 0.592117
vn 0.805852 0.000000 0.592117
vn -0.000000 -1.000000 -0.000000
vn -0.000000 -1.000000 -0.000000
vn -0.000000 -1.000000 -0.000000
vn -0.000000 -1.000000 -0.000000
vn -0.592117 0.000000 0.805852
vn -0.592117 0.000000 0.805852
vn -0.592117 0.000000 0.805852
vn -0.592117 0.000000 0.805852
vn 0.592117 0.000000 -0.805852
vn 0.592117 0.000000 -0.805852
vn 0.592117 0.000000 -0.805852
vn 0.592117 0.000000 -0.805852
vn -0.805852 0.000000 -0.592117
vn -0.805852 0.000000 -0.592117
vn -0.805852 0.000000 -0.592117
vn -0.805852 0.000000 -0.592117
vn -0.000000 1.000000 -0.000000
vn -0.000000 1.000000 -0.000000
vn -0.000000 1.000000 -0.000000
vn -0.000000 1.000000 -0.000000
vn 0.805852 0.000000 0.592117
vn 0.805852 0.000000 0.592117
vn 0.805852 0.000000 0.592117
vn 0.805852 0.000000 0.592117
vn -0.000000 -1.000000 -0.000000
vn -0.000000 -1.000000 -0.000000
vn -0.000000 -1.000000 -0.000000
vn -0.000000 -1.000000 -0.000000
vn -0.592118 0.000000 0.805851
vn -0.592118 0.000000 0.805851
vn -0.592118 0.000000 0.805851
vn -0.592118 0.000000 0.805851
vn 0.592118 0.000000 -0.805851
vn 0.592118 0.000000 -0.805851
vn 0.592118 0.000000 -0.805851
vn 0.592118 0.000000 -0.805851
vn 0.805852 0.000000 0.592117
vn 0.805852 0.000000 0.592117
vn 0.805852 0.000000 0.592117
vn 0.805852 0.000000 0.592117
vn -0.000000 1.000000 -0.000000
vn -0.000000 1.000000 -0.000000
vn -0.000000 1.000000 -0.000000
vn -0.000000 1.000000 -0.000000
vn -0.805852 0.000000 -0.592117
vn -0.805852 0.000000 -0.592117
vn -0.805852 0.000000 -0.592117
vn -0.805852 0.000000 -0.592117
vn -0.000000 -1.000000 -0.000000
vn -0.000000 -1.000000 -0.000000
vn -0.000000 -1.000000 -0.000000
vn -0.000000 -1.000000 -0.000000
vn -0.592118 0.000000 0.805852
vn -0.592118 0.000000 0.805852
vn -0.592118 0.000000 0.805852
vn -0.592118 0.000000 0.805852
vn 0.592118 0.000000 -0.805851
vn 0.592118 0.000000 -0.805851
vn 0.592118 0.000000 -0.805851
vn 0.592118 0.000000 -0.805851
f 1/1/1 2/2/2 3/3/3
f 3/3/3 4/4/4 1/1/1
f 4/4/4 5/5/5 1/1/1
f 5/5/5 6/6/6 1/1/1
f 5/5/5 7/7/7 6/6/6
f 7/7/7 8/8/8 6/6/6
f 9/9/9 10/10/10 11/11/11
f 11/11/11 12/12/12 9/9/9
f 11/11/11 13/13/13 12/12/12
f 13/13/13 14/14/14 12/12/12
f 13/13/13 15/15/15 14/14/14
f 13/13/13 16/16/16 15/15/15
f 17/17/17 18/18/18 19/19/19
f 17/17/17 19/19/19 20/20/20
f 21/21/21 22/22/22 23/23/23
f 21/21/21 23/23/23 24/24/24
f 25/25/25 26/26/26 27/27/27
f 27/27/27 28/28/28 25/25/25
f 28/28/28 29/29/29 25/25/25
f 28/28/28 30/30/30 29/29/29
f 30/30/30 31/31/31 29/29/29
f 31/31/31 32/32/32 29/29/29
f 33/33/33 34/34/34 35/35/35
f 33/33/33 35/35/35 36/36/36
f 37/37/37 33/33/33 36/36/36
f 37/37/37 36/36/36 38/38/38
f 38/38/38 39/39/39 37/37/37
f 38/38/38 40/40/40 39/39/39
f 41/41/41 42/42/42 43/43/43
f 41/41/41 43/43/43 44/44/44
f 45/45/45 41/41/41 44/44/44
f 45/45/45 44/44/44 46/46/46
f 46/46/46 47/47/47 45/45/45
f 46/46/46 48/48/48 47/47/47
f 49/49/49 50/50/50 51/51/51
f 51/51/51 52/52/52 49/49/49
f 51/51/51 53/53/53 52/52/52
f 53/53/53 54/54/54 52/52/52
f 53/53/53 55/55/55 54/54/54
f 53/53/53 56/56/56 55/55/55
f 57/57/57 58/58/58 59/59/59
f 57/57/57 59/59/59 60/60/60
f 61/61/61 62/62/62 63/63/63
f 61/61/61 63/63/63 64/64/64
f 65/65/65 66/66/66 67/67/67
f 65/65/65 67/67/67 68/68/68
f 69/69/69 70/70/70 71/71/71
f 69/69/69 71/71/71 72/72/72
f 73/73/73 74/74/74 75/75/75
f 75/75/75 76/76/76 73/73/73
f 76/76/76 77/77/77 73/73/73
f 76/76/76 78/78/78 77/77/77
f 78/78/78 79/79/79 77/77/77
f 79/79/79 80/80/80 77/77/77
f 81/81/81 82/82/82 83/83/83
f 83/83/83 84/84/84 81/81/81
f 83/83/83 85/85/85 84/84/84
f 83/83/83 86/86/86 85/85/85
f 86/86/86 87/87/87 85/85/85
f 86/86/86 88/88/88 87/87/87
f 89/89/89 90/90/90 91/91/91
f 89/89/89 91/91/91 92/92/92
f 93/93/93 94/94/94 95/95/95
f 93/93/93 95/95/95 96/96/96
f 97/97/97 98/98/98 99/99/99
f 97/97/97 99/99/99 100/100/100
f 101/101/101 102/102/102 103/103/103
f 101/101/101 103/103/103 104/104/104
f 105/105/105 106/106/106 107/107/107
f 105/105/105 107/107/107 108/108/108
f 109/109/109 110/110/110 111/111/111
f 109/109/109 111/111/111 112/112/112
f 113/113/113 114/114/114 115/115/115
f 113/113/113 115/115/115 116/116/116
f 117/117/117 118/118/118 119/119/119
f 117/117/117 119/119/119 120/120/120
f 121/121/121 122/122/122 123/123/123
f 121/121/121 123/123/123 124/124/124
f 125/125/125 126/126/126 127/127/127
f 125/125/125 127/127/127 128/128/128
f 129/129/129 130/130/130 131/131/131
f 129/129/129 131/131/131 132/132/132
f 133/133/133 134/134/134 135/135/135
f 133/133/133 135/135/135 136/136/136
f 137/137/137 138/138/138 139/139/139
f 137/137/137 139/139/139 140/140/140
f 141/141/141 142/142/142 143/143/143
f 141/141/141 143/143/143 144/144/144
f 145/145/145 146/146/146 147/147/147
f 145/145/145 147/147/147 148/148/148
f 149/149/149 150/150/150 151/151/151
f 149/149/149 151/151/151 152/152/152
f 153/153/153 154/154/154 155/155/155
f 153/153/153 155/155/155 156/156/156
f 157/157/157 158/158/158 159/159/159
f 157/157/157 159/159/159 160/160/160
f 161/161/161 162/162/162 163/163/163
f 161/161/161 163/163/163 164/164/164
f 165/165/165 166/166/166 167/167/167
f 165/165/165 167/167/167 168/168/168
f 169/169/169 170/170/170 171/171/171
f 169/169/169 171/171/171 172/172/172
f 173/173/173 174/174/174 175/175/175
f 173/173/173 175/175/175 176/176/176
f 177/177/177 178/178/178 179/179/179
f 177/177/177 179/179/179 180/180/180
f 181/181/181 182/182/182 183/183/183
f 181/181/181 183/183/183 184/184/184
f 185/185/185 186/186/186 187/187/187
f 185/185/185 187/187/187 188/188/188
f 189/189/189 190/190/190 191/191/191
f 189/189/189 191/191/191 192/192/192
f 193/193/193 194/194/194 195/195/195
f 193/193/193 195/195/195 196/196/196
f 197/197/197 198/198/198 199/199/199
f 197/197/197 199/199/199 200/200/200
f 201/201/201 202/202/202 203/203/203
f 201/201/201 203/203/203 204/204/204
f 205/205/205 206/206/206 207/207/207
f 205/205/205 207/207/207 208/208/208
f 209/209/209 210/210/210 211/211/211
f 209/209/209 211/211/211 212/212/212
f 213/213/213 214/214/214 215/215/215
f 213/213/213 215/215/215 216/216/216
f 217/217/217 218/218/218 219/219/219
f 217/217/217 219/219/219 220/220/220
f 221/221/221 222/222/222 223/223/223
f 221/221/221 223/223/223 224/224/224
f 225/225/225 226/226/226 227/227/227
f 225/225/225 227/227/227 228/228/228
f 229/229/229 230/230/230 231/231/231
f 229/229/229 231/231/231 232/232/232
f 233/233/233 234/234/234 235/235/235
f 233/233/233 235/235/235 236/236/236
f 237/237/237 238/238/238 239/239/239
f 237/237/237 239/239/239 240/240/240
f 241/241/241 242/242/242 243/243/243
f 241/241/241 243/243/243 244/244/244
f 245/245/245 246/246/246 247/247/247
f 245/245/245 247/247/247 248/248/248
f 249/249/249 250/250/250 251/251/251
f 249/249/249 251/251/251 252/252/252
f 253/253/253 254/254/254 255/255/255
f 253/253/253 255/255/255 256/256/256
f 257/257/257 258/258/258 259/259/259
f 257/257/257 259/259/259 260/260/260
f 261/261/261 262/262/262 263/263/263
f 261/261/261 263/263/263 264/264/264
f 265/265/265 266/266/266 267/267/267
f 265/265/265 267/267/267 268/268/268
f 269/269/269 270/270/270 271/271/271
f 269/269/269 271/271/271 272/272/272
