# snake_vest (gear rip -> Godot: Z negated + winding reversed)
v -0.819705 0.267007 0.231387
v -0.819705 0.354306 0.231387
v -0.850804 0.354306 -0.009754
v -0.850804 0.267007 -0.009754
v -0.977504 0.247207 -0.151802
v -0.977504 0.374107 -0.151802
v -0.819705 0.267007 0.231387
v -0.524485 0.281597 0.240967
v -0.819705 0.354306 0.231387
v -0.585056 0.218730 0.240967
v -0.380500 -0.055757 0.220175
v -0.467471 -0.048190 0.220176
v -0.531663 -0.316494 0.220175
v -0.592622 -0.254003 0.220175
v -0.819705 -0.385804 0.231386
v -0.819705 -0.298505 0.231387
v -0.760770 0.267007 0.166983
v -0.590284 0.223767 0.153970
v -0.585056 0.218730 0.240967
v -0.819705 0.267007 0.231387
v -0.850804 0.267007 -0.009754
v -0.764336 0.267007 -0.021770
v -0.850637 0.247207 -0.148953
v -0.977504 0.247207 -0.151802
v -0.861448 0.258782 -0.239569
v -0.884221 0.258782 -0.241898
v -0.590284 0.223767 0.153970
v -0.466841 -0.040958 0.133179
v -0.467471 -0.048190 0.220176
v -0.585056 0.218730 0.240967
v -0.524485 0.281597 0.240967
v -0.380500 -0.055757 0.220175
v -0.379871 -0.048524 0.133179
v -0.529713 0.286634 0.153970
v -0.380500 -0.055757 0.220175
v -0.526467 -0.311425 0.133179
v -0.379871 -0.048524 0.133179
v -0.531663 -0.316494 0.220175
v -0.760770 -0.385804 0.166983
v -0.819705 -0.385804 0.231386
v -0.758036 -0.385803 -0.185511
v -0.822440 -0.385803 -0.244446
v -0.555777 -0.392868 -0.180224
v -0.548992 -0.392868 -0.249733
v -0.159200 -0.346158 -0.204687
v -0.150719 -0.346158 -0.204687
v -0.466841 -0.040958 0.133179
v -0.587425 -0.248933 0.133179
v -0.592622 -0.254003 0.220175
v -0.467471 -0.048190 0.220176
v -0.526467 -0.311425 0.133179
v -0.760770 -0.385804 0.166983
v -0.760770 -0.298505 0.166983
v -0.587425 -0.248933 0.133179
v -0.379871 -0.048524 0.133179
v -0.466841 -0.040958 0.133179
v -0.529713 0.286634 0.153970
v -0.590284 0.223767 0.153970
v -0.760770 0.354306 0.166984
v -0.760770 0.267007 0.166983
v -0.760770 -0.385804 0.166983
v -0.758036 -0.385803 -0.185511
v -0.758036 -0.298504 -0.185511
v -0.760770 -0.298505 0.166983
v -0.758036 -0.385803 -0.185511
v -0.555777 -0.323029 -0.180224
v -0.758036 -0.298504 -0.185511
v -0.555777 -0.392868 -0.180224
v -0.159200 -0.346158 -0.204687
v -0.822440 -0.298504 -0.244445
v -0.548992 -0.392868 -0.249733
v -0.822440 -0.385803 -0.244446
v -0.548992 -0.323029 -0.249733
v -0.150719 -0.346158 -0.204687
v -0.819705 0.354306 0.231387
v -0.524485 0.281597 0.240967
v -0.529713 0.286634 0.153970
v -0.760770 0.354306 0.166984
v -0.764336 0.354306 -0.021770
v -0.850804 0.354306 -0.009754
v -0.977504 0.374107 -0.151802
v -0.850637 0.374107 -0.148953
v -0.884221 0.362532 -0.241897
v -0.861448 0.362532 -0.239568
v -0.760770 0.354306 0.166984
v -0.760770 0.267007 0.166983
v -0.764336 0.267007 -0.021770
v -0.764336 0.354306 -0.021770
v -0.850637 0.374107 -0.148953
v -0.850637 0.247207 -0.148953
v -0.861448 0.362532 -0.239568
v -0.861448 0.258782 -0.239569
v -0.592622 -0.254003 0.220175
v -0.587425 -0.248933 0.133179
v -0.760770 -0.298505 0.166983
v -0.819705 -0.298505 0.231387
v -0.822440 -0.298504 -0.244445
v -0.758036 -0.298504 -0.185511
v -0.548992 -0.323029 -0.249733
v -0.555777 -0.323029 -0.180224
v -0.150719 -0.346158 -0.204687
v -0.159200 -0.346158 -0.204687
v -0.819705 -0.298505 0.231387
v -0.822440 -0.298504 -0.244445
v -0.822440 -0.385803 -0.244446
v -0.819705 -0.385804 0.231386
v -0.884221 0.362532 -0.241897
v -0.861448 0.362532 -0.239568
v -0.861448 0.258782 -0.239569
v -0.884221 0.258782 -0.241898
v -0.977504 0.374107 -0.151802
v -0.884221 0.362532 -0.241897
v -0.884221 0.258782 -0.241898
v -0.977504 0.247207 -0.151802
v -0.962126 0.294834 -0.170449
v -0.944549 0.294834 -0.186676
v -0.944549 0.270913 -0.186676
v -0.962126 0.270913 -0.170449
v -0.962126 0.346896 -0.170449
v -0.944549 0.346896 -0.186676
v -0.944549 0.322974 -0.186676
v -0.962126 0.322974 -0.170449
v -0.883187 0.306553 -0.205338
v -0.852473 0.284097 -0.283995
v -0.883187 0.284097 -0.205338
v -0.861987 0.306553 -0.259630
v -0.883187 0.329008 -0.205338
v -0.852473 0.329008 -0.283994
vt 0.250042617 0.657170415
vt 0.250042617 0.657170415
vt 0.250042617 0.657170415
vt 0.250042617 0.657170415
vt 0.250042617 0.657170415
vt 0.250042617 0.657170415
vt 0.250042617 0.657170415
vt 0.250042617 0.657170415
vt 0.250042617 0.657170415
vt 0.250042617 0.657170415
vt 0.250042617 0.657170415
vt 0.250042617 0.657170415
vt 0.250042617 0.657170415
vt 0.250042617 0.657170415
vt 0.250042617 0.657170415
vt 0.250042617 0.657170415
vt 0.250042617 0.657170415
vt 0.250042617 0.657170415
vt 0.250042617 0.657170415
vt 0.250042617 0.657170415
vt 0.250042617 0.657170415
vt 0.250042617 0.657170415
vt 0.250042617 0.657170415
vt 0.250042617 0.657170415
vt 0.250042617 0.657170415
vt 0.250042617 0.657170415
vt 0.250042617 0.657170415
vt 0.250042617 0.657170415
vt 0.250042617 0.657170415
vt 0.250042617 0.657170415
vt 0.250042617 0.657170415
vt 0.250042617 0.657170415
vt 0.250042617 0.657170415
vt 0.250042617 0.657170415
vt 0.250042617 0.657170415
vt 0.250042617 0.657170415
vt 0.250042617 0.657170415
vt 0.250042617 0.657170415
vt 0.250042617 0.657170415
vt 0.250042617 0.657170415
vt 0.250042617 0.657170415
vt 0.250042617 0.657170415
vt 0.250042617 0.657170415
vt 0.250042617 0.657170415
vt 0.250042617 0.657170415
vt 0.250042617 0.657170415
vt 0.250042617 0.657170415
vt 0.250042617 0.657170415
vt 0.250042617 0.657170415
vt 0.250042617 0.657170415
vt 0.77516979 0.738395095
vt 0.77516979 0.738395095
vt 0.77516979 0.738395095
vt 0.77516979 0.738395095
vt 0.77516979 0.738395095
vt 0.77516979 0.738395095
vt 0.77516979 0.738395095
vt 0.77516979 0.738395095
vt 0.77516979 0.738395095
vt 0.77516979 0.738395095
vt 0.77516979 0.738395095
vt 0.77516979 0.738395095
vt 0.77516979 0.738395095
vt 0.77516979 0.738395095
vt 0.77516979 0.738395095
vt 0.77516979 0.738395095
vt 0.77516979 0.738395095
vt 0.77516979 0.738395095
vt 0.77516979 0.738395095
vt 0.250042617 0.657170415
vt 0.250042617 0.657170415
vt 0.250042617 0.657170415
vt 0.250042617 0.657170415
vt 0.250042617 0.657170415
vt 0.250042617 0.657170415
vt 0.250042617 0.657170415
vt 0.250042617 0.657170415
vt 0.250042617 0.657170415
vt 0.250042617 0.657170415
vt 0.250042617 0.657170415
vt 0.250042617 0.657170415
vt 0.250042617 0.657170415
vt 0.250042617 0.657170415
vt 0.250042617 0.657170415
vt 0.77516979 0.738395095
vt 0.77516979 0.738395095
vt 0.77516979 0.738395095
vt 0.77516979 0.738395095
vt 0.77516979 0.738395095
vt 0.77516979 0.738395095
vt 0.77516979 0.738395095
vt 0.77516979 0.738395095
vt 0.250042617 0.657170415
vt 0.250042617 0.657170415
vt 0.250042617 0.657170415
vt 0.250042617 0.657170415
vt 0.250042617 0.657170415
vt 0.250042617 0.657170415
vt 0.250042617 0.657170415
vt 0.250042617 0.657170415
vt 0.250042617 0.657170415
vt 0.250042617 0.657170415
vt 0.250042617 0.657170415
vt 0.250042617 0.657170415
vt 0.250042617 0.657170415
vt 0.250042617 0.657170415
vt 0.250042617 0.657170415
vt 0.250042617 0.657170415
vt 0.250042617 0.657170415
vt 0.250042617 0.657170415
vt 0.250042617 0.657170415
vt 0.250042617 0.657170415
vt 0.250042617 0.657170415
vt 0.250042617 0.657170415
vt 0.731733024 0.269619823
vt 0.751307786 0.269619703
vt 0.751307786 0.250045061
vt 0.731733024 0.250045061
vt 0.751325727 0.269619703
vt 0.770900548 0.269619703
vt 0.770900488 0.250045061
vt 0.751325727 0.250045061
vt 0.199050054 0.288320422
vt 0.268146455 0.269945323
vt 0.199050054 0.269945383
vt 0.246742949 0.288320422
vt 0.199050054 0.306695461
vt 0.268146455 0.306695521
vn -0.991786 -0.000000 0.127909
vn -0.991786 -0.000000 0.127909
vn -0.909670 -0.000001 0.415331
vn -0.909670 -0.000001 0.415331
vn -0.746272 -0.000001 0.665641
vn -0.746272 -0.000001 0.665641
vn -0.033087 0.013345 0.999363
vn -0.005475 -0.022896 0.999723
vn -0.033087 0.013345 0.999363
vn -0.005475 -0.022896 0.999723
vn 0.011080 -0.029560 0.999502
vn 0.011080 -0.029560 0.999502
vn 0.019955 0.008119 0.999768
vn 0.019955 0.008119 0.999768
vn 0.039900 0.016236 0.999072
vn 0.039900 0.016236 0.999072
vn -0.110797 -0.992289 -0.055553
vn -0.219885 -0.969276 -0.110248
vn -0.219885 -0.969276 -0.110248
vn -0.110797 -0.992289 -0.055553
vn 0.003033 -0.997501 0.070591
vn 0.003033 -0.997501 0.070591
vn 0.005237 -0.999955 0.007927
vn 0.005237 -0.999955 0.007927
vn 0.004329 -0.992133 -0.125117
vn 0.004329 -0.992133 -0.125117
vn -0.910908 -0.412578 -0.005017
vn -0.910908 -0.412578 -0.005017
vn -0.910908 -0.412578 -0.005017
vn -0.910908 -0.412578 -0.005017
vn 0.916440 0.400153 0.003994
vn 0.916440 0.400153 0.003994
vn 0.916440 0.400153 0.003994
vn 0.916440 0.400153 0.003994
vn 0.869273 -0.494299 -0.005843
vn 0.616720 -0.786085 0.041545
vn 0.869273 -0.494299 -0.005843
vn 0.616720 -0.786085 0.041545
vn 0.136878 -0.989707 0.041756
vn 0.136878 -0.989707 0.041756
vn -0.014845 -0.999868 0.006658
vn -0.014845 -0.999868 0.006658
vn 0.043292 -0.998873 0.019452
vn 0.043292 -0.998873 0.019452
vn 0.116038 -0.992918 0.025484
vn 0.116038 -0.992918 0.025484
vn -0.859788 0.510599 0.007313
vn -0.859788 0.510599 0.007313
vn -0.859788 0.510599 0.007313
vn -0.859788 0.510599 0.007313
vn -0.073103 -0.029748 -0.996881
vn -0.145748 -0.059311 -0.987542
vn -0.145748 -0.059311 -0.987542
vn -0.073103 -0.029748 -0.996881
vn -0.011080 0.029560 -0.999502
vn -0.011080 0.029560 -0.999502
vn -0.040190 0.041297 -0.998338
vn -0.040190 0.041297 -0.998338
vn -0.058205 0.023478 -0.998029
vn -0.058205 0.023478 -0.998029
vn 0.999970 -0.000000 0.007756
vn 0.999970 -0.000000 0.007756
vn 0.999970 -0.000000 0.007756
vn 0.999970 -0.000000 0.007756
vn -0.026130 -0.000001 0.999659
vn 0.017736 -0.000001 0.999843
vn -0.026130 -0.000001 0.999659
vn 0.017736 -0.000001 0.999843
vn 0.061568 -0.000001 0.998103
vn -0.019333 0.000001 -0.999813
vn 0.046628 0.000001 -0.998912
vn -0.019333 0.000001 -0.999813
vn 0.046628 0.000001 -0.998912
vn 0.112387 0.000001 -0.993665
vn 0.129608 0.989619 0.062092
vn 0.256525 0.958693 0.122894
vn 0.256525 0.958693 0.122894
vn 0.129608 0.989619 0.062092
vn 0.003034 0.997501 0.070593
vn 0.003034 0.997501 0.070593
vn 0.005237 0.999955 0.007929
vn 0.005237 0.999955 0.007929
vn 0.004329 0.992133 -0.125114
vn 0.004329 0.992133 -0.125114
vn 0.999822 0.000000 -0.018889
vn 0.999822 0.000000 -0.018889
vn 0.953082 0.000000 -0.302714
vn 0.953082 0.000000 -0.302714
vn 0.936786 0.000000 -0.349902
vn 0.936786 0.000000 -0.349902
vn 0.992958 0.000000 -0.118467
vn 0.992958 0.000000 -0.118467
vn -0.235343 0.969585 -0.067223
vn -0.235343 0.969585 -0.067223
vn -0.118577 0.992367 -0.033869
vn -0.118577 0.992367 -0.033869
vn 0.051309 0.998418 -0.023015
vn 0.051309 0.998418 -0.023015
vn 0.080167 0.996642 -0.016647
vn 0.080167 0.996642 -0.016647
vn 0.057768 0.998249 0.012689
vn 0.057768 0.998249 0.012689
vn -0.999983 -0.000000 0.005749
vn -0.999983 -0.000000 0.005749
vn -0.999983 -0.000000 0.005749
vn -0.999983 -0.000000 0.005749
vn 0.101739 0.000001 -0.994811
vn 0.101739 0.000001 -0.994811
vn 0.101739 0.000001 -0.994811
vn 0.101739 0.000001 -0.994811
vn -0.694711 0.000001 -0.719289
vn -0.694711 0.000001 -0.719289
vn -0.694711 0.000001 -0.719289
vn -0.694711 0.000001 -0.719289
vn -0.678333 0.000001 -0.734754
vn -0.678333 0.000001 -0.734754
vn -0.678333 0.000001 -0.734754
vn -0.678333 0.000001 -0.734754
vn -0.678333 0.000001 -0.734754
vn -0.678333 0.000001 -0.734754
vn -0.678333 0.000001 -0.734754
vn -0.678333 0.000001 -0.734754
vn -0.931503 0.000000 -0.363734
vn -0.931503 0.000000 -0.363734
vn -0.931503 0.000000 -0.363734
vn -0.931503 0.000000 -0.363734
vn -0.931503 0.000000 -0.363734
vn -0.931503 0.000000 -0.363734
f 1/1/1 2/2/2 3/3/3
f 1/1/1 3/3/3 4/4/4
f 3/3/3 5/5/5 4/4/4
f 3/3/3 6/6/6 5/5/5
f 7/7/7 8/8/8 9/9/9
f 7/7/7 10/10/10 8/8/8
f 10/10/10 11/11/11 8/8/8
f 10/10/10 12/12/12 11/11/11
f 12/12/12 13/13/13 11/11/11
f 12/12/12 14/14/14 13/13/13
f 14/14/14 15/15/15 13/13/13
f 14/14/14 16/16/16 15/15/15
f 17/17/17 18/18/18 19/19/19
f 17/17/17 19/19/19 20/20/20
f 21/21/21 17/17/17 20/20/20
f 21/21/21 22/22/22 17/17/17
f 21/21/21 23/23/23 22/22/22
f 21/21/21 24/24/24 23/23/23
f 24/24/24 25/25/25 23/23/23
f 24/24/24 26/26/26 25/25/25
f 27/27/27 28/28/28 29/29/29
f 27/27/27 29/29/29 30/30/30
f 31/31/31 32/32/32 33/33/33
f 31/31/31 33/33/33 34/34/34
f 35/35/35 36/36/36 37/37/37
f 35/35/35 38/38/38 36/36/36
f 38/38/38 39/39/39 36/36/36
f 38/38/38 40/40/40 39/39/39
f 40/40/40 41/41/41 39/39/39
f 40/40/40 42/42/42 41/41/41
f 42/42/42 43/43/43 41/41/41
f 42/42/42 44/44/44 43/43/43
f 44/44/44 45/45/45 43/43/43
f 44/44/44 46/46/46 45/45/45
f 47/47/47 48/48/48 49/49/49
f 47/47/47 49/49/49 50/50/50
f 51/51/51 52/52/52 53/53/53
f 51/51/51 53/53/53 54/54/54
f 55/55/55 51/51/51 54/54/54
f 55/55/55 54/54/54 56/56/56
f 57/57/57 55/55/55 56/56/56
f 57/57/57 56/56/56 58/58/58
f 59/59/59 57/57/57 58/58/58
f 59/59/59 58/58/58 60/60/60
f 61/61/61 62/62/62 63/63/63
f 61/61/61 63/63/63 64/64/64
f 65/65/65 66/66/66 67/67/67
f 65/65/65 68/68/68 66/66/66
f 68/68/68 69/69/69 66/66/66
f 70/70/70 71/71/71 72/72/72
f 70/70/70 73/73/73 71/71/71
f 73/73/73 74/74/74 71/71/71
f 75/75/75 76/76/76 77/77/77
f 75/75/75 77/77/77 78/78/78
f 75/75/75 78/78/78 79/79/79
f 75/75/75 79/79/79 80/80/80
f 79/79/79 81/81/81 80/80/80
f 79/79/79 82/82/82 81/81/81
f 82/82/82 83/83/83 81/81/81
f 82/82/82 84/84/84 83/83/83
f 85/85/85 86/86/86 87/87/87
f 85/85/85 87/87/87 88/88/88
f 87/87/87 89/89/89 88/88/88
f 87/87/87 90/90/90 89/89/89
f 90/90/90 91/91/91 89/89/89
f 90/90/90 92/92/92 91/91/91
f 93/93/93 94/94/94 95/95/95
f 93/93/93 95/95/95 96/96/96
f 95/95/95 97/97/97 96/96/96
f 95/95/95 98/98/98 97/97/97
f 98/98/98 99/99/99 97/97/97
f 98/98/98 100/100/100 99/99/99
f 100/100/100 101/101/101 99/99/99
f 100/100/100 102/102/102 101/101/101
f 103/103/103 104/104/104 105/105/105
f 103/103/103 105/105/105 106/106/106
f 107/107/107 108/108/108 109/109/109
f 107/107/107 109/109/109 110/110/110
f 111/111/111 112/112/112 113/113/113
f 111/111/111 113/113/113 114/114/114
f 115/115/115 116/116/116 117/117/117
f 115/115/115 117/117/117 118/118/118
f 119/119/119 120/120/120 121/121/121
f 119/119/119 121/121/121 122/122/122
f 123/123/123 124/124/124 125/125/125
f 123/123/123 126/126/126 124/124/124
f 127/127/127 126/126/126 123/123/123
f 127/127/127 128/128/128 126/126/126
