# sombrero_hat (gear rip -> Godot: Z negated + winding reversed)
v -0.180337 -0.180337 -0.359085
v -0.169869 -0.169869 -0.465079
v 0.169869 -0.169869 -0.465079
v 0.180337 -0.180337 -0.359085
v -0.201273 0.503183 -0.168896
v -0.400319 0.400319 -0.197097
v -0.400319 0.400319 -0.094087
v -0.201273 0.503183 -0.065886
v 0.201273 0.503183 -0.065886
v 0.201273 0.503183 -0.168896
v 0.400319 0.400319 -0.197097
v 0.400319 0.400319 -0.094087
v 0.201273 0.503183 -0.168896
v 0.400319 0.400319 -0.197097
v 0.503183 0.201273 -0.211111
v 0.201273 0.201273 -0.147097
v 0.503183 -0.201273 -0.211111
v -0.201273 0.201273 -0.147097
v 0.201273 -0.201273 -0.147097
v -0.201273 0.503183 -0.168896
v -0.400319 0.400319 -0.197097
v -0.503183 0.201273 -0.211111
v 0.400319 -0.400319 -0.197097
v 0.201273 -0.503183 -0.168896
v -0.201273 -0.201273 -0.147097
v -0.201273 -0.503183 -0.168896
v -0.503183 -0.201273 -0.211111
v -0.400319 -0.400319 -0.197097
v 0.201273 -0.503183 -0.168896
v 0.400319 -0.400319 -0.197097
v 0.400319 -0.400319 -0.094087
v 0.201273 -0.503183 -0.065886
v -0.201273 -0.503183 -0.065886
v -0.201273 -0.503183 -0.168896
v -0.400319 -0.400319 -0.197097
v -0.400319 -0.400319 -0.094087
v 0.503183 -0.201273 -0.108101
v 0.400319 -0.400319 -0.094087
v 0.400319 -0.400319 -0.197097
v 0.503183 -0.201273 -0.211111
v 0.503183 0.201273 -0.211111
v 0.503183 0.201273 -0.108101
v 0.400319 0.400319 -0.094087
v 0.400319 0.400319 -0.197097
v -0.503183 0.201273 -0.108101
v -0.400319 0.400319 -0.094087
v -0.400319 0.400319 -0.197097
v -0.503183 0.201273 -0.211111
v -0.503183 -0.201273 -0.211111
v -0.503183 -0.201273 -0.108101
v -0.400319 -0.400319 -0.094087
v -0.400319 -0.400319 -0.197097
v -0.201273 0.503183 -0.065886
v -0.400319 0.400319 -0.094087
v -0.503183 0.201273 -0.108101
v -0.201273 0.201273 -0.094087
v -0.503183 -0.201273 -0.108101
v 0.201273 0.201273 -0.094087
v 0.201273 0.503183 -0.065886
v 0.400319 0.400319 -0.094087
v 0.503183 0.201273 -0.108101
v -0.201273 -0.201273 -0.094087
v -0.400319 -0.400319 -0.094087
v -0.201273 -0.503183 -0.065886
v 0.201273 -0.503183 -0.065886
v 0.201273 -0.201273 -0.094087
v 0.503183 -0.201273 -0.108101
v 0.400319 -0.400319 -0.094087
v 0.169869 -0.169869 -0.465079
v -0.169869 -0.169869 -0.465079
v -0.169869 0.169869 -0.465079
v 0.169869 0.169869 -0.465079
v 0.180337 -0.180337 -0.359085
v 0.169869 -0.169869 -0.465079
v 0.169869 0.169869 -0.465079
v 0.180337 0.180337 -0.359085
v 0.180337 0.180337 -0.359085
v 0.169869 0.169869 -0.465079
v -0.169869 0.169869 -0.465079
v -0.180337 0.180337 -0.359085
v -0.180337 0.180337 -0.359085
v -0.169869 0.169869 -0.465079
v -0.169869 -0.169869 -0.465079
v -0.180337 -0.180337 -0.359085
v -0.201273 0.201273 -0.147097
v -0.190805 0.190805 -0.253091
v -0.190805 -0.190805 -0.253091
v -0.201273 -0.201273 -0.147097
v -0.190805 0.190805 -0.253091
v -0.180337 0.180337 -0.359085
v -0.180337 -0.180337 -0.359085
v -0.190805 -0.190805 -0.253091
v 0.201273 0.201273 -0.147097
v 0.190805 0.190805 -0.253091
v -0.190805 0.190805 -0.253091
v -0.201273 0.201273 -0.147097
v 0.201273 -0.201273 -0.147097
v 0.190805 -0.190805 -0.253091
v 0.190805 0.190805 -0.253091
v 0.201273 0.201273 -0.147097
v 0.190805 -0.190805 -0.253091
v 0.180337 -0.180337 -0.359085
v 0.180337 0.180337 -0.359085
v 0.190805 0.190805 -0.253091
v -0.201273 -0.201273 -0.147097
v -0.190805 -0.190805 -0.253091
v 0.190805 -0.190805 -0.253091
v 0.201273 -0.201273 -0.147097
v -0.190805 -0.190805 -0.253091
v -0.180337 -0.180337 -0.359085
v 0.180337 -0.180337 -0.359085
v 0.190805 -0.190805 -0.253091
v 0.190805 0.190805 -0.253091
v 0.180337 0.180337 -0.359085
v -0.180337 0.180337 -0.359085
v -0.190805 0.190805 -0.253091
vt 0.405084312 0.790613413
vt 0.404297829 0.790665388
vt 0.404297829 0.792546749
vt 0.405084312 0.792610765
vt 1.00278187 0.488418013
vt 1.5 0.488418013
vt 1.5 0.262237728
vt 1.00278187 0.262237728
vt -0.0027821362 0.262237728
vt -0.00278237462 0.488418013
vt -0.5 0.488418013
vt -0.5 0.262237728
vt 0.404883742 0.790509582
vt 0.406887829 0.789932847
vt 0.40792352 0.78881669
vt 0.404883742 0.78881669
vt 0.40792352 0.786559463
vt 0.400830746 0.78881669
vt 0.404883742 0.786559463
vt 0.400830746 0.790509582
vt 0.398826599 0.789932847
vt 0.397790968 0.78881669
vt 0.406887829 0.785443306
vt 0.404883742 0.784866571
vt 0.400830746 0.786559463
vt 0.400830746 0.784866571
vt 0.397790968 0.786559463
vt 0.398826599 0.785443306
vt 1.00278187 0.488418013
vt 1.5 0.488418013
vt 1.5 0.262237728
vt 1.00278187 0.262237728
vt -0.0027821362 0.262237728
vt -0.0027821362 0.488418013
vt -0.5 0.488418013
vt -0.5 0.262237728
vt -0.0027821362 0.262237698
vt -0.5 0.262237698
vt -0.5 0.488418013
vt -0.0027821362 0.488418013
vt 1.00278187 0.488418013
vt 1.00278187 0.262237698
vt 1.5 0.262237698
vt 1.5 0.488418013
vt -0.00278189778 0.262237698
vt -0.5 0.262237698
vt -0.5 0.488417923
vt -0.0027821362 0.488418013
vt 1.00278187 0.488418013
vt 1.00278211 0.262237698
vt 1.5 0.262237728
vt 1.5 0.488418013
vt 0.410963297 0.784866571
vt 0.40895921 0.785443306
vt 0.40792352 0.786559463
vt 0.410963297 0.786559463
vt 0.40792352 0.78881669
vt 0.415016353 0.786559463
vt 0.415016353 0.784866571
vt 0.41702044 0.785443306
vt 0.41805613 0.786559463
vt 0.410963297 0.78881669
vt 0.40895921 0.789932847
vt 0.410963297 0.790509582
vt 0.415016353 0.790509582
vt 0.415016353 0.78881669
vt 0.41805613 0.78881669
vt 0.41702044 0.789932847
vt 0.411344171 0.790509582
vt 0.40792352 0.790509582
vt 0.40792352 0.792414665
vt 0.411344171 0.792414665
vt 0.412917167 0.792610765
vt 0.41370368 0.792546749
vt 0.41370368 0.790665388
vt 0.412917167 0.790613413
vt 0.400639236 0.792649508
vt 0.401424944 0.792590737
vt 0.401424944 0.790685773
vt 0.400639236 0.790627003
vt 0.402211428 0.790613413
vt 0.401424944 0.790665388
vt 0.401424944 0.792546749
vt 0.402211428 0.792610765
vt 0.403784454 0.790509582
vt 0.402997941 0.790561557
vt 0.402997941 0.79267478
vt 0.403784454 0.792738795
vt 0 0.0128278285
vt 0.0274307132 0.237827718
vt 0.972569108 0.237827823
vt 1 0.0128279626
vt 0.399067879 0.792766809
vt 0.399853557 0.792708158
vt 0.399853557 0.790568352
vt 0.399067879 0.790509582
vt 0.411344171 0.792738795
vt 0.412130654 0.79267478
vt 0.412130654 0.790561557
vt 0.411344171 0.790509582
vt 0 0.0128279105
vt 0.0274307728 0.237827823
vt 0.972569168 0.237827823
vt 0.99999994 0.0128278583
vt 0.406657338 0.790509582
vt 0.405870825 0.790561557
vt 0.405870825 0.79267478
vt 0.406657338 0.792738795
vt 0 0.0128278807
vt 0.027430892 0.237827823
vt 0.972569108 0.237827823
vt 1 0.0128278583
vt 5.96046448E-08 0.0128279105
vt 0.027430892 0.237827823
vt 0.972569227 0.237827823
vt 1 0.0128278583
vn -0.000000 -0.995159 -0.098281
vn -0.000000 -0.995159 -0.098281
vn -0.000000 -0.995159 -0.098281
vn -0.000000 -0.995159 -0.098281
vn -0.236239 0.971695 -0.000000
vn -0.707107 0.707107 -0.000000
vn -0.707107 0.707107 -0.000000
vn -0.236239 0.971695 -0.000000
vn 0.236239 0.971695 -0.000000
vn 0.236239 0.971695 -0.000000
vn 0.707107 0.707107 -0.000000
vn 0.707107 0.707107 -0.000000
vn -0.096247 -0.063591 -0.993324
vn -0.191594 -0.054570 -0.979956
vn -0.199587 -0.027296 -0.979500
vn -0.133668 -0.042406 -0.990119
vn -0.199587 0.027296 -0.979500
vn 0.133668 -0.042406 -0.990119
vn -0.133668 0.042406 -0.990119
vn 0.096247 -0.063591 -0.993324
vn 0.191594 -0.054570 -0.979956
vn 0.199587 -0.027296 -0.979500
vn -0.191594 0.054570 -0.979956
vn -0.096247 0.063591 -0.993324
vn 0.133668 0.042406 -0.990119
vn 0.096247 0.063591 -0.993324
vn 0.199587 0.027296 -0.979500
vn 0.191594 0.054570 -0.979956
vn 0.236239 -0.971695 -0.000000
vn 0.707107 -0.707107 -0.000000
vn 0.707107 -0.707107 -0.000000
vn 0.236239 -0.971695 -0.000000
vn -0.236239 -0.971695 -0.000000
vn -0.236239 -0.971695 -0.000000
vn -0.707107 -0.707107 -0.000000
vn -0.707107 -0.707107 -0.000000
vn 0.971695 -0.236239 -0.000000
vn 0.707107 -0.707107 -0.000000
vn 0.707107 -0.707107 -0.000000
vn 0.971695 -0.236239 -0.000000
vn 0.971695 0.236239 -0.000000
vn 0.971695 0.236239 -0.000000
vn 0.707107 0.707107 -0.000000
vn 0.707107 0.707107 -0.000000
vn -0.971695 0.236239 -0.000000
vn -0.707107 0.707107 -0.000000
vn -0.707107 0.707107 -0.000000
vn -0.971695 0.236239 -0.000000
vn -0.971695 -0.236239 -0.000000
vn -0.971695 -0.236239 -0.000000
vn -0.707107 -0.707107 -0.000000
vn -0.707107 -0.707107 -0.000000
vn -0.034810 -0.081344 0.996078
vn -0.069574 -0.069574 0.995148
vn -0.058010 -0.034810 0.997709
vn -0.029024 -0.040698 0.998750
vn -0.058010 0.034810 0.997709
vn 0.029024 -0.040698 0.998750
vn 0.034810 -0.081344 0.996078
vn 0.069574 -0.069574 0.995148
vn 0.058010 -0.034810 0.997709
vn -0.029024 0.040698 0.998750
vn -0.069574 0.069574 0.995148
vn -0.034810 0.081344 0.996078
vn 0.034810 0.081344 0.996078
vn 0.029024 0.040698 0.998750
vn 0.058010 0.034810 0.997709
vn 0.069574 0.069574 0.995148
vn -0.000000 0.000000 -1.000000
vn -0.000000 0.000000 -1.000000
vn -0.000000 0.000000 -1.000000
vn -0.000000 0.000000 -1.000000
vn 0.995159 0.000000 -0.098281
vn 0.995159 0.000000 -0.098281
vn 0.995159 0.000000 -0.098281
vn 0.995159 0.000000 -0.098281
vn -0.000000 0.995159 -0.098281
vn -0.000000 0.995159 -0.098281
vn -0.000000 0.995159 -0.098281
vn -0.000000 0.995159 -0.098281
vn -0.995159 0.000000 -0.098281
vn -0.995159 0.000000 -0.098281
vn -0.995159 0.000000 -0.098281
vn -0.995159 0.000000 -0.098281
vn -0.995159 0.000000 -0.098281
vn -0.995159 0.000000 -0.098281
vn -0.995159 0.000000 -0.098281
vn -0.995159 0.000000 -0.098281
vn -0.995159 0.000000 -0.098281
vn -0.995159 0.000000 -0.098281
vn -0.995159 0.000000 -0.098281
vn -0.995159 0.000000 -0.098281
vn -0.000000 0.995159 -0.098281
vn -0.000000 0.995159 -0.098281
vn -0.000000 0.995159 -0.098281
vn -0.000000 0.995159 -0.098281
vn 0.995159 0.000000 -0.098281
vn 0.995159 0.000000 -0.098281
vn 0.995159 0.000000 -0.098281
vn 0.995159 0.000000 -0.098281
vn 0.995159 0.000000 -0.098281
vn 0.995159 0.000000 -0.098281
vn 0.995159 0.000000 -0.098281
vn 0.995159 0.000000 -0.098281
vn -0.000000 -0.995159 -0.098281
vn -0.000000 -0.995159 -0.098281
vn -0.000000 -0.995159 -0.098281
vn -0.000000 -0.995159 -0.098281
vn -0.000000 -0.995159 -0.098281
vn -0.000000 -0.995159 -0.098281
vn -0.000000 -0.995159 -0.098281
vn -0.000000 -0.995159 -0.098281
vn -0.000000 0.995159 -0.098281
vn -0.000000 0.995159 -0.098281
vn -0.000000 0.995159 -0.098281
vn -0.000000 0.995159 -0.098281
f 1/1/1 2/2/2 3/3/3
f 1/1/1 3/3/3 4/4/4
f 5/5/5 6/6/6 7/7/7
f 5/5/5 7/7/7 8/8/8
f 5/5/5 8/8/8 9/9/9
f 5/5/5 9/9/9 10/10/10
f 9/9/9 11/11/11 10/10/10
f 9/9/9 12/12/12 11/11/11
f 13/13/13 14/14/14 15/15/15
f 13/13/13 15/15/15 16/16/16
f 16/16/16 15/15/15 17/17/17
f 18/18/18 13/13/13 16/16/16
f 16/16/16 17/17/17 19/19/19
f 18/18/18 20/20/20 13/13/13
f 18/18/18 21/21/21 20/20/20
f 18/18/18 22/22/22 21/21/21
f 19/19/19 17/17/17 23/23/23
f 19/19/19 23/23/23 24/24/24
f 25/25/25 22/22/22 18/18/18
f 19/19/19 24/24/24 26/26/26
f 19/19/19 26/26/26 25/25/25
f 25/25/25 27/27/27 22/22/22
f 26/26/26 27/27/27 25/25/25
f 26/26/26 28/28/28 27/27/27
f 29/29/29 30/30/30 31/31/31
f 29/29/29 31/31/31 32/32/32
f 29/29/29 32/32/32 33/33/33
f 29/29/29 33/33/33 34/34/34
f 33/33/33 35/35/35 34/34/34
f 33/33/33 36/36/36 35/35/35
f 37/37/37 38/38/38 39/39/39
f 37/37/37 39/39/39 40/40/40
f 41/41/41 37/37/37 40/40/40
f 41/41/41 42/42/42 37/37/37
f 41/41/41 43/43/43 42/42/42
f 41/41/41 44/44/44 43/43/43
f 45/45/45 46/46/46 47/47/47
f 45/45/45 47/47/47 48/48/48
f 49/49/49 45/45/45 48/48/48
f 49/49/49 50/50/50 45/45/45
f 49/49/49 51/51/51 50/50/50
f 49/49/49 52/52/52 51/51/51
f 53/53/53 54/54/54 55/55/55
f 53/53/53 55/55/55 56/56/56
f 56/56/56 55/55/55 57/57/57
f 58/58/58 53/53/53 56/56/56
f 58/58/58 59/59/59 53/53/53
f 58/58/58 60/60/60 59/59/59
f 58/58/58 61/61/61 60/60/60
f 56/56/56 57/57/57 62/62/62
f 62/62/62 58/58/58 56/56/56
f 62/62/62 57/57/57 63/63/63
f 62/62/62 63/63/63 64/64/64
f 62/62/62 64/64/64 65/65/65
f 66/66/66 61/61/61 58/58/58
f 62/62/62 66/66/66 58/58/58
f 62/62/62 65/65/65 66/66/66
f 66/66/66 67/67/67 61/61/61
f 65/65/65 67/67/67 66/66/66
f 65/65/65 68/68/68 67/67/67
f 69/69/69 70/70/70 71/71/71
f 69/69/69 71/71/71 72/72/72
f 73/73/73 74/74/74 75/75/75
f 73/73/73 75/75/75 76/76/76
f 77/77/77 78/78/78 79/79/79
f 77/77/77 79/79/79 80/80/80
f 81/81/81 82/82/82 83/83/83
f 81/81/81 83/83/83 84/84/84
f 85/85/85 86/86/86 87/87/87
f 85/85/85 87/87/87 88/88/88
f 89/89/89 90/90/90 91/91/91
f 89/89/89 91/91/91 92/92/92
f 93/93/93 94/94/94 95/95/95
f 93/93/93 95/95/95 96/96/96
f 97/97/97 98/98/98 99/99/99
f 97/97/97 99/99/99 100/100/100
f 101/101/101 102/102/102 103/103/103
f 101/101/101 103/103/103 104/104/104
f 105/105/105 106/106/106 107/107/107
f 105/105/105 107/107/107 108/108/108
f 109/109/109 110/110/110 111/111/111
f 109/109/109 111/111/111 112/112/112
f 113/113/113 114/114/114 115/115/115
f 113/113/113 115/115/115 116/116/116
