# squid_head_mask (gear rip -> Godot: Z negated + winding reversed)
v -0.350414 -0.045943 -0.266695
v -0.350414 -0.140122 -0.224522
v -0.475028 -0.045943 -0.224522
v -0.350414 0.038307 -0.266695
v -0.475028 0.038307 -0.224522
v -0.350414 0.131049 -0.224522
v -0.245558 0.071946 -0.248933
v -0.350414 0.038307 -0.266695
v -0.350414 0.131049 -0.224522
v -0.350414 -0.045943 -0.266695
v -0.247449 -0.107101 -0.250701
v -0.350414 -0.140122 -0.224522
v -0.221531 -0.298229 -0.133810
v -0.220081 -0.375936 -0.055484
v -0.221531 -0.298229 -0.000273
v -0.544968 0.147621 -0.224522
v -0.475028 0.147621 -0.224522
v -0.475028 0.131049 -0.224522
v -0.650298 0.216835 -0.224522
v -0.650298 0.216835 0.224522
v -0.216007 0.216835 0.224522
v -0.350414 0.216835 0.040925
v -0.216007 0.216835 0.040925
v -0.350414 0.216835 -0.092612
v -0.350414 0.216835 -0.224522
v -0.475028 0.216835 -0.224522
v -0.146142 0.072069 -0.113943
v -0.104301 0.181890 -0.113943
v -0.245558 0.204336 -0.113943
v -0.245558 0.071946 -0.113943
v 0.018172 -0.143439 -0.224814
v 0.083584 -0.174253 -0.223621
v 0.074665 -0.217915 -0.221125
v 0.003632 -0.214611 -0.220746
v -0.475028 -0.045943 -0.224522
v -0.350414 -0.140122 -0.224522
v -0.350414 -0.156476 -0.224522
v -0.475028 -0.156476 -0.224522
v -0.350414 -0.226162 -0.224522
v -0.650298 -0.226162 -0.224522
v -0.544968 -0.156476 -0.224522
v -0.650298 0.216835 -0.224522
v -0.544968 -0.140122 -0.224522
v -0.544968 -0.076022 -0.224522
v -0.475028 -0.076022 -0.224522
v -0.475028 -0.140122 -0.224522
v -0.544968 0.072365 -0.224522
v -0.475028 0.038307 -0.224522
v -0.544968 0.131049 -0.224522
v -0.544968 0.147621 -0.224522
v -0.475028 0.072365 -0.224522
v -0.475028 0.147621 -0.224522
v -0.475028 0.131049 -0.224522
v -0.475028 0.216835 -0.224522
v -0.350414 0.131049 -0.224522
v -0.350414 0.216835 -0.224522
v -0.350414 -0.045943 -0.224522
v -0.350414 -0.045943 -0.266695
v -0.350414 0.038307 -0.266695
v -0.350414 0.038307 -0.224522
v -0.475028 0.038307 -0.224522
v -0.350414 0.038307 -0.266695
v -0.350414 -0.045943 -0.266695
v -0.475028 -0.045943 -0.224522
v -0.350414 0.216835 -0.224522
v -0.350414 0.216835 -0.092612
v -0.245558 0.204336 -0.113943
v -0.104301 0.181890 -0.113943
v -0.104301 0.181890 -0.249950
v -0.245558 0.204336 -0.247119
v -0.650298 0.216835 0.224522
v -0.650298 -0.226162 0.224522
v -0.216007 -0.226162 0.224522
v -0.216007 0.216835 0.224522
v -0.350414 0.038307 -0.224522
v -0.210035 0.162121 -0.224522
v -0.210035 -0.169757 -0.224522
v -0.350414 -0.045943 -0.224522
v -0.234102 -0.112364 -0.092612
v -0.112255 -0.193415 -0.133810
v -0.113749 -0.277241 -0.153343
v -0.221531 -0.298229 -0.133810
v -0.290900 -0.252725 -0.092612
v -0.106248 -0.216171 -0.257146
v -0.066164 -0.189042 -0.259178
v -0.066164 -0.189042 -0.118306
v -0.106248 -0.216171 -0.113035
v -0.247449 -0.107101 -0.092612
v -0.148766 -0.116947 -0.113035
v -0.148766 -0.116947 -0.257147
v -0.247449 -0.107101 -0.250701
v 0.018172 -0.143439 -0.224814
v 0.003632 -0.214611 -0.220746
v -0.066164 -0.189042 -0.259178
v -0.044265 -0.085815 -0.259179
v -0.148766 -0.116947 -0.113035
v -0.044265 -0.085815 -0.118306
v -0.044265 -0.085815 -0.259179
v -0.148766 -0.116947 -0.257147
v 0.044338 -0.143439 -0.131278
v 0.099637 -0.174253 -0.166239
v 0.083584 -0.174253 -0.223621
v 0.018172 -0.143439 -0.224814
v -0.066164 -0.189042 -0.259178
v 0.003632 -0.214611 -0.220746
v 0.029798 -0.214611 -0.127210
v -0.066164 -0.189042 -0.118306
v -0.044265 -0.085815 -0.118306
v 0.044338 -0.143439 -0.131278
v 0.018172 -0.143439 -0.224814
v -0.044265 -0.085815 -0.259179
v 0.101480 0.054802 -0.204042
v 0.102664 0.055369 -0.262385
v 0.098498 0.106006 -0.262417
v 0.097305 0.105435 -0.203635
v -0.148766 -0.116947 -0.257147
v -0.044265 -0.085815 -0.259179
v -0.066164 -0.189042 -0.259178
v -0.106248 -0.216171 -0.257146
v -0.247449 -0.226162 -0.250700
v -0.247449 -0.107101 -0.250701
v 0.003632 -0.214611 -0.220746
v 0.074665 -0.217915 -0.221125
v 0.090717 -0.217915 -0.163744
v 0.029798 -0.214611 -0.127210
v -0.350414 -0.045943 0.040925
v -0.234102 -0.112364 0.040925
v -0.112255 -0.193415 -0.000273
v -0.350414 -0.045943 -0.092612
v -0.234102 -0.112364 -0.092612
v -0.112255 -0.193415 -0.133810
v -0.146142 0.072069 -0.113943
v 0.031797 0.033966 -0.194597
v 0.052475 0.113209 -0.205665
v -0.104301 0.181890 -0.113943
v 0.016496 0.125030 -0.272882
v 0.098498 0.106006 -0.262417
v 0.102664 0.055369 -0.262385
v -0.003913 0.033966 -0.261311
v -0.104301 0.181890 -0.113943
v 0.052475 0.113209 -0.205665
v 0.016496 0.125030 -0.272882
v -0.104301 0.181890 -0.249950
v 0.052475 0.113209 -0.205665
v 0.097305 0.105435 -0.203635
v 0.098498 0.106006 -0.262417
v 0.016496 0.125030 -0.272882
v -0.146142 0.072069 -0.248933
v -0.104301 0.181890 -0.249950
v 0.016496 0.125030 -0.272882
v -0.003913 0.033966 -0.261311
v -0.003913 0.033966 -0.261311
v 0.102664 0.055369 -0.262385
v 0.101480 0.054802 -0.204042
v 0.031797 0.033966 -0.194597
v 0.031797 0.033966 -0.194597
v -0.146142 0.072069 -0.113943
v -0.146142 0.072069 -0.248933
v -0.003913 0.033966 -0.261311
v -0.245558 0.071946 -0.248933
v -0.245558 0.204336 -0.247119
v -0.104301 0.181890 -0.249950
v -0.146142 0.072069 -0.248933
v -0.265641 0.252581 -0.083570
v -0.171271 0.180596 -0.078294
v -0.216749 0.100097 -0.083570
v -0.350414 0.038307 -0.092612
v -0.350414 0.216835 -0.092612
v -0.350414 -0.045943 -0.224522
v -0.350414 -0.045943 -0.092612
v -0.247449 -0.107101 -0.092612
v -0.247449 -0.107101 -0.250701
v -0.350414 -0.045943 -0.266695
v -0.350414 -0.045943 -0.092612
v -0.350414 -0.226162 -0.092612
v -0.247449 -0.226162 -0.092612
v -0.247449 -0.107101 -0.092612
v -0.210035 -0.169757 -0.092612
v -0.210035 0.162121 -0.092612
v -0.350414 0.038307 -0.092612
v -0.146142 0.072069 -0.248933
v -0.146142 0.072069 -0.113943
v -0.245558 0.071946 -0.113943
v -0.245558 0.071946 -0.248933
v -0.350414 0.216835 -0.092612
v -0.350414 0.038307 -0.092612
v -0.245558 0.071946 -0.113943
v -0.245558 0.204336 -0.113943
v -0.245558 0.071946 -0.113943
v -0.350414 0.038307 -0.092612
v -0.350414 0.038307 -0.224522
v -0.245558 0.071946 -0.248933
v -0.350414 0.038307 -0.266695
v -0.350414 0.216835 -0.224522
v -0.245558 0.204336 -0.247119
v -0.245558 0.071946 -0.248933
v -0.350414 0.131049 -0.224522
v -0.650298 -0.226162 -0.224522
v -0.650298 -0.226162 0.224522
v -0.650298 0.216835 0.224522
v -0.650298 0.216835 -0.224522
v -0.226174 0.360863 -0.069179
v -0.222093 0.317312 0.023851
v -0.133095 0.262268 0.017492
v -0.133095 0.291851 -0.069179
v -0.222615 0.390220 -0.171550
v -0.131468 0.339338 -0.171550
v -0.350414 0.038307 -0.092612
v -0.350414 0.038307 0.040925
v -0.350414 -0.045943 0.040925
v -0.350414 -0.045943 -0.092612
v -0.350414 -0.226162 -0.092612
v -0.290900 -0.252725 -0.092612
v -0.290900 -0.252725 0.040925
v -0.350414 -0.226162 0.040925
v 0.029798 -0.214611 -0.127210
v 0.044338 -0.143439 -0.131278
v -0.044265 -0.085815 -0.118306
v -0.066164 -0.189042 -0.118306
v -0.148766 -0.116947 -0.113035
v -0.106248 -0.216171 -0.113035
v -0.247449 -0.226162 -0.092612
v -0.247449 -0.107101 -0.092612
v -0.290900 -0.252725 0.040925
v -0.221531 -0.298229 -0.000273
v -0.112255 -0.193415 -0.000273
v -0.234102 -0.112364 0.040925
v -0.350414 -0.045943 -0.092612
v -0.234102 -0.112364 -0.092612
v -0.290900 -0.252725 -0.092612
v -0.350414 -0.226162 -0.092612
v -0.106248 -0.216171 -0.113035
v -0.247449 -0.226162 -0.092612
v -0.350414 -0.226162 -0.092612
v -0.650298 -0.226162 -0.224522
v -0.350414 -0.226162 0.040925
v -0.350414 -0.226162 -0.224522
v -0.106248 -0.216171 -0.257146
v -0.247449 -0.226162 -0.250700
v -0.650298 -0.226162 0.224522
v -0.216007 -0.226162 0.040925
v -0.216007 -0.226162 0.224522
v -0.112255 -0.193415 -0.000273
v -0.113749 -0.334568 -0.072839
v -0.113749 -0.277241 -0.153343
v -0.112255 -0.193415 -0.133810
v -0.290900 -0.252725 -0.092612
v -0.221531 -0.298229 -0.133810
v -0.221531 -0.298229 -0.000273
v -0.290900 -0.252725 0.040925
v -0.112255 -0.193415 -0.000273
v -0.221531 -0.298229 -0.000273
v -0.220081 -0.375936 -0.055484
v -0.113749 -0.334568 -0.072839
v -0.128764 -0.383014 -0.158899
v -0.211117 -0.407387 -0.176125
v -0.131927 -0.379579 -0.251548
v -0.057835 -0.354567 -0.238440
v -0.128764 -0.307560 -0.176455
v -0.067077 -0.301185 -0.251019
v -0.141169 -0.326198 -0.264126
v -0.211117 -0.331933 -0.193681
v -0.128764 -0.383014 -0.158899
v -0.057835 -0.354567 -0.238440
v -0.067077 -0.301185 -0.251019
v -0.128764 -0.307560 -0.176455
v -0.220081 -0.375936 -0.055484
v -0.221531 -0.298229 -0.133810
v -0.211117 -0.331933 -0.193681
v -0.211117 -0.407387 -0.176125
v -0.113749 -0.277241 -0.153343
v -0.113749 -0.334568 -0.072839
v -0.128764 -0.383014 -0.158899
v -0.128764 -0.307560 -0.176455
v -0.141169 -0.326198 -0.264126
v -0.067077 -0.301185 -0.251019
v -0.057835 -0.354567 -0.238440
v -0.131927 -0.379579 -0.251548
v -0.211117 -0.331933 -0.193681
v -0.141169 -0.326198 -0.264126
v -0.131927 -0.379579 -0.251548
v -0.211117 -0.407387 -0.176125
v -0.211117 -0.407387 -0.176125
v -0.128764 -0.383014 -0.158899
v -0.113749 -0.334568 -0.072839
v -0.220081 -0.375936 -0.055484
v -0.290900 -0.252725 0.040925
v -0.234102 -0.112364 0.040925
v -0.350414 -0.045943 0.040925
v -0.350414 -0.226162 0.040925
v -0.221531 -0.298229 -0.133810
v -0.113749 -0.277241 -0.153343
v -0.128764 -0.307560 -0.176455
v -0.211117 -0.331933 -0.193681
v -0.265641 0.252581 -0.083570
v -0.245342 0.288910 -0.184514
v -0.165808 0.256591 -0.179761
v -0.171271 0.180596 -0.078294
v -0.133095 0.262268 0.017492
v -0.216749 0.100097 0.031882
v -0.216749 0.100097 -0.083570
v -0.171271 0.180596 -0.078294
v -0.133095 0.291851 -0.069179
v -0.350414 0.038307 -0.092612
v -0.216749 0.100097 -0.083570
v -0.216749 0.100097 0.031882
v -0.350414 0.038307 0.040925
v -0.350414 0.216835 0.040925
v -0.273378 0.243684 0.031882
v -0.265641 0.252581 -0.083570
v -0.350414 0.216835 -0.092612
v -0.273378 0.243684 0.031882
v -0.222093 0.317312 0.023851
v -0.226174 0.360863 -0.069179
v -0.265641 0.252581 -0.083570
v -0.165808 0.256591 -0.179761
v -0.137171 0.289990 -0.222282
v -0.129115 0.377770 -0.199572
v -0.131468 0.339338 -0.171550
v -0.171271 0.180596 -0.078294
v -0.165808 0.256591 -0.179761
v -0.131468 0.339338 -0.171550
v -0.133095 0.291851 -0.069179
v -0.137171 0.289990 -0.222282
v -0.165808 0.256591 -0.179761
v -0.245342 0.288910 -0.184514
v -0.198637 0.337721 -0.270727
v -0.226174 0.360863 -0.069179
v -0.222615 0.390220 -0.171550
v -0.245342 0.288910 -0.184514
v -0.265641 0.252581 -0.083570
v -0.222615 0.390220 -0.171550
v -0.131468 0.339338 -0.171550
v -0.129115 0.377770 -0.199572
v -0.191995 0.423050 -0.244167
v -0.137171 0.289990 -0.222282
v -0.198637 0.337721 -0.270727
v -0.064160 0.354310 -0.303594
v -0.045940 0.317494 -0.248981
v -0.222615 0.390220 -0.171550
v -0.191995 0.423050 -0.244167
v -0.198637 0.337721 -0.270727
v -0.245342 0.288910 -0.184514
v -0.216749 0.100097 0.031882
v -0.133095 0.262268 0.017492
v -0.222093 0.317312 0.023851
v -0.350414 0.038307 0.040925
v -0.273378 0.243684 0.031882
v -0.350414 0.216835 0.040925
v -0.064160 0.354310 -0.303594
v -0.065806 0.418207 -0.284167
v -0.045085 0.383049 -0.231474
v -0.045940 0.317494 -0.248981
v -0.137171 0.289990 -0.222282
v -0.045940 0.317494 -0.248981
v -0.045085 0.383049 -0.231474
v -0.129115 0.377770 -0.199572
v -0.191995 0.423050 -0.244167
v -0.065806 0.418207 -0.284167
v -0.064160 0.354310 -0.303594
v -0.198637 0.337721 -0.270727
v -0.191995 0.423050 -0.244167
v -0.129115 0.377770 -0.199572
v -0.045085 0.383049 -0.231474
v -0.065806 0.418207 -0.284167
v 0.097305 0.105435 -0.203635
v 0.052475 0.113209 -0.205665
v 0.031797 0.033966 -0.194597
v 0.101480 0.054802 -0.204042
v -0.210035 0.162121 -0.224522
v -0.210035 0.162121 -0.092612
v -0.210035 -0.169757 -0.092612
v -0.210035 -0.169757 -0.224522
v -0.350414 0.038307 -0.092612
v -0.210035 0.162121 -0.092612
v -0.210035 0.162121 -0.224522
v -0.350414 0.038307 -0.224522
v -0.350414 -0.045943 -0.224522
v -0.210035 -0.169757 -0.224522
v -0.210035 -0.169757 -0.092612
v -0.350414 -0.045943 -0.092612
v -0.216007 0.216835 0.224522
v -0.216007 -0.226162 0.224522
v -0.216007 -0.226162 0.040925
v -0.216007 -0.208219 -0.128163
v -0.216007 0.198945 -0.128163
v -0.216007 0.216835 0.040925
v -0.350414 -0.208219 -0.128163
v -0.350414 -0.226162 0.040925
v -0.350414 -0.045943 0.040925
v -0.350414 0.198945 -0.128163
v -0.350414 0.038307 0.040925
v -0.350414 0.216835 0.040925
v -0.216007 0.216835 0.040925
v -0.216007 0.198945 -0.128163
v -0.350414 0.198945 -0.128163
v -0.350414 0.216835 0.040925
v -0.350414 -0.226162 0.040925
v -0.350414 -0.208219 -0.128163
v -0.216007 -0.208219 -0.128163
v -0.216007 -0.226162 0.040925
v 0.090717 -0.217915 -0.163744
v 0.074665 -0.217915 -0.221125
v 0.083584 -0.174253 -0.223621
v 0.099637 -0.174253 -0.166239
v -0.350414 0.198945 -0.128163
v -0.216007 0.198945 -0.128163
v -0.216007 -0.208219 -0.128163
v -0.350414 -0.208219 -0.128163
v -0.475028 0.131049 -0.224522
v -0.475028 0.072365 -0.224522
v -0.544968 0.147621 -0.224522
v -0.544968 0.072365 -0.224522
v -0.544968 0.131049 -0.224522
v -0.350414 -0.140122 -0.224522
v -0.247449 -0.107101 -0.250701
v -0.247449 -0.226162 -0.250700
v -0.350414 -0.226162 -0.224522
v -0.350414 -0.156476 -0.224522
v 0.044338 -0.143439 -0.131278
v 0.029798 -0.214611 -0.127210
v 0.090717 -0.217915 -0.163744
v 0.099637 -0.174253 -0.166239
v -0.544968 -0.076022 -0.224522
v -0.475028 -0.076022 -0.224522
v -0.475028 -0.140122 -0.224522
v -0.475028 -0.156476 -0.224522
v -0.544968 -0.156476 -0.224522
v -0.544968 -0.140122 -0.224522
vt 0.922313988 0.459565461
vt 0.922313988 0.459565461
vt 0.922313988 0.459565461
vt 0.922313988 0.459565461
vt 0.922313988 0.459565461
vt 0.922313988 0.459565461
vt 0.922313988 0.459565461
vt 0.922313988 0.459565461
vt 0.922313988 0.459565461
vt 0.922313988 0.459565461
vt 0.922313988 0.459565461
vt 0.922313988 0.459565461
vt 0.922313988 0.459565461
vt 0.922314048 0.459565461
vt 0.922314048 0.459565461
vt 0.816911697 0.30221352
vt 0.816911697 0.302205175
vt 0.816907644 0.302205175
vt 0.922313988 0.459565461
vt 0.922313988 0.459565461
vt 0.922313988 0.459565461
vt 0.922313988 0.459565461
vt 0.922313988 0.459565461
vt 0.922313988 0.459565461
vt 0.922313988 0.459565461
vt 0.922313988 0.459565461
vt 0.922313988 0.459565461
vt 0.922313988 0.459565461
vt 0.922313988 0.459565461
vt 0.922313988 0.459565461
vt 0.922313988 0.459565461
vt 0.922313988 0.459565461
vt 0.922313988 0.459565461
vt 0.922313988 0.459565461
vt 0.922313988 0.459565461
vt 0.922313988 0.459565461
vt 0.922313988 0.459565461
vt 0.922313988 0.459565461
vt 0.922313988 0.459565461
vt 0.922313988 0.459565461
vt 0.922313988 0.459565461
vt 0.922313988 0.459565461
vt 0.922313988 0.459565461
vt 0.922314048 0.459565461
vt 0.922313988 0.459565461
vt 0.922313988 0.459565461
vt 0.922313988 0.459565461
vt 0.922313988 0.459565461
vt 0.922313988 0.459565461
vt 0.922313988 0.459565461
vt 0.922313988 0.459565461
vt 0.922313988 0.459565461
vt 0.922313988 0.459565461
vt 0.922313988 0.459565461
vt 0.922313988 0.459565461
vt 0.922313988 0.459565461
vt 0.133912265 0.466281056
vt 0.133912146 0.466281056
vt 0.133912146 0.466281205
vt 0.133912265 0.466281205
vt 0.922313988 0.459565461
vt 0.922313988 0.459565461
vt 0.922313988 0.459565461
vt 0.922313988 0.459565461
vt 0.922313988 0.459565461
vt 0.922313988 0.459565461
vt 0.922313988 0.459565461
vt 0.922313988 0.459565461
vt 0.922313988 0.459565461
vt 0.922313988 0.459565461
vt 0.922313988 0.459565461
vt 0.922313988 0.459565461
vt 0.922313988 0.459565461
vt 0.922313988 0.459565461
vt 0.92097497 0.459810674
vt 0.920963883 0.459800959
vt 0.920963883 0.459827006
vt 0.92097497 0.45981729
vt 0.133918405 0.466264784
vt 0.133918405 0.466264516
vt 0.133918285 0.466264457
vt 0.133918107 0.466264606
vt 0.133918107 0.466264755
vt 0.922313988 0.459565461
vt 0.922313988 0.459565461
vt 0.922313988 0.459565461
vt 0.922313988 0.459565461
vt 0.133914173 0.466262937
vt 0.133914173 0.466262758
vt 0.133913875 0.466262758
vt 0.133913934 0.466262937
vt 0.922313988 0.459565461
vt 0.922313988 0.459565461
vt 0.922313988 0.459565461
vt 0.922313988 0.459565461
vt 0.133914173 0.466262758
vt 0.133914173 0.466262549
vt 0.133913875 0.466262549
vt 0.133913875 0.466262758
vt 0.133914113 0.46626237
vt 0.133914053 0.466262281
vt 0.133913934 0.466262311
vt 0.133913934 0.46626243
vt 0.922313988 0.459565461
vt 0.922313988 0.459565461
vt 0.922313988 0.459565461
vt 0.922313988 0.459565461
vt 0.133914173 0.466262549
vt 0.133914113 0.46626237
vt 0.133913934 0.46626243
vt 0.133913875 0.466262549
vt 0.922313988 0.459565461
vt 0.922313988 0.459565461
vt 0.922313988 0.459565461
vt 0.922313988 0.459565461
vt 0.922313988 0.459565461
vt 0.922313988 0.459565461
vt 0.922313988 0.459565461
vt 0.922313988 0.459565461
vt 0.922313988 0.459565461
vt 0.922313988 0.459565461
vt 0.922313988 0.459565461
vt 0.922313988 0.459565461
vt 0.922313988 0.459565461
vt 0.922313988 0.459565461
vt 0.922313988 0.459565461
vt 0.922313988 0.459565461
vt 0.922313988 0.459565461
vt 0.922314048 0.459565461
vt 0.922314048 0.459565461
vt 0.922314048 0.459565461
vt 0.922313988 0.459565461
vt 0.922313988 0.459565461
vt 0.922313988 0.459565461
vt 0.922313988 0.459565461
vt 0.922313988 0.459565461
vt 0.922313988 0.459565461
vt 0.922313988 0.459565461
vt 0.922313988 0.459565461
vt 0.922313988 0.459565461
vt 0.922313988 0.459565461
vt 0.922313988 0.459565461
vt 0.922313988 0.459565461
vt 0.922313988 0.459565461
vt 0.922313988 0.459565461
vt 0.922313988 0.459565461
vt 0.922313988 0.459565461
vt 0.922313988 0.459565461
vt 0.922313988 0.459565461
vt 0.922313988 0.459565461
vt 0.922313988 0.459565461
vt 0.133914351 0.466261059
vt 0.133914351 0.46626088
vt 0.133914232 0.46626088
vt 0.133914232 0.466260999
vt 0.133914232 0.466260999
vt 0.133914053 0.466261327
vt 0.133914351 0.466261327
vt 0.133914351 0.466261059
vt 0.922313988 0.459565461
vt 0.922313988 0.459565461
vt 0.922313988 0.459565461
vt 0.922313988 0.459565461
vt 0.133917809 0.466265321
vt 0.133917987 0.46626544
vt 0.133918107 0.466265291
vt 0.133918107 0.466265023
vt 0.133917809 0.466265172
vt 0.133913934 0.466263145
vt 0.133914232 0.466263145
vt 0.133914173 0.466262937
vt 0.133913934 0.466262937
vt 0.133913875 0.466263145
vt 0.922313988 0.459565461
vt 0.922313988 0.459565461
vt 0.922313988 0.459565461
vt 0.922313988 0.459565461
vt 0.922314048 0.459565461
vt 0.922314048 0.459565461
vt 0.922314048 0.459565461
vt 0.133914351 0.466261327
vt 0.133914053 0.466261327
vt 0.133914053 0.466261506
vt 0.133914351 0.466261506
vt 0.922313988 0.459565461
vt 0.922313988 0.459565461
vt 0.922313988 0.459565461
vt 0.922313988 0.459565461
vt 0.133914053 0.466261506
vt 0.133914053 0.466261715
vt 0.133914292 0.466261715
vt 0.133914351 0.466261506
vt 0.133914411 0.466261715
vt 0.922313988 0.459565461
vt 0.922313988 0.459565461
vt 0.922313988 0.459565461
vt 0.922313988 0.459565461
vt 0.922313988 0.459565461
vt 0.922313988 0.459565461
vt 0.922313988 0.459565461
vt 0.922313988 0.459565461
vt 0.922314048 0.459565461
vt 0.922314048 0.459565461
vt 0.922314048 0.459565461
vt 0.922314048 0.459565461
vt 0.922313988 0.459565461
vt 0.922314048 0.459565461
vt 0.922314048 0.459565461
vt 0.922314048 0.459565461
vt 0.922314048 0.459565461
vt 0.922314048 0.459565461
vt 0.922313988 0.459565461
vt 0.922313988 0.459565461
vt 0.922313988 0.459565461
vt 0.922313988 0.459565461
vt 0.922313988 0.459565461
vt 0.922313988 0.459565461
vt 0.922313988 0.459565461
vt 0.922313988 0.459565461
vt 0.922313988 0.459565461
vt 0.922313988 0.459565461
vt 0.922313988 0.459565461
vt 0.922313988 0.459565461
vt 0.922313988 0.459565461
vt 0.922313988 0.459565461
vt 0.922313988 0.459565461
vt 0.922313988 0.459565461
vt 0.133918405 0.466265053
vt 0.133918405 0.466264784
vt 0.133918107 0.466264755
vt 0.133918107 0.466264874
vt 0.922313988 0.459565461
vt 0.922313988 0.459565461
vt 0.922313988 0.459565461
vt 0.922313988 0.459565461
vt 0.922313988 0.459565461
vt 0.922313988 0.459565461
vt 0.922313988 0.459565461
vt 0.922313988 0.459565461
vt 0.922313988 0.459565461
vt 0.922313988 0.459565461
vt 0.922313988 0.459565461
vt 0.922313988 0.459565461
vt 0.922313988 0.459565461
vt 0.922313988 0.459565461
vt 0.922313988 0.459565461
vt 0.922313988 0.459565461
vt 0.922313988 0.459565461
vt 0.922313988 0.459565461
vt 0.922313988 0.459565461
vt 0.922313988 0.459565461
vt 0.922313988 0.459565461
vt 0.922313988 0.459565461
vt 0.922313988 0.459565461
vt 0.922313988 0.459565461
vt 0.922313988 0.459565461
vt 0.922313988 0.459565461
vt 0.922313988 0.459565461
vt 0.133918583 0.466265231
vt 0.133918643 0.466265053
vt 0.133918524 0.466265053
vt 0.133918405 0.466265231
vt 0.922313988 0.459565461
vt 0.922313988 0.459565461
vt 0.922313988 0.459565461
vt 0.922313988 0.459565461
vt 0.922314048 0.459565461
vt 0.922313988 0.459565461
vt 0.922314048 0.459565461
vt 0.922314048 0.459565461
vt 0.922313988 0.459565461
vt 0.922313988 0.459565461
vt 0.922313988 0.459565461
vt 0.922313988 0.459565461
vt 0.922313988 0.459565461
vt 0.922313988 0.459565461
vt 0.922313988 0.459565461
vt 0.922313988 0.459565461
vt 0.922313988 0.459565461
vt 0.922313988 0.459565461
vt 0.922313988 0.459565461
vt 0.922313988 0.459565461
vt 0.922313988 0.459565461
vt 0.922313988 0.459565461
vt 0.922313988 0.459565461
vt 0.922313988 0.459565461
vt 0.922313988 0.459565461
vt 0.922313988 0.459565461
vt 0.922313988 0.459565461
vt 0.922313988 0.459565461
vt 0.133918464 0.4662655
vt 0.133918643 0.46626541
vt 0.133918583 0.466265231
vt 0.133918405 0.466265231
vt 0.133918524 0.466263592
vt 0.133918464 0.466263771
vt 0.133918583 0.46626386
vt 0.133918703 0.466263682
vt 0.922313988 0.459565461
vt 0.922313988 0.459565461
vt 0.922313988 0.459565461
vt 0.922313988 0.459565461
vt 0.922313988 0.459565461
vt 0.922313988 0.459565461
vt 0.922313988 0.459565461
vt 0.922313988 0.459565461
vt 0.922313988 0.459565461
vt 0.922313929 0.459565699
vt 0.922313929 0.459565699
vt 0.922313929 0.459565699
vt 0.922313929 0.459565699
vt 0.922313988 0.459565461
vt 0.922313988 0.459565461
vt 0.922313988 0.459565461
vt 0.922313988 0.459565461
vt 0.922313988 0.459565461
vt 0.922313988 0.459565461
vt 0.922313988 0.459565461
vt 0.922313988 0.459565461
vt 0.922313988 0.459565461
vt 0.922313988 0.459565461
vt 0.922313988 0.459565461
vt 0.922313988 0.459565461
vt 0.133918583 0.46626395
vt 0.133918583 0.46626386
vt 0.133918464 0.466263771
vt 0.133918405 0.46626395
vt 0.922313988 0.459565461
vt 0.922313988 0.459565461
vt 0.922313988 0.459565461
vt 0.922313988 0.459565461
vt 0.922313988 0.459565461
vt 0.922314048 0.459565461
vt 0.922314048 0.459565461
vt 0.922313988 0.459565461
vt 0.133918583 0.46626395
vt 0.133918405 0.46626395
vt 0.133918583 0.466264129
vt 0.133918703 0.466264069
vt 0.922313988 0.459565461
vt 0.922313988 0.459565461
vt 0.922313988 0.459565461
vt 0.922313988 0.459565461
vt 0.922313988 0.459565461
vt 0.922313988 0.459565461
vt 0.922313988 0.459565461
vt 0.922313988 0.459565461
vt 0.922313988 0.459565461
vt 0.922313988 0.459565461
vt 0.922313988 0.459565461
vt 0.922313988 0.459565461
vt 0.922313988 0.459565461
vt 0.922313988 0.459565461
vt 0.922313988 0.459565461
vt 0.922314048 0.459565461
vt 0.922314048 0.459565461
vt 0.922314048 0.459565461
vt 0.922313988 0.459565461
vt 0.922313988 0.459565461
vt 0.922313988 0.459565461
vt 0.922313988 0.459565461
vt 0.922313988 0.459565461
vt 0.922314048 0.459565461
vt 0.922314048 0.459565461
vt 0.922314048 0.459565461
vt 0.922313988 0.459565461
vt 0.922313988 0.459565461
vt 0.922313988 0.459565461
vt 0.922313988 0.459565461
vt 0.9209705 0.45970571
vt 0.920960069 0.45970571
vt 0.920960069 0.459731758
vt 0.9209705 0.459731728
vt 0.922313988 0.459565461
vt 0.922313988 0.459565461
vt 0.922313988 0.459565461
vt 0.922313988 0.459565461
vt 0.922313988 0.459565461
vt 0.922313988 0.459565461
vt 0.922313988 0.459565461
vt 0.922313988 0.459565461
vt 0.922313988 0.459565461
vt 0.922313988 0.459565461
vt 0.922313988 0.459565461
vt 0.922313988 0.459565461
vt 0.922313988 0.459565461
vt 0.922313988 0.459565461
vt 0.922313988 0.459565461
vt 0.922313988 0.459565461
vt 0.922313988 0.459565461
vt 0.922313988 0.459565461
vt 0.922313988 0.459565461
vt 0.922313988 0.459565461
vt 0.922313988 0.459565461
vt 0.922313988 0.459565461
vt 0.922313988 0.459565461
vt 0.922313988 0.459565461
vt 0.922313988 0.459565461
vt 0.922313988 0.459565461
vt 0.922313988 0.459565461
vt 0.922313988 0.459565461
vt 0.922313988 0.459565461
vt 0.922313988 0.459565461
vt 0.922313988 0.459565461
vt 0.922313988 0.459565461
vt 0.922313988 0.459565461
vt 0.922313988 0.459565461
vt 0.922313988 0.459565461
vt 0.922313988 0.459565461
vt 0.816907644 0.302205175
vt 0.817749858 0.302120477
vt 0.816911697 0.30221352
vt 0.817749858 0.302128881
vt 0.817754388 0.302128881
vt 0.922313988 0.459565461
vt 0.922313988 0.459565461
vt 0.922313988 0.459565461
vt 0.922313988 0.459565461
vt 0.922313988 0.459565461
vt 0.922313988 0.459565461
vt 0.922313988 0.459565461
vt 0.922313988 0.459565461
vt 0.922313988 0.459565461
vt 0.817732811 0.302128881
vt 0.817732811 0.302120477
vt 0.817728281 0.302120477
vt 0.816877365 0.302205175
vt 0.816877365 0.30221352
vt 0.816881537 0.30221352
vn -0.295117 -0.390487 -0.872024
vn -0.295117 -0.390487 -0.872024
vn -0.295117 -0.390487 -0.872024
vn -0.294417 0.395597 -0.869955
vn -0.294417 0.395597 -0.869955
vn -0.294417 0.395597 -0.869955
vn 0.021391 0.413849 -0.910094
vn 0.021391 0.413849 -0.910094
vn 0.021391 0.413849 -0.910094
vn -0.100470 -0.406622 -0.908055
vn -0.100470 -0.406622 -0.908055
vn -0.100470 -0.406622 -0.908055
vn -0.999826 -0.018659 -0.000000
vn -0.999826 -0.018659 -0.000000
vn -0.999826 -0.018659 -0.000000
vn 0.000000 0.000000 -1.000000
vn 0.000000 0.000000 -1.000000
vn 0.000000 0.000000 -1.000000
vn 0.000000 1.000000 -0.000000
vn 0.000000 1.000000 -0.000000
vn 0.000000 1.000000 -0.000000
vn 0.000000 1.000000 -0.000000
vn 0.000000 1.000000 -0.000000
vn 0.000000 1.000000 -0.000000
vn 0.000000 1.000000 -0.000000
vn 0.000000 1.000000 -0.000000
vn 0.000000 0.000000 1.000000
vn 0.000000 0.000000 1.000000
vn 0.000000 0.000000 1.000000
vn 0.000000 0.000000 1.000000
vn -0.007914 -0.055447 -0.998430
vn -0.007914 -0.055447 -0.998430
vn -0.007914 -0.055447 -0.998430
vn -0.007914 -0.055447 -0.998430
vn 0.000000 0.000000 -1.000000
vn 0.000000 0.000000 -1.000000
vn 0.000000 0.000000 -1.000000
vn 0.000000 0.000000 -1.000000
vn 0.000000 0.000000 -1.000000
vn 0.000000 0.000000 -1.000000
vn 0.000000 0.000000 -1.000000
vn 0.000000 0.000000 -1.000000
vn 0.000000 0.000000 -1.000000
vn 0.000000 0.000000 -1.000000
vn 0.000000 0.000000 -1.000000
vn 0.000000 0.000000 -1.000000
vn 0.000000 0.000000 -1.000000
vn 0.000000 0.000000 -1.000000
vn 0.000000 0.000000 -1.000000
vn 0.000000 0.000000 -1.000000
vn 0.000000 0.000000 -1.000000
vn 0.000000 0.000000 -1.000000
vn 0.000000 0.000000 -1.000000
vn 0.000000 0.000000 -1.000000
vn 0.000000 0.000000 -1.000000
vn 0.000000 0.000000 -1.000000
vn 1.000000 0.000000 -0.000000
vn 1.000000 0.000000 -0.000000
vn 1.000000 0.000000 -0.000000
vn 1.000000 0.000000 -0.000000
vn -0.320567 0.000000 -0.947226
vn -0.320567 0.000000 -0.947226
vn -0.320567 0.000000 -0.947226
vn -0.320567 0.000000 -0.947226
vn 0.140722 0.990049 -0.000000
vn 0.140722 0.990049 -0.000000
vn 0.140722 0.990049 -0.000000
vn 0.140722 0.990049 -0.000000
vn 0.140722 0.990049 -0.000000
vn 0.140722 0.990049 -0.000000
vn 0.000000 0.000000 1.000000
vn 0.000000 0.000000 1.000000
vn 0.000000 0.000000 1.000000
vn 0.000000 0.000000 1.000000
vn 0.000000 0.000000 -1.000000
vn 0.000000 0.000000 -1.000000
vn 0.000000 0.000000 -1.000000
vn 0.000000 0.000000 -1.000000
vn -0.266806 0.197148 -0.943370
vn -0.266806 0.197148 -0.943370
vn -0.266806 0.197148 -0.943370
vn -0.266806 0.197148 -0.943370
vn -0.266806 0.197148 -0.943370
vn 0.560503 -0.828152 -0.000000
vn 0.560503 -0.828152 -0.000000
vn 0.560503 -0.828152 -0.000000
vn 0.560503 -0.828152 -0.000000
vn 0.099276 0.995060 -0.000000
vn 0.099276 0.995060 -0.000000
vn 0.099276 0.995060 -0.000000
vn 0.099276 0.995060 -0.000000
vn 0.425432 -0.109842 -0.898300
vn 0.425432 -0.109842 -0.898300
vn 0.425432 -0.109842 -0.898300
vn 0.425432 -0.109842 -0.898300
vn -0.285507 0.958377 -0.000000
vn -0.285507 0.958377 -0.000000
vn -0.285507 0.958377 -0.000000
vn -0.285507 0.958377 -0.000000
vn 0.424904 0.897400 -0.118866
vn 0.424904 0.897400 -0.118866
vn 0.424904 0.897400 -0.118866
vn 0.424904 0.897400 -0.118866
vn -0.300079 -0.953326 0.033497
vn -0.300079 -0.953326 0.033497
vn -0.300079 -0.953326 0.033497
vn -0.300079 -0.953326 0.033497
vn 0.611284 0.788464 -0.068236
vn 0.611284 0.788464 -0.068236
vn 0.611284 0.788464 -0.068236
vn 0.611284 0.788464 -0.068236
vn 0.996411 0.081994 0.021026
vn 0.996411 0.081994 0.021026
vn 0.996411 0.081994 0.021026
vn 0.996411 0.081994 0.021026
vn -0.043858 -0.007624 -0.999009
vn -0.043858 -0.007624 -0.999009
vn -0.043858 -0.007624 -0.999009
vn -0.043858 -0.007624 -0.999009
vn -0.043858 -0.007624 -0.999009
vn -0.043858 -0.007624 -0.999009
vn -0.046391 -0.998839 0.012978
vn -0.046391 -0.998839 0.012978
vn -0.046391 -0.998839 0.012978
vn -0.046391 -0.998839 0.012978
vn 0.526460 0.850200 -0.000000
vn 0.526460 0.850200 -0.000000
vn 0.526460 0.850200 -0.000000
vn 0.526460 0.850200 -0.000000
vn 0.526460 0.850200 -0.000000
vn 0.526460 0.850200 -0.000000
vn 0.432947 -0.090662 0.896849
vn 0.432947 -0.090662 0.896849
vn 0.432947 -0.090662 0.896849
vn 0.432947 -0.090662 0.896849
vn 0.050642 -0.087273 -0.994896
vn 0.050642 -0.087273 -0.994896
vn 0.050642 -0.087273 -0.994896
vn 0.050642 -0.087273 -0.994896
vn 0.405612 0.913855 -0.018654
vn 0.405612 0.913855 -0.018654
vn 0.405612 0.913855 -0.018654
vn 0.405612 0.913855 -0.018654
vn 0.202762 0.978401 0.040247
vn 0.202762 0.978401 0.040247
vn 0.202762 0.978401 0.040247
vn 0.202762 0.978401 0.040247
vn -0.139674 -0.018751 -0.990020
vn -0.139674 -0.018751 -0.990020
vn -0.139674 -0.018751 -0.990020
vn -0.139674 -0.018751 -0.990020
vn 0.228691 -0.971154 -0.067537
vn 0.228691 -0.971154 -0.067537
vn 0.228691 -0.971154 -0.067537
vn 0.228691 -0.971154 -0.067537
vn -0.220614 -0.974579 0.039058
vn -0.220614 -0.974579 0.039058
vn -0.220614 -0.974579 0.039058
vn -0.220614 -0.974579 0.039058
vn -0.011272 0.005238 -0.999923
vn -0.011272 0.005238 -0.999923
vn -0.011272 0.005238 -0.999923
vn -0.011272 0.005238 -0.999923
vn 0.076630 0.014126 -0.996960
vn 0.076630 0.014126 -0.996960
vn 0.076630 0.014126 -0.996960
vn 0.076630 0.014126 -0.996960
vn 0.076630 0.014126 -0.996960
vn 0.510679 0.859771 -0.000000
vn 0.510679 0.859771 -0.000000
vn 0.510679 0.859771 -0.000000
vn 0.510679 0.859771 -0.000000
vn 0.510679 0.859771 -0.000000
vn 0.000000 0.000000 1.000000
vn 0.000000 0.000000 1.000000
vn 0.000000 0.000000 1.000000
vn 0.000000 0.000000 1.000000
vn 0.000000 0.000000 1.000000
vn 0.000000 0.000000 1.000000
vn 0.000000 0.000000 1.000000
vn 0.001233 -0.999999 -0.000000
vn 0.001233 -0.999999 -0.000000
vn 0.001233 -0.999999 -0.000000
vn 0.001233 -0.999999 -0.000000
vn 0.199348 0.000000 0.979929
vn 0.199348 0.000000 0.979929
vn 0.199348 0.000000 0.979929
vn 0.199348 0.000000 0.979929
vn 0.305479 -0.952199 -0.000000
vn 0.305479 -0.952199 -0.000000
vn 0.305479 -0.952199 -0.000000
vn 0.305479 -0.952199 -0.000000
vn 0.305479 -0.952199 -0.000000
vn -0.216085 0.008116 -0.976341
vn -0.216085 0.008116 -0.976341
vn -0.216085 0.008116 -0.976341
vn -0.216085 0.008116 -0.976341
vn -1.000000 0.000000 -0.000000
vn -1.000000 0.000000 -0.000000
vn -1.000000 0.000000 -0.000000
vn -1.000000 0.000000 -0.000000
vn 0.530080 0.789587 0.309140
vn 0.530080 0.789587 0.309140
vn 0.530080 0.789587 0.309140
vn 0.530080 0.789587 0.309140
vn 0.530080 0.789587 0.309140
vn 0.530080 0.789587 0.309140
vn 1.000000 0.000000 -0.000000
vn 1.000000 0.000000 -0.000000
vn 1.000000 0.000000 -0.000000
vn 1.000000 0.000000 -0.000000
vn -0.407578 -0.913170 -0.000000
vn -0.407578 -0.913170 -0.000000
vn -0.407578 -0.913170 -0.000000
vn -0.407578 -0.913170 -0.000000
vn 0.127708 0.016025 0.991682
vn 0.127708 0.016025 0.991682
vn 0.127708 0.016025 0.991682
vn 0.127708 0.016025 0.991682
vn 0.127708 0.016025 0.991682
vn 0.127708 0.016025 0.991682
vn 0.127708 0.016025 0.991682
vn 0.127708 0.016025 0.991682
vn 0.279994 -0.189659 0.941081
vn 0.279994 -0.189659 0.941081
vn 0.279994 -0.189659 0.941081
vn 0.279994 -0.189659 0.941081
vn 0.000000 0.000000 -1.000000
vn 0.000000 0.000000 -1.000000
vn 0.000000 0.000000 -1.000000
vn 0.000000 0.000000 -1.000000
vn 0.007717 -0.999970 -0.000000
vn 0.007717 -0.999970 -0.000000
vn 0.007717 -0.999970 -0.000000
vn 0.007717 -0.999970 -0.000000
vn 0.007717 -0.999970 -0.000000
vn 0.007717 -0.999970 -0.000000
vn 0.007717 -0.999970 -0.000000
vn 0.007717 -0.999970 -0.000000
vn 0.007717 -0.999970 -0.000000
vn 0.007717 -0.999970 -0.000000
vn 0.007717 -0.999970 -0.000000
vn 0.999923 -0.011969 -0.003206
vn 0.999923 -0.011969 -0.003206
vn 0.999923 -0.011969 -0.003206
vn 0.999923 -0.011969 -0.003206
vn -0.548491 -0.836157 -0.000000
vn -0.548491 -0.836157 -0.000000
vn -0.548491 -0.836157 -0.000000
vn -0.548491 -0.836157 -0.000000
vn 0.380456 -0.466330 0.798618
vn 0.380456 -0.466330 0.798618
vn 0.380456 -0.466330 0.798618
vn 0.380456 -0.466330 0.798618
vn 0.308771 -0.950035 -0.045766
vn 0.308771 -0.950035 -0.045766
vn 0.308771 -0.950035 -0.045766
vn 0.308771 -0.950035 -0.045766
vn -0.267913 0.949396 -0.163919
vn -0.267913 0.949396 -0.163919
vn -0.267913 0.949396 -0.163919
vn -0.267913 0.949396 -0.163919
vn 0.717961 0.206951 0.664607
vn 0.717961 0.206951 0.664607
vn 0.717961 0.206951 0.664607
vn 0.717961 0.206951 0.664607
vn -0.994497 -0.062195 -0.084310
vn -0.994497 -0.062195 -0.084310
vn -0.994497 -0.062195 -0.084310
vn -0.994497 -0.062195 -0.084310
vn 0.976010 -0.129345 -0.175141
vn 0.976010 -0.129345 -0.175141
vn 0.976010 -0.129345 -0.175141
vn 0.976010 -0.129345 -0.175141
vn 0.231418 -0.184982 -0.955106
vn 0.231418 -0.184982 -0.955106
vn 0.231418 -0.184982 -0.955106
vn 0.231418 -0.184982 -0.955106
vn -0.657459 -0.216007 -0.721865
vn -0.657459 -0.216007 -0.721865
vn -0.657459 -0.216007 -0.721865
vn -0.657459 -0.216007 -0.721865
vn 0.310227 -0.889743 0.334838
vn 0.310227 -0.889743 0.334838
vn 0.310227 -0.889743 0.334838
vn 0.310227 -0.889743 0.334838
vn 0.000000 0.000000 1.000000
vn 0.000000 0.000000 1.000000
vn 0.000000 0.000000 1.000000
vn 0.000000 0.000000 1.000000
vn -0.193728 0.781916 -0.592518
vn -0.193728 0.781916 -0.592518
vn -0.193728 0.781916 -0.592518
vn -0.193728 0.781916 -0.592518
vn -0.430976 -0.764628 -0.479169
vn -0.430976 -0.764628 -0.479169
vn -0.430976 -0.764628 -0.479169
vn -0.430976 -0.764628 -0.479169
vn 0.902606 -0.430293 -0.012269
vn 0.902606 -0.430293 -0.012269
vn 0.902606 -0.430293 -0.012269
vn 0.902606 -0.430293 -0.012269
vn 0.902606 -0.430293 -0.012269
vn 0.419612 -0.907704 -0.000000
vn 0.419612 -0.907704 -0.000000
vn 0.419612 -0.907704 -0.000000
vn 0.419612 -0.907704 -0.000000
vn -0.360702 0.932419 0.022111
vn -0.360702 0.932419 0.022111
vn -0.360702 0.932419 0.022111
vn -0.360702 0.932419 0.022111
vn -0.892069 0.441697 0.095476
vn -0.892069 0.441697 0.095476
vn -0.892069 0.441697 0.095476
vn -0.892069 0.441697 0.095476
vn 0.952820 -0.264043 0.149719
vn 0.952820 -0.264043 0.149719
vn 0.952820 -0.264043 0.149719
vn 0.952820 -0.264043 0.149719
vn 0.928115 -0.331854 -0.168748
vn 0.928115 -0.331854 -0.168748
vn 0.928115 -0.331854 -0.168748
vn 0.928115 -0.331854 -0.168748
vn -0.205052 -0.766043 -0.609206
vn -0.205052 -0.766043 -0.609206
vn -0.205052 -0.766043 -0.609206
vn -0.205052 -0.766043 -0.609206
vn -0.957790 0.286791 -0.019739
vn -0.957790 0.286791 -0.019739
vn -0.957790 0.286791 -0.019739
vn -0.957790 0.286791 -0.019739
vn 0.282225 0.736906 0.614263
vn 0.282225 0.736906 0.614263
vn 0.282225 0.736906 0.614263
vn 0.282225 0.736906 0.614263
vn -0.013671 -0.778209 -0.627856
vn -0.013671 -0.778209 -0.627856
vn -0.013671 -0.778209 -0.627856
vn -0.013671 -0.778209 -0.627856
vn -0.917004 0.215391 -0.335723
vn -0.917004 0.215391 -0.335723
vn -0.917004 0.215391 -0.335723
vn -0.917004 0.215391 -0.335723
vn 0.087513 0.025494 0.995837
vn 0.087513 0.025494 0.995837
vn 0.087513 0.025494 0.995837
vn 0.087513 0.025494 0.995837
vn 0.087513 0.025494 0.995837
vn 0.087513 0.025494 0.995837
vn 0.953824 0.087786 -0.287250
vn 0.953824 0.087786 -0.287250
vn 0.953824 0.087786 -0.287250
vn 0.953824 0.087786 -0.287250
vn 0.349329 -0.256660 0.901163
vn 0.349329 -0.256660 0.901163
vn 0.349329 -0.256660 0.901163
vn 0.349329 -0.256660 0.901163
vn -0.269678 0.291825 -0.917667
vn -0.269678 0.291825 -0.917667
vn -0.269678 0.291825 -0.917667
vn -0.269678 0.291825 -0.917667
vn 0.179726 0.828413 0.530500
vn 0.179726 0.828413 0.530500
vn 0.179726 0.828413 0.530500
vn 0.179726 0.828413 0.530500
vn 0.055958 0.074622 0.995641
vn 0.055958 0.074622 0.995641
vn 0.055958 0.074622 0.995641
vn 0.055958 0.074622 0.995641
vn 1.000000 0.000000 -0.000000
vn 1.000000 0.000000 -0.000000
vn 1.000000 0.000000 -0.000000
vn 1.000000 0.000000 -0.000000
vn -0.661471 0.749971 -0.000000
vn -0.661471 0.749971 -0.000000
vn -0.661471 0.749971 -0.000000
vn -0.661471 0.749971 -0.000000
vn -0.661471 -0.749971 -0.000000
vn -0.661471 -0.749971 -0.000000
vn -0.661471 -0.749971 -0.000000
vn -0.661471 -0.749971 -0.000000
vn 1.000000 0.000000 -0.000000
vn 1.000000 0.000000 -0.000000
vn 1.000000 0.000000 -0.000000
vn 1.000000 0.000000 -0.000000
vn 1.000000 0.000000 -0.000000
vn 1.000000 0.000000 -0.000000
vn -1.000000 0.000000 -0.000000
vn -1.000000 0.000000 -0.000000
vn -1.000000 0.000000 -0.000000
vn -1.000000 0.000000 -0.000000
vn -1.000000 0.000000 -0.000000
vn -1.000000 0.000000 -0.000000
vn 0.000000 0.994449 -0.105215
vn 0.000000 0.994449 -0.105215
vn 0.000000 0.994449 -0.105215
vn 0.000000 0.994449 -0.105215
vn 0.000000 -0.994417 -0.105520
vn 0.000000 -0.994417 -0.105520
vn 0.000000 -0.994417 -0.105520
vn 0.000000 -0.994417 -0.105520
vn 0.942063 -0.207517 -0.263540
vn 0.942063 -0.207517 -0.263540
vn 0.942063 -0.207517 -0.263540
vn 0.942063 -0.207517 -0.263540
vn 0.000000 0.000000 -1.000000
vn 0.000000 0.000000 -1.000000
vn 0.000000 0.000000 -1.000000
vn 0.000000 0.000000 -1.000000
vn 0.000000 0.000000 -1.000000
vn 0.000000 0.000000 -1.000000
vn 0.000000 0.000000 -1.000000
vn 0.000000 0.000000 -1.000000
vn 0.000000 0.000000 -1.000000
vn -0.246407 0.000000 -0.969167
vn -0.246407 0.000000 -0.969167
vn -0.246407 0.000000 -0.969167
vn -0.246407 0.000000 -0.969167
vn -0.246407 0.000000 -0.969167
vn 0.511310 -0.055445 0.857606
vn 0.511310 -0.055445 0.857606
vn 0.511310 -0.055445 0.857606
vn 0.511310 -0.055445 0.857606
vn 0.000000 0.000000 -1.000000
vn 0.000000 0.000000 -1.000000
vn 0.000000 0.000000 -1.000000
vn 0.000000 0.000000 -1.000000
vn 0.000000 0.000000 -1.000000
vn 0.000000 0.000000 -1.000000
f 1/1/1 2/2/2 3/3/3
f 4/4/4 5/5/5 6/6/6
f 7/7/7 8/8/8 9/9/9
f 10/10/10 11/11/11 12/12/12
f 13/13/13 14/14/14 15/15/15
f 16/16/16 17/17/17 18/18/18
f 19/19/19 20/20/20 21/21/21
f 21/21/21 22/22/22 19/19/19
f 23/23/23 22/22/22 21/21/21
f 22/22/22 24/24/24 19/19/19
f 24/24/24 25/25/25 19/19/19
f 25/25/25 26/26/26 19/19/19
f 27/27/27 28/28/28 29/29/29
f 27/27/27 29/29/29 30/30/30
f 31/31/31 32/32/32 33/33/33
f 31/31/31 33/33/33 34/34/34
f 35/35/35 36/36/36 37/37/37
f 37/37/37 38/38/38 35/35/35
f 38/38/38 37/37/37 39/39/39
f 39/39/39 40/40/40 38/38/38
f 40/40/40 41/41/41 38/38/38
f 40/40/40 42/42/42 41/41/41
f 43/43/43 41/41/41 42/42/42
f 44/44/44 43/43/43 42/42/42
f 38/38/38 45/45/45 35/35/35
f 38/38/38 46/46/46 45/45/45
f 45/45/45 44/44/44 47/47/47
f 35/35/35 45/45/45 47/47/47
f 47/47/47 44/44/44 42/42/42
f 48/48/48 35/35/35 47/47/47
f 49/49/49 47/47/47 42/42/42
f 50/50/50 49/49/49 42/42/42
f 47/47/47 51/51/51 48/48/48
f 52/52/52 50/50/50 42/42/42
f 48/48/48 51/51/51 53/53/53
f 48/48/48 53/53/53 52/52/52
f 42/42/42 54/54/54 52/52/52
f 48/48/48 52/52/52 54/54/54
f 55/55/55 48/48/48 54/54/54
f 54/54/54 56/56/56 55/55/55
f 57/57/57 58/58/58 59/59/59
f 57/57/57 59/59/59 60/60/60
f 61/61/61 62/62/62 63/63/63
f 61/61/61 63/63/63 64/64/64
f 65/65/65 66/66/66 67/67/67
f 67/67/67 68/68/68 65/65/65
f 68/68/68 69/69/69 65/65/65
f 69/69/69 70/70/70 65/65/65
f 71/71/71 72/72/72 73/73/73
f 71/71/71 73/73/73 74/74/74
f 75/75/75 76/76/76 77/77/77
f 75/75/75 77/77/77 78/78/78
f 79/79/79 80/80/80 81/81/81
f 81/81/81 82/82/82 79/79/79
f 82/82/82 83/83/83 79/79/79
f 84/84/84 85/85/85 86/86/86
f 84/84/84 86/86/86 87/87/87
f 88/88/88 89/89/89 90/90/90
f 88/88/88 90/90/90 91/91/91
f 92/92/92 93/93/93 94/94/94
f 92/92/92 94/94/94 95/95/95
f 96/96/96 97/97/97 98/98/98
f 96/96/96 98/98/98 99/99/99
f 100/100/100 101/101/101 102/102/102
f 100/100/100 102/102/102 103/103/103
f 104/104/104 105/105/105 106/106/106
f 104/104/104 106/106/106 107/107/107
f 108/108/108 109/109/109 110/110/110
f 108/108/108 110/110/110 111/111/111
f 112/112/112 113/113/113 114/114/114
f 112/112/112 114/114/114 115/115/115
f 116/116/116 117/117/117 118/118/118
f 118/118/118 119/119/119 116/116/116
f 119/119/119 120/120/120 116/116/116
f 120/120/120 121/121/121 116/116/116
f 122/122/122 123/123/123 124/124/124
f 122/122/122 124/124/124 125/125/125
f 126/126/126 127/127/127 128/128/128
f 128/128/128 129/129/129 126/126/126
f 128/128/128 130/130/130 129/129/129
f 128/128/128 131/131/131 130/130/130
f 132/132/132 133/133/133 134/134/134
f 132/132/132 134/134/134 135/135/135
f 136/136/136 137/137/137 138/138/138
f 136/136/136 138/138/138 139/139/139
f 140/140/140 141/141/141 142/142/142
f 140/140/140 142/142/142 143/143/143
f 144/144/144 145/145/145 146/146/146
f 144/144/144 146/146/146 147/147/147
f 148/148/148 149/149/149 150/150/150
f 148/148/148 150/150/150 151/151/151
f 152/152/152 153/153/153 154/154/154
f 152/152/152 154/154/154 155/155/155
f 156/156/156 157/157/157 158/158/158
f 156/156/156 158/158/158 159/159/159
f 160/160/160 161/161/161 162/162/162
f 160/160/160 162/162/162 163/163/163
f 164/164/164 165/165/165 166/166/166
f 166/166/166 167/167/167 164/164/164
f 167/167/167 168/168/168 164/164/164
f 169/169/169 170/170/170 171/171/171
f 171/171/171 172/172/172 169/169/169
f 172/172/172 173/173/173 169/169/169
f 174/174/174 175/175/175 176/176/176
f 174/174/174 176/176/176 177/177/177
f 174/174/174 178/178/178 179/179/179
f 174/174/174 179/179/179 180/180/180
f 181/181/181 182/182/182 183/183/183
f 181/181/181 183/183/183 184/184/184
f 185/185/185 186/186/186 187/187/187
f 185/185/185 187/187/187 188/188/188
f 189/189/189 190/190/190 191/191/191
f 191/191/191 192/192/192 189/189/189
f 191/191/191 193/193/193 192/192/192
f 194/194/194 195/195/195 196/196/196
f 194/194/194 196/196/196 197/197/197
f 198/198/198 199/199/199 200/200/200
f 198/198/198 200/200/200 201/201/201
f 202/202/202 203/203/203 204/204/204
f 204/204/204 205/205/205 202/202/202
f 205/205/205 206/206/206 202/202/202
f 205/205/205 207/207/207 206/206/206
f 208/208/208 209/209/209 210/210/210
f 208/208/208 210/210/210 211/211/211
f 212/212/212 213/213/213 214/214/214
f 212/212/212 214/214/214 215/215/215
f 216/216/216 217/217/217 218/218/218
f 218/218/218 219/219/219 216/216/216
f 218/218/218 220/220/220 219/219/219
f 220/220/220 221/221/221 219/219/219
f 220/220/220 222/222/222 221/221/221
f 220/220/220 223/223/223 222/222/222
f 224/224/224 225/225/225 226/226/226
f 224/224/224 226/226/226 227/227/227
f 228/228/228 229/229/229 230/230/230
f 228/228/228 230/230/230 231/231/231
f 232/232/232 233/233/233 234/234/234
f 235/235/235 232/232/232 234/234/234
f 235/235/235 234/234/234 236/236/236
f 235/235/235 237/237/237 232/232/232
f 238/238/238 232/232/232 237/237/237
f 237/237/237 239/239/239 238/238/238
f 240/240/240 235/235/235 236/236/236
f 240/240/240 236/236/236 241/241/241
f 241/241/241 242/242/242 240/240/240
f 243/243/243 244/244/244 245/245/245
f 243/243/243 245/245/245 246/246/246
f 247/247/247 248/248/248 249/249/249
f 247/247/247 249/249/249 250/250/250
f 251/251/251 252/252/252 253/253/253
f 251/251/251 253/253/253 254/254/254
f 255/255/255 256/256/256 257/257/257
f 255/255/255 257/257/257 258/258/258
f 259/259/259 260/260/260 261/261/261
f 259/259/259 261/261/261 262/262/262
f 263/263/263 264/264/264 265/265/265
f 263/263/263 265/265/265 266/266/266
f 267/267/267 268/268/268 269/269/269
f 267/267/267 269/269/269 270/270/270
f 271/271/271 272/272/272 273/273/273
f 271/271/271 273/273/273 274/274/274
f 275/275/275 276/276/276 277/277/277
f 275/275/275 277/277/277 278/278/278
f 279/279/279 280/280/280 281/281/281
f 279/279/279 281/281/281 282/282/282
f 283/283/283 284/284/284 285/285/285
f 283/283/283 285/285/285 286/286/286
f 287/287/287 288/288/288 289/289/289
f 287/287/287 289/289/289 290/290/290
f 291/291/291 292/292/292 293/293/293
f 291/291/291 293/293/293 294/294/294
f 295/295/295 296/296/296 297/297/297
f 295/295/295 297/297/297 298/298/298
f 299/299/299 300/300/300 301/301/301
f 301/301/301 302/302/302 299/299/299
f 302/302/302 303/303/303 299/299/299
f 304/304/304 305/305/305 306/306/306
f 304/304/304 306/306/306 307/307/307
f 308/308/308 309/309/309 310/310/310
f 308/308/308 310/310/310 311/311/311
f 312/312/312 313/313/313 314/314/314
f 312/312/312 314/314/314 315/315/315
f 316/316/316 317/317/317 318/318/318
f 316/316/316 318/318/318 319/319/319
f 320/320/320 321/321/321 322/322/322
f 320/320/320 322/322/322 323/323/323
f 324/324/324 325/325/325 326/326/326
f 324/324/324 326/326/326 327/327/327
f 328/328/328 329/329/329 330/330/330
f 328/328/328 330/330/330 331/331/331
f 332/332/332 333/333/333 334/334/334
f 332/332/332 334/334/334 335/335/335
f 336/336/336 337/337/337 338/338/338
f 336/336/336 338/338/338 339/339/339
f 340/340/340 341/341/341 342/342/342
f 340/340/340 342/342/342 343/343/343
f 344/344/344 345/345/345 346/346/346
f 346/346/346 347/347/347 344/344/344
f 346/346/346 348/348/348 347/347/347
f 348/348/348 349/349/349 347/347/347
f 350/350/350 351/351/351 352/352/352
f 350/350/350 352/352/352 353/353/353
f 354/354/354 355/355/355 356/356/356
f 354/354/354 356/356/356 357/357/357
f 358/358/358 359/359/359 360/360/360
f 358/358/358 360/360/360 361/361/361
f 362/362/362 363/363/363 364/364/364
f 362/362/362 364/364/364 365/365/365
f 366/366/366 367/367/367 368/368/368
f 366/366/366 368/368/368 369/369/369
f 370/370/370 371/371/371 372/372/372
f 370/370/370 372/372/372 373/373/373
f 374/374/374 375/375/375 376/376/376
f 374/374/374 376/376/376 377/377/377
f 378/378/378 379/379/379 380/380/380
f 378/378/378 380/380/380 381/381/381
f 382/382/382 383/383/383 384/384/384
f 384/384/384 385/385/385 382/382/382
f 385/385/385 386/386/386 382/382/382
f 386/386/386 387/387/387 382/382/382
f 388/388/388 389/389/389 390/390/390
f 390/390/390 391/391/391 388/388/388
f 390/390/390 392/392/392 391/391/391
f 392/392/392 393/393/393 391/391/391
f 394/394/394 395/395/395 396/396/396
f 394/394/394 396/396/396 397/397/397
f 398/398/398 399/399/399 400/400/400
f 398/398/398 400/400/400 401/401/401
f 402/402/402 403/403/403 404/404/404
f 402/402/402 404/404/404 405/405/405
f 406/406/406 407/407/407 408/408/408
f 406/406/406 408/408/408 409/409/409
f 410/410/410 411/411/411 412/412/412
f 411/411/411 413/413/413 412/412/412
f 413/413/413 414/414/414 412/412/412
f 415/415/415 416/416/416 417/417/417
f 417/417/417 418/418/418 415/415/415
f 418/418/418 419/419/419 415/415/415
f 420/420/420 421/421/421 422/422/422
f 420/420/420 422/422/422 423/423/423
f 424/424/424 425/425/425 426/426/426
f 426/426/426 427/427/427 424/424/424
f 427/427/427 428/428/428 424/424/424
f 428/428/428 429/429/429 424/424/424
