# toque_yellow_hat (gear rip -> Godot: Z negated + winding reversed)
v -0.895584 0.000000 0.118061
v -0.796968 0.000000 0.102168
v -0.808206 0.070631 0.032437
v -0.906822 0.070631 0.048330
v -0.906822 0.070631 0.048330
v -0.808206 0.070631 0.032437
v -0.819444 0.000000 -0.037295
v -0.918060 0.000000 -0.021402
v -0.918060 0.000000 -0.021402
v -0.819444 0.000000 -0.037295
v -0.808206 -0.070631 0.032437
v -0.906822 -0.070631 0.048330
v -0.906822 -0.070631 0.048330
v -0.808206 -0.070631 0.032437
v -0.796968 0.000000 0.102168
v -0.895584 0.000000 0.118061
v -0.906822 -0.070631 0.048330
v -0.895584 0.000000 0.118061
v -0.906822 0.070631 0.048330
v -0.918060 0.000000 -0.021402
v -0.784222 0.219779 0.255991
v -0.612874 0.219779 0.228376
v -0.684320 0.219779 -0.214949
v -0.855668 0.219779 -0.187334
v -0.855668 0.219779 -0.187334
v -0.684320 0.219779 -0.214949
v -0.684320 -0.219779 -0.214949
v -0.855668 -0.219779 -0.187334
v -0.855668 -0.219779 -0.187334
v -0.684320 -0.219779 -0.214949
v -0.612874 -0.219779 0.228376
v -0.784222 -0.219779 0.255991
v -0.784222 -0.219779 0.255991
v -0.612874 -0.219779 0.228376
v -0.612874 0.219779 0.228376
v -0.784222 0.219779 0.255991
v -0.784222 -0.219779 0.255991
v -0.784222 0.219779 0.255991
v -0.855668 0.219779 -0.187334
v -0.855668 -0.219779 -0.187334
v -0.617055 0.233052 0.242785
v -0.521057 0.233052 0.227314
v -0.596818 0.233052 -0.242785
v -0.692817 0.233052 -0.227314
v -0.692817 0.233052 -0.227314
v -0.596818 0.233052 -0.242785
v -0.596818 -0.233052 -0.242785
v -0.692817 -0.233052 -0.227314
v -0.692817 -0.233052 -0.227314
v -0.596818 -0.233052 -0.242785
v -0.521057 -0.233052 0.227314
v -0.617055 -0.233052 0.242785
v -0.617055 -0.233052 0.242785
v -0.521057 -0.233052 0.227314
v -0.521057 0.233052 0.227314
v -0.617055 0.233052 0.242785
v -0.521057 0.233052 0.227314
v -0.521057 -0.233052 0.227314
v -0.596818 -0.233052 -0.242785
v -0.596818 0.233052 -0.242785
v -0.617055 -0.233052 0.242785
v -0.617055 0.233052 0.242785
v -0.692817 0.233052 -0.227314
v -0.692817 -0.233052 -0.227314
vt 0.718605995 0.580964983
vt 0.718605995 0.572547972
vt 0.709845006 0.572547972
vt 0.709845006 0.580964983
vt 0.763616979 0.582014978
vt 0.763616979 0.590431988
vt 0.772377014 0.590431988
vt 0.772377014 0.582014978
vt 0.742587984 0.590431988
vt 0.742587984 0.582014978
vt 0.733826995 0.582014978
vt 0.733826995 0.590431988
vt 0.718605995 0.589381993
vt 0.718605995 0.580964983
vt 0.709845006 0.580964983
vt 0.709845006 0.589381993
vt 0.751348019 0.582014978
vt 0.742587984 0.582014978
vt 0.742587984 0.590431988
vt 0.751348019 0.590431988
vt 0.0825510025 0.538133025
vt 0.0673300028 0.538133025
vt 0.0673300028 0.564888
vt 0.0825510025 0.564888
vt 0.161980003 0.564323008
vt 0.146758005 0.564323008
vt 0.146758005 0.590512991
vt 0.161980003 0.590512991
vt 0.108208001 0.538133025
vt 0.0929870009 0.538133025
vt 0.0929870009 0.564888
vt 0.108208001 0.564888
vt 0.161980003 0.538133025
vt 0.146758005 0.538133025
vt 0.146758005 0.564323008
vt 0.161980003 0.564323008
vt 0.108208001 0.575969994
vt 0.146758005 0.575969994
vt 0.146758005 0.538133025
vt 0.108208001 0.538133025
vt 0.718605995 0.544176996
vt 0.710078001 0.544176996
vt 0.710078001 0.572547972
vt 0.718605995 0.572547972
vt 0.733826995 0.570932984
vt 0.725299001 0.570932984
vt 0.725299001 0.59870398
vt 0.733826995 0.59870398
vt 0.783232987 0.515806019
vt 0.774706006 0.515806019
vt 0.774706006 0.544176996
vt 0.783232987 0.544176996
vt 0.701476991 0.570932984
vt 0.692948997 0.570932984
vt 0.692948997 0.59870398
vt 0.701476991 0.59870398
vt 0.733826995 0.544176996
vt 0.774706006 0.544176996
vt 0.774706006 0.50405401
vt 0.733826995 0.50405401
vt 0.733826995 0.50405401
vt 0.692948997 0.50405401
vt 0.692948997 0.544176996
vt 0.733826995 0.544176996
vn 0.112506 0.707106 0.698100
vn 0.112506 0.707106 0.698100
vn 0.112506 0.707106 0.698100
vn 0.112506 0.707106 0.698100
vn -0.112505 0.707111 -0.698095
vn -0.112505 0.707111 -0.698095
vn -0.112505 0.707111 -0.698095
vn -0.112505 0.707111 -0.698095
vn -0.112506 -0.707111 -0.698095
vn -0.112506 -0.707111 -0.698095
vn -0.112506 -0.707111 -0.698095
vn -0.112506 -0.707111 -0.698095
vn 0.112506 -0.707106 0.698100
vn 0.112506 -0.707106 0.698100
vn 0.112506 -0.707106 0.698100
vn 0.112506 -0.707106 0.698100
vn -0.987261 0.000000 0.159108
vn -0.987261 0.000000 0.159108
vn -0.987261 0.000000 0.159108
vn -0.987261 0.000000 0.159108
vn 0.000000 1.000000 -0.000000
vn 0.000000 1.000000 -0.000000
vn 0.000000 1.000000 -0.000000
vn 0.000000 1.000000 -0.000000
vn -0.159110 -0.000000 -0.987261
vn -0.159110 -0.000000 -0.987261
vn -0.159110 -0.000000 -0.987261
vn -0.159110 -0.000000 -0.987261
vn -0.000000 -1.000000 0.000000
vn -0.000000 -1.000000 0.000000
vn -0.000000 -1.000000 0.000000
vn -0.000000 -1.000000 0.000000
vn 0.159110 0.000000 0.987261
vn 0.159110 0.000000 0.987261
vn 0.159110 0.000000 0.987261
vn 0.159110 0.000000 0.987261
vn -0.987261 0.000000 0.159107
vn -0.987261 0.000000 0.159107
vn -0.987261 0.000000 0.159107
vn -0.987261 0.000000 0.159107
vn 0.000000 1.000000 -0.000000
vn 0.000000 1.000000 -0.000000
vn 0.000000 1.000000 -0.000000
vn 0.000000 1.000000 -0.000000
vn -0.159105 -0.000000 -0.987262
vn -0.159105 -0.000000 -0.987262
vn -0.159105 -0.000000 -0.987262
vn -0.159105 -0.000000 -0.987262
vn -0.000000 -1.000000 0.000000
vn -0.000000 -1.000000 0.000000
vn -0.000000 -1.000000 0.000000
vn -0.000000 -1.000000 0.000000
vn 0.159107 0.000000 0.987261
vn 0.159107 0.000000 0.987261
vn 0.159107 0.000000 0.987261
vn 0.159107 0.000000 0.987261
vn 0.987261 -0.000000 -0.159107
vn 0.987261 -0.000000 -0.159107
vn 0.987261 -0.000000 -0.159107
vn 0.987261 -0.000000 -0.159107
vn -0.987261 0.000000 0.159109
vn -0.987261 0.000000 0.159109
vn -0.987261 0.000000 0.159109
vn -0.987261 0.000000 0.159109
f 1/1/1 2/2/2 3/3/3
f 1/1/1 3/3/3 4/4/4
f 5/5/5 6/6/6 7/7/7
f 5/5/5 7/7/7 8/8/8
f 9/9/9 10/10/10 11/11/11
f 9/9/9 11/11/11 12/12/12
f 13/13/13 14/14/14 15/15/15
f 13/13/13 15/15/15 16/16/16
f 17/17/17 18/18/18 19/19/19
f 17/17/17 19/19/19 20/20/20
f 21/21/21 22/22/22 23/23/23
f 21/21/21 23/23/23 24/24/24
f 25/25/25 26/26/26 27/27/27
f 25/25/25 27/27/27 28/28/28
f 29/29/29 30/30/30 31/31/31
f 29/29/29 31/31/31 32/32/32
f 33/33/33 34/34/34 35/35/35
f 33/33/33 35/35/35 36/36/36
f 37/37/37 38/38/38 39/39/39
f 37/37/37 39/39/39 40/40/40
f 41/41/41 42/42/42 43/43/43
f 41/41/41 43/43/43 44/44/44
f 45/45/45 46/46/46 47/47/47
f 45/45/45 47/47/47 48/48/48
f 49/49/49 50/50/50 51/51/51
f 49/49/49 51/51/51 52/52/52
f 53/53/53 54/54/54 55/55/55
f 53/53/53 55/55/55 56/56/56
f 57/57/57 58/58/58 59/59/59
f 57/57/57 59/59/59 60/60/60
f 61/61/61 62/62/62 63/63/63
f 61/61/61 63/63/63 64/64/64
