# vampirehunter_hat_hat (gear rip -> Godot: Z negated + winding reversed)
v -0.712771 0.138766 -0.250391
v -0.634665 0.153170 -0.263877
v -0.634665 -0.171169 -0.263877
v -0.712771 -0.156765 -0.250392
v -0.712771 0.065372 -0.250391
v -0.712771 -0.083370 -0.250392
v -0.712771 0.214395 0.222529
v -0.634665 0.229945 0.236657
v -0.634665 0.229945 -0.020094
v -0.712771 0.214395 -0.019491
v -0.634665 0.153170 -0.263877
v -0.712771 0.138766 -0.250391
v -0.712771 0.102146 0.244538
v -0.634665 0.229945 0.236657
v -0.712771 0.214395 0.222529
v -0.634665 0.107634 0.258666
v -0.712771 -0.120146 0.244538
v -0.634665 -0.125633 0.258666
v -0.712771 -0.232394 0.222529
v -0.634665 -0.247944 0.236657
v -0.712771 -0.232394 -0.019491
v -0.634665 -0.247944 0.236657
v -0.712771 -0.232394 0.222529
v -0.634665 -0.247944 -0.020094
v -0.712771 -0.156765 -0.250392
v -0.634665 -0.171169 -0.263877
v -0.588450 0.417222 0.191290
v -0.574757 0.366354 0.348257
v -0.569650 0.181237 0.403384
v -0.569650 -0.199236 0.403383
v -0.574757 -0.384354 0.348257
v -0.588450 -0.435221 0.191290
v -0.588450 -0.435221 0.009469
v -0.588450 -0.421536 -0.005811
v -0.588450 -0.380378 -0.067771
v -0.588450 0.417222 -0.219290
v -0.588451 -0.435221 -0.057589
v -0.588450 -0.435221 -0.014000
v -0.588450 -0.435220 -0.219290
v -0.588451 -0.435220 -0.095648
v -0.574757 -0.384353 -0.376257
v -0.569650 -0.199236 -0.431384
v -0.569650 0.181237 -0.431384
v -0.574757 0.366355 -0.376257
v -0.857614 0.121223 -0.233967
v -0.712771 0.138766 -0.250391
v -0.712771 0.065372 -0.250391
v -0.712771 -0.083370 -0.250392
v -0.712771 -0.156765 -0.250392
v -0.857614 -0.139222 -0.233967
v -0.630962 0.181237 0.403384
v -0.636069 0.366354 0.348257
v -0.649762 0.417222 0.191290
v -0.630962 -0.199236 0.403383
v -0.636069 -0.384354 0.348257
v -0.649762 -0.435221 0.191290
v -0.649762 -0.435221 0.009469
v -0.649762 -0.421536 -0.005811
v -0.649762 -0.380378 -0.067771
v -0.649762 -0.435221 -0.014000
v -0.649762 -0.435221 -0.057589
v -0.649762 0.417222 -0.219290
v -0.649762 -0.435220 -0.219290
v -0.649762 -0.435220 -0.095648
v -0.636069 -0.384353 -0.376257
v -0.630962 -0.199236 -0.431384
v -0.630962 0.181237 -0.431384
v -0.636069 0.366355 -0.376257
v -0.588450 0.417222 -0.219290
v -0.574757 0.366355 -0.376257
v -0.636069 0.366355 -0.376257
v -0.649762 0.417222 -0.219290
v -0.649762 0.417222 0.191290
v -0.588450 0.417222 0.191290
v -0.636069 0.366354 0.348257
v -0.574757 0.366354 0.348257
v -0.569650 0.181237 -0.431384
v -0.636069 0.366355 -0.376257
v -0.574757 0.366355 -0.376257
v -0.630962 0.181237 -0.431384
v -0.569650 -0.199236 -0.431384
v -0.630962 -0.199236 -0.431384
v -0.636069 -0.384353 -0.376257
v -0.574757 -0.384353 -0.376257
v -0.588450 -0.435221 -0.014000
v -0.649762 -0.435221 -0.014000
v -0.649762 -0.435221 -0.057589
v -0.588451 -0.435221 -0.057589
v -0.588450 -0.435220 -0.219290
v -0.636069 -0.384353 -0.376257
v -0.574757 -0.384353 -0.376257
v -0.649762 -0.435220 -0.219290
v -0.649762 -0.435220 -0.095648
v -0.588451 -0.435220 -0.095648
v -0.569650 0.181237 0.403384
v -0.574757 0.366354 0.348257
v -0.636069 0.366354 0.348257
v -0.630962 0.181237 0.403384
v -0.569650 -0.199236 0.403383
v -0.630962 -0.199236 0.403383
v -0.636069 -0.384354 0.348257
v -0.574757 -0.384354 0.348257
v -0.588450 -0.435221 0.191290
v -0.574757 -0.384354 0.348257
v -0.636069 -0.384354 0.348257
v -0.649762 -0.435221 0.191290
v -0.588450 -0.435221 0.009469
v -0.649762 -0.435221 0.009469
v -0.588450 -0.421536 -0.005811
v -0.649762 -0.421536 -0.005811
v -0.649762 -0.380378 -0.067771
v -0.649762 -0.435220 -0.095648
v -0.588451 -0.435220 -0.095648
v -0.588450 -0.380378 -0.067771
v -0.588450 -0.380378 -0.067771
v -0.588451 -0.435221 -0.057589
v -0.649762 -0.435221 -0.057589
v -0.649762 -0.380378 -0.067771
v -0.649762 -0.421536 -0.005811
v -0.649762 -0.435221 -0.014000
v -0.588450 -0.435221 -0.014000
v -0.588450 -0.421536 -0.005811
v -0.857614 -0.213455 0.205322
v -0.712771 -0.232394 0.222529
v -0.712771 -0.120146 0.244538
v -0.857614 -0.113462 0.227331
v -0.712771 0.102146 0.244538
v -0.857614 0.095463 0.227331
v -0.712771 0.214395 0.222529
v -0.857614 0.195456 0.205322
v -0.857614 -0.139222 -0.233967
v -0.712771 -0.156765 -0.250392
v -0.712771 -0.232394 -0.019491
v -0.857614 -0.213455 -0.018756
v -0.712771 -0.232394 0.222529
v -0.857614 -0.213455 0.205322
v -0.857614 0.195456 -0.018756
v -0.712771 0.138766 -0.250391
v -0.857614 0.121223 -0.233967
v -0.712771 0.214395 -0.019491
v -0.857614 0.195456 0.205322
v -0.712771 0.214395 0.222529
v -0.904173 -0.008999 -0.003318
v -0.857614 -0.213455 0.205322
v -0.857614 -0.113462 0.227331
v -0.857614 0.095463 0.227331
v -0.857614 -0.213455 -0.018756
v -0.857614 0.195456 0.205322
v -0.857614 -0.139222 -0.233967
v -0.857614 0.195456 -0.018756
v -0.857614 0.121223 -0.233967
vt 0.924227476 0.109034806
vt 0.924266517 0.109042943
vt 0.924266517 0.108881295
vt 0.924227476 0.108889103
vt 0.924227476 0.108998597
vt 0.924227476 0.108925253
vt 0.924070656 0.108889878
vt 0.924031615 0.108881295
vt 0.924030066 0.109009147
vt 0.924069226 0.109009594
vt 0.924031377 0.109132528
vt 0.924070537 0.109125853
vt 0.924148738 0.109051913
vt 0.924110353 0.109112799
vt 0.924149394 0.109103203
vt 0.924109697 0.109056115
vt 0.924148738 0.108944803
vt 0.924109697 0.108943105
vt 0.924149394 0.108888388
vt 0.924110353 0.108881295
vt 0.923989892 0.109006643
vt 0.923952103 0.109133601
vt 0.923991084 0.109124362
vt 0.923950791 0.109007895
vt 0.923990965 0.108887166
vt 0.923951864 0.108881295
vt 0.963541567 0.0310704261
vt 0.963466406 0.0310957879
vt 0.963440061 0.0311880857
vt 0.963440061 0.0313778073
vt 0.963466406 0.0314701051
vt 0.963541567 0.0314954966
vt 0.96362865 0.0314954966
vt 0.963635921 0.0314886421
vt 0.963665605 0.0314773768
vt 0.963738084 0.0310704261
vt 0.963660717 0.0314954966
vt 0.963639855 0.0314954966
vt 0.963738084 0.0314954966
vt 0.963678956 0.0314954966
vt 0.963813305 0.0314701051
vt 0.96383965 0.0313778073
vt 0.96383965 0.0311880857
vt 0.963813305 0.0310957879
vt 0.963873446 0.0316408724
vt 0.963912487 0.0316490084
vt 0.963912487 0.0316127986
vt 0.963912487 0.0315394551
vt 0.963912487 0.0315033048
vt 0.963873446 0.031511113
vt 0.96423924 0.0311880857
vt 0.964212894 0.0310957879
vt 0.964137793 0.0310704261
vt 0.96423924 0.0313778073
vt 0.964212894 0.0314701051
vt 0.964137793 0.0314954966
vt 0.96405071 0.0314954966
vt 0.964043438 0.0314886421
vt 0.964013755 0.0314773768
vt 0.964039505 0.0314954966
vt 0.964018643 0.0314954966
vt 0.963941216 0.0310704261
vt 0.963941216 0.0314954966
vt 0.964000404 0.0314954966
vt 0.963866055 0.0314701051
vt 0.96383965 0.0313778073
vt 0.96383965 0.0311880857
vt 0.963866055 0.0310957879
vt 0.964014351 0.0315750092
vt 0.96401912 0.0314954966
vt 0.963989854 0.0314956158
vt 0.963985085 0.0315751284
vt 0.963985085 0.0317795724
vt 0.964014351 0.0317794532
vt 0.963989854 0.0318563432
vt 0.96401912 0.0318562239
vt 0.963985085 0.0317782611
vt 0.963951528 0.031869635
vt 0.963980854 0.0318695754
vt 0.96395582 0.0317783207
vt 0.963985085 0.0315886587
vt 0.96395582 0.0315887183
vt 0.963951528 0.0314955562
vt 0.963980854 0.0314954966
vt 0.963873446 0.0316573828
vt 0.963873446 0.0316879004
vt 0.96389395 0.0316876024
vt 0.96389395 0.0316571444
vt 0.964113772 0.0315574259
vt 0.964086592 0.0316378325
vt 0.964115858 0.0316393226
vt 0.964084506 0.0315559953
vt 0.964086592 0.0314954966
vt 0.964115858 0.0314969867
vt 0.96401912 0.0317759365
vt 0.964023173 0.0318592042
vt 0.964052498 0.0318596214
vt 0.964048445 0.0317764133
vt 0.96401912 0.0315916389
vt 0.964048445 0.0315920562
vt 0.964052498 0.0314959139
vt 0.964023173 0.0314954966
vt 0.964081764 0.0315675586
vt 0.964084506 0.0314954966
vt 0.96405524 0.0314960927
vt 0.964052498 0.0315681547
vt 0.964084506 0.0316565484
vt 0.96405524 0.0316571444
vt 0.964084327 0.0316653103
vt 0.964055061 0.0316659063
vt 0.963913977 0.0316576809
vt 0.96389395 0.0316571444
vt 0.96389395 0.0316876024
vt 0.963913977 0.0316881984
vt 0.963931561 0.0316571444
vt 0.963913977 0.0316574425
vt 0.963913977 0.0316879004
vt 0.963931561 0.0316876024
vt 0.963938832 0.0316572636
vt 0.963931561 0.0316571444
vt 0.963931561 0.0316876024
vt 0.963938832 0.0316877812
vt 0.963873446 0.0315096825
vt 0.963834405 0.0315025896
vt 0.963833749 0.0315590054
vt 0.96387279 0.0315607041
vt 0.963833749 0.0316661149
vt 0.96387279 0.0316619128
vt 0.963834405 0.0317174047
vt 0.963873446 0.0317078084
vt 0.963715076 0.0315072387
vt 0.963675976 0.0315013677
vt 0.963674903 0.0316208452
vt 0.963714004 0.0316195935
vt 0.963676095 0.0317385644
vt 0.963715076 0.0317293257
vt 0.963793397 0.0316242427
vt 0.963755548 0.0317400545
vt 0.963794708 0.0317333788
vt 0.963754237 0.0316237956
vt 0.963794708 0.0315126628
vt 0.963755667 0.0315040797
vt 0.963537931 0.0316105932
vt 0.963440061 0.0317145437
vt 0.963487864 0.031725511
vt 0.96358788 0.031725511
vt 0.963440061 0.031602785
vt 0.963635802 0.0317145437
vt 0.963475585 0.0314954966
vt 0.963635802 0.031602785
vt 0.963600278 0.0314954966
vn -0.113514 0.000000 -0.993536
vn -0.170136 0.000000 -0.985421
vn -0.170137 0.000000 -0.985420
vn -0.079282 0.000000 -0.996852
vn -0.056428 0.000000 -0.998407
vn -0.075224 0.000000 -0.997167
vn -0.162541 0.986702 0.000000
vn -0.195250 0.980753 -0.000000
vn -0.202794 0.967457 -0.151331
vn -0.169038 0.973243 -0.155644
vn -0.205646 0.931779 -0.299160
vn -0.171402 0.935985 -0.307495
vn -0.157726 0.096008 0.982805
vn -0.198576 0.180769 0.963271
vn -0.165932 0.191132 0.967437
vn -0.189076 0.090766 0.977759
vn -0.157726 -0.096009 0.982805
vn -0.189076 -0.090766 0.977759
vn -0.165932 -0.191133 0.967437
vn -0.198576 -0.180770 0.963270
vn -0.169038 -0.973242 -0.155645
vn -0.195250 -0.980753 -0.000000
vn -0.162541 -0.986702 -0.000000
vn -0.202794 -0.967457 -0.151331
vn -0.171402 -0.935985 -0.307495
vn -0.205646 -0.931779 -0.299161
vn 0.999031 0.000143 -0.044002
vn 0.996264 0.001776 -0.086336
vn 0.996180 0.000888 -0.087317
vn 0.996012 -0.000318 -0.089215
vn 0.996074 -0.000318 -0.088520
vn 0.999054 0.000000 -0.043495
vn 1.000000 0.000000 -0.000000
vn 1.000000 0.000000 -0.000000
vn 1.000000 0.000000 -0.000000
vn 0.998278 0.000190 0.058663
vn 1.000000 0.000000 -0.000000
vn 1.000000 0.000000 -0.000000
vn 0.999580 0.000000 0.028994
vn 1.000000 0.000000 -0.000000
vn 0.996074 -0.000318 0.088520
vn 0.996012 -0.000318 0.089215
vn 0.996180 0.000888 0.087317
vn 0.996264 0.001776 0.086336
vn -0.112676 0.000000 -0.993632
vn -0.113514 0.000000 -0.993536
vn -0.056428 0.000000 -0.998407
vn -0.075224 0.000000 -0.997167
vn -0.079282 0.000000 -0.996852
vn -0.112676 -0.000000 -0.993632
vn -0.996180 -0.000888 0.087317
vn -0.996264 -0.001776 0.086336
vn -0.999031 -0.000143 0.044002
vn -0.996012 0.000318 0.089215
vn -0.996074 0.000318 0.088520
vn -0.999054 0.000000 0.043495
vn -1.000000 0.000000 -0.000000
vn -1.000000 0.000000 -0.000000
vn -1.000000 0.000000 -0.000000
vn -1.000000 0.000000 -0.000000
vn -1.000000 0.000000 -0.000000
vn -0.998278 -0.000190 -0.058663
vn -0.999580 0.000000 -0.028994
vn -1.000000 0.000000 -0.000000
vn -0.996074 0.000318 -0.088520
vn -0.996012 0.000318 -0.089215
vn -0.996180 -0.000888 -0.087317
vn -0.996264 -0.001776 -0.086336
vn 0.000000 0.987749 -0.156051
vn 0.000000 0.951296 -0.308278
vn 0.000000 0.951296 -0.308278
vn 0.000000 0.987749 -0.156051
vn 0.000000 0.987749 0.156051
vn 0.000000 0.987749 0.156051
vn 0.000000 0.951296 0.308278
vn 0.000000 0.951296 0.308278
vn -0.000000 0.144210 -0.989547
vn 0.000000 0.285404 -0.958407
vn 0.000000 0.285404 -0.958407
vn -0.000000 0.144210 -0.989547
vn 0.000000 -0.144209 -0.989547
vn 0.000000 -0.144209 -0.989547
vn 0.000000 -0.285404 -0.958407
vn 0.000000 -0.285404 -0.958407
vn 0.000000 -1.000000 -0.000000
vn 0.000000 -1.000000 -0.000000
vn 0.000000 -1.000000 -0.000000
vn 0.000000 -1.000000 -0.000000
vn 0.000000 -0.987749 -0.156051
vn 0.000000 -0.951296 -0.308278
vn 0.000000 -0.951296 -0.308278
vn 0.000000 -0.987749 -0.156051
vn 0.000000 -1.000000 -0.000000
vn 0.000000 -1.000000 -0.000000
vn 0.000000 0.144209 0.989547
vn 0.000000 0.285404 0.958407
vn 0.000000 0.285404 0.958407
vn 0.000000 0.144209 0.989547
vn 0.000000 -0.144210 0.989547
vn 0.000000 -0.144210 0.989547
vn 0.000000 -0.285404 0.958407
vn 0.000000 -0.285404 0.958407
vn 0.000000 -0.987749 0.156051
vn 0.000000 -0.951296 0.308278
vn 0.000000 -0.951296 0.308278
vn 0.000000 -0.987749 0.156051
vn 0.000000 -0.934050 -0.357141
vn 0.000000 -0.934050 -0.357141
vn 0.000000 -0.744900 -0.667176
vn 0.000000 -0.744900 -0.667176
vn 0.000000 -0.453142 0.891438
vn 0.000000 -0.453142 0.891438
vn 0.000000 -0.453142 0.891438
vn 0.000000 -0.453142 0.891438
vn 0.000000 -0.182533 -0.983200
vn 0.000000 -0.182533 -0.983200
vn 0.000000 -0.182533 -0.983200
vn 0.000000 -0.182533 -0.983200
vn 0.000000 -0.513502 0.858089
vn 0.000000 -0.513502 0.858089
vn 0.000000 -0.513502 0.858089
vn 0.000000 -0.513502 0.858089
vn -0.133090 -0.201268 0.970453
vn -0.165932 -0.191133 0.967437
vn -0.157726 -0.096009 0.982805
vn -0.126181 -0.101157 0.986836
vn -0.157726 0.096008 0.982805
vn -0.126181 0.101156 0.986836
vn -0.165932 0.191132 0.967437
vn -0.133090 0.201267 0.970453
vn -0.136942 -0.939012 -0.315443
vn -0.171402 -0.935985 -0.307495
vn -0.169038 -0.973242 -0.155645
vn -0.135036 -0.977873 -0.159778
vn -0.162541 -0.986702 -0.000000
vn -0.129652 -0.991560 -0.000000
vn -0.135036 0.977873 -0.159778
vn -0.171402 0.935985 -0.307495
vn -0.136942 0.939012 -0.315442
vn -0.169038 0.973243 -0.155644
vn -0.129652 0.991560 -0.000000
vn -0.162541 0.986702 0.000000
vn -0.998812 0.000000 0.048736
vn -0.988765 -0.130772 0.072402
vn -0.981742 -0.019858 0.189180
vn -0.981742 0.019858 0.189180
vn -0.974971 -0.219223 -0.037045
vn -0.988765 0.130772 0.072402
vn -0.986764 -0.110639 -0.118558
vn -0.974971 0.219223 -0.037045
vn -0.986764 0.110639 -0.118558
f 1/1/1 2/2/2 3/3/3
f 3/3/3 4/4/4 1/1/1
f 4/4/4 5/5/5 1/1/1
f 4/4/4 6/6/6 5/5/5
f 7/7/7 8/8/8 9/9/9
f 7/7/7 9/9/9 10/10/10
f 10/10/10 9/9/9 11/11/11
f 10/10/10 11/11/11 12/12/12
f 13/13/13 14/14/14 15/15/15
f 13/13/13 16/16/16 14/14/14
f 17/17/17 16/16/16 13/13/13
f 17/17/17 18/18/18 16/16/16
f 19/19/19 18/18/18 17/17/17
f 19/19/19 20/20/20 18/18/18
f 21/21/21 22/22/22 23/23/23
f 21/21/21 24/24/24 22/22/22
f 25/25/25 24/24/24 21/21/21
f 25/25/25 26/26/26 24/24/24
f 27/27/27 28/28/28 29/29/29
f 27/27/27 29/29/29 30/30/30
f 27/27/27 30/30/30 31/31/31
f 31/31/31 32/32/32 27/27/27
f 27/27/27 32/32/32 33/33/33
f 33/33/33 34/34/34 27/27/27
f 34/34/34 35/35/35 27/27/27
f 36/36/36 27/27/27 35/35/35
f 37/37/37 35/35/35 34/34/34
f 34/34/34 38/38/38 37/37/37
f 39/39/39 36/36/36 35/35/35
f 35/35/35 40/40/40 39/39/39
f 36/36/36 39/39/39 41/41/41
f 41/41/41 42/42/42 36/36/36
f 42/42/42 43/43/43 36/36/36
f 43/43/43 44/44/44 36/36/36
f 45/45/45 46/46/46 47/47/47
f 47/47/47 48/48/48 45/45/45
f 48/48/48 49/49/49 45/45/45
f 49/49/49 50/50/50 45/45/45
f 51/51/51 52/52/52 53/53/53
f 54/54/54 51/51/51 53/53/53
f 55/55/55 54/54/54 53/53/53
f 53/53/53 56/56/56 55/55/55
f 57/57/57 56/56/56 53/53/53
f 53/53/53 58/58/58 57/57/57
f 53/53/53 59/59/59 58/58/58
f 60/60/60 58/58/58 59/59/59
f 59/59/59 61/61/61 60/60/60
f 59/59/59 53/53/53 62/62/62
f 59/59/59 62/62/62 63/63/63
f 63/63/63 64/64/64 59/59/59
f 65/65/65 63/63/63 62/62/62
f 62/62/62 66/66/66 65/65/65
f 62/62/62 67/67/67 66/66/66
f 62/62/62 68/68/68 67/67/67
f 69/69/69 70/70/70 71/71/71
f 69/69/69 71/71/71 72/72/72
f 69/69/69 72/72/72 73/73/73
f 69/69/69 73/73/73 74/74/74
f 74/74/74 73/73/73 75/75/75
f 74/74/74 75/75/75 76/76/76
f 77/77/77 78/78/78 79/79/79
f 77/77/77 80/80/80 78/78/78
f 81/81/81 80/80/80 77/77/77
f 81/81/81 82/82/82 80/80/80
f 81/81/81 83/83/83 82/82/82
f 81/81/81 84/84/84 83/83/83
f 85/85/85 86/86/86 87/87/87
f 85/85/85 87/87/87 88/88/88
f 89/89/89 90/90/90 91/91/91
f 89/89/89 92/92/92 90/90/90
f 93/93/93 92/92/92 89/89/89
f 93/93/93 89/89/89 94/94/94
f 95/95/95 96/96/96 97/97/97
f 95/95/95 97/97/97 98/98/98
f 99/99/99 95/95/95 98/98/98
f 99/99/99 98/98/98 100/100/100
f 99/99/99 100/100/100 101/101/101
f 99/99/99 101/101/101 102/102/102
f 103/103/103 104/104/104 105/105/105
f 103/103/103 105/105/105 106/106/106
f 107/107/107 103/103/103 106/106/106
f 107/107/107 106/106/106 108/108/108
f 109/109/109 107/107/107 108/108/108
f 109/109/109 108/108/108 110/110/110
f 111/111/111 112/112/112 113/113/113
f 111/111/111 113/113/113 114/114/114
f 115/115/115 116/116/116 117/117/117
f 115/115/115 117/117/117 118/118/118
f 119/119/119 120/120/120 121/121/121
f 119/119/119 121/121/121 122/122/122
f 123/123/123 124/124/124 125/125/125
f 123/123/123 125/125/125 126/126/126
f 126/126/126 125/125/125 127/127/127
f 126/126/126 127/127/127 128/128/128
f 128/128/128 127/127/127 129/129/129
f 128/128/128 129/129/129 130/130/130
f 131/131/131 132/132/132 133/133/133
f 131/131/131 133/133/133 134/134/134
f 134/134/134 133/133/133 135/135/135
f 134/134/134 135/135/135 136/136/136
f 137/137/137 138/138/138 139/139/139
f 137/137/137 140/140/140 138/138/138
f 141/141/141 140/140/140 137/137/137
f 141/141/141 142/142/142 140/140/140
f 143/143/143 144/144/144 145/145/145
f 145/145/145 146/146/146 143/143/143
f 143/143/143 147/147/147 144/144/144
f 146/146/146 148/148/148 143/143/143
f 143/143/143 149/149/149 147/147/147
f 143/143/143 148/148/148 150/150/150
f 151/151/151 149/149/149 143/143/143
f 143/143/143 150/150/150 151/151/151
