# vampire_cowl_vest (gear rip -> Godot: Z negated + winding reversed)
v 0.226994 0.176994 -0.000000
v 0.301994 -0.274999 -0.200000
v 0.176994 -0.149999 0.100000
v 0.351994 0.226994 -0.150000
v -0.176994 -0.149999 0.100000
v 0.301994 -0.274999 -0.200000
v -0.301994 -0.274999 -0.200000
v 0.176994 -0.149999 0.100000
v -0.226994 0.176994 -0.000000
v -0.301994 -0.274999 -0.200000
v -0.351994 0.226994 -0.150000
v -0.176994 -0.149999 0.100000
v 0.226994 0.176994 -0.000000
v 0.301994 -0.274999 -0.200000
v 0.351994 0.226994 -0.150000
v 0.176994 -0.149999 0.100000
v 0.301994 -0.274999 -0.200000
v -0.176994 -0.149999 0.100000
v -0.301994 -0.274999 -0.200000
v 0.176994 -0.149999 0.100000
v -0.301994 -0.274999 -0.200000
v -0.226994 0.176994 -0.000000
v -0.351994 0.226994 -0.150000
v -0.176994 -0.149999 0.100000
v 0.049564 0.236721 0.019833
v 0.024782 0.236722 0.062756
v 0.024782 0.187913 0.062756
v 0.049563 0.187913 0.019833
v 0.024782 0.236722 0.062756
v -0.024782 0.236722 0.062756
v -0.024782 0.187913 0.062756
v 0.024782 0.187913 0.062756
v -0.024782 0.236722 0.062756
v -0.049563 0.236722 0.019833
v -0.049564 0.187913 0.019833
v -0.024782 0.187913 0.062756
v -0.049563 0.236722 0.019833
v -0.024782 0.236722 -0.023090
v -0.024782 0.187913 -0.023090
v -0.049564 0.187913 0.019833
v 0.049563 0.187913 0.019833
v 0.024782 0.187913 0.062756
v -0.024782 0.187913 0.062756
v -0.049564 0.187913 0.019833
v 0.024782 0.187913 -0.023090
v -0.024782 0.187913 -0.023090
v 0.024782 0.236722 -0.023090
v 0.049564 0.236721 0.019833
v 0.049563 0.187913 0.019833
v 0.024782 0.187913 -0.023090
v -0.024782 0.236722 -0.023090
v 0.024782 0.236722 -0.023090
v 0.024782 0.187913 -0.023090
v -0.024782 0.187913 -0.023090
v -0.024782 0.236722 0.062756
v 0.024782 0.236722 0.062756
v 0.049564 0.236721 0.019833
v -0.049563 0.236722 0.019833
v 0.024782 0.236722 -0.023090
v -0.024782 0.236722 -0.023090
v 0.149242 0.196366 0.076075
v 0.170113 0.196366 0.062845
v 0.170113 0.228269 0.062845
v 0.149242 0.228269 0.076075
v 0.027912 0.196366 0.051736
v 0.027912 0.228269 0.051736
v -0.170113 0.228269 0.062845
v -0.149242 0.228269 0.076075
v -0.027912 0.228269 0.051736
v -0.170113 0.228269 -0.023180
v -0.027912 0.228269 -0.012070
v -0.149242 0.228269 -0.036410
v 0.149242 0.196366 -0.036410
v 0.027912 0.196366 -0.012070
v 0.027912 0.228269 -0.012070
v 0.149242 0.228269 -0.036410
v 0.170113 0.196366 -0.023180
v 0.170113 0.228269 -0.023180
v 0.170113 0.228269 -0.023180
v 0.170113 0.228269 0.062845
v 0.170113 0.196366 0.062845
v 0.170113 0.196366 -0.023180
v 0.027912 0.228269 0.051736
v 0.149242 0.228269 0.076075
v 0.170113 0.228269 0.062845
v 0.170113 0.228269 -0.023180
v 0.027912 0.228269 -0.012070
v 0.149242 0.228269 -0.036410
v -0.149242 0.196366 0.076075
v -0.170113 0.228269 0.062845
v -0.170113 0.196366 0.062845
v -0.149242 0.228269 0.076075
v -0.027912 0.196366 0.051736
v -0.027912 0.228269 0.051736
v 0.170113 0.196366 0.062845
v 0.149242 0.196366 0.076075
v 0.027912 0.196366 0.051736
v 0.170113 0.196366 -0.023180
v 0.027912 0.196366 -0.012070
v 0.149242 0.196366 -0.036410
v -0.149242 0.196366 -0.036410
v -0.027912 0.228269 -0.012070
v -0.027912 0.196366 -0.012070
v -0.149242 0.228269 -0.036410
v -0.170113 0.196366 -0.023180
v -0.170113 0.228269 -0.023180
v -0.170113 0.228269 -0.023180
v -0.170113 0.196366 -0.023180
v -0.170113 0.196366 0.062845
v -0.170113 0.228269 0.062845
v -0.027912 0.196366 0.051736
v -0.149242 0.196366 0.076075
v -0.170113 0.196366 0.062845
v -0.170113 0.196366 -0.023180
v -0.027912 0.196366 -0.012070
v -0.149242 0.196366 -0.036410
vt 0.261223644 0.469335318
vt 0.256260246 0.451419652
vt 0.252589971 0.459626615
vt 0.267387539 0.466309726
vt 0.239597708 0.459626615
vt 0.256260246 0.451419652
vt 0.235927463 0.451419652
vt 0.252589971 0.459626615
vt 0.230964035 0.469335318
vt 0.235927463 0.451419652
vt 0.22480014 0.466309726
vt 0.239597708 0.459626615
vt 0.905754805 0.547460318
vt 0.900791407 0.529544652
vt 0.911918759 0.544434726
vt 0.897121191 0.537751615
vt 0.900791407 0.529544652
vt 0.884128928 0.537751615
vt 0.880458653 0.529544652
vt 0.897121191 0.537751615
vt 0.880458653 0.529544652
vt 0.875495195 0.547460318
vt 0.86933136 0.544434726
vt 0.884128928 0.537751615
vt 0.224551722 0.537354231
vt 0.224551722 0.526071727
vt 0.211865917 0.526071727
vt 0.211865932 0.537354231
vt 0.199180141 0.526071727
vt 0.199180141 0.539099634
vt 0.211865917 0.539099634
vt 0.211865917 0.526071727
vt 0.224551722 0.514749825
vt 0.224551722 0.526032329
vt 0.237237528 0.526032329
vt 0.237237498 0.514749825
vt 0.224551722 0.526032329
vt 0.224551722 0.537314773
vt 0.237237528 0.537314773
vt 0.237237528 0.526032329
vt 0.246863857 0.508235931
vt 0.246863857 0.495208025
vt 0.23570779 0.488694072
vt 0.224551722 0.495208025
vt 0.23570779 0.514749825
vt 0.224551722 0.508235931
vt 0.224551722 0.548636675
vt 0.224551722 0.537354231
vt 0.211865932 0.537354231
vt 0.211865932 0.548636675
vt 0.195316017 0.539099634
vt 0.195316017 0.526071727
vt 0.182630226 0.526071787
vt 0.182630226 0.539099634
vt 0.23570779 0.451316416
vt 0.224551722 0.457830369
vt 0.224551722 0.470858246
vt 0.246863857 0.45783034
vt 0.23570779 0.477372169
vt 0.246863857 0.470858216
vt 0.255155653 0.494180083
vt 0.255155653 0.488694072
vt 0.246863857 0.488694072
vt 0.246863857 0.494180083
vt 0.255155653 0.526071727
vt 0.246863857 0.526071727
vt 0.191877425 0.488694072
vt 0.195316017 0.48320809
vt 0.188989982 0.451316416
vt 0.169518918 0.488694072
vt 0.172406361 0.451316416
vt 0.166080326 0.48320809
vt 0.263447493 0.520585775
vt 0.263447493 0.488694072
vt 0.255155653 0.488694072
vt 0.255155653 0.520585775
vt 0.263447493 0.526071727
vt 0.255155653 0.526071727
vt 0.245529354 0.537361681
vt 0.245529354 0.514749825
vt 0.237237528 0.514749825
vt 0.237237528 0.537361681
vt 0.218225688 0.526071727
vt 0.224551722 0.494180083
vt 0.221113116 0.488694072
vt 0.198754638 0.488694072
vt 0.201642051 0.526071727
vt 0.195316017 0.494180083
vt 0.255155653 0.48320806
vt 0.246863857 0.488694072
vt 0.255155653 0.488694072
vt 0.246863857 0.48320806
vt 0.255155683 0.451316416
vt 0.246863857 0.451316416
vt 0.191877425 0.526071727
vt 0.195316017 0.520585775
vt 0.188989982 0.488694072
vt 0.169518918 0.526071727
vt 0.172406361 0.488694072
vt 0.166080326 0.520585775
vt 0.263447493 0.456802398
vt 0.255155653 0.488694072
vt 0.263447493 0.488694072
vt 0.255155653 0.456802398
vt 0.263447493 0.451316416
vt 0.255155653 0.451316416
vt 0.166080326 0.548683584
vt 0.174372151 0.548683584
vt 0.174372151 0.526071727
vt 0.166080326 0.526071727
vt 0.218225688 0.488694072
vt 0.224551722 0.456802398
vt 0.221113116 0.451316416
vt 0.198754638 0.451316416
vt 0.201642051 0.488694072
vt 0.195316017 0.456802398
vn -0.859884 0.080384 -0.504121
vn -0.859884 0.080384 -0.504121
vn -0.919772 0.020791 -0.391901
vn -0.783029 0.138391 -0.606394
vn -0.000000 0.923077 -0.384615
vn -0.000000 0.923077 -0.384615
vn -0.000000 0.923077 -0.384615
vn -0.000000 0.923077 -0.384615
vn 0.859884 0.080384 -0.504121
vn 0.859884 0.080384 -0.504121
vn 0.783029 0.138391 -0.606394
vn 0.919772 0.020791 -0.391901
vn 0.859884 -0.080384 0.504121
vn 0.859884 -0.080384 0.504121
vn 0.783029 -0.138391 0.606394
vn 0.919772 -0.020791 0.391901
vn -0.000000 -0.923077 0.384615
vn -0.000000 -0.923077 0.384615
vn -0.000000 -0.923077 0.384615
vn -0.000000 -0.923077 0.384615
vn -0.859884 -0.080384 0.504121
vn -0.859884 -0.080384 0.504121
vn -0.783029 -0.138391 0.606394
vn -0.919772 -0.020791 0.391901
vn 0.866025 0.000000 0.500001
vn 0.866025 0.000000 0.500001
vn 0.866025 0.000000 0.500001
vn 0.866025 0.000000 0.500001
vn -0.000000 0.000000 1.000000
vn -0.000000 0.000000 1.000000
vn -0.000000 0.000000 1.000000
vn -0.000000 0.000000 1.000000
vn -0.866026 0.000000 0.499999
vn -0.866026 0.000000 0.499999
vn -0.866026 0.000000 0.499999
vn -0.866026 0.000000 0.499999
vn -0.866025 0.000000 -0.500001
vn -0.866025 0.000000 -0.500001
vn -0.866025 0.000000 -0.500001
vn -0.866025 0.000000 -0.500001
vn -0.000000 -1.000000 -0.000000
vn -0.000000 -1.000000 -0.000000
vn -0.000000 -1.000000 -0.000000
vn -0.000000 -1.000000 -0.000000
vn -0.000000 -1.000000 -0.000000
vn -0.000000 -1.000000 -0.000000
vn 0.866026 0.000000 -0.500000
vn 0.866026 0.000000 -0.500000
vn 0.866026 0.000000 -0.500000
vn 0.866026 0.000000 -0.500000
vn -0.000000 0.000000 -1.000000
vn -0.000000 0.000000 -1.000000
vn -0.000000 0.000000 -1.000000
vn -0.000000 0.000000 -1.000000
vn -0.000000 1.000000 -0.000000
vn -0.000000 1.000000 -0.000000
vn -0.000000 1.000000 -0.000000
vn -0.000000 1.000000 -0.000000
vn -0.000000 1.000000 -0.000000
vn -0.000000 1.000000 -0.000000
vn 0.182469 0.000000 0.983212
vn 0.535393 0.000000 0.844603
vn 0.535393 0.000000 0.844603
vn 0.182469 0.000000 0.983212
vn -0.196689 0.000000 0.980466
vn -0.196689 0.000000 0.980466
vn -0.000000 1.000000 -0.000000
vn -0.000000 1.000000 -0.000000
vn -0.000000 1.000000 -0.000000
vn -0.000000 1.000000 -0.000000
vn -0.000000 1.000000 -0.000000
vn -0.000000 1.000000 -0.000000
vn 0.182469 0.000000 -0.983212
vn -0.196689 0.000000 -0.980466
vn -0.196689 0.000000 -0.980466
vn 0.182469 0.000000 -0.983212
vn 0.535393 0.000000 -0.844603
vn 0.535393 0.000000 -0.844603
vn 1.000000 0.000000 -0.000000
vn 1.000000 0.000000 -0.000000
vn 1.000000 0.000000 -0.000000
vn 1.000000 0.000000 -0.000000
vn -0.000000 1.000000 -0.000000
vn -0.000000 1.000000 -0.000000
vn -0.000000 1.000000 -0.000000
vn -0.000000 1.000000 -0.000000
vn -0.000000 1.000000 -0.000000
vn -0.000000 1.000000 -0.000000
vn -0.182469 0.000000 0.983212
vn -0.535393 0.000000 0.844603
vn -0.535393 0.000000 0.844603
vn -0.182469 0.000000 0.983212
vn 0.196689 0.000000 0.980466
vn 0.196689 0.000000 0.980466
vn -0.000000 -1.000000 -0.000000
vn -0.000000 -1.000000 -0.000000
vn -0.000000 -1.000000 -0.000000
vn -0.000000 -1.000000 -0.000000
vn -0.000000 -1.000000 -0.000000
vn -0.000000 -1.000000 -0.000000
vn -0.182469 0.000000 -0.983212
vn 0.196689 0.000000 -0.980466
vn 0.196689 0.000000 -0.980466
vn -0.182469 0.000000 -0.983212
vn -0.535393 0.000000 -0.844603
vn -0.535393 0.000000 -0.844603
vn -1.000000 0.000000 -0.000000
vn -1.000000 0.000000 -0.000000
vn -1.000000 0.000000 -0.000000
vn -1.000000 0.000000 -0.000000
vn -0.000000 -1.000000 -0.000000
vn -0.000000 -1.000000 -0.000000
vn -0.000000 -1.000000 -0.000000
vn -0.000000 -1.000000 -0.000000
vn -0.000000 -1.000000 -0.000000
vn -0.000000 -1.000000 -0.000000
f 1/1/1 2/2/2 3/3/3
f 4/4/4 2/2/2 1/1/1
f 5/5/5 6/6/6 7/7/7
f 8/8/8 6/6/6 5/5/5
f 9/9/9 10/10/10 11/11/11
f 12/12/12 10/10/10 9/9/9
f 13/13/13 14/14/14 15/15/15
f 16/16/16 14/14/14 13/13/13
f 17/17/17 18/18/18 19/19/19
f 20/20/20 18/18/18 17/17/17
f 21/21/21 22/22/22 23/23/23
f 24/24/24 22/22/22 21/21/21
f 25/25/25 26/26/26 27/27/27
f 25/25/25 27/27/27 28/28/28
f 29/29/29 30/30/30 31/31/31
f 29/29/29 31/31/31 32/32/32
f 33/33/33 34/34/34 35/35/35
f 33/33/33 35/35/35 36/36/36
f 37/37/37 38/38/38 39/39/39
f 37/37/37 39/39/39 40/40/40
f 41/41/41 42/42/42 43/43/43
f 43/43/43 44/44/44 41/41/41
f 44/44/44 45/45/45 41/41/41
f 44/44/44 46/46/46 45/45/45
f 47/47/47 48/48/48 49/49/49
f 47/47/47 49/49/49 50/50/50
f 51/51/51 52/52/52 53/53/53
f 51/51/51 53/53/53 54/54/54
f 55/55/55 56/56/56 57/57/57
f 57/57/57 58/58/58 55/55/55
f 57/57/57 59/59/59 58/58/58
f 59/59/59 60/60/60 58/58/58
f 61/61/61 62/62/62 63/63/63
f 61/61/61 63/63/63 64/64/64
f 65/65/65 61/61/61 64/64/64
f 65/65/65 64/64/64 66/66/66
f 67/67/67 68/68/68 69/69/69
f 69/69/69 70/70/70 67/67/67
f 69/69/69 71/71/71 70/70/70
f 71/71/71 72/72/72 70/70/70
f 73/73/73 74/74/74 75/75/75
f 73/73/73 75/75/75 76/76/76
f 76/76/76 77/77/77 73/73/73
f 76/76/76 78/78/78 77/77/77
f 79/79/79 80/80/80 81/81/81
f 79/79/79 81/81/81 82/82/82
f 83/83/83 84/84/84 85/85/85
f 85/85/85 86/86/86 83/83/83
f 86/86/86 87/87/87 83/83/83
f 86/86/86 88/88/88 87/87/87
f 89/89/89 90/90/90 91/91/91
f 89/89/89 92/92/92 90/90/90
f 93/93/93 92/92/92 89/89/89
f 93/93/93 94/94/94 92/92/92
f 95/95/95 96/96/96 97/97/97
f 97/97/97 98/98/98 95/95/95
f 97/97/97 99/99/99 98/98/98
f 99/99/99 100/100/100 98/98/98
f 101/101/101 102/102/102 103/103/103
f 101/101/101 104/104/104 102/102/102
f 104/104/104 101/101/101 105/105/105
f 104/104/104 105/105/105 106/106/106
f 107/107/107 108/108/108 109/109/109
f 107/107/107 109/109/109 110/110/110
f 111/111/111 112/112/112 113/113/113
f 113/113/113 114/114/114 111/111/111
f 114/114/114 115/115/115 111/111/111
f 114/114/114 116/116/116 115/115/115
