# vest_aprix_1_vest (gear rip -> Godot: Z negated + winding reversed)
v -0.599443 -0.369915 -0.221400
v -0.796837 -0.369915 0.077963
v -0.796837 -0.369915 -0.221400
v -0.599443 -0.369915 0.077962
v -0.796837 -0.301590 0.148877
v -0.599443 -0.301590 0.148876
v -0.746837 -0.356236 -0.068932
v -0.819356 -0.356236 0.071057
v -0.819356 -0.356236 -0.068932
v -0.746837 -0.356236 0.071056
v -0.599443 0.369916 -0.221399
v -0.599443 0.233308 -0.221399
v -0.796837 0.369916 -0.221399
v -0.663605 0.165025 -0.221399
v -0.796837 0.165025 -0.221399
v -0.663605 -0.165025 0.148877
v -0.796837 -0.165024 -0.221399
v -0.796837 -0.165025 0.148877
v -0.663605 -0.165024 -0.221400
v -1.017990 0.401173 0.016891
v -1.035823 0.374465 -0.031550
v -1.035823 0.374465 0.016891
v -1.017990 0.401173 -0.031550
v -0.819356 -0.356236 -0.068932
v -0.819356 -0.356236 0.071057
v -0.819356 -0.217448 -0.068931
v -0.819356 -0.327161 0.099668
v -0.819356 -0.217448 0.099668
v -0.746837 0.217448 0.099669
v -0.819356 0.327161 0.099669
v -0.819356 0.217448 0.099669
v -0.746837 0.327161 0.099669
v -0.819356 0.356236 0.071058
v -0.746837 0.356236 0.071057
v -0.599443 0.233307 0.148877
v -0.599443 0.369916 0.077964
v -0.599443 0.301590 0.148877
v -0.599443 0.233308 -0.221399
v -0.599443 0.369916 -0.221399
v -0.663604 0.165024 0.148877
v -0.663605 0.165025 -0.221399
v -1.017990 -0.401173 0.016890
v -0.890127 -0.248070 0.041110
v -1.035823 -0.374465 0.016890
v -0.829671 -0.338079 0.041110
v -0.738987 -0.210121 0.041110
v -0.738987 -0.339307 0.041109
v -0.806926 -0.317448 -0.013765
v -0.615945 -0.217448 -0.218294
v -0.806926 -0.217448 -0.013765
v -0.615945 -0.317448 -0.218294
v -1.035823 -0.374465 0.016890
v -0.890127 -0.248070 -0.055771
v -1.035823 -0.374465 -0.031551
v -0.890127 -0.248070 0.041110
v -0.738987 -0.210121 0.041110
v -0.738987 -0.210121 -0.055771
v -0.599443 0.301590 0.148877
v -0.796837 0.301590 0.148877
v -0.599443 0.233307 0.148877
v -0.663604 0.165024 0.148877
v -0.796837 0.165024 0.148877
v -0.746837 -0.217448 -0.068932
v -0.819356 -0.356236 -0.068932
v -0.819356 -0.217448 -0.068931
v -0.746837 -0.356236 -0.068932
v -0.835730 -0.317448 -0.187379
v -0.615945 -0.317448 -0.218294
v -0.806926 -0.317448 -0.013765
v -0.765019 -0.317448 -0.258089
v -1.017990 0.401173 -0.031550
v -0.890127 0.248070 -0.055770
v -1.035823 0.374465 -0.031550
v -0.829671 0.338079 -0.055770
v -0.738987 0.210121 -0.055771
v -0.738987 0.339307 -0.055770
v -0.599443 -0.369915 -0.221400
v -0.796837 -0.369915 -0.221400
v -0.599443 -0.233307 -0.221400
v -0.663605 -0.165024 -0.221400
v -0.796837 -0.165024 -0.221399
v -0.835730 0.217449 -0.187378
v -0.615945 0.217449 -0.218293
v -0.806926 0.217449 -0.013764
v -0.765019 0.217449 -0.258088
v -0.599443 -0.233307 0.148876
v -0.663605 -0.165024 -0.221400
v -0.663605 -0.165025 0.148877
v -0.599443 -0.233307 -0.221400
v -0.599443 -0.369915 0.077962
v -0.599443 -0.369915 -0.221400
v -0.599443 -0.301590 0.148876
v -0.806926 0.317449 -0.013764
v -0.835730 0.217449 -0.187378
v -0.806926 0.217449 -0.013764
v -0.835730 0.317449 -0.187377
v -1.035823 -0.374465 0.016890
v -1.017990 -0.401173 -0.031551
v -1.017990 -0.401173 0.016890
v -1.035823 -0.374465 -0.031551
v -0.615945 -0.217448 -0.218294
v -0.835730 -0.217448 -0.187378
v -0.806926 -0.217448 -0.013765
v -0.765019 -0.217448 -0.258089
v -0.615945 0.317449 -0.218293
v -0.765019 0.217449 -0.258088
v -0.765019 0.317449 -0.258088
v -0.615945 0.217449 -0.218293
v -0.887480 0.252917 -0.367129
v -0.887480 0.281981 -0.367129
v -0.813694 0.296513 -0.273557
v -0.813694 0.238385 -0.273557
v -0.767771 0.238385 -0.244364
v -0.767771 0.296513 -0.244364
v -0.887480 -0.281980 -0.367130
v -0.873626 -0.296512 -0.248251
v -0.905211 -0.281980 -0.359586
v -0.813694 -0.296512 -0.273558
v -0.810236 -0.296512 -0.179521
v -0.767771 -0.296512 -0.244365
v -0.887480 0.252917 -0.367129
v -0.873626 0.238385 -0.248250
v -0.905210 0.252917 -0.359585
v -0.813694 0.238385 -0.273557
v -0.810236 0.238385 -0.179520
v -0.767771 0.238385 -0.244364
v -0.819356 -0.217448 -0.068931
v -0.746837 -0.217448 0.099668
v -0.746837 -0.217448 -0.068932
v -0.819356 -0.217448 0.099668
v -0.765019 -0.217448 -0.258089
v -0.835730 -0.317448 -0.187379
v -0.835730 -0.217448 -0.187378
v -0.765019 -0.317448 -0.258089
v -0.796837 0.369916 -0.221399
v -0.796837 0.165025 -0.221399
v -0.796837 0.369916 0.077964
v -0.796837 0.165024 0.148877
v -0.796837 0.301590 0.148877
v -0.796837 -0.165025 0.148877
v -0.796837 -0.369915 0.077963
v -0.796837 -0.301590 0.148877
v -0.796837 -0.165024 -0.221399
v -0.796837 -0.369915 -0.221400
v -0.887480 0.281981 -0.367129
v -0.905210 0.281981 -0.359585
v -0.873626 0.296513 -0.248249
v -0.813694 0.296513 -0.273557
v -0.810236 0.296513 -0.179520
v -0.767771 0.296513 -0.244364
v -0.746837 0.356236 0.071057
v -0.819356 0.356237 -0.068931
v -0.819356 0.356236 0.071058
v -0.746837 0.356237 -0.068931
v -0.663605 0.165025 -0.221399
v -0.796837 0.165024 0.148877
v -0.796837 0.165025 -0.221399
v -0.663604 0.165024 0.148877
v -1.017990 -0.401173 -0.031551
v -0.829671 -0.338079 0.041110
v -1.017990 -0.401173 0.016890
v -0.829671 -0.338079 -0.055771
v -0.738987 -0.339307 -0.055771
v -0.738987 -0.339307 0.041109
v -0.829671 0.338079 0.041111
v -0.738987 0.210121 0.041110
v -0.738987 0.339307 0.041111
v -0.890127 0.248070 0.041111
v -1.017990 0.401173 0.016891
v -1.035823 0.374465 0.016891
v -0.599443 0.301590 0.148877
v -0.796837 0.369916 0.077964
v -0.796837 0.301590 0.148877
v -0.599443 0.369916 0.077964
v -0.796837 0.369916 -0.221399
v -0.599443 0.369916 -0.221399
v -0.746837 0.356237 -0.068931
v -0.819356 0.217449 -0.068931
v -0.819356 0.356237 -0.068931
v -0.746837 0.217449 -0.068931
v -0.887480 0.281981 -0.367129
v -0.905210 0.252917 -0.359585
v -0.905210 0.281981 -0.359585
v -0.887480 0.252917 -0.367129
v -0.905211 -0.281980 -0.359586
v -0.887480 -0.252916 -0.367130
v -0.887480 -0.281980 -0.367130
v -0.905211 -0.252916 -0.359586
v -0.746837 0.217449 -0.068931
v -0.819356 0.217448 0.099669
v -0.819356 0.217449 -0.068931
v -0.746837 0.217448 0.099669
v -0.819356 0.217448 0.099669
v -0.819356 0.327161 0.099669
v -0.819356 0.217449 -0.068931
v -0.819356 0.356236 0.071058
v -0.819356 0.356237 -0.068931
v -0.806926 0.217449 -0.013764
v -0.615945 0.317449 -0.218293
v -0.806926 0.317449 -0.013764
v -0.615945 0.217449 -0.218293
v -0.738987 0.339307 0.041111
v -0.738987 0.339307 -0.055770
v -0.829671 0.338079 -0.055770
v -0.829671 0.338079 0.041111
v -1.017990 0.401173 0.016891
v -1.017990 0.401173 -0.031550
v -0.873626 0.296513 -0.248249
v -0.810236 0.238385 -0.179520
v -0.810236 0.296513 -0.179520
v -0.873626 0.238385 -0.248250
v -0.905210 0.281981 -0.359585
v -0.905210 0.252917 -0.359585
v -0.746837 -0.356236 0.071056
v -0.819356 -0.327161 0.099668
v -0.819356 -0.356236 0.071057
v -0.746837 -0.327161 0.099668
v -0.819356 -0.217448 0.099668
v -0.746837 -0.217448 0.099668
v -0.829671 -0.338079 -0.055771
v -0.738987 -0.210121 -0.055771
v -0.738987 -0.339307 -0.055771
v -0.890127 -0.248070 -0.055771
v -1.017990 -0.401173 -0.031551
v -1.035823 -0.374465 -0.031551
v -0.835730 0.317449 -0.187377
v -0.765019 0.317449 -0.258088
v -0.765019 0.217449 -0.258088
v -0.835730 0.217449 -0.187378
v -0.738987 0.210121 -0.055771
v -0.738987 0.210121 0.041110
v -0.890127 0.248070 0.041111
v -0.890127 0.248070 -0.055770
v -1.035823 0.374465 -0.031550
v -1.035823 0.374465 0.016891
v -0.599443 -0.301590 0.148876
v -0.599443 -0.233307 0.148876
v -0.796837 -0.301590 0.148877
v -0.663605 -0.165025 0.148877
v -0.796837 -0.165025 0.148877
v -0.813694 -0.238384 -0.273558
v -0.810236 -0.238384 -0.179521
v -0.767771 -0.238384 -0.244365
v -0.873626 -0.238384 -0.248250
v -0.887480 -0.252916 -0.367130
v -0.905211 -0.252916 -0.359586
v -0.835730 -0.217448 -0.187378
v -0.806926 -0.317448 -0.013765
v -0.806926 -0.217448 -0.013765
v -0.835730 -0.317448 -0.187379
v -0.905211 -0.281980 -0.359586
v -0.873626 -0.238384 -0.248250
v -0.905211 -0.252916 -0.359586
v -0.873626 -0.296512 -0.248251
v -0.810236 -0.296512 -0.179521
v -0.810236 -0.238384 -0.179521
v -0.615945 -0.217448 -0.218294
v -0.765019 -0.317448 -0.258089
v -0.765019 -0.217448 -0.258089
v -0.615945 -0.317448 -0.218294
v -0.887480 -0.281980 -0.367130
v -0.887480 -0.252916 -0.367130
v -0.813694 -0.238384 -0.273558
v -0.813694 -0.296512 -0.273558
v -0.767771 -0.238384 -0.244365
v -0.767771 -0.296512 -0.244365
v -0.615945 0.317449 -0.218293
v -0.835730 0.317449 -0.187377
v -0.806926 0.317449 -0.013764
v -0.765019 0.317449 -0.258088
vt 0.749676108 0.74447459
vt 0.749676108 0.74447459
vt 0.749676108 0.74447459
vt 0.749676108 0.74447459
vt 0.749676108 0.74447459
vt 0.749676108 0.74447459
vt 0.252276927 0.736024499
vt 0.252276927 0.736024499
vt 0.252276927 0.736024499
vt 0.252276927 0.736024499
vt 0.749676108 0.74447459
vt 0.749676108 0.74447459
vt 0.749676108 0.74447459
vt 0.749676108 0.74447459
vt 0.749676108 0.74447459
vt 0.749676108 0.74447459
vt 0.749676108 0.74447459
vt 0.749676108 0.74447459
vt 0.749676108 0.74447459
vt 0.765280843 0.234719098
vt 0.765280843 0.234719098
vt 0.765280843 0.234719098
vt 0.765280843 0.234719098
vt 0.252276927 0.736024499
vt 0.252276927 0.736024499
vt 0.252276927 0.736024499
vt 0.252276927 0.736024499
vt 0.252276927 0.736024499
vt 0.252276927 0.736024499
vt 0.252276927 0.736024499
vt 0.252276927 0.736024499
vt 0.252276927 0.736024499
vt 0.252276927 0.736024499
vt 0.252276927 0.736024499
vt 0.749676108 0.74447459
vt 0.749676108 0.74447459
vt 0.749676108 0.74447459
vt 0.749676108 0.74447459
vt 0.749676108 0.74447459
vt 0.749676108 0.74447459
vt 0.749676108 0.74447459
vt 0.765280843 0.234719098
vt 0.765280843 0.234719098
vt 0.765280843 0.234719098
vt 0.765280843 0.234719098
vt 0.765280843 0.234719098
vt 0.765280843 0.234719098
vt 0.241873771 0.730822921
vt 0.241873771 0.730822921
vt 0.241873771 0.730822921
vt 0.241873771 0.730822921
vt 0.765280843 0.234719098
vt 0.765280843 0.234719098
vt 0.765280843 0.234719098
vt 0.765280843 0.234719098
vt 0.765280843 0.234719098
vt 0.765280843 0.234719098
vt 0.749676108 0.74447459
vt 0.749676108 0.74447459
vt 0.749676108 0.74447459
vt 0.749676108 0.74447459
vt 0.749676108 0.74447459
vt 0.252276927 0.736024499
vt 0.252276927 0.736024499
vt 0.252276927 0.736024499
vt 0.252276927 0.736024499
vt 0.25552541 0.740513325
vt 0.25552541 0.740513325
vt 0.25552541 0.740513325
vt 0.25552541 0.740513325
vt 0.765280843 0.234719098
vt 0.765280843 0.234719098
vt 0.765280843 0.234719098
vt 0.765280843 0.234719098
vt 0.765280843 0.234719098
vt 0.765280843 0.234719098
vt 0.749676108 0.74447459
vt 0.749676108 0.74447459
vt 0.749676108 0.74447459
vt 0.749676108 0.74447459
vt 0.749676108 0.74447459
vt 0.25552541 0.740513325
vt 0.25552541 0.740513325
vt 0.25552541 0.740513325
vt 0.25552541 0.740513325
vt 0.749676108 0.74447459
vt 0.749676108 0.74447459
vt 0.749676108 0.74447459
vt 0.749676108 0.74447459
vt 0.749676108 0.74447459
vt 0.749676108 0.74447459
vt 0.749676108 0.74447459
vt 0.25552541 0.740513325
vt 0.25552541 0.740513325
vt 0.25552541 0.740513325
vt 0.25552541 0.740513325
vt 0.765280843 0.234719098
vt 0.765280843 0.234719098
vt 0.765280843 0.234719098
vt 0.765280843 0.234719098
vt 0.25552541 0.740513325
vt 0.25552541 0.740513325
vt 0.25552541 0.740513325
vt 0.25552541 0.740513325
vt 0.25552541 0.740513325
vt 0.25552541 0.740513325
vt 0.25552541 0.740513325
vt 0.25552541 0.740513325
vt 0.765280843 0.234719098
vt 0.765280843 0.234719098
vt 0.765280843 0.234719098
vt 0.765280843 0.234719098
vt 0.765280843 0.234719098
vt 0.765280843 0.234719098
vt 0.765280843 0.234719098
vt 0.765280843 0.234719098
vt 0.765280843 0.234719098
vt 0.765280843 0.234719098
vt 0.765280843 0.234719098
vt 0.765280843 0.234719098
vt 0.765280843 0.234719098
vt 0.765280843 0.234719098
vt 0.765280843 0.234719098
vt 0.765280843 0.234719098
vt 0.765280843 0.234719098
vt 0.765280843 0.234719098
vt 0.252276927 0.736024499
vt 0.252276927 0.736024499
vt 0.252276927 0.736024499
vt 0.252276927 0.736024499
vt 0.25552541 0.740513325
vt 0.25552541 0.740513325
vt 0.25552541 0.740513325
vt 0.25552541 0.740513325
vt 0.749676108 0.74447459
vt 0.749676108 0.74447459
vt 0.749676108 0.74447459
vt 0.749676108 0.74447459
vt 0.749676108 0.74447459
vt 0.749676108 0.74447459
vt 0.749676108 0.74447459
vt 0.749676108 0.74447459
vt 0.749676108 0.74447459
vt 0.749676108 0.74447459
vt 0.765280843 0.234719098
vt 0.765280843 0.234719098
vt 0.765280843 0.234719098
vt 0.765280843 0.234719098
vt 0.765280843 0.234719098
vt 0.765280843 0.234719098
vt 0.252276927 0.736024499
vt 0.252276927 0.736024499
vt 0.252276927 0.736024499
vt 0.252276927 0.736024499
vt 0.749676108 0.74447459
vt 0.749676108 0.74447459
vt 0.749676108 0.74447459
vt 0.749676108 0.74447459
vt 0.765280843 0.234719098
vt 0.765280843 0.234719098
vt 0.765280843 0.234719098
vt 0.765280843 0.234719098
vt 0.765280843 0.234719098
vt 0.765280843 0.234719098
vt 0.765280843 0.234719098
vt 0.765280843 0.234719098
vt 0.765280843 0.234719098
vt 0.765280843 0.234719098
vt 0.765280843 0.234719098
vt 0.765280843 0.234719098
vt 0.749676108 0.74447459
vt 0.749676108 0.74447459
vt 0.749676108 0.74447459
vt 0.749676108 0.74447459
vt 0.749676108 0.74447459
vt 0.749676108 0.74447459
vt 0.252276927 0.736024499
vt 0.252276927 0.736024499
vt 0.252276927 0.736024499
vt 0.252276927 0.736024499
vt 0.765280843 0.234719098
vt 0.765280843 0.234719098
vt 0.765280843 0.234719098
vt 0.765280843 0.234719098
vt 0.765280843 0.234719098
vt 0.765280843 0.234719098
vt 0.765280843 0.234719098
vt 0.765280843 0.234719098
vt 0.252276927 0.736024499
vt 0.252276927 0.736024499
vt 0.252276927 0.736024499
vt 0.252276927 0.736024499
vt 0.252276927 0.736024499
vt 0.252276927 0.736024499
vt 0.252276927 0.736024499
vt 0.252276927 0.736024499
vt 0.252276927 0.736024499
vt 0.241873771 0.730822921
vt 0.241873771 0.730822921
vt 0.241873771 0.730822921
vt 0.241873771 0.730822921
vt 0.765280843 0.234719098
vt 0.765280843 0.234719098
vt 0.765280843 0.234719098
vt 0.765280843 0.234719098
vt 0.765280843 0.234719098
vt 0.765280843 0.234719098
vt 0.765280843 0.234719098
vt 0.765280843 0.234719098
vt 0.765280843 0.234719098
vt 0.765280843 0.234719098
vt 0.765280843 0.234719098
vt 0.765280843 0.234719098
vt 0.252276927 0.736024499
vt 0.252276927 0.736024499
vt 0.252276927 0.736024499
vt 0.252276927 0.736024499
vt 0.252276927 0.736024499
vt 0.252276927 0.736024499
vt 0.765280843 0.234719098
vt 0.765280843 0.234719098
vt 0.765280843 0.234719098
vt 0.765280843 0.234719098
vt 0.765280843 0.234719098
vt 0.765280843 0.234719098
vt 0.25552541 0.740513325
vt 0.25552541 0.740513325
vt 0.25552541 0.740513325
vt 0.25552541 0.740513325
vt 0.765280843 0.234719098
vt 0.765280843 0.234719098
vt 0.765280843 0.234719098
vt 0.765280843 0.234719098
vt 0.765280843 0.234719098
vt 0.765280843 0.234719098
vt 0.749676108 0.74447459
vt 0.749676108 0.74447459
vt 0.749676108 0.74447459
vt 0.749676108 0.74447459
vt 0.749676108 0.74447459
vt 0.765280843 0.234719098
vt 0.765280843 0.234719098
vt 0.765280843 0.234719098
vt 0.765280843 0.234719098
vt 0.765280843 0.234719098
vt 0.765280843 0.234719098
vt 0.25552541 0.740513325
vt 0.25552541 0.740513325
vt 0.25552541 0.740513325
vt 0.25552541 0.740513325
vt 0.765280843 0.234719098
vt 0.765280843 0.234719098
vt 0.765280843 0.234719098
vt 0.765280843 0.234719098
vt 0.765280843 0.234719098
vt 0.765280843 0.234719098
vt 0.25552541 0.740513325
vt 0.25552541 0.740513325
vt 0.25552541 0.740513325
vt 0.25552541 0.740513325
vt 0.765280843 0.234719098
vt 0.765280843 0.234719098
vt 0.765280843 0.234719098
vt 0.765280843 0.234719098
vt 0.765280843 0.234719098
vt 0.765280843 0.234719098
vt 0.25552541 0.740513325
vt 0.25552541 0.740513325
vt 0.25552541 0.740513325
vt 0.25552541 0.740513325
vn -0.000000 -1.000000 -0.000001
vn 0.000000 -0.968974 0.247163
vn -0.000000 -1.000000 -0.000001
vn 0.000001 -0.869276 0.494327
vn 0.000001 -0.720126 0.693843
vn 0.000001 -0.720126 0.693843
vn -0.000000 -1.000000 -0.000001
vn -0.000000 -1.000000 -0.000001
vn -0.000000 -1.000000 -0.000001
vn -0.000000 -1.000000 -0.000001
vn -0.000002 0.000001 -1.000000
vn -0.000002 0.000001 -1.000000
vn -0.000002 0.000001 -1.000000
vn -0.000002 0.000001 -1.000000
vn -0.000002 0.000001 -1.000000
vn 0.000000 1.000000 0.000001
vn 0.000000 1.000000 0.000001
vn 0.000000 1.000000 0.000001
vn 0.000000 1.000000 0.000001
vn -0.831648 0.555304 0.000002
vn -0.831648 0.555304 0.000002
vn -0.831648 0.555304 0.000002
vn -0.831648 0.555304 0.000002
vn -1.000000 -0.000000 0.000002
vn -1.000000 -0.000000 0.000002
vn -1.000000 -0.000000 0.000002
vn -1.000000 -0.000000 0.000002
vn -1.000000 -0.000000 0.000002
vn 0.000002 -0.000001 1.000000
vn 0.000002 0.250321 0.968163
vn 0.000002 -0.000001 1.000000
vn 0.000001 0.500644 0.865654
vn 0.000001 0.701397 0.712771
vn 0.000001 0.701397 0.712771
vn 0.969926 -0.243401 -0.000002
vn 1.000000 0.000000 -0.000002
vn 1.000000 0.000000 -0.000002
vn 0.929719 -0.368270 -0.000002
vn 1.000000 0.000000 -0.000002
vn 0.728754 -0.684776 -0.000002
vn 0.728754 -0.684776 -0.000002
vn -0.104292 -0.069846 0.992091
vn -0.069650 -0.046647 0.996480
vn -0.104428 -0.069731 0.992085
vn -0.034779 -0.023362 0.999122
vn 0.000002 -0.000001 1.000000
vn 0.000002 -0.000001 1.000000
vn 0.730900 -0.000001 0.682485
vn 0.730900 -0.000001 0.682485
vn 0.730900 -0.000001 0.682485
vn 0.730900 -0.000001 0.682485
vn -0.655303 0.755366 0.000002
vn -0.462036 0.886861 0.000002
vn -0.655303 0.755366 0.000002
vn -0.462036 0.886861 0.000002
vn -0.243522 0.969895 0.000002
vn -0.243522 0.969895 0.000002
vn 0.000002 -0.000001 1.000000
vn 0.000002 -0.000001 1.000000
vn 0.000002 -0.000001 1.000000
vn 0.000002 -0.000001 1.000000
vn 0.000002 -0.000001 1.000000
vn -0.000002 0.000001 -1.000000
vn -0.000002 0.000001 -1.000000
vn -0.000002 0.000001 -1.000000
vn -0.000002 0.000001 -1.000000
vn -0.000000 -1.000000 -0.000001
vn -0.000000 -1.000000 -0.000001
vn -0.000000 -1.000000 -0.000001
vn -0.000000 -1.000000 -0.000001
vn -0.104295 0.069846 -0.992091
vn -0.069653 0.046646 -0.996480
vn -0.104432 0.069731 -0.992085
vn -0.034782 0.023362 -0.999122
vn -0.000002 0.000001 -1.000000
vn -0.000002 0.000001 -1.000000
vn -0.000002 0.000001 -1.000000
vn -0.000002 0.000001 -1.000000
vn -0.000002 0.000001 -1.000000
vn -0.000002 0.000001 -1.000000
vn -0.000002 0.000001 -1.000000
vn -0.000000 -1.000000 -0.000001
vn -0.000000 -1.000000 -0.000001
vn -0.000000 -1.000000 -0.000001
vn -0.000000 -1.000000 -0.000001
vn 0.929719 0.368270 -0.000001
vn 0.728754 0.684776 -0.000000
vn 0.728754 0.684776 -0.000000
vn 0.969926 0.243401 -0.000001
vn 1.000000 0.000000 -0.000002
vn 1.000000 0.000000 -0.000002
vn 1.000000 0.000000 -0.000002
vn -0.986515 -0.000000 0.163669
vn -0.986515 -0.000000 0.163669
vn -0.986515 -0.000000 0.163669
vn -0.986515 -0.000000 0.163669
vn -0.831644 -0.555309 0.000001
vn -0.831644 -0.555309 0.000001
vn -0.831644 -0.555309 0.000001
vn -0.831644 -0.555309 0.000001
vn 0.000000 1.000000 0.000001
vn 0.000000 1.000000 0.000001
vn 0.000000 1.000000 0.000001
vn 0.000000 1.000000 0.000001
vn 0.257920 0.000001 -0.966166
vn 0.257920 0.000001 -0.966166
vn 0.257920 0.000001 -0.966166
vn 0.257920 0.000001 -0.966166
vn 0.785234 0.000001 -0.619199
vn 0.785234 0.000001 -0.619199
vn 0.670336 0.000001 -0.742058
vn 0.670336 0.000001 -0.742058
vn 0.536471 0.000001 -0.843919
vn 0.536471 0.000001 -0.843919
vn -0.048985 -0.992091 -0.115569
vn -0.032714 -0.996480 -0.077182
vn -0.049162 -0.992085 -0.115548
vn -0.016298 -0.999122 -0.038599
vn -0.000000 -1.000000 -0.000001
vn -0.000000 -1.000000 -0.000001
vn -0.048985 -0.992091 -0.115569
vn -0.032715 -0.996480 -0.077182
vn -0.049162 -0.992085 -0.115548
vn -0.016298 -0.999122 -0.038599
vn -0.000000 -1.000000 -0.000001
vn -0.000000 -1.000000 -0.000001
vn 0.000000 1.000000 0.000001
vn 0.000000 1.000000 0.000001
vn 0.000000 1.000000 0.000001
vn 0.000000 1.000000 0.000001
vn -0.707108 0.000001 -0.707105
vn -0.707108 0.000001 -0.707105
vn -0.707108 0.000001 -0.707105
vn -0.707108 0.000001 -0.707106
vn -1.000000 -0.000000 0.000002
vn -1.000000 -0.000000 0.000002
vn -1.000000 -0.000000 0.000002
vn -1.000000 -0.000000 0.000002
vn -1.000000 -0.000000 0.000002
vn -1.000000 -0.000000 0.000002
vn -1.000000 -0.000000 0.000002
vn -1.000000 -0.000000 0.000002
vn -1.000000 -0.000000 0.000002
vn -1.000000 -0.000000 0.000002
vn -0.048985 0.992091 -0.115566
vn -0.049162 0.992085 -0.115545
vn -0.032714 0.996480 -0.077179
vn -0.016298 0.999122 -0.038596
vn 0.000000 1.000000 0.000001
vn 0.000000 1.000000 0.000001
vn 0.000000 1.000000 0.000001
vn 0.000000 1.000000 0.000001
vn 0.000000 1.000000 0.000001
vn 0.000000 1.000000 0.000001
vn -0.000000 -1.000000 -0.000001
vn -0.000000 -1.000000 -0.000001
vn -0.000000 -1.000000 -0.000001
vn -0.000000 -1.000000 -0.000001
vn 0.317682 -0.948197 -0.000002
vn 0.154254 -0.988031 -0.000002
vn 0.317682 -0.948197 -0.000002
vn 0.154254 -0.988031 -0.000002
vn -0.013539 -0.999908 -0.000001
vn -0.013539 -0.999908 -0.000001
vn -0.034779 0.023359 0.999122
vn 0.000002 -0.000001 1.000000
vn 0.000002 -0.000001 1.000000
vn -0.069650 0.046644 0.996480
vn -0.104292 0.069843 0.992091
vn -0.104428 0.069728 0.992085
vn 0.000001 0.720124 0.693846
vn 0.000001 0.869275 0.494330
vn 0.000001 0.720124 0.693846
vn 0.000000 0.968973 0.247166
vn 0.000000 1.000000 0.000001
vn 0.000000 1.000000 0.000001
vn -0.000002 0.000001 -1.000000
vn -0.000002 0.000001 -1.000000
vn -0.000002 0.000001 -1.000000
vn -0.000002 0.000001 -1.000000
vn -0.391511 0.000001 -0.920173
vn -0.391511 0.000001 -0.920173
vn -0.391511 0.000001 -0.920173
vn -0.391511 0.000001 -0.920173
vn -0.391509 0.000001 -0.920174
vn -0.391509 0.000001 -0.920174
vn -0.391509 0.000001 -0.920174
vn -0.391509 0.000001 -0.920174
vn -0.000000 -1.000000 -0.000001
vn -0.000000 -1.000000 -0.000001
vn -0.000000 -1.000000 -0.000001
vn -0.000000 -1.000000 -0.000001
vn -1.000000 -0.000000 0.000002
vn -1.000000 -0.000000 0.000002
vn -1.000000 -0.000000 0.000002
vn -1.000000 -0.000000 0.000002
vn -1.000000 -0.000000 0.000002
vn 0.730900 -0.000001 0.682485
vn 0.730900 -0.000001 0.682485
vn 0.730900 -0.000001 0.682485
vn 0.730900 -0.000001 0.682485
vn -0.013539 0.999908 0.000001
vn -0.013539 0.999908 0.000001
vn 0.154253 0.988031 0.000001
vn 0.154253 0.988031 0.000001
vn 0.317681 0.948198 0.000001
vn 0.317681 0.948198 0.000001
vn -0.830881 -0.000001 0.556450
vn -0.735082 -0.000001 0.677978
vn -0.735082 -0.000001 0.677978
vn -0.908413 -0.000001 0.418074
vn -0.962038 -0.000000 0.272916
vn -0.962038 -0.000000 0.272916
vn 0.000001 -0.701399 0.712769
vn 0.000001 -0.500646 0.865652
vn 0.000001 -0.701399 0.712769
vn 0.000001 -0.250324 0.968162
vn 0.000002 -0.000001 1.000000
vn 0.000002 -0.000001 1.000000
vn -0.034782 -0.023359 -0.999122
vn -0.000002 0.000001 -1.000000
vn -0.000002 0.000001 -1.000000
vn -0.069653 -0.046644 -0.996480
vn -0.104295 -0.069843 -0.992091
vn -0.104431 -0.069729 -0.992085
vn -0.707108 0.000001 -0.707105
vn -0.707108 0.000001 -0.707105
vn -0.707108 0.000001 -0.707105
vn -0.707108 0.000001 -0.707105
vn -0.243523 -0.969895 -0.000001
vn -0.243523 -0.969895 -0.000001
vn -0.462036 -0.886861 -0.000000
vn -0.462036 -0.886861 -0.000000
vn -0.655302 -0.755367 0.000000
vn -0.655302 -0.755367 0.000000
vn 0.000002 -0.000001 1.000000
vn 0.000002 -0.000001 1.000000
vn 0.000002 -0.000001 1.000000
vn 0.000002 -0.000001 1.000000
vn 0.000002 -0.000001 1.000000
vn -0.016298 0.999122 -0.038596
vn 0.000000 1.000000 0.000001
vn 0.000000 1.000000 0.000001
vn -0.032714 0.996480 -0.077179
vn -0.048985 0.992091 -0.115566
vn -0.049161 0.992085 -0.115544
vn -0.986515 -0.000000 0.163668
vn -0.986515 -0.000000 0.163668
vn -0.986515 -0.000000 0.163668
vn -0.986515 -0.000000 0.163668
vn -0.962038 -0.000000 0.272916
vn -0.872395 -0.000001 0.488802
vn -0.962038 -0.000000 0.272916
vn -0.872395 -0.000001 0.488802
vn -0.735082 -0.000001 0.677979
vn -0.735082 -0.000001 0.677979
vn 0.257920 0.000001 -0.966166
vn 0.257920 0.000001 -0.966166
vn 0.257920 0.000001 -0.966166
vn 0.257920 0.000001 -0.966166
vn 0.785234 0.000001 -0.619199
vn 0.785234 0.000001 -0.619199
vn 0.711251 0.000001 -0.702938
vn 0.627275 0.000001 -0.778798
vn 0.536472 0.000001 -0.843918
vn 0.536472 0.000001 -0.843918
vn 0.000000 1.000000 0.000001
vn 0.000000 1.000000 0.000001
vn 0.000000 1.000000 0.000001
vn 0.000000 1.000000 0.000001
f 1/1/1 2/2/2 3/3/3
f 1/1/1 4/4/4 2/2/2
f 4/4/4 5/5/5 2/2/2
f 4/4/4 6/6/6 5/5/5
f 7/7/7 8/8/8 9/9/9
f 7/7/7 10/10/10 8/8/8
f 11/11/11 12/12/12 13/13/13
f 14/14/14 13/13/13 12/12/12
f 15/15/15 13/13/13 14/14/14
f 16/16/16 17/17/17 18/18/18
f 16/16/16 19/19/19 17/17/17
f 20/20/20 21/21/21 22/22/22
f 20/20/20 23/23/23 21/21/21
f 24/24/24 25/25/25 26/26/26
f 27/27/27 26/26/26 25/25/25
f 28/28/28 26/26/26 27/27/27
f 29/29/29 30/30/30 31/31/31
f 29/29/29 32/32/32 30/30/30
f 33/33/33 30/30/30 32/32/32
f 33/33/33 32/32/32 34/34/34
f 35/35/35 36/36/36 37/37/37
f 38/38/38 36/36/36 35/35/35
f 36/36/36 38/38/38 39/39/39
f 40/40/40 38/38/38 35/35/35
f 40/40/40 41/41/41 38/38/38
f 42/42/42 43/43/43 44/44/44
f 42/42/42 45/45/45 43/43/43
f 46/46/46 43/43/43 45/45/45
f 46/46/46 45/45/45 47/47/47
f 48/48/48 49/49/49 50/50/50
f 48/48/48 51/51/51 49/49/49
f 52/52/52 53/53/53 54/54/54
f 52/52/52 55/55/55 53/53/53
f 56/56/56 53/53/53 55/55/55
f 56/56/56 57/57/57 53/53/53
f 58/58/58 59/59/59 60/60/60
f 61/61/61 60/60/60 59/59/59
f 61/61/61 59/59/59 62/62/62
f 63/63/63 64/64/64 65/65/65
f 63/63/63 66/66/66 64/64/64
f 67/67/67 68/68/68 69/69/69
f 67/67/67 70/70/70 68/68/68
f 71/71/71 72/72/72 73/73/73
f 71/71/71 74/74/74 72/72/72
f 75/75/75 72/72/72 74/74/74
f 75/75/75 74/74/74 76/76/76
f 77/77/77 78/78/78 79/79/79
f 79/79/79 78/78/78 80/80/80
f 81/81/81 80/80/80 78/78/78
f 82/82/82 83/83/83 84/84/84
f 82/82/82 85/85/85 83/83/83
f 86/86/86 87/87/87 88/88/88
f 86/86/86 89/89/89 87/87/87
f 90/90/90 89/89/89 86/86/86
f 89/89/89 90/90/90 91/91/91
f 90/90/90 86/86/86 92/92/92
f 93/93/93 94/94/94 95/95/95
f 93/93/93 96/96/96 94/94/94
f 97/97/97 98/98/98 99/99/99
f 97/97/97 100/100/100 98/98/98
f 101/101/101 102/102/102 103/103/103
f 101/101/101 104/104/104 102/102/102
f 105/105/105 106/106/106 107/107/107
f 105/105/105 108/108/108 106/106/106
f 109/109/109 110/110/110 111/111/111
f 109/109/109 111/111/111 112/112/112
f 113/113/113 112/112/112 111/111/111
f 113/113/113 111/111/111 114/114/114
f 115/115/115 116/116/116 117/117/117
f 115/115/115 118/118/118 116/116/116
f 119/119/119 116/116/116 118/118/118
f 119/119/119 118/118/118 120/120/120
f 121/121/121 122/122/122 123/123/123
f 121/121/121 124/124/124 122/122/122
f 125/125/125 122/122/122 124/124/124
f 125/125/125 124/124/124 126/126/126
f 127/127/127 128/128/128 129/129/129
f 127/127/127 130/130/130 128/128/128
f 131/131/131 132/132/132 133/133/133
f 131/131/131 134/134/134 132/132/132
f 135/135/135 136/136/136 137/137/137
f 138/138/138 137/137/137 136/136/136
f 137/137/137 138/138/138 139/139/139
f 140/140/140 141/141/141 142/142/142
f 141/141/141 140/140/140 143/143/143
f 141/141/141 143/143/143 144/144/144
f 145/145/145 146/146/146 147/147/147
f 145/145/145 147/147/147 148/148/148
f 148/148/148 147/147/147 149/149/149
f 148/148/148 149/149/149 150/150/150
f 151/151/151 152/152/152 153/153/153
f 151/151/151 154/154/154 152/152/152
f 155/155/155 156/156/156 157/157/157
f 155/155/155 158/158/158 156/156/156
f 159/159/159 160/160/160 161/161/161
f 159/159/159 162/162/162 160/160/160
f 163/163/163 160/160/160 162/162/162
f 163/163/163 164/164/164 160/160/160
f 165/165/165 166/166/166 167/167/167
f 165/165/165 168/168/168 166/166/166
f 169/169/169 168/168/168 165/165/165
f 169/169/169 170/170/170 168/168/168
f 171/171/171 172/172/172 173/173/173
f 171/171/171 174/174/174 172/172/172
f 174/174/174 175/175/175 172/172/172
f 174/174/174 176/176/176 175/175/175
f 177/177/177 178/178/178 179/179/179
f 177/177/177 180/180/180 178/178/178
f 181/181/181 182/182/182 183/183/183
f 181/181/181 184/184/184 182/182/182
f 185/185/185 186/186/186 187/187/187
f 185/185/185 188/188/188 186/186/186
f 189/189/189 190/190/190 191/191/191
f 189/189/189 192/192/192 190/190/190
f 193/193/193 194/194/194 195/195/195
f 196/196/196 195/195/195 194/194/194
f 195/195/195 196/196/196 197/197/197
f 198/198/198 199/199/199 200/200/200
f 198/198/198 201/201/201 199/199/199
f 202/202/202 203/203/203 204/204/204
f 202/202/202 204/204/204 205/205/205
f 204/204/204 206/206/206 205/205/205
f 204/204/204 207/207/207 206/206/206
f 208/208/208 209/209/209 210/210/210
f 208/208/208 211/211/211 209/209/209
f 212/212/212 211/211/211 208/208/208
f 212/212/212 213/213/213 211/211/211
f 214/214/214 215/215/215 216/216/216
f 214/214/214 217/217/217 215/215/215
f 217/217/217 218/218/218 215/215/215
f 217/217/217 219/219/219 218/218/218
f 220/220/220 221/221/221 222/222/222
f 220/220/220 223/223/223 221/221/221
f 224/224/224 223/223/223 220/220/220
f 224/224/224 225/225/225 223/223/223
f 226/226/226 227/227/227 228/228/228
f 226/226/226 228/228/228 229/229/229
f 230/230/230 231/231/231 232/232/232
f 230/230/230 232/232/232 233/233/233
f 232/232/232 234/234/234 233/233/233
f 232/232/232 235/235/235 234/234/234
f 236/236/236 237/237/237 238/238/238
f 239/239/239 238/238/238 237/237/237
f 238/238/238 239/239/239 240/240/240
f 241/241/241 242/242/242 243/243/243
f 241/241/241 244/244/244 242/242/242
f 245/245/245 244/244/244 241/241/241
f 245/245/245 246/246/246 244/244/244
f 247/247/247 248/248/248 249/249/249
f 247/247/247 250/250/250 248/248/248
f 251/251/251 252/252/252 253/253/253
f 251/251/251 254/254/254 252/252/252
f 255/255/255 252/252/252 254/254/254
f 255/255/255 256/256/256 252/252/252
f 257/257/257 258/258/258 259/259/259
f 257/257/257 260/260/260 258/258/258
f 261/261/261 262/262/262 263/263/263
f 261/261/261 263/263/263 264/264/264
f 265/265/265 264/264/264 263/263/263
f 265/265/265 266/266/266 264/264/264
f 267/267/267 268/268/268 269/269/269
f 267/267/267 270/270/270 268/268/268
