# volcanoknightarmor_vest (gear rip -> Godot: Z negated + winding reversed)
v -0.154515 -0.285561 -0.211581
v -0.205408 -0.294132 -0.214657
v -0.158422 -0.014707 -0.214657
v -0.493805 -0.342706 -0.232086
v -0.473931 -0.044969 -0.256449
v -0.443805 -0.017135 -0.232086
v -0.659204 -0.012637 -0.232086
v -0.639079 -0.041371 -0.256449
v -0.695059 -0.266696 -0.232086
v -0.868423 -0.536296 0.049651
v -0.995216 -0.629507 -0.008429
v -0.787134 -0.621792 0.059331
v -0.848171 -0.465847 0.088371
v -0.868423 -0.536296 0.049651
v -0.787134 -0.621792 0.059331
v -0.736364 -0.563901 -0.105229
v -0.787134 -0.621792 -0.076189
v -0.848171 -0.465847 -0.105229
v -0.868423 -0.536296 -0.066509
v -0.995216 -0.629507 -0.008429
v -0.868423 -0.536296 0.049651
v -0.787134 -0.621792 0.059331
v -0.995216 -0.629507 -0.008429
v -0.787134 -0.621792 -0.076189
v -0.787134 -0.621792 -0.076189
v -0.995216 -0.629507 -0.008429
v -0.868423 -0.536296 -0.066509
v -0.787134 -0.621792 -0.076189
v -0.868423 -0.536296 -0.066509
v -0.848171 -0.465847 -0.105229
v -0.787134 -0.621792 0.059331
v -0.736364 -0.563901 0.088371
v -0.848171 -0.465847 0.088371
v -0.892655 -0.291048 -0.062808
v -0.832820 -0.305689 -0.086040
v -0.861097 -0.421249 -0.086040
v -0.892655 -0.291048 0.045608
v -0.906695 -0.384376 0.037864
v -0.861097 -0.421249 0.068840
v -0.892655 -0.291048 0.045608
v -1.032556 -0.381473 -0.008600
v -0.906695 -0.384376 0.037864
v -0.892655 -0.291048 -0.062808
v -1.032556 -0.381473 -0.008600
v -0.892655 -0.291048 0.045608
v -0.906695 -0.384376 0.037864
v -1.032556 -0.381473 -0.008600
v -0.906695 -0.384376 -0.055064
v -0.832820 -0.305689 0.068840
v -0.892655 -0.291048 0.045608
v -0.861097 -0.421249 0.068840
v -0.861097 -0.421249 -0.086040
v -0.906695 -0.384376 -0.055064
v -0.892655 -0.291048 -0.062808
v -0.906695 -0.384376 -0.055064
v -1.032556 -0.381473 -0.008600
v -0.892655 -0.291048 -0.062808
v -0.686622 -0.012385 0.206297
v -0.726622 -0.254681 0.206297
v -0.695059 -0.266696 0.206297
v -0.205408 -0.294132 0.197368
v -0.160686 0.000000 0.197368
v -0.686622 0.000000 0.206297
v -0.686622 0.000000 0.206297
v -0.493805 -0.342706 0.206297
v -0.205408 -0.294132 0.197368
v -0.158422 0.014707 -0.214657
v -0.205408 0.294132 -0.214657
v -0.154515 0.285561 -0.211581
v -0.493805 0.342706 -0.232086
v -0.443805 0.017135 -0.232086
v -0.473931 0.044969 -0.256449
v -0.659204 0.012637 -0.232086
v -0.695059 0.266696 -0.232086
v -0.639079 0.041371 -0.256449
v -0.868423 0.536296 0.049651
v -0.787134 0.621792 0.059331
v -0.995216 0.629507 -0.008429
v -0.848171 0.465847 0.088371
v -0.787134 0.621792 0.059331
v -0.868423 0.536296 0.049651
v -0.736364 0.563901 -0.105229
v -0.848171 0.465847 -0.105229
v -0.787134 0.621792 -0.076189
v -0.868423 0.536296 -0.066509
v -0.868423 0.536296 0.049651
v -0.995216 0.629507 -0.008429
v -0.787134 0.621792 0.059331
v -0.787134 0.621792 -0.076189
v -0.995216 0.629507 -0.008429
v -0.787134 0.621792 -0.076189
v -0.868423 0.536296 -0.066509
v -0.995216 0.629507 -0.008429
v -0.787134 0.621792 -0.076189
v -0.848171 0.465847 -0.105229
v -0.868423 0.536296 -0.066509
v -0.787134 0.621792 0.059331
v -0.848171 0.465847 0.088371
v -0.736364 0.563901 0.088371
v -0.892655 0.291048 -0.062808
v -0.861097 0.421249 -0.086040
v -0.832820 0.305689 -0.086040
v -0.892655 0.291048 0.045608
v -0.861097 0.421249 0.068840
v -0.906695 0.384376 0.037864
v -0.892655 0.291048 0.045608
v -0.906695 0.384376 0.037864
v -1.032556 0.381473 -0.008600
v -0.892655 0.291048 -0.062808
v -0.892655 0.291048 0.045608
v -1.032556 0.381473 -0.008600
v -0.906695 0.384376 0.037864
v -0.906695 0.384376 -0.055064
v -1.032556 0.381473 -0.008600
v -0.832820 0.305689 0.068840
v -0.861097 0.421249 0.068840
v -0.892655 0.291048 0.045608
v -0.861097 0.421249 -0.086040
v -0.892655 0.291048 -0.062808
v -0.906695 0.384376 -0.055064
v -0.906695 0.384376 -0.055064
v -0.892655 0.291048 -0.062808
v -1.032556 0.381473 -0.008600
v -0.686622 0.000000 0.206297
v -0.160686 0.000000 0.197368
v -0.205408 0.294132 0.197368
v -0.205408 0.294132 0.197368
v -0.493805 0.342706 0.206297
v -0.686622 0.000000 0.206297
v -0.695059 0.266696 0.206297
v -0.726622 0.254681 0.206297
v -0.686622 0.012385 0.206297
v -0.718185 -0.012133 0.206297
v -0.732110 -0.012373 0.219137
v -0.770653 -0.247464 0.219137
v -0.758185 -0.242666 0.206297
v -0.205408 -0.294132 0.197368
v -0.154515 -0.285561 0.195793
v -0.101900 -0.000000 0.195793
v -0.160686 0.000000 0.197368
v -0.205408 -0.294132 -0.214657
v -0.154515 -0.285561 -0.211581
v -0.154515 -0.285561 0.195793
v -0.205408 -0.294132 0.197368
v -0.154515 -0.285561 0.195793
v -0.073569 -0.309847 0.206297
v -0.020954 0.000000 0.206297
v -0.101900 -0.000000 0.195793
v -0.758185 -0.242666 0.206297
v -0.770653 -0.247464 0.219137
v -0.770653 -0.247464 -0.234925
v -0.758185 -0.242666 -0.222086
v -0.720258 -0.012133 -0.222086
v -0.734106 -0.012373 -0.234925
v -0.734106 0.000000 -0.234925
v -0.720258 0.000000 -0.222086
v -0.156186 0.000000 -0.214657
v -0.101900 0.000000 -0.211581
v -0.154515 -0.285561 -0.211581
v -0.158422 -0.014707 -0.214657
v -0.154515 -0.285561 -0.211581
v -0.073569 -0.309847 -0.222086
v -0.073569 -0.309847 0.206297
v -0.154515 -0.285561 0.195793
v -0.101900 0.000000 -0.211581
v -0.020954 0.000000 -0.222086
v -0.073569 -0.309847 -0.222086
v -0.154515 -0.285561 -0.211581
v -0.493805 -0.342706 -0.232086
v -0.493805 -0.342706 0.206297
v -0.695059 -0.266696 0.206297
v -0.695059 -0.266696 -0.232086
v -0.443805 0.000000 -0.232086
v -0.443805 -0.017135 -0.232086
v -0.659204 -0.012637 -0.232086
v -0.659204 0.000000 -0.232086
v -0.073569 -0.309847 0.206297
v -0.073569 -0.309847 -0.222086
v -0.020954 0.000000 -0.222086
v -0.020954 0.000000 0.206297
v -0.718185 0.000000 0.206297
v -0.732110 0.000000 0.219137
v -0.732110 -0.012373 0.219137
v -0.718185 -0.012133 0.206297
v -0.443805 -0.017135 -0.232086
v -0.473931 -0.044969 -0.256449
v -0.639079 -0.041371 -0.256449
v -0.659204 -0.012637 -0.232086
v -0.695059 -0.266696 -0.232086
v -0.639079 -0.041371 -0.256449
v -0.473931 -0.044969 -0.256449
v -0.493805 -0.342706 -0.232086
v -0.726622 -0.254681 0.206297
v -0.686622 -0.012385 0.206297
v -0.718185 -0.012133 0.206297
v -0.758185 -0.242666 0.206297
v -0.686622 -0.012385 0.206297
v -0.686622 0.000000 0.206297
v -0.718185 0.000000 0.206297
v -0.718185 -0.012133 0.206297
v -0.720258 -0.012133 -0.222086
v -0.689731 -0.012385 -0.227086
v -0.726622 -0.254681 -0.227086
v -0.758185 -0.242666 -0.222086
v -0.770653 -0.247464 -0.234925
v -0.770653 -0.247464 0.219137
v -0.812209 -0.227031 0.219137
v -0.812209 -0.227031 -0.234925
v -0.773665 0.000000 -0.234925
v -0.734106 0.000000 -0.234925
v -0.734106 -0.012373 -0.234925
v -0.770653 -0.247464 -0.234925
v -0.773665 -0.011352 -0.234925
v -0.812209 -0.227031 -0.234925
v -0.812209 -0.227031 0.219137
v -0.770653 -0.247464 0.219137
v -0.773665 -0.011352 0.219137
v -0.773665 -0.000000 0.219137
v -0.732110 0.000000 0.219137
v -0.732110 -0.012373 0.219137
v -0.773665 -0.000000 0.219137
v -0.773665 0.000000 -0.234925
v -0.773665 -0.011352 -0.234925
v -0.773665 -0.011352 0.219137
v -0.829702 -0.288514 0.211571
v -0.829702 -0.288514 -0.228429
v -0.865358 -0.444954 -0.228429
v -0.865358 -0.444954 0.211571
v -0.641763 -0.356918 -0.228429
v -0.720154 -0.572296 -0.228429
v -0.865358 -0.444954 -0.228429
v -0.829702 -0.288514 -0.228429
v -0.720154 -0.572296 -0.228429
v -0.720154 -0.572296 0.211571
v -0.865358 -0.444954 0.211571
v -0.865358 -0.444954 -0.228429
v -0.720154 -0.572296 0.211571
v -0.641763 -0.356918 0.211571
v -0.829702 -0.288514 0.211571
v -0.865358 -0.444954 0.211571
v -0.720154 -0.572296 0.211571
v -0.696977 -0.604005 0.233571
v -0.599460 -0.336080 0.233571
v -0.641763 -0.356918 0.211571
v -0.829702 -0.288514 0.211571
v -0.835323 -0.250233 0.233571
v -0.835323 -0.250233 -0.250429
v -0.829702 -0.288514 -0.228429
v -0.528359 -0.307388 0.233571
v -0.528359 -0.307388 -0.250429
v -0.817784 -0.202046 -0.250429
v -0.817784 -0.202046 0.233571
v -0.829702 -0.288514 -0.228429
v -0.835323 -0.250233 -0.250429
v -0.599460 -0.336080 -0.250429
v -0.641763 -0.356918 -0.228429
v -0.641763 -0.356918 0.211571
v -0.599460 -0.336080 0.233571
v -0.835323 -0.250233 0.233571
v -0.829702 -0.288514 0.211571
v -0.817784 -0.202046 0.233571
v -0.835323 -0.250233 0.233571
v -0.599460 -0.336080 0.233571
v -0.528359 -0.307388 0.233571
v -0.643414 -0.623500 0.233571
v -0.696977 -0.604005 0.233571
v -0.817784 -0.202046 0.233571
v -0.817784 -0.202046 -0.250429
v -0.835323 -0.250233 -0.250429
v -0.835323 -0.250233 0.233571
v -0.643414 -0.623500 -0.250429
v -0.696977 -0.604005 -0.250429
v -0.599460 -0.336080 -0.250429
v -0.528359 -0.307388 -0.250429
v -0.817784 -0.202046 -0.250429
v -0.835323 -0.250233 -0.250429
v -0.643414 -0.623500 -0.250429
v -0.643414 -0.623500 0.233571
v -0.696977 -0.604005 0.233571
v -0.696977 -0.604005 -0.250429
v -0.720154 -0.572296 -0.228429
v -0.696977 -0.604005 -0.250429
v -0.696977 -0.604005 0.233571
v -0.720154 -0.572296 0.211571
v -0.641763 -0.356918 -0.228429
v -0.599460 -0.336080 -0.250429
v -0.696977 -0.604005 -0.250429
v -0.720154 -0.572296 -0.228429
v -0.528359 -0.307388 -0.250429
v -0.528359 -0.307388 0.233571
v -0.643414 -0.623500 0.233571
v -0.643414 -0.623500 -0.250429
v -0.848171 -0.465847 -0.105229
v -0.868423 -0.536296 -0.066509
v -0.868423 -0.536296 0.049651
v -0.848171 -0.465847 0.088371
v -0.736364 -0.563901 0.088371
v -0.787134 -0.621792 0.059331
v -0.787134 -0.621792 -0.076189
v -0.736364 -0.563901 -0.105229
v -0.716364 -0.543901 0.098051
v -0.716364 -0.543901 -0.114909
v -0.748471 -0.586126 -0.105633
v -0.748471 -0.586126 0.087967
v -0.848171 -0.445847 -0.114909
v -0.716364 -0.543901 -0.114909
v -0.748471 -0.586126 -0.105633
v -0.860277 -0.488072 -0.105633
v -0.716364 -0.543901 0.098051
v -0.848171 -0.445847 0.098051
v -0.860277 -0.488072 0.087967
v -0.748471 -0.586126 0.087967
v -0.848171 -0.445847 0.098051
v -0.848171 -0.445847 -0.114909
v -0.860277 -0.488072 -0.105633
v -0.860277 -0.488072 0.087967
v -0.860277 -0.488072 0.087967
v -0.860277 -0.488072 -0.105633
v -0.748471 -0.586126 -0.105633
v -0.748471 -0.586126 0.087967
v -0.879228 -0.412240 -0.085717
v -0.879228 -0.412240 0.069163
v -0.850952 -0.296680 0.069163
v -0.850952 -0.296680 -0.085717
v -0.851919 -0.434356 -0.093784
v -0.851919 -0.434356 0.076584
v -0.879228 -0.412240 0.069163
v -0.879228 -0.412240 -0.085717
v -0.810537 -0.309618 -0.093784
v -0.851919 -0.434356 -0.093784
v -0.879228 -0.412240 -0.085717
v -0.850952 -0.296680 -0.085717
v -0.851919 -0.434356 0.076584
v -0.810537 -0.309618 0.076584
v -0.850952 -0.296680 0.069163
v -0.879228 -0.412240 0.069163
v -0.810537 -0.309618 -0.093784
v -0.810537 -0.309618 0.076584
v -0.850952 -0.296680 0.069163
v -0.850952 -0.296680 -0.085717
v -0.832820 -0.305689 -0.086040
v -0.892655 -0.291048 -0.062808
v -0.892655 -0.291048 0.045608
v -0.832820 -0.305689 0.068840
v -0.861097 -0.421249 0.068840
v -0.906695 -0.384376 0.037864
v -0.906695 -0.384376 -0.055064
v -0.861097 -0.421249 -0.086040
v -0.283405 -0.292997 -0.242916
v -0.659534 -0.291875 -0.242916
v -0.683326 -0.265056 -0.242916
v -0.212301 -0.257942 -0.242916
v -0.294970 -0.414438 -0.242916
v -0.314691 -0.372759 -0.242916
v -0.577585 -0.384254 -0.242916
v -0.604021 -0.354454 -0.242916
v -0.294970 -0.414438 -0.215680
v -0.577585 -0.384254 -0.215680
v -0.577585 -0.384254 -0.242916
v -0.294970 -0.414438 -0.242916
v -0.314691 -0.372759 -0.242916
v -0.604021 -0.354454 -0.242916
v -0.659534 -0.291875 -0.242916
v -0.283405 -0.292997 -0.242916
v -0.320091 -0.016082 -0.224530
v -0.298260 -0.015897 -0.223197
v -0.322491 -0.166915 -0.223197
v -0.344438 -0.168866 -0.224530
v -0.493805 -0.342706 -0.232086
v -0.224949 -0.158245 -0.217271
v -0.443932 -0.177710 -0.230575
v -0.443805 -0.017135 -0.232086
v -0.419062 -0.016925 -0.230575
v -0.205408 -0.294132 -0.214657
v -0.201229 -0.015071 -0.217271
v -0.158422 -0.014707 -0.214657
v -0.314691 -0.372759 -0.215680
v -0.283405 -0.292997 -0.215680
v -0.659534 -0.291875 -0.215680
v -0.604021 -0.354454 -0.215680
v -0.294970 -0.414438 -0.242916
v -0.212301 -0.257942 -0.242916
v -0.212301 -0.257942 -0.215680
v -0.294970 -0.414438 -0.215680
v -0.314691 -0.372759 -0.215680
v -0.604021 -0.354454 -0.215680
v -0.577585 -0.384254 -0.215680
v -0.294970 -0.414438 -0.215680
v -0.283405 -0.292997 -0.215680
v -0.212301 -0.257942 -0.215680
v -0.683326 -0.265056 -0.215680
v -0.659534 -0.291875 -0.215680
v -0.418869 0.000000 -0.230575
v -0.156186 0.000000 -0.214657
v -0.158422 -0.014707 -0.214657
v -0.201229 -0.015071 -0.217271
v -0.298260 -0.015897 -0.223197
v -0.320091 -0.016082 -0.224530
v -0.419062 -0.016925 -0.230575
v -0.443805 0.000000 -0.232086
v -0.418869 0.000000 -0.230575
v -0.443805 -0.017135 -0.232086
v -0.773665 -0.011352 0.219137
v -0.773665 -0.011352 -0.234925
v -0.812209 -0.227031 -0.234925
v -0.812209 -0.227031 0.219137
v -0.695059 -0.266696 0.206297
v -0.493805 -0.342706 0.206297
v -0.686622 -0.012385 0.206297
v -0.686622 0.000000 0.206297
v -0.659204 0.000000 -0.232086
v -0.659204 -0.012637 -0.232086
v -0.689731 -0.012385 -0.227086
v -0.689731 0.000000 -0.227086
v -0.493805 -0.342706 -0.232086
v -0.205408 -0.294132 -0.214657
v -0.205408 -0.294132 0.197368
v -0.493805 -0.342706 0.206297
v -0.659204 -0.012637 -0.232086
v -0.695059 -0.266696 -0.232086
v -0.726622 -0.254681 -0.227086
v -0.689731 -0.012385 -0.227086
v -0.212301 -0.257942 -0.242916
v -0.683326 -0.265056 -0.242916
v -0.683326 -0.265056 -0.215680
v -0.212301 -0.257942 -0.215680
v -0.443932 -0.177710 -0.230575
v -0.431522 -0.161147 -0.249970
v -0.351927 -0.154072 -0.245135
v -0.344438 -0.168866 -0.224530
v -0.322491 -0.166915 -0.223197
v -0.310339 -0.151338 -0.242604
v -0.232305 -0.144402 -0.237864
v -0.224949 -0.158245 -0.217271
v -0.689731 -0.012385 -0.227086
v -0.720258 -0.012133 -0.222086
v -0.720258 0.000000 -0.222086
v -0.689731 0.000000 -0.227086
v -0.758185 -0.242666 -0.222086
v -0.770653 -0.247464 -0.234925
v -0.734106 -0.012373 -0.234925
v -0.720258 -0.012133 -0.222086
v -0.411626 -0.032519 -0.249970
v -0.332449 -0.031845 -0.245135
v -0.351927 -0.154072 -0.245135
v -0.431522 -0.161147 -0.249970
v -0.290954 -0.030524 -0.242604
v -0.213330 -0.029863 -0.237864
v -0.232305 -0.144402 -0.237864
v -0.310339 -0.151338 -0.242604
v -0.201229 -0.015071 -0.217271
v -0.213330 -0.029863 -0.237864
v -0.290954 -0.030524 -0.242604
v -0.298260 -0.015897 -0.223197
v -0.320091 -0.016082 -0.224530
v -0.332449 -0.031845 -0.245135
v -0.411626 -0.032519 -0.249970
v -0.419062 -0.016925 -0.230575
v -0.419062 -0.016925 -0.230575
v -0.411626 -0.032519 -0.249970
v -0.431522 -0.161147 -0.249970
v -0.443932 -0.177710 -0.230575
v -0.298260 -0.015897 -0.223197
v -0.290954 -0.030524 -0.242604
v -0.310339 -0.151338 -0.242604
v -0.322491 -0.166915 -0.223197
v -0.344438 -0.168866 -0.224530
v -0.351927 -0.154072 -0.245135
v -0.332449 -0.031845 -0.245135
v -0.320091 -0.016082 -0.224530
v -0.224949 -0.158245 -0.217271
v -0.232305 -0.144402 -0.237864
v -0.213330 -0.029863 -0.237864
v -0.201229 -0.015071 -0.217271
v -0.718185 0.012133 0.206297
v -0.758185 0.242666 0.206297
v -0.770653 0.247464 0.219137
v -0.732110 0.012373 0.219137
v -0.205408 0.294132 0.197368
v -0.160686 0.000000 0.197368
v -0.101900 -0.000000 0.195793
v -0.154515 0.285561 0.195793
v -0.205408 0.294132 -0.214657
v -0.205408 0.294132 0.197368
v -0.154515 0.285561 0.195793
v -0.154515 0.285561 -0.211581
v -0.154515 0.285561 0.195793
v -0.101900 -0.000000 0.195793
v -0.020954 0.000000 0.206297
v -0.073569 0.309847 0.206297
v -0.758185 0.242666 0.206297
v -0.758185 0.242666 -0.222086
v -0.770653 0.247464 -0.234925
v -0.770653 0.247464 0.219137
v -0.720258 0.012133 -0.222086
v -0.720258 0.000000 -0.222086
v -0.734106 0.000000 -0.234925
v -0.734106 0.012373 -0.234925
v -0.154515 0.285561 -0.211581
v -0.101900 0.000000 -0.211581
v -0.156186 0.000000 -0.214657
v -0.158422 0.014707 -0.214657
v -0.154515 0.285561 -0.211581
v -0.154515 0.285561 0.195793
v -0.073569 0.309847 0.206297
v -0.073569 0.309847 -0.222086
v -0.101900 0.000000 -0.211581
v -0.154515 0.285561 -0.211581
v -0.073569 0.309847 -0.222086
v -0.020954 0.000000 -0.222086
v -0.493805 0.342706 -0.232086
v -0.695059 0.266696 -0.232086
v -0.695059 0.266696 0.206297
v -0.493805 0.342706 0.206297
v -0.443805 0.000000 -0.232086
v -0.659204 0.000000 -0.232086
v -0.659204 0.012637 -0.232086
v -0.443805 0.017135 -0.232086
v -0.073569 0.309847 0.206297
v -0.020954 0.000000 0.206297
v -0.020954 0.000000 -0.222086
v -0.073569 0.309847 -0.222086
v -0.718185 0.000000 0.206297
v -0.718185 0.012133 0.206297
v -0.732110 0.012373 0.219137
v -0.732110 0.000000 0.219137
v -0.443805 0.017135 -0.232086
v -0.659204 0.012637 -0.232086
v -0.639079 0.041371 -0.256449
v -0.473931 0.044969 -0.256449
v -0.695059 0.266696 -0.232086
v -0.493805 0.342706 -0.232086
v -0.473931 0.044969 -0.256449
v -0.639079 0.041371 -0.256449
v -0.726622 0.254681 0.206297
v -0.758185 0.242666 0.206297
v -0.718185 0.012133 0.206297
v -0.686622 0.012385 0.206297
v -0.718185 0.000000 0.206297
v -0.686622 0.000000 0.206297
v -0.720258 0.012133 -0.222086
v -0.758185 0.242666 -0.222086
v -0.726622 0.254681 -0.227086
v -0.689731 0.012385 -0.227086
v -0.770653 0.247464 -0.234925
v -0.812209 0.227031 -0.234925
v -0.812209 0.227031 0.219137
v -0.770653 0.247464 0.219137
v -0.812209 0.227031 -0.234925
v -0.770653 0.247464 -0.234925
v -0.773665 0.011352 -0.234925
v -0.773665 0.000000 -0.234925
v -0.734106 0.000000 -0.234925
v -0.734106 0.012373 -0.234925
v -0.773665 -0.000000 0.219137
v -0.732110 0.000000 0.219137
v -0.732110 0.012373 0.219137
v -0.770653 0.247464 0.219137
v -0.773665 0.011352 0.219137
v -0.812209 0.227031 0.219137
v -0.773665 -0.000000 0.219137
v -0.773665 0.011352 0.219137
v -0.773665 0.011352 -0.234925
v -0.773665 0.000000 -0.234925
v -0.829702 0.288514 0.211571
v -0.865358 0.444954 0.211571
v -0.865358 0.444954 -0.228429
v -0.829702 0.288514 -0.228429
v -0.641763 0.356918 -0.228429
v -0.829702 0.288514 -0.228429
v -0.865358 0.444954 -0.228429
v -0.720154 0.572296 -0.228429
v -0.720154 0.572296 -0.228429
v -0.865358 0.444954 -0.228429
v -0.865358 0.444954 0.211571
v -0.720154 0.572296 0.211571
v -0.720154 0.572296 0.211571
v -0.865358 0.444954 0.211571
v -0.829702 0.288514 0.211571
v -0.641763 0.356918 0.211571
v -0.720154 0.572296 0.211571
v -0.641763 0.356918 0.211571
v -0.599460 0.336080 0.233571
v -0.696977 0.604005 0.233571
v -0.829702 0.288514 0.211571
v -0.829702 0.288514 -0.228429
v -0.835323 0.250233 -0.250429
v -0.835323 0.250233 0.233571
v -0.528359 0.307388 0.233571
v -0.817784 0.202046 0.233571
v -0.817784 0.202046 -0.250429
v -0.528359 0.307388 -0.250429
v -0.829702 0.288514 -0.228429
v -0.641763 0.356918 -0.228429
v -0.599460 0.336080 -0.250429
v -0.835323 0.250233 -0.250429
v -0.641763 0.356918 0.211571
v -0.829702 0.288514 0.211571
v -0.835323 0.250233 0.233571
v -0.599460 0.336080 0.233571
v -0.643414 0.623500 0.233571
v -0.696977 0.604005 0.233571
v -0.599460 0.336080 0.233571
v -0.528359 0.307388 0.233571
v -0.817784 0.202046 0.233571
v -0.835323 0.250233 0.233571
v -0.817784 0.202046 0.233571
v -0.835323 0.250233 0.233571
v -0.835323 0.250233 -0.250429
v -0.817784 0.202046 -0.250429
v -0.817784 0.202046 -0.250429
v -0.835323 0.250233 -0.250429
v -0.599460 0.336080 -0.250429
v -0.528359 0.307388 -0.250429
v -0.643414 0.623500 -0.250429
v -0.696977 0.604005 -0.250429
v -0.643414 0.623500 -0.250429
v -0.696977 0.604005 -0.250429
v -0.696977 0.604005 0.233571
v -0.643414 0.623500 0.233571
v -0.720154 0.572296 -0.228429
v -0.720154 0.572296 0.211571
v -0.696977 0.604005 0.233571
v -0.696977 0.604005 -0.250429
v -0.641763 0.356918 -0.228429
v -0.720154 0.572296 -0.228429
v -0.696977 0.604005 -0.250429
v -0.599460 0.336080 -0.250429
v -0.528359 0.307388 -0.250429
v -0.643414 0.623500 -0.250429
v -0.643414 0.623500 0.233571
v -0.528359 0.307388 0.233571
v -0.848171 0.465847 -0.105229
v -0.848171 0.465847 0.088371
v -0.868423 0.536296 0.049651
v -0.868423 0.536296 -0.066509
v -0.736364 0.563901 0.088371
v -0.736364 0.563901 -0.105229
v -0.787134 0.621792 -0.076189
v -0.787134 0.621792 0.059331
v -0.716364 0.543901 0.098051
v -0.748471 0.586126 0.087967
v -0.748471 0.586126 -0.105633
v -0.716364 0.543901 -0.114909
v -0.848171 0.445847 -0.114909
v -0.860277 0.488072 -0.105633
v -0.748471 0.586126 -0.105633
v -0.716364 0.543901 -0.114909
v -0.716364 0.543901 0.098051
v -0.748471 0.586126 0.087967
v -0.860277 0.488072 0.087967
v -0.848171 0.445847 0.098051
v -0.848171 0.445847 0.098051
v -0.860277 0.488072 0.087967
v -0.860277 0.488072 -0.105633
v -0.848171 0.445847 -0.114909
v -0.860277 0.488072 0.087967
v -0.748471 0.586126 0.087967
v -0.748471 0.586126 -0.105633
v -0.860277 0.488072 -0.105633
v -0.879228 0.412240 -0.085717
v -0.850952 0.296680 -0.085717
v -0.850952 0.296680 0.069163
v -0.879228 0.412240 0.069163
v -0.851919 0.434356 -0.093784
v -0.879228 0.412240 -0.085717
v -0.879228 0.412240 0.069163
v -0.851919 0.434356 0.076584
v -0.810537 0.309618 -0.093784
v -0.850952 0.296680 -0.085717
v -0.879228 0.412240 -0.085717
v -0.851919 0.434356 -0.093784
v -0.851919 0.434356 0.076584
v -0.879228 0.412240 0.069163
v -0.850952 0.296680 0.069163
v -0.810537 0.309618 0.076584
v -0.810537 0.309618 -0.093784
v -0.850952 0.296680 -0.085717
v -0.850952 0.296680 0.069163
v -0.810537 0.309618 0.076584
v -0.832820 0.305689 -0.086040
v -0.832820 0.305689 0.068840
v -0.892655 0.291048 0.045608
v -0.892655 0.291048 -0.062808
v -0.861097 0.421249 0.068840
v -0.861097 0.421249 -0.086040
v -0.906695 0.384376 -0.055064
v -0.906695 0.384376 0.037864
v -0.314691 0.372759 -0.242916
v -0.604021 0.354454 -0.242916
v -0.577585 0.384254 -0.242916
v -0.294970 0.414438 -0.242916
v -0.283405 0.292997 -0.242916
v -0.212301 0.257942 -0.242916
v -0.683326 0.265056 -0.242916
v -0.659534 0.291875 -0.242916
v -0.294970 0.414438 -0.215680
v -0.294970 0.414438 -0.242916
v -0.577585 0.384254 -0.242916
v -0.577585 0.384254 -0.215680
v -0.314691 0.372759 -0.242916
v -0.283405 0.292997 -0.242916
v -0.659534 0.291875 -0.242916
v -0.604021 0.354454 -0.242916
v -0.205408 0.294132 -0.214657
v -0.158422 0.014707 -0.214657
v -0.201229 0.015071 -0.217271
v -0.224949 0.158245 -0.217271
v -0.493805 0.342706 -0.232086
v -0.322491 0.166915 -0.223197
v -0.344438 0.168866 -0.224530
v -0.320091 0.016082 -0.224530
v -0.298260 0.015897 -0.223197
v -0.443932 0.177710 -0.230575
v -0.443805 0.017135 -0.232086
v -0.419062 0.016925 -0.230575
v -0.314691 0.372759 -0.215680
v -0.604021 0.354454 -0.215680
v -0.659534 0.291875 -0.215680
v -0.283405 0.292997 -0.215680
v -0.294970 0.414438 -0.242916
v -0.294970 0.414438 -0.215680
v -0.212301 0.257942 -0.215680
v -0.212301 0.257942 -0.242916
v -0.283405 0.292997 -0.215680
v -0.659534 0.291875 -0.215680
v -0.683326 0.265056 -0.215680
v -0.212301 0.257942 -0.215680
v -0.294970 0.414438 -0.215680
v -0.314691 0.372759 -0.215680
v -0.577585 0.384254 -0.215680
v -0.604021 0.354454 -0.215680
v -0.158422 0.014707 -0.214657
v -0.156186 0.000000 -0.214657
v -0.418869 0.000000 -0.230575
v -0.201229 0.015071 -0.217271
v -0.298260 0.015897 -0.223197
v -0.320091 0.016082 -0.224530
v -0.419062 0.016925 -0.230575
v -0.443805 0.000000 -0.232086
v -0.443805 0.017135 -0.232086
v -0.418869 0.000000 -0.230575
v -0.773665 0.011352 0.219137
v -0.812209 0.227031 0.219137
v -0.812209 0.227031 -0.234925
v -0.773665 0.011352 -0.234925
v -0.493805 0.342706 0.206297
v -0.686622 0.012385 0.206297
v -0.686622 0.000000 0.206297
v -0.695059 0.266696 0.206297
v -0.659204 0.000000 -0.232086
v -0.689731 0.000000 -0.227086
v -0.689731 0.012385 -0.227086
v -0.659204 0.012637 -0.232086
v -0.493805 0.342706 -0.232086
v -0.493805 0.342706 0.206297
v -0.205408 0.294132 0.197368
v -0.205408 0.294132 -0.214657
v -0.659204 0.012637 -0.232086
v -0.689731 0.012385 -0.227086
v -0.726622 0.254681 -0.227086
v -0.695059 0.266696 -0.232086
v -0.212301 0.257942 -0.242916
v -0.212301 0.257942 -0.215680
v -0.683326 0.265056 -0.215680
v -0.683326 0.265056 -0.242916
v -0.443932 0.177710 -0.230575
v -0.344438 0.168866 -0.224530
v -0.351927 0.154072 -0.245135
v -0.431522 0.161147 -0.249970
v -0.322491 0.166915 -0.223197
v -0.224949 0.158245 -0.217271
v -0.232305 0.144402 -0.237864
v -0.310339 0.151338 -0.242604
v -0.689731 0.012385 -0.227086
v -0.689731 0.000000 -0.227086
v -0.720258 0.000000 -0.222086
v -0.720258 0.012133 -0.222086
v -0.758185 0.242666 -0.222086
v -0.720258 0.012133 -0.222086
v -0.734106 0.012373 -0.234925
v -0.770653 0.247464 -0.234925
v -0.411626 0.032519 -0.249970
v -0.431522 0.161147 -0.249970
v -0.351927 0.154072 -0.245135
v -0.332449 0.031845 -0.245135
v -0.290954 0.030524 -0.242604
v -0.310339 0.151338 -0.242604
v -0.232305 0.144402 -0.237864
v -0.213330 0.029863 -0.237864
v -0.201229 0.015071 -0.217271
v -0.298260 0.015897 -0.223197
v -0.290954 0.030524 -0.242604
v -0.213330 0.029863 -0.237864
v -0.320091 0.016082 -0.224530
v -0.419062 0.016925 -0.230575
v -0.411626 0.032519 -0.249970
v -0.332449 0.031845 -0.245135
v -0.419062 0.016925 -0.230575
v -0.443932 0.177710 -0.230575
v -0.431522 0.161147 -0.249970
v -0.411626 0.032519 -0.249970
v -0.298260 0.015897 -0.223197
v -0.322491 0.166915 -0.223197
v -0.310339 0.151338 -0.242604
v -0.290954 0.030524 -0.242604
v -0.344438 0.168866 -0.224530
v -0.320091 0.016082 -0.224530
v -0.332449 0.031845 -0.245135
v -0.351927 0.154072 -0.245135
v -0.224949 0.158245 -0.217271
v -0.201229 0.015071 -0.217271
v -0.213330 0.029863 -0.237864
v -0.232305 0.144402 -0.237864
vt 0.55449754 0.568962157
vt 0.553531587 0.574507177
vt 0.563702345 0.573224247
vt 0.785217106 0.520881653
vt 0.788568795 0.52087605
vt 0.788871646 0.520568073
vt 0.780270278 0.523828387
vt 0.779996693 0.524098814
vt 0.780270278 0.526385844
vt 0.847182035 0.647593379
vt 0.848825991 0.652418196
vt 0.850470006 0.647593379
vt 0.847182035 0.647593379
vt 0.847182035 0.647593379
vt 0.850470006 0.647593379
vt 0.850470006 0.657243073
vt 0.850470006 0.657243073
vt 0.847182035 0.657243073
vt 0.847182035 0.657243073
vt 0.848825991 0.652418196
vt 0.847182035 0.647593379
vt 0.850470006 0.647593379
vt 0.848825991 0.652418196
vt 0.850470006 0.657243073
vt 0.850470006 0.657243073
vt 0.848825991 0.652418196
vt 0.847182035 0.657243073
vt 0.850470006 0.657243073
vt 0.847182035 0.657243073
vt 0.847182035 0.657243073
vt 0.850470006 0.647593379
vt 0.850470006 0.647593379
vt 0.847182035 0.647593379
vt 0.850470006 0.647593379
vt 0.850470006 0.647593379
vt 0.847182035 0.647593379
vt 0.850470006 0.657243073
vt 0.847182035 0.657243073
vt 0.847182035 0.657243073
vt 0.850470006 0.657243073
vt 0.848825991 0.652418196
vt 0.847182035 0.657243073
vt 0.850470006 0.647593379
vt 0.848825991 0.652418196
vt 0.850470006 0.657243073
vt 0.847182035 0.657243073
vt 0.848825991 0.652418196
vt 0.847182035 0.647593379
vt 0.850470006 0.657243073
vt 0.850470006 0.657243073
vt 0.847182035 0.657243073
vt 0.847182035 0.647593379
vt 0.847182035 0.647593379
vt 0.850470006 0.647593379
vt 0.847182035 0.647593379
vt 0.848825991 0.652418196
vt 0.850470006 0.647593379
vt 0.803032696 0.549495399
vt 0.79501158 0.548847377
vt 0.794840395 0.549885571
vt 0.774986625 0.49850902
vt 0.785694122 0.499361217
vt 0.803454995 0.549494922
vt 0.803454995 0.549494922
vt 0.77401495 0.49293524
vt 0.774986625 0.49850902
vt 0.563702345 0.573224247
vt 0.553531587 0.574507177
vt 0.55449754 0.568962157
vt 0.785217106 0.520881653
vt 0.788871646 0.520568073
vt 0.788568795 0.52087605
vt 0.780270278 0.523828387
vt 0.780270278 0.526385844
vt 0.779996693 0.524098814
vt 0.847182035 0.647593379
vt 0.850470006 0.647593379
vt 0.848825991 0.652418196
vt 0.847182035 0.647593379
vt 0.850470006 0.647593379
vt 0.847182035 0.647593379
vt 0.850470006 0.657243073
vt 0.847182035 0.657243073
vt 0.850470006 0.657243073
vt 0.847182035 0.657243073
vt 0.847182035 0.647593379
vt 0.848825991 0.652418196
vt 0.850470006 0.647593379
vt 0.850470006 0.657243073
vt 0.848825991 0.652418196
vt 0.850470006 0.657243073
vt 0.847182035 0.657243073
vt 0.848825991 0.652418196
vt 0.850470006 0.657243073
vt 0.847182035 0.657243073
vt 0.847182035 0.657243073
vt 0.850470006 0.647593379
vt 0.847182035 0.647593379
vt 0.850470006 0.647593379
vt 0.850470006 0.647593379
vt 0.847182035 0.647593379
vt 0.850470006 0.647593379
vt 0.850470006 0.657243073
vt 0.847182035 0.657243073
vt 0.847182035 0.657243073
vt 0.850470006 0.657243073
vt 0.847182035 0.657243073
vt 0.848825991 0.652418196
vt 0.850470006 0.647593379
vt 0.850470006 0.657243073
vt 0.848825991 0.652418196
vt 0.847182035 0.657243073
vt 0.847182035 0.647593379
vt 0.848825991 0.652418196
vt 0.850470006 0.657243073
vt 0.847182035 0.657243073
vt 0.850470006 0.657243073
vt 0.847182035 0.647593379
vt 0.850470006 0.647593379
vt 0.847182035 0.647593379
vt 0.847182035 0.647593379
vt 0.850470006 0.647593379
vt 0.848825991 0.652418196
vt 0.803454995 0.549494922
vt 0.785694122 0.499361217
vt 0.774986625 0.49850902
vt 0.774986625 0.49850902
vt 0.77401495 0.49293524
vt 0.803454995 0.549494922
vt 0.794840395 0.549885571
vt 0.79501158 0.548847377
vt 0.803032696 0.549495399
vt 0.285966814 0.489170969
vt 0.28567493 0.489233315
vt 0.28567493 0.494456232
vt 0.285966814 0.494301617
vt 0.541847706 0.580623806
vt 0.542819381 0.586197555
vt 0.552553594 0.587916076
vt 0.552555203 0.581475973
vt 0.540429652 0.572690487
vt 0.540080011 0.56734252
vt 0.526188791 0.56734252
vt 0.526009679 0.572690487
vt 0.289189816 0.487303674
vt 0.288646102 0.489084601
vt 0.295687348 0.490229666
vt 0.295679271 0.488449395
vt 0.27786395 0.487945735
vt 0.277572066 0.488197923
vt 0.287894279 0.488197923
vt 0.287602395 0.487945735
vt 0.303185254 0.488199115
vt 0.303189963 0.488484263
vt 0.303471059 0.488485098
vt 0.303460956 0.488199949
vt 0.546262205 0.573182702
vt 0.546254694 0.567263603
vt 0.55449754 0.568962157
vt 0.563702345 0.573224247
vt 0.287363559 0.474733651
vt 0.287602395 0.472894728
vt 0.27786395 0.472894728
vt 0.278102785 0.474733651
vt 0.303463757 0.47468102
vt 0.303473651 0.472894728
vt 0.296433419 0.474025428
vt 0.296975195 0.475813389
vt 0.784491897 0.504753709
vt 0.76954329 0.504753709
vt 0.76954329 0.511773109
vt 0.784491897 0.511773109
vt 0.779408514 0.496986985
vt 0.778824568 0.496985257
vt 0.778971434 0.504713774
vt 0.779402018 0.504715025
vt 0.287894279 0.490229666
vt 0.287894279 0.49962455
vt 0.295037359 0.49962455
vt 0.295037359 0.490229666
vt 0.295678854 0.474943101
vt 0.295687348 0.474644601
vt 0.295406163 0.474644959
vt 0.295403063 0.474943399
vt 0.788871646 0.520568073
vt 0.788568795 0.52087605
vt 0.788607478 0.52287823
vt 0.788920105 0.523113668
vt 0.786225021 0.523060858
vt 0.788607478 0.52287823
vt 0.788568795 0.52087605
vt 0.785217106 0.520881653
vt 0.568533778 0.535603046
vt 0.576554894 0.536251068
vt 0.576563299 0.53587079
vt 0.568704963 0.534564853
vt 0.576554894 0.536251068
vt 0.576977134 0.536250591
vt 0.576976955 0.535870314
vt 0.576563299 0.53587079
vt 0.58823657 0.555754423
vt 0.570258796 0.555398285
vt 0.58021462 0.555929124
vt 0.580379426 0.556976318
vt 0.287894279 0.488197923
vt 0.277572066 0.488197923
vt 0.277572066 0.489170969
vt 0.287894279 0.489170969
vt 0.303470343 0.489350855
vt 0.303471059 0.488485098
vt 0.303189963 0.488484263
vt 0.297848344 0.489268363
vt 0.303212434 0.48935008
vt 0.2983118 0.490179181
vt 0.290527523 0.472894728
vt 0.290063769 0.473806381
vt 0.295428842 0.473733842
vt 0.295686871 0.473733544
vt 0.295687348 0.474644601
vt 0.295406163 0.474644959
vt 0.313572109 0.500137269
vt 0.313572109 0.490179181
vt 0.313317716 0.490179181
vt 0.313317716 0.500137269
vt 0.392372757 0.413018137
vt 0.392372757 0.403368503
vt 0.389178038 0.403368503
vt 0.389178038 0.413018137
vt 0.378079146 0.434655577
vt 0.378079146 0.430074543
vt 0.374446034 0.431616694
vt 0.373991996 0.434666008
vt 0.391681284 0.43030265
vt 0.391681284 0.420652956
vt 0.388393432 0.420652956
vt 0.388393432 0.43030265
vt 0.367779523 0.436689764
vt 0.367779523 0.432104796
vt 0.363687962 0.432103008
vt 0.364142537 0.435153991
vt 0.295255721 0.455211431
vt 0.295704484 0.455488741
vt 0.295704484 0.452002406
vt 0.295255721 0.452460438
vt 0.310011625 0.441008449
vt 0.310513556 0.441297948
vt 0.310513556 0.434929162
vt 0.310011625 0.435218632
vt 0.307624191 0.45166865
vt 0.307624191 0.445299864
vt 0.303423136 0.445299864
vt 0.303423136 0.45166865
vt 0.298983246 0.453997195
vt 0.298747241 0.454461098
vt 0.301894367 0.454453081
vt 0.30143562 0.453990936
vt 0.295255721 0.452460438
vt 0.295704484 0.452002406
vt 0.292553961 0.452001035
vt 0.292800874 0.452459365
vt 0.292553961 0.451063693
vt 0.292553961 0.452001035
vt 0.295704484 0.452002406
vt 0.296754718 0.45106554
vt 0.296754718 0.455489218
vt 0.295704484 0.455488741
vt 0.311470032 0.441297948
vt 0.311470032 0.434929162
vt 0.310513556 0.434929162
vt 0.310513556 0.441297948
vt 0.302943498 0.450967073
vt 0.301894367 0.450969756
vt 0.301894367 0.454453081
vt 0.302943498 0.455386937
vt 0.298747241 0.455397606
vt 0.298747241 0.454461098
vt 0.311012983 0.45166865
vt 0.311012983 0.445299864
vt 0.309980243 0.445299864
vt 0.309980243 0.45166865
vt 0.309596837 0.45137915
vt 0.309980243 0.45166865
vt 0.309980243 0.445299864
vt 0.309596837 0.445589364
vt 0.30143562 0.453990936
vt 0.301894367 0.454453081
vt 0.301894367 0.450969756
vt 0.30143562 0.451242298
vt 0.297083378 0.451063693
vt 0.297083378 0.444694906
vt 0.292553961 0.444694906
vt 0.292553961 0.451063693
vt 0.847182035 0.657243073
vt 0.847182035 0.657243073
vt 0.847182035 0.647593379
vt 0.847182035 0.647593379
vt 0.850470006 0.647593379
vt 0.850470006 0.647593379
vt 0.850470006 0.657243073
vt 0.850470006 0.657243073
vt 0.205857515 0.643482268
vt 0.205857515 0.603565574
vt 0.201787308 0.603482246
vt 0.201787308 0.643398941
vt 0.209927782 0.603482246
vt 0.209927782 0.634143829
vt 0.213899314 0.635288477
vt 0.213899314 0.604626954
vt 0.213899314 0.604626894
vt 0.213899314 0.635288477
vt 0.217870846 0.634143829
vt 0.217870846 0.603482246
vt 0.209927782 0.643482268
vt 0.209927782 0.603565574
vt 0.205857515 0.603482246
vt 0.205857515 0.643398941
vt 0.177870899 0.603482306
vt 0.177870899 0.643398941
vt 0.201787308 0.643398941
vt 0.201787308 0.603482246
vt 0.177870899 0.603482306
vt 0.177870899 0.643398941
vt 0.201787308 0.643398941
vt 0.201787308 0.603482246
vt 0.209927782 0.643482268
vt 0.209927782 0.603565574
vt 0.205857515 0.603482246
vt 0.205857515 0.643398941
vt 0.213899314 0.604626894
vt 0.213899314 0.635288477
vt 0.217870846 0.634143829
vt 0.217870846 0.603482246
vt 0.209927782 0.603482246
vt 0.209927782 0.634143829
vt 0.213899314 0.635288477
vt 0.213899314 0.604626954
vt 0.205857515 0.643482268
vt 0.205857515 0.603565574
vt 0.201787308 0.603482246
vt 0.201787308 0.643398941
vt 0.850470006 0.647593379
vt 0.850470006 0.647593379
vt 0.850470006 0.657243073
vt 0.850470006 0.657243073
vt 0.847182035 0.657243073
vt 0.847182035 0.657243073
vt 0.847182035 0.647593379
vt 0.847182035 0.647593379
vt 0.136827022 0.528614521
vt 0.138561338 0.608445883
vt 0.145490959 0.613409817
vt 0.145491004 0.513409793
vt 0.10590855 0.531458437
vt 0.116611108 0.5355106
vt 0.114692591 0.591347992
vt 0.1223922 0.596863449
vt 0.198963568 0.59875083
vt 0.198963568 0.538416505
vt 0.192018449 0.538416505
vt 0.192018539 0.59875083
vt 0.489325285 0.561042726
vt 0.495106369 0.622395575
vt 0.51127547 0.633978009
vt 0.509541214 0.554146647
vt 0.796805263 0.496250778
vt 0.796810389 0.4955163
vt 0.79137814 0.496033728
vt 0.791315198 0.496747494
vt 0.785704434 0.497937381
vt 0.791504025 0.494606137
vt 0.791283727 0.497104406
vt 0.796800137 0.496985257
vt 0.7968027 0.496618032
vt 0.786670446 0.492392391
vt 0.7968207 0.494047374
vt 0.796841264 0.49110949
vt 0.528907716 0.616841137
vt 0.549123645 0.623737276
vt 0.550857961 0.543905854
vt 0.53468883 0.555488288
vt 0.205908522 0.550980866
vt 0.205908522 0.513409853
vt 0.198963568 0.513409793
vt 0.198963568 0.550980866
vt 0.156193569 0.591309011
vt 0.161974609 0.529956162
vt 0.15427506 0.535471559
vt 0.145491004 0.595361114
vt 0.176409483 0.598205149
vt 0.18507342 0.613409817
vt 0.18507342 0.513409793
vt 0.178143799 0.518373728
vt 0.779408097 0.496617049
vt 0.779401064 0.491067916
vt 0.778865695 0.49110949
vt 0.778845131 0.494047374
vt 0.77883482 0.4955163
vt 0.778829694 0.496250778
vt 0.778827131 0.496618032
vt 0.779408514 0.496986985
vt 0.779408097 0.496617049
vt 0.778824568 0.496985257
vt 0.313317716 0.500137269
vt 0.313317716 0.490179181
vt 0.308337212 0.490179181
vt 0.308337212 0.500137269
vt 0.794840395 0.549885571
vt 0.77401495 0.49293524
vt 0.803032696 0.549495399
vt 0.803454995 0.549494922
vt 0.797164977 0.56828779
vt 0.796734393 0.568286479
vt 0.796736598 0.568642616
vt 0.797158659 0.568643868
vt 0.773918033 0.495923638
vt 0.773568511 0.490575701
vt 0.759148598 0.490575701
vt 0.758969486 0.495923638
vt 0.814709961 0.568286479
vt 0.806527674 0.568126261
vt 0.806692481 0.569173455
vt 0.814712167 0.568642616
vt 0.192018449 0.613409817
vt 0.192018449 0.513409793
vt 0.18507342 0.513409793
vt 0.18507342 0.613409817
vt 0.791283727 0.497104406
vt 0.791283727 0.497104406
vt 0.791315198 0.496747494
vt 0.791315198 0.496747494
vt 0.79137814 0.496033728
vt 0.79137814 0.496033728
vt 0.791504025 0.494606137
vt 0.791504025 0.494606137
vt 0.570258796 0.555398285
vt 0.58823657 0.555754423
vt 0.570674479 0.555755615
vt 0.570680857 0.555399537
vt 0.285966814 0.494293094
vt 0.286258698 0.494447708
vt 0.286258698 0.489233017
vt 0.285966814 0.489170969
vt 0.7968027 0.496618032
vt 0.796805263 0.496250778
vt 0.791315198 0.496747494
vt 0.791283727 0.497104406
vt 0.796810389 0.4955163
vt 0.7968207 0.494047374
vt 0.791504025 0.494606137
vt 0.79137814 0.496033728
vt 0.778845131 0.494047374
vt 0.778845131 0.494047374
vt 0.77883482 0.4955163
vt 0.77883482 0.4955163
vt 0.778829694 0.496250778
vt 0.778829694 0.496250778
vt 0.778827131 0.496618032
vt 0.778827131 0.496618032
vt 0.7968027 0.496618032
vt 0.7968027 0.496618032
vt 0.791283727 0.497104406
vt 0.791283727 0.497104406
vt 0.796810389 0.4955163
vt 0.796810389 0.4955163
vt 0.79137814 0.496033728
vt 0.79137814 0.496033728
vt 0.791315198 0.496747494
vt 0.791315198 0.496747494
vt 0.796805263 0.496250778
vt 0.796805263 0.496250778
vt 0.791504025 0.494606137
vt 0.791504025 0.494606137
vt 0.7968207 0.494047374
vt 0.7968207 0.494047374
vt 0.285966814 0.489170969
vt 0.285966814 0.494301617
vt 0.28567493 0.494456232
vt 0.28567493 0.489233315
vt 0.541847706 0.580623806
vt 0.552555203 0.581475973
vt 0.552553594 0.587916076
vt 0.542819381 0.586197555
vt 0.540429652 0.572690487
vt 0.526009679 0.572690487
vt 0.526188791 0.56734252
vt 0.540080011 0.56734252
vt 0.289189816 0.487303674
vt 0.295679271 0.488449395
vt 0.295687348 0.490229666
vt 0.288646102 0.489084601
vt 0.27786395 0.487945735
vt 0.287602395 0.487945735
vt 0.287894279 0.488197923
vt 0.277572066 0.488197923
vt 0.303185254 0.488199115
vt 0.303460956 0.488199949
vt 0.303471059 0.488485098
vt 0.303189963 0.488484263
vt 0.55449754 0.568962157
vt 0.546254694 0.567263603
vt 0.546262205 0.573182702
vt 0.563702345 0.573224247
vt 0.287363559 0.474733651
vt 0.278102785 0.474733651
vt 0.27786395 0.472894728
vt 0.287602395 0.472894728
vt 0.303463757 0.47468102
vt 0.296975195 0.475813389
vt 0.296433419 0.474025428
vt 0.303473651 0.472894728
vt 0.784491897 0.504753709
vt 0.784491897 0.511773109
vt 0.76954329 0.511773109
vt 0.76954329 0.504753709
vt 0.779408514 0.496986985
vt 0.779402018 0.504715025
vt 0.778971434 0.504713774
vt 0.778824568 0.496985257
vt 0.287894279 0.490229666
vt 0.295037359 0.490229666
vt 0.295037359 0.49962455
vt 0.287894279 0.49962455
vt 0.295678854 0.474943101
vt 0.295403063 0.474943399
vt 0.295406163 0.474644959
vt 0.295687348 0.474644601
vt 0.788871646 0.520568073
vt 0.788920105 0.523113668
vt 0.788607478 0.52287823
vt 0.788568795 0.52087605
vt 0.786225021 0.523060858
vt 0.785217106 0.520881653
vt 0.788568795 0.52087605
vt 0.788607478 0.52287823
vt 0.568533778 0.535603046
vt 0.568704963 0.534564853
vt 0.576563299 0.53587079
vt 0.576554894 0.536251068
vt 0.576976955 0.535870314
vt 0.576977134 0.536250591
vt 0.58823657 0.555754423
vt 0.580379426 0.556976318
vt 0.58021462 0.555929124
vt 0.570258796 0.555398285
vt 0.287894279 0.488197923
vt 0.287894279 0.489170969
vt 0.277572066 0.489170969
vt 0.277572066 0.488197923
vt 0.2983118 0.490179181
vt 0.297848344 0.489268363
vt 0.303212434 0.48935008
vt 0.303470343 0.489350855
vt 0.303471059 0.488485098
vt 0.303189963 0.488484263
vt 0.295686871 0.473733544
vt 0.295687348 0.474644601
vt 0.295406163 0.474644959
vt 0.290063769 0.473806381
vt 0.295428842 0.473733842
vt 0.290527523 0.472894728
vt 0.313572109 0.500137269
vt 0.313317716 0.500137269
vt 0.313317716 0.490179181
vt 0.313572109 0.490179181
vt 0.392372757 0.413018137
vt 0.389178038 0.413018137
vt 0.389178038 0.403368503
vt 0.392372757 0.403368503
vt 0.378079146 0.434655577
vt 0.373991996 0.434666008
vt 0.374446034 0.431616694
vt 0.378079146 0.430074543
vt 0.391681284 0.43030265
vt 0.388393432 0.43030265
vt 0.388393432 0.420652956
vt 0.391681284 0.420652956
vt 0.367779523 0.436689764
vt 0.364142537 0.435153991
vt 0.363687962 0.432103008
vt 0.367779523 0.432104796
vt 0.295255721 0.455211431
vt 0.295255721 0.452460438
vt 0.295704484 0.452002406
vt 0.295704484 0.455488741
vt 0.310011625 0.441008449
vt 0.310011625 0.435218632
vt 0.310513556 0.434929162
vt 0.310513556 0.441297948
vt 0.307624191 0.45166865
vt 0.303423136 0.45166865
vt 0.303423136 0.445299864
vt 0.307624191 0.445299864
vt 0.298983246 0.453997195
vt 0.30143562 0.453990936
vt 0.301894367 0.454453081
vt 0.298747241 0.454461098
vt 0.295255721 0.452460438
vt 0.292800874 0.452459365
vt 0.292553961 0.452001035
vt 0.295704484 0.452002406
vt 0.296754718 0.455489218
vt 0.295704484 0.455488741
vt 0.295704484 0.452002406
vt 0.296754718 0.45106554
vt 0.292553961 0.451063693
vt 0.292553961 0.452001035
vt 0.311470032 0.441297948
vt 0.310513556 0.441297948
vt 0.310513556 0.434929162
vt 0.311470032 0.434929162
vt 0.298747241 0.455397606
vt 0.298747241 0.454461098
vt 0.301894367 0.454453081
vt 0.302943498 0.455386937
vt 0.302943498 0.450967073
vt 0.301894367 0.450969756
vt 0.311012983 0.45166865
vt 0.309980243 0.45166865
vt 0.309980243 0.445299864
vt 0.311012983 0.445299864
vt 0.309596837 0.45137915
vt 0.309596837 0.445589364
vt 0.309980243 0.445299864
vt 0.309980243 0.45166865
vt 0.30143562 0.453990936
vt 0.30143562 0.451242298
vt 0.301894367 0.450969756
vt 0.301894367 0.454453081
vt 0.297083378 0.451063693
vt 0.292553961 0.451063693
vt 0.292553961 0.444694906
vt 0.297083378 0.444694906
vt 0.847182035 0.657243073
vt 0.847182035 0.647593379
vt 0.847182035 0.647593379
vt 0.847182035 0.657243073
vt 0.850470006 0.647593379
vt 0.850470006 0.657243073
vt 0.850470006 0.657243073
vt 0.850470006 0.647593379
vt 0.205857515 0.643482268
vt 0.201787308 0.643398941
vt 0.201787308 0.603482246
vt 0.205857515 0.603565574
vt 0.209927782 0.603482246
vt 0.213899314 0.604626954
vt 0.213899314 0.635288477
vt 0.209927782 0.634143829
vt 0.213899314 0.604626894
vt 0.217870846 0.603482246
vt 0.217870846 0.634143829
vt 0.213899314 0.635288477
vt 0.209927782 0.643482268
vt 0.205857515 0.643398941
vt 0.205857515 0.603482246
vt 0.209927782 0.603565574
vt 0.177870899 0.603482306
vt 0.201787308 0.603482246
vt 0.201787308 0.643398941
vt 0.177870899 0.643398941
vt 0.177870899 0.603482306
vt 0.201787308 0.603482246
vt 0.201787308 0.643398941
vt 0.177870899 0.643398941
vt 0.209927782 0.643482268
vt 0.205857515 0.643398941
vt 0.205857515 0.603482246
vt 0.209927782 0.603565574
vt 0.213899314 0.604626894
vt 0.217870846 0.603482246
vt 0.217870846 0.634143829
vt 0.213899314 0.635288477
vt 0.209927782 0.603482246
vt 0.213899314 0.604626954
vt 0.213899314 0.635288477
vt 0.209927782 0.634143829
vt 0.205857515 0.643482268
vt 0.201787308 0.643398941
vt 0.201787308 0.603482246
vt 0.205857515 0.603565574
vt 0.850470006 0.647593379
vt 0.850470006 0.657243073
vt 0.850470006 0.657243073
vt 0.850470006 0.647593379
vt 0.847182035 0.657243073
vt 0.847182035 0.647593379
vt 0.847182035 0.647593379
vt 0.847182035 0.657243073
vt 0.116611108 0.5355106
vt 0.1223922 0.596863449
vt 0.114692591 0.591347992
vt 0.10590855 0.531458437
vt 0.136827022 0.528614521
vt 0.145491004 0.513409793
vt 0.145490959 0.613409817
vt 0.138561338 0.608445883
vt 0.198963568 0.59875083
vt 0.192018539 0.59875083
vt 0.192018449 0.538416505
vt 0.198963568 0.538416505
vt 0.489325285 0.561042726
vt 0.509541214 0.554146647
vt 0.51127547 0.633978009
vt 0.495106369 0.622395575
vt 0.786670446 0.492392391
vt 0.796841264 0.49110949
vt 0.7968207 0.494047374
vt 0.791504025 0.494606137
vt 0.785704434 0.497937381
vt 0.79137814 0.496033728
vt 0.791315198 0.496747494
vt 0.796805263 0.496250778
vt 0.796810389 0.4955163
vt 0.791283727 0.497104406
vt 0.796800137 0.496985257
vt 0.7968027 0.496618032
vt 0.528907716 0.616841137
vt 0.53468883 0.555488288
vt 0.550857961 0.543905854
vt 0.549123645 0.623737276
vt 0.205908522 0.550980866
vt 0.198963568 0.550980866
vt 0.198963568 0.513409793
vt 0.205908522 0.513409853
vt 0.176409483 0.598205149
vt 0.178143799 0.518373728
vt 0.18507342 0.513409793
vt 0.18507342 0.613409817
vt 0.145491004 0.595361114
vt 0.156193569 0.591309011
vt 0.15427506 0.535471559
vt 0.161974609 0.529956162
vt 0.778865695 0.49110949
vt 0.779401064 0.491067916
vt 0.779408097 0.496617049
vt 0.778845131 0.494047374
vt 0.77883482 0.4955163
vt 0.778829694 0.496250778
vt 0.778827131 0.496618032
vt 0.779408514 0.496986985
vt 0.778824568 0.496985257
vt 0.779408097 0.496617049
vt 0.313317716 0.500137269
vt 0.308337212 0.500137269
vt 0.308337212 0.490179181
vt 0.313317716 0.490179181
vt 0.77401495 0.49293524
vt 0.803032696 0.549495399
vt 0.803454995 0.549494922
vt 0.794840395 0.549885571
vt 0.797164977 0.56828779
vt 0.797158659 0.568643868
vt 0.796736598 0.568642616
vt 0.796734393 0.568286479
vt 0.773918033 0.495923638
vt 0.758969486 0.495923638
vt 0.759148598 0.490575701
vt 0.773568511 0.490575701
vt 0.814709961 0.568286479
vt 0.814712167 0.568642616
vt 0.806692481 0.569173455
vt 0.806527674 0.568126261
vt 0.192018449 0.613409817
vt 0.18507342 0.613409817
vt 0.18507342 0.513409793
vt 0.192018449 0.513409793
vt 0.791283727 0.497104406
vt 0.791315198 0.496747494
vt 0.791315198 0.496747494
vt 0.791283727 0.497104406
vt 0.79137814 0.496033728
vt 0.791504025 0.494606137
vt 0.791504025 0.494606137
vt 0.79137814 0.496033728
vt 0.570258796 0.555398285
vt 0.570680857 0.555399537
vt 0.570674479 0.555755615
vt 0.58823657 0.555754423
vt 0.285966814 0.494293094
vt 0.285966814 0.489170969
vt 0.286258698 0.489233017
vt 0.286258698 0.494447708
vt 0.7968027 0.496618032
vt 0.791283727 0.497104406
vt 0.791315198 0.496747494
vt 0.796805263 0.496250778
vt 0.796810389 0.4955163
vt 0.79137814 0.496033728
vt 0.791504025 0.494606137
vt 0.7968207 0.494047374
vt 0.778845131 0.494047374
vt 0.77883482 0.4955163
vt 0.77883482 0.4955163
vt 0.778845131 0.494047374
vt 0.778829694 0.496250778
vt 0.778827131 0.496618032
vt 0.778827131 0.496618032
vt 0.778829694 0.496250778
vt 0.7968027 0.496618032
vt 0.791283727 0.497104406
vt 0.791283727 0.497104406
vt 0.7968027 0.496618032
vt 0.796810389 0.4955163
vt 0.79137814 0.496033728
vt 0.79137814 0.496033728
vt 0.796810389 0.4955163
vt 0.791315198 0.496747494
vt 0.796805263 0.496250778
vt 0.796805263 0.496250778
vt 0.791315198 0.496747494
vt 0.791504025 0.494606137
vt 0.7968207 0.494047374
vt 0.7968207 0.494047374
vt 0.791504025 0.494606137
vn 0.059355 -0.010427 -0.998182
vn 0.059355 -0.010427 -0.998182
vn 0.059355 -0.010427 -0.998182
vn 0.682081 -0.104752 -0.723735
vn 0.682081 -0.104752 -0.723735
vn 0.682081 -0.104752 -0.723735
vn -0.706223 0.099670 -0.700939
vn -0.706223 0.099670 -0.700939
vn -0.706223 0.099670 -0.700939
vn -0.298731 -0.177872 0.937615
vn -0.298731 -0.177872 0.937615
vn -0.298731 -0.177872 0.937615
vn -0.445594 -0.329418 0.832424
vn -0.445594 -0.329418 0.832424
vn -0.445594 -0.329418 0.832424
vn -0.232673 -0.265308 -0.935668
vn -0.232673 -0.265308 -0.935668
vn -0.232673 -0.265308 -0.935668
vn -0.592315 0.805707 0.000001
vn -0.592315 0.805707 0.000001
vn -0.592315 0.805707 0.000001
vn 0.037053 -0.999313 -0.000000
vn 0.037053 -0.999313 -0.000000
vn 0.037053 -0.999313 -0.000000
vn -0.298731 -0.177872 -0.937615
vn -0.298731 -0.177872 -0.937615
vn -0.298731 -0.177872 -0.937615
vn -0.445594 -0.329418 -0.832424
vn -0.445594 -0.329418 -0.832424
vn -0.445594 -0.329418 -0.832424
vn -0.232673 -0.265307 0.935668
vn -0.232673 -0.265307 0.935668
vn -0.232673 -0.265307 0.935668
vn -0.342769 0.083872 -0.935668
vn -0.342769 0.083872 -0.935668
vn -0.342769 0.083872 -0.935668
vn -0.553956 0.014261 0.832424
vn -0.553956 0.014261 0.832424
vn -0.553956 0.014261 0.832424
vn -0.346729 -0.025641 0.937615
vn -0.346729 -0.025641 0.937615
vn -0.346729 -0.025641 0.937615
vn -0.542830 0.839842 0.000000
vn -0.542830 0.839842 0.000000
vn -0.542830 0.839842 0.000000
vn -0.023061 -0.999734 -0.000000
vn -0.023061 -0.999734 -0.000000
vn -0.023061 -0.999734 -0.000000
vn -0.342769 0.083871 0.935668
vn -0.342769 0.083871 0.935668
vn -0.342769 0.083871 0.935668
vn -0.553956 0.014261 -0.832424
vn -0.553956 0.014261 -0.832424
vn -0.553956 0.014261 -0.832424
vn -0.346729 -0.025641 -0.937615
vn -0.346729 -0.025641 -0.937615
vn -0.346729 -0.025641 -0.937615
vn 0.017480 0.004065 0.999839
vn 0.017480 0.004065 0.999839
vn 0.017480 0.004065 0.999839
vn 0.017480 0.004065 0.999839
vn 0.017480 0.004065 0.999839
vn 0.017480 0.004065 0.999839
vn 0.017480 0.004065 0.999839
vn 0.017480 0.004065 0.999839
vn 0.017480 0.004065 0.999839
vn 0.059356 0.010427 -0.998182
vn 0.059356 0.010427 -0.998182
vn 0.059356 0.010427 -0.998182
vn 0.682081 0.104752 -0.723735
vn 0.682081 0.104752 -0.723735
vn 0.682081 0.104752 -0.723735
vn -0.706223 -0.099670 -0.700939
vn -0.706223 -0.099670 -0.700939
vn -0.706223 -0.099670 -0.700939
vn -0.298731 0.177872 0.937615
vn -0.298731 0.177872 0.937615
vn -0.298731 0.177872 0.937615
vn -0.445594 0.329418 0.832424
vn -0.445594 0.329418 0.832424
vn -0.445594 0.329418 0.832424
vn -0.232673 0.265308 -0.935668
vn -0.232673 0.265308 -0.935668
vn -0.232673 0.265308 -0.935668
vn -0.592315 -0.805707 0.000001
vn -0.592315 -0.805707 0.000001
vn -0.592315 -0.805707 0.000001
vn 0.037053 0.999313 -0.000000
vn 0.037053 0.999313 -0.000000
vn 0.037053 0.999313 -0.000000
vn -0.298731 0.177872 -0.937615
vn -0.298731 0.177872 -0.937615
vn -0.298731 0.177872 -0.937615
vn -0.445594 0.329418 -0.832424
vn -0.445594 0.329418 -0.832424
vn -0.445594 0.329418 -0.832424
vn -0.232673 0.265307 0.935668
vn -0.232673 0.265307 0.935668
vn -0.232673 0.265307 0.935668
vn -0.342769 -0.083872 -0.935668
vn -0.342769 -0.083872 -0.935668
vn -0.342769 -0.083872 -0.935668
vn -0.553956 -0.014261 0.832424
vn -0.553956 -0.014261 0.832424
vn -0.553956 -0.014261 0.832424
vn -0.346729 0.025641 0.937615
vn -0.346729 0.025641 0.937615
vn -0.346729 0.025641 0.937615
vn -0.542830 -0.839842 0.000000
vn -0.542830 -0.839842 0.000000
vn -0.542830 -0.839842 0.000000
vn -0.023061 0.999734 -0.000000
vn -0.023061 0.999734 -0.000000
vn -0.023061 0.999734 -0.000000
vn -0.342769 -0.083871 0.935668
vn -0.342769 -0.083871 0.935668
vn -0.342769 -0.083871 0.935668
vn -0.553956 -0.014261 -0.832424
vn -0.553956 -0.014261 -0.832424
vn -0.553956 -0.014261 -0.832424
vn -0.346729 0.025641 -0.937615
vn -0.346729 0.025641 -0.937615
vn -0.346729 0.025641 -0.937615
vn 0.017480 -0.004065 0.999839
vn 0.017480 -0.004065 0.999839
vn 0.017480 -0.004065 0.999839
vn 0.017480 -0.004065 0.999839
vn 0.017480 -0.004065 0.999839
vn 0.017480 -0.004065 0.999839
vn 0.017480 -0.004065 0.999839
vn 0.017480 -0.004065 0.999839
vn 0.017480 -0.004065 0.999839
vn 0.703987 -0.118752 0.700214
vn 0.703987 -0.118752 0.700214
vn 0.703987 -0.118752 0.700214
vn 0.703987 -0.118752 0.700214
vn 0.029101 -0.004886 0.999565
vn 0.029101 -0.004886 0.999565
vn 0.029101 -0.004886 0.999565
vn 0.029101 -0.004886 0.999565
vn 0.166086 -0.986111 -0.000000
vn 0.166086 -0.986111 -0.000000
vn 0.166086 -0.986111 -0.000000
vn 0.166086 -0.986111 -0.000000
vn -0.125386 0.022160 0.991860
vn -0.125386 0.022160 0.991860
vn -0.125386 0.022160 0.991860
vn -0.125386 0.022160 0.991860
vn 0.359132 -0.933287 -0.000000
vn 0.359132 -0.933287 -0.000000
vn 0.359132 -0.933287 -0.000000
vn 0.359132 -0.933287 -0.000000
vn 0.679892 0.000000 -0.733312
vn 0.679892 0.000000 -0.733312
vn 0.679892 0.000000 -0.733312
vn 0.679892 0.000000 -0.733312
vn 0.059355 -0.010427 -0.998182
vn 0.059355 -0.010427 -0.998182
vn 0.059355 -0.010427 -0.998182
vn 0.059355 -0.010427 -0.998182
vn -0.287374 -0.957818 0.000000
vn -0.287374 -0.957818 0.000000
vn -0.287374 -0.957818 0.000000
vn -0.287374 -0.957818 0.000000
vn -0.125386 0.022160 -0.991860
vn -0.125386 0.022160 -0.991860
vn -0.125386 0.022160 -0.991860
vn -0.125386 0.022160 -0.991860
vn -0.353322 -0.935502 0.000000
vn -0.353322 -0.935502 0.000000
vn -0.353322 -0.935502 0.000000
vn -0.353322 -0.935502 0.000000
vn -0.000000 -0.000029 -1.000000
vn -0.000000 -0.000029 -1.000000
vn -0.000000 -0.000029 -1.000000
vn -0.000000 -0.000029 -1.000000
vn 0.985887 -0.167413 -0.000000
vn 0.985887 -0.167413 -0.000000
vn 0.985887 -0.167413 -0.000000
vn 0.985887 -0.167413 -0.000000
vn 0.677903 0.000000 0.735151
vn 0.677903 0.000000 0.735151
vn 0.677903 0.000000 0.735151
vn 0.677903 0.000000 0.735151
vn 0.013854 0.651166 -0.758809
vn 0.013854 0.651166 -0.758809
vn 0.013854 0.651166 -0.758809
vn 0.013854 0.651166 -0.758809
vn -0.019538 -0.089927 -0.995757
vn -0.019538 -0.089927 -0.995757
vn -0.019538 -0.089927 -0.995757
vn -0.019538 -0.089927 -0.995757
vn -0.000000 -0.000000 1.000000
vn -0.000000 -0.000000 1.000000
vn -0.000000 -0.000000 1.000000
vn -0.000000 -0.000000 1.000000
vn 0.000000 0.000000 1.000000
vn 0.000000 0.000000 1.000000
vn 0.000000 0.000000 1.000000
vn 0.000000 0.000000 1.000000
vn -0.154258 0.024409 -0.987729
vn -0.154258 0.024409 -0.987729
vn -0.154258 0.024409 -0.987729
vn -0.154258 0.024409 -0.987729
vn -0.441243 -0.897387 -0.000000
vn -0.441243 -0.897387 -0.000000
vn -0.441243 -0.897387 -0.000000
vn -0.441243 -0.897387 -0.000000
vn 0.000000 0.000000 -1.000000
vn 0.000000 0.000000 -1.000000
vn 0.000000 0.000000 -1.000000
vn 0.000000 0.000000 -1.000000
vn 0.000000 0.000000 -1.000000
vn 0.000000 0.000000 -1.000000
vn 0.000000 0.000000 1.000000
vn 0.000000 0.000000 1.000000
vn 0.000000 0.000000 1.000000
vn 0.000000 0.000000 1.000000
vn 0.000000 0.000000 1.000000
vn 0.000000 0.000000 1.000000
vn -1.000000 0.000000 -0.000000
vn -1.000000 0.000000 -0.000000
vn -1.000000 0.000000 -0.000000
vn -1.000000 0.000000 -0.000000
vn -0.974996 0.222222 -0.000000
vn -0.974996 0.222222 -0.000000
vn -0.974996 0.222222 -0.000000
vn -0.974996 0.222222 -0.000000
vn 0.000000 0.000000 -1.000000
vn 0.000000 0.000000 -1.000000
vn 0.000000 0.000000 -1.000000
vn 0.000000 0.000000 -1.000000
vn -0.659353 -0.751834 -0.000000
vn -0.659353 -0.751834 -0.000000
vn -0.659353 -0.751834 -0.000000
vn -0.659353 -0.751834 -0.000000
vn 0.000000 0.000000 1.000000
vn 0.000000 0.000000 1.000000
vn 0.000000 0.000000 1.000000
vn 0.000000 0.000000 1.000000
vn -0.525373 0.191220 0.829107
vn -0.525373 0.191220 0.829107
vn -0.525373 0.191220 0.829107
vn -0.525373 0.191220 0.829107
vn -0.989391 -0.145277 -0.000000
vn -0.989391 -0.145277 -0.000000
vn -0.989391 -0.145277 -0.000000
vn -0.989391 -0.145277 -0.000000
vn 0.342020 0.939693 -0.000000
vn 0.342020 0.939693 -0.000000
vn 0.342020 0.939693 -0.000000
vn 0.342020 0.939693 -0.000000
vn -0.185611 -0.509961 -0.839934
vn -0.185611 -0.509961 -0.839934
vn -0.185611 -0.509961 -0.839934
vn -0.185611 -0.509961 -0.839934
vn -0.185611 -0.509961 0.839934
vn -0.185611 -0.509961 0.839934
vn -0.185611 -0.509961 0.839934
vn -0.185611 -0.509961 0.839934
vn 0.000000 -0.000000 1.000000
vn 0.000000 -0.000000 1.000000
vn 0.000000 -0.000000 1.000000
vn 0.000000 -0.000000 1.000000
vn 0.000000 -0.000000 1.000000
vn 0.000000 -0.000000 1.000000
vn -0.939693 0.342020 -0.000000
vn -0.939693 0.342020 -0.000000
vn -0.939693 0.342020 -0.000000
vn -0.939693 0.342020 -0.000000
vn 0.000000 0.000000 -1.000000
vn 0.000000 0.000000 -1.000000
vn 0.000000 0.000000 -1.000000
vn 0.000000 0.000000 -1.000000
vn 0.000000 0.000000 -1.000000
vn 0.000000 0.000000 -1.000000
vn -0.342021 -0.939692 -0.000000
vn -0.342021 -0.939692 -0.000000
vn -0.342021 -0.939692 -0.000000
vn -0.342021 -0.939692 -0.000000
vn -0.807327 -0.590105 -0.000000
vn -0.807327 -0.590105 -0.000000
vn -0.807327 -0.590105 -0.000000
vn -0.807327 -0.590105 -0.000000
vn -0.525374 0.191221 -0.829106
vn -0.525374 0.191221 -0.829106
vn -0.525374 0.191221 -0.829106
vn -0.525374 0.191221 -0.829106
vn 0.939693 -0.342020 -0.000000
vn 0.939693 -0.342020 -0.000000
vn 0.939693 -0.342020 -0.000000
vn 0.939693 -0.342020 -0.000000
vn -0.961074 0.276292 0.000000
vn -0.961074 0.276292 0.000000
vn -0.961074 0.276292 0.000000
vn -0.961074 0.276292 0.000000
vn 0.751833 -0.659354 -0.000000
vn 0.751833 -0.659354 -0.000000
vn 0.751833 -0.659354 -0.000000
vn 0.751833 -0.659354 -0.000000
vn -0.796017 0.605275 -0.000000
vn -0.796017 0.605275 -0.000000
vn -0.796017 0.605275 -0.000000
vn -0.796017 0.605275 -0.000000
vn -0.122029 -0.151590 -0.980882
vn -0.122029 -0.151590 -0.980882
vn -0.122029 -0.151590 -0.980882
vn -0.122029 -0.151590 -0.980882
vn -0.132208 -0.164235 0.977521
vn -0.132208 -0.164235 0.977521
vn -0.132208 -0.164235 0.977521
vn -0.132208 -0.164235 0.977521
vn -0.961267 0.275617 0.000000
vn -0.961267 0.275617 0.000000
vn -0.961267 0.275617 0.000000
vn -0.961267 0.275617 0.000000
vn -0.659353 -0.751833 -0.000000
vn -0.659353 -0.751833 -0.000000
vn -0.659353 -0.751833 -0.000000
vn -0.659353 -0.751833 -0.000000
vn -0.971344 0.237677 -0.000000
vn -0.971344 0.237677 -0.000000
vn -0.971344 0.237677 -0.000000
vn -0.971344 0.237677 -0.000000
vn -0.629337 -0.777133 -0.000000
vn -0.629337 -0.777133 -0.000000
vn -0.629337 -0.777133 -0.000000
vn -0.629337 -0.777133 -0.000000
vn -0.202499 0.058702 -0.977522
vn -0.202499 0.058702 -0.977522
vn -0.202499 0.058702 -0.977522
vn -0.202499 0.058702 -0.977522
vn -0.186910 0.054182 0.980882
vn -0.186910 0.054182 0.980882
vn -0.186910 0.054182 0.980882
vn -0.186910 0.054182 0.980882
vn -0.304887 -0.952389 -0.000000
vn -0.304887 -0.952389 -0.000000
vn -0.304887 -0.952389 -0.000000
vn -0.304887 -0.952389 -0.000000
vn 0.237676 0.971345 0.000000
vn 0.237676 0.971345 0.000000
vn 0.237676 0.971345 0.000000
vn 0.237676 0.971345 0.000000
vn -0.628791 -0.777574 -0.000000
vn -0.628791 -0.777574 -0.000000
vn -0.628791 -0.777574 -0.000000
vn -0.628791 -0.777574 -0.000000
vn 0.000000 0.000000 -1.000000
vn 0.000000 0.000000 -1.000000
vn 0.000000 0.000000 -1.000000
vn 0.000000 0.000000 -1.000000
vn 0.000000 0.000000 -1.000000
vn 0.000000 0.000000 -1.000000
vn 0.000000 0.000000 -1.000000
vn 0.000000 0.000000 -1.000000
vn -0.106199 -0.994345 -0.000000
vn -0.106199 -0.994345 -0.000000
vn -0.106199 -0.994345 -0.000000
vn -0.106199 -0.994345 -0.000000
vn 0.000000 0.000000 -1.000000
vn 0.000000 0.000000 -1.000000
vn 0.000000 0.000000 -1.000000
vn 0.000000 0.000000 -1.000000
vn 0.061634 -0.009896 -0.998050
vn 0.061634 -0.009896 -0.998050
vn 0.061634 -0.009896 -0.998050
vn 0.061634 -0.009896 -0.998050
vn 0.061634 -0.009896 -0.998050
vn 0.061634 -0.009896 -0.998050
vn 0.061634 -0.009896 -0.998050
vn 0.061634 -0.009896 -0.998050
vn 0.061634 -0.009896 -0.998050
vn 0.061634 -0.009896 -0.998050
vn 0.061634 -0.009896 -0.998050
vn 0.061634 -0.009896 -0.998050
vn 0.000000 0.000000 1.000000
vn 0.000000 0.000000 1.000000
vn 0.000000 0.000000 1.000000
vn 0.000000 0.000000 1.000000
vn 0.884210 -0.467089 -0.000000
vn 0.884210 -0.467089 -0.000000
vn 0.884210 -0.467089 -0.000000
vn 0.884210 -0.467089 -0.000000
vn 0.000000 0.000000 1.000000
vn 0.000000 0.000000 1.000000
vn 0.000000 0.000000 1.000000
vn 0.000000 0.000000 1.000000
vn 0.000000 0.000000 1.000000
vn 0.000000 0.000000 1.000000
vn 0.000000 0.000000 1.000000
vn 0.000000 0.000000 1.000000
vn 0.060740 -0.004681 -0.998143
vn 0.060740 -0.004681 -0.998143
vn 0.060740 -0.004681 -0.998143
vn 0.060740 -0.004681 -0.998143
vn 0.060740 -0.004681 -0.998143
vn 0.060740 -0.004681 -0.998143
vn 0.060740 -0.004681 -0.998143
vn 0.060721 -0.000370 -0.998155
vn 0.060721 -0.000370 -0.998155
vn 0.060721 -0.000370 -0.998155
vn -0.984404 0.175920 -0.000000
vn -0.984404 0.175920 -0.000000
vn -0.984404 0.175920 -0.000000
vn -0.984404 0.175920 -0.000000
vn 0.017480 0.004065 0.999839
vn 0.017480 0.004065 0.999839
vn 0.017480 0.004065 0.999839
vn 0.017480 0.004065 0.999839
vn -0.161640 -0.000026 -0.986850
vn -0.161640 -0.000026 -0.986850
vn -0.161640 -0.000026 -0.986850
vn -0.161640 -0.000026 -0.986850
vn 0.166087 -0.986111 -0.000000
vn 0.166087 -0.986111 -0.000000
vn 0.166087 -0.986111 -0.000000
vn 0.166087 -0.986111 -0.000000
vn -0.154603 0.022659 -0.987717
vn -0.154603 0.022659 -0.987717
vn -0.154603 0.022659 -0.987717
vn -0.154603 0.022659 -0.987717
vn -0.015100 0.999886 -0.000000
vn -0.015100 0.999886 -0.000000
vn -0.015100 0.999886 -0.000000
vn -0.015100 0.999886 -0.000000
vn 0.106886 -0.788838 -0.605235
vn 0.106886 -0.788838 -0.605235
vn 0.106886 -0.788838 -0.605235
vn 0.106886 -0.788838 -0.605235
vn 0.107015 -0.807033 -0.580728
vn 0.107015 -0.807033 -0.580728
vn 0.107015 -0.807033 -0.580728
vn 0.107015 -0.807033 -0.580728
vn -0.161640 -0.000009 -0.986850
vn -0.161640 -0.000009 -0.986850
vn -0.161640 -0.000009 -0.986850
vn -0.161640 -0.000009 -0.986850
vn 0.704915 -0.112748 -0.700273
vn 0.704915 -0.112748 -0.700273
vn 0.704915 -0.112748 -0.700273
vn 0.704915 -0.112748 -0.700273
vn 0.061262 -0.009615 -0.998075
vn 0.061262 -0.009615 -0.998075
vn 0.061262 -0.009615 -0.998075
vn 0.061262 -0.009615 -0.998075
vn 0.061279 -0.009988 -0.998071
vn 0.061279 -0.009988 -0.998071
vn 0.061279 -0.009988 -0.998071
vn 0.061279 -0.009988 -0.998071
vn 0.029469 0.803540 -0.594521
vn 0.029469 0.803540 -0.594521
vn 0.029469 0.803540 -0.594521
vn 0.029469 0.803540 -0.594521
vn 0.031125 0.784759 -0.619019
vn 0.031125 0.784759 -0.619019
vn 0.031125 0.784759 -0.619019
vn 0.031125 0.784759 -0.619019
vn -0.883281 0.136622 -0.448496
vn -0.883281 0.136622 -0.448496
vn -0.883281 0.136622 -0.448496
vn -0.883281 0.136622 -0.448496
vn -0.886271 0.142207 -0.440796
vn -0.886271 0.142207 -0.440796
vn -0.886271 0.142207 -0.440796
vn -0.886271 0.142207 -0.440796
vn 0.893090 -0.142319 -0.426773
vn 0.893090 -0.142319 -0.426773
vn 0.893090 -0.142319 -0.426773
vn 0.893090 -0.142319 -0.426773
vn 0.895486 -0.148354 -0.419638
vn 0.895486 -0.148354 -0.419638
vn 0.895486 -0.148354 -0.419638
vn 0.895486 -0.148354 -0.419638
vn 0.703987 0.118752 0.700214
vn 0.703987 0.118752 0.700214
vn 0.703987 0.118752 0.700214
vn 0.703987 0.118752 0.700214
vn 0.029101 0.004886 0.999565
vn 0.029101 0.004886 0.999565
vn 0.029101 0.004886 0.999565
vn 0.029101 0.004886 0.999565
vn 0.166086 0.986111 0.000000
vn 0.166086 0.986111 0.000000
vn 0.166086 0.986111 0.000000
vn 0.166086 0.986111 0.000000
vn -0.125386 -0.022160 0.991860
vn -0.125386 -0.022160 0.991860
vn -0.125386 -0.022160 0.991860
vn -0.125386 -0.022160 0.991860
vn 0.359132 0.933287 -0.000000
vn 0.359132 0.933287 -0.000000
vn 0.359132 0.933287 -0.000000
vn 0.359132 0.933287 -0.000000
vn 0.679892 0.000000 -0.733312
vn 0.679892 0.000000 -0.733312
vn 0.679892 0.000000 -0.733312
vn 0.679892 0.000000 -0.733312
vn 0.059356 0.010427 -0.998182
vn 0.059356 0.010427 -0.998182
vn 0.059356 0.010427 -0.998182
vn 0.059356 0.010427 -0.998182
vn -0.287374 0.957818 0.000000
vn -0.287374 0.957818 0.000000
vn -0.287374 0.957818 0.000000
vn -0.287374 0.957818 0.000000
vn -0.125386 -0.022160 -0.991860
vn -0.125386 -0.022160 -0.991860
vn -0.125386 -0.022160 -0.991860
vn -0.125386 -0.022160 -0.991860
vn -0.353322 0.935502 0.000000
vn -0.353322 0.935502 0.000000
vn -0.353322 0.935502 0.000000
vn -0.353322 0.935502 0.000000
vn -0.000000 0.000029 -1.000000
vn -0.000000 0.000029 -1.000000
vn -0.000000 0.000029 -1.000000
vn -0.000000 0.000029 -1.000000
vn 0.985887 0.167413 -0.000000
vn 0.985887 0.167413 -0.000000
vn 0.985887 0.167413 -0.000000
vn 0.985887 0.167413 -0.000000
vn 0.677903 0.000000 0.735151
vn 0.677903 0.000000 0.735151
vn 0.677903 0.000000 0.735151
vn 0.677903 0.000000 0.735151
vn 0.013854 -0.651166 -0.758809
vn 0.013854 -0.651166 -0.758809
vn 0.013854 -0.651166 -0.758809
vn 0.013854 -0.651166 -0.758809
vn -0.019538 0.089927 -0.995757
vn -0.019538 0.089927 -0.995757
vn -0.019538 0.089927 -0.995757
vn -0.019538 0.089927 -0.995757
vn 0.000000 0.000000 1.000000
vn 0.000000 0.000000 1.000000
vn 0.000000 0.000000 1.000000
vn 0.000000 0.000000 1.000000
vn 0.000000 0.000000 1.000000
vn 0.000000 0.000000 1.000000
vn -0.154258 -0.024409 -0.987729
vn -0.154258 -0.024409 -0.987729
vn -0.154258 -0.024409 -0.987729
vn -0.154258 -0.024409 -0.987729
vn -0.441243 0.897387 -0.000000
vn -0.441243 0.897387 -0.000000
vn -0.441243 0.897387 -0.000000
vn -0.441243 0.897387 -0.000000
vn 0.000000 0.000000 -1.000000
vn 0.000000 0.000000 -1.000000
vn 0.000000 0.000000 -1.000000
vn 0.000000 0.000000 -1.000000
vn 0.000000 0.000000 -1.000000
vn 0.000000 0.000000 -1.000000
vn 0.000000 0.000000 1.000000
vn 0.000000 0.000000 1.000000
vn 0.000000 0.000000 1.000000
vn 0.000000 0.000000 1.000000
vn 0.000000 0.000000 1.000000
vn 0.000000 0.000000 1.000000
vn -1.000000 0.000000 -0.000000
vn -1.000000 0.000000 -0.000000
vn -1.000000 0.000000 -0.000000
vn -1.000000 0.000000 -0.000000
vn -0.974996 -0.222222 -0.000000
vn -0.974996 -0.222222 -0.000000
vn -0.974996 -0.222222 -0.000000
vn -0.974996 -0.222222 -0.000000
vn 0.000000 0.000000 -1.000000
vn 0.000000 0.000000 -1.000000
vn 0.000000 0.000000 -1.000000
vn 0.000000 0.000000 -1.000000
vn -0.659353 0.751834 -0.000000
vn -0.659353 0.751834 -0.000000
vn -0.659353 0.751834 -0.000000
vn -0.659353 0.751834 -0.000000
vn 0.000000 0.000000 1.000000
vn 0.000000 0.000000 1.000000
vn 0.000000 0.000000 1.000000
vn 0.000000 0.000000 1.000000
vn -0.525373 -0.191220 0.829107
vn -0.525373 -0.191220 0.829107
vn -0.525373 -0.191220 0.829107
vn -0.525373 -0.191220 0.829107
vn -0.989391 0.145277 -0.000000
vn -0.989391 0.145277 -0.000000
vn -0.989391 0.145277 -0.000000
vn -0.989391 0.145277 -0.000000
vn 0.342020 -0.939693 0.000000
vn 0.342020 -0.939693 0.000000
vn 0.342020 -0.939693 0.000000
vn 0.342020 -0.939693 0.000000
vn -0.185611 0.509961 -0.839934
vn -0.185611 0.509961 -0.839934
vn -0.185611 0.509961 -0.839934
vn -0.185611 0.509961 -0.839934
vn -0.185610 0.509961 0.839934
vn -0.185610 0.509961 0.839934
vn -0.185610 0.509961 0.839934
vn -0.185610 0.509961 0.839934
vn -0.000000 0.000000 1.000000
vn -0.000000 0.000000 1.000000
vn -0.000000 0.000000 1.000000
vn -0.000000 0.000000 1.000000
vn -0.000000 0.000000 1.000000
vn -0.000000 0.000000 1.000000
vn -0.939693 -0.342020 -0.000000
vn -0.939693 -0.342020 -0.000000
vn -0.939693 -0.342020 -0.000000
vn -0.939693 -0.342020 -0.000000
vn 0.000000 0.000000 -1.000000
vn 0.000000 0.000000 -1.000000
vn 0.000000 0.000000 -1.000000
vn 0.000000 0.000000 -1.000000
vn 0.000000 0.000000 -1.000000
vn 0.000000 0.000000 -1.000000
vn -0.342021 0.939692 -0.000000
vn -0.342021 0.939692 -0.000000
vn -0.342021 0.939692 -0.000000
vn -0.342021 0.939692 -0.000000
vn -0.807327 0.590105 -0.000000
vn -0.807327 0.590105 -0.000000
vn -0.807327 0.590105 -0.000000
vn -0.807327 0.590105 -0.000000
vn -0.525374 -0.191221 -0.829106
vn -0.525374 -0.191221 -0.829106
vn -0.525374 -0.191221 -0.829106
vn -0.525374 -0.191221 -0.829106
vn 0.939693 0.342020 -0.000000
vn 0.939693 0.342020 -0.000000
vn 0.939693 0.342020 -0.000000
vn 0.939693 0.342020 -0.000000
vn -0.961074 -0.276292 0.000000
vn -0.961074 -0.276292 0.000000
vn -0.961074 -0.276292 0.000000
vn -0.961074 -0.276292 0.000000
vn 0.751833 0.659353 -0.000000
vn 0.751833 0.659353 -0.000000
vn 0.751833 0.659353 -0.000000
vn 0.751833 0.659353 -0.000000
vn -0.796017 -0.605275 -0.000000
vn -0.796017 -0.605275 -0.000000
vn -0.796017 -0.605275 -0.000000
vn -0.796017 -0.605275 -0.000000
vn -0.122030 0.151591 -0.980882
vn -0.122030 0.151591 -0.980882
vn -0.122030 0.151591 -0.980882
vn -0.122030 0.151591 -0.980882
vn -0.132208 0.164234 0.977521
vn -0.132208 0.164234 0.977521
vn -0.132208 0.164234 0.977521
vn -0.132208 0.164234 0.977521
vn -0.961267 -0.275617 0.000000
vn -0.961267 -0.275617 0.000000
vn -0.961267 -0.275617 0.000000
vn -0.961267 -0.275617 0.000000
vn -0.659353 0.751833 -0.000000
vn -0.659353 0.751833 -0.000000
vn -0.659353 0.751833 -0.000000
vn -0.659353 0.751833 -0.000000
vn -0.971344 -0.237677 0.000000
vn -0.971344 -0.237677 0.000000
vn -0.971344 -0.237677 0.000000
vn -0.971344 -0.237677 0.000000
vn -0.629337 0.777133 -0.000000
vn -0.629337 0.777133 -0.000000
vn -0.629337 0.777133 -0.000000
vn -0.629337 0.777133 -0.000000
vn -0.202499 -0.058702 -0.977522
vn -0.202499 -0.058702 -0.977522
vn -0.202499 -0.058702 -0.977522
vn -0.202499 -0.058702 -0.977522
vn -0.186910 -0.054182 0.980882
vn -0.186910 -0.054182 0.980882
vn -0.186910 -0.054182 0.980882
vn -0.186910 -0.054182 0.980882
vn -0.304887 0.952389 -0.000000
vn -0.304887 0.952389 -0.000000
vn -0.304887 0.952389 -0.000000
vn -0.304887 0.952389 -0.000000
vn 0.237676 -0.971345 0.000000
vn 0.237676 -0.971345 0.000000
vn 0.237676 -0.971345 0.000000
vn 0.237676 -0.971345 0.000000
vn -0.628791 0.777574 -0.000000
vn -0.628791 0.777574 -0.000000
vn -0.628791 0.777574 -0.000000
vn -0.628791 0.777574 -0.000000
vn 0.000000 0.000000 -1.000000
vn 0.000000 0.000000 -1.000000
vn 0.000000 0.000000 -1.000000
vn 0.000000 0.000000 -1.000000
vn 0.000000 0.000000 -1.000000
vn 0.000000 0.000000 -1.000000
vn 0.000000 0.000000 -1.000000
vn 0.000000 0.000000 -1.000000
vn -0.106199 0.994345 -0.000000
vn -0.106199 0.994345 -0.000000
vn -0.106199 0.994345 -0.000000
vn -0.106199 0.994345 -0.000000
vn 0.000000 0.000000 -1.000000
vn 0.000000 0.000000 -1.000000
vn 0.000000 0.000000 -1.000000
vn 0.000000 0.000000 -1.000000
vn 0.061634 0.009896 -0.998050
vn 0.061634 0.009896 -0.998050
vn 0.061634 0.009896 -0.998050
vn 0.061634 0.009896 -0.998050
vn 0.061634 0.009896 -0.998050
vn 0.061634 0.009896 -0.998050
vn 0.061634 0.009896 -0.998050
vn 0.061634 0.009896 -0.998050
vn 0.061634 0.009896 -0.998050
vn 0.061634 0.009896 -0.998050
vn 0.061634 0.009896 -0.998050
vn 0.061634 0.009896 -0.998050
vn 0.000000 0.000000 1.000000
vn 0.000000 0.000000 1.000000
vn 0.000000 0.000000 1.000000
vn 0.000000 0.000000 1.000000
vn 0.884210 0.467089 -0.000000
vn 0.884210 0.467089 -0.000000
vn 0.884210 0.467089 -0.000000
vn 0.884210 0.467089 -0.000000
vn 0.000000 0.000000 1.000000
vn 0.000000 0.000000 1.000000
vn 0.000000 0.000000 1.000000
vn 0.000000 0.000000 1.000000
vn 0.000000 0.000000 1.000000
vn 0.000000 0.000000 1.000000
vn 0.000000 0.000000 1.000000
vn 0.000000 0.000000 1.000000
vn 0.060740 0.004681 -0.998143
vn 0.060740 0.004681 -0.998143
vn 0.060740 0.004681 -0.998143
vn 0.060740 0.004681 -0.998143
vn 0.060740 0.004681 -0.998143
vn 0.060740 0.004681 -0.998143
vn 0.060740 0.004681 -0.998143
vn 0.060722 0.000370 -0.998155
vn 0.060722 0.000370 -0.998155
vn 0.060722 0.000370 -0.998155
vn -0.984404 -0.175920 -0.000000
vn -0.984404 -0.175920 -0.000000
vn -0.984404 -0.175920 -0.000000
vn -0.984404 -0.175920 -0.000000
vn 0.017480 -0.004065 0.999839
vn 0.017480 -0.004065 0.999839
vn 0.017480 -0.004065 0.999839
vn 0.017480 -0.004065 0.999839
vn -0.161640 0.000026 -0.986850
vn -0.161640 0.000026 -0.986850
vn -0.161640 0.000026 -0.986850
vn -0.161640 0.000026 -0.986850
vn 0.166087 0.986111 -0.000000
vn 0.166087 0.986111 -0.000000
vn 0.166087 0.986111 -0.000000
vn 0.166087 0.986111 -0.000000
vn -0.154603 -0.022659 -0.987717
vn -0.154603 -0.022659 -0.987717
vn -0.154603 -0.022659 -0.987717
vn -0.154603 -0.022659 -0.987717
vn -0.015100 -0.999886 -0.000000
vn -0.015100 -0.999886 -0.000000
vn -0.015100 -0.999886 -0.000000
vn -0.015100 -0.999886 -0.000000
vn 0.106886 0.788838 -0.605235
vn 0.106886 0.788838 -0.605235
vn 0.106886 0.788838 -0.605235
vn 0.106886 0.788838 -0.605235
vn 0.107015 0.807033 -0.580728
vn 0.107015 0.807033 -0.580728
vn 0.107015 0.807033 -0.580728
vn 0.107015 0.807033 -0.580728
vn -0.161640 0.000009 -0.986850
vn -0.161640 0.000009 -0.986850
vn -0.161640 0.000009 -0.986850
vn -0.161640 0.000009 -0.986850
vn 0.704915 0.112748 -0.700273
vn 0.704915 0.112748 -0.700273
vn 0.704915 0.112748 -0.700273
vn 0.704915 0.112748 -0.700273
vn 0.061262 0.009615 -0.998075
vn 0.061262 0.009615 -0.998075
vn 0.061262 0.009615 -0.998075
vn 0.061262 0.009615 -0.998075
vn 0.061279 0.009988 -0.998071
vn 0.061279 0.009988 -0.998071
vn 0.061279 0.009988 -0.998071
vn 0.061279 0.009988 -0.998071
vn 0.029469 -0.803540 -0.594521
vn 0.029469 -0.803540 -0.594521
vn 0.029469 -0.803540 -0.594521
vn 0.029469 -0.803540 -0.594521
vn 0.031125 -0.784759 -0.619019
vn 0.031125 -0.784759 -0.619019
vn 0.031125 -0.784759 -0.619019
vn 0.031125 -0.784759 -0.619019
vn -0.883281 -0.136621 -0.448496
vn -0.883281 -0.136621 -0.448496
vn -0.883281 -0.136621 -0.448496
vn -0.883281 -0.136621 -0.448496
vn -0.886271 -0.142207 -0.440796
vn -0.886271 -0.142207 -0.440796
vn -0.886271 -0.142207 -0.440796
vn -0.886271 -0.142207 -0.440796
vn 0.893090 0.142319 -0.426773
vn 0.893090 0.142319 -0.426773
vn 0.893090 0.142319 -0.426773
vn 0.893090 0.142319 -0.426773
vn 0.895486 0.148354 -0.419638
vn 0.895486 0.148354 -0.419638
vn 0.895486 0.148354 -0.419638
vn 0.895486 0.148354 -0.419638
f 1/1/1 2/2/2 3/3/3
f 4/4/4 5/5/5 6/6/6
f 7/7/7 8/8/8 9/9/9
f 10/10/10 11/11/11 12/12/12
f 13/13/13 14/14/14 15/15/15
f 16/16/16 17/17/17 18/18/18
f 19/19/19 20/20/20 21/21/21
f 22/22/22 23/23/23 24/24/24
f 25/25/25 26/26/26 27/27/27
f 28/28/28 29/29/29 30/30/30
f 31/31/31 32/32/32 33/33/33
f 34/34/34 35/35/35 36/36/36
f 37/37/37 38/38/38 39/39/39
f 40/40/40 41/41/41 42/42/42
f 43/43/43 44/44/44 45/45/45
f 46/46/46 47/47/47 48/48/48
f 49/49/49 50/50/50 51/51/51
f 52/52/52 53/53/53 54/54/54
f 55/55/55 56/56/56 57/57/57
f 58/58/58 59/59/59 60/60/60
f 61/61/61 62/62/62 63/63/63
f 64/64/64 65/65/65 66/66/66
f 67/67/67 68/68/68 69/69/69
f 70/70/70 71/71/71 72/72/72
f 73/73/73 74/74/74 75/75/75
f 76/76/76 77/77/77 78/78/78
f 79/79/79 80/80/80 81/81/81
f 82/82/82 83/83/83 84/84/84
f 85/85/85 86/86/86 87/87/87
f 88/88/88 89/89/89 90/90/90
f 91/91/91 92/92/92 93/93/93
f 94/94/94 95/95/95 96/96/96
f 97/97/97 98/98/98 99/99/99
f 100/100/100 101/101/101 102/102/102
f 103/103/103 104/104/104 105/105/105
f 106/106/106 107/107/107 108/108/108
f 109/109/109 110/110/110 111/111/111
f 112/112/112 113/113/113 114/114/114
f 115/115/115 116/116/116 117/117/117
f 118/118/118 119/119/119 120/120/120
f 121/121/121 122/122/122 123/123/123
f 124/124/124 125/125/125 126/126/126
f 127/127/127 128/128/128 129/129/129
f 130/130/130 131/131/131 132/132/132
f 133/133/133 134/134/134 135/135/135
f 133/133/133 135/135/135 136/136/136
f 137/137/137 138/138/138 139/139/139
f 137/137/137 139/139/139 140/140/140
f 141/141/141 142/142/142 143/143/143
f 141/141/141 143/143/143 144/144/144
f 145/145/145 146/146/146 147/147/147
f 145/145/145 147/147/147 148/148/148
f 149/149/149 150/150/150 151/151/151
f 149/149/149 151/151/151 152/152/152
f 153/153/153 154/154/154 155/155/155
f 153/153/153 155/155/155 156/156/156
f 157/157/157 158/158/158 159/159/159
f 159/159/159 160/160/160 157/157/157
f 161/161/161 162/162/162 163/163/163
f 161/161/161 163/163/163 164/164/164
f 165/165/165 166/166/166 167/167/167
f 165/165/165 167/167/167 168/168/168
f 169/169/169 170/170/170 171/171/171
f 169/169/169 171/171/171 172/172/172
f 173/173/173 174/174/174 175/175/175
f 173/173/173 175/175/175 176/176/176
f 177/177/177 178/178/178 179/179/179
f 177/177/177 179/179/179 180/180/180
f 181/181/181 182/182/182 183/183/183
f 181/181/181 183/183/183 184/184/184
f 185/185/185 186/186/186 187/187/187
f 185/185/185 187/187/187 188/188/188
f 189/189/189 190/190/190 191/191/191
f 189/189/189 191/191/191 192/192/192
f 193/193/193 194/194/194 195/195/195
f 193/193/193 195/195/195 196/196/196
f 197/197/197 198/198/198 199/199/199
f 197/197/197 199/199/199 200/200/200
f 201/201/201 202/202/202 203/203/203
f 201/201/201 203/203/203 204/204/204
f 205/205/205 206/206/206 207/207/207
f 205/205/205 207/207/207 208/208/208
f 209/209/209 210/210/210 211/211/211
f 211/211/211 212/212/212 209/209/209
f 212/212/212 213/213/213 209/209/209
f 212/212/212 214/214/214 213/213/213
f 215/215/215 216/216/216 217/217/217
f 218/218/218 217/217/217 216/216/216
f 219/219/219 218/218/218 216/216/216
f 216/216/216 220/220/220 219/219/219
f 221/221/221 222/222/222 223/223/223
f 221/221/221 223/223/223 224/224/224
f 225/225/225 226/226/226 227/227/227
f 225/225/225 227/227/227 228/228/228
f 229/229/229 230/230/230 231/231/231
f 229/229/229 231/231/231 232/232/232
f 233/233/233 234/234/234 235/235/235
f 233/233/233 235/235/235 236/236/236
f 237/237/237 238/238/238 239/239/239
f 237/237/237 239/239/239 240/240/240
f 241/241/241 242/242/242 243/243/243
f 241/241/241 243/243/243 244/244/244
f 245/245/245 246/246/246 247/247/247
f 245/245/245 247/247/247 248/248/248
f 249/249/249 250/250/250 251/251/251
f 249/249/249 251/251/251 252/252/252
f 253/253/253 254/254/254 255/255/255
f 253/253/253 255/255/255 256/256/256
f 257/257/257 258/258/258 259/259/259
f 257/257/257 259/259/259 260/260/260
f 261/261/261 262/262/262 263/263/263
f 263/263/263 264/264/264 261/261/261
f 265/265/265 264/264/264 263/263/263
f 263/263/263 266/266/266 265/265/265
f 267/267/267 268/268/268 269/269/269
f 267/267/267 269/269/269 270/270/270
f 271/271/271 272/272/272 273/273/273
f 273/273/273 274/274/274 271/271/271
f 275/275/275 274/274/274 273/273/273
f 273/273/273 276/276/276 275/275/275
f 277/277/277 278/278/278 279/279/279
f 277/277/277 279/279/279 280/280/280
f 281/281/281 282/282/282 283/283/283
f 281/281/281 283/283/283 284/284/284
f 285/285/285 286/286/286 287/287/287
f 285/285/285 287/287/287 288/288/288
f 289/289/289 290/290/290 291/291/291
f 289/289/289 291/291/291 292/292/292
f 293/293/293 294/294/294 295/295/295
f 293/293/293 295/295/295 296/296/296
f 297/297/297 298/298/298 299/299/299
f 297/297/297 299/299/299 300/300/300
f 301/301/301 302/302/302 303/303/303
f 301/301/301 303/303/303 304/304/304
f 305/305/305 306/306/306 307/307/307
f 305/305/305 307/307/307 308/308/308
f 309/309/309 310/310/310 311/311/311
f 309/309/309 311/311/311 312/312/312
f 313/313/313 314/314/314 315/315/315
f 313/313/313 315/315/315 316/316/316
f 317/317/317 318/318/318 319/319/319
f 317/317/317 319/319/319 320/320/320
f 321/321/321 322/322/322 323/323/323
f 321/321/321 323/323/323 324/324/324
f 325/325/325 326/326/326 327/327/327
f 325/325/325 327/327/327 328/328/328
f 329/329/329 330/330/330 331/331/331
f 329/329/329 331/331/331 332/332/332
f 333/333/333 334/334/334 335/335/335
f 333/333/333 335/335/335 336/336/336
f 337/337/337 338/338/338 339/339/339
f 337/337/337 339/339/339 340/340/340
f 341/341/341 342/342/342 343/343/343
f 341/341/341 343/343/343 344/344/344
f 345/345/345 346/346/346 347/347/347
f 345/345/345 347/347/347 348/348/348
f 349/349/349 350/350/350 351/351/351
f 351/351/351 352/352/352 349/349/349
f 349/349/349 352/352/352 353/353/353
f 353/353/353 354/354/354 349/349/349
f 353/353/353 355/355/355 354/354/354
f 355/355/355 356/356/356 354/354/354
f 357/357/357 358/358/358 359/359/359
f 357/357/357 359/359/359 360/360/360
f 361/361/361 362/362/362 363/363/363
f 361/361/361 363/363/363 364/364/364
f 365/365/365 366/366/366 367/367/367
f 367/367/367 368/368/368 365/365/365
f 369/369/369 368/368/368 367/367/367
f 369/369/369 367/367/367 370/370/370
f 369/369/369 371/371/371 368/368/368
f 371/371/371 369/369/369 372/372/372
f 372/372/372 373/373/373 371/371/371
f 374/374/374 369/369/369 370/370/370
f 374/374/374 370/370/370 375/375/375
f 375/375/375 376/376/376 374/374/374
f 377/377/377 378/378/378 379/379/379
f 377/377/377 379/379/379 380/380/380
f 381/381/381 382/382/382 383/383/383
f 381/381/381 383/383/383 384/384/384
f 385/385/385 386/386/386 387/387/387
f 385/385/385 387/387/387 388/388/388
f 389/389/389 385/385/385 388/388/388
f 388/388/388 390/390/390 389/389/389
f 389/389/389 390/390/390 391/391/391
f 391/391/391 392/392/392 389/389/389
f 393/393/393 394/394/394 395/395/395
f 395/395/395 396/396/396 393/393/393
f 396/396/396 397/397/397 393/393/393
f 397/397/397 398/398/398 393/393/393
f 398/398/398 399/399/399 393/393/393
f 400/400/400 401/401/401 399/399/399
f 400/400/400 399/399/399 402/402/402
f 403/403/403 404/404/404 405/405/405
f 403/403/403 405/405/405 406/406/406
f 407/407/407 408/408/408 409/409/409
f 410/410/410 409/409/409 408/408/408
f 411/411/411 412/412/412 413/413/413
f 411/411/411 413/413/413 414/414/414
f 415/415/415 416/416/416 417/417/417
f 415/415/415 417/417/417 418/418/418
f 419/419/419 420/420/420 421/421/421
f 419/419/419 421/421/421 422/422/422
f 423/423/423 424/424/424 425/425/425
f 423/423/423 425/425/425 426/426/426
f 427/427/427 428/428/428 429/429/429
f 427/427/427 429/429/429 430/430/430
f 431/431/431 432/432/432 433/433/433
f 431/431/431 433/433/433 434/434/434
f 435/435/435 436/436/436 437/437/437
f 435/435/435 437/437/437 438/438/438
f 439/439/439 440/440/440 441/441/441
f 439/439/439 441/441/441 442/442/442
f 443/443/443 444/444/444 445/445/445
f 443/443/443 445/445/445 446/446/446
f 447/447/447 448/448/448 449/449/449
f 447/447/447 449/449/449 450/450/450
f 451/451/451 452/452/452 453/453/453
f 451/451/451 453/453/453 454/454/454
f 455/455/455 456/456/456 457/457/457
f 455/455/455 457/457/457 458/458/458
f 459/459/459 460/460/460 461/461/461
f 459/459/459 461/461/461 462/462/462
f 463/463/463 464/464/464 465/465/465
f 463/463/463 465/465/465 466/466/466
f 467/467/467 468/468/468 469/469/469
f 467/467/467 469/469/469 470/470/470
f 471/471/471 472/472/472 473/473/473
f 471/471/471 473/473/473 474/474/474
f 475/475/475 476/476/476 477/477/477
f 475/475/475 477/477/477 478/478/478
f 479/479/479 480/480/480 481/481/481
f 479/479/479 481/481/481 482/482/482
f 483/483/483 484/484/484 485/485/485
f 483/483/483 485/485/485 486/486/486
f 487/487/487 488/488/488 489/489/489
f 487/487/487 489/489/489 490/490/490
f 491/491/491 492/492/492 493/493/493
f 491/491/491 493/493/493 494/494/494
f 495/495/495 496/496/496 497/497/497
f 495/495/495 497/497/497 498/498/498
f 499/499/499 500/500/500 501/501/501
f 501/501/501 502/502/502 499/499/499
f 503/503/503 504/504/504 505/505/505
f 503/503/503 505/505/505 506/506/506
f 507/507/507 508/508/508 509/509/509
f 507/507/507 509/509/509 510/510/510
f 511/511/511 512/512/512 513/513/513
f 511/511/511 513/513/513 514/514/514
f 515/515/515 516/516/516 517/517/517
f 515/515/515 517/517/517 518/518/518
f 519/519/519 520/520/520 521/521/521
f 519/519/519 521/521/521 522/522/522
f 523/523/523 524/524/524 525/525/525
f 523/523/523 525/525/525 526/526/526
f 527/527/527 528/528/528 529/529/529
f 527/527/527 529/529/529 530/530/530
f 531/531/531 532/532/532 533/533/533
f 531/531/531 533/533/533 534/534/534
f 535/535/535 536/536/536 537/537/537
f 535/535/535 537/537/537 538/538/538
f 538/538/538 537/537/537 539/539/539
f 538/538/538 539/539/539 540/540/540
f 541/541/541 542/542/542 543/543/543
f 541/541/541 543/543/543 544/544/544
f 545/545/545 546/546/546 547/547/547
f 545/545/545 547/547/547 548/548/548
f 549/549/549 550/550/550 551/551/551
f 552/552/552 551/551/551 550/550/550
f 553/553/553 552/552/552 550/550/550
f 550/550/550 554/554/554 553/553/553
f 555/555/555 556/556/556 557/557/557
f 557/557/557 558/558/558 555/555/555
f 558/558/558 559/559/559 555/555/555
f 558/558/558 560/560/560 559/559/559
f 561/561/561 562/562/562 563/563/563
f 561/561/561 563/563/563 564/564/564
f 565/565/565 566/566/566 567/567/567
f 565/565/565 567/567/567 568/568/568
f 569/569/569 570/570/570 571/571/571
f 569/569/569 571/571/571 572/572/572
f 573/573/573 574/574/574 575/575/575
f 573/573/573 575/575/575 576/576/576
f 577/577/577 578/578/578 579/579/579
f 577/577/577 579/579/579 580/580/580
f 581/581/581 582/582/582 583/583/583
f 581/581/581 583/583/583 584/584/584
f 585/585/585 586/586/586 587/587/587
f 585/585/585 587/587/587 588/588/588
f 589/589/589 590/590/590 591/591/591
f 589/589/589 591/591/591 592/592/592
f 593/593/593 594/594/594 595/595/595
f 593/593/593 595/595/595 596/596/596
f 597/597/597 598/598/598 599/599/599
f 597/597/597 599/599/599 600/600/600
f 601/601/601 602/602/602 603/603/603
f 603/603/603 604/604/604 601/601/601
f 605/605/605 604/604/604 603/603/603
f 603/603/603 606/606/606 605/605/605
f 607/607/607 608/608/608 609/609/609
f 607/607/607 609/609/609 610/610/610
f 611/611/611 612/612/612 613/613/613
f 613/613/613 614/614/614 611/611/611
f 615/615/615 614/614/614 613/613/613
f 613/613/613 616/616/616 615/615/615
f 617/617/617 618/618/618 619/619/619
f 617/617/617 619/619/619 620/620/620
f 621/621/621 622/622/622 623/623/623
f 621/621/621 623/623/623 624/624/624
f 625/625/625 626/626/626 627/627/627
f 625/625/625 627/627/627 628/628/628
f 629/629/629 630/630/630 631/631/631
f 629/629/629 631/631/631 632/632/632
f 633/633/633 634/634/634 635/635/635
f 633/633/633 635/635/635 636/636/636
f 637/637/637 638/638/638 639/639/639
f 637/637/637 639/639/639 640/640/640
f 641/641/641 642/642/642 643/643/643
f 641/641/641 643/643/643 644/644/644
f 645/645/645 646/646/646 647/647/647
f 645/645/645 647/647/647 648/648/648
f 649/649/649 650/650/650 651/651/651
f 649/649/649 651/651/651 652/652/652
f 653/653/653 654/654/654 655/655/655
f 653/653/653 655/655/655 656/656/656
f 657/657/657 658/658/658 659/659/659
f 657/657/657 659/659/659 660/660/660
f 661/661/661 662/662/662 663/663/663
f 661/661/661 663/663/663 664/664/664
f 665/665/665 666/666/666 667/667/667
f 665/665/665 667/667/667 668/668/668
f 669/669/669 670/670/670 671/671/671
f 669/669/669 671/671/671 672/672/672
f 673/673/673 674/674/674 675/675/675
f 673/673/673 675/675/675 676/676/676
f 677/677/677 678/678/678 679/679/679
f 677/677/677 679/679/679 680/680/680
f 681/681/681 682/682/682 683/683/683
f 681/681/681 683/683/683 684/684/684
f 685/685/685 686/686/686 687/687/687
f 685/685/685 687/687/687 688/688/688
f 689/689/689 690/690/690 691/691/691
f 689/689/689 691/691/691 692/692/692
f 693/693/693 689/689/689 692/692/692
f 692/692/692 694/694/694 693/693/693
f 693/693/693 694/694/694 695/695/695
f 695/695/695 696/696/696 693/693/693
f 697/697/697 698/698/698 699/699/699
f 697/697/697 699/699/699 700/700/700
f 701/701/701 702/702/702 703/703/703
f 701/701/701 703/703/703 704/704/704
f 705/705/705 706/706/706 707/707/707
f 707/707/707 708/708/708 705/705/705
f 708/708/708 709/709/709 705/705/705
f 708/708/708 710/710/710 709/709/709
f 710/710/710 711/711/711 709/709/709
f 712/712/712 711/711/711 710/710/710
f 710/710/710 713/713/713 712/712/712
f 711/711/711 714/714/714 709/709/709
f 715/715/715 709/709/709 714/714/714
f 714/714/714 716/716/716 715/715/715
f 717/717/717 718/718/718 719/719/719
f 717/717/717 719/719/719 720/720/720
f 721/721/721 722/722/722 723/723/723
f 721/721/721 723/723/723 724/724/724
f 725/725/725 726/726/726 727/727/727
f 727/727/727 728/728/728 725/725/725
f 725/725/725 728/728/728 729/729/729
f 729/729/729 730/730/730 725/725/725
f 729/729/729 731/731/731 730/730/730
f 731/731/731 732/732/732 730/730/730
f 733/733/733 734/734/734 735/735/735
f 735/735/735 736/736/736 733/733/733
f 735/735/735 737/737/737 736/736/736
f 735/735/735 738/738/738 737/737/737
f 735/735/735 739/739/739 738/738/738
f 740/740/740 741/741/741 739/739/739
f 740/740/740 739/739/739 742/742/742
f 743/743/743 744/744/744 745/745/745
f 743/743/743 745/745/745 746/746/746
f 747/747/747 748/748/748 749/749/749
f 747/747/747 750/750/750 748/748/748
f 751/751/751 752/752/752 753/753/753
f 751/751/751 753/753/753 754/754/754
f 755/755/755 756/756/756 757/757/757
f 755/755/755 757/757/757 758/758/758
f 759/759/759 760/760/760 761/761/761
f 759/759/759 761/761/761 762/762/762
f 763/763/763 764/764/764 765/765/765
f 763/763/763 765/765/765 766/766/766
f 767/767/767 768/768/768 769/769/769
f 767/767/767 769/769/769 770/770/770
f 771/771/771 772/772/772 773/773/773
f 771/771/771 773/773/773 774/774/774
f 775/775/775 776/776/776 777/777/777
f 775/775/775 777/777/777 778/778/778
f 779/779/779 780/780/780 781/781/781
f 779/779/779 781/781/781 782/782/782
f 783/783/783 784/784/784 785/785/785
f 783/783/783 785/785/785 786/786/786
f 787/787/787 788/788/788 789/789/789
f 787/787/787 789/789/789 790/790/790
f 791/791/791 792/792/792 793/793/793
f 791/791/791 793/793/793 794/794/794
f 795/795/795 796/796/796 797/797/797
f 795/795/795 797/797/797 798/798/798
f 799/799/799 800/800/800 801/801/801
f 799/799/799 801/801/801 802/802/802
f 803/803/803 804/804/804 805/805/805
f 803/803/803 805/805/805 806/806/806
f 807/807/807 808/808/808 809/809/809
f 807/807/807 809/809/809 810/810/810
f 811/811/811 812/812/812 813/813/813
f 811/811/811 813/813/813 814/814/814
