# volcanoknightcape_backpack (gear rip -> Godot: Z negated + winding reversed)
v -0.000000 0.001852 -0.001880
v -0.000000 0.002549 0.009024
v -0.001843 0.002458 0.007595
v -0.002790 0.001852 -0.001880
v -0.003686 0.002494 0.008161
v -0.001843 0.002959 0.007563
v -0.001843 0.002458 0.007595
v -0.000000 0.002549 0.009024
v -0.000000 0.003051 0.008992
v -0.000000 0.002353 -0.001912
v -0.000000 0.001852 -0.001880
v -0.002790 0.001852 -0.001880
v -0.002790 0.002353 -0.001912
v -0.002131 0.002389 -0.001353
v -0.000000 0.002388 -0.001353
v -0.000000 0.002353 -0.001912
v -0.002790 0.002353 -0.001912
v -0.002664 0.002908 0.006765
v -0.003686 0.002996 0.008129
v -0.001843 0.002959 0.007563
v -0.001776 0.002893 0.006524
v -0.000000 0.002971 0.007740
v -0.000000 0.003051 0.008992
v -0.003686 0.002494 0.008161
v -0.003686 0.002996 0.008129
v -0.002790 0.002353 -0.001912
v -0.002790 0.001852 -0.001880
v -0.002131 0.002389 -0.001353
v -0.002664 0.002908 0.006765
v -0.001776 0.002893 0.006524
v -0.000000 0.002388 -0.001353
v -0.000000 0.002971 0.007740
v -0.000000 0.002016 -0.001655
v -0.002195 0.002016 -0.001655
v -0.002195 -0.001755 -0.001655
v -0.000000 -0.001755 -0.001655
v -0.000000 0.002016 -0.002023
v -0.000000 -0.001755 -0.002023
v -0.002195 -0.001755 -0.002023
v -0.002195 0.002016 -0.002023
v -0.002195 -0.001755 -0.001655
v -0.002195 -0.001755 -0.002023
v -0.000000 -0.001755 -0.002023
v -0.000000 -0.001755 -0.001655
v 0.002195 -0.001755 -0.001655
v 0.002195 -0.001755 -0.002023
v -0.000000 0.002016 -0.001655
v -0.002195 0.002016 -0.002023
v -0.002195 0.002016 -0.001655
v -0.000000 0.002016 -0.002023
v 0.002195 0.002016 -0.002023
v 0.002195 0.002016 -0.001655
v -0.002195 0.002016 -0.001655
v -0.002195 0.002016 -0.002023
v -0.002195 -0.001755 -0.002023
v -0.002195 -0.001755 -0.001655
v -0.003686 0.002996 0.008129
v -0.003686 0.002494 0.008161
v -0.001843 0.002458 0.007595
v -0.001843 0.002959 0.007563
v -0.001776 0.002685 0.001337
v -0.000000 0.002763 0.002552
v -0.000000 0.002721 0.001938
v -0.001259 0.002671 0.001164
v -0.001131 0.002481 -0.001540
v -0.000810 0.002510 -0.001135
v -0.000000 0.002516 -0.001135
v -0.000000 0.002480 -0.001540
v -0.001776 0.002834 0.003857
v -0.000000 0.002911 0.005072
v -0.000000 0.002869 0.004458
v -0.001259 0.002820 0.003684
v -0.001131 0.002630 0.000980
v -0.000810 0.002658 0.001385
v -0.000000 0.002665 0.001385
v -0.000000 0.002629 0.000980
v -0.000000 0.002911 0.005072
v -0.001776 0.002834 0.003857
v -0.001776 0.002705 0.003866
v -0.000000 0.002782 0.005081
v -0.000000 0.003049 0.007552
v -0.001776 0.002971 0.006337
v -0.001776 0.002842 0.006346
v -0.000000 0.002920 0.007562
v -0.000000 0.002721 0.001938
v -0.000000 0.002516 -0.001135
v -0.000810 0.002510 -0.001135
v -0.001259 0.002671 0.001164
v -0.000000 0.002869 0.004458
v -0.000000 0.002665 0.001385
v -0.000810 0.002658 0.001385
v -0.001259 0.002820 0.003684
v -0.001776 0.002705 0.003866
v -0.001776 0.002834 0.003857
v -0.001131 0.002630 0.000980
v -0.001131 0.002501 0.000989
v -0.000000 0.002500 0.000989
v -0.001131 0.002501 0.000989
v -0.001131 0.002630 0.000980
v -0.000000 0.002629 0.000980
v 0.001131 0.002630 0.000980
v 0.001131 0.002501 0.000989
v -0.000000 0.003006 0.006938
v -0.000000 0.002802 0.003865
v -0.000810 0.002795 0.003865
v -0.001259 0.002957 0.006164
v -0.000000 0.002352 -0.001531
v -0.001131 0.002353 -0.001531
v -0.001131 0.002481 -0.001540
v -0.000000 0.002480 -0.001540
v 0.001131 0.002481 -0.001540
v 0.001131 0.002353 -0.001531
v -0.001776 0.002556 0.001346
v -0.001776 0.002685 0.001337
v -0.001131 0.002481 -0.001540
v -0.001131 0.002353 -0.001531
v -0.001776 0.002971 0.006337
v -0.000000 0.003049 0.007552
v -0.000000 0.003006 0.006938
v -0.001259 0.002957 0.006164
v -0.001131 0.002767 0.003460
v -0.000810 0.002795 0.003865
v -0.000000 0.002802 0.003865
v -0.000000 0.002766 0.003460
v -0.001776 0.002842 0.006346
v -0.001776 0.002971 0.006337
v -0.001131 0.002767 0.003460
v -0.001131 0.002638 0.003469
v -0.000000 0.002763 0.002552
v -0.001776 0.002685 0.001337
v -0.001776 0.002556 0.001346
v -0.000000 0.002634 0.002562
v -0.000000 0.002637 0.003469
v -0.001131 0.002638 0.003469
v -0.001131 0.002767 0.003460
v -0.000000 0.002766 0.003460
v 0.001131 0.002767 0.003460
v 0.001131 0.002638 0.003469
v 0.002790 0.001852 -0.001880
v 0.003686 0.002494 0.008161
v 0.001843 0.002458 0.007595
v -0.000000 0.001852 -0.001880
v -0.000000 0.002549 0.009024
v 0.001843 0.002959 0.007563
v -0.000000 0.003051 0.008992
v -0.000000 0.002549 0.009024
v 0.001843 0.002458 0.007595
v -0.000000 0.002353 -0.001912
v 0.002790 0.002353 -0.001912
v 0.002790 0.001852 -0.001880
v -0.000000 0.001852 -0.001880
v -0.000000 0.002971 0.007740
v -0.000000 0.003051 0.008992
v 0.001843 0.002959 0.007563
v 0.001776 0.002893 0.006524
v 0.002664 0.002908 0.006765
v 0.003686 0.002996 0.008129
v 0.002790 0.002353 -0.001912
v 0.002131 0.002389 -0.001353
v -0.000000 0.002353 -0.001912
v -0.000000 0.002388 -0.001353
v 0.003686 0.002494 0.008161
v 0.002790 0.001852 -0.001880
v 0.002790 0.002353 -0.001912
v 0.003686 0.002996 0.008129
v -0.000000 0.002388 -0.001353
v -0.000000 0.002971 0.007740
v 0.001776 0.002893 0.006524
v 0.002131 0.002389 -0.001353
v 0.002664 0.002908 0.006765
v -0.000000 0.002016 -0.001655
v -0.000000 -0.001755 -0.001655
v 0.002195 -0.001755 -0.001655
v 0.002195 0.002016 -0.001655
v -0.000000 0.002016 -0.002023
v 0.002195 0.002016 -0.002023
v 0.002195 -0.001755 -0.002023
v -0.000000 -0.001755 -0.002023
v 0.002195 0.002016 -0.001655
v 0.002195 -0.001755 -0.001655
v 0.002195 -0.001755 -0.002023
v 0.002195 0.002016 -0.002023
v 0.003686 0.002996 0.008129
v 0.001843 0.002959 0.007563
v 0.001843 0.002458 0.007595
v 0.003686 0.002494 0.008161
v -0.000000 0.002721 0.001938
v -0.000000 0.002763 0.002552
v 0.001776 0.002685 0.001337
v 0.001259 0.002671 0.001164
v 0.001131 0.002481 -0.001540
v 0.000810 0.002510 -0.001135
v -0.000000 0.002516 -0.001135
v -0.000000 0.002480 -0.001540
v -0.000000 0.002869 0.004458
v -0.000000 0.002911 0.005072
v 0.001776 0.002834 0.003857
v 0.001259 0.002820 0.003684
v 0.001131 0.002630 0.000980
v 0.000810 0.002658 0.001385
v -0.000000 0.002665 0.001385
v -0.000000 0.002629 0.000980
v -0.000000 0.002911 0.005072
v -0.000000 0.002782 0.005081
v 0.001776 0.002705 0.003866
v 0.001776 0.002834 0.003857
v -0.000000 0.003049 0.007552
v -0.000000 0.002920 0.007562
v 0.001776 0.002842 0.006346
v 0.001776 0.002971 0.006337
v -0.000000 0.002721 0.001938
v 0.001259 0.002671 0.001164
v 0.000810 0.002510 -0.001135
v -0.000000 0.002516 -0.001135
v -0.000000 0.002869 0.004458
v 0.001259 0.002820 0.003684
v 0.000810 0.002658 0.001385
v -0.000000 0.002665 0.001385
v 0.001776 0.002705 0.003866
v 0.001131 0.002501 0.000989
v 0.001131 0.002630 0.000980
v 0.001776 0.002834 0.003857
v -0.000000 0.003006 0.006938
v 0.001259 0.002957 0.006164
v 0.000810 0.002795 0.003865
v -0.000000 0.002802 0.003865
v 0.001776 0.002556 0.001346
v 0.001131 0.002353 -0.001531
v 0.001131 0.002481 -0.001540
v 0.001776 0.002685 0.001337
v -0.000000 0.003006 0.006938
v -0.000000 0.003049 0.007552
v 0.001776 0.002971 0.006337
v 0.001259 0.002957 0.006164
v 0.001131 0.002767 0.003460
v 0.000810 0.002795 0.003865
v -0.000000 0.002802 0.003865
v -0.000000 0.002766 0.003460
v 0.001776 0.002842 0.006346
v 0.001131 0.002638 0.003469
v 0.001131 0.002767 0.003460
v 0.001776 0.002971 0.006337
v -0.000000 0.002763 0.002552
v -0.000000 0.002634 0.002562
v 0.001776 0.002556 0.001346
v 0.001776 0.002685 0.001337
vt 0.223466948 0.690108657
vt 0.223466948 0.490108699
vt 0.185682699 0.516093433
vt 0.166263834 0.690108657
vt 0.147898436 0.505801201
vt 0.239976987 0.525084317
vt 0.231721997 0.525084376
vt 0.231721997 0.549384773
vt 0.239976928 0.549384773
vt 0.239976987 0.549384773
vt 0.231721997 0.549384773
vt 0.231721997 0.599991262
vt 0.239976987 0.599991262
vt 0.103044771 0.515489876
vt 0.173075825 0.585189223
vt 0.173075825 0.556855857
vt 0.0906953216 0.490108699
vt 0.0932881534 0.642395854
vt 0.0723299012 0.674416184
vt 0.110114157 0.664123893
vt 0.111491553 0.638021648
vt 0.147898436 0.660108685
vt 0.147898436 0.690108716
vt 0.223467007 0.675130904
vt 0.231721997 0.675130904
vt 0.231721938 0.490108699
vt 0.223466948 0.490108699
vt 0.463921249 0.535514057
vt 0.454164594 0.662420034
vt 0.472368032 0.658045828
vt 0.508774877 0.538466215
vt 0.508774877 0.680132866
vt 0.239976987 0.549384773
vt 0.239976987 0.574688017
vt 0.231721997 0.574688017
vt 0.231721997 0.549384773
vt 0.239976987 0.549384773
vt 0.231721997 0.549384773
vt 0.231721997 0.574688017
vt 0.239976987 0.574688017
vt 0.231721997 0.574688017
vt 0.231721997 0.574688017
vt 0.231721997 0.549384773
vt 0.231721997 0.549384773
vt 0.231721997 0.574688017
vt 0.231721997 0.574688017
vt 0.239976987 0.549384773
vt 0.239976987 0.574688017
vt 0.239976987 0.574688017
vt 0.239976987 0.549384773
vt 0.239976987 0.574688017
vt 0.239976987 0.574688017
vt 0.239976987 0.574688017
vt 0.239976987 0.574688017
vt 0.231721997 0.574688017
vt 0.231721997 0.574688017
vt 0.239976987 0.490108699
vt 0.231721997 0.490108699
vt 0.231721997 0.525084376
vt 0.239976987 0.525084317
vt 0.150656462 0.681407332
vt 0.187063292 0.70349437
vt 0.187063292 0.632661045
vt 0.166748196 0.626401246
vt 0.142209709 0.558875561
vt 0.165692389 0.593376458
vt 0.187063292 0.597244382
vt 0.187063292 0.561827719
vt 0.150656462 0.681407332
vt 0.187063292 0.70349437
vt 0.187063292 0.632661045
vt 0.166748196 0.626401246
vt 0.142209709 0.558875561
vt 0.165692389 0.593376458
vt 0.187063292 0.597244382
vt 0.187063292 0.561827719
vt 0.187063292 0.70349437
vt 0.150656462 0.681407332
vt 0.150656462 0.681407332
vt 0.187063292 0.70349437
vt 0.187063292 0.70349437
vt 0.150656462 0.681407332
vt 0.150656462 0.681407332
vt 0.187063292 0.70349437
vt 0.841676354 0.649347842
vt 0.841676354 0.613931179
vt 0.820305526 0.610063255
vt 0.821361303 0.643088043
vt 0.841676354 0.649347842
vt 0.841676354 0.613931179
vt 0.820305526 0.610063255
vt 0.821361303 0.643088043
vt 0.150656462 0.681407332
vt 0.150656462 0.681407332
vt 0.142209709 0.558875561
vt 0.142209709 0.558875561
vt 0.187063292 0.561827719
vt 0.142209709 0.558875561
vt 0.142209709 0.558875561
vt 0.187063292 0.561827719
vt 0.142209709 0.558875561
vt 0.142209709 0.558875561
vt 0.841676354 0.649347842
vt 0.841676354 0.613931179
vt 0.820305526 0.610063255
vt 0.821361303 0.643088043
vt 0.187063292 0.561827719
vt 0.142209709 0.558875561
vt 0.142209709 0.558875561
vt 0.187063292 0.561827719
vt 0.142209709 0.558875561
vt 0.142209709 0.558875561
vt 0.150656462 0.681407332
vt 0.150656462 0.681407332
vt 0.142209709 0.558875561
vt 0.142209709 0.558875561
vt 0.150656462 0.681407332
vt 0.187063292 0.70349437
vt 0.187063292 0.632661045
vt 0.166748196 0.626401246
vt 0.142209709 0.558875561
vt 0.165692389 0.593376458
vt 0.187063292 0.597244382
vt 0.187063292 0.561827719
vt 0.150656462 0.681407332
vt 0.150656462 0.681407332
vt 0.142209709 0.558875561
vt 0.142209709 0.558875561
vt 0.187063292 0.70349437
vt 0.150656462 0.681407332
vt 0.150656462 0.681407332
vt 0.187063292 0.70349437
vt 0.187063292 0.561827719
vt 0.142209709 0.558875561
vt 0.142209709 0.558875561
vt 0.187063292 0.561827719
vt 0.142209709 0.558875561
vt 0.142209709 0.558875561
vt 0.166263834 0.690108657
vt 0.147898436 0.505801201
vt 0.185682699 0.516093433
vt 0.223466948 0.690108657
vt 0.223466948 0.490108699
vt 0.239976987 0.525084317
vt 0.239976928 0.549384773
vt 0.231721997 0.549384773
vt 0.231721997 0.525084376
vt 0.239976987 0.549384773
vt 0.239976987 0.599991262
vt 0.231721997 0.599991262
vt 0.231721997 0.549384773
vt 0.147898436 0.660108685
vt 0.147898436 0.690108716
vt 0.110114157 0.664123893
vt 0.111491553 0.638021648
vt 0.0932881534 0.642395854
vt 0.0723299012 0.674416184
vt 0.0906953216 0.490108699
vt 0.103044771 0.515489876
vt 0.173075825 0.556855857
vt 0.173075825 0.585189223
vt 0.223467007 0.675130904
vt 0.223466948 0.490108699
vt 0.231721938 0.490108699
vt 0.231721997 0.675130904
vt 0.508774877 0.538466215
vt 0.508774877 0.680132866
vt 0.472368032 0.658045828
vt 0.463921249 0.535514057
vt 0.454164594 0.662420034
vt 0.239976987 0.549384773
vt 0.231721997 0.549384773
vt 0.231721997 0.574688017
vt 0.239976987 0.574688017
vt 0.239976987 0.549384773
vt 0.239976987 0.574688017
vt 0.231721997 0.574688017
vt 0.231721997 0.549384773
vt 0.239976987 0.574688017
vt 0.231721997 0.574688017
vt 0.231721997 0.574688017
vt 0.239976987 0.574688017
vt 0.239976987 0.490108699
vt 0.239976987 0.525084317
vt 0.231721997 0.525084376
vt 0.231721997 0.490108699
vt 0.187063292 0.632661045
vt 0.187063292 0.70349437
vt 0.150656462 0.681407332
vt 0.166748196 0.626401246
vt 0.142209709 0.558875561
vt 0.165692389 0.593376458
vt 0.187063292 0.597244382
vt 0.187063292 0.561827719
vt 0.187063292 0.632661045
vt 0.187063292 0.70349437
vt 0.150656462 0.681407332
vt 0.166748196 0.626401246
vt 0.142209709 0.558875561
vt 0.165692389 0.593376458
vt 0.187063292 0.597244382
vt 0.187063292 0.561827719
vt 0.187063292 0.70349437
vt 0.187063292 0.70349437
vt 0.150656462 0.681407332
vt 0.150656462 0.681407332
vt 0.187063292 0.70349437
vt 0.187063292 0.70349437
vt 0.150656462 0.681407332
vt 0.150656462 0.681407332
vt 0.841676354 0.649347842
vt 0.821361303 0.643088043
vt 0.820305526 0.610063255
vt 0.841676354 0.613931179
vt 0.841676354 0.649347842
vt 0.821361303 0.643088043
vt 0.820305526 0.610063255
vt 0.841676354 0.613931179
vt 0.150656462 0.681407332
vt 0.142209709 0.558875561
vt 0.142209709 0.558875561
vt 0.150656462 0.681407332
vt 0.841676354 0.649347842
vt 0.821361303 0.643088043
vt 0.820305526 0.610063255
vt 0.841676354 0.613931179
vt 0.150656462 0.681407332
vt 0.142209709 0.558875561
vt 0.142209709 0.558875561
vt 0.150656462 0.681407332
vt 0.187063292 0.632661045
vt 0.187063292 0.70349437
vt 0.150656462 0.681407332
vt 0.166748196 0.626401246
vt 0.142209709 0.558875561
vt 0.165692389 0.593376458
vt 0.187063292 0.597244382
vt 0.187063292 0.561827719
vt 0.150656462 0.681407332
vt 0.142209709 0.558875561
vt 0.142209709 0.558875561
vt 0.150656462 0.681407332
vt 0.187063292 0.70349437
vt 0.187063292 0.70349437
vt 0.150656462 0.681407332
vt 0.150656462 0.681407332
vn -0.000000 -0.997961 0.063825
vn -0.000000 -0.997961 0.063825
vn -0.000000 -0.997961 0.063825
vn -0.000000 -0.997961 0.063825
vn -0.000000 -0.997961 0.063825
vn -0.613734 0.050391 0.787903
vn -0.613734 0.050391 0.787903
vn -0.613734 0.050391 0.787903
vn -0.613734 0.050391 0.787903
vn -0.000000 -0.063826 -0.997961
vn -0.000000 -0.063826 -0.997961
vn -0.000000 -0.063826 -0.997961
vn -0.000000 -0.063826 -0.997961
vn 0.000023 0.997967 -0.063736
vn 0.000023 0.997967 -0.063736
vn 0.000023 0.997967 -0.063736
vn 0.000023 0.997967 -0.063736
vn 0.000023 0.997967 -0.063736
vn 0.000023 0.997967 -0.063736
vn 0.000023 0.997967 -0.063736
vn 0.000023 0.997967 -0.063736
vn 0.000023 0.997967 -0.063736
vn 0.000023 0.997967 -0.063736
vn -0.996060 -0.005660 -0.088499
vn -0.996060 -0.005660 -0.088499
vn -0.996060 -0.005660 -0.088499
vn -0.996060 -0.005660 -0.088499
vn 0.000233 0.997958 -0.063879
vn 0.000233 0.997958 -0.063879
vn 0.000233 0.997958 -0.063879
vn 0.000233 0.997958 -0.063879
vn 0.000233 0.997958 -0.063879
vn -0.000000 0.000000 1.000000
vn -0.000000 0.000000 1.000000
vn -0.000000 0.000000 1.000000
vn -0.000000 0.000000 1.000000
vn -0.000000 0.000000 -1.000000
vn -0.000000 0.000000 -1.000000
vn -0.000000 0.000000 -1.000000
vn -0.000000 0.000000 -1.000000
vn -0.000000 -1.000000 -0.000000
vn -0.000000 -1.000000 -0.000000
vn -0.000000 -1.000000 -0.000000
vn -0.000000 -1.000000 -0.000000
vn -0.000000 -1.000000 -0.000000
vn -0.000000 -1.000000 -0.000000
vn -0.000000 1.000000 -0.000000
vn -0.000000 1.000000 -0.000000
vn -0.000000 1.000000 -0.000000
vn -0.000000 1.000000 -0.000000
vn -0.000000 1.000000 -0.000000
vn -0.000000 1.000000 -0.000000
vn -1.000000 0.000000 -0.000000
vn -1.000000 0.000000 -0.000000
vn -1.000000 0.000000 -0.000000
vn -1.000000 0.000000 -0.000000
vn 0.294270 0.061000 0.953774
vn 0.294270 0.061000 0.953774
vn 0.294270 0.061000 0.953774
vn 0.294270 0.061000 0.953774
vn 0.002004 0.997479 -0.070939
vn 0.002004 0.997479 -0.070939
vn 0.002004 0.997479 -0.070939
vn 0.002004 0.997479 -0.070939
vn 0.002004 0.997479 -0.070939
vn 0.002004 0.997479 -0.070939
vn 0.002004 0.997479 -0.070939
vn 0.002004 0.997479 -0.070939
vn 0.002004 0.997479 -0.070939
vn 0.002004 0.997479 -0.070939
vn 0.002004 0.997479 -0.070939
vn 0.002004 0.997479 -0.070939
vn 0.002004 0.997479 -0.070939
vn 0.002004 0.997479 -0.070939
vn 0.002004 0.997479 -0.070939
vn 0.002004 0.997479 -0.070939
vn -0.565524 0.058905 0.822626
vn -0.565524 0.058905 0.822626
vn -0.565524 0.058905 0.822626
vn -0.565524 0.058905 0.822626
vn -0.565524 0.058905 0.822625
vn -0.565524 0.058905 0.822625
vn -0.565524 0.058905 0.822625
vn -0.565524 0.058905 0.822625
vn -0.001619 0.997681 -0.068042
vn -0.001619 0.997681 -0.068042
vn -0.001619 0.997681 -0.068042
vn -0.001619 0.997681 -0.068042
vn -0.001619 0.997681 -0.068042
vn -0.001619 0.997681 -0.068042
vn -0.001619 0.997681 -0.068042
vn -0.001619 0.997681 -0.068042
vn -0.975893 -0.014452 -0.217769
vn -0.975893 -0.014452 -0.217769
vn -0.975893 -0.014452 -0.217769
vn -0.975893 -0.014452 -0.217769
vn -0.000061 -0.071053 -0.997472
vn -0.000061 -0.071053 -0.997472
vn -0.000061 -0.071053 -0.997472
vn -0.000061 -0.071053 -0.997472
vn 0.000061 -0.071053 -0.997472
vn 0.000061 -0.071053 -0.997472
vn -0.001619 0.997681 -0.068042
vn -0.001619 0.997681 -0.068042
vn -0.001619 0.997681 -0.068042
vn -0.001619 0.997681 -0.068042
vn -0.000061 -0.071053 -0.997472
vn -0.000061 -0.071053 -0.997472
vn -0.000061 -0.071053 -0.997472
vn -0.000061 -0.071053 -0.997472
vn 0.000061 -0.071053 -0.997472
vn 0.000061 -0.071053 -0.997472
vn -0.975893 -0.014452 -0.217769
vn -0.975893 -0.014452 -0.217769
vn -0.975893 -0.014452 -0.217769
vn -0.975893 -0.014452 -0.217769
vn 0.002004 0.997479 -0.070940
vn 0.002004 0.997479 -0.070940
vn 0.002004 0.997479 -0.070940
vn 0.002004 0.997479 -0.070940
vn 0.002004 0.997479 -0.070940
vn 0.002004 0.997479 -0.070940
vn 0.002004 0.997479 -0.070940
vn 0.002004 0.997479 -0.070940
vn -0.975893 -0.014452 -0.217769
vn -0.975893 -0.014452 -0.217769
vn -0.975893 -0.014452 -0.217769
vn -0.975893 -0.014452 -0.217769
vn -0.565524 0.058905 0.822626
vn -0.565524 0.058905 0.822626
vn -0.565524 0.058905 0.822626
vn -0.565524 0.058905 0.822626
vn -0.000061 -0.071053 -0.997472
vn -0.000061 -0.071053 -0.997472
vn -0.000061 -0.071053 -0.997472
vn -0.000061 -0.071053 -0.997472
vn 0.000061 -0.071053 -0.997472
vn 0.000061 -0.071053 -0.997472
vn -0.000000 -0.997961 0.063825
vn -0.000000 -0.997961 0.063825
vn -0.000000 -0.997961 0.063825
vn -0.000000 -0.997961 0.063825
vn -0.000000 -0.997961 0.063825
vn 0.613734 0.050391 0.787903
vn 0.613734 0.050391 0.787903
vn 0.613734 0.050391 0.787903
vn 0.613734 0.050391 0.787903
vn -0.000000 -0.063826 -0.997961
vn -0.000000 -0.063826 -0.997961
vn -0.000000 -0.063826 -0.997961
vn -0.000000 -0.063826 -0.997961
vn -0.000023 0.997967 -0.063736
vn -0.000023 0.997967 -0.063736
vn -0.000023 0.997967 -0.063736
vn -0.000023 0.997967 -0.063736
vn -0.000023 0.997967 -0.063736
vn -0.000023 0.997967 -0.063736
vn -0.000023 0.997967 -0.063736
vn -0.000023 0.997967 -0.063736
vn -0.000023 0.997967 -0.063736
vn -0.000023 0.997967 -0.063736
vn 0.996060 -0.005660 -0.088499
vn 0.996060 -0.005660 -0.088499
vn 0.996060 -0.005660 -0.088499
vn 0.996060 -0.005660 -0.088499
vn -0.000233 0.997958 -0.063879
vn -0.000233 0.997958 -0.063879
vn -0.000233 0.997958 -0.063879
vn -0.000233 0.997958 -0.063879
vn -0.000233 0.997958 -0.063879
vn -0.000000 0.000000 1.000000
vn -0.000000 0.000000 1.000000
vn -0.000000 0.000000 1.000000
vn -0.000000 0.000000 1.000000
vn -0.000000 0.000000 -1.000000
vn -0.000000 0.000000 -1.000000
vn -0.000000 0.000000 -1.000000
vn -0.000000 0.000000 -1.000000
vn 1.000000 0.000000 -0.000000
vn 1.000000 0.000000 -0.000000
vn 1.000000 0.000000 -0.000000
vn 1.000000 0.000000 -0.000000
vn -0.294269 0.061000 0.953774
vn -0.294269 0.061000 0.953774
vn -0.294269 0.061000 0.953774
vn -0.294269 0.061000 0.953774
vn -0.002004 0.997479 -0.070939
vn -0.002004 0.997479 -0.070939
vn -0.002004 0.997479 -0.070939
vn -0.002004 0.997479 -0.070939
vn -0.002004 0.997479 -0.070939
vn -0.002004 0.997479 -0.070939
vn -0.002004 0.997479 -0.070939
vn -0.002004 0.997479 -0.070939
vn -0.002004 0.997479 -0.070939
vn -0.002004 0.997479 -0.070939
vn -0.002004 0.997479 -0.070939
vn -0.002004 0.997479 -0.070939
vn -0.002004 0.997479 -0.070939
vn -0.002004 0.997479 -0.070939
vn -0.002004 0.997479 -0.070939
vn -0.002004 0.997479 -0.070939
vn 0.565524 0.058906 0.822625
vn 0.565524 0.058906 0.822625
vn 0.565524 0.058906 0.822625
vn 0.565524 0.058906 0.822625
vn 0.565524 0.058906 0.822625
vn 0.565524 0.058906 0.822625
vn 0.565524 0.058906 0.822625
vn 0.565524 0.058906 0.822625
vn 0.001619 0.997681 -0.068042
vn 0.001619 0.997681 -0.068042
vn 0.001619 0.997681 -0.068042
vn 0.001619 0.997681 -0.068042
vn 0.001619 0.997681 -0.068042
vn 0.001619 0.997681 -0.068042
vn 0.001619 0.997681 -0.068042
vn 0.001619 0.997681 -0.068042
vn 0.975893 -0.014452 -0.217769
vn 0.975893 -0.014452 -0.217769
vn 0.975893 -0.014452 -0.217769
vn 0.975893 -0.014452 -0.217769
vn 0.001619 0.997681 -0.068042
vn 0.001619 0.997681 -0.068042
vn 0.001619 0.997681 -0.068042
vn 0.001619 0.997681 -0.068042
vn 0.975893 -0.014452 -0.217769
vn 0.975893 -0.014452 -0.217769
vn 0.975893 -0.014452 -0.217769
vn 0.975893 -0.014452 -0.217769
vn -0.002004 0.997479 -0.070940
vn -0.002004 0.997479 -0.070940
vn -0.002004 0.997479 -0.070940
vn -0.002004 0.997479 -0.070940
vn -0.002004 0.997479 -0.070940
vn -0.002004 0.997479 -0.070940
vn -0.002004 0.997479 -0.070940
vn -0.002004 0.997479 -0.070940
vn 0.975893 -0.014452 -0.217768
vn 0.975893 -0.014452 -0.217768
vn 0.975893 -0.014452 -0.217768
vn 0.975893 -0.014452 -0.217768
vn 0.565524 0.058905 0.822625
vn 0.565524 0.058905 0.822625
vn 0.565524 0.058905 0.822625
vn 0.565524 0.058905 0.822625
f 1/1/1 2/2/2 3/3/3
f 4/4/4 1/1/1 3/3/3
f 3/3/3 5/5/5 4/4/4
f 6/6/6 7/7/7 8/8/8
f 6/6/6 8/8/8 9/9/9
f 10/10/10 11/11/11 12/12/12
f 10/10/10 12/12/12 13/13/13
f 14/14/14 15/15/15 16/16/16
f 16/16/16 17/17/17 14/14/14
f 18/18/18 14/14/14 17/17/17
f 18/18/18 17/17/17 19/19/19
f 19/19/19 20/20/20 18/18/18
f 21/21/21 18/18/18 20/20/20
f 22/22/22 21/21/21 20/20/20
f 20/20/20 23/23/23 22/22/22
f 24/24/24 25/25/25 26/26/26
f 24/24/24 26/26/26 27/27/27
f 28/28/28 29/29/29 30/30/30
f 30/30/30 31/31/31 28/28/28
f 31/31/31 30/30/30 32/32/32
f 33/33/33 34/34/34 35/35/35
f 33/33/33 35/35/35 36/36/36
f 37/37/37 38/38/38 39/39/39
f 37/37/37 39/39/39 40/40/40
f 41/41/41 42/42/42 43/43/43
f 41/41/41 43/43/43 44/44/44
f 45/45/45 44/44/44 43/43/43
f 45/45/45 43/43/43 46/46/46
f 47/47/47 48/48/48 49/49/49
f 47/47/47 50/50/50 48/48/48
f 47/47/47 51/51/51 50/50/50
f 47/47/47 52/52/52 51/51/51
f 53/53/53 54/54/54 55/55/55
f 53/53/53 55/55/55 56/56/56
f 57/57/57 58/58/58 59/59/59
f 57/57/57 59/59/59 60/60/60
f 61/61/61 62/62/62 63/63/63
f 63/63/63 64/64/64 61/61/61
f 64/64/64 65/65/65 61/61/61
f 64/64/64 66/66/66 65/65/65
f 66/66/66 67/67/67 65/65/65
f 67/67/67 68/68/68 65/65/65
f 69/69/69 70/70/70 71/71/71
f 71/71/71 72/72/72 69/69/69
f 72/72/72 73/73/73 69/69/69
f 72/72/72 74/74/74 73/73/73
f 74/74/74 75/75/75 73/73/73
f 75/75/75 76/76/76 73/73/73
f 77/77/77 78/78/78 79/79/79
f 77/77/77 79/79/79 80/80/80
f 81/81/81 82/82/82 83/83/83
f 81/81/81 83/83/83 84/84/84
f 85/85/85 86/86/86 87/87/87
f 85/85/85 87/87/87 88/88/88
f 89/89/89 90/90/90 91/91/91
f 89/89/89 91/91/91 92/92/92
f 93/93/93 94/94/94 95/95/95
f 93/93/93 95/95/95 96/96/96
f 97/97/97 98/98/98 99/99/99
f 97/97/97 99/99/99 100/100/100
f 97/97/97 100/100/100 101/101/101
f 97/97/97 101/101/101 102/102/102
f 103/103/103 104/104/104 105/105/105
f 103/103/103 105/105/105 106/106/106
f 107/107/107 108/108/108 109/109/109
f 107/107/107 109/109/109 110/110/110
f 107/107/107 110/110/110 111/111/111
f 107/107/107 111/111/111 112/112/112
f 113/113/113 114/114/114 115/115/115
f 113/113/113 115/115/115 116/116/116
f 117/117/117 118/118/118 119/119/119
f 119/119/119 120/120/120 117/117/117
f 120/120/120 121/121/121 117/117/117
f 120/120/120 122/122/122 121/121/121
f 122/122/122 123/123/123 121/121/121
f 123/123/123 124/124/124 121/121/121
f 125/125/125 126/126/126 127/127/127
f 125/125/125 127/127/127 128/128/128
f 129/129/129 130/130/130 131/131/131
f 129/129/129 131/131/131 132/132/132
f 133/133/133 134/134/134 135/135/135
f 133/133/133 135/135/135 136/136/136
f 133/133/133 136/136/136 137/137/137
f 133/133/133 137/137/137 138/138/138
f 139/139/139 140/140/140 141/141/141
f 142/142/142 139/139/139 141/141/141
f 141/141/141 143/143/143 142/142/142
f 144/144/144 145/145/145 146/146/146
f 144/144/144 146/146/146 147/147/147
f 148/148/148 149/149/149 150/150/150
f 148/148/148 150/150/150 151/151/151
f 152/152/152 153/153/153 154/154/154
f 154/154/154 155/155/155 152/152/152
f 154/154/154 156/156/156 155/155/155
f 156/156/156 154/154/154 157/157/157
f 157/157/157 158/158/158 156/156/156
f 158/158/158 159/159/159 156/156/156
f 158/158/158 160/160/160 159/159/159
f 160/160/160 161/161/161 159/159/159
f 162/162/162 163/163/163 164/164/164
f 162/162/162 164/164/164 165/165/165
f 166/166/166 167/167/167 168/168/168
f 169/169/169 166/166/166 168/168/168
f 168/168/168 170/170/170 169/169/169
f 171/171/171 172/172/172 173/173/173
f 171/171/171 173/173/173 174/174/174
f 175/175/175 176/176/176 177/177/177
f 175/175/175 177/177/177 178/178/178
f 179/179/179 180/180/180 181/181/181
f 179/179/179 181/181/181 182/182/182
f 183/183/183 184/184/184 185/185/185
f 183/183/183 185/185/185 186/186/186
f 187/187/187 188/188/188 189/189/189
f 189/189/189 190/190/190 187/187/187
f 189/189/189 191/191/191 190/190/190
f 191/191/191 192/192/192 190/190/190
f 191/191/191 193/193/193 192/192/192
f 191/191/191 194/194/194 193/193/193
f 195/195/195 196/196/196 197/197/197
f 197/197/197 198/198/198 195/195/195
f 197/197/197 199/199/199 198/198/198
f 199/199/199 200/200/200 198/198/198
f 199/199/199 201/201/201 200/200/200
f 199/199/199 202/202/202 201/201/201
f 203/203/203 204/204/204 205/205/205
f 203/203/203 205/205/205 206/206/206
f 207/207/207 208/208/208 209/209/209
f 207/207/207 209/209/209 210/210/210
f 211/211/211 212/212/212 213/213/213
f 211/211/211 213/213/213 214/214/214
f 215/215/215 216/216/216 217/217/217
f 215/215/215 217/217/217 218/218/218
f 219/219/219 220/220/220 221/221/221
f 219/219/219 221/221/221 222/222/222
f 223/223/223 224/224/224 225/225/225
f 223/223/223 225/225/225 226/226/226
f 227/227/227 228/228/228 229/229/229
f 227/227/227 229/229/229 230/230/230
f 231/231/231 232/232/232 233/233/233
f 233/233/233 234/234/234 231/231/231
f 233/233/233 235/235/235 234/234/234
f 235/235/235 236/236/236 234/234/234
f 235/235/235 237/237/237 236/236/236
f 235/235/235 238/238/238 237/237/237
f 239/239/239 240/240/240 241/241/241
f 239/239/239 241/241/241 242/242/242
f 243/243/243 244/244/244 245/245/245
f 243/243/243 245/245/245 246/246/246
