# wings_backpack (gear rip -> Godot: Z negated + winding reversed)
v -0.303976 0.098606 0.266835
v -0.509100 0.040094 0.166835
v -0.934032 0.266700 0.297857
v -0.294755 0.238614 0.297857
v -0.220090 0.410114 0.317092
v -0.989341 0.359108 0.317092
v -0.435319 0.735868 0.327633
v -1.022860 0.776277 0.327633
v -0.572606 1.067888 0.284675
v -1.086906 1.028518 0.284674
v -0.883202 1.248182 0.204606
v -1.203257 1.216303 0.204606
v -0.943930 0.243134 0.311597
v -1.014403 0.356711 0.338023
v -1.014703 0.379095 0.293315
v -0.944601 0.266901 0.267612
v -0.917750 0.304179 0.287345
v -0.474923 0.058938 0.148078
v -0.501774 0.021661 0.128344
v -0.944601 0.266901 0.267612
v -0.474923 0.058938 0.148078
v -0.474252 0.035171 0.192063
v -0.501103 -0.002107 0.172329
v -0.501774 0.021661 0.128344
v -0.474252 0.035171 0.192063
v -0.917079 0.280412 0.331330
v -0.943930 0.243134 0.311597
v -0.501103 -0.002107 0.172329
v -0.917750 0.304179 0.287345
v -0.917079 0.280412 0.331330
v -0.474252 0.035171 0.192063
v -0.474923 0.058938 0.148078
v -0.501774 0.021661 0.128344
v -0.501103 -0.002107 0.172329
v -0.943930 0.243134 0.311597
v -0.944601 0.266901 0.267612
v -1.014703 0.379095 0.293315
v -1.050674 0.775513 0.297421
v -1.000898 0.779867 0.299266
v -0.964927 0.383449 0.295159
v -0.917750 0.304179 0.287345
v -0.964927 0.383449 0.295159
v -0.964626 0.361065 0.339868
v -0.917079 0.280412 0.331330
v -0.944601 0.266901 0.267612
v -1.014703 0.379095 0.293315
v -0.964927 0.383449 0.295159
v -0.917750 0.304179 0.287345
v -0.917079 0.280412 0.331330
v -0.964626 0.361065 0.339868
v -1.014403 0.356711 0.338023
v -0.943930 0.243134 0.311597
v -1.052626 0.776666 0.347370
v -1.113022 1.038794 0.308179
v -1.110489 1.016545 0.263474
v -1.050674 0.775513 0.297421
v -0.964626 0.361065 0.339868
v -1.002850 0.781020 0.349215
v -1.052626 0.776666 0.347370
v -1.014403 0.356711 0.338023
v -1.014403 0.356711 0.338023
v -1.052626 0.776666 0.347370
v -1.050674 0.775513 0.297421
v -1.014703 0.379095 0.293315
v -0.964927 0.383449 0.295159
v -1.000898 0.779867 0.299266
v -1.002850 0.781020 0.349215
v -0.964626 0.361065 0.339868
v -1.113022 1.038794 0.308179
v -1.167942 1.130159 0.267425
v -1.165410 1.107910 0.222720
v -1.110489 1.016545 0.263474
v -1.000898 0.779867 0.299266
v -1.061711 1.027230 0.260919
v -1.064243 1.049479 0.305624
v -1.002850 0.781020 0.349215
v -1.050674 0.775513 0.297421
v -1.110489 1.016545 0.263474
v -1.061711 1.027230 0.260919
v -1.000898 0.779867 0.299266
v -1.002850 0.781020 0.349215
v -1.064243 1.049479 0.305624
v -1.113022 1.038794 0.308179
v -1.052626 0.776666 0.347370
v -1.165410 1.107910 0.222720
v -1.239093 1.202329 0.174359
v -1.206556 1.237021 0.158937
v -1.116632 1.118594 0.220165
v -1.061711 1.027230 0.260919
v -1.116632 1.118594 0.220165
v -1.119164 1.140843 0.264871
v -1.064243 1.049479 0.305624
v -1.110489 1.016545 0.263474
v -1.165410 1.107910 0.222720
v -1.116632 1.118594 0.220165
v -1.061711 1.027230 0.260919
v -1.064243 1.049479 0.305624
v -1.119164 1.140843 0.264871
v -1.167942 1.130159 0.267425
v -1.113022 1.038794 0.308179
v -1.209088 1.259270 0.203642
v -1.206556 1.237021 0.158937
v -1.239093 1.202329 0.174359
v -1.241625 1.224578 0.219064
v -1.119164 1.140843 0.264871
v -1.209088 1.259270 0.203642
v -1.241625 1.224578 0.219064
v -1.167942 1.130159 0.267425
v -1.167942 1.130159 0.267425
v -1.241625 1.224578 0.219064
v -1.239093 1.202329 0.174359
v -1.165410 1.107910 0.222720
v -1.116632 1.118594 0.220165
v -1.206556 1.237021 0.158937
v -1.209088 1.259270 0.203642
v -1.119164 1.140843 0.264871
v -0.303976 0.098606 0.266835
v -0.934032 0.266700 0.297857
v -0.509100 0.040094 0.166835
v -0.294755 0.238614 0.297857
v -0.220090 0.410114 0.317092
v -0.989341 0.359108 0.317092
v -0.435319 0.735868 0.327633
v -1.022860 0.776277 0.327633
v -0.572606 1.067888 0.284675
v -1.086906 1.028518 0.284674
v -0.883202 1.248182 0.204606
v -1.203257 1.216303 0.204606
v -0.303976 -0.098606 0.266835
v -0.934032 -0.266700 0.297857
v -0.509100 -0.040094 0.166835
v -0.294755 -0.238614 0.297857
v -0.220090 -0.410114 0.317092
v -0.989341 -0.359108 0.317092
v -0.435319 -0.735868 0.327633
v -1.022860 -0.776277 0.327633
v -0.572606 -1.067888 0.284675
v -1.086906 -1.028518 0.284674
v -0.883202 -1.248182 0.204606
v -1.203257 -1.216303 0.204606
v -0.943930 -0.243134 0.311597
v -0.944601 -0.266901 0.267612
v -1.014703 -0.379095 0.293315
v -1.014403 -0.356711 0.338023
v -0.917750 -0.304179 0.287345
v -0.944601 -0.266901 0.267612
v -0.501774 -0.021661 0.128344
v -0.474923 -0.058938 0.148078
v -0.474923 -0.058938 0.148078
v -0.501774 -0.021661 0.128344
v -0.501103 0.002107 0.172329
v -0.474252 -0.035171 0.192063
v -0.474252 -0.035171 0.192063
v -0.501103 0.002107 0.172329
v -0.943930 -0.243134 0.311597
v -0.917079 -0.280412 0.331330
v -0.917750 -0.304179 0.287345
v -0.474923 -0.058938 0.148078
v -0.474252 -0.035171 0.192063
v -0.917079 -0.280412 0.331330
v -0.501774 -0.021661 0.128344
v -0.944601 -0.266901 0.267612
v -0.943930 -0.243134 0.311597
v -0.501103 0.002107 0.172329
v -1.014703 -0.379095 0.293315
v -0.964927 -0.383449 0.295159
v -1.000898 -0.779867 0.299266
v -1.050674 -0.775513 0.297421
v -0.917750 -0.304179 0.287345
v -0.917079 -0.280412 0.331330
v -0.964626 -0.361065 0.339868
v -0.964927 -0.383449 0.295159
v -0.944601 -0.266901 0.267612
v -0.917750 -0.304179 0.287345
v -0.964927 -0.383449 0.295159
v -1.014703 -0.379095 0.293315
v -0.917079 -0.280412 0.331330
v -0.943930 -0.243134 0.311597
v -1.014403 -0.356711 0.338023
v -0.964626 -0.361065 0.339868
v -1.052626 -0.776666 0.347370
v -1.050674 -0.775513 0.297421
v -1.110489 -1.016545 0.263474
v -1.113022 -1.038794 0.308179
v -0.964626 -0.361065 0.339868
v -1.014403 -0.356711 0.338023
v -1.052626 -0.776666 0.347370
v -1.002850 -0.781020 0.349215
v -1.014403 -0.356711 0.338023
v -1.014703 -0.379095 0.293315
v -1.050674 -0.775513 0.297421
v -1.052626 -0.776666 0.347370
v -0.964927 -0.383449 0.295159
v -0.964626 -0.361065 0.339868
v -1.002850 -0.781020 0.349215
v -1.000898 -0.779867 0.299266
v -1.113022 -1.038794 0.308179
v -1.110489 -1.016545 0.263474
v -1.165410 -1.107910 0.222720
v -1.167942 -1.130159 0.267425
v -1.000898 -0.779867 0.299266
v -1.002850 -0.781020 0.349215
v -1.064243 -1.049479 0.305624
v -1.061711 -1.027230 0.260919
v -1.050674 -0.775513 0.297421
v -1.000898 -0.779867 0.299266
v -1.061711 -1.027230 0.260919
v -1.110489 -1.016545 0.263474
v -1.002850 -0.781020 0.349215
v -1.052626 -0.776666 0.347370
v -1.113022 -1.038794 0.308179
v -1.064243 -1.049479 0.305624
v -1.165410 -1.107910 0.222720
v -1.116632 -1.118594 0.220165
v -1.206556 -1.237021 0.158937
v -1.239093 -1.202329 0.174359
v -1.061711 -1.027230 0.260919
v -1.064243 -1.049479 0.305624
v -1.119164 -1.140843 0.264871
v -1.116632 -1.118594 0.220165
v -1.110489 -1.016545 0.263474
v -1.061711 -1.027230 0.260919
v -1.116632 -1.118594 0.220165
v -1.165410 -1.107910 0.222720
v -1.064243 -1.049479 0.305624
v -1.113022 -1.038794 0.308179
v -1.167942 -1.130159 0.267425
v -1.119164 -1.140843 0.264871
v -1.209088 -1.259270 0.203642
v -1.241625 -1.224578 0.219064
v -1.239093 -1.202329 0.174359
v -1.206556 -1.237021 0.158937
v -1.119164 -1.140843 0.264871
v -1.167942 -1.130159 0.267425
v -1.241625 -1.224578 0.219064
v -1.209088 -1.259270 0.203642
v -1.167942 -1.130159 0.267425
v -1.165410 -1.107910 0.222720
v -1.239093 -1.202329 0.174359
v -1.241625 -1.224578 0.219064
v -1.116632 -1.118594 0.220165
v -1.119164 -1.140843 0.264871
v -1.209088 -1.259270 0.203642
v -1.206556 -1.237021 0.158937
v -0.303976 -0.098606 0.266835
v -0.509100 -0.040094 0.166835
v -0.934032 -0.266700 0.297857
v -0.294755 -0.238614 0.297857
v -0.220090 -0.410114 0.317092
v -0.989341 -0.359108 0.317092
v -0.435319 -0.735868 0.327633
v -1.022860 -0.776277 0.327633
v -0.572606 -1.067888 0.284675
v -1.086906 -1.028518 0.284674
v -0.883202 -1.248182 0.204606
v -1.203257 -1.216303 0.204606
vt 0.802358031 0.531145215
vt 0.804794788 0.516546965
vt 0.782363296 0.494639903
vt 0.793577671 0.53324455
vt 0.784159541 0.540375292
vt 0.775777936 0.492672712
vt 0.761055708 0.532110929
vt 0.749812841 0.496861786
vt 0.738573432 0.528747916
vt 0.733242154 0.496784657
vt 0.721964836 0.512669921
vt 0.719064653 0.492672592
vt 0.271189392 0.384385407
vt 0.271189392 0.477810681
vt 0.364614725 0.477810681
vt 0.364614725 0.384385407
vt 0.271189392 0.384385407
vt 0.271189392 0.477810681
vt 0.364614725 0.477810681
vt 0.364614725 0.384385407
vt 0.271189392 0.384385407
vt 0.271189392 0.477810681
vt 0.364614725 0.477810681
vt 0.364614725 0.384385407
vt 0.271189392 0.384385407
vt 0.271189392 0.477810681
vt 0.364614725 0.477810681
vt 0.364614725 0.384385407
vt 0.271189392 0.384385407
vt 0.271189392 0.477810681
vt 0.364614725 0.477810681
vt 0.364614725 0.384385407
vt 0.271189392 0.384385407
vt 0.271189392 0.477810681
vt 0.364614725 0.477810681
vt 0.364614725 0.384385407
vt 0.271189392 0.384385407
vt 0.271189392 0.477810681
vt 0.364614725 0.477810681
vt 0.364614725 0.384385407
vt 0.271189392 0.384385407
vt 0.271189392 0.477810681
vt 0.364614725 0.477810681
vt 0.364614725 0.384385407
vt 0.271189392 0.384385407
vt 0.271189392 0.477810681
vt 0.364614725 0.477810681
vt 0.364614725 0.384385407
vt 0.271189392 0.384385407
vt 0.271189392 0.477810681
vt 0.364614725 0.477810681
vt 0.364614725 0.384385407
vt 0.271189392 0.384385407
vt 0.271189392 0.477810681
vt 0.364614725 0.477810681
vt 0.364614725 0.384385407
vt 0.271189392 0.384385407
vt 0.271189392 0.477810681
vt 0.364614725 0.477810681
vt 0.364614725 0.384385407
vt 0.271189392 0.384385407
vt 0.271189392 0.477810681
vt 0.364614725 0.477810681
vt 0.364614725 0.384385407
vt 0.271189392 0.384385407
vt 0.271189392 0.477810681
vt 0.364614725 0.477810681
vt 0.364614725 0.384385407
vt 0.271189392 0.384385407
vt 0.271189392 0.477810681
vt 0.364614725 0.477810681
vt 0.364614725 0.384385407
vt 0.271189392 0.384385407
vt 0.271189392 0.477810681
vt 0.364614725 0.477810681
vt 0.364614725 0.384385407
vt 0.271189392 0.384385407
vt 0.271189392 0.477810681
vt 0.364614725 0.477810681
vt 0.364614725 0.384385407
vt 0.271189392 0.384385407
vt 0.271189392 0.477810681
vt 0.364614725 0.477810681
vt 0.364614725 0.384385407
vt 0.271189392 0.384385407
vt 0.271189392 0.477810681
vt 0.364614725 0.477810681
vt 0.364614725 0.384385407
vt 0.271189392 0.384385407
vt 0.271189392 0.477810681
vt 0.364614725 0.477810681
vt 0.364614725 0.384385407
vt 0.271189392 0.384385407
vt 0.271189392 0.477810681
vt 0.364614725 0.477810681
vt 0.364614725 0.384385407
vt 0.271189392 0.384385407
vt 0.271189392 0.477810681
vt 0.364614725 0.477810681
vt 0.364614725 0.384385407
vt 0.271189392 0.384385407
vt 0.271189392 0.477810681
vt 0.364614725 0.477810681
vt 0.364614725 0.384385407
vt 0.271189392 0.384385407
vt 0.271189392 0.477810681
vt 0.364614725 0.477810681
vt 0.364614725 0.384385407
vt 0.271189392 0.384385407
vt 0.271189392 0.477810681
vt 0.364614725 0.477810681
vt 0.364614725 0.384385407
vt 0.271189392 0.384385407
vt 0.271189392 0.477810681
vt 0.364614725 0.477810681
vt 0.364614725 0.384385407
vt 0.807555676 0.552501202
vt 0.781823397 0.585216284
vt 0.807555676 0.567301452
vt 0.799240828 0.548984885
vt 0.791125298 0.540400803
vt 0.775004029 0.586072445
vt 0.766975999 0.544748366
vt 0.75008297 0.577665389
vt 0.74424696 0.544363916
vt 0.733725667 0.575013161
vt 0.7252177 0.557487905
vt 0.719064653 0.576734781
vt 0.802358031 0.531145215
vt 0.782363296 0.494639903
vt 0.804794788 0.516546965
vt 0.793577671 0.53324455
vt 0.784159541 0.540375292
vt 0.775777936 0.492672712
vt 0.761055708 0.532110929
vt 0.749812841 0.496861786
vt 0.738573432 0.528747916
vt 0.733242154 0.496784657
vt 0.721964836 0.512669921
vt 0.719064653 0.492672592
vt 0.271189392 0.384385407
vt 0.364614725 0.384385407
vt 0.364614725 0.477810681
vt 0.271189392 0.477810681
vt 0.271189392 0.384385407
vt 0.364614725 0.384385407
vt 0.364614725 0.477810681
vt 0.271189392 0.477810681
vt 0.271189392 0.384385407
vt 0.364614725 0.384385407
vt 0.364614725 0.477810681
vt 0.271189392 0.477810681
vt 0.271189392 0.384385407
vt 0.364614725 0.384385407
vt 0.364614725 0.477810681
vt 0.271189392 0.477810681
vt 0.271189392 0.384385407
vt 0.364614725 0.384385407
vt 0.364614725 0.477810681
vt 0.271189392 0.477810681
vt 0.271189392 0.384385407
vt 0.364614725 0.384385407
vt 0.364614725 0.477810681
vt 0.271189392 0.477810681
vt 0.271189392 0.384385407
vt 0.364614725 0.384385407
vt 0.364614725 0.477810681
vt 0.271189392 0.477810681
vt 0.271189392 0.384385407
vt 0.364614725 0.384385407
vt 0.364614725 0.477810681
vt 0.271189392 0.477810681
vt 0.271189392 0.384385407
vt 0.364614725 0.384385407
vt 0.364614725 0.477810681
vt 0.271189392 0.477810681
vt 0.271189392 0.384385407
vt 0.364614725 0.384385407
vt 0.364614725 0.477810681
vt 0.271189392 0.477810681
vt 0.271189392 0.384385407
vt 0.364614725 0.384385407
vt 0.364614725 0.477810681
vt 0.271189392 0.477810681
vt 0.271189392 0.384385407
vt 0.364614725 0.384385407
vt 0.364614725 0.477810681
vt 0.271189392 0.477810681
vt 0.271189392 0.384385407
vt 0.364614725 0.384385407
vt 0.364614725 0.477810681
vt 0.271189392 0.477810681
vt 0.271189392 0.384385407
vt 0.364614725 0.384385407
vt 0.364614725 0.477810681
vt 0.271189392 0.477810681
vt 0.271189392 0.384385407
vt 0.364614725 0.384385407
vt 0.364614725 0.477810681
vt 0.271189392 0.477810681
vt 0.271189392 0.384385407
vt 0.364614725 0.384385407
vt 0.364614725 0.477810681
vt 0.271189392 0.477810681
vt 0.271189392 0.384385407
vt 0.364614725 0.384385407
vt 0.364614725 0.477810681
vt 0.271189392 0.477810681
vt 0.271189392 0.384385407
vt 0.364614725 0.384385407
vt 0.364614725 0.477810681
vt 0.271189392 0.477810681
vt 0.271189392 0.384385407
vt 0.364614725 0.384385407
vt 0.364614725 0.477810681
vt 0.271189392 0.477810681
vt 0.271189392 0.384385407
vt 0.364614725 0.384385407
vt 0.364614725 0.477810681
vt 0.271189392 0.477810681
vt 0.271189392 0.384385407
vt 0.364614725 0.384385407
vt 0.364614725 0.477810681
vt 0.271189392 0.477810681
vt 0.271189392 0.384385407
vt 0.364614725 0.384385407
vt 0.364614725 0.477810681
vt 0.271189392 0.477810681
vt 0.271189392 0.384385407
vt 0.364614725 0.384385407
vt 0.364614725 0.477810681
vt 0.271189392 0.477810681
vt 0.271189392 0.384385407
vt 0.364614725 0.384385407
vt 0.364614725 0.477810681
vt 0.271189392 0.477810681
vt 0.271189392 0.384385407
vt 0.364614725 0.384385407
vt 0.364614725 0.477810681
vt 0.271189392 0.477810681
vt 0.271189392 0.384385407
vt 0.364614725 0.384385407
vt 0.364614725 0.477810681
vt 0.271189392 0.477810681
vt 0.807555676 0.552501202
vt 0.807555676 0.567301452
vt 0.781823397 0.585216284
vt 0.799240828 0.548984885
vt 0.791125298 0.540400803
vt 0.775004029 0.586072445
vt 0.766975999 0.544748366
vt 0.75008297 0.577665389
vt 0.74424696 0.544363916
vt 0.733725667 0.575013161
vt 0.7252177 0.557487905
vt 0.719064653 0.576734781
vn 0.085836 0.482591 -0.871630
vn 0.085836 0.482591 -0.871630
vn 0.042471 0.318973 -0.946812
vn 0.042471 0.318973 -0.946812
vn -0.001288 0.086501 -0.996251
vn -0.001288 0.086501 -0.996251
vn -0.000180 -0.058844 -0.998267
vn -0.000180 -0.058844 -0.998267
vn 0.015746 -0.258459 -0.965894
vn 0.015746 -0.258459 -0.965894
vn 0.031415 -0.367880 -0.929342
vn 0.031415 -0.367880 -0.929342
vn -0.710264 -0.624994 -0.323896
vn -0.946798 -0.289289 -0.141017
vn -0.946798 -0.289289 -0.141017
vn -0.710264 -0.624994 -0.323896
vn 0.060983 0.366320 -0.928488
vn -0.013416 0.475342 -0.879699
vn -0.013416 0.475342 -0.879699
vn 0.060983 0.366320 -0.928488
vn 0.843466 -0.467117 -0.265268
vn 0.843466 -0.467117 -0.265268
vn 0.843466 -0.467117 -0.265268
vn 0.843466 -0.467117 -0.265268
vn 0.013416 -0.475342 0.879699
vn -0.060087 -0.367715 0.927995
vn -0.060087 -0.367715 0.927995
vn 0.013416 -0.475342 0.879699
vn 0.708742 0.626348 0.324612
vn 0.708742 0.626348 0.324612
vn 0.537015 0.745555 0.394667
vn 0.537015 0.745555 0.394667
vn -0.537015 -0.745554 -0.394669
vn -0.537015 -0.745554 -0.394669
vn -0.710264 -0.624994 -0.323896
vn -0.710264 -0.624994 -0.323896
vn 0.085732 0.132946 -0.987408
vn 0.025336 -0.064835 -0.997574
vn 0.025336 -0.064835 -0.997574
vn 0.085732 0.132946 -0.987408
vn 0.708742 0.626348 0.324612
vn 0.946101 0.291099 0.141963
vn 0.946101 0.291099 0.141963
vn 0.708742 0.626348 0.324612
vn 0.060983 0.366320 -0.928488
vn 0.085732 0.132946 -0.987408
vn 0.085732 0.132946 -0.987408
vn 0.060983 0.366320 -0.928488
vn -0.060087 -0.367715 0.927995
vn -0.084282 -0.140303 0.986515
vn -0.084282 -0.140303 0.986515
vn -0.060087 -0.367715 0.927995
vn -0.986898 -0.160799 -0.013303
vn -0.934445 -0.343633 0.093431
vn -0.934445 -0.343633 0.093431
vn -0.986898 -0.160799 -0.013303
vn -0.084282 -0.140303 0.986515
vn -0.025430 0.062836 0.997700
vn -0.025430 0.062836 0.997700
vn -0.084282 -0.140303 0.986515
vn -0.946798 -0.289289 -0.141017
vn -0.986898 -0.160799 -0.013303
vn -0.986898 -0.160799 -0.013303
vn -0.946798 -0.289289 -0.141017
vn 0.946101 0.291099 0.141963
vn 0.987051 0.159831 0.013544
vn 0.987051 0.159831 0.013544
vn 0.946101 0.291099 0.141963
vn -0.934445 -0.343633 0.093431
vn -0.849561 -0.489857 0.195670
vn -0.849561 -0.489857 0.195670
vn -0.934445 -0.343633 0.093431
vn 0.987051 0.159831 0.013544
vn 0.934804 0.342717 -0.093199
vn 0.934804 0.342717 -0.093199
vn 0.987051 0.159831 0.013544
vn 0.025336 -0.064835 -0.997574
vn 0.025990 -0.267897 -0.963097
vn 0.025990 -0.267897 -0.963097
vn 0.025336 -0.064835 -0.997574
vn -0.025430 0.062836 0.997700
vn -0.026574 0.271649 0.962029
vn -0.026574 0.271649 0.962029
vn -0.025430 0.062836 0.997700
vn 0.039335 -0.410275 -0.911113
vn 0.041765 -0.431801 -0.901002
vn 0.041765 -0.431801 -0.901002
vn 0.039335 -0.410275 -0.911113
vn 0.934804 0.342717 -0.093199
vn 0.853083 0.484787 -0.192952
vn 0.853083 0.484787 -0.192952
vn 0.934804 0.342717 -0.093199
vn 0.025990 -0.267897 -0.963097
vn 0.039335 -0.410275 -0.911113
vn 0.039335 -0.410275 -0.911113
vn 0.025990 -0.267897 -0.963097
vn -0.026574 0.271649 0.962029
vn -0.039335 0.410275 0.911113
vn -0.039335 0.410275 0.911113
vn -0.026574 0.271649 0.962029
vn -0.757615 0.566206 -0.324701
vn -0.757615 0.566206 -0.324701
vn -0.757615 0.566206 -0.324701
vn -0.757615 0.566206 -0.324701
vn -0.039335 0.410275 0.911113
vn -0.041765 0.431800 0.901002
vn -0.041765 0.431800 0.901002
vn -0.039335 0.410275 0.911113
vn -0.849561 -0.489857 0.195670
vn -0.820366 -0.529121 0.216864
vn -0.820366 -0.529121 0.216864
vn -0.849561 -0.489857 0.195670
vn 0.853083 0.484787 -0.192952
vn 0.827976 0.519324 -0.211563
vn 0.827976 0.519324 -0.211563
vn 0.853083 0.484787 -0.192952
vn -0.085836 -0.482591 0.871630
vn -0.042471 -0.318973 0.946812
vn -0.085836 -0.482591 0.871630
vn -0.042471 -0.318973 0.946812
vn 0.001288 -0.086501 0.996251
vn 0.001288 -0.086501 0.996251
vn 0.000180 0.058844 0.998267
vn 0.000180 0.058844 0.998267
vn -0.015746 0.258459 0.965894
vn -0.015746 0.258459 0.965894
vn -0.031415 0.367880 0.929342
vn -0.031415 0.367880 0.929342
vn 0.085836 -0.482591 -0.871630
vn 0.042471 -0.318973 -0.946812
vn 0.085836 -0.482591 -0.871630
vn 0.042471 -0.318973 -0.946812
vn -0.001288 -0.086501 -0.996251
vn -0.001288 -0.086501 -0.996251
vn -0.000180 0.058844 -0.998267
vn -0.000180 0.058844 -0.998267
vn 0.015746 0.258459 -0.965894
vn 0.015746 0.258459 -0.965894
vn 0.031415 0.367880 -0.929342
vn 0.031415 0.367880 -0.929342
vn -0.710264 0.624994 -0.323896
vn -0.710264 0.624994 -0.323896
vn -0.946798 0.289289 -0.141017
vn -0.946798 0.289289 -0.141017
vn 0.060983 -0.366320 -0.928488
vn 0.060983 -0.366320 -0.928488
vn -0.013416 -0.475342 -0.879699
vn -0.013416 -0.475342 -0.879699
vn 0.843466 0.467117 -0.265268
vn 0.843466 0.467117 -0.265268
vn 0.843466 0.467117 -0.265268
vn 0.843466 0.467117 -0.265268
vn 0.013416 0.475342 0.879699
vn 0.013416 0.475342 0.879699
vn -0.060087 0.367715 0.927995
vn -0.060087 0.367715 0.927995
vn 0.708742 -0.626348 0.324612
vn 0.537015 -0.745555 0.394667
vn 0.537015 -0.745555 0.394667
vn 0.708742 -0.626348 0.324612
vn -0.537015 0.745554 -0.394669
vn -0.710264 0.624994 -0.323896
vn -0.710264 0.624994 -0.323896
vn -0.537015 0.745554 -0.394669
vn 0.085732 -0.132946 -0.987408
vn 0.085732 -0.132946 -0.987408
vn 0.025336 0.064835 -0.997574
vn 0.025336 0.064835 -0.997574
vn 0.708742 -0.626348 0.324612
vn 0.708742 -0.626348 0.324612
vn 0.946101 -0.291099 0.141963
vn 0.946101 -0.291099 0.141963
vn 0.060983 -0.366320 -0.928488
vn 0.060983 -0.366320 -0.928488
vn 0.085732 -0.132946 -0.987408
vn 0.085732 -0.132946 -0.987408
vn -0.060087 0.367715 0.927995
vn -0.060087 0.367715 0.927995
vn -0.084282 0.140303 0.986515
vn -0.084282 0.140303 0.986515
vn -0.986898 0.160799 -0.013303
vn -0.986898 0.160799 -0.013303
vn -0.934445 0.343633 0.093431
vn -0.934445 0.343633 0.093431
vn -0.084282 0.140303 0.986515
vn -0.084282 0.140303 0.986515
vn -0.025430 -0.062836 0.997700
vn -0.025430 -0.062836 0.997700
vn -0.946798 0.289289 -0.141017
vn -0.946798 0.289289 -0.141017
vn -0.986898 0.160799 -0.013303
vn -0.986898 0.160799 -0.013303
vn 0.946101 -0.291099 0.141963
vn 0.946101 -0.291099 0.141963
vn 0.987051 -0.159831 0.013544
vn 0.987051 -0.159831 0.013544
vn -0.934445 0.343633 0.093431
vn -0.934445 0.343633 0.093431
vn -0.849561 0.489857 0.195670
vn -0.849561 0.489857 0.195670
vn 0.987051 -0.159831 0.013544
vn 0.987051 -0.159831 0.013544
vn 0.934804 -0.342717 -0.093199
vn 0.934804 -0.342717 -0.093199
vn 0.025336 0.064835 -0.997574
vn 0.025336 0.064835 -0.997574
vn 0.025990 0.267897 -0.963097
vn 0.025990 0.267897 -0.963097
vn -0.025430 -0.062836 0.997700
vn -0.025430 -0.062836 0.997700
vn -0.026574 -0.271649 0.962029
vn -0.026574 -0.271649 0.962029
vn 0.039335 0.410275 -0.911113
vn 0.039335 0.410275 -0.911113
vn 0.041765 0.431801 -0.901002
vn 0.041765 0.431801 -0.901002
vn 0.934804 -0.342717 -0.093199
vn 0.934804 -0.342717 -0.093199
vn 0.853083 -0.484787 -0.192952
vn 0.853083 -0.484787 -0.192952
vn 0.025990 0.267897 -0.963097
vn 0.025990 0.267897 -0.963097
vn 0.039335 0.410275 -0.911113
vn 0.039335 0.410275 -0.911113
vn -0.026574 -0.271649 0.962029
vn -0.026574 -0.271649 0.962029
vn -0.039335 -0.410275 0.911113
vn -0.039335 -0.410275 0.911113
vn -0.757615 -0.566206 -0.324701
vn -0.757615 -0.566206 -0.324701
vn -0.757615 -0.566206 -0.324701
vn -0.757615 -0.566206 -0.324701
vn -0.039335 -0.410275 0.911113
vn -0.039335 -0.410275 0.911113
vn -0.041765 -0.431800 0.901002
vn -0.041765 -0.431800 0.901002
vn -0.849561 0.489857 0.195670
vn -0.849561 0.489857 0.195670
vn -0.820366 0.529121 0.216864
vn -0.820366 0.529121 0.216864
vn 0.853083 -0.484787 -0.192952
vn 0.853083 -0.484787 -0.192952
vn 0.827976 -0.519324 -0.211563
vn 0.827976 -0.519324 -0.211563
vn -0.085836 0.482591 0.871630
vn -0.085836 0.482591 0.871630
vn -0.042471 0.318973 0.946812
vn -0.042471 0.318973 0.946812
vn 0.001288 0.086501 0.996251
vn 0.001288 0.086501 0.996251
vn 0.000180 -0.058844 0.998267
vn 0.000180 -0.058844 0.998267
vn -0.015746 -0.258459 0.965894
vn -0.015746 -0.258459 0.965894
vn -0.031415 -0.367880 0.929342
vn -0.031415 -0.367880 0.929342
f 1/1/1 2/2/2 3/3/3
f 1/1/1 3/3/3 4/4/4
f 3/3/3 5/5/5 4/4/4
f 3/3/3 6/6/6 5/5/5
f 6/6/6 7/7/7 5/5/5
f 6/6/6 8/8/8 7/7/7
f 8/8/8 9/9/9 7/7/7
f 8/8/8 10/10/10 9/9/9
f 10/10/10 11/11/11 9/9/9
f 10/10/10 12/12/12 11/11/11
f 13/13/13 14/14/14 15/15/15
f 13/13/13 15/15/15 16/16/16
f 17/17/17 18/18/18 19/19/19
f 17/17/17 19/19/19 20/20/20
f 21/21/21 22/22/22 23/23/23
f 21/21/21 23/23/23 24/24/24
f 25/25/25 26/26/26 27/27/27
f 25/25/25 27/27/27 28/28/28
f 29/29/29 30/30/30 31/31/31
f 29/29/29 31/31/31 32/32/32
f 33/33/33 34/34/34 35/35/35
f 33/33/33 35/35/35 36/36/36
f 37/37/37 38/38/38 39/39/39
f 37/37/37 39/39/39 40/40/40
f 41/41/41 42/42/42 43/43/43
f 41/41/41 43/43/43 44/44/44
f 45/45/45 46/46/46 47/47/47
f 45/45/45 47/47/47 48/48/48
f 49/49/49 50/50/50 51/51/51
f 49/49/49 51/51/51 52/52/52
f 53/53/53 54/54/54 55/55/55
f 53/53/53 55/55/55 56/56/56
f 57/57/57 58/58/58 59/59/59
f 57/57/57 59/59/59 60/60/60
f 61/61/61 62/62/62 63/63/63
f 61/61/61 63/63/63 64/64/64
f 65/65/65 66/66/66 67/67/67
f 65/65/65 67/67/67 68/68/68
f 69/69/69 70/70/70 71/71/71
f 69/69/69 71/71/71 72/72/72
f 73/73/73 74/74/74 75/75/75
f 73/73/73 75/75/75 76/76/76
f 77/77/77 78/78/78 79/79/79
f 77/77/77 79/79/79 80/80/80
f 81/81/81 82/82/82 83/83/83
f 81/81/81 83/83/83 84/84/84
f 85/85/85 86/86/86 87/87/87
f 85/85/85 87/87/87 88/88/88
f 89/89/89 90/90/90 91/91/91
f 89/89/89 91/91/91 92/92/92
f 93/93/93 94/94/94 95/95/95
f 93/93/93 95/95/95 96/96/96
f 97/97/97 98/98/98 99/99/99
f 97/97/97 99/99/99 100/100/100
f 101/101/101 102/102/102 103/103/103
f 101/101/101 103/103/103 104/104/104
f 105/105/105 106/106/106 107/107/107
f 105/105/105 107/107/107 108/108/108
f 109/109/109 110/110/110 111/111/111
f 109/109/109 111/111/111 112/112/112
f 113/113/113 114/114/114 115/115/115
f 113/113/113 115/115/115 116/116/116
f 117/117/117 118/118/118 119/119/119
f 117/117/117 120/120/120 118/118/118
f 118/118/118 120/120/120 121/121/121
f 118/118/118 121/121/121 122/122/122
f 122/122/122 121/121/121 123/123/123
f 122/122/122 123/123/123 124/124/124
f 124/124/124 123/123/123 125/125/125
f 124/124/124 125/125/125 126/126/126
f 126/126/126 125/125/125 127/127/127
f 126/126/126 127/127/127 128/128/128
f 129/129/129 130/130/130 131/131/131
f 129/129/129 132/132/132 130/130/130
f 130/130/130 132/132/132 133/133/133
f 130/130/130 133/133/133 134/134/134
f 134/134/134 133/133/133 135/135/135
f 134/134/134 135/135/135 136/136/136
f 136/136/136 135/135/135 137/137/137
f 136/136/136 137/137/137 138/138/138
f 138/138/138 137/137/137 139/139/139
f 138/138/138 139/139/139 140/140/140
f 141/141/141 142/142/142 143/143/143
f 141/141/141 143/143/143 144/144/144
f 145/145/145 146/146/146 147/147/147
f 145/145/145 147/147/147 148/148/148
f 149/149/149 150/150/150 151/151/151
f 149/149/149 151/151/151 152/152/152
f 153/153/153 154/154/154 155/155/155
f 153/153/153 155/155/155 156/156/156
f 157/157/157 158/158/158 159/159/159
f 157/157/157 159/159/159 160/160/160
f 161/161/161 162/162/162 163/163/163
f 161/161/161 163/163/163 164/164/164
f 165/165/165 166/166/166 167/167/167
f 165/165/165 167/167/167 168/168/168
f 169/169/169 170/170/170 171/171/171
f 169/169/169 171/171/171 172/172/172
f 173/173/173 174/174/174 175/175/175
f 173/173/173 175/175/175 176/176/176
f 177/177/177 178/178/178 179/179/179
f 177/177/177 179/179/179 180/180/180
f 181/181/181 182/182/182 183/183/183
f 181/181/181 183/183/183 184/184/184
f 185/185/185 186/186/186 187/187/187
f 185/185/185 187/187/187 188/188/188
f 189/189/189 190/190/190 191/191/191
f 189/189/189 191/191/191 192/192/192
f 193/193/193 194/194/194 195/195/195
f 193/193/193 195/195/195 196/196/196
f 197/197/197 198/198/198 199/199/199
f 197/197/197 199/199/199 200/200/200
f 201/201/201 202/202/202 203/203/203
f 201/201/201 203/203/203 204/204/204
f 205/205/205 206/206/206 207/207/207
f 205/205/205 207/207/207 208/208/208
f 209/209/209 210/210/210 211/211/211
f 209/209/209 211/211/211 212/212/212
f 213/213/213 214/214/214 215/215/215
f 213/213/213 215/215/215 216/216/216
f 217/217/217 218/218/218 219/219/219
f 217/217/217 219/219/219 220/220/220
f 221/221/221 222/222/222 223/223/223
f 221/221/221 223/223/223 224/224/224
f 225/225/225 226/226/226 227/227/227
f 225/225/225 227/227/227 228/228/228
f 229/229/229 230/230/230 231/231/231
f 229/229/229 231/231/231 232/232/232
f 233/233/233 234/234/234 235/235/235
f 233/233/233 235/235/235 236/236/236
f 237/237/237 238/238/238 239/239/239
f 237/237/237 239/239/239 240/240/240
f 241/241/241 242/242/242 243/243/243
f 241/241/241 243/243/243 244/244/244
f 245/245/245 246/246/246 247/247/247
f 245/245/245 247/247/247 248/248/248
f 247/247/247 249/249/249 248/248/248
f 247/247/247 250/250/250 249/249/249
f 250/250/250 251/251/251 249/249/249
f 250/250/250 252/252/252 251/251/251
f 252/252/252 253/253/253 251/251/251
f 252/252/252 254/254/254 253/253/253
f 254/254/254 255/255/255 253/253/253
f 254/254/254 256/256/256 255/255/255
