# xmas_bandolier_vest (gear rip -> Godot: Z negated + winding reversed)
v -0.768687 -0.112872 -0.198178
v -0.565367 -0.540822 -0.198180
v -0.768687 -0.341120 -0.198179
v 0.149805 0.166108 -0.198179
v -0.270359 0.383308 -0.198178
v -0.057683 0.383308 -0.198178
v -0.768687 -0.225840 -0.198179
v -0.768687 -0.454089 -0.198179
v -0.768686 -0.454090 0.186008
v -0.768686 -0.225841 0.186009
v -0.022419 0.383308 -0.198178
v -0.235096 0.383308 -0.198178
v -0.235095 0.383307 0.186010
v -0.022418 0.383307 0.186009
v -0.057682 0.383307 0.186009
v -0.270359 0.383307 0.186010
v 0.149806 0.166107 0.186009
v -0.768686 -0.112873 0.186009
v -0.565366 -0.540823 0.186008
v -0.768686 -0.341121 0.186009
v -0.768687 -0.112872 -0.201382
v -0.565367 -0.540822 -0.201383
v -0.768687 -0.341120 -0.201383
v 0.149805 0.166108 -0.201383
v -0.270359 0.383308 -0.201381
v -0.057683 0.383308 -0.201382
v -0.771811 -0.225840 -0.198179
v -0.771811 -0.454089 -0.198179
v -0.771810 -0.454090 0.186008
v -0.771810 -0.225841 0.186009
v -0.022419 0.387298 -0.198178
v -0.235096 0.387298 -0.198178
v -0.235095 0.387297 0.186010
v -0.022418 0.387297 0.186009
v -0.057682 0.383307 0.189213
v -0.270359 0.383307 0.189213
v 0.149806 0.166107 0.189212
v -0.768686 -0.112873 0.189213
v -0.565366 -0.540823 0.189211
v -0.768686 -0.341121 0.189212
v -0.768687 -0.112872 -0.198178
v -0.768687 -0.341120 -0.198179
v -0.565367 -0.540822 -0.198180
v 0.149805 0.166108 -0.198179
v -0.270359 0.383308 -0.198178
v -0.057683 0.383308 -0.198178
v -0.022419 0.383308 -0.198178
v -0.022418 0.383307 0.186009
v -0.235095 0.383307 0.186010
v -0.235096 0.383308 -0.198178
v -0.057682 0.383307 0.186009
v 0.149806 0.166107 0.186009
v -0.270359 0.383307 0.186010
v -0.768686 -0.112873 0.186009
v -0.565366 -0.540823 0.186008
v -0.768686 -0.341121 0.186009
v -0.768687 -0.225840 -0.198179
v -0.768686 -0.454090 0.186008
v -0.768687 -0.454089 -0.198179
v -0.768686 -0.225841 0.186009
vt 0.275837272 0.969739199
vt 0.168748915 0.675260544
vt 0.168748915 0.86265099
vt 0.801721692 0.675260544
vt 0.701939106 0.969739199
vt 0.801721692 0.869956732
vt 0.141740769 0.496114314
vt 0.141740769 0.663388729
vt 0.428722352 0.663388848
vt 0.428722352 0.496114314
vt 0.519992709 0.507462323
vt 0.519992709 0.648057044
vt 0.778862238 0.648057044
vt 0.778862238 0.507462323
vt 0.801721692 0.869956732
vt 0.701939106 0.969739199
vt 0.801721692 0.675260544
vt 0.275837272 0.969739199
vt 0.168748915 0.675260544
vt 0.168748915 0.86265099
vt 0.275837272 0.469739199
vt 0.168748915 0.175260544
vt 0.168748915 0.36265099
vt 0.801721692 0.175260544
vt 0.701939106 0.469739199
vt 0.801721692 0.369956732
vt 0.161890835 0.00785928965
vt 0.161890835 0.151643753
vt 0.408572286 0.151643872
vt 0.408572286 0.00785928965
vt 0.547331393 0.020357132
vt 0.547331393 0.131255984
vt 0.751523554 0.131255984
vt 0.751523554 0.020357132
vt 0.801721692 0.369956732
vt 0.701939106 0.469739199
vt 0.801721692 0.175260544
vt 0.275837272 0.469739199
vt 0.168748915 0.175260544
vt 0.168748915 0.36265099
vt 0.275837272 0.969739199
vt 0.168748915 0.86265099
vt 0.168748915 0.675260544
vt 0.801721692 0.675260544
vt 0.701939106 0.969739199
vt 0.801721692 0.869956732
vt 0.519992709 0.507462323
vt 0.778862238 0.507462323
vt 0.778862238 0.648057044
vt 0.519992709 0.648057044
vt 0.801721692 0.869956732
vt 0.801721692 0.675260544
vt 0.701939106 0.969739199
vt 0.275837272 0.969739199
vt 0.168748915 0.675260544
vt 0.168748915 0.86265099
vt 0.141740769 0.496114314
vt 0.428722352 0.663388848
vt 0.141740769 0.663388729
vt 0.428722352 0.496114314
vn -0.000001 0.000003 -1.000000
vn -0.000001 0.000003 -1.000000
vn -0.000001 0.000003 -1.000000
vn -0.000001 0.000003 -1.000000
vn -0.000001 0.000003 -1.000000
vn -0.000001 0.000003 -1.000000
vn -1.000000 -0.000000 0.000001
vn -1.000000 -0.000000 0.000001
vn -1.000000 -0.000000 0.000001
vn -1.000000 -0.000000 0.000001
vn -0.000000 1.000000 0.000003
vn -0.000000 1.000000 0.000003
vn -0.000000 1.000000 0.000003
vn -0.000000 1.000000 0.000003
vn 0.000001 -0.000003 1.000000
vn 0.000001 -0.000003 1.000000
vn 0.000001 -0.000003 1.000000
vn 0.000001 -0.000003 1.000000
vn 0.000001 -0.000003 1.000000
vn 0.000001 -0.000003 1.000000
vn -0.000001 0.000003 -1.000000
vn -0.000001 0.000003 -1.000000
vn -0.000001 0.000003 -1.000000
vn -0.000001 0.000003 -1.000000
vn -0.000001 0.000003 -1.000000
vn -0.000001 0.000003 -1.000000
vn -1.000000 -0.000000 0.000001
vn -1.000000 -0.000000 0.000001
vn -1.000000 -0.000000 0.000001
vn -1.000000 -0.000000 0.000001
vn -0.000000 1.000000 0.000003
vn -0.000000 1.000000 0.000003
vn -0.000000 1.000000 0.000003
vn -0.000000 1.000000 0.000003
vn 0.000001 -0.000003 1.000000
vn 0.000001 -0.000003 1.000000
vn 0.000001 -0.000003 1.000000
vn 0.000001 -0.000003 1.000000
vn 0.000001 -0.000003 1.000000
vn 0.000001 -0.000003 1.000000
vn 0.000001 -0.000003 1.000000
vn 0.000001 -0.000003 1.000000
vn 0.000001 -0.000003 1.000000
vn 0.000001 -0.000003 1.000000
vn 0.000001 -0.000003 1.000000
vn 0.000001 -0.000003 1.000000
vn 0.000000 -1.000000 -0.000003
vn 0.000000 -1.000000 -0.000003
vn 0.000000 -1.000000 -0.000003
vn 0.000000 -1.000000 -0.000003
vn -0.000001 0.000003 -1.000000
vn -0.000001 0.000003 -1.000000
vn -0.000001 0.000003 -1.000000
vn -0.000001 0.000003 -1.000000
vn -0.000001 0.000003 -1.000000
vn -0.000001 0.000003 -1.000000
vn 1.000000 0.000000 -0.000001
vn 1.000000 0.000000 -0.000001
vn 1.000000 0.000000 -0.000001
vn 1.000000 0.000000 -0.000001
f 1/1/1 2/2/2 3/3/3
f 2/2/2 1/1/1 4/4/4
f 1/1/1 5/5/5 4/4/4
f 4/4/4 5/5/5 6/6/6
f 7/7/7 8/8/8 9/9/9
f 7/7/7 9/9/9 10/10/10
f 11/11/11 12/12/12 13/13/13
f 11/11/11 13/13/13 14/14/14
f 15/15/15 16/16/16 17/17/17
f 18/18/18 17/17/17 16/16/16
f 17/17/17 18/18/18 19/19/19
f 19/19/19 18/18/18 20/20/20
f 21/21/21 22/22/22 23/23/23
f 22/22/22 21/21/21 24/24/24
f 21/21/21 25/25/25 24/24/24
f 24/24/24 25/25/25 26/26/26
f 27/27/27 28/28/28 29/29/29
f 27/27/27 29/29/29 30/30/30
f 31/31/31 32/32/32 33/33/33
f 31/31/31 33/33/33 34/34/34
f 35/35/35 36/36/36 37/37/37
f 38/38/38 37/37/37 36/36/36
f 37/37/37 38/38/38 39/39/39
f 39/39/39 38/38/38 40/40/40
f 41/41/41 42/42/42 43/43/43
f 43/43/43 44/44/44 41/41/41
f 41/41/41 44/44/44 45/45/45
f 44/44/44 46/46/46 45/45/45
f 47/47/47 48/48/48 49/49/49
f 47/47/47 49/49/49 50/50/50
f 51/51/51 52/52/52 53/53/53
f 54/54/54 53/53/53 52/52/52
f 52/52/52 55/55/55 54/54/54
f 55/55/55 56/56/56 54/54/54
f 57/57/57 58/58/58 59/59/59
f 57/57/57 60/60/60 58/58/58
